{
    "track_id": "Fantasy Zone II (FM) - 14 - Game Over",
    "mood": "sad",
    "instruments": {
        "Acoustic Grand Piano": [
            {
                "start_time": 0.0659090909090909,
                "end_time": 0.29318181818181815,
                "pitch": 64,
                "velocity": 25,
                "duration": 0.22727272727272724,
                "tempo": 120.0
            },
            {
                "start_time": 0.32727272727272727,
                "end_time": 0.425,
                "pitch": 60,
                "velocity": 25,
                "duration": 0.09772727272727272,
                "tempo": 120.0
            },
            {
                "start_time": 0.4568181818181818,
                "end_time": 0.6863636363636363,
                "pitch": 65,
                "velocity": 25,
                "duration": 0.2295454545454545,
                "tempo": 120.0
            },
            {
                "start_time": 0.7181818181818181,
                "end_time": 0.8181818181818181,
                "pitch": 62,
                "velocity": 25,
                "duration": 0.09999999999999998,
                "tempo": 120.0
            },
            {
                "start_time": 0.8522727272727272,
                "end_time": 1.084090909090909,
                "pitch": 67,
                "velocity": 25,
                "duration": 0.2318181818181818,
                "tempo": 120.0
            },
            {
                "start_time": 1.1181818181818182,
                "end_time": 1.218181818181818,
                "pitch": 64,
                "velocity": 25,
                "duration": 0.09999999999999987,
                "tempo": 120.0
            },
            {
                "start_time": 1.2522727272727272,
                "end_time": 1.4931818181818182,
                "pitch": 69,
                "velocity": 25,
                "duration": 0.24090909090909096,
                "tempo": 120.0
            },
            {
                "start_time": 1.5272727272727271,
                "end_time": 1.6272727272727272,
                "pitch": 65,
                "velocity": 25,
                "duration": 0.10000000000000009,
                "tempo": 120.0
            },
            {
                "start_time": 1.6613636363636364,
                "end_time": 2.6136363636363633,
                "pitch": 71,
                "velocity": 25,
                "duration": 0.9522727272727269,
                "tempo": 120.0
            },
            {
                "start_time": 2.6454545454545455,
                "end_time": 2.8136363636363635,
                "pitch": 67,
                "velocity": 25,
                "duration": 0.168181818181818,
                "tempo": 120.0
            },
            {
                "start_time": 2.8454545454545452,
                "end_time": 3.0136363636363637,
                "pitch": 69,
                "velocity": 25,
                "duration": 0.16818181818181843,
                "tempo": 120.0
            },
            {
                "start_time": 3.0454545454545454,
                "end_time": 3.2136363636363634,
                "pitch": 71,
                "velocity": 25,
                "duration": 0.168181818181818,
                "tempo": 120.0
            },
            {
                "start_time": 3.2477272727272726,
                "end_time": 4.425,
                "pitch": 60,
                "velocity": 25,
                "duration": 1.1772727272727272,
                "tempo": 120.0
            }
        ],
        "Acoustic Bass": [
            {
                "start_time": 0.26136363636363635,
                "end_time": 0.35909090909090907,
                "pitch": 36,
                "velocity": 64,
                "duration": 0.09772727272727272,
                "tempo": 120.0
            },
            {
                "start_time": 0.3931818181818182,
                "end_time": 0.6204545454545454,
                "pitch": 38,
                "velocity": 64,
                "duration": 0.22727272727272718,
                "tempo": 120.0
            },
            {
                "start_time": 0.6545454545454545,
                "end_time": 0.7522727272727272,
                "pitch": 38,
                "velocity": 64,
                "duration": 0.09772727272727266,
                "tempo": 120.0
            },
            {
                "start_time": 0.7840909090909091,
                "end_time": 1.018181818181818,
                "pitch": 40,
                "velocity": 64,
                "duration": 0.23409090909090902,
                "tempo": 120.0
            },
            {
                "start_time": 1.0522727272727272,
                "end_time": 1.1522727272727271,
                "pitch": 40,
                "velocity": 64,
                "duration": 0.09999999999999987,
                "tempo": 120.0
            },
            {
                "start_time": 1.184090909090909,
                "end_time": 1.4249999999999998,
                "pitch": 41,
                "velocity": 64,
                "duration": 0.24090909090909074,
                "tempo": 120.0
            },
            {
                "start_time": 1.459090909090909,
                "end_time": 1.5613636363636363,
                "pitch": 41,
                "velocity": 64,
                "duration": 0.10227272727272729,
                "tempo": 120.0
            },
            {
                "start_time": 1.5954545454545455,
                "end_time": 2.5454545454545454,
                "pitch": 43,
                "velocity": 64,
                "duration": 0.95,
                "tempo": 120.0
            },
            {
                "start_time": 2.5795454545454546,
                "end_time": 2.745454545454545,
                "pitch": 43,
                "velocity": 64,
                "duration": 0.16590909090909056,
                "tempo": 120.0
            },
            {
                "start_time": 2.7795454545454543,
                "end_time": 2.9454545454545453,
                "pitch": 43,
                "velocity": 64,
                "duration": 0.165909090909091,
                "tempo": 120.0
            },
            {
                "start_time": 2.9795454545454545,
                "end_time": 3.1454545454545455,
                "pitch": 43,
                "velocity": 64,
                "duration": 0.165909090909091,
                "tempo": 120.0
            },
            {
                "start_time": 3.1795454545454542,
                "end_time": 4.363636363636363,
                "pitch": 36,
                "velocity": 64,
                "duration": 1.184090909090909,
                "tempo": 120.0
            }
        ],
        "Trumpet": [
            {
                "start_time": 0.26136363636363635,
                "end_time": 0.35909090909090907,
                "pitch": 65,
                "velocity": 80,
                "duration": 0.09772727272727272,
                "tempo": 120.0
            },
            {
                "start_time": 0.3931818181818182,
                "end_time": 0.6204545454545454,
                "pitch": 70,
                "velocity": 80,
                "duration": 0.22727272727272718,
                "tempo": 120.0
            },
            {
                "start_time": 0.6545454545454545,
                "end_time": 0.7522727272727272,
                "pitch": 67,
                "velocity": 80,
                "duration": 0.09772727272727266,
                "tempo": 120.0
            },
            {
                "start_time": 0.7840909090909091,
                "end_time": 1.018181818181818,
                "pitch": 72,
                "velocity": 80,
                "duration": 0.23409090909090902,
                "tempo": 120.0
            },
            {
                "start_time": 1.0522727272727272,
                "end_time": 1.1522727272727271,
                "pitch": 69,
                "velocity": 80,
                "duration": 0.09999999999999987,
                "tempo": 120.0
            },
            {
                "start_time": 1.184090909090909,
                "end_time": 1.4249999999999998,
                "pitch": 74,
                "velocity": 80,
                "duration": 0.24090909090909074,
                "tempo": 120.0
            },
            {
                "start_time": 1.459090909090909,
                "end_time": 1.5613636363636363,
                "pitch": 70,
                "velocity": 80,
                "duration": 0.10227272727272729,
                "tempo": 120.0
            },
            {
                "start_time": 1.5954545454545455,
                "end_time": 2.5454545454545454,
                "pitch": 76,
                "velocity": 80,
                "duration": 0.95,
                "tempo": 120.0
            },
            {
                "start_time": 2.5795454545454546,
                "end_time": 2.745454545454545,
                "pitch": 72,
                "velocity": 80,
                "duration": 0.16590909090909056,
                "tempo": 120.0
            },
            {
                "start_time": 2.7795454545454543,
                "end_time": 2.9454545454545453,
                "pitch": 74,
                "velocity": 80,
                "duration": 0.165909090909091,
                "tempo": 120.0
            },
            {
                "start_time": 2.9795454545454545,
                "end_time": 3.1454545454545455,
                "pitch": 76,
                "velocity": 80,
                "duration": 0.165909090909091,
                "tempo": 120.0
            },
            {
                "start_time": 3.1795454545454542,
                "end_time": 4.363636363636363,
                "pitch": 65,
                "velocity": 80,
                "duration": 1.184090909090909,
                "tempo": 120.0
            }
        ]
    }
}