{
    "track_id": "Fantasy Zone II (FM) - 13 - Ending Theme",
    "mood": "sad",
    "instruments": {
        "Acoustic Grand Piano": [
            {
                "start_time": 0.35227272727272724,
                "end_time": 0.37727272727272726,
                "pitch": 68,
                "velocity": 64,
                "duration": 0.025000000000000022,
                "tempo": 120.0
            },
            {
                "start_time": 0.4113636363636363,
                "end_time": 0.6454545454545454,
                "pitch": 69,
                "velocity": 64,
                "duration": 0.23409090909090907,
                "tempo": 120.0
            },
            {
                "start_time": 0.6772727272727272,
                "end_time": 0.9113636363636363,
                "pitch": 68,
                "velocity": 64,
                "duration": 0.23409090909090902,
                "tempo": 120.0
            },
            {
                "start_time": 0.9454545454545454,
                "end_time": 1.1954545454545453,
                "pitch": 64,
                "velocity": 64,
                "duration": 0.2499999999999999,
                "tempo": 120.0
            },
            {
                "start_time": 1.2318181818181817,
                "end_time": 1.7477272727272726,
                "pitch": 61,
                "velocity": 64,
                "duration": 0.5159090909090909,
                "tempo": 120.0
            },
            {
                "start_time": 1.7818181818181817,
                "end_time": 2.0113636363636362,
                "pitch": 64,
                "velocity": 64,
                "duration": 0.2295454545454545,
                "tempo": 120.0
            },
            {
                "start_time": 2.043181818181818,
                "end_time": 2.690909090909091,
                "pitch": 67,
                "velocity": 64,
                "duration": 0.6477272727272729,
                "tempo": 120.0
            },
            {
                "start_time": 2.725,
                "end_time": 2.9613636363636364,
                "pitch": 66,
                "velocity": 64,
                "duration": 0.23636363636363633,
                "tempo": 120.0
            },
            {
                "start_time": 2.995454545454545,
                "end_time": 3.0295454545454543,
                "pitch": 62,
                "velocity": 64,
                "duration": 0.03409090909090917,
                "tempo": 120.0
            },
            {
                "start_time": 3.0636363636363635,
                "end_time": 3.0977272727272727,
                "pitch": 63,
                "velocity": 64,
                "duration": 0.03409090909090917,
                "tempo": 120.0
            },
            {
                "start_time": 3.131818181818182,
                "end_time": 3.2318181818181815,
                "pitch": 64,
                "velocity": 64,
                "duration": 0.09999999999999964,
                "tempo": 120.0
            },
            {
                "start_time": 3.2659090909090907,
                "end_time": 3.3659090909090907,
                "pitch": 62,
                "velocity": 64,
                "duration": 0.10000000000000009,
                "tempo": 120.0
            },
            {
                "start_time": 3.4,
                "end_time": 4.168181818181818,
                "pitch": 61,
                "velocity": 64,
                "duration": 0.7681818181818181,
                "tempo": 120.0
            },
            {
                "start_time": 4.6863636363636365,
                "end_time": 4.720454545454545,
                "pitch": 68,
                "velocity": 64,
                "duration": 0.034090909090908283,
                "tempo": 120.0
            },
            {
                "start_time": 4.754545454545454,
                "end_time": 4.9840909090909085,
                "pitch": 69,
                "velocity": 64,
                "duration": 0.2295454545454545,
                "tempo": 120.0
            },
            {
                "start_time": 5.018181818181818,
                "end_time": 5.247727272727272,
                "pitch": 68,
                "velocity": 64,
                "duration": 0.2295454545454545,
                "tempo": 120.0
            },
            {
                "start_time": 5.279545454545454,
                "end_time": 5.513636363636364,
                "pitch": 64,
                "velocity": 64,
                "duration": 0.23409090909090935,
                "tempo": 120.0
            },
            {
                "start_time": 5.547727272727273,
                "end_time": 6.047727272727273,
                "pitch": 61,
                "velocity": 64,
                "duration": 0.5,
                "tempo": 120.0
            },
            {
                "start_time": 6.081818181818181,
                "end_time": 6.3159090909090905,
                "pitch": 64,
                "velocity": 64,
                "duration": 0.23409090909090935,
                "tempo": 120.0
            },
            {
                "start_time": 6.347727272727273,
                "end_time": 6.993181818181818,
                "pitch": 66,
                "velocity": 64,
                "duration": 0.6454545454545455,
                "tempo": 120.0
            },
            {
                "start_time": 7.0249999999999995,
                "end_time": 7.259090909090909,
                "pitch": 64,
                "velocity": 64,
                "duration": 0.23409090909090935,
                "tempo": 120.0
            },
            {
                "start_time": 7.293181818181818,
                "end_time": 7.393181818181818,
                "pitch": 62,
                "velocity": 64,
                "duration": 0.09999999999999964,
                "tempo": 120.0
            },
            {
                "start_time": 7.427272727272727,
                "end_time": 7.936363636363636,
                "pitch": 61,
                "velocity": 64,
                "duration": 0.5090909090909088,
                "tempo": 120.0
            },
            {
                "start_time": 7.970454545454545,
                "end_time": 8.472727272727273,
                "pitch": 59,
                "velocity": 64,
                "duration": 0.5022727272727279,
                "tempo": 120.0
            },
            {
                "start_time": 8.504545454545454,
                "end_time": 8.872727272727273,
                "pitch": 59,
                "velocity": 64,
                "duration": 0.36818181818181905,
                "tempo": 120.0
            },
            {
                "start_time": 8.906818181818181,
                "end_time": 9.006818181818181,
                "pitch": 66,
                "velocity": 64,
                "duration": 0.09999999999999964,
                "tempo": 120.0
            },
            {
                "start_time": 9.038636363636364,
                "end_time": 9.540909090909091,
                "pitch": 66,
                "velocity": 64,
                "duration": 0.502272727272727,
                "tempo": 120.0
            },
            {
                "start_time": 9.575,
                "end_time": 9.954545454545453,
                "pitch": 68,
                "velocity": 64,
                "duration": 0.37954545454545396,
                "tempo": 120.0
            },
            {
                "start_time": 9.988636363636363,
                "end_time": 10.093181818181817,
                "pitch": 66,
                "velocity": 64,
                "duration": 0.10454545454545361,
                "tempo": 120.0
            },
            {
                "start_time": 10.127272727272727,
                "end_time": 10.629545454545454,
                "pitch": 64,
                "velocity": 64,
                "duration": 0.502272727272727,
                "tempo": 120.0
            },
            {
                "start_time": 10.661363636363635,
                "end_time": 11.029545454545454,
                "pitch": 61,
                "velocity": 64,
                "duration": 0.36818181818181905,
                "tempo": 120.0
            },
            {
                "start_time": 11.063636363636363,
                "end_time": 11.163636363636362,
                "pitch": 68,
                "velocity": 64,
                "duration": 0.09999999999999964,
                "tempo": 120.0
            },
            {
                "start_time": 11.195454545454545,
                "end_time": 11.697727272727272,
                "pitch": 68,
                "velocity": 64,
                "duration": 0.502272727272727,
                "tempo": 120.0
            },
            {
                "start_time": 11.73181818181818,
                "end_time": 11.968181818181817,
                "pitch": 71,
                "velocity": 64,
                "duration": 0.23636363636363633,
                "tempo": 120.0
            },
            {
                "start_time": 12.002272727272727,
                "end_time": 12.24090909090909,
                "pitch": 69,
                "velocity": 64,
                "duration": 0.2386363636363633,
                "tempo": 120.0
            },
            {
                "start_time": 12.274999999999999,
                "end_time": 12.509090909090908,
                "pitch": 68,
                "velocity": 64,
                "duration": 0.23409090909090935,
                "tempo": 120.0
            },
            {
                "start_time": 12.543181818181818,
                "end_time": 12.709090909090909,
                "pitch": 66,
                "velocity": 64,
                "duration": 0.165909090909091,
                "tempo": 120.0
            },
            {
                "start_time": 12.743181818181817,
                "end_time": 12.774999999999999,
                "pitch": 72,
                "velocity": 64,
                "duration": 0.0318181818181813,
                "tempo": 120.0
            },
            {
                "start_time": 12.809090909090909,
                "end_time": 13.177272727272726,
                "pitch": 73,
                "velocity": 64,
                "duration": 0.3681818181818173,
                "tempo": 120.0
            },
            {
                "start_time": 13.209090909090909,
                "end_time": 13.311363636363636,
                "pitch": 71,
                "velocity": 64,
                "duration": 0.10227272727272663,
                "tempo": 120.0
            },
            {
                "start_time": 13.343181818181817,
                "end_time": 13.777272727272727,
                "pitch": 69,
                "velocity": 64,
                "duration": 0.4340909090909104,
                "tempo": 120.0
            },
            {
                "start_time": 13.811363636363636,
                "end_time": 13.845454545454544,
                "pitch": 72,
                "velocity": 64,
                "duration": 0.034090909090908283,
                "tempo": 120.0
            },
            {
                "start_time": 13.877272727272727,
                "end_time": 14.11590909090909,
                "pitch": 73,
                "velocity": 64,
                "duration": 0.2386363636363633,
                "tempo": 120.0
            },
            {
                "start_time": 14.149999999999999,
                "end_time": 14.388636363636364,
                "pitch": 71,
                "velocity": 64,
                "duration": 0.2386363636363651,
                "tempo": 120.0
            },
            {
                "start_time": 14.422727272727272,
                "end_time": 14.656818181818181,
                "pitch": 69,
                "velocity": 64,
                "duration": 0.23409090909090935,
                "tempo": 120.0
            },
            {
                "start_time": 14.688636363636363,
                "end_time": 14.922727272727272,
                "pitch": 68,
                "velocity": 64,
                "duration": 0.23409090909090935,
                "tempo": 120.0
            },
            {
                "start_time": 14.95681818181818,
                "end_time": 16.81590909090909,
                "pitch": 69,
                "velocity": 64,
                "duration": 1.8590909090909111,
                "tempo": 120.0
            },
            {
                "start_time": 17.597727272727273,
                "end_time": 17.631818181818183,
                "pitch": 68,
                "velocity": 64,
                "duration": 0.03409090909091006,
                "tempo": 120.0
            },
            {
                "start_time": 17.66590909090909,
                "end_time": 17.893181818181816,
                "pitch": 69,
                "velocity": 64,
                "duration": 0.22727272727272663,
                "tempo": 120.0
            },
            {
                "start_time": 17.925,
                "end_time": 18.15,
                "pitch": 68,
                "velocity": 64,
                "duration": 0.22499999999999787,
                "tempo": 120.0
            },
            {
                "start_time": 18.18181818181818,
                "end_time": 18.41590909090909,
                "pitch": 64,
                "velocity": 64,
                "duration": 0.23409090909090935,
                "tempo": 120.0
            },
            {
                "start_time": 18.45,
                "end_time": 18.954545454545453,
                "pitch": 61,
                "velocity": 64,
                "duration": 0.504545454545454,
                "tempo": 120.0
            },
            {
                "start_time": 18.988636363636363,
                "end_time": 19.227272727272727,
                "pitch": 64,
                "velocity": 64,
                "duration": 0.2386363636363633,
                "tempo": 120.0
            },
            {
                "start_time": 19.261363636363637,
                "end_time": 19.895454545454545,
                "pitch": 67,
                "velocity": 64,
                "duration": 0.6340909090909079,
                "tempo": 120.0
            },
            {
                "start_time": 19.929545454545455,
                "end_time": 20.163636363636364,
                "pitch": 66,
                "velocity": 64,
                "duration": 0.23409090909090935,
                "tempo": 120.0
            },
            {
                "start_time": 20.195454545454545,
                "end_time": 20.229545454545452,
                "pitch": 62,
                "velocity": 64,
                "duration": 0.03409090909090651,
                "tempo": 120.0
            },
            {
                "start_time": 20.263636363636362,
                "end_time": 20.295454545454543,
                "pitch": 63,
                "velocity": 64,
                "duration": 0.0318181818181813,
                "tempo": 120.0
            },
            {
                "start_time": 20.329545454545453,
                "end_time": 20.427272727272726,
                "pitch": 64,
                "velocity": 64,
                "duration": 0.09772727272727266,
                "tempo": 120.0
            },
            {
                "start_time": 20.461363636363636,
                "end_time": 20.55909090909091,
                "pitch": 62,
                "velocity": 64,
                "duration": 0.09772727272727266,
                "tempo": 120.0
            },
            {
                "start_time": 20.59318181818182,
                "end_time": 21.347727272727273,
                "pitch": 61,
                "velocity": 64,
                "duration": 0.754545454545454,
                "tempo": 120.0
            },
            {
                "start_time": 21.87272727272727,
                "end_time": 21.909090909090907,
                "pitch": 68,
                "velocity": 64,
                "duration": 0.036363636363635266,
                "tempo": 120.0
            },
            {
                "start_time": 21.943181818181817,
                "end_time": 22.177272727272726,
                "pitch": 69,
                "velocity": 64,
                "duration": 0.23409090909090935,
                "tempo": 120.0
            },
            {
                "start_time": 22.211363636363636,
                "end_time": 22.445454545454545,
                "pitch": 68,
                "velocity": 64,
                "duration": 0.23409090909090935,
                "tempo": 120.0
            },
            {
                "start_time": 22.477272727272727,
                "end_time": 22.71590909090909,
                "pitch": 64,
                "velocity": 64,
                "duration": 0.2386363636363633,
                "tempo": 120.0
            },
            {
                "start_time": 22.75,
                "end_time": 23.24772727272727,
                "pitch": 61,
                "velocity": 64,
                "duration": 0.49772727272727124,
                "tempo": 120.0
            },
            {
                "start_time": 23.279545454545453,
                "end_time": 23.504545454545454,
                "pitch": 64,
                "velocity": 64,
                "duration": 0.22500000000000142,
                "tempo": 120.0
            },
            {
                "start_time": 23.538636363636364,
                "end_time": 24.193181818181817,
                "pitch": 66,
                "velocity": 64,
                "duration": 0.6545454545454525,
                "tempo": 120.0
            },
            {
                "start_time": 24.227272727272727,
                "end_time": 24.46590909090909,
                "pitch": 64,
                "velocity": 64,
                "duration": 0.2386363636363633,
                "tempo": 120.0
            },
            {
                "start_time": 24.5,
                "end_time": 24.602272727272727,
                "pitch": 62,
                "velocity": 64,
                "duration": 0.10227272727272663,
                "tempo": 120.0
            },
            {
                "start_time": 24.636363636363637,
                "end_time": 25.145454545454545,
                "pitch": 61,
                "velocity": 64,
                "duration": 0.5090909090909079,
                "tempo": 120.0
            },
            {
                "start_time": 25.179545454545455,
                "end_time": 25.672727272727272,
                "pitch": 59,
                "velocity": 64,
                "duration": 0.4931818181818173,
                "tempo": 120.0
            },
            {
                "start_time": 25.704545454545453,
                "end_time": 26.05909090909091,
                "pitch": 59,
                "velocity": 64,
                "duration": 0.3545454545454554,
                "tempo": 120.0
            },
            {
                "start_time": 26.09090909090909,
                "end_time": 26.188636363636363,
                "pitch": 66,
                "velocity": 64,
                "duration": 0.09772727272727266,
                "tempo": 120.0
            },
            {
                "start_time": 26.220454545454544,
                "end_time": 26.75,
                "pitch": 66,
                "velocity": 64,
                "duration": 0.5295454545454561,
                "tempo": 120.0
            },
            {
                "start_time": 26.784090909090907,
                "end_time": 27.159090909090907,
                "pitch": 68,
                "velocity": 64,
                "duration": 0.375,
                "tempo": 120.0
            },
            {
                "start_time": 27.193181818181817,
                "end_time": 27.295454545454543,
                "pitch": 66,
                "velocity": 64,
                "duration": 0.10227272727272663,
                "tempo": 120.0
            },
            {
                "start_time": 27.329545454545453,
                "end_time": 27.829545454545453,
                "pitch": 64,
                "velocity": 64,
                "duration": 0.5,
                "tempo": 120.0
            },
            {
                "start_time": 27.863636363636363,
                "end_time": 28.236363636363635,
                "pitch": 61,
                "velocity": 64,
                "duration": 0.37272727272727124,
                "tempo": 120.0
            },
            {
                "start_time": 28.270454545454545,
                "end_time": 28.37272727272727,
                "pitch": 68,
                "velocity": 64,
                "duration": 0.10227272727272663,
                "tempo": 120.0
            },
            {
                "start_time": 28.40681818181818,
                "end_time": 28.909090909090907,
                "pitch": 68,
                "velocity": 64,
                "duration": 0.5022727272727252,
                "tempo": 120.0
            },
            {
                "start_time": 28.940909090909088,
                "end_time": 29.174999999999997,
                "pitch": 71,
                "velocity": 64,
                "duration": 0.23409090909090935,
                "tempo": 120.0
            },
            {
                "start_time": 29.209090909090907,
                "end_time": 29.443181818181817,
                "pitch": 69,
                "velocity": 64,
                "duration": 0.23409090909090935,
                "tempo": 120.0
            },
            {
                "start_time": 29.474999999999998,
                "end_time": 29.709090909090907,
                "pitch": 68,
                "velocity": 64,
                "duration": 0.23409090909090935,
                "tempo": 120.0
            },
            {
                "start_time": 29.743181818181817,
                "end_time": 29.911363636363635,
                "pitch": 66,
                "velocity": 64,
                "duration": 0.168181818181818,
                "tempo": 120.0
            },
            {
                "start_time": 29.943181818181817,
                "end_time": 29.977272727272727,
                "pitch": 72,
                "velocity": 64,
                "duration": 0.03409090909091006,
                "tempo": 120.0
            },
            {
                "start_time": 30.011363636363633,
                "end_time": 30.384090909090908,
                "pitch": 73,
                "velocity": 64,
                "duration": 0.3727272727272748,
                "tempo": 120.0
            },
            {
                "start_time": 30.418181818181818,
                "end_time": 30.520454545454545,
                "pitch": 71,
                "velocity": 64,
                "duration": 0.10227272727272663,
                "tempo": 120.0
            },
            {
                "start_time": 30.554545454545455,
                "end_time": 30.988636363636363,
                "pitch": 69,
                "velocity": 64,
                "duration": 0.43409090909090864,
                "tempo": 120.0
            },
            {
                "start_time": 31.02272727272727,
                "end_time": 31.054545454545455,
                "pitch": 72,
                "velocity": 64,
                "duration": 0.031818181818184854,
                "tempo": 120.0
            },
            {
                "start_time": 31.08863636363636,
                "end_time": 31.327272727272724,
                "pitch": 73,
                "velocity": 64,
                "duration": 0.2386363636363633,
                "tempo": 120.0
            },
            {
                "start_time": 31.361363636363635,
                "end_time": 31.597727272727273,
                "pitch": 71,
                "velocity": 64,
                "duration": 0.2363636363636381,
                "tempo": 120.0
            },
            {
                "start_time": 31.63181818181818,
                "end_time": 31.86590909090909,
                "pitch": 69,
                "velocity": 64,
                "duration": 0.23409090909090935,
                "tempo": 120.0
            },
            {
                "start_time": 31.9,
                "end_time": 32.13409090909091,
                "pitch": 68,
                "velocity": 64,
                "duration": 0.23409090909090935,
                "tempo": 120.0
            },
            {
                "start_time": 32.168181818181814,
                "end_time": 34.002272727272725,
                "pitch": 69,
                "velocity": 64,
                "duration": 1.8340909090909108,
                "tempo": 120.0
            }
        ],
        "Acoustic Bass": [
            {
                "start_time": 2.315909090909091,
                "end_time": 2.5545454545454542,
                "pitch": 54,
                "velocity": 51,
                "duration": 0.2386363636363633,
                "tempo": 120.0
            },
            {
                "start_time": 2.5886363636363634,
                "end_time": 2.827272727272727,
                "pitch": 49,
                "velocity": 51,
                "duration": 0.23863636363636376,
                "tempo": 120.0
            },
            {
                "start_time": 2.8613636363636363,
                "end_time": 3.0977272727272727,
                "pitch": 45,
                "velocity": 51,
                "duration": 0.23636363636363633,
                "tempo": 120.0
            },
            {
                "start_time": 3.131818181818182,
                "end_time": 3.3659090909090907,
                "pitch": 49,
                "velocity": 51,
                "duration": 0.2340909090909089,
                "tempo": 120.0
            },
            {
                "start_time": 3.4,
                "end_time": 3.634090909090909,
                "pitch": 54,
                "velocity": 51,
                "duration": 0.2340909090909089,
                "tempo": 120.0
            },
            {
                "start_time": 3.6659090909090906,
                "end_time": 3.9,
                "pitch": 57,
                "velocity": 51,
                "duration": 0.23409090909090935,
                "tempo": 120.0
            },
            {
                "start_time": 3.934090909090909,
                "end_time": 4.168181818181818,
                "pitch": 54,
                "velocity": 51,
                "duration": 0.2340909090909089,
                "tempo": 120.0
            },
            {
                "start_time": 6.620454545454545,
                "end_time": 6.722727272727273,
                "pitch": 54,
                "velocity": 51,
                "duration": 0.10227272727272751,
                "tempo": 120.0
            },
            {
                "start_time": 6.756818181818182,
                "end_time": 6.8590909090909085,
                "pitch": 49,
                "velocity": 51,
                "duration": 0.10227272727272663,
                "tempo": 120.0
            },
            {
                "start_time": 6.893181818181818,
                "end_time": 6.993181818181818,
                "pitch": 54,
                "velocity": 51,
                "duration": 0.10000000000000053,
                "tempo": 120.0
            },
            {
                "start_time": 7.0249999999999995,
                "end_time": 7.127272727272727,
                "pitch": 57,
                "velocity": 51,
                "duration": 0.10227272727272751,
                "tempo": 120.0
            },
            {
                "start_time": 7.159090909090909,
                "end_time": 7.259090909090909,
                "pitch": 54,
                "velocity": 51,
                "duration": 0.09999999999999964,
                "tempo": 120.0
            },
            {
                "start_time": 7.293181818181818,
                "end_time": 7.393181818181818,
                "pitch": 49,
                "velocity": 51,
                "duration": 0.09999999999999964,
                "tempo": 120.0
            },
            {
                "start_time": 7.427272727272727,
                "end_time": 7.663636363636363,
                "pitch": 45,
                "velocity": 51,
                "duration": 0.23636363636363633,
                "tempo": 120.0
            },
            {
                "start_time": 7.697727272727272,
                "end_time": 7.936363636363636,
                "pitch": 49,
                "velocity": 51,
                "duration": 0.2386363636363633,
                "tempo": 120.0
            },
            {
                "start_time": 7.970454545454545,
                "end_time": 8.204545454545455,
                "pitch": 54,
                "velocity": 51,
                "duration": 0.23409090909091024,
                "tempo": 120.0
            },
            {
                "start_time": 8.238636363636363,
                "end_time": 8.472727272727273,
                "pitch": 49,
                "velocity": 51,
                "duration": 0.23409090909090935,
                "tempo": 120.0
            },
            {
                "start_time": 9.575,
                "end_time": 10.093181818181817,
                "pitch": 36,
                "velocity": 51,
                "duration": 0.5181818181818176,
                "tempo": 120.0
            },
            {
                "start_time": 10.127272727272727,
                "end_time": 10.629545454545454,
                "pitch": 36,
                "velocity": 51,
                "duration": 0.502272727272727,
                "tempo": 120.0
            },
            {
                "start_time": 10.661363636363635,
                "end_time": 11.163636363636362,
                "pitch": 37,
                "velocity": 51,
                "duration": 0.502272727272727,
                "tempo": 120.0
            },
            {
                "start_time": 11.329545454545453,
                "end_time": 11.429545454545455,
                "pitch": 38,
                "velocity": 51,
                "duration": 0.10000000000000142,
                "tempo": 120.0
            },
            {
                "start_time": 11.463636363636363,
                "end_time": 11.563636363636363,
                "pitch": 41,
                "velocity": 51,
                "duration": 0.09999999999999964,
                "tempo": 120.0
            },
            {
                "start_time": 11.597727272727273,
                "end_time": 11.697727272727272,
                "pitch": 46,
                "velocity": 51,
                "duration": 0.09999999999999964,
                "tempo": 120.0
            },
            {
                "start_time": 11.73181818181818,
                "end_time": 12.24090909090909,
                "pitch": 38,
                "velocity": 51,
                "duration": 0.5090909090909097,
                "tempo": 120.0
            },
            {
                "start_time": 12.543181818181818,
                "end_time": 12.774999999999999,
                "pitch": 38,
                "velocity": 51,
                "duration": 0.2318181818181806,
                "tempo": 120.0
            },
            {
                "start_time": 13.077272727272726,
                "end_time": 13.845454545454544,
                "pitch": 40,
                "velocity": 51,
                "duration": 0.7681818181818176,
                "tempo": 120.0
            },
            {
                "start_time": 14.149999999999999,
                "end_time": 14.388636363636364,
                "pitch": 40,
                "velocity": 51,
                "duration": 0.2386363636363651,
                "tempo": 120.0
            },
            {
                "start_time": 14.422727272727272,
                "end_time": 14.656818181818181,
                "pitch": 45,
                "velocity": 51,
                "duration": 0.23409090909090935,
                "tempo": 120.0
            },
            {
                "start_time": 14.688636363636363,
                "end_time": 14.922727272727272,
                "pitch": 40,
                "velocity": 51,
                "duration": 0.23409090909090935,
                "tempo": 120.0
            },
            {
                "start_time": 14.95681818181818,
                "end_time": 15.193181818181817,
                "pitch": 33,
                "velocity": 51,
                "duration": 0.23636363636363633,
                "tempo": 120.0
            },
            {
                "start_time": 15.227272727272727,
                "end_time": 16.81590909090909,
                "pitch": 45,
                "velocity": 51,
                "duration": 1.5886363636363647,
                "tempo": 120.0
            },
            {
                "start_time": 17.66590909090909,
                "end_time": 17.893181818181816,
                "pitch": 64,
                "velocity": 51,
                "duration": 0.22727272727272663,
                "tempo": 120.0
            },
            {
                "start_time": 17.925,
                "end_time": 18.15,
                "pitch": 61,
                "velocity": 51,
                "duration": 0.22499999999999787,
                "tempo": 120.0
            },
            {
                "start_time": 18.18181818181818,
                "end_time": 18.68409090909091,
                "pitch": 57,
                "velocity": 51,
                "duration": 0.5022727272727288,
                "tempo": 120.0
            },
            {
                "start_time": 18.71818181818182,
                "end_time": 18.954545454545453,
                "pitch": 52,
                "velocity": 51,
                "duration": 0.23636363636363455,
                "tempo": 120.0
            },
            {
                "start_time": 18.988636363636363,
                "end_time": 19.227272727272727,
                "pitch": 57,
                "velocity": 51,
                "duration": 0.2386363636363633,
                "tempo": 120.0
            },
            {
                "start_time": 19.261363636363637,
                "end_time": 19.495454545454546,
                "pitch": 57,
                "velocity": 51,
                "duration": 0.23409090909090935,
                "tempo": 120.0
            },
            {
                "start_time": 19.527272727272727,
                "end_time": 19.629545454545454,
                "pitch": 54,
                "velocity": 51,
                "duration": 0.10227272727272663,
                "tempo": 120.0
            },
            {
                "start_time": 19.661363636363635,
                "end_time": 19.761363636363637,
                "pitch": 49,
                "velocity": 51,
                "duration": 0.10000000000000142,
                "tempo": 120.0
            },
            {
                "start_time": 19.795454545454543,
                "end_time": 19.895454545454545,
                "pitch": 54,
                "velocity": 51,
                "duration": 0.10000000000000142,
                "tempo": 120.0
            },
            {
                "start_time": 19.929545454545455,
                "end_time": 20.029545454545453,
                "pitch": 57,
                "velocity": 51,
                "duration": 0.09999999999999787,
                "tempo": 120.0
            },
            {
                "start_time": 20.063636363636363,
                "end_time": 20.163636363636364,
                "pitch": 54,
                "velocity": 51,
                "duration": 0.10000000000000142,
                "tempo": 120.0
            },
            {
                "start_time": 20.195454545454545,
                "end_time": 20.295454545454543,
                "pitch": 49,
                "velocity": 51,
                "duration": 0.09999999999999787,
                "tempo": 120.0
            },
            {
                "start_time": 20.461363636363636,
                "end_time": 20.55909090909091,
                "pitch": 49,
                "velocity": 51,
                "duration": 0.09772727272727266,
                "tempo": 120.0
            },
            {
                "start_time": 20.59318181818182,
                "end_time": 20.69090909090909,
                "pitch": 54,
                "velocity": 51,
                "duration": 0.09772727272727266,
                "tempo": 120.0
            },
            {
                "start_time": 20.722727272727273,
                "end_time": 20.952272727272724,
                "pitch": 57,
                "velocity": 51,
                "duration": 0.22954545454545183,
                "tempo": 120.0
            },
            {
                "start_time": 20.986363636363635,
                "end_time": 21.084090909090907,
                "pitch": 54,
                "velocity": 51,
                "duration": 0.09772727272727266,
                "tempo": 120.0
            },
            {
                "start_time": 21.118181818181817,
                "end_time": 21.347727272727273,
                "pitch": 49,
                "velocity": 51,
                "duration": 0.22954545454545539,
                "tempo": 120.0
            },
            {
                "start_time": 22.75,
                "end_time": 23.118181818181817,
                "pitch": 57,
                "velocity": 51,
                "duration": 0.3681818181818173,
                "tempo": 120.0
            },
            {
                "start_time": 23.15,
                "end_time": 23.375,
                "pitch": 64,
                "velocity": 51,
                "duration": 0.22500000000000142,
                "tempo": 120.0
            },
            {
                "start_time": 23.409090909090907,
                "end_time": 23.504545454545454,
                "pitch": 57,
                "velocity": 51,
                "duration": 0.09545454545454746,
                "tempo": 120.0
            },
            {
                "start_time": 23.813636363636363,
                "end_time": 23.918181818181818,
                "pitch": 57,
                "velocity": 51,
                "duration": 0.10454545454545539,
                "tempo": 120.0
            },
            {
                "start_time": 23.952272727272724,
                "end_time": 24.05681818181818,
                "pitch": 54,
                "velocity": 51,
                "duration": 0.10454545454545539,
                "tempo": 120.0
            },
            {
                "start_time": 24.09090909090909,
                "end_time": 24.193181818181817,
                "pitch": 49,
                "velocity": 51,
                "duration": 0.10227272727272663,
                "tempo": 120.0
            },
            {
                "start_time": 24.227272727272727,
                "end_time": 24.329545454545453,
                "pitch": 54,
                "velocity": 51,
                "duration": 0.10227272727272663,
                "tempo": 120.0
            },
            {
                "start_time": 24.363636363636363,
                "end_time": 24.46590909090909,
                "pitch": 49,
                "velocity": 51,
                "duration": 0.10227272727272663,
                "tempo": 120.0
            },
            {
                "start_time": 24.5,
                "end_time": 24.602272727272727,
                "pitch": 45,
                "velocity": 51,
                "duration": 0.10227272727272663,
                "tempo": 120.0
            },
            {
                "start_time": 24.636363636363637,
                "end_time": 24.87272727272727,
                "pitch": 49,
                "velocity": 51,
                "duration": 0.23636363636363455,
                "tempo": 120.0
            },
            {
                "start_time": 24.90681818181818,
                "end_time": 25.145454545454545,
                "pitch": 54,
                "velocity": 51,
                "duration": 0.2386363636363633,
                "tempo": 120.0
            },
            {
                "start_time": 25.179545454545455,
                "end_time": 25.409090909090907,
                "pitch": 57,
                "velocity": 51,
                "duration": 0.22954545454545183,
                "tempo": 120.0
            },
            {
                "start_time": 25.44090909090909,
                "end_time": 25.672727272727272,
                "pitch": 54,
                "velocity": 51,
                "duration": 0.2318181818181806,
                "tempo": 120.0
            },
            {
                "start_time": 26.220454545454544,
                "end_time": 26.75,
                "pitch": 47,
                "velocity": 51,
                "duration": 0.5295454545454561,
                "tempo": 120.0
            },
            {
                "start_time": 27.329545454545453,
                "end_time": 27.829545454545453,
                "pitch": 60,
                "velocity": 51,
                "duration": 0.5,
                "tempo": 120.0
            },
            {
                "start_time": 28.40681818181818,
                "end_time": 28.64090909090909,
                "pitch": 61,
                "velocity": 51,
                "duration": 0.23409090909090935,
                "tempo": 120.0
            },
            {
                "start_time": 28.674999999999997,
                "end_time": 28.909090909090907,
                "pitch": 69,
                "velocity": 51,
                "duration": 0.23409090909090935,
                "tempo": 120.0
            },
            {
                "start_time": 29.209090909090907,
                "end_time": 29.977272727272727,
                "pitch": 63,
                "velocity": 51,
                "duration": 0.7681818181818194,
                "tempo": 120.0
            },
            {
                "start_time": 30.554545454545455,
                "end_time": 30.78863636363636,
                "pitch": 68,
                "velocity": 51,
                "duration": 0.2340909090909058,
                "tempo": 120.0
            },
            {
                "start_time": 30.820454545454545,
                "end_time": 31.054545454545455,
                "pitch": 64,
                "velocity": 51,
                "duration": 0.23409090909090935,
                "tempo": 120.0
            },
            {
                "start_time": 31.63181818181818,
                "end_time": 31.86590909090909,
                "pitch": 64,
                "velocity": 51,
                "duration": 0.23409090909090935,
                "tempo": 120.0
            },
            {
                "start_time": 31.9,
                "end_time": 32.13409090909091,
                "pitch": 59,
                "velocity": 51,
                "duration": 0.23409090909090935,
                "tempo": 120.0
            },
            {
                "start_time": 32.70227272727273,
                "end_time": 32.93863636363636,
                "pitch": 64,
                "velocity": 51,
                "duration": 0.23636363636363455,
                "tempo": 120.0
            },
            {
                "start_time": 32.97272727272727,
                "end_time": 33.211363636363636,
                "pitch": 61,
                "velocity": 51,
                "duration": 0.23863636363636687,
                "tempo": 120.0
            },
            {
                "start_time": 33.24545454545454,
                "end_time": 33.470454545454544,
                "pitch": 57,
                "velocity": 51,
                "duration": 0.22500000000000142,
                "tempo": 120.0
            },
            {
                "start_time": 33.502272727272725,
                "end_time": 33.72727272727273,
                "pitch": 52,
                "velocity": 51,
                "duration": 0.22500000000000142,
                "tempo": 120.0
            },
            {
                "start_time": 33.76136363636363,
                "end_time": 34.002272727272725,
                "pitch": 57,
                "velocity": 51,
                "duration": 0.24090909090909207,
                "tempo": 120.0
            },
            {
                "start_time": 34.038636363636364,
                "end_time": 34.279545454545456,
                "pitch": 61,
                "velocity": 51,
                "duration": 0.24090909090909207,
                "tempo": 120.0
            }
        ],
        "Trumpet": [
            {
                "start_time": 0.20227272727272727,
                "end_time": 2.0113636363636362,
                "pitch": 45,
                "velocity": 51,
                "duration": 1.809090909090909,
                "tempo": 120.0
            },
            {
                "start_time": 2.043181818181818,
                "end_time": 4.168181818181818,
                "pitch": 42,
                "velocity": 51,
                "duration": 2.125,
                "tempo": 120.0
            },
            {
                "start_time": 4.2,
                "end_time": 4.443181818181818,
                "pitch": 33,
                "velocity": 51,
                "duration": 0.24318181818181817,
                "tempo": 120.0
            },
            {
                "start_time": 4.477272727272727,
                "end_time": 6.3159090909090905,
                "pitch": 45,
                "velocity": 51,
                "duration": 1.8386363636363638,
                "tempo": 120.0
            },
            {
                "start_time": 6.347727272727273,
                "end_time": 8.472727272727273,
                "pitch": 42,
                "velocity": 51,
                "duration": 2.125,
                "tempo": 120.0
            },
            {
                "start_time": 8.504545454545454,
                "end_time": 8.738636363636363,
                "pitch": 38,
                "velocity": 51,
                "duration": 0.23409090909090935,
                "tempo": 120.0
            },
            {
                "start_time": 8.772727272727272,
                "end_time": 9.540909090909091,
                "pitch": 35,
                "velocity": 51,
                "duration": 0.7681818181818194,
                "tempo": 120.0
            },
            {
                "start_time": 9.575,
                "end_time": 10.629545454545454,
                "pitch": 24,
                "velocity": 51,
                "duration": 1.0545454545454547,
                "tempo": 120.0
            },
            {
                "start_time": 10.661363636363635,
                "end_time": 11.697727272727272,
                "pitch": 25,
                "velocity": 51,
                "duration": 1.036363636363637,
                "tempo": 120.0
            },
            {
                "start_time": 11.73181818181818,
                "end_time": 12.774999999999999,
                "pitch": 26,
                "velocity": 51,
                "duration": 1.043181818181818,
                "tempo": 120.0
            },
            {
                "start_time": 12.809090909090909,
                "end_time": 13.845454545454544,
                "pitch": 28,
                "velocity": 51,
                "duration": 1.0363636363636353,
                "tempo": 120.0
            },
            {
                "start_time": 13.877272727272727,
                "end_time": 14.922727272727272,
                "pitch": 28,
                "velocity": 51,
                "duration": 1.045454545454545,
                "tempo": 120.0
            },
            {
                "start_time": 14.95681818181818,
                "end_time": 16.011363636363637,
                "pitch": 33,
                "velocity": 51,
                "duration": 1.0545454545454565,
                "tempo": 120.0
            },
            {
                "start_time": 16.043181818181818,
                "end_time": 16.545454545454543,
                "pitch": 61,
                "velocity": 51,
                "duration": 0.5022727272727252,
                "tempo": 120.0
            },
            {
                "start_time": 16.579545454545453,
                "end_time": 17.08863636363636,
                "pitch": 57,
                "velocity": 51,
                "duration": 0.5090909090909079,
                "tempo": 120.0
            },
            {
                "start_time": 17.12272727272727,
                "end_time": 17.361363636363635,
                "pitch": 33,
                "velocity": 51,
                "duration": 0.2386363636363633,
                "tempo": 120.0
            },
            {
                "start_time": 17.395454545454545,
                "end_time": 19.227272727272727,
                "pitch": 45,
                "velocity": 51,
                "duration": 1.831818181818182,
                "tempo": 120.0
            },
            {
                "start_time": 19.261363636363637,
                "end_time": 19.495454545454546,
                "pitch": 30,
                "velocity": 51,
                "duration": 0.23409090909090935,
                "tempo": 120.0
            },
            {
                "start_time": 19.527272727272727,
                "end_time": 21.347727272727273,
                "pitch": 42,
                "velocity": 51,
                "duration": 1.8204545454545453,
                "tempo": 120.0
            },
            {
                "start_time": 21.379545454545454,
                "end_time": 21.627272727272725,
                "pitch": 33,
                "velocity": 51,
                "duration": 0.24772727272727124,
                "tempo": 120.0
            },
            {
                "start_time": 21.661363636363635,
                "end_time": 23.504545454545454,
                "pitch": 45,
                "velocity": 51,
                "duration": 1.8431818181818187,
                "tempo": 120.0
            },
            {
                "start_time": 23.538636363636364,
                "end_time": 24.05681818181818,
                "pitch": 30,
                "velocity": 51,
                "duration": 0.5181818181818159,
                "tempo": 120.0
            },
            {
                "start_time": 24.227272727272727,
                "end_time": 25.672727272727272,
                "pitch": 66,
                "velocity": 51,
                "duration": 1.4454545454545453,
                "tempo": 120.0
            },
            {
                "start_time": 25.704545454545453,
                "end_time": 26.327272727272724,
                "pitch": 35,
                "velocity": 51,
                "duration": 0.6227272727272712,
                "tempo": 120.0
            },
            {
                "start_time": 26.361363636363635,
                "end_time": 26.468181818181815,
                "pitch": 47,
                "velocity": 51,
                "duration": 0.10681818181818059,
                "tempo": 120.0
            },
            {
                "start_time": 26.502272727272725,
                "end_time": 26.60909090909091,
                "pitch": 50,
                "velocity": 51,
                "duration": 0.10681818181818414,
                "tempo": 120.0
            },
            {
                "start_time": 26.643181818181816,
                "end_time": 26.75,
                "pitch": 54,
                "velocity": 51,
                "duration": 0.10681818181818414,
                "tempo": 120.0
            },
            {
                "start_time": 26.784090909090907,
                "end_time": 27.429545454545455,
                "pitch": 36,
                "velocity": 51,
                "duration": 0.6454545454545482,
                "tempo": 120.0
            },
            {
                "start_time": 27.46363636363636,
                "end_time": 27.829545454545453,
                "pitch": 48,
                "velocity": 51,
                "duration": 0.36590909090909207,
                "tempo": 120.0
            },
            {
                "start_time": 27.863636363636363,
                "end_time": 28.50681818181818,
                "pitch": 37,
                "velocity": 51,
                "duration": 0.6431818181818159,
                "tempo": 120.0
            },
            {
                "start_time": 28.54090909090909,
                "end_time": 28.64090909090909,
                "pitch": 49,
                "velocity": 51,
                "duration": 0.10000000000000142,
                "tempo": 120.0
            },
            {
                "start_time": 28.674999999999997,
                "end_time": 28.775,
                "pitch": 54,
                "velocity": 51,
                "duration": 0.10000000000000142,
                "tempo": 120.0
            },
            {
                "start_time": 28.80909090909091,
                "end_time": 28.909090909090907,
                "pitch": 57,
                "velocity": 51,
                "duration": 0.09999999999999787,
                "tempo": 120.0
            },
            {
                "start_time": 28.940909090909088,
                "end_time": 29.577272727272724,
                "pitch": 38,
                "velocity": 51,
                "duration": 0.6363636363636367,
                "tempo": 120.0
            },
            {
                "start_time": 29.60909090909091,
                "end_time": 29.709090909090907,
                "pitch": 50,
                "velocity": 51,
                "duration": 0.09999999999999787,
                "tempo": 120.0
            },
            {
                "start_time": 29.743181818181817,
                "end_time": 29.843181818181815,
                "pitch": 54,
                "velocity": 51,
                "duration": 0.09999999999999787,
                "tempo": 120.0
            },
            {
                "start_time": 29.877272727272725,
                "end_time": 29.977272727272727,
                "pitch": 50,
                "velocity": 51,
                "duration": 0.10000000000000142,
                "tempo": 120.0
            },
            {
                "start_time": 30.011363636363633,
                "end_time": 30.24772727272727,
                "pitch": 28,
                "velocity": 51,
                "duration": 0.2363636363636381,
                "tempo": 120.0
            },
            {
                "start_time": 30.28181818181818,
                "end_time": 31.054545454545455,
                "pitch": 40,
                "velocity": 51,
                "duration": 0.7727272727272734,
                "tempo": 120.0
            },
            {
                "start_time": 31.08863636363636,
                "end_time": 31.327272727272724,
                "pitch": 28,
                "velocity": 51,
                "duration": 0.2386363636363633,
                "tempo": 120.0
            },
            {
                "start_time": 31.361363636363635,
                "end_time": 32.13409090909091,
                "pitch": 40,
                "velocity": 51,
                "duration": 0.7727272727272734,
                "tempo": 120.0
            },
            {
                "start_time": 32.168181818181814,
                "end_time": 32.4,
                "pitch": 45,
                "velocity": 51,
                "duration": 0.23181818181818414,
                "tempo": 120.0
            },
            {
                "start_time": 32.434090909090905,
                "end_time": 34.279545454545456,
                "pitch": 57,
                "velocity": 51,
                "duration": 1.845454545454551,
                "tempo": 120.0
            }
        ]
    }
}