{
    "track_id": "Global Defense (FM) - 01 - Demo",
    "mood": "sad",
    "instruments": {
        "Flute": [
            {
                "start_time": 0.32045454545454544,
                "end_time": 0.9136363636363636,
                "pitch": 70,
                "velocity": 64,
                "duration": 0.5931818181818181,
                "tempo": 120.0
            },
            {
                "start_time": 0.9295454545454545,
                "end_time": 1.5113636363636362,
                "pitch": 68,
                "velocity": 64,
                "duration": 0.5818181818181818,
                "tempo": 120.0
            },
            {
                "start_time": 1.5272727272727271,
                "end_time": 3.318181818181818,
                "pitch": 63,
                "velocity": 64,
                "duration": 1.7909090909090908,
                "tempo": 120.0
            },
            {
                "start_time": 3.3363636363636364,
                "end_time": 3.5204545454545455,
                "pitch": 66,
                "velocity": 64,
                "duration": 0.18409090909090908,
                "tempo": 120.0
            },
            {
                "start_time": 3.536363636363636,
                "end_time": 4.913636363636363,
                "pitch": 61,
                "velocity": 64,
                "duration": 1.377272727272727,
                "tempo": 120.0
            },
            {
                "start_time": 4.931818181818182,
                "end_time": 5.118181818181818,
                "pitch": 59,
                "velocity": 64,
                "duration": 0.1863636363636365,
                "tempo": 120.0
            },
            {
                "start_time": 5.136363636363636,
                "end_time": 5.652272727272727,
                "pitch": 61,
                "velocity": 64,
                "duration": 0.5159090909090915,
                "tempo": 120.0
            },
            {
                "start_time": 6.736363636363636,
                "end_time": 7.322727272727272,
                "pitch": 70,
                "velocity": 64,
                "duration": 0.586363636363636,
                "tempo": 120.0
            },
            {
                "start_time": 7.338636363636363,
                "end_time": 7.925,
                "pitch": 68,
                "velocity": 64,
                "duration": 0.5863636363636369,
                "tempo": 120.0
            },
            {
                "start_time": 7.9409090909090905,
                "end_time": 9.74090909090909,
                "pitch": 63,
                "velocity": 64,
                "duration": 1.7999999999999998,
                "tempo": 120.0
            },
            {
                "start_time": 9.759090909090908,
                "end_time": 9.943181818181818,
                "pitch": 66,
                "velocity": 64,
                "duration": 0.18409090909091042,
                "tempo": 120.0
            },
            {
                "start_time": 9.959090909090909,
                "end_time": 11.543181818181818,
                "pitch": 61,
                "velocity": 64,
                "duration": 1.584090909090909,
                "tempo": 120.0
            },
            {
                "start_time": 12.759090909090908,
                "end_time": 12.843181818181817,
                "pitch": 68,
                "velocity": 64,
                "duration": 0.084090909090909,
                "tempo": 120.0
            },
            {
                "start_time": 12.861363636363636,
                "end_time": 12.943181818181818,
                "pitch": 69,
                "velocity": 64,
                "duration": 0.08181818181818201,
                "tempo": 120.0
            },
            {
                "start_time": 12.961363636363636,
                "end_time": 13.045454545454545,
                "pitch": 70,
                "velocity": 64,
                "duration": 0.084090909090909,
                "tempo": 120.0
            },
            {
                "start_time": 13.061363636363636,
                "end_time": 13.145454545454545,
                "pitch": 71,
                "velocity": 64,
                "duration": 0.084090909090909,
                "tempo": 120.0
            },
            {
                "start_time": 13.161363636363635,
                "end_time": 14.35681818181818,
                "pitch": 72,
                "velocity": 64,
                "duration": 1.1954545454545453,
                "tempo": 120.0
            },
            {
                "start_time": 14.774999999999999,
                "end_time": 15.359090909090908,
                "pitch": 78,
                "velocity": 64,
                "duration": 0.584090909090909,
                "tempo": 120.0
            },
            {
                "start_time": 15.375,
                "end_time": 15.961363636363636,
                "pitch": 76,
                "velocity": 64,
                "duration": 0.586363636363636,
                "tempo": 120.0
            },
            {
                "start_time": 15.979545454545454,
                "end_time": 16.368181818181817,
                "pitch": 73,
                "velocity": 64,
                "duration": 0.38863636363636367,
                "tempo": 120.0
            },
            {
                "start_time": 16.386363636363637,
                "end_time": 16.96590909090909,
                "pitch": 71,
                "velocity": 64,
                "duration": 0.5795454545454533,
                "tempo": 120.0
            },
            {
                "start_time": 16.98409090909091,
                "end_time": 19.07272727272727,
                "pitch": 69,
                "velocity": 64,
                "duration": 2.088636363636361,
                "tempo": 120.0
            },
            {
                "start_time": 19.59090909090909,
                "end_time": 20.175,
                "pitch": 70,
                "velocity": 64,
                "duration": 0.5840909090909108,
                "tempo": 120.0
            },
            {
                "start_time": 20.19090909090909,
                "end_time": 20.78181818181818,
                "pitch": 68,
                "velocity": 64,
                "duration": 0.5909090909090899,
                "tempo": 120.0
            },
            {
                "start_time": 20.8,
                "end_time": 22.59090909090909,
                "pitch": 63,
                "velocity": 64,
                "duration": 1.7909090909090892,
                "tempo": 120.0
            },
            {
                "start_time": 22.60681818181818,
                "end_time": 22.793181818181818,
                "pitch": 66,
                "velocity": 64,
                "duration": 0.1863636363636374,
                "tempo": 120.0
            },
            {
                "start_time": 22.80909090909091,
                "end_time": 24.188636363636363,
                "pitch": 61,
                "velocity": 64,
                "duration": 1.379545454545454,
                "tempo": 120.0
            },
            {
                "start_time": 24.204545454545453,
                "end_time": 24.393181818181816,
                "pitch": 59,
                "velocity": 64,
                "duration": 0.1886363636363626,
                "tempo": 120.0
            },
            {
                "start_time": 24.411363636363635,
                "end_time": 24.927272727272726,
                "pitch": 61,
                "velocity": 64,
                "duration": 0.5159090909090907,
                "tempo": 120.0
            },
            {
                "start_time": 26.01590909090909,
                "end_time": 26.597727272727273,
                "pitch": 70,
                "velocity": 64,
                "duration": 0.581818181818182,
                "tempo": 120.0
            },
            {
                "start_time": 26.613636363636363,
                "end_time": 27.206818181818182,
                "pitch": 68,
                "velocity": 64,
                "duration": 0.5931818181818187,
                "tempo": 120.0
            },
            {
                "start_time": 27.224999999999998,
                "end_time": 29.013636363636362,
                "pitch": 63,
                "velocity": 64,
                "duration": 1.788636363636364,
                "tempo": 120.0
            },
            {
                "start_time": 29.029545454545453,
                "end_time": 29.21363636363636,
                "pitch": 66,
                "velocity": 64,
                "duration": 0.18409090909090864,
                "tempo": 120.0
            },
            {
                "start_time": 29.229545454545452,
                "end_time": 30.813636363636363,
                "pitch": 61,
                "velocity": 64,
                "duration": 1.5840909090909108,
                "tempo": 120.0
            },
            {
                "start_time": 32.018181818181816,
                "end_time": 32.09772727272727,
                "pitch": 68,
                "velocity": 64,
                "duration": 0.07954545454545325,
                "tempo": 120.0
            },
            {
                "start_time": 32.11363636363636,
                "end_time": 32.179545454545455,
                "pitch": 69,
                "velocity": 64,
                "duration": 0.06590909090909491,
                "tempo": 120.0
            },
            {
                "start_time": 32.19318181818182,
                "end_time": 32.26136363636363,
                "pitch": 70,
                "velocity": 64,
                "duration": 0.06818181818181301,
                "tempo": 120.0
            },
            {
                "start_time": 32.27272727272727,
                "end_time": 32.340909090909086,
                "pitch": 71,
                "velocity": 64,
                "duration": 0.06818181818181301,
                "tempo": 120.0
            },
            {
                "start_time": 32.35454545454545,
                "end_time": 33.43863636363636,
                "pitch": 72,
                "velocity": 64,
                "duration": 1.0840909090909108,
                "tempo": 120.0
            },
            {
                "start_time": 33.845454545454544,
                "end_time": 34.44090909090909,
                "pitch": 78,
                "velocity": 64,
                "duration": 0.5954545454545439,
                "tempo": 120.0
            },
            {
                "start_time": 34.45681818181818,
                "end_time": 35.04090909090909,
                "pitch": 76,
                "velocity": 64,
                "duration": 0.5840909090909108,
                "tempo": 120.0
            },
            {
                "start_time": 35.05681818181818,
                "end_time": 35.44090909090909,
                "pitch": 73,
                "velocity": 64,
                "duration": 0.38409090909090793,
                "tempo": 120.0
            },
            {
                "start_time": 35.45681818181818,
                "end_time": 36.05227272727272,
                "pitch": 71,
                "velocity": 64,
                "duration": 0.5954545454545439,
                "tempo": 120.0
            },
            {
                "start_time": 36.06818181818181,
                "end_time": 38.143181818181816,
                "pitch": 69,
                "velocity": 64,
                "duration": 2.075000000000003,
                "tempo": 120.0
            },
            {
                "start_time": 38.663636363636364,
                "end_time": 39.413636363636364,
                "pitch": 45,
                "velocity": 64,
                "duration": 0.75,
                "tempo": 120.0
            },
            {
                "start_time": 39.429545454545455,
                "end_time": 40.25,
                "pitch": 59,
                "velocity": 64,
                "duration": 0.8204545454545453,
                "tempo": 120.0
            },
            {
                "start_time": 40.26590909090909,
                "end_time": 41.01590909090909,
                "pitch": 50,
                "velocity": 64,
                "duration": 0.75,
                "tempo": 120.0
            },
            {
                "start_time": 41.03181818181818,
                "end_time": 41.85227272727273,
                "pitch": 61,
                "velocity": 64,
                "duration": 0.8204545454545453,
                "tempo": 120.0
            },
            {
                "start_time": 41.86818181818182,
                "end_time": 42.61818181818182,
                "pitch": 47,
                "velocity": 64,
                "duration": 0.75,
                "tempo": 120.0
            },
            {
                "start_time": 42.63636363636363,
                "end_time": 43.45227272727273,
                "pitch": 57,
                "velocity": 64,
                "duration": 0.8159090909090949,
                "tempo": 120.0
            },
            {
                "start_time": 43.46818181818182,
                "end_time": 44.22272727272727,
                "pitch": 51,
                "velocity": 64,
                "duration": 0.7545454545454504,
                "tempo": 120.0
            },
            {
                "start_time": 44.23863636363636,
                "end_time": 45.49090909090909,
                "pitch": 61,
                "velocity": 64,
                "duration": 1.2522727272727323,
                "tempo": 120.0
            }
        ],
        "Acoustic Bass": [
            {
                "start_time": 0.32045454545454544,
                "end_time": 0.9136363636363636,
                "pitch": 32,
                "velocity": 80,
                "duration": 0.5931818181818181,
                "tempo": 120.0
            },
            {
                "start_time": 0.9295454545454545,
                "end_time": 1.3136363636363635,
                "pitch": 39,
                "velocity": 80,
                "duration": 0.38409090909090904,
                "tempo": 120.0
            },
            {
                "start_time": 1.3295454545454546,
                "end_time": 1.4113636363636364,
                "pitch": 37,
                "velocity": 80,
                "duration": 0.08181818181818179,
                "tempo": 120.0
            },
            {
                "start_time": 1.4295454545454545,
                "end_time": 1.5113636363636362,
                "pitch": 38,
                "velocity": 80,
                "duration": 0.08181818181818179,
                "tempo": 120.0
            },
            {
                "start_time": 1.5272727272727271,
                "end_time": 1.609090909090909,
                "pitch": 39,
                "velocity": 80,
                "duration": 0.08181818181818179,
                "tempo": 120.0
            },
            {
                "start_time": 2.134090909090909,
                "end_time": 2.509090909090909,
                "pitch": 44,
                "velocity": 80,
                "duration": 0.375,
                "tempo": 120.0
            },
            {
                "start_time": 2.525,
                "end_time": 2.909090909090909,
                "pitch": 37,
                "velocity": 80,
                "duration": 0.38409090909090926,
                "tempo": 120.0
            },
            {
                "start_time": 2.925,
                "end_time": 3.1136363636363633,
                "pitch": 39,
                "velocity": 80,
                "duration": 0.1886363636363635,
                "tempo": 120.0
            },
            {
                "start_time": 3.1295454545454544,
                "end_time": 3.5204545454545455,
                "pitch": 32,
                "velocity": 80,
                "duration": 0.3909090909090911,
                "tempo": 120.0
            },
            {
                "start_time": 3.536363636363636,
                "end_time": 4.111363636363636,
                "pitch": 26,
                "velocity": 80,
                "duration": 0.5750000000000002,
                "tempo": 120.0
            },
            {
                "start_time": 4.129545454545454,
                "end_time": 4.718181818181818,
                "pitch": 33,
                "velocity": 80,
                "duration": 0.5886363636363638,
                "tempo": 120.0
            },
            {
                "start_time": 4.7340909090909085,
                "end_time": 4.913636363636363,
                "pitch": 28,
                "velocity": 80,
                "duration": 0.17954545454545467,
                "tempo": 120.0
            },
            {
                "start_time": 4.931818181818182,
                "end_time": 6.720454545454545,
                "pitch": 35,
                "velocity": 80,
                "duration": 1.7886363636363631,
                "tempo": 120.0
            },
            {
                "start_time": 6.736363636363636,
                "end_time": 7.322727272727272,
                "pitch": 32,
                "velocity": 80,
                "duration": 0.586363636363636,
                "tempo": 120.0
            },
            {
                "start_time": 7.338636363636363,
                "end_time": 7.725,
                "pitch": 39,
                "velocity": 80,
                "duration": 0.3863636363636367,
                "tempo": 120.0
            },
            {
                "start_time": 7.74090909090909,
                "end_time": 7.824999999999999,
                "pitch": 37,
                "velocity": 80,
                "duration": 0.084090909090909,
                "tempo": 120.0
            },
            {
                "start_time": 7.840909090909091,
                "end_time": 7.925,
                "pitch": 38,
                "velocity": 80,
                "duration": 0.084090909090909,
                "tempo": 120.0
            },
            {
                "start_time": 7.9409090909090905,
                "end_time": 8.025,
                "pitch": 39,
                "velocity": 80,
                "duration": 0.08409090909090988,
                "tempo": 120.0
            },
            {
                "start_time": 8.552272727272728,
                "end_time": 8.927272727272728,
                "pitch": 44,
                "velocity": 80,
                "duration": 0.375,
                "tempo": 120.0
            },
            {
                "start_time": 8.945454545454545,
                "end_time": 9.329545454545453,
                "pitch": 37,
                "velocity": 80,
                "duration": 0.38409090909090793,
                "tempo": 120.0
            },
            {
                "start_time": 9.347727272727273,
                "end_time": 9.536363636363635,
                "pitch": 39,
                "velocity": 80,
                "duration": 0.1886363636363626,
                "tempo": 120.0
            },
            {
                "start_time": 9.552272727272728,
                "end_time": 9.74090909090909,
                "pitch": 32,
                "velocity": 80,
                "duration": 0.1886363636363626,
                "tempo": 120.0
            },
            {
                "start_time": 9.759090909090908,
                "end_time": 9.943181818181818,
                "pitch": 39,
                "velocity": 80,
                "duration": 0.18409090909091042,
                "tempo": 120.0
            },
            {
                "start_time": 9.959090909090909,
                "end_time": 10.536363636363635,
                "pitch": 26,
                "velocity": 80,
                "duration": 0.5772727272727263,
                "tempo": 120.0
            },
            {
                "start_time": 10.552272727272726,
                "end_time": 11.143181818181818,
                "pitch": 33,
                "velocity": 80,
                "duration": 0.5909090909090917,
                "tempo": 120.0
            },
            {
                "start_time": 11.159090909090908,
                "end_time": 11.338636363636363,
                "pitch": 28,
                "velocity": 80,
                "duration": 0.17954545454545467,
                "tempo": 120.0
            },
            {
                "start_time": 11.35681818181818,
                "end_time": 13.145454545454545,
                "pitch": 35,
                "velocity": 80,
                "duration": 1.788636363636364,
                "tempo": 120.0
            },
            {
                "start_time": 13.161363636363635,
                "end_time": 13.75,
                "pitch": 33,
                "velocity": 80,
                "duration": 0.5886363636363647,
                "tempo": 120.0
            },
            {
                "start_time": 13.76590909090909,
                "end_time": 14.152272727272727,
                "pitch": 40,
                "velocity": 80,
                "duration": 0.3863636363636367,
                "tempo": 120.0
            },
            {
                "start_time": 14.168181818181818,
                "end_time": 14.759090909090908,
                "pitch": 47,
                "velocity": 80,
                "duration": 0.5909090909090899,
                "tempo": 120.0
            },
            {
                "start_time": 14.774999999999999,
                "end_time": 15.359090909090908,
                "pitch": 42,
                "velocity": 80,
                "duration": 0.584090909090909,
                "tempo": 120.0
            },
            {
                "start_time": 15.375,
                "end_time": 15.961363636363636,
                "pitch": 40,
                "velocity": 80,
                "duration": 0.586363636363636,
                "tempo": 120.0
            },
            {
                "start_time": 15.979545454545454,
                "end_time": 16.368181818181817,
                "pitch": 37,
                "velocity": 80,
                "duration": 0.38863636363636367,
                "tempo": 120.0
            },
            {
                "start_time": 16.386363636363637,
                "end_time": 16.96590909090909,
                "pitch": 35,
                "velocity": 80,
                "duration": 0.5795454545454533,
                "tempo": 120.0
            },
            {
                "start_time": 16.98409090909091,
                "end_time": 17.377272727272725,
                "pitch": 33,
                "velocity": 80,
                "duration": 0.39318181818181586,
                "tempo": 120.0
            },
            {
                "start_time": 17.393181818181816,
                "end_time": 17.96818181818182,
                "pitch": 40,
                "velocity": 80,
                "duration": 0.5750000000000028,
                "tempo": 120.0
            },
            {
                "start_time": 17.986363636363635,
                "end_time": 18.168181818181818,
                "pitch": 42,
                "velocity": 80,
                "duration": 0.18181818181818343,
                "tempo": 120.0
            },
            {
                "start_time": 18.186363636363634,
                "end_time": 18.370454545454546,
                "pitch": 39,
                "velocity": 80,
                "duration": 0.1840909090909122,
                "tempo": 120.0
            },
            {
                "start_time": 18.386363636363637,
                "end_time": 18.538636363636364,
                "pitch": 37,
                "velocity": 80,
                "duration": 0.15227272727272734,
                "tempo": 120.0
            },
            {
                "start_time": 19.188636363636363,
                "end_time": 19.575,
                "pitch": 37,
                "velocity": 80,
                "duration": 0.3863636363636367,
                "tempo": 120.0
            },
            {
                "start_time": 19.59090909090909,
                "end_time": 20.175,
                "pitch": 32,
                "velocity": 80,
                "duration": 0.5840909090909108,
                "tempo": 120.0
            },
            {
                "start_time": 20.19090909090909,
                "end_time": 20.577272727272728,
                "pitch": 39,
                "velocity": 80,
                "duration": 0.3863636363636367,
                "tempo": 120.0
            },
            {
                "start_time": 20.59318181818182,
                "end_time": 20.679545454545455,
                "pitch": 37,
                "velocity": 80,
                "duration": 0.08636363636363598,
                "tempo": 120.0
            },
            {
                "start_time": 20.695454545454545,
                "end_time": 20.78181818181818,
                "pitch": 38,
                "velocity": 80,
                "duration": 0.08636363636363598,
                "tempo": 120.0
            },
            {
                "start_time": 20.8,
                "end_time": 20.884090909090908,
                "pitch": 39,
                "velocity": 80,
                "duration": 0.08409090909090722,
                "tempo": 120.0
            },
            {
                "start_time": 21.404545454545453,
                "end_time": 21.779545454545453,
                "pitch": 44,
                "velocity": 80,
                "duration": 0.375,
                "tempo": 120.0
            },
            {
                "start_time": 21.797727272727272,
                "end_time": 22.179545454545455,
                "pitch": 37,
                "velocity": 80,
                "duration": 0.3818181818181827,
                "tempo": 120.0
            },
            {
                "start_time": 22.19772727272727,
                "end_time": 22.384090909090908,
                "pitch": 39,
                "velocity": 80,
                "duration": 0.1863636363636374,
                "tempo": 120.0
            },
            {
                "start_time": 22.402272727272727,
                "end_time": 22.793181818181818,
                "pitch": 32,
                "velocity": 80,
                "duration": 0.39090909090909065,
                "tempo": 120.0
            },
            {
                "start_time": 22.80909090909091,
                "end_time": 23.386363636363637,
                "pitch": 26,
                "velocity": 80,
                "duration": 0.577272727272728,
                "tempo": 120.0
            },
            {
                "start_time": 23.402272727272727,
                "end_time": 23.993181818181817,
                "pitch": 33,
                "velocity": 80,
                "duration": 0.5909090909090899,
                "tempo": 120.0
            },
            {
                "start_time": 24.009090909090908,
                "end_time": 24.188636363636363,
                "pitch": 28,
                "velocity": 80,
                "duration": 0.17954545454545467,
                "tempo": 120.0
            },
            {
                "start_time": 24.204545454545453,
                "end_time": 25.99772727272727,
                "pitch": 35,
                "velocity": 80,
                "duration": 1.793181818181818,
                "tempo": 120.0
            },
            {
                "start_time": 26.01590909090909,
                "end_time": 26.597727272727273,
                "pitch": 32,
                "velocity": 80,
                "duration": 0.581818181818182,
                "tempo": 120.0
            },
            {
                "start_time": 26.613636363636363,
                "end_time": 27.00681818181818,
                "pitch": 39,
                "velocity": 80,
                "duration": 0.39318181818181586,
                "tempo": 120.0
            },
            {
                "start_time": 27.025,
                "end_time": 27.10681818181818,
                "pitch": 37,
                "velocity": 80,
                "duration": 0.08181818181818201,
                "tempo": 120.0
            },
            {
                "start_time": 27.125,
                "end_time": 27.206818181818182,
                "pitch": 38,
                "velocity": 80,
                "duration": 0.08181818181818201,
                "tempo": 120.0
            },
            {
                "start_time": 27.224999999999998,
                "end_time": 27.30681818181818,
                "pitch": 39,
                "velocity": 80,
                "duration": 0.08181818181818201,
                "tempo": 120.0
            },
            {
                "start_time": 27.825,
                "end_time": 28.2,
                "pitch": 44,
                "velocity": 80,
                "duration": 0.375,
                "tempo": 120.0
            },
            {
                "start_time": 28.21590909090909,
                "end_time": 28.602272727272727,
                "pitch": 37,
                "velocity": 80,
                "duration": 0.3863636363636367,
                "tempo": 120.0
            },
            {
                "start_time": 28.618181818181817,
                "end_time": 28.80681818181818,
                "pitch": 39,
                "velocity": 80,
                "duration": 0.1886363636363626,
                "tempo": 120.0
            },
            {
                "start_time": 28.825,
                "end_time": 29.013636363636362,
                "pitch": 32,
                "velocity": 80,
                "duration": 0.1886363636363626,
                "tempo": 120.0
            },
            {
                "start_time": 29.029545454545453,
                "end_time": 29.21363636363636,
                "pitch": 39,
                "velocity": 80,
                "duration": 0.18409090909090864,
                "tempo": 120.0
            },
            {
                "start_time": 29.229545454545452,
                "end_time": 29.80681818181818,
                "pitch": 26,
                "velocity": 80,
                "duration": 0.577272727272728,
                "tempo": 120.0
            },
            {
                "start_time": 29.82272727272727,
                "end_time": 30.411363636363635,
                "pitch": 33,
                "velocity": 80,
                "duration": 0.5886363636363647,
                "tempo": 120.0
            },
            {
                "start_time": 30.429545454545455,
                "end_time": 30.60909090909091,
                "pitch": 28,
                "velocity": 80,
                "duration": 0.17954545454545467,
                "tempo": 120.0
            },
            {
                "start_time": 30.625,
                "end_time": 32.340909090909086,
                "pitch": 35,
                "velocity": 80,
                "duration": 1.7159090909090864,
                "tempo": 120.0
            },
            {
                "start_time": 32.35454545454545,
                "end_time": 32.85909090909091,
                "pitch": 33,
                "velocity": 80,
                "duration": 0.5045454545454575,
                "tempo": 120.0
            },
            {
                "start_time": 32.87272727272727,
                "end_time": 32.918181818181814,
                "pitch": 40,
                "velocity": 80,
                "duration": 0.045454545454546746,
                "tempo": 120.0
            },
            {
                "start_time": 33.45454545454545,
                "end_time": 33.82954545454545,
                "pitch": 47,
                "velocity": 80,
                "duration": 0.375,
                "tempo": 120.0
            },
            {
                "start_time": 33.845454545454544,
                "end_time": 34.44090909090909,
                "pitch": 42,
                "velocity": 80,
                "duration": 0.5954545454545439,
                "tempo": 120.0
            },
            {
                "start_time": 34.45681818181818,
                "end_time": 35.04090909090909,
                "pitch": 40,
                "velocity": 80,
                "duration": 0.5840909090909108,
                "tempo": 120.0
            },
            {
                "start_time": 35.05681818181818,
                "end_time": 35.44090909090909,
                "pitch": 37,
                "velocity": 80,
                "duration": 0.38409090909090793,
                "tempo": 120.0
            },
            {
                "start_time": 35.45681818181818,
                "end_time": 36.05227272727272,
                "pitch": 33,
                "velocity": 80,
                "duration": 0.5954545454545439,
                "tempo": 120.0
            },
            {
                "start_time": 36.06818181818181,
                "end_time": 37.904545454545456,
                "pitch": 40,
                "velocity": 80,
                "duration": 1.836363636363643,
                "tempo": 120.0
            },
            {
                "start_time": 38.663636363636364,
                "end_time": 40.25,
                "pitch": 33,
                "velocity": 80,
                "duration": 1.586363636363636,
                "tempo": 120.0
            },
            {
                "start_time": 40.26590909090909,
                "end_time": 41.85227272727273,
                "pitch": 38,
                "velocity": 80,
                "duration": 1.586363636363636,
                "tempo": 120.0
            },
            {
                "start_time": 41.86818181818182,
                "end_time": 43.45227272727273,
                "pitch": 37,
                "velocity": 80,
                "duration": 1.5840909090909108,
                "tempo": 120.0
            },
            {
                "start_time": 43.46818181818182,
                "end_time": 45.45681818181818,
                "pitch": 39,
                "velocity": 80,
                "duration": 1.9886363636363598,
                "tempo": 120.0
            }
        ],
        "Church Organ": [
            {
                "start_time": 0.32045454545454544,
                "end_time": 0.5022727272727272,
                "pitch": 44,
                "velocity": 51,
                "duration": 0.18181818181818177,
                "tempo": 120.0
            },
            {
                "start_time": 0.5204545454545454,
                "end_time": 0.7068181818181818,
                "pitch": 47,
                "velocity": 51,
                "duration": 0.1863636363636364,
                "tempo": 120.0
            },
            {
                "start_time": 0.725,
                "end_time": 0.9136363636363636,
                "pitch": 54,
                "velocity": 51,
                "duration": 0.1886363636363636,
                "tempo": 120.0
            },
            {
                "start_time": 0.9295454545454545,
                "end_time": 1.1136363636363635,
                "pitch": 58,
                "velocity": 51,
                "duration": 0.18409090909090908,
                "tempo": 120.0
            },
            {
                "start_time": 1.1295454545454544,
                "end_time": 1.3136363636363635,
                "pitch": 54,
                "velocity": 51,
                "duration": 0.18409090909090908,
                "tempo": 120.0
            },
            {
                "start_time": 1.3295454545454546,
                "end_time": 1.5113636363636362,
                "pitch": 47,
                "velocity": 51,
                "duration": 0.18181818181818166,
                "tempo": 120.0
            },
            {
                "start_time": 1.5272727272727271,
                "end_time": 1.7068181818181818,
                "pitch": 54,
                "velocity": 51,
                "duration": 0.17954545454545467,
                "tempo": 120.0
            },
            {
                "start_time": 1.7227272727272727,
                "end_time": 1.9113636363636364,
                "pitch": 47,
                "velocity": 51,
                "duration": 0.1886363636363637,
                "tempo": 120.0
            },
            {
                "start_time": 1.9272727272727272,
                "end_time": 2.1159090909090907,
                "pitch": 44,
                "velocity": 51,
                "duration": 0.1886363636363635,
                "tempo": 120.0
            },
            {
                "start_time": 2.134090909090909,
                "end_time": 2.3136363636363635,
                "pitch": 47,
                "velocity": 51,
                "duration": 0.17954545454545467,
                "tempo": 120.0
            },
            {
                "start_time": 2.3295454545454546,
                "end_time": 2.509090909090909,
                "pitch": 54,
                "velocity": 51,
                "duration": 0.17954545454545423,
                "tempo": 120.0
            },
            {
                "start_time": 2.525,
                "end_time": 2.709090909090909,
                "pitch": 47,
                "velocity": 51,
                "duration": 0.18409090909090908,
                "tempo": 120.0
            },
            {
                "start_time": 2.725,
                "end_time": 2.909090909090909,
                "pitch": 58,
                "velocity": 51,
                "duration": 0.18409090909090908,
                "tempo": 120.0
            },
            {
                "start_time": 2.925,
                "end_time": 3.1136363636363633,
                "pitch": 54,
                "velocity": 51,
                "duration": 0.1886363636363635,
                "tempo": 120.0
            },
            {
                "start_time": 3.1295454545454544,
                "end_time": 3.318181818181818,
                "pitch": 47,
                "velocity": 51,
                "duration": 0.1886363636363635,
                "tempo": 120.0
            },
            {
                "start_time": 3.3363636363636364,
                "end_time": 3.5204545454545455,
                "pitch": 54,
                "velocity": 51,
                "duration": 0.18409090909090908,
                "tempo": 120.0
            },
            {
                "start_time": 3.536363636363636,
                "end_time": 3.7204545454545452,
                "pitch": 42,
                "velocity": 51,
                "duration": 0.18409090909090908,
                "tempo": 120.0
            },
            {
                "start_time": 3.7363636363636363,
                "end_time": 3.9159090909090906,
                "pitch": 45,
                "velocity": 51,
                "duration": 0.17954545454545423,
                "tempo": 120.0
            },
            {
                "start_time": 3.9318181818181817,
                "end_time": 4.111363636363636,
                "pitch": 52,
                "velocity": 51,
                "duration": 0.17954545454545467,
                "tempo": 120.0
            },
            {
                "start_time": 4.129545454545454,
                "end_time": 4.3159090909090905,
                "pitch": 45,
                "velocity": 51,
                "duration": 0.1863636363636365,
                "tempo": 120.0
            },
            {
                "start_time": 4.334090909090909,
                "end_time": 4.5227272727272725,
                "pitch": 56,
                "velocity": 51,
                "duration": 0.1886363636363635,
                "tempo": 120.0
            },
            {
                "start_time": 4.538636363636363,
                "end_time": 4.718181818181818,
                "pitch": 52,
                "velocity": 51,
                "duration": 0.17954545454545467,
                "tempo": 120.0
            },
            {
                "start_time": 4.7340909090909085,
                "end_time": 4.913636363636363,
                "pitch": 45,
                "velocity": 51,
                "duration": 0.17954545454545467,
                "tempo": 120.0
            },
            {
                "start_time": 4.931818181818182,
                "end_time": 5.118181818181818,
                "pitch": 52,
                "velocity": 51,
                "duration": 0.1863636363636365,
                "tempo": 120.0
            },
            {
                "start_time": 5.136363636363636,
                "end_time": 5.325,
                "pitch": 42,
                "velocity": 51,
                "duration": 0.18863636363636438,
                "tempo": 120.0
            },
            {
                "start_time": 5.340909090909091,
                "end_time": 5.5204545454545455,
                "pitch": 45,
                "velocity": 51,
                "duration": 0.17954545454545467,
                "tempo": 120.0
            },
            {
                "start_time": 5.538636363636363,
                "end_time": 5.718181818181818,
                "pitch": 52,
                "velocity": 51,
                "duration": 0.17954545454545467,
                "tempo": 120.0
            },
            {
                "start_time": 5.7340909090909085,
                "end_time": 5.918181818181818,
                "pitch": 45,
                "velocity": 51,
                "duration": 0.18409090909090953,
                "tempo": 120.0
            },
            {
                "start_time": 5.934090909090909,
                "end_time": 6.118181818181818,
                "pitch": 56,
                "velocity": 51,
                "duration": 0.18409090909090953,
                "tempo": 120.0
            },
            {
                "start_time": 6.134090909090909,
                "end_time": 6.3181818181818175,
                "pitch": 52,
                "velocity": 51,
                "duration": 0.18409090909090864,
                "tempo": 120.0
            },
            {
                "start_time": 6.334090909090909,
                "end_time": 6.5204545454545455,
                "pitch": 45,
                "velocity": 51,
                "duration": 0.1863636363636365,
                "tempo": 120.0
            },
            {
                "start_time": 6.536363636363636,
                "end_time": 6.720454545454545,
                "pitch": 52,
                "velocity": 51,
                "duration": 0.18409090909090864,
                "tempo": 120.0
            },
            {
                "start_time": 6.736363636363636,
                "end_time": 6.920454545454545,
                "pitch": 44,
                "velocity": 51,
                "duration": 0.18409090909090864,
                "tempo": 120.0
            },
            {
                "start_time": 6.936363636363636,
                "end_time": 7.120454545454545,
                "pitch": 47,
                "velocity": 51,
                "duration": 0.18409090909090953,
                "tempo": 120.0
            },
            {
                "start_time": 7.138636363636364,
                "end_time": 7.322727272727272,
                "pitch": 54,
                "velocity": 51,
                "duration": 0.18409090909090864,
                "tempo": 120.0
            },
            {
                "start_time": 7.338636363636363,
                "end_time": 7.5227272727272725,
                "pitch": 47,
                "velocity": 51,
                "duration": 0.18409090909090953,
                "tempo": 120.0
            },
            {
                "start_time": 7.54090909090909,
                "end_time": 7.725,
                "pitch": 58,
                "velocity": 51,
                "duration": 0.18409090909090953,
                "tempo": 120.0
            },
            {
                "start_time": 7.74090909090909,
                "end_time": 7.925,
                "pitch": 54,
                "velocity": 51,
                "duration": 0.18409090909090953,
                "tempo": 120.0
            },
            {
                "start_time": 7.9409090909090905,
                "end_time": 8.125,
                "pitch": 47,
                "velocity": 51,
                "duration": 0.18409090909090953,
                "tempo": 120.0
            },
            {
                "start_time": 8.14090909090909,
                "end_time": 8.329545454545453,
                "pitch": 54,
                "velocity": 51,
                "duration": 0.1886363636363626,
                "tempo": 120.0
            },
            {
                "start_time": 8.347727272727273,
                "end_time": 8.536363636363635,
                "pitch": 44,
                "velocity": 51,
                "duration": 0.1886363636363626,
                "tempo": 120.0
            },
            {
                "start_time": 8.552272727272728,
                "end_time": 8.73181818181818,
                "pitch": 47,
                "velocity": 51,
                "duration": 0.1795454545454529,
                "tempo": 120.0
            },
            {
                "start_time": 8.747727272727273,
                "end_time": 8.927272727272728,
                "pitch": 54,
                "velocity": 51,
                "duration": 0.17954545454545467,
                "tempo": 120.0
            },
            {
                "start_time": 8.945454545454545,
                "end_time": 9.129545454545454,
                "pitch": 47,
                "velocity": 51,
                "duration": 0.18409090909090864,
                "tempo": 120.0
            },
            {
                "start_time": 9.145454545454545,
                "end_time": 9.329545454545453,
                "pitch": 58,
                "velocity": 51,
                "duration": 0.18409090909090864,
                "tempo": 120.0
            },
            {
                "start_time": 9.347727272727273,
                "end_time": 9.536363636363635,
                "pitch": 54,
                "velocity": 51,
                "duration": 0.1886363636363626,
                "tempo": 120.0
            },
            {
                "start_time": 9.552272727272728,
                "end_time": 9.74090909090909,
                "pitch": 47,
                "velocity": 51,
                "duration": 0.1886363636363626,
                "tempo": 120.0
            },
            {
                "start_time": 9.759090909090908,
                "end_time": 9.943181818181818,
                "pitch": 54,
                "velocity": 51,
                "duration": 0.18409090909091042,
                "tempo": 120.0
            },
            {
                "start_time": 9.959090909090909,
                "end_time": 10.143181818181818,
                "pitch": 42,
                "velocity": 51,
                "duration": 0.18409090909090864,
                "tempo": 120.0
            },
            {
                "start_time": 10.161363636363635,
                "end_time": 10.34090909090909,
                "pitch": 45,
                "velocity": 51,
                "duration": 0.17954545454545467,
                "tempo": 120.0
            },
            {
                "start_time": 10.35681818181818,
                "end_time": 10.372727272727273,
                "pitch": 52,
                "velocity": 51,
                "duration": 0.015909090909092427,
                "tempo": 120.0
            },
            {
                "start_time": 10.388636363636364,
                "end_time": 10.536363636363635,
                "pitch": 56,
                "velocity": 51,
                "duration": 0.1477272727272716,
                "tempo": 120.0
            },
            {
                "start_time": 10.552272727272726,
                "end_time": 10.74090909090909,
                "pitch": 45,
                "velocity": 51,
                "duration": 0.18863636363636438,
                "tempo": 120.0
            },
            {
                "start_time": 10.759090909090908,
                "end_time": 10.945454545454545,
                "pitch": 56,
                "velocity": 51,
                "duration": 0.1863636363636374,
                "tempo": 120.0
            },
            {
                "start_time": 10.963636363636363,
                "end_time": 11.143181818181818,
                "pitch": 52,
                "velocity": 51,
                "duration": 0.17954545454545467,
                "tempo": 120.0
            },
            {
                "start_time": 11.159090909090908,
                "end_time": 11.338636363636363,
                "pitch": 45,
                "velocity": 51,
                "duration": 0.17954545454545467,
                "tempo": 120.0
            },
            {
                "start_time": 11.35681818181818,
                "end_time": 11.543181818181818,
                "pitch": 52,
                "velocity": 51,
                "duration": 0.1863636363636374,
                "tempo": 120.0
            },
            {
                "start_time": 11.561363636363636,
                "end_time": 11.577272727272726,
                "pitch": 42,
                "velocity": 51,
                "duration": 0.01590909090909065,
                "tempo": 120.0
            },
            {
                "start_time": 11.595454545454546,
                "end_time": 11.75,
                "pitch": 52,
                "velocity": 51,
                "duration": 0.15454545454545432,
                "tempo": 120.0
            },
            {
                "start_time": 11.76590909090909,
                "end_time": 11.945454545454545,
                "pitch": 45,
                "velocity": 51,
                "duration": 0.17954545454545467,
                "tempo": 120.0
            },
            {
                "start_time": 11.961363636363636,
                "end_time": 12.143181818181818,
                "pitch": 52,
                "velocity": 51,
                "duration": 0.18181818181818166,
                "tempo": 120.0
            },
            {
                "start_time": 12.159090909090908,
                "end_time": 12.34090909090909,
                "pitch": 56,
                "velocity": 51,
                "duration": 0.18181818181818166,
                "tempo": 120.0
            },
            {
                "start_time": 12.35909090909091,
                "end_time": 12.540909090909091,
                "pitch": 52,
                "velocity": 51,
                "duration": 0.18181818181818166,
                "tempo": 120.0
            },
            {
                "start_time": 12.559090909090909,
                "end_time": 12.743181818181817,
                "pitch": 45,
                "velocity": 51,
                "duration": 0.18409090909090864,
                "tempo": 120.0
            },
            {
                "start_time": 12.759090909090908,
                "end_time": 12.777272727272727,
                "pitch": 52,
                "velocity": 51,
                "duration": 0.01818181818181941,
                "tempo": 120.0
            },
            {
                "start_time": 12.793181818181818,
                "end_time": 12.943181818181818,
                "pitch": 56,
                "velocity": 51,
                "duration": 0.15000000000000036,
                "tempo": 120.0
            },
            {
                "start_time": 12.961363636363636,
                "end_time": 13.145454545454545,
                "pitch": 45,
                "velocity": 51,
                "duration": 0.18409090909090864,
                "tempo": 120.0
            },
            {
                "start_time": 13.161363636363635,
                "end_time": 13.347727272727273,
                "pitch": 45,
                "velocity": 51,
                "duration": 0.1863636363636374,
                "tempo": 120.0
            },
            {
                "start_time": 13.363636363636363,
                "end_time": 13.547727272727272,
                "pitch": 48,
                "velocity": 51,
                "duration": 0.18409090909090864,
                "tempo": 120.0
            },
            {
                "start_time": 13.56590909090909,
                "end_time": 13.75,
                "pitch": 55,
                "velocity": 51,
                "duration": 0.18409090909091042,
                "tempo": 120.0
            },
            {
                "start_time": 13.76590909090909,
                "end_time": 13.95,
                "pitch": 59,
                "velocity": 51,
                "duration": 0.18409090909090864,
                "tempo": 120.0
            },
            {
                "start_time": 13.968181818181817,
                "end_time": 14.152272727272727,
                "pitch": 55,
                "velocity": 51,
                "duration": 0.18409090909091042,
                "tempo": 120.0
            },
            {
                "start_time": 14.168181818181818,
                "end_time": 14.35681818181818,
                "pitch": 48,
                "velocity": 51,
                "duration": 0.1886363636363626,
                "tempo": 120.0
            },
            {
                "start_time": 14.375,
                "end_time": 14.563636363636363,
                "pitch": 55,
                "velocity": 51,
                "duration": 0.1886363636363626,
                "tempo": 120.0
            },
            {
                "start_time": 14.579545454545453,
                "end_time": 14.759090909090908,
                "pitch": 48,
                "velocity": 51,
                "duration": 0.17954545454545467,
                "tempo": 120.0
            },
            {
                "start_time": 14.774999999999999,
                "end_time": 14.95681818181818,
                "pitch": 47,
                "velocity": 51,
                "duration": 0.18181818181818166,
                "tempo": 120.0
            },
            {
                "start_time": 14.972727272727273,
                "end_time": 15.156818181818181,
                "pitch": 50,
                "velocity": 51,
                "duration": 0.18409090909090864,
                "tempo": 120.0
            },
            {
                "start_time": 15.172727272727272,
                "end_time": 15.359090909090908,
                "pitch": 57,
                "velocity": 51,
                "duration": 0.18636363636363562,
                "tempo": 120.0
            },
            {
                "start_time": 15.375,
                "end_time": 15.761363636363635,
                "pitch": 61,
                "velocity": 51,
                "duration": 0.3863636363636349,
                "tempo": 120.0
            },
            {
                "start_time": 15.777272727272727,
                "end_time": 15.961363636363636,
                "pitch": 50,
                "velocity": 51,
                "duration": 0.18409090909090864,
                "tempo": 120.0
            },
            {
                "start_time": 15.979545454545454,
                "end_time": 16.163636363636364,
                "pitch": 57,
                "velocity": 51,
                "duration": 0.18409090909091042,
                "tempo": 120.0
            },
            {
                "start_time": 16.179545454545455,
                "end_time": 16.368181818181817,
                "pitch": 47,
                "velocity": 51,
                "duration": 0.1886363636363626,
                "tempo": 120.0
            },
            {
                "start_time": 16.386363636363637,
                "end_time": 16.57272727272727,
                "pitch": 42,
                "velocity": 51,
                "duration": 0.18636363636363384,
                "tempo": 120.0
            },
            {
                "start_time": 16.59090909090909,
                "end_time": 16.770454545454545,
                "pitch": 45,
                "velocity": 51,
                "duration": 0.17954545454545467,
                "tempo": 120.0
            },
            {
                "start_time": 16.786363636363635,
                "end_time": 16.96590909090909,
                "pitch": 52,
                "velocity": 51,
                "duration": 0.17954545454545467,
                "tempo": 120.0
            },
            {
                "start_time": 16.98409090909091,
                "end_time": 18.504545454545454,
                "pitch": 56,
                "velocity": 51,
                "duration": 1.5204545454545446,
                "tempo": 120.0
            },
            {
                "start_time": 19.59090909090909,
                "end_time": 19.775,
                "pitch": 44,
                "velocity": 51,
                "duration": 0.18409090909090864,
                "tempo": 120.0
            },
            {
                "start_time": 19.79090909090909,
                "end_time": 19.974999999999998,
                "pitch": 47,
                "velocity": 51,
                "duration": 0.18409090909090864,
                "tempo": 120.0
            },
            {
                "start_time": 19.99090909090909,
                "end_time": 20.175,
                "pitch": 54,
                "velocity": 51,
                "duration": 0.1840909090909122,
                "tempo": 120.0
            },
            {
                "start_time": 20.19090909090909,
                "end_time": 20.375,
                "pitch": 58,
                "velocity": 51,
                "duration": 0.18409090909090864,
                "tempo": 120.0
            },
            {
                "start_time": 20.393181818181816,
                "end_time": 20.577272727272728,
                "pitch": 54,
                "velocity": 51,
                "duration": 0.1840909090909122,
                "tempo": 120.0
            },
            {
                "start_time": 20.59318181818182,
                "end_time": 20.78181818181818,
                "pitch": 47,
                "velocity": 51,
                "duration": 0.1886363636363626,
                "tempo": 120.0
            },
            {
                "start_time": 20.8,
                "end_time": 20.986363636363635,
                "pitch": 54,
                "velocity": 51,
                "duration": 0.18636363636363384,
                "tempo": 120.0
            },
            {
                "start_time": 21.004545454545454,
                "end_time": 21.188636363636363,
                "pitch": 47,
                "velocity": 51,
                "duration": 0.18409090909090864,
                "tempo": 120.0
            },
            {
                "start_time": 21.204545454545453,
                "end_time": 21.388636363636362,
                "pitch": 44,
                "velocity": 51,
                "duration": 0.18409090909090864,
                "tempo": 120.0
            },
            {
                "start_time": 21.404545454545453,
                "end_time": 21.584090909090907,
                "pitch": 47,
                "velocity": 51,
                "duration": 0.17954545454545467,
                "tempo": 120.0
            },
            {
                "start_time": 21.599999999999998,
                "end_time": 21.779545454545453,
                "pitch": 54,
                "velocity": 51,
                "duration": 0.17954545454545467,
                "tempo": 120.0
            },
            {
                "start_time": 21.797727272727272,
                "end_time": 21.979545454545452,
                "pitch": 47,
                "velocity": 51,
                "duration": 0.18181818181817988,
                "tempo": 120.0
            },
            {
                "start_time": 21.99772727272727,
                "end_time": 22.179545454545455,
                "pitch": 58,
                "velocity": 51,
                "duration": 0.18181818181818343,
                "tempo": 120.0
            },
            {
                "start_time": 22.19772727272727,
                "end_time": 22.384090909090908,
                "pitch": 54,
                "velocity": 51,
                "duration": 0.1863636363636374,
                "tempo": 120.0
            },
            {
                "start_time": 22.402272727272727,
                "end_time": 22.59090909090909,
                "pitch": 47,
                "velocity": 51,
                "duration": 0.1886363636363626,
                "tempo": 120.0
            },
            {
                "start_time": 22.60681818181818,
                "end_time": 22.793181818181818,
                "pitch": 54,
                "velocity": 51,
                "duration": 0.1863636363636374,
                "tempo": 120.0
            },
            {
                "start_time": 22.80909090909091,
                "end_time": 22.993181818181817,
                "pitch": 42,
                "velocity": 51,
                "duration": 0.18409090909090864,
                "tempo": 120.0
            },
            {
                "start_time": 23.011363636363637,
                "end_time": 23.19090909090909,
                "pitch": 45,
                "velocity": 51,
                "duration": 0.17954545454545467,
                "tempo": 120.0
            },
            {
                "start_time": 23.206818181818182,
                "end_time": 23.386363636363637,
                "pitch": 52,
                "velocity": 51,
                "duration": 0.17954545454545467,
                "tempo": 120.0
            },
            {
                "start_time": 23.402272727272727,
                "end_time": 23.59090909090909,
                "pitch": 45,
                "velocity": 51,
                "duration": 0.1886363636363626,
                "tempo": 120.0
            },
            {
                "start_time": 23.60681818181818,
                "end_time": 23.795454545454543,
                "pitch": 56,
                "velocity": 51,
                "duration": 0.1886363636363626,
                "tempo": 120.0
            },
            {
                "start_time": 23.813636363636363,
                "end_time": 23.993181818181817,
                "pitch": 52,
                "velocity": 51,
                "duration": 0.17954545454545467,
                "tempo": 120.0
            },
            {
                "start_time": 24.009090909090908,
                "end_time": 24.188636363636363,
                "pitch": 45,
                "velocity": 51,
                "duration": 0.17954545454545467,
                "tempo": 120.0
            },
            {
                "start_time": 24.204545454545453,
                "end_time": 24.393181818181816,
                "pitch": 52,
                "velocity": 51,
                "duration": 0.1886363636363626,
                "tempo": 120.0
            },
            {
                "start_time": 24.411363636363635,
                "end_time": 24.597727272727273,
                "pitch": 42,
                "velocity": 51,
                "duration": 0.1863636363636374,
                "tempo": 120.0
            },
            {
                "start_time": 24.61590909090909,
                "end_time": 24.795454545454543,
                "pitch": 45,
                "velocity": 51,
                "duration": 0.17954545454545467,
                "tempo": 120.0
            },
            {
                "start_time": 24.811363636363634,
                "end_time": 24.99090909090909,
                "pitch": 52,
                "velocity": 51,
                "duration": 0.17954545454545467,
                "tempo": 120.0
            },
            {
                "start_time": 25.00681818181818,
                "end_time": 25.193181818181817,
                "pitch": 45,
                "velocity": 51,
                "duration": 0.1863636363636374,
                "tempo": 120.0
            },
            {
                "start_time": 25.209090909090907,
                "end_time": 25.393181818181816,
                "pitch": 56,
                "velocity": 51,
                "duration": 0.18409090909090864,
                "tempo": 120.0
            },
            {
                "start_time": 25.411363636363635,
                "end_time": 25.59318181818182,
                "pitch": 52,
                "velocity": 51,
                "duration": 0.18181818181818343,
                "tempo": 120.0
            },
            {
                "start_time": 25.611363636363635,
                "end_time": 25.793181818181818,
                "pitch": 45,
                "velocity": 51,
                "duration": 0.18181818181818343,
                "tempo": 120.0
            },
            {
                "start_time": 25.811363636363634,
                "end_time": 25.99772727272727,
                "pitch": 52,
                "velocity": 51,
                "duration": 0.1863636363636374,
                "tempo": 120.0
            },
            {
                "start_time": 26.01590909090909,
                "end_time": 26.204545454545453,
                "pitch": 44,
                "velocity": 51,
                "duration": 0.1886363636363626,
                "tempo": 120.0
            },
            {
                "start_time": 26.220454545454544,
                "end_time": 26.4,
                "pitch": 47,
                "velocity": 51,
                "duration": 0.17954545454545467,
                "tempo": 120.0
            },
            {
                "start_time": 26.418181818181818,
                "end_time": 26.597727272727273,
                "pitch": 54,
                "velocity": 51,
                "duration": 0.17954545454545467,
                "tempo": 120.0
            },
            {
                "start_time": 26.613636363636363,
                "end_time": 26.802272727272726,
                "pitch": 47,
                "velocity": 51,
                "duration": 0.1886363636363626,
                "tempo": 120.0
            },
            {
                "start_time": 26.818181818181817,
                "end_time": 27.00681818181818,
                "pitch": 58,
                "velocity": 51,
                "duration": 0.1886363636363626,
                "tempo": 120.0
            },
            {
                "start_time": 27.025,
                "end_time": 27.206818181818182,
                "pitch": 54,
                "velocity": 51,
                "duration": 0.18181818181818343,
                "tempo": 120.0
            },
            {
                "start_time": 27.224999999999998,
                "end_time": 27.40681818181818,
                "pitch": 47,
                "velocity": 51,
                "duration": 0.18181818181818343,
                "tempo": 120.0
            },
            {
                "start_time": 27.424999999999997,
                "end_time": 27.60681818181818,
                "pitch": 54,
                "velocity": 51,
                "duration": 0.18181818181818343,
                "tempo": 120.0
            },
            {
                "start_time": 27.625,
                "end_time": 27.80681818181818,
                "pitch": 44,
                "velocity": 51,
                "duration": 0.18181818181817988,
                "tempo": 120.0
            },
            {
                "start_time": 27.825,
                "end_time": 28.004545454545454,
                "pitch": 47,
                "velocity": 51,
                "duration": 0.17954545454545467,
                "tempo": 120.0
            },
            {
                "start_time": 28.020454545454545,
                "end_time": 28.2,
                "pitch": 54,
                "velocity": 51,
                "duration": 0.17954545454545467,
                "tempo": 120.0
            },
            {
                "start_time": 28.21590909090909,
                "end_time": 28.4,
                "pitch": 47,
                "velocity": 51,
                "duration": 0.18409090909090864,
                "tempo": 120.0
            },
            {
                "start_time": 28.418181818181818,
                "end_time": 28.602272727272727,
                "pitch": 58,
                "velocity": 51,
                "duration": 0.18409090909090864,
                "tempo": 120.0
            },
            {
                "start_time": 28.618181818181817,
                "end_time": 28.80681818181818,
                "pitch": 54,
                "velocity": 51,
                "duration": 0.1886363636363626,
                "tempo": 120.0
            },
            {
                "start_time": 28.825,
                "end_time": 29.013636363636362,
                "pitch": 47,
                "velocity": 51,
                "duration": 0.1886363636363626,
                "tempo": 120.0
            },
            {
                "start_time": 29.029545454545453,
                "end_time": 29.21363636363636,
                "pitch": 54,
                "velocity": 51,
                "duration": 0.18409090909090864,
                "tempo": 120.0
            },
            {
                "start_time": 29.229545454545452,
                "end_time": 29.41363636363636,
                "pitch": 42,
                "velocity": 51,
                "duration": 0.18409090909090864,
                "tempo": 120.0
            },
            {
                "start_time": 29.429545454545455,
                "end_time": 29.60909090909091,
                "pitch": 45,
                "velocity": 51,
                "duration": 0.17954545454545467,
                "tempo": 120.0
            },
            {
                "start_time": 29.627272727272725,
                "end_time": 29.643181818181816,
                "pitch": 52,
                "velocity": 51,
                "duration": 0.01590909090909065,
                "tempo": 120.0
            },
            {
                "start_time": 29.659090909090907,
                "end_time": 29.80681818181818,
                "pitch": 56,
                "velocity": 51,
                "duration": 0.14772727272727337,
                "tempo": 120.0
            },
            {
                "start_time": 29.82272727272727,
                "end_time": 30.009090909090908,
                "pitch": 45,
                "velocity": 51,
                "duration": 0.1863636363636374,
                "tempo": 120.0
            },
            {
                "start_time": 30.027272727272727,
                "end_time": 30.21590909090909,
                "pitch": 56,
                "velocity": 51,
                "duration": 0.1886363636363626,
                "tempo": 120.0
            },
            {
                "start_time": 30.23181818181818,
                "end_time": 30.411363636363635,
                "pitch": 52,
                "velocity": 51,
                "duration": 0.17954545454545467,
                "tempo": 120.0
            },
            {
                "start_time": 30.429545454545455,
                "end_time": 30.60909090909091,
                "pitch": 45,
                "velocity": 51,
                "duration": 0.17954545454545467,
                "tempo": 120.0
            },
            {
                "start_time": 30.625,
                "end_time": 30.813636363636363,
                "pitch": 52,
                "velocity": 51,
                "duration": 0.1886363636363626,
                "tempo": 120.0
            },
            {
                "start_time": 30.829545454545453,
                "end_time": 30.847727272727273,
                "pitch": 42,
                "velocity": 51,
                "duration": 0.01818181818181941,
                "tempo": 120.0
            },
            {
                "start_time": 30.863636363636363,
                "end_time": 31.018181818181816,
                "pitch": 52,
                "velocity": 51,
                "duration": 0.15454545454545254,
                "tempo": 120.0
            },
            {
                "start_time": 31.036363636363635,
                "end_time": 31.21590909090909,
                "pitch": 45,
                "velocity": 51,
                "duration": 0.17954545454545467,
                "tempo": 120.0
            },
            {
                "start_time": 31.23181818181818,
                "end_time": 31.411363636363635,
                "pitch": 52,
                "velocity": 51,
                "duration": 0.17954545454545467,
                "tempo": 120.0
            },
            {
                "start_time": 31.427272727272726,
                "end_time": 31.611363636363635,
                "pitch": 56,
                "velocity": 51,
                "duration": 0.18409090909090864,
                "tempo": 120.0
            },
            {
                "start_time": 31.627272727272725,
                "end_time": 31.811363636363634,
                "pitch": 52,
                "velocity": 51,
                "duration": 0.18409090909090864,
                "tempo": 120.0
            },
            {
                "start_time": 31.827272727272724,
                "end_time": 32.002272727272725,
                "pitch": 45,
                "velocity": 51,
                "duration": 0.1750000000000007,
                "tempo": 120.0
            },
            {
                "start_time": 32.018181818181816,
                "end_time": 32.03409090909091,
                "pitch": 52,
                "velocity": 51,
                "duration": 0.01590909090909065,
                "tempo": 120.0
            },
            {
                "start_time": 32.05,
                "end_time": 32.179545454545455,
                "pitch": 56,
                "velocity": 51,
                "duration": 0.12954545454545752,
                "tempo": 120.0
            },
            {
                "start_time": 32.19318181818182,
                "end_time": 32.340909090909086,
                "pitch": 45,
                "velocity": 51,
                "duration": 0.14772727272726627,
                "tempo": 120.0
            },
            {
                "start_time": 32.35454545454545,
                "end_time": 32.50909090909091,
                "pitch": 45,
                "velocity": 51,
                "duration": 0.1545454545454561,
                "tempo": 120.0
            },
            {
                "start_time": 32.52272727272727,
                "end_time": 32.679545454545455,
                "pitch": 48,
                "velocity": 51,
                "duration": 0.1568181818181813,
                "tempo": 120.0
            },
            {
                "start_time": 32.69318181818182,
                "end_time": 32.85909090909091,
                "pitch": 55,
                "velocity": 51,
                "duration": 0.16590909090908923,
                "tempo": 120.0
            },
            {
                "start_time": 32.87272727272727,
                "end_time": 33.038636363636364,
                "pitch": 59,
                "velocity": 51,
                "duration": 0.16590909090909634,
                "tempo": 120.0
            },
            {
                "start_time": 33.054545454545455,
                "end_time": 33.23863636363636,
                "pitch": 55,
                "velocity": 51,
                "duration": 0.18409090909090509,
                "tempo": 120.0
            },
            {
                "start_time": 33.25454545454545,
                "end_time": 33.43863636363636,
                "pitch": 48,
                "velocity": 51,
                "duration": 0.1840909090909122,
                "tempo": 120.0
            },
            {
                "start_time": 33.45454545454545,
                "end_time": 33.63409090909091,
                "pitch": 55,
                "velocity": 51,
                "duration": 0.17954545454545467,
                "tempo": 120.0
            },
            {
                "start_time": 33.65,
                "end_time": 33.82954545454545,
                "pitch": 48,
                "velocity": 51,
                "duration": 0.17954545454545467,
                "tempo": 120.0
            },
            {
                "start_time": 33.845454545454544,
                "end_time": 34.03409090909091,
                "pitch": 47,
                "velocity": 51,
                "duration": 0.1886363636363626,
                "tempo": 120.0
            },
            {
                "start_time": 34.05227272727272,
                "end_time": 34.24090909090909,
                "pitch": 50,
                "velocity": 51,
                "duration": 0.1886363636363697,
                "tempo": 120.0
            },
            {
                "start_time": 34.25681818181818,
                "end_time": 34.44090909090909,
                "pitch": 57,
                "velocity": 51,
                "duration": 0.18409090909090509,
                "tempo": 120.0
            },
            {
                "start_time": 34.45681818181818,
                "end_time": 34.840909090909086,
                "pitch": 61,
                "velocity": 51,
                "duration": 0.38409090909090793,
                "tempo": 120.0
            },
            {
                "start_time": 34.85681818181818,
                "end_time": 35.04090909090909,
                "pitch": 50,
                "velocity": 51,
                "duration": 0.1840909090909122,
                "tempo": 120.0
            },
            {
                "start_time": 35.05681818181818,
                "end_time": 35.24090909090909,
                "pitch": 57,
                "velocity": 51,
                "duration": 0.1840909090909122,
                "tempo": 120.0
            },
            {
                "start_time": 35.25681818181818,
                "end_time": 35.44090909090909,
                "pitch": 47,
                "velocity": 51,
                "duration": 0.18409090909090509,
                "tempo": 120.0
            },
            {
                "start_time": 35.45681818181818,
                "end_time": 35.64545454545454,
                "pitch": 42,
                "velocity": 51,
                "duration": 0.1886363636363626,
                "tempo": 120.0
            },
            {
                "start_time": 35.66136363636363,
                "end_time": 35.85,
                "pitch": 45,
                "velocity": 51,
                "duration": 0.1886363636363697,
                "tempo": 120.0
            },
            {
                "start_time": 35.86818181818182,
                "end_time": 36.05227272727272,
                "pitch": 52,
                "velocity": 51,
                "duration": 0.18409090909090509,
                "tempo": 120.0
            },
            {
                "start_time": 36.06818181818181,
                "end_time": 37.574999999999996,
                "pitch": 56,
                "velocity": 51,
                "duration": 1.5068181818181827,
                "tempo": 120.0
            },
            {
                "start_time": 38.663636363636364,
                "end_time": 39.04545454545455,
                "pitch": 45,
                "velocity": 51,
                "duration": 0.3818181818181827,
                "tempo": 120.0
            },
            {
                "start_time": 39.06363636363636,
                "end_time": 39.445454545454545,
                "pitch": 56,
                "velocity": 51,
                "duration": 0.3818181818181827,
                "tempo": 120.0
            },
            {
                "start_time": 39.46363636363636,
                "end_time": 39.64772727272727,
                "pitch": 59,
                "velocity": 51,
                "duration": 0.1840909090909122,
                "tempo": 120.0
            },
            {
                "start_time": 39.663636363636364,
                "end_time": 40.25,
                "pitch": 64,
                "velocity": 51,
                "duration": 0.586363636363636,
                "tempo": 120.0
            },
            {
                "start_time": 40.26590909090909,
                "end_time": 40.65,
                "pitch": 50,
                "velocity": 51,
                "duration": 0.38409090909090793,
                "tempo": 120.0
            },
            {
                "start_time": 40.66590909090909,
                "end_time": 41.05,
                "pitch": 56,
                "velocity": 51,
                "duration": 0.38409090909090793,
                "tempo": 120.0
            },
            {
                "start_time": 41.06590909090909,
                "end_time": 41.25,
                "pitch": 61,
                "velocity": 51,
                "duration": 0.1840909090909122,
                "tempo": 120.0
            },
            {
                "start_time": 41.26590909090909,
                "end_time": 41.85227272727273,
                "pitch": 66,
                "velocity": 51,
                "duration": 0.586363636363636,
                "tempo": 120.0
            },
            {
                "start_time": 41.86818181818182,
                "end_time": 42.252272727272725,
                "pitch": 47,
                "velocity": 51,
                "duration": 0.38409090909090793,
                "tempo": 120.0
            },
            {
                "start_time": 42.268181818181816,
                "end_time": 42.652272727272724,
                "pitch": 52,
                "velocity": 51,
                "duration": 0.38409090909090793,
                "tempo": 120.0
            },
            {
                "start_time": 42.668181818181814,
                "end_time": 42.85227272727273,
                "pitch": 57,
                "velocity": 51,
                "duration": 0.1840909090909122,
                "tempo": 120.0
            },
            {
                "start_time": 42.86818181818182,
                "end_time": 43.45227272727273,
                "pitch": 64,
                "velocity": 51,
                "duration": 0.5840909090909108,
                "tempo": 120.0
            },
            {
                "start_time": 43.46818181818182,
                "end_time": 43.861363636363635,
                "pitch": 51,
                "velocity": 51,
                "duration": 0.39318181818181586,
                "tempo": 120.0
            },
            {
                "start_time": 43.87954545454545,
                "end_time": 44.25454545454545,
                "pitch": 56,
                "velocity": 51,
                "duration": 0.375,
                "tempo": 120.0
            },
            {
                "start_time": 44.27045454545454,
                "end_time": 44.45454545454545,
                "pitch": 61,
                "velocity": 51,
                "duration": 0.1840909090909122,
                "tempo": 120.0
            },
            {
                "start_time": 44.470454545454544,
                "end_time": 45.49090909090909,
                "pitch": 68,
                "velocity": 51,
                "duration": 1.0204545454545482,
                "tempo": 120.0
            }
        ]
    }
}