{
    "track_id": "Golvellius - Valley of Doom (FM) - 29 - Game Over",
    "mood": "sad",
    "instruments": {
        "Flute": [
            {
                "start_time": 0.23636363636363636,
                "end_time": 1.0022727272727272,
                "pitch": 83,
                "velocity": 40,
                "duration": 0.7659090909090909,
                "tempo": 120.0
            },
            {
                "start_time": 1.0022727272727272,
                "end_time": 1.7477272727272726,
                "pitch": 81,
                "velocity": 40,
                "duration": 0.7454545454545454,
                "tempo": 120.0
            },
            {
                "start_time": 1.7477272727272726,
                "end_time": 1.834090909090909,
                "pitch": 81,
                "velocity": 40,
                "duration": 0.08636363636363642,
                "tempo": 120.0
            },
            {
                "start_time": 1.834090909090909,
                "end_time": 2.495454545454545,
                "pitch": 83,
                "velocity": 40,
                "duration": 0.6613636363636362,
                "tempo": 120.0
            },
            {
                "start_time": 2.495454545454545,
                "end_time": 2.5636363636363635,
                "pitch": 79,
                "velocity": 40,
                "duration": 0.06818181818181834,
                "tempo": 120.0
            },
            {
                "start_time": 2.5636363636363635,
                "end_time": 2.6977272727272728,
                "pitch": 79,
                "velocity": 40,
                "duration": 0.13409090909090926,
                "tempo": 120.0
            },
            {
                "start_time": 2.6977272727272728,
                "end_time": 2.8318181818181816,
                "pitch": 79,
                "velocity": 40,
                "duration": 0.13409090909090882,
                "tempo": 120.0
            },
            {
                "start_time": 2.8318181818181816,
                "end_time": 2.965909090909091,
                "pitch": 79,
                "velocity": 40,
                "duration": 0.13409090909090926,
                "tempo": 120.0
            },
            {
                "start_time": 2.965909090909091,
                "end_time": 3.0999999999999996,
                "pitch": 79,
                "velocity": 40,
                "duration": 0.13409090909090882,
                "tempo": 120.0
            },
            {
                "start_time": 3.0999999999999996,
                "end_time": 3.2295454545454545,
                "pitch": 79,
                "velocity": 40,
                "duration": 0.12954545454545485,
                "tempo": 120.0
            },
            {
                "start_time": 3.2295454545454545,
                "end_time": 3.2613636363636362,
                "pitch": 79,
                "velocity": 40,
                "duration": 0.031818181818181746,
                "tempo": 120.0
            },
            {
                "start_time": 3.2613636363636362,
                "end_time": 4.004545454545454,
                "pitch": 79,
                "velocity": 40,
                "duration": 0.7431818181818177,
                "tempo": 120.0
            },
            {
                "start_time": 4.004545454545454,
                "end_time": 4.068181818181818,
                "pitch": 79,
                "velocity": 40,
                "duration": 0.06363636363636438,
                "tempo": 120.0
            },
            {
                "start_time": 4.068181818181818,
                "end_time": 4.2,
                "pitch": 79,
                "velocity": 40,
                "duration": 0.13181818181818183,
                "tempo": 120.0
            },
            {
                "start_time": 4.2,
                "end_time": 4.331818181818182,
                "pitch": 79,
                "velocity": 40,
                "duration": 0.13181818181818183,
                "tempo": 120.0
            },
            {
                "start_time": 4.331818181818182,
                "end_time": 4.465909090909091,
                "pitch": 79,
                "velocity": 40,
                "duration": 0.13409090909090882,
                "tempo": 120.0
            },
            {
                "start_time": 4.465909090909091,
                "end_time": 4.6,
                "pitch": 79,
                "velocity": 40,
                "duration": 0.13409090909090882,
                "tempo": 120.0
            },
            {
                "start_time": 4.6,
                "end_time": 4.7340909090909085,
                "pitch": 79,
                "velocity": 40,
                "duration": 0.13409090909090882,
                "tempo": 120.0
            },
            {
                "start_time": 4.7340909090909085,
                "end_time": 4.752272727272727,
                "pitch": 79,
                "velocity": 40,
                "duration": 0.01818181818181852,
                "tempo": 120.0
            },
            {
                "start_time": 4.752272727272727,
                "end_time": 4.836363636363636,
                "pitch": 79,
                "velocity": 40,
                "duration": 0.084090909090909,
                "tempo": 120.0
            },
            {
                "start_time": 4.836363636363636,
                "end_time": 6.236363636363636,
                "pitch": 81,
                "velocity": 40,
                "duration": 1.4000000000000004,
                "tempo": 120.0
            },
            {
                "start_time": 6.236363636363636,
                "end_time": 6.9795454545454545,
                "pitch": 84,
                "velocity": 40,
                "duration": 0.7431818181818182,
                "tempo": 120.0
            },
            {
                "start_time": 6.9795454545454545,
                "end_time": 7.75,
                "pitch": 84,
                "velocity": 40,
                "duration": 0.7704545454545455,
                "tempo": 120.0
            },
            {
                "start_time": 7.75,
                "end_time": 8.497727272727273,
                "pitch": 83,
                "velocity": 40,
                "duration": 0.747727272727273,
                "tempo": 120.0
            },
            {
                "start_time": 8.497727272727273,
                "end_time": 9.25,
                "pitch": 81,
                "velocity": 40,
                "duration": 0.752272727272727,
                "tempo": 120.0
            },
            {
                "start_time": 9.25,
                "end_time": 9.338636363636363,
                "pitch": 81,
                "velocity": 40,
                "duration": 0.08863636363636296,
                "tempo": 120.0
            },
            {
                "start_time": 9.338636363636363,
                "end_time": 10.36590909090909,
                "pitch": 83,
                "velocity": 40,
                "duration": 1.0272727272727273,
                "tempo": 120.0
            },
            {
                "start_time": 10.36590909090909,
                "end_time": 10.73181818181818,
                "pitch": 83,
                "velocity": 40,
                "duration": 0.3659090909090903,
                "tempo": 120.0
            },
            {
                "start_time": 10.73181818181818,
                "end_time": 11.854545454545454,
                "pitch": 81,
                "velocity": 40,
                "duration": 1.122727272727273,
                "tempo": 120.0
            },
            {
                "start_time": 11.854545454545454,
                "end_time": 12.23409090909091,
                "pitch": 81,
                "velocity": 40,
                "duration": 0.37954545454545574,
                "tempo": 120.0
            },
            {
                "start_time": 12.23409090909091,
                "end_time": 12.299999999999999,
                "pitch": 79,
                "velocity": 40,
                "duration": 0.06590909090908958,
                "tempo": 120.0
            },
            {
                "start_time": 12.299999999999999,
                "end_time": 12.429545454545455,
                "pitch": 79,
                "velocity": 40,
                "duration": 0.12954545454545574,
                "tempo": 120.0
            },
            {
                "start_time": 12.429545454545455,
                "end_time": 12.563636363636363,
                "pitch": 79,
                "velocity": 40,
                "duration": 0.13409090909090793,
                "tempo": 120.0
            },
            {
                "start_time": 12.563636363636363,
                "end_time": 12.697727272727272,
                "pitch": 79,
                "velocity": 40,
                "duration": 0.1340909090909097,
                "tempo": 120.0
            },
            {
                "start_time": 12.697727272727272,
                "end_time": 12.831818181818182,
                "pitch": 79,
                "velocity": 40,
                "duration": 0.1340909090909097,
                "tempo": 120.0
            },
            {
                "start_time": 12.831818181818182,
                "end_time": 12.961363636363636,
                "pitch": 79,
                "velocity": 40,
                "duration": 0.12954545454545396,
                "tempo": 120.0
            },
            {
                "start_time": 12.961363636363636,
                "end_time": 13.09090909090909,
                "pitch": 79,
                "velocity": 40,
                "duration": 0.12954545454545396,
                "tempo": 120.0
            },
            {
                "start_time": 13.09090909090909,
                "end_time": 13.222727272727273,
                "pitch": 79,
                "velocity": 40,
                "duration": 0.13181818181818272,
                "tempo": 120.0
            },
            {
                "start_time": 13.222727272727273,
                "end_time": 13.338636363636363,
                "pitch": 79,
                "velocity": 40,
                "duration": 0.1159090909090903,
                "tempo": 120.0
            },
            {
                "start_time": 13.338636363636363,
                "end_time": 13.725,
                "pitch": 79,
                "velocity": 40,
                "duration": 0.3863636363636367,
                "tempo": 120.0
            },
            {
                "start_time": 13.725,
                "end_time": 14.470454545454544,
                "pitch": 76,
                "velocity": 40,
                "duration": 0.7454545454545443,
                "tempo": 120.0
            },
            {
                "start_time": 14.470454545454544,
                "end_time": 15.213636363636363,
                "pitch": 84,
                "velocity": 40,
                "duration": 0.743181818181819,
                "tempo": 120.0
            },
            {
                "start_time": 15.213636363636363,
                "end_time": 16.727272727272727,
                "pitch": 84,
                "velocity": 40,
                "duration": 1.5136363636363637,
                "tempo": 120.0
            },
            {
                "start_time": 16.727272727272727,
                "end_time": 17.474999999999998,
                "pitch": 88,
                "velocity": 40,
                "duration": 0.7477272727272712,
                "tempo": 120.0
            },
            {
                "start_time": 17.474999999999998,
                "end_time": 17.854545454545455,
                "pitch": 83,
                "velocity": 40,
                "duration": 0.3795454545454575,
                "tempo": 120.0
            },
            {
                "start_time": 17.854545454545455,
                "end_time": 18.220454545454544,
                "pitch": 88,
                "velocity": 40,
                "duration": 0.3659090909090885,
                "tempo": 120.0
            },
            {
                "start_time": 18.220454545454544,
                "end_time": 19.702272727272728,
                "pitch": 86,
                "velocity": 40,
                "duration": 1.4818181818181841,
                "tempo": 120.0
            },
            {
                "start_time": 19.702272727272728,
                "end_time": 20.472727272727273,
                "pitch": 90,
                "velocity": 40,
                "duration": 0.7704545454545446,
                "tempo": 120.0
            },
            {
                "start_time": 20.472727272727273,
                "end_time": 21.224999999999998,
                "pitch": 86,
                "velocity": 40,
                "duration": 0.7522727272727252,
                "tempo": 120.0
            },
            {
                "start_time": 21.224999999999998,
                "end_time": 22.347727272727273,
                "pitch": 89,
                "velocity": 40,
                "duration": 1.1227272727272748,
                "tempo": 120.0
            },
            {
                "start_time": 22.347727272727273,
                "end_time": 22.709090909090907,
                "pitch": 89,
                "velocity": 40,
                "duration": 0.36136363636363455,
                "tempo": 120.0
            },
            {
                "start_time": 22.709090909090907,
                "end_time": 23.09090909090909,
                "pitch": 86,
                "velocity": 40,
                "duration": 0.3818181818181827,
                "tempo": 120.0
            },
            {
                "start_time": 23.09090909090909,
                "end_time": 23.452272727272724,
                "pitch": 84,
                "velocity": 40,
                "duration": 0.36136363636363455,
                "tempo": 120.0
            },
            {
                "start_time": 23.452272727272724,
                "end_time": 23.83863636363636,
                "pitch": 84,
                "velocity": 40,
                "duration": 0.3863636363636367,
                "tempo": 120.0
            },
            {
                "start_time": 23.83863636363636,
                "end_time": 24.21818181818182,
                "pitch": 81,
                "velocity": 40,
                "duration": 0.3795454545454575,
                "tempo": 120.0
            },
            {
                "start_time": 24.21818181818182,
                "end_time": 25.702272727272724,
                "pitch": 81,
                "velocity": 40,
                "duration": 1.4840909090909058,
                "tempo": 120.0
            },
            {
                "start_time": 25.702272727272724,
                "end_time": 25.720454545454544,
                "pitch": 83,
                "velocity": 40,
                "duration": 0.01818181818181941,
                "tempo": 120.0
            },
            {
                "start_time": 25.720454545454544,
                "end_time": 26.836363636363636,
                "pitch": 81,
                "velocity": 40,
                "duration": 1.115909090909092,
                "tempo": 120.0
            },
            {
                "start_time": 26.836363636363636,
                "end_time": 27.19772727272727,
                "pitch": 81,
                "velocity": 40,
                "duration": 0.36136363636363455,
                "tempo": 120.0
            },
            {
                "start_time": 27.19772727272727,
                "end_time": 28.71590909090909,
                "pitch": 84,
                "velocity": 40,
                "duration": 1.5181818181818194,
                "tempo": 120.0
            },
            {
                "start_time": 28.71590909090909,
                "end_time": 28.799999999999997,
                "pitch": 108,
                "velocity": 16,
                "duration": 0.08409090909090722,
                "tempo": 120.0
            },
            {
                "start_time": 28.799999999999997,
                "end_time": 28.9,
                "pitch": 108,
                "velocity": 16,
                "duration": 0.10000000000000142,
                "tempo": 120.0
            },
            {
                "start_time": 28.9,
                "end_time": 29.0,
                "pitch": 105,
                "velocity": 16,
                "duration": 0.10000000000000142,
                "tempo": 120.0
            },
            {
                "start_time": 29.0,
                "end_time": 29.063636363636363,
                "pitch": 103,
                "velocity": 16,
                "duration": 0.0636363636363626,
                "tempo": 120.0
            },
            {
                "start_time": 29.063636363636363,
                "end_time": 29.079545454545453,
                "pitch": 103,
                "velocity": 16,
                "duration": 0.01590909090909065,
                "tempo": 120.0
            },
            {
                "start_time": 29.079545454545453,
                "end_time": 29.177272727272726,
                "pitch": 102,
                "velocity": 16,
                "duration": 0.09772727272727266,
                "tempo": 120.0
            },
            {
                "start_time": 29.177272727272726,
                "end_time": 29.259090909090908,
                "pitch": 100,
                "velocity": 16,
                "duration": 0.08181818181818201,
                "tempo": 120.0
            },
            {
                "start_time": 29.259090909090908,
                "end_time": 29.35681818181818,
                "pitch": 98,
                "velocity": 16,
                "duration": 0.09772727272727266,
                "tempo": 120.0
            },
            {
                "start_time": 29.35681818181818,
                "end_time": 29.454545454545453,
                "pitch": 96,
                "velocity": 16,
                "duration": 0.09772727272727266,
                "tempo": 120.0
            },
            {
                "start_time": 29.454545454545453,
                "end_time": 29.534090909090907,
                "pitch": 96,
                "velocity": 16,
                "duration": 0.07954545454545325,
                "tempo": 120.0
            },
            {
                "start_time": 29.534090909090907,
                "end_time": 29.63181818181818,
                "pitch": 93,
                "velocity": 16,
                "duration": 0.09772727272727266,
                "tempo": 120.0
            },
            {
                "start_time": 29.63181818181818,
                "end_time": 29.69772727272727,
                "pitch": 91,
                "velocity": 16,
                "duration": 0.06590909090909136,
                "tempo": 120.0
            },
            {
                "start_time": 29.69772727272727,
                "end_time": 29.73181818181818,
                "pitch": 91,
                "velocity": 16,
                "duration": 0.03409090909091006,
                "tempo": 120.0
            },
            {
                "start_time": 29.73181818181818,
                "end_time": 29.815909090909088,
                "pitch": 90,
                "velocity": 16,
                "duration": 0.08409090909090722,
                "tempo": 120.0
            },
            {
                "start_time": 29.815909090909088,
                "end_time": 29.91590909090909,
                "pitch": 88,
                "velocity": 16,
                "duration": 0.10000000000000142,
                "tempo": 120.0
            },
            {
                "start_time": 29.91590909090909,
                "end_time": 30.01590909090909,
                "pitch": 86,
                "velocity": 16,
                "duration": 0.10000000000000142,
                "tempo": 120.0
            },
            {
                "start_time": 30.01590909090909,
                "end_time": 30.099999999999998,
                "pitch": 84,
                "velocity": 16,
                "duration": 0.08409090909090722,
                "tempo": 120.0
            },
            {
                "start_time": 30.099999999999998,
                "end_time": 30.202272727272724,
                "pitch": 84,
                "velocity": 16,
                "duration": 0.10227272727272663,
                "tempo": 120.0
            },
            {
                "start_time": 30.202272727272724,
                "end_time": 30.943181818181817,
                "pitch": 83,
                "velocity": 40,
                "duration": 0.7409090909090921,
                "tempo": 120.0
            },
            {
                "start_time": 30.943181818181817,
                "end_time": 31.061363636363634,
                "pitch": 81,
                "velocity": 40,
                "duration": 0.11818181818181728,
                "tempo": 120.0
            }
        ],
        "Vibraphone": [
            {
                "start_time": 0.35454545454545455,
                "end_time": 0.7477272727272727,
                "pitch": 47,
                "velocity": 40,
                "duration": 0.39318181818181813,
                "tempo": 120.0
            },
            {
                "start_time": 0.7477272727272727,
                "end_time": 1.1363636363636362,
                "pitch": 52,
                "velocity": 40,
                "duration": 0.38863636363636356,
                "tempo": 120.0
            },
            {
                "start_time": 1.1363636363636362,
                "end_time": 1.2022727272727272,
                "pitch": 55,
                "velocity": 40,
                "duration": 0.06590909090909092,
                "tempo": 120.0
            },
            {
                "start_time": 1.2022727272727272,
                "end_time": 1.268181818181818,
                "pitch": 55,
                "velocity": 40,
                "duration": 0.06590909090909092,
                "tempo": 120.0
            },
            {
                "start_time": 1.268181818181818,
                "end_time": 1.334090909090909,
                "pitch": 55,
                "velocity": 40,
                "duration": 0.06590909090909092,
                "tempo": 120.0
            },
            {
                "start_time": 1.334090909090909,
                "end_time": 1.3977272727272727,
                "pitch": 55,
                "velocity": 40,
                "duration": 0.06363636363636371,
                "tempo": 120.0
            },
            {
                "start_time": 1.3977272727272727,
                "end_time": 1.4636363636363636,
                "pitch": 55,
                "velocity": 40,
                "duration": 0.06590909090909092,
                "tempo": 120.0
            },
            {
                "start_time": 1.4636363636363636,
                "end_time": 1.4954545454545454,
                "pitch": 55,
                "velocity": 40,
                "duration": 0.031818181818181746,
                "tempo": 120.0
            },
            {
                "start_time": 1.4954545454545454,
                "end_time": 1.884090909090909,
                "pitch": 59,
                "velocity": 40,
                "duration": 0.38863636363636367,
                "tempo": 120.0
            },
            {
                "start_time": 1.884090909090909,
                "end_time": 1.9545454545454544,
                "pitch": 55,
                "velocity": 40,
                "duration": 0.07045454545454533,
                "tempo": 120.0
            },
            {
                "start_time": 1.9545454545454544,
                "end_time": 2.0204545454545455,
                "pitch": 55,
                "velocity": 40,
                "duration": 0.06590909090909114,
                "tempo": 120.0
            },
            {
                "start_time": 2.0204545454545455,
                "end_time": 2.0863636363636364,
                "pitch": 55,
                "velocity": 40,
                "duration": 0.06590909090909092,
                "tempo": 120.0
            },
            {
                "start_time": 2.0863636363636364,
                "end_time": 2.15,
                "pitch": 55,
                "velocity": 40,
                "duration": 0.06363636363636349,
                "tempo": 120.0
            },
            {
                "start_time": 2.15,
                "end_time": 2.215909090909091,
                "pitch": 55,
                "velocity": 40,
                "duration": 0.06590909090909092,
                "tempo": 120.0
            },
            {
                "start_time": 2.215909090909091,
                "end_time": 2.2477272727272726,
                "pitch": 55,
                "velocity": 40,
                "duration": 0.031818181818181746,
                "tempo": 120.0
            },
            {
                "start_time": 2.2477272727272726,
                "end_time": 2.6295454545454544,
                "pitch": 52,
                "velocity": 40,
                "duration": 0.38181818181818183,
                "tempo": 120.0
            },
            {
                "start_time": 2.6295454545454544,
                "end_time": 3.0159090909090907,
                "pitch": 48,
                "velocity": 40,
                "duration": 0.38636363636363624,
                "tempo": 120.0
            },
            {
                "start_time": 3.0159090909090907,
                "end_time": 3.375,
                "pitch": 52,
                "velocity": 40,
                "duration": 0.35909090909090935,
                "tempo": 120.0
            },
            {
                "start_time": 3.375,
                "end_time": 3.756818181818182,
                "pitch": 47,
                "velocity": 40,
                "duration": 0.38181818181818183,
                "tempo": 120.0
            },
            {
                "start_time": 3.756818181818182,
                "end_time": 4.118181818181818,
                "pitch": 50,
                "velocity": 40,
                "duration": 0.36136363636363633,
                "tempo": 120.0
            },
            {
                "start_time": 4.118181818181818,
                "end_time": 4.5,
                "pitch": 54,
                "velocity": 40,
                "duration": 0.38181818181818183,
                "tempo": 120.0
            },
            {
                "start_time": 4.5,
                "end_time": 4.868181818181818,
                "pitch": 57,
                "velocity": 40,
                "duration": 0.36818181818181817,
                "tempo": 120.0
            },
            {
                "start_time": 4.868181818181818,
                "end_time": 5.245454545454545,
                "pitch": 54,
                "velocity": 40,
                "duration": 0.377272727272727,
                "tempo": 120.0
            },
            {
                "start_time": 5.245454545454545,
                "end_time": 5.627272727272727,
                "pitch": 50,
                "velocity": 40,
                "duration": 0.38181818181818183,
                "tempo": 120.0
            },
            {
                "start_time": 5.627272727272727,
                "end_time": 5.988636363636363,
                "pitch": 47,
                "velocity": 40,
                "duration": 0.36136363636363633,
                "tempo": 120.0
            },
            {
                "start_time": 5.988636363636363,
                "end_time": 6.370454545454545,
                "pitch": 50,
                "velocity": 40,
                "duration": 0.38181818181818183,
                "tempo": 120.0
            },
            {
                "start_time": 6.370454545454545,
                "end_time": 6.7295454545454545,
                "pitch": 53,
                "velocity": 40,
                "duration": 0.35909090909090935,
                "tempo": 120.0
            },
            {
                "start_time": 6.7295454545454545,
                "end_time": 7.113636363636363,
                "pitch": 57,
                "velocity": 40,
                "duration": 0.3840909090909088,
                "tempo": 120.0
            },
            {
                "start_time": 7.113636363636363,
                "end_time": 7.504545454545454,
                "pitch": 60,
                "velocity": 40,
                "duration": 0.39090909090909065,
                "tempo": 120.0
            },
            {
                "start_time": 7.504545454545454,
                "end_time": 7.861363636363636,
                "pitch": 65,
                "velocity": 40,
                "duration": 0.35681818181818237,
                "tempo": 120.0
            },
            {
                "start_time": 7.861363636363636,
                "end_time": 8.247727272727273,
                "pitch": 60,
                "velocity": 40,
                "duration": 0.3863636363636367,
                "tempo": 120.0
            },
            {
                "start_time": 8.247727272727273,
                "end_time": 8.611363636363636,
                "pitch": 57,
                "velocity": 40,
                "duration": 0.3636363636363633,
                "tempo": 120.0
            },
            {
                "start_time": 8.611363636363636,
                "end_time": 8.993181818181817,
                "pitch": 53,
                "velocity": 40,
                "duration": 0.38181818181818095,
                "tempo": 120.0
            },
            {
                "start_time": 8.993181818181817,
                "end_time": 9.393181818181818,
                "pitch": 57,
                "velocity": 40,
                "duration": 0.40000000000000036,
                "tempo": 120.0
            },
            {
                "start_time": 9.393181818181818,
                "end_time": 9.743181818181817,
                "pitch": 50,
                "velocity": 40,
                "duration": 0.34999999999999964,
                "tempo": 120.0
            },
            {
                "start_time": 9.743181818181817,
                "end_time": 9.804545454545455,
                "pitch": 55,
                "velocity": 40,
                "duration": 0.0613636363636374,
                "tempo": 120.0
            },
            {
                "start_time": 9.804545454545455,
                "end_time": 9.868181818181817,
                "pitch": 55,
                "velocity": 40,
                "duration": 0.0636363636363626,
                "tempo": 120.0
            },
            {
                "start_time": 9.868181818181817,
                "end_time": 9.936363636363636,
                "pitch": 55,
                "velocity": 40,
                "duration": 0.06818181818181834,
                "tempo": 120.0
            },
            {
                "start_time": 9.936363636363636,
                "end_time": 10.002272727272727,
                "pitch": 55,
                "velocity": 40,
                "duration": 0.06590909090909136,
                "tempo": 120.0
            },
            {
                "start_time": 10.002272727272727,
                "end_time": 10.070454545454545,
                "pitch": 55,
                "velocity": 40,
                "duration": 0.06818181818181834,
                "tempo": 120.0
            },
            {
                "start_time": 10.070454545454545,
                "end_time": 10.120454545454544,
                "pitch": 55,
                "velocity": 40,
                "duration": 0.049999999999998934,
                "tempo": 120.0
            },
            {
                "start_time": 10.120454545454544,
                "end_time": 10.479545454545454,
                "pitch": 59,
                "velocity": 40,
                "duration": 0.35909090909090935,
                "tempo": 120.0
            },
            {
                "start_time": 10.479545454545454,
                "end_time": 10.868181818181817,
                "pitch": 62,
                "velocity": 40,
                "duration": 0.38863636363636367,
                "tempo": 120.0
            },
            {
                "start_time": 10.868181818181817,
                "end_time": 11.23181818181818,
                "pitch": 50,
                "velocity": 40,
                "duration": 0.3636363636363633,
                "tempo": 120.0
            },
            {
                "start_time": 11.23181818181818,
                "end_time": 11.60681818181818,
                "pitch": 53,
                "velocity": 40,
                "duration": 0.375,
                "tempo": 120.0
            },
            {
                "start_time": 11.60681818181818,
                "end_time": 11.988636363636363,
                "pitch": 57,
                "velocity": 40,
                "duration": 0.3818181818181827,
                "tempo": 120.0
            },
            {
                "start_time": 11.988636363636363,
                "end_time": 12.347727272727273,
                "pitch": 60,
                "velocity": 40,
                "duration": 0.35909090909090935,
                "tempo": 120.0
            },
            {
                "start_time": 12.347727272727273,
                "end_time": 12.729545454545454,
                "pitch": 48,
                "velocity": 40,
                "duration": 0.38181818181818095,
                "tempo": 120.0
            },
            {
                "start_time": 12.729545454545454,
                "end_time": 13.09090909090909,
                "pitch": 52,
                "velocity": 40,
                "duration": 0.36136363636363633,
                "tempo": 120.0
            },
            {
                "start_time": 13.09090909090909,
                "end_time": 13.154545454545454,
                "pitch": 55,
                "velocity": 40,
                "duration": 0.06363636363636438,
                "tempo": 120.0
            },
            {
                "start_time": 13.154545454545454,
                "end_time": 13.222727272727273,
                "pitch": 55,
                "velocity": 40,
                "duration": 0.06818181818181834,
                "tempo": 120.0
            },
            {
                "start_time": 13.222727272727273,
                "end_time": 13.288636363636362,
                "pitch": 55,
                "velocity": 40,
                "duration": 0.06590909090908958,
                "tempo": 120.0
            },
            {
                "start_time": 13.288636363636362,
                "end_time": 13.35681818181818,
                "pitch": 55,
                "velocity": 40,
                "duration": 0.06818181818181834,
                "tempo": 120.0
            },
            {
                "start_time": 13.35681818181818,
                "end_time": 13.422727272727272,
                "pitch": 55,
                "velocity": 40,
                "duration": 0.06590909090909136,
                "tempo": 120.0
            },
            {
                "start_time": 13.422727272727272,
                "end_time": 13.472727272727273,
                "pitch": 55,
                "velocity": 40,
                "duration": 0.05000000000000071,
                "tempo": 120.0
            },
            {
                "start_time": 13.472727272727273,
                "end_time": 13.859090909090908,
                "pitch": 60,
                "velocity": 40,
                "duration": 0.3863636363636349,
                "tempo": 120.0
            },
            {
                "start_time": 13.859090909090908,
                "end_time": 13.924999999999999,
                "pitch": 55,
                "velocity": 40,
                "duration": 0.06590909090909136,
                "tempo": 120.0
            },
            {
                "start_time": 13.924999999999999,
                "end_time": 13.99090909090909,
                "pitch": 55,
                "velocity": 40,
                "duration": 0.06590909090909136,
                "tempo": 120.0
            },
            {
                "start_time": 13.99090909090909,
                "end_time": 14.056818181818182,
                "pitch": 55,
                "velocity": 40,
                "duration": 0.06590909090909136,
                "tempo": 120.0
            },
            {
                "start_time": 14.056818181818182,
                "end_time": 14.120454545454544,
                "pitch": 55,
                "velocity": 40,
                "duration": 0.0636363636363626,
                "tempo": 120.0
            },
            {
                "start_time": 14.120454545454544,
                "end_time": 14.186363636363636,
                "pitch": 55,
                "velocity": 40,
                "duration": 0.06590909090909136,
                "tempo": 120.0
            },
            {
                "start_time": 14.186363636363636,
                "end_time": 14.218181818181817,
                "pitch": 55,
                "velocity": 40,
                "duration": 0.0318181818181813,
                "tempo": 120.0
            },
            {
                "start_time": 14.218181818181817,
                "end_time": 14.60681818181818,
                "pitch": 60,
                "velocity": 40,
                "duration": 0.38863636363636367,
                "tempo": 120.0
            },
            {
                "start_time": 14.60681818181818,
                "end_time": 14.963636363636363,
                "pitch": 64,
                "velocity": 40,
                "duration": 0.35681818181818237,
                "tempo": 120.0
            },
            {
                "start_time": 14.963636363636363,
                "end_time": 15.027272727272727,
                "pitch": 55,
                "velocity": 40,
                "duration": 0.06363636363636438,
                "tempo": 120.0
            },
            {
                "start_time": 15.027272727272727,
                "end_time": 15.093181818181817,
                "pitch": 55,
                "velocity": 40,
                "duration": 0.06590909090908958,
                "tempo": 120.0
            },
            {
                "start_time": 15.093181818181817,
                "end_time": 15.161363636363635,
                "pitch": 55,
                "velocity": 40,
                "duration": 0.06818181818181834,
                "tempo": 120.0
            },
            {
                "start_time": 15.161363636363635,
                "end_time": 15.229545454545454,
                "pitch": 55,
                "velocity": 40,
                "duration": 0.06818181818181834,
                "tempo": 120.0
            },
            {
                "start_time": 15.229545454545454,
                "end_time": 15.297727272727272,
                "pitch": 55,
                "velocity": 40,
                "duration": 0.06818181818181834,
                "tempo": 120.0
            },
            {
                "start_time": 15.297727272727272,
                "end_time": 15.35,
                "pitch": 55,
                "velocity": 40,
                "duration": 0.05227272727272769,
                "tempo": 120.0
            },
            {
                "start_time": 15.35,
                "end_time": 15.738636363636363,
                "pitch": 48,
                "velocity": 40,
                "duration": 0.38863636363636367,
                "tempo": 120.0
            },
            {
                "start_time": 15.738636363636363,
                "end_time": 16.097727272727273,
                "pitch": 52,
                "velocity": 40,
                "duration": 0.35909090909090935,
                "tempo": 120.0
            },
            {
                "start_time": 16.097727272727273,
                "end_time": 16.163636363636364,
                "pitch": 55,
                "velocity": 40,
                "duration": 0.06590909090909136,
                "tempo": 120.0
            },
            {
                "start_time": 16.163636363636364,
                "end_time": 16.229545454545455,
                "pitch": 55,
                "velocity": 40,
                "duration": 0.06590909090909136,
                "tempo": 120.0
            },
            {
                "start_time": 16.229545454545455,
                "end_time": 16.295454545454543,
                "pitch": 55,
                "velocity": 40,
                "duration": 0.06590909090908781,
                "tempo": 120.0
            },
            {
                "start_time": 16.295454545454543,
                "end_time": 16.363636363636363,
                "pitch": 55,
                "velocity": 40,
                "duration": 0.06818181818182012,
                "tempo": 120.0
            },
            {
                "start_time": 16.363636363636363,
                "end_time": 16.429545454545455,
                "pitch": 55,
                "velocity": 40,
                "duration": 0.06590909090909136,
                "tempo": 120.0
            },
            {
                "start_time": 16.429545454545455,
                "end_time": 16.48181818181818,
                "pitch": 55,
                "velocity": 40,
                "duration": 0.052272727272725916,
                "tempo": 120.0
            },
            {
                "start_time": 16.48181818181818,
                "end_time": 16.84090909090909,
                "pitch": 59,
                "velocity": 40,
                "duration": 0.35909090909090935,
                "tempo": 120.0
            },
            {
                "start_time": 16.84090909090909,
                "end_time": 16.90681818181818,
                "pitch": 55,
                "velocity": 40,
                "duration": 0.06590909090909136,
                "tempo": 120.0
            },
            {
                "start_time": 16.90681818181818,
                "end_time": 16.972727272727273,
                "pitch": 55,
                "velocity": 40,
                "duration": 0.06590909090909136,
                "tempo": 120.0
            },
            {
                "start_time": 16.972727272727273,
                "end_time": 17.038636363636364,
                "pitch": 55,
                "velocity": 40,
                "duration": 0.06590909090909136,
                "tempo": 120.0
            },
            {
                "start_time": 17.038636363636364,
                "end_time": 17.10681818181818,
                "pitch": 55,
                "velocity": 40,
                "duration": 0.06818181818181657,
                "tempo": 120.0
            },
            {
                "start_time": 17.10681818181818,
                "end_time": 17.172727272727272,
                "pitch": 55,
                "velocity": 40,
                "duration": 0.06590909090909136,
                "tempo": 120.0
            },
            {
                "start_time": 17.172727272727272,
                "end_time": 17.222727272727273,
                "pitch": 55,
                "velocity": 40,
                "duration": 0.05000000000000071,
                "tempo": 120.0
            },
            {
                "start_time": 17.222727272727273,
                "end_time": 17.59090909090909,
                "pitch": 52,
                "velocity": 40,
                "duration": 0.3681818181818173,
                "tempo": 120.0
            },
            {
                "start_time": 17.59090909090909,
                "end_time": 17.96818181818182,
                "pitch": 48,
                "velocity": 40,
                "duration": 0.37727272727272876,
                "tempo": 120.0
            },
            {
                "start_time": 17.96818181818182,
                "end_time": 18.35681818181818,
                "pitch": 52,
                "velocity": 40,
                "duration": 0.3886363636363619,
                "tempo": 120.0
            },
            {
                "start_time": 18.35681818181818,
                "end_time": 18.71363636363636,
                "pitch": 47,
                "velocity": 40,
                "duration": 0.3568181818181806,
                "tempo": 120.0
            },
            {
                "start_time": 18.71363636363636,
                "end_time": 19.09318181818182,
                "pitch": 50,
                "velocity": 40,
                "duration": 0.3795454545454575,
                "tempo": 120.0
            },
            {
                "start_time": 19.09318181818182,
                "end_time": 19.454545454545453,
                "pitch": 54,
                "velocity": 40,
                "duration": 0.36136363636363455,
                "tempo": 120.0
            },
            {
                "start_time": 19.454545454545453,
                "end_time": 19.836363636363636,
                "pitch": 57,
                "velocity": 40,
                "duration": 0.3818181818181827,
                "tempo": 120.0
            },
            {
                "start_time": 19.836363636363636,
                "end_time": 20.229545454545452,
                "pitch": 54,
                "velocity": 40,
                "duration": 0.39318181818181586,
                "tempo": 120.0
            },
            {
                "start_time": 20.229545454545452,
                "end_time": 20.584090909090907,
                "pitch": 50,
                "velocity": 40,
                "duration": 0.3545454545454554,
                "tempo": 120.0
            },
            {
                "start_time": 20.584090909090907,
                "end_time": 20.970454545454544,
                "pitch": 47,
                "velocity": 40,
                "duration": 0.3863636363636367,
                "tempo": 120.0
            },
            {
                "start_time": 20.970454545454544,
                "end_time": 21.34318181818182,
                "pitch": 50,
                "velocity": 40,
                "duration": 0.3727272727272748,
                "tempo": 120.0
            },
            {
                "start_time": 21.34318181818182,
                "end_time": 21.720454545454544,
                "pitch": 53,
                "velocity": 40,
                "duration": 0.3772727272727252,
                "tempo": 120.0
            },
            {
                "start_time": 21.720454545454544,
                "end_time": 22.102272727272727,
                "pitch": 57,
                "velocity": 40,
                "duration": 0.3818181818181827,
                "tempo": 120.0
            },
            {
                "start_time": 22.102272727272727,
                "end_time": 22.461363636363636,
                "pitch": 60,
                "velocity": 40,
                "duration": 0.35909090909090935,
                "tempo": 120.0
            },
            {
                "start_time": 22.461363636363636,
                "end_time": 22.84318181818182,
                "pitch": 65,
                "velocity": 40,
                "duration": 0.3818181818181827,
                "tempo": 120.0
            },
            {
                "start_time": 22.84318181818182,
                "end_time": 23.204545454545453,
                "pitch": 60,
                "velocity": 40,
                "duration": 0.36136363636363455,
                "tempo": 120.0
            },
            {
                "start_time": 23.204545454545453,
                "end_time": 23.586363636363636,
                "pitch": 57,
                "velocity": 40,
                "duration": 0.3818181818181827,
                "tempo": 120.0
            },
            {
                "start_time": 23.586363636363636,
                "end_time": 23.954545454545453,
                "pitch": 53,
                "velocity": 40,
                "duration": 0.3681818181818173,
                "tempo": 120.0
            },
            {
                "start_time": 23.954545454545453,
                "end_time": 24.331818181818182,
                "pitch": 57,
                "velocity": 40,
                "duration": 0.37727272727272876,
                "tempo": 120.0
            },
            {
                "start_time": 24.331818181818182,
                "end_time": 24.71363636363636,
                "pitch": 50,
                "velocity": 40,
                "duration": 0.38181818181817917,
                "tempo": 120.0
            },
            {
                "start_time": 24.71363636363636,
                "end_time": 24.78181818181818,
                "pitch": 55,
                "velocity": 40,
                "duration": 0.06818181818182012,
                "tempo": 120.0
            },
            {
                "start_time": 24.78181818181818,
                "end_time": 24.847727272727273,
                "pitch": 55,
                "velocity": 40,
                "duration": 0.06590909090909136,
                "tempo": 120.0
            },
            {
                "start_time": 24.847727272727273,
                "end_time": 24.911363636363635,
                "pitch": 55,
                "velocity": 40,
                "duration": 0.0636363636363626,
                "tempo": 120.0
            },
            {
                "start_time": 24.911363636363635,
                "end_time": 24.977272727272727,
                "pitch": 55,
                "velocity": 40,
                "duration": 0.06590909090909136,
                "tempo": 120.0
            },
            {
                "start_time": 24.977272727272727,
                "end_time": 25.04090909090909,
                "pitch": 55,
                "velocity": 40,
                "duration": 0.0636363636363626,
                "tempo": 120.0
            },
            {
                "start_time": 25.04090909090909,
                "end_time": 25.075,
                "pitch": 55,
                "velocity": 40,
                "duration": 0.03409090909091006,
                "tempo": 120.0
            },
            {
                "start_time": 25.075,
                "end_time": 25.456818181818182,
                "pitch": 59,
                "velocity": 40,
                "duration": 0.3818181818181827,
                "tempo": 120.0
            },
            {
                "start_time": 25.456818181818182,
                "end_time": 25.81590909090909,
                "pitch": 62,
                "velocity": 40,
                "duration": 0.35909090909090935,
                "tempo": 120.0
            },
            {
                "start_time": 25.81590909090909,
                "end_time": 26.2,
                "pitch": 50,
                "velocity": 40,
                "duration": 0.38409090909090793,
                "tempo": 120.0
            },
            {
                "start_time": 26.2,
                "end_time": 26.59090909090909,
                "pitch": 53,
                "velocity": 40,
                "duration": 0.39090909090909065,
                "tempo": 120.0
            },
            {
                "start_time": 26.59090909090909,
                "end_time": 26.94772727272727,
                "pitch": 57,
                "velocity": 40,
                "duration": 0.3568181818181806,
                "tempo": 120.0
            },
            {
                "start_time": 26.94772727272727,
                "end_time": 27.334090909090907,
                "pitch": 60,
                "velocity": 40,
                "duration": 0.3863636363636367,
                "tempo": 120.0
            },
            {
                "start_time": 27.334090909090907,
                "end_time": 27.69772727272727,
                "pitch": 48,
                "velocity": 40,
                "duration": 0.3636363636363633,
                "tempo": 120.0
            },
            {
                "start_time": 27.69772727272727,
                "end_time": 28.079545454545453,
                "pitch": 52,
                "velocity": 40,
                "duration": 0.3818181818181827,
                "tempo": 120.0
            },
            {
                "start_time": 28.079545454545453,
                "end_time": 28.145454545454545,
                "pitch": 55,
                "velocity": 40,
                "duration": 0.06590909090909136,
                "tempo": 120.0
            },
            {
                "start_time": 28.145454545454545,
                "end_time": 28.21363636363636,
                "pitch": 55,
                "velocity": 40,
                "duration": 0.06818181818181657,
                "tempo": 120.0
            },
            {
                "start_time": 28.21363636363636,
                "end_time": 28.279545454545453,
                "pitch": 55,
                "velocity": 40,
                "duration": 0.06590909090909136,
                "tempo": 120.0
            },
            {
                "start_time": 28.279545454545453,
                "end_time": 28.347727272727273,
                "pitch": 55,
                "velocity": 40,
                "duration": 0.06818181818182012,
                "tempo": 120.0
            },
            {
                "start_time": 28.347727272727273,
                "end_time": 28.413636363636364,
                "pitch": 55,
                "velocity": 40,
                "duration": 0.06590909090909136,
                "tempo": 120.0
            },
            {
                "start_time": 28.413636363636364,
                "end_time": 28.46363636363636,
                "pitch": 55,
                "velocity": 40,
                "duration": 0.04999999999999716,
                "tempo": 120.0
            },
            {
                "start_time": 28.46363636363636,
                "end_time": 28.834090909090907,
                "pitch": 60,
                "velocity": 40,
                "duration": 0.37045454545454604,
                "tempo": 120.0
            },
            {
                "start_time": 28.834090909090907,
                "end_time": 28.9,
                "pitch": 55,
                "velocity": 40,
                "duration": 0.06590909090909136,
                "tempo": 120.0
            },
            {
                "start_time": 28.9,
                "end_time": 28.96590909090909,
                "pitch": 55,
                "velocity": 40,
                "duration": 0.06590909090909136,
                "tempo": 120.0
            },
            {
                "start_time": 28.96590909090909,
                "end_time": 29.03181818181818,
                "pitch": 55,
                "velocity": 40,
                "duration": 0.06590909090909136,
                "tempo": 120.0
            },
            {
                "start_time": 29.03181818181818,
                "end_time": 29.095454545454544,
                "pitch": 55,
                "velocity": 40,
                "duration": 0.0636363636363626,
                "tempo": 120.0
            },
            {
                "start_time": 29.095454545454544,
                "end_time": 29.161363636363635,
                "pitch": 55,
                "velocity": 40,
                "duration": 0.06590909090909136,
                "tempo": 120.0
            },
            {
                "start_time": 29.161363636363635,
                "end_time": 29.209090909090907,
                "pitch": 55,
                "velocity": 40,
                "duration": 0.04772727272727195,
                "tempo": 120.0
            },
            {
                "start_time": 29.209090909090907,
                "end_time": 29.568181818181817,
                "pitch": 60,
                "velocity": 40,
                "duration": 0.35909090909090935,
                "tempo": 120.0
            },
            {
                "start_time": 29.568181818181817,
                "end_time": 29.95,
                "pitch": 64,
                "velocity": 40,
                "duration": 0.3818181818181827,
                "tempo": 120.0
            },
            {
                "start_time": 29.95,
                "end_time": 30.01590909090909,
                "pitch": 55,
                "velocity": 40,
                "duration": 0.06590909090909136,
                "tempo": 120.0
            },
            {
                "start_time": 30.01590909090909,
                "end_time": 30.084090909090907,
                "pitch": 55,
                "velocity": 40,
                "duration": 0.06818181818181657,
                "tempo": 120.0
            },
            {
                "start_time": 30.084090909090907,
                "end_time": 30.15,
                "pitch": 55,
                "velocity": 40,
                "duration": 0.06590909090909136,
                "tempo": 120.0
            },
            {
                "start_time": 30.15,
                "end_time": 30.218181818181815,
                "pitch": 55,
                "velocity": 40,
                "duration": 0.06818181818181657,
                "tempo": 120.0
            },
            {
                "start_time": 30.218181818181815,
                "end_time": 30.284090909090907,
                "pitch": 55,
                "velocity": 40,
                "duration": 0.06590909090909136,
                "tempo": 120.0
            },
            {
                "start_time": 30.284090909090907,
                "end_time": 30.318181818181817,
                "pitch": 55,
                "velocity": 40,
                "duration": 0.03409090909091006,
                "tempo": 120.0
            },
            {
                "start_time": 30.318181818181817,
                "end_time": 30.695454545454545,
                "pitch": 48,
                "velocity": 40,
                "duration": 0.37727272727272876,
                "tempo": 120.0
            },
            {
                "start_time": 30.695454545454545,
                "end_time": 31.061363636363634,
                "pitch": 52,
                "velocity": 40,
                "duration": 0.3659090909090885,
                "tempo": 120.0
            }
        ]
    }
}