{
    "track_id": "Golvellius - Valley of Doom (FM) - 25 - Final Cave",
    "mood": "sad",
    "instruments": {
        "Harpsichord": [
            {
                "start_time": 0.031818181818181815,
                "end_time": 0.1477272727272727,
                "pitch": 70,
                "velocity": 80,
                "duration": 0.11590909090909089,
                "tempo": 120.0
            },
            {
                "start_time": 0.1477272727272727,
                "end_time": 0.2477272727272727,
                "pitch": 73,
                "velocity": 80,
                "duration": 0.1,
                "tempo": 120.0
            },
            {
                "start_time": 0.2477272727272727,
                "end_time": 0.3659090909090909,
                "pitch": 76,
                "velocity": 80,
                "duration": 0.1181818181818182,
                "tempo": 120.0
            },
            {
                "start_time": 0.3659090909090909,
                "end_time": 0.4659090909090909,
                "pitch": 76,
                "velocity": 80,
                "duration": 0.09999999999999998,
                "tempo": 120.0
            },
            {
                "start_time": 0.4659090909090909,
                "end_time": 0.5863636363636363,
                "pitch": 70,
                "velocity": 64,
                "duration": 0.12045454545454543,
                "tempo": 120.0
            },
            {
                "start_time": 0.5863636363636363,
                "end_time": 0.6886363636363636,
                "pitch": 73,
                "velocity": 64,
                "duration": 0.10227272727272729,
                "tempo": 120.0
            },
            {
                "start_time": 0.6886363636363636,
                "end_time": 0.8090909090909091,
                "pitch": 76,
                "velocity": 64,
                "duration": 0.12045454545454548,
                "tempo": 120.0
            },
            {
                "start_time": 0.8090909090909091,
                "end_time": 0.9113636363636363,
                "pitch": 76,
                "velocity": 64,
                "duration": 0.10227272727272718,
                "tempo": 120.0
            },
            {
                "start_time": 0.9113636363636363,
                "end_time": 1.0272727272727271,
                "pitch": 70,
                "velocity": 51,
                "duration": 0.11590909090909085,
                "tempo": 120.0
            },
            {
                "start_time": 1.0272727272727271,
                "end_time": 1.1295454545454544,
                "pitch": 73,
                "velocity": 51,
                "duration": 0.10227272727272729,
                "tempo": 120.0
            },
            {
                "start_time": 1.1295454545454544,
                "end_time": 1.2295454545454545,
                "pitch": 76,
                "velocity": 51,
                "duration": 0.10000000000000009,
                "tempo": 120.0
            },
            {
                "start_time": 1.2295454545454545,
                "end_time": 1.3454545454545455,
                "pitch": 76,
                "velocity": 51,
                "duration": 0.11590909090909096,
                "tempo": 120.0
            },
            {
                "start_time": 1.3454545454545455,
                "end_time": 1.4454545454545453,
                "pitch": 70,
                "velocity": 40,
                "duration": 0.09999999999999987,
                "tempo": 120.0
            },
            {
                "start_time": 1.4454545454545453,
                "end_time": 1.5636363636363635,
                "pitch": 73,
                "velocity": 40,
                "duration": 0.11818181818181817,
                "tempo": 120.0
            },
            {
                "start_time": 1.5636363636363635,
                "end_time": 1.6636363636363636,
                "pitch": 76,
                "velocity": 40,
                "duration": 0.10000000000000009,
                "tempo": 120.0
            },
            {
                "start_time": 1.6636363636363636,
                "end_time": 1.7818181818181817,
                "pitch": 76,
                "velocity": 40,
                "duration": 0.11818181818181817,
                "tempo": 120.0
            },
            {
                "start_time": 1.7818181818181817,
                "end_time": 1.884090909090909,
                "pitch": 70,
                "velocity": 32,
                "duration": 0.10227272727272729,
                "tempo": 120.0
            },
            {
                "start_time": 1.884090909090909,
                "end_time": 2.002272727272727,
                "pitch": 73,
                "velocity": 32,
                "duration": 0.11818181818181794,
                "tempo": 120.0
            },
            {
                "start_time": 2.002272727272727,
                "end_time": 2.106818181818182,
                "pitch": 76,
                "velocity": 32,
                "duration": 0.10454545454545494,
                "tempo": 120.0
            },
            {
                "start_time": 2.106818181818182,
                "end_time": 2.225,
                "pitch": 76,
                "velocity": 32,
                "duration": 0.11818181818181817,
                "tempo": 120.0
            },
            {
                "start_time": 2.225,
                "end_time": 2.243181818181818,
                "pitch": 77,
                "velocity": 25,
                "duration": 0.018181818181818077,
                "tempo": 120.0
            },
            {
                "start_time": 2.243181818181818,
                "end_time": 2.3295454545454546,
                "pitch": 70,
                "velocity": 25,
                "duration": 0.08636363636363642,
                "tempo": 120.0
            },
            {
                "start_time": 2.3295454545454546,
                "end_time": 2.434090909090909,
                "pitch": 73,
                "velocity": 25,
                "duration": 0.1045454545454545,
                "tempo": 120.0
            },
            {
                "start_time": 2.434090909090909,
                "end_time": 2.5568181818181817,
                "pitch": 76,
                "velocity": 25,
                "duration": 0.12272727272727257,
                "tempo": 120.0
            },
            {
                "start_time": 2.5568181818181817,
                "end_time": 2.6795454545454542,
                "pitch": 76,
                "velocity": 25,
                "duration": 0.12272727272727257,
                "tempo": 120.0
            },
            {
                "start_time": 2.6795454545454542,
                "end_time": 2.775,
                "pitch": 70,
                "velocity": 20,
                "duration": 0.09545454545454568,
                "tempo": 120.0
            },
            {
                "start_time": 2.775,
                "end_time": 2.870454545454545,
                "pitch": 73,
                "velocity": 20,
                "duration": 0.09545454545454524,
                "tempo": 120.0
            },
            {
                "start_time": 2.870454545454545,
                "end_time": 2.9818181818181815,
                "pitch": 76,
                "velocity": 20,
                "duration": 0.11136363636363633,
                "tempo": 120.0
            },
            {
                "start_time": 2.9818181818181815,
                "end_time": 3.077272727272727,
                "pitch": 76,
                "velocity": 20,
                "duration": 0.09545454545454568,
                "tempo": 120.0
            },
            {
                "start_time": 3.077272727272727,
                "end_time": 3.1954545454545453,
                "pitch": 70,
                "velocity": 16,
                "duration": 0.11818181818181817,
                "tempo": 120.0
            },
            {
                "start_time": 3.1954545454545453,
                "end_time": 3.2977272727272724,
                "pitch": 73,
                "velocity": 16,
                "duration": 0.10227272727272707,
                "tempo": 120.0
            },
            {
                "start_time": 3.2977272727272724,
                "end_time": 3.418181818181818,
                "pitch": 76,
                "velocity": 16,
                "duration": 0.12045454545454559,
                "tempo": 120.0
            },
            {
                "start_time": 3.418181818181818,
                "end_time": 3.5386363636363636,
                "pitch": 76,
                "velocity": 16,
                "duration": 0.12045454545454559,
                "tempo": 120.0
            },
            {
                "start_time": 3.5386363636363636,
                "end_time": 5.227272727272727,
                "pitch": 65,
                "velocity": 80,
                "duration": 1.688636363636363,
                "tempo": 120.0
            },
            {
                "start_time": 5.227272727272727,
                "end_time": 5.511363636363636,
                "pitch": 65,
                "velocity": 80,
                "duration": 0.28409090909090917,
                "tempo": 120.0
            },
            {
                "start_time": 5.511363636363636,
                "end_time": 5.8159090909090905,
                "pitch": 61,
                "velocity": 80,
                "duration": 0.3045454545454547,
                "tempo": 120.0
            },
            {
                "start_time": 5.8159090909090905,
                "end_time": 6.1068181818181815,
                "pitch": 58,
                "velocity": 80,
                "duration": 0.290909090909091,
                "tempo": 120.0
            },
            {
                "start_time": 6.1068181818181815,
                "end_time": 6.552272727272727,
                "pitch": 61,
                "velocity": 80,
                "duration": 0.4454545454545453,
                "tempo": 120.0
            },
            {
                "start_time": 6.552272727272727,
                "end_time": 6.986363636363636,
                "pitch": 64,
                "velocity": 80,
                "duration": 0.4340909090909095,
                "tempo": 120.0
            },
            {
                "start_time": 6.986363636363636,
                "end_time": 8.7,
                "pitch": 64,
                "velocity": 80,
                "duration": 1.713636363636363,
                "tempo": 120.0
            },
            {
                "start_time": 8.7,
                "end_time": 8.986363636363636,
                "pitch": 65,
                "velocity": 80,
                "duration": 0.28636363636363704,
                "tempo": 120.0
            },
            {
                "start_time": 8.986363636363636,
                "end_time": 9.272727272727272,
                "pitch": 61,
                "velocity": 80,
                "duration": 0.28636363636363527,
                "tempo": 120.0
            },
            {
                "start_time": 9.272727272727272,
                "end_time": 9.563636363636363,
                "pitch": 58,
                "velocity": 80,
                "duration": 0.290909090909091,
                "tempo": 120.0
            },
            {
                "start_time": 9.563636363636363,
                "end_time": 9.988636363636363,
                "pitch": 61,
                "velocity": 80,
                "duration": 0.4250000000000007,
                "tempo": 120.0
            },
            {
                "start_time": 9.988636363636363,
                "end_time": 10.424999999999999,
                "pitch": 64,
                "velocity": 80,
                "duration": 0.4363636363636356,
                "tempo": 120.0
            },
            {
                "start_time": 10.424999999999999,
                "end_time": 12.156818181818181,
                "pitch": 58,
                "velocity": 80,
                "duration": 1.7318181818181824,
                "tempo": 120.0
            },
            {
                "start_time": 12.156818181818181,
                "end_time": 12.452272727272726,
                "pitch": 65,
                "velocity": 80,
                "duration": 0.29545454545454497,
                "tempo": 120.0
            },
            {
                "start_time": 12.452272727272726,
                "end_time": 12.73409090909091,
                "pitch": 65,
                "velocity": 80,
                "duration": 0.2818181818181831,
                "tempo": 120.0
            },
            {
                "start_time": 12.73409090909091,
                "end_time": 13.018181818181818,
                "pitch": 61,
                "velocity": 80,
                "duration": 0.2840909090909083,
                "tempo": 120.0
            },
            {
                "start_time": 13.018181818181818,
                "end_time": 13.463636363636363,
                "pitch": 64,
                "velocity": 80,
                "duration": 0.4454545454545453,
                "tempo": 120.0
            },
            {
                "start_time": 13.463636363636363,
                "end_time": 13.897727272727272,
                "pitch": 68,
                "velocity": 80,
                "duration": 0.43409090909090864,
                "tempo": 120.0
            },
            {
                "start_time": 13.897727272727272,
                "end_time": 15.613636363636363,
                "pitch": 68,
                "velocity": 80,
                "duration": 1.7159090909090917,
                "tempo": 120.0
            },
            {
                "start_time": 15.613636363636363,
                "end_time": 15.897727272727272,
                "pitch": 73,
                "velocity": 80,
                "duration": 0.2840909090909083,
                "tempo": 120.0
            },
            {
                "start_time": 15.897727272727272,
                "end_time": 16.18409090909091,
                "pitch": 76,
                "velocity": 80,
                "duration": 0.28636363636363704,
                "tempo": 120.0
            },
            {
                "start_time": 16.18409090909091,
                "end_time": 16.474999999999998,
                "pitch": 76,
                "velocity": 80,
                "duration": 0.29090909090908923,
                "tempo": 120.0
            },
            {
                "start_time": 16.474999999999998,
                "end_time": 16.902272727272727,
                "pitch": 77,
                "velocity": 80,
                "duration": 0.42727272727272947,
                "tempo": 120.0
            },
            {
                "start_time": 16.902272727272727,
                "end_time": 17.336363636363636,
                "pitch": 73,
                "velocity": 80,
                "duration": 0.43409090909090864,
                "tempo": 120.0
            },
            {
                "start_time": 17.336363636363636,
                "end_time": 17.627272727272725,
                "pitch": 82,
                "velocity": 80,
                "duration": 0.29090909090908923,
                "tempo": 120.0
            },
            {
                "start_time": 17.627272727272725,
                "end_time": 17.93181818181818,
                "pitch": 82,
                "velocity": 80,
                "duration": 0.3045454545454547,
                "tempo": 120.0
            },
            {
                "start_time": 17.93181818181818,
                "end_time": 18.21590909090909,
                "pitch": 77,
                "velocity": 80,
                "duration": 0.28409090909091006,
                "tempo": 120.0
            },
            {
                "start_time": 18.21590909090909,
                "end_time": 18.5,
                "pitch": 77,
                "velocity": 80,
                "duration": 0.28409090909091006,
                "tempo": 120.0
            },
            {
                "start_time": 18.5,
                "end_time": 18.784090909090907,
                "pitch": 73,
                "velocity": 80,
                "duration": 0.2840909090909065,
                "tempo": 120.0
            },
            {
                "start_time": 18.784090909090907,
                "end_time": 19.070454545454545,
                "pitch": 70,
                "velocity": 80,
                "duration": 0.2863636363636388,
                "tempo": 120.0
            },
            {
                "start_time": 19.070454545454545,
                "end_time": 20.80909090909091,
                "pitch": 70,
                "velocity": 80,
                "duration": 1.7386363636363633,
                "tempo": 120.0
            },
            {
                "start_time": 20.80909090909091,
                "end_time": 20.911363636363635,
                "pitch": 70,
                "velocity": 80,
                "duration": 0.10227272727272663,
                "tempo": 120.0
            },
            {
                "start_time": 20.911363636363635,
                "end_time": 21.027272727272727,
                "pitch": 73,
                "velocity": 80,
                "duration": 0.11590909090909207,
                "tempo": 120.0
            },
            {
                "start_time": 21.027272727272727,
                "end_time": 21.127272727272725,
                "pitch": 76,
                "velocity": 80,
                "duration": 0.09999999999999787,
                "tempo": 120.0
            },
            {
                "start_time": 21.127272727272725,
                "end_time": 21.229545454545452,
                "pitch": 76,
                "velocity": 80,
                "duration": 0.10227272727272663,
                "tempo": 120.0
            },
            {
                "start_time": 21.229545454545452,
                "end_time": 21.34318181818182,
                "pitch": 70,
                "velocity": 64,
                "duration": 0.11363636363636687,
                "tempo": 120.0
            },
            {
                "start_time": 21.34318181818182,
                "end_time": 21.44090909090909,
                "pitch": 73,
                "velocity": 64,
                "duration": 0.09772727272727266,
                "tempo": 120.0
            },
            {
                "start_time": 21.44090909090909,
                "end_time": 21.55681818181818,
                "pitch": 76,
                "velocity": 64,
                "duration": 0.11590909090908852,
                "tempo": 120.0
            },
            {
                "start_time": 21.55681818181818,
                "end_time": 21.654545454545453,
                "pitch": 76,
                "velocity": 64,
                "duration": 0.09772727272727266,
                "tempo": 120.0
            },
            {
                "start_time": 21.654545454545453,
                "end_time": 21.770454545454545,
                "pitch": 70,
                "velocity": 51,
                "duration": 0.11590909090909207,
                "tempo": 120.0
            },
            {
                "start_time": 21.770454545454545,
                "end_time": 21.87272727272727,
                "pitch": 73,
                "velocity": 51,
                "duration": 0.10227272727272663,
                "tempo": 120.0
            }
        ]
    }
}