{
    "track_id": "Golvellius - Valley of Doom (FM) - 05 - Old Woman",
    "mood": "sad",
    "instruments": {
        "French Horn": [
            {
                "start_time": 0.22954545454545452,
                "end_time": 0.4636363636363636,
                "pitch": 50,
                "velocity": 40,
                "duration": 0.2340909090909091,
                "tempo": 120.0
            },
            {
                "start_time": 0.4636363636363636,
                "end_time": 0.5295454545454545,
                "pitch": 55,
                "velocity": 40,
                "duration": 0.06590909090909092,
                "tempo": 120.0
            },
            {
                "start_time": 0.5295454545454545,
                "end_time": 0.6,
                "pitch": 55,
                "velocity": 40,
                "duration": 0.07045454545454544,
                "tempo": 120.0
            },
            {
                "start_time": 0.6,
                "end_time": 0.6681818181818181,
                "pitch": 55,
                "velocity": 40,
                "duration": 0.06818181818181812,
                "tempo": 120.0
            },
            {
                "start_time": 0.6681818181818181,
                "end_time": 0.7204545454545455,
                "pitch": 55,
                "velocity": 40,
                "duration": 0.05227272727272736,
                "tempo": 120.0
            },
            {
                "start_time": 0.7204545454545455,
                "end_time": 0.8090909090909091,
                "pitch": 55,
                "velocity": 40,
                "duration": 0.08863636363636362,
                "tempo": 120.0
            },
            {
                "start_time": 0.8090909090909091,
                "end_time": 0.9818181818181818,
                "pitch": 57,
                "velocity": 40,
                "duration": 0.17272727272727273,
                "tempo": 120.0
            },
            {
                "start_time": 0.9818181818181818,
                "end_time": 1.2204545454545455,
                "pitch": 62,
                "velocity": 40,
                "duration": 0.23863636363636365,
                "tempo": 120.0
            },
            {
                "start_time": 1.2204545454545455,
                "end_time": 1.4704545454545455,
                "pitch": 60,
                "velocity": 40,
                "duration": 0.25,
                "tempo": 120.0
            },
            {
                "start_time": 1.4704545454545455,
                "end_time": 1.7,
                "pitch": 60,
                "velocity": 40,
                "duration": 0.2295454545454545,
                "tempo": 120.0
            },
            {
                "start_time": 1.7,
                "end_time": 1.9454545454545453,
                "pitch": 50,
                "velocity": 40,
                "duration": 0.24545454545454537,
                "tempo": 120.0
            },
            {
                "start_time": 1.9454545454545453,
                "end_time": 2.0113636363636362,
                "pitch": 55,
                "velocity": 40,
                "duration": 0.06590909090909092,
                "tempo": 120.0
            },
            {
                "start_time": 2.0113636363636362,
                "end_time": 2.077272727272727,
                "pitch": 55,
                "velocity": 40,
                "duration": 0.06590909090909092,
                "tempo": 120.0
            },
            {
                "start_time": 2.077272727272727,
                "end_time": 2.1409090909090907,
                "pitch": 55,
                "velocity": 40,
                "duration": 0.06363636363636349,
                "tempo": 120.0
            },
            {
                "start_time": 2.1409090909090907,
                "end_time": 2.190909090909091,
                "pitch": 55,
                "velocity": 40,
                "duration": 0.050000000000000266,
                "tempo": 120.0
            },
            {
                "start_time": 2.190909090909091,
                "end_time": 2.2727272727272725,
                "pitch": 55,
                "velocity": 40,
                "duration": 0.08181818181818157,
                "tempo": 120.0
            },
            {
                "start_time": 2.2727272727272725,
                "end_time": 2.418181818181818,
                "pitch": 57,
                "velocity": 40,
                "duration": 0.1454545454545455,
                "tempo": 120.0
            },
            {
                "start_time": 2.418181818181818,
                "end_time": 2.675,
                "pitch": 62,
                "velocity": 40,
                "duration": 0.25681818181818183,
                "tempo": 120.0
            },
            {
                "start_time": 2.675,
                "end_time": 2.936363636363636,
                "pitch": 60,
                "velocity": 40,
                "duration": 0.26136363636363624,
                "tempo": 120.0
            },
            {
                "start_time": 2.936363636363636,
                "end_time": 3.1704545454545454,
                "pitch": 60,
                "velocity": 40,
                "duration": 0.23409090909090935,
                "tempo": 120.0
            },
            {
                "start_time": 3.1704545454545454,
                "end_time": 3.4136363636363636,
                "pitch": 50,
                "velocity": 40,
                "duration": 0.24318181818181817,
                "tempo": 120.0
            },
            {
                "start_time": 3.4136363636363636,
                "end_time": 3.6477272727272725,
                "pitch": 54,
                "velocity": 40,
                "duration": 0.2340909090909089,
                "tempo": 120.0
            },
            {
                "start_time": 3.6477272727272725,
                "end_time": 3.7136363636363634,
                "pitch": 53,
                "velocity": 40,
                "duration": 0.06590909090909092,
                "tempo": 120.0
            },
            {
                "start_time": 3.7136363636363634,
                "end_time": 3.7818181818181817,
                "pitch": 55,
                "velocity": 40,
                "duration": 0.06818181818181834,
                "tempo": 120.0
            },
            {
                "start_time": 3.7818181818181817,
                "end_time": 3.8477272727272727,
                "pitch": 55,
                "velocity": 40,
                "duration": 0.06590909090909092,
                "tempo": 120.0
            },
            {
                "start_time": 3.8477272727272727,
                "end_time": 3.8977272727272725,
                "pitch": 55,
                "velocity": 40,
                "duration": 0.04999999999999982,
                "tempo": 120.0
            },
            {
                "start_time": 3.8977272727272725,
                "end_time": 4.152272727272727,
                "pitch": 60,
                "velocity": 40,
                "duration": 0.25454545454545485,
                "tempo": 120.0
            },
            {
                "start_time": 4.152272727272727,
                "end_time": 4.388636363636364,
                "pitch": 60,
                "velocity": 40,
                "duration": 0.23636363636363633,
                "tempo": 120.0
            },
            {
                "start_time": 4.388636363636364,
                "end_time": 4.640909090909091,
                "pitch": 57,
                "velocity": 40,
                "duration": 0.252272727272727,
                "tempo": 120.0
            },
            {
                "start_time": 4.640909090909091,
                "end_time": 4.893181818181818,
                "pitch": 50,
                "velocity": 40,
                "duration": 0.252272727272727,
                "tempo": 120.0
            },
            {
                "start_time": 4.893181818181818,
                "end_time": 5.120454545454545,
                "pitch": 54,
                "velocity": 40,
                "duration": 0.22727272727272751,
                "tempo": 120.0
            },
            {
                "start_time": 5.120454545454545,
                "end_time": 5.184090909090909,
                "pitch": 53,
                "velocity": 40,
                "duration": 0.06363636363636349,
                "tempo": 120.0
            },
            {
                "start_time": 5.184090909090909,
                "end_time": 5.25,
                "pitch": 55,
                "velocity": 40,
                "duration": 0.06590909090909136,
                "tempo": 120.0
            },
            {
                "start_time": 5.25,
                "end_time": 5.3136363636363635,
                "pitch": 55,
                "velocity": 40,
                "duration": 0.06363636363636349,
                "tempo": 120.0
            },
            {
                "start_time": 5.3136363636363635,
                "end_time": 5.361363636363636,
                "pitch": 55,
                "velocity": 40,
                "duration": 0.04772727272727284,
                "tempo": 120.0
            },
            {
                "start_time": 5.361363636363636,
                "end_time": 5.611363636363636,
                "pitch": 60,
                "velocity": 40,
                "duration": 0.25,
                "tempo": 120.0
            },
            {
                "start_time": 5.611363636363636,
                "end_time": 5.85,
                "pitch": 60,
                "velocity": 40,
                "duration": 0.2386363636363633,
                "tempo": 120.0
            },
            {
                "start_time": 5.85,
                "end_time": 6.1,
                "pitch": 57,
                "velocity": 40,
                "duration": 0.25,
                "tempo": 120.0
            },
            {
                "start_time": 6.1,
                "end_time": 6.329545454545454,
                "pitch": 52,
                "velocity": 40,
                "duration": 0.2295454545454545,
                "tempo": 120.0
            },
            {
                "start_time": 6.329545454545454,
                "end_time": 6.579545454545454,
                "pitch": 57,
                "velocity": 40,
                "duration": 0.25,
                "tempo": 120.0
            },
            {
                "start_time": 6.579545454545454,
                "end_time": 6.663636363636363,
                "pitch": 57,
                "velocity": 40,
                "duration": 0.084090909090909,
                "tempo": 120.0
            },
            {
                "start_time": 6.663636363636363,
                "end_time": 6.829545454545454,
                "pitch": 59,
                "velocity": 40,
                "duration": 0.165909090909091,
                "tempo": 120.0
            },
            {
                "start_time": 6.829545454545454,
                "end_time": 7.061363636363636,
                "pitch": 64,
                "velocity": 40,
                "duration": 0.23181818181818148,
                "tempo": 120.0
            },
            {
                "start_time": 7.061363636363636,
                "end_time": 7.304545454545454,
                "pitch": 62,
                "velocity": 40,
                "duration": 0.24318181818181817,
                "tempo": 120.0
            },
            {
                "start_time": 7.304545454545454,
                "end_time": 7.552272727272727,
                "pitch": 62,
                "velocity": 40,
                "duration": 0.24772727272727302,
                "tempo": 120.0
            },
            {
                "start_time": 7.552272727272727,
                "end_time": 7.781818181818181,
                "pitch": 52,
                "velocity": 40,
                "duration": 0.2295454545454545,
                "tempo": 120.0
            },
            {
                "start_time": 7.781818181818181,
                "end_time": 8.034090909090908,
                "pitch": 57,
                "velocity": 40,
                "duration": 0.252272727272727,
                "tempo": 120.0
            },
            {
                "start_time": 8.034090909090908,
                "end_time": 8.120454545454544,
                "pitch": 57,
                "velocity": 40,
                "duration": 0.08636363636363598,
                "tempo": 120.0
            },
            {
                "start_time": 8.120454545454544,
                "end_time": 8.272727272727272,
                "pitch": 59,
                "velocity": 40,
                "duration": 0.15227272727272734,
                "tempo": 120.0
            },
            {
                "start_time": 8.272727272727272,
                "end_time": 8.511363636363637,
                "pitch": 64,
                "velocity": 40,
                "duration": 0.2386363636363651,
                "tempo": 120.0
            },
            {
                "start_time": 8.511363636363637,
                "end_time": 8.747727272727273,
                "pitch": 62,
                "velocity": 40,
                "duration": 0.23636363636363633,
                "tempo": 120.0
            },
            {
                "start_time": 8.747727272727273,
                "end_time": 8.986363636363636,
                "pitch": 62,
                "velocity": 40,
                "duration": 0.2386363636363633,
                "tempo": 120.0
            },
            {
                "start_time": 8.986363636363636,
                "end_time": 9.054545454545455,
                "pitch": 55,
                "velocity": 40,
                "duration": 0.06818181818181834,
                "tempo": 120.0
            },
            {
                "start_time": 9.054545454545455,
                "end_time": 9.125,
                "pitch": 55,
                "velocity": 40,
                "duration": 0.07045454545454533,
                "tempo": 120.0
            },
            {
                "start_time": 9.125,
                "end_time": 9.195454545454545,
                "pitch": 55,
                "velocity": 40,
                "duration": 0.07045454545454533,
                "tempo": 120.0
            },
            {
                "start_time": 9.195454545454545,
                "end_time": 9.247727272727273,
                "pitch": 55,
                "velocity": 40,
                "duration": 0.05227272727272769,
                "tempo": 120.0
            },
            {
                "start_time": 9.247727272727273,
                "end_time": 9.5,
                "pitch": 50,
                "velocity": 40,
                "duration": 0.252272727272727,
                "tempo": 120.0
            },
            {
                "start_time": 9.5,
                "end_time": 9.568181818181818,
                "pitch": 55,
                "velocity": 40,
                "duration": 0.06818181818181834,
                "tempo": 120.0
            },
            {
                "start_time": 9.568181818181818,
                "end_time": 9.634090909090908,
                "pitch": 55,
                "velocity": 40,
                "duration": 0.06590909090908958,
                "tempo": 120.0
            },
            {
                "start_time": 9.634090909090908,
                "end_time": 9.702272727272726,
                "pitch": 55,
                "velocity": 40,
                "duration": 0.06818181818181834,
                "tempo": 120.0
            },
            {
                "start_time": 9.702272727272726,
                "end_time": 9.73409090909091,
                "pitch": 55,
                "velocity": 40,
                "duration": 0.03181818181818308,
                "tempo": 120.0
            },
            {
                "start_time": 9.73409090909091,
                "end_time": 9.98409090909091,
                "pitch": 50,
                "velocity": 40,
                "duration": 0.25,
                "tempo": 120.0
            },
            {
                "start_time": 9.98409090909091,
                "end_time": 10.049999999999999,
                "pitch": 55,
                "velocity": 40,
                "duration": 0.06590909090908958,
                "tempo": 120.0
            },
            {
                "start_time": 10.049999999999999,
                "end_time": 10.113636363636363,
                "pitch": 55,
                "velocity": 40,
                "duration": 0.06363636363636438,
                "tempo": 120.0
            },
            {
                "start_time": 10.113636363636363,
                "end_time": 10.179545454545455,
                "pitch": 55,
                "velocity": 40,
                "duration": 0.06590909090909136,
                "tempo": 120.0
            },
            {
                "start_time": 10.179545454545455,
                "end_time": 10.213636363636363,
                "pitch": 55,
                "velocity": 40,
                "duration": 0.034090909090908283,
                "tempo": 120.0
            },
            {
                "start_time": 10.213636363636363,
                "end_time": 10.46590909090909,
                "pitch": 50,
                "velocity": 40,
                "duration": 0.252272727272727,
                "tempo": 120.0
            },
            {
                "start_time": 10.46590909090909,
                "end_time": 10.534090909090908,
                "pitch": 55,
                "velocity": 40,
                "duration": 0.06818181818181834,
                "tempo": 120.0
            },
            {
                "start_time": 10.534090909090908,
                "end_time": 10.602272727272727,
                "pitch": 55,
                "velocity": 40,
                "duration": 0.06818181818181834,
                "tempo": 120.0
            },
            {
                "start_time": 10.602272727272727,
                "end_time": 10.670454545454545,
                "pitch": 55,
                "velocity": 40,
                "duration": 0.06818181818181834,
                "tempo": 120.0
            },
            {
                "start_time": 10.670454545454545,
                "end_time": 10.720454545454546,
                "pitch": 55,
                "velocity": 40,
                "duration": 0.05000000000000071,
                "tempo": 120.0
            },
            {
                "start_time": 10.720454545454546,
                "end_time": 10.804545454545455,
                "pitch": 55,
                "velocity": 40,
                "duration": 0.084090909090909,
                "tempo": 120.0
            },
            {
                "start_time": 10.804545454545455,
                "end_time": 10.952272727272726,
                "pitch": 57,
                "velocity": 40,
                "duration": 0.1477272727272716,
                "tempo": 120.0
            },
            {
                "start_time": 10.952272727272726,
                "end_time": 11.197727272727272,
                "pitch": 54,
                "velocity": 40,
                "duration": 0.24545454545454604,
                "tempo": 120.0
            },
            {
                "start_time": 11.197727272727272,
                "end_time": 11.445454545454545,
                "pitch": 50,
                "velocity": 40,
                "duration": 0.24772727272727302,
                "tempo": 120.0
            },
            {
                "start_time": 11.445454545454545,
                "end_time": 11.679545454545455,
                "pitch": 54,
                "velocity": 40,
                "duration": 0.23409090909090935,
                "tempo": 120.0
            },
            {
                "start_time": 11.679545454545455,
                "end_time": 11.934090909090909,
                "pitch": 50,
                "velocity": 40,
                "duration": 0.25454545454545396,
                "tempo": 120.0
            },
            {
                "start_time": 11.934090909090909,
                "end_time": 12.172727272727272,
                "pitch": 54,
                "velocity": 40,
                "duration": 0.2386363636363633,
                "tempo": 120.0
            },
            {
                "start_time": 12.172727272727272,
                "end_time": 12.422727272727272,
                "pitch": 50,
                "velocity": 40,
                "duration": 0.25,
                "tempo": 120.0
            },
            {
                "start_time": 12.422727272727272,
                "end_time": 12.668181818181818,
                "pitch": 54,
                "velocity": 40,
                "duration": 0.24545454545454604,
                "tempo": 120.0
            },
            {
                "start_time": 12.668181818181818,
                "end_time": 12.902272727272727,
                "pitch": 50,
                "velocity": 40,
                "duration": 0.23409090909090935,
                "tempo": 120.0
            },
            {
                "start_time": 12.902272727272727,
                "end_time": 13.152272727272727,
                "pitch": 50,
                "velocity": 40,
                "duration": 0.25,
                "tempo": 120.0
            },
            {
                "start_time": 13.152272727272727,
                "end_time": 13.220454545454546,
                "pitch": 55,
                "velocity": 40,
                "duration": 0.06818181818181834,
                "tempo": 120.0
            },
            {
                "start_time": 13.220454545454546,
                "end_time": 13.286363636363635,
                "pitch": 55,
                "velocity": 40,
                "duration": 0.06590909090908958,
                "tempo": 120.0
            },
            {
                "start_time": 13.286363636363635,
                "end_time": 13.35,
                "pitch": 55,
                "velocity": 40,
                "duration": 0.06363636363636438,
                "tempo": 120.0
            },
            {
                "start_time": 13.35,
                "end_time": 13.399999999999999,
                "pitch": 55,
                "velocity": 40,
                "duration": 0.049999999999998934,
                "tempo": 120.0
            },
            {
                "start_time": 13.399999999999999,
                "end_time": 13.631818181818181,
                "pitch": 58,
                "velocity": 40,
                "duration": 0.23181818181818237,
                "tempo": 120.0
            },
            {
                "start_time": 13.631818181818181,
                "end_time": 13.879545454545454,
                "pitch": 62,
                "velocity": 40,
                "duration": 0.24772727272727302,
                "tempo": 120.0
            },
            {
                "start_time": 13.879545454545454,
                "end_time": 14.131818181818181,
                "pitch": 60,
                "velocity": 40,
                "duration": 0.252272727272727,
                "tempo": 120.0
            },
            {
                "start_time": 14.131818181818181,
                "end_time": 14.361363636363636,
                "pitch": 58,
                "velocity": 40,
                "duration": 0.22954545454545539,
                "tempo": 120.0
            },
            {
                "start_time": 14.361363636363636,
                "end_time": 14.60681818181818,
                "pitch": 51,
                "velocity": 40,
                "duration": 0.24545454545454426,
                "tempo": 120.0
            },
            {
                "start_time": 14.60681818181818,
                "end_time": 14.672727272727272,
                "pitch": 55,
                "velocity": 40,
                "duration": 0.06590909090909136,
                "tempo": 120.0
            },
            {
                "start_time": 14.672727272727272,
                "end_time": 14.738636363636363,
                "pitch": 55,
                "velocity": 40,
                "duration": 0.06590909090909136,
                "tempo": 120.0
            },
            {
                "start_time": 14.738636363636363,
                "end_time": 14.804545454545455,
                "pitch": 55,
                "velocity": 40,
                "duration": 0.06590909090909136,
                "tempo": 120.0
            },
            {
                "start_time": 14.804545454545455,
                "end_time": 14.838636363636363,
                "pitch": 55,
                "velocity": 40,
                "duration": 0.034090909090908283,
                "tempo": 120.0
            },
            {
                "start_time": 14.838636363636363,
                "end_time": 15.09090909090909,
                "pitch": 58,
                "velocity": 40,
                "duration": 0.252272727272727,
                "tempo": 120.0
            },
            {
                "start_time": 15.09090909090909,
                "end_time": 15.34090909090909,
                "pitch": 62,
                "velocity": 40,
                "duration": 0.25,
                "tempo": 120.0
            },
            {
                "start_time": 15.34090909090909,
                "end_time": 15.575,
                "pitch": 60,
                "velocity": 40,
                "duration": 0.23409090909090935,
                "tempo": 120.0
            },
            {
                "start_time": 15.575,
                "end_time": 15.825,
                "pitch": 58,
                "velocity": 40,
                "duration": 0.25,
                "tempo": 120.0
            },
            {
                "start_time": 15.825,
                "end_time": 16.077272727272728,
                "pitch": 53,
                "velocity": 40,
                "duration": 0.25227272727272876,
                "tempo": 120.0
            },
            {
                "start_time": 16.077272727272728,
                "end_time": 16.311363636363634,
                "pitch": 57,
                "velocity": 40,
                "duration": 0.2340909090909058,
                "tempo": 120.0
            },
            {
                "start_time": 16.311363636363634,
                "end_time": 16.561363636363634,
                "pitch": 60,
                "velocity": 40,
                "duration": 0.25,
                "tempo": 120.0
            },
            {
                "start_time": 16.561363636363634,
                "end_time": 16.795454545454543,
                "pitch": 63,
                "velocity": 40,
                "duration": 0.23409090909090935,
                "tempo": 120.0
            },
            {
                "start_time": 16.795454545454543,
                "end_time": 17.047727272727272,
                "pitch": 63,
                "velocity": 40,
                "duration": 0.25227272727272876,
                "tempo": 120.0
            },
            {
                "start_time": 17.047727272727272,
                "end_time": 17.29090909090909,
                "pitch": 60,
                "velocity": 40,
                "duration": 0.24318181818181728,
                "tempo": 120.0
            },
            {
                "start_time": 17.29090909090909,
                "end_time": 17.51590909090909,
                "pitch": 53,
                "velocity": 40,
                "duration": 0.22500000000000142,
                "tempo": 120.0
            },
            {
                "start_time": 17.51590909090909,
                "end_time": 17.770454545454545,
                "pitch": 57,
                "velocity": 40,
                "duration": 0.25454545454545396,
                "tempo": 120.0
            },
            {
                "start_time": 17.770454545454545,
                "end_time": 18.03181818181818,
                "pitch": 60,
                "velocity": 40,
                "duration": 0.2613636363636367,
                "tempo": 120.0
            },
            {
                "start_time": 18.03181818181818,
                "end_time": 18.26590909090909,
                "pitch": 63,
                "velocity": 40,
                "duration": 0.23409090909090935,
                "tempo": 120.0
            },
            {
                "start_time": 18.26590909090909,
                "end_time": 18.513636363636362,
                "pitch": 63,
                "velocity": 40,
                "duration": 0.24772727272727124,
                "tempo": 120.0
            },
            {
                "start_time": 18.513636363636362,
                "end_time": 18.74090909090909,
                "pitch": 60,
                "velocity": 40,
                "duration": 0.22727272727272663,
                "tempo": 120.0
            },
            {
                "start_time": 18.74090909090909,
                "end_time": 18.986363636363635,
                "pitch": 60,
                "velocity": 40,
                "duration": 0.24545454545454604,
                "tempo": 120.0
            },
            {
                "start_time": 18.986363636363635,
                "end_time": 19.227272727272727,
                "pitch": 60,
                "velocity": 40,
                "duration": 0.24090909090909207,
                "tempo": 120.0
            },
            {
                "start_time": 19.227272727272727,
                "end_time": 19.293181818181818,
                "pitch": 55,
                "velocity": 40,
                "duration": 0.06590909090909136,
                "tempo": 120.0
            },
            {
                "start_time": 19.293181818181818,
                "end_time": 19.35681818181818,
                "pitch": 55,
                "velocity": 40,
                "duration": 0.0636363636363626,
                "tempo": 120.0
            },
            {
                "start_time": 19.35681818181818,
                "end_time": 19.420454545454543,
                "pitch": 55,
                "velocity": 40,
                "duration": 0.0636363636363626,
                "tempo": 120.0
            },
            {
                "start_time": 19.420454545454543,
                "end_time": 19.452272727272728,
                "pitch": 55,
                "velocity": 40,
                "duration": 0.031818181818184854,
                "tempo": 120.0
            },
            {
                "start_time": 19.711363636363636,
                "end_time": 19.977272727272727,
                "pitch": 62,
                "velocity": 40,
                "duration": 0.26590909090909065,
                "tempo": 120.0
            },
            {
                "start_time": 19.977272727272727,
                "end_time": 20.211363636363636,
                "pitch": 60,
                "velocity": 40,
                "duration": 0.23409090909090935,
                "tempo": 120.0
            },
            {
                "start_time": 20.211363636363636,
                "end_time": 20.459090909090907,
                "pitch": 60,
                "velocity": 40,
                "duration": 0.24772727272727124,
                "tempo": 120.0
            },
            {
                "start_time": 20.459090909090907,
                "end_time": 20.693181818181817,
                "pitch": 60,
                "velocity": 40,
                "duration": 0.23409090909090935,
                "tempo": 120.0
            },
            {
                "start_time": 20.693181818181817,
                "end_time": 20.759090909090908,
                "pitch": 55,
                "velocity": 40,
                "duration": 0.06590909090909136,
                "tempo": 120.0
            },
            {
                "start_time": 20.759090909090908,
                "end_time": 20.827272727272724,
                "pitch": 55,
                "velocity": 40,
                "duration": 0.06818181818181657,
                "tempo": 120.0
            },
            {
                "start_time": 20.827272727272724,
                "end_time": 20.893181818181816,
                "pitch": 55,
                "velocity": 40,
                "duration": 0.06590909090909136,
                "tempo": 120.0
            },
            {
                "start_time": 20.893181818181816,
                "end_time": 20.943181818181817,
                "pitch": 55,
                "velocity": 40,
                "duration": 0.05000000000000071,
                "tempo": 120.0
            },
            {
                "start_time": 21.19772727272727,
                "end_time": 21.43409090909091,
                "pitch": 62,
                "velocity": 40,
                "duration": 0.2363636363636381,
                "tempo": 120.0
            },
            {
                "start_time": 21.43409090909091,
                "end_time": 21.68409090909091,
                "pitch": 60,
                "velocity": 40,
                "duration": 0.25,
                "tempo": 120.0
            },
            {
                "start_time": 21.68409090909091,
                "end_time": 21.93181818181818,
                "pitch": 60,
                "velocity": 40,
                "duration": 0.24772727272727124,
                "tempo": 120.0
            },
            {
                "start_time": 21.93181818181818,
                "end_time": 22.15681818181818,
                "pitch": 60,
                "velocity": 40,
                "duration": 0.22500000000000142,
                "tempo": 120.0
            },
            {
                "start_time": 22.15681818181818,
                "end_time": 22.222727272727273,
                "pitch": 55,
                "velocity": 40,
                "duration": 0.06590909090909136,
                "tempo": 120.0
            },
            {
                "start_time": 22.222727272727273,
                "end_time": 22.286363636363635,
                "pitch": 55,
                "velocity": 40,
                "duration": 0.0636363636363626,
                "tempo": 120.0
            },
            {
                "start_time": 22.286363636363635,
                "end_time": 22.349999999999998,
                "pitch": 55,
                "velocity": 40,
                "duration": 0.0636363636363626,
                "tempo": 120.0
            },
            {
                "start_time": 22.349999999999998,
                "end_time": 22.397727272727273,
                "pitch": 55,
                "velocity": 40,
                "duration": 0.047727272727275505,
                "tempo": 120.0
            },
            {
                "start_time": 22.647727272727273,
                "end_time": 22.88181818181818,
                "pitch": 62,
                "velocity": 40,
                "duration": 0.2340909090909058,
                "tempo": 120.0
            },
            {
                "start_time": 22.88181818181818,
                "end_time": 23.13181818181818,
                "pitch": 60,
                "velocity": 40,
                "duration": 0.25,
                "tempo": 120.0
            },
            {
                "start_time": 23.13181818181818,
                "end_time": 23.36590909090909,
                "pitch": 60,
                "velocity": 40,
                "duration": 0.23409090909090935,
                "tempo": 120.0
            },
            {
                "start_time": 23.36590909090909,
                "end_time": 23.60909090909091,
                "pitch": 60,
                "velocity": 40,
                "duration": 0.24318181818182083,
                "tempo": 120.0
            },
            {
                "start_time": 23.60909090909091,
                "end_time": 23.674999999999997,
                "pitch": 55,
                "velocity": 40,
                "duration": 0.06590909090908781,
                "tempo": 120.0
            },
            {
                "start_time": 23.674999999999997,
                "end_time": 23.738636363636363,
                "pitch": 55,
                "velocity": 40,
                "duration": 0.06363636363636616,
                "tempo": 120.0
            },
            {
                "start_time": 23.738636363636363,
                "end_time": 23.802272727272726,
                "pitch": 55,
                "velocity": 40,
                "duration": 0.0636363636363626,
                "tempo": 120.0
            },
            {
                "start_time": 23.802272727272726,
                "end_time": 23.849999999999998,
                "pitch": 55,
                "velocity": 40,
                "duration": 0.04772727272727195,
                "tempo": 120.0
            },
            {
                "start_time": 24.084090909090907,
                "end_time": 24.334090909090907,
                "pitch": 62,
                "velocity": 40,
                "duration": 0.25,
                "tempo": 120.0
            },
            {
                "start_time": 24.334090909090907,
                "end_time": 24.4,
                "pitch": 60,
                "velocity": 40,
                "duration": 0.06590909090909136,
                "tempo": 120.0
            }
        ],
        "Flute": [
            {
                "start_time": 0.02727272727272727,
                "end_time": 0.07727272727272727,
                "pitch": 55,
                "velocity": 64,
                "duration": 0.05,
                "tempo": 120.0
            },
            {
                "start_time": 0.07727272727272727,
                "end_time": 0.14545454545454545,
                "pitch": 55,
                "velocity": 64,
                "duration": 0.06818181818181818,
                "tempo": 120.0
            },
            {
                "start_time": 0.14545454545454545,
                "end_time": 0.21136363636363636,
                "pitch": 55,
                "velocity": 64,
                "duration": 0.06590909090909092,
                "tempo": 120.0
            },
            {
                "start_time": 0.21136363636363636,
                "end_time": 0.27954545454545454,
                "pitch": 55,
                "velocity": 64,
                "duration": 0.06818181818181818,
                "tempo": 120.0
            },
            {
                "start_time": 0.27954545454545454,
                "end_time": 0.34545454545454546,
                "pitch": 55,
                "velocity": 64,
                "duration": 0.06590909090909092,
                "tempo": 120.0
            },
            {
                "start_time": 0.34545454545454546,
                "end_time": 0.41363636363636364,
                "pitch": 55,
                "velocity": 64,
                "duration": 0.06818181818181818,
                "tempo": 120.0
            },
            {
                "start_time": 0.41363636363636364,
                "end_time": 0.4795454545454545,
                "pitch": 55,
                "velocity": 64,
                "duration": 0.06590909090909086,
                "tempo": 120.0
            },
            {
                "start_time": 0.4795454545454545,
                "end_time": 0.5477272727272727,
                "pitch": 55,
                "velocity": 64,
                "duration": 0.06818181818181823,
                "tempo": 120.0
            },
            {
                "start_time": 0.5477272727272727,
                "end_time": 0.6159090909090909,
                "pitch": 55,
                "velocity": 64,
                "duration": 0.06818181818181812,
                "tempo": 120.0
            },
            {
                "start_time": 0.6159090909090909,
                "end_time": 0.6863636363636363,
                "pitch": 55,
                "velocity": 64,
                "duration": 0.07045454545454544,
                "tempo": 120.0
            },
            {
                "start_time": 0.6863636363636363,
                "end_time": 0.7568181818181818,
                "pitch": 55,
                "velocity": 64,
                "duration": 0.07045454545454555,
                "tempo": 120.0
            },
            {
                "start_time": 0.7568181818181818,
                "end_time": 0.825,
                "pitch": 55,
                "velocity": 64,
                "duration": 0.06818181818181812,
                "tempo": 120.0
            },
            {
                "start_time": 0.825,
                "end_time": 0.8954545454545454,
                "pitch": 55,
                "velocity": 64,
                "duration": 0.07045454545454544,
                "tempo": 120.0
            },
            {
                "start_time": 0.8954545454545454,
                "end_time": 0.9659090909090908,
                "pitch": 55,
                "velocity": 64,
                "duration": 0.07045454545454544,
                "tempo": 120.0
            },
            {
                "start_time": 0.9659090909090908,
                "end_time": 1.034090909090909,
                "pitch": 55,
                "velocity": 64,
                "duration": 0.06818181818181812,
                "tempo": 120.0
            },
            {
                "start_time": 1.034090909090909,
                "end_time": 1.1022727272727273,
                "pitch": 55,
                "velocity": 64,
                "duration": 0.06818181818181834,
                "tempo": 120.0
            },
            {
                "start_time": 1.1022727272727273,
                "end_time": 1.1704545454545454,
                "pitch": 55,
                "velocity": 64,
                "duration": 0.06818181818181812,
                "tempo": 120.0
            },
            {
                "start_time": 1.1704545454545454,
                "end_time": 1.2363636363636363,
                "pitch": 55,
                "velocity": 64,
                "duration": 0.06590909090909092,
                "tempo": 120.0
            },
            {
                "start_time": 1.2363636363636363,
                "end_time": 1.3022727272727272,
                "pitch": 55,
                "velocity": 64,
                "duration": 0.06590909090909092,
                "tempo": 120.0
            },
            {
                "start_time": 1.3022727272727272,
                "end_time": 1.3704545454545454,
                "pitch": 55,
                "velocity": 64,
                "duration": 0.06818181818181812,
                "tempo": 120.0
            },
            {
                "start_time": 1.3704545454545454,
                "end_time": 1.4363636363636363,
                "pitch": 55,
                "velocity": 64,
                "duration": 0.06590909090909092,
                "tempo": 120.0
            },
            {
                "start_time": 1.4363636363636363,
                "end_time": 1.5045454545454544,
                "pitch": 55,
                "velocity": 64,
                "duration": 0.06818181818181812,
                "tempo": 120.0
            },
            {
                "start_time": 1.5045454545454544,
                "end_time": 1.5704545454545453,
                "pitch": 55,
                "velocity": 64,
                "duration": 0.06590909090909092,
                "tempo": 120.0
            },
            {
                "start_time": 1.5704545454545453,
                "end_time": 1.6363636363636362,
                "pitch": 55,
                "velocity": 64,
                "duration": 0.06590909090909092,
                "tempo": 120.0
            },
            {
                "start_time": 1.6363636363636362,
                "end_time": 1.7,
                "pitch": 55,
                "velocity": 64,
                "duration": 0.06363636363636371,
                "tempo": 120.0
            },
            {
                "start_time": 1.7,
                "end_time": 1.7659090909090909,
                "pitch": 55,
                "velocity": 64,
                "duration": 0.06590909090909092,
                "tempo": 120.0
            },
            {
                "start_time": 1.7659090909090909,
                "end_time": 1.8318181818181818,
                "pitch": 55,
                "velocity": 64,
                "duration": 0.06590909090909092,
                "tempo": 120.0
            },
            {
                "start_time": 1.8318181818181818,
                "end_time": 1.8954545454545453,
                "pitch": 55,
                "velocity": 64,
                "duration": 0.06363636363636349,
                "tempo": 120.0
            },
            {
                "start_time": 1.8954545454545453,
                "end_time": 1.9613636363636362,
                "pitch": 55,
                "velocity": 64,
                "duration": 0.06590909090909092,
                "tempo": 120.0
            },
            {
                "start_time": 1.9613636363636362,
                "end_time": 2.0272727272727273,
                "pitch": 55,
                "velocity": 64,
                "duration": 0.06590909090909114,
                "tempo": 120.0
            },
            {
                "start_time": 2.0272727272727273,
                "end_time": 2.0931818181818183,
                "pitch": 55,
                "velocity": 64,
                "duration": 0.06590909090909092,
                "tempo": 120.0
            },
            {
                "start_time": 2.0931818181818183,
                "end_time": 2.1568181818181817,
                "pitch": 55,
                "velocity": 64,
                "duration": 0.06363636363636349,
                "tempo": 120.0
            },
            {
                "start_time": 2.1568181818181817,
                "end_time": 2.2227272727272727,
                "pitch": 55,
                "velocity": 64,
                "duration": 0.06590909090909092,
                "tempo": 120.0
            },
            {
                "start_time": 2.2227272727272727,
                "end_time": 2.2886363636363636,
                "pitch": 55,
                "velocity": 64,
                "duration": 0.06590909090909092,
                "tempo": 120.0
            },
            {
                "start_time": 2.2886363636363636,
                "end_time": 2.3545454545454545,
                "pitch": 55,
                "velocity": 64,
                "duration": 0.06590909090909092,
                "tempo": 120.0
            },
            {
                "start_time": 2.3545454545454545,
                "end_time": 2.418181818181818,
                "pitch": 55,
                "velocity": 64,
                "duration": 0.06363636363636349,
                "tempo": 120.0
            },
            {
                "start_time": 2.418181818181818,
                "end_time": 2.484090909090909,
                "pitch": 55,
                "velocity": 64,
                "duration": 0.06590909090909092,
                "tempo": 120.0
            },
            {
                "start_time": 2.484090909090909,
                "end_time": 2.5522727272727272,
                "pitch": 55,
                "velocity": 64,
                "duration": 0.06818181818181834,
                "tempo": 120.0
            },
            {
                "start_time": 2.5522727272727272,
                "end_time": 2.6227272727272726,
                "pitch": 55,
                "velocity": 64,
                "duration": 0.07045454545454533,
                "tempo": 120.0
            },
            {
                "start_time": 2.6227272727272726,
                "end_time": 2.693181818181818,
                "pitch": 55,
                "velocity": 64,
                "duration": 0.07045454545454533,
                "tempo": 120.0
            },
            {
                "start_time": 2.693181818181818,
                "end_time": 2.7613636363636362,
                "pitch": 55,
                "velocity": 64,
                "duration": 0.06818181818181834,
                "tempo": 120.0
            },
            {
                "start_time": 2.7613636363636362,
                "end_time": 2.8318181818181816,
                "pitch": 55,
                "velocity": 64,
                "duration": 0.07045454545454533,
                "tempo": 120.0
            },
            {
                "start_time": 2.8318181818181816,
                "end_time": 2.9022727272727273,
                "pitch": 55,
                "velocity": 64,
                "duration": 0.07045454545454577,
                "tempo": 120.0
            },
            {
                "start_time": 2.9022727272727273,
                "end_time": 2.9704545454545452,
                "pitch": 55,
                "velocity": 64,
                "duration": 0.0681818181818179,
                "tempo": 120.0
            },
            {
                "start_time": 2.9704545454545452,
                "end_time": 5.8999999999999995,
                "pitch": 50,
                "velocity": 64,
                "duration": 2.9295454545454542,
                "tempo": 120.0
            },
            {
                "start_time": 5.8999999999999995,
                "end_time": 8.795454545454545,
                "pitch": 45,
                "velocity": 64,
                "duration": 2.8954545454545455,
                "tempo": 120.0
            },
            {
                "start_time": 8.795454545454545,
                "end_time": 10.754545454545454,
                "pitch": 50,
                "velocity": 64,
                "duration": 1.959090909090909,
                "tempo": 120.0
            },
            {
                "start_time": 10.754545454545454,
                "end_time": 12.718181818181817,
                "pitch": 50,
                "velocity": 64,
                "duration": 1.963636363636363,
                "tempo": 120.0
            },
            {
                "start_time": 12.718181818181817,
                "end_time": 15.64090909090909,
                "pitch": 50,
                "velocity": 64,
                "duration": 2.9227272727272737,
                "tempo": 120.0
            },
            {
                "start_time": 15.64090909090909,
                "end_time": 15.69090909090909,
                "pitch": 51,
                "velocity": 64,
                "duration": 0.049999999999998934,
                "tempo": 120.0
            },
            {
                "start_time": 15.69090909090909,
                "end_time": 18.545454545454543,
                "pitch": 53,
                "velocity": 64,
                "duration": 2.8545454545454536,
                "tempo": 120.0
            },
            {
                "start_time": 18.545454545454543,
                "end_time": 18.611363636363635,
                "pitch": 55,
                "velocity": 64,
                "duration": 0.06590909090909136,
                "tempo": 120.0
            },
            {
                "start_time": 18.611363636363635,
                "end_time": 18.677272727272726,
                "pitch": 55,
                "velocity": 64,
                "duration": 0.06590909090909136,
                "tempo": 120.0
            },
            {
                "start_time": 18.677272727272726,
                "end_time": 18.74090909090909,
                "pitch": 55,
                "velocity": 64,
                "duration": 0.0636363636363626,
                "tempo": 120.0
            },
            {
                "start_time": 18.74090909090909,
                "end_time": 18.80681818181818,
                "pitch": 55,
                "velocity": 64,
                "duration": 0.06590909090909136,
                "tempo": 120.0
            },
            {
                "start_time": 18.80681818181818,
                "end_time": 18.87272727272727,
                "pitch": 55,
                "velocity": 64,
                "duration": 0.06590909090909136,
                "tempo": 120.0
            },
            {
                "start_time": 18.87272727272727,
                "end_time": 18.938636363636363,
                "pitch": 55,
                "velocity": 64,
                "duration": 0.06590909090909136,
                "tempo": 120.0
            },
            {
                "start_time": 18.938636363636363,
                "end_time": 19.002272727272725,
                "pitch": 55,
                "velocity": 64,
                "duration": 0.0636363636363626,
                "tempo": 120.0
            },
            {
                "start_time": 19.002272727272725,
                "end_time": 19.068181818181817,
                "pitch": 55,
                "velocity": 64,
                "duration": 0.06590909090909136,
                "tempo": 120.0
            },
            {
                "start_time": 19.068181818181817,
                "end_time": 19.13181818181818,
                "pitch": 55,
                "velocity": 64,
                "duration": 0.0636363636363626,
                "tempo": 120.0
            },
            {
                "start_time": 19.13181818181818,
                "end_time": 19.195454545454545,
                "pitch": 55,
                "velocity": 64,
                "duration": 0.06363636363636616,
                "tempo": 120.0
            },
            {
                "start_time": 19.195454545454545,
                "end_time": 19.261363636363637,
                "pitch": 55,
                "velocity": 64,
                "duration": 0.06590909090909136,
                "tempo": 120.0
            },
            {
                "start_time": 19.261363636363637,
                "end_time": 19.325,
                "pitch": 55,
                "velocity": 64,
                "duration": 0.0636363636363626,
                "tempo": 120.0
            },
            {
                "start_time": 19.325,
                "end_time": 19.388636363636362,
                "pitch": 55,
                "velocity": 64,
                "duration": 0.0636363636363626,
                "tempo": 120.0
            },
            {
                "start_time": 19.388636363636362,
                "end_time": 19.452272727272728,
                "pitch": 55,
                "velocity": 64,
                "duration": 0.06363636363636616,
                "tempo": 120.0
            },
            {
                "start_time": 19.452272727272728,
                "end_time": 19.518181818181816,
                "pitch": 55,
                "velocity": 64,
                "duration": 0.06590909090908781,
                "tempo": 120.0
            },
            {
                "start_time": 19.518181818181816,
                "end_time": 19.586363636363636,
                "pitch": 55,
                "velocity": 64,
                "duration": 0.06818181818182012,
                "tempo": 120.0
            },
            {
                "start_time": 19.586363636363636,
                "end_time": 19.65681818181818,
                "pitch": 55,
                "velocity": 64,
                "duration": 0.07045454545454533,
                "tempo": 120.0
            },
            {
                "start_time": 19.65681818181818,
                "end_time": 19.729545454545452,
                "pitch": 55,
                "velocity": 64,
                "duration": 0.07272727272727053,
                "tempo": 120.0
            },
            {
                "start_time": 19.729545454545452,
                "end_time": 19.8,
                "pitch": 55,
                "velocity": 64,
                "duration": 0.07045454545454888,
                "tempo": 120.0
            },
            {
                "start_time": 19.8,
                "end_time": 19.870454545454546,
                "pitch": 55,
                "velocity": 64,
                "duration": 0.07045454545454533,
                "tempo": 120.0
            },
            {
                "start_time": 19.870454545454546,
                "end_time": 19.94090909090909,
                "pitch": 55,
                "velocity": 64,
                "duration": 0.07045454545454533,
                "tempo": 120.0
            },
            {
                "start_time": 19.94090909090909,
                "end_time": 20.011363636363637,
                "pitch": 55,
                "velocity": 64,
                "duration": 0.07045454545454533,
                "tempo": 120.0
            },
            {
                "start_time": 20.011363636363637,
                "end_time": 20.081818181818182,
                "pitch": 55,
                "velocity": 64,
                "duration": 0.07045454545454533,
                "tempo": 120.0
            },
            {
                "start_time": 20.081818181818182,
                "end_time": 20.147727272727273,
                "pitch": 55,
                "velocity": 64,
                "duration": 0.06590909090909136,
                "tempo": 120.0
            },
            {
                "start_time": 20.147727272727273,
                "end_time": 20.211363636363636,
                "pitch": 55,
                "velocity": 64,
                "duration": 0.0636363636363626,
                "tempo": 120.0
            },
            {
                "start_time": 20.211363636363636,
                "end_time": 20.277272727272727,
                "pitch": 55,
                "velocity": 64,
                "duration": 0.06590909090909136,
                "tempo": 120.0
            },
            {
                "start_time": 20.277272727272727,
                "end_time": 20.34318181818182,
                "pitch": 55,
                "velocity": 64,
                "duration": 0.06590909090909136,
                "tempo": 120.0
            },
            {
                "start_time": 20.34318181818182,
                "end_time": 20.409090909090907,
                "pitch": 55,
                "velocity": 64,
                "duration": 0.06590909090908781,
                "tempo": 120.0
            },
            {
                "start_time": 20.409090909090907,
                "end_time": 20.474999999999998,
                "pitch": 55,
                "velocity": 64,
                "duration": 0.06590909090909136,
                "tempo": 120.0
            },
            {
                "start_time": 20.474999999999998,
                "end_time": 20.54090909090909,
                "pitch": 55,
                "velocity": 64,
                "duration": 0.06590909090909136,
                "tempo": 120.0
            },
            {
                "start_time": 20.54090909090909,
                "end_time": 20.60909090909091,
                "pitch": 55,
                "velocity": 64,
                "duration": 0.06818181818182012,
                "tempo": 120.0
            },
            {
                "start_time": 20.60909090909091,
                "end_time": 20.675,
                "pitch": 55,
                "velocity": 64,
                "duration": 0.06590909090909136,
                "tempo": 120.0
            },
            {
                "start_time": 20.675,
                "end_time": 20.743181818181817,
                "pitch": 55,
                "velocity": 64,
                "duration": 0.06818181818181657,
                "tempo": 120.0
            },
            {
                "start_time": 20.743181818181817,
                "end_time": 20.80909090909091,
                "pitch": 55,
                "velocity": 64,
                "duration": 0.06590909090909136,
                "tempo": 120.0
            },
            {
                "start_time": 20.80909090909091,
                "end_time": 20.877272727272725,
                "pitch": 55,
                "velocity": 64,
                "duration": 0.06818181818181657,
                "tempo": 120.0
            },
            {
                "start_time": 20.877272727272725,
                "end_time": 20.943181818181817,
                "pitch": 55,
                "velocity": 64,
                "duration": 0.06590909090909136,
                "tempo": 120.0
            },
            {
                "start_time": 20.943181818181817,
                "end_time": 21.009090909090908,
                "pitch": 55,
                "velocity": 64,
                "duration": 0.06590909090909136,
                "tempo": 120.0
            },
            {
                "start_time": 21.009090909090908,
                "end_time": 21.077272727272724,
                "pitch": 55,
                "velocity": 64,
                "duration": 0.06818181818181657,
                "tempo": 120.0
            },
            {
                "start_time": 21.077272727272724,
                "end_time": 21.145454545454545,
                "pitch": 55,
                "velocity": 64,
                "duration": 0.06818181818182012,
                "tempo": 120.0
            },
            {
                "start_time": 21.145454545454545,
                "end_time": 21.21363636363636,
                "pitch": 55,
                "velocity": 64,
                "duration": 0.06818181818181657,
                "tempo": 120.0
            },
            {
                "start_time": 21.21363636363636,
                "end_time": 21.28181818181818,
                "pitch": 55,
                "velocity": 64,
                "duration": 0.06818181818182012,
                "tempo": 120.0
            },
            {
                "start_time": 21.28181818181818,
                "end_time": 21.349999999999998,
                "pitch": 55,
                "velocity": 64,
                "duration": 0.06818181818181657,
                "tempo": 120.0
            },
            {
                "start_time": 21.349999999999998,
                "end_time": 21.418181818181818,
                "pitch": 55,
                "velocity": 64,
                "duration": 0.06818181818182012,
                "tempo": 120.0
            },
            {
                "start_time": 21.418181818181818,
                "end_time": 21.486363636363635,
                "pitch": 55,
                "velocity": 64,
                "duration": 0.06818181818181657,
                "tempo": 120.0
            },
            {
                "start_time": 21.486363636363635,
                "end_time": 21.552272727272726,
                "pitch": 55,
                "velocity": 64,
                "duration": 0.06590909090909136,
                "tempo": 120.0
            },
            {
                "start_time": 21.552272727272726,
                "end_time": 21.618181818181817,
                "pitch": 55,
                "velocity": 64,
                "duration": 0.06590909090909136,
                "tempo": 120.0
            },
            {
                "start_time": 21.618181818181817,
                "end_time": 21.68409090909091,
                "pitch": 55,
                "velocity": 64,
                "duration": 0.06590909090909136,
                "tempo": 120.0
            },
            {
                "start_time": 21.68409090909091,
                "end_time": 21.75,
                "pitch": 55,
                "velocity": 64,
                "duration": 0.06590909090909136,
                "tempo": 120.0
            },
            {
                "start_time": 21.75,
                "end_time": 21.81590909090909,
                "pitch": 55,
                "velocity": 64,
                "duration": 0.06590909090909136,
                "tempo": 120.0
            },
            {
                "start_time": 21.81590909090909,
                "end_time": 21.88181818181818,
                "pitch": 55,
                "velocity": 64,
                "duration": 0.06590909090908781,
                "tempo": 120.0
            },
            {
                "start_time": 21.88181818181818,
                "end_time": 21.94772727272727,
                "pitch": 55,
                "velocity": 64,
                "duration": 0.06590909090909136,
                "tempo": 120.0
            },
            {
                "start_time": 21.94772727272727,
                "end_time": 22.013636363636362,
                "pitch": 55,
                "velocity": 64,
                "duration": 0.06590909090909136,
                "tempo": 120.0
            },
            {
                "start_time": 22.013636363636362,
                "end_time": 22.077272727272724,
                "pitch": 55,
                "velocity": 64,
                "duration": 0.0636363636363626,
                "tempo": 120.0
            },
            {
                "start_time": 22.077272727272724,
                "end_time": 22.14090909090909,
                "pitch": 55,
                "velocity": 64,
                "duration": 0.06363636363636616,
                "tempo": 120.0
            },
            {
                "start_time": 22.14090909090909,
                "end_time": 22.206818181818182,
                "pitch": 55,
                "velocity": 64,
                "duration": 0.06590909090909136,
                "tempo": 120.0
            },
            {
                "start_time": 22.206818181818182,
                "end_time": 22.270454545454545,
                "pitch": 55,
                "velocity": 64,
                "duration": 0.0636363636363626,
                "tempo": 120.0
            },
            {
                "start_time": 22.270454545454545,
                "end_time": 22.334090909090907,
                "pitch": 55,
                "velocity": 64,
                "duration": 0.0636363636363626,
                "tempo": 120.0
            },
            {
                "start_time": 22.334090909090907,
                "end_time": 22.397727272727273,
                "pitch": 55,
                "velocity": 64,
                "duration": 0.06363636363636616,
                "tempo": 120.0
            },
            {
                "start_time": 22.397727272727273,
                "end_time": 22.46363636363636,
                "pitch": 55,
                "velocity": 64,
                "duration": 0.06590909090908781,
                "tempo": 120.0
            },
            {
                "start_time": 22.46363636363636,
                "end_time": 22.529545454545453,
                "pitch": 55,
                "velocity": 64,
                "duration": 0.06590909090909136,
                "tempo": 120.0
            },
            {
                "start_time": 22.529545454545453,
                "end_time": 22.597727272727273,
                "pitch": 55,
                "velocity": 64,
                "duration": 0.06818181818182012,
                "tempo": 120.0
            },
            {
                "start_time": 22.597727272727273,
                "end_time": 22.663636363636364,
                "pitch": 55,
                "velocity": 64,
                "duration": 0.06590909090909136,
                "tempo": 120.0
            },
            {
                "start_time": 22.663636363636364,
                "end_time": 22.73181818181818,
                "pitch": 55,
                "velocity": 64,
                "duration": 0.06818181818181657,
                "tempo": 120.0
            },
            {
                "start_time": 22.73181818181818,
                "end_time": 22.797727272727272,
                "pitch": 55,
                "velocity": 64,
                "duration": 0.06590909090909136,
                "tempo": 120.0
            },
            {
                "start_time": 22.797727272727272,
                "end_time": 22.863636363636363,
                "pitch": 55,
                "velocity": 64,
                "duration": 0.06590909090909136,
                "tempo": 120.0
            },
            {
                "start_time": 22.863636363636363,
                "end_time": 22.93181818181818,
                "pitch": 55,
                "velocity": 64,
                "duration": 0.06818181818181657,
                "tempo": 120.0
            },
            {
                "start_time": 22.93181818181818,
                "end_time": 22.99772727272727,
                "pitch": 55,
                "velocity": 64,
                "duration": 0.06590909090909136,
                "tempo": 120.0
            },
            {
                "start_time": 22.99772727272727,
                "end_time": 23.06590909090909,
                "pitch": 55,
                "velocity": 64,
                "duration": 0.06818181818182012,
                "tempo": 120.0
            },
            {
                "start_time": 23.06590909090909,
                "end_time": 23.13181818181818,
                "pitch": 55,
                "velocity": 64,
                "duration": 0.06590909090908781,
                "tempo": 120.0
            },
            {
                "start_time": 23.13181818181818,
                "end_time": 23.2,
                "pitch": 55,
                "velocity": 64,
                "duration": 0.06818181818182012,
                "tempo": 120.0
            },
            {
                "start_time": 23.2,
                "end_time": 23.26590909090909,
                "pitch": 55,
                "velocity": 64,
                "duration": 0.06590909090909136,
                "tempo": 120.0
            },
            {
                "start_time": 23.26590909090909,
                "end_time": 23.334090909090907,
                "pitch": 55,
                "velocity": 64,
                "duration": 0.06818181818181657,
                "tempo": 120.0
            },
            {
                "start_time": 23.334090909090907,
                "end_time": 23.4,
                "pitch": 55,
                "velocity": 64,
                "duration": 0.06590909090909136,
                "tempo": 120.0
            },
            {
                "start_time": 23.4,
                "end_time": 23.46590909090909,
                "pitch": 55,
                "velocity": 64,
                "duration": 0.06590909090909136,
                "tempo": 120.0
            },
            {
                "start_time": 23.46590909090909,
                "end_time": 23.529545454545453,
                "pitch": 55,
                "velocity": 64,
                "duration": 0.0636363636363626,
                "tempo": 120.0
            },
            {
                "start_time": 23.529545454545453,
                "end_time": 23.59318181818182,
                "pitch": 55,
                "velocity": 64,
                "duration": 0.06363636363636616,
                "tempo": 120.0
            },
            {
                "start_time": 23.59318181818182,
                "end_time": 23.65681818181818,
                "pitch": 55,
                "velocity": 64,
                "duration": 0.0636363636363626,
                "tempo": 120.0
            },
            {
                "start_time": 23.65681818181818,
                "end_time": 23.722727272727273,
                "pitch": 55,
                "velocity": 64,
                "duration": 0.06590909090909136,
                "tempo": 120.0
            },
            {
                "start_time": 23.722727272727273,
                "end_time": 23.786363636363635,
                "pitch": 55,
                "velocity": 64,
                "duration": 0.0636363636363626,
                "tempo": 120.0
            },
            {
                "start_time": 23.786363636363635,
                "end_time": 23.849999999999998,
                "pitch": 55,
                "velocity": 64,
                "duration": 0.0636363636363626,
                "tempo": 120.0
            },
            {
                "start_time": 23.849999999999998,
                "end_time": 23.91590909090909,
                "pitch": 55,
                "velocity": 64,
                "duration": 0.06590909090909136,
                "tempo": 120.0
            },
            {
                "start_time": 23.91590909090909,
                "end_time": 23.98181818181818,
                "pitch": 55,
                "velocity": 64,
                "duration": 0.06590909090909136,
                "tempo": 120.0
            },
            {
                "start_time": 23.98181818181818,
                "end_time": 24.049999999999997,
                "pitch": 55,
                "velocity": 64,
                "duration": 0.06818181818181657,
                "tempo": 120.0
            },
            {
                "start_time": 24.049999999999997,
                "end_time": 24.11590909090909,
                "pitch": 55,
                "velocity": 64,
                "duration": 0.06590909090909136,
                "tempo": 120.0
            },
            {
                "start_time": 24.11590909090909,
                "end_time": 24.18409090909091,
                "pitch": 55,
                "velocity": 64,
                "duration": 0.06818181818182012,
                "tempo": 120.0
            },
            {
                "start_time": 24.18409090909091,
                "end_time": 24.25,
                "pitch": 55,
                "velocity": 64,
                "duration": 0.06590909090909136,
                "tempo": 120.0
            },
            {
                "start_time": 24.25,
                "end_time": 24.318181818181817,
                "pitch": 55,
                "velocity": 64,
                "duration": 0.06818181818181657,
                "tempo": 120.0
            },
            {
                "start_time": 24.318181818181817,
                "end_time": 24.384090909090908,
                "pitch": 55,
                "velocity": 64,
                "duration": 0.06590909090909136,
                "tempo": 120.0
            }
        ]
    }
}