{
    "track_id": "Kenseiden (FM) - 07 - Training Entrance",
    "mood": "sad",
    "instruments": {
        "Clarinet": [
            {
                "start_time": 0.0,
                "end_time": 2.356818181818182,
                "pitch": 52,
                "velocity": 64,
                "duration": 2.356818181818182,
                "tempo": 120.0
            },
            {
                "start_time": 2.3909090909090907,
                "end_time": 3.1477272727272725,
                "pitch": 52,
                "velocity": 64,
                "duration": 0.7568181818181818,
                "tempo": 120.0
            },
            {
                "start_time": 3.1795454545454542,
                "end_time": 6.347727272727273,
                "pitch": 52,
                "velocity": 64,
                "duration": 3.1681818181818184,
                "tempo": 120.0
            },
            {
                "start_time": 6.379545454545454,
                "end_time": 8.768181818181818,
                "pitch": 52,
                "velocity": 64,
                "duration": 2.3886363636363637,
                "tempo": 120.0
            },
            {
                "start_time": 8.802272727272728,
                "end_time": 9.568181818181818,
                "pitch": 52,
                "velocity": 64,
                "duration": 0.7659090909090907,
                "tempo": 120.0
            },
            {
                "start_time": 9.602272727272727,
                "end_time": 12.788636363636362,
                "pitch": 52,
                "velocity": 64,
                "duration": 3.1863636363636356,
                "tempo": 120.0
            },
            {
                "start_time": 12.822727272727272,
                "end_time": 15.211363636363636,
                "pitch": 53,
                "velocity": 64,
                "duration": 2.3886363636363637,
                "tempo": 120.0
            },
            {
                "start_time": 15.243181818181817,
                "end_time": 15.99090909090909,
                "pitch": 53,
                "velocity": 64,
                "duration": 0.747727272727273,
                "tempo": 120.0
            },
            {
                "start_time": 16.022727272727273,
                "end_time": 19.23181818181818,
                "pitch": 53,
                "velocity": 64,
                "duration": 3.209090909090907,
                "tempo": 120.0
            },
            {
                "start_time": 19.26590909090909,
                "end_time": 21.654545454545453,
                "pitch": 53,
                "velocity": 64,
                "duration": 2.388636363636362,
                "tempo": 120.0
            },
            {
                "start_time": 21.686363636363634,
                "end_time": 22.454545454545453,
                "pitch": 53,
                "velocity": 64,
                "duration": 0.7681818181818194,
                "tempo": 120.0
            },
            {
                "start_time": 22.486363636363635,
                "end_time": 25.63181818181818,
                "pitch": 53,
                "velocity": 64,
                "duration": 3.1454545454545446,
                "tempo": 120.0
            },
            {
                "start_time": 25.663636363636364,
                "end_time": 28.097727272727273,
                "pitch": 52,
                "velocity": 64,
                "duration": 2.4340909090909086,
                "tempo": 120.0
            },
            {
                "start_time": 28.13181818181818,
                "end_time": 28.89772727272727,
                "pitch": 52,
                "velocity": 64,
                "duration": 0.7659090909090907,
                "tempo": 120.0
            },
            {
                "start_time": 28.93181818181818,
                "end_time": 32.12045454545454,
                "pitch": 52,
                "velocity": 64,
                "duration": 3.1886363636363626,
                "tempo": 120.0
            },
            {
                "start_time": 32.152272727272724,
                "end_time": 34.55227272727272,
                "pitch": 52,
                "velocity": 64,
                "duration": 2.3999999999999986,
                "tempo": 120.0
            },
            {
                "start_time": 34.586363636363636,
                "end_time": 35.361363636363635,
                "pitch": 52,
                "velocity": 64,
                "duration": 0.7749999999999986,
                "tempo": 120.0
            },
            {
                "start_time": 35.39545454545454,
                "end_time": 38.584090909090904,
                "pitch": 52,
                "velocity": 64,
                "duration": 3.1886363636363626,
                "tempo": 120.0
            },
            {
                "start_time": 38.61818181818182,
                "end_time": 41.01590909090909,
                "pitch": 53,
                "velocity": 64,
                "duration": 2.3977272727272734,
                "tempo": 120.0
            },
            {
                "start_time": 41.05,
                "end_time": 41.82727272727273,
                "pitch": 53,
                "velocity": 64,
                "duration": 0.7772727272727309,
                "tempo": 120.0
            },
            {
                "start_time": 41.861363636363635,
                "end_time": 45.070454545454545,
                "pitch": 53,
                "velocity": 64,
                "duration": 3.2090909090909108,
                "tempo": 120.0
            },
            {
                "start_time": 45.10454545454545,
                "end_time": 47.48181818181818,
                "pitch": 53,
                "velocity": 64,
                "duration": 2.377272727272725,
                "tempo": 120.0
            },
            {
                "start_time": 47.51590909090909,
                "end_time": 48.293181818181814,
                "pitch": 53,
                "velocity": 64,
                "duration": 0.7772727272727238,
                "tempo": 120.0
            },
            {
                "start_time": 48.324999999999996,
                "end_time": 51.53636363636363,
                "pitch": 53,
                "velocity": 64,
                "duration": 3.211363636363636,
                "tempo": 120.0
            }
        ],
        "Acoustic Bass": [
            {
                "start_time": 0.0,
                "end_time": 2.356818181818182,
                "pitch": 59,
                "velocity": 51,
                "duration": 2.356818181818182,
                "tempo": 120.0
            },
            {
                "start_time": 2.3909090909090907,
                "end_time": 3.1477272727272725,
                "pitch": 59,
                "velocity": 51,
                "duration": 0.7568181818181818,
                "tempo": 120.0
            },
            {
                "start_time": 3.1795454545454542,
                "end_time": 6.347727272727273,
                "pitch": 59,
                "velocity": 51,
                "duration": 3.1681818181818184,
                "tempo": 120.0
            },
            {
                "start_time": 6.379545454545454,
                "end_time": 8.768181818181818,
                "pitch": 59,
                "velocity": 51,
                "duration": 2.3886363636363637,
                "tempo": 120.0
            },
            {
                "start_time": 8.802272727272728,
                "end_time": 9.568181818181818,
                "pitch": 59,
                "velocity": 51,
                "duration": 0.7659090909090907,
                "tempo": 120.0
            },
            {
                "start_time": 9.602272727272727,
                "end_time": 12.788636363636362,
                "pitch": 59,
                "velocity": 51,
                "duration": 3.1863636363636356,
                "tempo": 120.0
            },
            {
                "start_time": 12.822727272727272,
                "end_time": 15.211363636363636,
                "pitch": 60,
                "velocity": 51,
                "duration": 2.3886363636363637,
                "tempo": 120.0
            },
            {
                "start_time": 15.243181818181817,
                "end_time": 15.99090909090909,
                "pitch": 60,
                "velocity": 51,
                "duration": 0.747727272727273,
                "tempo": 120.0
            },
            {
                "start_time": 16.022727272727273,
                "end_time": 19.23181818181818,
                "pitch": 60,
                "velocity": 51,
                "duration": 3.209090909090907,
                "tempo": 120.0
            },
            {
                "start_time": 19.26590909090909,
                "end_time": 21.654545454545453,
                "pitch": 60,
                "velocity": 51,
                "duration": 2.388636363636362,
                "tempo": 120.0
            },
            {
                "start_time": 21.686363636363634,
                "end_time": 22.454545454545453,
                "pitch": 60,
                "velocity": 51,
                "duration": 0.7681818181818194,
                "tempo": 120.0
            },
            {
                "start_time": 22.486363636363635,
                "end_time": 25.63181818181818,
                "pitch": 60,
                "velocity": 51,
                "duration": 3.1454545454545446,
                "tempo": 120.0
            },
            {
                "start_time": 25.663636363636364,
                "end_time": 28.097727272727273,
                "pitch": 59,
                "velocity": 51,
                "duration": 2.4340909090909086,
                "tempo": 120.0
            },
            {
                "start_time": 28.13181818181818,
                "end_time": 28.89772727272727,
                "pitch": 59,
                "velocity": 51,
                "duration": 0.7659090909090907,
                "tempo": 120.0
            },
            {
                "start_time": 28.93181818181818,
                "end_time": 32.12045454545454,
                "pitch": 59,
                "velocity": 51,
                "duration": 3.1886363636363626,
                "tempo": 120.0
            },
            {
                "start_time": 32.152272727272724,
                "end_time": 34.55227272727272,
                "pitch": 59,
                "velocity": 51,
                "duration": 2.3999999999999986,
                "tempo": 120.0
            },
            {
                "start_time": 34.586363636363636,
                "end_time": 35.361363636363635,
                "pitch": 59,
                "velocity": 51,
                "duration": 0.7749999999999986,
                "tempo": 120.0
            },
            {
                "start_time": 35.39545454545454,
                "end_time": 38.584090909090904,
                "pitch": 59,
                "velocity": 51,
                "duration": 3.1886363636363626,
                "tempo": 120.0
            },
            {
                "start_time": 38.61818181818182,
                "end_time": 41.01590909090909,
                "pitch": 60,
                "velocity": 51,
                "duration": 2.3977272727272734,
                "tempo": 120.0
            },
            {
                "start_time": 41.05,
                "end_time": 41.82727272727273,
                "pitch": 60,
                "velocity": 51,
                "duration": 0.7772727272727309,
                "tempo": 120.0
            },
            {
                "start_time": 41.861363636363635,
                "end_time": 45.070454545454545,
                "pitch": 60,
                "velocity": 51,
                "duration": 3.2090909090909108,
                "tempo": 120.0
            },
            {
                "start_time": 45.10454545454545,
                "end_time": 47.48181818181818,
                "pitch": 60,
                "velocity": 51,
                "duration": 2.377272727272725,
                "tempo": 120.0
            },
            {
                "start_time": 47.51590909090909,
                "end_time": 48.293181818181814,
                "pitch": 60,
                "velocity": 51,
                "duration": 0.7772727272727238,
                "tempo": 120.0
            },
            {
                "start_time": 48.324999999999996,
                "end_time": 51.53636363636363,
                "pitch": 60,
                "velocity": 51,
                "duration": 3.211363636363636,
                "tempo": 120.0
            }
        ],
        "Acoustic Grand Piano": [
            {
                "start_time": 0.0,
                "end_time": 0.08181818181818182,
                "pitch": 45,
                "velocity": 51,
                "duration": 0.08181818181818182,
                "tempo": 120.0
            },
            {
                "start_time": 0.11363636363636363,
                "end_time": 0.35,
                "pitch": 45,
                "velocity": 51,
                "duration": 0.23636363636363633,
                "tempo": 120.0
            },
            {
                "start_time": 0.3840909090909091,
                "end_time": 0.7568181818181818,
                "pitch": 76,
                "velocity": 51,
                "duration": 0.37272727272727274,
                "tempo": 120.0
            },
            {
                "start_time": 0.7909090909090909,
                "end_time": 1.1613636363636364,
                "pitch": 88,
                "velocity": 51,
                "duration": 0.3704545454545455,
                "tempo": 120.0
            },
            {
                "start_time": 1.1954545454545453,
                "end_time": 1.5681818181818181,
                "pitch": 86,
                "velocity": 51,
                "duration": 0.3727272727272728,
                "tempo": 120.0
            },
            {
                "start_time": 1.5999999999999999,
                "end_time": 6.752272727272727,
                "pitch": 83,
                "velocity": 51,
                "duration": 5.152272727272727,
                "tempo": 120.0
            },
            {
                "start_time": 6.786363636363636,
                "end_time": 7.156818181818181,
                "pitch": 74,
                "velocity": 51,
                "duration": 0.37045454545454515,
                "tempo": 120.0
            },
            {
                "start_time": 7.1909090909090905,
                "end_time": 13.2,
                "pitch": 76,
                "velocity": 51,
                "duration": 6.009090909090909,
                "tempo": 120.0
            },
            {
                "start_time": 13.234090909090908,
                "end_time": 13.609090909090908,
                "pitch": 65,
                "velocity": 51,
                "duration": 0.375,
                "tempo": 120.0
            },
            {
                "start_time": 13.643181818181818,
                "end_time": 14.020454545454545,
                "pitch": 70,
                "velocity": 51,
                "duration": 0.377272727272727,
                "tempo": 120.0
            },
            {
                "start_time": 14.054545454545455,
                "end_time": 14.431818181818182,
                "pitch": 72,
                "velocity": 51,
                "duration": 0.377272727272727,
                "tempo": 120.0
            },
            {
                "start_time": 14.463636363636363,
                "end_time": 14.820454545454545,
                "pitch": 75,
                "velocity": 51,
                "duration": 0.35681818181818237,
                "tempo": 120.0
            },
            {
                "start_time": 14.854545454545454,
                "end_time": 15.211363636363636,
                "pitch": 75,
                "velocity": 51,
                "duration": 0.35681818181818237,
                "tempo": 120.0
            },
            {
                "start_time": 15.243181818181817,
                "end_time": 19.636363636363637,
                "pitch": 77,
                "velocity": 51,
                "duration": 4.393181818181819,
                "tempo": 120.0
            },
            {
                "start_time": 26.081818181818182,
                "end_time": 26.46363636363636,
                "pitch": 76,
                "velocity": 51,
                "duration": 0.38181818181817917,
                "tempo": 120.0
            },
            {
                "start_time": 26.49772727272727,
                "end_time": 26.879545454545454,
                "pitch": 88,
                "velocity": 51,
                "duration": 0.3818181818181827,
                "tempo": 120.0
            },
            {
                "start_time": 26.913636363636364,
                "end_time": 27.297727272727272,
                "pitch": 86,
                "velocity": 51,
                "duration": 0.38409090909090793,
                "tempo": 120.0
            },
            {
                "start_time": 27.331818181818182,
                "end_time": 32.525,
                "pitch": 83,
                "velocity": 51,
                "duration": 5.193181818181817,
                "tempo": 120.0
            },
            {
                "start_time": 32.559090909090905,
                "end_time": 32.929545454545455,
                "pitch": 74,
                "velocity": 51,
                "duration": 0.3704545454545496,
                "tempo": 120.0
            },
            {
                "start_time": 32.96363636363636,
                "end_time": 38.98863636363636,
                "pitch": 76,
                "velocity": 51,
                "duration": 6.024999999999999,
                "tempo": 120.0
            },
            {
                "start_time": 39.02272727272727,
                "end_time": 39.39545454545454,
                "pitch": 65,
                "velocity": 51,
                "duration": 0.3727272727272677,
                "tempo": 120.0
            },
            {
                "start_time": 39.429545454545455,
                "end_time": 39.8,
                "pitch": 70,
                "velocity": 51,
                "duration": 0.3704545454545425,
                "tempo": 120.0
            },
            {
                "start_time": 39.834090909090904,
                "end_time": 40.20454545454545,
                "pitch": 72,
                "velocity": 51,
                "duration": 0.3704545454545496,
                "tempo": 120.0
            },
            {
                "start_time": 40.23863636363636,
                "end_time": 40.611363636363635,
                "pitch": 75,
                "velocity": 51,
                "duration": 0.3727272727272748,
                "tempo": 120.0
            },
            {
                "start_time": 40.64545454545454,
                "end_time": 41.01590909090909,
                "pitch": 75,
                "velocity": 51,
                "duration": 0.3704545454545496,
                "tempo": 120.0
            },
            {
                "start_time": 41.05,
                "end_time": 45.470454545454544,
                "pitch": 77,
                "velocity": 51,
                "duration": 4.420454545454547,
                "tempo": 120.0
            }
        ]
    }
}