{
    "track_id": "Kenseiden (FM) - 03 - Map",
    "mood": "sad",
    "instruments": {
        "Clarinet": [
            {
                "start_time": 0.0,
                "end_time": 1.5863636363636362,
                "pitch": 52,
                "velocity": 101,
                "duration": 1.5863636363636362,
                "tempo": 120.0
            },
            {
                "start_time": 1.6022727272727273,
                "end_time": 3.1886363636363635,
                "pitch": 50,
                "velocity": 101,
                "duration": 1.5863636363636362,
                "tempo": 120.0
            },
            {
                "start_time": 3.2045454545454546,
                "end_time": 4.786363636363636,
                "pitch": 48,
                "velocity": 101,
                "duration": 1.5818181818181816,
                "tempo": 120.0
            },
            {
                "start_time": 4.802272727272727,
                "end_time": 6.402272727272727,
                "pitch": 47,
                "velocity": 101,
                "duration": 1.6000000000000005,
                "tempo": 120.0
            },
            {
                "start_time": 6.418181818181818,
                "end_time": 8.0,
                "pitch": 53,
                "velocity": 101,
                "duration": 1.581818181818182,
                "tempo": 120.0
            },
            {
                "start_time": 8.01590909090909,
                "end_time": 9.604545454545454,
                "pitch": 57,
                "velocity": 101,
                "duration": 1.588636363636363,
                "tempo": 120.0
            },
            {
                "start_time": 9.622727272727273,
                "end_time": 11.211363636363636,
                "pitch": 59,
                "velocity": 101,
                "duration": 1.588636363636363,
                "tempo": 120.0
            },
            {
                "start_time": 11.227272727272727,
                "end_time": 12.827272727272726,
                "pitch": 53,
                "velocity": 101,
                "duration": 1.5999999999999996,
                "tempo": 120.0
            }
        ],
        "Acoustic Bass": [
            {
                "start_time": 0.0,
                "end_time": 1.5863636363636362,
                "pitch": 64,
                "velocity": 101,
                "duration": 1.5863636363636362,
                "tempo": 120.0
            },
            {
                "start_time": 1.6022727272727273,
                "end_time": 3.1886363636363635,
                "pitch": 66,
                "velocity": 101,
                "duration": 1.5863636363636362,
                "tempo": 120.0
            },
            {
                "start_time": 3.2045454545454546,
                "end_time": 4.786363636363636,
                "pitch": 71,
                "velocity": 101,
                "duration": 1.5818181818181816,
                "tempo": 120.0
            },
            {
                "start_time": 4.802272727272727,
                "end_time": 6.402272727272727,
                "pitch": 69,
                "velocity": 101,
                "duration": 1.6000000000000005,
                "tempo": 120.0
            },
            {
                "start_time": 6.418181818181818,
                "end_time": 8.0,
                "pitch": 65,
                "velocity": 101,
                "duration": 1.581818181818182,
                "tempo": 120.0
            },
            {
                "start_time": 8.01590909090909,
                "end_time": 9.604545454545454,
                "pitch": 69,
                "velocity": 101,
                "duration": 1.588636363636363,
                "tempo": 120.0
            },
            {
                "start_time": 9.622727272727273,
                "end_time": 11.211363636363636,
                "pitch": 71,
                "velocity": 101,
                "duration": 1.588636363636363,
                "tempo": 120.0
            },
            {
                "start_time": 11.227272727272727,
                "end_time": 12.843181818181817,
                "pitch": 74,
                "velocity": 101,
                "duration": 1.6159090909090903,
                "tempo": 120.0
            }
        ],
        "Acoustic Grand Piano": [
            {
                "start_time": 0.0,
                "end_time": 0.1159090909090909,
                "pitch": 76,
                "velocity": 51,
                "duration": 0.1159090909090909,
                "tempo": 120.0
            },
            {
                "start_time": 0.1340909090909091,
                "end_time": 0.3159090909090909,
                "pitch": 88,
                "velocity": 51,
                "duration": 0.18181818181818182,
                "tempo": 120.0
            },
            {
                "start_time": 0.33409090909090905,
                "end_time": 0.5136363636363636,
                "pitch": 88,
                "velocity": 51,
                "duration": 0.1795454545454545,
                "tempo": 120.0
            },
            {
                "start_time": 0.5295454545454545,
                "end_time": 0.9113636363636363,
                "pitch": 86,
                "velocity": 51,
                "duration": 0.3818181818181817,
                "tempo": 120.0
            },
            {
                "start_time": 0.9295454545454545,
                "end_time": 1.3204545454545453,
                "pitch": 83,
                "velocity": 51,
                "duration": 0.3909090909090909,
                "tempo": 120.0
            },
            {
                "start_time": 1.3363636363636362,
                "end_time": 1.7204545454545455,
                "pitch": 81,
                "velocity": 51,
                "duration": 0.38409090909090926,
                "tempo": 120.0
            },
            {
                "start_time": 1.7363636363636363,
                "end_time": 2.1227272727272726,
                "pitch": 81,
                "velocity": 51,
                "duration": 0.38636363636363624,
                "tempo": 120.0
            },
            {
                "start_time": 2.1386363636363637,
                "end_time": 2.5227272727272725,
                "pitch": 83,
                "velocity": 51,
                "duration": 0.3840909090909088,
                "tempo": 120.0
            },
            {
                "start_time": 2.5386363636363636,
                "end_time": 2.9227272727272724,
                "pitch": 76,
                "velocity": 51,
                "duration": 0.3840909090909088,
                "tempo": 120.0
            },
            {
                "start_time": 2.9386363636363635,
                "end_time": 3.3227272727272728,
                "pitch": 77,
                "velocity": 51,
                "duration": 0.38409090909090926,
                "tempo": 120.0
            },
            {
                "start_time": 3.340909090909091,
                "end_time": 3.525,
                "pitch": 88,
                "velocity": 51,
                "duration": 0.18409090909090908,
                "tempo": 120.0
            },
            {
                "start_time": 3.5409090909090906,
                "end_time": 3.7227272727272727,
                "pitch": 88,
                "velocity": 51,
                "duration": 0.1818181818181821,
                "tempo": 120.0
            },
            {
                "start_time": 3.7386363636363633,
                "end_time": 4.120454545454545,
                "pitch": 86,
                "velocity": 51,
                "duration": 0.38181818181818183,
                "tempo": 120.0
            },
            {
                "start_time": 4.136363636363636,
                "end_time": 4.5249999999999995,
                "pitch": 83,
                "velocity": 51,
                "duration": 0.38863636363636367,
                "tempo": 120.0
            },
            {
                "start_time": 4.540909090909091,
                "end_time": 4.922727272727273,
                "pitch": 81,
                "velocity": 51,
                "duration": 0.38181818181818183,
                "tempo": 120.0
            },
            {
                "start_time": 4.9409090909090905,
                "end_time": 5.331818181818181,
                "pitch": 83,
                "velocity": 51,
                "duration": 0.39090909090909065,
                "tempo": 120.0
            },
            {
                "start_time": 5.347727272727273,
                "end_time": 5.7340909090909085,
                "pitch": 81,
                "velocity": 51,
                "duration": 0.3863636363636358,
                "tempo": 120.0
            },
            {
                "start_time": 5.75,
                "end_time": 6.134090909090909,
                "pitch": 77,
                "velocity": 51,
                "duration": 0.3840909090909088,
                "tempo": 120.0
            },
            {
                "start_time": 6.1499999999999995,
                "end_time": 6.536363636363636,
                "pitch": 76,
                "velocity": 51,
                "duration": 0.3863636363636367,
                "tempo": 120.0
            },
            {
                "start_time": 6.552272727272727,
                "end_time": 6.738636363636363,
                "pitch": 88,
                "velocity": 51,
                "duration": 0.1863636363636365,
                "tempo": 120.0
            },
            {
                "start_time": 6.754545454545454,
                "end_time": 6.9386363636363635,
                "pitch": 88,
                "velocity": 51,
                "duration": 0.18409090909090953,
                "tempo": 120.0
            },
            {
                "start_time": 6.954545454545454,
                "end_time": 7.338636363636363,
                "pitch": 86,
                "velocity": 51,
                "duration": 0.3840909090909088,
                "tempo": 120.0
            },
            {
                "start_time": 7.3568181818181815,
                "end_time": 7.738636363636363,
                "pitch": 83,
                "velocity": 51,
                "duration": 0.38181818181818183,
                "tempo": 120.0
            },
            {
                "start_time": 7.754545454545454,
                "end_time": 8.136363636363637,
                "pitch": 81,
                "velocity": 51,
                "duration": 0.3818181818181827,
                "tempo": 120.0
            },
            {
                "start_time": 8.152272727272727,
                "end_time": 8.540909090909091,
                "pitch": 81,
                "velocity": 51,
                "duration": 0.38863636363636367,
                "tempo": 120.0
            },
            {
                "start_time": 8.556818181818182,
                "end_time": 8.938636363636363,
                "pitch": 83,
                "velocity": 51,
                "duration": 0.38181818181818095,
                "tempo": 120.0
            },
            {
                "start_time": 8.956818181818182,
                "end_time": 9.343181818181817,
                "pitch": 76,
                "velocity": 51,
                "duration": 0.3863636363636349,
                "tempo": 120.0
            },
            {
                "start_time": 9.361363636363636,
                "end_time": 9.74090909090909,
                "pitch": 77,
                "velocity": 51,
                "duration": 0.37954545454545396,
                "tempo": 120.0
            },
            {
                "start_time": 9.759090909090908,
                "end_time": 9.947727272727272,
                "pitch": 88,
                "velocity": 51,
                "duration": 0.18863636363636438,
                "tempo": 120.0
            },
            {
                "start_time": 9.963636363636363,
                "end_time": 10.145454545454545,
                "pitch": 88,
                "velocity": 51,
                "duration": 0.18181818181818166,
                "tempo": 120.0
            },
            {
                "start_time": 10.163636363636364,
                "end_time": 10.543181818181818,
                "pitch": 86,
                "velocity": 51,
                "duration": 0.37954545454545396,
                "tempo": 120.0
            },
            {
                "start_time": 10.561363636363636,
                "end_time": 10.95,
                "pitch": 83,
                "velocity": 51,
                "duration": 0.38863636363636367,
                "tempo": 120.0
            },
            {
                "start_time": 10.96590909090909,
                "end_time": 11.347727272727273,
                "pitch": 81,
                "velocity": 51,
                "duration": 0.3818181818181827,
                "tempo": 120.0
            },
            {
                "start_time": 11.363636363636363,
                "end_time": 11.752272727272727,
                "pitch": 83,
                "velocity": 51,
                "duration": 0.38863636363636367,
                "tempo": 120.0
            },
            {
                "start_time": 11.768181818181818,
                "end_time": 12.147727272727272,
                "pitch": 81,
                "velocity": 51,
                "duration": 0.37954545454545396,
                "tempo": 120.0
            },
            {
                "start_time": 12.163636363636362,
                "end_time": 12.552272727272726,
                "pitch": 77,
                "velocity": 51,
                "duration": 0.38863636363636367,
                "tempo": 120.0
            },
            {
                "start_time": 12.570454545454545,
                "end_time": 12.843181818181817,
                "pitch": 76,
                "velocity": 51,
                "duration": 0.2727272727272716,
                "tempo": 120.0
            }
        ]
    }
}