{
    "track_id": "Megumi Rescue (FM) - 10 - Game Over",
    "mood": "sad",
    "instruments": {
        "Clarinet": [
            {
                "start_time": 0.004545454545454545,
                "end_time": 0.36136363636363633,
                "pitch": 60,
                "velocity": 64,
                "duration": 0.3568181818181818,
                "tempo": 120.0
            },
            {
                "start_time": 0.39545454545454545,
                "end_time": 0.5636363636363636,
                "pitch": 72,
                "velocity": 64,
                "duration": 0.16818181818181815,
                "tempo": 120.0
            },
            {
                "start_time": 0.5977272727272727,
                "end_time": 0.7659090909090909,
                "pitch": 71,
                "velocity": 64,
                "duration": 0.1681818181818182,
                "tempo": 120.0
            },
            {
                "start_time": 0.7999999999999999,
                "end_time": 1.1704545454545454,
                "pitch": 68,
                "velocity": 64,
                "duration": 0.3704545454545455,
                "tempo": 120.0
            },
            {
                "start_time": 1.2045454545454546,
                "end_time": 1.5772727272727272,
                "pitch": 67,
                "velocity": 64,
                "duration": 0.3727272727272726,
                "tempo": 120.0
            },
            {
                "start_time": 1.6113636363636363,
                "end_time": 2.184090909090909,
                "pitch": 71,
                "velocity": 64,
                "duration": 0.5727272727272728,
                "tempo": 120.0
            },
            {
                "start_time": 2.2181818181818183,
                "end_time": 2.7909090909090906,
                "pitch": 67,
                "velocity": 64,
                "duration": 0.5727272727272723,
                "tempo": 120.0
            },
            {
                "start_time": 2.8249999999999997,
                "end_time": 3.1977272727272728,
                "pitch": 72,
                "velocity": 64,
                "duration": 0.372727272727273,
                "tempo": 120.0
            },
            {
                "start_time": 3.6295454545454544,
                "end_time": 4.3954545454545455,
                "pitch": 60,
                "velocity": 64,
                "duration": 0.7659090909090911,
                "tempo": 120.0
            },
            {
                "start_time": 4.429545454545455,
                "end_time": 4.795454545454545,
                "pitch": 60,
                "velocity": 64,
                "duration": 0.3659090909090903,
                "tempo": 120.0
            },
            {
                "start_time": 4.829545454545454,
                "end_time": 5.209090909090909,
                "pitch": 60,
                "velocity": 64,
                "duration": 0.37954545454545485,
                "tempo": 120.0
            }
        ],
        "Electric Guitar (clean)": [
            {
                "start_time": 0.004545454545454545,
                "end_time": 0.36136363636363633,
                "pitch": 48,
                "velocity": 51,
                "duration": 0.3568181818181818,
                "tempo": 120.0
            },
            {
                "start_time": 0.39545454545454545,
                "end_time": 0.5636363636363636,
                "pitch": 43,
                "velocity": 51,
                "duration": 0.16818181818181815,
                "tempo": 120.0
            },
            {
                "start_time": 0.5977272727272727,
                "end_time": 0.7659090909090909,
                "pitch": 44,
                "velocity": 51,
                "duration": 0.1681818181818182,
                "tempo": 120.0
            },
            {
                "start_time": 1.2045454545454546,
                "end_time": 1.5772727272727272,
                "pitch": 47,
                "velocity": 51,
                "duration": 0.3727272727272726,
                "tempo": 120.0
            },
            {
                "start_time": 1.6113636363636363,
                "end_time": 1.9818181818181817,
                "pitch": 48,
                "velocity": 51,
                "duration": 0.37045454545454537,
                "tempo": 120.0
            },
            {
                "start_time": 2.0159090909090907,
                "end_time": 2.184090909090909,
                "pitch": 43,
                "velocity": 51,
                "duration": 0.16818181818181843,
                "tempo": 120.0
            },
            {
                "start_time": 2.2181818181818183,
                "end_time": 2.3863636363636362,
                "pitch": 44,
                "velocity": 51,
                "duration": 0.168181818181818,
                "tempo": 120.0
            },
            {
                "start_time": 2.8249999999999997,
                "end_time": 3.1977272727272728,
                "pitch": 47,
                "velocity": 51,
                "duration": 0.372727272727273,
                "tempo": 120.0
            },
            {
                "start_time": 3.2295454545454545,
                "end_time": 3.5954545454545452,
                "pitch": 48,
                "velocity": 51,
                "duration": 0.36590909090909074,
                "tempo": 120.0
            },
            {
                "start_time": 3.6295454545454544,
                "end_time": 3.995454545454545,
                "pitch": 53,
                "velocity": 51,
                "duration": 0.36590909090909074,
                "tempo": 120.0
            },
            {
                "start_time": 4.029545454545454,
                "end_time": 4.3954545454545455,
                "pitch": 56,
                "velocity": 51,
                "duration": 0.3659090909090912,
                "tempo": 120.0
            },
            {
                "start_time": 4.429545454545455,
                "end_time": 4.795454545454545,
                "pitch": 55,
                "velocity": 51,
                "duration": 0.3659090909090903,
                "tempo": 120.0
            },
            {
                "start_time": 4.829545454545454,
                "end_time": 5.209090909090909,
                "pitch": 36,
                "velocity": 51,
                "duration": 0.37954545454545485,
                "tempo": 120.0
            }
        ],
        "Vibraphone": [
            {
                "start_time": 0.004545454545454545,
                "end_time": 0.1590909090909091,
                "pitch": 72,
                "velocity": 40,
                "duration": 0.15454545454545454,
                "tempo": 120.0
            },
            {
                "start_time": 0.19318181818181818,
                "end_time": 0.36136363636363633,
                "pitch": 83,
                "velocity": 40,
                "duration": 0.16818181818181815,
                "tempo": 120.0
            },
            {
                "start_time": 0.39545454545454545,
                "end_time": 0.5636363636363636,
                "pitch": 84,
                "velocity": 40,
                "duration": 0.16818181818181815,
                "tempo": 120.0
            },
            {
                "start_time": 0.7999999999999999,
                "end_time": 0.9681818181818181,
                "pitch": 70,
                "velocity": 40,
                "duration": 0.1681818181818182,
                "tempo": 120.0
            },
            {
                "start_time": 1.0022727272727272,
                "end_time": 1.1704545454545454,
                "pitch": 80,
                "velocity": 40,
                "duration": 0.1681818181818182,
                "tempo": 120.0
            },
            {
                "start_time": 1.2045454545454546,
                "end_time": 1.375,
                "pitch": 82,
                "velocity": 40,
                "duration": 0.17045454545454541,
                "tempo": 120.0
            },
            {
                "start_time": 1.6113636363636363,
                "end_time": 1.7795454545454545,
                "pitch": 68,
                "velocity": 40,
                "duration": 0.1681818181818182,
                "tempo": 120.0
            },
            {
                "start_time": 1.8136363636363635,
                "end_time": 1.9818181818181817,
                "pitch": 79,
                "velocity": 40,
                "duration": 0.1681818181818182,
                "tempo": 120.0
            },
            {
                "start_time": 2.0159090909090907,
                "end_time": 2.184090909090909,
                "pitch": 80,
                "velocity": 40,
                "duration": 0.16818181818181843,
                "tempo": 120.0
            },
            {
                "start_time": 2.4204545454545454,
                "end_time": 2.5886363636363634,
                "pitch": 67,
                "velocity": 40,
                "duration": 0.168181818181818,
                "tempo": 120.0
            },
            {
                "start_time": 2.6227272727272726,
                "end_time": 2.7909090909090906,
                "pitch": 77,
                "velocity": 40,
                "duration": 0.168181818181818,
                "tempo": 120.0
            },
            {
                "start_time": 2.8249999999999997,
                "end_time": 2.993181818181818,
                "pitch": 79,
                "velocity": 40,
                "duration": 0.16818181818181843,
                "tempo": 120.0
            },
            {
                "start_time": 3.2295454545454545,
                "end_time": 3.3977272727272725,
                "pitch": 68,
                "velocity": 40,
                "duration": 0.168181818181818,
                "tempo": 120.0
            },
            {
                "start_time": 3.4295454545454542,
                "end_time": 3.5954545454545452,
                "pitch": 79,
                "velocity": 40,
                "duration": 0.165909090909091,
                "tempo": 120.0
            },
            {
                "start_time": 3.6295454545454544,
                "end_time": 3.7954545454545454,
                "pitch": 80,
                "velocity": 40,
                "duration": 0.165909090909091,
                "tempo": 120.0
            },
            {
                "start_time": 4.029545454545454,
                "end_time": 4.195454545454545,
                "pitch": 70,
                "velocity": 40,
                "duration": 0.165909090909091,
                "tempo": 120.0
            },
            {
                "start_time": 4.2295454545454545,
                "end_time": 4.3954545454545455,
                "pitch": 80,
                "velocity": 40,
                "duration": 0.165909090909091,
                "tempo": 120.0
            },
            {
                "start_time": 4.429545454545455,
                "end_time": 4.595454545454545,
                "pitch": 82,
                "velocity": 40,
                "duration": 0.16590909090909012,
                "tempo": 120.0
            },
            {
                "start_time": 4.829545454545454,
                "end_time": 5.002272727272727,
                "pitch": 72,
                "velocity": 40,
                "duration": 0.17272727272727284,
                "tempo": 120.0
            },
            {
                "start_time": 5.036363636363636,
                "end_time": 5.209090909090909,
                "pitch": 83,
                "velocity": 40,
                "duration": 0.17272727272727284,
                "tempo": 120.0
            },
            {
                "start_time": 5.245454545454545,
                "end_time": 5.418181818181818,
                "pitch": 84,
                "velocity": 40,
                "duration": 0.17272727272727284,
                "tempo": 120.0
            },
            {
                "start_time": 5.452272727272727,
                "end_time": 5.627272727272727,
                "pitch": 83,
                "velocity": 40,
                "duration": 0.17499999999999982,
                "tempo": 120.0
            },
            {
                "start_time": 5.661363636363636,
                "end_time": 6.0613636363636365,
                "pitch": 84,
                "velocity": 40,
                "duration": 0.40000000000000036,
                "tempo": 120.0
            }
        ]
    }
}