{
    "track_id": "Penguin Land (FM) - 06 - Unknown Music",
    "mood": "sad",
    "instruments": {
        "Clarinet": [
            {
                "start_time": 0.013636363636363636,
                "end_time": 0.18181818181818182,
                "pitch": 65,
                "velocity": 51,
                "duration": 0.16818181818181818,
                "tempo": 120.0
            },
            {
                "start_time": 0.19772727272727272,
                "end_time": 0.3840909090909091,
                "pitch": 67,
                "velocity": 51,
                "duration": 0.18636363636363637,
                "tempo": 120.0
            },
            {
                "start_time": 0.39999999999999997,
                "end_time": 0.5863636363636363,
                "pitch": 68,
                "velocity": 51,
                "duration": 0.18636363636363634,
                "tempo": 120.0
            },
            {
                "start_time": 0.6022727272727273,
                "end_time": 0.7840909090909091,
                "pitch": 71,
                "velocity": 51,
                "duration": 0.18181818181818177,
                "tempo": 120.0
            },
            {
                "start_time": 0.7999999999999999,
                "end_time": 0.9818181818181818,
                "pitch": 72,
                "velocity": 51,
                "duration": 0.18181818181818188,
                "tempo": 120.0
            },
            {
                "start_time": 0.9977272727272727,
                "end_time": 1.1795454545454545,
                "pitch": 74,
                "velocity": 51,
                "duration": 0.18181818181818177,
                "tempo": 120.0
            },
            {
                "start_time": 1.1977272727272728,
                "end_time": 1.4795454545454545,
                "pitch": 77,
                "velocity": 51,
                "duration": 0.28181818181818175,
                "tempo": 120.0
            },
            {
                "start_time": 1.4977272727272726,
                "end_time": 2.0818181818181816,
                "pitch": 80,
                "velocity": 51,
                "duration": 0.584090909090909,
                "tempo": 120.0
            },
            {
                "start_time": 2.1,
                "end_time": 2.3863636363636362,
                "pitch": 79,
                "velocity": 51,
                "duration": 0.28636363636363615,
                "tempo": 120.0
            },
            {
                "start_time": 2.4022727272727273,
                "end_time": 3.590909090909091,
                "pitch": 86,
                "velocity": 51,
                "duration": 1.1886363636363635,
                "tempo": 120.0
            },
            {
                "start_time": 3.609090909090909,
                "end_time": 4.804545454545455,
                "pitch": 83,
                "velocity": 51,
                "duration": 1.1954545454545458,
                "tempo": 120.0
            },
            {
                "start_time": 4.820454545454545,
                "end_time": 6.6045454545454545,
                "pitch": 84,
                "velocity": 51,
                "duration": 1.7840909090909092,
                "tempo": 120.0
            },
            {
                "start_time": 6.620454545454545,
                "end_time": 9.636363636363637,
                "pitch": 84,
                "velocity": 51,
                "duration": 3.0159090909090915,
                "tempo": 120.0
            }
        ],
        "Acoustic Bass": [
            {
                "start_time": 0.013636363636363636,
                "end_time": 0.5863636363636363,
                "pitch": 47,
                "velocity": 40,
                "duration": 0.5727272727272726,
                "tempo": 120.0
            },
            {
                "start_time": 0.6022727272727273,
                "end_time": 1.1795454545454545,
                "pitch": 44,
                "velocity": 40,
                "duration": 0.5772727272727272,
                "tempo": 120.0
            },
            {
                "start_time": 1.1977272727272728,
                "end_time": 1.7795454545454545,
                "pitch": 41,
                "velocity": 40,
                "duration": 0.5818181818181818,
                "tempo": 120.0
            },
            {
                "start_time": 1.7977272727272726,
                "end_time": 2.3863636363636362,
                "pitch": 38,
                "velocity": 40,
                "duration": 0.5886363636363636,
                "tempo": 120.0
            },
            {
                "start_time": 2.4022727272727273,
                "end_time": 3.590909090909091,
                "pitch": 35,
                "velocity": 40,
                "duration": 1.1886363636363635,
                "tempo": 120.0
            },
            {
                "start_time": 3.609090909090909,
                "end_time": 4.804545454545455,
                "pitch": 31,
                "velocity": 40,
                "duration": 1.1954545454545458,
                "tempo": 120.0
            },
            {
                "start_time": 4.820454545454545,
                "end_time": 6.6045454545454545,
                "pitch": 36,
                "velocity": 40,
                "duration": 1.7840909090909092,
                "tempo": 120.0
            },
            {
                "start_time": 6.620454545454545,
                "end_time": 9.636363636363637,
                "pitch": 36,
                "velocity": 40,
                "duration": 3.0159090909090915,
                "tempo": 120.0
            }
        ],
        "Harpsichord": [
            {
                "start_time": 0.04772727272727272,
                "end_time": 0.5863636363636363,
                "pitch": 74,
                "velocity": 32,
                "duration": 0.5386363636363636,
                "tempo": 120.0
            },
            {
                "start_time": 0.6022727272727273,
                "end_time": 0.6363636363636364,
                "pitch": 69,
                "velocity": 32,
                "duration": 0.03409090909090906,
                "tempo": 120.0
            },
            {
                "start_time": 0.6522727272727272,
                "end_time": 1.1795454545454545,
                "pitch": 71,
                "velocity": 32,
                "duration": 0.5272727272727272,
                "tempo": 120.0
            },
            {
                "start_time": 1.1977272727272728,
                "end_time": 1.2295454545454545,
                "pitch": 67,
                "velocity": 32,
                "duration": 0.031818181818181746,
                "tempo": 120.0
            },
            {
                "start_time": 1.2477272727272726,
                "end_time": 1.7795454545454545,
                "pitch": 68,
                "velocity": 32,
                "duration": 0.531818181818182,
                "tempo": 120.0
            },
            {
                "start_time": 1.7977272727272726,
                "end_time": 1.8295454545454544,
                "pitch": 64,
                "velocity": 32,
                "duration": 0.031818181818181746,
                "tempo": 120.0
            },
            {
                "start_time": 1.8477272727272727,
                "end_time": 2.134090909090909,
                "pitch": 65,
                "velocity": 32,
                "duration": 0.28636363636363615,
                "tempo": 120.0
            },
            {
                "start_time": 2.15,
                "end_time": 2.3863636363636362,
                "pitch": 64,
                "velocity": 32,
                "duration": 0.23636363636363633,
                "tempo": 120.0
            },
            {
                "start_time": 2.4022727272727273,
                "end_time": 2.686363636363636,
                "pitch": 65,
                "velocity": 32,
                "duration": 0.2840909090909087,
                "tempo": 120.0
            },
            {
                "start_time": 2.702272727272727,
                "end_time": 2.9863636363636363,
                "pitch": 64,
                "velocity": 32,
                "duration": 0.28409090909090917,
                "tempo": 120.0
            },
            {
                "start_time": 3.002272727272727,
                "end_time": 3.2886363636363636,
                "pitch": 62,
                "velocity": 32,
                "duration": 0.2863636363636366,
                "tempo": 120.0
            },
            {
                "start_time": 3.3068181818181817,
                "end_time": 3.590909090909091,
                "pitch": 60,
                "velocity": 32,
                "duration": 0.28409090909090917,
                "tempo": 120.0
            },
            {
                "start_time": 3.609090909090909,
                "end_time": 3.895454545454545,
                "pitch": 59,
                "velocity": 32,
                "duration": 0.28636363636363615,
                "tempo": 120.0
            },
            {
                "start_time": 3.911363636363636,
                "end_time": 4.197727272727272,
                "pitch": 60,
                "velocity": 32,
                "duration": 0.28636363636363615,
                "tempo": 120.0
            },
            {
                "start_time": 4.215909090909091,
                "end_time": 4.5,
                "pitch": 62,
                "velocity": 32,
                "duration": 0.28409090909090917,
                "tempo": 120.0
            },
            {
                "start_time": 4.518181818181818,
                "end_time": 4.804545454545455,
                "pitch": 64,
                "velocity": 32,
                "duration": 0.28636363636363704,
                "tempo": 120.0
            },
            {
                "start_time": 4.820454545454545,
                "end_time": 5.706818181818181,
                "pitch": 65,
                "velocity": 32,
                "duration": 0.8863636363636358,
                "tempo": 120.0
            },
            {
                "start_time": 5.725,
                "end_time": 6.6045454545454545,
                "pitch": 64,
                "velocity": 32,
                "duration": 0.8795454545454549,
                "tempo": 120.0
            },
            {
                "start_time": 6.620454545454545,
                "end_time": 9.636363636363637,
                "pitch": 64,
                "velocity": 32,
                "duration": 3.0159090909090915,
                "tempo": 120.0
            }
        ]
    }
}