{
    "track_id": "Phantasy Star (FM) - 17 - Dark Falz",
    "mood": "sad",
    "instruments": {
        "Oboe": [
            {
                "start_time": 0.0,
                "end_time": 0.18409090909090908,
                "pitch": 38,
                "velocity": 51,
                "duration": 0.18409090909090908,
                "tempo": 120.0
            },
            {
                "start_time": 0.19999999999999998,
                "end_time": 0.3840909090909091,
                "pitch": 39,
                "velocity": 51,
                "duration": 0.1840909090909091,
                "tempo": 120.0
            },
            {
                "start_time": 0.39999999999999997,
                "end_time": 0.5886363636363636,
                "pitch": 36,
                "velocity": 51,
                "duration": 0.18863636363636366,
                "tempo": 120.0
            },
            {
                "start_time": 0.6045454545454545,
                "end_time": 0.7931818181818181,
                "pitch": 36,
                "velocity": 51,
                "duration": 0.1886363636363636,
                "tempo": 120.0
            },
            {
                "start_time": 0.8113636363636363,
                "end_time": 0.9909090909090909,
                "pitch": 36,
                "velocity": 51,
                "duration": 0.17954545454545456,
                "tempo": 120.0
            },
            {
                "start_time": 1.0068181818181818,
                "end_time": 1.1863636363636363,
                "pitch": 36,
                "velocity": 51,
                "duration": 0.17954545454545445,
                "tempo": 120.0
            },
            {
                "start_time": 1.2022727272727272,
                "end_time": 1.3863636363636362,
                "pitch": 36,
                "velocity": 51,
                "duration": 0.18409090909090908,
                "tempo": 120.0
            },
            {
                "start_time": 1.4022727272727271,
                "end_time": 1.5863636363636362,
                "pitch": 36,
                "velocity": 51,
                "duration": 0.18409090909090908,
                "tempo": 120.0
            },
            {
                "start_time": 1.6022727272727273,
                "end_time": 1.7863636363636364,
                "pitch": 35,
                "velocity": 51,
                "duration": 0.18409090909090908,
                "tempo": 120.0
            },
            {
                "start_time": 1.8045454545454545,
                "end_time": 1.9886363636363635,
                "pitch": 36,
                "velocity": 51,
                "duration": 0.18409090909090908,
                "tempo": 120.0
            },
            {
                "start_time": 2.0045454545454544,
                "end_time": 2.193181818181818,
                "pitch": 36,
                "velocity": 51,
                "duration": 0.1886363636363635,
                "tempo": 120.0
            },
            {
                "start_time": 2.2113636363636364,
                "end_time": 2.4,
                "pitch": 36,
                "velocity": 51,
                "duration": 0.1886363636363635,
                "tempo": 120.0
            },
            {
                "start_time": 2.415909090909091,
                "end_time": 2.5954545454545452,
                "pitch": 36,
                "velocity": 51,
                "duration": 0.17954545454545423,
                "tempo": 120.0
            },
            {
                "start_time": 2.6113636363636363,
                "end_time": 2.793181818181818,
                "pitch": 36,
                "velocity": 51,
                "duration": 0.18181818181818166,
                "tempo": 120.0
            },
            {
                "start_time": 2.809090909090909,
                "end_time": 2.995454545454545,
                "pitch": 36,
                "velocity": 51,
                "duration": 0.18636363636363606,
                "tempo": 120.0
            },
            {
                "start_time": 3.0136363636363637,
                "end_time": 3.202272727272727,
                "pitch": 36,
                "velocity": 51,
                "duration": 0.1886363636363635,
                "tempo": 120.0
            },
            {
                "start_time": 3.218181818181818,
                "end_time": 3.3977272727272725,
                "pitch": 38,
                "velocity": 51,
                "duration": 0.17954545454545467,
                "tempo": 120.0
            },
            {
                "start_time": 3.4159090909090906,
                "end_time": 3.5954545454545452,
                "pitch": 39,
                "velocity": 51,
                "duration": 0.17954545454545467,
                "tempo": 120.0
            },
            {
                "start_time": 3.6113636363636363,
                "end_time": 3.7954545454545454,
                "pitch": 36,
                "velocity": 51,
                "duration": 0.18409090909090908,
                "tempo": 120.0
            },
            {
                "start_time": 3.811363636363636,
                "end_time": 3.995454545454545,
                "pitch": 36,
                "velocity": 51,
                "duration": 0.18409090909090908,
                "tempo": 120.0
            },
            {
                "start_time": 4.011363636363636,
                "end_time": 4.195454545454545,
                "pitch": 36,
                "velocity": 51,
                "duration": 0.18409090909090953,
                "tempo": 120.0
            },
            {
                "start_time": 4.211363636363636,
                "end_time": 4.3954545454545455,
                "pitch": 36,
                "velocity": 51,
                "duration": 0.18409090909090953,
                "tempo": 120.0
            },
            {
                "start_time": 4.411363636363636,
                "end_time": 4.6,
                "pitch": 43,
                "velocity": 51,
                "duration": 0.1886363636363635,
                "tempo": 120.0
            },
            {
                "start_time": 4.61590909090909,
                "end_time": 5.002272727272727,
                "pitch": 42,
                "velocity": 51,
                "duration": 0.3863636363636367,
                "tempo": 120.0
            },
            {
                "start_time": 5.018181818181818,
                "end_time": 5.197727272727272,
                "pitch": 42,
                "velocity": 51,
                "duration": 0.17954545454545467,
                "tempo": 120.0
            },
            {
                "start_time": 5.213636363636363,
                "end_time": 5.6,
                "pitch": 42,
                "velocity": 51,
                "duration": 0.3863636363636367,
                "tempo": 120.0
            },
            {
                "start_time": 5.61590909090909,
                "end_time": 6.0,
                "pitch": 40,
                "velocity": 51,
                "duration": 0.3840909090909097,
                "tempo": 120.0
            },
            {
                "start_time": 6.015909090909091,
                "end_time": 6.402272727272727,
                "pitch": 38,
                "velocity": 51,
                "duration": 0.3863636363636367,
                "tempo": 120.0
            },
            {
                "start_time": 6.418181818181818,
                "end_time": 6.6045454545454545,
                "pitch": 38,
                "velocity": 51,
                "duration": 0.1863636363636365,
                "tempo": 120.0
            },
            {
                "start_time": 6.620454545454545,
                "end_time": 6.804545454545454,
                "pitch": 39,
                "velocity": 51,
                "duration": 0.18409090909090864,
                "tempo": 120.0
            },
            {
                "start_time": 6.822727272727272,
                "end_time": 7.004545454545454,
                "pitch": 36,
                "velocity": 51,
                "duration": 0.18181818181818166,
                "tempo": 120.0
            },
            {
                "start_time": 7.0227272727272725,
                "end_time": 7.204545454545454,
                "pitch": 36,
                "velocity": 51,
                "duration": 0.18181818181818166,
                "tempo": 120.0
            },
            {
                "start_time": 7.222727272727273,
                "end_time": 7.406818181818181,
                "pitch": 36,
                "velocity": 51,
                "duration": 0.18409090909090864,
                "tempo": 120.0
            },
            {
                "start_time": 7.422727272727272,
                "end_time": 7.6068181818181815,
                "pitch": 36,
                "velocity": 51,
                "duration": 0.18409090909090953,
                "tempo": 120.0
            },
            {
                "start_time": 7.625,
                "end_time": 7.809090909090909,
                "pitch": 36,
                "velocity": 51,
                "duration": 0.18409090909090864,
                "tempo": 120.0
            },
            {
                "start_time": 7.824999999999999,
                "end_time": 8.009090909090908,
                "pitch": 36,
                "velocity": 51,
                "duration": 0.18409090909090864,
                "tempo": 120.0
            },
            {
                "start_time": 8.025,
                "end_time": 8.209090909090909,
                "pitch": 35,
                "velocity": 51,
                "duration": 0.18409090909090864,
                "tempo": 120.0
            },
            {
                "start_time": 8.225,
                "end_time": 8.411363636363635,
                "pitch": 36,
                "velocity": 51,
                "duration": 0.18636363636363562,
                "tempo": 120.0
            },
            {
                "start_time": 8.427272727272728,
                "end_time": 8.611363636363636,
                "pitch": 36,
                "velocity": 51,
                "duration": 0.18409090909090864,
                "tempo": 120.0
            },
            {
                "start_time": 8.629545454545454,
                "end_time": 8.813636363636363,
                "pitch": 36,
                "velocity": 51,
                "duration": 0.18409090909090864,
                "tempo": 120.0
            },
            {
                "start_time": 8.829545454545453,
                "end_time": 9.013636363636364,
                "pitch": 36,
                "velocity": 51,
                "duration": 0.18409090909091042,
                "tempo": 120.0
            },
            {
                "start_time": 9.031818181818181,
                "end_time": 9.21590909090909,
                "pitch": 36,
                "velocity": 51,
                "duration": 0.18409090909090864,
                "tempo": 120.0
            },
            {
                "start_time": 9.23181818181818,
                "end_time": 9.420454545454545,
                "pitch": 36,
                "velocity": 51,
                "duration": 0.18863636363636438,
                "tempo": 120.0
            },
            {
                "start_time": 9.438636363636363,
                "end_time": 9.627272727272727,
                "pitch": 36,
                "velocity": 51,
                "duration": 0.18863636363636438,
                "tempo": 120.0
            },
            {
                "start_time": 9.643181818181818,
                "end_time": 9.822727272727272,
                "pitch": 38,
                "velocity": 51,
                "duration": 0.17954545454545467,
                "tempo": 120.0
            },
            {
                "start_time": 9.838636363636363,
                "end_time": 10.018181818181818,
                "pitch": 39,
                "velocity": 51,
                "duration": 0.17954545454545467,
                "tempo": 120.0
            },
            {
                "start_time": 10.036363636363635,
                "end_time": 10.220454545454546,
                "pitch": 36,
                "velocity": 51,
                "duration": 0.18409090909091042,
                "tempo": 120.0
            },
            {
                "start_time": 10.236363636363636,
                "end_time": 10.420454545454545,
                "pitch": 36,
                "velocity": 51,
                "duration": 0.18409090909090864,
                "tempo": 120.0
            },
            {
                "start_time": 10.438636363636363,
                "end_time": 10.622727272727273,
                "pitch": 36,
                "velocity": 51,
                "duration": 0.18409090909091042,
                "tempo": 120.0
            },
            {
                "start_time": 10.638636363636364,
                "end_time": 10.825,
                "pitch": 36,
                "velocity": 51,
                "duration": 0.18636363636363562,
                "tempo": 120.0
            },
            {
                "start_time": 10.84090909090909,
                "end_time": 11.029545454545454,
                "pitch": 43,
                "velocity": 51,
                "duration": 0.18863636363636438,
                "tempo": 120.0
            },
            {
                "start_time": 11.045454545454545,
                "end_time": 11.627272727272727,
                "pitch": 42,
                "velocity": 51,
                "duration": 0.581818181818182,
                "tempo": 120.0
            },
            {
                "start_time": 11.643181818181818,
                "end_time": 12.029545454545454,
                "pitch": 45,
                "velocity": 51,
                "duration": 0.3863636363636367,
                "tempo": 120.0
            },
            {
                "start_time": 12.047727272727272,
                "end_time": 12.44090909090909,
                "pitch": 43,
                "velocity": 51,
                "duration": 0.39318181818181763,
                "tempo": 120.0
            },
            {
                "start_time": 12.456818181818182,
                "end_time": 12.636363636363635,
                "pitch": 42,
                "velocity": 51,
                "duration": 0.1795454545454529,
                "tempo": 120.0
            },
            {
                "start_time": 12.654545454545454,
                "end_time": 13.836363636363636,
                "pitch": 40,
                "velocity": 51,
                "duration": 1.1818181818181817,
                "tempo": 120.0
            },
            {
                "start_time": 13.854545454545454,
                "end_time": 14.038636363636362,
                "pitch": 38,
                "velocity": 51,
                "duration": 0.18409090909090864,
                "tempo": 120.0
            },
            {
                "start_time": 14.054545454545455,
                "end_time": 14.238636363636363,
                "pitch": 40,
                "velocity": 51,
                "duration": 0.18409090909090864,
                "tempo": 120.0
            },
            {
                "start_time": 14.256818181818181,
                "end_time": 14.843181818181817,
                "pitch": 36,
                "velocity": 51,
                "duration": 0.586363636363636,
                "tempo": 120.0
            },
            {
                "start_time": 14.861363636363636,
                "end_time": 15.045454545454545,
                "pitch": 43,
                "velocity": 51,
                "duration": 0.18409090909090864,
                "tempo": 120.0
            },
            {
                "start_time": 15.061363636363636,
                "end_time": 15.445454545454545,
                "pitch": 42,
                "velocity": 51,
                "duration": 0.3840909090909097,
                "tempo": 120.0
            },
            {
                "start_time": 15.463636363636363,
                "end_time": 15.847727272727273,
                "pitch": 40,
                "velocity": 51,
                "duration": 0.3840909090909097,
                "tempo": 120.0
            },
            {
                "start_time": 15.863636363636363,
                "end_time": 16.047727272727272,
                "pitch": 38,
                "velocity": 51,
                "duration": 0.18409090909090864,
                "tempo": 120.0
            },
            {
                "start_time": 16.06590909090909,
                "end_time": 17.052272727272726,
                "pitch": 36,
                "velocity": 51,
                "duration": 0.9863636363636346,
                "tempo": 120.0
            },
            {
                "start_time": 17.070454545454545,
                "end_time": 17.254545454545454,
                "pitch": 35,
                "velocity": 51,
                "duration": 0.18409090909090864,
                "tempo": 120.0
            },
            {
                "start_time": 17.270454545454545,
                "end_time": 17.459090909090907,
                "pitch": 36,
                "velocity": 51,
                "duration": 0.1886363636363626,
                "tempo": 120.0
            },
            {
                "start_time": 17.477272727272727,
                "end_time": 17.861363636363635,
                "pitch": 38,
                "velocity": 51,
                "duration": 0.38409090909090793,
                "tempo": 120.0
            },
            {
                "start_time": 17.877272727272725,
                "end_time": 18.05681818181818,
                "pitch": 38,
                "velocity": 51,
                "duration": 0.17954545454545467,
                "tempo": 120.0
            },
            {
                "start_time": 18.075,
                "end_time": 18.25681818181818,
                "pitch": 38,
                "velocity": 51,
                "duration": 0.18181818181817988,
                "tempo": 120.0
            },
            {
                "start_time": 18.275,
                "end_time": 18.456818181818182,
                "pitch": 38,
                "velocity": 51,
                "duration": 0.18181818181818343,
                "tempo": 120.0
            },
            {
                "start_time": 18.474999999999998,
                "end_time": 18.65681818181818,
                "pitch": 38,
                "velocity": 51,
                "duration": 0.18181818181818343,
                "tempo": 120.0
            },
            {
                "start_time": 18.675,
                "end_time": 18.85681818181818,
                "pitch": 38,
                "velocity": 51,
                "duration": 0.18181818181817988,
                "tempo": 120.0
            },
            {
                "start_time": 18.875,
                "end_time": 19.259090909090908,
                "pitch": 38,
                "velocity": 51,
                "duration": 0.38409090909090793,
                "tempo": 120.0
            },
            {
                "start_time": 19.277272727272727,
                "end_time": 20.263636363636362,
                "pitch": 40,
                "velocity": 51,
                "duration": 0.9863636363636346,
                "tempo": 120.0
            },
            {
                "start_time": 20.279545454545453,
                "end_time": 20.46363636363636,
                "pitch": 38,
                "velocity": 51,
                "duration": 0.18409090909090864,
                "tempo": 120.0
            },
            {
                "start_time": 20.479545454545452,
                "end_time": 20.663636363636364,
                "pitch": 40,
                "velocity": 51,
                "duration": 0.1840909090909122,
                "tempo": 120.0
            },
            {
                "start_time": 20.679545454545455,
                "end_time": 21.26590909090909,
                "pitch": 36,
                "velocity": 51,
                "duration": 0.586363636363636,
                "tempo": 120.0
            },
            {
                "start_time": 21.28181818181818,
                "end_time": 21.66590909090909,
                "pitch": 43,
                "velocity": 51,
                "duration": 0.38409090909090793,
                "tempo": 120.0
            },
            {
                "start_time": 21.68181818181818,
                "end_time": 22.068181818181817,
                "pitch": 42,
                "velocity": 51,
                "duration": 0.3863636363636367,
                "tempo": 120.0
            },
            {
                "start_time": 22.084090909090907,
                "end_time": 22.268181818181816,
                "pitch": 40,
                "velocity": 51,
                "duration": 0.18409090909090864,
                "tempo": 120.0
            },
            {
                "start_time": 22.284090909090907,
                "end_time": 23.470454545454544,
                "pitch": 45,
                "velocity": 51,
                "duration": 1.1863636363636374,
                "tempo": 120.0
            },
            {
                "start_time": 23.488636363636363,
                "end_time": 23.670454545454543,
                "pitch": 43,
                "velocity": 51,
                "duration": 0.18181818181817988,
                "tempo": 120.0
            },
            {
                "start_time": 23.688636363636363,
                "end_time": 24.081818181818182,
                "pitch": 45,
                "velocity": 51,
                "duration": 0.3931818181818194,
                "tempo": 120.0
            },
            {
                "start_time": 24.097727272727273,
                "end_time": 24.87272727272727,
                "pitch": 43,
                "velocity": 51,
                "duration": 0.7749999999999986,
                "tempo": 120.0
            },
            {
                "start_time": 24.89090909090909,
                "end_time": 25.677272727272726,
                "pitch": 42,
                "velocity": 51,
                "duration": 0.7863636363636353,
                "tempo": 120.0
            }
        ],
        "Trumpet": [
            {
                "start_time": 0.0,
                "end_time": 0.18409090909090908,
                "pitch": 67,
                "velocity": 51,
                "duration": 0.18409090909090908,
                "tempo": 120.0
            },
            {
                "start_time": 0.19999999999999998,
                "end_time": 0.3840909090909091,
                "pitch": 63,
                "velocity": 51,
                "duration": 0.1840909090909091,
                "tempo": 120.0
            },
            {
                "start_time": 0.39999999999999997,
                "end_time": 0.7931818181818181,
                "pitch": 60,
                "velocity": 51,
                "duration": 0.39318181818181813,
                "tempo": 120.0
            },
            {
                "start_time": 0.8113636363636363,
                "end_time": 1.1863636363636363,
                "pitch": 72,
                "velocity": 51,
                "duration": 0.375,
                "tempo": 120.0
            },
            {
                "start_time": 1.2022727272727272,
                "end_time": 1.3863636363636362,
                "pitch": 71,
                "velocity": 51,
                "duration": 0.18409090909090908,
                "tempo": 120.0
            },
            {
                "start_time": 1.4022727272727271,
                "end_time": 2.4,
                "pitch": 70,
                "velocity": 51,
                "duration": 0.9977272727272728,
                "tempo": 120.0
            },
            {
                "start_time": 2.415909090909091,
                "end_time": 2.793181818181818,
                "pitch": 67,
                "velocity": 51,
                "duration": 0.377272727272727,
                "tempo": 120.0
            },
            {
                "start_time": 2.809090909090909,
                "end_time": 3.202272727272727,
                "pitch": 72,
                "velocity": 51,
                "duration": 0.3931818181818181,
                "tempo": 120.0
            },
            {
                "start_time": 3.218181818181818,
                "end_time": 3.3977272727272725,
                "pitch": 67,
                "velocity": 51,
                "duration": 0.17954545454545467,
                "tempo": 120.0
            },
            {
                "start_time": 3.4159090909090906,
                "end_time": 3.5954545454545452,
                "pitch": 63,
                "velocity": 51,
                "duration": 0.17954545454545467,
                "tempo": 120.0
            },
            {
                "start_time": 3.6113636363636363,
                "end_time": 3.7954545454545454,
                "pitch": 60,
                "velocity": 51,
                "duration": 0.18409090909090908,
                "tempo": 120.0
            },
            {
                "start_time": 3.811363636363636,
                "end_time": 4.3954545454545455,
                "pitch": 72,
                "velocity": 51,
                "duration": 0.5840909090909094,
                "tempo": 120.0
            },
            {
                "start_time": 4.411363636363636,
                "end_time": 4.804545454545455,
                "pitch": 71,
                "velocity": 51,
                "duration": 0.3931818181818185,
                "tempo": 120.0
            },
            {
                "start_time": 4.822727272727272,
                "end_time": 5.6,
                "pitch": 70,
                "velocity": 51,
                "duration": 0.7772727272727273,
                "tempo": 120.0
            },
            {
                "start_time": 5.61590909090909,
                "end_time": 6.402272727272727,
                "pitch": 72,
                "velocity": 51,
                "duration": 0.786363636363637,
                "tempo": 120.0
            },
            {
                "start_time": 6.418181818181818,
                "end_time": 6.6045454545454545,
                "pitch": 67,
                "velocity": 51,
                "duration": 0.1863636363636365,
                "tempo": 120.0
            },
            {
                "start_time": 6.620454545454545,
                "end_time": 6.804545454545454,
                "pitch": 63,
                "velocity": 51,
                "duration": 0.18409090909090864,
                "tempo": 120.0
            },
            {
                "start_time": 6.822727272727272,
                "end_time": 7.204545454545454,
                "pitch": 60,
                "velocity": 51,
                "duration": 0.38181818181818183,
                "tempo": 120.0
            },
            {
                "start_time": 7.222727272727273,
                "end_time": 7.6068181818181815,
                "pitch": 72,
                "velocity": 51,
                "duration": 0.3840909090909088,
                "tempo": 120.0
            },
            {
                "start_time": 7.625,
                "end_time": 7.809090909090909,
                "pitch": 71,
                "velocity": 51,
                "duration": 0.18409090909090864,
                "tempo": 120.0
            },
            {
                "start_time": 7.824999999999999,
                "end_time": 8.813636363636363,
                "pitch": 70,
                "velocity": 51,
                "duration": 0.9886363636363633,
                "tempo": 120.0
            },
            {
                "start_time": 8.829545454545453,
                "end_time": 9.21590909090909,
                "pitch": 67,
                "velocity": 51,
                "duration": 0.3863636363636367,
                "tempo": 120.0
            },
            {
                "start_time": 9.23181818181818,
                "end_time": 9.627272727272727,
                "pitch": 72,
                "velocity": 51,
                "duration": 0.3954545454545464,
                "tempo": 120.0
            },
            {
                "start_time": 9.643181818181818,
                "end_time": 9.822727272727272,
                "pitch": 67,
                "velocity": 51,
                "duration": 0.17954545454545467,
                "tempo": 120.0
            },
            {
                "start_time": 9.838636363636363,
                "end_time": 10.018181818181818,
                "pitch": 63,
                "velocity": 51,
                "duration": 0.17954545454545467,
                "tempo": 120.0
            },
            {
                "start_time": 10.036363636363635,
                "end_time": 10.220454545454546,
                "pitch": 60,
                "velocity": 51,
                "duration": 0.18409090909091042,
                "tempo": 120.0
            },
            {
                "start_time": 10.236363636363636,
                "end_time": 10.825,
                "pitch": 72,
                "velocity": 51,
                "duration": 0.588636363636363,
                "tempo": 120.0
            },
            {
                "start_time": 10.84090909090909,
                "end_time": 11.23409090909091,
                "pitch": 71,
                "velocity": 51,
                "duration": 0.3931818181818194,
                "tempo": 120.0
            },
            {
                "start_time": 11.252272727272727,
                "end_time": 12.029545454545454,
                "pitch": 74,
                "velocity": 51,
                "duration": 0.7772727272727273,
                "tempo": 120.0
            },
            {
                "start_time": 12.047727272727272,
                "end_time": 12.834090909090909,
                "pitch": 72,
                "velocity": 51,
                "duration": 0.786363636363637,
                "tempo": 120.0
            },
            {
                "start_time": 12.85,
                "end_time": 12.86590909090909,
                "pitch": 71,
                "velocity": 51,
                "duration": 0.01590909090909065,
                "tempo": 120.0
            },
            {
                "start_time": 12.884090909090908,
                "end_time": 13.034090909090908,
                "pitch": 64,
                "velocity": 51,
                "duration": 0.15000000000000036,
                "tempo": 120.0
            },
            {
                "start_time": 13.049999999999999,
                "end_time": 13.236363636363636,
                "pitch": 67,
                "velocity": 51,
                "duration": 0.1863636363636374,
                "tempo": 120.0
            },
            {
                "start_time": 13.252272727272727,
                "end_time": 13.436363636363636,
                "pitch": 64,
                "velocity": 51,
                "duration": 0.18409090909090864,
                "tempo": 120.0
            },
            {
                "start_time": 13.452272727272726,
                "end_time": 13.836363636363636,
                "pitch": 71,
                "velocity": 51,
                "duration": 0.3840909090909097,
                "tempo": 120.0
            },
            {
                "start_time": 13.854545454545454,
                "end_time": 14.038636363636362,
                "pitch": 67,
                "velocity": 51,
                "duration": 0.18409090909090864,
                "tempo": 120.0
            },
            {
                "start_time": 14.054545454545455,
                "end_time": 14.238636363636363,
                "pitch": 64,
                "velocity": 51,
                "duration": 0.18409090909090864,
                "tempo": 120.0
            },
            {
                "start_time": 14.256818181818181,
                "end_time": 14.44090909090909,
                "pitch": 71,
                "velocity": 51,
                "duration": 0.18409090909090864,
                "tempo": 120.0
            },
            {
                "start_time": 14.45681818181818,
                "end_time": 14.843181818181817,
                "pitch": 67,
                "velocity": 51,
                "duration": 0.3863636363636367,
                "tempo": 120.0
            },
            {
                "start_time": 14.861363636363636,
                "end_time": 15.045454545454545,
                "pitch": 67,
                "velocity": 51,
                "duration": 0.18409090909090864,
                "tempo": 120.0
            },
            {
                "start_time": 15.061363636363636,
                "end_time": 15.445454545454545,
                "pitch": 60,
                "velocity": 51,
                "duration": 0.3840909090909097,
                "tempo": 120.0
            },
            {
                "start_time": 15.463636363636363,
                "end_time": 15.645454545454545,
                "pitch": 64,
                "velocity": 51,
                "duration": 0.18181818181818166,
                "tempo": 120.0
            },
            {
                "start_time": 15.663636363636362,
                "end_time": 16.047727272727272,
                "pitch": 67,
                "velocity": 51,
                "duration": 0.3840909090909097,
                "tempo": 120.0
            },
            {
                "start_time": 16.06590909090909,
                "end_time": 16.452272727272728,
                "pitch": 66,
                "velocity": 51,
                "duration": 0.3863636363636367,
                "tempo": 120.0
            },
            {
                "start_time": 16.46818181818182,
                "end_time": 16.852272727272727,
                "pitch": 67,
                "velocity": 51,
                "duration": 0.38409090909090793,
                "tempo": 120.0
            },
            {
                "start_time": 16.868181818181817,
                "end_time": 17.254545454545454,
                "pitch": 69,
                "velocity": 51,
                "duration": 0.3863636363636367,
                "tempo": 120.0
            },
            {
                "start_time": 17.270454545454545,
                "end_time": 17.663636363636364,
                "pitch": 71,
                "velocity": 51,
                "duration": 0.3931818181818194,
                "tempo": 120.0
            },
            {
                "start_time": 17.68181818181818,
                "end_time": 18.05681818181818,
                "pitch": 69,
                "velocity": 51,
                "duration": 0.375,
                "tempo": 120.0
            },
            {
                "start_time": 18.075,
                "end_time": 18.35681818181818,
                "pitch": 67,
                "velocity": 51,
                "duration": 0.2818181818181813,
                "tempo": 120.0
            },
            {
                "start_time": 18.375,
                "end_time": 18.85681818181818,
                "pitch": 67,
                "velocity": 51,
                "duration": 0.4818181818181806,
                "tempo": 120.0
            },
            {
                "start_time": 18.875,
                "end_time": 19.259090909090908,
                "pitch": 64,
                "velocity": 51,
                "duration": 0.38409090909090793,
                "tempo": 120.0
            },
            {
                "start_time": 19.277272727272727,
                "end_time": 19.46363636363636,
                "pitch": 67,
                "velocity": 51,
                "duration": 0.18636363636363384,
                "tempo": 120.0
            },
            {
                "start_time": 19.48181818181818,
                "end_time": 19.670454545454543,
                "pitch": 64,
                "velocity": 51,
                "duration": 0.1886363636363626,
                "tempo": 120.0
            },
            {
                "start_time": 19.686363636363634,
                "end_time": 19.868181818181817,
                "pitch": 67,
                "velocity": 51,
                "duration": 0.18181818181818343,
                "tempo": 120.0
            },
            {
                "start_time": 19.884090909090908,
                "end_time": 20.263636363636362,
                "pitch": 71,
                "velocity": 51,
                "duration": 0.37954545454545396,
                "tempo": 120.0
            },
            {
                "start_time": 20.279545454545453,
                "end_time": 20.46363636363636,
                "pitch": 67,
                "velocity": 51,
                "duration": 0.18409090909090864,
                "tempo": 120.0
            },
            {
                "start_time": 20.479545454545452,
                "end_time": 20.663636363636364,
                "pitch": 64,
                "velocity": 51,
                "duration": 0.1840909090909122,
                "tempo": 120.0
            },
            {
                "start_time": 20.679545454545455,
                "end_time": 21.063636363636363,
                "pitch": 60,
                "velocity": 51,
                "duration": 0.38409090909090793,
                "tempo": 120.0
            },
            {
                "start_time": 21.081818181818182,
                "end_time": 21.26590909090909,
                "pitch": 60,
                "velocity": 51,
                "duration": 0.18409090909090864,
                "tempo": 120.0
            },
            {
                "start_time": 21.28181818181818,
                "end_time": 21.46590909090909,
                "pitch": 67,
                "velocity": 51,
                "duration": 0.18409090909090864,
                "tempo": 120.0
            },
            {
                "start_time": 21.48181818181818,
                "end_time": 21.86590909090909,
                "pitch": 69,
                "velocity": 51,
                "duration": 0.38409090909090793,
                "tempo": 120.0
            },
            {
                "start_time": 21.884090909090908,
                "end_time": 22.068181818181817,
                "pitch": 69,
                "velocity": 51,
                "duration": 0.18409090909090864,
                "tempo": 120.0
            },
            {
                "start_time": 22.084090909090907,
                "end_time": 22.46818181818182,
                "pitch": 64,
                "velocity": 51,
                "duration": 0.3840909090909115,
                "tempo": 120.0
            },
            {
                "start_time": 22.48409090909091,
                "end_time": 22.868181818181817,
                "pitch": 62,
                "velocity": 51,
                "duration": 0.38409090909090793,
                "tempo": 120.0
            },
            {
                "start_time": 22.884090909090908,
                "end_time": 23.270454545454545,
                "pitch": 62,
                "velocity": 51,
                "duration": 0.3863636363636367,
                "tempo": 120.0
            },
            {
                "start_time": 23.288636363636364,
                "end_time": 23.470454545454544,
                "pitch": 62,
                "velocity": 51,
                "duration": 0.18181818181817988,
                "tempo": 120.0
            },
            {
                "start_time": 23.488636363636363,
                "end_time": 23.670454545454543,
                "pitch": 64,
                "velocity": 51,
                "duration": 0.18181818181817988,
                "tempo": 120.0
            },
            {
                "start_time": 23.688636363636363,
                "end_time": 23.875,
                "pitch": 66,
                "velocity": 51,
                "duration": 0.1863636363636374,
                "tempo": 120.0
            },
            {
                "start_time": 23.893181818181816,
                "end_time": 24.277272727272727,
                "pitch": 64,
                "velocity": 51,
                "duration": 0.3840909090909115,
                "tempo": 120.0
            },
            {
                "start_time": 24.293181818181818,
                "end_time": 24.474999999999998,
                "pitch": 64,
                "velocity": 51,
                "duration": 0.18181818181817988,
                "tempo": 120.0
            },
            {
                "start_time": 24.49090909090909,
                "end_time": 24.672727272727272,
                "pitch": 66,
                "velocity": 51,
                "duration": 0.18181818181818343,
                "tempo": 120.0
            },
            {
                "start_time": 24.69090909090909,
                "end_time": 24.87272727272727,
                "pitch": 67,
                "velocity": 51,
                "duration": 0.18181818181817988,
                "tempo": 120.0
            },
            {
                "start_time": 24.89090909090909,
                "end_time": 25.277272727272727,
                "pitch": 69,
                "velocity": 51,
                "duration": 0.3863636363636367,
                "tempo": 120.0
            },
            {
                "start_time": 25.293181818181818,
                "end_time": 25.677272727272726,
                "pitch": 71,
                "velocity": 51,
                "duration": 0.38409090909090793,
                "tempo": 120.0
            }
        ]
    }
}