{
    "track_id": "Phantasy Star (FM) - 19 - Game Over",
    "mood": "sad",
    "instruments": {
        "Vibraphone": [
            {
                "start_time": 0.0,
                "end_time": 0.1477272727272727,
                "pitch": 71,
                "velocity": 51,
                "duration": 0.1477272727272727,
                "tempo": 120.0
            },
            {
                "start_time": 0.1590909090909091,
                "end_time": 0.3068181818181818,
                "pitch": 68,
                "velocity": 51,
                "duration": 0.14772727272727273,
                "tempo": 120.0
            },
            {
                "start_time": 0.32045454545454544,
                "end_time": 0.4659090909090909,
                "pitch": 71,
                "velocity": 51,
                "duration": 0.14545454545454545,
                "tempo": 120.0
            },
            {
                "start_time": 0.4795454545454545,
                "end_time": 0.6272727272727272,
                "pitch": 70,
                "velocity": 51,
                "duration": 0.1477272727272727,
                "tempo": 120.0
            },
            {
                "start_time": 0.6409090909090909,
                "end_time": 1.0136363636363637,
                "pitch": 66,
                "velocity": 51,
                "duration": 0.3727272727272728,
                "tempo": 120.0
            },
            {
                "start_time": 1.0477272727272726,
                "end_time": 1.4204545454545454,
                "pitch": 70,
                "velocity": 51,
                "duration": 0.3727272727272728,
                "tempo": 120.0
            },
            {
                "start_time": 1.4545454545454546,
                "end_time": 1.8272727272727272,
                "pitch": 66,
                "velocity": 51,
                "duration": 0.3727272727272726,
                "tempo": 120.0
            },
            {
                "start_time": 1.8613636363636363,
                "end_time": 2.234090909090909,
                "pitch": 68,
                "velocity": 51,
                "duration": 0.3727272727272726,
                "tempo": 120.0
            },
            {
                "start_time": 2.268181818181818,
                "end_time": 2.6409090909090907,
                "pitch": 66,
                "velocity": 51,
                "duration": 0.3727272727272726,
                "tempo": 120.0
            },
            {
                "start_time": 2.6727272727272724,
                "end_time": 3.840909090909091,
                "pitch": 61,
                "velocity": 51,
                "duration": 1.1681818181818184,
                "tempo": 120.0
            },
            {
                "start_time": 3.8727272727272726,
                "end_time": 4.640909090909091,
                "pitch": 59,
                "velocity": 51,
                "duration": 0.7681818181818181,
                "tempo": 120.0
            },
            {
                "start_time": 4.672727272727273,
                "end_time": 8.64090909090909,
                "pitch": 64,
                "velocity": 51,
                "duration": 3.968181818181818,
                "tempo": 120.0
            }
        ],
        "Acoustic Grand Piano": [
            {
                "start_time": 0.0,
                "end_time": 0.1477272727272727,
                "pitch": 52,
                "velocity": 51,
                "duration": 0.1477272727272727,
                "tempo": 120.0
            },
            {
                "start_time": 0.1590909090909091,
                "end_time": 0.3068181818181818,
                "pitch": 49,
                "velocity": 51,
                "duration": 0.14772727272727273,
                "tempo": 120.0
            },
            {
                "start_time": 0.32045454545454544,
                "end_time": 0.4659090909090909,
                "pitch": 52,
                "velocity": 51,
                "duration": 0.14545454545454545,
                "tempo": 120.0
            },
            {
                "start_time": 0.4795454545454545,
                "end_time": 0.6272727272727272,
                "pitch": 51,
                "velocity": 51,
                "duration": 0.1477272727272727,
                "tempo": 120.0
            },
            {
                "start_time": 0.6409090909090909,
                "end_time": 1.0136363636363637,
                "pitch": 48,
                "velocity": 51,
                "duration": 0.3727272727272728,
                "tempo": 120.0
            },
            {
                "start_time": 1.0477272727272726,
                "end_time": 1.4204545454545454,
                "pitch": 51,
                "velocity": 51,
                "duration": 0.3727272727272728,
                "tempo": 120.0
            },
            {
                "start_time": 1.4545454545454546,
                "end_time": 1.8272727272727272,
                "pitch": 48,
                "velocity": 51,
                "duration": 0.3727272727272726,
                "tempo": 120.0
            },
            {
                "start_time": 1.8613636363636363,
                "end_time": 2.234090909090909,
                "pitch": 49,
                "velocity": 51,
                "duration": 0.3727272727272726,
                "tempo": 120.0
            },
            {
                "start_time": 2.268181818181818,
                "end_time": 2.6409090909090907,
                "pitch": 48,
                "velocity": 51,
                "duration": 0.3727272727272726,
                "tempo": 120.0
            },
            {
                "start_time": 2.6727272727272724,
                "end_time": 3.840909090909091,
                "pitch": 44,
                "velocity": 51,
                "duration": 1.1681818181818184,
                "tempo": 120.0
            },
            {
                "start_time": 3.8727272727272726,
                "end_time": 4.640909090909091,
                "pitch": 44,
                "velocity": 51,
                "duration": 0.7681818181818181,
                "tempo": 120.0
            },
            {
                "start_time": 4.672727272727273,
                "end_time": 8.64090909090909,
                "pitch": 49,
                "velocity": 51,
                "duration": 3.968181818181818,
                "tempo": 120.0
            }
        ]
    }
}