{
    "track_id": "Phantasy Star (FM) - 18 - Ending",
    "mood": "sad",
    "instruments": {
        "Church Organ": [
            {
                "start_time": 0.0,
                "end_time": 0.6840909090909091,
                "pitch": 61,
                "velocity": 80,
                "duration": 0.6840909090909091,
                "tempo": 120.0
            },
            {
                "start_time": 0.7,
                "end_time": 0.984090909090909,
                "pitch": 57,
                "velocity": 80,
                "duration": 0.28409090909090906,
                "tempo": 120.0
            },
            {
                "start_time": 1.0,
                "end_time": 1.284090909090909,
                "pitch": 64,
                "velocity": 80,
                "duration": 0.28409090909090895,
                "tempo": 120.0
            },
            {
                "start_time": 1.3,
                "end_time": 1.584090909090909,
                "pitch": 62,
                "velocity": 80,
                "duration": 0.28409090909090895,
                "tempo": 120.0
            },
            {
                "start_time": 1.5999999999999999,
                "end_time": 1.8863636363636362,
                "pitch": 61,
                "velocity": 80,
                "duration": 0.2863636363636364,
                "tempo": 120.0
            },
            {
                "start_time": 1.9022727272727271,
                "end_time": 2.1886363636363635,
                "pitch": 62,
                "velocity": 80,
                "duration": 0.2863636363636364,
                "tempo": 120.0
            },
            {
                "start_time": 2.2068181818181816,
                "end_time": 3.093181818181818,
                "pitch": 61,
                "velocity": 80,
                "duration": 0.8863636363636362,
                "tempo": 120.0
            },
            {
                "start_time": 3.109090909090909,
                "end_time": 3.3954545454545455,
                "pitch": 57,
                "velocity": 80,
                "duration": 0.2863636363636366,
                "tempo": 120.0
            },
            {
                "start_time": 3.411363636363636,
                "end_time": 4.6068181818181815,
                "pitch": 57,
                "velocity": 80,
                "duration": 1.1954545454545453,
                "tempo": 120.0
            },
            {
                "start_time": 4.625,
                "end_time": 5.511363636363636,
                "pitch": 59,
                "velocity": 80,
                "duration": 0.8863636363636358,
                "tempo": 120.0
            },
            {
                "start_time": 5.527272727272727,
                "end_time": 5.8136363636363635,
                "pitch": 61,
                "velocity": 80,
                "duration": 0.28636363636363615,
                "tempo": 120.0
            },
            {
                "start_time": 5.829545454545454,
                "end_time": 6.113636363636363,
                "pitch": 62,
                "velocity": 80,
                "duration": 0.28409090909090917,
                "tempo": 120.0
            },
            {
                "start_time": 6.129545454545454,
                "end_time": 6.413636363636363,
                "pitch": 61,
                "velocity": 80,
                "duration": 0.28409090909090917,
                "tempo": 120.0
            },
            {
                "start_time": 6.429545454545455,
                "end_time": 7.006818181818182,
                "pitch": 59,
                "velocity": 80,
                "duration": 0.5772727272727272,
                "tempo": 120.0
            },
            {
                "start_time": 7.0249999999999995,
                "end_time": 8.220454545454546,
                "pitch": 61,
                "velocity": 80,
                "duration": 1.1954545454545462,
                "tempo": 120.0
            },
            {
                "start_time": 8.236363636363636,
                "end_time": 9.424999999999999,
                "pitch": 64,
                "velocity": 80,
                "duration": 1.1886363636363626,
                "tempo": 120.0
            },
            {
                "start_time": 9.443181818181818,
                "end_time": 10.325,
                "pitch": 61,
                "velocity": 80,
                "duration": 0.881818181818181,
                "tempo": 120.0
            },
            {
                "start_time": 10.343181818181817,
                "end_time": 10.625,
                "pitch": 57,
                "velocity": 80,
                "duration": 0.2818181818181831,
                "tempo": 120.0
            },
            {
                "start_time": 10.643181818181818,
                "end_time": 10.929545454545455,
                "pitch": 64,
                "velocity": 80,
                "duration": 0.28636363636363704,
                "tempo": 120.0
            },
            {
                "start_time": 10.945454545454545,
                "end_time": 11.23181818181818,
                "pitch": 62,
                "velocity": 80,
                "duration": 0.28636363636363527,
                "tempo": 120.0
            },
            {
                "start_time": 11.247727272727273,
                "end_time": 11.531818181818181,
                "pitch": 61,
                "velocity": 80,
                "duration": 0.2840909090909083,
                "tempo": 120.0
            },
            {
                "start_time": 11.547727272727272,
                "end_time": 11.831818181818182,
                "pitch": 62,
                "velocity": 80,
                "duration": 0.28409090909091006,
                "tempo": 120.0
            },
            {
                "start_time": 11.847727272727273,
                "end_time": 12.729545454545454,
                "pitch": 61,
                "velocity": 80,
                "duration": 0.881818181818181,
                "tempo": 120.0
            },
            {
                "start_time": 12.745454545454544,
                "end_time": 13.024999999999999,
                "pitch": 57,
                "velocity": 80,
                "duration": 0.2795454545454543,
                "tempo": 120.0
            },
            {
                "start_time": 13.043181818181818,
                "end_time": 14.243181818181817,
                "pitch": 57,
                "velocity": 80,
                "duration": 1.1999999999999993,
                "tempo": 120.0
            },
            {
                "start_time": 14.261363636363635,
                "end_time": 14.543181818181818,
                "pitch": 66,
                "velocity": 80,
                "duration": 0.2818181818181831,
                "tempo": 120.0
            },
            {
                "start_time": 14.561363636363636,
                "end_time": 14.843181818181817,
                "pitch": 64,
                "velocity": 80,
                "duration": 0.2818181818181813,
                "tempo": 120.0
            },
            {
                "start_time": 14.861363636363636,
                "end_time": 15.143181818181818,
                "pitch": 62,
                "velocity": 80,
                "duration": 0.2818181818181813,
                "tempo": 120.0
            },
            {
                "start_time": 15.161363636363635,
                "end_time": 16.043181818181818,
                "pitch": 61,
                "velocity": 80,
                "duration": 0.8818181818181827,
                "tempo": 120.0
            },
            {
                "start_time": 16.061363636363634,
                "end_time": 16.65681818181818,
                "pitch": 62,
                "velocity": 80,
                "duration": 0.5954545454545475,
                "tempo": 120.0
            },
            {
                "start_time": 16.672727272727272,
                "end_time": 18.456818181818182,
                "pitch": 59,
                "velocity": 80,
                "duration": 1.78409090909091,
                "tempo": 120.0
            },
            {
                "start_time": 18.472727272727273,
                "end_time": 19.061363636363634,
                "pitch": 64,
                "velocity": 80,
                "duration": 0.5886363636363612,
                "tempo": 120.0
            },
            {
                "start_time": 19.079545454545453,
                "end_time": 20.268181818181816,
                "pitch": 62,
                "velocity": 80,
                "duration": 1.1886363636363626,
                "tempo": 120.0
            },
            {
                "start_time": 20.284090909090907,
                "end_time": 21.474999999999998,
                "pitch": 61,
                "velocity": 80,
                "duration": 1.1909090909090914,
                "tempo": 120.0
            },
            {
                "start_time": 21.49090909090909,
                "end_time": 24.188636363636363,
                "pitch": 59,
                "velocity": 80,
                "duration": 2.697727272727274,
                "tempo": 120.0
            },
            {
                "start_time": 24.206818181818182,
                "end_time": 24.493181818181817,
                "pitch": 59,
                "velocity": 80,
                "duration": 0.28636363636363527,
                "tempo": 120.0
            },
            {
                "start_time": 24.509090909090908,
                "end_time": 24.795454545454543,
                "pitch": 59,
                "velocity": 80,
                "duration": 0.28636363636363527,
                "tempo": 120.0
            },
            {
                "start_time": 24.813636363636363,
                "end_time": 25.097727272727273,
                "pitch": 59,
                "velocity": 80,
                "duration": 0.28409090909091006,
                "tempo": 120.0
            },
            {
                "start_time": 25.11590909090909,
                "end_time": 25.4,
                "pitch": 59,
                "velocity": 80,
                "duration": 0.28409090909091006,
                "tempo": 120.0
            },
            {
                "start_time": 25.41590909090909,
                "end_time": 25.7,
                "pitch": 59,
                "velocity": 80,
                "duration": 0.28409090909091006,
                "tempo": 120.0
            },
            {
                "start_time": 25.71590909090909,
                "end_time": 26.002272727272725,
                "pitch": 59,
                "velocity": 80,
                "duration": 0.28636363636363527,
                "tempo": 120.0
            },
            {
                "start_time": 26.018181818181816,
                "end_time": 26.304545454545455,
                "pitch": 59,
                "velocity": 80,
                "duration": 0.2863636363636388,
                "tempo": 120.0
            }
        ],
        "French Horn": [
            {
                "start_time": 26.32272727272727,
                "end_time": 26.604545454545452,
                "pitch": 67,
                "velocity": 80,
                "duration": 0.2818181818181813,
                "tempo": 120.0
            },
            {
                "start_time": 26.62272727272727,
                "end_time": 26.904545454545453,
                "pitch": 66,
                "velocity": 80,
                "duration": 0.2818181818181813,
                "tempo": 120.0
            },
            {
                "start_time": 26.922727272727272,
                "end_time": 27.206818181818182,
                "pitch": 64,
                "velocity": 80,
                "duration": 0.28409090909091006,
                "tempo": 120.0
            },
            {
                "start_time": 27.224999999999998,
                "end_time": 27.815909090909088,
                "pitch": 67,
                "velocity": 80,
                "duration": 0.5909090909090899,
                "tempo": 120.0
            },
            {
                "start_time": 27.834090909090907,
                "end_time": 28.12272727272727,
                "pitch": 66,
                "velocity": 80,
                "duration": 0.288636363636364,
                "tempo": 120.0
            },
            {
                "start_time": 28.14090909090909,
                "end_time": 28.718181818181815,
                "pitch": 64,
                "velocity": 80,
                "duration": 0.5772727272727245,
                "tempo": 120.0
            },
            {
                "start_time": 28.73409090909091,
                "end_time": 29.020454545454545,
                "pitch": 69,
                "velocity": 80,
                "duration": 0.28636363636363527,
                "tempo": 120.0
            },
            {
                "start_time": 29.036363636363635,
                "end_time": 29.32272727272727,
                "pitch": 67,
                "velocity": 80,
                "duration": 0.28636363636363527,
                "tempo": 120.0
            },
            {
                "start_time": 29.34090909090909,
                "end_time": 29.62272727272727,
                "pitch": 66,
                "velocity": 80,
                "duration": 0.2818181818181813,
                "tempo": 120.0
            },
            {
                "start_time": 29.64090909090909,
                "end_time": 30.529545454545453,
                "pitch": 64,
                "velocity": 80,
                "duration": 0.8886363636363619,
                "tempo": 120.0
            },
            {
                "start_time": 30.545454545454543,
                "end_time": 31.136363636363633,
                "pitch": 66,
                "velocity": 80,
                "duration": 0.5909090909090899,
                "tempo": 120.0
            },
            {
                "start_time": 31.152272727272727,
                "end_time": 33.54772727272727,
                "pitch": 64,
                "velocity": 80,
                "duration": 2.3954545454545446,
                "tempo": 120.0
            },
            {
                "start_time": 35.98181818181818,
                "end_time": 36.268181818181816,
                "pitch": 67,
                "velocity": 80,
                "duration": 0.2863636363636388,
                "tempo": 120.0
            },
            {
                "start_time": 36.28636363636363,
                "end_time": 36.57272727272727,
                "pitch": 66,
                "velocity": 80,
                "duration": 0.2863636363636388,
                "tempo": 120.0
            },
            {
                "start_time": 36.58863636363636,
                "end_time": 36.875,
                "pitch": 64,
                "velocity": 80,
                "duration": 0.2863636363636388,
                "tempo": 120.0
            },
            {
                "start_time": 36.89090909090909,
                "end_time": 37.48409090909091,
                "pitch": 67,
                "velocity": 80,
                "duration": 0.5931818181818187,
                "tempo": 120.0
            },
            {
                "start_time": 37.5,
                "end_time": 37.788636363636364,
                "pitch": 66,
                "velocity": 80,
                "duration": 0.288636363636364,
                "tempo": 120.0
            },
            {
                "start_time": 37.80681818181818,
                "end_time": 38.38409090909091,
                "pitch": 64,
                "velocity": 80,
                "duration": 0.577272727272728,
                "tempo": 120.0
            },
            {
                "start_time": 38.4,
                "end_time": 38.68636363636364,
                "pitch": 69,
                "velocity": 80,
                "duration": 0.2863636363636388,
                "tempo": 120.0
            },
            {
                "start_time": 38.70454545454545,
                "end_time": 38.99090909090909,
                "pitch": 67,
                "velocity": 80,
                "duration": 0.2863636363636388,
                "tempo": 120.0
            },
            {
                "start_time": 39.00681818181818,
                "end_time": 39.293181818181814,
                "pitch": 66,
                "velocity": 80,
                "duration": 0.2863636363636317,
                "tempo": 120.0
            },
            {
                "start_time": 39.309090909090905,
                "end_time": 40.209090909090904,
                "pitch": 64,
                "velocity": 80,
                "duration": 0.8999999999999986,
                "tempo": 120.0
            },
            {
                "start_time": 40.225,
                "end_time": 40.80227272727272,
                "pitch": 66,
                "velocity": 80,
                "duration": 0.5772727272727209,
                "tempo": 120.0
            },
            {
                "start_time": 40.81818181818181,
                "end_time": 42.918181818181814,
                "pitch": 64,
                "velocity": 80,
                "duration": 2.1000000000000014,
                "tempo": 120.0
            },
            {
                "start_time": 42.934090909090905,
                "end_time": 43.220454545454544,
                "pitch": 59,
                "velocity": 80,
                "duration": 0.2863636363636388,
                "tempo": 120.0
            },
            {
                "start_time": 43.236363636363635,
                "end_time": 45.63863636363636,
                "pitch": 59,
                "velocity": 80,
                "duration": 2.402272727272724,
                "tempo": 120.0
            },
            {
                "start_time": 45.65454545454545,
                "end_time": 45.94090909090909,
                "pitch": 72,
                "velocity": 80,
                "duration": 0.2863636363636388,
                "tempo": 120.0
            },
            {
                "start_time": 45.959090909090904,
                "end_time": 46.24545454545454,
                "pitch": 71,
                "velocity": 80,
                "duration": 0.2863636363636388,
                "tempo": 120.0
            },
            {
                "start_time": 46.26136363636363,
                "end_time": 46.54772727272727,
                "pitch": 69,
                "velocity": 80,
                "duration": 0.2863636363636388,
                "tempo": 120.0
            },
            {
                "start_time": 46.56363636363636,
                "end_time": 47.15,
                "pitch": 72,
                "velocity": 80,
                "duration": 0.586363636363636,
                "tempo": 120.0
            },
            {
                "start_time": 47.168181818181814,
                "end_time": 47.449999999999996,
                "pitch": 72,
                "velocity": 80,
                "duration": 0.2818181818181813,
                "tempo": 120.0
            },
            {
                "start_time": 47.46818181818182,
                "end_time": 48.05681818181818,
                "pitch": 69,
                "velocity": 80,
                "duration": 0.5886363636363612,
                "tempo": 120.0
            },
            {
                "start_time": 48.07272727272727,
                "end_time": 48.35909090909091,
                "pitch": 74,
                "velocity": 80,
                "duration": 0.2863636363636388,
                "tempo": 120.0
            },
            {
                "start_time": 48.377272727272725,
                "end_time": 48.663636363636364,
                "pitch": 72,
                "velocity": 80,
                "duration": 0.2863636363636388,
                "tempo": 120.0
            },
            {
                "start_time": 48.679545454545455,
                "end_time": 48.965909090909086,
                "pitch": 71,
                "velocity": 80,
                "duration": 0.2863636363636317,
                "tempo": 120.0
            },
            {
                "start_time": 48.98181818181818,
                "end_time": 49.875,
                "pitch": 69,
                "velocity": 80,
                "duration": 0.893181818181823,
                "tempo": 120.0
            },
            {
                "start_time": 49.89090909090909,
                "end_time": 50.474999999999994,
                "pitch": 71,
                "velocity": 80,
                "duration": 0.5840909090909037,
                "tempo": 120.0
            },
            {
                "start_time": 50.490909090909085,
                "end_time": 52.9,
                "pitch": 71,
                "velocity": 80,
                "duration": 2.4090909090909136,
                "tempo": 120.0
            },
            {
                "start_time": 52.91590909090909,
                "end_time": 55.31818181818181,
                "pitch": 64,
                "velocity": 80,
                "duration": 2.402272727272724,
                "tempo": 120.0
            },
            {
                "start_time": 55.334090909090904,
                "end_time": 55.62954545454545,
                "pitch": 72,
                "velocity": 80,
                "duration": 0.29545454545454675,
                "tempo": 120.0
            },
            {
                "start_time": 55.64545454545454,
                "end_time": 55.94090909090909,
                "pitch": 71,
                "velocity": 80,
                "duration": 0.29545454545454675,
                "tempo": 120.0
            },
            {
                "start_time": 55.959090909090904,
                "end_time": 56.24545454545454,
                "pitch": 69,
                "velocity": 80,
                "duration": 0.2863636363636388,
                "tempo": 120.0
            },
            {
                "start_time": 56.26136363636363,
                "end_time": 56.85227272727273,
                "pitch": 72,
                "velocity": 80,
                "duration": 0.5909090909090935,
                "tempo": 120.0
            },
            {
                "start_time": 56.86818181818182,
                "end_time": 57.15454545454545,
                "pitch": 72,
                "velocity": 64,
                "duration": 0.2863636363636317,
                "tempo": 120.0
            },
            {
                "start_time": 57.17045454545454,
                "end_time": 57.76136363636363,
                "pitch": 69,
                "velocity": 64,
                "duration": 0.5909090909090935,
                "tempo": 120.0
            },
            {
                "start_time": 57.777272727272724,
                "end_time": 58.06136363636363,
                "pitch": 74,
                "velocity": 64,
                "duration": 0.2840909090909065,
                "tempo": 120.0
            },
            {
                "start_time": 58.07727272727272,
                "end_time": 58.361363636363635,
                "pitch": 72,
                "velocity": 51,
                "duration": 0.2840909090909136,
                "tempo": 120.0
            },
            {
                "start_time": 58.377272727272725,
                "end_time": 58.663636363636364,
                "pitch": 71,
                "velocity": 51,
                "duration": 0.2863636363636388,
                "tempo": 120.0
            },
            {
                "start_time": 58.679545454545455,
                "end_time": 59.57954545454545,
                "pitch": 69,
                "velocity": 51,
                "duration": 0.8999999999999986,
                "tempo": 120.0
            },
            {
                "start_time": 59.595454545454544,
                "end_time": 60.17272727272727,
                "pitch": 71,
                "velocity": 40,
                "duration": 0.577272727272728,
                "tempo": 120.0
            },
            {
                "start_time": 60.19090909090909,
                "end_time": 62.59772727272727,
                "pitch": 68,
                "velocity": 40,
                "duration": 2.4068181818181813,
                "tempo": 120.0
            },
            {
                "start_time": 62.61363636363636,
                "end_time": 65.0,
                "pitch": 68,
                "velocity": 25,
                "duration": 2.3863636363636402,
                "tempo": 120.0
            }
        ],
        "Flute": [
            {
                "start_time": 0.0,
                "end_time": 1.8863636363636362,
                "pitch": 64,
                "velocity": 51,
                "duration": 1.8863636363636362,
                "tempo": 120.0
            },
            {
                "start_time": 1.9022727272727271,
                "end_time": 2.1886363636363635,
                "pitch": 64,
                "velocity": 51,
                "duration": 0.2863636363636364,
                "tempo": 120.0
            },
            {
                "start_time": 2.2068181818181816,
                "end_time": 4.6068181818181815,
                "pitch": 64,
                "velocity": 51,
                "duration": 2.4,
                "tempo": 120.0
            },
            {
                "start_time": 4.625,
                "end_time": 6.711363636363636,
                "pitch": 62,
                "velocity": 51,
                "duration": 2.086363636363636,
                "tempo": 120.0
            },
            {
                "start_time": 6.727272727272727,
                "end_time": 7.006818181818182,
                "pitch": 62,
                "velocity": 51,
                "duration": 0.2795454545454552,
                "tempo": 120.0
            },
            {
                "start_time": 7.0249999999999995,
                "end_time": 8.220454545454546,
                "pitch": 64,
                "velocity": 51,
                "duration": 1.1954545454545462,
                "tempo": 120.0
            },
            {
                "start_time": 8.236363636363636,
                "end_time": 9.424999999999999,
                "pitch": 61,
                "velocity": 51,
                "duration": 1.1886363636363626,
                "tempo": 120.0
            },
            {
                "start_time": 9.443181818181818,
                "end_time": 11.531818181818181,
                "pitch": 64,
                "velocity": 51,
                "duration": 2.088636363636363,
                "tempo": 120.0
            },
            {
                "start_time": 11.547727272727272,
                "end_time": 11.831818181818182,
                "pitch": 64,
                "velocity": 51,
                "duration": 0.28409090909091006,
                "tempo": 120.0
            },
            {
                "start_time": 11.847727272727273,
                "end_time": 14.243181818181817,
                "pitch": 64,
                "velocity": 51,
                "duration": 2.3954545454545446,
                "tempo": 120.0
            },
            {
                "start_time": 14.261363636363635,
                "end_time": 16.043181818181818,
                "pitch": 66,
                "velocity": 51,
                "duration": 1.781818181818183,
                "tempo": 120.0
            },
            {
                "start_time": 16.061363636363634,
                "end_time": 16.65681818181818,
                "pitch": 62,
                "velocity": 51,
                "duration": 0.5954545454545475,
                "tempo": 120.0
            },
            {
                "start_time": 16.672727272727272,
                "end_time": 17.25,
                "pitch": 62,
                "velocity": 51,
                "duration": 0.577272727272728,
                "tempo": 120.0
            },
            {
                "start_time": 17.26590909090909,
                "end_time": 17.849999999999998,
                "pitch": 62,
                "velocity": 51,
                "duration": 0.5840909090909072,
                "tempo": 120.0
            },
            {
                "start_time": 17.86590909090909,
                "end_time": 18.456818181818182,
                "pitch": 62,
                "velocity": 51,
                "duration": 0.5909090909090935,
                "tempo": 120.0
            },
            {
                "start_time": 18.472727272727273,
                "end_time": 19.061363636363634,
                "pitch": 62,
                "velocity": 51,
                "duration": 0.5886363636363612,
                "tempo": 120.0
            },
            {
                "start_time": 19.079545454545453,
                "end_time": 19.661363636363635,
                "pitch": 64,
                "velocity": 51,
                "duration": 0.581818181818182,
                "tempo": 120.0
            },
            {
                "start_time": 19.679545454545455,
                "end_time": 20.268181818181816,
                "pitch": 64,
                "velocity": 51,
                "duration": 0.5886363636363612,
                "tempo": 120.0
            },
            {
                "start_time": 20.284090909090907,
                "end_time": 20.879545454545454,
                "pitch": 64,
                "velocity": 51,
                "duration": 0.5954545454545475,
                "tempo": 120.0
            },
            {
                "start_time": 20.897727272727273,
                "end_time": 21.474999999999998,
                "pitch": 64,
                "velocity": 51,
                "duration": 0.5772727272727245,
                "tempo": 120.0
            },
            {
                "start_time": 21.49090909090909,
                "end_time": 22.079545454545453,
                "pitch": 66,
                "velocity": 51,
                "duration": 0.5886363636363647,
                "tempo": 120.0
            },
            {
                "start_time": 22.097727272727273,
                "end_time": 22.68181818181818,
                "pitch": 66,
                "velocity": 51,
                "duration": 0.5840909090909072,
                "tempo": 120.0
            },
            {
                "start_time": 22.69772727272727,
                "end_time": 23.293181818181818,
                "pitch": 66,
                "velocity": 51,
                "duration": 0.5954545454545475,
                "tempo": 120.0
            },
            {
                "start_time": 23.30909090909091,
                "end_time": 24.188636363636363,
                "pitch": 66,
                "velocity": 51,
                "duration": 0.879545454545454,
                "tempo": 120.0
            },
            {
                "start_time": 24.206818181818182,
                "end_time": 24.493181818181817,
                "pitch": 66,
                "velocity": 51,
                "duration": 0.28636363636363527,
                "tempo": 120.0
            },
            {
                "start_time": 24.509090909090908,
                "end_time": 24.795454545454543,
                "pitch": 66,
                "velocity": 51,
                "duration": 0.28636363636363527,
                "tempo": 120.0
            },
            {
                "start_time": 24.813636363636363,
                "end_time": 25.097727272727273,
                "pitch": 66,
                "velocity": 51,
                "duration": 0.28409090909091006,
                "tempo": 120.0
            },
            {
                "start_time": 25.11590909090909,
                "end_time": 25.4,
                "pitch": 66,
                "velocity": 51,
                "duration": 0.28409090909091006,
                "tempo": 120.0
            },
            {
                "start_time": 25.41590909090909,
                "end_time": 25.7,
                "pitch": 66,
                "velocity": 51,
                "duration": 0.28409090909091006,
                "tempo": 120.0
            },
            {
                "start_time": 25.71590909090909,
                "end_time": 26.002272727272725,
                "pitch": 66,
                "velocity": 51,
                "duration": 0.28636363636363527,
                "tempo": 120.0
            },
            {
                "start_time": 26.018181818181816,
                "end_time": 26.304545454545455,
                "pitch": 66,
                "velocity": 51,
                "duration": 0.2863636363636388,
                "tempo": 120.0
            },
            {
                "start_time": 26.32272727272727,
                "end_time": 26.604545454545452,
                "pitch": 67,
                "velocity": 51,
                "duration": 0.2818181818181813,
                "tempo": 120.0
            },
            {
                "start_time": 26.62272727272727,
                "end_time": 26.904545454545453,
                "pitch": 67,
                "velocity": 51,
                "duration": 0.2818181818181813,
                "tempo": 120.0
            },
            {
                "start_time": 26.922727272727272,
                "end_time": 27.206818181818182,
                "pitch": 67,
                "velocity": 51,
                "duration": 0.28409090909091006,
                "tempo": 120.0
            },
            {
                "start_time": 27.224999999999998,
                "end_time": 27.815909090909088,
                "pitch": 67,
                "velocity": 51,
                "duration": 0.5909090909090899,
                "tempo": 120.0
            },
            {
                "start_time": 27.834090909090907,
                "end_time": 28.12272727272727,
                "pitch": 67,
                "velocity": 51,
                "duration": 0.288636363636364,
                "tempo": 120.0
            },
            {
                "start_time": 28.14090909090909,
                "end_time": 28.718181818181815,
                "pitch": 67,
                "velocity": 51,
                "duration": 0.5772727272727245,
                "tempo": 120.0
            },
            {
                "start_time": 28.73409090909091,
                "end_time": 29.020454545454545,
                "pitch": 69,
                "velocity": 51,
                "duration": 0.28636363636363527,
                "tempo": 120.0
            },
            {
                "start_time": 29.036363636363635,
                "end_time": 29.32272727272727,
                "pitch": 69,
                "velocity": 51,
                "duration": 0.28636363636363527,
                "tempo": 120.0
            },
            {
                "start_time": 29.34090909090909,
                "end_time": 29.62272727272727,
                "pitch": 69,
                "velocity": 51,
                "duration": 0.2818181818181813,
                "tempo": 120.0
            },
            {
                "start_time": 29.64090909090909,
                "end_time": 30.227272727272727,
                "pitch": 69,
                "velocity": 51,
                "duration": 0.586363636363636,
                "tempo": 120.0
            },
            {
                "start_time": 30.243181818181817,
                "end_time": 30.529545454545453,
                "pitch": 69,
                "velocity": 51,
                "duration": 0.28636363636363527,
                "tempo": 120.0
            },
            {
                "start_time": 30.545454545454543,
                "end_time": 31.136363636363633,
                "pitch": 69,
                "velocity": 51,
                "duration": 0.5909090909090899,
                "tempo": 120.0
            },
            {
                "start_time": 31.152272727272727,
                "end_time": 32.038636363636364,
                "pitch": 71,
                "velocity": 51,
                "duration": 0.8863636363636367,
                "tempo": 120.0
            },
            {
                "start_time": 32.054545454545455,
                "end_time": 32.340909090909086,
                "pitch": 71,
                "velocity": 51,
                "duration": 0.2863636363636317,
                "tempo": 120.0
            },
            {
                "start_time": 32.35909090909091,
                "end_time": 33.24545454545454,
                "pitch": 71,
                "velocity": 51,
                "duration": 0.8863636363636331,
                "tempo": 120.0
            },
            {
                "start_time": 33.26136363636363,
                "end_time": 33.54772727272727,
                "pitch": 71,
                "velocity": 51,
                "duration": 0.2863636363636388,
                "tempo": 120.0
            },
            {
                "start_time": 33.56363636363636,
                "end_time": 33.85,
                "pitch": 71,
                "velocity": 51,
                "duration": 0.2863636363636388,
                "tempo": 120.0
            },
            {
                "start_time": 33.86818181818182,
                "end_time": 34.154545454545456,
                "pitch": 69,
                "velocity": 51,
                "duration": 0.2863636363636388,
                "tempo": 120.0
            },
            {
                "start_time": 34.17045454545455,
                "end_time": 34.45681818181818,
                "pitch": 68,
                "velocity": 51,
                "duration": 0.2863636363636317,
                "tempo": 120.0
            },
            {
                "start_time": 34.47272727272727,
                "end_time": 35.059090909090905,
                "pitch": 69,
                "velocity": 51,
                "duration": 0.586363636363636,
                "tempo": 120.0
            },
            {
                "start_time": 35.07727272727273,
                "end_time": 35.965909090909086,
                "pitch": 71,
                "velocity": 51,
                "duration": 0.8886363636363583,
                "tempo": 120.0
            },
            {
                "start_time": 35.98181818181818,
                "end_time": 36.268181818181816,
                "pitch": 67,
                "velocity": 51,
                "duration": 0.2863636363636388,
                "tempo": 120.0
            },
            {
                "start_time": 36.28636363636363,
                "end_time": 36.57272727272727,
                "pitch": 67,
                "velocity": 51,
                "duration": 0.2863636363636388,
                "tempo": 120.0
            },
            {
                "start_time": 36.58863636363636,
                "end_time": 36.875,
                "pitch": 67,
                "velocity": 51,
                "duration": 0.2863636363636388,
                "tempo": 120.0
            },
            {
                "start_time": 36.89090909090909,
                "end_time": 37.48409090909091,
                "pitch": 67,
                "velocity": 51,
                "duration": 0.5931818181818187,
                "tempo": 120.0
            },
            {
                "start_time": 37.5,
                "end_time": 37.788636363636364,
                "pitch": 67,
                "velocity": 51,
                "duration": 0.288636363636364,
                "tempo": 120.0
            },
            {
                "start_time": 37.80681818181818,
                "end_time": 38.38409090909091,
                "pitch": 67,
                "velocity": 51,
                "duration": 0.577272727272728,
                "tempo": 120.0
            },
            {
                "start_time": 38.4,
                "end_time": 38.68636363636364,
                "pitch": 69,
                "velocity": 51,
                "duration": 0.2863636363636388,
                "tempo": 120.0
            },
            {
                "start_time": 38.70454545454545,
                "end_time": 38.99090909090909,
                "pitch": 69,
                "velocity": 51,
                "duration": 0.2863636363636388,
                "tempo": 120.0
            },
            {
                "start_time": 39.00681818181818,
                "end_time": 39.293181818181814,
                "pitch": 69,
                "velocity": 51,
                "duration": 0.2863636363636317,
                "tempo": 120.0
            },
            {
                "start_time": 39.309090909090905,
                "end_time": 39.902272727272724,
                "pitch": 69,
                "velocity": 51,
                "duration": 0.5931818181818187,
                "tempo": 120.0
            },
            {
                "start_time": 39.918181818181814,
                "end_time": 40.209090909090904,
                "pitch": 69,
                "velocity": 51,
                "duration": 0.29090909090908923,
                "tempo": 120.0
            },
            {
                "start_time": 40.225,
                "end_time": 40.80227272727272,
                "pitch": 69,
                "velocity": 51,
                "duration": 0.5772727272727209,
                "tempo": 120.0
            },
            {
                "start_time": 40.81818181818181,
                "end_time": 41.70454545454545,
                "pitch": 71,
                "velocity": 51,
                "duration": 0.8863636363636402,
                "tempo": 120.0
            },
            {
                "start_time": 41.72272727272727,
                "end_time": 42.00909090909091,
                "pitch": 71,
                "velocity": 51,
                "duration": 0.2863636363636388,
                "tempo": 120.0
            },
            {
                "start_time": 42.025,
                "end_time": 42.918181818181814,
                "pitch": 71,
                "velocity": 51,
                "duration": 0.8931818181818159,
                "tempo": 120.0
            },
            {
                "start_time": 42.934090909090905,
                "end_time": 43.220454545454544,
                "pitch": 71,
                "velocity": 51,
                "duration": 0.2863636363636388,
                "tempo": 120.0
            },
            {
                "start_time": 43.236363636363635,
                "end_time": 43.52272727272727,
                "pitch": 71,
                "velocity": 51,
                "duration": 0.2863636363636388,
                "tempo": 120.0
            },
            {
                "start_time": 43.54090909090909,
                "end_time": 43.82727272727273,
                "pitch": 74,
                "velocity": 51,
                "duration": 0.2863636363636388,
                "tempo": 120.0
            },
            {
                "start_time": 43.84318181818182,
                "end_time": 44.127272727272725,
                "pitch": 71,
                "velocity": 51,
                "duration": 0.2840909090909065,
                "tempo": 120.0
            },
            {
                "start_time": 44.143181818181816,
                "end_time": 44.42727272727272,
                "pitch": 69,
                "velocity": 51,
                "duration": 0.2840909090909065,
                "tempo": 120.0
            },
            {
                "start_time": 44.44318181818181,
                "end_time": 44.72954545454545,
                "pitch": 68,
                "velocity": 51,
                "duration": 0.2863636363636388,
                "tempo": 120.0
            },
            {
                "start_time": 44.74545454545454,
                "end_time": 45.03181818181818,
                "pitch": 69,
                "velocity": 51,
                "duration": 0.2863636363636388,
                "tempo": 120.0
            },
            {
                "start_time": 45.05,
                "end_time": 45.336363636363636,
                "pitch": 71,
                "velocity": 51,
                "duration": 0.2863636363636388,
                "tempo": 120.0
            },
            {
                "start_time": 45.35227272727273,
                "end_time": 45.63863636363636,
                "pitch": 69,
                "velocity": 51,
                "duration": 0.2863636363636317,
                "tempo": 120.0
            },
            {
                "start_time": 45.65454545454545,
                "end_time": 45.94090909090909,
                "pitch": 67,
                "velocity": 51,
                "duration": 0.2863636363636388,
                "tempo": 120.0
            },
            {
                "start_time": 45.959090909090904,
                "end_time": 46.24545454545454,
                "pitch": 67,
                "velocity": 51,
                "duration": 0.2863636363636388,
                "tempo": 120.0
            },
            {
                "start_time": 46.26136363636363,
                "end_time": 46.54772727272727,
                "pitch": 67,
                "velocity": 51,
                "duration": 0.2863636363636388,
                "tempo": 120.0
            },
            {
                "start_time": 46.56363636363636,
                "end_time": 47.15,
                "pitch": 67,
                "velocity": 51,
                "duration": 0.586363636363636,
                "tempo": 120.0
            },
            {
                "start_time": 47.168181818181814,
                "end_time": 47.449999999999996,
                "pitch": 67,
                "velocity": 51,
                "duration": 0.2818181818181813,
                "tempo": 120.0
            },
            {
                "start_time": 47.46818181818182,
                "end_time": 48.05681818181818,
                "pitch": 67,
                "velocity": 51,
                "duration": 0.5886363636363612,
                "tempo": 120.0
            },
            {
                "start_time": 48.07272727272727,
                "end_time": 48.35909090909091,
                "pitch": 69,
                "velocity": 51,
                "duration": 0.2863636363636388,
                "tempo": 120.0
            },
            {
                "start_time": 48.377272727272725,
                "end_time": 48.663636363636364,
                "pitch": 69,
                "velocity": 51,
                "duration": 0.2863636363636388,
                "tempo": 120.0
            },
            {
                "start_time": 48.679545454545455,
                "end_time": 48.965909090909086,
                "pitch": 69,
                "velocity": 51,
                "duration": 0.2863636363636317,
                "tempo": 120.0
            },
            {
                "start_time": 48.98181818181818,
                "end_time": 49.57272727272727,
                "pitch": 69,
                "velocity": 51,
                "duration": 0.5909090909090935,
                "tempo": 120.0
            },
            {
                "start_time": 49.58863636363636,
                "end_time": 49.875,
                "pitch": 69,
                "velocity": 51,
                "duration": 0.2863636363636388,
                "tempo": 120.0
            },
            {
                "start_time": 49.89090909090909,
                "end_time": 50.474999999999994,
                "pitch": 69,
                "velocity": 51,
                "duration": 0.5840909090909037,
                "tempo": 120.0
            },
            {
                "start_time": 50.490909090909085,
                "end_time": 51.38409090909091,
                "pitch": 71,
                "velocity": 51,
                "duration": 0.893181818181823,
                "tempo": 120.0
            },
            {
                "start_time": 51.4,
                "end_time": 51.68636363636364,
                "pitch": 71,
                "velocity": 51,
                "duration": 0.2863636363636388,
                "tempo": 120.0
            },
            {
                "start_time": 51.70454545454545,
                "end_time": 52.595454545454544,
                "pitch": 71,
                "velocity": 51,
                "duration": 0.8909090909090907,
                "tempo": 120.0
            },
            {
                "start_time": 52.61363636363636,
                "end_time": 52.9,
                "pitch": 71,
                "velocity": 51,
                "duration": 0.2863636363636388,
                "tempo": 120.0
            },
            {
                "start_time": 52.91590909090909,
                "end_time": 53.199999999999996,
                "pitch": 71,
                "velocity": 51,
                "duration": 0.2840909090909065,
                "tempo": 120.0
            },
            {
                "start_time": 53.215909090909086,
                "end_time": 53.5,
                "pitch": 72,
                "velocity": 51,
                "duration": 0.2840909090909136,
                "tempo": 120.0
            },
            {
                "start_time": 53.51590909090909,
                "end_time": 53.80227272727272,
                "pitch": 74,
                "velocity": 51,
                "duration": 0.2863636363636317,
                "tempo": 120.0
            },
            {
                "start_time": 53.81818181818181,
                "end_time": 54.40909090909091,
                "pitch": 74,
                "velocity": 51,
                "duration": 0.5909090909090935,
                "tempo": 120.0
            },
            {
                "start_time": 54.425,
                "end_time": 54.711363636363636,
                "pitch": 74,
                "velocity": 51,
                "duration": 0.2863636363636388,
                "tempo": 120.0
            },
            {
                "start_time": 54.72727272727273,
                "end_time": 55.31818181818181,
                "pitch": 71,
                "velocity": 51,
                "duration": 0.5909090909090864,
                "tempo": 120.0
            },
            {
                "start_time": 55.334090909090904,
                "end_time": 55.62954545454545,
                "pitch": 67,
                "velocity": 51,
                "duration": 0.29545454545454675,
                "tempo": 120.0
            },
            {
                "start_time": 55.64545454545454,
                "end_time": 55.94090909090909,
                "pitch": 67,
                "velocity": 51,
                "duration": 0.29545454545454675,
                "tempo": 120.0
            },
            {
                "start_time": 55.959090909090904,
                "end_time": 56.24545454545454,
                "pitch": 67,
                "velocity": 51,
                "duration": 0.2863636363636388,
                "tempo": 120.0
            },
            {
                "start_time": 56.26136363636363,
                "end_time": 56.85227272727273,
                "pitch": 67,
                "velocity": 51,
                "duration": 0.5909090909090935,
                "tempo": 120.0
            },
            {
                "start_time": 56.86818181818182,
                "end_time": 57.15454545454545,
                "pitch": 67,
                "velocity": 40,
                "duration": 0.2863636363636317,
                "tempo": 120.0
            },
            {
                "start_time": 57.17045454545454,
                "end_time": 57.76136363636363,
                "pitch": 67,
                "velocity": 40,
                "duration": 0.5909090909090935,
                "tempo": 120.0
            },
            {
                "start_time": 57.777272727272724,
                "end_time": 58.06136363636363,
                "pitch": 69,
                "velocity": 40,
                "duration": 0.2840909090909065,
                "tempo": 120.0
            },
            {
                "start_time": 58.07727272727272,
                "end_time": 58.361363636363635,
                "pitch": 69,
                "velocity": 32,
                "duration": 0.2840909090909136,
                "tempo": 120.0
            },
            {
                "start_time": 58.377272727272725,
                "end_time": 58.663636363636364,
                "pitch": 69,
                "velocity": 32,
                "duration": 0.2863636363636388,
                "tempo": 120.0
            },
            {
                "start_time": 58.679545454545455,
                "end_time": 59.27272727272727,
                "pitch": 69,
                "velocity": 32,
                "duration": 0.5931818181818187,
                "tempo": 120.0
            },
            {
                "start_time": 59.288636363636364,
                "end_time": 59.57954545454545,
                "pitch": 69,
                "velocity": 25,
                "duration": 0.29090909090908923,
                "tempo": 120.0
            },
            {
                "start_time": 59.595454545454544,
                "end_time": 60.17272727272727,
                "pitch": 69,
                "velocity": 25,
                "duration": 0.577272727272728,
                "tempo": 120.0
            },
            {
                "start_time": 60.19090909090909,
                "end_time": 62.29090909090909,
                "pitch": 71,
                "velocity": 25,
                "duration": 2.1000000000000014,
                "tempo": 120.0
            },
            {
                "start_time": 62.30681818181818,
                "end_time": 62.59772727272727,
                "pitch": 71,
                "velocity": 16,
                "duration": 0.29090909090908923,
                "tempo": 120.0
            },
            {
                "start_time": 62.61363636363636,
                "end_time": 65.0,
                "pitch": 71,
                "velocity": 16,
                "duration": 2.3863636363636402,
                "tempo": 120.0
            }
        ],
        "Acoustic Grand Piano": [
            {
                "start_time": 0.0,
                "end_time": 1.8863636363636362,
                "pitch": 33,
                "velocity": 51,
                "duration": 1.8863636363636362,
                "tempo": 120.0
            },
            {
                "start_time": 1.9022727272727271,
                "end_time": 2.1886363636363635,
                "pitch": 33,
                "velocity": 51,
                "duration": 0.2863636363636364,
                "tempo": 120.0
            },
            {
                "start_time": 2.2068181818181816,
                "end_time": 4.6068181818181815,
                "pitch": 31,
                "velocity": 51,
                "duration": 2.4,
                "tempo": 120.0
            },
            {
                "start_time": 4.625,
                "end_time": 7.006818181818182,
                "pitch": 30,
                "velocity": 51,
                "duration": 2.381818181818182,
                "tempo": 120.0
            },
            {
                "start_time": 7.0249999999999995,
                "end_time": 8.220454545454546,
                "pitch": 31,
                "velocity": 51,
                "duration": 1.1954545454545462,
                "tempo": 120.0
            },
            {
                "start_time": 8.236363636363636,
                "end_time": 9.424999999999999,
                "pitch": 33,
                "velocity": 51,
                "duration": 1.1886363636363626,
                "tempo": 120.0
            },
            {
                "start_time": 9.443181818181818,
                "end_time": 11.831818181818182,
                "pitch": 33,
                "velocity": 51,
                "duration": 2.3886363636363637,
                "tempo": 120.0
            },
            {
                "start_time": 11.847727272727273,
                "end_time": 14.243181818181817,
                "pitch": 31,
                "velocity": 51,
                "duration": 2.3954545454545446,
                "tempo": 120.0
            },
            {
                "start_time": 14.261363636363635,
                "end_time": 16.043181818181818,
                "pitch": 30,
                "velocity": 51,
                "duration": 1.781818181818183,
                "tempo": 120.0
            },
            {
                "start_time": 16.061363636363634,
                "end_time": 16.65681818181818,
                "pitch": 30,
                "velocity": 51,
                "duration": 0.5954545454545475,
                "tempo": 120.0
            },
            {
                "start_time": 16.672727272727272,
                "end_time": 17.25,
                "pitch": 31,
                "velocity": 51,
                "duration": 0.577272727272728,
                "tempo": 120.0
            },
            {
                "start_time": 17.26590909090909,
                "end_time": 17.849999999999998,
                "pitch": 31,
                "velocity": 51,
                "duration": 0.5840909090909072,
                "tempo": 120.0
            },
            {
                "start_time": 17.86590909090909,
                "end_time": 18.456818181818182,
                "pitch": 31,
                "velocity": 51,
                "duration": 0.5909090909090935,
                "tempo": 120.0
            },
            {
                "start_time": 18.472727272727273,
                "end_time": 19.061363636363634,
                "pitch": 31,
                "velocity": 51,
                "duration": 0.5886363636363612,
                "tempo": 120.0
            },
            {
                "start_time": 19.079545454545453,
                "end_time": 19.661363636363635,
                "pitch": 33,
                "velocity": 51,
                "duration": 0.581818181818182,
                "tempo": 120.0
            },
            {
                "start_time": 19.679545454545455,
                "end_time": 20.268181818181816,
                "pitch": 33,
                "velocity": 51,
                "duration": 0.5886363636363612,
                "tempo": 120.0
            },
            {
                "start_time": 20.284090909090907,
                "end_time": 20.879545454545454,
                "pitch": 33,
                "velocity": 51,
                "duration": 0.5954545454545475,
                "tempo": 120.0
            },
            {
                "start_time": 20.897727272727273,
                "end_time": 21.474999999999998,
                "pitch": 33,
                "velocity": 51,
                "duration": 0.5772727272727245,
                "tempo": 120.0
            },
            {
                "start_time": 21.49090909090909,
                "end_time": 22.079545454545453,
                "pitch": 35,
                "velocity": 51,
                "duration": 0.5886363636363647,
                "tempo": 120.0
            },
            {
                "start_time": 22.097727272727273,
                "end_time": 22.68181818181818,
                "pitch": 35,
                "velocity": 51,
                "duration": 0.5840909090909072,
                "tempo": 120.0
            },
            {
                "start_time": 22.69772727272727,
                "end_time": 23.293181818181818,
                "pitch": 35,
                "velocity": 51,
                "duration": 0.5954545454545475,
                "tempo": 120.0
            },
            {
                "start_time": 23.30909090909091,
                "end_time": 23.886363636363637,
                "pitch": 35,
                "velocity": 51,
                "duration": 0.577272727272728,
                "tempo": 120.0
            },
            {
                "start_time": 23.904545454545453,
                "end_time": 24.188636363636363,
                "pitch": 35,
                "velocity": 51,
                "duration": 0.28409090909091006,
                "tempo": 120.0
            },
            {
                "start_time": 24.206818181818182,
                "end_time": 24.493181818181817,
                "pitch": 35,
                "velocity": 51,
                "duration": 0.28636363636363527,
                "tempo": 120.0
            },
            {
                "start_time": 24.509090909090908,
                "end_time": 24.795454545454543,
                "pitch": 35,
                "velocity": 51,
                "duration": 0.28636363636363527,
                "tempo": 120.0
            },
            {
                "start_time": 24.813636363636363,
                "end_time": 25.097727272727273,
                "pitch": 35,
                "velocity": 51,
                "duration": 0.28409090909091006,
                "tempo": 120.0
            },
            {
                "start_time": 25.11590909090909,
                "end_time": 25.4,
                "pitch": 35,
                "velocity": 51,
                "duration": 0.28409090909091006,
                "tempo": 120.0
            },
            {
                "start_time": 25.41590909090909,
                "end_time": 25.7,
                "pitch": 35,
                "velocity": 51,
                "duration": 0.28409090909091006,
                "tempo": 120.0
            },
            {
                "start_time": 25.71590909090909,
                "end_time": 26.002272727272725,
                "pitch": 35,
                "velocity": 51,
                "duration": 0.28636363636363527,
                "tempo": 120.0
            },
            {
                "start_time": 26.018181818181816,
                "end_time": 26.304545454545455,
                "pitch": 35,
                "velocity": 51,
                "duration": 0.2863636363636388,
                "tempo": 120.0
            },
            {
                "start_time": 26.32272727272727,
                "end_time": 26.604545454545452,
                "pitch": 36,
                "velocity": 51,
                "duration": 0.2818181818181813,
                "tempo": 120.0
            },
            {
                "start_time": 26.62272727272727,
                "end_time": 26.904545454545453,
                "pitch": 36,
                "velocity": 51,
                "duration": 0.2818181818181813,
                "tempo": 120.0
            },
            {
                "start_time": 26.922727272727272,
                "end_time": 27.206818181818182,
                "pitch": 36,
                "velocity": 51,
                "duration": 0.28409090909091006,
                "tempo": 120.0
            },
            {
                "start_time": 27.224999999999998,
                "end_time": 27.511363636363637,
                "pitch": 36,
                "velocity": 51,
                "duration": 0.2863636363636388,
                "tempo": 120.0
            },
            {
                "start_time": 27.527272727272727,
                "end_time": 27.815909090909088,
                "pitch": 36,
                "velocity": 51,
                "duration": 0.28863636363636047,
                "tempo": 120.0
            },
            {
                "start_time": 27.834090909090907,
                "end_time": 28.12272727272727,
                "pitch": 31,
                "velocity": 51,
                "duration": 0.288636363636364,
                "tempo": 120.0
            },
            {
                "start_time": 28.14090909090909,
                "end_time": 28.420454545454543,
                "pitch": 36,
                "velocity": 51,
                "duration": 0.27954545454545254,
                "tempo": 120.0
            },
            {
                "start_time": 28.436363636363634,
                "end_time": 28.718181818181815,
                "pitch": 36,
                "velocity": 51,
                "duration": 0.2818181818181813,
                "tempo": 120.0
            },
            {
                "start_time": 28.73409090909091,
                "end_time": 29.020454545454545,
                "pitch": 38,
                "velocity": 51,
                "duration": 0.28636363636363527,
                "tempo": 120.0
            },
            {
                "start_time": 29.036363636363635,
                "end_time": 29.32272727272727,
                "pitch": 38,
                "velocity": 51,
                "duration": 0.28636363636363527,
                "tempo": 120.0
            },
            {
                "start_time": 29.34090909090909,
                "end_time": 29.62272727272727,
                "pitch": 38,
                "velocity": 51,
                "duration": 0.2818181818181813,
                "tempo": 120.0
            },
            {
                "start_time": 29.64090909090909,
                "end_time": 30.227272727272727,
                "pitch": 38,
                "velocity": 51,
                "duration": 0.586363636363636,
                "tempo": 120.0
            },
            {
                "start_time": 30.243181818181817,
                "end_time": 30.529545454545453,
                "pitch": 38,
                "velocity": 51,
                "duration": 0.28636363636363527,
                "tempo": 120.0
            },
            {
                "start_time": 30.545454545454543,
                "end_time": 31.136363636363633,
                "pitch": 38,
                "velocity": 51,
                "duration": 0.5909090909090899,
                "tempo": 120.0
            },
            {
                "start_time": 31.152272727272727,
                "end_time": 32.038636363636364,
                "pitch": 40,
                "velocity": 51,
                "duration": 0.8863636363636367,
                "tempo": 120.0
            },
            {
                "start_time": 32.054545454545455,
                "end_time": 32.64090909090909,
                "pitch": 40,
                "velocity": 51,
                "duration": 0.586363636363636,
                "tempo": 120.0
            },
            {
                "start_time": 32.65909090909091,
                "end_time": 33.24545454545454,
                "pitch": 40,
                "velocity": 51,
                "duration": 0.586363636363636,
                "tempo": 120.0
            },
            {
                "start_time": 33.26136363636363,
                "end_time": 33.54772727272727,
                "pitch": 35,
                "velocity": 51,
                "duration": 0.2863636363636388,
                "tempo": 120.0
            },
            {
                "start_time": 33.56363636363636,
                "end_time": 34.154545454545456,
                "pitch": 32,
                "velocity": 51,
                "duration": 0.5909090909090935,
                "tempo": 120.0
            },
            {
                "start_time": 34.17045454545455,
                "end_time": 34.45681818181818,
                "pitch": 35,
                "velocity": 51,
                "duration": 0.2863636363636317,
                "tempo": 120.0
            },
            {
                "start_time": 34.47272727272727,
                "end_time": 35.059090909090905,
                "pitch": 40,
                "velocity": 51,
                "duration": 0.586363636363636,
                "tempo": 120.0
            },
            {
                "start_time": 35.07727272727273,
                "end_time": 35.663636363636364,
                "pitch": 43,
                "velocity": 51,
                "duration": 0.586363636363636,
                "tempo": 120.0
            },
            {
                "start_time": 35.679545454545455,
                "end_time": 35.965909090909086,
                "pitch": 40,
                "velocity": 51,
                "duration": 0.2863636363636317,
                "tempo": 120.0
            },
            {
                "start_time": 35.98181818181818,
                "end_time": 36.57272727272727,
                "pitch": 36,
                "velocity": 51,
                "duration": 0.5909090909090935,
                "tempo": 120.0
            },
            {
                "start_time": 36.58863636363636,
                "end_time": 36.875,
                "pitch": 36,
                "velocity": 51,
                "duration": 0.2863636363636388,
                "tempo": 120.0
            },
            {
                "start_time": 36.89090909090909,
                "end_time": 37.48409090909091,
                "pitch": 36,
                "velocity": 51,
                "duration": 0.5931818181818187,
                "tempo": 120.0
            },
            {
                "start_time": 37.5,
                "end_time": 37.788636363636364,
                "pitch": 36,
                "velocity": 51,
                "duration": 0.288636363636364,
                "tempo": 120.0
            },
            {
                "start_time": 37.80681818181818,
                "end_time": 38.38409090909091,
                "pitch": 36,
                "velocity": 51,
                "duration": 0.577272727272728,
                "tempo": 120.0
            },
            {
                "start_time": 38.4,
                "end_time": 39.293181818181814,
                "pitch": 38,
                "velocity": 51,
                "duration": 0.8931818181818159,
                "tempo": 120.0
            },
            {
                "start_time": 39.309090909090905,
                "end_time": 39.902272727272724,
                "pitch": 38,
                "velocity": 51,
                "duration": 0.5931818181818187,
                "tempo": 120.0
            },
            {
                "start_time": 39.918181818181814,
                "end_time": 40.209090909090904,
                "pitch": 38,
                "velocity": 51,
                "duration": 0.29090909090908923,
                "tempo": 120.0
            },
            {
                "start_time": 40.225,
                "end_time": 40.80227272727272,
                "pitch": 38,
                "velocity": 51,
                "duration": 0.5772727272727209,
                "tempo": 120.0
            },
            {
                "start_time": 40.81818181818181,
                "end_time": 41.10227272727273,
                "pitch": 40,
                "velocity": 51,
                "duration": 0.2840909090909136,
                "tempo": 120.0
            },
            {
                "start_time": 41.11818181818182,
                "end_time": 41.70454545454545,
                "pitch": 35,
                "velocity": 51,
                "duration": 0.586363636363636,
                "tempo": 120.0
            },
            {
                "start_time": 41.72272727272727,
                "end_time": 42.31136363636364,
                "pitch": 32,
                "velocity": 51,
                "duration": 0.5886363636363683,
                "tempo": 120.0
            },
            {
                "start_time": 42.32727272727273,
                "end_time": 42.918181818181814,
                "pitch": 35,
                "velocity": 51,
                "duration": 0.5909090909090864,
                "tempo": 120.0
            },
            {
                "start_time": 42.934090909090905,
                "end_time": 43.220454545454544,
                "pitch": 40,
                "velocity": 51,
                "duration": 0.2863636363636388,
                "tempo": 120.0
            },
            {
                "start_time": 43.236363636363635,
                "end_time": 43.82727272727273,
                "pitch": 44,
                "velocity": 51,
                "duration": 0.5909090909090935,
                "tempo": 120.0
            },
            {
                "start_time": 43.84318181818182,
                "end_time": 44.127272727272725,
                "pitch": 40,
                "velocity": 51,
                "duration": 0.2840909090909065,
                "tempo": 120.0
            },
            {
                "start_time": 44.143181818181816,
                "end_time": 44.72954545454545,
                "pitch": 47,
                "velocity": 51,
                "duration": 0.586363636363636,
                "tempo": 120.0
            },
            {
                "start_time": 44.74545454545454,
                "end_time": 45.03181818181818,
                "pitch": 40,
                "velocity": 51,
                "duration": 0.2863636363636388,
                "tempo": 120.0
            },
            {
                "start_time": 45.05,
                "end_time": 45.63863636363636,
                "pitch": 44,
                "velocity": 51,
                "duration": 0.5886363636363612,
                "tempo": 120.0
            },
            {
                "start_time": 45.65454545454545,
                "end_time": 46.54772727272727,
                "pitch": 36,
                "velocity": 51,
                "duration": 0.893181818181823,
                "tempo": 120.0
            },
            {
                "start_time": 46.56363636363636,
                "end_time": 47.15,
                "pitch": 36,
                "velocity": 51,
                "duration": 0.586363636363636,
                "tempo": 120.0
            },
            {
                "start_time": 47.168181818181814,
                "end_time": 47.449999999999996,
                "pitch": 36,
                "velocity": 51,
                "duration": 0.2818181818181813,
                "tempo": 120.0
            },
            {
                "start_time": 47.46818181818182,
                "end_time": 48.05681818181818,
                "pitch": 36,
                "velocity": 51,
                "duration": 0.5886363636363612,
                "tempo": 120.0
            },
            {
                "start_time": 48.07272727272727,
                "end_time": 48.663636363636364,
                "pitch": 38,
                "velocity": 51,
                "duration": 0.5909090909090935,
                "tempo": 120.0
            },
            {
                "start_time": 48.679545454545455,
                "end_time": 48.965909090909086,
                "pitch": 38,
                "velocity": 51,
                "duration": 0.2863636363636317,
                "tempo": 120.0
            },
            {
                "start_time": 48.98181818181818,
                "end_time": 49.57272727272727,
                "pitch": 38,
                "velocity": 51,
                "duration": 0.5909090909090935,
                "tempo": 120.0
            },
            {
                "start_time": 49.58863636363636,
                "end_time": 50.175,
                "pitch": 38,
                "velocity": 51,
                "duration": 0.586363636363636,
                "tempo": 120.0
            },
            {
                "start_time": 50.19090909090909,
                "end_time": 50.474999999999994,
                "pitch": 38,
                "velocity": 51,
                "duration": 0.2840909090909065,
                "tempo": 120.0
            },
            {
                "start_time": 50.490909090909085,
                "end_time": 51.38409090909091,
                "pitch": 40,
                "velocity": 51,
                "duration": 0.893181818181823,
                "tempo": 120.0
            },
            {
                "start_time": 51.4,
                "end_time": 51.990909090909085,
                "pitch": 40,
                "velocity": 51,
                "duration": 0.5909090909090864,
                "tempo": 120.0
            },
            {
                "start_time": 52.00681818181818,
                "end_time": 52.595454545454544,
                "pitch": 35,
                "velocity": 51,
                "duration": 0.5886363636363612,
                "tempo": 120.0
            },
            {
                "start_time": 52.61363636363636,
                "end_time": 52.9,
                "pitch": 32,
                "velocity": 51,
                "duration": 0.2863636363636388,
                "tempo": 120.0
            },
            {
                "start_time": 52.91590909090909,
                "end_time": 53.5,
                "pitch": 32,
                "velocity": 51,
                "duration": 0.5840909090909108,
                "tempo": 120.0
            },
            {
                "start_time": 53.51590909090909,
                "end_time": 53.80227272727272,
                "pitch": 35,
                "velocity": 51,
                "duration": 0.2863636363636317,
                "tempo": 120.0
            },
            {
                "start_time": 53.81818181818181,
                "end_time": 54.10454545454545,
                "pitch": 36,
                "velocity": 51,
                "duration": 0.2863636363636388,
                "tempo": 120.0
            },
            {
                "start_time": 54.12272727272727,
                "end_time": 54.40909090909091,
                "pitch": 38,
                "velocity": 51,
                "duration": 0.2863636363636388,
                "tempo": 120.0
            },
            {
                "start_time": 54.425,
                "end_time": 54.711363636363636,
                "pitch": 40,
                "velocity": 51,
                "duration": 0.2863636363636388,
                "tempo": 120.0
            },
            {
                "start_time": 54.72727272727273,
                "end_time": 55.01363636363636,
                "pitch": 38,
                "velocity": 51,
                "duration": 0.2863636363636317,
                "tempo": 120.0
            },
            {
                "start_time": 55.03181818181818,
                "end_time": 55.31818181818181,
                "pitch": 36,
                "velocity": 51,
                "duration": 0.2863636363636317,
                "tempo": 120.0
            },
            {
                "start_time": 55.334090909090904,
                "end_time": 55.94090909090909,
                "pitch": 36,
                "velocity": 51,
                "duration": 0.6068181818181841,
                "tempo": 120.0
            },
            {
                "start_time": 55.959090909090904,
                "end_time": 56.24545454545454,
                "pitch": 36,
                "velocity": 51,
                "duration": 0.2863636363636388,
                "tempo": 120.0
            },
            {
                "start_time": 56.26136363636363,
                "end_time": 56.85227272727273,
                "pitch": 36,
                "velocity": 51,
                "duration": 0.5909090909090935,
                "tempo": 120.0
            },
            {
                "start_time": 56.86818181818182,
                "end_time": 57.15454545454545,
                "pitch": 36,
                "velocity": 40,
                "duration": 0.2863636363636317,
                "tempo": 120.0
            },
            {
                "start_time": 57.17045454545454,
                "end_time": 57.76136363636363,
                "pitch": 36,
                "velocity": 40,
                "duration": 0.5909090909090935,
                "tempo": 120.0
            },
            {
                "start_time": 57.777272727272724,
                "end_time": 58.361363636363635,
                "pitch": 38,
                "velocity": 40,
                "duration": 0.5840909090909108,
                "tempo": 120.0
            },
            {
                "start_time": 58.377272727272725,
                "end_time": 58.663636363636364,
                "pitch": 38,
                "velocity": 32,
                "duration": 0.2863636363636388,
                "tempo": 120.0
            },
            {
                "start_time": 58.679545454545455,
                "end_time": 59.57954545454545,
                "pitch": 38,
                "velocity": 32,
                "duration": 0.8999999999999986,
                "tempo": 120.0
            },
            {
                "start_time": 59.595454545454544,
                "end_time": 60.17272727272727,
                "pitch": 33,
                "velocity": 25,
                "duration": 0.577272727272728,
                "tempo": 120.0
            },
            {
                "start_time": 60.19090909090909,
                "end_time": 61.07727272727272,
                "pitch": 40,
                "velocity": 25,
                "duration": 0.8863636363636331,
                "tempo": 120.0
            },
            {
                "start_time": 61.09318181818182,
                "end_time": 61.37272727272727,
                "pitch": 40,
                "velocity": 20,
                "duration": 0.279545454545449,
                "tempo": 120.0
            },
            {
                "start_time": 61.39090909090909,
                "end_time": 62.29090909090909,
                "pitch": 40,
                "velocity": 20,
                "duration": 0.8999999999999986,
                "tempo": 120.0
            },
            {
                "start_time": 62.30681818181818,
                "end_time": 62.59772727272727,
                "pitch": 40,
                "velocity": 16,
                "duration": 0.29090909090908923,
                "tempo": 120.0
            },
            {
                "start_time": 62.61363636363636,
                "end_time": 65.0,
                "pitch": 40,
                "velocity": 16,
                "duration": 2.3863636363636402,
                "tempo": 120.0
            }
        ]
    }
}