{
    "track_id": "Phantasy Star (FM) - 02 - Intro",
    "mood": "sad",
    "instruments": {
        "Church Organ": [
            {
                "start_time": 0.7999999999999999,
                "end_time": 1.565909090909091,
                "pitch": 57,
                "velocity": 80,
                "duration": 0.765909090909091,
                "tempo": 120.0
            },
            {
                "start_time": 1.5999999999999999,
                "end_time": 2.3659090909090907,
                "pitch": 56,
                "velocity": 80,
                "duration": 0.7659090909090909,
                "tempo": 120.0
            },
            {
                "start_time": 2.4,
                "end_time": 3.965909090909091,
                "pitch": 52,
                "velocity": 80,
                "duration": 1.565909090909091,
                "tempo": 120.0
            },
            {
                "start_time": 4.0,
                "end_time": 4.765909090909091,
                "pitch": 52,
                "velocity": 80,
                "duration": 0.7659090909090907,
                "tempo": 120.0
            },
            {
                "start_time": 4.8,
                "end_time": 5.5659090909090905,
                "pitch": 57,
                "velocity": 80,
                "duration": 0.7659090909090907,
                "tempo": 120.0
            },
            {
                "start_time": 5.6,
                "end_time": 6.781818181818181,
                "pitch": 55,
                "velocity": 80,
                "duration": 1.1818181818181817,
                "tempo": 120.0
            },
            {
                "start_time": 6.8159090909090905,
                "end_time": 7.997727272727272,
                "pitch": 54,
                "velocity": 80,
                "duration": 1.1818181818181817,
                "tempo": 120.0
            },
            {
                "start_time": 8.031818181818181,
                "end_time": 11.61590909090909,
                "pitch": 50,
                "velocity": 80,
                "duration": 3.584090909090909,
                "tempo": 120.0
            },
            {
                "start_time": 13.665909090909091,
                "end_time": 14.431818181818182,
                "pitch": 57,
                "velocity": 80,
                "duration": 0.7659090909090907,
                "tempo": 120.0
            },
            {
                "start_time": 14.46590909090909,
                "end_time": 15.23181818181818,
                "pitch": 56,
                "velocity": 80,
                "duration": 0.7659090909090907,
                "tempo": 120.0
            },
            {
                "start_time": 15.26590909090909,
                "end_time": 16.831818181818182,
                "pitch": 52,
                "velocity": 80,
                "duration": 1.5659090909090914,
                "tempo": 120.0
            },
            {
                "start_time": 16.86590909090909,
                "end_time": 17.643181818181816,
                "pitch": 52,
                "velocity": 80,
                "duration": 0.7772727272727273,
                "tempo": 120.0
            },
            {
                "start_time": 17.677272727272726,
                "end_time": 18.452272727272728,
                "pitch": 57,
                "velocity": 80,
                "duration": 0.7750000000000021,
                "tempo": 120.0
            },
            {
                "start_time": 18.486363636363635,
                "end_time": 21.270454545454545,
                "pitch": 60,
                "velocity": 80,
                "duration": 2.78409090909091,
                "tempo": 120.0
            },
            {
                "start_time": 21.302272727272726,
                "end_time": 21.675,
                "pitch": 60,
                "velocity": 80,
                "duration": 0.3727272727272748,
                "tempo": 120.0
            },
            {
                "start_time": 21.709090909090907,
                "end_time": 24.895454545454545,
                "pitch": 60,
                "velocity": 80,
                "duration": 3.1863636363636374,
                "tempo": 120.0
            },
            {
                "start_time": 26.552272727272726,
                "end_time": 27.318181818181817,
                "pitch": 57,
                "velocity": 80,
                "duration": 0.7659090909090907,
                "tempo": 120.0
            },
            {
                "start_time": 27.352272727272727,
                "end_time": 28.118181818181817,
                "pitch": 56,
                "velocity": 80,
                "duration": 0.7659090909090907,
                "tempo": 120.0
            },
            {
                "start_time": 28.152272727272727,
                "end_time": 29.738636363636363,
                "pitch": 52,
                "velocity": 80,
                "duration": 1.586363636363636,
                "tempo": 120.0
            },
            {
                "start_time": 29.77272727272727,
                "end_time": 30.54090909090909,
                "pitch": 52,
                "velocity": 80,
                "duration": 0.7681818181818194,
                "tempo": 120.0
            },
            {
                "start_time": 30.57272727272727,
                "end_time": 31.34090909090909,
                "pitch": 57,
                "velocity": 80,
                "duration": 0.7681818181818194,
                "tempo": 120.0
            },
            {
                "start_time": 31.37272727272727,
                "end_time": 32.55681818181818,
                "pitch": 55,
                "velocity": 80,
                "duration": 1.1840909090909086,
                "tempo": 120.0
            },
            {
                "start_time": 32.58863636363636,
                "end_time": 33.77272727272727,
                "pitch": 54,
                "velocity": 80,
                "duration": 1.1840909090909122,
                "tempo": 120.0
            },
            {
                "start_time": 33.80681818181818,
                "end_time": 37.38863636363636,
                "pitch": 50,
                "velocity": 80,
                "duration": 3.5818181818181785,
                "tempo": 120.0
            },
            {
                "start_time": 39.43863636363636,
                "end_time": 40.215909090909086,
                "pitch": 57,
                "velocity": 80,
                "duration": 0.7772727272727238,
                "tempo": 120.0
            },
            {
                "start_time": 40.25,
                "end_time": 41.027272727272724,
                "pitch": 56,
                "velocity": 80,
                "duration": 0.7772727272727238,
                "tempo": 120.0
            },
            {
                "start_time": 41.06136363636364,
                "end_time": 42.64772727272727,
                "pitch": 52,
                "velocity": 80,
                "duration": 1.586363636363636,
                "tempo": 120.0
            },
            {
                "start_time": 42.68181818181818,
                "end_time": 43.459090909090904,
                "pitch": 52,
                "velocity": 80,
                "duration": 0.7772727272727238,
                "tempo": 120.0
            },
            {
                "start_time": 43.49318181818182,
                "end_time": 44.27045454545454,
                "pitch": 57,
                "velocity": 80,
                "duration": 0.7772727272727238,
                "tempo": 120.0
            },
            {
                "start_time": 44.304545454545455,
                "end_time": 46.67045454545454,
                "pitch": 60,
                "velocity": 80,
                "duration": 2.365909090909085,
                "tempo": 120.0
            },
            {
                "start_time": 46.70454545454545,
                "end_time": 47.470454545454544,
                "pitch": 59,
                "velocity": 80,
                "duration": 0.7659090909090907,
                "tempo": 120.0
            },
            {
                "start_time": 47.50454545454545,
                "end_time": 50.71363636363636,
                "pitch": 56,
                "velocity": 80,
                "duration": 3.2090909090909108,
                "tempo": 120.0
            }
        ],
        "Flute": [
            {
                "start_time": 0.0,
                "end_time": 0.3840909090909091,
                "pitch": 33,
                "velocity": 51,
                "duration": 0.3840909090909091,
                "tempo": 120.0
            },
            {
                "start_time": 0.39999999999999997,
                "end_time": 2.3659090909090907,
                "pitch": 45,
                "velocity": 51,
                "duration": 1.9659090909090908,
                "tempo": 120.0
            },
            {
                "start_time": 5.6,
                "end_time": 9.620454545454544,
                "pitch": 43,
                "velocity": 51,
                "duration": 4.020454545454545,
                "tempo": 120.0
            },
            {
                "start_time": 9.654545454545454,
                "end_time": 10.431818181818182,
                "pitch": 62,
                "velocity": 51,
                "duration": 0.7772727272727273,
                "tempo": 120.0
            },
            {
                "start_time": 10.46590909090909,
                "end_time": 11.220454545454546,
                "pitch": 61,
                "velocity": 51,
                "duration": 0.7545454545454557,
                "tempo": 120.0
            },
            {
                "start_time": 11.254545454545454,
                "end_time": 12.011363636363635,
                "pitch": 55,
                "velocity": 51,
                "duration": 0.756818181818181,
                "tempo": 120.0
            },
            {
                "start_time": 12.043181818181818,
                "end_time": 15.23181818181818,
                "pitch": 45,
                "velocity": 51,
                "duration": 3.1886363636363626,
                "tempo": 120.0
            },
            {
                "start_time": 18.486363636363635,
                "end_time": 21.270454545454545,
                "pitch": 64,
                "velocity": 51,
                "duration": 2.78409090909091,
                "tempo": 120.0
            },
            {
                "start_time": 21.302272727272726,
                "end_time": 21.675,
                "pitch": 60,
                "velocity": 51,
                "duration": 0.3727272727272748,
                "tempo": 120.0
            },
            {
                "start_time": 21.709090909090907,
                "end_time": 24.895454545454545,
                "pitch": 60,
                "velocity": 51,
                "duration": 3.1863636363636374,
                "tempo": 120.0
            },
            {
                "start_time": 24.929545454545455,
                "end_time": 25.706818181818182,
                "pitch": 52,
                "velocity": 51,
                "duration": 0.7772727272727273,
                "tempo": 120.0
            },
            {
                "start_time": 25.74090909090909,
                "end_time": 28.118181818181817,
                "pitch": 52,
                "velocity": 51,
                "duration": 2.3772727272727288,
                "tempo": 120.0
            },
            {
                "start_time": 31.37272727272727,
                "end_time": 35.393181818181816,
                "pitch": 50,
                "velocity": 51,
                "duration": 4.020454545454545,
                "tempo": 120.0
            },
            {
                "start_time": 35.42727272727272,
                "end_time": 36.20454545454545,
                "pitch": 59,
                "velocity": 51,
                "duration": 0.7772727272727309,
                "tempo": 120.0
            },
            {
                "start_time": 36.23863636363636,
                "end_time": 36.99545454545454,
                "pitch": 57,
                "velocity": 51,
                "duration": 0.7568181818181827,
                "tempo": 120.0
            },
            {
                "start_time": 37.027272727272724,
                "end_time": 37.78409090909091,
                "pitch": 62,
                "velocity": 51,
                "duration": 0.7568181818181827,
                "tempo": 120.0
            },
            {
                "start_time": 37.81818181818181,
                "end_time": 41.027272727272724,
                "pitch": 52,
                "velocity": 51,
                "duration": 3.2090909090909108,
                "tempo": 120.0
            },
            {
                "start_time": 44.304545454545455,
                "end_time": 47.470454545454544,
                "pitch": 50,
                "velocity": 51,
                "duration": 3.1659090909090892,
                "tempo": 120.0
            },
            {
                "start_time": 47.50454545454545,
                "end_time": 50.71363636363636,
                "pitch": 47,
                "velocity": 51,
                "duration": 3.2090909090909108,
                "tempo": 120.0
            },
            {
                "start_time": 50.74772727272727,
                "end_time": 53.93636363636363,
                "pitch": 53,
                "velocity": 51,
                "duration": 3.1886363636363626,
                "tempo": 120.0
            },
            {
                "start_time": 55.184090909090905,
                "end_time": 55.961363636363636,
                "pitch": 59,
                "velocity": 51,
                "duration": 0.7772727272727309,
                "tempo": 120.0
            },
            {
                "start_time": 55.99545454545454,
                "end_time": 56.77272727272727,
                "pitch": 57,
                "velocity": 51,
                "duration": 0.7772727272727309,
                "tempo": 120.0
            },
            {
                "start_time": 56.80681818181818,
                "end_time": 57.17727272727272,
                "pitch": 53,
                "velocity": 51,
                "duration": 0.3704545454545425,
                "tempo": 120.0
            },
            {
                "start_time": 57.211363636363636,
                "end_time": 60.402272727272724,
                "pitch": 52,
                "velocity": 51,
                "duration": 3.190909090909088,
                "tempo": 120.0
            },
            {
                "start_time": 61.63409090909091,
                "end_time": 63.62272727272727,
                "pitch": 57,
                "velocity": 51,
                "duration": 1.9886363636363598,
                "tempo": 120.0
            },
            {
                "start_time": 63.65681818181818,
                "end_time": 66.84318181818182,
                "pitch": 50,
                "velocity": 51,
                "duration": 3.1863636363636374,
                "tempo": 120.0
            },
            {
                "start_time": 70.1,
                "end_time": 73.15681818181818,
                "pitch": 59,
                "velocity": 51,
                "duration": 3.056818181818187,
                "tempo": 120.0
            },
            {
                "start_time": 73.18863636363636,
                "end_time": 76.5090909090909,
                "pitch": 59,
                "velocity": 51,
                "duration": 3.320454545454538,
                "tempo": 120.0
            },
            {
                "start_time": 76.54090909090908,
                "end_time": 79.72954545454544,
                "pitch": 59,
                "velocity": 51,
                "duration": 3.1886363636363626,
                "tempo": 120.0
            },
            {
                "start_time": 79.76363636363637,
                "end_time": 81.72954545454544,
                "pitch": 59,
                "velocity": 51,
                "duration": 1.9659090909090793,
                "tempo": 120.0
            },
            {
                "start_time": 81.76363636363637,
                "end_time": 82.12954545454545,
                "pitch": 54,
                "velocity": 51,
                "duration": 0.36590909090908497,
                "tempo": 120.0
            },
            {
                "start_time": 82.16363636363636,
                "end_time": 86.15227272727272,
                "pitch": 57,
                "velocity": 51,
                "duration": 3.9886363636363598,
                "tempo": 120.0
            },
            {
                "start_time": 89.40681818181818,
                "end_time": 92.66136363636363,
                "pitch": 60,
                "velocity": 51,
                "duration": 3.2545454545454504,
                "tempo": 120.0
            },
            {
                "start_time": 95.85,
                "end_time": 99.03863636363636,
                "pitch": 64,
                "velocity": 51,
                "duration": 3.1886363636363626,
                "tempo": 120.0
            },
            {
                "start_time": 99.07045454545454,
                "end_time": 101.2590909090909,
                "pitch": 62,
                "velocity": 51,
                "duration": 2.1886363636363626,
                "tempo": 120.0
            }
        ],
        "Acoustic Grand Piano": [
            {
                "start_time": 0.0,
                "end_time": 0.3840909090909091,
                "pitch": 33,
                "velocity": 51,
                "duration": 0.3840909090909091,
                "tempo": 120.0
            },
            {
                "start_time": 0.39999999999999997,
                "end_time": 2.3659090909090907,
                "pitch": 45,
                "velocity": 51,
                "duration": 1.9659090909090908,
                "tempo": 120.0
            },
            {
                "start_time": 5.6,
                "end_time": 7.997727272727272,
                "pitch": 43,
                "velocity": 51,
                "duration": 2.3977272727272725,
                "tempo": 120.0
            },
            {
                "start_time": 8.031818181818181,
                "end_time": 12.011363636363635,
                "pitch": 31,
                "velocity": 51,
                "duration": 3.9795454545454536,
                "tempo": 120.0
            },
            {
                "start_time": 12.043181818181818,
                "end_time": 12.820454545454545,
                "pitch": 33,
                "velocity": 51,
                "duration": 0.7772727272727273,
                "tempo": 120.0
            },
            {
                "start_time": 12.854545454545454,
                "end_time": 15.23181818181818,
                "pitch": 45,
                "velocity": 51,
                "duration": 2.377272727272727,
                "tempo": 120.0
            },
            {
                "start_time": 18.486363636363635,
                "end_time": 21.675,
                "pitch": 41,
                "velocity": 51,
                "duration": 3.188636363636366,
                "tempo": 120.0
            },
            {
                "start_time": 24.929545454545455,
                "end_time": 25.706818181818182,
                "pitch": 33,
                "velocity": 51,
                "duration": 0.7772727272727273,
                "tempo": 120.0
            },
            {
                "start_time": 25.74090909090909,
                "end_time": 28.118181818181817,
                "pitch": 45,
                "velocity": 51,
                "duration": 2.3772727272727288,
                "tempo": 120.0
            },
            {
                "start_time": 31.37272727272727,
                "end_time": 33.77272727272727,
                "pitch": 43,
                "velocity": 51,
                "duration": 2.400000000000002,
                "tempo": 120.0
            },
            {
                "start_time": 33.80681818181818,
                "end_time": 37.78409090909091,
                "pitch": 31,
                "velocity": 51,
                "duration": 3.9772727272727266,
                "tempo": 120.0
            },
            {
                "start_time": 37.81818181818181,
                "end_time": 38.595454545454544,
                "pitch": 33,
                "velocity": 51,
                "duration": 0.7772727272727309,
                "tempo": 120.0
            },
            {
                "start_time": 38.627272727272725,
                "end_time": 41.027272727272724,
                "pitch": 45,
                "velocity": 51,
                "duration": 2.3999999999999986,
                "tempo": 120.0
            },
            {
                "start_time": 44.304545454545455,
                "end_time": 47.470454545454544,
                "pitch": 29,
                "velocity": 51,
                "duration": 3.1659090909090892,
                "tempo": 120.0
            },
            {
                "start_time": 47.50454545454545,
                "end_time": 50.71363636363636,
                "pitch": 40,
                "velocity": 51,
                "duration": 3.2090909090909108,
                "tempo": 120.0
            },
            {
                "start_time": 50.74772727272727,
                "end_time": 53.002272727272725,
                "pitch": 38,
                "velocity": 51,
                "duration": 2.2545454545454575,
                "tempo": 120.0
            },
            {
                "start_time": 56.80681818181818,
                "end_time": 57.17727272727272,
                "pitch": 38,
                "velocity": 51,
                "duration": 0.3704545454545425,
                "tempo": 120.0
            },
            {
                "start_time": 57.211363636363636,
                "end_time": 60.402272727272724,
                "pitch": 36,
                "velocity": 51,
                "duration": 3.190909090909088,
                "tempo": 120.0
            },
            {
                "start_time": 63.65681818181818,
                "end_time": 66.31136363636364,
                "pitch": 40,
                "velocity": 51,
                "duration": 2.654545454545456,
                "tempo": 120.0
            },
            {
                "start_time": 66.34318181818182,
                "end_time": 69.27727272727273,
                "pitch": 40,
                "velocity": 51,
                "duration": 2.934090909090912,
                "tempo": 120.0
            },
            {
                "start_time": 69.30909090909091,
                "end_time": 70.06590909090909,
                "pitch": 40,
                "velocity": 51,
                "duration": 0.7568181818181756,
                "tempo": 120.0
            },
            {
                "start_time": 70.1,
                "end_time": 72.49772727272727,
                "pitch": 41,
                "velocity": 51,
                "duration": 2.3977272727272805,
                "tempo": 120.0
            },
            {
                "start_time": 72.53181818181818,
                "end_time": 73.28636363636363,
                "pitch": 36,
                "velocity": 51,
                "duration": 0.7545454545454504,
                "tempo": 120.0
            },
            {
                "start_time": 73.32045454545454,
                "end_time": 76.5090909090909,
                "pitch": 36,
                "velocity": 51,
                "duration": 3.1886363636363626,
                "tempo": 120.0
            },
            {
                "start_time": 76.54090909090908,
                "end_time": 78.79772727272727,
                "pitch": 38,
                "velocity": 51,
                "duration": 2.25681818181819,
                "tempo": 120.0
            },
            {
                "start_time": 82.56363636363636,
                "end_time": 82.92954545454545,
                "pitch": 38,
                "velocity": 51,
                "duration": 0.36590909090908497,
                "tempo": 120.0
            },
            {
                "start_time": 82.96363636363635,
                "end_time": 86.15227272727272,
                "pitch": 36,
                "velocity": 51,
                "duration": 3.1886363636363626,
                "tempo": 120.0
            },
            {
                "start_time": 89.40681818181818,
                "end_time": 92.05454545454545,
                "pitch": 40,
                "velocity": 51,
                "duration": 2.6477272727272663,
                "tempo": 120.0
            },
            {
                "start_time": 92.08863636363635,
                "end_time": 95.02727272727272,
                "pitch": 40,
                "velocity": 51,
                "duration": 2.9386363636363626,
                "tempo": 120.0
            },
            {
                "start_time": 95.06136363636364,
                "end_time": 95.81818181818181,
                "pitch": 40,
                "velocity": 51,
                "duration": 0.7568181818181756,
                "tempo": 120.0
            },
            {
                "start_time": 95.85,
                "end_time": 98.25,
                "pitch": 41,
                "velocity": 51,
                "duration": 2.4000000000000057,
                "tempo": 120.0
            },
            {
                "start_time": 98.28181818181818,
                "end_time": 99.03863636363636,
                "pitch": 36,
                "velocity": 51,
                "duration": 0.7568181818181756,
                "tempo": 120.0
            },
            {
                "start_time": 99.07045454545454,
                "end_time": 102.2590909090909,
                "pitch": 36,
                "velocity": 51,
                "duration": 3.1886363636363626,
                "tempo": 120.0
            }
        ]
    }
}