{
    "track_id": "Power Strike, Aleste (FM) - 13 - Easygoing",
    "mood": "sad",
    "instruments": {
        "Harpsichord": [
            {
                "start_time": 0.0,
                "end_time": 0.1159090909090909,
                "pitch": 43,
                "velocity": 51,
                "duration": 0.1159090909090909,
                "tempo": 120.0
            },
            {
                "start_time": 0.1159090909090909,
                "end_time": 0.23409090909090907,
                "pitch": 43,
                "velocity": 51,
                "duration": 0.11818181818181817,
                "tempo": 120.0
            },
            {
                "start_time": 0.23409090909090907,
                "end_time": 0.3727272727272727,
                "pitch": 55,
                "velocity": 51,
                "duration": 0.1386363636363636,
                "tempo": 120.0
            },
            {
                "start_time": 0.3727272727272727,
                "end_time": 0.4909090909090909,
                "pitch": 53,
                "velocity": 51,
                "duration": 0.11818181818181822,
                "tempo": 120.0
            },
            {
                "start_time": 0.4909090909090909,
                "end_time": 0.6022727272727273,
                "pitch": 53,
                "velocity": 51,
                "duration": 0.11136363636363639,
                "tempo": 120.0
            },
            {
                "start_time": 0.6022727272727273,
                "end_time": 0.7159090909090908,
                "pitch": 50,
                "velocity": 51,
                "duration": 0.11363636363636354,
                "tempo": 120.0
            },
            {
                "start_time": 0.7159090909090908,
                "end_time": 0.8272727272727273,
                "pitch": 52,
                "velocity": 51,
                "duration": 0.11136363636363644,
                "tempo": 120.0
            },
            {
                "start_time": 0.8272727272727273,
                "end_time": 0.9568181818181818,
                "pitch": 52,
                "velocity": 51,
                "duration": 0.12954545454545452,
                "tempo": 120.0
            },
            {
                "start_time": 0.9568181818181818,
                "end_time": 1.075,
                "pitch": 43,
                "velocity": 51,
                "duration": 0.11818181818181817,
                "tempo": 120.0
            },
            {
                "start_time": 1.075,
                "end_time": 1.1954545454545453,
                "pitch": 43,
                "velocity": 51,
                "duration": 0.12045454545454537,
                "tempo": 120.0
            },
            {
                "start_time": 1.1954545454545453,
                "end_time": 1.3136363636363635,
                "pitch": 55,
                "velocity": 51,
                "duration": 0.11818181818181817,
                "tempo": 120.0
            },
            {
                "start_time": 1.3136363636363635,
                "end_time": 1.434090909090909,
                "pitch": 53,
                "velocity": 51,
                "duration": 0.12045454545454559,
                "tempo": 120.0
            },
            {
                "start_time": 1.434090909090909,
                "end_time": 1.565909090909091,
                "pitch": 53,
                "velocity": 51,
                "duration": 0.13181818181818183,
                "tempo": 120.0
            },
            {
                "start_time": 1.565909090909091,
                "end_time": 1.6795454545454545,
                "pitch": 52,
                "velocity": 51,
                "duration": 0.11363636363636354,
                "tempo": 120.0
            },
            {
                "start_time": 1.6795454545454545,
                "end_time": 1.7954545454545454,
                "pitch": 55,
                "velocity": 51,
                "duration": 0.11590909090909096,
                "tempo": 120.0
            },
            {
                "start_time": 1.7954545454545454,
                "end_time": 1.909090909090909,
                "pitch": 62,
                "velocity": 51,
                "duration": 0.11363636363636354,
                "tempo": 120.0
            },
            {
                "start_time": 1.909090909090909,
                "end_time": 2.0295454545454543,
                "pitch": 43,
                "velocity": 51,
                "duration": 0.12045454545454537,
                "tempo": 120.0
            },
            {
                "start_time": 2.0295454545454543,
                "end_time": 2.165909090909091,
                "pitch": 43,
                "velocity": 51,
                "duration": 0.1363636363636367,
                "tempo": 120.0
            },
            {
                "start_time": 2.165909090909091,
                "end_time": 2.284090909090909,
                "pitch": 55,
                "velocity": 51,
                "duration": 0.11818181818181817,
                "tempo": 120.0
            },
            {
                "start_time": 2.284090909090909,
                "end_time": 2.4045454545454543,
                "pitch": 53,
                "velocity": 51,
                "duration": 0.12045454545454515,
                "tempo": 120.0
            },
            {
                "start_time": 2.4045454545454543,
                "end_time": 2.518181818181818,
                "pitch": 53,
                "velocity": 51,
                "duration": 0.11363636363636376,
                "tempo": 120.0
            },
            {
                "start_time": 2.518181818181818,
                "end_time": 2.65,
                "pitch": 50,
                "velocity": 51,
                "duration": 0.13181818181818183,
                "tempo": 120.0
            },
            {
                "start_time": 2.65,
                "end_time": 2.7659090909090907,
                "pitch": 52,
                "velocity": 51,
                "duration": 0.11590909090909074,
                "tempo": 120.0
            },
            {
                "start_time": 2.7659090909090907,
                "end_time": 2.8795454545454544,
                "pitch": 52,
                "velocity": 51,
                "duration": 0.11363636363636376,
                "tempo": 120.0
            },
            {
                "start_time": 2.8795454545454544,
                "end_time": 3.0,
                "pitch": 43,
                "velocity": 51,
                "duration": 0.12045454545454559,
                "tempo": 120.0
            },
            {
                "start_time": 3.0,
                "end_time": 3.118181818181818,
                "pitch": 43,
                "velocity": 51,
                "duration": 0.11818181818181817,
                "tempo": 120.0
            },
            {
                "start_time": 3.118181818181818,
                "end_time": 3.2545454545454544,
                "pitch": 55,
                "velocity": 51,
                "duration": 0.13636363636363624,
                "tempo": 120.0
            },
            {
                "start_time": 3.2545454545454544,
                "end_time": 3.375,
                "pitch": 53,
                "velocity": 51,
                "duration": 0.12045454545454559,
                "tempo": 120.0
            },
            {
                "start_time": 3.375,
                "end_time": 3.495454545454545,
                "pitch": 53,
                "velocity": 51,
                "duration": 0.12045454545454515,
                "tempo": 120.0
            },
            {
                "start_time": 3.495454545454545,
                "end_time": 3.6136363636363633,
                "pitch": 52,
                "velocity": 51,
                "duration": 0.11818181818181817,
                "tempo": 120.0
            },
            {
                "start_time": 3.6136363636363633,
                "end_time": 3.734090909090909,
                "pitch": 55,
                "velocity": 51,
                "duration": 0.12045454545454559,
                "tempo": 120.0
            },
            {
                "start_time": 3.734090909090909,
                "end_time": 3.870454545454545,
                "pitch": 62,
                "velocity": 51,
                "duration": 0.13636363636363624,
                "tempo": 120.0
            },
            {
                "start_time": 3.870454545454545,
                "end_time": 3.9863636363636363,
                "pitch": 46,
                "velocity": 51,
                "duration": 0.11590909090909118,
                "tempo": 120.0
            },
            {
                "start_time": 3.9863636363636363,
                "end_time": 4.1045454545454545,
                "pitch": 46,
                "velocity": 51,
                "duration": 0.11818181818181817,
                "tempo": 120.0
            },
            {
                "start_time": 4.1045454545454545,
                "end_time": 4.220454545454546,
                "pitch": 58,
                "velocity": 51,
                "duration": 0.11590909090909118,
                "tempo": 120.0
            },
            {
                "start_time": 4.220454545454546,
                "end_time": 4.3545454545454545,
                "pitch": 58,
                "velocity": 51,
                "duration": 0.13409090909090882,
                "tempo": 120.0
            },
            {
                "start_time": 4.3545454545454545,
                "end_time": 4.468181818181818,
                "pitch": 56,
                "velocity": 51,
                "duration": 0.11363636363636331,
                "tempo": 120.0
            },
            {
                "start_time": 4.468181818181818,
                "end_time": 4.584090909090909,
                "pitch": 53,
                "velocity": 51,
                "duration": 0.11590909090909118,
                "tempo": 120.0
            },
            {
                "start_time": 4.584090909090909,
                "end_time": 4.697727272727272,
                "pitch": 55,
                "velocity": 51,
                "duration": 0.11363636363636331,
                "tempo": 120.0
            },
            {
                "start_time": 4.697727272727272,
                "end_time": 4.8136363636363635,
                "pitch": 55,
                "velocity": 51,
                "duration": 0.11590909090909118,
                "tempo": 120.0
            },
            {
                "start_time": 4.8136363636363635,
                "end_time": 4.943181818181818,
                "pitch": 46,
                "velocity": 51,
                "duration": 0.12954545454545485,
                "tempo": 120.0
            },
            {
                "start_time": 4.943181818181818,
                "end_time": 5.059090909090909,
                "pitch": 46,
                "velocity": 51,
                "duration": 0.1159090909090903,
                "tempo": 120.0
            },
            {
                "start_time": 5.059090909090909,
                "end_time": 5.172727272727273,
                "pitch": 58,
                "velocity": 51,
                "duration": 0.1136363636363642,
                "tempo": 120.0
            },
            {
                "start_time": 5.172727272727273,
                "end_time": 5.288636363636363,
                "pitch": 58,
                "velocity": 51,
                "duration": 0.1159090909090903,
                "tempo": 120.0
            },
            {
                "start_time": 5.288636363636363,
                "end_time": 5.406818181818181,
                "pitch": 56,
                "velocity": 51,
                "duration": 0.11818181818181817,
                "tempo": 120.0
            },
            {
                "start_time": 5.406818181818181,
                "end_time": 5.545454545454545,
                "pitch": 55,
                "velocity": 51,
                "duration": 0.13863636363636367,
                "tempo": 120.0
            },
            {
                "start_time": 5.545454545454545,
                "end_time": 5.663636363636363,
                "pitch": 56,
                "velocity": 51,
                "duration": 0.11818181818181817,
                "tempo": 120.0
            },
            {
                "start_time": 5.663636363636363,
                "end_time": 5.784090909090909,
                "pitch": 65,
                "velocity": 51,
                "duration": 0.12045454545454604,
                "tempo": 120.0
            },
            {
                "start_time": 5.784090909090909,
                "end_time": 5.902272727272727,
                "pitch": 46,
                "velocity": 51,
                "duration": 0.11818181818181817,
                "tempo": 120.0
            },
            {
                "start_time": 5.902272727272727,
                "end_time": 6.0227272727272725,
                "pitch": 46,
                "velocity": 51,
                "duration": 0.12045454545454515,
                "tempo": 120.0
            },
            {
                "start_time": 6.0227272727272725,
                "end_time": 6.159090909090909,
                "pitch": 58,
                "velocity": 51,
                "duration": 0.1363636363636367,
                "tempo": 120.0
            },
            {
                "start_time": 6.159090909090909,
                "end_time": 6.279545454545454,
                "pitch": 58,
                "velocity": 51,
                "duration": 0.12045454545454515,
                "tempo": 120.0
            },
            {
                "start_time": 6.279545454545454,
                "end_time": 6.393181818181818,
                "pitch": 56,
                "velocity": 51,
                "duration": 0.11363636363636331,
                "tempo": 120.0
            },
            {
                "start_time": 6.393181818181818,
                "end_time": 6.509090909090909,
                "pitch": 53,
                "velocity": 51,
                "duration": 0.11590909090909118,
                "tempo": 120.0
            },
            {
                "start_time": 6.509090909090909,
                "end_time": 6.638636363636364,
                "pitch": 55,
                "velocity": 51,
                "duration": 0.12954545454545485,
                "tempo": 120.0
            },
            {
                "start_time": 6.638636363636364,
                "end_time": 6.754545454545454,
                "pitch": 55,
                "velocity": 51,
                "duration": 0.1159090909090903,
                "tempo": 120.0
            },
            {
                "start_time": 6.754545454545454,
                "end_time": 6.872727272727272,
                "pitch": 46,
                "velocity": 51,
                "duration": 0.11818181818181817,
                "tempo": 120.0
            },
            {
                "start_time": 6.872727272727272,
                "end_time": 6.988636363636363,
                "pitch": 46,
                "velocity": 51,
                "duration": 0.11590909090909118,
                "tempo": 120.0
            },
            {
                "start_time": 6.988636363636363,
                "end_time": 7.1068181818181815,
                "pitch": 58,
                "velocity": 51,
                "duration": 0.11818181818181817,
                "tempo": 120.0
            },
            {
                "start_time": 7.1068181818181815,
                "end_time": 7.24090909090909,
                "pitch": 58,
                "velocity": 51,
                "duration": 0.13409090909090882,
                "tempo": 120.0
            },
            {
                "start_time": 7.24090909090909,
                "end_time": 7.361363636363636,
                "pitch": 56,
                "velocity": 51,
                "duration": 0.12045454545454604,
                "tempo": 120.0
            },
            {
                "start_time": 7.361363636363636,
                "end_time": 7.4795454545454545,
                "pitch": 55,
                "velocity": 51,
                "duration": 0.11818181818181817,
                "tempo": 120.0
            },
            {
                "start_time": 7.4795454545454545,
                "end_time": 7.6,
                "pitch": 56,
                "velocity": 51,
                "duration": 0.12045454545454515,
                "tempo": 120.0
            },
            {
                "start_time": 7.6,
                "end_time": 7.720454545454545,
                "pitch": 65,
                "velocity": 51,
                "duration": 0.12045454545454515,
                "tempo": 120.0
            },
            {
                "start_time": 7.720454545454545,
                "end_time": 7.8545454545454545,
                "pitch": 41,
                "velocity": 51,
                "duration": 0.1340909090909097,
                "tempo": 120.0
            },
            {
                "start_time": 7.8545454545454545,
                "end_time": 7.972727272727273,
                "pitch": 41,
                "velocity": 51,
                "duration": 0.11818181818181817,
                "tempo": 120.0
            },
            {
                "start_time": 7.972727272727273,
                "end_time": 8.088636363636363,
                "pitch": 53,
                "velocity": 51,
                "duration": 0.1159090909090903,
                "tempo": 120.0
            },
            {
                "start_time": 8.088636363636363,
                "end_time": 8.206818181818182,
                "pitch": 51,
                "velocity": 51,
                "duration": 0.11818181818181905,
                "tempo": 120.0
            },
            {
                "start_time": 8.206818181818182,
                "end_time": 8.322727272727272,
                "pitch": 51,
                "velocity": 51,
                "duration": 0.1159090909090903,
                "tempo": 120.0
            },
            {
                "start_time": 8.322727272727272,
                "end_time": 8.452272727272726,
                "pitch": 48,
                "velocity": 51,
                "duration": 0.12954545454545396,
                "tempo": 120.0
            },
            {
                "start_time": 8.452272727272726,
                "end_time": 8.568181818181818,
                "pitch": 50,
                "velocity": 51,
                "duration": 0.11590909090909207,
                "tempo": 120.0
            },
            {
                "start_time": 8.568181818181818,
                "end_time": 8.681818181818182,
                "pitch": 50,
                "velocity": 51,
                "duration": 0.11363636363636331,
                "tempo": 120.0
            },
            {
                "start_time": 8.681818181818182,
                "end_time": 8.799999999999999,
                "pitch": 41,
                "velocity": 51,
                "duration": 0.11818181818181728,
                "tempo": 120.0
            },
            {
                "start_time": 8.799999999999999,
                "end_time": 8.934090909090909,
                "pitch": 41,
                "velocity": 51,
                "duration": 0.1340909090909097,
                "tempo": 120.0
            },
            {
                "start_time": 8.934090909090909,
                "end_time": 9.052272727272728,
                "pitch": 53,
                "velocity": 51,
                "duration": 0.11818181818181905,
                "tempo": 120.0
            },
            {
                "start_time": 9.052272727272728,
                "end_time": 9.170454545454545,
                "pitch": 51,
                "velocity": 51,
                "duration": 0.11818181818181728,
                "tempo": 120.0
            },
            {
                "start_time": 9.170454545454545,
                "end_time": 9.288636363636364,
                "pitch": 51,
                "velocity": 51,
                "duration": 0.11818181818181905,
                "tempo": 120.0
            },
            {
                "start_time": 9.288636363636364,
                "end_time": 9.409090909090908,
                "pitch": 50,
                "velocity": 51,
                "duration": 0.12045454545454426,
                "tempo": 120.0
            },
            {
                "start_time": 9.409090909090908,
                "end_time": 9.545454545454545,
                "pitch": 53,
                "velocity": 51,
                "duration": 0.1363636363636367,
                "tempo": 120.0
            },
            {
                "start_time": 9.545454545454545,
                "end_time": 9.665909090909091,
                "pitch": 60,
                "velocity": 51,
                "duration": 0.12045454545454604,
                "tempo": 120.0
            },
            {
                "start_time": 9.665909090909091,
                "end_time": 9.784090909090908,
                "pitch": 41,
                "velocity": 51,
                "duration": 0.11818181818181728,
                "tempo": 120.0
            },
            {
                "start_time": 9.784090909090908,
                "end_time": 9.904545454545454,
                "pitch": 41,
                "velocity": 51,
                "duration": 0.12045454545454604,
                "tempo": 120.0
            },
            {
                "start_time": 9.904545454545454,
                "end_time": 10.022727272727272,
                "pitch": 53,
                "velocity": 51,
                "duration": 0.11818181818181728,
                "tempo": 120.0
            },
            {
                "start_time": 10.022727272727272,
                "end_time": 10.159090909090908,
                "pitch": 51,
                "velocity": 51,
                "duration": 0.1363636363636367,
                "tempo": 120.0
            },
            {
                "start_time": 10.159090909090908,
                "end_time": 10.275,
                "pitch": 51,
                "velocity": 51,
                "duration": 0.11590909090909207,
                "tempo": 120.0
            },
            {
                "start_time": 10.275,
                "end_time": 10.39090909090909,
                "pitch": 48,
                "velocity": 51,
                "duration": 0.1159090909090903,
                "tempo": 120.0
            },
            {
                "start_time": 10.39090909090909,
                "end_time": 10.504545454545454,
                "pitch": 50,
                "velocity": 51,
                "duration": 0.11363636363636331,
                "tempo": 120.0
            },
            {
                "start_time": 10.504545454545454,
                "end_time": 10.620454545454544,
                "pitch": 50,
                "velocity": 51,
                "duration": 0.1159090909090903,
                "tempo": 120.0
            },
            {
                "start_time": 10.620454545454544,
                "end_time": 10.75,
                "pitch": 41,
                "velocity": 51,
                "duration": 0.12954545454545574,
                "tempo": 120.0
            },
            {
                "start_time": 10.75,
                "end_time": 10.86590909090909,
                "pitch": 41,
                "velocity": 51,
                "duration": 0.1159090909090903,
                "tempo": 120.0
            },
            {
                "start_time": 10.86590909090909,
                "end_time": 10.979545454545454,
                "pitch": 53,
                "velocity": 51,
                "duration": 0.11363636363636331,
                "tempo": 120.0
            },
            {
                "start_time": 10.979545454545454,
                "end_time": 11.095454545454546,
                "pitch": 51,
                "velocity": 51,
                "duration": 0.11590909090909207,
                "tempo": 120.0
            },
            {
                "start_time": 11.095454545454546,
                "end_time": 11.23181818181818,
                "pitch": 51,
                "velocity": 51,
                "duration": 0.1363636363636349,
                "tempo": 120.0
            },
            {
                "start_time": 11.23181818181818,
                "end_time": 11.35,
                "pitch": 50,
                "velocity": 51,
                "duration": 0.11818181818181905,
                "tempo": 120.0
            },
            {
                "start_time": 11.35,
                "end_time": 11.470454545454546,
                "pitch": 53,
                "velocity": 51,
                "duration": 0.12045454545454604,
                "tempo": 120.0
            },
            {
                "start_time": 11.470454545454546,
                "end_time": 13.534090909090908,
                "pitch": 60,
                "velocity": 51,
                "duration": 2.0636363636363626,
                "tempo": 120.0
            },
            {
                "start_time": 13.534090909090908,
                "end_time": 13.654545454545454,
                "pitch": 58,
                "velocity": 51,
                "duration": 0.12045454545454604,
                "tempo": 120.0
            },
            {
                "start_time": 13.654545454545454,
                "end_time": 13.774999999999999,
                "pitch": 58,
                "velocity": 51,
                "duration": 0.12045454545454426,
                "tempo": 120.0
            },
            {
                "start_time": 13.774999999999999,
                "end_time": 13.893181818181818,
                "pitch": 70,
                "velocity": 51,
                "duration": 0.11818181818181905,
                "tempo": 120.0
            },
            {
                "start_time": 13.893181818181818,
                "end_time": 14.013636363636364,
                "pitch": 58,
                "velocity": 51,
                "duration": 0.12045454545454604,
                "tempo": 120.0
            },
            {
                "start_time": 14.013636363636364,
                "end_time": 14.14090909090909,
                "pitch": 65,
                "velocity": 51,
                "duration": 0.12727272727272698,
                "tempo": 120.0
            },
            {
                "start_time": 14.14090909090909,
                "end_time": 14.252272727272727,
                "pitch": 70,
                "velocity": 51,
                "duration": 0.11136363636363633,
                "tempo": 120.0
            },
            {
                "start_time": 14.252272727272727,
                "end_time": 14.36590909090909,
                "pitch": 58,
                "velocity": 51,
                "duration": 0.11363636363636331,
                "tempo": 120.0
            },
            {
                "start_time": 14.36590909090909,
                "end_time": 14.477272727272727,
                "pitch": 77,
                "velocity": 51,
                "duration": 0.11136363636363633,
                "tempo": 120.0
            },
            {
                "start_time": 14.477272727272727,
                "end_time": 14.597727272727273,
                "pitch": 58,
                "velocity": 51,
                "duration": 0.12045454545454604,
                "tempo": 120.0
            },
            {
                "start_time": 14.597727272727273,
                "end_time": 14.734090909090908,
                "pitch": 58,
                "velocity": 51,
                "duration": 0.1363636363636349,
                "tempo": 120.0
            },
            {
                "start_time": 14.734090909090908,
                "end_time": 14.852272727272727,
                "pitch": 70,
                "velocity": 51,
                "duration": 0.11818181818181905,
                "tempo": 120.0
            },
            {
                "start_time": 14.852272727272727,
                "end_time": 14.972727272727273,
                "pitch": 65,
                "velocity": 51,
                "duration": 0.12045454545454604,
                "tempo": 120.0
            },
            {
                "start_time": 14.972727272727273,
                "end_time": 15.09090909090909,
                "pitch": 58,
                "velocity": 51,
                "duration": 0.11818181818181728,
                "tempo": 120.0
            },
            {
                "start_time": 15.09090909090909,
                "end_time": 15.229545454545454,
                "pitch": 77,
                "velocity": 51,
                "duration": 0.13863636363636367,
                "tempo": 120.0
            },
            {
                "start_time": 15.229545454545454,
                "end_time": 15.347727272727273,
                "pitch": 58,
                "velocity": 51,
                "duration": 0.11818181818181905,
                "tempo": 120.0
            },
            {
                "start_time": 15.347727272727273,
                "end_time": 15.468181818181817,
                "pitch": 77,
                "velocity": 51,
                "duration": 0.12045454545454426,
                "tempo": 120.0
            },
            {
                "start_time": 15.468181818181817,
                "end_time": 15.586363636363636,
                "pitch": 58,
                "velocity": 51,
                "duration": 0.11818181818181905,
                "tempo": 120.0
            },
            {
                "start_time": 15.586363636363636,
                "end_time": 15.702272727272726,
                "pitch": 58,
                "velocity": 51,
                "duration": 0.1159090909090903,
                "tempo": 120.0
            },
            {
                "start_time": 15.702272727272726,
                "end_time": 15.836363636363636,
                "pitch": 70,
                "velocity": 51,
                "duration": 0.1340909090909097,
                "tempo": 120.0
            },
            {
                "start_time": 15.836363636363636,
                "end_time": 15.954545454545453,
                "pitch": 58,
                "velocity": 51,
                "duration": 0.11818181818181728,
                "tempo": 120.0
            },
            {
                "start_time": 15.954545454545453,
                "end_time": 16.070454545454545,
                "pitch": 65,
                "velocity": 51,
                "duration": 0.11590909090909207,
                "tempo": 120.0
            },
            {
                "start_time": 16.070454545454545,
                "end_time": 16.188636363636363,
                "pitch": 70,
                "velocity": 51,
                "duration": 0.11818181818181728,
                "tempo": 120.0
            },
            {
                "start_time": 16.188636363636363,
                "end_time": 16.304545454545455,
                "pitch": 58,
                "velocity": 51,
                "duration": 0.11590909090909207,
                "tempo": 120.0
            },
            {
                "start_time": 16.304545454545455,
                "end_time": 16.438636363636363,
                "pitch": 77,
                "velocity": 51,
                "duration": 0.13409090909090793,
                "tempo": 120.0
            },
            {
                "start_time": 16.438636363636363,
                "end_time": 16.55681818181818,
                "pitch": 58,
                "velocity": 51,
                "duration": 0.11818181818181728,
                "tempo": 120.0
            },
            {
                "start_time": 16.55681818181818,
                "end_time": 16.672727272727272,
                "pitch": 58,
                "velocity": 51,
                "duration": 0.11590909090909207,
                "tempo": 120.0
            },
            {
                "start_time": 16.672727272727272,
                "end_time": 16.79090909090909,
                "pitch": 70,
                "velocity": 51,
                "duration": 0.11818181818181728,
                "tempo": 120.0
            },
            {
                "start_time": 16.79090909090909,
                "end_time": 16.909090909090907,
                "pitch": 65,
                "velocity": 51,
                "duration": 0.11818181818181728,
                "tempo": 120.0
            },
            {
                "start_time": 16.909090909090907,
                "end_time": 17.04090909090909,
                "pitch": 58,
                "velocity": 51,
                "duration": 0.13181818181818272,
                "tempo": 120.0
            },
            {
                "start_time": 17.04090909090909,
                "end_time": 17.154545454545453,
                "pitch": 77,
                "velocity": 51,
                "duration": 0.11363636363636331,
                "tempo": 120.0
            },
            {
                "start_time": 17.154545454545453,
                "end_time": 17.270454545454545,
                "pitch": 58,
                "velocity": 51,
                "duration": 0.11590909090909207,
                "tempo": 120.0
            },
            {
                "start_time": 17.270454545454545,
                "end_time": 17.384090909090908,
                "pitch": 77,
                "velocity": 51,
                "duration": 0.11363636363636331,
                "tempo": 120.0
            },
            {
                "start_time": 17.384090909090908,
                "end_time": 17.520454545454545,
                "pitch": 60,
                "velocity": 51,
                "duration": 0.1363636363636367,
                "tempo": 120.0
            },
            {
                "start_time": 17.520454545454545,
                "end_time": 17.64090909090909,
                "pitch": 60,
                "velocity": 51,
                "duration": 0.12045454545454604,
                "tempo": 120.0
            },
            {
                "start_time": 17.64090909090909,
                "end_time": 17.759090909090908,
                "pitch": 72,
                "velocity": 51,
                "duration": 0.11818181818181728,
                "tempo": 120.0
            },
            {
                "start_time": 17.759090909090908,
                "end_time": 17.879545454545454,
                "pitch": 60,
                "velocity": 51,
                "duration": 0.12045454545454604,
                "tempo": 120.0
            },
            {
                "start_time": 17.879545454545454,
                "end_time": 17.993181818181817,
                "pitch": 67,
                "velocity": 51,
                "duration": 0.11363636363636331,
                "tempo": 120.0
            },
            {
                "start_time": 17.993181818181817,
                "end_time": 18.125,
                "pitch": 72,
                "velocity": 51,
                "duration": 0.13181818181818272,
                "tempo": 120.0
            },
            {
                "start_time": 18.125,
                "end_time": 18.24090909090909,
                "pitch": 60,
                "velocity": 51,
                "duration": 0.11590909090908852,
                "tempo": 120.0
            },
            {
                "start_time": 18.24090909090909,
                "end_time": 18.354545454545455,
                "pitch": 79,
                "velocity": 51,
                "duration": 0.11363636363636687,
                "tempo": 120.0
            },
            {
                "start_time": 18.354545454545455,
                "end_time": 18.474999999999998,
                "pitch": 60,
                "velocity": 51,
                "duration": 0.12045454545454248,
                "tempo": 120.0
            },
            {
                "start_time": 18.474999999999998,
                "end_time": 18.59318181818182,
                "pitch": 60,
                "velocity": 51,
                "duration": 0.11818181818182083,
                "tempo": 120.0
            },
            {
                "start_time": 18.59318181818182,
                "end_time": 18.729545454545455,
                "pitch": 72,
                "velocity": 51,
                "duration": 0.1363636363636367,
                "tempo": 120.0
            },
            {
                "start_time": 18.729545454545455,
                "end_time": 18.849999999999998,
                "pitch": 67,
                "velocity": 51,
                "duration": 0.12045454545454248,
                "tempo": 120.0
            },
            {
                "start_time": 18.849999999999998,
                "end_time": 18.96818181818182,
                "pitch": 60,
                "velocity": 51,
                "duration": 0.11818181818182083,
                "tempo": 120.0
            },
            {
                "start_time": 18.96818181818182,
                "end_time": 19.08863636363636,
                "pitch": 79,
                "velocity": 51,
                "duration": 0.12045454545454248,
                "tempo": 120.0
            },
            {
                "start_time": 19.08863636363636,
                "end_time": 19.209090909090907,
                "pitch": 60,
                "velocity": 51,
                "duration": 0.12045454545454604,
                "tempo": 120.0
            },
            {
                "start_time": 19.209090909090907,
                "end_time": 19.345454545454544,
                "pitch": 79,
                "velocity": 51,
                "duration": 0.1363636363636367,
                "tempo": 120.0
            },
            {
                "start_time": 19.345454545454544,
                "end_time": 19.461363636363636,
                "pitch": 60,
                "velocity": 51,
                "duration": 0.11590909090909207,
                "tempo": 120.0
            },
            {
                "start_time": 19.461363636363636,
                "end_time": 19.577272727272728,
                "pitch": 60,
                "velocity": 51,
                "duration": 0.11590909090909207,
                "tempo": 120.0
            },
            {
                "start_time": 19.577272727272728,
                "end_time": 19.695454545454545,
                "pitch": 72,
                "velocity": 51,
                "duration": 0.11818181818181728,
                "tempo": 120.0
            },
            {
                "start_time": 19.695454545454545,
                "end_time": 19.827272727272728,
                "pitch": 60,
                "velocity": 51,
                "duration": 0.13181818181818272,
                "tempo": 120.0
            },
            {
                "start_time": 19.827272727272728,
                "end_time": 19.945454545454545,
                "pitch": 67,
                "velocity": 51,
                "duration": 0.11818181818181728,
                "tempo": 120.0
            },
            {
                "start_time": 19.945454545454545,
                "end_time": 20.063636363636363,
                "pitch": 72,
                "velocity": 51,
                "duration": 0.11818181818181728,
                "tempo": 120.0
            },
            {
                "start_time": 20.063636363636363,
                "end_time": 20.18181818181818,
                "pitch": 60,
                "velocity": 51,
                "duration": 0.11818181818181728,
                "tempo": 120.0
            },
            {
                "start_time": 20.18181818181818,
                "end_time": 20.297727272727272,
                "pitch": 79,
                "velocity": 51,
                "duration": 0.11590909090909207,
                "tempo": 120.0
            },
            {
                "start_time": 20.297727272727272,
                "end_time": 20.427272727272726,
                "pitch": 60,
                "velocity": 51,
                "duration": 0.12954545454545396,
                "tempo": 120.0
            },
            {
                "start_time": 20.427272727272726,
                "end_time": 20.538636363636364,
                "pitch": 60,
                "velocity": 51,
                "duration": 0.11136363636363811,
                "tempo": 120.0
            },
            {
                "start_time": 20.538636363636364,
                "end_time": 20.65,
                "pitch": 72,
                "velocity": 51,
                "duration": 0.11136363636363455,
                "tempo": 120.0
            },
            {
                "start_time": 20.65,
                "end_time": 20.763636363636362,
                "pitch": 67,
                "velocity": 51,
                "duration": 0.11363636363636331,
                "tempo": 120.0
            },
            {
                "start_time": 20.763636363636362,
                "end_time": 20.88181818181818,
                "pitch": 60,
                "velocity": 51,
                "duration": 0.11818181818181728,
                "tempo": 120.0
            },
            {
                "start_time": 20.88181818181818,
                "end_time": 21.018181818181816,
                "pitch": 79,
                "velocity": 51,
                "duration": 0.1363636363636367,
                "tempo": 120.0
            },
            {
                "start_time": 21.018181818181816,
                "end_time": 21.138636363636362,
                "pitch": 60,
                "velocity": 51,
                "duration": 0.12045454545454604,
                "tempo": 120.0
            },
            {
                "start_time": 21.138636363636362,
                "end_time": 21.259090909090908,
                "pitch": 79,
                "velocity": 51,
                "duration": 0.12045454545454604,
                "tempo": 120.0
            },
            {
                "start_time": 21.259090909090908,
                "end_time": 21.377272727272725,
                "pitch": 62,
                "velocity": 51,
                "duration": 0.11818181818181728,
                "tempo": 120.0
            },
            {
                "start_time": 21.377272727272725,
                "end_time": 21.513636363636362,
                "pitch": 62,
                "velocity": 51,
                "duration": 0.1363636363636367,
                "tempo": 120.0
            },
            {
                "start_time": 21.513636363636362,
                "end_time": 21.634090909090908,
                "pitch": 74,
                "velocity": 51,
                "duration": 0.12045454545454604,
                "tempo": 120.0
            },
            {
                "start_time": 21.634090909090908,
                "end_time": 21.752272727272725,
                "pitch": 62,
                "velocity": 51,
                "duration": 0.11818181818181728,
                "tempo": 120.0
            },
            {
                "start_time": 21.752272727272725,
                "end_time": 21.868181818181817,
                "pitch": 69,
                "velocity": 51,
                "duration": 0.11590909090909207,
                "tempo": 120.0
            },
            {
                "start_time": 21.868181818181817,
                "end_time": 21.98181818181818,
                "pitch": 74,
                "velocity": 51,
                "duration": 0.11363636363636331,
                "tempo": 120.0
            },
            {
                "start_time": 21.98181818181818,
                "end_time": 22.113636363636363,
                "pitch": 62,
                "velocity": 51,
                "duration": 0.13181818181818272,
                "tempo": 120.0
            },
            {
                "start_time": 22.113636363636363,
                "end_time": 22.229545454545452,
                "pitch": 81,
                "velocity": 51,
                "duration": 0.11590909090908852,
                "tempo": 120.0
            },
            {
                "start_time": 22.229545454545452,
                "end_time": 22.347727272727273,
                "pitch": 62,
                "velocity": 51,
                "duration": 0.11818181818182083,
                "tempo": 120.0
            },
            {
                "start_time": 22.347727272727273,
                "end_time": 22.46818181818182,
                "pitch": 62,
                "velocity": 51,
                "duration": 0.12045454545454604,
                "tempo": 120.0
            },
            {
                "start_time": 22.46818181818182,
                "end_time": 22.586363636363636,
                "pitch": 74,
                "velocity": 51,
                "duration": 0.11818181818181728,
                "tempo": 120.0
            },
            {
                "start_time": 22.586363636363636,
                "end_time": 22.724999999999998,
                "pitch": 69,
                "velocity": 51,
                "duration": 0.1386363636363619,
                "tempo": 120.0
            },
            {
                "start_time": 22.724999999999998,
                "end_time": 22.84090909090909,
                "pitch": 62,
                "velocity": 51,
                "duration": 0.11590909090909207,
                "tempo": 120.0
            },
            {
                "start_time": 22.84090909090909,
                "end_time": 22.959090909090907,
                "pitch": 81,
                "velocity": 51,
                "duration": 0.11818181818181728,
                "tempo": 120.0
            },
            {
                "start_time": 22.959090909090907,
                "end_time": 23.077272727272724,
                "pitch": 62,
                "velocity": 51,
                "duration": 0.11818181818181728,
                "tempo": 120.0
            },
            {
                "start_time": 23.077272727272724,
                "end_time": 23.193181818181817,
                "pitch": 81,
                "velocity": 51,
                "duration": 0.11590909090909207,
                "tempo": 120.0
            },
            {
                "start_time": 23.193181818181817,
                "end_time": 23.325,
                "pitch": 62,
                "velocity": 51,
                "duration": 0.13181818181818272,
                "tempo": 120.0
            },
            {
                "start_time": 23.325,
                "end_time": 23.44090909090909,
                "pitch": 62,
                "velocity": 51,
                "duration": 0.11590909090909207,
                "tempo": 120.0
            },
            {
                "start_time": 23.44090909090909,
                "end_time": 23.554545454545455,
                "pitch": 74,
                "velocity": 51,
                "duration": 0.11363636363636331,
                "tempo": 120.0
            },
            {
                "start_time": 23.554545454545455,
                "end_time": 23.670454545454543,
                "pitch": 62,
                "velocity": 51,
                "duration": 0.11590909090908852,
                "tempo": 120.0
            },
            {
                "start_time": 23.670454545454543,
                "end_time": 23.804545454545455,
                "pitch": 69,
                "velocity": 51,
                "duration": 0.13409090909091148,
                "tempo": 120.0
            },
            {
                "start_time": 23.804545454545455,
                "end_time": 23.922727272727272,
                "pitch": 74,
                "velocity": 51,
                "duration": 0.11818181818181728,
                "tempo": 120.0
            },
            {
                "start_time": 23.922727272727272,
                "end_time": 24.038636363636364,
                "pitch": 62,
                "velocity": 51,
                "duration": 0.11590909090909207,
                "tempo": 120.0
            },
            {
                "start_time": 24.038636363636364,
                "end_time": 24.15681818181818,
                "pitch": 81,
                "velocity": 51,
                "duration": 0.11818181818181728,
                "tempo": 120.0
            },
            {
                "start_time": 24.15681818181818,
                "end_time": 24.275,
                "pitch": 62,
                "velocity": 51,
                "duration": 0.11818181818181728,
                "tempo": 120.0
            },
            {
                "start_time": 24.275,
                "end_time": 24.409090909090907,
                "pitch": 62,
                "velocity": 51,
                "duration": 0.13409090909090793,
                "tempo": 120.0
            },
            {
                "start_time": 24.409090909090907,
                "end_time": 24.527272727272727,
                "pitch": 74,
                "velocity": 51,
                "duration": 0.11818181818182083,
                "tempo": 120.0
            },
            {
                "start_time": 24.527272727272727,
                "end_time": 24.645454545454545,
                "pitch": 69,
                "velocity": 51,
                "duration": 0.11818181818181728,
                "tempo": 120.0
            },
            {
                "start_time": 24.645454545454545,
                "end_time": 24.763636363636362,
                "pitch": 62,
                "velocity": 51,
                "duration": 0.11818181818181728,
                "tempo": 120.0
            },
            {
                "start_time": 24.763636363636362,
                "end_time": 24.884090909090908,
                "pitch": 81,
                "velocity": 51,
                "duration": 0.12045454545454604,
                "tempo": 120.0
            },
            {
                "start_time": 24.884090909090908,
                "end_time": 25.020454545454545,
                "pitch": 62,
                "velocity": 51,
                "duration": 0.1363636363636367,
                "tempo": 120.0
            },
            {
                "start_time": 25.020454545454545,
                "end_time": 25.138636363636362,
                "pitch": 81,
                "velocity": 51,
                "duration": 0.11818181818181728,
                "tempo": 120.0
            },
            {
                "start_time": 25.138636363636362,
                "end_time": 25.259090909090908,
                "pitch": 63,
                "velocity": 51,
                "duration": 0.12045454545454604,
                "tempo": 120.0
            },
            {
                "start_time": 25.259090909090908,
                "end_time": 25.379545454545454,
                "pitch": 63,
                "velocity": 51,
                "duration": 0.12045454545454604,
                "tempo": 120.0
            },
            {
                "start_time": 25.379545454545454,
                "end_time": 25.49772727272727,
                "pitch": 75,
                "velocity": 51,
                "duration": 0.11818181818181728,
                "tempo": 120.0
            },
            {
                "start_time": 25.49772727272727,
                "end_time": 25.634090909090908,
                "pitch": 63,
                "velocity": 51,
                "duration": 0.1363636363636367,
                "tempo": 120.0
            },
            {
                "start_time": 25.634090909090908,
                "end_time": 25.75,
                "pitch": 70,
                "velocity": 51,
                "duration": 0.11590909090909207,
                "tempo": 120.0
            },
            {
                "start_time": 25.75,
                "end_time": 25.863636363636363,
                "pitch": 75,
                "velocity": 51,
                "duration": 0.11363636363636331,
                "tempo": 120.0
            },
            {
                "start_time": 25.863636363636363,
                "end_time": 25.979545454545452,
                "pitch": 63,
                "velocity": 51,
                "duration": 0.11590909090908852,
                "tempo": 120.0
            },
            {
                "start_time": 25.979545454545452,
                "end_time": 26.10909090909091,
                "pitch": 82,
                "velocity": 51,
                "duration": 0.12954545454545752,
                "tempo": 120.0
            },
            {
                "start_time": 26.10909090909091,
                "end_time": 26.229545454545452,
                "pitch": 63,
                "velocity": 51,
                "duration": 0.12045454545454248,
                "tempo": 120.0
            },
            {
                "start_time": 26.229545454545452,
                "end_time": 26.349999999999998,
                "pitch": 63,
                "velocity": 51,
                "duration": 0.12045454545454604,
                "tempo": 120.0
            },
            {
                "start_time": 26.349999999999998,
                "end_time": 26.468181818181815,
                "pitch": 75,
                "velocity": 51,
                "duration": 0.11818181818181728,
                "tempo": 120.0
            },
            {
                "start_time": 26.468181818181815,
                "end_time": 26.58863636363636,
                "pitch": 70,
                "velocity": 51,
                "duration": 0.12045454545454604,
                "tempo": 120.0
            },
            {
                "start_time": 26.58863636363636,
                "end_time": 26.720454545454544,
                "pitch": 63,
                "velocity": 51,
                "duration": 0.13181818181818272,
                "tempo": 120.0
            },
            {
                "start_time": 26.720454545454544,
                "end_time": 26.834090909090907,
                "pitch": 82,
                "velocity": 51,
                "duration": 0.11363636363636331,
                "tempo": 120.0
            },
            {
                "start_time": 26.834090909090907,
                "end_time": 26.95,
                "pitch": 63,
                "velocity": 51,
                "duration": 0.11590909090909207,
                "tempo": 120.0
            },
            {
                "start_time": 26.95,
                "end_time": 27.063636363636363,
                "pitch": 82,
                "velocity": 51,
                "duration": 0.11363636363636331,
                "tempo": 120.0
            },
            {
                "start_time": 27.063636363636363,
                "end_time": 27.18181818181818,
                "pitch": 63,
                "velocity": 51,
                "duration": 0.11818181818181728,
                "tempo": 120.0
            },
            {
                "start_time": 27.18181818181818,
                "end_time": 27.315909090909088,
                "pitch": 63,
                "velocity": 51,
                "duration": 0.13409090909090793,
                "tempo": 120.0
            },
            {
                "start_time": 27.315909090909088,
                "end_time": 27.43409090909091,
                "pitch": 75,
                "velocity": 51,
                "duration": 0.11818181818182083,
                "tempo": 120.0
            },
            {
                "start_time": 27.43409090909091,
                "end_time": 27.552272727272726,
                "pitch": 63,
                "velocity": 51,
                "duration": 0.11818181818181728,
                "tempo": 120.0
            },
            {
                "start_time": 27.552272727272726,
                "end_time": 27.668181818181818,
                "pitch": 70,
                "velocity": 51,
                "duration": 0.11590909090909207,
                "tempo": 120.0
            },
            {
                "start_time": 27.668181818181818,
                "end_time": 27.784090909090907,
                "pitch": 75,
                "velocity": 51,
                "duration": 0.11590909090908852,
                "tempo": 120.0
            },
            {
                "start_time": 27.784090909090907,
                "end_time": 27.918181818181818,
                "pitch": 63,
                "velocity": 51,
                "duration": 0.13409090909091148,
                "tempo": 120.0
            },
            {
                "start_time": 27.918181818181818,
                "end_time": 28.034090909090907,
                "pitch": 82,
                "velocity": 51,
                "duration": 0.11590909090908852,
                "tempo": 120.0
            },
            {
                "start_time": 28.034090909090907,
                "end_time": 28.152272727272727,
                "pitch": 63,
                "velocity": 51,
                "duration": 0.11818181818182083,
                "tempo": 120.0
            },
            {
                "start_time": 28.152272727272727,
                "end_time": 28.270454545454545,
                "pitch": 63,
                "velocity": 51,
                "duration": 0.11818181818181728,
                "tempo": 120.0
            },
            {
                "start_time": 28.270454545454545,
                "end_time": 28.404545454545453,
                "pitch": 75,
                "velocity": 51,
                "duration": 0.13409090909090793,
                "tempo": 120.0
            },
            {
                "start_time": 28.404545454545453,
                "end_time": 28.52272727272727,
                "pitch": 70,
                "velocity": 51,
                "duration": 0.11818181818181728,
                "tempo": 120.0
            },
            {
                "start_time": 28.52272727272727,
                "end_time": 28.64090909090909,
                "pitch": 63,
                "velocity": 51,
                "duration": 0.11818181818182083,
                "tempo": 120.0
            },
            {
                "start_time": 28.64090909090909,
                "end_time": 28.761363636363637,
                "pitch": 82,
                "velocity": 51,
                "duration": 0.12045454545454604,
                "tempo": 120.0
            },
            {
                "start_time": 28.761363636363637,
                "end_time": 28.879545454545454,
                "pitch": 63,
                "velocity": 51,
                "duration": 0.11818181818181728,
                "tempo": 120.0
            },
            {
                "start_time": 28.879545454545454,
                "end_time": 29.01590909090909,
                "pitch": 82,
                "velocity": 51,
                "duration": 0.1363636363636367,
                "tempo": 120.0
            },
            {
                "start_time": 29.01590909090909,
                "end_time": 29.134090909090908,
                "pitch": 58,
                "velocity": 51,
                "duration": 0.11818181818181728,
                "tempo": 120.0
            },
            {
                "start_time": 29.134090909090908,
                "end_time": 29.252272727272725,
                "pitch": 56,
                "velocity": 51,
                "duration": 0.11818181818181728,
                "tempo": 120.0
            },
            {
                "start_time": 29.252272727272725,
                "end_time": 29.370454545454542,
                "pitch": 68,
                "velocity": 51,
                "duration": 0.11818181818181728,
                "tempo": 120.0
            },
            {
                "start_time": 29.370454545454542,
                "end_time": 29.486363636363635,
                "pitch": 56,
                "velocity": 51,
                "duration": 0.11590909090909207,
                "tempo": 120.0
            },
            {
                "start_time": 29.486363636363635,
                "end_time": 29.618181818181817,
                "pitch": 63,
                "velocity": 51,
                "duration": 0.13181818181818272,
                "tempo": 120.0
            },
            {
                "start_time": 29.618181818181817,
                "end_time": 29.73409090909091,
                "pitch": 68,
                "velocity": 51,
                "duration": 0.11590909090909207,
                "tempo": 120.0
            },
            {
                "start_time": 29.73409090909091,
                "end_time": 29.847727272727273,
                "pitch": 56,
                "velocity": 51,
                "duration": 0.11363636363636331,
                "tempo": 120.0
            },
            {
                "start_time": 29.847727272727273,
                "end_time": 29.96363636363636,
                "pitch": 75,
                "velocity": 51,
                "duration": 0.11590909090908852,
                "tempo": 120.0
            },
            {
                "start_time": 29.96363636363636,
                "end_time": 30.097727272727273,
                "pitch": 56,
                "velocity": 51,
                "duration": 0.13409090909091148,
                "tempo": 120.0
            },
            {
                "start_time": 30.097727272727273,
                "end_time": 30.21590909090909,
                "pitch": 56,
                "velocity": 51,
                "duration": 0.11818181818181728,
                "tempo": 120.0
            },
            {
                "start_time": 30.21590909090909,
                "end_time": 30.331818181818182,
                "pitch": 68,
                "velocity": 51,
                "duration": 0.11590909090909207,
                "tempo": 120.0
            },
            {
                "start_time": 30.331818181818182,
                "end_time": 30.45,
                "pitch": 63,
                "velocity": 51,
                "duration": 0.11818181818181728,
                "tempo": 120.0
            },
            {
                "start_time": 30.45,
                "end_time": 30.570454545454545,
                "pitch": 56,
                "velocity": 51,
                "duration": 0.12045454545454604,
                "tempo": 120.0
            },
            {
                "start_time": 30.570454545454545,
                "end_time": 30.706818181818182,
                "pitch": 75,
                "velocity": 51,
                "duration": 0.1363636363636367,
                "tempo": 120.0
            },
            {
                "start_time": 30.706818181818182,
                "end_time": 30.825,
                "pitch": 56,
                "velocity": 51,
                "duration": 0.11818181818181728,
                "tempo": 120.0
            },
            {
                "start_time": 30.825,
                "end_time": 30.945454545454545,
                "pitch": 75,
                "velocity": 51,
                "duration": 0.12045454545454604,
                "tempo": 120.0
            },
            {
                "start_time": 30.945454545454545,
                "end_time": 31.063636363636363,
                "pitch": 56,
                "velocity": 51,
                "duration": 0.11818181818181728,
                "tempo": 120.0
            },
            {
                "start_time": 31.063636363636363,
                "end_time": 31.179545454545455,
                "pitch": 56,
                "velocity": 51,
                "duration": 0.11590909090909207,
                "tempo": 120.0
            },
            {
                "start_time": 31.179545454545455,
                "end_time": 31.315909090909088,
                "pitch": 68,
                "velocity": 51,
                "duration": 0.13636363636363313,
                "tempo": 120.0
            },
            {
                "start_time": 31.315909090909088,
                "end_time": 31.43181818181818,
                "pitch": 56,
                "velocity": 51,
                "duration": 0.11590909090909207,
                "tempo": 120.0
            },
            {
                "start_time": 31.43181818181818,
                "end_time": 31.549999999999997,
                "pitch": 63,
                "velocity": 51,
                "duration": 0.11818181818181728,
                "tempo": 120.0
            },
            {
                "start_time": 31.549999999999997,
                "end_time": 31.668181818181818,
                "pitch": 68,
                "velocity": 51,
                "duration": 0.11818181818182083,
                "tempo": 120.0
            },
            {
                "start_time": 31.668181818181818,
                "end_time": 31.786363636363635,
                "pitch": 56,
                "velocity": 51,
                "duration": 0.11818181818181728,
                "tempo": 120.0
            },
            {
                "start_time": 31.786363636363635,
                "end_time": 31.920454545454543,
                "pitch": 75,
                "velocity": 51,
                "duration": 0.13409090909090793,
                "tempo": 120.0
            },
            {
                "start_time": 31.920454545454543,
                "end_time": 32.03636363636363,
                "pitch": 56,
                "velocity": 51,
                "duration": 0.11590909090908852,
                "tempo": 120.0
            },
            {
                "start_time": 32.03636363636363,
                "end_time": 32.154545454545456,
                "pitch": 56,
                "velocity": 51,
                "duration": 0.11818181818182438,
                "tempo": 120.0
            },
            {
                "start_time": 32.154545454545456,
                "end_time": 32.27272727272727,
                "pitch": 68,
                "velocity": 51,
                "duration": 0.11818181818181728,
                "tempo": 120.0
            },
            {
                "start_time": 32.27272727272727,
                "end_time": 32.40681818181818,
                "pitch": 63,
                "velocity": 51,
                "duration": 0.13409090909090793,
                "tempo": 120.0
            },
            {
                "start_time": 32.40681818181818,
                "end_time": 32.527272727272724,
                "pitch": 56,
                "velocity": 51,
                "duration": 0.12045454545454248,
                "tempo": 120.0
            },
            {
                "start_time": 32.527272727272724,
                "end_time": 32.64545454545454,
                "pitch": 75,
                "velocity": 51,
                "duration": 0.11818181818181728,
                "tempo": 120.0
            },
            {
                "start_time": 32.64545454545454,
                "end_time": 32.76590909090909,
                "pitch": 56,
                "velocity": 51,
                "duration": 0.12045454545454959,
                "tempo": 120.0
            },
            {
                "start_time": 32.76590909090909,
                "end_time": 32.88409090909091,
                "pitch": 75,
                "velocity": 51,
                "duration": 0.11818181818181728,
                "tempo": 120.0
            },
            {
                "start_time": 32.88409090909091,
                "end_time": 33.01590909090909,
                "pitch": 58,
                "velocity": 51,
                "duration": 0.13181818181818272,
                "tempo": 120.0
            },
            {
                "start_time": 33.01590909090909,
                "end_time": 33.13181818181818,
                "pitch": 58,
                "velocity": 51,
                "duration": 0.11590909090909207,
                "tempo": 120.0
            },
            {
                "start_time": 33.13181818181818,
                "end_time": 33.24545454545454,
                "pitch": 70,
                "velocity": 51,
                "duration": 0.11363636363635976,
                "tempo": 120.0
            },
            {
                "start_time": 33.24545454545454,
                "end_time": 33.361363636363635,
                "pitch": 58,
                "velocity": 51,
                "duration": 0.11590909090909207,
                "tempo": 120.0
            },
            {
                "start_time": 33.361363636363635,
                "end_time": 33.47727272727273,
                "pitch": 65,
                "velocity": 51,
                "duration": 0.11590909090909207,
                "tempo": 120.0
            },
            {
                "start_time": 33.47727272727273,
                "end_time": 33.61363636363636,
                "pitch": 70,
                "velocity": 51,
                "duration": 0.13636363636363313,
                "tempo": 120.0
            },
            {
                "start_time": 33.61363636363636,
                "end_time": 33.72954545454545,
                "pitch": 58,
                "velocity": 51,
                "duration": 0.11590909090909207,
                "tempo": 120.0
            },
            {
                "start_time": 33.72954545454545,
                "end_time": 33.84772727272727,
                "pitch": 77,
                "velocity": 51,
                "duration": 0.11818181818181728,
                "tempo": 120.0
            },
            {
                "start_time": 33.84772727272727,
                "end_time": 33.96363636363636,
                "pitch": 58,
                "velocity": 51,
                "duration": 0.11590909090909207,
                "tempo": 120.0
            },
            {
                "start_time": 33.96363636363636,
                "end_time": 34.08181818181818,
                "pitch": 58,
                "velocity": 51,
                "duration": 0.11818181818181728,
                "tempo": 120.0
            },
            {
                "start_time": 34.08181818181818,
                "end_time": 34.21363636363636,
                "pitch": 70,
                "velocity": 51,
                "duration": 0.13181818181818272,
                "tempo": 120.0
            },
            {
                "start_time": 34.21363636363636,
                "end_time": 34.33181818181818,
                "pitch": 65,
                "velocity": 51,
                "duration": 0.11818181818181728,
                "tempo": 120.0
            },
            {
                "start_time": 34.33181818181818,
                "end_time": 34.44772727272727,
                "pitch": 58,
                "velocity": 51,
                "duration": 0.11590909090909207,
                "tempo": 120.0
            },
            {
                "start_time": 34.44772727272727,
                "end_time": 34.56590909090909,
                "pitch": 77,
                "velocity": 51,
                "duration": 0.11818181818181728,
                "tempo": 120.0
            },
            {
                "start_time": 34.56590909090909,
                "end_time": 34.699999999999996,
                "pitch": 58,
                "velocity": 51,
                "duration": 0.13409090909090793,
                "tempo": 120.0
            },
            {
                "start_time": 34.699999999999996,
                "end_time": 34.81818181818181,
                "pitch": 77,
                "velocity": 51,
                "duration": 0.11818181818181728,
                "tempo": 120.0
            },
            {
                "start_time": 34.81818181818181,
                "end_time": 34.93863636363636,
                "pitch": 58,
                "velocity": 51,
                "duration": 0.12045454545454959,
                "tempo": 120.0
            },
            {
                "start_time": 34.93863636363636,
                "end_time": 35.05681818181818,
                "pitch": 58,
                "velocity": 51,
                "duration": 0.11818181818181728,
                "tempo": 120.0
            },
            {
                "start_time": 35.05681818181818,
                "end_time": 35.17727272727272,
                "pitch": 70,
                "velocity": 51,
                "duration": 0.12045454545454248,
                "tempo": 120.0
            },
            {
                "start_time": 35.17727272727272,
                "end_time": 35.31363636363636,
                "pitch": 58,
                "velocity": 51,
                "duration": 0.13636363636364024,
                "tempo": 120.0
            },
            {
                "start_time": 35.31363636363636,
                "end_time": 35.43181818181818,
                "pitch": 65,
                "velocity": 51,
                "duration": 0.11818181818181728,
                "tempo": 120.0
            },
            {
                "start_time": 35.43181818181818,
                "end_time": 35.54772727272727,
                "pitch": 70,
                "velocity": 51,
                "duration": 0.11590909090909207,
                "tempo": 120.0
            },
            {
                "start_time": 35.54772727272727,
                "end_time": 35.66590909090909,
                "pitch": 58,
                "velocity": 51,
                "duration": 0.11818181818181728,
                "tempo": 120.0
            },
            {
                "start_time": 35.66590909090909,
                "end_time": 35.78409090909091,
                "pitch": 77,
                "velocity": 51,
                "duration": 0.11818181818181728,
                "tempo": 120.0
            },
            {
                "start_time": 35.78409090909091,
                "end_time": 35.91590909090909,
                "pitch": 58,
                "velocity": 51,
                "duration": 0.13181818181818272,
                "tempo": 120.0
            },
            {
                "start_time": 35.91590909090909,
                "end_time": 36.029545454545456,
                "pitch": 58,
                "velocity": 51,
                "duration": 0.11363636363636687,
                "tempo": 120.0
            },
            {
                "start_time": 36.029545454545456,
                "end_time": 36.14545454545454,
                "pitch": 70,
                "velocity": 51,
                "duration": 0.11590909090908497,
                "tempo": 120.0
            },
            {
                "start_time": 36.14545454545454,
                "end_time": 36.25909090909091,
                "pitch": 65,
                "velocity": 51,
                "duration": 0.11363636363636687,
                "tempo": 120.0
            },
            {
                "start_time": 36.25909090909091,
                "end_time": 36.377272727272725,
                "pitch": 58,
                "velocity": 51,
                "duration": 0.11818181818181728,
                "tempo": 120.0
            },
            {
                "start_time": 36.377272727272725,
                "end_time": 36.50909090909091,
                "pitch": 77,
                "velocity": 51,
                "duration": 0.13181818181818272,
                "tempo": 120.0
            },
            {
                "start_time": 36.50909090909091,
                "end_time": 36.627272727272725,
                "pitch": 58,
                "velocity": 51,
                "duration": 0.11818181818181728,
                "tempo": 120.0
            },
            {
                "start_time": 36.627272727272725,
                "end_time": 36.74318181818182,
                "pitch": 77,
                "velocity": 51,
                "duration": 0.11590909090909207,
                "tempo": 120.0
            },
            {
                "start_time": 36.75909090909091,
                "end_time": 36.777272727272724,
                "pitch": 43,
                "velocity": 51,
                "duration": 0.018181818181815856,
                "tempo": 120.0
            }
        ],
        "Vibraphone": [
            {
                "start_time": 0.013636363636363636,
                "end_time": 0.1159090909090909,
                "pitch": 43,
                "velocity": 127,
                "duration": 0.10227272727272727,
                "tempo": 120.0
            },
            {
                "start_time": 0.1159090909090909,
                "end_time": 0.23409090909090907,
                "pitch": 43,
                "velocity": 127,
                "duration": 0.11818181818181817,
                "tempo": 120.0
            },
            {
                "start_time": 0.23409090909090907,
                "end_time": 0.3727272727272727,
                "pitch": 43,
                "velocity": 127,
                "duration": 0.1386363636363636,
                "tempo": 120.0
            },
            {
                "start_time": 0.3727272727272727,
                "end_time": 0.4909090909090909,
                "pitch": 43,
                "velocity": 127,
                "duration": 0.11818181818181822,
                "tempo": 120.0
            },
            {
                "start_time": 0.4909090909090909,
                "end_time": 0.6022727272727273,
                "pitch": 43,
                "velocity": 127,
                "duration": 0.11136363636363639,
                "tempo": 120.0
            },
            {
                "start_time": 0.6022727272727273,
                "end_time": 0.7159090909090908,
                "pitch": 43,
                "velocity": 127,
                "duration": 0.11363636363636354,
                "tempo": 120.0
            },
            {
                "start_time": 0.7159090909090908,
                "end_time": 0.8272727272727273,
                "pitch": 43,
                "velocity": 127,
                "duration": 0.11136363636363644,
                "tempo": 120.0
            },
            {
                "start_time": 0.8272727272727273,
                "end_time": 0.9568181818181818,
                "pitch": 43,
                "velocity": 127,
                "duration": 0.12954545454545452,
                "tempo": 120.0
            },
            {
                "start_time": 0.9568181818181818,
                "end_time": 1.075,
                "pitch": 43,
                "velocity": 127,
                "duration": 0.11818181818181817,
                "tempo": 120.0
            },
            {
                "start_time": 1.075,
                "end_time": 1.1954545454545453,
                "pitch": 43,
                "velocity": 127,
                "duration": 0.12045454545454537,
                "tempo": 120.0
            },
            {
                "start_time": 1.1954545454545453,
                "end_time": 1.3136363636363635,
                "pitch": 43,
                "velocity": 127,
                "duration": 0.11818181818181817,
                "tempo": 120.0
            },
            {
                "start_time": 1.3136363636363635,
                "end_time": 1.434090909090909,
                "pitch": 43,
                "velocity": 127,
                "duration": 0.12045454545454559,
                "tempo": 120.0
            },
            {
                "start_time": 1.434090909090909,
                "end_time": 1.565909090909091,
                "pitch": 43,
                "velocity": 127,
                "duration": 0.13181818181818183,
                "tempo": 120.0
            },
            {
                "start_time": 1.565909090909091,
                "end_time": 1.6795454545454545,
                "pitch": 43,
                "velocity": 127,
                "duration": 0.11363636363636354,
                "tempo": 120.0
            },
            {
                "start_time": 1.6795454545454545,
                "end_time": 1.7954545454545454,
                "pitch": 43,
                "velocity": 127,
                "duration": 0.11590909090909096,
                "tempo": 120.0
            },
            {
                "start_time": 1.7954545454545454,
                "end_time": 1.909090909090909,
                "pitch": 43,
                "velocity": 127,
                "duration": 0.11363636363636354,
                "tempo": 120.0
            },
            {
                "start_time": 1.909090909090909,
                "end_time": 2.0295454545454543,
                "pitch": 43,
                "velocity": 127,
                "duration": 0.12045454545454537,
                "tempo": 120.0
            },
            {
                "start_time": 2.0295454545454543,
                "end_time": 2.165909090909091,
                "pitch": 43,
                "velocity": 127,
                "duration": 0.1363636363636367,
                "tempo": 120.0
            },
            {
                "start_time": 2.165909090909091,
                "end_time": 2.284090909090909,
                "pitch": 43,
                "velocity": 127,
                "duration": 0.11818181818181817,
                "tempo": 120.0
            },
            {
                "start_time": 2.284090909090909,
                "end_time": 2.4045454545454543,
                "pitch": 43,
                "velocity": 127,
                "duration": 0.12045454545454515,
                "tempo": 120.0
            },
            {
                "start_time": 2.4045454545454543,
                "end_time": 2.518181818181818,
                "pitch": 43,
                "velocity": 127,
                "duration": 0.11363636363636376,
                "tempo": 120.0
            },
            {
                "start_time": 2.518181818181818,
                "end_time": 2.65,
                "pitch": 43,
                "velocity": 127,
                "duration": 0.13181818181818183,
                "tempo": 120.0
            },
            {
                "start_time": 2.65,
                "end_time": 2.7659090909090907,
                "pitch": 43,
                "velocity": 127,
                "duration": 0.11590909090909074,
                "tempo": 120.0
            },
            {
                "start_time": 2.7659090909090907,
                "end_time": 2.8795454545454544,
                "pitch": 43,
                "velocity": 127,
                "duration": 0.11363636363636376,
                "tempo": 120.0
            },
            {
                "start_time": 2.8795454545454544,
                "end_time": 3.0,
                "pitch": 43,
                "velocity": 127,
                "duration": 0.12045454545454559,
                "tempo": 120.0
            },
            {
                "start_time": 3.0,
                "end_time": 3.118181818181818,
                "pitch": 43,
                "velocity": 127,
                "duration": 0.11818181818181817,
                "tempo": 120.0
            },
            {
                "start_time": 3.118181818181818,
                "end_time": 3.2545454545454544,
                "pitch": 43,
                "velocity": 127,
                "duration": 0.13636363636363624,
                "tempo": 120.0
            },
            {
                "start_time": 3.2545454545454544,
                "end_time": 3.375,
                "pitch": 43,
                "velocity": 127,
                "duration": 0.12045454545454559,
                "tempo": 120.0
            },
            {
                "start_time": 3.375,
                "end_time": 3.495454545454545,
                "pitch": 43,
                "velocity": 127,
                "duration": 0.12045454545454515,
                "tempo": 120.0
            },
            {
                "start_time": 3.495454545454545,
                "end_time": 3.6136363636363633,
                "pitch": 43,
                "velocity": 127,
                "duration": 0.11818181818181817,
                "tempo": 120.0
            },
            {
                "start_time": 3.6136363636363633,
                "end_time": 3.734090909090909,
                "pitch": 43,
                "velocity": 127,
                "duration": 0.12045454545454559,
                "tempo": 120.0
            },
            {
                "start_time": 3.734090909090909,
                "end_time": 3.870454545454545,
                "pitch": 43,
                "velocity": 127,
                "duration": 0.13636363636363624,
                "tempo": 120.0
            },
            {
                "start_time": 3.870454545454545,
                "end_time": 3.9863636363636363,
                "pitch": 46,
                "velocity": 127,
                "duration": 0.11590909090909118,
                "tempo": 120.0
            },
            {
                "start_time": 3.9863636363636363,
                "end_time": 4.1045454545454545,
                "pitch": 46,
                "velocity": 127,
                "duration": 0.11818181818181817,
                "tempo": 120.0
            },
            {
                "start_time": 4.1045454545454545,
                "end_time": 4.220454545454546,
                "pitch": 46,
                "velocity": 127,
                "duration": 0.11590909090909118,
                "tempo": 120.0
            },
            {
                "start_time": 4.220454545454546,
                "end_time": 4.3545454545454545,
                "pitch": 46,
                "velocity": 127,
                "duration": 0.13409090909090882,
                "tempo": 120.0
            },
            {
                "start_time": 4.3545454545454545,
                "end_time": 4.468181818181818,
                "pitch": 46,
                "velocity": 127,
                "duration": 0.11363636363636331,
                "tempo": 120.0
            },
            {
                "start_time": 4.468181818181818,
                "end_time": 4.584090909090909,
                "pitch": 46,
                "velocity": 127,
                "duration": 0.11590909090909118,
                "tempo": 120.0
            },
            {
                "start_time": 4.584090909090909,
                "end_time": 4.697727272727272,
                "pitch": 46,
                "velocity": 127,
                "duration": 0.11363636363636331,
                "tempo": 120.0
            },
            {
                "start_time": 4.697727272727272,
                "end_time": 4.8136363636363635,
                "pitch": 46,
                "velocity": 127,
                "duration": 0.11590909090909118,
                "tempo": 120.0
            },
            {
                "start_time": 4.8136363636363635,
                "end_time": 4.943181818181818,
                "pitch": 46,
                "velocity": 127,
                "duration": 0.12954545454545485,
                "tempo": 120.0
            },
            {
                "start_time": 4.943181818181818,
                "end_time": 5.059090909090909,
                "pitch": 46,
                "velocity": 127,
                "duration": 0.1159090909090903,
                "tempo": 120.0
            },
            {
                "start_time": 5.059090909090909,
                "end_time": 5.172727272727273,
                "pitch": 46,
                "velocity": 127,
                "duration": 0.1136363636363642,
                "tempo": 120.0
            },
            {
                "start_time": 5.172727272727273,
                "end_time": 5.288636363636363,
                "pitch": 46,
                "velocity": 127,
                "duration": 0.1159090909090903,
                "tempo": 120.0
            },
            {
                "start_time": 5.288636363636363,
                "end_time": 5.406818181818181,
                "pitch": 46,
                "velocity": 127,
                "duration": 0.11818181818181817,
                "tempo": 120.0
            },
            {
                "start_time": 5.406818181818181,
                "end_time": 5.545454545454545,
                "pitch": 46,
                "velocity": 127,
                "duration": 0.13863636363636367,
                "tempo": 120.0
            },
            {
                "start_time": 5.545454545454545,
                "end_time": 5.663636363636363,
                "pitch": 46,
                "velocity": 127,
                "duration": 0.11818181818181817,
                "tempo": 120.0
            },
            {
                "start_time": 5.663636363636363,
                "end_time": 5.784090909090909,
                "pitch": 46,
                "velocity": 127,
                "duration": 0.12045454545454604,
                "tempo": 120.0
            },
            {
                "start_time": 5.784090909090909,
                "end_time": 5.902272727272727,
                "pitch": 46,
                "velocity": 127,
                "duration": 0.11818181818181817,
                "tempo": 120.0
            },
            {
                "start_time": 5.902272727272727,
                "end_time": 6.0227272727272725,
                "pitch": 46,
                "velocity": 127,
                "duration": 0.12045454545454515,
                "tempo": 120.0
            },
            {
                "start_time": 6.0227272727272725,
                "end_time": 6.159090909090909,
                "pitch": 46,
                "velocity": 127,
                "duration": 0.1363636363636367,
                "tempo": 120.0
            },
            {
                "start_time": 6.159090909090909,
                "end_time": 6.279545454545454,
                "pitch": 46,
                "velocity": 127,
                "duration": 0.12045454545454515,
                "tempo": 120.0
            },
            {
                "start_time": 6.279545454545454,
                "end_time": 6.393181818181818,
                "pitch": 46,
                "velocity": 127,
                "duration": 0.11363636363636331,
                "tempo": 120.0
            },
            {
                "start_time": 6.393181818181818,
                "end_time": 6.509090909090909,
                "pitch": 46,
                "velocity": 127,
                "duration": 0.11590909090909118,
                "tempo": 120.0
            },
            {
                "start_time": 6.509090909090909,
                "end_time": 6.638636363636364,
                "pitch": 46,
                "velocity": 127,
                "duration": 0.12954545454545485,
                "tempo": 120.0
            },
            {
                "start_time": 6.638636363636364,
                "end_time": 6.754545454545454,
                "pitch": 46,
                "velocity": 127,
                "duration": 0.1159090909090903,
                "tempo": 120.0
            },
            {
                "start_time": 6.754545454545454,
                "end_time": 6.872727272727272,
                "pitch": 46,
                "velocity": 127,
                "duration": 0.11818181818181817,
                "tempo": 120.0
            },
            {
                "start_time": 6.872727272727272,
                "end_time": 6.988636363636363,
                "pitch": 46,
                "velocity": 127,
                "duration": 0.11590909090909118,
                "tempo": 120.0
            },
            {
                "start_time": 6.988636363636363,
                "end_time": 7.1068181818181815,
                "pitch": 46,
                "velocity": 127,
                "duration": 0.11818181818181817,
                "tempo": 120.0
            },
            {
                "start_time": 7.1068181818181815,
                "end_time": 7.24090909090909,
                "pitch": 46,
                "velocity": 127,
                "duration": 0.13409090909090882,
                "tempo": 120.0
            },
            {
                "start_time": 7.24090909090909,
                "end_time": 7.361363636363636,
                "pitch": 46,
                "velocity": 127,
                "duration": 0.12045454545454604,
                "tempo": 120.0
            },
            {
                "start_time": 7.361363636363636,
                "end_time": 7.4795454545454545,
                "pitch": 46,
                "velocity": 127,
                "duration": 0.11818181818181817,
                "tempo": 120.0
            },
            {
                "start_time": 7.4795454545454545,
                "end_time": 7.6,
                "pitch": 46,
                "velocity": 127,
                "duration": 0.12045454545454515,
                "tempo": 120.0
            },
            {
                "start_time": 7.6,
                "end_time": 7.720454545454545,
                "pitch": 46,
                "velocity": 127,
                "duration": 0.12045454545454515,
                "tempo": 120.0
            },
            {
                "start_time": 7.720454545454545,
                "end_time": 7.8545454545454545,
                "pitch": 41,
                "velocity": 127,
                "duration": 0.1340909090909097,
                "tempo": 120.0
            },
            {
                "start_time": 7.8545454545454545,
                "end_time": 7.972727272727273,
                "pitch": 41,
                "velocity": 127,
                "duration": 0.11818181818181817,
                "tempo": 120.0
            },
            {
                "start_time": 7.972727272727273,
                "end_time": 8.088636363636363,
                "pitch": 41,
                "velocity": 127,
                "duration": 0.1159090909090903,
                "tempo": 120.0
            },
            {
                "start_time": 8.088636363636363,
                "end_time": 8.206818181818182,
                "pitch": 41,
                "velocity": 127,
                "duration": 0.11818181818181905,
                "tempo": 120.0
            },
            {
                "start_time": 8.206818181818182,
                "end_time": 8.322727272727272,
                "pitch": 41,
                "velocity": 127,
                "duration": 0.1159090909090903,
                "tempo": 120.0
            },
            {
                "start_time": 8.322727272727272,
                "end_time": 8.452272727272726,
                "pitch": 41,
                "velocity": 127,
                "duration": 0.12954545454545396,
                "tempo": 120.0
            },
            {
                "start_time": 8.452272727272726,
                "end_time": 8.568181818181818,
                "pitch": 41,
                "velocity": 127,
                "duration": 0.11590909090909207,
                "tempo": 120.0
            },
            {
                "start_time": 8.568181818181818,
                "end_time": 8.681818181818182,
                "pitch": 41,
                "velocity": 127,
                "duration": 0.11363636363636331,
                "tempo": 120.0
            },
            {
                "start_time": 8.681818181818182,
                "end_time": 8.799999999999999,
                "pitch": 41,
                "velocity": 127,
                "duration": 0.11818181818181728,
                "tempo": 120.0
            },
            {
                "start_time": 8.799999999999999,
                "end_time": 8.934090909090909,
                "pitch": 41,
                "velocity": 127,
                "duration": 0.1340909090909097,
                "tempo": 120.0
            },
            {
                "start_time": 8.934090909090909,
                "end_time": 9.052272727272728,
                "pitch": 41,
                "velocity": 127,
                "duration": 0.11818181818181905,
                "tempo": 120.0
            },
            {
                "start_time": 9.052272727272728,
                "end_time": 9.170454545454545,
                "pitch": 41,
                "velocity": 127,
                "duration": 0.11818181818181728,
                "tempo": 120.0
            },
            {
                "start_time": 9.170454545454545,
                "end_time": 9.288636363636364,
                "pitch": 41,
                "velocity": 127,
                "duration": 0.11818181818181905,
                "tempo": 120.0
            },
            {
                "start_time": 9.288636363636364,
                "end_time": 9.409090909090908,
                "pitch": 41,
                "velocity": 127,
                "duration": 0.12045454545454426,
                "tempo": 120.0
            },
            {
                "start_time": 9.409090909090908,
                "end_time": 9.545454545454545,
                "pitch": 41,
                "velocity": 127,
                "duration": 0.1363636363636367,
                "tempo": 120.0
            },
            {
                "start_time": 9.545454545454545,
                "end_time": 9.665909090909091,
                "pitch": 41,
                "velocity": 127,
                "duration": 0.12045454545454604,
                "tempo": 120.0
            },
            {
                "start_time": 9.665909090909091,
                "end_time": 9.784090909090908,
                "pitch": 41,
                "velocity": 127,
                "duration": 0.11818181818181728,
                "tempo": 120.0
            },
            {
                "start_time": 9.784090909090908,
                "end_time": 9.904545454545454,
                "pitch": 41,
                "velocity": 127,
                "duration": 0.12045454545454604,
                "tempo": 120.0
            },
            {
                "start_time": 9.904545454545454,
                "end_time": 10.022727272727272,
                "pitch": 41,
                "velocity": 127,
                "duration": 0.11818181818181728,
                "tempo": 120.0
            },
            {
                "start_time": 10.022727272727272,
                "end_time": 10.159090909090908,
                "pitch": 41,
                "velocity": 127,
                "duration": 0.1363636363636367,
                "tempo": 120.0
            },
            {
                "start_time": 10.159090909090908,
                "end_time": 10.275,
                "pitch": 41,
                "velocity": 127,
                "duration": 0.11590909090909207,
                "tempo": 120.0
            },
            {
                "start_time": 10.275,
                "end_time": 10.39090909090909,
                "pitch": 41,
                "velocity": 127,
                "duration": 0.1159090909090903,
                "tempo": 120.0
            },
            {
                "start_time": 10.39090909090909,
                "end_time": 10.504545454545454,
                "pitch": 41,
                "velocity": 127,
                "duration": 0.11363636363636331,
                "tempo": 120.0
            },
            {
                "start_time": 10.504545454545454,
                "end_time": 10.620454545454544,
                "pitch": 41,
                "velocity": 127,
                "duration": 0.1159090909090903,
                "tempo": 120.0
            },
            {
                "start_time": 10.620454545454544,
                "end_time": 10.75,
                "pitch": 41,
                "velocity": 127,
                "duration": 0.12954545454545574,
                "tempo": 120.0
            },
            {
                "start_time": 10.75,
                "end_time": 10.86590909090909,
                "pitch": 41,
                "velocity": 127,
                "duration": 0.1159090909090903,
                "tempo": 120.0
            },
            {
                "start_time": 10.86590909090909,
                "end_time": 10.979545454545454,
                "pitch": 41,
                "velocity": 127,
                "duration": 0.11363636363636331,
                "tempo": 120.0
            },
            {
                "start_time": 10.979545454545454,
                "end_time": 11.095454545454546,
                "pitch": 41,
                "velocity": 127,
                "duration": 0.11590909090909207,
                "tempo": 120.0
            },
            {
                "start_time": 11.095454545454546,
                "end_time": 11.23181818181818,
                "pitch": 41,
                "velocity": 127,
                "duration": 0.1363636363636349,
                "tempo": 120.0
            },
            {
                "start_time": 11.23181818181818,
                "end_time": 11.35,
                "pitch": 41,
                "velocity": 127,
                "duration": 0.11818181818181905,
                "tempo": 120.0
            },
            {
                "start_time": 11.35,
                "end_time": 11.470454545454546,
                "pitch": 41,
                "velocity": 127,
                "duration": 0.12045454545454604,
                "tempo": 120.0
            },
            {
                "start_time": 11.470454545454546,
                "end_time": 11.59090909090909,
                "pitch": 41,
                "velocity": 127,
                "duration": 0.12045454545454426,
                "tempo": 120.0
            },
            {
                "start_time": 11.59090909090909,
                "end_time": 11.706818181818182,
                "pitch": 43,
                "velocity": 127,
                "duration": 0.11590909090909207,
                "tempo": 120.0
            },
            {
                "start_time": 11.706818181818182,
                "end_time": 11.84090909090909,
                "pitch": 43,
                "velocity": 127,
                "duration": 0.13409090909090793,
                "tempo": 120.0
            },
            {
                "start_time": 11.84090909090909,
                "end_time": 11.956818181818182,
                "pitch": 43,
                "velocity": 127,
                "duration": 0.11590909090909207,
                "tempo": 120.0
            },
            {
                "start_time": 11.956818181818182,
                "end_time": 12.072727272727272,
                "pitch": 43,
                "velocity": 127,
                "duration": 0.1159090909090903,
                "tempo": 120.0
            },
            {
                "start_time": 12.072727272727272,
                "end_time": 12.19090909090909,
                "pitch": 43,
                "velocity": 127,
                "duration": 0.11818181818181728,
                "tempo": 120.0
            },
            {
                "start_time": 12.19090909090909,
                "end_time": 12.309090909090909,
                "pitch": 43,
                "velocity": 127,
                "duration": 0.11818181818181905,
                "tempo": 120.0
            },
            {
                "start_time": 12.309090909090909,
                "end_time": 12.443181818181818,
                "pitch": 43,
                "velocity": 127,
                "duration": 0.1340909090909097,
                "tempo": 120.0
            },
            {
                "start_time": 12.443181818181818,
                "end_time": 12.561363636363636,
                "pitch": 43,
                "velocity": 127,
                "duration": 0.11818181818181728,
                "tempo": 120.0
            },
            {
                "start_time": 12.561363636363636,
                "end_time": 12.677272727272726,
                "pitch": 43,
                "velocity": 127,
                "duration": 0.1159090909090903,
                "tempo": 120.0
            },
            {
                "start_time": 12.677272727272726,
                "end_time": 12.795454545454545,
                "pitch": 43,
                "velocity": 127,
                "duration": 0.11818181818181905,
                "tempo": 120.0
            },
            {
                "start_time": 12.795454545454545,
                "end_time": 12.929545454545455,
                "pitch": 43,
                "velocity": 127,
                "duration": 0.1340909090909097,
                "tempo": 120.0
            },
            {
                "start_time": 12.929545454545455,
                "end_time": 13.047727272727272,
                "pitch": 43,
                "velocity": 127,
                "duration": 0.11818181818181728,
                "tempo": 120.0
            },
            {
                "start_time": 13.047727272727272,
                "end_time": 13.165909090909091,
                "pitch": 43,
                "velocity": 127,
                "duration": 0.11818181818181905,
                "tempo": 120.0
            },
            {
                "start_time": 13.165909090909091,
                "end_time": 13.281818181818181,
                "pitch": 43,
                "velocity": 127,
                "duration": 0.1159090909090903,
                "tempo": 120.0
            },
            {
                "start_time": 13.281818181818181,
                "end_time": 13.399999999999999,
                "pitch": 43,
                "velocity": 127,
                "duration": 0.11818181818181728,
                "tempo": 120.0
            },
            {
                "start_time": 13.399999999999999,
                "end_time": 13.534090909090908,
                "pitch": 43,
                "velocity": 127,
                "duration": 0.1340909090909097,
                "tempo": 120.0
            },
            {
                "start_time": 13.534090909090908,
                "end_time": 13.654545454545454,
                "pitch": 46,
                "velocity": 127,
                "duration": 0.12045454545454604,
                "tempo": 120.0
            },
            {
                "start_time": 13.654545454545454,
                "end_time": 13.774999999999999,
                "pitch": 46,
                "velocity": 127,
                "duration": 0.12045454545454426,
                "tempo": 120.0
            },
            {
                "start_time": 13.774999999999999,
                "end_time": 13.893181818181818,
                "pitch": 46,
                "velocity": 127,
                "duration": 0.11818181818181905,
                "tempo": 120.0
            },
            {
                "start_time": 13.893181818181818,
                "end_time": 14.013636363636364,
                "pitch": 46,
                "velocity": 127,
                "duration": 0.12045454545454604,
                "tempo": 120.0
            },
            {
                "start_time": 14.013636363636364,
                "end_time": 14.14090909090909,
                "pitch": 46,
                "velocity": 127,
                "duration": 0.12727272727272698,
                "tempo": 120.0
            },
            {
                "start_time": 14.14090909090909,
                "end_time": 14.252272727272727,
                "pitch": 46,
                "velocity": 127,
                "duration": 0.11136363636363633,
                "tempo": 120.0
            },
            {
                "start_time": 14.252272727272727,
                "end_time": 14.36590909090909,
                "pitch": 46,
                "velocity": 127,
                "duration": 0.11363636363636331,
                "tempo": 120.0
            },
            {
                "start_time": 14.36590909090909,
                "end_time": 14.477272727272727,
                "pitch": 46,
                "velocity": 127,
                "duration": 0.11136363636363633,
                "tempo": 120.0
            },
            {
                "start_time": 14.477272727272727,
                "end_time": 14.597727272727273,
                "pitch": 46,
                "velocity": 127,
                "duration": 0.12045454545454604,
                "tempo": 120.0
            },
            {
                "start_time": 14.597727272727273,
                "end_time": 14.734090909090908,
                "pitch": 46,
                "velocity": 127,
                "duration": 0.1363636363636349,
                "tempo": 120.0
            },
            {
                "start_time": 14.734090909090908,
                "end_time": 14.852272727272727,
                "pitch": 46,
                "velocity": 127,
                "duration": 0.11818181818181905,
                "tempo": 120.0
            },
            {
                "start_time": 14.852272727272727,
                "end_time": 14.972727272727273,
                "pitch": 46,
                "velocity": 127,
                "duration": 0.12045454545454604,
                "tempo": 120.0
            },
            {
                "start_time": 14.972727272727273,
                "end_time": 15.09090909090909,
                "pitch": 46,
                "velocity": 127,
                "duration": 0.11818181818181728,
                "tempo": 120.0
            },
            {
                "start_time": 15.09090909090909,
                "end_time": 15.229545454545454,
                "pitch": 46,
                "velocity": 127,
                "duration": 0.13863636363636367,
                "tempo": 120.0
            },
            {
                "start_time": 15.229545454545454,
                "end_time": 15.347727272727273,
                "pitch": 46,
                "velocity": 127,
                "duration": 0.11818181818181905,
                "tempo": 120.0
            },
            {
                "start_time": 15.347727272727273,
                "end_time": 15.468181818181817,
                "pitch": 46,
                "velocity": 127,
                "duration": 0.12045454545454426,
                "tempo": 120.0
            },
            {
                "start_time": 15.468181818181817,
                "end_time": 15.586363636363636,
                "pitch": 46,
                "velocity": 127,
                "duration": 0.11818181818181905,
                "tempo": 120.0
            },
            {
                "start_time": 15.586363636363636,
                "end_time": 15.702272727272726,
                "pitch": 46,
                "velocity": 127,
                "duration": 0.1159090909090903,
                "tempo": 120.0
            },
            {
                "start_time": 15.702272727272726,
                "end_time": 15.836363636363636,
                "pitch": 46,
                "velocity": 127,
                "duration": 0.1340909090909097,
                "tempo": 120.0
            },
            {
                "start_time": 15.836363636363636,
                "end_time": 15.954545454545453,
                "pitch": 46,
                "velocity": 127,
                "duration": 0.11818181818181728,
                "tempo": 120.0
            },
            {
                "start_time": 15.954545454545453,
                "end_time": 16.070454545454545,
                "pitch": 46,
                "velocity": 127,
                "duration": 0.11590909090909207,
                "tempo": 120.0
            },
            {
                "start_time": 16.070454545454545,
                "end_time": 16.188636363636363,
                "pitch": 46,
                "velocity": 127,
                "duration": 0.11818181818181728,
                "tempo": 120.0
            },
            {
                "start_time": 16.188636363636363,
                "end_time": 16.304545454545455,
                "pitch": 46,
                "velocity": 127,
                "duration": 0.11590909090909207,
                "tempo": 120.0
            },
            {
                "start_time": 16.304545454545455,
                "end_time": 16.438636363636363,
                "pitch": 46,
                "velocity": 127,
                "duration": 0.13409090909090793,
                "tempo": 120.0
            },
            {
                "start_time": 16.438636363636363,
                "end_time": 16.55681818181818,
                "pitch": 46,
                "velocity": 127,
                "duration": 0.11818181818181728,
                "tempo": 120.0
            },
            {
                "start_time": 16.55681818181818,
                "end_time": 16.672727272727272,
                "pitch": 46,
                "velocity": 127,
                "duration": 0.11590909090909207,
                "tempo": 120.0
            },
            {
                "start_time": 16.672727272727272,
                "end_time": 16.79090909090909,
                "pitch": 46,
                "velocity": 127,
                "duration": 0.11818181818181728,
                "tempo": 120.0
            },
            {
                "start_time": 16.79090909090909,
                "end_time": 16.909090909090907,
                "pitch": 46,
                "velocity": 127,
                "duration": 0.11818181818181728,
                "tempo": 120.0
            },
            {
                "start_time": 16.909090909090907,
                "end_time": 17.04090909090909,
                "pitch": 46,
                "velocity": 127,
                "duration": 0.13181818181818272,
                "tempo": 120.0
            },
            {
                "start_time": 17.04090909090909,
                "end_time": 17.154545454545453,
                "pitch": 46,
                "velocity": 127,
                "duration": 0.11363636363636331,
                "tempo": 120.0
            },
            {
                "start_time": 17.154545454545453,
                "end_time": 17.270454545454545,
                "pitch": 46,
                "velocity": 127,
                "duration": 0.11590909090909207,
                "tempo": 120.0
            },
            {
                "start_time": 17.270454545454545,
                "end_time": 17.384090909090908,
                "pitch": 46,
                "velocity": 127,
                "duration": 0.11363636363636331,
                "tempo": 120.0
            },
            {
                "start_time": 17.384090909090908,
                "end_time": 17.520454545454545,
                "pitch": 46,
                "velocity": 127,
                "duration": 0.1363636363636367,
                "tempo": 120.0
            },
            {
                "start_time": 17.520454545454545,
                "end_time": 17.64090909090909,
                "pitch": 48,
                "velocity": 127,
                "duration": 0.12045454545454604,
                "tempo": 120.0
            },
            {
                "start_time": 17.64090909090909,
                "end_time": 17.759090909090908,
                "pitch": 48,
                "velocity": 127,
                "duration": 0.11818181818181728,
                "tempo": 120.0
            },
            {
                "start_time": 17.759090909090908,
                "end_time": 17.879545454545454,
                "pitch": 48,
                "velocity": 127,
                "duration": 0.12045454545454604,
                "tempo": 120.0
            },
            {
                "start_time": 17.879545454545454,
                "end_time": 17.993181818181817,
                "pitch": 48,
                "velocity": 127,
                "duration": 0.11363636363636331,
                "tempo": 120.0
            },
            {
                "start_time": 17.993181818181817,
                "end_time": 18.125,
                "pitch": 48,
                "velocity": 127,
                "duration": 0.13181818181818272,
                "tempo": 120.0
            },
            {
                "start_time": 18.125,
                "end_time": 18.24090909090909,
                "pitch": 48,
                "velocity": 127,
                "duration": 0.11590909090908852,
                "tempo": 120.0
            },
            {
                "start_time": 18.24090909090909,
                "end_time": 18.354545454545455,
                "pitch": 48,
                "velocity": 127,
                "duration": 0.11363636363636687,
                "tempo": 120.0
            },
            {
                "start_time": 18.354545454545455,
                "end_time": 18.474999999999998,
                "pitch": 48,
                "velocity": 127,
                "duration": 0.12045454545454248,
                "tempo": 120.0
            },
            {
                "start_time": 18.474999999999998,
                "end_time": 18.59318181818182,
                "pitch": 48,
                "velocity": 127,
                "duration": 0.11818181818182083,
                "tempo": 120.0
            },
            {
                "start_time": 18.59318181818182,
                "end_time": 18.729545454545455,
                "pitch": 48,
                "velocity": 127,
                "duration": 0.1363636363636367,
                "tempo": 120.0
            },
            {
                "start_time": 18.729545454545455,
                "end_time": 18.849999999999998,
                "pitch": 48,
                "velocity": 127,
                "duration": 0.12045454545454248,
                "tempo": 120.0
            },
            {
                "start_time": 18.849999999999998,
                "end_time": 18.96818181818182,
                "pitch": 48,
                "velocity": 127,
                "duration": 0.11818181818182083,
                "tempo": 120.0
            },
            {
                "start_time": 18.96818181818182,
                "end_time": 19.08863636363636,
                "pitch": 48,
                "velocity": 127,
                "duration": 0.12045454545454248,
                "tempo": 120.0
            },
            {
                "start_time": 19.08863636363636,
                "end_time": 19.209090909090907,
                "pitch": 48,
                "velocity": 127,
                "duration": 0.12045454545454604,
                "tempo": 120.0
            },
            {
                "start_time": 19.209090909090907,
                "end_time": 19.345454545454544,
                "pitch": 48,
                "velocity": 127,
                "duration": 0.1363636363636367,
                "tempo": 120.0
            },
            {
                "start_time": 19.345454545454544,
                "end_time": 19.461363636363636,
                "pitch": 48,
                "velocity": 127,
                "duration": 0.11590909090909207,
                "tempo": 120.0
            },
            {
                "start_time": 19.461363636363636,
                "end_time": 19.577272727272728,
                "pitch": 48,
                "velocity": 127,
                "duration": 0.11590909090909207,
                "tempo": 120.0
            },
            {
                "start_time": 19.577272727272728,
                "end_time": 19.695454545454545,
                "pitch": 48,
                "velocity": 127,
                "duration": 0.11818181818181728,
                "tempo": 120.0
            },
            {
                "start_time": 19.695454545454545,
                "end_time": 19.827272727272728,
                "pitch": 48,
                "velocity": 127,
                "duration": 0.13181818181818272,
                "tempo": 120.0
            },
            {
                "start_time": 19.827272727272728,
                "end_time": 19.945454545454545,
                "pitch": 48,
                "velocity": 127,
                "duration": 0.11818181818181728,
                "tempo": 120.0
            },
            {
                "start_time": 19.945454545454545,
                "end_time": 20.063636363636363,
                "pitch": 48,
                "velocity": 127,
                "duration": 0.11818181818181728,
                "tempo": 120.0
            },
            {
                "start_time": 20.063636363636363,
                "end_time": 20.18181818181818,
                "pitch": 48,
                "velocity": 127,
                "duration": 0.11818181818181728,
                "tempo": 120.0
            },
            {
                "start_time": 20.18181818181818,
                "end_time": 20.297727272727272,
                "pitch": 48,
                "velocity": 127,
                "duration": 0.11590909090909207,
                "tempo": 120.0
            },
            {
                "start_time": 20.297727272727272,
                "end_time": 20.427272727272726,
                "pitch": 48,
                "velocity": 127,
                "duration": 0.12954545454545396,
                "tempo": 120.0
            },
            {
                "start_time": 20.427272727272726,
                "end_time": 20.538636363636364,
                "pitch": 48,
                "velocity": 127,
                "duration": 0.11136363636363811,
                "tempo": 120.0
            },
            {
                "start_time": 20.538636363636364,
                "end_time": 20.65,
                "pitch": 48,
                "velocity": 127,
                "duration": 0.11136363636363455,
                "tempo": 120.0
            },
            {
                "start_time": 20.65,
                "end_time": 20.763636363636362,
                "pitch": 48,
                "velocity": 127,
                "duration": 0.11363636363636331,
                "tempo": 120.0
            },
            {
                "start_time": 20.763636363636362,
                "end_time": 20.88181818181818,
                "pitch": 48,
                "velocity": 127,
                "duration": 0.11818181818181728,
                "tempo": 120.0
            },
            {
                "start_time": 20.88181818181818,
                "end_time": 21.018181818181816,
                "pitch": 48,
                "velocity": 127,
                "duration": 0.1363636363636367,
                "tempo": 120.0
            },
            {
                "start_time": 21.018181818181816,
                "end_time": 21.138636363636362,
                "pitch": 48,
                "velocity": 127,
                "duration": 0.12045454545454604,
                "tempo": 120.0
            },
            {
                "start_time": 21.138636363636362,
                "end_time": 21.259090909090908,
                "pitch": 48,
                "velocity": 127,
                "duration": 0.12045454545454604,
                "tempo": 120.0
            },
            {
                "start_time": 21.259090909090908,
                "end_time": 21.377272727272725,
                "pitch": 50,
                "velocity": 127,
                "duration": 0.11818181818181728,
                "tempo": 120.0
            },
            {
                "start_time": 21.377272727272725,
                "end_time": 21.513636363636362,
                "pitch": 50,
                "velocity": 127,
                "duration": 0.1363636363636367,
                "tempo": 120.0
            },
            {
                "start_time": 21.513636363636362,
                "end_time": 21.634090909090908,
                "pitch": 50,
                "velocity": 127,
                "duration": 0.12045454545454604,
                "tempo": 120.0
            },
            {
                "start_time": 21.634090909090908,
                "end_time": 21.752272727272725,
                "pitch": 50,
                "velocity": 127,
                "duration": 0.11818181818181728,
                "tempo": 120.0
            },
            {
                "start_time": 21.752272727272725,
                "end_time": 21.868181818181817,
                "pitch": 50,
                "velocity": 127,
                "duration": 0.11590909090909207,
                "tempo": 120.0
            },
            {
                "start_time": 21.868181818181817,
                "end_time": 21.98181818181818,
                "pitch": 50,
                "velocity": 127,
                "duration": 0.11363636363636331,
                "tempo": 120.0
            },
            {
                "start_time": 21.98181818181818,
                "end_time": 22.113636363636363,
                "pitch": 50,
                "velocity": 127,
                "duration": 0.13181818181818272,
                "tempo": 120.0
            },
            {
                "start_time": 22.113636363636363,
                "end_time": 22.229545454545452,
                "pitch": 50,
                "velocity": 127,
                "duration": 0.11590909090908852,
                "tempo": 120.0
            },
            {
                "start_time": 22.229545454545452,
                "end_time": 22.347727272727273,
                "pitch": 50,
                "velocity": 127,
                "duration": 0.11818181818182083,
                "tempo": 120.0
            },
            {
                "start_time": 22.347727272727273,
                "end_time": 22.46818181818182,
                "pitch": 50,
                "velocity": 127,
                "duration": 0.12045454545454604,
                "tempo": 120.0
            },
            {
                "start_time": 22.46818181818182,
                "end_time": 22.586363636363636,
                "pitch": 50,
                "velocity": 127,
                "duration": 0.11818181818181728,
                "tempo": 120.0
            },
            {
                "start_time": 22.586363636363636,
                "end_time": 22.724999999999998,
                "pitch": 50,
                "velocity": 127,
                "duration": 0.1386363636363619,
                "tempo": 120.0
            },
            {
                "start_time": 22.724999999999998,
                "end_time": 22.84090909090909,
                "pitch": 50,
                "velocity": 127,
                "duration": 0.11590909090909207,
                "tempo": 120.0
            },
            {
                "start_time": 22.84090909090909,
                "end_time": 22.959090909090907,
                "pitch": 50,
                "velocity": 127,
                "duration": 0.11818181818181728,
                "tempo": 120.0
            },
            {
                "start_time": 22.959090909090907,
                "end_time": 23.077272727272724,
                "pitch": 50,
                "velocity": 127,
                "duration": 0.11818181818181728,
                "tempo": 120.0
            },
            {
                "start_time": 23.077272727272724,
                "end_time": 23.193181818181817,
                "pitch": 50,
                "velocity": 127,
                "duration": 0.11590909090909207,
                "tempo": 120.0
            },
            {
                "start_time": 23.193181818181817,
                "end_time": 23.325,
                "pitch": 50,
                "velocity": 127,
                "duration": 0.13181818181818272,
                "tempo": 120.0
            },
            {
                "start_time": 23.325,
                "end_time": 23.44090909090909,
                "pitch": 50,
                "velocity": 127,
                "duration": 0.11590909090909207,
                "tempo": 120.0
            },
            {
                "start_time": 23.44090909090909,
                "end_time": 23.554545454545455,
                "pitch": 50,
                "velocity": 127,
                "duration": 0.11363636363636331,
                "tempo": 120.0
            },
            {
                "start_time": 23.554545454545455,
                "end_time": 23.670454545454543,
                "pitch": 50,
                "velocity": 127,
                "duration": 0.11590909090908852,
                "tempo": 120.0
            },
            {
                "start_time": 23.670454545454543,
                "end_time": 23.804545454545455,
                "pitch": 50,
                "velocity": 127,
                "duration": 0.13409090909091148,
                "tempo": 120.0
            },
            {
                "start_time": 23.804545454545455,
                "end_time": 23.922727272727272,
                "pitch": 50,
                "velocity": 127,
                "duration": 0.11818181818181728,
                "tempo": 120.0
            },
            {
                "start_time": 23.922727272727272,
                "end_time": 24.038636363636364,
                "pitch": 50,
                "velocity": 127,
                "duration": 0.11590909090909207,
                "tempo": 120.0
            },
            {
                "start_time": 24.038636363636364,
                "end_time": 24.15681818181818,
                "pitch": 50,
                "velocity": 127,
                "duration": 0.11818181818181728,
                "tempo": 120.0
            },
            {
                "start_time": 24.15681818181818,
                "end_time": 24.275,
                "pitch": 50,
                "velocity": 127,
                "duration": 0.11818181818181728,
                "tempo": 120.0
            },
            {
                "start_time": 24.275,
                "end_time": 24.409090909090907,
                "pitch": 50,
                "velocity": 127,
                "duration": 0.13409090909090793,
                "tempo": 120.0
            },
            {
                "start_time": 24.409090909090907,
                "end_time": 24.527272727272727,
                "pitch": 50,
                "velocity": 127,
                "duration": 0.11818181818182083,
                "tempo": 120.0
            },
            {
                "start_time": 24.527272727272727,
                "end_time": 24.645454545454545,
                "pitch": 50,
                "velocity": 127,
                "duration": 0.11818181818181728,
                "tempo": 120.0
            },
            {
                "start_time": 24.645454545454545,
                "end_time": 24.763636363636362,
                "pitch": 50,
                "velocity": 127,
                "duration": 0.11818181818181728,
                "tempo": 120.0
            },
            {
                "start_time": 24.763636363636362,
                "end_time": 24.884090909090908,
                "pitch": 50,
                "velocity": 127,
                "duration": 0.12045454545454604,
                "tempo": 120.0
            },
            {
                "start_time": 24.884090909090908,
                "end_time": 25.020454545454545,
                "pitch": 50,
                "velocity": 127,
                "duration": 0.1363636363636367,
                "tempo": 120.0
            },
            {
                "start_time": 25.020454545454545,
                "end_time": 25.138636363636362,
                "pitch": 50,
                "velocity": 127,
                "duration": 0.11818181818181728,
                "tempo": 120.0
            },
            {
                "start_time": 25.138636363636362,
                "end_time": 25.259090909090908,
                "pitch": 50,
                "velocity": 127,
                "duration": 0.12045454545454604,
                "tempo": 120.0
            },
            {
                "start_time": 25.259090909090908,
                "end_time": 25.379545454545454,
                "pitch": 51,
                "velocity": 127,
                "duration": 0.12045454545454604,
                "tempo": 120.0
            },
            {
                "start_time": 25.379545454545454,
                "end_time": 25.49772727272727,
                "pitch": 51,
                "velocity": 127,
                "duration": 0.11818181818181728,
                "tempo": 120.0
            },
            {
                "start_time": 25.49772727272727,
                "end_time": 25.634090909090908,
                "pitch": 51,
                "velocity": 127,
                "duration": 0.1363636363636367,
                "tempo": 120.0
            },
            {
                "start_time": 25.634090909090908,
                "end_time": 25.75,
                "pitch": 51,
                "velocity": 127,
                "duration": 0.11590909090909207,
                "tempo": 120.0
            },
            {
                "start_time": 25.75,
                "end_time": 25.863636363636363,
                "pitch": 51,
                "velocity": 127,
                "duration": 0.11363636363636331,
                "tempo": 120.0
            },
            {
                "start_time": 25.863636363636363,
                "end_time": 25.979545454545452,
                "pitch": 51,
                "velocity": 127,
                "duration": 0.11590909090908852,
                "tempo": 120.0
            },
            {
                "start_time": 25.979545454545452,
                "end_time": 26.10909090909091,
                "pitch": 51,
                "velocity": 127,
                "duration": 0.12954545454545752,
                "tempo": 120.0
            },
            {
                "start_time": 26.10909090909091,
                "end_time": 26.229545454545452,
                "pitch": 51,
                "velocity": 127,
                "duration": 0.12045454545454248,
                "tempo": 120.0
            },
            {
                "start_time": 26.229545454545452,
                "end_time": 26.349999999999998,
                "pitch": 51,
                "velocity": 127,
                "duration": 0.12045454545454604,
                "tempo": 120.0
            },
            {
                "start_time": 26.349999999999998,
                "end_time": 26.468181818181815,
                "pitch": 51,
                "velocity": 127,
                "duration": 0.11818181818181728,
                "tempo": 120.0
            },
            {
                "start_time": 26.468181818181815,
                "end_time": 26.58863636363636,
                "pitch": 51,
                "velocity": 127,
                "duration": 0.12045454545454604,
                "tempo": 120.0
            },
            {
                "start_time": 26.58863636363636,
                "end_time": 26.720454545454544,
                "pitch": 51,
                "velocity": 127,
                "duration": 0.13181818181818272,
                "tempo": 120.0
            },
            {
                "start_time": 26.720454545454544,
                "end_time": 26.834090909090907,
                "pitch": 51,
                "velocity": 127,
                "duration": 0.11363636363636331,
                "tempo": 120.0
            },
            {
                "start_time": 26.834090909090907,
                "end_time": 26.95,
                "pitch": 51,
                "velocity": 127,
                "duration": 0.11590909090909207,
                "tempo": 120.0
            },
            {
                "start_time": 26.95,
                "end_time": 27.063636363636363,
                "pitch": 51,
                "velocity": 127,
                "duration": 0.11363636363636331,
                "tempo": 120.0
            },
            {
                "start_time": 27.063636363636363,
                "end_time": 27.18181818181818,
                "pitch": 51,
                "velocity": 127,
                "duration": 0.11818181818181728,
                "tempo": 120.0
            },
            {
                "start_time": 27.18181818181818,
                "end_time": 27.315909090909088,
                "pitch": 51,
                "velocity": 127,
                "duration": 0.13409090909090793,
                "tempo": 120.0
            },
            {
                "start_time": 27.315909090909088,
                "end_time": 27.43409090909091,
                "pitch": 51,
                "velocity": 127,
                "duration": 0.11818181818182083,
                "tempo": 120.0
            },
            {
                "start_time": 27.43409090909091,
                "end_time": 27.552272727272726,
                "pitch": 51,
                "velocity": 127,
                "duration": 0.11818181818181728,
                "tempo": 120.0
            },
            {
                "start_time": 27.552272727272726,
                "end_time": 27.668181818181818,
                "pitch": 51,
                "velocity": 127,
                "duration": 0.11590909090909207,
                "tempo": 120.0
            },
            {
                "start_time": 27.668181818181818,
                "end_time": 27.784090909090907,
                "pitch": 51,
                "velocity": 127,
                "duration": 0.11590909090908852,
                "tempo": 120.0
            },
            {
                "start_time": 27.784090909090907,
                "end_time": 27.918181818181818,
                "pitch": 51,
                "velocity": 127,
                "duration": 0.13409090909091148,
                "tempo": 120.0
            },
            {
                "start_time": 27.918181818181818,
                "end_time": 28.034090909090907,
                "pitch": 51,
                "velocity": 127,
                "duration": 0.11590909090908852,
                "tempo": 120.0
            },
            {
                "start_time": 28.034090909090907,
                "end_time": 28.152272727272727,
                "pitch": 51,
                "velocity": 127,
                "duration": 0.11818181818182083,
                "tempo": 120.0
            },
            {
                "start_time": 28.152272727272727,
                "end_time": 28.270454545454545,
                "pitch": 51,
                "velocity": 127,
                "duration": 0.11818181818181728,
                "tempo": 120.0
            },
            {
                "start_time": 28.270454545454545,
                "end_time": 28.404545454545453,
                "pitch": 51,
                "velocity": 127,
                "duration": 0.13409090909090793,
                "tempo": 120.0
            },
            {
                "start_time": 28.404545454545453,
                "end_time": 28.52272727272727,
                "pitch": 51,
                "velocity": 127,
                "duration": 0.11818181818181728,
                "tempo": 120.0
            },
            {
                "start_time": 28.52272727272727,
                "end_time": 28.64090909090909,
                "pitch": 51,
                "velocity": 127,
                "duration": 0.11818181818182083,
                "tempo": 120.0
            },
            {
                "start_time": 28.64090909090909,
                "end_time": 28.761363636363637,
                "pitch": 51,
                "velocity": 127,
                "duration": 0.12045454545454604,
                "tempo": 120.0
            },
            {
                "start_time": 28.761363636363637,
                "end_time": 28.879545454545454,
                "pitch": 51,
                "velocity": 127,
                "duration": 0.11818181818181728,
                "tempo": 120.0
            },
            {
                "start_time": 28.879545454545454,
                "end_time": 29.01590909090909,
                "pitch": 51,
                "velocity": 127,
                "duration": 0.1363636363636367,
                "tempo": 120.0
            },
            {
                "start_time": 29.01590909090909,
                "end_time": 29.134090909090908,
                "pitch": 44,
                "velocity": 127,
                "duration": 0.11818181818181728,
                "tempo": 120.0
            },
            {
                "start_time": 29.134090909090908,
                "end_time": 29.252272727272725,
                "pitch": 44,
                "velocity": 127,
                "duration": 0.11818181818181728,
                "tempo": 120.0
            },
            {
                "start_time": 29.252272727272725,
                "end_time": 29.370454545454542,
                "pitch": 44,
                "velocity": 127,
                "duration": 0.11818181818181728,
                "tempo": 120.0
            },
            {
                "start_time": 29.370454545454542,
                "end_time": 29.486363636363635,
                "pitch": 44,
                "velocity": 127,
                "duration": 0.11590909090909207,
                "tempo": 120.0
            },
            {
                "start_time": 29.486363636363635,
                "end_time": 29.618181818181817,
                "pitch": 44,
                "velocity": 127,
                "duration": 0.13181818181818272,
                "tempo": 120.0
            },
            {
                "start_time": 29.618181818181817,
                "end_time": 29.73409090909091,
                "pitch": 44,
                "velocity": 127,
                "duration": 0.11590909090909207,
                "tempo": 120.0
            },
            {
                "start_time": 29.73409090909091,
                "end_time": 29.847727272727273,
                "pitch": 44,
                "velocity": 127,
                "duration": 0.11363636363636331,
                "tempo": 120.0
            },
            {
                "start_time": 29.847727272727273,
                "end_time": 29.96363636363636,
                "pitch": 44,
                "velocity": 127,
                "duration": 0.11590909090908852,
                "tempo": 120.0
            },
            {
                "start_time": 29.96363636363636,
                "end_time": 30.097727272727273,
                "pitch": 44,
                "velocity": 127,
                "duration": 0.13409090909091148,
                "tempo": 120.0
            },
            {
                "start_time": 30.097727272727273,
                "end_time": 30.21590909090909,
                "pitch": 44,
                "velocity": 127,
                "duration": 0.11818181818181728,
                "tempo": 120.0
            },
            {
                "start_time": 30.21590909090909,
                "end_time": 30.331818181818182,
                "pitch": 44,
                "velocity": 127,
                "duration": 0.11590909090909207,
                "tempo": 120.0
            },
            {
                "start_time": 30.331818181818182,
                "end_time": 30.45,
                "pitch": 44,
                "velocity": 127,
                "duration": 0.11818181818181728,
                "tempo": 120.0
            },
            {
                "start_time": 30.45,
                "end_time": 30.570454545454545,
                "pitch": 44,
                "velocity": 127,
                "duration": 0.12045454545454604,
                "tempo": 120.0
            },
            {
                "start_time": 30.570454545454545,
                "end_time": 30.706818181818182,
                "pitch": 44,
                "velocity": 127,
                "duration": 0.1363636363636367,
                "tempo": 120.0
            },
            {
                "start_time": 30.706818181818182,
                "end_time": 30.825,
                "pitch": 44,
                "velocity": 127,
                "duration": 0.11818181818181728,
                "tempo": 120.0
            },
            {
                "start_time": 30.825,
                "end_time": 30.945454545454545,
                "pitch": 44,
                "velocity": 127,
                "duration": 0.12045454545454604,
                "tempo": 120.0
            },
            {
                "start_time": 30.945454545454545,
                "end_time": 31.063636363636363,
                "pitch": 44,
                "velocity": 127,
                "duration": 0.11818181818181728,
                "tempo": 120.0
            },
            {
                "start_time": 31.063636363636363,
                "end_time": 31.179545454545455,
                "pitch": 44,
                "velocity": 127,
                "duration": 0.11590909090909207,
                "tempo": 120.0
            },
            {
                "start_time": 31.179545454545455,
                "end_time": 31.315909090909088,
                "pitch": 44,
                "velocity": 127,
                "duration": 0.13636363636363313,
                "tempo": 120.0
            },
            {
                "start_time": 31.315909090909088,
                "end_time": 31.43181818181818,
                "pitch": 44,
                "velocity": 127,
                "duration": 0.11590909090909207,
                "tempo": 120.0
            },
            {
                "start_time": 31.43181818181818,
                "end_time": 31.549999999999997,
                "pitch": 44,
                "velocity": 127,
                "duration": 0.11818181818181728,
                "tempo": 120.0
            },
            {
                "start_time": 31.549999999999997,
                "end_time": 31.668181818181818,
                "pitch": 44,
                "velocity": 127,
                "duration": 0.11818181818182083,
                "tempo": 120.0
            },
            {
                "start_time": 31.668181818181818,
                "end_time": 31.786363636363635,
                "pitch": 44,
                "velocity": 127,
                "duration": 0.11818181818181728,
                "tempo": 120.0
            },
            {
                "start_time": 31.786363636363635,
                "end_time": 31.920454545454543,
                "pitch": 44,
                "velocity": 127,
                "duration": 0.13409090909090793,
                "tempo": 120.0
            },
            {
                "start_time": 31.920454545454543,
                "end_time": 32.03636363636363,
                "pitch": 44,
                "velocity": 127,
                "duration": 0.11590909090908852,
                "tempo": 120.0
            },
            {
                "start_time": 32.03636363636363,
                "end_time": 32.154545454545456,
                "pitch": 44,
                "velocity": 127,
                "duration": 0.11818181818182438,
                "tempo": 120.0
            },
            {
                "start_time": 32.154545454545456,
                "end_time": 32.27272727272727,
                "pitch": 44,
                "velocity": 127,
                "duration": 0.11818181818181728,
                "tempo": 120.0
            },
            {
                "start_time": 32.27272727272727,
                "end_time": 32.40681818181818,
                "pitch": 44,
                "velocity": 127,
                "duration": 0.13409090909090793,
                "tempo": 120.0
            },
            {
                "start_time": 32.40681818181818,
                "end_time": 32.527272727272724,
                "pitch": 44,
                "velocity": 127,
                "duration": 0.12045454545454248,
                "tempo": 120.0
            },
            {
                "start_time": 32.527272727272724,
                "end_time": 32.64545454545454,
                "pitch": 44,
                "velocity": 127,
                "duration": 0.11818181818181728,
                "tempo": 120.0
            },
            {
                "start_time": 32.64545454545454,
                "end_time": 32.76590909090909,
                "pitch": 44,
                "velocity": 127,
                "duration": 0.12045454545454959,
                "tempo": 120.0
            },
            {
                "start_time": 32.76590909090909,
                "end_time": 32.88409090909091,
                "pitch": 44,
                "velocity": 127,
                "duration": 0.11818181818181728,
                "tempo": 120.0
            },
            {
                "start_time": 32.88409090909091,
                "end_time": 33.01590909090909,
                "pitch": 46,
                "velocity": 127,
                "duration": 0.13181818181818272,
                "tempo": 120.0
            },
            {
                "start_time": 33.01590909090909,
                "end_time": 33.13181818181818,
                "pitch": 46,
                "velocity": 127,
                "duration": 0.11590909090909207,
                "tempo": 120.0
            },
            {
                "start_time": 33.13181818181818,
                "end_time": 33.24545454545454,
                "pitch": 46,
                "velocity": 127,
                "duration": 0.11363636363635976,
                "tempo": 120.0
            },
            {
                "start_time": 33.24545454545454,
                "end_time": 33.361363636363635,
                "pitch": 46,
                "velocity": 127,
                "duration": 0.11590909090909207,
                "tempo": 120.0
            },
            {
                "start_time": 33.361363636363635,
                "end_time": 33.47727272727273,
                "pitch": 46,
                "velocity": 127,
                "duration": 0.11590909090909207,
                "tempo": 120.0
            },
            {
                "start_time": 33.47727272727273,
                "end_time": 33.61363636363636,
                "pitch": 46,
                "velocity": 127,
                "duration": 0.13636363636363313,
                "tempo": 120.0
            },
            {
                "start_time": 33.61363636363636,
                "end_time": 33.72954545454545,
                "pitch": 46,
                "velocity": 127,
                "duration": 0.11590909090909207,
                "tempo": 120.0
            },
            {
                "start_time": 33.72954545454545,
                "end_time": 33.84772727272727,
                "pitch": 46,
                "velocity": 127,
                "duration": 0.11818181818181728,
                "tempo": 120.0
            },
            {
                "start_time": 33.84772727272727,
                "end_time": 33.96363636363636,
                "pitch": 46,
                "velocity": 127,
                "duration": 0.11590909090909207,
                "tempo": 120.0
            },
            {
                "start_time": 33.96363636363636,
                "end_time": 34.08181818181818,
                "pitch": 46,
                "velocity": 127,
                "duration": 0.11818181818181728,
                "tempo": 120.0
            },
            {
                "start_time": 34.08181818181818,
                "end_time": 34.21363636363636,
                "pitch": 46,
                "velocity": 127,
                "duration": 0.13181818181818272,
                "tempo": 120.0
            },
            {
                "start_time": 34.21363636363636,
                "end_time": 34.33181818181818,
                "pitch": 46,
                "velocity": 127,
                "duration": 0.11818181818181728,
                "tempo": 120.0
            },
            {
                "start_time": 34.33181818181818,
                "end_time": 34.44772727272727,
                "pitch": 46,
                "velocity": 127,
                "duration": 0.11590909090909207,
                "tempo": 120.0
            },
            {
                "start_time": 34.44772727272727,
                "end_time": 34.56590909090909,
                "pitch": 46,
                "velocity": 127,
                "duration": 0.11818181818181728,
                "tempo": 120.0
            },
            {
                "start_time": 34.56590909090909,
                "end_time": 34.699999999999996,
                "pitch": 46,
                "velocity": 127,
                "duration": 0.13409090909090793,
                "tempo": 120.0
            },
            {
                "start_time": 34.699999999999996,
                "end_time": 34.81818181818181,
                "pitch": 46,
                "velocity": 127,
                "duration": 0.11818181818181728,
                "tempo": 120.0
            },
            {
                "start_time": 34.81818181818181,
                "end_time": 34.93863636363636,
                "pitch": 46,
                "velocity": 127,
                "duration": 0.12045454545454959,
                "tempo": 120.0
            },
            {
                "start_time": 34.93863636363636,
                "end_time": 35.05681818181818,
                "pitch": 46,
                "velocity": 127,
                "duration": 0.11818181818181728,
                "tempo": 120.0
            },
            {
                "start_time": 35.05681818181818,
                "end_time": 35.17727272727272,
                "pitch": 46,
                "velocity": 127,
                "duration": 0.12045454545454248,
                "tempo": 120.0
            },
            {
                "start_time": 35.17727272727272,
                "end_time": 35.31363636363636,
                "pitch": 46,
                "velocity": 127,
                "duration": 0.13636363636364024,
                "tempo": 120.0
            },
            {
                "start_time": 35.31363636363636,
                "end_time": 35.43181818181818,
                "pitch": 46,
                "velocity": 127,
                "duration": 0.11818181818181728,
                "tempo": 120.0
            },
            {
                "start_time": 35.43181818181818,
                "end_time": 35.54772727272727,
                "pitch": 46,
                "velocity": 127,
                "duration": 0.11590909090909207,
                "tempo": 120.0
            },
            {
                "start_time": 35.54772727272727,
                "end_time": 35.66590909090909,
                "pitch": 46,
                "velocity": 127,
                "duration": 0.11818181818181728,
                "tempo": 120.0
            },
            {
                "start_time": 35.66590909090909,
                "end_time": 35.78409090909091,
                "pitch": 46,
                "velocity": 127,
                "duration": 0.11818181818181728,
                "tempo": 120.0
            },
            {
                "start_time": 35.78409090909091,
                "end_time": 35.91590909090909,
                "pitch": 46,
                "velocity": 127,
                "duration": 0.13181818181818272,
                "tempo": 120.0
            },
            {
                "start_time": 35.91590909090909,
                "end_time": 36.029545454545456,
                "pitch": 46,
                "velocity": 127,
                "duration": 0.11363636363636687,
                "tempo": 120.0
            },
            {
                "start_time": 36.029545454545456,
                "end_time": 36.14545454545454,
                "pitch": 46,
                "velocity": 127,
                "duration": 0.11590909090908497,
                "tempo": 120.0
            },
            {
                "start_time": 36.14545454545454,
                "end_time": 36.25909090909091,
                "pitch": 46,
                "velocity": 127,
                "duration": 0.11363636363636687,
                "tempo": 120.0
            },
            {
                "start_time": 36.25909090909091,
                "end_time": 36.377272727272725,
                "pitch": 46,
                "velocity": 127,
                "duration": 0.11818181818181728,
                "tempo": 120.0
            },
            {
                "start_time": 36.377272727272725,
                "end_time": 36.50909090909091,
                "pitch": 46,
                "velocity": 127,
                "duration": 0.13181818181818272,
                "tempo": 120.0
            },
            {
                "start_time": 36.50909090909091,
                "end_time": 36.627272727272725,
                "pitch": 46,
                "velocity": 127,
                "duration": 0.11818181818181728,
                "tempo": 120.0
            },
            {
                "start_time": 36.627272727272725,
                "end_time": 36.75909090909091,
                "pitch": 46,
                "velocity": 127,
                "duration": 0.13181818181818272,
                "tempo": 120.0
            },
            {
                "start_time": 36.75909090909091,
                "end_time": 36.777272727272724,
                "pitch": 43,
                "velocity": 127,
                "duration": 0.018181818181815856,
                "tempo": 120.0
            }
        ]
    }
}