{
    "track_id": "Power Strike, Aleste (FM) - 10 - Dogodaga-Dogodege",
    "mood": "sad",
    "instruments": {
        "Synth Bass 1": [
            {
                "start_time": 0.013636363636363636,
                "end_time": 0.11818181818181818,
                "pitch": 47,
                "velocity": 51,
                "duration": 0.10454545454545454,
                "tempo": 120.0
            },
            {
                "start_time": 0.11818181818181818,
                "end_time": 0.20909090909090908,
                "pitch": 47,
                "velocity": 51,
                "duration": 0.0909090909090909,
                "tempo": 120.0
            },
            {
                "start_time": 0.20909090909090908,
                "end_time": 0.34318181818181814,
                "pitch": 51,
                "velocity": 51,
                "duration": 0.13409090909090907,
                "tempo": 120.0
            },
            {
                "start_time": 0.34318181818181814,
                "end_time": 0.47727272727272724,
                "pitch": 51,
                "velocity": 51,
                "duration": 0.1340909090909091,
                "tempo": 120.0
            },
            {
                "start_time": 0.47727272727272724,
                "end_time": 0.5931818181818181,
                "pitch": 57,
                "velocity": 51,
                "duration": 0.1159090909090909,
                "tempo": 120.0
            },
            {
                "start_time": 0.5931818181818181,
                "end_time": 0.7272727272727273,
                "pitch": 57,
                "velocity": 51,
                "duration": 0.13409090909090915,
                "tempo": 120.0
            },
            {
                "start_time": 0.7272727272727273,
                "end_time": 0.8636363636363636,
                "pitch": 62,
                "velocity": 51,
                "duration": 0.13636363636363635,
                "tempo": 120.0
            },
            {
                "start_time": 0.8636363636363636,
                "end_time": 0.984090909090909,
                "pitch": 62,
                "velocity": 51,
                "duration": 0.12045454545454537,
                "tempo": 120.0
            },
            {
                "start_time": 0.984090909090909,
                "end_time": 1.1204545454545454,
                "pitch": 47,
                "velocity": 51,
                "duration": 0.13636363636363635,
                "tempo": 120.0
            },
            {
                "start_time": 1.1204545454545454,
                "end_time": 1.2568181818181818,
                "pitch": 47,
                "velocity": 51,
                "duration": 0.13636363636363646,
                "tempo": 120.0
            },
            {
                "start_time": 1.2568181818181818,
                "end_time": 1.3727272727272726,
                "pitch": 51,
                "velocity": 51,
                "duration": 0.11590909090909074,
                "tempo": 120.0
            },
            {
                "start_time": 1.3727272727272726,
                "end_time": 1.5068181818181818,
                "pitch": 51,
                "velocity": 51,
                "duration": 0.13409090909090926,
                "tempo": 120.0
            },
            {
                "start_time": 1.5068181818181818,
                "end_time": 1.6409090909090909,
                "pitch": 57,
                "velocity": 51,
                "duration": 0.13409090909090904,
                "tempo": 120.0
            },
            {
                "start_time": 1.6409090909090909,
                "end_time": 1.759090909090909,
                "pitch": 57,
                "velocity": 51,
                "duration": 0.11818181818181817,
                "tempo": 120.0
            },
            {
                "start_time": 1.759090909090909,
                "end_time": 1.8909090909090909,
                "pitch": 62,
                "velocity": 51,
                "duration": 0.13181818181818183,
                "tempo": 120.0
            },
            {
                "start_time": 1.8909090909090909,
                "end_time": 2.0204545454545455,
                "pitch": 62,
                "velocity": 51,
                "duration": 0.12954545454545463,
                "tempo": 120.0
            },
            {
                "start_time": 2.0204545454545455,
                "end_time": 2.134090909090909,
                "pitch": 47,
                "velocity": 51,
                "duration": 0.11363636363636331,
                "tempo": 120.0
            },
            {
                "start_time": 2.134090909090909,
                "end_time": 2.2659090909090907,
                "pitch": 47,
                "velocity": 51,
                "duration": 0.13181818181818183,
                "tempo": 120.0
            },
            {
                "start_time": 2.2659090909090907,
                "end_time": 2.4022727272727273,
                "pitch": 51,
                "velocity": 51,
                "duration": 0.1363636363636367,
                "tempo": 120.0
            },
            {
                "start_time": 2.4022727272727273,
                "end_time": 2.5204545454545455,
                "pitch": 51,
                "velocity": 51,
                "duration": 0.11818181818181817,
                "tempo": 120.0
            },
            {
                "start_time": 2.5204545454545455,
                "end_time": 2.6568181818181817,
                "pitch": 57,
                "velocity": 51,
                "duration": 0.13636363636363624,
                "tempo": 120.0
            },
            {
                "start_time": 2.6568181818181817,
                "end_time": 2.793181818181818,
                "pitch": 57,
                "velocity": 51,
                "duration": 0.13636363636363624,
                "tempo": 120.0
            },
            {
                "start_time": 2.793181818181818,
                "end_time": 2.9136363636363636,
                "pitch": 62,
                "velocity": 51,
                "duration": 0.12045454545454559,
                "tempo": 120.0
            },
            {
                "start_time": 2.9136363636363636,
                "end_time": 3.05,
                "pitch": 62,
                "velocity": 51,
                "duration": 0.13636363636363624,
                "tempo": 120.0
            },
            {
                "start_time": 3.05,
                "end_time": 3.186363636363636,
                "pitch": 47,
                "velocity": 51,
                "duration": 0.13636363636363624,
                "tempo": 120.0
            },
            {
                "start_time": 3.186363636363636,
                "end_time": 3.3227272727272728,
                "pitch": 47,
                "velocity": 51,
                "duration": 0.1363636363636367,
                "tempo": 120.0
            },
            {
                "start_time": 3.3227272727272728,
                "end_time": 3.443181818181818,
                "pitch": 51,
                "velocity": 51,
                "duration": 0.12045454545454515,
                "tempo": 120.0
            },
            {
                "start_time": 3.443181818181818,
                "end_time": 3.5795454545454546,
                "pitch": 63,
                "velocity": 51,
                "duration": 0.1363636363636367,
                "tempo": 120.0
            },
            {
                "start_time": 3.5795454545454546,
                "end_time": 3.715909090909091,
                "pitch": 62,
                "velocity": 51,
                "duration": 0.13636363636363624,
                "tempo": 120.0
            },
            {
                "start_time": 3.715909090909091,
                "end_time": 3.834090909090909,
                "pitch": 61,
                "velocity": 51,
                "duration": 0.11818181818181817,
                "tempo": 120.0
            },
            {
                "start_time": 3.834090909090909,
                "end_time": 3.9636363636363634,
                "pitch": 57,
                "velocity": 51,
                "duration": 0.1295454545454544,
                "tempo": 120.0
            },
            {
                "start_time": 3.9636363636363634,
                "end_time": 4.090909090909091,
                "pitch": 54,
                "velocity": 51,
                "duration": 0.12727272727272743,
                "tempo": 120.0
            },
            {
                "start_time": 4.090909090909091,
                "end_time": 4.204545454545454,
                "pitch": 47,
                "velocity": 51,
                "duration": 0.11363636363636331,
                "tempo": 120.0
            },
            {
                "start_time": 4.204545454545454,
                "end_time": 4.331818181818182,
                "pitch": 47,
                "velocity": 51,
                "duration": 0.12727272727272787,
                "tempo": 120.0
            },
            {
                "start_time": 4.331818181818182,
                "end_time": 4.468181818181818,
                "pitch": 51,
                "velocity": 51,
                "duration": 0.1363636363636358,
                "tempo": 120.0
            },
            {
                "start_time": 4.468181818181818,
                "end_time": 4.588636363636364,
                "pitch": 51,
                "velocity": 51,
                "duration": 0.12045454545454604,
                "tempo": 120.0
            },
            {
                "start_time": 4.588636363636364,
                "end_time": 4.725,
                "pitch": 57,
                "velocity": 51,
                "duration": 0.1363636363636358,
                "tempo": 120.0
            },
            {
                "start_time": 4.725,
                "end_time": 4.861363636363636,
                "pitch": 57,
                "velocity": 51,
                "duration": 0.1363636363636367,
                "tempo": 120.0
            },
            {
                "start_time": 4.861363636363636,
                "end_time": 4.9795454545454545,
                "pitch": 62,
                "velocity": 51,
                "duration": 0.11818181818181817,
                "tempo": 120.0
            },
            {
                "start_time": 4.9795454545454545,
                "end_time": 5.11590909090909,
                "pitch": 62,
                "velocity": 51,
                "duration": 0.1363636363636358,
                "tempo": 120.0
            },
            {
                "start_time": 5.11590909090909,
                "end_time": 5.252272727272727,
                "pitch": 47,
                "velocity": 51,
                "duration": 0.1363636363636367,
                "tempo": 120.0
            },
            {
                "start_time": 5.252272727272727,
                "end_time": 5.372727272727272,
                "pitch": 47,
                "velocity": 51,
                "duration": 0.12045454545454515,
                "tempo": 120.0
            },
            {
                "start_time": 5.372727272727272,
                "end_time": 5.504545454545454,
                "pitch": 51,
                "velocity": 51,
                "duration": 0.13181818181818183,
                "tempo": 120.0
            },
            {
                "start_time": 5.504545454545454,
                "end_time": 5.634090909090909,
                "pitch": 51,
                "velocity": 51,
                "duration": 0.12954545454545485,
                "tempo": 120.0
            },
            {
                "start_time": 5.634090909090909,
                "end_time": 5.747727272727272,
                "pitch": 57,
                "velocity": 51,
                "duration": 0.11363636363636331,
                "tempo": 120.0
            },
            {
                "start_time": 5.747727272727272,
                "end_time": 5.879545454545454,
                "pitch": 57,
                "velocity": 51,
                "duration": 0.13181818181818183,
                "tempo": 120.0
            },
            {
                "start_time": 5.879545454545454,
                "end_time": 6.013636363636364,
                "pitch": 62,
                "velocity": 51,
                "duration": 0.1340909090909097,
                "tempo": 120.0
            },
            {
                "start_time": 6.013636363636364,
                "end_time": 6.131818181818182,
                "pitch": 62,
                "velocity": 51,
                "duration": 0.11818181818181817,
                "tempo": 120.0
            },
            {
                "start_time": 6.131818181818182,
                "end_time": 6.265909090909091,
                "pitch": 47,
                "velocity": 51,
                "duration": 0.13409090909090882,
                "tempo": 120.0
            },
            {
                "start_time": 6.265909090909091,
                "end_time": 6.3999999999999995,
                "pitch": 47,
                "velocity": 51,
                "duration": 0.13409090909090882,
                "tempo": 120.0
            },
            {
                "start_time": 6.3999999999999995,
                "end_time": 6.536363636363636,
                "pitch": 51,
                "velocity": 51,
                "duration": 0.1363636363636367,
                "tempo": 120.0
            },
            {
                "start_time": 6.536363636363636,
                "end_time": 6.654545454545454,
                "pitch": 51,
                "velocity": 51,
                "duration": 0.11818181818181817,
                "tempo": 120.0
            },
            {
                "start_time": 6.654545454545454,
                "end_time": 6.790909090909091,
                "pitch": 57,
                "velocity": 51,
                "duration": 0.1363636363636367,
                "tempo": 120.0
            },
            {
                "start_time": 6.790909090909091,
                "end_time": 6.927272727272727,
                "pitch": 57,
                "velocity": 51,
                "duration": 0.1363636363636358,
                "tempo": 120.0
            },
            {
                "start_time": 6.927272727272727,
                "end_time": 7.047727272727272,
                "pitch": 62,
                "velocity": 51,
                "duration": 0.12045454545454515,
                "tempo": 120.0
            },
            {
                "start_time": 7.047727272727272,
                "end_time": 7.184090909090909,
                "pitch": 62,
                "velocity": 51,
                "duration": 0.1363636363636367,
                "tempo": 120.0
            },
            {
                "start_time": 7.184090909090909,
                "end_time": 7.320454545454545,
                "pitch": 47,
                "velocity": 51,
                "duration": 0.1363636363636367,
                "tempo": 120.0
            },
            {
                "start_time": 7.320454545454545,
                "end_time": 7.4386363636363635,
                "pitch": 47,
                "velocity": 51,
                "duration": 0.11818181818181817,
                "tempo": 120.0
            },
            {
                "start_time": 7.4386363636363635,
                "end_time": 7.570454545454545,
                "pitch": 51,
                "velocity": 51,
                "duration": 0.13181818181818183,
                "tempo": 120.0
            },
            {
                "start_time": 7.570454545454545,
                "end_time": 7.699999999999999,
                "pitch": 63,
                "velocity": 51,
                "duration": 0.12954545454545396,
                "tempo": 120.0
            },
            {
                "start_time": 7.699999999999999,
                "end_time": 7.8159090909090905,
                "pitch": 62,
                "velocity": 51,
                "duration": 0.11590909090909118,
                "tempo": 120.0
            },
            {
                "start_time": 7.8159090909090905,
                "end_time": 7.945454545454545,
                "pitch": 61,
                "velocity": 51,
                "duration": 0.12954545454545485,
                "tempo": 120.0
            },
            {
                "start_time": 7.945454545454545,
                "end_time": 8.079545454545455,
                "pitch": 57,
                "velocity": 51,
                "duration": 0.1340909090909097,
                "tempo": 120.0
            },
            {
                "start_time": 8.079545454545455,
                "end_time": 8.197727272727272,
                "pitch": 54,
                "velocity": 51,
                "duration": 0.11818181818181728,
                "tempo": 120.0
            },
            {
                "start_time": 8.197727272727272,
                "end_time": 8.331818181818182,
                "pitch": 45,
                "velocity": 51,
                "duration": 0.1340909090909097,
                "tempo": 120.0
            },
            {
                "start_time": 8.331818181818182,
                "end_time": 8.46590909090909,
                "pitch": 45,
                "velocity": 51,
                "duration": 0.13409090909090793,
                "tempo": 120.0
            },
            {
                "start_time": 8.46590909090909,
                "end_time": 8.584090909090909,
                "pitch": 45,
                "velocity": 51,
                "duration": 0.11818181818181905,
                "tempo": 120.0
            },
            {
                "start_time": 8.584090909090909,
                "end_time": 8.720454545454546,
                "pitch": 49,
                "velocity": 51,
                "duration": 0.1363636363636367,
                "tempo": 120.0
            },
            {
                "start_time": 8.720454545454546,
                "end_time": 8.85681818181818,
                "pitch": 49,
                "velocity": 51,
                "duration": 0.1363636363636349,
                "tempo": 120.0
            },
            {
                "start_time": 8.85681818181818,
                "end_time": 8.977272727272727,
                "pitch": 49,
                "velocity": 51,
                "duration": 0.12045454545454604,
                "tempo": 120.0
            },
            {
                "start_time": 8.977272727272727,
                "end_time": 9.111363636363636,
                "pitch": 55,
                "velocity": 51,
                "duration": 0.1340909090909097,
                "tempo": 120.0
            },
            {
                "start_time": 9.111363636363636,
                "end_time": 9.245454545454544,
                "pitch": 55,
                "velocity": 51,
                "duration": 0.13409090909090793,
                "tempo": 120.0
            },
            {
                "start_time": 9.245454545454544,
                "end_time": 9.363636363636363,
                "pitch": 55,
                "velocity": 51,
                "duration": 0.11818181818181905,
                "tempo": 120.0
            },
            {
                "start_time": 9.363636363636363,
                "end_time": 9.497727272727273,
                "pitch": 59,
                "velocity": 51,
                "duration": 0.1340909090909097,
                "tempo": 120.0
            },
            {
                "start_time": 9.497727272727273,
                "end_time": 9.629545454545454,
                "pitch": 59,
                "velocity": 51,
                "duration": 0.13181818181818095,
                "tempo": 120.0
            },
            {
                "start_time": 9.629545454545454,
                "end_time": 9.763636363636364,
                "pitch": 59,
                "velocity": 51,
                "duration": 0.1340909090909097,
                "tempo": 120.0
            },
            {
                "start_time": 9.763636363636364,
                "end_time": 9.881818181818181,
                "pitch": 57,
                "velocity": 51,
                "duration": 0.11818181818181728,
                "tempo": 120.0
            },
            {
                "start_time": 9.881818181818181,
                "end_time": 10.01590909090909,
                "pitch": 57,
                "velocity": 51,
                "duration": 0.1340909090909097,
                "tempo": 120.0
            },
            {
                "start_time": 10.01590909090909,
                "end_time": 10.152272727272727,
                "pitch": 57,
                "velocity": 51,
                "duration": 0.1363636363636367,
                "tempo": 120.0
            },
            {
                "start_time": 10.152272727272727,
                "end_time": 10.272727272727272,
                "pitch": 61,
                "velocity": 51,
                "duration": 0.12045454545454426,
                "tempo": 120.0
            },
            {
                "start_time": 10.272727272727272,
                "end_time": 10.409090909090908,
                "pitch": 61,
                "velocity": 51,
                "duration": 0.1363636363636367,
                "tempo": 120.0
            },
            {
                "start_time": 10.409090909090908,
                "end_time": 10.545454545454545,
                "pitch": 61,
                "velocity": 51,
                "duration": 0.1363636363636367,
                "tempo": 120.0
            },
            {
                "start_time": 10.545454545454545,
                "end_time": 10.661363636363635,
                "pitch": 67,
                "velocity": 51,
                "duration": 0.1159090909090903,
                "tempo": 120.0
            },
            {
                "start_time": 10.661363636363635,
                "end_time": 10.795454545454545,
                "pitch": 67,
                "velocity": 51,
                "duration": 0.1340909090909097,
                "tempo": 120.0
            },
            {
                "start_time": 10.795454545454545,
                "end_time": 10.929545454545455,
                "pitch": 67,
                "velocity": 51,
                "duration": 0.1340909090909097,
                "tempo": 120.0
            },
            {
                "start_time": 10.929545454545455,
                "end_time": 11.047727272727272,
                "pitch": 71,
                "velocity": 51,
                "duration": 0.11818181818181728,
                "tempo": 120.0
            },
            {
                "start_time": 11.047727272727272,
                "end_time": 11.177272727272726,
                "pitch": 71,
                "velocity": 51,
                "duration": 0.12954545454545396,
                "tempo": 120.0
            },
            {
                "start_time": 11.177272727272726,
                "end_time": 11.309090909090909,
                "pitch": 71,
                "velocity": 51,
                "duration": 0.13181818181818272,
                "tempo": 120.0
            },
            {
                "start_time": 11.309090909090909,
                "end_time": 11.422727272727272,
                "pitch": 74,
                "velocity": 51,
                "duration": 0.11363636363636331,
                "tempo": 120.0
            },
            {
                "start_time": 11.422727272727272,
                "end_time": 11.554545454545455,
                "pitch": 74,
                "velocity": 51,
                "duration": 0.13181818181818272,
                "tempo": 120.0
            },
            {
                "start_time": 11.554545454545455,
                "end_time": 11.69090909090909,
                "pitch": 74,
                "velocity": 51,
                "duration": 0.1363636363636349,
                "tempo": 120.0
            },
            {
                "start_time": 11.69090909090909,
                "end_time": 11.809090909090909,
                "pitch": 81,
                "velocity": 51,
                "duration": 0.11818181818181905,
                "tempo": 120.0
            },
            {
                "start_time": 11.809090909090909,
                "end_time": 11.945454545454545,
                "pitch": 81,
                "velocity": 51,
                "duration": 0.1363636363636367,
                "tempo": 120.0
            },
            {
                "start_time": 11.945454545454545,
                "end_time": 12.081818181818182,
                "pitch": 81,
                "velocity": 51,
                "duration": 0.1363636363636367,
                "tempo": 120.0
            },
            {
                "start_time": 12.081818181818182,
                "end_time": 12.2,
                "pitch": 81,
                "velocity": 51,
                "duration": 0.11818181818181728,
                "tempo": 120.0
            },
            {
                "start_time": 12.2,
                "end_time": 15.813636363636363,
                "pitch": 81,
                "velocity": 51,
                "duration": 3.6136363636363633,
                "tempo": 120.0
            },
            {
                "start_time": 15.813636363636363,
                "end_time": 15.947727272727272,
                "pitch": 62,
                "velocity": 51,
                "duration": 0.1340909090909097,
                "tempo": 120.0
            },
            {
                "start_time": 15.947727272727272,
                "end_time": 16.081818181818182,
                "pitch": 62,
                "velocity": 51,
                "duration": 0.1340909090909097,
                "tempo": 120.0
            },
            {
                "start_time": 16.081818181818182,
                "end_time": 16.21590909090909,
                "pitch": 61,
                "velocity": 51,
                "duration": 0.13409090909090793,
                "tempo": 120.0
            },
            {
                "start_time": 16.21590909090909,
                "end_time": 16.331818181818182,
                "pitch": 57,
                "velocity": 51,
                "duration": 0.11590909090909207,
                "tempo": 120.0
            },
            {
                "start_time": 16.331818181818182,
                "end_time": 16.46590909090909,
                "pitch": 57,
                "velocity": 51,
                "duration": 0.13409090909090793,
                "tempo": 120.0
            }
        ],
        "Electric Guitar (clean)": [
            {
                "start_time": 0.013636363636363636,
                "end_time": 0.11818181818181818,
                "pitch": 35,
                "velocity": 101,
                "duration": 0.10454545454545454,
                "tempo": 120.0
            },
            {
                "start_time": 0.11818181818181818,
                "end_time": 0.20909090909090908,
                "pitch": 35,
                "velocity": 101,
                "duration": 0.0909090909090909,
                "tempo": 120.0
            },
            {
                "start_time": 0.20909090909090908,
                "end_time": 0.34318181818181814,
                "pitch": 47,
                "velocity": 101,
                "duration": 0.13409090909090907,
                "tempo": 120.0
            },
            {
                "start_time": 0.34318181818181814,
                "end_time": 0.47727272727272724,
                "pitch": 35,
                "velocity": 101,
                "duration": 0.1340909090909091,
                "tempo": 120.0
            },
            {
                "start_time": 0.47727272727272724,
                "end_time": 0.5931818181818181,
                "pitch": 35,
                "velocity": 101,
                "duration": 0.1159090909090909,
                "tempo": 120.0
            },
            {
                "start_time": 0.5931818181818181,
                "end_time": 0.7272727272727273,
                "pitch": 45,
                "velocity": 101,
                "duration": 0.13409090909090915,
                "tempo": 120.0
            },
            {
                "start_time": 0.7272727272727273,
                "end_time": 0.8636363636363636,
                "pitch": 35,
                "velocity": 101,
                "duration": 0.13636363636363635,
                "tempo": 120.0
            },
            {
                "start_time": 0.8636363636363636,
                "end_time": 0.984090909090909,
                "pitch": 35,
                "velocity": 101,
                "duration": 0.12045454545454537,
                "tempo": 120.0
            },
            {
                "start_time": 0.984090909090909,
                "end_time": 1.1204545454545454,
                "pitch": 47,
                "velocity": 101,
                "duration": 0.13636363636363635,
                "tempo": 120.0
            },
            {
                "start_time": 1.1204545454545454,
                "end_time": 1.2568181818181818,
                "pitch": 35,
                "velocity": 101,
                "duration": 0.13636363636363646,
                "tempo": 120.0
            },
            {
                "start_time": 1.2568181818181818,
                "end_time": 1.3727272727272726,
                "pitch": 35,
                "velocity": 101,
                "duration": 0.11590909090909074,
                "tempo": 120.0
            },
            {
                "start_time": 1.3727272727272726,
                "end_time": 1.5068181818181818,
                "pitch": 45,
                "velocity": 101,
                "duration": 0.13409090909090926,
                "tempo": 120.0
            },
            {
                "start_time": 1.5068181818181818,
                "end_time": 1.6409090909090909,
                "pitch": 35,
                "velocity": 101,
                "duration": 0.13409090909090904,
                "tempo": 120.0
            },
            {
                "start_time": 1.6409090909090909,
                "end_time": 1.759090909090909,
                "pitch": 35,
                "velocity": 101,
                "duration": 0.11818181818181817,
                "tempo": 120.0
            },
            {
                "start_time": 1.759090909090909,
                "end_time": 1.8909090909090909,
                "pitch": 44,
                "velocity": 101,
                "duration": 0.13181818181818183,
                "tempo": 120.0
            },
            {
                "start_time": 1.8909090909090909,
                "end_time": 2.0204545454545455,
                "pitch": 35,
                "velocity": 101,
                "duration": 0.12954545454545463,
                "tempo": 120.0
            },
            {
                "start_time": 2.0204545454545455,
                "end_time": 2.134090909090909,
                "pitch": 35,
                "velocity": 101,
                "duration": 0.11363636363636331,
                "tempo": 120.0
            },
            {
                "start_time": 2.134090909090909,
                "end_time": 2.2659090909090907,
                "pitch": 35,
                "velocity": 101,
                "duration": 0.13181818181818183,
                "tempo": 120.0
            },
            {
                "start_time": 2.2659090909090907,
                "end_time": 2.4022727272727273,
                "pitch": 47,
                "velocity": 101,
                "duration": 0.1363636363636367,
                "tempo": 120.0
            },
            {
                "start_time": 2.4022727272727273,
                "end_time": 2.5204545454545455,
                "pitch": 35,
                "velocity": 101,
                "duration": 0.11818181818181817,
                "tempo": 120.0
            },
            {
                "start_time": 2.5204545454545455,
                "end_time": 2.6568181818181817,
                "pitch": 35,
                "velocity": 101,
                "duration": 0.13636363636363624,
                "tempo": 120.0
            },
            {
                "start_time": 2.6568181818181817,
                "end_time": 2.793181818181818,
                "pitch": 45,
                "velocity": 101,
                "duration": 0.13636363636363624,
                "tempo": 120.0
            },
            {
                "start_time": 2.793181818181818,
                "end_time": 2.9136363636363636,
                "pitch": 35,
                "velocity": 101,
                "duration": 0.12045454545454559,
                "tempo": 120.0
            },
            {
                "start_time": 2.9136363636363636,
                "end_time": 3.05,
                "pitch": 35,
                "velocity": 101,
                "duration": 0.13636363636363624,
                "tempo": 120.0
            },
            {
                "start_time": 3.05,
                "end_time": 3.186363636363636,
                "pitch": 47,
                "velocity": 101,
                "duration": 0.13636363636363624,
                "tempo": 120.0
            },
            {
                "start_time": 3.186363636363636,
                "end_time": 3.3227272727272728,
                "pitch": 35,
                "velocity": 101,
                "duration": 0.1363636363636367,
                "tempo": 120.0
            },
            {
                "start_time": 3.3227272727272728,
                "end_time": 3.443181818181818,
                "pitch": 35,
                "velocity": 101,
                "duration": 0.12045454545454515,
                "tempo": 120.0
            },
            {
                "start_time": 3.443181818181818,
                "end_time": 3.5795454545454546,
                "pitch": 50,
                "velocity": 101,
                "duration": 0.1363636363636367,
                "tempo": 120.0
            },
            {
                "start_time": 3.5795454545454546,
                "end_time": 3.715909090909091,
                "pitch": 50,
                "velocity": 101,
                "duration": 0.13636363636363624,
                "tempo": 120.0
            },
            {
                "start_time": 3.715909090909091,
                "end_time": 3.834090909090909,
                "pitch": 49,
                "velocity": 101,
                "duration": 0.11818181818181817,
                "tempo": 120.0
            },
            {
                "start_time": 3.834090909090909,
                "end_time": 3.9636363636363634,
                "pitch": 45,
                "velocity": 101,
                "duration": 0.1295454545454544,
                "tempo": 120.0
            },
            {
                "start_time": 3.9636363636363634,
                "end_time": 4.090909090909091,
                "pitch": 42,
                "velocity": 101,
                "duration": 0.12727272727272743,
                "tempo": 120.0
            },
            {
                "start_time": 4.090909090909091,
                "end_time": 4.204545454545454,
                "pitch": 35,
                "velocity": 101,
                "duration": 0.11363636363636331,
                "tempo": 120.0
            },
            {
                "start_time": 4.204545454545454,
                "end_time": 4.331818181818182,
                "pitch": 35,
                "velocity": 101,
                "duration": 0.12727272727272787,
                "tempo": 120.0
            },
            {
                "start_time": 4.331818181818182,
                "end_time": 4.468181818181818,
                "pitch": 47,
                "velocity": 101,
                "duration": 0.1363636363636358,
                "tempo": 120.0
            },
            {
                "start_time": 4.468181818181818,
                "end_time": 4.588636363636364,
                "pitch": 35,
                "velocity": 101,
                "duration": 0.12045454545454604,
                "tempo": 120.0
            },
            {
                "start_time": 4.588636363636364,
                "end_time": 4.725,
                "pitch": 35,
                "velocity": 101,
                "duration": 0.1363636363636358,
                "tempo": 120.0
            },
            {
                "start_time": 4.725,
                "end_time": 4.861363636363636,
                "pitch": 45,
                "velocity": 101,
                "duration": 0.1363636363636367,
                "tempo": 120.0
            },
            {
                "start_time": 4.861363636363636,
                "end_time": 4.9795454545454545,
                "pitch": 35,
                "velocity": 101,
                "duration": 0.11818181818181817,
                "tempo": 120.0
            },
            {
                "start_time": 4.9795454545454545,
                "end_time": 5.11590909090909,
                "pitch": 35,
                "velocity": 101,
                "duration": 0.1363636363636358,
                "tempo": 120.0
            },
            {
                "start_time": 5.11590909090909,
                "end_time": 5.252272727272727,
                "pitch": 47,
                "velocity": 101,
                "duration": 0.1363636363636367,
                "tempo": 120.0
            },
            {
                "start_time": 5.252272727272727,
                "end_time": 5.372727272727272,
                "pitch": 35,
                "velocity": 101,
                "duration": 0.12045454545454515,
                "tempo": 120.0
            },
            {
                "start_time": 5.372727272727272,
                "end_time": 5.504545454545454,
                "pitch": 35,
                "velocity": 101,
                "duration": 0.13181818181818183,
                "tempo": 120.0
            },
            {
                "start_time": 5.504545454545454,
                "end_time": 5.634090909090909,
                "pitch": 45,
                "velocity": 101,
                "duration": 0.12954545454545485,
                "tempo": 120.0
            },
            {
                "start_time": 5.634090909090909,
                "end_time": 5.747727272727272,
                "pitch": 35,
                "velocity": 101,
                "duration": 0.11363636363636331,
                "tempo": 120.0
            },
            {
                "start_time": 5.747727272727272,
                "end_time": 5.879545454545454,
                "pitch": 35,
                "velocity": 101,
                "duration": 0.13181818181818183,
                "tempo": 120.0
            },
            {
                "start_time": 5.879545454545454,
                "end_time": 6.013636363636364,
                "pitch": 44,
                "velocity": 101,
                "duration": 0.1340909090909097,
                "tempo": 120.0
            },
            {
                "start_time": 6.013636363636364,
                "end_time": 6.131818181818182,
                "pitch": 35,
                "velocity": 101,
                "duration": 0.11818181818181817,
                "tempo": 120.0
            },
            {
                "start_time": 6.131818181818182,
                "end_time": 6.265909090909091,
                "pitch": 35,
                "velocity": 101,
                "duration": 0.13409090909090882,
                "tempo": 120.0
            },
            {
                "start_time": 6.265909090909091,
                "end_time": 6.3999999999999995,
                "pitch": 35,
                "velocity": 101,
                "duration": 0.13409090909090882,
                "tempo": 120.0
            },
            {
                "start_time": 6.3999999999999995,
                "end_time": 6.536363636363636,
                "pitch": 47,
                "velocity": 101,
                "duration": 0.1363636363636367,
                "tempo": 120.0
            },
            {
                "start_time": 6.536363636363636,
                "end_time": 6.654545454545454,
                "pitch": 35,
                "velocity": 101,
                "duration": 0.11818181818181817,
                "tempo": 120.0
            },
            {
                "start_time": 6.654545454545454,
                "end_time": 6.790909090909091,
                "pitch": 35,
                "velocity": 101,
                "duration": 0.1363636363636367,
                "tempo": 120.0
            },
            {
                "start_time": 6.790909090909091,
                "end_time": 6.927272727272727,
                "pitch": 45,
                "velocity": 101,
                "duration": 0.1363636363636358,
                "tempo": 120.0
            },
            {
                "start_time": 6.927272727272727,
                "end_time": 7.047727272727272,
                "pitch": 35,
                "velocity": 101,
                "duration": 0.12045454545454515,
                "tempo": 120.0
            },
            {
                "start_time": 7.047727272727272,
                "end_time": 7.184090909090909,
                "pitch": 35,
                "velocity": 101,
                "duration": 0.1363636363636367,
                "tempo": 120.0
            },
            {
                "start_time": 7.184090909090909,
                "end_time": 7.320454545454545,
                "pitch": 47,
                "velocity": 101,
                "duration": 0.1363636363636367,
                "tempo": 120.0
            },
            {
                "start_time": 7.320454545454545,
                "end_time": 7.4386363636363635,
                "pitch": 35,
                "velocity": 101,
                "duration": 0.11818181818181817,
                "tempo": 120.0
            },
            {
                "start_time": 7.4386363636363635,
                "end_time": 7.570454545454545,
                "pitch": 35,
                "velocity": 101,
                "duration": 0.13181818181818183,
                "tempo": 120.0
            },
            {
                "start_time": 7.570454545454545,
                "end_time": 7.699999999999999,
                "pitch": 50,
                "velocity": 101,
                "duration": 0.12954545454545396,
                "tempo": 120.0
            },
            {
                "start_time": 7.699999999999999,
                "end_time": 7.8159090909090905,
                "pitch": 50,
                "velocity": 101,
                "duration": 0.11590909090909118,
                "tempo": 120.0
            },
            {
                "start_time": 7.8159090909090905,
                "end_time": 7.945454545454545,
                "pitch": 49,
                "velocity": 101,
                "duration": 0.12954545454545485,
                "tempo": 120.0
            },
            {
                "start_time": 7.945454545454545,
                "end_time": 8.079545454545455,
                "pitch": 45,
                "velocity": 101,
                "duration": 0.1340909090909097,
                "tempo": 120.0
            },
            {
                "start_time": 8.079545454545455,
                "end_time": 8.197727272727272,
                "pitch": 42,
                "velocity": 101,
                "duration": 0.11818181818181728,
                "tempo": 120.0
            },
            {
                "start_time": 8.197727272727272,
                "end_time": 8.331818181818182,
                "pitch": 33,
                "velocity": 101,
                "duration": 0.1340909090909097,
                "tempo": 120.0
            },
            {
                "start_time": 8.331818181818182,
                "end_time": 8.46590909090909,
                "pitch": 33,
                "velocity": 101,
                "duration": 0.13409090909090793,
                "tempo": 120.0
            },
            {
                "start_time": 8.46590909090909,
                "end_time": 8.584090909090909,
                "pitch": 45,
                "velocity": 101,
                "duration": 0.11818181818181905,
                "tempo": 120.0
            },
            {
                "start_time": 8.584090909090909,
                "end_time": 8.720454545454546,
                "pitch": 33,
                "velocity": 101,
                "duration": 0.1363636363636367,
                "tempo": 120.0
            },
            {
                "start_time": 8.720454545454546,
                "end_time": 8.85681818181818,
                "pitch": 33,
                "velocity": 101,
                "duration": 0.1363636363636349,
                "tempo": 120.0
            },
            {
                "start_time": 8.85681818181818,
                "end_time": 8.977272727272727,
                "pitch": 45,
                "velocity": 101,
                "duration": 0.12045454545454604,
                "tempo": 120.0
            },
            {
                "start_time": 8.977272727272727,
                "end_time": 9.111363636363636,
                "pitch": 31,
                "velocity": 101,
                "duration": 0.1340909090909097,
                "tempo": 120.0
            },
            {
                "start_time": 9.111363636363636,
                "end_time": 9.245454545454544,
                "pitch": 33,
                "velocity": 101,
                "duration": 0.13409090909090793,
                "tempo": 120.0
            },
            {
                "start_time": 9.245454545454544,
                "end_time": 9.363636363636363,
                "pitch": 45,
                "velocity": 101,
                "duration": 0.11818181818181905,
                "tempo": 120.0
            },
            {
                "start_time": 9.363636363636363,
                "end_time": 9.497727272727273,
                "pitch": 33,
                "velocity": 101,
                "duration": 0.1340909090909097,
                "tempo": 120.0
            },
            {
                "start_time": 9.497727272727273,
                "end_time": 9.629545454545454,
                "pitch": 33,
                "velocity": 101,
                "duration": 0.13181818181818095,
                "tempo": 120.0
            },
            {
                "start_time": 9.629545454545454,
                "end_time": 9.763636363636364,
                "pitch": 45,
                "velocity": 101,
                "duration": 0.1340909090909097,
                "tempo": 120.0
            },
            {
                "start_time": 9.763636363636364,
                "end_time": 9.881818181818181,
                "pitch": 31,
                "velocity": 101,
                "duration": 0.11818181818181728,
                "tempo": 120.0
            },
            {
                "start_time": 9.881818181818181,
                "end_time": 10.01590909090909,
                "pitch": 33,
                "velocity": 101,
                "duration": 0.1340909090909097,
                "tempo": 120.0
            },
            {
                "start_time": 10.01590909090909,
                "end_time": 10.152272727272727,
                "pitch": 42,
                "velocity": 101,
                "duration": 0.1363636363636367,
                "tempo": 120.0
            },
            {
                "start_time": 10.152272727272727,
                "end_time": 10.272727272727272,
                "pitch": 33,
                "velocity": 101,
                "duration": 0.12045454545454426,
                "tempo": 120.0
            },
            {
                "start_time": 10.272727272727272,
                "end_time": 10.409090909090908,
                "pitch": 33,
                "velocity": 101,
                "duration": 0.1363636363636367,
                "tempo": 120.0
            },
            {
                "start_time": 10.409090909090908,
                "end_time": 10.545454545454545,
                "pitch": 33,
                "velocity": 101,
                "duration": 0.1363636363636367,
                "tempo": 120.0
            },
            {
                "start_time": 10.545454545454545,
                "end_time": 10.661363636363635,
                "pitch": 45,
                "velocity": 101,
                "duration": 0.1159090909090903,
                "tempo": 120.0
            },
            {
                "start_time": 10.661363636363635,
                "end_time": 10.795454545454545,
                "pitch": 33,
                "velocity": 101,
                "duration": 0.1340909090909097,
                "tempo": 120.0
            },
            {
                "start_time": 10.795454545454545,
                "end_time": 10.929545454545455,
                "pitch": 33,
                "velocity": 101,
                "duration": 0.1340909090909097,
                "tempo": 120.0
            },
            {
                "start_time": 10.929545454545455,
                "end_time": 11.047727272727272,
                "pitch": 45,
                "velocity": 101,
                "duration": 0.11818181818181728,
                "tempo": 120.0
            },
            {
                "start_time": 11.047727272727272,
                "end_time": 11.177272727272726,
                "pitch": 31,
                "velocity": 101,
                "duration": 0.12954545454545396,
                "tempo": 120.0
            },
            {
                "start_time": 11.177272727272726,
                "end_time": 11.309090909090909,
                "pitch": 33,
                "velocity": 101,
                "duration": 0.13181818181818272,
                "tempo": 120.0
            },
            {
                "start_time": 11.309090909090909,
                "end_time": 11.422727272727272,
                "pitch": 45,
                "velocity": 101,
                "duration": 0.11363636363636331,
                "tempo": 120.0
            },
            {
                "start_time": 11.422727272727272,
                "end_time": 11.554545454545455,
                "pitch": 33,
                "velocity": 101,
                "duration": 0.13181818181818272,
                "tempo": 120.0
            },
            {
                "start_time": 11.554545454545455,
                "end_time": 11.69090909090909,
                "pitch": 33,
                "velocity": 101,
                "duration": 0.1363636363636349,
                "tempo": 120.0
            },
            {
                "start_time": 11.69090909090909,
                "end_time": 11.809090909090909,
                "pitch": 48,
                "velocity": 101,
                "duration": 0.11818181818181905,
                "tempo": 120.0
            },
            {
                "start_time": 11.809090909090909,
                "end_time": 11.945454545454545,
                "pitch": 48,
                "velocity": 101,
                "duration": 0.1363636363636367,
                "tempo": 120.0
            },
            {
                "start_time": 11.945454545454545,
                "end_time": 12.081818181818182,
                "pitch": 45,
                "velocity": 101,
                "duration": 0.1363636363636367,
                "tempo": 120.0
            },
            {
                "start_time": 12.081818181818182,
                "end_time": 12.2,
                "pitch": 45,
                "velocity": 101,
                "duration": 0.11818181818181728,
                "tempo": 120.0
            },
            {
                "start_time": 12.2,
                "end_time": 12.334090909090909,
                "pitch": 40,
                "velocity": 101,
                "duration": 0.1340909090909097,
                "tempo": 120.0
            },
            {
                "start_time": 12.334090909090909,
                "end_time": 12.468181818181817,
                "pitch": 35,
                "velocity": 101,
                "duration": 0.13409090909090793,
                "tempo": 120.0
            },
            {
                "start_time": 12.468181818181817,
                "end_time": 12.584090909090909,
                "pitch": 35,
                "velocity": 101,
                "duration": 0.11590909090909207,
                "tempo": 120.0
            },
            {
                "start_time": 12.584090909090909,
                "end_time": 12.71590909090909,
                "pitch": 47,
                "velocity": 101,
                "duration": 0.13181818181818095,
                "tempo": 120.0
            },
            {
                "start_time": 12.71590909090909,
                "end_time": 12.845454545454546,
                "pitch": 35,
                "velocity": 101,
                "duration": 0.12954545454545574,
                "tempo": 120.0
            },
            {
                "start_time": 12.845454545454546,
                "end_time": 12.977272727272727,
                "pitch": 35,
                "velocity": 101,
                "duration": 0.13181818181818095,
                "tempo": 120.0
            },
            {
                "start_time": 12.977272727272727,
                "end_time": 13.09090909090909,
                "pitch": 45,
                "velocity": 101,
                "duration": 0.11363636363636331,
                "tempo": 120.0
            },
            {
                "start_time": 13.09090909090909,
                "end_time": 13.229545454545454,
                "pitch": 35,
                "velocity": 101,
                "duration": 0.13863636363636367,
                "tempo": 120.0
            },
            {
                "start_time": 13.229545454545454,
                "end_time": 13.368181818181817,
                "pitch": 35,
                "velocity": 101,
                "duration": 0.13863636363636367,
                "tempo": 120.0
            },
            {
                "start_time": 13.368181818181817,
                "end_time": 13.49090909090909,
                "pitch": 47,
                "velocity": 101,
                "duration": 0.12272727272727302,
                "tempo": 120.0
            },
            {
                "start_time": 13.49090909090909,
                "end_time": 13.629545454545454,
                "pitch": 35,
                "velocity": 101,
                "duration": 0.13863636363636367,
                "tempo": 120.0
            },
            {
                "start_time": 13.629545454545454,
                "end_time": 13.763636363636364,
                "pitch": 35,
                "velocity": 101,
                "duration": 0.1340909090909097,
                "tempo": 120.0
            },
            {
                "start_time": 13.763636363636364,
                "end_time": 13.879545454545454,
                "pitch": 45,
                "velocity": 101,
                "duration": 0.1159090909090903,
                "tempo": 120.0
            },
            {
                "start_time": 13.879545454545454,
                "end_time": 14.013636363636364,
                "pitch": 35,
                "velocity": 101,
                "duration": 0.1340909090909097,
                "tempo": 120.0
            },
            {
                "start_time": 14.013636363636364,
                "end_time": 14.147727272727272,
                "pitch": 35,
                "velocity": 101,
                "duration": 0.13409090909090793,
                "tempo": 120.0
            },
            {
                "start_time": 14.147727272727272,
                "end_time": 14.26590909090909,
                "pitch": 44,
                "velocity": 101,
                "duration": 0.11818181818181905,
                "tempo": 120.0
            },
            {
                "start_time": 14.26590909090909,
                "end_time": 14.399999999999999,
                "pitch": 35,
                "velocity": 101,
                "duration": 0.13409090909090793,
                "tempo": 120.0
            },
            {
                "start_time": 14.399999999999999,
                "end_time": 14.534090909090908,
                "pitch": 35,
                "velocity": 101,
                "duration": 0.1340909090909097,
                "tempo": 120.0
            },
            {
                "start_time": 14.534090909090908,
                "end_time": 14.652272727272727,
                "pitch": 35,
                "velocity": 101,
                "duration": 0.11818181818181905,
                "tempo": 120.0
            },
            {
                "start_time": 14.652272727272727,
                "end_time": 14.781818181818181,
                "pitch": 47,
                "velocity": 101,
                "duration": 0.12954545454545396,
                "tempo": 120.0
            },
            {
                "start_time": 14.781818181818181,
                "end_time": 14.913636363636362,
                "pitch": 35,
                "velocity": 101,
                "duration": 0.13181818181818095,
                "tempo": 120.0
            },
            {
                "start_time": 14.913636363636362,
                "end_time": 15.027272727272727,
                "pitch": 35,
                "velocity": 101,
                "duration": 0.11363636363636509,
                "tempo": 120.0
            },
            {
                "start_time": 15.027272727272727,
                "end_time": 15.156818181818181,
                "pitch": 45,
                "velocity": 101,
                "duration": 0.12954545454545396,
                "tempo": 120.0
            },
            {
                "start_time": 15.156818181818181,
                "end_time": 15.295454545454545,
                "pitch": 35,
                "velocity": 101,
                "duration": 0.13863636363636367,
                "tempo": 120.0
            },
            {
                "start_time": 15.295454545454545,
                "end_time": 15.418181818181818,
                "pitch": 35,
                "velocity": 101,
                "duration": 0.12272727272727302,
                "tempo": 120.0
            },
            {
                "start_time": 15.418181818181818,
                "end_time": 15.556818181818182,
                "pitch": 47,
                "velocity": 101,
                "duration": 0.13863636363636367,
                "tempo": 120.0
            },
            {
                "start_time": 15.556818181818182,
                "end_time": 15.695454545454545,
                "pitch": 35,
                "velocity": 101,
                "duration": 0.13863636363636367,
                "tempo": 120.0
            },
            {
                "start_time": 15.695454545454545,
                "end_time": 15.813636363636363,
                "pitch": 35,
                "velocity": 101,
                "duration": 0.11818181818181728,
                "tempo": 120.0
            },
            {
                "start_time": 15.813636363636363,
                "end_time": 15.947727272727272,
                "pitch": 50,
                "velocity": 101,
                "duration": 0.1340909090909097,
                "tempo": 120.0
            },
            {
                "start_time": 15.947727272727272,
                "end_time": 16.081818181818182,
                "pitch": 50,
                "velocity": 101,
                "duration": 0.1340909090909097,
                "tempo": 120.0
            },
            {
                "start_time": 16.081818181818182,
                "end_time": 16.21590909090909,
                "pitch": 49,
                "velocity": 101,
                "duration": 0.13409090909090793,
                "tempo": 120.0
            },
            {
                "start_time": 16.21590909090909,
                "end_time": 16.331818181818182,
                "pitch": 45,
                "velocity": 101,
                "duration": 0.11590909090909207,
                "tempo": 120.0
            },
            {
                "start_time": 16.331818181818182,
                "end_time": 16.46590909090909,
                "pitch": 42,
                "velocity": 101,
                "duration": 0.13409090909090793,
                "tempo": 120.0
            }
        ]
    }
}