{
    "track_id": "Rambo III (FM) - 08 - Ending",
    "mood": "sad",
    "instruments": {
        "French Horn": [
            {
                "start_time": 0.0022727272727272726,
                "end_time": 0.7113636363636363,
                "pitch": 58,
                "velocity": 80,
                "duration": 0.709090909090909,
                "tempo": 120.0
            },
            {
                "start_time": 0.7272727272727273,
                "end_time": 1.968181818181818,
                "pitch": 60,
                "velocity": 80,
                "duration": 1.2409090909090907,
                "tempo": 120.0
            },
            {
                "start_time": 1.9863636363636363,
                "end_time": 2.3045454545454542,
                "pitch": 58,
                "velocity": 80,
                "duration": 0.3181818181818179,
                "tempo": 120.0
            },
            {
                "start_time": 2.3204545454545453,
                "end_time": 2.7318181818181815,
                "pitch": 60,
                "velocity": 80,
                "duration": 0.41136363636363615,
                "tempo": 120.0
            },
            {
                "start_time": 2.7477272727272726,
                "end_time": 3.234090909090909,
                "pitch": 63,
                "velocity": 80,
                "duration": 0.48636363636363633,
                "tempo": 120.0
            },
            {
                "start_time": 3.25,
                "end_time": 3.745454545454545,
                "pitch": 61,
                "velocity": 80,
                "duration": 0.49545454545454515,
                "tempo": 120.0
            },
            {
                "start_time": 3.7613636363636362,
                "end_time": 3.9977272727272726,
                "pitch": 60,
                "velocity": 80,
                "duration": 0.23636363636363633,
                "tempo": 120.0
            },
            {
                "start_time": 4.013636363636364,
                "end_time": 4.759090909090909,
                "pitch": 58,
                "velocity": 80,
                "duration": 0.7454545454545451,
                "tempo": 120.0
            },
            {
                "start_time": 4.777272727272727,
                "end_time": 6.0249999999999995,
                "pitch": 60,
                "velocity": 80,
                "duration": 1.2477272727272721,
                "tempo": 120.0
            },
            {
                "start_time": 6.040909090909091,
                "end_time": 6.3590909090909085,
                "pitch": 58,
                "velocity": 80,
                "duration": 0.31818181818181746,
                "tempo": 120.0
            },
            {
                "start_time": 6.377272727272727,
                "end_time": 6.872727272727272,
                "pitch": 60,
                "velocity": 80,
                "duration": 0.49545454545454515,
                "tempo": 120.0
            },
            {
                "start_time": 6.888636363636364,
                "end_time": 7.375,
                "pitch": 63,
                "velocity": 80,
                "duration": 0.48636363636363633,
                "tempo": 120.0
            },
            {
                "start_time": 7.390909090909091,
                "end_time": 7.886363636363636,
                "pitch": 61,
                "velocity": 80,
                "duration": 0.49545454545454515,
                "tempo": 120.0
            },
            {
                "start_time": 7.9022727272727264,
                "end_time": 8.052272727272728,
                "pitch": 60,
                "velocity": 80,
                "duration": 0.15000000000000124,
                "tempo": 120.0
            },
            {
                "start_time": 8.070454545454545,
                "end_time": 8.815909090909091,
                "pitch": 58,
                "velocity": 80,
                "duration": 0.745454545454546,
                "tempo": 120.0
            },
            {
                "start_time": 8.834090909090909,
                "end_time": 9.575,
                "pitch": 56,
                "velocity": 80,
                "duration": 0.7409090909090903,
                "tempo": 120.0
            },
            {
                "start_time": 9.59090909090909,
                "end_time": 10.081818181818182,
                "pitch": 55,
                "velocity": 80,
                "duration": 0.49090909090909207,
                "tempo": 120.0
            },
            {
                "start_time": 10.097727272727273,
                "end_time": 12.10909090909091,
                "pitch": 55,
                "velocity": 80,
                "duration": 2.0113636363636367,
                "tempo": 120.0
            },
            {
                "start_time": 12.127272727272727,
                "end_time": 12.872727272727271,
                "pitch": 58,
                "velocity": 80,
                "duration": 0.7454545454545443,
                "tempo": 120.0
            },
            {
                "start_time": 12.888636363636364,
                "end_time": 14.138636363636364,
                "pitch": 60,
                "velocity": 80,
                "duration": 1.25,
                "tempo": 120.0
            },
            {
                "start_time": 14.154545454545454,
                "end_time": 14.472727272727273,
                "pitch": 58,
                "velocity": 80,
                "duration": 0.31818181818181834,
                "tempo": 120.0
            },
            {
                "start_time": 14.49090909090909,
                "end_time": 14.984090909090908,
                "pitch": 60,
                "velocity": 80,
                "duration": 0.4931818181818173,
                "tempo": 120.0
            },
            {
                "start_time": 15.002272727272727,
                "end_time": 15.404545454545454,
                "pitch": 63,
                "velocity": 80,
                "duration": 0.40227272727272734,
                "tempo": 120.0
            },
            {
                "start_time": 15.420454545454545,
                "end_time": 16.0,
                "pitch": 61,
                "velocity": 80,
                "duration": 0.579545454545455,
                "tempo": 120.0
            },
            {
                "start_time": 16.01590909090909,
                "end_time": 16.16590909090909,
                "pitch": 60,
                "velocity": 80,
                "duration": 0.14999999999999858,
                "tempo": 120.0
            },
            {
                "start_time": 16.18409090909091,
                "end_time": 16.929545454545455,
                "pitch": 58,
                "velocity": 80,
                "duration": 0.745454545454546,
                "tempo": 120.0
            },
            {
                "start_time": 16.945454545454545,
                "end_time": 18.195454545454545,
                "pitch": 60,
                "velocity": 80,
                "duration": 1.25,
                "tempo": 120.0
            },
            {
                "start_time": 18.211363636363636,
                "end_time": 18.529545454545453,
                "pitch": 58,
                "velocity": 80,
                "duration": 0.31818181818181657,
                "tempo": 120.0
            },
            {
                "start_time": 18.545454545454543,
                "end_time": 19.04090909090909,
                "pitch": 60,
                "velocity": 80,
                "duration": 0.49545454545454604,
                "tempo": 120.0
            },
            {
                "start_time": 19.05909090909091,
                "end_time": 19.543181818181818,
                "pitch": 63,
                "velocity": 80,
                "duration": 0.48409090909090935,
                "tempo": 120.0
            },
            {
                "start_time": 19.561363636363634,
                "end_time": 20.05681818181818,
                "pitch": 61,
                "velocity": 80,
                "duration": 0.49545454545454604,
                "tempo": 120.0
            },
            {
                "start_time": 20.07272727272727,
                "end_time": 20.222727272727273,
                "pitch": 60,
                "velocity": 80,
                "duration": 0.15000000000000213,
                "tempo": 120.0
            },
            {
                "start_time": 20.24090909090909,
                "end_time": 20.729545454545452,
                "pitch": 58,
                "velocity": 80,
                "duration": 0.4886363636363633,
                "tempo": 120.0
            },
            {
                "start_time": 20.74772727272727,
                "end_time": 20.986363636363635,
                "pitch": 56,
                "velocity": 80,
                "duration": 0.2386363636363633,
                "tempo": 120.0
            },
            {
                "start_time": 21.002272727272725,
                "end_time": 21.488636363636363,
                "pitch": 55,
                "velocity": 80,
                "duration": 0.4863636363636381,
                "tempo": 120.0
            },
            {
                "start_time": 21.504545454545454,
                "end_time": 22.0,
                "pitch": 56,
                "velocity": 80,
                "duration": 0.49545454545454604,
                "tempo": 120.0
            },
            {
                "start_time": 22.01590909090909,
                "end_time": 22.252272727272725,
                "pitch": 58,
                "velocity": 80,
                "duration": 0.23636363636363455,
                "tempo": 120.0
            },
            {
                "start_time": 22.268181818181816,
                "end_time": 23.77272727272727,
                "pitch": 60,
                "velocity": 80,
                "duration": 1.504545454545454,
                "tempo": 120.0
            },
            {
                "start_time": 23.788636363636364,
                "end_time": 24.279545454545453,
                "pitch": 55,
                "velocity": 80,
                "duration": 0.4909090909090885,
                "tempo": 120.0
            },
            {
                "start_time": 24.295454545454543,
                "end_time": 25.209090909090907,
                "pitch": 58,
                "velocity": 80,
                "duration": 0.913636363636364,
                "tempo": 120.0
            },
            {
                "start_time": 25.227272727272727,
                "end_time": 26.30909090909091,
                "pitch": 56,
                "velocity": 80,
                "duration": 1.081818181818182,
                "tempo": 120.0
            },
            {
                "start_time": 26.325,
                "end_time": 27.32272727272727,
                "pitch": 55,
                "velocity": 80,
                "duration": 0.9977272727272712,
                "tempo": 120.0
            },
            {
                "start_time": 27.33863636363636,
                "end_time": 27.829545454545453,
                "pitch": 56,
                "velocity": 80,
                "duration": 0.49090909090909207,
                "tempo": 120.0
            },
            {
                "start_time": 27.845454545454544,
                "end_time": 27.879545454545454,
                "pitch": 58,
                "velocity": 80,
                "duration": 0.03409090909091006,
                "tempo": 120.0
            },
            {
                "start_time": 27.89772727272727,
                "end_time": 28.336363636363636,
                "pitch": 60,
                "velocity": 80,
                "duration": 0.43863636363636616,
                "tempo": 120.0
            },
            {
                "start_time": 28.352272727272727,
                "end_time": 29.85681818181818,
                "pitch": 60,
                "velocity": 80,
                "duration": 1.504545454545454,
                "tempo": 120.0
            },
            {
                "start_time": 29.875,
                "end_time": 30.113636363636363,
                "pitch": 58,
                "velocity": 80,
                "duration": 0.2386363636363633,
                "tempo": 120.0
            },
            {
                "start_time": 30.129545454545454,
                "end_time": 30.870454545454542,
                "pitch": 60,
                "velocity": 80,
                "duration": 0.7409090909090885,
                "tempo": 120.0
            },
            {
                "start_time": 30.888636363636362,
                "end_time": 31.211363636363636,
                "pitch": 63,
                "velocity": 80,
                "duration": 0.3227272727272741,
                "tempo": 120.0
            },
            {
                "start_time": 31.227272727272727,
                "end_time": 31.886363636363633,
                "pitch": 60,
                "velocity": 80,
                "duration": 0.6590909090909065,
                "tempo": 120.0
            },
            {
                "start_time": 31.902272727272727,
                "end_time": 32.393181818181816,
                "pitch": 58,
                "velocity": 80,
                "duration": 0.4909090909090885,
                "tempo": 120.0
            },
            {
                "start_time": 32.40909090909091,
                "end_time": 33.23863636363636,
                "pitch": 60,
                "velocity": 80,
                "duration": 0.8295454545454533,
                "tempo": 120.0
            },
            {
                "start_time": 33.25681818181818,
                "end_time": 35.184090909090905,
                "pitch": 58,
                "velocity": 80,
                "duration": 1.9272727272727224,
                "tempo": 120.0
            },
            {
                "start_time": 35.199999999999996,
                "end_time": 35.43636363636364,
                "pitch": 58,
                "velocity": 80,
                "duration": 0.23636363636364166,
                "tempo": 120.0
            },
            {
                "start_time": 35.45227272727273,
                "end_time": 35.94090909090909,
                "pitch": 60,
                "velocity": 80,
                "duration": 0.48863636363635976,
                "tempo": 120.0
            },
            {
                "start_time": 35.95909090909091,
                "end_time": 36.449999999999996,
                "pitch": 63,
                "velocity": 80,
                "duration": 0.49090909090908497,
                "tempo": 120.0
            },
            {
                "start_time": 36.465909090909086,
                "end_time": 37.211363636363636,
                "pitch": 61,
                "velocity": 80,
                "duration": 0.7454545454545496,
                "tempo": 120.0
            },
            {
                "start_time": 37.22954545454545,
                "end_time": 37.970454545454544,
                "pitch": 60,
                "velocity": 80,
                "duration": 0.7409090909090921,
                "tempo": 120.0
            },
            {
                "start_time": 37.986363636363635,
                "end_time": 38.81363636363636,
                "pitch": 56,
                "velocity": 80,
                "duration": 0.827272727272728,
                "tempo": 120.0
            },
            {
                "start_time": 38.82954545454545,
                "end_time": 39.574999999999996,
                "pitch": 58,
                "velocity": 80,
                "duration": 0.7454545454545425,
                "tempo": 120.0
            },
            {
                "start_time": 39.59318181818182,
                "end_time": 40.084090909090904,
                "pitch": 60,
                "velocity": 80,
                "duration": 0.49090909090908497,
                "tempo": 120.0
            },
            {
                "start_time": 40.10227272727273,
                "end_time": 40.50681818181818,
                "pitch": 56,
                "velocity": 80,
                "duration": 0.4045454545454561,
                "tempo": 120.0
            },
            {
                "start_time": 40.52272727272727,
                "end_time": 42.027272727272724,
                "pitch": 58,
                "velocity": 80,
                "duration": 1.5045454545454504,
                "tempo": 120.0
            },
            {
                "start_time": 42.043181818181814,
                "end_time": 42.53409090909091,
                "pitch": 61,
                "velocity": 80,
                "duration": 0.49090909090909207,
                "tempo": 120.0
            },
            {
                "start_time": 42.55227272727272,
                "end_time": 43.29772727272727,
                "pitch": 60,
                "velocity": 80,
                "duration": 0.7454545454545496,
                "tempo": 120.0
            },
            {
                "start_time": 43.31363636363636,
                "end_time": 44.054545454545455,
                "pitch": 58,
                "velocity": 80,
                "duration": 0.7409090909090921,
                "tempo": 120.0
            },
            {
                "start_time": 44.07272727272727,
                "end_time": 44.56363636363636,
                "pitch": 56,
                "velocity": 80,
                "duration": 0.49090909090909207,
                "tempo": 120.0
            },
            {
                "start_time": 44.57954545454545,
                "end_time": 46.590909090909086,
                "pitch": 56,
                "velocity": 80,
                "duration": 2.011363636363633,
                "tempo": 120.0
            },
            {
                "start_time": 46.60681818181818,
                "end_time": 47.60454545454545,
                "pitch": 60,
                "velocity": 80,
                "duration": 0.9977272727272748,
                "tempo": 120.0
            },
            {
                "start_time": 47.62272727272727,
                "end_time": 48.61590909090909,
                "pitch": 58,
                "velocity": 80,
                "duration": 0.9931818181818244,
                "tempo": 120.0
            }
        ],
        "Acoustic Bass": [
            {
                "start_time": 0.0022727272727272726,
                "end_time": 0.46818181818181814,
                "pitch": 37,
                "velocity": 51,
                "duration": 0.4659090909090909,
                "tempo": 120.0
            },
            {
                "start_time": 0.48409090909090907,
                "end_time": 0.9545454545454545,
                "pitch": 37,
                "velocity": 51,
                "duration": 0.4704545454545454,
                "tempo": 120.0
            },
            {
                "start_time": 0.9704545454545455,
                "end_time": 1.4613636363636362,
                "pitch": 37,
                "velocity": 51,
                "duration": 0.49090909090909074,
                "tempo": 120.0
            },
            {
                "start_time": 1.4772727272727273,
                "end_time": 1.968181818181818,
                "pitch": 37,
                "velocity": 51,
                "duration": 0.49090909090909074,
                "tempo": 120.0
            },
            {
                "start_time": 1.9863636363636363,
                "end_time": 2.475,
                "pitch": 37,
                "velocity": 51,
                "duration": 0.48863636363636376,
                "tempo": 120.0
            },
            {
                "start_time": 2.493181818181818,
                "end_time": 2.9818181818181815,
                "pitch": 37,
                "velocity": 51,
                "duration": 0.4886363636363633,
                "tempo": 120.0
            },
            {
                "start_time": 3.0,
                "end_time": 3.4886363636363633,
                "pitch": 37,
                "velocity": 51,
                "duration": 0.4886363636363633,
                "tempo": 120.0
            },
            {
                "start_time": 3.506818181818182,
                "end_time": 3.9977272727272726,
                "pitch": 37,
                "velocity": 51,
                "duration": 0.49090909090909074,
                "tempo": 120.0
            },
            {
                "start_time": 4.013636363636364,
                "end_time": 4.504545454545454,
                "pitch": 39,
                "velocity": 51,
                "duration": 0.4909090909090903,
                "tempo": 120.0
            },
            {
                "start_time": 4.5204545454545455,
                "end_time": 5.011363636363636,
                "pitch": 39,
                "velocity": 51,
                "duration": 0.4909090909090903,
                "tempo": 120.0
            },
            {
                "start_time": 5.027272727272727,
                "end_time": 5.518181818181818,
                "pitch": 39,
                "velocity": 51,
                "duration": 0.4909090909090903,
                "tempo": 120.0
            },
            {
                "start_time": 5.534090909090909,
                "end_time": 6.0249999999999995,
                "pitch": 39,
                "velocity": 51,
                "duration": 0.4909090909090903,
                "tempo": 120.0
            },
            {
                "start_time": 6.040909090909091,
                "end_time": 6.531818181818181,
                "pitch": 39,
                "velocity": 51,
                "duration": 0.4909090909090903,
                "tempo": 120.0
            },
            {
                "start_time": 6.55,
                "end_time": 7.038636363636363,
                "pitch": 39,
                "velocity": 51,
                "duration": 0.4886363636363633,
                "tempo": 120.0
            },
            {
                "start_time": 7.056818181818182,
                "end_time": 7.545454545454545,
                "pitch": 39,
                "velocity": 51,
                "duration": 0.4886363636363633,
                "tempo": 120.0
            },
            {
                "start_time": 7.5636363636363635,
                "end_time": 8.052272727272728,
                "pitch": 39,
                "velocity": 51,
                "duration": 0.4886363636363642,
                "tempo": 120.0
            },
            {
                "start_time": 8.070454545454545,
                "end_time": 8.559090909090909,
                "pitch": 41,
                "velocity": 51,
                "duration": 0.4886363636363633,
                "tempo": 120.0
            },
            {
                "start_time": 8.577272727272726,
                "end_time": 9.068181818181818,
                "pitch": 41,
                "velocity": 51,
                "duration": 0.49090909090909207,
                "tempo": 120.0
            },
            {
                "start_time": 9.084090909090909,
                "end_time": 9.575,
                "pitch": 41,
                "velocity": 51,
                "duration": 0.4909090909090903,
                "tempo": 120.0
            },
            {
                "start_time": 9.59090909090909,
                "end_time": 10.081818181818182,
                "pitch": 41,
                "velocity": 51,
                "duration": 0.49090909090909207,
                "tempo": 120.0
            },
            {
                "start_time": 10.097727272727273,
                "end_time": 10.588636363636363,
                "pitch": 41,
                "velocity": 51,
                "duration": 0.4909090909090903,
                "tempo": 120.0
            },
            {
                "start_time": 10.604545454545454,
                "end_time": 11.095454545454546,
                "pitch": 41,
                "velocity": 51,
                "duration": 0.49090909090909207,
                "tempo": 120.0
            },
            {
                "start_time": 11.113636363636363,
                "end_time": 11.602272727272727,
                "pitch": 41,
                "velocity": 51,
                "duration": 0.4886363636363633,
                "tempo": 120.0
            },
            {
                "start_time": 11.620454545454544,
                "end_time": 12.10909090909091,
                "pitch": 41,
                "velocity": 51,
                "duration": 0.4886363636363651,
                "tempo": 120.0
            },
            {
                "start_time": 12.127272727272727,
                "end_time": 12.61590909090909,
                "pitch": 37,
                "velocity": 51,
                "duration": 0.4886363636363633,
                "tempo": 120.0
            },
            {
                "start_time": 12.634090909090908,
                "end_time": 13.125,
                "pitch": 37,
                "velocity": 51,
                "duration": 0.49090909090909207,
                "tempo": 120.0
            },
            {
                "start_time": 13.14090909090909,
                "end_time": 13.631818181818181,
                "pitch": 37,
                "velocity": 51,
                "duration": 0.4909090909090903,
                "tempo": 120.0
            },
            {
                "start_time": 13.647727272727272,
                "end_time": 14.138636363636364,
                "pitch": 37,
                "velocity": 51,
                "duration": 0.49090909090909207,
                "tempo": 120.0
            },
            {
                "start_time": 14.154545454545454,
                "end_time": 14.645454545454545,
                "pitch": 37,
                "velocity": 51,
                "duration": 0.4909090909090903,
                "tempo": 120.0
            },
            {
                "start_time": 14.661363636363635,
                "end_time": 15.152272727272727,
                "pitch": 37,
                "velocity": 51,
                "duration": 0.49090909090909207,
                "tempo": 120.0
            },
            {
                "start_time": 15.168181818181818,
                "end_time": 15.659090909090908,
                "pitch": 37,
                "velocity": 51,
                "duration": 0.4909090909090903,
                "tempo": 120.0
            },
            {
                "start_time": 15.677272727272726,
                "end_time": 16.16590909090909,
                "pitch": 37,
                "velocity": 51,
                "duration": 0.4886363636363633,
                "tempo": 120.0
            },
            {
                "start_time": 16.18409090909091,
                "end_time": 16.672727272727272,
                "pitch": 39,
                "velocity": 51,
                "duration": 0.4886363636363633,
                "tempo": 120.0
            },
            {
                "start_time": 16.69090909090909,
                "end_time": 17.18181818181818,
                "pitch": 39,
                "velocity": 51,
                "duration": 0.4909090909090885,
                "tempo": 120.0
            },
            {
                "start_time": 17.19772727272727,
                "end_time": 17.686363636363634,
                "pitch": 39,
                "velocity": 51,
                "duration": 0.4886363636363633,
                "tempo": 120.0
            },
            {
                "start_time": 17.704545454545453,
                "end_time": 18.195454545454545,
                "pitch": 39,
                "velocity": 51,
                "duration": 0.49090909090909207,
                "tempo": 120.0
            },
            {
                "start_time": 18.211363636363636,
                "end_time": 18.702272727272728,
                "pitch": 39,
                "velocity": 51,
                "duration": 0.49090909090909207,
                "tempo": 120.0
            },
            {
                "start_time": 18.71818181818182,
                "end_time": 19.209090909090907,
                "pitch": 39,
                "velocity": 51,
                "duration": 0.4909090909090885,
                "tempo": 120.0
            },
            {
                "start_time": 19.224999999999998,
                "end_time": 19.71590909090909,
                "pitch": 39,
                "velocity": 51,
                "duration": 0.49090909090909207,
                "tempo": 120.0
            },
            {
                "start_time": 19.73181818181818,
                "end_time": 20.222727272727273,
                "pitch": 39,
                "velocity": 51,
                "duration": 0.49090909090909207,
                "tempo": 120.0
            },
            {
                "start_time": 20.24090909090909,
                "end_time": 20.729545454545452,
                "pitch": 41,
                "velocity": 51,
                "duration": 0.4886363636363633,
                "tempo": 120.0
            },
            {
                "start_time": 20.74772727272727,
                "end_time": 21.236363636363635,
                "pitch": 41,
                "velocity": 51,
                "duration": 0.4886363636363633,
                "tempo": 120.0
            },
            {
                "start_time": 21.254545454545454,
                "end_time": 21.743181818181817,
                "pitch": 41,
                "velocity": 51,
                "duration": 0.4886363636363633,
                "tempo": 120.0
            },
            {
                "start_time": 21.761363636363637,
                "end_time": 22.252272727272725,
                "pitch": 41,
                "velocity": 51,
                "duration": 0.4909090909090885,
                "tempo": 120.0
            },
            {
                "start_time": 22.268181818181816,
                "end_time": 22.759090909090908,
                "pitch": 37,
                "velocity": 51,
                "duration": 0.49090909090909207,
                "tempo": 120.0
            },
            {
                "start_time": 22.775,
                "end_time": 23.26590909090909,
                "pitch": 37,
                "velocity": 51,
                "duration": 0.49090909090909207,
                "tempo": 120.0
            },
            {
                "start_time": 23.28181818181818,
                "end_time": 23.77272727272727,
                "pitch": 37,
                "velocity": 51,
                "duration": 0.4909090909090885,
                "tempo": 120.0
            },
            {
                "start_time": 23.788636363636364,
                "end_time": 24.279545454545453,
                "pitch": 37,
                "velocity": 51,
                "duration": 0.4909090909090885,
                "tempo": 120.0
            },
            {
                "start_time": 24.295454545454543,
                "end_time": 24.786363636363635,
                "pitch": 39,
                "velocity": 51,
                "duration": 0.49090909090909207,
                "tempo": 120.0
            },
            {
                "start_time": 24.804545454545455,
                "end_time": 25.293181818181818,
                "pitch": 39,
                "velocity": 51,
                "duration": 0.4886363636363633,
                "tempo": 120.0
            },
            {
                "start_time": 25.311363636363634,
                "end_time": 25.799999999999997,
                "pitch": 39,
                "velocity": 51,
                "duration": 0.4886363636363633,
                "tempo": 120.0
            },
            {
                "start_time": 25.818181818181817,
                "end_time": 26.30909090909091,
                "pitch": 37,
                "velocity": 51,
                "duration": 0.49090909090909207,
                "tempo": 120.0
            },
            {
                "start_time": 26.325,
                "end_time": 26.813636363636363,
                "pitch": 39,
                "velocity": 51,
                "duration": 0.4886363636363633,
                "tempo": 120.0
            },
            {
                "start_time": 26.831818181818182,
                "end_time": 27.32272727272727,
                "pitch": 39,
                "velocity": 51,
                "duration": 0.4909090909090885,
                "tempo": 120.0
            },
            {
                "start_time": 27.33863636363636,
                "end_time": 27.829545454545453,
                "pitch": 39,
                "velocity": 51,
                "duration": 0.49090909090909207,
                "tempo": 120.0
            },
            {
                "start_time": 27.845454545454544,
                "end_time": 28.336363636363636,
                "pitch": 39,
                "velocity": 51,
                "duration": 0.49090909090909207,
                "tempo": 120.0
            },
            {
                "start_time": 28.352272727272727,
                "end_time": 28.843181818181815,
                "pitch": 37,
                "velocity": 51,
                "duration": 0.4909090909090885,
                "tempo": 120.0
            },
            {
                "start_time": 28.85909090909091,
                "end_time": 29.349999999999998,
                "pitch": 37,
                "velocity": 51,
                "duration": 0.4909090909090885,
                "tempo": 120.0
            },
            {
                "start_time": 29.368181818181817,
                "end_time": 29.85681818181818,
                "pitch": 37,
                "velocity": 51,
                "duration": 0.4886363636363633,
                "tempo": 120.0
            },
            {
                "start_time": 29.875,
                "end_time": 30.363636363636363,
                "pitch": 37,
                "velocity": 51,
                "duration": 0.4886363636363633,
                "tempo": 120.0
            },
            {
                "start_time": 30.38181818181818,
                "end_time": 30.870454545454542,
                "pitch": 37,
                "velocity": 51,
                "duration": 0.4886363636363633,
                "tempo": 120.0
            },
            {
                "start_time": 30.888636363636362,
                "end_time": 31.379545454545454,
                "pitch": 37,
                "velocity": 51,
                "duration": 0.49090909090909207,
                "tempo": 120.0
            },
            {
                "start_time": 31.395454545454545,
                "end_time": 31.886363636363633,
                "pitch": 36,
                "velocity": 51,
                "duration": 0.4909090909090885,
                "tempo": 120.0
            },
            {
                "start_time": 31.902272727272727,
                "end_time": 32.393181818181816,
                "pitch": 37,
                "velocity": 51,
                "duration": 0.4909090909090885,
                "tempo": 120.0
            },
            {
                "start_time": 32.40909090909091,
                "end_time": 32.9,
                "pitch": 39,
                "velocity": 51,
                "duration": 0.49090909090909207,
                "tempo": 120.0
            },
            {
                "start_time": 32.91590909090909,
                "end_time": 33.40681818181818,
                "pitch": 39,
                "velocity": 51,
                "duration": 0.49090909090909207,
                "tempo": 120.0
            },
            {
                "start_time": 33.42272727272727,
                "end_time": 33.913636363636364,
                "pitch": 39,
                "velocity": 51,
                "duration": 0.49090909090909207,
                "tempo": 120.0
            },
            {
                "start_time": 33.93181818181818,
                "end_time": 34.42045454545455,
                "pitch": 41,
                "velocity": 51,
                "duration": 0.48863636363636687,
                "tempo": 120.0
            },
            {
                "start_time": 34.43863636363636,
                "end_time": 34.92727272727272,
                "pitch": 39,
                "velocity": 51,
                "duration": 0.48863636363635976,
                "tempo": 120.0
            },
            {
                "start_time": 34.945454545454545,
                "end_time": 35.43636363636364,
                "pitch": 39,
                "velocity": 51,
                "duration": 0.49090909090909207,
                "tempo": 120.0
            },
            {
                "start_time": 35.45227272727273,
                "end_time": 35.94090909090909,
                "pitch": 39,
                "velocity": 51,
                "duration": 0.48863636363635976,
                "tempo": 120.0
            },
            {
                "start_time": 35.95909090909091,
                "end_time": 36.449999999999996,
                "pitch": 39,
                "velocity": 51,
                "duration": 0.49090909090908497,
                "tempo": 120.0
            },
            {
                "start_time": 36.465909090909086,
                "end_time": 36.95681818181818,
                "pitch": 37,
                "velocity": 51,
                "duration": 0.49090909090909207,
                "tempo": 120.0
            },
            {
                "start_time": 36.97272727272727,
                "end_time": 37.46363636363636,
                "pitch": 37,
                "velocity": 51,
                "duration": 0.49090909090909207,
                "tempo": 120.0
            },
            {
                "start_time": 37.47954545454545,
                "end_time": 37.970454545454544,
                "pitch": 37,
                "velocity": 51,
                "duration": 0.49090909090909207,
                "tempo": 120.0
            },
            {
                "start_time": 37.986363636363635,
                "end_time": 38.47727272727273,
                "pitch": 37,
                "velocity": 51,
                "duration": 0.49090909090909207,
                "tempo": 120.0
            },
            {
                "start_time": 38.49545454545454,
                "end_time": 38.98409090909091,
                "pitch": 39,
                "velocity": 51,
                "duration": 0.48863636363636687,
                "tempo": 120.0
            },
            {
                "start_time": 39.002272727272725,
                "end_time": 39.49090909090909,
                "pitch": 39,
                "velocity": 51,
                "duration": 0.48863636363636687,
                "tempo": 120.0
            },
            {
                "start_time": 39.50909090909091,
                "end_time": 39.99772727272727,
                "pitch": 39,
                "velocity": 51,
                "duration": 0.48863636363635976,
                "tempo": 120.0
            },
            {
                "start_time": 40.01590909090909,
                "end_time": 40.50681818181818,
                "pitch": 39,
                "velocity": 51,
                "duration": 0.49090909090909207,
                "tempo": 120.0
            },
            {
                "start_time": 40.52272727272727,
                "end_time": 41.01363636363636,
                "pitch": 32,
                "velocity": 51,
                "duration": 0.49090909090908497,
                "tempo": 120.0
            },
            {
                "start_time": 41.029545454545456,
                "end_time": 41.52045454545454,
                "pitch": 32,
                "velocity": 51,
                "duration": 0.49090909090908497,
                "tempo": 120.0
            },
            {
                "start_time": 41.53636363636363,
                "end_time": 42.027272727272724,
                "pitch": 32,
                "velocity": 51,
                "duration": 0.49090909090909207,
                "tempo": 120.0
            },
            {
                "start_time": 42.043181818181814,
                "end_time": 42.28409090909091,
                "pitch": 34,
                "velocity": 51,
                "duration": 0.24090909090909207,
                "tempo": 120.0
            },
            {
                "start_time": 42.3,
                "end_time": 42.53409090909091,
                "pitch": 36,
                "velocity": 51,
                "duration": 0.23409090909090935,
                "tempo": 120.0
            },
            {
                "start_time": 42.55227272727272,
                "end_time": 43.04090909090909,
                "pitch": 37,
                "velocity": 51,
                "duration": 0.48863636363636687,
                "tempo": 120.0
            },
            {
                "start_time": 43.059090909090905,
                "end_time": 43.54772727272727,
                "pitch": 37,
                "velocity": 51,
                "duration": 0.48863636363636687,
                "tempo": 120.0
            },
            {
                "start_time": 43.56590909090909,
                "end_time": 44.054545454545455,
                "pitch": 37,
                "velocity": 51,
                "duration": 0.48863636363636687,
                "tempo": 120.0
            },
            {
                "start_time": 44.07272727272727,
                "end_time": 44.56363636363636,
                "pitch": 37,
                "velocity": 51,
                "duration": 0.49090909090909207,
                "tempo": 120.0
            },
            {
                "start_time": 44.57954545454545,
                "end_time": 45.06818181818181,
                "pitch": 39,
                "velocity": 51,
                "duration": 0.48863636363635976,
                "tempo": 120.0
            },
            {
                "start_time": 45.086363636363636,
                "end_time": 45.57727272727273,
                "pitch": 37,
                "velocity": 51,
                "duration": 0.49090909090909207,
                "tempo": 120.0
            },
            {
                "start_time": 45.59318181818182,
                "end_time": 46.084090909090904,
                "pitch": 39,
                "velocity": 51,
                "duration": 0.49090909090908497,
                "tempo": 120.0
            },
            {
                "start_time": 46.099999999999994,
                "end_time": 46.590909090909086,
                "pitch": 39,
                "velocity": 51,
                "duration": 0.49090909090909207,
                "tempo": 120.0
            },
            {
                "start_time": 46.60681818181818,
                "end_time": 47.09772727272727,
                "pitch": 39,
                "velocity": 51,
                "duration": 0.49090909090909207,
                "tempo": 120.0
            },
            {
                "start_time": 47.11590909090909,
                "end_time": 47.60454545454545,
                "pitch": 39,
                "velocity": 51,
                "duration": 0.48863636363635976,
                "tempo": 120.0
            },
            {
                "start_time": 47.62272727272727,
                "end_time": 48.111363636363635,
                "pitch": 37,
                "velocity": 51,
                "duration": 0.48863636363636687,
                "tempo": 120.0
            },
            {
                "start_time": 48.12954545454545,
                "end_time": 48.61590909090909,
                "pitch": 39,
                "velocity": 51,
                "duration": 0.48636363636364166,
                "tempo": 120.0
            }
        ]
    }
}