{
    "track_id": "Rampage (FM) - 01 - Title Screen",
    "mood": "sad",
    "instruments": {
        "Electric Guitar (clean)": [
            {
                "start_time": 0.0,
                "end_time": 0.16363636363636364,
                "pitch": 33,
                "velocity": 80,
                "duration": 0.16363636363636364,
                "tempo": 120.0
            },
            {
                "start_time": 0.175,
                "end_time": 0.36363636363636365,
                "pitch": 33,
                "velocity": 80,
                "duration": 0.18863636363636366,
                "tempo": 120.0
            },
            {
                "start_time": 0.37727272727272726,
                "end_time": 0.6272727272727272,
                "pitch": 33,
                "velocity": 80,
                "duration": 0.24999999999999994,
                "tempo": 120.0
            },
            {
                "start_time": 0.6454545454545454,
                "end_time": 0.8954545454545454,
                "pitch": 33,
                "velocity": 80,
                "duration": 0.25,
                "tempo": 120.0
            },
            {
                "start_time": 0.9113636363636363,
                "end_time": 1.1613636363636364,
                "pitch": 33,
                "velocity": 80,
                "duration": 0.2500000000000001,
                "tempo": 120.0
            },
            {
                "start_time": 1.1795454545454545,
                "end_time": 1.4295454545454545,
                "pitch": 33,
                "velocity": 80,
                "duration": 0.25,
                "tempo": 120.0
            },
            {
                "start_time": 1.4454545454545453,
                "end_time": 1.7,
                "pitch": 33,
                "velocity": 80,
                "duration": 0.25454545454545463,
                "tempo": 120.0
            },
            {
                "start_time": 1.718181818181818,
                "end_time": 1.9727272727272727,
                "pitch": 33,
                "velocity": 80,
                "duration": 0.25454545454545463,
                "tempo": 120.0
            },
            {
                "start_time": 1.9909090909090907,
                "end_time": 2.2409090909090907,
                "pitch": 31,
                "velocity": 80,
                "duration": 0.25,
                "tempo": 120.0
            },
            {
                "start_time": 2.256818181818182,
                "end_time": 2.506818181818182,
                "pitch": 31,
                "velocity": 80,
                "duration": 0.25,
                "tempo": 120.0
            },
            {
                "start_time": 2.525,
                "end_time": 2.775,
                "pitch": 31,
                "velocity": 80,
                "duration": 0.25,
                "tempo": 120.0
            },
            {
                "start_time": 2.7909090909090906,
                "end_time": 3.0409090909090906,
                "pitch": 31,
                "velocity": 80,
                "duration": 0.25,
                "tempo": 120.0
            },
            {
                "start_time": 3.059090909090909,
                "end_time": 3.309090909090909,
                "pitch": 31,
                "velocity": 80,
                "duration": 0.25,
                "tempo": 120.0
            },
            {
                "start_time": 3.3249999999999997,
                "end_time": 3.577272727272727,
                "pitch": 31,
                "velocity": 80,
                "duration": 0.2522727272727274,
                "tempo": 120.0
            },
            {
                "start_time": 3.593181818181818,
                "end_time": 3.8477272727272727,
                "pitch": 31,
                "velocity": 80,
                "duration": 0.25454545454545485,
                "tempo": 120.0
            },
            {
                "start_time": 3.8659090909090907,
                "end_time": 4.120454545454545,
                "pitch": 31,
                "velocity": 80,
                "duration": 0.2545454545454544,
                "tempo": 120.0
            },
            {
                "start_time": 4.136363636363636,
                "end_time": 4.388636363636364,
                "pitch": 29,
                "velocity": 80,
                "duration": 0.25227272727272787,
                "tempo": 120.0
            },
            {
                "start_time": 4.404545454545454,
                "end_time": 4.654545454545454,
                "pitch": 29,
                "velocity": 80,
                "duration": 0.25,
                "tempo": 120.0
            },
            {
                "start_time": 4.670454545454545,
                "end_time": 4.927272727272727,
                "pitch": 29,
                "velocity": 80,
                "duration": 0.25681818181818183,
                "tempo": 120.0
            },
            {
                "start_time": 4.943181818181818,
                "end_time": 5.197727272727272,
                "pitch": 29,
                "velocity": 80,
                "duration": 0.25454545454545396,
                "tempo": 120.0
            },
            {
                "start_time": 5.215909090909091,
                "end_time": 5.465909090909091,
                "pitch": 31,
                "velocity": 80,
                "duration": 0.25,
                "tempo": 120.0
            },
            {
                "start_time": 5.4818181818181815,
                "end_time": 5.7340909090909085,
                "pitch": 31,
                "velocity": 80,
                "duration": 0.252272727272727,
                "tempo": 120.0
            },
            {
                "start_time": 5.75,
                "end_time": 6.0,
                "pitch": 31,
                "velocity": 80,
                "duration": 0.25,
                "tempo": 120.0
            },
            {
                "start_time": 6.015909090909091,
                "end_time": 6.268181818181818,
                "pitch": 31,
                "velocity": 80,
                "duration": 0.252272727272727,
                "tempo": 120.0
            },
            {
                "start_time": 6.284090909090909,
                "end_time": 8.46590909090909,
                "pitch": 33,
                "velocity": 80,
                "duration": 2.1818181818181808,
                "tempo": 120.0
            }
        ],
        "Oboe": [
            {
                "start_time": 0.0,
                "end_time": 1.9727272727272727,
                "pitch": 69,
                "velocity": 51,
                "duration": 1.9727272727272727,
                "tempo": 120.0
            },
            {
                "start_time": 1.9909090909090907,
                "end_time": 4.120454545454545,
                "pitch": 67,
                "velocity": 51,
                "duration": 2.1295454545454544,
                "tempo": 120.0
            },
            {
                "start_time": 4.136363636363636,
                "end_time": 5.197727272727272,
                "pitch": 65,
                "velocity": 51,
                "duration": 1.0613636363636365,
                "tempo": 120.0
            },
            {
                "start_time": 5.215909090909091,
                "end_time": 6.268181818181818,
                "pitch": 67,
                "velocity": 51,
                "duration": 1.0522727272727268,
                "tempo": 120.0
            },
            {
                "start_time": 6.284090909090909,
                "end_time": 8.46590909090909,
                "pitch": 69,
                "velocity": 51,
                "duration": 2.1818181818181808,
                "tempo": 120.0
            }
        ],
        "Trumpet": [
            {
                "start_time": 0.0,
                "end_time": 0.06363636363636363,
                "pitch": 81,
                "velocity": 51,
                "duration": 0.06363636363636363,
                "tempo": 120.0
            },
            {
                "start_time": 0.075,
                "end_time": 0.2636363636363636,
                "pitch": 76,
                "velocity": 51,
                "duration": 0.1886363636363636,
                "tempo": 120.0
            },
            {
                "start_time": 0.2772727272727273,
                "end_time": 0.36363636363636365,
                "pitch": 74,
                "velocity": 51,
                "duration": 0.08636363636363636,
                "tempo": 120.0
            },
            {
                "start_time": 0.37727272727272726,
                "end_time": 0.49318181818181817,
                "pitch": 73,
                "velocity": 51,
                "duration": 0.1159090909090909,
                "tempo": 120.0
            },
            {
                "start_time": 0.5113636363636364,
                "end_time": 1.8363636363636362,
                "pitch": 69,
                "velocity": 51,
                "duration": 1.3249999999999997,
                "tempo": 120.0
            },
            {
                "start_time": 1.8545454545454545,
                "end_time": 1.9727272727272727,
                "pitch": 74,
                "velocity": 51,
                "duration": 0.11818181818181817,
                "tempo": 120.0
            },
            {
                "start_time": 1.9909090909090907,
                "end_time": 2.106818181818182,
                "pitch": 76,
                "velocity": 51,
                "duration": 0.11590909090909118,
                "tempo": 120.0
            },
            {
                "start_time": 2.1227272727272726,
                "end_time": 3.984090909090909,
                "pitch": 67,
                "velocity": 51,
                "duration": 1.8613636363636363,
                "tempo": 120.0
            },
            {
                "start_time": 4.0,
                "end_time": 4.120454545454545,
                "pitch": 72,
                "velocity": 51,
                "duration": 0.12045454545454515,
                "tempo": 120.0
            },
            {
                "start_time": 4.136363636363636,
                "end_time": 4.254545454545454,
                "pitch": 74,
                "velocity": 51,
                "duration": 0.11818181818181817,
                "tempo": 120.0
            },
            {
                "start_time": 4.2704545454545455,
                "end_time": 5.0613636363636365,
                "pitch": 65,
                "velocity": 51,
                "duration": 0.790909090909091,
                "tempo": 120.0
            },
            {
                "start_time": 5.079545454545454,
                "end_time": 5.197727272727272,
                "pitch": 72,
                "velocity": 51,
                "duration": 0.11818181818181817,
                "tempo": 120.0
            },
            {
                "start_time": 5.215909090909091,
                "end_time": 5.331818181818181,
                "pitch": 74,
                "velocity": 51,
                "duration": 0.1159090909090903,
                "tempo": 120.0
            },
            {
                "start_time": 5.35,
                "end_time": 6.134090909090909,
                "pitch": 67,
                "velocity": 51,
                "duration": 0.7840909090909092,
                "tempo": 120.0
            },
            {
                "start_time": 6.1499999999999995,
                "end_time": 6.268181818181818,
                "pitch": 67,
                "velocity": 51,
                "duration": 0.11818181818181817,
                "tempo": 120.0
            },
            {
                "start_time": 6.284090909090909,
                "end_time": 6.402272727272727,
                "pitch": 76,
                "velocity": 51,
                "duration": 0.11818181818181817,
                "tempo": 120.0
            },
            {
                "start_time": 6.420454545454545,
                "end_time": 8.60909090909091,
                "pitch": 69,
                "velocity": 51,
                "duration": 2.1886363636363644,
                "tempo": 120.0
            }
        ]
    }
}