{
    "track_id": "Rastan (FM) - 07 - The Man of Saga",
    "mood": "sad",
    "instruments": {
        "Clarinet": [
            {
                "start_time": 0.16363636363636364,
                "end_time": 2.2295454545454545,
                "pitch": 62,
                "velocity": 5,
                "duration": 2.065909090909091,
                "tempo": 120.0
            },
            {
                "start_time": 2.2295454545454545,
                "end_time": 2.4386363636363635,
                "pitch": 64,
                "velocity": 25,
                "duration": 0.209090909090909,
                "tempo": 120.0
            },
            {
                "start_time": 2.4386363636363635,
                "end_time": 2.643181818181818,
                "pitch": 65,
                "velocity": 25,
                "duration": 0.20454545454545459,
                "tempo": 120.0
            },
            {
                "start_time": 2.6454545454545455,
                "end_time": 2.8499999999999996,
                "pitch": 69,
                "velocity": 25,
                "duration": 0.20454545454545414,
                "tempo": 120.0
            },
            {
                "start_time": 2.8499999999999996,
                "end_time": 3.059090909090909,
                "pitch": 65,
                "velocity": 25,
                "duration": 0.20909090909090944,
                "tempo": 120.0
            },
            {
                "start_time": 3.059090909090909,
                "end_time": 3.268181818181818,
                "pitch": 64,
                "velocity": 25,
                "duration": 0.209090909090909,
                "tempo": 120.0
            },
            {
                "start_time": 3.268181818181818,
                "end_time": 5.543181818181818,
                "pitch": 62,
                "velocity": 25,
                "duration": 2.275,
                "tempo": 120.0
            },
            {
                "start_time": 5.543181818181818,
                "end_time": 5.747727272727272,
                "pitch": 64,
                "velocity": 25,
                "duration": 0.20454545454545414,
                "tempo": 120.0
            },
            {
                "start_time": 2.643181818181818,
                "end_time": 5.956818181818181,
                "pitch": 57,
                "velocity": 25,
                "duration": 3.313636363636363,
                "tempo": 120.0
            },
            {
                "start_time": 5.747727272727272,
                "end_time": 5.956818181818181,
                "pitch": 65,
                "velocity": 25,
                "duration": 0.209090909090909,
                "tempo": 120.0
            },
            {
                "start_time": 5.956818181818181,
                "end_time": 6.165909090909091,
                "pitch": 69,
                "velocity": 25,
                "duration": 0.20909090909090988,
                "tempo": 120.0
            },
            {
                "start_time": 2.8499999999999996,
                "end_time": 6.165909090909091,
                "pitch": 77,
                "velocity": 25,
                "duration": 3.3159090909090914,
                "tempo": 120.0
            },
            {
                "start_time": 6.165909090909091,
                "end_time": 6.372727272727272,
                "pitch": 65,
                "velocity": 25,
                "duration": 0.20681818181818112,
                "tempo": 120.0
            },
            {
                "start_time": 6.372727272727272,
                "end_time": 6.577272727272727,
                "pitch": 64,
                "velocity": 25,
                "duration": 0.20454545454545503,
                "tempo": 120.0
            },
            {
                "start_time": 6.577272727272727,
                "end_time": 6.784090909090909,
                "pitch": 62,
                "velocity": 25,
                "duration": 0.206818181818182,
                "tempo": 120.0
            },
            {
                "start_time": 6.784090909090909,
                "end_time": 8.027272727272727,
                "pitch": 60,
                "velocity": 25,
                "duration": 1.2431818181818182,
                "tempo": 120.0
            },
            {
                "start_time": 6.784090909090909,
                "end_time": 8.027272727272727,
                "pitch": 60,
                "velocity": 25,
                "duration": 1.2431818181818182,
                "tempo": 120.0
            },
            {
                "start_time": 8.027272727272727,
                "end_time": 8.170454545454545,
                "pitch": 62,
                "velocity": 25,
                "duration": 0.14318181818181763,
                "tempo": 120.0
            },
            {
                "start_time": 8.027272727272727,
                "end_time": 8.170454545454545,
                "pitch": 62,
                "velocity": 25,
                "duration": 0.14318181818181763,
                "tempo": 120.0
            },
            {
                "start_time": 5.956818181818181,
                "end_time": 8.299999999999999,
                "pitch": 57,
                "velocity": 25,
                "duration": 2.343181818181818,
                "tempo": 120.0
            },
            {
                "start_time": 8.170454545454545,
                "end_time": 8.299999999999999,
                "pitch": 60,
                "velocity": 25,
                "duration": 0.12954545454545396,
                "tempo": 120.0
            },
            {
                "start_time": 8.170454545454545,
                "end_time": 8.299999999999999,
                "pitch": 60,
                "velocity": 25,
                "duration": 0.12954545454545396,
                "tempo": 120.0
            },
            {
                "start_time": 8.299999999999999,
                "end_time": 8.445454545454545,
                "pitch": 57,
                "velocity": 25,
                "duration": 0.1454545454545464,
                "tempo": 120.0
            },
            {
                "start_time": 8.299999999999999,
                "end_time": 8.445454545454545,
                "pitch": 57,
                "velocity": 25,
                "duration": 0.1454545454545464,
                "tempo": 120.0
            },
            {
                "start_time": 8.445454545454545,
                "end_time": 10.09090909090909,
                "pitch": 55,
                "velocity": 25,
                "duration": 1.6454545454545446,
                "tempo": 120.0
            },
            {
                "start_time": 10.09090909090909,
                "end_time": 11.761363636363635,
                "pitch": 53,
                "velocity": 25,
                "duration": 1.670454545454545,
                "tempo": 120.0
            },
            {
                "start_time": 11.761363636363635,
                "end_time": 12.997727272727271,
                "pitch": 52,
                "velocity": 25,
                "duration": 1.2363636363636363,
                "tempo": 120.0
            },
            {
                "start_time": 12.997727272727271,
                "end_time": 13.415909090909091,
                "pitch": 48,
                "velocity": 25,
                "duration": 0.41818181818181976,
                "tempo": 120.0
            },
            {
                "start_time": 12.997727272727271,
                "end_time": 13.415909090909091,
                "pitch": 48,
                "velocity": 25,
                "duration": 0.41818181818181976,
                "tempo": 120.0
            },
            {
                "start_time": 13.415909090909091,
                "end_time": 13.554545454545455,
                "pitch": 50,
                "velocity": 25,
                "duration": 0.13863636363636367,
                "tempo": 120.0
            },
            {
                "start_time": 13.415909090909091,
                "end_time": 13.554545454545455,
                "pitch": 50,
                "velocity": 25,
                "duration": 0.13863636363636367,
                "tempo": 120.0
            },
            {
                "start_time": 13.554545454545455,
                "end_time": 13.681818181818182,
                "pitch": 53,
                "velocity": 25,
                "duration": 0.12727272727272698,
                "tempo": 120.0
            },
            {
                "start_time": 13.554545454545455,
                "end_time": 13.681818181818182,
                "pitch": 53,
                "velocity": 25,
                "duration": 0.12727272727272698,
                "tempo": 120.0
            },
            {
                "start_time": 13.681818181818182,
                "end_time": 16.71590909090909,
                "pitch": 50,
                "velocity": 25,
                "duration": 3.0340909090909083,
                "tempo": 120.0
            },
            {
                "start_time": 13.681818181818182,
                "end_time": 16.71590909090909,
                "pitch": 50,
                "velocity": 25,
                "duration": 3.0340909090909083,
                "tempo": 120.0
            }
        ],
        "Trumpet": [
            {
                "start_time": 29.738636363636363,
                "end_time": 29.88181818181818,
                "pitch": 60,
                "velocity": 51,
                "duration": 0.14318181818181586,
                "tempo": 120.0
            },
            {
                "start_time": 29.88181818181818,
                "end_time": 30.025,
                "pitch": 62,
                "velocity": 51,
                "duration": 0.1431818181818194,
                "tempo": 120.0
            },
            {
                "start_time": 29.88181818181818,
                "end_time": 30.025,
                "pitch": 62,
                "velocity": 51,
                "duration": 0.1431818181818194,
                "tempo": 120.0
            },
            {
                "start_time": 30.025,
                "end_time": 30.161363636363635,
                "pitch": 64,
                "velocity": 51,
                "duration": 0.1363636363636367,
                "tempo": 120.0
            },
            {
                "start_time": 30.025,
                "end_time": 30.161363636363635,
                "pitch": 64,
                "velocity": 51,
                "duration": 0.1363636363636367,
                "tempo": 120.0
            },
            {
                "start_time": 30.161363636363635,
                "end_time": 30.299999999999997,
                "pitch": 62,
                "velocity": 51,
                "duration": 0.1386363636363619,
                "tempo": 120.0
            },
            {
                "start_time": 30.161363636363635,
                "end_time": 30.299999999999997,
                "pitch": 62,
                "velocity": 51,
                "duration": 0.1386363636363619,
                "tempo": 120.0
            },
            {
                "start_time": 30.299999999999997,
                "end_time": 30.436363636363634,
                "pitch": 64,
                "velocity": 51,
                "duration": 0.1363636363636367,
                "tempo": 120.0
            },
            {
                "start_time": 30.299999999999997,
                "end_time": 30.436363636363634,
                "pitch": 64,
                "velocity": 51,
                "duration": 0.1363636363636367,
                "tempo": 120.0
            },
            {
                "start_time": 30.436363636363634,
                "end_time": 30.57272727272727,
                "pitch": 65,
                "velocity": 51,
                "duration": 0.1363636363636367,
                "tempo": 120.0
            },
            {
                "start_time": 30.57272727272727,
                "end_time": 30.709090909090907,
                "pitch": 64,
                "velocity": 51,
                "duration": 0.1363636363636367,
                "tempo": 120.0
            },
            {
                "start_time": 30.709090909090907,
                "end_time": 30.84090909090909,
                "pitch": 65,
                "velocity": 51,
                "duration": 0.13181818181818272,
                "tempo": 120.0
            },
            {
                "start_time": 30.84090909090909,
                "end_time": 30.972727272727273,
                "pitch": 67,
                "velocity": 51,
                "duration": 0.13181818181818272,
                "tempo": 120.0
            },
            {
                "start_time": 30.84090909090909,
                "end_time": 31.104545454545452,
                "pitch": 55,
                "velocity": 51,
                "duration": 0.2636363636363619,
                "tempo": 120.0
            },
            {
                "start_time": 30.972727272727273,
                "end_time": 31.104545454545452,
                "pitch": 65,
                "velocity": 51,
                "duration": 0.13181818181817917,
                "tempo": 120.0
            },
            {
                "start_time": 31.104545454545452,
                "end_time": 31.236363636363635,
                "pitch": 67,
                "velocity": 51,
                "duration": 0.13181818181818272,
                "tempo": 120.0
            },
            {
                "start_time": 31.236363636363635,
                "end_time": 31.368181818181817,
                "pitch": 69,
                "velocity": 51,
                "duration": 0.13181818181818272,
                "tempo": 120.0
            },
            {
                "start_time": 31.368181818181817,
                "end_time": 33.475,
                "pitch": 72,
                "velocity": 32,
                "duration": 2.106818181818184,
                "tempo": 120.0
            },
            {
                "start_time": 31.368181818181817,
                "end_time": 33.475,
                "pitch": 72,
                "velocity": 51,
                "duration": 2.106818181818184,
                "tempo": 120.0
            },
            {
                "start_time": 33.475,
                "end_time": 33.752272727272725,
                "pitch": 76,
                "velocity": 32,
                "duration": 0.2772727272727238,
                "tempo": 120.0
            },
            {
                "start_time": 33.475,
                "end_time": 33.752272727272725,
                "pitch": 76,
                "velocity": 32,
                "duration": 0.2772727272727238,
                "tempo": 120.0
            },
            {
                "start_time": 33.752272727272725,
                "end_time": 34.86590909090909,
                "pitch": 79,
                "velocity": 32,
                "duration": 1.1136363636363669,
                "tempo": 120.0
            }
        ],
        "Flute": [
            {
                "start_time": 54.93636363636363,
                "end_time": 55.224999999999994,
                "pitch": 65,
                "velocity": 51,
                "duration": 0.288636363636364,
                "tempo": 120.0
            },
            {
                "start_time": 55.22727272727273,
                "end_time": 55.5,
                "pitch": 67,
                "velocity": 51,
                "duration": 0.2727272727272734,
                "tempo": 120.0
            },
            {
                "start_time": 55.5,
                "end_time": 55.77272727272727,
                "pitch": 69,
                "velocity": 51,
                "duration": 0.2727272727272734,
                "tempo": 120.0
            },
            {
                "start_time": 55.77272727272727,
                "end_time": 56.04772727272727,
                "pitch": 72,
                "velocity": 51,
                "duration": 0.2749999999999986,
                "tempo": 120.0
            },
            {
                "start_time": 55.77272727272727,
                "end_time": 56.04772727272727,
                "pitch": 72,
                "velocity": 51,
                "duration": 0.2749999999999986,
                "tempo": 120.0
            },
            {
                "start_time": 56.04772727272727,
                "end_time": 56.336363636363636,
                "pitch": 70,
                "velocity": 51,
                "duration": 0.288636363636364,
                "tempo": 120.0
            },
            {
                "start_time": 56.04772727272727,
                "end_time": 56.336363636363636,
                "pitch": 70,
                "velocity": 51,
                "duration": 0.288636363636364,
                "tempo": 120.0
            },
            {
                "start_time": 56.336363636363636,
                "end_time": 56.62272727272727,
                "pitch": 64,
                "velocity": 51,
                "duration": 0.2863636363636317,
                "tempo": 120.0
            }
        ],
        "Vibraphone": [
            {
                "start_time": 3.3204545454545453,
                "end_time": 3.525,
                "pitch": 98,
                "velocity": 40,
                "duration": 0.20454545454545459,
                "tempo": 120.0
            },
            {
                "start_time": 3.525,
                "end_time": 3.7295454545454545,
                "pitch": 93,
                "velocity": 40,
                "duration": 0.20454545454545459,
                "tempo": 120.0
            },
            {
                "start_time": 3.525,
                "end_time": 3.7295454545454545,
                "pitch": 93,
                "velocity": 40,
                "duration": 0.20454545454545459,
                "tempo": 120.0
            },
            {
                "start_time": 3.7295454545454545,
                "end_time": 3.9386363636363635,
                "pitch": 91,
                "velocity": 40,
                "duration": 0.209090909090909,
                "tempo": 120.0
            },
            {
                "start_time": 3.9386363636363635,
                "end_time": 4.1477272727272725,
                "pitch": 89,
                "velocity": 40,
                "duration": 0.209090909090909,
                "tempo": 120.0
            },
            {
                "start_time": 4.1477272727272725,
                "end_time": 4.3545454545454545,
                "pitch": 91,
                "velocity": 40,
                "duration": 0.206818181818182,
                "tempo": 120.0
            },
            {
                "start_time": 4.3545454545454545,
                "end_time": 4.559090909090909,
                "pitch": 93,
                "velocity": 40,
                "duration": 0.20454545454545414,
                "tempo": 120.0
            },
            {
                "start_time": 4.559090909090909,
                "end_time": 4.765909090909091,
                "pitch": 86,
                "velocity": 40,
                "duration": 0.206818181818182,
                "tempo": 120.0
            },
            {
                "start_time": 4.765909090909091,
                "end_time": 4.970454545454545,
                "pitch": 86,
                "velocity": 32,
                "duration": 0.20454545454545414,
                "tempo": 120.0
            },
            {
                "start_time": 4.970454545454545,
                "end_time": 5.179545454545455,
                "pitch": 86,
                "velocity": 25,
                "duration": 0.20909090909090988,
                "tempo": 120.0
            },
            {
                "start_time": 5.179545454545455,
                "end_time": 5.388636363636364,
                "pitch": 86,
                "velocity": 20,
                "duration": 0.209090909090909,
                "tempo": 120.0
            },
            {
                "start_time": 5.388636363636364,
                "end_time": 5.595454545454545,
                "pitch": 86,
                "velocity": 16,
                "duration": 0.20681818181818112,
                "tempo": 120.0
            },
            {
                "start_time": 5.595454545454545,
                "end_time": 5.8,
                "pitch": 86,
                "velocity": 13,
                "duration": 0.20454545454545503,
                "tempo": 120.0
            },
            {
                "start_time": 5.8,
                "end_time": 6.629545454545454,
                "pitch": 86,
                "velocity": 10,
                "duration": 0.8295454545454541,
                "tempo": 120.0
            },
            {
                "start_time": 4.559090909090909,
                "end_time": 6.834090909090909,
                "pitch": 98,
                "velocity": 40,
                "duration": 2.2750000000000004,
                "tempo": 120.0
            },
            {
                "start_time": 6.629545454545454,
                "end_time": 6.834090909090909,
                "pitch": 98,
                "velocity": 40,
                "duration": 0.20454545454545503,
                "tempo": 120.0
            },
            {
                "start_time": 6.834090909090909,
                "end_time": 7.040909090909091,
                "pitch": 93,
                "velocity": 40,
                "duration": 0.206818181818182,
                "tempo": 120.0
            },
            {
                "start_time": 6.834090909090909,
                "end_time": 7.040909090909091,
                "pitch": 93,
                "velocity": 40,
                "duration": 0.206818181818182,
                "tempo": 120.0
            },
            {
                "start_time": 7.040909090909091,
                "end_time": 7.25,
                "pitch": 91,
                "velocity": 40,
                "duration": 0.209090909090909,
                "tempo": 120.0
            },
            {
                "start_time": 3.9386363636363635,
                "end_time": 7.25,
                "pitch": 101,
                "velocity": 40,
                "duration": 3.3113636363636365,
                "tempo": 120.0
            },
            {
                "start_time": 4.1477272727272725,
                "end_time": 7.459090909090909,
                "pitch": 79,
                "velocity": 40,
                "duration": 3.3113636363636365,
                "tempo": 120.0
            },
            {
                "start_time": 7.25,
                "end_time": 7.459090909090909,
                "pitch": 89,
                "velocity": 40,
                "duration": 0.209090909090909,
                "tempo": 120.0
            },
            {
                "start_time": 7.459090909090909,
                "end_time": 7.663636363636363,
                "pitch": 91,
                "velocity": 40,
                "duration": 0.20454545454545414,
                "tempo": 120.0
            },
            {
                "start_time": 7.663636363636363,
                "end_time": 7.870454545454545,
                "pitch": 93,
                "velocity": 40,
                "duration": 0.206818181818182,
                "tempo": 120.0
            },
            {
                "start_time": 7.870454545454545,
                "end_time": 8.079545454545455,
                "pitch": 96,
                "velocity": 40,
                "duration": 0.20909090909090988,
                "tempo": 120.0
            },
            {
                "start_time": 7.870454545454545,
                "end_time": 8.079545454545455,
                "pitch": 96,
                "velocity": 40,
                "duration": 0.20909090909090988,
                "tempo": 120.0
            },
            {
                "start_time": 8.079545454545455,
                "end_time": 8.288636363636364,
                "pitch": 96,
                "velocity": 32,
                "duration": 0.209090909090909,
                "tempo": 120.0
            },
            {
                "start_time": 8.288636363636364,
                "end_time": 8.497727272727273,
                "pitch": 96,
                "velocity": 25,
                "duration": 0.209090909090909,
                "tempo": 120.0
            },
            {
                "start_time": 8.497727272727273,
                "end_time": 8.706818181818182,
                "pitch": 96,
                "velocity": 20,
                "duration": 0.209090909090909,
                "tempo": 120.0
            },
            {
                "start_time": 8.706818181818182,
                "end_time": 8.911363636363635,
                "pitch": 96,
                "velocity": 16,
                "duration": 0.20454545454545325,
                "tempo": 120.0
            },
            {
                "start_time": 8.911363636363635,
                "end_time": 9.118181818181817,
                "pitch": 96,
                "velocity": 13,
                "duration": 0.206818181818182,
                "tempo": 120.0
            },
            {
                "start_time": 9.118181818181817,
                "end_time": 9.931818181818182,
                "pitch": 96,
                "velocity": 10,
                "duration": 0.8136363636363644,
                "tempo": 120.0
            },
            {
                "start_time": 9.931818181818182,
                "end_time": 10.145454545454545,
                "pitch": 94,
                "velocity": 10,
                "duration": 0.21363636363636296,
                "tempo": 120.0
            },
            {
                "start_time": 9.931818181818182,
                "end_time": 10.145454545454545,
                "pitch": 94,
                "velocity": 40,
                "duration": 0.21363636363636296,
                "tempo": 120.0
            },
            {
                "start_time": 10.145454545454545,
                "end_time": 10.35681818181818,
                "pitch": 94,
                "velocity": 32,
                "duration": 0.21136363636363598,
                "tempo": 120.0
            },
            {
                "start_time": 10.35681818181818,
                "end_time": 10.563636363636363,
                "pitch": 94,
                "velocity": 25,
                "duration": 0.206818181818182,
                "tempo": 120.0
            },
            {
                "start_time": 10.563636363636363,
                "end_time": 10.768181818181818,
                "pitch": 94,
                "velocity": 20,
                "duration": 0.20454545454545503,
                "tempo": 120.0
            },
            {
                "start_time": 10.768181818181818,
                "end_time": 11.611363636363636,
                "pitch": 94,
                "velocity": 16,
                "duration": 0.8431818181818187,
                "tempo": 120.0
            },
            {
                "start_time": 11.611363636363636,
                "end_time": 11.613636363636363,
                "pitch": 96,
                "velocity": 16,
                "duration": 0.002272727272726982,
                "tempo": 120.0
            },
            {
                "start_time": 11.613636363636363,
                "end_time": 11.811363636363636,
                "pitch": 96,
                "velocity": 40,
                "duration": 0.1977272727272723,
                "tempo": 120.0
            },
            {
                "start_time": 11.811363636363636,
                "end_time": 12.009090909090908,
                "pitch": 96,
                "velocity": 32,
                "duration": 0.1977272727272723,
                "tempo": 120.0
            },
            {
                "start_time": 12.009090909090908,
                "end_time": 12.218181818181817,
                "pitch": 96,
                "velocity": 25,
                "duration": 0.209090909090909,
                "tempo": 120.0
            },
            {
                "start_time": 12.218181818181817,
                "end_time": 12.427272727272726,
                "pitch": 96,
                "velocity": 20,
                "duration": 0.209090909090909,
                "tempo": 120.0
            },
            {
                "start_time": 12.427272727272726,
                "end_time": 13.263636363636364,
                "pitch": 96,
                "velocity": 16,
                "duration": 0.8363636363636378,
                "tempo": 120.0
            },
            {
                "start_time": 7.25,
                "end_time": 13.263636363636364,
                "pitch": 101,
                "velocity": 40,
                "duration": 6.013636363636364,
                "tempo": 120.0
            },
            {
                "start_time": 13.263636363636364,
                "end_time": 13.46590909090909,
                "pitch": 89,
                "velocity": 40,
                "duration": 0.20227272727272627,
                "tempo": 120.0
            },
            {
                "start_time": 13.46590909090909,
                "end_time": 13.877272727272727,
                "pitch": 86,
                "velocity": 40,
                "duration": 0.41136363636363704,
                "tempo": 120.0
            },
            {
                "start_time": 13.46590909090909,
                "end_time": 13.877272727272727,
                "pitch": 86,
                "velocity": 40,
                "duration": 0.41136363636363704,
                "tempo": 120.0
            },
            {
                "start_time": 13.877272727272727,
                "end_time": 14.086363636363636,
                "pitch": 89,
                "velocity": 32,
                "duration": 0.209090909090909,
                "tempo": 120.0
            },
            {
                "start_time": 13.877272727272727,
                "end_time": 14.086363636363636,
                "pitch": 89,
                "velocity": 40,
                "duration": 0.209090909090909,
                "tempo": 120.0
            },
            {
                "start_time": 14.086363636363636,
                "end_time": 14.497727272727271,
                "pitch": 86,
                "velocity": 32,
                "duration": 0.41136363636363527,
                "tempo": 120.0
            },
            {
                "start_time": 14.086363636363636,
                "end_time": 14.497727272727271,
                "pitch": 86,
                "velocity": 32,
                "duration": 0.41136363636363527,
                "tempo": 120.0
            },
            {
                "start_time": 14.497727272727271,
                "end_time": 14.702272727272726,
                "pitch": 89,
                "velocity": 20,
                "duration": 0.20454545454545503,
                "tempo": 120.0
            },
            {
                "start_time": 14.497727272727271,
                "end_time": 14.702272727272726,
                "pitch": 89,
                "velocity": 32,
                "duration": 0.20454545454545503,
                "tempo": 120.0
            },
            {
                "start_time": 14.702272727272726,
                "end_time": 15.120454545454544,
                "pitch": 86,
                "velocity": 20,
                "duration": 0.418181818181818,
                "tempo": 120.0
            },
            {
                "start_time": 14.702272727272726,
                "end_time": 15.120454545454544,
                "pitch": 86,
                "velocity": 20,
                "duration": 0.418181818181818,
                "tempo": 120.0
            },
            {
                "start_time": 15.120454545454544,
                "end_time": 15.334090909090909,
                "pitch": 89,
                "velocity": 16,
                "duration": 0.21363636363636473,
                "tempo": 120.0
            },
            {
                "start_time": 15.120454545454544,
                "end_time": 15.334090909090909,
                "pitch": 89,
                "velocity": 20,
                "duration": 0.21363636363636473,
                "tempo": 120.0
            },
            {
                "start_time": 15.334090909090909,
                "end_time": 15.736363636363636,
                "pitch": 86,
                "velocity": 16,
                "duration": 0.40227272727272734,
                "tempo": 120.0
            },
            {
                "start_time": 15.334090909090909,
                "end_time": 15.736363636363636,
                "pitch": 86,
                "velocity": 16,
                "duration": 0.40227272727272734,
                "tempo": 120.0
            },
            {
                "start_time": 15.736363636363636,
                "end_time": 15.738636363636363,
                "pitch": 89,
                "velocity": 16,
                "duration": 0.002272727272726982,
                "tempo": 120.0
            },
            {
                "start_time": 15.738636363636363,
                "end_time": 15.945454545454545,
                "pitch": 89,
                "velocity": 10,
                "duration": 0.206818181818182,
                "tempo": 120.0
            },
            {
                "start_time": 15.945454545454545,
                "end_time": 16.35681818181818,
                "pitch": 86,
                "velocity": 10,
                "duration": 0.41136363636363527,
                "tempo": 120.0
            },
            {
                "start_time": 15.945454545454545,
                "end_time": 16.35681818181818,
                "pitch": 86,
                "velocity": 10,
                "duration": 0.41136363636363527,
                "tempo": 120.0
            }
        ],
        "French Horn": [
            {
                "start_time": 16.55909090909091,
                "end_time": 22.518181818181816,
                "pitch": 69,
                "velocity": 51,
                "duration": 5.959090909090907,
                "tempo": 120.0
            },
            {
                "start_time": 22.518181818181816,
                "end_time": 26.968181818181815,
                "pitch": 69,
                "velocity": 51,
                "duration": 4.449999999999999,
                "tempo": 120.0
            },
            {
                "start_time": 26.968181818181815,
                "end_time": 35.824999999999996,
                "pitch": 67,
                "velocity": 51,
                "duration": 8.85681818181818,
                "tempo": 120.0
            },
            {
                "start_time": 35.824999999999996,
                "end_time": 40.26590909090909,
                "pitch": 58,
                "velocity": 32,
                "duration": 4.440909090909095,
                "tempo": 120.0
            },
            {
                "start_time": 40.26590909090909,
                "end_time": 42.96818181818182,
                "pitch": 60,
                "velocity": 32,
                "duration": 2.702272727272728,
                "tempo": 120.0
            },
            {
                "start_time": 40.26590909090909,
                "end_time": 42.96818181818182,
                "pitch": 60,
                "velocity": 32,
                "duration": 2.702272727272728,
                "tempo": 120.0
            },
            {
                "start_time": 42.96818181818182,
                "end_time": 43.538636363636364,
                "pitch": 55,
                "velocity": 32,
                "duration": 0.5704545454545453,
                "tempo": 120.0
            },
            {
                "start_time": 42.96818181818182,
                "end_time": 43.538636363636364,
                "pitch": 55,
                "velocity": 51,
                "duration": 0.5704545454545453,
                "tempo": 120.0
            },
            {
                "start_time": 43.538636363636364,
                "end_time": 44.15681818181818,
                "pitch": 57,
                "velocity": 51,
                "duration": 0.6181818181818173,
                "tempo": 120.0
            },
            {
                "start_time": 44.15681818181818,
                "end_time": 44.78409090909091,
                "pitch": 60,
                "velocity": 51,
                "duration": 0.6272727272727252,
                "tempo": 120.0
            },
            {
                "start_time": 44.15681818181818,
                "end_time": 44.78409090909091,
                "pitch": 60,
                "velocity": 51,
                "duration": 0.6272727272727252,
                "tempo": 120.0
            },
            {
                "start_time": 44.78409090909091,
                "end_time": 49.768181818181816,
                "pitch": 58,
                "velocity": 40,
                "duration": 4.984090909090909,
                "tempo": 120.0
            },
            {
                "start_time": 44.78409090909091,
                "end_time": 49.768181818181816,
                "pitch": 58,
                "velocity": 51,
                "duration": 4.984090909090909,
                "tempo": 120.0
            },
            {
                "start_time": 49.768181818181816,
                "end_time": 61.01136363636363,
                "pitch": 64,
                "velocity": 40,
                "duration": 11.243181818181817,
                "tempo": 120.0
            },
            {
                "start_time": 49.768181818181816,
                "end_time": 61.01136363636363,
                "pitch": 64,
                "velocity": 40,
                "duration": 11.243181818181817,
                "tempo": 120.0
            }
        ],
        "Harpsichord": [
            {
                "start_time": 74.32954545454545,
                "end_time": 74.47045454545454,
                "pitch": 38,
                "velocity": 64,
                "duration": 0.14090909090909065,
                "tempo": 120.0
            },
            {
                "start_time": 74.47045454545454,
                "end_time": 74.61136363636363,
                "pitch": 38,
                "velocity": 64,
                "duration": 0.14090909090909065,
                "tempo": 120.0
            },
            {
                "start_time": 75.17727272727272,
                "end_time": 75.30909090909091,
                "pitch": 38,
                "velocity": 64,
                "duration": 0.13181818181818983,
                "tempo": 120.0
            },
            {
                "start_time": 75.30909090909091,
                "end_time": 75.44090909090909,
                "pitch": 38,
                "velocity": 64,
                "duration": 0.13181818181817562,
                "tempo": 120.0
            },
            {
                "start_time": 76.52045454545454,
                "end_time": 76.65681818181818,
                "pitch": 38,
                "velocity": 64,
                "duration": 0.13636363636364024,
                "tempo": 120.0
            },
            {
                "start_time": 76.65681818181818,
                "end_time": 76.80227272727272,
                "pitch": 38,
                "velocity": 64,
                "duration": 0.14545454545454106,
                "tempo": 120.0
            },
            {
                "start_time": 77.38181818181818,
                "end_time": 77.51818181818182,
                "pitch": 38,
                "velocity": 64,
                "duration": 0.13636363636364024,
                "tempo": 120.0
            },
            {
                "start_time": 77.51818181818182,
                "end_time": 77.65227272727272,
                "pitch": 38,
                "velocity": 64,
                "duration": 0.13409090909090082,
                "tempo": 120.0
            },
            {
                "start_time": 78.74772727272727,
                "end_time": 78.88636363636363,
                "pitch": 38,
                "velocity": 80,
                "duration": 0.13863636363635123,
                "tempo": 120.0
            },
            {
                "start_time": 78.88636363636363,
                "end_time": 79.03636363636363,
                "pitch": 38,
                "velocity": 80,
                "duration": 0.15000000000000568,
                "tempo": 120.0
            },
            {
                "start_time": 79.63863636363637,
                "end_time": 79.76363636363637,
                "pitch": 38,
                "velocity": 80,
                "duration": 0.125,
                "tempo": 120.0
            },
            {
                "start_time": 79.76363636363637,
                "end_time": 79.89090909090909,
                "pitch": 38,
                "velocity": 80,
                "duration": 0.1272727272727252,
                "tempo": 120.0
            },
            {
                "start_time": 80.94318181818181,
                "end_time": 81.06818181818181,
                "pitch": 50,
                "velocity": 101,
                "duration": 0.125,
                "tempo": 120.0
            },
            {
                "start_time": 81.06818181818181,
                "end_time": 81.19545454545454,
                "pitch": 50,
                "velocity": 101,
                "duration": 0.1272727272727252,
                "tempo": 120.0
            },
            {
                "start_time": 81.70227272727273,
                "end_time": 81.93409090909091,
                "pitch": 50,
                "velocity": 101,
                "duration": 0.23181818181818414,
                "tempo": 120.0
            },
            {
                "start_time": 81.93409090909091,
                "end_time": 82.16590909090908,
                "pitch": 50,
                "velocity": 101,
                "duration": 0.23181818181816993,
                "tempo": 120.0
            },
            {
                "start_time": 82.16590909090908,
                "end_time": 82.39772727272727,
                "pitch": 50,
                "velocity": 51,
                "duration": 0.23181818181818414,
                "tempo": 120.0
            },
            {
                "start_time": 82.39999999999999,
                "end_time": 82.63181818181818,
                "pitch": 50,
                "velocity": 25,
                "duration": 0.23181818181818414,
                "tempo": 120.0
            },
            {
                "start_time": 82.63181818181818,
                "end_time": 82.86590909090908,
                "pitch": 50,
                "velocity": 16,
                "duration": 0.23409090909090935,
                "tempo": 120.0
            },
            {
                "start_time": 82.86590909090908,
                "end_time": 83.10227272727272,
                "pitch": 50,
                "velocity": 8,
                "duration": 0.23636363636363455,
                "tempo": 120.0
            },
            {
                "start_time": 83.10227272727272,
                "end_time": 83.33636363636363,
                "pitch": 50,
                "velocity": 6,
                "duration": 0.23409090909090935,
                "tempo": 120.0
            },
            {
                "start_time": 83.33636363636363,
                "end_time": 83.57272727272726,
                "pitch": 50,
                "velocity": 5,
                "duration": 0.23636363636363455,
                "tempo": 120.0
            }
        ],
        "Electric Guitar (clean)": [
            {
                "start_time": 18.21818181818182,
                "end_time": 18.320454545454545,
                "pitch": 38,
                "velocity": 80,
                "duration": 0.10227272727272663,
                "tempo": 120.0
            },
            {
                "start_time": 18.320454545454545,
                "end_time": 18.45,
                "pitch": 38,
                "velocity": 64,
                "duration": 0.12954545454545396,
                "tempo": 120.0
            },
            {
                "start_time": 18.972727272727273,
                "end_time": 19.102272727272727,
                "pitch": 38,
                "velocity": 80,
                "duration": 0.12954545454545396,
                "tempo": 120.0
            },
            {
                "start_time": 19.102272727272727,
                "end_time": 19.23409090909091,
                "pitch": 38,
                "velocity": 64,
                "duration": 0.13181818181818272,
                "tempo": 120.0
            },
            {
                "start_time": 20.3,
                "end_time": 20.436363636363634,
                "pitch": 38,
                "velocity": 80,
                "duration": 0.13636363636363313,
                "tempo": 120.0
            },
            {
                "start_time": 20.436363636363634,
                "end_time": 20.581818181818182,
                "pitch": 38,
                "velocity": 51,
                "duration": 0.14545454545454817,
                "tempo": 120.0
            },
            {
                "start_time": 21.161363636363635,
                "end_time": 21.295454545454543,
                "pitch": 38,
                "velocity": 80,
                "duration": 0.13409090909090793,
                "tempo": 120.0
            },
            {
                "start_time": 21.295454545454543,
                "end_time": 21.43181818181818,
                "pitch": 38,
                "velocity": 51,
                "duration": 0.1363636363636367,
                "tempo": 120.0
            },
            {
                "start_time": 22.518181818181816,
                "end_time": 22.65681818181818,
                "pitch": 38,
                "velocity": 80,
                "duration": 0.13863636363636545,
                "tempo": 120.0
            },
            {
                "start_time": 22.65681818181818,
                "end_time": 22.795454545454543,
                "pitch": 38,
                "velocity": 51,
                "duration": 0.1386363636363619,
                "tempo": 120.0
            },
            {
                "start_time": 23.35681818181818,
                "end_time": 23.495454545454546,
                "pitch": 38,
                "velocity": 80,
                "duration": 0.13863636363636545,
                "tempo": 120.0
            },
            {
                "start_time": 23.495454545454546,
                "end_time": 23.636363636363637,
                "pitch": 38,
                "velocity": 51,
                "duration": 0.14090909090909065,
                "tempo": 120.0
            },
            {
                "start_time": 24.738636363636363,
                "end_time": 24.877272727272725,
                "pitch": 38,
                "velocity": 80,
                "duration": 0.1386363636363619,
                "tempo": 120.0
            },
            {
                "start_time": 24.877272727272725,
                "end_time": 25.02272727272727,
                "pitch": 38,
                "velocity": 51,
                "duration": 0.14545454545454461,
                "tempo": 120.0
            },
            {
                "start_time": 25.602272727272727,
                "end_time": 25.738636363636363,
                "pitch": 38,
                "velocity": 80,
                "duration": 0.1363636363636367,
                "tempo": 120.0
            },
            {
                "start_time": 25.738636363636363,
                "end_time": 25.87272727272727,
                "pitch": 38,
                "velocity": 51,
                "duration": 0.13409090909090793,
                "tempo": 120.0
            },
            {
                "start_time": 26.968181818181815,
                "end_time": 27.104545454545452,
                "pitch": 36,
                "velocity": 80,
                "duration": 0.1363636363636367,
                "tempo": 120.0
            },
            {
                "start_time": 27.104545454545452,
                "end_time": 27.24090909090909,
                "pitch": 36,
                "velocity": 51,
                "duration": 0.1363636363636367,
                "tempo": 120.0
            },
            {
                "start_time": 27.788636363636364,
                "end_time": 27.929545454545455,
                "pitch": 36,
                "velocity": 80,
                "duration": 0.14090909090909065,
                "tempo": 120.0
            },
            {
                "start_time": 27.929545454545455,
                "end_time": 28.070454545454545,
                "pitch": 36,
                "velocity": 51,
                "duration": 0.14090909090909065,
                "tempo": 120.0
            },
            {
                "start_time": 29.172727272727272,
                "end_time": 29.30909090909091,
                "pitch": 36,
                "velocity": 80,
                "duration": 0.1363636363636367,
                "tempo": 120.0
            },
            {
                "start_time": 29.30909090909091,
                "end_time": 29.452272727272724,
                "pitch": 36,
                "velocity": 51,
                "duration": 0.14318181818181586,
                "tempo": 120.0
            },
            {
                "start_time": 30.025,
                "end_time": 30.16363636363636,
                "pitch": 36,
                "velocity": 80,
                "duration": 0.1386363636363619,
                "tempo": 120.0
            },
            {
                "start_time": 30.16363636363636,
                "end_time": 30.299999999999997,
                "pitch": 36,
                "velocity": 51,
                "duration": 0.1363636363636367,
                "tempo": 120.0
            },
            {
                "start_time": 31.368181818181817,
                "end_time": 31.504545454545454,
                "pitch": 36,
                "velocity": 80,
                "duration": 0.1363636363636367,
                "tempo": 120.0
            },
            {
                "start_time": 31.504545454545454,
                "end_time": 31.652272727272727,
                "pitch": 36,
                "velocity": 51,
                "duration": 0.14772727272727337,
                "tempo": 120.0
            },
            {
                "start_time": 32.24772727272727,
                "end_time": 32.38409090909091,
                "pitch": 36,
                "velocity": 80,
                "duration": 0.13636363636364024,
                "tempo": 120.0
            },
            {
                "start_time": 32.38409090909091,
                "end_time": 32.518181818181816,
                "pitch": 36,
                "velocity": 51,
                "duration": 0.13409090909090793,
                "tempo": 120.0
            },
            {
                "start_time": 33.61363636363636,
                "end_time": 33.752272727272725,
                "pitch": 36,
                "velocity": 80,
                "duration": 0.13863636363636545,
                "tempo": 120.0
            },
            {
                "start_time": 33.752272727272725,
                "end_time": 33.89090909090909,
                "pitch": 36,
                "velocity": 51,
                "duration": 0.13863636363636545,
                "tempo": 120.0
            },
            {
                "start_time": 34.45227272727273,
                "end_time": 34.58863636363636,
                "pitch": 36,
                "velocity": 80,
                "duration": 0.13636363636363313,
                "tempo": 120.0
            },
            {
                "start_time": 34.58863636363636,
                "end_time": 34.72727272727273,
                "pitch": 36,
                "velocity": 51,
                "duration": 0.13863636363636545,
                "tempo": 120.0
            },
            {
                "start_time": 35.824999999999996,
                "end_time": 35.96363636363636,
                "pitch": 34,
                "velocity": 80,
                "duration": 0.13863636363636545,
                "tempo": 120.0
            },
            {
                "start_time": 35.96363636363636,
                "end_time": 36.10681818181818,
                "pitch": 34,
                "velocity": 51,
                "duration": 0.14318181818181586,
                "tempo": 120.0
            },
            {
                "start_time": 36.679545454545455,
                "end_time": 36.81590909090909,
                "pitch": 34,
                "velocity": 80,
                "duration": 0.13636363636363313,
                "tempo": 120.0
            },
            {
                "start_time": 36.81590909090909,
                "end_time": 36.95454545454545,
                "pitch": 34,
                "velocity": 51,
                "duration": 0.13863636363636545,
                "tempo": 120.0
            },
            {
                "start_time": 38.038636363636364,
                "end_time": 38.175,
                "pitch": 34,
                "velocity": 80,
                "duration": 0.13636363636363313,
                "tempo": 120.0
            },
            {
                "start_time": 38.175,
                "end_time": 38.320454545454545,
                "pitch": 34,
                "velocity": 51,
                "duration": 0.14545454545454817,
                "tempo": 120.0
            },
            {
                "start_time": 38.9,
                "end_time": 39.03636363636363,
                "pitch": 34,
                "velocity": 80,
                "duration": 0.13636363636363313,
                "tempo": 120.0
            },
            {
                "start_time": 39.03636363636363,
                "end_time": 39.17045454545455,
                "pitch": 34,
                "velocity": 51,
                "duration": 0.13409090909091503,
                "tempo": 120.0
            },
            {
                "start_time": 40.26590909090909,
                "end_time": 40.404545454545456,
                "pitch": 33,
                "velocity": 80,
                "duration": 0.13863636363636545,
                "tempo": 120.0
            },
            {
                "start_time": 40.404545454545456,
                "end_time": 40.543181818181814,
                "pitch": 33,
                "velocity": 51,
                "duration": 0.13863636363635834,
                "tempo": 120.0
            },
            {
                "start_time": 41.095454545454544,
                "end_time": 41.23409090909091,
                "pitch": 33,
                "velocity": 80,
                "duration": 0.13863636363636545,
                "tempo": 120.0
            },
            {
                "start_time": 41.23409090909091,
                "end_time": 41.375,
                "pitch": 33,
                "velocity": 51,
                "duration": 0.14090909090909065,
                "tempo": 120.0
            },
            {
                "start_time": 42.44772727272727,
                "end_time": 42.57727272727273,
                "pitch": 33,
                "velocity": 80,
                "duration": 0.12954545454545752,
                "tempo": 120.0
            },
            {
                "start_time": 42.57727272727273,
                "end_time": 42.70681818181818,
                "pitch": 33,
                "velocity": 51,
                "duration": 0.1295454545454504,
                "tempo": 120.0
            },
            {
                "start_time": 43.22954545454545,
                "end_time": 43.38409090909091,
                "pitch": 33,
                "velocity": 80,
                "duration": 0.1545454545454561,
                "tempo": 120.0
            },
            {
                "start_time": 43.38409090909091,
                "end_time": 43.538636363636364,
                "pitch": 33,
                "velocity": 51,
                "duration": 0.1545454545454561,
                "tempo": 120.0
            },
            {
                "start_time": 44.78409090909091,
                "end_time": 44.94090909090909,
                "pitch": 34,
                "velocity": 80,
                "duration": 0.1568181818181813,
                "tempo": 120.0
            },
            {
                "start_time": 44.94090909090909,
                "end_time": 45.09772727272727,
                "pitch": 34,
                "velocity": 51,
                "duration": 0.1568181818181813,
                "tempo": 120.0
            },
            {
                "start_time": 45.71818181818182,
                "end_time": 45.87272727272727,
                "pitch": 34,
                "velocity": 80,
                "duration": 0.154545454545449,
                "tempo": 120.0
            },
            {
                "start_time": 45.87272727272727,
                "end_time": 46.027272727272724,
                "pitch": 34,
                "velocity": 51,
                "duration": 0.1545454545454561,
                "tempo": 120.0
            },
            {
                "start_time": 47.27045454545454,
                "end_time": 47.42727272727272,
                "pitch": 34,
                "velocity": 80,
                "duration": 0.1568181818181813,
                "tempo": 120.0
            },
            {
                "start_time": 47.42727272727272,
                "end_time": 47.584090909090904,
                "pitch": 34,
                "velocity": 51,
                "duration": 0.1568181818181813,
                "tempo": 120.0
            },
            {
                "start_time": 48.20681818181818,
                "end_time": 48.361363636363635,
                "pitch": 34,
                "velocity": 80,
                "duration": 0.1545454545454561,
                "tempo": 120.0
            },
            {
                "start_time": 48.361363636363635,
                "end_time": 48.51590909090909,
                "pitch": 34,
                "velocity": 51,
                "duration": 0.1545454545454561,
                "tempo": 120.0
            },
            {
                "start_time": 49.768181818181816,
                "end_time": 49.92272727272727,
                "pitch": 37,
                "velocity": 80,
                "duration": 0.1545454545454561,
                "tempo": 120.0
            },
            {
                "start_time": 49.92272727272727,
                "end_time": 50.07727272727273,
                "pitch": 37,
                "velocity": 51,
                "duration": 0.1545454545454561,
                "tempo": 120.0
            },
            {
                "start_time": 50.695454545454545,
                "end_time": 50.85227272727273,
                "pitch": 37,
                "velocity": 80,
                "duration": 0.1568181818181813,
                "tempo": 120.0
            },
            {
                "start_time": 50.85227272727273,
                "end_time": 51.00681818181818,
                "pitch": 37,
                "velocity": 64,
                "duration": 0.1545454545454561,
                "tempo": 120.0
            },
            {
                "start_time": 52.168181818181814,
                "end_time": 52.304545454545455,
                "pitch": 37,
                "velocity": 80,
                "duration": 0.13636363636364024,
                "tempo": 120.0
            },
            {
                "start_time": 52.304545454545455,
                "end_time": 52.44318181818181,
                "pitch": 37,
                "velocity": 64,
                "duration": 0.13863636363635834,
                "tempo": 120.0
            },
            {
                "start_time": 52.99772727272727,
                "end_time": 53.13409090909091,
                "pitch": 37,
                "velocity": 80,
                "duration": 0.13636363636364024,
                "tempo": 120.0
            },
            {
                "start_time": 53.13409090909091,
                "end_time": 53.27272727272727,
                "pitch": 37,
                "velocity": 64,
                "duration": 0.13863636363636545,
                "tempo": 120.0
            },
            {
                "start_time": 54.36363636363636,
                "end_time": 54.5,
                "pitch": 38,
                "velocity": 80,
                "duration": 0.13636363636364024,
                "tempo": 120.0
            },
            {
                "start_time": 54.5,
                "end_time": 54.64545454545454,
                "pitch": 38,
                "velocity": 51,
                "duration": 0.14545454545454106,
                "tempo": 120.0
            },
            {
                "start_time": 55.22727272727273,
                "end_time": 55.36363636363636,
                "pitch": 38,
                "velocity": 80,
                "duration": 0.13636363636363313,
                "tempo": 120.0
            },
            {
                "start_time": 55.36363636363636,
                "end_time": 55.5,
                "pitch": 38,
                "velocity": 51,
                "duration": 0.13636363636364024,
                "tempo": 120.0
            },
            {
                "start_time": 56.62272727272727,
                "end_time": 56.76590909090909,
                "pitch": 38,
                "velocity": 80,
                "duration": 0.14318181818182296,
                "tempo": 120.0
            },
            {
                "start_time": 56.76590909090909,
                "end_time": 56.90454545454545,
                "pitch": 38,
                "velocity": 51,
                "duration": 0.13863636363635834,
                "tempo": 120.0
            },
            {
                "start_time": 57.46363636363636,
                "end_time": 57.59772727272727,
                "pitch": 38,
                "velocity": 80,
                "duration": 0.13409090909090793,
                "tempo": 120.0
            },
            {
                "start_time": 57.59772727272727,
                "end_time": 57.72954545454545,
                "pitch": 38,
                "velocity": 51,
                "duration": 0.13181818181818272,
                "tempo": 120.0
            },
            {
                "start_time": 58.80681818181818,
                "end_time": 58.94318181818181,
                "pitch": 38,
                "velocity": 80,
                "duration": 0.13636363636363313,
                "tempo": 120.0
            },
            {
                "start_time": 58.94318181818181,
                "end_time": 59.08863636363636,
                "pitch": 38,
                "velocity": 51,
                "duration": 0.14545454545454817,
                "tempo": 120.0
            },
            {
                "start_time": 59.668181818181814,
                "end_time": 59.8,
                "pitch": 38,
                "velocity": 80,
                "duration": 0.13181818181818272,
                "tempo": 120.0
            },
            {
                "start_time": 59.8,
                "end_time": 59.93181818181818,
                "pitch": 38,
                "velocity": 51,
                "duration": 0.13181818181818272,
                "tempo": 120.0
            },
            {
                "start_time": 61.01136363636363,
                "end_time": 61.147727272727266,
                "pitch": 38,
                "velocity": 80,
                "duration": 0.13636363636363313,
                "tempo": 120.0
            },
            {
                "start_time": 61.147727272727266,
                "end_time": 61.293181818181814,
                "pitch": 38,
                "velocity": 51,
                "duration": 0.14545454545454817,
                "tempo": 120.0
            },
            {
                "start_time": 61.87272727272727,
                "end_time": 62.00909090909091,
                "pitch": 38,
                "velocity": 80,
                "duration": 0.13636363636364024,
                "tempo": 120.0
            },
            {
                "start_time": 62.00909090909091,
                "end_time": 62.143181818181816,
                "pitch": 38,
                "velocity": 51,
                "duration": 0.13409090909090793,
                "tempo": 120.0
            },
            {
                "start_time": 63.23181818181818,
                "end_time": 63.37045454545454,
                "pitch": 38,
                "velocity": 80,
                "duration": 0.13863636363636545,
                "tempo": 120.0
            },
            {
                "start_time": 63.37045454545454,
                "end_time": 63.51363636363636,
                "pitch": 38,
                "velocity": 51,
                "duration": 0.14318181818181586,
                "tempo": 120.0
            },
            {
                "start_time": 64.08636363636363,
                "end_time": 64.22045454545454,
                "pitch": 38,
                "velocity": 80,
                "duration": 0.13409090909091503,
                "tempo": 120.0
            },
            {
                "start_time": 64.22045454545454,
                "end_time": 64.35681818181818,
                "pitch": 38,
                "velocity": 51,
                "duration": 0.13636363636364024,
                "tempo": 120.0
            },
            {
                "start_time": 65.44318181818181,
                "end_time": 65.58181818181818,
                "pitch": 38,
                "velocity": 80,
                "duration": 0.13863636363636545,
                "tempo": 120.0
            },
            {
                "start_time": 65.58181818181818,
                "end_time": 65.72954545454544,
                "pitch": 38,
                "velocity": 51,
                "duration": 0.14772727272726627,
                "tempo": 120.0
            },
            {
                "start_time": 66.325,
                "end_time": 66.45681818181818,
                "pitch": 38,
                "velocity": 80,
                "duration": 0.13181818181817562,
                "tempo": 120.0
            },
            {
                "start_time": 66.45681818181818,
                "end_time": 66.58863636363635,
                "pitch": 38,
                "velocity": 51,
                "duration": 0.13181818181817562,
                "tempo": 120.0
            },
            {
                "start_time": 67.66590909090908,
                "end_time": 67.80454545454545,
                "pitch": 38,
                "velocity": 80,
                "duration": 0.13863636363636545,
                "tempo": 120.0
            },
            {
                "start_time": 67.80454545454545,
                "end_time": 67.95,
                "pitch": 38,
                "velocity": 51,
                "duration": 0.14545454545455527,
                "tempo": 120.0
            },
            {
                "start_time": 68.52954545454546,
                "end_time": 68.66136363636363,
                "pitch": 38,
                "velocity": 80,
                "duration": 0.13181818181817562,
                "tempo": 120.0
            },
            {
                "start_time": 68.66136363636363,
                "end_time": 68.79318181818182,
                "pitch": 38,
                "velocity": 51,
                "duration": 0.13181818181818983,
                "tempo": 120.0
            },
            {
                "start_time": 69.87045454545454,
                "end_time": 70.0090909090909,
                "pitch": 38,
                "velocity": 80,
                "duration": 0.13863636363636545,
                "tempo": 120.0
            },
            {
                "start_time": 70.0090909090909,
                "end_time": 70.15454545454546,
                "pitch": 38,
                "velocity": 51,
                "duration": 0.14545454545455527,
                "tempo": 120.0
            },
            {
                "start_time": 70.73409090909091,
                "end_time": 70.87045454545454,
                "pitch": 38,
                "velocity": 80,
                "duration": 0.13636363636362603,
                "tempo": 120.0
            },
            {
                "start_time": 70.87045454545454,
                "end_time": 71.00454545454545,
                "pitch": 38,
                "velocity": 51,
                "duration": 0.13409090909091503,
                "tempo": 120.0
            },
            {
                "start_time": 72.09318181818182,
                "end_time": 72.22954545454544,
                "pitch": 38,
                "velocity": 101,
                "duration": 0.13636363636362603,
                "tempo": 120.0
            },
            {
                "start_time": 72.22954545454544,
                "end_time": 72.37954545454545,
                "pitch": 38,
                "velocity": 80,
                "duration": 0.15000000000000568,
                "tempo": 120.0
            },
            {
                "start_time": 72.97272727272727,
                "end_time": 73.10454545454544,
                "pitch": 38,
                "velocity": 101,
                "duration": 0.13181818181817562,
                "tempo": 120.0
            },
            {
                "start_time": 73.10454545454544,
                "end_time": 73.23409090909091,
                "pitch": 38,
                "velocity": 80,
                "duration": 0.12954545454546462,
                "tempo": 120.0
            },
            {
                "start_time": 74.32954545454545,
                "end_time": 74.47045454545454,
                "pitch": 38,
                "velocity": 127,
                "duration": 0.14090909090909065,
                "tempo": 120.0
            },
            {
                "start_time": 74.47045454545454,
                "end_time": 74.61136363636363,
                "pitch": 38,
                "velocity": 101,
                "duration": 0.14090909090909065,
                "tempo": 120.0
            },
            {
                "start_time": 75.17727272727272,
                "end_time": 75.30909090909091,
                "pitch": 38,
                "velocity": 127,
                "duration": 0.13181818181818983,
                "tempo": 120.0
            },
            {
                "start_time": 75.30909090909091,
                "end_time": 75.44090909090909,
                "pitch": 38,
                "velocity": 101,
                "duration": 0.13181818181817562,
                "tempo": 120.0
            },
            {
                "start_time": 76.52045454545454,
                "end_time": 76.65681818181818,
                "pitch": 38,
                "velocity": 127,
                "duration": 0.13636363636364024,
                "tempo": 120.0
            },
            {
                "start_time": 76.65681818181818,
                "end_time": 76.80227272727272,
                "pitch": 38,
                "velocity": 101,
                "duration": 0.14545454545454106,
                "tempo": 120.0
            },
            {
                "start_time": 77.3840909090909,
                "end_time": 77.51818181818182,
                "pitch": 38,
                "velocity": 127,
                "duration": 0.13409090909091503,
                "tempo": 120.0
            },
            {
                "start_time": 77.51818181818182,
                "end_time": 77.65227272727272,
                "pitch": 38,
                "velocity": 101,
                "duration": 0.13409090909090082,
                "tempo": 120.0
            },
            {
                "start_time": 78.74772727272727,
                "end_time": 78.88636363636363,
                "pitch": 38,
                "velocity": 101,
                "duration": 0.13863636363635123,
                "tempo": 120.0
            },
            {
                "start_time": 78.88636363636363,
                "end_time": 79.03636363636363,
                "pitch": 38,
                "velocity": 101,
                "duration": 0.15000000000000568,
                "tempo": 120.0
            },
            {
                "start_time": 79.63863636363637,
                "end_time": 79.76363636363637,
                "pitch": 38,
                "velocity": 101,
                "duration": 0.125,
                "tempo": 120.0
            },
            {
                "start_time": 79.76363636363637,
                "end_time": 79.89090909090909,
                "pitch": 38,
                "velocity": 101,
                "duration": 0.1272727272727252,
                "tempo": 120.0
            },
            {
                "start_time": 80.94318181818181,
                "end_time": 81.06818181818181,
                "pitch": 38,
                "velocity": 101,
                "duration": 0.125,
                "tempo": 120.0
            },
            {
                "start_time": 81.06818181818181,
                "end_time": 81.19545454545454,
                "pitch": 38,
                "velocity": 101,
                "duration": 0.1272727272727252,
                "tempo": 120.0
            },
            {
                "start_time": 81.70227272727273,
                "end_time": 81.93409090909091,
                "pitch": 38,
                "velocity": 101,
                "duration": 0.23181818181818414,
                "tempo": 120.0
            },
            {
                "start_time": 81.93409090909091,
                "end_time": 82.16590909090908,
                "pitch": 38,
                "velocity": 101,
                "duration": 0.23181818181816993,
                "tempo": 120.0
            },
            {
                "start_time": 82.16590909090908,
                "end_time": 82.39999999999999,
                "pitch": 38,
                "velocity": 51,
                "duration": 0.23409090909090935,
                "tempo": 120.0
            },
            {
                "start_time": 82.39999999999999,
                "end_time": 82.63181818181818,
                "pitch": 38,
                "velocity": 32,
                "duration": 0.23181818181818414,
                "tempo": 120.0
            },
            {
                "start_time": 82.63181818181818,
                "end_time": 82.86590909090908,
                "pitch": 38,
                "velocity": 16,
                "duration": 0.23409090909090935,
                "tempo": 120.0
            },
            {
                "start_time": 82.86590909090908,
                "end_time": 83.10227272727272,
                "pitch": 38,
                "velocity": 8,
                "duration": 0.23636363636363455,
                "tempo": 120.0
            },
            {
                "start_time": 83.10227272727272,
                "end_time": 83.33636363636363,
                "pitch": 38,
                "velocity": 6,
                "duration": 0.23409090909090935,
                "tempo": 120.0
            },
            {
                "start_time": 83.33636363636363,
                "end_time": 83.57272727272726,
                "pitch": 38,
                "velocity": 5,
                "duration": 0.23636363636363455,
                "tempo": 120.0
            }
        ]
    }
}