{
    "track_id": "Shanghai (FM) - 05 - Dragon",
    "mood": "sad",
    "instruments": {
        "Electric Guitar (clean)": [
            {
                "start_time": 0.00909090909090909,
                "end_time": 0.6931818181818181,
                "pitch": 45,
                "velocity": 64,
                "duration": 0.6840909090909091,
                "tempo": 120.0
            },
            {
                "start_time": 0.7113636363636363,
                "end_time": 1.05,
                "pitch": 45,
                "velocity": 64,
                "duration": 0.33863636363636374,
                "tempo": 120.0
            },
            {
                "start_time": 1.065909090909091,
                "end_time": 2.4795454545454545,
                "pitch": 43,
                "velocity": 64,
                "duration": 1.4136363636363636,
                "tempo": 120.0
            },
            {
                "start_time": 2.4977272727272726,
                "end_time": 2.852272727272727,
                "pitch": 43,
                "velocity": 64,
                "duration": 0.3545454545454545,
                "tempo": 120.0
            },
            {
                "start_time": 2.870454545454545,
                "end_time": 3.5727272727272728,
                "pitch": 48,
                "velocity": 64,
                "duration": 0.7022727272727276,
                "tempo": 120.0
            },
            {
                "start_time": 3.5886363636363634,
                "end_time": 3.925,
                "pitch": 48,
                "velocity": 64,
                "duration": 0.3363636363636364,
                "tempo": 120.0
            },
            {
                "start_time": 3.9568181818181816,
                "end_time": 5.375,
                "pitch": 46,
                "velocity": 64,
                "duration": 1.4181818181818184,
                "tempo": 120.0
            },
            {
                "start_time": 5.393181818181818,
                "end_time": 5.722727272727273,
                "pitch": 46,
                "velocity": 64,
                "duration": 0.32954545454545503,
                "tempo": 120.0
            },
            {
                "start_time": 5.756818181818182,
                "end_time": 6.468181818181818,
                "pitch": 45,
                "velocity": 64,
                "duration": 0.711363636363636,
                "tempo": 120.0
            },
            {
                "start_time": 6.4840909090909085,
                "end_time": 6.8181818181818175,
                "pitch": 45,
                "velocity": 64,
                "duration": 0.334090909090909,
                "tempo": 120.0
            },
            {
                "start_time": 6.836363636363636,
                "end_time": 8.26590909090909,
                "pitch": 43,
                "velocity": 64,
                "duration": 1.4295454545454547,
                "tempo": 120.0
            },
            {
                "start_time": 8.284090909090908,
                "end_time": 8.618181818181817,
                "pitch": 43,
                "velocity": 64,
                "duration": 0.334090909090909,
                "tempo": 120.0
            },
            {
                "start_time": 8.634090909090908,
                "end_time": 9.338636363636363,
                "pitch": 48,
                "velocity": 64,
                "duration": 0.704545454545455,
                "tempo": 120.0
            },
            {
                "start_time": 9.370454545454544,
                "end_time": 9.709090909090909,
                "pitch": 48,
                "velocity": 64,
                "duration": 0.33863636363636473,
                "tempo": 120.0
            },
            {
                "start_time": 9.727272727272727,
                "end_time": 11.154545454545454,
                "pitch": 46,
                "velocity": 64,
                "duration": 1.4272727272727277,
                "tempo": 120.0
            },
            {
                "start_time": 11.186363636363636,
                "end_time": 11.704545454545453,
                "pitch": 46,
                "velocity": 64,
                "duration": 0.5181818181818176,
                "tempo": 120.0
            },
            {
                "start_time": 11.720454545454546,
                "end_time": 12.415909090909091,
                "pitch": 40,
                "velocity": 64,
                "duration": 0.6954545454545453,
                "tempo": 120.0
            },
            {
                "start_time": 12.434090909090909,
                "end_time": 12.784090909090908,
                "pitch": 52,
                "velocity": 64,
                "duration": 0.34999999999999964,
                "tempo": 120.0
            },
            {
                "start_time": 12.802272727272726,
                "end_time": 12.952272727272726,
                "pitch": 40,
                "velocity": 64,
                "duration": 0.15000000000000036,
                "tempo": 120.0
            },
            {
                "start_time": 12.986363636363636,
                "end_time": 13.138636363636364,
                "pitch": 41,
                "velocity": 64,
                "duration": 0.15227272727272734,
                "tempo": 120.0
            },
            {
                "start_time": 13.154545454545454,
                "end_time": 13.86590909090909,
                "pitch": 41,
                "velocity": 64,
                "duration": 0.711363636363636,
                "tempo": 120.0
            },
            {
                "start_time": 13.897727272727272,
                "end_time": 14.234090909090908,
                "pitch": 53,
                "velocity": 64,
                "duration": 0.336363636363636,
                "tempo": 120.0
            },
            {
                "start_time": 14.25,
                "end_time": 14.418181818181818,
                "pitch": 41,
                "velocity": 64,
                "duration": 0.168181818181818,
                "tempo": 120.0
            },
            {
                "start_time": 14.434090909090909,
                "end_time": 17.279545454545453,
                "pitch": 40,
                "velocity": 64,
                "duration": 2.845454545454544,
                "tempo": 120.0
            }
        ],
        "Lead 2 (sawtooth)": [
            {
                "start_time": 0.00909090909090909,
                "end_time": 0.024999999999999998,
                "pitch": 78,
                "velocity": 40,
                "duration": 0.015909090909090907,
                "tempo": 120.0
            },
            {
                "start_time": 0.05909090909090909,
                "end_time": 0.759090909090909,
                "pitch": 64,
                "velocity": 40,
                "duration": 0.7,
                "tempo": 120.0
            },
            {
                "start_time": 0.7749999999999999,
                "end_time": 1.0977272727272727,
                "pitch": 64,
                "velocity": 40,
                "duration": 0.32272727272727275,
                "tempo": 120.0
            },
            {
                "start_time": 1.1136363636363635,
                "end_time": 2.5477272727272724,
                "pitch": 62,
                "velocity": 40,
                "duration": 1.4340909090909089,
                "tempo": 120.0
            },
            {
                "start_time": 2.565909090909091,
                "end_time": 2.9022727272727273,
                "pitch": 62,
                "velocity": 40,
                "duration": 0.3363636363636364,
                "tempo": 120.0
            },
            {
                "start_time": 2.9204545454545454,
                "end_time": 3.6227272727272726,
                "pitch": 67,
                "velocity": 40,
                "duration": 0.7022727272727272,
                "tempo": 120.0
            },
            {
                "start_time": 3.6568181818181817,
                "end_time": 3.9909090909090907,
                "pitch": 67,
                "velocity": 40,
                "duration": 0.334090909090909,
                "tempo": 120.0
            },
            {
                "start_time": 4.006818181818182,
                "end_time": 5.425,
                "pitch": 65,
                "velocity": 40,
                "duration": 1.418181818181818,
                "tempo": 120.0
            },
            {
                "start_time": 5.459090909090909,
                "end_time": 5.790909090909091,
                "pitch": 65,
                "velocity": 40,
                "duration": 0.331818181818182,
                "tempo": 120.0
            },
            {
                "start_time": 5.806818181818182,
                "end_time": 6.518181818181818,
                "pitch": 64,
                "velocity": 40,
                "duration": 0.711363636363636,
                "tempo": 120.0
            },
            {
                "start_time": 6.534090909090909,
                "end_time": 6.886363636363636,
                "pitch": 64,
                "velocity": 40,
                "duration": 0.3522727272727266,
                "tempo": 120.0
            },
            {
                "start_time": 6.902272727272727,
                "end_time": 8.315909090909091,
                "pitch": 62,
                "velocity": 40,
                "duration": 1.413636363636364,
                "tempo": 120.0
            },
            {
                "start_time": 8.334090909090909,
                "end_time": 8.684090909090909,
                "pitch": 62,
                "velocity": 40,
                "duration": 0.34999999999999964,
                "tempo": 120.0
            },
            {
                "start_time": 8.702272727272726,
                "end_time": 9.404545454545454,
                "pitch": 67,
                "velocity": 40,
                "duration": 0.702272727272728,
                "tempo": 120.0
            },
            {
                "start_time": 9.422727272727272,
                "end_time": 9.777272727272727,
                "pitch": 67,
                "velocity": 40,
                "duration": 0.3545454545454554,
                "tempo": 120.0
            },
            {
                "start_time": 9.795454545454545,
                "end_time": 11.220454545454546,
                "pitch": 65,
                "velocity": 40,
                "duration": 1.4250000000000007,
                "tempo": 120.0
            },
            {
                "start_time": 11.236363636363636,
                "end_time": 11.754545454545454,
                "pitch": 65,
                "velocity": 40,
                "duration": 0.5181818181818176,
                "tempo": 120.0
            },
            {
                "start_time": 11.786363636363635,
                "end_time": 12.48409090909091,
                "pitch": 81,
                "velocity": 40,
                "duration": 0.6977272727272741,
                "tempo": 120.0
            },
            {
                "start_time": 12.5,
                "end_time": 12.652272727272727,
                "pitch": 79,
                "velocity": 40,
                "duration": 0.15227272727272734,
                "tempo": 120.0
            },
            {
                "start_time": 12.684090909090909,
                "end_time": 12.836363636363636,
                "pitch": 81,
                "velocity": 40,
                "duration": 0.15227272727272734,
                "tempo": 120.0
            },
            {
                "start_time": 12.852272727272727,
                "end_time": 13.393181818181818,
                "pitch": 79,
                "velocity": 40,
                "duration": 0.540909090909091,
                "tempo": 120.0
            },
            {
                "start_time": 13.409090909090908,
                "end_time": 13.931818181818182,
                "pitch": 86,
                "velocity": 40,
                "duration": 0.5227272727272734,
                "tempo": 120.0
            },
            {
                "start_time": 13.947727272727272,
                "end_time": 14.11590909090909,
                "pitch": 84,
                "velocity": 40,
                "duration": 0.168181818181818,
                "tempo": 120.0
            },
            {
                "start_time": 14.131818181818181,
                "end_time": 14.299999999999999,
                "pitch": 84,
                "velocity": 40,
                "duration": 0.168181818181818,
                "tempo": 120.0
            },
            {
                "start_time": 14.31590909090909,
                "end_time": 14.468181818181817,
                "pitch": 84,
                "velocity": 40,
                "duration": 0.15227272727272734,
                "tempo": 120.0
            },
            {
                "start_time": 14.5,
                "end_time": 17.329545454545453,
                "pitch": 81,
                "velocity": 40,
                "duration": 2.8295454545454533,
                "tempo": 120.0
            }
        ]
    }
}