{
    "track_id": "Solomon no Kagi (FM) - 09 - Death",
    "mood": "sad",
    "instruments": {
        "Oboe": [
            {
                "start_time": 0.0,
                "end_time": 0.015909090909090907,
                "pitch": 56,
                "velocity": 51,
                "duration": 0.015909090909090907,
                "tempo": 120.0
            },
            {
                "start_time": 0.015909090909090907,
                "end_time": 0.03409090909090909,
                "pitch": 57,
                "velocity": 51,
                "duration": 0.01818181818181818,
                "tempo": 120.0
            },
            {
                "start_time": 0.03409090909090909,
                "end_time": 0.049999999999999996,
                "pitch": 58,
                "velocity": 51,
                "duration": 0.015909090909090907,
                "tempo": 120.0
            },
            {
                "start_time": 0.049999999999999996,
                "end_time": 0.0659090909090909,
                "pitch": 59,
                "velocity": 51,
                "duration": 0.015909090909090907,
                "tempo": 120.0
            },
            {
                "start_time": 0.0659090909090909,
                "end_time": 0.08181818181818182,
                "pitch": 60,
                "velocity": 51,
                "duration": 0.015909090909090914,
                "tempo": 120.0
            },
            {
                "start_time": 0.08181818181818182,
                "end_time": 0.22954545454545452,
                "pitch": 63,
                "velocity": 51,
                "duration": 0.1477272727272727,
                "tempo": 120.0
            },
            {
                "start_time": 0.29318181818181815,
                "end_time": 0.46136363636363636,
                "pitch": 62,
                "velocity": 51,
                "duration": 0.1681818181818182,
                "tempo": 120.0
            },
            {
                "start_time": 0.49318181818181817,
                "end_time": 0.7931818181818181,
                "pitch": 59,
                "velocity": 51,
                "duration": 0.29999999999999993,
                "tempo": 120.0
            },
            {
                "start_time": 0.8931818181818182,
                "end_time": 1.1954545454545453,
                "pitch": 60,
                "velocity": 51,
                "duration": 0.30227272727272714,
                "tempo": 120.0
            },
            {
                "start_time": 1.2954545454545454,
                "end_time": 1.3272727272727272,
                "pitch": 56,
                "velocity": 51,
                "duration": 0.031818181818181746,
                "tempo": 120.0
            },
            {
                "start_time": 1.3272727272727272,
                "end_time": 1.3613636363636363,
                "pitch": 57,
                "velocity": 51,
                "duration": 0.03409090909090917,
                "tempo": 120.0
            },
            {
                "start_time": 1.3613636363636363,
                "end_time": 1.3954545454545453,
                "pitch": 58,
                "velocity": 51,
                "duration": 0.03409090909090895,
                "tempo": 120.0
            },
            {
                "start_time": 1.3954545454545453,
                "end_time": 1.4272727272727272,
                "pitch": 59,
                "velocity": 51,
                "duration": 0.03181818181818197,
                "tempo": 120.0
            },
            {
                "start_time": 1.4272727272727272,
                "end_time": 1.4613636363636362,
                "pitch": 60,
                "velocity": 51,
                "duration": 0.03409090909090895,
                "tempo": 120.0
            },
            {
                "start_time": 1.4613636363636362,
                "end_time": 1.4954545454545454,
                "pitch": 61,
                "velocity": 51,
                "duration": 0.03409090909090917,
                "tempo": 120.0
            },
            {
                "start_time": 1.4954545454545454,
                "end_time": 1.5272727272727271,
                "pitch": 62,
                "velocity": 51,
                "duration": 0.031818181818181746,
                "tempo": 120.0
            },
            {
                "start_time": 1.5272727272727271,
                "end_time": 1.5613636363636363,
                "pitch": 63,
                "velocity": 51,
                "duration": 0.03409090909090917,
                "tempo": 120.0
            },
            {
                "start_time": 1.5613636363636363,
                "end_time": 1.5954545454545455,
                "pitch": 64,
                "velocity": 51,
                "duration": 0.03409090909090917,
                "tempo": 120.0
            },
            {
                "start_time": 1.5954545454545455,
                "end_time": 1.6272727272727272,
                "pitch": 65,
                "velocity": 51,
                "duration": 0.031818181818181746,
                "tempo": 120.0
            },
            {
                "start_time": 1.6272727272727272,
                "end_time": 1.6613636363636364,
                "pitch": 66,
                "velocity": 51,
                "duration": 0.03409090909090917,
                "tempo": 120.0
            },
            {
                "start_time": 1.6613636363636364,
                "end_time": 1.6954545454545453,
                "pitch": 67,
                "velocity": 51,
                "duration": 0.03409090909090895,
                "tempo": 120.0
            },
            {
                "start_time": 1.6954545454545453,
                "end_time": 1.9954545454545454,
                "pitch": 68,
                "velocity": 51,
                "duration": 0.30000000000000004,
                "tempo": 120.0
            },
            {
                "start_time": 2.0954545454545452,
                "end_time": 2.495454545454545,
                "pitch": 67,
                "velocity": 51,
                "duration": 0.3999999999999999,
                "tempo": 120.0
            }
        ],
        "Lead 2 (sawtooth)": [
            {
                "start_time": 0.0,
                "end_time": 0.015909090909090907,
                "pitch": 80,
                "velocity": 51,
                "duration": 0.015909090909090907,
                "tempo": 120.0
            },
            {
                "start_time": 0.015909090909090907,
                "end_time": 0.03409090909090909,
                "pitch": 81,
                "velocity": 51,
                "duration": 0.01818181818181818,
                "tempo": 120.0
            },
            {
                "start_time": 0.03409090909090909,
                "end_time": 0.049999999999999996,
                "pitch": 82,
                "velocity": 51,
                "duration": 0.015909090909090907,
                "tempo": 120.0
            },
            {
                "start_time": 0.049999999999999996,
                "end_time": 0.0659090909090909,
                "pitch": 83,
                "velocity": 51,
                "duration": 0.015909090909090907,
                "tempo": 120.0
            },
            {
                "start_time": 0.0659090909090909,
                "end_time": 0.08181818181818182,
                "pitch": 84,
                "velocity": 51,
                "duration": 0.015909090909090914,
                "tempo": 120.0
            },
            {
                "start_time": 0.08181818181818182,
                "end_time": 0.22954545454545452,
                "pitch": 87,
                "velocity": 51,
                "duration": 0.1477272727272727,
                "tempo": 120.0
            },
            {
                "start_time": 0.29318181818181815,
                "end_time": 0.46136363636363636,
                "pitch": 86,
                "velocity": 51,
                "duration": 0.1681818181818182,
                "tempo": 120.0
            },
            {
                "start_time": 0.49318181818181817,
                "end_time": 0.7931818181818181,
                "pitch": 83,
                "velocity": 51,
                "duration": 0.29999999999999993,
                "tempo": 120.0
            },
            {
                "start_time": 0.8931818181818182,
                "end_time": 1.1954545454545453,
                "pitch": 84,
                "velocity": 51,
                "duration": 0.30227272727272714,
                "tempo": 120.0
            },
            {
                "start_time": 1.2954545454545454,
                "end_time": 1.3272727272727272,
                "pitch": 80,
                "velocity": 51,
                "duration": 0.031818181818181746,
                "tempo": 120.0
            },
            {
                "start_time": 1.3272727272727272,
                "end_time": 1.3613636363636363,
                "pitch": 81,
                "velocity": 51,
                "duration": 0.03409090909090917,
                "tempo": 120.0
            },
            {
                "start_time": 1.3613636363636363,
                "end_time": 1.3954545454545453,
                "pitch": 82,
                "velocity": 51,
                "duration": 0.03409090909090895,
                "tempo": 120.0
            },
            {
                "start_time": 1.3954545454545453,
                "end_time": 1.4272727272727272,
                "pitch": 83,
                "velocity": 51,
                "duration": 0.03181818181818197,
                "tempo": 120.0
            },
            {
                "start_time": 1.4272727272727272,
                "end_time": 1.4613636363636362,
                "pitch": 84,
                "velocity": 51,
                "duration": 0.03409090909090895,
                "tempo": 120.0
            },
            {
                "start_time": 1.4613636363636362,
                "end_time": 1.4954545454545454,
                "pitch": 85,
                "velocity": 51,
                "duration": 0.03409090909090917,
                "tempo": 120.0
            },
            {
                "start_time": 1.4954545454545454,
                "end_time": 1.5272727272727271,
                "pitch": 86,
                "velocity": 51,
                "duration": 0.031818181818181746,
                "tempo": 120.0
            },
            {
                "start_time": 1.5272727272727271,
                "end_time": 1.5613636363636363,
                "pitch": 87,
                "velocity": 51,
                "duration": 0.03409090909090917,
                "tempo": 120.0
            },
            {
                "start_time": 1.5613636363636363,
                "end_time": 1.5954545454545455,
                "pitch": 88,
                "velocity": 51,
                "duration": 0.03409090909090917,
                "tempo": 120.0
            },
            {
                "start_time": 1.5954545454545455,
                "end_time": 1.6272727272727272,
                "pitch": 89,
                "velocity": 51,
                "duration": 0.031818181818181746,
                "tempo": 120.0
            },
            {
                "start_time": 1.6272727272727272,
                "end_time": 1.6613636363636364,
                "pitch": 90,
                "velocity": 51,
                "duration": 0.03409090909090917,
                "tempo": 120.0
            },
            {
                "start_time": 1.6613636363636364,
                "end_time": 1.6954545454545453,
                "pitch": 91,
                "velocity": 51,
                "duration": 0.03409090909090895,
                "tempo": 120.0
            },
            {
                "start_time": 1.6954545454545453,
                "end_time": 1.9954545454545454,
                "pitch": 92,
                "velocity": 51,
                "duration": 0.30000000000000004,
                "tempo": 120.0
            },
            {
                "start_time": 2.0954545454545452,
                "end_time": 2.495454545454545,
                "pitch": 91,
                "velocity": 51,
                "duration": 0.3999999999999999,
                "tempo": 120.0
            }
        ]
    }
}