{
    "track_id": "Solomon no Kagi (FM) - 10 - Game Over",
    "mood": "sad",
    "instruments": {
        "Flute": [
            {
                "start_time": 0.18636363636363634,
                "end_time": 0.33636363636363636,
                "pitch": 68,
                "velocity": 80,
                "duration": 0.15000000000000002,
                "tempo": 120.0
            },
            {
                "start_time": 0.38636363636363635,
                "end_time": 0.5318181818181817,
                "pitch": 71,
                "velocity": 80,
                "duration": 0.1454545454545454,
                "tempo": 120.0
            },
            {
                "start_time": 0.5795454545454545,
                "end_time": 0.7227272727272727,
                "pitch": 72,
                "velocity": 80,
                "duration": 0.1431818181818182,
                "tempo": 120.0
            },
            {
                "start_time": 0.7704545454545454,
                "end_time": 0.9181818181818181,
                "pitch": 74,
                "velocity": 80,
                "duration": 0.1477272727272727,
                "tempo": 120.0
            },
            {
                "start_time": 0.9681818181818181,
                "end_time": 1.1181818181818182,
                "pitch": 72,
                "velocity": 80,
                "duration": 0.15000000000000002,
                "tempo": 120.0
            },
            {
                "start_time": 1.1681818181818182,
                "end_time": 1.3181818181818181,
                "pitch": 71,
                "velocity": 80,
                "duration": 0.1499999999999999,
                "tempo": 120.0
            },
            {
                "start_time": 1.3681818181818182,
                "end_time": 1.518181818181818,
                "pitch": 68,
                "velocity": 80,
                "duration": 0.1499999999999999,
                "tempo": 120.0
            },
            {
                "start_time": 1.5681818181818181,
                "end_time": 1.7204545454545455,
                "pitch": 74,
                "velocity": 80,
                "duration": 0.15227272727272734,
                "tempo": 120.0
            },
            {
                "start_time": 1.7704545454545453,
                "end_time": 1.9204545454545454,
                "pitch": 72,
                "velocity": 80,
                "duration": 0.15000000000000013,
                "tempo": 120.0
            },
            {
                "start_time": 1.9704545454545455,
                "end_time": 2.118181818181818,
                "pitch": 71,
                "velocity": 80,
                "duration": 0.1477272727272727,
                "tempo": 120.0
            },
            {
                "start_time": 2.168181818181818,
                "end_time": 2.315909090909091,
                "pitch": 68,
                "velocity": 80,
                "duration": 0.14772727272727293,
                "tempo": 120.0
            },
            {
                "start_time": 2.3636363636363633,
                "end_time": 2.518181818181818,
                "pitch": 67,
                "velocity": 80,
                "duration": 0.15454545454545476,
                "tempo": 120.0
            },
            {
                "start_time": 2.568181818181818,
                "end_time": 2.7227272727272727,
                "pitch": 65,
                "velocity": 80,
                "duration": 0.15454545454545476,
                "tempo": 120.0
            },
            {
                "start_time": 2.775,
                "end_time": 2.9204545454545454,
                "pitch": 67,
                "velocity": 80,
                "duration": 0.1454545454545455,
                "tempo": 120.0
            },
            {
                "start_time": 2.9704545454545452,
                "end_time": 3.118181818181818,
                "pitch": 68,
                "velocity": 80,
                "duration": 0.14772727272727293,
                "tempo": 120.0
            },
            {
                "start_time": 3.1659090909090906,
                "end_time": 3.315909090909091,
                "pitch": 67,
                "velocity": 80,
                "duration": 0.15000000000000036,
                "tempo": 120.0
            },
            {
                "start_time": 3.3659090909090907,
                "end_time": 3.5159090909090907,
                "pitch": 65,
                "velocity": 80,
                "duration": 0.1499999999999999,
                "tempo": 120.0
            },
            {
                "start_time": 3.565909090909091,
                "end_time": 3.65,
                "pitch": 64,
                "velocity": 80,
                "duration": 0.084090909090909,
                "tempo": 120.0
            },
            {
                "start_time": 3.6659090909090906,
                "end_time": 3.75,
                "pitch": 65,
                "velocity": 80,
                "duration": 0.08409090909090944,
                "tempo": 120.0
            },
            {
                "start_time": 3.7659090909090907,
                "end_time": 3.8499999999999996,
                "pitch": 64,
                "velocity": 80,
                "duration": 0.084090909090909,
                "tempo": 120.0
            },
            {
                "start_time": 3.8659090909090907,
                "end_time": 3.9499999999999997,
                "pitch": 65,
                "velocity": 80,
                "duration": 0.084090909090909,
                "tempo": 120.0
            },
            {
                "start_time": 3.965909090909091,
                "end_time": 4.05,
                "pitch": 64,
                "velocity": 80,
                "duration": 0.084090909090909,
                "tempo": 120.0
            },
            {
                "start_time": 4.0659090909090905,
                "end_time": 4.1499999999999995,
                "pitch": 65,
                "velocity": 80,
                "duration": 0.084090909090909,
                "tempo": 120.0
            },
            {
                "start_time": 4.168181818181818,
                "end_time": 4.252272727272727,
                "pitch": 64,
                "velocity": 80,
                "duration": 0.084090909090909,
                "tempo": 120.0
            },
            {
                "start_time": 4.268181818181818,
                "end_time": 4.352272727272727,
                "pitch": 65,
                "velocity": 80,
                "duration": 0.084090909090909,
                "tempo": 120.0
            },
            {
                "start_time": 4.368181818181818,
                "end_time": 4.452272727272727,
                "pitch": 64,
                "velocity": 80,
                "duration": 0.084090909090909,
                "tempo": 120.0
            },
            {
                "start_time": 4.468181818181818,
                "end_time": 4.552272727272727,
                "pitch": 65,
                "velocity": 80,
                "duration": 0.084090909090909,
                "tempo": 120.0
            },
            {
                "start_time": 4.568181818181818,
                "end_time": 4.652272727272727,
                "pitch": 64,
                "velocity": 80,
                "duration": 0.084090909090909,
                "tempo": 120.0
            },
            {
                "start_time": 4.668181818181818,
                "end_time": 4.752272727272727,
                "pitch": 65,
                "velocity": 80,
                "duration": 0.084090909090909,
                "tempo": 120.0
            },
            {
                "start_time": 4.768181818181818,
                "end_time": 4.852272727272727,
                "pitch": 64,
                "velocity": 80,
                "duration": 0.084090909090909,
                "tempo": 120.0
            },
            {
                "start_time": 4.870454545454545,
                "end_time": 4.954545454545454,
                "pitch": 65,
                "velocity": 80,
                "duration": 0.084090909090909,
                "tempo": 120.0
            },
            {
                "start_time": 4.970454545454545,
                "end_time": 5.054545454545455,
                "pitch": 64,
                "velocity": 80,
                "duration": 0.08409090909090988,
                "tempo": 120.0
            },
            {
                "start_time": 5.070454545454545,
                "end_time": 5.154545454545454,
                "pitch": 65,
                "velocity": 80,
                "duration": 0.084090909090909,
                "tempo": 120.0
            },
            {
                "start_time": 5.172727272727273,
                "end_time": 5.254545454545454,
                "pitch": 64,
                "velocity": 80,
                "duration": 0.08181818181818112,
                "tempo": 120.0
            },
            {
                "start_time": 5.2727272727272725,
                "end_time": 5.3568181818181815,
                "pitch": 65,
                "velocity": 80,
                "duration": 0.084090909090909,
                "tempo": 120.0
            },
            {
                "start_time": 5.372727272727272,
                "end_time": 5.456818181818181,
                "pitch": 64,
                "velocity": 80,
                "duration": 0.084090909090909,
                "tempo": 120.0
            },
            {
                "start_time": 5.472727272727273,
                "end_time": 5.556818181818182,
                "pitch": 65,
                "velocity": 80,
                "duration": 0.084090909090909,
                "tempo": 120.0
            },
            {
                "start_time": 5.574999999999999,
                "end_time": 5.890909090909091,
                "pitch": 62,
                "velocity": 80,
                "duration": 0.31590909090909136,
                "tempo": 120.0
            },
            {
                "start_time": 5.975,
                "end_time": 6.3,
                "pitch": 64,
                "velocity": 80,
                "duration": 0.3250000000000002,
                "tempo": 120.0
            },
            {
                "start_time": 6.384090909090909,
                "end_time": 8.077272727272726,
                "pitch": 65,
                "velocity": 80,
                "duration": 1.6931818181818175,
                "tempo": 120.0
            }
        ],
        "Acoustic Bass": [
            {
                "start_time": 0.38636363636363635,
                "end_time": 0.6909090909090909,
                "pitch": 35,
                "velocity": 40,
                "duration": 0.30454545454545456,
                "tempo": 120.0
            },
            {
                "start_time": 0.7704545454545454,
                "end_time": 1.0863636363636364,
                "pitch": 41,
                "velocity": 40,
                "duration": 0.31590909090909103,
                "tempo": 120.0
            },
            {
                "start_time": 1.1681818181818182,
                "end_time": 1.4863636363636363,
                "pitch": 38,
                "velocity": 40,
                "duration": 0.3181818181818181,
                "tempo": 120.0
            },
            {
                "start_time": 1.5681818181818181,
                "end_time": 1.8886363636363634,
                "pitch": 47,
                "velocity": 40,
                "duration": 0.3204545454545453,
                "tempo": 120.0
            },
            {
                "start_time": 1.9704545454545455,
                "end_time": 2.2818181818181817,
                "pitch": 41,
                "velocity": 40,
                "duration": 0.3113636363636363,
                "tempo": 120.0
            },
            {
                "start_time": 2.3636363636363633,
                "end_time": 2.6886363636363635,
                "pitch": 50,
                "velocity": 40,
                "duration": 0.3250000000000002,
                "tempo": 120.0
            },
            {
                "start_time": 2.775,
                "end_time": 3.084090909090909,
                "pitch": 47,
                "velocity": 40,
                "duration": 0.3090909090909091,
                "tempo": 120.0
            },
            {
                "start_time": 3.1659090909090906,
                "end_time": 3.484090909090909,
                "pitch": 48,
                "velocity": 40,
                "duration": 0.31818181818181834,
                "tempo": 120.0
            },
            {
                "start_time": 3.565909090909091,
                "end_time": 3.884090909090909,
                "pitch": 43,
                "velocity": 40,
                "duration": 0.3181818181818179,
                "tempo": 120.0
            },
            {
                "start_time": 3.965909090909091,
                "end_time": 4.284090909090909,
                "pitch": 40,
                "velocity": 40,
                "duration": 0.31818181818181834,
                "tempo": 120.0
            },
            {
                "start_time": 4.368181818181818,
                "end_time": 4.6863636363636365,
                "pitch": 43,
                "velocity": 40,
                "duration": 0.31818181818181834,
                "tempo": 120.0
            },
            {
                "start_time": 4.768181818181818,
                "end_time": 5.088636363636363,
                "pitch": 40,
                "velocity": 40,
                "duration": 0.3204545454545453,
                "tempo": 120.0
            },
            {
                "start_time": 5.172727272727273,
                "end_time": 5.49090909090909,
                "pitch": 37,
                "velocity": 40,
                "duration": 0.31818181818181746,
                "tempo": 120.0
            },
            {
                "start_time": 5.574999999999999,
                "end_time": 5.890909090909091,
                "pitch": 36,
                "velocity": 40,
                "duration": 0.31590909090909136,
                "tempo": 120.0
            },
            {
                "start_time": 5.975,
                "end_time": 6.3,
                "pitch": 34,
                "velocity": 40,
                "duration": 0.3250000000000002,
                "tempo": 120.0
            },
            {
                "start_time": 6.384090909090909,
                "end_time": 6.695454545454545,
                "pitch": 48,
                "velocity": 40,
                "duration": 0.3113636363636365,
                "tempo": 120.0
            }
        ],
        "Violin": [
            {
                "start_time": 0.25227272727272726,
                "end_time": 0.8681818181818182,
                "pitch": 56,
                "velocity": 40,
                "duration": 0.615909090909091,
                "tempo": 120.0
            },
            {
                "start_time": 1.0363636363636364,
                "end_time": 1.6704545454545454,
                "pitch": 56,
                "velocity": 40,
                "duration": 0.634090909090909,
                "tempo": 120.0
            },
            {
                "start_time": 1.8363636363636362,
                "end_time": 2.465909090909091,
                "pitch": 59,
                "velocity": 40,
                "duration": 0.6295454545454546,
                "tempo": 120.0
            },
            {
                "start_time": 2.6363636363636362,
                "end_time": 3.2659090909090907,
                "pitch": 59,
                "velocity": 40,
                "duration": 0.6295454545454544,
                "tempo": 120.0
            },
            {
                "start_time": 3.434090909090909,
                "end_time": 5.99090909090909,
                "pitch": 55,
                "velocity": 40,
                "duration": 2.556818181818181,
                "tempo": 120.0
            }
        ],
        "Vibraphone": [
            {
                "start_time": 6.6477272727272725,
                "end_time": 6.695454545454545,
                "pitch": 60,
                "velocity": 40,
                "duration": 0.04772727272727284,
                "tempo": 120.0
            },
            {
                "start_time": 6.711363636363636,
                "end_time": 6.761363636363636,
                "pitch": 61,
                "velocity": 40,
                "duration": 0.04999999999999982,
                "tempo": 120.0
            },
            {
                "start_time": 6.777272727272727,
                "end_time": 6.827272727272727,
                "pitch": 62,
                "velocity": 40,
                "duration": 0.04999999999999982,
                "tempo": 120.0
            },
            {
                "start_time": 6.845454545454545,
                "end_time": 6.8954545454545455,
                "pitch": 63,
                "velocity": 40,
                "duration": 0.05000000000000071,
                "tempo": 120.0
            },
            {
                "start_time": 6.911363636363636,
                "end_time": 6.961363636363636,
                "pitch": 64,
                "velocity": 40,
                "duration": 0.04999999999999982,
                "tempo": 120.0
            },
            {
                "start_time": 6.9795454545454545,
                "end_time": 7.029545454545454,
                "pitch": 65,
                "velocity": 40,
                "duration": 0.04999999999999982,
                "tempo": 120.0
            },
            {
                "start_time": 7.045454545454545,
                "end_time": 7.095454545454545,
                "pitch": 66,
                "velocity": 40,
                "duration": 0.04999999999999982,
                "tempo": 120.0
            },
            {
                "start_time": 7.113636363636363,
                "end_time": 7.163636363636363,
                "pitch": 67,
                "velocity": 40,
                "duration": 0.04999999999999982,
                "tempo": 120.0
            },
            {
                "start_time": 7.179545454545454,
                "end_time": 7.2295454545454545,
                "pitch": 68,
                "velocity": 40,
                "duration": 0.05000000000000071,
                "tempo": 120.0
            },
            {
                "start_time": 7.247727272727272,
                "end_time": 7.297727272727272,
                "pitch": 69,
                "velocity": 40,
                "duration": 0.04999999999999982,
                "tempo": 120.0
            },
            {
                "start_time": 7.3136363636363635,
                "end_time": 7.363636363636363,
                "pitch": 70,
                "velocity": 40,
                "duration": 0.04999999999999982,
                "tempo": 120.0
            },
            {
                "start_time": 7.381818181818182,
                "end_time": 7.431818181818182,
                "pitch": 71,
                "velocity": 40,
                "duration": 0.04999999999999982,
                "tempo": 120.0
            },
            {
                "start_time": 7.447727272727272,
                "end_time": 7.497727272727272,
                "pitch": 72,
                "velocity": 40,
                "duration": 0.04999999999999982,
                "tempo": 120.0
            },
            {
                "start_time": 7.515909090909091,
                "end_time": 7.5659090909090905,
                "pitch": 73,
                "velocity": 40,
                "duration": 0.04999999999999982,
                "tempo": 120.0
            },
            {
                "start_time": 7.581818181818181,
                "end_time": 7.631818181818182,
                "pitch": 74,
                "velocity": 40,
                "duration": 0.05000000000000071,
                "tempo": 120.0
            },
            {
                "start_time": 7.6477272727272725,
                "end_time": 7.697727272727272,
                "pitch": 75,
                "velocity": 40,
                "duration": 0.04999999999999982,
                "tempo": 120.0
            },
            {
                "start_time": 7.713636363636363,
                "end_time": 7.761363636363636,
                "pitch": 76,
                "velocity": 40,
                "duration": 0.04772727272727284,
                "tempo": 120.0
            },
            {
                "start_time": 7.779545454545454,
                "end_time": 7.827272727272727,
                "pitch": 77,
                "velocity": 40,
                "duration": 0.04772727272727284,
                "tempo": 120.0
            },
            {
                "start_time": 7.843181818181818,
                "end_time": 7.893181818181818,
                "pitch": 78,
                "velocity": 40,
                "duration": 0.04999999999999982,
                "tempo": 120.0
            },
            {
                "start_time": 7.909090909090908,
                "end_time": 7.959090909090909,
                "pitch": 79,
                "velocity": 40,
                "duration": 0.05000000000000071,
                "tempo": 120.0
            },
            {
                "start_time": 7.975,
                "end_time": 8.025,
                "pitch": 80,
                "velocity": 40,
                "duration": 0.05000000000000071,
                "tempo": 120.0
            },
            {
                "start_time": 8.043181818181818,
                "end_time": 8.093181818181817,
                "pitch": 81,
                "velocity": 40,
                "duration": 0.049999999999998934,
                "tempo": 120.0
            },
            {
                "start_time": 8.111363636363636,
                "end_time": 8.163636363636364,
                "pitch": 82,
                "velocity": 40,
                "duration": 0.05227272727272769,
                "tempo": 120.0
            },
            {
                "start_time": 8.179545454545455,
                "end_time": 8.23181818181818,
                "pitch": 83,
                "velocity": 40,
                "duration": 0.052272727272725916,
                "tempo": 120.0
            },
            {
                "start_time": 8.247727272727273,
                "end_time": 8.299999999999999,
                "pitch": 84,
                "velocity": 40,
                "duration": 0.052272727272725916,
                "tempo": 120.0
            },
            {
                "start_time": 8.315909090909091,
                "end_time": 8.368181818181817,
                "pitch": 85,
                "velocity": 40,
                "duration": 0.052272727272725916,
                "tempo": 120.0
            },
            {
                "start_time": 8.386363636363637,
                "end_time": 8.436363636363636,
                "pitch": 86,
                "velocity": 40,
                "duration": 0.049999999999998934,
                "tempo": 120.0
            },
            {
                "start_time": 8.452272727272726,
                "end_time": 8.502272727272727,
                "pitch": 87,
                "velocity": 40,
                "duration": 0.05000000000000071,
                "tempo": 120.0
            },
            {
                "start_time": 8.520454545454545,
                "end_time": 8.570454545454545,
                "pitch": 88,
                "velocity": 40,
                "duration": 0.05000000000000071,
                "tempo": 120.0
            },
            {
                "start_time": 8.586363636363636,
                "end_time": 8.636363636363637,
                "pitch": 89,
                "velocity": 40,
                "duration": 0.05000000000000071,
                "tempo": 120.0
            },
            {
                "start_time": 8.654545454545454,
                "end_time": 8.704545454545453,
                "pitch": 90,
                "velocity": 40,
                "duration": 0.049999999999998934,
                "tempo": 120.0
            },
            {
                "start_time": 8.720454545454546,
                "end_time": 8.770454545454545,
                "pitch": 91,
                "velocity": 40,
                "duration": 0.049999999999998934,
                "tempo": 120.0
            },
            {
                "start_time": 8.788636363636364,
                "end_time": 8.836363636363636,
                "pitch": 92,
                "velocity": 40,
                "duration": 0.04772727272727195,
                "tempo": 120.0
            },
            {
                "start_time": 8.854545454545454,
                "end_time": 8.902272727272727,
                "pitch": 93,
                "velocity": 40,
                "duration": 0.04772727272727373,
                "tempo": 120.0
            },
            {
                "start_time": 8.918181818181818,
                "end_time": 8.968181818181817,
                "pitch": 94,
                "velocity": 40,
                "duration": 0.049999999999998934,
                "tempo": 120.0
            },
            {
                "start_time": 8.98409090909091,
                "end_time": 9.034090909090908,
                "pitch": 95,
                "velocity": 40,
                "duration": 0.049999999999998934,
                "tempo": 120.0
            }
        ]
    }
}