{
    "track_id": "Space Harrier 3-D (FM) - 02 - Title",
    "mood": "sad",
    "instruments": {
        "Electric Guitar (clean)": [
            {
                "start_time": 0.0,
                "end_time": 0.1659090909090909,
                "pitch": 24,
                "velocity": 64,
                "duration": 0.1659090909090909,
                "tempo": 120.0
            },
            {
                "start_time": 0.19545454545454544,
                "end_time": 0.3886363636363636,
                "pitch": 34,
                "velocity": 64,
                "duration": 0.19318181818181818,
                "tempo": 120.0
            },
            {
                "start_time": 0.40454545454545454,
                "end_time": 0.6136363636363636,
                "pitch": 24,
                "velocity": 64,
                "duration": 0.2090909090909091,
                "tempo": 120.0
            },
            {
                "start_time": 0.6318181818181818,
                "end_time": 0.875,
                "pitch": 36,
                "velocity": 64,
                "duration": 0.24318181818181817,
                "tempo": 120.0
            },
            {
                "start_time": 0.8909090909090909,
                "end_time": 1.3227272727272728,
                "pitch": 24,
                "velocity": 64,
                "duration": 0.4318181818181819,
                "tempo": 120.0
            },
            {
                "start_time": 1.3545454545454545,
                "end_time": 1.8227272727272725,
                "pitch": 24,
                "velocity": 64,
                "duration": 0.46818181818181803,
                "tempo": 120.0
            },
            {
                "start_time": 1.8409090909090908,
                "end_time": 2.047727272727273,
                "pitch": 26,
                "velocity": 64,
                "duration": 0.206818181818182,
                "tempo": 120.0
            },
            {
                "start_time": 2.0795454545454546,
                "end_time": 2.2886363636363636,
                "pitch": 36,
                "velocity": 64,
                "duration": 0.209090909090909,
                "tempo": 120.0
            },
            {
                "start_time": 2.2886363636363636,
                "end_time": 2.509090909090909,
                "pitch": 26,
                "velocity": 64,
                "duration": 0.22045454545454524,
                "tempo": 120.0
            },
            {
                "start_time": 2.561363636363636,
                "end_time": 2.784090909090909,
                "pitch": 43,
                "velocity": 64,
                "duration": 0.2227272727272731,
                "tempo": 120.0
            },
            {
                "start_time": 2.815909090909091,
                "end_time": 3.0295454545454543,
                "pitch": 36,
                "velocity": 64,
                "duration": 0.2136363636363634,
                "tempo": 120.0
            },
            {
                "start_time": 3.0295454545454543,
                "end_time": 3.243181818181818,
                "pitch": 41,
                "velocity": 64,
                "duration": 0.21363636363636385,
                "tempo": 120.0
            },
            {
                "start_time": 3.275,
                "end_time": 3.727272727272727,
                "pitch": 38,
                "velocity": 64,
                "duration": 0.45227272727272716,
                "tempo": 120.0
            },
            {
                "start_time": 3.7795454545454543,
                "end_time": 3.995454545454545,
                "pitch": 24,
                "velocity": 64,
                "duration": 0.21590909090909083,
                "tempo": 120.0
            },
            {
                "start_time": 4.011363636363636,
                "end_time": 4.245454545454545,
                "pitch": 34,
                "velocity": 64,
                "duration": 0.23409090909090935,
                "tempo": 120.0
            },
            {
                "start_time": 4.261363636363636,
                "end_time": 4.461363636363636,
                "pitch": 24,
                "velocity": 64,
                "duration": 0.20000000000000018,
                "tempo": 120.0
            },
            {
                "start_time": 4.4795454545454545,
                "end_time": 4.711363636363636,
                "pitch": 36,
                "velocity": 64,
                "duration": 0.23181818181818148,
                "tempo": 120.0
            },
            {
                "start_time": 4.727272727272727,
                "end_time": 5.177272727272727,
                "pitch": 24,
                "velocity": 64,
                "duration": 0.4500000000000002,
                "tempo": 120.0
            },
            {
                "start_time": 5.193181818181818,
                "end_time": 5.661363636363636,
                "pitch": 24,
                "velocity": 64,
                "duration": 0.4681818181818178,
                "tempo": 120.0
            },
            {
                "start_time": 5.677272727272727,
                "end_time": 5.886363636363636,
                "pitch": 26,
                "velocity": 64,
                "duration": 0.209090909090909,
                "tempo": 120.0
            },
            {
                "start_time": 5.918181818181818,
                "end_time": 6.127272727272727,
                "pitch": 36,
                "velocity": 64,
                "duration": 0.209090909090909,
                "tempo": 120.0
            },
            {
                "start_time": 6.177272727272727,
                "end_time": 6.402272727272727,
                "pitch": 26,
                "velocity": 64,
                "duration": 0.22500000000000053,
                "tempo": 120.0
            },
            {
                "start_time": 6.402272727272727,
                "end_time": 6.627272727272727,
                "pitch": 43,
                "velocity": 64,
                "duration": 0.22499999999999964,
                "tempo": 120.0
            },
            {
                "start_time": 6.661363636363636,
                "end_time": 6.868181818181818,
                "pitch": 36,
                "velocity": 64,
                "duration": 0.206818181818182,
                "tempo": 120.0
            },
            {
                "start_time": 6.868181818181818,
                "end_time": 7.077272727272727,
                "pitch": 41,
                "velocity": 64,
                "duration": 0.209090909090909,
                "tempo": 120.0
            },
            {
                "start_time": 7.1090909090909085,
                "end_time": 7.6045454545454545,
                "pitch": 38,
                "velocity": 64,
                "duration": 0.49545454545454604,
                "tempo": 120.0
            },
            {
                "start_time": 7.6045454545454545,
                "end_time": 7.822727272727272,
                "pitch": 16,
                "velocity": 64,
                "duration": 0.2181818181818178,
                "tempo": 120.0
            },
            {
                "start_time": 7.838636363636363,
                "end_time": 8.075,
                "pitch": 32,
                "velocity": 64,
                "duration": 0.23636363636363633,
                "tempo": 120.0
            },
            {
                "start_time": 8.09090909090909,
                "end_time": 8.293181818181818,
                "pitch": 16,
                "velocity": 64,
                "duration": 0.20227272727272805,
                "tempo": 120.0
            },
            {
                "start_time": 8.309090909090909,
                "end_time": 8.545454545454545,
                "pitch": 34,
                "velocity": 64,
                "duration": 0.23636363636363633,
                "tempo": 120.0
            },
            {
                "start_time": 8.579545454545453,
                "end_time": 9.029545454545454,
                "pitch": 16,
                "velocity": 64,
                "duration": 0.45000000000000107,
                "tempo": 120.0
            },
            {
                "start_time": 9.045454545454545,
                "end_time": 9.5,
                "pitch": 16,
                "velocity": 64,
                "duration": 0.45454545454545503,
                "tempo": 120.0
            },
            {
                "start_time": 9.51590909090909,
                "end_time": 9.729545454545454,
                "pitch": 28,
                "velocity": 64,
                "duration": 0.21363636363636296,
                "tempo": 120.0
            },
            {
                "start_time": 9.777272727272727,
                "end_time": 9.99090909090909,
                "pitch": 38,
                "velocity": 64,
                "duration": 0.21363636363636296,
                "tempo": 120.0
            },
            {
                "start_time": 10.025,
                "end_time": 10.25,
                "pitch": 28,
                "velocity": 64,
                "duration": 0.22499999999999964,
                "tempo": 120.0
            },
            {
                "start_time": 10.25,
                "end_time": 10.477272727272727,
                "pitch": 45,
                "velocity": 64,
                "duration": 0.22727272727272663,
                "tempo": 120.0
            },
            {
                "start_time": 10.509090909090908,
                "end_time": 10.718181818181817,
                "pitch": 38,
                "velocity": 64,
                "duration": 0.209090909090909,
                "tempo": 120.0
            },
            {
                "start_time": 10.718181818181817,
                "end_time": 10.927272727272726,
                "pitch": 43,
                "velocity": 64,
                "duration": 0.209090909090909,
                "tempo": 120.0
            },
            {
                "start_time": 10.975,
                "end_time": 11.461363636363636,
                "pitch": 40,
                "velocity": 64,
                "duration": 0.48636363636363633,
                "tempo": 120.0
            },
            {
                "start_time": 11.461363636363636,
                "end_time": 11.672727272727272,
                "pitch": 30,
                "velocity": 64,
                "duration": 0.21136363636363598,
                "tempo": 120.0
            },
            {
                "start_time": 11.69090909090909,
                "end_time": 11.920454545454545,
                "pitch": 40,
                "velocity": 64,
                "duration": 0.22954545454545539,
                "tempo": 120.0
            },
            {
                "start_time": 11.936363636363636,
                "end_time": 12.138636363636364,
                "pitch": 30,
                "velocity": 64,
                "duration": 0.20227272727272805,
                "tempo": 120.0
            },
            {
                "start_time": 12.204545454545453,
                "end_time": 12.406818181818181,
                "pitch": 42,
                "velocity": 64,
                "duration": 0.20227272727272805,
                "tempo": 120.0
            },
            {
                "start_time": 12.422727272727272,
                "end_time": 12.86590909090909,
                "pitch": 30,
                "velocity": 64,
                "duration": 0.44318181818181834,
                "tempo": 120.0
            },
            {
                "start_time": 12.881818181818181,
                "end_time": 13.336363636363636,
                "pitch": 30,
                "velocity": 64,
                "duration": 0.45454545454545503,
                "tempo": 120.0
            },
            {
                "start_time": 13.404545454545454,
                "end_time": 13.611363636363636,
                "pitch": 32,
                "velocity": 64,
                "duration": 0.206818181818182,
                "tempo": 120.0
            },
            {
                "start_time": 13.629545454545454,
                "end_time": 13.872727272727271,
                "pitch": 42,
                "velocity": 64,
                "duration": 0.24318181818181728,
                "tempo": 120.0
            },
            {
                "start_time": 13.888636363636364,
                "end_time": 14.086363636363636,
                "pitch": 32,
                "velocity": 64,
                "duration": 0.1977272727272723,
                "tempo": 120.0
            },
            {
                "start_time": 14.102272727272727,
                "end_time": 14.33181818181818,
                "pitch": 49,
                "velocity": 64,
                "duration": 0.2295454545454536,
                "tempo": 120.0
            },
            {
                "start_time": 14.347727272727273,
                "end_time": 14.545454545454545,
                "pitch": 42,
                "velocity": 64,
                "duration": 0.1977272727272723,
                "tempo": 120.0
            },
            {
                "start_time": 14.611363636363636,
                "end_time": 14.806818181818182,
                "pitch": 47,
                "velocity": 64,
                "duration": 0.19545454545454533,
                "tempo": 120.0
            },
            {
                "start_time": 14.825,
                "end_time": 15.293181818181818,
                "pitch": 44,
                "velocity": 64,
                "duration": 0.4681818181818187,
                "tempo": 120.0
            }
        ],
        "Oboe": [
            {
                "start_time": 0.0,
                "end_time": 0.1659090909090909,
                "pitch": 60,
                "velocity": 51,
                "duration": 0.1659090909090909,
                "tempo": 120.0
            },
            {
                "start_time": 0.19545454545454544,
                "end_time": 0.3886363636363636,
                "pitch": 65,
                "velocity": 51,
                "duration": 0.19318181818181818,
                "tempo": 120.0
            },
            {
                "start_time": 0.40454545454545454,
                "end_time": 0.6136363636363636,
                "pitch": 67,
                "velocity": 51,
                "duration": 0.2090909090909091,
                "tempo": 120.0
            },
            {
                "start_time": 0.6318181818181818,
                "end_time": 0.875,
                "pitch": 60,
                "velocity": 51,
                "duration": 0.24318181818181817,
                "tempo": 120.0
            },
            {
                "start_time": 0.8909090909090909,
                "end_time": 1.0818181818181818,
                "pitch": 70,
                "velocity": 51,
                "duration": 0.19090909090909092,
                "tempo": 120.0
            },
            {
                "start_time": 1.0977272727272727,
                "end_time": 1.3227272727272728,
                "pitch": 69,
                "velocity": 51,
                "duration": 0.2250000000000001,
                "tempo": 120.0
            },
            {
                "start_time": 1.3545454545454545,
                "end_time": 1.5977272727272727,
                "pitch": 70,
                "velocity": 51,
                "duration": 0.24318181818181817,
                "tempo": 120.0
            },
            {
                "start_time": 1.6159090909090907,
                "end_time": 1.8227272727272725,
                "pitch": 72,
                "velocity": 51,
                "duration": 0.2068181818181818,
                "tempo": 120.0
            },
            {
                "start_time": 1.8409090909090908,
                "end_time": 2.047727272727273,
                "pitch": 62,
                "velocity": 51,
                "duration": 0.206818181818182,
                "tempo": 120.0
            },
            {
                "start_time": 2.0795454545454546,
                "end_time": 2.2886363636363636,
                "pitch": 67,
                "velocity": 51,
                "duration": 0.209090909090909,
                "tempo": 120.0
            },
            {
                "start_time": 2.2886363636363636,
                "end_time": 2.509090909090909,
                "pitch": 69,
                "velocity": 51,
                "duration": 0.22045454545454524,
                "tempo": 120.0
            },
            {
                "start_time": 2.561363636363636,
                "end_time": 2.784090909090909,
                "pitch": 62,
                "velocity": 51,
                "duration": 0.2227272727272731,
                "tempo": 120.0
            },
            {
                "start_time": 2.815909090909091,
                "end_time": 3.0295454545454543,
                "pitch": 72,
                "velocity": 51,
                "duration": 0.2136363636363634,
                "tempo": 120.0
            },
            {
                "start_time": 3.0295454545454543,
                "end_time": 3.243181818181818,
                "pitch": 71,
                "velocity": 51,
                "duration": 0.21363636363636385,
                "tempo": 120.0
            },
            {
                "start_time": 3.275,
                "end_time": 3.5,
                "pitch": 72,
                "velocity": 51,
                "duration": 0.2250000000000001,
                "tempo": 120.0
            },
            {
                "start_time": 3.5,
                "end_time": 3.727272727272727,
                "pitch": 74,
                "velocity": 51,
                "duration": 0.22727272727272707,
                "tempo": 120.0
            },
            {
                "start_time": 3.7795454545454543,
                "end_time": 3.995454545454545,
                "pitch": 60,
                "velocity": 51,
                "duration": 0.21590909090909083,
                "tempo": 120.0
            },
            {
                "start_time": 4.011363636363636,
                "end_time": 4.245454545454545,
                "pitch": 65,
                "velocity": 51,
                "duration": 0.23409090909090935,
                "tempo": 120.0
            },
            {
                "start_time": 4.261363636363636,
                "end_time": 4.461363636363636,
                "pitch": 67,
                "velocity": 51,
                "duration": 0.20000000000000018,
                "tempo": 120.0
            },
            {
                "start_time": 4.4795454545454545,
                "end_time": 4.711363636363636,
                "pitch": 60,
                "velocity": 51,
                "duration": 0.23181818181818148,
                "tempo": 120.0
            },
            {
                "start_time": 4.727272727272727,
                "end_time": 4.920454545454545,
                "pitch": 70,
                "velocity": 51,
                "duration": 0.19318181818181834,
                "tempo": 120.0
            },
            {
                "start_time": 4.9840909090909085,
                "end_time": 5.177272727272727,
                "pitch": 69,
                "velocity": 51,
                "duration": 0.19318181818181834,
                "tempo": 120.0
            },
            {
                "start_time": 5.193181818181818,
                "end_time": 5.4363636363636365,
                "pitch": 70,
                "velocity": 51,
                "duration": 0.24318181818181817,
                "tempo": 120.0
            },
            {
                "start_time": 5.452272727272727,
                "end_time": 5.661363636363636,
                "pitch": 72,
                "velocity": 51,
                "duration": 0.209090909090909,
                "tempo": 120.0
            },
            {
                "start_time": 5.677272727272727,
                "end_time": 5.886363636363636,
                "pitch": 62,
                "velocity": 51,
                "duration": 0.209090909090909,
                "tempo": 120.0
            },
            {
                "start_time": 5.918181818181818,
                "end_time": 6.127272727272727,
                "pitch": 67,
                "velocity": 51,
                "duration": 0.209090909090909,
                "tempo": 120.0
            },
            {
                "start_time": 6.177272727272727,
                "end_time": 6.402272727272727,
                "pitch": 69,
                "velocity": 51,
                "duration": 0.22500000000000053,
                "tempo": 120.0
            },
            {
                "start_time": 6.402272727272727,
                "end_time": 6.627272727272727,
                "pitch": 62,
                "velocity": 51,
                "duration": 0.22499999999999964,
                "tempo": 120.0
            },
            {
                "start_time": 6.661363636363636,
                "end_time": 6.868181818181818,
                "pitch": 72,
                "velocity": 51,
                "duration": 0.206818181818182,
                "tempo": 120.0
            },
            {
                "start_time": 6.868181818181818,
                "end_time": 7.077272727272727,
                "pitch": 71,
                "velocity": 51,
                "duration": 0.209090909090909,
                "tempo": 120.0
            },
            {
                "start_time": 7.1090909090909085,
                "end_time": 7.331818181818181,
                "pitch": 72,
                "velocity": 51,
                "duration": 0.22272727272727266,
                "tempo": 120.0
            },
            {
                "start_time": 7.381818181818182,
                "end_time": 7.6045454545454545,
                "pitch": 74,
                "velocity": 51,
                "duration": 0.22272727272727266,
                "tempo": 120.0
            },
            {
                "start_time": 7.6045454545454545,
                "end_time": 7.822727272727272,
                "pitch": 58,
                "velocity": 51,
                "duration": 0.2181818181818178,
                "tempo": 120.0
            },
            {
                "start_time": 7.838636363636363,
                "end_time": 8.075,
                "pitch": 63,
                "velocity": 51,
                "duration": 0.23636363636363633,
                "tempo": 120.0
            },
            {
                "start_time": 8.09090909090909,
                "end_time": 8.293181818181818,
                "pitch": 65,
                "velocity": 51,
                "duration": 0.20227272727272805,
                "tempo": 120.0
            },
            {
                "start_time": 8.309090909090909,
                "end_time": 8.545454545454545,
                "pitch": 58,
                "velocity": 51,
                "duration": 0.23636363636363633,
                "tempo": 120.0
            },
            {
                "start_time": 8.579545454545453,
                "end_time": 8.811363636363636,
                "pitch": 68,
                "velocity": 51,
                "duration": 0.23181818181818237,
                "tempo": 120.0
            },
            {
                "start_time": 8.829545454545453,
                "end_time": 9.029545454545454,
                "pitch": 67,
                "velocity": 51,
                "duration": 0.20000000000000107,
                "tempo": 120.0
            },
            {
                "start_time": 9.045454545454545,
                "end_time": 9.279545454545454,
                "pitch": 68,
                "velocity": 51,
                "duration": 0.23409090909090935,
                "tempo": 120.0
            },
            {
                "start_time": 9.297727272727272,
                "end_time": 9.5,
                "pitch": 70,
                "velocity": 51,
                "duration": 0.20227272727272805,
                "tempo": 120.0
            },
            {
                "start_time": 9.51590909090909,
                "end_time": 9.729545454545454,
                "pitch": 64,
                "velocity": 51,
                "duration": 0.21363636363636296,
                "tempo": 120.0
            },
            {
                "start_time": 9.777272727272727,
                "end_time": 9.99090909090909,
                "pitch": 69,
                "velocity": 51,
                "duration": 0.21363636363636296,
                "tempo": 120.0
            },
            {
                "start_time": 10.025,
                "end_time": 10.25,
                "pitch": 71,
                "velocity": 51,
                "duration": 0.22499999999999964,
                "tempo": 120.0
            },
            {
                "start_time": 10.25,
                "end_time": 10.477272727272727,
                "pitch": 64,
                "velocity": 51,
                "duration": 0.22727272727272663,
                "tempo": 120.0
            },
            {
                "start_time": 10.509090909090908,
                "end_time": 10.718181818181817,
                "pitch": 74,
                "velocity": 51,
                "duration": 0.209090909090909,
                "tempo": 120.0
            },
            {
                "start_time": 10.718181818181817,
                "end_time": 10.927272727272726,
                "pitch": 73,
                "velocity": 51,
                "duration": 0.209090909090909,
                "tempo": 120.0
            },
            {
                "start_time": 10.975,
                "end_time": 11.2,
                "pitch": 74,
                "velocity": 51,
                "duration": 0.22499999999999964,
                "tempo": 120.0
            },
            {
                "start_time": 11.23409090909091,
                "end_time": 11.461363636363636,
                "pitch": 76,
                "velocity": 51,
                "duration": 0.22727272727272663,
                "tempo": 120.0
            },
            {
                "start_time": 11.461363636363636,
                "end_time": 11.672727272727272,
                "pitch": 66,
                "velocity": 51,
                "duration": 0.21136363636363598,
                "tempo": 120.0
            },
            {
                "start_time": 11.69090909090909,
                "end_time": 11.920454545454545,
                "pitch": 71,
                "velocity": 51,
                "duration": 0.22954545454545539,
                "tempo": 120.0
            },
            {
                "start_time": 11.936363636363636,
                "end_time": 12.138636363636364,
                "pitch": 73,
                "velocity": 51,
                "duration": 0.20227272727272805,
                "tempo": 120.0
            },
            {
                "start_time": 12.204545454545453,
                "end_time": 12.406818181818181,
                "pitch": 66,
                "velocity": 51,
                "duration": 0.20227272727272805,
                "tempo": 120.0
            },
            {
                "start_time": 12.422727272727272,
                "end_time": 12.652272727272727,
                "pitch": 76,
                "velocity": 51,
                "duration": 0.22954545454545539,
                "tempo": 120.0
            },
            {
                "start_time": 12.668181818181818,
                "end_time": 12.86590909090909,
                "pitch": 75,
                "velocity": 51,
                "duration": 0.1977272727272723,
                "tempo": 120.0
            },
            {
                "start_time": 12.881818181818181,
                "end_time": 13.118181818181817,
                "pitch": 76,
                "velocity": 51,
                "duration": 0.23636363636363633,
                "tempo": 120.0
            },
            {
                "start_time": 13.134090909090908,
                "end_time": 13.336363636363636,
                "pitch": 78,
                "velocity": 51,
                "duration": 0.20227272727272805,
                "tempo": 120.0
            },
            {
                "start_time": 13.404545454545454,
                "end_time": 13.611363636363636,
                "pitch": 68,
                "velocity": 51,
                "duration": 0.206818181818182,
                "tempo": 120.0
            },
            {
                "start_time": 13.629545454545454,
                "end_time": 13.872727272727271,
                "pitch": 73,
                "velocity": 51,
                "duration": 0.24318181818181728,
                "tempo": 120.0
            },
            {
                "start_time": 13.888636363636364,
                "end_time": 14.086363636363636,
                "pitch": 75,
                "velocity": 51,
                "duration": 0.1977272727272723,
                "tempo": 120.0
            },
            {
                "start_time": 14.102272727272727,
                "end_time": 14.33181818181818,
                "pitch": 68,
                "velocity": 51,
                "duration": 0.2295454545454536,
                "tempo": 120.0
            },
            {
                "start_time": 14.347727272727273,
                "end_time": 14.545454545454545,
                "pitch": 78,
                "velocity": 51,
                "duration": 0.1977272727272723,
                "tempo": 120.0
            },
            {
                "start_time": 14.611363636363636,
                "end_time": 14.806818181818182,
                "pitch": 77,
                "velocity": 51,
                "duration": 0.19545454545454533,
                "tempo": 120.0
            },
            {
                "start_time": 14.825,
                "end_time": 15.06590909090909,
                "pitch": 78,
                "velocity": 51,
                "duration": 0.2409090909090903,
                "tempo": 120.0
            },
            {
                "start_time": 15.084090909090909,
                "end_time": 15.293181818181818,
                "pitch": 80,
                "velocity": 51,
                "duration": 0.209090909090909,
                "tempo": 120.0
            }
        ],
        "Trumpet": [
            {
                "start_time": 0.0,
                "end_time": 0.05454545454545454,
                "pitch": 76,
                "velocity": 32,
                "duration": 0.05454545454545454,
                "tempo": 120.0
            },
            {
                "start_time": 0.07045454545454545,
                "end_time": 0.23636363636363636,
                "pitch": 67,
                "velocity": 32,
                "duration": 0.1659090909090909,
                "tempo": 120.0
            },
            {
                "start_time": 0.25,
                "end_time": 0.4568181818181818,
                "pitch": 72,
                "velocity": 32,
                "duration": 0.2068181818181818,
                "tempo": 120.0
            },
            {
                "start_time": 0.475,
                "end_time": 0.6840909090909091,
                "pitch": 74,
                "velocity": 32,
                "duration": 0.2090909090909091,
                "tempo": 120.0
            },
            {
                "start_time": 0.7,
                "end_time": 0.9386363636363636,
                "pitch": 67,
                "velocity": 32,
                "duration": 0.23863636363636365,
                "tempo": 120.0
            },
            {
                "start_time": 0.9704545454545455,
                "end_time": 1.1954545454545453,
                "pitch": 77,
                "velocity": 32,
                "duration": 0.22499999999999987,
                "tempo": 120.0
            },
            {
                "start_time": 1.2113636363636362,
                "end_time": 1.4068181818181817,
                "pitch": 76,
                "velocity": 32,
                "duration": 0.19545454545454555,
                "tempo": 120.0
            },
            {
                "start_time": 1.4249999999999998,
                "end_time": 1.6681818181818182,
                "pitch": 77,
                "velocity": 32,
                "duration": 0.2431818181818184,
                "tempo": 120.0
            },
            {
                "start_time": 1.684090909090909,
                "end_time": 1.9045454545454545,
                "pitch": 79,
                "velocity": 32,
                "duration": 0.22045454545454546,
                "tempo": 120.0
            },
            {
                "start_time": 1.9045454545454545,
                "end_time": 2.1136363636363633,
                "pitch": 69,
                "velocity": 32,
                "duration": 0.20909090909090877,
                "tempo": 120.0
            },
            {
                "start_time": 2.161363636363636,
                "end_time": 2.3727272727272726,
                "pitch": 74,
                "velocity": 32,
                "duration": 0.21136363636363642,
                "tempo": 120.0
            },
            {
                "start_time": 2.4068181818181817,
                "end_time": 2.6295454545454544,
                "pitch": 76,
                "velocity": 32,
                "duration": 0.22272727272727266,
                "tempo": 120.0
            },
            {
                "start_time": 2.6295454545454544,
                "end_time": 2.8499999999999996,
                "pitch": 69,
                "velocity": 32,
                "duration": 0.22045454545454524,
                "tempo": 120.0
            },
            {
                "start_time": 2.881818181818182,
                "end_time": 3.0954545454545452,
                "pitch": 79,
                "velocity": 32,
                "duration": 0.2136363636363634,
                "tempo": 120.0
            },
            {
                "start_time": 3.0954545454545452,
                "end_time": 3.309090909090909,
                "pitch": 78,
                "velocity": 32,
                "duration": 0.21363636363636385,
                "tempo": 120.0
            },
            {
                "start_time": 3.3613636363636363,
                "end_time": 3.5886363636363634,
                "pitch": 79,
                "velocity": 32,
                "duration": 0.22727272727272707,
                "tempo": 120.0
            },
            {
                "start_time": 3.6227272727272726,
                "end_time": 3.8454545454545452,
                "pitch": 81,
                "velocity": 32,
                "duration": 0.22272727272727266,
                "tempo": 120.0
            },
            {
                "start_time": 3.8613636363636363,
                "end_time": 4.0613636363636365,
                "pitch": 67,
                "velocity": 32,
                "duration": 0.20000000000000018,
                "tempo": 120.0
            },
            {
                "start_time": 4.079545454545454,
                "end_time": 4.3113636363636365,
                "pitch": 72,
                "velocity": 32,
                "duration": 0.23181818181818237,
                "tempo": 120.0
            },
            {
                "start_time": 4.329545454545454,
                "end_time": 4.529545454545454,
                "pitch": 74,
                "velocity": 32,
                "duration": 0.20000000000000018,
                "tempo": 120.0
            },
            {
                "start_time": 4.595454545454545,
                "end_time": 4.793181818181818,
                "pitch": 67,
                "velocity": 32,
                "duration": 0.1977272727272732,
                "tempo": 120.0
            },
            {
                "start_time": 4.809090909090909,
                "end_time": 5.031818181818181,
                "pitch": 77,
                "velocity": 32,
                "duration": 0.22272727272727266,
                "tempo": 120.0
            },
            {
                "start_time": 5.047727272727273,
                "end_time": 5.245454545454545,
                "pitch": 76,
                "velocity": 32,
                "duration": 0.1977272727272723,
                "tempo": 120.0
            },
            {
                "start_time": 5.261363636363636,
                "end_time": 5.504545454545454,
                "pitch": 77,
                "velocity": 32,
                "duration": 0.24318181818181817,
                "tempo": 120.0
            },
            {
                "start_time": 5.5227272727272725,
                "end_time": 5.743181818181818,
                "pitch": 79,
                "velocity": 32,
                "duration": 0.22045454545454568,
                "tempo": 120.0
            },
            {
                "start_time": 5.790909090909091,
                "end_time": 5.997727272727272,
                "pitch": 69,
                "velocity": 32,
                "duration": 0.20681818181818112,
                "tempo": 120.0
            },
            {
                "start_time": 5.997727272727272,
                "end_time": 6.211363636363636,
                "pitch": 74,
                "velocity": 32,
                "duration": 0.21363636363636385,
                "tempo": 120.0
            },
            {
                "start_time": 6.245454545454545,
                "end_time": 6.472727272727273,
                "pitch": 76,
                "velocity": 32,
                "duration": 0.22727272727272751,
                "tempo": 120.0
            },
            {
                "start_time": 6.472727272727273,
                "end_time": 6.6931818181818175,
                "pitch": 69,
                "velocity": 32,
                "duration": 0.2204545454545448,
                "tempo": 120.0
            },
            {
                "start_time": 6.725,
                "end_time": 6.931818181818182,
                "pitch": 79,
                "velocity": 32,
                "duration": 0.206818181818182,
                "tempo": 120.0
            },
            {
                "start_time": 6.9818181818181815,
                "end_time": 7.195454545454545,
                "pitch": 78,
                "velocity": 32,
                "duration": 0.21363636363636385,
                "tempo": 120.0
            },
            {
                "start_time": 7.195454545454545,
                "end_time": 7.41590909090909,
                "pitch": 79,
                "velocity": 32,
                "duration": 0.2204545454545448,
                "tempo": 120.0
            },
            {
                "start_time": 7.449999999999999,
                "end_time": 7.672727272727272,
                "pitch": 81,
                "velocity": 32,
                "duration": 0.22272727272727266,
                "tempo": 120.0
            },
            {
                "start_time": 7.6886363636363635,
                "end_time": 7.890909090909091,
                "pitch": 65,
                "velocity": 32,
                "duration": 0.20227272727272716,
                "tempo": 120.0
            },
            {
                "start_time": 7.906818181818181,
                "end_time": 8.143181818181818,
                "pitch": 70,
                "velocity": 32,
                "duration": 0.23636363636363633,
                "tempo": 120.0
            },
            {
                "start_time": 8.174999999999999,
                "end_time": 8.411363636363635,
                "pitch": 72,
                "velocity": 32,
                "duration": 0.23636363636363633,
                "tempo": 120.0
            },
            {
                "start_time": 8.427272727272728,
                "end_time": 8.629545454545454,
                "pitch": 65,
                "velocity": 32,
                "duration": 0.20227272727272627,
                "tempo": 120.0
            },
            {
                "start_time": 8.645454545454545,
                "end_time": 8.879545454545454,
                "pitch": 75,
                "velocity": 32,
                "duration": 0.23409090909090935,
                "tempo": 120.0
            },
            {
                "start_time": 8.895454545454545,
                "end_time": 9.095454545454546,
                "pitch": 74,
                "velocity": 32,
                "duration": 0.20000000000000107,
                "tempo": 120.0
            },
            {
                "start_time": 9.113636363636363,
                "end_time": 9.347727272727273,
                "pitch": 75,
                "velocity": 32,
                "duration": 0.23409090909090935,
                "tempo": 120.0
            },
            {
                "start_time": 9.381818181818181,
                "end_time": 9.597727272727273,
                "pitch": 77,
                "velocity": 32,
                "duration": 0.21590909090909172,
                "tempo": 120.0
            },
            {
                "start_time": 9.629545454545454,
                "end_time": 9.843181818181817,
                "pitch": 71,
                "velocity": 32,
                "duration": 0.21363636363636296,
                "tempo": 120.0
            },
            {
                "start_time": 9.843181818181817,
                "end_time": 10.059090909090909,
                "pitch": 76,
                "velocity": 32,
                "duration": 0.21590909090909172,
                "tempo": 120.0
            },
            {
                "start_time": 10.095454545454546,
                "end_time": 10.320454545454545,
                "pitch": 78,
                "velocity": 32,
                "duration": 0.22499999999999964,
                "tempo": 120.0
            },
            {
                "start_time": 10.320454545454545,
                "end_time": 10.540909090909091,
                "pitch": 71,
                "velocity": 32,
                "duration": 0.22045454545454568,
                "tempo": 120.0
            },
            {
                "start_time": 10.588636363636363,
                "end_time": 10.797727272727272,
                "pitch": 81,
                "velocity": 32,
                "duration": 0.209090909090909,
                "tempo": 120.0
            },
            {
                "start_time": 10.829545454545453,
                "end_time": 11.043181818181818,
                "pitch": 80,
                "velocity": 32,
                "duration": 0.21363636363636473,
                "tempo": 120.0
            },
            {
                "start_time": 11.043181818181818,
                "end_time": 11.270454545454545,
                "pitch": 81,
                "velocity": 32,
                "duration": 0.22727272727272663,
                "tempo": 120.0
            },
            {
                "start_time": 11.304545454545455,
                "end_time": 11.527272727272727,
                "pitch": 83,
                "velocity": 32,
                "duration": 0.22272727272727266,
                "tempo": 120.0
            },
            {
                "start_time": 11.543181818181818,
                "end_time": 11.738636363636363,
                "pitch": 73,
                "velocity": 32,
                "duration": 0.19545454545454533,
                "tempo": 120.0
            },
            {
                "start_time": 11.804545454545455,
                "end_time": 12.004545454545454,
                "pitch": 78,
                "velocity": 32,
                "duration": 0.1999999999999993,
                "tempo": 120.0
            },
            {
                "start_time": 12.020454545454545,
                "end_time": 12.254545454545454,
                "pitch": 80,
                "velocity": 32,
                "duration": 0.23409090909090935,
                "tempo": 120.0
            },
            {
                "start_time": 12.272727272727272,
                "end_time": 12.472727272727273,
                "pitch": 73,
                "velocity": 32,
                "duration": 0.20000000000000107,
                "tempo": 120.0
            },
            {
                "start_time": 12.488636363636363,
                "end_time": 12.718181818181817,
                "pitch": 83,
                "velocity": 32,
                "duration": 0.2295454545454536,
                "tempo": 120.0
            },
            {
                "start_time": 12.73409090909091,
                "end_time": 12.931818181818182,
                "pitch": 82,
                "velocity": 32,
                "duration": 0.1977272727272723,
                "tempo": 120.0
            },
            {
                "start_time": 13.0,
                "end_time": 13.202272727272726,
                "pitch": 83,
                "velocity": 32,
                "duration": 0.20227272727272627,
                "tempo": 120.0
            },
            {
                "start_time": 13.218181818181817,
                "end_time": 13.456818181818182,
                "pitch": 85,
                "velocity": 32,
                "duration": 0.2386363636363651,
                "tempo": 120.0
            },
            {
                "start_time": 13.472727272727273,
                "end_time": 13.681818181818182,
                "pitch": 75,
                "velocity": 32,
                "duration": 0.209090909090909,
                "tempo": 120.0
            },
            {
                "start_time": 13.7,
                "end_time": 13.938636363636363,
                "pitch": 80,
                "velocity": 32,
                "duration": 0.2386363636363633,
                "tempo": 120.0
            },
            {
                "start_time": 13.954545454545453,
                "end_time": 14.152272727272727,
                "pitch": 82,
                "velocity": 32,
                "duration": 0.19772727272727408,
                "tempo": 120.0
            },
            {
                "start_time": 14.218181818181817,
                "end_time": 14.413636363636362,
                "pitch": 75,
                "velocity": 32,
                "duration": 0.19545454545454533,
                "tempo": 120.0
            },
            {
                "start_time": 14.429545454545455,
                "end_time": 14.659090909090908,
                "pitch": 85,
                "velocity": 32,
                "duration": 0.2295454545454536,
                "tempo": 120.0
            },
            {
                "start_time": 14.677272727272726,
                "end_time": 14.875,
                "pitch": 84,
                "velocity": 32,
                "duration": 0.19772727272727408,
                "tempo": 120.0
            },
            {
                "start_time": 14.893181818181818,
                "end_time": 15.136363636363635,
                "pitch": 85,
                "velocity": 32,
                "duration": 0.24318181818181728,
                "tempo": 120.0
            },
            {
                "start_time": 15.154545454545454,
                "end_time": 15.495454545454544,
                "pitch": 87,
                "velocity": 32,
                "duration": 0.34090909090908994,
                "tempo": 120.0
            }
        ]
    }
}