{
    "track_id": "Summer Games (FM) - 11 - Unused",
    "mood": "sad",
    "instruments": {
        "Oboe": [
            {
                "start_time": 0.3977272727272727,
                "end_time": 0.6295454545454545,
                "pitch": 64,
                "velocity": 25,
                "duration": 0.2318181818181818,
                "tempo": 120.0
            },
            {
                "start_time": 0.6636363636363636,
                "end_time": 0.8954545454545454,
                "pitch": 64,
                "velocity": 25,
                "duration": 0.2318181818181818,
                "tempo": 120.0
            },
            {
                "start_time": 0.9295454545454545,
                "end_time": 1.1613636363636364,
                "pitch": 61,
                "velocity": 25,
                "duration": 0.23181818181818192,
                "tempo": 120.0
            },
            {
                "start_time": 1.1954545454545453,
                "end_time": 1.4272727272727272,
                "pitch": 62,
                "velocity": 25,
                "duration": 0.23181818181818192,
                "tempo": 120.0
            },
            {
                "start_time": 1.4613636363636362,
                "end_time": 1.6931818181818181,
                "pitch": 62,
                "velocity": 25,
                "duration": 0.23181818181818192,
                "tempo": 120.0
            },
            {
                "start_time": 1.7272727272727273,
                "end_time": 1.959090909090909,
                "pitch": 62,
                "velocity": 25,
                "duration": 0.2318181818181817,
                "tempo": 120.0
            },
            {
                "start_time": 1.9931818181818182,
                "end_time": 5.168181818181818,
                "pitch": 60,
                "velocity": 25,
                "duration": 3.175,
                "tempo": 120.0
            }
        ],
        "Acoustic Bass": [
            {
                "start_time": 0.3977272727272727,
                "end_time": 0.6295454545454545,
                "pitch": 45,
                "velocity": 32,
                "duration": 0.2318181818181818,
                "tempo": 120.0
            },
            {
                "start_time": 0.6636363636363636,
                "end_time": 0.8954545454545454,
                "pitch": 45,
                "velocity": 32,
                "duration": 0.2318181818181818,
                "tempo": 120.0
            },
            {
                "start_time": 0.9295454545454545,
                "end_time": 1.1613636363636364,
                "pitch": 45,
                "velocity": 32,
                "duration": 0.23181818181818192,
                "tempo": 120.0
            },
            {
                "start_time": 1.1954545454545453,
                "end_time": 1.4272727272727272,
                "pitch": 43,
                "velocity": 32,
                "duration": 0.23181818181818192,
                "tempo": 120.0
            },
            {
                "start_time": 1.4613636363636362,
                "end_time": 1.6931818181818181,
                "pitch": 43,
                "velocity": 32,
                "duration": 0.23181818181818192,
                "tempo": 120.0
            },
            {
                "start_time": 1.7272727272727273,
                "end_time": 1.959090909090909,
                "pitch": 43,
                "velocity": 32,
                "duration": 0.2318181818181817,
                "tempo": 120.0
            },
            {
                "start_time": 1.9931818181818182,
                "end_time": 5.168181818181818,
                "pitch": 41,
                "velocity": 32,
                "duration": 3.175,
                "tempo": 120.0
            }
        ],
        "Harpsichord": [
            {
                "start_time": 0.3977272727272727,
                "end_time": 0.6295454545454545,
                "pitch": 69,
                "velocity": 20,
                "duration": 0.2318181818181818,
                "tempo": 120.0
            },
            {
                "start_time": 0.6636363636363636,
                "end_time": 0.8954545454545454,
                "pitch": 68,
                "velocity": 20,
                "duration": 0.2318181818181818,
                "tempo": 120.0
            },
            {
                "start_time": 0.9295454545454545,
                "end_time": 1.1613636363636364,
                "pitch": 64,
                "velocity": 20,
                "duration": 0.23181818181818192,
                "tempo": 120.0
            },
            {
                "start_time": 1.1954545454545453,
                "end_time": 1.4272727272727272,
                "pitch": 67,
                "velocity": 20,
                "duration": 0.23181818181818192,
                "tempo": 120.0
            },
            {
                "start_time": 1.4613636363636362,
                "end_time": 1.6931818181818181,
                "pitch": 66,
                "velocity": 20,
                "duration": 0.23181818181818192,
                "tempo": 120.0
            },
            {
                "start_time": 1.7272727272727273,
                "end_time": 1.959090909090909,
                "pitch": 65,
                "velocity": 20,
                "duration": 0.2318181818181817,
                "tempo": 120.0
            },
            {
                "start_time": 1.9931818181818182,
                "end_time": 5.168181818181818,
                "pitch": 64,
                "velocity": 20,
                "duration": 3.175,
                "tempo": 120.0
            }
        ],
        "Electric Guitar (clean)": [
            {
                "start_time": 0.3977272727272727,
                "end_time": 0.6295454545454545,
                "pitch": 45,
                "velocity": 20,
                "duration": 0.2318181818181818,
                "tempo": 120.0
            },
            {
                "start_time": 0.6636363636363636,
                "end_time": 0.8954545454545454,
                "pitch": 45,
                "velocity": 20,
                "duration": 0.2318181818181818,
                "tempo": 120.0
            },
            {
                "start_time": 0.9295454545454545,
                "end_time": 1.1613636363636364,
                "pitch": 45,
                "velocity": 20,
                "duration": 0.23181818181818192,
                "tempo": 120.0
            },
            {
                "start_time": 1.1954545454545453,
                "end_time": 1.4272727272727272,
                "pitch": 43,
                "velocity": 20,
                "duration": 0.23181818181818192,
                "tempo": 120.0
            },
            {
                "start_time": 1.4613636363636362,
                "end_time": 1.6931818181818181,
                "pitch": 43,
                "velocity": 20,
                "duration": 0.23181818181818192,
                "tempo": 120.0
            },
            {
                "start_time": 1.7272727272727273,
                "end_time": 1.959090909090909,
                "pitch": 43,
                "velocity": 20,
                "duration": 0.2318181818181817,
                "tempo": 120.0
            },
            {
                "start_time": 1.9931818181818182,
                "end_time": 5.168181818181818,
                "pitch": 41,
                "velocity": 20,
                "duration": 3.175,
                "tempo": 120.0
            }
        ]
    }
}