{
    "track_id": "Thunder Blade (FM) - 03 - Thunder Blade",
    "mood": "sad",
    "instruments": {
        "Acoustic Bass": [
            {
                "start_time": 0.8568181818181818,
                "end_time": 2.6795454545454542,
                "pitch": 63,
                "velocity": 80,
                "duration": 1.8227272727272723,
                "tempo": 120.0
            },
            {
                "start_time": 2.6954545454545453,
                "end_time": 4.031818181818181,
                "pitch": 62,
                "velocity": 80,
                "duration": 1.336363636363636,
                "tempo": 120.0
            },
            {
                "start_time": 4.047727272727273,
                "end_time": 5.870454545454545,
                "pitch": 66,
                "velocity": 80,
                "duration": 1.8227272727272723,
                "tempo": 120.0
            },
            {
                "start_time": 5.888636363636364,
                "end_time": 7.222727272727273,
                "pitch": 64,
                "velocity": 80,
                "duration": 1.334090909090909,
                "tempo": 120.0
            },
            {
                "start_time": 7.24090909090909,
                "end_time": 9.063636363636363,
                "pitch": 60,
                "velocity": 80,
                "duration": 1.8227272727272723,
                "tempo": 120.0
            },
            {
                "start_time": 9.079545454545453,
                "end_time": 10.413636363636362,
                "pitch": 62,
                "velocity": 80,
                "duration": 1.334090909090909,
                "tempo": 120.0
            },
            {
                "start_time": 10.431818181818182,
                "end_time": 12.254545454545454,
                "pitch": 61,
                "velocity": 80,
                "duration": 1.8227272727272723,
                "tempo": 120.0
            },
            {
                "start_time": 12.272727272727272,
                "end_time": 13.60681818181818,
                "pitch": 61,
                "velocity": 80,
                "duration": 1.334090909090909,
                "tempo": 120.0
            },
            {
                "start_time": 13.622727272727271,
                "end_time": 13.947727272727272,
                "pitch": 33,
                "velocity": 80,
                "duration": 0.32500000000000107,
                "tempo": 120.0
            },
            {
                "start_time": 13.96590909090909,
                "end_time": 14.049999999999999,
                "pitch": 40,
                "velocity": 80,
                "duration": 0.084090909090909,
                "tempo": 120.0
            },
            {
                "start_time": 14.202272727272726,
                "end_time": 14.286363636363635,
                "pitch": 40,
                "velocity": 80,
                "duration": 0.084090909090909,
                "tempo": 120.0
            },
            {
                "start_time": 14.436363636363636,
                "end_time": 14.520454545454545,
                "pitch": 40,
                "velocity": 80,
                "duration": 0.084090909090909,
                "tempo": 120.0
            },
            {
                "start_time": 14.536363636363635,
                "end_time": 15.202272727272726,
                "pitch": 45,
                "velocity": 80,
                "duration": 0.665909090909091,
                "tempo": 120.0
            },
            {
                "start_time": 15.218181818181817,
                "end_time": 15.268181818181818,
                "pitch": 45,
                "velocity": 80,
                "duration": 0.05000000000000071,
                "tempo": 120.0
            },
            {
                "start_time": 15.318181818181817,
                "end_time": 15.368181818181817,
                "pitch": 45,
                "velocity": 80,
                "duration": 0.05000000000000071,
                "tempo": 120.0
            },
            {
                "start_time": 15.452272727272726,
                "end_time": 15.777272727272727,
                "pitch": 33,
                "velocity": 80,
                "duration": 0.32500000000000107,
                "tempo": 120.0
            },
            {
                "start_time": 15.795454545454545,
                "end_time": 15.881818181818181,
                "pitch": 40,
                "velocity": 80,
                "duration": 0.08636363636363598,
                "tempo": 120.0
            },
            {
                "start_time": 16.025,
                "end_time": 16.10681818181818,
                "pitch": 40,
                "velocity": 80,
                "duration": 0.08181818181818201,
                "tempo": 120.0
            },
            {
                "start_time": 16.25,
                "end_time": 16.329545454545453,
                "pitch": 40,
                "velocity": 80,
                "duration": 0.07954545454545325,
                "tempo": 120.0
            },
            {
                "start_time": 16.345454545454544,
                "end_time": 16.797727272727272,
                "pitch": 45,
                "velocity": 80,
                "duration": 0.45227272727272805,
                "tempo": 120.0
            },
            {
                "start_time": 16.813636363636363,
                "end_time": 17.138636363636362,
                "pitch": 33,
                "velocity": 80,
                "duration": 0.3249999999999993,
                "tempo": 120.0
            },
            {
                "start_time": 17.15681818181818,
                "end_time": 17.24090909090909,
                "pitch": 40,
                "velocity": 80,
                "duration": 0.08409090909090722,
                "tempo": 120.0
            },
            {
                "start_time": 17.393181818181816,
                "end_time": 17.477272727272727,
                "pitch": 40,
                "velocity": 80,
                "duration": 0.08409090909091077,
                "tempo": 120.0
            },
            {
                "start_time": 17.627272727272725,
                "end_time": 17.711363636363636,
                "pitch": 40,
                "velocity": 80,
                "duration": 0.08409090909091077,
                "tempo": 120.0
            },
            {
                "start_time": 17.727272727272727,
                "end_time": 18.393181818181816,
                "pitch": 45,
                "velocity": 80,
                "duration": 0.6659090909090892,
                "tempo": 120.0
            },
            {
                "start_time": 18.409090909090907,
                "end_time": 18.459090909090907,
                "pitch": 45,
                "velocity": 80,
                "duration": 0.05000000000000071,
                "tempo": 120.0
            },
            {
                "start_time": 18.509090909090908,
                "end_time": 18.55909090909091,
                "pitch": 45,
                "velocity": 80,
                "duration": 0.05000000000000071,
                "tempo": 120.0
            },
            {
                "start_time": 18.643181818181816,
                "end_time": 18.96818181818182,
                "pitch": 33,
                "velocity": 80,
                "duration": 0.32500000000000284,
                "tempo": 120.0
            },
            {
                "start_time": 18.986363636363635,
                "end_time": 19.070454545454545,
                "pitch": 40,
                "velocity": 80,
                "duration": 0.08409090909091077,
                "tempo": 120.0
            },
            {
                "start_time": 19.21363636363636,
                "end_time": 19.29090909090909,
                "pitch": 40,
                "velocity": 80,
                "duration": 0.07727272727272805,
                "tempo": 120.0
            },
            {
                "start_time": 19.43181818181818,
                "end_time": 19.509090909090908,
                "pitch": 40,
                "velocity": 80,
                "duration": 0.07727272727272805,
                "tempo": 120.0
            },
            {
                "start_time": 19.525,
                "end_time": 19.988636363636363,
                "pitch": 45,
                "velocity": 80,
                "duration": 0.46363636363636473,
                "tempo": 120.0
            },
            {
                "start_time": 20.004545454545454,
                "end_time": 20.329545454545453,
                "pitch": 33,
                "velocity": 80,
                "duration": 0.3249999999999993,
                "tempo": 120.0
            },
            {
                "start_time": 20.347727272727273,
                "end_time": 20.43409090909091,
                "pitch": 40,
                "velocity": 80,
                "duration": 0.08636363636363598,
                "tempo": 120.0
            },
            {
                "start_time": 20.584090909090907,
                "end_time": 20.668181818181818,
                "pitch": 40,
                "velocity": 80,
                "duration": 0.08409090909091077,
                "tempo": 120.0
            },
            {
                "start_time": 20.818181818181817,
                "end_time": 20.902272727272727,
                "pitch": 40,
                "velocity": 80,
                "duration": 0.08409090909091077,
                "tempo": 120.0
            },
            {
                "start_time": 20.918181818181818,
                "end_time": 21.584090909090907,
                "pitch": 45,
                "velocity": 80,
                "duration": 0.6659090909090892,
                "tempo": 120.0
            },
            {
                "start_time": 21.599999999999998,
                "end_time": 21.65,
                "pitch": 45,
                "velocity": 80,
                "duration": 0.05000000000000071,
                "tempo": 120.0
            },
            {
                "start_time": 21.702272727272724,
                "end_time": 21.752272727272725,
                "pitch": 45,
                "velocity": 80,
                "duration": 0.05000000000000071,
                "tempo": 120.0
            },
            {
                "start_time": 21.834090909090907,
                "end_time": 22.159090909090907,
                "pitch": 33,
                "velocity": 80,
                "duration": 0.3249999999999993,
                "tempo": 120.0
            },
            {
                "start_time": 22.177272727272726,
                "end_time": 22.263636363636362,
                "pitch": 40,
                "velocity": 80,
                "duration": 0.08636363636363598,
                "tempo": 120.0
            },
            {
                "start_time": 22.404545454545453,
                "end_time": 22.48181818181818,
                "pitch": 40,
                "velocity": 80,
                "duration": 0.07727272727272805,
                "tempo": 120.0
            },
            {
                "start_time": 22.62272727272727,
                "end_time": 22.702272727272724,
                "pitch": 40,
                "velocity": 80,
                "duration": 0.07954545454545325,
                "tempo": 120.0
            },
            {
                "start_time": 22.71818181818182,
                "end_time": 23.179545454545455,
                "pitch": 45,
                "velocity": 80,
                "duration": 0.461363636363636,
                "tempo": 120.0
            },
            {
                "start_time": 23.19772727272727,
                "end_time": 23.52272727272727,
                "pitch": 33,
                "velocity": 80,
                "duration": 0.3249999999999993,
                "tempo": 120.0
            },
            {
                "start_time": 23.538636363636364,
                "end_time": 23.625,
                "pitch": 40,
                "velocity": 80,
                "duration": 0.08636363636363598,
                "tempo": 120.0
            },
            {
                "start_time": 23.775,
                "end_time": 23.85909090909091,
                "pitch": 40,
                "velocity": 80,
                "duration": 0.08409090909091077,
                "tempo": 120.0
            },
            {
                "start_time": 24.009090909090908,
                "end_time": 24.09318181818182,
                "pitch": 40,
                "velocity": 80,
                "duration": 0.08409090909091077,
                "tempo": 120.0
            },
            {
                "start_time": 24.111363636363635,
                "end_time": 24.779545454545453,
                "pitch": 45,
                "velocity": 80,
                "duration": 0.668181818181818,
                "tempo": 120.0
            },
            {
                "start_time": 24.797727272727272,
                "end_time": 24.847727272727273,
                "pitch": 45,
                "velocity": 80,
                "duration": 0.05000000000000071,
                "tempo": 120.0
            },
            {
                "start_time": 24.9,
                "end_time": 24.952272727272724,
                "pitch": 45,
                "velocity": 80,
                "duration": 0.052272727272725916,
                "tempo": 120.0
            },
            {
                "start_time": 25.036363636363635,
                "end_time": 25.354545454545452,
                "pitch": 33,
                "velocity": 80,
                "duration": 0.31818181818181657,
                "tempo": 120.0
            },
            {
                "start_time": 25.370454545454542,
                "end_time": 25.454545454545453,
                "pitch": 40,
                "velocity": 80,
                "duration": 0.08409090909091077,
                "tempo": 120.0
            },
            {
                "start_time": 25.595454545454544,
                "end_time": 25.674999999999997,
                "pitch": 40,
                "velocity": 80,
                "duration": 0.07954545454545325,
                "tempo": 120.0
            },
            {
                "start_time": 25.81590909090909,
                "end_time": 25.893181818181816,
                "pitch": 40,
                "velocity": 80,
                "duration": 0.0772727272727245,
                "tempo": 120.0
            },
            {
                "start_time": 25.909090909090907,
                "end_time": 26.370454545454542,
                "pitch": 45,
                "velocity": 80,
                "duration": 0.461363636363636,
                "tempo": 120.0
            },
            {
                "start_time": 33.679545454545455,
                "end_time": 33.79090909090909,
                "pitch": 45,
                "velocity": 80,
                "duration": 0.11136363636363455,
                "tempo": 120.0
            },
            {
                "start_time": 33.80681818181818,
                "end_time": 33.88636363636363,
                "pitch": 43,
                "velocity": 80,
                "duration": 0.07954545454545325,
                "tempo": 120.0
            },
            {
                "start_time": 34.03181818181818,
                "end_time": 34.111363636363635,
                "pitch": 43,
                "velocity": 80,
                "duration": 0.07954545454545325,
                "tempo": 120.0
            },
            {
                "start_time": 34.127272727272725,
                "end_time": 34.211363636363636,
                "pitch": 45,
                "velocity": 80,
                "duration": 0.08409090909091077,
                "tempo": 120.0
            },
            {
                "start_time": 34.36590909090909,
                "end_time": 34.45227272727273,
                "pitch": 48,
                "velocity": 80,
                "duration": 0.08636363636363598,
                "tempo": 120.0
            },
            {
                "start_time": 34.46818181818182,
                "end_time": 34.58863636363636,
                "pitch": 45,
                "velocity": 80,
                "duration": 0.12045454545454248,
                "tempo": 120.0
            },
            {
                "start_time": 34.94090909090909,
                "end_time": 35.02272727272727,
                "pitch": 43,
                "velocity": 80,
                "duration": 0.08181818181818556,
                "tempo": 120.0
            },
            {
                "start_time": 35.04090909090909,
                "end_time": 35.152272727272724,
                "pitch": 50,
                "velocity": 80,
                "duration": 0.11136363636363455,
                "tempo": 120.0
            },
            {
                "start_time": 35.168181818181814,
                "end_time": 35.24772727272727,
                "pitch": 48,
                "velocity": 80,
                "duration": 0.07954545454545325,
                "tempo": 120.0
            },
            {
                "start_time": 35.263636363636365,
                "end_time": 35.375,
                "pitch": 47,
                "velocity": 80,
                "duration": 0.11136363636363455,
                "tempo": 120.0
            },
            {
                "start_time": 35.393181818181816,
                "end_time": 35.47272727272727,
                "pitch": 43,
                "velocity": 80,
                "duration": 0.07954545454545325,
                "tempo": 120.0
            },
            {
                "start_time": 35.48863636363636,
                "end_time": 35.57272727272727,
                "pitch": 45,
                "velocity": 80,
                "duration": 0.08409090909091077,
                "tempo": 120.0
            },
            {
                "start_time": 35.625,
                "end_time": 35.70909090909091,
                "pitch": 43,
                "velocity": 80,
                "duration": 0.08409090909091077,
                "tempo": 120.0
            },
            {
                "start_time": 35.82954545454545,
                "end_time": 35.949999999999996,
                "pitch": 43,
                "velocity": 80,
                "duration": 0.12045454545454248,
                "tempo": 120.0
            },
            {
                "start_time": 35.965909090909086,
                "end_time": 36.05,
                "pitch": 45,
                "velocity": 80,
                "duration": 0.08409090909091077,
                "tempo": 120.0
            },
            {
                "start_time": 36.199999999999996,
                "end_time": 36.28409090909091,
                "pitch": 48,
                "velocity": 80,
                "duration": 0.08409090909091077,
                "tempo": 120.0
            },
            {
                "start_time": 36.3,
                "end_time": 36.38409090909091,
                "pitch": 45,
                "velocity": 80,
                "duration": 0.08409090909091077,
                "tempo": 120.0
            },
            {
                "start_time": 36.87045454545454,
                "end_time": 36.98181818181818,
                "pitch": 45,
                "velocity": 80,
                "duration": 0.11136363636363455,
                "tempo": 120.0
            },
            {
                "start_time": 36.99772727272727,
                "end_time": 37.07727272727273,
                "pitch": 43,
                "velocity": 80,
                "duration": 0.07954545454546036,
                "tempo": 120.0
            },
            {
                "start_time": 37.220454545454544,
                "end_time": 37.3,
                "pitch": 43,
                "velocity": 80,
                "duration": 0.07954545454545325,
                "tempo": 120.0
            },
            {
                "start_time": 37.31590909090909,
                "end_time": 37.402272727272724,
                "pitch": 45,
                "velocity": 80,
                "duration": 0.08636363636363598,
                "tempo": 120.0
            },
            {
                "start_time": 37.55681818181818,
                "end_time": 37.64090909090909,
                "pitch": 48,
                "velocity": 80,
                "duration": 0.08409090909091077,
                "tempo": 120.0
            },
            {
                "start_time": 37.65909090909091,
                "end_time": 37.779545454545456,
                "pitch": 45,
                "velocity": 80,
                "duration": 0.12045454545454959,
                "tempo": 120.0
            },
            {
                "start_time": 38.12954545454545,
                "end_time": 38.21363636363636,
                "pitch": 43,
                "velocity": 80,
                "duration": 0.08409090909091077,
                "tempo": 120.0
            },
            {
                "start_time": 38.22954545454545,
                "end_time": 38.34318181818182,
                "pitch": 50,
                "velocity": 80,
                "duration": 0.11363636363636687,
                "tempo": 120.0
            },
            {
                "start_time": 38.35909090909091,
                "end_time": 38.43863636363636,
                "pitch": 48,
                "velocity": 80,
                "duration": 0.07954545454545325,
                "tempo": 120.0
            },
            {
                "start_time": 38.45454545454545,
                "end_time": 38.56590909090909,
                "pitch": 47,
                "velocity": 80,
                "duration": 0.11136363636363455,
                "tempo": 120.0
            },
            {
                "start_time": 38.58181818181818,
                "end_time": 38.66136363636363,
                "pitch": 43,
                "velocity": 80,
                "duration": 0.07954545454545325,
                "tempo": 120.0
            },
            {
                "start_time": 38.67727272727272,
                "end_time": 38.76363636363636,
                "pitch": 45,
                "velocity": 80,
                "duration": 0.08636363636363598,
                "tempo": 120.0
            },
            {
                "start_time": 38.81363636363636,
                "end_time": 38.9,
                "pitch": 43,
                "velocity": 80,
                "duration": 0.08636363636363598,
                "tempo": 120.0
            },
            {
                "start_time": 39.02045454545454,
                "end_time": 39.14090909090909,
                "pitch": 43,
                "velocity": 80,
                "duration": 0.12045454545454959,
                "tempo": 120.0
            },
            {
                "start_time": 39.15681818181818,
                "end_time": 39.24090909090909,
                "pitch": 45,
                "velocity": 80,
                "duration": 0.08409090909091077,
                "tempo": 120.0
            },
            {
                "start_time": 39.39090909090909,
                "end_time": 39.475,
                "pitch": 48,
                "velocity": 80,
                "duration": 0.08409090909091077,
                "tempo": 120.0
            },
            {
                "start_time": 39.49090909090909,
                "end_time": 39.574999999999996,
                "pitch": 45,
                "velocity": 80,
                "duration": 0.08409090909090366,
                "tempo": 120.0
            },
            {
                "start_time": 40.059090909090905,
                "end_time": 40.17272727272727,
                "pitch": 45,
                "velocity": 80,
                "duration": 0.11363636363636687,
                "tempo": 120.0
            },
            {
                "start_time": 40.18863636363636,
                "end_time": 40.268181818181816,
                "pitch": 43,
                "velocity": 80,
                "duration": 0.07954545454545325,
                "tempo": 120.0
            },
            {
                "start_time": 40.41136363636363,
                "end_time": 40.49090909090909,
                "pitch": 43,
                "velocity": 80,
                "duration": 0.07954545454546036,
                "tempo": 120.0
            },
            {
                "start_time": 40.50681818181818,
                "end_time": 40.59318181818182,
                "pitch": 45,
                "velocity": 80,
                "duration": 0.08636363636363598,
                "tempo": 120.0
            },
            {
                "start_time": 40.74772727272727,
                "end_time": 40.83181818181818,
                "pitch": 48,
                "velocity": 80,
                "duration": 0.08409090909091077,
                "tempo": 120.0
            },
            {
                "start_time": 40.85,
                "end_time": 40.96818181818182,
                "pitch": 45,
                "velocity": 80,
                "duration": 0.11818181818181728,
                "tempo": 120.0
            },
            {
                "start_time": 41.320454545454545,
                "end_time": 41.40454545454545,
                "pitch": 43,
                "velocity": 80,
                "duration": 0.08409090909090366,
                "tempo": 120.0
            },
            {
                "start_time": 41.42045454545455,
                "end_time": 41.53181818181818,
                "pitch": 50,
                "velocity": 80,
                "duration": 0.11136363636363455,
                "tempo": 120.0
            },
            {
                "start_time": 41.55,
                "end_time": 41.62954545454545,
                "pitch": 48,
                "velocity": 80,
                "duration": 0.07954545454545325,
                "tempo": 120.0
            },
            {
                "start_time": 41.64545454545454,
                "end_time": 41.75681818181818,
                "pitch": 47,
                "velocity": 80,
                "duration": 0.11136363636364166,
                "tempo": 120.0
            },
            {
                "start_time": 41.77272727272727,
                "end_time": 41.85227272727273,
                "pitch": 43,
                "velocity": 80,
                "duration": 0.07954545454545325,
                "tempo": 120.0
            },
            {
                "start_time": 41.86818181818182,
                "end_time": 41.95454545454545,
                "pitch": 45,
                "velocity": 80,
                "duration": 0.08636363636363598,
                "tempo": 120.0
            },
            {
                "start_time": 42.00454545454545,
                "end_time": 42.090909090909086,
                "pitch": 43,
                "velocity": 80,
                "duration": 0.08636363636363598,
                "tempo": 120.0
            },
            {
                "start_time": 42.211363636363636,
                "end_time": 42.32954545454545,
                "pitch": 43,
                "velocity": 80,
                "duration": 0.11818181818181728,
                "tempo": 120.0
            },
            {
                "start_time": 42.34772727272727,
                "end_time": 42.43181818181818,
                "pitch": 45,
                "velocity": 80,
                "duration": 0.08409090909091077,
                "tempo": 120.0
            },
            {
                "start_time": 42.58181818181818,
                "end_time": 42.66590909090909,
                "pitch": 48,
                "velocity": 80,
                "duration": 0.08409090909091077,
                "tempo": 120.0
            },
            {
                "start_time": 42.68181818181818,
                "end_time": 42.76590909090909,
                "pitch": 45,
                "velocity": 80,
                "duration": 0.08409090909091077,
                "tempo": 120.0
            },
            {
                "start_time": 43.25,
                "end_time": 43.361363636363635,
                "pitch": 45,
                "velocity": 80,
                "duration": 0.11136363636363455,
                "tempo": 120.0
            },
            {
                "start_time": 43.377272727272725,
                "end_time": 43.45681818181818,
                "pitch": 43,
                "velocity": 80,
                "duration": 0.07954545454545325,
                "tempo": 120.0
            },
            {
                "start_time": 43.60227272727273,
                "end_time": 43.68181818181818,
                "pitch": 43,
                "velocity": 80,
                "duration": 0.07954545454545325,
                "tempo": 120.0
            },
            {
                "start_time": 43.69772727272727,
                "end_time": 43.78181818181818,
                "pitch": 45,
                "velocity": 80,
                "duration": 0.08409090909091077,
                "tempo": 120.0
            },
            {
                "start_time": 43.93636363636364,
                "end_time": 44.02272727272727,
                "pitch": 48,
                "velocity": 80,
                "duration": 0.08636363636363598,
                "tempo": 120.0
            },
            {
                "start_time": 44.038636363636364,
                "end_time": 44.15909090909091,
                "pitch": 45,
                "velocity": 80,
                "duration": 0.12045454545454248,
                "tempo": 120.0
            },
            {
                "start_time": 44.51136363636363,
                "end_time": 44.595454545454544,
                "pitch": 43,
                "velocity": 80,
                "duration": 0.08409090909091077,
                "tempo": 120.0
            },
            {
                "start_time": 44.611363636363635,
                "end_time": 44.72272727272727,
                "pitch": 50,
                "velocity": 80,
                "duration": 0.11136363636363455,
                "tempo": 120.0
            },
            {
                "start_time": 44.73863636363636,
                "end_time": 44.81818181818181,
                "pitch": 48,
                "velocity": 80,
                "duration": 0.07954545454545325,
                "tempo": 120.0
            },
            {
                "start_time": 44.834090909090904,
                "end_time": 44.94772727272727,
                "pitch": 47,
                "velocity": 80,
                "duration": 0.11363636363636687,
                "tempo": 120.0
            },
            {
                "start_time": 44.96363636363636,
                "end_time": 45.043181818181814,
                "pitch": 43,
                "velocity": 80,
                "duration": 0.07954545454545325,
                "tempo": 120.0
            },
            {
                "start_time": 45.059090909090905,
                "end_time": 45.143181818181816,
                "pitch": 45,
                "velocity": 80,
                "duration": 0.08409090909091077,
                "tempo": 120.0
            },
            {
                "start_time": 45.195454545454545,
                "end_time": 45.28181818181818,
                "pitch": 43,
                "velocity": 80,
                "duration": 0.08636363636363598,
                "tempo": 120.0
            },
            {
                "start_time": 45.4,
                "end_time": 45.52045454545454,
                "pitch": 43,
                "velocity": 80,
                "duration": 0.12045454545454248,
                "tempo": 120.0
            },
            {
                "start_time": 45.53636363636363,
                "end_time": 45.61818181818182,
                "pitch": 45,
                "velocity": 80,
                "duration": 0.08181818181818556,
                "tempo": 120.0
            },
            {
                "start_time": 45.76590909090909,
                "end_time": 45.84772727272727,
                "pitch": 48,
                "velocity": 80,
                "duration": 0.08181818181817846,
                "tempo": 120.0
            },
            {
                "start_time": 45.86363636363636,
                "end_time": 45.945454545454545,
                "pitch": 45,
                "velocity": 80,
                "duration": 0.08181818181818556,
                "tempo": 120.0
            },
            {
                "start_time": 46.44090909090909,
                "end_time": 46.55227272727272,
                "pitch": 45,
                "velocity": 80,
                "duration": 0.11136363636363455,
                "tempo": 120.0
            },
            {
                "start_time": 46.56818181818181,
                "end_time": 46.64772727272727,
                "pitch": 43,
                "velocity": 80,
                "duration": 0.07954545454546036,
                "tempo": 120.0
            },
            {
                "start_time": 46.79090909090909,
                "end_time": 46.87045454545454,
                "pitch": 43,
                "velocity": 80,
                "duration": 0.07954545454545325,
                "tempo": 120.0
            },
            {
                "start_time": 46.88636363636363,
                "end_time": 46.97272727272727,
                "pitch": 45,
                "velocity": 80,
                "duration": 0.08636363636363598,
                "tempo": 120.0
            },
            {
                "start_time": 47.127272727272725,
                "end_time": 47.211363636363636,
                "pitch": 48,
                "velocity": 80,
                "duration": 0.08409090909091077,
                "tempo": 120.0
            },
            {
                "start_time": 47.22954545454545,
                "end_time": 47.349999999999994,
                "pitch": 45,
                "velocity": 80,
                "duration": 0.12045454545454248,
                "tempo": 120.0
            },
            {
                "start_time": 47.699999999999996,
                "end_time": 47.78409090909091,
                "pitch": 43,
                "velocity": 80,
                "duration": 0.08409090909091077,
                "tempo": 120.0
            },
            {
                "start_time": 47.8,
                "end_time": 47.913636363636364,
                "pitch": 50,
                "velocity": 80,
                "duration": 0.11363636363636687,
                "tempo": 120.0
            },
            {
                "start_time": 47.929545454545455,
                "end_time": 48.00909090909091,
                "pitch": 48,
                "velocity": 80,
                "duration": 0.07954545454545325,
                "tempo": 120.0
            },
            {
                "start_time": 48.025,
                "end_time": 48.13636363636363,
                "pitch": 47,
                "velocity": 80,
                "duration": 0.11136363636363455,
                "tempo": 120.0
            },
            {
                "start_time": 48.152272727272724,
                "end_time": 48.23181818181818,
                "pitch": 43,
                "velocity": 80,
                "duration": 0.07954545454545325,
                "tempo": 120.0
            },
            {
                "start_time": 48.24772727272727,
                "end_time": 48.334090909090904,
                "pitch": 45,
                "velocity": 80,
                "duration": 0.08636363636363598,
                "tempo": 120.0
            },
            {
                "start_time": 48.38409090909091,
                "end_time": 48.470454545454544,
                "pitch": 43,
                "velocity": 80,
                "duration": 0.08636363636363598,
                "tempo": 120.0
            },
            {
                "start_time": 48.590909090909086,
                "end_time": 48.711363636363636,
                "pitch": 43,
                "velocity": 80,
                "duration": 0.12045454545454959,
                "tempo": 120.0
            },
            {
                "start_time": 48.72727272727273,
                "end_time": 48.81136363636364,
                "pitch": 45,
                "velocity": 80,
                "duration": 0.08409090909091077,
                "tempo": 120.0
            },
            {
                "start_time": 48.961363636363636,
                "end_time": 49.04545454545454,
                "pitch": 48,
                "velocity": 80,
                "duration": 0.08409090909090366,
                "tempo": 120.0
            },
            {
                "start_time": 49.06136363636364,
                "end_time": 49.14545454545454,
                "pitch": 45,
                "velocity": 80,
                "duration": 0.08409090909090366,
                "tempo": 120.0
            },
            {
                "start_time": 49.62954545454545,
                "end_time": 49.74318181818182,
                "pitch": 45,
                "velocity": 80,
                "duration": 0.11363636363636687,
                "tempo": 120.0
            },
            {
                "start_time": 49.75909090909091,
                "end_time": 49.83863636363636,
                "pitch": 43,
                "velocity": 80,
                "duration": 0.07954545454545325,
                "tempo": 120.0
            },
            {
                "start_time": 49.98181818181818,
                "end_time": 50.06136363636364,
                "pitch": 43,
                "velocity": 80,
                "duration": 0.07954545454546036,
                "tempo": 120.0
            },
            {
                "start_time": 50.07727272727273,
                "end_time": 50.163636363636364,
                "pitch": 45,
                "velocity": 80,
                "duration": 0.08636363636363598,
                "tempo": 120.0
            },
            {
                "start_time": 50.31590909090909,
                "end_time": 50.402272727272724,
                "pitch": 48,
                "velocity": 80,
                "duration": 0.08636363636363598,
                "tempo": 120.0
            },
            {
                "start_time": 50.42045454545454,
                "end_time": 50.538636363636364,
                "pitch": 45,
                "velocity": 80,
                "duration": 0.11818181818182438,
                "tempo": 120.0
            },
            {
                "start_time": 50.89090909090909,
                "end_time": 50.974999999999994,
                "pitch": 43,
                "velocity": 80,
                "duration": 0.08409090909090366,
                "tempo": 120.0
            },
            {
                "start_time": 50.990909090909085,
                "end_time": 51.10227272727273,
                "pitch": 50,
                "velocity": 80,
                "duration": 0.11136363636364166,
                "tempo": 120.0
            },
            {
                "start_time": 51.11818181818182,
                "end_time": 51.199999999999996,
                "pitch": 48,
                "velocity": 80,
                "duration": 0.08181818181817846,
                "tempo": 120.0
            },
            {
                "start_time": 51.215909090909086,
                "end_time": 51.32727272727273,
                "pitch": 47,
                "velocity": 80,
                "duration": 0.11136363636364166,
                "tempo": 120.0
            },
            {
                "start_time": 51.34318181818182,
                "end_time": 51.42272727272727,
                "pitch": 43,
                "velocity": 80,
                "duration": 0.07954545454545325,
                "tempo": 120.0
            },
            {
                "start_time": 51.43863636363636,
                "end_time": 51.525,
                "pitch": 45,
                "velocity": 80,
                "duration": 0.08636363636363598,
                "tempo": 120.0
            },
            {
                "start_time": 51.574999999999996,
                "end_time": 51.66136363636363,
                "pitch": 43,
                "velocity": 80,
                "duration": 0.08636363636363598,
                "tempo": 120.0
            },
            {
                "start_time": 51.78181818181818,
                "end_time": 51.9,
                "pitch": 43,
                "velocity": 80,
                "duration": 0.11818181818181728,
                "tempo": 120.0
            },
            {
                "start_time": 51.918181818181814,
                "end_time": 52.002272727272725,
                "pitch": 45,
                "velocity": 80,
                "duration": 0.08409090909091077,
                "tempo": 120.0
            },
            {
                "start_time": 52.152272727272724,
                "end_time": 52.236363636363635,
                "pitch": 48,
                "velocity": 80,
                "duration": 0.08409090909091077,
                "tempo": 120.0
            },
            {
                "start_time": 52.252272727272725,
                "end_time": 52.336363636363636,
                "pitch": 45,
                "velocity": 80,
                "duration": 0.08409090909091077,
                "tempo": 120.0
            },
            {
                "start_time": 52.820454545454545,
                "end_time": 52.93181818181818,
                "pitch": 45,
                "velocity": 80,
                "duration": 0.11136363636363455,
                "tempo": 120.0
            },
            {
                "start_time": 52.94772727272727,
                "end_time": 53.027272727272724,
                "pitch": 43,
                "velocity": 80,
                "duration": 0.07954545454545325,
                "tempo": 120.0
            },
            {
                "start_time": 53.17272727272727,
                "end_time": 53.252272727272725,
                "pitch": 43,
                "velocity": 80,
                "duration": 0.07954545454545325,
                "tempo": 120.0
            },
            {
                "start_time": 53.268181818181816,
                "end_time": 53.35227272727273,
                "pitch": 45,
                "velocity": 80,
                "duration": 0.08409090909091077,
                "tempo": 120.0
            },
            {
                "start_time": 53.50681818181818,
                "end_time": 53.59318181818182,
                "pitch": 48,
                "velocity": 80,
                "duration": 0.08636363636363598,
                "tempo": 120.0
            },
            {
                "start_time": 53.60909090909091,
                "end_time": 53.72954545454545,
                "pitch": 45,
                "velocity": 80,
                "duration": 0.12045454545454248,
                "tempo": 120.0
            },
            {
                "start_time": 54.08181818181818,
                "end_time": 54.16590909090909,
                "pitch": 43,
                "velocity": 80,
                "duration": 0.08409090909091077,
                "tempo": 120.0
            },
            {
                "start_time": 54.18181818181818,
                "end_time": 54.293181818181814,
                "pitch": 50,
                "velocity": 80,
                "duration": 0.11136363636363455,
                "tempo": 120.0
            },
            {
                "start_time": 54.309090909090905,
                "end_time": 54.38863636363636,
                "pitch": 48,
                "velocity": 80,
                "duration": 0.07954545454545325,
                "tempo": 120.0
            },
            {
                "start_time": 54.40454545454545,
                "end_time": 54.518181818181816,
                "pitch": 47,
                "velocity": 80,
                "duration": 0.11363636363636687,
                "tempo": 120.0
            },
            {
                "start_time": 54.53409090909091,
                "end_time": 54.61363636363636,
                "pitch": 43,
                "velocity": 80,
                "duration": 0.07954545454545325,
                "tempo": 120.0
            },
            {
                "start_time": 54.62954545454545,
                "end_time": 54.71363636363636,
                "pitch": 45,
                "velocity": 80,
                "duration": 0.08409090909091077,
                "tempo": 120.0
            },
            {
                "start_time": 54.76590909090909,
                "end_time": 54.85227272727273,
                "pitch": 43,
                "velocity": 80,
                "duration": 0.08636363636363598,
                "tempo": 120.0
            },
            {
                "start_time": 54.970454545454544,
                "end_time": 55.090909090909086,
                "pitch": 43,
                "velocity": 80,
                "duration": 0.12045454545454248,
                "tempo": 120.0
            },
            {
                "start_time": 55.10681818181818,
                "end_time": 55.19090909090909,
                "pitch": 45,
                "velocity": 80,
                "duration": 0.08409090909091077,
                "tempo": 120.0
            },
            {
                "start_time": 55.340909090909086,
                "end_time": 55.425,
                "pitch": 48,
                "velocity": 80,
                "duration": 0.08409090909091077,
                "tempo": 120.0
            },
            {
                "start_time": 55.44318181818181,
                "end_time": 55.525,
                "pitch": 45,
                "velocity": 80,
                "duration": 0.08181818181818556,
                "tempo": 120.0
            },
            {
                "start_time": 56.01136363636363,
                "end_time": 56.12272727272727,
                "pitch": 45,
                "velocity": 80,
                "duration": 0.11136363636363455,
                "tempo": 120.0
            },
            {
                "start_time": 56.13863636363636,
                "end_time": 56.21818181818182,
                "pitch": 43,
                "velocity": 80,
                "duration": 0.07954545454546036,
                "tempo": 120.0
            },
            {
                "start_time": 56.361363636363635,
                "end_time": 56.44318181818181,
                "pitch": 43,
                "velocity": 80,
                "duration": 0.08181818181817846,
                "tempo": 120.0
            },
            {
                "start_time": 56.459090909090904,
                "end_time": 56.543181818181814,
                "pitch": 45,
                "velocity": 80,
                "duration": 0.08409090909091077,
                "tempo": 120.0
            },
            {
                "start_time": 56.69772727272727,
                "end_time": 56.78409090909091,
                "pitch": 48,
                "velocity": 80,
                "duration": 0.08636363636363598,
                "tempo": 120.0
            },
            {
                "start_time": 56.8,
                "end_time": 56.92045454545454,
                "pitch": 45,
                "velocity": 80,
                "duration": 0.12045454545454248,
                "tempo": 120.0
            },
            {
                "start_time": 57.27045454545454,
                "end_time": 57.35454545454545,
                "pitch": 43,
                "velocity": 80,
                "duration": 0.08409090909091077,
                "tempo": 120.0
            },
            {
                "start_time": 57.37272727272727,
                "end_time": 57.48409090909091,
                "pitch": 50,
                "velocity": 80,
                "duration": 0.11136363636364166,
                "tempo": 120.0
            },
            {
                "start_time": 57.5,
                "end_time": 57.57954545454545,
                "pitch": 48,
                "velocity": 80,
                "duration": 0.07954545454545325,
                "tempo": 120.0
            },
            {
                "start_time": 57.595454545454544,
                "end_time": 57.70681818181818,
                "pitch": 47,
                "velocity": 80,
                "duration": 0.11136363636363455,
                "tempo": 120.0
            },
            {
                "start_time": 57.72272727272727,
                "end_time": 57.804545454545455,
                "pitch": 43,
                "velocity": 80,
                "duration": 0.08181818181818556,
                "tempo": 120.0
            },
            {
                "start_time": 57.820454545454545,
                "end_time": 57.90454545454545,
                "pitch": 45,
                "velocity": 80,
                "duration": 0.08409090909090366,
                "tempo": 120.0
            },
            {
                "start_time": 57.95681818181818,
                "end_time": 58.04090909090909,
                "pitch": 43,
                "velocity": 80,
                "duration": 0.08409090909091077,
                "tempo": 120.0
            },
            {
                "start_time": 58.16136363636363,
                "end_time": 58.28181818181818,
                "pitch": 43,
                "velocity": 80,
                "duration": 0.12045454545454959,
                "tempo": 120.0
            },
            {
                "start_time": 58.29772727272727,
                "end_time": 58.37954545454545,
                "pitch": 45,
                "velocity": 80,
                "duration": 0.08181818181817846,
                "tempo": 120.0
            },
            {
                "start_time": 58.527272727272724,
                "end_time": 58.60909090909091,
                "pitch": 48,
                "velocity": 80,
                "duration": 0.08181818181818556,
                "tempo": 120.0
            },
            {
                "start_time": 58.625,
                "end_time": 58.70681818181818,
                "pitch": 45,
                "velocity": 80,
                "duration": 0.08181818181817846,
                "tempo": 120.0
            },
            {
                "start_time": 59.199999999999996,
                "end_time": 59.50454545454545,
                "pitch": 33,
                "velocity": 80,
                "duration": 0.3045454545454547,
                "tempo": 120.0
            },
            {
                "start_time": 59.55227272727272,
                "end_time": 59.631818181818176,
                "pitch": 40,
                "velocity": 80,
                "duration": 0.07954545454545325,
                "tempo": 120.0
            },
            {
                "start_time": 59.64772727272727,
                "end_time": 59.87045454545454,
                "pitch": 40,
                "velocity": 80,
                "duration": 0.2227272727272691,
                "tempo": 120.0
            },
            {
                "start_time": 59.88636363636363,
                "end_time": 59.97272727272727,
                "pitch": 45,
                "velocity": 80,
                "duration": 0.08636363636363598,
                "tempo": 120.0
            },
            {
                "start_time": 59.990909090909085,
                "end_time": 60.10909090909091,
                "pitch": 40,
                "velocity": 80,
                "duration": 0.11818181818182438,
                "tempo": 120.0
            },
            {
                "start_time": 60.127272727272725,
                "end_time": 60.445454545454545,
                "pitch": 33,
                "velocity": 80,
                "duration": 0.3181818181818201,
                "tempo": 120.0
            },
            {
                "start_time": 60.461363636363636,
                "end_time": 60.54545454545454,
                "pitch": 40,
                "velocity": 80,
                "duration": 0.08409090909090366,
                "tempo": 120.0
            },
            {
                "start_time": 60.56136363636363,
                "end_time": 60.77045454545454,
                "pitch": 40,
                "velocity": 80,
                "duration": 0.20909090909091077,
                "tempo": 120.0
            },
            {
                "start_time": 60.78636363636363,
                "end_time": 60.99318181818182,
                "pitch": 33,
                "velocity": 80,
                "duration": 0.20681818181818556,
                "tempo": 120.0
            },
            {
                "start_time": 61.00909090909091,
                "end_time": 61.334090909090904,
                "pitch": 35,
                "velocity": 80,
                "duration": 0.32499999999999574,
                "tempo": 120.0
            },
            {
                "start_time": 61.349999999999994,
                "end_time": 61.470454545454544,
                "pitch": 42,
                "velocity": 80,
                "duration": 0.12045454545454959,
                "tempo": 120.0
            },
            {
                "start_time": 61.48863636363636,
                "end_time": 61.70454545454545,
                "pitch": 42,
                "velocity": 80,
                "duration": 0.2159090909090935,
                "tempo": 120.0
            },
            {
                "start_time": 61.72272727272727,
                "end_time": 61.804545454545455,
                "pitch": 47,
                "velocity": 80,
                "duration": 0.08181818181818556,
                "tempo": 120.0
            },
            {
                "start_time": 61.82272727272727,
                "end_time": 61.90681818181818,
                "pitch": 42,
                "velocity": 80,
                "duration": 0.08409090909091077,
                "tempo": 120.0
            },
            {
                "start_time": 61.95681818181818,
                "end_time": 62.272727272727266,
                "pitch": 35,
                "velocity": 80,
                "duration": 0.3159090909090878,
                "tempo": 120.0
            },
            {
                "start_time": 62.29090909090909,
                "end_time": 62.375,
                "pitch": 42,
                "velocity": 80,
                "duration": 0.08409090909091077,
                "tempo": 120.0
            },
            {
                "start_time": 62.39090909090909,
                "end_time": 62.59772727272727,
                "pitch": 42,
                "velocity": 80,
                "duration": 0.20681818181817846,
                "tempo": 120.0
            },
            {
                "start_time": 62.61363636363636,
                "end_time": 62.82272727272727,
                "pitch": 35,
                "velocity": 80,
                "duration": 0.20909090909091077,
                "tempo": 120.0
            },
            {
                "start_time": 62.83863636363636,
                "end_time": 63.163636363636364,
                "pitch": 36,
                "velocity": 80,
                "duration": 0.32500000000000284,
                "tempo": 120.0
            },
            {
                "start_time": 63.179545454545455,
                "end_time": 63.3,
                "pitch": 43,
                "velocity": 80,
                "duration": 0.12045454545454248,
                "tempo": 120.0
            },
            {
                "start_time": 63.31818181818181,
                "end_time": 63.5,
                "pitch": 43,
                "velocity": 80,
                "duration": 0.18181818181818699,
                "tempo": 120.0
            },
            {
                "start_time": 63.55227272727272,
                "end_time": 63.73409090909091,
                "pitch": 36,
                "velocity": 80,
                "duration": 0.18181818181818699,
                "tempo": 120.0
            },
            {
                "start_time": 63.752272727272725,
                "end_time": 64.08863636363635,
                "pitch": 36,
                "velocity": 80,
                "duration": 0.33636363636362887,
                "tempo": 120.0
            },
            {
                "start_time": 64.10454545454544,
                "end_time": 64.18409090909091,
                "pitch": 43,
                "velocity": 80,
                "duration": 0.07954545454546746,
                "tempo": 120.0
            },
            {
                "start_time": 64.2,
                "end_time": 64.41590909090908,
                "pitch": 43,
                "velocity": 80,
                "duration": 0.21590909090907928,
                "tempo": 120.0
            },
            {
                "start_time": 64.43409090909091,
                "end_time": 64.64999999999999,
                "pitch": 36,
                "velocity": 80,
                "duration": 0.21590909090907928,
                "tempo": 120.0
            },
            {
                "start_time": 64.66818181818182,
                "end_time": 64.99318181818181,
                "pitch": 36,
                "velocity": 80,
                "duration": 0.32499999999998863,
                "tempo": 120.0
            },
            {
                "start_time": 65.0090909090909,
                "end_time": 65.09545454545454,
                "pitch": 43,
                "velocity": 80,
                "duration": 0.08636363636364308,
                "tempo": 120.0
            },
            {
                "start_time": 65.14772727272727,
                "end_time": 65.33636363636363,
                "pitch": 43,
                "velocity": 80,
                "duration": 0.1886363636363626,
                "tempo": 120.0
            },
            {
                "start_time": 65.35227272727272,
                "end_time": 65.575,
                "pitch": 36,
                "velocity": 80,
                "duration": 0.22272727272728332,
                "tempo": 120.0
            },
            {
                "start_time": 65.5909090909091,
                "end_time": 65.88863636363637,
                "pitch": 36,
                "velocity": 80,
                "duration": 0.29772727272727195,
                "tempo": 120.0
            },
            {
                "start_time": 65.93636363636364,
                "end_time": 66.01363636363637,
                "pitch": 43,
                "velocity": 80,
                "duration": 0.07727272727272805,
                "tempo": 120.0
            },
            {
                "start_time": 66.02954545454546,
                "end_time": 66.25227272727273,
                "pitch": 43,
                "velocity": 80,
                "duration": 0.2227272727272691,
                "tempo": 120.0
            },
            {
                "start_time": 66.26818181818182,
                "end_time": 66.49090909090908,
                "pitch": 36,
                "velocity": 80,
                "duration": 0.2227272727272691,
                "tempo": 120.0
            },
            {
                "start_time": 66.5090909090909,
                "end_time": 66.82727272727273,
                "pitch": 33,
                "velocity": 80,
                "duration": 0.3181818181818272,
                "tempo": 120.0
            },
            {
                "start_time": 66.84318181818182,
                "end_time": 66.92727272727272,
                "pitch": 40,
                "velocity": 80,
                "duration": 0.08409090909090366,
                "tempo": 120.0
            },
            {
                "start_time": 66.94318181818181,
                "end_time": 67.15227272727273,
                "pitch": 40,
                "velocity": 80,
                "duration": 0.20909090909091788,
                "tempo": 120.0
            },
            {
                "start_time": 67.16818181818182,
                "end_time": 67.27954545454546,
                "pitch": 45,
                "velocity": 80,
                "duration": 0.11136363636363455,
                "tempo": 120.0
            },
            {
                "start_time": 67.29545454545455,
                "end_time": 67.375,
                "pitch": 40,
                "velocity": 80,
                "duration": 0.07954545454545325,
                "tempo": 120.0
            },
            {
                "start_time": 67.39090909090909,
                "end_time": 67.7159090909091,
                "pitch": 33,
                "velocity": 80,
                "duration": 0.32500000000000284,
                "tempo": 120.0
            },
            {
                "start_time": 67.73181818181818,
                "end_time": 67.85227272727272,
                "pitch": 40,
                "velocity": 80,
                "duration": 0.12045454545453538,
                "tempo": 120.0
            },
            {
                "start_time": 67.87045454545454,
                "end_time": 68.08636363636363,
                "pitch": 40,
                "velocity": 80,
                "duration": 0.2159090909090935,
                "tempo": 120.0
            },
            {
                "start_time": 68.10454545454544,
                "end_time": 68.28863636363636,
                "pitch": 33,
                "velocity": 80,
                "duration": 0.1840909090909122,
                "tempo": 120.0
            },
            {
                "start_time": 68.33863636363635,
                "end_time": 68.66363636363636,
                "pitch": 35,
                "velocity": 80,
                "duration": 0.32500000000000284,
                "tempo": 120.0
            },
            {
                "start_time": 68.67954545454545,
                "end_time": 68.76590909090909,
                "pitch": 42,
                "velocity": 80,
                "duration": 0.08636363636364308,
                "tempo": 120.0
            },
            {
                "start_time": 68.78181818181818,
                "end_time": 68.98636363636363,
                "pitch": 42,
                "velocity": 80,
                "duration": 0.20454545454545325,
                "tempo": 120.0
            },
            {
                "start_time": 69.00227272727273,
                "end_time": 69.07954545454545,
                "pitch": 47,
                "velocity": 80,
                "duration": 0.07727272727272805,
                "tempo": 120.0
            },
            {
                "start_time": 69.12727272727273,
                "end_time": 69.20454545454545,
                "pitch": 42,
                "velocity": 80,
                "duration": 0.07727272727272805,
                "tempo": 120.0
            },
            {
                "start_time": 69.22045454545454,
                "end_time": 69.54545454545455,
                "pitch": 35,
                "velocity": 80,
                "duration": 0.32500000000000284,
                "tempo": 120.0
            },
            {
                "start_time": 69.56136363636364,
                "end_time": 69.68181818181817,
                "pitch": 42,
                "velocity": 80,
                "duration": 0.12045454545453538,
                "tempo": 120.0
            },
            {
                "start_time": 69.7,
                "end_time": 69.8840909090909,
                "pitch": 42,
                "velocity": 80,
                "duration": 0.18409090909089798,
                "tempo": 120.0
            },
            {
                "start_time": 69.93409090909091,
                "end_time": 70.11818181818181,
                "pitch": 35,
                "velocity": 80,
                "duration": 0.18409090909089798,
                "tempo": 120.0
            },
            {
                "start_time": 70.1340909090909,
                "end_time": 70.47045454545454,
                "pitch": 36,
                "velocity": 80,
                "duration": 0.3363636363636431,
                "tempo": 120.0
            },
            {
                "start_time": 70.48636363636363,
                "end_time": 70.56590909090909,
                "pitch": 43,
                "velocity": 80,
                "duration": 0.07954545454545325,
                "tempo": 120.0
            },
            {
                "start_time": 70.58181818181818,
                "end_time": 70.80454545454545,
                "pitch": 43,
                "velocity": 80,
                "duration": 0.2227272727272691,
                "tempo": 120.0
            },
            {
                "start_time": 70.82045454545454,
                "end_time": 71.04318181818182,
                "pitch": 36,
                "velocity": 80,
                "duration": 0.22272727272728332,
                "tempo": 120.0
            },
            {
                "start_time": 71.06136363636364,
                "end_time": 71.37727272727273,
                "pitch": 36,
                "velocity": 80,
                "duration": 0.3159090909090878,
                "tempo": 120.0
            },
            {
                "start_time": 71.39545454545454,
                "end_time": 71.47727272727272,
                "pitch": 43,
                "velocity": 80,
                "duration": 0.08181818181817846,
                "tempo": 120.0
            },
            {
                "start_time": 71.52954545454546,
                "end_time": 71.7159090909091,
                "pitch": 43,
                "velocity": 80,
                "duration": 0.1863636363636374,
                "tempo": 120.0
            },
            {
                "start_time": 71.73409090909091,
                "end_time": 71.95681818181818,
                "pitch": 36,
                "velocity": 80,
                "duration": 0.2227272727272691,
                "tempo": 120.0
            },
            {
                "start_time": 71.97272727272727,
                "end_time": 72.27727272727272,
                "pitch": 36,
                "velocity": 80,
                "duration": 0.30454545454544757,
                "tempo": 120.0
            },
            {
                "start_time": 72.325,
                "end_time": 72.40454545454546,
                "pitch": 43,
                "velocity": 80,
                "duration": 0.07954545454545325,
                "tempo": 120.0
            },
            {
                "start_time": 72.42045454545455,
                "end_time": 72.63863636363637,
                "pitch": 43,
                "velocity": 80,
                "duration": 0.2181818181818187,
                "tempo": 120.0
            },
            {
                "start_time": 72.65454545454546,
                "end_time": 72.87272727272727,
                "pitch": 36,
                "velocity": 80,
                "duration": 0.2181818181818187,
                "tempo": 120.0
            },
            {
                "start_time": 72.88863636363637,
                "end_time": 73.20681818181818,
                "pitch": 36,
                "velocity": 80,
                "duration": 0.318181818181813,
                "tempo": 120.0
            },
            {
                "start_time": 73.225,
                "end_time": 73.30681818181817,
                "pitch": 43,
                "velocity": 80,
                "duration": 0.08181818181817846,
                "tempo": 120.0
            },
            {
                "start_time": 73.325,
                "end_time": 73.53181818181818,
                "pitch": 43,
                "velocity": 80,
                "duration": 0.20681818181817846,
                "tempo": 120.0
            },
            {
                "start_time": 73.54772727272727,
                "end_time": 73.75681818181818,
                "pitch": 36,
                "velocity": 80,
                "duration": 0.20909090909090366,
                "tempo": 120.0
            },
            {
                "start_time": 73.77272727272727,
                "end_time": 74.08863636363635,
                "pitch": 33,
                "velocity": 80,
                "duration": 0.3159090909090878,
                "tempo": 120.0
            },
            {
                "start_time": 74.10681818181818,
                "end_time": 74.22272727272727,
                "pitch": 40,
                "velocity": 80,
                "duration": 0.11590909090908497,
                "tempo": 120.0
            },
            {
                "start_time": 74.24090909090908,
                "end_time": 74.46363636363635,
                "pitch": 40,
                "velocity": 80,
                "duration": 0.2227272727272691,
                "tempo": 120.0
            },
            {
                "start_time": 74.47954545454544,
                "end_time": 74.56590909090909,
                "pitch": 45,
                "velocity": 80,
                "duration": 0.08636363636364308,
                "tempo": 120.0
            },
            {
                "start_time": 74.58181818181818,
                "end_time": 74.66818181818182,
                "pitch": 40,
                "velocity": 80,
                "duration": 0.08636363636364308,
                "tempo": 120.0
            },
            {
                "start_time": 74.71818181818182,
                "end_time": 75.03636363636363,
                "pitch": 33,
                "velocity": 80,
                "duration": 0.318181818181813,
                "tempo": 120.0
            },
            {
                "start_time": 75.05454545454545,
                "end_time": 75.13636363636363,
                "pitch": 40,
                "velocity": 80,
                "duration": 0.08181818181817846,
                "tempo": 120.0
            },
            {
                "start_time": 75.15454545454546,
                "end_time": 75.36136363636363,
                "pitch": 40,
                "velocity": 80,
                "duration": 0.20681818181817846,
                "tempo": 120.0
            },
            {
                "start_time": 75.37727272727273,
                "end_time": 75.58636363636363,
                "pitch": 33,
                "velocity": 80,
                "duration": 0.20909090909090366,
                "tempo": 120.0
            },
            {
                "start_time": 75.60227272727272,
                "end_time": 75.92727272727272,
                "pitch": 35,
                "velocity": 80,
                "duration": 0.32500000000000284,
                "tempo": 120.0
            },
            {
                "start_time": 75.94318181818181,
                "end_time": 76.06363636363636,
                "pitch": 42,
                "velocity": 80,
                "duration": 0.12045454545454959,
                "tempo": 120.0
            },
            {
                "start_time": 76.07954545454545,
                "end_time": 76.26818181818182,
                "pitch": 42,
                "velocity": 80,
                "duration": 0.1886363636363626,
                "tempo": 120.0
            },
            {
                "start_time": 76.32045454545454,
                "end_time": 76.40454545454546,
                "pitch": 47,
                "velocity": 80,
                "duration": 0.08409090909091788,
                "tempo": 120.0
            },
            {
                "start_time": 76.42272727272727,
                "end_time": 76.5090909090909,
                "pitch": 42,
                "velocity": 80,
                "duration": 0.08636363636362887,
                "tempo": 120.0
            },
            {
                "start_time": 76.52499999999999,
                "end_time": 76.85454545454544,
                "pitch": 35,
                "velocity": 80,
                "duration": 0.32954545454545325,
                "tempo": 120.0
            },
            {
                "start_time": 76.87045454545454,
                "end_time": 76.94772727272726,
                "pitch": 42,
                "velocity": 80,
                "duration": 0.07727272727272805,
                "tempo": 120.0
            },
            {
                "start_time": 76.96363636363635,
                "end_time": 77.18181818181817,
                "pitch": 42,
                "velocity": 80,
                "duration": 0.2181818181818187,
                "tempo": 120.0
            },
            {
                "start_time": 77.19772727272726,
                "end_time": 77.41590909090908,
                "pitch": 35,
                "velocity": 80,
                "duration": 0.2181818181818187,
                "tempo": 120.0
            },
            {
                "start_time": 77.43181818181817,
                "end_time": 77.75681818181818,
                "pitch": 36,
                "velocity": 80,
                "duration": 0.32500000000000284,
                "tempo": 120.0
            },
            {
                "start_time": 77.77499999999999,
                "end_time": 77.85909090909091,
                "pitch": 43,
                "velocity": 80,
                "duration": 0.08409090909091788,
                "tempo": 120.0
            },
            {
                "start_time": 77.91136363636363,
                "end_time": 78.1,
                "pitch": 43,
                "velocity": 80,
                "duration": 0.1886363636363626,
                "tempo": 120.0
            },
            {
                "start_time": 78.11590909090908,
                "end_time": 78.33863636363635,
                "pitch": 36,
                "velocity": 80,
                "duration": 0.2227272727272691,
                "tempo": 120.0
            },
            {
                "start_time": 78.35681818181818,
                "end_time": 78.66136363636363,
                "pitch": 36,
                "velocity": 80,
                "duration": 0.30454545454544757,
                "tempo": 120.0
            },
            {
                "start_time": 78.7090909090909,
                "end_time": 78.78863636363636,
                "pitch": 43,
                "velocity": 80,
                "duration": 0.07954545454545325,
                "tempo": 120.0
            },
            {
                "start_time": 78.80454545454545,
                "end_time": 79.02045454545454,
                "pitch": 43,
                "velocity": 80,
                "duration": 0.2159090909090935,
                "tempo": 120.0
            },
            {
                "start_time": 79.03863636363636,
                "end_time": 79.25454545454545,
                "pitch": 36,
                "velocity": 80,
                "duration": 0.2159090909090935,
                "tempo": 120.0
            },
            {
                "start_time": 79.27272727272727,
                "end_time": 79.58863636363635,
                "pitch": 36,
                "velocity": 80,
                "duration": 0.3159090909090878,
                "tempo": 120.0
            },
            {
                "start_time": 79.60681818181818,
                "end_time": 79.69090909090909,
                "pitch": 43,
                "velocity": 80,
                "duration": 0.08409090909090366,
                "tempo": 120.0
            },
            {
                "start_time": 79.70681818181818,
                "end_time": 79.91363636363636,
                "pitch": 43,
                "velocity": 80,
                "duration": 0.20681818181817846,
                "tempo": 120.0
            },
            {
                "start_time": 79.92954545454545,
                "end_time": 80.13863636363637,
                "pitch": 36,
                "velocity": 80,
                "duration": 0.20909090909091788,
                "tempo": 120.0
            },
            {
                "start_time": 80.15454545454546,
                "end_time": 80.47954545454544,
                "pitch": 36,
                "velocity": 80,
                "duration": 0.32499999999998863,
                "tempo": 120.0
            },
            {
                "start_time": 80.49545454545454,
                "end_time": 80.61590909090908,
                "pitch": 43,
                "velocity": 80,
                "duration": 0.12045454545454959,
                "tempo": 120.0
            },
            {
                "start_time": 80.6340909090909,
                "end_time": 80.85,
                "pitch": 43,
                "velocity": 80,
                "duration": 0.2159090909090935,
                "tempo": 120.0
            },
            {
                "start_time": 80.86818181818181,
                "end_time": 81.05,
                "pitch": 36,
                "velocity": 80,
                "duration": 0.18181818181818699,
                "tempo": 120.0
            },
            {
                "start_time": 81.10227272727272,
                "end_time": 81.41818181818181,
                "pitch": 33,
                "velocity": 80,
                "duration": 0.3159090909090878,
                "tempo": 120.0
            },
            {
                "start_time": 81.43636363636364,
                "end_time": 81.51818181818182,
                "pitch": 40,
                "velocity": 80,
                "duration": 0.08181818181817846,
                "tempo": 120.0
            },
            {
                "start_time": 81.53636363636363,
                "end_time": 81.74318181818181,
                "pitch": 40,
                "velocity": 80,
                "duration": 0.20681818181817846,
                "tempo": 120.0
            },
            {
                "start_time": 81.7590909090909,
                "end_time": 81.83863636363635,
                "pitch": 45,
                "velocity": 80,
                "duration": 0.07954545454545325,
                "tempo": 120.0
            },
            {
                "start_time": 81.88863636363637,
                "end_time": 81.96818181818182,
                "pitch": 40,
                "velocity": 80,
                "duration": 0.07954545454545325,
                "tempo": 120.0
            },
            {
                "start_time": 81.98409090909091,
                "end_time": 82.30909090909091,
                "pitch": 33,
                "velocity": 80,
                "duration": 0.32500000000000284,
                "tempo": 120.0
            },
            {
                "start_time": 82.325,
                "end_time": 82.44545454545454,
                "pitch": 40,
                "velocity": 80,
                "duration": 0.12045454545453538,
                "tempo": 120.0
            },
            {
                "start_time": 82.46136363636363,
                "end_time": 82.64545454545454,
                "pitch": 40,
                "velocity": 80,
                "duration": 0.1840909090909122,
                "tempo": 120.0
            },
            {
                "start_time": 82.69545454545454,
                "end_time": 82.87954545454545,
                "pitch": 33,
                "velocity": 80,
                "duration": 0.1840909090909122,
                "tempo": 120.0
            },
            {
                "start_time": 82.89772727272727,
                "end_time": 83.23181818181818,
                "pitch": 35,
                "velocity": 80,
                "duration": 0.3340909090909179,
                "tempo": 120.0
            },
            {
                "start_time": 83.24772727272727,
                "end_time": 83.32954545454545,
                "pitch": 42,
                "velocity": 80,
                "duration": 0.08181818181817846,
                "tempo": 120.0
            },
            {
                "start_time": 83.34545454545454,
                "end_time": 83.56136363636364,
                "pitch": 42,
                "velocity": 80,
                "duration": 0.2159090909090935,
                "tempo": 120.0
            },
            {
                "start_time": 83.57954545454545,
                "end_time": 83.66136363636363,
                "pitch": 47,
                "velocity": 80,
                "duration": 0.08181818181817846,
                "tempo": 120.0
            },
            {
                "start_time": 83.67954545454545,
                "end_time": 83.79545454545455,
                "pitch": 42,
                "velocity": 80,
                "duration": 0.11590909090909918,
                "tempo": 120.0
            },
            {
                "start_time": 83.81363636363636,
                "end_time": 84.13863636363637,
                "pitch": 35,
                "velocity": 80,
                "duration": 0.32500000000000284,
                "tempo": 120.0
            },
            {
                "start_time": 84.15454545454546,
                "end_time": 84.24090909090908,
                "pitch": 42,
                "velocity": 80,
                "duration": 0.08636363636362887,
                "tempo": 120.0
            },
            {
                "start_time": 84.29318181818181,
                "end_time": 84.47954545454544,
                "pitch": 42,
                "velocity": 80,
                "duration": 0.1863636363636374,
                "tempo": 120.0
            },
            {
                "start_time": 84.49772727272727,
                "end_time": 84.72045454545454,
                "pitch": 35,
                "velocity": 80,
                "duration": 0.2227272727272691,
                "tempo": 120.0
            },
            {
                "start_time": 84.73636363636363,
                "end_time": 85.0340909090909,
                "pitch": 36,
                "velocity": 80,
                "duration": 0.29772727272727195,
                "tempo": 120.0
            },
            {
                "start_time": 85.08181818181818,
                "end_time": 85.1590909090909,
                "pitch": 43,
                "velocity": 80,
                "duration": 0.07727272727272805,
                "tempo": 120.0
            },
            {
                "start_time": 85.175,
                "end_time": 85.39772727272727,
                "pitch": 43,
                "velocity": 80,
                "duration": 0.2227272727272691,
                "tempo": 120.0
            },
            {
                "start_time": 85.41363636363636,
                "end_time": 85.63636363636363,
                "pitch": 36,
                "velocity": 80,
                "duration": 0.2227272727272691,
                "tempo": 120.0
            },
            {
                "start_time": 85.65454545454546,
                "end_time": 85.97045454545454,
                "pitch": 36,
                "velocity": 80,
                "duration": 0.3159090909090878,
                "tempo": 120.0
            },
            {
                "start_time": 85.98863636363636,
                "end_time": 86.07272727272726,
                "pitch": 43,
                "velocity": 80,
                "duration": 0.08409090909090366,
                "tempo": 120.0
            },
            {
                "start_time": 86.08863636363635,
                "end_time": 86.29545454545455,
                "pitch": 43,
                "velocity": 80,
                "duration": 0.20681818181819267,
                "tempo": 120.0
            },
            {
                "start_time": 86.31136363636364,
                "end_time": 86.52045454545454,
                "pitch": 36,
                "velocity": 80,
                "duration": 0.20909090909090366,
                "tempo": 120.0
            },
            {
                "start_time": 86.53636363636363,
                "end_time": 86.85454545454544,
                "pitch": 36,
                "velocity": 80,
                "duration": 0.318181818181813,
                "tempo": 120.0
            },
            {
                "start_time": 86.87045454545454,
                "end_time": 86.98863636363636,
                "pitch": 43,
                "velocity": 80,
                "duration": 0.11818181818182438,
                "tempo": 120.0
            },
            {
                "start_time": 87.00454545454545,
                "end_time": 87.22727272727272,
                "pitch": 43,
                "velocity": 80,
                "duration": 0.2227272727272691,
                "tempo": 120.0
            },
            {
                "start_time": 87.24318181818181,
                "end_time": 87.43181818181817,
                "pitch": 36,
                "velocity": 80,
                "duration": 0.1886363636363626,
                "tempo": 120.0
            },
            {
                "start_time": 87.48409090909091,
                "end_time": 87.8,
                "pitch": 36,
                "velocity": 80,
                "duration": 0.3159090909090878,
                "tempo": 120.0
            },
            {
                "start_time": 87.81818181818181,
                "end_time": 87.90227272727272,
                "pitch": 43,
                "velocity": 80,
                "duration": 0.08409090909090366,
                "tempo": 120.0
            },
            {
                "start_time": 87.91818181818181,
                "end_time": 88.125,
                "pitch": 43,
                "velocity": 80,
                "duration": 0.20681818181819267,
                "tempo": 120.0
            },
            {
                "start_time": 88.14090909090909,
                "end_time": 88.36590909090908,
                "pitch": 36,
                "velocity": 80,
                "duration": 0.22499999999999432,
                "tempo": 120.0
            }
        ],
        "Harpsichord": [
            {
                "start_time": 0.8568181818181818,
                "end_time": 2.6795454545454542,
                "pitch": 71,
                "velocity": 64,
                "duration": 1.8227272727272723,
                "tempo": 120.0
            },
            {
                "start_time": 2.6954545454545453,
                "end_time": 4.031818181818181,
                "pitch": 69,
                "velocity": 64,
                "duration": 1.336363636363636,
                "tempo": 120.0
            },
            {
                "start_time": 4.047727272727273,
                "end_time": 5.870454545454545,
                "pitch": 68,
                "velocity": 64,
                "duration": 1.8227272727272723,
                "tempo": 120.0
            },
            {
                "start_time": 5.888636363636364,
                "end_time": 7.222727272727273,
                "pitch": 66,
                "velocity": 64,
                "duration": 1.334090909090909,
                "tempo": 120.0
            },
            {
                "start_time": 7.24090909090909,
                "end_time": 9.063636363636363,
                "pitch": 65,
                "velocity": 64,
                "duration": 1.8227272727272723,
                "tempo": 120.0
            },
            {
                "start_time": 9.079545454545453,
                "end_time": 10.413636363636362,
                "pitch": 64,
                "velocity": 64,
                "duration": 1.334090909090909,
                "tempo": 120.0
            },
            {
                "start_time": 10.431818181818182,
                "end_time": 12.254545454545454,
                "pitch": 63,
                "velocity": 64,
                "duration": 1.8227272727272723,
                "tempo": 120.0
            },
            {
                "start_time": 12.272727272727272,
                "end_time": 13.60681818181818,
                "pitch": 63,
                "velocity": 64,
                "duration": 1.334090909090909,
                "tempo": 120.0
            },
            {
                "start_time": 13.622727272727271,
                "end_time": 15.436363636363636,
                "pitch": 71,
                "velocity": 64,
                "duration": 1.8136363636363644,
                "tempo": 120.0
            },
            {
                "start_time": 15.452272727272726,
                "end_time": 16.797727272727272,
                "pitch": 69,
                "velocity": 64,
                "duration": 1.3454545454545457,
                "tempo": 120.0
            },
            {
                "start_time": 16.813636363636363,
                "end_time": 18.627272727272725,
                "pitch": 68,
                "velocity": 64,
                "duration": 1.8136363636363626,
                "tempo": 120.0
            },
            {
                "start_time": 18.643181818181816,
                "end_time": 19.988636363636363,
                "pitch": 66,
                "velocity": 64,
                "duration": 1.3454545454545475,
                "tempo": 120.0
            },
            {
                "start_time": 20.004545454545454,
                "end_time": 21.818181818181817,
                "pitch": 65,
                "velocity": 64,
                "duration": 1.8136363636363626,
                "tempo": 120.0
            },
            {
                "start_time": 21.834090909090907,
                "end_time": 23.179545454545455,
                "pitch": 64,
                "velocity": 64,
                "duration": 1.3454545454545475,
                "tempo": 120.0
            },
            {
                "start_time": 23.19772727272727,
                "end_time": 25.020454545454545,
                "pitch": 63,
                "velocity": 64,
                "duration": 1.822727272727274,
                "tempo": 120.0
            },
            {
                "start_time": 25.036363636363635,
                "end_time": 26.370454545454542,
                "pitch": 63,
                "velocity": 64,
                "duration": 1.3340909090909072,
                "tempo": 120.0
            },
            {
                "start_time": 33.679545454545455,
                "end_time": 35.47272727272727,
                "pitch": 57,
                "velocity": 64,
                "duration": 1.7931818181818144,
                "tempo": 120.0
            },
            {
                "start_time": 36.87045454545454,
                "end_time": 38.66136363636363,
                "pitch": 59,
                "velocity": 64,
                "duration": 1.7909090909090892,
                "tempo": 120.0
            },
            {
                "start_time": 40.059090909090905,
                "end_time": 41.85227272727273,
                "pitch": 60,
                "velocity": 64,
                "duration": 1.7931818181818215,
                "tempo": 120.0
            },
            {
                "start_time": 43.25,
                "end_time": 45.043181818181814,
                "pitch": 59,
                "velocity": 64,
                "duration": 1.7931818181818144,
                "tempo": 120.0
            },
            {
                "start_time": 46.44090909090909,
                "end_time": 48.23181818181818,
                "pitch": 57,
                "velocity": 64,
                "duration": 1.7909090909090892,
                "tempo": 120.0
            },
            {
                "start_time": 49.62954545454545,
                "end_time": 51.42272727272727,
                "pitch": 59,
                "velocity": 64,
                "duration": 1.7931818181818215,
                "tempo": 120.0
            },
            {
                "start_time": 52.820454545454545,
                "end_time": 54.61363636363636,
                "pitch": 60,
                "velocity": 64,
                "duration": 1.7931818181818144,
                "tempo": 120.0
            },
            {
                "start_time": 56.01136363636363,
                "end_time": 57.804545454545455,
                "pitch": 59,
                "velocity": 64,
                "duration": 1.7931818181818215,
                "tempo": 120.0
            },
            {
                "start_time": 59.199999999999996,
                "end_time": 60.99318181818182,
                "pitch": 60,
                "velocity": 64,
                "duration": 1.7931818181818215,
                "tempo": 120.0
            },
            {
                "start_time": 61.00909090909091,
                "end_time": 62.82272727272727,
                "pitch": 62,
                "velocity": 64,
                "duration": 1.8136363636363626,
                "tempo": 120.0
            },
            {
                "start_time": 62.83863636363636,
                "end_time": 64.64999999999999,
                "pitch": 59,
                "velocity": 64,
                "duration": 1.8113636363636303,
                "tempo": 120.0
            },
            {
                "start_time": 64.66818181818182,
                "end_time": 66.49090909090908,
                "pitch": 59,
                "velocity": 64,
                "duration": 1.8227272727272634,
                "tempo": 120.0
            },
            {
                "start_time": 66.5090909090909,
                "end_time": 68.28863636363636,
                "pitch": 60,
                "velocity": 64,
                "duration": 1.779545454545456,
                "tempo": 120.0
            },
            {
                "start_time": 68.33863636363635,
                "end_time": 70.11818181818181,
                "pitch": 62,
                "velocity": 64,
                "duration": 1.779545454545456,
                "tempo": 120.0
            },
            {
                "start_time": 70.1340909090909,
                "end_time": 71.95681818181818,
                "pitch": 59,
                "velocity": 64,
                "duration": 1.8227272727272776,
                "tempo": 120.0
            },
            {
                "start_time": 71.97272727272727,
                "end_time": 73.75681818181818,
                "pitch": 59,
                "velocity": 64,
                "duration": 1.7840909090909065,
                "tempo": 120.0
            },
            {
                "start_time": 73.77272727272727,
                "end_time": 75.58636363636363,
                "pitch": 60,
                "velocity": 64,
                "duration": 1.8136363636363626,
                "tempo": 120.0
            },
            {
                "start_time": 75.60227272727272,
                "end_time": 77.41590909090908,
                "pitch": 62,
                "velocity": 64,
                "duration": 1.8136363636363626,
                "tempo": 120.0
            },
            {
                "start_time": 77.43181818181817,
                "end_time": 79.25454545454545,
                "pitch": 59,
                "velocity": 64,
                "duration": 1.8227272727272776,
                "tempo": 120.0
            },
            {
                "start_time": 79.27272727272727,
                "end_time": 81.05,
                "pitch": 59,
                "velocity": 64,
                "duration": 1.777272727272731,
                "tempo": 120.0
            },
            {
                "start_time": 81.10227272727272,
                "end_time": 82.87954545454545,
                "pitch": 60,
                "velocity": 64,
                "duration": 1.777272727272731,
                "tempo": 120.0
            },
            {
                "start_time": 82.89772727272727,
                "end_time": 84.72045454545454,
                "pitch": 62,
                "velocity": 64,
                "duration": 1.8227272727272776,
                "tempo": 120.0
            },
            {
                "start_time": 84.73636363636363,
                "end_time": 86.52045454545454,
                "pitch": 59,
                "velocity": 64,
                "duration": 1.7840909090909065,
                "tempo": 120.0
            },
            {
                "start_time": 86.53636363636363,
                "end_time": 88.36590909090908,
                "pitch": 59,
                "velocity": 64,
                "duration": 1.8295454545454533,
                "tempo": 120.0
            }
        ],
        "Flute": [
            {
                "start_time": 0.8568181818181818,
                "end_time": 2.6795454545454542,
                "pitch": 83,
                "velocity": 64,
                "duration": 1.8227272727272723,
                "tempo": 120.0
            },
            {
                "start_time": 2.6954545454545453,
                "end_time": 4.031818181818181,
                "pitch": 81,
                "velocity": 64,
                "duration": 1.336363636363636,
                "tempo": 120.0
            },
            {
                "start_time": 4.047727272727273,
                "end_time": 5.870454545454545,
                "pitch": 80,
                "velocity": 64,
                "duration": 1.8227272727272723,
                "tempo": 120.0
            },
            {
                "start_time": 5.888636363636364,
                "end_time": 7.222727272727273,
                "pitch": 78,
                "velocity": 64,
                "duration": 1.334090909090909,
                "tempo": 120.0
            },
            {
                "start_time": 7.24090909090909,
                "end_time": 9.063636363636363,
                "pitch": 77,
                "velocity": 64,
                "duration": 1.8227272727272723,
                "tempo": 120.0
            },
            {
                "start_time": 9.079545454545453,
                "end_time": 10.413636363636362,
                "pitch": 76,
                "velocity": 64,
                "duration": 1.334090909090909,
                "tempo": 120.0
            },
            {
                "start_time": 10.431818181818182,
                "end_time": 12.254545454545454,
                "pitch": 75,
                "velocity": 64,
                "duration": 1.8227272727272723,
                "tempo": 120.0
            },
            {
                "start_time": 12.272727272727272,
                "end_time": 13.60681818181818,
                "pitch": 75,
                "velocity": 64,
                "duration": 1.334090909090909,
                "tempo": 120.0
            },
            {
                "start_time": 13.622727272727271,
                "end_time": 15.436363636363636,
                "pitch": 83,
                "velocity": 64,
                "duration": 1.8136363636363644,
                "tempo": 120.0
            },
            {
                "start_time": 15.452272727272726,
                "end_time": 16.797727272727272,
                "pitch": 81,
                "velocity": 64,
                "duration": 1.3454545454545457,
                "tempo": 120.0
            },
            {
                "start_time": 16.813636363636363,
                "end_time": 18.627272727272725,
                "pitch": 80,
                "velocity": 64,
                "duration": 1.8136363636363626,
                "tempo": 120.0
            },
            {
                "start_time": 18.643181818181816,
                "end_time": 19.988636363636363,
                "pitch": 78,
                "velocity": 64,
                "duration": 1.3454545454545475,
                "tempo": 120.0
            },
            {
                "start_time": 20.004545454545454,
                "end_time": 21.818181818181817,
                "pitch": 77,
                "velocity": 64,
                "duration": 1.8136363636363626,
                "tempo": 120.0
            },
            {
                "start_time": 21.834090909090907,
                "end_time": 23.179545454545455,
                "pitch": 76,
                "velocity": 64,
                "duration": 1.3454545454545475,
                "tempo": 120.0
            },
            {
                "start_time": 23.19772727272727,
                "end_time": 25.020454545454545,
                "pitch": 75,
                "velocity": 64,
                "duration": 1.822727272727274,
                "tempo": 120.0
            },
            {
                "start_time": 25.036363636363635,
                "end_time": 26.370454545454542,
                "pitch": 75,
                "velocity": 64,
                "duration": 1.3340909090909072,
                "tempo": 120.0
            },
            {
                "start_time": 33.679545454545455,
                "end_time": 35.47272727272727,
                "pitch": 69,
                "velocity": 64,
                "duration": 1.7931818181818144,
                "tempo": 120.0
            },
            {
                "start_time": 36.87045454545454,
                "end_time": 38.66136363636363,
                "pitch": 71,
                "velocity": 64,
                "duration": 1.7909090909090892,
                "tempo": 120.0
            },
            {
                "start_time": 40.059090909090905,
                "end_time": 41.85227272727273,
                "pitch": 72,
                "velocity": 64,
                "duration": 1.7931818181818215,
                "tempo": 120.0
            },
            {
                "start_time": 43.25,
                "end_time": 45.043181818181814,
                "pitch": 71,
                "velocity": 64,
                "duration": 1.7931818181818144,
                "tempo": 120.0
            },
            {
                "start_time": 46.44090909090909,
                "end_time": 48.23181818181818,
                "pitch": 69,
                "velocity": 64,
                "duration": 1.7909090909090892,
                "tempo": 120.0
            },
            {
                "start_time": 49.62954545454545,
                "end_time": 51.42272727272727,
                "pitch": 71,
                "velocity": 64,
                "duration": 1.7931818181818215,
                "tempo": 120.0
            },
            {
                "start_time": 52.820454545454545,
                "end_time": 54.61363636363636,
                "pitch": 72,
                "velocity": 64,
                "duration": 1.7931818181818144,
                "tempo": 120.0
            },
            {
                "start_time": 56.01136363636363,
                "end_time": 57.804545454545455,
                "pitch": 71,
                "velocity": 64,
                "duration": 1.7931818181818215,
                "tempo": 120.0
            },
            {
                "start_time": 59.199999999999996,
                "end_time": 60.99318181818182,
                "pitch": 72,
                "velocity": 64,
                "duration": 1.7931818181818215,
                "tempo": 120.0
            },
            {
                "start_time": 61.00909090909091,
                "end_time": 62.82272727272727,
                "pitch": 74,
                "velocity": 64,
                "duration": 1.8136363636363626,
                "tempo": 120.0
            },
            {
                "start_time": 62.83863636363636,
                "end_time": 64.64999999999999,
                "pitch": 71,
                "velocity": 64,
                "duration": 1.8113636363636303,
                "tempo": 120.0
            },
            {
                "start_time": 64.66818181818182,
                "end_time": 66.49090909090908,
                "pitch": 71,
                "velocity": 64,
                "duration": 1.8227272727272634,
                "tempo": 120.0
            },
            {
                "start_time": 66.5090909090909,
                "end_time": 68.28863636363636,
                "pitch": 72,
                "velocity": 64,
                "duration": 1.779545454545456,
                "tempo": 120.0
            },
            {
                "start_time": 68.33863636363635,
                "end_time": 70.11818181818181,
                "pitch": 74,
                "velocity": 64,
                "duration": 1.779545454545456,
                "tempo": 120.0
            },
            {
                "start_time": 70.1340909090909,
                "end_time": 71.95681818181818,
                "pitch": 71,
                "velocity": 64,
                "duration": 1.8227272727272776,
                "tempo": 120.0
            },
            {
                "start_time": 71.97272727272727,
                "end_time": 73.75681818181818,
                "pitch": 71,
                "velocity": 64,
                "duration": 1.7840909090909065,
                "tempo": 120.0
            },
            {
                "start_time": 73.77272727272727,
                "end_time": 75.58636363636363,
                "pitch": 72,
                "velocity": 64,
                "duration": 1.8136363636363626,
                "tempo": 120.0
            },
            {
                "start_time": 75.60227272727272,
                "end_time": 77.41590909090908,
                "pitch": 74,
                "velocity": 64,
                "duration": 1.8136363636363626,
                "tempo": 120.0
            },
            {
                "start_time": 77.43181818181817,
                "end_time": 79.25454545454545,
                "pitch": 71,
                "velocity": 64,
                "duration": 1.8227272727272776,
                "tempo": 120.0
            },
            {
                "start_time": 79.27272727272727,
                "end_time": 81.05,
                "pitch": 71,
                "velocity": 64,
                "duration": 1.777272727272731,
                "tempo": 120.0
            },
            {
                "start_time": 81.10227272727272,
                "end_time": 82.87954545454545,
                "pitch": 72,
                "velocity": 64,
                "duration": 1.777272727272731,
                "tempo": 120.0
            },
            {
                "start_time": 82.89772727272727,
                "end_time": 84.72045454545454,
                "pitch": 74,
                "velocity": 64,
                "duration": 1.8227272727272776,
                "tempo": 120.0
            },
            {
                "start_time": 84.73636363636363,
                "end_time": 86.52045454545454,
                "pitch": 71,
                "velocity": 64,
                "duration": 1.7840909090909065,
                "tempo": 120.0
            },
            {
                "start_time": 86.53636363636363,
                "end_time": 88.36590909090908,
                "pitch": 71,
                "velocity": 64,
                "duration": 1.8295454545454533,
                "tempo": 120.0
            }
        ]
    }
}