{
    "track_id": "Wonder Boy in Monster Land (FM) - 10 - Death",
    "mood": "sad",
    "instruments": {
        "Harpsichord": [
            {
                "start_time": 0.0,
                "end_time": 0.3659090909090909,
                "pitch": 62,
                "velocity": 64,
                "duration": 0.3659090909090909,
                "tempo": 120.0
            },
            {
                "start_time": 0.3840909090909091,
                "end_time": 0.5727272727272728,
                "pitch": 61,
                "velocity": 64,
                "duration": 0.18863636363636366,
                "tempo": 120.0
            },
            {
                "start_time": 0.5886363636363636,
                "end_time": 0.7772727272727272,
                "pitch": 59,
                "velocity": 64,
                "duration": 0.1886363636363636,
                "tempo": 120.0
            },
            {
                "start_time": 0.7931818181818181,
                "end_time": 1.1772727272727272,
                "pitch": 61,
                "velocity": 64,
                "duration": 0.38409090909090915,
                "tempo": 120.0
            },
            {
                "start_time": 1.1931818181818181,
                "end_time": 1.3772727272727272,
                "pitch": 59,
                "velocity": 64,
                "duration": 0.18409090909090908,
                "tempo": 120.0
            },
            {
                "start_time": 1.393181818181818,
                "end_time": 1.5772727272727272,
                "pitch": 57,
                "velocity": 64,
                "duration": 0.18409090909090908,
                "tempo": 120.0
            },
            {
                "start_time": 1.5954545454545455,
                "end_time": 1.7818181818181817,
                "pitch": 59,
                "velocity": 64,
                "duration": 0.1863636363636363,
                "tempo": 120.0
            },
            {
                "start_time": 1.7999999999999998,
                "end_time": 1.9886363636363635,
                "pitch": 55,
                "velocity": 64,
                "duration": 0.1886363636363637,
                "tempo": 120.0
            },
            {
                "start_time": 2.0045454545454544,
                "end_time": 2.1886363636363635,
                "pitch": 67,
                "velocity": 64,
                "duration": 0.18409090909090908,
                "tempo": 120.0
            },
            {
                "start_time": 2.2045454545454546,
                "end_time": 2.3886363636363637,
                "pitch": 64,
                "velocity": 64,
                "duration": 0.18409090909090908,
                "tempo": 120.0
            },
            {
                "start_time": 2.4045454545454543,
                "end_time": 2.7818181818181817,
                "pitch": 59,
                "velocity": 64,
                "duration": 0.3772727272727274,
                "tempo": 120.0
            },
            {
                "start_time": 2.7977272727272724,
                "end_time": 3.190909090909091,
                "pitch": 61,
                "velocity": 64,
                "duration": 0.3931818181818185,
                "tempo": 120.0
            },
            {
                "start_time": 3.209090909090909,
                "end_time": 3.593181818181818,
                "pitch": 62,
                "velocity": 64,
                "duration": 0.3840909090909088,
                "tempo": 120.0
            },
            {
                "start_time": 3.6113636363636363,
                "end_time": 3.7909090909090906,
                "pitch": 61,
                "velocity": 64,
                "duration": 0.17954545454545423,
                "tempo": 120.0
            },
            {
                "start_time": 3.8068181818181817,
                "end_time": 3.9863636363636363,
                "pitch": 59,
                "velocity": 64,
                "duration": 0.17954545454545467,
                "tempo": 120.0
            },
            {
                "start_time": 4.002272727272727,
                "end_time": 4.3977272727272725,
                "pitch": 64,
                "velocity": 64,
                "duration": 0.3954545454545455,
                "tempo": 120.0
            },
            {
                "start_time": 4.413636363636363,
                "end_time": 4.593181818181818,
                "pitch": 63,
                "velocity": 64,
                "duration": 0.17954545454545467,
                "tempo": 120.0
            },
            {
                "start_time": 4.6090909090909085,
                "end_time": 4.788636363636363,
                "pitch": 61,
                "velocity": 64,
                "duration": 0.17954545454545467,
                "tempo": 120.0
            },
            {
                "start_time": 4.804545454545455,
                "end_time": 4.993181818181818,
                "pitch": 63,
                "velocity": 64,
                "duration": 0.1886363636363635,
                "tempo": 120.0
            },
            {
                "start_time": 5.011363636363636,
                "end_time": 5.2,
                "pitch": 64,
                "velocity": 64,
                "duration": 0.18863636363636438,
                "tempo": 120.0
            },
            {
                "start_time": 5.215909090909091,
                "end_time": 5.3999999999999995,
                "pitch": 66,
                "velocity": 64,
                "duration": 0.18409090909090864,
                "tempo": 120.0
            },
            {
                "start_time": 5.415909090909091,
                "end_time": 5.6,
                "pitch": 58,
                "velocity": 64,
                "duration": 0.18409090909090864,
                "tempo": 120.0
            },
            {
                "start_time": 5.61590909090909,
                "end_time": 6.413636363636363,
                "pitch": 59,
                "velocity": 64,
                "duration": 0.7977272727272728,
                "tempo": 120.0
            }
        ],
        "Vibraphone": [
            {
                "start_time": 0.0,
                "end_time": 0.1659090909090909,
                "pitch": 50,
                "velocity": 40,
                "duration": 0.1659090909090909,
                "tempo": 120.0
            },
            {
                "start_time": 0.18409090909090908,
                "end_time": 0.3659090909090909,
                "pitch": 50,
                "velocity": 40,
                "duration": 0.18181818181818182,
                "tempo": 120.0
            },
            {
                "start_time": 0.7931818181818181,
                "end_time": 0.9772727272727272,
                "pitch": 49,
                "velocity": 40,
                "duration": 0.18409090909090908,
                "tempo": 120.0
            },
            {
                "start_time": 0.9931818181818182,
                "end_time": 1.1772727272727272,
                "pitch": 49,
                "velocity": 40,
                "duration": 0.18409090909090908,
                "tempo": 120.0
            },
            {
                "start_time": 1.393181818181818,
                "end_time": 1.5772727272727272,
                "pitch": 67,
                "velocity": 40,
                "duration": 0.18409090909090908,
                "tempo": 120.0
            },
            {
                "start_time": 1.5954545454545455,
                "end_time": 1.7818181818181817,
                "pitch": 47,
                "velocity": 40,
                "duration": 0.1863636363636363,
                "tempo": 120.0
            },
            {
                "start_time": 1.7999999999999998,
                "end_time": 1.9886363636363635,
                "pitch": 47,
                "velocity": 40,
                "duration": 0.1886363636363637,
                "tempo": 120.0
            },
            {
                "start_time": 2.4045454545454543,
                "end_time": 2.584090909090909,
                "pitch": 43,
                "velocity": 40,
                "duration": 0.17954545454545467,
                "tempo": 120.0
            },
            {
                "start_time": 2.6,
                "end_time": 2.7818181818181817,
                "pitch": 43,
                "velocity": 40,
                "duration": 0.18181818181818166,
                "tempo": 120.0
            },
            {
                "start_time": 2.7977272727272724,
                "end_time": 2.9863636363636363,
                "pitch": 55,
                "velocity": 40,
                "duration": 0.18863636363636394,
                "tempo": 120.0
            },
            {
                "start_time": 3.209090909090909,
                "end_time": 3.393181818181818,
                "pitch": 50,
                "velocity": 40,
                "duration": 0.18409090909090908,
                "tempo": 120.0
            },
            {
                "start_time": 3.4090909090909087,
                "end_time": 3.593181818181818,
                "pitch": 50,
                "velocity": 40,
                "duration": 0.18409090909090908,
                "tempo": 120.0
            },
            {
                "start_time": 4.002272727272727,
                "end_time": 4.1909090909090905,
                "pitch": 49,
                "velocity": 40,
                "duration": 0.1886363636363635,
                "tempo": 120.0
            },
            {
                "start_time": 4.209090909090909,
                "end_time": 4.3977272727272725,
                "pitch": 49,
                "velocity": 40,
                "duration": 0.1886363636363635,
                "tempo": 120.0
            },
            {
                "start_time": 4.6090909090909085,
                "end_time": 4.788636363636363,
                "pitch": 67,
                "velocity": 40,
                "duration": 0.17954545454545467,
                "tempo": 120.0
            },
            {
                "start_time": 4.804545454545455,
                "end_time": 5.2,
                "pitch": 47,
                "velocity": 40,
                "duration": 0.3954545454545455,
                "tempo": 120.0
            },
            {
                "start_time": 5.215909090909091,
                "end_time": 5.6,
                "pitch": 49,
                "velocity": 40,
                "duration": 0.3840909090909088,
                "tempo": 120.0
            },
            {
                "start_time": 5.61590909090909,
                "end_time": 6.413636363636363,
                "pitch": 51,
                "velocity": 40,
                "duration": 0.7977272727272728,
                "tempo": 120.0
            }
        ]
    }
}