{
    "track_id": "Ys (FM) - 03 - Tears of Sylph",
    "mood": "sad",
    "instruments": {
        "Vibraphone": [
            {
                "start_time": 0.013636363636363636,
                "end_time": 0.3727272727272727,
                "pitch": 54,
                "velocity": 64,
                "duration": 0.35909090909090907,
                "tempo": 120.0
            },
            {
                "start_time": 0.3727272727272727,
                "end_time": 1.8659090909090907,
                "pitch": 54,
                "velocity": 64,
                "duration": 1.4931818181818182,
                "tempo": 120.0
            },
            {
                "start_time": 1.8818181818181818,
                "end_time": 2.8568181818181815,
                "pitch": 56,
                "velocity": 64,
                "duration": 0.9749999999999996,
                "tempo": 120.0
            },
            {
                "start_time": 2.875,
                "end_time": 3.8568181818181815,
                "pitch": 57,
                "velocity": 64,
                "duration": 0.9818181818181815,
                "tempo": 120.0
            },
            {
                "start_time": 3.875,
                "end_time": 5.875,
                "pitch": 52,
                "velocity": 64,
                "duration": 2.0,
                "tempo": 120.0
            },
            {
                "start_time": 5.890909090909091,
                "end_time": 6.86590909090909,
                "pitch": 54,
                "velocity": 64,
                "duration": 0.9749999999999996,
                "tempo": 120.0
            },
            {
                "start_time": 6.884090909090909,
                "end_time": 7.870454545454545,
                "pitch": 56,
                "velocity": 64,
                "duration": 0.9863636363636363,
                "tempo": 120.0
            },
            {
                "start_time": 7.886363636363636,
                "end_time": 9.875,
                "pitch": 50,
                "velocity": 64,
                "duration": 1.9886363636363642,
                "tempo": 120.0
            },
            {
                "start_time": 9.89090909090909,
                "end_time": 10.879545454545454,
                "pitch": 52,
                "velocity": 64,
                "duration": 0.9886363636363633,
                "tempo": 120.0
            },
            {
                "start_time": 10.895454545454545,
                "end_time": 11.884090909090908,
                "pitch": 47,
                "velocity": 64,
                "duration": 0.9886363636363633,
                "tempo": 120.0
            },
            {
                "start_time": 11.899999999999999,
                "end_time": 15.893181818181818,
                "pitch": 49,
                "velocity": 64,
                "duration": 3.993181818181819,
                "tempo": 120.0
            },
            {
                "start_time": 19.913636363636364,
                "end_time": 20.397727272727273,
                "pitch": 54,
                "velocity": 64,
                "duration": 0.48409090909090935,
                "tempo": 120.0
            }
        ],
        "Church Organ": [
            {
                "start_time": 0.013636363636363636,
                "end_time": 0.02727272727272727,
                "pitch": 66,
                "velocity": 64,
                "duration": 0.013636363636363636,
                "tempo": 120.0
            },
            {
                "start_time": 0.02727272727272727,
                "end_time": 0.3727272727272727,
                "pitch": 69,
                "velocity": 64,
                "duration": 0.3454545454545454,
                "tempo": 120.0
            },
            {
                "start_time": 0.3727272727272727,
                "end_time": 2.925,
                "pitch": 69,
                "velocity": 25,
                "duration": 2.5522727272727272,
                "tempo": 120.0
            },
            {
                "start_time": 2.925,
                "end_time": 3.925,
                "pitch": 73,
                "velocity": 25,
                "duration": 1.0,
                "tempo": 120.0
            },
            {
                "start_time": 3.925,
                "end_time": 6.934090909090909,
                "pitch": 68,
                "velocity": 25,
                "duration": 3.009090909090909,
                "tempo": 120.0
            },
            {
                "start_time": 6.934090909090909,
                "end_time": 7.9386363636363635,
                "pitch": 71,
                "velocity": 25,
                "duration": 1.0045454545454549,
                "tempo": 120.0
            },
            {
                "start_time": 7.9386363636363635,
                "end_time": 9.943181818181818,
                "pitch": 66,
                "velocity": 25,
                "duration": 2.004545454545455,
                "tempo": 120.0
            },
            {
                "start_time": 9.943181818181818,
                "end_time": 10.947727272727272,
                "pitch": 68,
                "velocity": 25,
                "duration": 1.004545454545454,
                "tempo": 120.0
            },
            {
                "start_time": 10.947727272727272,
                "end_time": 11.952272727272726,
                "pitch": 64,
                "velocity": 25,
                "duration": 1.004545454545454,
                "tempo": 120.0
            },
            {
                "start_time": 11.952272727272726,
                "end_time": 15.959090909090909,
                "pitch": 66,
                "velocity": 25,
                "duration": 4.006818181818183,
                "tempo": 120.0
            },
            {
                "start_time": 19.96363636363636,
                "end_time": 20.397727272727273,
                "pitch": 69,
                "velocity": 64,
                "duration": 0.4340909090909122,
                "tempo": 120.0
            }
        ]
    }
}