{
    "track_id": "Zaxxon 3-D (FM) - 07 - Game Over",
    "mood": "sad",
    "instruments": {
        "Church Organ": [
            {
                "start_time": 0.0,
                "end_time": 0.17727272727272728,
                "pitch": 80,
                "velocity": 64,
                "duration": 0.17727272727272728,
                "tempo": 120.0
            },
            {
                "start_time": 0.18863636363636363,
                "end_time": 0.37727272727272726,
                "pitch": 82,
                "velocity": 64,
                "duration": 0.18863636363636363,
                "tempo": 120.0
            },
            {
                "start_time": 0.3909090909090909,
                "end_time": 0.6659090909090909,
                "pitch": 85,
                "velocity": 64,
                "duration": 0.275,
                "tempo": 120.0
            },
            {
                "start_time": 0.6818181818181818,
                "end_time": 0.9568181818181818,
                "pitch": 84,
                "velocity": 64,
                "duration": 0.275,
                "tempo": 120.0
            },
            {
                "start_time": 0.9727272727272727,
                "end_time": 1.2568181818181818,
                "pitch": 82,
                "velocity": 64,
                "duration": 0.28409090909090917,
                "tempo": 120.0
            },
            {
                "start_time": 1.2727272727272727,
                "end_time": 2.161363636363636,
                "pitch": 87,
                "velocity": 64,
                "duration": 0.8886363636363634,
                "tempo": 120.0
            },
            {
                "start_time": 2.1795454545454542,
                "end_time": 2.4613636363636364,
                "pitch": 90,
                "velocity": 64,
                "duration": 0.2818181818181822,
                "tempo": 120.0
            },
            {
                "start_time": 2.4795454545454545,
                "end_time": 2.7613636363636362,
                "pitch": 89,
                "velocity": 64,
                "duration": 0.28181818181818175,
                "tempo": 120.0
            },
            {
                "start_time": 2.7795454545454543,
                "end_time": 3.065909090909091,
                "pitch": 87,
                "velocity": 64,
                "duration": 0.2863636363636366,
                "tempo": 120.0
            },
            {
                "start_time": 3.0818181818181816,
                "end_time": 4.572727272727272,
                "pitch": 85,
                "velocity": 64,
                "duration": 1.4909090909090907,
                "tempo": 120.0
            }
        ],
        "Acoustic Bass": [
            {
                "start_time": 0.0,
                "end_time": 0.17727272727272728,
                "pitch": 44,
                "velocity": 51,
                "duration": 0.17727272727272728,
                "tempo": 120.0
            },
            {
                "start_time": 0.18863636363636363,
                "end_time": 0.37727272727272726,
                "pitch": 46,
                "velocity": 51,
                "duration": 0.18863636363636363,
                "tempo": 120.0
            },
            {
                "start_time": 0.3909090909090909,
                "end_time": 0.6659090909090909,
                "pitch": 49,
                "velocity": 51,
                "duration": 0.275,
                "tempo": 120.0
            },
            {
                "start_time": 0.6818181818181818,
                "end_time": 0.9568181818181818,
                "pitch": 48,
                "velocity": 51,
                "duration": 0.275,
                "tempo": 120.0
            },
            {
                "start_time": 0.9727272727272727,
                "end_time": 1.2568181818181818,
                "pitch": 46,
                "velocity": 51,
                "duration": 0.28409090909090917,
                "tempo": 120.0
            },
            {
                "start_time": 1.2727272727272727,
                "end_time": 2.161363636363636,
                "pitch": 51,
                "velocity": 51,
                "duration": 0.8886363636363634,
                "tempo": 120.0
            },
            {
                "start_time": 2.1795454545454542,
                "end_time": 2.4613636363636364,
                "pitch": 54,
                "velocity": 51,
                "duration": 0.2818181818181822,
                "tempo": 120.0
            },
            {
                "start_time": 2.4795454545454545,
                "end_time": 2.7613636363636362,
                "pitch": 53,
                "velocity": 51,
                "duration": 0.28181818181818175,
                "tempo": 120.0
            },
            {
                "start_time": 2.7795454545454543,
                "end_time": 3.065909090909091,
                "pitch": 51,
                "velocity": 51,
                "duration": 0.2863636363636366,
                "tempo": 120.0
            },
            {
                "start_time": 3.0818181818181816,
                "end_time": 4.572727272727272,
                "pitch": 49,
                "velocity": 51,
                "duration": 1.4909090909090907,
                "tempo": 120.0
            }
        ],
        "Harpsichord": [
            {
                "start_time": 0.05454545454545454,
                "end_time": 0.24545454545454545,
                "pitch": 80,
                "velocity": 20,
                "duration": 0.19090909090909092,
                "tempo": 120.0
            },
            {
                "start_time": 0.2545454545454545,
                "end_time": 0.47045454545454546,
                "pitch": 82,
                "velocity": 20,
                "duration": 0.21590909090909094,
                "tempo": 120.0
            },
            {
                "start_time": 0.48636363636363633,
                "end_time": 0.7613636363636364,
                "pitch": 85,
                "velocity": 20,
                "duration": 0.275,
                "tempo": 120.0
            },
            {
                "start_time": 0.7772727272727272,
                "end_time": 1.0568181818181817,
                "pitch": 84,
                "velocity": 20,
                "duration": 0.27954545454545443,
                "tempo": 120.0
            },
            {
                "start_time": 1.0727272727272728,
                "end_time": 1.3568181818181817,
                "pitch": 82,
                "velocity": 20,
                "duration": 0.28409090909090895,
                "tempo": 120.0
            },
            {
                "start_time": 1.3727272727272726,
                "end_time": 2.2613636363636362,
                "pitch": 87,
                "velocity": 20,
                "duration": 0.8886363636363637,
                "tempo": 120.0
            },
            {
                "start_time": 2.2795454545454543,
                "end_time": 2.561363636363636,
                "pitch": 90,
                "velocity": 20,
                "duration": 0.28181818181818175,
                "tempo": 120.0
            },
            {
                "start_time": 2.5795454545454546,
                "end_time": 2.8636363636363633,
                "pitch": 89,
                "velocity": 20,
                "duration": 0.2840909090909087,
                "tempo": 120.0
            },
            {
                "start_time": 2.8795454545454544,
                "end_time": 3.1659090909090906,
                "pitch": 87,
                "velocity": 20,
                "duration": 0.28636363636363615,
                "tempo": 120.0
            },
            {
                "start_time": 3.1818181818181817,
                "end_time": 4.670454545454545,
                "pitch": 85,
                "velocity": 20,
                "duration": 1.4886363636363633,
                "tempo": 120.0
            }
        ],
        "Lead 2 (sawtooth)": [
            {
                "start_time": 0.08863636363636364,
                "end_time": 0.2772727272727273,
                "pitch": 80,
                "velocity": 25,
                "duration": 0.18863636363636366,
                "tempo": 120.0
            },
            {
                "start_time": 0.28863636363636364,
                "end_time": 0.5204545454545454,
                "pitch": 82,
                "velocity": 25,
                "duration": 0.23181818181818176,
                "tempo": 120.0
            },
            {
                "start_time": 0.5363636363636364,
                "end_time": 0.8113636363636363,
                "pitch": 85,
                "velocity": 25,
                "duration": 0.2749999999999999,
                "tempo": 120.0
            },
            {
                "start_time": 0.8272727272727273,
                "end_time": 1.1068181818181817,
                "pitch": 84,
                "velocity": 25,
                "duration": 0.27954545454545443,
                "tempo": 120.0
            },
            {
                "start_time": 1.1227272727272726,
                "end_time": 1.4068181818181817,
                "pitch": 82,
                "velocity": 25,
                "duration": 0.28409090909090917,
                "tempo": 120.0
            },
            {
                "start_time": 1.4227272727272726,
                "end_time": 2.311363636363636,
                "pitch": 87,
                "velocity": 25,
                "duration": 0.8886363636363634,
                "tempo": 120.0
            },
            {
                "start_time": 2.3295454545454546,
                "end_time": 2.6113636363636363,
                "pitch": 90,
                "velocity": 25,
                "duration": 0.28181818181818175,
                "tempo": 120.0
            },
            {
                "start_time": 2.6295454545454544,
                "end_time": 2.9136363636363636,
                "pitch": 89,
                "velocity": 25,
                "duration": 0.28409090909090917,
                "tempo": 120.0
            },
            {
                "start_time": 2.9295454545454542,
                "end_time": 3.215909090909091,
                "pitch": 87,
                "velocity": 25,
                "duration": 0.2863636363636366,
                "tempo": 120.0
            },
            {
                "start_time": 3.234090909090909,
                "end_time": 4.7318181818181815,
                "pitch": 85,
                "velocity": 25,
                "duration": 1.4977272727272726,
                "tempo": 120.0
            }
        ]
    }
}