{
    "track_id": "Zaxxon 3-D (FM) - 05 - Final Boss",
    "mood": "sad",
    "instruments": {
        "Lead 2 (sawtooth)": [
            {
                "start_time": 0.0,
                "end_time": 0.03409090909090909,
                "pitch": 75,
                "velocity": 80,
                "duration": 0.03409090909090909,
                "tempo": 120.0
            },
            {
                "start_time": 0.049999999999999996,
                "end_time": 0.1340909090909091,
                "pitch": 78,
                "velocity": 80,
                "duration": 0.0840909090909091,
                "tempo": 120.0
            },
            {
                "start_time": 0.15,
                "end_time": 0.23409090909090907,
                "pitch": 75,
                "velocity": 80,
                "duration": 0.08409090909090908,
                "tempo": 120.0
            },
            {
                "start_time": 0.25,
                "end_time": 0.33409090909090905,
                "pitch": 79,
                "velocity": 80,
                "duration": 0.08409090909090905,
                "tempo": 120.0
            },
            {
                "start_time": 0.35,
                "end_time": 0.4340909090909091,
                "pitch": 75,
                "velocity": 80,
                "duration": 0.0840909090909091,
                "tempo": 120.0
            },
            {
                "start_time": 0.44999999999999996,
                "end_time": 0.5340909090909091,
                "pitch": 78,
                "velocity": 80,
                "duration": 0.0840909090909091,
                "tempo": 120.0
            },
            {
                "start_time": 0.5499999999999999,
                "end_time": 0.634090909090909,
                "pitch": 83,
                "velocity": 80,
                "duration": 0.0840909090909091,
                "tempo": 120.0
            },
            {
                "start_time": 0.65,
                "end_time": 0.734090909090909,
                "pitch": 82,
                "velocity": 80,
                "duration": 0.084090909090909,
                "tempo": 120.0
            },
            {
                "start_time": 0.75,
                "end_time": 0.8340909090909091,
                "pitch": 75,
                "velocity": 80,
                "duration": 0.0840909090909091,
                "tempo": 120.0
            },
            {
                "start_time": 0.85,
                "end_time": 0.9340909090909091,
                "pitch": 78,
                "velocity": 80,
                "duration": 0.0840909090909091,
                "tempo": 120.0
            },
            {
                "start_time": 0.95,
                "end_time": 1.034090909090909,
                "pitch": 75,
                "velocity": 80,
                "duration": 0.084090909090909,
                "tempo": 120.0
            },
            {
                "start_time": 1.05,
                "end_time": 1.134090909090909,
                "pitch": 79,
                "velocity": 80,
                "duration": 0.084090909090909,
                "tempo": 120.0
            },
            {
                "start_time": 1.15,
                "end_time": 1.2340909090909091,
                "pitch": 75,
                "velocity": 80,
                "duration": 0.08409090909090922,
                "tempo": 120.0
            },
            {
                "start_time": 1.2522727272727272,
                "end_time": 1.3386363636363636,
                "pitch": 78,
                "velocity": 80,
                "duration": 0.08636363636363642,
                "tempo": 120.0
            },
            {
                "start_time": 1.3545454545454545,
                "end_time": 1.440909090909091,
                "pitch": 83,
                "velocity": 80,
                "duration": 0.08636363636363642,
                "tempo": 120.0
            },
            {
                "start_time": 1.4568181818181818,
                "end_time": 1.5431818181818182,
                "pitch": 82,
                "velocity": 80,
                "duration": 0.08636363636363642,
                "tempo": 120.0
            },
            {
                "start_time": 1.5613636363636363,
                "end_time": 1.643181818181818,
                "pitch": 75,
                "velocity": 80,
                "duration": 0.08181818181818179,
                "tempo": 120.0
            },
            {
                "start_time": 1.659090909090909,
                "end_time": 1.7409090909090907,
                "pitch": 78,
                "velocity": 80,
                "duration": 0.08181818181818179,
                "tempo": 120.0
            },
            {
                "start_time": 1.7568181818181818,
                "end_time": 1.8386363636363636,
                "pitch": 75,
                "velocity": 80,
                "duration": 0.08181818181818179,
                "tempo": 120.0
            },
            {
                "start_time": 1.8545454545454545,
                "end_time": 1.9363636363636363,
                "pitch": 79,
                "velocity": 80,
                "duration": 0.08181818181818179,
                "tempo": 120.0
            },
            {
                "start_time": 1.9522727272727272,
                "end_time": 2.0386363636363636,
                "pitch": 75,
                "velocity": 80,
                "duration": 0.08636363636363642,
                "tempo": 120.0
            },
            {
                "start_time": 2.0545454545454542,
                "end_time": 2.1409090909090907,
                "pitch": 78,
                "velocity": 80,
                "duration": 0.08636363636363642,
                "tempo": 120.0
            },
            {
                "start_time": 2.1568181818181817,
                "end_time": 2.243181818181818,
                "pitch": 83,
                "velocity": 80,
                "duration": 0.08636363636363642,
                "tempo": 120.0
            },
            {
                "start_time": 2.2613636363636362,
                "end_time": 2.3454545454545452,
                "pitch": 82,
                "velocity": 80,
                "duration": 0.084090909090909,
                "tempo": 120.0
            },
            {
                "start_time": 2.3636363636363633,
                "end_time": 2.4477272727272728,
                "pitch": 75,
                "velocity": 80,
                "duration": 0.08409090909090944,
                "tempo": 120.0
            },
            {
                "start_time": 2.4636363636363634,
                "end_time": 2.5477272727272724,
                "pitch": 78,
                "velocity": 80,
                "duration": 0.084090909090909,
                "tempo": 120.0
            },
            {
                "start_time": 2.565909090909091,
                "end_time": 2.6477272727272725,
                "pitch": 75,
                "velocity": 80,
                "duration": 0.08181818181818157,
                "tempo": 120.0
            },
            {
                "start_time": 2.6659090909090906,
                "end_time": 2.75,
                "pitch": 79,
                "velocity": 80,
                "duration": 0.08409090909090944,
                "tempo": 120.0
            },
            {
                "start_time": 2.7659090909090907,
                "end_time": 2.8499999999999996,
                "pitch": 75,
                "velocity": 80,
                "duration": 0.084090909090909,
                "tempo": 120.0
            },
            {
                "start_time": 2.8659090909090907,
                "end_time": 2.9499999999999997,
                "pitch": 78,
                "velocity": 80,
                "duration": 0.084090909090909,
                "tempo": 120.0
            },
            {
                "start_time": 2.965909090909091,
                "end_time": 3.05,
                "pitch": 83,
                "velocity": 80,
                "duration": 0.084090909090909,
                "tempo": 120.0
            },
            {
                "start_time": 3.065909090909091,
                "end_time": 3.15,
                "pitch": 82,
                "velocity": 80,
                "duration": 0.084090909090909,
                "tempo": 120.0
            },
            {
                "start_time": 3.1659090909090906,
                "end_time": 3.2477272727272726,
                "pitch": 75,
                "velocity": 80,
                "duration": 0.08181818181818201,
                "tempo": 120.0
            },
            {
                "start_time": 3.2636363636363637,
                "end_time": 3.3454545454545452,
                "pitch": 78,
                "velocity": 80,
                "duration": 0.08181818181818157,
                "tempo": 120.0
            },
            {
                "start_time": 3.3636363636363633,
                "end_time": 3.443181818181818,
                "pitch": 75,
                "velocity": 80,
                "duration": 0.07954545454545459,
                "tempo": 120.0
            },
            {
                "start_time": 3.461363636363636,
                "end_time": 3.543181818181818,
                "pitch": 79,
                "velocity": 80,
                "duration": 0.08181818181818201,
                "tempo": 120.0
            },
            {
                "start_time": 3.559090909090909,
                "end_time": 3.643181818181818,
                "pitch": 75,
                "velocity": 80,
                "duration": 0.084090909090909,
                "tempo": 120.0
            },
            {
                "start_time": 3.661363636363636,
                "end_time": 3.745454545454545,
                "pitch": 78,
                "velocity": 80,
                "duration": 0.084090909090909,
                "tempo": 120.0
            },
            {
                "start_time": 3.7636363636363637,
                "end_time": 3.8477272727272727,
                "pitch": 83,
                "velocity": 80,
                "duration": 0.084090909090909,
                "tempo": 120.0
            },
            {
                "start_time": 3.8659090909090907,
                "end_time": 3.952272727272727,
                "pitch": 82,
                "velocity": 80,
                "duration": 0.08636363636363642,
                "tempo": 120.0
            },
            {
                "start_time": 3.968181818181818,
                "end_time": 4.05,
                "pitch": 75,
                "velocity": 80,
                "duration": 0.08181818181818201,
                "tempo": 120.0
            },
            {
                "start_time": 4.068181818181818,
                "end_time": 4.1499999999999995,
                "pitch": 78,
                "velocity": 80,
                "duration": 0.08181818181818112,
                "tempo": 120.0
            },
            {
                "start_time": 4.165909090909091,
                "end_time": 4.247727272727272,
                "pitch": 75,
                "velocity": 80,
                "duration": 0.08181818181818112,
                "tempo": 120.0
            },
            {
                "start_time": 4.263636363636364,
                "end_time": 4.345454545454546,
                "pitch": 79,
                "velocity": 80,
                "duration": 0.08181818181818201,
                "tempo": 120.0
            },
            {
                "start_time": 4.361363636363636,
                "end_time": 4.445454545454545,
                "pitch": 75,
                "velocity": 80,
                "duration": 0.084090909090909,
                "tempo": 120.0
            },
            {
                "start_time": 4.463636363636364,
                "end_time": 4.547727272727273,
                "pitch": 78,
                "velocity": 80,
                "duration": 0.084090909090909,
                "tempo": 120.0
            },
            {
                "start_time": 4.5659090909090905,
                "end_time": 4.652272727272727,
                "pitch": 83,
                "velocity": 80,
                "duration": 0.08636363636363686,
                "tempo": 120.0
            },
            {
                "start_time": 4.668181818181818,
                "end_time": 4.754545454545454,
                "pitch": 82,
                "velocity": 80,
                "duration": 0.08636363636363598,
                "tempo": 120.0
            },
            {
                "start_time": 4.7704545454545455,
                "end_time": 4.8545454545454545,
                "pitch": 75,
                "velocity": 80,
                "duration": 0.084090909090909,
                "tempo": 120.0
            },
            {
                "start_time": 4.870454545454545,
                "end_time": 4.952272727272727,
                "pitch": 78,
                "velocity": 80,
                "duration": 0.08181818181818201,
                "tempo": 120.0
            },
            {
                "start_time": 4.968181818181818,
                "end_time": 5.05,
                "pitch": 75,
                "velocity": 80,
                "duration": 0.08181818181818201,
                "tempo": 120.0
            },
            {
                "start_time": 5.0659090909090905,
                "end_time": 5.1477272727272725,
                "pitch": 79,
                "velocity": 80,
                "duration": 0.08181818181818201,
                "tempo": 120.0
            },
            {
                "start_time": 5.163636363636363,
                "end_time": 5.247727272727272,
                "pitch": 75,
                "velocity": 80,
                "duration": 0.084090909090909,
                "tempo": 120.0
            },
            {
                "start_time": 5.265909090909091,
                "end_time": 5.352272727272727,
                "pitch": 78,
                "velocity": 80,
                "duration": 0.08636363636363598,
                "tempo": 120.0
            },
            {
                "start_time": 5.368181818181818,
                "end_time": 5.454545454545454,
                "pitch": 83,
                "velocity": 80,
                "duration": 0.08636363636363598,
                "tempo": 120.0
            },
            {
                "start_time": 5.470454545454545,
                "end_time": 5.556818181818182,
                "pitch": 82,
                "velocity": 80,
                "duration": 0.08636363636363686,
                "tempo": 120.0
            },
            {
                "start_time": 5.574999999999999,
                "end_time": 5.659090909090909,
                "pitch": 75,
                "velocity": 80,
                "duration": 0.08409090909090988,
                "tempo": 120.0
            },
            {
                "start_time": 5.675,
                "end_time": 5.759090909090909,
                "pitch": 78,
                "velocity": 80,
                "duration": 0.084090909090909,
                "tempo": 120.0
            },
            {
                "start_time": 5.7749999999999995,
                "end_time": 5.8590909090909085,
                "pitch": 75,
                "velocity": 80,
                "duration": 0.084090909090909,
                "tempo": 120.0
            },
            {
                "start_time": 5.877272727272727,
                "end_time": 5.961363636363636,
                "pitch": 79,
                "velocity": 80,
                "duration": 0.084090909090909,
                "tempo": 120.0
            },
            {
                "start_time": 5.977272727272727,
                "end_time": 6.0613636363636365,
                "pitch": 75,
                "velocity": 80,
                "duration": 0.08409090909090988,
                "tempo": 120.0
            },
            {
                "start_time": 6.077272727272727,
                "end_time": 6.161363636363636,
                "pitch": 78,
                "velocity": 80,
                "duration": 0.084090909090909,
                "tempo": 120.0
            },
            {
                "start_time": 6.177272727272727,
                "end_time": 6.261363636363636,
                "pitch": 83,
                "velocity": 80,
                "duration": 0.084090909090909,
                "tempo": 120.0
            },
            {
                "start_time": 6.277272727272727,
                "end_time": 6.361363636363636,
                "pitch": 82,
                "velocity": 80,
                "duration": 0.084090909090909,
                "tempo": 120.0
            },
            {
                "start_time": 6.377272727272727,
                "end_time": 6.406818181818181,
                "pitch": 73,
                "velocity": 80,
                "duration": 0.02954545454545432,
                "tempo": 120.0
            },
            {
                "start_time": 6.406818181818181,
                "end_time": 7.588636363636363,
                "pitch": 73,
                "velocity": 80,
                "duration": 1.1818181818181817,
                "tempo": 120.0
            },
            {
                "start_time": 7.6045454545454545,
                "end_time": 7.893181818181818,
                "pitch": 80,
                "velocity": 80,
                "duration": 0.28863636363636314,
                "tempo": 120.0
            },
            {
                "start_time": 7.909090909090908,
                "end_time": 9.0,
                "pitch": 79,
                "velocity": 80,
                "duration": 1.0909090909090917,
                "tempo": 120.0
            },
            {
                "start_time": 9.01590909090909,
                "end_time": 9.195454545454545,
                "pitch": 80,
                "velocity": 80,
                "duration": 0.17954545454545467,
                "tempo": 120.0
            },
            {
                "start_time": 9.211363636363636,
                "end_time": 9.397727272727272,
                "pitch": 79,
                "velocity": 80,
                "duration": 0.18636363636363562,
                "tempo": 120.0
            },
            {
                "start_time": 9.415909090909091,
                "end_time": 9.604545454545454,
                "pitch": 78,
                "velocity": 80,
                "duration": 0.1886363636363626,
                "tempo": 120.0
            },
            {
                "start_time": 9.620454545454544,
                "end_time": 10.802272727272726,
                "pitch": 76,
                "velocity": 80,
                "duration": 1.1818181818181817,
                "tempo": 120.0
            },
            {
                "start_time": 10.818181818181818,
                "end_time": 11.10681818181818,
                "pitch": 71,
                "velocity": 80,
                "duration": 0.28863636363636225,
                "tempo": 120.0
            },
            {
                "start_time": 11.122727272727273,
                "end_time": 12.806818181818182,
                "pitch": 73,
                "velocity": 80,
                "duration": 1.6840909090909086,
                "tempo": 120.0
            },
            {
                "start_time": 12.825,
                "end_time": 14.01590909090909,
                "pitch": 75,
                "velocity": 80,
                "duration": 1.1909090909090914,
                "tempo": 120.0
            },
            {
                "start_time": 14.031818181818181,
                "end_time": 14.320454545454545,
                "pitch": 82,
                "velocity": 80,
                "duration": 0.288636363636364,
                "tempo": 120.0
            },
            {
                "start_time": 14.336363636363636,
                "end_time": 15.424999999999999,
                "pitch": 80,
                "velocity": 80,
                "duration": 1.088636363636363,
                "tempo": 120.0
            },
            {
                "start_time": 15.44090909090909,
                "end_time": 15.620454545454544,
                "pitch": 79,
                "velocity": 80,
                "duration": 0.17954545454545467,
                "tempo": 120.0
            },
            {
                "start_time": 15.636363636363635,
                "end_time": 15.822727272727272,
                "pitch": 80,
                "velocity": 80,
                "duration": 0.1863636363636374,
                "tempo": 120.0
            },
            {
                "start_time": 15.84090909090909,
                "end_time": 17.224999999999998,
                "pitch": 78,
                "velocity": 80,
                "duration": 1.384090909090908,
                "tempo": 120.0
            },
            {
                "start_time": 17.243181818181817,
                "end_time": 17.429545454545455,
                "pitch": 78,
                "velocity": 80,
                "duration": 0.1863636363636374,
                "tempo": 120.0
            },
            {
                "start_time": 17.445454545454545,
                "end_time": 19.229545454545455,
                "pitch": 75,
                "velocity": 80,
                "duration": 1.78409090909091,
                "tempo": 120.0
            },
            {
                "start_time": 19.24772727272727,
                "end_time": 19.263636363636362,
                "pitch": 73,
                "velocity": 80,
                "duration": 0.01590909090909065,
                "tempo": 120.0
            },
            {
                "start_time": 19.279545454545453,
                "end_time": 20.443181818181817,
                "pitch": 71,
                "velocity": 80,
                "duration": 1.163636363636364,
                "tempo": 120.0
            },
            {
                "start_time": 20.461363636363636,
                "end_time": 20.743181818181817,
                "pitch": 80,
                "velocity": 80,
                "duration": 0.2818181818181813,
                "tempo": 120.0
            },
            {
                "start_time": 20.761363636363637,
                "end_time": 21.84318181818182,
                "pitch": 79,
                "velocity": 80,
                "duration": 1.081818181818182,
                "tempo": 120.0
            },
            {
                "start_time": 21.861363636363635,
                "end_time": 22.04090909090909,
                "pitch": 80,
                "velocity": 80,
                "duration": 0.17954545454545467,
                "tempo": 120.0
            },
            {
                "start_time": 22.05681818181818,
                "end_time": 22.243181818181817,
                "pitch": 79,
                "velocity": 80,
                "duration": 0.1863636363636374,
                "tempo": 120.0
            },
            {
                "start_time": 22.259090909090908,
                "end_time": 22.44772727272727,
                "pitch": 78,
                "velocity": 80,
                "duration": 0.1886363636363626,
                "tempo": 120.0
            },
            {
                "start_time": 22.46590909090909,
                "end_time": 23.645454545454545,
                "pitch": 76,
                "velocity": 80,
                "duration": 1.1795454545454547,
                "tempo": 120.0
            },
            {
                "start_time": 23.661363636363635,
                "end_time": 23.95,
                "pitch": 71,
                "velocity": 80,
                "duration": 0.288636363636364,
                "tempo": 120.0
            },
            {
                "start_time": 23.96818181818182,
                "end_time": 25.64090909090909,
                "pitch": 73,
                "velocity": 80,
                "duration": 1.672727272727272,
                "tempo": 120.0
            },
            {
                "start_time": 25.65681818181818,
                "end_time": 25.74090909090909,
                "pitch": 73,
                "velocity": 80,
                "duration": 0.08409090909090722,
                "tempo": 120.0
            },
            {
                "start_time": 25.759090909090908,
                "end_time": 25.84318181818182,
                "pitch": 72,
                "velocity": 80,
                "duration": 0.08409090909091077,
                "tempo": 120.0
            },
            {
                "start_time": 25.861363636363635,
                "end_time": 25.945454545454545,
                "pitch": 68,
                "velocity": 80,
                "duration": 0.08409090909091077,
                "tempo": 120.0
            },
            {
                "start_time": 25.96363636363636,
                "end_time": 26.049999999999997,
                "pitch": 73,
                "velocity": 80,
                "duration": 0.08636363636363598,
                "tempo": 120.0
            },
            {
                "start_time": 26.06590909090909,
                "end_time": 26.152272727272727,
                "pitch": 72,
                "velocity": 80,
                "duration": 0.08636363636363598,
                "tempo": 120.0
            },
            {
                "start_time": 26.168181818181818,
                "end_time": 26.254545454545454,
                "pitch": 68,
                "velocity": 80,
                "duration": 0.08636363636363598,
                "tempo": 120.0
            },
            {
                "start_time": 26.27272727272727,
                "end_time": 26.459090909090907,
                "pitch": 75,
                "velocity": 80,
                "duration": 0.1863636363636374,
                "tempo": 120.0
            },
            {
                "start_time": 26.477272727272727,
                "end_time": 26.55909090909091,
                "pitch": 73,
                "velocity": 80,
                "duration": 0.08181818181818201,
                "tempo": 120.0
            },
            {
                "start_time": 26.575,
                "end_time": 26.654545454545453,
                "pitch": 73,
                "velocity": 80,
                "duration": 0.07954545454545325,
                "tempo": 120.0
            },
            {
                "start_time": 27.279545454545453,
                "end_time": 27.36590909090909,
                "pitch": 85,
                "velocity": 80,
                "duration": 0.08636363636363598,
                "tempo": 120.0
            },
            {
                "start_time": 27.38181818181818,
                "end_time": 27.46590909090909,
                "pitch": 84,
                "velocity": 80,
                "duration": 0.08409090909091077,
                "tempo": 120.0
            },
            {
                "start_time": 27.48181818181818,
                "end_time": 27.565909090909088,
                "pitch": 82,
                "velocity": 80,
                "duration": 0.08409090909090722,
                "tempo": 120.0
            },
            {
                "start_time": 27.581818181818182,
                "end_time": 27.66590909090909,
                "pitch": 85,
                "velocity": 80,
                "duration": 0.08409090909090722,
                "tempo": 120.0
            },
            {
                "start_time": 27.68181818181818,
                "end_time": 27.76590909090909,
                "pitch": 84,
                "velocity": 80,
                "duration": 0.08409090909091077,
                "tempo": 120.0
            },
            {
                "start_time": 27.78181818181818,
                "end_time": 27.86590909090909,
                "pitch": 82,
                "velocity": 80,
                "duration": 0.08409090909090722,
                "tempo": 120.0
            },
            {
                "start_time": 27.884090909090908,
                "end_time": 28.068181818181817,
                "pitch": 87,
                "velocity": 80,
                "duration": 0.18409090909090864,
                "tempo": 120.0
            },
            {
                "start_time": 28.084090909090907,
                "end_time": 28.168181818181818,
                "pitch": 85,
                "velocity": 80,
                "duration": 0.08409090909091077,
                "tempo": 120.0
            },
            {
                "start_time": 28.18409090909091,
                "end_time": 28.268181818181816,
                "pitch": 84,
                "velocity": 80,
                "duration": 0.08409090909090722,
                "tempo": 120.0
            },
            {
                "start_time": 28.284090909090907,
                "end_time": 28.368181818181817,
                "pitch": 82,
                "velocity": 80,
                "duration": 0.08409090909091077,
                "tempo": 120.0
            },
            {
                "start_time": 28.384090909090908,
                "end_time": 28.468181818181815,
                "pitch": 85,
                "velocity": 80,
                "duration": 0.08409090909090722,
                "tempo": 120.0
            },
            {
                "start_time": 28.48409090909091,
                "end_time": 28.568181818181817,
                "pitch": 84,
                "velocity": 80,
                "duration": 0.08409090909090722,
                "tempo": 120.0
            },
            {
                "start_time": 28.584090909090907,
                "end_time": 28.668181818181818,
                "pitch": 82,
                "velocity": 80,
                "duration": 0.08409090909091077,
                "tempo": 120.0
            },
            {
                "start_time": 28.68409090909091,
                "end_time": 28.868181818181817,
                "pitch": 87,
                "velocity": 80,
                "duration": 0.18409090909090864,
                "tempo": 120.0
            },
            {
                "start_time": 28.884090909090908,
                "end_time": 28.968181818181815,
                "pitch": 85,
                "velocity": 80,
                "duration": 0.08409090909090722,
                "tempo": 120.0
            },
            {
                "start_time": 28.98409090909091,
                "end_time": 29.068181818181817,
                "pitch": 84,
                "velocity": 80,
                "duration": 0.08409090909090722,
                "tempo": 120.0
            },
            {
                "start_time": 29.086363636363636,
                "end_time": 29.170454545454543,
                "pitch": 82,
                "velocity": 80,
                "duration": 0.08409090909090722,
                "tempo": 120.0
            },
            {
                "start_time": 29.186363636363634,
                "end_time": 29.270454545454545,
                "pitch": 85,
                "velocity": 80,
                "duration": 0.08409090909091077,
                "tempo": 120.0
            },
            {
                "start_time": 29.286363636363635,
                "end_time": 29.370454545454542,
                "pitch": 84,
                "velocity": 80,
                "duration": 0.08409090909090722,
                "tempo": 120.0
            },
            {
                "start_time": 29.386363636363637,
                "end_time": 29.470454545454544,
                "pitch": 82,
                "velocity": 80,
                "duration": 0.08409090909090722,
                "tempo": 120.0
            },
            {
                "start_time": 29.486363636363635,
                "end_time": 30.472727272727273,
                "pitch": 87,
                "velocity": 80,
                "duration": 0.9863636363636381,
                "tempo": 120.0
            },
            {
                "start_time": 30.49090909090909,
                "end_time": 30.57272727272727,
                "pitch": 90,
                "velocity": 80,
                "duration": 0.08181818181818201,
                "tempo": 120.0
            },
            {
                "start_time": 30.58863636363636,
                "end_time": 30.670454545454543,
                "pitch": 89,
                "velocity": 80,
                "duration": 0.08181818181818201,
                "tempo": 120.0
            },
            {
                "start_time": 30.686363636363634,
                "end_time": 30.768181818181816,
                "pitch": 87,
                "velocity": 80,
                "duration": 0.08181818181818201,
                "tempo": 120.0
            },
            {
                "start_time": 30.784090909090907,
                "end_time": 30.86590909090909,
                "pitch": 90,
                "velocity": 80,
                "duration": 0.08181818181818201,
                "tempo": 120.0
            },
            {
                "start_time": 30.884090909090908,
                "end_time": 30.96590909090909,
                "pitch": 89,
                "velocity": 80,
                "duration": 0.08181818181818201,
                "tempo": 120.0
            },
            {
                "start_time": 30.98409090909091,
                "end_time": 31.068181818181817,
                "pitch": 87,
                "velocity": 80,
                "duration": 0.08409090909090722,
                "tempo": 120.0
            },
            {
                "start_time": 31.086363636363636,
                "end_time": 31.275,
                "pitch": 92,
                "velocity": 80,
                "duration": 0.1886363636363626,
                "tempo": 120.0
            },
            {
                "start_time": 31.29090909090909,
                "end_time": 31.377272727272725,
                "pitch": 90,
                "velocity": 80,
                "duration": 0.08636363636363598,
                "tempo": 120.0
            },
            {
                "start_time": 31.393181818181816,
                "end_time": 31.477272727272727,
                "pitch": 89,
                "velocity": 80,
                "duration": 0.08409090909091077,
                "tempo": 120.0
            },
            {
                "start_time": 31.493181818181817,
                "end_time": 31.577272727272724,
                "pitch": 87,
                "velocity": 80,
                "duration": 0.08409090909090722,
                "tempo": 120.0
            },
            {
                "start_time": 31.593181818181815,
                "end_time": 31.677272727272726,
                "pitch": 90,
                "velocity": 80,
                "duration": 0.08409090909091077,
                "tempo": 120.0
            },
            {
                "start_time": 31.693181818181817,
                "end_time": 31.777272727272727,
                "pitch": 89,
                "velocity": 80,
                "duration": 0.08409090909091077,
                "tempo": 120.0
            },
            {
                "start_time": 31.793181818181818,
                "end_time": 31.877272727272725,
                "pitch": 87,
                "velocity": 80,
                "duration": 0.08409090909090722,
                "tempo": 120.0
            },
            {
                "start_time": 31.893181818181816,
                "end_time": 32.07954545454545,
                "pitch": 85,
                "velocity": 80,
                "duration": 0.1863636363636374,
                "tempo": 120.0
            },
            {
                "start_time": 32.095454545454544,
                "end_time": 32.17727272727272,
                "pitch": 90,
                "velocity": 80,
                "duration": 0.08181818181817846,
                "tempo": 120.0
            },
            {
                "start_time": 32.195454545454545,
                "end_time": 32.275,
                "pitch": 89,
                "velocity": 80,
                "duration": 0.07954545454545325,
                "tempo": 120.0
            },
            {
                "start_time": 32.293181818181814,
                "end_time": 32.375,
                "pitch": 87,
                "velocity": 80,
                "duration": 0.08181818181818556,
                "tempo": 120.0
            },
            {
                "start_time": 32.39090909090909,
                "end_time": 32.47272727272727,
                "pitch": 90,
                "velocity": 80,
                "duration": 0.08181818181817846,
                "tempo": 120.0
            },
            {
                "start_time": 32.48863636363636,
                "end_time": 32.57272727272727,
                "pitch": 89,
                "velocity": 80,
                "duration": 0.08409090909091077,
                "tempo": 120.0
            },
            {
                "start_time": 32.58863636363636,
                "end_time": 32.675,
                "pitch": 87,
                "velocity": 80,
                "duration": 0.08636363636363598,
                "tempo": 120.0
            },
            {
                "start_time": 32.69090909090909,
                "end_time": 33.71818181818182,
                "pitch": 92,
                "velocity": 80,
                "duration": 1.027272727272731,
                "tempo": 120.0
            },
            {
                "start_time": 33.73409090909091,
                "end_time": 33.78409090909091,
                "pitch": 75,
                "velocity": 80,
                "duration": 0.04999999999999716,
                "tempo": 120.0
            },
            {
                "start_time": 33.80227272727272,
                "end_time": 33.88409090909091,
                "pitch": 78,
                "velocity": 80,
                "duration": 0.08181818181818556,
                "tempo": 120.0
            },
            {
                "start_time": 33.902272727272724,
                "end_time": 33.98409090909091,
                "pitch": 75,
                "velocity": 80,
                "duration": 0.08181818181818556,
                "tempo": 120.0
            },
            {
                "start_time": 34.002272727272725,
                "end_time": 34.08409090909091,
                "pitch": 79,
                "velocity": 80,
                "duration": 0.08181818181818556,
                "tempo": 120.0
            },
            {
                "start_time": 34.10227272727273,
                "end_time": 34.184090909090905,
                "pitch": 75,
                "velocity": 80,
                "duration": 0.08181818181817846,
                "tempo": 120.0
            },
            {
                "start_time": 34.20227272727273,
                "end_time": 34.28409090909091,
                "pitch": 78,
                "velocity": 80,
                "duration": 0.08181818181817846,
                "tempo": 120.0
            },
            {
                "start_time": 34.30227272727272,
                "end_time": 34.38409090909091,
                "pitch": 83,
                "velocity": 80,
                "duration": 0.08181818181818556,
                "tempo": 120.0
            },
            {
                "start_time": 34.402272727272724,
                "end_time": 34.48409090909091,
                "pitch": 82,
                "velocity": 80,
                "duration": 0.08181818181818556,
                "tempo": 120.0
            },
            {
                "start_time": 34.502272727272725,
                "end_time": 34.58409090909091,
                "pitch": 75,
                "velocity": 80,
                "duration": 0.08181818181818556,
                "tempo": 120.0
            },
            {
                "start_time": 34.60227272727273,
                "end_time": 34.684090909090905,
                "pitch": 78,
                "velocity": 80,
                "duration": 0.08181818181817846,
                "tempo": 120.0
            },
            {
                "start_time": 34.70227272727273,
                "end_time": 34.78409090909091,
                "pitch": 75,
                "velocity": 80,
                "duration": 0.08181818181817846,
                "tempo": 120.0
            },
            {
                "start_time": 34.80227272727272,
                "end_time": 34.88409090909091,
                "pitch": 79,
                "velocity": 80,
                "duration": 0.08181818181818556,
                "tempo": 120.0
            },
            {
                "start_time": 34.902272727272724,
                "end_time": 34.97954545454545,
                "pitch": 75,
                "velocity": 80,
                "duration": 0.07727272727272805,
                "tempo": 120.0
            },
            {
                "start_time": 34.99545454545454,
                "end_time": 35.07272727272727,
                "pitch": 78,
                "velocity": 80,
                "duration": 0.07727272727272805,
                "tempo": 120.0
            },
            {
                "start_time": 35.08863636363636,
                "end_time": 35.16590909090909,
                "pitch": 83,
                "velocity": 80,
                "duration": 0.07727272727272805,
                "tempo": 120.0
            },
            {
                "start_time": 35.179545454545455,
                "end_time": 35.25681818181818,
                "pitch": 82,
                "velocity": 80,
                "duration": 0.07727272727272805,
                "tempo": 120.0
            },
            {
                "start_time": 35.27272727272727,
                "end_time": 35.35454545454545,
                "pitch": 75,
                "velocity": 80,
                "duration": 0.08181818181817846,
                "tempo": 120.0
            },
            {
                "start_time": 35.37045454545454,
                "end_time": 35.45227272727273,
                "pitch": 78,
                "velocity": 80,
                "duration": 0.08181818181818556,
                "tempo": 120.0
            },
            {
                "start_time": 35.46818181818182,
                "end_time": 35.55,
                "pitch": 75,
                "velocity": 80,
                "duration": 0.08181818181817846,
                "tempo": 120.0
            },
            {
                "start_time": 35.56590909090909,
                "end_time": 35.64772727272727,
                "pitch": 79,
                "velocity": 80,
                "duration": 0.08181818181818556,
                "tempo": 120.0
            },
            {
                "start_time": 35.663636363636364,
                "end_time": 35.75,
                "pitch": 75,
                "velocity": 80,
                "duration": 0.08636363636363598,
                "tempo": 120.0
            },
            {
                "start_time": 35.76590909090909,
                "end_time": 35.85227272727273,
                "pitch": 78,
                "velocity": 80,
                "duration": 0.08636363636363598,
                "tempo": 120.0
            },
            {
                "start_time": 35.86818181818182,
                "end_time": 35.95454545454545,
                "pitch": 83,
                "velocity": 80,
                "duration": 0.08636363636363598,
                "tempo": 120.0
            },
            {
                "start_time": 35.97272727272727,
                "end_time": 36.05681818181818,
                "pitch": 82,
                "velocity": 80,
                "duration": 0.08409090909091077,
                "tempo": 120.0
            },
            {
                "start_time": 36.074999999999996,
                "end_time": 36.15681818181818,
                "pitch": 75,
                "velocity": 80,
                "duration": 0.08181818181818556,
                "tempo": 120.0
            },
            {
                "start_time": 36.17272727272727,
                "end_time": 36.25454545454545,
                "pitch": 78,
                "velocity": 80,
                "duration": 0.08181818181817846,
                "tempo": 120.0
            },
            {
                "start_time": 36.27045454545454,
                "end_time": 36.35227272727273,
                "pitch": 75,
                "velocity": 80,
                "duration": 0.08181818181818556,
                "tempo": 120.0
            },
            {
                "start_time": 36.36818181818182,
                "end_time": 36.449999999999996,
                "pitch": 79,
                "velocity": 80,
                "duration": 0.08181818181817846,
                "tempo": 120.0
            },
            {
                "start_time": 36.46818181818182,
                "end_time": 36.55227272727272,
                "pitch": 75,
                "velocity": 80,
                "duration": 0.08409090909090366,
                "tempo": 120.0
            },
            {
                "start_time": 36.56818181818181,
                "end_time": 36.654545454545456,
                "pitch": 78,
                "velocity": 80,
                "duration": 0.08636363636364308,
                "tempo": 120.0
            },
            {
                "start_time": 36.67272727272727,
                "end_time": 36.75681818181818,
                "pitch": 83,
                "velocity": 80,
                "duration": 0.08409090909091077,
                "tempo": 120.0
            },
            {
                "start_time": 36.775,
                "end_time": 36.85909090909091,
                "pitch": 82,
                "velocity": 80,
                "duration": 0.08409090909091077,
                "tempo": 120.0
            },
            {
                "start_time": 36.877272727272725,
                "end_time": 36.95909090909091,
                "pitch": 75,
                "velocity": 80,
                "duration": 0.08181818181818556,
                "tempo": 120.0
            },
            {
                "start_time": 36.975,
                "end_time": 37.05681818181818,
                "pitch": 78,
                "velocity": 80,
                "duration": 0.08181818181817846,
                "tempo": 120.0
            },
            {
                "start_time": 37.07272727272727,
                "end_time": 37.154545454545456,
                "pitch": 75,
                "velocity": 80,
                "duration": 0.08181818181818556,
                "tempo": 120.0
            },
            {
                "start_time": 37.17272727272727,
                "end_time": 37.25454545454545,
                "pitch": 79,
                "velocity": 80,
                "duration": 0.08181818181817846,
                "tempo": 120.0
            },
            {
                "start_time": 37.27045454545454,
                "end_time": 37.35454545454545,
                "pitch": 75,
                "velocity": 80,
                "duration": 0.08409090909091077,
                "tempo": 120.0
            },
            {
                "start_time": 37.37272727272727,
                "end_time": 37.45681818181818,
                "pitch": 78,
                "velocity": 80,
                "duration": 0.08409090909091077,
                "tempo": 120.0
            },
            {
                "start_time": 37.475,
                "end_time": 37.559090909090905,
                "pitch": 83,
                "velocity": 80,
                "duration": 0.08409090909090366,
                "tempo": 120.0
            },
            {
                "start_time": 37.57727272727273,
                "end_time": 37.663636363636364,
                "pitch": 82,
                "velocity": 80,
                "duration": 0.08636363636363598,
                "tempo": 120.0
            },
            {
                "start_time": 37.679545454545455,
                "end_time": 37.76363636363636,
                "pitch": 75,
                "velocity": 80,
                "duration": 0.08409090909090366,
                "tempo": 120.0
            },
            {
                "start_time": 37.779545454545456,
                "end_time": 37.86363636363636,
                "pitch": 78,
                "velocity": 80,
                "duration": 0.08409090909090366,
                "tempo": 120.0
            },
            {
                "start_time": 37.87954545454545,
                "end_time": 37.96363636363636,
                "pitch": 75,
                "velocity": 80,
                "duration": 0.08409090909091077,
                "tempo": 120.0
            },
            {
                "start_time": 37.97954545454545,
                "end_time": 38.06363636363636,
                "pitch": 79,
                "velocity": 80,
                "duration": 0.08409090909091077,
                "tempo": 120.0
            },
            {
                "start_time": 38.07954545454545,
                "end_time": 38.163636363636364,
                "pitch": 75,
                "velocity": 80,
                "duration": 0.08409090909091077,
                "tempo": 120.0
            },
            {
                "start_time": 38.179545454545455,
                "end_time": 38.26363636363636,
                "pitch": 78,
                "velocity": 80,
                "duration": 0.08409090909090366,
                "tempo": 120.0
            },
            {
                "start_time": 38.279545454545456,
                "end_time": 38.36363636363636,
                "pitch": 83,
                "velocity": 80,
                "duration": 0.08409090909090366,
                "tempo": 120.0
            },
            {
                "start_time": 38.37954545454545,
                "end_time": 38.46363636363636,
                "pitch": 82,
                "velocity": 80,
                "duration": 0.08409090909091077,
                "tempo": 120.0
            },
            {
                "start_time": 38.47954545454545,
                "end_time": 38.56136363636364,
                "pitch": 75,
                "velocity": 80,
                "duration": 0.08181818181818556,
                "tempo": 120.0
            },
            {
                "start_time": 38.57954545454545,
                "end_time": 38.66136363636363,
                "pitch": 78,
                "velocity": 80,
                "duration": 0.08181818181817846,
                "tempo": 120.0
            },
            {
                "start_time": 38.67727272727272,
                "end_time": 38.75909090909091,
                "pitch": 75,
                "velocity": 80,
                "duration": 0.08181818181818556,
                "tempo": 120.0
            },
            {
                "start_time": 38.775,
                "end_time": 38.85681818181818,
                "pitch": 79,
                "velocity": 80,
                "duration": 0.08181818181817846,
                "tempo": 120.0
            },
            {
                "start_time": 38.87272727272727,
                "end_time": 38.95681818181818,
                "pitch": 75,
                "velocity": 80,
                "duration": 0.08409090909091077,
                "tempo": 120.0
            },
            {
                "start_time": 38.975,
                "end_time": 39.06136363636364,
                "pitch": 78,
                "velocity": 80,
                "duration": 0.08636363636363598,
                "tempo": 120.0
            },
            {
                "start_time": 39.07727272727273,
                "end_time": 39.163636363636364,
                "pitch": 83,
                "velocity": 80,
                "duration": 0.08636363636363598,
                "tempo": 120.0
            },
            {
                "start_time": 39.179545454545455,
                "end_time": 39.26590909090909,
                "pitch": 82,
                "velocity": 80,
                "duration": 0.08636363636363598,
                "tempo": 120.0
            },
            {
                "start_time": 39.28181818181818,
                "end_time": 39.36590909090909,
                "pitch": 75,
                "velocity": 80,
                "duration": 0.08409090909091077,
                "tempo": 120.0
            },
            {
                "start_time": 39.38409090909091,
                "end_time": 39.465909090909086,
                "pitch": 78,
                "velocity": 80,
                "duration": 0.08181818181817846,
                "tempo": 120.0
            },
            {
                "start_time": 39.48409090909091,
                "end_time": 39.56590909090909,
                "pitch": 75,
                "velocity": 80,
                "duration": 0.08181818181817846,
                "tempo": 120.0
            },
            {
                "start_time": 39.584090909090904,
                "end_time": 39.66590909090909,
                "pitch": 79,
                "velocity": 80,
                "duration": 0.08181818181818556,
                "tempo": 120.0
            },
            {
                "start_time": 39.684090909090905,
                "end_time": 39.76590909090909,
                "pitch": 75,
                "velocity": 80,
                "duration": 0.08181818181818556,
                "tempo": 120.0
            },
            {
                "start_time": 39.78409090909091,
                "end_time": 39.86590909090909,
                "pitch": 78,
                "velocity": 80,
                "duration": 0.08181818181818556,
                "tempo": 120.0
            },
            {
                "start_time": 39.88409090909091,
                "end_time": 39.965909090909086,
                "pitch": 83,
                "velocity": 80,
                "duration": 0.08181818181817846,
                "tempo": 120.0
            },
            {
                "start_time": 39.98409090909091,
                "end_time": 40.06590909090909,
                "pitch": 82,
                "velocity": 80,
                "duration": 0.08181818181817846,
                "tempo": 120.0
            },
            {
                "start_time": 40.084090909090904,
                "end_time": 40.12045454545454,
                "pitch": 73,
                "velocity": 80,
                "duration": 0.03636363636363882,
                "tempo": 120.0
            }
        ],
        "Acoustic Bass": [
            {
                "start_time": 0.0,
                "end_time": 0.03409090909090909,
                "pitch": 39,
                "velocity": 80,
                "duration": 0.03409090909090909,
                "tempo": 120.0
            },
            {
                "start_time": 0.049999999999999996,
                "end_time": 0.1340909090909091,
                "pitch": 42,
                "velocity": 80,
                "duration": 0.0840909090909091,
                "tempo": 120.0
            },
            {
                "start_time": 0.15,
                "end_time": 0.23409090909090907,
                "pitch": 39,
                "velocity": 80,
                "duration": 0.08409090909090908,
                "tempo": 120.0
            },
            {
                "start_time": 0.25,
                "end_time": 0.33409090909090905,
                "pitch": 43,
                "velocity": 80,
                "duration": 0.08409090909090905,
                "tempo": 120.0
            },
            {
                "start_time": 0.35,
                "end_time": 0.4340909090909091,
                "pitch": 39,
                "velocity": 80,
                "duration": 0.0840909090909091,
                "tempo": 120.0
            },
            {
                "start_time": 0.44999999999999996,
                "end_time": 0.5340909090909091,
                "pitch": 42,
                "velocity": 80,
                "duration": 0.0840909090909091,
                "tempo": 120.0
            },
            {
                "start_time": 0.5499999999999999,
                "end_time": 0.634090909090909,
                "pitch": 47,
                "velocity": 80,
                "duration": 0.0840909090909091,
                "tempo": 120.0
            },
            {
                "start_time": 0.65,
                "end_time": 0.734090909090909,
                "pitch": 46,
                "velocity": 80,
                "duration": 0.084090909090909,
                "tempo": 120.0
            },
            {
                "start_time": 0.75,
                "end_time": 0.8340909090909091,
                "pitch": 39,
                "velocity": 80,
                "duration": 0.0840909090909091,
                "tempo": 120.0
            },
            {
                "start_time": 0.85,
                "end_time": 0.9340909090909091,
                "pitch": 42,
                "velocity": 80,
                "duration": 0.0840909090909091,
                "tempo": 120.0
            },
            {
                "start_time": 0.95,
                "end_time": 1.034090909090909,
                "pitch": 39,
                "velocity": 80,
                "duration": 0.084090909090909,
                "tempo": 120.0
            },
            {
                "start_time": 1.05,
                "end_time": 1.134090909090909,
                "pitch": 43,
                "velocity": 80,
                "duration": 0.084090909090909,
                "tempo": 120.0
            },
            {
                "start_time": 1.15,
                "end_time": 1.2340909090909091,
                "pitch": 39,
                "velocity": 80,
                "duration": 0.08409090909090922,
                "tempo": 120.0
            },
            {
                "start_time": 1.2522727272727272,
                "end_time": 1.3386363636363636,
                "pitch": 42,
                "velocity": 80,
                "duration": 0.08636363636363642,
                "tempo": 120.0
            },
            {
                "start_time": 1.3545454545454545,
                "end_time": 1.440909090909091,
                "pitch": 47,
                "velocity": 80,
                "duration": 0.08636363636363642,
                "tempo": 120.0
            },
            {
                "start_time": 1.4568181818181818,
                "end_time": 1.5431818181818182,
                "pitch": 46,
                "velocity": 80,
                "duration": 0.08636363636363642,
                "tempo": 120.0
            },
            {
                "start_time": 1.5613636363636363,
                "end_time": 1.643181818181818,
                "pitch": 39,
                "velocity": 80,
                "duration": 0.08181818181818179,
                "tempo": 120.0
            },
            {
                "start_time": 1.659090909090909,
                "end_time": 1.7409090909090907,
                "pitch": 42,
                "velocity": 80,
                "duration": 0.08181818181818179,
                "tempo": 120.0
            },
            {
                "start_time": 1.7568181818181818,
                "end_time": 1.8386363636363636,
                "pitch": 39,
                "velocity": 80,
                "duration": 0.08181818181818179,
                "tempo": 120.0
            },
            {
                "start_time": 1.8545454545454545,
                "end_time": 1.9363636363636363,
                "pitch": 43,
                "velocity": 80,
                "duration": 0.08181818181818179,
                "tempo": 120.0
            },
            {
                "start_time": 1.9522727272727272,
                "end_time": 2.0386363636363636,
                "pitch": 39,
                "velocity": 80,
                "duration": 0.08636363636363642,
                "tempo": 120.0
            },
            {
                "start_time": 2.0545454545454542,
                "end_time": 2.1409090909090907,
                "pitch": 42,
                "velocity": 80,
                "duration": 0.08636363636363642,
                "tempo": 120.0
            },
            {
                "start_time": 2.1568181818181817,
                "end_time": 2.243181818181818,
                "pitch": 47,
                "velocity": 80,
                "duration": 0.08636363636363642,
                "tempo": 120.0
            },
            {
                "start_time": 2.2613636363636362,
                "end_time": 2.3454545454545452,
                "pitch": 46,
                "velocity": 80,
                "duration": 0.084090909090909,
                "tempo": 120.0
            },
            {
                "start_time": 2.3636363636363633,
                "end_time": 2.4477272727272728,
                "pitch": 39,
                "velocity": 80,
                "duration": 0.08409090909090944,
                "tempo": 120.0
            },
            {
                "start_time": 2.4636363636363634,
                "end_time": 2.5477272727272724,
                "pitch": 42,
                "velocity": 80,
                "duration": 0.084090909090909,
                "tempo": 120.0
            },
            {
                "start_time": 2.565909090909091,
                "end_time": 2.6477272727272725,
                "pitch": 39,
                "velocity": 80,
                "duration": 0.08181818181818157,
                "tempo": 120.0
            },
            {
                "start_time": 2.6659090909090906,
                "end_time": 2.75,
                "pitch": 43,
                "velocity": 80,
                "duration": 0.08409090909090944,
                "tempo": 120.0
            },
            {
                "start_time": 2.7659090909090907,
                "end_time": 2.8499999999999996,
                "pitch": 39,
                "velocity": 80,
                "duration": 0.084090909090909,
                "tempo": 120.0
            },
            {
                "start_time": 2.8659090909090907,
                "end_time": 2.9499999999999997,
                "pitch": 42,
                "velocity": 80,
                "duration": 0.084090909090909,
                "tempo": 120.0
            },
            {
                "start_time": 2.965909090909091,
                "end_time": 3.05,
                "pitch": 47,
                "velocity": 80,
                "duration": 0.084090909090909,
                "tempo": 120.0
            },
            {
                "start_time": 3.065909090909091,
                "end_time": 3.15,
                "pitch": 46,
                "velocity": 80,
                "duration": 0.084090909090909,
                "tempo": 120.0
            },
            {
                "start_time": 3.1659090909090906,
                "end_time": 3.2477272727272726,
                "pitch": 39,
                "velocity": 80,
                "duration": 0.08181818181818201,
                "tempo": 120.0
            },
            {
                "start_time": 3.2636363636363637,
                "end_time": 3.3454545454545452,
                "pitch": 42,
                "velocity": 80,
                "duration": 0.08181818181818157,
                "tempo": 120.0
            },
            {
                "start_time": 3.3636363636363633,
                "end_time": 3.443181818181818,
                "pitch": 39,
                "velocity": 80,
                "duration": 0.07954545454545459,
                "tempo": 120.0
            },
            {
                "start_time": 3.461363636363636,
                "end_time": 3.543181818181818,
                "pitch": 43,
                "velocity": 80,
                "duration": 0.08181818181818201,
                "tempo": 120.0
            },
            {
                "start_time": 3.559090909090909,
                "end_time": 3.643181818181818,
                "pitch": 39,
                "velocity": 80,
                "duration": 0.084090909090909,
                "tempo": 120.0
            },
            {
                "start_time": 3.661363636363636,
                "end_time": 3.745454545454545,
                "pitch": 42,
                "velocity": 80,
                "duration": 0.084090909090909,
                "tempo": 120.0
            },
            {
                "start_time": 3.7636363636363637,
                "end_time": 3.8477272727272727,
                "pitch": 47,
                "velocity": 80,
                "duration": 0.084090909090909,
                "tempo": 120.0
            },
            {
                "start_time": 3.8659090909090907,
                "end_time": 3.952272727272727,
                "pitch": 46,
                "velocity": 80,
                "duration": 0.08636363636363642,
                "tempo": 120.0
            },
            {
                "start_time": 3.968181818181818,
                "end_time": 4.05,
                "pitch": 39,
                "velocity": 80,
                "duration": 0.08181818181818201,
                "tempo": 120.0
            },
            {
                "start_time": 4.068181818181818,
                "end_time": 4.1499999999999995,
                "pitch": 42,
                "velocity": 80,
                "duration": 0.08181818181818112,
                "tempo": 120.0
            },
            {
                "start_time": 4.165909090909091,
                "end_time": 4.247727272727272,
                "pitch": 39,
                "velocity": 80,
                "duration": 0.08181818181818112,
                "tempo": 120.0
            },
            {
                "start_time": 4.263636363636364,
                "end_time": 4.345454545454546,
                "pitch": 43,
                "velocity": 80,
                "duration": 0.08181818181818201,
                "tempo": 120.0
            },
            {
                "start_time": 4.361363636363636,
                "end_time": 4.445454545454545,
                "pitch": 39,
                "velocity": 80,
                "duration": 0.084090909090909,
                "tempo": 120.0
            },
            {
                "start_time": 4.463636363636364,
                "end_time": 4.547727272727273,
                "pitch": 42,
                "velocity": 80,
                "duration": 0.084090909090909,
                "tempo": 120.0
            },
            {
                "start_time": 4.5659090909090905,
                "end_time": 4.652272727272727,
                "pitch": 47,
                "velocity": 80,
                "duration": 0.08636363636363686,
                "tempo": 120.0
            },
            {
                "start_time": 4.668181818181818,
                "end_time": 4.754545454545454,
                "pitch": 46,
                "velocity": 80,
                "duration": 0.08636363636363598,
                "tempo": 120.0
            },
            {
                "start_time": 4.7704545454545455,
                "end_time": 4.8545454545454545,
                "pitch": 39,
                "velocity": 80,
                "duration": 0.084090909090909,
                "tempo": 120.0
            },
            {
                "start_time": 4.870454545454545,
                "end_time": 4.952272727272727,
                "pitch": 42,
                "velocity": 80,
                "duration": 0.08181818181818201,
                "tempo": 120.0
            },
            {
                "start_time": 4.968181818181818,
                "end_time": 5.05,
                "pitch": 39,
                "velocity": 80,
                "duration": 0.08181818181818201,
                "tempo": 120.0
            },
            {
                "start_time": 5.0659090909090905,
                "end_time": 5.1477272727272725,
                "pitch": 43,
                "velocity": 80,
                "duration": 0.08181818181818201,
                "tempo": 120.0
            },
            {
                "start_time": 5.163636363636363,
                "end_time": 5.247727272727272,
                "pitch": 39,
                "velocity": 80,
                "duration": 0.084090909090909,
                "tempo": 120.0
            },
            {
                "start_time": 5.265909090909091,
                "end_time": 5.352272727272727,
                "pitch": 42,
                "velocity": 80,
                "duration": 0.08636363636363598,
                "tempo": 120.0
            },
            {
                "start_time": 5.368181818181818,
                "end_time": 5.386363636363636,
                "pitch": 47,
                "velocity": 80,
                "duration": 0.018181818181817633,
                "tempo": 120.0
            },
            {
                "start_time": 5.402272727272727,
                "end_time": 5.454545454545454,
                "pitch": 46,
                "velocity": 80,
                "duration": 0.052272727272726804,
                "tempo": 120.0
            },
            {
                "start_time": 5.470454545454545,
                "end_time": 5.556818181818182,
                "pitch": 46,
                "velocity": 80,
                "duration": 0.08636363636363686,
                "tempo": 120.0
            },
            {
                "start_time": 5.574999999999999,
                "end_time": 5.659090909090909,
                "pitch": 39,
                "velocity": 80,
                "duration": 0.08409090909090988,
                "tempo": 120.0
            },
            {
                "start_time": 5.675,
                "end_time": 5.759090909090909,
                "pitch": 42,
                "velocity": 80,
                "duration": 0.084090909090909,
                "tempo": 120.0
            },
            {
                "start_time": 5.7749999999999995,
                "end_time": 5.8590909090909085,
                "pitch": 39,
                "velocity": 80,
                "duration": 0.084090909090909,
                "tempo": 120.0
            },
            {
                "start_time": 5.877272727272727,
                "end_time": 5.961363636363636,
                "pitch": 43,
                "velocity": 80,
                "duration": 0.084090909090909,
                "tempo": 120.0
            },
            {
                "start_time": 5.977272727272727,
                "end_time": 6.0613636363636365,
                "pitch": 39,
                "velocity": 80,
                "duration": 0.08409090909090988,
                "tempo": 120.0
            },
            {
                "start_time": 6.077272727272727,
                "end_time": 6.161363636363636,
                "pitch": 42,
                "velocity": 80,
                "duration": 0.084090909090909,
                "tempo": 120.0
            },
            {
                "start_time": 6.177272727272727,
                "end_time": 6.261363636363636,
                "pitch": 47,
                "velocity": 80,
                "duration": 0.084090909090909,
                "tempo": 120.0
            },
            {
                "start_time": 6.277272727272727,
                "end_time": 6.361363636363636,
                "pitch": 46,
                "velocity": 80,
                "duration": 0.084090909090909,
                "tempo": 120.0
            },
            {
                "start_time": 6.377272727272727,
                "end_time": 6.406818181818181,
                "pitch": 37,
                "velocity": 80,
                "duration": 0.02954545454545432,
                "tempo": 120.0
            },
            {
                "start_time": 6.406818181818181,
                "end_time": 6.561363636363636,
                "pitch": 37,
                "velocity": 80,
                "duration": 0.15454545454545432,
                "tempo": 120.0
            },
            {
                "start_time": 6.577272727272727,
                "end_time": 6.661363636363636,
                "pitch": 37,
                "velocity": 80,
                "duration": 0.084090909090909,
                "tempo": 120.0
            },
            {
                "start_time": 6.679545454545454,
                "end_time": 6.763636363636364,
                "pitch": 37,
                "velocity": 80,
                "duration": 0.08409090909090988,
                "tempo": 120.0
            },
            {
                "start_time": 6.779545454545454,
                "end_time": 6.86590909090909,
                "pitch": 49,
                "velocity": 80,
                "duration": 0.08636363636363598,
                "tempo": 120.0
            },
            {
                "start_time": 6.884090909090909,
                "end_time": 7.081818181818181,
                "pitch": 37,
                "velocity": 80,
                "duration": 0.1977272727272723,
                "tempo": 120.0
            },
            {
                "start_time": 7.1,
                "end_time": 7.293181818181818,
                "pitch": 37,
                "velocity": 80,
                "duration": 0.19318181818181834,
                "tempo": 120.0
            },
            {
                "start_time": 7.309090909090909,
                "end_time": 7.390909090909091,
                "pitch": 37,
                "velocity": 80,
                "duration": 0.08181818181818201,
                "tempo": 120.0
            },
            {
                "start_time": 7.406818181818181,
                "end_time": 7.488636363636363,
                "pitch": 49,
                "velocity": 80,
                "duration": 0.08181818181818201,
                "tempo": 120.0
            },
            {
                "start_time": 7.506818181818182,
                "end_time": 7.588636363636363,
                "pitch": 37,
                "velocity": 80,
                "duration": 0.08181818181818112,
                "tempo": 120.0
            },
            {
                "start_time": 7.6045454545454545,
                "end_time": 7.686363636363636,
                "pitch": 48,
                "velocity": 80,
                "duration": 0.08181818181818112,
                "tempo": 120.0
            },
            {
                "start_time": 7.704545454545454,
                "end_time": 7.79090909090909,
                "pitch": 37,
                "velocity": 80,
                "duration": 0.08636363636363598,
                "tempo": 120.0
            },
            {
                "start_time": 7.806818181818182,
                "end_time": 7.893181818181818,
                "pitch": 44,
                "velocity": 80,
                "duration": 0.08636363636363598,
                "tempo": 120.0
            },
            {
                "start_time": 7.909090909090908,
                "end_time": 7.995454545454545,
                "pitch": 46,
                "velocity": 80,
                "duration": 0.08636363636363686,
                "tempo": 120.0
            },
            {
                "start_time": 8.011363636363637,
                "end_time": 8.197727272727272,
                "pitch": 37,
                "velocity": 80,
                "duration": 0.18636363636363562,
                "tempo": 120.0
            },
            {
                "start_time": 8.21590909090909,
                "end_time": 8.297727272727272,
                "pitch": 37,
                "velocity": 80,
                "duration": 0.08181818181818201,
                "tempo": 120.0
            },
            {
                "start_time": 8.315909090909091,
                "end_time": 8.4,
                "pitch": 37,
                "velocity": 80,
                "duration": 0.084090909090909,
                "tempo": 120.0
            },
            {
                "start_time": 8.415909090909091,
                "end_time": 8.5,
                "pitch": 49,
                "velocity": 80,
                "duration": 0.084090909090909,
                "tempo": 120.0
            },
            {
                "start_time": 8.51590909090909,
                "end_time": 8.702272727272726,
                "pitch": 37,
                "velocity": 80,
                "duration": 0.18636363636363562,
                "tempo": 120.0
            },
            {
                "start_time": 8.718181818181817,
                "end_time": 8.902272727272727,
                "pitch": 37,
                "velocity": 80,
                "duration": 0.18409090909091042,
                "tempo": 120.0
            },
            {
                "start_time": 8.918181818181818,
                "end_time": 9.0,
                "pitch": 37,
                "velocity": 80,
                "duration": 0.08181818181818201,
                "tempo": 120.0
            },
            {
                "start_time": 9.01590909090909,
                "end_time": 9.097727272727273,
                "pitch": 49,
                "velocity": 80,
                "duration": 0.08181818181818201,
                "tempo": 120.0
            },
            {
                "start_time": 9.113636363636363,
                "end_time": 9.195454545454545,
                "pitch": 37,
                "velocity": 80,
                "duration": 0.08181818181818201,
                "tempo": 120.0
            },
            {
                "start_time": 9.211363636363636,
                "end_time": 9.295454545454545,
                "pitch": 48,
                "velocity": 80,
                "duration": 0.084090909090909,
                "tempo": 120.0
            },
            {
                "start_time": 9.311363636363636,
                "end_time": 9.397727272727272,
                "pitch": 37,
                "velocity": 80,
                "duration": 0.08636363636363598,
                "tempo": 120.0
            },
            {
                "start_time": 9.415909090909091,
                "end_time": 9.5,
                "pitch": 44,
                "velocity": 80,
                "duration": 0.084090909090909,
                "tempo": 120.0
            },
            {
                "start_time": 9.518181818181818,
                "end_time": 9.604545454545454,
                "pitch": 46,
                "velocity": 80,
                "duration": 0.08636363636363598,
                "tempo": 120.0
            },
            {
                "start_time": 9.620454545454544,
                "end_time": 9.797727272727272,
                "pitch": 37,
                "velocity": 80,
                "duration": 0.1772727272727277,
                "tempo": 120.0
            },
            {
                "start_time": 9.813636363636363,
                "end_time": 9.893181818181818,
                "pitch": 37,
                "velocity": 80,
                "duration": 0.07954545454545503,
                "tempo": 120.0
            },
            {
                "start_time": 9.909090909090908,
                "end_time": 9.988636363636363,
                "pitch": 37,
                "velocity": 80,
                "duration": 0.07954545454545503,
                "tempo": 120.0
            },
            {
                "start_time": 10.004545454545454,
                "end_time": 10.088636363636363,
                "pitch": 49,
                "velocity": 80,
                "duration": 0.084090909090909,
                "tempo": 120.0
            },
            {
                "start_time": 10.104545454545454,
                "end_time": 10.299999999999999,
                "pitch": 37,
                "velocity": 80,
                "duration": 0.19545454545454533,
                "tempo": 120.0
            },
            {
                "start_time": 10.31590909090909,
                "end_time": 10.506818181818181,
                "pitch": 37,
                "velocity": 80,
                "duration": 0.19090909090909136,
                "tempo": 120.0
            },
            {
                "start_time": 10.522727272727272,
                "end_time": 10.604545454545454,
                "pitch": 37,
                "velocity": 80,
                "duration": 0.08181818181818201,
                "tempo": 120.0
            },
            {
                "start_time": 10.622727272727273,
                "end_time": 10.702272727272726,
                "pitch": 49,
                "velocity": 80,
                "duration": 0.07954545454545325,
                "tempo": 120.0
            },
            {
                "start_time": 10.720454545454546,
                "end_time": 10.802272727272726,
                "pitch": 37,
                "velocity": 80,
                "duration": 0.08181818181818024,
                "tempo": 120.0
            },
            {
                "start_time": 10.818181818181818,
                "end_time": 10.9,
                "pitch": 48,
                "velocity": 80,
                "duration": 0.08181818181818201,
                "tempo": 120.0
            },
            {
                "start_time": 10.918181818181818,
                "end_time": 11.004545454545454,
                "pitch": 37,
                "velocity": 80,
                "duration": 0.08636363636363598,
                "tempo": 120.0
            },
            {
                "start_time": 11.020454545454545,
                "end_time": 11.10681818181818,
                "pitch": 44,
                "velocity": 80,
                "duration": 0.08636363636363598,
                "tempo": 120.0
            },
            {
                "start_time": 11.122727272727273,
                "end_time": 11.209090909090909,
                "pitch": 46,
                "velocity": 80,
                "duration": 0.08636363636363598,
                "tempo": 120.0
            },
            {
                "start_time": 11.227272727272727,
                "end_time": 11.406818181818181,
                "pitch": 37,
                "velocity": 80,
                "duration": 0.17954545454545467,
                "tempo": 120.0
            },
            {
                "start_time": 11.424999999999999,
                "end_time": 11.506818181818181,
                "pitch": 37,
                "velocity": 80,
                "duration": 0.08181818181818201,
                "tempo": 120.0
            },
            {
                "start_time": 11.522727272727272,
                "end_time": 11.604545454545454,
                "pitch": 37,
                "velocity": 80,
                "duration": 0.08181818181818201,
                "tempo": 120.0
            },
            {
                "start_time": 11.620454545454544,
                "end_time": 11.704545454545453,
                "pitch": 49,
                "velocity": 80,
                "duration": 0.084090909090909,
                "tempo": 120.0
            },
            {
                "start_time": 11.720454545454546,
                "end_time": 11.909090909090908,
                "pitch": 37,
                "velocity": 80,
                "duration": 0.1886363636363626,
                "tempo": 120.0
            },
            {
                "start_time": 11.927272727272726,
                "end_time": 12.113636363636363,
                "pitch": 37,
                "velocity": 80,
                "duration": 0.1863636363636374,
                "tempo": 120.0
            },
            {
                "start_time": 12.129545454545454,
                "end_time": 12.211363636363636,
                "pitch": 37,
                "velocity": 80,
                "duration": 0.08181818181818201,
                "tempo": 120.0
            },
            {
                "start_time": 12.227272727272727,
                "end_time": 12.309090909090909,
                "pitch": 49,
                "velocity": 80,
                "duration": 0.08181818181818201,
                "tempo": 120.0
            },
            {
                "start_time": 12.325,
                "end_time": 12.406818181818181,
                "pitch": 37,
                "velocity": 80,
                "duration": 0.08181818181818201,
                "tempo": 120.0
            },
            {
                "start_time": 12.422727272727272,
                "end_time": 12.506818181818181,
                "pitch": 48,
                "velocity": 80,
                "duration": 0.084090909090909,
                "tempo": 120.0
            },
            {
                "start_time": 12.522727272727272,
                "end_time": 12.60681818181818,
                "pitch": 37,
                "velocity": 80,
                "duration": 0.084090909090909,
                "tempo": 120.0
            },
            {
                "start_time": 12.622727272727271,
                "end_time": 12.706818181818182,
                "pitch": 44,
                "velocity": 80,
                "duration": 0.08409090909091077,
                "tempo": 120.0
            },
            {
                "start_time": 12.725,
                "end_time": 12.806818181818182,
                "pitch": 46,
                "velocity": 80,
                "duration": 0.08181818181818201,
                "tempo": 120.0
            },
            {
                "start_time": 12.825,
                "end_time": 13.004545454545454,
                "pitch": 39,
                "velocity": 80,
                "duration": 0.17954545454545467,
                "tempo": 120.0
            },
            {
                "start_time": 13.020454545454545,
                "end_time": 13.102272727272727,
                "pitch": 39,
                "velocity": 80,
                "duration": 0.08181818181818201,
                "tempo": 120.0
            },
            {
                "start_time": 13.120454545454544,
                "end_time": 13.202272727272726,
                "pitch": 39,
                "velocity": 80,
                "duration": 0.08181818181818201,
                "tempo": 120.0
            },
            {
                "start_time": 13.218181818181817,
                "end_time": 13.302272727272726,
                "pitch": 51,
                "velocity": 80,
                "duration": 0.084090909090909,
                "tempo": 120.0
            },
            {
                "start_time": 13.320454545454545,
                "end_time": 13.513636363636364,
                "pitch": 39,
                "velocity": 80,
                "duration": 0.19318181818181834,
                "tempo": 120.0
            },
            {
                "start_time": 13.531818181818181,
                "end_time": 13.720454545454544,
                "pitch": 39,
                "velocity": 80,
                "duration": 0.1886363636363626,
                "tempo": 120.0
            },
            {
                "start_time": 13.736363636363636,
                "end_time": 13.818181818181818,
                "pitch": 39,
                "velocity": 80,
                "duration": 0.08181818181818201,
                "tempo": 120.0
            },
            {
                "start_time": 13.836363636363636,
                "end_time": 13.918181818181818,
                "pitch": 51,
                "velocity": 80,
                "duration": 0.08181818181818201,
                "tempo": 120.0
            },
            {
                "start_time": 13.934090909090909,
                "end_time": 14.01590909090909,
                "pitch": 39,
                "velocity": 80,
                "duration": 0.08181818181818201,
                "tempo": 120.0
            },
            {
                "start_time": 14.031818181818181,
                "end_time": 14.11590909090909,
                "pitch": 44,
                "velocity": 80,
                "duration": 0.084090909090909,
                "tempo": 120.0
            },
            {
                "start_time": 14.131818181818181,
                "end_time": 14.218181818181817,
                "pitch": 46,
                "velocity": 80,
                "duration": 0.08636363636363598,
                "tempo": 120.0
            },
            {
                "start_time": 14.234090909090908,
                "end_time": 14.320454545454545,
                "pitch": 48,
                "velocity": 80,
                "duration": 0.08636363636363775,
                "tempo": 120.0
            },
            {
                "start_time": 14.336363636363636,
                "end_time": 14.422727272727272,
                "pitch": 49,
                "velocity": 80,
                "duration": 0.08636363636363598,
                "tempo": 120.0
            },
            {
                "start_time": 14.44090909090909,
                "end_time": 14.622727272727271,
                "pitch": 39,
                "velocity": 80,
                "duration": 0.18181818181818166,
                "tempo": 120.0
            },
            {
                "start_time": 14.638636363636364,
                "end_time": 14.720454545454544,
                "pitch": 39,
                "velocity": 80,
                "duration": 0.08181818181818024,
                "tempo": 120.0
            },
            {
                "start_time": 14.736363636363636,
                "end_time": 14.818181818181818,
                "pitch": 39,
                "velocity": 80,
                "duration": 0.08181818181818201,
                "tempo": 120.0
            },
            {
                "start_time": 14.834090909090909,
                "end_time": 14.918181818181818,
                "pitch": 51,
                "velocity": 80,
                "duration": 0.084090909090909,
                "tempo": 120.0
            },
            {
                "start_time": 14.934090909090909,
                "end_time": 15.122727272727271,
                "pitch": 39,
                "velocity": 80,
                "duration": 0.1886363636363626,
                "tempo": 120.0
            },
            {
                "start_time": 15.14090909090909,
                "end_time": 15.327272727272726,
                "pitch": 39,
                "velocity": 80,
                "duration": 0.18636363636363562,
                "tempo": 120.0
            },
            {
                "start_time": 15.343181818181817,
                "end_time": 15.424999999999999,
                "pitch": 39,
                "velocity": 80,
                "duration": 0.08181818181818201,
                "tempo": 120.0
            },
            {
                "start_time": 15.44090909090909,
                "end_time": 15.522727272727272,
                "pitch": 51,
                "velocity": 80,
                "duration": 0.08181818181818201,
                "tempo": 120.0
            },
            {
                "start_time": 15.538636363636362,
                "end_time": 15.620454545454544,
                "pitch": 39,
                "velocity": 80,
                "duration": 0.08181818181818201,
                "tempo": 120.0
            },
            {
                "start_time": 15.636363636363635,
                "end_time": 15.720454545454544,
                "pitch": 44,
                "velocity": 80,
                "duration": 0.084090909090909,
                "tempo": 120.0
            },
            {
                "start_time": 15.736363636363636,
                "end_time": 15.822727272727272,
                "pitch": 46,
                "velocity": 80,
                "duration": 0.08636363636363598,
                "tempo": 120.0
            },
            {
                "start_time": 15.84090909090909,
                "end_time": 15.924999999999999,
                "pitch": 48,
                "velocity": 80,
                "duration": 0.084090909090909,
                "tempo": 120.0
            },
            {
                "start_time": 15.943181818181817,
                "end_time": 16.027272727272727,
                "pitch": 49,
                "velocity": 80,
                "duration": 0.08409090909091077,
                "tempo": 120.0
            },
            {
                "start_time": 16.045454545454543,
                "end_time": 16.222727272727273,
                "pitch": 39,
                "velocity": 80,
                "duration": 0.17727272727272947,
                "tempo": 120.0
            },
            {
                "start_time": 16.238636363636363,
                "end_time": 16.318181818181817,
                "pitch": 39,
                "velocity": 80,
                "duration": 0.07954545454545325,
                "tempo": 120.0
            },
            {
                "start_time": 16.334090909090907,
                "end_time": 16.413636363636364,
                "pitch": 39,
                "velocity": 80,
                "duration": 0.0795454545454568,
                "tempo": 120.0
            },
            {
                "start_time": 16.429545454545455,
                "end_time": 16.513636363636362,
                "pitch": 51,
                "velocity": 80,
                "duration": 0.08409090909090722,
                "tempo": 120.0
            },
            {
                "start_time": 16.529545454545453,
                "end_time": 16.724999999999998,
                "pitch": 39,
                "velocity": 80,
                "duration": 0.19545454545454533,
                "tempo": 120.0
            },
            {
                "start_time": 16.74090909090909,
                "end_time": 16.93181818181818,
                "pitch": 39,
                "velocity": 80,
                "duration": 0.19090909090909136,
                "tempo": 120.0
            },
            {
                "start_time": 16.94772727272727,
                "end_time": 17.029545454545453,
                "pitch": 39,
                "velocity": 80,
                "duration": 0.08181818181818201,
                "tempo": 120.0
            },
            {
                "start_time": 17.045454545454543,
                "end_time": 17.127272727272725,
                "pitch": 51,
                "velocity": 80,
                "duration": 0.08181818181818201,
                "tempo": 120.0
            },
            {
                "start_time": 17.145454545454545,
                "end_time": 17.224999999999998,
                "pitch": 39,
                "velocity": 80,
                "duration": 0.07954545454545325,
                "tempo": 120.0
            },
            {
                "start_time": 17.243181818181817,
                "end_time": 17.325,
                "pitch": 44,
                "velocity": 80,
                "duration": 0.08181818181818201,
                "tempo": 120.0
            },
            {
                "start_time": 17.34318181818182,
                "end_time": 17.429545454545455,
                "pitch": 46,
                "velocity": 80,
                "duration": 0.08636363636363598,
                "tempo": 120.0
            },
            {
                "start_time": 17.445454545454545,
                "end_time": 17.53181818181818,
                "pitch": 48,
                "velocity": 80,
                "duration": 0.08636363636363598,
                "tempo": 120.0
            },
            {
                "start_time": 17.547727272727272,
                "end_time": 17.634090909090908,
                "pitch": 49,
                "velocity": 80,
                "duration": 0.08636363636363598,
                "tempo": 120.0
            },
            {
                "start_time": 17.65,
                "end_time": 17.827272727272728,
                "pitch": 39,
                "velocity": 80,
                "duration": 0.17727272727272947,
                "tempo": 120.0
            },
            {
                "start_time": 17.84318181818182,
                "end_time": 17.925,
                "pitch": 39,
                "velocity": 80,
                "duration": 0.08181818181818201,
                "tempo": 120.0
            },
            {
                "start_time": 17.94090909090909,
                "end_time": 18.020454545454545,
                "pitch": 39,
                "velocity": 80,
                "duration": 0.07954545454545325,
                "tempo": 120.0
            },
            {
                "start_time": 18.036363636363635,
                "end_time": 18.118181818181817,
                "pitch": 51,
                "velocity": 80,
                "duration": 0.08181818181818201,
                "tempo": 120.0
            },
            {
                "start_time": 18.136363636363637,
                "end_time": 18.329545454545453,
                "pitch": 39,
                "velocity": 80,
                "duration": 0.19318181818181657,
                "tempo": 120.0
            },
            {
                "start_time": 18.347727272727273,
                "end_time": 18.538636363636364,
                "pitch": 39,
                "velocity": 80,
                "duration": 0.19090909090909136,
                "tempo": 120.0
            },
            {
                "start_time": 18.554545454545455,
                "end_time": 18.636363636363637,
                "pitch": 39,
                "velocity": 80,
                "duration": 0.08181818181818201,
                "tempo": 120.0
            },
            {
                "start_time": 18.652272727272727,
                "end_time": 18.73409090909091,
                "pitch": 51,
                "velocity": 80,
                "duration": 0.08181818181818201,
                "tempo": 120.0
            },
            {
                "start_time": 18.75,
                "end_time": 18.831818181818182,
                "pitch": 39,
                "velocity": 80,
                "duration": 0.08181818181818201,
                "tempo": 120.0
            },
            {
                "start_time": 18.847727272727273,
                "end_time": 18.929545454545455,
                "pitch": 44,
                "velocity": 80,
                "duration": 0.08181818181818201,
                "tempo": 120.0
            },
            {
                "start_time": 18.94772727272727,
                "end_time": 19.029545454545453,
                "pitch": 46,
                "velocity": 80,
                "duration": 0.08181818181818201,
                "tempo": 120.0
            },
            {
                "start_time": 19.047727272727272,
                "end_time": 19.129545454545454,
                "pitch": 48,
                "velocity": 80,
                "duration": 0.08181818181818201,
                "tempo": 120.0
            },
            {
                "start_time": 19.147727272727273,
                "end_time": 19.229545454545455,
                "pitch": 49,
                "velocity": 80,
                "duration": 0.08181818181818201,
                "tempo": 120.0
            },
            {
                "start_time": 19.24772727272727,
                "end_time": 19.43181818181818,
                "pitch": 37,
                "velocity": 80,
                "duration": 0.18409090909090864,
                "tempo": 120.0
            },
            {
                "start_time": 19.44772727272727,
                "end_time": 19.53181818181818,
                "pitch": 37,
                "velocity": 80,
                "duration": 0.08409090909091077,
                "tempo": 120.0
            },
            {
                "start_time": 19.55,
                "end_time": 19.63181818181818,
                "pitch": 37,
                "velocity": 80,
                "duration": 0.08181818181817846,
                "tempo": 120.0
            },
            {
                "start_time": 19.65,
                "end_time": 19.73409090909091,
                "pitch": 49,
                "velocity": 80,
                "duration": 0.08409090909091077,
                "tempo": 120.0
            },
            {
                "start_time": 19.752272727272725,
                "end_time": 19.938636363636363,
                "pitch": 37,
                "velocity": 80,
                "duration": 0.1863636363636374,
                "tempo": 120.0
            },
            {
                "start_time": 19.956818181818182,
                "end_time": 20.143181818181816,
                "pitch": 37,
                "velocity": 80,
                "duration": 0.18636363636363384,
                "tempo": 120.0
            },
            {
                "start_time": 20.161363636363635,
                "end_time": 20.243181818181817,
                "pitch": 37,
                "velocity": 80,
                "duration": 0.08181818181818201,
                "tempo": 120.0
            },
            {
                "start_time": 20.261363636363637,
                "end_time": 20.34318181818182,
                "pitch": 49,
                "velocity": 80,
                "duration": 0.08181818181818201,
                "tempo": 120.0
            },
            {
                "start_time": 20.361363636363635,
                "end_time": 20.443181818181817,
                "pitch": 37,
                "velocity": 80,
                "duration": 0.08181818181818201,
                "tempo": 120.0
            },
            {
                "start_time": 20.461363636363636,
                "end_time": 20.543181818181818,
                "pitch": 48,
                "velocity": 80,
                "duration": 0.08181818181818201,
                "tempo": 120.0
            },
            {
                "start_time": 20.561363636363634,
                "end_time": 20.643181818181816,
                "pitch": 37,
                "velocity": 80,
                "duration": 0.08181818181818201,
                "tempo": 120.0
            },
            {
                "start_time": 20.661363636363635,
                "end_time": 20.743181818181817,
                "pitch": 44,
                "velocity": 80,
                "duration": 0.08181818181818201,
                "tempo": 120.0
            },
            {
                "start_time": 20.761363636363637,
                "end_time": 20.84318181818182,
                "pitch": 46,
                "velocity": 80,
                "duration": 0.08181818181818201,
                "tempo": 120.0
            },
            {
                "start_time": 20.861363636363635,
                "end_time": 21.045454545454543,
                "pitch": 37,
                "velocity": 80,
                "duration": 0.18409090909090864,
                "tempo": 120.0
            },
            {
                "start_time": 21.061363636363634,
                "end_time": 21.145454545454545,
                "pitch": 37,
                "velocity": 80,
                "duration": 0.08409090909091077,
                "tempo": 120.0
            },
            {
                "start_time": 21.163636363636364,
                "end_time": 21.245454545454546,
                "pitch": 37,
                "velocity": 80,
                "duration": 0.08181818181818201,
                "tempo": 120.0
            },
            {
                "start_time": 21.263636363636362,
                "end_time": 21.347727272727273,
                "pitch": 49,
                "velocity": 80,
                "duration": 0.08409090909091077,
                "tempo": 120.0
            },
            {
                "start_time": 21.363636363636363,
                "end_time": 21.547727272727272,
                "pitch": 37,
                "velocity": 80,
                "duration": 0.18409090909090864,
                "tempo": 120.0
            },
            {
                "start_time": 21.563636363636363,
                "end_time": 21.745454545454546,
                "pitch": 37,
                "velocity": 80,
                "duration": 0.18181818181818343,
                "tempo": 120.0
            },
            {
                "start_time": 21.761363636363637,
                "end_time": 21.84318181818182,
                "pitch": 37,
                "velocity": 80,
                "duration": 0.08181818181818201,
                "tempo": 120.0
            },
            {
                "start_time": 21.861363636363635,
                "end_time": 21.943181818181817,
                "pitch": 49,
                "velocity": 80,
                "duration": 0.08181818181818201,
                "tempo": 120.0
            },
            {
                "start_time": 21.959090909090907,
                "end_time": 22.04090909090909,
                "pitch": 37,
                "velocity": 80,
                "duration": 0.08181818181818201,
                "tempo": 120.0
            },
            {
                "start_time": 22.05681818181818,
                "end_time": 22.07272727272727,
                "pitch": 48,
                "velocity": 80,
                "duration": 0.01590909090909065,
                "tempo": 120.0
            },
            {
                "start_time": 22.08863636363636,
                "end_time": 22.14090909090909,
                "pitch": 47,
                "velocity": 80,
                "duration": 0.05227272727272947,
                "tempo": 120.0
            },
            {
                "start_time": 22.15681818181818,
                "end_time": 22.243181818181817,
                "pitch": 37,
                "velocity": 80,
                "duration": 0.08636363636363598,
                "tempo": 120.0
            },
            {
                "start_time": 22.259090909090908,
                "end_time": 22.345454545454544,
                "pitch": 44,
                "velocity": 80,
                "duration": 0.08636363636363598,
                "tempo": 120.0
            },
            {
                "start_time": 22.361363636363635,
                "end_time": 22.44772727272727,
                "pitch": 46,
                "velocity": 80,
                "duration": 0.08636363636363598,
                "tempo": 120.0
            },
            {
                "start_time": 22.46590909090909,
                "end_time": 22.643181818181816,
                "pitch": 37,
                "velocity": 80,
                "duration": 0.17727272727272592,
                "tempo": 120.0
            },
            {
                "start_time": 22.659090909090907,
                "end_time": 22.738636363636363,
                "pitch": 37,
                "velocity": 80,
                "duration": 0.0795454545454568,
                "tempo": 120.0
            },
            {
                "start_time": 22.754545454545454,
                "end_time": 22.834090909090907,
                "pitch": 37,
                "velocity": 80,
                "duration": 0.07954545454545325,
                "tempo": 120.0
            },
            {
                "start_time": 22.849999999999998,
                "end_time": 22.93181818181818,
                "pitch": 49,
                "velocity": 80,
                "duration": 0.08181818181818201,
                "tempo": 120.0
            },
            {
                "start_time": 22.95,
                "end_time": 23.143181818181816,
                "pitch": 37,
                "velocity": 80,
                "duration": 0.19318181818181657,
                "tempo": 120.0
            },
            {
                "start_time": 23.161363636363635,
                "end_time": 23.352272727272727,
                "pitch": 37,
                "velocity": 80,
                "duration": 0.19090909090909136,
                "tempo": 120.0
            },
            {
                "start_time": 23.368181818181817,
                "end_time": 23.45,
                "pitch": 37,
                "velocity": 80,
                "duration": 0.08181818181818201,
                "tempo": 120.0
            },
            {
                "start_time": 23.46590909090909,
                "end_time": 23.547727272727272,
                "pitch": 49,
                "velocity": 80,
                "duration": 0.08181818181818201,
                "tempo": 120.0
            },
            {
                "start_time": 23.563636363636363,
                "end_time": 23.645454545454545,
                "pitch": 37,
                "velocity": 80,
                "duration": 0.08181818181818201,
                "tempo": 120.0
            },
            {
                "start_time": 23.661363636363635,
                "end_time": 23.745454545454546,
                "pitch": 48,
                "velocity": 80,
                "duration": 0.08409090909091077,
                "tempo": 120.0
            },
            {
                "start_time": 23.763636363636362,
                "end_time": 23.847727272727273,
                "pitch": 37,
                "velocity": 80,
                "duration": 0.08409090909091077,
                "tempo": 120.0
            },
            {
                "start_time": 23.86590909090909,
                "end_time": 23.95,
                "pitch": 44,
                "velocity": 80,
                "duration": 0.08409090909091077,
                "tempo": 120.0
            },
            {
                "start_time": 23.96818181818182,
                "end_time": 24.054545454545455,
                "pitch": 46,
                "velocity": 80,
                "duration": 0.08636363636363598,
                "tempo": 120.0
            },
            {
                "start_time": 24.070454545454545,
                "end_time": 24.254545454545454,
                "pitch": 37,
                "velocity": 80,
                "duration": 0.18409090909090864,
                "tempo": 120.0
            },
            {
                "start_time": 24.27272727272727,
                "end_time": 24.354545454545452,
                "pitch": 37,
                "velocity": 80,
                "duration": 0.08181818181818201,
                "tempo": 120.0
            },
            {
                "start_time": 24.37272727272727,
                "end_time": 24.454545454545453,
                "pitch": 37,
                "velocity": 80,
                "duration": 0.08181818181818201,
                "tempo": 120.0
            },
            {
                "start_time": 24.472727272727273,
                "end_time": 24.554545454545455,
                "pitch": 49,
                "velocity": 80,
                "duration": 0.08181818181818201,
                "tempo": 120.0
            },
            {
                "start_time": 24.57272727272727,
                "end_time": 24.754545454545454,
                "pitch": 37,
                "velocity": 80,
                "duration": 0.18181818181818343,
                "tempo": 120.0
            },
            {
                "start_time": 24.77272727272727,
                "end_time": 24.954545454545453,
                "pitch": 37,
                "velocity": 80,
                "duration": 0.18181818181818343,
                "tempo": 120.0
            },
            {
                "start_time": 24.970454545454544,
                "end_time": 25.052272727272726,
                "pitch": 37,
                "velocity": 80,
                "duration": 0.08181818181818201,
                "tempo": 120.0
            },
            {
                "start_time": 25.068181818181817,
                "end_time": 25.15,
                "pitch": 49,
                "velocity": 80,
                "duration": 0.08181818181818201,
                "tempo": 120.0
            },
            {
                "start_time": 25.168181818181818,
                "end_time": 25.24772727272727,
                "pitch": 37,
                "velocity": 80,
                "duration": 0.07954545454545325,
                "tempo": 120.0
            },
            {
                "start_time": 25.26590909090909,
                "end_time": 25.347727272727273,
                "pitch": 48,
                "velocity": 80,
                "duration": 0.08181818181818201,
                "tempo": 120.0
            },
            {
                "start_time": 25.363636363636363,
                "end_time": 25.445454545454545,
                "pitch": 37,
                "velocity": 80,
                "duration": 0.08181818181818201,
                "tempo": 120.0
            },
            {
                "start_time": 25.461363636363636,
                "end_time": 25.543181818181818,
                "pitch": 44,
                "velocity": 80,
                "duration": 0.08181818181818201,
                "tempo": 120.0
            },
            {
                "start_time": 25.55909090909091,
                "end_time": 25.64090909090909,
                "pitch": 46,
                "velocity": 80,
                "duration": 0.08181818181818201,
                "tempo": 120.0
            },
            {
                "start_time": 25.65681818181818,
                "end_time": 25.74090909090909,
                "pitch": 49,
                "velocity": 80,
                "duration": 0.08409090909090722,
                "tempo": 120.0
            },
            {
                "start_time": 25.759090909090908,
                "end_time": 25.84318181818182,
                "pitch": 48,
                "velocity": 80,
                "duration": 0.08409090909091077,
                "tempo": 120.0
            },
            {
                "start_time": 25.861363636363635,
                "end_time": 25.945454545454545,
                "pitch": 44,
                "velocity": 80,
                "duration": 0.08409090909091077,
                "tempo": 120.0
            },
            {
                "start_time": 25.96363636363636,
                "end_time": 26.049999999999997,
                "pitch": 49,
                "velocity": 80,
                "duration": 0.08636363636363598,
                "tempo": 120.0
            },
            {
                "start_time": 26.06590909090909,
                "end_time": 26.152272727272727,
                "pitch": 48,
                "velocity": 80,
                "duration": 0.08636363636363598,
                "tempo": 120.0
            },
            {
                "start_time": 26.168181818181818,
                "end_time": 26.254545454545454,
                "pitch": 44,
                "velocity": 80,
                "duration": 0.08636363636363598,
                "tempo": 120.0
            },
            {
                "start_time": 26.27272727272727,
                "end_time": 26.459090909090907,
                "pitch": 51,
                "velocity": 80,
                "duration": 0.1863636363636374,
                "tempo": 120.0
            },
            {
                "start_time": 26.477272727272727,
                "end_time": 26.55909090909091,
                "pitch": 51,
                "velocity": 80,
                "duration": 0.08181818181818201,
                "tempo": 120.0
            },
            {
                "start_time": 26.575,
                "end_time": 26.654545454545453,
                "pitch": 51,
                "velocity": 80,
                "duration": 0.07954545454545325,
                "tempo": 120.0
            },
            {
                "start_time": 27.279545454545453,
                "end_time": 27.46590909090909,
                "pitch": 42,
                "velocity": 80,
                "duration": 0.1863636363636374,
                "tempo": 120.0
            },
            {
                "start_time": 27.48181818181818,
                "end_time": 27.66590909090909,
                "pitch": 42,
                "velocity": 80,
                "duration": 0.18409090909090864,
                "tempo": 120.0
            },
            {
                "start_time": 27.68181818181818,
                "end_time": 27.76590909090909,
                "pitch": 39,
                "velocity": 80,
                "duration": 0.08409090909091077,
                "tempo": 120.0
            },
            {
                "start_time": 27.78181818181818,
                "end_time": 27.96590909090909,
                "pitch": 39,
                "velocity": 80,
                "duration": 0.18409090909090864,
                "tempo": 120.0
            },
            {
                "start_time": 27.98409090909091,
                "end_time": 28.168181818181818,
                "pitch": 42,
                "velocity": 80,
                "duration": 0.18409090909090864,
                "tempo": 120.0
            },
            {
                "start_time": 28.18409090909091,
                "end_time": 28.368181818181817,
                "pitch": 39,
                "velocity": 80,
                "duration": 0.18409090909090864,
                "tempo": 120.0
            },
            {
                "start_time": 28.384090909090908,
                "end_time": 28.568181818181817,
                "pitch": 39,
                "velocity": 80,
                "duration": 0.18409090909090864,
                "tempo": 120.0
            },
            {
                "start_time": 28.584090909090907,
                "end_time": 28.668181818181818,
                "pitch": 39,
                "velocity": 80,
                "duration": 0.08409090909091077,
                "tempo": 120.0
            },
            {
                "start_time": 28.68409090909091,
                "end_time": 28.768181818181816,
                "pitch": 39,
                "velocity": 80,
                "duration": 0.08409090909090722,
                "tempo": 120.0
            },
            {
                "start_time": 28.784090909090907,
                "end_time": 28.868181818181817,
                "pitch": 44,
                "velocity": 80,
                "duration": 0.08409090909091077,
                "tempo": 120.0
            },
            {
                "start_time": 28.884090909090908,
                "end_time": 29.068181818181817,
                "pitch": 42,
                "velocity": 80,
                "duration": 0.18409090909090864,
                "tempo": 120.0
            },
            {
                "start_time": 29.086363636363636,
                "end_time": 29.270454545454545,
                "pitch": 42,
                "velocity": 80,
                "duration": 0.18409090909090864,
                "tempo": 120.0
            },
            {
                "start_time": 29.286363636363635,
                "end_time": 29.370454545454542,
                "pitch": 39,
                "velocity": 80,
                "duration": 0.08409090909090722,
                "tempo": 120.0
            },
            {
                "start_time": 29.386363636363637,
                "end_time": 29.570454545454545,
                "pitch": 39,
                "velocity": 80,
                "duration": 0.18409090909090864,
                "tempo": 120.0
            },
            {
                "start_time": 29.586363636363636,
                "end_time": 29.770454545454545,
                "pitch": 51,
                "velocity": 80,
                "duration": 0.18409090909090864,
                "tempo": 120.0
            },
            {
                "start_time": 29.78863636363636,
                "end_time": 29.870454545454542,
                "pitch": 51,
                "velocity": 80,
                "duration": 0.08181818181818201,
                "tempo": 120.0
            },
            {
                "start_time": 29.888636363636362,
                "end_time": 29.972727272727273,
                "pitch": 50,
                "velocity": 80,
                "duration": 0.08409090909091077,
                "tempo": 120.0
            },
            {
                "start_time": 29.988636363636363,
                "end_time": 30.07272727272727,
                "pitch": 50,
                "velocity": 80,
                "duration": 0.08409090909090722,
                "tempo": 120.0
            },
            {
                "start_time": 30.08863636363636,
                "end_time": 30.172727272727272,
                "pitch": 49,
                "velocity": 80,
                "duration": 0.08409090909091077,
                "tempo": 120.0
            },
            {
                "start_time": 30.190909090909088,
                "end_time": 30.27272727272727,
                "pitch": 49,
                "velocity": 80,
                "duration": 0.08181818181818201,
                "tempo": 120.0
            },
            {
                "start_time": 30.29090909090909,
                "end_time": 30.37272727272727,
                "pitch": 48,
                "velocity": 80,
                "duration": 0.08181818181818201,
                "tempo": 120.0
            },
            {
                "start_time": 30.39090909090909,
                "end_time": 30.472727272727273,
                "pitch": 48,
                "velocity": 80,
                "duration": 0.08181818181818201,
                "tempo": 120.0
            },
            {
                "start_time": 30.49090909090909,
                "end_time": 30.670454545454543,
                "pitch": 42,
                "velocity": 80,
                "duration": 0.17954545454545467,
                "tempo": 120.0
            },
            {
                "start_time": 30.686363636363634,
                "end_time": 30.86590909090909,
                "pitch": 42,
                "velocity": 80,
                "duration": 0.17954545454545467,
                "tempo": 120.0
            },
            {
                "start_time": 30.884090909090908,
                "end_time": 30.96590909090909,
                "pitch": 39,
                "velocity": 80,
                "duration": 0.08181818181818201,
                "tempo": 120.0
            },
            {
                "start_time": 30.98409090909091,
                "end_time": 31.172727272727272,
                "pitch": 39,
                "velocity": 80,
                "duration": 0.1886363636363626,
                "tempo": 120.0
            },
            {
                "start_time": 31.188636363636363,
                "end_time": 31.377272727272725,
                "pitch": 42,
                "velocity": 80,
                "duration": 0.1886363636363626,
                "tempo": 120.0
            },
            {
                "start_time": 31.393181818181816,
                "end_time": 31.577272727272724,
                "pitch": 39,
                "velocity": 80,
                "duration": 0.18409090909090864,
                "tempo": 120.0
            },
            {
                "start_time": 31.593181818181815,
                "end_time": 31.777272727272727,
                "pitch": 39,
                "velocity": 80,
                "duration": 0.1840909090909122,
                "tempo": 120.0
            },
            {
                "start_time": 31.793181818181818,
                "end_time": 31.877272727272725,
                "pitch": 39,
                "velocity": 80,
                "duration": 0.08409090909090722,
                "tempo": 120.0
            },
            {
                "start_time": 31.893181818181816,
                "end_time": 31.977272727272727,
                "pitch": 39,
                "velocity": 80,
                "duration": 0.08409090909091077,
                "tempo": 120.0
            },
            {
                "start_time": 31.995454545454542,
                "end_time": 32.07954545454545,
                "pitch": 44,
                "velocity": 80,
                "duration": 0.08409090909091077,
                "tempo": 120.0
            },
            {
                "start_time": 32.095454545454544,
                "end_time": 32.275,
                "pitch": 42,
                "velocity": 80,
                "duration": 0.17954545454545467,
                "tempo": 120.0
            },
            {
                "start_time": 32.293181818181814,
                "end_time": 32.47272727272727,
                "pitch": 42,
                "velocity": 80,
                "duration": 0.17954545454545467,
                "tempo": 120.0
            },
            {
                "start_time": 32.48863636363636,
                "end_time": 32.57272727272727,
                "pitch": 39,
                "velocity": 80,
                "duration": 0.08409090909091077,
                "tempo": 120.0
            },
            {
                "start_time": 32.58863636363636,
                "end_time": 32.777272727272724,
                "pitch": 39,
                "velocity": 80,
                "duration": 0.1886363636363626,
                "tempo": 120.0
            },
            {
                "start_time": 32.79545454545455,
                "end_time": 32.98181818181818,
                "pitch": 51,
                "velocity": 80,
                "duration": 0.1863636363636303,
                "tempo": 120.0
            },
            {
                "start_time": 32.99772727272727,
                "end_time": 33.08181818181818,
                "pitch": 51,
                "velocity": 80,
                "duration": 0.08409090909091077,
                "tempo": 120.0
            },
            {
                "start_time": 33.09772727272727,
                "end_time": 33.18181818181818,
                "pitch": 50,
                "velocity": 80,
                "duration": 0.08409090909091077,
                "tempo": 120.0
            },
            {
                "start_time": 33.19772727272727,
                "end_time": 33.28181818181818,
                "pitch": 50,
                "velocity": 80,
                "duration": 0.08409090909091077,
                "tempo": 120.0
            },
            {
                "start_time": 33.29772727272727,
                "end_time": 33.38181818181818,
                "pitch": 49,
                "velocity": 80,
                "duration": 0.08409090909091077,
                "tempo": 120.0
            },
            {
                "start_time": 33.39772727272727,
                "end_time": 33.48181818181818,
                "pitch": 49,
                "velocity": 80,
                "duration": 0.08409090909090366,
                "tempo": 120.0
            },
            {
                "start_time": 33.5,
                "end_time": 33.58409090909091,
                "pitch": 48,
                "velocity": 80,
                "duration": 0.08409090909091077,
                "tempo": 120.0
            },
            {
                "start_time": 33.6,
                "end_time": 33.71818181818182,
                "pitch": 48,
                "velocity": 80,
                "duration": 0.11818181818181728,
                "tempo": 120.0
            },
            {
                "start_time": 33.73409090909091,
                "end_time": 33.78409090909091,
                "pitch": 39,
                "velocity": 80,
                "duration": 0.04999999999999716,
                "tempo": 120.0
            },
            {
                "start_time": 33.80227272727272,
                "end_time": 33.88409090909091,
                "pitch": 42,
                "velocity": 80,
                "duration": 0.08181818181818556,
                "tempo": 120.0
            },
            {
                "start_time": 33.902272727272724,
                "end_time": 33.98409090909091,
                "pitch": 39,
                "velocity": 80,
                "duration": 0.08181818181818556,
                "tempo": 120.0
            },
            {
                "start_time": 34.002272727272725,
                "end_time": 34.08409090909091,
                "pitch": 43,
                "velocity": 80,
                "duration": 0.08181818181818556,
                "tempo": 120.0
            },
            {
                "start_time": 34.10227272727273,
                "end_time": 34.184090909090905,
                "pitch": 39,
                "velocity": 80,
                "duration": 0.08181818181817846,
                "tempo": 120.0
            },
            {
                "start_time": 34.20227272727273,
                "end_time": 34.28409090909091,
                "pitch": 42,
                "velocity": 80,
                "duration": 0.08181818181817846,
                "tempo": 120.0
            },
            {
                "start_time": 34.30227272727272,
                "end_time": 34.38409090909091,
                "pitch": 47,
                "velocity": 80,
                "duration": 0.08181818181818556,
                "tempo": 120.0
            },
            {
                "start_time": 34.402272727272724,
                "end_time": 34.48409090909091,
                "pitch": 46,
                "velocity": 80,
                "duration": 0.08181818181818556,
                "tempo": 120.0
            },
            {
                "start_time": 34.502272727272725,
                "end_time": 34.58409090909091,
                "pitch": 39,
                "velocity": 80,
                "duration": 0.08181818181818556,
                "tempo": 120.0
            },
            {
                "start_time": 34.60227272727273,
                "end_time": 34.684090909090905,
                "pitch": 42,
                "velocity": 80,
                "duration": 0.08181818181817846,
                "tempo": 120.0
            },
            {
                "start_time": 34.70227272727273,
                "end_time": 34.78409090909091,
                "pitch": 39,
                "velocity": 80,
                "duration": 0.08181818181817846,
                "tempo": 120.0
            },
            {
                "start_time": 34.80227272727272,
                "end_time": 34.88409090909091,
                "pitch": 43,
                "velocity": 80,
                "duration": 0.08181818181818556,
                "tempo": 120.0
            },
            {
                "start_time": 34.902272727272724,
                "end_time": 34.97954545454545,
                "pitch": 39,
                "velocity": 80,
                "duration": 0.07727272727272805,
                "tempo": 120.0
            },
            {
                "start_time": 34.99545454545454,
                "end_time": 35.07272727272727,
                "pitch": 42,
                "velocity": 80,
                "duration": 0.07727272727272805,
                "tempo": 120.0
            },
            {
                "start_time": 35.08863636363636,
                "end_time": 35.16590909090909,
                "pitch": 47,
                "velocity": 80,
                "duration": 0.07727272727272805,
                "tempo": 120.0
            },
            {
                "start_time": 35.179545454545455,
                "end_time": 35.25681818181818,
                "pitch": 46,
                "velocity": 80,
                "duration": 0.07727272727272805,
                "tempo": 120.0
            },
            {
                "start_time": 35.27272727272727,
                "end_time": 35.35454545454545,
                "pitch": 39,
                "velocity": 80,
                "duration": 0.08181818181817846,
                "tempo": 120.0
            },
            {
                "start_time": 35.37045454545454,
                "end_time": 35.45227272727273,
                "pitch": 42,
                "velocity": 80,
                "duration": 0.08181818181818556,
                "tempo": 120.0
            },
            {
                "start_time": 35.46818181818182,
                "end_time": 35.55,
                "pitch": 39,
                "velocity": 80,
                "duration": 0.08181818181817846,
                "tempo": 120.0
            },
            {
                "start_time": 35.56590909090909,
                "end_time": 35.64772727272727,
                "pitch": 43,
                "velocity": 80,
                "duration": 0.08181818181818556,
                "tempo": 120.0
            },
            {
                "start_time": 35.663636363636364,
                "end_time": 35.75,
                "pitch": 39,
                "velocity": 80,
                "duration": 0.08636363636363598,
                "tempo": 120.0
            },
            {
                "start_time": 35.76590909090909,
                "end_time": 35.85227272727273,
                "pitch": 42,
                "velocity": 80,
                "duration": 0.08636363636363598,
                "tempo": 120.0
            },
            {
                "start_time": 35.86818181818182,
                "end_time": 35.95454545454545,
                "pitch": 47,
                "velocity": 80,
                "duration": 0.08636363636363598,
                "tempo": 120.0
            },
            {
                "start_time": 35.97272727272727,
                "end_time": 36.05681818181818,
                "pitch": 46,
                "velocity": 80,
                "duration": 0.08409090909091077,
                "tempo": 120.0
            },
            {
                "start_time": 36.074999999999996,
                "end_time": 36.15681818181818,
                "pitch": 39,
                "velocity": 80,
                "duration": 0.08181818181818556,
                "tempo": 120.0
            },
            {
                "start_time": 36.17272727272727,
                "end_time": 36.25454545454545,
                "pitch": 42,
                "velocity": 80,
                "duration": 0.08181818181817846,
                "tempo": 120.0
            },
            {
                "start_time": 36.27045454545454,
                "end_time": 36.35227272727273,
                "pitch": 39,
                "velocity": 80,
                "duration": 0.08181818181818556,
                "tempo": 120.0
            },
            {
                "start_time": 36.36818181818182,
                "end_time": 36.449999999999996,
                "pitch": 43,
                "velocity": 80,
                "duration": 0.08181818181817846,
                "tempo": 120.0
            },
            {
                "start_time": 36.46818181818182,
                "end_time": 36.55227272727272,
                "pitch": 39,
                "velocity": 80,
                "duration": 0.08409090909090366,
                "tempo": 120.0
            },
            {
                "start_time": 36.56818181818181,
                "end_time": 36.654545454545456,
                "pitch": 42,
                "velocity": 80,
                "duration": 0.08636363636364308,
                "tempo": 120.0
            },
            {
                "start_time": 36.67272727272727,
                "end_time": 36.75681818181818,
                "pitch": 47,
                "velocity": 80,
                "duration": 0.08409090909091077,
                "tempo": 120.0
            },
            {
                "start_time": 36.775,
                "end_time": 36.85909090909091,
                "pitch": 46,
                "velocity": 80,
                "duration": 0.08409090909091077,
                "tempo": 120.0
            },
            {
                "start_time": 36.877272727272725,
                "end_time": 36.95909090909091,
                "pitch": 39,
                "velocity": 80,
                "duration": 0.08181818181818556,
                "tempo": 120.0
            },
            {
                "start_time": 36.975,
                "end_time": 37.05681818181818,
                "pitch": 42,
                "velocity": 80,
                "duration": 0.08181818181817846,
                "tempo": 120.0
            },
            {
                "start_time": 37.07272727272727,
                "end_time": 37.154545454545456,
                "pitch": 39,
                "velocity": 80,
                "duration": 0.08181818181818556,
                "tempo": 120.0
            },
            {
                "start_time": 37.17272727272727,
                "end_time": 37.25454545454545,
                "pitch": 43,
                "velocity": 80,
                "duration": 0.08181818181817846,
                "tempo": 120.0
            },
            {
                "start_time": 37.27045454545454,
                "end_time": 37.35454545454545,
                "pitch": 39,
                "velocity": 80,
                "duration": 0.08409090909091077,
                "tempo": 120.0
            },
            {
                "start_time": 37.37272727272727,
                "end_time": 37.45681818181818,
                "pitch": 42,
                "velocity": 80,
                "duration": 0.08409090909091077,
                "tempo": 120.0
            },
            {
                "start_time": 37.475,
                "end_time": 37.559090909090905,
                "pitch": 47,
                "velocity": 80,
                "duration": 0.08409090909090366,
                "tempo": 120.0
            },
            {
                "start_time": 37.57727272727273,
                "end_time": 37.663636363636364,
                "pitch": 46,
                "velocity": 80,
                "duration": 0.08636363636363598,
                "tempo": 120.0
            },
            {
                "start_time": 37.679545454545455,
                "end_time": 37.76363636363636,
                "pitch": 39,
                "velocity": 80,
                "duration": 0.08409090909090366,
                "tempo": 120.0
            },
            {
                "start_time": 37.779545454545456,
                "end_time": 37.86363636363636,
                "pitch": 42,
                "velocity": 80,
                "duration": 0.08409090909090366,
                "tempo": 120.0
            },
            {
                "start_time": 37.87954545454545,
                "end_time": 37.96363636363636,
                "pitch": 39,
                "velocity": 80,
                "duration": 0.08409090909091077,
                "tempo": 120.0
            },
            {
                "start_time": 37.97954545454545,
                "end_time": 38.06363636363636,
                "pitch": 43,
                "velocity": 80,
                "duration": 0.08409090909091077,
                "tempo": 120.0
            },
            {
                "start_time": 38.07954545454545,
                "end_time": 38.163636363636364,
                "pitch": 39,
                "velocity": 80,
                "duration": 0.08409090909091077,
                "tempo": 120.0
            },
            {
                "start_time": 38.179545454545455,
                "end_time": 38.26363636363636,
                "pitch": 42,
                "velocity": 80,
                "duration": 0.08409090909090366,
                "tempo": 120.0
            },
            {
                "start_time": 38.279545454545456,
                "end_time": 38.36363636363636,
                "pitch": 47,
                "velocity": 80,
                "duration": 0.08409090909090366,
                "tempo": 120.0
            },
            {
                "start_time": 38.37954545454545,
                "end_time": 38.46363636363636,
                "pitch": 46,
                "velocity": 80,
                "duration": 0.08409090909091077,
                "tempo": 120.0
            },
            {
                "start_time": 38.47954545454545,
                "end_time": 38.56136363636364,
                "pitch": 39,
                "velocity": 80,
                "duration": 0.08181818181818556,
                "tempo": 120.0
            },
            {
                "start_time": 38.57954545454545,
                "end_time": 38.66136363636363,
                "pitch": 42,
                "velocity": 80,
                "duration": 0.08181818181817846,
                "tempo": 120.0
            },
            {
                "start_time": 38.67727272727272,
                "end_time": 38.75909090909091,
                "pitch": 39,
                "velocity": 80,
                "duration": 0.08181818181818556,
                "tempo": 120.0
            },
            {
                "start_time": 38.775,
                "end_time": 38.85681818181818,
                "pitch": 43,
                "velocity": 80,
                "duration": 0.08181818181817846,
                "tempo": 120.0
            },
            {
                "start_time": 38.87272727272727,
                "end_time": 38.95681818181818,
                "pitch": 39,
                "velocity": 80,
                "duration": 0.08409090909091077,
                "tempo": 120.0
            },
            {
                "start_time": 38.975,
                "end_time": 39.06136363636364,
                "pitch": 42,
                "velocity": 80,
                "duration": 0.08636363636363598,
                "tempo": 120.0
            },
            {
                "start_time": 39.07727272727273,
                "end_time": 39.095454545454544,
                "pitch": 47,
                "velocity": 80,
                "duration": 0.018181818181815856,
                "tempo": 120.0
            },
            {
                "start_time": 39.111363636363635,
                "end_time": 39.163636363636364,
                "pitch": 46,
                "velocity": 80,
                "duration": 0.05227272727272947,
                "tempo": 120.0
            },
            {
                "start_time": 39.179545454545455,
                "end_time": 39.26590909090909,
                "pitch": 46,
                "velocity": 80,
                "duration": 0.08636363636363598,
                "tempo": 120.0
            },
            {
                "start_time": 39.28181818181818,
                "end_time": 39.36590909090909,
                "pitch": 39,
                "velocity": 80,
                "duration": 0.08409090909091077,
                "tempo": 120.0
            },
            {
                "start_time": 39.38409090909091,
                "end_time": 39.465909090909086,
                "pitch": 42,
                "velocity": 80,
                "duration": 0.08181818181817846,
                "tempo": 120.0
            },
            {
                "start_time": 39.48409090909091,
                "end_time": 39.56590909090909,
                "pitch": 39,
                "velocity": 80,
                "duration": 0.08181818181817846,
                "tempo": 120.0
            },
            {
                "start_time": 39.584090909090904,
                "end_time": 39.66590909090909,
                "pitch": 43,
                "velocity": 80,
                "duration": 0.08181818181818556,
                "tempo": 120.0
            },
            {
                "start_time": 39.684090909090905,
                "end_time": 39.76590909090909,
                "pitch": 39,
                "velocity": 80,
                "duration": 0.08181818181818556,
                "tempo": 120.0
            },
            {
                "start_time": 39.78409090909091,
                "end_time": 39.86590909090909,
                "pitch": 42,
                "velocity": 80,
                "duration": 0.08181818181818556,
                "tempo": 120.0
            },
            {
                "start_time": 39.88409090909091,
                "end_time": 39.965909090909086,
                "pitch": 47,
                "velocity": 80,
                "duration": 0.08181818181817846,
                "tempo": 120.0
            },
            {
                "start_time": 39.98409090909091,
                "end_time": 40.06590909090909,
                "pitch": 46,
                "velocity": 80,
                "duration": 0.08181818181817846,
                "tempo": 120.0
            },
            {
                "start_time": 40.084090909090904,
                "end_time": 40.12045454545454,
                "pitch": 37,
                "velocity": 80,
                "duration": 0.03636363636363882,
                "tempo": 120.0
            }
        ],
        "Harpsichord": [
            {
                "start_time": 0.0,
                "end_time": 0.03409090909090909,
                "pitch": 75,
                "velocity": 64,
                "duration": 0.03409090909090909,
                "tempo": 120.0
            },
            {
                "start_time": 0.049999999999999996,
                "end_time": 0.1340909090909091,
                "pitch": 78,
                "velocity": 64,
                "duration": 0.0840909090909091,
                "tempo": 120.0
            },
            {
                "start_time": 0.15,
                "end_time": 0.23409090909090907,
                "pitch": 75,
                "velocity": 64,
                "duration": 0.08409090909090908,
                "tempo": 120.0
            },
            {
                "start_time": 0.25,
                "end_time": 0.33409090909090905,
                "pitch": 79,
                "velocity": 64,
                "duration": 0.08409090909090905,
                "tempo": 120.0
            },
            {
                "start_time": 0.35,
                "end_time": 0.4340909090909091,
                "pitch": 75,
                "velocity": 64,
                "duration": 0.0840909090909091,
                "tempo": 120.0
            },
            {
                "start_time": 0.44999999999999996,
                "end_time": 0.5340909090909091,
                "pitch": 78,
                "velocity": 64,
                "duration": 0.0840909090909091,
                "tempo": 120.0
            },
            {
                "start_time": 0.5499999999999999,
                "end_time": 0.634090909090909,
                "pitch": 83,
                "velocity": 64,
                "duration": 0.0840909090909091,
                "tempo": 120.0
            },
            {
                "start_time": 0.65,
                "end_time": 0.734090909090909,
                "pitch": 82,
                "velocity": 64,
                "duration": 0.084090909090909,
                "tempo": 120.0
            },
            {
                "start_time": 0.75,
                "end_time": 0.8340909090909091,
                "pitch": 75,
                "velocity": 64,
                "duration": 0.0840909090909091,
                "tempo": 120.0
            },
            {
                "start_time": 0.85,
                "end_time": 0.9340909090909091,
                "pitch": 78,
                "velocity": 64,
                "duration": 0.0840909090909091,
                "tempo": 120.0
            },
            {
                "start_time": 0.95,
                "end_time": 1.034090909090909,
                "pitch": 75,
                "velocity": 64,
                "duration": 0.084090909090909,
                "tempo": 120.0
            },
            {
                "start_time": 1.05,
                "end_time": 1.134090909090909,
                "pitch": 79,
                "velocity": 64,
                "duration": 0.084090909090909,
                "tempo": 120.0
            },
            {
                "start_time": 1.15,
                "end_time": 1.2340909090909091,
                "pitch": 75,
                "velocity": 64,
                "duration": 0.08409090909090922,
                "tempo": 120.0
            },
            {
                "start_time": 1.2522727272727272,
                "end_time": 1.3386363636363636,
                "pitch": 78,
                "velocity": 64,
                "duration": 0.08636363636363642,
                "tempo": 120.0
            },
            {
                "start_time": 1.3545454545454545,
                "end_time": 1.440909090909091,
                "pitch": 83,
                "velocity": 64,
                "duration": 0.08636363636363642,
                "tempo": 120.0
            },
            {
                "start_time": 1.4568181818181818,
                "end_time": 1.5431818181818182,
                "pitch": 82,
                "velocity": 64,
                "duration": 0.08636363636363642,
                "tempo": 120.0
            },
            {
                "start_time": 1.5613636363636363,
                "end_time": 1.643181818181818,
                "pitch": 75,
                "velocity": 64,
                "duration": 0.08181818181818179,
                "tempo": 120.0
            },
            {
                "start_time": 1.659090909090909,
                "end_time": 1.7409090909090907,
                "pitch": 78,
                "velocity": 64,
                "duration": 0.08181818181818179,
                "tempo": 120.0
            },
            {
                "start_time": 1.7568181818181818,
                "end_time": 1.8386363636363636,
                "pitch": 75,
                "velocity": 64,
                "duration": 0.08181818181818179,
                "tempo": 120.0
            },
            {
                "start_time": 1.8545454545454545,
                "end_time": 1.9363636363636363,
                "pitch": 79,
                "velocity": 64,
                "duration": 0.08181818181818179,
                "tempo": 120.0
            },
            {
                "start_time": 1.9522727272727272,
                "end_time": 2.0386363636363636,
                "pitch": 75,
                "velocity": 64,
                "duration": 0.08636363636363642,
                "tempo": 120.0
            },
            {
                "start_time": 2.0545454545454542,
                "end_time": 2.1409090909090907,
                "pitch": 78,
                "velocity": 64,
                "duration": 0.08636363636363642,
                "tempo": 120.0
            },
            {
                "start_time": 2.1568181818181817,
                "end_time": 2.243181818181818,
                "pitch": 83,
                "velocity": 64,
                "duration": 0.08636363636363642,
                "tempo": 120.0
            },
            {
                "start_time": 2.2613636363636362,
                "end_time": 2.3454545454545452,
                "pitch": 82,
                "velocity": 64,
                "duration": 0.084090909090909,
                "tempo": 120.0
            },
            {
                "start_time": 2.3636363636363633,
                "end_time": 2.4477272727272728,
                "pitch": 75,
                "velocity": 64,
                "duration": 0.08409090909090944,
                "tempo": 120.0
            },
            {
                "start_time": 2.4636363636363634,
                "end_time": 2.5477272727272724,
                "pitch": 78,
                "velocity": 64,
                "duration": 0.084090909090909,
                "tempo": 120.0
            },
            {
                "start_time": 2.565909090909091,
                "end_time": 2.6477272727272725,
                "pitch": 75,
                "velocity": 64,
                "duration": 0.08181818181818157,
                "tempo": 120.0
            },
            {
                "start_time": 2.6659090909090906,
                "end_time": 2.75,
                "pitch": 79,
                "velocity": 64,
                "duration": 0.08409090909090944,
                "tempo": 120.0
            },
            {
                "start_time": 2.7659090909090907,
                "end_time": 2.8499999999999996,
                "pitch": 75,
                "velocity": 64,
                "duration": 0.084090909090909,
                "tempo": 120.0
            },
            {
                "start_time": 2.8659090909090907,
                "end_time": 2.9499999999999997,
                "pitch": 78,
                "velocity": 64,
                "duration": 0.084090909090909,
                "tempo": 120.0
            },
            {
                "start_time": 2.965909090909091,
                "end_time": 3.05,
                "pitch": 83,
                "velocity": 64,
                "duration": 0.084090909090909,
                "tempo": 120.0
            },
            {
                "start_time": 3.065909090909091,
                "end_time": 3.15,
                "pitch": 82,
                "velocity": 64,
                "duration": 0.084090909090909,
                "tempo": 120.0
            },
            {
                "start_time": 3.1659090909090906,
                "end_time": 3.2477272727272726,
                "pitch": 75,
                "velocity": 64,
                "duration": 0.08181818181818201,
                "tempo": 120.0
            },
            {
                "start_time": 3.2636363636363637,
                "end_time": 3.3454545454545452,
                "pitch": 78,
                "velocity": 64,
                "duration": 0.08181818181818157,
                "tempo": 120.0
            },
            {
                "start_time": 3.3636363636363633,
                "end_time": 3.443181818181818,
                "pitch": 75,
                "velocity": 64,
                "duration": 0.07954545454545459,
                "tempo": 120.0
            },
            {
                "start_time": 3.461363636363636,
                "end_time": 3.543181818181818,
                "pitch": 79,
                "velocity": 64,
                "duration": 0.08181818181818201,
                "tempo": 120.0
            },
            {
                "start_time": 3.559090909090909,
                "end_time": 3.643181818181818,
                "pitch": 75,
                "velocity": 64,
                "duration": 0.084090909090909,
                "tempo": 120.0
            },
            {
                "start_time": 3.661363636363636,
                "end_time": 3.745454545454545,
                "pitch": 78,
                "velocity": 64,
                "duration": 0.084090909090909,
                "tempo": 120.0
            },
            {
                "start_time": 3.7636363636363637,
                "end_time": 3.8477272727272727,
                "pitch": 83,
                "velocity": 64,
                "duration": 0.084090909090909,
                "tempo": 120.0
            },
            {
                "start_time": 3.8659090909090907,
                "end_time": 3.952272727272727,
                "pitch": 82,
                "velocity": 64,
                "duration": 0.08636363636363642,
                "tempo": 120.0
            },
            {
                "start_time": 3.968181818181818,
                "end_time": 4.05,
                "pitch": 75,
                "velocity": 64,
                "duration": 0.08181818181818201,
                "tempo": 120.0
            },
            {
                "start_time": 4.068181818181818,
                "end_time": 4.1499999999999995,
                "pitch": 78,
                "velocity": 64,
                "duration": 0.08181818181818112,
                "tempo": 120.0
            },
            {
                "start_time": 4.165909090909091,
                "end_time": 4.247727272727272,
                "pitch": 75,
                "velocity": 64,
                "duration": 0.08181818181818112,
                "tempo": 120.0
            },
            {
                "start_time": 4.263636363636364,
                "end_time": 4.345454545454546,
                "pitch": 79,
                "velocity": 64,
                "duration": 0.08181818181818201,
                "tempo": 120.0
            },
            {
                "start_time": 4.361363636363636,
                "end_time": 4.445454545454545,
                "pitch": 75,
                "velocity": 64,
                "duration": 0.084090909090909,
                "tempo": 120.0
            },
            {
                "start_time": 4.463636363636364,
                "end_time": 4.547727272727273,
                "pitch": 78,
                "velocity": 64,
                "duration": 0.084090909090909,
                "tempo": 120.0
            },
            {
                "start_time": 4.5659090909090905,
                "end_time": 4.652272727272727,
                "pitch": 83,
                "velocity": 64,
                "duration": 0.08636363636363686,
                "tempo": 120.0
            },
            {
                "start_time": 4.668181818181818,
                "end_time": 4.754545454545454,
                "pitch": 82,
                "velocity": 64,
                "duration": 0.08636363636363598,
                "tempo": 120.0
            },
            {
                "start_time": 4.7704545454545455,
                "end_time": 4.8545454545454545,
                "pitch": 75,
                "velocity": 64,
                "duration": 0.084090909090909,
                "tempo": 120.0
            },
            {
                "start_time": 4.870454545454545,
                "end_time": 4.952272727272727,
                "pitch": 78,
                "velocity": 64,
                "duration": 0.08181818181818201,
                "tempo": 120.0
            },
            {
                "start_time": 4.968181818181818,
                "end_time": 5.05,
                "pitch": 75,
                "velocity": 64,
                "duration": 0.08181818181818201,
                "tempo": 120.0
            },
            {
                "start_time": 5.0659090909090905,
                "end_time": 5.1477272727272725,
                "pitch": 79,
                "velocity": 64,
                "duration": 0.08181818181818201,
                "tempo": 120.0
            },
            {
                "start_time": 5.163636363636363,
                "end_time": 5.247727272727272,
                "pitch": 75,
                "velocity": 64,
                "duration": 0.084090909090909,
                "tempo": 120.0
            },
            {
                "start_time": 5.265909090909091,
                "end_time": 5.352272727272727,
                "pitch": 78,
                "velocity": 64,
                "duration": 0.08636363636363598,
                "tempo": 120.0
            },
            {
                "start_time": 5.368181818181818,
                "end_time": 5.454545454545454,
                "pitch": 83,
                "velocity": 64,
                "duration": 0.08636363636363598,
                "tempo": 120.0
            },
            {
                "start_time": 5.470454545454545,
                "end_time": 5.556818181818182,
                "pitch": 82,
                "velocity": 64,
                "duration": 0.08636363636363686,
                "tempo": 120.0
            },
            {
                "start_time": 5.574999999999999,
                "end_time": 5.659090909090909,
                "pitch": 75,
                "velocity": 64,
                "duration": 0.08409090909090988,
                "tempo": 120.0
            },
            {
                "start_time": 5.675,
                "end_time": 5.759090909090909,
                "pitch": 78,
                "velocity": 64,
                "duration": 0.084090909090909,
                "tempo": 120.0
            },
            {
                "start_time": 5.7749999999999995,
                "end_time": 5.8590909090909085,
                "pitch": 75,
                "velocity": 64,
                "duration": 0.084090909090909,
                "tempo": 120.0
            },
            {
                "start_time": 5.877272727272727,
                "end_time": 5.961363636363636,
                "pitch": 79,
                "velocity": 64,
                "duration": 0.084090909090909,
                "tempo": 120.0
            },
            {
                "start_time": 5.977272727272727,
                "end_time": 6.0613636363636365,
                "pitch": 75,
                "velocity": 64,
                "duration": 0.08409090909090988,
                "tempo": 120.0
            },
            {
                "start_time": 6.077272727272727,
                "end_time": 6.161363636363636,
                "pitch": 78,
                "velocity": 64,
                "duration": 0.084090909090909,
                "tempo": 120.0
            },
            {
                "start_time": 6.177272727272727,
                "end_time": 6.261363636363636,
                "pitch": 83,
                "velocity": 64,
                "duration": 0.084090909090909,
                "tempo": 120.0
            },
            {
                "start_time": 6.277272727272727,
                "end_time": 6.361363636363636,
                "pitch": 82,
                "velocity": 64,
                "duration": 0.084090909090909,
                "tempo": 120.0
            },
            {
                "start_time": 6.377272727272727,
                "end_time": 6.406818181818181,
                "pitch": 85,
                "velocity": 64,
                "duration": 0.02954545454545432,
                "tempo": 120.0
            },
            {
                "start_time": 6.406818181818181,
                "end_time": 6.461363636363636,
                "pitch": 85,
                "velocity": 64,
                "duration": 0.054545454545454675,
                "tempo": 120.0
            },
            {
                "start_time": 6.477272727272727,
                "end_time": 6.561363636363636,
                "pitch": 85,
                "velocity": 64,
                "duration": 0.084090909090909,
                "tempo": 120.0
            },
            {
                "start_time": 6.577272727272727,
                "end_time": 6.661363636363636,
                "pitch": 90,
                "velocity": 64,
                "duration": 0.084090909090909,
                "tempo": 120.0
            },
            {
                "start_time": 6.679545454545454,
                "end_time": 6.763636363636364,
                "pitch": 85,
                "velocity": 64,
                "duration": 0.08409090909090988,
                "tempo": 120.0
            },
            {
                "start_time": 6.779545454545454,
                "end_time": 6.86590909090909,
                "pitch": 92,
                "velocity": 64,
                "duration": 0.08636363636363598,
                "tempo": 120.0
            },
            {
                "start_time": 6.884090909090909,
                "end_time": 6.975,
                "pitch": 85,
                "velocity": 64,
                "duration": 0.09090909090909083,
                "tempo": 120.0
            },
            {
                "start_time": 6.99090909090909,
                "end_time": 7.081818181818181,
                "pitch": 85,
                "velocity": 64,
                "duration": 0.09090909090909083,
                "tempo": 120.0
            },
            {
                "start_time": 7.1,
                "end_time": 7.1909090909090905,
                "pitch": 85,
                "velocity": 64,
                "duration": 0.09090909090909083,
                "tempo": 120.0
            },
            {
                "start_time": 7.206818181818181,
                "end_time": 7.293181818181818,
                "pitch": 90,
                "velocity": 64,
                "duration": 0.08636363636363686,
                "tempo": 120.0
            },
            {
                "start_time": 7.309090909090909,
                "end_time": 7.390909090909091,
                "pitch": 85,
                "velocity": 64,
                "duration": 0.08181818181818201,
                "tempo": 120.0
            },
            {
                "start_time": 7.406818181818181,
                "end_time": 7.488636363636363,
                "pitch": 85,
                "velocity": 64,
                "duration": 0.08181818181818201,
                "tempo": 120.0
            },
            {
                "start_time": 7.506818181818182,
                "end_time": 7.588636363636363,
                "pitch": 92,
                "velocity": 64,
                "duration": 0.08181818181818112,
                "tempo": 120.0
            },
            {
                "start_time": 7.6045454545454545,
                "end_time": 7.686363636363636,
                "pitch": 85,
                "velocity": 64,
                "duration": 0.08181818181818112,
                "tempo": 120.0
            },
            {
                "start_time": 7.704545454545454,
                "end_time": 7.79090909090909,
                "pitch": 85,
                "velocity": 64,
                "duration": 0.08636363636363598,
                "tempo": 120.0
            },
            {
                "start_time": 7.806818181818182,
                "end_time": 7.893181818181818,
                "pitch": 90,
                "velocity": 64,
                "duration": 0.08636363636363598,
                "tempo": 120.0
            },
            {
                "start_time": 7.909090909090908,
                "end_time": 7.995454545454545,
                "pitch": 92,
                "velocity": 64,
                "duration": 0.08636363636363686,
                "tempo": 120.0
            },
            {
                "start_time": 8.011363636363637,
                "end_time": 8.097727272727273,
                "pitch": 85,
                "velocity": 64,
                "duration": 0.08636363636363598,
                "tempo": 120.0
            },
            {
                "start_time": 8.113636363636363,
                "end_time": 8.197727272727272,
                "pitch": 85,
                "velocity": 64,
                "duration": 0.084090909090909,
                "tempo": 120.0
            },
            {
                "start_time": 8.21590909090909,
                "end_time": 8.297727272727272,
                "pitch": 90,
                "velocity": 64,
                "duration": 0.08181818181818201,
                "tempo": 120.0
            },
            {
                "start_time": 8.315909090909091,
                "end_time": 8.4,
                "pitch": 85,
                "velocity": 64,
                "duration": 0.084090909090909,
                "tempo": 120.0
            },
            {
                "start_time": 8.415909090909091,
                "end_time": 8.5,
                "pitch": 92,
                "velocity": 64,
                "duration": 0.084090909090909,
                "tempo": 120.0
            },
            {
                "start_time": 8.51590909090909,
                "end_time": 8.6,
                "pitch": 85,
                "velocity": 64,
                "duration": 0.084090909090909,
                "tempo": 120.0
            },
            {
                "start_time": 8.618181818181817,
                "end_time": 8.702272727272726,
                "pitch": 85,
                "velocity": 64,
                "duration": 0.084090909090909,
                "tempo": 120.0
            },
            {
                "start_time": 8.718181818181817,
                "end_time": 8.802272727272728,
                "pitch": 85,
                "velocity": 64,
                "duration": 0.08409090909091077,
                "tempo": 120.0
            },
            {
                "start_time": 8.818181818181818,
                "end_time": 8.902272727272727,
                "pitch": 90,
                "velocity": 64,
                "duration": 0.084090909090909,
                "tempo": 120.0
            },
            {
                "start_time": 8.918181818181818,
                "end_time": 9.0,
                "pitch": 85,
                "velocity": 64,
                "duration": 0.08181818181818201,
                "tempo": 120.0
            },
            {
                "start_time": 9.01590909090909,
                "end_time": 9.097727272727273,
                "pitch": 85,
                "velocity": 64,
                "duration": 0.08181818181818201,
                "tempo": 120.0
            },
            {
                "start_time": 9.113636363636363,
                "end_time": 9.195454545454545,
                "pitch": 92,
                "velocity": 64,
                "duration": 0.08181818181818201,
                "tempo": 120.0
            },
            {
                "start_time": 9.211363636363636,
                "end_time": 9.295454545454545,
                "pitch": 85,
                "velocity": 64,
                "duration": 0.084090909090909,
                "tempo": 120.0
            },
            {
                "start_time": 9.311363636363636,
                "end_time": 9.397727272727272,
                "pitch": 85,
                "velocity": 64,
                "duration": 0.08636363636363598,
                "tempo": 120.0
            },
            {
                "start_time": 9.415909090909091,
                "end_time": 9.5,
                "pitch": 90,
                "velocity": 64,
                "duration": 0.084090909090909,
                "tempo": 120.0
            },
            {
                "start_time": 9.518181818181818,
                "end_time": 9.604545454545454,
                "pitch": 92,
                "velocity": 64,
                "duration": 0.08636363636363598,
                "tempo": 120.0
            },
            {
                "start_time": 9.620454545454544,
                "end_time": 9.702272727272726,
                "pitch": 85,
                "velocity": 64,
                "duration": 0.08181818181818201,
                "tempo": 120.0
            },
            {
                "start_time": 9.718181818181817,
                "end_time": 9.797727272727272,
                "pitch": 85,
                "velocity": 64,
                "duration": 0.07954545454545503,
                "tempo": 120.0
            },
            {
                "start_time": 9.813636363636363,
                "end_time": 9.893181818181818,
                "pitch": 90,
                "velocity": 64,
                "duration": 0.07954545454545503,
                "tempo": 120.0
            },
            {
                "start_time": 9.909090909090908,
                "end_time": 9.988636363636363,
                "pitch": 85,
                "velocity": 64,
                "duration": 0.07954545454545503,
                "tempo": 120.0
            },
            {
                "start_time": 10.004545454545454,
                "end_time": 10.088636363636363,
                "pitch": 92,
                "velocity": 64,
                "duration": 0.084090909090909,
                "tempo": 120.0
            },
            {
                "start_time": 10.104545454545454,
                "end_time": 10.193181818181818,
                "pitch": 85,
                "velocity": 64,
                "duration": 0.08863636363636473,
                "tempo": 120.0
            },
            {
                "start_time": 10.211363636363636,
                "end_time": 10.299999999999999,
                "pitch": 85,
                "velocity": 64,
                "duration": 0.08863636363636296,
                "tempo": 120.0
            },
            {
                "start_time": 10.31590909090909,
                "end_time": 10.404545454545454,
                "pitch": 85,
                "velocity": 64,
                "duration": 0.08863636363636473,
                "tempo": 120.0
            },
            {
                "start_time": 10.422727272727272,
                "end_time": 10.506818181818181,
                "pitch": 90,
                "velocity": 64,
                "duration": 0.084090909090909,
                "tempo": 120.0
            },
            {
                "start_time": 10.522727272727272,
                "end_time": 10.604545454545454,
                "pitch": 85,
                "velocity": 64,
                "duration": 0.08181818181818201,
                "tempo": 120.0
            },
            {
                "start_time": 10.622727272727273,
                "end_time": 10.702272727272726,
                "pitch": 85,
                "velocity": 64,
                "duration": 0.07954545454545325,
                "tempo": 120.0
            },
            {
                "start_time": 10.720454545454546,
                "end_time": 10.802272727272726,
                "pitch": 92,
                "velocity": 64,
                "duration": 0.08181818181818024,
                "tempo": 120.0
            },
            {
                "start_time": 10.818181818181818,
                "end_time": 10.9,
                "pitch": 85,
                "velocity": 64,
                "duration": 0.08181818181818201,
                "tempo": 120.0
            },
            {
                "start_time": 10.918181818181818,
                "end_time": 11.004545454545454,
                "pitch": 85,
                "velocity": 64,
                "duration": 0.08636363636363598,
                "tempo": 120.0
            },
            {
                "start_time": 11.020454545454545,
                "end_time": 11.10681818181818,
                "pitch": 90,
                "velocity": 64,
                "duration": 0.08636363636363598,
                "tempo": 120.0
            },
            {
                "start_time": 11.122727272727273,
                "end_time": 11.209090909090909,
                "pitch": 92,
                "velocity": 64,
                "duration": 0.08636363636363598,
                "tempo": 120.0
            },
            {
                "start_time": 11.227272727272727,
                "end_time": 11.309090909090909,
                "pitch": 85,
                "velocity": 64,
                "duration": 0.08181818181818201,
                "tempo": 120.0
            },
            {
                "start_time": 11.327272727272726,
                "end_time": 11.406818181818181,
                "pitch": 85,
                "velocity": 64,
                "duration": 0.07954545454545503,
                "tempo": 120.0
            },
            {
                "start_time": 11.424999999999999,
                "end_time": 11.506818181818181,
                "pitch": 90,
                "velocity": 64,
                "duration": 0.08181818181818201,
                "tempo": 120.0
            },
            {
                "start_time": 11.522727272727272,
                "end_time": 11.604545454545454,
                "pitch": 85,
                "velocity": 64,
                "duration": 0.08181818181818201,
                "tempo": 120.0
            },
            {
                "start_time": 11.620454545454544,
                "end_time": 11.704545454545453,
                "pitch": 92,
                "velocity": 64,
                "duration": 0.084090909090909,
                "tempo": 120.0
            },
            {
                "start_time": 11.720454545454546,
                "end_time": 11.806818181818182,
                "pitch": 85,
                "velocity": 64,
                "duration": 0.08636363636363598,
                "tempo": 120.0
            },
            {
                "start_time": 11.822727272727272,
                "end_time": 11.909090909090908,
                "pitch": 85,
                "velocity": 64,
                "duration": 0.08636363636363598,
                "tempo": 120.0
            },
            {
                "start_time": 11.927272727272726,
                "end_time": 12.011363636363635,
                "pitch": 85,
                "velocity": 64,
                "duration": 0.084090909090909,
                "tempo": 120.0
            },
            {
                "start_time": 12.029545454545454,
                "end_time": 12.113636363636363,
                "pitch": 90,
                "velocity": 64,
                "duration": 0.084090909090909,
                "tempo": 120.0
            },
            {
                "start_time": 12.129545454545454,
                "end_time": 12.211363636363636,
                "pitch": 85,
                "velocity": 64,
                "duration": 0.08181818181818201,
                "tempo": 120.0
            },
            {
                "start_time": 12.227272727272727,
                "end_time": 12.309090909090909,
                "pitch": 85,
                "velocity": 64,
                "duration": 0.08181818181818201,
                "tempo": 120.0
            },
            {
                "start_time": 12.325,
                "end_time": 12.406818181818181,
                "pitch": 92,
                "velocity": 64,
                "duration": 0.08181818181818201,
                "tempo": 120.0
            },
            {
                "start_time": 12.422727272727272,
                "end_time": 12.506818181818181,
                "pitch": 85,
                "velocity": 64,
                "duration": 0.084090909090909,
                "tempo": 120.0
            },
            {
                "start_time": 12.522727272727272,
                "end_time": 12.60681818181818,
                "pitch": 85,
                "velocity": 64,
                "duration": 0.084090909090909,
                "tempo": 120.0
            },
            {
                "start_time": 12.622727272727271,
                "end_time": 12.706818181818182,
                "pitch": 90,
                "velocity": 64,
                "duration": 0.08409090909091077,
                "tempo": 120.0
            },
            {
                "start_time": 12.725,
                "end_time": 12.806818181818182,
                "pitch": 92,
                "velocity": 64,
                "duration": 0.08181818181818201,
                "tempo": 120.0
            },
            {
                "start_time": 12.825,
                "end_time": 12.906818181818181,
                "pitch": 85,
                "velocity": 64,
                "duration": 0.08181818181818201,
                "tempo": 120.0
            },
            {
                "start_time": 12.922727272727272,
                "end_time": 13.004545454545454,
                "pitch": 85,
                "velocity": 64,
                "duration": 0.08181818181818201,
                "tempo": 120.0
            },
            {
                "start_time": 13.020454545454545,
                "end_time": 13.102272727272727,
                "pitch": 90,
                "velocity": 64,
                "duration": 0.08181818181818201,
                "tempo": 120.0
            },
            {
                "start_time": 13.120454545454544,
                "end_time": 13.202272727272726,
                "pitch": 85,
                "velocity": 64,
                "duration": 0.08181818181818201,
                "tempo": 120.0
            },
            {
                "start_time": 13.218181818181817,
                "end_time": 13.302272727272726,
                "pitch": 92,
                "velocity": 64,
                "duration": 0.084090909090909,
                "tempo": 120.0
            },
            {
                "start_time": 13.320454545454545,
                "end_time": 13.406818181818181,
                "pitch": 85,
                "velocity": 64,
                "duration": 0.08636363636363598,
                "tempo": 120.0
            },
            {
                "start_time": 13.424999999999999,
                "end_time": 13.513636363636364,
                "pitch": 85,
                "velocity": 64,
                "duration": 0.08863636363636473,
                "tempo": 120.0
            },
            {
                "start_time": 13.531818181818181,
                "end_time": 13.618181818181817,
                "pitch": 85,
                "velocity": 64,
                "duration": 0.08636363636363598,
                "tempo": 120.0
            },
            {
                "start_time": 13.636363636363635,
                "end_time": 13.720454545454544,
                "pitch": 90,
                "velocity": 64,
                "duration": 0.084090909090909,
                "tempo": 120.0
            },
            {
                "start_time": 13.736363636363636,
                "end_time": 13.818181818181818,
                "pitch": 85,
                "velocity": 64,
                "duration": 0.08181818181818201,
                "tempo": 120.0
            },
            {
                "start_time": 13.836363636363636,
                "end_time": 13.918181818181818,
                "pitch": 85,
                "velocity": 64,
                "duration": 0.08181818181818201,
                "tempo": 120.0
            },
            {
                "start_time": 13.934090909090909,
                "end_time": 14.01590909090909,
                "pitch": 92,
                "velocity": 64,
                "duration": 0.08181818181818201,
                "tempo": 120.0
            },
            {
                "start_time": 14.031818181818181,
                "end_time": 14.11590909090909,
                "pitch": 85,
                "velocity": 64,
                "duration": 0.084090909090909,
                "tempo": 120.0
            },
            {
                "start_time": 14.131818181818181,
                "end_time": 14.218181818181817,
                "pitch": 85,
                "velocity": 64,
                "duration": 0.08636363636363598,
                "tempo": 120.0
            },
            {
                "start_time": 14.234090909090908,
                "end_time": 14.320454545454545,
                "pitch": 90,
                "velocity": 64,
                "duration": 0.08636363636363775,
                "tempo": 120.0
            },
            {
                "start_time": 14.336363636363636,
                "end_time": 14.422727272727272,
                "pitch": 92,
                "velocity": 64,
                "duration": 0.08636363636363598,
                "tempo": 120.0
            },
            {
                "start_time": 14.44090909090909,
                "end_time": 14.522727272727272,
                "pitch": 85,
                "velocity": 64,
                "duration": 0.08181818181818201,
                "tempo": 120.0
            },
            {
                "start_time": 14.540909090909091,
                "end_time": 14.622727272727271,
                "pitch": 85,
                "velocity": 64,
                "duration": 0.08181818181818024,
                "tempo": 120.0
            },
            {
                "start_time": 14.638636363636364,
                "end_time": 14.720454545454544,
                "pitch": 90,
                "velocity": 64,
                "duration": 0.08181818181818024,
                "tempo": 120.0
            },
            {
                "start_time": 14.736363636363636,
                "end_time": 14.818181818181818,
                "pitch": 85,
                "velocity": 64,
                "duration": 0.08181818181818201,
                "tempo": 120.0
            },
            {
                "start_time": 14.834090909090909,
                "end_time": 14.918181818181818,
                "pitch": 92,
                "velocity": 64,
                "duration": 0.084090909090909,
                "tempo": 120.0
            },
            {
                "start_time": 14.934090909090909,
                "end_time": 15.020454545454545,
                "pitch": 85,
                "velocity": 64,
                "duration": 0.08636363636363598,
                "tempo": 120.0
            },
            {
                "start_time": 15.036363636363635,
                "end_time": 15.122727272727271,
                "pitch": 85,
                "velocity": 64,
                "duration": 0.08636363636363598,
                "tempo": 120.0
            },
            {
                "start_time": 15.14090909090909,
                "end_time": 15.225,
                "pitch": 85,
                "velocity": 64,
                "duration": 0.084090909090909,
                "tempo": 120.0
            },
            {
                "start_time": 15.243181818181817,
                "end_time": 15.327272727272726,
                "pitch": 90,
                "velocity": 64,
                "duration": 0.084090909090909,
                "tempo": 120.0
            },
            {
                "start_time": 15.343181818181817,
                "end_time": 15.424999999999999,
                "pitch": 85,
                "velocity": 64,
                "duration": 0.08181818181818201,
                "tempo": 120.0
            },
            {
                "start_time": 15.44090909090909,
                "end_time": 15.522727272727272,
                "pitch": 85,
                "velocity": 64,
                "duration": 0.08181818181818201,
                "tempo": 120.0
            },
            {
                "start_time": 15.538636363636362,
                "end_time": 15.620454545454544,
                "pitch": 92,
                "velocity": 64,
                "duration": 0.08181818181818201,
                "tempo": 120.0
            },
            {
                "start_time": 15.636363636363635,
                "end_time": 15.720454545454544,
                "pitch": 85,
                "velocity": 64,
                "duration": 0.084090909090909,
                "tempo": 120.0
            },
            {
                "start_time": 15.736363636363636,
                "end_time": 15.822727272727272,
                "pitch": 85,
                "velocity": 64,
                "duration": 0.08636363636363598,
                "tempo": 120.0
            },
            {
                "start_time": 15.84090909090909,
                "end_time": 15.924999999999999,
                "pitch": 90,
                "velocity": 64,
                "duration": 0.084090909090909,
                "tempo": 120.0
            },
            {
                "start_time": 15.943181818181817,
                "end_time": 16.027272727272727,
                "pitch": 92,
                "velocity": 64,
                "duration": 0.08409090909091077,
                "tempo": 120.0
            },
            {
                "start_time": 16.045454545454543,
                "end_time": 16.127272727272725,
                "pitch": 85,
                "velocity": 64,
                "duration": 0.08181818181818201,
                "tempo": 120.0
            },
            {
                "start_time": 16.143181818181816,
                "end_time": 16.222727272727273,
                "pitch": 85,
                "velocity": 64,
                "duration": 0.0795454545454568,
                "tempo": 120.0
            },
            {
                "start_time": 16.238636363636363,
                "end_time": 16.318181818181817,
                "pitch": 90,
                "velocity": 64,
                "duration": 0.07954545454545325,
                "tempo": 120.0
            },
            {
                "start_time": 16.334090909090907,
                "end_time": 16.413636363636364,
                "pitch": 85,
                "velocity": 64,
                "duration": 0.0795454545454568,
                "tempo": 120.0
            },
            {
                "start_time": 16.429545454545455,
                "end_time": 16.513636363636362,
                "pitch": 92,
                "velocity": 64,
                "duration": 0.08409090909090722,
                "tempo": 120.0
            },
            {
                "start_time": 16.529545454545453,
                "end_time": 16.618181818181817,
                "pitch": 85,
                "velocity": 64,
                "duration": 0.08863636363636473,
                "tempo": 120.0
            },
            {
                "start_time": 16.636363636363637,
                "end_time": 16.724999999999998,
                "pitch": 85,
                "velocity": 64,
                "duration": 0.08863636363636118,
                "tempo": 120.0
            },
            {
                "start_time": 16.74090909090909,
                "end_time": 16.829545454545453,
                "pitch": 85,
                "velocity": 64,
                "duration": 0.08863636363636473,
                "tempo": 120.0
            },
            {
                "start_time": 16.847727272727273,
                "end_time": 16.93181818181818,
                "pitch": 90,
                "velocity": 64,
                "duration": 0.08409090909090722,
                "tempo": 120.0
            },
            {
                "start_time": 16.94772727272727,
                "end_time": 17.029545454545453,
                "pitch": 85,
                "velocity": 64,
                "duration": 0.08181818181818201,
                "tempo": 120.0
            },
            {
                "start_time": 17.045454545454543,
                "end_time": 17.127272727272725,
                "pitch": 85,
                "velocity": 64,
                "duration": 0.08181818181818201,
                "tempo": 120.0
            },
            {
                "start_time": 17.145454545454545,
                "end_time": 17.224999999999998,
                "pitch": 92,
                "velocity": 64,
                "duration": 0.07954545454545325,
                "tempo": 120.0
            },
            {
                "start_time": 17.243181818181817,
                "end_time": 17.325,
                "pitch": 85,
                "velocity": 64,
                "duration": 0.08181818181818201,
                "tempo": 120.0
            },
            {
                "start_time": 17.34318181818182,
                "end_time": 17.429545454545455,
                "pitch": 85,
                "velocity": 64,
                "duration": 0.08636363636363598,
                "tempo": 120.0
            },
            {
                "start_time": 17.445454545454545,
                "end_time": 17.53181818181818,
                "pitch": 90,
                "velocity": 64,
                "duration": 0.08636363636363598,
                "tempo": 120.0
            },
            {
                "start_time": 17.547727272727272,
                "end_time": 17.634090909090908,
                "pitch": 92,
                "velocity": 64,
                "duration": 0.08636363636363598,
                "tempo": 120.0
            },
            {
                "start_time": 17.65,
                "end_time": 17.73181818181818,
                "pitch": 85,
                "velocity": 64,
                "duration": 0.08181818181818201,
                "tempo": 120.0
            },
            {
                "start_time": 17.74772727272727,
                "end_time": 17.827272727272728,
                "pitch": 85,
                "velocity": 64,
                "duration": 0.0795454545454568,
                "tempo": 120.0
            },
            {
                "start_time": 17.84318181818182,
                "end_time": 17.925,
                "pitch": 90,
                "velocity": 64,
                "duration": 0.08181818181818201,
                "tempo": 120.0
            },
            {
                "start_time": 17.94090909090909,
                "end_time": 18.020454545454545,
                "pitch": 85,
                "velocity": 64,
                "duration": 0.07954545454545325,
                "tempo": 120.0
            },
            {
                "start_time": 18.036363636363635,
                "end_time": 18.118181818181817,
                "pitch": 92,
                "velocity": 64,
                "duration": 0.08181818181818201,
                "tempo": 120.0
            },
            {
                "start_time": 18.136363636363637,
                "end_time": 18.224999999999998,
                "pitch": 85,
                "velocity": 64,
                "duration": 0.08863636363636118,
                "tempo": 120.0
            },
            {
                "start_time": 18.24090909090909,
                "end_time": 18.329545454545453,
                "pitch": 85,
                "velocity": 64,
                "duration": 0.08863636363636473,
                "tempo": 120.0
            },
            {
                "start_time": 18.347727272727273,
                "end_time": 18.436363636363634,
                "pitch": 85,
                "velocity": 64,
                "duration": 0.08863636363636118,
                "tempo": 120.0
            },
            {
                "start_time": 18.452272727272728,
                "end_time": 18.538636363636364,
                "pitch": 90,
                "velocity": 64,
                "duration": 0.08636363636363598,
                "tempo": 120.0
            },
            {
                "start_time": 18.554545454545455,
                "end_time": 18.636363636363637,
                "pitch": 85,
                "velocity": 64,
                "duration": 0.08181818181818201,
                "tempo": 120.0
            },
            {
                "start_time": 18.652272727272727,
                "end_time": 18.73409090909091,
                "pitch": 85,
                "velocity": 64,
                "duration": 0.08181818181818201,
                "tempo": 120.0
            },
            {
                "start_time": 18.75,
                "end_time": 18.831818181818182,
                "pitch": 92,
                "velocity": 64,
                "duration": 0.08181818181818201,
                "tempo": 120.0
            },
            {
                "start_time": 18.847727272727273,
                "end_time": 18.929545454545455,
                "pitch": 85,
                "velocity": 64,
                "duration": 0.08181818181818201,
                "tempo": 120.0
            },
            {
                "start_time": 18.94772727272727,
                "end_time": 19.029545454545453,
                "pitch": 85,
                "velocity": 64,
                "duration": 0.08181818181818201,
                "tempo": 120.0
            },
            {
                "start_time": 19.047727272727272,
                "end_time": 19.129545454545454,
                "pitch": 90,
                "velocity": 64,
                "duration": 0.08181818181818201,
                "tempo": 120.0
            },
            {
                "start_time": 19.147727272727273,
                "end_time": 19.229545454545455,
                "pitch": 92,
                "velocity": 64,
                "duration": 0.08181818181818201,
                "tempo": 120.0
            },
            {
                "start_time": 19.24772727272727,
                "end_time": 19.331818181818182,
                "pitch": 85,
                "velocity": 64,
                "duration": 0.08409090909091077,
                "tempo": 120.0
            },
            {
                "start_time": 19.347727272727273,
                "end_time": 19.43181818181818,
                "pitch": 85,
                "velocity": 64,
                "duration": 0.08409090909090722,
                "tempo": 120.0
            },
            {
                "start_time": 19.44772727272727,
                "end_time": 19.53181818181818,
                "pitch": 90,
                "velocity": 64,
                "duration": 0.08409090909091077,
                "tempo": 120.0
            },
            {
                "start_time": 19.55,
                "end_time": 19.63181818181818,
                "pitch": 85,
                "velocity": 64,
                "duration": 0.08181818181817846,
                "tempo": 120.0
            },
            {
                "start_time": 19.65,
                "end_time": 19.73409090909091,
                "pitch": 92,
                "velocity": 64,
                "duration": 0.08409090909091077,
                "tempo": 120.0
            },
            {
                "start_time": 19.752272727272725,
                "end_time": 19.836363636363636,
                "pitch": 85,
                "velocity": 64,
                "duration": 0.08409090909091077,
                "tempo": 120.0
            },
            {
                "start_time": 19.854545454545452,
                "end_time": 19.938636363636363,
                "pitch": 85,
                "velocity": 64,
                "duration": 0.08409090909091077,
                "tempo": 120.0
            },
            {
                "start_time": 19.956818181818182,
                "end_time": 20.043181818181818,
                "pitch": 85,
                "velocity": 64,
                "duration": 0.08636363636363598,
                "tempo": 120.0
            },
            {
                "start_time": 20.05909090909091,
                "end_time": 20.143181818181816,
                "pitch": 90,
                "velocity": 64,
                "duration": 0.08409090909090722,
                "tempo": 120.0
            },
            {
                "start_time": 20.161363636363635,
                "end_time": 20.243181818181817,
                "pitch": 85,
                "velocity": 64,
                "duration": 0.08181818181818201,
                "tempo": 120.0
            },
            {
                "start_time": 20.261363636363637,
                "end_time": 20.34318181818182,
                "pitch": 85,
                "velocity": 64,
                "duration": 0.08181818181818201,
                "tempo": 120.0
            },
            {
                "start_time": 20.361363636363635,
                "end_time": 20.443181818181817,
                "pitch": 92,
                "velocity": 64,
                "duration": 0.08181818181818201,
                "tempo": 120.0
            },
            {
                "start_time": 20.461363636363636,
                "end_time": 20.543181818181818,
                "pitch": 85,
                "velocity": 64,
                "duration": 0.08181818181818201,
                "tempo": 120.0
            },
            {
                "start_time": 20.561363636363634,
                "end_time": 20.643181818181816,
                "pitch": 85,
                "velocity": 64,
                "duration": 0.08181818181818201,
                "tempo": 120.0
            },
            {
                "start_time": 20.661363636363635,
                "end_time": 20.743181818181817,
                "pitch": 90,
                "velocity": 64,
                "duration": 0.08181818181818201,
                "tempo": 120.0
            },
            {
                "start_time": 20.761363636363637,
                "end_time": 20.84318181818182,
                "pitch": 92,
                "velocity": 64,
                "duration": 0.08181818181818201,
                "tempo": 120.0
            },
            {
                "start_time": 20.861363636363635,
                "end_time": 20.945454545454545,
                "pitch": 85,
                "velocity": 64,
                "duration": 0.08409090909091077,
                "tempo": 120.0
            },
            {
                "start_time": 20.961363636363636,
                "end_time": 21.045454545454543,
                "pitch": 85,
                "velocity": 64,
                "duration": 0.08409090909090722,
                "tempo": 120.0
            },
            {
                "start_time": 21.061363636363634,
                "end_time": 21.145454545454545,
                "pitch": 90,
                "velocity": 64,
                "duration": 0.08409090909091077,
                "tempo": 120.0
            },
            {
                "start_time": 21.163636363636364,
                "end_time": 21.245454545454546,
                "pitch": 85,
                "velocity": 64,
                "duration": 0.08181818181818201,
                "tempo": 120.0
            },
            {
                "start_time": 21.263636363636362,
                "end_time": 21.347727272727273,
                "pitch": 92,
                "velocity": 64,
                "duration": 0.08409090909091077,
                "tempo": 120.0
            },
            {
                "start_time": 21.363636363636363,
                "end_time": 21.44772727272727,
                "pitch": 85,
                "velocity": 64,
                "duration": 0.08409090909090722,
                "tempo": 120.0
            },
            {
                "start_time": 21.46363636363636,
                "end_time": 21.547727272727272,
                "pitch": 85,
                "velocity": 64,
                "duration": 0.08409090909091077,
                "tempo": 120.0
            },
            {
                "start_time": 21.563636363636363,
                "end_time": 21.647727272727273,
                "pitch": 85,
                "velocity": 64,
                "duration": 0.08409090909091077,
                "tempo": 120.0
            },
            {
                "start_time": 21.663636363636364,
                "end_time": 21.745454545454546,
                "pitch": 90,
                "velocity": 64,
                "duration": 0.08181818181818201,
                "tempo": 120.0
            },
            {
                "start_time": 21.761363636363637,
                "end_time": 21.84318181818182,
                "pitch": 85,
                "velocity": 64,
                "duration": 0.08181818181818201,
                "tempo": 120.0
            },
            {
                "start_time": 21.861363636363635,
                "end_time": 21.943181818181817,
                "pitch": 85,
                "velocity": 64,
                "duration": 0.08181818181818201,
                "tempo": 120.0
            },
            {
                "start_time": 21.959090909090907,
                "end_time": 22.04090909090909,
                "pitch": 92,
                "velocity": 64,
                "duration": 0.08181818181818201,
                "tempo": 120.0
            },
            {
                "start_time": 22.05681818181818,
                "end_time": 22.14090909090909,
                "pitch": 85,
                "velocity": 64,
                "duration": 0.08409090909091077,
                "tempo": 120.0
            },
            {
                "start_time": 22.15681818181818,
                "end_time": 22.243181818181817,
                "pitch": 85,
                "velocity": 64,
                "duration": 0.08636363636363598,
                "tempo": 120.0
            },
            {
                "start_time": 22.259090909090908,
                "end_time": 22.345454545454544,
                "pitch": 90,
                "velocity": 64,
                "duration": 0.08636363636363598,
                "tempo": 120.0
            },
            {
                "start_time": 22.361363636363635,
                "end_time": 22.44772727272727,
                "pitch": 92,
                "velocity": 64,
                "duration": 0.08636363636363598,
                "tempo": 120.0
            },
            {
                "start_time": 22.46590909090909,
                "end_time": 22.547727272727272,
                "pitch": 85,
                "velocity": 64,
                "duration": 0.08181818181818201,
                "tempo": 120.0
            },
            {
                "start_time": 22.563636363636363,
                "end_time": 22.643181818181816,
                "pitch": 85,
                "velocity": 64,
                "duration": 0.07954545454545325,
                "tempo": 120.0
            },
            {
                "start_time": 22.659090909090907,
                "end_time": 22.738636363636363,
                "pitch": 90,
                "velocity": 64,
                "duration": 0.0795454545454568,
                "tempo": 120.0
            },
            {
                "start_time": 22.754545454545454,
                "end_time": 22.834090909090907,
                "pitch": 85,
                "velocity": 64,
                "duration": 0.07954545454545325,
                "tempo": 120.0
            },
            {
                "start_time": 22.849999999999998,
                "end_time": 22.93181818181818,
                "pitch": 92,
                "velocity": 64,
                "duration": 0.08181818181818201,
                "tempo": 120.0
            },
            {
                "start_time": 22.95,
                "end_time": 23.038636363636364,
                "pitch": 85,
                "velocity": 64,
                "duration": 0.08863636363636473,
                "tempo": 120.0
            },
            {
                "start_time": 23.05681818181818,
                "end_time": 23.143181818181816,
                "pitch": 85,
                "velocity": 64,
                "duration": 0.08636363636363598,
                "tempo": 120.0
            },
            {
                "start_time": 23.161363636363635,
                "end_time": 23.25,
                "pitch": 85,
                "velocity": 64,
                "duration": 0.08863636363636473,
                "tempo": 120.0
            },
            {
                "start_time": 23.26590909090909,
                "end_time": 23.352272727272727,
                "pitch": 90,
                "velocity": 64,
                "duration": 0.08636363636363598,
                "tempo": 120.0
            },
            {
                "start_time": 23.368181818181817,
                "end_time": 23.45,
                "pitch": 85,
                "velocity": 64,
                "duration": 0.08181818181818201,
                "tempo": 120.0
            },
            {
                "start_time": 23.46590909090909,
                "end_time": 23.547727272727272,
                "pitch": 85,
                "velocity": 64,
                "duration": 0.08181818181818201,
                "tempo": 120.0
            },
            {
                "start_time": 23.563636363636363,
                "end_time": 23.645454545454545,
                "pitch": 92,
                "velocity": 64,
                "duration": 0.08181818181818201,
                "tempo": 120.0
            },
            {
                "start_time": 23.661363636363635,
                "end_time": 23.745454545454546,
                "pitch": 85,
                "velocity": 64,
                "duration": 0.08409090909091077,
                "tempo": 120.0
            },
            {
                "start_time": 23.763636363636362,
                "end_time": 23.847727272727273,
                "pitch": 85,
                "velocity": 64,
                "duration": 0.08409090909091077,
                "tempo": 120.0
            },
            {
                "start_time": 23.86590909090909,
                "end_time": 23.95,
                "pitch": 90,
                "velocity": 64,
                "duration": 0.08409090909091077,
                "tempo": 120.0
            },
            {
                "start_time": 23.96818181818182,
                "end_time": 24.054545454545455,
                "pitch": 92,
                "velocity": 64,
                "duration": 0.08636363636363598,
                "tempo": 120.0
            },
            {
                "start_time": 24.070454545454545,
                "end_time": 24.154545454545453,
                "pitch": 85,
                "velocity": 64,
                "duration": 0.08409090909090722,
                "tempo": 120.0
            },
            {
                "start_time": 24.172727272727272,
                "end_time": 24.254545454545454,
                "pitch": 85,
                "velocity": 64,
                "duration": 0.08181818181818201,
                "tempo": 120.0
            },
            {
                "start_time": 24.27272727272727,
                "end_time": 24.354545454545452,
                "pitch": 90,
                "velocity": 64,
                "duration": 0.08181818181818201,
                "tempo": 120.0
            },
            {
                "start_time": 24.37272727272727,
                "end_time": 24.454545454545453,
                "pitch": 85,
                "velocity": 64,
                "duration": 0.08181818181818201,
                "tempo": 120.0
            },
            {
                "start_time": 24.472727272727273,
                "end_time": 24.554545454545455,
                "pitch": 92,
                "velocity": 64,
                "duration": 0.08181818181818201,
                "tempo": 120.0
            },
            {
                "start_time": 24.57272727272727,
                "end_time": 24.654545454545453,
                "pitch": 85,
                "velocity": 64,
                "duration": 0.08181818181818201,
                "tempo": 120.0
            },
            {
                "start_time": 24.672727272727272,
                "end_time": 24.754545454545454,
                "pitch": 85,
                "velocity": 64,
                "duration": 0.08181818181818201,
                "tempo": 120.0
            },
            {
                "start_time": 24.77272727272727,
                "end_time": 24.854545454545452,
                "pitch": 85,
                "velocity": 64,
                "duration": 0.08181818181818201,
                "tempo": 120.0
            },
            {
                "start_time": 24.87272727272727,
                "end_time": 24.954545454545453,
                "pitch": 90,
                "velocity": 64,
                "duration": 0.08181818181818201,
                "tempo": 120.0
            },
            {
                "start_time": 24.970454545454544,
                "end_time": 25.052272727272726,
                "pitch": 85,
                "velocity": 64,
                "duration": 0.08181818181818201,
                "tempo": 120.0
            },
            {
                "start_time": 25.068181818181817,
                "end_time": 25.15,
                "pitch": 85,
                "velocity": 64,
                "duration": 0.08181818181818201,
                "tempo": 120.0
            },
            {
                "start_time": 25.168181818181818,
                "end_time": 25.24772727272727,
                "pitch": 92,
                "velocity": 64,
                "duration": 0.07954545454545325,
                "tempo": 120.0
            },
            {
                "start_time": 25.26590909090909,
                "end_time": 25.347727272727273,
                "pitch": 85,
                "velocity": 64,
                "duration": 0.08181818181818201,
                "tempo": 120.0
            },
            {
                "start_time": 25.363636363636363,
                "end_time": 25.445454545454545,
                "pitch": 85,
                "velocity": 64,
                "duration": 0.08181818181818201,
                "tempo": 120.0
            },
            {
                "start_time": 25.461363636363636,
                "end_time": 25.543181818181818,
                "pitch": 90,
                "velocity": 64,
                "duration": 0.08181818181818201,
                "tempo": 120.0
            },
            {
                "start_time": 25.55909090909091,
                "end_time": 25.74090909090909,
                "pitch": 92,
                "velocity": 64,
                "duration": 0.18181818181817988,
                "tempo": 120.0
            },
            {
                "start_time": 25.759090909090908,
                "end_time": 25.84318181818182,
                "pitch": 84,
                "velocity": 64,
                "duration": 0.08409090909091077,
                "tempo": 120.0
            },
            {
                "start_time": 25.861363636363635,
                "end_time": 25.945454545454545,
                "pitch": 80,
                "velocity": 64,
                "duration": 0.08409090909091077,
                "tempo": 120.0
            },
            {
                "start_time": 25.96363636363636,
                "end_time": 26.049999999999997,
                "pitch": 85,
                "velocity": 64,
                "duration": 0.08636363636363598,
                "tempo": 120.0
            },
            {
                "start_time": 26.06590909090909,
                "end_time": 26.152272727272727,
                "pitch": 84,
                "velocity": 64,
                "duration": 0.08636363636363598,
                "tempo": 120.0
            },
            {
                "start_time": 26.168181818181818,
                "end_time": 26.254545454545454,
                "pitch": 80,
                "velocity": 64,
                "duration": 0.08636363636363598,
                "tempo": 120.0
            },
            {
                "start_time": 26.27272727272727,
                "end_time": 26.459090909090907,
                "pitch": 87,
                "velocity": 64,
                "duration": 0.1863636363636374,
                "tempo": 120.0
            },
            {
                "start_time": 26.477272727272727,
                "end_time": 26.55909090909091,
                "pitch": 85,
                "velocity": 64,
                "duration": 0.08181818181818201,
                "tempo": 120.0
            },
            {
                "start_time": 26.575,
                "end_time": 26.654545454545453,
                "pitch": 85,
                "velocity": 64,
                "duration": 0.07954545454545325,
                "tempo": 120.0
            },
            {
                "start_time": 27.279545454545453,
                "end_time": 27.36590909090909,
                "pitch": 73,
                "velocity": 64,
                "duration": 0.08636363636363598,
                "tempo": 120.0
            },
            {
                "start_time": 27.38181818181818,
                "end_time": 27.46590909090909,
                "pitch": 72,
                "velocity": 64,
                "duration": 0.08409090909091077,
                "tempo": 120.0
            },
            {
                "start_time": 27.48181818181818,
                "end_time": 27.565909090909088,
                "pitch": 70,
                "velocity": 64,
                "duration": 0.08409090909090722,
                "tempo": 120.0
            },
            {
                "start_time": 27.581818181818182,
                "end_time": 27.66590909090909,
                "pitch": 73,
                "velocity": 64,
                "duration": 0.08409090909090722,
                "tempo": 120.0
            },
            {
                "start_time": 27.68181818181818,
                "end_time": 27.76590909090909,
                "pitch": 72,
                "velocity": 64,
                "duration": 0.08409090909091077,
                "tempo": 120.0
            },
            {
                "start_time": 27.78181818181818,
                "end_time": 27.86590909090909,
                "pitch": 70,
                "velocity": 64,
                "duration": 0.08409090909090722,
                "tempo": 120.0
            },
            {
                "start_time": 27.884090909090908,
                "end_time": 28.068181818181817,
                "pitch": 75,
                "velocity": 64,
                "duration": 0.18409090909090864,
                "tempo": 120.0
            },
            {
                "start_time": 28.084090909090907,
                "end_time": 28.168181818181818,
                "pitch": 73,
                "velocity": 64,
                "duration": 0.08409090909091077,
                "tempo": 120.0
            },
            {
                "start_time": 28.18409090909091,
                "end_time": 28.268181818181816,
                "pitch": 72,
                "velocity": 64,
                "duration": 0.08409090909090722,
                "tempo": 120.0
            },
            {
                "start_time": 28.284090909090907,
                "end_time": 28.368181818181817,
                "pitch": 70,
                "velocity": 64,
                "duration": 0.08409090909091077,
                "tempo": 120.0
            },
            {
                "start_time": 28.384090909090908,
                "end_time": 28.468181818181815,
                "pitch": 73,
                "velocity": 64,
                "duration": 0.08409090909090722,
                "tempo": 120.0
            },
            {
                "start_time": 28.48409090909091,
                "end_time": 28.568181818181817,
                "pitch": 72,
                "velocity": 64,
                "duration": 0.08409090909090722,
                "tempo": 120.0
            },
            {
                "start_time": 28.584090909090907,
                "end_time": 28.668181818181818,
                "pitch": 70,
                "velocity": 64,
                "duration": 0.08409090909091077,
                "tempo": 120.0
            },
            {
                "start_time": 28.68409090909091,
                "end_time": 28.868181818181817,
                "pitch": 68,
                "velocity": 64,
                "duration": 0.18409090909090864,
                "tempo": 120.0
            },
            {
                "start_time": 28.884090909090908,
                "end_time": 28.968181818181815,
                "pitch": 73,
                "velocity": 64,
                "duration": 0.08409090909090722,
                "tempo": 120.0
            },
            {
                "start_time": 28.98409090909091,
                "end_time": 29.068181818181817,
                "pitch": 72,
                "velocity": 64,
                "duration": 0.08409090909090722,
                "tempo": 120.0
            },
            {
                "start_time": 29.086363636363636,
                "end_time": 29.170454545454543,
                "pitch": 70,
                "velocity": 64,
                "duration": 0.08409090909090722,
                "tempo": 120.0
            },
            {
                "start_time": 29.186363636363634,
                "end_time": 29.270454545454545,
                "pitch": 73,
                "velocity": 64,
                "duration": 0.08409090909091077,
                "tempo": 120.0
            },
            {
                "start_time": 29.286363636363635,
                "end_time": 29.370454545454542,
                "pitch": 72,
                "velocity": 64,
                "duration": 0.08409090909090722,
                "tempo": 120.0
            },
            {
                "start_time": 29.386363636363637,
                "end_time": 29.470454545454544,
                "pitch": 70,
                "velocity": 64,
                "duration": 0.08409090909090722,
                "tempo": 120.0
            },
            {
                "start_time": 29.486363636363635,
                "end_time": 29.670454545454543,
                "pitch": 75,
                "velocity": 64,
                "duration": 0.18409090909090864,
                "tempo": 120.0
            },
            {
                "start_time": 29.686363636363634,
                "end_time": 29.770454545454545,
                "pitch": 82,
                "velocity": 64,
                "duration": 0.08409090909091077,
                "tempo": 120.0
            },
            {
                "start_time": 29.78863636363636,
                "end_time": 29.870454545454542,
                "pitch": 80,
                "velocity": 64,
                "duration": 0.08181818181818201,
                "tempo": 120.0
            },
            {
                "start_time": 29.888636363636362,
                "end_time": 29.972727272727273,
                "pitch": 78,
                "velocity": 64,
                "duration": 0.08409090909091077,
                "tempo": 120.0
            },
            {
                "start_time": 29.988636363636363,
                "end_time": 30.07272727272727,
                "pitch": 80,
                "velocity": 64,
                "duration": 0.08409090909090722,
                "tempo": 120.0
            },
            {
                "start_time": 30.08863636363636,
                "end_time": 30.172727272727272,
                "pitch": 78,
                "velocity": 64,
                "duration": 0.08409090909091077,
                "tempo": 120.0
            },
            {
                "start_time": 30.190909090909088,
                "end_time": 30.27272727272727,
                "pitch": 76,
                "velocity": 64,
                "duration": 0.08181818181818201,
                "tempo": 120.0
            },
            {
                "start_time": 30.29090909090909,
                "end_time": 30.472727272727273,
                "pitch": 75,
                "velocity": 64,
                "duration": 0.18181818181818343,
                "tempo": 120.0
            },
            {
                "start_time": 30.49090909090909,
                "end_time": 30.57272727272727,
                "pitch": 73,
                "velocity": 64,
                "duration": 0.08181818181818201,
                "tempo": 120.0
            },
            {
                "start_time": 30.58863636363636,
                "end_time": 30.670454545454543,
                "pitch": 72,
                "velocity": 64,
                "duration": 0.08181818181818201,
                "tempo": 120.0
            },
            {
                "start_time": 30.686363636363634,
                "end_time": 30.768181818181816,
                "pitch": 70,
                "velocity": 64,
                "duration": 0.08181818181818201,
                "tempo": 120.0
            },
            {
                "start_time": 30.784090909090907,
                "end_time": 30.86590909090909,
                "pitch": 73,
                "velocity": 64,
                "duration": 0.08181818181818201,
                "tempo": 120.0
            },
            {
                "start_time": 30.884090909090908,
                "end_time": 30.96590909090909,
                "pitch": 72,
                "velocity": 64,
                "duration": 0.08181818181818201,
                "tempo": 120.0
            },
            {
                "start_time": 30.98409090909091,
                "end_time": 31.068181818181817,
                "pitch": 70,
                "velocity": 64,
                "duration": 0.08409090909090722,
                "tempo": 120.0
            },
            {
                "start_time": 31.086363636363636,
                "end_time": 31.275,
                "pitch": 75,
                "velocity": 64,
                "duration": 0.1886363636363626,
                "tempo": 120.0
            },
            {
                "start_time": 31.29090909090909,
                "end_time": 31.377272727272725,
                "pitch": 73,
                "velocity": 64,
                "duration": 0.08636363636363598,
                "tempo": 120.0
            },
            {
                "start_time": 31.393181818181816,
                "end_time": 31.477272727272727,
                "pitch": 72,
                "velocity": 64,
                "duration": 0.08409090909091077,
                "tempo": 120.0
            },
            {
                "start_time": 31.493181818181817,
                "end_time": 31.577272727272724,
                "pitch": 70,
                "velocity": 64,
                "duration": 0.08409090909090722,
                "tempo": 120.0
            },
            {
                "start_time": 31.593181818181815,
                "end_time": 31.677272727272726,
                "pitch": 73,
                "velocity": 64,
                "duration": 0.08409090909091077,
                "tempo": 120.0
            },
            {
                "start_time": 31.693181818181817,
                "end_time": 31.777272727272727,
                "pitch": 72,
                "velocity": 64,
                "duration": 0.08409090909091077,
                "tempo": 120.0
            },
            {
                "start_time": 31.793181818181818,
                "end_time": 31.877272727272725,
                "pitch": 70,
                "velocity": 64,
                "duration": 0.08409090909090722,
                "tempo": 120.0
            },
            {
                "start_time": 31.893181818181816,
                "end_time": 32.07954545454545,
                "pitch": 68,
                "velocity": 64,
                "duration": 0.1863636363636374,
                "tempo": 120.0
            },
            {
                "start_time": 32.095454545454544,
                "end_time": 32.17727272727272,
                "pitch": 73,
                "velocity": 64,
                "duration": 0.08181818181817846,
                "tempo": 120.0
            },
            {
                "start_time": 32.195454545454545,
                "end_time": 32.275,
                "pitch": 72,
                "velocity": 64,
                "duration": 0.07954545454545325,
                "tempo": 120.0
            },
            {
                "start_time": 32.293181818181814,
                "end_time": 32.375,
                "pitch": 70,
                "velocity": 64,
                "duration": 0.08181818181818556,
                "tempo": 120.0
            },
            {
                "start_time": 32.39090909090909,
                "end_time": 32.47272727272727,
                "pitch": 73,
                "velocity": 64,
                "duration": 0.08181818181817846,
                "tempo": 120.0
            },
            {
                "start_time": 32.48863636363636,
                "end_time": 32.57272727272727,
                "pitch": 72,
                "velocity": 64,
                "duration": 0.08409090909091077,
                "tempo": 120.0
            },
            {
                "start_time": 32.58863636363636,
                "end_time": 32.675,
                "pitch": 70,
                "velocity": 64,
                "duration": 0.08636363636363598,
                "tempo": 120.0
            },
            {
                "start_time": 32.69090909090909,
                "end_time": 32.87954545454545,
                "pitch": 75,
                "velocity": 64,
                "duration": 0.1886363636363626,
                "tempo": 120.0
            },
            {
                "start_time": 32.89772727272727,
                "end_time": 32.98181818181818,
                "pitch": 82,
                "velocity": 64,
                "duration": 0.08409090909090366,
                "tempo": 120.0
            },
            {
                "start_time": 32.99772727272727,
                "end_time": 33.08181818181818,
                "pitch": 80,
                "velocity": 64,
                "duration": 0.08409090909091077,
                "tempo": 120.0
            },
            {
                "start_time": 33.09772727272727,
                "end_time": 33.18181818181818,
                "pitch": 78,
                "velocity": 64,
                "duration": 0.08409090909091077,
                "tempo": 120.0
            },
            {
                "start_time": 33.19772727272727,
                "end_time": 33.28181818181818,
                "pitch": 80,
                "velocity": 64,
                "duration": 0.08409090909091077,
                "tempo": 120.0
            },
            {
                "start_time": 33.29772727272727,
                "end_time": 33.38181818181818,
                "pitch": 78,
                "velocity": 64,
                "duration": 0.08409090909091077,
                "tempo": 120.0
            },
            {
                "start_time": 33.39772727272727,
                "end_time": 33.48181818181818,
                "pitch": 76,
                "velocity": 64,
                "duration": 0.08409090909090366,
                "tempo": 120.0
            },
            {
                "start_time": 33.5,
                "end_time": 33.71818181818182,
                "pitch": 75,
                "velocity": 64,
                "duration": 0.2181818181818187,
                "tempo": 120.0
            },
            {
                "start_time": 33.73409090909091,
                "end_time": 33.78409090909091,
                "pitch": 75,
                "velocity": 64,
                "duration": 0.04999999999999716,
                "tempo": 120.0
            },
            {
                "start_time": 33.80227272727272,
                "end_time": 33.88409090909091,
                "pitch": 78,
                "velocity": 64,
                "duration": 0.08181818181818556,
                "tempo": 120.0
            },
            {
                "start_time": 33.902272727272724,
                "end_time": 33.98409090909091,
                "pitch": 75,
                "velocity": 64,
                "duration": 0.08181818181818556,
                "tempo": 120.0
            },
            {
                "start_time": 34.002272727272725,
                "end_time": 34.08409090909091,
                "pitch": 79,
                "velocity": 64,
                "duration": 0.08181818181818556,
                "tempo": 120.0
            },
            {
                "start_time": 34.10227272727273,
                "end_time": 34.184090909090905,
                "pitch": 75,
                "velocity": 64,
                "duration": 0.08181818181817846,
                "tempo": 120.0
            },
            {
                "start_time": 34.20227272727273,
                "end_time": 34.28409090909091,
                "pitch": 78,
                "velocity": 64,
                "duration": 0.08181818181817846,
                "tempo": 120.0
            },
            {
                "start_time": 34.30227272727272,
                "end_time": 34.38409090909091,
                "pitch": 83,
                "velocity": 64,
                "duration": 0.08181818181818556,
                "tempo": 120.0
            },
            {
                "start_time": 34.402272727272724,
                "end_time": 34.48409090909091,
                "pitch": 82,
                "velocity": 64,
                "duration": 0.08181818181818556,
                "tempo": 120.0
            },
            {
                "start_time": 34.502272727272725,
                "end_time": 34.58409090909091,
                "pitch": 75,
                "velocity": 64,
                "duration": 0.08181818181818556,
                "tempo": 120.0
            },
            {
                "start_time": 34.60227272727273,
                "end_time": 34.684090909090905,
                "pitch": 78,
                "velocity": 64,
                "duration": 0.08181818181817846,
                "tempo": 120.0
            },
            {
                "start_time": 34.70227272727273,
                "end_time": 34.78409090909091,
                "pitch": 75,
                "velocity": 64,
                "duration": 0.08181818181817846,
                "tempo": 120.0
            },
            {
                "start_time": 34.80227272727272,
                "end_time": 34.88409090909091,
                "pitch": 79,
                "velocity": 64,
                "duration": 0.08181818181818556,
                "tempo": 120.0
            },
            {
                "start_time": 34.902272727272724,
                "end_time": 34.97954545454545,
                "pitch": 75,
                "velocity": 64,
                "duration": 0.07727272727272805,
                "tempo": 120.0
            },
            {
                "start_time": 34.99545454545454,
                "end_time": 35.07272727272727,
                "pitch": 78,
                "velocity": 64,
                "duration": 0.07727272727272805,
                "tempo": 120.0
            },
            {
                "start_time": 35.08863636363636,
                "end_time": 35.16590909090909,
                "pitch": 83,
                "velocity": 64,
                "duration": 0.07727272727272805,
                "tempo": 120.0
            },
            {
                "start_time": 35.179545454545455,
                "end_time": 35.25681818181818,
                "pitch": 82,
                "velocity": 64,
                "duration": 0.07727272727272805,
                "tempo": 120.0
            },
            {
                "start_time": 35.27272727272727,
                "end_time": 35.35454545454545,
                "pitch": 75,
                "velocity": 64,
                "duration": 0.08181818181817846,
                "tempo": 120.0
            },
            {
                "start_time": 35.37045454545454,
                "end_time": 35.45227272727273,
                "pitch": 78,
                "velocity": 64,
                "duration": 0.08181818181818556,
                "tempo": 120.0
            },
            {
                "start_time": 35.46818181818182,
                "end_time": 35.55,
                "pitch": 75,
                "velocity": 64,
                "duration": 0.08181818181817846,
                "tempo": 120.0
            },
            {
                "start_time": 35.56590909090909,
                "end_time": 35.64772727272727,
                "pitch": 79,
                "velocity": 64,
                "duration": 0.08181818181818556,
                "tempo": 120.0
            },
            {
                "start_time": 35.663636363636364,
                "end_time": 35.75,
                "pitch": 75,
                "velocity": 64,
                "duration": 0.08636363636363598,
                "tempo": 120.0
            },
            {
                "start_time": 35.76590909090909,
                "end_time": 35.85227272727273,
                "pitch": 78,
                "velocity": 64,
                "duration": 0.08636363636363598,
                "tempo": 120.0
            },
            {
                "start_time": 35.86818181818182,
                "end_time": 35.95454545454545,
                "pitch": 83,
                "velocity": 64,
                "duration": 0.08636363636363598,
                "tempo": 120.0
            },
            {
                "start_time": 35.97272727272727,
                "end_time": 36.05681818181818,
                "pitch": 82,
                "velocity": 64,
                "duration": 0.08409090909091077,
                "tempo": 120.0
            },
            {
                "start_time": 36.074999999999996,
                "end_time": 36.15681818181818,
                "pitch": 75,
                "velocity": 64,
                "duration": 0.08181818181818556,
                "tempo": 120.0
            },
            {
                "start_time": 36.17272727272727,
                "end_time": 36.25454545454545,
                "pitch": 78,
                "velocity": 64,
                "duration": 0.08181818181817846,
                "tempo": 120.0
            },
            {
                "start_time": 36.27045454545454,
                "end_time": 36.35227272727273,
                "pitch": 75,
                "velocity": 64,
                "duration": 0.08181818181818556,
                "tempo": 120.0
            },
            {
                "start_time": 36.36818181818182,
                "end_time": 36.449999999999996,
                "pitch": 79,
                "velocity": 64,
                "duration": 0.08181818181817846,
                "tempo": 120.0
            },
            {
                "start_time": 36.46818181818182,
                "end_time": 36.55227272727272,
                "pitch": 75,
                "velocity": 64,
                "duration": 0.08409090909090366,
                "tempo": 120.0
            },
            {
                "start_time": 36.56818181818181,
                "end_time": 36.654545454545456,
                "pitch": 78,
                "velocity": 64,
                "duration": 0.08636363636364308,
                "tempo": 120.0
            },
            {
                "start_time": 36.67272727272727,
                "end_time": 36.75681818181818,
                "pitch": 83,
                "velocity": 64,
                "duration": 0.08409090909091077,
                "tempo": 120.0
            },
            {
                "start_time": 36.775,
                "end_time": 36.85909090909091,
                "pitch": 82,
                "velocity": 64,
                "duration": 0.08409090909091077,
                "tempo": 120.0
            },
            {
                "start_time": 36.877272727272725,
                "end_time": 36.95909090909091,
                "pitch": 75,
                "velocity": 64,
                "duration": 0.08181818181818556,
                "tempo": 120.0
            },
            {
                "start_time": 36.975,
                "end_time": 37.05681818181818,
                "pitch": 78,
                "velocity": 64,
                "duration": 0.08181818181817846,
                "tempo": 120.0
            },
            {
                "start_time": 37.07272727272727,
                "end_time": 37.154545454545456,
                "pitch": 75,
                "velocity": 64,
                "duration": 0.08181818181818556,
                "tempo": 120.0
            },
            {
                "start_time": 37.17272727272727,
                "end_time": 37.25454545454545,
                "pitch": 79,
                "velocity": 64,
                "duration": 0.08181818181817846,
                "tempo": 120.0
            },
            {
                "start_time": 37.27045454545454,
                "end_time": 37.35454545454545,
                "pitch": 75,
                "velocity": 64,
                "duration": 0.08409090909091077,
                "tempo": 120.0
            },
            {
                "start_time": 37.37272727272727,
                "end_time": 37.45681818181818,
                "pitch": 78,
                "velocity": 64,
                "duration": 0.08409090909091077,
                "tempo": 120.0
            },
            {
                "start_time": 37.475,
                "end_time": 37.559090909090905,
                "pitch": 83,
                "velocity": 64,
                "duration": 0.08409090909090366,
                "tempo": 120.0
            },
            {
                "start_time": 37.57727272727273,
                "end_time": 37.663636363636364,
                "pitch": 82,
                "velocity": 64,
                "duration": 0.08636363636363598,
                "tempo": 120.0
            },
            {
                "start_time": 37.679545454545455,
                "end_time": 37.76363636363636,
                "pitch": 75,
                "velocity": 64,
                "duration": 0.08409090909090366,
                "tempo": 120.0
            },
            {
                "start_time": 37.779545454545456,
                "end_time": 37.86363636363636,
                "pitch": 78,
                "velocity": 64,
                "duration": 0.08409090909090366,
                "tempo": 120.0
            },
            {
                "start_time": 37.87954545454545,
                "end_time": 37.96363636363636,
                "pitch": 75,
                "velocity": 64,
                "duration": 0.08409090909091077,
                "tempo": 120.0
            },
            {
                "start_time": 37.97954545454545,
                "end_time": 38.06363636363636,
                "pitch": 79,
                "velocity": 64,
                "duration": 0.08409090909091077,
                "tempo": 120.0
            },
            {
                "start_time": 38.07954545454545,
                "end_time": 38.163636363636364,
                "pitch": 75,
                "velocity": 64,
                "duration": 0.08409090909091077,
                "tempo": 120.0
            },
            {
                "start_time": 38.179545454545455,
                "end_time": 38.26363636363636,
                "pitch": 78,
                "velocity": 64,
                "duration": 0.08409090909090366,
                "tempo": 120.0
            },
            {
                "start_time": 38.279545454545456,
                "end_time": 38.36363636363636,
                "pitch": 83,
                "velocity": 64,
                "duration": 0.08409090909090366,
                "tempo": 120.0
            },
            {
                "start_time": 38.37954545454545,
                "end_time": 38.46363636363636,
                "pitch": 82,
                "velocity": 64,
                "duration": 0.08409090909091077,
                "tempo": 120.0
            },
            {
                "start_time": 38.47954545454545,
                "end_time": 38.56136363636364,
                "pitch": 75,
                "velocity": 64,
                "duration": 0.08181818181818556,
                "tempo": 120.0
            },
            {
                "start_time": 38.57954545454545,
                "end_time": 38.66136363636363,
                "pitch": 78,
                "velocity": 64,
                "duration": 0.08181818181817846,
                "tempo": 120.0
            },
            {
                "start_time": 38.67727272727272,
                "end_time": 38.75909090909091,
                "pitch": 75,
                "velocity": 64,
                "duration": 0.08181818181818556,
                "tempo": 120.0
            },
            {
                "start_time": 38.775,
                "end_time": 38.85681818181818,
                "pitch": 79,
                "velocity": 64,
                "duration": 0.08181818181817846,
                "tempo": 120.0
            },
            {
                "start_time": 38.87272727272727,
                "end_time": 38.95681818181818,
                "pitch": 75,
                "velocity": 64,
                "duration": 0.08409090909091077,
                "tempo": 120.0
            },
            {
                "start_time": 38.975,
                "end_time": 39.06136363636364,
                "pitch": 78,
                "velocity": 64,
                "duration": 0.08636363636363598,
                "tempo": 120.0
            },
            {
                "start_time": 39.07727272727273,
                "end_time": 39.163636363636364,
                "pitch": 83,
                "velocity": 64,
                "duration": 0.08636363636363598,
                "tempo": 120.0
            },
            {
                "start_time": 39.179545454545455,
                "end_time": 39.26590909090909,
                "pitch": 82,
                "velocity": 64,
                "duration": 0.08636363636363598,
                "tempo": 120.0
            },
            {
                "start_time": 39.28181818181818,
                "end_time": 39.36590909090909,
                "pitch": 75,
                "velocity": 64,
                "duration": 0.08409090909091077,
                "tempo": 120.0
            },
            {
                "start_time": 39.38409090909091,
                "end_time": 39.465909090909086,
                "pitch": 78,
                "velocity": 64,
                "duration": 0.08181818181817846,
                "tempo": 120.0
            },
            {
                "start_time": 39.48409090909091,
                "end_time": 39.56590909090909,
                "pitch": 75,
                "velocity": 64,
                "duration": 0.08181818181817846,
                "tempo": 120.0
            },
            {
                "start_time": 39.584090909090904,
                "end_time": 39.66590909090909,
                "pitch": 79,
                "velocity": 64,
                "duration": 0.08181818181818556,
                "tempo": 120.0
            },
            {
                "start_time": 39.684090909090905,
                "end_time": 39.76590909090909,
                "pitch": 75,
                "velocity": 64,
                "duration": 0.08181818181818556,
                "tempo": 120.0
            },
            {
                "start_time": 39.78409090909091,
                "end_time": 39.86590909090909,
                "pitch": 78,
                "velocity": 64,
                "duration": 0.08181818181818556,
                "tempo": 120.0
            },
            {
                "start_time": 39.88409090909091,
                "end_time": 39.965909090909086,
                "pitch": 83,
                "velocity": 64,
                "duration": 0.08181818181817846,
                "tempo": 120.0
            },
            {
                "start_time": 39.98409090909091,
                "end_time": 40.06590909090909,
                "pitch": 82,
                "velocity": 64,
                "duration": 0.08181818181817846,
                "tempo": 120.0
            },
            {
                "start_time": 40.084090909090904,
                "end_time": 40.12045454545454,
                "pitch": 85,
                "velocity": 64,
                "duration": 0.03636363636363882,
                "tempo": 120.0
            }
        ]
    }
}