{
    "track_id": "Zillion II (FM) - 01 - Title Screen",
    "mood": "sad",
    "instruments": {
        "Acoustic Guitar (nylon)": [
            {
                "start_time": 0.0,
                "end_time": 0.02727272727272727,
                "pitch": 78,
                "velocity": 40,
                "duration": 0.02727272727272727,
                "tempo": 120.0
            },
            {
                "start_time": 0.056818181818181816,
                "end_time": 0.12272727272727273,
                "pitch": 76,
                "velocity": 40,
                "duration": 0.06590909090909092,
                "tempo": 120.0
            },
            {
                "start_time": 0.13863636363636364,
                "end_time": 0.20454545454545453,
                "pitch": 81,
                "velocity": 40,
                "duration": 0.06590909090909089,
                "tempo": 120.0
            },
            {
                "start_time": 0.22272727272727272,
                "end_time": 0.28863636363636364,
                "pitch": 83,
                "velocity": 40,
                "duration": 0.06590909090909092,
                "tempo": 120.0
            },
            {
                "start_time": 0.3227272727272727,
                "end_time": 0.3886363636363636,
                "pitch": 90,
                "velocity": 40,
                "duration": 0.06590909090909092,
                "tempo": 120.0
            },
            {
                "start_time": 0.4068181818181818,
                "end_time": 0.4727272727272727,
                "pitch": 87,
                "velocity": 40,
                "duration": 0.06590909090909092,
                "tempo": 120.0
            },
            {
                "start_time": 0.4909090909090909,
                "end_time": 0.5568181818181818,
                "pitch": 76,
                "velocity": 40,
                "duration": 0.06590909090909086,
                "tempo": 120.0
            },
            {
                "start_time": 0.5909090909090908,
                "end_time": 0.6636363636363636,
                "pitch": 87,
                "velocity": 40,
                "duration": 0.07272727272727275,
                "tempo": 120.0
            },
            {
                "start_time": 0.6795454545454546,
                "end_time": 0.7522727272727272,
                "pitch": 83,
                "velocity": 40,
                "duration": 0.07272727272727264,
                "tempo": 120.0
            },
            {
                "start_time": 0.7681818181818182,
                "end_time": 0.8409090909090908,
                "pitch": 76,
                "velocity": 40,
                "duration": 0.07272727272727264,
                "tempo": 120.0
            },
            {
                "start_time": 0.875,
                "end_time": 0.9454545454545454,
                "pitch": 83,
                "velocity": 40,
                "duration": 0.07045454545454544,
                "tempo": 120.0
            },
            {
                "start_time": 0.9636363636363636,
                "end_time": 1.034090909090909,
                "pitch": 81,
                "velocity": 40,
                "duration": 0.07045454545454533,
                "tempo": 120.0
            },
            {
                "start_time": 1.0522727272727272,
                "end_time": 1.1204545454545454,
                "pitch": 78,
                "velocity": 40,
                "duration": 0.06818181818181812,
                "tempo": 120.0
            },
            {
                "start_time": 1.1545454545454545,
                "end_time": 1.2204545454545455,
                "pitch": 76,
                "velocity": 40,
                "duration": 0.06590909090909092,
                "tempo": 120.0
            },
            {
                "start_time": 1.2386363636363635,
                "end_time": 1.3045454545454545,
                "pitch": 81,
                "velocity": 40,
                "duration": 0.06590909090909092,
                "tempo": 120.0
            },
            {
                "start_time": 1.3227272727272728,
                "end_time": 1.3886363636363637,
                "pitch": 86,
                "velocity": 40,
                "duration": 0.06590909090909092,
                "tempo": 120.0
            },
            {
                "start_time": 1.4386363636363635,
                "end_time": 1.5068181818181818,
                "pitch": 78,
                "velocity": 40,
                "duration": 0.06818181818181834,
                "tempo": 120.0
            },
            {
                "start_time": 1.5227272727272727,
                "end_time": 1.5909090909090908,
                "pitch": 76,
                "velocity": 40,
                "duration": 0.06818181818181812,
                "tempo": 120.0
            },
            {
                "start_time": 1.6068181818181817,
                "end_time": 1.6727272727272726,
                "pitch": 81,
                "velocity": 40,
                "duration": 0.06590909090909092,
                "tempo": 120.0
            },
            {
                "start_time": 1.7068181818181818,
                "end_time": 1.775,
                "pitch": 83,
                "velocity": 40,
                "duration": 0.06818181818181812,
                "tempo": 120.0
            },
            {
                "start_time": 1.7909090909090908,
                "end_time": 1.8568181818181817,
                "pitch": 90,
                "velocity": 40,
                "duration": 0.06590909090909092,
                "tempo": 120.0
            },
            {
                "start_time": 1.875,
                "end_time": 1.940909090909091,
                "pitch": 87,
                "velocity": 40,
                "duration": 0.06590909090909092,
                "tempo": 120.0
            },
            {
                "start_time": 1.9749999999999999,
                "end_time": 2.043181818181818,
                "pitch": 76,
                "velocity": 40,
                "duration": 0.06818181818181812,
                "tempo": 120.0
            },
            {
                "start_time": 2.059090909090909,
                "end_time": 2.1295454545454544,
                "pitch": 87,
                "velocity": 40,
                "duration": 0.07045454545454533,
                "tempo": 120.0
            },
            {
                "start_time": 2.1477272727272725,
                "end_time": 2.2181818181818183,
                "pitch": 83,
                "velocity": 40,
                "duration": 0.07045454545454577,
                "tempo": 120.0
            },
            {
                "start_time": 2.2545454545454544,
                "end_time": 2.3249999999999997,
                "pitch": 76,
                "velocity": 40,
                "duration": 0.07045454545454533,
                "tempo": 120.0
            },
            {
                "start_time": 2.3431818181818183,
                "end_time": 2.4136363636363636,
                "pitch": 83,
                "velocity": 40,
                "duration": 0.07045454545454533,
                "tempo": 120.0
            },
            {
                "start_time": 2.4318181818181817,
                "end_time": 2.502272727272727,
                "pitch": 81,
                "velocity": 40,
                "duration": 0.07045454545454533,
                "tempo": 120.0
            },
            {
                "start_time": 2.5386363636363636,
                "end_time": 2.6045454545454545,
                "pitch": 78,
                "velocity": 40,
                "duration": 0.06590909090909092,
                "tempo": 120.0
            },
            {
                "start_time": 2.620454545454545,
                "end_time": 2.686363636363636,
                "pitch": 76,
                "velocity": 40,
                "duration": 0.06590909090909092,
                "tempo": 120.0
            },
            {
                "start_time": 2.702272727272727,
                "end_time": 2.768181818181818,
                "pitch": 81,
                "velocity": 40,
                "duration": 0.06590909090909092,
                "tempo": 120.0
            },
            {
                "start_time": 2.8,
                "end_time": 2.8659090909090907,
                "pitch": 86,
                "velocity": 40,
                "duration": 0.06590909090909092,
                "tempo": 120.0
            },
            {
                "start_time": 2.881818181818182,
                "end_time": 2.9477272727272728,
                "pitch": 78,
                "velocity": 40,
                "duration": 0.06590909090909092,
                "tempo": 120.0
            },
            {
                "start_time": 2.9636363636363634,
                "end_time": 3.0295454545454543,
                "pitch": 76,
                "velocity": 40,
                "duration": 0.06590909090909092,
                "tempo": 120.0
            },
            {
                "start_time": 3.0636363636363635,
                "end_time": 3.131818181818182,
                "pitch": 81,
                "velocity": 40,
                "duration": 0.06818181818181834,
                "tempo": 120.0
            },
            {
                "start_time": 3.15,
                "end_time": 3.215909090909091,
                "pitch": 83,
                "velocity": 40,
                "duration": 0.06590909090909092,
                "tempo": 120.0
            },
            {
                "start_time": 3.234090909090909,
                "end_time": 3.3022727272727272,
                "pitch": 90,
                "velocity": 40,
                "duration": 0.06818181818181834,
                "tempo": 120.0
            },
            {
                "start_time": 3.3363636363636364,
                "end_time": 3.4045454545454543,
                "pitch": 87,
                "velocity": 40,
                "duration": 0.0681818181818179,
                "tempo": 120.0
            },
            {
                "start_time": 3.4204545454545454,
                "end_time": 3.4886363636363633,
                "pitch": 76,
                "velocity": 40,
                "duration": 0.0681818181818179,
                "tempo": 120.0
            },
            {
                "start_time": 3.506818181818182,
                "end_time": 3.5749999999999997,
                "pitch": 87,
                "velocity": 40,
                "duration": 0.0681818181818179,
                "tempo": 120.0
            },
            {
                "start_time": 3.6113636363636363,
                "end_time": 3.6818181818181817,
                "pitch": 83,
                "velocity": 40,
                "duration": 0.07045454545454533,
                "tempo": 120.0
            },
            {
                "start_time": 3.6977272727272728,
                "end_time": 3.768181818181818,
                "pitch": 76,
                "velocity": 40,
                "duration": 0.07045454545454533,
                "tempo": 120.0
            },
            {
                "start_time": 3.786363636363636,
                "end_time": 3.8545454545454545,
                "pitch": 83,
                "velocity": 40,
                "duration": 0.06818181818181834,
                "tempo": 120.0
            },
            {
                "start_time": 3.8909090909090907,
                "end_time": 3.959090909090909,
                "pitch": 81,
                "velocity": 40,
                "duration": 0.06818181818181834,
                "tempo": 120.0
            },
            {
                "start_time": 3.977272727272727,
                "end_time": 4.040909090909091,
                "pitch": 78,
                "velocity": 40,
                "duration": 0.06363636363636394,
                "tempo": 120.0
            },
            {
                "start_time": 4.056818181818182,
                "end_time": 4.120454545454545,
                "pitch": 76,
                "velocity": 40,
                "duration": 0.06363636363636349,
                "tempo": 120.0
            },
            {
                "start_time": 4.152272727272727,
                "end_time": 4.218181818181818,
                "pitch": 81,
                "velocity": 40,
                "duration": 0.06590909090909047,
                "tempo": 120.0
            },
            {
                "start_time": 4.2340909090909085,
                "end_time": 4.297727272727273,
                "pitch": 86,
                "velocity": 40,
                "duration": 0.06363636363636438,
                "tempo": 120.0
            },
            {
                "start_time": 4.3136363636363635,
                "end_time": 4.377272727272727,
                "pitch": 78,
                "velocity": 40,
                "duration": 0.06363636363636349,
                "tempo": 120.0
            },
            {
                "start_time": 4.409090909090909,
                "end_time": 4.475,
                "pitch": 76,
                "velocity": 40,
                "duration": 0.06590909090909047,
                "tempo": 120.0
            },
            {
                "start_time": 4.49090909090909,
                "end_time": 4.559090909090909,
                "pitch": 81,
                "velocity": 40,
                "duration": 0.06818181818181834,
                "tempo": 120.0
            },
            {
                "start_time": 4.575,
                "end_time": 4.643181818181818,
                "pitch": 83,
                "velocity": 40,
                "duration": 0.06818181818181746,
                "tempo": 120.0
            },
            {
                "start_time": 4.677272727272727,
                "end_time": 4.743181818181818,
                "pitch": 90,
                "velocity": 40,
                "duration": 0.06590909090909136,
                "tempo": 120.0
            },
            {
                "start_time": 4.759090909090909,
                "end_time": 4.827272727272727,
                "pitch": 87,
                "velocity": 40,
                "duration": 0.06818181818181834,
                "tempo": 120.0
            },
            {
                "start_time": 4.843181818181818,
                "end_time": 4.911363636363636,
                "pitch": 76,
                "velocity": 40,
                "duration": 0.06818181818181834,
                "tempo": 120.0
            },
            {
                "start_time": 4.945454545454545,
                "end_time": 5.015909090909091,
                "pitch": 87,
                "velocity": 40,
                "duration": 0.07045454545454533,
                "tempo": 120.0
            },
            {
                "start_time": 5.031818181818181,
                "end_time": 5.102272727272727,
                "pitch": 83,
                "velocity": 40,
                "duration": 0.07045454545454533,
                "tempo": 120.0
            },
            {
                "start_time": 5.120454545454545,
                "end_time": 5.1886363636363635,
                "pitch": 76,
                "velocity": 40,
                "duration": 0.06818181818181834,
                "tempo": 120.0
            },
            {
                "start_time": 5.225,
                "end_time": 5.293181818181818,
                "pitch": 83,
                "velocity": 40,
                "duration": 0.06818181818181834,
                "tempo": 120.0
            },
            {
                "start_time": 5.3113636363636365,
                "end_time": 5.381818181818182,
                "pitch": 81,
                "velocity": 40,
                "duration": 0.07045454545454533,
                "tempo": 120.0
            },
            {
                "start_time": 5.3977272727272725,
                "end_time": 5.461363636363636,
                "pitch": 78,
                "velocity": 40,
                "duration": 0.06363636363636349,
                "tempo": 120.0
            },
            {
                "start_time": 5.493181818181818,
                "end_time": 5.556818181818182,
                "pitch": 76,
                "velocity": 40,
                "duration": 0.06363636363636349,
                "tempo": 120.0
            },
            {
                "start_time": 5.572727272727272,
                "end_time": 5.638636363636364,
                "pitch": 81,
                "velocity": 40,
                "duration": 0.06590909090909136,
                "tempo": 120.0
            },
            {
                "start_time": 5.654545454545454,
                "end_time": 5.718181818181818,
                "pitch": 86,
                "velocity": 40,
                "duration": 0.06363636363636349,
                "tempo": 120.0
            },
            {
                "start_time": 5.75,
                "end_time": 5.8136363636363635,
                "pitch": 78,
                "velocity": 40,
                "duration": 0.06363636363636349,
                "tempo": 120.0
            },
            {
                "start_time": 5.829545454545454,
                "end_time": 5.8977272727272725,
                "pitch": 76,
                "velocity": 40,
                "duration": 0.06818181818181834,
                "tempo": 120.0
            },
            {
                "start_time": 5.913636363636363,
                "end_time": 5.9818181818181815,
                "pitch": 81,
                "velocity": 40,
                "duration": 0.06818181818181834,
                "tempo": 120.0
            },
            {
                "start_time": 6.015909090909091,
                "end_time": 6.086363636363636,
                "pitch": 83,
                "velocity": 40,
                "duration": 0.07045454545454533,
                "tempo": 120.0
            },
            {
                "start_time": 6.102272727272727,
                "end_time": 6.170454545454545,
                "pitch": 90,
                "velocity": 40,
                "duration": 0.06818181818181834,
                "tempo": 120.0
            },
            {
                "start_time": 6.1886363636363635,
                "end_time": 6.256818181818182,
                "pitch": 87,
                "velocity": 40,
                "duration": 0.06818181818181834,
                "tempo": 120.0
            },
            {
                "start_time": 6.290909090909091,
                "end_time": 6.3590909090909085,
                "pitch": 76,
                "velocity": 40,
                "duration": 0.06818181818181746,
                "tempo": 120.0
            },
            {
                "start_time": 6.377272727272727,
                "end_time": 6.447727272727272,
                "pitch": 87,
                "velocity": 40,
                "duration": 0.07045454545454533,
                "tempo": 120.0
            },
            {
                "start_time": 6.465909090909091,
                "end_time": 6.536363636363636,
                "pitch": 83,
                "velocity": 40,
                "duration": 0.07045454545454533,
                "tempo": 120.0
            },
            {
                "start_time": 6.572727272727272,
                "end_time": 6.643181818181818,
                "pitch": 76,
                "velocity": 40,
                "duration": 0.07045454545454533,
                "tempo": 120.0
            },
            {
                "start_time": 6.661363636363636,
                "end_time": 6.7318181818181815,
                "pitch": 83,
                "velocity": 40,
                "duration": 0.07045454545454533,
                "tempo": 120.0
            },
            {
                "start_time": 6.75,
                "end_time": 6.820454545454545,
                "pitch": 81,
                "velocity": 40,
                "duration": 0.07045454545454533,
                "tempo": 120.0
            },
            {
                "start_time": 6.8568181818181815,
                "end_time": 6.922727272727272,
                "pitch": 78,
                "velocity": 40,
                "duration": 0.06590909090909047,
                "tempo": 120.0
            },
            {
                "start_time": 6.9386363636363635,
                "end_time": 7.004545454545454,
                "pitch": 76,
                "velocity": 40,
                "duration": 0.06590909090909047,
                "tempo": 120.0
            },
            {
                "start_time": 7.0204545454545455,
                "end_time": 7.086363636363636,
                "pitch": 81,
                "velocity": 40,
                "duration": 0.06590909090909047,
                "tempo": 120.0
            },
            {
                "start_time": 7.118181818181818,
                "end_time": 7.184090909090909,
                "pitch": 86,
                "velocity": 40,
                "duration": 0.06590909090909047,
                "tempo": 120.0
            },
            {
                "start_time": 7.199999999999999,
                "end_time": 7.265909090909091,
                "pitch": 78,
                "velocity": 40,
                "duration": 0.06590909090909136,
                "tempo": 120.0
            },
            {
                "start_time": 7.281818181818181,
                "end_time": 7.347727272727273,
                "pitch": 76,
                "velocity": 40,
                "duration": 0.06590909090909136,
                "tempo": 120.0
            },
            {
                "start_time": 7.381818181818182,
                "end_time": 7.452272727272727,
                "pitch": 81,
                "velocity": 40,
                "duration": 0.07045454545454533,
                "tempo": 120.0
            },
            {
                "start_time": 7.470454545454545,
                "end_time": 7.538636363636363,
                "pitch": 83,
                "velocity": 40,
                "duration": 0.06818181818181834,
                "tempo": 120.0
            },
            {
                "start_time": 7.556818181818182,
                "end_time": 7.627272727272727,
                "pitch": 90,
                "velocity": 40,
                "duration": 0.07045454545454533,
                "tempo": 120.0
            },
            {
                "start_time": 7.661363636363636,
                "end_time": 7.7318181818181815,
                "pitch": 87,
                "velocity": 40,
                "duration": 0.07045454545454533,
                "tempo": 120.0
            },
            {
                "start_time": 7.747727272727272,
                "end_time": 7.8181818181818175,
                "pitch": 76,
                "velocity": 40,
                "duration": 0.07045454545454533,
                "tempo": 120.0
            },
            {
                "start_time": 7.836363636363636,
                "end_time": 7.904545454545454,
                "pitch": 87,
                "velocity": 40,
                "duration": 0.06818181818181834,
                "tempo": 120.0
            },
            {
                "start_time": 7.9386363636363635,
                "end_time": 8.006818181818181,
                "pitch": 83,
                "velocity": 40,
                "duration": 0.06818181818181746,
                "tempo": 120.0
            },
            {
                "start_time": 8.022727272727272,
                "end_time": 8.09090909090909,
                "pitch": 76,
                "velocity": 40,
                "duration": 0.06818181818181834,
                "tempo": 120.0
            },
            {
                "start_time": 8.10909090909091,
                "end_time": 8.177272727272728,
                "pitch": 83,
                "velocity": 40,
                "duration": 0.06818181818181834,
                "tempo": 120.0
            },
            {
                "start_time": 8.211363636363636,
                "end_time": 8.279545454545454,
                "pitch": 81,
                "velocity": 40,
                "duration": 0.06818181818181834,
                "tempo": 120.0
            },
            {
                "start_time": 8.295454545454545,
                "end_time": 8.35909090909091,
                "pitch": 78,
                "velocity": 40,
                "duration": 0.06363636363636438,
                "tempo": 120.0
            },
            {
                "start_time": 8.375,
                "end_time": 8.438636363636363,
                "pitch": 76,
                "velocity": 40,
                "duration": 0.0636363636363626,
                "tempo": 120.0
            },
            {
                "start_time": 8.472727272727273,
                "end_time": 8.536363636363635,
                "pitch": 81,
                "velocity": 40,
                "duration": 0.0636363636363626,
                "tempo": 120.0
            },
            {
                "start_time": 8.552272727272728,
                "end_time": 8.61590909090909,
                "pitch": 86,
                "velocity": 40,
                "duration": 0.0636363636363626,
                "tempo": 120.0
            },
            {
                "start_time": 8.631818181818181,
                "end_time": 8.695454545454545,
                "pitch": 78,
                "velocity": 40,
                "duration": 0.06363636363636438,
                "tempo": 120.0
            },
            {
                "start_time": 8.727272727272727,
                "end_time": 8.793181818181818,
                "pitch": 76,
                "velocity": 40,
                "duration": 0.06590909090909136,
                "tempo": 120.0
            },
            {
                "start_time": 8.811363636363636,
                "end_time": 8.877272727272727,
                "pitch": 81,
                "velocity": 40,
                "duration": 0.06590909090909136,
                "tempo": 120.0
            },
            {
                "start_time": 8.893181818181818,
                "end_time": 8.961363636363636,
                "pitch": 83,
                "velocity": 40,
                "duration": 0.06818181818181834,
                "tempo": 120.0
            },
            {
                "start_time": 8.995454545454544,
                "end_time": 9.061363636363636,
                "pitch": 90,
                "velocity": 40,
                "duration": 0.06590909090909136,
                "tempo": 120.0
            },
            {
                "start_time": 9.077272727272726,
                "end_time": 9.145454545454545,
                "pitch": 87,
                "velocity": 40,
                "duration": 0.06818181818181834,
                "tempo": 120.0
            },
            {
                "start_time": 9.161363636363635,
                "end_time": 9.229545454545454,
                "pitch": 76,
                "velocity": 40,
                "duration": 0.06818181818181834,
                "tempo": 120.0
            },
            {
                "start_time": 9.263636363636364,
                "end_time": 9.334090909090909,
                "pitch": 87,
                "velocity": 40,
                "duration": 0.07045454545454533,
                "tempo": 120.0
            },
            {
                "start_time": 9.35,
                "end_time": 9.420454545454545,
                "pitch": 83,
                "velocity": 40,
                "duration": 0.07045454545454533,
                "tempo": 120.0
            },
            {
                "start_time": 9.438636363636363,
                "end_time": 9.506818181818181,
                "pitch": 76,
                "velocity": 40,
                "duration": 0.06818181818181834,
                "tempo": 120.0
            },
            {
                "start_time": 9.543181818181818,
                "end_time": 9.611363636363636,
                "pitch": 83,
                "velocity": 40,
                "duration": 0.06818181818181834,
                "tempo": 120.0
            },
            {
                "start_time": 9.629545454545454,
                "end_time": 9.7,
                "pitch": 81,
                "velocity": 40,
                "duration": 0.07045454545454533,
                "tempo": 120.0
            },
            {
                "start_time": 9.71590909090909,
                "end_time": 9.779545454545454,
                "pitch": 78,
                "velocity": 40,
                "duration": 0.06363636363636438,
                "tempo": 120.0
            },
            {
                "start_time": 9.811363636363636,
                "end_time": 9.877272727272727,
                "pitch": 76,
                "velocity": 40,
                "duration": 0.06590909090909136,
                "tempo": 120.0
            },
            {
                "start_time": 9.893181818181818,
                "end_time": 9.956818181818182,
                "pitch": 81,
                "velocity": 40,
                "duration": 0.06363636363636438,
                "tempo": 120.0
            },
            {
                "start_time": 9.972727272727273,
                "end_time": 10.036363636363635,
                "pitch": 86,
                "velocity": 40,
                "duration": 0.0636363636363626,
                "tempo": 120.0
            },
            {
                "start_time": 10.068181818181818,
                "end_time": 10.131818181818181,
                "pitch": 78,
                "velocity": 40,
                "duration": 0.0636363636363626,
                "tempo": 120.0
            },
            {
                "start_time": 10.147727272727272,
                "end_time": 10.213636363636363,
                "pitch": 76,
                "velocity": 40,
                "duration": 0.06590909090909136,
                "tempo": 120.0
            },
            {
                "start_time": 10.23181818181818,
                "end_time": 10.297727272727272,
                "pitch": 81,
                "velocity": 40,
                "duration": 0.06590909090909136,
                "tempo": 120.0
            },
            {
                "start_time": 10.331818181818182,
                "end_time": 10.4,
                "pitch": 83,
                "velocity": 40,
                "duration": 0.06818181818181834,
                "tempo": 120.0
            },
            {
                "start_time": 10.415909090909091,
                "end_time": 10.48181818181818,
                "pitch": 90,
                "velocity": 40,
                "duration": 0.06590909090908958,
                "tempo": 120.0
            },
            {
                "start_time": 10.5,
                "end_time": 10.56590909090909,
                "pitch": 87,
                "velocity": 40,
                "duration": 0.06590909090908958,
                "tempo": 120.0
            },
            {
                "start_time": 10.6,
                "end_time": 10.665909090909091,
                "pitch": 76,
                "velocity": 40,
                "duration": 0.06590909090909136,
                "tempo": 120.0
            },
            {
                "start_time": 10.684090909090909,
                "end_time": 10.754545454545454,
                "pitch": 87,
                "velocity": 40,
                "duration": 0.07045454545454533,
                "tempo": 120.0
            },
            {
                "start_time": 10.772727272727272,
                "end_time": 10.843181818181817,
                "pitch": 83,
                "velocity": 40,
                "duration": 0.07045454545454533,
                "tempo": 120.0
            },
            {
                "start_time": 10.879545454545454,
                "end_time": 10.95,
                "pitch": 76,
                "velocity": 40,
                "duration": 0.07045454545454533,
                "tempo": 120.0
            },
            {
                "start_time": 10.968181818181817,
                "end_time": 11.038636363636362,
                "pitch": 83,
                "velocity": 40,
                "duration": 0.07045454545454533,
                "tempo": 120.0
            },
            {
                "start_time": 11.056818181818182,
                "end_time": 11.127272727272727,
                "pitch": 81,
                "velocity": 40,
                "duration": 0.07045454545454533,
                "tempo": 120.0
            },
            {
                "start_time": 11.163636363636362,
                "end_time": 11.51590909090909,
                "pitch": 78,
                "velocity": 40,
                "duration": 0.3522727272727284,
                "tempo": 120.0
            },
            {
                "start_time": 11.51590909090909,
                "end_time": 12.218181818181817,
                "pitch": 67,
                "velocity": 40,
                "duration": 0.7022727272727263,
                "tempo": 120.0
            }
        ],
        "Acoustic Bass": [
            {
                "start_time": 0.0,
                "end_time": 0.02727272727272727,
                "pitch": 45,
                "velocity": 64,
                "duration": 0.02727272727272727,
                "tempo": 120.0
            },
            {
                "start_time": 0.056818181818181816,
                "end_time": 1.3045454545454545,
                "pitch": 45,
                "velocity": 64,
                "duration": 1.2477272727272726,
                "tempo": 120.0
            },
            {
                "start_time": 1.3227272727272728,
                "end_time": 2.8659090909090907,
                "pitch": 45,
                "velocity": 64,
                "duration": 1.543181818181818,
                "tempo": 120.0
            },
            {
                "start_time": 2.881818181818182,
                "end_time": 2.9477272727272728,
                "pitch": 47,
                "velocity": 64,
                "duration": 0.06590909090909092,
                "tempo": 120.0
            },
            {
                "start_time": 2.9636363636363634,
                "end_time": 4.218181818181818,
                "pitch": 47,
                "velocity": 64,
                "duration": 1.2545454545454544,
                "tempo": 120.0
            },
            {
                "start_time": 4.2340909090909085,
                "end_time": 5.718181818181818,
                "pitch": 47,
                "velocity": 64,
                "duration": 1.4840909090909093,
                "tempo": 120.0
            },
            {
                "start_time": 5.75,
                "end_time": 7.086363636363636,
                "pitch": 47,
                "velocity": 64,
                "duration": 1.336363636363636,
                "tempo": 120.0
            },
            {
                "start_time": 7.118181818181818,
                "end_time": 8.61590909090909,
                "pitch": 47,
                "velocity": 64,
                "duration": 1.4977272727272721,
                "tempo": 120.0
            },
            {
                "start_time": 8.631818181818181,
                "end_time": 9.956818181818182,
                "pitch": 49,
                "velocity": 64,
                "duration": 1.325000000000001,
                "tempo": 120.0
            },
            {
                "start_time": 9.972727272727273,
                "end_time": 12.218181818181817,
                "pitch": 49,
                "velocity": 64,
                "duration": 2.2454545454545443,
                "tempo": 120.0
            }
        ],
        "Trumpet": [
            {
                "start_time": 0.0,
                "end_time": 1.2204545454545455,
                "pitch": 54,
                "velocity": 40,
                "duration": 1.2204545454545455,
                "tempo": 120.0
            },
            {
                "start_time": 1.2386363636363635,
                "end_time": 1.3545454545454545,
                "pitch": 54,
                "velocity": 40,
                "duration": 0.11590909090909096,
                "tempo": 120.0
            },
            {
                "start_time": 1.4386363636363635,
                "end_time": 2.8659090909090907,
                "pitch": 54,
                "velocity": 40,
                "duration": 1.4272727272727272,
                "tempo": 120.0
            },
            {
                "start_time": 2.881818181818182,
                "end_time": 4.120454545454545,
                "pitch": 56,
                "velocity": 40,
                "duration": 1.2386363636363633,
                "tempo": 120.0
            },
            {
                "start_time": 4.152272727272727,
                "end_time": 4.265909090909091,
                "pitch": 56,
                "velocity": 40,
                "duration": 0.11363636363636331,
                "tempo": 120.0
            },
            {
                "start_time": 4.3136363636363635,
                "end_time": 5.718181818181818,
                "pitch": 56,
                "velocity": 40,
                "duration": 1.4045454545454543,
                "tempo": 120.0
            },
            {
                "start_time": 5.75,
                "end_time": 7.004545454545454,
                "pitch": 57,
                "velocity": 40,
                "duration": 1.254545454545454,
                "tempo": 120.0
            },
            {
                "start_time": 7.0204545454545455,
                "end_time": 7.134090909090909,
                "pitch": 57,
                "velocity": 40,
                "duration": 0.11363636363636331,
                "tempo": 120.0
            },
            {
                "start_time": 7.199999999999999,
                "end_time": 8.61590909090909,
                "pitch": 57,
                "velocity": 40,
                "duration": 1.415909090909091,
                "tempo": 120.0
            },
            {
                "start_time": 8.631818181818181,
                "end_time": 10.036363636363635,
                "pitch": 59,
                "velocity": 40,
                "duration": 1.4045454545454543,
                "tempo": 120.0
            }
        ],
        "Lead 2 (sawtooth)": [
            {
                "start_time": 10.415909090909091,
                "end_time": 10.754545454545454,
                "pitch": 66,
                "velocity": 64,
                "duration": 0.33863636363636296,
                "tempo": 120.0
            },
            {
                "start_time": 10.772727272727272,
                "end_time": 11.127272727272727,
                "pitch": 71,
                "velocity": 64,
                "duration": 0.3545454545454554,
                "tempo": 120.0
            },
            {
                "start_time": 11.163636363636362,
                "end_time": 12.218181818181817,
                "pitch": 78,
                "velocity": 64,
                "duration": 1.0545454545454547,
                "tempo": 120.0
            }
        ]
    }
}