{
    "track_id": "01 Last Attack_1",
    "mood": "angry",
    "instruments": {
        "Lead 1 (square)": [
            {
                "pitch": 0,
                "velocity": 0,
                "duration": 0.0023,
                "tempo": 0
            },
            {
                "pitch": 81,
                "velocity": 5,
                "duration": 0.0977,
                "tempo": 120.0
            },
            {
                "pitch": 84,
                "velocity": 5,
                "duration": 0.1,
                "tempo": 120.0
            },
            {
                "pitch": 0,
                "velocity": 0,
                "duration": 0.0023,
                "tempo": 0
            },
            {
                "pitch": 83,
                "velocity": 5,
                "duration": 0.1,
                "tempo": 120.0
            },
            {
                "pitch": 84,
                "velocity": 5,
                "duration": 0.1,
                "tempo": 120.0
            },
            {
                "pitch": 0,
                "velocity": 0,
                "duration": 0.0023,
                "tempo": 0
            },
            {
                "pitch": 81,
                "velocity": 5,
                "duration": 0.0977,
                "tempo": 120.0
            },
            {
                "pitch": 0,
                "velocity": 0,
                "duration": 0.0023,
                "tempo": 0
            },
            {
                "pitch": 84,
                "velocity": 5,
                "duration": 0.0977,
                "tempo": 120.0
            },
            {
                "pitch": 0,
                "velocity": 0,
                "duration": 0.0023,
                "tempo": 0
            },
            {
                "pitch": 83,
                "velocity": 5,
                "duration": 0.0977,
                "tempo": 120.0
            },
            {
                "pitch": 0,
                "velocity": 0,
                "duration": 0.0023,
                "tempo": 0
            },
            {
                "pitch": 84,
                "velocity": 5,
                "duration": 0.0977,
                "tempo": 120.0
            },
            {
                "pitch": 0,
                "velocity": 0,
                "duration": 0.0023,
                "tempo": 0
            },
            {
                "pitch": 81,
                "velocity": 5,
                "duration": 0.0977,
                "tempo": 120.0
            },
            {
                "pitch": 0,
                "velocity": 0,
                "duration": 0.0023,
                "tempo": 0
            },
            {
                "pitch": 84,
                "velocity": 5,
                "duration": 0.0977,
                "tempo": 120.0
            },
            {
                "pitch": 0,
                "velocity": 0,
                "duration": 0.0023,
                "tempo": 0
            },
            {
                "pitch": 83,
                "velocity": 5,
                "duration": 0.0977,
                "tempo": 120.0
            },
            {
                "pitch": 0,
                "velocity": 0,
                "duration": 0.0023,
                "tempo": 0
            },
            {
                "pitch": 84,
                "velocity": 5,
                "duration": 0.1,
                "tempo": 120.0
            },
            {
                "pitch": 81,
                "velocity": 5,
                "duration": 0.1,
                "tempo": 120.0
            },
            {
                "pitch": 84,
                "velocity": 5,
                "duration": 0.1,
                "tempo": 120.0
            },
            {
                "pitch": 83,
                "velocity": 5,
                "duration": 0.1,
                "tempo": 120.0
            },
            {
                "pitch": 84,
                "velocity": 5,
                "duration": 0.1,
                "tempo": 120.0
            },
            {
                "pitch": 81,
                "velocity": 5,
                "duration": 0.1,
                "tempo": 120.0
            },
            {
                "pitch": 84,
                "velocity": 5,
                "duration": 0.1,
                "tempo": 120.0
            },
            {
                "pitch": 83,
                "velocity": 5,
                "duration": 0.1,
                "tempo": 120.0
            },
            {
                "pitch": 84,
                "velocity": 5,
                "duration": 0.1,
                "tempo": 120.0
            },
            {
                "pitch": 81,
                "velocity": 5,
                "duration": 0.1023,
                "tempo": 120.0
            },
            {
                "pitch": 0,
                "velocity": 0,
                "duration": 0.0023,
                "tempo": 0
            },
            {
                "pitch": 84,
                "velocity": 5,
                "duration": 0.1,
                "tempo": 120.0
            },
            {
                "pitch": 0,
                "velocity": 0,
                "duration": 0.0023,
                "tempo": 0
            },
            {
                "pitch": 83,
                "velocity": 5,
                "duration": 0.1023,
                "tempo": 120.0
            },
            {
                "pitch": 84,
                "velocity": 5,
                "duration": 0.1023,
                "tempo": 120.0
            },
            {
                "pitch": 81,
                "velocity": 5,
                "duration": 0.0977,
                "tempo": 120.0
            },
            {
                "pitch": 84,
                "velocity": 5,
                "duration": 0.0977,
                "tempo": 120.0
            },
            {
                "pitch": 0,
                "velocity": 0,
                "duration": 0.0023,
                "tempo": 0
            },
            {
                "pitch": 83,
                "velocity": 5,
                "duration": 0.0955,
                "tempo": 120.0
            },
            {
                "pitch": 0,
                "velocity": 0,
                "duration": 0.0023,
                "tempo": 0
            },
            {
                "pitch": 84,
                "velocity": 5,
                "duration": 0.0977,
                "tempo": 120.0
            },
            {
                "pitch": 81,
                "velocity": 5,
                "duration": 0.1023,
                "tempo": 120.0
            },
            {
                "pitch": 84,
                "velocity": 5,
                "duration": 0.1023,
                "tempo": 120.0
            },
            {
                "pitch": 83,
                "velocity": 5,
                "duration": 0.1023,
                "tempo": 120.0
            },
            {
                "pitch": 0,
                "velocity": 0,
                "duration": 0.0023,
                "tempo": 0
            },
            {
                "pitch": 84,
                "velocity": 5,
                "duration": 0.1023,
                "tempo": 120.0
            },
            {
                "pitch": 81,
                "velocity": 5,
                "duration": 0.1,
                "tempo": 120.0
            },
            {
                "pitch": 84,
                "velocity": 5,
                "duration": 0.1,
                "tempo": 120.0
            },
            {
                "pitch": 0,
                "velocity": 0,
                "duration": 0.0023,
                "tempo": 0
            },
            {
                "pitch": 83,
                "velocity": 5,
                "duration": 0.1,
                "tempo": 120.0
            },
            {
                "pitch": 84,
                "velocity": 5,
                "duration": 0.1,
                "tempo": 120.0
            },
            {
                "pitch": 0,
                "velocity": 0,
                "duration": 0.0023,
                "tempo": 0
            },
            {
                "pitch": 81,
                "velocity": 5,
                "duration": 0.0977,
                "tempo": 120.0
            },
            {
                "pitch": 0,
                "velocity": 0,
                "duration": 0.0023,
                "tempo": 0
            },
            {
                "pitch": 84,
                "velocity": 5,
                "duration": 0.0977,
                "tempo": 120.0
            },
            {
                "pitch": 0,
                "velocity": 0,
                "duration": 0.0023,
                "tempo": 0
            },
            {
                "pitch": 83,
                "velocity": 5,
                "duration": 0.0977,
                "tempo": 120.0
            },
            {
                "pitch": 0,
                "velocity": 0,
                "duration": 0.0023,
                "tempo": 0
            },
            {
                "pitch": 84,
                "velocity": 5,
                "duration": 0.0977,
                "tempo": 120.0
            },
            {
                "pitch": 0,
                "velocity": 0,
                "duration": 0.0023,
                "tempo": 0
            },
            {
                "pitch": 81,
                "velocity": 5,
                "duration": 0.0977,
                "tempo": 120.0
            },
            {
                "pitch": 0,
                "velocity": 0,
                "duration": 0.0023,
                "tempo": 0
            },
            {
                "pitch": 84,
                "velocity": 5,
                "duration": 0.0977,
                "tempo": 120.0
            },
            {
                "pitch": 0,
                "velocity": 0,
                "duration": 0.0023,
                "tempo": 0
            },
            {
                "pitch": 83,
                "velocity": 5,
                "duration": 0.0977,
                "tempo": 120.0
            },
            {
                "pitch": 0,
                "velocity": 0,
                "duration": 0.0023,
                "tempo": 0
            },
            {
                "pitch": 84,
                "velocity": 5,
                "duration": 0.1,
                "tempo": 120.0
            },
            {
                "pitch": 81,
                "velocity": 5,
                "duration": 0.1,
                "tempo": 120.0
            },
            {
                "pitch": 84,
                "velocity": 5,
                "duration": 0.1,
                "tempo": 120.0
            },
            {
                "pitch": 0,
                "velocity": 0,
                "duration": 0.0023,
                "tempo": 0
            },
            {
                "pitch": 83,
                "velocity": 5,
                "duration": 0.1,
                "tempo": 120.0
            },
            {
                "pitch": 84,
                "velocity": 5,
                "duration": 0.1,
                "tempo": 120.0
            },
            {
                "pitch": 0,
                "velocity": 0,
                "duration": 0.0023,
                "tempo": 0
            },
            {
                "pitch": 81,
                "velocity": 5,
                "duration": 0.0977,
                "tempo": 120.0
            },
            {
                "pitch": 84,
                "velocity": 5,
                "duration": 0.1,
                "tempo": 120.0
            },
            {
                "pitch": 83,
                "velocity": 5,
                "duration": 0.1,
                "tempo": 120.0
            },
            {
                "pitch": 84,
                "velocity": 5,
                "duration": 0.1,
                "tempo": 120.0
            },
            {
                "pitch": 0,
                "velocity": 0,
                "duration": 0.0023,
                "tempo": 0
            },
            {
                "pitch": 81,
                "velocity": 5,
                "duration": 0.0977,
                "tempo": 120.0
            },
            {
                "pitch": 0,
                "velocity": 0,
                "duration": 0.0023,
                "tempo": 0
            },
            {
                "pitch": 84,
                "velocity": 5,
                "duration": 0.1,
                "tempo": 120.0
            },
            {
                "pitch": 83,
                "velocity": 5,
                "duration": 0.1,
                "tempo": 120.0
            },
            {
                "pitch": 0,
                "velocity": 0,
                "duration": 0.0023,
                "tempo": 0
            },
            {
                "pitch": 84,
                "velocity": 5,
                "duration": 0.1,
                "tempo": 120.0
            },
            {
                "pitch": 81,
                "velocity": 5,
                "duration": 0.1,
                "tempo": 120.0
            },
            {
                "pitch": 84,
                "velocity": 5,
                "duration": 0.1,
                "tempo": 120.0
            },
            {
                "pitch": 83,
                "velocity": 5,
                "duration": 0.1,
                "tempo": 120.0
            },
            {
                "pitch": 84,
                "velocity": 5,
                "duration": 0.1,
                "tempo": 120.0
            },
            {
                "pitch": 81,
                "velocity": 5,
                "duration": 0.1,
                "tempo": 120.0
            },
            {
                "pitch": 0,
                "velocity": 0,
                "duration": 0.0023,
                "tempo": 0
            },
            {
                "pitch": 84,
                "velocity": 5,
                "duration": 0.0977,
                "tempo": 120.0
            },
            {
                "pitch": 0,
                "velocity": 0,
                "duration": 0.0023,
                "tempo": 0
            },
            {
                "pitch": 83,
                "velocity": 5,
                "duration": 0.1,
                "tempo": 120.0
            },
            {
                "pitch": 84,
                "velocity": 5,
                "duration": 0.1,
                "tempo": 120.0
            },
            {
                "pitch": 0,
                "velocity": 0,
                "duration": 0.0023,
                "tempo": 0
            },
            {
                "pitch": 81,
                "velocity": 5,
                "duration": 0.1,
                "tempo": 120.0
            },
            {
                "pitch": 84,
                "velocity": 5,
                "duration": 0.1,
                "tempo": 120.0
            },
            {
                "pitch": 83,
                "velocity": 5,
                "duration": 0.1,
                "tempo": 120.0
            },
            {
                "pitch": 0,
                "velocity": 0,
                "duration": 0.0023,
                "tempo": 0
            },
            {
                "pitch": 84,
                "velocity": 5,
                "duration": 0.1,
                "tempo": 120.0
            },
            {
                "pitch": 81,
                "velocity": 5,
                "duration": 0.1,
                "tempo": 120.0
            },
            {
                "pitch": 84,
                "velocity": 5,
                "duration": 0.1,
                "tempo": 120.0
            },
            {
                "pitch": 83,
                "velocity": 5,
                "duration": 0.1,
                "tempo": 120.0
            },
            {
                "pitch": 84,
                "velocity": 5,
                "duration": 0.1,
                "tempo": 120.0
            },
            {
                "pitch": 81,
                "velocity": 5,
                "duration": 0.1,
                "tempo": 120.0
            },
            {
                "pitch": 0,
                "velocity": 0,
                "duration": 0.0023,
                "tempo": 0
            },
            {
                "pitch": 84,
                "velocity": 5,
                "duration": 0.1,
                "tempo": 120.0
            },
            {
                "pitch": 83,
                "velocity": 5,
                "duration": 0.1,
                "tempo": 120.0
            },
            {
                "pitch": 84,
                "velocity": 5,
                "duration": 0.1,
                "tempo": 120.0
            },
            {
                "pitch": 0,
                "velocity": 0,
                "duration": 0.0023,
                "tempo": 0
            },
            {
                "pitch": 81,
                "velocity": 5,
                "duration": 0.0977,
                "tempo": 120.0
            },
            {
                "pitch": 0,
                "velocity": 0,
                "duration": 0.0023,
                "tempo": 0
            },
            {
                "pitch": 84,
                "velocity": 5,
                "duration": 0.0977,
                "tempo": 120.0
            },
            {
                "pitch": 0,
                "velocity": 0,
                "duration": 0.0023,
                "tempo": 0
            },
            {
                "pitch": 83,
                "velocity": 5,
                "duration": 0.0977,
                "tempo": 120.0
            },
            {
                "pitch": 0,
                "velocity": 0,
                "duration": 0.0023,
                "tempo": 0
            },
            {
                "pitch": 84,
                "velocity": 5,
                "duration": 0.1,
                "tempo": 120.0
            },
            {
                "pitch": 79,
                "velocity": 5,
                "duration": 0.1,
                "tempo": 120.0
            },
            {
                "pitch": 84,
                "velocity": 5,
                "duration": 0.1,
                "tempo": 120.0
            },
            {
                "pitch": 83,
                "velocity": 5,
                "duration": 0.1,
                "tempo": 120.0
            },
            {
                "pitch": 84,
                "velocity": 5,
                "duration": 0.1,
                "tempo": 120.0
            },
            {
                "pitch": 79,
                "velocity": 5,
                "duration": 0.1,
                "tempo": 120.0
            },
            {
                "pitch": 84,
                "velocity": 5,
                "duration": 0.1,
                "tempo": 120.0
            },
            {
                "pitch": 0,
                "velocity": 0,
                "duration": 0.0023,
                "tempo": 0
            },
            {
                "pitch": 83,
                "velocity": 5,
                "duration": 0.1,
                "tempo": 120.0
            },
            {
                "pitch": 84,
                "velocity": 5,
                "duration": 0.1,
                "tempo": 120.0
            },
            {
                "pitch": 0,
                "velocity": 0,
                "duration": 0.0023,
                "tempo": 0
            },
            {
                "pitch": 79,
                "velocity": 5,
                "duration": 0.0977,
                "tempo": 120.0
            },
            {
                "pitch": 0,
                "velocity": 0,
                "duration": 0.0023,
                "tempo": 0
            },
            {
                "pitch": 84,
                "velocity": 5,
                "duration": 0.1,
                "tempo": 120.0
            },
            {
                "pitch": 83,
                "velocity": 5,
                "duration": 0.1,
                "tempo": 120.0
            },
            {
                "pitch": 0,
                "velocity": 0,
                "duration": 0.0023,
                "tempo": 0
            },
            {
                "pitch": 84,
                "velocity": 5,
                "duration": 0.1,
                "tempo": 120.0
            },
            {
                "pitch": 79,
                "velocity": 5,
                "duration": 0.1023,
                "tempo": 120.0
            },
            {
                "pitch": 84,
                "velocity": 5,
                "duration": 0.1023,
                "tempo": 120.0
            },
            {
                "pitch": 83,
                "velocity": 5,
                "duration": 0.1023,
                "tempo": 120.0
            },
            {
                "pitch": 0,
                "velocity": 0,
                "duration": 0.0023,
                "tempo": 0
            },
            {
                "pitch": 84,
                "velocity": 5,
                "duration": 0.1023,
                "tempo": 120.0
            },
            {
                "pitch": 80,
                "velocity": 5,
                "duration": 0.1,
                "tempo": 120.0
            },
            {
                "pitch": 86,
                "velocity": 5,
                "duration": 0.1,
                "tempo": 120.0
            },
            {
                "pitch": 0,
                "velocity": 0,
                "duration": 0.0023,
                "tempo": 0
            },
            {
                "pitch": 83,
                "velocity": 5,
                "duration": 0.1,
                "tempo": 120.0
            },
            {
                "pitch": 86,
                "velocity": 5,
                "duration": 0.1,
                "tempo": 120.0
            },
            {
                "pitch": 80,
                "velocity": 5,
                "duration": 0.1,
                "tempo": 120.0
            },
            {
                "pitch": 0,
                "velocity": 0,
                "duration": 0.0023,
                "tempo": 0
            },
            {
                "pitch": 86,
                "velocity": 5,
                "duration": 0.1,
                "tempo": 120.0
            },
            {
                "pitch": 83,
                "velocity": 5,
                "duration": 0.1,
                "tempo": 120.0
            },
            {
                "pitch": 86,
                "velocity": 5,
                "duration": 0.1,
                "tempo": 120.0
            },
            {
                "pitch": 0,
                "velocity": 0,
                "duration": 0.0023,
                "tempo": 0
            },
            {
                "pitch": 80,
                "velocity": 5,
                "duration": 0.0977,
                "tempo": 120.0
            },
            {
                "pitch": 86,
                "velocity": 5,
                "duration": 0.0977,
                "tempo": 120.0
            },
            {
                "pitch": 83,
                "velocity": 5,
                "duration": 0.0977,
                "tempo": 120.0
            },
            {
                "pitch": 86,
                "velocity": 5,
                "duration": 0.0977,
                "tempo": 120.0
            },
            {
                "pitch": 0,
                "velocity": 0,
                "duration": 0.0023,
                "tempo": 0
            },
            {
                "pitch": 80,
                "velocity": 5,
                "duration": 0.1,
                "tempo": 120.0
            },
            {
                "pitch": 0,
                "velocity": 0,
                "duration": 0.0023,
                "tempo": 0
            },
            {
                "pitch": 86,
                "velocity": 5,
                "duration": 0.1023,
                "tempo": 120.0
            },
            {
                "pitch": 83,
                "velocity": 5,
                "duration": 0.1023,
                "tempo": 120.0
            },
            {
                "pitch": 86,
                "velocity": 5,
                "duration": 0.1023,
                "tempo": 120.0
            },
            {
                "pitch": 0,
                "velocity": 0,
                "duration": 0.0023,
                "tempo": 0
            },
            {
                "pitch": 80,
                "velocity": 5,
                "duration": 0.0955,
                "tempo": 120.0
            },
            {
                "pitch": 0,
                "velocity": 0,
                "duration": 0.0023,
                "tempo": 0
            },
            {
                "pitch": 86,
                "velocity": 5,
                "duration": 0.0955,
                "tempo": 120.0
            },
            {
                "pitch": 0,
                "velocity": 0,
                "duration": 0.0023,
                "tempo": 0
            },
            {
                "pitch": 83,
                "velocity": 5,
                "duration": 0.0977,
                "tempo": 120.0
            },
            {
                "pitch": 86,
                "velocity": 5,
                "duration": 0.0977,
                "tempo": 120.0
            },
            {
                "pitch": 80,
                "velocity": 5,
                "duration": 0.1023,
                "tempo": 120.0
            },
            {
                "pitch": 86,
                "velocity": 5,
                "duration": 0.1023,
                "tempo": 120.0
            },
            {
                "pitch": 0,
                "velocity": 0,
                "duration": 0.0023,
                "tempo": 0
            },
            {
                "pitch": 83,
                "velocity": 5,
                "duration": 0.1,
                "tempo": 120.0
            },
            {
                "pitch": 0,
                "velocity": 0,
                "duration": 0.0023,
                "tempo": 0
            },
            {
                "pitch": 86,
                "velocity": 5,
                "duration": 0.1023,
                "tempo": 120.0
            },
            {
                "pitch": 80,
                "velocity": 5,
                "duration": 0.1,
                "tempo": 120.0
            },
            {
                "pitch": 86,
                "velocity": 5,
                "duration": 0.1,
                "tempo": 120.0
            },
            {
                "pitch": 0,
                "velocity": 0,
                "duration": 0.0023,
                "tempo": 0
            },
            {
                "pitch": 83,
                "velocity": 5,
                "duration": 0.1,
                "tempo": 120.0
            },
            {
                "pitch": 86,
                "velocity": 5,
                "duration": 0.1,
                "tempo": 120.0
            },
            {
                "pitch": 0,
                "velocity": 0,
                "duration": 0.0023,
                "tempo": 0
            },
            {
                "pitch": 80,
                "velocity": 5,
                "duration": 0.0977,
                "tempo": 120.0
            },
            {
                "pitch": 0,
                "velocity": 0,
                "duration": 0.0023,
                "tempo": 0
            },
            {
                "pitch": 86,
                "velocity": 5,
                "duration": 0.0977,
                "tempo": 120.0
            },
            {
                "pitch": 0,
                "velocity": 0,
                "duration": 0.0023,
                "tempo": 0
            },
            {
                "pitch": 83,
                "velocity": 5,
                "duration": 0.0977,
                "tempo": 120.0
            },
            {
                "pitch": 0,
                "velocity": 0,
                "duration": 0.0023,
                "tempo": 0
            },
            {
                "pitch": 86,
                "velocity": 5,
                "duration": 0.1,
                "tempo": 120.0
            },
            {
                "pitch": 0,
                "velocity": 0,
                "duration": 75.5773,
                "tempo": 0
            },
            {
                "pitch": 81,
                "velocity": 5,
                "duration": 0.0977,
                "tempo": 120.0
            },
            {
                "pitch": 0,
                "velocity": 0,
                "duration": 0.0023,
                "tempo": 0
            },
            {
                "pitch": 84,
                "velocity": 5,
                "duration": 0.1,
                "tempo": 120.0
            },
            {
                "pitch": 83,
                "velocity": 5,
                "duration": 0.1,
                "tempo": 120.0
            },
            {
                "pitch": 0,
                "velocity": 0,
                "duration": 0.0023,
                "tempo": 0
            },
            {
                "pitch": 84,
                "velocity": 5,
                "duration": 0.0977,
                "tempo": 120.0
            },
            {
                "pitch": 0,
                "velocity": 0,
                "duration": 0.0023,
                "tempo": 0
            },
            {
                "pitch": 81,
                "velocity": 5,
                "duration": 0.1023,
                "tempo": 120.0
            },
            {
                "pitch": 84,
                "velocity": 5,
                "duration": 0.1023,
                "tempo": 120.0
            },
            {
                "pitch": 83,
                "velocity": 5,
                "duration": 0.1023,
                "tempo": 120.0
            },
            {
                "pitch": 0,
                "velocity": 0,
                "duration": 0.0023,
                "tempo": 0
            },
            {
                "pitch": 84,
                "velocity": 5,
                "duration": 0.1,
                "tempo": 120.0
            },
            {
                "pitch": 0,
                "velocity": 0,
                "duration": 0.0023,
                "tempo": 0
            },
            {
                "pitch": 81,
                "velocity": 5,
                "duration": 0.0977,
                "tempo": 120.0
            },
            {
                "pitch": 84,
                "velocity": 5,
                "duration": 0.0977,
                "tempo": 120.0
            },
            {
                "pitch": 0,
                "velocity": 0,
                "duration": 0.0023,
                "tempo": 0
            },
            {
                "pitch": 83,
                "velocity": 5,
                "duration": 0.0955,
                "tempo": 120.0
            },
            {
                "pitch": 0,
                "velocity": 0,
                "duration": 0.0023,
                "tempo": 0
            },
            {
                "pitch": 84,
                "velocity": 5,
                "duration": 0.0955,
                "tempo": 120.0
            },
            {
                "pitch": 0,
                "velocity": 0,
                "duration": 0.0023,
                "tempo": 0
            },
            {
                "pitch": 81,
                "velocity": 5,
                "duration": 0.1,
                "tempo": 120.0
            },
            {
                "pitch": 0,
                "velocity": 0,
                "duration": 0.0023,
                "tempo": 0
            },
            {
                "pitch": 84,
                "velocity": 5,
                "duration": 0.1,
                "tempo": 120.0
            },
            {
                "pitch": 0,
                "velocity": 0,
                "duration": 0.0023,
                "tempo": 0
            },
            {
                "pitch": 83,
                "velocity": 5,
                "duration": 0.1023,
                "tempo": 120.0
            },
            {
                "pitch": 84,
                "velocity": 5,
                "duration": 0.1023,
                "tempo": 120.0
            },
            {
                "pitch": 0,
                "velocity": 0,
                "duration": 0.0023,
                "tempo": 0
            },
            {
                "pitch": 81,
                "velocity": 5,
                "duration": 0.1,
                "tempo": 120.0
            },
            {
                "pitch": 84,
                "velocity": 5,
                "duration": 0.1,
                "tempo": 120.0
            },
            {
                "pitch": 0,
                "velocity": 0,
                "duration": 0.0023,
                "tempo": 0
            },
            {
                "pitch": 83,
                "velocity": 5,
                "duration": 0.0977,
                "tempo": 120.0
            },
            {
                "pitch": 0,
                "velocity": 0,
                "duration": 0.0023,
                "tempo": 0
            },
            {
                "pitch": 84,
                "velocity": 5,
                "duration": 0.1,
                "tempo": 120.0
            },
            {
                "pitch": 81,
                "velocity": 5,
                "duration": 0.1,
                "tempo": 120.0
            },
            {
                "pitch": 0,
                "velocity": 0,
                "duration": 0.0023,
                "tempo": 0
            },
            {
                "pitch": 84,
                "velocity": 5,
                "duration": 0.0977,
                "tempo": 120.0
            },
            {
                "pitch": 0,
                "velocity": 0,
                "duration": 0.0023,
                "tempo": 0
            },
            {
                "pitch": 83,
                "velocity": 5,
                "duration": 0.1,
                "tempo": 120.0
            },
            {
                "pitch": 84,
                "velocity": 5,
                "duration": 0.1,
                "tempo": 120.0
            },
            {
                "pitch": 0,
                "velocity": 0,
                "duration": 0.0023,
                "tempo": 0
            },
            {
                "pitch": 81,
                "velocity": 5,
                "duration": 0.0977,
                "tempo": 120.0
            },
            {
                "pitch": 0,
                "velocity": 0,
                "duration": 0.0023,
                "tempo": 0
            },
            {
                "pitch": 84,
                "velocity": 5,
                "duration": 0.0977,
                "tempo": 120.0
            },
            {
                "pitch": 0,
                "velocity": 0,
                "duration": 0.0023,
                "tempo": 0
            },
            {
                "pitch": 83,
                "velocity": 5,
                "duration": 0.0977,
                "tempo": 120.0
            },
            {
                "pitch": 0,
                "velocity": 0,
                "duration": 0.0023,
                "tempo": 0
            },
            {
                "pitch": 84,
                "velocity": 5,
                "duration": 0.0977,
                "tempo": 120.0
            },
            {
                "pitch": 0,
                "velocity": 0,
                "duration": 0.0023,
                "tempo": 0
            },
            {
                "pitch": 81,
                "velocity": 5,
                "duration": 0.1,
                "tempo": 120.0
            },
            {
                "pitch": 84,
                "velocity": 5,
                "duration": 0.1,
                "tempo": 120.0
            },
            {
                "pitch": 0,
                "velocity": 0,
                "duration": 0.0023,
                "tempo": 0
            },
            {
                "pitch": 83,
                "velocity": 5,
                "duration": 0.0977,
                "tempo": 120.0
            },
            {
                "pitch": 0,
                "velocity": 0,
                "duration": 0.0023,
                "tempo": 0
            },
            {
                "pitch": 84,
                "velocity": 5,
                "duration": 0.1,
                "tempo": 120.0
            },
            {
                "pitch": 81,
                "velocity": 5,
                "duration": 0.1,
                "tempo": 120.0
            },
            {
                "pitch": 84,
                "velocity": 5,
                "duration": 0.1,
                "tempo": 120.0
            },
            {
                "pitch": 83,
                "velocity": 5,
                "duration": 0.1,
                "tempo": 120.0
            },
            {
                "pitch": 0,
                "velocity": 0,
                "duration": 0.0023,
                "tempo": 0
            },
            {
                "pitch": 84,
                "velocity": 5,
                "duration": 0.0977,
                "tempo": 120.0
            },
            {
                "pitch": 0,
                "velocity": 0,
                "duration": 0.0023,
                "tempo": 0
            },
            {
                "pitch": 81,
                "velocity": 5,
                "duration": 0.0977,
                "tempo": 120.0
            },
            {
                "pitch": 0,
                "velocity": 0,
                "duration": 0.0023,
                "tempo": 0
            },
            {
                "pitch": 84,
                "velocity": 5,
                "duration": 0.1,
                "tempo": 120.0
            },
            {
                "pitch": 83,
                "velocity": 5,
                "duration": 0.1,
                "tempo": 120.0
            },
            {
                "pitch": 0,
                "velocity": 0,
                "duration": 0.0023,
                "tempo": 0
            },
            {
                "pitch": 84,
                "velocity": 5,
                "duration": 0.0977,
                "tempo": 120.0
            },
            {
                "pitch": 0,
                "velocity": 0,
                "duration": 0.0023,
                "tempo": 0
            },
            {
                "pitch": 81,
                "velocity": 5,
                "duration": 0.1,
                "tempo": 120.0
            },
            {
                "pitch": 84,
                "velocity": 5,
                "duration": 0.1,
                "tempo": 120.0
            },
            {
                "pitch": 0,
                "velocity": 0,
                "duration": 0.0023,
                "tempo": 0
            },
            {
                "pitch": 83,
                "velocity": 5,
                "duration": 0.0977,
                "tempo": 120.0
            },
            {
                "pitch": 0,
                "velocity": 0,
                "duration": 0.0023,
                "tempo": 0
            },
            {
                "pitch": 84,
                "velocity": 5,
                "duration": 0.1,
                "tempo": 120.0
            },
            {
                "pitch": 81,
                "velocity": 5,
                "duration": 0.1,
                "tempo": 120.0
            },
            {
                "pitch": 84,
                "velocity": 5,
                "duration": 0.1,
                "tempo": 120.0
            },
            {
                "pitch": 83,
                "velocity": 5,
                "duration": 0.1,
                "tempo": 120.0
            },
            {
                "pitch": 0,
                "velocity": 0,
                "duration": 0.0023,
                "tempo": 0
            },
            {
                "pitch": 84,
                "velocity": 5,
                "duration": 0.0977,
                "tempo": 120.0
            },
            {
                "pitch": 0,
                "velocity": 0,
                "duration": 0.0023,
                "tempo": 0
            },
            {
                "pitch": 81,
                "velocity": 5,
                "duration": 0.0977,
                "tempo": 120.0
            },
            {
                "pitch": 0,
                "velocity": 0,
                "duration": 0.0023,
                "tempo": 0
            },
            {
                "pitch": 84,
                "velocity": 5,
                "duration": 0.1,
                "tempo": 120.0
            },
            {
                "pitch": 83,
                "velocity": 5,
                "duration": 0.1,
                "tempo": 120.0
            },
            {
                "pitch": 0,
                "velocity": 0,
                "duration": 0.0023,
                "tempo": 0
            },
            {
                "pitch": 84,
                "velocity": 5,
                "duration": 0.0977,
                "tempo": 120.0
            },
            {
                "pitch": 0,
                "velocity": 0,
                "duration": 0.0023,
                "tempo": 0
            },
            {
                "pitch": 81,
                "velocity": 5,
                "duration": 0.0977,
                "tempo": 120.0
            },
            {
                "pitch": 0,
                "velocity": 0,
                "duration": 0.0023,
                "tempo": 0
            },
            {
                "pitch": 84,
                "velocity": 5,
                "duration": 0.0977,
                "tempo": 120.0
            },
            {
                "pitch": 0,
                "velocity": 0,
                "duration": 0.0023,
                "tempo": 0
            },
            {
                "pitch": 83,
                "velocity": 5,
                "duration": 0.1,
                "tempo": 120.0
            },
            {
                "pitch": 84,
                "velocity": 5,
                "duration": 0.1,
                "tempo": 120.0
            },
            {
                "pitch": 81,
                "velocity": 5,
                "duration": 0.1,
                "tempo": 120.0
            },
            {
                "pitch": 0,
                "velocity": 0,
                "duration": 0.0023,
                "tempo": 0
            },
            {
                "pitch": 84,
                "velocity": 5,
                "duration": 0.0977,
                "tempo": 120.0
            },
            {
                "pitch": 0,
                "velocity": 0,
                "duration": 0.0023,
                "tempo": 0
            },
            {
                "pitch": 83,
                "velocity": 5,
                "duration": 0.1,
                "tempo": 120.0
            },
            {
                "pitch": 84,
                "velocity": 5,
                "duration": 0.1,
                "tempo": 120.0
            },
            {
                "pitch": 0,
                "velocity": 0,
                "duration": 0.0023,
                "tempo": 0
            },
            {
                "pitch": 81,
                "velocity": 5,
                "duration": 0.0977,
                "tempo": 120.0
            },
            {
                "pitch": 0,
                "velocity": 0,
                "duration": 0.0023,
                "tempo": 0
            },
            {
                "pitch": 84,
                "velocity": 5,
                "duration": 0.1,
                "tempo": 120.0
            },
            {
                "pitch": 83,
                "velocity": 5,
                "duration": 0.1,
                "tempo": 120.0
            },
            {
                "pitch": 0,
                "velocity": 0,
                "duration": 0.0023,
                "tempo": 0
            },
            {
                "pitch": 84,
                "velocity": 5,
                "duration": 0.0977,
                "tempo": 120.0
            },
            {
                "pitch": 0,
                "velocity": 0,
                "duration": 0.0023,
                "tempo": 0
            },
            {
                "pitch": 81,
                "velocity": 5,
                "duration": 0.1,
                "tempo": 120.0
            },
            {
                "pitch": 0,
                "velocity": 0,
                "duration": 0.0023,
                "tempo": 0
            },
            {
                "pitch": 84,
                "velocity": 5,
                "duration": 0.1023,
                "tempo": 120.0
            },
            {
                "pitch": 83,
                "velocity": 5,
                "duration": 0.1023,
                "tempo": 120.0
            },
            {
                "pitch": 0,
                "velocity": 0,
                "duration": 0.0023,
                "tempo": 0
            },
            {
                "pitch": 84,
                "velocity": 5,
                "duration": 0.1,
                "tempo": 120.0
            },
            {
                "pitch": 0,
                "velocity": 0,
                "duration": 0.0023,
                "tempo": 0
            },
            {
                "pitch": 81,
                "velocity": 5,
                "duration": 0.1,
                "tempo": 120.0
            },
            {
                "pitch": 84,
                "velocity": 5,
                "duration": 0.1,
                "tempo": 120.0
            },
            {
                "pitch": 83,
                "velocity": 5,
                "duration": 0.1,
                "tempo": 120.0
            },
            {
                "pitch": 84,
                "velocity": 5,
                "duration": 0.1,
                "tempo": 120.0
            },
            {
                "pitch": 81,
                "velocity": 5,
                "duration": 0.0977,
                "tempo": 120.0
            },
            {
                "pitch": 0,
                "velocity": 0,
                "duration": 0.0023,
                "tempo": 0
            },
            {
                "pitch": 84,
                "velocity": 5,
                "duration": 0.0955,
                "tempo": 120.0
            },
            {
                "pitch": 0,
                "velocity": 0,
                "duration": 0.0023,
                "tempo": 0
            },
            {
                "pitch": 83,
                "velocity": 5,
                "duration": 0.0955,
                "tempo": 120.0
            },
            {
                "pitch": 0,
                "velocity": 0,
                "duration": 0.0023,
                "tempo": 0
            },
            {
                "pitch": 84,
                "velocity": 5,
                "duration": 0.0977,
                "tempo": 120.0
            },
            {
                "pitch": 81,
                "velocity": 5,
                "duration": 0.1,
                "tempo": 120.0
            },
            {
                "pitch": 0,
                "velocity": 0,
                "duration": 0.0023,
                "tempo": 0
            },
            {
                "pitch": 84,
                "velocity": 5,
                "duration": 0.1023,
                "tempo": 120.0
            },
            {
                "pitch": 83,
                "velocity": 5,
                "duration": 0.1023,
                "tempo": 120.0
            },
            {
                "pitch": 0,
                "velocity": 0,
                "duration": 0.0023,
                "tempo": 0
            },
            {
                "pitch": 84,
                "velocity": 5,
                "duration": 0.1,
                "tempo": 120.0
            },
            {
                "pitch": 0,
                "velocity": 0,
                "duration": 0.0023,
                "tempo": 0
            },
            {
                "pitch": 79,
                "velocity": 5,
                "duration": 0.0977,
                "tempo": 120.0
            },
            {
                "pitch": 84,
                "velocity": 5,
                "duration": 0.0977,
                "tempo": 120.0
            },
            {
                "pitch": 83,
                "velocity": 5,
                "duration": 0.0977,
                "tempo": 120.0
            },
            {
                "pitch": 0,
                "velocity": 0,
                "duration": 0.0023,
                "tempo": 0
            },
            {
                "pitch": 84,
                "velocity": 5,
                "duration": 0.0955,
                "tempo": 120.0
            },
            {
                "pitch": 0,
                "velocity": 0,
                "duration": 0.0023,
                "tempo": 0
            },
            {
                "pitch": 79,
                "velocity": 5,
                "duration": 0.1,
                "tempo": 120.0
            },
            {
                "pitch": 0,
                "velocity": 0,
                "duration": 0.0023,
                "tempo": 0
            },
            {
                "pitch": 84,
                "velocity": 5,
                "duration": 0.1,
                "tempo": 120.0
            },
            {
                "pitch": 0,
                "velocity": 0,
                "duration": 0.0023,
                "tempo": 0
            },
            {
                "pitch": 83,
                "velocity": 5,
                "duration": 0.1023,
                "tempo": 120.0
            },
            {
                "pitch": 84,
                "velocity": 5,
                "duration": 0.1023,
                "tempo": 120.0
            },
            {
                "pitch": 0,
                "velocity": 0,
                "duration": 0.0023,
                "tempo": 0
            },
            {
                "pitch": 79,
                "velocity": 5,
                "duration": 0.0955,
                "tempo": 120.0
            },
            {
                "pitch": 0,
                "velocity": 0,
                "duration": 0.0023,
                "tempo": 0
            },
            {
                "pitch": 84,
                "velocity": 5,
                "duration": 0.0955,
                "tempo": 120.0
            },
            {
                "pitch": 0,
                "velocity": 0,
                "duration": 0.0023,
                "tempo": 0
            },
            {
                "pitch": 83,
                "velocity": 5,
                "duration": 0.0977,
                "tempo": 120.0
            },
            {
                "pitch": 84,
                "velocity": 5,
                "duration": 0.0977,
                "tempo": 120.0
            },
            {
                "pitch": 0,
                "velocity": 0,
                "duration": 0.0023,
                "tempo": 0
            },
            {
                "pitch": 79,
                "velocity": 5,
                "duration": 0.1,
                "tempo": 120.0
            },
            {
                "pitch": 84,
                "velocity": 5,
                "duration": 0.1023,
                "tempo": 120.0
            },
            {
                "pitch": 0,
                "velocity": 0,
                "duration": 0.0023,
                "tempo": 0
            },
            {
                "pitch": 83,
                "velocity": 5,
                "duration": 0.1,
                "tempo": 120.0
            },
            {
                "pitch": 0,
                "velocity": 0,
                "duration": 0.0023,
                "tempo": 0
            },
            {
                "pitch": 84,
                "velocity": 5,
                "duration": 0.1,
                "tempo": 120.0
            },
            {
                "pitch": 0,
                "velocity": 0,
                "duration": 0.0023,
                "tempo": 0
            },
            {
                "pitch": 80,
                "velocity": 5,
                "duration": 0.1,
                "tempo": 120.0
            },
            {
                "pitch": 0,
                "velocity": 0,
                "duration": 0.0023,
                "tempo": 0
            },
            {
                "pitch": 86,
                "velocity": 5,
                "duration": 0.0977,
                "tempo": 120.0
            },
            {
                "pitch": 0,
                "velocity": 0,
                "duration": 0.0023,
                "tempo": 0
            },
            {
                "pitch": 83,
                "velocity": 5,
                "duration": 0.1,
                "tempo": 120.0
            },
            {
                "pitch": 86,
                "velocity": 5,
                "duration": 0.1,
                "tempo": 120.0
            },
            {
                "pitch": 0,
                "velocity": 0,
                "duration": 0.0023,
                "tempo": 0
            },
            {
                "pitch": 80,
                "velocity": 5,
                "duration": 0.0977,
                "tempo": 120.0
            },
            {
                "pitch": 0,
                "velocity": 0,
                "duration": 0.0023,
                "tempo": 0
            },
            {
                "pitch": 86,
                "velocity": 5,
                "duration": 0.0977,
                "tempo": 120.0
            },
            {
                "pitch": 0,
                "velocity": 0,
                "duration": 0.0023,
                "tempo": 0
            },
            {
                "pitch": 83,
                "velocity": 5,
                "duration": 0.0977,
                "tempo": 120.0
            },
            {
                "pitch": 0,
                "velocity": 0,
                "duration": 0.0023,
                "tempo": 0
            },
            {
                "pitch": 86,
                "velocity": 5,
                "duration": 0.0977,
                "tempo": 120.0
            },
            {
                "pitch": 0,
                "velocity": 0,
                "duration": 0.0023,
                "tempo": 0
            },
            {
                "pitch": 80,
                "velocity": 5,
                "duration": 0.1,
                "tempo": 120.0
            },
            {
                "pitch": 86,
                "velocity": 5,
                "duration": 0.1,
                "tempo": 120.0
            },
            {
                "pitch": 0,
                "velocity": 0,
                "duration": 0.0023,
                "tempo": 0
            },
            {
                "pitch": 83,
                "velocity": 5,
                "duration": 0.0977,
                "tempo": 120.0
            },
            {
                "pitch": 0,
                "velocity": 0,
                "duration": 0.0023,
                "tempo": 0
            },
            {
                "pitch": 86,
                "velocity": 5,
                "duration": 0.1,
                "tempo": 120.0
            },
            {
                "pitch": 80,
                "velocity": 5,
                "duration": 0.1,
                "tempo": 120.0
            },
            {
                "pitch": 86,
                "velocity": 5,
                "duration": 0.1,
                "tempo": 120.0
            },
            {
                "pitch": 83,
                "velocity": 5,
                "duration": 0.1,
                "tempo": 120.0
            },
            {
                "pitch": 0,
                "velocity": 0,
                "duration": 0.0023,
                "tempo": 0
            },
            {
                "pitch": 86,
                "velocity": 5,
                "duration": 0.0977,
                "tempo": 120.0
            },
            {
                "pitch": 0,
                "velocity": 0,
                "duration": 0.0023,
                "tempo": 0
            },
            {
                "pitch": 80,
                "velocity": 5,
                "duration": 0.0977,
                "tempo": 120.0
            },
            {
                "pitch": 0,
                "velocity": 0,
                "duration": 0.0023,
                "tempo": 0
            },
            {
                "pitch": 86,
                "velocity": 5,
                "duration": 0.1,
                "tempo": 120.0
            },
            {
                "pitch": 83,
                "velocity": 5,
                "duration": 0.1,
                "tempo": 120.0
            },
            {
                "pitch": 0,
                "velocity": 0,
                "duration": 0.0023,
                "tempo": 0
            },
            {
                "pitch": 86,
                "velocity": 5,
                "duration": 0.0977,
                "tempo": 120.0
            },
            {
                "pitch": 0,
                "velocity": 0,
                "duration": 0.0023,
                "tempo": 0
            },
            {
                "pitch": 80,
                "velocity": 5,
                "duration": 0.1,
                "tempo": 120.0
            },
            {
                "pitch": 86,
                "velocity": 5,
                "duration": 0.1,
                "tempo": 120.0
            },
            {
                "pitch": 0,
                "velocity": 0,
                "duration": 0.0023,
                "tempo": 0
            },
            {
                "pitch": 83,
                "velocity": 5,
                "duration": 0.0977,
                "tempo": 120.0
            },
            {
                "pitch": 0,
                "velocity": 0,
                "duration": 0.0023,
                "tempo": 0
            },
            {
                "pitch": 86,
                "velocity": 5,
                "duration": 0.1,
                "tempo": 120.0
            },
            {
                "pitch": 80,
                "velocity": 5,
                "duration": 0.1,
                "tempo": 120.0
            },
            {
                "pitch": 0,
                "velocity": 0,
                "duration": 0.0023,
                "tempo": 0
            },
            {
                "pitch": 86,
                "velocity": 5,
                "duration": 0.0977,
                "tempo": 120.0
            },
            {
                "pitch": 0,
                "velocity": 0,
                "duration": 0.0023,
                "tempo": 0
            },
            {
                "pitch": 83,
                "velocity": 5,
                "duration": 0.0977,
                "tempo": 120.0
            },
            {
                "pitch": 0,
                "velocity": 0,
                "duration": 0.0023,
                "tempo": 0
            },
            {
                "pitch": 86,
                "velocity": 5,
                "duration": 0.0977,
                "tempo": 120.0
            },
            {
                "pitch": 0,
                "velocity": 0,
                "duration": 0.0023,
                "tempo": 0
            },
            {
                "pitch": 80,
                "velocity": 5,
                "duration": 0.0977,
                "tempo": 120.0
            },
            {
                "pitch": 0,
                "velocity": 0,
                "duration": 0.0023,
                "tempo": 0
            },
            {
                "pitch": 86,
                "velocity": 5,
                "duration": 0.1,
                "tempo": 120.0
            },
            {
                "pitch": 83,
                "velocity": 5,
                "duration": 0.1,
                "tempo": 120.0
            },
            {
                "pitch": 0,
                "velocity": 0,
                "duration": 0.0023,
                "tempo": 0
            },
            {
                "pitch": 86,
                "velocity": 5,
                "duration": 0.0977,
                "tempo": 120.0
            },
            {
                "pitch": 0,
                "velocity": 0,
                "duration": 0.0023,
                "tempo": 0
            },
            {
                "pitch": 86,
                "velocity": 5,
                "duration": 0.0182,
                "tempo": 120.0
            },
            {
                "pitch": 0,
                "velocity": 0,
                "duration": 75.7432,
                "tempo": 0
            },
            {
                "pitch": 81,
                "velocity": 5,
                "duration": 0.0977,
                "tempo": 120.0
            },
            {
                "pitch": 0,
                "velocity": 0,
                "duration": 0.0023,
                "tempo": 0
            },
            {
                "pitch": 84,
                "velocity": 5,
                "duration": 0.1,
                "tempo": 120.0
            },
            {
                "pitch": 83,
                "velocity": 5,
                "duration": 0.1,
                "tempo": 120.0
            },
            {
                "pitch": 0,
                "velocity": 0,
                "duration": 0.0023,
                "tempo": 0
            },
            {
                "pitch": 84,
                "velocity": 5,
                "duration": 0.1,
                "tempo": 120.0
            },
            {
                "pitch": 81,
                "velocity": 5,
                "duration": 0.1023,
                "tempo": 120.0
            },
            {
                "pitch": 84,
                "velocity": 5,
                "duration": 0.1023,
                "tempo": 120.0
            },
            {
                "pitch": 83,
                "velocity": 5,
                "duration": 0.1023,
                "tempo": 120.0
            },
            {
                "pitch": 0,
                "velocity": 0,
                "duration": 0.0023,
                "tempo": 0
            },
            {
                "pitch": 84,
                "velocity": 5,
                "duration": 0.1,
                "tempo": 120.0
            },
            {
                "pitch": 0,
                "velocity": 0,
                "duration": 0.0023,
                "tempo": 0
            },
            {
                "pitch": 81,
                "velocity": 5,
                "duration": 0.0977,
                "tempo": 120.0
            },
            {
                "pitch": 84,
                "velocity": 5,
                "duration": 0.0977,
                "tempo": 120.0
            },
            {
                "pitch": 0,
                "velocity": 0,
                "duration": 0.0023,
                "tempo": 0
            },
            {
                "pitch": 83,
                "velocity": 5,
                "duration": 0.0955,
                "tempo": 120.0
            },
            {
                "pitch": 0,
                "velocity": 0,
                "duration": 0.0023,
                "tempo": 0
            },
            {
                "pitch": 84,
                "velocity": 5,
                "duration": 0.0955,
                "tempo": 120.0
            },
            {
                "pitch": 0,
                "velocity": 0,
                "duration": 0.0023,
                "tempo": 0
            },
            {
                "pitch": 81,
                "velocity": 5,
                "duration": 0.1,
                "tempo": 120.0
            },
            {
                "pitch": 0,
                "velocity": 0,
                "duration": 0.0023,
                "tempo": 0
            },
            {
                "pitch": 84,
                "velocity": 5,
                "duration": 0.1,
                "tempo": 120.0
            },
            {
                "pitch": 0,
                "velocity": 0,
                "duration": 0.0023,
                "tempo": 0
            },
            {
                "pitch": 83,
                "velocity": 5,
                "duration": 0.1023,
                "tempo": 120.0
            },
            {
                "pitch": 84,
                "velocity": 5,
                "duration": 0.1023,
                "tempo": 120.0
            },
            {
                "pitch": 0,
                "velocity": 0,
                "duration": 0.0023,
                "tempo": 0
            },
            {
                "pitch": 81,
                "velocity": 5,
                "duration": 0.1,
                "tempo": 120.0
            },
            {
                "pitch": 84,
                "velocity": 5,
                "duration": 0.1,
                "tempo": 120.0
            },
            {
                "pitch": 0,
                "velocity": 0,
                "duration": 0.0023,
                "tempo": 0
            },
            {
                "pitch": 83,
                "velocity": 5,
                "duration": 0.0977,
                "tempo": 120.0
            },
            {
                "pitch": 0,
                "velocity": 0,
                "duration": 0.0023,
                "tempo": 0
            },
            {
                "pitch": 84,
                "velocity": 5,
                "duration": 0.1,
                "tempo": 120.0
            },
            {
                "pitch": 81,
                "velocity": 5,
                "duration": 0.1,
                "tempo": 120.0
            },
            {
                "pitch": 0,
                "velocity": 0,
                "duration": 0.0023,
                "tempo": 0
            },
            {
                "pitch": 84,
                "velocity": 5,
                "duration": 0.0977,
                "tempo": 120.0
            },
            {
                "pitch": 0,
                "velocity": 0,
                "duration": 0.0023,
                "tempo": 0
            },
            {
                "pitch": 83,
                "velocity": 5,
                "duration": 0.1,
                "tempo": 120.0
            },
            {
                "pitch": 84,
                "velocity": 5,
                "duration": 0.1,
                "tempo": 120.0
            },
            {
                "pitch": 0,
                "velocity": 0,
                "duration": 0.0023,
                "tempo": 0
            },
            {
                "pitch": 81,
                "velocity": 5,
                "duration": 0.0977,
                "tempo": 120.0
            },
            {
                "pitch": 0,
                "velocity": 0,
                "duration": 0.0023,
                "tempo": 0
            },
            {
                "pitch": 84,
                "velocity": 5,
                "duration": 0.1,
                "tempo": 120.0
            },
            {
                "pitch": 83,
                "velocity": 5,
                "duration": 0.1,
                "tempo": 120.0
            },
            {
                "pitch": 0,
                "velocity": 0,
                "duration": 0.0023,
                "tempo": 0
            },
            {
                "pitch": 84,
                "velocity": 5,
                "duration": 0.0977,
                "tempo": 120.0
            }
        ],
        "Lead 2 (sawtooth)": [
            {
                "pitch": 0,
                "velocity": 0,
                "duration": 0.0045,
                "tempo": 0
            },
            {
                "pitch": 64,
                "velocity": 8,
                "duration": 1.4023,
                "tempo": 120.0
            },
            {
                "pitch": 62,
                "velocity": 8,
                "duration": 1.8159,
                "tempo": 120.0
            },
            {
                "pitch": 0,
                "velocity": 0,
                "duration": 0.0023,
                "tempo": 0
            },
            {
                "pitch": 64,
                "velocity": 8,
                "duration": 1.4045,
                "tempo": 120.0
            },
            {
                "pitch": 62,
                "velocity": 8,
                "duration": 0.8023,
                "tempo": 120.0
            },
            {
                "pitch": 0,
                "velocity": 0,
                "duration": 0.0023,
                "tempo": 0
            },
            {
                "pitch": 62,
                "velocity": 8,
                "duration": 1.0045,
                "tempo": 120.0
            },
            {
                "pitch": 64,
                "velocity": 8,
                "duration": 1.4068,
                "tempo": 120.0
            },
            {
                "pitch": 62,
                "velocity": 8,
                "duration": 0.8023,
                "tempo": 120.0
            },
            {
                "pitch": 62,
                "velocity": 8,
                "duration": 1.0159,
                "tempo": 120.0
            },
            {
                "pitch": 62,
                "velocity": 8,
                "duration": 1.4045,
                "tempo": 120.0
            },
            {
                "pitch": 62,
                "velocity": 8,
                "duration": 1.8136,
                "tempo": 120.0
            },
            {
                "pitch": 64,
                "velocity": 8,
                "duration": 3.0205,
                "tempo": 120.0
            },
            {
                "pitch": 64,
                "velocity": 8,
                "duration": 0.2,
                "tempo": 120.0
            },
            {
                "pitch": 0,
                "velocity": 0,
                "duration": 0.0023,
                "tempo": 0
            },
            {
                "pitch": 64,
                "velocity": 8,
                "duration": 2.2114,
                "tempo": 120.0
            },
            {
                "pitch": 0,
                "velocity": 0,
                "duration": 0.0023,
                "tempo": 0
            },
            {
                "pitch": 67,
                "velocity": 8,
                "duration": 1.0068,
                "tempo": 120.0
            },
            {
                "pitch": 0,
                "velocity": 0,
                "duration": 0.0023,
                "tempo": 0
            },
            {
                "pitch": 62,
                "velocity": 8,
                "duration": 2.6091,
                "tempo": 120.0
            },
            {
                "pitch": 0,
                "velocity": 0,
                "duration": 0.0023,
                "tempo": 0
            },
            {
                "pitch": 62,
                "velocity": 8,
                "duration": 0.6,
                "tempo": 120.0
            },
            {
                "pitch": 64,
                "velocity": 8,
                "duration": 1.6068,
                "tempo": 120.0
            },
            {
                "pitch": 0,
                "velocity": 0,
                "duration": 0.0023,
                "tempo": 0
            },
            {
                "pitch": 52,
                "velocity": 8,
                "duration": 0.3977,
                "tempo": 120.0
            },
            {
                "pitch": 0,
                "velocity": 0,
                "duration": 0.0023,
                "tempo": 0
            },
            {
                "pitch": 64,
                "velocity": 8,
                "duration": 0.3068,
                "tempo": 120.0
            },
            {
                "pitch": 52,
                "velocity": 8,
                "duration": 0.1023,
                "tempo": 120.0
            },
            {
                "pitch": 0,
                "velocity": 0,
                "duration": 0.0023,
                "tempo": 0
            },
            {
                "pitch": 64,
                "velocity": 8,
                "duration": 0.0955,
                "tempo": 120.0
            },
            {
                "pitch": 0,
                "velocity": 0,
                "duration": 0.0023,
                "tempo": 0
            },
            {
                "pitch": 52,
                "velocity": 8,
                "duration": 0.0977,
                "tempo": 120.0
            },
            {
                "pitch": 64,
                "velocity": 8,
                "duration": 0.3977,
                "tempo": 120.0
            },
            {
                "pitch": 64,
                "velocity": 8,
                "duration": 0.2023,
                "tempo": 120.0
            },
            {
                "pitch": 65,
                "velocity": 8,
                "duration": 2.8205,
                "tempo": 120.0
            },
            {
                "pitch": 60,
                "velocity": 8,
                "duration": 0.2,
                "tempo": 120.0
            },
            {
                "pitch": 65,
                "velocity": 8,
                "duration": 0.2,
                "tempo": 120.0
            },
            {
                "pitch": 64,
                "velocity": 8,
                "duration": 2.2114,
                "tempo": 120.0
            },
            {
                "pitch": 67,
                "velocity": 8,
                "duration": 1.0023,
                "tempo": 120.0
            },
            {
                "pitch": 0,
                "velocity": 0,
                "duration": 0.0023,
                "tempo": 0
            },
            {
                "pitch": 62,
                "velocity": 8,
                "duration": 2.8159,
                "tempo": 120.0
            },
            {
                "pitch": 60,
                "velocity": 8,
                "duration": 0.2,
                "tempo": 120.0
            },
            {
                "pitch": 0,
                "velocity": 0,
                "duration": 0.0023,
                "tempo": 0
            },
            {
                "pitch": 65,
                "velocity": 8,
                "duration": 1.6023,
                "tempo": 120.0
            },
            {
                "pitch": 65,
                "velocity": 8,
                "duration": 0.8023,
                "tempo": 120.0
            },
            {
                "pitch": 0,
                "velocity": 0,
                "duration": 0.0023,
                "tempo": 0
            },
            {
                "pitch": 64,
                "velocity": 8,
                "duration": 1.0023,
                "tempo": 120.0
            },
            {
                "pitch": 0,
                "velocity": 0,
                "duration": 0.0023,
                "tempo": 0
            },
            {
                "pitch": 64,
                "velocity": 8,
                "duration": 3.0114,
                "tempo": 120.0
            },
            {
                "pitch": 0,
                "velocity": 0,
                "duration": 0.0023,
                "tempo": 0
            },
            {
                "pitch": 64,
                "velocity": 8,
                "duration": 0.2045,
                "tempo": 120.0
            },
            {
                "pitch": 0,
                "velocity": 0,
                "duration": 0.0023,
                "tempo": 0
            },
            {
                "pitch": 64,
                "velocity": 8,
                "duration": 2.2068,
                "tempo": 120.0
            },
            {
                "pitch": 67,
                "velocity": 8,
                "duration": 1.0045,
                "tempo": 120.0
            },
            {
                "pitch": 62,
                "velocity": 8,
                "duration": 2.6045,
                "tempo": 120.0
            },
            {
                "pitch": 62,
                "velocity": 8,
                "duration": 0.6023,
                "tempo": 120.0
            },
            {
                "pitch": 64,
                "velocity": 8,
                "duration": 1.6136,
                "tempo": 120.0
            },
            {
                "pitch": 0,
                "velocity": 0,
                "duration": 0.0023,
                "tempo": 0
            },
            {
                "pitch": 52,
                "velocity": 8,
                "duration": 0.4,
                "tempo": 120.0
            },
            {
                "pitch": 0,
                "velocity": 0,
                "duration": 0.0023,
                "tempo": 0
            },
            {
                "pitch": 64,
                "velocity": 8,
                "duration": 0.3,
                "tempo": 120.0
            },
            {
                "pitch": 52,
                "velocity": 8,
                "duration": 0.1,
                "tempo": 120.0
            },
            {
                "pitch": 64,
                "velocity": 8,
                "duration": 0.1,
                "tempo": 120.0
            },
            {
                "pitch": 52,
                "velocity": 8,
                "duration": 0.1,
                "tempo": 120.0
            },
            {
                "pitch": 64,
                "velocity": 8,
                "duration": 0.4,
                "tempo": 120.0
            },
            {
                "pitch": 64,
                "velocity": 8,
                "duration": 0.2023,
                "tempo": 120.0
            },
            {
                "pitch": 65,
                "velocity": 8,
                "duration": 2.8068,
                "tempo": 120.0
            },
            {
                "pitch": 60,
                "velocity": 8,
                "duration": 0.2,
                "tempo": 120.0
            },
            {
                "pitch": 65,
                "velocity": 8,
                "duration": 0.2023,
                "tempo": 120.0
            },
            {
                "pitch": 64,
                "velocity": 8,
                "duration": 2.2045,
                "tempo": 120.0
            },
            {
                "pitch": 67,
                "velocity": 8,
                "duration": 1.0136,
                "tempo": 120.0
            },
            {
                "pitch": 62,
                "velocity": 8,
                "duration": 1.4,
                "tempo": 120.0
            },
            {
                "pitch": 0,
                "velocity": 0,
                "duration": 0.0023,
                "tempo": 0
            },
            {
                "pitch": 60,
                "velocity": 8,
                "duration": 1.6023,
                "tempo": 120.0
            },
            {
                "pitch": 0,
                "velocity": 0,
                "duration": 0.0023,
                "tempo": 0
            },
            {
                "pitch": 59,
                "velocity": 8,
                "duration": 0.8,
                "tempo": 120.0
            },
            {
                "pitch": 59,
                "velocity": 8,
                "duration": 0.8045,
                "tempo": 120.0
            },
            {
                "pitch": 59,
                "velocity": 8,
                "duration": 0.8,
                "tempo": 120.0
            },
            {
                "pitch": 59,
                "velocity": 8,
                "duration": 1.0114,
                "tempo": 120.0
            },
            {
                "pitch": 0,
                "velocity": 0,
                "duration": 0.3955,
                "tempo": 0
            },
            {
                "pitch": 64,
                "velocity": 8,
                "duration": 1.2159,
                "tempo": 120.0
            },
            {
                "pitch": 67,
                "velocity": 8,
                "duration": 0.6045,
                "tempo": 120.0
            },
            {
                "pitch": 65,
                "velocity": 8,
                "duration": 1.0045,
                "tempo": 120.0
            },
            {
                "pitch": 0,
                "velocity": 0,
                "duration": 0.0023,
                "tempo": 0
            },
            {
                "pitch": 67,
                "velocity": 8,
                "duration": 0.6,
                "tempo": 120.0
            },
            {
                "pitch": 65,
                "velocity": 8,
                "duration": 1.0045,
                "tempo": 120.0
            },
            {
                "pitch": 0,
                "velocity": 0,
                "duration": 0.0023,
                "tempo": 0
            },
            {
                "pitch": 64,
                "velocity": 8,
                "duration": 0.6023,
                "tempo": 120.0
            },
            {
                "pitch": 62,
                "velocity": 8,
                "duration": 1.0068,
                "tempo": 120.0
            },
            {
                "pitch": 0,
                "velocity": 0,
                "duration": 0.0023,
                "tempo": 0
            },
            {
                "pitch": 64,
                "velocity": 8,
                "duration": 1.4023,
                "tempo": 120.0
            },
            {
                "pitch": 0,
                "velocity": 0,
                "duration": 0.0023,
                "tempo": 0
            },
            {
                "pitch": 62,
                "velocity": 8,
                "duration": 1.8091,
                "tempo": 120.0
            },
            {
                "pitch": 64,
                "velocity": 8,
                "duration": 1.4159,
                "tempo": 120.0
            },
            {
                "pitch": 65,
                "velocity": 8,
                "duration": 0.8045,
                "tempo": 120.0
            },
            {
                "pitch": 68,
                "velocity": 8,
                "duration": 1.0023,
                "tempo": 120.0
            },
            {
                "pitch": 0,
                "velocity": 0,
                "duration": 0.4068,
                "tempo": 0
            },
            {
                "pitch": 64,
                "velocity": 8,
                "duration": 1.2023,
                "tempo": 120.0
            },
            {
                "pitch": 0,
                "velocity": 0,
                "duration": 0.0023,
                "tempo": 0
            },
            {
                "pitch": 67,
                "velocity": 8,
                "duration": 0.6023,
                "tempo": 120.0
            },
            {
                "pitch": 0,
                "velocity": 0,
                "duration": 0.0023,
                "tempo": 0
            },
            {
                "pitch": 65,
                "velocity": 8,
                "duration": 1.0114,
                "tempo": 120.0
            },
            {
                "pitch": 0,
                "velocity": 0,
                "duration": 0.0023,
                "tempo": 0
            },
            {
                "pitch": 67,
                "velocity": 8,
                "duration": 0.5955,
                "tempo": 120.0
            },
            {
                "pitch": 0,
                "velocity": 0,
                "duration": 0.0023,
                "tempo": 0
            },
            {
                "pitch": 65,
                "velocity": 8,
                "duration": 1.0091,
                "tempo": 120.0
            },
            {
                "pitch": 64,
                "velocity": 8,
                "duration": 0.6023,
                "tempo": 120.0
            },
            {
                "pitch": 62,
                "velocity": 8,
                "duration": 1.0045,
                "tempo": 120.0
            },
            {
                "pitch": 0,
                "velocity": 0,
                "duration": 0.0023,
                "tempo": 0
            },
            {
                "pitch": 64,
                "velocity": 8,
                "duration": 1.4068,
                "tempo": 120.0
            },
            {
                "pitch": 62,
                "velocity": 8,
                "duration": 3.0159,
                "tempo": 120.0
            },
            {
                "pitch": 62,
                "velocity": 8,
                "duration": 0.2,
                "tempo": 120.0
            },
            {
                "pitch": 0,
                "velocity": 0,
                "duration": 0.0023,
                "tempo": 0
            },
            {
                "pitch": 64,
                "velocity": 8,
                "duration": 1.6114,
                "tempo": 120.0
            },
            {
                "pitch": 62,
                "velocity": 8,
                "duration": 1.8159,
                "tempo": 120.0
            },
            {
                "pitch": 64,
                "velocity": 8,
                "duration": 1.4068,
                "tempo": 120.0
            },
            {
                "pitch": 62,
                "velocity": 8,
                "duration": 0.8023,
                "tempo": 120.0
            },
            {
                "pitch": 0,
                "velocity": 0,
                "duration": 0.0023,
                "tempo": 0
            },
            {
                "pitch": 62,
                "velocity": 8,
                "duration": 1.0068,
                "tempo": 120.0
            },
            {
                "pitch": 64,
                "velocity": 8,
                "duration": 1.4091,
                "tempo": 120.0
            },
            {
                "pitch": 62,
                "velocity": 8,
                "duration": 0.8023,
                "tempo": 120.0
            },
            {
                "pitch": 0,
                "velocity": 0,
                "duration": 0.0023,
                "tempo": 0
            },
            {
                "pitch": 62,
                "velocity": 8,
                "duration": 1.0091,
                "tempo": 120.0
            },
            {
                "pitch": 62,
                "velocity": 8,
                "duration": 1.4068,
                "tempo": 120.0
            },
            {
                "pitch": 62,
                "velocity": 8,
                "duration": 1.8091,
                "tempo": 120.0
            },
            {
                "pitch": 0,
                "velocity": 0,
                "duration": 0.0068,
                "tempo": 0
            },
            {
                "pitch": 64,
                "velocity": 8,
                "duration": 3.0455,
                "tempo": 120.0
            },
            {
                "pitch": 64,
                "velocity": 8,
                "duration": 0.2023,
                "tempo": 120.0
            },
            {
                "pitch": 64,
                "velocity": 8,
                "duration": 2.2159,
                "tempo": 120.0
            },
            {
                "pitch": 67,
                "velocity": 8,
                "duration": 1.0091,
                "tempo": 120.0
            },
            {
                "pitch": 62,
                "velocity": 8,
                "duration": 2.6136,
                "tempo": 120.0
            },
            {
                "pitch": 0,
                "velocity": 0,
                "duration": 0.0023,
                "tempo": 0
            },
            {
                "pitch": 62,
                "velocity": 8,
                "duration": 0.6023,
                "tempo": 120.0
            },
            {
                "pitch": 64,
                "velocity": 8,
                "duration": 1.6091,
                "tempo": 120.0
            },
            {
                "pitch": 0,
                "velocity": 0,
                "duration": 0.0023,
                "tempo": 0
            },
            {
                "pitch": 52,
                "velocity": 8,
                "duration": 0.3977,
                "tempo": 120.0
            },
            {
                "pitch": 0,
                "velocity": 0,
                "duration": 0.0023,
                "tempo": 0
            },
            {
                "pitch": 64,
                "velocity": 8,
                "duration": 0.3068,
                "tempo": 120.0
            },
            {
                "pitch": 52,
                "velocity": 8,
                "duration": 0.1023,
                "tempo": 120.0
            },
            {
                "pitch": 64,
                "velocity": 8,
                "duration": 0.0977,
                "tempo": 120.0
            },
            {
                "pitch": 0,
                "velocity": 0,
                "duration": 0.0023,
                "tempo": 0
            },
            {
                "pitch": 52,
                "velocity": 8,
                "duration": 0.0955,
                "tempo": 120.0
            },
            {
                "pitch": 0,
                "velocity": 0,
                "duration": 0.0023,
                "tempo": 0
            },
            {
                "pitch": 64,
                "velocity": 8,
                "duration": 0.3977,
                "tempo": 120.0
            },
            {
                "pitch": 64,
                "velocity": 8,
                "duration": 0.2023,
                "tempo": 120.0
            },
            {
                "pitch": 65,
                "velocity": 8,
                "duration": 2.825,
                "tempo": 120.0
            },
            {
                "pitch": 60,
                "velocity": 8,
                "duration": 0.2,
                "tempo": 120.0
            },
            {
                "pitch": 65,
                "velocity": 8,
                "duration": 0.2,
                "tempo": 120.0
            },
            {
                "pitch": 64,
                "velocity": 8,
                "duration": 2.2136,
                "tempo": 120.0
            },
            {
                "pitch": 67,
                "velocity": 8,
                "duration": 1.0045,
                "tempo": 120.0
            },
            {
                "pitch": 62,
                "velocity": 8,
                "duration": 2.825,
                "tempo": 120.0
            },
            {
                "pitch": 60,
                "velocity": 8,
                "duration": 0.2,
                "tempo": 120.0
            },
            {
                "pitch": 0,
                "velocity": 0,
                "duration": 0.0023,
                "tempo": 0
            },
            {
                "pitch": 65,
                "velocity": 8,
                "duration": 1.6068,
                "tempo": 120.0
            },
            {
                "pitch": 65,
                "velocity": 8,
                "duration": 0.8045,
                "tempo": 120.0
            },
            {
                "pitch": 64,
                "velocity": 8,
                "duration": 1.0045,
                "tempo": 120.0
            },
            {
                "pitch": 0,
                "velocity": 0,
                "duration": 0.0023,
                "tempo": 0
            },
            {
                "pitch": 64,
                "velocity": 8,
                "duration": 3.0182,
                "tempo": 120.0
            },
            {
                "pitch": 64,
                "velocity": 8,
                "duration": 0.2068,
                "tempo": 120.0
            },
            {
                "pitch": 64,
                "velocity": 8,
                "duration": 2.2114,
                "tempo": 120.0
            },
            {
                "pitch": 67,
                "velocity": 8,
                "duration": 1.0091,
                "tempo": 120.0
            },
            {
                "pitch": 62,
                "velocity": 8,
                "duration": 2.6159,
                "tempo": 120.0
            },
            {
                "pitch": 62,
                "velocity": 8,
                "duration": 0.6045,
                "tempo": 120.0
            },
            {
                "pitch": 64,
                "velocity": 8,
                "duration": 1.6159,
                "tempo": 120.0
            },
            {
                "pitch": 0,
                "velocity": 0,
                "duration": 0.0023,
                "tempo": 0
            },
            {
                "pitch": 52,
                "velocity": 8,
                "duration": 0.4023,
                "tempo": 120.0
            },
            {
                "pitch": 64,
                "velocity": 8,
                "duration": 0.3,
                "tempo": 120.0
            },
            {
                "pitch": 52,
                "velocity": 8,
                "duration": 0.1,
                "tempo": 120.0
            },
            {
                "pitch": 64,
                "velocity": 8,
                "duration": 0.1,
                "tempo": 120.0
            },
            {
                "pitch": 0,
                "velocity": 0,
                "duration": 0.0023,
                "tempo": 0
            },
            {
                "pitch": 52,
                "velocity": 8,
                "duration": 0.1,
                "tempo": 120.0
            },
            {
                "pitch": 64,
                "velocity": 8,
                "duration": 0.4023,
                "tempo": 120.0
            },
            {
                "pitch": 64,
                "velocity": 8,
                "duration": 0.2023,
                "tempo": 120.0
            },
            {
                "pitch": 0,
                "velocity": 0,
                "duration": 0.0023,
                "tempo": 0
            },
            {
                "pitch": 65,
                "velocity": 8,
                "duration": 2.8159,
                "tempo": 120.0
            },
            {
                "pitch": 60,
                "velocity": 8,
                "duration": 0.2,
                "tempo": 120.0
            },
            {
                "pitch": 0,
                "velocity": 0,
                "duration": 0.0023,
                "tempo": 0
            },
            {
                "pitch": 65,
                "velocity": 8,
                "duration": 0.2,
                "tempo": 120.0
            },
            {
                "pitch": 0,
                "velocity": 0,
                "duration": 0.0023,
                "tempo": 0
            },
            {
                "pitch": 64,
                "velocity": 8,
                "duration": 2.2159,
                "tempo": 120.0
            },
            {
                "pitch": 0,
                "velocity": 0,
                "duration": 0.0023,
                "tempo": 0
            },
            {
                "pitch": 67,
                "velocity": 8,
                "duration": 1.0091,
                "tempo": 120.0
            },
            {
                "pitch": 62,
                "velocity": 8,
                "duration": 1.4068,
                "tempo": 120.0
            },
            {
                "pitch": 0,
                "velocity": 0,
                "duration": 0.0023,
                "tempo": 0
            },
            {
                "pitch": 60,
                "velocity": 8,
                "duration": 1.6091,
                "tempo": 120.0
            },
            {
                "pitch": 0,
                "velocity": 0,
                "duration": 0.0023,
                "tempo": 0
            },
            {
                "pitch": 59,
                "velocity": 8,
                "duration": 0.8023,
                "tempo": 120.0
            },
            {
                "pitch": 59,
                "velocity": 8,
                "duration": 0.8068,
                "tempo": 120.0
            },
            {
                "pitch": 0,
                "velocity": 0,
                "duration": 0.0023,
                "tempo": 0
            },
            {
                "pitch": 59,
                "velocity": 8,
                "duration": 0.8045,
                "tempo": 120.0
            },
            {
                "pitch": 0,
                "velocity": 0,
                "duration": 0.0023,
                "tempo": 0
            },
            {
                "pitch": 59,
                "velocity": 8,
                "duration": 1.0068,
                "tempo": 120.0
            },
            {
                "pitch": 0,
                "velocity": 0,
                "duration": 0.3955,
                "tempo": 0
            },
            {
                "pitch": 64,
                "velocity": 8,
                "duration": 1.2136,
                "tempo": 120.0
            },
            {
                "pitch": 67,
                "velocity": 8,
                "duration": 0.6045,
                "tempo": 120.0
            },
            {
                "pitch": 0,
                "velocity": 0,
                "duration": 0.0023,
                "tempo": 0
            },
            {
                "pitch": 65,
                "velocity": 8,
                "duration": 1.0068,
                "tempo": 120.0
            },
            {
                "pitch": 67,
                "velocity": 8,
                "duration": 0.6023,
                "tempo": 120.0
            },
            {
                "pitch": 65,
                "velocity": 8,
                "duration": 1.0068,
                "tempo": 120.0
            },
            {
                "pitch": 0,
                "velocity": 0,
                "duration": 0.0023,
                "tempo": 0
            },
            {
                "pitch": 64,
                "velocity": 8,
                "duration": 0.6023,
                "tempo": 120.0
            },
            {
                "pitch": 62,
                "velocity": 8,
                "duration": 1.0068,
                "tempo": 120.0
            },
            {
                "pitch": 64,
                "velocity": 8,
                "duration": 1.4045,
                "tempo": 120.0
            },
            {
                "pitch": 0,
                "velocity": 0,
                "duration": 0.0023,
                "tempo": 0
            },
            {
                "pitch": 62,
                "velocity": 8,
                "duration": 1.8182,
                "tempo": 120.0
            },
            {
                "pitch": 0,
                "velocity": 0,
                "duration": 0.0023,
                "tempo": 0
            },
            {
                "pitch": 64,
                "velocity": 8,
                "duration": 1.4068,
                "tempo": 120.0
            },
            {
                "pitch": 65,
                "velocity": 8,
                "duration": 0.8068,
                "tempo": 120.0
            },
            {
                "pitch": 68,
                "velocity": 8,
                "duration": 1.0023,
                "tempo": 120.0
            },
            {
                "pitch": 0,
                "velocity": 0,
                "duration": 0.4068,
                "tempo": 0
            },
            {
                "pitch": 64,
                "velocity": 8,
                "duration": 1.2045,
                "tempo": 120.0
            },
            {
                "pitch": 0,
                "velocity": 0,
                "duration": 0.0023,
                "tempo": 0
            },
            {
                "pitch": 67,
                "velocity": 8,
                "duration": 0.6068,
                "tempo": 120.0
            },
            {
                "pitch": 65,
                "velocity": 8,
                "duration": 1.0091,
                "tempo": 120.0
            },
            {
                "pitch": 0,
                "velocity": 0,
                "duration": 0.0023,
                "tempo": 0
            },
            {
                "pitch": 67,
                "velocity": 8,
                "duration": 0.5977,
                "tempo": 120.0
            },
            {
                "pitch": 65,
                "velocity": 8,
                "duration": 1.0091,
                "tempo": 120.0
            },
            {
                "pitch": 64,
                "velocity": 8,
                "duration": 0.6045,
                "tempo": 120.0
            },
            {
                "pitch": 62,
                "velocity": 8,
                "duration": 1.0068,
                "tempo": 120.0
            },
            {
                "pitch": 64,
                "velocity": 8,
                "duration": 1.4091,
                "tempo": 120.0
            },
            {
                "pitch": 62,
                "velocity": 8,
                "duration": 3.0205,
                "tempo": 120.0
            },
            {
                "pitch": 62,
                "velocity": 8,
                "duration": 0.2023,
                "tempo": 120.0
            },
            {
                "pitch": 64,
                "velocity": 8,
                "duration": 1.6136,
                "tempo": 120.0
            }
        ],
        "Synth Bass 1": [
            {
                "pitch": 0,
                "velocity": 0,
                "duration": 27.3705,
                "tempo": 0
            },
            {
                "pitch": 74,
                "velocity": 1,
                "duration": 0.2,
                "tempo": 120.0
            },
            {
                "pitch": 76,
                "velocity": 1,
                "duration": 0.2,
                "tempo": 120.0
            },
            {
                "pitch": 77,
                "velocity": 1,
                "duration": 0.2,
                "tempo": 120.0
            },
            {
                "pitch": 0,
                "velocity": 0,
                "duration": 0.0023,
                "tempo": 0
            },
            {
                "pitch": 74,
                "velocity": 1,
                "duration": 1.0023,
                "tempo": 120.0
            },
            {
                "pitch": 0,
                "velocity": 0,
                "duration": 1.6091,
                "tempo": 0
            },
            {
                "pitch": 72,
                "velocity": 1,
                "duration": 0.1977,
                "tempo": 120.0
            },
            {
                "pitch": 0,
                "velocity": 0,
                "duration": 0.0023,
                "tempo": 0
            },
            {
                "pitch": 74,
                "velocity": 1,
                "duration": 0.1977,
                "tempo": 120.0
            },
            {
                "pitch": 0,
                "velocity": 0,
                "duration": 0.0023,
                "tempo": 0
            },
            {
                "pitch": 76,
                "velocity": 1,
                "duration": 0.2,
                "tempo": 120.0
            },
            {
                "pitch": 72,
                "velocity": 1,
                "duration": 1.0045,
                "tempo": 120.0
            },
            {
                "pitch": 0,
                "velocity": 0,
                "duration": 20.8932,
                "tempo": 0
            },
            {
                "pitch": 74,
                "velocity": 1,
                "duration": 0.2,
                "tempo": 120.0
            },
            {
                "pitch": 76,
                "velocity": 1,
                "duration": 0.2,
                "tempo": 120.0
            },
            {
                "pitch": 77,
                "velocity": 1,
                "duration": 0.2,
                "tempo": 120.0
            },
            {
                "pitch": 0,
                "velocity": 0,
                "duration": 0.0023,
                "tempo": 0
            },
            {
                "pitch": 74,
                "velocity": 1,
                "duration": 1.0023,
                "tempo": 120.0
            },
            {
                "pitch": 0,
                "velocity": 0,
                "duration": 1.6068,
                "tempo": 0
            },
            {
                "pitch": 72,
                "velocity": 1,
                "duration": 0.1977,
                "tempo": 120.0
            },
            {
                "pitch": 0,
                "velocity": 0,
                "duration": 0.0023,
                "tempo": 0
            },
            {
                "pitch": 74,
                "velocity": 1,
                "duration": 0.1977,
                "tempo": 120.0
            },
            {
                "pitch": 0,
                "velocity": 0,
                "duration": 0.0023,
                "tempo": 0
            },
            {
                "pitch": 76,
                "velocity": 1,
                "duration": 0.1977,
                "tempo": 120.0
            },
            {
                "pitch": 0,
                "velocity": 0,
                "duration": 0.0023,
                "tempo": 0
            },
            {
                "pitch": 72,
                "velocity": 1,
                "duration": 1.0114,
                "tempo": 120.0
            },
            {
                "pitch": 0,
                "velocity": 0,
                "duration": 57.9909,
                "tempo": 0
            },
            {
                "pitch": 74,
                "velocity": 1,
                "duration": 0.2,
                "tempo": 120.0
            },
            {
                "pitch": 0,
                "velocity": 0,
                "duration": 0.0023,
                "tempo": 0
            },
            {
                "pitch": 76,
                "velocity": 1,
                "duration": 0.2,
                "tempo": 120.0
            },
            {
                "pitch": 77,
                "velocity": 1,
                "duration": 0.2,
                "tempo": 120.0
            },
            {
                "pitch": 74,
                "velocity": 1,
                "duration": 1.0045,
                "tempo": 120.0
            },
            {
                "pitch": 0,
                "velocity": 0,
                "duration": 1.6114,
                "tempo": 0
            },
            {
                "pitch": 72,
                "velocity": 1,
                "duration": 0.1977,
                "tempo": 120.0
            },
            {
                "pitch": 0,
                "velocity": 0,
                "duration": 0.0023,
                "tempo": 0
            },
            {
                "pitch": 74,
                "velocity": 1,
                "duration": 0.1977,
                "tempo": 120.0
            },
            {
                "pitch": 0,
                "velocity": 0,
                "duration": 0.0023,
                "tempo": 0
            },
            {
                "pitch": 76,
                "velocity": 1,
                "duration": 0.2,
                "tempo": 120.0
            },
            {
                "pitch": 72,
                "velocity": 1,
                "duration": 1.0068,
                "tempo": 120.0
            },
            {
                "pitch": 0,
                "velocity": 0,
                "duration": 20.9477,
                "tempo": 0
            },
            {
                "pitch": 74,
                "velocity": 1,
                "duration": 0.2,
                "tempo": 120.0
            },
            {
                "pitch": 0,
                "velocity": 0,
                "duration": 0.0023,
                "tempo": 0
            },
            {
                "pitch": 76,
                "velocity": 1,
                "duration": 0.2,
                "tempo": 120.0
            },
            {
                "pitch": 0,
                "velocity": 0,
                "duration": 0.0023,
                "tempo": 0
            },
            {
                "pitch": 77,
                "velocity": 1,
                "duration": 0.2,
                "tempo": 120.0
            },
            {
                "pitch": 74,
                "velocity": 1,
                "duration": 1.0045,
                "tempo": 120.0
            },
            {
                "pitch": 0,
                "velocity": 0,
                "duration": 1.6159,
                "tempo": 0
            },
            {
                "pitch": 72,
                "velocity": 1,
                "duration": 0.1977,
                "tempo": 120.0
            },
            {
                "pitch": 74,
                "velocity": 1,
                "duration": 0.2,
                "tempo": 120.0
            },
            {
                "pitch": 0,
                "velocity": 0,
                "duration": 0.0023,
                "tempo": 0
            },
            {
                "pitch": 76,
                "velocity": 1,
                "duration": 0.2045,
                "tempo": 120.0
            },
            {
                "pitch": 72,
                "velocity": 1,
                "duration": 1.0091,
                "tempo": 120.0
            }
        ],
        "Acoustic Grand Piano": [
            {
                "pitch": 0,
                "velocity": 0,
                "duration": 180.0,
                "tempo": 0
            },
            {
                "pitch": 108,
                "velocity": 15,
                "duration": 0.1,
                "tempo": 120.0
            }
        ]
    }
}