{
    "track_id": "01 Peddler_9",
    "mood": "angry",
    "instruments": {
        "Lead 1 (square)": [
            {
                "pitch": 76,
                "velocity": 7,
                "duration": 0.5909,
                "tempo": 120.0
            },
            {
                "pitch": 0,
                "velocity": 0,
                "duration": 0.2386,
                "tempo": 0
            },
            {
                "pitch": 71,
                "velocity": 7,
                "duration": 0.3636,
                "tempo": 120.0
            },
            {
                "pitch": 0,
                "velocity": 0,
                "duration": 0.0614,
                "tempo": 0
            },
            {
                "pitch": 71,
                "velocity": 7,
                "duration": 0.25,
                "tempo": 120.0
            },
            {
                "pitch": 0,
                "velocity": 0,
                "duration": 0.0636,
                "tempo": 0
            },
            {
                "pitch": 72,
                "velocity": 7,
                "duration": 0.4818,
                "tempo": 120.0
            },
            {
                "pitch": 0,
                "velocity": 0,
                "duration": 0.1523,
                "tempo": 0
            },
            {
                "pitch": 74,
                "velocity": 7,
                "duration": 0.2545,
                "tempo": 120.0
            },
            {
                "pitch": 0,
                "velocity": 0,
                "duration": 0.0614,
                "tempo": 0
            },
            {
                "pitch": 72,
                "velocity": 7,
                "duration": 0.2455,
                "tempo": 120.0
            },
            {
                "pitch": 0,
                "velocity": 0,
                "duration": 0.0614,
                "tempo": 0
            },
            {
                "pitch": 69,
                "velocity": 7,
                "duration": 0.4795,
                "tempo": 120.0
            },
            {
                "pitch": 0,
                "velocity": 0,
                "duration": 0.1545,
                "tempo": 0
            },
            {
                "pitch": 69,
                "velocity": 7,
                "duration": 0.2523,
                "tempo": 120.0
            },
            {
                "pitch": 0,
                "velocity": 0,
                "duration": 0.0636,
                "tempo": 0
            },
            {
                "pitch": 72,
                "velocity": 7,
                "duration": 0.2455,
                "tempo": 120.0
            },
            {
                "pitch": 0,
                "velocity": 0,
                "duration": 0.0614,
                "tempo": 0
            },
            {
                "pitch": 76,
                "velocity": 7,
                "duration": 0.4773,
                "tempo": 120.0
            },
            {
                "pitch": 0,
                "velocity": 0,
                "duration": 0.1545,
                "tempo": 0
            },
            {
                "pitch": 74,
                "velocity": 7,
                "duration": 0.2545,
                "tempo": 120.0
            },
            {
                "pitch": 0,
                "velocity": 0,
                "duration": 0.0614,
                "tempo": 0
            },
            {
                "pitch": 74,
                "velocity": 7,
                "duration": 0.2455,
                "tempo": 120.0
            },
            {
                "pitch": 0,
                "velocity": 0,
                "duration": 0.0614,
                "tempo": 0
            },
            {
                "pitch": 72,
                "velocity": 7,
                "duration": 0.475,
                "tempo": 120.0
            },
            {
                "pitch": 0,
                "velocity": 0,
                "duration": 0.15,
                "tempo": 0
            },
            {
                "pitch": 71,
                "velocity": 7,
                "duration": 0.2273,
                "tempo": 120.0
            },
            {
                "pitch": 0,
                "velocity": 0,
                "duration": 0.0886,
                "tempo": 0
            },
            {
                "pitch": 71,
                "velocity": 7,
                "duration": 0.225,
                "tempo": 120.0
            },
            {
                "pitch": 0,
                "velocity": 0,
                "duration": 0.0864,
                "tempo": 0
            },
            {
                "pitch": 72,
                "velocity": 7,
                "duration": 0.475,
                "tempo": 120.0
            },
            {
                "pitch": 0,
                "velocity": 0,
                "duration": 0.15,
                "tempo": 0
            },
            {
                "pitch": 76,
                "velocity": 7,
                "duration": 0.475,
                "tempo": 120.0
            },
            {
                "pitch": 0,
                "velocity": 0,
                "duration": 0.15,
                "tempo": 0
            },
            {
                "pitch": 72,
                "velocity": 7,
                "duration": 0.475,
                "tempo": 120.0
            },
            {
                "pitch": 0,
                "velocity": 0,
                "duration": 0.15,
                "tempo": 0
            },
            {
                "pitch": 69,
                "velocity": 7,
                "duration": 0.475,
                "tempo": 120.0
            },
            {
                "pitch": 0,
                "velocity": 0,
                "duration": 0.15,
                "tempo": 0
            },
            {
                "pitch": 69,
                "velocity": 7,
                "duration": 0.9364,
                "tempo": 120.0
            },
            {
                "pitch": 0,
                "velocity": 0,
                "duration": 0.3068,
                "tempo": 0
            },
            {
                "pitch": 74,
                "velocity": 7,
                "duration": 0.2227,
                "tempo": 120.0
            },
            {
                "pitch": 0,
                "velocity": 0,
                "duration": 0.0886,
                "tempo": 0
            },
            {
                "pitch": 74,
                "velocity": 7,
                "duration": 0.4886,
                "tempo": 120.0
            },
            {
                "pitch": 0,
                "velocity": 0,
                "duration": 0.1477,
                "tempo": 0
            },
            {
                "pitch": 77,
                "velocity": 7,
                "duration": 0.2205,
                "tempo": 120.0
            },
            {
                "pitch": 0,
                "velocity": 0,
                "duration": 0.0864,
                "tempo": 0
            },
            {
                "pitch": 81,
                "velocity": 7,
                "duration": 0.4568,
                "tempo": 120.0
            },
            {
                "pitch": 0,
                "velocity": 0,
                "duration": 0.1841,
                "tempo": 0
            },
            {
                "pitch": 79,
                "velocity": 7,
                "duration": 0.2318,
                "tempo": 120.0
            },
            {
                "pitch": 0,
                "velocity": 0,
                "duration": 0.0864,
                "tempo": 0
            },
            {
                "pitch": 77,
                "velocity": 7,
                "duration": 0.2205,
                "tempo": 120.0
            },
            {
                "pitch": 0,
                "velocity": 0,
                "duration": 0.0864,
                "tempo": 0
            },
            {
                "pitch": 77,
                "velocity": 7,
                "duration": 0.4545,
                "tempo": 120.0
            },
            {
                "pitch": 0,
                "velocity": 0,
                "duration": 0.1795,
                "tempo": 0
            },
            {
                "pitch": 76,
                "velocity": 7,
                "duration": 0.2273,
                "tempo": 120.0
            },
            {
                "pitch": 0,
                "velocity": 0,
                "duration": 0.0864,
                "tempo": 0
            },
            {
                "pitch": 72,
                "velocity": 7,
                "duration": 0.2227,
                "tempo": 120.0
            },
            {
                "pitch": 0,
                "velocity": 0,
                "duration": 0.0864,
                "tempo": 0
            },
            {
                "pitch": 76,
                "velocity": 7,
                "duration": 0.4523,
                "tempo": 120.0
            },
            {
                "pitch": 0,
                "velocity": 0,
                "duration": 0.1795,
                "tempo": 0
            },
            {
                "pitch": 74,
                "velocity": 7,
                "duration": 0.2295,
                "tempo": 120.0
            },
            {
                "pitch": 0,
                "velocity": 0,
                "duration": 0.0864,
                "tempo": 0
            },
            {
                "pitch": 74,
                "velocity": 7,
                "duration": 0.2205,
                "tempo": 120.0
            },
            {
                "pitch": 0,
                "velocity": 0,
                "duration": 0.0864,
                "tempo": 0
            },
            {
                "pitch": 72,
                "velocity": 7,
                "duration": 0.4455,
                "tempo": 120.0
            },
            {
                "pitch": 0,
                "velocity": 0,
                "duration": 0.175,
                "tempo": 0
            },
            {
                "pitch": 71,
                "velocity": 7,
                "duration": 0.2227,
                "tempo": 120.0
            },
            {
                "pitch": 0,
                "velocity": 0,
                "duration": 0.0818,
                "tempo": 0
            },
            {
                "pitch": 71,
                "velocity": 7,
                "duration": 0.2136,
                "tempo": 120.0
            },
            {
                "pitch": 0,
                "velocity": 0,
                "duration": 0.0818,
                "tempo": 0
            },
            {
                "pitch": 72,
                "velocity": 7,
                "duration": 0.4023,
                "tempo": 120.0
            },
            {
                "pitch": 0,
                "velocity": 0,
                "duration": 0.1545,
                "tempo": 0
            },
            {
                "pitch": 76,
                "velocity": 7,
                "duration": 0.4136,
                "tempo": 120.0
            },
            {
                "pitch": 0,
                "velocity": 0,
                "duration": 0.1614,
                "tempo": 0
            },
            {
                "pitch": 72,
                "velocity": 7,
                "duration": 0.4477,
                "tempo": 120.0
            },
            {
                "pitch": 0,
                "velocity": 0,
                "duration": 0.175,
                "tempo": 0
            },
            {
                "pitch": 69,
                "velocity": 7,
                "duration": 0.4432,
                "tempo": 120.0
            },
            {
                "pitch": 0,
                "velocity": 0,
                "duration": 0.1727,
                "tempo": 0
            },
            {
                "pitch": 69,
                "velocity": 7,
                "duration": 0.9477,
                "tempo": 120.0
            },
            {
                "pitch": 0,
                "velocity": 0,
                "duration": 0.3273,
                "tempo": 0
            },
            {
                "pitch": 76,
                "velocity": 7,
                "duration": 0.6773,
                "tempo": 120.0
            },
            {
                "pitch": 0,
                "velocity": 0,
                "duration": 0.25,
                "tempo": 0
            },
            {
                "pitch": 76,
                "velocity": 7,
                "duration": 0.225,
                "tempo": 120.0
            },
            {
                "pitch": 0,
                "velocity": 0,
                "duration": 0.0886,
                "tempo": 0
            },
            {
                "pitch": 75,
                "velocity": 7,
                "duration": 0.6864,
                "tempo": 120.0
            },
            {
                "pitch": 0,
                "velocity": 0,
                "duration": 0.2159,
                "tempo": 0
            },
            {
                "pitch": 76,
                "velocity": 7,
                "duration": 0.2432,
                "tempo": 120.0
            },
            {
                "pitch": 0,
                "velocity": 0,
                "duration": 0.0591,
                "tempo": 0
            },
            {
                "pitch": 75,
                "velocity": 7,
                "duration": 0.7295,
                "tempo": 120.0
            },
            {
                "pitch": 0,
                "velocity": 0,
                "duration": 0.2364,
                "tempo": 0
            },
            {
                "pitch": 81,
                "velocity": 7,
                "duration": 0.2591,
                "tempo": 120.0
            },
            {
                "pitch": 0,
                "velocity": 0,
                "duration": 0.0659,
                "tempo": 0
            },
            {
                "pitch": 76,
                "velocity": 7,
                "duration": 0.4614,
                "tempo": 120.0
            },
            {
                "pitch": 0,
                "velocity": 0,
                "duration": 0.1455,
                "tempo": 0
            },
            {
                "pitch": 74,
                "velocity": 7,
                "duration": 0.2455,
                "tempo": 120.0
            },
            {
                "pitch": 0,
                "velocity": 0,
                "duration": 0.0614,
                "tempo": 0
            },
            {
                "pitch": 74,
                "velocity": 7,
                "duration": 0.2477,
                "tempo": 120.0
            },
            {
                "pitch": 0,
                "velocity": 0,
                "duration": 0.0614,
                "tempo": 0
            },
            {
                "pitch": 72,
                "velocity": 7,
                "duration": 0.4841,
                "tempo": 120.0
            },
            {
                "pitch": 0,
                "velocity": 0,
                "duration": 0.1545,
                "tempo": 0
            },
            {
                "pitch": 71,
                "velocity": 7,
                "duration": 0.25,
                "tempo": 120.0
            },
            {
                "pitch": 0,
                "velocity": 0,
                "duration": 0.0636,
                "tempo": 0
            },
            {
                "pitch": 71,
                "velocity": 7,
                "duration": 0.25,
                "tempo": 120.0
            },
            {
                "pitch": 0,
                "velocity": 0,
                "duration": 0.0614,
                "tempo": 0
            },
            {
                "pitch": 72,
                "velocity": 7,
                "duration": 0.475,
                "tempo": 120.0
            },
            {
                "pitch": 0,
                "velocity": 0,
                "duration": 0.15,
                "tempo": 0
            },
            {
                "pitch": 76,
                "velocity": 7,
                "duration": 0.4682,
                "tempo": 120.0
            },
            {
                "pitch": 0,
                "velocity": 0,
                "duration": 0.1477,
                "tempo": 0
            },
            {
                "pitch": 72,
                "velocity": 7,
                "duration": 0.475,
                "tempo": 120.0
            },
            {
                "pitch": 0,
                "velocity": 0,
                "duration": 0.15,
                "tempo": 0
            },
            {
                "pitch": 69,
                "velocity": 7,
                "duration": 0.5273,
                "tempo": 120.0
            },
            {
                "pitch": 0,
                "velocity": 0,
                "duration": 0.1705,
                "tempo": 0
            },
            {
                "pitch": 69,
                "velocity": 7,
                "duration": 1.0568,
                "tempo": 120.0
            },
            {
                "pitch": 0,
                "velocity": 0,
                "duration": 0.3568,
                "tempo": 0
            },
            {
                "pitch": 76,
                "velocity": 7,
                "duration": 0.8068,
                "tempo": 120.0
            },
            {
                "pitch": 0,
                "velocity": 0,
                "duration": 0.2523,
                "tempo": 0
            },
            {
                "pitch": 76,
                "velocity": 7,
                "duration": 0.2568,
                "tempo": 120.0
            },
            {
                "pitch": 0,
                "velocity": 0,
                "duration": 0.1091,
                "tempo": 0
            },
            {
                "pitch": 75,
                "velocity": 7,
                "duration": 0.8886,
                "tempo": 120.0
            },
            {
                "pitch": 0,
                "velocity": 0,
                "duration": 0.275,
                "tempo": 0
            },
            {
                "pitch": 74,
                "velocity": 7,
                "duration": 0.2773,
                "tempo": 120.0
            },
            {
                "pitch": 0,
                "velocity": 0,
                "duration": 0.1068,
                "tempo": 0
            },
            {
                "pitch": 76,
                "velocity": 7,
                "duration": 0.9068,
                "tempo": 120.0
            },
            {
                "pitch": 0,
                "velocity": 0,
                "duration": 0.2909,
                "tempo": 0
            },
            {
                "pitch": 81,
                "velocity": 7,
                "duration": 0.275,
                "tempo": 120.0
            },
            {
                "pitch": 0,
                "velocity": 0,
                "duration": 0.1068,
                "tempo": 0
            },
            {
                "pitch": 76,
                "velocity": 7,
                "duration": 0.5682,
                "tempo": 120.0
            },
            {
                "pitch": 0,
                "velocity": 0,
                "duration": 0.2023,
                "tempo": 0
            },
            {
                "pitch": 74,
                "velocity": 7,
                "duration": 0.2818,
                "tempo": 120.0
            },
            {
                "pitch": 0,
                "velocity": 0,
                "duration": 0.1091,
                "tempo": 0
            },
            {
                "pitch": 74,
                "velocity": 7,
                "duration": 0.2795,
                "tempo": 120.0
            },
            {
                "pitch": 0,
                "velocity": 0,
                "duration": 0.1114,
                "tempo": 0
            },
            {
                "pitch": 72,
                "velocity": 7,
                "duration": 0.5955,
                "tempo": 120.0
            },
            {
                "pitch": 0,
                "velocity": 0,
                "duration": 0.2091,
                "tempo": 0
            },
            {
                "pitch": 71,
                "velocity": 7,
                "duration": 0.2886,
                "tempo": 120.0
            },
            {
                "pitch": 0,
                "velocity": 0,
                "duration": 0.1114,
                "tempo": 0
            },
            {
                "pitch": 71,
                "velocity": 7,
                "duration": 0.2841,
                "tempo": 120.0
            },
            {
                "pitch": 0,
                "velocity": 0,
                "duration": 0.1114,
                "tempo": 0
            },
            {
                "pitch": 72,
                "velocity": 7,
                "duration": 0.5886,
                "tempo": 120.0
            },
            {
                "pitch": 0,
                "velocity": 0,
                "duration": 0.2205,
                "tempo": 0
            },
            {
                "pitch": 76,
                "velocity": 7,
                "duration": 0.6318,
                "tempo": 120.0
            },
            {
                "pitch": 0,
                "velocity": 0,
                "duration": 0.2205,
                "tempo": 0
            },
            {
                "pitch": 81,
                "velocity": 7,
                "duration": 4.3205,
                "tempo": 120.0
            },
            {
                "pitch": 0,
                "velocity": 0,
                "duration": 1.9659,
                "tempo": 0
            },
            {
                "pitch": 81,
                "velocity": 3,
                "duration": 0.0795,
                "tempo": 120.0
            },
            {
                "pitch": 0,
                "velocity": 0,
                "duration": 0.7386,
                "tempo": 0
            },
            {
                "pitch": 76,
                "velocity": 7,
                "duration": 0.5841,
                "tempo": 120.0
            },
            {
                "pitch": 0,
                "velocity": 0,
                "duration": 0.1955,
                "tempo": 0
            },
            {
                "pitch": 71,
                "velocity": 7,
                "duration": 0.3136,
                "tempo": 120.0
            },
            {
                "pitch": 0,
                "velocity": 0,
                "duration": 0.1068,
                "tempo": 0
            },
            {
                "pitch": 71,
                "velocity": 7,
                "duration": 0.3159,
                "tempo": 120.0
            },
            {
                "pitch": 0,
                "velocity": 0,
                "duration": 0.1068,
                "tempo": 0
            },
            {
                "pitch": 72,
                "velocity": 7,
                "duration": 0.6318,
                "tempo": 120.0
            },
            {
                "pitch": 0,
                "velocity": 0,
                "duration": 0.2114,
                "tempo": 0
            },
            {
                "pitch": 74,
                "velocity": 7,
                "duration": 0.3068,
                "tempo": 120.0
            },
            {
                "pitch": 0,
                "velocity": 0,
                "duration": 0.1023,
                "tempo": 0
            },
            {
                "pitch": 72,
                "velocity": 7,
                "duration": 0.3045,
                "tempo": 120.0
            },
            {
                "pitch": 0,
                "velocity": 0,
                "duration": 0.1,
                "tempo": 0
            },
            {
                "pitch": 69,
                "velocity": 7,
                "duration": 0.6091,
                "tempo": 120.0
            },
            {
                "pitch": 0,
                "velocity": 0,
                "duration": 0.2023,
                "tempo": 0
            },
            {
                "pitch": 69,
                "velocity": 7,
                "duration": 0.3,
                "tempo": 120.0
            },
            {
                "pitch": 0,
                "velocity": 0,
                "duration": 0.1,
                "tempo": 0
            },
            {
                "pitch": 72,
                "velocity": 7,
                "duration": 0.2409,
                "tempo": 120.0
            },
            {
                "pitch": 0,
                "velocity": 0,
                "duration": 0.1591,
                "tempo": 0
            },
            {
                "pitch": 76,
                "velocity": 7,
                "duration": 0.6,
                "tempo": 120.0
            },
            {
                "pitch": 0,
                "velocity": 0,
                "duration": 0.2,
                "tempo": 0
            },
            {
                "pitch": 74,
                "velocity": 7,
                "duration": 0.3,
                "tempo": 120.0
            },
            {
                "pitch": 0,
                "velocity": 0,
                "duration": 0.1,
                "tempo": 0
            },
            {
                "pitch": 74,
                "velocity": 7,
                "duration": 0.3,
                "tempo": 120.0
            },
            {
                "pitch": 0,
                "velocity": 0,
                "duration": 0.1,
                "tempo": 0
            },
            {
                "pitch": 72,
                "velocity": 7,
                "duration": 0.6,
                "tempo": 120.0
            },
            {
                "pitch": 0,
                "velocity": 0,
                "duration": 0.2,
                "tempo": 0
            },
            {
                "pitch": 71,
                "velocity": 7,
                "duration": 0.3045,
                "tempo": 120.0
            },
            {
                "pitch": 0,
                "velocity": 0,
                "duration": 0.1,
                "tempo": 0
            },
            {
                "pitch": 71,
                "velocity": 7,
                "duration": 0.3045,
                "tempo": 120.0
            },
            {
                "pitch": 0,
                "velocity": 0,
                "duration": 0.1023,
                "tempo": 0
            },
            {
                "pitch": 72,
                "velocity": 7,
                "duration": 0.6068,
                "tempo": 120.0
            },
            {
                "pitch": 0,
                "velocity": 0,
                "duration": 0.2045,
                "tempo": 0
            },
            {
                "pitch": 76,
                "velocity": 7,
                "duration": 0.6068,
                "tempo": 120.0
            },
            {
                "pitch": 0,
                "velocity": 0,
                "duration": 0.2023,
                "tempo": 0
            },
            {
                "pitch": 72,
                "velocity": 7,
                "duration": 0.6091,
                "tempo": 120.0
            },
            {
                "pitch": 0,
                "velocity": 0,
                "duration": 0.2023,
                "tempo": 0
            },
            {
                "pitch": 69,
                "velocity": 7,
                "duration": 0.6,
                "tempo": 120.0
            },
            {
                "pitch": 0,
                "velocity": 0,
                "duration": 0.2,
                "tempo": 0
            },
            {
                "pitch": 69,
                "velocity": 7,
                "duration": 1.2,
                "tempo": 120.0
            },
            {
                "pitch": 0,
                "velocity": 0,
                "duration": 0.4,
                "tempo": 0
            },
            {
                "pitch": 74,
                "velocity": 7,
                "duration": 0.3,
                "tempo": 120.0
            },
            {
                "pitch": 0,
                "velocity": 0,
                "duration": 0.1,
                "tempo": 0
            },
            {
                "pitch": 74,
                "velocity": 7,
                "duration": 0.6,
                "tempo": 120.0
            },
            {
                "pitch": 0,
                "velocity": 0,
                "duration": 0.2,
                "tempo": 0
            },
            {
                "pitch": 77,
                "velocity": 7,
                "duration": 0.3,
                "tempo": 120.0
            },
            {
                "pitch": 0,
                "velocity": 0,
                "duration": 0.1,
                "tempo": 0
            },
            {
                "pitch": 81,
                "velocity": 7,
                "duration": 0.6,
                "tempo": 120.0
            },
            {
                "pitch": 0,
                "velocity": 0,
                "duration": 0.2,
                "tempo": 0
            },
            {
                "pitch": 79,
                "velocity": 7,
                "duration": 0.3045,
                "tempo": 120.0
            },
            {
                "pitch": 0,
                "velocity": 0,
                "duration": 0.1,
                "tempo": 0
            },
            {
                "pitch": 77,
                "velocity": 7,
                "duration": 0.3045,
                "tempo": 120.0
            },
            {
                "pitch": 0,
                "velocity": 0,
                "duration": 0.1023,
                "tempo": 0
            },
            {
                "pitch": 77,
                "velocity": 7,
                "duration": 0.6068,
                "tempo": 120.0
            },
            {
                "pitch": 0,
                "velocity": 0,
                "duration": 0.2045,
                "tempo": 0
            },
            {
                "pitch": 76,
                "velocity": 7,
                "duration": 0.3,
                "tempo": 120.0
            },
            {
                "pitch": 0,
                "velocity": 0,
                "duration": 0.1,
                "tempo": 0
            },
            {
                "pitch": 72,
                "velocity": 7,
                "duration": 0.3,
                "tempo": 120.0
            },
            {
                "pitch": 0,
                "velocity": 0,
                "duration": 0.1,
                "tempo": 0
            },
            {
                "pitch": 76,
                "velocity": 7,
                "duration": 0.6,
                "tempo": 120.0
            },
            {
                "pitch": 0,
                "velocity": 0,
                "duration": 0.2,
                "tempo": 0
            },
            {
                "pitch": 74,
                "velocity": 7,
                "duration": 0.3023,
                "tempo": 120.0
            },
            {
                "pitch": 0,
                "velocity": 0,
                "duration": 0.1023,
                "tempo": 0
            },
            {
                "pitch": 74,
                "velocity": 7,
                "duration": 0.3045,
                "tempo": 120.0
            },
            {
                "pitch": 0,
                "velocity": 0,
                "duration": 0.1,
                "tempo": 0
            },
            {
                "pitch": 72,
                "velocity": 7,
                "duration": 0.6705,
                "tempo": 120.0
            },
            {
                "pitch": 0,
                "velocity": 0,
                "duration": 0.1,
                "tempo": 0
            },
            {
                "pitch": 71,
                "velocity": 7,
                "duration": 0.3023,
                "tempo": 120.0
            },
            {
                "pitch": 0,
                "velocity": 0,
                "duration": 0.1386,
                "tempo": 0
            },
            {
                "pitch": 71,
                "velocity": 7,
                "duration": 0.3,
                "tempo": 120.0
            },
            {
                "pitch": 0,
                "velocity": 0,
                "duration": 0.1,
                "tempo": 0
            },
            {
                "pitch": 72,
                "velocity": 7,
                "duration": 0.6,
                "tempo": 120.0
            },
            {
                "pitch": 0,
                "velocity": 0,
                "duration": 0.2,
                "tempo": 0
            },
            {
                "pitch": 76,
                "velocity": 7,
                "duration": 0.6,
                "tempo": 120.0
            },
            {
                "pitch": 0,
                "velocity": 0,
                "duration": 0.2,
                "tempo": 0
            },
            {
                "pitch": 72,
                "velocity": 7,
                "duration": 0.6,
                "tempo": 120.0
            },
            {
                "pitch": 0,
                "velocity": 0,
                "duration": 0.2,
                "tempo": 0
            },
            {
                "pitch": 69,
                "velocity": 7,
                "duration": 0.6091,
                "tempo": 120.0
            },
            {
                "pitch": 0,
                "velocity": 0,
                "duration": 0.2023,
                "tempo": 0
            },
            {
                "pitch": 69,
                "velocity": 7,
                "duration": 1.2159,
                "tempo": 120.0
            },
            {
                "pitch": 0,
                "velocity": 0,
                "duration": 0.4045,
                "tempo": 0
            },
            {
                "pitch": 76,
                "velocity": 7,
                "duration": 0.6091,
                "tempo": 120.0
            },
            {
                "pitch": 0,
                "velocity": 0,
                "duration": 0.2023,
                "tempo": 0
            },
            {
                "pitch": 71,
                "velocity": 7,
                "duration": 0.3,
                "tempo": 120.0
            },
            {
                "pitch": 0,
                "velocity": 0,
                "duration": 0.1,
                "tempo": 0
            },
            {
                "pitch": 71,
                "velocity": 7,
                "duration": 0.3,
                "tempo": 120.0
            },
            {
                "pitch": 0,
                "velocity": 0,
                "duration": 0.1,
                "tempo": 0
            },
            {
                "pitch": 72,
                "velocity": 7,
                "duration": 0.6,
                "tempo": 120.0
            },
            {
                "pitch": 0,
                "velocity": 0,
                "duration": 0.2,
                "tempo": 0
            },
            {
                "pitch": 74,
                "velocity": 7,
                "duration": 0.3,
                "tempo": 120.0
            },
            {
                "pitch": 0,
                "velocity": 0,
                "duration": 0.1,
                "tempo": 0
            },
            {
                "pitch": 72,
                "velocity": 7,
                "duration": 0.3,
                "tempo": 120.0
            },
            {
                "pitch": 0,
                "velocity": 0,
                "duration": 0.1,
                "tempo": 0
            },
            {
                "pitch": 69,
                "velocity": 7,
                "duration": 0.6,
                "tempo": 120.0
            },
            {
                "pitch": 0,
                "velocity": 0,
                "duration": 0.2,
                "tempo": 0
            },
            {
                "pitch": 69,
                "velocity": 7,
                "duration": 0.3,
                "tempo": 120.0
            },
            {
                "pitch": 0,
                "velocity": 0,
                "duration": 0.1,
                "tempo": 0
            },
            {
                "pitch": 72,
                "velocity": 7,
                "duration": 0.3,
                "tempo": 120.0
            },
            {
                "pitch": 0,
                "velocity": 0,
                "duration": 0.1,
                "tempo": 0
            },
            {
                "pitch": 76,
                "velocity": 7,
                "duration": 0.6,
                "tempo": 120.0
            },
            {
                "pitch": 0,
                "velocity": 0,
                "duration": 0.2,
                "tempo": 0
            },
            {
                "pitch": 74,
                "velocity": 7,
                "duration": 0.3045,
                "tempo": 120.0
            },
            {
                "pitch": 0,
                "velocity": 0,
                "duration": 0.1,
                "tempo": 0
            },
            {
                "pitch": 74,
                "velocity": 7,
                "duration": 0.3045,
                "tempo": 120.0
            },
            {
                "pitch": 0,
                "velocity": 0,
                "duration": 0.1023,
                "tempo": 0
            },
            {
                "pitch": 72,
                "velocity": 7,
                "duration": 0.6068,
                "tempo": 120.0
            },
            {
                "pitch": 0,
                "velocity": 0,
                "duration": 0.2045,
                "tempo": 0
            },
            {
                "pitch": 71,
                "velocity": 7,
                "duration": 0.3,
                "tempo": 120.0
            },
            {
                "pitch": 0,
                "velocity": 0,
                "duration": 0.1,
                "tempo": 0
            },
            {
                "pitch": 71,
                "velocity": 7,
                "duration": 0.3,
                "tempo": 120.0
            },
            {
                "pitch": 0,
                "velocity": 0,
                "duration": 0.1,
                "tempo": 0
            },
            {
                "pitch": 72,
                "velocity": 7,
                "duration": 0.6,
                "tempo": 120.0
            },
            {
                "pitch": 0,
                "velocity": 0,
                "duration": 0.2,
                "tempo": 0
            },
            {
                "pitch": 76,
                "velocity": 7,
                "duration": 0.6068,
                "tempo": 120.0
            },
            {
                "pitch": 0,
                "velocity": 0,
                "duration": 0.2023,
                "tempo": 0
            },
            {
                "pitch": 72,
                "velocity": 7,
                "duration": 0.6091,
                "tempo": 120.0
            },
            {
                "pitch": 0,
                "velocity": 0,
                "duration": 0.2023,
                "tempo": 0
            },
            {
                "pitch": 69,
                "velocity": 7,
                "duration": 0.6,
                "tempo": 120.0
            },
            {
                "pitch": 0,
                "velocity": 0,
                "duration": 0.2,
                "tempo": 0
            },
            {
                "pitch": 69,
                "velocity": 7,
                "duration": 1.2045,
                "tempo": 120.0
            },
            {
                "pitch": 0,
                "velocity": 0,
                "duration": 0.4068,
                "tempo": 0
            },
            {
                "pitch": 74,
                "velocity": 7,
                "duration": 0.3023,
                "tempo": 120.0
            },
            {
                "pitch": 0,
                "velocity": 0,
                "duration": 0.1023,
                "tempo": 0
            },
            {
                "pitch": 74,
                "velocity": 7,
                "duration": 0.6068,
                "tempo": 120.0
            },
            {
                "pitch": 0,
                "velocity": 0,
                "duration": 0.2,
                "tempo": 0
            },
            {
                "pitch": 77,
                "velocity": 7,
                "duration": 0.3,
                "tempo": 120.0
            },
            {
                "pitch": 0,
                "velocity": 0,
                "duration": 0.1,
                "tempo": 0
            },
            {
                "pitch": 81,
                "velocity": 7,
                "duration": 0.6,
                "tempo": 120.0
            },
            {
                "pitch": 0,
                "velocity": 0,
                "duration": 0.2,
                "tempo": 0
            },
            {
                "pitch": 79,
                "velocity": 7,
                "duration": 0.3,
                "tempo": 120.0
            },
            {
                "pitch": 0,
                "velocity": 0,
                "duration": 0.1,
                "tempo": 0
            },
            {
                "pitch": 77,
                "velocity": 7,
                "duration": 0.3,
                "tempo": 120.0
            },
            {
                "pitch": 0,
                "velocity": 0,
                "duration": 0.1,
                "tempo": 0
            },
            {
                "pitch": 77,
                "velocity": 7,
                "duration": 0.6,
                "tempo": 120.0
            },
            {
                "pitch": 0,
                "velocity": 0,
                "duration": 0.2,
                "tempo": 0
            },
            {
                "pitch": 76,
                "velocity": 7,
                "duration": 0.3023,
                "tempo": 120.0
            },
            {
                "pitch": 0,
                "velocity": 0,
                "duration": 0.1023,
                "tempo": 0
            },
            {
                "pitch": 72,
                "velocity": 7,
                "duration": 0.3023,
                "tempo": 120.0
            },
            {
                "pitch": 0,
                "velocity": 0,
                "duration": 0.1023,
                "tempo": 0
            },
            {
                "pitch": 76,
                "velocity": 7,
                "duration": 0.6091,
                "tempo": 120.0
            },
            {
                "pitch": 0,
                "velocity": 0,
                "duration": 0.2023,
                "tempo": 0
            },
            {
                "pitch": 74,
                "velocity": 7,
                "duration": 0.3,
                "tempo": 120.0
            },
            {
                "pitch": 0,
                "velocity": 0,
                "duration": 0.1,
                "tempo": 0
            },
            {
                "pitch": 74,
                "velocity": 7,
                "duration": 0.3,
                "tempo": 120.0
            },
            {
                "pitch": 0,
                "velocity": 0,
                "duration": 0.1,
                "tempo": 0
            },
            {
                "pitch": 72,
                "velocity": 7,
                "duration": 0.6,
                "tempo": 120.0
            },
            {
                "pitch": 0,
                "velocity": 0,
                "duration": 0.2,
                "tempo": 0
            },
            {
                "pitch": 71,
                "velocity": 7,
                "duration": 0.3045,
                "tempo": 120.0
            },
            {
                "pitch": 0,
                "velocity": 0,
                "duration": 0.1,
                "tempo": 0
            },
            {
                "pitch": 71,
                "velocity": 7,
                "duration": 0.3045,
                "tempo": 120.0
            },
            {
                "pitch": 0,
                "velocity": 0,
                "duration": 0.1023,
                "tempo": 0
            },
            {
                "pitch": 72,
                "velocity": 7,
                "duration": 0.6068,
                "tempo": 120.0
            },
            {
                "pitch": 0,
                "velocity": 0,
                "duration": 0.2023,
                "tempo": 0
            },
            {
                "pitch": 76,
                "velocity": 7,
                "duration": 0.6023,
                "tempo": 120.0
            },
            {
                "pitch": 0,
                "velocity": 0,
                "duration": 0.2,
                "tempo": 0
            },
            {
                "pitch": 72,
                "velocity": 7,
                "duration": 0.6,
                "tempo": 120.0
            },
            {
                "pitch": 0,
                "velocity": 0,
                "duration": 0.2,
                "tempo": 0
            },
            {
                "pitch": 69,
                "velocity": 7,
                "duration": 0.6,
                "tempo": 120.0
            },
            {
                "pitch": 0,
                "velocity": 0,
                "duration": 0.2,
                "tempo": 0
            },
            {
                "pitch": 69,
                "velocity": 7,
                "duration": 1.2045,
                "tempo": 120.0
            },
            {
                "pitch": 0,
                "velocity": 0,
                "duration": 0.4045,
                "tempo": 0
            },
            {
                "pitch": 76,
                "velocity": 7,
                "duration": 0.9114,
                "tempo": 120.0
            },
            {
                "pitch": 0,
                "velocity": 0,
                "duration": 0.3,
                "tempo": 0
            },
            {
                "pitch": 76,
                "velocity": 7,
                "duration": 0.3,
                "tempo": 120.0
            },
            {
                "pitch": 0,
                "velocity": 0,
                "duration": 0.1,
                "tempo": 0
            },
            {
                "pitch": 75,
                "velocity": 7,
                "duration": 0.9,
                "tempo": 120.0
            },
            {
                "pitch": 0,
                "velocity": 0,
                "duration": 0.3045,
                "tempo": 0
            },
            {
                "pitch": 76,
                "velocity": 7,
                "duration": 0.3045,
                "tempo": 120.0
            },
            {
                "pitch": 0,
                "velocity": 0,
                "duration": 0.1,
                "tempo": 0
            },
            {
                "pitch": 75,
                "velocity": 7,
                "duration": 0.9114,
                "tempo": 120.0
            },
            {
                "pitch": 0,
                "velocity": 0,
                "duration": 0.3,
                "tempo": 0
            },
            {
                "pitch": 81,
                "velocity": 7,
                "duration": 0.3,
                "tempo": 120.0
            },
            {
                "pitch": 0,
                "velocity": 0,
                "duration": 0.1,
                "tempo": 0
            },
            {
                "pitch": 76,
                "velocity": 7,
                "duration": 0.6,
                "tempo": 120.0
            },
            {
                "pitch": 0,
                "velocity": 0,
                "duration": 0.2,
                "tempo": 0
            },
            {
                "pitch": 74,
                "velocity": 7,
                "duration": 0.3,
                "tempo": 120.0
            },
            {
                "pitch": 0,
                "velocity": 0,
                "duration": 0.1,
                "tempo": 0
            },
            {
                "pitch": 74,
                "velocity": 7,
                "duration": 0.3,
                "tempo": 120.0
            },
            {
                "pitch": 0,
                "velocity": 0,
                "duration": 0.1,
                "tempo": 0
            },
            {
                "pitch": 72,
                "velocity": 7,
                "duration": 0.6,
                "tempo": 120.0
            },
            {
                "pitch": 0,
                "velocity": 0,
                "duration": 0.2,
                "tempo": 0
            },
            {
                "pitch": 71,
                "velocity": 7,
                "duration": 0.3045,
                "tempo": 120.0
            },
            {
                "pitch": 0,
                "velocity": 0,
                "duration": 0.1023,
                "tempo": 0
            },
            {
                "pitch": 71,
                "velocity": 7,
                "duration": 0.3023,
                "tempo": 120.0
            },
            {
                "pitch": 0,
                "velocity": 0,
                "duration": 0.1023,
                "tempo": 0
            },
            {
                "pitch": 72,
                "velocity": 7,
                "duration": 0.6091,
                "tempo": 120.0
            },
            {
                "pitch": 0,
                "velocity": 0,
                "duration": 0.2023,
                "tempo": 0
            },
            {
                "pitch": 76,
                "velocity": 7,
                "duration": 0.6,
                "tempo": 120.0
            },
            {
                "pitch": 0,
                "velocity": 0,
                "duration": 0.2,
                "tempo": 0
            },
            {
                "pitch": 72,
                "velocity": 7,
                "duration": 0.6,
                "tempo": 120.0
            },
            {
                "pitch": 0,
                "velocity": 0,
                "duration": 0.2,
                "tempo": 0
            },
            {
                "pitch": 69,
                "velocity": 7,
                "duration": 0.6,
                "tempo": 120.0
            },
            {
                "pitch": 0,
                "velocity": 0,
                "duration": 0.2,
                "tempo": 0
            },
            {
                "pitch": 69,
                "velocity": 7,
                "duration": 1.2045,
                "tempo": 120.0
            },
            {
                "pitch": 0,
                "velocity": 0,
                "duration": 0.4045,
                "tempo": 0
            },
            {
                "pitch": 76,
                "velocity": 7,
                "duration": 0.9114,
                "tempo": 120.0
            },
            {
                "pitch": 0,
                "velocity": 0,
                "duration": 0.3,
                "tempo": 0
            },
            {
                "pitch": 76,
                "velocity": 7,
                "duration": 0.3,
                "tempo": 120.0
            },
            {
                "pitch": 0,
                "velocity": 0,
                "duration": 0.1,
                "tempo": 0
            },
            {
                "pitch": 75,
                "velocity": 7,
                "duration": 0.9,
                "tempo": 120.0
            },
            {
                "pitch": 0,
                "velocity": 0,
                "duration": 0.3,
                "tempo": 0
            },
            {
                "pitch": 74,
                "velocity": 7,
                "duration": 0.3,
                "tempo": 120.0
            },
            {
                "pitch": 0,
                "velocity": 0,
                "duration": 0.1,
                "tempo": 0
            },
            {
                "pitch": 76,
                "velocity": 7,
                "duration": 0.9,
                "tempo": 120.0
            },
            {
                "pitch": 0,
                "velocity": 0,
                "duration": 0.3,
                "tempo": 0
            },
            {
                "pitch": 81,
                "velocity": 7,
                "duration": 0.3,
                "tempo": 120.0
            },
            {
                "pitch": 0,
                "velocity": 0,
                "duration": 0.1,
                "tempo": 0
            },
            {
                "pitch": 76,
                "velocity": 7,
                "duration": 0.6,
                "tempo": 120.0
            },
            {
                "pitch": 0,
                "velocity": 0,
                "duration": 0.2,
                "tempo": 0
            },
            {
                "pitch": 74,
                "velocity": 7,
                "duration": 0.3045,
                "tempo": 120.0
            },
            {
                "pitch": 0,
                "velocity": 0,
                "duration": 0.1,
                "tempo": 0
            },
            {
                "pitch": 74,
                "velocity": 7,
                "duration": 0.3045,
                "tempo": 120.0
            },
            {
                "pitch": 0,
                "velocity": 0,
                "duration": 0.1023,
                "tempo": 0
            },
            {
                "pitch": 72,
                "velocity": 7,
                "duration": 0.6068,
                "tempo": 120.0
            },
            {
                "pitch": 0,
                "velocity": 0,
                "duration": 0.2045,
                "tempo": 0
            },
            {
                "pitch": 71,
                "velocity": 7,
                "duration": 0.3,
                "tempo": 120.0
            },
            {
                "pitch": 0,
                "velocity": 0,
                "duration": 0.1,
                "tempo": 0
            },
            {
                "pitch": 71,
                "velocity": 7,
                "duration": 0.3,
                "tempo": 120.0
            },
            {
                "pitch": 0,
                "velocity": 0,
                "duration": 0.1,
                "tempo": 0
            },
            {
                "pitch": 72,
                "velocity": 7,
                "duration": 0.6,
                "tempo": 120.0
            },
            {
                "pitch": 0,
                "velocity": 0,
                "duration": 0.2,
                "tempo": 0
            },
            {
                "pitch": 76,
                "velocity": 7,
                "duration": 0.6,
                "tempo": 120.0
            },
            {
                "pitch": 0,
                "velocity": 0,
                "duration": 0.2,
                "tempo": 0
            },
            {
                "pitch": 81,
                "velocity": 7,
                "duration": 4.0432,
                "tempo": 120.0
            },
            {
                "pitch": 0,
                "velocity": 0,
                "duration": 1.7841,
                "tempo": 0
            },
            {
                "pitch": 81,
                "velocity": 3,
                "duration": 0.0591,
                "tempo": 120.0
            },
            {
                "pitch": 0,
                "velocity": 0,
                "duration": 0.6,
                "tempo": 0
            },
            {
                "pitch": 76,
                "velocity": 7,
                "duration": 0.6,
                "tempo": 120.0
            },
            {
                "pitch": 0,
                "velocity": 0,
                "duration": 0.2,
                "tempo": 0
            },
            {
                "pitch": 71,
                "velocity": 7,
                "duration": 0.2932,
                "tempo": 120.0
            },
            {
                "pitch": 0,
                "velocity": 0,
                "duration": 0.0977,
                "tempo": 0
            },
            {
                "pitch": 71,
                "velocity": 7,
                "duration": 0.2932,
                "tempo": 120.0
            },
            {
                "pitch": 0,
                "velocity": 0,
                "duration": 0.0977,
                "tempo": 0
            },
            {
                "pitch": 72,
                "velocity": 7,
                "duration": 0.5841,
                "tempo": 120.0
            },
            {
                "pitch": 0,
                "velocity": 0,
                "duration": 0.1955,
                "tempo": 0
            },
            {
                "pitch": 74,
                "velocity": 7,
                "duration": 0.2977,
                "tempo": 120.0
            },
            {
                "pitch": 0,
                "velocity": 0,
                "duration": 0.1,
                "tempo": 0
            },
            {
                "pitch": 72,
                "velocity": 7,
                "duration": 0.3,
                "tempo": 120.0
            },
            {
                "pitch": 0,
                "velocity": 0,
                "duration": 0.1,
                "tempo": 0
            },
            {
                "pitch": 69,
                "velocity": 7,
                "duration": 0.6,
                "tempo": 120.0
            },
            {
                "pitch": 0,
                "velocity": 0,
                "duration": 0.2,
                "tempo": 0
            },
            {
                "pitch": 69,
                "velocity": 7,
                "duration": 0.3,
                "tempo": 120.0
            },
            {
                "pitch": 0,
                "velocity": 0,
                "duration": 0.1,
                "tempo": 0
            },
            {
                "pitch": 72,
                "velocity": 7,
                "duration": 0.3,
                "tempo": 120.0
            },
            {
                "pitch": 0,
                "velocity": 0,
                "duration": 0.1,
                "tempo": 0
            },
            {
                "pitch": 76,
                "velocity": 7,
                "duration": 0.6,
                "tempo": 120.0
            },
            {
                "pitch": 0,
                "velocity": 0,
                "duration": 0.2,
                "tempo": 0
            },
            {
                "pitch": 74,
                "velocity": 7,
                "duration": 0.3,
                "tempo": 120.0
            },
            {
                "pitch": 0,
                "velocity": 0,
                "duration": 0.1,
                "tempo": 0
            },
            {
                "pitch": 74,
                "velocity": 7,
                "duration": 0.3,
                "tempo": 120.0
            },
            {
                "pitch": 0,
                "velocity": 0,
                "duration": 0.1,
                "tempo": 0
            },
            {
                "pitch": 72,
                "velocity": 7,
                "duration": 0.6,
                "tempo": 120.0
            },
            {
                "pitch": 0,
                "velocity": 0,
                "duration": 0.2,
                "tempo": 0
            },
            {
                "pitch": 71,
                "velocity": 7,
                "duration": 0.3,
                "tempo": 120.0
            },
            {
                "pitch": 0,
                "velocity": 0,
                "duration": 0.1,
                "tempo": 0
            },
            {
                "pitch": 71,
                "velocity": 7,
                "duration": 0.3,
                "tempo": 120.0
            },
            {
                "pitch": 0,
                "velocity": 0,
                "duration": 0.1,
                "tempo": 0
            },
            {
                "pitch": 72,
                "velocity": 7,
                "duration": 0.6,
                "tempo": 120.0
            },
            {
                "pitch": 0,
                "velocity": 0,
                "duration": 0.1705,
                "tempo": 0
            },
            {
                "pitch": 76,
                "velocity": 7,
                "duration": 0.5114,
                "tempo": 120.0
            },
            {
                "pitch": 0,
                "velocity": 0,
                "duration": 0.1705,
                "tempo": 0
            },
            {
                "pitch": 72,
                "velocity": 7,
                "duration": 0.5205,
                "tempo": 120.0
            },
            {
                "pitch": 0,
                "velocity": 0,
                "duration": 0.1864,
                "tempo": 0
            },
            {
                "pitch": 69,
                "velocity": 7,
                "duration": 0.5545,
                "tempo": 120.0
            },
            {
                "pitch": 0,
                "velocity": 0,
                "duration": 0.1841,
                "tempo": 0
            },
            {
                "pitch": 69,
                "velocity": 7,
                "duration": 1.0409,
                "tempo": 120.0
            },
            {
                "pitch": 0,
                "velocity": 0,
                "duration": 0.3409,
                "tempo": 0
            },
            {
                "pitch": 74,
                "velocity": 7,
                "duration": 0.2659,
                "tempo": 120.0
            },
            {
                "pitch": 0,
                "velocity": 0,
                "duration": 0.1,
                "tempo": 0
            },
            {
                "pitch": 74,
                "velocity": 7,
                "duration": 0.6,
                "tempo": 120.0
            },
            {
                "pitch": 0,
                "velocity": 0,
                "duration": 0.2,
                "tempo": 0
            },
            {
                "pitch": 77,
                "velocity": 7,
                "duration": 0.3,
                "tempo": 120.0
            },
            {
                "pitch": 0,
                "velocity": 0,
                "duration": 0.1,
                "tempo": 0
            },
            {
                "pitch": 81,
                "velocity": 7,
                "duration": 0.5568,
                "tempo": 120.0
            },
            {
                "pitch": 0,
                "velocity": 0,
                "duration": 0.1818,
                "tempo": 0
            },
            {
                "pitch": 79,
                "velocity": 7,
                "duration": 0.275,
                "tempo": 120.0
            },
            {
                "pitch": 0,
                "velocity": 0,
                "duration": 0.0909,
                "tempo": 0
            },
            {
                "pitch": 77,
                "velocity": 7,
                "duration": 0.275,
                "tempo": 120.0
            },
            {
                "pitch": 0,
                "velocity": 0,
                "duration": 0.0909,
                "tempo": 0
            },
            {
                "pitch": 77,
                "velocity": 7,
                "duration": 0.5932,
                "tempo": 120.0
            },
            {
                "pitch": 0,
                "velocity": 0,
                "duration": 0.2,
                "tempo": 0
            },
            {
                "pitch": 76,
                "velocity": 7,
                "duration": 0.3,
                "tempo": 120.0
            },
            {
                "pitch": 0,
                "velocity": 0,
                "duration": 0.1,
                "tempo": 0
            },
            {
                "pitch": 72,
                "velocity": 7,
                "duration": 0.3,
                "tempo": 120.0
            },
            {
                "pitch": 0,
                "velocity": 0,
                "duration": 0.1,
                "tempo": 0
            },
            {
                "pitch": 76,
                "velocity": 7,
                "duration": 0.6068,
                "tempo": 120.0
            },
            {
                "pitch": 0,
                "velocity": 0,
                "duration": 0.2023,
                "tempo": 0
            },
            {
                "pitch": 74,
                "velocity": 7,
                "duration": 0.3045,
                "tempo": 120.0
            },
            {
                "pitch": 0,
                "velocity": 0,
                "duration": 0.1023,
                "tempo": 0
            },
            {
                "pitch": 74,
                "velocity": 7,
                "duration": 0.3045,
                "tempo": 120.0
            },
            {
                "pitch": 0,
                "velocity": 0,
                "duration": 0.1,
                "tempo": 0
            },
            {
                "pitch": 72,
                "velocity": 7,
                "duration": 0.5864,
                "tempo": 120.0
            },
            {
                "pitch": 0,
                "velocity": 0,
                "duration": 0.1955,
                "tempo": 0
            },
            {
                "pitch": 71,
                "velocity": 7,
                "duration": 0.2909,
                "tempo": 120.0
            },
            {
                "pitch": 0,
                "velocity": 0,
                "duration": 0.0977,
                "tempo": 0
            },
            {
                "pitch": 71,
                "velocity": 7,
                "duration": 0.2932,
                "tempo": 120.0
            },
            {
                "pitch": 0,
                "velocity": 0,
                "duration": 0.0977,
                "tempo": 0
            },
            {
                "pitch": 72,
                "velocity": 7,
                "duration": 0.6227,
                "tempo": 120.0
            },
            {
                "pitch": 0,
                "velocity": 0,
                "duration": 0.2114,
                "tempo": 0
            },
            {
                "pitch": 76,
                "velocity": 7,
                "duration": 0.6341,
                "tempo": 120.0
            },
            {
                "pitch": 0,
                "velocity": 0,
                "duration": 0.2114,
                "tempo": 0
            },
            {
                "pitch": 72,
                "velocity": 7,
                "duration": 0.5795,
                "tempo": 120.0
            },
            {
                "pitch": 0,
                "velocity": 0,
                "duration": 0.1932,
                "tempo": 0
            },
            {
                "pitch": 69,
                "velocity": 7,
                "duration": 0.5773,
                "tempo": 120.0
            },
            {
                "pitch": 0,
                "velocity": 0,
                "duration": 0.1932,
                "tempo": 0
            },
            {
                "pitch": 69,
                "velocity": 7,
                "duration": 1.1977,
                "tempo": 120.0
            },
            {
                "pitch": 0,
                "velocity": 0,
                "duration": 0.4,
                "tempo": 0
            },
            {
                "pitch": 76,
                "velocity": 7,
                "duration": 0.9,
                "tempo": 120.0
            },
            {
                "pitch": 0,
                "velocity": 0,
                "duration": 0.3,
                "tempo": 0
            },
            {
                "pitch": 76,
                "velocity": 7,
                "duration": 0.3,
                "tempo": 120.0
            },
            {
                "pitch": 0,
                "velocity": 0,
                "duration": 0.1,
                "tempo": 0
            },
            {
                "pitch": 75,
                "velocity": 7,
                "duration": 0.9114,
                "tempo": 120.0
            },
            {
                "pitch": 0,
                "velocity": 0,
                "duration": 0.3045,
                "tempo": 0
            },
            {
                "pitch": 76,
                "velocity": 7,
                "duration": 0.3023,
                "tempo": 120.0
            },
            {
                "pitch": 0,
                "velocity": 0,
                "duration": 0.1023,
                "tempo": 0
            },
            {
                "pitch": 75,
                "velocity": 7,
                "duration": 0.8773,
                "tempo": 120.0
            },
            {
                "pitch": 0,
                "velocity": 0,
                "duration": 0.2909,
                "tempo": 0
            },
            {
                "pitch": 81,
                "velocity": 7,
                "duration": 0.2932,
                "tempo": 120.0
            },
            {
                "pitch": 0,
                "velocity": 0,
                "duration": 0.0977,
                "tempo": 0
            },
            {
                "pitch": 76,
                "velocity": 7,
                "duration": 0.6068,
                "tempo": 120.0
            },
            {
                "pitch": 0,
                "velocity": 0,
                "duration": 0.2023,
                "tempo": 0
            },
            {
                "pitch": 74,
                "velocity": 7,
                "duration": 0.3045,
                "tempo": 120.0
            },
            {
                "pitch": 0,
                "velocity": 0,
                "duration": 0.1023,
                "tempo": 0
            },
            {
                "pitch": 74,
                "velocity": 7,
                "duration": 0.3023,
                "tempo": 120.0
            },
            {
                "pitch": 0,
                "velocity": 0,
                "duration": 0.1023,
                "tempo": 0
            },
            {
                "pitch": 72,
                "velocity": 7,
                "duration": 0.6068,
                "tempo": 120.0
            },
            {
                "pitch": 0,
                "velocity": 0,
                "duration": 0.2045,
                "tempo": 0
            },
            {
                "pitch": 71,
                "velocity": 7,
                "duration": 0.3023,
                "tempo": 120.0
            },
            {
                "pitch": 0,
                "velocity": 0,
                "duration": 0.1023,
                "tempo": 0
            },
            {
                "pitch": 71,
                "velocity": 7,
                "duration": 0.3045,
                "tempo": 120.0
            },
            {
                "pitch": 0,
                "velocity": 0,
                "duration": 0.1,
                "tempo": 0
            },
            {
                "pitch": 72,
                "velocity": 7,
                "duration": 0.6023,
                "tempo": 120.0
            },
            {
                "pitch": 0,
                "velocity": 0,
                "duration": 0.2,
                "tempo": 0
            },
            {
                "pitch": 76,
                "velocity": 7,
                "duration": 0.6,
                "tempo": 120.0
            },
            {
                "pitch": 0,
                "velocity": 0,
                "duration": 0.2,
                "tempo": 0
            },
            {
                "pitch": 72,
                "velocity": 7,
                "duration": 0.6068,
                "tempo": 120.0
            },
            {
                "pitch": 0,
                "velocity": 0,
                "duration": 0.2023,
                "tempo": 0
            },
            {
                "pitch": 69,
                "velocity": 7,
                "duration": 0.6091,
                "tempo": 120.0
            },
            {
                "pitch": 0,
                "velocity": 0,
                "duration": 0.2023,
                "tempo": 0
            },
            {
                "pitch": 69,
                "velocity": 7,
                "duration": 1.2159,
                "tempo": 120.0
            },
            {
                "pitch": 0,
                "velocity": 0,
                "duration": 0.4045,
                "tempo": 0
            },
            {
                "pitch": 76,
                "velocity": 7,
                "duration": 0.9136,
                "tempo": 120.0
            },
            {
                "pitch": 0,
                "velocity": 0,
                "duration": 0.3023,
                "tempo": 0
            },
            {
                "pitch": 76,
                "velocity": 7,
                "duration": 0.3045,
                "tempo": 120.0
            },
            {
                "pitch": 0,
                "velocity": 0,
                "duration": 0.1023,
                "tempo": 0
            },
            {
                "pitch": 75,
                "velocity": 7,
                "duration": 0.9114,
                "tempo": 120.0
            },
            {
                "pitch": 0,
                "velocity": 0,
                "duration": 0.3045,
                "tempo": 0
            },
            {
                "pitch": 74,
                "velocity": 7,
                "duration": 0.3045,
                "tempo": 120.0
            },
            {
                "pitch": 0,
                "velocity": 0,
                "duration": 0.1,
                "tempo": 0
            },
            {
                "pitch": 76,
                "velocity": 7,
                "duration": 0.9023,
                "tempo": 120.0
            },
            {
                "pitch": 0,
                "velocity": 0,
                "duration": 0.3,
                "tempo": 0
            },
            {
                "pitch": 81,
                "velocity": 7,
                "duration": 0.3,
                "tempo": 120.0
            },
            {
                "pitch": 0,
                "velocity": 0,
                "duration": 0.1,
                "tempo": 0
            },
            {
                "pitch": 76,
                "velocity": 7,
                "duration": 0.6,
                "tempo": 120.0
            },
            {
                "pitch": 0,
                "velocity": 0,
                "duration": 0.2,
                "tempo": 0
            },
            {
                "pitch": 74,
                "velocity": 7,
                "duration": 0.3,
                "tempo": 120.0
            },
            {
                "pitch": 0,
                "velocity": 0,
                "duration": 0.1,
                "tempo": 0
            },
            {
                "pitch": 74,
                "velocity": 7,
                "duration": 0.3,
                "tempo": 120.0
            },
            {
                "pitch": 0,
                "velocity": 0,
                "duration": 0.1,
                "tempo": 0
            },
            {
                "pitch": 72,
                "velocity": 7,
                "duration": 0.6,
                "tempo": 120.0
            },
            {
                "pitch": 0,
                "velocity": 0,
                "duration": 0.2,
                "tempo": 0
            },
            {
                "pitch": 71,
                "velocity": 7,
                "duration": 0.3,
                "tempo": 120.0
            },
            {
                "pitch": 0,
                "velocity": 0,
                "duration": 0.1,
                "tempo": 0
            },
            {
                "pitch": 71,
                "velocity": 7,
                "duration": 0.3,
                "tempo": 120.0
            },
            {
                "pitch": 0,
                "velocity": 0,
                "duration": 0.1,
                "tempo": 0
            },
            {
                "pitch": 72,
                "velocity": 7,
                "duration": 0.6,
                "tempo": 120.0
            },
            {
                "pitch": 0,
                "velocity": 0,
                "duration": 0.2,
                "tempo": 0
            },
            {
                "pitch": 76,
                "velocity": 7,
                "duration": 0.6,
                "tempo": 120.0
            },
            {
                "pitch": 0,
                "velocity": 0,
                "duration": 0.2,
                "tempo": 0
            },
            {
                "pitch": 81,
                "velocity": 7,
                "duration": 3.8091,
                "tempo": 120.0
            }
        ],
        "Lead 2 (sawtooth)": [
            {
                "pitch": 0,
                "velocity": 0,
                "duration": 0.3909,
                "tempo": 0
            },
            {
                "pitch": 59,
                "velocity": 5,
                "duration": 0.8136,
                "tempo": 120.0
            },
            {
                "pitch": 0,
                "velocity": 0,
                "duration": 0.0886,
                "tempo": 0
            },
            {
                "pitch": 59,
                "velocity": 4,
                "duration": 0.6273,
                "tempo": 120.0
            },
            {
                "pitch": 59,
                "velocity": 5,
                "duration": 0.55,
                "tempo": 120.0
            },
            {
                "pitch": 0,
                "velocity": 0,
                "duration": 0.0841,
                "tempo": 0
            },
            {
                "pitch": 59,
                "velocity": 4,
                "duration": 0.2477,
                "tempo": 120.0
            },
            {
                "pitch": 0,
                "velocity": 0,
                "duration": 0.375,
                "tempo": 0
            },
            {
                "pitch": 59,
                "velocity": 4,
                "duration": 0.5477,
                "tempo": 120.0
            },
            {
                "pitch": 0,
                "velocity": 0,
                "duration": 0.0864,
                "tempo": 0
            },
            {
                "pitch": 57,
                "velocity": 4,
                "duration": 0.5318,
                "tempo": 120.0
            },
            {
                "pitch": 0,
                "velocity": 0,
                "duration": 0.0886,
                "tempo": 0
            },
            {
                "pitch": 57,
                "velocity": 4,
                "duration": 0.6341,
                "tempo": 120.0
            },
            {
                "pitch": 57,
                "velocity": 4,
                "duration": 0.3068,
                "tempo": 120.0
            },
            {
                "pitch": 0,
                "velocity": 0,
                "duration": 0.3114,
                "tempo": 0
            },
            {
                "pitch": 57,
                "velocity": 5,
                "duration": 1.2295,
                "tempo": 120.0
            },
            {
                "pitch": 59,
                "velocity": 4,
                "duration": 0.625,
                "tempo": 120.0
            },
            {
                "pitch": 59,
                "velocity": 5,
                "duration": 0.325,
                "tempo": 120.0
            },
            {
                "pitch": 0,
                "velocity": 0,
                "duration": 0.3,
                "tempo": 0
            },
            {
                "pitch": 59,
                "velocity": 5,
                "duration": 2.1932,
                "tempo": 120.0
            },
            {
                "pitch": 0,
                "velocity": 0,
                "duration": 0.3,
                "tempo": 0
            },
            {
                "pitch": 57,
                "velocity": 4,
                "duration": 1.9,
                "tempo": 120.0
            },
            {
                "pitch": 57,
                "velocity": 4,
                "duration": 0.2705,
                "tempo": 120.0
            },
            {
                "pitch": 0,
                "velocity": 0,
                "duration": 0.05,
                "tempo": 0
            },
            {
                "pitch": 57,
                "velocity": 5,
                "duration": 0.5432,
                "tempo": 120.0
            },
            {
                "pitch": 0,
                "velocity": 0,
                "duration": 0.0773,
                "tempo": 0
            },
            {
                "pitch": 57,
                "velocity": 4,
                "duration": 0.8068,
                "tempo": 120.0
            },
            {
                "pitch": 0,
                "velocity": 0,
                "duration": 0.1273,
                "tempo": 0
            },
            {
                "pitch": 57,
                "velocity": 4,
                "duration": 0.5636,
                "tempo": 120.0
            },
            {
                "pitch": 0,
                "velocity": 0,
                "duration": 0.0841,
                "tempo": 0
            },
            {
                "pitch": 57,
                "velocity": 4,
                "duration": 0.1727,
                "tempo": 120.0
            },
            {
                "pitch": 0,
                "velocity": 0,
                "duration": 0.7455,
                "tempo": 0
            },
            {
                "pitch": 50,
                "velocity": 5,
                "duration": 1.0091,
                "tempo": 120.0
            },
            {
                "pitch": 0,
                "velocity": 0,
                "duration": 0.1455,
                "tempo": 0
            },
            {
                "pitch": 50,
                "velocity": 5,
                "duration": 0.5864,
                "tempo": 120.0
            },
            {
                "pitch": 0,
                "velocity": 0,
                "duration": 0.3,
                "tempo": 0
            },
            {
                "pitch": 52,
                "velocity": 5,
                "duration": 0.9409,
                "tempo": 120.0
            },
            {
                "pitch": 60,
                "velocity": 5,
                "duration": 1.275,
                "tempo": 120.0
            },
            {
                "pitch": 0,
                "velocity": 0,
                "duration": 0.2955,
                "tempo": 0
            },
            {
                "pitch": 57,
                "velocity": 4,
                "duration": 0.5455,
                "tempo": 120.0
            },
            {
                "pitch": 0,
                "velocity": 0,
                "duration": 0.075,
                "tempo": 0
            },
            {
                "pitch": 57,
                "velocity": 4,
                "duration": 0.625,
                "tempo": 120.0
            },
            {
                "pitch": 57,
                "velocity": 4,
                "duration": 0.5409,
                "tempo": 120.0
            },
            {
                "pitch": 0,
                "velocity": 0,
                "duration": 0.0727,
                "tempo": 0
            },
            {
                "pitch": 57,
                "velocity": 4,
                "duration": 0.3159,
                "tempo": 120.0
            },
            {
                "pitch": 0,
                "velocity": 0,
                "duration": 0.3068,
                "tempo": 0
            },
            {
                "pitch": 57,
                "velocity": 4,
                "duration": 1.5773,
                "tempo": 120.0
            },
            {
                "pitch": 57,
                "velocity": 4,
                "duration": 0.6295,
                "tempo": 120.0
            },
            {
                "pitch": 0,
                "velocity": 0,
                "duration": 0.3068,
                "tempo": 0
            },
            {
                "pitch": 57,
                "velocity": 4,
                "duration": 0.5568,
                "tempo": 120.0
            },
            {
                "pitch": 0,
                "velocity": 0,
                "duration": 0.075,
                "tempo": 0
            },
            {
                "pitch": 59,
                "velocity": 4,
                "duration": 0.925,
                "tempo": 120.0
            },
            {
                "pitch": 59,
                "velocity": 4,
                "duration": 0.6159,
                "tempo": 120.0
            },
            {
                "pitch": 0,
                "velocity": 0,
                "duration": 0.3114,
                "tempo": 0
            },
            {
                "pitch": 59,
                "velocity": 4,
                "duration": 2.4295,
                "tempo": 120.0
            },
            {
                "pitch": 0,
                "velocity": 0,
                "duration": 0.3568,
                "tempo": 0
            },
            {
                "pitch": 57,
                "velocity": 4,
                "duration": 0.6295,
                "tempo": 120.0
            },
            {
                "pitch": 0,
                "velocity": 0,
                "duration": 0.0705,
                "tempo": 0
            },
            {
                "pitch": 57,
                "velocity": 4,
                "duration": 0.7614,
                "tempo": 120.0
            },
            {
                "pitch": 57,
                "velocity": 4,
                "duration": 0.6955,
                "tempo": 120.0
            },
            {
                "pitch": 0,
                "velocity": 0,
                "duration": 0.0773,
                "tempo": 0
            },
            {
                "pitch": 57,
                "velocity": 4,
                "duration": 0.3818,
                "tempo": 120.0
            },
            {
                "pitch": 0,
                "velocity": 0,
                "duration": 0.3932,
                "tempo": 0
            },
            {
                "pitch": 57,
                "velocity": 4,
                "duration": 1.9591,
                "tempo": 120.0
            },
            {
                "pitch": 57,
                "velocity": 4,
                "duration": 0.7795,
                "tempo": 120.0
            },
            {
                "pitch": 0,
                "velocity": 0,
                "duration": 0.4045,
                "tempo": 0
            },
            {
                "pitch": 57,
                "velocity": 4,
                "duration": 0.6909,
                "tempo": 120.0
            },
            {
                "pitch": 0,
                "velocity": 0,
                "duration": 0.1114,
                "tempo": 0
            },
            {
                "pitch": 59,
                "velocity": 4,
                "duration": 1.2068,
                "tempo": 120.0
            },
            {
                "pitch": 59,
                "velocity": 4,
                "duration": 0.8523,
                "tempo": 120.0
            },
            {
                "pitch": 59,
                "velocity": 4,
                "duration": 4.0773,
                "tempo": 120.0
            },
            {
                "pitch": 0,
                "velocity": 0,
                "duration": 3.0318,
                "tempo": 0
            },
            {
                "pitch": 57,
                "velocity": 2,
                "duration": 0.0977,
                "tempo": 120.0
            },
            {
                "pitch": 0,
                "velocity": 0,
                "duration": 0.6818,
                "tempo": 0
            },
            {
                "pitch": 62,
                "velocity": 4,
                "duration": 0.6341,
                "tempo": 120.0
            },
            {
                "pitch": 0,
                "velocity": 0,
                "duration": 1.0568,
                "tempo": 0
            },
            {
                "pitch": 62,
                "velocity": 4,
                "duration": 0.6091,
                "tempo": 120.0
            },
            {
                "pitch": 0,
                "velocity": 0,
                "duration": 1.0136,
                "tempo": 0
            },
            {
                "pitch": 62,
                "velocity": 4,
                "duration": 0.6,
                "tempo": 120.0
            },
            {
                "pitch": 0,
                "velocity": 0,
                "duration": 1.0,
                "tempo": 0
            },
            {
                "pitch": 60,
                "velocity": 4,
                "duration": 0.6,
                "tempo": 120.0
            },
            {
                "pitch": 0,
                "velocity": 0,
                "duration": 1.0,
                "tempo": 0
            },
            {
                "pitch": 60,
                "velocity": 4,
                "duration": 0.6068,
                "tempo": 120.0
            },
            {
                "pitch": 0,
                "velocity": 0,
                "duration": 1.0136,
                "tempo": 0
            },
            {
                "pitch": 62,
                "velocity": 4,
                "duration": 0.6091,
                "tempo": 120.0
            },
            {
                "pitch": 0,
                "velocity": 0,
                "duration": 1.0136,
                "tempo": 0
            },
            {
                "pitch": 62,
                "velocity": 4,
                "duration": 0.6,
                "tempo": 120.0
            },
            {
                "pitch": 0,
                "velocity": 0,
                "duration": 1.0,
                "tempo": 0
            },
            {
                "pitch": 60,
                "velocity": 4,
                "duration": 0.6,
                "tempo": 120.0
            },
            {
                "pitch": 0,
                "velocity": 0,
                "duration": 1.0,
                "tempo": 0
            },
            {
                "pitch": 60,
                "velocity": 4,
                "duration": 0.6,
                "tempo": 120.0
            },
            {
                "pitch": 0,
                "velocity": 0,
                "duration": 1.0,
                "tempo": 0
            },
            {
                "pitch": 62,
                "velocity": 4,
                "duration": 0.6068,
                "tempo": 120.0
            },
            {
                "pitch": 0,
                "velocity": 0,
                "duration": 1.0136,
                "tempo": 0
            },
            {
                "pitch": 62,
                "velocity": 4,
                "duration": 0.6,
                "tempo": 120.0
            },
            {
                "pitch": 0,
                "velocity": 0,
                "duration": 1.0,
                "tempo": 0
            },
            {
                "pitch": 60,
                "velocity": 4,
                "duration": 0.6091,
                "tempo": 120.0
            },
            {
                "pitch": 0,
                "velocity": 0,
                "duration": 1.0136,
                "tempo": 0
            },
            {
                "pitch": 60,
                "velocity": 4,
                "duration": 0.6,
                "tempo": 120.0
            },
            {
                "pitch": 0,
                "velocity": 0,
                "duration": 1.0,
                "tempo": 0
            },
            {
                "pitch": 62,
                "velocity": 4,
                "duration": 0.6,
                "tempo": 120.0
            },
            {
                "pitch": 0,
                "velocity": 0,
                "duration": 1.0,
                "tempo": 0
            },
            {
                "pitch": 62,
                "velocity": 4,
                "duration": 0.6068,
                "tempo": 120.0
            },
            {
                "pitch": 0,
                "velocity": 0,
                "duration": 1.0136,
                "tempo": 0
            },
            {
                "pitch": 60,
                "velocity": 4,
                "duration": 0.6091,
                "tempo": 120.0
            },
            {
                "pitch": 0,
                "velocity": 0,
                "duration": 1.0136,
                "tempo": 0
            },
            {
                "pitch": 60,
                "velocity": 4,
                "duration": 0.6,
                "tempo": 120.0
            },
            {
                "pitch": 0,
                "velocity": 0,
                "duration": 1.0,
                "tempo": 0
            },
            {
                "pitch": 62,
                "velocity": 4,
                "duration": 0.6,
                "tempo": 120.0
            },
            {
                "pitch": 0,
                "velocity": 0,
                "duration": 1.0,
                "tempo": 0
            },
            {
                "pitch": 62,
                "velocity": 4,
                "duration": 0.6,
                "tempo": 120.0
            },
            {
                "pitch": 0,
                "velocity": 0,
                "duration": 1.0,
                "tempo": 0
            },
            {
                "pitch": 60,
                "velocity": 4,
                "duration": 0.6068,
                "tempo": 120.0
            },
            {
                "pitch": 0,
                "velocity": 0,
                "duration": 1.0136,
                "tempo": 0
            },
            {
                "pitch": 60,
                "velocity": 4,
                "duration": 0.6,
                "tempo": 120.0
            },
            {
                "pitch": 0,
                "velocity": 0,
                "duration": 1.0,
                "tempo": 0
            },
            {
                "pitch": 62,
                "velocity": 4,
                "duration": 0.6091,
                "tempo": 120.0
            },
            {
                "pitch": 0,
                "velocity": 0,
                "duration": 1.0136,
                "tempo": 0
            },
            {
                "pitch": 62,
                "velocity": 4,
                "duration": 0.6,
                "tempo": 120.0
            },
            {
                "pitch": 0,
                "velocity": 0,
                "duration": 1.0,
                "tempo": 0
            },
            {
                "pitch": 60,
                "velocity": 4,
                "duration": 0.6068,
                "tempo": 120.0
            },
            {
                "pitch": 0,
                "velocity": 0,
                "duration": 1.0136,
                "tempo": 0
            },
            {
                "pitch": 60,
                "velocity": 4,
                "duration": 0.6,
                "tempo": 120.0
            },
            {
                "pitch": 0,
                "velocity": 0,
                "duration": 1.0,
                "tempo": 0
            },
            {
                "pitch": 62,
                "velocity": 4,
                "duration": 0.6,
                "tempo": 120.0
            },
            {
                "pitch": 0,
                "velocity": 0,
                "duration": 1.0,
                "tempo": 0
            },
            {
                "pitch": 62,
                "velocity": 4,
                "duration": 0.6091,
                "tempo": 120.0
            },
            {
                "pitch": 0,
                "velocity": 0,
                "duration": 1.0136,
                "tempo": 0
            },
            {
                "pitch": 60,
                "velocity": 4,
                "duration": 0.6,
                "tempo": 120.0
            },
            {
                "pitch": 0,
                "velocity": 0,
                "duration": 1.0,
                "tempo": 0
            },
            {
                "pitch": 60,
                "velocity": 4,
                "duration": 0.6068,
                "tempo": 120.0
            },
            {
                "pitch": 0,
                "velocity": 0,
                "duration": 1.0136,
                "tempo": 0
            },
            {
                "pitch": 62,
                "velocity": 4,
                "duration": 0.6,
                "tempo": 120.0
            },
            {
                "pitch": 0,
                "velocity": 0,
                "duration": 1.0,
                "tempo": 0
            },
            {
                "pitch": 62,
                "velocity": 4,
                "duration": 0.6,
                "tempo": 120.0
            },
            {
                "pitch": 0,
                "velocity": 0,
                "duration": 1.0,
                "tempo": 0
            },
            {
                "pitch": 60,
                "velocity": 4,
                "duration": 0.6091,
                "tempo": 120.0
            },
            {
                "pitch": 0,
                "velocity": 0,
                "duration": 1.0136,
                "tempo": 0
            },
            {
                "pitch": 60,
                "velocity": 4,
                "duration": 0.6,
                "tempo": 120.0
            },
            {
                "pitch": 0,
                "velocity": 0,
                "duration": 1.0,
                "tempo": 0
            },
            {
                "pitch": 60,
                "velocity": 4,
                "duration": 0.6068,
                "tempo": 120.0
            },
            {
                "pitch": 0,
                "velocity": 0,
                "duration": 1.0136,
                "tempo": 0
            },
            {
                "pitch": 60,
                "velocity": 4,
                "duration": 0.6,
                "tempo": 120.0
            },
            {
                "pitch": 0,
                "velocity": 0,
                "duration": 1.0,
                "tempo": 0
            },
            {
                "pitch": 60,
                "velocity": 4,
                "duration": 0.6,
                "tempo": 120.0
            },
            {
                "pitch": 0,
                "velocity": 0,
                "duration": 1.0,
                "tempo": 0
            },
            {
                "pitch": 60,
                "velocity": 4,
                "duration": 0.6091,
                "tempo": 120.0
            },
            {
                "pitch": 0,
                "velocity": 0,
                "duration": 1.0136,
                "tempo": 0
            },
            {
                "pitch": 62,
                "velocity": 4,
                "duration": 0.6,
                "tempo": 120.0
            },
            {
                "pitch": 0,
                "velocity": 0,
                "duration": 1.0,
                "tempo": 0
            },
            {
                "pitch": 62,
                "velocity": 4,
                "duration": 0.6,
                "tempo": 120.0
            },
            {
                "pitch": 0,
                "velocity": 0,
                "duration": 1.0,
                "tempo": 0
            },
            {
                "pitch": 60,
                "velocity": 4,
                "duration": 0.6068,
                "tempo": 120.0
            },
            {
                "pitch": 0,
                "velocity": 0,
                "duration": 1.0136,
                "tempo": 0
            },
            {
                "pitch": 60,
                "velocity": 4,
                "duration": 0.6,
                "tempo": 120.0
            },
            {
                "pitch": 0,
                "velocity": 0,
                "duration": 1.0,
                "tempo": 0
            },
            {
                "pitch": 60,
                "velocity": 4,
                "duration": 0.6,
                "tempo": 120.0
            },
            {
                "pitch": 0,
                "velocity": 0,
                "duration": 1.0,
                "tempo": 0
            },
            {
                "pitch": 60,
                "velocity": 4,
                "duration": 0.6,
                "tempo": 120.0
            },
            {
                "pitch": 0,
                "velocity": 0,
                "duration": 1.0,
                "tempo": 0
            },
            {
                "pitch": 60,
                "velocity": 4,
                "duration": 0.6068,
                "tempo": 120.0
            },
            {
                "pitch": 0,
                "velocity": 0,
                "duration": 1.0136,
                "tempo": 0
            },
            {
                "pitch": 60,
                "velocity": 4,
                "duration": 0.6023,
                "tempo": 120.0
            },
            {
                "pitch": 0,
                "velocity": 0,
                "duration": 1.0,
                "tempo": 0
            },
            {
                "pitch": 62,
                "velocity": 4,
                "duration": 0.6,
                "tempo": 120.0
            },
            {
                "pitch": 0,
                "velocity": 0,
                "duration": 1.0,
                "tempo": 0
            },
            {
                "pitch": 62,
                "velocity": 4,
                "duration": 0.6068,
                "tempo": 120.0
            },
            {
                "pitch": 0,
                "velocity": 0,
                "duration": 1.0136,
                "tempo": 0
            },
            {
                "pitch": 60,
                "velocity": 4,
                "duration": 0.6068,
                "tempo": 120.0
            },
            {
                "pitch": 0,
                "velocity": 0,
                "duration": 0.2045,
                "tempo": 0
            },
            {
                "pitch": 60,
                "velocity": 4,
                "duration": 2.8545,
                "tempo": 120.0
            },
            {
                "pitch": 0,
                "velocity": 0,
                "duration": 0.8,
                "tempo": 0
            },
            {
                "pitch": 60,
                "velocity": 5,
                "duration": 0.6932,
                "tempo": 120.0
            },
            {
                "pitch": 0,
                "velocity": 0,
                "duration": 0.0955,
                "tempo": 0
            },
            {
                "pitch": 59,
                "velocity": 4,
                "duration": 0.7795,
                "tempo": 120.0
            },
            {
                "pitch": 59,
                "velocity": 5,
                "duration": 0.6909,
                "tempo": 120.0
            },
            {
                "pitch": 0,
                "velocity": 0,
                "duration": 0.1,
                "tempo": 0
            },
            {
                "pitch": 59,
                "velocity": 4,
                "duration": 0.3205,
                "tempo": 120.0
            },
            {
                "pitch": 0,
                "velocity": 0,
                "duration": 0.4795,
                "tempo": 0
            },
            {
                "pitch": 59,
                "velocity": 4,
                "duration": 0.7,
                "tempo": 120.0
            },
            {
                "pitch": 0,
                "velocity": 0,
                "duration": 0.1,
                "tempo": 0
            },
            {
                "pitch": 57,
                "velocity": 4,
                "duration": 0.7,
                "tempo": 120.0
            },
            {
                "pitch": 0,
                "velocity": 0,
                "duration": 0.1,
                "tempo": 0
            },
            {
                "pitch": 57,
                "velocity": 4,
                "duration": 0.8,
                "tempo": 120.0
            },
            {
                "pitch": 57,
                "velocity": 4,
                "duration": 0.4,
                "tempo": 120.0
            },
            {
                "pitch": 0,
                "velocity": 0,
                "duration": 0.4,
                "tempo": 0
            },
            {
                "pitch": 57,
                "velocity": 5,
                "duration": 1.6,
                "tempo": 120.0
            },
            {
                "pitch": 59,
                "velocity": 4,
                "duration": 0.7045,
                "tempo": 120.0
            },
            {
                "pitch": 59,
                "velocity": 5,
                "duration": 0.3409,
                "tempo": 120.0
            },
            {
                "pitch": 0,
                "velocity": 0,
                "duration": 0.3409,
                "tempo": 0
            },
            {
                "pitch": 59,
                "velocity": 5,
                "duration": 2.4864,
                "tempo": 120.0
            },
            {
                "pitch": 0,
                "velocity": 0,
                "duration": 0.3705,
                "tempo": 0
            },
            {
                "pitch": 57,
                "velocity": 4,
                "duration": 2.3023,
                "tempo": 120.0
            },
            {
                "pitch": 57,
                "velocity": 4,
                "duration": 0.2932,
                "tempo": 120.0
            },
            {
                "pitch": 0,
                "velocity": 0,
                "duration": 0.0727,
                "tempo": 0
            },
            {
                "pitch": 57,
                "velocity": 5,
                "duration": 0.6977,
                "tempo": 120.0
            },
            {
                "pitch": 0,
                "velocity": 0,
                "duration": 0.1,
                "tempo": 0
            },
            {
                "pitch": 57,
                "velocity": 4,
                "duration": 1.0227,
                "tempo": 120.0
            },
            {
                "pitch": 0,
                "velocity": 0,
                "duration": 0.1818,
                "tempo": 0
            },
            {
                "pitch": 57,
                "velocity": 4,
                "duration": 0.7091,
                "tempo": 120.0
            },
            {
                "pitch": 0,
                "velocity": 0,
                "duration": 0.1023,
                "tempo": 0
            },
            {
                "pitch": 57,
                "velocity": 4,
                "duration": 0.2227,
                "tempo": 120.0
            },
            {
                "pitch": 0,
                "velocity": 0,
                "duration": 0.9614,
                "tempo": 0
            },
            {
                "pitch": 50,
                "velocity": 5,
                "duration": 1.4068,
                "tempo": 120.0
            },
            {
                "pitch": 0,
                "velocity": 0,
                "duration": 0.2114,
                "tempo": 0
            },
            {
                "pitch": 50,
                "velocity": 5,
                "duration": 0.8455,
                "tempo": 120.0
            },
            {
                "pitch": 0,
                "velocity": 0,
                "duration": 0.3841,
                "tempo": 0
            },
            {
                "pitch": 52,
                "velocity": 5,
                "duration": 1.1523,
                "tempo": 120.0
            },
            {
                "pitch": 60,
                "velocity": 5,
                "duration": 1.6,
                "tempo": 120.0
            },
            {
                "pitch": 0,
                "velocity": 0,
                "duration": 0.4,
                "tempo": 0
            },
            {
                "pitch": 57,
                "velocity": 4,
                "duration": 0.7,
                "tempo": 120.0
            },
            {
                "pitch": 0,
                "velocity": 0,
                "duration": 0.1,
                "tempo": 0
            },
            {
                "pitch": 57,
                "velocity": 4,
                "duration": 0.8068,
                "tempo": 120.0
            },
            {
                "pitch": 57,
                "velocity": 4,
                "duration": 0.7091,
                "tempo": 120.0
            },
            {
                "pitch": 0,
                "velocity": 0,
                "duration": 0.1,
                "tempo": 0
            },
            {
                "pitch": 57,
                "velocity": 4,
                "duration": 0.4045,
                "tempo": 120.0
            },
            {
                "pitch": 0,
                "velocity": 0,
                "duration": 0.3909,
                "tempo": 0
            },
            {
                "pitch": 57,
                "velocity": 4,
                "duration": 1.9795,
                "tempo": 120.0
            },
            {
                "pitch": 57,
                "velocity": 4,
                "duration": 0.8114,
                "tempo": 120.0
            },
            {
                "pitch": 0,
                "velocity": 0,
                "duration": 0.4045,
                "tempo": 0
            },
            {
                "pitch": 57,
                "velocity": 4,
                "duration": 0.7091,
                "tempo": 120.0
            },
            {
                "pitch": 0,
                "velocity": 0,
                "duration": 0.1023,
                "tempo": 0
            },
            {
                "pitch": 59,
                "velocity": 4,
                "duration": 1.2045,
                "tempo": 120.0
            },
            {
                "pitch": 59,
                "velocity": 4,
                "duration": 0.8,
                "tempo": 120.0
            },
            {
                "pitch": 0,
                "velocity": 0,
                "duration": 0.4068,
                "tempo": 0
            },
            {
                "pitch": 59,
                "velocity": 4,
                "duration": 2.8364,
                "tempo": 120.0
            },
            {
                "pitch": 0,
                "velocity": 0,
                "duration": 0.4068,
                "tempo": 0
            },
            {
                "pitch": 57,
                "velocity": 4,
                "duration": 0.7091,
                "tempo": 120.0
            },
            {
                "pitch": 0,
                "velocity": 0,
                "duration": 0.1,
                "tempo": 0
            },
            {
                "pitch": 57,
                "velocity": 4,
                "duration": 0.8114,
                "tempo": 120.0
            },
            {
                "pitch": 57,
                "velocity": 4,
                "duration": 0.7091,
                "tempo": 120.0
            },
            {
                "pitch": 0,
                "velocity": 0,
                "duration": 0.1023,
                "tempo": 0
            },
            {
                "pitch": 57,
                "velocity": 4,
                "duration": 0.4045,
                "tempo": 120.0
            },
            {
                "pitch": 0,
                "velocity": 0,
                "duration": 0.4,
                "tempo": 0
            },
            {
                "pitch": 57,
                "velocity": 4,
                "duration": 2.0,
                "tempo": 120.0
            },
            {
                "pitch": 57,
                "velocity": 4,
                "duration": 0.8,
                "tempo": 120.0
            },
            {
                "pitch": 0,
                "velocity": 0,
                "duration": 0.4,
                "tempo": 0
            },
            {
                "pitch": 57,
                "velocity": 4,
                "duration": 0.7,
                "tempo": 120.0
            },
            {
                "pitch": 0,
                "velocity": 0,
                "duration": 0.1,
                "tempo": 0
            },
            {
                "pitch": 59,
                "velocity": 4,
                "duration": 1.2,
                "tempo": 120.0
            },
            {
                "pitch": 59,
                "velocity": 4,
                "duration": 0.8,
                "tempo": 120.0
            },
            {
                "pitch": 59,
                "velocity": 4,
                "duration": 3.625,
                "tempo": 120.0
            }
        ],
        "Synth Bass 1": [
            {
                "pitch": 0,
                "velocity": 0,
                "duration": 0.0091,
                "tempo": 0
            },
            {
                "pitch": 68,
                "velocity": 1,
                "duration": 2.8545,
                "tempo": 120.0
            },
            {
                "pitch": 68,
                "velocity": 1,
                "duration": 1.8886,
                "tempo": 120.0
            },
            {
                "pitch": 69,
                "velocity": 1,
                "duration": 0.2273,
                "tempo": 120.0
            },
            {
                "pitch": 0,
                "velocity": 0,
                "duration": 0.0864,
                "tempo": 0
            },
            {
                "pitch": 69,
                "velocity": 1,
                "duration": 0.3068,
                "tempo": 120.0
            },
            {
                "pitch": 64,
                "velocity": 1,
                "duration": 1.8545,
                "tempo": 120.0
            },
            {
                "pitch": 64,
                "velocity": 1,
                "duration": 0.625,
                "tempo": 120.0
            },
            {
                "pitch": 69,
                "velocity": 1,
                "duration": 2.3568,
                "tempo": 120.0
            },
            {
                "pitch": 0,
                "velocity": 0,
                "duration": 0.1341,
                "tempo": 0
            },
            {
                "pitch": 74,
                "velocity": 1,
                "duration": 1.8977,
                "tempo": 120.0
            },
            {
                "pitch": 74,
                "velocity": 1,
                "duration": 0.2432,
                "tempo": 120.0
            },
            {
                "pitch": 0,
                "velocity": 0,
                "duration": 0.0727,
                "tempo": 0
            },
            {
                "pitch": 72,
                "velocity": 1,
                "duration": 0.2705,
                "tempo": 120.0
            },
            {
                "pitch": 0,
                "velocity": 0,
                "duration": 0.0386,
                "tempo": 0
            },
            {
                "pitch": 69,
                "velocity": 1,
                "duration": 1.8886,
                "tempo": 120.0
            },
            {
                "pitch": 71,
                "velocity": 1,
                "duration": 0.2773,
                "tempo": 120.0
            },
            {
                "pitch": 0,
                "velocity": 0,
                "duration": 0.0364,
                "tempo": 0
            },
            {
                "pitch": 69,
                "velocity": 1,
                "duration": 0.2705,
                "tempo": 120.0
            },
            {
                "pitch": 0,
                "velocity": 0,
                "duration": 0.0364,
                "tempo": 0
            },
            {
                "pitch": 69,
                "velocity": 1,
                "duration": 1.2205,
                "tempo": 120.0
            },
            {
                "pitch": 68,
                "velocity": 1,
                "duration": 0.225,
                "tempo": 120.0
            },
            {
                "pitch": 0,
                "velocity": 0,
                "duration": 0.0545,
                "tempo": 0
            },
            {
                "pitch": 68,
                "velocity": 1,
                "duration": 0.1,
                "tempo": 120.0
            },
            {
                "pitch": 0,
                "velocity": 0,
                "duration": 0.0318,
                "tempo": 0
            },
            {
                "pitch": 69,
                "velocity": 1,
                "duration": 0.1455,
                "tempo": 120.0
            },
            {
                "pitch": 64,
                "velocity": 1,
                "duration": 0.2182,
                "tempo": 120.0
            },
            {
                "pitch": 0,
                "velocity": 0,
                "duration": 0.0682,
                "tempo": 0
            },
            {
                "pitch": 68,
                "velocity": 1,
                "duration": 0.2318,
                "tempo": 120.0
            },
            {
                "pitch": 0,
                "velocity": 0,
                "duration": 0.0568,
                "tempo": 0
            },
            {
                "pitch": 68,
                "velocity": 1,
                "duration": 2.5159,
                "tempo": 120.0
            },
            {
                "pitch": 0,
                "velocity": 0,
                "duration": 13.1886,
                "tempo": 0
            },
            {
                "pitch": 69,
                "velocity": 1,
                "duration": 2.3523,
                "tempo": 120.0
            },
            {
                "pitch": 71,
                "velocity": 1,
                "duration": 0.3273,
                "tempo": 120.0
            },
            {
                "pitch": 0,
                "velocity": 0,
                "duration": 0.0614,
                "tempo": 0
            },
            {
                "pitch": 69,
                "velocity": 1,
                "duration": 0.3295,
                "tempo": 120.0
            },
            {
                "pitch": 0,
                "velocity": 0,
                "duration": 0.0614,
                "tempo": 0
            },
            {
                "pitch": 69,
                "velocity": 1,
                "duration": 1.6,
                "tempo": 120.0
            },
            {
                "pitch": 68,
                "velocity": 1,
                "duration": 0.3318,
                "tempo": 120.0
            },
            {
                "pitch": 0,
                "velocity": 0,
                "duration": 0.0636,
                "tempo": 0
            },
            {
                "pitch": 68,
                "velocity": 1,
                "duration": 0.1295,
                "tempo": 120.0
            },
            {
                "pitch": 0,
                "velocity": 0,
                "duration": 0.0841,
                "tempo": 0
            },
            {
                "pitch": 69,
                "velocity": 1,
                "duration": 0.2045,
                "tempo": 120.0
            },
            {
                "pitch": 64,
                "velocity": 1,
                "duration": 0.3068,
                "tempo": 120.0
            },
            {
                "pitch": 0,
                "velocity": 0,
                "duration": 0.1205,
                "tempo": 0
            },
            {
                "pitch": 68,
                "velocity": 1,
                "duration": 0.3568,
                "tempo": 120.0
            },
            {
                "pitch": 0,
                "velocity": 0,
                "duration": 0.0682,
                "tempo": 0
            },
            {
                "pitch": 68,
                "velocity": 1,
                "duration": 4.0773,
                "tempo": 120.0
            },
            {
                "pitch": 0,
                "velocity": 0,
                "duration": 2.9932,
                "tempo": 0
            },
            {
                "pitch": 69,
                "velocity": 1,
                "duration": 3.3205,
                "tempo": 120.0
            },
            {
                "pitch": 68,
                "velocity": 1,
                "duration": 2.4114,
                "tempo": 120.0
            },
            {
                "pitch": 69,
                "velocity": 1,
                "duration": 0.3,
                "tempo": 120.0
            },
            {
                "pitch": 0,
                "velocity": 0,
                "duration": 0.1,
                "tempo": 0
            },
            {
                "pitch": 69,
                "velocity": 1,
                "duration": 0.4,
                "tempo": 120.0
            },
            {
                "pitch": 64,
                "velocity": 1,
                "duration": 2.4205,
                "tempo": 120.0
            },
            {
                "pitch": 64,
                "velocity": 1,
                "duration": 0.8114,
                "tempo": 120.0
            },
            {
                "pitch": 69,
                "velocity": 1,
                "duration": 2.8114,
                "tempo": 120.0
            },
            {
                "pitch": 0,
                "velocity": 0,
                "duration": 0.4,
                "tempo": 0
            },
            {
                "pitch": 74,
                "velocity": 1,
                "duration": 2.4,
                "tempo": 120.0
            },
            {
                "pitch": 74,
                "velocity": 1,
                "duration": 0.3045,
                "tempo": 120.0
            },
            {
                "pitch": 0,
                "velocity": 0,
                "duration": 0.1,
                "tempo": 0
            },
            {
                "pitch": 72,
                "velocity": 1,
                "duration": 0.325,
                "tempo": 120.0
            },
            {
                "pitch": 0,
                "velocity": 0,
                "duration": 0.0818,
                "tempo": 0
            },
            {
                "pitch": 69,
                "velocity": 1,
                "duration": 2.4091,
                "tempo": 120.0
            },
            {
                "pitch": 71,
                "velocity": 1,
                "duration": 0.325,
                "tempo": 120.0
            },
            {
                "pitch": 0,
                "velocity": 0,
                "duration": 0.0818,
                "tempo": 0
            },
            {
                "pitch": 69,
                "velocity": 1,
                "duration": 0.3227,
                "tempo": 120.0
            },
            {
                "pitch": 0,
                "velocity": 0,
                "duration": 0.0818,
                "tempo": 0
            },
            {
                "pitch": 69,
                "velocity": 1,
                "duration": 1.6114,
                "tempo": 120.0
            },
            {
                "pitch": 68,
                "velocity": 1,
                "duration": 0.3205,
                "tempo": 120.0
            },
            {
                "pitch": 0,
                "velocity": 0,
                "duration": 0.0795,
                "tempo": 0
            },
            {
                "pitch": 68,
                "velocity": 1,
                "duration": 0.1205,
                "tempo": 120.0
            },
            {
                "pitch": 0,
                "velocity": 0,
                "duration": 0.0795,
                "tempo": 0
            },
            {
                "pitch": 69,
                "velocity": 1,
                "duration": 0.2,
                "tempo": 120.0
            },
            {
                "pitch": 64,
                "velocity": 1,
                "duration": 0.3,
                "tempo": 120.0
            },
            {
                "pitch": 0,
                "velocity": 0,
                "duration": 0.1,
                "tempo": 0
            },
            {
                "pitch": 68,
                "velocity": 1,
                "duration": 0.3205,
                "tempo": 120.0
            },
            {
                "pitch": 0,
                "velocity": 0,
                "duration": 0.0795,
                "tempo": 0
            },
            {
                "pitch": 68,
                "velocity": 1,
                "duration": 3.2318,
                "tempo": 120.0
            },
            {
                "pitch": 69,
                "velocity": 1,
                "duration": 3.2114,
                "tempo": 120.0
            },
            {
                "pitch": 68,
                "velocity": 1,
                "duration": 2.4,
                "tempo": 120.0
            },
            {
                "pitch": 69,
                "velocity": 1,
                "duration": 0.3045,
                "tempo": 120.0
            },
            {
                "pitch": 0,
                "velocity": 0,
                "duration": 0.1,
                "tempo": 0
            },
            {
                "pitch": 69,
                "velocity": 1,
                "duration": 0.4068,
                "tempo": 120.0
            },
            {
                "pitch": 64,
                "velocity": 1,
                "duration": 2.4091,
                "tempo": 120.0
            },
            {
                "pitch": 64,
                "velocity": 1,
                "duration": 0.8114,
                "tempo": 120.0
            },
            {
                "pitch": 69,
                "velocity": 1,
                "duration": 2.8159,
                "tempo": 120.0
            },
            {
                "pitch": 0,
                "velocity": 0,
                "duration": 0.4068,
                "tempo": 0
            },
            {
                "pitch": 74,
                "velocity": 1,
                "duration": 2.4091,
                "tempo": 120.0
            },
            {
                "pitch": 74,
                "velocity": 1,
                "duration": 0.3,
                "tempo": 120.0
            },
            {
                "pitch": 0,
                "velocity": 0,
                "duration": 0.1,
                "tempo": 0
            },
            {
                "pitch": 72,
                "velocity": 1,
                "duration": 0.3205,
                "tempo": 120.0
            },
            {
                "pitch": 0,
                "velocity": 0,
                "duration": 0.0795,
                "tempo": 0
            },
            {
                "pitch": 69,
                "velocity": 1,
                "duration": 2.4227,
                "tempo": 120.0
            },
            {
                "pitch": 71,
                "velocity": 1,
                "duration": 0.3205,
                "tempo": 120.0
            },
            {
                "pitch": 0,
                "velocity": 0,
                "duration": 0.0795,
                "tempo": 0
            },
            {
                "pitch": 69,
                "velocity": 1,
                "duration": 0.3205,
                "tempo": 120.0
            },
            {
                "pitch": 0,
                "velocity": 0,
                "duration": 0.0795,
                "tempo": 0
            },
            {
                "pitch": 69,
                "velocity": 1,
                "duration": 1.6091,
                "tempo": 120.0
            },
            {
                "pitch": 68,
                "velocity": 1,
                "duration": 0.325,
                "tempo": 120.0
            },
            {
                "pitch": 0,
                "velocity": 0,
                "duration": 0.0818,
                "tempo": 0
            },
            {
                "pitch": 68,
                "velocity": 1,
                "duration": 0.1205,
                "tempo": 120.0
            },
            {
                "pitch": 0,
                "velocity": 0,
                "duration": 0.0818,
                "tempo": 0
            },
            {
                "pitch": 69,
                "velocity": 1,
                "duration": 0.2023,
                "tempo": 120.0
            },
            {
                "pitch": 64,
                "velocity": 1,
                "duration": 0.3,
                "tempo": 120.0
            },
            {
                "pitch": 0,
                "velocity": 0,
                "duration": 0.1,
                "tempo": 0
            },
            {
                "pitch": 68,
                "velocity": 1,
                "duration": 0.3205,
                "tempo": 120.0
            },
            {
                "pitch": 0,
                "velocity": 0,
                "duration": 0.0795,
                "tempo": 0
            },
            {
                "pitch": 68,
                "velocity": 1,
                "duration": 3.2114,
                "tempo": 120.0
            },
            {
                "pitch": 0,
                "velocity": 0,
                "duration": 16.075,
                "tempo": 0
            },
            {
                "pitch": 69,
                "velocity": 1,
                "duration": 2.4,
                "tempo": 120.0
            },
            {
                "pitch": 71,
                "velocity": 1,
                "duration": 0.325,
                "tempo": 120.0
            },
            {
                "pitch": 0,
                "velocity": 0,
                "duration": 0.0795,
                "tempo": 0
            },
            {
                "pitch": 69,
                "velocity": 1,
                "duration": 0.325,
                "tempo": 120.0
            },
            {
                "pitch": 0,
                "velocity": 0,
                "duration": 0.0818,
                "tempo": 0
            },
            {
                "pitch": 69,
                "velocity": 1,
                "duration": 1.6114,
                "tempo": 120.0
            },
            {
                "pitch": 68,
                "velocity": 1,
                "duration": 0.3182,
                "tempo": 120.0
            },
            {
                "pitch": 0,
                "velocity": 0,
                "duration": 0.0818,
                "tempo": 0
            },
            {
                "pitch": 68,
                "velocity": 1,
                "duration": 0.1182,
                "tempo": 120.0
            },
            {
                "pitch": 0,
                "velocity": 0,
                "duration": 0.0818,
                "tempo": 0
            },
            {
                "pitch": 69,
                "velocity": 1,
                "duration": 0.2,
                "tempo": 120.0
            },
            {
                "pitch": 64,
                "velocity": 1,
                "duration": 0.3,
                "tempo": 120.0
            },
            {
                "pitch": 0,
                "velocity": 0,
                "duration": 0.1,
                "tempo": 0
            },
            {
                "pitch": 68,
                "velocity": 1,
                "duration": 0.3182,
                "tempo": 120.0
            },
            {
                "pitch": 0,
                "velocity": 0,
                "duration": 0.0818,
                "tempo": 0
            },
            {
                "pitch": 68,
                "velocity": 1,
                "duration": 3.8386,
                "tempo": 120.0
            },
            {
                "pitch": 0,
                "velocity": 0,
                "duration": 2.6068,
                "tempo": 0
            },
            {
                "pitch": 69,
                "velocity": 1,
                "duration": 3.2,
                "tempo": 120.0
            },
            {
                "pitch": 68,
                "velocity": 1,
                "duration": 2.4,
                "tempo": 120.0
            },
            {
                "pitch": 69,
                "velocity": 1,
                "duration": 0.3,
                "tempo": 120.0
            },
            {
                "pitch": 0,
                "velocity": 0,
                "duration": 0.1,
                "tempo": 0
            },
            {
                "pitch": 69,
                "velocity": 1,
                "duration": 0.4,
                "tempo": 120.0
            },
            {
                "pitch": 64,
                "velocity": 1,
                "duration": 2.3636,
                "tempo": 120.0
            },
            {
                "pitch": 64,
                "velocity": 1,
                "duration": 0.6818,
                "tempo": 120.0
            },
            {
                "pitch": 69,
                "velocity": 1,
                "duration": 2.6568,
                "tempo": 120.0
            },
            {
                "pitch": 0,
                "velocity": 0,
                "duration": 0.1705,
                "tempo": 0
            },
            {
                "pitch": 74,
                "velocity": 1,
                "duration": 2.3068,
                "tempo": 120.0
            },
            {
                "pitch": 74,
                "velocity": 1,
                "duration": 0.275,
                "tempo": 120.0
            },
            {
                "pitch": 0,
                "velocity": 0,
                "duration": 0.0909,
                "tempo": 0
            },
            {
                "pitch": 72,
                "velocity": 1,
                "duration": 0.2932,
                "tempo": 120.0
            },
            {
                "pitch": 0,
                "velocity": 0,
                "duration": 0.0727,
                "tempo": 0
            },
            {
                "pitch": 69,
                "velocity": 1,
                "duration": 2.4068,
                "tempo": 120.0
            },
            {
                "pitch": 71,
                "velocity": 1,
                "duration": 0.325,
                "tempo": 120.0
            },
            {
                "pitch": 0,
                "velocity": 0,
                "duration": 0.0818,
                "tempo": 0
            },
            {
                "pitch": 69,
                "velocity": 1,
                "duration": 0.3227,
                "tempo": 120.0
            },
            {
                "pitch": 0,
                "velocity": 0,
                "duration": 0.0818,
                "tempo": 0
            },
            {
                "pitch": 69,
                "velocity": 1,
                "duration": 1.5591,
                "tempo": 120.0
            },
            {
                "pitch": 68,
                "velocity": 1,
                "duration": 0.3318,
                "tempo": 120.0
            },
            {
                "pitch": 0,
                "velocity": 0,
                "duration": 0.0841,
                "tempo": 0
            },
            {
                "pitch": 68,
                "velocity": 1,
                "duration": 0.1273,
                "tempo": 120.0
            },
            {
                "pitch": 0,
                "velocity": 0,
                "duration": 0.0841,
                "tempo": 0
            },
            {
                "pitch": 69,
                "velocity": 1,
                "duration": 0.2114,
                "tempo": 120.0
            },
            {
                "pitch": 64,
                "velocity": 1,
                "duration": 0.3159,
                "tempo": 120.0
            },
            {
                "pitch": 0,
                "velocity": 0,
                "duration": 0.1068,
                "tempo": 0
            },
            {
                "pitch": 68,
                "velocity": 1,
                "duration": 0.3364,
                "tempo": 120.0
            },
            {
                "pitch": 0,
                "velocity": 0,
                "duration": 0.0864,
                "tempo": 0
            },
            {
                "pitch": 68,
                "velocity": 1,
                "duration": 3.1364,
                "tempo": 120.0
            },
            {
                "pitch": 0,
                "velocity": 0,
                "duration": 16.1091,
                "tempo": 0
            },
            {
                "pitch": 69,
                "velocity": 1,
                "duration": 2.4,
                "tempo": 120.0
            },
            {
                "pitch": 71,
                "velocity": 1,
                "duration": 0.3205,
                "tempo": 120.0
            },
            {
                "pitch": 0,
                "velocity": 0,
                "duration": 0.0795,
                "tempo": 0
            },
            {
                "pitch": 69,
                "velocity": 1,
                "duration": 0.3205,
                "tempo": 120.0
            },
            {
                "pitch": 0,
                "velocity": 0,
                "duration": 0.0795,
                "tempo": 0
            },
            {
                "pitch": 69,
                "velocity": 1,
                "duration": 1.6,
                "tempo": 120.0
            },
            {
                "pitch": 68,
                "velocity": 1,
                "duration": 0.3205,
                "tempo": 120.0
            },
            {
                "pitch": 0,
                "velocity": 0,
                "duration": 0.0795,
                "tempo": 0
            },
            {
                "pitch": 68,
                "velocity": 1,
                "duration": 0.1205,
                "tempo": 120.0
            },
            {
                "pitch": 0,
                "velocity": 0,
                "duration": 0.0795,
                "tempo": 0
            },
            {
                "pitch": 69,
                "velocity": 1,
                "duration": 0.2,
                "tempo": 120.0
            },
            {
                "pitch": 64,
                "velocity": 1,
                "duration": 0.3,
                "tempo": 120.0
            },
            {
                "pitch": 0,
                "velocity": 0,
                "duration": 0.1,
                "tempo": 0
            },
            {
                "pitch": 68,
                "velocity": 1,
                "duration": 0.3205,
                "tempo": 120.0
            },
            {
                "pitch": 0,
                "velocity": 0,
                "duration": 0.0795,
                "tempo": 0
            },
            {
                "pitch": 68,
                "velocity": 1,
                "duration": 3.625,
                "tempo": 120.0
            }
        ],
        "Acoustic Grand Piano": [
            {
                "pitch": 0,
                "velocity": 0,
                "duration": 180.0,
                "tempo": 0
            },
            {
                "pitch": 108,
                "velocity": 15,
                "duration": 0.1,
                "tempo": 120.0
            }
        ]
    }
}