{
    "track_id": "01 Prologue_5",
    "mood": "angry",
    "instruments": {
        "Lead 1 (square)": [
            {
                "pitch": 0,
                "velocity": 0,
                "duration": 22.4636,
                "tempo": 0
            },
            {
                "pitch": 71,
                "velocity": 8,
                "duration": 0.4523,
                "tempo": 120.0
            },
            {
                "pitch": 0,
                "velocity": 0,
                "duration": 0.0341,
                "tempo": 0
            },
            {
                "pitch": 72,
                "velocity": 8,
                "duration": 0.4591,
                "tempo": 120.0
            },
            {
                "pitch": 0,
                "velocity": 0,
                "duration": 0.0364,
                "tempo": 0
            },
            {
                "pitch": 74,
                "velocity": 8,
                "duration": 0.45,
                "tempo": 120.0
            },
            {
                "pitch": 0,
                "velocity": 0,
                "duration": 0.0159,
                "tempo": 0
            },
            {
                "pitch": 76,
                "velocity": 8,
                "duration": 0.4591,
                "tempo": 120.0
            },
            {
                "pitch": 0,
                "velocity": 0,
                "duration": 0.0182,
                "tempo": 0
            },
            {
                "pitch": 77,
                "velocity": 8,
                "duration": 0.7045,
                "tempo": 120.0
            },
            {
                "pitch": 0,
                "velocity": 0,
                "duration": 0.0159,
                "tempo": 0
            },
            {
                "pitch": 76,
                "velocity": 8,
                "duration": 0.1159,
                "tempo": 120.0
            },
            {
                "pitch": 0,
                "velocity": 0,
                "duration": 0.0182,
                "tempo": 0
            },
            {
                "pitch": 74,
                "velocity": 8,
                "duration": 0.1,
                "tempo": 120.0
            },
            {
                "pitch": 0,
                "velocity": 0,
                "duration": 0.0182,
                "tempo": 0
            },
            {
                "pitch": 71,
                "velocity": 8,
                "duration": 4.8227,
                "tempo": 120.0
            },
            {
                "pitch": 0,
                "velocity": 0,
                "duration": 0.0182,
                "tempo": 0
            },
            {
                "pitch": 71,
                "velocity": 8,
                "duration": 0.4591,
                "tempo": 120.0
            },
            {
                "pitch": 0,
                "velocity": 0,
                "duration": 0.0159,
                "tempo": 0
            },
            {
                "pitch": 72,
                "velocity": 8,
                "duration": 0.4773,
                "tempo": 120.0
            },
            {
                "pitch": 0,
                "velocity": 0,
                "duration": 0.0182,
                "tempo": 0
            },
            {
                "pitch": 74,
                "velocity": 8,
                "duration": 0.4682,
                "tempo": 120.0
            },
            {
                "pitch": 0,
                "velocity": 0,
                "duration": 0.0159,
                "tempo": 0
            },
            {
                "pitch": 76,
                "velocity": 8,
                "duration": 0.4795,
                "tempo": 120.0
            },
            {
                "pitch": 0,
                "velocity": 0,
                "duration": 0.0182,
                "tempo": 0
            },
            {
                "pitch": 77,
                "velocity": 8,
                "duration": 0.7023,
                "tempo": 120.0
            },
            {
                "pitch": 0,
                "velocity": 0,
                "duration": 0.0182,
                "tempo": 0
            },
            {
                "pitch": 76,
                "velocity": 8,
                "duration": 0.0977,
                "tempo": 120.0
            },
            {
                "pitch": 0,
                "velocity": 0,
                "duration": 0.0182,
                "tempo": 0
            },
            {
                "pitch": 74,
                "velocity": 8,
                "duration": 0.1,
                "tempo": 120.0
            },
            {
                "pitch": 0,
                "velocity": 0,
                "duration": 0.0182,
                "tempo": 0
            },
            {
                "pitch": 71,
                "velocity": 8,
                "duration": 4.7,
                "tempo": 120.0
            },
            {
                "pitch": 0,
                "velocity": 0,
                "duration": 0.0341,
                "tempo": 0
            },
            {
                "pitch": 76,
                "velocity": 8,
                "duration": 0.1023,
                "tempo": 120.0
            },
            {
                "pitch": 0,
                "velocity": 0,
                "duration": 0.0182,
                "tempo": 0
            },
            {
                "pitch": 77,
                "velocity": 8,
                "duration": 0.7068,
                "tempo": 120.0
            },
            {
                "pitch": 0,
                "velocity": 0,
                "duration": 0.0159,
                "tempo": 0
            },
            {
                "pitch": 76,
                "velocity": 8,
                "duration": 0.2136,
                "tempo": 120.0
            },
            {
                "pitch": 0,
                "velocity": 0,
                "duration": 0.0341,
                "tempo": 0
            },
            {
                "pitch": 77,
                "velocity": 8,
                "duration": 0.7068,
                "tempo": 120.0
            },
            {
                "pitch": 0,
                "velocity": 0,
                "duration": 0.0182,
                "tempo": 0
            },
            {
                "pitch": 76,
                "velocity": 8,
                "duration": 0.2136,
                "tempo": 120.0
            },
            {
                "pitch": 0,
                "velocity": 0,
                "duration": 0.0159,
                "tempo": 0
            },
            {
                "pitch": 77,
                "velocity": 8,
                "duration": 0.7091,
                "tempo": 120.0
            },
            {
                "pitch": 0,
                "velocity": 0,
                "duration": 0.0318,
                "tempo": 0
            },
            {
                "pitch": 76,
                "velocity": 8,
                "duration": 0.2136,
                "tempo": 120.0
            },
            {
                "pitch": 0,
                "velocity": 0,
                "duration": 0.0182,
                "tempo": 0
            },
            {
                "pitch": 74,
                "velocity": 8,
                "duration": 0.3068,
                "tempo": 120.0
            },
            {
                "pitch": 0,
                "velocity": 0,
                "duration": 0.0159,
                "tempo": 0
            },
            {
                "pitch": 72,
                "velocity": 8,
                "duration": 0.3068,
                "tempo": 120.0
            },
            {
                "pitch": 0,
                "velocity": 0,
                "duration": 0.0159,
                "tempo": 0
            },
            {
                "pitch": 69,
                "velocity": 8,
                "duration": 0.3023,
                "tempo": 120.0
            },
            {
                "pitch": 0,
                "velocity": 0,
                "duration": 0.0364,
                "tempo": 0
            },
            {
                "pitch": 71,
                "velocity": 8,
                "duration": 3.8591,
                "tempo": 120.0
            },
            {
                "pitch": 0,
                "velocity": 0,
                "duration": 0.0182,
                "tempo": 0
            },
            {
                "pitch": 71,
                "velocity": 8,
                "duration": 0.4568,
                "tempo": 120.0
            },
            {
                "pitch": 0,
                "velocity": 0,
                "duration": 0.0182,
                "tempo": 0
            },
            {
                "pitch": 72,
                "velocity": 8,
                "duration": 0.4705,
                "tempo": 120.0
            },
            {
                "pitch": 0,
                "velocity": 0,
                "duration": 0.0182,
                "tempo": 0
            },
            {
                "pitch": 74,
                "velocity": 8,
                "duration": 0.4773,
                "tempo": 120.0
            },
            {
                "pitch": 0,
                "velocity": 0,
                "duration": 0.0182,
                "tempo": 0
            },
            {
                "pitch": 76,
                "velocity": 8,
                "duration": 0.4705,
                "tempo": 120.0
            },
            {
                "pitch": 0,
                "velocity": 0,
                "duration": 0.0159,
                "tempo": 0
            },
            {
                "pitch": 77,
                "velocity": 8,
                "duration": 0.7023,
                "tempo": 120.0
            },
            {
                "pitch": 0,
                "velocity": 0,
                "duration": 0.0182,
                "tempo": 0
            },
            {
                "pitch": 76,
                "velocity": 8,
                "duration": 0.1,
                "tempo": 120.0
            },
            {
                "pitch": 0,
                "velocity": 0,
                "duration": 0.0159,
                "tempo": 0
            },
            {
                "pitch": 74,
                "velocity": 8,
                "duration": 0.1023,
                "tempo": 120.0
            },
            {
                "pitch": 0,
                "velocity": 0,
                "duration": 0.0182,
                "tempo": 0
            },
            {
                "pitch": 71,
                "velocity": 8,
                "duration": 4.8432,
                "tempo": 120.0
            },
            {
                "pitch": 0,
                "velocity": 0,
                "duration": 0.0182,
                "tempo": 0
            },
            {
                "pitch": 71,
                "velocity": 8,
                "duration": 0.4773,
                "tempo": 120.0
            },
            {
                "pitch": 0,
                "velocity": 0,
                "duration": 0.0182,
                "tempo": 0
            },
            {
                "pitch": 72,
                "velocity": 8,
                "duration": 0.4523,
                "tempo": 120.0
            },
            {
                "pitch": 0,
                "velocity": 0,
                "duration": 0.0341,
                "tempo": 0
            },
            {
                "pitch": 74,
                "velocity": 8,
                "duration": 0.4614,
                "tempo": 120.0
            },
            {
                "pitch": 0,
                "velocity": 0,
                "duration": 0.0182,
                "tempo": 0
            },
            {
                "pitch": 76,
                "velocity": 8,
                "duration": 0.4477,
                "tempo": 120.0
            },
            {
                "pitch": 0,
                "velocity": 0,
                "duration": 0.0182,
                "tempo": 0
            },
            {
                "pitch": 77,
                "velocity": 8,
                "duration": 0.7136,
                "tempo": 120.0
            },
            {
                "pitch": 0,
                "velocity": 0,
                "duration": 0.0341,
                "tempo": 0
            },
            {
                "pitch": 76,
                "velocity": 8,
                "duration": 0.1,
                "tempo": 120.0
            },
            {
                "pitch": 0,
                "velocity": 0,
                "duration": 0.0159,
                "tempo": 0
            },
            {
                "pitch": 74,
                "velocity": 8,
                "duration": 0.1023,
                "tempo": 120.0
            },
            {
                "pitch": 0,
                "velocity": 0,
                "duration": 0.0159,
                "tempo": 0
            },
            {
                "pitch": 71,
                "velocity": 8,
                "duration": 4.7114,
                "tempo": 120.0
            },
            {
                "pitch": 0,
                "velocity": 0,
                "duration": 0.0159,
                "tempo": 0
            },
            {
                "pitch": 76,
                "velocity": 8,
                "duration": 0.1,
                "tempo": 120.0
            },
            {
                "pitch": 0,
                "velocity": 0,
                "duration": 0.0182,
                "tempo": 0
            },
            {
                "pitch": 77,
                "velocity": 8,
                "duration": 0.7114,
                "tempo": 120.0
            },
            {
                "pitch": 0,
                "velocity": 0,
                "duration": 0.0182,
                "tempo": 0
            },
            {
                "pitch": 76,
                "velocity": 8,
                "duration": 0.2182,
                "tempo": 120.0
            },
            {
                "pitch": 0,
                "velocity": 0,
                "duration": 0.0159,
                "tempo": 0
            },
            {
                "pitch": 77,
                "velocity": 8,
                "duration": 0.7136,
                "tempo": 120.0
            },
            {
                "pitch": 0,
                "velocity": 0,
                "duration": 0.0159,
                "tempo": 0
            },
            {
                "pitch": 76,
                "velocity": 8,
                "duration": 0.2341,
                "tempo": 120.0
            },
            {
                "pitch": 0,
                "velocity": 0,
                "duration": 0.0182,
                "tempo": 0
            },
            {
                "pitch": 77,
                "velocity": 8,
                "duration": 0.7114,
                "tempo": 120.0
            },
            {
                "pitch": 0,
                "velocity": 0,
                "duration": 0.0159,
                "tempo": 0
            },
            {
                "pitch": 76,
                "velocity": 8,
                "duration": 0.2159,
                "tempo": 120.0
            },
            {
                "pitch": 0,
                "velocity": 0,
                "duration": 0.0341,
                "tempo": 0
            },
            {
                "pitch": 74,
                "velocity": 8,
                "duration": 0.3068,
                "tempo": 120.0
            },
            {
                "pitch": 0,
                "velocity": 0,
                "duration": 0.0182,
                "tempo": 0
            },
            {
                "pitch": 72,
                "velocity": 8,
                "duration": 0.2977,
                "tempo": 120.0
            },
            {
                "pitch": 0,
                "velocity": 0,
                "duration": 0.0182,
                "tempo": 0
            },
            {
                "pitch": 69,
                "velocity": 8,
                "duration": 0.2864,
                "tempo": 120.0
            },
            {
                "pitch": 0,
                "velocity": 0,
                "duration": 0.0182,
                "tempo": 0
            },
            {
                "pitch": 71,
                "velocity": 8,
                "duration": 3.8795,
                "tempo": 120.0
            }
        ],
        "Lead 2 (sawtooth)": [
            {
                "pitch": 0,
                "velocity": 0,
                "duration": 22.4659,
                "tempo": 0
            },
            {
                "pitch": 67,
                "velocity": 8,
                "duration": 0.45,
                "tempo": 120.0
            },
            {
                "pitch": 0,
                "velocity": 0,
                "duration": 0.0341,
                "tempo": 0
            },
            {
                "pitch": 69,
                "velocity": 8,
                "duration": 0.4614,
                "tempo": 120.0
            },
            {
                "pitch": 0,
                "velocity": 0,
                "duration": 0.0341,
                "tempo": 0
            },
            {
                "pitch": 71,
                "velocity": 8,
                "duration": 0.45,
                "tempo": 120.0
            },
            {
                "pitch": 0,
                "velocity": 0,
                "duration": 0.0182,
                "tempo": 0
            },
            {
                "pitch": 72,
                "velocity": 8,
                "duration": 0.4591,
                "tempo": 120.0
            },
            {
                "pitch": 0,
                "velocity": 0,
                "duration": 0.0159,
                "tempo": 0
            },
            {
                "pitch": 74,
                "velocity": 8,
                "duration": 0.7045,
                "tempo": 120.0
            },
            {
                "pitch": 0,
                "velocity": 0,
                "duration": 0.0182,
                "tempo": 0
            },
            {
                "pitch": 72,
                "velocity": 8,
                "duration": 0.1159,
                "tempo": 120.0
            },
            {
                "pitch": 0,
                "velocity": 0,
                "duration": 0.0159,
                "tempo": 0
            },
            {
                "pitch": 71,
                "velocity": 8,
                "duration": 0.1,
                "tempo": 120.0
            },
            {
                "pitch": 0,
                "velocity": 0,
                "duration": 0.0182,
                "tempo": 0
            },
            {
                "pitch": 67,
                "velocity": 8,
                "duration": 4.8227,
                "tempo": 120.0
            },
            {
                "pitch": 0,
                "velocity": 0,
                "duration": 0.0182,
                "tempo": 0
            },
            {
                "pitch": 67,
                "velocity": 8,
                "duration": 0.4591,
                "tempo": 120.0
            },
            {
                "pitch": 0,
                "velocity": 0,
                "duration": 0.0159,
                "tempo": 0
            },
            {
                "pitch": 69,
                "velocity": 8,
                "duration": 0.4795,
                "tempo": 120.0
            },
            {
                "pitch": 0,
                "velocity": 0,
                "duration": 0.0182,
                "tempo": 0
            },
            {
                "pitch": 71,
                "velocity": 8,
                "duration": 0.4659,
                "tempo": 120.0
            },
            {
                "pitch": 0,
                "velocity": 0,
                "duration": 0.0159,
                "tempo": 0
            },
            {
                "pitch": 72,
                "velocity": 8,
                "duration": 0.4795,
                "tempo": 120.0
            },
            {
                "pitch": 0,
                "velocity": 0,
                "duration": 0.0182,
                "tempo": 0
            },
            {
                "pitch": 74,
                "velocity": 8,
                "duration": 0.7023,
                "tempo": 120.0
            },
            {
                "pitch": 0,
                "velocity": 0,
                "duration": 0.0182,
                "tempo": 0
            },
            {
                "pitch": 72,
                "velocity": 8,
                "duration": 0.1,
                "tempo": 120.0
            },
            {
                "pitch": 0,
                "velocity": 0,
                "duration": 0.0159,
                "tempo": 0
            },
            {
                "pitch": 71,
                "velocity": 8,
                "duration": 0.1,
                "tempo": 120.0
            },
            {
                "pitch": 0,
                "velocity": 0,
                "duration": 0.0182,
                "tempo": 0
            },
            {
                "pitch": 67,
                "velocity": 8,
                "duration": 4.7,
                "tempo": 120.0
            },
            {
                "pitch": 0,
                "velocity": 0,
                "duration": 0.0364,
                "tempo": 0
            },
            {
                "pitch": 72,
                "velocity": 8,
                "duration": 0.1,
                "tempo": 120.0
            },
            {
                "pitch": 0,
                "velocity": 0,
                "duration": 0.0182,
                "tempo": 0
            },
            {
                "pitch": 74,
                "velocity": 8,
                "duration": 0.7068,
                "tempo": 120.0
            },
            {
                "pitch": 0,
                "velocity": 0,
                "duration": 0.0182,
                "tempo": 0
            },
            {
                "pitch": 72,
                "velocity": 8,
                "duration": 0.2114,
                "tempo": 120.0
            },
            {
                "pitch": 0,
                "velocity": 0,
                "duration": 0.0341,
                "tempo": 0
            },
            {
                "pitch": 74,
                "velocity": 8,
                "duration": 0.7091,
                "tempo": 120.0
            },
            {
                "pitch": 0,
                "velocity": 0,
                "duration": 0.0159,
                "tempo": 0
            },
            {
                "pitch": 72,
                "velocity": 8,
                "duration": 0.2136,
                "tempo": 120.0
            },
            {
                "pitch": 0,
                "velocity": 0,
                "duration": 0.0182,
                "tempo": 0
            },
            {
                "pitch": 74,
                "velocity": 8,
                "duration": 0.7068,
                "tempo": 120.0
            },
            {
                "pitch": 0,
                "velocity": 0,
                "duration": 0.0341,
                "tempo": 0
            },
            {
                "pitch": 72,
                "velocity": 8,
                "duration": 0.2114,
                "tempo": 120.0
            },
            {
                "pitch": 0,
                "velocity": 0,
                "duration": 0.0182,
                "tempo": 0
            },
            {
                "pitch": 71,
                "velocity": 8,
                "duration": 0.3068,
                "tempo": 120.0
            },
            {
                "pitch": 0,
                "velocity": 0,
                "duration": 0.0182,
                "tempo": 0
            },
            {
                "pitch": 69,
                "velocity": 8,
                "duration": 0.3045,
                "tempo": 120.0
            },
            {
                "pitch": 0,
                "velocity": 0,
                "duration": 0.0182,
                "tempo": 0
            },
            {
                "pitch": 65,
                "velocity": 8,
                "duration": 0.3,
                "tempo": 120.0
            },
            {
                "pitch": 0,
                "velocity": 0,
                "duration": 0.0364,
                "tempo": 0
            },
            {
                "pitch": 67,
                "velocity": 8,
                "duration": 3.8591,
                "tempo": 120.0
            },
            {
                "pitch": 0,
                "velocity": 0,
                "duration": 0.0182,
                "tempo": 0
            },
            {
                "pitch": 67,
                "velocity": 8,
                "duration": 0.4568,
                "tempo": 120.0
            },
            {
                "pitch": 0,
                "velocity": 0,
                "duration": 0.0182,
                "tempo": 0
            },
            {
                "pitch": 69,
                "velocity": 8,
                "duration": 0.4705,
                "tempo": 120.0
            },
            {
                "pitch": 0,
                "velocity": 0,
                "duration": 0.0182,
                "tempo": 0
            },
            {
                "pitch": 71,
                "velocity": 8,
                "duration": 0.4773,
                "tempo": 120.0
            },
            {
                "pitch": 0,
                "velocity": 0,
                "duration": 0.0182,
                "tempo": 0
            },
            {
                "pitch": 72,
                "velocity": 8,
                "duration": 0.4705,
                "tempo": 120.0
            },
            {
                "pitch": 0,
                "velocity": 0,
                "duration": 0.0182,
                "tempo": 0
            },
            {
                "pitch": 74,
                "velocity": 8,
                "duration": 0.7,
                "tempo": 120.0
            },
            {
                "pitch": 0,
                "velocity": 0,
                "duration": 0.0182,
                "tempo": 0
            },
            {
                "pitch": 72,
                "velocity": 8,
                "duration": 0.1,
                "tempo": 120.0
            },
            {
                "pitch": 0,
                "velocity": 0,
                "duration": 0.0182,
                "tempo": 0
            },
            {
                "pitch": 71,
                "velocity": 8,
                "duration": 0.1,
                "tempo": 120.0
            },
            {
                "pitch": 0,
                "velocity": 0,
                "duration": 0.0182,
                "tempo": 0
            },
            {
                "pitch": 67,
                "velocity": 8,
                "duration": 4.8432,
                "tempo": 120.0
            },
            {
                "pitch": 0,
                "velocity": 0,
                "duration": 0.0182,
                "tempo": 0
            },
            {
                "pitch": 67,
                "velocity": 8,
                "duration": 0.4773,
                "tempo": 120.0
            },
            {
                "pitch": 0,
                "velocity": 0,
                "duration": 0.0182,
                "tempo": 0
            },
            {
                "pitch": 69,
                "velocity": 8,
                "duration": 0.4523,
                "tempo": 120.0
            },
            {
                "pitch": 0,
                "velocity": 0,
                "duration": 0.0364,
                "tempo": 0
            },
            {
                "pitch": 71,
                "velocity": 8,
                "duration": 0.4591,
                "tempo": 120.0
            },
            {
                "pitch": 0,
                "velocity": 0,
                "duration": 0.0182,
                "tempo": 0
            },
            {
                "pitch": 72,
                "velocity": 8,
                "duration": 0.4477,
                "tempo": 120.0
            },
            {
                "pitch": 0,
                "velocity": 0,
                "duration": 0.0182,
                "tempo": 0
            },
            {
                "pitch": 74,
                "velocity": 8,
                "duration": 0.7136,
                "tempo": 120.0
            },
            {
                "pitch": 0,
                "velocity": 0,
                "duration": 0.0341,
                "tempo": 0
            },
            {
                "pitch": 72,
                "velocity": 8,
                "duration": 0.1,
                "tempo": 120.0
            },
            {
                "pitch": 0,
                "velocity": 0,
                "duration": 0.0159,
                "tempo": 0
            },
            {
                "pitch": 71,
                "velocity": 8,
                "duration": 0.1023,
                "tempo": 120.0
            },
            {
                "pitch": 0,
                "velocity": 0,
                "duration": 0.0182,
                "tempo": 0
            },
            {
                "pitch": 67,
                "velocity": 8,
                "duration": 4.7091,
                "tempo": 120.0
            },
            {
                "pitch": 0,
                "velocity": 0,
                "duration": 0.0182,
                "tempo": 0
            },
            {
                "pitch": 72,
                "velocity": 8,
                "duration": 0.1,
                "tempo": 120.0
            },
            {
                "pitch": 0,
                "velocity": 0,
                "duration": 0.0182,
                "tempo": 0
            },
            {
                "pitch": 74,
                "velocity": 8,
                "duration": 0.7091,
                "tempo": 120.0
            },
            {
                "pitch": 0,
                "velocity": 0,
                "duration": 0.0182,
                "tempo": 0
            },
            {
                "pitch": 72,
                "velocity": 8,
                "duration": 0.2182,
                "tempo": 120.0
            },
            {
                "pitch": 0,
                "velocity": 0,
                "duration": 0.0182,
                "tempo": 0
            },
            {
                "pitch": 74,
                "velocity": 8,
                "duration": 0.7114,
                "tempo": 120.0
            },
            {
                "pitch": 0,
                "velocity": 0,
                "duration": 0.0159,
                "tempo": 0
            },
            {
                "pitch": 72,
                "velocity": 8,
                "duration": 0.2341,
                "tempo": 120.0
            },
            {
                "pitch": 0,
                "velocity": 0,
                "duration": 0.0182,
                "tempo": 0
            },
            {
                "pitch": 74,
                "velocity": 8,
                "duration": 0.7114,
                "tempo": 120.0
            },
            {
                "pitch": 0,
                "velocity": 0,
                "duration": 0.0159,
                "tempo": 0
            },
            {
                "pitch": 72,
                "velocity": 8,
                "duration": 0.2182,
                "tempo": 120.0
            },
            {
                "pitch": 0,
                "velocity": 0,
                "duration": 0.0341,
                "tempo": 0
            },
            {
                "pitch": 71,
                "velocity": 8,
                "duration": 0.3045,
                "tempo": 120.0
            },
            {
                "pitch": 0,
                "velocity": 0,
                "duration": 0.0182,
                "tempo": 0
            },
            {
                "pitch": 69,
                "velocity": 8,
                "duration": 0.2977,
                "tempo": 120.0
            },
            {
                "pitch": 0,
                "velocity": 0,
                "duration": 0.0182,
                "tempo": 0
            },
            {
                "pitch": 65,
                "velocity": 8,
                "duration": 0.2864,
                "tempo": 120.0
            },
            {
                "pitch": 0,
                "velocity": 0,
                "duration": 0.0182,
                "tempo": 0
            },
            {
                "pitch": 67,
                "velocity": 8,
                "duration": 3.8795,
                "tempo": 120.0
            }
        ],
        "Synth Bass 1": [
            {
                "pitch": 26,
                "velocity": 1,
                "duration": 0.1136,
                "tempo": 120.0
            },
            {
                "pitch": 0,
                "velocity": 0,
                "duration": 0.0705,
                "tempo": 0
            },
            {
                "pitch": 26,
                "velocity": 1,
                "duration": 0.1182,
                "tempo": 120.0
            },
            {
                "pitch": 0,
                "velocity": 0,
                "duration": 0.0477,
                "tempo": 0
            },
            {
                "pitch": 26,
                "velocity": 1,
                "duration": 0.1159,
                "tempo": 120.0
            },
            {
                "pitch": 0,
                "velocity": 0,
                "duration": 0.0705,
                "tempo": 0
            },
            {
                "pitch": 26,
                "velocity": 1,
                "duration": 0.3045,
                "tempo": 120.0
            },
            {
                "pitch": 0,
                "velocity": 0,
                "duration": 0.0477,
                "tempo": 0
            },
            {
                "pitch": 26,
                "velocity": 1,
                "duration": 0.2909,
                "tempo": 120.0
            },
            {
                "pitch": 0,
                "velocity": 0,
                "duration": 0.0455,
                "tempo": 0
            },
            {
                "pitch": 26,
                "velocity": 1,
                "duration": 0.1114,
                "tempo": 120.0
            },
            {
                "pitch": 0,
                "velocity": 0,
                "duration": 0.0682,
                "tempo": 0
            },
            {
                "pitch": 26,
                "velocity": 1,
                "duration": 0.1114,
                "tempo": 120.0
            },
            {
                "pitch": 0,
                "velocity": 0,
                "duration": 0.0682,
                "tempo": 0
            },
            {
                "pitch": 26,
                "velocity": 1,
                "duration": 0.0932,
                "tempo": 120.0
            },
            {
                "pitch": 0,
                "velocity": 0,
                "duration": 0.0341,
                "tempo": 0
            },
            {
                "pitch": 26,
                "velocity": 1,
                "duration": 0.0909,
                "tempo": 120.0
            },
            {
                "pitch": 0,
                "velocity": 0,
                "duration": 0.0523,
                "tempo": 0
            },
            {
                "pitch": 26,
                "velocity": 1,
                "duration": 0.2318,
                "tempo": 120.0
            },
            {
                "pitch": 0,
                "velocity": 0,
                "duration": 0.0364,
                "tempo": 0
            },
            {
                "pitch": 26,
                "velocity": 1,
                "duration": 0.2318,
                "tempo": 120.0
            },
            {
                "pitch": 0,
                "velocity": 0,
                "duration": 0.0364,
                "tempo": 0
            },
            {
                "pitch": 26,
                "velocity": 1,
                "duration": 0.0886,
                "tempo": 120.0
            },
            {
                "pitch": 0,
                "velocity": 0,
                "duration": 0.0545,
                "tempo": 0
            },
            {
                "pitch": 26,
                "velocity": 1,
                "duration": 0.0864,
                "tempo": 120.0
            },
            {
                "pitch": 0,
                "velocity": 0,
                "duration": 0.0364,
                "tempo": 0
            },
            {
                "pitch": 26,
                "velocity": 1,
                "duration": 0.1068,
                "tempo": 120.0
            },
            {
                "pitch": 0,
                "velocity": 0,
                "duration": 0.0364,
                "tempo": 0
            },
            {
                "pitch": 26,
                "velocity": 1,
                "duration": 0.0886,
                "tempo": 120.0
            },
            {
                "pitch": 0,
                "velocity": 0,
                "duration": 0.0545,
                "tempo": 0
            },
            {
                "pitch": 26,
                "velocity": 1,
                "duration": 0.2136,
                "tempo": 120.0
            },
            {
                "pitch": 0,
                "velocity": 0,
                "duration": 0.0523,
                "tempo": 0
            },
            {
                "pitch": 26,
                "velocity": 1,
                "duration": 0.2273,
                "tempo": 120.0
            },
            {
                "pitch": 0,
                "velocity": 0,
                "duration": 0.0341,
                "tempo": 0
            },
            {
                "pitch": 26,
                "velocity": 1,
                "duration": 0.0864,
                "tempo": 120.0
            },
            {
                "pitch": 0,
                "velocity": 0,
                "duration": 0.0545,
                "tempo": 0
            },
            {
                "pitch": 26,
                "velocity": 1,
                "duration": 0.0864,
                "tempo": 120.0
            },
            {
                "pitch": 0,
                "velocity": 0,
                "duration": 0.0341,
                "tempo": 0
            },
            {
                "pitch": 26,
                "velocity": 1,
                "duration": 0.0886,
                "tempo": 120.0
            },
            {
                "pitch": 0,
                "velocity": 0,
                "duration": 0.0523,
                "tempo": 0
            },
            {
                "pitch": 26,
                "velocity": 1,
                "duration": 0.0909,
                "tempo": 120.0
            },
            {
                "pitch": 0,
                "velocity": 0,
                "duration": 0.0341,
                "tempo": 0
            },
            {
                "pitch": 26,
                "velocity": 1,
                "duration": 0.2318,
                "tempo": 120.0
            },
            {
                "pitch": 0,
                "velocity": 0,
                "duration": 0.0545,
                "tempo": 0
            },
            {
                "pitch": 26,
                "velocity": 1,
                "duration": 0.2227,
                "tempo": 120.0
            },
            {
                "pitch": 0,
                "velocity": 0,
                "duration": 0.0568,
                "tempo": 0
            },
            {
                "pitch": 26,
                "velocity": 1,
                "duration": 0.0932,
                "tempo": 120.0
            },
            {
                "pitch": 0,
                "velocity": 0,
                "duration": 4.3455,
                "tempo": 0
            },
            {
                "pitch": 24,
                "velocity": 1,
                "duration": 1.8773,
                "tempo": 120.0
            }
        ],
        "Acoustic Grand Piano": [
            {
                "pitch": 0,
                "velocity": 0,
                "duration": 68.9886,
                "tempo": 0
            },
            {
                "pitch": 108,
                "velocity": 15,
                "duration": 0.1,
                "tempo": 120.0
            }
        ]
    }
}