{
    "track_id": "01 Prologue_11",
    "mood": "angry",
    "instruments": {
        "Lead 1 (square)": [
            {
                "pitch": 67,
                "velocity": 5,
                "duration": 33.4795,
                "tempo": 120.0
            },
            {
                "pitch": 0,
                "velocity": 0,
                "duration": 0.1136,
                "tempo": 0
            },
            {
                "pitch": 67,
                "velocity": 5,
                "duration": 25.1045,
                "tempo": 120.0
            }
        ],
        "Lead 2 (sawtooth)": [
            {
                "pitch": 0,
                "velocity": 0,
                "duration": 126.8795,
                "tempo": 0
            },
            {
                "pitch": 34,
                "velocity": 5,
                "duration": 0.05,
                "tempo": 120.0
            },
            {
                "pitch": 36,
                "velocity": 5,
                "duration": 0.0636,
                "tempo": 120.0
            },
            {
                "pitch": 38,
                "velocity": 5,
                "duration": 0.0818,
                "tempo": 120.0
            },
            {
                "pitch": 40,
                "velocity": 5,
                "duration": 0.2886,
                "tempo": 120.0
            },
            {
                "pitch": 40,
                "velocity": 5,
                "duration": 0.1432,
                "tempo": 120.0
            },
            {
                "pitch": 43,
                "velocity": 5,
                "duration": 0.1273,
                "tempo": 120.0
            },
            {
                "pitch": 47,
                "velocity": 5,
                "duration": 0.0477,
                "tempo": 120.0
            },
            {
                "pitch": 48,
                "velocity": 5,
                "duration": 0.0955,
                "tempo": 120.0
            },
            {
                "pitch": 50,
                "velocity": 5,
                "duration": 0.0932,
                "tempo": 120.0
            },
            {
                "pitch": 52,
                "velocity": 5,
                "duration": 0.4886,
                "tempo": 120.0
            },
            {
                "pitch": 52,
                "velocity": 5,
                "duration": 0.3,
                "tempo": 120.0
            },
            {
                "pitch": 55,
                "velocity": 5,
                "duration": 0.1523,
                "tempo": 120.0
            },
            {
                "pitch": 58,
                "velocity": 5,
                "duration": 0.1841,
                "tempo": 120.0
            },
            {
                "pitch": 60,
                "velocity": 5,
                "duration": 0.1,
                "tempo": 120.0
            },
            {
                "pitch": 62,
                "velocity": 5,
                "duration": 0.0818,
                "tempo": 120.0
            },
            {
                "pitch": 64,
                "velocity": 5,
                "duration": 0.5023,
                "tempo": 120.0
            },
            {
                "pitch": 64,
                "velocity": 5,
                "duration": 0.3205,
                "tempo": 120.0
            },
            {
                "pitch": 67,
                "velocity": 5,
                "duration": 0.1114,
                "tempo": 120.0
            },
            {
                "pitch": 70,
                "velocity": 5,
                "duration": 0.2977,
                "tempo": 120.0
            },
            {
                "pitch": 72,
                "velocity": 5,
                "duration": 0.0727,
                "tempo": 120.0
            },
            {
                "pitch": 74,
                "velocity": 5,
                "duration": 0.0727,
                "tempo": 120.0
            },
            {
                "pitch": 76,
                "velocity": 5,
                "duration": 0.4273,
                "tempo": 120.0
            },
            {
                "pitch": 76,
                "velocity": 5,
                "duration": 0.2818,
                "tempo": 120.0
            },
            {
                "pitch": 79,
                "velocity": 5,
                "duration": 0.2045,
                "tempo": 120.0
            },
            {
                "pitch": 82,
                "velocity": 5,
                "duration": 0.075,
                "tempo": 120.0
            },
            {
                "pitch": 84,
                "velocity": 5,
                "duration": 0.2705,
                "tempo": 120.0
            }
        ],
        "Synth Bass 1": [
            {
                "pitch": 0,
                "velocity": 0,
                "duration": 49.7545,
                "tempo": 0
            },
            {
                "pitch": 26,
                "velocity": 1,
                "duration": 0.1136,
                "tempo": 120.0
            },
            {
                "pitch": 0,
                "velocity": 0,
                "duration": 0.0727,
                "tempo": 0
            },
            {
                "pitch": 26,
                "velocity": 1,
                "duration": 0.1159,
                "tempo": 120.0
            },
            {
                "pitch": 0,
                "velocity": 0,
                "duration": 0.0477,
                "tempo": 0
            },
            {
                "pitch": 26,
                "velocity": 1,
                "duration": 0.1159,
                "tempo": 120.0
            },
            {
                "pitch": 0,
                "velocity": 0,
                "duration": 0.0705,
                "tempo": 0
            },
            {
                "pitch": 26,
                "velocity": 1,
                "duration": 0.3045,
                "tempo": 120.0
            },
            {
                "pitch": 0,
                "velocity": 0,
                "duration": 0.0477,
                "tempo": 0
            },
            {
                "pitch": 26,
                "velocity": 1,
                "duration": 0.2932,
                "tempo": 120.0
            },
            {
                "pitch": 0,
                "velocity": 0,
                "duration": 0.0455,
                "tempo": 0
            },
            {
                "pitch": 26,
                "velocity": 1,
                "duration": 0.1114,
                "tempo": 120.0
            },
            {
                "pitch": 0,
                "velocity": 0,
                "duration": 0.0659,
                "tempo": 0
            },
            {
                "pitch": 26,
                "velocity": 1,
                "duration": 0.1136,
                "tempo": 120.0
            },
            {
                "pitch": 0,
                "velocity": 0,
                "duration": 0.0659,
                "tempo": 0
            },
            {
                "pitch": 26,
                "velocity": 1,
                "duration": 0.0932,
                "tempo": 120.0
            },
            {
                "pitch": 0,
                "velocity": 0,
                "duration": 0.0364,
                "tempo": 0
            },
            {
                "pitch": 26,
                "velocity": 1,
                "duration": 0.0886,
                "tempo": 120.0
            },
            {
                "pitch": 0,
                "velocity": 0,
                "duration": 0.0523,
                "tempo": 0
            },
            {
                "pitch": 26,
                "velocity": 1,
                "duration": 0.2318,
                "tempo": 120.0
            },
            {
                "pitch": 0,
                "velocity": 0,
                "duration": 0.0364,
                "tempo": 0
            },
            {
                "pitch": 26,
                "velocity": 1,
                "duration": 0.2318,
                "tempo": 120.0
            },
            {
                "pitch": 0,
                "velocity": 0,
                "duration": 0.0364,
                "tempo": 0
            },
            {
                "pitch": 26,
                "velocity": 1,
                "duration": 0.0886,
                "tempo": 120.0
            },
            {
                "pitch": 0,
                "velocity": 0,
                "duration": 0.0545,
                "tempo": 0
            },
            {
                "pitch": 26,
                "velocity": 1,
                "duration": 0.0886,
                "tempo": 120.0
            },
            {
                "pitch": 0,
                "velocity": 0,
                "duration": 0.0341,
                "tempo": 0
            },
            {
                "pitch": 26,
                "velocity": 1,
                "duration": 0.1068,
                "tempo": 120.0
            },
            {
                "pitch": 0,
                "velocity": 0,
                "duration": 0.0364,
                "tempo": 0
            },
            {
                "pitch": 26,
                "velocity": 1,
                "duration": 0.0886,
                "tempo": 120.0
            },
            {
                "pitch": 0,
                "velocity": 0,
                "duration": 0.0545,
                "tempo": 0
            },
            {
                "pitch": 26,
                "velocity": 1,
                "duration": 0.2136,
                "tempo": 120.0
            },
            {
                "pitch": 0,
                "velocity": 0,
                "duration": 0.0545,
                "tempo": 0
            },
            {
                "pitch": 26,
                "velocity": 1,
                "duration": 0.225,
                "tempo": 120.0
            },
            {
                "pitch": 0,
                "velocity": 0,
                "duration": 0.0341,
                "tempo": 0
            },
            {
                "pitch": 26,
                "velocity": 1,
                "duration": 0.0886,
                "tempo": 120.0
            },
            {
                "pitch": 0,
                "velocity": 0,
                "duration": 0.0523,
                "tempo": 0
            },
            {
                "pitch": 26,
                "velocity": 1,
                "duration": 0.0864,
                "tempo": 120.0
            },
            {
                "pitch": 0,
                "velocity": 0,
                "duration": 0.0341,
                "tempo": 0
            },
            {
                "pitch": 26,
                "velocity": 1,
                "duration": 0.0886,
                "tempo": 120.0
            },
            {
                "pitch": 0,
                "velocity": 0,
                "duration": 0.0545,
                "tempo": 0
            },
            {
                "pitch": 26,
                "velocity": 1,
                "duration": 0.0886,
                "tempo": 120.0
            },
            {
                "pitch": 0,
                "velocity": 0,
                "duration": 0.0364,
                "tempo": 0
            },
            {
                "pitch": 26,
                "velocity": 1,
                "duration": 0.2295,
                "tempo": 120.0
            },
            {
                "pitch": 0,
                "velocity": 0,
                "duration": 0.0545,
                "tempo": 0
            },
            {
                "pitch": 26,
                "velocity": 1,
                "duration": 0.2227,
                "tempo": 120.0
            },
            {
                "pitch": 0,
                "velocity": 0,
                "duration": 0.0568,
                "tempo": 0
            },
            {
                "pitch": 26,
                "velocity": 1,
                "duration": 0.0932,
                "tempo": 120.0
            },
            {
                "pitch": 0,
                "velocity": 0,
                "duration": 4.3455,
                "tempo": 0
            },
            {
                "pitch": 24,
                "velocity": 1,
                "duration": 1.8773,
                "tempo": 120.0
            }
        ],
        "Acoustic Grand Piano": [
            {
                "pitch": 0,
                "velocity": 0,
                "duration": 130.1068,
                "tempo": 0
            },
            {
                "pitch": 108,
                "velocity": 15,
                "duration": 0.1,
                "tempo": 120.0
            }
        ]
    }
}