{
    "track_id": "02 Start Demo_9",
    "mood": "angry",
    "instruments": {
        "Lead 2 (sawtooth)": [
            {
                "pitch": 0,
                "velocity": 0,
                "duration": 0.5932,
                "tempo": 0
            },
            {
                "pitch": 35,
                "velocity": 15,
                "duration": 0.1114,
                "tempo": 120.0
            },
            {
                "pitch": 42,
                "velocity": 15,
                "duration": 0.8955,
                "tempo": 120.0
            },
            {
                "pitch": 35,
                "velocity": 15,
                "duration": 0.1068,
                "tempo": 120.0
            },
            {
                "pitch": 42,
                "velocity": 15,
                "duration": 0.8841,
                "tempo": 120.0
            },
            {
                "pitch": 35,
                "velocity": 15,
                "duration": 0.1114,
                "tempo": 120.0
            },
            {
                "pitch": 42,
                "velocity": 15,
                "duration": 0.8841,
                "tempo": 120.0
            },
            {
                "pitch": 35,
                "velocity": 15,
                "duration": 0.1114,
                "tempo": 120.0
            },
            {
                "pitch": 42,
                "velocity": 15,
                "duration": 0.8864,
                "tempo": 120.0
            },
            {
                "pitch": 35,
                "velocity": 15,
                "duration": 0.1114,
                "tempo": 120.0
            },
            {
                "pitch": 42,
                "velocity": 15,
                "duration": 0.8909,
                "tempo": 120.0
            },
            {
                "pitch": 35,
                "velocity": 15,
                "duration": 0.1091,
                "tempo": 120.0
            },
            {
                "pitch": 42,
                "velocity": 15,
                "duration": 0.8864,
                "tempo": 120.0
            },
            {
                "pitch": 35,
                "velocity": 15,
                "duration": 0.1068,
                "tempo": 120.0
            },
            {
                "pitch": 42,
                "velocity": 15,
                "duration": 0.8818,
                "tempo": 120.0
            },
            {
                "pitch": 35,
                "velocity": 15,
                "duration": 0.1114,
                "tempo": 120.0
            },
            {
                "pitch": 42,
                "velocity": 15,
                "duration": 0.8864,
                "tempo": 120.0
            },
            {
                "pitch": 35,
                "velocity": 15,
                "duration": 0.1114,
                "tempo": 120.0
            },
            {
                "pitch": 42,
                "velocity": 15,
                "duration": 0.8841,
                "tempo": 120.0
            },
            {
                "pitch": 35,
                "velocity": 15,
                "duration": 0.1114,
                "tempo": 120.0
            },
            {
                "pitch": 42,
                "velocity": 15,
                "duration": 0.8932,
                "tempo": 120.0
            },
            {
                "pitch": 35,
                "velocity": 15,
                "duration": 0.1091,
                "tempo": 120.0
            },
            {
                "pitch": 42,
                "velocity": 15,
                "duration": 0.8864,
                "tempo": 120.0
            },
            {
                "pitch": 35,
                "velocity": 15,
                "duration": 0.1114,
                "tempo": 120.0
            },
            {
                "pitch": 42,
                "velocity": 15,
                "duration": 0.8841,
                "tempo": 120.0
            },
            {
                "pitch": 35,
                "velocity": 15,
                "duration": 0.1114,
                "tempo": 120.0
            },
            {
                "pitch": 42,
                "velocity": 15,
                "duration": 0.8864,
                "tempo": 120.0
            },
            {
                "pitch": 35,
                "velocity": 15,
                "duration": 0.1114,
                "tempo": 120.0
            },
            {
                "pitch": 42,
                "velocity": 15,
                "duration": 0.8841,
                "tempo": 120.0
            },
            {
                "pitch": 35,
                "velocity": 15,
                "duration": 0.1114,
                "tempo": 120.0
            },
            {
                "pitch": 42,
                "velocity": 15,
                "duration": 0.8955,
                "tempo": 120.0
            },
            {
                "pitch": 35,
                "velocity": 15,
                "duration": 0.1068,
                "tempo": 120.0
            }
        ],
        "Synth Bass 1": [
            {
                "pitch": 0,
                "velocity": 0,
                "duration": 6.3568,
                "tempo": 0
            },
            {
                "pitch": 64,
                "velocity": 1,
                "duration": 0.1114,
                "tempo": 120.0
            },
            {
                "pitch": 0,
                "velocity": 0,
                "duration": 0.0386,
                "tempo": 0
            },
            {
                "pitch": 64,
                "velocity": 1,
                "duration": 0.1114,
                "tempo": 120.0
            },
            {
                "pitch": 0,
                "velocity": 0,
                "duration": 0.0386,
                "tempo": 0
            },
            {
                "pitch": 67,
                "velocity": 1,
                "duration": 0.1091,
                "tempo": 120.0
            },
            {
                "pitch": 0,
                "velocity": 0,
                "duration": 0.0386,
                "tempo": 0
            },
            {
                "pitch": 69,
                "velocity": 1,
                "duration": 0.1114,
                "tempo": 120.0
            },
            {
                "pitch": 0,
                "velocity": 0,
                "duration": 0.0386,
                "tempo": 0
            },
            {
                "pitch": 69,
                "velocity": 1,
                "duration": 0.1091,
                "tempo": 120.0
            },
            {
                "pitch": 62,
                "velocity": 1,
                "duration": 7.0977,
                "tempo": 120.0
            },
            {
                "pitch": 64,
                "velocity": 1,
                "duration": 0.1114,
                "tempo": 120.0
            },
            {
                "pitch": 0,
                "velocity": 0,
                "duration": 0.0386,
                "tempo": 0
            },
            {
                "pitch": 64,
                "velocity": 1,
                "duration": 0.1114,
                "tempo": 120.0
            },
            {
                "pitch": 78,
                "velocity": 1,
                "duration": 7.0977,
                "tempo": 120.0
            },
            {
                "pitch": 67,
                "velocity": 1,
                "duration": 7.0614,
                "tempo": 120.0
            },
            {
                "pitch": 67,
                "velocity": 1,
                "duration": 0.1114,
                "tempo": 120.0
            },
            {
                "pitch": 0,
                "velocity": 0,
                "duration": 0.0386,
                "tempo": 0
            },
            {
                "pitch": 69,
                "velocity": 1,
                "duration": 0.1068,
                "tempo": 120.0
            },
            {
                "pitch": 0,
                "velocity": 0,
                "duration": 0.0364,
                "tempo": 0
            },
            {
                "pitch": 69,
                "velocity": 1,
                "duration": 0.1068,
                "tempo": 120.0
            }
        ],
        "Acoustic Grand Piano": [
            {
                "pitch": 0,
                "velocity": 0,
                "duration": 14.2023,
                "tempo": 0
            },
            {
                "pitch": 108,
                "velocity": 15,
                "duration": 0.1,
                "tempo": 120.0
            }
        ]
    }
}