{
    "track_id": "05 Colonel Claud (Miniboss)_8",
    "mood": "angry",
    "instruments": {
        "Lead 1 (square)": [
            {
                "pitch": 43,
                "velocity": 15,
                "duration": 0.2364,
                "tempo": 120.0
            },
            {
                "pitch": 0,
                "velocity": 0,
                "duration": 0.1136,
                "tempo": 0
            },
            {
                "pitch": 51,
                "velocity": 15,
                "duration": 0.3455,
                "tempo": 120.0
            },
            {
                "pitch": 0,
                "velocity": 0,
                "duration": 0.1136,
                "tempo": 0
            },
            {
                "pitch": 39,
                "velocity": 15,
                "duration": 0.2545,
                "tempo": 120.0
            },
            {
                "pitch": 0,
                "velocity": 0,
                "duration": 0.0523,
                "tempo": 0
            },
            {
                "pitch": 53,
                "velocity": 15,
                "duration": 0.0023,
                "tempo": 120.0
            },
            {
                "pitch": 44,
                "velocity": 15,
                "duration": 0.3409,
                "tempo": 120.0
            },
            {
                "pitch": 0,
                "velocity": 0,
                "duration": 0.1159,
                "tempo": 0
            },
            {
                "pitch": 51,
                "velocity": 15,
                "duration": 0.3432,
                "tempo": 120.0
            },
            {
                "pitch": 0,
                "velocity": 0,
                "duration": 0.1159,
                "tempo": 0
            },
            {
                "pitch": 39,
                "velocity": 15,
                "duration": 0.2545,
                "tempo": 120.0
            },
            {
                "pitch": 0,
                "velocity": 0,
                "duration": 0.0523,
                "tempo": 0
            },
            {
                "pitch": 39,
                "velocity": 15,
                "duration": 0.3432,
                "tempo": 120.0
            },
            {
                "pitch": 0,
                "velocity": 0,
                "duration": 0.1159,
                "tempo": 0
            },
            {
                "pitch": 52,
                "velocity": 15,
                "duration": 0.3432,
                "tempo": 120.0
            },
            {
                "pitch": 0,
                "velocity": 0,
                "duration": 0.1159,
                "tempo": 0
            },
            {
                "pitch": 40,
                "velocity": 15,
                "duration": 0.2545,
                "tempo": 120.0
            },
            {
                "pitch": 0,
                "velocity": 0,
                "duration": 0.0523,
                "tempo": 0
            },
            {
                "pitch": 40,
                "velocity": 15,
                "duration": 0.3432,
                "tempo": 120.0
            },
            {
                "pitch": 0,
                "velocity": 0,
                "duration": 0.1136,
                "tempo": 0
            },
            {
                "pitch": 52,
                "velocity": 15,
                "duration": 0.3455,
                "tempo": 120.0
            },
            {
                "pitch": 0,
                "velocity": 0,
                "duration": 0.1136,
                "tempo": 0
            },
            {
                "pitch": 40,
                "velocity": 15,
                "duration": 0.2545,
                "tempo": 120.0
            },
            {
                "pitch": 0,
                "velocity": 0,
                "duration": 17.1909,
                "tempo": 0
            },
            {
                "pitch": 40,
                "velocity": 15,
                "duration": 0.3409,
                "tempo": 120.0
            },
            {
                "pitch": 0,
                "velocity": 0,
                "duration": 0.1159,
                "tempo": 0
            },
            {
                "pitch": 52,
                "velocity": 15,
                "duration": 0.3523,
                "tempo": 120.0
            },
            {
                "pitch": 0,
                "velocity": 0,
                "duration": 0.1182,
                "tempo": 0
            },
            {
                "pitch": 40,
                "velocity": 15,
                "duration": 0.2545,
                "tempo": 120.0
            },
            {
                "pitch": 0,
                "velocity": 0,
                "duration": 0.0523,
                "tempo": 0
            },
            {
                "pitch": 40,
                "velocity": 15,
                "duration": 0.3432,
                "tempo": 120.0
            },
            {
                "pitch": 0,
                "velocity": 0,
                "duration": 0.1136,
                "tempo": 0
            },
            {
                "pitch": 52,
                "velocity": 15,
                "duration": 0.3455,
                "tempo": 120.0
            },
            {
                "pitch": 0,
                "velocity": 0,
                "duration": 0.1136,
                "tempo": 0
            },
            {
                "pitch": 40,
                "velocity": 15,
                "duration": 0.25,
                "tempo": 120.0
            },
            {
                "pitch": 0,
                "velocity": 0,
                "duration": 0.0523,
                "tempo": 0
            },
            {
                "pitch": 49,
                "velocity": 15,
                "duration": 0.3364,
                "tempo": 120.0
            },
            {
                "pitch": 0,
                "velocity": 0,
                "duration": 0.1159,
                "tempo": 0
            },
            {
                "pitch": 49,
                "velocity": 15,
                "duration": 0.3432,
                "tempo": 120.0
            },
            {
                "pitch": 0,
                "velocity": 0,
                "duration": 0.1159,
                "tempo": 0
            },
            {
                "pitch": 46,
                "velocity": 15,
                "duration": 0.2591,
                "tempo": 120.0
            },
            {
                "pitch": 0,
                "velocity": 0,
                "duration": 0.0523,
                "tempo": 0
            },
            {
                "pitch": 49,
                "velocity": 15,
                "duration": 0.35,
                "tempo": 120.0
            },
            {
                "pitch": 0,
                "velocity": 0,
                "duration": 0.1136,
                "tempo": 0
            },
            {
                "pitch": 49,
                "velocity": 15,
                "duration": 0.3409,
                "tempo": 120.0
            },
            {
                "pitch": 53,
                "velocity": 15,
                "duration": 1.2295,
                "tempo": 120.0
            },
            {
                "pitch": 46,
                "velocity": 15,
                "duration": 0.2545,
                "tempo": 120.0
            },
            {
                "pitch": 0,
                "velocity": 0,
                "duration": 0.0523,
                "tempo": 0
            },
            {
                "pitch": 40,
                "velocity": 15,
                "duration": 0.3432,
                "tempo": 120.0
            },
            {
                "pitch": 52,
                "velocity": 15,
                "duration": 3.25,
                "tempo": 120.0
            },
            {
                "pitch": 52,
                "velocity": 15,
                "duration": 0.3432,
                "tempo": 120.0
            },
            {
                "pitch": 0,
                "velocity": 0,
                "duration": 0.1159,
                "tempo": 0
            },
            {
                "pitch": 40,
                "velocity": 15,
                "duration": 0.2591,
                "tempo": 120.0
            },
            {
                "pitch": 0,
                "velocity": 0,
                "duration": 0.0523,
                "tempo": 0
            },
            {
                "pitch": 40,
                "velocity": 15,
                "duration": 0.35,
                "tempo": 120.0
            },
            {
                "pitch": 0,
                "velocity": 0,
                "duration": 0.1159,
                "tempo": 0
            },
            {
                "pitch": 52,
                "velocity": 15,
                "duration": 0.3432,
                "tempo": 120.0
            },
            {
                "pitch": 0,
                "velocity": 0,
                "duration": 0.1159,
                "tempo": 0
            },
            {
                "pitch": 40,
                "velocity": 15,
                "duration": 0.2545,
                "tempo": 120.0
            },
            {
                "pitch": 0,
                "velocity": 0,
                "duration": 9.8432,
                "tempo": 0
            },
            {
                "pitch": 44,
                "velocity": 15,
                "duration": 0.0045,
                "tempo": 120.0
            }
        ],
        "Lead 2 (sawtooth)": [
            {
                "pitch": 0,
                "velocity": 0,
                "duration": 19.4818,
                "tempo": 0
            },
            {
                "pitch": 47,
                "velocity": 15,
                "duration": 0.125,
                "tempo": 120.0
            },
            {
                "pitch": 0,
                "velocity": 0,
                "duration": 0.0273,
                "tempo": 0
            },
            {
                "pitch": 46,
                "velocity": 15,
                "duration": 0.1273,
                "tempo": 120.0
            },
            {
                "pitch": 0,
                "velocity": 0,
                "duration": 0.025,
                "tempo": 0
            },
            {
                "pitch": 61,
                "velocity": 15,
                "duration": 0.1273,
                "tempo": 120.0
            },
            {
                "pitch": 0,
                "velocity": 0,
                "duration": 0.025,
                "tempo": 0
            },
            {
                "pitch": 61,
                "velocity": 15,
                "duration": 0.2545,
                "tempo": 120.0
            },
            {
                "pitch": 0,
                "velocity": 0,
                "duration": 0.0523,
                "tempo": 0
            },
            {
                "pitch": 51,
                "velocity": 15,
                "duration": 0.2545,
                "tempo": 120.0
            },
            {
                "pitch": 0,
                "velocity": 0,
                "duration": 0.0523,
                "tempo": 0
            },
            {
                "pitch": 49,
                "velocity": 15,
                "duration": 0.1273,
                "tempo": 120.0
            },
            {
                "pitch": 0,
                "velocity": 0,
                "duration": 0.025,
                "tempo": 0
            },
            {
                "pitch": 49,
                "velocity": 15,
                "duration": 0.3432,
                "tempo": 120.0
            },
            {
                "pitch": 0,
                "velocity": 0,
                "duration": 0.1159,
                "tempo": 0
            },
            {
                "pitch": 46,
                "velocity": 15,
                "duration": 0.7364,
                "tempo": 120.0
            }
        ],
        "Synth Bass 1": [
            {
                "pitch": 0,
                "velocity": 0,
                "duration": 0.0023,
                "tempo": 0
            },
            {
                "pitch": 54,
                "velocity": 1,
                "duration": 0.2341,
                "tempo": 120.0
            },
            {
                "pitch": 0,
                "velocity": 0,
                "duration": 0.1159,
                "tempo": 0
            },
            {
                "pitch": 54,
                "velocity": 1,
                "duration": 0.3432,
                "tempo": 120.0
            },
            {
                "pitch": 0,
                "velocity": 0,
                "duration": 0.1159,
                "tempo": 0
            },
            {
                "pitch": 54,
                "velocity": 1,
                "duration": 0.4318,
                "tempo": 120.0
            },
            {
                "pitch": 0,
                "velocity": 0,
                "duration": 0.0273,
                "tempo": 0
            },
            {
                "pitch": 56,
                "velocity": 1,
                "duration": 0.3432,
                "tempo": 120.0
            },
            {
                "pitch": 0,
                "velocity": 0,
                "duration": 0.575,
                "tempo": 0
            },
            {
                "pitch": 51,
                "velocity": 1,
                "duration": 0.8409,
                "tempo": 120.0
            },
            {
                "pitch": 0,
                "velocity": 0,
                "duration": 1.7636,
                "tempo": 0
            },
            {
                "pitch": 52,
                "velocity": 1,
                "duration": 0.3409,
                "tempo": 120.0
            },
            {
                "pitch": 0,
                "velocity": 0,
                "duration": 0.1159,
                "tempo": 0
            },
            {
                "pitch": 54,
                "velocity": 1,
                "duration": 0.3432,
                "tempo": 120.0
            },
            {
                "pitch": 0,
                "velocity": 0,
                "duration": 0.1159,
                "tempo": 0
            },
            {
                "pitch": 54,
                "velocity": 1,
                "duration": 0.4318,
                "tempo": 120.0
            },
            {
                "pitch": 66,
                "velocity": 1,
                "duration": 4.8977,
                "tempo": 120.0
            },
            {
                "pitch": 56,
                "velocity": 1,
                "duration": 0.3432,
                "tempo": 120.0
            },
            {
                "pitch": 0,
                "velocity": 0,
                "duration": 3.1795,
                "tempo": 0
            },
            {
                "pitch": 64,
                "velocity": 1,
                "duration": 0.3386,
                "tempo": 120.0
            },
            {
                "pitch": 66,
                "velocity": 1,
                "duration": 4.3205,
                "tempo": 120.0
            },
            {
                "pitch": 66,
                "velocity": 1,
                "duration": 0.3409,
                "tempo": 120.0
            },
            {
                "pitch": 0,
                "velocity": 0,
                "duration": 0.1182,
                "tempo": 0
            },
            {
                "pitch": 66,
                "velocity": 1,
                "duration": 0.4318,
                "tempo": 120.0
            },
            {
                "pitch": 0,
                "velocity": 0,
                "duration": 0.0273,
                "tempo": 0
            },
            {
                "pitch": 68,
                "velocity": 1,
                "duration": 0.3409,
                "tempo": 120.0
            },
            {
                "pitch": 0,
                "velocity": 0,
                "duration": 0.5773,
                "tempo": 0
            },
            {
                "pitch": 63,
                "velocity": 1,
                "duration": 0.8386,
                "tempo": 120.0
            },
            {
                "pitch": 0,
                "velocity": 0,
                "duration": 1.7636,
                "tempo": 0
            },
            {
                "pitch": 64,
                "velocity": 1,
                "duration": 0.3409,
                "tempo": 120.0
            },
            {
                "pitch": 0,
                "velocity": 0,
                "duration": 0.1159,
                "tempo": 0
            },
            {
                "pitch": 66,
                "velocity": 1,
                "duration": 0.3432,
                "tempo": 120.0
            },
            {
                "pitch": 0,
                "velocity": 0,
                "duration": 0.1159,
                "tempo": 0
            },
            {
                "pitch": 66,
                "velocity": 1,
                "duration": 0.4318,
                "tempo": 120.0
            },
            {
                "pitch": 78,
                "velocity": 1,
                "duration": 4.8955,
                "tempo": 120.0
            },
            {
                "pitch": 68,
                "velocity": 1,
                "duration": 0.3432,
                "tempo": 120.0
            },
            {
                "pitch": 0,
                "velocity": 0,
                "duration": 0.575,
                "tempo": 0
            },
            {
                "pitch": 63,
                "velocity": 1,
                "duration": 0.8409,
                "tempo": 120.0
            },
            {
                "pitch": 0,
                "velocity": 0,
                "duration": 2.8341,
                "tempo": 0
            },
            {
                "pitch": 75,
                "velocity": 1,
                "duration": 0.125,
                "tempo": 120.0
            },
            {
                "pitch": 0,
                "velocity": 0,
                "duration": 2.3295,
                "tempo": 0
            },
            {
                "pitch": 76,
                "velocity": 1,
                "duration": 0.125,
                "tempo": 120.0
            },
            {
                "pitch": 50,
                "velocity": 1,
                "duration": 4.8932,
                "tempo": 120.0
            },
            {
                "pitch": 75,
                "velocity": 1,
                "duration": 0.1295,
                "tempo": 120.0
            },
            {
                "pitch": 0,
                "velocity": 0,
                "duration": 2.325,
                "tempo": 0
            },
            {
                "pitch": 76,
                "velocity": 1,
                "duration": 0.1295,
                "tempo": 120.0
            },
            {
                "pitch": 0,
                "velocity": 0,
                "duration": 7.2205,
                "tempo": 0
            },
            {
                "pitch": 83,
                "velocity": 1,
                "duration": 0.125,
                "tempo": 120.0
            },
            {
                "pitch": 0,
                "velocity": 0,
                "duration": 2.3227,
                "tempo": 0
            },
            {
                "pitch": 83,
                "velocity": 1,
                "duration": 0.1273,
                "tempo": 120.0
            },
            {
                "pitch": 0,
                "velocity": 0,
                "duration": 1.2545,
                "tempo": 0
            },
            {
                "pitch": 52,
                "velocity": 1,
                "duration": 0.0023,
                "tempo": 120.0
            }
        ],
        "Acoustic Grand Piano": [
            {
                "pitch": 0,
                "velocity": 0,
                "duration": 39.1,
                "tempo": 0
            },
            {
                "pitch": 108,
                "velocity": 15,
                "duration": 0.1,
                "tempo": 120.0
            }
        ]
    }
}