{
    "track_id": "05 Sample 5_15",
    "mood": "angry",
    "instruments": {
        "Lead 1 (square)": [
            {
                "pitch": 0,
                "velocity": 0,
                "duration": 18.5864,
                "tempo": 0
            },
            {
                "pitch": 83,
                "velocity": 15,
                "duration": 0.1205,
                "tempo": 120.0
            },
            {
                "pitch": 81,
                "velocity": 15,
                "duration": 0.1091,
                "tempo": 120.0
            },
            {
                "pitch": 83,
                "velocity": 15,
                "duration": 0.1182,
                "tempo": 120.0
            },
            {
                "pitch": 84,
                "velocity": 15,
                "duration": 0.1182,
                "tempo": 120.0
            },
            {
                "pitch": 83,
                "velocity": 15,
                "duration": 0.225,
                "tempo": 120.0
            },
            {
                "pitch": 81,
                "velocity": 15,
                "duration": 0.2318,
                "tempo": 120.0
            },
            {
                "pitch": 83,
                "velocity": 15,
                "duration": 0.1205,
                "tempo": 120.0
            }
        ],
        "Lead 2 (sawtooth)": [
            {
                "pitch": 69,
                "velocity": 12,
                "duration": 0.2045,
                "tempo": 120.0
            },
            {
                "pitch": 72,
                "velocity": 12,
                "duration": 0.1091,
                "tempo": 120.0
            },
            {
                "pitch": 69,
                "velocity": 12,
                "duration": 0.1227,
                "tempo": 120.0
            },
            {
                "pitch": 74,
                "velocity": 12,
                "duration": 0.1205,
                "tempo": 120.0
            },
            {
                "pitch": 69,
                "velocity": 12,
                "duration": 0.1091,
                "tempo": 120.0
            },
            {
                "pitch": 75,
                "velocity": 12,
                "duration": 0.1182,
                "tempo": 120.0
            },
            {
                "pitch": 74,
                "velocity": 12,
                "duration": 1.0477,
                "tempo": 120.0
            },
            {
                "pitch": 0,
                "velocity": 0,
                "duration": 1.0432,
                "tempo": 0
            },
            {
                "pitch": 72,
                "velocity": 12,
                "duration": 0.1205,
                "tempo": 120.0
            },
            {
                "pitch": 71,
                "velocity": 12,
                "duration": 0.1114,
                "tempo": 120.0
            },
            {
                "pitch": 72,
                "velocity": 12,
                "duration": 0.5886,
                "tempo": 120.0
            },
            {
                "pitch": 69,
                "velocity": 12,
                "duration": 0.225,
                "tempo": 120.0
            },
            {
                "pitch": 72,
                "velocity": 12,
                "duration": 0.1205,
                "tempo": 120.0
            },
            {
                "pitch": 69,
                "velocity": 12,
                "duration": 0.1114,
                "tempo": 120.0
            },
            {
                "pitch": 74,
                "velocity": 12,
                "duration": 0.1205,
                "tempo": 120.0
            },
            {
                "pitch": 69,
                "velocity": 12,
                "duration": 0.1205,
                "tempo": 120.0
            },
            {
                "pitch": 75,
                "velocity": 12,
                "duration": 0.1091,
                "tempo": 120.0
            },
            {
                "pitch": 74,
                "velocity": 12,
                "duration": 1.0455,
                "tempo": 120.0
            },
            {
                "pitch": 0,
                "velocity": 0,
                "duration": 1.0477,
                "tempo": 0
            },
            {
                "pitch": 72,
                "velocity": 12,
                "duration": 0.1182,
                "tempo": 120.0
            },
            {
                "pitch": 71,
                "velocity": 12,
                "duration": 0.1205,
                "tempo": 120.0
            },
            {
                "pitch": 72,
                "velocity": 12,
                "duration": 0.5818,
                "tempo": 120.0
            },
            {
                "pitch": 0,
                "velocity": 0,
                "duration": 3.7159,
                "tempo": 0
            },
            {
                "pitch": 64,
                "velocity": 10,
                "duration": 0.4727,
                "tempo": 120.0
            },
            {
                "pitch": 67,
                "velocity": 10,
                "duration": 0.4659,
                "tempo": 120.0
            },
            {
                "pitch": 66,
                "velocity": 10,
                "duration": 0.9295,
                "tempo": 120.0
            },
            {
                "pitch": 0,
                "velocity": 0,
                "duration": 0.2318,
                "tempo": 0
            },
            {
                "pitch": 67,
                "velocity": 10,
                "duration": 0.4614,
                "tempo": 120.0
            },
            {
                "pitch": 66,
                "velocity": 10,
                "duration": 0.2318,
                "tempo": 120.0
            },
            {
                "pitch": 64,
                "velocity": 10,
                "duration": 0.4727,
                "tempo": 120.0
            },
            {
                "pitch": 62,
                "velocity": 10,
                "duration": 0.1205,
                "tempo": 120.0
            },
            {
                "pitch": 64,
                "velocity": 10,
                "duration": 0.1091,
                "tempo": 120.0
            },
            {
                "pitch": 65,
                "velocity": 10,
                "duration": 0.1182,
                "tempo": 120.0
            },
            {
                "pitch": 64,
                "velocity": 10,
                "duration": 0.1182,
                "tempo": 120.0
            },
            {
                "pitch": 0,
                "velocity": 0,
                "duration": 4.8864,
                "tempo": 0
            },
            {
                "pitch": 66,
                "velocity": 12,
                "duration": 0.1114,
                "tempo": 120.0
            },
            {
                "pitch": 67,
                "velocity": 12,
                "duration": 0.1205,
                "tempo": 120.0
            },
            {
                "pitch": 69,
                "velocity": 12,
                "duration": 0.1205,
                "tempo": 120.0
            },
            {
                "pitch": 67,
                "velocity": 12,
                "duration": 0.1114,
                "tempo": 120.0
            },
            {
                "pitch": 71,
                "velocity": 12,
                "duration": 0.1159,
                "tempo": 120.0
            },
            {
                "pitch": 69,
                "velocity": 12,
                "duration": 0.1182,
                "tempo": 120.0
            },
            {
                "pitch": 71,
                "velocity": 12,
                "duration": 0.1091,
                "tempo": 120.0
            },
            {
                "pitch": 69,
                "velocity": 12,
                "duration": 0.1182,
                "tempo": 120.0
            },
            {
                "pitch": 68,
                "velocity": 12,
                "duration": 0.1205,
                "tempo": 120.0
            },
            {
                "pitch": 65,
                "velocity": 12,
                "duration": 0.1091,
                "tempo": 120.0
            },
            {
                "pitch": 64,
                "velocity": 12,
                "duration": 0.1205,
                "tempo": 120.0
            },
            {
                "pitch": 62,
                "velocity": 12,
                "duration": 0.1227,
                "tempo": 120.0
            },
            {
                "pitch": 59,
                "velocity": 12,
                "duration": 0.1091,
                "tempo": 120.0
            },
            {
                "pitch": 57,
                "velocity": 12,
                "duration": 0.1205,
                "tempo": 120.0
            },
            {
                "pitch": 56,
                "velocity": 12,
                "duration": 0.1205,
                "tempo": 120.0
            },
            {
                "pitch": 53,
                "velocity": 12,
                "duration": 0.1114,
                "tempo": 120.0
            },
            {
                "pitch": 52,
                "velocity": 12,
                "duration": 0.1182,
                "tempo": 120.0
            },
            {
                "pitch": 50,
                "velocity": 12,
                "duration": 0.1182,
                "tempo": 120.0
            },
            {
                "pitch": 59,
                "velocity": 12,
                "duration": 0.1068,
                "tempo": 120.0
            },
            {
                "pitch": 0,
                "velocity": 0,
                "duration": 0.1182,
                "tempo": 0
            },
            {
                "pitch": 64,
                "velocity": 12,
                "duration": 0.2318,
                "tempo": 120.0
            }
        ],
        "Synth Bass 1": [
            {
                "pitch": 0,
                "velocity": 0,
                "duration": 0.0091,
                "tempo": 0
            },
            {
                "pitch": 33,
                "velocity": 1,
                "duration": 0.0932,
                "tempo": 120.0
            },
            {
                "pitch": 28,
                "velocity": 1,
                "duration": 0.1023,
                "tempo": 120.0
            },
            {
                "pitch": 33,
                "velocity": 1,
                "duration": 0.1091,
                "tempo": 120.0
            },
            {
                "pitch": 31,
                "velocity": 1,
                "duration": 0.1227,
                "tempo": 120.0
            },
            {
                "pitch": 0,
                "velocity": 0,
                "duration": 0.1205,
                "tempo": 0
            },
            {
                "pitch": 29,
                "velocity": 1,
                "duration": 0.1091,
                "tempo": 120.0
            },
            {
                "pitch": 31,
                "velocity": 1,
                "duration": 0.1182,
                "tempo": 120.0
            },
            {
                "pitch": 33,
                "velocity": 1,
                "duration": 0.1182,
                "tempo": 120.0
            },
            {
                "pitch": 0,
                "velocity": 0,
                "duration": 0.1068,
                "tempo": 0
            },
            {
                "pitch": 36,
                "velocity": 1,
                "duration": 0.1182,
                "tempo": 120.0
            },
            {
                "pitch": 35,
                "velocity": 1,
                "duration": 0.1205,
                "tempo": 120.0
            },
            {
                "pitch": 31,
                "velocity": 1,
                "duration": 0.1114,
                "tempo": 120.0
            },
            {
                "pitch": 29,
                "velocity": 1,
                "duration": 0.1205,
                "tempo": 120.0
            },
            {
                "pitch": 26,
                "velocity": 1,
                "duration": 0.1205,
                "tempo": 120.0
            },
            {
                "pitch": 31,
                "velocity": 1,
                "duration": 0.1114,
                "tempo": 120.0
            },
            {
                "pitch": 32,
                "velocity": 1,
                "duration": 0.1205,
                "tempo": 120.0
            },
            {
                "pitch": 33,
                "velocity": 1,
                "duration": 0.1205,
                "tempo": 120.0
            },
            {
                "pitch": 28,
                "velocity": 1,
                "duration": 0.1114,
                "tempo": 120.0
            },
            {
                "pitch": 33,
                "velocity": 1,
                "duration": 0.1159,
                "tempo": 120.0
            },
            {
                "pitch": 31,
                "velocity": 1,
                "duration": 0.1182,
                "tempo": 120.0
            },
            {
                "pitch": 0,
                "velocity": 0,
                "duration": 0.1091,
                "tempo": 0
            },
            {
                "pitch": 30,
                "velocity": 1,
                "duration": 0.1182,
                "tempo": 120.0
            },
            {
                "pitch": 31,
                "velocity": 1,
                "duration": 0.1205,
                "tempo": 120.0
            },
            {
                "pitch": 33,
                "velocity": 1,
                "duration": 0.1091,
                "tempo": 120.0
            },
            {
                "pitch": 0,
                "velocity": 0,
                "duration": 0.1205,
                "tempo": 0
            },
            {
                "pitch": 36,
                "velocity": 1,
                "duration": 0.1205,
                "tempo": 120.0
            },
            {
                "pitch": 35,
                "velocity": 1,
                "duration": 0.1114,
                "tempo": 120.0
            },
            {
                "pitch": 31,
                "velocity": 1,
                "duration": 0.1205,
                "tempo": 120.0
            },
            {
                "pitch": 29,
                "velocity": 1,
                "duration": 0.1205,
                "tempo": 120.0
            },
            {
                "pitch": 26,
                "velocity": 1,
                "duration": 0.1114,
                "tempo": 120.0
            },
            {
                "pitch": 31,
                "velocity": 1,
                "duration": 0.1182,
                "tempo": 120.0
            },
            {
                "pitch": 32,
                "velocity": 1,
                "duration": 0.1182,
                "tempo": 120.0
            },
            {
                "pitch": 33,
                "velocity": 1,
                "duration": 0.1068,
                "tempo": 120.0
            },
            {
                "pitch": 28,
                "velocity": 1,
                "duration": 0.1182,
                "tempo": 120.0
            },
            {
                "pitch": 33,
                "velocity": 1,
                "duration": 0.1205,
                "tempo": 120.0
            },
            {
                "pitch": 31,
                "velocity": 1,
                "duration": 0.1114,
                "tempo": 120.0
            },
            {
                "pitch": 0,
                "velocity": 0,
                "duration": 0.1205,
                "tempo": 0
            },
            {
                "pitch": 29,
                "velocity": 1,
                "duration": 0.1205,
                "tempo": 120.0
            },
            {
                "pitch": 31,
                "velocity": 1,
                "duration": 0.1091,
                "tempo": 120.0
            },
            {
                "pitch": 33,
                "velocity": 1,
                "duration": 0.1227,
                "tempo": 120.0
            },
            {
                "pitch": 0,
                "velocity": 0,
                "duration": 0.1205,
                "tempo": 0
            },
            {
                "pitch": 36,
                "velocity": 1,
                "duration": 0.1091,
                "tempo": 120.0
            },
            {
                "pitch": 35,
                "velocity": 1,
                "duration": 0.1182,
                "tempo": 120.0
            },
            {
                "pitch": 31,
                "velocity": 1,
                "duration": 0.1182,
                "tempo": 120.0
            },
            {
                "pitch": 29,
                "velocity": 1,
                "duration": 0.1068,
                "tempo": 120.0
            },
            {
                "pitch": 26,
                "velocity": 1,
                "duration": 0.1182,
                "tempo": 120.0
            },
            {
                "pitch": 31,
                "velocity": 1,
                "duration": 0.1205,
                "tempo": 120.0
            },
            {
                "pitch": 32,
                "velocity": 1,
                "duration": 0.1114,
                "tempo": 120.0
            },
            {
                "pitch": 33,
                "velocity": 1,
                "duration": 0.1205,
                "tempo": 120.0
            },
            {
                "pitch": 28,
                "velocity": 1,
                "duration": 0.1205,
                "tempo": 120.0
            },
            {
                "pitch": 33,
                "velocity": 1,
                "duration": 0.1114,
                "tempo": 120.0
            },
            {
                "pitch": 31,
                "velocity": 1,
                "duration": 0.1205,
                "tempo": 120.0
            },
            {
                "pitch": 0,
                "velocity": 0,
                "duration": 0.1205,
                "tempo": 0
            },
            {
                "pitch": 30,
                "velocity": 1,
                "duration": 0.1114,
                "tempo": 120.0
            },
            {
                "pitch": 31,
                "velocity": 1,
                "duration": 0.1159,
                "tempo": 120.0
            },
            {
                "pitch": 33,
                "velocity": 1,
                "duration": 0.1182,
                "tempo": 120.0
            },
            {
                "pitch": 0,
                "velocity": 0,
                "duration": 0.1091,
                "tempo": 0
            },
            {
                "pitch": 36,
                "velocity": 1,
                "duration": 0.1182,
                "tempo": 120.0
            },
            {
                "pitch": 35,
                "velocity": 1,
                "duration": 0.1205,
                "tempo": 120.0
            },
            {
                "pitch": 31,
                "velocity": 1,
                "duration": 0.1091,
                "tempo": 120.0
            },
            {
                "pitch": 29,
                "velocity": 1,
                "duration": 0.1205,
                "tempo": 120.0
            },
            {
                "pitch": 26,
                "velocity": 1,
                "duration": 0.1205,
                "tempo": 120.0
            },
            {
                "pitch": 31,
                "velocity": 1,
                "duration": 0.1114,
                "tempo": 120.0
            },
            {
                "pitch": 32,
                "velocity": 1,
                "duration": 0.1205,
                "tempo": 120.0
            },
            {
                "pitch": 45,
                "velocity": 1,
                "duration": 0.1205,
                "tempo": 120.0
            },
            {
                "pitch": 29,
                "velocity": 1,
                "duration": 0.1114,
                "tempo": 120.0
            },
            {
                "pitch": 29,
                "velocity": 1,
                "duration": 0.1182,
                "tempo": 120.0
            },
            {
                "pitch": 29,
                "velocity": 1,
                "duration": 0.1182,
                "tempo": 120.0
            },
            {
                "pitch": 0,
                "velocity": 0,
                "duration": 0.1068,
                "tempo": 0
            },
            {
                "pitch": 29,
                "velocity": 1,
                "duration": 0.1182,
                "tempo": 120.0
            },
            {
                "pitch": 29,
                "velocity": 1,
                "duration": 0.1205,
                "tempo": 120.0
            },
            {
                "pitch": 29,
                "velocity": 1,
                "duration": 0.1114,
                "tempo": 120.0
            },
            {
                "pitch": 48,
                "velocity": 1,
                "duration": 0.1205,
                "tempo": 120.0
            },
            {
                "pitch": 29,
                "velocity": 1,
                "duration": 0.1205,
                "tempo": 120.0
            },
            {
                "pitch": 29,
                "velocity": 1,
                "duration": 0.1091,
                "tempo": 120.0
            },
            {
                "pitch": 29,
                "velocity": 1,
                "duration": 0.1205,
                "tempo": 120.0
            },
            {
                "pitch": 47,
                "velocity": 1,
                "duration": 0.1227,
                "tempo": 120.0
            },
            {
                "pitch": 29,
                "velocity": 1,
                "duration": 0.1091,
                "tempo": 120.0
            },
            {
                "pitch": 48,
                "velocity": 1,
                "duration": 0.1182,
                "tempo": 120.0
            },
            {
                "pitch": 29,
                "velocity": 1,
                "duration": 0.1182,
                "tempo": 120.0
            },
            {
                "pitch": 50,
                "velocity": 1,
                "duration": 0.1068,
                "tempo": 120.0
            },
            {
                "pitch": 29,
                "velocity": 1,
                "duration": 0.1182,
                "tempo": 120.0
            },
            {
                "pitch": 29,
                "velocity": 1,
                "duration": 0.1205,
                "tempo": 120.0
            },
            {
                "pitch": 29,
                "velocity": 1,
                "duration": 0.1114,
                "tempo": 120.0
            },
            {
                "pitch": 48,
                "velocity": 1,
                "duration": 0.1205,
                "tempo": 120.0
            },
            {
                "pitch": 29,
                "velocity": 1,
                "duration": 0.1205,
                "tempo": 120.0
            },
            {
                "pitch": 29,
                "velocity": 1,
                "duration": 0.1114,
                "tempo": 120.0
            },
            {
                "pitch": 29,
                "velocity": 1,
                "duration": 0.1205,
                "tempo": 120.0
            },
            {
                "pitch": 47,
                "velocity": 1,
                "duration": 0.1205,
                "tempo": 120.0
            },
            {
                "pitch": 29,
                "velocity": 1,
                "duration": 0.1091,
                "tempo": 120.0
            },
            {
                "pitch": 45,
                "velocity": 1,
                "duration": 0.1182,
                "tempo": 120.0
            },
            {
                "pitch": 29,
                "velocity": 1,
                "duration": 0.1182,
                "tempo": 120.0
            },
            {
                "pitch": 29,
                "velocity": 1,
                "duration": 0.1091,
                "tempo": 120.0
            },
            {
                "pitch": 29,
                "velocity": 1,
                "duration": 0.1182,
                "tempo": 120.0
            },
            {
                "pitch": 48,
                "velocity": 1,
                "duration": 0.1205,
                "tempo": 120.0
            },
            {
                "pitch": 29,
                "velocity": 1,
                "duration": 0.1091,
                "tempo": 120.0
            },
            {
                "pitch": 0,
                "velocity": 0,
                "duration": 0.0114,
                "tempo": 0
            },
            {
                "pitch": 45,
                "velocity": 1,
                "duration": 0.1091,
                "tempo": 120.0
            },
            {
                "pitch": 33,
                "velocity": 1,
                "duration": 0.1205,
                "tempo": 120.0
            },
            {
                "pitch": 33,
                "velocity": 1,
                "duration": 0.1114,
                "tempo": 120.0
            },
            {
                "pitch": 33,
                "velocity": 1,
                "duration": 0.1205,
                "tempo": 120.0
            },
            {
                "pitch": 45,
                "velocity": 1,
                "duration": 0.1205,
                "tempo": 120.0
            },
            {
                "pitch": 33,
                "velocity": 1,
                "duration": 0.1114,
                "tempo": 120.0
            },
            {
                "pitch": 33,
                "velocity": 1,
                "duration": 0.1182,
                "tempo": 120.0
            },
            {
                "pitch": 33,
                "velocity": 1,
                "duration": 0.1159,
                "tempo": 120.0
            },
            {
                "pitch": 45,
                "velocity": 1,
                "duration": 0.1091,
                "tempo": 120.0
            },
            {
                "pitch": 33,
                "velocity": 1,
                "duration": 0.1182,
                "tempo": 120.0
            },
            {
                "pitch": 33,
                "velocity": 1,
                "duration": 0.1205,
                "tempo": 120.0
            },
            {
                "pitch": 45,
                "velocity": 1,
                "duration": 0.1114,
                "tempo": 120.0
            },
            {
                "pitch": 0,
                "velocity": 0,
                "duration": 0.1205,
                "tempo": 0
            },
            {
                "pitch": 33,
                "velocity": 1,
                "duration": 0.1205,
                "tempo": 120.0
            },
            {
                "pitch": 0,
                "velocity": 0,
                "duration": 0.1091,
                "tempo": 0
            },
            {
                "pitch": 33,
                "velocity": 1,
                "duration": 0.1205,
                "tempo": 120.0
            },
            {
                "pitch": 45,
                "velocity": 1,
                "duration": 0.1205,
                "tempo": 120.0
            },
            {
                "pitch": 33,
                "velocity": 1,
                "duration": 0.1114,
                "tempo": 120.0
            },
            {
                "pitch": 33,
                "velocity": 1,
                "duration": 0.1182,
                "tempo": 120.0
            },
            {
                "pitch": 33,
                "velocity": 1,
                "duration": 0.1182,
                "tempo": 120.0
            },
            {
                "pitch": 45,
                "velocity": 1,
                "duration": 0.1068,
                "tempo": 120.0
            },
            {
                "pitch": 33,
                "velocity": 1,
                "duration": 0.1182,
                "tempo": 120.0
            },
            {
                "pitch": 33,
                "velocity": 1,
                "duration": 0.1205,
                "tempo": 120.0
            },
            {
                "pitch": 33,
                "velocity": 1,
                "duration": 0.1114,
                "tempo": 120.0
            },
            {
                "pitch": 45,
                "velocity": 1,
                "duration": 0.1205,
                "tempo": 120.0
            },
            {
                "pitch": 33,
                "velocity": 1,
                "duration": 0.1205,
                "tempo": 120.0
            },
            {
                "pitch": 33,
                "velocity": 1,
                "duration": 0.1114,
                "tempo": 120.0
            },
            {
                "pitch": 45,
                "velocity": 1,
                "duration": 0.1205,
                "tempo": 120.0
            },
            {
                "pitch": 0,
                "velocity": 0,
                "duration": 0.1205,
                "tempo": 0
            },
            {
                "pitch": 33,
                "velocity": 1,
                "duration": 0.1091,
                "tempo": 120.0
            },
            {
                "pitch": 0,
                "velocity": 0,
                "duration": 0.1182,
                "tempo": 0
            },
            {
                "pitch": 33,
                "velocity": 1,
                "duration": 0.1182,
                "tempo": 120.0
            },
            {
                "pitch": 45,
                "velocity": 1,
                "duration": 0.1091,
                "tempo": 120.0
            },
            {
                "pitch": 29,
                "velocity": 1,
                "duration": 0.1159,
                "tempo": 120.0
            },
            {
                "pitch": 29,
                "velocity": 1,
                "duration": 0.1227,
                "tempo": 120.0
            },
            {
                "pitch": 29,
                "velocity": 1,
                "duration": 0.1091,
                "tempo": 120.0
            },
            {
                "pitch": 0,
                "velocity": 0,
                "duration": 0.1205,
                "tempo": 0
            },
            {
                "pitch": 29,
                "velocity": 1,
                "duration": 0.1205,
                "tempo": 120.0
            },
            {
                "pitch": 29,
                "velocity": 1,
                "duration": 0.1114,
                "tempo": 120.0
            },
            {
                "pitch": 29,
                "velocity": 1,
                "duration": 0.1205,
                "tempo": 120.0
            },
            {
                "pitch": 48,
                "velocity": 1,
                "duration": 0.1205,
                "tempo": 120.0
            },
            {
                "pitch": 29,
                "velocity": 1,
                "duration": 0.1114,
                "tempo": 120.0
            },
            {
                "pitch": 29,
                "velocity": 1,
                "duration": 0.1182,
                "tempo": 120.0
            },
            {
                "pitch": 29,
                "velocity": 1,
                "duration": 0.1159,
                "tempo": 120.0
            },
            {
                "pitch": 47,
                "velocity": 1,
                "duration": 0.1091,
                "tempo": 120.0
            },
            {
                "pitch": 29,
                "velocity": 1,
                "duration": 0.1182,
                "tempo": 120.0
            },
            {
                "pitch": 48,
                "velocity": 1,
                "duration": 0.1205,
                "tempo": 120.0
            },
            {
                "pitch": 29,
                "velocity": 1,
                "duration": 0.1091,
                "tempo": 120.0
            },
            {
                "pitch": 50,
                "velocity": 1,
                "duration": 0.1227,
                "tempo": 120.0
            },
            {
                "pitch": 29,
                "velocity": 1,
                "duration": 0.1205,
                "tempo": 120.0
            },
            {
                "pitch": 29,
                "velocity": 1,
                "duration": 0.1091,
                "tempo": 120.0
            },
            {
                "pitch": 29,
                "velocity": 1,
                "duration": 0.1205,
                "tempo": 120.0
            },
            {
                "pitch": 48,
                "velocity": 1,
                "duration": 0.1205,
                "tempo": 120.0
            },
            {
                "pitch": 29,
                "velocity": 1,
                "duration": 0.1114,
                "tempo": 120.0
            },
            {
                "pitch": 29,
                "velocity": 1,
                "duration": 0.1182,
                "tempo": 120.0
            },
            {
                "pitch": 29,
                "velocity": 1,
                "duration": 0.1182,
                "tempo": 120.0
            },
            {
                "pitch": 47,
                "velocity": 1,
                "duration": 0.1068,
                "tempo": 120.0
            },
            {
                "pitch": 29,
                "velocity": 1,
                "duration": 0.1182,
                "tempo": 120.0
            },
            {
                "pitch": 45,
                "velocity": 1,
                "duration": 0.1205,
                "tempo": 120.0
            },
            {
                "pitch": 29,
                "velocity": 1,
                "duration": 0.1114,
                "tempo": 120.0
            },
            {
                "pitch": 29,
                "velocity": 1,
                "duration": 0.1205,
                "tempo": 120.0
            },
            {
                "pitch": 29,
                "velocity": 1,
                "duration": 0.1205,
                "tempo": 120.0
            },
            {
                "pitch": 48,
                "velocity": 1,
                "duration": 0.1114,
                "tempo": 120.0
            },
            {
                "pitch": 29,
                "velocity": 1,
                "duration": 0.1205,
                "tempo": 120.0
            },
            {
                "pitch": 35,
                "velocity": 1,
                "duration": 0.1205,
                "tempo": 120.0
            },
            {
                "pitch": 30,
                "velocity": 1,
                "duration": 0.1091,
                "tempo": 120.0
            },
            {
                "pitch": 33,
                "velocity": 1,
                "duration": 0.1182,
                "tempo": 120.0
            },
            {
                "pitch": 35,
                "velocity": 1,
                "duration": 0.1182,
                "tempo": 120.0
            },
            {
                "pitch": 0,
                "velocity": 0,
                "duration": 0.1091,
                "tempo": 0
            },
            {
                "pitch": 35,
                "velocity": 1,
                "duration": 0.1159,
                "tempo": 120.0
            },
            {
                "pitch": 30,
                "velocity": 1,
                "duration": 0.1205,
                "tempo": 120.0
            },
            {
                "pitch": 33,
                "velocity": 1,
                "duration": 0.1114,
                "tempo": 120.0
            },
            {
                "pitch": 35,
                "velocity": 1,
                "duration": 0.1205,
                "tempo": 120.0
            },
            {
                "pitch": 0,
                "velocity": 0,
                "duration": 0.1205,
                "tempo": 0
            },
            {
                "pitch": 35,
                "velocity": 1,
                "duration": 0.1114,
                "tempo": 120.0
            },
            {
                "pitch": 0,
                "velocity": 0,
                "duration": 0.1205,
                "tempo": 0
            },
            {
                "pitch": 35,
                "velocity": 1,
                "duration": 0.1205,
                "tempo": 120.0
            },
            {
                "pitch": 35,
                "velocity": 1,
                "duration": 0.2273,
                "tempo": 120.0
            },
            {
                "pitch": 35,
                "velocity": 1,
                "duration": 0.1182,
                "tempo": 120.0
            },
            {
                "pitch": 35,
                "velocity": 1,
                "duration": 0.1091,
                "tempo": 120.0
            },
            {
                "pitch": 35,
                "velocity": 1,
                "duration": 0.1182,
                "tempo": 120.0
            },
            {
                "pitch": 35,
                "velocity": 1,
                "duration": 0.1205,
                "tempo": 120.0
            },
            {
                "pitch": 35,
                "velocity": 1,
                "duration": 0.1091,
                "tempo": 120.0
            },
            {
                "pitch": 35,
                "velocity": 1,
                "duration": 0.1205,
                "tempo": 120.0
            },
            {
                "pitch": 35,
                "velocity": 1,
                "duration": 0.1227,
                "tempo": 120.0
            },
            {
                "pitch": 35,
                "velocity": 1,
                "duration": 0.1091,
                "tempo": 120.0
            },
            {
                "pitch": 33,
                "velocity": 1,
                "duration": 0.1205,
                "tempo": 120.0
            },
            {
                "pitch": 32,
                "velocity": 1,
                "duration": 0.1205,
                "tempo": 120.0
            },
            {
                "pitch": 29,
                "velocity": 1,
                "duration": 0.1114,
                "tempo": 120.0
            },
            {
                "pitch": 28,
                "velocity": 1,
                "duration": 0.1182,
                "tempo": 120.0
            },
            {
                "pitch": 26,
                "velocity": 1,
                "duration": 0.1182,
                "tempo": 120.0
            },
            {
                "pitch": 23,
                "velocity": 1,
                "duration": 0.1068,
                "tempo": 120.0
            },
            {
                "pitch": 0,
                "velocity": 0,
                "duration": 0.1182,
                "tempo": 0
            },
            {
                "pitch": 28,
                "velocity": 1,
                "duration": 0.2318,
                "tempo": 120.0
            }
        ],
        "Acoustic Grand Piano": [
            {
                "pitch": 0,
                "velocity": 0,
                "duration": 22.3023,
                "tempo": 0
            },
            {
                "pitch": 108,
                "velocity": 15,
                "duration": 0.1,
                "tempo": 120.0
            }
        ]
    }
}