{
    "track_id": "06 Crisis Area_13",
    "mood": "angry",
    "instruments": {
        "Lead 1 (square)": [
            {
                "pitch": 33,
                "velocity": 7,
                "duration": 0.6886,
                "tempo": 120.0
            },
            {
                "pitch": 38,
                "velocity": 7,
                "duration": 0.5114,
                "tempo": 120.0
            },
            {
                "pitch": 0,
                "velocity": 0,
                "duration": 0.0023,
                "tempo": 0
            },
            {
                "pitch": 33,
                "velocity": 7,
                "duration": 4.2273,
                "tempo": 120.0
            },
            {
                "pitch": 0,
                "velocity": 0,
                "duration": 0.0023,
                "tempo": 0
            },
            {
                "pitch": 33,
                "velocity": 8,
                "duration": 0.6886,
                "tempo": 120.0
            },
            {
                "pitch": 39,
                "velocity": 8,
                "duration": 0.5068,
                "tempo": 120.0
            },
            {
                "pitch": 33,
                "velocity": 8,
                "duration": 4.225,
                "tempo": 120.0
            },
            {
                "pitch": 33,
                "velocity": 8,
                "duration": 0.6795,
                "tempo": 120.0
            },
            {
                "pitch": 38,
                "velocity": 8,
                "duration": 0.5114,
                "tempo": 120.0
            },
            {
                "pitch": 33,
                "velocity": 8,
                "duration": 4.2295,
                "tempo": 120.0
            },
            {
                "pitch": 33,
                "velocity": 8,
                "duration": 0.6795,
                "tempo": 120.0
            },
            {
                "pitch": 39,
                "velocity": 8,
                "duration": 0.5114,
                "tempo": 120.0
            },
            {
                "pitch": 33,
                "velocity": 8,
                "duration": 4.2295,
                "tempo": 120.0
            },
            {
                "pitch": 0,
                "velocity": 0,
                "duration": 0.0023,
                "tempo": 0
            },
            {
                "pitch": 33,
                "velocity": 8,
                "duration": 0.6795,
                "tempo": 120.0
            },
            {
                "pitch": 38,
                "velocity": 8,
                "duration": 0.5114,
                "tempo": 120.0
            },
            {
                "pitch": 33,
                "velocity": 8,
                "duration": 4.2295,
                "tempo": 120.0
            },
            {
                "pitch": 33,
                "velocity": 8,
                "duration": 0.6795,
                "tempo": 120.0
            },
            {
                "pitch": 39,
                "velocity": 8,
                "duration": 0.5136,
                "tempo": 120.0
            },
            {
                "pitch": 33,
                "velocity": 8,
                "duration": 4.2295,
                "tempo": 120.0
            },
            {
                "pitch": 33,
                "velocity": 8,
                "duration": 0.6886,
                "tempo": 120.0
            },
            {
                "pitch": 38,
                "velocity": 8,
                "duration": 0.5068,
                "tempo": 120.0
            },
            {
                "pitch": 0,
                "velocity": 0,
                "duration": 0.0023,
                "tempo": 0
            },
            {
                "pitch": 33,
                "velocity": 8,
                "duration": 4.2318,
                "tempo": 120.0
            },
            {
                "pitch": 33,
                "velocity": 8,
                "duration": 0.6705,
                "tempo": 120.0
            },
            {
                "pitch": 39,
                "velocity": 8,
                "duration": 0.5159,
                "tempo": 120.0
            },
            {
                "pitch": 0,
                "velocity": 0,
                "duration": 0.0023,
                "tempo": 0
            },
            {
                "pitch": 33,
                "velocity": 8,
                "duration": 4.2341,
                "tempo": 120.0
            },
            {
                "pitch": 33,
                "velocity": 8,
                "duration": 0.6705,
                "tempo": 120.0
            },
            {
                "pitch": 38,
                "velocity": 8,
                "duration": 0.5068,
                "tempo": 120.0
            },
            {
                "pitch": 33,
                "velocity": 8,
                "duration": 4.2318,
                "tempo": 120.0
            },
            {
                "pitch": 33,
                "velocity": 8,
                "duration": 0.6795,
                "tempo": 120.0
            },
            {
                "pitch": 39,
                "velocity": 8,
                "duration": 0.5136,
                "tempo": 120.0
            },
            {
                "pitch": 33,
                "velocity": 8,
                "duration": 4.2273,
                "tempo": 120.0
            },
            {
                "pitch": 0,
                "velocity": 0,
                "duration": 10.8545,
                "tempo": 0
            },
            {
                "pitch": 34,
                "velocity": 10,
                "duration": 5.4205,
                "tempo": 120.0
            },
            {
                "pitch": 0,
                "velocity": 0,
                "duration": 2.7114,
                "tempo": 0
            },
            {
                "pitch": 33,
                "velocity": 10,
                "duration": 2.7114,
                "tempo": 120.0
            },
            {
                "pitch": 0,
                "velocity": 0,
                "duration": 10.8432,
                "tempo": 0
            },
            {
                "pitch": 34,
                "velocity": 10,
                "duration": 5.4205,
                "tempo": 120.0
            },
            {
                "pitch": 0,
                "velocity": 0,
                "duration": 2.7114,
                "tempo": 0
            },
            {
                "pitch": 33,
                "velocity": 10,
                "duration": 2.7114,
                "tempo": 120.0
            },
            {
                "pitch": 0,
                "velocity": 0,
                "duration": 10.8455,
                "tempo": 0
            },
            {
                "pitch": 33,
                "velocity": 7,
                "duration": 0.6773,
                "tempo": 120.0
            },
            {
                "pitch": 0,
                "velocity": 0,
                "duration": 0.0023,
                "tempo": 0
            },
            {
                "pitch": 38,
                "velocity": 7,
                "duration": 0.5114,
                "tempo": 120.0
            },
            {
                "pitch": 33,
                "velocity": 7,
                "duration": 4.2295,
                "tempo": 120.0
            },
            {
                "pitch": 33,
                "velocity": 8,
                "duration": 0.6795,
                "tempo": 120.0
            },
            {
                "pitch": 39,
                "velocity": 8,
                "duration": 0.5136,
                "tempo": 120.0
            },
            {
                "pitch": 33,
                "velocity": 8,
                "duration": 4.2273,
                "tempo": 120.0
            },
            {
                "pitch": 33,
                "velocity": 8,
                "duration": 0.6705,
                "tempo": 120.0
            },
            {
                "pitch": 38,
                "velocity": 8,
                "duration": 0.5114,
                "tempo": 120.0
            },
            {
                "pitch": 0,
                "velocity": 0,
                "duration": 0.0023,
                "tempo": 0
            },
            {
                "pitch": 33,
                "velocity": 8,
                "duration": 4.2364,
                "tempo": 120.0
            },
            {
                "pitch": 33,
                "velocity": 8,
                "duration": 0.6705,
                "tempo": 120.0
            },
            {
                "pitch": 39,
                "velocity": 8,
                "duration": 0.5159,
                "tempo": 120.0
            },
            {
                "pitch": 33,
                "velocity": 8,
                "duration": 4.2341,
                "tempo": 120.0
            },
            {
                "pitch": 33,
                "velocity": 8,
                "duration": 0.6795,
                "tempo": 120.0
            },
            {
                "pitch": 38,
                "velocity": 8,
                "duration": 0.5136,
                "tempo": 120.0
            },
            {
                "pitch": 33,
                "velocity": 8,
                "duration": 4.2295,
                "tempo": 120.0
            },
            {
                "pitch": 33,
                "velocity": 8,
                "duration": 0.6795,
                "tempo": 120.0
            },
            {
                "pitch": 39,
                "velocity": 8,
                "duration": 0.5068,
                "tempo": 120.0
            },
            {
                "pitch": 0,
                "velocity": 0,
                "duration": 0.0023,
                "tempo": 0
            },
            {
                "pitch": 33,
                "velocity": 8,
                "duration": 4.2318,
                "tempo": 120.0
            },
            {
                "pitch": 33,
                "velocity": 8,
                "duration": 0.6795,
                "tempo": 120.0
            },
            {
                "pitch": 38,
                "velocity": 8,
                "duration": 0.5136,
                "tempo": 120.0
            },
            {
                "pitch": 33,
                "velocity": 8,
                "duration": 4.2273,
                "tempo": 120.0
            },
            {
                "pitch": 33,
                "velocity": 8,
                "duration": 0.6795,
                "tempo": 120.0
            },
            {
                "pitch": 39,
                "velocity": 8,
                "duration": 0.5136,
                "tempo": 120.0
            },
            {
                "pitch": 33,
                "velocity": 8,
                "duration": 4.2295,
                "tempo": 120.0
            },
            {
                "pitch": 33,
                "velocity": 8,
                "duration": 0.6705,
                "tempo": 120.0
            },
            {
                "pitch": 38,
                "velocity": 8,
                "duration": 0.5114,
                "tempo": 120.0
            },
            {
                "pitch": 33,
                "velocity": 8,
                "duration": 4.2364,
                "tempo": 120.0
            },
            {
                "pitch": 33,
                "velocity": 8,
                "duration": 0.6795,
                "tempo": 120.0
            },
            {
                "pitch": 39,
                "velocity": 8,
                "duration": 0.5136,
                "tempo": 120.0
            },
            {
                "pitch": 33,
                "velocity": 8,
                "duration": 4.2295,
                "tempo": 120.0
            }
        ],
        "Lead 2 (sawtooth)": [
            {
                "pitch": 0,
                "velocity": 0,
                "duration": 59.6545,
                "tempo": 0
            },
            {
                "pitch": 81,
                "velocity": 7,
                "duration": 0.0477,
                "tempo": 120.0
            },
            {
                "pitch": 0,
                "velocity": 0,
                "duration": 0.1182,
                "tempo": 0
            },
            {
                "pitch": 74,
                "velocity": 7,
                "duration": 0.05,
                "tempo": 120.0
            },
            {
                "pitch": 0,
                "velocity": 0,
                "duration": 0.1182,
                "tempo": 0
            },
            {
                "pitch": 74,
                "velocity": 4,
                "duration": 0.05,
                "tempo": 120.0
            },
            {
                "pitch": 0,
                "velocity": 0,
                "duration": 0.1205,
                "tempo": 0
            },
            {
                "pitch": 74,
                "velocity": 7,
                "duration": 0.0523,
                "tempo": 120.0
            },
            {
                "pitch": 0,
                "velocity": 0,
                "duration": 0.1205,
                "tempo": 0
            },
            {
                "pitch": 79,
                "velocity": 7,
                "duration": 0.05,
                "tempo": 120.0
            },
            {
                "pitch": 0,
                "velocity": 0,
                "duration": 0.1182,
                "tempo": 0
            },
            {
                "pitch": 74,
                "velocity": 7,
                "duration": 0.05,
                "tempo": 120.0
            },
            {
                "pitch": 0,
                "velocity": 0,
                "duration": 0.1182,
                "tempo": 0
            },
            {
                "pitch": 74,
                "velocity": 4,
                "duration": 0.05,
                "tempo": 120.0
            },
            {
                "pitch": 0,
                "velocity": 0,
                "duration": 0.1182,
                "tempo": 0
            },
            {
                "pitch": 74,
                "velocity": 7,
                "duration": 0.0477,
                "tempo": 120.0
            },
            {
                "pitch": 0,
                "velocity": 0,
                "duration": 0.1182,
                "tempo": 0
            },
            {
                "pitch": 77,
                "velocity": 7,
                "duration": 0.0523,
                "tempo": 120.0
            },
            {
                "pitch": 0,
                "velocity": 0,
                "duration": 0.1205,
                "tempo": 0
            },
            {
                "pitch": 74,
                "velocity": 7,
                "duration": 0.0523,
                "tempo": 120.0
            },
            {
                "pitch": 0,
                "velocity": 0,
                "duration": 0.1205,
                "tempo": 0
            },
            {
                "pitch": 76,
                "velocity": 7,
                "duration": 0.05,
                "tempo": 120.0
            },
            {
                "pitch": 0,
                "velocity": 0,
                "duration": 0.1182,
                "tempo": 0
            },
            {
                "pitch": 76,
                "velocity": 5,
                "duration": 0.05,
                "tempo": 120.0
            },
            {
                "pitch": 0,
                "velocity": 0,
                "duration": 0.1182,
                "tempo": 0
            },
            {
                "pitch": 74,
                "velocity": 5,
                "duration": 0.0477,
                "tempo": 120.0
            },
            {
                "pitch": 0,
                "velocity": 0,
                "duration": 0.1182,
                "tempo": 0
            },
            {
                "pitch": 74,
                "velocity": 4,
                "duration": 0.05,
                "tempo": 120.0
            },
            {
                "pitch": 0,
                "velocity": 0,
                "duration": 2.1591,
                "tempo": 0
            },
            {
                "pitch": 74,
                "velocity": 5,
                "duration": 0.3364,
                "tempo": 120.0
            },
            {
                "pitch": 77,
                "velocity": 5,
                "duration": 0.3341,
                "tempo": 120.0
            },
            {
                "pitch": 79,
                "velocity": 5,
                "duration": 0.3477,
                "tempo": 120.0
            },
            {
                "pitch": 81,
                "velocity": 7,
                "duration": 0.0477,
                "tempo": 120.0
            },
            {
                "pitch": 0,
                "velocity": 0,
                "duration": 0.1159,
                "tempo": 0
            },
            {
                "pitch": 76,
                "velocity": 7,
                "duration": 0.05,
                "tempo": 120.0
            },
            {
                "pitch": 0,
                "velocity": 0,
                "duration": 0.1182,
                "tempo": 0
            },
            {
                "pitch": 76,
                "velocity": 4,
                "duration": 0.05,
                "tempo": 120.0
            },
            {
                "pitch": 0,
                "velocity": 0,
                "duration": 0.1182,
                "tempo": 0
            },
            {
                "pitch": 76,
                "velocity": 7,
                "duration": 0.05,
                "tempo": 120.0
            },
            {
                "pitch": 0,
                "velocity": 0,
                "duration": 0.1182,
                "tempo": 0
            },
            {
                "pitch": 79,
                "velocity": 7,
                "duration": 0.05,
                "tempo": 120.0
            },
            {
                "pitch": 0,
                "velocity": 0,
                "duration": 0.1227,
                "tempo": 0
            },
            {
                "pitch": 76,
                "velocity": 7,
                "duration": 0.05,
                "tempo": 120.0
            },
            {
                "pitch": 0,
                "velocity": 0,
                "duration": 0.1227,
                "tempo": 0
            },
            {
                "pitch": 76,
                "velocity": 4,
                "duration": 0.0477,
                "tempo": 120.0
            },
            {
                "pitch": 0,
                "velocity": 0,
                "duration": 0.1182,
                "tempo": 0
            },
            {
                "pitch": 76,
                "velocity": 7,
                "duration": 0.05,
                "tempo": 120.0
            },
            {
                "pitch": 0,
                "velocity": 0,
                "duration": 0.1182,
                "tempo": 0
            },
            {
                "pitch": 77,
                "velocity": 7,
                "duration": 0.05,
                "tempo": 120.0
            },
            {
                "pitch": 0,
                "velocity": 0,
                "duration": 0.1182,
                "tempo": 0
            },
            {
                "pitch": 76,
                "velocity": 7,
                "duration": 0.05,
                "tempo": 120.0
            },
            {
                "pitch": 0,
                "velocity": 0,
                "duration": 0.1182,
                "tempo": 0
            },
            {
                "pitch": 77,
                "velocity": 7,
                "duration": 0.05,
                "tempo": 120.0
            },
            {
                "pitch": 0,
                "velocity": 0,
                "duration": 0.1205,
                "tempo": 0
            },
            {
                "pitch": 77,
                "velocity": 5,
                "duration": 0.0523,
                "tempo": 120.0
            },
            {
                "pitch": 0,
                "velocity": 0,
                "duration": 0.1205,
                "tempo": 0
            },
            {
                "pitch": 76,
                "velocity": 5,
                "duration": 0.05,
                "tempo": 120.0
            },
            {
                "pitch": 0,
                "velocity": 0,
                "duration": 0.1182,
                "tempo": 0
            },
            {
                "pitch": 76,
                "velocity": 4,
                "duration": 0.05,
                "tempo": 120.0
            },
            {
                "pitch": 0,
                "velocity": 0,
                "duration": 2.1591,
                "tempo": 0
            },
            {
                "pitch": 76,
                "velocity": 5,
                "duration": 0.3341,
                "tempo": 120.0
            },
            {
                "pitch": 77,
                "velocity": 5,
                "duration": 0.3364,
                "tempo": 120.0
            },
            {
                "pitch": 79,
                "velocity": 5,
                "duration": 0.3455,
                "tempo": 120.0
            },
            {
                "pitch": 0,
                "velocity": 0,
                "duration": 0.0023,
                "tempo": 0
            },
            {
                "pitch": 81,
                "velocity": 7,
                "duration": 0.0455,
                "tempo": 120.0
            },
            {
                "pitch": 0,
                "velocity": 0,
                "duration": 0.1182,
                "tempo": 0
            },
            {
                "pitch": 74,
                "velocity": 7,
                "duration": 0.05,
                "tempo": 120.0
            },
            {
                "pitch": 0,
                "velocity": 0,
                "duration": 0.1182,
                "tempo": 0
            },
            {
                "pitch": 74,
                "velocity": 4,
                "duration": 0.05,
                "tempo": 120.0
            },
            {
                "pitch": 0,
                "velocity": 0,
                "duration": 0.1182,
                "tempo": 0
            },
            {
                "pitch": 74,
                "velocity": 7,
                "duration": 0.0477,
                "tempo": 120.0
            },
            {
                "pitch": 0,
                "velocity": 0,
                "duration": 0.1182,
                "tempo": 0
            },
            {
                "pitch": 79,
                "velocity": 7,
                "duration": 0.0523,
                "tempo": 120.0
            },
            {
                "pitch": 0,
                "velocity": 0,
                "duration": 0.1205,
                "tempo": 0
            },
            {
                "pitch": 74,
                "velocity": 7,
                "duration": 0.0523,
                "tempo": 120.0
            },
            {
                "pitch": 0,
                "velocity": 0,
                "duration": 0.1205,
                "tempo": 0
            },
            {
                "pitch": 74,
                "velocity": 4,
                "duration": 0.05,
                "tempo": 120.0
            },
            {
                "pitch": 0,
                "velocity": 0,
                "duration": 0.1182,
                "tempo": 0
            },
            {
                "pitch": 74,
                "velocity": 7,
                "duration": 0.05,
                "tempo": 120.0
            },
            {
                "pitch": 0,
                "velocity": 0,
                "duration": 0.1182,
                "tempo": 0
            },
            {
                "pitch": 77,
                "velocity": 7,
                "duration": 0.05,
                "tempo": 120.0
            },
            {
                "pitch": 0,
                "velocity": 0,
                "duration": 0.1205,
                "tempo": 0
            },
            {
                "pitch": 74,
                "velocity": 7,
                "duration": 0.0523,
                "tempo": 120.0
            },
            {
                "pitch": 0,
                "velocity": 0,
                "duration": 0.1205,
                "tempo": 0
            },
            {
                "pitch": 76,
                "velocity": 7,
                "duration": 0.05,
                "tempo": 120.0
            },
            {
                "pitch": 0,
                "velocity": 0,
                "duration": 0.1182,
                "tempo": 0
            },
            {
                "pitch": 74,
                "velocity": 7,
                "duration": 0.05,
                "tempo": 120.0
            },
            {
                "pitch": 0,
                "velocity": 0,
                "duration": 0.1182,
                "tempo": 0
            },
            {
                "pitch": 77,
                "velocity": 7,
                "duration": 0.05,
                "tempo": 120.0
            },
            {
                "pitch": 0,
                "velocity": 0,
                "duration": 0.1182,
                "tempo": 0
            },
            {
                "pitch": 74,
                "velocity": 7,
                "duration": 0.0477,
                "tempo": 120.0
            },
            {
                "pitch": 0,
                "velocity": 0,
                "duration": 0.1182,
                "tempo": 0
            },
            {
                "pitch": 79,
                "velocity": 7,
                "duration": 0.0523,
                "tempo": 120.0
            },
            {
                "pitch": 0,
                "velocity": 0,
                "duration": 0.1205,
                "tempo": 0
            },
            {
                "pitch": 74,
                "velocity": 7,
                "duration": 0.0523,
                "tempo": 120.0
            },
            {
                "pitch": 0,
                "velocity": 0,
                "duration": 0.1227,
                "tempo": 0
            },
            {
                "pitch": 81,
                "velocity": 7,
                "duration": 0.0477,
                "tempo": 120.0
            },
            {
                "pitch": 0,
                "velocity": 0,
                "duration": 0.1182,
                "tempo": 0
            },
            {
                "pitch": 74,
                "velocity": 7,
                "duration": 0.05,
                "tempo": 120.0
            },
            {
                "pitch": 0,
                "velocity": 0,
                "duration": 0.1182,
                "tempo": 0
            },
            {
                "pitch": 74,
                "velocity": 4,
                "duration": 0.05,
                "tempo": 120.0
            },
            {
                "pitch": 0,
                "velocity": 0,
                "duration": 0.1227,
                "tempo": 0
            },
            {
                "pitch": 74,
                "velocity": 7,
                "duration": 0.05,
                "tempo": 120.0
            },
            {
                "pitch": 0,
                "velocity": 0,
                "duration": 0.1205,
                "tempo": 0
            },
            {
                "pitch": 79,
                "velocity": 7,
                "duration": 0.05,
                "tempo": 120.0
            },
            {
                "pitch": 0,
                "velocity": 0,
                "duration": 0.1182,
                "tempo": 0
            },
            {
                "pitch": 74,
                "velocity": 7,
                "duration": 0.05,
                "tempo": 120.0
            },
            {
                "pitch": 0,
                "velocity": 0,
                "duration": 0.1182,
                "tempo": 0
            },
            {
                "pitch": 74,
                "velocity": 4,
                "duration": 0.05,
                "tempo": 120.0
            },
            {
                "pitch": 0,
                "velocity": 0,
                "duration": 0.1182,
                "tempo": 0
            },
            {
                "pitch": 74,
                "velocity": 7,
                "duration": 0.05,
                "tempo": 120.0
            },
            {
                "pitch": 0,
                "velocity": 0,
                "duration": 0.1182,
                "tempo": 0
            },
            {
                "pitch": 77,
                "velocity": 7,
                "duration": 0.0477,
                "tempo": 120.0
            },
            {
                "pitch": 0,
                "velocity": 0,
                "duration": 0.1182,
                "tempo": 0
            },
            {
                "pitch": 74,
                "velocity": 7,
                "duration": 0.05,
                "tempo": 120.0
            },
            {
                "pitch": 0,
                "velocity": 0,
                "duration": 0.1182,
                "tempo": 0
            },
            {
                "pitch": 76,
                "velocity": 7,
                "duration": 0.05,
                "tempo": 120.0
            },
            {
                "pitch": 0,
                "velocity": 0,
                "duration": 0.1227,
                "tempo": 0
            },
            {
                "pitch": 74,
                "velocity": 7,
                "duration": 0.05,
                "tempo": 120.0
            },
            {
                "pitch": 0,
                "velocity": 0,
                "duration": 0.1227,
                "tempo": 0
            },
            {
                "pitch": 77,
                "velocity": 7,
                "duration": 0.05,
                "tempo": 120.0
            },
            {
                "pitch": 0,
                "velocity": 0,
                "duration": 0.1159,
                "tempo": 0
            },
            {
                "pitch": 74,
                "velocity": 7,
                "duration": 0.05,
                "tempo": 120.0
            },
            {
                "pitch": 0,
                "velocity": 0,
                "duration": 0.1182,
                "tempo": 0
            },
            {
                "pitch": 79,
                "velocity": 7,
                "duration": 0.0523,
                "tempo": 120.0
            },
            {
                "pitch": 0,
                "velocity": 0,
                "duration": 0.1205,
                "tempo": 0
            },
            {
                "pitch": 74,
                "velocity": 7,
                "duration": 0.0523,
                "tempo": 120.0
            },
            {
                "pitch": 0,
                "velocity": 0,
                "duration": 0.1227,
                "tempo": 0
            },
            {
                "pitch": 81,
                "velocity": 7,
                "duration": 0.0477,
                "tempo": 120.0
            },
            {
                "pitch": 0,
                "velocity": 0,
                "duration": 0.1182,
                "tempo": 0
            },
            {
                "pitch": 74,
                "velocity": 7,
                "duration": 0.05,
                "tempo": 120.0
            },
            {
                "pitch": 0,
                "velocity": 0,
                "duration": 0.1182,
                "tempo": 0
            },
            {
                "pitch": 74,
                "velocity": 4,
                "duration": 0.05,
                "tempo": 120.0
            },
            {
                "pitch": 0,
                "velocity": 0,
                "duration": 0.1205,
                "tempo": 0
            },
            {
                "pitch": 74,
                "velocity": 7,
                "duration": 0.0523,
                "tempo": 120.0
            },
            {
                "pitch": 0,
                "velocity": 0,
                "duration": 0.1205,
                "tempo": 0
            },
            {
                "pitch": 79,
                "velocity": 7,
                "duration": 0.05,
                "tempo": 120.0
            },
            {
                "pitch": 0,
                "velocity": 0,
                "duration": 0.1182,
                "tempo": 0
            },
            {
                "pitch": 74,
                "velocity": 7,
                "duration": 0.05,
                "tempo": 120.0
            },
            {
                "pitch": 0,
                "velocity": 0,
                "duration": 0.1182,
                "tempo": 0
            },
            {
                "pitch": 74,
                "velocity": 4,
                "duration": 0.05,
                "tempo": 120.0
            },
            {
                "pitch": 0,
                "velocity": 0,
                "duration": 0.1182,
                "tempo": 0
            },
            {
                "pitch": 74,
                "velocity": 7,
                "duration": 0.0477,
                "tempo": 120.0
            },
            {
                "pitch": 0,
                "velocity": 0,
                "duration": 0.1182,
                "tempo": 0
            },
            {
                "pitch": 77,
                "velocity": 7,
                "duration": 0.0523,
                "tempo": 120.0
            },
            {
                "pitch": 0,
                "velocity": 0,
                "duration": 0.1205,
                "tempo": 0
            },
            {
                "pitch": 74,
                "velocity": 7,
                "duration": 0.0523,
                "tempo": 120.0
            },
            {
                "pitch": 0,
                "velocity": 0,
                "duration": 0.1205,
                "tempo": 0
            },
            {
                "pitch": 76,
                "velocity": 7,
                "duration": 0.05,
                "tempo": 120.0
            },
            {
                "pitch": 0,
                "velocity": 0,
                "duration": 0.1182,
                "tempo": 0
            },
            {
                "pitch": 76,
                "velocity": 5,
                "duration": 0.05,
                "tempo": 120.0
            },
            {
                "pitch": 0,
                "velocity": 0,
                "duration": 0.1182,
                "tempo": 0
            },
            {
                "pitch": 74,
                "velocity": 5,
                "duration": 0.0477,
                "tempo": 120.0
            },
            {
                "pitch": 0,
                "velocity": 0,
                "duration": 0.1182,
                "tempo": 0
            },
            {
                "pitch": 74,
                "velocity": 4,
                "duration": 0.05,
                "tempo": 120.0
            },
            {
                "pitch": 0,
                "velocity": 0,
                "duration": 3.175,
                "tempo": 0
            },
            {
                "pitch": 81,
                "velocity": 7,
                "duration": 0.0477,
                "tempo": 120.0
            },
            {
                "pitch": 0,
                "velocity": 0,
                "duration": 0.1182,
                "tempo": 0
            },
            {
                "pitch": 74,
                "velocity": 7,
                "duration": 0.05,
                "tempo": 120.0
            },
            {
                "pitch": 0,
                "velocity": 0,
                "duration": 0.1182,
                "tempo": 0
            },
            {
                "pitch": 74,
                "velocity": 4,
                "duration": 0.05,
                "tempo": 120.0
            },
            {
                "pitch": 0,
                "velocity": 0,
                "duration": 0.1205,
                "tempo": 0
            },
            {
                "pitch": 74,
                "velocity": 7,
                "duration": 0.0523,
                "tempo": 120.0
            },
            {
                "pitch": 0,
                "velocity": 0,
                "duration": 0.1205,
                "tempo": 0
            },
            {
                "pitch": 79,
                "velocity": 7,
                "duration": 0.05,
                "tempo": 120.0
            },
            {
                "pitch": 0,
                "velocity": 0,
                "duration": 0.1182,
                "tempo": 0
            },
            {
                "pitch": 74,
                "velocity": 7,
                "duration": 0.05,
                "tempo": 120.0
            },
            {
                "pitch": 0,
                "velocity": 0,
                "duration": 0.1182,
                "tempo": 0
            },
            {
                "pitch": 74,
                "velocity": 4,
                "duration": 0.05,
                "tempo": 120.0
            },
            {
                "pitch": 0,
                "velocity": 0,
                "duration": 0.1182,
                "tempo": 0
            },
            {
                "pitch": 74,
                "velocity": 7,
                "duration": 0.0477,
                "tempo": 120.0
            },
            {
                "pitch": 0,
                "velocity": 0,
                "duration": 0.1182,
                "tempo": 0
            },
            {
                "pitch": 77,
                "velocity": 7,
                "duration": 0.05,
                "tempo": 120.0
            },
            {
                "pitch": 0,
                "velocity": 0,
                "duration": 0.1182,
                "tempo": 0
            },
            {
                "pitch": 74,
                "velocity": 7,
                "duration": 0.05,
                "tempo": 120.0
            },
            {
                "pitch": 0,
                "velocity": 0,
                "duration": 0.1182,
                "tempo": 0
            },
            {
                "pitch": 76,
                "velocity": 7,
                "duration": 0.05,
                "tempo": 120.0
            },
            {
                "pitch": 0,
                "velocity": 0,
                "duration": 0.1227,
                "tempo": 0
            },
            {
                "pitch": 76,
                "velocity": 5,
                "duration": 0.05,
                "tempo": 120.0
            },
            {
                "pitch": 0,
                "velocity": 0,
                "duration": 0.1227,
                "tempo": 0
            },
            {
                "pitch": 74,
                "velocity": 5,
                "duration": 0.0477,
                "tempo": 120.0
            },
            {
                "pitch": 0,
                "velocity": 0,
                "duration": 0.1182,
                "tempo": 0
            },
            {
                "pitch": 74,
                "velocity": 4,
                "duration": 0.05,
                "tempo": 120.0
            },
            {
                "pitch": 0,
                "velocity": 0,
                "duration": 2.1591,
                "tempo": 0
            },
            {
                "pitch": 74,
                "velocity": 5,
                "duration": 0.3364,
                "tempo": 120.0
            },
            {
                "pitch": 77,
                "velocity": 5,
                "duration": 0.3341,
                "tempo": 120.0
            },
            {
                "pitch": 79,
                "velocity": 5,
                "duration": 0.3477,
                "tempo": 120.0
            },
            {
                "pitch": 81,
                "velocity": 7,
                "duration": 0.0455,
                "tempo": 120.0
            },
            {
                "pitch": 0,
                "velocity": 0,
                "duration": 0.1182,
                "tempo": 0
            },
            {
                "pitch": 76,
                "velocity": 7,
                "duration": 0.05,
                "tempo": 120.0
            },
            {
                "pitch": 0,
                "velocity": 0,
                "duration": 0.1182,
                "tempo": 0
            },
            {
                "pitch": 76,
                "velocity": 4,
                "duration": 0.0523,
                "tempo": 120.0
            },
            {
                "pitch": 0,
                "velocity": 0,
                "duration": 0.1205,
                "tempo": 0
            },
            {
                "pitch": 76,
                "velocity": 7,
                "duration": 0.05,
                "tempo": 120.0
            },
            {
                "pitch": 0,
                "velocity": 0,
                "duration": 0.1227,
                "tempo": 0
            },
            {
                "pitch": 79,
                "velocity": 7,
                "duration": 0.05,
                "tempo": 120.0
            },
            {
                "pitch": 0,
                "velocity": 0,
                "duration": 0.1182,
                "tempo": 0
            },
            {
                "pitch": 76,
                "velocity": 7,
                "duration": 0.0477,
                "tempo": 120.0
            },
            {
                "pitch": 0,
                "velocity": 0,
                "duration": 0.1182,
                "tempo": 0
            },
            {
                "pitch": 76,
                "velocity": 4,
                "duration": 0.05,
                "tempo": 120.0
            },
            {
                "pitch": 0,
                "velocity": 0,
                "duration": 0.1182,
                "tempo": 0
            },
            {
                "pitch": 76,
                "velocity": 7,
                "duration": 0.05,
                "tempo": 120.0
            },
            {
                "pitch": 0,
                "velocity": 0,
                "duration": 0.1182,
                "tempo": 0
            },
            {
                "pitch": 77,
                "velocity": 7,
                "duration": 0.05,
                "tempo": 120.0
            },
            {
                "pitch": 0,
                "velocity": 0,
                "duration": 0.1227,
                "tempo": 0
            },
            {
                "pitch": 76,
                "velocity": 7,
                "duration": 0.05,
                "tempo": 120.0
            },
            {
                "pitch": 0,
                "velocity": 0,
                "duration": 0.1227,
                "tempo": 0
            },
            {
                "pitch": 77,
                "velocity": 7,
                "duration": 0.05,
                "tempo": 120.0
            },
            {
                "pitch": 0,
                "velocity": 0,
                "duration": 0.1159,
                "tempo": 0
            },
            {
                "pitch": 77,
                "velocity": 5,
                "duration": 0.05,
                "tempo": 120.0
            },
            {
                "pitch": 0,
                "velocity": 0,
                "duration": 0.1182,
                "tempo": 0
            },
            {
                "pitch": 76,
                "velocity": 5,
                "duration": 0.05,
                "tempo": 120.0
            },
            {
                "pitch": 0,
                "velocity": 0,
                "duration": 0.1182,
                "tempo": 0
            },
            {
                "pitch": 76,
                "velocity": 4,
                "duration": 0.05,
                "tempo": 120.0
            },
            {
                "pitch": 0,
                "velocity": 0,
                "duration": 2.1477,
                "tempo": 0
            },
            {
                "pitch": 76,
                "velocity": 5,
                "duration": 0.3455,
                "tempo": 120.0
            },
            {
                "pitch": 77,
                "velocity": 5,
                "duration": 0.3364,
                "tempo": 120.0
            },
            {
                "pitch": 79,
                "velocity": 5,
                "duration": 0.3455,
                "tempo": 120.0
            },
            {
                "pitch": 0,
                "velocity": 0,
                "duration": 0.0023,
                "tempo": 0
            },
            {
                "pitch": 81,
                "velocity": 7,
                "duration": 0.0455,
                "tempo": 120.0
            },
            {
                "pitch": 0,
                "velocity": 0,
                "duration": 0.1182,
                "tempo": 0
            },
            {
                "pitch": 74,
                "velocity": 7,
                "duration": 0.05,
                "tempo": 120.0
            },
            {
                "pitch": 0,
                "velocity": 0,
                "duration": 0.1182,
                "tempo": 0
            },
            {
                "pitch": 74,
                "velocity": 4,
                "duration": 0.05,
                "tempo": 120.0
            },
            {
                "pitch": 0,
                "velocity": 0,
                "duration": 0.1227,
                "tempo": 0
            },
            {
                "pitch": 74,
                "velocity": 7,
                "duration": 0.05,
                "tempo": 120.0
            },
            {
                "pitch": 0,
                "velocity": 0,
                "duration": 0.1227,
                "tempo": 0
            },
            {
                "pitch": 79,
                "velocity": 7,
                "duration": 0.0477,
                "tempo": 120.0
            },
            {
                "pitch": 0,
                "velocity": 0,
                "duration": 0.1182,
                "tempo": 0
            },
            {
                "pitch": 74,
                "velocity": 7,
                "duration": 0.05,
                "tempo": 120.0
            },
            {
                "pitch": 0,
                "velocity": 0,
                "duration": 0.1182,
                "tempo": 0
            },
            {
                "pitch": 74,
                "velocity": 4,
                "duration": 0.05,
                "tempo": 120.0
            },
            {
                "pitch": 0,
                "velocity": 0,
                "duration": 0.1182,
                "tempo": 0
            },
            {
                "pitch": 74,
                "velocity": 7,
                "duration": 0.05,
                "tempo": 120.0
            },
            {
                "pitch": 0,
                "velocity": 0,
                "duration": 0.1182,
                "tempo": 0
            },
            {
                "pitch": 77,
                "velocity": 7,
                "duration": 0.05,
                "tempo": 120.0
            },
            {
                "pitch": 0,
                "velocity": 0,
                "duration": 0.1205,
                "tempo": 0
            },
            {
                "pitch": 74,
                "velocity": 7,
                "duration": 0.0523,
                "tempo": 120.0
            },
            {
                "pitch": 0,
                "velocity": 0,
                "duration": 0.1205,
                "tempo": 0
            },
            {
                "pitch": 76,
                "velocity": 7,
                "duration": 0.05,
                "tempo": 120.0
            },
            {
                "pitch": 0,
                "velocity": 0,
                "duration": 0.1182,
                "tempo": 0
            },
            {
                "pitch": 74,
                "velocity": 7,
                "duration": 0.05,
                "tempo": 120.0
            },
            {
                "pitch": 0,
                "velocity": 0,
                "duration": 0.1182,
                "tempo": 0
            },
            {
                "pitch": 77,
                "velocity": 7,
                "duration": 0.05,
                "tempo": 120.0
            },
            {
                "pitch": 0,
                "velocity": 0,
                "duration": 0.1182,
                "tempo": 0
            },
            {
                "pitch": 74,
                "velocity": 7,
                "duration": 0.0477,
                "tempo": 120.0
            },
            {
                "pitch": 0,
                "velocity": 0,
                "duration": 0.1205,
                "tempo": 0
            },
            {
                "pitch": 79,
                "velocity": 7,
                "duration": 0.05,
                "tempo": 120.0
            },
            {
                "pitch": 0,
                "velocity": 0,
                "duration": 0.1205,
                "tempo": 0
            },
            {
                "pitch": 74,
                "velocity": 7,
                "duration": 0.0523,
                "tempo": 120.0
            },
            {
                "pitch": 0,
                "velocity": 0,
                "duration": 0.1227,
                "tempo": 0
            },
            {
                "pitch": 81,
                "velocity": 7,
                "duration": 0.0477,
                "tempo": 120.0
            },
            {
                "pitch": 0,
                "velocity": 0,
                "duration": 0.1182,
                "tempo": 0
            },
            {
                "pitch": 74,
                "velocity": 7,
                "duration": 0.05,
                "tempo": 120.0
            },
            {
                "pitch": 0,
                "velocity": 0,
                "duration": 0.1182,
                "tempo": 0
            },
            {
                "pitch": 74,
                "velocity": 4,
                "duration": 0.05,
                "tempo": 120.0
            },
            {
                "pitch": 0,
                "velocity": 0,
                "duration": 0.1227,
                "tempo": 0
            },
            {
                "pitch": 74,
                "velocity": 7,
                "duration": 0.05,
                "tempo": 120.0
            },
            {
                "pitch": 0,
                "velocity": 0,
                "duration": 0.1205,
                "tempo": 0
            },
            {
                "pitch": 79,
                "velocity": 7,
                "duration": 0.05,
                "tempo": 120.0
            },
            {
                "pitch": 0,
                "velocity": 0,
                "duration": 0.1182,
                "tempo": 0
            },
            {
                "pitch": 74,
                "velocity": 7,
                "duration": 0.05,
                "tempo": 120.0
            },
            {
                "pitch": 0,
                "velocity": 0,
                "duration": 0.1182,
                "tempo": 0
            },
            {
                "pitch": 74,
                "velocity": 4,
                "duration": 0.05,
                "tempo": 120.0
            },
            {
                "pitch": 0,
                "velocity": 0,
                "duration": 0.1182,
                "tempo": 0
            },
            {
                "pitch": 74,
                "velocity": 7,
                "duration": 0.05,
                "tempo": 120.0
            },
            {
                "pitch": 0,
                "velocity": 0,
                "duration": 0.1182,
                "tempo": 0
            },
            {
                "pitch": 77,
                "velocity": 7,
                "duration": 0.05,
                "tempo": 120.0
            },
            {
                "pitch": 0,
                "velocity": 0,
                "duration": 0.1205,
                "tempo": 0
            },
            {
                "pitch": 74,
                "velocity": 7,
                "duration": 0.0523,
                "tempo": 120.0
            },
            {
                "pitch": 0,
                "velocity": 0,
                "duration": 0.1205,
                "tempo": 0
            },
            {
                "pitch": 76,
                "velocity": 7,
                "duration": 0.05,
                "tempo": 120.0
            },
            {
                "pitch": 0,
                "velocity": 0,
                "duration": 0.1182,
                "tempo": 0
            },
            {
                "pitch": 74,
                "velocity": 7,
                "duration": 0.05,
                "tempo": 120.0
            },
            {
                "pitch": 0,
                "velocity": 0,
                "duration": 0.1182,
                "tempo": 0
            },
            {
                "pitch": 77,
                "velocity": 7,
                "duration": 0.05,
                "tempo": 120.0
            },
            {
                "pitch": 0,
                "velocity": 0,
                "duration": 0.1159,
                "tempo": 0
            },
            {
                "pitch": 74,
                "velocity": 7,
                "duration": 0.05,
                "tempo": 120.0
            },
            {
                "pitch": 0,
                "velocity": 0,
                "duration": 0.1182,
                "tempo": 0
            },
            {
                "pitch": 79,
                "velocity": 7,
                "duration": 0.0523,
                "tempo": 120.0
            },
            {
                "pitch": 0,
                "velocity": 0,
                "duration": 0.1205,
                "tempo": 0
            },
            {
                "pitch": 74,
                "velocity": 7,
                "duration": 0.0523,
                "tempo": 120.0
            },
            {
                "pitch": 0,
                "velocity": 0,
                "duration": 0.1227,
                "tempo": 0
            },
            {
                "pitch": 81,
                "velocity": 7,
                "duration": 0.0477,
                "tempo": 120.0
            },
            {
                "pitch": 0,
                "velocity": 0,
                "duration": 0.1182,
                "tempo": 0
            },
            {
                "pitch": 74,
                "velocity": 7,
                "duration": 0.05,
                "tempo": 120.0
            },
            {
                "pitch": 0,
                "velocity": 0,
                "duration": 0.1182,
                "tempo": 0
            },
            {
                "pitch": 74,
                "velocity": 4,
                "duration": 0.05,
                "tempo": 120.0
            },
            {
                "pitch": 0,
                "velocity": 0,
                "duration": 0.1205,
                "tempo": 0
            },
            {
                "pitch": 74,
                "velocity": 7,
                "duration": 0.0523,
                "tempo": 120.0
            },
            {
                "pitch": 0,
                "velocity": 0,
                "duration": 0.1205,
                "tempo": 0
            },
            {
                "pitch": 79,
                "velocity": 7,
                "duration": 0.05,
                "tempo": 120.0
            },
            {
                "pitch": 0,
                "velocity": 0,
                "duration": 0.1182,
                "tempo": 0
            },
            {
                "pitch": 74,
                "velocity": 7,
                "duration": 0.05,
                "tempo": 120.0
            },
            {
                "pitch": 0,
                "velocity": 0,
                "duration": 0.1182,
                "tempo": 0
            },
            {
                "pitch": 74,
                "velocity": 4,
                "duration": 0.05,
                "tempo": 120.0
            },
            {
                "pitch": 0,
                "velocity": 0,
                "duration": 0.1182,
                "tempo": 0
            },
            {
                "pitch": 74,
                "velocity": 7,
                "duration": 0.0477,
                "tempo": 120.0
            },
            {
                "pitch": 0,
                "velocity": 0,
                "duration": 0.1182,
                "tempo": 0
            },
            {
                "pitch": 77,
                "velocity": 7,
                "duration": 0.0523,
                "tempo": 120.0
            },
            {
                "pitch": 0,
                "velocity": 0,
                "duration": 0.1205,
                "tempo": 0
            },
            {
                "pitch": 74,
                "velocity": 7,
                "duration": 0.0523,
                "tempo": 120.0
            },
            {
                "pitch": 0,
                "velocity": 0,
                "duration": 0.1205,
                "tempo": 0
            },
            {
                "pitch": 76,
                "velocity": 7,
                "duration": 0.05,
                "tempo": 120.0
            },
            {
                "pitch": 0,
                "velocity": 0,
                "duration": 0.1182,
                "tempo": 0
            },
            {
                "pitch": 76,
                "velocity": 5,
                "duration": 0.05,
                "tempo": 120.0
            },
            {
                "pitch": 0,
                "velocity": 0,
                "duration": 0.1182,
                "tempo": 0
            },
            {
                "pitch": 74,
                "velocity": 5,
                "duration": 0.0477,
                "tempo": 120.0
            },
            {
                "pitch": 0,
                "velocity": 0,
                "duration": 0.1182,
                "tempo": 0
            },
            {
                "pitch": 74,
                "velocity": 4,
                "duration": 0.05,
                "tempo": 120.0
            }
        ],
        "Synth Bass 1": [
            {
                "pitch": 0,
                "velocity": 0,
                "duration": 54.2227,
                "tempo": 0
            },
            {
                "pitch": 26,
                "velocity": 1,
                "duration": 10.8545,
                "tempo": 120.0
            },
            {
                "pitch": 21,
                "velocity": 1,
                "duration": 5.4205,
                "tempo": 120.0
            },
            {
                "pitch": 0,
                "velocity": 0,
                "duration": 0.0818,
                "tempo": 0
            },
            {
                "pitch": 31,
                "velocity": 1,
                "duration": 0.1682,
                "tempo": 120.0
            },
            {
                "pitch": 31,
                "velocity": 1,
                "duration": 0.1659,
                "tempo": 120.0
            },
            {
                "pitch": 31,
                "velocity": 1,
                "duration": 0.1682,
                "tempo": 120.0
            },
            {
                "pitch": 31,
                "velocity": 1,
                "duration": 0.1705,
                "tempo": 120.0
            },
            {
                "pitch": 31,
                "velocity": 1,
                "duration": 0.1727,
                "tempo": 120.0
            },
            {
                "pitch": 31,
                "velocity": 1,
                "duration": 0.1705,
                "tempo": 120.0
            },
            {
                "pitch": 31,
                "velocity": 1,
                "duration": 0.1659,
                "tempo": 120.0
            },
            {
                "pitch": 31,
                "velocity": 1,
                "duration": 0.1705,
                "tempo": 120.0
            },
            {
                "pitch": 31,
                "velocity": 1,
                "duration": 0.1727,
                "tempo": 120.0
            },
            {
                "pitch": 31,
                "velocity": 1,
                "duration": 0.1705,
                "tempo": 120.0
            },
            {
                "pitch": 31,
                "velocity": 1,
                "duration": 0.1682,
                "tempo": 120.0
            },
            {
                "pitch": 0,
                "velocity": 0,
                "duration": 0.7659,
                "tempo": 0
            },
            {
                "pitch": 21,
                "velocity": 1,
                "duration": 2.0295,
                "tempo": 120.0
            },
            {
                "pitch": 0,
                "velocity": 0,
                "duration": 0.6818,
                "tempo": 0
            },
            {
                "pitch": 26,
                "velocity": 1,
                "duration": 5.4205,
                "tempo": 120.0
            },
            {
                "pitch": 26,
                "velocity": 1,
                "duration": 5.4205,
                "tempo": 120.0
            },
            {
                "pitch": 0,
                "velocity": 0,
                "duration": 0.0023,
                "tempo": 0
            },
            {
                "pitch": 21,
                "velocity": 1,
                "duration": 5.4205,
                "tempo": 120.0
            },
            {
                "pitch": 31,
                "velocity": 1,
                "duration": 19.8227,
                "tempo": 120.0
            },
            {
                "pitch": 31,
                "velocity": 1,
                "duration": 0.1682,
                "tempo": 120.0
            },
            {
                "pitch": 31,
                "velocity": 1,
                "duration": 0.1682,
                "tempo": 120.0
            },
            {
                "pitch": 31,
                "velocity": 1,
                "duration": 0.1727,
                "tempo": 120.0
            },
            {
                "pitch": 31,
                "velocity": 1,
                "duration": 0.1705,
                "tempo": 120.0
            },
            {
                "pitch": 31,
                "velocity": 1,
                "duration": 0.1682,
                "tempo": 120.0
            },
            {
                "pitch": 31,
                "velocity": 1,
                "duration": 0.1682,
                "tempo": 120.0
            },
            {
                "pitch": 31,
                "velocity": 1,
                "duration": 0.1659,
                "tempo": 120.0
            },
            {
                "pitch": 31,
                "velocity": 1,
                "duration": 0.1705,
                "tempo": 120.0
            },
            {
                "pitch": 31,
                "velocity": 1,
                "duration": 0.1727,
                "tempo": 120.0
            },
            {
                "pitch": 31,
                "velocity": 1,
                "duration": 0.1705,
                "tempo": 120.0
            },
            {
                "pitch": 31,
                "velocity": 1,
                "duration": 0.1682,
                "tempo": 120.0
            },
            {
                "pitch": 0,
                "velocity": 0,
                "duration": 0.7659,
                "tempo": 0
            },
            {
                "pitch": 21,
                "velocity": 1,
                "duration": 2.0295,
                "tempo": 120.0
            },
            {
                "pitch": 0,
                "velocity": 0,
                "duration": 0.6818,
                "tempo": 0
            },
            {
                "pitch": 26,
                "velocity": 1,
                "duration": 5.4205,
                "tempo": 120.0
            },
            {
                "pitch": 0,
                "velocity": 0,
                "duration": 0.0023,
                "tempo": 0
            },
            {
                "pitch": 26,
                "velocity": 1,
                "duration": 5.4227,
                "tempo": 120.0
            }
        ],
        "Acoustic Grand Piano": [
            {
                "pitch": 0,
                "velocity": 0,
                "duration": 162.6591,
                "tempo": 0
            },
            {
                "pitch": 108,
                "velocity": 15,
                "duration": 0.1,
                "tempo": 120.0
            }
        ]
    }
}