{
    "track_id": "08 Act 2, 7_15",
    "mood": "angry",
    "instruments": {
        "Lead 1 (square)": [
            {
                "pitch": 0,
                "velocity": 0,
                "duration": 38.9091,
                "tempo": 0
            },
            {
                "pitch": 72,
                "velocity": 12,
                "duration": 1.4773,
                "tempo": 120.0
            },
            {
                "pitch": 0,
                "velocity": 0,
                "duration": 0.2886,
                "tempo": 0
            },
            {
                "pitch": 98,
                "velocity": 12,
                "duration": 1.4818,
                "tempo": 120.0
            }
        ],
        "Lead 2 (sawtooth)": [
            {
                "pitch": 0,
                "velocity": 0,
                "duration": 15.1477,
                "tempo": 0
            },
            {
                "pitch": 33,
                "velocity": 8,
                "duration": 0.0932,
                "tempo": 120.0
            },
            {
                "pitch": 0,
                "velocity": 0,
                "duration": 0.0182,
                "tempo": 0
            },
            {
                "pitch": 33,
                "velocity": 8,
                "duration": 0.1886,
                "tempo": 120.0
            },
            {
                "pitch": 0,
                "velocity": 0,
                "duration": 0.1455,
                "tempo": 0
            },
            {
                "pitch": 36,
                "velocity": 8,
                "duration": 0.0023,
                "tempo": 120.0
            },
            {
                "pitch": 41,
                "velocity": 8,
                "duration": 0.0886,
                "tempo": 120.0
            },
            {
                "pitch": 0,
                "velocity": 0,
                "duration": 0.0182,
                "tempo": 0
            },
            {
                "pitch": 41,
                "velocity": 8,
                "duration": 0.0886,
                "tempo": 120.0
            },
            {
                "pitch": 0,
                "velocity": 0,
                "duration": 0.0205,
                "tempo": 0
            },
            {
                "pitch": 41,
                "velocity": 8,
                "duration": 0.0886,
                "tempo": 120.0
            },
            {
                "pitch": 0,
                "velocity": 0,
                "duration": 1.7864,
                "tempo": 0
            },
            {
                "pitch": 39,
                "velocity": 8,
                "duration": 0.0909,
                "tempo": 120.0
            },
            {
                "pitch": 0,
                "velocity": 0,
                "duration": 0.0205,
                "tempo": 0
            },
            {
                "pitch": 39,
                "velocity": 8,
                "duration": 0.0932,
                "tempo": 120.0
            },
            {
                "pitch": 0,
                "velocity": 0,
                "duration": 0.0182,
                "tempo": 0
            },
            {
                "pitch": 39,
                "velocity": 8,
                "duration": 0.0932,
                "tempo": 120.0
            },
            {
                "pitch": 0,
                "velocity": 0,
                "duration": 0.0205,
                "tempo": 0
            },
            {
                "pitch": 39,
                "velocity": 8,
                "duration": 0.1841,
                "tempo": 120.0
            },
            {
                "pitch": 0,
                "velocity": 0,
                "duration": 0.0364,
                "tempo": 0
            },
            {
                "pitch": 39,
                "velocity": 8,
                "duration": 0.0909,
                "tempo": 120.0
            },
            {
                "pitch": 0,
                "velocity": 0,
                "duration": 0.0182,
                "tempo": 0
            },
            {
                "pitch": 36,
                "velocity": 8,
                "duration": 0.0886,
                "tempo": 120.0
            },
            {
                "pitch": 39,
                "velocity": 8,
                "duration": 0.1977,
                "tempo": 120.0
            },
            {
                "pitch": 39,
                "velocity": 8,
                "duration": 0.0909,
                "tempo": 120.0
            },
            {
                "pitch": 36,
                "velocity": 8,
                "duration": 0.2,
                "tempo": 120.0
            },
            {
                "pitch": 36,
                "velocity": 8,
                "duration": 0.0909,
                "tempo": 120.0
            },
            {
                "pitch": 40,
                "velocity": 8,
                "duration": 4.4182,
                "tempo": 120.0
            },
            {
                "pitch": 0,
                "velocity": 0,
                "duration": 0.1091,
                "tempo": 0
            },
            {
                "pitch": 35,
                "velocity": 8,
                "duration": 0.0909,
                "tempo": 120.0
            },
            {
                "pitch": 0,
                "velocity": 0,
                "duration": 0.1295,
                "tempo": 0
            },
            {
                "pitch": 36,
                "velocity": 8,
                "duration": 0.0932,
                "tempo": 120.0
            },
            {
                "pitch": 40,
                "velocity": 8,
                "duration": 0.4432,
                "tempo": 120.0
            },
            {
                "pitch": 42,
                "velocity": 8,
                "duration": 3.5432,
                "tempo": 120.0
            },
            {
                "pitch": 0,
                "velocity": 0,
                "duration": 22.9932,
                "tempo": 0
            },
            {
                "pitch": 75,
                "velocity": 15,
                "duration": 0.1818,
                "tempo": 120.0
            },
            {
                "pitch": 0,
                "velocity": 0,
                "duration": 1.1432,
                "tempo": 0
            },
            {
                "pitch": 72,
                "velocity": 15,
                "duration": 0.2545,
                "tempo": 120.0
            },
            {
                "pitch": 75,
                "velocity": 15,
                "duration": 0.4205,
                "tempo": 120.0
            },
            {
                "pitch": 75,
                "velocity": 15,
                "duration": 0.0909,
                "tempo": 120.0
            },
            {
                "pitch": 0,
                "velocity": 0,
                "duration": 1.3545,
                "tempo": 0
            },
            {
                "pitch": 75,
                "velocity": 15,
                "duration": 0.2523,
                "tempo": 120.0
            },
            {
                "pitch": 72,
                "velocity": 15,
                "duration": 1.8591,
                "tempo": 120.0
            },
            {
                "pitch": 72,
                "velocity": 15,
                "duration": 0.0886,
                "tempo": 120.0
            },
            {
                "pitch": 0,
                "velocity": 0,
                "duration": 1.3545,
                "tempo": 0
            },
            {
                "pitch": 72,
                "velocity": 15,
                "duration": 0.2568,
                "tempo": 120.0
            },
            {
                "pitch": 0,
                "velocity": 0,
                "duration": 0.075,
                "tempo": 0
            },
            {
                "pitch": 72,
                "velocity": 15,
                "duration": 0.0909,
                "tempo": 120.0
            },
            {
                "pitch": 0,
                "velocity": 0,
                "duration": 1.4545,
                "tempo": 0
            },
            {
                "pitch": 73,
                "velocity": 15,
                "duration": 0.2568,
                "tempo": 120.0
            },
            {
                "pitch": 0,
                "velocity": 0,
                "duration": 0.075,
                "tempo": 0
            },
            {
                "pitch": 73,
                "velocity": 15,
                "duration": 0.0909,
                "tempo": 120.0
            },
            {
                "pitch": 75,
                "velocity": 15,
                "duration": 5.3364,
                "tempo": 120.0
            },
            {
                "pitch": 75,
                "velocity": 15,
                "duration": 0.2523,
                "tempo": 120.0
            },
            {
                "pitch": 0,
                "velocity": 0,
                "duration": 0.0727,
                "tempo": 0
            },
            {
                "pitch": 78,
                "velocity": 15,
                "duration": 0.0932,
                "tempo": 120.0
            },
            {
                "pitch": 0,
                "velocity": 0,
                "duration": 1.3523,
                "tempo": 0
            },
            {
                "pitch": 78,
                "velocity": 15,
                "duration": 0.2568,
                "tempo": 120.0
            }
        ],
        "Synth Bass 1": [
            {
                "pitch": 0,
                "velocity": 0,
                "duration": 29.1795,
                "tempo": 0
            },
            {
                "pitch": 77,
                "velocity": 1,
                "duration": 0.4955,
                "tempo": 120.0
            },
            {
                "pitch": 0,
                "velocity": 0,
                "duration": 1.2818,
                "tempo": 0
            },
            {
                "pitch": 77,
                "velocity": 1,
                "duration": 0.4955,
                "tempo": 120.0
            }
        ],
        "Acoustic Grand Piano": [
            {
                "pitch": 0,
                "velocity": 0,
                "duration": 56.5159,
                "tempo": 0
            },
            {
                "pitch": 108,
                "velocity": 15,
                "duration": 0.1,
                "tempo": 120.0
            }
        ]
    }
}