{
    "track_id": "10 Stage-4_13",
    "mood": "angry",
    "instruments": {
        "Lead 1 (square)": [
            {
                "pitch": 0,
                "velocity": 0,
                "duration": 27.7705,
                "tempo": 0
            },
            {
                "pitch": 64,
                "velocity": 12,
                "duration": 0.1409,
                "tempo": 120.0
            },
            {
                "pitch": 0,
                "velocity": 0,
                "duration": 0.1045,
                "tempo": 0
            },
            {
                "pitch": 64,
                "velocity": 12,
                "duration": 0.1409,
                "tempo": 120.0
            },
            {
                "pitch": 0,
                "velocity": 0,
                "duration": 0.1045,
                "tempo": 0
            },
            {
                "pitch": 64,
                "velocity": 12,
                "duration": 0.1477,
                "tempo": 120.0
            },
            {
                "pitch": 0,
                "velocity": 0,
                "duration": 0.1114,
                "tempo": 0
            },
            {
                "pitch": 64,
                "velocity": 12,
                "duration": 0.1455,
                "tempo": 120.0
            },
            {
                "pitch": 0,
                "velocity": 0,
                "duration": 16.3136,
                "tempo": 0
            },
            {
                "pitch": 69,
                "velocity": 12,
                "duration": 0.2432,
                "tempo": 120.0
            },
            {
                "pitch": 72,
                "velocity": 12,
                "duration": 0.0932,
                "tempo": 120.0
            },
            {
                "pitch": 69,
                "velocity": 12,
                "duration": 0.1886,
                "tempo": 120.0
            },
            {
                "pitch": 76,
                "velocity": 12,
                "duration": 0.2818,
                "tempo": 120.0
            },
            {
                "pitch": 44,
                "velocity": 12,
                "duration": 0.2864,
                "tempo": 120.0
            },
            {
                "pitch": 72,
                "velocity": 12,
                "duration": 0.0977,
                "tempo": 120.0
            },
            {
                "pitch": 69,
                "velocity": 12,
                "duration": 0.1955,
                "tempo": 120.0
            },
            {
                "pitch": 76,
                "velocity": 12,
                "duration": 0.2932,
                "tempo": 120.0
            },
            {
                "pitch": 44,
                "velocity": 12,
                "duration": 0.2932,
                "tempo": 120.0
            },
            {
                "pitch": 72,
                "velocity": 12,
                "duration": 0.0977,
                "tempo": 120.0
            },
            {
                "pitch": 69,
                "velocity": 12,
                "duration": 0.2023,
                "tempo": 120.0
            },
            {
                "pitch": 76,
                "velocity": 12,
                "duration": 0.3,
                "tempo": 120.0
            },
            {
                "pitch": 44,
                "velocity": 12,
                "duration": 0.3045,
                "tempo": 120.0
            },
            {
                "pitch": 72,
                "velocity": 12,
                "duration": 0.1023,
                "tempo": 120.0
            },
            {
                "pitch": 69,
                "velocity": 12,
                "duration": 0.2068,
                "tempo": 120.0
            },
            {
                "pitch": 76,
                "velocity": 12,
                "duration": 0.3091,
                "tempo": 120.0
            },
            {
                "pitch": 44,
                "velocity": 12,
                "duration": 0.3114,
                "tempo": 120.0
            },
            {
                "pitch": 72,
                "velocity": 12,
                "duration": 0.1045,
                "tempo": 120.0
            },
            {
                "pitch": 69,
                "velocity": 12,
                "duration": 0.0977,
                "tempo": 120.0
            },
            {
                "pitch": 71,
                "velocity": 12,
                "duration": 0.1,
                "tempo": 120.0
            },
            {
                "pitch": 76,
                "velocity": 12,
                "duration": 0.3023,
                "tempo": 120.0
            },
            {
                "pitch": 72,
                "velocity": 12,
                "duration": 0.1023,
                "tempo": 120.0
            },
            {
                "pitch": 74,
                "velocity": 12,
                "duration": 0.1,
                "tempo": 120.0
            },
            {
                "pitch": 71,
                "velocity": 12,
                "duration": 0.1,
                "tempo": 120.0
            },
            {
                "pitch": 76,
                "velocity": 12,
                "duration": 0.3023,
                "tempo": 120.0
            },
            {
                "pitch": 72,
                "velocity": 12,
                "duration": 0.1,
                "tempo": 120.0
            },
            {
                "pitch": 56,
                "velocity": 12,
                "duration": 0.2977,
                "tempo": 120.0
            },
            {
                "pitch": 74,
                "velocity": 12,
                "duration": 0.0977,
                "tempo": 120.0
            },
            {
                "pitch": 71,
                "velocity": 12,
                "duration": 0.0955,
                "tempo": 120.0
            },
            {
                "pitch": 76,
                "velocity": 12,
                "duration": 0.2932,
                "tempo": 120.0
            },
            {
                "pitch": 72,
                "velocity": 12,
                "duration": 0.1,
                "tempo": 120.0
            },
            {
                "pitch": 56,
                "velocity": 12,
                "duration": 0.2955,
                "tempo": 120.0
            },
            {
                "pitch": 74,
                "velocity": 12,
                "duration": 0.1,
                "tempo": 120.0
            },
            {
                "pitch": 71,
                "velocity": 12,
                "duration": 0.0977,
                "tempo": 120.0
            },
            {
                "pitch": 76,
                "velocity": 12,
                "duration": 0.2977,
                "tempo": 120.0
            },
            {
                "pitch": 72,
                "velocity": 12,
                "duration": 0.1023,
                "tempo": 120.0
            },
            {
                "pitch": 56,
                "velocity": 12,
                "duration": 0.3023,
                "tempo": 120.0
            },
            {
                "pitch": 74,
                "velocity": 12,
                "duration": 0.1023,
                "tempo": 120.0
            },
            {
                "pitch": 71,
                "velocity": 12,
                "duration": 0.1045,
                "tempo": 120.0
            },
            {
                "pitch": 76,
                "velocity": 12,
                "duration": 0.3091,
                "tempo": 120.0
            },
            {
                "pitch": 72,
                "velocity": 12,
                "duration": 0.1023,
                "tempo": 120.0
            },
            {
                "pitch": 56,
                "velocity": 12,
                "duration": 0.3114,
                "tempo": 120.0
            },
            {
                "pitch": 74,
                "velocity": 12,
                "duration": 0.1045,
                "tempo": 120.0
            },
            {
                "pitch": 71,
                "velocity": 12,
                "duration": 0.1,
                "tempo": 120.0
            },
            {
                "pitch": 76,
                "velocity": 12,
                "duration": 0.3068,
                "tempo": 120.0
            },
            {
                "pitch": 72,
                "velocity": 12,
                "duration": 0.0977,
                "tempo": 120.0
            },
            {
                "pitch": 74,
                "velocity": 12,
                "duration": 0.1023,
                "tempo": 120.0
            },
            {
                "pitch": 76,
                "velocity": 12,
                "duration": 0.3,
                "tempo": 120.0
            },
            {
                "pitch": 76,
                "velocity": 12,
                "duration": 0.1,
                "tempo": 120.0
            },
            {
                "pitch": 72,
                "velocity": 12,
                "duration": 0.1,
                "tempo": 120.0
            },
            {
                "pitch": 74,
                "velocity": 12,
                "duration": 0.1,
                "tempo": 120.0
            },
            {
                "pitch": 76,
                "velocity": 12,
                "duration": 0.0977,
                "tempo": 120.0
            },
            {
                "pitch": 72,
                "velocity": 12,
                "duration": 0.0977,
                "tempo": 120.0
            },
            {
                "pitch": 74,
                "velocity": 12,
                "duration": 0.0977,
                "tempo": 120.0
            },
            {
                "pitch": 76,
                "velocity": 12,
                "duration": 0.1,
                "tempo": 120.0
            },
            {
                "pitch": 72,
                "velocity": 12,
                "duration": 0.0977,
                "tempo": 120.0
            },
            {
                "pitch": 74,
                "velocity": 12,
                "duration": 0.1023,
                "tempo": 120.0
            },
            {
                "pitch": 76,
                "velocity": 12,
                "duration": 0.1023,
                "tempo": 120.0
            },
            {
                "pitch": 72,
                "velocity": 12,
                "duration": 0.1045,
                "tempo": 120.0
            },
            {
                "pitch": 74,
                "velocity": 12,
                "duration": 0.1023,
                "tempo": 120.0
            },
            {
                "pitch": 76,
                "velocity": 12,
                "duration": 0.1045,
                "tempo": 120.0
            },
            {
                "pitch": 72,
                "velocity": 12,
                "duration": 0.1,
                "tempo": 120.0
            },
            {
                "pitch": 74,
                "velocity": 12,
                "duration": 0.0977,
                "tempo": 120.0
            },
            {
                "pitch": 74,
                "velocity": 12,
                "duration": 0.0977,
                "tempo": 120.0
            },
            {
                "pitch": 76,
                "velocity": 12,
                "duration": 0.2023,
                "tempo": 120.0
            },
            {
                "pitch": 74,
                "velocity": 12,
                "duration": 0.1,
                "tempo": 120.0
            },
            {
                "pitch": 76,
                "velocity": 12,
                "duration": 0.1977,
                "tempo": 120.0
            },
            {
                "pitch": 74,
                "velocity": 12,
                "duration": 0.0977,
                "tempo": 120.0
            },
            {
                "pitch": 76,
                "velocity": 12,
                "duration": 0.1977,
                "tempo": 120.0
            },
            {
                "pitch": 74,
                "velocity": 12,
                "duration": 0.1,
                "tempo": 120.0
            },
            {
                "pitch": 76,
                "velocity": 12,
                "duration": 0.2023,
                "tempo": 120.0
            },
            {
                "pitch": 74,
                "velocity": 12,
                "duration": 0.1045,
                "tempo": 120.0
            },
            {
                "pitch": 76,
                "velocity": 12,
                "duration": 0.2091,
                "tempo": 120.0
            }
        ],
        "Lead 2 (sawtooth)": [
            {
                "pitch": 0,
                "velocity": 0,
                "duration": 12.8341,
                "tempo": 0
            },
            {
                "pitch": 64,
                "velocity": 8,
                "duration": 0.2909,
                "tempo": 120.0
            },
            {
                "pitch": 62,
                "velocity": 8,
                "duration": 0.3636,
                "tempo": 120.0
            },
            {
                "pitch": 62,
                "velocity": 8,
                "duration": 0.3636,
                "tempo": 120.0
            },
            {
                "pitch": 60,
                "velocity": 8,
                "duration": 0.2523,
                "tempo": 120.0
            },
            {
                "pitch": 65,
                "velocity": 8,
                "duration": 0.375,
                "tempo": 120.0
            },
            {
                "pitch": 65,
                "velocity": 8,
                "duration": 0.375,
                "tempo": 120.0
            },
            {
                "pitch": 62,
                "velocity": 8,
                "duration": 0.3773,
                "tempo": 120.0
            },
            {
                "pitch": 62,
                "velocity": 8,
                "duration": 0.3773,
                "tempo": 120.0
            },
            {
                "pitch": 59,
                "velocity": 8,
                "duration": 0.2523,
                "tempo": 120.0
            },
            {
                "pitch": 56,
                "velocity": 8,
                "duration": 0.3773,
                "tempo": 120.0
            },
            {
                "pitch": 56,
                "velocity": 8,
                "duration": 0.3773,
                "tempo": 120.0
            },
            {
                "pitch": 59,
                "velocity": 8,
                "duration": 0.3795,
                "tempo": 120.0
            },
            {
                "pitch": 59,
                "velocity": 8,
                "duration": 0.3795,
                "tempo": 120.0
            },
            {
                "pitch": 60,
                "velocity": 8,
                "duration": 0.2523,
                "tempo": 120.0
            },
            {
                "pitch": 62,
                "velocity": 8,
                "duration": 0.3773,
                "tempo": 120.0
            },
            {
                "pitch": 64,
                "velocity": 8,
                "duration": 0.6295,
                "tempo": 120.0
            },
            {
                "pitch": 64,
                "velocity": 8,
                "duration": 0.375,
                "tempo": 120.0
            },
            {
                "pitch": 64,
                "velocity": 8,
                "duration": 0.375,
                "tempo": 120.0
            },
            {
                "pitch": 65,
                "velocity": 8,
                "duration": 0.2523,
                "tempo": 120.0
            },
            {
                "pitch": 64,
                "velocity": 8,
                "duration": 0.3773,
                "tempo": 120.0
            },
            {
                "pitch": 62,
                "velocity": 8,
                "duration": 0.375,
                "tempo": 120.0
            },
            {
                "pitch": 62,
                "velocity": 8,
                "duration": 0.375,
                "tempo": 120.0
            },
            {
                "pitch": 44,
                "velocity": 8,
                "duration": 3.2705,
                "tempo": 120.0
            },
            {
                "pitch": 60,
                "velocity": 8,
                "duration": 0.2523,
                "tempo": 120.0
            },
            {
                "pitch": 59,
                "velocity": 8,
                "duration": 0.375,
                "tempo": 120.0
            },
            {
                "pitch": 57,
                "velocity": 8,
                "duration": 0.3773,
                "tempo": 120.0
            },
            {
                "pitch": 57,
                "velocity": 8,
                "duration": 0.3773,
                "tempo": 120.0
            },
            {
                "pitch": 59,
                "velocity": 8,
                "duration": 0.2523,
                "tempo": 120.0
            },
            {
                "pitch": 59,
                "velocity": 8,
                "duration": 0.2523,
                "tempo": 120.0
            },
            {
                "pitch": 44,
                "velocity": 8,
                "duration": 1.3795,
                "tempo": 120.0
            },
            {
                "pitch": 65,
                "velocity": 8,
                "duration": 0.375,
                "tempo": 120.0
            },
            {
                "pitch": 59,
                "velocity": 8,
                "duration": 0.3841,
                "tempo": 120.0
            },
            {
                "pitch": 56,
                "velocity": 8,
                "duration": 0.2568,
                "tempo": 120.0
            },
            {
                "pitch": 56,
                "velocity": 8,
                "duration": 0.2568,
                "tempo": 120.0
            },
            {
                "pitch": 66,
                "velocity": 8,
                "duration": 1.0159,
                "tempo": 120.0
            },
            {
                "pitch": 52,
                "velocity": 8,
                "duration": 31.5955,
                "tempo": 120.0
            },
            {
                "pitch": 67,
                "velocity": 8,
                "duration": 0.1,
                "tempo": 120.0
            },
            {
                "pitch": 65,
                "velocity": 7,
                "duration": 0.1,
                "tempo": 120.0
            },
            {
                "pitch": 64,
                "velocity": 7,
                "duration": 0.1,
                "tempo": 120.0
            },
            {
                "pitch": 65,
                "velocity": 8,
                "duration": 0.1,
                "tempo": 120.0
            },
            {
                "pitch": 0,
                "velocity": 0,
                "duration": 0.0023,
                "tempo": 0
            },
            {
                "pitch": 64,
                "velocity": 7,
                "duration": 0.1,
                "tempo": 120.0
            },
            {
                "pitch": 62,
                "velocity": 7,
                "duration": 0.1,
                "tempo": 120.0
            },
            {
                "pitch": 62,
                "velocity": 7,
                "duration": 0.1,
                "tempo": 120.0
            },
            {
                "pitch": 64,
                "velocity": 7,
                "duration": 0.1,
                "tempo": 120.0
            },
            {
                "pitch": 64,
                "velocity": 8,
                "duration": 0.1,
                "tempo": 120.0
            },
            {
                "pitch": 62,
                "velocity": 7,
                "duration": 0.1,
                "tempo": 120.0
            },
            {
                "pitch": 62,
                "velocity": 8,
                "duration": 0.1,
                "tempo": 120.0
            },
            {
                "pitch": 60,
                "velocity": 7,
                "duration": 0.0977,
                "tempo": 120.0
            },
            {
                "pitch": 62,
                "velocity": 8,
                "duration": 0.0955,
                "tempo": 120.0
            },
            {
                "pitch": 44,
                "velocity": 8,
                "duration": 33.325,
                "tempo": 120.0
            },
            {
                "pitch": 60,
                "velocity": 7,
                "duration": 0.0932,
                "tempo": 120.0
            },
            {
                "pitch": 59,
                "velocity": 7,
                "duration": 0.0932,
                "tempo": 120.0
            },
            {
                "pitch": 44,
                "velocity": 7,
                "duration": 0.1886,
                "tempo": 120.0
            },
            {
                "pitch": 60,
                "velocity": 8,
                "duration": 0.0955,
                "tempo": 120.0
            },
            {
                "pitch": 59,
                "velocity": 7,
                "duration": 0.0932,
                "tempo": 120.0
            },
            {
                "pitch": 57,
                "velocity": 7,
                "duration": 0.0955,
                "tempo": 120.0
            },
            {
                "pitch": 57,
                "velocity": 7,
                "duration": 0.0955,
                "tempo": 120.0
            },
            {
                "pitch": 55,
                "velocity": 7,
                "duration": 0.0932,
                "tempo": 120.0
            },
            {
                "pitch": 55,
                "velocity": 7,
                "duration": 0.0932,
                "tempo": 120.0
            },
            {
                "pitch": 66,
                "velocity": 8,
                "duration": 33.1545,
                "tempo": 120.0
            },
            {
                "pitch": 53,
                "velocity": 8,
                "duration": 0.6568,
                "tempo": 120.0
            },
            {
                "pitch": 52,
                "velocity": 8,
                "duration": 0.0955,
                "tempo": 120.0
            }
        ],
        "Synth Bass 1": [
            {
                "pitch": 0,
                "velocity": 0,
                "duration": 20.35,
                "tempo": 0
            },
            {
                "pitch": 69,
                "velocity": 1,
                "duration": 0.1227,
                "tempo": 120.0
            },
            {
                "pitch": 0,
                "velocity": 0,
                "duration": 0.0023,
                "tempo": 0
            },
            {
                "pitch": 71,
                "velocity": 1,
                "duration": 0.125,
                "tempo": 120.0
            },
            {
                "pitch": 72,
                "velocity": 1,
                "duration": 0.625,
                "tempo": 120.0
            },
            {
                "pitch": 71,
                "velocity": 1,
                "duration": 0.2523,
                "tempo": 120.0
            },
            {
                "pitch": 76,
                "velocity": 1,
                "duration": 0.8773,
                "tempo": 120.0
            },
            {
                "pitch": 72,
                "velocity": 1,
                "duration": 0.125,
                "tempo": 120.0
            },
            {
                "pitch": 74,
                "velocity": 1,
                "duration": 0.3773,
                "tempo": 120.0
            },
            {
                "pitch": 74,
                "velocity": 1,
                "duration": 0.3773,
                "tempo": 120.0
            },
            {
                "pitch": 56,
                "velocity": 1,
                "duration": 1.0045,
                "tempo": 120.0
            },
            {
                "pitch": 72,
                "velocity": 1,
                "duration": 0.25,
                "tempo": 120.0
            },
            {
                "pitch": 72,
                "velocity": 1,
                "duration": 0.25,
                "tempo": 120.0
            },
            {
                "pitch": 71,
                "velocity": 1,
                "duration": 0.2523,
                "tempo": 120.0
            },
            {
                "pitch": 76,
                "velocity": 1,
                "duration": 1.0045,
                "tempo": 120.0
            },
            {
                "pitch": 72,
                "velocity": 1,
                "duration": 0.125,
                "tempo": 120.0
            },
            {
                "pitch": 56,
                "velocity": 1,
                "duration": 0.3795,
                "tempo": 120.0
            },
            {
                "pitch": 56,
                "velocity": 1,
                "duration": 0.0023,
                "tempo": 120.0
            },
            {
                "pitch": 71,
                "velocity": 1,
                "duration": 0.375,
                "tempo": 120.0
            },
            {
                "pitch": 67,
                "velocity": 1,
                "duration": 0.25,
                "tempo": 120.0
            },
            {
                "pitch": 67,
                "velocity": 1,
                "duration": 0.25,
                "tempo": 120.0
            },
            {
                "pitch": 64,
                "velocity": 1,
                "duration": 0.1295,
                "tempo": 120.0
            },
            {
                "pitch": 71,
                "velocity": 1,
                "duration": 0.1477,
                "tempo": 120.0
            },
            {
                "pitch": 0,
                "velocity": 0,
                "duration": 0.1091,
                "tempo": 0
            },
            {
                "pitch": 69,
                "velocity": 1,
                "duration": 0.7523,
                "tempo": 120.0
            },
            {
                "pitch": 69,
                "velocity": 1,
                "duration": 0.1227,
                "tempo": 120.0
            },
            {
                "pitch": 71,
                "velocity": 1,
                "duration": 0.1227,
                "tempo": 120.0
            },
            {
                "pitch": 76,
                "velocity": 1,
                "duration": 2.1364,
                "tempo": 120.0
            },
            {
                "pitch": 72,
                "velocity": 1,
                "duration": 0.6273,
                "tempo": 120.0
            },
            {
                "pitch": 71,
                "velocity": 1,
                "duration": 0.2568,
                "tempo": 120.0
            },
            {
                "pitch": 76,
                "velocity": 1,
                "duration": 0.8841,
                "tempo": 120.0
            },
            {
                "pitch": 72,
                "velocity": 1,
                "duration": 0.1273,
                "tempo": 120.0
            },
            {
                "pitch": 74,
                "velocity": 1,
                "duration": 0.3818,
                "tempo": 120.0
            },
            {
                "pitch": 74,
                "velocity": 1,
                "duration": 0.3818,
                "tempo": 120.0
            },
            {
                "pitch": 56,
                "velocity": 1,
                "duration": 1.0182,
                "tempo": 120.0
            },
            {
                "pitch": 72,
                "velocity": 1,
                "duration": 0.2523,
                "tempo": 120.0
            },
            {
                "pitch": 72,
                "velocity": 1,
                "duration": 0.2523,
                "tempo": 120.0
            },
            {
                "pitch": 71,
                "velocity": 1,
                "duration": 0.25,
                "tempo": 120.0
            },
            {
                "pitch": 76,
                "velocity": 1,
                "duration": 1.0114,
                "tempo": 120.0
            },
            {
                "pitch": 56,
                "velocity": 1,
                "duration": 0.375,
                "tempo": 120.0
            },
            {
                "pitch": 72,
                "velocity": 1,
                "duration": 0.125,
                "tempo": 120.0
            },
            {
                "pitch": 71,
                "velocity": 1,
                "duration": 1.75,
                "tempo": 120.0
            },
            {
                "pitch": 69,
                "velocity": 1,
                "duration": 0.1273,
                "tempo": 120.0
            },
            {
                "pitch": 71,
                "velocity": 1,
                "duration": 0.1295,
                "tempo": 120.0
            },
            {
                "pitch": 76,
                "velocity": 1,
                "duration": 2.1318,
                "tempo": 120.0
            },
            {
                "pitch": 56,
                "velocity": 1,
                "duration": 2.6364,
                "tempo": 120.0
            },
            {
                "pitch": 72,
                "velocity": 1,
                "duration": 0.6295,
                "tempo": 120.0
            },
            {
                "pitch": 71,
                "velocity": 1,
                "duration": 0.2523,
                "tempo": 120.0
            },
            {
                "pitch": 76,
                "velocity": 1,
                "duration": 0.8818,
                "tempo": 120.0
            },
            {
                "pitch": 72,
                "velocity": 1,
                "duration": 0.125,
                "tempo": 120.0
            },
            {
                "pitch": 74,
                "velocity": 1,
                "duration": 0.3773,
                "tempo": 120.0
            },
            {
                "pitch": 74,
                "velocity": 1,
                "duration": 0.3773,
                "tempo": 120.0
            },
            {
                "pitch": 56,
                "velocity": 1,
                "duration": 1.0045,
                "tempo": 120.0
            },
            {
                "pitch": 72,
                "velocity": 1,
                "duration": 0.25,
                "tempo": 120.0
            },
            {
                "pitch": 72,
                "velocity": 1,
                "duration": 0.25,
                "tempo": 120.0
            },
            {
                "pitch": 71,
                "velocity": 1,
                "duration": 0.25,
                "tempo": 120.0
            },
            {
                "pitch": 76,
                "velocity": 1,
                "duration": 1.0023,
                "tempo": 120.0
            },
            {
                "pitch": 56,
                "velocity": 1,
                "duration": 0.375,
                "tempo": 120.0
            },
            {
                "pitch": 72,
                "velocity": 1,
                "duration": 0.125,
                "tempo": 120.0
            },
            {
                "pitch": 71,
                "velocity": 1,
                "duration": 0.3773,
                "tempo": 120.0
            },
            {
                "pitch": 67,
                "velocity": 1,
                "duration": 0.2523,
                "tempo": 120.0
            },
            {
                "pitch": 67,
                "velocity": 1,
                "duration": 0.2523,
                "tempo": 120.0
            },
            {
                "pitch": 78,
                "velocity": 1,
                "duration": 8.05,
                "tempo": 120.0
            },
            {
                "pitch": 44,
                "velocity": 1,
                "duration": 8.0477,
                "tempo": 120.0
            },
            {
                "pitch": 64,
                "velocity": 1,
                "duration": 0.1273,
                "tempo": 120.0
            },
            {
                "pitch": 71,
                "velocity": 1,
                "duration": 0.15,
                "tempo": 120.0
            },
            {
                "pitch": 0,
                "velocity": 0,
                "duration": 0.1091,
                "tempo": 0
            },
            {
                "pitch": 69,
                "velocity": 1,
                "duration": 0.7432,
                "tempo": 120.0
            },
            {
                "pitch": 69,
                "velocity": 1,
                "duration": 0.125,
                "tempo": 120.0
            },
            {
                "pitch": 71,
                "velocity": 1,
                "duration": 0.125,
                "tempo": 120.0
            },
            {
                "pitch": 76,
                "velocity": 1,
                "duration": 2.1341,
                "tempo": 120.0
            },
            {
                "pitch": 56,
                "velocity": 1,
                "duration": 2.6364,
                "tempo": 120.0
            },
            {
                "pitch": 72,
                "velocity": 1,
                "duration": 0.625,
                "tempo": 120.0
            },
            {
                "pitch": 71,
                "velocity": 1,
                "duration": 0.2568,
                "tempo": 120.0
            },
            {
                "pitch": 76,
                "velocity": 1,
                "duration": 0.8841,
                "tempo": 120.0
            },
            {
                "pitch": 72,
                "velocity": 1,
                "duration": 0.1295,
                "tempo": 120.0
            },
            {
                "pitch": 74,
                "velocity": 1,
                "duration": 0.6318,
                "tempo": 120.0
            },
            {
                "pitch": 74,
                "velocity": 1,
                "duration": 0.6318,
                "tempo": 120.0
            },
            {
                "pitch": 74,
                "velocity": 1,
                "duration": 0.1227,
                "tempo": 120.0
            },
            {
                "pitch": 79,
                "velocity": 1,
                "duration": 0.1432,
                "tempo": 120.0
            }
        ],
        "Acoustic Grand Piano": [
            {
                "pitch": 0,
                "velocity": 0,
                "duration": 66.15,
                "tempo": 0
            },
            {
                "pitch": 108,
                "velocity": 15,
                "duration": 0.1,
                "tempo": 120.0
            }
        ]
    }
}