{
    "track_id": "10 Underground Dungeon (The Lost Talisman)_2",
    "mood": "angry",
    "instruments": {
        "Lead 1 (square)": [
            {
                "pitch": 65,
                "velocity": 8,
                "duration": 1.7159,
                "tempo": 120.0
            },
            {
                "pitch": 63,
                "velocity": 8,
                "duration": 1.475,
                "tempo": 120.0
            },
            {
                "pitch": 65,
                "velocity": 8,
                "duration": 1.475,
                "tempo": 120.0
            },
            {
                "pitch": 58,
                "velocity": 8,
                "duration": 0.2136,
                "tempo": 120.0
            },
            {
                "pitch": 61,
                "velocity": 8,
                "duration": 0.6568,
                "tempo": 120.0
            },
            {
                "pitch": 61,
                "velocity": 8,
                "duration": 1.0523,
                "tempo": 120.0
            },
            {
                "pitch": 60,
                "velocity": 8,
                "duration": 0.6545,
                "tempo": 120.0
            },
            {
                "pitch": 63,
                "velocity": 8,
                "duration": 1.0591,
                "tempo": 120.0
            },
            {
                "pitch": 65,
                "velocity": 8,
                "duration": 5.3386,
                "tempo": 120.0
            },
            {
                "pitch": 65,
                "velocity": 8,
                "duration": 1.7,
                "tempo": 120.0
            },
            {
                "pitch": 63,
                "velocity": 8,
                "duration": 3.2,
                "tempo": 120.0
            },
            {
                "pitch": 63,
                "velocity": 8,
                "duration": 1.5,
                "tempo": 120.0
            },
            {
                "pitch": 61,
                "velocity": 8,
                "duration": 4.3273,
                "tempo": 120.0
            },
            {
                "pitch": 61,
                "velocity": 7,
                "duration": 0.0659,
                "tempo": 120.0
            },
            {
                "pitch": 0,
                "velocity": 0,
                "duration": 0.0023,
                "tempo": 0
            },
            {
                "pitch": 61,
                "velocity": 7,
                "duration": 0.0659,
                "tempo": 120.0
            },
            {
                "pitch": 37,
                "velocity": 8,
                "duration": 6.8432,
                "tempo": 120.0
            },
            {
                "pitch": 58,
                "velocity": 7,
                "duration": 0.0841,
                "tempo": 120.0
            },
            {
                "pitch": 60,
                "velocity": 8,
                "duration": 1.6818,
                "tempo": 120.0
            },
            {
                "pitch": 77,
                "velocity": 10,
                "duration": 0.4318,
                "tempo": 120.0
            },
            {
                "pitch": 75,
                "velocity": 10,
                "duration": 0.4341,
                "tempo": 120.0
            },
            {
                "pitch": 80,
                "velocity": 10,
                "duration": 0.425,
                "tempo": 120.0
            },
            {
                "pitch": 78,
                "velocity": 10,
                "duration": 0.4273,
                "tempo": 120.0
            },
            {
                "pitch": 78,
                "velocity": 10,
                "duration": 0.1091,
                "tempo": 120.0
            },
            {
                "pitch": 77,
                "velocity": 10,
                "duration": 1.4909,
                "tempo": 120.0
            },
            {
                "pitch": 77,
                "velocity": 10,
                "duration": 0.0955,
                "tempo": 120.0
            },
            {
                "pitch": 75,
                "velocity": 10,
                "duration": 0.1114,
                "tempo": 120.0
            },
            {
                "pitch": 77,
                "velocity": 10,
                "duration": 0.65,
                "tempo": 120.0
            },
            {
                "pitch": 77,
                "velocity": 10,
                "duration": 0.5386,
                "tempo": 120.0
            },
            {
                "pitch": 77,
                "velocity": 10,
                "duration": 0.3182,
                "tempo": 120.0
            },
            {
                "pitch": 77,
                "velocity": 10,
                "duration": 0.3045,
                "tempo": 120.0
            },
            {
                "pitch": 90,
                "velocity": 10,
                "duration": 0.0023,
                "tempo": 120.0
            },
            {
                "pitch": 80,
                "velocity": 10,
                "duration": 0.2045,
                "tempo": 120.0
            },
            {
                "pitch": 77,
                "velocity": 10,
                "duration": 0.1182,
                "tempo": 120.0
            },
            {
                "pitch": 77,
                "velocity": 10,
                "duration": 0.1,
                "tempo": 120.0
            },
            {
                "pitch": 75,
                "velocity": 10,
                "duration": 1.6864,
                "tempo": 120.0
            },
            {
                "pitch": 75,
                "velocity": 10,
                "duration": 0.1,
                "tempo": 120.0
            },
            {
                "pitch": 77,
                "velocity": 10,
                "duration": 0.6591,
                "tempo": 120.0
            },
            {
                "pitch": 77,
                "velocity": 10,
                "duration": 0.5591,
                "tempo": 120.0
            },
            {
                "pitch": 70,
                "velocity": 10,
                "duration": 0.3182,
                "tempo": 120.0
            },
            {
                "pitch": 72,
                "velocity": 10,
                "duration": 4.9045,
                "tempo": 120.0
            },
            {
                "pitch": 72,
                "velocity": 10,
                "duration": 0.3068,
                "tempo": 120.0
            },
            {
                "pitch": 72,
                "velocity": 10,
                "duration": 0.2045,
                "tempo": 120.0
            },
            {
                "pitch": 73,
                "velocity": 10,
                "duration": 0.1023,
                "tempo": 120.0
            },
            {
                "pitch": 75,
                "velocity": 10,
                "duration": 1.6114,
                "tempo": 120.0
            },
            {
                "pitch": 75,
                "velocity": 10,
                "duration": 0.1205,
                "tempo": 120.0
            },
            {
                "pitch": 75,
                "velocity": 10,
                "duration": 0.1023,
                "tempo": 120.0
            },
            {
                "pitch": 73,
                "velocity": 10,
                "duration": 0.5364,
                "tempo": 120.0
            },
            {
                "pitch": 75,
                "velocity": 10,
                "duration": 0.3182,
                "tempo": 120.0
            },
            {
                "pitch": 77,
                "velocity": 10,
                "duration": 0.3159,
                "tempo": 120.0
            },
            {
                "pitch": 75,
                "velocity": 10,
                "duration": 0.5364,
                "tempo": 120.0
            },
            {
                "pitch": 75,
                "velocity": 10,
                "duration": 0.2205,
                "tempo": 120.0
            },
            {
                "pitch": 72,
                "velocity": 10,
                "duration": 0.3159,
                "tempo": 120.0
            },
            {
                "pitch": 49,
                "velocity": 10,
                "duration": 2.8614,
                "tempo": 120.0
            },
            {
                "pitch": 70,
                "velocity": 10,
                "duration": 0.3182,
                "tempo": 120.0
            },
            {
                "pitch": 72,
                "velocity": 10,
                "duration": 1.0636,
                "tempo": 120.0
            },
            {
                "pitch": 77,
                "velocity": 10,
                "duration": 2.0205,
                "tempo": 120.0
            },
            {
                "pitch": 77,
                "velocity": 10,
                "duration": 0.1023,
                "tempo": 120.0
            },
            {
                "pitch": 77,
                "velocity": 10,
                "duration": 0.1205,
                "tempo": 120.0
            },
            {
                "pitch": 75,
                "velocity": 10,
                "duration": 2.0227,
                "tempo": 120.0
            },
            {
                "pitch": 75,
                "velocity": 10,
                "duration": 0.1023,
                "tempo": 120.0
            },
            {
                "pitch": 77,
                "velocity": 10,
                "duration": 0.6182,
                "tempo": 120.0
            },
            {
                "pitch": 77,
                "velocity": 10,
                "duration": 0.5159,
                "tempo": 120.0
            },
            {
                "pitch": 77,
                "velocity": 10,
                "duration": 0.3159,
                "tempo": 120.0
            },
            {
                "pitch": 77,
                "velocity": 10,
                "duration": 0.3386,
                "tempo": 120.0
            },
            {
                "pitch": 80,
                "velocity": 10,
                "duration": 0.2205,
                "tempo": 120.0
            },
            {
                "pitch": 0,
                "velocity": 0,
                "duration": 0.0023,
                "tempo": 0
            },
            {
                "pitch": 77,
                "velocity": 10,
                "duration": 0.0977,
                "tempo": 120.0
            },
            {
                "pitch": 0,
                "velocity": 0,
                "duration": 0.0023,
                "tempo": 0
            },
            {
                "pitch": 77,
                "velocity": 10,
                "duration": 0.0977,
                "tempo": 120.0
            },
            {
                "pitch": 75,
                "velocity": 10,
                "duration": 1.7091,
                "tempo": 120.0
            },
            {
                "pitch": 75,
                "velocity": 10,
                "duration": 0.1182,
                "tempo": 120.0
            },
            {
                "pitch": 77,
                "velocity": 10,
                "duration": 0.6432,
                "tempo": 120.0
            },
            {
                "pitch": 77,
                "velocity": 10,
                "duration": 0.525,
                "tempo": 120.0
            },
            {
                "pitch": 77,
                "velocity": 10,
                "duration": 0.3091,
                "tempo": 120.0
            },
            {
                "pitch": 75,
                "velocity": 10,
                "duration": 1.1659,
                "tempo": 120.0
            },
            {
                "pitch": 75,
                "velocity": 10,
                "duration": 0.3318,
                "tempo": 120.0
            },
            {
                "pitch": 77,
                "velocity": 10,
                "duration": 0.5318,
                "tempo": 120.0
            },
            {
                "pitch": 77,
                "velocity": 10,
                "duration": 0.2,
                "tempo": 120.0
            },
            {
                "pitch": 73,
                "velocity": 10,
                "duration": 0.3273,
                "tempo": 120.0
            },
            {
                "pitch": 76,
                "velocity": 10,
                "duration": 5.1091,
                "tempo": 120.0
            },
            {
                "pitch": 70,
                "velocity": 10,
                "duration": 0.3182,
                "tempo": 120.0
            },
            {
                "pitch": 49,
                "velocity": 10,
                "duration": 5.1114,
                "tempo": 120.0
            },
            {
                "pitch": 49,
                "velocity": 10,
                "duration": 0.0023,
                "tempo": 120.0
            },
            {
                "pitch": 73,
                "velocity": 10,
                "duration": 0.6545,
                "tempo": 120.0
            },
            {
                "pitch": 76,
                "velocity": 10,
                "duration": 0.975,
                "tempo": 120.0
            },
            {
                "pitch": 70,
                "velocity": 10,
                "duration": 0.1,
                "tempo": 120.0
            },
            {
                "pitch": 72,
                "velocity": 10,
                "duration": 4.9023,
                "tempo": 120.0
            },
            {
                "pitch": 72,
                "velocity": 10,
                "duration": 0.1,
                "tempo": 120.0
            },
            {
                "pitch": 72,
                "velocity": 10,
                "duration": 0.2159,
                "tempo": 120.0
            },
            {
                "pitch": 73,
                "velocity": 10,
                "duration": 0.3273,
                "tempo": 120.0
            },
            {
                "pitch": 75,
                "velocity": 10,
                "duration": 2.2455,
                "tempo": 120.0
            },
            {
                "pitch": 72,
                "velocity": 10,
                "duration": 0.3159,
                "tempo": 120.0
            },
            {
                "pitch": 65,
                "velocity": 8,
                "duration": 18.7295,
                "tempo": 120.0
            },
            {
                "pitch": 75,
                "velocity": 10,
                "duration": 1.3614,
                "tempo": 120.0
            },
            {
                "pitch": 75,
                "velocity": 10,
                "duration": 1.0455,
                "tempo": 120.0
            },
            {
                "pitch": 37,
                "velocity": 8,
                "duration": 17.1295,
                "tempo": 120.0
            },
            {
                "pitch": 58,
                "velocity": 12,
                "duration": 0.1182,
                "tempo": 120.0
            },
            {
                "pitch": 60,
                "velocity": 12,
                "duration": 0.1023,
                "tempo": 120.0
            },
            {
                "pitch": 60,
                "velocity": 12,
                "duration": 0.1023,
                "tempo": 120.0
            },
            {
                "pitch": 63,
                "velocity": 7,
                "duration": 17.6727,
                "tempo": 120.0
            },
            {
                "pitch": 63,
                "velocity": 12,
                "duration": 0.1205,
                "tempo": 120.0
            },
            {
                "pitch": 65,
                "velocity": 12,
                "duration": 0.8864,
                "tempo": 120.0
            },
            {
                "pitch": 65,
                "velocity": 12,
                "duration": 0.4432,
                "tempo": 120.0
            },
            {
                "pitch": 65,
                "velocity": 12,
                "duration": 0.3091,
                "tempo": 120.0
            },
            {
                "pitch": 63,
                "velocity": 12,
                "duration": 1.0636,
                "tempo": 120.0
            },
            {
                "pitch": 63,
                "velocity": 12,
                "duration": 0.3114,
                "tempo": 120.0
            },
            {
                "pitch": 61,
                "velocity": 12,
                "duration": 1.3977,
                "tempo": 120.0
            },
            {
                "pitch": 61,
                "velocity": 12,
                "duration": 0.2136,
                "tempo": 120.0
            },
            {
                "pitch": 63,
                "velocity": 12,
                "duration": 0.3114,
                "tempo": 120.0
            },
            {
                "pitch": 63,
                "velocity": 12,
                "duration": 0.0977,
                "tempo": 120.0
            },
            {
                "pitch": 65,
                "velocity": 12,
                "duration": 0.6227,
                "tempo": 120.0
            },
            {
                "pitch": 58,
                "velocity": 12,
                "duration": 0.1182,
                "tempo": 120.0
            },
            {
                "pitch": 55,
                "velocity": 12,
                "duration": 0.1,
                "tempo": 120.0
            },
            {
                "pitch": 55,
                "velocity": 12,
                "duration": 0.1159,
                "tempo": 120.0
            },
            {
                "pitch": 51,
                "velocity": 12,
                "duration": 0.1023,
                "tempo": 120.0
            },
            {
                "pitch": 53,
                "velocity": 12,
                "duration": 0.2205,
                "tempo": 120.0
            },
            {
                "pitch": 53,
                "velocity": 12,
                "duration": 0.1182,
                "tempo": 120.0
            },
            {
                "pitch": 53,
                "velocity": 12,
                "duration": 0.1023,
                "tempo": 120.0
            },
            {
                "pitch": 67,
                "velocity": 12,
                "duration": 0.0023,
                "tempo": 120.0
            },
            {
                "pitch": 37,
                "velocity": 12,
                "duration": 2.4614,
                "tempo": 120.0
            },
            {
                "pitch": 58,
                "velocity": 12,
                "duration": 0.1023,
                "tempo": 120.0
            },
            {
                "pitch": 61,
                "velocity": 12,
                "duration": 0.9705,
                "tempo": 120.0
            },
            {
                "pitch": 61,
                "velocity": 12,
                "duration": 0.1114,
                "tempo": 120.0
            },
            {
                "pitch": 64,
                "velocity": 7,
                "duration": 19.7864,
                "tempo": 120.0
            },
            {
                "pitch": 58,
                "velocity": 12,
                "duration": 0.0932,
                "tempo": 120.0
            },
            {
                "pitch": 37,
                "velocity": 12,
                "duration": 0.2068,
                "tempo": 120.0
            },
            {
                "pitch": 61,
                "velocity": 12,
                "duration": 0.1091,
                "tempo": 120.0
            },
            {
                "pitch": 61,
                "velocity": 12,
                "duration": 0.0023,
                "tempo": 120.0
            },
            {
                "pitch": 66,
                "velocity": 12,
                "duration": 0.0955,
                "tempo": 120.0
            },
            {
                "pitch": 65,
                "velocity": 12,
                "duration": 1.2909,
                "tempo": 120.0
            },
            {
                "pitch": 66,
                "velocity": 12,
                "duration": 0.1159,
                "tempo": 120.0
            },
            {
                "pitch": 63,
                "velocity": 12,
                "duration": 0.1,
                "tempo": 120.0
            },
            {
                "pitch": 61,
                "velocity": 12,
                "duration": 0.1,
                "tempo": 120.0
            },
            {
                "pitch": 61,
                "velocity": 12,
                "duration": 0.1182,
                "tempo": 120.0
            },
            {
                "pitch": 72,
                "velocity": 10,
                "duration": 7.9818,
                "tempo": 120.0
            },
            {
                "pitch": 72,
                "velocity": 10,
                "duration": 0.1,
                "tempo": 120.0
            },
            {
                "pitch": 73,
                "velocity": 10,
                "duration": 0.1023,
                "tempo": 120.0
            },
            {
                "pitch": 76,
                "velocity": 10,
                "duration": 9.1432,
                "tempo": 120.0
            },
            {
                "pitch": 49,
                "velocity": 10,
                "duration": 9.1636,
                "tempo": 120.0
            },
            {
                "pitch": 70,
                "velocity": 10,
                "duration": 0.1205,
                "tempo": 120.0
            },
            {
                "pitch": 73,
                "velocity": 10,
                "duration": 0.2159,
                "tempo": 120.0
            },
            {
                "pitch": 76,
                "velocity": 10,
                "duration": 0.3364,
                "tempo": 120.0
            },
            {
                "pitch": 49,
                "velocity": 10,
                "duration": 0.5273,
                "tempo": 120.0
            },
            {
                "pitch": 70,
                "velocity": 10,
                "duration": 0.3114,
                "tempo": 120.0
            },
            {
                "pitch": 73,
                "velocity": 8,
                "duration": 0.1,
                "tempo": 120.0
            },
            {
                "pitch": 73,
                "velocity": 8,
                "duration": 0.1159,
                "tempo": 120.0
            },
            {
                "pitch": 76,
                "velocity": 10,
                "duration": 0.5273,
                "tempo": 120.0
            },
            {
                "pitch": 70,
                "velocity": 8,
                "duration": 0.1,
                "tempo": 120.0
            },
            {
                "pitch": 49,
                "velocity": 8,
                "duration": 0.3182,
                "tempo": 120.0
            },
            {
                "pitch": 73,
                "velocity": 8,
                "duration": 0.2159,
                "tempo": 120.0
            },
            {
                "pitch": 76,
                "velocity": 8,
                "duration": 0.3182,
                "tempo": 120.0
            },
            {
                "pitch": 70,
                "velocity": 8,
                "duration": 0.325,
                "tempo": 120.0
            },
            {
                "pitch": 49,
                "velocity": 8,
                "duration": 0.5432,
                "tempo": 120.0
            },
            {
                "pitch": 75,
                "velocity": 10,
                "duration": 0.1091,
                "tempo": 120.0
            },
            {
                "pitch": 75,
                "velocity": 10,
                "duration": 0.0955,
                "tempo": 120.0
            },
            {
                "pitch": 73,
                "velocity": 10,
                "duration": 0.1114,
                "tempo": 120.0
            },
            {
                "pitch": 75,
                "velocity": 10,
                "duration": 0.2114,
                "tempo": 120.0
            },
            {
                "pitch": 72,
                "velocity": 10,
                "duration": 0.5295,
                "tempo": 120.0
            },
            {
                "pitch": 72,
                "velocity": 10,
                "duration": 0.3182,
                "tempo": 120.0
            },
            {
                "pitch": 75,
                "velocity": 10,
                "duration": 0.4159,
                "tempo": 120.0
            },
            {
                "pitch": 75,
                "velocity": 8,
                "duration": 0.0977,
                "tempo": 120.0
            },
            {
                "pitch": 0,
                "velocity": 0,
                "duration": 0.0023,
                "tempo": 0
            },
            {
                "pitch": 75,
                "velocity": 8,
                "duration": 0.1159,
                "tempo": 120.0
            },
            {
                "pitch": 72,
                "velocity": 8,
                "duration": 0.3159,
                "tempo": 120.0
            },
            {
                "pitch": 73,
                "velocity": 8,
                "duration": 0.1,
                "tempo": 120.0
            },
            {
                "pitch": 75,
                "velocity": 8,
                "duration": 0.2159,
                "tempo": 120.0
            },
            {
                "pitch": 72,
                "velocity": 8,
                "duration": 0.5341,
                "tempo": 120.0
            },
            {
                "pitch": 72,
                "velocity": 8,
                "duration": 0.3182,
                "tempo": 120.0
            },
            {
                "pitch": 77,
                "velocity": 10,
                "duration": 13.7636,
                "tempo": 120.0
            },
            {
                "pitch": 77,
                "velocity": 10,
                "duration": 0.1114,
                "tempo": 120.0
            },
            {
                "pitch": 75,
                "velocity": 8,
                "duration": 0.5295,
                "tempo": 120.0
            },
            {
                "pitch": 75,
                "velocity": 10,
                "duration": 0.0977,
                "tempo": 120.0
            },
            {
                "pitch": 72,
                "velocity": 10,
                "duration": 0.325,
                "tempo": 120.0
            },
            {
                "pitch": 72,
                "velocity": 10,
                "duration": 0.1159,
                "tempo": 120.0
            },
            {
                "pitch": 72,
                "velocity": 10,
                "duration": 0.0977,
                "tempo": 120.0
            },
            {
                "pitch": 77,
                "velocity": 10,
                "duration": 0.4114,
                "tempo": 120.0
            },
            {
                "pitch": 77,
                "velocity": 10,
                "duration": 0.1,
                "tempo": 120.0
            },
            {
                "pitch": 75,
                "velocity": 10,
                "duration": 0.4295,
                "tempo": 120.0
            },
            {
                "pitch": 75,
                "velocity": 10,
                "duration": 0.1159,
                "tempo": 120.0
            },
            {
                "pitch": 89,
                "velocity": 10,
                "duration": 25.3477,
                "tempo": 120.0
            },
            {
                "pitch": 80,
                "velocity": 10,
                "duration": 0.1,
                "tempo": 120.0
            },
            {
                "pitch": 78,
                "velocity": 10,
                "duration": 22.1523,
                "tempo": 120.0
            },
            {
                "pitch": 78,
                "velocity": 10,
                "duration": 0.1182,
                "tempo": 120.0
            },
            {
                "pitch": 78,
                "velocity": 10,
                "duration": 0.1,
                "tempo": 120.0
            },
            {
                "pitch": 77,
                "velocity": 10,
                "duration": 0.55,
                "tempo": 120.0
            },
            {
                "pitch": 77,
                "velocity": 10,
                "duration": 0.1159,
                "tempo": 120.0
            },
            {
                "pitch": 78,
                "velocity": 10,
                "duration": 0.0023,
                "tempo": 120.0
            },
            {
                "pitch": 75,
                "velocity": 10,
                "duration": 0.0977,
                "tempo": 120.0
            },
            {
                "pitch": 77,
                "velocity": 10,
                "duration": 0.1,
                "tempo": 120.0
            },
            {
                "pitch": 73,
                "velocity": 10,
                "duration": 0.9636,
                "tempo": 120.0
            },
            {
                "pitch": 73,
                "velocity": 10,
                "duration": 0.1114,
                "tempo": 120.0
            },
            {
                "pitch": 73,
                "velocity": 10,
                "duration": 0.1,
                "tempo": 120.0
            },
            {
                "pitch": 75,
                "velocity": 10,
                "duration": 0.3136,
                "tempo": 120.0
            },
            {
                "pitch": 72,
                "velocity": 10,
                "duration": 0.1136,
                "tempo": 120.0
            },
            {
                "pitch": 72,
                "velocity": 10,
                "duration": 0.0977,
                "tempo": 120.0
            },
            {
                "pitch": 65,
                "velocity": 12,
                "duration": 8.95,
                "tempo": 120.0
            },
            {
                "pitch": 65,
                "velocity": 10,
                "duration": 0.1159,
                "tempo": 120.0
            },
            {
                "pitch": 63,
                "velocity": 12,
                "duration": 8.95,
                "tempo": 120.0
            },
            {
                "pitch": 63,
                "velocity": 10,
                "duration": 0.1,
                "tempo": 120.0
            },
            {
                "pitch": 60,
                "velocity": 10,
                "duration": 0.1,
                "tempo": 120.0
            },
            {
                "pitch": 60,
                "velocity": 10,
                "duration": 0.1182,
                "tempo": 120.0
            },
            {
                "pitch": 61,
                "velocity": 10,
                "duration": 0.4341,
                "tempo": 120.0
            },
            {
                "pitch": 65,
                "velocity": 10,
                "duration": 0.4205,
                "tempo": 120.0
            },
            {
                "pitch": 65,
                "velocity": 10,
                "duration": 0.1023,
                "tempo": 120.0
            },
            {
                "pitch": 63,
                "velocity": 10,
                "duration": 0.4386,
                "tempo": 120.0
            },
            {
                "pitch": 63,
                "velocity": 10,
                "duration": 0.1182,
                "tempo": 120.0
            },
            {
                "pitch": 77,
                "velocity": 10,
                "duration": 1.0773,
                "tempo": 120.0
            },
            {
                "pitch": 68,
                "velocity": 10,
                "duration": 0.1023,
                "tempo": 120.0
            },
            {
                "pitch": 65,
                "velocity": 10,
                "duration": 0.3409,
                "tempo": 120.0
            },
            {
                "pitch": 65,
                "velocity": 10,
                "duration": 0.1205,
                "tempo": 120.0
            },
            {
                "pitch": 49,
                "velocity": 10,
                "duration": 5.1159,
                "tempo": 120.0
            },
            {
                "pitch": 70,
                "velocity": 10,
                "duration": 0.8432,
                "tempo": 120.0
            },
            {
                "pitch": 73,
                "velocity": 10,
                "duration": 0.0955,
                "tempo": 120.0
            },
            {
                "pitch": 73,
                "velocity": 10,
                "duration": 0.1159,
                "tempo": 120.0
            },
            {
                "pitch": 76,
                "velocity": 8,
                "duration": 5.6545,
                "tempo": 120.0
            },
            {
                "pitch": 49,
                "velocity": 10,
                "duration": 0.3091,
                "tempo": 120.0
            },
            {
                "pitch": 70,
                "velocity": 10,
                "duration": 0.0977,
                "tempo": 120.0
            },
            {
                "pitch": 73,
                "velocity": 10,
                "duration": 0.2136,
                "tempo": 120.0
            },
            {
                "pitch": 76,
                "velocity": 10,
                "duration": 0.3114,
                "tempo": 120.0
            },
            {
                "pitch": 49,
                "velocity": 10,
                "duration": 0.5318,
                "tempo": 120.0
            },
            {
                "pitch": 70,
                "velocity": 10,
                "duration": 0.3182,
                "tempo": 120.0
            },
            {
                "pitch": 73,
                "velocity": 8,
                "duration": 0.1136,
                "tempo": 120.0
            },
            {
                "pitch": 73,
                "velocity": 8,
                "duration": 0.0977,
                "tempo": 120.0
            },
            {
                "pitch": 76,
                "velocity": 10,
                "duration": 0.5295,
                "tempo": 120.0
            },
            {
                "pitch": 49,
                "velocity": 8,
                "duration": 0.3273,
                "tempo": 120.0
            },
            {
                "pitch": 70,
                "velocity": 8,
                "duration": 0.1159,
                "tempo": 120.0
            },
            {
                "pitch": 73,
                "velocity": 8,
                "duration": 0.2136,
                "tempo": 120.0
            },
            {
                "pitch": 76,
                "velocity": 8,
                "duration": 0.3295,
                "tempo": 120.0
            },
            {
                "pitch": 49,
                "velocity": 8,
                "duration": 0.5318,
                "tempo": 120.0
            },
            {
                "pitch": 70,
                "velocity": 8,
                "duration": 0.3182,
                "tempo": 120.0
            },
            {
                "pitch": 75,
                "velocity": 10,
                "duration": 3.7295,
                "tempo": 120.0
            },
            {
                "pitch": 75,
                "velocity": 10,
                "duration": 0.0977,
                "tempo": 120.0
            },
            {
                "pitch": 75,
                "velocity": 10,
                "duration": 0.1182,
                "tempo": 120.0
            },
            {
                "pitch": 73,
                "velocity": 10,
                "duration": 0.1,
                "tempo": 120.0
            },
            {
                "pitch": 75,
                "velocity": 10,
                "duration": 0.2159,
                "tempo": 120.0
            },
            {
                "pitch": 72,
                "velocity": 10,
                "duration": 0.5341,
                "tempo": 120.0
            },
            {
                "pitch": 72,
                "velocity": 10,
                "duration": 0.3182,
                "tempo": 120.0
            },
            {
                "pitch": 75,
                "velocity": 10,
                "duration": 0.4318,
                "tempo": 120.0
            },
            {
                "pitch": 75,
                "velocity": 8,
                "duration": 0.1136,
                "tempo": 120.0
            },
            {
                "pitch": 75,
                "velocity": 8,
                "duration": 0.0977,
                "tempo": 120.0
            },
            {
                "pitch": 72,
                "velocity": 8,
                "duration": 0.325,
                "tempo": 120.0
            },
            {
                "pitch": 73,
                "velocity": 8,
                "duration": 0.1136,
                "tempo": 120.0
            },
            {
                "pitch": 75,
                "velocity": 8,
                "duration": 0.1977,
                "tempo": 120.0
            },
            {
                "pitch": 72,
                "velocity": 8,
                "duration": 0.5341,
                "tempo": 120.0
            },
            {
                "pitch": 72,
                "velocity": 8,
                "duration": 0.3364,
                "tempo": 120.0
            },
            {
                "pitch": 76,
                "velocity": 8,
                "duration": 2.0273,
                "tempo": 120.0
            },
            {
                "pitch": 49,
                "velocity": 10,
                "duration": 3.425,
                "tempo": 120.0
            },
            {
                "pitch": 70,
                "velocity": 10,
                "duration": 1.7159,
                "tempo": 120.0
            },
            {
                "pitch": 77,
                "velocity": 10,
                "duration": 6.6068,
                "tempo": 120.0
            },
            {
                "pitch": 77,
                "velocity": 10,
                "duration": 0.4159,
                "tempo": 120.0
            },
            {
                "pitch": 75,
                "velocity": 8,
                "duration": 2.8932,
                "tempo": 120.0
            },
            {
                "pitch": 75,
                "velocity": 10,
                "duration": 0.425,
                "tempo": 120.0
            },
            {
                "pitch": 89,
                "velocity": 10,
                "duration": 8.7455,
                "tempo": 120.0
            },
            {
                "pitch": 80,
                "velocity": 10,
                "duration": 0.4341,
                "tempo": 120.0
            },
            {
                "pitch": 78,
                "velocity": 10,
                "duration": 7.6614,
                "tempo": 120.0
            },
            {
                "pitch": 78,
                "velocity": 10,
                "duration": 0.4182,
                "tempo": 120.0
            }
        ],
        "Lead 2 (sawtooth)": [
            {
                "pitch": 46,
                "velocity": 4,
                "duration": 0.2045,
                "tempo": 120.0
            },
            {
                "pitch": 46,
                "velocity": 4,
                "duration": 0.1114,
                "tempo": 120.0
            },
            {
                "pitch": 46,
                "velocity": 4,
                "duration": 0.0955,
                "tempo": 120.0
            },
            {
                "pitch": 46,
                "velocity": 4,
                "duration": 0.2159,
                "tempo": 120.0
            },
            {
                "pitch": 53,
                "velocity": 4,
                "duration": 0.3205,
                "tempo": 120.0
            },
            {
                "pitch": 46,
                "velocity": 4,
                "duration": 0.2205,
                "tempo": 120.0
            },
            {
                "pitch": 46,
                "velocity": 4,
                "duration": 0.1205,
                "tempo": 120.0
            },
            {
                "pitch": 49,
                "velocity": 4,
                "duration": 0.2045,
                "tempo": 120.0
            },
            {
                "pitch": 51,
                "velocity": 4,
                "duration": 0.2227,
                "tempo": 120.0
            },
            {
                "pitch": 46,
                "velocity": 4,
                "duration": 0.2068,
                "tempo": 120.0
            },
            {
                "pitch": 46,
                "velocity": 4,
                "duration": 0.1114,
                "tempo": 120.0
            },
            {
                "pitch": 46,
                "velocity": 4,
                "duration": 0.0932,
                "tempo": 120.0
            },
            {
                "pitch": 0,
                "velocity": 0,
                "duration": 0.0023,
                "tempo": 0
            },
            {
                "pitch": 46,
                "velocity": 4,
                "duration": 0.2159,
                "tempo": 120.0
            },
            {
                "pitch": 53,
                "velocity": 4,
                "duration": 0.9455,
                "tempo": 120.0
            },
            {
                "pitch": 53,
                "velocity": 4,
                "duration": 0.3159,
                "tempo": 120.0
            },
            {
                "pitch": 54,
                "velocity": 4,
                "duration": 1.7136,
                "tempo": 120.0
            },
            {
                "pitch": 46,
                "velocity": 4,
                "duration": 0.2182,
                "tempo": 120.0
            },
            {
                "pitch": 46,
                "velocity": 4,
                "duration": 0.1,
                "tempo": 120.0
            },
            {
                "pitch": 49,
                "velocity": 4,
                "duration": 1.7,
                "tempo": 120.0
            },
            {
                "pitch": 49,
                "velocity": 4,
                "duration": 0.2136,
                "tempo": 120.0
            },
            {
                "pitch": 51,
                "velocity": 4,
                "duration": 0.2114,
                "tempo": 120.0
            },
            {
                "pitch": 54,
                "velocity": 4,
                "duration": 0.9591,
                "tempo": 120.0
            },
            {
                "pitch": 54,
                "velocity": 4,
                "duration": 0.2136,
                "tempo": 120.0
            },
            {
                "pitch": 54,
                "velocity": 4,
                "duration": 0.1,
                "tempo": 120.0
            },
            {
                "pitch": 54,
                "velocity": 4,
                "duration": 0.1182,
                "tempo": 120.0
            },
            {
                "pitch": 54,
                "velocity": 4,
                "duration": 0.2227,
                "tempo": 120.0
            },
            {
                "pitch": 49,
                "velocity": 4,
                "duration": 1.1886,
                "tempo": 120.0
            },
            {
                "pitch": 61,
                "velocity": 4,
                "duration": 0.3205,
                "tempo": 120.0
            },
            {
                "pitch": 54,
                "velocity": 4,
                "duration": 0.2159,
                "tempo": 120.0
            },
            {
                "pitch": 54,
                "velocity": 4,
                "duration": 0.1,
                "tempo": 120.0
            },
            {
                "pitch": 66,
                "velocity": 4,
                "duration": 0.6364,
                "tempo": 120.0
            },
            {
                "pitch": 58,
                "velocity": 4,
                "duration": 0.2068,
                "tempo": 120.0
            },
            {
                "pitch": 60,
                "velocity": 4,
                "duration": 0.2091,
                "tempo": 120.0
            },
            {
                "pitch": 54,
                "velocity": 4,
                "duration": 0.2136,
                "tempo": 120.0
            },
            {
                "pitch": 0,
                "velocity": 0,
                "duration": 0.0023,
                "tempo": 0
            },
            {
                "pitch": 54,
                "velocity": 4,
                "duration": 0.1,
                "tempo": 120.0
            },
            {
                "pitch": 54,
                "velocity": 4,
                "duration": 0.1159,
                "tempo": 120.0
            },
            {
                "pitch": 54,
                "velocity": 4,
                "duration": 0.2227,
                "tempo": 120.0
            },
            {
                "pitch": 66,
                "velocity": 4,
                "duration": 1.0705,
                "tempo": 120.0
            },
            {
                "pitch": 61,
                "velocity": 4,
                "duration": 0.3136,
                "tempo": 120.0
            },
            {
                "pitch": 49,
                "velocity": 4,
                "duration": 1.7023,
                "tempo": 120.0
            },
            {
                "pitch": 54,
                "velocity": 4,
                "duration": 0.2045,
                "tempo": 120.0
            },
            {
                "pitch": 54,
                "velocity": 4,
                "duration": 0.0955,
                "tempo": 120.0
            },
            {
                "pitch": 66,
                "velocity": 4,
                "duration": 0.6159,
                "tempo": 120.0
            },
            {
                "pitch": 58,
                "velocity": 4,
                "duration": 0.2205,
                "tempo": 120.0
            },
            {
                "pitch": 37,
                "velocity": 4,
                "duration": 1.7023,
                "tempo": 120.0
            },
            {
                "pitch": 37,
                "velocity": 4,
                "duration": 0.0023,
                "tempo": 120.0
            },
            {
                "pitch": 60,
                "velocity": 4,
                "duration": 0.2227,
                "tempo": 120.0
            },
            {
                "pitch": 46,
                "velocity": 4,
                "duration": 0.2091,
                "tempo": 120.0
            },
            {
                "pitch": 46,
                "velocity": 4,
                "duration": 0.1,
                "tempo": 120.0
            },
            {
                "pitch": 46,
                "velocity": 4,
                "duration": 0.1136,
                "tempo": 120.0
            },
            {
                "pitch": 46,
                "velocity": 4,
                "duration": 0.2045,
                "tempo": 120.0
            },
            {
                "pitch": 53,
                "velocity": 4,
                "duration": 0.3364,
                "tempo": 120.0
            },
            {
                "pitch": 46,
                "velocity": 4,
                "duration": 0.2114,
                "tempo": 120.0
            },
            {
                "pitch": 46,
                "velocity": 4,
                "duration": 0.0977,
                "tempo": 120.0
            },
            {
                "pitch": 49,
                "velocity": 4,
                "duration": 2.2318,
                "tempo": 120.0
            },
            {
                "pitch": 49,
                "velocity": 4,
                "duration": 0.2114,
                "tempo": 120.0
            },
            {
                "pitch": 51,
                "velocity": 4,
                "duration": 5.1227,
                "tempo": 120.0
            },
            {
                "pitch": 51,
                "velocity": 4,
                "duration": 0.2136,
                "tempo": 120.0
            },
            {
                "pitch": 46,
                "velocity": 4,
                "duration": 0.2159,
                "tempo": 120.0
            },
            {
                "pitch": 46,
                "velocity": 4,
                "duration": 0.1,
                "tempo": 120.0
            },
            {
                "pitch": 46,
                "velocity": 4,
                "duration": 0.1,
                "tempo": 120.0
            },
            {
                "pitch": 46,
                "velocity": 4,
                "duration": 0.2159,
                "tempo": 120.0
            },
            {
                "pitch": 53,
                "velocity": 4,
                "duration": 0.9659,
                "tempo": 120.0
            },
            {
                "pitch": 53,
                "velocity": 4,
                "duration": 0.3341,
                "tempo": 120.0
            },
            {
                "pitch": 54,
                "velocity": 4,
                "duration": 1.7023,
                "tempo": 120.0
            },
            {
                "pitch": 46,
                "velocity": 4,
                "duration": 0.2,
                "tempo": 120.0
            },
            {
                "pitch": 46,
                "velocity": 4,
                "duration": 0.1182,
                "tempo": 120.0
            },
            {
                "pitch": 49,
                "velocity": 4,
                "duration": 1.7136,
                "tempo": 120.0
            },
            {
                "pitch": 49,
                "velocity": 4,
                "duration": 0.2159,
                "tempo": 120.0
            },
            {
                "pitch": 0,
                "velocity": 0,
                "duration": 0.0023,
                "tempo": 0
            },
            {
                "pitch": 51,
                "velocity": 4,
                "duration": 0.2159,
                "tempo": 120.0
            },
            {
                "pitch": 0,
                "velocity": 0,
                "duration": 0.0023,
                "tempo": 0
            },
            {
                "pitch": 53,
                "velocity": 4,
                "duration": 0.1977,
                "tempo": 120.0
            },
            {
                "pitch": 53,
                "velocity": 4,
                "duration": 0.1182,
                "tempo": 120.0
            },
            {
                "pitch": 53,
                "velocity": 4,
                "duration": 0.1,
                "tempo": 120.0
            },
            {
                "pitch": 66,
                "velocity": 4,
                "duration": 4.2818,
                "tempo": 120.0
            },
            {
                "pitch": 58,
                "velocity": 4,
                "duration": 0.2068,
                "tempo": 120.0
            },
            {
                "pitch": 48,
                "velocity": 4,
                "duration": 6.0636,
                "tempo": 120.0
            },
            {
                "pitch": 60,
                "velocity": 4,
                "duration": 0.3045,
                "tempo": 120.0
            },
            {
                "pitch": 53,
                "velocity": 4,
                "duration": 0.2159,
                "tempo": 120.0
            },
            {
                "pitch": 0,
                "velocity": 0,
                "duration": 0.0023,
                "tempo": 0
            },
            {
                "pitch": 53,
                "velocity": 4,
                "duration": 0.1159,
                "tempo": 120.0
            },
            {
                "pitch": 51,
                "velocity": 4,
                "duration": 1.4773,
                "tempo": 120.0
            },
            {
                "pitch": 51,
                "velocity": 4,
                "duration": 0.2159,
                "tempo": 120.0
            },
            {
                "pitch": 51,
                "velocity": 4,
                "duration": 0.2023,
                "tempo": 120.0
            },
            {
                "pitch": 52,
                "velocity": 4,
                "duration": 5.3136,
                "tempo": 120.0
            },
            {
                "pitch": 52,
                "velocity": 4,
                "duration": 0.2136,
                "tempo": 120.0
            },
            {
                "pitch": 53,
                "velocity": 4,
                "duration": 0.75,
                "tempo": 120.0
            },
            {
                "pitch": 53,
                "velocity": 4,
                "duration": 0.1182,
                "tempo": 120.0
            },
            {
                "pitch": 53,
                "velocity": 4,
                "duration": 0.1,
                "tempo": 120.0
            },
            {
                "pitch": 66,
                "velocity": 4,
                "duration": 1.6977,
                "tempo": 120.0
            },
            {
                "pitch": 37,
                "velocity": 4,
                "duration": 1.7045,
                "tempo": 120.0
            },
            {
                "pitch": 58,
                "velocity": 4,
                "duration": 0.2136,
                "tempo": 120.0
            },
            {
                "pitch": 48,
                "velocity": 4,
                "duration": 1.7159,
                "tempo": 120.0
            },
            {
                "pitch": 60,
                "velocity": 4,
                "duration": 0.3159,
                "tempo": 120.0
            },
            {
                "pitch": 53,
                "velocity": 4,
                "duration": 0.1136,
                "tempo": 120.0
            },
            {
                "pitch": 51,
                "velocity": 4,
                "duration": 0.0977,
                "tempo": 120.0
            },
            {
                "pitch": 48,
                "velocity": 4,
                "duration": 0.3273,
                "tempo": 120.0
            },
            {
                "pitch": 48,
                "velocity": 4,
                "duration": 0.1159,
                "tempo": 120.0
            },
            {
                "pitch": 46,
                "velocity": 4,
                "duration": 0.1,
                "tempo": 120.0
            },
            {
                "pitch": 0,
                "velocity": 0,
                "duration": 0.0023,
                "tempo": 0
            },
            {
                "pitch": 48,
                "velocity": 4,
                "duration": 0.1,
                "tempo": 120.0
            },
            {
                "pitch": 51,
                "velocity": 4,
                "duration": 0.4386,
                "tempo": 120.0
            },
            {
                "pitch": 51,
                "velocity": 4,
                "duration": 0.1182,
                "tempo": 120.0
            },
            {
                "pitch": 53,
                "velocity": 4,
                "duration": 0.6409,
                "tempo": 120.0
            },
            {
                "pitch": 53,
                "velocity": 4,
                "duration": 0.1045,
                "tempo": 120.0
            },
            {
                "pitch": 34,
                "velocity": 4,
                "duration": 0.2045,
                "tempo": 120.0
            },
            {
                "pitch": 34,
                "velocity": 4,
                "duration": 0.1114,
                "tempo": 120.0
            },
            {
                "pitch": 34,
                "velocity": 4,
                "duration": 0.0955,
                "tempo": 120.0
            },
            {
                "pitch": 34,
                "velocity": 4,
                "duration": 0.2205,
                "tempo": 120.0
            },
            {
                "pitch": 41,
                "velocity": 4,
                "duration": 0.3227,
                "tempo": 120.0
            },
            {
                "pitch": 42,
                "velocity": 4,
                "duration": 0.9545,
                "tempo": 120.0
            },
            {
                "pitch": 34,
                "velocity": 4,
                "duration": 0.2182,
                "tempo": 120.0
            },
            {
                "pitch": 34,
                "velocity": 4,
                "duration": 0.0977,
                "tempo": 120.0
            },
            {
                "pitch": 37,
                "velocity": 4,
                "duration": 2.55,
                "tempo": 120.0
            },
            {
                "pitch": 37,
                "velocity": 4,
                "duration": 0.2091,
                "tempo": 120.0
            },
            {
                "pitch": 39,
                "velocity": 4,
                "duration": 0.2068,
                "tempo": 120.0
            },
            {
                "pitch": 34,
                "velocity": 4,
                "duration": 0.2159,
                "tempo": 120.0
            },
            {
                "pitch": 34,
                "velocity": 4,
                "duration": 0.1,
                "tempo": 120.0
            },
            {
                "pitch": 34,
                "velocity": 4,
                "duration": 0.1159,
                "tempo": 120.0
            },
            {
                "pitch": 34,
                "velocity": 4,
                "duration": 0.2205,
                "tempo": 120.0
            },
            {
                "pitch": 41,
                "velocity": 4,
                "duration": 0.975,
                "tempo": 120.0
            },
            {
                "pitch": 41,
                "velocity": 4,
                "duration": 0.3227,
                "tempo": 120.0
            },
            {
                "pitch": 42,
                "velocity": 4,
                "duration": 1.7068,
                "tempo": 120.0
            },
            {
                "pitch": 34,
                "velocity": 4,
                "duration": 0.2182,
                "tempo": 120.0
            },
            {
                "pitch": 34,
                "velocity": 4,
                "duration": 0.0977,
                "tempo": 120.0
            },
            {
                "pitch": 37,
                "velocity": 4,
                "duration": 1.7068,
                "tempo": 120.0
            },
            {
                "pitch": 37,
                "velocity": 4,
                "duration": 0.2091,
                "tempo": 120.0
            },
            {
                "pitch": 39,
                "velocity": 4,
                "duration": 0.2068,
                "tempo": 120.0
            },
            {
                "pitch": 41,
                "velocity": 4,
                "duration": 0.9682,
                "tempo": 120.0
            },
            {
                "pitch": 0,
                "velocity": 0,
                "duration": 0.525,
                "tempo": 0
            },
            {
                "pitch": 36,
                "velocity": 4,
                "duration": 0.2205,
                "tempo": 120.0
            },
            {
                "pitch": 41,
                "velocity": 4,
                "duration": 0.9614,
                "tempo": 120.0
            },
            {
                "pitch": 41,
                "velocity": 4,
                "duration": 0.2136,
                "tempo": 120.0
            },
            {
                "pitch": 41,
                "velocity": 4,
                "duration": 0.1023,
                "tempo": 120.0
            },
            {
                "pitch": 41,
                "velocity": 4,
                "duration": 0.1159,
                "tempo": 120.0
            },
            {
                "pitch": 54,
                "velocity": 4,
                "duration": 9.6932,
                "tempo": 120.0
            },
            {
                "pitch": 46,
                "velocity": 4,
                "duration": 0.2,
                "tempo": 120.0
            },
            {
                "pitch": 36,
                "velocity": 4,
                "duration": 0.9591,
                "tempo": 120.0
            },
            {
                "pitch": 48,
                "velocity": 4,
                "duration": 6.2909,
                "tempo": 120.0
            },
            {
                "pitch": 48,
                "velocity": 4,
                "duration": 0.3273,
                "tempo": 120.0
            },
            {
                "pitch": 41,
                "velocity": 4,
                "duration": 0.2068,
                "tempo": 120.0
            },
            {
                "pitch": 41,
                "velocity": 4,
                "duration": 0.0977,
                "tempo": 120.0
            },
            {
                "pitch": 41,
                "velocity": 4,
                "duration": 0.2136,
                "tempo": 120.0
            },
            {
                "pitch": 39,
                "velocity": 4,
                "duration": 0.2205,
                "tempo": 120.0
            },
            {
                "pitch": 46,
                "velocity": 4,
                "duration": 0.2205,
                "tempo": 120.0
            },
            {
                "pitch": 46,
                "velocity": 4,
                "duration": 0.1023,
                "tempo": 120.0
            },
            {
                "pitch": 46,
                "velocity": 4,
                "duration": 0.1,
                "tempo": 120.0
            },
            {
                "pitch": 46,
                "velocity": 4,
                "duration": 0.2068,
                "tempo": 120.0
            },
            {
                "pitch": 53,
                "velocity": 4,
                "duration": 0.9523,
                "tempo": 120.0
            },
            {
                "pitch": 53,
                "velocity": 4,
                "duration": 0.3227,
                "tempo": 120.0
            },
            {
                "pitch": 54,
                "velocity": 4,
                "duration": 2.2205,
                "tempo": 120.0
            },
            {
                "pitch": 54,
                "velocity": 4,
                "duration": 0.0023,
                "tempo": 120.0
            },
            {
                "pitch": 46,
                "velocity": 4,
                "duration": 0.2,
                "tempo": 120.0
            },
            {
                "pitch": 46,
                "velocity": 4,
                "duration": 0.1159,
                "tempo": 120.0
            },
            {
                "pitch": 49,
                "velocity": 4,
                "duration": 11.9159,
                "tempo": 120.0
            },
            {
                "pitch": 49,
                "velocity": 4,
                "duration": 0.2227,
                "tempo": 120.0
            },
            {
                "pitch": 51,
                "velocity": 4,
                "duration": 8.6273,
                "tempo": 120.0
            },
            {
                "pitch": 51,
                "velocity": 4,
                "duration": 0.2227,
                "tempo": 120.0
            },
            {
                "pitch": 46,
                "velocity": 4,
                "duration": 0.2,
                "tempo": 120.0
            },
            {
                "pitch": 46,
                "velocity": 4,
                "duration": 0.1159,
                "tempo": 120.0
            },
            {
                "pitch": 46,
                "velocity": 4,
                "duration": 0.0977,
                "tempo": 120.0
            },
            {
                "pitch": 46,
                "velocity": 4,
                "duration": 0.2136,
                "tempo": 120.0
            },
            {
                "pitch": 53,
                "velocity": 4,
                "duration": 0.9364,
                "tempo": 120.0
            },
            {
                "pitch": 53,
                "velocity": 4,
                "duration": 0.3091,
                "tempo": 120.0
            },
            {
                "pitch": 0,
                "velocity": 0,
                "duration": 0.0023,
                "tempo": 0
            },
            {
                "pitch": 46,
                "velocity": 4,
                "duration": 0.2136,
                "tempo": 120.0
            },
            {
                "pitch": 46,
                "velocity": 4,
                "duration": 0.1114,
                "tempo": 120.0
            },
            {
                "pitch": 49,
                "velocity": 4,
                "duration": 1.7045,
                "tempo": 120.0
            },
            {
                "pitch": 49,
                "velocity": 4,
                "duration": 0.2182,
                "tempo": 120.0
            },
            {
                "pitch": 51,
                "velocity": 4,
                "duration": 0.2,
                "tempo": 120.0
            },
            {
                "pitch": 54,
                "velocity": 4,
                "duration": 0.9545,
                "tempo": 120.0
            },
            {
                "pitch": 54,
                "velocity": 4,
                "duration": 0.2091,
                "tempo": 120.0
            },
            {
                "pitch": 54,
                "velocity": 4,
                "duration": 0.1159,
                "tempo": 120.0
            },
            {
                "pitch": 54,
                "velocity": 4,
                "duration": 0.0977,
                "tempo": 120.0
            },
            {
                "pitch": 54,
                "velocity": 4,
                "duration": 0.2227,
                "tempo": 120.0
            },
            {
                "pitch": 66,
                "velocity": 4,
                "duration": 12.1364,
                "tempo": 120.0
            },
            {
                "pitch": 49,
                "velocity": 4,
                "duration": 1.1682,
                "tempo": 120.0
            },
            {
                "pitch": 61,
                "velocity": 4,
                "duration": 0.3205,
                "tempo": 120.0
            },
            {
                "pitch": 54,
                "velocity": 4,
                "duration": 0.2159,
                "tempo": 120.0
            },
            {
                "pitch": 54,
                "velocity": 4,
                "duration": 0.1182,
                "tempo": 120.0
            },
            {
                "pitch": 66,
                "velocity": 4,
                "duration": 0.6545,
                "tempo": 120.0
            },
            {
                "pitch": 56,
                "velocity": 4,
                "duration": 0.2,
                "tempo": 120.0
            },
            {
                "pitch": 56,
                "velocity": 4,
                "duration": 0.2182,
                "tempo": 120.0
            },
            {
                "pitch": 44,
                "velocity": 4,
                "duration": 0.2091,
                "tempo": 120.0
            },
            {
                "pitch": 56,
                "velocity": 4,
                "duration": 0.1159,
                "tempo": 120.0
            },
            {
                "pitch": 44,
                "velocity": 4,
                "duration": 0.1977,
                "tempo": 120.0
            },
            {
                "pitch": 48,
                "velocity": 4,
                "duration": 0.1182,
                "tempo": 120.0
            },
            {
                "pitch": 51,
                "velocity": 4,
                "duration": 2.575,
                "tempo": 120.0
            },
            {
                "pitch": 51,
                "velocity": 4,
                "duration": 0.2159,
                "tempo": 120.0
            },
            {
                "pitch": 44,
                "velocity": 4,
                "duration": 0.2159,
                "tempo": 120.0
            },
            {
                "pitch": 0,
                "velocity": 0,
                "duration": 0.0023,
                "tempo": 0
            },
            {
                "pitch": 56,
                "velocity": 4,
                "duration": 0.0977,
                "tempo": 120.0
            },
            {
                "pitch": 56,
                "velocity": 4,
                "duration": 0.1,
                "tempo": 120.0
            },
            {
                "pitch": 0,
                "velocity": 0,
                "duration": 0.0023,
                "tempo": 0
            },
            {
                "pitch": 44,
                "velocity": 4,
                "duration": 0.2045,
                "tempo": 120.0
            },
            {
                "pitch": 57,
                "velocity": 4,
                "duration": 0.1114,
                "tempo": 120.0
            },
            {
                "pitch": 57,
                "velocity": 4,
                "duration": 0.0977,
                "tempo": 120.0
            },
            {
                "pitch": 45,
                "velocity": 4,
                "duration": 0.1159,
                "tempo": 120.0
            },
            {
                "pitch": 46,
                "velocity": 4,
                "duration": 1.9068,
                "tempo": 120.0
            },
            {
                "pitch": 46,
                "velocity": 4,
                "duration": 0.1023,
                "tempo": 120.0
            },
            {
                "pitch": 58,
                "velocity": 4,
                "duration": 0.1023,
                "tempo": 120.0
            },
            {
                "pitch": 46,
                "velocity": 4,
                "duration": 0.1205,
                "tempo": 120.0
            },
            {
                "pitch": 46,
                "velocity": 4,
                "duration": 0.1023,
                "tempo": 120.0
            },
            {
                "pitch": 58,
                "velocity": 4,
                "duration": 0.1182,
                "tempo": 120.0
            },
            {
                "pitch": 46,
                "velocity": 4,
                "duration": 0.1023,
                "tempo": 120.0
            },
            {
                "pitch": 58,
                "velocity": 4,
                "duration": 0.1205,
                "tempo": 120.0
            },
            {
                "pitch": 46,
                "velocity": 4,
                "duration": 0.0023,
                "tempo": 120.0
            },
            {
                "pitch": 44,
                "velocity": 4,
                "duration": 0.3205,
                "tempo": 120.0
            },
            {
                "pitch": 44,
                "velocity": 4,
                "duration": 0.0955,
                "tempo": 120.0
            },
            {
                "pitch": 44,
                "velocity": 4,
                "duration": 0.0977,
                "tempo": 120.0
            },
            {
                "pitch": 56,
                "velocity": 4,
                "duration": 0.1136,
                "tempo": 120.0
            },
            {
                "pitch": 0,
                "velocity": 0,
                "duration": 0.0023,
                "tempo": 0
            },
            {
                "pitch": 44,
                "velocity": 4,
                "duration": 0.0955,
                "tempo": 120.0
            },
            {
                "pitch": 44,
                "velocity": 4,
                "duration": 0.1159,
                "tempo": 120.0
            },
            {
                "pitch": 56,
                "velocity": 4,
                "duration": 0.0977,
                "tempo": 120.0
            },
            {
                "pitch": 44,
                "velocity": 4,
                "duration": 0.1136,
                "tempo": 120.0
            },
            {
                "pitch": 56,
                "velocity": 4,
                "duration": 0.1,
                "tempo": 120.0
            },
            {
                "pitch": 43,
                "velocity": 4,
                "duration": 29.1955,
                "tempo": 120.0
            },
            {
                "pitch": 43,
                "velocity": 4,
                "duration": 0.1182,
                "tempo": 120.0
            },
            {
                "pitch": 55,
                "velocity": 4,
                "duration": 0.1,
                "tempo": 120.0
            },
            {
                "pitch": 43,
                "velocity": 4,
                "duration": 0.1159,
                "tempo": 120.0
            },
            {
                "pitch": 43,
                "velocity": 4,
                "duration": 0.1023,
                "tempo": 120.0
            },
            {
                "pitch": 55,
                "velocity": 4,
                "duration": 0.1205,
                "tempo": 120.0
            },
            {
                "pitch": 43,
                "velocity": 4,
                "duration": 0.1023,
                "tempo": 120.0
            },
            {
                "pitch": 55,
                "velocity": 4,
                "duration": 0.1023,
                "tempo": 120.0
            },
            {
                "pitch": 43,
                "velocity": 4,
                "duration": 0.1114,
                "tempo": 120.0
            },
            {
                "pitch": 42,
                "velocity": 4,
                "duration": 13.7364,
                "tempo": 120.0
            },
            {
                "pitch": 42,
                "velocity": 4,
                "duration": 0.0955,
                "tempo": 120.0
            },
            {
                "pitch": 54,
                "velocity": 4,
                "duration": 0.1114,
                "tempo": 120.0
            },
            {
                "pitch": 54,
                "velocity": 4,
                "duration": 0.0955,
                "tempo": 120.0
            },
            {
                "pitch": 42,
                "velocity": 4,
                "duration": 0.1159,
                "tempo": 120.0
            },
            {
                "pitch": 41,
                "velocity": 4,
                "duration": 0.1,
                "tempo": 120.0
            },
            {
                "pitch": 53,
                "velocity": 4,
                "duration": 4.1386,
                "tempo": 120.0
            },
            {
                "pitch": 53,
                "velocity": 4,
                "duration": 0.1,
                "tempo": 120.0
            },
            {
                "pitch": 53,
                "velocity": 4,
                "duration": 0.1182,
                "tempo": 120.0
            },
            {
                "pitch": 46,
                "velocity": 4,
                "duration": 0.0977,
                "tempo": 120.0
            },
            {
                "pitch": 46,
                "velocity": 4,
                "duration": 0.1182,
                "tempo": 120.0
            },
            {
                "pitch": 58,
                "velocity": 4,
                "duration": 0.1,
                "tempo": 120.0
            },
            {
                "pitch": 46,
                "velocity": 4,
                "duration": 0.1159,
                "tempo": 120.0
            },
            {
                "pitch": 46,
                "velocity": 4,
                "duration": 0.1,
                "tempo": 120.0
            },
            {
                "pitch": 58,
                "velocity": 4,
                "duration": 0.1,
                "tempo": 120.0
            },
            {
                "pitch": 46,
                "velocity": 4,
                "duration": 0.1159,
                "tempo": 120.0
            },
            {
                "pitch": 58,
                "velocity": 4,
                "duration": 0.1023,
                "tempo": 120.0
            },
            {
                "pitch": 44,
                "velocity": 4,
                "duration": 0.3318,
                "tempo": 120.0
            },
            {
                "pitch": 44,
                "velocity": 4,
                "duration": 0.1136,
                "tempo": 120.0
            },
            {
                "pitch": 44,
                "velocity": 4,
                "duration": 0.0977,
                "tempo": 120.0
            },
            {
                "pitch": 56,
                "velocity": 4,
                "duration": 0.1136,
                "tempo": 120.0
            },
            {
                "pitch": 44,
                "velocity": 4,
                "duration": 0.0977,
                "tempo": 120.0
            },
            {
                "pitch": 44,
                "velocity": 4,
                "duration": 0.1,
                "tempo": 120.0
            },
            {
                "pitch": 56,
                "velocity": 4,
                "duration": 0.1182,
                "tempo": 120.0
            },
            {
                "pitch": 44,
                "velocity": 4,
                "duration": 0.1,
                "tempo": 120.0
            },
            {
                "pitch": 56,
                "velocity": 4,
                "duration": 0.1182,
                "tempo": 120.0
            },
            {
                "pitch": 0,
                "velocity": 0,
                "duration": 0.0977,
                "tempo": 0
            },
            {
                "pitch": 43,
                "velocity": 4,
                "duration": 0.1182,
                "tempo": 120.0
            },
            {
                "pitch": 55,
                "velocity": 4,
                "duration": 0.1,
                "tempo": 120.0
            },
            {
                "pitch": 43,
                "velocity": 4,
                "duration": 0.1,
                "tempo": 120.0
            },
            {
                "pitch": 43,
                "velocity": 4,
                "duration": 0.1136,
                "tempo": 120.0
            },
            {
                "pitch": 55,
                "velocity": 4,
                "duration": 0.0977,
                "tempo": 120.0
            },
            {
                "pitch": 43,
                "velocity": 4,
                "duration": 0.1159,
                "tempo": 120.0
            },
            {
                "pitch": 55,
                "velocity": 4,
                "duration": 0.0977,
                "tempo": 120.0
            },
            {
                "pitch": 43,
                "velocity": 4,
                "duration": 0.1159,
                "tempo": 120.0
            },
            {
                "pitch": 42,
                "velocity": 4,
                "duration": 0.1,
                "tempo": 120.0
            },
            {
                "pitch": 54,
                "velocity": 4,
                "duration": 2.8659,
                "tempo": 120.0
            },
            {
                "pitch": 54,
                "velocity": 4,
                "duration": 0.1,
                "tempo": 120.0
            },
            {
                "pitch": 54,
                "velocity": 4,
                "duration": 0.1182,
                "tempo": 120.0
            },
            {
                "pitch": 42,
                "velocity": 4,
                "duration": 0.0977,
                "tempo": 120.0
            },
            {
                "pitch": 41,
                "velocity": 4,
                "duration": 0.1136,
                "tempo": 120.0
            },
            {
                "pitch": 53,
                "velocity": 4,
                "duration": 0.0977,
                "tempo": 120.0
            },
            {
                "pitch": 53,
                "velocity": 4,
                "duration": 0.1159,
                "tempo": 120.0
            },
            {
                "pitch": 41,
                "velocity": 4,
                "duration": 0.2023,
                "tempo": 120.0
            },
            {
                "pitch": 42,
                "velocity": 4,
                "duration": 0.1205,
                "tempo": 120.0
            },
            {
                "pitch": 37,
                "velocity": 4,
                "duration": 17.8,
                "tempo": 120.0
            },
            {
                "pitch": 49,
                "velocity": 4,
                "duration": 9.8136,
                "tempo": 120.0
            },
            {
                "pitch": 49,
                "velocity": 4,
                "duration": 0.2159,
                "tempo": 120.0
            },
            {
                "pitch": 42,
                "velocity": 4,
                "duration": 0.0977,
                "tempo": 120.0
            },
            {
                "pitch": 40,
                "velocity": 4,
                "duration": 0.1136,
                "tempo": 120.0
            },
            {
                "pitch": 0,
                "velocity": 0,
                "duration": 0.0023,
                "tempo": 0
            },
            {
                "pitch": 40,
                "velocity": 4,
                "duration": 0.0977,
                "tempo": 120.0
            },
            {
                "pitch": 41,
                "velocity": 4,
                "duration": 0.2159,
                "tempo": 120.0
            },
            {
                "pitch": 42,
                "velocity": 4,
                "duration": 0.5318,
                "tempo": 120.0
            },
            {
                "pitch": 42,
                "velocity": 4,
                "duration": 0.1023,
                "tempo": 120.0
            },
            {
                "pitch": 54,
                "velocity": 4,
                "duration": 0.8455,
                "tempo": 120.0
            },
            {
                "pitch": 37,
                "velocity": 4,
                "duration": 0.8477,
                "tempo": 120.0
            },
            {
                "pitch": 49,
                "velocity": 4,
                "duration": 0.2182,
                "tempo": 120.0
            },
            {
                "pitch": 42,
                "velocity": 4,
                "duration": 0.1182,
                "tempo": 120.0
            },
            {
                "pitch": 54,
                "velocity": 4,
                "duration": 0.3364,
                "tempo": 120.0
            },
            {
                "pitch": 44,
                "velocity": 4,
                "duration": 0.1023,
                "tempo": 120.0
            },
            {
                "pitch": 46,
                "velocity": 4,
                "duration": 4.2705,
                "tempo": 120.0
            },
            {
                "pitch": 46,
                "velocity": 4,
                "duration": 0.1045,
                "tempo": 120.0
            },
            {
                "pitch": 44,
                "velocity": 4,
                "duration": 0.3091,
                "tempo": 120.0
            },
            {
                "pitch": 44,
                "velocity": 4,
                "duration": 0.2045,
                "tempo": 120.0
            },
            {
                "pitch": 44,
                "velocity": 4,
                "duration": 0.1114,
                "tempo": 120.0
            },
            {
                "pitch": 51,
                "velocity": 4,
                "duration": 0.2114,
                "tempo": 120.0
            },
            {
                "pitch": 44,
                "velocity": 4,
                "duration": 0.1,
                "tempo": 120.0
            },
            {
                "pitch": 0,
                "velocity": 0,
                "duration": 0.1,
                "tempo": 0
            },
            {
                "pitch": 39,
                "velocity": 4,
                "duration": 0.1182,
                "tempo": 120.0
            },
            {
                "pitch": 54,
                "velocity": 4,
                "duration": 1.0523,
                "tempo": 120.0
            },
            {
                "pitch": 44,
                "velocity": 4,
                "duration": 0.2159,
                "tempo": 120.0
            },
            {
                "pitch": 44,
                "velocity": 4,
                "duration": 0.1,
                "tempo": 120.0
            },
            {
                "pitch": 44,
                "velocity": 4,
                "duration": 0.2182,
                "tempo": 120.0
            },
            {
                "pitch": 56,
                "velocity": 4,
                "duration": 0.0977,
                "tempo": 120.0
            },
            {
                "pitch": 44,
                "velocity": 4,
                "duration": 0.1182,
                "tempo": 120.0
            },
            {
                "pitch": 57,
                "velocity": 4,
                "duration": 0.1023,
                "tempo": 120.0
            },
            {
                "pitch": 45,
                "velocity": 4,
                "duration": 0.2114,
                "tempo": 120.0
            },
            {
                "pitch": 58,
                "velocity": 4,
                "duration": 0.1136,
                "tempo": 120.0
            },
            {
                "pitch": 46,
                "velocity": 4,
                "duration": 2.2205,
                "tempo": 120.0
            },
            {
                "pitch": 46,
                "velocity": 4,
                "duration": 0.1977,
                "tempo": 120.0
            },
            {
                "pitch": 49,
                "velocity": 4,
                "duration": 0.1159,
                "tempo": 120.0
            },
            {
                "pitch": 49,
                "velocity": 4,
                "duration": 0.1,
                "tempo": 120.0
            },
            {
                "pitch": 48,
                "velocity": 4,
                "duration": 12.1477,
                "tempo": 120.0
            },
            {
                "pitch": 48,
                "velocity": 4,
                "duration": 0.1182,
                "tempo": 120.0
            },
            {
                "pitch": 52,
                "velocity": 4,
                "duration": 25.1409,
                "tempo": 120.0
            },
            {
                "pitch": 46,
                "velocity": 4,
                "duration": 0.1,
                "tempo": 120.0
            },
            {
                "pitch": 58,
                "velocity": 4,
                "duration": 0.1182,
                "tempo": 120.0
            },
            {
                "pitch": 46,
                "velocity": 4,
                "duration": 0.0977,
                "tempo": 120.0
            },
            {
                "pitch": 58,
                "velocity": 4,
                "duration": 0.1023,
                "tempo": 120.0
            },
            {
                "pitch": 48,
                "velocity": 4,
                "duration": 0.1136,
                "tempo": 120.0
            },
            {
                "pitch": 60,
                "velocity": 4,
                "duration": 0.0977,
                "tempo": 120.0
            },
            {
                "pitch": 48,
                "velocity": 4,
                "duration": 0.1136,
                "tempo": 120.0
            },
            {
                "pitch": 52,
                "velocity": 4,
                "duration": 0.8432,
                "tempo": 120.0
            },
            {
                "pitch": 61,
                "velocity": 4,
                "duration": 0.1,
                "tempo": 120.0
            },
            {
                "pitch": 46,
                "velocity": 4,
                "duration": 0.2136,
                "tempo": 120.0
            },
            {
                "pitch": 58,
                "velocity": 4,
                "duration": 0.1,
                "tempo": 120.0
            },
            {
                "pitch": 0,
                "velocity": 0,
                "duration": 0.0023,
                "tempo": 0
            },
            {
                "pitch": 46,
                "velocity": 4,
                "duration": 0.2182,
                "tempo": 120.0
            },
            {
                "pitch": 49,
                "velocity": 4,
                "duration": 0.1182,
                "tempo": 120.0
            },
            {
                "pitch": 49,
                "velocity": 4,
                "duration": 0.1023,
                "tempo": 120.0
            },
            {
                "pitch": 48,
                "velocity": 4,
                "duration": 0.1205,
                "tempo": 120.0
            },
            {
                "pitch": 52,
                "velocity": 4,
                "duration": 0.875,
                "tempo": 120.0
            },
            {
                "pitch": 46,
                "velocity": 4,
                "duration": 0.2,
                "tempo": 120.0
            },
            {
                "pitch": 58,
                "velocity": 4,
                "duration": 0.1182,
                "tempo": 120.0
            },
            {
                "pitch": 46,
                "velocity": 4,
                "duration": 0.2136,
                "tempo": 120.0
            },
            {
                "pitch": 49,
                "velocity": 4,
                "duration": 0.0977,
                "tempo": 120.0
            },
            {
                "pitch": 51,
                "velocity": 4,
                "duration": 0.1136,
                "tempo": 120.0
            },
            {
                "pitch": 53,
                "velocity": 4,
                "duration": 4.5886,
                "tempo": 120.0
            },
            {
                "pitch": 53,
                "velocity": 4,
                "duration": 0.1,
                "tempo": 120.0
            },
            {
                "pitch": 41,
                "velocity": 4,
                "duration": 0.2114,
                "tempo": 120.0
            },
            {
                "pitch": 42,
                "velocity": 4,
                "duration": 0.0977,
                "tempo": 120.0
            },
            {
                "pitch": 54,
                "velocity": 4,
                "duration": 4.5795,
                "tempo": 120.0
            },
            {
                "pitch": 37,
                "velocity": 4,
                "duration": 5.9636,
                "tempo": 120.0
            },
            {
                "pitch": 49,
                "velocity": 4,
                "duration": 0.7364,
                "tempo": 120.0
            },
            {
                "pitch": 49,
                "velocity": 4,
                "duration": 0.2136,
                "tempo": 120.0
            },
            {
                "pitch": 42,
                "velocity": 4,
                "duration": 0.1159,
                "tempo": 120.0
            },
            {
                "pitch": 42,
                "velocity": 4,
                "duration": 0.0023,
                "tempo": 120.0
            },
            {
                "pitch": 40,
                "velocity": 4,
                "duration": 0.0977,
                "tempo": 120.0
            },
            {
                "pitch": 0,
                "velocity": 0,
                "duration": 0.0023,
                "tempo": 0
            },
            {
                "pitch": 40,
                "velocity": 4,
                "duration": 0.1,
                "tempo": 120.0
            },
            {
                "pitch": 41,
                "velocity": 4,
                "duration": 0.2114,
                "tempo": 120.0
            },
            {
                "pitch": 42,
                "velocity": 4,
                "duration": 0.1159,
                "tempo": 120.0
            },
            {
                "pitch": 54,
                "velocity": 4,
                "duration": 0.8591,
                "tempo": 120.0
            },
            {
                "pitch": 37,
                "velocity": 4,
                "duration": 0.8591,
                "tempo": 120.0
            },
            {
                "pitch": 49,
                "velocity": 4,
                "duration": 0.2136,
                "tempo": 120.0
            },
            {
                "pitch": 42,
                "velocity": 4,
                "duration": 0.1,
                "tempo": 120.0
            },
            {
                "pitch": 54,
                "velocity": 4,
                "duration": 0.3136,
                "tempo": 120.0
            },
            {
                "pitch": 44,
                "velocity": 4,
                "duration": 0.1,
                "tempo": 120.0
            },
            {
                "pitch": 46,
                "velocity": 4,
                "duration": 0.1182,
                "tempo": 120.0
            },
            {
                "pitch": 44,
                "velocity": 4,
                "duration": 0.3341,
                "tempo": 120.0
            },
            {
                "pitch": 44,
                "velocity": 4,
                "duration": 0.2159,
                "tempo": 120.0
            },
            {
                "pitch": 44,
                "velocity": 4,
                "duration": 0.1,
                "tempo": 120.0
            },
            {
                "pitch": 51,
                "velocity": 4,
                "duration": 2.3318,
                "tempo": 120.0
            },
            {
                "pitch": 51,
                "velocity": 4,
                "duration": 0.2159,
                "tempo": 120.0
            },
            {
                "pitch": 44,
                "velocity": 4,
                "duration": 0.1,
                "tempo": 120.0
            },
            {
                "pitch": 0,
                "velocity": 0,
                "duration": 0.1182,
                "tempo": 0
            },
            {
                "pitch": 39,
                "velocity": 4,
                "duration": 0.1,
                "tempo": 120.0
            },
            {
                "pitch": 54,
                "velocity": 4,
                "duration": 1.0705,
                "tempo": 120.0
            },
            {
                "pitch": 54,
                "velocity": 4,
                "duration": 0.0023,
                "tempo": 120.0
            },
            {
                "pitch": 44,
                "velocity": 4,
                "duration": 0.2091,
                "tempo": 120.0
            },
            {
                "pitch": 44,
                "velocity": 4,
                "duration": 0.1136,
                "tempo": 120.0
            },
            {
                "pitch": 0,
                "velocity": 0,
                "duration": 0.0023,
                "tempo": 0
            },
            {
                "pitch": 44,
                "velocity": 4,
                "duration": 0.1977,
                "tempo": 120.0
            },
            {
                "pitch": 56,
                "velocity": 4,
                "duration": 0.1159,
                "tempo": 120.0
            },
            {
                "pitch": 44,
                "velocity": 4,
                "duration": 0.1,
                "tempo": 120.0
            },
            {
                "pitch": 57,
                "velocity": 4,
                "duration": 0.1182,
                "tempo": 120.0
            },
            {
                "pitch": 45,
                "velocity": 4,
                "duration": 0.2205,
                "tempo": 120.0
            },
            {
                "pitch": 58,
                "velocity": 4,
                "duration": 0.1023,
                "tempo": 120.0
            },
            {
                "pitch": 46,
                "velocity": 4,
                "duration": 2.2455,
                "tempo": 120.0
            },
            {
                "pitch": 46,
                "velocity": 4,
                "duration": 0.2136,
                "tempo": 120.0
            },
            {
                "pitch": 46,
                "velocity": 4,
                "duration": 0.0955,
                "tempo": 120.0
            },
            {
                "pitch": 58,
                "velocity": 4,
                "duration": 0.1114,
                "tempo": 120.0
            },
            {
                "pitch": 46,
                "velocity": 4,
                "duration": 0.0955,
                "tempo": 120.0
            },
            {
                "pitch": 46,
                "velocity": 4,
                "duration": 0.1182,
                "tempo": 120.0
            },
            {
                "pitch": 58,
                "velocity": 4,
                "duration": 0.1023,
                "tempo": 120.0
            },
            {
                "pitch": 50,
                "velocity": 4,
                "duration": 0.1023,
                "tempo": 120.0
            },
            {
                "pitch": 62,
                "velocity": 4,
                "duration": 0.1182,
                "tempo": 120.0
            },
            {
                "pitch": 50,
                "velocity": 4,
                "duration": 0.1,
                "tempo": 120.0
            },
            {
                "pitch": 0,
                "velocity": 0,
                "duration": 0.0023,
                "tempo": 0
            },
            {
                "pitch": 63,
                "velocity": 4,
                "duration": 0.1159,
                "tempo": 120.0
            },
            {
                "pitch": 51,
                "velocity": 4,
                "duration": 0.1,
                "tempo": 120.0
            },
            {
                "pitch": 64,
                "velocity": 4,
                "duration": 0.1182,
                "tempo": 120.0
            },
            {
                "pitch": 52,
                "velocity": 4,
                "duration": 6.1659,
                "tempo": 120.0
            },
            {
                "pitch": 52,
                "velocity": 4,
                "duration": 0.1977,
                "tempo": 120.0
            },
            {
                "pitch": 65,
                "velocity": 4,
                "duration": 0.1182,
                "tempo": 120.0
            },
            {
                "pitch": 53,
                "velocity": 4,
                "duration": 3.4227,
                "tempo": 120.0
            },
            {
                "pitch": 53,
                "velocity": 4,
                "duration": 0.2136,
                "tempo": 120.0
            },
            {
                "pitch": 53,
                "velocity": 4,
                "duration": 0.0977,
                "tempo": 120.0
            },
            {
                "pitch": 66,
                "velocity": 4,
                "duration": 21.5205,
                "tempo": 120.0
            },
            {
                "pitch": 37,
                "velocity": 4,
                "duration": 4.4864,
                "tempo": 120.0
            },
            {
                "pitch": 58,
                "velocity": 4,
                "duration": 0.1159,
                "tempo": 120.0
            },
            {
                "pitch": 60,
                "velocity": 4,
                "duration": 0.1,
                "tempo": 120.0
            },
            {
                "pitch": 53,
                "velocity": 4,
                "duration": 0.2136,
                "tempo": 120.0
            },
            {
                "pitch": 65,
                "velocity": 4,
                "duration": 0.1,
                "tempo": 120.0
            },
            {
                "pitch": 53,
                "velocity": 4,
                "duration": 0.2182,
                "tempo": 120.0
            },
            {
                "pitch": 53,
                "velocity": 4,
                "duration": 0.1159,
                "tempo": 120.0
            },
            {
                "pitch": 51,
                "velocity": 4,
                "duration": 0.1,
                "tempo": 120.0
            },
            {
                "pitch": 51,
                "velocity": 4,
                "duration": 0.1023,
                "tempo": 120.0
            }
        ],
        "Synth Bass 1": [
            {
                "pitch": 0,
                "velocity": 0,
                "duration": 30.6864,
                "tempo": 0
            },
            {
                "pitch": 58,
                "velocity": 1,
                "duration": 0.0977,
                "tempo": 120.0
            },
            {
                "pitch": 60,
                "velocity": 1,
                "duration": 0.1159,
                "tempo": 120.0
            },
            {
                "pitch": 60,
                "velocity": 1,
                "duration": 0.1,
                "tempo": 120.0
            },
            {
                "pitch": 63,
                "velocity": 1,
                "duration": 0.1182,
                "tempo": 120.0
            },
            {
                "pitch": 63,
                "velocity": 1,
                "duration": 0.4182,
                "tempo": 120.0
            },
            {
                "pitch": 65,
                "velocity": 1,
                "duration": 0.325,
                "tempo": 120.0
            },
            {
                "pitch": 65,
                "velocity": 1,
                "duration": 0.3159,
                "tempo": 120.0
            },
            {
                "pitch": 61,
                "velocity": 1,
                "duration": 1.3955,
                "tempo": 120.0
            },
            {
                "pitch": 61,
                "velocity": 1,
                "duration": 0.2182,
                "tempo": 120.0
            },
            {
                "pitch": 63,
                "velocity": 1,
                "duration": 0.3159,
                "tempo": 120.0
            },
            {
                "pitch": 63,
                "velocity": 1,
                "duration": 0.0977,
                "tempo": 120.0
            },
            {
                "pitch": 58,
                "velocity": 1,
                "duration": 0.1159,
                "tempo": 120.0
            },
            {
                "pitch": 0,
                "velocity": 0,
                "duration": 0.0023,
                "tempo": 0
            },
            {
                "pitch": 55,
                "velocity": 1,
                "duration": 0.1,
                "tempo": 120.0
            },
            {
                "pitch": 53,
                "velocity": 1,
                "duration": 0.1,
                "tempo": 120.0
            },
            {
                "pitch": 51,
                "velocity": 1,
                "duration": 0.1136,
                "tempo": 120.0
            },
            {
                "pitch": 53,
                "velocity": 1,
                "duration": 0.2114,
                "tempo": 120.0
            },
            {
                "pitch": 53,
                "velocity": 1,
                "duration": 0.0977,
                "tempo": 120.0
            },
            {
                "pitch": 55,
                "velocity": 1,
                "duration": 0.1136,
                "tempo": 120.0
            },
            {
                "pitch": 39,
                "velocity": 1,
                "duration": 2.4523,
                "tempo": 120.0
            },
            {
                "pitch": 58,
                "velocity": 1,
                "duration": 0.625,
                "tempo": 120.0
            },
            {
                "pitch": 58,
                "velocity": 1,
                "duration": 0.1,
                "tempo": 120.0
            },
            {
                "pitch": 61,
                "velocity": 1,
                "duration": 0.9568,
                "tempo": 120.0
            },
            {
                "pitch": 61,
                "velocity": 1,
                "duration": 0.1159,
                "tempo": 120.0
            },
            {
                "pitch": 64,
                "velocity": 1,
                "duration": 2.6659,
                "tempo": 120.0
            },
            {
                "pitch": 39,
                "velocity": 1,
                "duration": 0.2159,
                "tempo": 120.0
            },
            {
                "pitch": 58,
                "velocity": 1,
                "duration": 0.1,
                "tempo": 120.0
            },
            {
                "pitch": 61,
                "velocity": 1,
                "duration": 0.1,
                "tempo": 120.0
            },
            {
                "pitch": 66,
                "velocity": 1,
                "duration": 0.6477,
                "tempo": 120.0
            },
            {
                "pitch": 66,
                "velocity": 1,
                "duration": 0.1182,
                "tempo": 120.0
            },
            {
                "pitch": 66,
                "velocity": 1,
                "duration": 0.0955,
                "tempo": 120.0
            },
            {
                "pitch": 65,
                "velocity": 1,
                "duration": 1.3886,
                "tempo": 120.0
            },
            {
                "pitch": 65,
                "velocity": 1,
                "duration": 0.1159,
                "tempo": 120.0
            },
            {
                "pitch": 61,
                "velocity": 1,
                "duration": 0.4273,
                "tempo": 120.0
            },
            {
                "pitch": 61,
                "velocity": 1,
                "duration": 0.0977,
                "tempo": 120.0
            },
            {
                "pitch": 61,
                "velocity": 1,
                "duration": 0.1159,
                "tempo": 120.0
            }
        ],
        "Acoustic Grand Piano": [
            {
                "pitch": 0,
                "velocity": 0,
                "duration": 47.7409,
                "tempo": 0
            },
            {
                "pitch": 108,
                "velocity": 15,
                "duration": 0.1,
                "tempo": 120.0
            }
        ]
    }
}