{
    "track_id": "11 Act 5, 8_7",
    "mood": "angry",
    "instruments": {
        "Lead 1 (square)": [
            {
                "pitch": 69,
                "velocity": 15,
                "duration": 0.1545,
                "tempo": 120.0
            },
            {
                "pitch": 0,
                "velocity": 0,
                "duration": 0.0545,
                "tempo": 0
            },
            {
                "pitch": 69,
                "velocity": 15,
                "duration": 0.0773,
                "tempo": 120.0
            },
            {
                "pitch": 0,
                "velocity": 0,
                "duration": 0.675,
                "tempo": 0
            },
            {
                "pitch": 69,
                "velocity": 15,
                "duration": 0.1568,
                "tempo": 120.0
            },
            {
                "pitch": 0,
                "velocity": 0,
                "duration": 0.0545,
                "tempo": 0
            },
            {
                "pitch": 69,
                "velocity": 15,
                "duration": 0.0773,
                "tempo": 120.0
            },
            {
                "pitch": 0,
                "velocity": 0,
                "duration": 0.0273,
                "tempo": 0
            },
            {
                "pitch": 69,
                "velocity": 15,
                "duration": 0.1591,
                "tempo": 120.0
            },
            {
                "pitch": 0,
                "velocity": 0,
                "duration": 0.0568,
                "tempo": 0
            },
            {
                "pitch": 69,
                "velocity": 15,
                "duration": 0.0795,
                "tempo": 120.0
            },
            {
                "pitch": 0,
                "velocity": 0,
                "duration": 0.9727,
                "tempo": 0
            },
            {
                "pitch": 69,
                "velocity": 15,
                "duration": 0.1545,
                "tempo": 120.0
            },
            {
                "pitch": 0,
                "velocity": 0,
                "duration": 0.0523,
                "tempo": 0
            },
            {
                "pitch": 69,
                "velocity": 15,
                "duration": 0.0795,
                "tempo": 120.0
            },
            {
                "pitch": 0,
                "velocity": 0,
                "duration": 0.6636,
                "tempo": 0
            },
            {
                "pitch": 69,
                "velocity": 15,
                "duration": 0.1568,
                "tempo": 120.0
            },
            {
                "pitch": 0,
                "velocity": 0,
                "duration": 0.0545,
                "tempo": 0
            },
            {
                "pitch": 69,
                "velocity": 15,
                "duration": 0.0773,
                "tempo": 120.0
            },
            {
                "pitch": 0,
                "velocity": 0,
                "duration": 0.0273,
                "tempo": 0
            },
            {
                "pitch": 69,
                "velocity": 15,
                "duration": 0.1614,
                "tempo": 120.0
            },
            {
                "pitch": 0,
                "velocity": 0,
                "duration": 0.0545,
                "tempo": 0
            },
            {
                "pitch": 69,
                "velocity": 15,
                "duration": 0.0795,
                "tempo": 120.0
            },
            {
                "pitch": 0,
                "velocity": 0,
                "duration": 0.8773,
                "tempo": 0
            },
            {
                "pitch": 69,
                "velocity": 15,
                "duration": 0.0773,
                "tempo": 120.0
            },
            {
                "pitch": 0,
                "velocity": 0,
                "duration": 0.0273,
                "tempo": 0
            },
            {
                "pitch": 57,
                "velocity": 12,
                "duration": 0.1614,
                "tempo": 120.0
            },
            {
                "pitch": 0,
                "velocity": 0,
                "duration": 0.0545,
                "tempo": 0
            },
            {
                "pitch": 57,
                "velocity": 12,
                "duration": 0.0795,
                "tempo": 120.0
            },
            {
                "pitch": 0,
                "velocity": 0,
                "duration": 0.0273,
                "tempo": 0
            },
            {
                "pitch": 69,
                "velocity": 12,
                "duration": 0.2614,
                "tempo": 120.0
            },
            {
                "pitch": 0,
                "velocity": 0,
                "duration": 0.0545,
                "tempo": 0
            },
            {
                "pitch": 57,
                "velocity": 12,
                "duration": 0.1568,
                "tempo": 120.0
            },
            {
                "pitch": 0,
                "velocity": 0,
                "duration": 0.0523,
                "tempo": 0
            },
            {
                "pitch": 57,
                "velocity": 12,
                "duration": 0.0773,
                "tempo": 120.0
            },
            {
                "pitch": 67,
                "velocity": 15,
                "duration": 6.3023,
                "tempo": 120.0
            },
            {
                "pitch": 67,
                "velocity": 12,
                "duration": 0.2614,
                "tempo": 120.0
            },
            {
                "pitch": 0,
                "velocity": 0,
                "duration": 0.0545,
                "tempo": 0
            },
            {
                "pitch": 57,
                "velocity": 12,
                "duration": 0.1591,
                "tempo": 120.0
            },
            {
                "pitch": 0,
                "velocity": 0,
                "duration": 0.0545,
                "tempo": 0
            },
            {
                "pitch": 57,
                "velocity": 12,
                "duration": 0.0818,
                "tempo": 120.0
            },
            {
                "pitch": 0,
                "velocity": 0,
                "duration": 0.0273,
                "tempo": 0
            },
            {
                "pitch": 64,
                "velocity": 12,
                "duration": 0.2614,
                "tempo": 120.0
            },
            {
                "pitch": 0,
                "velocity": 0,
                "duration": 0.0523,
                "tempo": 0
            },
            {
                "pitch": 64,
                "velocity": 12,
                "duration": 0.2614,
                "tempo": 120.0
            },
            {
                "pitch": 0,
                "velocity": 0,
                "duration": 0.0545,
                "tempo": 0
            },
            {
                "pitch": 67,
                "velocity": 12,
                "duration": 0.2682,
                "tempo": 120.0
            },
            {
                "pitch": 55,
                "velocity": 12,
                "duration": 1.2773,
                "tempo": 120.0
            },
            {
                "pitch": 57,
                "velocity": 12,
                "duration": 0.1545,
                "tempo": 120.0
            },
            {
                "pitch": 0,
                "velocity": 0,
                "duration": 0.0545,
                "tempo": 0
            },
            {
                "pitch": 57,
                "velocity": 12,
                "duration": 0.0773,
                "tempo": 120.0
            },
            {
                "pitch": 69,
                "velocity": 12,
                "duration": 2.1682,
                "tempo": 120.0
            },
            {
                "pitch": 69,
                "velocity": 12,
                "duration": 0.2614,
                "tempo": 120.0
            },
            {
                "pitch": 0,
                "velocity": 0,
                "duration": 0.0523,
                "tempo": 0
            },
            {
                "pitch": 57,
                "velocity": 12,
                "duration": 0.1614,
                "tempo": 120.0
            },
            {
                "pitch": 0,
                "velocity": 0,
                "duration": 0.0545,
                "tempo": 0
            },
            {
                "pitch": 57,
                "velocity": 12,
                "duration": 0.0795,
                "tempo": 120.0
            },
            {
                "pitch": 0,
                "velocity": 0,
                "duration": 0.0295,
                "tempo": 0
            },
            {
                "pitch": 67,
                "velocity": 12,
                "duration": 0.2614,
                "tempo": 120.0
            },
            {
                "pitch": 55,
                "velocity": 12,
                "duration": 1.2659,
                "tempo": 120.0
            },
            {
                "pitch": 57,
                "velocity": 12,
                "duration": 0.1614,
                "tempo": 120.0
            },
            {
                "pitch": 0,
                "velocity": 0,
                "duration": 0.0545,
                "tempo": 0
            },
            {
                "pitch": 57,
                "velocity": 12,
                "duration": 0.0795,
                "tempo": 120.0
            },
            {
                "pitch": 0,
                "velocity": 0,
                "duration": 0.0295,
                "tempo": 0
            },
            {
                "pitch": 64,
                "velocity": 12,
                "duration": 0.2614,
                "tempo": 120.0
            },
            {
                "pitch": 0,
                "velocity": 0,
                "duration": 0.0523,
                "tempo": 0
            },
            {
                "pitch": 64,
                "velocity": 12,
                "duration": 0.2614,
                "tempo": 120.0
            },
            {
                "pitch": 78,
                "velocity": 12,
                "duration": 2.5432,
                "tempo": 120.0
            },
            {
                "pitch": 67,
                "velocity": 12,
                "duration": 0.2705,
                "tempo": 120.0
            },
            {
                "pitch": 55,
                "velocity": 12,
                "duration": 1.2773,
                "tempo": 120.0
            },
            {
                "pitch": 57,
                "velocity": 12,
                "duration": 0.1568,
                "tempo": 120.0
            },
            {
                "pitch": 0,
                "velocity": 0,
                "duration": 0.0523,
                "tempo": 0
            },
            {
                "pitch": 57,
                "velocity": 12,
                "duration": 0.0795,
                "tempo": 120.0
            },
            {
                "pitch": 69,
                "velocity": 12,
                "duration": 2.1659,
                "tempo": 120.0
            },
            {
                "pitch": 69,
                "velocity": 12,
                "duration": 0.2614,
                "tempo": 120.0
            },
            {
                "pitch": 0,
                "velocity": 0,
                "duration": 0.0545,
                "tempo": 0
            },
            {
                "pitch": 57,
                "velocity": 12,
                "duration": 0.1545,
                "tempo": 120.0
            },
            {
                "pitch": 0,
                "velocity": 0,
                "duration": 0.0545,
                "tempo": 0
            },
            {
                "pitch": 57,
                "velocity": 12,
                "duration": 0.0773,
                "tempo": 120.0
            },
            {
                "pitch": 0,
                "velocity": 0,
                "duration": 0.0273,
                "tempo": 0
            },
            {
                "pitch": 67,
                "velocity": 12,
                "duration": 0.2682,
                "tempo": 120.0
            },
            {
                "pitch": 55,
                "velocity": 12,
                "duration": 1.2682,
                "tempo": 120.0
            },
            {
                "pitch": 57,
                "velocity": 12,
                "duration": 0.1545,
                "tempo": 120.0
            },
            {
                "pitch": 0,
                "velocity": 0,
                "duration": 0.0545,
                "tempo": 0
            },
            {
                "pitch": 57,
                "velocity": 12,
                "duration": 0.0773,
                "tempo": 120.0
            },
            {
                "pitch": 0,
                "velocity": 0,
                "duration": 0.0273,
                "tempo": 0
            },
            {
                "pitch": 64,
                "velocity": 12,
                "duration": 0.2682,
                "tempo": 120.0
            },
            {
                "pitch": 0,
                "velocity": 0,
                "duration": 0.0568,
                "tempo": 0
            },
            {
                "pitch": 64,
                "velocity": 12,
                "duration": 0.2614,
                "tempo": 120.0
            },
            {
                "pitch": 78,
                "velocity": 12,
                "duration": 2.5455,
                "tempo": 120.0
            },
            {
                "pitch": 67,
                "velocity": 12,
                "duration": 0.2614,
                "tempo": 120.0
            },
            {
                "pitch": 55,
                "velocity": 12,
                "duration": 1.2682,
                "tempo": 120.0
            },
            {
                "pitch": 57,
                "velocity": 12,
                "duration": 0.1591,
                "tempo": 120.0
            },
            {
                "pitch": 0,
                "velocity": 0,
                "duration": 0.0545,
                "tempo": 0
            },
            {
                "pitch": 57,
                "velocity": 12,
                "duration": 0.0818,
                "tempo": 120.0
            },
            {
                "pitch": 69,
                "velocity": 12,
                "duration": 2.1773,
                "tempo": 120.0
            },
            {
                "pitch": 69,
                "velocity": 12,
                "duration": 0.2614,
                "tempo": 120.0
            },
            {
                "pitch": 0,
                "velocity": 0,
                "duration": 0.0523,
                "tempo": 0
            },
            {
                "pitch": 57,
                "velocity": 12,
                "duration": 0.1568,
                "tempo": 120.0
            },
            {
                "pitch": 0,
                "velocity": 0,
                "duration": 0.0545,
                "tempo": 0
            },
            {
                "pitch": 57,
                "velocity": 12,
                "duration": 0.0773,
                "tempo": 120.0
            },
            {
                "pitch": 0,
                "velocity": 0,
                "duration": 0.0273,
                "tempo": 0
            },
            {
                "pitch": 67,
                "velocity": 12,
                "duration": 0.2591,
                "tempo": 120.0
            },
            {
                "pitch": 55,
                "velocity": 12,
                "duration": 1.2659,
                "tempo": 120.0
            },
            {
                "pitch": 57,
                "velocity": 12,
                "duration": 0.1614,
                "tempo": 120.0
            },
            {
                "pitch": 0,
                "velocity": 0,
                "duration": 0.0545,
                "tempo": 0
            },
            {
                "pitch": 57,
                "velocity": 12,
                "duration": 0.0795,
                "tempo": 120.0
            },
            {
                "pitch": 0,
                "velocity": 0,
                "duration": 0.0295,
                "tempo": 0
            },
            {
                "pitch": 64,
                "velocity": 12,
                "duration": 0.2591,
                "tempo": 120.0
            },
            {
                "pitch": 0,
                "velocity": 0,
                "duration": 0.0545,
                "tempo": 0
            },
            {
                "pitch": 64,
                "velocity": 12,
                "duration": 0.2682,
                "tempo": 120.0
            },
            {
                "pitch": 78,
                "velocity": 12,
                "duration": 2.5455,
                "tempo": 120.0
            },
            {
                "pitch": 67,
                "velocity": 12,
                "duration": 0.2591,
                "tempo": 120.0
            },
            {
                "pitch": 0,
                "velocity": 0,
                "duration": 0.0545,
                "tempo": 0
            },
            {
                "pitch": 64,
                "velocity": 12,
                "duration": 2.3273,
                "tempo": 120.0
            },
            {
                "pitch": 0,
                "velocity": 0,
                "duration": 0.2182,
                "tempo": 0
            },
            {
                "pitch": 76,
                "velocity": 10,
                "duration": 1.05,
                "tempo": 120.0
            },
            {
                "pitch": 0,
                "velocity": 0,
                "duration": 0.2159,
                "tempo": 0
            },
            {
                "pitch": 74,
                "velocity": 10,
                "duration": 0.7909,
                "tempo": 120.0
            },
            {
                "pitch": 69,
                "velocity": 12,
                "duration": 6.5114,
                "tempo": 120.0
            },
            {
                "pitch": 69,
                "velocity": 10,
                "duration": 0.2636,
                "tempo": 120.0
            },
            {
                "pitch": 0,
                "velocity": 0,
                "duration": 0.0545,
                "tempo": 0
            },
            {
                "pitch": 72,
                "velocity": 10,
                "duration": 1.1659,
                "tempo": 120.0
            },
            {
                "pitch": 76,
                "velocity": 10,
                "duration": 2.5455,
                "tempo": 120.0
            },
            {
                "pitch": 71,
                "velocity": 10,
                "duration": 0.5227,
                "tempo": 120.0
            },
            {
                "pitch": 0,
                "velocity": 0,
                "duration": 0.3205,
                "tempo": 0
            },
            {
                "pitch": 72,
                "velocity": 10,
                "duration": 0.1614,
                "tempo": 120.0
            },
            {
                "pitch": 0,
                "velocity": 0,
                "duration": 0.0523,
                "tempo": 0
            },
            {
                "pitch": 74,
                "velocity": 10,
                "duration": 0.1568,
                "tempo": 120.0
            },
            {
                "pitch": 0,
                "velocity": 0,
                "duration": 0.0523,
                "tempo": 0
            },
            {
                "pitch": 74,
                "velocity": 10,
                "duration": 0.0023,
                "tempo": 120.0
            },
            {
                "pitch": 76,
                "velocity": 10,
                "duration": 2.325,
                "tempo": 120.0
            },
            {
                "pitch": 76,
                "velocity": 10,
                "duration": 1.0568,
                "tempo": 120.0
            },
            {
                "pitch": 0,
                "velocity": 0,
                "duration": 0.2091,
                "tempo": 0
            },
            {
                "pitch": 74,
                "velocity": 10,
                "duration": 0.7159,
                "tempo": 120.0
            },
            {
                "pitch": 77,
                "velocity": 10,
                "duration": 5.1864,
                "tempo": 120.0
            },
            {
                "pitch": 69,
                "velocity": 10,
                "duration": 0.1614,
                "tempo": 120.0
            },
            {
                "pitch": 43,
                "velocity": 10,
                "duration": 5.0864,
                "tempo": 120.0
            },
            {
                "pitch": 72,
                "velocity": 10,
                "duration": 3.8114,
                "tempo": 120.0
            },
            {
                "pitch": 72,
                "velocity": 10,
                "duration": 1.1636,
                "tempo": 120.0
            },
            {
                "pitch": 76,
                "velocity": 10,
                "duration": 2.5455,
                "tempo": 120.0
            },
            {
                "pitch": 71,
                "velocity": 10,
                "duration": 1.0568,
                "tempo": 120.0
            },
            {
                "pitch": 78,
                "velocity": 12,
                "duration": 33.3545,
                "tempo": 120.0
            },
            {
                "pitch": 69,
                "velocity": 15,
                "duration": 0.0045,
                "tempo": 120.0
            }
        ],
        "Lead 2 (sawtooth)": [
            {
                "pitch": 0,
                "velocity": 0,
                "duration": 0.0023,
                "tempo": 0
            },
            {
                "pitch": 60,
                "velocity": 15,
                "duration": 0.1523,
                "tempo": 120.0
            },
            {
                "pitch": 0,
                "velocity": 0,
                "duration": 0.0545,
                "tempo": 0
            },
            {
                "pitch": 60,
                "velocity": 15,
                "duration": 0.0773,
                "tempo": 120.0
            },
            {
                "pitch": 0,
                "velocity": 0,
                "duration": 0.6773,
                "tempo": 0
            },
            {
                "pitch": 60,
                "velocity": 15,
                "duration": 0.1545,
                "tempo": 120.0
            },
            {
                "pitch": 0,
                "velocity": 0,
                "duration": 0.0545,
                "tempo": 0
            },
            {
                "pitch": 60,
                "velocity": 15,
                "duration": 0.0773,
                "tempo": 120.0
            },
            {
                "pitch": 0,
                "velocity": 0,
                "duration": 0.0273,
                "tempo": 0
            },
            {
                "pitch": 60,
                "velocity": 15,
                "duration": 0.1614,
                "tempo": 120.0
            },
            {
                "pitch": 0,
                "velocity": 0,
                "duration": 0.0545,
                "tempo": 0
            },
            {
                "pitch": 60,
                "velocity": 15,
                "duration": 0.0795,
                "tempo": 120.0
            },
            {
                "pitch": 0,
                "velocity": 0,
                "duration": 0.9727,
                "tempo": 0
            },
            {
                "pitch": 60,
                "velocity": 15,
                "duration": 0.1545,
                "tempo": 120.0
            },
            {
                "pitch": 0,
                "velocity": 0,
                "duration": 0.0545,
                "tempo": 0
            },
            {
                "pitch": 60,
                "velocity": 15,
                "duration": 0.0773,
                "tempo": 120.0
            },
            {
                "pitch": 0,
                "velocity": 0,
                "duration": 0.6659,
                "tempo": 0
            },
            {
                "pitch": 60,
                "velocity": 15,
                "duration": 0.1545,
                "tempo": 120.0
            },
            {
                "pitch": 0,
                "velocity": 0,
                "duration": 0.0545,
                "tempo": 0
            },
            {
                "pitch": 60,
                "velocity": 15,
                "duration": 0.0773,
                "tempo": 120.0
            },
            {
                "pitch": 0,
                "velocity": 0,
                "duration": 0.0273,
                "tempo": 0
            },
            {
                "pitch": 60,
                "velocity": 15,
                "duration": 0.1614,
                "tempo": 120.0
            },
            {
                "pitch": 0,
                "velocity": 0,
                "duration": 0.0545,
                "tempo": 0
            },
            {
                "pitch": 60,
                "velocity": 15,
                "duration": 0.0795,
                "tempo": 120.0
            },
            {
                "pitch": 0,
                "velocity": 0,
                "duration": 0.8773,
                "tempo": 0
            },
            {
                "pitch": 60,
                "velocity": 15,
                "duration": 0.0773,
                "tempo": 120.0
            },
            {
                "pitch": 0,
                "velocity": 0,
                "duration": 0.3523,
                "tempo": 0
            },
            {
                "pitch": 60,
                "velocity": 12,
                "duration": 0.2614,
                "tempo": 120.0
            },
            {
                "pitch": 0,
                "velocity": 0,
                "duration": 0.3682,
                "tempo": 0
            },
            {
                "pitch": 59,
                "velocity": 12,
                "duration": 0.2591,
                "tempo": 120.0
            },
            {
                "pitch": 0,
                "velocity": 0,
                "duration": 0.6932,
                "tempo": 0
            },
            {
                "pitch": 57,
                "velocity": 12,
                "duration": 0.2614,
                "tempo": 120.0
            },
            {
                "pitch": 59,
                "velocity": 12,
                "duration": 0.5818,
                "tempo": 120.0
            },
            {
                "pitch": 59,
                "velocity": 12,
                "duration": 0.2682,
                "tempo": 120.0
            },
            {
                "pitch": 0,
                "velocity": 0,
                "duration": 0.3705,
                "tempo": 0
            },
            {
                "pitch": 60,
                "velocity": 12,
                "duration": 0.2614,
                "tempo": 120.0
            },
            {
                "pitch": 64,
                "velocity": 12,
                "duration": 2.5432,
                "tempo": 120.0
            },
            {
                "pitch": 59,
                "velocity": 12,
                "duration": 0.2614,
                "tempo": 120.0
            },
            {
                "pitch": 57,
                "velocity": 12,
                "duration": 2.4909,
                "tempo": 120.0
            },
            {
                "pitch": 57,
                "velocity": 12,
                "duration": 0.2591,
                "tempo": 120.0
            },
            {
                "pitch": 59,
                "velocity": 12,
                "duration": 0.5818,
                "tempo": 120.0
            },
            {
                "pitch": 59,
                "velocity": 12,
                "duration": 0.2682,
                "tempo": 120.0
            },
            {
                "pitch": 44,
                "velocity": 12,
                "duration": 2.5455,
                "tempo": 120.0
            },
            {
                "pitch": 60,
                "velocity": 12,
                "duration": 0.2591,
                "tempo": 120.0
            },
            {
                "pitch": 64,
                "velocity": 12,
                "duration": 2.5364,
                "tempo": 120.0
            },
            {
                "pitch": 59,
                "velocity": 12,
                "duration": 0.2682,
                "tempo": 120.0
            },
            {
                "pitch": 57,
                "velocity": 12,
                "duration": 2.4909,
                "tempo": 120.0
            },
            {
                "pitch": 57,
                "velocity": 12,
                "duration": 0.2614,
                "tempo": 120.0
            },
            {
                "pitch": 59,
                "velocity": 12,
                "duration": 0.575,
                "tempo": 120.0
            },
            {
                "pitch": 59,
                "velocity": 12,
                "duration": 0.2591,
                "tempo": 120.0
            },
            {
                "pitch": 44,
                "velocity": 12,
                "duration": 2.5455,
                "tempo": 120.0
            },
            {
                "pitch": 44,
                "velocity": 12,
                "duration": 0.0023,
                "tempo": 120.0
            },
            {
                "pitch": 60,
                "velocity": 12,
                "duration": 0.2591,
                "tempo": 120.0
            },
            {
                "pitch": 64,
                "velocity": 12,
                "duration": 2.5432,
                "tempo": 120.0
            },
            {
                "pitch": 59,
                "velocity": 12,
                "duration": 0.2614,
                "tempo": 120.0
            },
            {
                "pitch": 57,
                "velocity": 12,
                "duration": 2.4886,
                "tempo": 120.0
            },
            {
                "pitch": 57,
                "velocity": 12,
                "duration": 0.2682,
                "tempo": 120.0
            },
            {
                "pitch": 59,
                "velocity": 12,
                "duration": 0.5841,
                "tempo": 120.0
            },
            {
                "pitch": 59,
                "velocity": 12,
                "duration": 0.2614,
                "tempo": 120.0
            },
            {
                "pitch": 0,
                "velocity": 0,
                "duration": 0.0545,
                "tempo": 0
            },
            {
                "pitch": 56,
                "velocity": 12,
                "duration": 2.3273,
                "tempo": 120.0
            },
            {
                "pitch": 0,
                "velocity": 0,
                "duration": 30.7136,
                "tempo": 0
            },
            {
                "pitch": 60,
                "velocity": 15,
                "duration": 0.0023,
                "tempo": 120.0
            }
        ],
        "Synth Bass 1": [
            {
                "pitch": 0,
                "velocity": 0,
                "duration": 27.9614,
                "tempo": 0
            },
            {
                "pitch": 76,
                "velocity": 1,
                "duration": 0.2682,
                "tempo": 120.0
            },
            {
                "pitch": 0,
                "velocity": 0,
                "duration": 0.0545,
                "tempo": 0
            },
            {
                "pitch": 74,
                "velocity": 1,
                "duration": 0.2614,
                "tempo": 120.0
            },
            {
                "pitch": 0,
                "velocity": 0,
                "duration": 0.0523,
                "tempo": 0
            },
            {
                "pitch": 72,
                "velocity": 1,
                "duration": 0.2705,
                "tempo": 120.0
            },
            {
                "pitch": 76,
                "velocity": 1,
                "duration": 0.6386,
                "tempo": 120.0
            },
            {
                "pitch": 71,
                "velocity": 1,
                "duration": 0.2614,
                "tempo": 120.0
            },
            {
                "pitch": 56,
                "velocity": 1,
                "duration": 1.2773,
                "tempo": 120.0
            },
            {
                "pitch": 76,
                "velocity": 1,
                "duration": 0.575,
                "tempo": 120.0
            },
            {
                "pitch": 76,
                "velocity": 1,
                "duration": 0.2591,
                "tempo": 120.0
            },
            {
                "pitch": 74,
                "velocity": 1,
                "duration": 1.2227,
                "tempo": 120.0
            },
            {
                "pitch": 74,
                "velocity": 1,
                "duration": 0.2682,
                "tempo": 120.0
            },
            {
                "pitch": 0,
                "velocity": 0,
                "duration": 0.0545,
                "tempo": 0
            },
            {
                "pitch": 72,
                "velocity": 1,
                "duration": 0.2614,
                "tempo": 120.0
            },
            {
                "pitch": 76,
                "velocity": 1,
                "duration": 0.6386,
                "tempo": 120.0
            },
            {
                "pitch": 71,
                "velocity": 1,
                "duration": 0.2614,
                "tempo": 120.0
            },
            {
                "pitch": 0,
                "velocity": 0,
                "duration": 0.0545,
                "tempo": 0
            },
            {
                "pitch": 64,
                "velocity": 1,
                "duration": 0.5318,
                "tempo": 120.0
            },
            {
                "pitch": 0,
                "velocity": 0,
                "duration": 0.1045,
                "tempo": 0
            },
            {
                "pitch": 64,
                "velocity": 1,
                "duration": 0.5227,
                "tempo": 120.0
            },
            {
                "pitch": 0,
                "velocity": 0,
                "duration": 0.1068,
                "tempo": 0
            },
            {
                "pitch": 77,
                "velocity": 1,
                "duration": 0.2682,
                "tempo": 120.0
            },
            {
                "pitch": 76,
                "velocity": 1,
                "duration": 2.1659,
                "tempo": 120.0
            },
            {
                "pitch": 76,
                "velocity": 1,
                "duration": 0.2614,
                "tempo": 120.0
            },
            {
                "pitch": 0,
                "velocity": 0,
                "duration": 0.0545,
                "tempo": 0
            },
            {
                "pitch": 77,
                "velocity": 1,
                "duration": 0.2682,
                "tempo": 120.0
            },
            {
                "pitch": 0,
                "velocity": 0,
                "duration": 0.0545,
                "tempo": 0
            },
            {
                "pitch": 80,
                "velocity": 1,
                "duration": 0.2614,
                "tempo": 120.0
            },
            {
                "pitch": 0,
                "velocity": 0,
                "duration": 7.6773,
                "tempo": 0
            },
            {
                "pitch": 76,
                "velocity": 1,
                "duration": 1.2136,
                "tempo": 120.0
            },
            {
                "pitch": 0,
                "velocity": 0,
                "duration": 0.0545,
                "tempo": 0
            },
            {
                "pitch": 76,
                "velocity": 1,
                "duration": 0.2682,
                "tempo": 120.0
            },
            {
                "pitch": 0,
                "velocity": 0,
                "duration": 0.0545,
                "tempo": 0
            },
            {
                "pitch": 76,
                "velocity": 1,
                "duration": 0.2614,
                "tempo": 120.0
            },
            {
                "pitch": 90,
                "velocity": 1,
                "duration": 9.8455,
                "tempo": 120.0
            },
            {
                "pitch": 79,
                "velocity": 1,
                "duration": 0.2682,
                "tempo": 120.0
            },
            {
                "pitch": 0,
                "velocity": 0,
                "duration": 0.0545,
                "tempo": 0
            },
            {
                "pitch": 77,
                "velocity": 1,
                "duration": 0.2614,
                "tempo": 120.0
            },
            {
                "pitch": 74,
                "velocity": 1,
                "duration": 13.7455,
                "tempo": 120.0
            },
            {
                "pitch": 74,
                "velocity": 1,
                "duration": 0.4023,
                "tempo": 120.0
            },
            {
                "pitch": 77,
                "velocity": 1,
                "duration": 0.4295,
                "tempo": 120.0
            },
            {
                "pitch": 69,
                "velocity": 1,
                "duration": 0.7841,
                "tempo": 120.0
            },
            {
                "pitch": 0,
                "velocity": 0,
                "duration": 0.0523,
                "tempo": 0
            },
            {
                "pitch": 69,
                "velocity": 1,
                "duration": 0.4023,
                "tempo": 120.0
            },
            {
                "pitch": 0,
                "velocity": 0,
                "duration": 0.0273,
                "tempo": 0
            },
            {
                "pitch": 68,
                "velocity": 1,
                "duration": 0.7932,
                "tempo": 120.0
            },
            {
                "pitch": 0,
                "velocity": 0,
                "duration": 0.0545,
                "tempo": 0
            },
            {
                "pitch": 62,
                "velocity": 1,
                "duration": 0.3932,
                "tempo": 120.0
            },
            {
                "pitch": 0,
                "velocity": 0,
                "duration": 0.0273,
                "tempo": 0
            },
            {
                "pitch": 62,
                "velocity": 1,
                "duration": 0.7955,
                "tempo": 120.0
            },
            {
                "pitch": 0,
                "velocity": 0,
                "duration": 0.0523,
                "tempo": 0
            },
            {
                "pitch": 64,
                "velocity": 1,
                "duration": 0.1568,
                "tempo": 120.0
            },
            {
                "pitch": 0,
                "velocity": 0,
                "duration": 0.0523,
                "tempo": 0
            },
            {
                "pitch": 64,
                "velocity": 1,
                "duration": 0.1568,
                "tempo": 120.0
            },
            {
                "pitch": 0,
                "velocity": 0,
                "duration": 0.0523,
                "tempo": 0
            },
            {
                "pitch": 64,
                "velocity": 1,
                "duration": 0.1568,
                "tempo": 120.0
            },
            {
                "pitch": 0,
                "velocity": 0,
                "duration": 0.0545,
                "tempo": 0
            },
            {
                "pitch": 64,
                "velocity": 1,
                "duration": 0.3614,
                "tempo": 120.0
            }
        ],
        "Acoustic Grand Piano": [
            {
                "pitch": 0,
                "velocity": 0,
                "duration": 48.3159,
                "tempo": 0
            },
            {
                "pitch": 108,
                "velocity": 15,
                "duration": 0.1,
                "tempo": 120.0
            }
        ]
    }
}