{
    "track_id": "11 Stage-5_3",
    "mood": "angry",
    "instruments": {
        "Lead 1 (square)": [
            {
                "pitch": 0,
                "velocity": 0,
                "duration": 38.6477,
                "tempo": 0
            },
            {
                "pitch": 48,
                "velocity": 12,
                "duration": 0.45,
                "tempo": 120.0
            },
            {
                "pitch": 50,
                "velocity": 12,
                "duration": 0.4477,
                "tempo": 120.0
            },
            {
                "pitch": 52,
                "velocity": 12,
                "duration": 0.3068,
                "tempo": 120.0
            },
            {
                "pitch": 52,
                "velocity": 12,
                "duration": 0.3068,
                "tempo": 120.0
            },
            {
                "pitch": 50,
                "velocity": 12,
                "duration": 0.4568,
                "tempo": 120.0
            },
            {
                "pitch": 50,
                "velocity": 12,
                "duration": 0.4568,
                "tempo": 120.0
            },
            {
                "pitch": 52,
                "velocity": 12,
                "duration": 0.4545,
                "tempo": 120.0
            },
            {
                "pitch": 52,
                "velocity": 12,
                "duration": 0.4545,
                "tempo": 120.0
            },
            {
                "pitch": 55,
                "velocity": 12,
                "duration": 0.3023,
                "tempo": 120.0
            },
            {
                "pitch": 57,
                "velocity": 12,
                "duration": 1.8159,
                "tempo": 120.0
            },
            {
                "pitch": 57,
                "velocity": 12,
                "duration": 1.8159,
                "tempo": 120.0
            },
            {
                "pitch": 59,
                "velocity": 12,
                "duration": 0.6091,
                "tempo": 120.0
            },
            {
                "pitch": 59,
                "velocity": 12,
                "duration": 0.6091,
                "tempo": 120.0
            },
            {
                "pitch": 60,
                "velocity": 12,
                "duration": 2.1159,
                "tempo": 120.0
            },
            {
                "pitch": 62,
                "velocity": 12,
                "duration": 0.3045,
                "tempo": 120.0
            },
            {
                "pitch": 64,
                "velocity": 12,
                "duration": 2.4205,
                "tempo": 120.0
            },
            {
                "pitch": 64,
                "velocity": 12,
                "duration": 1.8182,
                "tempo": 120.0
            },
            {
                "pitch": 64,
                "velocity": 12,
                "duration": 1.8182,
                "tempo": 120.0
            },
            {
                "pitch": 67,
                "velocity": 12,
                "duration": 0.6023,
                "tempo": 120.0
            },
            {
                "pitch": 69,
                "velocity": 12,
                "duration": 1.3659,
                "tempo": 120.0
            },
            {
                "pitch": 69,
                "velocity": 12,
                "duration": 0.1523,
                "tempo": 120.0
            },
            {
                "pitch": 67,
                "velocity": 12,
                "duration": 0.15,
                "tempo": 120.0
            },
            {
                "pitch": 64,
                "velocity": 12,
                "duration": 0.1523,
                "tempo": 120.0
            },
            {
                "pitch": 62,
                "velocity": 12,
                "duration": 0.1523,
                "tempo": 120.0
            },
            {
                "pitch": 62,
                "velocity": 12,
                "duration": 0.1523,
                "tempo": 120.0
            },
            {
                "pitch": 60,
                "velocity": 12,
                "duration": 0.1,
                "tempo": 120.0
            },
            {
                "pitch": 62,
                "velocity": 12,
                "duration": 0.1,
                "tempo": 120.0
            },
            {
                "pitch": 60,
                "velocity": 12,
                "duration": 0.1,
                "tempo": 120.0
            },
            {
                "pitch": 0,
                "velocity": 0,
                "duration": 0.0023,
                "tempo": 0
            },
            {
                "pitch": 59,
                "velocity": 12,
                "duration": 0.15,
                "tempo": 120.0
            },
            {
                "pitch": 60,
                "velocity": 12,
                "duration": 0.4523,
                "tempo": 120.0
            },
            {
                "pitch": 62,
                "velocity": 12,
                "duration": 0.4545,
                "tempo": 120.0
            },
            {
                "pitch": 64,
                "velocity": 12,
                "duration": 0.9068,
                "tempo": 120.0
            },
            {
                "pitch": 64,
                "velocity": 12,
                "duration": 0.3045,
                "tempo": 120.0
            },
            {
                "pitch": 64,
                "velocity": 12,
                "duration": 0.3045,
                "tempo": 120.0
            },
            {
                "pitch": 62,
                "velocity": 12,
                "duration": 0.4545,
                "tempo": 120.0
            },
            {
                "pitch": 62,
                "velocity": 12,
                "duration": 0.4545,
                "tempo": 120.0
            },
            {
                "pitch": 44,
                "velocity": 12,
                "duration": 2.2727,
                "tempo": 120.0
            },
            {
                "pitch": 60,
                "velocity": 12,
                "duration": 0.4545,
                "tempo": 120.0
            },
            {
                "pitch": 59,
                "velocity": 12,
                "duration": 0.3045,
                "tempo": 120.0
            },
            {
                "pitch": 59,
                "velocity": 12,
                "duration": 0.15,
                "tempo": 120.0
            },
            {
                "pitch": 44,
                "velocity": 12,
                "duration": 0.6068,
                "tempo": 120.0
            },
            {
                "pitch": 60,
                "velocity": 12,
                "duration": 0.1523,
                "tempo": 120.0
            },
            {
                "pitch": 59,
                "velocity": 12,
                "duration": 0.15,
                "tempo": 120.0
            },
            {
                "pitch": 57,
                "velocity": 12,
                "duration": 0.15,
                "tempo": 120.0
            },
            {
                "pitch": 57,
                "velocity": 12,
                "duration": 0.15,
                "tempo": 120.0
            },
            {
                "pitch": 59,
                "velocity": 12,
                "duration": 0.15,
                "tempo": 120.0
            },
            {
                "pitch": 59,
                "velocity": 12,
                "duration": 0.15,
                "tempo": 120.0
            },
            {
                "pitch": 64,
                "velocity": 12,
                "duration": 0.6023,
                "tempo": 120.0
            },
            {
                "pitch": 44,
                "velocity": 12,
                "duration": 0.6023,
                "tempo": 120.0
            },
            {
                "pitch": 60,
                "velocity": 12,
                "duration": 0.1523,
                "tempo": 120.0
            },
            {
                "pitch": 59,
                "velocity": 12,
                "duration": 0.1523,
                "tempo": 120.0
            },
            {
                "pitch": 55,
                "velocity": 12,
                "duration": 0.1523,
                "tempo": 120.0
            },
            {
                "pitch": 55,
                "velocity": 12,
                "duration": 0.1523,
                "tempo": 120.0
            },
            {
                "pitch": 59,
                "velocity": 12,
                "duration": 0.1545,
                "tempo": 120.0
            },
            {
                "pitch": 59,
                "velocity": 12,
                "duration": 0.1545,
                "tempo": 120.0
            },
            {
                "pitch": 64,
                "velocity": 12,
                "duration": 0.6114,
                "tempo": 120.0
            },
            {
                "pitch": 44,
                "velocity": 12,
                "duration": 0.6114,
                "tempo": 120.0
            },
            {
                "pitch": 60,
                "velocity": 12,
                "duration": 0.1523,
                "tempo": 120.0
            },
            {
                "pitch": 59,
                "velocity": 12,
                "duration": 0.15,
                "tempo": 120.0
            },
            {
                "pitch": 57,
                "velocity": 12,
                "duration": 0.15,
                "tempo": 120.0
            },
            {
                "pitch": 57,
                "velocity": 12,
                "duration": 0.15,
                "tempo": 120.0
            },
            {
                "pitch": 59,
                "velocity": 12,
                "duration": 0.15,
                "tempo": 120.0
            },
            {
                "pitch": 59,
                "velocity": 12,
                "duration": 0.15,
                "tempo": 120.0
            },
            {
                "pitch": 64,
                "velocity": 12,
                "duration": 0.6023,
                "tempo": 120.0
            },
            {
                "pitch": 44,
                "velocity": 12,
                "duration": 0.6,
                "tempo": 120.0
            },
            {
                "pitch": 60,
                "velocity": 12,
                "duration": 0.15,
                "tempo": 120.0
            },
            {
                "pitch": 59,
                "velocity": 12,
                "duration": 0.1523,
                "tempo": 120.0
            },
            {
                "pitch": 52,
                "velocity": 12,
                "duration": 0.1523,
                "tempo": 120.0
            },
            {
                "pitch": 60,
                "velocity": 12,
                "duration": 0.4545,
                "tempo": 120.0
            },
            {
                "pitch": 62,
                "velocity": 12,
                "duration": 0.4545,
                "tempo": 120.0
            },
            {
                "pitch": 64,
                "velocity": 12,
                "duration": 1.3636,
                "tempo": 120.0
            },
            {
                "pitch": 64,
                "velocity": 12,
                "duration": 0.3045,
                "tempo": 120.0
            },
            {
                "pitch": 64,
                "velocity": 12,
                "duration": 0.3023,
                "tempo": 120.0
            },
            {
                "pitch": 62,
                "velocity": 12,
                "duration": 0.6068,
                "tempo": 120.0
            },
            {
                "pitch": 62,
                "velocity": 12,
                "duration": 0.6068,
                "tempo": 120.0
            },
            {
                "pitch": 44,
                "velocity": 12,
                "duration": 2.7273,
                "tempo": 120.0
            },
            {
                "pitch": 60,
                "velocity": 12,
                "duration": 0.6023,
                "tempo": 120.0
            },
            {
                "pitch": 59,
                "velocity": 12,
                "duration": 0.15,
                "tempo": 120.0
            },
            {
                "pitch": 44,
                "velocity": 12,
                "duration": 0.3023,
                "tempo": 120.0
            },
            {
                "pitch": 60,
                "velocity": 12,
                "duration": 0.1523,
                "tempo": 120.0
            },
            {
                "pitch": 59,
                "velocity": 12,
                "duration": 0.1523,
                "tempo": 120.0
            },
            {
                "pitch": 57,
                "velocity": 12,
                "duration": 0.15,
                "tempo": 120.0
            },
            {
                "pitch": 57,
                "velocity": 12,
                "duration": 0.15,
                "tempo": 120.0
            },
            {
                "pitch": 59,
                "velocity": 12,
                "duration": 0.1523,
                "tempo": 120.0
            },
            {
                "pitch": 59,
                "velocity": 12,
                "duration": 0.1523,
                "tempo": 120.0
            },
            {
                "pitch": 64,
                "velocity": 12,
                "duration": 0.6068,
                "tempo": 120.0
            },
            {
                "pitch": 44,
                "velocity": 12,
                "duration": 0.6068,
                "tempo": 120.0
            },
            {
                "pitch": 60,
                "velocity": 12,
                "duration": 0.1523,
                "tempo": 120.0
            },
            {
                "pitch": 59,
                "velocity": 12,
                "duration": 0.1523,
                "tempo": 120.0
            },
            {
                "pitch": 66,
                "velocity": 12,
                "duration": 3.6364,
                "tempo": 120.0
            },
            {
                "pitch": 52,
                "velocity": 12,
                "duration": 0.15,
                "tempo": 120.0
            },
            {
                "pitch": 59,
                "velocity": 12,
                "duration": 0.1523,
                "tempo": 120.0
            },
            {
                "pitch": 64,
                "velocity": 12,
                "duration": 0.6068,
                "tempo": 120.0
            },
            {
                "pitch": 44,
                "velocity": 12,
                "duration": 0.6068,
                "tempo": 120.0
            },
            {
                "pitch": 60,
                "velocity": 12,
                "duration": 0.1523,
                "tempo": 120.0
            },
            {
                "pitch": 59,
                "velocity": 12,
                "duration": 0.1523,
                "tempo": 120.0
            },
            {
                "pitch": 57,
                "velocity": 12,
                "duration": 0.15,
                "tempo": 120.0
            },
            {
                "pitch": 57,
                "velocity": 12,
                "duration": 0.15,
                "tempo": 120.0
            },
            {
                "pitch": 59,
                "velocity": 12,
                "duration": 0.1523,
                "tempo": 120.0
            },
            {
                "pitch": 59,
                "velocity": 12,
                "duration": 0.1523,
                "tempo": 120.0
            },
            {
                "pitch": 64,
                "velocity": 12,
                "duration": 0.6068,
                "tempo": 120.0
            },
            {
                "pitch": 44,
                "velocity": 12,
                "duration": 0.6068,
                "tempo": 120.0
            },
            {
                "pitch": 60,
                "velocity": 12,
                "duration": 0.1523,
                "tempo": 120.0
            },
            {
                "pitch": 59,
                "velocity": 12,
                "duration": 0.1523,
                "tempo": 120.0
            },
            {
                "pitch": 66,
                "velocity": 12,
                "duration": 1.2136,
                "tempo": 120.0
            },
            {
                "pitch": 48,
                "velocity": 12,
                "duration": 4.85,
                "tempo": 120.0
            },
            {
                "pitch": 52,
                "velocity": 12,
                "duration": 0.1523,
                "tempo": 120.0
            },
            {
                "pitch": 60,
                "velocity": 12,
                "duration": 0.4523,
                "tempo": 120.0
            },
            {
                "pitch": 62,
                "velocity": 12,
                "duration": 0.45,
                "tempo": 120.0
            },
            {
                "pitch": 64,
                "velocity": 12,
                "duration": 1.3591,
                "tempo": 120.0
            },
            {
                "pitch": 64,
                "velocity": 12,
                "duration": 0.3045,
                "tempo": 120.0
            },
            {
                "pitch": 64,
                "velocity": 12,
                "duration": 0.3045,
                "tempo": 120.0
            },
            {
                "pitch": 62,
                "velocity": 12,
                "duration": 0.15,
                "tempo": 120.0
            },
            {
                "pitch": 62,
                "velocity": 12,
                "duration": 0.15,
                "tempo": 120.0
            },
            {
                "pitch": 64,
                "velocity": 12,
                "duration": 0.1523,
                "tempo": 120.0
            },
            {
                "pitch": 64,
                "velocity": 12,
                "duration": 0.1523,
                "tempo": 120.0
            },
            {
                "pitch": 65,
                "velocity": 12,
                "duration": 0.1523,
                "tempo": 120.0
            },
            {
                "pitch": 64,
                "velocity": 12,
                "duration": 0.1523,
                "tempo": 120.0
            },
            {
                "pitch": 65,
                "velocity": 12,
                "duration": 0.15,
                "tempo": 120.0
            },
            {
                "pitch": 67,
                "velocity": 12,
                "duration": 0.1523,
                "tempo": 120.0
            },
            {
                "pitch": 78,
                "velocity": 12,
                "duration": 12.5682,
                "tempo": 120.0
            },
            {
                "pitch": 44,
                "velocity": 12,
                "duration": 2.575,
                "tempo": 120.0
            },
            {
                "pitch": 65,
                "velocity": 12,
                "duration": 0.1523,
                "tempo": 120.0
            }
        ],
        "Lead 2 (sawtooth)": [
            {
                "pitch": 0,
                "velocity": 0,
                "duration": 0.2,
                "tempo": 0
            },
            {
                "pitch": 57,
                "velocity": 12,
                "duration": 0.1,
                "tempo": 120.0
            },
            {
                "pitch": 0,
                "velocity": 0,
                "duration": 0.35,
                "tempo": 0
            },
            {
                "pitch": 57,
                "velocity": 12,
                "duration": 0.1,
                "tempo": 120.0
            },
            {
                "pitch": 0,
                "velocity": 0,
                "duration": 0.3591,
                "tempo": 0
            },
            {
                "pitch": 55,
                "velocity": 12,
                "duration": 0.4023,
                "tempo": 120.0
            },
            {
                "pitch": 0,
                "velocity": 0,
                "duration": 0.0523,
                "tempo": 0
            },
            {
                "pitch": 53,
                "velocity": 12,
                "duration": 0.3955,
                "tempo": 120.0
            },
            {
                "pitch": 0,
                "velocity": 0,
                "duration": 0.05,
                "tempo": 0
            },
            {
                "pitch": 52,
                "velocity": 12,
                "duration": 0.2545,
                "tempo": 120.0
            },
            {
                "pitch": 0,
                "velocity": 0,
                "duration": 0.3591,
                "tempo": 0
            },
            {
                "pitch": 57,
                "velocity": 12,
                "duration": 0.1,
                "tempo": 120.0
            },
            {
                "pitch": 0,
                "velocity": 0,
                "duration": 0.3545,
                "tempo": 0
            },
            {
                "pitch": 57,
                "velocity": 12,
                "duration": 0.1,
                "tempo": 120.0
            },
            {
                "pitch": 0,
                "velocity": 0,
                "duration": 0.3523,
                "tempo": 0
            },
            {
                "pitch": 55,
                "velocity": 12,
                "duration": 0.4,
                "tempo": 120.0
            },
            {
                "pitch": 0,
                "velocity": 0,
                "duration": 0.0523,
                "tempo": 0
            },
            {
                "pitch": 53,
                "velocity": 12,
                "duration": 0.4045,
                "tempo": 120.0
            },
            {
                "pitch": 0,
                "velocity": 0,
                "duration": 0.05,
                "tempo": 0
            },
            {
                "pitch": 52,
                "velocity": 12,
                "duration": 0.2523,
                "tempo": 120.0
            },
            {
                "pitch": 0,
                "velocity": 0,
                "duration": 0.3545,
                "tempo": 0
            },
            {
                "pitch": 53,
                "velocity": 12,
                "duration": 0.1,
                "tempo": 120.0
            },
            {
                "pitch": 0,
                "velocity": 0,
                "duration": 0.35,
                "tempo": 0
            },
            {
                "pitch": 53,
                "velocity": 12,
                "duration": 0.1,
                "tempo": 120.0
            },
            {
                "pitch": 0,
                "velocity": 0,
                "duration": 0.3545,
                "tempo": 0
            },
            {
                "pitch": 55,
                "velocity": 12,
                "duration": 0.4023,
                "tempo": 120.0
            },
            {
                "pitch": 0,
                "velocity": 0,
                "duration": 0.0523,
                "tempo": 0
            },
            {
                "pitch": 53,
                "velocity": 12,
                "duration": 0.3977,
                "tempo": 120.0
            },
            {
                "pitch": 0,
                "velocity": 0,
                "duration": 0.0523,
                "tempo": 0
            },
            {
                "pitch": 55,
                "velocity": 12,
                "duration": 0.2523,
                "tempo": 120.0
            },
            {
                "pitch": 0,
                "velocity": 0,
                "duration": 0.2023,
                "tempo": 0
            },
            {
                "pitch": 57,
                "velocity": 8,
                "duration": 0.1,
                "tempo": 120.0
            },
            {
                "pitch": 0,
                "velocity": 0,
                "duration": 0.3523,
                "tempo": 0
            },
            {
                "pitch": 57,
                "velocity": 8,
                "duration": 0.1,
                "tempo": 120.0
            },
            {
                "pitch": 0,
                "velocity": 0,
                "duration": 0.5,
                "tempo": 0
            },
            {
                "pitch": 57,
                "velocity": 8,
                "duration": 0.1,
                "tempo": 120.0
            },
            {
                "pitch": 0,
                "velocity": 0,
                "duration": 0.3545,
                "tempo": 0
            },
            {
                "pitch": 53,
                "velocity": 8,
                "duration": 0.2545,
                "tempo": 120.0
            },
            {
                "pitch": 0,
                "velocity": 0,
                "duration": 0.0523,
                "tempo": 0
            },
            {
                "pitch": 53,
                "velocity": 8,
                "duration": 0.1,
                "tempo": 120.0
            },
            {
                "pitch": 0,
                "velocity": 0,
                "duration": 0.0523,
                "tempo": 0
            },
            {
                "pitch": 55,
                "velocity": 8,
                "duration": 0.25,
                "tempo": 120.0
            },
            {
                "pitch": 0,
                "velocity": 0,
                "duration": 0.2,
                "tempo": 0
            },
            {
                "pitch": 57,
                "velocity": 8,
                "duration": 0.1,
                "tempo": 120.0
            },
            {
                "pitch": 0,
                "velocity": 0,
                "duration": 0.3523,
                "tempo": 0
            },
            {
                "pitch": 57,
                "velocity": 8,
                "duration": 0.0977,
                "tempo": 120.0
            },
            {
                "pitch": 0,
                "velocity": 0,
                "duration": 0.5023,
                "tempo": 0
            },
            {
                "pitch": 57,
                "velocity": 8,
                "duration": 0.1,
                "tempo": 120.0
            },
            {
                "pitch": 0,
                "velocity": 0,
                "duration": 0.35,
                "tempo": 0
            },
            {
                "pitch": 53,
                "velocity": 8,
                "duration": 0.25,
                "tempo": 120.0
            },
            {
                "pitch": 0,
                "velocity": 0,
                "duration": 0.05,
                "tempo": 0
            },
            {
                "pitch": 53,
                "velocity": 8,
                "duration": 0.1,
                "tempo": 120.0
            },
            {
                "pitch": 0,
                "velocity": 0,
                "duration": 0.0523,
                "tempo": 0
            },
            {
                "pitch": 55,
                "velocity": 8,
                "duration": 0.25,
                "tempo": 120.0
            },
            {
                "pitch": 0,
                "velocity": 0,
                "duration": 0.2045,
                "tempo": 0
            },
            {
                "pitch": 52,
                "velocity": 8,
                "duration": 0.1,
                "tempo": 120.0
            },
            {
                "pitch": 0,
                "velocity": 0,
                "duration": 0.3523,
                "tempo": 0
            },
            {
                "pitch": 52,
                "velocity": 8,
                "duration": 0.0977,
                "tempo": 120.0
            },
            {
                "pitch": 0,
                "velocity": 0,
                "duration": 0.5023,
                "tempo": 0
            },
            {
                "pitch": 53,
                "velocity": 8,
                "duration": 0.1,
                "tempo": 120.0
            },
            {
                "pitch": 0,
                "velocity": 0,
                "duration": 0.5068,
                "tempo": 0
            },
            {
                "pitch": 53,
                "velocity": 8,
                "duration": 0.2545,
                "tempo": 120.0
            },
            {
                "pitch": 0,
                "velocity": 0,
                "duration": 0.0523,
                "tempo": 0
            },
            {
                "pitch": 55,
                "velocity": 8,
                "duration": 0.2477,
                "tempo": 120.0
            },
            {
                "pitch": 0,
                "velocity": 0,
                "duration": 0.3477,
                "tempo": 0
            },
            {
                "pitch": 57,
                "velocity": 8,
                "duration": 0.1,
                "tempo": 120.0
            },
            {
                "pitch": 0,
                "velocity": 0,
                "duration": 0.3591,
                "tempo": 0
            },
            {
                "pitch": 57,
                "velocity": 8,
                "duration": 0.4,
                "tempo": 120.0
            },
            {
                "pitch": 0,
                "velocity": 0,
                "duration": 0.3477,
                "tempo": 0
            },
            {
                "pitch": 57,
                "velocity": 8,
                "duration": 0.1023,
                "tempo": 120.0
            },
            {
                "pitch": 0,
                "velocity": 0,
                "duration": 0.3568,
                "tempo": 0
            },
            {
                "pitch": 57,
                "velocity": 8,
                "duration": 0.0682,
                "tempo": 120.0
            },
            {
                "pitch": 0,
                "velocity": 0,
                "duration": 0.0864,
                "tempo": 0
            },
            {
                "pitch": 57,
                "velocity": 8,
                "duration": 0.0659,
                "tempo": 120.0
            },
            {
                "pitch": 0,
                "velocity": 0,
                "duration": 0.0841,
                "tempo": 0
            },
            {
                "pitch": 57,
                "velocity": 8,
                "duration": 0.0659,
                "tempo": 120.0
            },
            {
                "pitch": 0,
                "velocity": 0,
                "duration": 0.3841,
                "tempo": 0
            },
            {
                "pitch": 55,
                "velocity": 8,
                "duration": 0.1,
                "tempo": 120.0
            },
            {
                "pitch": 0,
                "velocity": 0,
                "duration": 0.3545,
                "tempo": 0
            },
            {
                "pitch": 55,
                "velocity": 8,
                "duration": 0.4023,
                "tempo": 120.0
            },
            {
                "pitch": 0,
                "velocity": 0,
                "duration": 0.35,
                "tempo": 0
            },
            {
                "pitch": 55,
                "velocity": 8,
                "duration": 0.1,
                "tempo": 120.0
            },
            {
                "pitch": 0,
                "velocity": 0,
                "duration": 0.3568,
                "tempo": 0
            },
            {
                "pitch": 55,
                "velocity": 8,
                "duration": 0.0659,
                "tempo": 120.0
            },
            {
                "pitch": 0,
                "velocity": 0,
                "duration": 0.0841,
                "tempo": 0
            },
            {
                "pitch": 55,
                "velocity": 8,
                "duration": 0.0682,
                "tempo": 120.0
            },
            {
                "pitch": 0,
                "velocity": 0,
                "duration": 0.0841,
                "tempo": 0
            },
            {
                "pitch": 55,
                "velocity": 8,
                "duration": 0.0659,
                "tempo": 120.0
            },
            {
                "pitch": 0,
                "velocity": 0,
                "duration": 0.3886,
                "tempo": 0
            },
            {
                "pitch": 53,
                "velocity": 8,
                "duration": 0.1,
                "tempo": 120.0
            },
            {
                "pitch": 0,
                "velocity": 0,
                "duration": 0.3523,
                "tempo": 0
            },
            {
                "pitch": 53,
                "velocity": 8,
                "duration": 0.4023,
                "tempo": 120.0
            },
            {
                "pitch": 0,
                "velocity": 0,
                "duration": 0.3545,
                "tempo": 0
            },
            {
                "pitch": 53,
                "velocity": 8,
                "duration": 0.0977,
                "tempo": 120.0
            },
            {
                "pitch": 0,
                "velocity": 0,
                "duration": 0.3523,
                "tempo": 0
            },
            {
                "pitch": 53,
                "velocity": 8,
                "duration": 0.0659,
                "tempo": 120.0
            },
            {
                "pitch": 0,
                "velocity": 0,
                "duration": 0.0841,
                "tempo": 0
            },
            {
                "pitch": 53,
                "velocity": 8,
                "duration": 0.0659,
                "tempo": 120.0
            },
            {
                "pitch": 0,
                "velocity": 0,
                "duration": 0.0864,
                "tempo": 0
            },
            {
                "pitch": 53,
                "velocity": 8,
                "duration": 0.0659,
                "tempo": 120.0
            },
            {
                "pitch": 0,
                "velocity": 0,
                "duration": 0.3886,
                "tempo": 0
            },
            {
                "pitch": 52,
                "velocity": 8,
                "duration": 0.1023,
                "tempo": 120.0
            },
            {
                "pitch": 0,
                "velocity": 0,
                "duration": 0.3591,
                "tempo": 0
            },
            {
                "pitch": 52,
                "velocity": 8,
                "duration": 0.3977,
                "tempo": 120.0
            },
            {
                "pitch": 0,
                "velocity": 0,
                "duration": 0.3477,
                "tempo": 0
            },
            {
                "pitch": 52,
                "velocity": 8,
                "duration": 0.1023,
                "tempo": 120.0
            },
            {
                "pitch": 0,
                "velocity": 0,
                "duration": 0.3591,
                "tempo": 0
            },
            {
                "pitch": 52,
                "velocity": 8,
                "duration": 0.0659,
                "tempo": 120.0
            },
            {
                "pitch": 0,
                "velocity": 0,
                "duration": 0.0864,
                "tempo": 0
            },
            {
                "pitch": 52,
                "velocity": 8,
                "duration": 0.0659,
                "tempo": 120.0
            },
            {
                "pitch": 0,
                "velocity": 0,
                "duration": 0.0864,
                "tempo": 0
            },
            {
                "pitch": 52,
                "velocity": 8,
                "duration": 0.0659,
                "tempo": 120.0
            },
            {
                "pitch": 0,
                "velocity": 0,
                "duration": 0.3886,
                "tempo": 0
            },
            {
                "pitch": 57,
                "velocity": 8,
                "duration": 0.1,
                "tempo": 120.0
            },
            {
                "pitch": 0,
                "velocity": 0,
                "duration": 0.3523,
                "tempo": 0
            },
            {
                "pitch": 57,
                "velocity": 8,
                "duration": 0.4,
                "tempo": 120.0
            },
            {
                "pitch": 0,
                "velocity": 0,
                "duration": 0.3545,
                "tempo": 0
            },
            {
                "pitch": 57,
                "velocity": 8,
                "duration": 0.1023,
                "tempo": 120.0
            },
            {
                "pitch": 0,
                "velocity": 0,
                "duration": 0.3545,
                "tempo": 0
            },
            {
                "pitch": 57,
                "velocity": 8,
                "duration": 0.0659,
                "tempo": 120.0
            },
            {
                "pitch": 0,
                "velocity": 0,
                "duration": 0.0841,
                "tempo": 0
            },
            {
                "pitch": 57,
                "velocity": 8,
                "duration": 0.0682,
                "tempo": 120.0
            },
            {
                "pitch": 0,
                "velocity": 0,
                "duration": 0.0841,
                "tempo": 0
            },
            {
                "pitch": 57,
                "velocity": 8,
                "duration": 0.0659,
                "tempo": 120.0
            },
            {
                "pitch": 0,
                "velocity": 0,
                "duration": 0.3841,
                "tempo": 0
            },
            {
                "pitch": 55,
                "velocity": 8,
                "duration": 0.1,
                "tempo": 120.0
            },
            {
                "pitch": 0,
                "velocity": 0,
                "duration": 0.3545,
                "tempo": 0
            },
            {
                "pitch": 55,
                "velocity": 8,
                "duration": 0.4023,
                "tempo": 120.0
            },
            {
                "pitch": 0,
                "velocity": 0,
                "duration": 0.35,
                "tempo": 0
            },
            {
                "pitch": 55,
                "velocity": 8,
                "duration": 0.1,
                "tempo": 120.0
            },
            {
                "pitch": 0,
                "velocity": 0,
                "duration": 0.3568,
                "tempo": 0
            },
            {
                "pitch": 55,
                "velocity": 8,
                "duration": 0.0659,
                "tempo": 120.0
            },
            {
                "pitch": 0,
                "velocity": 0,
                "duration": 0.0841,
                "tempo": 0
            },
            {
                "pitch": 55,
                "velocity": 8,
                "duration": 0.0682,
                "tempo": 120.0
            },
            {
                "pitch": 0,
                "velocity": 0,
                "duration": 0.0864,
                "tempo": 0
            },
            {
                "pitch": 55,
                "velocity": 8,
                "duration": 0.0659,
                "tempo": 120.0
            },
            {
                "pitch": 0,
                "velocity": 0,
                "duration": 0.3932,
                "tempo": 0
            },
            {
                "pitch": 53,
                "velocity": 8,
                "duration": 0.0977,
                "tempo": 120.0
            },
            {
                "pitch": 0,
                "velocity": 0,
                "duration": 0.3477,
                "tempo": 0
            },
            {
                "pitch": 53,
                "velocity": 8,
                "duration": 0.4023,
                "tempo": 120.0
            },
            {
                "pitch": 0,
                "velocity": 0,
                "duration": 0.3545,
                "tempo": 0
            },
            {
                "pitch": 53,
                "velocity": 8,
                "duration": 0.0977,
                "tempo": 120.0
            },
            {
                "pitch": 0,
                "velocity": 0,
                "duration": 0.3523,
                "tempo": 0
            },
            {
                "pitch": 53,
                "velocity": 8,
                "duration": 0.0659,
                "tempo": 120.0
            },
            {
                "pitch": 0,
                "velocity": 0,
                "duration": 0.0841,
                "tempo": 0
            },
            {
                "pitch": 53,
                "velocity": 8,
                "duration": 0.0682,
                "tempo": 120.0
            },
            {
                "pitch": 0,
                "velocity": 0,
                "duration": 0.0841,
                "tempo": 0
            },
            {
                "pitch": 53,
                "velocity": 8,
                "duration": 0.0682,
                "tempo": 120.0
            },
            {
                "pitch": 0,
                "velocity": 0,
                "duration": 0.3932,
                "tempo": 0
            },
            {
                "pitch": 52,
                "velocity": 8,
                "duration": 0.0977,
                "tempo": 120.0
            },
            {
                "pitch": 0,
                "velocity": 0,
                "duration": 0.3523,
                "tempo": 0
            },
            {
                "pitch": 52,
                "velocity": 8,
                "duration": 0.4023,
                "tempo": 120.0
            },
            {
                "pitch": 0,
                "velocity": 0,
                "duration": 0.3545,
                "tempo": 0
            },
            {
                "pitch": 52,
                "velocity": 8,
                "duration": 0.1,
                "tempo": 120.0
            },
            {
                "pitch": 0,
                "velocity": 0,
                "duration": 0.3545,
                "tempo": 0
            },
            {
                "pitch": 52,
                "velocity": 8,
                "duration": 0.0682,
                "tempo": 120.0
            },
            {
                "pitch": 0,
                "velocity": 0,
                "duration": 0.0841,
                "tempo": 0
            },
            {
                "pitch": 52,
                "velocity": 8,
                "duration": 0.0659,
                "tempo": 120.0
            },
            {
                "pitch": 0,
                "velocity": 0,
                "duration": 0.0864,
                "tempo": 0
            },
            {
                "pitch": 52,
                "velocity": 8,
                "duration": 0.0659,
                "tempo": 120.0
            },
            {
                "pitch": 0,
                "velocity": 0,
                "duration": 29.4636,
                "tempo": 0
            },
            {
                "pitch": 57,
                "velocity": 12,
                "duration": 0.1,
                "tempo": 120.0
            },
            {
                "pitch": 0,
                "velocity": 0,
                "duration": 0.3545,
                "tempo": 0
            },
            {
                "pitch": 57,
                "velocity": 12,
                "duration": 0.1,
                "tempo": 120.0
            },
            {
                "pitch": 0,
                "velocity": 0,
                "duration": 0.3545,
                "tempo": 0
            },
            {
                "pitch": 55,
                "velocity": 12,
                "duration": 0.4023,
                "tempo": 120.0
            },
            {
                "pitch": 0,
                "velocity": 0,
                "duration": 0.0523,
                "tempo": 0
            },
            {
                "pitch": 53,
                "velocity": 12,
                "duration": 0.4,
                "tempo": 120.0
            },
            {
                "pitch": 0,
                "velocity": 0,
                "duration": 0.05,
                "tempo": 0
            },
            {
                "pitch": 52,
                "velocity": 12,
                "duration": 0.2523,
                "tempo": 120.0
            },
            {
                "pitch": 0,
                "velocity": 0,
                "duration": 0.3545,
                "tempo": 0
            },
            {
                "pitch": 57,
                "velocity": 12,
                "duration": 0.1,
                "tempo": 120.0
            },
            {
                "pitch": 0,
                "velocity": 0,
                "duration": 0.3545,
                "tempo": 0
            },
            {
                "pitch": 57,
                "velocity": 12,
                "duration": 0.1023,
                "tempo": 120.0
            },
            {
                "pitch": 0,
                "velocity": 0,
                "duration": 0.35,
                "tempo": 0
            },
            {
                "pitch": 55,
                "velocity": 12,
                "duration": 0.4,
                "tempo": 120.0
            },
            {
                "pitch": 0,
                "velocity": 0,
                "duration": 0.0523,
                "tempo": 0
            },
            {
                "pitch": 53,
                "velocity": 12,
                "duration": 0.3977,
                "tempo": 120.0
            },
            {
                "pitch": 0,
                "velocity": 0,
                "duration": 0.0523,
                "tempo": 0
            },
            {
                "pitch": 52,
                "velocity": 12,
                "duration": 0.2523,
                "tempo": 120.0
            },
            {
                "pitch": 0,
                "velocity": 0,
                "duration": 0.3545,
                "tempo": 0
            },
            {
                "pitch": 53,
                "velocity": 12,
                "duration": 0.0977,
                "tempo": 120.0
            },
            {
                "pitch": 0,
                "velocity": 0,
                "duration": 0.3523,
                "tempo": 0
            },
            {
                "pitch": 53,
                "velocity": 12,
                "duration": 0.1,
                "tempo": 120.0
            },
            {
                "pitch": 0,
                "velocity": 0,
                "duration": 0.3545,
                "tempo": 0
            },
            {
                "pitch": 55,
                "velocity": 12,
                "duration": 0.4023,
                "tempo": 120.0
            },
            {
                "pitch": 0,
                "velocity": 0,
                "duration": 0.05,
                "tempo": 0
            },
            {
                "pitch": 53,
                "velocity": 12,
                "duration": 0.4,
                "tempo": 120.0
            },
            {
                "pitch": 0,
                "velocity": 0,
                "duration": 0.05,
                "tempo": 0
            },
            {
                "pitch": 55,
                "velocity": 12,
                "duration": 0.2568,
                "tempo": 120.0
            }
        ],
        "Synth Bass 1": [
            {
                "pitch": 0,
                "velocity": 0,
                "duration": 0.1841,
                "tempo": 0
            },
            {
                "pitch": 52,
                "velocity": 1,
                "duration": 0.1,
                "tempo": 120.0
            },
            {
                "pitch": 0,
                "velocity": 0,
                "duration": 0.35,
                "tempo": 0
            },
            {
                "pitch": 52,
                "velocity": 1,
                "duration": 0.1,
                "tempo": 120.0
            },
            {
                "pitch": 0,
                "velocity": 0,
                "duration": 0.3591,
                "tempo": 0
            },
            {
                "pitch": 50,
                "velocity": 1,
                "duration": 0.4023,
                "tempo": 120.0
            },
            {
                "pitch": 0,
                "velocity": 0,
                "duration": 0.0523,
                "tempo": 0
            },
            {
                "pitch": 48,
                "velocity": 1,
                "duration": 0.3932,
                "tempo": 120.0
            },
            {
                "pitch": 0,
                "velocity": 0,
                "duration": 0.0523,
                "tempo": 0
            },
            {
                "pitch": 47,
                "velocity": 1,
                "duration": 0.2545,
                "tempo": 120.0
            },
            {
                "pitch": 0,
                "velocity": 0,
                "duration": 0.3568,
                "tempo": 0
            },
            {
                "pitch": 52,
                "velocity": 1,
                "duration": 0.1,
                "tempo": 120.0
            },
            {
                "pitch": 0,
                "velocity": 0,
                "duration": 0.3568,
                "tempo": 0
            },
            {
                "pitch": 52,
                "velocity": 1,
                "duration": 0.1,
                "tempo": 120.0
            },
            {
                "pitch": 0,
                "velocity": 0,
                "duration": 0.3523,
                "tempo": 0
            },
            {
                "pitch": 50,
                "velocity": 1,
                "duration": 0.4,
                "tempo": 120.0
            },
            {
                "pitch": 0,
                "velocity": 0,
                "duration": 0.0523,
                "tempo": 0
            },
            {
                "pitch": 48,
                "velocity": 1,
                "duration": 0.4023,
                "tempo": 120.0
            },
            {
                "pitch": 0,
                "velocity": 0,
                "duration": 0.0523,
                "tempo": 0
            },
            {
                "pitch": 47,
                "velocity": 1,
                "duration": 0.2523,
                "tempo": 120.0
            },
            {
                "pitch": 0,
                "velocity": 0,
                "duration": 0.3545,
                "tempo": 0
            },
            {
                "pitch": 48,
                "velocity": 1,
                "duration": 0.0977,
                "tempo": 120.0
            },
            {
                "pitch": 0,
                "velocity": 0,
                "duration": 0.3523,
                "tempo": 0
            },
            {
                "pitch": 48,
                "velocity": 1,
                "duration": 0.1,
                "tempo": 120.0
            },
            {
                "pitch": 0,
                "velocity": 0,
                "duration": 0.3545,
                "tempo": 0
            },
            {
                "pitch": 50,
                "velocity": 1,
                "duration": 0.4023,
                "tempo": 120.0
            },
            {
                "pitch": 0,
                "velocity": 0,
                "duration": 0.0523,
                "tempo": 0
            },
            {
                "pitch": 48,
                "velocity": 1,
                "duration": 0.3977,
                "tempo": 120.0
            },
            {
                "pitch": 0,
                "velocity": 0,
                "duration": 0.0523,
                "tempo": 0
            },
            {
                "pitch": 50,
                "velocity": 1,
                "duration": 0.25,
                "tempo": 120.0
            },
            {
                "pitch": 0,
                "velocity": 0,
                "duration": 0.2045,
                "tempo": 0
            },
            {
                "pitch": 52,
                "velocity": 1,
                "duration": 0.1,
                "tempo": 120.0
            },
            {
                "pitch": 0,
                "velocity": 0,
                "duration": 0.3523,
                "tempo": 0
            },
            {
                "pitch": 52,
                "velocity": 1,
                "duration": 0.0977,
                "tempo": 120.0
            },
            {
                "pitch": 0,
                "velocity": 0,
                "duration": 0.5023,
                "tempo": 0
            },
            {
                "pitch": 52,
                "velocity": 1,
                "duration": 0.1,
                "tempo": 120.0
            },
            {
                "pitch": 0,
                "velocity": 0,
                "duration": 0.3545,
                "tempo": 0
            },
            {
                "pitch": 48,
                "velocity": 1,
                "duration": 0.4068,
                "tempo": 120.0
            },
            {
                "pitch": 0,
                "velocity": 0,
                "duration": 0.0523,
                "tempo": 0
            },
            {
                "pitch": 50,
                "velocity": 1,
                "duration": 0.25,
                "tempo": 120.0
            },
            {
                "pitch": 0,
                "velocity": 0,
                "duration": 0.2,
                "tempo": 0
            },
            {
                "pitch": 52,
                "velocity": 1,
                "duration": 0.1,
                "tempo": 120.0
            },
            {
                "pitch": 0,
                "velocity": 0,
                "duration": 0.3523,
                "tempo": 0
            },
            {
                "pitch": 52,
                "velocity": 1,
                "duration": 0.0977,
                "tempo": 120.0
            },
            {
                "pitch": 0,
                "velocity": 0,
                "duration": 0.5023,
                "tempo": 0
            },
            {
                "pitch": 52,
                "velocity": 1,
                "duration": 0.0977,
                "tempo": 120.0
            },
            {
                "pitch": 0,
                "velocity": 0,
                "duration": 0.3523,
                "tempo": 0
            },
            {
                "pitch": 48,
                "velocity": 1,
                "duration": 0.4,
                "tempo": 120.0
            },
            {
                "pitch": 0,
                "velocity": 0,
                "duration": 0.0523,
                "tempo": 0
            },
            {
                "pitch": 50,
                "velocity": 1,
                "duration": 0.25,
                "tempo": 120.0
            },
            {
                "pitch": 0,
                "velocity": 0,
                "duration": 0.2045,
                "tempo": 0
            },
            {
                "pitch": 47,
                "velocity": 1,
                "duration": 0.1,
                "tempo": 120.0
            },
            {
                "pitch": 0,
                "velocity": 0,
                "duration": 0.3523,
                "tempo": 0
            },
            {
                "pitch": 47,
                "velocity": 1,
                "duration": 0.0977,
                "tempo": 120.0
            },
            {
                "pitch": 0,
                "velocity": 0,
                "duration": 0.5023,
                "tempo": 0
            },
            {
                "pitch": 48,
                "velocity": 1,
                "duration": 0.0977,
                "tempo": 120.0
            },
            {
                "pitch": 0,
                "velocity": 0,
                "duration": 0.5091,
                "tempo": 0
            },
            {
                "pitch": 48,
                "velocity": 1,
                "duration": 0.2545,
                "tempo": 120.0
            },
            {
                "pitch": 0,
                "velocity": 0,
                "duration": 0.0523,
                "tempo": 0
            },
            {
                "pitch": 50,
                "velocity": 1,
                "duration": 0.2455,
                "tempo": 120.0
            },
            {
                "pitch": 0,
                "velocity": 0,
                "duration": 0.35,
                "tempo": 0
            },
            {
                "pitch": 52,
                "velocity": 1,
                "duration": 0.1,
                "tempo": 120.0
            },
            {
                "pitch": 0,
                "velocity": 0,
                "duration": 0.3591,
                "tempo": 0
            },
            {
                "pitch": 52,
                "velocity": 1,
                "duration": 0.4,
                "tempo": 120.0
            },
            {
                "pitch": 0,
                "velocity": 0,
                "duration": 0.3477,
                "tempo": 0
            },
            {
                "pitch": 52,
                "velocity": 1,
                "duration": 0.1,
                "tempo": 120.0
            },
            {
                "pitch": 0,
                "velocity": 0,
                "duration": 0.3591,
                "tempo": 0
            },
            {
                "pitch": 52,
                "velocity": 1,
                "duration": 0.0659,
                "tempo": 120.0
            },
            {
                "pitch": 0,
                "velocity": 0,
                "duration": 0.0886,
                "tempo": 0
            },
            {
                "pitch": 52,
                "velocity": 1,
                "duration": 0.0636,
                "tempo": 120.0
            },
            {
                "pitch": 0,
                "velocity": 0,
                "duration": 0.0864,
                "tempo": 0
            },
            {
                "pitch": 52,
                "velocity": 1,
                "duration": 0.0636,
                "tempo": 120.0
            },
            {
                "pitch": 0,
                "velocity": 0,
                "duration": 0.3864,
                "tempo": 0
            },
            {
                "pitch": 50,
                "velocity": 1,
                "duration": 0.1,
                "tempo": 120.0
            },
            {
                "pitch": 0,
                "velocity": 0,
                "duration": 0.3545,
                "tempo": 0
            },
            {
                "pitch": 50,
                "velocity": 1,
                "duration": 0.4,
                "tempo": 120.0
            },
            {
                "pitch": 0,
                "velocity": 0,
                "duration": 0.3545,
                "tempo": 0
            },
            {
                "pitch": 50,
                "velocity": 1,
                "duration": 0.0977,
                "tempo": 120.0
            },
            {
                "pitch": 0,
                "velocity": 0,
                "duration": 0.3568,
                "tempo": 0
            },
            {
                "pitch": 50,
                "velocity": 1,
                "duration": 0.0636,
                "tempo": 120.0
            },
            {
                "pitch": 0,
                "velocity": 0,
                "duration": 0.0886,
                "tempo": 0
            },
            {
                "pitch": 50,
                "velocity": 1,
                "duration": 0.0636,
                "tempo": 120.0
            },
            {
                "pitch": 0,
                "velocity": 0,
                "duration": 0.0864,
                "tempo": 0
            },
            {
                "pitch": 50,
                "velocity": 1,
                "duration": 0.0659,
                "tempo": 120.0
            },
            {
                "pitch": 0,
                "velocity": 0,
                "duration": 0.3886,
                "tempo": 0
            },
            {
                "pitch": 48,
                "velocity": 1,
                "duration": 0.1,
                "tempo": 120.0
            },
            {
                "pitch": 0,
                "velocity": 0,
                "duration": 0.3523,
                "tempo": 0
            },
            {
                "pitch": 48,
                "velocity": 1,
                "duration": 0.4,
                "tempo": 120.0
            },
            {
                "pitch": 0,
                "velocity": 0,
                "duration": 0.3568,
                "tempo": 0
            },
            {
                "pitch": 48,
                "velocity": 1,
                "duration": 0.0977,
                "tempo": 120.0
            },
            {
                "pitch": 0,
                "velocity": 0,
                "duration": 0.3523,
                "tempo": 0
            },
            {
                "pitch": 48,
                "velocity": 1,
                "duration": 0.0659,
                "tempo": 120.0
            },
            {
                "pitch": 0,
                "velocity": 0,
                "duration": 0.0841,
                "tempo": 0
            },
            {
                "pitch": 48,
                "velocity": 1,
                "duration": 0.0659,
                "tempo": 120.0
            },
            {
                "pitch": 0,
                "velocity": 0,
                "duration": 0.0864,
                "tempo": 0
            },
            {
                "pitch": 48,
                "velocity": 1,
                "duration": 0.0659,
                "tempo": 120.0
            },
            {
                "pitch": 0,
                "velocity": 0,
                "duration": 0.3886,
                "tempo": 0
            },
            {
                "pitch": 47,
                "velocity": 1,
                "duration": 0.1,
                "tempo": 120.0
            },
            {
                "pitch": 0,
                "velocity": 0,
                "duration": 0.3614,
                "tempo": 0
            },
            {
                "pitch": 47,
                "velocity": 1,
                "duration": 0.3977,
                "tempo": 120.0
            },
            {
                "pitch": 0,
                "velocity": 0,
                "duration": 0.3477,
                "tempo": 0
            },
            {
                "pitch": 47,
                "velocity": 1,
                "duration": 0.1023,
                "tempo": 120.0
            },
            {
                "pitch": 0,
                "velocity": 0,
                "duration": 0.3591,
                "tempo": 0
            },
            {
                "pitch": 47,
                "velocity": 1,
                "duration": 0.0659,
                "tempo": 120.0
            },
            {
                "pitch": 0,
                "velocity": 0,
                "duration": 0.0864,
                "tempo": 0
            },
            {
                "pitch": 47,
                "velocity": 1,
                "duration": 0.0659,
                "tempo": 120.0
            },
            {
                "pitch": 0,
                "velocity": 0,
                "duration": 0.0864,
                "tempo": 0
            },
            {
                "pitch": 47,
                "velocity": 1,
                "duration": 0.0659,
                "tempo": 120.0
            },
            {
                "pitch": 0,
                "velocity": 0,
                "duration": 0.3886,
                "tempo": 0
            },
            {
                "pitch": 52,
                "velocity": 1,
                "duration": 0.0977,
                "tempo": 120.0
            },
            {
                "pitch": 0,
                "velocity": 0,
                "duration": 0.3545,
                "tempo": 0
            },
            {
                "pitch": 52,
                "velocity": 1,
                "duration": 0.4,
                "tempo": 120.0
            },
            {
                "pitch": 0,
                "velocity": 0,
                "duration": 0.3568,
                "tempo": 0
            },
            {
                "pitch": 52,
                "velocity": 1,
                "duration": 0.0977,
                "tempo": 120.0
            },
            {
                "pitch": 0,
                "velocity": 0,
                "duration": 0.3568,
                "tempo": 0
            },
            {
                "pitch": 52,
                "velocity": 1,
                "duration": 0.0659,
                "tempo": 120.0
            },
            {
                "pitch": 0,
                "velocity": 0,
                "duration": 0.0864,
                "tempo": 0
            },
            {
                "pitch": 52,
                "velocity": 1,
                "duration": 0.0636,
                "tempo": 120.0
            },
            {
                "pitch": 0,
                "velocity": 0,
                "duration": 0.0864,
                "tempo": 0
            },
            {
                "pitch": 52,
                "velocity": 1,
                "duration": 0.0636,
                "tempo": 120.0
            },
            {
                "pitch": 0,
                "velocity": 0,
                "duration": 0.3864,
                "tempo": 0
            },
            {
                "pitch": 50,
                "velocity": 1,
                "duration": 0.1,
                "tempo": 120.0
            },
            {
                "pitch": 0,
                "velocity": 0,
                "duration": 0.3545,
                "tempo": 0
            },
            {
                "pitch": 50,
                "velocity": 1,
                "duration": 0.4,
                "tempo": 120.0
            },
            {
                "pitch": 0,
                "velocity": 0,
                "duration": 0.3545,
                "tempo": 0
            },
            {
                "pitch": 50,
                "velocity": 1,
                "duration": 0.0977,
                "tempo": 120.0
            },
            {
                "pitch": 0,
                "velocity": 0,
                "duration": 0.3568,
                "tempo": 0
            },
            {
                "pitch": 50,
                "velocity": 1,
                "duration": 0.0636,
                "tempo": 120.0
            },
            {
                "pitch": 0,
                "velocity": 0,
                "duration": 0.0886,
                "tempo": 0
            },
            {
                "pitch": 50,
                "velocity": 1,
                "duration": 0.0636,
                "tempo": 120.0
            },
            {
                "pitch": 0,
                "velocity": 0,
                "duration": 0.0886,
                "tempo": 0
            },
            {
                "pitch": 50,
                "velocity": 1,
                "duration": 0.0659,
                "tempo": 120.0
            },
            {
                "pitch": 0,
                "velocity": 0,
                "duration": 0.3932,
                "tempo": 0
            },
            {
                "pitch": 48,
                "velocity": 1,
                "duration": 0.0977,
                "tempo": 120.0
            },
            {
                "pitch": 0,
                "velocity": 0,
                "duration": 0.3477,
                "tempo": 0
            },
            {
                "pitch": 48,
                "velocity": 1,
                "duration": 0.4,
                "tempo": 120.0
            },
            {
                "pitch": 0,
                "velocity": 0,
                "duration": 0.3568,
                "tempo": 0
            },
            {
                "pitch": 48,
                "velocity": 1,
                "duration": 0.0977,
                "tempo": 120.0
            },
            {
                "pitch": 0,
                "velocity": 0,
                "duration": 0.3523,
                "tempo": 0
            },
            {
                "pitch": 48,
                "velocity": 1,
                "duration": 0.0636,
                "tempo": 120.0
            },
            {
                "pitch": 0,
                "velocity": 0,
                "duration": 0.0864,
                "tempo": 0
            },
            {
                "pitch": 48,
                "velocity": 1,
                "duration": 0.0659,
                "tempo": 120.0
            },
            {
                "pitch": 0,
                "velocity": 0,
                "duration": 0.0864,
                "tempo": 0
            },
            {
                "pitch": 48,
                "velocity": 1,
                "duration": 0.0659,
                "tempo": 120.0
            },
            {
                "pitch": 0,
                "velocity": 0,
                "duration": 0.3955,
                "tempo": 0
            },
            {
                "pitch": 47,
                "velocity": 1,
                "duration": 0.0977,
                "tempo": 120.0
            },
            {
                "pitch": 0,
                "velocity": 0,
                "duration": 0.3523,
                "tempo": 0
            },
            {
                "pitch": 47,
                "velocity": 1,
                "duration": 0.4,
                "tempo": 120.0
            },
            {
                "pitch": 0,
                "velocity": 0,
                "duration": 0.3568,
                "tempo": 0
            },
            {
                "pitch": 47,
                "velocity": 1,
                "duration": 0.1,
                "tempo": 120.0
            },
            {
                "pitch": 0,
                "velocity": 0,
                "duration": 0.3545,
                "tempo": 0
            },
            {
                "pitch": 47,
                "velocity": 1,
                "duration": 0.0659,
                "tempo": 120.0
            },
            {
                "pitch": 0,
                "velocity": 0,
                "duration": 0.0864,
                "tempo": 0
            },
            {
                "pitch": 47,
                "velocity": 1,
                "duration": 0.0659,
                "tempo": 120.0
            },
            {
                "pitch": 0,
                "velocity": 0,
                "duration": 0.0864,
                "tempo": 0
            },
            {
                "pitch": 47,
                "velocity": 1,
                "duration": 0.0659,
                "tempo": 120.0
            },
            {
                "pitch": 0,
                "velocity": 0,
                "duration": 0.0886,
                "tempo": 0
            },
            {
                "pitch": 33,
                "velocity": 1,
                "duration": 0.0955,
                "tempo": 120.0
            },
            {
                "pitch": 0,
                "velocity": 0,
                "duration": 0.0523,
                "tempo": 0
            },
            {
                "pitch": 33,
                "velocity": 1,
                "duration": 0.1,
                "tempo": 120.0
            },
            {
                "pitch": 0,
                "velocity": 0,
                "duration": 0.0523,
                "tempo": 0
            },
            {
                "pitch": 45,
                "velocity": 1,
                "duration": 0.0977,
                "tempo": 120.0
            },
            {
                "pitch": 0,
                "velocity": 0,
                "duration": 0.0523,
                "tempo": 0
            },
            {
                "pitch": 33,
                "velocity": 1,
                "duration": 0.0977,
                "tempo": 120.0
            },
            {
                "pitch": 0,
                "velocity": 0,
                "duration": 0.0523,
                "tempo": 0
            },
            {
                "pitch": 33,
                "velocity": 1,
                "duration": 0.1,
                "tempo": 120.0
            },
            {
                "pitch": 0,
                "velocity": 0,
                "duration": 0.0523,
                "tempo": 0
            },
            {
                "pitch": 45,
                "velocity": 1,
                "duration": 0.0977,
                "tempo": 120.0
            },
            {
                "pitch": 0,
                "velocity": 0,
                "duration": 0.05,
                "tempo": 0
            },
            {
                "pitch": 33,
                "velocity": 1,
                "duration": 0.1,
                "tempo": 120.0
            },
            {
                "pitch": 0,
                "velocity": 0,
                "duration": 0.0523,
                "tempo": 0
            },
            {
                "pitch": 33,
                "velocity": 1,
                "duration": 0.1,
                "tempo": 120.0
            },
            {
                "pitch": 0,
                "velocity": 0,
                "duration": 0.0523,
                "tempo": 0
            },
            {
                "pitch": 31,
                "velocity": 1,
                "duration": 0.2523,
                "tempo": 120.0
            },
            {
                "pitch": 0,
                "velocity": 0,
                "duration": 0.0523,
                "tempo": 0
            },
            {
                "pitch": 43,
                "velocity": 1,
                "duration": 0.0977,
                "tempo": 120.0
            },
            {
                "pitch": 0,
                "velocity": 0,
                "duration": 0.0523,
                "tempo": 0
            },
            {
                "pitch": 29,
                "velocity": 1,
                "duration": 0.2523,
                "tempo": 120.0
            },
            {
                "pitch": 0,
                "velocity": 0,
                "duration": 0.0523,
                "tempo": 0
            },
            {
                "pitch": 41,
                "velocity": 1,
                "duration": 0.0977,
                "tempo": 120.0
            },
            {
                "pitch": 0,
                "velocity": 0,
                "duration": 0.0523,
                "tempo": 0
            },
            {
                "pitch": 28,
                "velocity": 1,
                "duration": 0.2545,
                "tempo": 120.0
            },
            {
                "pitch": 0,
                "velocity": 0,
                "duration": 0.0545,
                "tempo": 0
            },
            {
                "pitch": 33,
                "velocity": 1,
                "duration": 0.0977,
                "tempo": 120.0
            },
            {
                "pitch": 0,
                "velocity": 0,
                "duration": 0.0545,
                "tempo": 0
            },
            {
                "pitch": 33,
                "velocity": 1,
                "duration": 0.1,
                "tempo": 120.0
            },
            {
                "pitch": 0,
                "velocity": 0,
                "duration": 0.0523,
                "tempo": 0
            },
            {
                "pitch": 45,
                "velocity": 1,
                "duration": 0.0977,
                "tempo": 120.0
            },
            {
                "pitch": 0,
                "velocity": 0,
                "duration": 0.0523,
                "tempo": 0
            },
            {
                "pitch": 33,
                "velocity": 1,
                "duration": 0.0955,
                "tempo": 120.0
            },
            {
                "pitch": 0,
                "velocity": 0,
                "duration": 0.0523,
                "tempo": 0
            },
            {
                "pitch": 33,
                "velocity": 1,
                "duration": 0.0977,
                "tempo": 120.0
            },
            {
                "pitch": 0,
                "velocity": 0,
                "duration": 0.0523,
                "tempo": 0
            },
            {
                "pitch": 45,
                "velocity": 1,
                "duration": 0.0955,
                "tempo": 120.0
            },
            {
                "pitch": 0,
                "velocity": 0,
                "duration": 0.0523,
                "tempo": 0
            },
            {
                "pitch": 33,
                "velocity": 1,
                "duration": 0.0977,
                "tempo": 120.0
            },
            {
                "pitch": 0,
                "velocity": 0,
                "duration": 0.0523,
                "tempo": 0
            },
            {
                "pitch": 33,
                "velocity": 1,
                "duration": 0.0977,
                "tempo": 120.0
            },
            {
                "pitch": 0,
                "velocity": 0,
                "duration": 0.0523,
                "tempo": 0
            },
            {
                "pitch": 31,
                "velocity": 1,
                "duration": 0.25,
                "tempo": 120.0
            },
            {
                "pitch": 0,
                "velocity": 0,
                "duration": 0.05,
                "tempo": 0
            },
            {
                "pitch": 43,
                "velocity": 1,
                "duration": 0.1,
                "tempo": 120.0
            },
            {
                "pitch": 0,
                "velocity": 0,
                "duration": 0.0545,
                "tempo": 0
            },
            {
                "pitch": 29,
                "velocity": 1,
                "duration": 0.2523,
                "tempo": 120.0
            },
            {
                "pitch": 0,
                "velocity": 0,
                "duration": 0.0545,
                "tempo": 0
            },
            {
                "pitch": 41,
                "velocity": 1,
                "duration": 0.1,
                "tempo": 120.0
            },
            {
                "pitch": 0,
                "velocity": 0,
                "duration": 0.0523,
                "tempo": 0
            },
            {
                "pitch": 28,
                "velocity": 1,
                "duration": 0.25,
                "tempo": 120.0
            },
            {
                "pitch": 0,
                "velocity": 0,
                "duration": 0.0545,
                "tempo": 0
            },
            {
                "pitch": 29,
                "velocity": 1,
                "duration": 0.0977,
                "tempo": 120.0
            },
            {
                "pitch": 0,
                "velocity": 0,
                "duration": 0.0523,
                "tempo": 0
            },
            {
                "pitch": 29,
                "velocity": 1,
                "duration": 0.1,
                "tempo": 120.0
            },
            {
                "pitch": 0,
                "velocity": 0,
                "duration": 0.0523,
                "tempo": 0
            },
            {
                "pitch": 41,
                "velocity": 1,
                "duration": 0.0977,
                "tempo": 120.0
            },
            {
                "pitch": 0,
                "velocity": 0,
                "duration": 0.0523,
                "tempo": 0
            },
            {
                "pitch": 29,
                "velocity": 1,
                "duration": 0.0955,
                "tempo": 120.0
            },
            {
                "pitch": 0,
                "velocity": 0,
                "duration": 0.05,
                "tempo": 0
            },
            {
                "pitch": 29,
                "velocity": 1,
                "duration": 0.1,
                "tempo": 120.0
            },
            {
                "pitch": 0,
                "velocity": 0,
                "duration": 0.05,
                "tempo": 0
            },
            {
                "pitch": 41,
                "velocity": 1,
                "duration": 0.0977,
                "tempo": 120.0
            },
            {
                "pitch": 0,
                "velocity": 0,
                "duration": 0.0523,
                "tempo": 0
            },
            {
                "pitch": 29,
                "velocity": 1,
                "duration": 0.1,
                "tempo": 120.0
            },
            {
                "pitch": 0,
                "velocity": 0,
                "duration": 0.0523,
                "tempo": 0
            },
            {
                "pitch": 29,
                "velocity": 1,
                "duration": 0.1,
                "tempo": 120.0
            },
            {
                "pitch": 0,
                "velocity": 0,
                "duration": 0.0545,
                "tempo": 0
            },
            {
                "pitch": 31,
                "velocity": 1,
                "duration": 0.2523,
                "tempo": 120.0
            },
            {
                "pitch": 0,
                "velocity": 0,
                "duration": 0.0523,
                "tempo": 0
            },
            {
                "pitch": 43,
                "velocity": 1,
                "duration": 0.1,
                "tempo": 120.0
            },
            {
                "pitch": 0,
                "velocity": 0,
                "duration": 0.0545,
                "tempo": 0
            },
            {
                "pitch": 29,
                "velocity": 1,
                "duration": 0.2477,
                "tempo": 120.0
            },
            {
                "pitch": 0,
                "velocity": 0,
                "duration": 0.0523,
                "tempo": 0
            },
            {
                "pitch": 41,
                "velocity": 1,
                "duration": 0.1,
                "tempo": 120.0
            },
            {
                "pitch": 0,
                "velocity": 0,
                "duration": 22.4682,
                "tempo": 0
            },
            {
                "pitch": 52,
                "velocity": 1,
                "duration": 0.1,
                "tempo": 120.0
            },
            {
                "pitch": 0,
                "velocity": 0,
                "duration": 0.3568,
                "tempo": 0
            },
            {
                "pitch": 52,
                "velocity": 1,
                "duration": 0.1,
                "tempo": 120.0
            },
            {
                "pitch": 0,
                "velocity": 0,
                "duration": 0.3545,
                "tempo": 0
            },
            {
                "pitch": 50,
                "velocity": 1,
                "duration": 0.4023,
                "tempo": 120.0
            },
            {
                "pitch": 0,
                "velocity": 0,
                "duration": 0.0523,
                "tempo": 0
            },
            {
                "pitch": 48,
                "velocity": 1,
                "duration": 0.3977,
                "tempo": 120.0
            },
            {
                "pitch": 0,
                "velocity": 0,
                "duration": 0.0523,
                "tempo": 0
            },
            {
                "pitch": 47,
                "velocity": 1,
                "duration": 0.2523,
                "tempo": 120.0
            },
            {
                "pitch": 0,
                "velocity": 0,
                "duration": 0.3545,
                "tempo": 0
            },
            {
                "pitch": 52,
                "velocity": 1,
                "duration": 0.1,
                "tempo": 120.0
            },
            {
                "pitch": 0,
                "velocity": 0,
                "duration": 0.3545,
                "tempo": 0
            },
            {
                "pitch": 52,
                "velocity": 1,
                "duration": 0.1,
                "tempo": 120.0
            },
            {
                "pitch": 0,
                "velocity": 0,
                "duration": 0.3523,
                "tempo": 0
            },
            {
                "pitch": 50,
                "velocity": 1,
                "duration": 0.4,
                "tempo": 120.0
            },
            {
                "pitch": 0,
                "velocity": 0,
                "duration": 0.0523,
                "tempo": 0
            },
            {
                "pitch": 48,
                "velocity": 1,
                "duration": 0.3977,
                "tempo": 120.0
            },
            {
                "pitch": 0,
                "velocity": 0,
                "duration": 0.0523,
                "tempo": 0
            },
            {
                "pitch": 47,
                "velocity": 1,
                "duration": 0.25,
                "tempo": 120.0
            },
            {
                "pitch": 0,
                "velocity": 0,
                "duration": 0.3568,
                "tempo": 0
            },
            {
                "pitch": 48,
                "velocity": 1,
                "duration": 0.0977,
                "tempo": 120.0
            },
            {
                "pitch": 0,
                "velocity": 0,
                "duration": 0.3523,
                "tempo": 0
            },
            {
                "pitch": 48,
                "velocity": 1,
                "duration": 0.0977,
                "tempo": 120.0
            },
            {
                "pitch": 0,
                "velocity": 0,
                "duration": 0.3568,
                "tempo": 0
            },
            {
                "pitch": 50,
                "velocity": 1,
                "duration": 0.4,
                "tempo": 120.0
            },
            {
                "pitch": 0,
                "velocity": 0,
                "duration": 0.0545,
                "tempo": 0
            },
            {
                "pitch": 48,
                "velocity": 1,
                "duration": 0.3977,
                "tempo": 120.0
            },
            {
                "pitch": 0,
                "velocity": 0,
                "duration": 0.05,
                "tempo": 0
            },
            {
                "pitch": 50,
                "velocity": 1,
                "duration": 0.2545,
                "tempo": 120.0
            }
        ],
        "Acoustic Grand Piano": [
            {
                "pitch": 0,
                "velocity": 0,
                "duration": 70.0932,
                "tempo": 0
            },
            {
                "pitch": 108,
                "velocity": 15,
                "duration": 0.1,
                "tempo": 120.0
            }
        ]
    }
}