{
    "track_id": "12 Boss 4_0",
    "mood": "angry",
    "instruments": {
        "Lead 1 (square)": [
            {
                "pitch": 0,
                "velocity": 0,
                "duration": 0.1705,
                "tempo": 0
            },
            {
                "pitch": 66,
                "velocity": 10,
                "duration": 0.0636,
                "tempo": 120.0
            },
            {
                "pitch": 0,
                "velocity": 0,
                "duration": 0.0341,
                "tempo": 0
            },
            {
                "pitch": 66,
                "velocity": 10,
                "duration": 0.0477,
                "tempo": 120.0
            },
            {
                "pitch": 0,
                "velocity": 0,
                "duration": 0.0318,
                "tempo": 0
            },
            {
                "pitch": 66,
                "velocity": 10,
                "duration": 0.3364,
                "tempo": 120.0
            },
            {
                "pitch": 0,
                "velocity": 0,
                "duration": 0.0159,
                "tempo": 0
            },
            {
                "pitch": 65,
                "velocity": 10,
                "duration": 0.0977,
                "tempo": 120.0
            },
            {
                "pitch": 0,
                "velocity": 0,
                "duration": 2.2273,
                "tempo": 0
            },
            {
                "pitch": 66,
                "velocity": 10,
                "duration": 0.0636,
                "tempo": 120.0
            },
            {
                "pitch": 0,
                "velocity": 0,
                "duration": 0.0182,
                "tempo": 0
            },
            {
                "pitch": 66,
                "velocity": 10,
                "duration": 0.0636,
                "tempo": 120.0
            },
            {
                "pitch": 0,
                "velocity": 0,
                "duration": 0.0341,
                "tempo": 0
            },
            {
                "pitch": 66,
                "velocity": 10,
                "duration": 0.3432,
                "tempo": 120.0
            },
            {
                "pitch": 0,
                "velocity": 0,
                "duration": 0.0159,
                "tempo": 0
            },
            {
                "pitch": 65,
                "velocity": 10,
                "duration": 0.1,
                "tempo": 120.0
            },
            {
                "pitch": 0,
                "velocity": 0,
                "duration": 2.2273,
                "tempo": 0
            },
            {
                "pitch": 67,
                "velocity": 10,
                "duration": 0.0659,
                "tempo": 120.0
            },
            {
                "pitch": 0,
                "velocity": 0,
                "duration": 0.0159,
                "tempo": 0
            },
            {
                "pitch": 67,
                "velocity": 10,
                "duration": 0.0636,
                "tempo": 120.0
            },
            {
                "pitch": 0,
                "velocity": 0,
                "duration": 0.0341,
                "tempo": 0
            },
            {
                "pitch": 67,
                "velocity": 10,
                "duration": 0.325,
                "tempo": 120.0
            },
            {
                "pitch": 0,
                "velocity": 0,
                "duration": 0.0364,
                "tempo": 0
            },
            {
                "pitch": 66,
                "velocity": 10,
                "duration": 0.1,
                "tempo": 120.0
            },
            {
                "pitch": 0,
                "velocity": 0,
                "duration": 2.2273,
                "tempo": 0
            },
            {
                "pitch": 67,
                "velocity": 10,
                "duration": 0.0477,
                "tempo": 120.0
            },
            {
                "pitch": 0,
                "velocity": 0,
                "duration": 0.0318,
                "tempo": 0
            },
            {
                "pitch": 67,
                "velocity": 10,
                "duration": 0.0659,
                "tempo": 120.0
            },
            {
                "pitch": 0,
                "velocity": 0,
                "duration": 0.0318,
                "tempo": 0
            },
            {
                "pitch": 67,
                "velocity": 10,
                "duration": 0.325,
                "tempo": 120.0
            },
            {
                "pitch": 0,
                "velocity": 0,
                "duration": 0.0364,
                "tempo": 0
            },
            {
                "pitch": 66,
                "velocity": 10,
                "duration": 0.0841,
                "tempo": 120.0
            },
            {
                "pitch": 0,
                "velocity": 0,
                "duration": 2.2409,
                "tempo": 0
            },
            {
                "pitch": 48,
                "velocity": 10,
                "duration": 0.15,
                "tempo": 120.0
            },
            {
                "pitch": 0,
                "velocity": 0,
                "duration": 0.0159,
                "tempo": 0
            },
            {
                "pitch": 53,
                "velocity": 10,
                "duration": 0.15,
                "tempo": 120.0
            },
            {
                "pitch": 0,
                "velocity": 0,
                "duration": 0.0341,
                "tempo": 0
            },
            {
                "pitch": 56,
                "velocity": 10,
                "duration": 0.1523,
                "tempo": 120.0
            },
            {
                "pitch": 0,
                "velocity": 0,
                "duration": 0.0318,
                "tempo": 0
            },
            {
                "pitch": 55,
                "velocity": 10,
                "duration": 0.1523,
                "tempo": 120.0
            },
            {
                "pitch": 0,
                "velocity": 0,
                "duration": 0.0341,
                "tempo": 0
            },
            {
                "pitch": 50,
                "velocity": 10,
                "duration": 0.15,
                "tempo": 120.0
            },
            {
                "pitch": 0,
                "velocity": 0,
                "duration": 0.1955,
                "tempo": 0
            },
            {
                "pitch": 55,
                "velocity": 10,
                "duration": 0.3318,
                "tempo": 120.0
            },
            {
                "pitch": 0,
                "velocity": 0,
                "duration": 0.0364,
                "tempo": 0
            },
            {
                "pitch": 56,
                "velocity": 10,
                "duration": 0.1523,
                "tempo": 120.0
            },
            {
                "pitch": 0,
                "velocity": 0,
                "duration": 0.0182,
                "tempo": 0
            },
            {
                "pitch": 55,
                "velocity": 10,
                "duration": 0.1455,
                "tempo": 120.0
            },
            {
                "pitch": 0,
                "velocity": 0,
                "duration": 0.0341,
                "tempo": 0
            },
            {
                "pitch": 50,
                "velocity": 10,
                "duration": 0.1455,
                "tempo": 120.0
            },
            {
                "pitch": 0,
                "velocity": 0,
                "duration": 0.0341,
                "tempo": 0
            },
            {
                "pitch": 55,
                "velocity": 10,
                "duration": 0.1523,
                "tempo": 120.0
            },
            {
                "pitch": 0,
                "velocity": 0,
                "duration": 0.0364,
                "tempo": 0
            },
            {
                "pitch": 50,
                "velocity": 10,
                "duration": 0.1523,
                "tempo": 120.0
            },
            {
                "pitch": 0,
                "velocity": 0,
                "duration": 0.5614,
                "tempo": 0
            },
            {
                "pitch": 48,
                "velocity": 10,
                "duration": 0.1318,
                "tempo": 120.0
            },
            {
                "pitch": 0,
                "velocity": 0,
                "duration": 0.0341,
                "tempo": 0
            },
            {
                "pitch": 53,
                "velocity": 10,
                "duration": 0.1523,
                "tempo": 120.0
            },
            {
                "pitch": 0,
                "velocity": 0,
                "duration": 0.0341,
                "tempo": 0
            },
            {
                "pitch": 56,
                "velocity": 10,
                "duration": 0.15,
                "tempo": 120.0
            },
            {
                "pitch": 0,
                "velocity": 0,
                "duration": 0.0341,
                "tempo": 0
            },
            {
                "pitch": 55,
                "velocity": 10,
                "duration": 0.15,
                "tempo": 120.0
            },
            {
                "pitch": 0,
                "velocity": 0,
                "duration": 0.0159,
                "tempo": 0
            },
            {
                "pitch": 50,
                "velocity": 10,
                "duration": 0.15,
                "tempo": 120.0
            },
            {
                "pitch": 0,
                "velocity": 0,
                "duration": 0.2136,
                "tempo": 0
            },
            {
                "pitch": 55,
                "velocity": 10,
                "duration": 0.3318,
                "tempo": 120.0
            },
            {
                "pitch": 0,
                "velocity": 0,
                "duration": 0.0182,
                "tempo": 0
            },
            {
                "pitch": 56,
                "velocity": 10,
                "duration": 0.1545,
                "tempo": 120.0
            },
            {
                "pitch": 0,
                "velocity": 0,
                "duration": 0.0341,
                "tempo": 0
            },
            {
                "pitch": 55,
                "velocity": 10,
                "duration": 0.1477,
                "tempo": 120.0
            },
            {
                "pitch": 0,
                "velocity": 0,
                "duration": 0.0318,
                "tempo": 0
            },
            {
                "pitch": 50,
                "velocity": 10,
                "duration": 0.1455,
                "tempo": 120.0
            },
            {
                "pitch": 0,
                "velocity": 0,
                "duration": 0.0341,
                "tempo": 0
            },
            {
                "pitch": 55,
                "velocity": 10,
                "duration": 0.1523,
                "tempo": 120.0
            },
            {
                "pitch": 0,
                "velocity": 0,
                "duration": 0.0182,
                "tempo": 0
            },
            {
                "pitch": 50,
                "velocity": 10,
                "duration": 0.1545,
                "tempo": 120.0
            },
            {
                "pitch": 0,
                "velocity": 0,
                "duration": 0.3932,
                "tempo": 0
            },
            {
                "pitch": 59,
                "velocity": 10,
                "duration": 0.15,
                "tempo": 120.0
            },
            {
                "pitch": 0,
                "velocity": 0,
                "duration": 0.0182,
                "tempo": 0
            },
            {
                "pitch": 56,
                "velocity": 10,
                "duration": 0.15,
                "tempo": 120.0
            },
            {
                "pitch": 0,
                "velocity": 0,
                "duration": 0.0341,
                "tempo": 0
            },
            {
                "pitch": 59,
                "velocity": 8,
                "duration": 0.15,
                "tempo": 120.0
            },
            {
                "pitch": 0,
                "velocity": 0,
                "duration": 0.0341,
                "tempo": 0
            },
            {
                "pitch": 56,
                "velocity": 8,
                "duration": 0.15,
                "tempo": 120.0
            },
            {
                "pitch": 0,
                "velocity": 0,
                "duration": 0.0341,
                "tempo": 0
            },
            {
                "pitch": 59,
                "velocity": 7,
                "duration": 0.15,
                "tempo": 120.0
            },
            {
                "pitch": 0,
                "velocity": 0,
                "duration": 0.0159,
                "tempo": 0
            },
            {
                "pitch": 56,
                "velocity": 7,
                "duration": 0.1523,
                "tempo": 120.0
            },
            {
                "pitch": 0,
                "velocity": 0,
                "duration": 0.0341,
                "tempo": 0
            },
            {
                "pitch": 59,
                "velocity": 5,
                "duration": 0.1455,
                "tempo": 120.0
            },
            {
                "pitch": 0,
                "velocity": 0,
                "duration": 0.0318,
                "tempo": 0
            },
            {
                "pitch": 56,
                "velocity": 5,
                "duration": 0.1455,
                "tempo": 120.0
            },
            {
                "pitch": 0,
                "velocity": 0,
                "duration": 0.0341,
                "tempo": 0
            },
            {
                "pitch": 58,
                "velocity": 10,
                "duration": 0.1545,
                "tempo": 120.0
            },
            {
                "pitch": 0,
                "velocity": 0,
                "duration": 0.0159,
                "tempo": 0
            },
            {
                "pitch": 55,
                "velocity": 10,
                "duration": 0.1545,
                "tempo": 120.0
            },
            {
                "pitch": 0,
                "velocity": 0,
                "duration": 0.0364,
                "tempo": 0
            },
            {
                "pitch": 58,
                "velocity": 8,
                "duration": 0.1455,
                "tempo": 120.0
            },
            {
                "pitch": 0,
                "velocity": 0,
                "duration": 0.0318,
                "tempo": 0
            },
            {
                "pitch": 55,
                "velocity": 8,
                "duration": 0.1455,
                "tempo": 120.0
            },
            {
                "pitch": 0,
                "velocity": 0,
                "duration": 0.0341,
                "tempo": 0
            },
            {
                "pitch": 58,
                "velocity": 7,
                "duration": 0.1364,
                "tempo": 120.0
            },
            {
                "pitch": 0,
                "velocity": 0,
                "duration": 0.0341,
                "tempo": 0
            },
            {
                "pitch": 55,
                "velocity": 7,
                "duration": 0.1545,
                "tempo": 120.0
            },
            {
                "pitch": 0,
                "velocity": 0,
                "duration": 0.0364,
                "tempo": 0
            },
            {
                "pitch": 58,
                "velocity": 5,
                "duration": 0.1455,
                "tempo": 120.0
            },
            {
                "pitch": 0,
                "velocity": 0,
                "duration": 0.0318,
                "tempo": 0
            },
            {
                "pitch": 55,
                "velocity": 5,
                "duration": 0.1455,
                "tempo": 120.0
            },
            {
                "pitch": 0,
                "velocity": 0,
                "duration": 0.0341,
                "tempo": 0
            },
            {
                "pitch": 59,
                "velocity": 10,
                "duration": 0.1364,
                "tempo": 120.0
            },
            {
                "pitch": 0,
                "velocity": 0,
                "duration": 0.0341,
                "tempo": 0
            },
            {
                "pitch": 56,
                "velocity": 10,
                "duration": 0.1545,
                "tempo": 120.0
            },
            {
                "pitch": 0,
                "velocity": 0,
                "duration": 0.0364,
                "tempo": 0
            },
            {
                "pitch": 59,
                "velocity": 8,
                "duration": 0.1455,
                "tempo": 120.0
            },
            {
                "pitch": 0,
                "velocity": 0,
                "duration": 0.0318,
                "tempo": 0
            },
            {
                "pitch": 56,
                "velocity": 8,
                "duration": 0.1455,
                "tempo": 120.0
            },
            {
                "pitch": 0,
                "velocity": 0,
                "duration": 0.0182,
                "tempo": 0
            },
            {
                "pitch": 59,
                "velocity": 7,
                "duration": 0.1455,
                "tempo": 120.0
            },
            {
                "pitch": 0,
                "velocity": 0,
                "duration": 0.0318,
                "tempo": 0
            },
            {
                "pitch": 56,
                "velocity": 7,
                "duration": 0.1477,
                "tempo": 120.0
            },
            {
                "pitch": 0,
                "velocity": 0,
                "duration": 0.0318,
                "tempo": 0
            },
            {
                "pitch": 59,
                "velocity": 5,
                "duration": 0.15,
                "tempo": 120.0
            },
            {
                "pitch": 0,
                "velocity": 0,
                "duration": 0.0341,
                "tempo": 0
            },
            {
                "pitch": 56,
                "velocity": 5,
                "duration": 0.15,
                "tempo": 120.0
            },
            {
                "pitch": 0,
                "velocity": 0,
                "duration": 0.0182,
                "tempo": 0
            },
            {
                "pitch": 58,
                "velocity": 10,
                "duration": 0.15,
                "tempo": 120.0
            },
            {
                "pitch": 0,
                "velocity": 0,
                "duration": 0.0341,
                "tempo": 0
            },
            {
                "pitch": 55,
                "velocity": 10,
                "duration": 0.15,
                "tempo": 120.0
            },
            {
                "pitch": 0,
                "velocity": 0,
                "duration": 0.0341,
                "tempo": 0
            },
            {
                "pitch": 58,
                "velocity": 8,
                "duration": 0.15,
                "tempo": 120.0
            },
            {
                "pitch": 0,
                "velocity": 0,
                "duration": 0.0341,
                "tempo": 0
            },
            {
                "pitch": 55,
                "velocity": 8,
                "duration": 0.15,
                "tempo": 120.0
            },
            {
                "pitch": 0,
                "velocity": 0,
                "duration": 0.0182,
                "tempo": 0
            },
            {
                "pitch": 58,
                "velocity": 7,
                "duration": 0.1455,
                "tempo": 120.0
            },
            {
                "pitch": 0,
                "velocity": 0,
                "duration": 0.0341,
                "tempo": 0
            },
            {
                "pitch": 55,
                "velocity": 7,
                "duration": 0.1455,
                "tempo": 120.0
            },
            {
                "pitch": 0,
                "velocity": 0,
                "duration": 0.0318,
                "tempo": 0
            },
            {
                "pitch": 58,
                "velocity": 5,
                "duration": 0.1545,
                "tempo": 120.0
            },
            {
                "pitch": 0,
                "velocity": 0,
                "duration": 0.0341,
                "tempo": 0
            },
            {
                "pitch": 55,
                "velocity": 5,
                "duration": 0.1545,
                "tempo": 120.0
            },
            {
                "pitch": 0,
                "velocity": 0,
                "duration": 0.1977,
                "tempo": 0
            },
            {
                "pitch": 66,
                "velocity": 10,
                "duration": 0.0636,
                "tempo": 120.0
            },
            {
                "pitch": 0,
                "velocity": 0,
                "duration": 0.0159,
                "tempo": 0
            },
            {
                "pitch": 66,
                "velocity": 10,
                "duration": 0.0659,
                "tempo": 120.0
            },
            {
                "pitch": 0,
                "velocity": 0,
                "duration": 0.0318,
                "tempo": 0
            },
            {
                "pitch": 66,
                "velocity": 10,
                "duration": 0.3432,
                "tempo": 120.0
            }
        ],
        "Lead 2 (sawtooth)": [
            {
                "pitch": 0,
                "velocity": 0,
                "duration": 0.1705,
                "tempo": 0
            },
            {
                "pitch": 63,
                "velocity": 7,
                "duration": 0.0636,
                "tempo": 120.0
            },
            {
                "pitch": 0,
                "velocity": 0,
                "duration": 0.0341,
                "tempo": 0
            },
            {
                "pitch": 63,
                "velocity": 7,
                "duration": 0.0477,
                "tempo": 120.0
            },
            {
                "pitch": 0,
                "velocity": 0,
                "duration": 0.0341,
                "tempo": 0
            },
            {
                "pitch": 62,
                "velocity": 7,
                "duration": 0.3341,
                "tempo": 120.0
            },
            {
                "pitch": 0,
                "velocity": 0,
                "duration": 0.0182,
                "tempo": 0
            },
            {
                "pitch": 69,
                "velocity": 7,
                "duration": 0.0955,
                "tempo": 120.0
            },
            {
                "pitch": 0,
                "velocity": 0,
                "duration": 2.2295,
                "tempo": 0
            },
            {
                "pitch": 63,
                "velocity": 7,
                "duration": 0.0636,
                "tempo": 120.0
            },
            {
                "pitch": 0,
                "velocity": 0,
                "duration": 0.0159,
                "tempo": 0
            },
            {
                "pitch": 63,
                "velocity": 7,
                "duration": 0.0659,
                "tempo": 120.0
            },
            {
                "pitch": 0,
                "velocity": 0,
                "duration": 0.0318,
                "tempo": 0
            },
            {
                "pitch": 62,
                "velocity": 7,
                "duration": 0.3432,
                "tempo": 120.0
            },
            {
                "pitch": 0,
                "velocity": 0,
                "duration": 0.0182,
                "tempo": 0
            },
            {
                "pitch": 69,
                "velocity": 7,
                "duration": 0.1,
                "tempo": 120.0
            },
            {
                "pitch": 0,
                "velocity": 0,
                "duration": 2.2273,
                "tempo": 0
            },
            {
                "pitch": 64,
                "velocity": 7,
                "duration": 0.0636,
                "tempo": 120.0
            },
            {
                "pitch": 0,
                "velocity": 0,
                "duration": 0.0182,
                "tempo": 0
            },
            {
                "pitch": 64,
                "velocity": 7,
                "duration": 0.0636,
                "tempo": 120.0
            },
            {
                "pitch": 0,
                "velocity": 0,
                "duration": 0.0341,
                "tempo": 0
            },
            {
                "pitch": 64,
                "velocity": 7,
                "duration": 0.325,
                "tempo": 120.0
            },
            {
                "pitch": 0,
                "velocity": 0,
                "duration": 0.0341,
                "tempo": 0
            },
            {
                "pitch": 63,
                "velocity": 7,
                "duration": 0.1,
                "tempo": 120.0
            },
            {
                "pitch": 0,
                "velocity": 0,
                "duration": 2.2273,
                "tempo": 0
            },
            {
                "pitch": 64,
                "velocity": 7,
                "duration": 0.0477,
                "tempo": 120.0
            },
            {
                "pitch": 0,
                "velocity": 0,
                "duration": 0.0341,
                "tempo": 0
            },
            {
                "pitch": 64,
                "velocity": 7,
                "duration": 0.0636,
                "tempo": 120.0
            },
            {
                "pitch": 0,
                "velocity": 0,
                "duration": 0.0341,
                "tempo": 0
            },
            {
                "pitch": 64,
                "velocity": 7,
                "duration": 0.325,
                "tempo": 120.0
            },
            {
                "pitch": 0,
                "velocity": 0,
                "duration": 0.0364,
                "tempo": 0
            },
            {
                "pitch": 63,
                "velocity": 7,
                "duration": 0.0818,
                "tempo": 120.0
            },
            {
                "pitch": 0,
                "velocity": 0,
                "duration": 13.6841,
                "tempo": 0
            },
            {
                "pitch": 63,
                "velocity": 7,
                "duration": 0.0636,
                "tempo": 120.0
            },
            {
                "pitch": 0,
                "velocity": 0,
                "duration": 0.0182,
                "tempo": 0
            },
            {
                "pitch": 63,
                "velocity": 7,
                "duration": 0.0636,
                "tempo": 120.0
            },
            {
                "pitch": 0,
                "velocity": 0,
                "duration": 0.0341,
                "tempo": 0
            },
            {
                "pitch": 62,
                "velocity": 7,
                "duration": 0.3409,
                "tempo": 120.0
            }
        ],
        "Synth Bass 1": [
            {
                "pitch": 0,
                "velocity": 0,
                "duration": 0.7023,
                "tempo": 0
            },
            {
                "pitch": 57,
                "velocity": 1,
                "duration": 0.0636,
                "tempo": 120.0
            },
            {
                "pitch": 0,
                "velocity": 0,
                "duration": 0.0318,
                "tempo": 0
            },
            {
                "pitch": 57,
                "velocity": 1,
                "duration": 0.05,
                "tempo": 120.0
            },
            {
                "pitch": 0,
                "velocity": 0,
                "duration": 0.0341,
                "tempo": 0
            },
            {
                "pitch": 57,
                "velocity": 1,
                "duration": 0.0614,
                "tempo": 120.0
            },
            {
                "pitch": 0,
                "velocity": 0,
                "duration": 0.0341,
                "tempo": 0
            },
            {
                "pitch": 57,
                "velocity": 1,
                "duration": 0.0477,
                "tempo": 120.0
            },
            {
                "pitch": 0,
                "velocity": 0,
                "duration": 0.0341,
                "tempo": 0
            },
            {
                "pitch": 57,
                "velocity": 1,
                "duration": 0.0682,
                "tempo": 120.0
            },
            {
                "pitch": 0,
                "velocity": 0,
                "duration": 0.0159,
                "tempo": 0
            },
            {
                "pitch": 57,
                "velocity": 1,
                "duration": 0.0682,
                "tempo": 120.0
            },
            {
                "pitch": 0,
                "velocity": 0,
                "duration": 0.0364,
                "tempo": 0
            },
            {
                "pitch": 57,
                "velocity": 1,
                "duration": 0.05,
                "tempo": 120.0
            },
            {
                "pitch": 0,
                "velocity": 0,
                "duration": 0.0341,
                "tempo": 0
            },
            {
                "pitch": 57,
                "velocity": 1,
                "duration": 0.0682,
                "tempo": 120.0
            },
            {
                "pitch": 0,
                "velocity": 0,
                "duration": 0.7295,
                "tempo": 0
            },
            {
                "pitch": 57,
                "velocity": 1,
                "duration": 0.0636,
                "tempo": 120.0
            },
            {
                "pitch": 0,
                "velocity": 0,
                "duration": 0.0318,
                "tempo": 0
            },
            {
                "pitch": 57,
                "velocity": 1,
                "duration": 0.05,
                "tempo": 120.0
            },
            {
                "pitch": 0,
                "velocity": 0,
                "duration": 0.0318,
                "tempo": 0
            },
            {
                "pitch": 57,
                "velocity": 1,
                "duration": 0.0659,
                "tempo": 120.0
            },
            {
                "pitch": 0,
                "velocity": 0,
                "duration": 0.0159,
                "tempo": 0
            },
            {
                "pitch": 57,
                "velocity": 1,
                "duration": 0.0636,
                "tempo": 120.0
            },
            {
                "pitch": 0,
                "velocity": 0,
                "duration": 0.0341,
                "tempo": 0
            },
            {
                "pitch": 57,
                "velocity": 1,
                "duration": 0.05,
                "tempo": 120.0
            },
            {
                "pitch": 0,
                "velocity": 0,
                "duration": 0.0341,
                "tempo": 0
            },
            {
                "pitch": 57,
                "velocity": 1,
                "duration": 0.0705,
                "tempo": 120.0
            },
            {
                "pitch": 0,
                "velocity": 0,
                "duration": 0.0341,
                "tempo": 0
            },
            {
                "pitch": 57,
                "velocity": 1,
                "duration": 0.05,
                "tempo": 120.0
            },
            {
                "pitch": 0,
                "velocity": 0,
                "duration": 0.0364,
                "tempo": 0
            },
            {
                "pitch": 57,
                "velocity": 1,
                "duration": 0.0682,
                "tempo": 120.0
            },
            {
                "pitch": 0,
                "velocity": 0,
                "duration": 0.7364,
                "tempo": 0
            },
            {
                "pitch": 57,
                "velocity": 1,
                "duration": 0.0659,
                "tempo": 120.0
            },
            {
                "pitch": 0,
                "velocity": 0,
                "duration": 0.0341,
                "tempo": 0
            },
            {
                "pitch": 57,
                "velocity": 1,
                "duration": 0.05,
                "tempo": 120.0
            },
            {
                "pitch": 0,
                "velocity": 0,
                "duration": 0.0341,
                "tempo": 0
            },
            {
                "pitch": 57,
                "velocity": 1,
                "duration": 0.0659,
                "tempo": 120.0
            },
            {
                "pitch": 0,
                "velocity": 0,
                "duration": 0.0159,
                "tempo": 0
            },
            {
                "pitch": 57,
                "velocity": 1,
                "duration": 0.0682,
                "tempo": 120.0
            },
            {
                "pitch": 0,
                "velocity": 0,
                "duration": 0.0341,
                "tempo": 0
            },
            {
                "pitch": 57,
                "velocity": 1,
                "duration": 0.05,
                "tempo": 120.0
            },
            {
                "pitch": 0,
                "velocity": 0,
                "duration": 0.0318,
                "tempo": 0
            },
            {
                "pitch": 57,
                "velocity": 1,
                "duration": 0.0682,
                "tempo": 120.0
            },
            {
                "pitch": 0,
                "velocity": 0,
                "duration": 0.0341,
                "tempo": 0
            },
            {
                "pitch": 57,
                "velocity": 1,
                "duration": 0.05,
                "tempo": 120.0
            },
            {
                "pitch": 0,
                "velocity": 0,
                "duration": 0.0318,
                "tempo": 0
            },
            {
                "pitch": 57,
                "velocity": 1,
                "duration": 0.0523,
                "tempo": 120.0
            },
            {
                "pitch": 0,
                "velocity": 0,
                "duration": 0.7432,
                "tempo": 0
            },
            {
                "pitch": 57,
                "velocity": 1,
                "duration": 0.0636,
                "tempo": 120.0
            },
            {
                "pitch": 0,
                "velocity": 0,
                "duration": 0.0318,
                "tempo": 0
            },
            {
                "pitch": 57,
                "velocity": 1,
                "duration": 0.05,
                "tempo": 120.0
            },
            {
                "pitch": 0,
                "velocity": 0,
                "duration": 0.0341,
                "tempo": 0
            },
            {
                "pitch": 57,
                "velocity": 1,
                "duration": 0.0636,
                "tempo": 120.0
            },
            {
                "pitch": 0,
                "velocity": 0,
                "duration": 0.0159,
                "tempo": 0
            },
            {
                "pitch": 57,
                "velocity": 1,
                "duration": 0.0659,
                "tempo": 120.0
            },
            {
                "pitch": 0,
                "velocity": 0,
                "duration": 0.0318,
                "tempo": 0
            },
            {
                "pitch": 57,
                "velocity": 1,
                "duration": 0.0523,
                "tempo": 120.0
            },
            {
                "pitch": 0,
                "velocity": 0,
                "duration": 0.0341,
                "tempo": 0
            },
            {
                "pitch": 57,
                "velocity": 1,
                "duration": 0.0682,
                "tempo": 120.0
            },
            {
                "pitch": 0,
                "velocity": 0,
                "duration": 0.0182,
                "tempo": 0
            },
            {
                "pitch": 57,
                "velocity": 1,
                "duration": 0.0682,
                "tempo": 120.0
            },
            {
                "pitch": 0,
                "velocity": 0,
                "duration": 0.0341,
                "tempo": 0
            },
            {
                "pitch": 57,
                "velocity": 1,
                "duration": 0.0523,
                "tempo": 120.0
            },
            {
                "pitch": 0,
                "velocity": 0,
                "duration": 0.7545,
                "tempo": 0
            },
            {
                "pitch": 58,
                "velocity": 1,
                "duration": 0.0636,
                "tempo": 120.0
            },
            {
                "pitch": 0,
                "velocity": 0,
                "duration": 0.0341,
                "tempo": 0
            },
            {
                "pitch": 58,
                "velocity": 1,
                "duration": 0.05,
                "tempo": 120.0
            },
            {
                "pitch": 0,
                "velocity": 0,
                "duration": 0.0341,
                "tempo": 0
            },
            {
                "pitch": 58,
                "velocity": 1,
                "duration": 0.05,
                "tempo": 120.0
            },
            {
                "pitch": 0,
                "velocity": 0,
                "duration": 0.0341,
                "tempo": 0
            },
            {
                "pitch": 58,
                "velocity": 1,
                "duration": 0.0659,
                "tempo": 120.0
            },
            {
                "pitch": 0,
                "velocity": 0,
                "duration": 0.0341,
                "tempo": 0
            },
            {
                "pitch": 58,
                "velocity": 1,
                "duration": 0.05,
                "tempo": 120.0
            },
            {
                "pitch": 0,
                "velocity": 0,
                "duration": 0.0341,
                "tempo": 0
            },
            {
                "pitch": 58,
                "velocity": 1,
                "duration": 0.0659,
                "tempo": 120.0
            },
            {
                "pitch": 0,
                "velocity": 0,
                "duration": 0.0182,
                "tempo": 0
            },
            {
                "pitch": 58,
                "velocity": 1,
                "duration": 0.0659,
                "tempo": 120.0
            },
            {
                "pitch": 0,
                "velocity": 0,
                "duration": 0.0341,
                "tempo": 0
            },
            {
                "pitch": 58,
                "velocity": 1,
                "duration": 0.05,
                "tempo": 120.0
            },
            {
                "pitch": 0,
                "velocity": 0,
                "duration": 0.7432,
                "tempo": 0
            },
            {
                "pitch": 58,
                "velocity": 1,
                "duration": 0.0636,
                "tempo": 120.0
            },
            {
                "pitch": 0,
                "velocity": 0,
                "duration": 0.0182,
                "tempo": 0
            },
            {
                "pitch": 58,
                "velocity": 1,
                "duration": 0.0636,
                "tempo": 120.0
            },
            {
                "pitch": 0,
                "velocity": 0,
                "duration": 0.0341,
                "tempo": 0
            },
            {
                "pitch": 58,
                "velocity": 1,
                "duration": 0.0477,
                "tempo": 120.0
            },
            {
                "pitch": 0,
                "velocity": 0,
                "duration": 0.0318,
                "tempo": 0
            },
            {
                "pitch": 58,
                "velocity": 1,
                "duration": 0.0659,
                "tempo": 120.0
            },
            {
                "pitch": 0,
                "velocity": 0,
                "duration": 0.0318,
                "tempo": 0
            },
            {
                "pitch": 58,
                "velocity": 1,
                "duration": 0.0523,
                "tempo": 120.0
            },
            {
                "pitch": 0,
                "velocity": 0,
                "duration": 0.0341,
                "tempo": 0
            },
            {
                "pitch": 58,
                "velocity": 1,
                "duration": 0.0682,
                "tempo": 120.0
            },
            {
                "pitch": 0,
                "velocity": 0,
                "duration": 0.0182,
                "tempo": 0
            },
            {
                "pitch": 58,
                "velocity": 1,
                "duration": 0.0682,
                "tempo": 120.0
            },
            {
                "pitch": 0,
                "velocity": 0,
                "duration": 0.0341,
                "tempo": 0
            },
            {
                "pitch": 58,
                "velocity": 1,
                "duration": 0.0523,
                "tempo": 120.0
            },
            {
                "pitch": 0,
                "velocity": 0,
                "duration": 0.7545,
                "tempo": 0
            },
            {
                "pitch": 58,
                "velocity": 1,
                "duration": 0.0636,
                "tempo": 120.0
            },
            {
                "pitch": 0,
                "velocity": 0,
                "duration": 0.0182,
                "tempo": 0
            },
            {
                "pitch": 58,
                "velocity": 1,
                "duration": 0.0682,
                "tempo": 120.0
            },
            {
                "pitch": 0,
                "velocity": 0,
                "duration": 0.0341,
                "tempo": 0
            },
            {
                "pitch": 58,
                "velocity": 1,
                "duration": 0.0477,
                "tempo": 120.0
            },
            {
                "pitch": 0,
                "velocity": 0,
                "duration": 0.0341,
                "tempo": 0
            },
            {
                "pitch": 58,
                "velocity": 1,
                "duration": 0.0659,
                "tempo": 120.0
            },
            {
                "pitch": 0,
                "velocity": 0,
                "duration": 0.0341,
                "tempo": 0
            },
            {
                "pitch": 58,
                "velocity": 1,
                "duration": 0.05,
                "tempo": 120.0
            },
            {
                "pitch": 0,
                "velocity": 0,
                "duration": 0.0341,
                "tempo": 0
            },
            {
                "pitch": 58,
                "velocity": 1,
                "duration": 0.05,
                "tempo": 120.0
            },
            {
                "pitch": 0,
                "velocity": 0,
                "duration": 0.0341,
                "tempo": 0
            },
            {
                "pitch": 58,
                "velocity": 1,
                "duration": 0.0659,
                "tempo": 120.0
            },
            {
                "pitch": 0,
                "velocity": 0,
                "duration": 0.0341,
                "tempo": 0
            },
            {
                "pitch": 58,
                "velocity": 1,
                "duration": 0.05,
                "tempo": 120.0
            },
            {
                "pitch": 0,
                "velocity": 0,
                "duration": 0.7341,
                "tempo": 0
            },
            {
                "pitch": 58,
                "velocity": 1,
                "duration": 0.0659,
                "tempo": 120.0
            },
            {
                "pitch": 0,
                "velocity": 0,
                "duration": 0.0159,
                "tempo": 0
            },
            {
                "pitch": 58,
                "velocity": 1,
                "duration": 0.0682,
                "tempo": 120.0
            },
            {
                "pitch": 0,
                "velocity": 0,
                "duration": 0.0341,
                "tempo": 0
            },
            {
                "pitch": 58,
                "velocity": 1,
                "duration": 0.05,
                "tempo": 120.0
            },
            {
                "pitch": 0,
                "velocity": 0,
                "duration": 0.0318,
                "tempo": 0
            },
            {
                "pitch": 58,
                "velocity": 1,
                "duration": 0.0682,
                "tempo": 120.0
            },
            {
                "pitch": 0,
                "velocity": 0,
                "duration": 0.0182,
                "tempo": 0
            },
            {
                "pitch": 58,
                "velocity": 1,
                "duration": 0.0659,
                "tempo": 120.0
            },
            {
                "pitch": 0,
                "velocity": 0,
                "duration": 0.0341,
                "tempo": 0
            },
            {
                "pitch": 58,
                "velocity": 1,
                "duration": 0.05,
                "tempo": 120.0
            },
            {
                "pitch": 0,
                "velocity": 0,
                "duration": 0.0341,
                "tempo": 0
            },
            {
                "pitch": 58,
                "velocity": 1,
                "duration": 0.0659,
                "tempo": 120.0
            },
            {
                "pitch": 0,
                "velocity": 0,
                "duration": 0.0341,
                "tempo": 0
            },
            {
                "pitch": 58,
                "velocity": 1,
                "duration": 0.05,
                "tempo": 120.0
            },
            {
                "pitch": 0,
                "velocity": 0,
                "duration": 0.0364,
                "tempo": 0
            },
            {
                "pitch": 56,
                "velocity": 1,
                "duration": 0.6841,
                "tempo": 120.0
            },
            {
                "pitch": 0,
                "velocity": 0,
                "duration": 0.0364,
                "tempo": 0
            },
            {
                "pitch": 55,
                "velocity": 1,
                "duration": 0.6727,
                "tempo": 120.0
            },
            {
                "pitch": 0,
                "velocity": 0,
                "duration": 0.0341,
                "tempo": 0
            },
            {
                "pitch": 56,
                "velocity": 1,
                "duration": 0.6864,
                "tempo": 120.0
            },
            {
                "pitch": 0,
                "velocity": 0,
                "duration": 0.0341,
                "tempo": 0
            },
            {
                "pitch": 55,
                "velocity": 1,
                "duration": 0.6841,
                "tempo": 120.0
            },
            {
                "pitch": 0,
                "velocity": 0,
                "duration": 0.0318,
                "tempo": 0
            },
            {
                "pitch": 56,
                "velocity": 1,
                "duration": 0.6864,
                "tempo": 120.0
            },
            {
                "pitch": 0,
                "velocity": 0,
                "duration": 0.0364,
                "tempo": 0
            },
            {
                "pitch": 55,
                "velocity": 1,
                "duration": 0.6727,
                "tempo": 120.0
            },
            {
                "pitch": 0,
                "velocity": 0,
                "duration": 0.0341,
                "tempo": 0
            },
            {
                "pitch": 56,
                "velocity": 1,
                "duration": 0.6864,
                "tempo": 120.0
            },
            {
                "pitch": 0,
                "velocity": 0,
                "duration": 0.0341,
                "tempo": 0
            },
            {
                "pitch": 55,
                "velocity": 1,
                "duration": 0.6841,
                "tempo": 120.0
            },
            {
                "pitch": 0,
                "velocity": 0,
                "duration": 0.0341,
                "tempo": 0
            },
            {
                "pitch": 63,
                "velocity": 1,
                "duration": 0.6841,
                "tempo": 120.0
            },
            {
                "pitch": 0,
                "velocity": 0,
                "duration": 0.0364,
                "tempo": 0
            },
            {
                "pitch": 71,
                "velocity": 1,
                "duration": 0.675,
                "tempo": 120.0
            },
            {
                "pitch": 0,
                "velocity": 0,
                "duration": 0.0341,
                "tempo": 0
            },
            {
                "pitch": 62,
                "velocity": 1,
                "duration": 0.6841,
                "tempo": 120.0
            },
            {
                "pitch": 0,
                "velocity": 0,
                "duration": 0.0341,
                "tempo": 0
            },
            {
                "pitch": 70,
                "velocity": 1,
                "duration": 0.6841,
                "tempo": 120.0
            },
            {
                "pitch": 0,
                "velocity": 0,
                "duration": 0.0341,
                "tempo": 0
            },
            {
                "pitch": 63,
                "velocity": 1,
                "duration": 0.6841,
                "tempo": 120.0
            },
            {
                "pitch": 0,
                "velocity": 0,
                "duration": 0.0182,
                "tempo": 0
            },
            {
                "pitch": 71,
                "velocity": 1,
                "duration": 0.6909,
                "tempo": 120.0
            },
            {
                "pitch": 0,
                "velocity": 0,
                "duration": 0.0182,
                "tempo": 0
            },
            {
                "pitch": 62,
                "velocity": 1,
                "duration": 0.7023,
                "tempo": 120.0
            },
            {
                "pitch": 0,
                "velocity": 0,
                "duration": 0.0182,
                "tempo": 0
            },
            {
                "pitch": 70,
                "velocity": 1,
                "duration": 0.7,
                "tempo": 120.0
            }
        ],
        "Acoustic Grand Piano": [
            {
                "pitch": 0,
                "velocity": 0,
                "duration": 23.5864,
                "tempo": 0
            },
            {
                "pitch": 108,
                "velocity": 15,
                "duration": 0.1,
                "tempo": 120.0
            }
        ]
    }
}