{
    "track_id": "15 Mission 6_5",
    "mood": "angry",
    "instruments": {
        "Lead 1 (square)": [
            {
                "pitch": 66,
                "velocity": 8,
                "duration": 0.0818,
                "tempo": 120.0
            },
            {
                "pitch": 0,
                "velocity": 0,
                "duration": 0.0182,
                "tempo": 0
            },
            {
                "pitch": 67,
                "velocity": 8,
                "duration": 0.0841,
                "tempo": 120.0
            },
            {
                "pitch": 0,
                "velocity": 0,
                "duration": 0.0182,
                "tempo": 0
            },
            {
                "pitch": 66,
                "velocity": 8,
                "duration": 0.0864,
                "tempo": 120.0
            },
            {
                "pitch": 0,
                "velocity": 0,
                "duration": 0.0159,
                "tempo": 0
            },
            {
                "pitch": 67,
                "velocity": 8,
                "duration": 0.0864,
                "tempo": 120.0
            },
            {
                "pitch": 0,
                "velocity": 0,
                "duration": 0.0159,
                "tempo": 0
            },
            {
                "pitch": 68,
                "velocity": 8,
                "duration": 0.0864,
                "tempo": 120.0
            },
            {
                "pitch": 0,
                "velocity": 0,
                "duration": 0.0182,
                "tempo": 0
            },
            {
                "pitch": 69,
                "velocity": 8,
                "duration": 0.0818,
                "tempo": 120.0
            },
            {
                "pitch": 0,
                "velocity": 0,
                "duration": 0.0159,
                "tempo": 0
            },
            {
                "pitch": 68,
                "velocity": 8,
                "duration": 0.0818,
                "tempo": 120.0
            },
            {
                "pitch": 0,
                "velocity": 0,
                "duration": 0.0159,
                "tempo": 0
            },
            {
                "pitch": 69,
                "velocity": 8,
                "duration": 0.0818,
                "tempo": 120.0
            },
            {
                "pitch": 0,
                "velocity": 0,
                "duration": 0.0159,
                "tempo": 0
            },
            {
                "pitch": 70,
                "velocity": 8,
                "duration": 0.0818,
                "tempo": 120.0
            },
            {
                "pitch": 0,
                "velocity": 0,
                "duration": 0.0159,
                "tempo": 0
            },
            {
                "pitch": 71,
                "velocity": 8,
                "duration": 0.0864,
                "tempo": 120.0
            },
            {
                "pitch": 0,
                "velocity": 0,
                "duration": 0.0182,
                "tempo": 0
            },
            {
                "pitch": 70,
                "velocity": 8,
                "duration": 0.0841,
                "tempo": 120.0
            },
            {
                "pitch": 0,
                "velocity": 0,
                "duration": 0.0182,
                "tempo": 0
            },
            {
                "pitch": 71,
                "velocity": 8,
                "duration": 0.0841,
                "tempo": 120.0
            },
            {
                "pitch": 0,
                "velocity": 0,
                "duration": 0.0182,
                "tempo": 0
            },
            {
                "pitch": 72,
                "velocity": 8,
                "duration": 0.0864,
                "tempo": 120.0
            },
            {
                "pitch": 0,
                "velocity": 0,
                "duration": 0.0159,
                "tempo": 0
            },
            {
                "pitch": 73,
                "velocity": 8,
                "duration": 0.0841,
                "tempo": 120.0
            },
            {
                "pitch": 0,
                "velocity": 0,
                "duration": 0.0159,
                "tempo": 0
            },
            {
                "pitch": 72,
                "velocity": 8,
                "duration": 0.0841,
                "tempo": 120.0
            },
            {
                "pitch": 0,
                "velocity": 0,
                "duration": 0.0182,
                "tempo": 0
            },
            {
                "pitch": 73,
                "velocity": 8,
                "duration": 0.0818,
                "tempo": 120.0
            }
        ],
        "Lead 2 (sawtooth)": [
            {
                "pitch": 0,
                "velocity": 0,
                "duration": 1.6205,
                "tempo": 0
            },
            {
                "pitch": 67,
                "velocity": 12,
                "duration": 3.1773,
                "tempo": 120.0
            },
            {
                "pitch": 0,
                "velocity": 0,
                "duration": 0.075,
                "tempo": 0
            },
            {
                "pitch": 70,
                "velocity": 12,
                "duration": 3.1795,
                "tempo": 120.0
            },
            {
                "pitch": 0,
                "velocity": 0,
                "duration": 0.0705,
                "tempo": 0
            },
            {
                "pitch": 68,
                "velocity": 12,
                "duration": 1.5455,
                "tempo": 120.0
            },
            {
                "pitch": 0,
                "velocity": 0,
                "duration": 0.0705,
                "tempo": 0
            },
            {
                "pitch": 71,
                "velocity": 12,
                "duration": 1.4795,
                "tempo": 120.0
            },
            {
                "pitch": 0,
                "velocity": 0,
                "duration": 0.0636,
                "tempo": 0
            },
            {
                "pitch": 74,
                "velocity": 12,
                "duration": 3.15,
                "tempo": 120.0
            },
            {
                "pitch": 0,
                "velocity": 0,
                "duration": 0.0705,
                "tempo": 0
            },
            {
                "pitch": 67,
                "velocity": 12,
                "duration": 3.1841,
                "tempo": 120.0
            },
            {
                "pitch": 0,
                "velocity": 0,
                "duration": 0.0682,
                "tempo": 0
            },
            {
                "pitch": 70,
                "velocity": 12,
                "duration": 3.1841,
                "tempo": 120.0
            },
            {
                "pitch": 0,
                "velocity": 0,
                "duration": 0.0682,
                "tempo": 0
            },
            {
                "pitch": 68,
                "velocity": 12,
                "duration": 1.5477,
                "tempo": 120.0
            },
            {
                "pitch": 0,
                "velocity": 0,
                "duration": 0.0682,
                "tempo": 0
            },
            {
                "pitch": 72,
                "velocity": 12,
                "duration": 1.5705,
                "tempo": 120.0
            },
            {
                "pitch": 0,
                "velocity": 0,
                "duration": 0.0727,
                "tempo": 0
            },
            {
                "pitch": 69,
                "velocity": 12,
                "duration": 1.5386,
                "tempo": 120.0
            },
            {
                "pitch": 0,
                "velocity": 0,
                "duration": 0.0682,
                "tempo": 0
            },
            {
                "pitch": 64,
                "velocity": 12,
                "duration": 1.5318,
                "tempo": 120.0
            },
            {
                "pitch": 0,
                "velocity": 0,
                "duration": 16.2955,
                "tempo": 0
            },
            {
                "pitch": 47,
                "velocity": 12,
                "duration": 0.2136,
                "tempo": 120.0
            },
            {
                "pitch": 48,
                "velocity": 12,
                "duration": 0.05,
                "tempo": 120.0
            },
            {
                "pitch": 51,
                "velocity": 12,
                "duration": 0.05,
                "tempo": 120.0
            },
            {
                "pitch": 54,
                "velocity": 12,
                "duration": 0.0341,
                "tempo": 120.0
            },
            {
                "pitch": 56,
                "velocity": 12,
                "duration": 0.0318,
                "tempo": 120.0
            },
            {
                "pitch": 58,
                "velocity": 12,
                "duration": 0.0341,
                "tempo": 120.0
            },
            {
                "pitch": 60,
                "velocity": 12,
                "duration": 0.0523,
                "tempo": 120.0
            },
            {
                "pitch": 63,
                "velocity": 12,
                "duration": 0.05,
                "tempo": 120.0
            },
            {
                "pitch": 66,
                "velocity": 12,
                "duration": 0.0341,
                "tempo": 120.0
            },
            {
                "pitch": 68,
                "velocity": 12,
                "duration": 0.0341,
                "tempo": 120.0
            },
            {
                "pitch": 70,
                "velocity": 12,
                "duration": 1.0273,
                "tempo": 120.0
            },
            {
                "pitch": 0,
                "velocity": 0,
                "duration": 0.0227,
                "tempo": 0
            },
            {
                "pitch": 67,
                "velocity": 12,
                "duration": 0.4045,
                "tempo": 120.0
            }
        ],
        "Synth Bass 1": [
            {
                "pitch": 0,
                "velocity": 0,
                "duration": 0.0023,
                "tempo": 0
            },
            {
                "pitch": 34,
                "velocity": 1,
                "duration": 1.5955,
                "tempo": 120.0
            }
        ],
        "Acoustic Grand Piano": [
            {
                "pitch": 0,
                "velocity": 0,
                "duration": 45.7386,
                "tempo": 0
            },
            {
                "pitch": 108,
                "velocity": 15,
                "duration": 0.1,
                "tempo": 120.0
            }
        ]
    }
}