{
    "track_id": "15 Mission 6_12",
    "mood": "angry",
    "instruments": {
        "Lead 1 (square)": [
            {
                "pitch": 95,
                "velocity": 10,
                "duration": 0.0818,
                "tempo": 120.0
            },
            {
                "pitch": 0,
                "velocity": 0,
                "duration": 0.0159,
                "tempo": 0
            },
            {
                "pitch": 96,
                "velocity": 10,
                "duration": 0.0864,
                "tempo": 120.0
            },
            {
                "pitch": 0,
                "velocity": 0,
                "duration": 0.0159,
                "tempo": 0
            },
            {
                "pitch": 97,
                "velocity": 10,
                "duration": 0.0864,
                "tempo": 120.0
            },
            {
                "pitch": 0,
                "velocity": 0,
                "duration": 0.0182,
                "tempo": 0
            },
            {
                "pitch": 98,
                "velocity": 10,
                "duration": 0.0841,
                "tempo": 120.0
            },
            {
                "pitch": 0,
                "velocity": 0,
                "duration": 0.0182,
                "tempo": 0
            },
            {
                "pitch": 99,
                "velocity": 10,
                "duration": 0.0841,
                "tempo": 120.0
            },
            {
                "pitch": 0,
                "velocity": 0,
                "duration": 0.0182,
                "tempo": 0
            },
            {
                "pitch": 100,
                "velocity": 10,
                "duration": 0.0818,
                "tempo": 120.0
            },
            {
                "pitch": 0,
                "velocity": 0,
                "duration": 0.0159,
                "tempo": 0
            },
            {
                "pitch": 101,
                "velocity": 10,
                "duration": 0.0818,
                "tempo": 120.0
            },
            {
                "pitch": 0,
                "velocity": 0,
                "duration": 0.0182,
                "tempo": 0
            },
            {
                "pitch": 102,
                "velocity": 10,
                "duration": 0.0795,
                "tempo": 120.0
            },
            {
                "pitch": 0,
                "velocity": 0,
                "duration": 0.0182,
                "tempo": 0
            },
            {
                "pitch": 103,
                "velocity": 10,
                "duration": 0.0795,
                "tempo": 120.0
            },
            {
                "pitch": 0,
                "velocity": 0,
                "duration": 0.0182,
                "tempo": 0
            },
            {
                "pitch": 104,
                "velocity": 10,
                "duration": 0.0841,
                "tempo": 120.0
            },
            {
                "pitch": 0,
                "velocity": 0,
                "duration": 0.0182,
                "tempo": 0
            },
            {
                "pitch": 105,
                "velocity": 10,
                "duration": 0.0864,
                "tempo": 120.0
            },
            {
                "pitch": 0,
                "velocity": 0,
                "duration": 0.0159,
                "tempo": 0
            },
            {
                "pitch": 106,
                "velocity": 10,
                "duration": 0.0864,
                "tempo": 120.0
            },
            {
                "pitch": 0,
                "velocity": 0,
                "duration": 0.0182,
                "tempo": 0
            },
            {
                "pitch": 105,
                "velocity": 10,
                "duration": 0.0841,
                "tempo": 120.0
            },
            {
                "pitch": 0,
                "velocity": 0,
                "duration": 0.0182,
                "tempo": 0
            },
            {
                "pitch": 106,
                "velocity": 10,
                "duration": 0.0818,
                "tempo": 120.0
            },
            {
                "pitch": 0,
                "velocity": 0,
                "duration": 0.0182,
                "tempo": 0
            },
            {
                "pitch": 105,
                "velocity": 10,
                "duration": 0.0818,
                "tempo": 120.0
            },
            {
                "pitch": 0,
                "velocity": 0,
                "duration": 0.0182,
                "tempo": 0
            },
            {
                "pitch": 106,
                "velocity": 10,
                "duration": 0.0818,
                "tempo": 120.0
            },
            {
                "pitch": 0,
                "velocity": 0,
                "duration": 6.1227,
                "tempo": 0
            },
            {
                "pitch": 75,
                "velocity": 12,
                "duration": 0.0818,
                "tempo": 120.0
            },
            {
                "pitch": 0,
                "velocity": 0,
                "duration": 0.0159,
                "tempo": 0
            },
            {
                "pitch": 74,
                "velocity": 12,
                "duration": 0.0841,
                "tempo": 120.0
            },
            {
                "pitch": 0,
                "velocity": 0,
                "duration": 0.0182,
                "tempo": 0
            },
            {
                "pitch": 73,
                "velocity": 12,
                "duration": 0.0818,
                "tempo": 120.0
            },
            {
                "pitch": 0,
                "velocity": 0,
                "duration": 0.0182,
                "tempo": 0
            },
            {
                "pitch": 72,
                "velocity": 12,
                "duration": 0.0841,
                "tempo": 120.0
            },
            {
                "pitch": 0,
                "velocity": 0,
                "duration": 0.0182,
                "tempo": 0
            },
            {
                "pitch": 71,
                "velocity": 12,
                "duration": 0.7864,
                "tempo": 120.0
            },
            {
                "pitch": 0,
                "velocity": 0,
                "duration": 0.0182,
                "tempo": 0
            },
            {
                "pitch": 68,
                "velocity": 12,
                "duration": 0.7932,
                "tempo": 120.0
            },
            {
                "pitch": 0,
                "velocity": 0,
                "duration": 0.0182,
                "tempo": 0
            },
            {
                "pitch": 65,
                "velocity": 12,
                "duration": 0.2477,
                "tempo": 120.0
            },
            {
                "pitch": 0,
                "velocity": 0,
                "duration": 0.0159,
                "tempo": 0
            },
            {
                "pitch": 64,
                "velocity": 12,
                "duration": 0.2455,
                "tempo": 120.0
            },
            {
                "pitch": 0,
                "velocity": 0,
                "duration": 0.0182,
                "tempo": 0
            },
            {
                "pitch": 63,
                "velocity": 12,
                "duration": 0.2523,
                "tempo": 120.0
            },
            {
                "pitch": 0,
                "velocity": 0,
                "duration": 0.0159,
                "tempo": 0
            },
            {
                "pitch": 62,
                "velocity": 12,
                "duration": 0.2523,
                "tempo": 120.0
            },
            {
                "pitch": 0,
                "velocity": 0,
                "duration": 0.0159,
                "tempo": 0
            },
            {
                "pitch": 61,
                "velocity": 12,
                "duration": 0.2273,
                "tempo": 120.0
            },
            {
                "pitch": 0,
                "velocity": 0,
                "duration": 0.0136,
                "tempo": 0
            },
            {
                "pitch": 62,
                "velocity": 12,
                "duration": 0.2205,
                "tempo": 120.0
            },
            {
                "pitch": 0,
                "velocity": 0,
                "duration": 9.35,
                "tempo": 0
            },
            {
                "pitch": 72,
                "velocity": 12,
                "duration": 0.0795,
                "tempo": 120.0
            },
            {
                "pitch": 0,
                "velocity": 0,
                "duration": 0.0159,
                "tempo": 0
            },
            {
                "pitch": 71,
                "velocity": 12,
                "duration": 0.0818,
                "tempo": 120.0
            },
            {
                "pitch": 0,
                "velocity": 0,
                "duration": 0.0182,
                "tempo": 0
            },
            {
                "pitch": 70,
                "velocity": 12,
                "duration": 0.0795,
                "tempo": 120.0
            },
            {
                "pitch": 0,
                "velocity": 0,
                "duration": 0.0182,
                "tempo": 0
            },
            {
                "pitch": 69,
                "velocity": 12,
                "duration": 0.0795,
                "tempo": 120.0
            },
            {
                "pitch": 0,
                "velocity": 0,
                "duration": 0.0182,
                "tempo": 0
            },
            {
                "pitch": 68,
                "velocity": 12,
                "duration": 0.7955,
                "tempo": 120.0
            },
            {
                "pitch": 0,
                "velocity": 0,
                "duration": 0.0159,
                "tempo": 0
            },
            {
                "pitch": 72,
                "velocity": 12,
                "duration": 0.7864,
                "tempo": 120.0
            },
            {
                "pitch": 0,
                "velocity": 0,
                "duration": 0.0182,
                "tempo": 0
            },
            {
                "pitch": 75,
                "velocity": 12,
                "duration": 0.7864,
                "tempo": 120.0
            },
            {
                "pitch": 0,
                "velocity": 0,
                "duration": 0.0182,
                "tempo": 0
            },
            {
                "pitch": 68,
                "velocity": 12,
                "duration": 0.8205,
                "tempo": 120.0
            },
            {
                "pitch": 0,
                "velocity": 0,
                "duration": 0.0182,
                "tempo": 0
            },
            {
                "pitch": 69,
                "velocity": 12,
                "duration": 0.25,
                "tempo": 120.0
            },
            {
                "pitch": 0,
                "velocity": 0,
                "duration": 0.0182,
                "tempo": 0
            },
            {
                "pitch": 69,
                "velocity": 12,
                "duration": 0.25,
                "tempo": 120.0
            },
            {
                "pitch": 0,
                "velocity": 0,
                "duration": 0.0182,
                "tempo": 0
            },
            {
                "pitch": 69,
                "velocity": 12,
                "duration": 0.25,
                "tempo": 120.0
            },
            {
                "pitch": 0,
                "velocity": 0,
                "duration": 0.0182,
                "tempo": 0
            },
            {
                "pitch": 72,
                "velocity": 12,
                "duration": 0.25,
                "tempo": 120.0
            },
            {
                "pitch": 0,
                "velocity": 0,
                "duration": 0.0182,
                "tempo": 0
            },
            {
                "pitch": 72,
                "velocity": 12,
                "duration": 0.25,
                "tempo": 120.0
            },
            {
                "pitch": 0,
                "velocity": 0,
                "duration": 0.0182,
                "tempo": 0
            },
            {
                "pitch": 72,
                "velocity": 12,
                "duration": 0.25,
                "tempo": 120.0
            },
            {
                "pitch": 0,
                "velocity": 0,
                "duration": 0.0182,
                "tempo": 0
            },
            {
                "pitch": 76,
                "velocity": 12,
                "duration": 0.2477,
                "tempo": 120.0
            },
            {
                "pitch": 0,
                "velocity": 0,
                "duration": 0.0182,
                "tempo": 0
            },
            {
                "pitch": 75,
                "velocity": 12,
                "duration": 0.25,
                "tempo": 120.0
            },
            {
                "pitch": 0,
                "velocity": 0,
                "duration": 0.0159,
                "tempo": 0
            },
            {
                "pitch": 74,
                "velocity": 12,
                "duration": 0.2523,
                "tempo": 120.0
            },
            {
                "pitch": 0,
                "velocity": 0,
                "duration": 0.0182,
                "tempo": 0
            },
            {
                "pitch": 73,
                "velocity": 12,
                "duration": 0.2568,
                "tempo": 120.0
            },
            {
                "pitch": 0,
                "velocity": 0,
                "duration": 0.0159,
                "tempo": 0
            },
            {
                "pitch": 72,
                "velocity": 12,
                "duration": 0.2477,
                "tempo": 120.0
            },
            {
                "pitch": 0,
                "velocity": 0,
                "duration": 0.0159,
                "tempo": 0
            },
            {
                "pitch": 70,
                "velocity": 12,
                "duration": 0.2409,
                "tempo": 120.0
            },
            {
                "pitch": 0,
                "velocity": 0,
                "duration": 0.0182,
                "tempo": 0
            },
            {
                "pitch": 71,
                "velocity": 12,
                "duration": 0.2955,
                "tempo": 120.0
            },
            {
                "pitch": 0,
                "velocity": 0,
                "duration": 0.0182,
                "tempo": 0
            },
            {
                "pitch": 66,
                "velocity": 12,
                "duration": 0.3023,
                "tempo": 120.0
            },
            {
                "pitch": 0,
                "velocity": 0,
                "duration": 0.0159,
                "tempo": 0
            },
            {
                "pitch": 69,
                "velocity": 12,
                "duration": 0.1795,
                "tempo": 120.0
            },
            {
                "pitch": 0,
                "velocity": 0,
                "duration": 0.0159,
                "tempo": 0
            },
            {
                "pitch": 67,
                "velocity": 12,
                "duration": 0.3045,
                "tempo": 120.0
            },
            {
                "pitch": 0,
                "velocity": 0,
                "duration": 0.0182,
                "tempo": 0
            },
            {
                "pitch": 66,
                "velocity": 12,
                "duration": 0.2886,
                "tempo": 120.0
            },
            {
                "pitch": 0,
                "velocity": 0,
                "duration": 0.0182,
                "tempo": 0
            },
            {
                "pitch": 64,
                "velocity": 12,
                "duration": 0.1795,
                "tempo": 120.0
            },
            {
                "pitch": 0,
                "velocity": 0,
                "duration": 0.0159,
                "tempo": 0
            },
            {
                "pitch": 71,
                "velocity": 12,
                "duration": 0.2841,
                "tempo": 120.0
            },
            {
                "pitch": 0,
                "velocity": 0,
                "duration": 0.0182,
                "tempo": 0
            },
            {
                "pitch": 66,
                "velocity": 12,
                "duration": 0.2841,
                "tempo": 120.0
            },
            {
                "pitch": 0,
                "velocity": 0,
                "duration": 0.0159,
                "tempo": 0
            },
            {
                "pitch": 69,
                "velocity": 12,
                "duration": 0.1841,
                "tempo": 120.0
            },
            {
                "pitch": 0,
                "velocity": 0,
                "duration": 0.0182,
                "tempo": 0
            },
            {
                "pitch": 67,
                "velocity": 12,
                "duration": 0.2909,
                "tempo": 120.0
            },
            {
                "pitch": 0,
                "velocity": 0,
                "duration": 0.0159,
                "tempo": 0
            },
            {
                "pitch": 66,
                "velocity": 12,
                "duration": 0.2841,
                "tempo": 120.0
            },
            {
                "pitch": 0,
                "velocity": 0,
                "duration": 0.0159,
                "tempo": 0
            },
            {
                "pitch": 64,
                "velocity": 12,
                "duration": 0.1795,
                "tempo": 120.0
            },
            {
                "pitch": 0,
                "velocity": 0,
                "duration": 0.0182,
                "tempo": 0
            },
            {
                "pitch": 71,
                "velocity": 12,
                "duration": 0.2886,
                "tempo": 120.0
            },
            {
                "pitch": 0,
                "velocity": 0,
                "duration": 0.0182,
                "tempo": 0
            },
            {
                "pitch": 66,
                "velocity": 12,
                "duration": 0.2864,
                "tempo": 120.0
            },
            {
                "pitch": 0,
                "velocity": 0,
                "duration": 0.0159,
                "tempo": 0
            },
            {
                "pitch": 69,
                "velocity": 12,
                "duration": 0.1841,
                "tempo": 120.0
            },
            {
                "pitch": 0,
                "velocity": 0,
                "duration": 0.0182,
                "tempo": 0
            },
            {
                "pitch": 67,
                "velocity": 12,
                "duration": 0.2841,
                "tempo": 120.0
            },
            {
                "pitch": 0,
                "velocity": 0,
                "duration": 0.0182,
                "tempo": 0
            },
            {
                "pitch": 66,
                "velocity": 12,
                "duration": 0.2841,
                "tempo": 120.0
            },
            {
                "pitch": 0,
                "velocity": 0,
                "duration": 0.0159,
                "tempo": 0
            },
            {
                "pitch": 64,
                "velocity": 12,
                "duration": 0.2,
                "tempo": 120.0
            },
            {
                "pitch": 0,
                "velocity": 0,
                "duration": 0.0182,
                "tempo": 0
            },
            {
                "pitch": 71,
                "velocity": 12,
                "duration": 0.2909,
                "tempo": 120.0
            },
            {
                "pitch": 0,
                "velocity": 0,
                "duration": 0.0159,
                "tempo": 0
            },
            {
                "pitch": 66,
                "velocity": 12,
                "duration": 0.2864,
                "tempo": 120.0
            },
            {
                "pitch": 0,
                "velocity": 0,
                "duration": 0.0159,
                "tempo": 0
            },
            {
                "pitch": 69,
                "velocity": 12,
                "duration": 0.1841,
                "tempo": 120.0
            },
            {
                "pitch": 0,
                "velocity": 0,
                "duration": 0.0182,
                "tempo": 0
            },
            {
                "pitch": 67,
                "velocity": 12,
                "duration": 0.2909,
                "tempo": 120.0
            },
            {
                "pitch": 0,
                "velocity": 0,
                "duration": 0.0159,
                "tempo": 0
            },
            {
                "pitch": 66,
                "velocity": 12,
                "duration": 0.2841,
                "tempo": 120.0
            },
            {
                "pitch": 0,
                "velocity": 0,
                "duration": 0.0159,
                "tempo": 0
            },
            {
                "pitch": 64,
                "velocity": 12,
                "duration": 0.1795,
                "tempo": 120.0
            },
            {
                "pitch": 0,
                "velocity": 0,
                "duration": 0.0182,
                "tempo": 0
            },
            {
                "pitch": 69,
                "velocity": 12,
                "duration": 0.2886,
                "tempo": 120.0
            },
            {
                "pitch": 0,
                "velocity": 0,
                "duration": 0.0182,
                "tempo": 0
            },
            {
                "pitch": 64,
                "velocity": 12,
                "duration": 0.2818,
                "tempo": 120.0
            },
            {
                "pitch": 0,
                "velocity": 0,
                "duration": 0.0182,
                "tempo": 0
            },
            {
                "pitch": 67,
                "velocity": 12,
                "duration": 0.1795,
                "tempo": 120.0
            },
            {
                "pitch": 0,
                "velocity": 0,
                "duration": 0.0159,
                "tempo": 0
            },
            {
                "pitch": 66,
                "velocity": 12,
                "duration": 0.2977,
                "tempo": 120.0
            },
            {
                "pitch": 0,
                "velocity": 0,
                "duration": 0.0182,
                "tempo": 0
            },
            {
                "pitch": 64,
                "velocity": 12,
                "duration": 0.2864,
                "tempo": 120.0
            },
            {
                "pitch": 0,
                "velocity": 0,
                "duration": 0.0159,
                "tempo": 0
            },
            {
                "pitch": 62,
                "velocity": 12,
                "duration": 0.1795,
                "tempo": 120.0
            },
            {
                "pitch": 0,
                "velocity": 0,
                "duration": 0.0182,
                "tempo": 0
            },
            {
                "pitch": 69,
                "velocity": 12,
                "duration": 0.2818,
                "tempo": 120.0
            },
            {
                "pitch": 0,
                "velocity": 0,
                "duration": 0.0182,
                "tempo": 0
            },
            {
                "pitch": 64,
                "velocity": 12,
                "duration": 0.2818,
                "tempo": 120.0
            },
            {
                "pitch": 0,
                "velocity": 0,
                "duration": 0.0182,
                "tempo": 0
            },
            {
                "pitch": 67,
                "velocity": 12,
                "duration": 0.1818,
                "tempo": 120.0
            },
            {
                "pitch": 0,
                "velocity": 0,
                "duration": 0.0182,
                "tempo": 0
            },
            {
                "pitch": 66,
                "velocity": 12,
                "duration": 0.3068,
                "tempo": 120.0
            },
            {
                "pitch": 0,
                "velocity": 0,
                "duration": 0.0182,
                "tempo": 0
            },
            {
                "pitch": 64,
                "velocity": 12,
                "duration": 0.2864,
                "tempo": 120.0
            },
            {
                "pitch": 0,
                "velocity": 0,
                "duration": 0.0182,
                "tempo": 0
            },
            {
                "pitch": 62,
                "velocity": 12,
                "duration": 0.1818,
                "tempo": 120.0
            },
            {
                "pitch": 0,
                "velocity": 0,
                "duration": 0.0182,
                "tempo": 0
            },
            {
                "pitch": 71,
                "velocity": 12,
                "duration": 0.2909,
                "tempo": 120.0
            },
            {
                "pitch": 0,
                "velocity": 0,
                "duration": 0.0159,
                "tempo": 0
            },
            {
                "pitch": 66,
                "velocity": 12,
                "duration": 0.2864,
                "tempo": 120.0
            },
            {
                "pitch": 0,
                "velocity": 0,
                "duration": 0.0182,
                "tempo": 0
            },
            {
                "pitch": 69,
                "velocity": 12,
                "duration": 0.1818,
                "tempo": 120.0
            },
            {
                "pitch": 0,
                "velocity": 0,
                "duration": 0.0182,
                "tempo": 0
            },
            {
                "pitch": 67,
                "velocity": 12,
                "duration": 0.2841,
                "tempo": 120.0
            },
            {
                "pitch": 0,
                "velocity": 0,
                "duration": 0.0182,
                "tempo": 0
            },
            {
                "pitch": 66,
                "velocity": 12,
                "duration": 0.2841,
                "tempo": 120.0
            },
            {
                "pitch": 0,
                "velocity": 0,
                "duration": 0.0182,
                "tempo": 0
            },
            {
                "pitch": 64,
                "velocity": 12,
                "duration": 0.1818,
                "tempo": 120.0
            },
            {
                "pitch": 0,
                "velocity": 0,
                "duration": 0.0182,
                "tempo": 0
            },
            {
                "pitch": 71,
                "velocity": 12,
                "duration": 0.2818,
                "tempo": 120.0
            },
            {
                "pitch": 0,
                "velocity": 0,
                "duration": 0.0182,
                "tempo": 0
            },
            {
                "pitch": 73,
                "velocity": 12,
                "duration": 0.2818,
                "tempo": 120.0
            },
            {
                "pitch": 0,
                "velocity": 0,
                "duration": 0.0182,
                "tempo": 0
            },
            {
                "pitch": 74,
                "velocity": 12,
                "duration": 0.1841,
                "tempo": 120.0
            },
            {
                "pitch": 0,
                "velocity": 0,
                "duration": 0.0159,
                "tempo": 0
            },
            {
                "pitch": 76,
                "velocity": 12,
                "duration": 0.2841,
                "tempo": 120.0
            },
            {
                "pitch": 0,
                "velocity": 0,
                "duration": 0.0159,
                "tempo": 0
            },
            {
                "pitch": 74,
                "velocity": 12,
                "duration": 0.2841,
                "tempo": 120.0
            },
            {
                "pitch": 0,
                "velocity": 0,
                "duration": 0.0182,
                "tempo": 0
            },
            {
                "pitch": 73,
                "velocity": 12,
                "duration": 0.1841,
                "tempo": 120.0
            },
            {
                "pitch": 0,
                "velocity": 0,
                "duration": 0.0182,
                "tempo": 0
            },
            {
                "pitch": 69,
                "velocity": 12,
                "duration": 0.2818,
                "tempo": 120.0
            },
            {
                "pitch": 0,
                "velocity": 0,
                "duration": 0.0182,
                "tempo": 0
            },
            {
                "pitch": 64,
                "velocity": 12,
                "duration": 0.3091,
                "tempo": 120.0
            },
            {
                "pitch": 0,
                "velocity": 0,
                "duration": 0.0182,
                "tempo": 0
            },
            {
                "pitch": 67,
                "velocity": 12,
                "duration": 0.1932,
                "tempo": 120.0
            },
            {
                "pitch": 0,
                "velocity": 0,
                "duration": 0.0182,
                "tempo": 0
            },
            {
                "pitch": 66,
                "velocity": 12,
                "duration": 0.2909,
                "tempo": 120.0
            },
            {
                "pitch": 0,
                "velocity": 0,
                "duration": 0.0182,
                "tempo": 0
            },
            {
                "pitch": 64,
                "velocity": 12,
                "duration": 0.2841,
                "tempo": 120.0
            },
            {
                "pitch": 0,
                "velocity": 0,
                "duration": 0.0159,
                "tempo": 0
            },
            {
                "pitch": 62,
                "velocity": 12,
                "duration": 0.1795,
                "tempo": 120.0
            },
            {
                "pitch": 0,
                "velocity": 0,
                "duration": 0.0182,
                "tempo": 0
            },
            {
                "pitch": 69,
                "velocity": 12,
                "duration": 0.2818,
                "tempo": 120.0
            },
            {
                "pitch": 0,
                "velocity": 0,
                "duration": 0.0182,
                "tempo": 0
            },
            {
                "pitch": 64,
                "velocity": 12,
                "duration": 0.2818,
                "tempo": 120.0
            },
            {
                "pitch": 0,
                "velocity": 0,
                "duration": 0.0182,
                "tempo": 0
            },
            {
                "pitch": 67,
                "velocity": 12,
                "duration": 0.1818,
                "tempo": 120.0
            },
            {
                "pitch": 0,
                "velocity": 0,
                "duration": 0.0182,
                "tempo": 0
            },
            {
                "pitch": 66,
                "velocity": 12,
                "duration": 0.2909,
                "tempo": 120.0
            },
            {
                "pitch": 0,
                "velocity": 0,
                "duration": 0.0159,
                "tempo": 0
            },
            {
                "pitch": 67,
                "velocity": 12,
                "duration": 0.2841,
                "tempo": 120.0
            },
            {
                "pitch": 0,
                "velocity": 0,
                "duration": 0.0159,
                "tempo": 0
            },
            {
                "pitch": 69,
                "velocity": 12,
                "duration": 0.1795,
                "tempo": 120.0
            },
            {
                "pitch": 0,
                "velocity": 0,
                "duration": 0.0182,
                "tempo": 0
            },
            {
                "pitch": 71,
                "velocity": 12,
                "duration": 0.1159,
                "tempo": 120.0
            },
            {
                "pitch": 0,
                "velocity": 0,
                "duration": 0.0159,
                "tempo": 0
            },
            {
                "pitch": 71,
                "velocity": 12,
                "duration": 0.1159,
                "tempo": 120.0
            },
            {
                "pitch": 0,
                "velocity": 0,
                "duration": 0.0182,
                "tempo": 0
            },
            {
                "pitch": 71,
                "velocity": 12,
                "duration": 0.1159,
                "tempo": 120.0
            },
            {
                "pitch": 0,
                "velocity": 0,
                "duration": 0.0182,
                "tempo": 0
            },
            {
                "pitch": 71,
                "velocity": 12,
                "duration": 0.1182,
                "tempo": 120.0
            },
            {
                "pitch": 0,
                "velocity": 0,
                "duration": 0.0182,
                "tempo": 0
            },
            {
                "pitch": 71,
                "velocity": 12,
                "duration": 0.1205,
                "tempo": 120.0
            },
            {
                "pitch": 0,
                "velocity": 0,
                "duration": 0.0159,
                "tempo": 0
            },
            {
                "pitch": 71,
                "velocity": 12,
                "duration": 0.1205,
                "tempo": 120.0
            },
            {
                "pitch": 0,
                "velocity": 0,
                "duration": 0.0182,
                "tempo": 0
            },
            {
                "pitch": 68,
                "velocity": 12,
                "duration": 0.1136,
                "tempo": 120.0
            },
            {
                "pitch": 0,
                "velocity": 0,
                "duration": 0.0159,
                "tempo": 0
            },
            {
                "pitch": 65,
                "velocity": 12,
                "duration": 0.1159,
                "tempo": 120.0
            },
            {
                "pitch": 0,
                "velocity": 0,
                "duration": 0.0159,
                "tempo": 0
            },
            {
                "pitch": 62,
                "velocity": 12,
                "duration": 0.1136,
                "tempo": 120.0
            },
            {
                "pitch": 0,
                "velocity": 0,
                "duration": 0.0182,
                "tempo": 0
            },
            {
                "pitch": 59,
                "velocity": 12,
                "duration": 0.1182,
                "tempo": 120.0
            },
            {
                "pitch": 0,
                "velocity": 0,
                "duration": 0.0182,
                "tempo": 0
            },
            {
                "pitch": 56,
                "velocity": 12,
                "duration": 0.1364,
                "tempo": 120.0
            },
            {
                "pitch": 0,
                "velocity": 0,
                "duration": 0.0182,
                "tempo": 0
            },
            {
                "pitch": 53,
                "velocity": 12,
                "duration": 0.1182,
                "tempo": 120.0
            }
        ],
        "Lead 2 (sawtooth)": [
            {
                "pitch": 0,
                "velocity": 0,
                "duration": 1.6159,
                "tempo": 0
            },
            {
                "pitch": 62,
                "velocity": 7,
                "duration": 0.4136,
                "tempo": 120.0
            },
            {
                "pitch": 0,
                "velocity": 0,
                "duration": 0.0341,
                "tempo": 0
            },
            {
                "pitch": 61,
                "velocity": 7,
                "duration": 0.0159,
                "tempo": 120.0
            },
            {
                "pitch": 0,
                "velocity": 0,
                "duration": 0.0341,
                "tempo": 0
            },
            {
                "pitch": 60,
                "velocity": 7,
                "duration": 0.0159,
                "tempo": 120.0
            },
            {
                "pitch": 0,
                "velocity": 0,
                "duration": 0.05,
                "tempo": 0
            },
            {
                "pitch": 59,
                "velocity": 7,
                "duration": 0.0182,
                "tempo": 120.0
            },
            {
                "pitch": 0,
                "velocity": 0,
                "duration": 0.0341,
                "tempo": 0
            },
            {
                "pitch": 58,
                "velocity": 7,
                "duration": 0.0159,
                "tempo": 120.0
            },
            {
                "pitch": 0,
                "velocity": 0,
                "duration": 0.0318,
                "tempo": 0
            },
            {
                "pitch": 57,
                "velocity": 7,
                "duration": 0.0182,
                "tempo": 120.0
            },
            {
                "pitch": 0,
                "velocity": 0,
                "duration": 0.0341,
                "tempo": 0
            },
            {
                "pitch": 55,
                "velocity": 7,
                "duration": 0.0159,
                "tempo": 120.0
            },
            {
                "pitch": 0,
                "velocity": 0,
                "duration": 0.0318,
                "tempo": 0
            },
            {
                "pitch": 55,
                "velocity": 7,
                "duration": 0.0182,
                "tempo": 120.0
            },
            {
                "pitch": 0,
                "velocity": 0,
                "duration": 0.0341,
                "tempo": 0
            },
            {
                "pitch": 55,
                "velocity": 8,
                "duration": 0.1682,
                "tempo": 120.0
            },
            {
                "pitch": 0,
                "velocity": 0,
                "duration": 0.0364,
                "tempo": 0
            },
            {
                "pitch": 67,
                "velocity": 8,
                "duration": 0.0705,
                "tempo": 120.0
            },
            {
                "pitch": 0,
                "velocity": 0,
                "duration": 0.0341,
                "tempo": 0
            },
            {
                "pitch": 67,
                "velocity": 8,
                "duration": 0.0705,
                "tempo": 120.0
            },
            {
                "pitch": 0,
                "velocity": 0,
                "duration": 0.2432,
                "tempo": 0
            },
            {
                "pitch": 55,
                "velocity": 7,
                "duration": 0.0682,
                "tempo": 120.0
            },
            {
                "pitch": 0,
                "velocity": 0,
                "duration": 0.1341,
                "tempo": 0
            },
            {
                "pitch": 58,
                "velocity": 7,
                "duration": 0.2659,
                "tempo": 120.0
            },
            {
                "pitch": 0,
                "velocity": 0,
                "duration": 0.0341,
                "tempo": 0
            },
            {
                "pitch": 57,
                "velocity": 7,
                "duration": 0.0659,
                "tempo": 120.0
            },
            {
                "pitch": 0,
                "velocity": 0,
                "duration": 0.2364,
                "tempo": 0
            },
            {
                "pitch": 55,
                "velocity": 8,
                "duration": 0.0659,
                "tempo": 120.0
            },
            {
                "pitch": 0,
                "velocity": 0,
                "duration": 0.0341,
                "tempo": 0
            },
            {
                "pitch": 55,
                "velocity": 8,
                "duration": 0.0659,
                "tempo": 120.0
            },
            {
                "pitch": 0,
                "velocity": 0,
                "duration": 0.1341,
                "tempo": 0
            },
            {
                "pitch": 43,
                "velocity": 8,
                "duration": 0.0636,
                "tempo": 120.0
            },
            {
                "pitch": 0,
                "velocity": 0,
                "duration": 0.0341,
                "tempo": 0
            },
            {
                "pitch": 53,
                "velocity": 8,
                "duration": 0.0636,
                "tempo": 120.0
            },
            {
                "pitch": 0,
                "velocity": 0,
                "duration": 0.0341,
                "tempo": 0
            },
            {
                "pitch": 55,
                "velocity": 8,
                "duration": 0.0659,
                "tempo": 120.0
            },
            {
                "pitch": 0,
                "velocity": 0,
                "duration": 0.0318,
                "tempo": 0
            },
            {
                "pitch": 58,
                "velocity": 7,
                "duration": 0.0659,
                "tempo": 120.0
            },
            {
                "pitch": 0,
                "velocity": 0,
                "duration": 0.0318,
                "tempo": 0
            },
            {
                "pitch": 59,
                "velocity": 7,
                "duration": 0.0705,
                "tempo": 120.0
            },
            {
                "pitch": 0,
                "velocity": 0,
                "duration": 0.0364,
                "tempo": 0
            },
            {
                "pitch": 60,
                "velocity": 7,
                "duration": 0.0682,
                "tempo": 120.0
            },
            {
                "pitch": 0,
                "velocity": 0,
                "duration": 0.0364,
                "tempo": 0
            },
            {
                "pitch": 61,
                "velocity": 7,
                "duration": 0.0705,
                "tempo": 120.0
            },
            {
                "pitch": 0,
                "velocity": 0,
                "duration": 0.0364,
                "tempo": 0
            },
            {
                "pitch": 62,
                "velocity": 7,
                "duration": 0.4159,
                "tempo": 120.0
            },
            {
                "pitch": 0,
                "velocity": 0,
                "duration": 0.0318,
                "tempo": 0
            },
            {
                "pitch": 61,
                "velocity": 7,
                "duration": 0.0159,
                "tempo": 120.0
            },
            {
                "pitch": 0,
                "velocity": 0,
                "duration": 0.0341,
                "tempo": 0
            },
            {
                "pitch": 60,
                "velocity": 7,
                "duration": 0.0159,
                "tempo": 120.0
            },
            {
                "pitch": 0,
                "velocity": 0,
                "duration": 0.0341,
                "tempo": 0
            },
            {
                "pitch": 59,
                "velocity": 7,
                "duration": 0.0159,
                "tempo": 120.0
            },
            {
                "pitch": 0,
                "velocity": 0,
                "duration": 0.0341,
                "tempo": 0
            },
            {
                "pitch": 58,
                "velocity": 7,
                "duration": 0.0159,
                "tempo": 120.0
            },
            {
                "pitch": 0,
                "velocity": 0,
                "duration": 0.0341,
                "tempo": 0
            },
            {
                "pitch": 57,
                "velocity": 7,
                "duration": 0.0182,
                "tempo": 120.0
            },
            {
                "pitch": 0,
                "velocity": 0,
                "duration": 0.0341,
                "tempo": 0
            },
            {
                "pitch": 55,
                "velocity": 7,
                "duration": 0.0159,
                "tempo": 120.0
            },
            {
                "pitch": 0,
                "velocity": 0,
                "duration": 0.0341,
                "tempo": 0
            },
            {
                "pitch": 55,
                "velocity": 7,
                "duration": 0.0159,
                "tempo": 120.0
            },
            {
                "pitch": 0,
                "velocity": 0,
                "duration": 0.0341,
                "tempo": 0
            },
            {
                "pitch": 55,
                "velocity": 8,
                "duration": 0.1682,
                "tempo": 120.0
            },
            {
                "pitch": 0,
                "velocity": 0,
                "duration": 0.0341,
                "tempo": 0
            },
            {
                "pitch": 67,
                "velocity": 8,
                "duration": 0.0659,
                "tempo": 120.0
            },
            {
                "pitch": 0,
                "velocity": 0,
                "duration": 0.0341,
                "tempo": 0
            },
            {
                "pitch": 67,
                "velocity": 8,
                "duration": 0.0659,
                "tempo": 120.0
            },
            {
                "pitch": 0,
                "velocity": 0,
                "duration": 0.2386,
                "tempo": 0
            },
            {
                "pitch": 55,
                "velocity": 7,
                "duration": 0.0682,
                "tempo": 120.0
            },
            {
                "pitch": 0,
                "velocity": 0,
                "duration": 0.1545,
                "tempo": 0
            },
            {
                "pitch": 58,
                "velocity": 7,
                "duration": 0.2727,
                "tempo": 120.0
            },
            {
                "pitch": 0,
                "velocity": 0,
                "duration": 0.0364,
                "tempo": 0
            },
            {
                "pitch": 57,
                "velocity": 7,
                "duration": 0.0682,
                "tempo": 120.0
            },
            {
                "pitch": 0,
                "velocity": 0,
                "duration": 0.2386,
                "tempo": 0
            },
            {
                "pitch": 55,
                "velocity": 8,
                "duration": 0.0659,
                "tempo": 120.0
            },
            {
                "pitch": 0,
                "velocity": 0,
                "duration": 0.0341,
                "tempo": 0
            },
            {
                "pitch": 55,
                "velocity": 8,
                "duration": 0.0659,
                "tempo": 120.0
            },
            {
                "pitch": 0,
                "velocity": 0,
                "duration": 0.1364,
                "tempo": 0
            },
            {
                "pitch": 43,
                "velocity": 8,
                "duration": 0.0659,
                "tempo": 120.0
            },
            {
                "pitch": 0,
                "velocity": 0,
                "duration": 0.0341,
                "tempo": 0
            },
            {
                "pitch": 53,
                "velocity": 8,
                "duration": 0.0659,
                "tempo": 120.0
            },
            {
                "pitch": 0,
                "velocity": 0,
                "duration": 0.0341,
                "tempo": 0
            },
            {
                "pitch": 55,
                "velocity": 8,
                "duration": 0.0659,
                "tempo": 120.0
            },
            {
                "pitch": 0,
                "velocity": 0,
                "duration": 3.5955,
                "tempo": 0
            },
            {
                "pitch": 62,
                "velocity": 7,
                "duration": 0.4182,
                "tempo": 120.0
            },
            {
                "pitch": 0,
                "velocity": 0,
                "duration": 0.0341,
                "tempo": 0
            },
            {
                "pitch": 61,
                "velocity": 7,
                "duration": 0.0159,
                "tempo": 120.0
            },
            {
                "pitch": 0,
                "velocity": 0,
                "duration": 0.0341,
                "tempo": 0
            },
            {
                "pitch": 60,
                "velocity": 7,
                "duration": 0.0159,
                "tempo": 120.0
            },
            {
                "pitch": 0,
                "velocity": 0,
                "duration": 0.0341,
                "tempo": 0
            },
            {
                "pitch": 59,
                "velocity": 7,
                "duration": 0.0159,
                "tempo": 120.0
            },
            {
                "pitch": 0,
                "velocity": 0,
                "duration": 0.0341,
                "tempo": 0
            },
            {
                "pitch": 58,
                "velocity": 7,
                "duration": 0.0159,
                "tempo": 120.0
            },
            {
                "pitch": 0,
                "velocity": 0,
                "duration": 0.0341,
                "tempo": 0
            },
            {
                "pitch": 57,
                "velocity": 7,
                "duration": 0.0182,
                "tempo": 120.0
            },
            {
                "pitch": 0,
                "velocity": 0,
                "duration": 0.0341,
                "tempo": 0
            },
            {
                "pitch": 55,
                "velocity": 7,
                "duration": 0.0159,
                "tempo": 120.0
            },
            {
                "pitch": 0,
                "velocity": 0,
                "duration": 0.0341,
                "tempo": 0
            },
            {
                "pitch": 55,
                "velocity": 7,
                "duration": 0.0159,
                "tempo": 120.0
            },
            {
                "pitch": 0,
                "velocity": 0,
                "duration": 0.0341,
                "tempo": 0
            },
            {
                "pitch": 55,
                "velocity": 8,
                "duration": 0.1705,
                "tempo": 120.0
            },
            {
                "pitch": 0,
                "velocity": 0,
                "duration": 0.0364,
                "tempo": 0
            },
            {
                "pitch": 67,
                "velocity": 8,
                "duration": 0.0659,
                "tempo": 120.0
            },
            {
                "pitch": 0,
                "velocity": 0,
                "duration": 0.0364,
                "tempo": 0
            },
            {
                "pitch": 67,
                "velocity": 8,
                "duration": 0.0682,
                "tempo": 120.0
            },
            {
                "pitch": 0,
                "velocity": 0,
                "duration": 0.2364,
                "tempo": 0
            },
            {
                "pitch": 55,
                "velocity": 7,
                "duration": 0.0659,
                "tempo": 120.0
            },
            {
                "pitch": 0,
                "velocity": 0,
                "duration": 0.1364,
                "tempo": 0
            },
            {
                "pitch": 58,
                "velocity": 7,
                "duration": 0.2682,
                "tempo": 120.0
            },
            {
                "pitch": 0,
                "velocity": 0,
                "duration": 0.0341,
                "tempo": 0
            },
            {
                "pitch": 57,
                "velocity": 7,
                "duration": 0.0659,
                "tempo": 120.0
            },
            {
                "pitch": 0,
                "velocity": 0,
                "duration": 0.2341,
                "tempo": 0
            },
            {
                "pitch": 55,
                "velocity": 8,
                "duration": 0.0659,
                "tempo": 120.0
            },
            {
                "pitch": 0,
                "velocity": 0,
                "duration": 0.0341,
                "tempo": 0
            },
            {
                "pitch": 55,
                "velocity": 8,
                "duration": 0.0659,
                "tempo": 120.0
            },
            {
                "pitch": 0,
                "velocity": 0,
                "duration": 0.1318,
                "tempo": 0
            },
            {
                "pitch": 43,
                "velocity": 8,
                "duration": 0.0659,
                "tempo": 120.0
            },
            {
                "pitch": 0,
                "velocity": 0,
                "duration": 0.0341,
                "tempo": 0
            },
            {
                "pitch": 53,
                "velocity": 8,
                "duration": 0.0636,
                "tempo": 120.0
            },
            {
                "pitch": 0,
                "velocity": 0,
                "duration": 0.0341,
                "tempo": 0
            },
            {
                "pitch": 55,
                "velocity": 8,
                "duration": 0.0636,
                "tempo": 120.0
            },
            {
                "pitch": 0,
                "velocity": 0,
                "duration": 0.0341,
                "tempo": 0
            },
            {
                "pitch": 58,
                "velocity": 7,
                "duration": 0.0659,
                "tempo": 120.0
            },
            {
                "pitch": 0,
                "velocity": 0,
                "duration": 0.0341,
                "tempo": 0
            },
            {
                "pitch": 59,
                "velocity": 7,
                "duration": 0.0682,
                "tempo": 120.0
            },
            {
                "pitch": 0,
                "velocity": 0,
                "duration": 0.0341,
                "tempo": 0
            },
            {
                "pitch": 60,
                "velocity": 7,
                "duration": 0.0659,
                "tempo": 120.0
            },
            {
                "pitch": 0,
                "velocity": 0,
                "duration": 0.0341,
                "tempo": 0
            },
            {
                "pitch": 61,
                "velocity": 7,
                "duration": 0.0659,
                "tempo": 120.0
            },
            {
                "pitch": 0,
                "velocity": 0,
                "duration": 0.0364,
                "tempo": 0
            },
            {
                "pitch": 62,
                "velocity": 7,
                "duration": 0.4273,
                "tempo": 120.0
            },
            {
                "pitch": 0,
                "velocity": 0,
                "duration": 0.0318,
                "tempo": 0
            },
            {
                "pitch": 61,
                "velocity": 7,
                "duration": 0.0182,
                "tempo": 120.0
            },
            {
                "pitch": 0,
                "velocity": 0,
                "duration": 0.05,
                "tempo": 0
            },
            {
                "pitch": 60,
                "velocity": 7,
                "duration": 0.0159,
                "tempo": 120.0
            },
            {
                "pitch": 0,
                "velocity": 0,
                "duration": 0.0341,
                "tempo": 0
            },
            {
                "pitch": 59,
                "velocity": 7,
                "duration": 0.0159,
                "tempo": 120.0
            },
            {
                "pitch": 0,
                "velocity": 0,
                "duration": 0.0364,
                "tempo": 0
            },
            {
                "pitch": 58,
                "velocity": 7,
                "duration": 0.0159,
                "tempo": 120.0
            },
            {
                "pitch": 0,
                "velocity": 0,
                "duration": 0.0341,
                "tempo": 0
            },
            {
                "pitch": 57,
                "velocity": 7,
                "duration": 0.0159,
                "tempo": 120.0
            },
            {
                "pitch": 0,
                "velocity": 0,
                "duration": 0.0341,
                "tempo": 0
            },
            {
                "pitch": 55,
                "velocity": 7,
                "duration": 0.0159,
                "tempo": 120.0
            },
            {
                "pitch": 0,
                "velocity": 0,
                "duration": 0.0341,
                "tempo": 0
            },
            {
                "pitch": 55,
                "velocity": 7,
                "duration": 0.0159,
                "tempo": 120.0
            },
            {
                "pitch": 0,
                "velocity": 0,
                "duration": 0.0341,
                "tempo": 0
            },
            {
                "pitch": 55,
                "velocity": 8,
                "duration": 0.1705,
                "tempo": 120.0
            },
            {
                "pitch": 0,
                "velocity": 0,
                "duration": 0.0364,
                "tempo": 0
            },
            {
                "pitch": 67,
                "velocity": 8,
                "duration": 0.0682,
                "tempo": 120.0
            },
            {
                "pitch": 0,
                "velocity": 0,
                "duration": 0.0341,
                "tempo": 0
            },
            {
                "pitch": 67,
                "velocity": 8,
                "duration": 0.0682,
                "tempo": 120.0
            },
            {
                "pitch": 0,
                "velocity": 0,
                "duration": 0.2364,
                "tempo": 0
            },
            {
                "pitch": 55,
                "velocity": 7,
                "duration": 0.0659,
                "tempo": 120.0
            },
            {
                "pitch": 0,
                "velocity": 0,
                "duration": 0.1364,
                "tempo": 0
            },
            {
                "pitch": 58,
                "velocity": 7,
                "duration": 0.2727,
                "tempo": 120.0
            },
            {
                "pitch": 0,
                "velocity": 0,
                "duration": 0.0341,
                "tempo": 0
            },
            {
                "pitch": 57,
                "velocity": 7,
                "duration": 0.0682,
                "tempo": 120.0
            },
            {
                "pitch": 0,
                "velocity": 0,
                "duration": 0.2318,
                "tempo": 0
            },
            {
                "pitch": 55,
                "velocity": 8,
                "duration": 0.0659,
                "tempo": 120.0
            },
            {
                "pitch": 0,
                "velocity": 0,
                "duration": 0.0318,
                "tempo": 0
            },
            {
                "pitch": 55,
                "velocity": 8,
                "duration": 0.0659,
                "tempo": 120.0
            },
            {
                "pitch": 0,
                "velocity": 0,
                "duration": 0.1364,
                "tempo": 0
            },
            {
                "pitch": 43,
                "velocity": 8,
                "duration": 0.0659,
                "tempo": 120.0
            },
            {
                "pitch": 0,
                "velocity": 0,
                "duration": 0.0364,
                "tempo": 0
            },
            {
                "pitch": 53,
                "velocity": 8,
                "duration": 0.0682,
                "tempo": 120.0
            },
            {
                "pitch": 0,
                "velocity": 0,
                "duration": 0.0341,
                "tempo": 0
            },
            {
                "pitch": 55,
                "velocity": 8,
                "duration": 0.0682,
                "tempo": 120.0
            },
            {
                "pitch": 0,
                "velocity": 0,
                "duration": 0.0341,
                "tempo": 0
            },
            {
                "pitch": 58,
                "velocity": 7,
                "duration": 0.0659,
                "tempo": 120.0
            },
            {
                "pitch": 0,
                "velocity": 0,
                "duration": 0.0318,
                "tempo": 0
            },
            {
                "pitch": 59,
                "velocity": 7,
                "duration": 0.0659,
                "tempo": 120.0
            },
            {
                "pitch": 0,
                "velocity": 0,
                "duration": 0.0341,
                "tempo": 0
            },
            {
                "pitch": 60,
                "velocity": 7,
                "duration": 0.0636,
                "tempo": 120.0
            },
            {
                "pitch": 0,
                "velocity": 0,
                "duration": 0.0341,
                "tempo": 0
            },
            {
                "pitch": 61,
                "velocity": 7,
                "duration": 0.0636,
                "tempo": 120.0
            },
            {
                "pitch": 0,
                "velocity": 0,
                "duration": 0.0341,
                "tempo": 0
            },
            {
                "pitch": 62,
                "velocity": 7,
                "duration": 0.4273,
                "tempo": 120.0
            },
            {
                "pitch": 0,
                "velocity": 0,
                "duration": 0.0341,
                "tempo": 0
            },
            {
                "pitch": 61,
                "velocity": 7,
                "duration": 0.0159,
                "tempo": 120.0
            },
            {
                "pitch": 0,
                "velocity": 0,
                "duration": 0.0341,
                "tempo": 0
            },
            {
                "pitch": 60,
                "velocity": 7,
                "duration": 0.0159,
                "tempo": 120.0
            },
            {
                "pitch": 0,
                "velocity": 0,
                "duration": 0.0341,
                "tempo": 0
            },
            {
                "pitch": 59,
                "velocity": 7,
                "duration": 0.0182,
                "tempo": 120.0
            },
            {
                "pitch": 0,
                "velocity": 0,
                "duration": 0.0341,
                "tempo": 0
            },
            {
                "pitch": 58,
                "velocity": 7,
                "duration": 0.0159,
                "tempo": 120.0
            },
            {
                "pitch": 0,
                "velocity": 0,
                "duration": 0.0341,
                "tempo": 0
            },
            {
                "pitch": 57,
                "velocity": 7,
                "duration": 0.0159,
                "tempo": 120.0
            },
            {
                "pitch": 0,
                "velocity": 0,
                "duration": 0.0341,
                "tempo": 0
            },
            {
                "pitch": 55,
                "velocity": 7,
                "duration": 0.0159,
                "tempo": 120.0
            },
            {
                "pitch": 0,
                "velocity": 0,
                "duration": 0.0341,
                "tempo": 0
            },
            {
                "pitch": 55,
                "velocity": 7,
                "duration": 0.0159,
                "tempo": 120.0
            },
            {
                "pitch": 0,
                "velocity": 0,
                "duration": 0.0341,
                "tempo": 0
            },
            {
                "pitch": 55,
                "velocity": 8,
                "duration": 0.1682,
                "tempo": 120.0
            },
            {
                "pitch": 0,
                "velocity": 0,
                "duration": 0.0341,
                "tempo": 0
            },
            {
                "pitch": 67,
                "velocity": 8,
                "duration": 0.0659,
                "tempo": 120.0
            },
            {
                "pitch": 0,
                "velocity": 0,
                "duration": 0.0318,
                "tempo": 0
            },
            {
                "pitch": 67,
                "velocity": 8,
                "duration": 0.0682,
                "tempo": 120.0
            },
            {
                "pitch": 0,
                "velocity": 0,
                "duration": 0.2341,
                "tempo": 0
            },
            {
                "pitch": 55,
                "velocity": 7,
                "duration": 0.0659,
                "tempo": 120.0
            },
            {
                "pitch": 0,
                "velocity": 0,
                "duration": 0.1523,
                "tempo": 0
            },
            {
                "pitch": 58,
                "velocity": 7,
                "duration": 0.2795,
                "tempo": 120.0
            },
            {
                "pitch": 0,
                "velocity": 0,
                "duration": 0.0364,
                "tempo": 0
            },
            {
                "pitch": 57,
                "velocity": 7,
                "duration": 0.0682,
                "tempo": 120.0
            },
            {
                "pitch": 0,
                "velocity": 0,
                "duration": 0.2386,
                "tempo": 0
            },
            {
                "pitch": 55,
                "velocity": 8,
                "duration": 0.0659,
                "tempo": 120.0
            },
            {
                "pitch": 0,
                "velocity": 0,
                "duration": 0.0341,
                "tempo": 0
            },
            {
                "pitch": 55,
                "velocity": 8,
                "duration": 0.0659,
                "tempo": 120.0
            },
            {
                "pitch": 0,
                "velocity": 0,
                "duration": 0.1341,
                "tempo": 0
            },
            {
                "pitch": 43,
                "velocity": 8,
                "duration": 0.0659,
                "tempo": 120.0
            },
            {
                "pitch": 0,
                "velocity": 0,
                "duration": 0.0341,
                "tempo": 0
            },
            {
                "pitch": 53,
                "velocity": 8,
                "duration": 0.0682,
                "tempo": 120.0
            },
            {
                "pitch": 0,
                "velocity": 0,
                "duration": 0.0318,
                "tempo": 0
            },
            {
                "pitch": 55,
                "velocity": 8,
                "duration": 0.0682,
                "tempo": 120.0
            },
            {
                "pitch": 0,
                "velocity": 0,
                "duration": 23.1205,
                "tempo": 0
            },
            {
                "pitch": 71,
                "velocity": 7,
                "duration": 0.0977,
                "tempo": 120.0
            },
            {
                "pitch": 0,
                "velocity": 0,
                "duration": 0.0341,
                "tempo": 0
            },
            {
                "pitch": 71,
                "velocity": 7,
                "duration": 0.1,
                "tempo": 120.0
            },
            {
                "pitch": 0,
                "velocity": 0,
                "duration": 0.0341,
                "tempo": 0
            },
            {
                "pitch": 71,
                "velocity": 7,
                "duration": 0.1,
                "tempo": 120.0
            },
            {
                "pitch": 0,
                "velocity": 0,
                "duration": 0.0341,
                "tempo": 0
            },
            {
                "pitch": 71,
                "velocity": 7,
                "duration": 0.1,
                "tempo": 120.0
            },
            {
                "pitch": 0,
                "velocity": 0,
                "duration": 0.0364,
                "tempo": 0
            },
            {
                "pitch": 71,
                "velocity": 7,
                "duration": 0.1023,
                "tempo": 120.0
            },
            {
                "pitch": 0,
                "velocity": 0,
                "duration": 0.0341,
                "tempo": 0
            },
            {
                "pitch": 71,
                "velocity": 7,
                "duration": 0.1023,
                "tempo": 120.0
            },
            {
                "pitch": 0,
                "velocity": 0,
                "duration": 0.0364,
                "tempo": 0
            },
            {
                "pitch": 71,
                "velocity": 7,
                "duration": 0.0977,
                "tempo": 120.0
            },
            {
                "pitch": 0,
                "velocity": 0,
                "duration": 0.0318,
                "tempo": 0
            },
            {
                "pitch": 68,
                "velocity": 7,
                "duration": 0.0977,
                "tempo": 120.0
            },
            {
                "pitch": 0,
                "velocity": 0,
                "duration": 0.0341,
                "tempo": 0
            },
            {
                "pitch": 65,
                "velocity": 7,
                "duration": 0.0977,
                "tempo": 120.0
            },
            {
                "pitch": 0,
                "velocity": 0,
                "duration": 0.0318,
                "tempo": 0
            },
            {
                "pitch": 62,
                "velocity": 7,
                "duration": 0.1023,
                "tempo": 120.0
            },
            {
                "pitch": 0,
                "velocity": 0,
                "duration": 0.0364,
                "tempo": 0
            },
            {
                "pitch": 59,
                "velocity": 7,
                "duration": 0.1,
                "tempo": 120.0
            },
            {
                "pitch": 0,
                "velocity": 0,
                "duration": 0.0523,
                "tempo": 0
            },
            {
                "pitch": 56,
                "velocity": 7,
                "duration": 0.1023,
                "tempo": 120.0
            },
            {
                "pitch": 0,
                "velocity": 0,
                "duration": 0.0386,
                "tempo": 0
            },
            {
                "pitch": 62,
                "velocity": 7,
                "duration": 0.4091,
                "tempo": 120.0
            }
        ],
        "Synth Bass 1": [
            {
                "pitch": 0,
                "velocity": 0,
                "duration": 0.0023,
                "tempo": 0
            },
            {
                "pitch": 36,
                "velocity": 1,
                "duration": 0.0114,
                "tempo": 120.0
            },
            {
                "pitch": 33,
                "velocity": 1,
                "duration": 0.0341,
                "tempo": 120.0
            },
            {
                "pitch": 31,
                "velocity": 1,
                "duration": 0.0341,
                "tempo": 120.0
            },
            {
                "pitch": 0,
                "velocity": 0,
                "duration": 0.0182,
                "tempo": 0
            },
            {
                "pitch": 32,
                "velocity": 1,
                "duration": 0.0136,
                "tempo": 120.0
            },
            {
                "pitch": 30,
                "velocity": 1,
                "duration": 0.0364,
                "tempo": 120.0
            },
            {
                "pitch": 27,
                "velocity": 1,
                "duration": 0.0341,
                "tempo": 120.0
            },
            {
                "pitch": 0,
                "velocity": 0,
                "duration": 0.0182,
                "tempo": 0
            },
            {
                "pitch": 28,
                "velocity": 1,
                "duration": 0.0159,
                "tempo": 120.0
            },
            {
                "pitch": 26,
                "velocity": 1,
                "duration": 0.0341,
                "tempo": 120.0
            },
            {
                "pitch": 23,
                "velocity": 1,
                "duration": 0.0341,
                "tempo": 120.0
            },
            {
                "pitch": 0,
                "velocity": 0,
                "duration": 0.1205,
                "tempo": 0
            },
            {
                "pitch": 36,
                "velocity": 1,
                "duration": 0.0159,
                "tempo": 120.0
            },
            {
                "pitch": 33,
                "velocity": 1,
                "duration": 0.0341,
                "tempo": 120.0
            },
            {
                "pitch": 31,
                "velocity": 1,
                "duration": 0.0364,
                "tempo": 120.0
            },
            {
                "pitch": 0,
                "velocity": 0,
                "duration": 0.0159,
                "tempo": 0
            },
            {
                "pitch": 32,
                "velocity": 1,
                "duration": 0.0159,
                "tempo": 120.0
            },
            {
                "pitch": 42,
                "velocity": 1,
                "duration": 0.4114,
                "tempo": 120.0
            },
            {
                "pitch": 30,
                "velocity": 1,
                "duration": 0.0318,
                "tempo": 120.0
            },
            {
                "pitch": 27,
                "velocity": 1,
                "duration": 0.0341,
                "tempo": 120.0
            },
            {
                "pitch": 0,
                "velocity": 0,
                "duration": 0.0182,
                "tempo": 0
            },
            {
                "pitch": 28,
                "velocity": 1,
                "duration": 0.0136,
                "tempo": 120.0
            },
            {
                "pitch": 26,
                "velocity": 1,
                "duration": 0.0341,
                "tempo": 120.0
            },
            {
                "pitch": 23,
                "velocity": 1,
                "duration": 0.0318,
                "tempo": 120.0
            },
            {
                "pitch": 0,
                "velocity": 0,
                "duration": 0.1159,
                "tempo": 0
            },
            {
                "pitch": 23,
                "velocity": 1,
                "duration": 0.0818,
                "tempo": 120.0
            },
            {
                "pitch": 0,
                "velocity": 0,
                "duration": 0.0159,
                "tempo": 0
            },
            {
                "pitch": 23,
                "velocity": 1,
                "duration": 0.0841,
                "tempo": 120.0
            },
            {
                "pitch": 0,
                "velocity": 0,
                "duration": 0.0182,
                "tempo": 0
            },
            {
                "pitch": 23,
                "velocity": 1,
                "duration": 0.0864,
                "tempo": 120.0
            },
            {
                "pitch": 0,
                "velocity": 0,
                "duration": 0.0182,
                "tempo": 0
            },
            {
                "pitch": 23,
                "velocity": 1,
                "duration": 0.0841,
                "tempo": 120.0
            },
            {
                "pitch": 0,
                "velocity": 0,
                "duration": 0.0182,
                "tempo": 0
            },
            {
                "pitch": 32,
                "velocity": 1,
                "duration": 0.0159,
                "tempo": 120.0
            },
            {
                "pitch": 42,
                "velocity": 1,
                "duration": 0.7023,
                "tempo": 120.0
            },
            {
                "pitch": 30,
                "velocity": 1,
                "duration": 0.0341,
                "tempo": 120.0
            },
            {
                "pitch": 27,
                "velocity": 1,
                "duration": 0.0341,
                "tempo": 120.0
            },
            {
                "pitch": 0,
                "velocity": 0,
                "duration": 0.0182,
                "tempo": 0
            },
            {
                "pitch": 32,
                "velocity": 1,
                "duration": 0.0159,
                "tempo": 120.0
            },
            {
                "pitch": 42,
                "velocity": 1,
                "duration": 0.1023,
                "tempo": 120.0
            },
            {
                "pitch": 30,
                "velocity": 1,
                "duration": 0.0341,
                "tempo": 120.0
            },
            {
                "pitch": 27,
                "velocity": 1,
                "duration": 0.0341,
                "tempo": 120.0
            },
            {
                "pitch": 0,
                "velocity": 0,
                "duration": 0.0159,
                "tempo": 0
            },
            {
                "pitch": 32,
                "velocity": 1,
                "duration": 0.0159,
                "tempo": 120.0
            },
            {
                "pitch": 42,
                "velocity": 1,
                "duration": 0.1,
                "tempo": 120.0
            },
            {
                "pitch": 30,
                "velocity": 1,
                "duration": 0.0341,
                "tempo": 120.0
            },
            {
                "pitch": 27,
                "velocity": 1,
                "duration": 0.0341,
                "tempo": 120.0
            },
            {
                "pitch": 0,
                "velocity": 0,
                "duration": 0.0159,
                "tempo": 0
            },
            {
                "pitch": 32,
                "velocity": 1,
                "duration": 0.0159,
                "tempo": 120.0
            },
            {
                "pitch": 42,
                "velocity": 1,
                "duration": 0.1,
                "tempo": 120.0
            },
            {
                "pitch": 30,
                "velocity": 1,
                "duration": 0.0341,
                "tempo": 120.0
            },
            {
                "pitch": 27,
                "velocity": 1,
                "duration": 0.0341,
                "tempo": 120.0
            },
            {
                "pitch": 0,
                "velocity": 0,
                "duration": 0.4159,
                "tempo": 0
            },
            {
                "pitch": 23,
                "velocity": 1,
                "duration": 0.0841,
                "tempo": 120.0
            },
            {
                "pitch": 0,
                "velocity": 0,
                "duration": 0.0159,
                "tempo": 0
            },
            {
                "pitch": 23,
                "velocity": 1,
                "duration": 0.7159,
                "tempo": 120.0
            },
            {
                "pitch": 0,
                "velocity": 0,
                "duration": 0.0205,
                "tempo": 0
            },
            {
                "pitch": 23,
                "velocity": 1,
                "duration": 0.3909,
                "tempo": 120.0
            },
            {
                "pitch": 0,
                "velocity": 0,
                "duration": 0.4182,
                "tempo": 0
            },
            {
                "pitch": 23,
                "velocity": 1,
                "duration": 0.0818,
                "tempo": 120.0
            },
            {
                "pitch": 0,
                "velocity": 0,
                "duration": 0.0159,
                "tempo": 0
            },
            {
                "pitch": 23,
                "velocity": 1,
                "duration": 0.6795,
                "tempo": 120.0
            },
            {
                "pitch": 0,
                "velocity": 0,
                "duration": 0.0182,
                "tempo": 0
            },
            {
                "pitch": 23,
                "velocity": 1,
                "duration": 0.3955,
                "tempo": 120.0
            },
            {
                "pitch": 0,
                "velocity": 0,
                "duration": 0.4182,
                "tempo": 0
            },
            {
                "pitch": 23,
                "velocity": 1,
                "duration": 0.0818,
                "tempo": 120.0
            },
            {
                "pitch": 0,
                "velocity": 0,
                "duration": 0.0159,
                "tempo": 0
            },
            {
                "pitch": 23,
                "velocity": 1,
                "duration": 0.6886,
                "tempo": 120.0
            },
            {
                "pitch": 0,
                "velocity": 0,
                "duration": 0.0182,
                "tempo": 0
            },
            {
                "pitch": 23,
                "velocity": 1,
                "duration": 0.3909,
                "tempo": 120.0
            },
            {
                "pitch": 0,
                "velocity": 0,
                "duration": 0.4477,
                "tempo": 0
            },
            {
                "pitch": 23,
                "velocity": 1,
                "duration": 0.0841,
                "tempo": 120.0
            },
            {
                "pitch": 0,
                "velocity": 0,
                "duration": 0.0159,
                "tempo": 0
            },
            {
                "pitch": 23,
                "velocity": 1,
                "duration": 0.4886,
                "tempo": 120.0
            },
            {
                "pitch": 0,
                "velocity": 0,
                "duration": 0.0159,
                "tempo": 0
            },
            {
                "pitch": 23,
                "velocity": 1,
                "duration": 0.0841,
                "tempo": 120.0
            },
            {
                "pitch": 0,
                "velocity": 0,
                "duration": 0.0159,
                "tempo": 0
            },
            {
                "pitch": 23,
                "velocity": 1,
                "duration": 0.0841,
                "tempo": 120.0
            },
            {
                "pitch": 0,
                "velocity": 0,
                "duration": 0.0182,
                "tempo": 0
            },
            {
                "pitch": 32,
                "velocity": 1,
                "duration": 0.0136,
                "tempo": 120.0
            },
            {
                "pitch": 42,
                "velocity": 1,
                "duration": 6.2023,
                "tempo": 120.0
            },
            {
                "pitch": 30,
                "velocity": 1,
                "duration": 0.0341,
                "tempo": 120.0
            },
            {
                "pitch": 27,
                "velocity": 1,
                "duration": 0.0341,
                "tempo": 120.0
            },
            {
                "pitch": 0,
                "velocity": 0,
                "duration": 0.0182,
                "tempo": 0
            },
            {
                "pitch": 32,
                "velocity": 1,
                "duration": 0.0136,
                "tempo": 120.0
            },
            {
                "pitch": 42,
                "velocity": 1,
                "duration": 0.1,
                "tempo": 120.0
            },
            {
                "pitch": 30,
                "velocity": 1,
                "duration": 0.0341,
                "tempo": 120.0
            },
            {
                "pitch": 27,
                "velocity": 1,
                "duration": 0.0341,
                "tempo": 120.0
            },
            {
                "pitch": 0,
                "velocity": 0,
                "duration": 0.0182,
                "tempo": 0
            },
            {
                "pitch": 28,
                "velocity": 1,
                "duration": 0.0159,
                "tempo": 120.0
            },
            {
                "pitch": 26,
                "velocity": 1,
                "duration": 0.0341,
                "tempo": 120.0
            },
            {
                "pitch": 23,
                "velocity": 1,
                "duration": 0.0318,
                "tempo": 120.0
            },
            {
                "pitch": 0,
                "velocity": 0,
                "duration": 0.0182,
                "tempo": 0
            },
            {
                "pitch": 28,
                "velocity": 1,
                "duration": 0.0159,
                "tempo": 120.0
            },
            {
                "pitch": 26,
                "velocity": 1,
                "duration": 0.0341,
                "tempo": 120.0
            },
            {
                "pitch": 23,
                "velocity": 1,
                "duration": 0.0341,
                "tempo": 120.0
            },
            {
                "pitch": 0,
                "velocity": 0,
                "duration": 0.4205,
                "tempo": 0
            },
            {
                "pitch": 23,
                "velocity": 1,
                "duration": 0.0818,
                "tempo": 120.0
            },
            {
                "pitch": 0,
                "velocity": 0,
                "duration": 0.0182,
                "tempo": 0
            },
            {
                "pitch": 23,
                "velocity": 1,
                "duration": 0.6864,
                "tempo": 120.0
            },
            {
                "pitch": 0,
                "velocity": 0,
                "duration": 0.0182,
                "tempo": 0
            },
            {
                "pitch": 23,
                "velocity": 1,
                "duration": 0.3909,
                "tempo": 120.0
            },
            {
                "pitch": 0,
                "velocity": 0,
                "duration": 0.4136,
                "tempo": 0
            },
            {
                "pitch": 23,
                "velocity": 1,
                "duration": 0.0818,
                "tempo": 120.0
            },
            {
                "pitch": 0,
                "velocity": 0,
                "duration": 0.0159,
                "tempo": 0
            },
            {
                "pitch": 23,
                "velocity": 1,
                "duration": 0.6795,
                "tempo": 120.0
            },
            {
                "pitch": 0,
                "velocity": 0,
                "duration": 0.0159,
                "tempo": 0
            },
            {
                "pitch": 23,
                "velocity": 1,
                "duration": 0.3364,
                "tempo": 120.0
            },
            {
                "pitch": 0,
                "velocity": 0,
                "duration": 0.4182,
                "tempo": 0
            },
            {
                "pitch": 23,
                "velocity": 1,
                "duration": 0.0841,
                "tempo": 120.0
            },
            {
                "pitch": 0,
                "velocity": 0,
                "duration": 0.0159,
                "tempo": 0
            },
            {
                "pitch": 23,
                "velocity": 1,
                "duration": 0.6977,
                "tempo": 120.0
            },
            {
                "pitch": 0,
                "velocity": 0,
                "duration": 0.0159,
                "tempo": 0
            },
            {
                "pitch": 23,
                "velocity": 1,
                "duration": 0.3864,
                "tempo": 120.0
            },
            {
                "pitch": 0,
                "velocity": 0,
                "duration": 0.0205,
                "tempo": 0
            },
            {
                "pitch": 23,
                "velocity": 1,
                "duration": 0.0795,
                "tempo": 120.0
            },
            {
                "pitch": 0,
                "velocity": 0,
                "duration": 0.0182,
                "tempo": 0
            },
            {
                "pitch": 23,
                "velocity": 1,
                "duration": 0.2864,
                "tempo": 120.0
            },
            {
                "pitch": 0,
                "velocity": 0,
                "duration": 0.0182,
                "tempo": 0
            },
            {
                "pitch": 32,
                "velocity": 1,
                "duration": 0.0136,
                "tempo": 120.0
            },
            {
                "pitch": 42,
                "velocity": 1,
                "duration": 5.4841,
                "tempo": 120.0
            },
            {
                "pitch": 30,
                "velocity": 1,
                "duration": 0.0341,
                "tempo": 120.0
            },
            {
                "pitch": 27,
                "velocity": 1,
                "duration": 0.0341,
                "tempo": 120.0
            },
            {
                "pitch": 0,
                "velocity": 0,
                "duration": 0.0159,
                "tempo": 0
            },
            {
                "pitch": 32,
                "velocity": 1,
                "duration": 0.0159,
                "tempo": 120.0
            },
            {
                "pitch": 42,
                "velocity": 1,
                "duration": 0.1,
                "tempo": 120.0
            },
            {
                "pitch": 30,
                "velocity": 1,
                "duration": 0.0341,
                "tempo": 120.0
            },
            {
                "pitch": 27,
                "velocity": 1,
                "duration": 0.0341,
                "tempo": 120.0
            },
            {
                "pitch": 24,
                "velocity": 1,
                "duration": 0.0318,
                "tempo": 120.0
            },
            {
                "pitch": 21,
                "velocity": 1,
                "duration": 0.0182,
                "tempo": 120.0
            },
            {
                "pitch": 0,
                "velocity": 0,
                "duration": 0.1682,
                "tempo": 0
            },
            {
                "pitch": 36,
                "velocity": 1,
                "duration": 0.0136,
                "tempo": 120.0
            },
            {
                "pitch": 33,
                "velocity": 1,
                "duration": 0.0341,
                "tempo": 120.0
            },
            {
                "pitch": 31,
                "velocity": 1,
                "duration": 0.0318,
                "tempo": 120.0
            },
            {
                "pitch": 0,
                "velocity": 0,
                "duration": 0.0182,
                "tempo": 0
            },
            {
                "pitch": 36,
                "velocity": 1,
                "duration": 0.0136,
                "tempo": 120.0
            },
            {
                "pitch": 33,
                "velocity": 1,
                "duration": 0.0341,
                "tempo": 120.0
            },
            {
                "pitch": 31,
                "velocity": 1,
                "duration": 0.0318,
                "tempo": 120.0
            },
            {
                "pitch": 0,
                "velocity": 0,
                "duration": 0.0182,
                "tempo": 0
            },
            {
                "pitch": 32,
                "velocity": 1,
                "duration": 0.0159,
                "tempo": 120.0
            },
            {
                "pitch": 42,
                "velocity": 1,
                "duration": 0.4977,
                "tempo": 120.0
            },
            {
                "pitch": 30,
                "velocity": 1,
                "duration": 0.0318,
                "tempo": 120.0
            },
            {
                "pitch": 27,
                "velocity": 1,
                "duration": 0.0341,
                "tempo": 120.0
            },
            {
                "pitch": 0,
                "velocity": 0,
                "duration": 0.0159,
                "tempo": 0
            },
            {
                "pitch": 32,
                "velocity": 1,
                "duration": 0.0159,
                "tempo": 120.0
            },
            {
                "pitch": 42,
                "velocity": 1,
                "duration": 0.0977,
                "tempo": 120.0
            },
            {
                "pitch": 30,
                "velocity": 1,
                "duration": 0.0318,
                "tempo": 120.0
            },
            {
                "pitch": 27,
                "velocity": 1,
                "duration": 0.0341,
                "tempo": 120.0
            },
            {
                "pitch": 0,
                "velocity": 0,
                "duration": 0.0182,
                "tempo": 0
            },
            {
                "pitch": 28,
                "velocity": 1,
                "duration": 0.0136,
                "tempo": 120.0
            },
            {
                "pitch": 26,
                "velocity": 1,
                "duration": 0.0341,
                "tempo": 120.0
            },
            {
                "pitch": 23,
                "velocity": 1,
                "duration": 0.0341,
                "tempo": 120.0
            },
            {
                "pitch": 0,
                "velocity": 0,
                "duration": 0.0182,
                "tempo": 0
            },
            {
                "pitch": 28,
                "velocity": 1,
                "duration": 0.0159,
                "tempo": 120.0
            },
            {
                "pitch": 26,
                "velocity": 1,
                "duration": 0.0318,
                "tempo": 120.0
            },
            {
                "pitch": 23,
                "velocity": 1,
                "duration": 0.0341,
                "tempo": 120.0
            },
            {
                "pitch": 0,
                "velocity": 0,
                "duration": 0.0205,
                "tempo": 0
            },
            {
                "pitch": 23,
                "velocity": 1,
                "duration": 0.0818,
                "tempo": 120.0
            },
            {
                "pitch": 0,
                "velocity": 0,
                "duration": 0.0182,
                "tempo": 0
            },
            {
                "pitch": 23,
                "velocity": 1,
                "duration": 0.0818,
                "tempo": 120.0
            },
            {
                "pitch": 0,
                "velocity": 0,
                "duration": 0.0205,
                "tempo": 0
            },
            {
                "pitch": 23,
                "velocity": 1,
                "duration": 0.1841,
                "tempo": 120.0
            },
            {
                "pitch": 0,
                "velocity": 0,
                "duration": 0.0182,
                "tempo": 0
            },
            {
                "pitch": 23,
                "velocity": 1,
                "duration": 0.0864,
                "tempo": 120.0
            },
            {
                "pitch": 0,
                "velocity": 0,
                "duration": 0.0159,
                "tempo": 0
            },
            {
                "pitch": 23,
                "velocity": 1,
                "duration": 0.9182,
                "tempo": 120.0
            },
            {
                "pitch": 0,
                "velocity": 0,
                "duration": 0.0182,
                "tempo": 0
            },
            {
                "pitch": 23,
                "velocity": 1,
                "duration": 0.3864,
                "tempo": 120.0
            },
            {
                "pitch": 0,
                "velocity": 0,
                "duration": 0.0182,
                "tempo": 0
            },
            {
                "pitch": 23,
                "velocity": 1,
                "duration": 0.1864,
                "tempo": 120.0
            },
            {
                "pitch": 0,
                "velocity": 0,
                "duration": 0.0159,
                "tempo": 0
            },
            {
                "pitch": 23,
                "velocity": 1,
                "duration": 0.0864,
                "tempo": 120.0
            },
            {
                "pitch": 0,
                "velocity": 0,
                "duration": 0.0182,
                "tempo": 0
            },
            {
                "pitch": 23,
                "velocity": 1,
                "duration": 0.8886,
                "tempo": 120.0
            },
            {
                "pitch": 0,
                "velocity": 0,
                "duration": 0.0182,
                "tempo": 0
            },
            {
                "pitch": 23,
                "velocity": 1,
                "duration": 0.375,
                "tempo": 120.0
            },
            {
                "pitch": 0,
                "velocity": 0,
                "duration": 0.0205,
                "tempo": 0
            },
            {
                "pitch": 23,
                "velocity": 1,
                "duration": 0.1841,
                "tempo": 120.0
            },
            {
                "pitch": 0,
                "velocity": 0,
                "duration": 0.0182,
                "tempo": 0
            },
            {
                "pitch": 23,
                "velocity": 1,
                "duration": 0.0841,
                "tempo": 120.0
            },
            {
                "pitch": 0,
                "velocity": 0,
                "duration": 0.0182,
                "tempo": 0
            },
            {
                "pitch": 23,
                "velocity": 1,
                "duration": 0.8886,
                "tempo": 120.0
            },
            {
                "pitch": 0,
                "velocity": 0,
                "duration": 0.0182,
                "tempo": 0
            },
            {
                "pitch": 23,
                "velocity": 1,
                "duration": 0.4,
                "tempo": 120.0
            },
            {
                "pitch": 0,
                "velocity": 0,
                "duration": 0.0205,
                "tempo": 0
            },
            {
                "pitch": 23,
                "velocity": 1,
                "duration": 0.1886,
                "tempo": 120.0
            },
            {
                "pitch": 0,
                "velocity": 0,
                "duration": 0.0182,
                "tempo": 0
            },
            {
                "pitch": 23,
                "velocity": 1,
                "duration": 0.0886,
                "tempo": 120.0
            },
            {
                "pitch": 0,
                "velocity": 0,
                "duration": 0.0182,
                "tempo": 0
            },
            {
                "pitch": 23,
                "velocity": 1,
                "duration": 0.5909,
                "tempo": 120.0
            },
            {
                "pitch": 0,
                "velocity": 0,
                "duration": 0.0159,
                "tempo": 0
            },
            {
                "pitch": 23,
                "velocity": 1,
                "duration": 0.0841,
                "tempo": 120.0
            },
            {
                "pitch": 0,
                "velocity": 0,
                "duration": 0.0182,
                "tempo": 0
            },
            {
                "pitch": 23,
                "velocity": 1,
                "duration": 0.1841,
                "tempo": 120.0
            },
            {
                "pitch": 0,
                "velocity": 0,
                "duration": 0.0182,
                "tempo": 0
            },
            {
                "pitch": 32,
                "velocity": 1,
                "duration": 0.0136,
                "tempo": 120.0
            },
            {
                "pitch": 42,
                "velocity": 1,
                "duration": 6.6136,
                "tempo": 120.0
            },
            {
                "pitch": 30,
                "velocity": 1,
                "duration": 0.0318,
                "tempo": 120.0
            },
            {
                "pitch": 27,
                "velocity": 1,
                "duration": 0.0341,
                "tempo": 120.0
            },
            {
                "pitch": 0,
                "velocity": 0,
                "duration": 0.0182,
                "tempo": 0
            },
            {
                "pitch": 32,
                "velocity": 1,
                "duration": 0.0136,
                "tempo": 120.0
            },
            {
                "pitch": 42,
                "velocity": 1,
                "duration": 0.0977,
                "tempo": 120.0
            },
            {
                "pitch": 30,
                "velocity": 1,
                "duration": 0.0341,
                "tempo": 120.0
            },
            {
                "pitch": 27,
                "velocity": 1,
                "duration": 0.0318,
                "tempo": 120.0
            },
            {
                "pitch": 0,
                "velocity": 0,
                "duration": 0.0182,
                "tempo": 0
            },
            {
                "pitch": 28,
                "velocity": 1,
                "duration": 0.0136,
                "tempo": 120.0
            },
            {
                "pitch": 26,
                "velocity": 1,
                "duration": 0.0341,
                "tempo": 120.0
            },
            {
                "pitch": 23,
                "velocity": 1,
                "duration": 0.0318,
                "tempo": 120.0
            },
            {
                "pitch": 0,
                "velocity": 0,
                "duration": 0.0182,
                "tempo": 0
            },
            {
                "pitch": 28,
                "velocity": 1,
                "duration": 0.0159,
                "tempo": 120.0
            },
            {
                "pitch": 26,
                "velocity": 1,
                "duration": 0.0318,
                "tempo": 120.0
            },
            {
                "pitch": 23,
                "velocity": 1,
                "duration": 0.0341,
                "tempo": 120.0
            },
            {
                "pitch": 0,
                "velocity": 0,
                "duration": 0.4273,
                "tempo": 0
            },
            {
                "pitch": 23,
                "velocity": 1,
                "duration": 0.0818,
                "tempo": 120.0
            },
            {
                "pitch": 0,
                "velocity": 0,
                "duration": 0.0182,
                "tempo": 0
            },
            {
                "pitch": 23,
                "velocity": 1,
                "duration": 0.6932,
                "tempo": 120.0
            },
            {
                "pitch": 0,
                "velocity": 0,
                "duration": 0.0182,
                "tempo": 0
            },
            {
                "pitch": 23,
                "velocity": 1,
                "duration": 0.3773,
                "tempo": 120.0
            },
            {
                "pitch": 0,
                "velocity": 0,
                "duration": 0.4159,
                "tempo": 0
            },
            {
                "pitch": 23,
                "velocity": 1,
                "duration": 0.0841,
                "tempo": 120.0
            },
            {
                "pitch": 0,
                "velocity": 0,
                "duration": 0.0159,
                "tempo": 0
            },
            {
                "pitch": 23,
                "velocity": 1,
                "duration": 0.4909,
                "tempo": 120.0
            },
            {
                "pitch": 0,
                "velocity": 0,
                "duration": 0.0341,
                "tempo": 0
            },
            {
                "pitch": 23,
                "velocity": 1,
                "duration": 0.1886,
                "tempo": 120.0
            },
            {
                "pitch": 0,
                "velocity": 0,
                "duration": 0.0182,
                "tempo": 0
            },
            {
                "pitch": 32,
                "velocity": 1,
                "duration": 0.0159,
                "tempo": 120.0
            },
            {
                "pitch": 42,
                "velocity": 1,
                "duration": 3.1432,
                "tempo": 120.0
            },
            {
                "pitch": 30,
                "velocity": 1,
                "duration": 0.0341,
                "tempo": 120.0
            },
            {
                "pitch": 27,
                "velocity": 1,
                "duration": 0.0341,
                "tempo": 120.0
            },
            {
                "pitch": 0,
                "velocity": 0,
                "duration": 0.0182,
                "tempo": 0
            },
            {
                "pitch": 32,
                "velocity": 1,
                "duration": 0.0159,
                "tempo": 120.0
            },
            {
                "pitch": 42,
                "velocity": 1,
                "duration": 0.1023,
                "tempo": 120.0
            },
            {
                "pitch": 30,
                "velocity": 1,
                "duration": 0.0364,
                "tempo": 120.0
            },
            {
                "pitch": 27,
                "velocity": 1,
                "duration": 0.0341,
                "tempo": 120.0
            },
            {
                "pitch": 0,
                "velocity": 0,
                "duration": 0.0182,
                "tempo": 0
            },
            {
                "pitch": 28,
                "velocity": 1,
                "duration": 0.0159,
                "tempo": 120.0
            },
            {
                "pitch": 26,
                "velocity": 1,
                "duration": 0.0341,
                "tempo": 120.0
            },
            {
                "pitch": 23,
                "velocity": 1,
                "duration": 0.0341,
                "tempo": 120.0
            },
            {
                "pitch": 0,
                "velocity": 0,
                "duration": 0.0182,
                "tempo": 0
            },
            {
                "pitch": 28,
                "velocity": 1,
                "duration": 0.0159,
                "tempo": 120.0
            },
            {
                "pitch": 26,
                "velocity": 1,
                "duration": 0.0341,
                "tempo": 120.0
            },
            {
                "pitch": 23,
                "velocity": 1,
                "duration": 0.0364,
                "tempo": 120.0
            },
            {
                "pitch": 0,
                "velocity": 0,
                "duration": 0.4182,
                "tempo": 0
            },
            {
                "pitch": 23,
                "velocity": 1,
                "duration": 0.0841,
                "tempo": 120.0
            },
            {
                "pitch": 0,
                "velocity": 0,
                "duration": 0.0159,
                "tempo": 0
            },
            {
                "pitch": 23,
                "velocity": 1,
                "duration": 0.6864,
                "tempo": 120.0
            },
            {
                "pitch": 0,
                "velocity": 0,
                "duration": 0.0182,
                "tempo": 0
            },
            {
                "pitch": 23,
                "velocity": 1,
                "duration": 0.3841,
                "tempo": 120.0
            },
            {
                "pitch": 0,
                "velocity": 0,
                "duration": 0.4182,
                "tempo": 0
            },
            {
                "pitch": 23,
                "velocity": 1,
                "duration": 0.0818,
                "tempo": 120.0
            },
            {
                "pitch": 0,
                "velocity": 0,
                "duration": 0.0182,
                "tempo": 0
            },
            {
                "pitch": 23,
                "velocity": 1,
                "duration": 0.4909,
                "tempo": 120.0
            },
            {
                "pitch": 0,
                "velocity": 0,
                "duration": 0.0159,
                "tempo": 0
            },
            {
                "pitch": 23,
                "velocity": 1,
                "duration": 0.1886,
                "tempo": 120.0
            },
            {
                "pitch": 0,
                "velocity": 0,
                "duration": 0.0182,
                "tempo": 0
            },
            {
                "pitch": 32,
                "velocity": 1,
                "duration": 0.0136,
                "tempo": 120.0
            },
            {
                "pitch": 42,
                "velocity": 1,
                "duration": 3.1295,
                "tempo": 120.0
            },
            {
                "pitch": 30,
                "velocity": 1,
                "duration": 0.0318,
                "tempo": 120.0
            },
            {
                "pitch": 27,
                "velocity": 1,
                "duration": 0.0318,
                "tempo": 120.0
            },
            {
                "pitch": 0,
                "velocity": 0,
                "duration": 0.0182,
                "tempo": 0
            },
            {
                "pitch": 32,
                "velocity": 1,
                "duration": 0.0159,
                "tempo": 120.0
            },
            {
                "pitch": 42,
                "velocity": 1,
                "duration": 0.0977,
                "tempo": 120.0
            },
            {
                "pitch": 30,
                "velocity": 1,
                "duration": 0.0318,
                "tempo": 120.0
            },
            {
                "pitch": 27,
                "velocity": 1,
                "duration": 0.0318,
                "tempo": 120.0
            },
            {
                "pitch": 0,
                "velocity": 0,
                "duration": 0.0159,
                "tempo": 0
            },
            {
                "pitch": 28,
                "velocity": 1,
                "duration": 0.0159,
                "tempo": 120.0
            },
            {
                "pitch": 26,
                "velocity": 1,
                "duration": 0.0318,
                "tempo": 120.0
            },
            {
                "pitch": 23,
                "velocity": 1,
                "duration": 0.0318,
                "tempo": 120.0
            },
            {
                "pitch": 0,
                "velocity": 0,
                "duration": 0.0159,
                "tempo": 0
            },
            {
                "pitch": 28,
                "velocity": 1,
                "duration": 0.0159,
                "tempo": 120.0
            },
            {
                "pitch": 26,
                "velocity": 1,
                "duration": 0.0318,
                "tempo": 120.0
            },
            {
                "pitch": 23,
                "velocity": 1,
                "duration": 0.0318,
                "tempo": 120.0
            },
            {
                "pitch": 0,
                "velocity": 0,
                "duration": 0.4386,
                "tempo": 0
            },
            {
                "pitch": 23,
                "velocity": 1,
                "duration": 0.8205,
                "tempo": 120.0
            },
            {
                "pitch": 0,
                "velocity": 0,
                "duration": 0.0182,
                "tempo": 0
            },
            {
                "pitch": 23,
                "velocity": 1,
                "duration": 0.3773,
                "tempo": 120.0
            },
            {
                "pitch": 0,
                "velocity": 0,
                "duration": 0.4205,
                "tempo": 0
            },
            {
                "pitch": 23,
                "velocity": 1,
                "duration": 0.7932,
                "tempo": 120.0
            },
            {
                "pitch": 0,
                "velocity": 0,
                "duration": 0.0182,
                "tempo": 0
            },
            {
                "pitch": 23,
                "velocity": 1,
                "duration": 0.375,
                "tempo": 120.0
            },
            {
                "pitch": 0,
                "velocity": 0,
                "duration": 0.2227,
                "tempo": 0
            },
            {
                "pitch": 23,
                "velocity": 1,
                "duration": 0.0841,
                "tempo": 120.0
            },
            {
                "pitch": 0,
                "velocity": 0,
                "duration": 0.925,
                "tempo": 0
            },
            {
                "pitch": 23,
                "velocity": 1,
                "duration": 0.4,
                "tempo": 120.0
            },
            {
                "pitch": 0,
                "velocity": 0,
                "duration": 0.4295,
                "tempo": 0
            },
            {
                "pitch": 23,
                "velocity": 1,
                "duration": 0.7932,
                "tempo": 120.0
            },
            {
                "pitch": 0,
                "velocity": 0,
                "duration": 0.0182,
                "tempo": 0
            },
            {
                "pitch": 32,
                "velocity": 1,
                "duration": 0.0159,
                "tempo": 120.0
            },
            {
                "pitch": 42,
                "velocity": 1,
                "duration": 6.4045,
                "tempo": 120.0
            },
            {
                "pitch": 30,
                "velocity": 1,
                "duration": 0.0318,
                "tempo": 120.0
            },
            {
                "pitch": 27,
                "velocity": 1,
                "duration": 0.0341,
                "tempo": 120.0
            },
            {
                "pitch": 0,
                "velocity": 0,
                "duration": 0.0159,
                "tempo": 0
            },
            {
                "pitch": 32,
                "velocity": 1,
                "duration": 0.0159,
                "tempo": 120.0
            },
            {
                "pitch": 42,
                "velocity": 1,
                "duration": 0.0977,
                "tempo": 120.0
            },
            {
                "pitch": 30,
                "velocity": 1,
                "duration": 0.0318,
                "tempo": 120.0
            },
            {
                "pitch": 27,
                "velocity": 1,
                "duration": 0.0341,
                "tempo": 120.0
            },
            {
                "pitch": 0,
                "velocity": 0,
                "duration": 0.0182,
                "tempo": 0
            },
            {
                "pitch": 28,
                "velocity": 1,
                "duration": 0.0136,
                "tempo": 120.0
            },
            {
                "pitch": 26,
                "velocity": 1,
                "duration": 0.0341,
                "tempo": 120.0
            },
            {
                "pitch": 23,
                "velocity": 1,
                "duration": 0.0318,
                "tempo": 120.0
            },
            {
                "pitch": 0,
                "velocity": 0,
                "duration": 0.0182,
                "tempo": 0
            },
            {
                "pitch": 28,
                "velocity": 1,
                "duration": 0.0136,
                "tempo": 120.0
            },
            {
                "pitch": 26,
                "velocity": 1,
                "duration": 0.0341,
                "tempo": 120.0
            },
            {
                "pitch": 23,
                "velocity": 1,
                "duration": 0.0318,
                "tempo": 120.0
            },
            {
                "pitch": 0,
                "velocity": 0,
                "duration": 0.4273,
                "tempo": 0
            },
            {
                "pitch": 23,
                "velocity": 1,
                "duration": 0.7977,
                "tempo": 120.0
            },
            {
                "pitch": 0,
                "velocity": 0,
                "duration": 0.0182,
                "tempo": 0
            },
            {
                "pitch": 23,
                "velocity": 1,
                "duration": 0.3773,
                "tempo": 120.0
            },
            {
                "pitch": 0,
                "velocity": 0,
                "duration": 0.4159,
                "tempo": 0
            },
            {
                "pitch": 23,
                "velocity": 1,
                "duration": 0.8114,
                "tempo": 120.0
            },
            {
                "pitch": 0,
                "velocity": 0,
                "duration": 0.0182,
                "tempo": 0
            },
            {
                "pitch": 23,
                "velocity": 1,
                "duration": 0.3841,
                "tempo": 120.0
            },
            {
                "pitch": 0,
                "velocity": 0,
                "duration": 0.325,
                "tempo": 0
            },
            {
                "pitch": 23,
                "velocity": 1,
                "duration": 0.0841,
                "tempo": 120.0
            },
            {
                "pitch": 0,
                "velocity": 0,
                "duration": 0.0182,
                "tempo": 0
            },
            {
                "pitch": 23,
                "velocity": 1,
                "duration": 0.1841,
                "tempo": 120.0
            },
            {
                "pitch": 0,
                "velocity": 0,
                "duration": 0.0182,
                "tempo": 0
            },
            {
                "pitch": 32,
                "velocity": 1,
                "duration": 0.0136,
                "tempo": 120.0
            },
            {
                "pitch": 42,
                "velocity": 1,
                "duration": 4.1545,
                "tempo": 120.0
            },
            {
                "pitch": 30,
                "velocity": 1,
                "duration": 0.0341,
                "tempo": 120.0
            },
            {
                "pitch": 27,
                "velocity": 1,
                "duration": 0.0341,
                "tempo": 120.0
            },
            {
                "pitch": 0,
                "velocity": 0,
                "duration": 0.0159,
                "tempo": 0
            },
            {
                "pitch": 36,
                "velocity": 1,
                "duration": 0.0159,
                "tempo": 120.0
            },
            {
                "pitch": 33,
                "velocity": 1,
                "duration": 0.0341,
                "tempo": 120.0
            },
            {
                "pitch": 31,
                "velocity": 1,
                "duration": 0.0341,
                "tempo": 120.0
            },
            {
                "pitch": 27,
                "velocity": 1,
                "duration": 0.0182,
                "tempo": 120.0
            },
            {
                "pitch": 25,
                "velocity": 1,
                "duration": 0.0136,
                "tempo": 120.0
            },
            {
                "pitch": 23,
                "velocity": 1,
                "duration": 0.0182,
                "tempo": 120.0
            },
            {
                "pitch": 21,
                "velocity": 1,
                "duration": 0.0159,
                "tempo": 120.0
            },
            {
                "pitch": 0,
                "velocity": 0,
                "duration": 0.1,
                "tempo": 0
            },
            {
                "pitch": 43,
                "velocity": 1,
                "duration": 0.1364,
                "tempo": 120.0
            },
            {
                "pitch": 0,
                "velocity": 0,
                "duration": 0.0182,
                "tempo": 0
            },
            {
                "pitch": 23,
                "velocity": 1,
                "duration": 0.0818,
                "tempo": 120.0
            },
            {
                "pitch": 0,
                "velocity": 0,
                "duration": 0.0159,
                "tempo": 0
            },
            {
                "pitch": 23,
                "velocity": 1,
                "duration": 0.1841,
                "tempo": 120.0
            },
            {
                "pitch": 0,
                "velocity": 0,
                "duration": 0.0205,
                "tempo": 0
            },
            {
                "pitch": 32,
                "velocity": 1,
                "duration": 0.0136,
                "tempo": 120.0
            },
            {
                "pitch": 42,
                "velocity": 1,
                "duration": 0.8045,
                "tempo": 120.0
            },
            {
                "pitch": 30,
                "velocity": 1,
                "duration": 0.0341,
                "tempo": 120.0
            },
            {
                "pitch": 27,
                "velocity": 1,
                "duration": 0.0318,
                "tempo": 120.0
            },
            {
                "pitch": 0,
                "velocity": 0,
                "duration": 0.0182,
                "tempo": 0
            },
            {
                "pitch": 28,
                "velocity": 1,
                "duration": 0.0159,
                "tempo": 120.0
            },
            {
                "pitch": 26,
                "velocity": 1,
                "duration": 0.0341,
                "tempo": 120.0
            },
            {
                "pitch": 23,
                "velocity": 1,
                "duration": 0.0318,
                "tempo": 120.0
            },
            {
                "pitch": 0,
                "velocity": 0,
                "duration": 0.0205,
                "tempo": 0
            },
            {
                "pitch": 36,
                "velocity": 1,
                "duration": 0.0136,
                "tempo": 120.0
            },
            {
                "pitch": 33,
                "velocity": 1,
                "duration": 0.0341,
                "tempo": 120.0
            },
            {
                "pitch": 31,
                "velocity": 1,
                "duration": 0.0318,
                "tempo": 120.0
            },
            {
                "pitch": 0,
                "velocity": 0,
                "duration": 0.0182,
                "tempo": 0
            },
            {
                "pitch": 36,
                "velocity": 1,
                "duration": 0.0159,
                "tempo": 120.0
            },
            {
                "pitch": 33,
                "velocity": 1,
                "duration": 0.0341,
                "tempo": 120.0
            },
            {
                "pitch": 31,
                "velocity": 1,
                "duration": 0.0318,
                "tempo": 120.0
            },
            {
                "pitch": 0,
                "velocity": 0,
                "duration": 0.0182,
                "tempo": 0
            },
            {
                "pitch": 36,
                "velocity": 1,
                "duration": 0.0159,
                "tempo": 120.0
            },
            {
                "pitch": 33,
                "velocity": 1,
                "duration": 0.0341,
                "tempo": 120.0
            },
            {
                "pitch": 31,
                "velocity": 1,
                "duration": 0.0341,
                "tempo": 120.0
            },
            {
                "pitch": 0,
                "velocity": 0,
                "duration": 0.0182,
                "tempo": 0
            },
            {
                "pitch": 32,
                "velocity": 1,
                "duration": 0.0136,
                "tempo": 120.0
            },
            {
                "pitch": 42,
                "velocity": 1,
                "duration": 0.5,
                "tempo": 120.0
            },
            {
                "pitch": 30,
                "velocity": 1,
                "duration": 0.0341,
                "tempo": 120.0
            },
            {
                "pitch": 27,
                "velocity": 1,
                "duration": 0.0318,
                "tempo": 120.0
            },
            {
                "pitch": 0,
                "velocity": 0,
                "duration": 0.0182,
                "tempo": 0
            },
            {
                "pitch": 32,
                "velocity": 1,
                "duration": 0.0159,
                "tempo": 120.0
            },
            {
                "pitch": 42,
                "velocity": 1,
                "duration": 0.1,
                "tempo": 120.0
            },
            {
                "pitch": 30,
                "velocity": 1,
                "duration": 0.0341,
                "tempo": 120.0
            },
            {
                "pitch": 27,
                "velocity": 1,
                "duration": 0.0318,
                "tempo": 120.0
            },
            {
                "pitch": 0,
                "velocity": 0,
                "duration": 0.0182,
                "tempo": 0
            },
            {
                "pitch": 32,
                "velocity": 1,
                "duration": 0.0159,
                "tempo": 120.0
            },
            {
                "pitch": 42,
                "velocity": 1,
                "duration": 0.1,
                "tempo": 120.0
            },
            {
                "pitch": 30,
                "velocity": 1,
                "duration": 0.0341,
                "tempo": 120.0
            },
            {
                "pitch": 27,
                "velocity": 1,
                "duration": 0.0341,
                "tempo": 120.0
            },
            {
                "pitch": 0,
                "velocity": 0,
                "duration": 0.0182,
                "tempo": 0
            },
            {
                "pitch": 23,
                "velocity": 1,
                "duration": 0.1818,
                "tempo": 120.0
            },
            {
                "pitch": 0,
                "velocity": 0,
                "duration": 0.0182,
                "tempo": 0
            },
            {
                "pitch": 32,
                "velocity": 1,
                "duration": 0.0136,
                "tempo": 120.0
            },
            {
                "pitch": 42,
                "velocity": 1,
                "duration": 0.3,
                "tempo": 120.0
            },
            {
                "pitch": 30,
                "velocity": 1,
                "duration": 0.0341,
                "tempo": 120.0
            },
            {
                "pitch": 27,
                "velocity": 1,
                "duration": 0.0341,
                "tempo": 120.0
            },
            {
                "pitch": 0,
                "velocity": 0,
                "duration": 0.0159,
                "tempo": 0
            },
            {
                "pitch": 32,
                "velocity": 1,
                "duration": 0.0159,
                "tempo": 120.0
            },
            {
                "pitch": 42,
                "velocity": 1,
                "duration": 0.1,
                "tempo": 120.0
            },
            {
                "pitch": 30,
                "velocity": 1,
                "duration": 0.0341,
                "tempo": 120.0
            },
            {
                "pitch": 27,
                "velocity": 1,
                "duration": 0.0341,
                "tempo": 120.0
            },
            {
                "pitch": 0,
                "velocity": 0,
                "duration": 0.0159,
                "tempo": 0
            },
            {
                "pitch": 32,
                "velocity": 1,
                "duration": 0.0159,
                "tempo": 120.0
            },
            {
                "pitch": 42,
                "velocity": 1,
                "duration": 0.1,
                "tempo": 120.0
            },
            {
                "pitch": 30,
                "velocity": 1,
                "duration": 0.0341,
                "tempo": 120.0
            },
            {
                "pitch": 27,
                "velocity": 1,
                "duration": 0.0341,
                "tempo": 120.0
            },
            {
                "pitch": 0,
                "velocity": 0,
                "duration": 0.0182,
                "tempo": 0
            },
            {
                "pitch": 28,
                "velocity": 1,
                "duration": 0.0136,
                "tempo": 120.0
            },
            {
                "pitch": 26,
                "velocity": 1,
                "duration": 0.0341,
                "tempo": 120.0
            },
            {
                "pitch": 23,
                "velocity": 1,
                "duration": 0.0341,
                "tempo": 120.0
            },
            {
                "pitch": 0,
                "velocity": 0,
                "duration": 0.0182,
                "tempo": 0
            },
            {
                "pitch": 28,
                "velocity": 1,
                "duration": 0.0136,
                "tempo": 120.0
            },
            {
                "pitch": 26,
                "velocity": 1,
                "duration": 0.0341,
                "tempo": 120.0
            },
            {
                "pitch": 23,
                "velocity": 1,
                "duration": 0.0341,
                "tempo": 120.0
            },
            {
                "pitch": 0,
                "velocity": 0,
                "duration": 0.0182,
                "tempo": 0
            },
            {
                "pitch": 28,
                "velocity": 1,
                "duration": 0.0159,
                "tempo": 120.0
            },
            {
                "pitch": 26,
                "velocity": 1,
                "duration": 0.0341,
                "tempo": 120.0
            },
            {
                "pitch": 23,
                "velocity": 1,
                "duration": 0.0341,
                "tempo": 120.0
            },
            {
                "pitch": 0,
                "velocity": 0,
                "duration": 0.0182,
                "tempo": 0
            },
            {
                "pitch": 28,
                "velocity": 1,
                "duration": 0.0136,
                "tempo": 120.0
            },
            {
                "pitch": 26,
                "velocity": 1,
                "duration": 0.0341,
                "tempo": 120.0
            },
            {
                "pitch": 23,
                "velocity": 1,
                "duration": 0.0341,
                "tempo": 120.0
            },
            {
                "pitch": 0,
                "velocity": 0,
                "duration": 0.5364,
                "tempo": 0
            },
            {
                "pitch": 23,
                "velocity": 1,
                "duration": 0.8159,
                "tempo": 120.0
            },
            {
                "pitch": 0,
                "velocity": 0,
                "duration": 0.0182,
                "tempo": 0
            },
            {
                "pitch": 23,
                "velocity": 1,
                "duration": 0.375,
                "tempo": 120.0
            },
            {
                "pitch": 0,
                "velocity": 0,
                "duration": 0.4182,
                "tempo": 0
            },
            {
                "pitch": 23,
                "velocity": 1,
                "duration": 0.7932,
                "tempo": 120.0
            },
            {
                "pitch": 0,
                "velocity": 0,
                "duration": 0.0182,
                "tempo": 0
            },
            {
                "pitch": 23,
                "velocity": 1,
                "duration": 0.0818,
                "tempo": 120.0
            },
            {
                "pitch": 0,
                "velocity": 0,
                "duration": 0.0159,
                "tempo": 0
            },
            {
                "pitch": 23,
                "velocity": 1,
                "duration": 0.0818,
                "tempo": 120.0
            },
            {
                "pitch": 0,
                "velocity": 0,
                "duration": 0.0182,
                "tempo": 0
            },
            {
                "pitch": 23,
                "velocity": 1,
                "duration": 0.0795,
                "tempo": 120.0
            },
            {
                "pitch": 0,
                "velocity": 0,
                "duration": 0.0182,
                "tempo": 0
            },
            {
                "pitch": 23,
                "velocity": 1,
                "duration": 0.0818,
                "tempo": 120.0
            },
            {
                "pitch": 0,
                "velocity": 0,
                "duration": 0.0205,
                "tempo": 0
            },
            {
                "pitch": 36,
                "velocity": 1,
                "duration": 0.0114,
                "tempo": 120.0
            },
            {
                "pitch": 33,
                "velocity": 1,
                "duration": 0.0318,
                "tempo": 120.0
            },
            {
                "pitch": 31,
                "velocity": 1,
                "duration": 0.0341,
                "tempo": 120.0
            },
            {
                "pitch": 27,
                "velocity": 1,
                "duration": 0.0182,
                "tempo": 120.0
            },
            {
                "pitch": 25,
                "velocity": 1,
                "duration": 0.0159,
                "tempo": 120.0
            },
            {
                "pitch": 0,
                "velocity": 0,
                "duration": 0.0182,
                "tempo": 0
            },
            {
                "pitch": 36,
                "velocity": 1,
                "duration": 0.0136,
                "tempo": 120.0
            },
            {
                "pitch": 33,
                "velocity": 1,
                "duration": 0.0341,
                "tempo": 120.0
            },
            {
                "pitch": 31,
                "velocity": 1,
                "duration": 0.0341,
                "tempo": 120.0
            },
            {
                "pitch": 27,
                "velocity": 1,
                "duration": 0.0159,
                "tempo": 120.0
            },
            {
                "pitch": 25,
                "velocity": 1,
                "duration": 0.0182,
                "tempo": 120.0
            },
            {
                "pitch": 0,
                "velocity": 0,
                "duration": 0.0182,
                "tempo": 0
            },
            {
                "pitch": 36,
                "velocity": 1,
                "duration": 0.0136,
                "tempo": 120.0
            },
            {
                "pitch": 33,
                "velocity": 1,
                "duration": 0.0341,
                "tempo": 120.0
            },
            {
                "pitch": 31,
                "velocity": 1,
                "duration": 0.0341,
                "tempo": 120.0
            },
            {
                "pitch": 27,
                "velocity": 1,
                "duration": 0.0159,
                "tempo": 120.0
            },
            {
                "pitch": 25,
                "velocity": 1,
                "duration": 0.0182,
                "tempo": 120.0
            },
            {
                "pitch": 0,
                "velocity": 0,
                "duration": 0.0182,
                "tempo": 0
            },
            {
                "pitch": 32,
                "velocity": 1,
                "duration": 0.0136,
                "tempo": 120.0
            },
            {
                "pitch": 42,
                "velocity": 1,
                "duration": 4.2545,
                "tempo": 120.0
            },
            {
                "pitch": 30,
                "velocity": 1,
                "duration": 0.0341,
                "tempo": 120.0
            },
            {
                "pitch": 27,
                "velocity": 1,
                "duration": 0.0341,
                "tempo": 120.0
            },
            {
                "pitch": 24,
                "velocity": 1,
                "duration": 0.0364,
                "tempo": 120.0
            },
            {
                "pitch": 0,
                "velocity": 0,
                "duration": 0.0182,
                "tempo": 0
            },
            {
                "pitch": 32,
                "velocity": 1,
                "duration": 0.0159,
                "tempo": 120.0
            },
            {
                "pitch": 42,
                "velocity": 1,
                "duration": 0.1386,
                "tempo": 120.0
            },
            {
                "pitch": 30,
                "velocity": 1,
                "duration": 0.0341,
                "tempo": 120.0
            },
            {
                "pitch": 27,
                "velocity": 1,
                "duration": 0.0341,
                "tempo": 120.0
            },
            {
                "pitch": 24,
                "velocity": 1,
                "duration": 0.0341,
                "tempo": 120.0
            },
            {
                "pitch": 0,
                "velocity": 0,
                "duration": 0.0182,
                "tempo": 0
            },
            {
                "pitch": 32,
                "velocity": 1,
                "duration": 0.0159,
                "tempo": 120.0
            },
            {
                "pitch": 42,
                "velocity": 1,
                "duration": 0.1364,
                "tempo": 120.0
            },
            {
                "pitch": 30,
                "velocity": 1,
                "duration": 0.0341,
                "tempo": 120.0
            },
            {
                "pitch": 27,
                "velocity": 1,
                "duration": 0.0341,
                "tempo": 120.0
            },
            {
                "pitch": 24,
                "velocity": 1,
                "duration": 0.0341,
                "tempo": 120.0
            },
            {
                "pitch": 0,
                "velocity": 0,
                "duration": 0.0182,
                "tempo": 0
            },
            {
                "pitch": 28,
                "velocity": 1,
                "duration": 0.0159,
                "tempo": 120.0
            },
            {
                "pitch": 26,
                "velocity": 1,
                "duration": 0.0318,
                "tempo": 120.0
            },
            {
                "pitch": 23,
                "velocity": 1,
                "duration": 0.0341,
                "tempo": 120.0
            },
            {
                "pitch": 0,
                "velocity": 0,
                "duration": 0.05,
                "tempo": 0
            },
            {
                "pitch": 28,
                "velocity": 1,
                "duration": 0.0136,
                "tempo": 120.0
            },
            {
                "pitch": 26,
                "velocity": 1,
                "duration": 0.0341,
                "tempo": 120.0
            },
            {
                "pitch": 23,
                "velocity": 1,
                "duration": 0.0318,
                "tempo": 120.0
            },
            {
                "pitch": 0,
                "velocity": 0,
                "duration": 0.0523,
                "tempo": 0
            },
            {
                "pitch": 28,
                "velocity": 1,
                "duration": 0.0136,
                "tempo": 120.0
            },
            {
                "pitch": 26,
                "velocity": 1,
                "duration": 0.0318,
                "tempo": 120.0
            },
            {
                "pitch": 23,
                "velocity": 1,
                "duration": 0.0341,
                "tempo": 120.0
            },
            {
                "pitch": 0,
                "velocity": 0,
                "duration": 0.0523,
                "tempo": 0
            },
            {
                "pitch": 23,
                "velocity": 1,
                "duration": 0.1159,
                "tempo": 120.0
            },
            {
                "pitch": 0,
                "velocity": 0,
                "duration": 0.0205,
                "tempo": 0
            },
            {
                "pitch": 32,
                "velocity": 1,
                "duration": 0.0136,
                "tempo": 120.0
            },
            {
                "pitch": 42,
                "velocity": 1,
                "duration": 0.6659,
                "tempo": 120.0
            },
            {
                "pitch": 30,
                "velocity": 1,
                "duration": 0.0341,
                "tempo": 120.0
            },
            {
                "pitch": 27,
                "velocity": 1,
                "duration": 0.0341,
                "tempo": 120.0
            },
            {
                "pitch": 24,
                "velocity": 1,
                "duration": 0.0341,
                "tempo": 120.0
            },
            {
                "pitch": 21,
                "velocity": 1,
                "duration": 0.0182,
                "tempo": 120.0
            },
            {
                "pitch": 0,
                "velocity": 0,
                "duration": 0.0205,
                "tempo": 0
            },
            {
                "pitch": 23,
                "velocity": 1,
                "duration": 0.1159,
                "tempo": 120.0
            }
        ],
        "Acoustic Grand Piano": [
            {
                "pitch": 0,
                "velocity": 0,
                "duration": 45.7386,
                "tempo": 0
            },
            {
                "pitch": 108,
                "velocity": 15,
                "duration": 0.1,
                "tempo": 120.0
            }
        ]
    }
}