{
    "track_id": "Altered Beast (FM) - 02 - Transformed_6",
    "mood": "angry",
    "instruments": {
        "Lead 1 (square)": [
            {
                "pitch": 0,
                "velocity": 0,
                "duration": 26.5932,
                "tempo": 0
            },
            {
                "pitch": 59,
                "velocity": 4,
                "duration": 0.0841,
                "tempo": 120.0
            },
            {
                "pitch": 0,
                "velocity": 0,
                "duration": 0.1159,
                "tempo": 0
            },
            {
                "pitch": 52,
                "velocity": 4,
                "duration": 0.0841,
                "tempo": 120.0
            },
            {
                "pitch": 0,
                "velocity": 0,
                "duration": 0.0159,
                "tempo": 0
            },
            {
                "pitch": 57,
                "velocity": 4,
                "duration": 0.0841,
                "tempo": 120.0
            },
            {
                "pitch": 0,
                "velocity": 0,
                "duration": 0.1182,
                "tempo": 0
            },
            {
                "pitch": 52,
                "velocity": 4,
                "duration": 0.0841,
                "tempo": 120.0
            },
            {
                "pitch": 0,
                "velocity": 0,
                "duration": 0.1182,
                "tempo": 0
            },
            {
                "pitch": 55,
                "velocity": 4,
                "duration": 0.0659,
                "tempo": 120.0
            },
            {
                "pitch": 55,
                "velocity": 4,
                "duration": 0.0159,
                "tempo": 120.0
            },
            {
                "pitch": 0,
                "velocity": 0,
                "duration": 0.1182,
                "tempo": 0
            },
            {
                "pitch": 57,
                "velocity": 4,
                "duration": 0.0818,
                "tempo": 120.0
            },
            {
                "pitch": 0,
                "velocity": 0,
                "duration": 0.1182,
                "tempo": 0
            },
            {
                "pitch": 55,
                "velocity": 4,
                "duration": 0.0659,
                "tempo": 120.0
            },
            {
                "pitch": 55,
                "velocity": 4,
                "duration": 0.0182,
                "tempo": 120.0
            },
            {
                "pitch": 0,
                "velocity": 0,
                "duration": 0.1159,
                "tempo": 0
            },
            {
                "pitch": 52,
                "velocity": 4,
                "duration": 0.0841,
                "tempo": 120.0
            },
            {
                "pitch": 0,
                "velocity": 0,
                "duration": 0.1182,
                "tempo": 0
            },
            {
                "pitch": 50,
                "velocity": 4,
                "duration": 0.0818,
                "tempo": 120.0
            },
            {
                "pitch": 0,
                "velocity": 0,
                "duration": 0.0182,
                "tempo": 0
            },
            {
                "pitch": 57,
                "velocity": 4,
                "duration": 0.0818,
                "tempo": 120.0
            },
            {
                "pitch": 0,
                "velocity": 0,
                "duration": 0.1182,
                "tempo": 0
            },
            {
                "pitch": 50,
                "velocity": 4,
                "duration": 0.0818,
                "tempo": 120.0
            },
            {
                "pitch": 0,
                "velocity": 0,
                "duration": 0.0182,
                "tempo": 0
            },
            {
                "pitch": 55,
                "velocity": 4,
                "duration": 0.0659,
                "tempo": 120.0
            },
            {
                "pitch": 55,
                "velocity": 4,
                "duration": 0.0159,
                "tempo": 120.0
            },
            {
                "pitch": 0,
                "velocity": 0,
                "duration": 0.1182,
                "tempo": 0
            },
            {
                "pitch": 50,
                "velocity": 4,
                "duration": 0.0818,
                "tempo": 120.0
            },
            {
                "pitch": 0,
                "velocity": 0,
                "duration": 0.1182,
                "tempo": 0
            },
            {
                "pitch": 53,
                "velocity": 4,
                "duration": 0.0841,
                "tempo": 120.0
            },
            {
                "pitch": 0,
                "velocity": 0,
                "duration": 0.1159,
                "tempo": 0
            },
            {
                "pitch": 55,
                "velocity": 4,
                "duration": 0.0682,
                "tempo": 120.0
            },
            {
                "pitch": 55,
                "velocity": 4,
                "duration": 0.0159,
                "tempo": 120.0
            },
            {
                "pitch": 0,
                "velocity": 0,
                "duration": 0.1182,
                "tempo": 0
            },
            {
                "pitch": 53,
                "velocity": 4,
                "duration": 0.0841,
                "tempo": 120.0
            },
            {
                "pitch": 0,
                "velocity": 0,
                "duration": 0.1159,
                "tempo": 0
            },
            {
                "pitch": 50,
                "velocity": 4,
                "duration": 0.0841,
                "tempo": 120.0
            },
            {
                "pitch": 0,
                "velocity": 0,
                "duration": 0.1159,
                "tempo": 0
            },
            {
                "pitch": 55,
                "velocity": 4,
                "duration": 0.0682,
                "tempo": 120.0
            },
            {
                "pitch": 55,
                "velocity": 4,
                "duration": 0.0159,
                "tempo": 120.0
            },
            {
                "pitch": 0,
                "velocity": 0,
                "duration": 0.0159,
                "tempo": 0
            },
            {
                "pitch": 62,
                "velocity": 4,
                "duration": 0.0841,
                "tempo": 120.0
            },
            {
                "pitch": 0,
                "velocity": 0,
                "duration": 0.1182,
                "tempo": 0
            },
            {
                "pitch": 55,
                "velocity": 4,
                "duration": 0.0659,
                "tempo": 120.0
            },
            {
                "pitch": 55,
                "velocity": 4,
                "duration": 0.0182,
                "tempo": 120.0
            },
            {
                "pitch": 0,
                "velocity": 0,
                "duration": 0.0159,
                "tempo": 0
            },
            {
                "pitch": 60,
                "velocity": 4,
                "duration": 0.0841,
                "tempo": 120.0
            },
            {
                "pitch": 0,
                "velocity": 0,
                "duration": 0.1159,
                "tempo": 0
            },
            {
                "pitch": 55,
                "velocity": 4,
                "duration": 0.0659,
                "tempo": 120.0
            },
            {
                "pitch": 55,
                "velocity": 4,
                "duration": 0.0182,
                "tempo": 120.0
            },
            {
                "pitch": 0,
                "velocity": 0,
                "duration": 0.1159,
                "tempo": 0
            },
            {
                "pitch": 59,
                "velocity": 4,
                "duration": 0.0841,
                "tempo": 120.0
            },
            {
                "pitch": 0,
                "velocity": 0,
                "duration": 0.1159,
                "tempo": 0
            },
            {
                "pitch": 60,
                "velocity": 4,
                "duration": 0.0841,
                "tempo": 120.0
            },
            {
                "pitch": 0,
                "velocity": 0,
                "duration": 0.1159,
                "tempo": 0
            },
            {
                "pitch": 59,
                "velocity": 4,
                "duration": 0.0841,
                "tempo": 120.0
            },
            {
                "pitch": 0,
                "velocity": 0,
                "duration": 0.1182,
                "tempo": 0
            },
            {
                "pitch": 55,
                "velocity": 4,
                "duration": 0.0659,
                "tempo": 120.0
            },
            {
                "pitch": 55,
                "velocity": 4,
                "duration": 0.0182,
                "tempo": 120.0
            },
            {
                "pitch": 0,
                "velocity": 0,
                "duration": 0.1159,
                "tempo": 0
            },
            {
                "pitch": 52,
                "velocity": 4,
                "duration": 0.0841,
                "tempo": 120.0
            },
            {
                "pitch": 0,
                "velocity": 0,
                "duration": 0.0159,
                "tempo": 0
            },
            {
                "pitch": 59,
                "velocity": 4,
                "duration": 0.0841,
                "tempo": 120.0
            },
            {
                "pitch": 0,
                "velocity": 0,
                "duration": 0.1159,
                "tempo": 0
            },
            {
                "pitch": 52,
                "velocity": 4,
                "duration": 0.0841,
                "tempo": 120.0
            },
            {
                "pitch": 0,
                "velocity": 0,
                "duration": 0.0159,
                "tempo": 0
            },
            {
                "pitch": 57,
                "velocity": 4,
                "duration": 0.0841,
                "tempo": 120.0
            },
            {
                "pitch": 0,
                "velocity": 0,
                "duration": 0.1182,
                "tempo": 0
            },
            {
                "pitch": 52,
                "velocity": 4,
                "duration": 0.0841,
                "tempo": 120.0
            },
            {
                "pitch": 0,
                "velocity": 0,
                "duration": 0.1182,
                "tempo": 0
            },
            {
                "pitch": 55,
                "velocity": 4,
                "duration": 0.0659,
                "tempo": 120.0
            },
            {
                "pitch": 55,
                "velocity": 4,
                "duration": 0.0159,
                "tempo": 120.0
            },
            {
                "pitch": 0,
                "velocity": 0,
                "duration": 0.1182,
                "tempo": 0
            },
            {
                "pitch": 57,
                "velocity": 4,
                "duration": 0.0818,
                "tempo": 120.0
            },
            {
                "pitch": 0,
                "velocity": 0,
                "duration": 0.1182,
                "tempo": 0
            },
            {
                "pitch": 55,
                "velocity": 4,
                "duration": 0.0659,
                "tempo": 120.0
            },
            {
                "pitch": 55,
                "velocity": 4,
                "duration": 0.0159,
                "tempo": 120.0
            },
            {
                "pitch": 0,
                "velocity": 0,
                "duration": 0.1182,
                "tempo": 0
            },
            {
                "pitch": 52,
                "velocity": 4,
                "duration": 0.0818,
                "tempo": 120.0
            },
            {
                "pitch": 0,
                "velocity": 0,
                "duration": 0.1182,
                "tempo": 0
            },
            {
                "pitch": 50,
                "velocity": 4,
                "duration": 0.0818,
                "tempo": 120.0
            },
            {
                "pitch": 0,
                "velocity": 0,
                "duration": 0.0182,
                "tempo": 0
            },
            {
                "pitch": 57,
                "velocity": 4,
                "duration": 0.0818,
                "tempo": 120.0
            },
            {
                "pitch": 0,
                "velocity": 0,
                "duration": 0.1182,
                "tempo": 0
            },
            {
                "pitch": 50,
                "velocity": 4,
                "duration": 0.0818,
                "tempo": 120.0
            },
            {
                "pitch": 0,
                "velocity": 0,
                "duration": 0.0182,
                "tempo": 0
            },
            {
                "pitch": 55,
                "velocity": 4,
                "duration": 0.0659,
                "tempo": 120.0
            },
            {
                "pitch": 55,
                "velocity": 4,
                "duration": 0.0159,
                "tempo": 120.0
            },
            {
                "pitch": 0,
                "velocity": 0,
                "duration": 0.1182,
                "tempo": 0
            },
            {
                "pitch": 50,
                "velocity": 4,
                "duration": 0.0841,
                "tempo": 120.0
            },
            {
                "pitch": 0,
                "velocity": 0,
                "duration": 0.1182,
                "tempo": 0
            },
            {
                "pitch": 53,
                "velocity": 4,
                "duration": 0.0818,
                "tempo": 120.0
            },
            {
                "pitch": 0,
                "velocity": 0,
                "duration": 0.1182,
                "tempo": 0
            },
            {
                "pitch": 55,
                "velocity": 4,
                "duration": 0.0659,
                "tempo": 120.0
            },
            {
                "pitch": 55,
                "velocity": 4,
                "duration": 0.0159,
                "tempo": 120.0
            },
            {
                "pitch": 0,
                "velocity": 0,
                "duration": 0.1182,
                "tempo": 0
            },
            {
                "pitch": 53,
                "velocity": 4,
                "duration": 0.0818,
                "tempo": 120.0
            },
            {
                "pitch": 0,
                "velocity": 0,
                "duration": 0.1182,
                "tempo": 0
            },
            {
                "pitch": 50,
                "velocity": 4,
                "duration": 0.0818,
                "tempo": 120.0
            },
            {
                "pitch": 0,
                "velocity": 0,
                "duration": 0.1182,
                "tempo": 0
            },
            {
                "pitch": 52,
                "velocity": 4,
                "duration": 0.0818,
                "tempo": 120.0
            },
            {
                "pitch": 0,
                "velocity": 0,
                "duration": 0.0182,
                "tempo": 0
            },
            {
                "pitch": 59,
                "velocity": 4,
                "duration": 0.0818,
                "tempo": 120.0
            },
            {
                "pitch": 0,
                "velocity": 0,
                "duration": 0.1182,
                "tempo": 0
            },
            {
                "pitch": 52,
                "velocity": 4,
                "duration": 0.0818,
                "tempo": 120.0
            },
            {
                "pitch": 0,
                "velocity": 0,
                "duration": 0.0182,
                "tempo": 0
            },
            {
                "pitch": 57,
                "velocity": 4,
                "duration": 0.0818,
                "tempo": 120.0
            },
            {
                "pitch": 0,
                "velocity": 0,
                "duration": 0.1182,
                "tempo": 0
            },
            {
                "pitch": 52,
                "velocity": 4,
                "duration": 0.0818,
                "tempo": 120.0
            },
            {
                "pitch": 0,
                "velocity": 0,
                "duration": 0.1182,
                "tempo": 0
            },
            {
                "pitch": 55,
                "velocity": 4,
                "duration": 0.0659,
                "tempo": 120.0
            },
            {
                "pitch": 55,
                "velocity": 4,
                "duration": 0.0182,
                "tempo": 120.0
            },
            {
                "pitch": 0,
                "velocity": 0,
                "duration": 0.1159,
                "tempo": 0
            },
            {
                "pitch": 57,
                "velocity": 4,
                "duration": 0.0841,
                "tempo": 120.0
            },
            {
                "pitch": 0,
                "velocity": 0,
                "duration": 0.1182,
                "tempo": 0
            },
            {
                "pitch": 55,
                "velocity": 4,
                "duration": 0.0659,
                "tempo": 120.0
            },
            {
                "pitch": 55,
                "velocity": 4,
                "duration": 0.0182,
                "tempo": 120.0
            },
            {
                "pitch": 0,
                "velocity": 0,
                "duration": 0.1159,
                "tempo": 0
            },
            {
                "pitch": 52,
                "velocity": 4,
                "duration": 0.0841,
                "tempo": 120.0
            },
            {
                "pitch": 0,
                "velocity": 0,
                "duration": 0.1159,
                "tempo": 0
            },
            {
                "pitch": 57,
                "velocity": 4,
                "duration": 0.0841,
                "tempo": 120.0
            },
            {
                "pitch": 0,
                "velocity": 0,
                "duration": 0.0159,
                "tempo": 0
            },
            {
                "pitch": 64,
                "velocity": 4,
                "duration": 0.0841,
                "tempo": 120.0
            },
            {
                "pitch": 0,
                "velocity": 0,
                "duration": 0.1159,
                "tempo": 0
            },
            {
                "pitch": 57,
                "velocity": 4,
                "duration": 0.0841,
                "tempo": 120.0
            },
            {
                "pitch": 0,
                "velocity": 0,
                "duration": 0.0159,
                "tempo": 0
            },
            {
                "pitch": 62,
                "velocity": 4,
                "duration": 0.0841,
                "tempo": 120.0
            },
            {
                "pitch": 0,
                "velocity": 0,
                "duration": 0.1159,
                "tempo": 0
            },
            {
                "pitch": 57,
                "velocity": 4,
                "duration": 0.0841,
                "tempo": 120.0
            },
            {
                "pitch": 0,
                "velocity": 0,
                "duration": 0.1159,
                "tempo": 0
            },
            {
                "pitch": 60,
                "velocity": 4,
                "duration": 0.0841,
                "tempo": 120.0
            },
            {
                "pitch": 0,
                "velocity": 0,
                "duration": 0.1159,
                "tempo": 0
            },
            {
                "pitch": 62,
                "velocity": 4,
                "duration": 0.0841,
                "tempo": 120.0
            },
            {
                "pitch": 0,
                "velocity": 0,
                "duration": 0.1159,
                "tempo": 0
            },
            {
                "pitch": 55,
                "velocity": 4,
                "duration": 0.0659,
                "tempo": 120.0
            },
            {
                "pitch": 55,
                "velocity": 4,
                "duration": 0.0159,
                "tempo": 120.0
            },
            {
                "pitch": 0,
                "velocity": 0,
                "duration": 0.1136,
                "tempo": 0
            },
            {
                "pitch": 52,
                "velocity": 4,
                "duration": 0.0818,
                "tempo": 120.0
            },
            {
                "pitch": 0,
                "velocity": 0,
                "duration": 0.1136,
                "tempo": 0
            },
            {
                "pitch": 57,
                "velocity": 4,
                "duration": 0.0864,
                "tempo": 120.0
            },
            {
                "pitch": 0,
                "velocity": 0,
                "duration": 0.0182,
                "tempo": 0
            },
            {
                "pitch": 64,
                "velocity": 4,
                "duration": 0.0841,
                "tempo": 120.0
            },
            {
                "pitch": 0,
                "velocity": 0,
                "duration": 0.1205,
                "tempo": 0
            },
            {
                "pitch": 57,
                "velocity": 4,
                "duration": 0.0864,
                "tempo": 120.0
            },
            {
                "pitch": 0,
                "velocity": 0,
                "duration": 0.0159,
                "tempo": 0
            },
            {
                "pitch": 62,
                "velocity": 4,
                "duration": 0.0841,
                "tempo": 120.0
            },
            {
                "pitch": 0,
                "velocity": 0,
                "duration": 0.1159,
                "tempo": 0
            },
            {
                "pitch": 57,
                "velocity": 4,
                "duration": 0.0841,
                "tempo": 120.0
            },
            {
                "pitch": 0,
                "velocity": 0,
                "duration": 0.1159,
                "tempo": 0
            },
            {
                "pitch": 60,
                "velocity": 4,
                "duration": 0.0841,
                "tempo": 120.0
            },
            {
                "pitch": 0,
                "velocity": 0,
                "duration": 0.1159,
                "tempo": 0
            },
            {
                "pitch": 62,
                "velocity": 4,
                "duration": 0.0841,
                "tempo": 120.0
            },
            {
                "pitch": 0,
                "velocity": 0,
                "duration": 0.1159,
                "tempo": 0
            },
            {
                "pitch": 55,
                "velocity": 4,
                "duration": 0.0682,
                "tempo": 120.0
            },
            {
                "pitch": 55,
                "velocity": 4,
                "duration": 0.0159,
                "tempo": 120.0
            },
            {
                "pitch": 0,
                "velocity": 0,
                "duration": 0.1159,
                "tempo": 0
            },
            {
                "pitch": 52,
                "velocity": 4,
                "duration": 0.0841,
                "tempo": 120.0
            },
            {
                "pitch": 0,
                "velocity": 0,
                "duration": 0.1159,
                "tempo": 0
            },
            {
                "pitch": 52,
                "velocity": 4,
                "duration": 0.0841,
                "tempo": 120.0
            },
            {
                "pitch": 0,
                "velocity": 0,
                "duration": 0.0159,
                "tempo": 0
            },
            {
                "pitch": 59,
                "velocity": 4,
                "duration": 0.0841,
                "tempo": 120.0
            },
            {
                "pitch": 0,
                "velocity": 0,
                "duration": 0.1182,
                "tempo": 0
            },
            {
                "pitch": 52,
                "velocity": 4,
                "duration": 0.0841,
                "tempo": 120.0
            },
            {
                "pitch": 0,
                "velocity": 0,
                "duration": 0.0159,
                "tempo": 0
            },
            {
                "pitch": 57,
                "velocity": 4,
                "duration": 0.0841,
                "tempo": 120.0
            },
            {
                "pitch": 0,
                "velocity": 0,
                "duration": 0.1159,
                "tempo": 0
            },
            {
                "pitch": 52,
                "velocity": 4,
                "duration": 0.0841,
                "tempo": 120.0
            },
            {
                "pitch": 0,
                "velocity": 0,
                "duration": 0.1159,
                "tempo": 0
            },
            {
                "pitch": 55,
                "velocity": 4,
                "duration": 0.0682,
                "tempo": 120.0
            },
            {
                "pitch": 55,
                "velocity": 4,
                "duration": 0.0159,
                "tempo": 120.0
            },
            {
                "pitch": 0,
                "velocity": 0,
                "duration": 0.1159,
                "tempo": 0
            },
            {
                "pitch": 57,
                "velocity": 4,
                "duration": 0.0841,
                "tempo": 120.0
            },
            {
                "pitch": 0,
                "velocity": 0,
                "duration": 0.1159,
                "tempo": 0
            },
            {
                "pitch": 55,
                "velocity": 4,
                "duration": 0.0682,
                "tempo": 120.0
            },
            {
                "pitch": 55,
                "velocity": 4,
                "duration": 0.0159,
                "tempo": 120.0
            },
            {
                "pitch": 0,
                "velocity": 0,
                "duration": 0.1159,
                "tempo": 0
            },
            {
                "pitch": 52,
                "velocity": 4,
                "duration": 0.0841,
                "tempo": 120.0
            },
            {
                "pitch": 0,
                "velocity": 0,
                "duration": 0.1159,
                "tempo": 0
            },
            {
                "pitch": 50,
                "velocity": 4,
                "duration": 0.0841,
                "tempo": 120.0
            },
            {
                "pitch": 0,
                "velocity": 0,
                "duration": 0.0159,
                "tempo": 0
            },
            {
                "pitch": 57,
                "velocity": 4,
                "duration": 0.0841,
                "tempo": 120.0
            },
            {
                "pitch": 0,
                "velocity": 0,
                "duration": 0.1159,
                "tempo": 0
            },
            {
                "pitch": 50,
                "velocity": 4,
                "duration": 0.0841,
                "tempo": 120.0
            },
            {
                "pitch": 0,
                "velocity": 0,
                "duration": 0.0159,
                "tempo": 0
            },
            {
                "pitch": 55,
                "velocity": 4,
                "duration": 0.0682,
                "tempo": 120.0
            },
            {
                "pitch": 55,
                "velocity": 4,
                "duration": 0.0159,
                "tempo": 120.0
            },
            {
                "pitch": 0,
                "velocity": 0,
                "duration": 0.1182,
                "tempo": 0
            },
            {
                "pitch": 50,
                "velocity": 4,
                "duration": 0.0841,
                "tempo": 120.0
            },
            {
                "pitch": 0,
                "velocity": 0,
                "duration": 0.1182,
                "tempo": 0
            },
            {
                "pitch": 53,
                "velocity": 4,
                "duration": 0.0818,
                "tempo": 120.0
            },
            {
                "pitch": 0,
                "velocity": 0,
                "duration": 0.1182,
                "tempo": 0
            },
            {
                "pitch": 55,
                "velocity": 4,
                "duration": 0.0659,
                "tempo": 120.0
            },
            {
                "pitch": 55,
                "velocity": 4,
                "duration": 0.0159,
                "tempo": 120.0
            },
            {
                "pitch": 0,
                "velocity": 0,
                "duration": 0.1182,
                "tempo": 0
            },
            {
                "pitch": 53,
                "velocity": 4,
                "duration": 0.0818,
                "tempo": 120.0
            },
            {
                "pitch": 0,
                "velocity": 0,
                "duration": 0.1182,
                "tempo": 0
            },
            {
                "pitch": 50,
                "velocity": 4,
                "duration": 0.0818,
                "tempo": 120.0
            },
            {
                "pitch": 0,
                "velocity": 0,
                "duration": 0.1182,
                "tempo": 0
            },
            {
                "pitch": 55,
                "velocity": 4,
                "duration": 0.0659,
                "tempo": 120.0
            },
            {
                "pitch": 55,
                "velocity": 4,
                "duration": 0.0159,
                "tempo": 120.0
            },
            {
                "pitch": 0,
                "velocity": 0,
                "duration": 0.0182,
                "tempo": 0
            },
            {
                "pitch": 62,
                "velocity": 4,
                "duration": 0.0818,
                "tempo": 120.0
            },
            {
                "pitch": 0,
                "velocity": 0,
                "duration": 0.1182,
                "tempo": 0
            },
            {
                "pitch": 55,
                "velocity": 4,
                "duration": 0.0659,
                "tempo": 120.0
            },
            {
                "pitch": 55,
                "velocity": 4,
                "duration": 0.0159,
                "tempo": 120.0
            },
            {
                "pitch": 0,
                "velocity": 0,
                "duration": 0.0182,
                "tempo": 0
            },
            {
                "pitch": 60,
                "velocity": 4,
                "duration": 0.0818,
                "tempo": 120.0
            },
            {
                "pitch": 0,
                "velocity": 0,
                "duration": 0.1182,
                "tempo": 0
            },
            {
                "pitch": 55,
                "velocity": 4,
                "duration": 0.0659,
                "tempo": 120.0
            },
            {
                "pitch": 55,
                "velocity": 4,
                "duration": 0.0159,
                "tempo": 120.0
            },
            {
                "pitch": 0,
                "velocity": 0,
                "duration": 0.1182,
                "tempo": 0
            },
            {
                "pitch": 59,
                "velocity": 4,
                "duration": 0.0818,
                "tempo": 120.0
            },
            {
                "pitch": 0,
                "velocity": 0,
                "duration": 0.1182,
                "tempo": 0
            },
            {
                "pitch": 60,
                "velocity": 4,
                "duration": 0.0841,
                "tempo": 120.0
            },
            {
                "pitch": 0,
                "velocity": 0,
                "duration": 0.1182,
                "tempo": 0
            },
            {
                "pitch": 59,
                "velocity": 4,
                "duration": 0.0818,
                "tempo": 120.0
            },
            {
                "pitch": 0,
                "velocity": 0,
                "duration": 0.1182,
                "tempo": 0
            },
            {
                "pitch": 55,
                "velocity": 4,
                "duration": 0.0659,
                "tempo": 120.0
            },
            {
                "pitch": 55,
                "velocity": 4,
                "duration": 0.0159,
                "tempo": 120.0
            },
            {
                "pitch": 0,
                "velocity": 0,
                "duration": 0.1182,
                "tempo": 0
            },
            {
                "pitch": 52,
                "velocity": 4,
                "duration": 0.0818,
                "tempo": 120.0
            },
            {
                "pitch": 0,
                "velocity": 0,
                "duration": 0.0182,
                "tempo": 0
            },
            {
                "pitch": 59,
                "velocity": 4,
                "duration": 0.0818,
                "tempo": 120.0
            },
            {
                "pitch": 0,
                "velocity": 0,
                "duration": 0.1182,
                "tempo": 0
            },
            {
                "pitch": 52,
                "velocity": 4,
                "duration": 0.0818,
                "tempo": 120.0
            },
            {
                "pitch": 0,
                "velocity": 0,
                "duration": 0.0182,
                "tempo": 0
            },
            {
                "pitch": 57,
                "velocity": 4,
                "duration": 0.0818,
                "tempo": 120.0
            },
            {
                "pitch": 0,
                "velocity": 0,
                "duration": 0.1182,
                "tempo": 0
            },
            {
                "pitch": 52,
                "velocity": 4,
                "duration": 0.0818,
                "tempo": 120.0
            },
            {
                "pitch": 0,
                "velocity": 0,
                "duration": 0.1182,
                "tempo": 0
            },
            {
                "pitch": 55,
                "velocity": 4,
                "duration": 0.0659,
                "tempo": 120.0
            },
            {
                "pitch": 55,
                "velocity": 4,
                "duration": 0.0159,
                "tempo": 120.0
            },
            {
                "pitch": 0,
                "velocity": 0,
                "duration": 0.1182,
                "tempo": 0
            },
            {
                "pitch": 57,
                "velocity": 4,
                "duration": 0.0818,
                "tempo": 120.0
            },
            {
                "pitch": 0,
                "velocity": 0,
                "duration": 0.1182,
                "tempo": 0
            },
            {
                "pitch": 55,
                "velocity": 4,
                "duration": 0.0659,
                "tempo": 120.0
            },
            {
                "pitch": 55,
                "velocity": 4,
                "duration": 0.0182,
                "tempo": 120.0
            },
            {
                "pitch": 0,
                "velocity": 0,
                "duration": 0.1159,
                "tempo": 0
            },
            {
                "pitch": 52,
                "velocity": 4,
                "duration": 0.0841,
                "tempo": 120.0
            },
            {
                "pitch": 0,
                "velocity": 0,
                "duration": 0.1182,
                "tempo": 0
            },
            {
                "pitch": 50,
                "velocity": 4,
                "duration": 0.0841,
                "tempo": 120.0
            },
            {
                "pitch": 0,
                "velocity": 0,
                "duration": 0.0159,
                "tempo": 0
            },
            {
                "pitch": 57,
                "velocity": 4,
                "duration": 0.0841,
                "tempo": 120.0
            },
            {
                "pitch": 0,
                "velocity": 0,
                "duration": 0.1159,
                "tempo": 0
            },
            {
                "pitch": 50,
                "velocity": 4,
                "duration": 0.0841,
                "tempo": 120.0
            },
            {
                "pitch": 0,
                "velocity": 0,
                "duration": 0.0159,
                "tempo": 0
            },
            {
                "pitch": 55,
                "velocity": 4,
                "duration": 0.0659,
                "tempo": 120.0
            },
            {
                "pitch": 55,
                "velocity": 4,
                "duration": 0.0182,
                "tempo": 120.0
            },
            {
                "pitch": 0,
                "velocity": 0,
                "duration": 0.1159,
                "tempo": 0
            },
            {
                "pitch": 50,
                "velocity": 4,
                "duration": 0.0841,
                "tempo": 120.0
            },
            {
                "pitch": 0,
                "velocity": 0,
                "duration": 0.1159,
                "tempo": 0
            },
            {
                "pitch": 53,
                "velocity": 4,
                "duration": 0.0841,
                "tempo": 120.0
            },
            {
                "pitch": 0,
                "velocity": 0,
                "duration": 0.1159,
                "tempo": 0
            },
            {
                "pitch": 55,
                "velocity": 4,
                "duration": 0.0659,
                "tempo": 120.0
            },
            {
                "pitch": 55,
                "velocity": 4,
                "duration": 0.0182,
                "tempo": 120.0
            },
            {
                "pitch": 0,
                "velocity": 0,
                "duration": 0.1159,
                "tempo": 0
            },
            {
                "pitch": 53,
                "velocity": 4,
                "duration": 0.0841,
                "tempo": 120.0
            },
            {
                "pitch": 0,
                "velocity": 0,
                "duration": 0.1159,
                "tempo": 0
            },
            {
                "pitch": 50,
                "velocity": 4,
                "duration": 0.0841,
                "tempo": 120.0
            },
            {
                "pitch": 0,
                "velocity": 0,
                "duration": 0.1159,
                "tempo": 0
            },
            {
                "pitch": 52,
                "velocity": 4,
                "duration": 0.0841,
                "tempo": 120.0
            },
            {
                "pitch": 0,
                "velocity": 0,
                "duration": 0.0159,
                "tempo": 0
            },
            {
                "pitch": 59,
                "velocity": 4,
                "duration": 0.0841,
                "tempo": 120.0
            },
            {
                "pitch": 0,
                "velocity": 0,
                "duration": 0.1182,
                "tempo": 0
            },
            {
                "pitch": 52,
                "velocity": 4,
                "duration": 0.0841,
                "tempo": 120.0
            },
            {
                "pitch": 0,
                "velocity": 0,
                "duration": 0.0159,
                "tempo": 0
            },
            {
                "pitch": 57,
                "velocity": 4,
                "duration": 0.0841,
                "tempo": 120.0
            },
            {
                "pitch": 0,
                "velocity": 0,
                "duration": 0.1159,
                "tempo": 0
            },
            {
                "pitch": 52,
                "velocity": 4,
                "duration": 0.0841,
                "tempo": 120.0
            },
            {
                "pitch": 0,
                "velocity": 0,
                "duration": 0.1159,
                "tempo": 0
            },
            {
                "pitch": 55,
                "velocity": 4,
                "duration": 0.0659,
                "tempo": 120.0
            },
            {
                "pitch": 55,
                "velocity": 4,
                "duration": 0.0182,
                "tempo": 120.0
            },
            {
                "pitch": 0,
                "velocity": 0,
                "duration": 0.1159,
                "tempo": 0
            },
            {
                "pitch": 57,
                "velocity": 4,
                "duration": 0.0841,
                "tempo": 120.0
            },
            {
                "pitch": 0,
                "velocity": 0,
                "duration": 0.1159,
                "tempo": 0
            },
            {
                "pitch": 55,
                "velocity": 4,
                "duration": 0.0659,
                "tempo": 120.0
            },
            {
                "pitch": 55,
                "velocity": 4,
                "duration": 0.0182,
                "tempo": 120.0
            },
            {
                "pitch": 0,
                "velocity": 0,
                "duration": 0.1159,
                "tempo": 0
            },
            {
                "pitch": 52,
                "velocity": 4,
                "duration": 0.0841,
                "tempo": 120.0
            },
            {
                "pitch": 0,
                "velocity": 0,
                "duration": 0.1159,
                "tempo": 0
            },
            {
                "pitch": 57,
                "velocity": 4,
                "duration": 0.0841,
                "tempo": 120.0
            },
            {
                "pitch": 0,
                "velocity": 0,
                "duration": 0.0159,
                "tempo": 0
            },
            {
                "pitch": 64,
                "velocity": 4,
                "duration": 0.0841,
                "tempo": 120.0
            },
            {
                "pitch": 0,
                "velocity": 0,
                "duration": 0.1159,
                "tempo": 0
            },
            {
                "pitch": 57,
                "velocity": 4,
                "duration": 0.0841,
                "tempo": 120.0
            },
            {
                "pitch": 0,
                "velocity": 0,
                "duration": 0.0159,
                "tempo": 0
            },
            {
                "pitch": 62,
                "velocity": 4,
                "duration": 0.0841,
                "tempo": 120.0
            },
            {
                "pitch": 0,
                "velocity": 0,
                "duration": 0.1182,
                "tempo": 0
            },
            {
                "pitch": 57,
                "velocity": 4,
                "duration": 0.0841,
                "tempo": 120.0
            },
            {
                "pitch": 0,
                "velocity": 0,
                "duration": 0.1159,
                "tempo": 0
            },
            {
                "pitch": 60,
                "velocity": 4,
                "duration": 0.0841,
                "tempo": 120.0
            },
            {
                "pitch": 0,
                "velocity": 0,
                "duration": 0.1159,
                "tempo": 0
            },
            {
                "pitch": 62,
                "velocity": 4,
                "duration": 0.0841,
                "tempo": 120.0
            },
            {
                "pitch": 0,
                "velocity": 0,
                "duration": 0.1159,
                "tempo": 0
            },
            {
                "pitch": 55,
                "velocity": 4,
                "duration": 0.0682,
                "tempo": 120.0
            },
            {
                "pitch": 55,
                "velocity": 4,
                "duration": 0.0159,
                "tempo": 120.0
            },
            {
                "pitch": 0,
                "velocity": 0,
                "duration": 0.1159,
                "tempo": 0
            },
            {
                "pitch": 52,
                "velocity": 4,
                "duration": 0.0841,
                "tempo": 120.0
            },
            {
                "pitch": 0,
                "velocity": 0,
                "duration": 0.1159,
                "tempo": 0
            },
            {
                "pitch": 57,
                "velocity": 4,
                "duration": 0.0841,
                "tempo": 120.0
            },
            {
                "pitch": 0,
                "velocity": 0,
                "duration": 0.0159,
                "tempo": 0
            },
            {
                "pitch": 64,
                "velocity": 4,
                "duration": 0.0841,
                "tempo": 120.0
            },
            {
                "pitch": 0,
                "velocity": 0,
                "duration": 0.1159,
                "tempo": 0
            },
            {
                "pitch": 57,
                "velocity": 4,
                "duration": 0.0841,
                "tempo": 120.0
            },
            {
                "pitch": 0,
                "velocity": 0,
                "duration": 0.0159,
                "tempo": 0
            },
            {
                "pitch": 62,
                "velocity": 4,
                "duration": 0.0841,
                "tempo": 120.0
            },
            {
                "pitch": 0,
                "velocity": 0,
                "duration": 0.1159,
                "tempo": 0
            },
            {
                "pitch": 57,
                "velocity": 4,
                "duration": 0.0841,
                "tempo": 120.0
            },
            {
                "pitch": 0,
                "velocity": 0,
                "duration": 0.1159,
                "tempo": 0
            },
            {
                "pitch": 60,
                "velocity": 4,
                "duration": 0.0841,
                "tempo": 120.0
            },
            {
                "pitch": 0,
                "velocity": 0,
                "duration": 0.1182,
                "tempo": 0
            },
            {
                "pitch": 62,
                "velocity": 4,
                "duration": 0.0841,
                "tempo": 120.0
            },
            {
                "pitch": 0,
                "velocity": 0,
                "duration": 0.1159,
                "tempo": 0
            },
            {
                "pitch": 55,
                "velocity": 4,
                "duration": 0.0682,
                "tempo": 120.0
            },
            {
                "pitch": 55,
                "velocity": 4,
                "duration": 0.0159,
                "tempo": 120.0
            },
            {
                "pitch": 0,
                "velocity": 0,
                "duration": 0.1159,
                "tempo": 0
            },
            {
                "pitch": 52,
                "velocity": 4,
                "duration": 0.0841,
                "tempo": 120.0
            }
        ],
        "Lead 2 (sawtooth)": [
            {
                "pitch": 0,
                "velocity": 0,
                "duration": 0.7909,
                "tempo": 0
            },
            {
                "pitch": 76,
                "velocity": 4,
                "duration": 0.0864,
                "tempo": 120.0
            },
            {
                "pitch": 0,
                "velocity": 0,
                "duration": 0.1205,
                "tempo": 0
            },
            {
                "pitch": 76,
                "velocity": 4,
                "duration": 0.0864,
                "tempo": 120.0
            },
            {
                "pitch": 0,
                "velocity": 0,
                "duration": 0.1182,
                "tempo": 0
            },
            {
                "pitch": 76,
                "velocity": 4,
                "duration": 0.0841,
                "tempo": 120.0
            },
            {
                "pitch": 0,
                "velocity": 0,
                "duration": 0.1159,
                "tempo": 0
            },
            {
                "pitch": 76,
                "velocity": 4,
                "duration": 0.0841,
                "tempo": 120.0
            },
            {
                "pitch": 0,
                "velocity": 0,
                "duration": 0.1159,
                "tempo": 0
            },
            {
                "pitch": 76,
                "velocity": 4,
                "duration": 0.0841,
                "tempo": 120.0
            },
            {
                "pitch": 0,
                "velocity": 0,
                "duration": 0.1182,
                "tempo": 0
            },
            {
                "pitch": 76,
                "velocity": 4,
                "duration": 0.0841,
                "tempo": 120.0
            },
            {
                "pitch": 0,
                "velocity": 0,
                "duration": 0.3159,
                "tempo": 0
            },
            {
                "pitch": 81,
                "velocity": 4,
                "duration": 0.0841,
                "tempo": 120.0
            },
            {
                "pitch": 0,
                "velocity": 0,
                "duration": 0.3159,
                "tempo": 0
            },
            {
                "pitch": 81,
                "velocity": 4,
                "duration": 1.3864,
                "tempo": 120.0
            },
            {
                "pitch": 0,
                "velocity": 0,
                "duration": 0.0182,
                "tempo": 0
            },
            {
                "pitch": 76,
                "velocity": 4,
                "duration": 0.0818,
                "tempo": 120.0
            },
            {
                "pitch": 0,
                "velocity": 0,
                "duration": 0.1182,
                "tempo": 0
            },
            {
                "pitch": 76,
                "velocity": 4,
                "duration": 0.0818,
                "tempo": 120.0
            },
            {
                "pitch": 0,
                "velocity": 0,
                "duration": 0.1182,
                "tempo": 0
            },
            {
                "pitch": 76,
                "velocity": 4,
                "duration": 0.0841,
                "tempo": 120.0
            },
            {
                "pitch": 0,
                "velocity": 0,
                "duration": 0.1159,
                "tempo": 0
            },
            {
                "pitch": 76,
                "velocity": 4,
                "duration": 0.0841,
                "tempo": 120.0
            },
            {
                "pitch": 0,
                "velocity": 0,
                "duration": 0.1182,
                "tempo": 0
            },
            {
                "pitch": 76,
                "velocity": 4,
                "duration": 0.0818,
                "tempo": 120.0
            },
            {
                "pitch": 0,
                "velocity": 0,
                "duration": 0.1182,
                "tempo": 0
            },
            {
                "pitch": 76,
                "velocity": 4,
                "duration": 0.0818,
                "tempo": 120.0
            },
            {
                "pitch": 0,
                "velocity": 0,
                "duration": 0.3182,
                "tempo": 0
            },
            {
                "pitch": 81,
                "velocity": 4,
                "duration": 0.0841,
                "tempo": 120.0
            },
            {
                "pitch": 0,
                "velocity": 0,
                "duration": 0.3182,
                "tempo": 0
            },
            {
                "pitch": 81,
                "velocity": 4,
                "duration": 1.3886,
                "tempo": 120.0
            },
            {
                "pitch": 0,
                "velocity": 0,
                "duration": 0.0159,
                "tempo": 0
            },
            {
                "pitch": 81,
                "velocity": 4,
                "duration": 0.0841,
                "tempo": 120.0
            },
            {
                "pitch": 0,
                "velocity": 0,
                "duration": 0.1182,
                "tempo": 0
            },
            {
                "pitch": 81,
                "velocity": 4,
                "duration": 0.0841,
                "tempo": 120.0
            },
            {
                "pitch": 0,
                "velocity": 0,
                "duration": 0.1182,
                "tempo": 0
            },
            {
                "pitch": 81,
                "velocity": 4,
                "duration": 0.0818,
                "tempo": 120.0
            },
            {
                "pitch": 0,
                "velocity": 0,
                "duration": 0.1182,
                "tempo": 0
            },
            {
                "pitch": 81,
                "velocity": 4,
                "duration": 0.0818,
                "tempo": 120.0
            },
            {
                "pitch": 0,
                "velocity": 0,
                "duration": 0.1182,
                "tempo": 0
            },
            {
                "pitch": 81,
                "velocity": 4,
                "duration": 0.0818,
                "tempo": 120.0
            },
            {
                "pitch": 0,
                "velocity": 0,
                "duration": 0.1182,
                "tempo": 0
            },
            {
                "pitch": 81,
                "velocity": 4,
                "duration": 0.0841,
                "tempo": 120.0
            },
            {
                "pitch": 0,
                "velocity": 0,
                "duration": 0.3182,
                "tempo": 0
            },
            {
                "pitch": 86,
                "velocity": 4,
                "duration": 0.0841,
                "tempo": 120.0
            },
            {
                "pitch": 0,
                "velocity": 0,
                "duration": 0.3205,
                "tempo": 0
            },
            {
                "pitch": 86,
                "velocity": 4,
                "duration": 1.3886,
                "tempo": 120.0
            },
            {
                "pitch": 0,
                "velocity": 0,
                "duration": 0.0159,
                "tempo": 0
            },
            {
                "pitch": 81,
                "velocity": 4,
                "duration": 0.0841,
                "tempo": 120.0
            },
            {
                "pitch": 0,
                "velocity": 0,
                "duration": 0.1182,
                "tempo": 0
            },
            {
                "pitch": 81,
                "velocity": 4,
                "duration": 0.0841,
                "tempo": 120.0
            },
            {
                "pitch": 0,
                "velocity": 0,
                "duration": 0.1182,
                "tempo": 0
            },
            {
                "pitch": 81,
                "velocity": 4,
                "duration": 0.0841,
                "tempo": 120.0
            },
            {
                "pitch": 0,
                "velocity": 0,
                "duration": 0.1159,
                "tempo": 0
            },
            {
                "pitch": 81,
                "velocity": 4,
                "duration": 0.0841,
                "tempo": 120.0
            },
            {
                "pitch": 0,
                "velocity": 0,
                "duration": 0.1182,
                "tempo": 0
            },
            {
                "pitch": 81,
                "velocity": 4,
                "duration": 0.0818,
                "tempo": 120.0
            },
            {
                "pitch": 0,
                "velocity": 0,
                "duration": 0.1182,
                "tempo": 0
            },
            {
                "pitch": 81,
                "velocity": 4,
                "duration": 0.0818,
                "tempo": 120.0
            },
            {
                "pitch": 0,
                "velocity": 0,
                "duration": 0.3182,
                "tempo": 0
            },
            {
                "pitch": 86,
                "velocity": 4,
                "duration": 0.0841,
                "tempo": 120.0
            },
            {
                "pitch": 0,
                "velocity": 0,
                "duration": 0.3205,
                "tempo": 0
            },
            {
                "pitch": 86,
                "velocity": 4,
                "duration": 1.3886,
                "tempo": 120.0
            }
        ],
        "Synth Bass 1": [
            {
                "pitch": 31,
                "velocity": 1,
                "duration": 0.775,
                "tempo": 120.0
            },
            {
                "pitch": 0,
                "velocity": 0,
                "duration": 0.0159,
                "tempo": 0
            },
            {
                "pitch": 33,
                "velocity": 1,
                "duration": 0.0864,
                "tempo": 120.0
            },
            {
                "pitch": 33,
                "velocity": 1,
                "duration": 0.0864,
                "tempo": 120.0
            },
            {
                "pitch": 0,
                "velocity": 0,
                "duration": 0.1205,
                "tempo": 0
            },
            {
                "pitch": 33,
                "velocity": 1,
                "duration": 0.0864,
                "tempo": 120.0
            },
            {
                "pitch": 0,
                "velocity": 0,
                "duration": 0.0159,
                "tempo": 0
            },
            {
                "pitch": 33,
                "velocity": 1,
                "duration": 0.0864,
                "tempo": 120.0
            },
            {
                "pitch": 0,
                "velocity": 0,
                "duration": 0.0159,
                "tempo": 0
            },
            {
                "pitch": 33,
                "velocity": 1,
                "duration": 0.0841,
                "tempo": 120.0
            },
            {
                "pitch": 0,
                "velocity": 0,
                "duration": 0.1159,
                "tempo": 0
            },
            {
                "pitch": 33,
                "velocity": 1,
                "duration": 0.0841,
                "tempo": 120.0
            },
            {
                "pitch": 0,
                "velocity": 0,
                "duration": 0.0159,
                "tempo": 0
            },
            {
                "pitch": 33,
                "velocity": 1,
                "duration": 0.0841,
                "tempo": 120.0
            },
            {
                "pitch": 0,
                "velocity": 0,
                "duration": 0.0159,
                "tempo": 0
            },
            {
                "pitch": 33,
                "velocity": 1,
                "duration": 0.0841,
                "tempo": 120.0
            },
            {
                "pitch": 0,
                "velocity": 0,
                "duration": 0.1182,
                "tempo": 0
            },
            {
                "pitch": 33,
                "velocity": 1,
                "duration": 0.0841,
                "tempo": 120.0
            },
            {
                "pitch": 0,
                "velocity": 0,
                "duration": 0.0159,
                "tempo": 0
            },
            {
                "pitch": 33,
                "velocity": 1,
                "duration": 0.0841,
                "tempo": 120.0
            },
            {
                "pitch": 0,
                "velocity": 0,
                "duration": 0.0159,
                "tempo": 0
            },
            {
                "pitch": 33,
                "velocity": 1,
                "duration": 0.0841,
                "tempo": 120.0
            },
            {
                "pitch": 0,
                "velocity": 0,
                "duration": 0.0159,
                "tempo": 0
            },
            {
                "pitch": 35,
                "velocity": 1,
                "duration": 0.0841,
                "tempo": 120.0
            },
            {
                "pitch": 0,
                "velocity": 0,
                "duration": 0.0159,
                "tempo": 0
            },
            {
                "pitch": 38,
                "velocity": 1,
                "duration": 0.0841,
                "tempo": 120.0
            },
            {
                "pitch": 0,
                "velocity": 0,
                "duration": 0.0159,
                "tempo": 0
            },
            {
                "pitch": 40,
                "velocity": 1,
                "duration": 0.0841,
                "tempo": 120.0
            },
            {
                "pitch": 0,
                "velocity": 0,
                "duration": 0.0159,
                "tempo": 0
            },
            {
                "pitch": 33,
                "velocity": 1,
                "duration": 0.0841,
                "tempo": 120.0
            },
            {
                "pitch": 0,
                "velocity": 0,
                "duration": 0.0159,
                "tempo": 0
            },
            {
                "pitch": 35,
                "velocity": 1,
                "duration": 0.0841,
                "tempo": 120.0
            },
            {
                "pitch": 0,
                "velocity": 0,
                "duration": 0.0159,
                "tempo": 0
            },
            {
                "pitch": 38,
                "velocity": 1,
                "duration": 0.0841,
                "tempo": 120.0
            },
            {
                "pitch": 0,
                "velocity": 0,
                "duration": 0.0159,
                "tempo": 0
            },
            {
                "pitch": 40,
                "velocity": 1,
                "duration": 0.0841,
                "tempo": 120.0
            },
            {
                "pitch": 0,
                "velocity": 0,
                "duration": 0.0159,
                "tempo": 0
            },
            {
                "pitch": 38,
                "velocity": 1,
                "duration": 0.0841,
                "tempo": 120.0
            },
            {
                "pitch": 0,
                "velocity": 0,
                "duration": 0.0159,
                "tempo": 0
            },
            {
                "pitch": 36,
                "velocity": 1,
                "duration": 0.0841,
                "tempo": 120.0
            },
            {
                "pitch": 0,
                "velocity": 0,
                "duration": 0.0159,
                "tempo": 0
            },
            {
                "pitch": 35,
                "velocity": 1,
                "duration": 0.0841,
                "tempo": 120.0
            },
            {
                "pitch": 0,
                "velocity": 0,
                "duration": 0.0159,
                "tempo": 0
            },
            {
                "pitch": 33,
                "velocity": 1,
                "duration": 0.0841,
                "tempo": 120.0
            },
            {
                "pitch": 0,
                "velocity": 0,
                "duration": 0.0159,
                "tempo": 0
            },
            {
                "pitch": 33,
                "velocity": 1,
                "duration": 0.0841,
                "tempo": 120.0
            },
            {
                "pitch": 0,
                "velocity": 0,
                "duration": 0.0182,
                "tempo": 0
            },
            {
                "pitch": 35,
                "velocity": 1,
                "duration": 0.0841,
                "tempo": 120.0
            },
            {
                "pitch": 0,
                "velocity": 0,
                "duration": 0.0159,
                "tempo": 0
            },
            {
                "pitch": 38,
                "velocity": 1,
                "duration": 0.0841,
                "tempo": 120.0
            },
            {
                "pitch": 0,
                "velocity": 0,
                "duration": 0.0159,
                "tempo": 0
            },
            {
                "pitch": 40,
                "velocity": 1,
                "duration": 0.0841,
                "tempo": 120.0
            },
            {
                "pitch": 0,
                "velocity": 0,
                "duration": 0.0182,
                "tempo": 0
            },
            {
                "pitch": 33,
                "velocity": 1,
                "duration": 0.0818,
                "tempo": 120.0
            },
            {
                "pitch": 0,
                "velocity": 0,
                "duration": 0.0182,
                "tempo": 0
            },
            {
                "pitch": 35,
                "velocity": 1,
                "duration": 0.0818,
                "tempo": 120.0
            },
            {
                "pitch": 0,
                "velocity": 0,
                "duration": 0.0182,
                "tempo": 0
            },
            {
                "pitch": 38,
                "velocity": 1,
                "duration": 0.0818,
                "tempo": 120.0
            },
            {
                "pitch": 0,
                "velocity": 0,
                "duration": 0.0182,
                "tempo": 0
            },
            {
                "pitch": 40,
                "velocity": 1,
                "duration": 0.0818,
                "tempo": 120.0
            },
            {
                "pitch": 0,
                "velocity": 0,
                "duration": 0.0182,
                "tempo": 0
            },
            {
                "pitch": 33,
                "velocity": 1,
                "duration": 0.0818,
                "tempo": 120.0
            },
            {
                "pitch": 0,
                "velocity": 0,
                "duration": 0.1182,
                "tempo": 0
            },
            {
                "pitch": 33,
                "velocity": 1,
                "duration": 0.0818,
                "tempo": 120.0
            },
            {
                "pitch": 0,
                "velocity": 0,
                "duration": 0.0182,
                "tempo": 0
            },
            {
                "pitch": 33,
                "velocity": 1,
                "duration": 0.0818,
                "tempo": 120.0
            },
            {
                "pitch": 0,
                "velocity": 0,
                "duration": 0.0182,
                "tempo": 0
            },
            {
                "pitch": 33,
                "velocity": 1,
                "duration": 0.0841,
                "tempo": 120.0
            },
            {
                "pitch": 0,
                "velocity": 0,
                "duration": 0.1159,
                "tempo": 0
            },
            {
                "pitch": 33,
                "velocity": 1,
                "duration": 0.0841,
                "tempo": 120.0
            },
            {
                "pitch": 0,
                "velocity": 0,
                "duration": 0.0182,
                "tempo": 0
            },
            {
                "pitch": 33,
                "velocity": 1,
                "duration": 0.0818,
                "tempo": 120.0
            },
            {
                "pitch": 0,
                "velocity": 0,
                "duration": 0.0182,
                "tempo": 0
            },
            {
                "pitch": 33,
                "velocity": 1,
                "duration": 0.0818,
                "tempo": 120.0
            },
            {
                "pitch": 0,
                "velocity": 0,
                "duration": 0.1182,
                "tempo": 0
            },
            {
                "pitch": 33,
                "velocity": 1,
                "duration": 0.0818,
                "tempo": 120.0
            },
            {
                "pitch": 0,
                "velocity": 0,
                "duration": 0.0182,
                "tempo": 0
            },
            {
                "pitch": 33,
                "velocity": 1,
                "duration": 0.0818,
                "tempo": 120.0
            },
            {
                "pitch": 0,
                "velocity": 0,
                "duration": 0.0182,
                "tempo": 0
            },
            {
                "pitch": 33,
                "velocity": 1,
                "duration": 0.0841,
                "tempo": 120.0
            },
            {
                "pitch": 0,
                "velocity": 0,
                "duration": 0.0159,
                "tempo": 0
            },
            {
                "pitch": 35,
                "velocity": 1,
                "duration": 0.0841,
                "tempo": 120.0
            },
            {
                "pitch": 0,
                "velocity": 0,
                "duration": 0.0159,
                "tempo": 0
            },
            {
                "pitch": 38,
                "velocity": 1,
                "duration": 0.0841,
                "tempo": 120.0
            },
            {
                "pitch": 0,
                "velocity": 0,
                "duration": 0.0182,
                "tempo": 0
            },
            {
                "pitch": 40,
                "velocity": 1,
                "duration": 0.0841,
                "tempo": 120.0
            },
            {
                "pitch": 0,
                "velocity": 0,
                "duration": 0.0159,
                "tempo": 0
            },
            {
                "pitch": 33,
                "velocity": 1,
                "duration": 0.0841,
                "tempo": 120.0
            },
            {
                "pitch": 0,
                "velocity": 0,
                "duration": 0.0159,
                "tempo": 0
            },
            {
                "pitch": 35,
                "velocity": 1,
                "duration": 0.0841,
                "tempo": 120.0
            },
            {
                "pitch": 0,
                "velocity": 0,
                "duration": 0.0159,
                "tempo": 0
            },
            {
                "pitch": 38,
                "velocity": 1,
                "duration": 0.0841,
                "tempo": 120.0
            },
            {
                "pitch": 0,
                "velocity": 0,
                "duration": 0.0159,
                "tempo": 0
            },
            {
                "pitch": 40,
                "velocity": 1,
                "duration": 0.0841,
                "tempo": 120.0
            },
            {
                "pitch": 0,
                "velocity": 0,
                "duration": 0.0159,
                "tempo": 0
            },
            {
                "pitch": 38,
                "velocity": 1,
                "duration": 0.0841,
                "tempo": 120.0
            },
            {
                "pitch": 0,
                "velocity": 0,
                "duration": 0.0159,
                "tempo": 0
            },
            {
                "pitch": 36,
                "velocity": 1,
                "duration": 0.0841,
                "tempo": 120.0
            },
            {
                "pitch": 0,
                "velocity": 0,
                "duration": 0.0182,
                "tempo": 0
            },
            {
                "pitch": 35,
                "velocity": 1,
                "duration": 0.0841,
                "tempo": 120.0
            },
            {
                "pitch": 0,
                "velocity": 0,
                "duration": 0.0159,
                "tempo": 0
            },
            {
                "pitch": 33,
                "velocity": 1,
                "duration": 0.0841,
                "tempo": 120.0
            },
            {
                "pitch": 0,
                "velocity": 0,
                "duration": 0.0159,
                "tempo": 0
            },
            {
                "pitch": 33,
                "velocity": 1,
                "duration": 0.0841,
                "tempo": 120.0
            },
            {
                "pitch": 0,
                "velocity": 0,
                "duration": 0.0159,
                "tempo": 0
            },
            {
                "pitch": 35,
                "velocity": 1,
                "duration": 0.0841,
                "tempo": 120.0
            },
            {
                "pitch": 0,
                "velocity": 0,
                "duration": 0.0182,
                "tempo": 0
            },
            {
                "pitch": 38,
                "velocity": 1,
                "duration": 0.0841,
                "tempo": 120.0
            },
            {
                "pitch": 0,
                "velocity": 0,
                "duration": 0.0159,
                "tempo": 0
            },
            {
                "pitch": 40,
                "velocity": 1,
                "duration": 0.0841,
                "tempo": 120.0
            },
            {
                "pitch": 0,
                "velocity": 0,
                "duration": 0.0159,
                "tempo": 0
            },
            {
                "pitch": 33,
                "velocity": 1,
                "duration": 0.0841,
                "tempo": 120.0
            },
            {
                "pitch": 0,
                "velocity": 0,
                "duration": 0.0159,
                "tempo": 0
            },
            {
                "pitch": 35,
                "velocity": 1,
                "duration": 0.0841,
                "tempo": 120.0
            },
            {
                "pitch": 0,
                "velocity": 0,
                "duration": 0.0159,
                "tempo": 0
            },
            {
                "pitch": 38,
                "velocity": 1,
                "duration": 0.0841,
                "tempo": 120.0
            },
            {
                "pitch": 0,
                "velocity": 0,
                "duration": 0.0159,
                "tempo": 0
            },
            {
                "pitch": 40,
                "velocity": 1,
                "duration": 0.0841,
                "tempo": 120.0
            },
            {
                "pitch": 0,
                "velocity": 0,
                "duration": 0.0159,
                "tempo": 0
            },
            {
                "pitch": 38,
                "velocity": 1,
                "duration": 0.0841,
                "tempo": 120.0
            },
            {
                "pitch": 0,
                "velocity": 0,
                "duration": 0.1182,
                "tempo": 0
            },
            {
                "pitch": 38,
                "velocity": 1,
                "duration": 0.0841,
                "tempo": 120.0
            },
            {
                "pitch": 0,
                "velocity": 0,
                "duration": 0.0159,
                "tempo": 0
            },
            {
                "pitch": 38,
                "velocity": 1,
                "duration": 0.0841,
                "tempo": 120.0
            },
            {
                "pitch": 0,
                "velocity": 0,
                "duration": 0.0182,
                "tempo": 0
            },
            {
                "pitch": 38,
                "velocity": 1,
                "duration": 0.0818,
                "tempo": 120.0
            },
            {
                "pitch": 0,
                "velocity": 0,
                "duration": 0.1182,
                "tempo": 0
            },
            {
                "pitch": 38,
                "velocity": 1,
                "duration": 0.0818,
                "tempo": 120.0
            },
            {
                "pitch": 0,
                "velocity": 0,
                "duration": 0.0182,
                "tempo": 0
            },
            {
                "pitch": 38,
                "velocity": 1,
                "duration": 0.0818,
                "tempo": 120.0
            },
            {
                "pitch": 0,
                "velocity": 0,
                "duration": 0.0182,
                "tempo": 0
            },
            {
                "pitch": 38,
                "velocity": 1,
                "duration": 0.0818,
                "tempo": 120.0
            },
            {
                "pitch": 0,
                "velocity": 0,
                "duration": 0.1182,
                "tempo": 0
            },
            {
                "pitch": 38,
                "velocity": 1,
                "duration": 0.0841,
                "tempo": 120.0
            },
            {
                "pitch": 0,
                "velocity": 0,
                "duration": 0.0159,
                "tempo": 0
            },
            {
                "pitch": 38,
                "velocity": 1,
                "duration": 0.0841,
                "tempo": 120.0
            },
            {
                "pitch": 0,
                "velocity": 0,
                "duration": 0.0182,
                "tempo": 0
            },
            {
                "pitch": 38,
                "velocity": 1,
                "duration": 0.0841,
                "tempo": 120.0
            },
            {
                "pitch": 0,
                "velocity": 0,
                "duration": 0.0159,
                "tempo": 0
            },
            {
                "pitch": 40,
                "velocity": 1,
                "duration": 0.0841,
                "tempo": 120.0
            },
            {
                "pitch": 0,
                "velocity": 0,
                "duration": 0.0159,
                "tempo": 0
            },
            {
                "pitch": 43,
                "velocity": 1,
                "duration": 0.0841,
                "tempo": 120.0
            },
            {
                "pitch": 0,
                "velocity": 0,
                "duration": 0.0182,
                "tempo": 0
            },
            {
                "pitch": 45,
                "velocity": 1,
                "duration": 0.0841,
                "tempo": 120.0
            },
            {
                "pitch": 0,
                "velocity": 0,
                "duration": 0.0159,
                "tempo": 0
            },
            {
                "pitch": 38,
                "velocity": 1,
                "duration": 0.0841,
                "tempo": 120.0
            },
            {
                "pitch": 0,
                "velocity": 0,
                "duration": 0.0159,
                "tempo": 0
            },
            {
                "pitch": 40,
                "velocity": 1,
                "duration": 0.0841,
                "tempo": 120.0
            },
            {
                "pitch": 0,
                "velocity": 0,
                "duration": 0.0182,
                "tempo": 0
            },
            {
                "pitch": 43,
                "velocity": 1,
                "duration": 0.0818,
                "tempo": 120.0
            },
            {
                "pitch": 0,
                "velocity": 0,
                "duration": 0.0182,
                "tempo": 0
            },
            {
                "pitch": 45,
                "velocity": 1,
                "duration": 0.0841,
                "tempo": 120.0
            },
            {
                "pitch": 0,
                "velocity": 0,
                "duration": 0.0159,
                "tempo": 0
            },
            {
                "pitch": 40,
                "velocity": 1,
                "duration": 0.0841,
                "tempo": 120.0
            },
            {
                "pitch": 0,
                "velocity": 0,
                "duration": 0.0159,
                "tempo": 0
            },
            {
                "pitch": 38,
                "velocity": 1,
                "duration": 0.0841,
                "tempo": 120.0
            },
            {
                "pitch": 0,
                "velocity": 0,
                "duration": 0.0159,
                "tempo": 0
            },
            {
                "pitch": 36,
                "velocity": 1,
                "duration": 0.0841,
                "tempo": 120.0
            },
            {
                "pitch": 0,
                "velocity": 0,
                "duration": 0.0159,
                "tempo": 0
            },
            {
                "pitch": 35,
                "velocity": 1,
                "duration": 0.0841,
                "tempo": 120.0
            },
            {
                "pitch": 0,
                "velocity": 0,
                "duration": 0.0159,
                "tempo": 0
            },
            {
                "pitch": 38,
                "velocity": 1,
                "duration": 0.0841,
                "tempo": 120.0
            },
            {
                "pitch": 0,
                "velocity": 0,
                "duration": 0.0159,
                "tempo": 0
            },
            {
                "pitch": 40,
                "velocity": 1,
                "duration": 0.0841,
                "tempo": 120.0
            },
            {
                "pitch": 0,
                "velocity": 0,
                "duration": 0.0182,
                "tempo": 0
            },
            {
                "pitch": 43,
                "velocity": 1,
                "duration": 0.0841,
                "tempo": 120.0
            },
            {
                "pitch": 0,
                "velocity": 0,
                "duration": 0.0159,
                "tempo": 0
            },
            {
                "pitch": 45,
                "velocity": 1,
                "duration": 0.0841,
                "tempo": 120.0
            },
            {
                "pitch": 0,
                "velocity": 0,
                "duration": 0.0159,
                "tempo": 0
            },
            {
                "pitch": 38,
                "velocity": 1,
                "duration": 0.0841,
                "tempo": 120.0
            },
            {
                "pitch": 0,
                "velocity": 0,
                "duration": 0.0182,
                "tempo": 0
            },
            {
                "pitch": 40,
                "velocity": 1,
                "duration": 0.0818,
                "tempo": 120.0
            },
            {
                "pitch": 0,
                "velocity": 0,
                "duration": 0.0182,
                "tempo": 0
            },
            {
                "pitch": 43,
                "velocity": 1,
                "duration": 0.0841,
                "tempo": 120.0
            },
            {
                "pitch": 0,
                "velocity": 0,
                "duration": 0.0159,
                "tempo": 0
            },
            {
                "pitch": 45,
                "velocity": 1,
                "duration": 0.0841,
                "tempo": 120.0
            },
            {
                "pitch": 0,
                "velocity": 0,
                "duration": 0.0159,
                "tempo": 0
            },
            {
                "pitch": 38,
                "velocity": 1,
                "duration": 0.0841,
                "tempo": 120.0
            },
            {
                "pitch": 0,
                "velocity": 0,
                "duration": 0.1182,
                "tempo": 0
            },
            {
                "pitch": 38,
                "velocity": 1,
                "duration": 0.0841,
                "tempo": 120.0
            },
            {
                "pitch": 0,
                "velocity": 0,
                "duration": 0.0159,
                "tempo": 0
            },
            {
                "pitch": 38,
                "velocity": 1,
                "duration": 0.0841,
                "tempo": 120.0
            },
            {
                "pitch": 0,
                "velocity": 0,
                "duration": 0.0182,
                "tempo": 0
            },
            {
                "pitch": 38,
                "velocity": 1,
                "duration": 0.0841,
                "tempo": 120.0
            },
            {
                "pitch": 0,
                "velocity": 0,
                "duration": 0.1159,
                "tempo": 0
            },
            {
                "pitch": 38,
                "velocity": 1,
                "duration": 0.0841,
                "tempo": 120.0
            },
            {
                "pitch": 0,
                "velocity": 0,
                "duration": 0.0182,
                "tempo": 0
            },
            {
                "pitch": 38,
                "velocity": 1,
                "duration": 0.0818,
                "tempo": 120.0
            },
            {
                "pitch": 0,
                "velocity": 0,
                "duration": 0.0182,
                "tempo": 0
            },
            {
                "pitch": 38,
                "velocity": 1,
                "duration": 0.0818,
                "tempo": 120.0
            },
            {
                "pitch": 0,
                "velocity": 0,
                "duration": 0.1182,
                "tempo": 0
            },
            {
                "pitch": 38,
                "velocity": 1,
                "duration": 0.0818,
                "tempo": 120.0
            },
            {
                "pitch": 0,
                "velocity": 0,
                "duration": 0.0182,
                "tempo": 0
            },
            {
                "pitch": 38,
                "velocity": 1,
                "duration": 0.0818,
                "tempo": 120.0
            },
            {
                "pitch": 0,
                "velocity": 0,
                "duration": 0.0182,
                "tempo": 0
            },
            {
                "pitch": 38,
                "velocity": 1,
                "duration": 0.0841,
                "tempo": 120.0
            },
            {
                "pitch": 0,
                "velocity": 0,
                "duration": 0.0159,
                "tempo": 0
            },
            {
                "pitch": 40,
                "velocity": 1,
                "duration": 0.0841,
                "tempo": 120.0
            },
            {
                "pitch": 0,
                "velocity": 0,
                "duration": 0.0159,
                "tempo": 0
            },
            {
                "pitch": 43,
                "velocity": 1,
                "duration": 0.0841,
                "tempo": 120.0
            },
            {
                "pitch": 0,
                "velocity": 0,
                "duration": 0.0182,
                "tempo": 0
            },
            {
                "pitch": 45,
                "velocity": 1,
                "duration": 0.0841,
                "tempo": 120.0
            },
            {
                "pitch": 0,
                "velocity": 0,
                "duration": 0.0159,
                "tempo": 0
            },
            {
                "pitch": 38,
                "velocity": 1,
                "duration": 0.0841,
                "tempo": 120.0
            },
            {
                "pitch": 0,
                "velocity": 0,
                "duration": 0.0159,
                "tempo": 0
            },
            {
                "pitch": 40,
                "velocity": 1,
                "duration": 0.0841,
                "tempo": 120.0
            },
            {
                "pitch": 0,
                "velocity": 0,
                "duration": 0.0182,
                "tempo": 0
            },
            {
                "pitch": 43,
                "velocity": 1,
                "duration": 0.0841,
                "tempo": 120.0
            },
            {
                "pitch": 0,
                "velocity": 0,
                "duration": 0.0159,
                "tempo": 0
            },
            {
                "pitch": 45,
                "velocity": 1,
                "duration": 0.0841,
                "tempo": 120.0
            },
            {
                "pitch": 0,
                "velocity": 0,
                "duration": 0.0159,
                "tempo": 0
            },
            {
                "pitch": 40,
                "velocity": 1,
                "duration": 0.0841,
                "tempo": 120.0
            },
            {
                "pitch": 0,
                "velocity": 0,
                "duration": 0.0159,
                "tempo": 0
            },
            {
                "pitch": 38,
                "velocity": 1,
                "duration": 0.0841,
                "tempo": 120.0
            },
            {
                "pitch": 0,
                "velocity": 0,
                "duration": 0.0182,
                "tempo": 0
            },
            {
                "pitch": 36,
                "velocity": 1,
                "duration": 0.0841,
                "tempo": 120.0
            },
            {
                "pitch": 0,
                "velocity": 0,
                "duration": 0.0159,
                "tempo": 0
            },
            {
                "pitch": 35,
                "velocity": 1,
                "duration": 0.0841,
                "tempo": 120.0
            },
            {
                "pitch": 0,
                "velocity": 0,
                "duration": 0.0159,
                "tempo": 0
            },
            {
                "pitch": 38,
                "velocity": 1,
                "duration": 0.0841,
                "tempo": 120.0
            },
            {
                "pitch": 0,
                "velocity": 0,
                "duration": 0.0182,
                "tempo": 0
            },
            {
                "pitch": 40,
                "velocity": 1,
                "duration": 0.0841,
                "tempo": 120.0
            },
            {
                "pitch": 0,
                "velocity": 0,
                "duration": 0.0159,
                "tempo": 0
            },
            {
                "pitch": 43,
                "velocity": 1,
                "duration": 0.0841,
                "tempo": 120.0
            },
            {
                "pitch": 0,
                "velocity": 0,
                "duration": 0.0159,
                "tempo": 0
            },
            {
                "pitch": 45,
                "velocity": 1,
                "duration": 0.0841,
                "tempo": 120.0
            },
            {
                "pitch": 0,
                "velocity": 0,
                "duration": 0.0182,
                "tempo": 0
            },
            {
                "pitch": 38,
                "velocity": 1,
                "duration": 0.0818,
                "tempo": 120.0
            },
            {
                "pitch": 0,
                "velocity": 0,
                "duration": 0.0182,
                "tempo": 0
            },
            {
                "pitch": 40,
                "velocity": 1,
                "duration": 0.0818,
                "tempo": 120.0
            },
            {
                "pitch": 0,
                "velocity": 0,
                "duration": 0.0182,
                "tempo": 0
            },
            {
                "pitch": 43,
                "velocity": 1,
                "duration": 0.0818,
                "tempo": 120.0
            },
            {
                "pitch": 0,
                "velocity": 0,
                "duration": 0.0182,
                "tempo": 0
            },
            {
                "pitch": 45,
                "velocity": 1,
                "duration": 0.0818,
                "tempo": 120.0
            },
            {
                "pitch": 0,
                "velocity": 0,
                "duration": 0.0182,
                "tempo": 0
            },
            {
                "pitch": 40,
                "velocity": 1,
                "duration": 0.0818,
                "tempo": 120.0
            },
            {
                "pitch": 0,
                "velocity": 0,
                "duration": 0.1182,
                "tempo": 0
            },
            {
                "pitch": 40,
                "velocity": 1,
                "duration": 0.0841,
                "tempo": 120.0
            },
            {
                "pitch": 0,
                "velocity": 0,
                "duration": 0.0159,
                "tempo": 0
            },
            {
                "pitch": 40,
                "velocity": 1,
                "duration": 0.0841,
                "tempo": 120.0
            },
            {
                "pitch": 0,
                "velocity": 0,
                "duration": 0.0182,
                "tempo": 0
            },
            {
                "pitch": 40,
                "velocity": 1,
                "duration": 0.0841,
                "tempo": 120.0
            },
            {
                "pitch": 0,
                "velocity": 0,
                "duration": 0.1159,
                "tempo": 0
            },
            {
                "pitch": 40,
                "velocity": 1,
                "duration": 0.0841,
                "tempo": 120.0
            },
            {
                "pitch": 0,
                "velocity": 0,
                "duration": 0.0182,
                "tempo": 0
            },
            {
                "pitch": 40,
                "velocity": 1,
                "duration": 0.0841,
                "tempo": 120.0
            },
            {
                "pitch": 0,
                "velocity": 0,
                "duration": 0.0159,
                "tempo": 0
            },
            {
                "pitch": 40,
                "velocity": 1,
                "duration": 0.0841,
                "tempo": 120.0
            },
            {
                "pitch": 0,
                "velocity": 0,
                "duration": 0.1159,
                "tempo": 0
            },
            {
                "pitch": 40,
                "velocity": 1,
                "duration": 0.0841,
                "tempo": 120.0
            },
            {
                "pitch": 0,
                "velocity": 0,
                "duration": 0.0182,
                "tempo": 0
            },
            {
                "pitch": 40,
                "velocity": 1,
                "duration": 0.0841,
                "tempo": 120.0
            },
            {
                "pitch": 0,
                "velocity": 0,
                "duration": 0.0159,
                "tempo": 0
            },
            {
                "pitch": 40,
                "velocity": 1,
                "duration": 0.0841,
                "tempo": 120.0
            },
            {
                "pitch": 0,
                "velocity": 0,
                "duration": 0.0159,
                "tempo": 0
            },
            {
                "pitch": 41,
                "velocity": 1,
                "duration": 0.0841,
                "tempo": 120.0
            },
            {
                "pitch": 0,
                "velocity": 0,
                "duration": 0.0182,
                "tempo": 0
            },
            {
                "pitch": 43,
                "velocity": 1,
                "duration": 0.0841,
                "tempo": 120.0
            },
            {
                "pitch": 0,
                "velocity": 0,
                "duration": 0.0159,
                "tempo": 0
            },
            {
                "pitch": 45,
                "velocity": 1,
                "duration": 0.0841,
                "tempo": 120.0
            },
            {
                "pitch": 0,
                "velocity": 0,
                "duration": 0.0159,
                "tempo": 0
            },
            {
                "pitch": 38,
                "velocity": 1,
                "duration": 0.0841,
                "tempo": 120.0
            },
            {
                "pitch": 0,
                "velocity": 0,
                "duration": 0.1159,
                "tempo": 0
            },
            {
                "pitch": 38,
                "velocity": 1,
                "duration": 0.0841,
                "tempo": 120.0
            },
            {
                "pitch": 0,
                "velocity": 0,
                "duration": 0.0159,
                "tempo": 0
            },
            {
                "pitch": 38,
                "velocity": 1,
                "duration": 0.0841,
                "tempo": 120.0
            },
            {
                "pitch": 0,
                "velocity": 0,
                "duration": 0.0159,
                "tempo": 0
            },
            {
                "pitch": 38,
                "velocity": 1,
                "duration": 0.0841,
                "tempo": 120.0
            },
            {
                "pitch": 0,
                "velocity": 0,
                "duration": 0.1182,
                "tempo": 0
            },
            {
                "pitch": 38,
                "velocity": 1,
                "duration": 0.0841,
                "tempo": 120.0
            },
            {
                "pitch": 0,
                "velocity": 0,
                "duration": 0.0159,
                "tempo": 0
            },
            {
                "pitch": 38,
                "velocity": 1,
                "duration": 0.0841,
                "tempo": 120.0
            },
            {
                "pitch": 0,
                "velocity": 0,
                "duration": 0.0159,
                "tempo": 0
            },
            {
                "pitch": 38,
                "velocity": 1,
                "duration": 0.0841,
                "tempo": 120.0
            },
            {
                "pitch": 0,
                "velocity": 0,
                "duration": 0.1182,
                "tempo": 0
            },
            {
                "pitch": 38,
                "velocity": 1,
                "duration": 0.0841,
                "tempo": 120.0
            },
            {
                "pitch": 0,
                "velocity": 0,
                "duration": 0.0159,
                "tempo": 0
            },
            {
                "pitch": 38,
                "velocity": 1,
                "duration": 0.0841,
                "tempo": 120.0
            },
            {
                "pitch": 0,
                "velocity": 0,
                "duration": 0.0182,
                "tempo": 0
            },
            {
                "pitch": 38,
                "velocity": 1,
                "duration": 0.0818,
                "tempo": 120.0
            },
            {
                "pitch": 0,
                "velocity": 0,
                "duration": 0.0182,
                "tempo": 0
            },
            {
                "pitch": 40,
                "velocity": 1,
                "duration": 0.0818,
                "tempo": 120.0
            },
            {
                "pitch": 0,
                "velocity": 0,
                "duration": 0.0182,
                "tempo": 0
            },
            {
                "pitch": 43,
                "velocity": 1,
                "duration": 0.0818,
                "tempo": 120.0
            },
            {
                "pitch": 0,
                "velocity": 0,
                "duration": 0.0182,
                "tempo": 0
            },
            {
                "pitch": 45,
                "velocity": 1,
                "duration": 0.0818,
                "tempo": 120.0
            },
            {
                "pitch": 0,
                "velocity": 0,
                "duration": 0.0182,
                "tempo": 0
            },
            {
                "pitch": 33,
                "velocity": 1,
                "duration": 0.0841,
                "tempo": 120.0
            },
            {
                "pitch": 0,
                "velocity": 0,
                "duration": 0.1159,
                "tempo": 0
            },
            {
                "pitch": 33,
                "velocity": 1,
                "duration": 0.0841,
                "tempo": 120.0
            },
            {
                "pitch": 0,
                "velocity": 0,
                "duration": 0.0182,
                "tempo": 0
            },
            {
                "pitch": 33,
                "velocity": 1,
                "duration": 0.0818,
                "tempo": 120.0
            },
            {
                "pitch": 0,
                "velocity": 0,
                "duration": 0.0182,
                "tempo": 0
            },
            {
                "pitch": 33,
                "velocity": 1,
                "duration": 0.0818,
                "tempo": 120.0
            },
            {
                "pitch": 0,
                "velocity": 0,
                "duration": 0.1182,
                "tempo": 0
            },
            {
                "pitch": 33,
                "velocity": 1,
                "duration": 0.0818,
                "tempo": 120.0
            },
            {
                "pitch": 0,
                "velocity": 0,
                "duration": 0.0182,
                "tempo": 0
            },
            {
                "pitch": 33,
                "velocity": 1,
                "duration": 0.0818,
                "tempo": 120.0
            },
            {
                "pitch": 0,
                "velocity": 0,
                "duration": 0.0182,
                "tempo": 0
            },
            {
                "pitch": 33,
                "velocity": 1,
                "duration": 0.0841,
                "tempo": 120.0
            },
            {
                "pitch": 0,
                "velocity": 0,
                "duration": 0.1159,
                "tempo": 0
            },
            {
                "pitch": 33,
                "velocity": 1,
                "duration": 0.0841,
                "tempo": 120.0
            },
            {
                "pitch": 0,
                "velocity": 0,
                "duration": 0.0182,
                "tempo": 0
            },
            {
                "pitch": 33,
                "velocity": 1,
                "duration": 0.0841,
                "tempo": 120.0
            },
            {
                "pitch": 0,
                "velocity": 0,
                "duration": 0.0159,
                "tempo": 0
            },
            {
                "pitch": 33,
                "velocity": 1,
                "duration": 0.0841,
                "tempo": 120.0
            },
            {
                "pitch": 0,
                "velocity": 0,
                "duration": 0.0159,
                "tempo": 0
            },
            {
                "pitch": 35,
                "velocity": 1,
                "duration": 0.0841,
                "tempo": 120.0
            },
            {
                "pitch": 0,
                "velocity": 0,
                "duration": 0.0159,
                "tempo": 0
            },
            {
                "pitch": 38,
                "velocity": 1,
                "duration": 0.0841,
                "tempo": 120.0
            },
            {
                "pitch": 0,
                "velocity": 0,
                "duration": 0.0159,
                "tempo": 0
            },
            {
                "pitch": 40,
                "velocity": 1,
                "duration": 0.0841,
                "tempo": 120.0
            },
            {
                "pitch": 0,
                "velocity": 0,
                "duration": 0.0159,
                "tempo": 0
            },
            {
                "pitch": 40,
                "velocity": 1,
                "duration": 0.0841,
                "tempo": 120.0
            },
            {
                "pitch": 0,
                "velocity": 0,
                "duration": 0.1159,
                "tempo": 0
            },
            {
                "pitch": 40,
                "velocity": 1,
                "duration": 0.0841,
                "tempo": 120.0
            },
            {
                "pitch": 0,
                "velocity": 0,
                "duration": 0.0159,
                "tempo": 0
            },
            {
                "pitch": 40,
                "velocity": 1,
                "duration": 0.0841,
                "tempo": 120.0
            },
            {
                "pitch": 0,
                "velocity": 0,
                "duration": 0.0159,
                "tempo": 0
            },
            {
                "pitch": 40,
                "velocity": 1,
                "duration": 0.0841,
                "tempo": 120.0
            },
            {
                "pitch": 0,
                "velocity": 0,
                "duration": 0.1182,
                "tempo": 0
            },
            {
                "pitch": 40,
                "velocity": 1,
                "duration": 0.0818,
                "tempo": 120.0
            },
            {
                "pitch": 0,
                "velocity": 0,
                "duration": 0.0182,
                "tempo": 0
            },
            {
                "pitch": 40,
                "velocity": 1,
                "duration": 0.0841,
                "tempo": 120.0
            },
            {
                "pitch": 0,
                "velocity": 0,
                "duration": 0.0159,
                "tempo": 0
            },
            {
                "pitch": 40,
                "velocity": 1,
                "duration": 0.0841,
                "tempo": 120.0
            },
            {
                "pitch": 0,
                "velocity": 0,
                "duration": 0.1159,
                "tempo": 0
            },
            {
                "pitch": 40,
                "velocity": 1,
                "duration": 0.0841,
                "tempo": 120.0
            },
            {
                "pitch": 0,
                "velocity": 0,
                "duration": 0.0159,
                "tempo": 0
            },
            {
                "pitch": 40,
                "velocity": 1,
                "duration": 0.0841,
                "tempo": 120.0
            },
            {
                "pitch": 0,
                "velocity": 0,
                "duration": 0.0159,
                "tempo": 0
            },
            {
                "pitch": 40,
                "velocity": 1,
                "duration": 0.0841,
                "tempo": 120.0
            },
            {
                "pitch": 0,
                "velocity": 0,
                "duration": 0.0159,
                "tempo": 0
            },
            {
                "pitch": 41,
                "velocity": 1,
                "duration": 0.0841,
                "tempo": 120.0
            },
            {
                "pitch": 0,
                "velocity": 0,
                "duration": 0.0182,
                "tempo": 0
            },
            {
                "pitch": 43,
                "velocity": 1,
                "duration": 0.0841,
                "tempo": 120.0
            },
            {
                "pitch": 0,
                "velocity": 0,
                "duration": 0.0159,
                "tempo": 0
            },
            {
                "pitch": 45,
                "velocity": 1,
                "duration": 0.0841,
                "tempo": 120.0
            },
            {
                "pitch": 0,
                "velocity": 0,
                "duration": 0.0159,
                "tempo": 0
            },
            {
                "pitch": 38,
                "velocity": 1,
                "duration": 0.0841,
                "tempo": 120.0
            },
            {
                "pitch": 0,
                "velocity": 0,
                "duration": 0.1159,
                "tempo": 0
            },
            {
                "pitch": 38,
                "velocity": 1,
                "duration": 0.0841,
                "tempo": 120.0
            },
            {
                "pitch": 0,
                "velocity": 0,
                "duration": 0.0159,
                "tempo": 0
            },
            {
                "pitch": 38,
                "velocity": 1,
                "duration": 0.0841,
                "tempo": 120.0
            },
            {
                "pitch": 0,
                "velocity": 0,
                "duration": 0.0159,
                "tempo": 0
            },
            {
                "pitch": 38,
                "velocity": 1,
                "duration": 0.0841,
                "tempo": 120.0
            },
            {
                "pitch": 0,
                "velocity": 0,
                "duration": 0.1159,
                "tempo": 0
            },
            {
                "pitch": 38,
                "velocity": 1,
                "duration": 0.0841,
                "tempo": 120.0
            },
            {
                "pitch": 0,
                "velocity": 0,
                "duration": 0.0159,
                "tempo": 0
            },
            {
                "pitch": 38,
                "velocity": 1,
                "duration": 0.0841,
                "tempo": 120.0
            },
            {
                "pitch": 0,
                "velocity": 0,
                "duration": 0.0159,
                "tempo": 0
            },
            {
                "pitch": 38,
                "velocity": 1,
                "duration": 0.0841,
                "tempo": 120.0
            },
            {
                "pitch": 0,
                "velocity": 0,
                "duration": 0.1182,
                "tempo": 0
            },
            {
                "pitch": 38,
                "velocity": 1,
                "duration": 0.0841,
                "tempo": 120.0
            },
            {
                "pitch": 0,
                "velocity": 0,
                "duration": 0.0159,
                "tempo": 0
            },
            {
                "pitch": 38,
                "velocity": 1,
                "duration": 0.0841,
                "tempo": 120.0
            },
            {
                "pitch": 0,
                "velocity": 0,
                "duration": 0.0182,
                "tempo": 0
            },
            {
                "pitch": 38,
                "velocity": 1,
                "duration": 0.0818,
                "tempo": 120.0
            },
            {
                "pitch": 0,
                "velocity": 0,
                "duration": 0.0182,
                "tempo": 0
            },
            {
                "pitch": 40,
                "velocity": 1,
                "duration": 0.0818,
                "tempo": 120.0
            },
            {
                "pitch": 0,
                "velocity": 0,
                "duration": 0.0182,
                "tempo": 0
            },
            {
                "pitch": 43,
                "velocity": 1,
                "duration": 0.0818,
                "tempo": 120.0
            },
            {
                "pitch": 0,
                "velocity": 0,
                "duration": 0.0182,
                "tempo": 0
            },
            {
                "pitch": 45,
                "velocity": 1,
                "duration": 0.0818,
                "tempo": 120.0
            },
            {
                "pitch": 0,
                "velocity": 0,
                "duration": 0.0182,
                "tempo": 0
            },
            {
                "pitch": 36,
                "velocity": 1,
                "duration": 0.0818,
                "tempo": 120.0
            },
            {
                "pitch": 0,
                "velocity": 0,
                "duration": 0.1182,
                "tempo": 0
            },
            {
                "pitch": 36,
                "velocity": 1,
                "duration": 0.0841,
                "tempo": 120.0
            },
            {
                "pitch": 0,
                "velocity": 0,
                "duration": 0.0159,
                "tempo": 0
            },
            {
                "pitch": 36,
                "velocity": 1,
                "duration": 0.0841,
                "tempo": 120.0
            },
            {
                "pitch": 0,
                "velocity": 0,
                "duration": 0.0182,
                "tempo": 0
            },
            {
                "pitch": 36,
                "velocity": 1,
                "duration": 0.0818,
                "tempo": 120.0
            },
            {
                "pitch": 0,
                "velocity": 0,
                "duration": 0.1182,
                "tempo": 0
            },
            {
                "pitch": 36,
                "velocity": 1,
                "duration": 0.0818,
                "tempo": 120.0
            },
            {
                "pitch": 0,
                "velocity": 0,
                "duration": 0.0182,
                "tempo": 0
            },
            {
                "pitch": 36,
                "velocity": 1,
                "duration": 0.0818,
                "tempo": 120.0
            },
            {
                "pitch": 0,
                "velocity": 0,
                "duration": 0.0182,
                "tempo": 0
            },
            {
                "pitch": 36,
                "velocity": 1,
                "duration": 0.0818,
                "tempo": 120.0
            },
            {
                "pitch": 0,
                "velocity": 0,
                "duration": 0.1182,
                "tempo": 0
            },
            {
                "pitch": 36,
                "velocity": 1,
                "duration": 0.0818,
                "tempo": 120.0
            },
            {
                "pitch": 0,
                "velocity": 0,
                "duration": 0.0182,
                "tempo": 0
            },
            {
                "pitch": 36,
                "velocity": 1,
                "duration": 0.0818,
                "tempo": 120.0
            },
            {
                "pitch": 0,
                "velocity": 0,
                "duration": 0.0182,
                "tempo": 0
            },
            {
                "pitch": 36,
                "velocity": 1,
                "duration": 0.0841,
                "tempo": 120.0
            },
            {
                "pitch": 0,
                "velocity": 0,
                "duration": 0.0159,
                "tempo": 0
            },
            {
                "pitch": 38,
                "velocity": 1,
                "duration": 0.0841,
                "tempo": 120.0
            },
            {
                "pitch": 0,
                "velocity": 0,
                "duration": 0.0159,
                "tempo": 0
            },
            {
                "pitch": 36,
                "velocity": 1,
                "duration": 0.0841,
                "tempo": 120.0
            },
            {
                "pitch": 0,
                "velocity": 0,
                "duration": 0.0182,
                "tempo": 0
            },
            {
                "pitch": 35,
                "velocity": 1,
                "duration": 0.0841,
                "tempo": 120.0
            },
            {
                "pitch": 0,
                "velocity": 0,
                "duration": 0.0159,
                "tempo": 0
            },
            {
                "pitch": 33,
                "velocity": 1,
                "duration": 0.0841,
                "tempo": 120.0
            },
            {
                "pitch": 0,
                "velocity": 0,
                "duration": 0.1159,
                "tempo": 0
            },
            {
                "pitch": 33,
                "velocity": 1,
                "duration": 0.0841,
                "tempo": 120.0
            },
            {
                "pitch": 0,
                "velocity": 0,
                "duration": 0.0159,
                "tempo": 0
            },
            {
                "pitch": 33,
                "velocity": 1,
                "duration": 0.0841,
                "tempo": 120.0
            },
            {
                "pitch": 0,
                "velocity": 0,
                "duration": 0.0159,
                "tempo": 0
            },
            {
                "pitch": 33,
                "velocity": 1,
                "duration": 0.0841,
                "tempo": 120.0
            },
            {
                "pitch": 0,
                "velocity": 0,
                "duration": 0.1159,
                "tempo": 0
            },
            {
                "pitch": 33,
                "velocity": 1,
                "duration": 0.0841,
                "tempo": 120.0
            },
            {
                "pitch": 0,
                "velocity": 0,
                "duration": 0.0182,
                "tempo": 0
            },
            {
                "pitch": 33,
                "velocity": 1,
                "duration": 0.0841,
                "tempo": 120.0
            },
            {
                "pitch": 0,
                "velocity": 0,
                "duration": 0.0159,
                "tempo": 0
            },
            {
                "pitch": 33,
                "velocity": 1,
                "duration": 0.0841,
                "tempo": 120.0
            },
            {
                "pitch": 0,
                "velocity": 0,
                "duration": 0.1159,
                "tempo": 0
            },
            {
                "pitch": 33,
                "velocity": 1,
                "duration": 0.0841,
                "tempo": 120.0
            },
            {
                "pitch": 0,
                "velocity": 0,
                "duration": 0.0159,
                "tempo": 0
            },
            {
                "pitch": 33,
                "velocity": 1,
                "duration": 0.0841,
                "tempo": 120.0
            },
            {
                "pitch": 0,
                "velocity": 0,
                "duration": 0.0159,
                "tempo": 0
            },
            {
                "pitch": 33,
                "velocity": 1,
                "duration": 0.0841,
                "tempo": 120.0
            },
            {
                "pitch": 0,
                "velocity": 0,
                "duration": 0.0159,
                "tempo": 0
            },
            {
                "pitch": 35,
                "velocity": 1,
                "duration": 0.0841,
                "tempo": 120.0
            },
            {
                "pitch": 0,
                "velocity": 0,
                "duration": 0.0159,
                "tempo": 0
            },
            {
                "pitch": 38,
                "velocity": 1,
                "duration": 0.0841,
                "tempo": 120.0
            },
            {
                "pitch": 0,
                "velocity": 0,
                "duration": 0.0159,
                "tempo": 0
            },
            {
                "pitch": 40,
                "velocity": 1,
                "duration": 0.0841,
                "tempo": 120.0
            },
            {
                "pitch": 0,
                "velocity": 0,
                "duration": 0.0159,
                "tempo": 0
            },
            {
                "pitch": 38,
                "velocity": 1,
                "duration": 0.0841,
                "tempo": 120.0
            },
            {
                "pitch": 0,
                "velocity": 0,
                "duration": 0.1182,
                "tempo": 0
            },
            {
                "pitch": 38,
                "velocity": 1,
                "duration": 0.0841,
                "tempo": 120.0
            },
            {
                "pitch": 0,
                "velocity": 0,
                "duration": 0.0159,
                "tempo": 0
            },
            {
                "pitch": 38,
                "velocity": 1,
                "duration": 0.0841,
                "tempo": 120.0
            },
            {
                "pitch": 0,
                "velocity": 0,
                "duration": 0.0159,
                "tempo": 0
            },
            {
                "pitch": 38,
                "velocity": 1,
                "duration": 0.0841,
                "tempo": 120.0
            },
            {
                "pitch": 0,
                "velocity": 0,
                "duration": 0.1159,
                "tempo": 0
            },
            {
                "pitch": 38,
                "velocity": 1,
                "duration": 0.0841,
                "tempo": 120.0
            },
            {
                "pitch": 0,
                "velocity": 0,
                "duration": 0.0159,
                "tempo": 0
            },
            {
                "pitch": 38,
                "velocity": 1,
                "duration": 0.0841,
                "tempo": 120.0
            },
            {
                "pitch": 0,
                "velocity": 0,
                "duration": 0.0159,
                "tempo": 0
            },
            {
                "pitch": 38,
                "velocity": 1,
                "duration": 0.0841,
                "tempo": 120.0
            },
            {
                "pitch": 0,
                "velocity": 0,
                "duration": 0.1182,
                "tempo": 0
            },
            {
                "pitch": 38,
                "velocity": 1,
                "duration": 0.0841,
                "tempo": 120.0
            },
            {
                "pitch": 0,
                "velocity": 0,
                "duration": 0.0159,
                "tempo": 0
            },
            {
                "pitch": 38,
                "velocity": 1,
                "duration": 0.0841,
                "tempo": 120.0
            },
            {
                "pitch": 0,
                "velocity": 0,
                "duration": 0.0159,
                "tempo": 0
            },
            {
                "pitch": 38,
                "velocity": 1,
                "duration": 0.0841,
                "tempo": 120.0
            },
            {
                "pitch": 0,
                "velocity": 0,
                "duration": 0.0159,
                "tempo": 0
            },
            {
                "pitch": 40,
                "velocity": 1,
                "duration": 0.0841,
                "tempo": 120.0
            },
            {
                "pitch": 0,
                "velocity": 0,
                "duration": 0.0159,
                "tempo": 0
            },
            {
                "pitch": 43,
                "velocity": 1,
                "duration": 0.0841,
                "tempo": 120.0
            },
            {
                "pitch": 0,
                "velocity": 0,
                "duration": 0.0159,
                "tempo": 0
            },
            {
                "pitch": 45,
                "velocity": 1,
                "duration": 0.0841,
                "tempo": 120.0
            },
            {
                "pitch": 0,
                "velocity": 0,
                "duration": 0.0159,
                "tempo": 0
            },
            {
                "pitch": 40,
                "velocity": 1,
                "duration": 0.0841,
                "tempo": 120.0
            },
            {
                "pitch": 0,
                "velocity": 0,
                "duration": 0.1159,
                "tempo": 0
            },
            {
                "pitch": 40,
                "velocity": 1,
                "duration": 0.0841,
                "tempo": 120.0
            },
            {
                "pitch": 0,
                "velocity": 0,
                "duration": 0.0159,
                "tempo": 0
            },
            {
                "pitch": 40,
                "velocity": 1,
                "duration": 0.0841,
                "tempo": 120.0
            },
            {
                "pitch": 0,
                "velocity": 0,
                "duration": 0.0159,
                "tempo": 0
            },
            {
                "pitch": 40,
                "velocity": 1,
                "duration": 0.0841,
                "tempo": 120.0
            },
            {
                "pitch": 0,
                "velocity": 0,
                "duration": 0.1182,
                "tempo": 0
            },
            {
                "pitch": 40,
                "velocity": 1,
                "duration": 0.0841,
                "tempo": 120.0
            },
            {
                "pitch": 0,
                "velocity": 0,
                "duration": 0.0159,
                "tempo": 0
            },
            {
                "pitch": 40,
                "velocity": 1,
                "duration": 0.0841,
                "tempo": 120.0
            },
            {
                "pitch": 0,
                "velocity": 0,
                "duration": 0.0182,
                "tempo": 0
            },
            {
                "pitch": 40,
                "velocity": 1,
                "duration": 0.0818,
                "tempo": 120.0
            },
            {
                "pitch": 0,
                "velocity": 0,
                "duration": 0.1182,
                "tempo": 0
            },
            {
                "pitch": 40,
                "velocity": 1,
                "duration": 0.0818,
                "tempo": 120.0
            },
            {
                "pitch": 0,
                "velocity": 0,
                "duration": 0.0182,
                "tempo": 0
            },
            {
                "pitch": 40,
                "velocity": 1,
                "duration": 0.0818,
                "tempo": 120.0
            },
            {
                "pitch": 0,
                "velocity": 0,
                "duration": 0.0182,
                "tempo": 0
            },
            {
                "pitch": 40,
                "velocity": 1,
                "duration": 0.0841,
                "tempo": 120.0
            },
            {
                "pitch": 0,
                "velocity": 0,
                "duration": 0.0159,
                "tempo": 0
            },
            {
                "pitch": 41,
                "velocity": 1,
                "duration": 0.0841,
                "tempo": 120.0
            },
            {
                "pitch": 0,
                "velocity": 0,
                "duration": 0.0159,
                "tempo": 0
            },
            {
                "pitch": 43,
                "velocity": 1,
                "duration": 0.0841,
                "tempo": 120.0
            },
            {
                "pitch": 0,
                "velocity": 0,
                "duration": 0.0182,
                "tempo": 0
            },
            {
                "pitch": 45,
                "velocity": 1,
                "duration": 0.0818,
                "tempo": 120.0
            },
            {
                "pitch": 0,
                "velocity": 0,
                "duration": 0.0182,
                "tempo": 0
            },
            {
                "pitch": 38,
                "velocity": 1,
                "duration": 0.0818,
                "tempo": 120.0
            },
            {
                "pitch": 0,
                "velocity": 0,
                "duration": 0.1182,
                "tempo": 0
            },
            {
                "pitch": 38,
                "velocity": 1,
                "duration": 0.0818,
                "tempo": 120.0
            },
            {
                "pitch": 0,
                "velocity": 0,
                "duration": 0.0182,
                "tempo": 0
            },
            {
                "pitch": 38,
                "velocity": 1,
                "duration": 0.0818,
                "tempo": 120.0
            },
            {
                "pitch": 0,
                "velocity": 0,
                "duration": 0.0182,
                "tempo": 0
            },
            {
                "pitch": 38,
                "velocity": 1,
                "duration": 0.0818,
                "tempo": 120.0
            },
            {
                "pitch": 0,
                "velocity": 0,
                "duration": 0.1182,
                "tempo": 0
            },
            {
                "pitch": 38,
                "velocity": 1,
                "duration": 0.0818,
                "tempo": 120.0
            },
            {
                "pitch": 0,
                "velocity": 0,
                "duration": 0.0182,
                "tempo": 0
            },
            {
                "pitch": 38,
                "velocity": 1,
                "duration": 0.0818,
                "tempo": 120.0
            },
            {
                "pitch": 0,
                "velocity": 0,
                "duration": 0.0182,
                "tempo": 0
            },
            {
                "pitch": 38,
                "velocity": 1,
                "duration": 0.0841,
                "tempo": 120.0
            },
            {
                "pitch": 0,
                "velocity": 0,
                "duration": 0.1159,
                "tempo": 0
            },
            {
                "pitch": 38,
                "velocity": 1,
                "duration": 0.0841,
                "tempo": 120.0
            },
            {
                "pitch": 0,
                "velocity": 0,
                "duration": 0.0182,
                "tempo": 0
            },
            {
                "pitch": 38,
                "velocity": 1,
                "duration": 0.0841,
                "tempo": 120.0
            },
            {
                "pitch": 0,
                "velocity": 0,
                "duration": 0.0159,
                "tempo": 0
            },
            {
                "pitch": 38,
                "velocity": 1,
                "duration": 0.0841,
                "tempo": 120.0
            },
            {
                "pitch": 0,
                "velocity": 0,
                "duration": 0.0159,
                "tempo": 0
            },
            {
                "pitch": 40,
                "velocity": 1,
                "duration": 0.0841,
                "tempo": 120.0
            },
            {
                "pitch": 0,
                "velocity": 0,
                "duration": 0.0159,
                "tempo": 0
            },
            {
                "pitch": 43,
                "velocity": 1,
                "duration": 0.0841,
                "tempo": 120.0
            },
            {
                "pitch": 0,
                "velocity": 0,
                "duration": 0.0159,
                "tempo": 0
            },
            {
                "pitch": 45,
                "velocity": 1,
                "duration": 0.0841,
                "tempo": 120.0
            },
            {
                "pitch": 0,
                "velocity": 0,
                "duration": 0.0159,
                "tempo": 0
            },
            {
                "pitch": 33,
                "velocity": 1,
                "duration": 0.0841,
                "tempo": 120.0
            },
            {
                "pitch": 0,
                "velocity": 0,
                "duration": 0.1182,
                "tempo": 0
            },
            {
                "pitch": 33,
                "velocity": 1,
                "duration": 0.0818,
                "tempo": 120.0
            },
            {
                "pitch": 0,
                "velocity": 0,
                "duration": 0.0182,
                "tempo": 0
            },
            {
                "pitch": 33,
                "velocity": 1,
                "duration": 0.0841,
                "tempo": 120.0
            },
            {
                "pitch": 0,
                "velocity": 0,
                "duration": 0.0159,
                "tempo": 0
            },
            {
                "pitch": 33,
                "velocity": 1,
                "duration": 0.0841,
                "tempo": 120.0
            },
            {
                "pitch": 0,
                "velocity": 0,
                "duration": 0.1159,
                "tempo": 0
            },
            {
                "pitch": 33,
                "velocity": 1,
                "duration": 0.0841,
                "tempo": 120.0
            },
            {
                "pitch": 0,
                "velocity": 0,
                "duration": 0.0159,
                "tempo": 0
            },
            {
                "pitch": 33,
                "velocity": 1,
                "duration": 0.0841,
                "tempo": 120.0
            },
            {
                "pitch": 0,
                "velocity": 0,
                "duration": 0.0159,
                "tempo": 0
            },
            {
                "pitch": 33,
                "velocity": 1,
                "duration": 0.0841,
                "tempo": 120.0
            },
            {
                "pitch": 0,
                "velocity": 0,
                "duration": 0.1159,
                "tempo": 0
            },
            {
                "pitch": 33,
                "velocity": 1,
                "duration": 0.0841,
                "tempo": 120.0
            },
            {
                "pitch": 0,
                "velocity": 0,
                "duration": 0.0159,
                "tempo": 0
            },
            {
                "pitch": 33,
                "velocity": 1,
                "duration": 0.0841,
                "tempo": 120.0
            },
            {
                "pitch": 0,
                "velocity": 0,
                "duration": 0.0159,
                "tempo": 0
            },
            {
                "pitch": 33,
                "velocity": 1,
                "duration": 0.0841,
                "tempo": 120.0
            },
            {
                "pitch": 0,
                "velocity": 0,
                "duration": 0.0159,
                "tempo": 0
            },
            {
                "pitch": 35,
                "velocity": 1,
                "duration": 0.0841,
                "tempo": 120.0
            },
            {
                "pitch": 0,
                "velocity": 0,
                "duration": 0.0182,
                "tempo": 0
            },
            {
                "pitch": 38,
                "velocity": 1,
                "duration": 0.0841,
                "tempo": 120.0
            },
            {
                "pitch": 0,
                "velocity": 0,
                "duration": 0.0159,
                "tempo": 0
            },
            {
                "pitch": 40,
                "velocity": 1,
                "duration": 0.0841,
                "tempo": 120.0
            },
            {
                "pitch": 0,
                "velocity": 0,
                "duration": 0.0159,
                "tempo": 0
            },
            {
                "pitch": 40,
                "velocity": 1,
                "duration": 0.0841,
                "tempo": 120.0
            },
            {
                "pitch": 0,
                "velocity": 0,
                "duration": 0.1159,
                "tempo": 0
            },
            {
                "pitch": 40,
                "velocity": 1,
                "duration": 0.0841,
                "tempo": 120.0
            },
            {
                "pitch": 0,
                "velocity": 0,
                "duration": 0.0159,
                "tempo": 0
            },
            {
                "pitch": 40,
                "velocity": 1,
                "duration": 0.0841,
                "tempo": 120.0
            },
            {
                "pitch": 0,
                "velocity": 0,
                "duration": 0.0159,
                "tempo": 0
            },
            {
                "pitch": 40,
                "velocity": 1,
                "duration": 0.0841,
                "tempo": 120.0
            },
            {
                "pitch": 0,
                "velocity": 0,
                "duration": 0.1182,
                "tempo": 0
            },
            {
                "pitch": 40,
                "velocity": 1,
                "duration": 0.0841,
                "tempo": 120.0
            },
            {
                "pitch": 0,
                "velocity": 0,
                "duration": 0.0159,
                "tempo": 0
            },
            {
                "pitch": 40,
                "velocity": 1,
                "duration": 0.0841,
                "tempo": 120.0
            },
            {
                "pitch": 0,
                "velocity": 0,
                "duration": 0.0182,
                "tempo": 0
            },
            {
                "pitch": 40,
                "velocity": 1,
                "duration": 0.0818,
                "tempo": 120.0
            },
            {
                "pitch": 0,
                "velocity": 0,
                "duration": 0.1182,
                "tempo": 0
            },
            {
                "pitch": 40,
                "velocity": 1,
                "duration": 0.0818,
                "tempo": 120.0
            },
            {
                "pitch": 0,
                "velocity": 0,
                "duration": 0.0182,
                "tempo": 0
            },
            {
                "pitch": 40,
                "velocity": 1,
                "duration": 0.0818,
                "tempo": 120.0
            },
            {
                "pitch": 0,
                "velocity": 0,
                "duration": 0.0182,
                "tempo": 0
            },
            {
                "pitch": 40,
                "velocity": 1,
                "duration": 0.0818,
                "tempo": 120.0
            },
            {
                "pitch": 0,
                "velocity": 0,
                "duration": 0.0182,
                "tempo": 0
            },
            {
                "pitch": 41,
                "velocity": 1,
                "duration": 0.0818,
                "tempo": 120.0
            },
            {
                "pitch": 0,
                "velocity": 0,
                "duration": 0.0182,
                "tempo": 0
            },
            {
                "pitch": 43,
                "velocity": 1,
                "duration": 0.0818,
                "tempo": 120.0
            },
            {
                "pitch": 0,
                "velocity": 0,
                "duration": 0.0182,
                "tempo": 0
            },
            {
                "pitch": 45,
                "velocity": 1,
                "duration": 0.0818,
                "tempo": 120.0
            },
            {
                "pitch": 0,
                "velocity": 0,
                "duration": 0.0182,
                "tempo": 0
            },
            {
                "pitch": 38,
                "velocity": 1,
                "duration": 0.0818,
                "tempo": 120.0
            },
            {
                "pitch": 0,
                "velocity": 0,
                "duration": 0.1182,
                "tempo": 0
            },
            {
                "pitch": 38,
                "velocity": 1,
                "duration": 0.0818,
                "tempo": 120.0
            },
            {
                "pitch": 0,
                "velocity": 0,
                "duration": 0.0182,
                "tempo": 0
            },
            {
                "pitch": 38,
                "velocity": 1,
                "duration": 0.0818,
                "tempo": 120.0
            },
            {
                "pitch": 0,
                "velocity": 0,
                "duration": 0.0182,
                "tempo": 0
            },
            {
                "pitch": 38,
                "velocity": 1,
                "duration": 0.0818,
                "tempo": 120.0
            },
            {
                "pitch": 0,
                "velocity": 0,
                "duration": 0.1182,
                "tempo": 0
            },
            {
                "pitch": 38,
                "velocity": 1,
                "duration": 0.0841,
                "tempo": 120.0
            },
            {
                "pitch": 0,
                "velocity": 0,
                "duration": 0.0159,
                "tempo": 0
            },
            {
                "pitch": 38,
                "velocity": 1,
                "duration": 0.0841,
                "tempo": 120.0
            },
            {
                "pitch": 0,
                "velocity": 0,
                "duration": 0.0182,
                "tempo": 0
            },
            {
                "pitch": 38,
                "velocity": 1,
                "duration": 0.0818,
                "tempo": 120.0
            },
            {
                "pitch": 0,
                "velocity": 0,
                "duration": 0.1182,
                "tempo": 0
            },
            {
                "pitch": 38,
                "velocity": 1,
                "duration": 0.0818,
                "tempo": 120.0
            },
            {
                "pitch": 0,
                "velocity": 0,
                "duration": 0.0182,
                "tempo": 0
            },
            {
                "pitch": 38,
                "velocity": 1,
                "duration": 0.0818,
                "tempo": 120.0
            },
            {
                "pitch": 0,
                "velocity": 0,
                "duration": 0.0182,
                "tempo": 0
            },
            {
                "pitch": 38,
                "velocity": 1,
                "duration": 0.0818,
                "tempo": 120.0
            },
            {
                "pitch": 0,
                "velocity": 0,
                "duration": 0.0182,
                "tempo": 0
            },
            {
                "pitch": 40,
                "velocity": 1,
                "duration": 0.0818,
                "tempo": 120.0
            },
            {
                "pitch": 0,
                "velocity": 0,
                "duration": 0.0182,
                "tempo": 0
            },
            {
                "pitch": 41,
                "velocity": 1,
                "duration": 0.0818,
                "tempo": 120.0
            },
            {
                "pitch": 0,
                "velocity": 0,
                "duration": 0.0182,
                "tempo": 0
            },
            {
                "pitch": 43,
                "velocity": 1,
                "duration": 0.0818,
                "tempo": 120.0
            },
            {
                "pitch": 0,
                "velocity": 0,
                "duration": 0.0182,
                "tempo": 0
            },
            {
                "pitch": 36,
                "velocity": 1,
                "duration": 0.0818,
                "tempo": 120.0
            },
            {
                "pitch": 0,
                "velocity": 0,
                "duration": 0.1182,
                "tempo": 0
            },
            {
                "pitch": 36,
                "velocity": 1,
                "duration": 0.0818,
                "tempo": 120.0
            },
            {
                "pitch": 0,
                "velocity": 0,
                "duration": 0.0182,
                "tempo": 0
            },
            {
                "pitch": 36,
                "velocity": 1,
                "duration": 0.0818,
                "tempo": 120.0
            },
            {
                "pitch": 0,
                "velocity": 0,
                "duration": 0.0182,
                "tempo": 0
            },
            {
                "pitch": 36,
                "velocity": 1,
                "duration": 0.0818,
                "tempo": 120.0
            },
            {
                "pitch": 0,
                "velocity": 0,
                "duration": 0.1182,
                "tempo": 0
            },
            {
                "pitch": 36,
                "velocity": 1,
                "duration": 0.0818,
                "tempo": 120.0
            },
            {
                "pitch": 0,
                "velocity": 0,
                "duration": 0.0182,
                "tempo": 0
            },
            {
                "pitch": 36,
                "velocity": 1,
                "duration": 0.0818,
                "tempo": 120.0
            },
            {
                "pitch": 0,
                "velocity": 0,
                "duration": 0.0182,
                "tempo": 0
            },
            {
                "pitch": 36,
                "velocity": 1,
                "duration": 0.0841,
                "tempo": 120.0
            },
            {
                "pitch": 0,
                "velocity": 0,
                "duration": 0.1159,
                "tempo": 0
            },
            {
                "pitch": 36,
                "velocity": 1,
                "duration": 0.0841,
                "tempo": 120.0
            },
            {
                "pitch": 0,
                "velocity": 0,
                "duration": 0.0182,
                "tempo": 0
            },
            {
                "pitch": 36,
                "velocity": 1,
                "duration": 0.0841,
                "tempo": 120.0
            },
            {
                "pitch": 0,
                "velocity": 0,
                "duration": 0.0159,
                "tempo": 0
            },
            {
                "pitch": 36,
                "velocity": 1,
                "duration": 0.0841,
                "tempo": 120.0
            },
            {
                "pitch": 0,
                "velocity": 0,
                "duration": 0.0159,
                "tempo": 0
            },
            {
                "pitch": 38,
                "velocity": 1,
                "duration": 0.0841,
                "tempo": 120.0
            },
            {
                "pitch": 0,
                "velocity": 0,
                "duration": 0.0159,
                "tempo": 0
            },
            {
                "pitch": 36,
                "velocity": 1,
                "duration": 0.0841,
                "tempo": 120.0
            },
            {
                "pitch": 0,
                "velocity": 0,
                "duration": 0.0159,
                "tempo": 0
            },
            {
                "pitch": 35,
                "velocity": 1,
                "duration": 0.0841,
                "tempo": 120.0
            },
            {
                "pitch": 0,
                "velocity": 0,
                "duration": 0.0159,
                "tempo": 0
            },
            {
                "pitch": 33,
                "velocity": 1,
                "duration": 0.0841,
                "tempo": 120.0
            },
            {
                "pitch": 0,
                "velocity": 0,
                "duration": 0.1159,
                "tempo": 0
            },
            {
                "pitch": 33,
                "velocity": 1,
                "duration": 0.0841,
                "tempo": 120.0
            },
            {
                "pitch": 0,
                "velocity": 0,
                "duration": 0.0159,
                "tempo": 0
            },
            {
                "pitch": 33,
                "velocity": 1,
                "duration": 0.0841,
                "tempo": 120.0
            },
            {
                "pitch": 0,
                "velocity": 0,
                "duration": 0.0159,
                "tempo": 0
            },
            {
                "pitch": 33,
                "velocity": 1,
                "duration": 0.0841,
                "tempo": 120.0
            },
            {
                "pitch": 0,
                "velocity": 0,
                "duration": 0.1159,
                "tempo": 0
            },
            {
                "pitch": 33,
                "velocity": 1,
                "duration": 0.0841,
                "tempo": 120.0
            },
            {
                "pitch": 0,
                "velocity": 0,
                "duration": 0.0159,
                "tempo": 0
            },
            {
                "pitch": 33,
                "velocity": 1,
                "duration": 0.0841,
                "tempo": 120.0
            },
            {
                "pitch": 0,
                "velocity": 0,
                "duration": 0.0159,
                "tempo": 0
            },
            {
                "pitch": 33,
                "velocity": 1,
                "duration": 0.0841,
                "tempo": 120.0
            },
            {
                "pitch": 0,
                "velocity": 0,
                "duration": 0.1159,
                "tempo": 0
            },
            {
                "pitch": 33,
                "velocity": 1,
                "duration": 0.0841,
                "tempo": 120.0
            },
            {
                "pitch": 0,
                "velocity": 0,
                "duration": 0.0159,
                "tempo": 0
            },
            {
                "pitch": 33,
                "velocity": 1,
                "duration": 0.0841,
                "tempo": 120.0
            },
            {
                "pitch": 0,
                "velocity": 0,
                "duration": 0.0159,
                "tempo": 0
            },
            {
                "pitch": 33,
                "velocity": 1,
                "duration": 0.0818,
                "tempo": 120.0
            },
            {
                "pitch": 0,
                "velocity": 0,
                "duration": 0.0159,
                "tempo": 0
            },
            {
                "pitch": 35,
                "velocity": 1,
                "duration": 0.0818,
                "tempo": 120.0
            },
            {
                "pitch": 0,
                "velocity": 0,
                "duration": 0.0159,
                "tempo": 0
            },
            {
                "pitch": 36,
                "velocity": 1,
                "duration": 0.0818,
                "tempo": 120.0
            },
            {
                "pitch": 0,
                "velocity": 0,
                "duration": 0.0159,
                "tempo": 0
            },
            {
                "pitch": 38,
                "velocity": 1,
                "duration": 0.0818,
                "tempo": 120.0
            },
            {
                "pitch": 0,
                "velocity": 0,
                "duration": 0.0159,
                "tempo": 0
            },
            {
                "pitch": 33,
                "velocity": 1,
                "duration": 0.0864,
                "tempo": 120.0
            },
            {
                "pitch": 0,
                "velocity": 0,
                "duration": 0.1205,
                "tempo": 0
            },
            {
                "pitch": 33,
                "velocity": 1,
                "duration": 0.0841,
                "tempo": 120.0
            },
            {
                "pitch": 0,
                "velocity": 0,
                "duration": 0.0182,
                "tempo": 0
            },
            {
                "pitch": 33,
                "velocity": 1,
                "duration": 0.0864,
                "tempo": 120.0
            },
            {
                "pitch": 0,
                "velocity": 0,
                "duration": 0.0159,
                "tempo": 0
            },
            {
                "pitch": 33,
                "velocity": 1,
                "duration": 0.0841,
                "tempo": 120.0
            },
            {
                "pitch": 0,
                "velocity": 0,
                "duration": 0.1159,
                "tempo": 0
            },
            {
                "pitch": 33,
                "velocity": 1,
                "duration": 0.0841,
                "tempo": 120.0
            },
            {
                "pitch": 0,
                "velocity": 0,
                "duration": 0.0159,
                "tempo": 0
            },
            {
                "pitch": 33,
                "velocity": 1,
                "duration": 0.0841,
                "tempo": 120.0
            },
            {
                "pitch": 0,
                "velocity": 0,
                "duration": 0.0159,
                "tempo": 0
            },
            {
                "pitch": 33,
                "velocity": 1,
                "duration": 0.0841,
                "tempo": 120.0
            },
            {
                "pitch": 0,
                "velocity": 0,
                "duration": 0.1159,
                "tempo": 0
            },
            {
                "pitch": 33,
                "velocity": 1,
                "duration": 0.0841,
                "tempo": 120.0
            },
            {
                "pitch": 0,
                "velocity": 0,
                "duration": 0.0159,
                "tempo": 0
            },
            {
                "pitch": 33,
                "velocity": 1,
                "duration": 0.0841,
                "tempo": 120.0
            },
            {
                "pitch": 0,
                "velocity": 0,
                "duration": 0.0159,
                "tempo": 0
            },
            {
                "pitch": 33,
                "velocity": 1,
                "duration": 0.0841,
                "tempo": 120.0
            },
            {
                "pitch": 0,
                "velocity": 0,
                "duration": 0.0159,
                "tempo": 0
            },
            {
                "pitch": 35,
                "velocity": 1,
                "duration": 0.0841,
                "tempo": 120.0
            },
            {
                "pitch": 0,
                "velocity": 0,
                "duration": 0.0159,
                "tempo": 0
            },
            {
                "pitch": 36,
                "velocity": 1,
                "duration": 0.0841,
                "tempo": 120.0
            },
            {
                "pitch": 0,
                "velocity": 0,
                "duration": 0.0159,
                "tempo": 0
            },
            {
                "pitch": 38,
                "velocity": 1,
                "duration": 0.0841,
                "tempo": 120.0
            },
            {
                "pitch": 0,
                "velocity": 0,
                "duration": 0.0159,
                "tempo": 0
            },
            {
                "pitch": 40,
                "velocity": 1,
                "duration": 0.0841,
                "tempo": 120.0
            },
            {
                "pitch": 0,
                "velocity": 0,
                "duration": 0.1182,
                "tempo": 0
            },
            {
                "pitch": 40,
                "velocity": 1,
                "duration": 0.0841,
                "tempo": 120.0
            },
            {
                "pitch": 0,
                "velocity": 0,
                "duration": 0.0159,
                "tempo": 0
            },
            {
                "pitch": 40,
                "velocity": 1,
                "duration": 0.0841,
                "tempo": 120.0
            },
            {
                "pitch": 0,
                "velocity": 0,
                "duration": 0.0159,
                "tempo": 0
            },
            {
                "pitch": 40,
                "velocity": 1,
                "duration": 0.0841,
                "tempo": 120.0
            },
            {
                "pitch": 0,
                "velocity": 0,
                "duration": 0.1159,
                "tempo": 0
            },
            {
                "pitch": 40,
                "velocity": 1,
                "duration": 0.0841,
                "tempo": 120.0
            },
            {
                "pitch": 0,
                "velocity": 0,
                "duration": 0.0159,
                "tempo": 0
            },
            {
                "pitch": 40,
                "velocity": 1,
                "duration": 0.0841,
                "tempo": 120.0
            },
            {
                "pitch": 0,
                "velocity": 0,
                "duration": 0.0159,
                "tempo": 0
            },
            {
                "pitch": 40,
                "velocity": 1,
                "duration": 0.0841,
                "tempo": 120.0
            },
            {
                "pitch": 0,
                "velocity": 0,
                "duration": 0.1159,
                "tempo": 0
            },
            {
                "pitch": 40,
                "velocity": 1,
                "duration": 0.0841,
                "tempo": 120.0
            },
            {
                "pitch": 0,
                "velocity": 0,
                "duration": 0.0159,
                "tempo": 0
            },
            {
                "pitch": 40,
                "velocity": 1,
                "duration": 0.0841,
                "tempo": 120.0
            },
            {
                "pitch": 0,
                "velocity": 0,
                "duration": 0.0159,
                "tempo": 0
            },
            {
                "pitch": 40,
                "velocity": 1,
                "duration": 0.0841,
                "tempo": 120.0
            },
            {
                "pitch": 0,
                "velocity": 0,
                "duration": 0.0159,
                "tempo": 0
            },
            {
                "pitch": 41,
                "velocity": 1,
                "duration": 0.0841,
                "tempo": 120.0
            },
            {
                "pitch": 0,
                "velocity": 0,
                "duration": 0.0159,
                "tempo": 0
            },
            {
                "pitch": 43,
                "velocity": 1,
                "duration": 0.0841,
                "tempo": 120.0
            },
            {
                "pitch": 0,
                "velocity": 0,
                "duration": 0.0159,
                "tempo": 0
            },
            {
                "pitch": 45,
                "velocity": 1,
                "duration": 0.0841,
                "tempo": 120.0
            },
            {
                "pitch": 0,
                "velocity": 0,
                "duration": 0.0159,
                "tempo": 0
            },
            {
                "pitch": 38,
                "velocity": 1,
                "duration": 0.0841,
                "tempo": 120.0
            },
            {
                "pitch": 0,
                "velocity": 0,
                "duration": 0.1159,
                "tempo": 0
            },
            {
                "pitch": 38,
                "velocity": 1,
                "duration": 0.0841,
                "tempo": 120.0
            },
            {
                "pitch": 0,
                "velocity": 0,
                "duration": 0.0159,
                "tempo": 0
            },
            {
                "pitch": 38,
                "velocity": 1,
                "duration": 0.0841,
                "tempo": 120.0
            },
            {
                "pitch": 0,
                "velocity": 0,
                "duration": 0.0159,
                "tempo": 0
            },
            {
                "pitch": 38,
                "velocity": 1,
                "duration": 0.0841,
                "tempo": 120.0
            },
            {
                "pitch": 0,
                "velocity": 0,
                "duration": 0.1182,
                "tempo": 0
            },
            {
                "pitch": 38,
                "velocity": 1,
                "duration": 0.0841,
                "tempo": 120.0
            },
            {
                "pitch": 0,
                "velocity": 0,
                "duration": 0.0159,
                "tempo": 0
            },
            {
                "pitch": 38,
                "velocity": 1,
                "duration": 0.0841,
                "tempo": 120.0
            },
            {
                "pitch": 0,
                "velocity": 0,
                "duration": 0.0182,
                "tempo": 0
            },
            {
                "pitch": 38,
                "velocity": 1,
                "duration": 0.0818,
                "tempo": 120.0
            },
            {
                "pitch": 0,
                "velocity": 0,
                "duration": 0.1182,
                "tempo": 0
            },
            {
                "pitch": 38,
                "velocity": 1,
                "duration": 0.0818,
                "tempo": 120.0
            },
            {
                "pitch": 0,
                "velocity": 0,
                "duration": 0.0182,
                "tempo": 0
            },
            {
                "pitch": 38,
                "velocity": 1,
                "duration": 0.0818,
                "tempo": 120.0
            },
            {
                "pitch": 0,
                "velocity": 0,
                "duration": 0.0182,
                "tempo": 0
            },
            {
                "pitch": 38,
                "velocity": 1,
                "duration": 0.0818,
                "tempo": 120.0
            },
            {
                "pitch": 0,
                "velocity": 0,
                "duration": 0.0182,
                "tempo": 0
            },
            {
                "pitch": 40,
                "velocity": 1,
                "duration": 0.0818,
                "tempo": 120.0
            },
            {
                "pitch": 0,
                "velocity": 0,
                "duration": 0.0182,
                "tempo": 0
            },
            {
                "pitch": 43,
                "velocity": 1,
                "duration": 0.0818,
                "tempo": 120.0
            },
            {
                "pitch": 0,
                "velocity": 0,
                "duration": 0.0182,
                "tempo": 0
            },
            {
                "pitch": 45,
                "velocity": 1,
                "duration": 0.0818,
                "tempo": 120.0
            },
            {
                "pitch": 0,
                "velocity": 0,
                "duration": 0.0182,
                "tempo": 0
            },
            {
                "pitch": 33,
                "velocity": 1,
                "duration": 0.0818,
                "tempo": 120.0
            },
            {
                "pitch": 0,
                "velocity": 0,
                "duration": 0.1182,
                "tempo": 0
            },
            {
                "pitch": 33,
                "velocity": 1,
                "duration": 0.0818,
                "tempo": 120.0
            },
            {
                "pitch": 0,
                "velocity": 0,
                "duration": 0.0182,
                "tempo": 0
            },
            {
                "pitch": 33,
                "velocity": 1,
                "duration": 0.0818,
                "tempo": 120.0
            },
            {
                "pitch": 0,
                "velocity": 0,
                "duration": 0.0182,
                "tempo": 0
            },
            {
                "pitch": 33,
                "velocity": 1,
                "duration": 0.0818,
                "tempo": 120.0
            },
            {
                "pitch": 0,
                "velocity": 0,
                "duration": 0.1182,
                "tempo": 0
            },
            {
                "pitch": 33,
                "velocity": 1,
                "duration": 0.0818,
                "tempo": 120.0
            },
            {
                "pitch": 0,
                "velocity": 0,
                "duration": 0.0182,
                "tempo": 0
            },
            {
                "pitch": 33,
                "velocity": 1,
                "duration": 0.0818,
                "tempo": 120.0
            },
            {
                "pitch": 0,
                "velocity": 0,
                "duration": 0.0182,
                "tempo": 0
            },
            {
                "pitch": 33,
                "velocity": 1,
                "duration": 0.0818,
                "tempo": 120.0
            },
            {
                "pitch": 0,
                "velocity": 0,
                "duration": 0.1182,
                "tempo": 0
            },
            {
                "pitch": 33,
                "velocity": 1,
                "duration": 0.0841,
                "tempo": 120.0
            },
            {
                "pitch": 0,
                "velocity": 0,
                "duration": 0.0159,
                "tempo": 0
            },
            {
                "pitch": 33,
                "velocity": 1,
                "duration": 0.0841,
                "tempo": 120.0
            },
            {
                "pitch": 0,
                "velocity": 0,
                "duration": 0.0182,
                "tempo": 0
            },
            {
                "pitch": 33,
                "velocity": 1,
                "duration": 0.0818,
                "tempo": 120.0
            },
            {
                "pitch": 0,
                "velocity": 0,
                "duration": 0.0182,
                "tempo": 0
            },
            {
                "pitch": 35,
                "velocity": 1,
                "duration": 0.0818,
                "tempo": 120.0
            },
            {
                "pitch": 0,
                "velocity": 0,
                "duration": 0.0182,
                "tempo": 0
            },
            {
                "pitch": 38,
                "velocity": 1,
                "duration": 0.0818,
                "tempo": 120.0
            },
            {
                "pitch": 0,
                "velocity": 0,
                "duration": 0.0182,
                "tempo": 0
            },
            {
                "pitch": 40,
                "velocity": 1,
                "duration": 0.0818,
                "tempo": 120.0
            },
            {
                "pitch": 0,
                "velocity": 0,
                "duration": 0.0182,
                "tempo": 0
            },
            {
                "pitch": 40,
                "velocity": 1,
                "duration": 0.0818,
                "tempo": 120.0
            },
            {
                "pitch": 0,
                "velocity": 0,
                "duration": 0.1182,
                "tempo": 0
            },
            {
                "pitch": 40,
                "velocity": 1,
                "duration": 0.0818,
                "tempo": 120.0
            },
            {
                "pitch": 0,
                "velocity": 0,
                "duration": 0.0182,
                "tempo": 0
            },
            {
                "pitch": 40,
                "velocity": 1,
                "duration": 0.0818,
                "tempo": 120.0
            },
            {
                "pitch": 0,
                "velocity": 0,
                "duration": 0.0182,
                "tempo": 0
            },
            {
                "pitch": 40,
                "velocity": 1,
                "duration": 0.0818,
                "tempo": 120.0
            },
            {
                "pitch": 0,
                "velocity": 0,
                "duration": 0.1182,
                "tempo": 0
            },
            {
                "pitch": 40,
                "velocity": 1,
                "duration": 0.0818,
                "tempo": 120.0
            },
            {
                "pitch": 0,
                "velocity": 0,
                "duration": 0.0182,
                "tempo": 0
            },
            {
                "pitch": 40,
                "velocity": 1,
                "duration": 0.0818,
                "tempo": 120.0
            },
            {
                "pitch": 0,
                "velocity": 0,
                "duration": 0.0182,
                "tempo": 0
            },
            {
                "pitch": 40,
                "velocity": 1,
                "duration": 0.0818,
                "tempo": 120.0
            },
            {
                "pitch": 0,
                "velocity": 0,
                "duration": 0.1182,
                "tempo": 0
            },
            {
                "pitch": 40,
                "velocity": 1,
                "duration": 0.0818,
                "tempo": 120.0
            },
            {
                "pitch": 0,
                "velocity": 0,
                "duration": 0.0182,
                "tempo": 0
            },
            {
                "pitch": 40,
                "velocity": 1,
                "duration": 0.0818,
                "tempo": 120.0
            },
            {
                "pitch": 0,
                "velocity": 0,
                "duration": 0.0182,
                "tempo": 0
            },
            {
                "pitch": 40,
                "velocity": 1,
                "duration": 0.0841,
                "tempo": 120.0
            },
            {
                "pitch": 0,
                "velocity": 0,
                "duration": 0.0159,
                "tempo": 0
            },
            {
                "pitch": 41,
                "velocity": 1,
                "duration": 0.0841,
                "tempo": 120.0
            },
            {
                "pitch": 0,
                "velocity": 0,
                "duration": 0.0159,
                "tempo": 0
            },
            {
                "pitch": 43,
                "velocity": 1,
                "duration": 0.0841,
                "tempo": 120.0
            },
            {
                "pitch": 0,
                "velocity": 0,
                "duration": 0.0182,
                "tempo": 0
            },
            {
                "pitch": 45,
                "velocity": 1,
                "duration": 0.0841,
                "tempo": 120.0
            },
            {
                "pitch": 0,
                "velocity": 0,
                "duration": 0.0159,
                "tempo": 0
            },
            {
                "pitch": 38,
                "velocity": 1,
                "duration": 0.0841,
                "tempo": 120.0
            },
            {
                "pitch": 0,
                "velocity": 0,
                "duration": 0.1159,
                "tempo": 0
            },
            {
                "pitch": 38,
                "velocity": 1,
                "duration": 0.0841,
                "tempo": 120.0
            },
            {
                "pitch": 0,
                "velocity": 0,
                "duration": 0.0159,
                "tempo": 0
            },
            {
                "pitch": 38,
                "velocity": 1,
                "duration": 0.0841,
                "tempo": 120.0
            },
            {
                "pitch": 0,
                "velocity": 0,
                "duration": 0.0159,
                "tempo": 0
            },
            {
                "pitch": 38,
                "velocity": 1,
                "duration": 0.0841,
                "tempo": 120.0
            },
            {
                "pitch": 0,
                "velocity": 0,
                "duration": 0.1159,
                "tempo": 0
            },
            {
                "pitch": 38,
                "velocity": 1,
                "duration": 0.0841,
                "tempo": 120.0
            },
            {
                "pitch": 0,
                "velocity": 0,
                "duration": 0.0159,
                "tempo": 0
            },
            {
                "pitch": 38,
                "velocity": 1,
                "duration": 0.0841,
                "tempo": 120.0
            },
            {
                "pitch": 0,
                "velocity": 0,
                "duration": 0.0159,
                "tempo": 0
            },
            {
                "pitch": 38,
                "velocity": 1,
                "duration": 0.0841,
                "tempo": 120.0
            },
            {
                "pitch": 0,
                "velocity": 0,
                "duration": 0.1159,
                "tempo": 0
            },
            {
                "pitch": 38,
                "velocity": 1,
                "duration": 0.0841,
                "tempo": 120.0
            },
            {
                "pitch": 0,
                "velocity": 0,
                "duration": 0.0159,
                "tempo": 0
            },
            {
                "pitch": 38,
                "velocity": 1,
                "duration": 0.0841,
                "tempo": 120.0
            },
            {
                "pitch": 0,
                "velocity": 0,
                "duration": 0.0159,
                "tempo": 0
            },
            {
                "pitch": 38,
                "velocity": 1,
                "duration": 0.0841,
                "tempo": 120.0
            },
            {
                "pitch": 0,
                "velocity": 0,
                "duration": 0.0159,
                "tempo": 0
            },
            {
                "pitch": 40,
                "velocity": 1,
                "duration": 0.0841,
                "tempo": 120.0
            },
            {
                "pitch": 0,
                "velocity": 0,
                "duration": 0.0159,
                "tempo": 0
            },
            {
                "pitch": 41,
                "velocity": 1,
                "duration": 0.0841,
                "tempo": 120.0
            },
            {
                "pitch": 0,
                "velocity": 0,
                "duration": 0.0159,
                "tempo": 0
            },
            {
                "pitch": 43,
                "velocity": 1,
                "duration": 0.0841,
                "tempo": 120.0
            },
            {
                "pitch": 0,
                "velocity": 0,
                "duration": 0.0159,
                "tempo": 0
            },
            {
                "pitch": 36,
                "velocity": 1,
                "duration": 0.0841,
                "tempo": 120.0
            },
            {
                "pitch": 0,
                "velocity": 0,
                "duration": 0.1159,
                "tempo": 0
            },
            {
                "pitch": 36,
                "velocity": 1,
                "duration": 0.0841,
                "tempo": 120.0
            },
            {
                "pitch": 0,
                "velocity": 0,
                "duration": 0.0182,
                "tempo": 0
            },
            {
                "pitch": 36,
                "velocity": 1,
                "duration": 0.0841,
                "tempo": 120.0
            },
            {
                "pitch": 0,
                "velocity": 0,
                "duration": 0.0159,
                "tempo": 0
            },
            {
                "pitch": 36,
                "velocity": 1,
                "duration": 0.0841,
                "tempo": 120.0
            },
            {
                "pitch": 0,
                "velocity": 0,
                "duration": 0.1159,
                "tempo": 0
            },
            {
                "pitch": 36,
                "velocity": 1,
                "duration": 0.0841,
                "tempo": 120.0
            },
            {
                "pitch": 0,
                "velocity": 0,
                "duration": 0.0159,
                "tempo": 0
            },
            {
                "pitch": 36,
                "velocity": 1,
                "duration": 0.0841,
                "tempo": 120.0
            },
            {
                "pitch": 0,
                "velocity": 0,
                "duration": 0.0159,
                "tempo": 0
            },
            {
                "pitch": 36,
                "velocity": 1,
                "duration": 0.0841,
                "tempo": 120.0
            },
            {
                "pitch": 0,
                "velocity": 0,
                "duration": 0.1159,
                "tempo": 0
            },
            {
                "pitch": 36,
                "velocity": 1,
                "duration": 0.0841,
                "tempo": 120.0
            },
            {
                "pitch": 0,
                "velocity": 0,
                "duration": 0.0159,
                "tempo": 0
            },
            {
                "pitch": 36,
                "velocity": 1,
                "duration": 0.0841,
                "tempo": 120.0
            },
            {
                "pitch": 0,
                "velocity": 0,
                "duration": 0.0159,
                "tempo": 0
            },
            {
                "pitch": 36,
                "velocity": 1,
                "duration": 0.0841,
                "tempo": 120.0
            },
            {
                "pitch": 0,
                "velocity": 0,
                "duration": 0.0159,
                "tempo": 0
            },
            {
                "pitch": 38,
                "velocity": 1,
                "duration": 0.0841,
                "tempo": 120.0
            },
            {
                "pitch": 0,
                "velocity": 0,
                "duration": 0.0159,
                "tempo": 0
            },
            {
                "pitch": 36,
                "velocity": 1,
                "duration": 0.0841,
                "tempo": 120.0
            },
            {
                "pitch": 0,
                "velocity": 0,
                "duration": 0.0159,
                "tempo": 0
            },
            {
                "pitch": 35,
                "velocity": 1,
                "duration": 0.0841,
                "tempo": 120.0
            },
            {
                "pitch": 0,
                "velocity": 0,
                "duration": 0.0159,
                "tempo": 0
            },
            {
                "pitch": 33,
                "velocity": 1,
                "duration": 0.0841,
                "tempo": 120.0
            },
            {
                "pitch": 0,
                "velocity": 0,
                "duration": 0.1159,
                "tempo": 0
            },
            {
                "pitch": 33,
                "velocity": 1,
                "duration": 0.0841,
                "tempo": 120.0
            },
            {
                "pitch": 0,
                "velocity": 0,
                "duration": 0.0159,
                "tempo": 0
            },
            {
                "pitch": 33,
                "velocity": 1,
                "duration": 0.0841,
                "tempo": 120.0
            },
            {
                "pitch": 0,
                "velocity": 0,
                "duration": 0.0159,
                "tempo": 0
            },
            {
                "pitch": 33,
                "velocity": 1,
                "duration": 0.0841,
                "tempo": 120.0
            },
            {
                "pitch": 0,
                "velocity": 0,
                "duration": 0.1182,
                "tempo": 0
            },
            {
                "pitch": 33,
                "velocity": 1,
                "duration": 0.0841,
                "tempo": 120.0
            },
            {
                "pitch": 0,
                "velocity": 0,
                "duration": 0.0159,
                "tempo": 0
            },
            {
                "pitch": 33,
                "velocity": 1,
                "duration": 0.0841,
                "tempo": 120.0
            },
            {
                "pitch": 0,
                "velocity": 0,
                "duration": 0.0159,
                "tempo": 0
            },
            {
                "pitch": 33,
                "velocity": 1,
                "duration": 0.0841,
                "tempo": 120.0
            },
            {
                "pitch": 0,
                "velocity": 0,
                "duration": 0.1159,
                "tempo": 0
            },
            {
                "pitch": 33,
                "velocity": 1,
                "duration": 0.0841,
                "tempo": 120.0
            },
            {
                "pitch": 0,
                "velocity": 0,
                "duration": 0.0159,
                "tempo": 0
            },
            {
                "pitch": 33,
                "velocity": 1,
                "duration": 0.0841,
                "tempo": 120.0
            },
            {
                "pitch": 0,
                "velocity": 0,
                "duration": 0.0159,
                "tempo": 0
            },
            {
                "pitch": 33,
                "velocity": 1,
                "duration": 0.0841,
                "tempo": 120.0
            },
            {
                "pitch": 0,
                "velocity": 0,
                "duration": 0.0159,
                "tempo": 0
            },
            {
                "pitch": 35,
                "velocity": 1,
                "duration": 0.0841,
                "tempo": 120.0
            },
            {
                "pitch": 0,
                "velocity": 0,
                "duration": 0.0159,
                "tempo": 0
            },
            {
                "pitch": 36,
                "velocity": 1,
                "duration": 0.0841,
                "tempo": 120.0
            },
            {
                "pitch": 0,
                "velocity": 0,
                "duration": 0.0159,
                "tempo": 0
            },
            {
                "pitch": 38,
                "velocity": 1,
                "duration": 0.0841,
                "tempo": 120.0
            },
            {
                "pitch": 0,
                "velocity": 0,
                "duration": 0.0159,
                "tempo": 0
            },
            {
                "pitch": 33,
                "velocity": 1,
                "duration": 0.0841,
                "tempo": 120.0
            },
            {
                "pitch": 0,
                "velocity": 0,
                "duration": 0.1159,
                "tempo": 0
            },
            {
                "pitch": 33,
                "velocity": 1,
                "duration": 0.0841,
                "tempo": 120.0
            },
            {
                "pitch": 0,
                "velocity": 0,
                "duration": 0.0159,
                "tempo": 0
            },
            {
                "pitch": 33,
                "velocity": 1,
                "duration": 0.0841,
                "tempo": 120.0
            },
            {
                "pitch": 0,
                "velocity": 0,
                "duration": 0.0159,
                "tempo": 0
            },
            {
                "pitch": 33,
                "velocity": 1,
                "duration": 0.0841,
                "tempo": 120.0
            },
            {
                "pitch": 0,
                "velocity": 0,
                "duration": 0.1159,
                "tempo": 0
            },
            {
                "pitch": 33,
                "velocity": 1,
                "duration": 0.0841,
                "tempo": 120.0
            },
            {
                "pitch": 0,
                "velocity": 0,
                "duration": 0.0159,
                "tempo": 0
            },
            {
                "pitch": 33,
                "velocity": 1,
                "duration": 0.0841,
                "tempo": 120.0
            },
            {
                "pitch": 0,
                "velocity": 0,
                "duration": 0.0159,
                "tempo": 0
            },
            {
                "pitch": 33,
                "velocity": 1,
                "duration": 0.0841,
                "tempo": 120.0
            },
            {
                "pitch": 0,
                "velocity": 0,
                "duration": 0.1182,
                "tempo": 0
            },
            {
                "pitch": 33,
                "velocity": 1,
                "duration": 0.0841,
                "tempo": 120.0
            },
            {
                "pitch": 0,
                "velocity": 0,
                "duration": 0.0159,
                "tempo": 0
            },
            {
                "pitch": 33,
                "velocity": 1,
                "duration": 0.0841,
                "tempo": 120.0
            },
            {
                "pitch": 0,
                "velocity": 0,
                "duration": 0.0159,
                "tempo": 0
            },
            {
                "pitch": 33,
                "velocity": 1,
                "duration": 0.0841,
                "tempo": 120.0
            },
            {
                "pitch": 0,
                "velocity": 0,
                "duration": 0.0159,
                "tempo": 0
            },
            {
                "pitch": 35,
                "velocity": 1,
                "duration": 0.0841,
                "tempo": 120.0
            },
            {
                "pitch": 0,
                "velocity": 0,
                "duration": 0.0159,
                "tempo": 0
            },
            {
                "pitch": 36,
                "velocity": 1,
                "duration": 0.0841,
                "tempo": 120.0
            },
            {
                "pitch": 0,
                "velocity": 0,
                "duration": 0.0159,
                "tempo": 0
            },
            {
                "pitch": 38,
                "velocity": 1,
                "duration": 0.0841,
                "tempo": 120.0
            },
            {
                "pitch": 0,
                "velocity": 0,
                "duration": 6.4227,
                "tempo": 0
            },
            {
                "pitch": 40,
                "velocity": 1,
                "duration": 1.3977,
                "tempo": 120.0
            },
            {
                "pitch": 0,
                "velocity": 0,
                "duration": 0.0159,
                "tempo": 0
            },
            {
                "pitch": 41,
                "velocity": 1,
                "duration": 0.1841,
                "tempo": 120.0
            },
            {
                "pitch": 0,
                "velocity": 0,
                "duration": 0.0159,
                "tempo": 0
            },
            {
                "pitch": 38,
                "velocity": 1,
                "duration": 1.5864,
                "tempo": 120.0
            },
            {
                "pitch": 0,
                "velocity": 0,
                "duration": 0.0159,
                "tempo": 0
            },
            {
                "pitch": 43,
                "velocity": 1,
                "duration": 1.3841,
                "tempo": 120.0
            },
            {
                "pitch": 0,
                "velocity": 0,
                "duration": 0.0159,
                "tempo": 0
            },
            {
                "pitch": 40,
                "velocity": 1,
                "duration": 0.1841,
                "tempo": 120.0
            },
            {
                "pitch": 0,
                "velocity": 0,
                "duration": 0.0159,
                "tempo": 0
            },
            {
                "pitch": 45,
                "velocity": 1,
                "duration": 1.5886,
                "tempo": 120.0
            },
            {
                "pitch": 0,
                "velocity": 0,
                "duration": 0.0182,
                "tempo": 0
            },
            {
                "pitch": 40,
                "velocity": 1,
                "duration": 1.3864,
                "tempo": 120.0
            },
            {
                "pitch": 0,
                "velocity": 0,
                "duration": 0.0182,
                "tempo": 0
            },
            {
                "pitch": 41,
                "velocity": 1,
                "duration": 0.1841,
                "tempo": 120.0
            },
            {
                "pitch": 0,
                "velocity": 0,
                "duration": 0.0159,
                "tempo": 0
            },
            {
                "pitch": 38,
                "velocity": 1,
                "duration": 1.5886,
                "tempo": 120.0
            },
            {
                "pitch": 0,
                "velocity": 0,
                "duration": 0.0182,
                "tempo": 0
            },
            {
                "pitch": 43,
                "velocity": 1,
                "duration": 1.3886,
                "tempo": 120.0
            },
            {
                "pitch": 0,
                "velocity": 0,
                "duration": 0.0159,
                "tempo": 0
            },
            {
                "pitch": 40,
                "velocity": 1,
                "duration": 0.1864,
                "tempo": 120.0
            },
            {
                "pitch": 0,
                "velocity": 0,
                "duration": 0.0159,
                "tempo": 0
            },
            {
                "pitch": 45,
                "velocity": 1,
                "duration": 1.5886,
                "tempo": 120.0
            },
            {
                "pitch": 0,
                "velocity": 0,
                "duration": 0.0159,
                "tempo": 0
            },
            {
                "pitch": 40,
                "velocity": 1,
                "duration": 1.3909,
                "tempo": 120.0
            },
            {
                "pitch": 0,
                "velocity": 0,
                "duration": 0.0159,
                "tempo": 0
            },
            {
                "pitch": 41,
                "velocity": 1,
                "duration": 0.1864,
                "tempo": 120.0
            },
            {
                "pitch": 0,
                "velocity": 0,
                "duration": 0.0159,
                "tempo": 0
            },
            {
                "pitch": 38,
                "velocity": 1,
                "duration": 1.5886,
                "tempo": 120.0
            },
            {
                "pitch": 0,
                "velocity": 0,
                "duration": 0.0159,
                "tempo": 0
            },
            {
                "pitch": 43,
                "velocity": 1,
                "duration": 1.3886,
                "tempo": 120.0
            },
            {
                "pitch": 0,
                "velocity": 0,
                "duration": 0.0182,
                "tempo": 0
            },
            {
                "pitch": 40,
                "velocity": 1,
                "duration": 0.1818,
                "tempo": 120.0
            },
            {
                "pitch": 0,
                "velocity": 0,
                "duration": 0.0182,
                "tempo": 0
            },
            {
                "pitch": 45,
                "velocity": 1,
                "duration": 1.6159,
                "tempo": 120.0
            }
        ],
        "Acoustic Grand Piano": [
            {
                "pitch": 0,
                "velocity": 0,
                "duration": 77.825,
                "tempo": 0
            },
            {
                "pitch": 108,
                "velocity": 15,
                "duration": 0.1,
                "tempo": 120.0
            }
        ]
    }
}