{
    "track_id": "Rastan (FM) - 05 - The Devil Boss Carnival_5",
    "mood": "angry",
    "instruments": {
        "Lead 1 (square)": [
            {
                "pitch": 107,
                "velocity": 3,
                "duration": 0.1841,
                "tempo": 120.0
            },
            {
                "pitch": 107,
                "velocity": 3,
                "duration": 0.1841,
                "tempo": 120.0
            },
            {
                "pitch": 107,
                "velocity": 3,
                "duration": 0.1818,
                "tempo": 120.0
            },
            {
                "pitch": 108,
                "velocity": 3,
                "duration": 0.1864,
                "tempo": 120.0
            },
            {
                "pitch": 108,
                "velocity": 3,
                "duration": 0.3727,
                "tempo": 120.0
            }
        ],
        "Lead 2 (sawtooth)": [
            {
                "pitch": 0,
                "velocity": 0,
                "duration": 46.4023,
                "tempo": 0
            },
            {
                "pitch": 64,
                "velocity": 12,
                "duration": 0.4023,
                "tempo": 120.0
            },
            {
                "pitch": 76,
                "velocity": 7,
                "duration": 0.2705,
                "tempo": 120.0
            }
        ],
        "Synth Bass 1": [
            {
                "pitch": 98,
                "velocity": 1,
                "duration": 0.1841,
                "tempo": 120.0
            },
            {
                "pitch": 98,
                "velocity": 1,
                "duration": 0.1841,
                "tempo": 120.0
            },
            {
                "pitch": 98,
                "velocity": 1,
                "duration": 0.1818,
                "tempo": 120.0
            },
            {
                "pitch": 99,
                "velocity": 1,
                "duration": 0.1864,
                "tempo": 120.0
            },
            {
                "pitch": 99,
                "velocity": 1,
                "duration": 0.3705,
                "tempo": 120.0
            },
            {
                "pitch": 96,
                "velocity": 1,
                "duration": 0.3727,
                "tempo": 120.0
            },
            {
                "pitch": 96,
                "velocity": 1,
                "duration": 0.3705,
                "tempo": 120.0
            },
            {
                "pitch": 96,
                "velocity": 1,
                "duration": 0.3727,
                "tempo": 120.0
            },
            {
                "pitch": 96,
                "velocity": 1,
                "duration": 0.3727,
                "tempo": 120.0
            },
            {
                "pitch": 96,
                "velocity": 1,
                "duration": 0.2705,
                "tempo": 120.0
            }
        ],
        "Acoustic Grand Piano": [
            {
                "pitch": 0,
                "velocity": 0,
                "duration": 47.075,
                "tempo": 0
            },
            {
                "pitch": 108,
                "velocity": 15,
                "duration": 0.1,
                "tempo": 120.0
            }
        ]
    }
}