{
    "mood": "sad",
    "instruments": {
        "Lead 2 (sawtooth)": [
            {
                "start_time": 0.1,
                "end_time": 0.5840909,
                "pitch": 33,
                "velocity": 127,
                "duration": 0.4840909,
                "tempo": 120.0
            },
            {
                "start_time": 0.5840909,
                "end_time": 0.7431818,
                "pitch": 33,
                "velocity": 127,
                "duration": 0.1590909,
                "tempo": 120.0
            },
            {
                "start_time": 2.3454545,
                "end_time": 2.5068182,
                "pitch": 31,
                "velocity": 127,
                "duration": 0.1613636,
                "tempo": 120.0
            },
            {
                "start_time": 2.5068182,
                "end_time": 2.6659091,
                "pitch": 31,
                "velocity": 127,
                "duration": 0.1590909,
                "tempo": 120.0
            },
            {
                "start_time": 2.6659091,
                "end_time": 3.15,
                "pitch": 33,
                "velocity": 127,
                "duration": 0.4840909,
                "tempo": 120.0
            },
            {
                "start_time": 2.6659091,
                "end_time": 3.15,
                "pitch": 33,
                "velocity": 127,
                "duration": 0.4840909,
                "tempo": 120.0
            },
            {
                "start_time": 3.15,
                "end_time": 3.3090909,
                "pitch": 33,
                "velocity": 127,
                "duration": 0.1590909,
                "tempo": 120.0
            },
            {
                "start_time": 4.9045455,
                "end_time": 5.0659091,
                "pitch": 31,
                "velocity": 127,
                "duration": 0.1613636,
                "tempo": 120.0
            },
            {
                "start_time": 5.0659091,
                "end_time": 5.225,
                "pitch": 31,
                "velocity": 127,
                "duration": 0.1590909,
                "tempo": 120.0
            },
            {
                "start_time": 5.225,
                "end_time": 5.7090909,
                "pitch": 33,
                "velocity": 127,
                "duration": 0.4840909,
                "tempo": 120.0
            },
            {
                "start_time": 5.225,
                "end_time": 5.7090909,
                "pitch": 33,
                "velocity": 127,
                "duration": 0.4840909,
                "tempo": 120.0
            },
            {
                "start_time": 5.7090909,
                "end_time": 5.8704545,
                "pitch": 33,
                "velocity": 127,
                "duration": 0.1613636,
                "tempo": 120.0
            },
            {
                "start_time": 7.4704545,
                "end_time": 7.6272727,
                "pitch": 31,
                "velocity": 127,
                "duration": 0.1568182,
                "tempo": 120.0
            },
            {
                "start_time": 7.6272727,
                "end_time": 7.7840909,
                "pitch": 31,
                "velocity": 127,
                "duration": 0.1568182,
                "tempo": 120.0
            },
            {
                "start_time": 7.7840909,
                "end_time": 8.2681818,
                "pitch": 33,
                "velocity": 127,
                "duration": 0.4840909,
                "tempo": 120.0
            },
            {
                "start_time": 8.2681818,
                "end_time": 8.4295455,
                "pitch": 33,
                "velocity": 127,
                "duration": 0.1613636,
                "tempo": 120.0
            },
            {
                "start_time": 10.0295455,
                "end_time": 10.1863636,
                "pitch": 31,
                "velocity": 127,
                "duration": 0.1568182,
                "tempo": 120.0
            },
            {
                "start_time": 10.1863636,
                "end_time": 10.3454545,
                "pitch": 31,
                "velocity": 127,
                "duration": 0.1590909,
                "tempo": 120.0
            },
            {
                "start_time": 10.3454545,
                "end_time": 10.8272727,
                "pitch": 36,
                "velocity": 127,
                "duration": 0.4818182,
                "tempo": 120.0
            },
            {
                "start_time": 10.8272727,
                "end_time": 10.9886364,
                "pitch": 36,
                "velocity": 127,
                "duration": 0.1613636,
                "tempo": 120.0
            },
            {
                "start_time": 12.5954545,
                "end_time": 12.7568182,
                "pitch": 36,
                "velocity": 127,
                "duration": 0.1613636,
                "tempo": 120.0
            },
            {
                "start_time": 12.7568182,
                "end_time": 12.9181818,
                "pitch": 36,
                "velocity": 127,
                "duration": 0.1613636,
                "tempo": 120.0
            },
            {
                "start_time": 12.9181818,
                "end_time": 13.4,
                "pitch": 35,
                "velocity": 127,
                "duration": 0.4818182,
                "tempo": 120.0
            },
            {
                "start_time": 13.4,
                "end_time": 13.5613636,
                "pitch": 35,
                "velocity": 127,
                "duration": 0.1613636,
                "tempo": 120.0
            },
            {
                "start_time": 15.1545455,
                "end_time": 15.3159091,
                "pitch": 31,
                "velocity": 127,
                "duration": 0.1613636,
                "tempo": 120.0
            },
            {
                "start_time": 15.3159091,
                "end_time": 15.4772727,
                "pitch": 31,
                "velocity": 127,
                "duration": 0.1613636,
                "tempo": 120.0
            },
            {
                "start_time": 15.4772727,
                "end_time": 15.9590909,
                "pitch": 33,
                "velocity": 127,
                "duration": 0.4818182,
                "tempo": 120.0
            },
            {
                "start_time": 15.4772727,
                "end_time": 15.9590909,
                "pitch": 33,
                "velocity": 127,
                "duration": 0.4818182,
                "tempo": 120.0
            },
            {
                "start_time": 15.9590909,
                "end_time": 16.1204545,
                "pitch": 33,
                "velocity": 127,
                "duration": 0.1613636,
                "tempo": 120.0
            },
            {
                "start_time": 17.7136364,
                "end_time": 17.875,
                "pitch": 31,
                "velocity": 127,
                "duration": 0.1613636,
                "tempo": 120.0
            },
            {
                "start_time": 17.875,
                "end_time": 18.0363636,
                "pitch": 31,
                "velocity": 127,
                "duration": 0.1613636,
                "tempo": 120.0
            },
            {
                "start_time": 18.0363636,
                "end_time": 18.3568182,
                "pitch": 33,
                "velocity": 127,
                "duration": 0.3204545,
                "tempo": 120.0
            },
            {
                "start_time": 18.0363636,
                "end_time": 18.3568182,
                "pitch": 33,
                "velocity": 127,
                "duration": 0.3204545,
                "tempo": 120.0
            },
            {
                "start_time": 18.3568182,
                "end_time": 18.5181818,
                "pitch": 21,
                "velocity": 127,
                "duration": 0.1613636,
                "tempo": 120.0
            },
            {
                "start_time": 18.5181818,
                "end_time": 18.6795455,
                "pitch": 33,
                "velocity": 127,
                "duration": 0.1613636,
                "tempo": 120.0
            },
            {
                "start_time": 19.0,
                "end_time": 19.1613636,
                "pitch": 21,
                "velocity": 127,
                "duration": 0.1613636,
                "tempo": 120.0
            },
            {
                "start_time": 20.2795455,
                "end_time": 20.4386364,
                "pitch": 31,
                "velocity": 127,
                "duration": 0.1590909,
                "tempo": 120.0
            },
            {
                "start_time": 20.4386364,
                "end_time": 20.5954545,
                "pitch": 31,
                "velocity": 127,
                "duration": 0.1568182,
                "tempo": 120.0
            },
            {
                "start_time": 20.5954545,
                "end_time": 21.0772727,
                "pitch": 33,
                "velocity": 127,
                "duration": 0.4818182,
                "tempo": 120.0
            },
            {
                "start_time": 20.5954545,
                "end_time": 21.0772727,
                "pitch": 33,
                "velocity": 127,
                "duration": 0.4818182,
                "tempo": 120.0
            },
            {
                "start_time": 21.0772727,
                "end_time": 21.2386364,
                "pitch": 33,
                "velocity": 127,
                "duration": 0.1613636,
                "tempo": 120.0
            },
            {
                "start_time": 22.8386364,
                "end_time": 22.9977273,
                "pitch": 31,
                "velocity": 127,
                "duration": 0.1590909,
                "tempo": 120.0
            },
            {
                "start_time": 22.9977273,
                "end_time": 23.1545455,
                "pitch": 31,
                "velocity": 127,
                "duration": 0.1568182,
                "tempo": 120.0
            },
            {
                "start_time": 23.1545455,
                "end_time": 23.6363636,
                "pitch": 33,
                "velocity": 127,
                "duration": 0.4818182,
                "tempo": 120.0
            },
            {
                "start_time": 23.1545455,
                "end_time": 23.6363636,
                "pitch": 33,
                "velocity": 127,
                "duration": 0.4818182,
                "tempo": 120.0
            },
            {
                "start_time": 23.6363636,
                "end_time": 23.7977273,
                "pitch": 33,
                "velocity": 127,
                "duration": 0.1613636,
                "tempo": 120.0
            },
            {
                "start_time": 25.4045455,
                "end_time": 25.5659091,
                "pitch": 31,
                "velocity": 127,
                "duration": 0.1613636,
                "tempo": 120.0
            },
            {
                "start_time": 25.5659091,
                "end_time": 25.7272727,
                "pitch": 31,
                "velocity": 127,
                "duration": 0.1613636,
                "tempo": 120.0
            },
            {
                "start_time": 25.7272727,
                "end_time": 26.2090909,
                "pitch": 33,
                "velocity": 127,
                "duration": 0.4818182,
                "tempo": 120.0
            },
            {
                "start_time": 26.2090909,
                "end_time": 26.3704545,
                "pitch": 33,
                "velocity": 127,
                "duration": 0.1613636,
                "tempo": 120.0
            },
            {
                "start_time": 27.9659091,
                "end_time": 28.125,
                "pitch": 31,
                "velocity": 127,
                "duration": 0.1590909,
                "tempo": 120.0
            },
            {
                "start_time": 28.125,
                "end_time": 28.2863636,
                "pitch": 31,
                "velocity": 127,
                "duration": 0.1613636,
                "tempo": 120.0
            },
            {
                "start_time": 28.2863636,
                "end_time": 28.7681818,
                "pitch": 33,
                "velocity": 127,
                "duration": 0.4818182,
                "tempo": 120.0
            },
            {
                "start_time": 28.2863636,
                "end_time": 28.7681818,
                "pitch": 33,
                "velocity": 127,
                "duration": 0.4818182,
                "tempo": 120.0
            },
            {
                "start_time": 28.7681818,
                "end_time": 28.9295455,
                "pitch": 33,
                "velocity": 127,
                "duration": 0.1613636,
                "tempo": 120.0
            },
            {
                "start_time": 30.525,
                "end_time": 30.6840909,
                "pitch": 31,
                "velocity": 127,
                "duration": 0.1590909,
                "tempo": 120.0
            },
            {
                "start_time": 30.6840909,
                "end_time": 30.8454545,
                "pitch": 31,
                "velocity": 127,
                "duration": 0.1613636,
                "tempo": 120.0
            },
            {
                "start_time": 10.3454545,
                "end_time": 30.8454545,
                "pitch": 40,
                "velocity": 127,
                "duration": 20.5,
                "tempo": 120.0
            },
            {
                "start_time": 30.8454545,
                "end_time": 31.3272727,
                "pitch": 36,
                "velocity": 127,
                "duration": 0.4818182,
                "tempo": 120.0
            },
            {
                "start_time": 31.3272727,
                "end_time": 31.4886364,
                "pitch": 36,
                "velocity": 127,
                "duration": 0.1613636,
                "tempo": 120.0
            },
            {
                "start_time": 33.0840909,
                "end_time": 33.2431818,
                "pitch": 36,
                "velocity": 127,
                "duration": 0.1590909,
                "tempo": 120.0
            },
            {
                "start_time": 12.9181818,
                "end_time": 33.4045455,
                "pitch": 20,
                "velocity": 127,
                "duration": 20.4863636,
                "tempo": 120.0
            },
            {
                "start_time": 33.2431818,
                "end_time": 33.4045455,
                "pitch": 36,
                "velocity": 127,
                "duration": 0.1613636,
                "tempo": 120.0
            },
            {
                "start_time": 33.4045455,
                "end_time": 33.8863636,
                "pitch": 35,
                "velocity": 127,
                "duration": 0.4818182,
                "tempo": 120.0
            },
            {
                "start_time": 33.8863636,
                "end_time": 34.0477273,
                "pitch": 35,
                "velocity": 127,
                "duration": 0.1613636,
                "tempo": 120.0
            },
            {
                "start_time": 35.65,
                "end_time": 35.8068182,
                "pitch": 31,
                "velocity": 127,
                "duration": 0.1568182,
                "tempo": 120.0
            },
            {
                "start_time": 35.8068182,
                "end_time": 35.9636364,
                "pitch": 31,
                "velocity": 127,
                "duration": 0.1568182,
                "tempo": 120.0
            },
            {
                "start_time": 35.9636364,
                "end_time": 36.4454545,
                "pitch": 33,
                "velocity": 127,
                "duration": 0.4818182,
                "tempo": 120.0
            },
            {
                "start_time": 35.9636364,
                "end_time": 36.4454545,
                "pitch": 33,
                "velocity": 127,
                "duration": 0.4818182,
                "tempo": 120.0
            },
            {
                "start_time": 36.4454545,
                "end_time": 36.6068182,
                "pitch": 33,
                "velocity": 127,
                "duration": 0.1613636,
                "tempo": 120.0
            },
            {
                "start_time": 38.2159091,
                "end_time": 38.3772727,
                "pitch": 31,
                "velocity": 127,
                "duration": 0.1613636,
                "tempo": 120.0
            },
            {
                "start_time": 38.3772727,
                "end_time": 38.5363636,
                "pitch": 31,
                "velocity": 127,
                "duration": 0.1590909,
                "tempo": 120.0
            },
            {
                "start_time": 38.5363636,
                "end_time": 38.8590909,
                "pitch": 33,
                "velocity": 127,
                "duration": 0.3227273,
                "tempo": 120.0
            },
            {
                "start_time": 38.5363636,
                "end_time": 38.8590909,
                "pitch": 33,
                "velocity": 127,
                "duration": 0.3227273,
                "tempo": 120.0
            },
            {
                "start_time": 38.8590909,
                "end_time": 39.0204545,
                "pitch": 21,
                "velocity": 127,
                "duration": 0.1613636,
                "tempo": 120.0
            },
            {
                "start_time": 39.0204545,
                "end_time": 39.1795455,
                "pitch": 33,
                "velocity": 127,
                "duration": 0.1590909,
                "tempo": 120.0
            },
            {
                "start_time": 39.5022727,
                "end_time": 39.6636364,
                "pitch": 21,
                "velocity": 127,
                "duration": 0.1613636,
                "tempo": 120.0
            },
            {
                "start_time": 40.775,
                "end_time": 40.9363636,
                "pitch": 31,
                "velocity": 127,
                "duration": 0.1613636,
                "tempo": 120.0
            },
            {
                "start_time": 40.9363636,
                "end_time": 41.0954545,
                "pitch": 31,
                "velocity": 127,
                "duration": 0.1590909,
                "tempo": 120.0
            },
            {
                "start_time": 41.0954545,
                "end_time": 41.5795455,
                "pitch": 29,
                "velocity": 127,
                "duration": 0.4840909,
                "tempo": 120.0
            },
            {
                "start_time": 41.5795455,
                "end_time": 41.7386364,
                "pitch": 29,
                "velocity": 127,
                "duration": 0.1590909,
                "tempo": 120.0
            },
            {
                "start_time": 43.3340909,
                "end_time": 43.4954545,
                "pitch": 29,
                "velocity": 127,
                "duration": 0.1613636,
                "tempo": 120.0
            },
            {
                "start_time": 43.4954545,
                "end_time": 43.6545455,
                "pitch": 29,
                "velocity": 127,
                "duration": 0.1590909,
                "tempo": 120.0
            },
            {
                "start_time": 43.6545455,
                "end_time": 44.1386364,
                "pitch": 31,
                "velocity": 127,
                "duration": 0.4840909,
                "tempo": 120.0
            },
            {
                "start_time": 44.1386364,
                "end_time": 44.3,
                "pitch": 31,
                "velocity": 127,
                "duration": 0.1613636,
                "tempo": 120.0
            },
            {
                "start_time": 45.8931818,
                "end_time": 46.0545455,
                "pitch": 31,
                "velocity": 127,
                "duration": 0.1613636,
                "tempo": 120.0
            },
            {
                "start_time": 46.0545455,
                "end_time": 46.2136364,
                "pitch": 31,
                "velocity": 127,
                "duration": 0.1590909,
                "tempo": 120.0
            },
            {
                "start_time": 46.2136364,
                "end_time": 46.6977273,
                "pitch": 33,
                "velocity": 127,
                "duration": 0.4840909,
                "tempo": 120.0
            },
            {
                "start_time": 46.2136364,
                "end_time": 46.6977273,
                "pitch": 33,
                "velocity": 127,
                "duration": 0.4840909,
                "tempo": 120.0
            },
            {
                "start_time": 46.6977273,
                "end_time": 46.8590909,
                "pitch": 33,
                "velocity": 127,
                "duration": 0.1613636,
                "tempo": 120.0
            },
            {
                "start_time": 48.4590909,
                "end_time": 48.6159091,
                "pitch": 31,
                "velocity": 127,
                "duration": 0.1568182,
                "tempo": 120.0
            },
            {
                "start_time": 48.6159091,
                "end_time": 48.7727273,
                "pitch": 31,
                "velocity": 127,
                "duration": 0.1568182,
                "tempo": 120.0
            },
            {
                "start_time": 48.7727273,
                "end_time": 48.775,
                "pitch": 33,
                "velocity": 127,
                "duration": 0.0022727,
                "tempo": 120.0
            },
            {
                "start_time": 48.775,
                "end_time": 49.2568182,
                "pitch": 33,
                "velocity": 127,
                "duration": 0.4818182,
                "tempo": 120.0
            },
            {
                "start_time": 49.2568182,
                "end_time": 49.4181818,
                "pitch": 33,
                "velocity": 127,
                "duration": 0.1613636,
                "tempo": 120.0
            },
            {
                "start_time": 49.7386364,
                "end_time": 49.9,
                "pitch": 45,
                "velocity": 127,
                "duration": 0.1613636,
                "tempo": 120.0
            },
            {
                "start_time": 50.2204545,
                "end_time": 50.3818182,
                "pitch": 33,
                "velocity": 127,
                "duration": 0.1613636,
                "tempo": 120.0
            },
            {
                "start_time": 51.025,
                "end_time": 51.1863636,
                "pitch": 31,
                "velocity": 127,
                "duration": 0.1613636,
                "tempo": 120.0
            },
            {
                "start_time": 51.1863636,
                "end_time": 51.3477273,
                "pitch": 31,
                "velocity": 127,
                "duration": 0.1613636,
                "tempo": 120.0
            },
            {
                "start_time": 51.3477273,
                "end_time": 51.8295455,
                "pitch": 29,
                "velocity": 127,
                "duration": 0.4818182,
                "tempo": 120.0
            },
            {
                "start_time": 51.8295455,
                "end_time": 51.9909091,
                "pitch": 29,
                "velocity": 127,
                "duration": 0.1613636,
                "tempo": 120.0
            },
            {
                "start_time": 53.5840909,
                "end_time": 53.7454545,
                "pitch": 29,
                "velocity": 127,
                "duration": 0.1613636,
                "tempo": 120.0
            },
            {
                "start_time": 53.7454545,
                "end_time": 53.9068182,
                "pitch": 29,
                "velocity": 127,
                "duration": 0.1613636,
                "tempo": 120.0
            },
            {
                "start_time": 53.9068182,
                "end_time": 54.3886364,
                "pitch": 31,
                "velocity": 127,
                "duration": 0.4818182,
                "tempo": 120.0
            },
            {
                "start_time": 54.3886364,
                "end_time": 54.55,
                "pitch": 31,
                "velocity": 127,
                "duration": 0.1613636,
                "tempo": 120.0
            },
            {
                "start_time": 56.1431818,
                "end_time": 56.3045455,
                "pitch": 31,
                "velocity": 127,
                "duration": 0.1613636,
                "tempo": 120.0
            },
            {
                "start_time": 56.3045455,
                "end_time": 56.4659091,
                "pitch": 31,
                "velocity": 127,
                "duration": 0.1613636,
                "tempo": 120.0
            },
            {
                "start_time": 30.8454545,
                "end_time": 56.4659091,
                "pitch": 40,
                "velocity": 127,
                "duration": 25.6204545,
                "tempo": 120.0
            },
            {
                "start_time": 56.4659091,
                "end_time": 56.9477273,
                "pitch": 36,
                "velocity": 127,
                "duration": 0.4818182,
                "tempo": 120.0
            },
            {
                "start_time": 56.9477273,
                "end_time": 57.1090909,
                "pitch": 36,
                "velocity": 127,
                "duration": 0.1613636,
                "tempo": 120.0
            },
            {
                "start_time": 58.7022727,
                "end_time": 58.8636364,
                "pitch": 36,
                "velocity": 127,
                "duration": 0.1613636,
                "tempo": 120.0
            },
            {
                "start_time": 58.8636364,
                "end_time": 59.025,
                "pitch": 36,
                "velocity": 127,
                "duration": 0.1613636,
                "tempo": 120.0
            },
            {
                "start_time": 59.025,
                "end_time": 59.3454545,
                "pitch": 32,
                "velocity": 127,
                "duration": 0.3204545,
                "tempo": 120.0
            },
            {
                "start_time": 33.4045455,
                "end_time": 59.5068182,
                "pitch": 20,
                "velocity": 127,
                "duration": 26.1022727,
                "tempo": 120.0
            },
            {
                "start_time": 59.3454545,
                "end_time": 59.5068182,
                "pitch": 20,
                "velocity": 127,
                "duration": 0.1613636,
                "tempo": 120.0
            },
            {
                "start_time": 59.5068182,
                "end_time": 59.6681818,
                "pitch": 32,
                "velocity": 127,
                "duration": 0.1613636,
                "tempo": 120.0
            },
            {
                "start_time": 59.9886364,
                "end_time": 60.15,
                "pitch": 20,
                "velocity": 127,
                "duration": 0.1613636,
                "tempo": 120.0
            },
            {
                "start_time": 61.2681818,
                "end_time": 61.4272727,
                "pitch": 32,
                "velocity": 127,
                "duration": 0.1590909,
                "tempo": 120.0
            },
            {
                "start_time": 61.4272727,
                "end_time": 61.5840909,
                "pitch": 32,
                "velocity": 127,
                "duration": 0.1568182,
                "tempo": 120.0
            },
            {
                "start_time": 61.5840909,
                "end_time": 62.0659091,
                "pitch": 35,
                "velocity": 127,
                "duration": 0.4818182,
                "tempo": 120.0
            },
            {
                "start_time": 62.0659091,
                "end_time": 62.2272727,
                "pitch": 35,
                "velocity": 127,
                "duration": 0.1613636,
                "tempo": 120.0
            },
            {
                "start_time": 63.8272727,
                "end_time": 63.9863636,
                "pitch": 33,
                "velocity": 127,
                "duration": 0.1590909,
                "tempo": 120.0
            },
            {
                "start_time": 63.9863636,
                "end_time": 64.1431818,
                "pitch": 33,
                "velocity": 127,
                "duration": 0.1568182,
                "tempo": 120.0
            },
            {
                "start_time": 64.1431818,
                "end_time": 64.625,
                "pitch": 35,
                "velocity": 127,
                "duration": 0.4818182,
                "tempo": 120.0
            },
            {
                "start_time": 64.1431818,
                "end_time": 64.625,
                "pitch": 35,
                "velocity": 127,
                "duration": 0.4818182,
                "tempo": 120.0
            },
            {
                "start_time": 64.625,
                "end_time": 64.7863636,
                "pitch": 35,
                "velocity": 127,
                "duration": 0.1613636,
                "tempo": 120.0
            },
            {
                "start_time": 66.3954545,
                "end_time": 66.5545455,
                "pitch": 33,
                "velocity": 127,
                "duration": 0.1590909,
                "tempo": 120.0
            },
            {
                "start_time": 66.5545455,
                "end_time": 66.7159091,
                "pitch": 33,
                "velocity": 127,
                "duration": 0.1613636,
                "tempo": 120.0
            },
            {
                "start_time": 66.7159091,
                "end_time": 67.1977273,
                "pitch": 35,
                "velocity": 127,
                "duration": 0.4818182,
                "tempo": 120.0
            },
            {
                "start_time": 66.7159091,
                "end_time": 67.1977273,
                "pitch": 35,
                "velocity": 127,
                "duration": 0.4818182,
                "tempo": 120.0
            },
            {
                "start_time": 67.1977273,
                "end_time": 67.3590909,
                "pitch": 35,
                "velocity": 127,
                "duration": 0.1613636,
                "tempo": 120.0
            },
            {
                "start_time": 68.9545455,
                "end_time": 69.1136364,
                "pitch": 33,
                "velocity": 127,
                "duration": 0.1590909,
                "tempo": 120.0
            },
            {
                "start_time": 69.1136364,
                "end_time": 69.275,
                "pitch": 33,
                "velocity": 127,
                "duration": 0.1613636,
                "tempo": 120.0
            },
            {
                "start_time": 69.275,
                "end_time": 69.7568182,
                "pitch": 35,
                "velocity": 127,
                "duration": 0.4818182,
                "tempo": 120.0
            },
            {
                "start_time": 69.275,
                "end_time": 69.7568182,
                "pitch": 35,
                "velocity": 127,
                "duration": 0.4818182,
                "tempo": 120.0
            },
            {
                "start_time": 69.7568182,
                "end_time": 69.9181818,
                "pitch": 35,
                "velocity": 127,
                "duration": 0.1613636,
                "tempo": 120.0
            },
            {
                "start_time": 71.5136364,
                "end_time": 71.6727273,
                "pitch": 33,
                "velocity": 127,
                "duration": 0.1590909,
                "tempo": 120.0
            },
            {
                "start_time": 71.6727273,
                "end_time": 71.8340909,
                "pitch": 33,
                "velocity": 127,
                "duration": 0.1613636,
                "tempo": 120.0
            },
            {
                "start_time": 71.8340909,
                "end_time": 72.3159091,
                "pitch": 38,
                "velocity": 127,
                "duration": 0.4818182,
                "tempo": 120.0
            },
            {
                "start_time": 72.3159091,
                "end_time": 72.4772727,
                "pitch": 38,
                "velocity": 127,
                "duration": 0.1613636,
                "tempo": 120.0
            },
            {
                "start_time": 74.0727273,
                "end_time": 74.2318182,
                "pitch": 38,
                "velocity": 127,
                "duration": 0.1590909,
                "tempo": 120.0
            },
            {
                "start_time": 74.2318182,
                "end_time": 74.3931818,
                "pitch": 38,
                "velocity": 127,
                "duration": 0.1613636,
                "tempo": 120.0
            },
            {
                "start_time": 74.3931818,
                "end_time": 74.875,
                "pitch": 37,
                "velocity": 127,
                "duration": 0.4818182,
                "tempo": 120.0
            },
            {
                "start_time": 74.875,
                "end_time": 75.0363636,
                "pitch": 37,
                "velocity": 127,
                "duration": 0.1613636,
                "tempo": 120.0
            },
            {
                "start_time": 76.6386364,
                "end_time": 76.7954545,
                "pitch": 33,
                "velocity": 127,
                "duration": 0.1568182,
                "tempo": 120.0
            },
            {
                "start_time": 76.7954545,
                "end_time": 76.9522727,
                "pitch": 33,
                "velocity": 127,
                "duration": 0.1568182,
                "tempo": 120.0
            },
            {
                "start_time": 76.9522727,
                "end_time": 77.4340909,
                "pitch": 35,
                "velocity": 127,
                "duration": 0.4818182,
                "tempo": 120.0
            },
            {
                "start_time": 77.4340909,
                "end_time": 77.5954545,
                "pitch": 35,
                "velocity": 127,
                "duration": 0.1613636,
                "tempo": 120.0
            },
            {
                "start_time": 79.2045455,
                "end_time": 79.3659091,
                "pitch": 33,
                "velocity": 127,
                "duration": 0.1613636,
                "tempo": 120.0
            },
            {
                "start_time": 79.3659091,
                "end_time": 79.525,
                "pitch": 33,
                "velocity": 127,
                "duration": 0.1590909,
                "tempo": 120.0
            },
            {
                "start_time": 79.525,
                "end_time": 79.8477273,
                "pitch": 35,
                "velocity": 127,
                "duration": 0.3227273,
                "tempo": 120.0
            },
            {
                "start_time": 79.525,
                "end_time": 79.8477273,
                "pitch": 35,
                "velocity": 127,
                "duration": 0.3227273,
                "tempo": 120.0
            },
            {
                "start_time": 79.8477273,
                "end_time": 80.0090909,
                "pitch": 23,
                "velocity": 127,
                "duration": 0.1613636,
                "tempo": 120.0
            },
            {
                "start_time": 80.0090909,
                "end_time": 80.1681818,
                "pitch": 35,
                "velocity": 127,
                "duration": 0.1590909,
                "tempo": 120.0
            },
            {
                "start_time": 80.4909091,
                "end_time": 80.6522727,
                "pitch": 23,
                "velocity": 127,
                "duration": 0.1613636,
                "tempo": 120.0
            },
            {
                "start_time": 81.7636364,
                "end_time": 81.925,
                "pitch": 33,
                "velocity": 127,
                "duration": 0.1613636,
                "tempo": 120.0
            },
            {
                "start_time": 81.925,
                "end_time": 82.0840909,
                "pitch": 33,
                "velocity": 127,
                "duration": 0.1590909,
                "tempo": 120.0
            },
            {
                "start_time": 82.0840909,
                "end_time": 82.5681818,
                "pitch": 31,
                "velocity": 127,
                "duration": 0.4840909,
                "tempo": 120.0
            },
            {
                "start_time": 82.0840909,
                "end_time": 82.5681818,
                "pitch": 31,
                "velocity": 127,
                "duration": 0.4840909,
                "tempo": 120.0
            },
            {
                "start_time": 82.5681818,
                "end_time": 82.7272727,
                "pitch": 31,
                "velocity": 127,
                "duration": 0.1590909,
                "tempo": 120.0
            },
            {
                "start_time": 84.3227273,
                "end_time": 84.4840909,
                "pitch": 31,
                "velocity": 127,
                "duration": 0.1613636,
                "tempo": 120.0
            },
            {
                "start_time": 84.4840909,
                "end_time": 84.6431818,
                "pitch": 31,
                "velocity": 127,
                "duration": 0.1590909,
                "tempo": 120.0
            },
            {
                "start_time": 84.6431818,
                "end_time": 85.1272727,
                "pitch": 33,
                "velocity": 127,
                "duration": 0.4840909,
                "tempo": 120.0
            },
            {
                "start_time": 84.6431818,
                "end_time": 85.1272727,
                "pitch": 33,
                "velocity": 127,
                "duration": 0.4840909,
                "tempo": 120.0
            },
            {
                "start_time": 85.1272727,
                "end_time": 85.2886364,
                "pitch": 33,
                "velocity": 127,
                "duration": 0.1613636,
                "tempo": 120.0
            },
            {
                "start_time": 86.8886364,
                "end_time": 87.0454545,
                "pitch": 33,
                "velocity": 127,
                "duration": 0.1568182,
                "tempo": 120.0
            },
            {
                "start_time": 87.0454545,
                "end_time": 87.2022727,
                "pitch": 33,
                "velocity": 127,
                "duration": 0.1568182,
                "tempo": 120.0
            },
            {
                "start_time": 87.2022727,
                "end_time": 87.6863636,
                "pitch": 35,
                "velocity": 127,
                "duration": 0.4840909,
                "tempo": 120.0
            },
            {
                "start_time": 87.2022727,
                "end_time": 87.6863636,
                "pitch": 35,
                "velocity": 127,
                "duration": 0.4840909,
                "tempo": 120.0
            },
            {
                "start_time": 87.6863636,
                "end_time": 87.8477273,
                "pitch": 35,
                "velocity": 127,
                "duration": 0.1613636,
                "tempo": 120.0
            },
            {
                "start_time": 89.4477273,
                "end_time": 89.6045455,
                "pitch": 33,
                "velocity": 127,
                "duration": 0.1568182,
                "tempo": 120.0
            },
            {
                "start_time": 89.6045455,
                "end_time": 89.7636364,
                "pitch": 33,
                "velocity": 127,
                "duration": 0.1590909,
                "tempo": 120.0
            },
            {
                "start_time": 89.7636364,
                "end_time": 90.2454545,
                "pitch": 35,
                "velocity": 127,
                "duration": 0.4818182,
                "tempo": 120.0
            },
            {
                "start_time": 90.2454545,
                "end_time": 90.4068182,
                "pitch": 35,
                "velocity": 127,
                "duration": 0.1613636,
                "tempo": 120.0
            },
            {
                "start_time": 90.7272727,
                "end_time": 90.8886364,
                "pitch": 47,
                "velocity": 127,
                "duration": 0.1613636,
                "tempo": 120.0
            },
            {
                "start_time": 91.2090909,
                "end_time": 91.3704545,
                "pitch": 35,
                "velocity": 127,
                "duration": 0.1613636,
                "tempo": 120.0
            },
            {
                "start_time": 92.0136364,
                "end_time": 92.175,
                "pitch": 33,
                "velocity": 127,
                "duration": 0.1613636,
                "tempo": 120.0
            },
            {
                "start_time": 92.175,
                "end_time": 92.3363636,
                "pitch": 33,
                "velocity": 127,
                "duration": 0.1613636,
                "tempo": 120.0
            },
            {
                "start_time": 92.3363636,
                "end_time": 92.8181818,
                "pitch": 31,
                "velocity": 127,
                "duration": 0.4818182,
                "tempo": 120.0
            },
            {
                "start_time": 92.3363636,
                "end_time": 92.8181818,
                "pitch": 31,
                "velocity": 127,
                "duration": 0.4818182,
                "tempo": 120.0
            },
            {
                "start_time": 92.8181818,
                "end_time": 92.9795455,
                "pitch": 31,
                "velocity": 127,
                "duration": 0.1613636,
                "tempo": 120.0
            },
            {
                "start_time": 94.5727273,
                "end_time": 94.7340909,
                "pitch": 31,
                "velocity": 127,
                "duration": 0.1613636,
                "tempo": 120.0
            },
            {
                "start_time": 94.7340909,
                "end_time": 94.8954545,
                "pitch": 31,
                "velocity": 127,
                "duration": 0.1613636,
                "tempo": 120.0
            },
            {
                "start_time": 94.8954545,
                "end_time": 95.3772727,
                "pitch": 33,
                "velocity": 127,
                "duration": 0.4818182,
                "tempo": 120.0
            },
            {
                "start_time": 94.8954545,
                "end_time": 95.3772727,
                "pitch": 33,
                "velocity": 127,
                "duration": 0.4818182,
                "tempo": 120.0
            },
            {
                "start_time": 95.3772727,
                "end_time": 95.5386364,
                "pitch": 33,
                "velocity": 127,
                "duration": 0.1613636,
                "tempo": 120.0
            },
            {
                "start_time": 97.1318182,
                "end_time": 97.2931818,
                "pitch": 33,
                "velocity": 127,
                "duration": 0.1613636,
                "tempo": 120.0
            },
            {
                "start_time": 97.2931818,
                "end_time": 97.4545455,
                "pitch": 33,
                "velocity": 127,
                "duration": 0.1613636,
                "tempo": 120.0
            },
            {
                "start_time": 97.4545455,
                "end_time": 97.9363636,
                "pitch": 35,
                "velocity": 127,
                "duration": 0.4818182,
                "tempo": 120.0
            },
            {
                "start_time": 97.9363636,
                "end_time": 98.0977273,
                "pitch": 35,
                "velocity": 127,
                "duration": 0.1613636,
                "tempo": 120.0
            },
            {
                "start_time": 99.6909091,
                "end_time": 99.8522727,
                "pitch": 35,
                "velocity": 127,
                "duration": 0.1613636,
                "tempo": 120.0
            },
            {
                "start_time": 99.8522727,
                "end_time": 100.0136364,
                "pitch": 35,
                "velocity": 127,
                "duration": 0.1613636,
                "tempo": 120.0
            },
            {
                "start_time": 100.0136364,
                "end_time": 100.3340909,
                "pitch": 35,
                "velocity": 127,
                "duration": 0.3204545,
                "tempo": 120.0
            },
            {
                "start_time": 100.3340909,
                "end_time": 100.4954545,
                "pitch": 23,
                "velocity": 127,
                "duration": 0.1613636,
                "tempo": 120.0
            },
            {
                "start_time": 100.4954545,
                "end_time": 100.6568182,
                "pitch": 35,
                "velocity": 127,
                "duration": 0.1613636,
                "tempo": 120.0
            },
            {
                "start_time": 100.9772727,
                "end_time": 101.1386364,
                "pitch": 23,
                "velocity": 127,
                "duration": 0.1613636,
                "tempo": 120.0
            },
            {
                "start_time": 102.2568182,
                "end_time": 102.4159091,
                "pitch": 35,
                "velocity": 127,
                "duration": 0.1590909,
                "tempo": 120.0
            },
            {
                "start_time": 102.4159091,
                "end_time": 102.5727273,
                "pitch": 35,
                "velocity": 127,
                "duration": 0.1568182,
                "tempo": 120.0
            },
            {
                "start_time": 102.5727273,
                "end_time": 103.0545455,
                "pitch": 35,
                "velocity": 127,
                "duration": 0.4818182,
                "tempo": 120.0
            },
            {
                "start_time": 103.0545455,
                "end_time": 103.2159091,
                "pitch": 35,
                "velocity": 127,
                "duration": 0.1613636,
                "tempo": 120.0
            },
            {
                "start_time": 104.8181818,
                "end_time": 104.975,
                "pitch": 33,
                "velocity": 127,
                "duration": 0.1568182,
                "tempo": 120.0
            },
            {
                "start_time": 104.975,
                "end_time": 105.1318182,
                "pitch": 33,
                "velocity": 127,
                "duration": 0.1568182,
                "tempo": 120.0
            },
            {
                "start_time": 105.1318182,
                "end_time": 105.6136364,
                "pitch": 31,
                "velocity": 127,
                "duration": 0.4818182,
                "tempo": 120.0
            },
            {
                "start_time": 105.1318182,
                "end_time": 105.6136364,
                "pitch": 31,
                "velocity": 127,
                "duration": 0.4818182,
                "tempo": 120.0
            },
            {
                "start_time": 105.6136364,
                "end_time": 105.775,
                "pitch": 31,
                "velocity": 127,
                "duration": 0.1613636,
                "tempo": 120.0
            },
            {
                "start_time": 107.3840909,
                "end_time": 107.5431818,
                "pitch": 31,
                "velocity": 127,
                "duration": 0.1590909,
                "tempo": 120.0
            },
            {
                "start_time": 107.5431818,
                "end_time": 107.7045455,
                "pitch": 31,
                "velocity": 127,
                "duration": 0.1613636,
                "tempo": 120.0
            },
            {
                "start_time": 107.7045455,
                "end_time": 108.1863636,
                "pitch": 33,
                "velocity": 127,
                "duration": 0.4818182,
                "tempo": 120.0
            },
            {
                "start_time": 108.1863636,
                "end_time": 108.3477273,
                "pitch": 33,
                "velocity": 127,
                "duration": 0.1613636,
                "tempo": 120.0
            },
            {
                "start_time": 109.9431818,
                "end_time": 110.1022727,
                "pitch": 33,
                "velocity": 127,
                "duration": 0.1590909,
                "tempo": 120.0
            },
            {
                "start_time": 110.1022727,
                "end_time": 110.2636364,
                "pitch": 33,
                "velocity": 127,
                "duration": 0.1613636,
                "tempo": 120.0
            },
            {
                "start_time": 110.2636364,
                "end_time": 110.7454545,
                "pitch": 35,
                "velocity": 127,
                "duration": 0.4818182,
                "tempo": 120.0
            },
            {
                "start_time": 110.2636364,
                "end_time": 110.7454545,
                "pitch": 35,
                "velocity": 127,
                "duration": 0.4818182,
                "tempo": 120.0
            },
            {
                "start_time": 110.7454545,
                "end_time": 110.9068182,
                "pitch": 35,
                "velocity": 127,
                "duration": 0.1613636,
                "tempo": 120.0
            },
            {
                "start_time": 112.5022727,
                "end_time": 112.6636364,
                "pitch": 33,
                "velocity": 127,
                "duration": 0.1613636,
                "tempo": 120.0
            },
            {
                "start_time": 112.6636364,
                "end_time": 112.8227273,
                "pitch": 33,
                "velocity": 127,
                "duration": 0.1590909,
                "tempo": 120.0
            },
            {
                "start_time": 112.8227273,
                "end_time": 113.3068182,
                "pitch": 31,
                "velocity": 127,
                "duration": 0.4840909,
                "tempo": 120.0
            },
            {
                "start_time": 112.8227273,
                "end_time": 113.3068182,
                "pitch": 31,
                "velocity": 127,
                "duration": 0.4840909,
                "tempo": 120.0
            },
            {
                "start_time": 113.3068182,
                "end_time": 113.4659091,
                "pitch": 31,
                "velocity": 127,
                "duration": 0.1590909,
                "tempo": 120.0
            },
            {
                "start_time": 115.0613636,
                "end_time": 115.2227273,
                "pitch": 31,
                "velocity": 127,
                "duration": 0.1613636,
                "tempo": 120.0
            },
            {
                "start_time": 115.2227273,
                "end_time": 115.3818182,
                "pitch": 31,
                "velocity": 127,
                "duration": 0.1590909,
                "tempo": 120.0
            },
            {
                "start_time": 115.3818182,
                "end_time": 115.8659091,
                "pitch": 33,
                "velocity": 127,
                "duration": 0.4840909,
                "tempo": 120.0
            },
            {
                "start_time": 115.8659091,
                "end_time": 116.025,
                "pitch": 33,
                "velocity": 127,
                "duration": 0.1590909,
                "tempo": 120.0
            },
            {
                "start_time": 117.6272727,
                "end_time": 117.7840909,
                "pitch": 33,
                "velocity": 127,
                "duration": 0.1568182,
                "tempo": 120.0
            },
            {
                "start_time": 117.7840909,
                "end_time": 117.9409091,
                "pitch": 33,
                "velocity": 127,
                "duration": 0.1568182,
                "tempo": 120.0
            },
            {
                "start_time": 117.9409091,
                "end_time": 118.425,
                "pitch": 35,
                "velocity": 127,
                "duration": 0.4840909,
                "tempo": 120.0
            },
            {
                "start_time": 117.9409091,
                "end_time": 118.425,
                "pitch": 35,
                "velocity": 127,
                "duration": 0.4840909,
                "tempo": 120.0
            },
            {
                "start_time": 118.425,
                "end_time": 118.5840909,
                "pitch": 35,
                "velocity": 127,
                "duration": 0.1590909,
                "tempo": 120.0
            },
            {
                "start_time": 120.1931818,
                "end_time": 120.3545455,
                "pitch": 35,
                "velocity": 127,
                "duration": 0.1613636,
                "tempo": 120.0
            },
            {
                "start_time": 120.3545455,
                "end_time": 120.5136364,
                "pitch": 35,
                "velocity": 127,
                "duration": 0.1590909,
                "tempo": 120.0
            },
            {
                "start_time": 120.5136364,
                "end_time": 120.9863636,
                "pitch": 35,
                "velocity": 127,
                "duration": 0.4727273,
                "tempo": 120.0
            },
            {
                "start_time": 120.9863636,
                "end_time": 121.1431818,
                "pitch": 35,
                "velocity": 127,
                "duration": 0.1568182,
                "tempo": 120.0
            },
            {
                "start_time": 122.7454545,
                "end_time": 122.9068182,
                "pitch": 33,
                "velocity": 127,
                "duration": 0.1613636,
                "tempo": 120.0
            },
            {
                "start_time": 122.9068182,
                "end_time": 123.0659091,
                "pitch": 33,
                "velocity": 127,
                "duration": 0.1590909,
                "tempo": 120.0
            }
        ],
        "Acoustic Guitar (nylon)": [
            {
                "start_time": 0.4227273,
                "end_time": 0.7431818,
                "pitch": 64,
                "velocity": 80,
                "duration": 0.3204545,
                "tempo": 120.0
            },
            {
                "start_time": 0.7431818,
                "end_time": 1.2318182,
                "pitch": 69,
                "velocity": 80,
                "duration": 0.4886364,
                "tempo": 120.0
            },
            {
                "start_time": 1.2318182,
                "end_time": 1.7090909,
                "pitch": 57,
                "velocity": 80,
                "duration": 0.4772727,
                "tempo": 120.0
            },
            {
                "start_time": 0.7431818,
                "end_time": 2.3454545,
                "pitch": 32,
                "velocity": 80,
                "duration": 1.6022727,
                "tempo": 120.0
            },
            {
                "start_time": 1.7090909,
                "end_time": 2.3454545,
                "pitch": 64,
                "velocity": 80,
                "duration": 0.6363636,
                "tempo": 120.0
            },
            {
                "start_time": 2.3454545,
                "end_time": 2.9886364,
                "pitch": 57,
                "velocity": 80,
                "duration": 0.6431818,
                "tempo": 120.0
            },
            {
                "start_time": 1.7090909,
                "end_time": 2.9886364,
                "pitch": 66,
                "velocity": 80,
                "duration": 1.2795455,
                "tempo": 120.0
            },
            {
                "start_time": 2.3454545,
                "end_time": 3.3113636,
                "pitch": 32,
                "velocity": 80,
                "duration": 0.9659091,
                "tempo": 120.0
            },
            {
                "start_time": 2.9886364,
                "end_time": 3.3113636,
                "pitch": 64,
                "velocity": 80,
                "duration": 0.3227273,
                "tempo": 120.0
            },
            {
                "start_time": 3.3113636,
                "end_time": 3.7931818,
                "pitch": 69,
                "velocity": 80,
                "duration": 0.4818182,
                "tempo": 120.0
            },
            {
                "start_time": 3.7931818,
                "end_time": 4.2681818,
                "pitch": 57,
                "velocity": 80,
                "duration": 0.475,
                "tempo": 120.0
            },
            {
                "start_time": 2.9886364,
                "end_time": 4.2681818,
                "pitch": 66,
                "velocity": 80,
                "duration": 1.2795455,
                "tempo": 120.0
            },
            {
                "start_time": 4.2681818,
                "end_time": 4.9045455,
                "pitch": 64,
                "velocity": 80,
                "duration": 0.6363636,
                "tempo": 120.0
            },
            {
                "start_time": 4.9045455,
                "end_time": 5.5477273,
                "pitch": 57,
                "velocity": 80,
                "duration": 0.6431818,
                "tempo": 120.0
            },
            {
                "start_time": 4.2681818,
                "end_time": 5.5477273,
                "pitch": 66,
                "velocity": 80,
                "duration": 1.2795455,
                "tempo": 120.0
            },
            {
                "start_time": 5.5477273,
                "end_time": 5.8704545,
                "pitch": 64,
                "velocity": 80,
                "duration": 0.3227273,
                "tempo": 120.0
            },
            {
                "start_time": 5.8704545,
                "end_time": 6.3522727,
                "pitch": 69,
                "velocity": 80,
                "duration": 0.4818182,
                "tempo": 120.0
            },
            {
                "start_time": 6.3522727,
                "end_time": 6.8340909,
                "pitch": 57,
                "velocity": 80,
                "duration": 0.4818182,
                "tempo": 120.0
            },
            {
                "start_time": 5.5477273,
                "end_time": 6.8340909,
                "pitch": 66,
                "velocity": 80,
                "duration": 1.2863636,
                "tempo": 120.0
            },
            {
                "start_time": 3.3113636,
                "end_time": 7.4704545,
                "pitch": 32,
                "velocity": 80,
                "duration": 4.1590909,
                "tempo": 120.0
            },
            {
                "start_time": 6.8340909,
                "end_time": 7.4704545,
                "pitch": 64,
                "velocity": 80,
                "duration": 0.6363636,
                "tempo": 120.0
            },
            {
                "start_time": 7.4704545,
                "end_time": 8.1068182,
                "pitch": 57,
                "velocity": 80,
                "duration": 0.6363636,
                "tempo": 120.0
            },
            {
                "start_time": 6.8340909,
                "end_time": 8.1068182,
                "pitch": 66,
                "velocity": 80,
                "duration": 1.2727273,
                "tempo": 120.0
            },
            {
                "start_time": 7.4704545,
                "end_time": 8.4295455,
                "pitch": 32,
                "velocity": 80,
                "duration": 0.9590909,
                "tempo": 120.0
            },
            {
                "start_time": 8.1068182,
                "end_time": 8.4295455,
                "pitch": 64,
                "velocity": 80,
                "duration": 0.3227273,
                "tempo": 120.0
            },
            {
                "start_time": 8.4295455,
                "end_time": 8.9113636,
                "pitch": 69,
                "velocity": 80,
                "duration": 0.4818182,
                "tempo": 120.0
            },
            {
                "start_time": 8.9113636,
                "end_time": 9.3931818,
                "pitch": 57,
                "velocity": 80,
                "duration": 0.4818182,
                "tempo": 120.0
            },
            {
                "start_time": 8.1068182,
                "end_time": 9.3931818,
                "pitch": 66,
                "velocity": 80,
                "duration": 1.2863636,
                "tempo": 120.0
            },
            {
                "start_time": 8.4295455,
                "end_time": 10.0295455,
                "pitch": 32,
                "velocity": 80,
                "duration": 1.6,
                "tempo": 120.0
            },
            {
                "start_time": 9.3931818,
                "end_time": 10.0295455,
                "pitch": 64,
                "velocity": 80,
                "duration": 0.6363636,
                "tempo": 120.0
            },
            {
                "start_time": 10.0295455,
                "end_time": 10.6659091,
                "pitch": 57,
                "velocity": 80,
                "duration": 0.6363636,
                "tempo": 120.0
            },
            {
                "start_time": 10.0295455,
                "end_time": 10.9886364,
                "pitch": 32,
                "velocity": 80,
                "duration": 0.9590909,
                "tempo": 120.0
            },
            {
                "start_time": 10.6659091,
                "end_time": 10.9886364,
                "pitch": 64,
                "velocity": 80,
                "duration": 0.3227273,
                "tempo": 120.0
            },
            {
                "start_time": 10.9886364,
                "end_time": 11.4704545,
                "pitch": 69,
                "velocity": 80,
                "duration": 0.4818182,
                "tempo": 120.0
            },
            {
                "start_time": 11.4704545,
                "end_time": 11.9522727,
                "pitch": 57,
                "velocity": 80,
                "duration": 0.4818182,
                "tempo": 120.0
            },
            {
                "start_time": 10.9886364,
                "end_time": 12.5954545,
                "pitch": 32,
                "velocity": 80,
                "duration": 1.6068182,
                "tempo": 120.0
            },
            {
                "start_time": 11.9522727,
                "end_time": 12.5954545,
                "pitch": 64,
                "velocity": 80,
                "duration": 0.6431818,
                "tempo": 120.0
            },
            {
                "start_time": 12.5954545,
                "end_time": 13.2386364,
                "pitch": 57,
                "velocity": 80,
                "duration": 0.6431818,
                "tempo": 120.0
            },
            {
                "start_time": 9.3931818,
                "end_time": 13.2386364,
                "pitch": 66,
                "velocity": 80,
                "duration": 3.8454545,
                "tempo": 120.0
            },
            {
                "start_time": 13.2386364,
                "end_time": 13.5613636,
                "pitch": 64,
                "velocity": 80,
                "duration": 0.3227273,
                "tempo": 120.0
            },
            {
                "start_time": 13.5613636,
                "end_time": 14.0431818,
                "pitch": 69,
                "velocity": 80,
                "duration": 0.4818182,
                "tempo": 120.0
            },
            {
                "start_time": 14.0431818,
                "end_time": 14.5181818,
                "pitch": 57,
                "velocity": 80,
                "duration": 0.475,
                "tempo": 120.0
            },
            {
                "start_time": 13.2386364,
                "end_time": 14.5181818,
                "pitch": 66,
                "velocity": 80,
                "duration": 1.2795455,
                "tempo": 120.0
            },
            {
                "start_time": 14.5181818,
                "end_time": 15.1545455,
                "pitch": 64,
                "velocity": 80,
                "duration": 0.6363636,
                "tempo": 120.0
            },
            {
                "start_time": 15.1545455,
                "end_time": 15.7977273,
                "pitch": 57,
                "velocity": 80,
                "duration": 0.6431818,
                "tempo": 120.0
            },
            {
                "start_time": 14.5181818,
                "end_time": 15.7977273,
                "pitch": 66,
                "velocity": 80,
                "duration": 1.2795455,
                "tempo": 120.0
            },
            {
                "start_time": 15.7977273,
                "end_time": 16.1204545,
                "pitch": 64,
                "velocity": 80,
                "duration": 0.3227273,
                "tempo": 120.0
            },
            {
                "start_time": 16.1204545,
                "end_time": 16.6022727,
                "pitch": 69,
                "velocity": 80,
                "duration": 0.4818182,
                "tempo": 120.0
            },
            {
                "start_time": 16.6022727,
                "end_time": 17.0772727,
                "pitch": 57,
                "velocity": 80,
                "duration": 0.475,
                "tempo": 120.0
            },
            {
                "start_time": 15.7977273,
                "end_time": 17.0772727,
                "pitch": 66,
                "velocity": 80,
                "duration": 1.2795455,
                "tempo": 120.0
            },
            {
                "start_time": 12.5954545,
                "end_time": 17.7136364,
                "pitch": 32,
                "velocity": 80,
                "duration": 5.1181818,
                "tempo": 120.0
            },
            {
                "start_time": 17.0772727,
                "end_time": 17.7136364,
                "pitch": 64,
                "velocity": 80,
                "duration": 0.6363636,
                "tempo": 120.0
            },
            {
                "start_time": 17.7136364,
                "end_time": 18.3568182,
                "pitch": 57,
                "velocity": 80,
                "duration": 0.6431818,
                "tempo": 120.0
            },
            {
                "start_time": 17.7136364,
                "end_time": 18.6795455,
                "pitch": 32,
                "velocity": 80,
                "duration": 0.9659091,
                "tempo": 120.0
            },
            {
                "start_time": 18.3568182,
                "end_time": 18.6795455,
                "pitch": 64,
                "velocity": 80,
                "duration": 0.3227273,
                "tempo": 120.0
            },
            {
                "start_time": 18.6795455,
                "end_time": 19.1613636,
                "pitch": 69,
                "velocity": 80,
                "duration": 0.4818182,
                "tempo": 120.0
            },
            {
                "start_time": 19.1613636,
                "end_time": 19.6431818,
                "pitch": 57,
                "velocity": 80,
                "duration": 0.4818182,
                "tempo": 120.0
            },
            {
                "start_time": 17.0772727,
                "end_time": 19.6431818,
                "pitch": 66,
                "velocity": 80,
                "duration": 2.5659091,
                "tempo": 120.0
            },
            {
                "start_time": 18.6795455,
                "end_time": 20.2795455,
                "pitch": 32,
                "velocity": 80,
                "duration": 1.6,
                "tempo": 120.0
            },
            {
                "start_time": 19.6431818,
                "end_time": 20.2795455,
                "pitch": 64,
                "velocity": 80,
                "duration": 0.6363636,
                "tempo": 120.0
            },
            {
                "start_time": 20.2795455,
                "end_time": 20.9159091,
                "pitch": 57,
                "velocity": 80,
                "duration": 0.6363636,
                "tempo": 120.0
            },
            {
                "start_time": 20.2795455,
                "end_time": 21.2386364,
                "pitch": 32,
                "velocity": 80,
                "duration": 0.9590909,
                "tempo": 120.0
            },
            {
                "start_time": 20.9159091,
                "end_time": 21.2386364,
                "pitch": 64,
                "velocity": 80,
                "duration": 0.3227273,
                "tempo": 120.0
            },
            {
                "start_time": 21.2386364,
                "end_time": 21.7204545,
                "pitch": 69,
                "velocity": 80,
                "duration": 0.4818182,
                "tempo": 120.0
            },
            {
                "start_time": 21.7204545,
                "end_time": 22.2022727,
                "pitch": 57,
                "velocity": 80,
                "duration": 0.4818182,
                "tempo": 120.0
            },
            {
                "start_time": 19.6431818,
                "end_time": 22.2022727,
                "pitch": 66,
                "velocity": 80,
                "duration": 2.5590909,
                "tempo": 120.0
            },
            {
                "start_time": 22.2022727,
                "end_time": 22.8386364,
                "pitch": 64,
                "velocity": 80,
                "duration": 0.6363636,
                "tempo": 120.0
            },
            {
                "start_time": 22.8386364,
                "end_time": 23.4772727,
                "pitch": 57,
                "velocity": 80,
                "duration": 0.6386364,
                "tempo": 120.0
            },
            {
                "start_time": 22.2022727,
                "end_time": 23.4772727,
                "pitch": 66,
                "velocity": 80,
                "duration": 1.275,
                "tempo": 120.0
            },
            {
                "start_time": 23.4772727,
                "end_time": 23.7977273,
                "pitch": 64,
                "velocity": 80,
                "duration": 0.3204545,
                "tempo": 120.0
            },
            {
                "start_time": 23.7977273,
                "end_time": 24.2795455,
                "pitch": 69,
                "velocity": 80,
                "duration": 0.4818182,
                "tempo": 120.0
            },
            {
                "start_time": 24.2795455,
                "end_time": 24.7636364,
                "pitch": 57,
                "velocity": 80,
                "duration": 0.4840909,
                "tempo": 120.0
            },
            {
                "start_time": 23.4772727,
                "end_time": 24.7636364,
                "pitch": 66,
                "velocity": 80,
                "duration": 1.2863636,
                "tempo": 120.0
            },
            {
                "start_time": 21.2386364,
                "end_time": 25.4068182,
                "pitch": 32,
                "velocity": 80,
                "duration": 4.1681818,
                "tempo": 120.0
            },
            {
                "start_time": 24.7636364,
                "end_time": 25.4068182,
                "pitch": 64,
                "velocity": 80,
                "duration": 0.6431818,
                "tempo": 120.0
            },
            {
                "start_time": 25.4068182,
                "end_time": 26.0477273,
                "pitch": 57,
                "velocity": 80,
                "duration": 0.6409091,
                "tempo": 120.0
            },
            {
                "start_time": 24.7636364,
                "end_time": 26.0477273,
                "pitch": 66,
                "velocity": 80,
                "duration": 1.2840909,
                "tempo": 120.0
            },
            {
                "start_time": 26.0477273,
                "end_time": 26.3704545,
                "pitch": 64,
                "velocity": 80,
                "duration": 0.3227273,
                "tempo": 120.0
            },
            {
                "start_time": 26.3704545,
                "end_time": 26.8431818,
                "pitch": 69,
                "velocity": 80,
                "duration": 0.4727273,
                "tempo": 120.0
            },
            {
                "start_time": 26.8431818,
                "end_time": 27.3227273,
                "pitch": 57,
                "velocity": 80,
                "duration": 0.4795455,
                "tempo": 120.0
            },
            {
                "start_time": 26.0477273,
                "end_time": 27.3227273,
                "pitch": 66,
                "velocity": 80,
                "duration": 1.275,
                "tempo": 120.0
            },
            {
                "start_time": 25.4068182,
                "end_time": 27.9659091,
                "pitch": 32,
                "velocity": 80,
                "duration": 2.5590909,
                "tempo": 120.0
            },
            {
                "start_time": 27.3227273,
                "end_time": 27.9659091,
                "pitch": 64,
                "velocity": 80,
                "duration": 0.6431818,
                "tempo": 120.0
            },
            {
                "start_time": 27.9659091,
                "end_time": 28.6090909,
                "pitch": 57,
                "velocity": 80,
                "duration": 0.6431818,
                "tempo": 120.0
            },
            {
                "start_time": 27.9659091,
                "end_time": 28.9295455,
                "pitch": 32,
                "velocity": 80,
                "duration": 0.9636364,
                "tempo": 120.0
            },
            {
                "start_time": 28.6090909,
                "end_time": 28.9295455,
                "pitch": 64,
                "velocity": 80,
                "duration": 0.3204545,
                "tempo": 120.0
            },
            {
                "start_time": 28.9295455,
                "end_time": 29.4113636,
                "pitch": 69,
                "velocity": 80,
                "duration": 0.4818182,
                "tempo": 120.0
            },
            {
                "start_time": 29.4113636,
                "end_time": 29.8886364,
                "pitch": 57,
                "velocity": 80,
                "duration": 0.4772727,
                "tempo": 120.0
            },
            {
                "start_time": 28.9295455,
                "end_time": 30.525,
                "pitch": 32,
                "velocity": 80,
                "duration": 1.5954545,
                "tempo": 120.0
            },
            {
                "start_time": 29.8886364,
                "end_time": 30.525,
                "pitch": 64,
                "velocity": 80,
                "duration": 0.6363636,
                "tempo": 120.0
            },
            {
                "start_time": 30.525,
                "end_time": 31.1681818,
                "pitch": 57,
                "velocity": 80,
                "duration": 0.6431818,
                "tempo": 120.0
            },
            {
                "start_time": 27.3227273,
                "end_time": 31.1681818,
                "pitch": 66,
                "velocity": 80,
                "duration": 3.8454545,
                "tempo": 120.0
            },
            {
                "start_time": 31.1681818,
                "end_time": 31.4886364,
                "pitch": 64,
                "velocity": 80,
                "duration": 0.3204545,
                "tempo": 120.0
            },
            {
                "start_time": 31.4886364,
                "end_time": 31.9704545,
                "pitch": 69,
                "velocity": 80,
                "duration": 0.4818182,
                "tempo": 120.0
            },
            {
                "start_time": 31.9704545,
                "end_time": 32.4477273,
                "pitch": 57,
                "velocity": 80,
                "duration": 0.4772727,
                "tempo": 120.0
            },
            {
                "start_time": 31.1681818,
                "end_time": 32.4477273,
                "pitch": 66,
                "velocity": 80,
                "duration": 1.2795455,
                "tempo": 120.0
            },
            {
                "start_time": 30.525,
                "end_time": 33.0840909,
                "pitch": 32,
                "velocity": 80,
                "duration": 2.5590909,
                "tempo": 120.0
            },
            {
                "start_time": 32.4477273,
                "end_time": 33.0840909,
                "pitch": 64,
                "velocity": 80,
                "duration": 0.6363636,
                "tempo": 120.0
            },
            {
                "start_time": 33.0840909,
                "end_time": 33.7272727,
                "pitch": 57,
                "velocity": 80,
                "duration": 0.6431818,
                "tempo": 120.0
            },
            {
                "start_time": 32.4477273,
                "end_time": 33.7272727,
                "pitch": 66,
                "velocity": 80,
                "duration": 1.2795455,
                "tempo": 120.0
            },
            {
                "start_time": 33.0840909,
                "end_time": 34.0477273,
                "pitch": 32,
                "velocity": 80,
                "duration": 0.9636364,
                "tempo": 120.0
            },
            {
                "start_time": 33.7272727,
                "end_time": 34.0477273,
                "pitch": 64,
                "velocity": 80,
                "duration": 0.3204545,
                "tempo": 120.0
            },
            {
                "start_time": 34.0477273,
                "end_time": 34.5295455,
                "pitch": 69,
                "velocity": 80,
                "duration": 0.4818182,
                "tempo": 120.0
            },
            {
                "start_time": 34.5295455,
                "end_time": 35.0136364,
                "pitch": 57,
                "velocity": 80,
                "duration": 0.4840909,
                "tempo": 120.0
            },
            {
                "start_time": 33.7272727,
                "end_time": 35.0136364,
                "pitch": 66,
                "velocity": 80,
                "duration": 1.2863636,
                "tempo": 120.0
            },
            {
                "start_time": 34.0477273,
                "end_time": 35.65,
                "pitch": 32,
                "velocity": 80,
                "duration": 1.6022727,
                "tempo": 120.0
            },
            {
                "start_time": 35.0136364,
                "end_time": 35.65,
                "pitch": 64,
                "velocity": 80,
                "duration": 0.6363636,
                "tempo": 120.0
            },
            {
                "start_time": 35.65,
                "end_time": 36.2863636,
                "pitch": 57,
                "velocity": 80,
                "duration": 0.6363636,
                "tempo": 120.0
            },
            {
                "start_time": 35.65,
                "end_time": 36.6068182,
                "pitch": 32,
                "velocity": 80,
                "duration": 0.9568182,
                "tempo": 120.0
            },
            {
                "start_time": 36.2863636,
                "end_time": 36.6068182,
                "pitch": 64,
                "velocity": 80,
                "duration": 0.3204545,
                "tempo": 120.0
            },
            {
                "start_time": 36.6068182,
                "end_time": 37.0909091,
                "pitch": 69,
                "velocity": 80,
                "duration": 0.4840909,
                "tempo": 120.0
            },
            {
                "start_time": 37.0909091,
                "end_time": 37.5727273,
                "pitch": 57,
                "velocity": 80,
                "duration": 0.4818182,
                "tempo": 120.0
            },
            {
                "start_time": 36.6068182,
                "end_time": 38.2159091,
                "pitch": 32,
                "velocity": 80,
                "duration": 1.6090909,
                "tempo": 120.0
            },
            {
                "start_time": 37.5727273,
                "end_time": 38.2159091,
                "pitch": 64,
                "velocity": 80,
                "duration": 0.6431818,
                "tempo": 120.0
            },
            {
                "start_time": 38.2159091,
                "end_time": 38.8590909,
                "pitch": 57,
                "velocity": 80,
                "duration": 0.6431818,
                "tempo": 120.0
            },
            {
                "start_time": 38.2159091,
                "end_time": 39.1795455,
                "pitch": 32,
                "velocity": 80,
                "duration": 0.9636364,
                "tempo": 120.0
            },
            {
                "start_time": 38.8590909,
                "end_time": 39.1795455,
                "pitch": 64,
                "velocity": 80,
                "duration": 0.3204545,
                "tempo": 120.0
            },
            {
                "start_time": 39.1795455,
                "end_time": 39.6636364,
                "pitch": 69,
                "velocity": 80,
                "duration": 0.4840909,
                "tempo": 120.0
            },
            {
                "start_time": 39.6636364,
                "end_time": 40.1386364,
                "pitch": 57,
                "velocity": 80,
                "duration": 0.475,
                "tempo": 120.0
            },
            {
                "start_time": 35.0136364,
                "end_time": 40.1386364,
                "pitch": 66,
                "velocity": 80,
                "duration": 5.125,
                "tempo": 120.0
            },
            {
                "start_time": 40.1386364,
                "end_time": 40.775,
                "pitch": 64,
                "velocity": 80,
                "duration": 0.6363636,
                "tempo": 120.0
            },
            {
                "start_time": 40.775,
                "end_time": 41.4181818,
                "pitch": 57,
                "velocity": 80,
                "duration": 0.6431818,
                "tempo": 120.0
            },
            {
                "start_time": 41.4181818,
                "end_time": 41.7409091,
                "pitch": 60,
                "velocity": 80,
                "duration": 0.3227273,
                "tempo": 120.0
            },
            {
                "start_time": 39.1795455,
                "end_time": 42.2227273,
                "pitch": 32,
                "velocity": 80,
                "duration": 3.0431818,
                "tempo": 120.0
            },
            {
                "start_time": 41.7409091,
                "end_time": 42.2227273,
                "pitch": 65,
                "velocity": 80,
                "duration": 0.4818182,
                "tempo": 120.0
            },
            {
                "start_time": 42.2227273,
                "end_time": 42.6977273,
                "pitch": 57,
                "velocity": 80,
                "duration": 0.475,
                "tempo": 120.0
            },
            {
                "start_time": 41.4181818,
                "end_time": 42.6977273,
                "pitch": 64,
                "velocity": 80,
                "duration": 1.2795455,
                "tempo": 120.0
            },
            {
                "start_time": 42.6977273,
                "end_time": 43.3340909,
                "pitch": 60,
                "velocity": 80,
                "duration": 0.6363636,
                "tempo": 120.0
            },
            {
                "start_time": 42.2227273,
                "end_time": 43.9772727,
                "pitch": 32,
                "velocity": 80,
                "duration": 1.7545455,
                "tempo": 120.0
            },
            {
                "start_time": 43.3340909,
                "end_time": 43.9772727,
                "pitch": 53,
                "velocity": 80,
                "duration": 0.6431818,
                "tempo": 120.0
            },
            {
                "start_time": 43.9772727,
                "end_time": 44.3,
                "pitch": 59,
                "velocity": 80,
                "duration": 0.3227273,
                "tempo": 120.0
            },
            {
                "start_time": 44.3,
                "end_time": 44.7818182,
                "pitch": 67,
                "velocity": 80,
                "duration": 0.4818182,
                "tempo": 120.0
            },
            {
                "start_time": 44.3,
                "end_time": 45.2568182,
                "pitch": 55,
                "velocity": 80,
                "duration": 0.9568182,
                "tempo": 120.0
            },
            {
                "start_time": 44.7818182,
                "end_time": 45.2568182,
                "pitch": 55,
                "velocity": 80,
                "duration": 0.475,
                "tempo": 120.0
            },
            {
                "start_time": 43.3340909,
                "end_time": 45.2568182,
                "pitch": 65,
                "velocity": 80,
                "duration": 1.9227273,
                "tempo": 120.0
            },
            {
                "start_time": 45.2568182,
                "end_time": 45.8931818,
                "pitch": 62,
                "velocity": 80,
                "duration": 0.6363636,
                "tempo": 120.0
            },
            {
                "start_time": 45.8931818,
                "end_time": 46.5363636,
                "pitch": 62,
                "velocity": 80,
                "duration": 0.6431818,
                "tempo": 120.0
            },
            {
                "start_time": 43.9772727,
                "end_time": 46.8590909,
                "pitch": 32,
                "velocity": 80,
                "duration": 2.8818182,
                "tempo": 120.0
            },
            {
                "start_time": 42.6977273,
                "end_time": 46.8590909,
                "pitch": 64,
                "velocity": 80,
                "duration": 4.1613636,
                "tempo": 120.0
            },
            {
                "start_time": 46.5363636,
                "end_time": 46.8590909,
                "pitch": 64,
                "velocity": 80,
                "duration": 0.3227273,
                "tempo": 120.0
            },
            {
                "start_time": 46.8590909,
                "end_time": 47.3409091,
                "pitch": 69,
                "velocity": 80,
                "duration": 0.4818182,
                "tempo": 120.0
            },
            {
                "start_time": 47.3409091,
                "end_time": 47.8227273,
                "pitch": 57,
                "velocity": 80,
                "duration": 0.4818182,
                "tempo": 120.0
            },
            {
                "start_time": 47.8227273,
                "end_time": 48.4590909,
                "pitch": 64,
                "velocity": 80,
                "duration": 0.6363636,
                "tempo": 120.0
            },
            {
                "start_time": 48.4590909,
                "end_time": 49.0954545,
                "pitch": 57,
                "velocity": 80,
                "duration": 0.6363636,
                "tempo": 120.0
            },
            {
                "start_time": 40.1386364,
                "end_time": 49.0954545,
                "pitch": 66,
                "velocity": 80,
                "duration": 8.9568182,
                "tempo": 120.0
            },
            {
                "start_time": 46.8590909,
                "end_time": 49.4181818,
                "pitch": 32,
                "velocity": 80,
                "duration": 2.5590909,
                "tempo": 120.0
            },
            {
                "start_time": 49.0954545,
                "end_time": 49.4181818,
                "pitch": 64,
                "velocity": 80,
                "duration": 0.3227273,
                "tempo": 120.0
            },
            {
                "start_time": 49.4181818,
                "end_time": 49.9,
                "pitch": 69,
                "velocity": 80,
                "duration": 0.4818182,
                "tempo": 120.0
            },
            {
                "start_time": 49.9,
                "end_time": 50.3818182,
                "pitch": 57,
                "velocity": 80,
                "duration": 0.4818182,
                "tempo": 120.0
            },
            {
                "start_time": 49.4181818,
                "end_time": 51.025,
                "pitch": 32,
                "velocity": 80,
                "duration": 1.6068182,
                "tempo": 120.0
            },
            {
                "start_time": 50.3818182,
                "end_time": 51.025,
                "pitch": 64,
                "velocity": 80,
                "duration": 0.6431818,
                "tempo": 120.0
            },
            {
                "start_time": 51.025,
                "end_time": 51.6681818,
                "pitch": 57,
                "velocity": 80,
                "duration": 0.6431818,
                "tempo": 120.0
            },
            {
                "start_time": 51.6681818,
                "end_time": 51.9909091,
                "pitch": 60,
                "velocity": 80,
                "duration": 0.3227273,
                "tempo": 120.0
            },
            {
                "start_time": 51.025,
                "end_time": 52.4613636,
                "pitch": 32,
                "velocity": 80,
                "duration": 1.4363636,
                "tempo": 120.0
            },
            {
                "start_time": 45.2568182,
                "end_time": 52.4613636,
                "pitch": 65,
                "velocity": 80,
                "duration": 7.2045455,
                "tempo": 120.0
            },
            {
                "start_time": 51.9909091,
                "end_time": 52.4613636,
                "pitch": 65,
                "velocity": 80,
                "duration": 0.4704545,
                "tempo": 120.0
            },
            {
                "start_time": 52.4613636,
                "end_time": 52.9409091,
                "pitch": 57,
                "velocity": 80,
                "duration": 0.4795455,
                "tempo": 120.0
            },
            {
                "start_time": 51.6681818,
                "end_time": 52.9409091,
                "pitch": 64,
                "velocity": 80,
                "duration": 1.2727273,
                "tempo": 120.0
            },
            {
                "start_time": 52.9409091,
                "end_time": 53.5840909,
                "pitch": 60,
                "velocity": 80,
                "duration": 0.6431818,
                "tempo": 120.0
            },
            {
                "start_time": 53.5840909,
                "end_time": 54.2272727,
                "pitch": 53,
                "velocity": 80,
                "duration": 0.6431818,
                "tempo": 120.0
            },
            {
                "start_time": 54.2272727,
                "end_time": 54.55,
                "pitch": 62,
                "velocity": 80,
                "duration": 0.3227273,
                "tempo": 120.0
            },
            {
                "start_time": 54.55,
                "end_time": 55.0318182,
                "pitch": 67,
                "velocity": 80,
                "duration": 0.4818182,
                "tempo": 120.0
            },
            {
                "start_time": 55.0318182,
                "end_time": 55.5068182,
                "pitch": 59,
                "velocity": 80,
                "duration": 0.475,
                "tempo": 120.0
            },
            {
                "start_time": 55.5068182,
                "end_time": 56.1431818,
                "pitch": 62,
                "velocity": 80,
                "duration": 0.6363636,
                "tempo": 120.0
            },
            {
                "start_time": 56.1431818,
                "end_time": 56.7863636,
                "pitch": 55,
                "velocity": 80,
                "duration": 0.6431818,
                "tempo": 120.0
            },
            {
                "start_time": 56.7863636,
                "end_time": 57.1090909,
                "pitch": 67,
                "velocity": 80,
                "duration": 0.3227273,
                "tempo": 120.0
            },
            {
                "start_time": 57.1090909,
                "end_time": 57.5909091,
                "pitch": 72,
                "velocity": 80,
                "duration": 0.4818182,
                "tempo": 120.0
            },
            {
                "start_time": 57.1090909,
                "end_time": 57.5909091,
                "pitch": 76,
                "velocity": 80,
                "duration": 0.4818182,
                "tempo": 120.0
            },
            {
                "start_time": 52.9409091,
                "end_time": 58.0659091,
                "pitch": 64,
                "velocity": 80,
                "duration": 5.125,
                "tempo": 120.0
            },
            {
                "start_time": 57.5909091,
                "end_time": 58.0659091,
                "pitch": 64,
                "velocity": 80,
                "duration": 0.475,
                "tempo": 120.0
            },
            {
                "start_time": 58.0659091,
                "end_time": 58.7022727,
                "pitch": 67,
                "velocity": 80,
                "duration": 0.6363636,
                "tempo": 120.0
            },
            {
                "start_time": 58.7022727,
                "end_time": 59.3454545,
                "pitch": 67,
                "velocity": 80,
                "duration": 0.6431818,
                "tempo": 120.0
            },
            {
                "start_time": 59.3454545,
                "end_time": 59.6681818,
                "pitch": 64,
                "velocity": 80,
                "duration": 0.3227273,
                "tempo": 120.0
            },
            {
                "start_time": 59.6681818,
                "end_time": 60.15,
                "pitch": 68,
                "velocity": 80,
                "duration": 0.4818182,
                "tempo": 120.0
            },
            {
                "start_time": 60.15,
                "end_time": 60.6318182,
                "pitch": 59,
                "velocity": 80,
                "duration": 0.4818182,
                "tempo": 120.0
            },
            {
                "start_time": 49.0954545,
                "end_time": 60.6318182,
                "pitch": 66,
                "velocity": 80,
                "duration": 11.5363636,
                "tempo": 120.0
            },
            {
                "start_time": 59.6681818,
                "end_time": 61.2681818,
                "pitch": 21,
                "velocity": 80,
                "duration": 1.6,
                "tempo": 120.0
            },
            {
                "start_time": 60.6318182,
                "end_time": 61.2681818,
                "pitch": 64,
                "velocity": 80,
                "duration": 0.6363636,
                "tempo": 120.0
            },
            {
                "start_time": 61.2681818,
                "end_time": 61.9045455,
                "pitch": 56,
                "velocity": 80,
                "duration": 0.6363636,
                "tempo": 120.0
            },
            {
                "start_time": 60.6318182,
                "end_time": 62.2272727,
                "pitch": 66,
                "velocity": 80,
                "duration": 1.5954545,
                "tempo": 120.0
            },
            {
                "start_time": 61.9045455,
                "end_time": 62.2272727,
                "pitch": 66,
                "velocity": 80,
                "duration": 0.3227273,
                "tempo": 120.0
            },
            {
                "start_time": 60.15,
                "end_time": 62.7090909,
                "pitch": 71,
                "velocity": 80,
                "duration": 2.5590909,
                "tempo": 120.0
            },
            {
                "start_time": 62.2272727,
                "end_time": 62.7090909,
                "pitch": 71,
                "velocity": 80,
                "duration": 0.4818182,
                "tempo": 120.0
            },
            {
                "start_time": 62.7090909,
                "end_time": 63.1909091,
                "pitch": 59,
                "velocity": 80,
                "duration": 0.4818182,
                "tempo": 120.0
            },
            {
                "start_time": 61.9045455,
                "end_time": 63.1909091,
                "pitch": 67,
                "velocity": 80,
                "duration": 1.2863636,
                "tempo": 120.0
            },
            {
                "start_time": 63.1909091,
                "end_time": 63.8272727,
                "pitch": 66,
                "velocity": 80,
                "duration": 0.6363636,
                "tempo": 120.0
            },
            {
                "start_time": 63.8272727,
                "end_time": 64.4659091,
                "pitch": 59,
                "velocity": 80,
                "duration": 0.6386364,
                "tempo": 120.0
            },
            {
                "start_time": 63.1909091,
                "end_time": 64.4659091,
                "pitch": 67,
                "velocity": 80,
                "duration": 1.275,
                "tempo": 120.0
            },
            {
                "start_time": 63.8272727,
                "end_time": 64.7863636,
                "pitch": 44,
                "velocity": 80,
                "duration": 0.9590909,
                "tempo": 120.0
            },
            {
                "start_time": 64.4659091,
                "end_time": 64.7863636,
                "pitch": 66,
                "velocity": 80,
                "duration": 0.3204545,
                "tempo": 120.0
            },
            {
                "start_time": 64.7863636,
                "end_time": 65.2681818,
                "pitch": 71,
                "velocity": 80,
                "duration": 0.4818182,
                "tempo": 120.0
            },
            {
                "start_time": 65.2681818,
                "end_time": 65.7522727,
                "pitch": 59,
                "velocity": 80,
                "duration": 0.4840909,
                "tempo": 120.0
            },
            {
                "start_time": 64.7863636,
                "end_time": 66.3954545,
                "pitch": 44,
                "velocity": 80,
                "duration": 1.6090909,
                "tempo": 120.0
            },
            {
                "start_time": 65.7522727,
                "end_time": 66.3954545,
                "pitch": 66,
                "velocity": 80,
                "duration": 0.6431818,
                "tempo": 120.0
            },
            {
                "start_time": 66.3954545,
                "end_time": 67.0363636,
                "pitch": 59,
                "velocity": 80,
                "duration": 0.6409091,
                "tempo": 120.0
            },
            {
                "start_time": 64.4659091,
                "end_time": 67.0363636,
                "pitch": 67,
                "velocity": 80,
                "duration": 2.5704545,
                "tempo": 120.0
            },
            {
                "start_time": 66.3954545,
                "end_time": 67.3590909,
                "pitch": 44,
                "velocity": 80,
                "duration": 0.9636364,
                "tempo": 120.0
            },
            {
                "start_time": 67.0363636,
                "end_time": 67.3590909,
                "pitch": 66,
                "velocity": 80,
                "duration": 0.3227273,
                "tempo": 120.0
            },
            {
                "start_time": 67.3590909,
                "end_time": 67.8409091,
                "pitch": 71,
                "velocity": 80,
                "duration": 0.4818182,
                "tempo": 120.0
            },
            {
                "start_time": 67.8409091,
                "end_time": 68.3181818,
                "pitch": 59,
                "velocity": 80,
                "duration": 0.4772727,
                "tempo": 120.0
            },
            {
                "start_time": 67.0363636,
                "end_time": 68.3181818,
                "pitch": 67,
                "velocity": 80,
                "duration": 1.2818182,
                "tempo": 120.0
            },
            {
                "start_time": 67.3590909,
                "end_time": 68.9545455,
                "pitch": 44,
                "velocity": 80,
                "duration": 1.5954545,
                "tempo": 120.0
            },
            {
                "start_time": 68.3181818,
                "end_time": 68.9545455,
                "pitch": 66,
                "velocity": 80,
                "duration": 0.6363636,
                "tempo": 120.0
            },
            {
                "start_time": 68.9545455,
                "end_time": 69.5977273,
                "pitch": 59,
                "velocity": 80,
                "duration": 0.6431818,
                "tempo": 120.0
            },
            {
                "start_time": 68.3181818,
                "end_time": 69.5977273,
                "pitch": 67,
                "velocity": 80,
                "duration": 1.2795455,
                "tempo": 120.0
            },
            {
                "start_time": 68.9545455,
                "end_time": 69.9181818,
                "pitch": 44,
                "velocity": 80,
                "duration": 0.9636364,
                "tempo": 120.0
            },
            {
                "start_time": 69.5977273,
                "end_time": 69.9181818,
                "pitch": 66,
                "velocity": 80,
                "duration": 0.3204545,
                "tempo": 120.0
            },
            {
                "start_time": 69.9181818,
                "end_time": 70.4,
                "pitch": 71,
                "velocity": 80,
                "duration": 0.4818182,
                "tempo": 120.0
            },
            {
                "start_time": 70.4,
                "end_time": 70.8772727,
                "pitch": 59,
                "velocity": 80,
                "duration": 0.4772727,
                "tempo": 120.0
            },
            {
                "start_time": 69.5977273,
                "end_time": 70.8772727,
                "pitch": 67,
                "velocity": 80,
                "duration": 1.2795455,
                "tempo": 120.0
            },
            {
                "start_time": 69.9181818,
                "end_time": 71.5136364,
                "pitch": 44,
                "velocity": 80,
                "duration": 1.5954545,
                "tempo": 120.0
            },
            {
                "start_time": 70.8772727,
                "end_time": 71.5136364,
                "pitch": 66,
                "velocity": 80,
                "duration": 0.6363636,
                "tempo": 120.0
            },
            {
                "start_time": 71.5136364,
                "end_time": 72.1568182,
                "pitch": 59,
                "velocity": 80,
                "duration": 0.6431818,
                "tempo": 120.0
            },
            {
                "start_time": 70.8772727,
                "end_time": 72.1568182,
                "pitch": 67,
                "velocity": 80,
                "duration": 1.2795455,
                "tempo": 120.0
            },
            {
                "start_time": 71.5136364,
                "end_time": 72.4772727,
                "pitch": 44,
                "velocity": 80,
                "duration": 0.9636364,
                "tempo": 120.0
            },
            {
                "start_time": 72.1568182,
                "end_time": 72.4772727,
                "pitch": 66,
                "velocity": 80,
                "duration": 0.3204545,
                "tempo": 120.0
            },
            {
                "start_time": 72.4772727,
                "end_time": 72.9590909,
                "pitch": 71,
                "velocity": 80,
                "duration": 0.4818182,
                "tempo": 120.0
            },
            {
                "start_time": 72.9590909,
                "end_time": 73.4363636,
                "pitch": 59,
                "velocity": 80,
                "duration": 0.4772727,
                "tempo": 120.0
            },
            {
                "start_time": 72.1568182,
                "end_time": 73.4363636,
                "pitch": 67,
                "velocity": 80,
                "duration": 1.2795455,
                "tempo": 120.0
            },
            {
                "start_time": 72.4772727,
                "end_time": 74.0727273,
                "pitch": 44,
                "velocity": 80,
                "duration": 1.5954545,
                "tempo": 120.0
            },
            {
                "start_time": 73.4363636,
                "end_time": 74.0727273,
                "pitch": 66,
                "velocity": 80,
                "duration": 0.6363636,
                "tempo": 120.0
            },
            {
                "start_time": 74.0727273,
                "end_time": 74.7159091,
                "pitch": 59,
                "velocity": 80,
                "duration": 0.6431818,
                "tempo": 120.0
            },
            {
                "start_time": 73.4363636,
                "end_time": 74.7159091,
                "pitch": 67,
                "velocity": 80,
                "duration": 1.2795455,
                "tempo": 120.0
            },
            {
                "start_time": 74.0727273,
                "end_time": 75.0363636,
                "pitch": 44,
                "velocity": 80,
                "duration": 0.9636364,
                "tempo": 120.0
            },
            {
                "start_time": 74.7159091,
                "end_time": 75.0363636,
                "pitch": 66,
                "velocity": 80,
                "duration": 0.3204545,
                "tempo": 120.0
            },
            {
                "start_time": 75.0363636,
                "end_time": 75.5181818,
                "pitch": 71,
                "velocity": 80,
                "duration": 0.4818182,
                "tempo": 120.0
            },
            {
                "start_time": 75.5181818,
                "end_time": 76.0022727,
                "pitch": 59,
                "velocity": 80,
                "duration": 0.4840909,
                "tempo": 120.0
            },
            {
                "start_time": 76.0022727,
                "end_time": 76.6386364,
                "pitch": 66,
                "velocity": 80,
                "duration": 0.6363636,
                "tempo": 120.0
            },
            {
                "start_time": 76.6386364,
                "end_time": 77.275,
                "pitch": 59,
                "velocity": 80,
                "duration": 0.6363636,
                "tempo": 120.0
            },
            {
                "start_time": 74.7159091,
                "end_time": 77.275,
                "pitch": 67,
                "velocity": 80,
                "duration": 2.5590909,
                "tempo": 120.0
            },
            {
                "start_time": 75.0363636,
                "end_time": 77.5954545,
                "pitch": 44,
                "velocity": 80,
                "duration": 2.5590909,
                "tempo": 120.0
            },
            {
                "start_time": 77.275,
                "end_time": 77.5954545,
                "pitch": 66,
                "velocity": 80,
                "duration": 0.3204545,
                "tempo": 120.0
            },
            {
                "start_time": 77.5954545,
                "end_time": 78.0795455,
                "pitch": 71,
                "velocity": 80,
                "duration": 0.4840909,
                "tempo": 120.0
            },
            {
                "start_time": 78.0795455,
                "end_time": 78.5613636,
                "pitch": 59,
                "velocity": 80,
                "duration": 0.4818182,
                "tempo": 120.0
            },
            {
                "start_time": 77.275,
                "end_time": 78.5613636,
                "pitch": 67,
                "velocity": 80,
                "duration": 1.2863636,
                "tempo": 120.0
            },
            {
                "start_time": 77.5954545,
                "end_time": 79.2045455,
                "pitch": 44,
                "velocity": 80,
                "duration": 1.6090909,
                "tempo": 120.0
            },
            {
                "start_time": 78.5613636,
                "end_time": 79.2045455,
                "pitch": 66,
                "velocity": 80,
                "duration": 0.6431818,
                "tempo": 120.0
            },
            {
                "start_time": 79.2045455,
                "end_time": 79.8477273,
                "pitch": 59,
                "velocity": 80,
                "duration": 0.6431818,
                "tempo": 120.0
            },
            {
                "start_time": 78.5613636,
                "end_time": 79.8477273,
                "pitch": 67,
                "velocity": 80,
                "duration": 1.2863636,
                "tempo": 120.0
            },
            {
                "start_time": 79.8477273,
                "end_time": 80.1681818,
                "pitch": 66,
                "velocity": 80,
                "duration": 0.3204545,
                "tempo": 120.0
            },
            {
                "start_time": 79.2045455,
                "end_time": 80.1704545,
                "pitch": 44,
                "velocity": 80,
                "duration": 0.9659091,
                "tempo": 120.0
            },
            {
                "start_time": 80.1681818,
                "end_time": 80.1704545,
                "pitch": 44,
                "velocity": 80,
                "duration": 0.0022727,
                "tempo": 120.0
            },
            {
                "start_time": 80.1704545,
                "end_time": 80.6522727,
                "pitch": 71,
                "velocity": 80,
                "duration": 0.4818182,
                "tempo": 120.0
            },
            {
                "start_time": 80.6522727,
                "end_time": 81.1272727,
                "pitch": 59,
                "velocity": 80,
                "duration": 0.475,
                "tempo": 120.0
            },
            {
                "start_time": 79.8477273,
                "end_time": 81.1272727,
                "pitch": 67,
                "velocity": 80,
                "duration": 1.2795455,
                "tempo": 120.0
            },
            {
                "start_time": 81.1272727,
                "end_time": 81.7636364,
                "pitch": 66,
                "velocity": 80,
                "duration": 0.6363636,
                "tempo": 120.0
            },
            {
                "start_time": 81.7636364,
                "end_time": 82.4068182,
                "pitch": 59,
                "velocity": 80,
                "duration": 0.6431818,
                "tempo": 120.0
            },
            {
                "start_time": 82.4068182,
                "end_time": 82.7295455,
                "pitch": 62,
                "velocity": 80,
                "duration": 0.3227273,
                "tempo": 120.0
            },
            {
                "start_time": 81.1272727,
                "end_time": 83.2113636,
                "pitch": 67,
                "velocity": 80,
                "duration": 2.0840909,
                "tempo": 120.0
            },
            {
                "start_time": 82.7295455,
                "end_time": 83.2113636,
                "pitch": 67,
                "velocity": 80,
                "duration": 0.4818182,
                "tempo": 120.0
            },
            {
                "start_time": 83.2113636,
                "end_time": 83.6863636,
                "pitch": 59,
                "velocity": 80,
                "duration": 0.475,
                "tempo": 120.0
            },
            {
                "start_time": 53.5840909,
                "end_time": 83.6863636,
                "pitch": 65,
                "velocity": 80,
                "duration": 30.1022727,
                "tempo": 120.0
            },
            {
                "start_time": 83.6863636,
                "end_time": 84.3227273,
                "pitch": 62,
                "velocity": 80,
                "duration": 0.6363636,
                "tempo": 120.0
            },
            {
                "start_time": 84.3227273,
                "end_time": 84.9659091,
                "pitch": 55,
                "velocity": 80,
                "duration": 0.6431818,
                "tempo": 120.0
            },
            {
                "start_time": 84.9659091,
                "end_time": 85.2886364,
                "pitch": 61,
                "velocity": 80,
                "duration": 0.3227273,
                "tempo": 120.0
            },
            {
                "start_time": 85.2886364,
                "end_time": 85.7704545,
                "pitch": 69,
                "velocity": 80,
                "duration": 0.4818182,
                "tempo": 120.0
            },
            {
                "start_time": 85.7704545,
                "end_time": 86.2522727,
                "pitch": 57,
                "velocity": 80,
                "duration": 0.4818182,
                "tempo": 120.0
            },
            {
                "start_time": 84.9659091,
                "end_time": 86.8886364,
                "pitch": 64,
                "velocity": 80,
                "duration": 1.9227273,
                "tempo": 120.0
            },
            {
                "start_time": 86.2522727,
                "end_time": 86.8886364,
                "pitch": 64,
                "velocity": 80,
                "duration": 0.6363636,
                "tempo": 120.0
            },
            {
                "start_time": 86.8886364,
                "end_time": 87.525,
                "pitch": 64,
                "velocity": 80,
                "duration": 0.6363636,
                "tempo": 120.0
            },
            {
                "start_time": 86.2522727,
                "end_time": 87.525,
                "pitch": 66,
                "velocity": 80,
                "duration": 1.2727273,
                "tempo": 120.0
            },
            {
                "start_time": 81.7636364,
                "end_time": 87.8477273,
                "pitch": 44,
                "velocity": 80,
                "duration": 6.0840909,
                "tempo": 120.0
            },
            {
                "start_time": 87.525,
                "end_time": 87.8477273,
                "pitch": 66,
                "velocity": 80,
                "duration": 0.3227273,
                "tempo": 120.0
            },
            {
                "start_time": 87.525,
                "end_time": 87.8477273,
                "pitch": 66,
                "velocity": 80,
                "duration": 0.3227273,
                "tempo": 120.0
            },
            {
                "start_time": 83.2113636,
                "end_time": 88.3295455,
                "pitch": 71,
                "velocity": 80,
                "duration": 5.1181818,
                "tempo": 120.0
            },
            {
                "start_time": 87.8477273,
                "end_time": 88.3295455,
                "pitch": 71,
                "velocity": 80,
                "duration": 0.4818182,
                "tempo": 120.0
            },
            {
                "start_time": 88.3295455,
                "end_time": 88.8113636,
                "pitch": 59,
                "velocity": 80,
                "duration": 0.4818182,
                "tempo": 120.0
            },
            {
                "start_time": 87.8477273,
                "end_time": 89.4477273,
                "pitch": 44,
                "velocity": 80,
                "duration": 1.6,
                "tempo": 120.0
            },
            {
                "start_time": 88.8113636,
                "end_time": 89.4477273,
                "pitch": 66,
                "velocity": 80,
                "duration": 0.6363636,
                "tempo": 120.0
            },
            {
                "start_time": 89.4477273,
                "end_time": 90.0840909,
                "pitch": 59,
                "velocity": 80,
                "duration": 0.6363636,
                "tempo": 120.0
            },
            {
                "start_time": 90.0840909,
                "end_time": 90.4068182,
                "pitch": 66,
                "velocity": 80,
                "duration": 0.3227273,
                "tempo": 120.0
            },
            {
                "start_time": 90.4068182,
                "end_time": 90.8886364,
                "pitch": 71,
                "velocity": 80,
                "duration": 0.4818182,
                "tempo": 120.0
            },
            {
                "start_time": 90.8886364,
                "end_time": 91.3704545,
                "pitch": 59,
                "velocity": 80,
                "duration": 0.4818182,
                "tempo": 120.0
            },
            {
                "start_time": 88.8113636,
                "end_time": 91.3704545,
                "pitch": 67,
                "velocity": 80,
                "duration": 2.5590909,
                "tempo": 120.0
            },
            {
                "start_time": 89.4477273,
                "end_time": 92.0136364,
                "pitch": 44,
                "velocity": 80,
                "duration": 2.5659091,
                "tempo": 120.0
            },
            {
                "start_time": 91.3704545,
                "end_time": 92.0136364,
                "pitch": 66,
                "velocity": 80,
                "duration": 0.6431818,
                "tempo": 120.0
            },
            {
                "start_time": 92.0136364,
                "end_time": 92.6568182,
                "pitch": 59,
                "velocity": 80,
                "duration": 0.6431818,
                "tempo": 120.0
            },
            {
                "start_time": 92.6568182,
                "end_time": 92.9795455,
                "pitch": 62,
                "velocity": 80,
                "duration": 0.3227273,
                "tempo": 120.0
            },
            {
                "start_time": 91.3704545,
                "end_time": 93.45,
                "pitch": 67,
                "velocity": 80,
                "duration": 2.0795455,
                "tempo": 120.0
            },
            {
                "start_time": 92.9795455,
                "end_time": 93.45,
                "pitch": 67,
                "velocity": 80,
                "duration": 0.4704545,
                "tempo": 120.0
            },
            {
                "start_time": 93.45,
                "end_time": 93.9295455,
                "pitch": 59,
                "velocity": 80,
                "duration": 0.4795455,
                "tempo": 120.0
            },
            {
                "start_time": 83.6863636,
                "end_time": 93.9295455,
                "pitch": 65,
                "velocity": 80,
                "duration": 10.2431818,
                "tempo": 120.0
            },
            {
                "start_time": 93.9295455,
                "end_time": 94.5727273,
                "pitch": 62,
                "velocity": 80,
                "duration": 0.6431818,
                "tempo": 120.0
            },
            {
                "start_time": 94.5727273,
                "end_time": 95.2159091,
                "pitch": 55,
                "velocity": 80,
                "duration": 0.6431818,
                "tempo": 120.0
            },
            {
                "start_time": 95.2159091,
                "end_time": 95.5386364,
                "pitch": 64,
                "velocity": 80,
                "duration": 0.3227273,
                "tempo": 120.0
            },
            {
                "start_time": 95.5386364,
                "end_time": 96.0204545,
                "pitch": 69,
                "velocity": 80,
                "duration": 0.4818182,
                "tempo": 120.0
            },
            {
                "start_time": 57.5909091,
                "end_time": 96.0204545,
                "pitch": 76,
                "velocity": 80,
                "duration": 38.4295455,
                "tempo": 120.0
            },
            {
                "start_time": 96.0204545,
                "end_time": 96.4954545,
                "pitch": 61,
                "velocity": 80,
                "duration": 0.475,
                "tempo": 120.0
            },
            {
                "start_time": 52.4613636,
                "end_time": 97.1318182,
                "pitch": 32,
                "velocity": 80,
                "duration": 44.6704545,
                "tempo": 120.0
            },
            {
                "start_time": 96.4954545,
                "end_time": 97.1318182,
                "pitch": 64,
                "velocity": 80,
                "duration": 0.6363636,
                "tempo": 120.0
            },
            {
                "start_time": 96.4954545,
                "end_time": 97.1318182,
                "pitch": 64,
                "velocity": 80,
                "duration": 0.6363636,
                "tempo": 120.0
            },
            {
                "start_time": 97.1318182,
                "end_time": 97.775,
                "pitch": 57,
                "velocity": 80,
                "duration": 0.6431818,
                "tempo": 120.0
            },
            {
                "start_time": 92.0136364,
                "end_time": 98.0977273,
                "pitch": 44,
                "velocity": 80,
                "duration": 6.0840909,
                "tempo": 120.0
            },
            {
                "start_time": 95.2159091,
                "end_time": 98.0977273,
                "pitch": 66,
                "velocity": 80,
                "duration": 2.8818182,
                "tempo": 120.0
            },
            {
                "start_time": 97.775,
                "end_time": 98.0977273,
                "pitch": 66,
                "velocity": 80,
                "duration": 0.3227273,
                "tempo": 120.0
            },
            {
                "start_time": 93.45,
                "end_time": 98.5795455,
                "pitch": 71,
                "velocity": 80,
                "duration": 5.1295455,
                "tempo": 120.0
            },
            {
                "start_time": 98.0977273,
                "end_time": 98.5795455,
                "pitch": 71,
                "velocity": 80,
                "duration": 0.4818182,
                "tempo": 120.0
            },
            {
                "start_time": 98.5795455,
                "end_time": 99.0545455,
                "pitch": 59,
                "velocity": 80,
                "duration": 0.475,
                "tempo": 120.0
            },
            {
                "start_time": 97.775,
                "end_time": 99.0545455,
                "pitch": 67,
                "velocity": 80,
                "duration": 1.2795455,
                "tempo": 120.0
            },
            {
                "start_time": 99.0545455,
                "end_time": 99.6909091,
                "pitch": 66,
                "velocity": 80,
                "duration": 0.6363636,
                "tempo": 120.0
            },
            {
                "start_time": 98.0977273,
                "end_time": 99.6931818,
                "pitch": 44,
                "velocity": 80,
                "duration": 1.5954545,
                "tempo": 120.0
            },
            {
                "start_time": 99.6909091,
                "end_time": 99.6931818,
                "pitch": 44,
                "velocity": 80,
                "duration": 0.0022727,
                "tempo": 120.0
            },
            {
                "start_time": 99.6931818,
                "end_time": 100.3363636,
                "pitch": 59,
                "velocity": 80,
                "duration": 0.6431818,
                "tempo": 120.0
            },
            {
                "start_time": 100.3363636,
                "end_time": 100.6568182,
                "pitch": 66,
                "velocity": 80,
                "duration": 0.3204545,
                "tempo": 120.0
            },
            {
                "start_time": 100.6568182,
                "end_time": 101.1386364,
                "pitch": 71,
                "velocity": 80,
                "duration": 0.4818182,
                "tempo": 120.0
            },
            {
                "start_time": 101.1386364,
                "end_time": 101.6204545,
                "pitch": 62,
                "velocity": 80,
                "duration": 0.4818182,
                "tempo": 120.0
            },
            {
                "start_time": 101.6227273,
                "end_time": 102.1,
                "pitch": 66,
                "velocity": 80,
                "duration": 0.4772727,
                "tempo": 120.0
            }
        ],
        "Vibraphone": [
            {
                "start_time": 102.8931818,
                "end_time": 103.5386364,
                "pitch": 66,
                "velocity": 101,
                "duration": 0.6454545,
                "tempo": 120.0
            },
            {
                "start_time": 103.5386364,
                "end_time": 104.0204545,
                "pitch": 73,
                "velocity": 101,
                "duration": 0.4818182,
                "tempo": 120.0
            },
            {
                "start_time": 104.0204545,
                "end_time": 104.5022727,
                "pitch": 71,
                "velocity": 101,
                "duration": 0.4818182,
                "tempo": 120.0
            },
            {
                "start_time": 104.5022727,
                "end_time": 105.4522727,
                "pitch": 71,
                "velocity": 101,
                "duration": 0.95,
                "tempo": 120.0
            },
            {
                "start_time": 105.4522727,
                "end_time": 106.0977273,
                "pitch": 73,
                "velocity": 101,
                "duration": 0.6454545,
                "tempo": 120.0
            },
            {
                "start_time": 105.4522727,
                "end_time": 106.5795455,
                "pitch": 76,
                "velocity": 101,
                "duration": 1.1272727,
                "tempo": 120.0
            },
            {
                "start_time": 106.0977273,
                "end_time": 106.5795455,
                "pitch": 76,
                "velocity": 101,
                "duration": 0.4818182,
                "tempo": 120.0
            },
            {
                "start_time": 106.5795455,
                "end_time": 107.0613636,
                "pitch": 78,
                "velocity": 101,
                "duration": 0.4818182,
                "tempo": 120.0
            },
            {
                "start_time": 107.0613636,
                "end_time": 108.0272727,
                "pitch": 74,
                "velocity": 101,
                "duration": 0.9659091,
                "tempo": 120.0
            },
            {
                "start_time": 104.0204545,
                "end_time": 108.6704545,
                "pitch": 56,
                "velocity": 101,
                "duration": 4.65,
                "tempo": 120.0
            },
            {
                "start_time": 108.0272727,
                "end_time": 108.6704545,
                "pitch": 76,
                "velocity": 101,
                "duration": 0.6431818,
                "tempo": 120.0
            },
            {
                "start_time": 108.6704545,
                "end_time": 109.1477273,
                "pitch": 71,
                "velocity": 101,
                "duration": 0.4772727,
                "tempo": 120.0
            },
            {
                "start_time": 109.1477273,
                "end_time": 109.6204545,
                "pitch": 71,
                "velocity": 101,
                "duration": 0.4727273,
                "tempo": 120.0
            },
            {
                "start_time": 109.6204545,
                "end_time": 110.5863636,
                "pitch": 74,
                "velocity": 101,
                "duration": 0.9659091,
                "tempo": 120.0
            },
            {
                "start_time": 110.5863636,
                "end_time": 111.0681818,
                "pitch": 78,
                "velocity": 101,
                "duration": 0.4818182,
                "tempo": 120.0
            },
            {
                "start_time": 108.6704545,
                "end_time": 111.3886364,
                "pitch": 56,
                "velocity": 101,
                "duration": 2.7181818,
                "tempo": 120.0
            },
            {
                "start_time": 111.0681818,
                "end_time": 111.3886364,
                "pitch": 76,
                "velocity": 101,
                "duration": 0.3204545,
                "tempo": 120.0
            },
            {
                "start_time": 111.3886364,
                "end_time": 111.8659091,
                "pitch": 83,
                "velocity": 101,
                "duration": 0.4772727,
                "tempo": 120.0
            },
            {
                "start_time": 111.8659091,
                "end_time": 112.5022727,
                "pitch": 78,
                "velocity": 101,
                "duration": 0.6363636,
                "tempo": 120.0
            },
            {
                "start_time": 111.3886364,
                "end_time": 113.1454545,
                "pitch": 56,
                "velocity": 101,
                "duration": 1.7568182,
                "tempo": 120.0
            },
            {
                "start_time": 112.5022727,
                "end_time": 113.1454545,
                "pitch": 74,
                "velocity": 101,
                "duration": 0.6431818,
                "tempo": 120.0
            },
            {
                "start_time": 112.5022727,
                "end_time": 113.1454545,
                "pitch": 74,
                "velocity": 101,
                "duration": 0.6431818,
                "tempo": 120.0
            },
            {
                "start_time": 113.1454545,
                "end_time": 113.7886364,
                "pitch": 71,
                "velocity": 101,
                "duration": 0.6431818,
                "tempo": 120.0
            },
            {
                "start_time": 113.7886364,
                "end_time": 114.2681818,
                "pitch": 62,
                "velocity": 101,
                "duration": 0.4795455,
                "tempo": 120.0
            },
            {
                "start_time": 114.2681818,
                "end_time": 114.7386364,
                "pitch": 67,
                "velocity": 101,
                "duration": 0.4704545,
                "tempo": 120.0
            },
            {
                "start_time": 114.7386364,
                "end_time": 115.7045455,
                "pitch": 71,
                "velocity": 101,
                "duration": 0.9659091,
                "tempo": 120.0
            },
            {
                "start_time": 114.7386364,
                "end_time": 115.7045455,
                "pitch": 71,
                "velocity": 101,
                "duration": 0.9659091,
                "tempo": 120.0
            },
            {
                "start_time": 115.7045455,
                "end_time": 116.3477273,
                "pitch": 73,
                "velocity": 101,
                "duration": 0.6431818,
                "tempo": 120.0
            },
            {
                "start_time": 116.3477273,
                "end_time": 116.8295455,
                "pitch": 64,
                "velocity": 101,
                "duration": 0.4818182,
                "tempo": 120.0
            },
            {
                "start_time": 116.8295455,
                "end_time": 117.3113636,
                "pitch": 71,
                "velocity": 101,
                "duration": 0.4818182,
                "tempo": 120.0
            },
            {
                "start_time": 117.3113636,
                "end_time": 120.8295455,
                "pitch": 74,
                "velocity": 101,
                "duration": 3.5181818,
                "tempo": 120.0
            },
            {
                "start_time": 120.8295455,
                "end_time": 121.3068182,
                "pitch": 78,
                "velocity": 101,
                "duration": 0.4772727,
                "tempo": 120.0
            },
            {
                "start_time": 120.8295455,
                "end_time": 121.3068182,
                "pitch": 78,
                "velocity": 101,
                "duration": 0.4772727,
                "tempo": 120.0
            },
            {
                "start_time": 113.1454545,
                "end_time": 121.6318182,
                "pitch": 56,
                "velocity": 101,
                "duration": 8.4863636,
                "tempo": 120.0
            },
            {
                "start_time": 115.7045455,
                "end_time": 121.6318182,
                "pitch": 76,
                "velocity": 101,
                "duration": 5.9272727,
                "tempo": 120.0
            },
            {
                "start_time": 121.3068182,
                "end_time": 121.6318182,
                "pitch": 76,
                "velocity": 101,
                "duration": 0.325,
                "tempo": 120.0
            },
            {
                "start_time": 121.6318182,
                "end_time": 122.425,
                "pitch": 83,
                "velocity": 101,
                "duration": 0.7931818,
                "tempo": 120.0
            }
        ],
        "Electric Piano 1": [
            {
                "start_time": 0.1,
                "end_time": 2.6681818,
                "pitch": 52,
                "velocity": 64,
                "duration": 2.5681818,
                "tempo": 120.0
            },
            {
                "start_time": 2.6681818,
                "end_time": 5.2272727,
                "pitch": 60,
                "velocity": 64,
                "duration": 2.5590909,
                "tempo": 120.0
            },
            {
                "start_time": 5.2272727,
                "end_time": 7.7863636,
                "pitch": 64,
                "velocity": 64,
                "duration": 2.5590909,
                "tempo": 120.0
            },
            {
                "start_time": 5.2272727,
                "end_time": 7.7863636,
                "pitch": 64,
                "velocity": 64,
                "duration": 2.5590909,
                "tempo": 120.0
            },
            {
                "start_time": 7.7863636,
                "end_time": 10.3454545,
                "pitch": 64,
                "velocity": 64,
                "duration": 2.5590909,
                "tempo": 120.0
            },
            {
                "start_time": 10.3454545,
                "end_time": 10.8272727,
                "pitch": 55,
                "velocity": 64,
                "duration": 0.4818182,
                "tempo": 120.0
            },
            {
                "start_time": 10.8272727,
                "end_time": 10.8477273,
                "pitch": 55,
                "velocity": 64,
                "duration": 0.0204545,
                "tempo": 120.0
            },
            {
                "start_time": 10.8477273,
                "end_time": 11.0272727,
                "pitch": 55,
                "velocity": 64,
                "duration": 0.1795455,
                "tempo": 120.0
            },
            {
                "start_time": 11.0272727,
                "end_time": 11.0477273,
                "pitch": 55,
                "velocity": 64,
                "duration": 0.0204545,
                "tempo": 120.0
            },
            {
                "start_time": 11.0477273,
                "end_time": 11.2295455,
                "pitch": 55,
                "velocity": 64,
                "duration": 0.1818182,
                "tempo": 120.0
            },
            {
                "start_time": 11.2295455,
                "end_time": 11.25,
                "pitch": 55,
                "velocity": 64,
                "duration": 0.0204545,
                "tempo": 120.0
            },
            {
                "start_time": 11.25,
                "end_time": 11.4295455,
                "pitch": 55,
                "velocity": 64,
                "duration": 0.1795455,
                "tempo": 120.0
            },
            {
                "start_time": 11.4295455,
                "end_time": 11.45,
                "pitch": 55,
                "velocity": 64,
                "duration": 0.0204545,
                "tempo": 120.0
            },
            {
                "start_time": 11.45,
                "end_time": 11.6318182,
                "pitch": 55,
                "velocity": 64,
                "duration": 0.1818182,
                "tempo": 120.0
            },
            {
                "start_time": 11.6318182,
                "end_time": 11.65,
                "pitch": 55,
                "velocity": 64,
                "duration": 0.0181818,
                "tempo": 120.0
            },
            {
                "start_time": 11.65,
                "end_time": 11.8318182,
                "pitch": 55,
                "velocity": 64,
                "duration": 0.1818182,
                "tempo": 120.0
            },
            {
                "start_time": 11.45,
                "end_time": 11.8522727,
                "pitch": 0,
                "velocity": 64,
                "duration": 0.4022727,
                "tempo": 120.0
            },
            {
                "start_time": 11.8318182,
                "end_time": 11.8522727,
                "pitch": 55,
                "velocity": 64,
                "duration": 0.0204545,
                "tempo": 120.0
            },
            {
                "start_time": 11.8522727,
                "end_time": 12.0318182,
                "pitch": 55,
                "velocity": 64,
                "duration": 0.1795455,
                "tempo": 120.0
            },
            {
                "start_time": 11.8522727,
                "end_time": 12.0522727,
                "pitch": 0,
                "velocity": 64,
                "duration": 0.2,
                "tempo": 120.0
            },
            {
                "start_time": 12.0318182,
                "end_time": 12.0522727,
                "pitch": 55,
                "velocity": 64,
                "duration": 0.0204545,
                "tempo": 120.0
            },
            {
                "start_time": 12.0522727,
                "end_time": 12.2340909,
                "pitch": 55,
                "velocity": 64,
                "duration": 0.1818182,
                "tempo": 120.0
            },
            {
                "start_time": 12.0522727,
                "end_time": 12.2545455,
                "pitch": 0,
                "velocity": 64,
                "duration": 0.2022727,
                "tempo": 120.0
            },
            {
                "start_time": 12.2340909,
                "end_time": 12.2545455,
                "pitch": 55,
                "velocity": 64,
                "duration": 0.0204545,
                "tempo": 120.0
            },
            {
                "start_time": 12.2545455,
                "end_time": 12.4340909,
                "pitch": 55,
                "velocity": 64,
                "duration": 0.1795455,
                "tempo": 120.0
            },
            {
                "start_time": 12.2545455,
                "end_time": 12.4545455,
                "pitch": 0,
                "velocity": 64,
                "duration": 0.2,
                "tempo": 120.0
            },
            {
                "start_time": 12.4340909,
                "end_time": 12.4545455,
                "pitch": 55,
                "velocity": 64,
                "duration": 0.0204545,
                "tempo": 120.0
            },
            {
                "start_time": 12.4545455,
                "end_time": 12.6363636,
                "pitch": 55,
                "velocity": 64,
                "duration": 0.1818182,
                "tempo": 120.0
            },
            {
                "start_time": 12.4340909,
                "end_time": 12.6363636,
                "pitch": 67,
                "velocity": 64,
                "duration": 0.2022727,
                "tempo": 120.0
            },
            {
                "start_time": 12.4545455,
                "end_time": 12.6568182,
                "pitch": 0,
                "velocity": 64,
                "duration": 0.2022727,
                "tempo": 120.0
            },
            {
                "start_time": 12.6363636,
                "end_time": 12.6568182,
                "pitch": 55,
                "velocity": 64,
                "duration": 0.0204545,
                "tempo": 120.0
            },
            {
                "start_time": 12.6568182,
                "end_time": 12.8363636,
                "pitch": 55,
                "velocity": 64,
                "duration": 0.1795455,
                "tempo": 120.0
            },
            {
                "start_time": 12.6363636,
                "end_time": 12.8363636,
                "pitch": 67,
                "velocity": 64,
                "duration": 0.2,
                "tempo": 120.0
            },
            {
                "start_time": 12.6568182,
                "end_time": 12.8568182,
                "pitch": 0,
                "velocity": 64,
                "duration": 0.2,
                "tempo": 120.0
            },
            {
                "start_time": 12.8363636,
                "end_time": 12.8568182,
                "pitch": 55,
                "velocity": 64,
                "duration": 0.0204545,
                "tempo": 120.0
            },
            {
                "start_time": 12.8568182,
                "end_time": 12.9181818,
                "pitch": 55,
                "velocity": 64,
                "duration": 0.0613636,
                "tempo": 120.0
            },
            {
                "start_time": 12.9181818,
                "end_time": 15.4772727,
                "pitch": 62,
                "velocity": 64,
                "duration": 2.5590909,
                "tempo": 120.0
            },
            {
                "start_time": 15.4772727,
                "end_time": 20.2818182,
                "pitch": 60,
                "velocity": 64,
                "duration": 4.8045455,
                "tempo": 120.0
            },
            {
                "start_time": 15.4772727,
                "end_time": 20.2818182,
                "pitch": 60,
                "velocity": 64,
                "duration": 4.8045455,
                "tempo": 120.0
            },
            {
                "start_time": 20.7568182,
                "end_time": 21.4,
                "pitch": 57,
                "velocity": 64,
                "duration": 0.6431818,
                "tempo": 120.0
            },
            {
                "start_time": 21.4,
                "end_time": 21.7204545,
                "pitch": 52,
                "velocity": 64,
                "duration": 0.3204545,
                "tempo": 120.0
            },
            {
                "start_time": 21.7204545,
                "end_time": 22.3636364,
                "pitch": 59,
                "velocity": 64,
                "duration": 0.6431818,
                "tempo": 120.0
            },
            {
                "start_time": 22.3636364,
                "end_time": 22.6818182,
                "pitch": 57,
                "velocity": 64,
                "duration": 0.3181818,
                "tempo": 120.0
            },
            {
                "start_time": 22.3636364,
                "end_time": 22.6818182,
                "pitch": 57,
                "velocity": 64,
                "duration": 0.3181818,
                "tempo": 120.0
            },
            {
                "start_time": 22.6818182,
                "end_time": 22.9977273,
                "pitch": 55,
                "velocity": 64,
                "duration": 0.3159091,
                "tempo": 120.0
            },
            {
                "start_time": 22.9977273,
                "end_time": 25.5659091,
                "pitch": 60,
                "velocity": 64,
                "duration": 2.5681818,
                "tempo": 120.0
            },
            {
                "start_time": 25.5659091,
                "end_time": 25.8886364,
                "pitch": 60,
                "velocity": 64,
                "duration": 0.3227273,
                "tempo": 120.0
            },
            {
                "start_time": 25.8886364,
                "end_time": 26.5272727,
                "pitch": 59,
                "velocity": 64,
                "duration": 0.6386364,
                "tempo": 120.0
            },
            {
                "start_time": 26.5272727,
                "end_time": 26.8431818,
                "pitch": 57,
                "velocity": 64,
                "duration": 0.3159091,
                "tempo": 120.0
            },
            {
                "start_time": 26.5272727,
                "end_time": 26.8431818,
                "pitch": 57,
                "velocity": 64,
                "duration": 0.3159091,
                "tempo": 120.0
            },
            {
                "start_time": 26.8431818,
                "end_time": 27.8045455,
                "pitch": 59,
                "velocity": 64,
                "duration": 0.9613636,
                "tempo": 120.0
            },
            {
                "start_time": 26.8431818,
                "end_time": 27.8045455,
                "pitch": 59,
                "velocity": 64,
                "duration": 0.9613636,
                "tempo": 120.0
            },
            {
                "start_time": 22.9977273,
                "end_time": 27.8045455,
                "pitch": 64,
                "velocity": 64,
                "duration": 4.8068182,
                "tempo": 120.0
            },
            {
                "start_time": 27.8045455,
                "end_time": 28.4477273,
                "pitch": 60,
                "velocity": 64,
                "duration": 0.6431818,
                "tempo": 120.0
            },
            {
                "start_time": 28.4477273,
                "end_time": 31.0068182,
                "pitch": 52,
                "velocity": 64,
                "duration": 2.5590909,
                "tempo": 120.0
            },
            {
                "start_time": 31.0068182,
                "end_time": 31.9704545,
                "pitch": 55,
                "velocity": 64,
                "duration": 0.9636364,
                "tempo": 120.0
            },
            {
                "start_time": 31.9704545,
                "end_time": 32.9227273,
                "pitch": 57,
                "velocity": 64,
                "duration": 0.9522727,
                "tempo": 120.0
            },
            {
                "start_time": 25.8886364,
                "end_time": 33.5659091,
                "pitch": 45,
                "velocity": 64,
                "duration": 7.6772727,
                "tempo": 120.0
            },
            {
                "start_time": 32.9227273,
                "end_time": 33.5659091,
                "pitch": 60,
                "velocity": 64,
                "duration": 0.6431818,
                "tempo": 120.0
            },
            {
                "start_time": 33.5659091,
                "end_time": 34.5295455,
                "pitch": 59,
                "velocity": 64,
                "duration": 0.9636364,
                "tempo": 120.0
            },
            {
                "start_time": 27.8045455,
                "end_time": 34.5318182,
                "pitch": 64,
                "velocity": 64,
                "duration": 6.7272727,
                "tempo": 120.0
            },
            {
                "start_time": 34.5295455,
                "end_time": 34.5318182,
                "pitch": 64,
                "velocity": 64,
                "duration": 0.0022727,
                "tempo": 120.0
            },
            {
                "start_time": 34.5318182,
                "end_time": 35.4909091,
                "pitch": 60,
                "velocity": 64,
                "duration": 0.9590909,
                "tempo": 120.0
            },
            {
                "start_time": 35.4909091,
                "end_time": 36.125,
                "pitch": 62,
                "velocity": 64,
                "duration": 0.6340909,
                "tempo": 120.0
            },
            {
                "start_time": 36.125,
                "end_time": 40.6136364,
                "pitch": 64,
                "velocity": 64,
                "duration": 4.4886364,
                "tempo": 120.0
            },
            {
                "start_time": 40.6136364,
                "end_time": 41.2568182,
                "pitch": 62,
                "velocity": 64,
                "duration": 0.6431818,
                "tempo": 120.0
            },
            {
                "start_time": 41.2568182,
                "end_time": 42.2227273,
                "pitch": 60,
                "velocity": 64,
                "duration": 0.9659091,
                "tempo": 120.0
            },
            {
                "start_time": 42.2227273,
                "end_time": 42.3818182,
                "pitch": 60,
                "velocity": 64,
                "duration": 0.1590909,
                "tempo": 120.0
            },
            {
                "start_time": 42.3818182,
                "end_time": 42.5409091,
                "pitch": 59,
                "velocity": 64,
                "duration": 0.1590909,
                "tempo": 120.0
            },
            {
                "start_time": 42.5409091,
                "end_time": 43.1727273,
                "pitch": 57,
                "velocity": 64,
                "duration": 0.6318182,
                "tempo": 120.0
            },
            {
                "start_time": 42.5409091,
                "end_time": 43.1727273,
                "pitch": 57,
                "velocity": 64,
                "duration": 0.6318182,
                "tempo": 120.0
            },
            {
                "start_time": 43.1727273,
                "end_time": 43.4954545,
                "pitch": 59,
                "velocity": 64,
                "duration": 0.3227273,
                "tempo": 120.0
            },
            {
                "start_time": 43.4954545,
                "end_time": 43.8159091,
                "pitch": 60,
                "velocity": 64,
                "duration": 0.3204545,
                "tempo": 120.0
            },
            {
                "start_time": 43.8159091,
                "end_time": 44.7818182,
                "pitch": 62,
                "velocity": 64,
                "duration": 0.9659091,
                "tempo": 120.0
            },
            {
                "start_time": 44.7818182,
                "end_time": 44.9409091,
                "pitch": 62,
                "velocity": 64,
                "duration": 0.1590909,
                "tempo": 120.0
            },
            {
                "start_time": 44.9409091,
                "end_time": 45.1,
                "pitch": 60,
                "velocity": 64,
                "duration": 0.1590909,
                "tempo": 120.0
            },
            {
                "start_time": 45.1,
                "end_time": 45.7318182,
                "pitch": 59,
                "velocity": 64,
                "duration": 0.6318182,
                "tempo": 120.0
            },
            {
                "start_time": 43.4954545,
                "end_time": 45.7318182,
                "pitch": 64,
                "velocity": 64,
                "duration": 2.2363636,
                "tempo": 120.0
            },
            {
                "start_time": 45.7318182,
                "end_time": 46.0545455,
                "pitch": 60,
                "velocity": 64,
                "duration": 0.3227273,
                "tempo": 120.0
            },
            {
                "start_time": 46.0545455,
                "end_time": 46.375,
                "pitch": 62,
                "velocity": 64,
                "duration": 0.3204545,
                "tempo": 120.0
            },
            {
                "start_time": 46.375,
                "end_time": 48.4590909,
                "pitch": 62,
                "velocity": 64,
                "duration": 2.0840909,
                "tempo": 120.0
            },
            {
                "start_time": 48.4590909,
                "end_time": 48.6159091,
                "pitch": 62,
                "velocity": 64,
                "duration": 0.1568182,
                "tempo": 120.0
            },
            {
                "start_time": 33.5659091,
                "end_time": 48.775,
                "pitch": 45,
                "velocity": 64,
                "duration": 15.2090909,
                "tempo": 120.0
            },
            {
                "start_time": 48.6159091,
                "end_time": 48.775,
                "pitch": 60,
                "velocity": 64,
                "duration": 0.1590909,
                "tempo": 120.0
            },
            {
                "start_time": 48.775,
                "end_time": 48.9340909,
                "pitch": 59,
                "velocity": 64,
                "duration": 0.1590909,
                "tempo": 120.0
            },
            {
                "start_time": 45.7318182,
                "end_time": 48.9340909,
                "pitch": 64,
                "velocity": 64,
                "duration": 3.2022727,
                "tempo": 120.0
            },
            {
                "start_time": 48.9340909,
                "end_time": 49.5772727,
                "pitch": 60,
                "velocity": 64,
                "duration": 0.6431818,
                "tempo": 120.0
            },
            {
                "start_time": 49.5772727,
                "end_time": 50.2204545,
                "pitch": 57,
                "velocity": 64,
                "duration": 0.6431818,
                "tempo": 120.0
            },
            {
                "start_time": 50.2204545,
                "end_time": 50.8636364,
                "pitch": 59,
                "velocity": 64,
                "duration": 0.6431818,
                "tempo": 120.0
            },
            {
                "start_time": 50.2204545,
                "end_time": 50.8636364,
                "pitch": 59,
                "velocity": 64,
                "duration": 0.6431818,
                "tempo": 120.0
            },
            {
                "start_time": 50.8636364,
                "end_time": 51.5068182,
                "pitch": 57,
                "velocity": 64,
                "duration": 0.6431818,
                "tempo": 120.0
            },
            {
                "start_time": 48.9340909,
                "end_time": 51.5068182,
                "pitch": 64,
                "velocity": 64,
                "duration": 2.5727273,
                "tempo": 120.0
            },
            {
                "start_time": 51.5068182,
                "end_time": 52.4636364,
                "pitch": 60,
                "velocity": 64,
                "duration": 0.9568182,
                "tempo": 120.0
            },
            {
                "start_time": 48.775,
                "end_time": 52.6204545,
                "pitch": 45,
                "velocity": 64,
                "duration": 3.8454545,
                "tempo": 120.0
            },
            {
                "start_time": 52.4636364,
                "end_time": 52.6204545,
                "pitch": 60,
                "velocity": 64,
                "duration": 0.1568182,
                "tempo": 120.0
            },
            {
                "start_time": 52.6204545,
                "end_time": 52.7795455,
                "pitch": 59,
                "velocity": 64,
                "duration": 0.1590909,
                "tempo": 120.0
            },
            {
                "start_time": 52.7795455,
                "end_time": 53.4227273,
                "pitch": 57,
                "velocity": 64,
                "duration": 0.6431818,
                "tempo": 120.0
            },
            {
                "start_time": 52.7795455,
                "end_time": 53.4227273,
                "pitch": 57,
                "velocity": 64,
                "duration": 0.6431818,
                "tempo": 120.0
            },
            {
                "start_time": 53.4227273,
                "end_time": 53.7454545,
                "pitch": 59,
                "velocity": 64,
                "duration": 0.3227273,
                "tempo": 120.0
            },
            {
                "start_time": 53.4227273,
                "end_time": 53.7454545,
                "pitch": 59,
                "velocity": 64,
                "duration": 0.3227273,
                "tempo": 120.0
            },
            {
                "start_time": 51.5068182,
                "end_time": 53.7454545,
                "pitch": 64,
                "velocity": 64,
                "duration": 2.2386364,
                "tempo": 120.0
            },
            {
                "start_time": 52.6204545,
                "end_time": 54.0659091,
                "pitch": 45,
                "velocity": 64,
                "duration": 1.4454545,
                "tempo": 120.0
            },
            {
                "start_time": 53.7454545,
                "end_time": 54.0659091,
                "pitch": 60,
                "velocity": 64,
                "duration": 0.3204545,
                "tempo": 120.0
            },
            {
                "start_time": 54.0659091,
                "end_time": 55.0318182,
                "pitch": 59,
                "velocity": 64,
                "duration": 0.9659091,
                "tempo": 120.0
            },
            {
                "start_time": 55.0318182,
                "end_time": 55.35,
                "pitch": 57,
                "velocity": 64,
                "duration": 0.3181818,
                "tempo": 120.0
            },
            {
                "start_time": 55.0318182,
                "end_time": 55.35,
                "pitch": 57,
                "velocity": 64,
                "duration": 0.3181818,
                "tempo": 120.0
            },
            {
                "start_time": 55.35,
                "end_time": 55.9818182,
                "pitch": 55,
                "velocity": 64,
                "duration": 0.6318182,
                "tempo": 120.0
            },
            {
                "start_time": 55.9818182,
                "end_time": 56.625,
                "pitch": 50,
                "velocity": 64,
                "duration": 0.6431818,
                "tempo": 120.0
            },
            {
                "start_time": 56.6272727,
                "end_time": 58.7022727,
                "pitch": 52,
                "velocity": 64,
                "duration": 2.075,
                "tempo": 120.0
            },
            {
                "start_time": 58.7045455,
                "end_time": 58.8636364,
                "pitch": 59,
                "velocity": 64,
                "duration": 0.1590909,
                "tempo": 120.0
            },
            {
                "start_time": 53.7454545,
                "end_time": 58.8636364,
                "pitch": 64,
                "velocity": 64,
                "duration": 5.1181818,
                "tempo": 120.0
            },
            {
                "start_time": 58.8636364,
                "end_time": 59.025,
                "pitch": 60,
                "velocity": 64,
                "duration": 0.1613636,
                "tempo": 120.0
            },
            {
                "start_time": 59.025,
                "end_time": 59.1863636,
                "pitch": 62,
                "velocity": 64,
                "duration": 0.1613636,
                "tempo": 120.0
            },
            {
                "start_time": 59.1863636,
                "end_time": 59.8295455,
                "pitch": 68,
                "velocity": 64,
                "duration": 0.6431818,
                "tempo": 120.0
            },
            {
                "start_time": 58.8636364,
                "end_time": 60.4727273,
                "pitch": 64,
                "velocity": 64,
                "duration": 1.6090909,
                "tempo": 120.0
            },
            {
                "start_time": 59.8295455,
                "end_time": 60.4727273,
                "pitch": 64,
                "velocity": 64,
                "duration": 0.6431818,
                "tempo": 120.0
            },
            {
                "start_time": 54.0659091,
                "end_time": 61.2704545,
                "pitch": 45,
                "velocity": 64,
                "duration": 7.2045455,
                "tempo": 120.0
            },
            {
                "start_time": 60.4727273,
                "end_time": 61.2704545,
                "pitch": 62,
                "velocity": 64,
                "duration": 0.7977273,
                "tempo": 120.0
            },
            {
                "start_time": 61.2704545,
                "end_time": 61.4272727,
                "pitch": 59,
                "velocity": 64,
                "duration": 0.1568182,
                "tempo": 120.0
            },
            {
                "start_time": 61.2704545,
                "end_time": 61.7454545,
                "pitch": 45,
                "velocity": 64,
                "duration": 0.475,
                "tempo": 120.0
            },
            {
                "start_time": 61.4272727,
                "end_time": 61.7454545,
                "pitch": 60,
                "velocity": 64,
                "duration": 0.3181818,
                "tempo": 120.0
            },
            {
                "start_time": 61.7454545,
                "end_time": 62.3886364,
                "pitch": 59,
                "velocity": 64,
                "duration": 0.6431818,
                "tempo": 120.0
            },
            {
                "start_time": 12.8363636,
                "end_time": 62.3886364,
                "pitch": 67,
                "velocity": 64,
                "duration": 49.5522727,
                "tempo": 120.0
            },
            {
                "start_time": 62.3886364,
                "end_time": 62.7090909,
                "pitch": 54,
                "velocity": 64,
                "duration": 0.3204545,
                "tempo": 120.0
            },
            {
                "start_time": 62.7090909,
                "end_time": 63.3522727,
                "pitch": 61,
                "velocity": 64,
                "duration": 0.6431818,
                "tempo": 120.0
            },
            {
                "start_time": 63.3522727,
                "end_time": 63.6704545,
                "pitch": 59,
                "velocity": 64,
                "duration": 0.3181818,
                "tempo": 120.0
            },
            {
                "start_time": 63.6704545,
                "end_time": 63.9863636,
                "pitch": 57,
                "velocity": 64,
                "duration": 0.3159091,
                "tempo": 120.0
            },
            {
                "start_time": 63.6704545,
                "end_time": 63.9863636,
                "pitch": 57,
                "velocity": 64,
                "duration": 0.3159091,
                "tempo": 120.0
            },
            {
                "start_time": 63.9863636,
                "end_time": 66.5545455,
                "pitch": 62,
                "velocity": 64,
                "duration": 2.5681818,
                "tempo": 120.0
            },
            {
                "start_time": 66.5545455,
                "end_time": 66.8772727,
                "pitch": 62,
                "velocity": 64,
                "duration": 0.3227273,
                "tempo": 120.0
            },
            {
                "start_time": 61.7454545,
                "end_time": 67.5204545,
                "pitch": 45,
                "velocity": 64,
                "duration": 5.775,
                "tempo": 120.0
            },
            {
                "start_time": 66.8772727,
                "end_time": 67.5204545,
                "pitch": 61,
                "velocity": 64,
                "duration": 0.6431818,
                "tempo": 120.0
            },
            {
                "start_time": 67.5204545,
                "end_time": 67.8409091,
                "pitch": 59,
                "velocity": 64,
                "duration": 0.3204545,
                "tempo": 120.0
            },
            {
                "start_time": 67.8409091,
                "end_time": 68.7931818,
                "pitch": 61,
                "velocity": 64,
                "duration": 0.9522727,
                "tempo": 120.0
            },
            {
                "start_time": 68.7931818,
                "end_time": 69.4363636,
                "pitch": 62,
                "velocity": 64,
                "duration": 0.6431818,
                "tempo": 120.0
            },
            {
                "start_time": 21.4,
                "end_time": 69.4363636,
                "pitch": 66,
                "velocity": 64,
                "duration": 48.0363636,
                "tempo": 120.0
            },
            {
                "start_time": 69.4363636,
                "end_time": 71.9954545,
                "pitch": 54,
                "velocity": 64,
                "duration": 2.5590909,
                "tempo": 120.0
            },
            {
                "start_time": 71.9954545,
                "end_time": 72.9590909,
                "pitch": 57,
                "velocity": 64,
                "duration": 0.9636364,
                "tempo": 120.0
            },
            {
                "start_time": 72.9590909,
                "end_time": 73.9113636,
                "pitch": 59,
                "velocity": 64,
                "duration": 0.9522727,
                "tempo": 120.0
            },
            {
                "start_time": 72.9590909,
                "end_time": 73.9113636,
                "pitch": 59,
                "velocity": 64,
                "duration": 0.9522727,
                "tempo": 120.0
            },
            {
                "start_time": 55.9818182,
                "end_time": 73.9113636,
                "pitch": 65,
                "velocity": 64,
                "duration": 17.9295455,
                "tempo": 120.0
            },
            {
                "start_time": 73.9113636,
                "end_time": 74.5545455,
                "pitch": 62,
                "velocity": 64,
                "duration": 0.6431818,
                "tempo": 120.0
            },
            {
                "start_time": 74.5545455,
                "end_time": 75.5204545,
                "pitch": 61,
                "velocity": 64,
                "duration": 0.9659091,
                "tempo": 120.0
            },
            {
                "start_time": 75.5204545,
                "end_time": 76.4795455,
                "pitch": 62,
                "velocity": 64,
                "duration": 0.9590909,
                "tempo": 120.0
            },
            {
                "start_time": 67.8409091,
                "end_time": 77.1136364,
                "pitch": 64,
                "velocity": 64,
                "duration": 9.2727273,
                "tempo": 120.0
            },
            {
                "start_time": 76.4795455,
                "end_time": 77.1136364,
                "pitch": 64,
                "velocity": 64,
                "duration": 0.6340909,
                "tempo": 120.0
            },
            {
                "start_time": 69.4363636,
                "end_time": 77.1136364,
                "pitch": 66,
                "velocity": 64,
                "duration": 7.6772727,
                "tempo": 120.0
            },
            {
                "start_time": 77.1136364,
                "end_time": 77.275,
                "pitch": 66,
                "velocity": 64,
                "duration": 0.1613636,
                "tempo": 120.0
            },
            {
                "start_time": 77.1136364,
                "end_time": 77.275,
                "pitch": 66,
                "velocity": 64,
                "duration": 0.1613636,
                "tempo": 120.0
            },
            {
                "start_time": 77.275,
                "end_time": 77.4363636,
                "pitch": 64,
                "velocity": 64,
                "duration": 0.1613636,
                "tempo": 120.0
            },
            {
                "start_time": 77.4363636,
                "end_time": 81.6022727,
                "pitch": 66,
                "velocity": 64,
                "duration": 4.1659091,
                "tempo": 120.0
            },
            {
                "start_time": 81.6022727,
                "end_time": 82.2454545,
                "pitch": 64,
                "velocity": 64,
                "duration": 0.6431818,
                "tempo": 120.0
            },
            {
                "start_time": 81.6022727,
                "end_time": 82.2454545,
                "pitch": 64,
                "velocity": 64,
                "duration": 0.6431818,
                "tempo": 120.0
            },
            {
                "start_time": 82.2454545,
                "end_time": 83.2113636,
                "pitch": 62,
                "velocity": 64,
                "duration": 0.9659091,
                "tempo": 120.0
            },
            {
                "start_time": 83.2113636,
                "end_time": 83.3704545,
                "pitch": 62,
                "velocity": 64,
                "duration": 0.1590909,
                "tempo": 120.0
            },
            {
                "start_time": 67.5204545,
                "end_time": 83.5295455,
                "pitch": 45,
                "velocity": 64,
                "duration": 16.0090909,
                "tempo": 120.0
            },
            {
                "start_time": 83.3704545,
                "end_time": 83.5295455,
                "pitch": 61,
                "velocity": 64,
                "duration": 0.1590909,
                "tempo": 120.0
            },
            {
                "start_time": 83.5295455,
                "end_time": 84.1613636,
                "pitch": 59,
                "velocity": 64,
                "duration": 0.6318182,
                "tempo": 120.0
            },
            {
                "start_time": 84.1613636,
                "end_time": 84.4840909,
                "pitch": 61,
                "velocity": 64,
                "duration": 0.3227273,
                "tempo": 120.0
            },
            {
                "start_time": 84.4840909,
                "end_time": 84.8045455,
                "pitch": 62,
                "velocity": 64,
                "duration": 0.3204545,
                "tempo": 120.0
            },
            {
                "start_time": 84.1613636,
                "end_time": 85.7704545,
                "pitch": 64,
                "velocity": 64,
                "duration": 1.6090909,
                "tempo": 120.0
            },
            {
                "start_time": 84.8045455,
                "end_time": 85.7704545,
                "pitch": 64,
                "velocity": 64,
                "duration": 0.9659091,
                "tempo": 120.0
            },
            {
                "start_time": 85.7704545,
                "end_time": 85.9318182,
                "pitch": 64,
                "velocity": 64,
                "duration": 0.1613636,
                "tempo": 120.0
            },
            {
                "start_time": 85.9318182,
                "end_time": 86.0909091,
                "pitch": 62,
                "velocity": 64,
                "duration": 0.1590909,
                "tempo": 120.0
            },
            {
                "start_time": 86.0909091,
                "end_time": 86.7318182,
                "pitch": 61,
                "velocity": 64,
                "duration": 0.6409091,
                "tempo": 120.0
            },
            {
                "start_time": 86.7318182,
                "end_time": 87.0454545,
                "pitch": 62,
                "velocity": 64,
                "duration": 0.3136364,
                "tempo": 120.0
            },
            {
                "start_time": 87.0454545,
                "end_time": 87.3636364,
                "pitch": 64,
                "velocity": 64,
                "duration": 0.3181818,
                "tempo": 120.0
            },
            {
                "start_time": 87.3636364,
                "end_time": 89.4477273,
                "pitch": 64,
                "velocity": 64,
                "duration": 2.0840909,
                "tempo": 120.0
            },
            {
                "start_time": 89.4477273,
                "end_time": 89.6068182,
                "pitch": 64,
                "velocity": 64,
                "duration": 0.1590909,
                "tempo": 120.0
            },
            {
                "start_time": 89.6068182,
                "end_time": 89.7636364,
                "pitch": 62,
                "velocity": 64,
                "duration": 0.1568182,
                "tempo": 120.0
            },
            {
                "start_time": 89.7636364,
                "end_time": 89.9227273,
                "pitch": 61,
                "velocity": 64,
                "duration": 0.1590909,
                "tempo": 120.0
            },
            {
                "start_time": 83.5295455,
                "end_time": 90.5659091,
                "pitch": 45,
                "velocity": 64,
                "duration": 7.0363636,
                "tempo": 120.0
            },
            {
                "start_time": 89.9227273,
                "end_time": 90.5659091,
                "pitch": 62,
                "velocity": 64,
                "duration": 0.6431818,
                "tempo": 120.0
            },
            {
                "start_time": 90.5659091,
                "end_time": 91.2090909,
                "pitch": 59,
                "velocity": 64,
                "duration": 0.6431818,
                "tempo": 120.0
            },
            {
                "start_time": 91.2090909,
                "end_time": 91.2113636,
                "pitch": 64,
                "velocity": 64,
                "duration": 0.0022727,
                "tempo": 120.0
            },
            {
                "start_time": 90.5659091,
                "end_time": 91.8522727,
                "pitch": 45,
                "velocity": 64,
                "duration": 1.2863636,
                "tempo": 120.0
            },
            {
                "start_time": 91.2113636,
                "end_time": 91.8522727,
                "pitch": 61,
                "velocity": 64,
                "duration": 0.6409091,
                "tempo": 120.0
            },
            {
                "start_time": 91.8522727,
                "end_time": 92.4954545,
                "pitch": 59,
                "velocity": 64,
                "duration": 0.6431818,
                "tempo": 120.0
            },
            {
                "start_time": 92.4954545,
                "end_time": 93.4522727,
                "pitch": 62,
                "velocity": 64,
                "duration": 0.9568182,
                "tempo": 120.0
            },
            {
                "start_time": 93.4522727,
                "end_time": 93.6090909,
                "pitch": 62,
                "velocity": 64,
                "duration": 0.1568182,
                "tempo": 120.0
            },
            {
                "start_time": 93.6090909,
                "end_time": 93.7681818,
                "pitch": 61,
                "velocity": 64,
                "duration": 0.1590909,
                "tempo": 120.0
            },
            {
                "start_time": 91.8522727,
                "end_time": 93.7704545,
                "pitch": 45,
                "velocity": 64,
                "duration": 1.9181818,
                "tempo": 120.0
            },
            {
                "start_time": 93.7681818,
                "end_time": 93.7704545,
                "pitch": 45,
                "velocity": 64,
                "duration": 0.0022727,
                "tempo": 120.0
            },
            {
                "start_time": 93.7704545,
                "end_time": 94.4113636,
                "pitch": 59,
                "velocity": 64,
                "duration": 0.6409091,
                "tempo": 120.0
            },
            {
                "start_time": 94.4113636,
                "end_time": 94.7340909,
                "pitch": 61,
                "velocity": 64,
                "duration": 0.3227273,
                "tempo": 120.0
            },
            {
                "start_time": 94.7340909,
                "end_time": 95.0545455,
                "pitch": 62,
                "velocity": 64,
                "duration": 0.3204545,
                "tempo": 120.0
            },
            {
                "start_time": 94.4113636,
                "end_time": 96.0204545,
                "pitch": 64,
                "velocity": 64,
                "duration": 1.6090909,
                "tempo": 120.0
            },
            {
                "start_time": 95.0545455,
                "end_time": 96.0204545,
                "pitch": 64,
                "velocity": 64,
                "duration": 0.9659091,
                "tempo": 120.0
            },
            {
                "start_time": 96.0204545,
                "end_time": 96.1818182,
                "pitch": 64,
                "velocity": 64,
                "duration": 0.1613636,
                "tempo": 120.0
            },
            {
                "start_time": 96.1818182,
                "end_time": 96.3386364,
                "pitch": 62,
                "velocity": 64,
                "duration": 0.1568182,
                "tempo": 120.0
            },
            {
                "start_time": 96.3386364,
                "end_time": 96.9727273,
                "pitch": 61,
                "velocity": 64,
                "duration": 0.6340909,
                "tempo": 120.0
            },
            {
                "start_time": 49.5772727,
                "end_time": 97.2931818,
                "pitch": 33,
                "velocity": 64,
                "duration": 47.7159091,
                "tempo": 120.0
            },
            {
                "start_time": 96.9727273,
                "end_time": 97.2931818,
                "pitch": 66,
                "velocity": 64,
                "duration": 0.3204545,
                "tempo": 120.0
            },
            {
                "start_time": 97.2931818,
                "end_time": 97.6159091,
                "pitch": 69,
                "velocity": 64,
                "duration": 0.3227273,
                "tempo": 120.0
            },
            {
                "start_time": 97.6159091,
                "end_time": 102.2590909,
                "pitch": 71,
                "velocity": 64,
                "duration": 4.6431818,
                "tempo": 120.0
            },
            {
                "start_time": 97.6159091,
                "end_time": 102.2590909,
                "pitch": 71,
                "velocity": 64,
                "duration": 4.6431818,
                "tempo": 120.0
            },
            {
                "start_time": 102.5727273,
                "end_time": 105.1318182,
                "pitch": 54,
                "velocity": 64,
                "duration": 2.5590909,
                "tempo": 120.0
            },
            {
                "start_time": 105.1318182,
                "end_time": 107.7045455,
                "pitch": 62,
                "velocity": 64,
                "duration": 2.5727273,
                "tempo": 120.0
            },
            {
                "start_time": 107.7045455,
                "end_time": 110.2636364,
                "pitch": 64,
                "velocity": 64,
                "duration": 2.5590909,
                "tempo": 120.0
            },
            {
                "start_time": 110.2636364,
                "end_time": 112.8227273,
                "pitch": 66,
                "velocity": 64,
                "duration": 2.5590909,
                "tempo": 120.0
            },
            {
                "start_time": 112.8227273,
                "end_time": 115.3818182,
                "pitch": 62,
                "velocity": 64,
                "duration": 2.5590909,
                "tempo": 120.0
            },
            {
                "start_time": 112.8227273,
                "end_time": 115.3818182,
                "pitch": 62,
                "velocity": 64,
                "duration": 2.5590909,
                "tempo": 120.0
            },
            {
                "start_time": 115.3818182,
                "end_time": 117.9409091,
                "pitch": 64,
                "velocity": 64,
                "duration": 2.5590909,
                "tempo": 120.0
            },
            {
                "start_time": 117.9431818,
                "end_time": 120.5136364,
                "pitch": 66,
                "velocity": 64,
                "duration": 2.5704545,
                "tempo": 120.0
            },
            {
                "start_time": 120.5136364,
                "end_time": 123.0659091,
                "pitch": 66,
                "velocity": 64,
                "duration": 2.5522727,
                "tempo": 120.0
            }
        ],
        "Acoustic Bass": [
            {
                "start_time": 0.1022727,
                "end_time": 0.5840909,
                "pitch": 33,
                "velocity": 127,
                "duration": 0.4818182,
                "tempo": 120.0
            },
            {
                "start_time": 0.5840909,
                "end_time": 0.7454545,
                "pitch": 33,
                "velocity": 127,
                "duration": 0.1613636,
                "tempo": 120.0
            },
            {
                "start_time": 2.3454545,
                "end_time": 2.5068182,
                "pitch": 31,
                "velocity": 127,
                "duration": 0.1613636,
                "tempo": 120.0
            },
            {
                "start_time": 2.5068182,
                "end_time": 2.6681818,
                "pitch": 31,
                "velocity": 127,
                "duration": 0.1613636,
                "tempo": 120.0
            },
            {
                "start_time": 2.6681818,
                "end_time": 3.15,
                "pitch": 33,
                "velocity": 127,
                "duration": 0.4818182,
                "tempo": 120.0
            },
            {
                "start_time": 2.6681818,
                "end_time": 3.15,
                "pitch": 33,
                "velocity": 127,
                "duration": 0.4818182,
                "tempo": 120.0
            },
            {
                "start_time": 3.15,
                "end_time": 3.3113636,
                "pitch": 33,
                "velocity": 127,
                "duration": 0.1613636,
                "tempo": 120.0
            },
            {
                "start_time": 4.9045455,
                "end_time": 5.0659091,
                "pitch": 31,
                "velocity": 127,
                "duration": 0.1613636,
                "tempo": 120.0
            },
            {
                "start_time": 5.0659091,
                "end_time": 5.2272727,
                "pitch": 31,
                "velocity": 127,
                "duration": 0.1613636,
                "tempo": 120.0
            },
            {
                "start_time": 5.2272727,
                "end_time": 5.7090909,
                "pitch": 33,
                "velocity": 127,
                "duration": 0.4818182,
                "tempo": 120.0
            },
            {
                "start_time": 5.2272727,
                "end_time": 5.7090909,
                "pitch": 33,
                "velocity": 127,
                "duration": 0.4818182,
                "tempo": 120.0
            },
            {
                "start_time": 5.7090909,
                "end_time": 5.8704545,
                "pitch": 33,
                "velocity": 127,
                "duration": 0.1613636,
                "tempo": 120.0
            },
            {
                "start_time": 7.4704545,
                "end_time": 7.6295455,
                "pitch": 31,
                "velocity": 127,
                "duration": 0.1590909,
                "tempo": 120.0
            },
            {
                "start_time": 7.6295455,
                "end_time": 7.7863636,
                "pitch": 31,
                "velocity": 127,
                "duration": 0.1568182,
                "tempo": 120.0
            },
            {
                "start_time": 7.7863636,
                "end_time": 8.2681818,
                "pitch": 33,
                "velocity": 127,
                "duration": 0.4818182,
                "tempo": 120.0
            },
            {
                "start_time": 8.2681818,
                "end_time": 8.4295455,
                "pitch": 33,
                "velocity": 127,
                "duration": 0.1613636,
                "tempo": 120.0
            },
            {
                "start_time": 10.0295455,
                "end_time": 10.1886364,
                "pitch": 31,
                "velocity": 127,
                "duration": 0.1590909,
                "tempo": 120.0
            },
            {
                "start_time": 10.1886364,
                "end_time": 10.3454545,
                "pitch": 31,
                "velocity": 127,
                "duration": 0.1568182,
                "tempo": 120.0
            },
            {
                "start_time": 10.3454545,
                "end_time": 10.8272727,
                "pitch": 36,
                "velocity": 127,
                "duration": 0.4818182,
                "tempo": 120.0
            },
            {
                "start_time": 10.8272727,
                "end_time": 10.9886364,
                "pitch": 36,
                "velocity": 127,
                "duration": 0.1613636,
                "tempo": 120.0
            },
            {
                "start_time": 12.5954545,
                "end_time": 12.7568182,
                "pitch": 36,
                "velocity": 127,
                "duration": 0.1613636,
                "tempo": 120.0
            },
            {
                "start_time": 12.7568182,
                "end_time": 12.9181818,
                "pitch": 36,
                "velocity": 127,
                "duration": 0.1613636,
                "tempo": 120.0
            },
            {
                "start_time": 12.9181818,
                "end_time": 13.4,
                "pitch": 35,
                "velocity": 127,
                "duration": 0.4818182,
                "tempo": 120.0
            },
            {
                "start_time": 13.4,
                "end_time": 13.5613636,
                "pitch": 35,
                "velocity": 127,
                "duration": 0.1613636,
                "tempo": 120.0
            },
            {
                "start_time": 15.1545455,
                "end_time": 15.3159091,
                "pitch": 31,
                "velocity": 127,
                "duration": 0.1613636,
                "tempo": 120.0
            },
            {
                "start_time": 15.3159091,
                "end_time": 15.4772727,
                "pitch": 31,
                "velocity": 127,
                "duration": 0.1613636,
                "tempo": 120.0
            },
            {
                "start_time": 15.4772727,
                "end_time": 15.9590909,
                "pitch": 33,
                "velocity": 127,
                "duration": 0.4818182,
                "tempo": 120.0
            },
            {
                "start_time": 15.9590909,
                "end_time": 16.1204545,
                "pitch": 33,
                "velocity": 127,
                "duration": 0.1613636,
                "tempo": 120.0
            },
            {
                "start_time": 17.7159091,
                "end_time": 17.875,
                "pitch": 31,
                "velocity": 127,
                "duration": 0.1590909,
                "tempo": 120.0
            },
            {
                "start_time": 17.875,
                "end_time": 18.0363636,
                "pitch": 31,
                "velocity": 127,
                "duration": 0.1613636,
                "tempo": 120.0
            },
            {
                "start_time": 18.0363636,
                "end_time": 18.3590909,
                "pitch": 33,
                "velocity": 127,
                "duration": 0.3227273,
                "tempo": 120.0
            },
            {
                "start_time": 18.0363636,
                "end_time": 18.3590909,
                "pitch": 33,
                "velocity": 127,
                "duration": 0.3227273,
                "tempo": 120.0
            },
            {
                "start_time": 12.9181818,
                "end_time": 18.5181818,
                "pitch": 21,
                "velocity": 127,
                "duration": 5.6,
                "tempo": 120.0
            },
            {
                "start_time": 18.3590909,
                "end_time": 18.5181818,
                "pitch": 21,
                "velocity": 127,
                "duration": 0.1590909,
                "tempo": 120.0
            },
            {
                "start_time": 18.5181818,
                "end_time": 18.6795455,
                "pitch": 33,
                "velocity": 127,
                "duration": 0.1613636,
                "tempo": 120.0
            },
            {
                "start_time": 19.0022727,
                "end_time": 19.1613636,
                "pitch": 21,
                "velocity": 127,
                "duration": 0.1590909,
                "tempo": 120.0
            },
            {
                "start_time": 20.2818182,
                "end_time": 20.4386364,
                "pitch": 31,
                "velocity": 127,
                "duration": 0.1568182,
                "tempo": 120.0
            },
            {
                "start_time": 20.4386364,
                "end_time": 20.5954545,
                "pitch": 31,
                "velocity": 127,
                "duration": 0.1568182,
                "tempo": 120.0
            },
            {
                "start_time": 20.5954545,
                "end_time": 21.0772727,
                "pitch": 33,
                "velocity": 127,
                "duration": 0.4818182,
                "tempo": 120.0
            },
            {
                "start_time": 20.5954545,
                "end_time": 21.0772727,
                "pitch": 33,
                "velocity": 127,
                "duration": 0.4818182,
                "tempo": 120.0
            },
            {
                "start_time": 21.0772727,
                "end_time": 21.2386364,
                "pitch": 33,
                "velocity": 127,
                "duration": 0.1613636,
                "tempo": 120.0
            },
            {
                "start_time": 22.8409091,
                "end_time": 22.9977273,
                "pitch": 31,
                "velocity": 127,
                "duration": 0.1568182,
                "tempo": 120.0
            },
            {
                "start_time": 22.9977273,
                "end_time": 23.1545455,
                "pitch": 31,
                "velocity": 127,
                "duration": 0.1568182,
                "tempo": 120.0
            },
            {
                "start_time": 23.1545455,
                "end_time": 23.6363636,
                "pitch": 33,
                "velocity": 127,
                "duration": 0.4818182,
                "tempo": 120.0
            },
            {
                "start_time": 23.1545455,
                "end_time": 23.6363636,
                "pitch": 33,
                "velocity": 127,
                "duration": 0.4818182,
                "tempo": 120.0
            },
            {
                "start_time": 23.6363636,
                "end_time": 23.7977273,
                "pitch": 33,
                "velocity": 127,
                "duration": 0.1613636,
                "tempo": 120.0
            },
            {
                "start_time": 25.4068182,
                "end_time": 25.5659091,
                "pitch": 31,
                "velocity": 127,
                "duration": 0.1590909,
                "tempo": 120.0
            },
            {
                "start_time": 25.5659091,
                "end_time": 25.7272727,
                "pitch": 31,
                "velocity": 127,
                "duration": 0.1613636,
                "tempo": 120.0
            },
            {
                "start_time": 25.7272727,
                "end_time": 26.2090909,
                "pitch": 33,
                "velocity": 127,
                "duration": 0.4818182,
                "tempo": 120.0
            },
            {
                "start_time": 26.2090909,
                "end_time": 26.3704545,
                "pitch": 33,
                "velocity": 127,
                "duration": 0.1613636,
                "tempo": 120.0
            },
            {
                "start_time": 27.9659091,
                "end_time": 28.1272727,
                "pitch": 31,
                "velocity": 127,
                "duration": 0.1613636,
                "tempo": 120.0
            },
            {
                "start_time": 28.1272727,
                "end_time": 28.2863636,
                "pitch": 31,
                "velocity": 127,
                "duration": 0.1590909,
                "tempo": 120.0
            },
            {
                "start_time": 28.2863636,
                "end_time": 28.7704545,
                "pitch": 33,
                "velocity": 127,
                "duration": 0.4840909,
                "tempo": 120.0
            },
            {
                "start_time": 28.2863636,
                "end_time": 28.7704545,
                "pitch": 33,
                "velocity": 127,
                "duration": 0.4840909,
                "tempo": 120.0
            },
            {
                "start_time": 28.7704545,
                "end_time": 28.9295455,
                "pitch": 33,
                "velocity": 127,
                "duration": 0.1590909,
                "tempo": 120.0
            },
            {
                "start_time": 30.525,
                "end_time": 30.6863636,
                "pitch": 31,
                "velocity": 127,
                "duration": 0.1613636,
                "tempo": 120.0
            },
            {
                "start_time": 30.6863636,
                "end_time": 30.8454545,
                "pitch": 31,
                "velocity": 127,
                "duration": 0.1590909,
                "tempo": 120.0
            },
            {
                "start_time": 10.3454545,
                "end_time": 30.8454545,
                "pitch": 40,
                "velocity": 127,
                "duration": 20.5,
                "tempo": 120.0
            },
            {
                "start_time": 30.8454545,
                "end_time": 31.3295455,
                "pitch": 36,
                "velocity": 127,
                "duration": 0.4840909,
                "tempo": 120.0
            },
            {
                "start_time": 31.3295455,
                "end_time": 31.4886364,
                "pitch": 36,
                "velocity": 127,
                "duration": 0.1590909,
                "tempo": 120.0
            },
            {
                "start_time": 33.0840909,
                "end_time": 33.2454545,
                "pitch": 36,
                "velocity": 127,
                "duration": 0.1613636,
                "tempo": 120.0
            },
            {
                "start_time": 33.2454545,
                "end_time": 33.4045455,
                "pitch": 36,
                "velocity": 127,
                "duration": 0.1590909,
                "tempo": 120.0
            },
            {
                "start_time": 33.4045455,
                "end_time": 33.8886364,
                "pitch": 35,
                "velocity": 127,
                "duration": 0.4840909,
                "tempo": 120.0
            },
            {
                "start_time": 33.8886364,
                "end_time": 34.0477273,
                "pitch": 35,
                "velocity": 127,
                "duration": 0.1590909,
                "tempo": 120.0
            },
            {
                "start_time": 35.65,
                "end_time": 35.8068182,
                "pitch": 31,
                "velocity": 127,
                "duration": 0.1568182,
                "tempo": 120.0
            },
            {
                "start_time": 35.8068182,
                "end_time": 35.9659091,
                "pitch": 31,
                "velocity": 127,
                "duration": 0.1590909,
                "tempo": 120.0
            },
            {
                "start_time": 35.9659091,
                "end_time": 36.4477273,
                "pitch": 33,
                "velocity": 127,
                "duration": 0.4818182,
                "tempo": 120.0
            },
            {
                "start_time": 35.9659091,
                "end_time": 36.4477273,
                "pitch": 33,
                "velocity": 127,
                "duration": 0.4818182,
                "tempo": 120.0
            },
            {
                "start_time": 36.4477273,
                "end_time": 36.6068182,
                "pitch": 33,
                "velocity": 127,
                "duration": 0.1590909,
                "tempo": 120.0
            },
            {
                "start_time": 38.2159091,
                "end_time": 38.3772727,
                "pitch": 31,
                "velocity": 127,
                "duration": 0.1613636,
                "tempo": 120.0
            },
            {
                "start_time": 38.3772727,
                "end_time": 38.5386364,
                "pitch": 31,
                "velocity": 127,
                "duration": 0.1613636,
                "tempo": 120.0
            },
            {
                "start_time": 38.5386364,
                "end_time": 38.8590909,
                "pitch": 33,
                "velocity": 127,
                "duration": 0.3204545,
                "tempo": 120.0
            },
            {
                "start_time": 33.4045455,
                "end_time": 39.0204545,
                "pitch": 21,
                "velocity": 127,
                "duration": 5.6159091,
                "tempo": 120.0
            },
            {
                "start_time": 38.8590909,
                "end_time": 39.0204545,
                "pitch": 21,
                "velocity": 127,
                "duration": 0.1613636,
                "tempo": 120.0
            },
            {
                "start_time": 39.0204545,
                "end_time": 39.1818182,
                "pitch": 33,
                "velocity": 127,
                "duration": 0.1613636,
                "tempo": 120.0
            },
            {
                "start_time": 39.5022727,
                "end_time": 39.6636364,
                "pitch": 21,
                "velocity": 127,
                "duration": 0.1613636,
                "tempo": 120.0
            },
            {
                "start_time": 40.775,
                "end_time": 40.9363636,
                "pitch": 31,
                "velocity": 127,
                "duration": 0.1613636,
                "tempo": 120.0
            },
            {
                "start_time": 40.9363636,
                "end_time": 41.0977273,
                "pitch": 31,
                "velocity": 127,
                "duration": 0.1613636,
                "tempo": 120.0
            },
            {
                "start_time": 41.0977273,
                "end_time": 41.5795455,
                "pitch": 29,
                "velocity": 127,
                "duration": 0.4818182,
                "tempo": 120.0
            },
            {
                "start_time": 41.5795455,
                "end_time": 41.7409091,
                "pitch": 29,
                "velocity": 127,
                "duration": 0.1613636,
                "tempo": 120.0
            },
            {
                "start_time": 43.3340909,
                "end_time": 43.4954545,
                "pitch": 29,
                "velocity": 127,
                "duration": 0.1613636,
                "tempo": 120.0
            },
            {
                "start_time": 43.4954545,
                "end_time": 43.6568182,
                "pitch": 29,
                "velocity": 127,
                "duration": 0.1613636,
                "tempo": 120.0
            },
            {
                "start_time": 43.6568182,
                "end_time": 44.1386364,
                "pitch": 31,
                "velocity": 127,
                "duration": 0.4818182,
                "tempo": 120.0
            },
            {
                "start_time": 44.1386364,
                "end_time": 44.3,
                "pitch": 31,
                "velocity": 127,
                "duration": 0.1613636,
                "tempo": 120.0
            },
            {
                "start_time": 45.8931818,
                "end_time": 46.0545455,
                "pitch": 31,
                "velocity": 127,
                "duration": 0.1613636,
                "tempo": 120.0
            },
            {
                "start_time": 46.0545455,
                "end_time": 46.2159091,
                "pitch": 31,
                "velocity": 127,
                "duration": 0.1613636,
                "tempo": 120.0
            },
            {
                "start_time": 46.2159091,
                "end_time": 46.6977273,
                "pitch": 33,
                "velocity": 127,
                "duration": 0.4818182,
                "tempo": 120.0
            },
            {
                "start_time": 46.2159091,
                "end_time": 46.6977273,
                "pitch": 33,
                "velocity": 127,
                "duration": 0.4818182,
                "tempo": 120.0
            },
            {
                "start_time": 46.6977273,
                "end_time": 46.8590909,
                "pitch": 33,
                "velocity": 127,
                "duration": 0.1613636,
                "tempo": 120.0
            },
            {
                "start_time": 48.4590909,
                "end_time": 48.6181818,
                "pitch": 31,
                "velocity": 127,
                "duration": 0.1590909,
                "tempo": 120.0
            },
            {
                "start_time": 48.6181818,
                "end_time": 48.775,
                "pitch": 31,
                "velocity": 127,
                "duration": 0.1568182,
                "tempo": 120.0
            },
            {
                "start_time": 48.775,
                "end_time": 49.2568182,
                "pitch": 33,
                "velocity": 127,
                "duration": 0.4818182,
                "tempo": 120.0
            },
            {
                "start_time": 48.775,
                "end_time": 49.2568182,
                "pitch": 33,
                "velocity": 127,
                "duration": 0.4818182,
                "tempo": 120.0
            },
            {
                "start_time": 49.2568182,
                "end_time": 49.4181818,
                "pitch": 33,
                "velocity": 127,
                "duration": 0.1613636,
                "tempo": 120.0
            },
            {
                "start_time": 51.025,
                "end_time": 51.1863636,
                "pitch": 31,
                "velocity": 127,
                "duration": 0.1613636,
                "tempo": 120.0
            },
            {
                "start_time": 51.1863636,
                "end_time": 51.3477273,
                "pitch": 31,
                "velocity": 127,
                "duration": 0.1613636,
                "tempo": 120.0
            },
            {
                "start_time": 51.3477273,
                "end_time": 51.8295455,
                "pitch": 29,
                "velocity": 127,
                "duration": 0.4818182,
                "tempo": 120.0
            },
            {
                "start_time": 51.8295455,
                "end_time": 51.9909091,
                "pitch": 29,
                "velocity": 127,
                "duration": 0.1613636,
                "tempo": 120.0
            },
            {
                "start_time": 53.5840909,
                "end_time": 53.7454545,
                "pitch": 29,
                "velocity": 127,
                "duration": 0.1613636,
                "tempo": 120.0
            },
            {
                "start_time": 53.7454545,
                "end_time": 53.9068182,
                "pitch": 29,
                "velocity": 127,
                "duration": 0.1613636,
                "tempo": 120.0
            },
            {
                "start_time": 53.9068182,
                "end_time": 54.3886364,
                "pitch": 31,
                "velocity": 127,
                "duration": 0.4818182,
                "tempo": 120.0
            },
            {
                "start_time": 54.3886364,
                "end_time": 54.55,
                "pitch": 31,
                "velocity": 127,
                "duration": 0.1613636,
                "tempo": 120.0
            },
            {
                "start_time": 56.1431818,
                "end_time": 56.3045455,
                "pitch": 31,
                "velocity": 127,
                "duration": 0.1613636,
                "tempo": 120.0
            },
            {
                "start_time": 56.3045455,
                "end_time": 56.4659091,
                "pitch": 31,
                "velocity": 127,
                "duration": 0.1613636,
                "tempo": 120.0
            },
            {
                "start_time": 30.8454545,
                "end_time": 56.4659091,
                "pitch": 40,
                "velocity": 127,
                "duration": 25.6204545,
                "tempo": 120.0
            },
            {
                "start_time": 56.4659091,
                "end_time": 56.9477273,
                "pitch": 36,
                "velocity": 127,
                "duration": 0.4818182,
                "tempo": 120.0
            },
            {
                "start_time": 56.9477273,
                "end_time": 57.1090909,
                "pitch": 36,
                "velocity": 127,
                "duration": 0.1613636,
                "tempo": 120.0
            },
            {
                "start_time": 58.7045455,
                "end_time": 58.8636364,
                "pitch": 36,
                "velocity": 127,
                "duration": 0.1590909,
                "tempo": 120.0
            },
            {
                "start_time": 58.8636364,
                "end_time": 59.025,
                "pitch": 36,
                "velocity": 127,
                "duration": 0.1613636,
                "tempo": 120.0
            },
            {
                "start_time": 59.025,
                "end_time": 59.3454545,
                "pitch": 32,
                "velocity": 127,
                "duration": 0.3204545,
                "tempo": 120.0
            },
            {
                "start_time": 59.3477273,
                "end_time": 59.5068182,
                "pitch": 20,
                "velocity": 127,
                "duration": 0.1590909,
                "tempo": 120.0
            },
            {
                "start_time": 59.5068182,
                "end_time": 59.6681818,
                "pitch": 32,
                "velocity": 127,
                "duration": 0.1613636,
                "tempo": 120.0
            },
            {
                "start_time": 59.9909091,
                "end_time": 60.15,
                "pitch": 20,
                "velocity": 127,
                "duration": 0.1590909,
                "tempo": 120.0
            },
            {
                "start_time": 61.2704545,
                "end_time": 61.4272727,
                "pitch": 32,
                "velocity": 127,
                "duration": 0.1568182,
                "tempo": 120.0
            },
            {
                "start_time": 61.4272727,
                "end_time": 61.5840909,
                "pitch": 32,
                "velocity": 127,
                "duration": 0.1568182,
                "tempo": 120.0
            },
            {
                "start_time": 61.5840909,
                "end_time": 62.0659091,
                "pitch": 35,
                "velocity": 127,
                "duration": 0.4818182,
                "tempo": 120.0
            },
            {
                "start_time": 61.5840909,
                "end_time": 62.0659091,
                "pitch": 35,
                "velocity": 127,
                "duration": 0.4818182,
                "tempo": 120.0
            },
            {
                "start_time": 62.0659091,
                "end_time": 62.2272727,
                "pitch": 35,
                "velocity": 127,
                "duration": 0.1613636,
                "tempo": 120.0
            },
            {
                "start_time": 63.8295455,
                "end_time": 63.9863636,
                "pitch": 33,
                "velocity": 127,
                "duration": 0.1568182,
                "tempo": 120.0
            },
            {
                "start_time": 63.9863636,
                "end_time": 64.1431818,
                "pitch": 33,
                "velocity": 127,
                "duration": 0.1568182,
                "tempo": 120.0
            },
            {
                "start_time": 64.1431818,
                "end_time": 64.625,
                "pitch": 35,
                "velocity": 127,
                "duration": 0.4818182,
                "tempo": 120.0
            },
            {
                "start_time": 64.1431818,
                "end_time": 64.625,
                "pitch": 35,
                "velocity": 127,
                "duration": 0.4818182,
                "tempo": 120.0
            },
            {
                "start_time": 64.625,
                "end_time": 64.7863636,
                "pitch": 35,
                "velocity": 127,
                "duration": 0.1613636,
                "tempo": 120.0
            },
            {
                "start_time": 66.3954545,
                "end_time": 66.5545455,
                "pitch": 33,
                "velocity": 127,
                "duration": 0.1590909,
                "tempo": 120.0
            },
            {
                "start_time": 66.5545455,
                "end_time": 66.7159091,
                "pitch": 33,
                "velocity": 127,
                "duration": 0.1613636,
                "tempo": 120.0
            },
            {
                "start_time": 66.7159091,
                "end_time": 67.1977273,
                "pitch": 35,
                "velocity": 127,
                "duration": 0.4818182,
                "tempo": 120.0
            },
            {
                "start_time": 66.7159091,
                "end_time": 67.1977273,
                "pitch": 35,
                "velocity": 127,
                "duration": 0.4818182,
                "tempo": 120.0
            },
            {
                "start_time": 67.1977273,
                "end_time": 67.3590909,
                "pitch": 35,
                "velocity": 127,
                "duration": 0.1613636,
                "tempo": 120.0
            },
            {
                "start_time": 68.9545455,
                "end_time": 69.1159091,
                "pitch": 33,
                "velocity": 127,
                "duration": 0.1613636,
                "tempo": 120.0
            },
            {
                "start_time": 69.1159091,
                "end_time": 69.275,
                "pitch": 33,
                "velocity": 127,
                "duration": 0.1590909,
                "tempo": 120.0
            },
            {
                "start_time": 69.275,
                "end_time": 69.7590909,
                "pitch": 35,
                "velocity": 127,
                "duration": 0.4840909,
                "tempo": 120.0
            },
            {
                "start_time": 69.7590909,
                "end_time": 69.9181818,
                "pitch": 35,
                "velocity": 127,
                "duration": 0.1590909,
                "tempo": 120.0
            },
            {
                "start_time": 71.5136364,
                "end_time": 71.675,
                "pitch": 33,
                "velocity": 127,
                "duration": 0.1613636,
                "tempo": 120.0
            },
            {
                "start_time": 71.675,
                "end_time": 71.8340909,
                "pitch": 33,
                "velocity": 127,
                "duration": 0.1590909,
                "tempo": 120.0
            },
            {
                "start_time": 71.8340909,
                "end_time": 72.3181818,
                "pitch": 38,
                "velocity": 127,
                "duration": 0.4840909,
                "tempo": 120.0
            },
            {
                "start_time": 72.3181818,
                "end_time": 72.4772727,
                "pitch": 38,
                "velocity": 127,
                "duration": 0.1590909,
                "tempo": 120.0
            },
            {
                "start_time": 74.0727273,
                "end_time": 74.2340909,
                "pitch": 38,
                "velocity": 127,
                "duration": 0.1613636,
                "tempo": 120.0
            },
            {
                "start_time": 74.2340909,
                "end_time": 74.3931818,
                "pitch": 38,
                "velocity": 127,
                "duration": 0.1590909,
                "tempo": 120.0
            },
            {
                "start_time": 74.3931818,
                "end_time": 74.8772727,
                "pitch": 37,
                "velocity": 127,
                "duration": 0.4840909,
                "tempo": 120.0
            },
            {
                "start_time": 74.8772727,
                "end_time": 75.0363636,
                "pitch": 37,
                "velocity": 127,
                "duration": 0.1590909,
                "tempo": 120.0
            },
            {
                "start_time": 76.6386364,
                "end_time": 76.7954545,
                "pitch": 33,
                "velocity": 127,
                "duration": 0.1568182,
                "tempo": 120.0
            },
            {
                "start_time": 76.7954545,
                "end_time": 76.9545455,
                "pitch": 33,
                "velocity": 127,
                "duration": 0.1590909,
                "tempo": 120.0
            },
            {
                "start_time": 76.9545455,
                "end_time": 77.4363636,
                "pitch": 35,
                "velocity": 127,
                "duration": 0.4818182,
                "tempo": 120.0
            },
            {
                "start_time": 77.4363636,
                "end_time": 77.5954545,
                "pitch": 35,
                "velocity": 127,
                "duration": 0.1590909,
                "tempo": 120.0
            },
            {
                "start_time": 79.2045455,
                "end_time": 79.3659091,
                "pitch": 33,
                "velocity": 127,
                "duration": 0.1613636,
                "tempo": 120.0
            },
            {
                "start_time": 79.3659091,
                "end_time": 79.5272727,
                "pitch": 33,
                "velocity": 127,
                "duration": 0.1613636,
                "tempo": 120.0
            },
            {
                "start_time": 79.5272727,
                "end_time": 79.8477273,
                "pitch": 35,
                "velocity": 127,
                "duration": 0.3204545,
                "tempo": 120.0
            },
            {
                "start_time": 79.5272727,
                "end_time": 79.8477273,
                "pitch": 35,
                "velocity": 127,
                "duration": 0.3204545,
                "tempo": 120.0
            },
            {
                "start_time": 79.8477273,
                "end_time": 80.0090909,
                "pitch": 23,
                "velocity": 127,
                "duration": 0.1613636,
                "tempo": 120.0
            },
            {
                "start_time": 80.0090909,
                "end_time": 80.1704545,
                "pitch": 35,
                "velocity": 127,
                "duration": 0.1613636,
                "tempo": 120.0
            },
            {
                "start_time": 80.4909091,
                "end_time": 80.6522727,
                "pitch": 23,
                "velocity": 127,
                "duration": 0.1613636,
                "tempo": 120.0
            },
            {
                "start_time": 81.7636364,
                "end_time": 81.925,
                "pitch": 33,
                "velocity": 127,
                "duration": 0.1613636,
                "tempo": 120.0
            },
            {
                "start_time": 81.925,
                "end_time": 82.0863636,
                "pitch": 33,
                "velocity": 127,
                "duration": 0.1613636,
                "tempo": 120.0
            },
            {
                "start_time": 82.0863636,
                "end_time": 82.5681818,
                "pitch": 31,
                "velocity": 127,
                "duration": 0.4818182,
                "tempo": 120.0
            },
            {
                "start_time": 82.0863636,
                "end_time": 82.5681818,
                "pitch": 31,
                "velocity": 127,
                "duration": 0.4818182,
                "tempo": 120.0
            },
            {
                "start_time": 82.5681818,
                "end_time": 82.7295455,
                "pitch": 31,
                "velocity": 127,
                "duration": 0.1613636,
                "tempo": 120.0
            },
            {
                "start_time": 84.3227273,
                "end_time": 84.4840909,
                "pitch": 31,
                "velocity": 127,
                "duration": 0.1613636,
                "tempo": 120.0
            },
            {
                "start_time": 84.4840909,
                "end_time": 84.6454545,
                "pitch": 31,
                "velocity": 127,
                "duration": 0.1613636,
                "tempo": 120.0
            },
            {
                "start_time": 84.6454545,
                "end_time": 85.1272727,
                "pitch": 33,
                "velocity": 127,
                "duration": 0.4818182,
                "tempo": 120.0
            },
            {
                "start_time": 84.6454545,
                "end_time": 85.1272727,
                "pitch": 33,
                "velocity": 127,
                "duration": 0.4818182,
                "tempo": 120.0
            },
            {
                "start_time": 85.1272727,
                "end_time": 85.2886364,
                "pitch": 33,
                "velocity": 127,
                "duration": 0.1613636,
                "tempo": 120.0
            },
            {
                "start_time": 86.8886364,
                "end_time": 87.0454545,
                "pitch": 33,
                "velocity": 127,
                "duration": 0.1568182,
                "tempo": 120.0
            },
            {
                "start_time": 87.0454545,
                "end_time": 87.2045455,
                "pitch": 33,
                "velocity": 127,
                "duration": 0.1590909,
                "tempo": 120.0
            },
            {
                "start_time": 87.2045455,
                "end_time": 87.6863636,
                "pitch": 35,
                "velocity": 127,
                "duration": 0.4818182,
                "tempo": 120.0
            },
            {
                "start_time": 87.2045455,
                "end_time": 87.6863636,
                "pitch": 35,
                "velocity": 127,
                "duration": 0.4818182,
                "tempo": 120.0
            },
            {
                "start_time": 87.6863636,
                "end_time": 87.8477273,
                "pitch": 35,
                "velocity": 127,
                "duration": 0.1613636,
                "tempo": 120.0
            },
            {
                "start_time": 89.4477273,
                "end_time": 89.6068182,
                "pitch": 33,
                "velocity": 127,
                "duration": 0.1590909,
                "tempo": 120.0
            },
            {
                "start_time": 89.6068182,
                "end_time": 89.7636364,
                "pitch": 33,
                "velocity": 127,
                "duration": 0.1568182,
                "tempo": 120.0
            },
            {
                "start_time": 89.7636364,
                "end_time": 90.2454545,
                "pitch": 35,
                "velocity": 127,
                "duration": 0.4818182,
                "tempo": 120.0
            },
            {
                "start_time": 89.7636364,
                "end_time": 90.2454545,
                "pitch": 35,
                "velocity": 127,
                "duration": 0.4818182,
                "tempo": 120.0
            },
            {
                "start_time": 90.2454545,
                "end_time": 90.4068182,
                "pitch": 35,
                "velocity": 127,
                "duration": 0.1613636,
                "tempo": 120.0
            },
            {
                "start_time": 92.0136364,
                "end_time": 92.175,
                "pitch": 33,
                "velocity": 127,
                "duration": 0.1613636,
                "tempo": 120.0
            },
            {
                "start_time": 92.175,
                "end_time": 92.3363636,
                "pitch": 33,
                "velocity": 127,
                "duration": 0.1613636,
                "tempo": 120.0
            },
            {
                "start_time": 92.3363636,
                "end_time": 92.8181818,
                "pitch": 31,
                "velocity": 127,
                "duration": 0.4818182,
                "tempo": 120.0
            },
            {
                "start_time": 92.3363636,
                "end_time": 92.8181818,
                "pitch": 31,
                "velocity": 127,
                "duration": 0.4818182,
                "tempo": 120.0
            },
            {
                "start_time": 92.8181818,
                "end_time": 92.9795455,
                "pitch": 31,
                "velocity": 127,
                "duration": 0.1613636,
                "tempo": 120.0
            },
            {
                "start_time": 94.5727273,
                "end_time": 94.7340909,
                "pitch": 31,
                "velocity": 127,
                "duration": 0.1613636,
                "tempo": 120.0
            },
            {
                "start_time": 94.7340909,
                "end_time": 94.8954545,
                "pitch": 31,
                "velocity": 127,
                "duration": 0.1613636,
                "tempo": 120.0
            },
            {
                "start_time": 94.8954545,
                "end_time": 95.3772727,
                "pitch": 33,
                "velocity": 127,
                "duration": 0.4818182,
                "tempo": 120.0
            },
            {
                "start_time": 94.8954545,
                "end_time": 95.3772727,
                "pitch": 33,
                "velocity": 127,
                "duration": 0.4818182,
                "tempo": 120.0
            },
            {
                "start_time": 95.3772727,
                "end_time": 95.5386364,
                "pitch": 33,
                "velocity": 127,
                "duration": 0.1613636,
                "tempo": 120.0
            },
            {
                "start_time": 97.1318182,
                "end_time": 97.2931818,
                "pitch": 33,
                "velocity": 127,
                "duration": 0.1613636,
                "tempo": 120.0
            },
            {
                "start_time": 97.2931818,
                "end_time": 97.4545455,
                "pitch": 33,
                "velocity": 127,
                "duration": 0.1613636,
                "tempo": 120.0
            },
            {
                "start_time": 97.4545455,
                "end_time": 97.9363636,
                "pitch": 35,
                "velocity": 127,
                "duration": 0.4818182,
                "tempo": 120.0
            },
            {
                "start_time": 97.4545455,
                "end_time": 97.9363636,
                "pitch": 35,
                "velocity": 127,
                "duration": 0.4818182,
                "tempo": 120.0
            },
            {
                "start_time": 97.9363636,
                "end_time": 98.0977273,
                "pitch": 35,
                "velocity": 127,
                "duration": 0.1613636,
                "tempo": 120.0
            },
            {
                "start_time": 99.6931818,
                "end_time": 99.8522727,
                "pitch": 35,
                "velocity": 127,
                "duration": 0.1590909,
                "tempo": 120.0
            },
            {
                "start_time": 99.8522727,
                "end_time": 100.0136364,
                "pitch": 35,
                "velocity": 127,
                "duration": 0.1613636,
                "tempo": 120.0
            },
            {
                "start_time": 100.0136364,
                "end_time": 100.3363636,
                "pitch": 35,
                "velocity": 127,
                "duration": 0.3227273,
                "tempo": 120.0
            },
            {
                "start_time": 100.3363636,
                "end_time": 100.4954545,
                "pitch": 23,
                "velocity": 127,
                "duration": 0.1590909,
                "tempo": 120.0
            },
            {
                "start_time": 100.4954545,
                "end_time": 100.6568182,
                "pitch": 35,
                "velocity": 127,
                "duration": 0.1613636,
                "tempo": 120.0
            },
            {
                "start_time": 100.9795455,
                "end_time": 101.1386364,
                "pitch": 23,
                "velocity": 127,
                "duration": 0.1590909,
                "tempo": 120.0
            },
            {
                "start_time": 102.2590909,
                "end_time": 102.4159091,
                "pitch": 35,
                "velocity": 127,
                "duration": 0.1568182,
                "tempo": 120.0
            },
            {
                "start_time": 102.4159091,
                "end_time": 102.5727273,
                "pitch": 35,
                "velocity": 127,
                "duration": 0.1568182,
                "tempo": 120.0
            },
            {
                "start_time": 102.5727273,
                "end_time": 103.0545455,
                "pitch": 35,
                "velocity": 127,
                "duration": 0.4818182,
                "tempo": 120.0
            },
            {
                "start_time": 103.0545455,
                "end_time": 103.2159091,
                "pitch": 35,
                "velocity": 127,
                "duration": 0.1613636,
                "tempo": 120.0
            },
            {
                "start_time": 104.8181818,
                "end_time": 104.975,
                "pitch": 33,
                "velocity": 127,
                "duration": 0.1568182,
                "tempo": 120.0
            },
            {
                "start_time": 104.975,
                "end_time": 105.1318182,
                "pitch": 33,
                "velocity": 127,
                "duration": 0.1568182,
                "tempo": 120.0
            },
            {
                "start_time": 105.1318182,
                "end_time": 105.6136364,
                "pitch": 31,
                "velocity": 127,
                "duration": 0.4818182,
                "tempo": 120.0
            },
            {
                "start_time": 105.6136364,
                "end_time": 105.775,
                "pitch": 31,
                "velocity": 127,
                "duration": 0.1613636,
                "tempo": 120.0
            },
            {
                "start_time": 107.3840909,
                "end_time": 107.5431818,
                "pitch": 31,
                "velocity": 127,
                "duration": 0.1590909,
                "tempo": 120.0
            },
            {
                "start_time": 107.5431818,
                "end_time": 107.7045455,
                "pitch": 31,
                "velocity": 127,
                "duration": 0.1613636,
                "tempo": 120.0
            },
            {
                "start_time": 107.7045455,
                "end_time": 108.1886364,
                "pitch": 33,
                "velocity": 127,
                "duration": 0.4840909,
                "tempo": 120.0
            },
            {
                "start_time": 107.7045455,
                "end_time": 108.1886364,
                "pitch": 33,
                "velocity": 127,
                "duration": 0.4840909,
                "tempo": 120.0
            },
            {
                "start_time": 108.1886364,
                "end_time": 108.3477273,
                "pitch": 33,
                "velocity": 127,
                "duration": 0.1590909,
                "tempo": 120.0
            },
            {
                "start_time": 109.9431818,
                "end_time": 110.1045455,
                "pitch": 33,
                "velocity": 127,
                "duration": 0.1613636,
                "tempo": 120.0
            },
            {
                "start_time": 110.1045455,
                "end_time": 110.2636364,
                "pitch": 33,
                "velocity": 127,
                "duration": 0.1590909,
                "tempo": 120.0
            },
            {
                "start_time": 110.2636364,
                "end_time": 110.7477273,
                "pitch": 35,
                "velocity": 127,
                "duration": 0.4840909,
                "tempo": 120.0
            },
            {
                "start_time": 110.2636364,
                "end_time": 110.7477273,
                "pitch": 35,
                "velocity": 127,
                "duration": 0.4840909,
                "tempo": 120.0
            },
            {
                "start_time": 110.7477273,
                "end_time": 110.9068182,
                "pitch": 35,
                "velocity": 127,
                "duration": 0.1590909,
                "tempo": 120.0
            },
            {
                "start_time": 112.5022727,
                "end_time": 112.6636364,
                "pitch": 33,
                "velocity": 127,
                "duration": 0.1613636,
                "tempo": 120.0
            },
            {
                "start_time": 112.6636364,
                "end_time": 112.8227273,
                "pitch": 33,
                "velocity": 127,
                "duration": 0.1590909,
                "tempo": 120.0
            },
            {
                "start_time": 112.8227273,
                "end_time": 113.3068182,
                "pitch": 31,
                "velocity": 127,
                "duration": 0.4840909,
                "tempo": 120.0
            },
            {
                "start_time": 112.8227273,
                "end_time": 113.3068182,
                "pitch": 31,
                "velocity": 127,
                "duration": 0.4840909,
                "tempo": 120.0
            },
            {
                "start_time": 113.3068182,
                "end_time": 113.4659091,
                "pitch": 31,
                "velocity": 127,
                "duration": 0.1590909,
                "tempo": 120.0
            },
            {
                "start_time": 115.0613636,
                "end_time": 115.2227273,
                "pitch": 31,
                "velocity": 127,
                "duration": 0.1613636,
                "tempo": 120.0
            },
            {
                "start_time": 115.2227273,
                "end_time": 115.3818182,
                "pitch": 31,
                "velocity": 127,
                "duration": 0.1590909,
                "tempo": 120.0
            },
            {
                "start_time": 115.3840909,
                "end_time": 115.8659091,
                "pitch": 33,
                "velocity": 127,
                "duration": 0.4818182,
                "tempo": 120.0
            },
            {
                "start_time": 115.8659091,
                "end_time": 116.0272727,
                "pitch": 33,
                "velocity": 127,
                "duration": 0.1613636,
                "tempo": 120.0
            },
            {
                "start_time": 117.6272727,
                "end_time": 117.7840909,
                "pitch": 33,
                "velocity": 127,
                "duration": 0.1568182,
                "tempo": 120.0
            },
            {
                "start_time": 117.7840909,
                "end_time": 117.9431818,
                "pitch": 33,
                "velocity": 127,
                "duration": 0.1590909,
                "tempo": 120.0
            },
            {
                "start_time": 117.9431818,
                "end_time": 118.425,
                "pitch": 35,
                "velocity": 127,
                "duration": 0.4818182,
                "tempo": 120.0
            },
            {
                "start_time": 117.9431818,
                "end_time": 118.425,
                "pitch": 35,
                "velocity": 127,
                "duration": 0.4818182,
                "tempo": 120.0
            },
            {
                "start_time": 118.425,
                "end_time": 118.5863636,
                "pitch": 35,
                "velocity": 127,
                "duration": 0.1613636,
                "tempo": 120.0
            },
            {
                "start_time": 120.1931818,
                "end_time": 120.3545455,
                "pitch": 35,
                "velocity": 127,
                "duration": 0.1613636,
                "tempo": 120.0
            },
            {
                "start_time": 120.3545455,
                "end_time": 120.5159091,
                "pitch": 35,
                "velocity": 127,
                "duration": 0.1613636,
                "tempo": 120.0
            },
            {
                "start_time": 120.5159091,
                "end_time": 120.9863636,
                "pitch": 35,
                "velocity": 127,
                "duration": 0.4704545,
                "tempo": 120.0
            },
            {
                "start_time": 120.9863636,
                "end_time": 121.1454545,
                "pitch": 35,
                "velocity": 127,
                "duration": 0.1590909,
                "tempo": 120.0
            },
            {
                "start_time": 122.7454545,
                "end_time": 122.9068182,
                "pitch": 33,
                "velocity": 127,
                "duration": 0.1613636,
                "tempo": 120.0
            },
            {
                "start_time": 122.9068182,
                "end_time": 123.0659091,
                "pitch": 33,
                "velocity": 127,
                "duration": 0.1590909,
                "tempo": 120.0
            }
        ]
    }
}