{
    "mood": "sad",
    "instruments": {
        "Clarinet": [
            {
                "start_time": 0.1295455,
                "end_time": 0.2477273,
                "pitch": 56,
                "velocity": 127,
                "duration": 0.1181818,
                "tempo": 120.0
            },
            {
                "start_time": 0.2613636,
                "end_time": 0.2636364,
                "pitch": 20,
                "velocity": 127,
                "duration": 0.0022727,
                "tempo": 120.0
            },
            {
                "start_time": 0.2636364,
                "end_time": 10.3795455,
                "pitch": 53,
                "velocity": 127,
                "duration": 10.1159091,
                "tempo": 120.0
            },
            {
                "start_time": 10.3795455,
                "end_time": 10.3818182,
                "pitch": 67,
                "velocity": 127,
                "duration": 0.0022727,
                "tempo": 120.0
            },
            {
                "start_time": 10.3818182,
                "end_time": 10.4136364,
                "pitch": 63,
                "velocity": 127,
                "duration": 0.0318182,
                "tempo": 120.0
            },
            {
                "start_time": 10.4136364,
                "end_time": 10.6136364,
                "pitch": 67,
                "velocity": 127,
                "duration": 0.2,
                "tempo": 120.0
            },
            {
                "start_time": 10.6136364,
                "end_time": 10.6477273,
                "pitch": 67,
                "velocity": 127,
                "duration": 0.0340909,
                "tempo": 120.0
            },
            {
                "start_time": 10.6477273,
                "end_time": 10.6795455,
                "pitch": 63,
                "velocity": 127,
                "duration": 0.0318182,
                "tempo": 120.0
            },
            {
                "start_time": 10.4136364,
                "end_time": 10.6795455,
                "pitch": 77,
                "velocity": 127,
                "duration": 0.2659091,
                "tempo": 120.0
            },
            {
                "start_time": 10.6795455,
                "end_time": 10.7136364,
                "pitch": 67,
                "velocity": 127,
                "duration": 0.0340909,
                "tempo": 120.0
            },
            {
                "start_time": 10.3795455,
                "end_time": 11.1159091,
                "pitch": 78,
                "velocity": 127,
                "duration": 0.7363636,
                "tempo": 120.0
            },
            {
                "start_time": 11.1159091,
                "end_time": 11.2840909,
                "pitch": 67,
                "velocity": 127,
                "duration": 0.1681818,
                "tempo": 120.0
            },
            {
                "start_time": 11.1159091,
                "end_time": 11.8863636,
                "pitch": 78,
                "velocity": 127,
                "duration": 0.7704545,
                "tempo": 120.0
            },
            {
                "start_time": 11.8863636,
                "end_time": 12.85,
                "pitch": 67,
                "velocity": 127,
                "duration": 0.9636364,
                "tempo": 120.0
            },
            {
                "start_time": 12.8840909,
                "end_time": 14.3659091,
                "pitch": 67,
                "velocity": 127,
                "duration": 1.4818182,
                "tempo": 120.0
            },
            {
                "start_time": 14.3659091,
                "end_time": 15.8954545,
                "pitch": 69,
                "velocity": 127,
                "duration": 1.5295455,
                "tempo": 120.0
            },
            {
                "start_time": 15.9318182,
                "end_time": 16.4068182,
                "pitch": 65,
                "velocity": 127,
                "duration": 0.475,
                "tempo": 120.0
            },
            {
                "start_time": 15.9318182,
                "end_time": 35.9704545,
                "pitch": 32,
                "velocity": 127,
                "duration": 20.0386364,
                "tempo": 120.0
            },
            {
                "start_time": 16.4409091,
                "end_time": 35.9704545,
                "pitch": 62,
                "velocity": 127,
                "duration": 19.5295455,
                "tempo": 120.0
            },
            {
                "start_time": 10.6795455,
                "end_time": 35.9704545,
                "pitch": 77,
                "velocity": 127,
                "duration": 25.2909091,
                "tempo": 120.0
            },
            {
                "start_time": 35.9704545,
                "end_time": 36.0022727,
                "pitch": 66,
                "velocity": 127,
                "duration": 0.0318182,
                "tempo": 120.0
            },
            {
                "start_time": 35.9704545,
                "end_time": 36.2386364,
                "pitch": 69,
                "velocity": 127,
                "duration": 0.2681818,
                "tempo": 120.0
            },
            {
                "start_time": 36.0022727,
                "end_time": 36.2386364,
                "pitch": 69,
                "velocity": 127,
                "duration": 0.2363636,
                "tempo": 120.0
            },
            {
                "start_time": 36.2386364,
                "end_time": 36.2704545,
                "pitch": 66,
                "velocity": 127,
                "duration": 0.0318182,
                "tempo": 120.0
            },
            {
                "start_time": 36.3045455,
                "end_time": 46.4113636,
                "pitch": 74,
                "velocity": 127,
                "duration": 10.1068182,
                "tempo": 120.0
            },
            {
                "start_time": 35.9704545,
                "end_time": 46.6159091,
                "pitch": 77,
                "velocity": 127,
                "duration": 10.6454545,
                "tempo": 120.0
            },
            {
                "start_time": 46.4477273,
                "end_time": 46.6159091,
                "pitch": 77,
                "velocity": 127,
                "duration": 0.1681818,
                "tempo": 120.0
            },
            {
                "start_time": 46.4477273,
                "end_time": 46.8204545,
                "pitch": 74,
                "velocity": 127,
                "duration": 0.3727273,
                "tempo": 120.0
            },
            {
                "start_time": 46.65,
                "end_time": 46.8204545,
                "pitch": 74,
                "velocity": 127,
                "duration": 0.1704545,
                "tempo": 120.0
            },
            {
                "start_time": 46.8863636,
                "end_time": 47.0840909,
                "pitch": 74,
                "velocity": 127,
                "duration": 0.1977273,
                "tempo": 120.0
            },
            {
                "start_time": 47.1159091,
                "end_time": 47.3477273,
                "pitch": 72,
                "velocity": 127,
                "duration": 0.2318182,
                "tempo": 120.0
            },
            {
                "start_time": 47.3795455,
                "end_time": 47.675,
                "pitch": 73,
                "velocity": 127,
                "duration": 0.2954545,
                "tempo": 120.0
            },
            {
                "start_time": 46.65,
                "end_time": 47.7090909,
                "pitch": 77,
                "velocity": 127,
                "duration": 1.0590909,
                "tempo": 120.0
            },
            {
                "start_time": 47.7090909,
                "end_time": 48.0045455,
                "pitch": 69,
                "velocity": 127,
                "duration": 0.2954545,
                "tempo": 120.0
            },
            {
                "start_time": 48.0386364,
                "end_time": 48.3681818,
                "pitch": 69,
                "velocity": 127,
                "duration": 0.3295455,
                "tempo": 120.0
            },
            {
                "start_time": 48.7954545,
                "end_time": 64.9772727,
                "pitch": 62,
                "velocity": 127,
                "duration": 16.1818182,
                "tempo": 120.0
            },
            {
                "start_time": 16.4409091,
                "end_time": 64.9795455,
                "pitch": 65,
                "velocity": 127,
                "duration": 48.5386364,
                "tempo": 120.0
            },
            {
                "start_time": 64.9772727,
                "end_time": 64.9795455,
                "pitch": 65,
                "velocity": 127,
                "duration": 0.0022727,
                "tempo": 120.0
            },
            {
                "start_time": 64.9795455,
                "end_time": 65.0113636,
                "pitch": 61,
                "velocity": 127,
                "duration": 0.0318182,
                "tempo": 120.0
            },
            {
                "start_time": 65.0113636,
                "end_time": 65.2454545,
                "pitch": 65,
                "velocity": 127,
                "duration": 0.2340909,
                "tempo": 120.0
            },
            {
                "start_time": 65.2454545,
                "end_time": 65.2795455,
                "pitch": 61,
                "velocity": 127,
                "duration": 0.0340909,
                "tempo": 120.0
            },
            {
                "start_time": 65.2795455,
                "end_time": 65.3113636,
                "pitch": 65,
                "velocity": 127,
                "duration": 0.0318182,
                "tempo": 120.0
            },
            {
                "start_time": 11.8863636,
                "end_time": 65.3454545,
                "pitch": 78,
                "velocity": 127,
                "duration": 53.4590909,
                "tempo": 120.0
            },
            {
                "start_time": 65.3454545,
                "end_time": 65.6818182,
                "pitch": 67,
                "velocity": 127,
                "duration": 0.3363636,
                "tempo": 120.0
            },
            {
                "start_time": 66.15,
                "end_time": 66.4863636,
                "pitch": 74,
                "velocity": 127,
                "duration": 0.3363636,
                "tempo": 120.0
            },
            {
                "start_time": 66.5863636,
                "end_time": 66.9204545,
                "pitch": 72,
                "velocity": 127,
                "duration": 0.3340909,
                "tempo": 120.0
            },
            {
                "start_time": 47.7090909,
                "end_time": 67.0545455,
                "pitch": 77,
                "velocity": 127,
                "duration": 19.3454545,
                "tempo": 120.0
            },
            {
                "start_time": 67.0545455,
                "end_time": 67.3954545,
                "pitch": 69,
                "velocity": 127,
                "duration": 0.3409091,
                "tempo": 120.0
            },
            {
                "start_time": 36.3045455,
                "end_time": 67.5318182,
                "pitch": 44,
                "velocity": 127,
                "duration": 31.2272727,
                "tempo": 120.0
            },
            {
                "start_time": 67.0545455,
                "end_time": 67.8727273,
                "pitch": 77,
                "velocity": 127,
                "duration": 0.8181818,
                "tempo": 120.0
            },
            {
                "start_time": 67.5318182,
                "end_time": 67.8727273,
                "pitch": 77,
                "velocity": 127,
                "duration": 0.3409091,
                "tempo": 120.0
            },
            {
                "start_time": 68.0431818,
                "end_time": 68.3840909,
                "pitch": 79,
                "velocity": 127,
                "duration": 0.3409091,
                "tempo": 120.0
            },
            {
                "start_time": 68.5545455,
                "end_time": 68.8954545,
                "pitch": 77,
                "velocity": 127,
                "duration": 0.3409091,
                "tempo": 120.0
            },
            {
                "start_time": 68.9977273,
                "end_time": 74.9295455,
                "pitch": 81,
                "velocity": 127,
                "duration": 5.9318182,
                "tempo": 120.0
            },
            {
                "start_time": 74.9977273,
                "end_time": 75.4704545,
                "pitch": 81,
                "velocity": 127,
                "duration": 0.4727273,
                "tempo": 120.0
            },
            {
                "start_time": 75.5045455,
                "end_time": 75.9818182,
                "pitch": 84,
                "velocity": 127,
                "duration": 0.4772727,
                "tempo": 120.0
            },
            {
                "start_time": 76.0159091,
                "end_time": 77.5681818,
                "pitch": 84,
                "velocity": 127,
                "duration": 1.5522727,
                "tempo": 120.0
            },
            {
                "start_time": 77.5681818,
                "end_time": 80.7886364,
                "pitch": 86,
                "velocity": 127,
                "duration": 3.2204545,
                "tempo": 120.0
            },
            {
                "start_time": 80.8227273,
                "end_time": 81.025,
                "pitch": 79,
                "velocity": 127,
                "duration": 0.2022727,
                "tempo": 120.0
            },
            {
                "start_time": 68.5545455,
                "end_time": 81.0909091,
                "pitch": 7,
                "velocity": 127,
                "duration": 12.5363636,
                "tempo": 120.0
            },
            {
                "start_time": 81.0909091,
                "end_time": 81.2886364,
                "pitch": 77,
                "velocity": 127,
                "duration": 0.1977273,
                "tempo": 120.0
            },
            {
                "start_time": 81.3227273,
                "end_time": 99.2136364,
                "pitch": 74,
                "velocity": 127,
                "duration": 17.8909091,
                "tempo": 120.0
            },
            {
                "start_time": 99.2136364,
                "end_time": 99.2159091,
                "pitch": 62,
                "velocity": 127,
                "duration": 0.0022727,
                "tempo": 120.0
            },
            {
                "start_time": 75.5045455,
                "end_time": 99.2477273,
                "pitch": 56,
                "velocity": 127,
                "duration": 23.7431818,
                "tempo": 120.0
            },
            {
                "start_time": 99.2159091,
                "end_time": 99.2477273,
                "pitch": 56,
                "velocity": 127,
                "duration": 0.0318182,
                "tempo": 120.0
            },
            {
                "start_time": 99.2477273,
                "end_time": 99.4818182,
                "pitch": 62,
                "velocity": 127,
                "duration": 0.2340909,
                "tempo": 120.0
            },
            {
                "start_time": 99.4818182,
                "end_time": 99.5159091,
                "pitch": 56,
                "velocity": 127,
                "duration": 0.0340909,
                "tempo": 120.0
            },
            {
                "start_time": 99.5159091,
                "end_time": 99.6818182,
                "pitch": 62,
                "velocity": 127,
                "duration": 0.1659091,
                "tempo": 120.0
            },
            {
                "start_time": 99.7477273,
                "end_time": 99.75,
                "pitch": 62,
                "velocity": 127,
                "duration": 0.0022727,
                "tempo": 120.0
            },
            {
                "start_time": 99.75,
                "end_time": 100.1840909,
                "pitch": 65,
                "velocity": 127,
                "duration": 0.4340909,
                "tempo": 120.0
            },
            {
                "start_time": 65.3454545,
                "end_time": 100.2522727,
                "pitch": 78,
                "velocity": 127,
                "duration": 34.9068182,
                "tempo": 120.0
            },
            {
                "start_time": 100.2522727,
                "end_time": 100.7204545,
                "pitch": 67,
                "velocity": 127,
                "duration": 0.4681818,
                "tempo": 120.0
            },
            {
                "start_time": 100.7545455,
                "end_time": 105.2795455,
                "pitch": 67,
                "velocity": 127,
                "duration": 4.525,
                "tempo": 120.0
            },
            {
                "start_time": 105.3113636,
                "end_time": 107.2840909,
                "pitch": 68,
                "velocity": 127,
                "duration": 1.9727273,
                "tempo": 120.0
            },
            {
                "start_time": 107.3863636,
                "end_time": 109.3,
                "pitch": 68,
                "velocity": 127,
                "duration": 1.9136364,
                "tempo": 120.0
            },
            {
                "start_time": 109.3659091,
                "end_time": 111.3386364,
                "pitch": 68,
                "velocity": 127,
                "duration": 1.9727273,
                "tempo": 120.0
            },
            {
                "start_time": 111.4409091,
                "end_time": 112.1227273,
                "pitch": 68,
                "velocity": 127,
                "duration": 0.6818182,
                "tempo": 120.0
            },
            {
                "start_time": 112.1545455,
                "end_time": 112.6090909,
                "pitch": 68,
                "velocity": 127,
                "duration": 0.4545455,
                "tempo": 120.0
            },
            {
                "start_time": 113.1590909,
                "end_time": 128.8136364,
                "pitch": 62,
                "velocity": 127,
                "duration": 15.6545455,
                "tempo": 120.0
            }
        ],
        "Electric Guitar (clean)": [
            {
                "start_time": 0.2636364,
                "end_time": 4.2159091,
                "pitch": 38,
                "velocity": 101,
                "duration": 3.9522727,
                "tempo": 120.0
            },
            {
                "start_time": 4.25,
                "end_time": 7.7909091,
                "pitch": 36,
                "velocity": 101,
                "duration": 3.5409091,
                "tempo": 120.0
            },
            {
                "start_time": 7.825,
                "end_time": 8.3022727,
                "pitch": 45,
                "velocity": 101,
                "duration": 0.4772727,
                "tempo": 120.0
            },
            {
                "start_time": 8.3363636,
                "end_time": 12.3545455,
                "pitch": 33,
                "velocity": 101,
                "duration": 4.0181818,
                "tempo": 120.0
            },
            {
                "start_time": 12.3886364,
                "end_time": 15.8977273,
                "pitch": 34,
                "velocity": 101,
                "duration": 3.5090909,
                "tempo": 120.0
            },
            {
                "start_time": 15.9318182,
                "end_time": 16.4068182,
                "pitch": 45,
                "velocity": 101,
                "duration": 0.475,
                "tempo": 120.0
            },
            {
                "start_time": 4.25,
                "end_time": 20.4295455,
                "pitch": 38,
                "velocity": 101,
                "duration": 16.1795455,
                "tempo": 120.0
            },
            {
                "start_time": 16.4431818,
                "end_time": 20.4295455,
                "pitch": 38,
                "velocity": 101,
                "duration": 3.9863636,
                "tempo": 120.0
            },
            {
                "start_time": 20.4613636,
                "end_time": 23.4590909,
                "pitch": 41,
                "velocity": 101,
                "duration": 2.9977273,
                "tempo": 120.0
            },
            {
                "start_time": 23.4931818,
                "end_time": 23.9704545,
                "pitch": 43,
                "velocity": 101,
                "duration": 0.4772727,
                "tempo": 120.0
            },
            {
                "start_time": 24.0045455,
                "end_time": 24.4795455,
                "pitch": 43,
                "velocity": 101,
                "duration": 0.475,
                "tempo": 120.0
            },
            {
                "start_time": 24.5159091,
                "end_time": 28.5,
                "pitch": 44,
                "velocity": 101,
                "duration": 3.9840909,
                "tempo": 120.0
            },
            {
                "start_time": 30.05,
                "end_time": 30.5113636,
                "pitch": 45,
                "velocity": 101,
                "duration": 0.4613636,
                "tempo": 120.0
            },
            {
                "start_time": 30.5431818,
                "end_time": 31.0204545,
                "pitch": 45,
                "velocity": 101,
                "duration": 0.4772727,
                "tempo": 120.0
            },
            {
                "start_time": 0.2636364,
                "end_time": 31.0545455,
                "pitch": 0,
                "velocity": 101,
                "duration": 30.7909091,
                "tempo": 120.0
            },
            {
                "start_time": 31.0545455,
                "end_time": 31.5318182,
                "pitch": 40,
                "velocity": 101,
                "duration": 0.4772727,
                "tempo": 120.0
            },
            {
                "start_time": 31.5659091,
                "end_time": 32.0409091,
                "pitch": 33,
                "velocity": 101,
                "duration": 0.475,
                "tempo": 120.0
            },
            {
                "start_time": 16.4431818,
                "end_time": 32.0772727,
                "pitch": 7,
                "velocity": 101,
                "duration": 15.6340909,
                "tempo": 120.0
            },
            {
                "start_time": 32.0772727,
                "end_time": 32.5886364,
                "pitch": 36,
                "velocity": 101,
                "duration": 0.5113636,
                "tempo": 120.0
            },
            {
                "start_time": 20.4613636,
                "end_time": 36.6045455,
                "pitch": 38,
                "velocity": 101,
                "duration": 16.1431818,
                "tempo": 120.0
            },
            {
                "start_time": 32.5886364,
                "end_time": 36.6045455,
                "pitch": 38,
                "velocity": 101,
                "duration": 4.0159091,
                "tempo": 120.0
            },
            {
                "start_time": 36.6727273,
                "end_time": 40.1318182,
                "pitch": 36,
                "velocity": 101,
                "duration": 3.4590909,
                "tempo": 120.0
            },
            {
                "start_time": 7.825,
                "end_time": 40.1659091,
                "pitch": 52,
                "velocity": 101,
                "duration": 32.3409091,
                "tempo": 120.0
            },
            {
                "start_time": 40.1659091,
                "end_time": 40.625,
                "pitch": 45,
                "velocity": 101,
                "duration": 0.4590909,
                "tempo": 120.0
            },
            {
                "start_time": 40.6931818,
                "end_time": 44.6772727,
                "pitch": 33,
                "velocity": 101,
                "duration": 3.9840909,
                "tempo": 120.0
            },
            {
                "start_time": 44.7431818,
                "end_time": 48.2363636,
                "pitch": 34,
                "velocity": 101,
                "duration": 3.4931818,
                "tempo": 120.0
            },
            {
                "start_time": 48.3022727,
                "end_time": 48.7295455,
                "pitch": 45,
                "velocity": 101,
                "duration": 0.4272727,
                "tempo": 120.0
            },
            {
                "start_time": 32.0772727,
                "end_time": 48.7977273,
                "pitch": 7,
                "velocity": 101,
                "duration": 16.7204545,
                "tempo": 120.0
            },
            {
                "start_time": 36.6727273,
                "end_time": 52.8159091,
                "pitch": 38,
                "velocity": 101,
                "duration": 16.1431818,
                "tempo": 120.0
            },
            {
                "start_time": 48.7977273,
                "end_time": 52.8159091,
                "pitch": 38,
                "velocity": 101,
                "duration": 4.0181818,
                "tempo": 120.0
            },
            {
                "start_time": 52.85,
                "end_time": 55.85,
                "pitch": 41,
                "velocity": 101,
                "duration": 3.0,
                "tempo": 120.0
            },
            {
                "start_time": 23.4931818,
                "end_time": 55.9159091,
                "pitch": 54,
                "velocity": 101,
                "duration": 32.4227273,
                "tempo": 120.0
            },
            {
                "start_time": 55.9159091,
                "end_time": 56.3431818,
                "pitch": 43,
                "velocity": 101,
                "duration": 0.4272727,
                "tempo": 120.0
            },
            {
                "start_time": 56.4090909,
                "end_time": 56.8704545,
                "pitch": 43,
                "velocity": 101,
                "duration": 0.4613636,
                "tempo": 120.0
            },
            {
                "start_time": 56.9022727,
                "end_time": 60.9227273,
                "pitch": 44,
                "velocity": 101,
                "duration": 4.0204545,
                "tempo": 120.0
            },
            {
                "start_time": 62.4386364,
                "end_time": 62.9,
                "pitch": 45,
                "velocity": 101,
                "duration": 0.4613636,
                "tempo": 120.0
            },
            {
                "start_time": 62.9340909,
                "end_time": 63.4022727,
                "pitch": 45,
                "velocity": 101,
                "duration": 0.4681818,
                "tempo": 120.0
            },
            {
                "start_time": 31.0545455,
                "end_time": 63.4704545,
                "pitch": 0,
                "velocity": 101,
                "duration": 32.4159091,
                "tempo": 120.0
            },
            {
                "start_time": 63.4704545,
                "end_time": 63.9045455,
                "pitch": 40,
                "velocity": 101,
                "duration": 0.4340909,
                "tempo": 120.0
            },
            {
                "start_time": 31.5659091,
                "end_time": 63.9727273,
                "pitch": 42,
                "velocity": 101,
                "duration": 32.4068182,
                "tempo": 120.0
            },
            {
                "start_time": 63.9727273,
                "end_time": 64.4409091,
                "pitch": 33,
                "velocity": 101,
                "duration": 0.4681818,
                "tempo": 120.0
            },
            {
                "start_time": 48.7977273,
                "end_time": 64.475,
                "pitch": 7,
                "velocity": 101,
                "duration": 15.6772727,
                "tempo": 120.0
            },
            {
                "start_time": 64.475,
                "end_time": 64.9795455,
                "pitch": 36,
                "velocity": 101,
                "duration": 0.5045455,
                "tempo": 120.0
            },
            {
                "start_time": 52.85,
                "end_time": 69.0318182,
                "pitch": 38,
                "velocity": 101,
                "duration": 16.1818182,
                "tempo": 120.0
            },
            {
                "start_time": 64.9795455,
                "end_time": 69.0318182,
                "pitch": 38,
                "velocity": 101,
                "duration": 4.0522727,
                "tempo": 120.0
            },
            {
                "start_time": 69.0659091,
                "end_time": 72.5431818,
                "pitch": 36,
                "velocity": 101,
                "duration": 3.4772727,
                "tempo": 120.0
            },
            {
                "start_time": 40.1659091,
                "end_time": 72.5772727,
                "pitch": 52,
                "velocity": 101,
                "duration": 32.4113636,
                "tempo": 120.0
            },
            {
                "start_time": 72.5772727,
                "end_time": 73.0522727,
                "pitch": 45,
                "velocity": 101,
                "duration": 0.475,
                "tempo": 120.0
            },
            {
                "start_time": 73.0863636,
                "end_time": 77.1068182,
                "pitch": 33,
                "velocity": 101,
                "duration": 4.0204545,
                "tempo": 120.0
            },
            {
                "start_time": 77.1409091,
                "end_time": 80.6227273,
                "pitch": 34,
                "velocity": 101,
                "duration": 3.4818182,
                "tempo": 120.0
            },
            {
                "start_time": 80.6568182,
                "end_time": 81.125,
                "pitch": 45,
                "velocity": 101,
                "duration": 0.4681818,
                "tempo": 120.0
            },
            {
                "start_time": 64.475,
                "end_time": 81.1590909,
                "pitch": 7,
                "velocity": 101,
                "duration": 16.6840909,
                "tempo": 120.0
            },
            {
                "start_time": 69.0659091,
                "end_time": 85.1772727,
                "pitch": 38,
                "velocity": 101,
                "duration": 16.1113636,
                "tempo": 120.0
            },
            {
                "start_time": 81.1590909,
                "end_time": 85.1772727,
                "pitch": 38,
                "velocity": 101,
                "duration": 4.0181818,
                "tempo": 120.0
            },
            {
                "start_time": 85.2113636,
                "end_time": 88.2090909,
                "pitch": 41,
                "velocity": 101,
                "duration": 2.9977273,
                "tempo": 120.0
            },
            {
                "start_time": 55.9159091,
                "end_time": 88.2431818,
                "pitch": 54,
                "velocity": 101,
                "duration": 32.3272727,
                "tempo": 120.0
            },
            {
                "start_time": 88.2431818,
                "end_time": 88.7045455,
                "pitch": 43,
                "velocity": 101,
                "duration": 0.4613636,
                "tempo": 120.0
            },
            {
                "start_time": 88.7363636,
                "end_time": 89.1977273,
                "pitch": 43,
                "velocity": 101,
                "duration": 0.4613636,
                "tempo": 120.0
            },
            {
                "start_time": 89.2318182,
                "end_time": 93.25,
                "pitch": 44,
                "velocity": 101,
                "duration": 4.0181818,
                "tempo": 120.0
            },
            {
                "start_time": 94.7977273,
                "end_time": 95.2590909,
                "pitch": 45,
                "velocity": 101,
                "duration": 0.4613636,
                "tempo": 120.0
            },
            {
                "start_time": 95.2931818,
                "end_time": 95.7613636,
                "pitch": 45,
                "velocity": 101,
                "duration": 0.4681818,
                "tempo": 120.0
            },
            {
                "start_time": 63.4704545,
                "end_time": 95.7954545,
                "pitch": 0,
                "velocity": 101,
                "duration": 32.325,
                "tempo": 120.0
            },
            {
                "start_time": 95.7954545,
                "end_time": 96.2636364,
                "pitch": 40,
                "velocity": 101,
                "duration": 0.4681818,
                "tempo": 120.0
            },
            {
                "start_time": 63.9727273,
                "end_time": 96.2977273,
                "pitch": 42,
                "velocity": 101,
                "duration": 32.325,
                "tempo": 120.0
            },
            {
                "start_time": 96.2977273,
                "end_time": 96.7659091,
                "pitch": 33,
                "velocity": 101,
                "duration": 0.4681818,
                "tempo": 120.0
            },
            {
                "start_time": 81.1590909,
                "end_time": 96.8,
                "pitch": 7,
                "velocity": 101,
                "duration": 15.6409091,
                "tempo": 120.0
            },
            {
                "start_time": 96.8,
                "end_time": 97.3022727,
                "pitch": 36,
                "velocity": 101,
                "duration": 0.5022727,
                "tempo": 120.0
            },
            {
                "start_time": 85.2113636,
                "end_time": 101.2909091,
                "pitch": 38,
                "velocity": 101,
                "duration": 16.0795455,
                "tempo": 120.0
            },
            {
                "start_time": 97.3022727,
                "end_time": 101.2909091,
                "pitch": 38,
                "velocity": 101,
                "duration": 3.9886364,
                "tempo": 120.0
            },
            {
                "start_time": 101.3568182,
                "end_time": 104.85,
                "pitch": 36,
                "velocity": 101,
                "duration": 3.4931818,
                "tempo": 120.0
            },
            {
                "start_time": 72.5772727,
                "end_time": 104.8840909,
                "pitch": 52,
                "velocity": 101,
                "duration": 32.3068182,
                "tempo": 120.0
            },
            {
                "start_time": 104.8840909,
                "end_time": 105.3454545,
                "pitch": 45,
                "velocity": 101,
                "duration": 0.4613636,
                "tempo": 120.0
            },
            {
                "start_time": 105.4113636,
                "end_time": 109.3977273,
                "pitch": 33,
                "velocity": 101,
                "duration": 3.9863636,
                "tempo": 120.0
            },
            {
                "start_time": 109.4636364,
                "end_time": 112.9318182,
                "pitch": 34,
                "velocity": 101,
                "duration": 3.4681818,
                "tempo": 120.0
            },
            {
                "start_time": 112.9977273,
                "end_time": 113.4181818,
                "pitch": 45,
                "velocity": 101,
                "duration": 0.4204545,
                "tempo": 120.0
            },
            {
                "start_time": 96.8,
                "end_time": 113.4840909,
                "pitch": 7,
                "velocity": 101,
                "duration": 16.6840909,
                "tempo": 120.0
            },
            {
                "start_time": 101.3568182,
                "end_time": 117.5045455,
                "pitch": 38,
                "velocity": 101,
                "duration": 16.1477273,
                "tempo": 120.0
            },
            {
                "start_time": 113.4840909,
                "end_time": 117.5045455,
                "pitch": 38,
                "velocity": 101,
                "duration": 4.0204545,
                "tempo": 120.0
            },
            {
                "start_time": 117.5363636,
                "end_time": 120.5022727,
                "pitch": 41,
                "velocity": 101,
                "duration": 2.9659091,
                "tempo": 120.0
            },
            {
                "start_time": 88.2431818,
                "end_time": 120.5681818,
                "pitch": 54,
                "velocity": 101,
                "duration": 32.325,
                "tempo": 120.0
            },
            {
                "start_time": 120.5681818,
                "end_time": 120.9954545,
                "pitch": 43,
                "velocity": 101,
                "duration": 0.4272727,
                "tempo": 120.0
            },
            {
                "start_time": 121.0613636,
                "end_time": 121.5227273,
                "pitch": 43,
                "velocity": 101,
                "duration": 0.4613636,
                "tempo": 120.0
            },
            {
                "start_time": 121.5568182,
                "end_time": 125.5409091,
                "pitch": 44,
                "velocity": 101,
                "duration": 3.9840909,
                "tempo": 120.0
            },
            {
                "start_time": 127.0840909,
                "end_time": 127.5522727,
                "pitch": 45,
                "velocity": 101,
                "duration": 0.4681818,
                "tempo": 120.0
            },
            {
                "start_time": 127.5863636,
                "end_time": 128.0545455,
                "pitch": 45,
                "velocity": 101,
                "duration": 0.4681818,
                "tempo": 120.0
            },
            {
                "start_time": 95.7954545,
                "end_time": 128.1227273,
                "pitch": 0,
                "velocity": 101,
                "duration": 32.3272727,
                "tempo": 120.0
            },
            {
                "start_time": 128.1227273,
                "end_time": 128.5568182,
                "pitch": 40,
                "velocity": 101,
                "duration": 0.4340909,
                "tempo": 120.0
            },
            {
                "start_time": 96.2977273,
                "end_time": 128.625,
                "pitch": 42,
                "velocity": 101,
                "duration": 32.3272727,
                "tempo": 120.0
            },
            {
                "start_time": 128.625,
                "end_time": 128.8136364,
                "pitch": 33,
                "velocity": 101,
                "duration": 0.1886364,
                "tempo": 120.0
            }
        ],
        "Acoustic Grand Piano": [
            {
                "start_time": 5.2545455,
                "end_time": 8.3386364,
                "pitch": 57,
                "velocity": 101,
                "duration": 3.0840909,
                "tempo": 120.0
            },
            {
                "start_time": 8.3386364,
                "end_time": 8.3704545,
                "pitch": 52,
                "velocity": 101,
                "duration": 0.0318182,
                "tempo": 120.0
            },
            {
                "start_time": 8.3704545,
                "end_time": 8.6045455,
                "pitch": 56,
                "velocity": 101,
                "duration": 0.2340909,
                "tempo": 120.0
            },
            {
                "start_time": 8.6045455,
                "end_time": 8.6386364,
                "pitch": 52,
                "velocity": 101,
                "duration": 0.0340909,
                "tempo": 120.0
            },
            {
                "start_time": 8.3704545,
                "end_time": 8.6386364,
                "pitch": 66,
                "velocity": 101,
                "duration": 0.2681818,
                "tempo": 120.0
            },
            {
                "start_time": 8.6386364,
                "end_time": 8.8727273,
                "pitch": 56,
                "velocity": 101,
                "duration": 0.2340909,
                "tempo": 120.0
            },
            {
                "start_time": 8.8727273,
                "end_time": 8.9068182,
                "pitch": 52,
                "velocity": 101,
                "duration": 0.0340909,
                "tempo": 120.0
            },
            {
                "start_time": 8.6386364,
                "end_time": 8.9068182,
                "pitch": 66,
                "velocity": 101,
                "duration": 0.2681818,
                "tempo": 120.0
            },
            {
                "start_time": 8.9068182,
                "end_time": 9.1409091,
                "pitch": 56,
                "velocity": 101,
                "duration": 0.2340909,
                "tempo": 120.0
            },
            {
                "start_time": 9.1409091,
                "end_time": 9.175,
                "pitch": 52,
                "velocity": 101,
                "duration": 0.0340909,
                "tempo": 120.0
            },
            {
                "start_time": 8.9068182,
                "end_time": 9.175,
                "pitch": 66,
                "velocity": 101,
                "duration": 0.2681818,
                "tempo": 120.0
            },
            {
                "start_time": 9.175,
                "end_time": 9.4090909,
                "pitch": 56,
                "velocity": 101,
                "duration": 0.2340909,
                "tempo": 120.0
            },
            {
                "start_time": 9.4090909,
                "end_time": 9.4431818,
                "pitch": 52,
                "velocity": 101,
                "duration": 0.0340909,
                "tempo": 120.0
            },
            {
                "start_time": 9.175,
                "end_time": 9.4431818,
                "pitch": 66,
                "velocity": 101,
                "duration": 0.2681818,
                "tempo": 120.0
            },
            {
                "start_time": 9.4431818,
                "end_time": 9.6772727,
                "pitch": 56,
                "velocity": 101,
                "duration": 0.2340909,
                "tempo": 120.0
            },
            {
                "start_time": 9.6772727,
                "end_time": 9.7090909,
                "pitch": 52,
                "velocity": 101,
                "duration": 0.0318182,
                "tempo": 120.0
            },
            {
                "start_time": 9.4431818,
                "end_time": 9.7090909,
                "pitch": 66,
                "velocity": 101,
                "duration": 0.2659091,
                "tempo": 120.0
            },
            {
                "start_time": 9.7090909,
                "end_time": 10.2795455,
                "pitch": 56,
                "velocity": 101,
                "duration": 0.5704545,
                "tempo": 120.0
            },
            {
                "start_time": 10.3795455,
                "end_time": 12.3227273,
                "pitch": 53,
                "velocity": 101,
                "duration": 1.9431818,
                "tempo": 120.0
            },
            {
                "start_time": 9.7090909,
                "end_time": 12.3909091,
                "pitch": 66,
                "velocity": 101,
                "duration": 2.6818182,
                "tempo": 120.0
            },
            {
                "start_time": 5.2545455,
                "end_time": 14.0363636,
                "pitch": 55,
                "velocity": 101,
                "duration": 8.7818182,
                "tempo": 120.0
            },
            {
                "start_time": 12.3909091,
                "end_time": 14.0363636,
                "pitch": 55,
                "velocity": 101,
                "duration": 1.6454545,
                "tempo": 120.0
            },
            {
                "start_time": 14.0363636,
                "end_time": 14.0704545,
                "pitch": 55,
                "velocity": 101,
                "duration": 0.0340909,
                "tempo": 120.0
            },
            {
                "start_time": 14.0363636,
                "end_time": 14.3,
                "pitch": 0,
                "velocity": 101,
                "duration": 0.2636364,
                "tempo": 120.0
            },
            {
                "start_time": 14.0704545,
                "end_time": 14.3,
                "pitch": 55,
                "velocity": 101,
                "duration": 0.2295455,
                "tempo": 120.0
            },
            {
                "start_time": 14.3,
                "end_time": 14.3340909,
                "pitch": 55,
                "velocity": 101,
                "duration": 0.0340909,
                "tempo": 120.0
            },
            {
                "start_time": 14.0704545,
                "end_time": 14.3340909,
                "pitch": 67,
                "velocity": 101,
                "duration": 0.2636364,
                "tempo": 120.0
            },
            {
                "start_time": 14.3,
                "end_time": 14.5704545,
                "pitch": 0,
                "velocity": 101,
                "duration": 0.2704545,
                "tempo": 120.0
            },
            {
                "start_time": 14.3340909,
                "end_time": 14.5704545,
                "pitch": 55,
                "velocity": 101,
                "duration": 0.2363636,
                "tempo": 120.0
            },
            {
                "start_time": 14.5704545,
                "end_time": 14.6045455,
                "pitch": 55,
                "velocity": 101,
                "duration": 0.0340909,
                "tempo": 120.0
            },
            {
                "start_time": 14.3340909,
                "end_time": 14.6045455,
                "pitch": 67,
                "velocity": 101,
                "duration": 0.2704545,
                "tempo": 120.0
            },
            {
                "start_time": 14.5704545,
                "end_time": 14.8409091,
                "pitch": 0,
                "velocity": 101,
                "duration": 0.2704545,
                "tempo": 120.0
            },
            {
                "start_time": 14.6045455,
                "end_time": 14.8409091,
                "pitch": 55,
                "velocity": 101,
                "duration": 0.2363636,
                "tempo": 120.0
            },
            {
                "start_time": 14.8409091,
                "end_time": 14.8772727,
                "pitch": 55,
                "velocity": 101,
                "duration": 0.0363636,
                "tempo": 120.0
            },
            {
                "start_time": 14.8409091,
                "end_time": 15.1159091,
                "pitch": 0,
                "velocity": 101,
                "duration": 0.275,
                "tempo": 120.0
            },
            {
                "start_time": 14.8772727,
                "end_time": 15.1159091,
                "pitch": 55,
                "velocity": 101,
                "duration": 0.2386364,
                "tempo": 120.0
            },
            {
                "start_time": 15.1159091,
                "end_time": 15.15,
                "pitch": 55,
                "velocity": 101,
                "duration": 0.0340909,
                "tempo": 120.0
            },
            {
                "start_time": 14.6045455,
                "end_time": 15.15,
                "pitch": 67,
                "velocity": 101,
                "duration": 0.5454545,
                "tempo": 120.0
            },
            {
                "start_time": 15.15,
                "end_time": 15.3863636,
                "pitch": 55,
                "velocity": 101,
                "duration": 0.2363636,
                "tempo": 120.0
            },
            {
                "start_time": 15.1159091,
                "end_time": 15.3886364,
                "pitch": 0,
                "velocity": 101,
                "duration": 0.2727273,
                "tempo": 120.0
            },
            {
                "start_time": 15.3863636,
                "end_time": 15.3886364,
                "pitch": 0,
                "velocity": 101,
                "duration": 0.0022727,
                "tempo": 120.0
            },
            {
                "start_time": 15.3886364,
                "end_time": 15.4204545,
                "pitch": 55,
                "velocity": 101,
                "duration": 0.0318182,
                "tempo": 120.0
            },
            {
                "start_time": 15.15,
                "end_time": 15.4204545,
                "pitch": 67,
                "velocity": 101,
                "duration": 0.2704545,
                "tempo": 120.0
            },
            {
                "start_time": 15.4204545,
                "end_time": 15.6590909,
                "pitch": 55,
                "velocity": 101,
                "duration": 0.2386364,
                "tempo": 120.0
            },
            {
                "start_time": 15.6590909,
                "end_time": 15.6931818,
                "pitch": 55,
                "velocity": 101,
                "duration": 0.0340909,
                "tempo": 120.0
            },
            {
                "start_time": 15.4204545,
                "end_time": 15.6931818,
                "pitch": 67,
                "velocity": 101,
                "duration": 0.2727273,
                "tempo": 120.0
            },
            {
                "start_time": 15.6931818,
                "end_time": 15.9340909,
                "pitch": 55,
                "velocity": 101,
                "duration": 0.2409091,
                "tempo": 120.0
            },
            {
                "start_time": 15.9340909,
                "end_time": 15.9659091,
                "pitch": 55,
                "velocity": 101,
                "duration": 0.0318182,
                "tempo": 120.0
            },
            {
                "start_time": 15.6931818,
                "end_time": 15.9659091,
                "pitch": 67,
                "velocity": 101,
                "duration": 0.2727273,
                "tempo": 120.0
            },
            {
                "start_time": 15.9340909,
                "end_time": 16.2045455,
                "pitch": 0,
                "velocity": 101,
                "duration": 0.2704545,
                "tempo": 120.0
            },
            {
                "start_time": 15.9659091,
                "end_time": 16.2045455,
                "pitch": 55,
                "velocity": 101,
                "duration": 0.2386364,
                "tempo": 120.0
            },
            {
                "start_time": 16.2045455,
                "end_time": 16.2386364,
                "pitch": 55,
                "velocity": 101,
                "duration": 0.0340909,
                "tempo": 120.0
            },
            {
                "start_time": 15.9659091,
                "end_time": 16.2386364,
                "pitch": 67,
                "velocity": 101,
                "duration": 0.2727273,
                "tempo": 120.0
            },
            {
                "start_time": 16.2386364,
                "end_time": 16.4090909,
                "pitch": 55,
                "velocity": 101,
                "duration": 0.1704545,
                "tempo": 120.0
            },
            {
                "start_time": 17.2136364,
                "end_time": 18.7181818,
                "pitch": 55,
                "velocity": 101,
                "duration": 1.5045455,
                "tempo": 120.0
            },
            {
                "start_time": 18.7181818,
                "end_time": 20.3295455,
                "pitch": 57,
                "velocity": 101,
                "duration": 1.6113636,
                "tempo": 120.0
            },
            {
                "start_time": 21.2204545,
                "end_time": 24.4136364,
                "pitch": 57,
                "velocity": 101,
                "duration": 3.1931818,
                "tempo": 120.0
            },
            {
                "start_time": 16.2045455,
                "end_time": 26.9272727,
                "pitch": 0,
                "velocity": 101,
                "duration": 10.7227273,
                "tempo": 120.0
            },
            {
                "start_time": 25.2727273,
                "end_time": 26.9272727,
                "pitch": 56,
                "velocity": 101,
                "duration": 1.6545455,
                "tempo": 120.0
            },
            {
                "start_time": 26.9272727,
                "end_time": 26.9613636,
                "pitch": 55,
                "velocity": 101,
                "duration": 0.0340909,
                "tempo": 120.0
            },
            {
                "start_time": 16.2386364,
                "end_time": 26.9613636,
                "pitch": 67,
                "velocity": 101,
                "duration": 10.7227273,
                "tempo": 120.0
            },
            {
                "start_time": 26.9613636,
                "end_time": 27.1954545,
                "pitch": 55,
                "velocity": 101,
                "duration": 0.2340909,
                "tempo": 120.0
            },
            {
                "start_time": 27.1954545,
                "end_time": 27.2295455,
                "pitch": 55,
                "velocity": 101,
                "duration": 0.0340909,
                "tempo": 120.0
            },
            {
                "start_time": 27.2295455,
                "end_time": 27.4636364,
                "pitch": 55,
                "velocity": 101,
                "duration": 0.2340909,
                "tempo": 120.0
            },
            {
                "start_time": 27.4636364,
                "end_time": 27.4977273,
                "pitch": 55,
                "velocity": 101,
                "duration": 0.0340909,
                "tempo": 120.0
            },
            {
                "start_time": 26.9613636,
                "end_time": 27.4977273,
                "pitch": 67,
                "velocity": 101,
                "duration": 0.5363636,
                "tempo": 120.0
            },
            {
                "start_time": 26.9272727,
                "end_time": 27.7318182,
                "pitch": 0,
                "velocity": 101,
                "duration": 0.8045455,
                "tempo": 120.0
            },
            {
                "start_time": 27.4977273,
                "end_time": 27.7318182,
                "pitch": 55,
                "velocity": 101,
                "duration": 0.2340909,
                "tempo": 120.0
            },
            {
                "start_time": 27.7318182,
                "end_time": 27.7636364,
                "pitch": 55,
                "velocity": 101,
                "duration": 0.0318182,
                "tempo": 120.0
            },
            {
                "start_time": 27.4977273,
                "end_time": 27.7636364,
                "pitch": 67,
                "velocity": 101,
                "duration": 0.2659091,
                "tempo": 120.0
            },
            {
                "start_time": 27.7636364,
                "end_time": 28.0,
                "pitch": 55,
                "velocity": 101,
                "duration": 0.2363636,
                "tempo": 120.0
            },
            {
                "start_time": 28.0,
                "end_time": 28.0318182,
                "pitch": 55,
                "velocity": 101,
                "duration": 0.0318182,
                "tempo": 120.0
            },
            {
                "start_time": 27.7636364,
                "end_time": 28.0318182,
                "pitch": 67,
                "velocity": 101,
                "duration": 0.2681818,
                "tempo": 120.0
            },
            {
                "start_time": 27.7318182,
                "end_time": 28.2681818,
                "pitch": 0,
                "velocity": 101,
                "duration": 0.5363636,
                "tempo": 120.0
            },
            {
                "start_time": 28.0318182,
                "end_time": 28.2681818,
                "pitch": 55,
                "velocity": 101,
                "duration": 0.2363636,
                "tempo": 120.0
            },
            {
                "start_time": 28.2681818,
                "end_time": 28.3,
                "pitch": 55,
                "velocity": 101,
                "duration": 0.0318182,
                "tempo": 120.0
            },
            {
                "start_time": 28.0318182,
                "end_time": 28.3,
                "pitch": 67,
                "velocity": 101,
                "duration": 0.2681818,
                "tempo": 120.0
            },
            {
                "start_time": 28.3,
                "end_time": 28.4340909,
                "pitch": 55,
                "velocity": 101,
                "duration": 0.1340909,
                "tempo": 120.0
            },
            {
                "start_time": 28.2681818,
                "end_time": 28.5363636,
                "pitch": 0,
                "velocity": 101,
                "duration": 0.2681818,
                "tempo": 120.0
            },
            {
                "start_time": 28.5363636,
                "end_time": 36.6068182,
                "pitch": 53,
                "velocity": 127,
                "duration": 8.0704545,
                "tempo": 120.0
            },
            {
                "start_time": 12.3909091,
                "end_time": 37.6795455,
                "pitch": 66,
                "velocity": 101,
                "duration": 25.2886364,
                "tempo": 120.0
            },
            {
                "start_time": 10.3795455,
                "end_time": 40.6954545,
                "pitch": 7,
                "velocity": 101,
                "duration": 30.3159091,
                "tempo": 120.0
            },
            {
                "start_time": 37.6795455,
                "end_time": 40.6954545,
                "pitch": 57,
                "velocity": 101,
                "duration": 3.0159091,
                "tempo": 120.0
            },
            {
                "start_time": 40.6954545,
                "end_time": 40.7272727,
                "pitch": 52,
                "velocity": 101,
                "duration": 0.0318182,
                "tempo": 120.0
            },
            {
                "start_time": 37.6795455,
                "end_time": 40.7272727,
                "pitch": 66,
                "velocity": 101,
                "duration": 3.0477273,
                "tempo": 120.0
            },
            {
                "start_time": 40.7272727,
                "end_time": 40.9659091,
                "pitch": 56,
                "velocity": 101,
                "duration": 0.2386364,
                "tempo": 120.0
            },
            {
                "start_time": 40.9659091,
                "end_time": 40.9977273,
                "pitch": 52,
                "velocity": 101,
                "duration": 0.0318182,
                "tempo": 120.0
            },
            {
                "start_time": 40.7272727,
                "end_time": 40.9977273,
                "pitch": 66,
                "velocity": 101,
                "duration": 0.2704545,
                "tempo": 120.0
            },
            {
                "start_time": 40.9977273,
                "end_time": 41.2363636,
                "pitch": 56,
                "velocity": 101,
                "duration": 0.2386364,
                "tempo": 120.0
            },
            {
                "start_time": 41.2363636,
                "end_time": 41.2704545,
                "pitch": 52,
                "velocity": 101,
                "duration": 0.0340909,
                "tempo": 120.0
            },
            {
                "start_time": 40.9977273,
                "end_time": 41.2727273,
                "pitch": 66,
                "velocity": 101,
                "duration": 0.275,
                "tempo": 120.0
            },
            {
                "start_time": 41.2704545,
                "end_time": 41.2727273,
                "pitch": 66,
                "velocity": 101,
                "duration": 0.0022727,
                "tempo": 120.0
            },
            {
                "start_time": 41.2727273,
                "end_time": 41.5090909,
                "pitch": 56,
                "velocity": 101,
                "duration": 0.2363636,
                "tempo": 120.0
            },
            {
                "start_time": 41.5090909,
                "end_time": 41.5431818,
                "pitch": 52,
                "velocity": 101,
                "duration": 0.0340909,
                "tempo": 120.0
            },
            {
                "start_time": 41.5431818,
                "end_time": 41.7818182,
                "pitch": 56,
                "velocity": 101,
                "duration": 0.2386364,
                "tempo": 120.0
            },
            {
                "start_time": 41.7818182,
                "end_time": 41.8159091,
                "pitch": 52,
                "velocity": 101,
                "duration": 0.0340909,
                "tempo": 120.0
            },
            {
                "start_time": 41.5431818,
                "end_time": 41.8159091,
                "pitch": 66,
                "velocity": 101,
                "duration": 0.2727273,
                "tempo": 120.0
            },
            {
                "start_time": 41.8159091,
                "end_time": 42.0545455,
                "pitch": 56,
                "velocity": 101,
                "duration": 0.2386364,
                "tempo": 120.0
            },
            {
                "start_time": 42.0545455,
                "end_time": 42.0886364,
                "pitch": 52,
                "velocity": 101,
                "duration": 0.0340909,
                "tempo": 120.0
            },
            {
                "start_time": 41.8159091,
                "end_time": 42.0886364,
                "pitch": 66,
                "velocity": 101,
                "duration": 0.2727273,
                "tempo": 120.0
            },
            {
                "start_time": 42.0886364,
                "end_time": 42.6681818,
                "pitch": 56,
                "velocity": 101,
                "duration": 0.5795455,
                "tempo": 120.0
            },
            {
                "start_time": 40.6954545,
                "end_time": 42.7363636,
                "pitch": 7,
                "velocity": 101,
                "duration": 2.0409091,
                "tempo": 120.0
            },
            {
                "start_time": 42.7363636,
                "end_time": 44.6454545,
                "pitch": 53,
                "velocity": 101,
                "duration": 1.9090909,
                "tempo": 120.0
            },
            {
                "start_time": 42.0886364,
                "end_time": 44.7454545,
                "pitch": 66,
                "velocity": 101,
                "duration": 2.6568182,
                "tempo": 120.0
            },
            {
                "start_time": 28.5363636,
                "end_time": 46.4477273,
                "pitch": 0,
                "velocity": 127,
                "duration": 17.9113636,
                "tempo": 120.0
            },
            {
                "start_time": 44.7454545,
                "end_time": 46.4477273,
                "pitch": 55,
                "velocity": 101,
                "duration": 1.7022727,
                "tempo": 120.0
            },
            {
                "start_time": 46.4477273,
                "end_time": 46.4818182,
                "pitch": 55,
                "velocity": 101,
                "duration": 0.0340909,
                "tempo": 120.0
            },
            {
                "start_time": 28.3,
                "end_time": 46.4818182,
                "pitch": 67,
                "velocity": 101,
                "duration": 18.1818182,
                "tempo": 120.0
            },
            {
                "start_time": 46.4818182,
                "end_time": 46.7204545,
                "pitch": 55,
                "velocity": 101,
                "duration": 0.2386364,
                "tempo": 120.0
            },
            {
                "start_time": 46.7204545,
                "end_time": 46.7545455,
                "pitch": 55,
                "velocity": 101,
                "duration": 0.0340909,
                "tempo": 120.0
            },
            {
                "start_time": 46.4818182,
                "end_time": 46.7545455,
                "pitch": 67,
                "velocity": 101,
                "duration": 0.2727273,
                "tempo": 120.0
            },
            {
                "start_time": 46.4477273,
                "end_time": 46.9863636,
                "pitch": 0,
                "velocity": 101,
                "duration": 0.5386364,
                "tempo": 120.0
            },
            {
                "start_time": 46.7545455,
                "end_time": 46.9863636,
                "pitch": 55,
                "velocity": 101,
                "duration": 0.2318182,
                "tempo": 120.0
            },
            {
                "start_time": 46.9863636,
                "end_time": 47.0181818,
                "pitch": 55,
                "velocity": 101,
                "duration": 0.0318182,
                "tempo": 120.0
            },
            {
                "start_time": 46.7545455,
                "end_time": 47.0181818,
                "pitch": 67,
                "velocity": 101,
                "duration": 0.2636364,
                "tempo": 120.0
            },
            {
                "start_time": 46.9863636,
                "end_time": 47.25,
                "pitch": 0,
                "velocity": 101,
                "duration": 0.2636364,
                "tempo": 120.0
            },
            {
                "start_time": 47.0181818,
                "end_time": 47.25,
                "pitch": 55,
                "velocity": 101,
                "duration": 0.2318182,
                "tempo": 120.0
            },
            {
                "start_time": 47.25,
                "end_time": 47.2818182,
                "pitch": 55,
                "velocity": 101,
                "duration": 0.0318182,
                "tempo": 120.0
            },
            {
                "start_time": 47.0181818,
                "end_time": 47.2818182,
                "pitch": 67,
                "velocity": 101,
                "duration": 0.2636364,
                "tempo": 120.0
            },
            {
                "start_time": 47.2818182,
                "end_time": 47.5113636,
                "pitch": 55,
                "velocity": 101,
                "duration": 0.2295455,
                "tempo": 120.0
            },
            {
                "start_time": 47.25,
                "end_time": 47.5136364,
                "pitch": 0,
                "velocity": 101,
                "duration": 0.2636364,
                "tempo": 120.0
            },
            {
                "start_time": 47.5113636,
                "end_time": 47.5136364,
                "pitch": 0,
                "velocity": 101,
                "duration": 0.0022727,
                "tempo": 120.0
            },
            {
                "start_time": 47.5136364,
                "end_time": 47.5454545,
                "pitch": 55,
                "velocity": 101,
                "duration": 0.0318182,
                "tempo": 120.0
            },
            {
                "start_time": 47.2818182,
                "end_time": 47.5454545,
                "pitch": 67,
                "velocity": 101,
                "duration": 0.2636364,
                "tempo": 120.0
            },
            {
                "start_time": 47.5454545,
                "end_time": 47.775,
                "pitch": 55,
                "velocity": 101,
                "duration": 0.2295455,
                "tempo": 120.0
            },
            {
                "start_time": 47.775,
                "end_time": 47.8090909,
                "pitch": 55,
                "velocity": 101,
                "duration": 0.0340909,
                "tempo": 120.0
            },
            {
                "start_time": 47.5454545,
                "end_time": 47.8090909,
                "pitch": 67,
                "velocity": 101,
                "duration": 0.2636364,
                "tempo": 120.0
            },
            {
                "start_time": 47.775,
                "end_time": 48.0409091,
                "pitch": 0,
                "velocity": 101,
                "duration": 0.2659091,
                "tempo": 120.0
            },
            {
                "start_time": 47.8090909,
                "end_time": 48.0409091,
                "pitch": 55,
                "velocity": 101,
                "duration": 0.2318182,
                "tempo": 120.0
            },
            {
                "start_time": 48.0409091,
                "end_time": 48.0727273,
                "pitch": 55,
                "velocity": 101,
                "duration": 0.0318182,
                "tempo": 120.0
            },
            {
                "start_time": 47.8090909,
                "end_time": 48.0727273,
                "pitch": 67,
                "velocity": 101,
                "duration": 0.2636364,
                "tempo": 120.0
            },
            {
                "start_time": 48.0409091,
                "end_time": 48.3045455,
                "pitch": 0,
                "velocity": 101,
                "duration": 0.2636364,
                "tempo": 120.0
            },
            {
                "start_time": 48.0727273,
                "end_time": 48.3045455,
                "pitch": 55,
                "velocity": 101,
                "duration": 0.2318182,
                "tempo": 120.0
            },
            {
                "start_time": 48.3045455,
                "end_time": 48.3363636,
                "pitch": 55,
                "velocity": 101,
                "duration": 0.0318182,
                "tempo": 120.0
            },
            {
                "start_time": 48.0727273,
                "end_time": 48.3363636,
                "pitch": 67,
                "velocity": 101,
                "duration": 0.2636364,
                "tempo": 120.0
            },
            {
                "start_time": 48.3045455,
                "end_time": 48.5659091,
                "pitch": 0,
                "velocity": 101,
                "duration": 0.2613636,
                "tempo": 120.0
            },
            {
                "start_time": 48.3363636,
                "end_time": 48.5659091,
                "pitch": 55,
                "velocity": 101,
                "duration": 0.2295455,
                "tempo": 120.0
            },
            {
                "start_time": 48.5659091,
                "end_time": 48.5977273,
                "pitch": 55,
                "velocity": 101,
                "duration": 0.0318182,
                "tempo": 120.0
            },
            {
                "start_time": 48.3363636,
                "end_time": 48.5977273,
                "pitch": 67,
                "velocity": 101,
                "duration": 0.2613636,
                "tempo": 120.0
            },
            {
                "start_time": 48.5977273,
                "end_time": 48.7318182,
                "pitch": 55,
                "velocity": 101,
                "duration": 0.1340909,
                "tempo": 120.0
            },
            {
                "start_time": 49.5477273,
                "end_time": 51.1068182,
                "pitch": 55,
                "velocity": 101,
                "duration": 1.5590909,
                "tempo": 120.0
            },
            {
                "start_time": 51.1068182,
                "end_time": 52.7181818,
                "pitch": 57,
                "velocity": 101,
                "duration": 1.6113636,
                "tempo": 120.0
            },
            {
                "start_time": 53.6,
                "end_time": 56.7704545,
                "pitch": 57,
                "velocity": 101,
                "duration": 3.1704545,
                "tempo": 120.0
            },
            {
                "start_time": 48.5659091,
                "end_time": 59.3772727,
                "pitch": 0,
                "velocity": 101,
                "duration": 10.8113636,
                "tempo": 120.0
            },
            {
                "start_time": 57.6863636,
                "end_time": 59.3772727,
                "pitch": 56,
                "velocity": 101,
                "duration": 1.6909091,
                "tempo": 120.0
            },
            {
                "start_time": 59.3772727,
                "end_time": 59.4090909,
                "pitch": 55,
                "velocity": 101,
                "duration": 0.0318182,
                "tempo": 120.0
            },
            {
                "start_time": 48.5977273,
                "end_time": 59.4090909,
                "pitch": 67,
                "velocity": 101,
                "duration": 10.8113636,
                "tempo": 120.0
            },
            {
                "start_time": 59.3772727,
                "end_time": 59.6409091,
                "pitch": 0,
                "velocity": 101,
                "duration": 0.2636364,
                "tempo": 120.0
            },
            {
                "start_time": 59.4090909,
                "end_time": 59.6409091,
                "pitch": 55,
                "velocity": 101,
                "duration": 0.2318182,
                "tempo": 120.0
            },
            {
                "start_time": 59.6409091,
                "end_time": 59.6727273,
                "pitch": 55,
                "velocity": 101,
                "duration": 0.0318182,
                "tempo": 120.0
            },
            {
                "start_time": 59.6409091,
                "end_time": 59.9045455,
                "pitch": 0,
                "velocity": 101,
                "duration": 0.2636364,
                "tempo": 120.0
            },
            {
                "start_time": 59.6727273,
                "end_time": 59.9045455,
                "pitch": 55,
                "velocity": 101,
                "duration": 0.2318182,
                "tempo": 120.0
            },
            {
                "start_time": 59.9045455,
                "end_time": 59.9363636,
                "pitch": 55,
                "velocity": 101,
                "duration": 0.0318182,
                "tempo": 120.0
            },
            {
                "start_time": 59.4090909,
                "end_time": 59.9363636,
                "pitch": 67,
                "velocity": 101,
                "duration": 0.5272727,
                "tempo": 120.0
            },
            {
                "start_time": 59.9045455,
                "end_time": 60.1681818,
                "pitch": 0,
                "velocity": 101,
                "duration": 0.2636364,
                "tempo": 120.0
            },
            {
                "start_time": 59.9363636,
                "end_time": 60.1681818,
                "pitch": 55,
                "velocity": 101,
                "duration": 0.2318182,
                "tempo": 120.0
            },
            {
                "start_time": 60.1681818,
                "end_time": 60.2,
                "pitch": 55,
                "velocity": 101,
                "duration": 0.0318182,
                "tempo": 120.0
            },
            {
                "start_time": 59.9363636,
                "end_time": 60.2,
                "pitch": 67,
                "velocity": 101,
                "duration": 0.2636364,
                "tempo": 120.0
            },
            {
                "start_time": 60.1681818,
                "end_time": 60.4318182,
                "pitch": 0,
                "velocity": 101,
                "duration": 0.2636364,
                "tempo": 120.0
            },
            {
                "start_time": 60.2,
                "end_time": 60.4318182,
                "pitch": 55,
                "velocity": 101,
                "duration": 0.2318182,
                "tempo": 120.0
            },
            {
                "start_time": 60.4318182,
                "end_time": 60.4636364,
                "pitch": 55,
                "velocity": 101,
                "duration": 0.0318182,
                "tempo": 120.0
            },
            {
                "start_time": 60.2,
                "end_time": 60.4636364,
                "pitch": 67,
                "velocity": 101,
                "duration": 0.2636364,
                "tempo": 120.0
            },
            {
                "start_time": 60.4318182,
                "end_time": 60.6931818,
                "pitch": 0,
                "velocity": 101,
                "duration": 0.2613636,
                "tempo": 120.0
            },
            {
                "start_time": 60.4636364,
                "end_time": 60.6931818,
                "pitch": 55,
                "velocity": 101,
                "duration": 0.2295455,
                "tempo": 120.0
            },
            {
                "start_time": 60.6931818,
                "end_time": 60.7272727,
                "pitch": 55,
                "velocity": 101,
                "duration": 0.0340909,
                "tempo": 120.0
            },
            {
                "start_time": 60.4636364,
                "end_time": 60.7272727,
                "pitch": 67,
                "velocity": 101,
                "duration": 0.2636364,
                "tempo": 120.0
            },
            {
                "start_time": 60.7272727,
                "end_time": 60.825,
                "pitch": 55,
                "velocity": 101,
                "duration": 0.0977273,
                "tempo": 120.0
            },
            {
                "start_time": 70.0409091,
                "end_time": 71.5204545,
                "pitch": 55,
                "velocity": 101,
                "duration": 1.4795455,
                "tempo": 120.0
            },
            {
                "start_time": 71.5204545,
                "end_time": 73.0909091,
                "pitch": 57,
                "velocity": 101,
                "duration": 1.5704545,
                "tempo": 120.0
            },
            {
                "start_time": 73.0909091,
                "end_time": 73.1204545,
                "pitch": 52,
                "velocity": 101,
                "duration": 0.0295455,
                "tempo": 120.0
            },
            {
                "start_time": 44.7454545,
                "end_time": 73.1204545,
                "pitch": 66,
                "velocity": 101,
                "duration": 28.375,
                "tempo": 120.0
            },
            {
                "start_time": 73.1204545,
                "end_time": 73.3522727,
                "pitch": 56,
                "velocity": 101,
                "duration": 0.2318182,
                "tempo": 120.0
            },
            {
                "start_time": 73.3522727,
                "end_time": 73.3840909,
                "pitch": 52,
                "velocity": 101,
                "duration": 0.0318182,
                "tempo": 120.0
            },
            {
                "start_time": 73.1204545,
                "end_time": 73.3840909,
                "pitch": 66,
                "velocity": 101,
                "duration": 0.2636364,
                "tempo": 120.0
            },
            {
                "start_time": 73.3840909,
                "end_time": 73.6159091,
                "pitch": 56,
                "velocity": 101,
                "duration": 0.2318182,
                "tempo": 120.0
            },
            {
                "start_time": 73.6159091,
                "end_time": 73.6477273,
                "pitch": 52,
                "velocity": 101,
                "duration": 0.0318182,
                "tempo": 120.0
            },
            {
                "start_time": 73.3840909,
                "end_time": 73.6477273,
                "pitch": 66,
                "velocity": 101,
                "duration": 0.2636364,
                "tempo": 120.0
            },
            {
                "start_time": 73.6477273,
                "end_time": 73.8772727,
                "pitch": 56,
                "velocity": 101,
                "duration": 0.2295455,
                "tempo": 120.0
            },
            {
                "start_time": 73.8772727,
                "end_time": 73.9113636,
                "pitch": 52,
                "velocity": 101,
                "duration": 0.0340909,
                "tempo": 120.0
            },
            {
                "start_time": 73.6477273,
                "end_time": 73.9113636,
                "pitch": 66,
                "velocity": 101,
                "duration": 0.2636364,
                "tempo": 120.0
            },
            {
                "start_time": 73.9113636,
                "end_time": 74.1409091,
                "pitch": 56,
                "velocity": 101,
                "duration": 0.2295455,
                "tempo": 120.0
            },
            {
                "start_time": 74.1409091,
                "end_time": 74.175,
                "pitch": 52,
                "velocity": 101,
                "duration": 0.0340909,
                "tempo": 120.0
            },
            {
                "start_time": 73.9113636,
                "end_time": 74.175,
                "pitch": 66,
                "velocity": 101,
                "duration": 0.2636364,
                "tempo": 120.0
            },
            {
                "start_time": 74.175,
                "end_time": 74.4045455,
                "pitch": 56,
                "velocity": 101,
                "duration": 0.2295455,
                "tempo": 120.0
            },
            {
                "start_time": 74.4045455,
                "end_time": 74.4386364,
                "pitch": 52,
                "velocity": 101,
                "duration": 0.0340909,
                "tempo": 120.0
            },
            {
                "start_time": 74.175,
                "end_time": 74.4386364,
                "pitch": 66,
                "velocity": 101,
                "duration": 0.2636364,
                "tempo": 120.0
            },
            {
                "start_time": 74.4386364,
                "end_time": 74.9977273,
                "pitch": 56,
                "velocity": 101,
                "duration": 0.5590909,
                "tempo": 120.0
            },
            {
                "start_time": 42.7363636,
                "end_time": 75.0954545,
                "pitch": 7,
                "velocity": 101,
                "duration": 32.3590909,
                "tempo": 120.0
            },
            {
                "start_time": 75.0954545,
                "end_time": 77.0727273,
                "pitch": 53,
                "velocity": 101,
                "duration": 1.9772727,
                "tempo": 120.0
            },
            {
                "start_time": 74.4386364,
                "end_time": 77.1409091,
                "pitch": 66,
                "velocity": 101,
                "duration": 2.7022727,
                "tempo": 120.0
            },
            {
                "start_time": 77.1409091,
                "end_time": 78.7886364,
                "pitch": 55,
                "velocity": 101,
                "duration": 1.6477273,
                "tempo": 120.0
            },
            {
                "start_time": 78.7886364,
                "end_time": 78.8227273,
                "pitch": 55,
                "velocity": 101,
                "duration": 0.0340909,
                "tempo": 120.0
            },
            {
                "start_time": 60.6931818,
                "end_time": 79.0522727,
                "pitch": 0,
                "velocity": 101,
                "duration": 18.3590909,
                "tempo": 120.0
            },
            {
                "start_time": 78.8227273,
                "end_time": 79.0522727,
                "pitch": 55,
                "velocity": 101,
                "duration": 0.2295455,
                "tempo": 120.0
            },
            {
                "start_time": 79.0522727,
                "end_time": 79.0840909,
                "pitch": 55,
                "velocity": 101,
                "duration": 0.0318182,
                "tempo": 120.0
            },
            {
                "start_time": 60.7272727,
                "end_time": 79.0840909,
                "pitch": 67,
                "velocity": 101,
                "duration": 18.3568182,
                "tempo": 120.0
            },
            {
                "start_time": 79.0522727,
                "end_time": 79.3181818,
                "pitch": 0,
                "velocity": 101,
                "duration": 0.2659091,
                "tempo": 120.0
            },
            {
                "start_time": 79.0840909,
                "end_time": 79.3181818,
                "pitch": 55,
                "velocity": 101,
                "duration": 0.2340909,
                "tempo": 120.0
            },
            {
                "start_time": 79.3181818,
                "end_time": 79.3522727,
                "pitch": 55,
                "velocity": 101,
                "duration": 0.0340909,
                "tempo": 120.0
            },
            {
                "start_time": 79.0840909,
                "end_time": 79.3522727,
                "pitch": 67,
                "velocity": 101,
                "duration": 0.2681818,
                "tempo": 120.0
            },
            {
                "start_time": 79.3181818,
                "end_time": 79.5863636,
                "pitch": 0,
                "velocity": 101,
                "duration": 0.2681818,
                "tempo": 120.0
            },
            {
                "start_time": 79.3522727,
                "end_time": 79.5863636,
                "pitch": 55,
                "velocity": 101,
                "duration": 0.2340909,
                "tempo": 120.0
            },
            {
                "start_time": 79.5863636,
                "end_time": 79.6204545,
                "pitch": 55,
                "velocity": 101,
                "duration": 0.0340909,
                "tempo": 120.0
            },
            {
                "start_time": 79.3522727,
                "end_time": 79.6204545,
                "pitch": 67,
                "velocity": 101,
                "duration": 0.2681818,
                "tempo": 120.0
            },
            {
                "start_time": 79.5863636,
                "end_time": 79.8545455,
                "pitch": 0,
                "velocity": 101,
                "duration": 0.2681818,
                "tempo": 120.0
            },
            {
                "start_time": 79.6204545,
                "end_time": 79.8545455,
                "pitch": 55,
                "velocity": 101,
                "duration": 0.2340909,
                "tempo": 120.0
            },
            {
                "start_time": 79.8545455,
                "end_time": 79.8863636,
                "pitch": 55,
                "velocity": 101,
                "duration": 0.0318182,
                "tempo": 120.0
            },
            {
                "start_time": 79.6204545,
                "end_time": 79.8863636,
                "pitch": 67,
                "velocity": 101,
                "duration": 0.2659091,
                "tempo": 120.0
            },
            {
                "start_time": 79.8545455,
                "end_time": 80.1227273,
                "pitch": 0,
                "velocity": 101,
                "duration": 0.2681818,
                "tempo": 120.0
            },
            {
                "start_time": 79.8863636,
                "end_time": 80.1227273,
                "pitch": 55,
                "velocity": 101,
                "duration": 0.2363636,
                "tempo": 120.0
            },
            {
                "start_time": 80.1227273,
                "end_time": 80.1545455,
                "pitch": 55,
                "velocity": 101,
                "duration": 0.0318182,
                "tempo": 120.0
            },
            {
                "start_time": 80.1227273,
                "end_time": 80.3886364,
                "pitch": 0,
                "velocity": 101,
                "duration": 0.2659091,
                "tempo": 120.0
            },
            {
                "start_time": 80.1545455,
                "end_time": 80.3886364,
                "pitch": 55,
                "velocity": 101,
                "duration": 0.2340909,
                "tempo": 120.0
            },
            {
                "start_time": 80.3886364,
                "end_time": 80.4227273,
                "pitch": 55,
                "velocity": 101,
                "duration": 0.0340909,
                "tempo": 120.0
            },
            {
                "start_time": 79.8863636,
                "end_time": 80.4227273,
                "pitch": 67,
                "velocity": 101,
                "duration": 0.5363636,
                "tempo": 120.0
            },
            {
                "start_time": 80.4227273,
                "end_time": 80.6568182,
                "pitch": 55,
                "velocity": 101,
                "duration": 0.2340909,
                "tempo": 120.0
            },
            {
                "start_time": 80.3886364,
                "end_time": 80.6590909,
                "pitch": 0,
                "velocity": 101,
                "duration": 0.2704545,
                "tempo": 120.0
            },
            {
                "start_time": 80.6568182,
                "end_time": 80.6590909,
                "pitch": 0,
                "velocity": 101,
                "duration": 0.0022727,
                "tempo": 120.0
            },
            {
                "start_time": 80.6590909,
                "end_time": 80.6909091,
                "pitch": 55,
                "velocity": 101,
                "duration": 0.0318182,
                "tempo": 120.0
            },
            {
                "start_time": 80.4227273,
                "end_time": 80.6909091,
                "pitch": 67,
                "velocity": 101,
                "duration": 0.2681818,
                "tempo": 120.0
            },
            {
                "start_time": 80.6909091,
                "end_time": 80.925,
                "pitch": 55,
                "velocity": 101,
                "duration": 0.2340909,
                "tempo": 120.0
            },
            {
                "start_time": 80.925,
                "end_time": 80.9590909,
                "pitch": 55,
                "velocity": 101,
                "duration": 0.0340909,
                "tempo": 120.0
            },
            {
                "start_time": 80.6909091,
                "end_time": 80.9590909,
                "pitch": 67,
                "velocity": 101,
                "duration": 0.2681818,
                "tempo": 120.0
            },
            {
                "start_time": 80.9590909,
                "end_time": 81.125,
                "pitch": 55,
                "velocity": 101,
                "duration": 0.1659091,
                "tempo": 120.0
            },
            {
                "start_time": 81.9159091,
                "end_time": 83.4090909,
                "pitch": 55,
                "velocity": 101,
                "duration": 1.4931818,
                "tempo": 120.0
            },
            {
                "start_time": 83.4090909,
                "end_time": 85.075,
                "pitch": 57,
                "velocity": 101,
                "duration": 1.6659091,
                "tempo": 120.0
            },
            {
                "start_time": 85.9840909,
                "end_time": 89.1318182,
                "pitch": 57,
                "velocity": 101,
                "duration": 3.1477273,
                "tempo": 120.0
            },
            {
                "start_time": 80.925,
                "end_time": 91.6772727,
                "pitch": 0,
                "velocity": 101,
                "duration": 10.7522727,
                "tempo": 120.0
            },
            {
                "start_time": 90.0022727,
                "end_time": 91.6772727,
                "pitch": 56,
                "velocity": 101,
                "duration": 1.675,
                "tempo": 120.0
            },
            {
                "start_time": 91.6772727,
                "end_time": 91.7113636,
                "pitch": 55,
                "velocity": 101,
                "duration": 0.0340909,
                "tempo": 120.0
            },
            {
                "start_time": 91.6772727,
                "end_time": 91.9454545,
                "pitch": 0,
                "velocity": 101,
                "duration": 0.2681818,
                "tempo": 120.0
            },
            {
                "start_time": 91.7113636,
                "end_time": 91.9454545,
                "pitch": 55,
                "velocity": 101,
                "duration": 0.2340909,
                "tempo": 120.0
            },
            {
                "start_time": 91.9454545,
                "end_time": 91.9795455,
                "pitch": 55,
                "velocity": 101,
                "duration": 0.0340909,
                "tempo": 120.0
            },
            {
                "start_time": 80.9590909,
                "end_time": 91.9795455,
                "pitch": 67,
                "velocity": 101,
                "duration": 11.0204545,
                "tempo": 120.0
            },
            {
                "start_time": 91.9454545,
                "end_time": 92.2136364,
                "pitch": 0,
                "velocity": 101,
                "duration": 0.2681818,
                "tempo": 120.0
            },
            {
                "start_time": 91.9795455,
                "end_time": 92.2136364,
                "pitch": 55,
                "velocity": 101,
                "duration": 0.2340909,
                "tempo": 120.0
            },
            {
                "start_time": 92.2136364,
                "end_time": 92.2477273,
                "pitch": 55,
                "velocity": 101,
                "duration": 0.0340909,
                "tempo": 120.0
            },
            {
                "start_time": 91.9795455,
                "end_time": 92.2477273,
                "pitch": 67,
                "velocity": 101,
                "duration": 0.2681818,
                "tempo": 120.0
            },
            {
                "start_time": 92.2136364,
                "end_time": 92.4818182,
                "pitch": 0,
                "velocity": 101,
                "duration": 0.2681818,
                "tempo": 120.0
            },
            {
                "start_time": 92.2477273,
                "end_time": 92.4818182,
                "pitch": 55,
                "velocity": 101,
                "duration": 0.2340909,
                "tempo": 120.0
            },
            {
                "start_time": 92.4818182,
                "end_time": 92.5136364,
                "pitch": 55,
                "velocity": 101,
                "duration": 0.0318182,
                "tempo": 120.0
            },
            {
                "start_time": 92.2477273,
                "end_time": 92.5136364,
                "pitch": 67,
                "velocity": 101,
                "duration": 0.2659091,
                "tempo": 120.0
            },
            {
                "start_time": 92.4818182,
                "end_time": 92.75,
                "pitch": 0,
                "velocity": 101,
                "duration": 0.2681818,
                "tempo": 120.0
            },
            {
                "start_time": 92.5136364,
                "end_time": 92.75,
                "pitch": 55,
                "velocity": 101,
                "duration": 0.2363636,
                "tempo": 120.0
            },
            {
                "start_time": 92.75,
                "end_time": 92.7818182,
                "pitch": 55,
                "velocity": 101,
                "duration": 0.0318182,
                "tempo": 120.0
            },
            {
                "start_time": 92.5136364,
                "end_time": 92.7818182,
                "pitch": 67,
                "velocity": 101,
                "duration": 0.2681818,
                "tempo": 120.0
            },
            {
                "start_time": 92.75,
                "end_time": 93.0181818,
                "pitch": 0,
                "velocity": 101,
                "duration": 0.2681818,
                "tempo": 120.0
            },
            {
                "start_time": 92.7818182,
                "end_time": 93.0181818,
                "pitch": 55,
                "velocity": 101,
                "duration": 0.2363636,
                "tempo": 120.0
            },
            {
                "start_time": 93.0181818,
                "end_time": 93.05,
                "pitch": 55,
                "velocity": 101,
                "duration": 0.0318182,
                "tempo": 120.0
            },
            {
                "start_time": 92.7818182,
                "end_time": 93.05,
                "pitch": 67,
                "velocity": 101,
                "duration": 0.2681818,
                "tempo": 120.0
            },
            {
                "start_time": 93.0181818,
                "end_time": 93.2863636,
                "pitch": 0,
                "velocity": 101,
                "duration": 0.2681818,
                "tempo": 120.0
            },
            {
                "start_time": 93.05,
                "end_time": 93.2863636,
                "pitch": 55,
                "velocity": 101,
                "duration": 0.2363636,
                "tempo": 120.0
            },
            {
                "start_time": 93.2863636,
                "end_time": 93.3181818,
                "pitch": 55,
                "velocity": 101,
                "duration": 0.0318182,
                "tempo": 120.0
            },
            {
                "start_time": 93.05,
                "end_time": 93.3181818,
                "pitch": 67,
                "velocity": 101,
                "duration": 0.2681818,
                "tempo": 120.0
            },
            {
                "start_time": 93.2863636,
                "end_time": 93.5477273,
                "pitch": 0,
                "velocity": 101,
                "duration": 0.2613636,
                "tempo": 120.0
            },
            {
                "start_time": 93.3181818,
                "end_time": 93.5477273,
                "pitch": 55,
                "velocity": 101,
                "duration": 0.2295455,
                "tempo": 120.0
            },
            {
                "start_time": 93.5477273,
                "end_time": 93.5818182,
                "pitch": 55,
                "velocity": 101,
                "duration": 0.0340909,
                "tempo": 120.0
            },
            {
                "start_time": 93.3181818,
                "end_time": 93.5818182,
                "pitch": 67,
                "velocity": 101,
                "duration": 0.2636364,
                "tempo": 120.0
            },
            {
                "start_time": 93.5477273,
                "end_time": 93.8113636,
                "pitch": 0,
                "velocity": 101,
                "duration": 0.2636364,
                "tempo": 120.0
            },
            {
                "start_time": 93.5818182,
                "end_time": 93.8113636,
                "pitch": 55,
                "velocity": 101,
                "duration": 0.2295455,
                "tempo": 120.0
            },
            {
                "start_time": 93.8113636,
                "end_time": 93.8454545,
                "pitch": 55,
                "velocity": 101,
                "duration": 0.0340909,
                "tempo": 120.0
            },
            {
                "start_time": 93.5818182,
                "end_time": 93.8454545,
                "pitch": 67,
                "velocity": 101,
                "duration": 0.2636364,
                "tempo": 120.0
            },
            {
                "start_time": 93.8113636,
                "end_time": 94.075,
                "pitch": 0,
                "velocity": 101,
                "duration": 0.2636364,
                "tempo": 120.0
            },
            {
                "start_time": 93.8454545,
                "end_time": 94.075,
                "pitch": 55,
                "velocity": 101,
                "duration": 0.2295455,
                "tempo": 120.0
            },
            {
                "start_time": 94.075,
                "end_time": 94.1068182,
                "pitch": 55,
                "velocity": 101,
                "duration": 0.0318182,
                "tempo": 120.0
            },
            {
                "start_time": 93.8454545,
                "end_time": 94.1068182,
                "pitch": 67,
                "velocity": 101,
                "duration": 0.2613636,
                "tempo": 120.0
            },
            {
                "start_time": 94.075,
                "end_time": 94.3386364,
                "pitch": 0,
                "velocity": 101,
                "duration": 0.2636364,
                "tempo": 120.0
            },
            {
                "start_time": 94.1068182,
                "end_time": 94.3386364,
                "pitch": 55,
                "velocity": 101,
                "duration": 0.2318182,
                "tempo": 120.0
            },
            {
                "start_time": 94.3386364,
                "end_time": 94.3727273,
                "pitch": 55,
                "velocity": 101,
                "duration": 0.0340909,
                "tempo": 120.0
            },
            {
                "start_time": 94.1068182,
                "end_time": 94.3727273,
                "pitch": 67,
                "velocity": 101,
                "duration": 0.2659091,
                "tempo": 120.0
            },
            {
                "start_time": 94.3386364,
                "end_time": 94.6022727,
                "pitch": 0,
                "velocity": 101,
                "duration": 0.2636364,
                "tempo": 120.0
            },
            {
                "start_time": 94.3727273,
                "end_time": 94.6022727,
                "pitch": 55,
                "velocity": 101,
                "duration": 0.2295455,
                "tempo": 120.0
            },
            {
                "start_time": 94.6022727,
                "end_time": 94.6340909,
                "pitch": 55,
                "velocity": 101,
                "duration": 0.0318182,
                "tempo": 120.0
            },
            {
                "start_time": 94.3727273,
                "end_time": 94.6340909,
                "pitch": 67,
                "velocity": 101,
                "duration": 0.2613636,
                "tempo": 120.0
            },
            {
                "start_time": 94.6340909,
                "end_time": 94.7659091,
                "pitch": 55,
                "velocity": 101,
                "duration": 0.1318182,
                "tempo": 120.0
            },
            {
                "start_time": 94.6340909,
                "end_time": 94.8636364,
                "pitch": 67,
                "velocity": 101,
                "duration": 0.2295455,
                "tempo": 120.0
            },
            {
                "start_time": 94.8,
                "end_time": 94.8636364,
                "pitch": 67,
                "velocity": 127,
                "duration": 0.0636364,
                "tempo": 120.0
            },
            {
                "start_time": 94.9318182,
                "end_time": 95.2590909,
                "pitch": 68,
                "velocity": 127,
                "duration": 0.3272727,
                "tempo": 120.0
            },
            {
                "start_time": 77.1409091,
                "end_time": 95.3590909,
                "pitch": 66,
                "velocity": 101,
                "duration": 18.2181818,
                "tempo": 120.0
            },
            {
                "start_time": 95.2931818,
                "end_time": 95.3590909,
                "pitch": 66,
                "velocity": 101,
                "duration": 0.0659091,
                "tempo": 120.0
            },
            {
                "start_time": 95.4272727,
                "end_time": 95.7613636,
                "pitch": 67,
                "velocity": 101,
                "duration": 0.3340909,
                "tempo": 120.0
            },
            {
                "start_time": 96.3,
                "end_time": 96.7681818,
                "pitch": 57,
                "velocity": 101,
                "duration": 0.4681818,
                "tempo": 120.0
            },
            {
                "start_time": 95.2931818,
                "end_time": 96.8022727,
                "pitch": 31,
                "velocity": 101,
                "duration": 1.5090909,
                "tempo": 120.0
            },
            {
                "start_time": 96.8022727,
                "end_time": 102.3818182,
                "pitch": 60,
                "velocity": 101,
                "duration": 5.5795455,
                "tempo": 120.0
            },
            {
                "start_time": 75.0954545,
                "end_time": 105.4136364,
                "pitch": 7,
                "velocity": 101,
                "duration": 30.3181818,
                "tempo": 120.0
            },
            {
                "start_time": 102.3818182,
                "end_time": 105.4136364,
                "pitch": 57,
                "velocity": 101,
                "duration": 3.0318182,
                "tempo": 120.0
            },
            {
                "start_time": 105.4136364,
                "end_time": 105.4454545,
                "pitch": 52,
                "velocity": 101,
                "duration": 0.0318182,
                "tempo": 120.0
            },
            {
                "start_time": 96.3,
                "end_time": 105.4454545,
                "pitch": 66,
                "velocity": 101,
                "duration": 9.1454545,
                "tempo": 120.0
            },
            {
                "start_time": 105.4454545,
                "end_time": 105.6840909,
                "pitch": 56,
                "velocity": 101,
                "duration": 0.2386364,
                "tempo": 120.0
            },
            {
                "start_time": 105.6840909,
                "end_time": 105.7159091,
                "pitch": 52,
                "velocity": 101,
                "duration": 0.0318182,
                "tempo": 120.0
            },
            {
                "start_time": 105.4454545,
                "end_time": 105.7159091,
                "pitch": 66,
                "velocity": 101,
                "duration": 0.2704545,
                "tempo": 120.0
            },
            {
                "start_time": 105.7159091,
                "end_time": 105.9568182,
                "pitch": 56,
                "velocity": 101,
                "duration": 0.2409091,
                "tempo": 120.0
            },
            {
                "start_time": 105.9568182,
                "end_time": 105.9909091,
                "pitch": 52,
                "velocity": 101,
                "duration": 0.0340909,
                "tempo": 120.0
            },
            {
                "start_time": 105.7159091,
                "end_time": 105.9909091,
                "pitch": 66,
                "velocity": 101,
                "duration": 0.275,
                "tempo": 120.0
            },
            {
                "start_time": 105.9909091,
                "end_time": 106.2295455,
                "pitch": 56,
                "velocity": 101,
                "duration": 0.2386364,
                "tempo": 120.0
            },
            {
                "start_time": 106.2295455,
                "end_time": 106.2636364,
                "pitch": 52,
                "velocity": 101,
                "duration": 0.0340909,
                "tempo": 120.0
            },
            {
                "start_time": 105.9909091,
                "end_time": 106.2636364,
                "pitch": 66,
                "velocity": 101,
                "duration": 0.2727273,
                "tempo": 120.0
            },
            {
                "start_time": 106.2636364,
                "end_time": 106.5022727,
                "pitch": 56,
                "velocity": 101,
                "duration": 0.2386364,
                "tempo": 120.0
            },
            {
                "start_time": 106.5022727,
                "end_time": 106.5340909,
                "pitch": 52,
                "velocity": 101,
                "duration": 0.0318182,
                "tempo": 120.0
            },
            {
                "start_time": 106.2636364,
                "end_time": 106.5340909,
                "pitch": 66,
                "velocity": 101,
                "duration": 0.2704545,
                "tempo": 120.0
            },
            {
                "start_time": 106.5340909,
                "end_time": 106.775,
                "pitch": 56,
                "velocity": 101,
                "duration": 0.2409091,
                "tempo": 120.0
            },
            {
                "start_time": 106.775,
                "end_time": 106.8090909,
                "pitch": 52,
                "velocity": 101,
                "duration": 0.0340909,
                "tempo": 120.0
            },
            {
                "start_time": 106.5340909,
                "end_time": 106.8090909,
                "pitch": 66,
                "velocity": 101,
                "duration": 0.275,
                "tempo": 120.0
            },
            {
                "start_time": 106.8090909,
                "end_time": 107.3863636,
                "pitch": 56,
                "velocity": 101,
                "duration": 0.5772727,
                "tempo": 120.0
            },
            {
                "start_time": 105.4136364,
                "end_time": 107.4545455,
                "pitch": 7,
                "velocity": 101,
                "duration": 2.0409091,
                "tempo": 120.0
            },
            {
                "start_time": 107.4545455,
                "end_time": 109.3659091,
                "pitch": 53,
                "velocity": 101,
                "duration": 1.9113636,
                "tempo": 120.0
            },
            {
                "start_time": 106.8090909,
                "end_time": 109.4659091,
                "pitch": 66,
                "velocity": 101,
                "duration": 2.6568182,
                "tempo": 120.0
            },
            {
                "start_time": 94.6022727,
                "end_time": 111.1704545,
                "pitch": 0,
                "velocity": 101,
                "duration": 16.5681818,
                "tempo": 120.0
            },
            {
                "start_time": 109.4659091,
                "end_time": 111.1704545,
                "pitch": 55,
                "velocity": 101,
                "duration": 1.7045455,
                "tempo": 120.0
            },
            {
                "start_time": 111.1704545,
                "end_time": 111.2045455,
                "pitch": 55,
                "velocity": 101,
                "duration": 0.0340909,
                "tempo": 120.0
            },
            {
                "start_time": 111.1704545,
                "end_time": 111.4431818,
                "pitch": 0,
                "velocity": 101,
                "duration": 0.2727273,
                "tempo": 120.0
            },
            {
                "start_time": 111.2045455,
                "end_time": 111.4431818,
                "pitch": 55,
                "velocity": 101,
                "duration": 0.2386364,
                "tempo": 120.0
            },
            {
                "start_time": 111.4431818,
                "end_time": 111.475,
                "pitch": 55,
                "velocity": 101,
                "duration": 0.0318182,
                "tempo": 120.0
            },
            {
                "start_time": 111.2045455,
                "end_time": 111.475,
                "pitch": 67,
                "velocity": 101,
                "duration": 0.2704545,
                "tempo": 120.0
            },
            {
                "start_time": 111.4431818,
                "end_time": 111.7022727,
                "pitch": 0,
                "velocity": 101,
                "duration": 0.2590909,
                "tempo": 120.0
            },
            {
                "start_time": 111.475,
                "end_time": 111.7022727,
                "pitch": 55,
                "velocity": 101,
                "duration": 0.2272727,
                "tempo": 120.0
            },
            {
                "start_time": 111.7022727,
                "end_time": 111.7340909,
                "pitch": 55,
                "velocity": 101,
                "duration": 0.0318182,
                "tempo": 120.0
            },
            {
                "start_time": 111.7022727,
                "end_time": 111.9613636,
                "pitch": 0,
                "velocity": 101,
                "duration": 0.2590909,
                "tempo": 120.0
            },
            {
                "start_time": 111.7340909,
                "end_time": 111.9613636,
                "pitch": 55,
                "velocity": 101,
                "duration": 0.2272727,
                "tempo": 120.0
            },
            {
                "start_time": 111.9613636,
                "end_time": 111.9931818,
                "pitch": 55,
                "velocity": 101,
                "duration": 0.0318182,
                "tempo": 120.0
            },
            {
                "start_time": 111.475,
                "end_time": 111.9931818,
                "pitch": 67,
                "velocity": 101,
                "duration": 0.5181818,
                "tempo": 120.0
            },
            {
                "start_time": 111.9613636,
                "end_time": 112.2204545,
                "pitch": 0,
                "velocity": 101,
                "duration": 0.2590909,
                "tempo": 120.0
            },
            {
                "start_time": 111.9931818,
                "end_time": 112.2204545,
                "pitch": 55,
                "velocity": 101,
                "duration": 0.2272727,
                "tempo": 120.0
            },
            {
                "start_time": 112.2204545,
                "end_time": 112.2522727,
                "pitch": 55,
                "velocity": 101,
                "duration": 0.0318182,
                "tempo": 120.0
            },
            {
                "start_time": 111.9931818,
                "end_time": 112.2522727,
                "pitch": 67,
                "velocity": 101,
                "duration": 0.2590909,
                "tempo": 120.0
            },
            {
                "start_time": 112.2204545,
                "end_time": 112.4795455,
                "pitch": 0,
                "velocity": 101,
                "duration": 0.2590909,
                "tempo": 120.0
            },
            {
                "start_time": 112.2522727,
                "end_time": 112.4795455,
                "pitch": 55,
                "velocity": 101,
                "duration": 0.2272727,
                "tempo": 120.0
            },
            {
                "start_time": 112.4795455,
                "end_time": 112.5113636,
                "pitch": 55,
                "velocity": 101,
                "duration": 0.0318182,
                "tempo": 120.0
            },
            {
                "start_time": 112.2522727,
                "end_time": 112.5113636,
                "pitch": 67,
                "velocity": 101,
                "duration": 0.2590909,
                "tempo": 120.0
            },
            {
                "start_time": 112.4795455,
                "end_time": 112.7386364,
                "pitch": 0,
                "velocity": 101,
                "duration": 0.2590909,
                "tempo": 120.0
            },
            {
                "start_time": 112.5113636,
                "end_time": 112.7386364,
                "pitch": 55,
                "velocity": 101,
                "duration": 0.2272727,
                "tempo": 120.0
            },
            {
                "start_time": 112.7386364,
                "end_time": 112.7727273,
                "pitch": 55,
                "velocity": 101,
                "duration": 0.0340909,
                "tempo": 120.0
            },
            {
                "start_time": 112.5113636,
                "end_time": 112.7727273,
                "pitch": 67,
                "velocity": 101,
                "duration": 0.2613636,
                "tempo": 120.0
            },
            {
                "start_time": 112.7386364,
                "end_time": 113.0,
                "pitch": 0,
                "velocity": 101,
                "duration": 0.2613636,
                "tempo": 120.0
            },
            {
                "start_time": 112.7727273,
                "end_time": 113.0,
                "pitch": 55,
                "velocity": 101,
                "duration": 0.2272727,
                "tempo": 120.0
            },
            {
                "start_time": 113.0,
                "end_time": 113.0318182,
                "pitch": 55,
                "velocity": 101,
                "duration": 0.0318182,
                "tempo": 120.0
            },
            {
                "start_time": 112.7727273,
                "end_time": 113.0318182,
                "pitch": 67,
                "velocity": 101,
                "duration": 0.2590909,
                "tempo": 120.0
            },
            {
                "start_time": 113.0,
                "end_time": 113.2568182,
                "pitch": 0,
                "velocity": 101,
                "duration": 0.2568182,
                "tempo": 120.0
            },
            {
                "start_time": 113.0318182,
                "end_time": 113.2568182,
                "pitch": 55,
                "velocity": 101,
                "duration": 0.225,
                "tempo": 120.0
            },
            {
                "start_time": 113.2568182,
                "end_time": 113.2886364,
                "pitch": 55,
                "velocity": 101,
                "duration": 0.0318182,
                "tempo": 120.0
            },
            {
                "start_time": 113.0318182,
                "end_time": 113.2886364,
                "pitch": 67,
                "velocity": 101,
                "duration": 0.2568182,
                "tempo": 120.0
            },
            {
                "start_time": 113.2886364,
                "end_time": 113.4181818,
                "pitch": 55,
                "velocity": 101,
                "duration": 0.1295455,
                "tempo": 120.0
            },
            {
                "start_time": 114.2340909,
                "end_time": 115.7931818,
                "pitch": 55,
                "velocity": 101,
                "duration": 1.5590909,
                "tempo": 120.0
            },
            {
                "start_time": 115.7931818,
                "end_time": 117.4068182,
                "pitch": 57,
                "velocity": 101,
                "duration": 1.6136364,
                "tempo": 120.0
            },
            {
                "start_time": 118.275,
                "end_time": 121.425,
                "pitch": 57,
                "velocity": 101,
                "duration": 3.15,
                "tempo": 120.0
            },
            {
                "start_time": 113.2568182,
                "end_time": 123.9954545,
                "pitch": 0,
                "velocity": 101,
                "duration": 10.7386364,
                "tempo": 120.0
            },
            {
                "start_time": 122.3272727,
                "end_time": 123.9954545,
                "pitch": 56,
                "velocity": 101,
                "duration": 1.6681818,
                "tempo": 120.0
            },
            {
                "start_time": 123.9954545,
                "end_time": 124.0295455,
                "pitch": 55,
                "velocity": 101,
                "duration": 0.0340909,
                "tempo": 120.0
            },
            {
                "start_time": 113.2886364,
                "end_time": 124.0295455,
                "pitch": 67,
                "velocity": 101,
                "duration": 10.7409091,
                "tempo": 120.0
            },
            {
                "start_time": 123.9954545,
                "end_time": 124.2590909,
                "pitch": 0,
                "velocity": 101,
                "duration": 0.2636364,
                "tempo": 120.0
            },
            {
                "start_time": 124.0295455,
                "end_time": 124.2590909,
                "pitch": 55,
                "velocity": 101,
                "duration": 0.2295455,
                "tempo": 120.0
            },
            {
                "start_time": 124.2590909,
                "end_time": 124.2931818,
                "pitch": 55,
                "velocity": 101,
                "duration": 0.0340909,
                "tempo": 120.0
            },
            {
                "start_time": 124.2590909,
                "end_time": 124.5227273,
                "pitch": 0,
                "velocity": 101,
                "duration": 0.2636364,
                "tempo": 120.0
            },
            {
                "start_time": 124.2931818,
                "end_time": 124.5227273,
                "pitch": 55,
                "velocity": 101,
                "duration": 0.2295455,
                "tempo": 120.0
            },
            {
                "start_time": 124.5227273,
                "end_time": 124.5545455,
                "pitch": 55,
                "velocity": 101,
                "duration": 0.0318182,
                "tempo": 120.0
            },
            {
                "start_time": 124.0295455,
                "end_time": 124.5545455,
                "pitch": 67,
                "velocity": 101,
                "duration": 0.525,
                "tempo": 120.0
            },
            {
                "start_time": 124.5545455,
                "end_time": 124.7863636,
                "pitch": 55,
                "velocity": 101,
                "duration": 0.2318182,
                "tempo": 120.0
            },
            {
                "start_time": 124.7863636,
                "end_time": 124.8181818,
                "pitch": 55,
                "velocity": 101,
                "duration": 0.0318182,
                "tempo": 120.0
            },
            {
                "start_time": 124.5227273,
                "end_time": 125.05,
                "pitch": 0,
                "velocity": 101,
                "duration": 0.5272727,
                "tempo": 120.0
            },
            {
                "start_time": 124.8181818,
                "end_time": 125.05,
                "pitch": 55,
                "velocity": 101,
                "duration": 0.2318182,
                "tempo": 120.0
            },
            {
                "start_time": 125.05,
                "end_time": 125.0818182,
                "pitch": 55,
                "velocity": 101,
                "duration": 0.0318182,
                "tempo": 120.0
            },
            {
                "start_time": 125.05,
                "end_time": 125.3136364,
                "pitch": 0,
                "velocity": 101,
                "duration": 0.2636364,
                "tempo": 120.0
            },
            {
                "start_time": 125.0818182,
                "end_time": 125.3136364,
                "pitch": 55,
                "velocity": 101,
                "duration": 0.2318182,
                "tempo": 120.0
            },
            {
                "start_time": 125.3136364,
                "end_time": 125.3454545,
                "pitch": 55,
                "velocity": 101,
                "duration": 0.0318182,
                "tempo": 120.0
            },
            {
                "start_time": 124.5545455,
                "end_time": 125.3454545,
                "pitch": 67,
                "velocity": 101,
                "duration": 0.7909091,
                "tempo": 120.0
            },
            {
                "start_time": 125.3454545,
                "end_time": 125.4431818,
                "pitch": 55,
                "velocity": 101,
                "duration": 0.0977273,
                "tempo": 120.0
            }
        ]
    }
}