{
    "mood": "sad",
    "instruments": {
        "Clarinet": [
            {
                "start_time": 2.125,
                "end_time": 2.7772727,
                "pitch": 55,
                "velocity": 127,
                "duration": 0.6522727,
                "tempo": 120.0
            },
            {
                "start_time": 4.2590909,
                "end_time": 5.6477273,
                "pitch": 50,
                "velocity": 127,
                "duration": 1.3886364,
                "tempo": 120.0
            },
            {
                "start_time": 5.7,
                "end_time": 11.3795455,
                "pitch": 52,
                "velocity": 127,
                "duration": 5.6795455,
                "tempo": 120.0
            },
            {
                "start_time": 11.4136364,
                "end_time": 13.5227273,
                "pitch": 52,
                "velocity": 127,
                "duration": 2.1090909,
                "tempo": 120.0
            },
            {
                "start_time": 2.125,
                "end_time": 13.5568182,
                "pitch": 66,
                "velocity": 127,
                "duration": 11.4318182,
                "tempo": 120.0
            },
            {
                "start_time": 13.5568182,
                "end_time": 14.2181818,
                "pitch": 55,
                "velocity": 127,
                "duration": 0.6613636,
                "tempo": 120.0
            },
            {
                "start_time": 14.2681818,
                "end_time": 15.3340909,
                "pitch": 55,
                "velocity": 127,
                "duration": 1.0659091,
                "tempo": 120.0
            },
            {
                "start_time": 15.3340909,
                "end_time": 15.6340909,
                "pitch": 57,
                "velocity": 127,
                "duration": 0.3,
                "tempo": 120.0
            },
            {
                "start_time": 4.2590909,
                "end_time": 17.05,
                "pitch": 54,
                "velocity": 127,
                "duration": 12.7909091,
                "tempo": 120.0
            },
            {
                "start_time": 15.7,
                "end_time": 17.05,
                "pitch": 54,
                "velocity": 127,
                "duration": 1.35,
                "tempo": 120.0
            },
            {
                "start_time": 17.1159091,
                "end_time": 18.2636364,
                "pitch": 54,
                "velocity": 127,
                "duration": 1.1477273,
                "tempo": 120.0
            },
            {
                "start_time": 18.2636364,
                "end_time": 22.8045455,
                "pitch": 52,
                "velocity": 127,
                "duration": 4.5409091,
                "tempo": 120.0
            },
            {
                "start_time": 13.5568182,
                "end_time": 23.55,
                "pitch": 66,
                "velocity": 127,
                "duration": 9.9931818,
                "tempo": 120.0
            },
            {
                "start_time": 23.55,
                "end_time": 23.8681818,
                "pitch": 57,
                "velocity": 127,
                "duration": 0.3181818,
                "tempo": 120.0
            },
            {
                "start_time": 15.7,
                "end_time": 23.9022727,
                "pitch": 20,
                "velocity": 127,
                "duration": 8.2022727,
                "tempo": 120.0
            },
            {
                "start_time": 23.9022727,
                "end_time": 24.2363636,
                "pitch": 54,
                "velocity": 127,
                "duration": 0.3340909,
                "tempo": 120.0
            },
            {
                "start_time": 24.2704545,
                "end_time": 24.9318182,
                "pitch": 55,
                "velocity": 127,
                "duration": 0.6613636,
                "tempo": 120.0
            },
            {
                "start_time": 25.3477273,
                "end_time": 26.0136364,
                "pitch": 52,
                "velocity": 127,
                "duration": 0.6659091,
                "tempo": 120.0
            },
            {
                "start_time": 5.7,
                "end_time": 26.3818182,
                "pitch": 50,
                "velocity": 127,
                "duration": 20.6818182,
                "tempo": 120.0
            },
            {
                "start_time": 26.0454545,
                "end_time": 26.3818182,
                "pitch": 50,
                "velocity": 127,
                "duration": 0.3363636,
                "tempo": 120.0
            },
            {
                "start_time": 26.4159091,
                "end_time": 26.7363636,
                "pitch": 52,
                "velocity": 127,
                "duration": 0.3204545,
                "tempo": 120.0
            },
            {
                "start_time": 26.7704545,
                "end_time": 27.0931818,
                "pitch": 48,
                "velocity": 127,
                "duration": 0.3227273,
                "tempo": 120.0
            },
            {
                "start_time": 27.1272727,
                "end_time": 27.7727273,
                "pitch": 48,
                "velocity": 127,
                "duration": 0.6454545,
                "tempo": 120.0
            },
            {
                "start_time": 26.4159091,
                "end_time": 27.8386364,
                "pitch": 50,
                "velocity": 127,
                "duration": 1.4227273,
                "tempo": 120.0
            },
            {
                "start_time": 26.0454545,
                "end_time": 28.4909091,
                "pitch": 54,
                "velocity": 127,
                "duration": 2.4454545,
                "tempo": 120.0
            },
            {
                "start_time": 27.8386364,
                "end_time": 28.4909091,
                "pitch": 54,
                "velocity": 127,
                "duration": 0.6522727,
                "tempo": 120.0
            },
            {
                "start_time": 24.2704545,
                "end_time": 29.2613636,
                "pitch": 67,
                "velocity": 127,
                "duration": 4.9909091,
                "tempo": 120.0
            },
            {
                "start_time": 29.2613636,
                "end_time": 29.5977273,
                "pitch": 57,
                "velocity": 127,
                "duration": 0.3363636,
                "tempo": 120.0
            },
            {
                "start_time": 23.9022727,
                "end_time": 29.6318182,
                "pitch": 20,
                "velocity": 127,
                "duration": 5.7295455,
                "tempo": 120.0
            },
            {
                "start_time": 29.6318182,
                "end_time": 29.9477273,
                "pitch": 54,
                "velocity": 127,
                "duration": 0.3159091,
                "tempo": 120.0
            },
            {
                "start_time": 29.2613636,
                "end_time": 29.9818182,
                "pitch": 67,
                "velocity": 127,
                "duration": 0.7204545,
                "tempo": 120.0
            },
            {
                "start_time": 29.9818182,
                "end_time": 30.6363636,
                "pitch": 55,
                "velocity": 127,
                "duration": 0.6545455,
                "tempo": 120.0
            },
            {
                "start_time": 26.7704545,
                "end_time": 31.7454545,
                "pitch": 52,
                "velocity": 127,
                "duration": 4.975,
                "tempo": 120.0
            },
            {
                "start_time": 31.0590909,
                "end_time": 31.7454545,
                "pitch": 52,
                "velocity": 127,
                "duration": 0.6863636,
                "tempo": 120.0
            },
            {
                "start_time": 27.8386364,
                "end_time": 32.0931818,
                "pitch": 50,
                "velocity": 127,
                "duration": 4.2545455,
                "tempo": 120.0
            },
            {
                "start_time": 31.7795455,
                "end_time": 32.0931818,
                "pitch": 50,
                "velocity": 127,
                "duration": 0.3136364,
                "tempo": 120.0
            },
            {
                "start_time": 32.1272727,
                "end_time": 32.4477273,
                "pitch": 52,
                "velocity": 127,
                "duration": 0.3204545,
                "tempo": 120.0
            },
            {
                "start_time": 32.4818182,
                "end_time": 32.8204545,
                "pitch": 48,
                "velocity": 127,
                "duration": 0.3386364,
                "tempo": 120.0
            },
            {
                "start_time": 32.8545455,
                "end_time": 33.5090909,
                "pitch": 48,
                "velocity": 127,
                "duration": 0.6545455,
                "tempo": 120.0
            },
            {
                "start_time": 33.5590909,
                "end_time": 34.2045455,
                "pitch": 45,
                "velocity": 127,
                "duration": 0.6454545,
                "tempo": 120.0
            }
        ],
        "Electric Guitar (clean)": [
            {
                "start_time": 1.4136364,
                "end_time": 2.7772727,
                "pitch": 33,
                "velocity": 127,
                "duration": 1.3636364,
                "tempo": 120.0
            },
            {
                "start_time": 2.8454545,
                "end_time": 4.1931818,
                "pitch": 33,
                "velocity": 127,
                "duration": 1.3477273,
                "tempo": 120.0
            },
            {
                "start_time": 4.2590909,
                "end_time": 4.5818182,
                "pitch": 33,
                "velocity": 127,
                "duration": 0.3227273,
                "tempo": 120.0
            },
            {
                "start_time": 4.6159091,
                "end_time": 4.9545455,
                "pitch": 33,
                "velocity": 127,
                "duration": 0.3386364,
                "tempo": 120.0
            },
            {
                "start_time": 4.9886364,
                "end_time": 5.3090909,
                "pitch": 33,
                "velocity": 127,
                "duration": 0.3204545,
                "tempo": 120.0
            },
            {
                "start_time": 5.3431818,
                "end_time": 5.6659091,
                "pitch": 33,
                "velocity": 127,
                "duration": 0.3227273,
                "tempo": 120.0
            },
            {
                "start_time": 5.7,
                "end_time": 7.0636364,
                "pitch": 33,
                "velocity": 127,
                "duration": 1.3636364,
                "tempo": 120.0
            },
            {
                "start_time": 7.1318182,
                "end_time": 8.4795455,
                "pitch": 33,
                "velocity": 127,
                "duration": 1.3477273,
                "tempo": 120.0
            },
            {
                "start_time": 8.5454545,
                "end_time": 9.9340909,
                "pitch": 33,
                "velocity": 127,
                "duration": 1.3886364,
                "tempo": 120.0
            },
            {
                "start_time": 9.9840909,
                "end_time": 10.3113636,
                "pitch": 33,
                "velocity": 127,
                "duration": 0.3272727,
                "tempo": 120.0
            },
            {
                "start_time": 10.3431818,
                "end_time": 10.6545455,
                "pitch": 33,
                "velocity": 127,
                "duration": 0.3113636,
                "tempo": 120.0
            },
            {
                "start_time": 10.6863636,
                "end_time": 11.0090909,
                "pitch": 33,
                "velocity": 127,
                "duration": 0.3227273,
                "tempo": 120.0
            },
            {
                "start_time": 11.0431818,
                "end_time": 11.3818182,
                "pitch": 33,
                "velocity": 127,
                "duration": 0.3386364,
                "tempo": 120.0
            },
            {
                "start_time": 11.4159091,
                "end_time": 12.7727273,
                "pitch": 33,
                "velocity": 127,
                "duration": 1.3568182,
                "tempo": 120.0
            },
            {
                "start_time": 12.8386364,
                "end_time": 14.2181818,
                "pitch": 33,
                "velocity": 127,
                "duration": 1.3795455,
                "tempo": 120.0
            },
            {
                "start_time": 14.2704545,
                "end_time": 15.6340909,
                "pitch": 33,
                "velocity": 127,
                "duration": 1.3636364,
                "tempo": 120.0
            },
            {
                "start_time": 15.7022727,
                "end_time": 16.0227273,
                "pitch": 33,
                "velocity": 127,
                "duration": 0.3204545,
                "tempo": 120.0
            },
            {
                "start_time": 16.0568182,
                "end_time": 16.3795455,
                "pitch": 33,
                "velocity": 127,
                "duration": 0.3227273,
                "tempo": 120.0
            },
            {
                "start_time": 16.4136364,
                "end_time": 16.7386364,
                "pitch": 33,
                "velocity": 127,
                "duration": 0.325,
                "tempo": 120.0
            },
            {
                "start_time": 16.7727273,
                "end_time": 17.0840909,
                "pitch": 33,
                "velocity": 127,
                "duration": 0.3113636,
                "tempo": 120.0
            },
            {
                "start_time": 17.1159091,
                "end_time": 18.4977273,
                "pitch": 33,
                "velocity": 127,
                "duration": 1.3818182,
                "tempo": 120.0
            },
            {
                "start_time": 18.5477273,
                "end_time": 19.9181818,
                "pitch": 33,
                "velocity": 127,
                "duration": 1.3704545,
                "tempo": 120.0
            },
            {
                "start_time": 19.9863636,
                "end_time": 21.3340909,
                "pitch": 33,
                "velocity": 127,
                "duration": 1.3477273,
                "tempo": 120.0
            },
            {
                "start_time": 21.4,
                "end_time": 21.7204545,
                "pitch": 33,
                "velocity": 127,
                "duration": 0.3204545,
                "tempo": 120.0
            },
            {
                "start_time": 21.7545455,
                "end_time": 22.0931818,
                "pitch": 33,
                "velocity": 127,
                "duration": 0.3386364,
                "tempo": 120.0
            },
            {
                "start_time": 22.1272727,
                "end_time": 22.45,
                "pitch": 33,
                "velocity": 127,
                "duration": 0.3227273,
                "tempo": 120.0
            },
            {
                "start_time": 22.4840909,
                "end_time": 22.8045455,
                "pitch": 33,
                "velocity": 127,
                "duration": 0.3204545,
                "tempo": 120.0
            },
            {
                "start_time": 22.8386364,
                "end_time": 24.2045455,
                "pitch": 33,
                "velocity": 127,
                "duration": 1.3659091,
                "tempo": 120.0
            },
            {
                "start_time": 24.2704545,
                "end_time": 25.6272727,
                "pitch": 33,
                "velocity": 127,
                "duration": 1.3568182,
                "tempo": 120.0
            },
            {
                "start_time": 25.6954545,
                "end_time": 27.075,
                "pitch": 33,
                "velocity": 127,
                "duration": 1.3795455,
                "tempo": 120.0
            },
            {
                "start_time": 27.1272727,
                "end_time": 27.4568182,
                "pitch": 33,
                "velocity": 127,
                "duration": 0.3295455,
                "tempo": 120.0
            },
            {
                "start_time": 27.4909091,
                "end_time": 27.8045455,
                "pitch": 33,
                "velocity": 127,
                "duration": 0.3136364,
                "tempo": 120.0
            },
            {
                "start_time": 27.8386364,
                "end_time": 28.1568182,
                "pitch": 33,
                "velocity": 127,
                "duration": 0.3181818,
                "tempo": 120.0
            },
            {
                "start_time": 28.1909091,
                "end_time": 28.525,
                "pitch": 33,
                "velocity": 127,
                "duration": 0.3340909,
                "tempo": 120.0
            },
            {
                "start_time": 28.5590909,
                "end_time": 29.9159091,
                "pitch": 33,
                "velocity": 127,
                "duration": 1.3568182,
                "tempo": 120.0
            },
            {
                "start_time": 29.9818182,
                "end_time": 31.3636364,
                "pitch": 33,
                "velocity": 127,
                "duration": 1.3818182,
                "tempo": 120.0
            },
            {
                "start_time": 31.4159091,
                "end_time": 32.7863636,
                "pitch": 33,
                "velocity": 127,
                "duration": 1.3704545,
                "tempo": 120.0
            },
            {
                "start_time": 32.8545455,
                "end_time": 33.1727273,
                "pitch": 33,
                "velocity": 127,
                "duration": 0.3181818,
                "tempo": 120.0
            },
            {
                "start_time": 33.2068182,
                "end_time": 33.525,
                "pitch": 33,
                "velocity": 127,
                "duration": 0.3181818,
                "tempo": 120.0
            },
            {
                "start_time": 33.5590909,
                "end_time": 33.8886364,
                "pitch": 33,
                "velocity": 127,
                "duration": 0.3295455,
                "tempo": 120.0
            },
            {
                "start_time": 33.9227273,
                "end_time": 34.2363636,
                "pitch": 33,
                "velocity": 127,
                "duration": 0.3136364,
                "tempo": 120.0
            },
            {
                "start_time": 34.2704545,
                "end_time": 34.9795455,
                "pitch": 33,
                "velocity": 127,
                "duration": 0.7090909,
                "tempo": 120.0
            }
        ],
        "Church Organ": [
            {
                "start_time": 0.0,
                "end_time": 0.65,
                "pitch": 60,
                "velocity": 127,
                "duration": 0.65,
                "tempo": 120.0
            },
            {
                "start_time": 0.7181818,
                "end_time": 1.3636364,
                "pitch": 60,
                "velocity": 127,
                "duration": 0.6454545,
                "tempo": 120.0
            },
            {
                "start_time": 1.4136364,
                "end_time": 2.0590909,
                "pitch": 60,
                "velocity": 127,
                "duration": 0.6454545,
                "tempo": 120.0
            },
            {
                "start_time": 2.125,
                "end_time": 2.7772727,
                "pitch": 60,
                "velocity": 101,
                "duration": 0.6522727,
                "tempo": 120.0
            },
            {
                "start_time": 2.8454545,
                "end_time": 3.5045455,
                "pitch": 62,
                "velocity": 127,
                "duration": 0.6590909,
                "tempo": 120.0
            },
            {
                "start_time": 3.5568182,
                "end_time": 4.1931818,
                "pitch": 62,
                "velocity": 127,
                "duration": 0.6363636,
                "tempo": 120.0
            },
            {
                "start_time": 4.2590909,
                "end_time": 4.9204545,
                "pitch": 62,
                "velocity": 127,
                "duration": 0.6613636,
                "tempo": 120.0
            },
            {
                "start_time": 4.9886364,
                "end_time": 5.65,
                "pitch": 62,
                "velocity": 101,
                "duration": 0.6613636,
                "tempo": 120.0
            },
            {
                "start_time": 2.8454545,
                "end_time": 6.3454545,
                "pitch": 60,
                "velocity": 127,
                "duration": 3.5,
                "tempo": 120.0
            },
            {
                "start_time": 5.7,
                "end_time": 6.3454545,
                "pitch": 60,
                "velocity": 127,
                "duration": 0.6454545,
                "tempo": 120.0
            },
            {
                "start_time": 6.4113636,
                "end_time": 7.0636364,
                "pitch": 60,
                "velocity": 127,
                "duration": 0.6522727,
                "tempo": 120.0
            },
            {
                "start_time": 7.1318182,
                "end_time": 7.7909091,
                "pitch": 60,
                "velocity": 127,
                "duration": 0.6590909,
                "tempo": 120.0
            },
            {
                "start_time": 7.8431818,
                "end_time": 8.4795455,
                "pitch": 60,
                "velocity": 101,
                "duration": 0.6363636,
                "tempo": 120.0
            },
            {
                "start_time": 11.4159091,
                "end_time": 12.075,
                "pitch": 60,
                "velocity": 127,
                "duration": 0.6590909,
                "tempo": 120.0
            },
            {
                "start_time": 12.1272727,
                "end_time": 12.7727273,
                "pitch": 60,
                "velocity": 127,
                "duration": 0.6454545,
                "tempo": 120.0
            },
            {
                "start_time": 12.8386364,
                "end_time": 13.4909091,
                "pitch": 60,
                "velocity": 127,
                "duration": 0.6522727,
                "tempo": 120.0
            },
            {
                "start_time": 13.5590909,
                "end_time": 14.2181818,
                "pitch": 60,
                "velocity": 101,
                "duration": 0.6590909,
                "tempo": 120.0
            },
            {
                "start_time": 5.7,
                "end_time": 14.9136364,
                "pitch": 62,
                "velocity": 127,
                "duration": 9.2136364,
                "tempo": 120.0
            },
            {
                "start_time": 14.2704545,
                "end_time": 14.9136364,
                "pitch": 62,
                "velocity": 127,
                "duration": 0.6431818,
                "tempo": 120.0
            },
            {
                "start_time": 14.9818182,
                "end_time": 15.6340909,
                "pitch": 62,
                "velocity": 127,
                "duration": 0.6522727,
                "tempo": 120.0
            },
            {
                "start_time": 15.7022727,
                "end_time": 16.3613636,
                "pitch": 62,
                "velocity": 127,
                "duration": 0.6590909,
                "tempo": 120.0
            },
            {
                "start_time": 16.4136364,
                "end_time": 17.05,
                "pitch": 62,
                "velocity": 101,
                "duration": 0.6363636,
                "tempo": 120.0
            },
            {
                "start_time": 14.2704545,
                "end_time": 17.7772727,
                "pitch": 60,
                "velocity": 127,
                "duration": 3.5068182,
                "tempo": 120.0
            },
            {
                "start_time": 17.1159091,
                "end_time": 17.7772727,
                "pitch": 60,
                "velocity": 127,
                "duration": 0.6613636,
                "tempo": 120.0
            },
            {
                "start_time": 17.8454545,
                "end_time": 18.4977273,
                "pitch": 60,
                "velocity": 127,
                "duration": 0.6522727,
                "tempo": 120.0
            },
            {
                "start_time": 18.5477273,
                "end_time": 19.1931818,
                "pitch": 60,
                "velocity": 127,
                "duration": 0.6454545,
                "tempo": 120.0
            },
            {
                "start_time": 19.2590909,
                "end_time": 19.9181818,
                "pitch": 60,
                "velocity": 101,
                "duration": 0.6590909,
                "tempo": 120.0
            },
            {
                "start_time": 22.8386364,
                "end_time": 22.8409091,
                "pitch": 60,
                "velocity": 127,
                "duration": 0.0022727,
                "tempo": 120.0
            },
            {
                "start_time": 22.8409091,
                "end_time": 23.4840909,
                "pitch": 64,
                "velocity": 127,
                "duration": 0.6431818,
                "tempo": 120.0
            },
            {
                "start_time": 23.5522727,
                "end_time": 24.2045455,
                "pitch": 64,
                "velocity": 127,
                "duration": 0.6522727,
                "tempo": 120.0
            },
            {
                "start_time": 24.2727273,
                "end_time": 24.9318182,
                "pitch": 64,
                "velocity": 127,
                "duration": 0.6590909,
                "tempo": 120.0
            },
            {
                "start_time": 24.9840909,
                "end_time": 25.6295455,
                "pitch": 64,
                "velocity": 101,
                "duration": 0.6454545,
                "tempo": 120.0
            },
            {
                "start_time": 28.5590909,
                "end_time": 29.2113636,
                "pitch": 64,
                "velocity": 127,
                "duration": 0.6522727,
                "tempo": 120.0
            },
            {
                "start_time": 29.2636364,
                "end_time": 29.9159091,
                "pitch": 64,
                "velocity": 127,
                "duration": 0.6522727,
                "tempo": 120.0
            },
            {
                "start_time": 29.9840909,
                "end_time": 30.6363636,
                "pitch": 64,
                "velocity": 127,
                "duration": 0.6522727,
                "tempo": 120.0
            },
            {
                "start_time": 30.7022727,
                "end_time": 31.3636364,
                "pitch": 64,
                "velocity": 101,
                "duration": 0.6613636,
                "tempo": 120.0
            },
            {
                "start_time": 34.2704545,
                "end_time": 34.9227273,
                "pitch": 60,
                "velocity": 127,
                "duration": 0.6522727,
                "tempo": 120.0
            }
        ]
    }
}