{
    "mood": "sad",
    "instruments": {
        "Electric Guitar (clean)": [
            {
                "start_time": 26.9522727,
                "end_time": 27.7386364,
                "pitch": 89,
                "velocity": 40,
                "duration": 0.7863636,
                "tempo": 120.0
            }
        ],
        "Trumpet": [
            {
                "start_time": 9.6477273,
                "end_time": 10.0295455,
                "pitch": 70,
                "velocity": 80,
                "duration": 0.3818182,
                "tempo": 120.0
            },
            {
                "start_time": 10.0477273,
                "end_time": 10.1318182,
                "pitch": 74,
                "velocity": 80,
                "duration": 0.0840909,
                "tempo": 120.0
            },
            {
                "start_time": 10.1477273,
                "end_time": 10.2318182,
                "pitch": 73,
                "velocity": 80,
                "duration": 0.0840909,
                "tempo": 120.0
            },
            {
                "start_time": 10.2477273,
                "end_time": 10.6340909,
                "pitch": 74,
                "velocity": 80,
                "duration": 0.3863636,
                "tempo": 120.0
            },
            {
                "start_time": 10.65,
                "end_time": 10.7340909,
                "pitch": 77,
                "velocity": 80,
                "duration": 0.0840909,
                "tempo": 120.0
            },
            {
                "start_time": 10.75,
                "end_time": 10.8340909,
                "pitch": 76,
                "velocity": 80,
                "duration": 0.0840909,
                "tempo": 120.0
            },
            {
                "start_time": 10.85,
                "end_time": 11.2363636,
                "pitch": 77,
                "velocity": 80,
                "duration": 0.3863636,
                "tempo": 120.0
            },
            {
                "start_time": 11.2522727,
                "end_time": 11.3363636,
                "pitch": 80,
                "velocity": 80,
                "duration": 0.0840909,
                "tempo": 120.0
            },
            {
                "start_time": 11.3522727,
                "end_time": 11.4363636,
                "pitch": 79,
                "velocity": 80,
                "duration": 0.0840909,
                "tempo": 120.0
            },
            {
                "start_time": 11.4545455,
                "end_time": 11.8386364,
                "pitch": 80,
                "velocity": 80,
                "duration": 0.3840909,
                "tempo": 120.0
            },
            {
                "start_time": 11.8568182,
                "end_time": 12.0409091,
                "pitch": 77,
                "velocity": 80,
                "duration": 0.1840909,
                "tempo": 120.0
            },
            {
                "start_time": 12.0568182,
                "end_time": 12.4409091,
                "pitch": 68,
                "velocity": 80,
                "duration": 0.3840909,
                "tempo": 120.0
            },
            {
                "start_time": 12.4590909,
                "end_time": 12.5409091,
                "pitch": 71,
                "velocity": 80,
                "duration": 0.0818182,
                "tempo": 120.0
            },
            {
                "start_time": 12.5590909,
                "end_time": 12.6431818,
                "pitch": 70,
                "velocity": 80,
                "duration": 0.0840909,
                "tempo": 120.0
            },
            {
                "start_time": 12.6590909,
                "end_time": 13.0431818,
                "pitch": 71,
                "velocity": 80,
                "duration": 0.3840909,
                "tempo": 120.0
            },
            {
                "start_time": 13.0613636,
                "end_time": 13.1431818,
                "pitch": 74,
                "velocity": 80,
                "duration": 0.0818182,
                "tempo": 120.0
            },
            {
                "start_time": 13.1613636,
                "end_time": 13.2454545,
                "pitch": 73,
                "velocity": 80,
                "duration": 0.0840909,
                "tempo": 120.0
            },
            {
                "start_time": 13.2613636,
                "end_time": 13.6477273,
                "pitch": 74,
                "velocity": 80,
                "duration": 0.3863636,
                "tempo": 120.0
            },
            {
                "start_time": 13.6636364,
                "end_time": 13.7477273,
                "pitch": 77,
                "velocity": 80,
                "duration": 0.0840909,
                "tempo": 120.0
            },
            {
                "start_time": 13.7636364,
                "end_time": 13.8477273,
                "pitch": 76,
                "velocity": 80,
                "duration": 0.0840909,
                "tempo": 120.0
            },
            {
                "start_time": 13.8636364,
                "end_time": 14.25,
                "pitch": 77,
                "velocity": 80,
                "duration": 0.3863636,
                "tempo": 120.0
            },
            {
                "start_time": 14.2659091,
                "end_time": 14.45,
                "pitch": 74,
                "velocity": 80,
                "duration": 0.1840909,
                "tempo": 120.0
            },
            {
                "start_time": 14.4659091,
                "end_time": 14.8522727,
                "pitch": 70,
                "velocity": 80,
                "duration": 0.3863636,
                "tempo": 120.0
            },
            {
                "start_time": 14.8681818,
                "end_time": 14.9522727,
                "pitch": 74,
                "velocity": 80,
                "duration": 0.0840909,
                "tempo": 120.0
            },
            {
                "start_time": 14.9704545,
                "end_time": 15.0522727,
                "pitch": 73,
                "velocity": 80,
                "duration": 0.0818182,
                "tempo": 120.0
            },
            {
                "start_time": 15.0704545,
                "end_time": 15.4545455,
                "pitch": 74,
                "velocity": 80,
                "duration": 0.3840909,
                "tempo": 120.0
            },
            {
                "start_time": 15.4704545,
                "end_time": 15.5545455,
                "pitch": 77,
                "velocity": 80,
                "duration": 0.0840909,
                "tempo": 120.0
            },
            {
                "start_time": 15.5727273,
                "end_time": 15.6545455,
                "pitch": 76,
                "velocity": 80,
                "duration": 0.0818182,
                "tempo": 120.0
            },
            {
                "start_time": 15.6727273,
                "end_time": 16.0568182,
                "pitch": 77,
                "velocity": 80,
                "duration": 0.3840909,
                "tempo": 120.0
            },
            {
                "start_time": 16.0727273,
                "end_time": 16.1568182,
                "pitch": 80,
                "velocity": 80,
                "duration": 0.0840909,
                "tempo": 120.0
            },
            {
                "start_time": 16.175,
                "end_time": 16.2568182,
                "pitch": 79,
                "velocity": 80,
                "duration": 0.0818182,
                "tempo": 120.0
            },
            {
                "start_time": 16.275,
                "end_time": 16.4636364,
                "pitch": 80,
                "velocity": 80,
                "duration": 0.1886364,
                "tempo": 120.0
            },
            {
                "start_time": 16.4818182,
                "end_time": 16.6704545,
                "pitch": 83,
                "velocity": 80,
                "duration": 0.1886364,
                "tempo": 120.0
            },
            {
                "start_time": 16.6863636,
                "end_time": 16.8704545,
                "pitch": 80,
                "velocity": 80,
                "duration": 0.1840909,
                "tempo": 120.0
            }
        ],
        "Church Organ": [
            {
                "start_time": 0.0045455,
                "end_time": 0.5886364,
                "pitch": 69,
                "velocity": 80,
                "duration": 0.5840909,
                "tempo": 120.0
            },
            {
                "start_time": 0.6045455,
                "end_time": 1.1909091,
                "pitch": 70,
                "velocity": 80,
                "duration": 0.5863636,
                "tempo": 120.0
            },
            {
                "start_time": 1.2068182,
                "end_time": 1.7931818,
                "pitch": 68,
                "velocity": 80,
                "duration": 0.5863636,
                "tempo": 120.0
            },
            {
                "start_time": 1.8090909,
                "end_time": 2.3954545,
                "pitch": 69,
                "velocity": 80,
                "duration": 0.5863636,
                "tempo": 120.0
            },
            {
                "start_time": 2.4136364,
                "end_time": 2.9977273,
                "pitch": 69,
                "velocity": 80,
                "duration": 0.5840909,
                "tempo": 120.0
            },
            {
                "start_time": 3.0136364,
                "end_time": 3.6,
                "pitch": 70,
                "velocity": 80,
                "duration": 0.5863636,
                "tempo": 120.0
            },
            {
                "start_time": 3.6159091,
                "end_time": 4.2022727,
                "pitch": 75,
                "velocity": 80,
                "duration": 0.5863636,
                "tempo": 120.0
            },
            {
                "start_time": 4.2181818,
                "end_time": 4.8022727,
                "pitch": 74,
                "velocity": 80,
                "duration": 0.5840909,
                "tempo": 120.0
            },
            {
                "start_time": 4.8204545,
                "end_time": 5.4045455,
                "pitch": 69,
                "velocity": 80,
                "duration": 0.5840909,
                "tempo": 120.0
            },
            {
                "start_time": 5.4227273,
                "end_time": 6.0090909,
                "pitch": 70,
                "velocity": 80,
                "duration": 0.5863636,
                "tempo": 120.0
            },
            {
                "start_time": 6.025,
                "end_time": 6.6090909,
                "pitch": 68,
                "velocity": 80,
                "duration": 0.5840909,
                "tempo": 120.0
            },
            {
                "start_time": 6.625,
                "end_time": 7.2113636,
                "pitch": 69,
                "velocity": 80,
                "duration": 0.5863636,
                "tempo": 120.0
            },
            {
                "start_time": 7.2295455,
                "end_time": 7.8227273,
                "pitch": 69,
                "velocity": 80,
                "duration": 0.5931818,
                "tempo": 120.0
            },
            {
                "start_time": 7.8386364,
                "end_time": 8.425,
                "pitch": 70,
                "velocity": 80,
                "duration": 0.5863636,
                "tempo": 120.0
            },
            {
                "start_time": 8.4431818,
                "end_time": 8.8181818,
                "pitch": 75,
                "velocity": 80,
                "duration": 0.375,
                "tempo": 120.0
            },
            {
                "start_time": 8.8363636,
                "end_time": 8.9227273,
                "pitch": 74,
                "velocity": 80,
                "duration": 0.0863636,
                "tempo": 120.0
            },
            {
                "start_time": 8.9409091,
                "end_time": 9.0272727,
                "pitch": 75,
                "velocity": 80,
                "duration": 0.0863636,
                "tempo": 120.0
            },
            {
                "start_time": 9.0454545,
                "end_time": 9.1272727,
                "pitch": 76,
                "velocity": 80,
                "duration": 0.0818182,
                "tempo": 120.0
            },
            {
                "start_time": 9.1454545,
                "end_time": 9.2272727,
                "pitch": 77,
                "velocity": 80,
                "duration": 0.0818182,
                "tempo": 120.0
            },
            {
                "start_time": 9.2454545,
                "end_time": 9.3272727,
                "pitch": 78,
                "velocity": 80,
                "duration": 0.0818182,
                "tempo": 120.0
            },
            {
                "start_time": 9.3454545,
                "end_time": 9.4295455,
                "pitch": 79,
                "velocity": 80,
                "duration": 0.0840909,
                "tempo": 120.0
            },
            {
                "start_time": 9.4454545,
                "end_time": 9.5295455,
                "pitch": 80,
                "velocity": 80,
                "duration": 0.0840909,
                "tempo": 120.0
            },
            {
                "start_time": 9.5454545,
                "end_time": 9.6295455,
                "pitch": 81,
                "velocity": 80,
                "duration": 0.0840909,
                "tempo": 120.0
            },
            {
                "start_time": 9.6477273,
                "end_time": 10.2318182,
                "pitch": 58,
                "velocity": 80,
                "duration": 0.5840909,
                "tempo": 120.0
            },
            {
                "start_time": 10.25,
                "end_time": 10.8340909,
                "pitch": 62,
                "velocity": 80,
                "duration": 0.5840909,
                "tempo": 120.0
            },
            {
                "start_time": 10.8522727,
                "end_time": 11.4363636,
                "pitch": 65,
                "velocity": 80,
                "duration": 0.5840909,
                "tempo": 120.0
            },
            {
                "start_time": 11.4545455,
                "end_time": 12.0409091,
                "pitch": 62,
                "velocity": 80,
                "duration": 0.5863636,
                "tempo": 120.0
            },
            {
                "start_time": 12.0568182,
                "end_time": 12.6431818,
                "pitch": 56,
                "velocity": 80,
                "duration": 0.5863636,
                "tempo": 120.0
            },
            {
                "start_time": 12.6590909,
                "end_time": 13.2454545,
                "pitch": 59,
                "velocity": 80,
                "duration": 0.5863636,
                "tempo": 120.0
            },
            {
                "start_time": 13.2613636,
                "end_time": 13.8477273,
                "pitch": 65,
                "velocity": 80,
                "duration": 0.5863636,
                "tempo": 120.0
            },
            {
                "start_time": 13.8636364,
                "end_time": 14.45,
                "pitch": 62,
                "velocity": 80,
                "duration": 0.5863636,
                "tempo": 120.0
            },
            {
                "start_time": 14.4681818,
                "end_time": 15.0522727,
                "pitch": 58,
                "velocity": 80,
                "duration": 0.5840909,
                "tempo": 120.0
            },
            {
                "start_time": 15.0704545,
                "end_time": 15.6545455,
                "pitch": 62,
                "velocity": 80,
                "duration": 0.5840909,
                "tempo": 120.0
            },
            {
                "start_time": 15.6727273,
                "end_time": 16.2568182,
                "pitch": 65,
                "velocity": 80,
                "duration": 0.5840909,
                "tempo": 120.0
            },
            {
                "start_time": 16.275,
                "end_time": 16.8704545,
                "pitch": 69,
                "velocity": 80,
                "duration": 0.5954545,
                "tempo": 120.0
            },
            {
                "start_time": 16.8886364,
                "end_time": 17.4727273,
                "pitch": 69,
                "velocity": 80,
                "duration": 0.5840909,
                "tempo": 120.0
            },
            {
                "start_time": 17.4909091,
                "end_time": 18.0772727,
                "pitch": 70,
                "velocity": 80,
                "duration": 0.5863636,
                "tempo": 120.0
            },
            {
                "start_time": 18.0954545,
                "end_time": 18.6795455,
                "pitch": 68,
                "velocity": 80,
                "duration": 0.5840909,
                "tempo": 120.0
            },
            {
                "start_time": 18.6977273,
                "end_time": 19.2840909,
                "pitch": 69,
                "velocity": 80,
                "duration": 0.5863636,
                "tempo": 120.0
            },
            {
                "start_time": 19.3,
                "end_time": 19.8863636,
                "pitch": 69,
                "velocity": 80,
                "duration": 0.5863636,
                "tempo": 120.0
            },
            {
                "start_time": 19.9045455,
                "end_time": 20.4909091,
                "pitch": 70,
                "velocity": 80,
                "duration": 0.5863636,
                "tempo": 120.0
            },
            {
                "start_time": 20.5068182,
                "end_time": 21.0931818,
                "pitch": 75,
                "velocity": 80,
                "duration": 0.5863636,
                "tempo": 120.0
            },
            {
                "start_time": 21.1113636,
                "end_time": 21.6954545,
                "pitch": 74,
                "velocity": 80,
                "duration": 0.5840909,
                "tempo": 120.0
            },
            {
                "start_time": 21.7136364,
                "end_time": 21.7454545,
                "pitch": 77,
                "velocity": 80,
                "duration": 0.0318182,
                "tempo": 120.0
            },
            {
                "start_time": 21.7636364,
                "end_time": 21.7954545,
                "pitch": 76,
                "velocity": 80,
                "duration": 0.0318182,
                "tempo": 120.0
            },
            {
                "start_time": 21.8136364,
                "end_time": 21.8477273,
                "pitch": 75,
                "velocity": 80,
                "duration": 0.0340909,
                "tempo": 120.0
            },
            {
                "start_time": 21.8636364,
                "end_time": 21.8977273,
                "pitch": 74,
                "velocity": 80,
                "duration": 0.0340909,
                "tempo": 120.0
            },
            {
                "start_time": 21.9136364,
                "end_time": 21.9477273,
                "pitch": 73,
                "velocity": 80,
                "duration": 0.0340909,
                "tempo": 120.0
            },
            {
                "start_time": 21.9636364,
                "end_time": 21.9977273,
                "pitch": 72,
                "velocity": 80,
                "duration": 0.0340909,
                "tempo": 120.0
            },
            {
                "start_time": 22.0159091,
                "end_time": 22.0477273,
                "pitch": 71,
                "velocity": 80,
                "duration": 0.0318182,
                "tempo": 120.0
            },
            {
                "start_time": 22.0659091,
                "end_time": 22.0977273,
                "pitch": 70,
                "velocity": 80,
                "duration": 0.0318182,
                "tempo": 120.0
            },
            {
                "start_time": 22.1159091,
                "end_time": 22.1477273,
                "pitch": 69,
                "velocity": 80,
                "duration": 0.0318182,
                "tempo": 120.0
            },
            {
                "start_time": 22.1659091,
                "end_time": 22.2,
                "pitch": 68,
                "velocity": 80,
                "duration": 0.0340909,
                "tempo": 120.0
            },
            {
                "start_time": 22.2159091,
                "end_time": 22.25,
                "pitch": 67,
                "velocity": 80,
                "duration": 0.0340909,
                "tempo": 120.0
            },
            {
                "start_time": 22.2659091,
                "end_time": 22.3,
                "pitch": 66,
                "velocity": 80,
                "duration": 0.0340909,
                "tempo": 120.0
            },
            {
                "start_time": 22.3159091,
                "end_time": 22.35,
                "pitch": 65,
                "velocity": 80,
                "duration": 0.0340909,
                "tempo": 120.0
            },
            {
                "start_time": 22.3681818,
                "end_time": 22.4,
                "pitch": 64,
                "velocity": 80,
                "duration": 0.0318182,
                "tempo": 120.0
            },
            {
                "start_time": 22.4181818,
                "end_time": 22.45,
                "pitch": 63,
                "velocity": 80,
                "duration": 0.0318182,
                "tempo": 120.0
            },
            {
                "start_time": 22.4681818,
                "end_time": 22.5,
                "pitch": 62,
                "velocity": 80,
                "duration": 0.0318182,
                "tempo": 120.0
            },
            {
                "start_time": 22.5181818,
                "end_time": 22.55,
                "pitch": 61,
                "velocity": 80,
                "duration": 0.0318182,
                "tempo": 120.0
            },
            {
                "start_time": 22.5681818,
                "end_time": 22.6022727,
                "pitch": 60,
                "velocity": 80,
                "duration": 0.0340909,
                "tempo": 120.0
            },
            {
                "start_time": 22.6181818,
                "end_time": 22.6522727,
                "pitch": 59,
                "velocity": 80,
                "duration": 0.0340909,
                "tempo": 120.0
            },
            {
                "start_time": 22.6681818,
                "end_time": 22.7022727,
                "pitch": 58,
                "velocity": 80,
                "duration": 0.0340909,
                "tempo": 120.0
            },
            {
                "start_time": 22.7204545,
                "end_time": 22.7522727,
                "pitch": 57,
                "velocity": 80,
                "duration": 0.0318182,
                "tempo": 120.0
            },
            {
                "start_time": 22.7704545,
                "end_time": 22.8022727,
                "pitch": 56,
                "velocity": 80,
                "duration": 0.0318182,
                "tempo": 120.0
            },
            {
                "start_time": 22.8204545,
                "end_time": 22.8522727,
                "pitch": 55,
                "velocity": 80,
                "duration": 0.0318182,
                "tempo": 120.0
            },
            {
                "start_time": 22.8704545,
                "end_time": 22.9022727,
                "pitch": 54,
                "velocity": 80,
                "duration": 0.0318182,
                "tempo": 120.0
            },
            {
                "start_time": 22.9204545,
                "end_time": 22.9545455,
                "pitch": 53,
                "velocity": 80,
                "duration": 0.0340909,
                "tempo": 120.0
            },
            {
                "start_time": 22.9704545,
                "end_time": 23.0045455,
                "pitch": 54,
                "velocity": 80,
                "duration": 0.0340909,
                "tempo": 120.0
            },
            {
                "start_time": 23.0204545,
                "end_time": 23.0545455,
                "pitch": 55,
                "velocity": 80,
                "duration": 0.0340909,
                "tempo": 120.0
            },
            {
                "start_time": 23.0704545,
                "end_time": 23.1045455,
                "pitch": 56,
                "velocity": 80,
                "duration": 0.0340909,
                "tempo": 120.0
            },
            {
                "start_time": 23.1204545,
                "end_time": 23.1545455,
                "pitch": 57,
                "velocity": 80,
                "duration": 0.0340909,
                "tempo": 120.0
            },
            {
                "start_time": 23.1704545,
                "end_time": 23.2045455,
                "pitch": 58,
                "velocity": 80,
                "duration": 0.0340909,
                "tempo": 120.0
            },
            {
                "start_time": 23.2204545,
                "end_time": 23.2545455,
                "pitch": 59,
                "velocity": 80,
                "duration": 0.0340909,
                "tempo": 120.0
            },
            {
                "start_time": 23.2704545,
                "end_time": 23.3045455,
                "pitch": 60,
                "velocity": 80,
                "duration": 0.0340909,
                "tempo": 120.0
            },
            {
                "start_time": 23.3227273,
                "end_time": 23.3545455,
                "pitch": 61,
                "velocity": 80,
                "duration": 0.0318182,
                "tempo": 120.0
            },
            {
                "start_time": 23.3727273,
                "end_time": 23.4045455,
                "pitch": 62,
                "velocity": 80,
                "duration": 0.0318182,
                "tempo": 120.0
            },
            {
                "start_time": 23.4227273,
                "end_time": 23.4545455,
                "pitch": 63,
                "velocity": 80,
                "duration": 0.0318182,
                "tempo": 120.0
            },
            {
                "start_time": 23.4727273,
                "end_time": 23.5045455,
                "pitch": 64,
                "velocity": 80,
                "duration": 0.0318182,
                "tempo": 120.0
            },
            {
                "start_time": 23.5227273,
                "end_time": 23.5568182,
                "pitch": 65,
                "velocity": 80,
                "duration": 0.0340909,
                "tempo": 120.0
            },
            {
                "start_time": 23.5727273,
                "end_time": 23.6068182,
                "pitch": 66,
                "velocity": 80,
                "duration": 0.0340909,
                "tempo": 120.0
            },
            {
                "start_time": 23.6227273,
                "end_time": 23.6568182,
                "pitch": 67,
                "velocity": 80,
                "duration": 0.0340909,
                "tempo": 120.0
            },
            {
                "start_time": 23.6727273,
                "end_time": 23.7068182,
                "pitch": 68,
                "velocity": 80,
                "duration": 0.0340909,
                "tempo": 120.0
            },
            {
                "start_time": 23.725,
                "end_time": 23.7568182,
                "pitch": 69,
                "velocity": 80,
                "duration": 0.0318182,
                "tempo": 120.0
            },
            {
                "start_time": 23.775,
                "end_time": 23.8068182,
                "pitch": 70,
                "velocity": 80,
                "duration": 0.0318182,
                "tempo": 120.0
            },
            {
                "start_time": 23.825,
                "end_time": 23.8590909,
                "pitch": 71,
                "velocity": 80,
                "duration": 0.0340909,
                "tempo": 120.0
            },
            {
                "start_time": 23.8772727,
                "end_time": 23.9113636,
                "pitch": 72,
                "velocity": 80,
                "duration": 0.0340909,
                "tempo": 120.0
            },
            {
                "start_time": 23.9272727,
                "end_time": 23.9613636,
                "pitch": 73,
                "velocity": 80,
                "duration": 0.0340909,
                "tempo": 120.0
            },
            {
                "start_time": 23.9795455,
                "end_time": 24.0136364,
                "pitch": 74,
                "velocity": 80,
                "duration": 0.0340909,
                "tempo": 120.0
            },
            {
                "start_time": 24.0318182,
                "end_time": 24.0659091,
                "pitch": 75,
                "velocity": 80,
                "duration": 0.0340909,
                "tempo": 120.0
            },
            {
                "start_time": 24.0840909,
                "end_time": 24.1181818,
                "pitch": 76,
                "velocity": 80,
                "duration": 0.0340909,
                "tempo": 120.0
            },
            {
                "start_time": 27.7568182,
                "end_time": 28.0568182,
                "pitch": 69,
                "velocity": 80,
                "duration": 0.3,
                "tempo": 120.0
            }
        ],
        "Synth Bass 1": [
            {
                "start_time": 0.0068182,
                "end_time": 0.0863636,
                "pitch": 50,
                "velocity": 40,
                "duration": 0.0795455,
                "tempo": 120.0
            },
            {
                "start_time": 0.1045455,
                "end_time": 0.1863636,
                "pitch": 47,
                "velocity": 40,
                "duration": 0.0818182,
                "tempo": 120.0
            },
            {
                "start_time": 0.2045455,
                "end_time": 0.2886364,
                "pitch": 44,
                "velocity": 40,
                "duration": 0.0840909,
                "tempo": 120.0
            },
            {
                "start_time": 0.3045455,
                "end_time": 0.3886364,
                "pitch": 41,
                "velocity": 40,
                "duration": 0.0840909,
                "tempo": 120.0
            },
            {
                "start_time": 0.4045455,
                "end_time": 0.4886364,
                "pitch": 38,
                "velocity": 40,
                "duration": 0.0840909,
                "tempo": 120.0
            },
            {
                "start_time": 0.5045455,
                "end_time": 0.5886364,
                "pitch": 41,
                "velocity": 40,
                "duration": 0.0840909,
                "tempo": 120.0
            },
            {
                "start_time": 0.6068182,
                "end_time": 0.6886364,
                "pitch": 52,
                "velocity": 40,
                "duration": 0.0818182,
                "tempo": 120.0
            },
            {
                "start_time": 0.7068182,
                "end_time": 0.7886364,
                "pitch": 48,
                "velocity": 40,
                "duration": 0.0818182,
                "tempo": 120.0
            },
            {
                "start_time": 0.8068182,
                "end_time": 0.8886364,
                "pitch": 45,
                "velocity": 40,
                "duration": 0.0818182,
                "tempo": 120.0
            },
            {
                "start_time": 0.9068182,
                "end_time": 0.9886364,
                "pitch": 40,
                "velocity": 40,
                "duration": 0.0818182,
                "tempo": 120.0
            },
            {
                "start_time": 1.0068182,
                "end_time": 1.0909091,
                "pitch": 45,
                "velocity": 40,
                "duration": 0.0840909,
                "tempo": 120.0
            },
            {
                "start_time": 1.1068182,
                "end_time": 1.1909091,
                "pitch": 48,
                "velocity": 40,
                "duration": 0.0840909,
                "tempo": 120.0
            },
            {
                "start_time": 1.2090909,
                "end_time": 1.2909091,
                "pitch": 52,
                "velocity": 40,
                "duration": 0.0818182,
                "tempo": 120.0
            },
            {
                "start_time": 1.3090909,
                "end_time": 1.3909091,
                "pitch": 48,
                "velocity": 40,
                "duration": 0.0818182,
                "tempo": 120.0
            },
            {
                "start_time": 1.4090909,
                "end_time": 1.4909091,
                "pitch": 45,
                "velocity": 40,
                "duration": 0.0818182,
                "tempo": 120.0
            },
            {
                "start_time": 1.5090909,
                "end_time": 1.5909091,
                "pitch": 40,
                "velocity": 40,
                "duration": 0.0818182,
                "tempo": 120.0
            },
            {
                "start_time": 1.6090909,
                "end_time": 1.6931818,
                "pitch": 52,
                "velocity": 40,
                "duration": 0.0840909,
                "tempo": 120.0
            },
            {
                "start_time": 1.7090909,
                "end_time": 1.7931818,
                "pitch": 48,
                "velocity": 40,
                "duration": 0.0840909,
                "tempo": 120.0
            },
            {
                "start_time": 1.8113636,
                "end_time": 1.8931818,
                "pitch": 53,
                "velocity": 40,
                "duration": 0.0818182,
                "tempo": 120.0
            },
            {
                "start_time": 1.9113636,
                "end_time": 1.9931818,
                "pitch": 49,
                "velocity": 40,
                "duration": 0.0818182,
                "tempo": 120.0
            },
            {
                "start_time": 2.0113636,
                "end_time": 2.0954545,
                "pitch": 46,
                "velocity": 40,
                "duration": 0.0840909,
                "tempo": 120.0
            },
            {
                "start_time": 2.1113636,
                "end_time": 2.1954545,
                "pitch": 41,
                "velocity": 40,
                "duration": 0.0840909,
                "tempo": 120.0
            },
            {
                "start_time": 2.2113636,
                "end_time": 2.2954545,
                "pitch": 53,
                "velocity": 40,
                "duration": 0.0840909,
                "tempo": 120.0
            },
            {
                "start_time": 2.3113636,
                "end_time": 2.3954545,
                "pitch": 48,
                "velocity": 40,
                "duration": 0.0840909,
                "tempo": 120.0
            },
            {
                "start_time": 2.4136364,
                "end_time": 2.4954545,
                "pitch": 50,
                "velocity": 40,
                "duration": 0.0818182,
                "tempo": 120.0
            },
            {
                "start_time": 2.5136364,
                "end_time": 2.5954545,
                "pitch": 47,
                "velocity": 40,
                "duration": 0.0818182,
                "tempo": 120.0
            },
            {
                "start_time": 2.6136364,
                "end_time": 2.6977273,
                "pitch": 44,
                "velocity": 40,
                "duration": 0.0840909,
                "tempo": 120.0
            },
            {
                "start_time": 2.7136364,
                "end_time": 2.7977273,
                "pitch": 41,
                "velocity": 40,
                "duration": 0.0840909,
                "tempo": 120.0
            },
            {
                "start_time": 2.8136364,
                "end_time": 2.8977273,
                "pitch": 38,
                "velocity": 40,
                "duration": 0.0840909,
                "tempo": 120.0
            },
            {
                "start_time": 2.9136364,
                "end_time": 2.9977273,
                "pitch": 41,
                "velocity": 40,
                "duration": 0.0840909,
                "tempo": 120.0
            },
            {
                "start_time": 3.0159091,
                "end_time": 3.0977273,
                "pitch": 52,
                "velocity": 40,
                "duration": 0.0818182,
                "tempo": 120.0
            },
            {
                "start_time": 3.1159091,
                "end_time": 3.1977273,
                "pitch": 48,
                "velocity": 40,
                "duration": 0.0818182,
                "tempo": 120.0
            },
            {
                "start_time": 3.2159091,
                "end_time": 3.2977273,
                "pitch": 45,
                "velocity": 40,
                "duration": 0.0818182,
                "tempo": 120.0
            },
            {
                "start_time": 3.3159091,
                "end_time": 3.3977273,
                "pitch": 40,
                "velocity": 40,
                "duration": 0.0818182,
                "tempo": 120.0
            },
            {
                "start_time": 3.4159091,
                "end_time": 3.5,
                "pitch": 45,
                "velocity": 40,
                "duration": 0.0840909,
                "tempo": 120.0
            },
            {
                "start_time": 3.5159091,
                "end_time": 3.6,
                "pitch": 48,
                "velocity": 40,
                "duration": 0.0840909,
                "tempo": 120.0
            },
            {
                "start_time": 3.6181818,
                "end_time": 3.7,
                "pitch": 52,
                "velocity": 40,
                "duration": 0.0818182,
                "tempo": 120.0
            },
            {
                "start_time": 3.7181818,
                "end_time": 3.8,
                "pitch": 48,
                "velocity": 40,
                "duration": 0.0818182,
                "tempo": 120.0
            },
            {
                "start_time": 3.8181818,
                "end_time": 3.9,
                "pitch": 45,
                "velocity": 40,
                "duration": 0.0818182,
                "tempo": 120.0
            },
            {
                "start_time": 3.9181818,
                "end_time": 4.0,
                "pitch": 40,
                "velocity": 40,
                "duration": 0.0818182,
                "tempo": 120.0
            },
            {
                "start_time": 4.0181818,
                "end_time": 4.1022727,
                "pitch": 52,
                "velocity": 40,
                "duration": 0.0840909,
                "tempo": 120.0
            },
            {
                "start_time": 4.1181818,
                "end_time": 4.2022727,
                "pitch": 48,
                "velocity": 40,
                "duration": 0.0840909,
                "tempo": 120.0
            },
            {
                "start_time": 4.2204545,
                "end_time": 4.3022727,
                "pitch": 53,
                "velocity": 40,
                "duration": 0.0818182,
                "tempo": 120.0
            },
            {
                "start_time": 4.3204545,
                "end_time": 4.4022727,
                "pitch": 49,
                "velocity": 40,
                "duration": 0.0818182,
                "tempo": 120.0
            },
            {
                "start_time": 4.4204545,
                "end_time": 4.5022727,
                "pitch": 46,
                "velocity": 40,
                "duration": 0.0818182,
                "tempo": 120.0
            },
            {
                "start_time": 4.5204545,
                "end_time": 4.6022727,
                "pitch": 41,
                "velocity": 40,
                "duration": 0.0818182,
                "tempo": 120.0
            },
            {
                "start_time": 4.6204545,
                "end_time": 4.7022727,
                "pitch": 53,
                "velocity": 40,
                "duration": 0.0818182,
                "tempo": 120.0
            },
            {
                "start_time": 4.7204545,
                "end_time": 4.8022727,
                "pitch": 48,
                "velocity": 40,
                "duration": 0.0818182,
                "tempo": 120.0
            },
            {
                "start_time": 4.8204545,
                "end_time": 4.9022727,
                "pitch": 50,
                "velocity": 40,
                "duration": 0.0818182,
                "tempo": 120.0
            },
            {
                "start_time": 4.9204545,
                "end_time": 5.0022727,
                "pitch": 47,
                "velocity": 40,
                "duration": 0.0818182,
                "tempo": 120.0
            },
            {
                "start_time": 5.0204545,
                "end_time": 5.1022727,
                "pitch": 44,
                "velocity": 40,
                "duration": 0.0818182,
                "tempo": 120.0
            },
            {
                "start_time": 5.1204545,
                "end_time": 5.2045455,
                "pitch": 41,
                "velocity": 40,
                "duration": 0.0840909,
                "tempo": 120.0
            },
            {
                "start_time": 5.2204545,
                "end_time": 5.3045455,
                "pitch": 38,
                "velocity": 40,
                "duration": 0.0840909,
                "tempo": 120.0
            },
            {
                "start_time": 5.3227273,
                "end_time": 5.4045455,
                "pitch": 41,
                "velocity": 40,
                "duration": 0.0818182,
                "tempo": 120.0
            },
            {
                "start_time": 5.4227273,
                "end_time": 5.5068182,
                "pitch": 52,
                "velocity": 40,
                "duration": 0.0840909,
                "tempo": 120.0
            },
            {
                "start_time": 5.525,
                "end_time": 5.6113636,
                "pitch": 48,
                "velocity": 40,
                "duration": 0.0863636,
                "tempo": 120.0
            },
            {
                "start_time": 5.6295455,
                "end_time": 5.7159091,
                "pitch": 45,
                "velocity": 40,
                "duration": 0.0863636,
                "tempo": 120.0
            },
            {
                "start_time": 5.7340909,
                "end_time": 5.8136364,
                "pitch": 40,
                "velocity": 40,
                "duration": 0.0795455,
                "tempo": 120.0
            },
            {
                "start_time": 5.8295455,
                "end_time": 5.9113636,
                "pitch": 45,
                "velocity": 40,
                "duration": 0.0818182,
                "tempo": 120.0
            },
            {
                "start_time": 5.9272727,
                "end_time": 6.0090909,
                "pitch": 48,
                "velocity": 40,
                "duration": 0.0818182,
                "tempo": 120.0
            },
            {
                "start_time": 6.025,
                "end_time": 6.1068182,
                "pitch": 52,
                "velocity": 40,
                "duration": 0.0818182,
                "tempo": 120.0
            },
            {
                "start_time": 6.125,
                "end_time": 6.2090909,
                "pitch": 48,
                "velocity": 40,
                "duration": 0.0840909,
                "tempo": 120.0
            },
            {
                "start_time": 6.225,
                "end_time": 6.3090909,
                "pitch": 45,
                "velocity": 40,
                "duration": 0.0840909,
                "tempo": 120.0
            },
            {
                "start_time": 6.325,
                "end_time": 6.4090909,
                "pitch": 40,
                "velocity": 40,
                "duration": 0.0840909,
                "tempo": 120.0
            },
            {
                "start_time": 6.425,
                "end_time": 6.5090909,
                "pitch": 52,
                "velocity": 40,
                "duration": 0.0840909,
                "tempo": 120.0
            },
            {
                "start_time": 6.525,
                "end_time": 6.6090909,
                "pitch": 48,
                "velocity": 40,
                "duration": 0.0840909,
                "tempo": 120.0
            },
            {
                "start_time": 6.625,
                "end_time": 6.7113636,
                "pitch": 53,
                "velocity": 40,
                "duration": 0.0863636,
                "tempo": 120.0
            },
            {
                "start_time": 6.7295455,
                "end_time": 6.8159091,
                "pitch": 49,
                "velocity": 40,
                "duration": 0.0863636,
                "tempo": 120.0
            },
            {
                "start_time": 6.8340909,
                "end_time": 6.9181818,
                "pitch": 46,
                "velocity": 40,
                "duration": 0.0840909,
                "tempo": 120.0
            },
            {
                "start_time": 6.9363636,
                "end_time": 7.0181818,
                "pitch": 41,
                "velocity": 40,
                "duration": 0.0818182,
                "tempo": 120.0
            },
            {
                "start_time": 7.0340909,
                "end_time": 7.1136364,
                "pitch": 53,
                "velocity": 40,
                "duration": 0.0795455,
                "tempo": 120.0
            },
            {
                "start_time": 7.1318182,
                "end_time": 7.2113636,
                "pitch": 48,
                "velocity": 40,
                "duration": 0.0795455,
                "tempo": 120.0
            },
            {
                "start_time": 7.2295455,
                "end_time": 7.3113636,
                "pitch": 50,
                "velocity": 40,
                "duration": 0.0818182,
                "tempo": 120.0
            },
            {
                "start_time": 7.3295455,
                "end_time": 7.4113636,
                "pitch": 47,
                "velocity": 40,
                "duration": 0.0818182,
                "tempo": 120.0
            },
            {
                "start_time": 7.4295455,
                "end_time": 7.5113636,
                "pitch": 44,
                "velocity": 40,
                "duration": 0.0818182,
                "tempo": 120.0
            },
            {
                "start_time": 7.5295455,
                "end_time": 7.6136364,
                "pitch": 41,
                "velocity": 40,
                "duration": 0.0840909,
                "tempo": 120.0
            },
            {
                "start_time": 7.6318182,
                "end_time": 7.7181818,
                "pitch": 38,
                "velocity": 40,
                "duration": 0.0863636,
                "tempo": 120.0
            },
            {
                "start_time": 7.7363636,
                "end_time": 7.8227273,
                "pitch": 41,
                "velocity": 40,
                "duration": 0.0863636,
                "tempo": 120.0
            },
            {
                "start_time": 7.8409091,
                "end_time": 7.9227273,
                "pitch": 52,
                "velocity": 40,
                "duration": 0.0818182,
                "tempo": 120.0
            },
            {
                "start_time": 7.9409091,
                "end_time": 8.025,
                "pitch": 48,
                "velocity": 40,
                "duration": 0.0840909,
                "tempo": 120.0
            },
            {
                "start_time": 8.0409091,
                "end_time": 8.125,
                "pitch": 45,
                "velocity": 40,
                "duration": 0.0840909,
                "tempo": 120.0
            },
            {
                "start_time": 8.1409091,
                "end_time": 8.225,
                "pitch": 40,
                "velocity": 40,
                "duration": 0.0840909,
                "tempo": 120.0
            },
            {
                "start_time": 8.2409091,
                "end_time": 8.325,
                "pitch": 45,
                "velocity": 40,
                "duration": 0.0840909,
                "tempo": 120.0
            },
            {
                "start_time": 8.3431818,
                "end_time": 8.425,
                "pitch": 48,
                "velocity": 40,
                "duration": 0.0818182,
                "tempo": 120.0
            },
            {
                "start_time": 8.4431818,
                "end_time": 8.5227273,
                "pitch": 52,
                "velocity": 40,
                "duration": 0.0795455,
                "tempo": 120.0
            },
            {
                "start_time": 8.5386364,
                "end_time": 8.6204545,
                "pitch": 48,
                "velocity": 40,
                "duration": 0.0818182,
                "tempo": 120.0
            },
            {
                "start_time": 8.6363636,
                "end_time": 8.7181818,
                "pitch": 45,
                "velocity": 40,
                "duration": 0.0818182,
                "tempo": 120.0
            },
            {
                "start_time": 8.7340909,
                "end_time": 8.8204545,
                "pitch": 40,
                "velocity": 40,
                "duration": 0.0863636,
                "tempo": 120.0
            },
            {
                "start_time": 8.8363636,
                "end_time": 8.9227273,
                "pitch": 52,
                "velocity": 40,
                "duration": 0.0863636,
                "tempo": 120.0
            },
            {
                "start_time": 8.9409091,
                "end_time": 9.0272727,
                "pitch": 48,
                "velocity": 40,
                "duration": 0.0863636,
                "tempo": 120.0
            },
            {
                "start_time": 9.0454545,
                "end_time": 9.1272727,
                "pitch": 53,
                "velocity": 40,
                "duration": 0.0818182,
                "tempo": 120.0
            },
            {
                "start_time": 9.1454545,
                "end_time": 9.2272727,
                "pitch": 49,
                "velocity": 40,
                "duration": 0.0818182,
                "tempo": 120.0
            },
            {
                "start_time": 9.2454545,
                "end_time": 9.3272727,
                "pitch": 46,
                "velocity": 40,
                "duration": 0.0818182,
                "tempo": 120.0
            },
            {
                "start_time": 9.3454545,
                "end_time": 9.4295455,
                "pitch": 41,
                "velocity": 40,
                "duration": 0.0840909,
                "tempo": 120.0
            },
            {
                "start_time": 9.4454545,
                "end_time": 9.5295455,
                "pitch": 53,
                "velocity": 40,
                "duration": 0.0840909,
                "tempo": 120.0
            },
            {
                "start_time": 9.5477273,
                "end_time": 9.6295455,
                "pitch": 48,
                "velocity": 40,
                "duration": 0.0818182,
                "tempo": 120.0
            },
            {
                "start_time": 9.6477273,
                "end_time": 9.8295455,
                "pitch": 46,
                "velocity": 40,
                "duration": 0.1818182,
                "tempo": 120.0
            },
            {
                "start_time": 9.8477273,
                "end_time": 9.9295455,
                "pitch": 41,
                "velocity": 40,
                "duration": 0.0818182,
                "tempo": 120.0
            },
            {
                "start_time": 9.9477273,
                "end_time": 10.0318182,
                "pitch": 46,
                "velocity": 40,
                "duration": 0.0840909,
                "tempo": 120.0
            },
            {
                "start_time": 10.0477273,
                "end_time": 10.1318182,
                "pitch": 53,
                "velocity": 40,
                "duration": 0.0840909,
                "tempo": 120.0
            },
            {
                "start_time": 10.1477273,
                "end_time": 10.2318182,
                "pitch": 50,
                "velocity": 40,
                "duration": 0.0840909,
                "tempo": 120.0
            },
            {
                "start_time": 10.25,
                "end_time": 10.4340909,
                "pitch": 46,
                "velocity": 40,
                "duration": 0.1840909,
                "tempo": 120.0
            },
            {
                "start_time": 10.45,
                "end_time": 10.5340909,
                "pitch": 41,
                "velocity": 40,
                "duration": 0.0840909,
                "tempo": 120.0
            },
            {
                "start_time": 10.55,
                "end_time": 10.6340909,
                "pitch": 46,
                "velocity": 40,
                "duration": 0.0840909,
                "tempo": 120.0
            },
            {
                "start_time": 10.6522727,
                "end_time": 10.7340909,
                "pitch": 53,
                "velocity": 40,
                "duration": 0.0818182,
                "tempo": 120.0
            },
            {
                "start_time": 10.7522727,
                "end_time": 10.8340909,
                "pitch": 50,
                "velocity": 40,
                "duration": 0.0818182,
                "tempo": 120.0
            },
            {
                "start_time": 10.8522727,
                "end_time": 11.0363636,
                "pitch": 46,
                "velocity": 40,
                "duration": 0.1840909,
                "tempo": 120.0
            },
            {
                "start_time": 11.0522727,
                "end_time": 11.1363636,
                "pitch": 41,
                "velocity": 40,
                "duration": 0.0840909,
                "tempo": 120.0
            },
            {
                "start_time": 11.1522727,
                "end_time": 11.2363636,
                "pitch": 46,
                "velocity": 40,
                "duration": 0.0840909,
                "tempo": 120.0
            },
            {
                "start_time": 11.2545455,
                "end_time": 11.3363636,
                "pitch": 53,
                "velocity": 40,
                "duration": 0.0818182,
                "tempo": 120.0
            },
            {
                "start_time": 11.3545455,
                "end_time": 11.4363636,
                "pitch": 50,
                "velocity": 40,
                "duration": 0.0818182,
                "tempo": 120.0
            },
            {
                "start_time": 11.4545455,
                "end_time": 11.6386364,
                "pitch": 46,
                "velocity": 40,
                "duration": 0.1840909,
                "tempo": 120.0
            },
            {
                "start_time": 11.6545455,
                "end_time": 11.7386364,
                "pitch": 41,
                "velocity": 40,
                "duration": 0.0840909,
                "tempo": 120.0
            },
            {
                "start_time": 11.7545455,
                "end_time": 11.8386364,
                "pitch": 46,
                "velocity": 40,
                "duration": 0.0840909,
                "tempo": 120.0
            },
            {
                "start_time": 11.8568182,
                "end_time": 11.9386364,
                "pitch": 53,
                "velocity": 40,
                "duration": 0.0818182,
                "tempo": 120.0
            },
            {
                "start_time": 11.9568182,
                "end_time": 12.0409091,
                "pitch": 50,
                "velocity": 40,
                "duration": 0.0840909,
                "tempo": 120.0
            },
            {
                "start_time": 12.0590909,
                "end_time": 12.2409091,
                "pitch": 47,
                "velocity": 40,
                "duration": 0.1818182,
                "tempo": 120.0
            },
            {
                "start_time": 12.2568182,
                "end_time": 12.3409091,
                "pitch": 44,
                "velocity": 40,
                "duration": 0.0840909,
                "tempo": 120.0
            },
            {
                "start_time": 12.3568182,
                "end_time": 12.4409091,
                "pitch": 47,
                "velocity": 40,
                "duration": 0.0840909,
                "tempo": 120.0
            },
            {
                "start_time": 12.4590909,
                "end_time": 12.5431818,
                "pitch": 53,
                "velocity": 40,
                "duration": 0.0840909,
                "tempo": 120.0
            },
            {
                "start_time": 12.5590909,
                "end_time": 12.6431818,
                "pitch": 50,
                "velocity": 40,
                "duration": 0.0840909,
                "tempo": 120.0
            },
            {
                "start_time": 12.6613636,
                "end_time": 12.8431818,
                "pitch": 47,
                "velocity": 40,
                "duration": 0.1818182,
                "tempo": 120.0
            },
            {
                "start_time": 12.8590909,
                "end_time": 12.9431818,
                "pitch": 44,
                "velocity": 40,
                "duration": 0.0840909,
                "tempo": 120.0
            },
            {
                "start_time": 12.9590909,
                "end_time": 13.0431818,
                "pitch": 47,
                "velocity": 40,
                "duration": 0.0840909,
                "tempo": 120.0
            },
            {
                "start_time": 13.0613636,
                "end_time": 13.1454545,
                "pitch": 53,
                "velocity": 40,
                "duration": 0.0840909,
                "tempo": 120.0
            },
            {
                "start_time": 13.1613636,
                "end_time": 13.2454545,
                "pitch": 50,
                "velocity": 40,
                "duration": 0.0840909,
                "tempo": 120.0
            },
            {
                "start_time": 13.2636364,
                "end_time": 13.4454545,
                "pitch": 47,
                "velocity": 40,
                "duration": 0.1818182,
                "tempo": 120.0
            },
            {
                "start_time": 13.4636364,
                "end_time": 13.5477273,
                "pitch": 44,
                "velocity": 40,
                "duration": 0.0840909,
                "tempo": 120.0
            },
            {
                "start_time": 13.5636364,
                "end_time": 13.6477273,
                "pitch": 47,
                "velocity": 40,
                "duration": 0.0840909,
                "tempo": 120.0
            },
            {
                "start_time": 13.6636364,
                "end_time": 13.7477273,
                "pitch": 53,
                "velocity": 40,
                "duration": 0.0840909,
                "tempo": 120.0
            },
            {
                "start_time": 13.7636364,
                "end_time": 13.8477273,
                "pitch": 50,
                "velocity": 40,
                "duration": 0.0840909,
                "tempo": 120.0
            },
            {
                "start_time": 13.8659091,
                "end_time": 14.0477273,
                "pitch": 47,
                "velocity": 40,
                "duration": 0.1818182,
                "tempo": 120.0
            },
            {
                "start_time": 14.0659091,
                "end_time": 14.15,
                "pitch": 44,
                "velocity": 40,
                "duration": 0.0840909,
                "tempo": 120.0
            },
            {
                "start_time": 14.1659091,
                "end_time": 14.25,
                "pitch": 47,
                "velocity": 40,
                "duration": 0.0840909,
                "tempo": 120.0
            },
            {
                "start_time": 14.2659091,
                "end_time": 14.35,
                "pitch": 53,
                "velocity": 40,
                "duration": 0.0840909,
                "tempo": 120.0
            },
            {
                "start_time": 14.3659091,
                "end_time": 14.45,
                "pitch": 50,
                "velocity": 40,
                "duration": 0.0840909,
                "tempo": 120.0
            },
            {
                "start_time": 14.4681818,
                "end_time": 14.65,
                "pitch": 46,
                "velocity": 40,
                "duration": 0.1818182,
                "tempo": 120.0
            },
            {
                "start_time": 14.6681818,
                "end_time": 14.7522727,
                "pitch": 41,
                "velocity": 40,
                "duration": 0.0840909,
                "tempo": 120.0
            },
            {
                "start_time": 14.7681818,
                "end_time": 14.8522727,
                "pitch": 46,
                "velocity": 40,
                "duration": 0.0840909,
                "tempo": 120.0
            },
            {
                "start_time": 14.8704545,
                "end_time": 14.9522727,
                "pitch": 53,
                "velocity": 40,
                "duration": 0.0818182,
                "tempo": 120.0
            },
            {
                "start_time": 14.9704545,
                "end_time": 15.0545455,
                "pitch": 50,
                "velocity": 40,
                "duration": 0.0840909,
                "tempo": 120.0
            },
            {
                "start_time": 15.0704545,
                "end_time": 15.2545455,
                "pitch": 46,
                "velocity": 40,
                "duration": 0.1840909,
                "tempo": 120.0
            },
            {
                "start_time": 15.2704545,
                "end_time": 15.3545455,
                "pitch": 41,
                "velocity": 40,
                "duration": 0.0840909,
                "tempo": 120.0
            },
            {
                "start_time": 15.3704545,
                "end_time": 15.4545455,
                "pitch": 46,
                "velocity": 40,
                "duration": 0.0840909,
                "tempo": 120.0
            },
            {
                "start_time": 15.4727273,
                "end_time": 15.5545455,
                "pitch": 53,
                "velocity": 40,
                "duration": 0.0818182,
                "tempo": 120.0
            },
            {
                "start_time": 15.5727273,
                "end_time": 15.6568182,
                "pitch": 50,
                "velocity": 40,
                "duration": 0.0840909,
                "tempo": 120.0
            },
            {
                "start_time": 15.6727273,
                "end_time": 15.8568182,
                "pitch": 46,
                "velocity": 40,
                "duration": 0.1840909,
                "tempo": 120.0
            },
            {
                "start_time": 15.8727273,
                "end_time": 15.9568182,
                "pitch": 41,
                "velocity": 40,
                "duration": 0.0840909,
                "tempo": 120.0
            },
            {
                "start_time": 15.9727273,
                "end_time": 16.0568182,
                "pitch": 46,
                "velocity": 40,
                "duration": 0.0840909,
                "tempo": 120.0
            },
            {
                "start_time": 16.075,
                "end_time": 16.1568182,
                "pitch": 53,
                "velocity": 40,
                "duration": 0.0818182,
                "tempo": 120.0
            },
            {
                "start_time": 16.175,
                "end_time": 16.2590909,
                "pitch": 50,
                "velocity": 40,
                "duration": 0.0840909,
                "tempo": 120.0
            },
            {
                "start_time": 16.275,
                "end_time": 16.4636364,
                "pitch": 46,
                "velocity": 40,
                "duration": 0.1886364,
                "tempo": 120.0
            },
            {
                "start_time": 16.4818182,
                "end_time": 16.5681818,
                "pitch": 41,
                "velocity": 40,
                "duration": 0.0863636,
                "tempo": 120.0
            },
            {
                "start_time": 16.5863636,
                "end_time": 16.6704545,
                "pitch": 46,
                "velocity": 40,
                "duration": 0.0840909,
                "tempo": 120.0
            },
            {
                "start_time": 16.6863636,
                "end_time": 16.7704545,
                "pitch": 53,
                "velocity": 40,
                "duration": 0.0840909,
                "tempo": 120.0
            },
            {
                "start_time": 16.7863636,
                "end_time": 16.8704545,
                "pitch": 50,
                "velocity": 40,
                "duration": 0.0840909,
                "tempo": 120.0
            },
            {
                "start_time": 16.8909091,
                "end_time": 16.9704545,
                "pitch": 50,
                "velocity": 40,
                "duration": 0.0795455,
                "tempo": 120.0
            },
            {
                "start_time": 16.9886364,
                "end_time": 17.0704545,
                "pitch": 47,
                "velocity": 40,
                "duration": 0.0818182,
                "tempo": 120.0
            },
            {
                "start_time": 17.0886364,
                "end_time": 17.1727273,
                "pitch": 44,
                "velocity": 40,
                "duration": 0.0840909,
                "tempo": 120.0
            },
            {
                "start_time": 17.1886364,
                "end_time": 17.2727273,
                "pitch": 41,
                "velocity": 40,
                "duration": 0.0840909,
                "tempo": 120.0
            },
            {
                "start_time": 17.2886364,
                "end_time": 17.3727273,
                "pitch": 38,
                "velocity": 40,
                "duration": 0.0840909,
                "tempo": 120.0
            },
            {
                "start_time": 17.3909091,
                "end_time": 17.4727273,
                "pitch": 41,
                "velocity": 40,
                "duration": 0.0818182,
                "tempo": 120.0
            },
            {
                "start_time": 17.4909091,
                "end_time": 17.575,
                "pitch": 52,
                "velocity": 40,
                "duration": 0.0840909,
                "tempo": 120.0
            },
            {
                "start_time": 17.5909091,
                "end_time": 17.675,
                "pitch": 48,
                "velocity": 40,
                "duration": 0.0840909,
                "tempo": 120.0
            },
            {
                "start_time": 17.6909091,
                "end_time": 17.775,
                "pitch": 45,
                "velocity": 40,
                "duration": 0.0840909,
                "tempo": 120.0
            },
            {
                "start_time": 17.7931818,
                "end_time": 17.875,
                "pitch": 40,
                "velocity": 40,
                "duration": 0.0818182,
                "tempo": 120.0
            },
            {
                "start_time": 17.8931818,
                "end_time": 17.9772727,
                "pitch": 45,
                "velocity": 40,
                "duration": 0.0840909,
                "tempo": 120.0
            },
            {
                "start_time": 17.9931818,
                "end_time": 18.0772727,
                "pitch": 48,
                "velocity": 40,
                "duration": 0.0840909,
                "tempo": 120.0
            },
            {
                "start_time": 18.0954545,
                "end_time": 18.1772727,
                "pitch": 52,
                "velocity": 40,
                "duration": 0.0818182,
                "tempo": 120.0
            },
            {
                "start_time": 18.1954545,
                "end_time": 18.2795455,
                "pitch": 48,
                "velocity": 40,
                "duration": 0.0840909,
                "tempo": 120.0
            },
            {
                "start_time": 18.2954545,
                "end_time": 18.3795455,
                "pitch": 45,
                "velocity": 40,
                "duration": 0.0840909,
                "tempo": 120.0
            },
            {
                "start_time": 18.3954545,
                "end_time": 18.4795455,
                "pitch": 40,
                "velocity": 40,
                "duration": 0.0840909,
                "tempo": 120.0
            },
            {
                "start_time": 18.4977273,
                "end_time": 18.5795455,
                "pitch": 52,
                "velocity": 40,
                "duration": 0.0818182,
                "tempo": 120.0
            },
            {
                "start_time": 18.5977273,
                "end_time": 18.6795455,
                "pitch": 48,
                "velocity": 40,
                "duration": 0.0818182,
                "tempo": 120.0
            },
            {
                "start_time": 18.6977273,
                "end_time": 18.7795455,
                "pitch": 53,
                "velocity": 40,
                "duration": 0.0818182,
                "tempo": 120.0
            },
            {
                "start_time": 18.7977273,
                "end_time": 18.8818182,
                "pitch": 49,
                "velocity": 40,
                "duration": 0.0840909,
                "tempo": 120.0
            },
            {
                "start_time": 18.8977273,
                "end_time": 18.9818182,
                "pitch": 46,
                "velocity": 40,
                "duration": 0.0840909,
                "tempo": 120.0
            },
            {
                "start_time": 18.9977273,
                "end_time": 19.0818182,
                "pitch": 41,
                "velocity": 40,
                "duration": 0.0840909,
                "tempo": 120.0
            },
            {
                "start_time": 19.1,
                "end_time": 19.1818182,
                "pitch": 53,
                "velocity": 40,
                "duration": 0.0818182,
                "tempo": 120.0
            },
            {
                "start_time": 19.2,
                "end_time": 19.2840909,
                "pitch": 48,
                "velocity": 40,
                "duration": 0.0840909,
                "tempo": 120.0
            },
            {
                "start_time": 19.3022727,
                "end_time": 19.3840909,
                "pitch": 50,
                "velocity": 40,
                "duration": 0.0818182,
                "tempo": 120.0
            },
            {
                "start_time": 19.4022727,
                "end_time": 19.4840909,
                "pitch": 47,
                "velocity": 40,
                "duration": 0.0818182,
                "tempo": 120.0
            },
            {
                "start_time": 19.5022727,
                "end_time": 19.5840909,
                "pitch": 44,
                "velocity": 40,
                "duration": 0.0818182,
                "tempo": 120.0
            },
            {
                "start_time": 19.6022727,
                "end_time": 19.6863636,
                "pitch": 41,
                "velocity": 40,
                "duration": 0.0840909,
                "tempo": 120.0
            },
            {
                "start_time": 19.7022727,
                "end_time": 19.7863636,
                "pitch": 38,
                "velocity": 40,
                "duration": 0.0840909,
                "tempo": 120.0
            },
            {
                "start_time": 19.8045455,
                "end_time": 19.8863636,
                "pitch": 41,
                "velocity": 40,
                "duration": 0.0818182,
                "tempo": 120.0
            },
            {
                "start_time": 19.9045455,
                "end_time": 19.9909091,
                "pitch": 52,
                "velocity": 40,
                "duration": 0.0863636,
                "tempo": 120.0
            },
            {
                "start_time": 20.0068182,
                "end_time": 20.0931818,
                "pitch": 48,
                "velocity": 40,
                "duration": 0.0863636,
                "tempo": 120.0
            },
            {
                "start_time": 20.1113636,
                "end_time": 20.1977273,
                "pitch": 45,
                "velocity": 40,
                "duration": 0.0863636,
                "tempo": 120.0
            },
            {
                "start_time": 20.2159091,
                "end_time": 20.2954545,
                "pitch": 40,
                "velocity": 40,
                "duration": 0.0795455,
                "tempo": 120.0
            },
            {
                "start_time": 20.3136364,
                "end_time": 20.3931818,
                "pitch": 45,
                "velocity": 40,
                "duration": 0.0795455,
                "tempo": 120.0
            },
            {
                "start_time": 20.4090909,
                "end_time": 20.4909091,
                "pitch": 48,
                "velocity": 40,
                "duration": 0.0818182,
                "tempo": 120.0
            },
            {
                "start_time": 20.5068182,
                "end_time": 20.5909091,
                "pitch": 52,
                "velocity": 40,
                "duration": 0.0840909,
                "tempo": 120.0
            },
            {
                "start_time": 20.6068182,
                "end_time": 20.6909091,
                "pitch": 48,
                "velocity": 40,
                "duration": 0.0840909,
                "tempo": 120.0
            },
            {
                "start_time": 20.7090909,
                "end_time": 20.7909091,
                "pitch": 45,
                "velocity": 40,
                "duration": 0.0818182,
                "tempo": 120.0
            },
            {
                "start_time": 20.8090909,
                "end_time": 20.8931818,
                "pitch": 40,
                "velocity": 40,
                "duration": 0.0840909,
                "tempo": 120.0
            },
            {
                "start_time": 20.9090909,
                "end_time": 20.9931818,
                "pitch": 52,
                "velocity": 40,
                "duration": 0.0840909,
                "tempo": 120.0
            },
            {
                "start_time": 21.0090909,
                "end_time": 21.0931818,
                "pitch": 48,
                "velocity": 40,
                "duration": 0.0840909,
                "tempo": 120.0
            },
            {
                "start_time": 21.1113636,
                "end_time": 21.1931818,
                "pitch": 53,
                "velocity": 40,
                "duration": 0.0818182,
                "tempo": 120.0
            },
            {
                "start_time": 21.2113636,
                "end_time": 21.2954545,
                "pitch": 49,
                "velocity": 40,
                "duration": 0.0840909,
                "tempo": 120.0
            },
            {
                "start_time": 21.3113636,
                "end_time": 21.3954545,
                "pitch": 46,
                "velocity": 40,
                "duration": 0.0840909,
                "tempo": 120.0
            },
            {
                "start_time": 21.4136364,
                "end_time": 21.4954545,
                "pitch": 41,
                "velocity": 40,
                "duration": 0.0818182,
                "tempo": 120.0
            },
            {
                "start_time": 21.5136364,
                "end_time": 21.5954545,
                "pitch": 53,
                "velocity": 40,
                "duration": 0.0818182,
                "tempo": 120.0
            },
            {
                "start_time": 21.6136364,
                "end_time": 21.6954545,
                "pitch": 48,
                "velocity": 40,
                "duration": 0.0818182,
                "tempo": 120.0
            },
            {
                "start_time": 21.7136364,
                "end_time": 21.7977273,
                "pitch": 37,
                "velocity": 40,
                "duration": 0.0840909,
                "tempo": 120.0
            },
            {
                "start_time": 21.8136364,
                "end_time": 21.8977273,
                "pitch": 38,
                "velocity": 40,
                "duration": 0.0840909,
                "tempo": 120.0
            },
            {
                "start_time": 21.9159091,
                "end_time": 21.9977273,
                "pitch": 40,
                "velocity": 40,
                "duration": 0.0818182,
                "tempo": 120.0
            },
            {
                "start_time": 22.0159091,
                "end_time": 22.0977273,
                "pitch": 41,
                "velocity": 40,
                "duration": 0.0818182,
                "tempo": 120.0
            },
            {
                "start_time": 22.1159091,
                "end_time": 22.2,
                "pitch": 43,
                "velocity": 40,
                "duration": 0.0840909,
                "tempo": 120.0
            },
            {
                "start_time": 22.2159091,
                "end_time": 22.3,
                "pitch": 44,
                "velocity": 40,
                "duration": 0.0840909,
                "tempo": 120.0
            },
            {
                "start_time": 22.3181818,
                "end_time": 22.4,
                "pitch": 46,
                "velocity": 40,
                "duration": 0.0818182,
                "tempo": 120.0
            },
            {
                "start_time": 22.4181818,
                "end_time": 22.5,
                "pitch": 47,
                "velocity": 40,
                "duration": 0.0818182,
                "tempo": 120.0
            },
            {
                "start_time": 22.5181818,
                "end_time": 22.6022727,
                "pitch": 46,
                "velocity": 40,
                "duration": 0.0840909,
                "tempo": 120.0
            },
            {
                "start_time": 22.6204545,
                "end_time": 22.7022727,
                "pitch": 44,
                "velocity": 40,
                "duration": 0.0818182,
                "tempo": 120.0
            },
            {
                "start_time": 22.7204545,
                "end_time": 22.8022727,
                "pitch": 43,
                "velocity": 40,
                "duration": 0.0818182,
                "tempo": 120.0
            },
            {
                "start_time": 22.8204545,
                "end_time": 22.9045455,
                "pitch": 41,
                "velocity": 40,
                "duration": 0.0840909,
                "tempo": 120.0
            },
            {
                "start_time": 22.9204545,
                "end_time": 23.0045455,
                "pitch": 40,
                "velocity": 40,
                "duration": 0.0840909,
                "tempo": 120.0
            },
            {
                "start_time": 23.0204545,
                "end_time": 23.1045455,
                "pitch": 38,
                "velocity": 40,
                "duration": 0.0840909,
                "tempo": 120.0
            },
            {
                "start_time": 23.1204545,
                "end_time": 23.2045455,
                "pitch": 37,
                "velocity": 40,
                "duration": 0.0840909,
                "tempo": 120.0
            },
            {
                "start_time": 23.2227273,
                "end_time": 23.3045455,
                "pitch": 38,
                "velocity": 40,
                "duration": 0.0818182,
                "tempo": 120.0
            },
            {
                "start_time": 23.3227273,
                "end_time": 23.4045455,
                "pitch": 40,
                "velocity": 40,
                "duration": 0.0818182,
                "tempo": 120.0
            },
            {
                "start_time": 23.4227273,
                "end_time": 23.5068182,
                "pitch": 41,
                "velocity": 40,
                "duration": 0.0840909,
                "tempo": 120.0
            },
            {
                "start_time": 23.5227273,
                "end_time": 23.6068182,
                "pitch": 43,
                "velocity": 40,
                "duration": 0.0840909,
                "tempo": 120.0
            },
            {
                "start_time": 23.625,
                "end_time": 23.7068182,
                "pitch": 44,
                "velocity": 40,
                "duration": 0.0818182,
                "tempo": 120.0
            },
            {
                "start_time": 23.725,
                "end_time": 23.8068182,
                "pitch": 46,
                "velocity": 40,
                "duration": 0.0818182,
                "tempo": 120.0
            },
            {
                "start_time": 23.825,
                "end_time": 23.9113636,
                "pitch": 47,
                "velocity": 40,
                "duration": 0.0863636,
                "tempo": 120.0
            },
            {
                "start_time": 23.9295455,
                "end_time": 24.0136364,
                "pitch": 46,
                "velocity": 40,
                "duration": 0.0840909,
                "tempo": 120.0
            },
            {
                "start_time": 24.0318182,
                "end_time": 24.1181818,
                "pitch": 44,
                "velocity": 40,
                "duration": 0.0863636,
                "tempo": 120.0
            },
            {
                "start_time": 24.1363636,
                "end_time": 24.2204545,
                "pitch": 41,
                "velocity": 40,
                "duration": 0.0840909,
                "tempo": 120.0
            },
            {
                "start_time": 24.2363636,
                "end_time": 24.3204545,
                "pitch": 44,
                "velocity": 40,
                "duration": 0.0840909,
                "tempo": 120.0
            },
            {
                "start_time": 24.3386364,
                "end_time": 24.4204545,
                "pitch": 47,
                "velocity": 40,
                "duration": 0.0818182,
                "tempo": 120.0
            },
            {
                "start_time": 24.4386364,
                "end_time": 24.5204545,
                "pitch": 44,
                "velocity": 40,
                "duration": 0.0818182,
                "tempo": 120.0
            },
            {
                "start_time": 24.5386364,
                "end_time": 24.6227273,
                "pitch": 47,
                "velocity": 40,
                "duration": 0.0840909,
                "tempo": 120.0
            },
            {
                "start_time": 24.6386364,
                "end_time": 24.7227273,
                "pitch": 50,
                "velocity": 40,
                "duration": 0.0840909,
                "tempo": 120.0
            },
            {
                "start_time": 24.7409091,
                "end_time": 24.8227273,
                "pitch": 47,
                "velocity": 40,
                "duration": 0.0818182,
                "tempo": 120.0
            },
            {
                "start_time": 24.8409091,
                "end_time": 24.925,
                "pitch": 50,
                "velocity": 40,
                "duration": 0.0840909,
                "tempo": 120.0
            },
            {
                "start_time": 24.9409091,
                "end_time": 25.025,
                "pitch": 53,
                "velocity": 40,
                "duration": 0.0840909,
                "tempo": 120.0
            },
            {
                "start_time": 25.0431818,
                "end_time": 25.125,
                "pitch": 50,
                "velocity": 40,
                "duration": 0.0818182,
                "tempo": 120.0
            },
            {
                "start_time": 25.1431818,
                "end_time": 25.225,
                "pitch": 53,
                "velocity": 40,
                "duration": 0.0818182,
                "tempo": 120.0
            },
            {
                "start_time": 25.2431818,
                "end_time": 25.3272727,
                "pitch": 56,
                "velocity": 40,
                "duration": 0.0840909,
                "tempo": 120.0
            },
            {
                "start_time": 25.3454545,
                "end_time": 25.4272727,
                "pitch": 53,
                "velocity": 40,
                "duration": 0.0818182,
                "tempo": 120.0
            },
            {
                "start_time": 25.4431818,
                "end_time": 25.5272727,
                "pitch": 56,
                "velocity": 40,
                "duration": 0.0840909,
                "tempo": 120.0
            },
            {
                "start_time": 25.5454545,
                "end_time": 25.6272727,
                "pitch": 59,
                "velocity": 40,
                "duration": 0.0818182,
                "tempo": 120.0
            },
            {
                "start_time": 25.6454545,
                "end_time": 25.7272727,
                "pitch": 56,
                "velocity": 40,
                "duration": 0.0818182,
                "tempo": 120.0
            },
            {
                "start_time": 25.7454545,
                "end_time": 25.8272727,
                "pitch": 59,
                "velocity": 40,
                "duration": 0.0818182,
                "tempo": 120.0
            },
            {
                "start_time": 25.8454545,
                "end_time": 25.9295455,
                "pitch": 62,
                "velocity": 40,
                "duration": 0.0840909,
                "tempo": 120.0
            },
            {
                "start_time": 25.9454545,
                "end_time": 26.0295455,
                "pitch": 59,
                "velocity": 40,
                "duration": 0.0840909,
                "tempo": 120.0
            },
            {
                "start_time": 26.0477273,
                "end_time": 26.1295455,
                "pitch": 65,
                "velocity": 40,
                "duration": 0.0818182,
                "tempo": 120.0
            },
            {
                "start_time": 26.1477273,
                "end_time": 26.2318182,
                "pitch": 62,
                "velocity": 40,
                "duration": 0.0840909,
                "tempo": 120.0
            },
            {
                "start_time": 26.2477273,
                "end_time": 26.3318182,
                "pitch": 59,
                "velocity": 40,
                "duration": 0.0840909,
                "tempo": 120.0
            },
            {
                "start_time": 26.35,
                "end_time": 26.4318182,
                "pitch": 56,
                "velocity": 40,
                "duration": 0.0818182,
                "tempo": 120.0
            },
            {
                "start_time": 26.45,
                "end_time": 26.5318182,
                "pitch": 53,
                "velocity": 40,
                "duration": 0.0818182,
                "tempo": 120.0
            },
            {
                "start_time": 27.7590909,
                "end_time": 27.8386364,
                "pitch": 50,
                "velocity": 40,
                "duration": 0.0795455,
                "tempo": 120.0
            },
            {
                "start_time": 27.8568182,
                "end_time": 27.9409091,
                "pitch": 47,
                "velocity": 40,
                "duration": 0.0840909,
                "tempo": 120.0
            },
            {
                "start_time": 27.9568182,
                "end_time": 28.0409091,
                "pitch": 44,
                "velocity": 40,
                "duration": 0.0840909,
                "tempo": 120.0
            }
        ],
        "Violin": [
            {
                "start_time": 0.0090909,
                "end_time": 0.2204545,
                "pitch": 47,
                "velocity": 80,
                "duration": 0.2113636,
                "tempo": 120.0
            },
            {
                "start_time": 0.2204545,
                "end_time": 0.2704545,
                "pitch": 48,
                "velocity": 80,
                "duration": 0.05,
                "tempo": 120.0
            },
            {
                "start_time": 0.2704545,
                "end_time": 0.3204545,
                "pitch": 51,
                "velocity": 80,
                "duration": 0.05,
                "tempo": 120.0
            },
            {
                "start_time": 0.3204545,
                "end_time": 0.3545455,
                "pitch": 54,
                "velocity": 80,
                "duration": 0.0340909,
                "tempo": 120.0
            },
            {
                "start_time": 0.3545455,
                "end_time": 0.3886364,
                "pitch": 56,
                "velocity": 80,
                "duration": 0.0340909,
                "tempo": 120.0
            },
            {
                "start_time": 0.3886364,
                "end_time": 0.4227273,
                "pitch": 58,
                "velocity": 80,
                "duration": 0.0340909,
                "tempo": 120.0
            },
            {
                "start_time": 0.4227273,
                "end_time": 0.4727273,
                "pitch": 60,
                "velocity": 80,
                "duration": 0.05,
                "tempo": 120.0
            },
            {
                "start_time": 0.4727273,
                "end_time": 0.5227273,
                "pitch": 63,
                "velocity": 80,
                "duration": 0.05,
                "tempo": 120.0
            },
            {
                "start_time": 0.5227273,
                "end_time": 0.5568182,
                "pitch": 66,
                "velocity": 80,
                "duration": 0.0340909,
                "tempo": 120.0
            },
            {
                "start_time": 0.5568182,
                "end_time": 0.5886364,
                "pitch": 68,
                "velocity": 80,
                "duration": 0.0318182,
                "tempo": 120.0
            },
            {
                "start_time": 0.5886364,
                "end_time": 1.1909091,
                "pitch": 70,
                "velocity": 80,
                "duration": 0.6022727,
                "tempo": 120.0
            },
            {
                "start_time": 1.2090909,
                "end_time": 1.425,
                "pitch": 47,
                "velocity": 80,
                "duration": 0.2159091,
                "tempo": 120.0
            },
            {
                "start_time": 0.2204545,
                "end_time": 1.425,
                "pitch": 52,
                "velocity": 80,
                "duration": 1.2045455,
                "tempo": 120.0
            },
            {
                "start_time": 1.425,
                "end_time": 1.475,
                "pitch": 48,
                "velocity": 80,
                "duration": 0.05,
                "tempo": 120.0
            },
            {
                "start_time": 1.475,
                "end_time": 1.525,
                "pitch": 51,
                "velocity": 80,
                "duration": 0.05,
                "tempo": 120.0
            },
            {
                "start_time": 1.525,
                "end_time": 1.5590909,
                "pitch": 54,
                "velocity": 80,
                "duration": 0.0340909,
                "tempo": 120.0
            },
            {
                "start_time": 1.5590909,
                "end_time": 1.5931818,
                "pitch": 56,
                "velocity": 80,
                "duration": 0.0340909,
                "tempo": 120.0
            },
            {
                "start_time": 1.5931818,
                "end_time": 1.625,
                "pitch": 58,
                "velocity": 80,
                "duration": 0.0318182,
                "tempo": 120.0
            },
            {
                "start_time": 0.4227273,
                "end_time": 1.625,
                "pitch": 64,
                "velocity": 80,
                "duration": 1.2022727,
                "tempo": 120.0
            },
            {
                "start_time": 1.625,
                "end_time": 1.675,
                "pitch": 60,
                "velocity": 80,
                "duration": 0.05,
                "tempo": 120.0
            },
            {
                "start_time": 1.675,
                "end_time": 1.725,
                "pitch": 63,
                "velocity": 80,
                "duration": 0.05,
                "tempo": 120.0
            },
            {
                "start_time": 1.725,
                "end_time": 1.7590909,
                "pitch": 66,
                "velocity": 80,
                "duration": 0.0340909,
                "tempo": 120.0
            },
            {
                "start_time": 1.7590909,
                "end_time": 1.7931818,
                "pitch": 68,
                "velocity": 80,
                "duration": 0.0340909,
                "tempo": 120.0
            },
            {
                "start_time": 1.7931818,
                "end_time": 2.3954545,
                "pitch": 70,
                "velocity": 80,
                "duration": 0.6022727,
                "tempo": 120.0
            },
            {
                "start_time": 2.4159091,
                "end_time": 2.6295455,
                "pitch": 47,
                "velocity": 80,
                "duration": 0.2136364,
                "tempo": 120.0
            },
            {
                "start_time": 1.425,
                "end_time": 2.6295455,
                "pitch": 52,
                "velocity": 80,
                "duration": 1.2045455,
                "tempo": 120.0
            },
            {
                "start_time": 2.6295455,
                "end_time": 2.6795455,
                "pitch": 48,
                "velocity": 80,
                "duration": 0.05,
                "tempo": 120.0
            },
            {
                "start_time": 2.6795455,
                "end_time": 2.7318182,
                "pitch": 51,
                "velocity": 80,
                "duration": 0.0522727,
                "tempo": 120.0
            },
            {
                "start_time": 2.7318182,
                "end_time": 2.7636364,
                "pitch": 54,
                "velocity": 80,
                "duration": 0.0318182,
                "tempo": 120.0
            },
            {
                "start_time": 2.7636364,
                "end_time": 2.7977273,
                "pitch": 56,
                "velocity": 80,
                "duration": 0.0340909,
                "tempo": 120.0
            },
            {
                "start_time": 2.7977273,
                "end_time": 2.8318182,
                "pitch": 58,
                "velocity": 80,
                "duration": 0.0340909,
                "tempo": 120.0
            },
            {
                "start_time": 1.625,
                "end_time": 2.8318182,
                "pitch": 64,
                "velocity": 80,
                "duration": 1.2068182,
                "tempo": 120.0
            },
            {
                "start_time": 2.8318182,
                "end_time": 2.8818182,
                "pitch": 60,
                "velocity": 80,
                "duration": 0.05,
                "tempo": 120.0
            },
            {
                "start_time": 2.8818182,
                "end_time": 2.9318182,
                "pitch": 63,
                "velocity": 80,
                "duration": 0.05,
                "tempo": 120.0
            },
            {
                "start_time": 2.9318182,
                "end_time": 2.9659091,
                "pitch": 66,
                "velocity": 80,
                "duration": 0.0340909,
                "tempo": 120.0
            },
            {
                "start_time": 2.9659091,
                "end_time": 2.9977273,
                "pitch": 68,
                "velocity": 80,
                "duration": 0.0318182,
                "tempo": 120.0
            },
            {
                "start_time": 2.9977273,
                "end_time": 3.6,
                "pitch": 70,
                "velocity": 80,
                "duration": 0.6022727,
                "tempo": 120.0
            },
            {
                "start_time": 3.6181818,
                "end_time": 3.8340909,
                "pitch": 47,
                "velocity": 80,
                "duration": 0.2159091,
                "tempo": 120.0
            },
            {
                "start_time": 2.6295455,
                "end_time": 3.8340909,
                "pitch": 52,
                "velocity": 80,
                "duration": 1.2045455,
                "tempo": 120.0
            },
            {
                "start_time": 3.8340909,
                "end_time": 3.8840909,
                "pitch": 48,
                "velocity": 80,
                "duration": 0.05,
                "tempo": 120.0
            },
            {
                "start_time": 3.8840909,
                "end_time": 3.9340909,
                "pitch": 51,
                "velocity": 80,
                "duration": 0.05,
                "tempo": 120.0
            },
            {
                "start_time": 3.9340909,
                "end_time": 3.9681818,
                "pitch": 54,
                "velocity": 80,
                "duration": 0.0340909,
                "tempo": 120.0
            },
            {
                "start_time": 3.9681818,
                "end_time": 4.0022727,
                "pitch": 56,
                "velocity": 80,
                "duration": 0.0340909,
                "tempo": 120.0
            },
            {
                "start_time": 4.0022727,
                "end_time": 4.0340909,
                "pitch": 58,
                "velocity": 80,
                "duration": 0.0318182,
                "tempo": 120.0
            },
            {
                "start_time": 2.8318182,
                "end_time": 4.0340909,
                "pitch": 64,
                "velocity": 80,
                "duration": 1.2022727,
                "tempo": 120.0
            },
            {
                "start_time": 4.0340909,
                "end_time": 4.0840909,
                "pitch": 60,
                "velocity": 80,
                "duration": 0.05,
                "tempo": 120.0
            },
            {
                "start_time": 4.0840909,
                "end_time": 4.1340909,
                "pitch": 63,
                "velocity": 80,
                "duration": 0.05,
                "tempo": 120.0
            },
            {
                "start_time": 4.1340909,
                "end_time": 4.1681818,
                "pitch": 66,
                "velocity": 80,
                "duration": 0.0340909,
                "tempo": 120.0
            },
            {
                "start_time": 4.1681818,
                "end_time": 4.2022727,
                "pitch": 68,
                "velocity": 80,
                "duration": 0.0340909,
                "tempo": 120.0
            },
            {
                "start_time": 4.2022727,
                "end_time": 4.8045455,
                "pitch": 70,
                "velocity": 80,
                "duration": 0.6022727,
                "tempo": 120.0
            },
            {
                "start_time": 4.8227273,
                "end_time": 5.0363636,
                "pitch": 47,
                "velocity": 80,
                "duration": 0.2136364,
                "tempo": 120.0
            },
            {
                "start_time": 3.8340909,
                "end_time": 5.0363636,
                "pitch": 52,
                "velocity": 80,
                "duration": 1.2022727,
                "tempo": 120.0
            },
            {
                "start_time": 5.0363636,
                "end_time": 5.0863636,
                "pitch": 48,
                "velocity": 80,
                "duration": 0.05,
                "tempo": 120.0
            },
            {
                "start_time": 5.0863636,
                "end_time": 5.1363636,
                "pitch": 51,
                "velocity": 80,
                "duration": 0.05,
                "tempo": 120.0
            },
            {
                "start_time": 5.1363636,
                "end_time": 5.1704545,
                "pitch": 54,
                "velocity": 80,
                "duration": 0.0340909,
                "tempo": 120.0
            },
            {
                "start_time": 5.1704545,
                "end_time": 5.2045455,
                "pitch": 56,
                "velocity": 80,
                "duration": 0.0340909,
                "tempo": 120.0
            },
            {
                "start_time": 5.2045455,
                "end_time": 5.2386364,
                "pitch": 58,
                "velocity": 80,
                "duration": 0.0340909,
                "tempo": 120.0
            },
            {
                "start_time": 4.0340909,
                "end_time": 5.2386364,
                "pitch": 64,
                "velocity": 80,
                "duration": 1.2045455,
                "tempo": 120.0
            },
            {
                "start_time": 5.2386364,
                "end_time": 5.2886364,
                "pitch": 60,
                "velocity": 80,
                "duration": 0.05,
                "tempo": 120.0
            },
            {
                "start_time": 5.2886364,
                "end_time": 5.3386364,
                "pitch": 63,
                "velocity": 80,
                "duration": 0.05,
                "tempo": 120.0
            },
            {
                "start_time": 5.3386364,
                "end_time": 5.3727273,
                "pitch": 66,
                "velocity": 80,
                "duration": 0.0340909,
                "tempo": 120.0
            },
            {
                "start_time": 5.3727273,
                "end_time": 5.4068182,
                "pitch": 68,
                "velocity": 80,
                "duration": 0.0340909,
                "tempo": 120.0
            },
            {
                "start_time": 5.4068182,
                "end_time": 6.0090909,
                "pitch": 70,
                "velocity": 80,
                "duration": 0.6022727,
                "tempo": 120.0
            },
            {
                "start_time": 6.0272727,
                "end_time": 6.2409091,
                "pitch": 47,
                "velocity": 80,
                "duration": 0.2136364,
                "tempo": 120.0
            },
            {
                "start_time": 5.0363636,
                "end_time": 6.2409091,
                "pitch": 52,
                "velocity": 80,
                "duration": 1.2045455,
                "tempo": 120.0
            },
            {
                "start_time": 6.2409091,
                "end_time": 6.2909091,
                "pitch": 48,
                "velocity": 80,
                "duration": 0.05,
                "tempo": 120.0
            },
            {
                "start_time": 6.2909091,
                "end_time": 6.3409091,
                "pitch": 51,
                "velocity": 80,
                "duration": 0.05,
                "tempo": 120.0
            },
            {
                "start_time": 6.3409091,
                "end_time": 6.375,
                "pitch": 54,
                "velocity": 80,
                "duration": 0.0340909,
                "tempo": 120.0
            },
            {
                "start_time": 6.375,
                "end_time": 6.4090909,
                "pitch": 56,
                "velocity": 80,
                "duration": 0.0340909,
                "tempo": 120.0
            },
            {
                "start_time": 6.4090909,
                "end_time": 6.4409091,
                "pitch": 58,
                "velocity": 80,
                "duration": 0.0318182,
                "tempo": 120.0
            },
            {
                "start_time": 5.2386364,
                "end_time": 6.4409091,
                "pitch": 64,
                "velocity": 80,
                "duration": 1.2022727,
                "tempo": 120.0
            },
            {
                "start_time": 6.4409091,
                "end_time": 6.4931818,
                "pitch": 60,
                "velocity": 80,
                "duration": 0.0522727,
                "tempo": 120.0
            },
            {
                "start_time": 6.4931818,
                "end_time": 6.5409091,
                "pitch": 63,
                "velocity": 80,
                "duration": 0.0477273,
                "tempo": 120.0
            },
            {
                "start_time": 6.5409091,
                "end_time": 6.575,
                "pitch": 66,
                "velocity": 80,
                "duration": 0.0340909,
                "tempo": 120.0
            },
            {
                "start_time": 6.575,
                "end_time": 6.6090909,
                "pitch": 68,
                "velocity": 80,
                "duration": 0.0340909,
                "tempo": 120.0
            },
            {
                "start_time": 6.6090909,
                "end_time": 7.2113636,
                "pitch": 70,
                "velocity": 80,
                "duration": 0.6022727,
                "tempo": 120.0
            },
            {
                "start_time": 7.2318182,
                "end_time": 7.4454545,
                "pitch": 47,
                "velocity": 80,
                "duration": 0.2136364,
                "tempo": 120.0
            },
            {
                "start_time": 6.2409091,
                "end_time": 7.4454545,
                "pitch": 52,
                "velocity": 80,
                "duration": 1.2045455,
                "tempo": 120.0
            },
            {
                "start_time": 7.4454545,
                "end_time": 7.4954545,
                "pitch": 48,
                "velocity": 80,
                "duration": 0.05,
                "tempo": 120.0
            },
            {
                "start_time": 7.4954545,
                "end_time": 7.5454545,
                "pitch": 51,
                "velocity": 80,
                "duration": 0.05,
                "tempo": 120.0
            },
            {
                "start_time": 7.5454545,
                "end_time": 7.5795455,
                "pitch": 54,
                "velocity": 80,
                "duration": 0.0340909,
                "tempo": 120.0
            },
            {
                "start_time": 7.5795455,
                "end_time": 7.6159091,
                "pitch": 56,
                "velocity": 80,
                "duration": 0.0363636,
                "tempo": 120.0
            },
            {
                "start_time": 7.6159091,
                "end_time": 7.65,
                "pitch": 58,
                "velocity": 80,
                "duration": 0.0340909,
                "tempo": 120.0
            },
            {
                "start_time": 6.4409091,
                "end_time": 7.65,
                "pitch": 64,
                "velocity": 80,
                "duration": 1.2090909,
                "tempo": 120.0
            },
            {
                "start_time": 7.65,
                "end_time": 7.7,
                "pitch": 60,
                "velocity": 80,
                "duration": 0.05,
                "tempo": 120.0
            },
            {
                "start_time": 7.7,
                "end_time": 7.7522727,
                "pitch": 63,
                "velocity": 80,
                "duration": 0.0522727,
                "tempo": 120.0
            },
            {
                "start_time": 7.7522727,
                "end_time": 7.7886364,
                "pitch": 66,
                "velocity": 80,
                "duration": 0.0363636,
                "tempo": 120.0
            },
            {
                "start_time": 7.7886364,
                "end_time": 7.8227273,
                "pitch": 68,
                "velocity": 80,
                "duration": 0.0340909,
                "tempo": 120.0
            },
            {
                "start_time": 7.8227273,
                "end_time": 8.425,
                "pitch": 70,
                "velocity": 80,
                "duration": 0.6022727,
                "tempo": 120.0
            },
            {
                "start_time": 8.4431818,
                "end_time": 8.6522727,
                "pitch": 47,
                "velocity": 80,
                "duration": 0.2090909,
                "tempo": 120.0
            },
            {
                "start_time": 7.4454545,
                "end_time": 8.6522727,
                "pitch": 52,
                "velocity": 80,
                "duration": 1.2068182,
                "tempo": 120.0
            },
            {
                "start_time": 8.6522727,
                "end_time": 8.7022727,
                "pitch": 48,
                "velocity": 80,
                "duration": 0.05,
                "tempo": 120.0
            },
            {
                "start_time": 8.7022727,
                "end_time": 8.75,
                "pitch": 51,
                "velocity": 80,
                "duration": 0.0477273,
                "tempo": 120.0
            },
            {
                "start_time": 8.75,
                "end_time": 8.7863636,
                "pitch": 54,
                "velocity": 80,
                "duration": 0.0363636,
                "tempo": 120.0
            },
            {
                "start_time": 8.7863636,
                "end_time": 8.8204545,
                "pitch": 56,
                "velocity": 80,
                "duration": 0.0340909,
                "tempo": 120.0
            },
            {
                "start_time": 8.8204545,
                "end_time": 8.8545455,
                "pitch": 58,
                "velocity": 80,
                "duration": 0.0340909,
                "tempo": 120.0
            },
            {
                "start_time": 7.65,
                "end_time": 8.8545455,
                "pitch": 64,
                "velocity": 80,
                "duration": 1.2045455,
                "tempo": 120.0
            },
            {
                "start_time": 8.8545455,
                "end_time": 8.9068182,
                "pitch": 60,
                "velocity": 80,
                "duration": 0.0522727,
                "tempo": 120.0
            },
            {
                "start_time": 8.9068182,
                "end_time": 8.9568182,
                "pitch": 63,
                "velocity": 80,
                "duration": 0.05,
                "tempo": 120.0
            },
            {
                "start_time": 8.9568182,
                "end_time": 8.9931818,
                "pitch": 66,
                "velocity": 80,
                "duration": 0.0363636,
                "tempo": 120.0
            },
            {
                "start_time": 8.9931818,
                "end_time": 9.0272727,
                "pitch": 68,
                "velocity": 80,
                "duration": 0.0340909,
                "tempo": 120.0
            },
            {
                "start_time": 9.0272727,
                "end_time": 9.6295455,
                "pitch": 70,
                "velocity": 80,
                "duration": 0.6022727,
                "tempo": 120.0
            },
            {
                "start_time": 16.8909091,
                "end_time": 17.475,
                "pitch": 57,
                "velocity": 80,
                "duration": 0.5840909,
                "tempo": 120.0
            },
            {
                "start_time": 17.4931818,
                "end_time": 18.0772727,
                "pitch": 58,
                "velocity": 80,
                "duration": 0.5840909,
                "tempo": 120.0
            },
            {
                "start_time": 18.0954545,
                "end_time": 18.6795455,
                "pitch": 56,
                "velocity": 80,
                "duration": 0.5840909,
                "tempo": 120.0
            },
            {
                "start_time": 18.6977273,
                "end_time": 19.2840909,
                "pitch": 57,
                "velocity": 80,
                "duration": 0.5863636,
                "tempo": 120.0
            },
            {
                "start_time": 19.3022727,
                "end_time": 19.8886364,
                "pitch": 57,
                "velocity": 80,
                "duration": 0.5863636,
                "tempo": 120.0
            },
            {
                "start_time": 19.9068182,
                "end_time": 20.4909091,
                "pitch": 58,
                "velocity": 80,
                "duration": 0.5840909,
                "tempo": 120.0
            },
            {
                "start_time": 20.5090909,
                "end_time": 21.0931818,
                "pitch": 56,
                "velocity": 80,
                "duration": 0.5840909,
                "tempo": 120.0
            },
            {
                "start_time": 21.1113636,
                "end_time": 21.6977273,
                "pitch": 57,
                "velocity": 80,
                "duration": 0.5863636,
                "tempo": 120.0
            },
            {
                "start_time": 21.7159091,
                "end_time": 24.1181818,
                "pitch": 53,
                "velocity": 80,
                "duration": 2.4022727,
                "tempo": 120.0
            },
            {
                "start_time": 26.9545455,
                "end_time": 27.7386364,
                "pitch": 77,
                "velocity": 51,
                "duration": 0.7840909,
                "tempo": 120.0
            },
            {
                "start_time": 27.7613636,
                "end_time": 27.9727273,
                "pitch": 47,
                "velocity": 80,
                "duration": 0.2113636,
                "tempo": 120.0
            },
            {
                "start_time": 8.6522727,
                "end_time": 27.9727273,
                "pitch": 52,
                "velocity": 80,
                "duration": 19.3204545,
                "tempo": 120.0
            },
            {
                "start_time": 27.9727273,
                "end_time": 28.025,
                "pitch": 48,
                "velocity": 80,
                "duration": 0.0522727,
                "tempo": 120.0
            },
            {
                "start_time": 28.025,
                "end_time": 28.0568182,
                "pitch": 51,
                "velocity": 80,
                "duration": 0.0318182,
                "tempo": 120.0
            }
        ],
        "Acoustic Bass": [
            {
                "start_time": 0.0068182,
                "end_time": 0.1363636,
                "pitch": 33,
                "velocity": 80,
                "duration": 0.1295455,
                "tempo": 120.0
            },
            {
                "start_time": 0.2045455,
                "end_time": 0.2386364,
                "pitch": 33,
                "velocity": 80,
                "duration": 0.0340909,
                "tempo": 120.0
            },
            {
                "start_time": 0.3068182,
                "end_time": 0.3386364,
                "pitch": 36,
                "velocity": 80,
                "duration": 0.0318182,
                "tempo": 120.0
            },
            {
                "start_time": 0.4068182,
                "end_time": 0.4386364,
                "pitch": 40,
                "velocity": 80,
                "duration": 0.0318182,
                "tempo": 120.0
            },
            {
                "start_time": 0.5068182,
                "end_time": 0.5386364,
                "pitch": 36,
                "velocity": 80,
                "duration": 0.0318182,
                "tempo": 120.0
            },
            {
                "start_time": 0.6068182,
                "end_time": 0.7386364,
                "pitch": 34,
                "velocity": 80,
                "duration": 0.1318182,
                "tempo": 120.0
            },
            {
                "start_time": 0.8068182,
                "end_time": 0.8386364,
                "pitch": 34,
                "velocity": 80,
                "duration": 0.0318182,
                "tempo": 120.0
            },
            {
                "start_time": 0.9068182,
                "end_time": 0.9386364,
                "pitch": 41,
                "velocity": 80,
                "duration": 0.0318182,
                "tempo": 120.0
            },
            {
                "start_time": 1.0068182,
                "end_time": 1.0386364,
                "pitch": 38,
                "velocity": 80,
                "duration": 0.0318182,
                "tempo": 120.0
            },
            {
                "start_time": 1.1068182,
                "end_time": 1.1409091,
                "pitch": 34,
                "velocity": 80,
                "duration": 0.0340909,
                "tempo": 120.0
            },
            {
                "start_time": 1.2090909,
                "end_time": 1.3409091,
                "pitch": 32,
                "velocity": 80,
                "duration": 0.1318182,
                "tempo": 120.0
            },
            {
                "start_time": 1.4090909,
                "end_time": 1.4409091,
                "pitch": 32,
                "velocity": 80,
                "duration": 0.0318182,
                "tempo": 120.0
            },
            {
                "start_time": 1.5090909,
                "end_time": 1.5409091,
                "pitch": 38,
                "velocity": 80,
                "duration": 0.0318182,
                "tempo": 120.0
            },
            {
                "start_time": 1.6090909,
                "end_time": 1.6409091,
                "pitch": 35,
                "velocity": 80,
                "duration": 0.0318182,
                "tempo": 120.0
            },
            {
                "start_time": 1.7090909,
                "end_time": 1.7431818,
                "pitch": 32,
                "velocity": 80,
                "duration": 0.0340909,
                "tempo": 120.0
            },
            {
                "start_time": 1.8113636,
                "end_time": 1.9431818,
                "pitch": 33,
                "velocity": 80,
                "duration": 0.1318182,
                "tempo": 120.0
            },
            {
                "start_time": 2.0113636,
                "end_time": 2.0454545,
                "pitch": 28,
                "velocity": 80,
                "duration": 0.0340909,
                "tempo": 120.0
            },
            {
                "start_time": 2.1136364,
                "end_time": 2.1454545,
                "pitch": 33,
                "velocity": 80,
                "duration": 0.0318182,
                "tempo": 120.0
            },
            {
                "start_time": 2.2136364,
                "end_time": 2.2454545,
                "pitch": 36,
                "velocity": 80,
                "duration": 0.0318182,
                "tempo": 120.0
            },
            {
                "start_time": 2.3136364,
                "end_time": 2.3454545,
                "pitch": 28,
                "velocity": 80,
                "duration": 0.0318182,
                "tempo": 120.0
            },
            {
                "start_time": 2.4136364,
                "end_time": 2.5454545,
                "pitch": 33,
                "velocity": 80,
                "duration": 0.1318182,
                "tempo": 120.0
            },
            {
                "start_time": 2.6136364,
                "end_time": 2.6477273,
                "pitch": 33,
                "velocity": 80,
                "duration": 0.0340909,
                "tempo": 120.0
            },
            {
                "start_time": 2.7159091,
                "end_time": 2.7477273,
                "pitch": 36,
                "velocity": 80,
                "duration": 0.0318182,
                "tempo": 120.0
            },
            {
                "start_time": 2.8159091,
                "end_time": 2.8477273,
                "pitch": 40,
                "velocity": 80,
                "duration": 0.0318182,
                "tempo": 120.0
            },
            {
                "start_time": 2.9159091,
                "end_time": 2.9477273,
                "pitch": 36,
                "velocity": 80,
                "duration": 0.0318182,
                "tempo": 120.0
            },
            {
                "start_time": 3.0159091,
                "end_time": 3.1477273,
                "pitch": 34,
                "velocity": 80,
                "duration": 0.1318182,
                "tempo": 120.0
            },
            {
                "start_time": 3.2159091,
                "end_time": 3.2477273,
                "pitch": 34,
                "velocity": 80,
                "duration": 0.0318182,
                "tempo": 120.0
            },
            {
                "start_time": 3.3159091,
                "end_time": 3.3477273,
                "pitch": 41,
                "velocity": 80,
                "duration": 0.0318182,
                "tempo": 120.0
            },
            {
                "start_time": 3.4159091,
                "end_time": 3.4477273,
                "pitch": 38,
                "velocity": 80,
                "duration": 0.0318182,
                "tempo": 120.0
            },
            {
                "start_time": 3.5159091,
                "end_time": 3.55,
                "pitch": 34,
                "velocity": 80,
                "duration": 0.0340909,
                "tempo": 120.0
            },
            {
                "start_time": 3.6181818,
                "end_time": 3.75,
                "pitch": 32,
                "velocity": 80,
                "duration": 0.1318182,
                "tempo": 120.0
            },
            {
                "start_time": 3.8181818,
                "end_time": 3.85,
                "pitch": 32,
                "velocity": 80,
                "duration": 0.0318182,
                "tempo": 120.0
            },
            {
                "start_time": 3.9181818,
                "end_time": 3.95,
                "pitch": 38,
                "velocity": 80,
                "duration": 0.0318182,
                "tempo": 120.0
            },
            {
                "start_time": 4.0181818,
                "end_time": 4.0522727,
                "pitch": 35,
                "velocity": 80,
                "duration": 0.0340909,
                "tempo": 120.0
            },
            {
                "start_time": 4.1181818,
                "end_time": 4.1522727,
                "pitch": 32,
                "velocity": 80,
                "duration": 0.0340909,
                "tempo": 120.0
            },
            {
                "start_time": 4.2204545,
                "end_time": 4.3522727,
                "pitch": 33,
                "velocity": 80,
                "duration": 0.1318182,
                "tempo": 120.0
            },
            {
                "start_time": 4.4204545,
                "end_time": 4.4522727,
                "pitch": 28,
                "velocity": 80,
                "duration": 0.0318182,
                "tempo": 120.0
            },
            {
                "start_time": 4.5204545,
                "end_time": 4.5522727,
                "pitch": 33,
                "velocity": 80,
                "duration": 0.0318182,
                "tempo": 120.0
            },
            {
                "start_time": 4.6204545,
                "end_time": 4.6522727,
                "pitch": 36,
                "velocity": 80,
                "duration": 0.0318182,
                "tempo": 120.0
            },
            {
                "start_time": 4.7204545,
                "end_time": 4.7522727,
                "pitch": 28,
                "velocity": 80,
                "duration": 0.0318182,
                "tempo": 120.0
            },
            {
                "start_time": 4.8227273,
                "end_time": 4.9522727,
                "pitch": 33,
                "velocity": 80,
                "duration": 0.1295455,
                "tempo": 120.0
            },
            {
                "start_time": 5.0204545,
                "end_time": 5.0522727,
                "pitch": 33,
                "velocity": 80,
                "duration": 0.0318182,
                "tempo": 120.0
            },
            {
                "start_time": 5.1204545,
                "end_time": 5.1545455,
                "pitch": 36,
                "velocity": 80,
                "duration": 0.0340909,
                "tempo": 120.0
            },
            {
                "start_time": 5.2204545,
                "end_time": 5.2545455,
                "pitch": 40,
                "velocity": 80,
                "duration": 0.0340909,
                "tempo": 120.0
            },
            {
                "start_time": 5.3227273,
                "end_time": 5.3545455,
                "pitch": 36,
                "velocity": 80,
                "duration": 0.0318182,
                "tempo": 120.0
            },
            {
                "start_time": 5.4227273,
                "end_time": 5.5590909,
                "pitch": 34,
                "velocity": 80,
                "duration": 0.1363636,
                "tempo": 120.0
            },
            {
                "start_time": 5.6295455,
                "end_time": 5.6636364,
                "pitch": 34,
                "velocity": 80,
                "duration": 0.0340909,
                "tempo": 120.0
            },
            {
                "start_time": 5.7340909,
                "end_time": 5.7659091,
                "pitch": 41,
                "velocity": 80,
                "duration": 0.0318182,
                "tempo": 120.0
            },
            {
                "start_time": 5.8318182,
                "end_time": 5.8636364,
                "pitch": 38,
                "velocity": 80,
                "duration": 0.0318182,
                "tempo": 120.0
            },
            {
                "start_time": 5.9272727,
                "end_time": 5.9590909,
                "pitch": 34,
                "velocity": 80,
                "duration": 0.0318182,
                "tempo": 120.0
            },
            {
                "start_time": 6.0272727,
                "end_time": 6.1590909,
                "pitch": 32,
                "velocity": 80,
                "duration": 0.1318182,
                "tempo": 120.0
            },
            {
                "start_time": 6.225,
                "end_time": 6.2590909,
                "pitch": 32,
                "velocity": 80,
                "duration": 0.0340909,
                "tempo": 120.0
            },
            {
                "start_time": 6.325,
                "end_time": 6.3590909,
                "pitch": 38,
                "velocity": 80,
                "duration": 0.0340909,
                "tempo": 120.0
            },
            {
                "start_time": 6.425,
                "end_time": 6.4590909,
                "pitch": 35,
                "velocity": 80,
                "duration": 0.0340909,
                "tempo": 120.0
            },
            {
                "start_time": 6.525,
                "end_time": 6.5590909,
                "pitch": 32,
                "velocity": 80,
                "duration": 0.0340909,
                "tempo": 120.0
            },
            {
                "start_time": 6.6272727,
                "end_time": 6.7636364,
                "pitch": 33,
                "velocity": 80,
                "duration": 0.1363636,
                "tempo": 120.0
            },
            {
                "start_time": 6.8340909,
                "end_time": 6.8659091,
                "pitch": 28,
                "velocity": 80,
                "duration": 0.0318182,
                "tempo": 120.0
            },
            {
                "start_time": 6.9363636,
                "end_time": 6.9681818,
                "pitch": 33,
                "velocity": 80,
                "duration": 0.0318182,
                "tempo": 120.0
            },
            {
                "start_time": 7.0340909,
                "end_time": 7.0659091,
                "pitch": 36,
                "velocity": 80,
                "duration": 0.0318182,
                "tempo": 120.0
            },
            {
                "start_time": 7.1318182,
                "end_time": 7.1636364,
                "pitch": 28,
                "velocity": 80,
                "duration": 0.0318182,
                "tempo": 120.0
            },
            {
                "start_time": 7.2295455,
                "end_time": 7.3613636,
                "pitch": 33,
                "velocity": 80,
                "duration": 0.1318182,
                "tempo": 120.0
            },
            {
                "start_time": 7.4295455,
                "end_time": 7.4613636,
                "pitch": 33,
                "velocity": 80,
                "duration": 0.0318182,
                "tempo": 120.0
            },
            {
                "start_time": 7.5295455,
                "end_time": 7.5613636,
                "pitch": 36,
                "velocity": 80,
                "duration": 0.0318182,
                "tempo": 120.0
            },
            {
                "start_time": 7.6318182,
                "end_time": 7.6659091,
                "pitch": 40,
                "velocity": 80,
                "duration": 0.0340909,
                "tempo": 120.0
            },
            {
                "start_time": 7.7363636,
                "end_time": 7.7704545,
                "pitch": 36,
                "velocity": 80,
                "duration": 0.0340909,
                "tempo": 120.0
            },
            {
                "start_time": 7.8409091,
                "end_time": 7.9727273,
                "pitch": 34,
                "velocity": 80,
                "duration": 0.1318182,
                "tempo": 120.0
            },
            {
                "start_time": 8.0409091,
                "end_time": 8.075,
                "pitch": 34,
                "velocity": 80,
                "duration": 0.0340909,
                "tempo": 120.0
            },
            {
                "start_time": 8.1431818,
                "end_time": 8.175,
                "pitch": 41,
                "velocity": 80,
                "duration": 0.0318182,
                "tempo": 120.0
            },
            {
                "start_time": 8.2431818,
                "end_time": 8.275,
                "pitch": 38,
                "velocity": 80,
                "duration": 0.0318182,
                "tempo": 120.0
            },
            {
                "start_time": 8.3431818,
                "end_time": 8.375,
                "pitch": 34,
                "velocity": 80,
                "duration": 0.0318182,
                "tempo": 120.0
            },
            {
                "start_time": 8.4431818,
                "end_time": 8.5704545,
                "pitch": 32,
                "velocity": 80,
                "duration": 0.1272727,
                "tempo": 120.0
            },
            {
                "start_time": 8.6363636,
                "end_time": 8.6681818,
                "pitch": 32,
                "velocity": 80,
                "duration": 0.0318182,
                "tempo": 120.0
            },
            {
                "start_time": 8.7340909,
                "end_time": 8.7681818,
                "pitch": 38,
                "velocity": 80,
                "duration": 0.0340909,
                "tempo": 120.0
            },
            {
                "start_time": 8.8386364,
                "end_time": 8.8704545,
                "pitch": 35,
                "velocity": 80,
                "duration": 0.0318182,
                "tempo": 120.0
            },
            {
                "start_time": 8.9409091,
                "end_time": 8.975,
                "pitch": 32,
                "velocity": 80,
                "duration": 0.0340909,
                "tempo": 120.0
            },
            {
                "start_time": 9.0454545,
                "end_time": 9.1772727,
                "pitch": 33,
                "velocity": 80,
                "duration": 0.1318182,
                "tempo": 120.0
            },
            {
                "start_time": 9.2454545,
                "end_time": 9.2772727,
                "pitch": 28,
                "velocity": 80,
                "duration": 0.0318182,
                "tempo": 120.0
            },
            {
                "start_time": 9.3454545,
                "end_time": 9.3772727,
                "pitch": 33,
                "velocity": 80,
                "duration": 0.0318182,
                "tempo": 120.0
            },
            {
                "start_time": 9.4477273,
                "end_time": 9.4795455,
                "pitch": 36,
                "velocity": 80,
                "duration": 0.0318182,
                "tempo": 120.0
            },
            {
                "start_time": 9.5477273,
                "end_time": 9.5795455,
                "pitch": 35,
                "velocity": 80,
                "duration": 0.0318182,
                "tempo": 120.0
            },
            {
                "start_time": 9.65,
                "end_time": 9.7795455,
                "pitch": 34,
                "velocity": 80,
                "duration": 0.1295455,
                "tempo": 120.0
            },
            {
                "start_time": 9.8477273,
                "end_time": 9.8795455,
                "pitch": 34,
                "velocity": 80,
                "duration": 0.0318182,
                "tempo": 120.0
            },
            {
                "start_time": 9.9477273,
                "end_time": 9.9795455,
                "pitch": 38,
                "velocity": 80,
                "duration": 0.0318182,
                "tempo": 120.0
            },
            {
                "start_time": 10.0477273,
                "end_time": 10.0818182,
                "pitch": 41,
                "velocity": 80,
                "duration": 0.0340909,
                "tempo": 120.0
            },
            {
                "start_time": 10.15,
                "end_time": 10.1818182,
                "pitch": 38,
                "velocity": 80,
                "duration": 0.0318182,
                "tempo": 120.0
            },
            {
                "start_time": 10.25,
                "end_time": 10.3840909,
                "pitch": 34,
                "velocity": 80,
                "duration": 0.1340909,
                "tempo": 120.0
            },
            {
                "start_time": 10.45,
                "end_time": 10.4840909,
                "pitch": 34,
                "velocity": 80,
                "duration": 0.0340909,
                "tempo": 120.0
            },
            {
                "start_time": 10.5522727,
                "end_time": 10.5840909,
                "pitch": 38,
                "velocity": 80,
                "duration": 0.0318182,
                "tempo": 120.0
            },
            {
                "start_time": 10.6522727,
                "end_time": 10.6840909,
                "pitch": 41,
                "velocity": 80,
                "duration": 0.0318182,
                "tempo": 120.0
            },
            {
                "start_time": 10.7522727,
                "end_time": 10.7840909,
                "pitch": 38,
                "velocity": 80,
                "duration": 0.0318182,
                "tempo": 120.0
            },
            {
                "start_time": 10.8522727,
                "end_time": 10.9863636,
                "pitch": 34,
                "velocity": 80,
                "duration": 0.1340909,
                "tempo": 120.0
            },
            {
                "start_time": 11.0522727,
                "end_time": 11.0863636,
                "pitch": 33,
                "velocity": 80,
                "duration": 0.0340909,
                "tempo": 120.0
            },
            {
                "start_time": 11.1545455,
                "end_time": 11.1863636,
                "pitch": 38,
                "velocity": 80,
                "duration": 0.0318182,
                "tempo": 120.0
            },
            {
                "start_time": 11.2545455,
                "end_time": 11.2863636,
                "pitch": 41,
                "velocity": 80,
                "duration": 0.0318182,
                "tempo": 120.0
            },
            {
                "start_time": 11.3545455,
                "end_time": 11.3863636,
                "pitch": 38,
                "velocity": 80,
                "duration": 0.0318182,
                "tempo": 120.0
            },
            {
                "start_time": 11.4545455,
                "end_time": 11.5886364,
                "pitch": 34,
                "velocity": 80,
                "duration": 0.1340909,
                "tempo": 120.0
            },
            {
                "start_time": 11.6545455,
                "end_time": 11.6886364,
                "pitch": 34,
                "velocity": 80,
                "duration": 0.0340909,
                "tempo": 120.0
            },
            {
                "start_time": 11.7568182,
                "end_time": 11.7886364,
                "pitch": 41,
                "velocity": 80,
                "duration": 0.0318182,
                "tempo": 120.0
            },
            {
                "start_time": 11.8568182,
                "end_time": 11.8886364,
                "pitch": 38,
                "velocity": 80,
                "duration": 0.0318182,
                "tempo": 120.0
            },
            {
                "start_time": 11.9568182,
                "end_time": 11.9909091,
                "pitch": 33,
                "velocity": 80,
                "duration": 0.0340909,
                "tempo": 120.0
            },
            {
                "start_time": 12.0590909,
                "end_time": 12.1909091,
                "pitch": 35,
                "velocity": 80,
                "duration": 0.1318182,
                "tempo": 120.0
            },
            {
                "start_time": 12.2590909,
                "end_time": 12.2909091,
                "pitch": 35,
                "velocity": 80,
                "duration": 0.0318182,
                "tempo": 120.0
            },
            {
                "start_time": 12.3590909,
                "end_time": 12.3909091,
                "pitch": 38,
                "velocity": 80,
                "duration": 0.0318182,
                "tempo": 120.0
            },
            {
                "start_time": 12.4590909,
                "end_time": 12.4909091,
                "pitch": 41,
                "velocity": 80,
                "duration": 0.0318182,
                "tempo": 120.0
            },
            {
                "start_time": 12.5590909,
                "end_time": 12.5931818,
                "pitch": 38,
                "velocity": 80,
                "duration": 0.0340909,
                "tempo": 120.0
            },
            {
                "start_time": 12.6613636,
                "end_time": 12.7931818,
                "pitch": 35,
                "velocity": 80,
                "duration": 0.1318182,
                "tempo": 120.0
            },
            {
                "start_time": 12.8613636,
                "end_time": 12.8931818,
                "pitch": 35,
                "velocity": 80,
                "duration": 0.0318182,
                "tempo": 120.0
            },
            {
                "start_time": 12.9613636,
                "end_time": 12.9931818,
                "pitch": 38,
                "velocity": 80,
                "duration": 0.0318182,
                "tempo": 120.0
            },
            {
                "start_time": 13.0613636,
                "end_time": 13.0931818,
                "pitch": 41,
                "velocity": 80,
                "duration": 0.0318182,
                "tempo": 120.0
            },
            {
                "start_time": 13.1613636,
                "end_time": 13.1954545,
                "pitch": 38,
                "velocity": 80,
                "duration": 0.0340909,
                "tempo": 120.0
            },
            {
                "start_time": 13.2636364,
                "end_time": 13.3954545,
                "pitch": 35,
                "velocity": 80,
                "duration": 0.1318182,
                "tempo": 120.0
            },
            {
                "start_time": 13.4636364,
                "end_time": 13.4954545,
                "pitch": 35,
                "velocity": 80,
                "duration": 0.0318182,
                "tempo": 120.0
            },
            {
                "start_time": 13.5636364,
                "end_time": 13.5977273,
                "pitch": 38,
                "velocity": 80,
                "duration": 0.0340909,
                "tempo": 120.0
            },
            {
                "start_time": 13.6659091,
                "end_time": 13.6977273,
                "pitch": 41,
                "velocity": 80,
                "duration": 0.0318182,
                "tempo": 120.0
            },
            {
                "start_time": 13.7659091,
                "end_time": 13.7977273,
                "pitch": 38,
                "velocity": 80,
                "duration": 0.0318182,
                "tempo": 120.0
            },
            {
                "start_time": 13.8659091,
                "end_time": 13.9977273,
                "pitch": 35,
                "velocity": 80,
                "duration": 0.1318182,
                "tempo": 120.0
            },
            {
                "start_time": 14.0659091,
                "end_time": 14.0977273,
                "pitch": 35,
                "velocity": 80,
                "duration": 0.0318182,
                "tempo": 120.0
            },
            {
                "start_time": 14.1659091,
                "end_time": 14.2,
                "pitch": 41,
                "velocity": 80,
                "duration": 0.0340909,
                "tempo": 120.0
            },
            {
                "start_time": 14.2681818,
                "end_time": 14.3,
                "pitch": 38,
                "velocity": 80,
                "duration": 0.0318182,
                "tempo": 120.0
            },
            {
                "start_time": 14.3659091,
                "end_time": 14.4,
                "pitch": 35,
                "velocity": 80,
                "duration": 0.0340909,
                "tempo": 120.0
            },
            {
                "start_time": 14.4681818,
                "end_time": 14.6,
                "pitch": 34,
                "velocity": 80,
                "duration": 0.1318182,
                "tempo": 120.0
            },
            {
                "start_time": 14.6681818,
                "end_time": 14.7,
                "pitch": 34,
                "velocity": 80,
                "duration": 0.0318182,
                "tempo": 120.0
            },
            {
                "start_time": 14.7681818,
                "end_time": 14.8022727,
                "pitch": 38,
                "velocity": 80,
                "duration": 0.0340909,
                "tempo": 120.0
            },
            {
                "start_time": 14.8704545,
                "end_time": 14.9022727,
                "pitch": 41,
                "velocity": 80,
                "duration": 0.0318182,
                "tempo": 120.0
            },
            {
                "start_time": 14.9704545,
                "end_time": 15.0022727,
                "pitch": 38,
                "velocity": 80,
                "duration": 0.0318182,
                "tempo": 120.0
            },
            {
                "start_time": 15.0727273,
                "end_time": 15.2045455,
                "pitch": 34,
                "velocity": 80,
                "duration": 0.1318182,
                "tempo": 120.0
            },
            {
                "start_time": 15.2704545,
                "end_time": 15.3045455,
                "pitch": 34,
                "velocity": 80,
                "duration": 0.0340909,
                "tempo": 120.0
            },
            {
                "start_time": 15.3704545,
                "end_time": 15.4045455,
                "pitch": 38,
                "velocity": 80,
                "duration": 0.0340909,
                "tempo": 120.0
            },
            {
                "start_time": 15.4727273,
                "end_time": 15.5045455,
                "pitch": 41,
                "velocity": 80,
                "duration": 0.0318182,
                "tempo": 120.0
            },
            {
                "start_time": 15.5727273,
                "end_time": 15.6045455,
                "pitch": 38,
                "velocity": 80,
                "duration": 0.0318182,
                "tempo": 120.0
            },
            {
                "start_time": 15.675,
                "end_time": 15.8068182,
                "pitch": 34,
                "velocity": 80,
                "duration": 0.1318182,
                "tempo": 120.0
            },
            {
                "start_time": 15.8727273,
                "end_time": 15.9068182,
                "pitch": 33,
                "velocity": 80,
                "duration": 0.0340909,
                "tempo": 120.0
            },
            {
                "start_time": 15.9727273,
                "end_time": 16.0068182,
                "pitch": 38,
                "velocity": 80,
                "duration": 0.0340909,
                "tempo": 120.0
            },
            {
                "start_time": 16.075,
                "end_time": 16.1068182,
                "pitch": 41,
                "velocity": 80,
                "duration": 0.0318182,
                "tempo": 120.0
            },
            {
                "start_time": 16.175,
                "end_time": 16.2068182,
                "pitch": 38,
                "velocity": 80,
                "duration": 0.0318182,
                "tempo": 120.0
            },
            {
                "start_time": 16.2772727,
                "end_time": 16.4136364,
                "pitch": 34,
                "velocity": 80,
                "duration": 0.1363636,
                "tempo": 120.0
            },
            {
                "start_time": 16.4818182,
                "end_time": 16.5159091,
                "pitch": 34,
                "velocity": 80,
                "duration": 0.0340909,
                "tempo": 120.0
            },
            {
                "start_time": 16.5863636,
                "end_time": 16.6204545,
                "pitch": 41,
                "velocity": 80,
                "duration": 0.0340909,
                "tempo": 120.0
            },
            {
                "start_time": 16.6886364,
                "end_time": 16.7204545,
                "pitch": 38,
                "velocity": 80,
                "duration": 0.0318182,
                "tempo": 120.0
            },
            {
                "start_time": 16.7886364,
                "end_time": 16.8204545,
                "pitch": 33,
                "velocity": 80,
                "duration": 0.0318182,
                "tempo": 120.0
            },
            {
                "start_time": 16.8909091,
                "end_time": 17.0204545,
                "pitch": 33,
                "velocity": 80,
                "duration": 0.1295455,
                "tempo": 120.0
            },
            {
                "start_time": 17.0886364,
                "end_time": 17.1227273,
                "pitch": 33,
                "velocity": 80,
                "duration": 0.0340909,
                "tempo": 120.0
            },
            {
                "start_time": 17.1886364,
                "end_time": 17.2227273,
                "pitch": 36,
                "velocity": 80,
                "duration": 0.0340909,
                "tempo": 120.0
            },
            {
                "start_time": 17.2909091,
                "end_time": 17.3227273,
                "pitch": 40,
                "velocity": 80,
                "duration": 0.0318182,
                "tempo": 120.0
            },
            {
                "start_time": 17.3909091,
                "end_time": 17.4227273,
                "pitch": 36,
                "velocity": 80,
                "duration": 0.0318182,
                "tempo": 120.0
            },
            {
                "start_time": 17.4909091,
                "end_time": 17.625,
                "pitch": 34,
                "velocity": 80,
                "duration": 0.1340909,
                "tempo": 120.0
            },
            {
                "start_time": 17.6931818,
                "end_time": 17.725,
                "pitch": 34,
                "velocity": 80,
                "duration": 0.0318182,
                "tempo": 120.0
            },
            {
                "start_time": 17.7931818,
                "end_time": 17.825,
                "pitch": 41,
                "velocity": 80,
                "duration": 0.0318182,
                "tempo": 120.0
            },
            {
                "start_time": 17.8931818,
                "end_time": 17.9272727,
                "pitch": 38,
                "velocity": 80,
                "duration": 0.0340909,
                "tempo": 120.0
            },
            {
                "start_time": 17.9954545,
                "end_time": 18.0272727,
                "pitch": 34,
                "velocity": 80,
                "duration": 0.0318182,
                "tempo": 120.0
            },
            {
                "start_time": 18.0954545,
                "end_time": 18.2272727,
                "pitch": 32,
                "velocity": 80,
                "duration": 0.1318182,
                "tempo": 120.0
            },
            {
                "start_time": 18.2954545,
                "end_time": 18.3295455,
                "pitch": 32,
                "velocity": 80,
                "duration": 0.0340909,
                "tempo": 120.0
            },
            {
                "start_time": 18.3977273,
                "end_time": 18.4295455,
                "pitch": 38,
                "velocity": 80,
                "duration": 0.0318182,
                "tempo": 120.0
            },
            {
                "start_time": 18.4977273,
                "end_time": 18.5295455,
                "pitch": 35,
                "velocity": 80,
                "duration": 0.0318182,
                "tempo": 120.0
            },
            {
                "start_time": 18.5977273,
                "end_time": 18.6295455,
                "pitch": 32,
                "velocity": 80,
                "duration": 0.0318182,
                "tempo": 120.0
            },
            {
                "start_time": 18.6977273,
                "end_time": 18.8295455,
                "pitch": 33,
                "velocity": 80,
                "duration": 0.1318182,
                "tempo": 120.0
            },
            {
                "start_time": 18.8977273,
                "end_time": 18.9318182,
                "pitch": 28,
                "velocity": 80,
                "duration": 0.0340909,
                "tempo": 120.0
            },
            {
                "start_time": 19.0,
                "end_time": 19.0318182,
                "pitch": 33,
                "velocity": 80,
                "duration": 0.0318182,
                "tempo": 120.0
            },
            {
                "start_time": 19.1,
                "end_time": 19.1318182,
                "pitch": 36,
                "velocity": 80,
                "duration": 0.0318182,
                "tempo": 120.0
            },
            {
                "start_time": 19.2,
                "end_time": 19.2340909,
                "pitch": 28,
                "velocity": 80,
                "duration": 0.0340909,
                "tempo": 120.0
            },
            {
                "start_time": 19.3022727,
                "end_time": 19.4340909,
                "pitch": 33,
                "velocity": 80,
                "duration": 0.1318182,
                "tempo": 120.0
            },
            {
                "start_time": 19.5022727,
                "end_time": 19.5340909,
                "pitch": 33,
                "velocity": 80,
                "duration": 0.0318182,
                "tempo": 120.0
            },
            {
                "start_time": 19.6022727,
                "end_time": 19.6363636,
                "pitch": 36,
                "velocity": 80,
                "duration": 0.0340909,
                "tempo": 120.0
            },
            {
                "start_time": 19.7045455,
                "end_time": 19.7363636,
                "pitch": 40,
                "velocity": 80,
                "duration": 0.0318182,
                "tempo": 120.0
            },
            {
                "start_time": 19.8045455,
                "end_time": 19.8363636,
                "pitch": 36,
                "velocity": 80,
                "duration": 0.0318182,
                "tempo": 120.0
            },
            {
                "start_time": 19.9045455,
                "end_time": 20.0409091,
                "pitch": 34,
                "velocity": 80,
                "duration": 0.1363636,
                "tempo": 120.0
            },
            {
                "start_time": 20.1113636,
                "end_time": 20.1454545,
                "pitch": 34,
                "velocity": 80,
                "duration": 0.0340909,
                "tempo": 120.0
            },
            {
                "start_time": 20.2159091,
                "end_time": 20.2477273,
                "pitch": 41,
                "velocity": 80,
                "duration": 0.0318182,
                "tempo": 120.0
            },
            {
                "start_time": 20.3136364,
                "end_time": 20.3454545,
                "pitch": 38,
                "velocity": 80,
                "duration": 0.0318182,
                "tempo": 120.0
            },
            {
                "start_time": 20.4113636,
                "end_time": 20.4409091,
                "pitch": 34,
                "velocity": 80,
                "duration": 0.0295455,
                "tempo": 120.0
            },
            {
                "start_time": 20.5090909,
                "end_time": 20.6409091,
                "pitch": 32,
                "velocity": 80,
                "duration": 0.1318182,
                "tempo": 120.0
            },
            {
                "start_time": 20.7090909,
                "end_time": 20.7409091,
                "pitch": 32,
                "velocity": 80,
                "duration": 0.0318182,
                "tempo": 120.0
            },
            {
                "start_time": 20.8090909,
                "end_time": 20.8409091,
                "pitch": 38,
                "velocity": 80,
                "duration": 0.0318182,
                "tempo": 120.0
            },
            {
                "start_time": 20.9090909,
                "end_time": 20.9431818,
                "pitch": 35,
                "velocity": 80,
                "duration": 0.0340909,
                "tempo": 120.0
            },
            {
                "start_time": 21.0113636,
                "end_time": 21.0431818,
                "pitch": 32,
                "velocity": 80,
                "duration": 0.0318182,
                "tempo": 120.0
            },
            {
                "start_time": 21.1113636,
                "end_time": 21.2454545,
                "pitch": 33,
                "velocity": 80,
                "duration": 0.1340909,
                "tempo": 120.0
            },
            {
                "start_time": 21.3136364,
                "end_time": 21.3454545,
                "pitch": 28,
                "velocity": 80,
                "duration": 0.0318182,
                "tempo": 120.0
            },
            {
                "start_time": 21.4136364,
                "end_time": 21.4454545,
                "pitch": 33,
                "velocity": 80,
                "duration": 0.0318182,
                "tempo": 120.0
            },
            {
                "start_time": 21.5136364,
                "end_time": 21.5454545,
                "pitch": 36,
                "velocity": 80,
                "duration": 0.0318182,
                "tempo": 120.0
            },
            {
                "start_time": 21.6136364,
                "end_time": 21.6454545,
                "pitch": 28,
                "velocity": 80,
                "duration": 0.0318182,
                "tempo": 120.0
            },
            {
                "start_time": 21.7136364,
                "end_time": 21.8477273,
                "pitch": 29,
                "velocity": 80,
                "duration": 0.1340909,
                "tempo": 120.0
            },
            {
                "start_time": 21.9159091,
                "end_time": 21.9477273,
                "pitch": 29,
                "velocity": 80,
                "duration": 0.0318182,
                "tempo": 120.0
            },
            {
                "start_time": 22.0159091,
                "end_time": 22.0477273,
                "pitch": 29,
                "velocity": 80,
                "duration": 0.0318182,
                "tempo": 120.0
            },
            {
                "start_time": 22.1159091,
                "end_time": 22.15,
                "pitch": 29,
                "velocity": 80,
                "duration": 0.0340909,
                "tempo": 120.0
            },
            {
                "start_time": 22.2181818,
                "end_time": 22.25,
                "pitch": 29,
                "velocity": 80,
                "duration": 0.0318182,
                "tempo": 120.0
            },
            {
                "start_time": 22.3181818,
                "end_time": 22.45,
                "pitch": 29,
                "velocity": 80,
                "duration": 0.1318182,
                "tempo": 120.0
            },
            {
                "start_time": 22.5181818,
                "end_time": 22.6522727,
                "pitch": 29,
                "velocity": 80,
                "duration": 0.1340909,
                "tempo": 120.0
            },
            {
                "start_time": 22.7204545,
                "end_time": 22.8522727,
                "pitch": 29,
                "velocity": 80,
                "duration": 0.1318182,
                "tempo": 120.0
            },
            {
                "start_time": 22.9227273,
                "end_time": 23.0545455,
                "pitch": 29,
                "velocity": 80,
                "duration": 0.1318182,
                "tempo": 120.0
            },
            {
                "start_time": 23.1227273,
                "end_time": 23.1545455,
                "pitch": 29,
                "velocity": 80,
                "duration": 0.0318182,
                "tempo": 120.0
            },
            {
                "start_time": 23.2227273,
                "end_time": 23.2545455,
                "pitch": 29,
                "velocity": 80,
                "duration": 0.0318182,
                "tempo": 120.0
            },
            {
                "start_time": 23.3227273,
                "end_time": 23.3545455,
                "pitch": 29,
                "velocity": 80,
                "duration": 0.0318182,
                "tempo": 120.0
            },
            {
                "start_time": 23.4227273,
                "end_time": 23.4545455,
                "pitch": 29,
                "velocity": 80,
                "duration": 0.0318182,
                "tempo": 120.0
            },
            {
                "start_time": 23.525,
                "end_time": 23.6568182,
                "pitch": 29,
                "velocity": 80,
                "duration": 0.1318182,
                "tempo": 120.0
            },
            {
                "start_time": 23.725,
                "end_time": 23.8590909,
                "pitch": 29,
                "velocity": 80,
                "duration": 0.1340909,
                "tempo": 120.0
            },
            {
                "start_time": 23.9295455,
                "end_time": 24.0659091,
                "pitch": 29,
                "velocity": 80,
                "duration": 0.1363636,
                "tempo": 120.0
            },
            {
                "start_time": 24.1386364,
                "end_time": 24.1681818,
                "pitch": 26,
                "velocity": 80,
                "duration": 0.0295455,
                "tempo": 120.0
            },
            {
                "start_time": 24.2386364,
                "end_time": 24.2704545,
                "pitch": 29,
                "velocity": 80,
                "duration": 0.0318182,
                "tempo": 120.0
            },
            {
                "start_time": 24.3386364,
                "end_time": 24.3704545,
                "pitch": 32,
                "velocity": 80,
                "duration": 0.0318182,
                "tempo": 120.0
            },
            {
                "start_time": 24.4386364,
                "end_time": 24.4704545,
                "pitch": 29,
                "velocity": 80,
                "duration": 0.0318182,
                "tempo": 120.0
            },
            {
                "start_time": 24.5386364,
                "end_time": 24.5727273,
                "pitch": 32,
                "velocity": 80,
                "duration": 0.0340909,
                "tempo": 120.0
            },
            {
                "start_time": 24.6409091,
                "end_time": 24.6727273,
                "pitch": 35,
                "velocity": 80,
                "duration": 0.0318182,
                "tempo": 120.0
            },
            {
                "start_time": 24.7409091,
                "end_time": 24.7727273,
                "pitch": 32,
                "velocity": 80,
                "duration": 0.0318182,
                "tempo": 120.0
            },
            {
                "start_time": 24.8409091,
                "end_time": 24.8727273,
                "pitch": 35,
                "velocity": 80,
                "duration": 0.0318182,
                "tempo": 120.0
            },
            {
                "start_time": 24.9431818,
                "end_time": 24.975,
                "pitch": 38,
                "velocity": 80,
                "duration": 0.0318182,
                "tempo": 120.0
            },
            {
                "start_time": 25.0431818,
                "end_time": 25.075,
                "pitch": 35,
                "velocity": 80,
                "duration": 0.0318182,
                "tempo": 120.0
            },
            {
                "start_time": 25.1431818,
                "end_time": 25.175,
                "pitch": 38,
                "velocity": 80,
                "duration": 0.0318182,
                "tempo": 120.0
            },
            {
                "start_time": 25.2431818,
                "end_time": 25.2772727,
                "pitch": 41,
                "velocity": 80,
                "duration": 0.0340909,
                "tempo": 120.0
            },
            {
                "start_time": 25.3454545,
                "end_time": 25.3772727,
                "pitch": 38,
                "velocity": 80,
                "duration": 0.0318182,
                "tempo": 120.0
            },
            {
                "start_time": 25.4454545,
                "end_time": 25.4772727,
                "pitch": 41,
                "velocity": 80,
                "duration": 0.0318182,
                "tempo": 120.0
            },
            {
                "start_time": 25.5454545,
                "end_time": 25.5772727,
                "pitch": 44,
                "velocity": 80,
                "duration": 0.0318182,
                "tempo": 120.0
            },
            {
                "start_time": 25.6454545,
                "end_time": 25.6772727,
                "pitch": 41,
                "velocity": 80,
                "duration": 0.0318182,
                "tempo": 120.0
            },
            {
                "start_time": 25.7454545,
                "end_time": 25.7772727,
                "pitch": 44,
                "velocity": 80,
                "duration": 0.0318182,
                "tempo": 120.0
            },
            {
                "start_time": 25.8454545,
                "end_time": 25.8795455,
                "pitch": 47,
                "velocity": 80,
                "duration": 0.0340909,
                "tempo": 120.0
            },
            {
                "start_time": 25.9477273,
                "end_time": 25.9795455,
                "pitch": 44,
                "velocity": 80,
                "duration": 0.0318182,
                "tempo": 120.0
            },
            {
                "start_time": 26.0477273,
                "end_time": 26.0795455,
                "pitch": 50,
                "velocity": 80,
                "duration": 0.0318182,
                "tempo": 120.0
            },
            {
                "start_time": 26.1477273,
                "end_time": 26.1795455,
                "pitch": 47,
                "velocity": 80,
                "duration": 0.0318182,
                "tempo": 120.0
            },
            {
                "start_time": 26.2477273,
                "end_time": 26.2818182,
                "pitch": 44,
                "velocity": 80,
                "duration": 0.0340909,
                "tempo": 120.0
            },
            {
                "start_time": 26.35,
                "end_time": 26.3818182,
                "pitch": 41,
                "velocity": 80,
                "duration": 0.0318182,
                "tempo": 120.0
            },
            {
                "start_time": 26.45,
                "end_time": 26.4818182,
                "pitch": 38,
                "velocity": 80,
                "duration": 0.0318182,
                "tempo": 120.0
            },
            {
                "start_time": 27.7590909,
                "end_time": 27.8886364,
                "pitch": 33,
                "velocity": 80,
                "duration": 0.1295455,
                "tempo": 120.0
            },
            {
                "start_time": 27.9568182,
                "end_time": 27.9909091,
                "pitch": 33,
                "velocity": 80,
                "duration": 0.0340909,
                "tempo": 120.0
            }
        ],
        "Electric Piano 1": [
            {
                "start_time": 0.3068182,
                "end_time": 0.8886364,
                "pitch": 23,
                "velocity": 80,
                "duration": 0.5818182,
                "tempo": 120.0
            },
            {
                "start_time": 0.9068182,
                "end_time": 1.1909091,
                "pitch": 23,
                "velocity": 80,
                "duration": 0.2840909,
                "tempo": 120.0
            },
            {
                "start_time": 1.5090909,
                "end_time": 1.7931818,
                "pitch": 23,
                "velocity": 80,
                "duration": 0.2840909,
                "tempo": 120.0
            },
            {
                "start_time": 1.8136364,
                "end_time": 1.8272727,
                "pitch": 36,
                "velocity": 101,
                "duration": 0.0136364,
                "tempo": 120.0
            },
            {
                "start_time": 1.8272727,
                "end_time": 1.8613636,
                "pitch": 33,
                "velocity": 101,
                "duration": 0.0340909,
                "tempo": 120.0
            },
            {
                "start_time": 1.8613636,
                "end_time": 1.8931818,
                "pitch": 31,
                "velocity": 101,
                "duration": 0.0318182,
                "tempo": 120.0
            },
            {
                "start_time": 1.9113636,
                "end_time": 1.9272727,
                "pitch": 36,
                "velocity": 101,
                "duration": 0.0159091,
                "tempo": 120.0
            },
            {
                "start_time": 1.9272727,
                "end_time": 1.9613636,
                "pitch": 33,
                "velocity": 101,
                "duration": 0.0340909,
                "tempo": 120.0
            },
            {
                "start_time": 1.9613636,
                "end_time": 1.9954545,
                "pitch": 31,
                "velocity": 101,
                "duration": 0.0340909,
                "tempo": 120.0
            },
            {
                "start_time": 2.0136364,
                "end_time": 2.0272727,
                "pitch": 32,
                "velocity": 101,
                "duration": 0.0136364,
                "tempo": 120.0
            },
            {
                "start_time": 2.0272727,
                "end_time": 2.0613636,
                "pitch": 30,
                "velocity": 101,
                "duration": 0.0340909,
                "tempo": 120.0
            },
            {
                "start_time": 2.0613636,
                "end_time": 2.0954545,
                "pitch": 27,
                "velocity": 101,
                "duration": 0.0340909,
                "tempo": 120.0
            },
            {
                "start_time": 2.1136364,
                "end_time": 2.1272727,
                "pitch": 32,
                "velocity": 101,
                "duration": 0.0136364,
                "tempo": 120.0
            },
            {
                "start_time": 2.0272727,
                "end_time": 2.1295455,
                "pitch": 42,
                "velocity": 101,
                "duration": 0.1022727,
                "tempo": 120.0
            },
            {
                "start_time": 2.1272727,
                "end_time": 2.1295455,
                "pitch": 42,
                "velocity": 101,
                "duration": 0.0022727,
                "tempo": 120.0
            },
            {
                "start_time": 2.1295455,
                "end_time": 2.1613636,
                "pitch": 30,
                "velocity": 101,
                "duration": 0.0318182,
                "tempo": 120.0
            },
            {
                "start_time": 2.1613636,
                "end_time": 2.1954545,
                "pitch": 27,
                "velocity": 101,
                "duration": 0.0340909,
                "tempo": 120.0
            },
            {
                "start_time": 2.2136364,
                "end_time": 2.2295455,
                "pitch": 28,
                "velocity": 101,
                "duration": 0.0159091,
                "tempo": 120.0
            },
            {
                "start_time": 2.2295455,
                "end_time": 2.2636364,
                "pitch": 26,
                "velocity": 101,
                "duration": 0.0340909,
                "tempo": 120.0
            },
            {
                "start_time": 2.2636364,
                "end_time": 2.2954545,
                "pitch": 23,
                "velocity": 101,
                "duration": 0.0318182,
                "tempo": 120.0
            },
            {
                "start_time": 2.3136364,
                "end_time": 2.3295455,
                "pitch": 28,
                "velocity": 101,
                "duration": 0.0159091,
                "tempo": 120.0
            },
            {
                "start_time": 2.3295455,
                "end_time": 2.3636364,
                "pitch": 26,
                "velocity": 101,
                "duration": 0.0340909,
                "tempo": 120.0
            },
            {
                "start_time": 2.3636364,
                "end_time": 2.3954545,
                "pitch": 23,
                "velocity": 101,
                "duration": 0.0318182,
                "tempo": 120.0
            },
            {
                "start_time": 2.7159091,
                "end_time": 3.2977273,
                "pitch": 23,
                "velocity": 80,
                "duration": 0.5818182,
                "tempo": 120.0
            },
            {
                "start_time": 3.3159091,
                "end_time": 3.6,
                "pitch": 23,
                "velocity": 80,
                "duration": 0.2840909,
                "tempo": 120.0
            },
            {
                "start_time": 3.9181818,
                "end_time": 4.2022727,
                "pitch": 23,
                "velocity": 80,
                "duration": 0.2840909,
                "tempo": 120.0
            },
            {
                "start_time": 4.2204545,
                "end_time": 4.3022727,
                "pitch": 23,
                "velocity": 80,
                "duration": 0.0818182,
                "tempo": 120.0
            },
            {
                "start_time": 4.3204545,
                "end_time": 4.4022727,
                "pitch": 23,
                "velocity": 80,
                "duration": 0.0818182,
                "tempo": 120.0
            },
            {
                "start_time": 4.4204545,
                "end_time": 4.5022727,
                "pitch": 23,
                "velocity": 80,
                "duration": 0.0818182,
                "tempo": 120.0
            },
            {
                "start_time": 4.5204545,
                "end_time": 4.6022727,
                "pitch": 23,
                "velocity": 80,
                "duration": 0.0818182,
                "tempo": 120.0
            },
            {
                "start_time": 4.6204545,
                "end_time": 4.7022727,
                "pitch": 23,
                "velocity": 80,
                "duration": 0.0818182,
                "tempo": 120.0
            },
            {
                "start_time": 4.7204545,
                "end_time": 4.8045455,
                "pitch": 23,
                "velocity": 80,
                "duration": 0.0840909,
                "tempo": 120.0
            },
            {
                "start_time": 5.1227273,
                "end_time": 5.7159091,
                "pitch": 23,
                "velocity": 80,
                "duration": 0.5931818,
                "tempo": 120.0
            },
            {
                "start_time": 5.7340909,
                "end_time": 6.0090909,
                "pitch": 23,
                "velocity": 80,
                "duration": 0.275,
                "tempo": 120.0
            },
            {
                "start_time": 6.3272727,
                "end_time": 6.9204545,
                "pitch": 23,
                "velocity": 80,
                "duration": 0.5931818,
                "tempo": 120.0
            },
            {
                "start_time": 6.9386364,
                "end_time": 7.2136364,
                "pitch": 23,
                "velocity": 80,
                "duration": 0.275,
                "tempo": 120.0
            },
            {
                "start_time": 7.5295455,
                "end_time": 8.125,
                "pitch": 23,
                "velocity": 80,
                "duration": 0.5954545,
                "tempo": 120.0
            },
            {
                "start_time": 8.1431818,
                "end_time": 8.425,
                "pitch": 23,
                "velocity": 80,
                "duration": 0.2818182,
                "tempo": 120.0
            },
            {
                "start_time": 8.7363636,
                "end_time": 9.0272727,
                "pitch": 23,
                "velocity": 80,
                "duration": 0.2909091,
                "tempo": 120.0
            },
            {
                "start_time": 9.0477273,
                "end_time": 9.0613636,
                "pitch": 36,
                "velocity": 101,
                "duration": 0.0136364,
                "tempo": 120.0
            },
            {
                "start_time": 9.0613636,
                "end_time": 9.0954545,
                "pitch": 33,
                "velocity": 101,
                "duration": 0.0340909,
                "tempo": 120.0
            },
            {
                "start_time": 9.0954545,
                "end_time": 9.1272727,
                "pitch": 31,
                "velocity": 101,
                "duration": 0.0318182,
                "tempo": 120.0
            },
            {
                "start_time": 9.1454545,
                "end_time": 9.1613636,
                "pitch": 36,
                "velocity": 101,
                "duration": 0.0159091,
                "tempo": 120.0
            },
            {
                "start_time": 9.1613636,
                "end_time": 9.1954545,
                "pitch": 33,
                "velocity": 101,
                "duration": 0.0340909,
                "tempo": 120.0
            },
            {
                "start_time": 9.1954545,
                "end_time": 9.2295455,
                "pitch": 31,
                "velocity": 101,
                "duration": 0.0340909,
                "tempo": 120.0
            },
            {
                "start_time": 9.2477273,
                "end_time": 9.2613636,
                "pitch": 32,
                "velocity": 101,
                "duration": 0.0136364,
                "tempo": 120.0
            },
            {
                "start_time": 9.2613636,
                "end_time": 9.2954545,
                "pitch": 30,
                "velocity": 101,
                "duration": 0.0340909,
                "tempo": 120.0
            },
            {
                "start_time": 9.2954545,
                "end_time": 9.3295455,
                "pitch": 27,
                "velocity": 101,
                "duration": 0.0340909,
                "tempo": 120.0
            },
            {
                "start_time": 9.3477273,
                "end_time": 9.3613636,
                "pitch": 32,
                "velocity": 101,
                "duration": 0.0136364,
                "tempo": 120.0
            },
            {
                "start_time": 9.2613636,
                "end_time": 9.3613636,
                "pitch": 42,
                "velocity": 101,
                "duration": 0.1,
                "tempo": 120.0
            },
            {
                "start_time": 9.3613636,
                "end_time": 9.3954545,
                "pitch": 30,
                "velocity": 101,
                "duration": 0.0340909,
                "tempo": 120.0
            },
            {
                "start_time": 9.3954545,
                "end_time": 9.4295455,
                "pitch": 27,
                "velocity": 101,
                "duration": 0.0340909,
                "tempo": 120.0
            },
            {
                "start_time": 9.4477273,
                "end_time": 9.4613636,
                "pitch": 28,
                "velocity": 101,
                "duration": 0.0136364,
                "tempo": 120.0
            },
            {
                "start_time": 9.4613636,
                "end_time": 9.4954545,
                "pitch": 26,
                "velocity": 101,
                "duration": 0.0340909,
                "tempo": 120.0
            },
            {
                "start_time": 9.4954545,
                "end_time": 9.5295455,
                "pitch": 23,
                "velocity": 101,
                "duration": 0.0340909,
                "tempo": 120.0
            },
            {
                "start_time": 9.5477273,
                "end_time": 9.5636364,
                "pitch": 28,
                "velocity": 101,
                "duration": 0.0159091,
                "tempo": 120.0
            },
            {
                "start_time": 9.5636364,
                "end_time": 9.5977273,
                "pitch": 26,
                "velocity": 101,
                "duration": 0.0340909,
                "tempo": 120.0
            },
            {
                "start_time": 9.5977273,
                "end_time": 9.6318182,
                "pitch": 23,
                "velocity": 101,
                "duration": 0.0340909,
                "tempo": 120.0
            },
            {
                "start_time": 9.9477273,
                "end_time": 10.5340909,
                "pitch": 23,
                "velocity": 80,
                "duration": 0.5863636,
                "tempo": 120.0
            },
            {
                "start_time": 10.5522727,
                "end_time": 10.8363636,
                "pitch": 23,
                "velocity": 80,
                "duration": 0.2840909,
                "tempo": 120.0
            },
            {
                "start_time": 11.1545455,
                "end_time": 11.6386364,
                "pitch": 23,
                "velocity": 80,
                "duration": 0.4840909,
                "tempo": 120.0
            },
            {
                "start_time": 11.6568182,
                "end_time": 11.6727273,
                "pitch": 32,
                "velocity": 101,
                "duration": 0.0159091,
                "tempo": 120.0
            },
            {
                "start_time": 9.3613636,
                "end_time": 11.6727273,
                "pitch": 42,
                "velocity": 101,
                "duration": 2.3113636,
                "tempo": 120.0
            },
            {
                "start_time": 11.6727273,
                "end_time": 11.7045455,
                "pitch": 30,
                "velocity": 101,
                "duration": 0.0318182,
                "tempo": 120.0
            },
            {
                "start_time": 11.7045455,
                "end_time": 11.7386364,
                "pitch": 27,
                "velocity": 101,
                "duration": 0.0340909,
                "tempo": 120.0
            },
            {
                "start_time": 11.7568182,
                "end_time": 11.7727273,
                "pitch": 32,
                "velocity": 101,
                "duration": 0.0159091,
                "tempo": 120.0
            },
            {
                "start_time": 11.6727273,
                "end_time": 11.7727273,
                "pitch": 42,
                "velocity": 101,
                "duration": 0.1,
                "tempo": 120.0
            },
            {
                "start_time": 11.7727273,
                "end_time": 11.8068182,
                "pitch": 30,
                "velocity": 101,
                "duration": 0.0340909,
                "tempo": 120.0
            },
            {
                "start_time": 11.8068182,
                "end_time": 11.8409091,
                "pitch": 27,
                "velocity": 101,
                "duration": 0.0340909,
                "tempo": 120.0
            },
            {
                "start_time": 11.8568182,
                "end_time": 11.8727273,
                "pitch": 28,
                "velocity": 101,
                "duration": 0.0159091,
                "tempo": 120.0
            },
            {
                "start_time": 11.8727273,
                "end_time": 11.9068182,
                "pitch": 26,
                "velocity": 101,
                "duration": 0.0340909,
                "tempo": 120.0
            },
            {
                "start_time": 11.9068182,
                "end_time": 11.9409091,
                "pitch": 23,
                "velocity": 101,
                "duration": 0.0340909,
                "tempo": 120.0
            },
            {
                "start_time": 11.9568182,
                "end_time": 11.9727273,
                "pitch": 28,
                "velocity": 101,
                "duration": 0.0159091,
                "tempo": 120.0
            },
            {
                "start_time": 11.9727273,
                "end_time": 12.0068182,
                "pitch": 26,
                "velocity": 101,
                "duration": 0.0340909,
                "tempo": 120.0
            },
            {
                "start_time": 12.0068182,
                "end_time": 12.0409091,
                "pitch": 23,
                "velocity": 101,
                "duration": 0.0340909,
                "tempo": 120.0
            },
            {
                "start_time": 12.3590909,
                "end_time": 12.9431818,
                "pitch": 23,
                "velocity": 80,
                "duration": 0.5840909,
                "tempo": 120.0
            },
            {
                "start_time": 12.9613636,
                "end_time": 13.2454545,
                "pitch": 23,
                "velocity": 80,
                "duration": 0.2840909,
                "tempo": 120.0
            },
            {
                "start_time": 13.5659091,
                "end_time": 14.05,
                "pitch": 23,
                "velocity": 80,
                "duration": 0.4840909,
                "tempo": 120.0
            },
            {
                "start_time": 14.0681818,
                "end_time": 14.0818182,
                "pitch": 32,
                "velocity": 101,
                "duration": 0.0136364,
                "tempo": 120.0
            },
            {
                "start_time": 11.7727273,
                "end_time": 14.0818182,
                "pitch": 42,
                "velocity": 101,
                "duration": 2.3090909,
                "tempo": 120.0
            },
            {
                "start_time": 14.0818182,
                "end_time": 14.1159091,
                "pitch": 30,
                "velocity": 101,
                "duration": 0.0340909,
                "tempo": 120.0
            },
            {
                "start_time": 14.1159091,
                "end_time": 14.15,
                "pitch": 27,
                "velocity": 101,
                "duration": 0.0340909,
                "tempo": 120.0
            },
            {
                "start_time": 14.1681818,
                "end_time": 14.1818182,
                "pitch": 32,
                "velocity": 101,
                "duration": 0.0136364,
                "tempo": 120.0
            },
            {
                "start_time": 14.0818182,
                "end_time": 14.1818182,
                "pitch": 42,
                "velocity": 101,
                "duration": 0.1,
                "tempo": 120.0
            },
            {
                "start_time": 14.1818182,
                "end_time": 14.2159091,
                "pitch": 30,
                "velocity": 101,
                "duration": 0.0340909,
                "tempo": 120.0
            },
            {
                "start_time": 14.2159091,
                "end_time": 14.25,
                "pitch": 27,
                "velocity": 101,
                "duration": 0.0340909,
                "tempo": 120.0
            },
            {
                "start_time": 14.2681818,
                "end_time": 14.2818182,
                "pitch": 28,
                "velocity": 101,
                "duration": 0.0136364,
                "tempo": 120.0
            },
            {
                "start_time": 14.2818182,
                "end_time": 14.3159091,
                "pitch": 26,
                "velocity": 101,
                "duration": 0.0340909,
                "tempo": 120.0
            },
            {
                "start_time": 14.3159091,
                "end_time": 14.35,
                "pitch": 23,
                "velocity": 101,
                "duration": 0.0340909,
                "tempo": 120.0
            },
            {
                "start_time": 14.3681818,
                "end_time": 14.3840909,
                "pitch": 28,
                "velocity": 101,
                "duration": 0.0159091,
                "tempo": 120.0
            },
            {
                "start_time": 14.3840909,
                "end_time": 14.4159091,
                "pitch": 26,
                "velocity": 101,
                "duration": 0.0318182,
                "tempo": 120.0
            },
            {
                "start_time": 14.4159091,
                "end_time": 14.45,
                "pitch": 23,
                "velocity": 101,
                "duration": 0.0340909,
                "tempo": 120.0
            },
            {
                "start_time": 14.7704545,
                "end_time": 15.3545455,
                "pitch": 23,
                "velocity": 80,
                "duration": 0.5840909,
                "tempo": 120.0
            },
            {
                "start_time": 15.3727273,
                "end_time": 15.6568182,
                "pitch": 23,
                "velocity": 80,
                "duration": 0.2840909,
                "tempo": 120.0
            },
            {
                "start_time": 15.975,
                "end_time": 16.2590909,
                "pitch": 23,
                "velocity": 80,
                "duration": 0.2840909,
                "tempo": 120.0
            },
            {
                "start_time": 16.2772727,
                "end_time": 16.3613636,
                "pitch": 23,
                "velocity": 80,
                "duration": 0.0840909,
                "tempo": 120.0
            },
            {
                "start_time": 16.3795455,
                "end_time": 16.4659091,
                "pitch": 23,
                "velocity": 80,
                "duration": 0.0863636,
                "tempo": 120.0
            },
            {
                "start_time": 16.4840909,
                "end_time": 16.5681818,
                "pitch": 23,
                "velocity": 80,
                "duration": 0.0840909,
                "tempo": 120.0
            },
            {
                "start_time": 16.5863636,
                "end_time": 16.6704545,
                "pitch": 23,
                "velocity": 80,
                "duration": 0.0840909,
                "tempo": 120.0
            },
            {
                "start_time": 16.6886364,
                "end_time": 16.7704545,
                "pitch": 23,
                "velocity": 80,
                "duration": 0.0818182,
                "tempo": 120.0
            },
            {
                "start_time": 16.7886364,
                "end_time": 16.8727273,
                "pitch": 23,
                "velocity": 80,
                "duration": 0.0840909,
                "tempo": 120.0
            },
            {
                "start_time": 17.1909091,
                "end_time": 17.775,
                "pitch": 23,
                "velocity": 80,
                "duration": 0.5840909,
                "tempo": 120.0
            },
            {
                "start_time": 17.7931818,
                "end_time": 18.0772727,
                "pitch": 23,
                "velocity": 80,
                "duration": 0.2840909,
                "tempo": 120.0
            },
            {
                "start_time": 18.3977273,
                "end_time": 18.6795455,
                "pitch": 23,
                "velocity": 80,
                "duration": 0.2818182,
                "tempo": 120.0
            },
            {
                "start_time": 18.7,
                "end_time": 18.7136364,
                "pitch": 36,
                "velocity": 101,
                "duration": 0.0136364,
                "tempo": 120.0
            },
            {
                "start_time": 18.7136364,
                "end_time": 18.7477273,
                "pitch": 33,
                "velocity": 101,
                "duration": 0.0340909,
                "tempo": 120.0
            },
            {
                "start_time": 18.7477273,
                "end_time": 18.7795455,
                "pitch": 31,
                "velocity": 101,
                "duration": 0.0318182,
                "tempo": 120.0
            },
            {
                "start_time": 18.7977273,
                "end_time": 18.8136364,
                "pitch": 36,
                "velocity": 101,
                "duration": 0.0159091,
                "tempo": 120.0
            },
            {
                "start_time": 18.8136364,
                "end_time": 18.8477273,
                "pitch": 33,
                "velocity": 101,
                "duration": 0.0340909,
                "tempo": 120.0
            },
            {
                "start_time": 18.8477273,
                "end_time": 18.8818182,
                "pitch": 31,
                "velocity": 101,
                "duration": 0.0340909,
                "tempo": 120.0
            },
            {
                "start_time": 18.9,
                "end_time": 18.9136364,
                "pitch": 32,
                "velocity": 101,
                "duration": 0.0136364,
                "tempo": 120.0
            },
            {
                "start_time": 14.1818182,
                "end_time": 18.9136364,
                "pitch": 42,
                "velocity": 101,
                "duration": 4.7318182,
                "tempo": 120.0
            },
            {
                "start_time": 18.9136364,
                "end_time": 18.9477273,
                "pitch": 30,
                "velocity": 101,
                "duration": 0.0340909,
                "tempo": 120.0
            },
            {
                "start_time": 18.9477273,
                "end_time": 18.9818182,
                "pitch": 27,
                "velocity": 101,
                "duration": 0.0340909,
                "tempo": 120.0
            },
            {
                "start_time": 19.0,
                "end_time": 19.0159091,
                "pitch": 32,
                "velocity": 101,
                "duration": 0.0159091,
                "tempo": 120.0
            },
            {
                "start_time": 18.9136364,
                "end_time": 19.0159091,
                "pitch": 42,
                "velocity": 101,
                "duration": 0.1022727,
                "tempo": 120.0
            },
            {
                "start_time": 19.0159091,
                "end_time": 19.05,
                "pitch": 30,
                "velocity": 101,
                "duration": 0.0340909,
                "tempo": 120.0
            },
            {
                "start_time": 19.05,
                "end_time": 19.0818182,
                "pitch": 27,
                "velocity": 101,
                "duration": 0.0318182,
                "tempo": 120.0
            },
            {
                "start_time": 19.1,
                "end_time": 19.1159091,
                "pitch": 28,
                "velocity": 101,
                "duration": 0.0159091,
                "tempo": 120.0
            },
            {
                "start_time": 19.1159091,
                "end_time": 19.15,
                "pitch": 26,
                "velocity": 101,
                "duration": 0.0340909,
                "tempo": 120.0
            },
            {
                "start_time": 19.15,
                "end_time": 19.1840909,
                "pitch": 23,
                "velocity": 101,
                "duration": 0.0340909,
                "tempo": 120.0
            },
            {
                "start_time": 19.2,
                "end_time": 19.2159091,
                "pitch": 28,
                "velocity": 101,
                "duration": 0.0159091,
                "tempo": 120.0
            },
            {
                "start_time": 19.2159091,
                "end_time": 19.25,
                "pitch": 26,
                "velocity": 101,
                "duration": 0.0340909,
                "tempo": 120.0
            },
            {
                "start_time": 19.25,
                "end_time": 19.2840909,
                "pitch": 23,
                "velocity": 101,
                "duration": 0.0340909,
                "tempo": 120.0
            },
            {
                "start_time": 19.6045455,
                "end_time": 20.1977273,
                "pitch": 23,
                "velocity": 80,
                "duration": 0.5931818,
                "tempo": 120.0
            },
            {
                "start_time": 20.2159091,
                "end_time": 20.4909091,
                "pitch": 23,
                "velocity": 80,
                "duration": 0.275,
                "tempo": 120.0
            },
            {
                "start_time": 20.8090909,
                "end_time": 21.0954545,
                "pitch": 23,
                "velocity": 80,
                "duration": 0.2863636,
                "tempo": 120.0
            },
            {
                "start_time": 21.1136364,
                "end_time": 21.1954545,
                "pitch": 23,
                "velocity": 80,
                "duration": 0.0818182,
                "tempo": 120.0
            },
            {
                "start_time": 21.2113636,
                "end_time": 21.2954545,
                "pitch": 23,
                "velocity": 80,
                "duration": 0.0840909,
                "tempo": 120.0
            },
            {
                "start_time": 21.3136364,
                "end_time": 21.3954545,
                "pitch": 23,
                "velocity": 80,
                "duration": 0.0818182,
                "tempo": 120.0
            },
            {
                "start_time": 21.4136364,
                "end_time": 21.4954545,
                "pitch": 23,
                "velocity": 80,
                "duration": 0.0818182,
                "tempo": 120.0
            },
            {
                "start_time": 21.5136364,
                "end_time": 21.5954545,
                "pitch": 23,
                "velocity": 80,
                "duration": 0.0818182,
                "tempo": 120.0
            },
            {
                "start_time": 21.6136364,
                "end_time": 21.6977273,
                "pitch": 23,
                "velocity": 80,
                "duration": 0.0840909,
                "tempo": 120.0
            },
            {
                "start_time": 22.0159091,
                "end_time": 22.6022727,
                "pitch": 23,
                "velocity": 80,
                "duration": 0.5863636,
                "tempo": 120.0
            },
            {
                "start_time": 22.6204545,
                "end_time": 22.9045455,
                "pitch": 23,
                "velocity": 80,
                "duration": 0.2840909,
                "tempo": 120.0
            },
            {
                "start_time": 23.2227273,
                "end_time": 23.7068182,
                "pitch": 23,
                "velocity": 80,
                "duration": 0.4840909,
                "tempo": 120.0
            },
            {
                "start_time": 23.725,
                "end_time": 23.8090909,
                "pitch": 23,
                "velocity": 80,
                "duration": 0.0840909,
                "tempo": 120.0
            },
            {
                "start_time": 23.825,
                "end_time": 23.9113636,
                "pitch": 23,
                "velocity": 80,
                "duration": 0.0863636,
                "tempo": 120.0
            },
            {
                "start_time": 23.9318182,
                "end_time": 23.9454545,
                "pitch": 32,
                "velocity": 101,
                "duration": 0.0136364,
                "tempo": 120.0
            },
            {
                "start_time": 19.0159091,
                "end_time": 23.9454545,
                "pitch": 42,
                "velocity": 101,
                "duration": 4.9295455,
                "tempo": 120.0
            },
            {
                "start_time": 23.9454545,
                "end_time": 23.9795455,
                "pitch": 30,
                "velocity": 101,
                "duration": 0.0340909,
                "tempo": 120.0
            },
            {
                "start_time": 23.9795455,
                "end_time": 24.0159091,
                "pitch": 27,
                "velocity": 101,
                "duration": 0.0363636,
                "tempo": 120.0
            },
            {
                "start_time": 24.0340909,
                "end_time": 24.05,
                "pitch": 32,
                "velocity": 101,
                "duration": 0.0159091,
                "tempo": 120.0
            },
            {
                "start_time": 23.9454545,
                "end_time": 24.05,
                "pitch": 42,
                "velocity": 101,
                "duration": 0.1045455,
                "tempo": 120.0
            },
            {
                "start_time": 24.05,
                "end_time": 24.0840909,
                "pitch": 30,
                "velocity": 101,
                "duration": 0.0340909,
                "tempo": 120.0
            },
            {
                "start_time": 24.0840909,
                "end_time": 24.1181818,
                "pitch": 27,
                "velocity": 101,
                "duration": 0.0340909,
                "tempo": 120.0
            },
            {
                "start_time": 24.1386364,
                "end_time": 24.1522727,
                "pitch": 28,
                "velocity": 101,
                "duration": 0.0136364,
                "tempo": 120.0
            },
            {
                "start_time": 24.1522727,
                "end_time": 24.1704545,
                "pitch": 26,
                "velocity": 101,
                "duration": 0.0181818,
                "tempo": 120.0
            },
            {
                "start_time": 24.1863636,
                "end_time": 24.2022727,
                "pitch": 28,
                "velocity": 101,
                "duration": 0.0159091,
                "tempo": 120.0
            },
            {
                "start_time": 24.2022727,
                "end_time": 24.2204545,
                "pitch": 26,
                "velocity": 101,
                "duration": 0.0181818,
                "tempo": 120.0
            },
            {
                "start_time": 24.2386364,
                "end_time": 24.2522727,
                "pitch": 28,
                "velocity": 101,
                "duration": 0.0136364,
                "tempo": 120.0
            },
            {
                "start_time": 24.2522727,
                "end_time": 24.2863636,
                "pitch": 26,
                "velocity": 101,
                "duration": 0.0340909,
                "tempo": 120.0
            },
            {
                "start_time": 24.2863636,
                "end_time": 24.3204545,
                "pitch": 23,
                "velocity": 101,
                "duration": 0.0340909,
                "tempo": 120.0
            },
            {
                "start_time": 24.3386364,
                "end_time": 24.3545455,
                "pitch": 28,
                "velocity": 101,
                "duration": 0.0159091,
                "tempo": 120.0
            },
            {
                "start_time": 24.3545455,
                "end_time": 24.3886364,
                "pitch": 26,
                "velocity": 101,
                "duration": 0.0340909,
                "tempo": 120.0
            },
            {
                "start_time": 24.3886364,
                "end_time": 24.4204545,
                "pitch": 23,
                "velocity": 101,
                "duration": 0.0318182,
                "tempo": 120.0
            },
            {
                "start_time": 24.4386364,
                "end_time": 24.4545455,
                "pitch": 28,
                "velocity": 101,
                "duration": 0.0159091,
                "tempo": 120.0
            },
            {
                "start_time": 24.4545455,
                "end_time": 24.4886364,
                "pitch": 26,
                "velocity": 101,
                "duration": 0.0340909,
                "tempo": 120.0
            },
            {
                "start_time": 24.4886364,
                "end_time": 24.5227273,
                "pitch": 23,
                "velocity": 101,
                "duration": 0.0340909,
                "tempo": 120.0
            },
            {
                "start_time": 24.5409091,
                "end_time": 24.5545455,
                "pitch": 28,
                "velocity": 101,
                "duration": 0.0136364,
                "tempo": 120.0
            },
            {
                "start_time": 24.5545455,
                "end_time": 24.5886364,
                "pitch": 26,
                "velocity": 101,
                "duration": 0.0340909,
                "tempo": 120.0
            },
            {
                "start_time": 24.5886364,
                "end_time": 24.6227273,
                "pitch": 23,
                "velocity": 101,
                "duration": 0.0340909,
                "tempo": 120.0
            },
            {
                "start_time": 24.6409091,
                "end_time": 24.6545455,
                "pitch": 28,
                "velocity": 101,
                "duration": 0.0136364,
                "tempo": 120.0
            },
            {
                "start_time": 24.6545455,
                "end_time": 24.6909091,
                "pitch": 26,
                "velocity": 101,
                "duration": 0.0363636,
                "tempo": 120.0
            },
            {
                "start_time": 24.6909091,
                "end_time": 24.7227273,
                "pitch": 23,
                "velocity": 101,
                "duration": 0.0318182,
                "tempo": 120.0
            },
            {
                "start_time": 24.7409091,
                "end_time": 24.7568182,
                "pitch": 32,
                "velocity": 101,
                "duration": 0.0159091,
                "tempo": 120.0
            },
            {
                "start_time": 24.05,
                "end_time": 24.7568182,
                "pitch": 42,
                "velocity": 101,
                "duration": 0.7068182,
                "tempo": 120.0
            },
            {
                "start_time": 24.7568182,
                "end_time": 24.7727273,
                "pitch": 30,
                "velocity": 101,
                "duration": 0.0159091,
                "tempo": 120.0
            },
            {
                "start_time": 24.7909091,
                "end_time": 24.8068182,
                "pitch": 32,
                "velocity": 101,
                "duration": 0.0159091,
                "tempo": 120.0
            },
            {
                "start_time": 24.7568182,
                "end_time": 24.8068182,
                "pitch": 42,
                "velocity": 101,
                "duration": 0.05,
                "tempo": 120.0
            },
            {
                "start_time": 24.8068182,
                "end_time": 24.825,
                "pitch": 30,
                "velocity": 101,
                "duration": 0.0181818,
                "tempo": 120.0
            },
            {
                "start_time": 24.8431818,
                "end_time": 24.8568182,
                "pitch": 32,
                "velocity": 101,
                "duration": 0.0136364,
                "tempo": 120.0
            },
            {
                "start_time": 24.8068182,
                "end_time": 24.8568182,
                "pitch": 42,
                "velocity": 101,
                "duration": 0.05,
                "tempo": 120.0
            },
            {
                "start_time": 24.8568182,
                "end_time": 24.8909091,
                "pitch": 30,
                "velocity": 101,
                "duration": 0.0340909,
                "tempo": 120.0
            },
            {
                "start_time": 24.8909091,
                "end_time": 24.925,
                "pitch": 27,
                "velocity": 101,
                "duration": 0.0340909,
                "tempo": 120.0
            },
            {
                "start_time": 24.9431818,
                "end_time": 24.9568182,
                "pitch": 32,
                "velocity": 101,
                "duration": 0.0136364,
                "tempo": 120.0
            },
            {
                "start_time": 24.8568182,
                "end_time": 24.9568182,
                "pitch": 42,
                "velocity": 101,
                "duration": 0.1,
                "tempo": 120.0
            },
            {
                "start_time": 24.9568182,
                "end_time": 24.9909091,
                "pitch": 30,
                "velocity": 101,
                "duration": 0.0340909,
                "tempo": 120.0
            },
            {
                "start_time": 24.9909091,
                "end_time": 25.025,
                "pitch": 27,
                "velocity": 101,
                "duration": 0.0340909,
                "tempo": 120.0
            },
            {
                "start_time": 25.0431818,
                "end_time": 25.0590909,
                "pitch": 32,
                "velocity": 101,
                "duration": 0.0159091,
                "tempo": 120.0
            },
            {
                "start_time": 24.9568182,
                "end_time": 25.0590909,
                "pitch": 42,
                "velocity": 101,
                "duration": 0.1022727,
                "tempo": 120.0
            },
            {
                "start_time": 25.0590909,
                "end_time": 25.0931818,
                "pitch": 30,
                "velocity": 101,
                "duration": 0.0340909,
                "tempo": 120.0
            },
            {
                "start_time": 25.0931818,
                "end_time": 25.125,
                "pitch": 27,
                "velocity": 101,
                "duration": 0.0318182,
                "tempo": 120.0
            },
            {
                "start_time": 25.1431818,
                "end_time": 25.1590909,
                "pitch": 32,
                "velocity": 101,
                "duration": 0.0159091,
                "tempo": 120.0
            },
            {
                "start_time": 25.0590909,
                "end_time": 25.1590909,
                "pitch": 42,
                "velocity": 101,
                "duration": 0.1,
                "tempo": 120.0
            },
            {
                "start_time": 25.1590909,
                "end_time": 25.1931818,
                "pitch": 30,
                "velocity": 101,
                "duration": 0.0340909,
                "tempo": 120.0
            },
            {
                "start_time": 25.1931818,
                "end_time": 25.2272727,
                "pitch": 27,
                "velocity": 101,
                "duration": 0.0340909,
                "tempo": 120.0
            },
            {
                "start_time": 25.2454545,
                "end_time": 25.2590909,
                "pitch": 32,
                "velocity": 101,
                "duration": 0.0136364,
                "tempo": 120.0
            },
            {
                "start_time": 25.1590909,
                "end_time": 25.2590909,
                "pitch": 42,
                "velocity": 101,
                "duration": 0.1,
                "tempo": 120.0
            },
            {
                "start_time": 25.2590909,
                "end_time": 25.2931818,
                "pitch": 30,
                "velocity": 101,
                "duration": 0.0340909,
                "tempo": 120.0
            },
            {
                "start_time": 25.2931818,
                "end_time": 25.3272727,
                "pitch": 27,
                "velocity": 101,
                "duration": 0.0340909,
                "tempo": 120.0
            },
            {
                "start_time": 25.3454545,
                "end_time": 25.4272727,
                "pitch": 23,
                "velocity": 80,
                "duration": 0.0818182,
                "tempo": 120.0
            },
            {
                "start_time": 25.4454545,
                "end_time": 25.5272727,
                "pitch": 23,
                "velocity": 80,
                "duration": 0.0818182,
                "tempo": 120.0
            },
            {
                "start_time": 25.5454545,
                "end_time": 25.6272727,
                "pitch": 23,
                "velocity": 80,
                "duration": 0.0818182,
                "tempo": 120.0
            },
            {
                "start_time": 25.6454545,
                "end_time": 25.7272727,
                "pitch": 23,
                "velocity": 80,
                "duration": 0.0818182,
                "tempo": 120.0
            },
            {
                "start_time": 25.7454545,
                "end_time": 25.8295455,
                "pitch": 23,
                "velocity": 80,
                "duration": 0.0840909,
                "tempo": 120.0
            },
            {
                "start_time": 25.8477273,
                "end_time": 25.9295455,
                "pitch": 23,
                "velocity": 80,
                "duration": 0.0818182,
                "tempo": 120.0
            },
            {
                "start_time": 25.9477273,
                "end_time": 25.9613636,
                "pitch": 28,
                "velocity": 101,
                "duration": 0.0136364,
                "tempo": 120.0
            },
            {
                "start_time": 25.9613636,
                "end_time": 25.9954545,
                "pitch": 26,
                "velocity": 101,
                "duration": 0.0340909,
                "tempo": 120.0
            },
            {
                "start_time": 25.9954545,
                "end_time": 26.0295455,
                "pitch": 23,
                "velocity": 101,
                "duration": 0.0340909,
                "tempo": 120.0
            },
            {
                "start_time": 26.0477273,
                "end_time": 26.0636364,
                "pitch": 28,
                "velocity": 101,
                "duration": 0.0159091,
                "tempo": 120.0
            },
            {
                "start_time": 26.0636364,
                "end_time": 26.0977273,
                "pitch": 26,
                "velocity": 101,
                "duration": 0.0340909,
                "tempo": 120.0
            },
            {
                "start_time": 26.0977273,
                "end_time": 26.1318182,
                "pitch": 23,
                "velocity": 101,
                "duration": 0.0340909,
                "tempo": 120.0
            },
            {
                "start_time": 26.1477273,
                "end_time": 26.1636364,
                "pitch": 28,
                "velocity": 101,
                "duration": 0.0159091,
                "tempo": 120.0
            },
            {
                "start_time": 26.1636364,
                "end_time": 26.1977273,
                "pitch": 26,
                "velocity": 101,
                "duration": 0.0340909,
                "tempo": 120.0
            },
            {
                "start_time": 26.1977273,
                "end_time": 26.2318182,
                "pitch": 23,
                "velocity": 101,
                "duration": 0.0340909,
                "tempo": 120.0
            },
            {
                "start_time": 26.25,
                "end_time": 26.2636364,
                "pitch": 32,
                "velocity": 101,
                "duration": 0.0136364,
                "tempo": 120.0
            },
            {
                "start_time": 25.2590909,
                "end_time": 26.2636364,
                "pitch": 42,
                "velocity": 101,
                "duration": 1.0045455,
                "tempo": 120.0
            },
            {
                "start_time": 26.2636364,
                "end_time": 26.2977273,
                "pitch": 30,
                "velocity": 101,
                "duration": 0.0340909,
                "tempo": 120.0
            },
            {
                "start_time": 26.2977273,
                "end_time": 26.3318182,
                "pitch": 27,
                "velocity": 101,
                "duration": 0.0340909,
                "tempo": 120.0
            },
            {
                "start_time": 26.35,
                "end_time": 26.3659091,
                "pitch": 32,
                "velocity": 101,
                "duration": 0.0159091,
                "tempo": 120.0
            },
            {
                "start_time": 26.2636364,
                "end_time": 26.3659091,
                "pitch": 42,
                "velocity": 101,
                "duration": 0.1022727,
                "tempo": 120.0
            },
            {
                "start_time": 26.3659091,
                "end_time": 26.4,
                "pitch": 30,
                "velocity": 101,
                "duration": 0.0340909,
                "tempo": 120.0
            },
            {
                "start_time": 26.4,
                "end_time": 26.4318182,
                "pitch": 27,
                "velocity": 101,
                "duration": 0.0318182,
                "tempo": 120.0
            },
            {
                "start_time": 26.45,
                "end_time": 26.4659091,
                "pitch": 32,
                "velocity": 101,
                "duration": 0.0159091,
                "tempo": 120.0
            },
            {
                "start_time": 26.3659091,
                "end_time": 26.4659091,
                "pitch": 42,
                "velocity": 101,
                "duration": 0.1,
                "tempo": 120.0
            },
            {
                "start_time": 26.4659091,
                "end_time": 26.5,
                "pitch": 30,
                "velocity": 101,
                "duration": 0.0340909,
                "tempo": 120.0
            },
            {
                "start_time": 26.5,
                "end_time": 26.5340909,
                "pitch": 27,
                "velocity": 101,
                "duration": 0.0340909,
                "tempo": 120.0
            },
            {
                "start_time": 26.5522727,
                "end_time": 26.5818182,
                "pitch": 23,
                "velocity": 80,
                "duration": 0.0295455,
                "tempo": 120.0
            },
            {
                "start_time": 26.6,
                "end_time": 26.6340909,
                "pitch": 23,
                "velocity": 80,
                "duration": 0.0340909,
                "tempo": 120.0
            },
            {
                "start_time": 26.65,
                "end_time": 26.7340909,
                "pitch": 23,
                "velocity": 80,
                "duration": 0.0840909,
                "tempo": 120.0
            },
            {
                "start_time": 26.75,
                "end_time": 26.8340909,
                "pitch": 23,
                "velocity": 80,
                "duration": 0.0840909,
                "tempo": 120.0
            },
            {
                "start_time": 26.8522727,
                "end_time": 26.9363636,
                "pitch": 23,
                "velocity": 80,
                "duration": 0.0840909,
                "tempo": 120.0
            },
            {
                "start_time": 26.9545455,
                "end_time": 27.0340909,
                "pitch": 23,
                "velocity": 80,
                "duration": 0.0795455,
                "tempo": 120.0
            },
            {
                "start_time": 27.0545455,
                "end_time": 27.1340909,
                "pitch": 23,
                "velocity": 80,
                "duration": 0.0795455,
                "tempo": 120.0
            },
            {
                "start_time": 27.1545455,
                "end_time": 27.1840909,
                "pitch": 15,
                "velocity": 101,
                "duration": 0.0295455,
                "tempo": 120.0
            },
            {
                "start_time": 27.2022727,
                "end_time": 27.2363636,
                "pitch": 15,
                "velocity": 101,
                "duration": 0.0340909,
                "tempo": 120.0
            },
            {
                "start_time": 27.2545455,
                "end_time": 27.2863636,
                "pitch": 15,
                "velocity": 101,
                "duration": 0.0318182,
                "tempo": 120.0
            },
            {
                "start_time": 27.2863636,
                "end_time": 27.3204545,
                "pitch": 12,
                "velocity": 101,
                "duration": 0.0340909,
                "tempo": 120.0
            },
            {
                "start_time": 27.3204545,
                "end_time": 27.3363636,
                "pitch": 9,
                "velocity": 101,
                "duration": 0.0159091,
                "tempo": 120.0
            },
            {
                "start_time": 27.3545455,
                "end_time": 27.3863636,
                "pitch": 15,
                "velocity": 101,
                "duration": 0.0318182,
                "tempo": 120.0
            },
            {
                "start_time": 27.3863636,
                "end_time": 27.4204545,
                "pitch": 12,
                "velocity": 101,
                "duration": 0.0340909,
                "tempo": 120.0
            },
            {
                "start_time": 27.4204545,
                "end_time": 27.4363636,
                "pitch": 9,
                "velocity": 101,
                "duration": 0.0159091,
                "tempo": 120.0
            },
            {
                "start_time": 27.4568182,
                "end_time": 27.4863636,
                "pitch": 15,
                "velocity": 101,
                "duration": 0.0295455,
                "tempo": 120.0
            },
            {
                "start_time": 27.4863636,
                "end_time": 27.5204545,
                "pitch": 12,
                "velocity": 101,
                "duration": 0.0340909,
                "tempo": 120.0
            },
            {
                "start_time": 27.5204545,
                "end_time": 27.5363636,
                "pitch": 9,
                "velocity": 101,
                "duration": 0.0159091,
                "tempo": 120.0
            },
            {
                "start_time": 27.5568182,
                "end_time": 27.5886364,
                "pitch": 15,
                "velocity": 101,
                "duration": 0.0318182,
                "tempo": 120.0
            },
            {
                "start_time": 27.5886364,
                "end_time": 27.6204545,
                "pitch": 12,
                "velocity": 101,
                "duration": 0.0318182,
                "tempo": 120.0
            },
            {
                "start_time": 27.6204545,
                "end_time": 27.6386364,
                "pitch": 9,
                "velocity": 101,
                "duration": 0.0181818,
                "tempo": 120.0
            },
            {
                "start_time": 27.6568182,
                "end_time": 27.6886364,
                "pitch": 15,
                "velocity": 101,
                "duration": 0.0318182,
                "tempo": 120.0
            },
            {
                "start_time": 27.6886364,
                "end_time": 27.7227273,
                "pitch": 12,
                "velocity": 101,
                "duration": 0.0340909,
                "tempo": 120.0
            },
            {
                "start_time": 27.7227273,
                "end_time": 27.7386364,
                "pitch": 9,
                "velocity": 101,
                "duration": 0.0159091,
                "tempo": 120.0
            }
        ]
    }
}