{
    "mood": "sad",
    "instruments": {
        "Trumpet": [
            {
                "start_time": 0.0,
                "end_time": 0.0772727,
                "pitch": 53,
                "velocity": 101,
                "duration": 0.0772727,
                "tempo": 120.0
            },
            {
                "start_time": 0.0931818,
                "end_time": 0.1704545,
                "pitch": 53,
                "velocity": 101,
                "duration": 0.0772727,
                "tempo": 120.0
            },
            {
                "start_time": 0.2954545,
                "end_time": 0.3795455,
                "pitch": 53,
                "velocity": 101,
                "duration": 0.0840909,
                "tempo": 120.0
            },
            {
                "start_time": 0.3954545,
                "end_time": 0.4954545,
                "pitch": 53,
                "velocity": 101,
                "duration": 0.1,
                "tempo": 120.0
            },
            {
                "start_time": 0.6136364,
                "end_time": 0.6977273,
                "pitch": 53,
                "velocity": 101,
                "duration": 0.0840909,
                "tempo": 120.0
            },
            {
                "start_time": 0.7136364,
                "end_time": 0.8136364,
                "pitch": 53,
                "velocity": 101,
                "duration": 0.1,
                "tempo": 120.0
            },
            {
                "start_time": 0.9318182,
                "end_time": 1.0318182,
                "pitch": 53,
                "velocity": 101,
                "duration": 0.1,
                "tempo": 120.0
            },
            {
                "start_time": 1.0477273,
                "end_time": 1.1318182,
                "pitch": 53,
                "velocity": 101,
                "duration": 0.0840909,
                "tempo": 120.0
            },
            {
                "start_time": 1.1477273,
                "end_time": 1.25,
                "pitch": 53,
                "velocity": 101,
                "duration": 0.1022727,
                "tempo": 120.0
            },
            {
                "start_time": 1.3659091,
                "end_time": 1.45,
                "pitch": 53,
                "velocity": 101,
                "duration": 0.0840909,
                "tempo": 120.0
            },
            {
                "start_time": 1.5840909,
                "end_time": 1.6681818,
                "pitch": 53,
                "velocity": 101,
                "duration": 0.0840909,
                "tempo": 120.0
            },
            {
                "start_time": 1.6840909,
                "end_time": 1.7840909,
                "pitch": 53,
                "velocity": 101,
                "duration": 0.1,
                "tempo": 120.0
            },
            {
                "start_time": 1.8,
                "end_time": 1.8840909,
                "pitch": 53,
                "velocity": 101,
                "duration": 0.0840909,
                "tempo": 120.0
            },
            {
                "start_time": 2.0181818,
                "end_time": 2.1022727,
                "pitch": 53,
                "velocity": 101,
                "duration": 0.0840909,
                "tempo": 120.0
            },
            {
                "start_time": 2.1181818,
                "end_time": 2.2022727,
                "pitch": 53,
                "velocity": 101,
                "duration": 0.0840909,
                "tempo": 120.0
            },
            {
                "start_time": 2.3363636,
                "end_time": 2.4204545,
                "pitch": 53,
                "velocity": 101,
                "duration": 0.0840909,
                "tempo": 120.0
            },
            {
                "start_time": 2.4363636,
                "end_time": 2.5363636,
                "pitch": 53,
                "velocity": 101,
                "duration": 0.1,
                "tempo": 120.0
            },
            {
                "start_time": 2.6545455,
                "end_time": 2.7545455,
                "pitch": 53,
                "velocity": 101,
                "duration": 0.1,
                "tempo": 120.0
            },
            {
                "start_time": 2.7727273,
                "end_time": 2.8545455,
                "pitch": 53,
                "velocity": 101,
                "duration": 0.0818182,
                "tempo": 120.0
            },
            {
                "start_time": 2.8727273,
                "end_time": 2.9568182,
                "pitch": 53,
                "velocity": 101,
                "duration": 0.0840909,
                "tempo": 120.0
            },
            {
                "start_time": 3.0886364,
                "end_time": 3.1727273,
                "pitch": 53,
                "velocity": 101,
                "duration": 0.0840909,
                "tempo": 120.0
            },
            {
                "start_time": 3.3068182,
                "end_time": 3.3886364,
                "pitch": 53,
                "velocity": 101,
                "duration": 0.0818182,
                "tempo": 120.0
            },
            {
                "start_time": 3.4045455,
                "end_time": 3.5045455,
                "pitch": 53,
                "velocity": 101,
                "duration": 0.1,
                "tempo": 120.0
            },
            {
                "start_time": 3.5204545,
                "end_time": 3.6022727,
                "pitch": 53,
                "velocity": 101,
                "duration": 0.0818182,
                "tempo": 120.0
            },
            {
                "start_time": 3.6181818,
                "end_time": 3.7,
                "pitch": 65,
                "velocity": 101,
                "duration": 0.0818182,
                "tempo": 120.0
            },
            {
                "start_time": 3.7159091,
                "end_time": 3.8136364,
                "pitch": 53,
                "velocity": 101,
                "duration": 0.0977273,
                "tempo": 120.0
            },
            {
                "start_time": 3.8318182,
                "end_time": 3.9136364,
                "pitch": 53,
                "velocity": 101,
                "duration": 0.0818182,
                "tempo": 120.0
            },
            {
                "start_time": 3.9295455,
                "end_time": 4.0272727,
                "pitch": 67,
                "velocity": 101,
                "duration": 0.0977273,
                "tempo": 120.0
            },
            {
                "start_time": 4.0431818,
                "end_time": 4.125,
                "pitch": 53,
                "velocity": 101,
                "duration": 0.0818182,
                "tempo": 120.0
            },
            {
                "start_time": 4.1431818,
                "end_time": 4.2454545,
                "pitch": 53,
                "velocity": 101,
                "duration": 0.1022727,
                "tempo": 120.0
            },
            {
                "start_time": 4.2613636,
                "end_time": 4.3477273,
                "pitch": 60,
                "velocity": 101,
                "duration": 0.0863636,
                "tempo": 120.0
            },
            {
                "start_time": 4.3636364,
                "end_time": 4.45,
                "pitch": 53,
                "velocity": 101,
                "duration": 0.0863636,
                "tempo": 120.0
            },
            {
                "start_time": 4.4681818,
                "end_time": 4.5704545,
                "pitch": 53,
                "velocity": 101,
                "duration": 0.1022727,
                "tempo": 120.0
            },
            {
                "start_time": 4.5863636,
                "end_time": 4.7886364,
                "pitch": 56,
                "velocity": 101,
                "duration": 0.2022727,
                "tempo": 120.0
            },
            {
                "start_time": 4.8045455,
                "end_time": 4.8886364,
                "pitch": 58,
                "velocity": 101,
                "duration": 0.0840909,
                "tempo": 120.0
            },
            {
                "start_time": 4.9045455,
                "end_time": 5.0045455,
                "pitch": 55,
                "velocity": 101,
                "duration": 0.1,
                "tempo": 120.0
            },
            {
                "start_time": 5.0227273,
                "end_time": 5.1045455,
                "pitch": 56,
                "velocity": 101,
                "duration": 0.0818182,
                "tempo": 120.0
            },
            {
                "start_time": 5.1227273,
                "end_time": 5.2068182,
                "pitch": 53,
                "velocity": 101,
                "duration": 0.0840909,
                "tempo": 120.0
            },
            {
                "start_time": 5.2227273,
                "end_time": 5.3227273,
                "pitch": 53,
                "velocity": 101,
                "duration": 0.1,
                "tempo": 120.0
            },
            {
                "start_time": 5.3409091,
                "end_time": 5.4227273,
                "pitch": 65,
                "velocity": 101,
                "duration": 0.0818182,
                "tempo": 120.0
            },
            {
                "start_time": 5.4409091,
                "end_time": 5.5386364,
                "pitch": 53,
                "velocity": 101,
                "duration": 0.0977273,
                "tempo": 120.0
            },
            {
                "start_time": 5.5545455,
                "end_time": 5.6363636,
                "pitch": 53,
                "velocity": 101,
                "duration": 0.0818182,
                "tempo": 120.0
            },
            {
                "start_time": 5.6522727,
                "end_time": 5.7522727,
                "pitch": 67,
                "velocity": 101,
                "duration": 0.1,
                "tempo": 120.0
            },
            {
                "start_time": 5.7681818,
                "end_time": 5.85,
                "pitch": 53,
                "velocity": 101,
                "duration": 0.0818182,
                "tempo": 120.0
            },
            {
                "start_time": 5.8659091,
                "end_time": 6.0704545,
                "pitch": 70,
                "velocity": 101,
                "duration": 0.2045455,
                "tempo": 120.0
            },
            {
                "start_time": 6.0886364,
                "end_time": 6.1727273,
                "pitch": 68,
                "velocity": 101,
                "duration": 0.0840909,
                "tempo": 120.0
            },
            {
                "start_time": 6.1909091,
                "end_time": 6.2931818,
                "pitch": 67,
                "velocity": 101,
                "duration": 0.1022727,
                "tempo": 120.0
            },
            {
                "start_time": 6.3113636,
                "end_time": 6.5113636,
                "pitch": 65,
                "velocity": 101,
                "duration": 0.2,
                "tempo": 120.0
            },
            {
                "start_time": 6.5272727,
                "end_time": 6.6113636,
                "pitch": 67,
                "velocity": 101,
                "duration": 0.0840909,
                "tempo": 120.0
            },
            {
                "start_time": 6.6295455,
                "end_time": 6.7113636,
                "pitch": 60,
                "velocity": 101,
                "duration": 0.0818182,
                "tempo": 120.0
            },
            {
                "start_time": 6.7295455,
                "end_time": 6.825,
                "pitch": 63,
                "velocity": 101,
                "duration": 0.0954545,
                "tempo": 120.0
            },
            {
                "start_time": 6.8409091,
                "end_time": 6.9204545,
                "pitch": 53,
                "velocity": 101,
                "duration": 0.0795455,
                "tempo": 120.0
            },
            {
                "start_time": 6.9363636,
                "end_time": 7.0318182,
                "pitch": 53,
                "velocity": 101,
                "duration": 0.0954545,
                "tempo": 120.0
            },
            {
                "start_time": 7.0477273,
                "end_time": 7.1272727,
                "pitch": 65,
                "velocity": 101,
                "duration": 0.0795455,
                "tempo": 120.0
            },
            {
                "start_time": 7.1431818,
                "end_time": 7.2431818,
                "pitch": 53,
                "velocity": 101,
                "duration": 0.1,
                "tempo": 120.0
            },
            {
                "start_time": 7.2613636,
                "end_time": 7.3431818,
                "pitch": 53,
                "velocity": 101,
                "duration": 0.0818182,
                "tempo": 120.0
            },
            {
                "start_time": 7.3613636,
                "end_time": 7.4454545,
                "pitch": 67,
                "velocity": 101,
                "duration": 0.0840909,
                "tempo": 120.0
            },
            {
                "start_time": 7.4613636,
                "end_time": 7.5613636,
                "pitch": 53,
                "velocity": 101,
                "duration": 0.1,
                "tempo": 120.0
            },
            {
                "start_time": 7.5772727,
                "end_time": 7.6636364,
                "pitch": 53,
                "velocity": 101,
                "duration": 0.0863636,
                "tempo": 120.0
            },
            {
                "start_time": 7.6818182,
                "end_time": 7.7840909,
                "pitch": 60,
                "velocity": 101,
                "duration": 0.1022727,
                "tempo": 120.0
            },
            {
                "start_time": 7.8,
                "end_time": 7.8863636,
                "pitch": 53,
                "velocity": 101,
                "duration": 0.0863636,
                "tempo": 120.0
            },
            {
                "start_time": 7.9022727,
                "end_time": 8.0068182,
                "pitch": 53,
                "velocity": 101,
                "duration": 0.1045455,
                "tempo": 120.0
            },
            {
                "start_time": 8.0227273,
                "end_time": 8.2068182,
                "pitch": 56,
                "velocity": 101,
                "duration": 0.1840909,
                "tempo": 120.0
            },
            {
                "start_time": 8.2227273,
                "end_time": 8.325,
                "pitch": 58,
                "velocity": 101,
                "duration": 0.1022727,
                "tempo": 120.0
            },
            {
                "start_time": 8.3409091,
                "end_time": 8.425,
                "pitch": 55,
                "velocity": 101,
                "duration": 0.0840909,
                "tempo": 120.0
            },
            {
                "start_time": 8.4409091,
                "end_time": 8.5386364,
                "pitch": 56,
                "velocity": 101,
                "duration": 0.0977273,
                "tempo": 120.0
            },
            {
                "start_time": 8.5568182,
                "end_time": 8.6386364,
                "pitch": 53,
                "velocity": 101,
                "duration": 0.0818182,
                "tempo": 120.0
            },
            {
                "start_time": 8.6545455,
                "end_time": 8.7522727,
                "pitch": 53,
                "velocity": 101,
                "duration": 0.0977273,
                "tempo": 120.0
            },
            {
                "start_time": 8.7681818,
                "end_time": 8.85,
                "pitch": 65,
                "velocity": 101,
                "duration": 0.0818182,
                "tempo": 120.0
            },
            {
                "start_time": 8.8681818,
                "end_time": 8.95,
                "pitch": 53,
                "velocity": 101,
                "duration": 0.0818182,
                "tempo": 120.0
            },
            {
                "start_time": 8.9681818,
                "end_time": 9.0681818,
                "pitch": 53,
                "velocity": 101,
                "duration": 0.1,
                "tempo": 120.0
            },
            {
                "start_time": 9.0840909,
                "end_time": 9.1681818,
                "pitch": 67,
                "velocity": 101,
                "duration": 0.0840909,
                "tempo": 120.0
            },
            {
                "start_time": 9.1840909,
                "end_time": 9.2863636,
                "pitch": 53,
                "velocity": 101,
                "duration": 0.1022727,
                "tempo": 120.0
            },
            {
                "start_time": 9.3022727,
                "end_time": 9.5068182,
                "pitch": 70,
                "velocity": 101,
                "duration": 0.2045455,
                "tempo": 120.0
            },
            {
                "start_time": 9.525,
                "end_time": 9.6090909,
                "pitch": 68,
                "velocity": 101,
                "duration": 0.0840909,
                "tempo": 120.0
            },
            {
                "start_time": 9.6272727,
                "end_time": 9.7136364,
                "pitch": 67,
                "velocity": 101,
                "duration": 0.0863636,
                "tempo": 120.0
            },
            {
                "start_time": 9.7295455,
                "end_time": 9.9272727,
                "pitch": 65,
                "velocity": 101,
                "duration": 0.1977273,
                "tempo": 120.0
            },
            {
                "start_time": 9.9431818,
                "end_time": 10.0409091,
                "pitch": 67,
                "velocity": 101,
                "duration": 0.0977273,
                "tempo": 120.0
            },
            {
                "start_time": 10.0568182,
                "end_time": 10.1386364,
                "pitch": 60,
                "velocity": 101,
                "duration": 0.0818182,
                "tempo": 120.0
            },
            {
                "start_time": 10.1568182,
                "end_time": 10.2568182,
                "pitch": 63,
                "velocity": 101,
                "duration": 0.1,
                "tempo": 120.0
            },
            {
                "start_time": 10.2727273,
                "end_time": 10.3568182,
                "pitch": 53,
                "velocity": 101,
                "duration": 0.0840909,
                "tempo": 120.0
            },
            {
                "start_time": 10.3727273,
                "end_time": 10.4568182,
                "pitch": 53,
                "velocity": 101,
                "duration": 0.0840909,
                "tempo": 120.0
            },
            {
                "start_time": 10.5909091,
                "end_time": 10.675,
                "pitch": 53,
                "velocity": 101,
                "duration": 0.0840909,
                "tempo": 120.0
            },
            {
                "start_time": 10.6909091,
                "end_time": 10.7909091,
                "pitch": 53,
                "velocity": 101,
                "duration": 0.1,
                "tempo": 120.0
            },
            {
                "start_time": 10.9090909,
                "end_time": 11.0090909,
                "pitch": 53,
                "velocity": 101,
                "duration": 0.1,
                "tempo": 120.0
            },
            {
                "start_time": 11.025,
                "end_time": 11.1113636,
                "pitch": 53,
                "velocity": 101,
                "duration": 0.0863636,
                "tempo": 120.0
            },
            {
                "start_time": 11.2318182,
                "end_time": 11.3340909,
                "pitch": 53,
                "velocity": 101,
                "duration": 0.1022727,
                "tempo": 120.0
            },
            {
                "start_time": 11.35,
                "end_time": 11.4363636,
                "pitch": 53,
                "velocity": 101,
                "duration": 0.0863636,
                "tempo": 120.0
            },
            {
                "start_time": 11.4545455,
                "end_time": 11.5522727,
                "pitch": 53,
                "velocity": 101,
                "duration": 0.0977273,
                "tempo": 120.0
            },
            {
                "start_time": 11.6659091,
                "end_time": 11.7659091,
                "pitch": 53,
                "velocity": 101,
                "duration": 0.1,
                "tempo": 120.0
            },
            {
                "start_time": 11.8795455,
                "end_time": 11.9613636,
                "pitch": 53,
                "velocity": 101,
                "duration": 0.0818182,
                "tempo": 120.0
            },
            {
                "start_time": 11.9772727,
                "end_time": 12.0772727,
                "pitch": 53,
                "velocity": 101,
                "duration": 0.1,
                "tempo": 120.0
            },
            {
                "start_time": 12.0931818,
                "end_time": 12.175,
                "pitch": 53,
                "velocity": 101,
                "duration": 0.0818182,
                "tempo": 120.0
            },
            {
                "start_time": 12.3068182,
                "end_time": 12.3886364,
                "pitch": 53,
                "velocity": 101,
                "duration": 0.0818182,
                "tempo": 120.0
            },
            {
                "start_time": 12.4068182,
                "end_time": 12.5068182,
                "pitch": 53,
                "velocity": 101,
                "duration": 0.1,
                "tempo": 120.0
            },
            {
                "start_time": 12.6227273,
                "end_time": 12.7068182,
                "pitch": 53,
                "velocity": 101,
                "duration": 0.0840909,
                "tempo": 120.0
            },
            {
                "start_time": 12.725,
                "end_time": 12.825,
                "pitch": 53,
                "velocity": 101,
                "duration": 0.1,
                "tempo": 120.0
            },
            {
                "start_time": 12.9409091,
                "end_time": 13.0431818,
                "pitch": 53,
                "velocity": 101,
                "duration": 0.1022727,
                "tempo": 120.0
            },
            {
                "start_time": 13.0590909,
                "end_time": 13.1431818,
                "pitch": 53,
                "velocity": 101,
                "duration": 0.0840909,
                "tempo": 120.0
            },
            {
                "start_time": 13.1590909,
                "end_time": 13.2590909,
                "pitch": 53,
                "velocity": 101,
                "duration": 0.1,
                "tempo": 120.0
            },
            {
                "start_time": 13.3772727,
                "end_time": 13.4613636,
                "pitch": 53,
                "velocity": 101,
                "duration": 0.0840909,
                "tempo": 120.0
            },
            {
                "start_time": 13.5931818,
                "end_time": 13.6772727,
                "pitch": 53,
                "velocity": 101,
                "duration": 0.0840909,
                "tempo": 120.0
            },
            {
                "start_time": 13.6954545,
                "end_time": 13.7954545,
                "pitch": 53,
                "velocity": 101,
                "duration": 0.1,
                "tempo": 120.0
            },
            {
                "start_time": 13.8113636,
                "end_time": 13.8954545,
                "pitch": 53,
                "velocity": 101,
                "duration": 0.0840909,
                "tempo": 120.0
            },
            {
                "start_time": 13.9113636,
                "end_time": 14.0136364,
                "pitch": 65,
                "velocity": 101,
                "duration": 0.1022727,
                "tempo": 120.0
            },
            {
                "start_time": 14.0295455,
                "end_time": 14.1136364,
                "pitch": 53,
                "velocity": 101,
                "duration": 0.0840909,
                "tempo": 120.0
            },
            {
                "start_time": 14.1295455,
                "end_time": 14.2136364,
                "pitch": 53,
                "velocity": 101,
                "duration": 0.0840909,
                "tempo": 120.0
            },
            {
                "start_time": 14.2295455,
                "end_time": 14.3295455,
                "pitch": 67,
                "velocity": 101,
                "duration": 0.1,
                "tempo": 120.0
            },
            {
                "start_time": 14.3477273,
                "end_time": 14.4318182,
                "pitch": 53,
                "velocity": 101,
                "duration": 0.0840909,
                "tempo": 120.0
            },
            {
                "start_time": 14.4477273,
                "end_time": 14.5454545,
                "pitch": 53,
                "velocity": 101,
                "duration": 0.0977273,
                "tempo": 120.0
            },
            {
                "start_time": 14.5613636,
                "end_time": 14.6431818,
                "pitch": 60,
                "velocity": 101,
                "duration": 0.0818182,
                "tempo": 120.0
            },
            {
                "start_time": 14.6613636,
                "end_time": 14.7590909,
                "pitch": 53,
                "velocity": 101,
                "duration": 0.0977273,
                "tempo": 120.0
            },
            {
                "start_time": 14.775,
                "end_time": 14.8568182,
                "pitch": 53,
                "velocity": 101,
                "duration": 0.0818182,
                "tempo": 120.0
            },
            {
                "start_time": 14.8727273,
                "end_time": 15.0795455,
                "pitch": 56,
                "velocity": 101,
                "duration": 0.2068182,
                "tempo": 120.0
            },
            {
                "start_time": 15.0954545,
                "end_time": 15.1818182,
                "pitch": 58,
                "velocity": 101,
                "duration": 0.0863636,
                "tempo": 120.0
            },
            {
                "start_time": 15.1977273,
                "end_time": 15.3,
                "pitch": 55,
                "velocity": 101,
                "duration": 0.1022727,
                "tempo": 120.0
            },
            {
                "start_time": 15.3181818,
                "end_time": 15.4,
                "pitch": 56,
                "velocity": 101,
                "duration": 0.0818182,
                "tempo": 120.0
            },
            {
                "start_time": 15.4159091,
                "end_time": 15.5136364,
                "pitch": 53,
                "velocity": 101,
                "duration": 0.0977273,
                "tempo": 120.0
            },
            {
                "start_time": 15.5295455,
                "end_time": 15.6136364,
                "pitch": 53,
                "velocity": 101,
                "duration": 0.0840909,
                "tempo": 120.0
            },
            {
                "start_time": 15.6295455,
                "end_time": 15.7113636,
                "pitch": 65,
                "velocity": 101,
                "duration": 0.0818182,
                "tempo": 120.0
            },
            {
                "start_time": 15.7272727,
                "end_time": 15.8272727,
                "pitch": 53,
                "velocity": 101,
                "duration": 0.1,
                "tempo": 120.0
            },
            {
                "start_time": 15.8431818,
                "end_time": 15.9272727,
                "pitch": 53,
                "velocity": 101,
                "duration": 0.0840909,
                "tempo": 120.0
            },
            {
                "start_time": 15.9454545,
                "end_time": 16.0454545,
                "pitch": 67,
                "velocity": 101,
                "duration": 0.1,
                "tempo": 120.0
            },
            {
                "start_time": 16.0613636,
                "end_time": 16.1454545,
                "pitch": 53,
                "velocity": 101,
                "duration": 0.0840909,
                "tempo": 120.0
            },
            {
                "start_time": 16.1613636,
                "end_time": 16.3636364,
                "pitch": 70,
                "velocity": 101,
                "duration": 0.2022727,
                "tempo": 120.0
            },
            {
                "start_time": 16.3795455,
                "end_time": 16.4636364,
                "pitch": 68,
                "velocity": 101,
                "duration": 0.0840909,
                "tempo": 120.0
            },
            {
                "start_time": 16.4795455,
                "end_time": 16.5795455,
                "pitch": 67,
                "velocity": 101,
                "duration": 0.1,
                "tempo": 120.0
            },
            {
                "start_time": 16.5977273,
                "end_time": 16.8022727,
                "pitch": 65,
                "velocity": 101,
                "duration": 0.2045455,
                "tempo": 120.0
            },
            {
                "start_time": 16.8181818,
                "end_time": 16.9045455,
                "pitch": 67,
                "velocity": 101,
                "duration": 0.0863636,
                "tempo": 120.0
            },
            {
                "start_time": 16.9227273,
                "end_time": 17.025,
                "pitch": 60,
                "velocity": 101,
                "duration": 0.1022727,
                "tempo": 120.0
            },
            {
                "start_time": 17.0409091,
                "end_time": 17.1227273,
                "pitch": 63,
                "velocity": 101,
                "duration": 0.0818182,
                "tempo": 120.0
            },
            {
                "start_time": 17.1386364,
                "end_time": 17.2227273,
                "pitch": 53,
                "velocity": 101,
                "duration": 0.0840909,
                "tempo": 120.0
            },
            {
                "start_time": 17.2386364,
                "end_time": 17.3363636,
                "pitch": 53,
                "velocity": 101,
                "duration": 0.0977273,
                "tempo": 120.0
            },
            {
                "start_time": 17.3522727,
                "end_time": 17.4340909,
                "pitch": 65,
                "velocity": 101,
                "duration": 0.0818182,
                "tempo": 120.0
            },
            {
                "start_time": 17.45,
                "end_time": 17.55,
                "pitch": 53,
                "velocity": 101,
                "duration": 0.1,
                "tempo": 120.0
            },
            {
                "start_time": 17.5659091,
                "end_time": 17.6477273,
                "pitch": 53,
                "velocity": 101,
                "duration": 0.0818182,
                "tempo": 120.0
            },
            {
                "start_time": 17.6636364,
                "end_time": 17.7613636,
                "pitch": 67,
                "velocity": 101,
                "duration": 0.0977273,
                "tempo": 120.0
            },
            {
                "start_time": 17.7795455,
                "end_time": 17.8613636,
                "pitch": 53,
                "velocity": 101,
                "duration": 0.0818182,
                "tempo": 120.0
            },
            {
                "start_time": 17.8772727,
                "end_time": 17.9613636,
                "pitch": 53,
                "velocity": 101,
                "duration": 0.0840909,
                "tempo": 120.0
            },
            {
                "start_time": 17.9795455,
                "end_time": 18.0818182,
                "pitch": 60,
                "velocity": 101,
                "duration": 0.1022727,
                "tempo": 120.0
            },
            {
                "start_time": 18.1,
                "end_time": 18.1840909,
                "pitch": 53,
                "velocity": 101,
                "duration": 0.0840909,
                "tempo": 120.0
            },
            {
                "start_time": 18.2022727,
                "end_time": 18.3045455,
                "pitch": 53,
                "velocity": 101,
                "duration": 0.1022727,
                "tempo": 120.0
            },
            {
                "start_time": 18.3204545,
                "end_time": 18.5227273,
                "pitch": 56,
                "velocity": 101,
                "duration": 0.2022727,
                "tempo": 120.0
            },
            {
                "start_time": 18.5386364,
                "end_time": 18.6227273,
                "pitch": 58,
                "velocity": 101,
                "duration": 0.0840909,
                "tempo": 120.0
            },
            {
                "start_time": 18.6386364,
                "end_time": 18.7227273,
                "pitch": 55,
                "velocity": 101,
                "duration": 0.0840909,
                "tempo": 120.0
            },
            {
                "start_time": 18.7386364,
                "end_time": 18.8340909,
                "pitch": 56,
                "velocity": 101,
                "duration": 0.0954545,
                "tempo": 120.0
            },
            {
                "start_time": 18.85,
                "end_time": 18.9295455,
                "pitch": 53,
                "velocity": 101,
                "duration": 0.0795455,
                "tempo": 120.0
            },
            {
                "start_time": 18.9454545,
                "end_time": 19.0431818,
                "pitch": 53,
                "velocity": 101,
                "duration": 0.0977273,
                "tempo": 120.0
            },
            {
                "start_time": 19.0590909,
                "end_time": 19.1386364,
                "pitch": 65,
                "velocity": 101,
                "duration": 0.0795455,
                "tempo": 120.0
            },
            {
                "start_time": 19.1545455,
                "end_time": 19.2545455,
                "pitch": 53,
                "velocity": 101,
                "duration": 0.1,
                "tempo": 120.0
            },
            {
                "start_time": 19.2704545,
                "end_time": 19.3545455,
                "pitch": 53,
                "velocity": 101,
                "duration": 0.0840909,
                "tempo": 120.0
            },
            {
                "start_time": 19.3704545,
                "end_time": 19.4545455,
                "pitch": 67,
                "velocity": 101,
                "duration": 0.0840909,
                "tempo": 120.0
            },
            {
                "start_time": 19.4727273,
                "end_time": 19.5727273,
                "pitch": 53,
                "velocity": 101,
                "duration": 0.1,
                "tempo": 120.0
            },
            {
                "start_time": 19.5886364,
                "end_time": 19.7931818,
                "pitch": 70,
                "velocity": 101,
                "duration": 0.2045455,
                "tempo": 120.0
            },
            {
                "start_time": 19.8113636,
                "end_time": 19.8977273,
                "pitch": 68,
                "velocity": 101,
                "duration": 0.0863636,
                "tempo": 120.0
            },
            {
                "start_time": 19.9136364,
                "end_time": 20.0159091,
                "pitch": 67,
                "velocity": 101,
                "duration": 0.1022727,
                "tempo": 120.0
            },
            {
                "start_time": 20.0340909,
                "end_time": 20.2227273,
                "pitch": 65,
                "velocity": 101,
                "duration": 0.1886364,
                "tempo": 120.0
            },
            {
                "start_time": 20.2386364,
                "end_time": 20.3409091,
                "pitch": 67,
                "velocity": 101,
                "duration": 0.1022727,
                "tempo": 120.0
            },
            {
                "start_time": 20.3590909,
                "end_time": 20.4431818,
                "pitch": 60,
                "velocity": 101,
                "duration": 0.0840909,
                "tempo": 120.0
            },
            {
                "start_time": 20.4613636,
                "end_time": 20.5568182,
                "pitch": 63,
                "velocity": 101,
                "duration": 0.0954545,
                "tempo": 120.0
            },
            {
                "start_time": 20.5727273,
                "end_time": 20.7636364,
                "pitch": 66,
                "velocity": 101,
                "duration": 0.1909091,
                "tempo": 120.0
            },
            {
                "start_time": 20.7795455,
                "end_time": 21.0772727,
                "pitch": 78,
                "velocity": 101,
                "duration": 0.2977273,
                "tempo": 120.0
            },
            {
                "start_time": 21.0931818,
                "end_time": 21.1772727,
                "pitch": 76,
                "velocity": 101,
                "duration": 0.0840909,
                "tempo": 120.0
            },
            {
                "start_time": 21.1931818,
                "end_time": 21.2931818,
                "pitch": 74,
                "velocity": 101,
                "duration": 0.1,
                "tempo": 120.0
            },
            {
                "start_time": 21.3113636,
                "end_time": 21.5159091,
                "pitch": 76,
                "velocity": 101,
                "duration": 0.2045455,
                "tempo": 120.0
            },
            {
                "start_time": 21.5340909,
                "end_time": 21.7204545,
                "pitch": 66,
                "velocity": 101,
                "duration": 0.1863636,
                "tempo": 120.0
            },
            {
                "start_time": 21.7386364,
                "end_time": 22.2636364,
                "pitch": 72,
                "velocity": 101,
                "duration": 0.525,
                "tempo": 120.0
            },
            {
                "start_time": 22.2795455,
                "end_time": 22.4590909,
                "pitch": 66,
                "velocity": 101,
                "duration": 0.1795455,
                "tempo": 120.0
            },
            {
                "start_time": 22.475,
                "end_time": 22.7954545,
                "pitch": 78,
                "velocity": 101,
                "duration": 0.3204545,
                "tempo": 120.0
            },
            {
                "start_time": 22.8136364,
                "end_time": 22.8977273,
                "pitch": 76,
                "velocity": 101,
                "duration": 0.0840909,
                "tempo": 120.0
            },
            {
                "start_time": 22.9159091,
                "end_time": 23.0181818,
                "pitch": 74,
                "velocity": 101,
                "duration": 0.1022727,
                "tempo": 120.0
            },
            {
                "start_time": 23.0340909,
                "end_time": 23.2227273,
                "pitch": 76,
                "velocity": 101,
                "duration": 0.1886364,
                "tempo": 120.0
            },
            {
                "start_time": 23.2409091,
                "end_time": 23.4454545,
                "pitch": 66,
                "velocity": 101,
                "duration": 0.2045455,
                "tempo": 120.0
            },
            {
                "start_time": 23.4636364,
                "end_time": 23.9613636,
                "pitch": 72,
                "velocity": 101,
                "duration": 0.4977273,
                "tempo": 120.0
            },
            {
                "start_time": 23.9772727,
                "end_time": 24.1772727,
                "pitch": 66,
                "velocity": 101,
                "duration": 0.2,
                "tempo": 120.0
            },
            {
                "start_time": 24.1954545,
                "end_time": 24.5136364,
                "pitch": 78,
                "velocity": 101,
                "duration": 0.3181818,
                "tempo": 120.0
            },
            {
                "start_time": 24.5295455,
                "end_time": 24.6136364,
                "pitch": 76,
                "velocity": 101,
                "duration": 0.0840909,
                "tempo": 120.0
            },
            {
                "start_time": 24.6295455,
                "end_time": 24.7136364,
                "pitch": 74,
                "velocity": 101,
                "duration": 0.0840909,
                "tempo": 120.0
            },
            {
                "start_time": 24.7295455,
                "end_time": 24.9318182,
                "pitch": 76,
                "velocity": 101,
                "duration": 0.2022727,
                "tempo": 120.0
            },
            {
                "start_time": 24.9477273,
                "end_time": 25.1477273,
                "pitch": 66,
                "velocity": 101,
                "duration": 0.2,
                "tempo": 120.0
            },
            {
                "start_time": 25.1659091,
                "end_time": 25.6840909,
                "pitch": 72,
                "velocity": 101,
                "duration": 0.5181818,
                "tempo": 120.0
            },
            {
                "start_time": 25.7,
                "end_time": 25.9022727,
                "pitch": 66,
                "velocity": 101,
                "duration": 0.2022727,
                "tempo": 120.0
            },
            {
                "start_time": 25.9181818,
                "end_time": 26.2204545,
                "pitch": 78,
                "velocity": 101,
                "duration": 0.3022727,
                "tempo": 120.0
            },
            {
                "start_time": 26.2363636,
                "end_time": 26.3363636,
                "pitch": 76,
                "velocity": 101,
                "duration": 0.1,
                "tempo": 120.0
            },
            {
                "start_time": 26.3545455,
                "end_time": 26.4363636,
                "pitch": 74,
                "velocity": 101,
                "duration": 0.0818182,
                "tempo": 120.0
            },
            {
                "start_time": 26.4545455,
                "end_time": 26.6545455,
                "pitch": 76,
                "velocity": 101,
                "duration": 0.2,
                "tempo": 120.0
            },
            {
                "start_time": 26.6704545,
                "end_time": 26.8727273,
                "pitch": 72,
                "velocity": 101,
                "duration": 0.2022727,
                "tempo": 120.0
            },
            {
                "start_time": 26.8886364,
                "end_time": 27.4068182,
                "pitch": 74,
                "velocity": 101,
                "duration": 0.5181818,
                "tempo": 120.0
            },
            {
                "start_time": 27.4227273,
                "end_time": 27.5204545,
                "pitch": 53,
                "velocity": 101,
                "duration": 0.0977273,
                "tempo": 120.0
            },
            {
                "start_time": 27.5363636,
                "end_time": 27.6181818,
                "pitch": 53,
                "velocity": 101,
                "duration": 0.0818182,
                "tempo": 120.0
            },
            {
                "start_time": 27.6340909,
                "end_time": 27.7159091,
                "pitch": 65,
                "velocity": 101,
                "duration": 0.0818182,
                "tempo": 120.0
            },
            {
                "start_time": 27.7340909,
                "end_time": 27.8318182,
                "pitch": 53,
                "velocity": 101,
                "duration": 0.0977273,
                "tempo": 120.0
            },
            {
                "start_time": 27.8477273,
                "end_time": 27.9295455,
                "pitch": 53,
                "velocity": 101,
                "duration": 0.0818182,
                "tempo": 120.0
            },
            {
                "start_time": 27.9454545,
                "end_time": 28.0454545,
                "pitch": 67,
                "velocity": 101,
                "duration": 0.1,
                "tempo": 120.0
            },
            {
                "start_time": 28.0613636,
                "end_time": 28.1431818,
                "pitch": 53,
                "velocity": 101,
                "duration": 0.0818182,
                "tempo": 120.0
            },
            {
                "start_time": 28.1590909,
                "end_time": 28.2613636,
                "pitch": 53,
                "velocity": 101,
                "duration": 0.1022727,
                "tempo": 120.0
            },
            {
                "start_time": 28.2795455,
                "end_time": 28.3636364,
                "pitch": 60,
                "velocity": 101,
                "duration": 0.0840909,
                "tempo": 120.0
            },
            {
                "start_time": 28.3818182,
                "end_time": 28.4659091,
                "pitch": 53,
                "velocity": 101,
                "duration": 0.0840909,
                "tempo": 120.0
            },
            {
                "start_time": 28.4840909,
                "end_time": 28.5863636,
                "pitch": 53,
                "velocity": 101,
                "duration": 0.1022727,
                "tempo": 120.0
            },
            {
                "start_time": 28.6045455,
                "end_time": 28.8045455,
                "pitch": 56,
                "velocity": 101,
                "duration": 0.2,
                "tempo": 120.0
            },
            {
                "start_time": 28.8204545,
                "end_time": 28.9045455,
                "pitch": 58,
                "velocity": 101,
                "duration": 0.0840909,
                "tempo": 120.0
            },
            {
                "start_time": 28.9227273,
                "end_time": 29.0227273,
                "pitch": 55,
                "velocity": 101,
                "duration": 0.1,
                "tempo": 120.0
            },
            {
                "start_time": 29.0386364,
                "end_time": 29.1227273,
                "pitch": 56,
                "velocity": 101,
                "duration": 0.0840909,
                "tempo": 120.0
            },
            {
                "start_time": 29.1386364,
                "end_time": 29.2227273,
                "pitch": 53,
                "velocity": 101,
                "duration": 0.0840909,
                "tempo": 120.0
            },
            {
                "start_time": 29.2386364,
                "end_time": 29.3409091,
                "pitch": 53,
                "velocity": 101,
                "duration": 0.1022727,
                "tempo": 120.0
            },
            {
                "start_time": 29.3568182,
                "end_time": 29.4409091,
                "pitch": 65,
                "velocity": 101,
                "duration": 0.0840909,
                "tempo": 120.0
            },
            {
                "start_time": 29.4568182,
                "end_time": 29.5545455,
                "pitch": 53,
                "velocity": 101,
                "duration": 0.0977273,
                "tempo": 120.0
            },
            {
                "start_time": 29.5727273,
                "end_time": 29.6545455,
                "pitch": 53,
                "velocity": 101,
                "duration": 0.0818182,
                "tempo": 120.0
            },
            {
                "start_time": 29.6704545,
                "end_time": 29.7681818,
                "pitch": 67,
                "velocity": 101,
                "duration": 0.0977273,
                "tempo": 120.0
            },
            {
                "start_time": 29.7840909,
                "end_time": 29.8659091,
                "pitch": 53,
                "velocity": 101,
                "duration": 0.0818182,
                "tempo": 120.0
            },
            {
                "start_time": 29.8840909,
                "end_time": 30.0886364,
                "pitch": 70,
                "velocity": 101,
                "duration": 0.2045455,
                "tempo": 120.0
            },
            {
                "start_time": 30.1045455,
                "end_time": 30.1909091,
                "pitch": 68,
                "velocity": 101,
                "duration": 0.0863636,
                "tempo": 120.0
            },
            {
                "start_time": 30.2068182,
                "end_time": 30.3113636,
                "pitch": 67,
                "velocity": 101,
                "duration": 0.1045455,
                "tempo": 120.0
            },
            {
                "start_time": 30.3272727,
                "end_time": 30.5272727,
                "pitch": 65,
                "velocity": 101,
                "duration": 0.2,
                "tempo": 120.0
            },
            {
                "start_time": 30.5454545,
                "end_time": 30.6295455,
                "pitch": 67,
                "velocity": 101,
                "duration": 0.0840909,
                "tempo": 120.0
            },
            {
                "start_time": 30.6454545,
                "end_time": 30.7295455,
                "pitch": 60,
                "velocity": 101,
                "duration": 0.0840909,
                "tempo": 120.0
            },
            {
                "start_time": 30.7454545,
                "end_time": 30.8409091,
                "pitch": 63,
                "velocity": 101,
                "duration": 0.0954545,
                "tempo": 120.0
            },
            {
                "start_time": 30.8568182,
                "end_time": 30.9363636,
                "pitch": 53,
                "velocity": 101,
                "duration": 0.0795455,
                "tempo": 120.0
            },
            {
                "start_time": 30.9522727,
                "end_time": 31.0477273,
                "pitch": 53,
                "velocity": 101,
                "duration": 0.0954545,
                "tempo": 120.0
            },
            {
                "start_time": 31.0636364,
                "end_time": 31.1431818,
                "pitch": 65,
                "velocity": 101,
                "duration": 0.0795455,
                "tempo": 120.0
            },
            {
                "start_time": 31.1590909,
                "end_time": 31.2613636,
                "pitch": 53,
                "velocity": 101,
                "duration": 0.1022727,
                "tempo": 120.0
            },
            {
                "start_time": 31.2795455,
                "end_time": 31.3659091,
                "pitch": 53,
                "velocity": 101,
                "duration": 0.0863636,
                "tempo": 120.0
            },
            {
                "start_time": 31.3818182,
                "end_time": 31.4681818,
                "pitch": 67,
                "velocity": 101,
                "duration": 0.0863636,
                "tempo": 120.0
            },
            {
                "start_time": 31.4840909,
                "end_time": 31.5863636,
                "pitch": 53,
                "velocity": 101,
                "duration": 0.1022727,
                "tempo": 120.0
            },
            {
                "start_time": 31.6045455,
                "end_time": 31.6886364,
                "pitch": 53,
                "velocity": 101,
                "duration": 0.0840909,
                "tempo": 120.0
            },
            {
                "start_time": 31.7045455,
                "end_time": 31.8045455,
                "pitch": 60,
                "velocity": 101,
                "duration": 0.1,
                "tempo": 120.0
            },
            {
                "start_time": 31.8227273,
                "end_time": 31.9045455,
                "pitch": 53,
                "velocity": 101,
                "duration": 0.0818182,
                "tempo": 120.0
            },
            {
                "start_time": 31.9227273,
                "end_time": 32.0227273,
                "pitch": 53,
                "velocity": 101,
                "duration": 0.1,
                "tempo": 120.0
            },
            {
                "start_time": 32.0386364,
                "end_time": 32.2227273,
                "pitch": 56,
                "velocity": 101,
                "duration": 0.1840909,
                "tempo": 120.0
            },
            {
                "start_time": 32.2409091,
                "end_time": 32.3409091,
                "pitch": 58,
                "velocity": 101,
                "duration": 0.1,
                "tempo": 120.0
            },
            {
                "start_time": 32.3568182,
                "end_time": 32.4409091,
                "pitch": 55,
                "velocity": 101,
                "duration": 0.0840909,
                "tempo": 120.0
            },
            {
                "start_time": 32.4568182,
                "end_time": 32.5568182,
                "pitch": 56,
                "velocity": 101,
                "duration": 0.1,
                "tempo": 120.0
            },
            {
                "start_time": 32.5727273,
                "end_time": 32.6545455,
                "pitch": 53,
                "velocity": 101,
                "duration": 0.0818182,
                "tempo": 120.0
            },
            {
                "start_time": 32.6704545,
                "end_time": 32.7681818,
                "pitch": 53,
                "velocity": 101,
                "duration": 0.0977273,
                "tempo": 120.0
            },
            {
                "start_time": 32.7863636,
                "end_time": 32.8681818,
                "pitch": 65,
                "velocity": 101,
                "duration": 0.0818182,
                "tempo": 120.0
            },
            {
                "start_time": 32.8840909,
                "end_time": 32.9681818,
                "pitch": 53,
                "velocity": 101,
                "duration": 0.0840909,
                "tempo": 120.0
            },
            {
                "start_time": 32.9840909,
                "end_time": 33.0840909,
                "pitch": 53,
                "velocity": 101,
                "duration": 0.1,
                "tempo": 120.0
            },
            {
                "start_time": 33.1022727,
                "end_time": 33.1840909,
                "pitch": 67,
                "velocity": 101,
                "duration": 0.0818182,
                "tempo": 120.0
            },
            {
                "start_time": 33.2022727,
                "end_time": 33.3022727,
                "pitch": 53,
                "velocity": 101,
                "duration": 0.1,
                "tempo": 120.0
            },
            {
                "start_time": 33.3181818,
                "end_time": 33.5227273,
                "pitch": 70,
                "velocity": 101,
                "duration": 0.2045455,
                "tempo": 120.0
            },
            {
                "start_time": 33.5409091,
                "end_time": 33.6272727,
                "pitch": 68,
                "velocity": 101,
                "duration": 0.0863636,
                "tempo": 120.0
            },
            {
                "start_time": 33.6431818,
                "end_time": 33.7295455,
                "pitch": 67,
                "velocity": 101,
                "duration": 0.0863636,
                "tempo": 120.0
            },
            {
                "start_time": 33.7454545,
                "end_time": 33.9431818,
                "pitch": 65,
                "velocity": 101,
                "duration": 0.1977273,
                "tempo": 120.0
            },
            {
                "start_time": 33.9590909,
                "end_time": 34.0568182,
                "pitch": 67,
                "velocity": 101,
                "duration": 0.0977273,
                "tempo": 120.0
            },
            {
                "start_time": 34.075,
                "end_time": 34.1568182,
                "pitch": 60,
                "velocity": 101,
                "duration": 0.0818182,
                "tempo": 120.0
            },
            {
                "start_time": 34.1727273,
                "end_time": 34.2727273,
                "pitch": 63,
                "velocity": 101,
                "duration": 0.1,
                "tempo": 120.0
            },
            {
                "start_time": 34.2886364,
                "end_time": 34.3727273,
                "pitch": 53,
                "velocity": 101,
                "duration": 0.0840909,
                "tempo": 120.0
            },
            {
                "start_time": 34.3909091,
                "end_time": 34.4727273,
                "pitch": 53,
                "velocity": 101,
                "duration": 0.0818182,
                "tempo": 120.0
            },
            {
                "start_time": 34.6068182,
                "end_time": 34.625,
                "pitch": 53,
                "velocity": 101,
                "duration": 0.0181818,
                "tempo": 120.0
            }
        ],
        "Acoustic Bass": [
            {
                "start_time": 0.0159091,
                "end_time": 0.0772727,
                "pitch": 48,
                "velocity": 101,
                "duration": 0.0613636,
                "tempo": 120.0
            },
            {
                "start_time": 0.0931818,
                "end_time": 0.1704545,
                "pitch": 48,
                "velocity": 101,
                "duration": 0.0772727,
                "tempo": 120.0
            },
            {
                "start_time": 0.2954545,
                "end_time": 0.3795455,
                "pitch": 48,
                "velocity": 101,
                "duration": 0.0840909,
                "tempo": 120.0
            },
            {
                "start_time": 0.3954545,
                "end_time": 0.4954545,
                "pitch": 48,
                "velocity": 101,
                "duration": 0.1,
                "tempo": 120.0
            },
            {
                "start_time": 0.6136364,
                "end_time": 0.6977273,
                "pitch": 48,
                "velocity": 101,
                "duration": 0.0840909,
                "tempo": 120.0
            },
            {
                "start_time": 0.7136364,
                "end_time": 0.8136364,
                "pitch": 48,
                "velocity": 101,
                "duration": 0.1,
                "tempo": 120.0
            },
            {
                "start_time": 0.9318182,
                "end_time": 1.0318182,
                "pitch": 48,
                "velocity": 101,
                "duration": 0.1,
                "tempo": 120.0
            },
            {
                "start_time": 1.0477273,
                "end_time": 1.1318182,
                "pitch": 48,
                "velocity": 101,
                "duration": 0.0840909,
                "tempo": 120.0
            },
            {
                "start_time": 1.1477273,
                "end_time": 1.25,
                "pitch": 48,
                "velocity": 101,
                "duration": 0.1022727,
                "tempo": 120.0
            },
            {
                "start_time": 1.3659091,
                "end_time": 1.45,
                "pitch": 48,
                "velocity": 101,
                "duration": 0.0840909,
                "tempo": 120.0
            },
            {
                "start_time": 1.5840909,
                "end_time": 1.6681818,
                "pitch": 48,
                "velocity": 101,
                "duration": 0.0840909,
                "tempo": 120.0
            },
            {
                "start_time": 1.6840909,
                "end_time": 1.7840909,
                "pitch": 48,
                "velocity": 101,
                "duration": 0.1,
                "tempo": 120.0
            },
            {
                "start_time": 1.8,
                "end_time": 1.8840909,
                "pitch": 48,
                "velocity": 101,
                "duration": 0.0840909,
                "tempo": 120.0
            },
            {
                "start_time": 2.0181818,
                "end_time": 2.1022727,
                "pitch": 48,
                "velocity": 101,
                "duration": 0.0840909,
                "tempo": 120.0
            },
            {
                "start_time": 2.1181818,
                "end_time": 2.2022727,
                "pitch": 48,
                "velocity": 101,
                "duration": 0.0840909,
                "tempo": 120.0
            },
            {
                "start_time": 2.3363636,
                "end_time": 2.4204545,
                "pitch": 48,
                "velocity": 101,
                "duration": 0.0840909,
                "tempo": 120.0
            },
            {
                "start_time": 2.4363636,
                "end_time": 2.5363636,
                "pitch": 48,
                "velocity": 101,
                "duration": 0.1,
                "tempo": 120.0
            },
            {
                "start_time": 2.6545455,
                "end_time": 2.7545455,
                "pitch": 48,
                "velocity": 101,
                "duration": 0.1,
                "tempo": 120.0
            },
            {
                "start_time": 2.7727273,
                "end_time": 2.8545455,
                "pitch": 48,
                "velocity": 101,
                "duration": 0.0818182,
                "tempo": 120.0
            },
            {
                "start_time": 2.8727273,
                "end_time": 2.9568182,
                "pitch": 48,
                "velocity": 101,
                "duration": 0.0840909,
                "tempo": 120.0
            },
            {
                "start_time": 3.0886364,
                "end_time": 3.1727273,
                "pitch": 48,
                "velocity": 101,
                "duration": 0.0840909,
                "tempo": 120.0
            },
            {
                "start_time": 3.3068182,
                "end_time": 3.3886364,
                "pitch": 48,
                "velocity": 101,
                "duration": 0.0818182,
                "tempo": 120.0
            },
            {
                "start_time": 3.6181818,
                "end_time": 3.7,
                "pitch": 60,
                "velocity": 101,
                "duration": 0.0818182,
                "tempo": 120.0
            },
            {
                "start_time": 3.9295455,
                "end_time": 4.0272727,
                "pitch": 63,
                "velocity": 101,
                "duration": 0.0977273,
                "tempo": 120.0
            },
            {
                "start_time": 4.2613636,
                "end_time": 4.3477273,
                "pitch": 56,
                "velocity": 101,
                "duration": 0.0863636,
                "tempo": 120.0
            },
            {
                "start_time": 5.3409091,
                "end_time": 5.4227273,
                "pitch": 60,
                "velocity": 101,
                "duration": 0.0818182,
                "tempo": 120.0
            },
            {
                "start_time": 5.6522727,
                "end_time": 5.7522727,
                "pitch": 63,
                "velocity": 101,
                "duration": 0.1,
                "tempo": 120.0
            },
            {
                "start_time": 5.8659091,
                "end_time": 6.0704545,
                "pitch": 73,
                "velocity": 101,
                "duration": 0.2045455,
                "tempo": 120.0
            },
            {
                "start_time": 6.0886364,
                "end_time": 6.1727273,
                "pitch": 72,
                "velocity": 101,
                "duration": 0.0840909,
                "tempo": 120.0
            },
            {
                "start_time": 6.1909091,
                "end_time": 6.2931818,
                "pitch": 70,
                "velocity": 101,
                "duration": 0.1022727,
                "tempo": 120.0
            },
            {
                "start_time": 6.3113636,
                "end_time": 6.5113636,
                "pitch": 68,
                "velocity": 101,
                "duration": 0.2,
                "tempo": 120.0
            },
            {
                "start_time": 6.5272727,
                "end_time": 6.6113636,
                "pitch": 70,
                "velocity": 101,
                "duration": 0.0840909,
                "tempo": 120.0
            },
            {
                "start_time": 6.6295455,
                "end_time": 6.7113636,
                "pitch": 67,
                "velocity": 101,
                "duration": 0.0818182,
                "tempo": 120.0
            },
            {
                "start_time": 6.7295455,
                "end_time": 6.825,
                "pitch": 68,
                "velocity": 101,
                "duration": 0.0954545,
                "tempo": 120.0
            },
            {
                "start_time": 7.0477273,
                "end_time": 7.1272727,
                "pitch": 60,
                "velocity": 101,
                "duration": 0.0795455,
                "tempo": 120.0
            },
            {
                "start_time": 7.3613636,
                "end_time": 7.4454545,
                "pitch": 63,
                "velocity": 101,
                "duration": 0.0840909,
                "tempo": 120.0
            },
            {
                "start_time": 7.6818182,
                "end_time": 7.7840909,
                "pitch": 56,
                "velocity": 101,
                "duration": 0.1022727,
                "tempo": 120.0
            },
            {
                "start_time": 8.7681818,
                "end_time": 8.85,
                "pitch": 60,
                "velocity": 101,
                "duration": 0.0818182,
                "tempo": 120.0
            },
            {
                "start_time": 9.0840909,
                "end_time": 9.1681818,
                "pitch": 63,
                "velocity": 101,
                "duration": 0.0840909,
                "tempo": 120.0
            },
            {
                "start_time": 9.3022727,
                "end_time": 9.5068182,
                "pitch": 73,
                "velocity": 101,
                "duration": 0.2045455,
                "tempo": 120.0
            },
            {
                "start_time": 9.525,
                "end_time": 9.6090909,
                "pitch": 72,
                "velocity": 101,
                "duration": 0.0840909,
                "tempo": 120.0
            },
            {
                "start_time": 9.6272727,
                "end_time": 9.7136364,
                "pitch": 70,
                "velocity": 101,
                "duration": 0.0863636,
                "tempo": 120.0
            },
            {
                "start_time": 9.7295455,
                "end_time": 9.9272727,
                "pitch": 68,
                "velocity": 101,
                "duration": 0.1977273,
                "tempo": 120.0
            },
            {
                "start_time": 9.9431818,
                "end_time": 10.0409091,
                "pitch": 70,
                "velocity": 101,
                "duration": 0.0977273,
                "tempo": 120.0
            },
            {
                "start_time": 10.0568182,
                "end_time": 10.1386364,
                "pitch": 67,
                "velocity": 101,
                "duration": 0.0818182,
                "tempo": 120.0
            },
            {
                "start_time": 10.1568182,
                "end_time": 10.2568182,
                "pitch": 68,
                "velocity": 101,
                "duration": 0.1,
                "tempo": 120.0
            },
            {
                "start_time": 10.2727273,
                "end_time": 10.3568182,
                "pitch": 48,
                "velocity": 101,
                "duration": 0.0840909,
                "tempo": 120.0
            },
            {
                "start_time": 10.3727273,
                "end_time": 10.4568182,
                "pitch": 48,
                "velocity": 101,
                "duration": 0.0840909,
                "tempo": 120.0
            },
            {
                "start_time": 10.5909091,
                "end_time": 10.675,
                "pitch": 48,
                "velocity": 101,
                "duration": 0.0840909,
                "tempo": 120.0
            },
            {
                "start_time": 10.6909091,
                "end_time": 10.7909091,
                "pitch": 48,
                "velocity": 101,
                "duration": 0.1,
                "tempo": 120.0
            },
            {
                "start_time": 10.9090909,
                "end_time": 11.0090909,
                "pitch": 48,
                "velocity": 101,
                "duration": 0.1,
                "tempo": 120.0
            },
            {
                "start_time": 11.025,
                "end_time": 11.1113636,
                "pitch": 48,
                "velocity": 101,
                "duration": 0.0863636,
                "tempo": 120.0
            },
            {
                "start_time": 11.2318182,
                "end_time": 11.3340909,
                "pitch": 48,
                "velocity": 101,
                "duration": 0.1022727,
                "tempo": 120.0
            },
            {
                "start_time": 11.35,
                "end_time": 11.4363636,
                "pitch": 48,
                "velocity": 101,
                "duration": 0.0863636,
                "tempo": 120.0
            },
            {
                "start_time": 11.4545455,
                "end_time": 11.5522727,
                "pitch": 48,
                "velocity": 101,
                "duration": 0.0977273,
                "tempo": 120.0
            },
            {
                "start_time": 11.6659091,
                "end_time": 11.7659091,
                "pitch": 48,
                "velocity": 101,
                "duration": 0.1,
                "tempo": 120.0
            },
            {
                "start_time": 11.8795455,
                "end_time": 11.9613636,
                "pitch": 48,
                "velocity": 101,
                "duration": 0.0818182,
                "tempo": 120.0
            },
            {
                "start_time": 11.9772727,
                "end_time": 12.0772727,
                "pitch": 48,
                "velocity": 101,
                "duration": 0.1,
                "tempo": 120.0
            },
            {
                "start_time": 12.0931818,
                "end_time": 12.175,
                "pitch": 48,
                "velocity": 101,
                "duration": 0.0818182,
                "tempo": 120.0
            },
            {
                "start_time": 12.3068182,
                "end_time": 12.3886364,
                "pitch": 48,
                "velocity": 101,
                "duration": 0.0818182,
                "tempo": 120.0
            },
            {
                "start_time": 12.4068182,
                "end_time": 12.5068182,
                "pitch": 48,
                "velocity": 101,
                "duration": 0.1,
                "tempo": 120.0
            },
            {
                "start_time": 12.6227273,
                "end_time": 12.7068182,
                "pitch": 48,
                "velocity": 101,
                "duration": 0.0840909,
                "tempo": 120.0
            },
            {
                "start_time": 12.725,
                "end_time": 12.825,
                "pitch": 48,
                "velocity": 101,
                "duration": 0.1,
                "tempo": 120.0
            },
            {
                "start_time": 12.9409091,
                "end_time": 13.0431818,
                "pitch": 48,
                "velocity": 101,
                "duration": 0.1022727,
                "tempo": 120.0
            },
            {
                "start_time": 13.0590909,
                "end_time": 13.1431818,
                "pitch": 48,
                "velocity": 101,
                "duration": 0.0840909,
                "tempo": 120.0
            },
            {
                "start_time": 13.1590909,
                "end_time": 13.2590909,
                "pitch": 48,
                "velocity": 101,
                "duration": 0.1,
                "tempo": 120.0
            },
            {
                "start_time": 13.3772727,
                "end_time": 13.4613636,
                "pitch": 48,
                "velocity": 101,
                "duration": 0.0840909,
                "tempo": 120.0
            },
            {
                "start_time": 13.5931818,
                "end_time": 13.6772727,
                "pitch": 48,
                "velocity": 101,
                "duration": 0.0840909,
                "tempo": 120.0
            },
            {
                "start_time": 13.9113636,
                "end_time": 14.0136364,
                "pitch": 60,
                "velocity": 101,
                "duration": 0.1022727,
                "tempo": 120.0
            },
            {
                "start_time": 14.2295455,
                "end_time": 14.3295455,
                "pitch": 63,
                "velocity": 101,
                "duration": 0.1,
                "tempo": 120.0
            },
            {
                "start_time": 14.5613636,
                "end_time": 14.6431818,
                "pitch": 56,
                "velocity": 101,
                "duration": 0.0818182,
                "tempo": 120.0
            },
            {
                "start_time": 15.6295455,
                "end_time": 15.7113636,
                "pitch": 60,
                "velocity": 101,
                "duration": 0.0818182,
                "tempo": 120.0
            },
            {
                "start_time": 15.9454545,
                "end_time": 16.0454545,
                "pitch": 63,
                "velocity": 101,
                "duration": 0.1,
                "tempo": 120.0
            },
            {
                "start_time": 16.1613636,
                "end_time": 16.3636364,
                "pitch": 73,
                "velocity": 101,
                "duration": 0.2022727,
                "tempo": 120.0
            },
            {
                "start_time": 16.3795455,
                "end_time": 16.4636364,
                "pitch": 72,
                "velocity": 101,
                "duration": 0.0840909,
                "tempo": 120.0
            },
            {
                "start_time": 16.4795455,
                "end_time": 16.5795455,
                "pitch": 70,
                "velocity": 101,
                "duration": 0.1,
                "tempo": 120.0
            },
            {
                "start_time": 16.5977273,
                "end_time": 16.8022727,
                "pitch": 68,
                "velocity": 101,
                "duration": 0.2045455,
                "tempo": 120.0
            },
            {
                "start_time": 16.8181818,
                "end_time": 16.9045455,
                "pitch": 70,
                "velocity": 101,
                "duration": 0.0863636,
                "tempo": 120.0
            },
            {
                "start_time": 16.9227273,
                "end_time": 17.025,
                "pitch": 67,
                "velocity": 101,
                "duration": 0.1022727,
                "tempo": 120.0
            },
            {
                "start_time": 17.0409091,
                "end_time": 17.1227273,
                "pitch": 68,
                "velocity": 101,
                "duration": 0.0818182,
                "tempo": 120.0
            },
            {
                "start_time": 17.3522727,
                "end_time": 17.4340909,
                "pitch": 60,
                "velocity": 101,
                "duration": 0.0818182,
                "tempo": 120.0
            },
            {
                "start_time": 17.6636364,
                "end_time": 17.7613636,
                "pitch": 63,
                "velocity": 101,
                "duration": 0.0977273,
                "tempo": 120.0
            },
            {
                "start_time": 17.9795455,
                "end_time": 18.0818182,
                "pitch": 56,
                "velocity": 101,
                "duration": 0.1022727,
                "tempo": 120.0
            },
            {
                "start_time": 19.0590909,
                "end_time": 19.1386364,
                "pitch": 60,
                "velocity": 101,
                "duration": 0.0795455,
                "tempo": 120.0
            },
            {
                "start_time": 19.3704545,
                "end_time": 19.4545455,
                "pitch": 63,
                "velocity": 101,
                "duration": 0.0840909,
                "tempo": 120.0
            },
            {
                "start_time": 19.5886364,
                "end_time": 19.7931818,
                "pitch": 73,
                "velocity": 101,
                "duration": 0.2045455,
                "tempo": 120.0
            },
            {
                "start_time": 19.8113636,
                "end_time": 19.8977273,
                "pitch": 72,
                "velocity": 101,
                "duration": 0.0863636,
                "tempo": 120.0
            },
            {
                "start_time": 19.9136364,
                "end_time": 20.0159091,
                "pitch": 70,
                "velocity": 101,
                "duration": 0.1022727,
                "tempo": 120.0
            },
            {
                "start_time": 20.0340909,
                "end_time": 20.2227273,
                "pitch": 68,
                "velocity": 101,
                "duration": 0.1886364,
                "tempo": 120.0
            },
            {
                "start_time": 20.2386364,
                "end_time": 20.3409091,
                "pitch": 70,
                "velocity": 101,
                "duration": 0.1022727,
                "tempo": 120.0
            },
            {
                "start_time": 20.3590909,
                "end_time": 20.4431818,
                "pitch": 67,
                "velocity": 101,
                "duration": 0.0840909,
                "tempo": 120.0
            },
            {
                "start_time": 20.4613636,
                "end_time": 20.5568182,
                "pitch": 68,
                "velocity": 101,
                "duration": 0.0954545,
                "tempo": 120.0
            },
            {
                "start_time": 20.5727273,
                "end_time": 20.6522727,
                "pitch": 56,
                "velocity": 101,
                "duration": 0.0795455,
                "tempo": 120.0
            },
            {
                "start_time": 20.6681818,
                "end_time": 20.7636364,
                "pitch": 58,
                "velocity": 101,
                "duration": 0.0954545,
                "tempo": 120.0
            },
            {
                "start_time": 20.7795455,
                "end_time": 20.8590909,
                "pitch": 60,
                "velocity": 101,
                "duration": 0.0795455,
                "tempo": 120.0
            },
            {
                "start_time": 20.875,
                "end_time": 21.0772727,
                "pitch": 62,
                "velocity": 101,
                "duration": 0.2022727,
                "tempo": 120.0
            },
            {
                "start_time": 21.0931818,
                "end_time": 21.1772727,
                "pitch": 60,
                "velocity": 101,
                "duration": 0.0840909,
                "tempo": 120.0
            },
            {
                "start_time": 21.1931818,
                "end_time": 21.2931818,
                "pitch": 58,
                "velocity": 101,
                "duration": 0.1,
                "tempo": 120.0
            },
            {
                "start_time": 21.3113636,
                "end_time": 21.3954545,
                "pitch": 56,
                "velocity": 101,
                "duration": 0.0840909,
                "tempo": 120.0
            },
            {
                "start_time": 21.4136364,
                "end_time": 21.5159091,
                "pitch": 60,
                "velocity": 101,
                "duration": 0.1022727,
                "tempo": 120.0
            },
            {
                "start_time": 21.5340909,
                "end_time": 21.6181818,
                "pitch": 58,
                "velocity": 101,
                "duration": 0.0840909,
                "tempo": 120.0
            },
            {
                "start_time": 21.6363636,
                "end_time": 21.7204545,
                "pitch": 56,
                "velocity": 101,
                "duration": 0.0840909,
                "tempo": 120.0
            },
            {
                "start_time": 21.7386364,
                "end_time": 21.9340909,
                "pitch": 54,
                "velocity": 101,
                "duration": 0.1954545,
                "tempo": 120.0
            },
            {
                "start_time": 21.9522727,
                "end_time": 22.1477273,
                "pitch": 56,
                "velocity": 101,
                "duration": 0.1954545,
                "tempo": 120.0
            },
            {
                "start_time": 22.1636364,
                "end_time": 22.2636364,
                "pitch": 58,
                "velocity": 101,
                "duration": 0.1,
                "tempo": 120.0
            },
            {
                "start_time": 22.2795455,
                "end_time": 22.3613636,
                "pitch": 56,
                "velocity": 101,
                "duration": 0.0818182,
                "tempo": 120.0
            },
            {
                "start_time": 22.3772727,
                "end_time": 22.4590909,
                "pitch": 58,
                "velocity": 101,
                "duration": 0.0818182,
                "tempo": 120.0
            },
            {
                "start_time": 22.475,
                "end_time": 22.575,
                "pitch": 60,
                "velocity": 101,
                "duration": 0.1,
                "tempo": 120.0
            },
            {
                "start_time": 22.5909091,
                "end_time": 22.7954545,
                "pitch": 62,
                "velocity": 101,
                "duration": 0.2045455,
                "tempo": 120.0
            },
            {
                "start_time": 22.8136364,
                "end_time": 22.8977273,
                "pitch": 60,
                "velocity": 101,
                "duration": 0.0840909,
                "tempo": 120.0
            },
            {
                "start_time": 22.9159091,
                "end_time": 23.0181818,
                "pitch": 58,
                "velocity": 101,
                "duration": 0.1022727,
                "tempo": 120.0
            },
            {
                "start_time": 23.0340909,
                "end_time": 23.1204545,
                "pitch": 56,
                "velocity": 101,
                "duration": 0.0863636,
                "tempo": 120.0
            },
            {
                "start_time": 23.1386364,
                "end_time": 23.2227273,
                "pitch": 60,
                "velocity": 101,
                "duration": 0.0840909,
                "tempo": 120.0
            },
            {
                "start_time": 23.2409091,
                "end_time": 23.3431818,
                "pitch": 58,
                "velocity": 101,
                "duration": 0.1022727,
                "tempo": 120.0
            },
            {
                "start_time": 23.3590909,
                "end_time": 23.4454545,
                "pitch": 56,
                "velocity": 101,
                "duration": 0.0863636,
                "tempo": 120.0
            },
            {
                "start_time": 23.4636364,
                "end_time": 23.6545455,
                "pitch": 54,
                "velocity": 101,
                "duration": 0.1909091,
                "tempo": 120.0
            },
            {
                "start_time": 23.6704545,
                "end_time": 23.8613636,
                "pitch": 56,
                "velocity": 101,
                "duration": 0.1909091,
                "tempo": 120.0
            },
            {
                "start_time": 23.8772727,
                "end_time": 23.9613636,
                "pitch": 58,
                "velocity": 101,
                "duration": 0.0840909,
                "tempo": 120.0
            },
            {
                "start_time": 23.9772727,
                "end_time": 24.0772727,
                "pitch": 56,
                "velocity": 101,
                "duration": 0.1,
                "tempo": 120.0
            },
            {
                "start_time": 24.0954545,
                "end_time": 24.1772727,
                "pitch": 58,
                "velocity": 101,
                "duration": 0.0818182,
                "tempo": 120.0
            },
            {
                "start_time": 24.1954545,
                "end_time": 24.2954545,
                "pitch": 60,
                "velocity": 101,
                "duration": 0.1,
                "tempo": 120.0
            },
            {
                "start_time": 24.3113636,
                "end_time": 24.5136364,
                "pitch": 62,
                "velocity": 101,
                "duration": 0.2022727,
                "tempo": 120.0
            },
            {
                "start_time": 24.5295455,
                "end_time": 24.6136364,
                "pitch": 60,
                "velocity": 101,
                "duration": 0.0840909,
                "tempo": 120.0
            },
            {
                "start_time": 24.6295455,
                "end_time": 24.7136364,
                "pitch": 58,
                "velocity": 101,
                "duration": 0.0840909,
                "tempo": 120.0
            },
            {
                "start_time": 24.7295455,
                "end_time": 24.8318182,
                "pitch": 56,
                "velocity": 101,
                "duration": 0.1022727,
                "tempo": 120.0
            },
            {
                "start_time": 24.8477273,
                "end_time": 24.9318182,
                "pitch": 60,
                "velocity": 101,
                "duration": 0.0840909,
                "tempo": 120.0
            },
            {
                "start_time": 24.9477273,
                "end_time": 25.0477273,
                "pitch": 58,
                "velocity": 101,
                "duration": 0.1,
                "tempo": 120.0
            },
            {
                "start_time": 25.0659091,
                "end_time": 25.1477273,
                "pitch": 56,
                "velocity": 101,
                "duration": 0.0818182,
                "tempo": 120.0
            },
            {
                "start_time": 25.1659091,
                "end_time": 25.3659091,
                "pitch": 54,
                "velocity": 101,
                "duration": 0.2,
                "tempo": 120.0
            },
            {
                "start_time": 25.3818182,
                "end_time": 25.5840909,
                "pitch": 56,
                "velocity": 101,
                "duration": 0.2022727,
                "tempo": 120.0
            },
            {
                "start_time": 25.6,
                "end_time": 25.6840909,
                "pitch": 58,
                "velocity": 101,
                "duration": 0.0840909,
                "tempo": 120.0
            },
            {
                "start_time": 25.7,
                "end_time": 25.8022727,
                "pitch": 56,
                "velocity": 101,
                "duration": 0.1022727,
                "tempo": 120.0
            },
            {
                "start_time": 25.8181818,
                "end_time": 25.9022727,
                "pitch": 58,
                "velocity": 101,
                "duration": 0.0840909,
                "tempo": 120.0
            },
            {
                "start_time": 25.9181818,
                "end_time": 26.0181818,
                "pitch": 60,
                "velocity": 101,
                "duration": 0.1,
                "tempo": 120.0
            },
            {
                "start_time": 26.0363636,
                "end_time": 26.2204545,
                "pitch": 62,
                "velocity": 101,
                "duration": 0.1840909,
                "tempo": 120.0
            },
            {
                "start_time": 26.2363636,
                "end_time": 26.3363636,
                "pitch": 60,
                "velocity": 101,
                "duration": 0.1,
                "tempo": 120.0
            },
            {
                "start_time": 26.3545455,
                "end_time": 26.4363636,
                "pitch": 58,
                "velocity": 101,
                "duration": 0.0818182,
                "tempo": 120.0
            },
            {
                "start_time": 26.4545455,
                "end_time": 26.5545455,
                "pitch": 56,
                "velocity": 101,
                "duration": 0.1,
                "tempo": 120.0
            },
            {
                "start_time": 26.5704545,
                "end_time": 26.6545455,
                "pitch": 60,
                "velocity": 101,
                "duration": 0.0840909,
                "tempo": 120.0
            },
            {
                "start_time": 26.6704545,
                "end_time": 26.7727273,
                "pitch": 58,
                "velocity": 101,
                "duration": 0.1022727,
                "tempo": 120.0
            },
            {
                "start_time": 26.7886364,
                "end_time": 26.8727273,
                "pitch": 56,
                "velocity": 101,
                "duration": 0.0840909,
                "tempo": 120.0
            },
            {
                "start_time": 26.8886364,
                "end_time": 27.0886364,
                "pitch": 54,
                "velocity": 101,
                "duration": 0.2,
                "tempo": 120.0
            },
            {
                "start_time": 27.1068182,
                "end_time": 27.3068182,
                "pitch": 56,
                "velocity": 101,
                "duration": 0.2,
                "tempo": 120.0
            },
            {
                "start_time": 27.3227273,
                "end_time": 27.4068182,
                "pitch": 58,
                "velocity": 101,
                "duration": 0.0840909,
                "tempo": 120.0
            },
            {
                "start_time": 27.6340909,
                "end_time": 27.7159091,
                "pitch": 60,
                "velocity": 101,
                "duration": 0.0818182,
                "tempo": 120.0
            },
            {
                "start_time": 27.9454545,
                "end_time": 28.0454545,
                "pitch": 63,
                "velocity": 101,
                "duration": 0.1,
                "tempo": 120.0
            },
            {
                "start_time": 28.2795455,
                "end_time": 28.3636364,
                "pitch": 56,
                "velocity": 101,
                "duration": 0.0840909,
                "tempo": 120.0
            },
            {
                "start_time": 29.3568182,
                "end_time": 29.4409091,
                "pitch": 60,
                "velocity": 101,
                "duration": 0.0840909,
                "tempo": 120.0
            },
            {
                "start_time": 29.6704545,
                "end_time": 29.7681818,
                "pitch": 63,
                "velocity": 101,
                "duration": 0.0977273,
                "tempo": 120.0
            },
            {
                "start_time": 29.8840909,
                "end_time": 30.0886364,
                "pitch": 73,
                "velocity": 101,
                "duration": 0.2045455,
                "tempo": 120.0
            },
            {
                "start_time": 30.1045455,
                "end_time": 30.1909091,
                "pitch": 72,
                "velocity": 101,
                "duration": 0.0863636,
                "tempo": 120.0
            },
            {
                "start_time": 30.2068182,
                "end_time": 30.3113636,
                "pitch": 70,
                "velocity": 101,
                "duration": 0.1045455,
                "tempo": 120.0
            },
            {
                "start_time": 30.3272727,
                "end_time": 30.5272727,
                "pitch": 68,
                "velocity": 101,
                "duration": 0.2,
                "tempo": 120.0
            },
            {
                "start_time": 30.5454545,
                "end_time": 30.6295455,
                "pitch": 70,
                "velocity": 101,
                "duration": 0.0840909,
                "tempo": 120.0
            },
            {
                "start_time": 30.6454545,
                "end_time": 30.7295455,
                "pitch": 67,
                "velocity": 101,
                "duration": 0.0840909,
                "tempo": 120.0
            },
            {
                "start_time": 30.7454545,
                "end_time": 30.8409091,
                "pitch": 68,
                "velocity": 101,
                "duration": 0.0954545,
                "tempo": 120.0
            },
            {
                "start_time": 31.0636364,
                "end_time": 31.1431818,
                "pitch": 60,
                "velocity": 101,
                "duration": 0.0795455,
                "tempo": 120.0
            },
            {
                "start_time": 31.3818182,
                "end_time": 31.4681818,
                "pitch": 63,
                "velocity": 101,
                "duration": 0.0863636,
                "tempo": 120.0
            },
            {
                "start_time": 31.7045455,
                "end_time": 31.8045455,
                "pitch": 56,
                "velocity": 101,
                "duration": 0.1,
                "tempo": 120.0
            },
            {
                "start_time": 32.7863636,
                "end_time": 32.8681818,
                "pitch": 60,
                "velocity": 101,
                "duration": 0.0818182,
                "tempo": 120.0
            },
            {
                "start_time": 33.1022727,
                "end_time": 33.1840909,
                "pitch": 63,
                "velocity": 101,
                "duration": 0.0818182,
                "tempo": 120.0
            },
            {
                "start_time": 33.3181818,
                "end_time": 33.5227273,
                "pitch": 73,
                "velocity": 101,
                "duration": 0.2045455,
                "tempo": 120.0
            },
            {
                "start_time": 33.5409091,
                "end_time": 33.6272727,
                "pitch": 72,
                "velocity": 101,
                "duration": 0.0863636,
                "tempo": 120.0
            },
            {
                "start_time": 33.6431818,
                "end_time": 33.7295455,
                "pitch": 70,
                "velocity": 101,
                "duration": 0.0863636,
                "tempo": 120.0
            },
            {
                "start_time": 33.7454545,
                "end_time": 33.9431818,
                "pitch": 68,
                "velocity": 101,
                "duration": 0.1977273,
                "tempo": 120.0
            },
            {
                "start_time": 33.9590909,
                "end_time": 34.0568182,
                "pitch": 70,
                "velocity": 101,
                "duration": 0.0977273,
                "tempo": 120.0
            },
            {
                "start_time": 34.075,
                "end_time": 34.1568182,
                "pitch": 67,
                "velocity": 101,
                "duration": 0.0818182,
                "tempo": 120.0
            },
            {
                "start_time": 34.1727273,
                "end_time": 34.2727273,
                "pitch": 68,
                "velocity": 101,
                "duration": 0.1,
                "tempo": 120.0
            },
            {
                "start_time": 34.2886364,
                "end_time": 34.3727273,
                "pitch": 48,
                "velocity": 101,
                "duration": 0.0840909,
                "tempo": 120.0
            },
            {
                "start_time": 34.3909091,
                "end_time": 34.4727273,
                "pitch": 48,
                "velocity": 101,
                "duration": 0.0818182,
                "tempo": 120.0
            },
            {
                "start_time": 34.6068182,
                "end_time": 34.625,
                "pitch": 48,
                "velocity": 101,
                "duration": 0.0181818,
                "tempo": 120.0
            }
        ],
        "Synth Bass 1": [
            {
                "start_time": 0.0159091,
                "end_time": 0.0772727,
                "pitch": 44,
                "velocity": 64,
                "duration": 0.0613636,
                "tempo": 120.0
            },
            {
                "start_time": 0.0931818,
                "end_time": 0.1704545,
                "pitch": 44,
                "velocity": 64,
                "duration": 0.0772727,
                "tempo": 120.0
            },
            {
                "start_time": 0.2954545,
                "end_time": 0.3795455,
                "pitch": 44,
                "velocity": 64,
                "duration": 0.0840909,
                "tempo": 120.0
            },
            {
                "start_time": 0.3954545,
                "end_time": 0.4954545,
                "pitch": 44,
                "velocity": 64,
                "duration": 0.1,
                "tempo": 120.0
            },
            {
                "start_time": 0.6136364,
                "end_time": 0.6977273,
                "pitch": 44,
                "velocity": 64,
                "duration": 0.0840909,
                "tempo": 120.0
            },
            {
                "start_time": 0.7136364,
                "end_time": 0.8136364,
                "pitch": 44,
                "velocity": 64,
                "duration": 0.1,
                "tempo": 120.0
            },
            {
                "start_time": 0.9318182,
                "end_time": 1.0318182,
                "pitch": 44,
                "velocity": 64,
                "duration": 0.1,
                "tempo": 120.0
            },
            {
                "start_time": 1.0477273,
                "end_time": 1.1318182,
                "pitch": 44,
                "velocity": 64,
                "duration": 0.0840909,
                "tempo": 120.0
            },
            {
                "start_time": 1.1477273,
                "end_time": 1.25,
                "pitch": 44,
                "velocity": 64,
                "duration": 0.1022727,
                "tempo": 120.0
            },
            {
                "start_time": 1.3659091,
                "end_time": 1.45,
                "pitch": 44,
                "velocity": 64,
                "duration": 0.0840909,
                "tempo": 120.0
            },
            {
                "start_time": 1.5840909,
                "end_time": 1.6681818,
                "pitch": 44,
                "velocity": 64,
                "duration": 0.0840909,
                "tempo": 120.0
            },
            {
                "start_time": 1.6840909,
                "end_time": 1.7840909,
                "pitch": 44,
                "velocity": 64,
                "duration": 0.1,
                "tempo": 120.0
            },
            {
                "start_time": 1.8,
                "end_time": 1.8840909,
                "pitch": 44,
                "velocity": 64,
                "duration": 0.0840909,
                "tempo": 120.0
            },
            {
                "start_time": 2.0181818,
                "end_time": 2.1022727,
                "pitch": 44,
                "velocity": 64,
                "duration": 0.0840909,
                "tempo": 120.0
            },
            {
                "start_time": 2.1181818,
                "end_time": 2.2022727,
                "pitch": 44,
                "velocity": 64,
                "duration": 0.0840909,
                "tempo": 120.0
            },
            {
                "start_time": 2.3363636,
                "end_time": 2.4204545,
                "pitch": 44,
                "velocity": 64,
                "duration": 0.0840909,
                "tempo": 120.0
            },
            {
                "start_time": 2.4363636,
                "end_time": 2.5363636,
                "pitch": 44,
                "velocity": 64,
                "duration": 0.1,
                "tempo": 120.0
            },
            {
                "start_time": 2.6545455,
                "end_time": 2.7545455,
                "pitch": 44,
                "velocity": 64,
                "duration": 0.1,
                "tempo": 120.0
            },
            {
                "start_time": 2.7727273,
                "end_time": 2.8545455,
                "pitch": 44,
                "velocity": 64,
                "duration": 0.0818182,
                "tempo": 120.0
            },
            {
                "start_time": 2.8727273,
                "end_time": 2.9568182,
                "pitch": 44,
                "velocity": 64,
                "duration": 0.0840909,
                "tempo": 120.0
            },
            {
                "start_time": 3.0886364,
                "end_time": 3.1727273,
                "pitch": 44,
                "velocity": 64,
                "duration": 0.0840909,
                "tempo": 120.0
            },
            {
                "start_time": 3.3068182,
                "end_time": 3.3886364,
                "pitch": 44,
                "velocity": 64,
                "duration": 0.0818182,
                "tempo": 120.0
            },
            {
                "start_time": 3.4045455,
                "end_time": 3.5045455,
                "pitch": 44,
                "velocity": 64,
                "duration": 0.1,
                "tempo": 120.0
            },
            {
                "start_time": 3.5204545,
                "end_time": 3.6022727,
                "pitch": 44,
                "velocity": 64,
                "duration": 0.0818182,
                "tempo": 120.0
            },
            {
                "start_time": 3.7159091,
                "end_time": 3.8136364,
                "pitch": 44,
                "velocity": 64,
                "duration": 0.0977273,
                "tempo": 120.0
            },
            {
                "start_time": 3.8318182,
                "end_time": 3.9136364,
                "pitch": 44,
                "velocity": 64,
                "duration": 0.0818182,
                "tempo": 120.0
            },
            {
                "start_time": 4.0431818,
                "end_time": 4.125,
                "pitch": 44,
                "velocity": 64,
                "duration": 0.0818182,
                "tempo": 120.0
            },
            {
                "start_time": 4.1431818,
                "end_time": 4.2454545,
                "pitch": 44,
                "velocity": 64,
                "duration": 0.1022727,
                "tempo": 120.0
            },
            {
                "start_time": 4.3636364,
                "end_time": 4.45,
                "pitch": 44,
                "velocity": 64,
                "duration": 0.0863636,
                "tempo": 120.0
            },
            {
                "start_time": 4.4681818,
                "end_time": 4.5704545,
                "pitch": 44,
                "velocity": 64,
                "duration": 0.1022727,
                "tempo": 120.0
            },
            {
                "start_time": 4.5863636,
                "end_time": 4.6704545,
                "pitch": 44,
                "velocity": 64,
                "duration": 0.0840909,
                "tempo": 120.0
            },
            {
                "start_time": 4.8045455,
                "end_time": 4.8886364,
                "pitch": 44,
                "velocity": 64,
                "duration": 0.0840909,
                "tempo": 120.0
            },
            {
                "start_time": 5.0227273,
                "end_time": 5.1045455,
                "pitch": 44,
                "velocity": 64,
                "duration": 0.0818182,
                "tempo": 120.0
            },
            {
                "start_time": 5.1227273,
                "end_time": 5.2068182,
                "pitch": 44,
                "velocity": 64,
                "duration": 0.0840909,
                "tempo": 120.0
            },
            {
                "start_time": 5.2227273,
                "end_time": 5.3227273,
                "pitch": 44,
                "velocity": 64,
                "duration": 0.1,
                "tempo": 120.0
            },
            {
                "start_time": 5.4409091,
                "end_time": 5.5386364,
                "pitch": 44,
                "velocity": 64,
                "duration": 0.0977273,
                "tempo": 120.0
            },
            {
                "start_time": 5.5545455,
                "end_time": 5.6363636,
                "pitch": 44,
                "velocity": 64,
                "duration": 0.0818182,
                "tempo": 120.0
            },
            {
                "start_time": 5.7681818,
                "end_time": 5.85,
                "pitch": 44,
                "velocity": 64,
                "duration": 0.0818182,
                "tempo": 120.0
            },
            {
                "start_time": 5.8659091,
                "end_time": 5.9522727,
                "pitch": 44,
                "velocity": 64,
                "duration": 0.0863636,
                "tempo": 120.0
            },
            {
                "start_time": 6.0886364,
                "end_time": 6.1727273,
                "pitch": 44,
                "velocity": 64,
                "duration": 0.0840909,
                "tempo": 120.0
            },
            {
                "start_time": 6.1909091,
                "end_time": 6.2931818,
                "pitch": 44,
                "velocity": 64,
                "duration": 0.1022727,
                "tempo": 120.0
            },
            {
                "start_time": 6.3113636,
                "end_time": 6.3931818,
                "pitch": 44,
                "velocity": 64,
                "duration": 0.0818182,
                "tempo": 120.0
            },
            {
                "start_time": 6.5272727,
                "end_time": 6.6113636,
                "pitch": 44,
                "velocity": 64,
                "duration": 0.0840909,
                "tempo": 120.0
            },
            {
                "start_time": 6.7295455,
                "end_time": 6.825,
                "pitch": 44,
                "velocity": 64,
                "duration": 0.0954545,
                "tempo": 120.0
            },
            {
                "start_time": 6.8409091,
                "end_time": 6.9204545,
                "pitch": 44,
                "velocity": 64,
                "duration": 0.0795455,
                "tempo": 120.0
            },
            {
                "start_time": 6.9363636,
                "end_time": 7.0318182,
                "pitch": 44,
                "velocity": 64,
                "duration": 0.0954545,
                "tempo": 120.0
            },
            {
                "start_time": 7.1431818,
                "end_time": 7.2431818,
                "pitch": 44,
                "velocity": 64,
                "duration": 0.1,
                "tempo": 120.0
            },
            {
                "start_time": 7.2613636,
                "end_time": 7.3431818,
                "pitch": 44,
                "velocity": 64,
                "duration": 0.0818182,
                "tempo": 120.0
            },
            {
                "start_time": 7.4613636,
                "end_time": 7.5613636,
                "pitch": 44,
                "velocity": 64,
                "duration": 0.1,
                "tempo": 120.0
            },
            {
                "start_time": 7.5772727,
                "end_time": 7.6636364,
                "pitch": 44,
                "velocity": 64,
                "duration": 0.0863636,
                "tempo": 120.0
            },
            {
                "start_time": 7.8,
                "end_time": 7.8863636,
                "pitch": 44,
                "velocity": 64,
                "duration": 0.0863636,
                "tempo": 120.0
            },
            {
                "start_time": 7.9022727,
                "end_time": 8.0068182,
                "pitch": 44,
                "velocity": 64,
                "duration": 0.1045455,
                "tempo": 120.0
            },
            {
                "start_time": 8.0227273,
                "end_time": 8.1068182,
                "pitch": 44,
                "velocity": 64,
                "duration": 0.0840909,
                "tempo": 120.0
            },
            {
                "start_time": 8.2227273,
                "end_time": 8.325,
                "pitch": 44,
                "velocity": 64,
                "duration": 0.1022727,
                "tempo": 120.0
            },
            {
                "start_time": 8.4409091,
                "end_time": 8.5386364,
                "pitch": 44,
                "velocity": 64,
                "duration": 0.0977273,
                "tempo": 120.0
            },
            {
                "start_time": 8.5568182,
                "end_time": 8.6386364,
                "pitch": 44,
                "velocity": 64,
                "duration": 0.0818182,
                "tempo": 120.0
            },
            {
                "start_time": 8.6545455,
                "end_time": 8.7522727,
                "pitch": 44,
                "velocity": 64,
                "duration": 0.0977273,
                "tempo": 120.0
            },
            {
                "start_time": 8.8681818,
                "end_time": 8.95,
                "pitch": 44,
                "velocity": 64,
                "duration": 0.0818182,
                "tempo": 120.0
            },
            {
                "start_time": 8.9681818,
                "end_time": 9.0681818,
                "pitch": 44,
                "velocity": 64,
                "duration": 0.1,
                "tempo": 120.0
            },
            {
                "start_time": 9.1840909,
                "end_time": 9.2863636,
                "pitch": 44,
                "velocity": 64,
                "duration": 0.1022727,
                "tempo": 120.0
            },
            {
                "start_time": 9.3022727,
                "end_time": 9.3886364,
                "pitch": 44,
                "velocity": 64,
                "duration": 0.0863636,
                "tempo": 120.0
            },
            {
                "start_time": 9.525,
                "end_time": 9.6090909,
                "pitch": 44,
                "velocity": 64,
                "duration": 0.0840909,
                "tempo": 120.0
            },
            {
                "start_time": 9.6272727,
                "end_time": 9.7136364,
                "pitch": 44,
                "velocity": 64,
                "duration": 0.0863636,
                "tempo": 120.0
            },
            {
                "start_time": 9.7295455,
                "end_time": 9.8272727,
                "pitch": 44,
                "velocity": 64,
                "duration": 0.0977273,
                "tempo": 120.0
            },
            {
                "start_time": 9.9431818,
                "end_time": 10.0409091,
                "pitch": 44,
                "velocity": 64,
                "duration": 0.0977273,
                "tempo": 120.0
            },
            {
                "start_time": 10.1568182,
                "end_time": 10.2568182,
                "pitch": 44,
                "velocity": 64,
                "duration": 0.1,
                "tempo": 120.0
            },
            {
                "start_time": 10.2727273,
                "end_time": 10.3568182,
                "pitch": 44,
                "velocity": 64,
                "duration": 0.0840909,
                "tempo": 120.0
            },
            {
                "start_time": 10.3727273,
                "end_time": 10.4568182,
                "pitch": 44,
                "velocity": 64,
                "duration": 0.0840909,
                "tempo": 120.0
            },
            {
                "start_time": 10.5909091,
                "end_time": 10.675,
                "pitch": 44,
                "velocity": 64,
                "duration": 0.0840909,
                "tempo": 120.0
            },
            {
                "start_time": 10.6909091,
                "end_time": 10.7909091,
                "pitch": 44,
                "velocity": 64,
                "duration": 0.1,
                "tempo": 120.0
            },
            {
                "start_time": 10.9090909,
                "end_time": 11.0090909,
                "pitch": 44,
                "velocity": 64,
                "duration": 0.1,
                "tempo": 120.0
            },
            {
                "start_time": 11.025,
                "end_time": 11.1113636,
                "pitch": 44,
                "velocity": 64,
                "duration": 0.0863636,
                "tempo": 120.0
            },
            {
                "start_time": 11.2318182,
                "end_time": 11.3340909,
                "pitch": 44,
                "velocity": 64,
                "duration": 0.1022727,
                "tempo": 120.0
            },
            {
                "start_time": 11.35,
                "end_time": 11.4363636,
                "pitch": 44,
                "velocity": 64,
                "duration": 0.0863636,
                "tempo": 120.0
            },
            {
                "start_time": 11.4545455,
                "end_time": 11.5522727,
                "pitch": 44,
                "velocity": 64,
                "duration": 0.0977273,
                "tempo": 120.0
            },
            {
                "start_time": 11.6659091,
                "end_time": 11.7659091,
                "pitch": 44,
                "velocity": 64,
                "duration": 0.1,
                "tempo": 120.0
            },
            {
                "start_time": 11.8795455,
                "end_time": 11.9613636,
                "pitch": 44,
                "velocity": 64,
                "duration": 0.0818182,
                "tempo": 120.0
            },
            {
                "start_time": 11.9772727,
                "end_time": 12.0772727,
                "pitch": 44,
                "velocity": 64,
                "duration": 0.1,
                "tempo": 120.0
            },
            {
                "start_time": 12.0931818,
                "end_time": 12.175,
                "pitch": 44,
                "velocity": 64,
                "duration": 0.0818182,
                "tempo": 120.0
            },
            {
                "start_time": 12.3068182,
                "end_time": 12.3886364,
                "pitch": 44,
                "velocity": 64,
                "duration": 0.0818182,
                "tempo": 120.0
            },
            {
                "start_time": 12.4068182,
                "end_time": 12.5068182,
                "pitch": 44,
                "velocity": 64,
                "duration": 0.1,
                "tempo": 120.0
            },
            {
                "start_time": 12.6227273,
                "end_time": 12.7068182,
                "pitch": 44,
                "velocity": 64,
                "duration": 0.0840909,
                "tempo": 120.0
            },
            {
                "start_time": 12.725,
                "end_time": 12.825,
                "pitch": 44,
                "velocity": 64,
                "duration": 0.1,
                "tempo": 120.0
            },
            {
                "start_time": 12.9409091,
                "end_time": 13.0431818,
                "pitch": 44,
                "velocity": 64,
                "duration": 0.1022727,
                "tempo": 120.0
            },
            {
                "start_time": 13.0590909,
                "end_time": 13.1431818,
                "pitch": 44,
                "velocity": 64,
                "duration": 0.0840909,
                "tempo": 120.0
            },
            {
                "start_time": 13.1590909,
                "end_time": 13.2590909,
                "pitch": 44,
                "velocity": 64,
                "duration": 0.1,
                "tempo": 120.0
            },
            {
                "start_time": 13.3772727,
                "end_time": 13.4613636,
                "pitch": 44,
                "velocity": 64,
                "duration": 0.0840909,
                "tempo": 120.0
            },
            {
                "start_time": 13.5931818,
                "end_time": 13.6772727,
                "pitch": 44,
                "velocity": 64,
                "duration": 0.0840909,
                "tempo": 120.0
            },
            {
                "start_time": 13.6954545,
                "end_time": 13.7954545,
                "pitch": 44,
                "velocity": 64,
                "duration": 0.1,
                "tempo": 120.0
            },
            {
                "start_time": 13.8113636,
                "end_time": 13.8954545,
                "pitch": 44,
                "velocity": 64,
                "duration": 0.0840909,
                "tempo": 120.0
            },
            {
                "start_time": 14.0295455,
                "end_time": 14.1136364,
                "pitch": 44,
                "velocity": 64,
                "duration": 0.0840909,
                "tempo": 120.0
            },
            {
                "start_time": 14.1295455,
                "end_time": 14.2136364,
                "pitch": 44,
                "velocity": 64,
                "duration": 0.0840909,
                "tempo": 120.0
            },
            {
                "start_time": 14.3477273,
                "end_time": 14.4318182,
                "pitch": 44,
                "velocity": 64,
                "duration": 0.0840909,
                "tempo": 120.0
            },
            {
                "start_time": 14.4477273,
                "end_time": 14.5454545,
                "pitch": 44,
                "velocity": 64,
                "duration": 0.0977273,
                "tempo": 120.0
            },
            {
                "start_time": 14.6613636,
                "end_time": 14.7590909,
                "pitch": 44,
                "velocity": 64,
                "duration": 0.0977273,
                "tempo": 120.0
            },
            {
                "start_time": 14.775,
                "end_time": 14.8568182,
                "pitch": 44,
                "velocity": 64,
                "duration": 0.0818182,
                "tempo": 120.0
            },
            {
                "start_time": 14.8727273,
                "end_time": 14.9590909,
                "pitch": 44,
                "velocity": 64,
                "duration": 0.0863636,
                "tempo": 120.0
            },
            {
                "start_time": 15.0954545,
                "end_time": 15.1818182,
                "pitch": 44,
                "velocity": 64,
                "duration": 0.0863636,
                "tempo": 120.0
            },
            {
                "start_time": 15.3181818,
                "end_time": 15.4,
                "pitch": 44,
                "velocity": 64,
                "duration": 0.0818182,
                "tempo": 120.0
            },
            {
                "start_time": 15.4159091,
                "end_time": 15.5136364,
                "pitch": 44,
                "velocity": 64,
                "duration": 0.0977273,
                "tempo": 120.0
            },
            {
                "start_time": 15.5295455,
                "end_time": 15.6136364,
                "pitch": 44,
                "velocity": 64,
                "duration": 0.0840909,
                "tempo": 120.0
            },
            {
                "start_time": 15.7272727,
                "end_time": 15.8272727,
                "pitch": 44,
                "velocity": 64,
                "duration": 0.1,
                "tempo": 120.0
            },
            {
                "start_time": 15.8431818,
                "end_time": 15.9272727,
                "pitch": 44,
                "velocity": 64,
                "duration": 0.0840909,
                "tempo": 120.0
            },
            {
                "start_time": 16.0613636,
                "end_time": 16.1454545,
                "pitch": 44,
                "velocity": 64,
                "duration": 0.0840909,
                "tempo": 120.0
            },
            {
                "start_time": 16.1613636,
                "end_time": 16.2613636,
                "pitch": 44,
                "velocity": 64,
                "duration": 0.1,
                "tempo": 120.0
            },
            {
                "start_time": 16.3795455,
                "end_time": 16.4636364,
                "pitch": 44,
                "velocity": 64,
                "duration": 0.0840909,
                "tempo": 120.0
            },
            {
                "start_time": 16.4795455,
                "end_time": 16.5795455,
                "pitch": 44,
                "velocity": 64,
                "duration": 0.1,
                "tempo": 120.0
            },
            {
                "start_time": 16.5977273,
                "end_time": 16.6818182,
                "pitch": 44,
                "velocity": 64,
                "duration": 0.0840909,
                "tempo": 120.0
            },
            {
                "start_time": 16.8181818,
                "end_time": 16.9045455,
                "pitch": 44,
                "velocity": 64,
                "duration": 0.0863636,
                "tempo": 120.0
            },
            {
                "start_time": 17.0409091,
                "end_time": 17.1227273,
                "pitch": 44,
                "velocity": 64,
                "duration": 0.0818182,
                "tempo": 120.0
            },
            {
                "start_time": 17.1386364,
                "end_time": 17.2227273,
                "pitch": 44,
                "velocity": 64,
                "duration": 0.0840909,
                "tempo": 120.0
            },
            {
                "start_time": 17.2386364,
                "end_time": 17.3363636,
                "pitch": 44,
                "velocity": 64,
                "duration": 0.0977273,
                "tempo": 120.0
            },
            {
                "start_time": 17.45,
                "end_time": 17.55,
                "pitch": 44,
                "velocity": 64,
                "duration": 0.1,
                "tempo": 120.0
            },
            {
                "start_time": 17.5659091,
                "end_time": 17.6477273,
                "pitch": 44,
                "velocity": 64,
                "duration": 0.0818182,
                "tempo": 120.0
            },
            {
                "start_time": 17.7795455,
                "end_time": 17.8613636,
                "pitch": 44,
                "velocity": 64,
                "duration": 0.0818182,
                "tempo": 120.0
            },
            {
                "start_time": 17.8772727,
                "end_time": 17.9613636,
                "pitch": 44,
                "velocity": 64,
                "duration": 0.0840909,
                "tempo": 120.0
            },
            {
                "start_time": 18.1,
                "end_time": 18.1840909,
                "pitch": 44,
                "velocity": 64,
                "duration": 0.0840909,
                "tempo": 120.0
            },
            {
                "start_time": 18.2022727,
                "end_time": 18.3045455,
                "pitch": 44,
                "velocity": 64,
                "duration": 0.1022727,
                "tempo": 120.0
            },
            {
                "start_time": 18.3204545,
                "end_time": 18.4045455,
                "pitch": 44,
                "velocity": 64,
                "duration": 0.0840909,
                "tempo": 120.0
            },
            {
                "start_time": 18.5386364,
                "end_time": 18.6227273,
                "pitch": 44,
                "velocity": 64,
                "duration": 0.0840909,
                "tempo": 120.0
            },
            {
                "start_time": 18.7386364,
                "end_time": 18.8340909,
                "pitch": 44,
                "velocity": 64,
                "duration": 0.0954545,
                "tempo": 120.0
            },
            {
                "start_time": 18.85,
                "end_time": 18.9295455,
                "pitch": 44,
                "velocity": 64,
                "duration": 0.0795455,
                "tempo": 120.0
            },
            {
                "start_time": 18.9454545,
                "end_time": 19.0431818,
                "pitch": 44,
                "velocity": 64,
                "duration": 0.0977273,
                "tempo": 120.0
            },
            {
                "start_time": 19.1545455,
                "end_time": 19.2545455,
                "pitch": 44,
                "velocity": 64,
                "duration": 0.1,
                "tempo": 120.0
            },
            {
                "start_time": 19.2704545,
                "end_time": 19.3545455,
                "pitch": 44,
                "velocity": 64,
                "duration": 0.0840909,
                "tempo": 120.0
            },
            {
                "start_time": 19.4727273,
                "end_time": 19.5727273,
                "pitch": 44,
                "velocity": 64,
                "duration": 0.1,
                "tempo": 120.0
            },
            {
                "start_time": 19.5886364,
                "end_time": 19.675,
                "pitch": 44,
                "velocity": 64,
                "duration": 0.0863636,
                "tempo": 120.0
            },
            {
                "start_time": 19.8113636,
                "end_time": 19.8977273,
                "pitch": 44,
                "velocity": 64,
                "duration": 0.0863636,
                "tempo": 120.0
            },
            {
                "start_time": 19.9136364,
                "end_time": 20.0159091,
                "pitch": 44,
                "velocity": 64,
                "duration": 0.1022727,
                "tempo": 120.0
            },
            {
                "start_time": 20.0340909,
                "end_time": 20.1181818,
                "pitch": 44,
                "velocity": 64,
                "duration": 0.0840909,
                "tempo": 120.0
            },
            {
                "start_time": 20.2386364,
                "end_time": 20.3409091,
                "pitch": 44,
                "velocity": 64,
                "duration": 0.1022727,
                "tempo": 120.0
            },
            {
                "start_time": 20.4613636,
                "end_time": 20.5568182,
                "pitch": 44,
                "velocity": 64,
                "duration": 0.0954545,
                "tempo": 120.0
            },
            {
                "start_time": 20.5727273,
                "end_time": 20.6522727,
                "pitch": 50,
                "velocity": 64,
                "duration": 0.0795455,
                "tempo": 120.0
            },
            {
                "start_time": 20.6681818,
                "end_time": 20.7636364,
                "pitch": 50,
                "velocity": 64,
                "duration": 0.0954545,
                "tempo": 120.0
            },
            {
                "start_time": 20.875,
                "end_time": 20.9590909,
                "pitch": 50,
                "velocity": 64,
                "duration": 0.0840909,
                "tempo": 120.0
            },
            {
                "start_time": 20.975,
                "end_time": 21.0772727,
                "pitch": 50,
                "velocity": 64,
                "duration": 0.1022727,
                "tempo": 120.0
            },
            {
                "start_time": 21.1931818,
                "end_time": 21.2931818,
                "pitch": 50,
                "velocity": 64,
                "duration": 0.1,
                "tempo": 120.0
            },
            {
                "start_time": 21.3113636,
                "end_time": 21.3954545,
                "pitch": 50,
                "velocity": 64,
                "duration": 0.0840909,
                "tempo": 120.0
            },
            {
                "start_time": 21.5340909,
                "end_time": 21.6181818,
                "pitch": 50,
                "velocity": 64,
                "duration": 0.0840909,
                "tempo": 120.0
            },
            {
                "start_time": 21.6363636,
                "end_time": 21.7204545,
                "pitch": 50,
                "velocity": 64,
                "duration": 0.0840909,
                "tempo": 120.0
            },
            {
                "start_time": 21.7386364,
                "end_time": 21.8363636,
                "pitch": 50,
                "velocity": 64,
                "duration": 0.0977273,
                "tempo": 120.0
            },
            {
                "start_time": 21.9522727,
                "end_time": 22.05,
                "pitch": 50,
                "velocity": 64,
                "duration": 0.0977273,
                "tempo": 120.0
            },
            {
                "start_time": 22.1636364,
                "end_time": 22.2636364,
                "pitch": 50,
                "velocity": 64,
                "duration": 0.1,
                "tempo": 120.0
            },
            {
                "start_time": 22.2795455,
                "end_time": 22.3613636,
                "pitch": 50,
                "velocity": 64,
                "duration": 0.0818182,
                "tempo": 120.0
            },
            {
                "start_time": 22.3772727,
                "end_time": 22.4590909,
                "pitch": 50,
                "velocity": 64,
                "duration": 0.0818182,
                "tempo": 120.0
            },
            {
                "start_time": 22.5909091,
                "end_time": 22.675,
                "pitch": 50,
                "velocity": 64,
                "duration": 0.0840909,
                "tempo": 120.0
            },
            {
                "start_time": 22.6931818,
                "end_time": 22.7954545,
                "pitch": 50,
                "velocity": 64,
                "duration": 0.1022727,
                "tempo": 120.0
            },
            {
                "start_time": 22.9159091,
                "end_time": 23.0181818,
                "pitch": 50,
                "velocity": 64,
                "duration": 0.1022727,
                "tempo": 120.0
            },
            {
                "start_time": 23.0340909,
                "end_time": 23.1204545,
                "pitch": 50,
                "velocity": 64,
                "duration": 0.0863636,
                "tempo": 120.0
            },
            {
                "start_time": 23.2409091,
                "end_time": 23.3431818,
                "pitch": 50,
                "velocity": 64,
                "duration": 0.1022727,
                "tempo": 120.0
            },
            {
                "start_time": 23.3590909,
                "end_time": 23.4454545,
                "pitch": 50,
                "velocity": 64,
                "duration": 0.0863636,
                "tempo": 120.0
            },
            {
                "start_time": 23.4636364,
                "end_time": 23.5590909,
                "pitch": 50,
                "velocity": 64,
                "duration": 0.0954545,
                "tempo": 120.0
            },
            {
                "start_time": 23.6704545,
                "end_time": 23.7659091,
                "pitch": 50,
                "velocity": 64,
                "duration": 0.0954545,
                "tempo": 120.0
            },
            {
                "start_time": 23.8772727,
                "end_time": 23.9613636,
                "pitch": 50,
                "velocity": 64,
                "duration": 0.0840909,
                "tempo": 120.0
            },
            {
                "start_time": 23.9772727,
                "end_time": 24.0772727,
                "pitch": 50,
                "velocity": 64,
                "duration": 0.1,
                "tempo": 120.0
            },
            {
                "start_time": 24.0954545,
                "end_time": 24.1772727,
                "pitch": 50,
                "velocity": 64,
                "duration": 0.0818182,
                "tempo": 120.0
            },
            {
                "start_time": 24.3113636,
                "end_time": 24.3954545,
                "pitch": 50,
                "velocity": 64,
                "duration": 0.0840909,
                "tempo": 120.0
            },
            {
                "start_time": 24.4113636,
                "end_time": 24.5136364,
                "pitch": 50,
                "velocity": 64,
                "duration": 0.1022727,
                "tempo": 120.0
            },
            {
                "start_time": 24.6295455,
                "end_time": 24.7136364,
                "pitch": 50,
                "velocity": 64,
                "duration": 0.0840909,
                "tempo": 120.0
            },
            {
                "start_time": 24.7295455,
                "end_time": 24.8318182,
                "pitch": 50,
                "velocity": 64,
                "duration": 0.1022727,
                "tempo": 120.0
            },
            {
                "start_time": 24.9477273,
                "end_time": 25.0477273,
                "pitch": 50,
                "velocity": 64,
                "duration": 0.1,
                "tempo": 120.0
            },
            {
                "start_time": 25.0659091,
                "end_time": 25.1477273,
                "pitch": 50,
                "velocity": 64,
                "duration": 0.0818182,
                "tempo": 120.0
            },
            {
                "start_time": 25.1659091,
                "end_time": 25.2659091,
                "pitch": 50,
                "velocity": 64,
                "duration": 0.1,
                "tempo": 120.0
            },
            {
                "start_time": 25.3818182,
                "end_time": 25.4659091,
                "pitch": 50,
                "velocity": 64,
                "duration": 0.0840909,
                "tempo": 120.0
            },
            {
                "start_time": 25.6,
                "end_time": 25.6840909,
                "pitch": 50,
                "velocity": 64,
                "duration": 0.0840909,
                "tempo": 120.0
            },
            {
                "start_time": 25.7,
                "end_time": 25.8022727,
                "pitch": 50,
                "velocity": 64,
                "duration": 0.1022727,
                "tempo": 120.0
            },
            {
                "start_time": 25.8181818,
                "end_time": 25.9022727,
                "pitch": 50,
                "velocity": 64,
                "duration": 0.0840909,
                "tempo": 120.0
            },
            {
                "start_time": 26.0363636,
                "end_time": 26.1181818,
                "pitch": 50,
                "velocity": 64,
                "duration": 0.0818182,
                "tempo": 120.0
            },
            {
                "start_time": 26.1363636,
                "end_time": 26.2204545,
                "pitch": 50,
                "velocity": 64,
                "duration": 0.0840909,
                "tempo": 120.0
            },
            {
                "start_time": 26.3545455,
                "end_time": 26.4363636,
                "pitch": 50,
                "velocity": 64,
                "duration": 0.0818182,
                "tempo": 120.0
            },
            {
                "start_time": 26.4545455,
                "end_time": 26.5545455,
                "pitch": 50,
                "velocity": 64,
                "duration": 0.1,
                "tempo": 120.0
            },
            {
                "start_time": 26.6704545,
                "end_time": 26.7727273,
                "pitch": 50,
                "velocity": 64,
                "duration": 0.1022727,
                "tempo": 120.0
            },
            {
                "start_time": 26.7886364,
                "end_time": 26.8727273,
                "pitch": 50,
                "velocity": 64,
                "duration": 0.0840909,
                "tempo": 120.0
            },
            {
                "start_time": 26.8886364,
                "end_time": 26.9727273,
                "pitch": 50,
                "velocity": 64,
                "duration": 0.0840909,
                "tempo": 120.0
            },
            {
                "start_time": 27.1068182,
                "end_time": 27.1909091,
                "pitch": 50,
                "velocity": 64,
                "duration": 0.0840909,
                "tempo": 120.0
            },
            {
                "start_time": 27.3227273,
                "end_time": 27.4068182,
                "pitch": 50,
                "velocity": 64,
                "duration": 0.0840909,
                "tempo": 120.0
            },
            {
                "start_time": 27.4227273,
                "end_time": 27.5204545,
                "pitch": 44,
                "velocity": 64,
                "duration": 0.0977273,
                "tempo": 120.0
            },
            {
                "start_time": 27.5363636,
                "end_time": 27.6181818,
                "pitch": 44,
                "velocity": 64,
                "duration": 0.0818182,
                "tempo": 120.0
            },
            {
                "start_time": 27.7340909,
                "end_time": 27.8318182,
                "pitch": 44,
                "velocity": 64,
                "duration": 0.0977273,
                "tempo": 120.0
            },
            {
                "start_time": 27.8477273,
                "end_time": 27.9295455,
                "pitch": 44,
                "velocity": 64,
                "duration": 0.0818182,
                "tempo": 120.0
            },
            {
                "start_time": 28.0613636,
                "end_time": 28.1431818,
                "pitch": 44,
                "velocity": 64,
                "duration": 0.0818182,
                "tempo": 120.0
            },
            {
                "start_time": 28.1590909,
                "end_time": 28.2613636,
                "pitch": 44,
                "velocity": 64,
                "duration": 0.1022727,
                "tempo": 120.0
            },
            {
                "start_time": 28.3818182,
                "end_time": 28.4659091,
                "pitch": 44,
                "velocity": 64,
                "duration": 0.0840909,
                "tempo": 120.0
            },
            {
                "start_time": 28.4840909,
                "end_time": 28.5863636,
                "pitch": 44,
                "velocity": 64,
                "duration": 0.1022727,
                "tempo": 120.0
            },
            {
                "start_time": 28.6045455,
                "end_time": 28.6863636,
                "pitch": 44,
                "velocity": 64,
                "duration": 0.0818182,
                "tempo": 120.0
            },
            {
                "start_time": 28.8204545,
                "end_time": 28.9045455,
                "pitch": 44,
                "velocity": 64,
                "duration": 0.0840909,
                "tempo": 120.0
            },
            {
                "start_time": 29.0386364,
                "end_time": 29.1227273,
                "pitch": 44,
                "velocity": 64,
                "duration": 0.0840909,
                "tempo": 120.0
            },
            {
                "start_time": 29.1386364,
                "end_time": 29.2227273,
                "pitch": 44,
                "velocity": 64,
                "duration": 0.0840909,
                "tempo": 120.0
            },
            {
                "start_time": 29.2386364,
                "end_time": 29.3409091,
                "pitch": 44,
                "velocity": 64,
                "duration": 0.1022727,
                "tempo": 120.0
            },
            {
                "start_time": 29.4568182,
                "end_time": 29.5545455,
                "pitch": 44,
                "velocity": 64,
                "duration": 0.0977273,
                "tempo": 120.0
            },
            {
                "start_time": 29.5727273,
                "end_time": 29.6545455,
                "pitch": 44,
                "velocity": 64,
                "duration": 0.0818182,
                "tempo": 120.0
            },
            {
                "start_time": 29.7840909,
                "end_time": 29.8659091,
                "pitch": 44,
                "velocity": 64,
                "duration": 0.0818182,
                "tempo": 120.0
            },
            {
                "start_time": 29.8840909,
                "end_time": 29.9681818,
                "pitch": 44,
                "velocity": 64,
                "duration": 0.0840909,
                "tempo": 120.0
            },
            {
                "start_time": 30.1045455,
                "end_time": 30.1909091,
                "pitch": 44,
                "velocity": 64,
                "duration": 0.0863636,
                "tempo": 120.0
            },
            {
                "start_time": 30.2068182,
                "end_time": 30.3113636,
                "pitch": 44,
                "velocity": 64,
                "duration": 0.1045455,
                "tempo": 120.0
            },
            {
                "start_time": 30.3272727,
                "end_time": 30.4113636,
                "pitch": 44,
                "velocity": 64,
                "duration": 0.0840909,
                "tempo": 120.0
            },
            {
                "start_time": 30.5454545,
                "end_time": 30.6295455,
                "pitch": 44,
                "velocity": 64,
                "duration": 0.0840909,
                "tempo": 120.0
            },
            {
                "start_time": 30.7454545,
                "end_time": 30.8409091,
                "pitch": 44,
                "velocity": 64,
                "duration": 0.0954545,
                "tempo": 120.0
            },
            {
                "start_time": 30.8568182,
                "end_time": 30.9363636,
                "pitch": 44,
                "velocity": 64,
                "duration": 0.0795455,
                "tempo": 120.0
            },
            {
                "start_time": 30.9522727,
                "end_time": 31.0477273,
                "pitch": 44,
                "velocity": 64,
                "duration": 0.0954545,
                "tempo": 120.0
            },
            {
                "start_time": 31.1590909,
                "end_time": 31.2613636,
                "pitch": 44,
                "velocity": 64,
                "duration": 0.1022727,
                "tempo": 120.0
            },
            {
                "start_time": 31.2795455,
                "end_time": 31.3659091,
                "pitch": 44,
                "velocity": 64,
                "duration": 0.0863636,
                "tempo": 120.0
            },
            {
                "start_time": 31.4840909,
                "end_time": 31.5863636,
                "pitch": 44,
                "velocity": 64,
                "duration": 0.1022727,
                "tempo": 120.0
            },
            {
                "start_time": 31.6045455,
                "end_time": 31.6886364,
                "pitch": 44,
                "velocity": 64,
                "duration": 0.0840909,
                "tempo": 120.0
            },
            {
                "start_time": 31.8227273,
                "end_time": 31.9045455,
                "pitch": 44,
                "velocity": 64,
                "duration": 0.0818182,
                "tempo": 120.0
            },
            {
                "start_time": 31.9227273,
                "end_time": 32.0227273,
                "pitch": 44,
                "velocity": 64,
                "duration": 0.1,
                "tempo": 120.0
            },
            {
                "start_time": 32.0386364,
                "end_time": 32.1227273,
                "pitch": 44,
                "velocity": 64,
                "duration": 0.0840909,
                "tempo": 120.0
            },
            {
                "start_time": 32.2409091,
                "end_time": 32.3409091,
                "pitch": 44,
                "velocity": 64,
                "duration": 0.1,
                "tempo": 120.0
            },
            {
                "start_time": 32.4568182,
                "end_time": 32.5568182,
                "pitch": 44,
                "velocity": 64,
                "duration": 0.1,
                "tempo": 120.0
            },
            {
                "start_time": 32.5727273,
                "end_time": 32.6545455,
                "pitch": 44,
                "velocity": 64,
                "duration": 0.0818182,
                "tempo": 120.0
            },
            {
                "start_time": 32.6704545,
                "end_time": 32.7681818,
                "pitch": 44,
                "velocity": 64,
                "duration": 0.0977273,
                "tempo": 120.0
            },
            {
                "start_time": 32.8840909,
                "end_time": 32.9681818,
                "pitch": 44,
                "velocity": 64,
                "duration": 0.0840909,
                "tempo": 120.0
            },
            {
                "start_time": 32.9840909,
                "end_time": 33.0840909,
                "pitch": 44,
                "velocity": 64,
                "duration": 0.1,
                "tempo": 120.0
            },
            {
                "start_time": 33.2022727,
                "end_time": 33.3022727,
                "pitch": 44,
                "velocity": 64,
                "duration": 0.1,
                "tempo": 120.0
            },
            {
                "start_time": 33.3181818,
                "end_time": 33.4045455,
                "pitch": 44,
                "velocity": 64,
                "duration": 0.0863636,
                "tempo": 120.0
            },
            {
                "start_time": 33.5409091,
                "end_time": 33.6272727,
                "pitch": 44,
                "velocity": 64,
                "duration": 0.0863636,
                "tempo": 120.0
            },
            {
                "start_time": 33.6431818,
                "end_time": 33.7295455,
                "pitch": 44,
                "velocity": 64,
                "duration": 0.0863636,
                "tempo": 120.0
            },
            {
                "start_time": 33.7454545,
                "end_time": 33.8454545,
                "pitch": 44,
                "velocity": 64,
                "duration": 0.1,
                "tempo": 120.0
            },
            {
                "start_time": 33.9590909,
                "end_time": 34.0568182,
                "pitch": 44,
                "velocity": 64,
                "duration": 0.0977273,
                "tempo": 120.0
            },
            {
                "start_time": 34.1727273,
                "end_time": 34.2727273,
                "pitch": 44,
                "velocity": 64,
                "duration": 0.1,
                "tempo": 120.0
            },
            {
                "start_time": 34.2886364,
                "end_time": 34.3727273,
                "pitch": 44,
                "velocity": 64,
                "duration": 0.0840909,
                "tempo": 120.0
            },
            {
                "start_time": 34.3909091,
                "end_time": 34.4727273,
                "pitch": 44,
                "velocity": 64,
                "duration": 0.0818182,
                "tempo": 120.0
            },
            {
                "start_time": 34.6068182,
                "end_time": 34.625,
                "pitch": 44,
                "velocity": 64,
                "duration": 0.0181818,
                "tempo": 120.0
            }
        ]
    }
}