{
    "mood": "sad",
    "instruments": {
        "Clarinet": [
            {
                "start_time": 0.0045455,
                "end_time": 0.3613636,
                "pitch": 60,
                "velocity": 64,
                "duration": 0.3568182,
                "tempo": 120.0
            },
            {
                "start_time": 0.3954545,
                "end_time": 0.5636364,
                "pitch": 72,
                "velocity": 64,
                "duration": 0.1681818,
                "tempo": 120.0
            },
            {
                "start_time": 0.5977273,
                "end_time": 0.7659091,
                "pitch": 71,
                "velocity": 64,
                "duration": 0.1681818,
                "tempo": 120.0
            },
            {
                "start_time": 0.8,
                "end_time": 1.1704545,
                "pitch": 68,
                "velocity": 64,
                "duration": 0.3704545,
                "tempo": 120.0
            },
            {
                "start_time": 1.2045455,
                "end_time": 1.5772727,
                "pitch": 67,
                "velocity": 64,
                "duration": 0.3727273,
                "tempo": 120.0
            },
            {
                "start_time": 1.6113636,
                "end_time": 2.1840909,
                "pitch": 71,
                "velocity": 64,
                "duration": 0.5727273,
                "tempo": 120.0
            },
            {
                "start_time": 2.2181818,
                "end_time": 2.7909091,
                "pitch": 67,
                "velocity": 64,
                "duration": 0.5727273,
                "tempo": 120.0
            },
            {
                "start_time": 2.825,
                "end_time": 3.1977273,
                "pitch": 72,
                "velocity": 64,
                "duration": 0.3727273,
                "tempo": 120.0
            },
            {
                "start_time": 3.6295455,
                "end_time": 4.3954545,
                "pitch": 60,
                "velocity": 64,
                "duration": 0.7659091,
                "tempo": 120.0
            },
            {
                "start_time": 4.4295455,
                "end_time": 4.7954545,
                "pitch": 60,
                "velocity": 64,
                "duration": 0.3659091,
                "tempo": 120.0
            },
            {
                "start_time": 4.8295455,
                "end_time": 5.2090909,
                "pitch": 60,
                "velocity": 64,
                "duration": 0.3795455,
                "tempo": 120.0
            }
        ],
        "Electric Guitar (clean)": [
            {
                "start_time": 0.0045455,
                "end_time": 0.3613636,
                "pitch": 48,
                "velocity": 51,
                "duration": 0.3568182,
                "tempo": 120.0
            },
            {
                "start_time": 0.3954545,
                "end_time": 0.5636364,
                "pitch": 43,
                "velocity": 51,
                "duration": 0.1681818,
                "tempo": 120.0
            },
            {
                "start_time": 0.5977273,
                "end_time": 0.7659091,
                "pitch": 44,
                "velocity": 51,
                "duration": 0.1681818,
                "tempo": 120.0
            },
            {
                "start_time": 1.2045455,
                "end_time": 1.5772727,
                "pitch": 47,
                "velocity": 51,
                "duration": 0.3727273,
                "tempo": 120.0
            },
            {
                "start_time": 1.6113636,
                "end_time": 1.9818182,
                "pitch": 48,
                "velocity": 51,
                "duration": 0.3704545,
                "tempo": 120.0
            },
            {
                "start_time": 2.0159091,
                "end_time": 2.1840909,
                "pitch": 43,
                "velocity": 51,
                "duration": 0.1681818,
                "tempo": 120.0
            },
            {
                "start_time": 2.2181818,
                "end_time": 2.3863636,
                "pitch": 44,
                "velocity": 51,
                "duration": 0.1681818,
                "tempo": 120.0
            },
            {
                "start_time": 2.825,
                "end_time": 3.1977273,
                "pitch": 47,
                "velocity": 51,
                "duration": 0.3727273,
                "tempo": 120.0
            },
            {
                "start_time": 3.2295455,
                "end_time": 3.5954545,
                "pitch": 48,
                "velocity": 51,
                "duration": 0.3659091,
                "tempo": 120.0
            },
            {
                "start_time": 3.6295455,
                "end_time": 3.9954545,
                "pitch": 53,
                "velocity": 51,
                "duration": 0.3659091,
                "tempo": 120.0
            },
            {
                "start_time": 4.0295455,
                "end_time": 4.3954545,
                "pitch": 56,
                "velocity": 51,
                "duration": 0.3659091,
                "tempo": 120.0
            },
            {
                "start_time": 4.4295455,
                "end_time": 4.7954545,
                "pitch": 55,
                "velocity": 51,
                "duration": 0.3659091,
                "tempo": 120.0
            },
            {
                "start_time": 4.8295455,
                "end_time": 5.2090909,
                "pitch": 36,
                "velocity": 51,
                "duration": 0.3795455,
                "tempo": 120.0
            }
        ],
        "Vibraphone": [
            {
                "start_time": 0.0045455,
                "end_time": 0.1590909,
                "pitch": 72,
                "velocity": 40,
                "duration": 0.1545455,
                "tempo": 120.0
            },
            {
                "start_time": 0.1931818,
                "end_time": 0.3613636,
                "pitch": 83,
                "velocity": 40,
                "duration": 0.1681818,
                "tempo": 120.0
            },
            {
                "start_time": 0.3954545,
                "end_time": 0.5636364,
                "pitch": 84,
                "velocity": 40,
                "duration": 0.1681818,
                "tempo": 120.0
            },
            {
                "start_time": 0.8,
                "end_time": 0.9681818,
                "pitch": 70,
                "velocity": 40,
                "duration": 0.1681818,
                "tempo": 120.0
            },
            {
                "start_time": 1.0022727,
                "end_time": 1.1704545,
                "pitch": 80,
                "velocity": 40,
                "duration": 0.1681818,
                "tempo": 120.0
            },
            {
                "start_time": 1.2045455,
                "end_time": 1.375,
                "pitch": 82,
                "velocity": 40,
                "duration": 0.1704545,
                "tempo": 120.0
            },
            {
                "start_time": 1.6113636,
                "end_time": 1.7795455,
                "pitch": 68,
                "velocity": 40,
                "duration": 0.1681818,
                "tempo": 120.0
            },
            {
                "start_time": 1.8136364,
                "end_time": 1.9818182,
                "pitch": 79,
                "velocity": 40,
                "duration": 0.1681818,
                "tempo": 120.0
            },
            {
                "start_time": 2.0159091,
                "end_time": 2.1840909,
                "pitch": 80,
                "velocity": 40,
                "duration": 0.1681818,
                "tempo": 120.0
            },
            {
                "start_time": 2.4204545,
                "end_time": 2.5886364,
                "pitch": 67,
                "velocity": 40,
                "duration": 0.1681818,
                "tempo": 120.0
            },
            {
                "start_time": 2.6227273,
                "end_time": 2.7909091,
                "pitch": 77,
                "velocity": 40,
                "duration": 0.1681818,
                "tempo": 120.0
            },
            {
                "start_time": 2.825,
                "end_time": 2.9931818,
                "pitch": 79,
                "velocity": 40,
                "duration": 0.1681818,
                "tempo": 120.0
            },
            {
                "start_time": 3.2295455,
                "end_time": 3.3977273,
                "pitch": 68,
                "velocity": 40,
                "duration": 0.1681818,
                "tempo": 120.0
            },
            {
                "start_time": 3.4295455,
                "end_time": 3.5954545,
                "pitch": 79,
                "velocity": 40,
                "duration": 0.1659091,
                "tempo": 120.0
            },
            {
                "start_time": 3.6295455,
                "end_time": 3.7954545,
                "pitch": 80,
                "velocity": 40,
                "duration": 0.1659091,
                "tempo": 120.0
            },
            {
                "start_time": 4.0295455,
                "end_time": 4.1954545,
                "pitch": 70,
                "velocity": 40,
                "duration": 0.1659091,
                "tempo": 120.0
            },
            {
                "start_time": 4.2295455,
                "end_time": 4.3954545,
                "pitch": 80,
                "velocity": 40,
                "duration": 0.1659091,
                "tempo": 120.0
            },
            {
                "start_time": 4.4295455,
                "end_time": 4.5954545,
                "pitch": 82,
                "velocity": 40,
                "duration": 0.1659091,
                "tempo": 120.0
            },
            {
                "start_time": 4.8295455,
                "end_time": 5.0022727,
                "pitch": 72,
                "velocity": 40,
                "duration": 0.1727273,
                "tempo": 120.0
            },
            {
                "start_time": 5.0363636,
                "end_time": 5.2090909,
                "pitch": 83,
                "velocity": 40,
                "duration": 0.1727273,
                "tempo": 120.0
            },
            {
                "start_time": 5.2454545,
                "end_time": 5.4181818,
                "pitch": 84,
                "velocity": 40,
                "duration": 0.1727273,
                "tempo": 120.0
            },
            {
                "start_time": 5.4522727,
                "end_time": 5.6272727,
                "pitch": 83,
                "velocity": 40,
                "duration": 0.175,
                "tempo": 120.0
            },
            {
                "start_time": 5.6613636,
                "end_time": 6.0613636,
                "pitch": 84,
                "velocity": 40,
                "duration": 0.4,
                "tempo": 120.0
            }
        ]
    }
}