{
    "mood": "sad",
    "instruments": {
        "Harpsichord": [
            {
                "start_time": 0.0,
                "end_time": 0.1159091,
                "pitch": 43,
                "velocity": 51,
                "duration": 0.1159091,
                "tempo": 120.0
            },
            {
                "start_time": 0.1159091,
                "end_time": 0.2340909,
                "pitch": 43,
                "velocity": 51,
                "duration": 0.1181818,
                "tempo": 120.0
            },
            {
                "start_time": 0.2340909,
                "end_time": 0.3727273,
                "pitch": 55,
                "velocity": 51,
                "duration": 0.1386364,
                "tempo": 120.0
            },
            {
                "start_time": 0.3727273,
                "end_time": 0.4909091,
                "pitch": 53,
                "velocity": 51,
                "duration": 0.1181818,
                "tempo": 120.0
            },
            {
                "start_time": 0.4909091,
                "end_time": 0.6022727,
                "pitch": 53,
                "velocity": 51,
                "duration": 0.1113636,
                "tempo": 120.0
            },
            {
                "start_time": 0.6022727,
                "end_time": 0.7159091,
                "pitch": 50,
                "velocity": 51,
                "duration": 0.1136364,
                "tempo": 120.0
            },
            {
                "start_time": 0.7159091,
                "end_time": 0.8272727,
                "pitch": 52,
                "velocity": 51,
                "duration": 0.1113636,
                "tempo": 120.0
            },
            {
                "start_time": 0.8272727,
                "end_time": 0.9568182,
                "pitch": 52,
                "velocity": 51,
                "duration": 0.1295455,
                "tempo": 120.0
            },
            {
                "start_time": 0.9568182,
                "end_time": 1.075,
                "pitch": 43,
                "velocity": 51,
                "duration": 0.1181818,
                "tempo": 120.0
            },
            {
                "start_time": 1.075,
                "end_time": 1.1954545,
                "pitch": 43,
                "velocity": 51,
                "duration": 0.1204545,
                "tempo": 120.0
            },
            {
                "start_time": 1.1954545,
                "end_time": 1.3136364,
                "pitch": 55,
                "velocity": 51,
                "duration": 0.1181818,
                "tempo": 120.0
            },
            {
                "start_time": 1.3136364,
                "end_time": 1.4340909,
                "pitch": 53,
                "velocity": 51,
                "duration": 0.1204545,
                "tempo": 120.0
            },
            {
                "start_time": 1.4340909,
                "end_time": 1.5659091,
                "pitch": 53,
                "velocity": 51,
                "duration": 0.1318182,
                "tempo": 120.0
            },
            {
                "start_time": 1.5659091,
                "end_time": 1.6795455,
                "pitch": 52,
                "velocity": 51,
                "duration": 0.1136364,
                "tempo": 120.0
            },
            {
                "start_time": 1.6795455,
                "end_time": 1.7954545,
                "pitch": 55,
                "velocity": 51,
                "duration": 0.1159091,
                "tempo": 120.0
            },
            {
                "start_time": 1.7954545,
                "end_time": 1.9090909,
                "pitch": 62,
                "velocity": 51,
                "duration": 0.1136364,
                "tempo": 120.0
            },
            {
                "start_time": 1.9090909,
                "end_time": 2.0295455,
                "pitch": 43,
                "velocity": 51,
                "duration": 0.1204545,
                "tempo": 120.0
            },
            {
                "start_time": 2.0295455,
                "end_time": 2.1659091,
                "pitch": 43,
                "velocity": 51,
                "duration": 0.1363636,
                "tempo": 120.0
            },
            {
                "start_time": 2.1659091,
                "end_time": 2.2840909,
                "pitch": 55,
                "velocity": 51,
                "duration": 0.1181818,
                "tempo": 120.0
            },
            {
                "start_time": 2.2840909,
                "end_time": 2.4045455,
                "pitch": 53,
                "velocity": 51,
                "duration": 0.1204545,
                "tempo": 120.0
            },
            {
                "start_time": 2.4045455,
                "end_time": 2.5181818,
                "pitch": 53,
                "velocity": 51,
                "duration": 0.1136364,
                "tempo": 120.0
            },
            {
                "start_time": 2.5181818,
                "end_time": 2.65,
                "pitch": 50,
                "velocity": 51,
                "duration": 0.1318182,
                "tempo": 120.0
            },
            {
                "start_time": 2.65,
                "end_time": 2.7659091,
                "pitch": 52,
                "velocity": 51,
                "duration": 0.1159091,
                "tempo": 120.0
            },
            {
                "start_time": 2.7659091,
                "end_time": 2.8795455,
                "pitch": 52,
                "velocity": 51,
                "duration": 0.1136364,
                "tempo": 120.0
            },
            {
                "start_time": 2.8795455,
                "end_time": 3.0,
                "pitch": 43,
                "velocity": 51,
                "duration": 0.1204545,
                "tempo": 120.0
            },
            {
                "start_time": 3.0,
                "end_time": 3.1181818,
                "pitch": 43,
                "velocity": 51,
                "duration": 0.1181818,
                "tempo": 120.0
            },
            {
                "start_time": 3.1181818,
                "end_time": 3.2545455,
                "pitch": 55,
                "velocity": 51,
                "duration": 0.1363636,
                "tempo": 120.0
            },
            {
                "start_time": 3.2545455,
                "end_time": 3.375,
                "pitch": 53,
                "velocity": 51,
                "duration": 0.1204545,
                "tempo": 120.0
            },
            {
                "start_time": 3.375,
                "end_time": 3.4954545,
                "pitch": 53,
                "velocity": 51,
                "duration": 0.1204545,
                "tempo": 120.0
            },
            {
                "start_time": 3.4954545,
                "end_time": 3.6136364,
                "pitch": 52,
                "velocity": 51,
                "duration": 0.1181818,
                "tempo": 120.0
            },
            {
                "start_time": 3.6136364,
                "end_time": 3.7340909,
                "pitch": 55,
                "velocity": 51,
                "duration": 0.1204545,
                "tempo": 120.0
            },
            {
                "start_time": 3.7340909,
                "end_time": 3.8704545,
                "pitch": 62,
                "velocity": 51,
                "duration": 0.1363636,
                "tempo": 120.0
            },
            {
                "start_time": 3.8704545,
                "end_time": 3.9863636,
                "pitch": 46,
                "velocity": 51,
                "duration": 0.1159091,
                "tempo": 120.0
            },
            {
                "start_time": 3.9863636,
                "end_time": 4.1045455,
                "pitch": 46,
                "velocity": 51,
                "duration": 0.1181818,
                "tempo": 120.0
            },
            {
                "start_time": 4.1045455,
                "end_time": 4.2204545,
                "pitch": 58,
                "velocity": 51,
                "duration": 0.1159091,
                "tempo": 120.0
            },
            {
                "start_time": 4.2204545,
                "end_time": 4.3545455,
                "pitch": 58,
                "velocity": 51,
                "duration": 0.1340909,
                "tempo": 120.0
            },
            {
                "start_time": 4.3545455,
                "end_time": 4.4681818,
                "pitch": 56,
                "velocity": 51,
                "duration": 0.1136364,
                "tempo": 120.0
            },
            {
                "start_time": 4.4681818,
                "end_time": 4.5840909,
                "pitch": 53,
                "velocity": 51,
                "duration": 0.1159091,
                "tempo": 120.0
            },
            {
                "start_time": 4.5840909,
                "end_time": 4.6977273,
                "pitch": 55,
                "velocity": 51,
                "duration": 0.1136364,
                "tempo": 120.0
            },
            {
                "start_time": 4.6977273,
                "end_time": 4.8136364,
                "pitch": 55,
                "velocity": 51,
                "duration": 0.1159091,
                "tempo": 120.0
            },
            {
                "start_time": 4.8136364,
                "end_time": 4.9431818,
                "pitch": 46,
                "velocity": 51,
                "duration": 0.1295455,
                "tempo": 120.0
            },
            {
                "start_time": 4.9431818,
                "end_time": 5.0590909,
                "pitch": 46,
                "velocity": 51,
                "duration": 0.1159091,
                "tempo": 120.0
            },
            {
                "start_time": 5.0590909,
                "end_time": 5.1727273,
                "pitch": 58,
                "velocity": 51,
                "duration": 0.1136364,
                "tempo": 120.0
            },
            {
                "start_time": 5.1727273,
                "end_time": 5.2886364,
                "pitch": 58,
                "velocity": 51,
                "duration": 0.1159091,
                "tempo": 120.0
            },
            {
                "start_time": 5.2886364,
                "end_time": 5.4068182,
                "pitch": 56,
                "velocity": 51,
                "duration": 0.1181818,
                "tempo": 120.0
            },
            {
                "start_time": 5.4068182,
                "end_time": 5.5454545,
                "pitch": 55,
                "velocity": 51,
                "duration": 0.1386364,
                "tempo": 120.0
            },
            {
                "start_time": 5.5454545,
                "end_time": 5.6636364,
                "pitch": 56,
                "velocity": 51,
                "duration": 0.1181818,
                "tempo": 120.0
            },
            {
                "start_time": 5.6636364,
                "end_time": 5.7840909,
                "pitch": 65,
                "velocity": 51,
                "duration": 0.1204545,
                "tempo": 120.0
            },
            {
                "start_time": 5.7840909,
                "end_time": 5.9022727,
                "pitch": 46,
                "velocity": 51,
                "duration": 0.1181818,
                "tempo": 120.0
            },
            {
                "start_time": 5.9022727,
                "end_time": 6.0227273,
                "pitch": 46,
                "velocity": 51,
                "duration": 0.1204545,
                "tempo": 120.0
            },
            {
                "start_time": 6.0227273,
                "end_time": 6.1590909,
                "pitch": 58,
                "velocity": 51,
                "duration": 0.1363636,
                "tempo": 120.0
            },
            {
                "start_time": 6.1590909,
                "end_time": 6.2795455,
                "pitch": 58,
                "velocity": 51,
                "duration": 0.1204545,
                "tempo": 120.0
            },
            {
                "start_time": 6.2795455,
                "end_time": 6.3931818,
                "pitch": 56,
                "velocity": 51,
                "duration": 0.1136364,
                "tempo": 120.0
            },
            {
                "start_time": 6.3931818,
                "end_time": 6.5090909,
                "pitch": 53,
                "velocity": 51,
                "duration": 0.1159091,
                "tempo": 120.0
            },
            {
                "start_time": 6.5090909,
                "end_time": 6.6386364,
                "pitch": 55,
                "velocity": 51,
                "duration": 0.1295455,
                "tempo": 120.0
            },
            {
                "start_time": 6.6386364,
                "end_time": 6.7545455,
                "pitch": 55,
                "velocity": 51,
                "duration": 0.1159091,
                "tempo": 120.0
            },
            {
                "start_time": 6.7545455,
                "end_time": 6.8727273,
                "pitch": 46,
                "velocity": 51,
                "duration": 0.1181818,
                "tempo": 120.0
            },
            {
                "start_time": 6.8727273,
                "end_time": 6.9886364,
                "pitch": 46,
                "velocity": 51,
                "duration": 0.1159091,
                "tempo": 120.0
            },
            {
                "start_time": 6.9886364,
                "end_time": 7.1068182,
                "pitch": 58,
                "velocity": 51,
                "duration": 0.1181818,
                "tempo": 120.0
            },
            {
                "start_time": 7.1068182,
                "end_time": 7.2409091,
                "pitch": 58,
                "velocity": 51,
                "duration": 0.1340909,
                "tempo": 120.0
            },
            {
                "start_time": 7.2409091,
                "end_time": 7.3613636,
                "pitch": 56,
                "velocity": 51,
                "duration": 0.1204545,
                "tempo": 120.0
            },
            {
                "start_time": 7.3613636,
                "end_time": 7.4795455,
                "pitch": 55,
                "velocity": 51,
                "duration": 0.1181818,
                "tempo": 120.0
            },
            {
                "start_time": 7.4795455,
                "end_time": 7.6,
                "pitch": 56,
                "velocity": 51,
                "duration": 0.1204545,
                "tempo": 120.0
            },
            {
                "start_time": 7.6,
                "end_time": 7.7204545,
                "pitch": 65,
                "velocity": 51,
                "duration": 0.1204545,
                "tempo": 120.0
            },
            {
                "start_time": 7.7204545,
                "end_time": 7.8545455,
                "pitch": 41,
                "velocity": 51,
                "duration": 0.1340909,
                "tempo": 120.0
            },
            {
                "start_time": 7.8545455,
                "end_time": 7.9727273,
                "pitch": 41,
                "velocity": 51,
                "duration": 0.1181818,
                "tempo": 120.0
            },
            {
                "start_time": 7.9727273,
                "end_time": 8.0886364,
                "pitch": 53,
                "velocity": 51,
                "duration": 0.1159091,
                "tempo": 120.0
            },
            {
                "start_time": 8.0886364,
                "end_time": 8.2068182,
                "pitch": 51,
                "velocity": 51,
                "duration": 0.1181818,
                "tempo": 120.0
            },
            {
                "start_time": 8.2068182,
                "end_time": 8.3227273,
                "pitch": 51,
                "velocity": 51,
                "duration": 0.1159091,
                "tempo": 120.0
            },
            {
                "start_time": 8.3227273,
                "end_time": 8.4522727,
                "pitch": 48,
                "velocity": 51,
                "duration": 0.1295455,
                "tempo": 120.0
            },
            {
                "start_time": 8.4522727,
                "end_time": 8.5681818,
                "pitch": 50,
                "velocity": 51,
                "duration": 0.1159091,
                "tempo": 120.0
            },
            {
                "start_time": 8.5681818,
                "end_time": 8.6818182,
                "pitch": 50,
                "velocity": 51,
                "duration": 0.1136364,
                "tempo": 120.0
            },
            {
                "start_time": 8.6818182,
                "end_time": 8.8,
                "pitch": 41,
                "velocity": 51,
                "duration": 0.1181818,
                "tempo": 120.0
            },
            {
                "start_time": 8.8,
                "end_time": 8.9340909,
                "pitch": 41,
                "velocity": 51,
                "duration": 0.1340909,
                "tempo": 120.0
            },
            {
                "start_time": 8.9340909,
                "end_time": 9.0522727,
                "pitch": 53,
                "velocity": 51,
                "duration": 0.1181818,
                "tempo": 120.0
            },
            {
                "start_time": 9.0522727,
                "end_time": 9.1704545,
                "pitch": 51,
                "velocity": 51,
                "duration": 0.1181818,
                "tempo": 120.0
            },
            {
                "start_time": 9.1704545,
                "end_time": 9.2886364,
                "pitch": 51,
                "velocity": 51,
                "duration": 0.1181818,
                "tempo": 120.0
            },
            {
                "start_time": 9.2886364,
                "end_time": 9.4090909,
                "pitch": 50,
                "velocity": 51,
                "duration": 0.1204545,
                "tempo": 120.0
            },
            {
                "start_time": 9.4090909,
                "end_time": 9.5454545,
                "pitch": 53,
                "velocity": 51,
                "duration": 0.1363636,
                "tempo": 120.0
            },
            {
                "start_time": 9.5454545,
                "end_time": 9.6659091,
                "pitch": 60,
                "velocity": 51,
                "duration": 0.1204545,
                "tempo": 120.0
            },
            {
                "start_time": 9.6659091,
                "end_time": 9.7840909,
                "pitch": 41,
                "velocity": 51,
                "duration": 0.1181818,
                "tempo": 120.0
            },
            {
                "start_time": 9.7840909,
                "end_time": 9.9045455,
                "pitch": 41,
                "velocity": 51,
                "duration": 0.1204545,
                "tempo": 120.0
            },
            {
                "start_time": 9.9045455,
                "end_time": 10.0227273,
                "pitch": 53,
                "velocity": 51,
                "duration": 0.1181818,
                "tempo": 120.0
            },
            {
                "start_time": 10.0227273,
                "end_time": 10.1590909,
                "pitch": 51,
                "velocity": 51,
                "duration": 0.1363636,
                "tempo": 120.0
            },
            {
                "start_time": 10.1590909,
                "end_time": 10.275,
                "pitch": 51,
                "velocity": 51,
                "duration": 0.1159091,
                "tempo": 120.0
            },
            {
                "start_time": 10.275,
                "end_time": 10.3909091,
                "pitch": 48,
                "velocity": 51,
                "duration": 0.1159091,
                "tempo": 120.0
            },
            {
                "start_time": 10.3909091,
                "end_time": 10.5045455,
                "pitch": 50,
                "velocity": 51,
                "duration": 0.1136364,
                "tempo": 120.0
            },
            {
                "start_time": 10.5045455,
                "end_time": 10.6204545,
                "pitch": 50,
                "velocity": 51,
                "duration": 0.1159091,
                "tempo": 120.0
            },
            {
                "start_time": 10.6204545,
                "end_time": 10.75,
                "pitch": 41,
                "velocity": 51,
                "duration": 0.1295455,
                "tempo": 120.0
            },
            {
                "start_time": 10.75,
                "end_time": 10.8659091,
                "pitch": 41,
                "velocity": 51,
                "duration": 0.1159091,
                "tempo": 120.0
            },
            {
                "start_time": 10.8659091,
                "end_time": 10.9795455,
                "pitch": 53,
                "velocity": 51,
                "duration": 0.1136364,
                "tempo": 120.0
            },
            {
                "start_time": 10.9795455,
                "end_time": 11.0954545,
                "pitch": 51,
                "velocity": 51,
                "duration": 0.1159091,
                "tempo": 120.0
            },
            {
                "start_time": 11.0954545,
                "end_time": 11.2318182,
                "pitch": 51,
                "velocity": 51,
                "duration": 0.1363636,
                "tempo": 120.0
            },
            {
                "start_time": 11.2318182,
                "end_time": 11.35,
                "pitch": 50,
                "velocity": 51,
                "duration": 0.1181818,
                "tempo": 120.0
            },
            {
                "start_time": 11.35,
                "end_time": 11.4704545,
                "pitch": 53,
                "velocity": 51,
                "duration": 0.1204545,
                "tempo": 120.0
            },
            {
                "start_time": 11.4704545,
                "end_time": 13.5340909,
                "pitch": 60,
                "velocity": 51,
                "duration": 2.0636364,
                "tempo": 120.0
            },
            {
                "start_time": 13.5340909,
                "end_time": 13.6545455,
                "pitch": 58,
                "velocity": 51,
                "duration": 0.1204545,
                "tempo": 120.0
            },
            {
                "start_time": 13.6545455,
                "end_time": 13.775,
                "pitch": 58,
                "velocity": 51,
                "duration": 0.1204545,
                "tempo": 120.0
            },
            {
                "start_time": 13.775,
                "end_time": 13.8931818,
                "pitch": 70,
                "velocity": 51,
                "duration": 0.1181818,
                "tempo": 120.0
            },
            {
                "start_time": 13.8931818,
                "end_time": 14.0136364,
                "pitch": 58,
                "velocity": 51,
                "duration": 0.1204545,
                "tempo": 120.0
            },
            {
                "start_time": 14.0136364,
                "end_time": 14.1409091,
                "pitch": 65,
                "velocity": 51,
                "duration": 0.1272727,
                "tempo": 120.0
            },
            {
                "start_time": 14.1409091,
                "end_time": 14.2522727,
                "pitch": 70,
                "velocity": 51,
                "duration": 0.1113636,
                "tempo": 120.0
            },
            {
                "start_time": 14.2522727,
                "end_time": 14.3659091,
                "pitch": 58,
                "velocity": 51,
                "duration": 0.1136364,
                "tempo": 120.0
            },
            {
                "start_time": 14.3659091,
                "end_time": 14.4772727,
                "pitch": 77,
                "velocity": 51,
                "duration": 0.1113636,
                "tempo": 120.0
            },
            {
                "start_time": 14.4772727,
                "end_time": 14.5977273,
                "pitch": 58,
                "velocity": 51,
                "duration": 0.1204545,
                "tempo": 120.0
            },
            {
                "start_time": 14.5977273,
                "end_time": 14.7340909,
                "pitch": 58,
                "velocity": 51,
                "duration": 0.1363636,
                "tempo": 120.0
            },
            {
                "start_time": 14.7340909,
                "end_time": 14.8522727,
                "pitch": 70,
                "velocity": 51,
                "duration": 0.1181818,
                "tempo": 120.0
            },
            {
                "start_time": 14.8522727,
                "end_time": 14.9727273,
                "pitch": 65,
                "velocity": 51,
                "duration": 0.1204545,
                "tempo": 120.0
            },
            {
                "start_time": 14.9727273,
                "end_time": 15.0909091,
                "pitch": 58,
                "velocity": 51,
                "duration": 0.1181818,
                "tempo": 120.0
            },
            {
                "start_time": 15.0909091,
                "end_time": 15.2295455,
                "pitch": 77,
                "velocity": 51,
                "duration": 0.1386364,
                "tempo": 120.0
            },
            {
                "start_time": 15.2295455,
                "end_time": 15.3477273,
                "pitch": 58,
                "velocity": 51,
                "duration": 0.1181818,
                "tempo": 120.0
            },
            {
                "start_time": 15.3477273,
                "end_time": 15.4681818,
                "pitch": 77,
                "velocity": 51,
                "duration": 0.1204545,
                "tempo": 120.0
            },
            {
                "start_time": 15.4681818,
                "end_time": 15.5863636,
                "pitch": 58,
                "velocity": 51,
                "duration": 0.1181818,
                "tempo": 120.0
            },
            {
                "start_time": 15.5863636,
                "end_time": 15.7022727,
                "pitch": 58,
                "velocity": 51,
                "duration": 0.1159091,
                "tempo": 120.0
            },
            {
                "start_time": 15.7022727,
                "end_time": 15.8363636,
                "pitch": 70,
                "velocity": 51,
                "duration": 0.1340909,
                "tempo": 120.0
            },
            {
                "start_time": 15.8363636,
                "end_time": 15.9545455,
                "pitch": 58,
                "velocity": 51,
                "duration": 0.1181818,
                "tempo": 120.0
            },
            {
                "start_time": 15.9545455,
                "end_time": 16.0704545,
                "pitch": 65,
                "velocity": 51,
                "duration": 0.1159091,
                "tempo": 120.0
            },
            {
                "start_time": 16.0704545,
                "end_time": 16.1886364,
                "pitch": 70,
                "velocity": 51,
                "duration": 0.1181818,
                "tempo": 120.0
            },
            {
                "start_time": 16.1886364,
                "end_time": 16.3045455,
                "pitch": 58,
                "velocity": 51,
                "duration": 0.1159091,
                "tempo": 120.0
            },
            {
                "start_time": 16.3045455,
                "end_time": 16.4386364,
                "pitch": 77,
                "velocity": 51,
                "duration": 0.1340909,
                "tempo": 120.0
            },
            {
                "start_time": 16.4386364,
                "end_time": 16.5568182,
                "pitch": 58,
                "velocity": 51,
                "duration": 0.1181818,
                "tempo": 120.0
            },
            {
                "start_time": 16.5568182,
                "end_time": 16.6727273,
                "pitch": 58,
                "velocity": 51,
                "duration": 0.1159091,
                "tempo": 120.0
            },
            {
                "start_time": 16.6727273,
                "end_time": 16.7909091,
                "pitch": 70,
                "velocity": 51,
                "duration": 0.1181818,
                "tempo": 120.0
            },
            {
                "start_time": 16.7909091,
                "end_time": 16.9090909,
                "pitch": 65,
                "velocity": 51,
                "duration": 0.1181818,
                "tempo": 120.0
            },
            {
                "start_time": 16.9090909,
                "end_time": 17.0409091,
                "pitch": 58,
                "velocity": 51,
                "duration": 0.1318182,
                "tempo": 120.0
            },
            {
                "start_time": 17.0409091,
                "end_time": 17.1545455,
                "pitch": 77,
                "velocity": 51,
                "duration": 0.1136364,
                "tempo": 120.0
            },
            {
                "start_time": 17.1545455,
                "end_time": 17.2704545,
                "pitch": 58,
                "velocity": 51,
                "duration": 0.1159091,
                "tempo": 120.0
            },
            {
                "start_time": 17.2704545,
                "end_time": 17.3840909,
                "pitch": 77,
                "velocity": 51,
                "duration": 0.1136364,
                "tempo": 120.0
            },
            {
                "start_time": 17.3840909,
                "end_time": 17.5204545,
                "pitch": 60,
                "velocity": 51,
                "duration": 0.1363636,
                "tempo": 120.0
            },
            {
                "start_time": 17.5204545,
                "end_time": 17.6409091,
                "pitch": 60,
                "velocity": 51,
                "duration": 0.1204545,
                "tempo": 120.0
            },
            {
                "start_time": 17.6409091,
                "end_time": 17.7590909,
                "pitch": 72,
                "velocity": 51,
                "duration": 0.1181818,
                "tempo": 120.0
            },
            {
                "start_time": 17.7590909,
                "end_time": 17.8795455,
                "pitch": 60,
                "velocity": 51,
                "duration": 0.1204545,
                "tempo": 120.0
            },
            {
                "start_time": 17.8795455,
                "end_time": 17.9931818,
                "pitch": 67,
                "velocity": 51,
                "duration": 0.1136364,
                "tempo": 120.0
            },
            {
                "start_time": 17.9931818,
                "end_time": 18.125,
                "pitch": 72,
                "velocity": 51,
                "duration": 0.1318182,
                "tempo": 120.0
            },
            {
                "start_time": 18.125,
                "end_time": 18.2409091,
                "pitch": 60,
                "velocity": 51,
                "duration": 0.1159091,
                "tempo": 120.0
            },
            {
                "start_time": 18.2409091,
                "end_time": 18.3545455,
                "pitch": 79,
                "velocity": 51,
                "duration": 0.1136364,
                "tempo": 120.0
            },
            {
                "start_time": 18.3545455,
                "end_time": 18.475,
                "pitch": 60,
                "velocity": 51,
                "duration": 0.1204545,
                "tempo": 120.0
            },
            {
                "start_time": 18.475,
                "end_time": 18.5931818,
                "pitch": 60,
                "velocity": 51,
                "duration": 0.1181818,
                "tempo": 120.0
            },
            {
                "start_time": 18.5931818,
                "end_time": 18.7295455,
                "pitch": 72,
                "velocity": 51,
                "duration": 0.1363636,
                "tempo": 120.0
            },
            {
                "start_time": 18.7295455,
                "end_time": 18.85,
                "pitch": 67,
                "velocity": 51,
                "duration": 0.1204545,
                "tempo": 120.0
            },
            {
                "start_time": 18.85,
                "end_time": 18.9681818,
                "pitch": 60,
                "velocity": 51,
                "duration": 0.1181818,
                "tempo": 120.0
            },
            {
                "start_time": 18.9681818,
                "end_time": 19.0886364,
                "pitch": 79,
                "velocity": 51,
                "duration": 0.1204545,
                "tempo": 120.0
            },
            {
                "start_time": 19.0886364,
                "end_time": 19.2090909,
                "pitch": 60,
                "velocity": 51,
                "duration": 0.1204545,
                "tempo": 120.0
            },
            {
                "start_time": 19.2090909,
                "end_time": 19.3454545,
                "pitch": 79,
                "velocity": 51,
                "duration": 0.1363636,
                "tempo": 120.0
            },
            {
                "start_time": 19.3454545,
                "end_time": 19.4613636,
                "pitch": 60,
                "velocity": 51,
                "duration": 0.1159091,
                "tempo": 120.0
            },
            {
                "start_time": 19.4613636,
                "end_time": 19.5772727,
                "pitch": 60,
                "velocity": 51,
                "duration": 0.1159091,
                "tempo": 120.0
            },
            {
                "start_time": 19.5772727,
                "end_time": 19.6954545,
                "pitch": 72,
                "velocity": 51,
                "duration": 0.1181818,
                "tempo": 120.0
            },
            {
                "start_time": 19.6954545,
                "end_time": 19.8272727,
                "pitch": 60,
                "velocity": 51,
                "duration": 0.1318182,
                "tempo": 120.0
            },
            {
                "start_time": 19.8272727,
                "end_time": 19.9454545,
                "pitch": 67,
                "velocity": 51,
                "duration": 0.1181818,
                "tempo": 120.0
            },
            {
                "start_time": 19.9454545,
                "end_time": 20.0636364,
                "pitch": 72,
                "velocity": 51,
                "duration": 0.1181818,
                "tempo": 120.0
            },
            {
                "start_time": 20.0636364,
                "end_time": 20.1818182,
                "pitch": 60,
                "velocity": 51,
                "duration": 0.1181818,
                "tempo": 120.0
            },
            {
                "start_time": 20.1818182,
                "end_time": 20.2977273,
                "pitch": 79,
                "velocity": 51,
                "duration": 0.1159091,
                "tempo": 120.0
            },
            {
                "start_time": 20.2977273,
                "end_time": 20.4272727,
                "pitch": 60,
                "velocity": 51,
                "duration": 0.1295455,
                "tempo": 120.0
            },
            {
                "start_time": 20.4272727,
                "end_time": 20.5386364,
                "pitch": 60,
                "velocity": 51,
                "duration": 0.1113636,
                "tempo": 120.0
            },
            {
                "start_time": 20.5386364,
                "end_time": 20.65,
                "pitch": 72,
                "velocity": 51,
                "duration": 0.1113636,
                "tempo": 120.0
            },
            {
                "start_time": 20.65,
                "end_time": 20.7636364,
                "pitch": 67,
                "velocity": 51,
                "duration": 0.1136364,
                "tempo": 120.0
            },
            {
                "start_time": 20.7636364,
                "end_time": 20.8818182,
                "pitch": 60,
                "velocity": 51,
                "duration": 0.1181818,
                "tempo": 120.0
            },
            {
                "start_time": 20.8818182,
                "end_time": 21.0181818,
                "pitch": 79,
                "velocity": 51,
                "duration": 0.1363636,
                "tempo": 120.0
            },
            {
                "start_time": 21.0181818,
                "end_time": 21.1386364,
                "pitch": 60,
                "velocity": 51,
                "duration": 0.1204545,
                "tempo": 120.0
            },
            {
                "start_time": 21.1386364,
                "end_time": 21.2590909,
                "pitch": 79,
                "velocity": 51,
                "duration": 0.1204545,
                "tempo": 120.0
            },
            {
                "start_time": 21.2590909,
                "end_time": 21.3772727,
                "pitch": 62,
                "velocity": 51,
                "duration": 0.1181818,
                "tempo": 120.0
            },
            {
                "start_time": 21.3772727,
                "end_time": 21.5136364,
                "pitch": 62,
                "velocity": 51,
                "duration": 0.1363636,
                "tempo": 120.0
            },
            {
                "start_time": 21.5136364,
                "end_time": 21.6340909,
                "pitch": 74,
                "velocity": 51,
                "duration": 0.1204545,
                "tempo": 120.0
            },
            {
                "start_time": 21.6340909,
                "end_time": 21.7522727,
                "pitch": 62,
                "velocity": 51,
                "duration": 0.1181818,
                "tempo": 120.0
            },
            {
                "start_time": 21.7522727,
                "end_time": 21.8681818,
                "pitch": 69,
                "velocity": 51,
                "duration": 0.1159091,
                "tempo": 120.0
            },
            {
                "start_time": 21.8681818,
                "end_time": 21.9818182,
                "pitch": 74,
                "velocity": 51,
                "duration": 0.1136364,
                "tempo": 120.0
            },
            {
                "start_time": 21.9818182,
                "end_time": 22.1136364,
                "pitch": 62,
                "velocity": 51,
                "duration": 0.1318182,
                "tempo": 120.0
            },
            {
                "start_time": 22.1136364,
                "end_time": 22.2295455,
                "pitch": 81,
                "velocity": 51,
                "duration": 0.1159091,
                "tempo": 120.0
            },
            {
                "start_time": 22.2295455,
                "end_time": 22.3477273,
                "pitch": 62,
                "velocity": 51,
                "duration": 0.1181818,
                "tempo": 120.0
            },
            {
                "start_time": 22.3477273,
                "end_time": 22.4681818,
                "pitch": 62,
                "velocity": 51,
                "duration": 0.1204545,
                "tempo": 120.0
            },
            {
                "start_time": 22.4681818,
                "end_time": 22.5863636,
                "pitch": 74,
                "velocity": 51,
                "duration": 0.1181818,
                "tempo": 120.0
            },
            {
                "start_time": 22.5863636,
                "end_time": 22.725,
                "pitch": 69,
                "velocity": 51,
                "duration": 0.1386364,
                "tempo": 120.0
            },
            {
                "start_time": 22.725,
                "end_time": 22.8409091,
                "pitch": 62,
                "velocity": 51,
                "duration": 0.1159091,
                "tempo": 120.0
            },
            {
                "start_time": 22.8409091,
                "end_time": 22.9590909,
                "pitch": 81,
                "velocity": 51,
                "duration": 0.1181818,
                "tempo": 120.0
            },
            {
                "start_time": 22.9590909,
                "end_time": 23.0772727,
                "pitch": 62,
                "velocity": 51,
                "duration": 0.1181818,
                "tempo": 120.0
            },
            {
                "start_time": 23.0772727,
                "end_time": 23.1931818,
                "pitch": 81,
                "velocity": 51,
                "duration": 0.1159091,
                "tempo": 120.0
            },
            {
                "start_time": 23.1931818,
                "end_time": 23.325,
                "pitch": 62,
                "velocity": 51,
                "duration": 0.1318182,
                "tempo": 120.0
            },
            {
                "start_time": 23.325,
                "end_time": 23.4409091,
                "pitch": 62,
                "velocity": 51,
                "duration": 0.1159091,
                "tempo": 120.0
            },
            {
                "start_time": 23.4409091,
                "end_time": 23.5545455,
                "pitch": 74,
                "velocity": 51,
                "duration": 0.1136364,
                "tempo": 120.0
            },
            {
                "start_time": 23.5545455,
                "end_time": 23.6704545,
                "pitch": 62,
                "velocity": 51,
                "duration": 0.1159091,
                "tempo": 120.0
            },
            {
                "start_time": 23.6704545,
                "end_time": 23.8045455,
                "pitch": 69,
                "velocity": 51,
                "duration": 0.1340909,
                "tempo": 120.0
            },
            {
                "start_time": 23.8045455,
                "end_time": 23.9227273,
                "pitch": 74,
                "velocity": 51,
                "duration": 0.1181818,
                "tempo": 120.0
            },
            {
                "start_time": 23.9227273,
                "end_time": 24.0386364,
                "pitch": 62,
                "velocity": 51,
                "duration": 0.1159091,
                "tempo": 120.0
            },
            {
                "start_time": 24.0386364,
                "end_time": 24.1568182,
                "pitch": 81,
                "velocity": 51,
                "duration": 0.1181818,
                "tempo": 120.0
            },
            {
                "start_time": 24.1568182,
                "end_time": 24.275,
                "pitch": 62,
                "velocity": 51,
                "duration": 0.1181818,
                "tempo": 120.0
            },
            {
                "start_time": 24.275,
                "end_time": 24.4090909,
                "pitch": 62,
                "velocity": 51,
                "duration": 0.1340909,
                "tempo": 120.0
            },
            {
                "start_time": 24.4090909,
                "end_time": 24.5272727,
                "pitch": 74,
                "velocity": 51,
                "duration": 0.1181818,
                "tempo": 120.0
            },
            {
                "start_time": 24.5272727,
                "end_time": 24.6454545,
                "pitch": 69,
                "velocity": 51,
                "duration": 0.1181818,
                "tempo": 120.0
            },
            {
                "start_time": 24.6454545,
                "end_time": 24.7636364,
                "pitch": 62,
                "velocity": 51,
                "duration": 0.1181818,
                "tempo": 120.0
            },
            {
                "start_time": 24.7636364,
                "end_time": 24.8840909,
                "pitch": 81,
                "velocity": 51,
                "duration": 0.1204545,
                "tempo": 120.0
            },
            {
                "start_time": 24.8840909,
                "end_time": 25.0204545,
                "pitch": 62,
                "velocity": 51,
                "duration": 0.1363636,
                "tempo": 120.0
            },
            {
                "start_time": 25.0204545,
                "end_time": 25.1386364,
                "pitch": 81,
                "velocity": 51,
                "duration": 0.1181818,
                "tempo": 120.0
            },
            {
                "start_time": 25.1386364,
                "end_time": 25.2590909,
                "pitch": 63,
                "velocity": 51,
                "duration": 0.1204545,
                "tempo": 120.0
            },
            {
                "start_time": 25.2590909,
                "end_time": 25.3795455,
                "pitch": 63,
                "velocity": 51,
                "duration": 0.1204545,
                "tempo": 120.0
            },
            {
                "start_time": 25.3795455,
                "end_time": 25.4977273,
                "pitch": 75,
                "velocity": 51,
                "duration": 0.1181818,
                "tempo": 120.0
            },
            {
                "start_time": 25.4977273,
                "end_time": 25.6340909,
                "pitch": 63,
                "velocity": 51,
                "duration": 0.1363636,
                "tempo": 120.0
            },
            {
                "start_time": 25.6340909,
                "end_time": 25.75,
                "pitch": 70,
                "velocity": 51,
                "duration": 0.1159091,
                "tempo": 120.0
            },
            {
                "start_time": 25.75,
                "end_time": 25.8636364,
                "pitch": 75,
                "velocity": 51,
                "duration": 0.1136364,
                "tempo": 120.0
            },
            {
                "start_time": 25.8636364,
                "end_time": 25.9795455,
                "pitch": 63,
                "velocity": 51,
                "duration": 0.1159091,
                "tempo": 120.0
            },
            {
                "start_time": 25.9795455,
                "end_time": 26.1090909,
                "pitch": 82,
                "velocity": 51,
                "duration": 0.1295455,
                "tempo": 120.0
            },
            {
                "start_time": 26.1090909,
                "end_time": 26.2295455,
                "pitch": 63,
                "velocity": 51,
                "duration": 0.1204545,
                "tempo": 120.0
            },
            {
                "start_time": 26.2295455,
                "end_time": 26.35,
                "pitch": 63,
                "velocity": 51,
                "duration": 0.1204545,
                "tempo": 120.0
            },
            {
                "start_time": 26.35,
                "end_time": 26.4681818,
                "pitch": 75,
                "velocity": 51,
                "duration": 0.1181818,
                "tempo": 120.0
            },
            {
                "start_time": 26.4681818,
                "end_time": 26.5886364,
                "pitch": 70,
                "velocity": 51,
                "duration": 0.1204545,
                "tempo": 120.0
            },
            {
                "start_time": 26.5886364,
                "end_time": 26.7204545,
                "pitch": 63,
                "velocity": 51,
                "duration": 0.1318182,
                "tempo": 120.0
            },
            {
                "start_time": 26.7204545,
                "end_time": 26.8340909,
                "pitch": 82,
                "velocity": 51,
                "duration": 0.1136364,
                "tempo": 120.0
            },
            {
                "start_time": 26.8340909,
                "end_time": 26.95,
                "pitch": 63,
                "velocity": 51,
                "duration": 0.1159091,
                "tempo": 120.0
            },
            {
                "start_time": 26.95,
                "end_time": 27.0636364,
                "pitch": 82,
                "velocity": 51,
                "duration": 0.1136364,
                "tempo": 120.0
            },
            {
                "start_time": 27.0636364,
                "end_time": 27.1818182,
                "pitch": 63,
                "velocity": 51,
                "duration": 0.1181818,
                "tempo": 120.0
            },
            {
                "start_time": 27.1818182,
                "end_time": 27.3159091,
                "pitch": 63,
                "velocity": 51,
                "duration": 0.1340909,
                "tempo": 120.0
            },
            {
                "start_time": 27.3159091,
                "end_time": 27.4340909,
                "pitch": 75,
                "velocity": 51,
                "duration": 0.1181818,
                "tempo": 120.0
            },
            {
                "start_time": 27.4340909,
                "end_time": 27.5522727,
                "pitch": 63,
                "velocity": 51,
                "duration": 0.1181818,
                "tempo": 120.0
            },
            {
                "start_time": 27.5522727,
                "end_time": 27.6681818,
                "pitch": 70,
                "velocity": 51,
                "duration": 0.1159091,
                "tempo": 120.0
            },
            {
                "start_time": 27.6681818,
                "end_time": 27.7840909,
                "pitch": 75,
                "velocity": 51,
                "duration": 0.1159091,
                "tempo": 120.0
            },
            {
                "start_time": 27.7840909,
                "end_time": 27.9181818,
                "pitch": 63,
                "velocity": 51,
                "duration": 0.1340909,
                "tempo": 120.0
            },
            {
                "start_time": 27.9181818,
                "end_time": 28.0340909,
                "pitch": 82,
                "velocity": 51,
                "duration": 0.1159091,
                "tempo": 120.0
            },
            {
                "start_time": 28.0340909,
                "end_time": 28.1522727,
                "pitch": 63,
                "velocity": 51,
                "duration": 0.1181818,
                "tempo": 120.0
            },
            {
                "start_time": 28.1522727,
                "end_time": 28.2704545,
                "pitch": 63,
                "velocity": 51,
                "duration": 0.1181818,
                "tempo": 120.0
            },
            {
                "start_time": 28.2704545,
                "end_time": 28.4045455,
                "pitch": 75,
                "velocity": 51,
                "duration": 0.1340909,
                "tempo": 120.0
            },
            {
                "start_time": 28.4045455,
                "end_time": 28.5227273,
                "pitch": 70,
                "velocity": 51,
                "duration": 0.1181818,
                "tempo": 120.0
            },
            {
                "start_time": 28.5227273,
                "end_time": 28.6409091,
                "pitch": 63,
                "velocity": 51,
                "duration": 0.1181818,
                "tempo": 120.0
            },
            {
                "start_time": 28.6409091,
                "end_time": 28.7613636,
                "pitch": 82,
                "velocity": 51,
                "duration": 0.1204545,
                "tempo": 120.0
            },
            {
                "start_time": 28.7613636,
                "end_time": 28.8795455,
                "pitch": 63,
                "velocity": 51,
                "duration": 0.1181818,
                "tempo": 120.0
            },
            {
                "start_time": 28.8795455,
                "end_time": 29.0159091,
                "pitch": 82,
                "velocity": 51,
                "duration": 0.1363636,
                "tempo": 120.0
            },
            {
                "start_time": 29.0159091,
                "end_time": 29.1340909,
                "pitch": 58,
                "velocity": 51,
                "duration": 0.1181818,
                "tempo": 120.0
            },
            {
                "start_time": 29.1340909,
                "end_time": 29.2522727,
                "pitch": 56,
                "velocity": 51,
                "duration": 0.1181818,
                "tempo": 120.0
            },
            {
                "start_time": 29.2522727,
                "end_time": 29.3704545,
                "pitch": 68,
                "velocity": 51,
                "duration": 0.1181818,
                "tempo": 120.0
            },
            {
                "start_time": 29.3704545,
                "end_time": 29.4863636,
                "pitch": 56,
                "velocity": 51,
                "duration": 0.1159091,
                "tempo": 120.0
            },
            {
                "start_time": 29.4863636,
                "end_time": 29.6181818,
                "pitch": 63,
                "velocity": 51,
                "duration": 0.1318182,
                "tempo": 120.0
            },
            {
                "start_time": 29.6181818,
                "end_time": 29.7340909,
                "pitch": 68,
                "velocity": 51,
                "duration": 0.1159091,
                "tempo": 120.0
            },
            {
                "start_time": 29.7340909,
                "end_time": 29.8477273,
                "pitch": 56,
                "velocity": 51,
                "duration": 0.1136364,
                "tempo": 120.0
            },
            {
                "start_time": 29.8477273,
                "end_time": 29.9636364,
                "pitch": 75,
                "velocity": 51,
                "duration": 0.1159091,
                "tempo": 120.0
            },
            {
                "start_time": 29.9636364,
                "end_time": 30.0977273,
                "pitch": 56,
                "velocity": 51,
                "duration": 0.1340909,
                "tempo": 120.0
            },
            {
                "start_time": 30.0977273,
                "end_time": 30.2159091,
                "pitch": 56,
                "velocity": 51,
                "duration": 0.1181818,
                "tempo": 120.0
            },
            {
                "start_time": 30.2159091,
                "end_time": 30.3318182,
                "pitch": 68,
                "velocity": 51,
                "duration": 0.1159091,
                "tempo": 120.0
            },
            {
                "start_time": 30.3318182,
                "end_time": 30.45,
                "pitch": 63,
                "velocity": 51,
                "duration": 0.1181818,
                "tempo": 120.0
            },
            {
                "start_time": 30.45,
                "end_time": 30.5704545,
                "pitch": 56,
                "velocity": 51,
                "duration": 0.1204545,
                "tempo": 120.0
            },
            {
                "start_time": 30.5704545,
                "end_time": 30.7068182,
                "pitch": 75,
                "velocity": 51,
                "duration": 0.1363636,
                "tempo": 120.0
            },
            {
                "start_time": 30.7068182,
                "end_time": 30.825,
                "pitch": 56,
                "velocity": 51,
                "duration": 0.1181818,
                "tempo": 120.0
            },
            {
                "start_time": 30.825,
                "end_time": 30.9454545,
                "pitch": 75,
                "velocity": 51,
                "duration": 0.1204545,
                "tempo": 120.0
            },
            {
                "start_time": 30.9454545,
                "end_time": 31.0636364,
                "pitch": 56,
                "velocity": 51,
                "duration": 0.1181818,
                "tempo": 120.0
            },
            {
                "start_time": 31.0636364,
                "end_time": 31.1795455,
                "pitch": 56,
                "velocity": 51,
                "duration": 0.1159091,
                "tempo": 120.0
            },
            {
                "start_time": 31.1795455,
                "end_time": 31.3159091,
                "pitch": 68,
                "velocity": 51,
                "duration": 0.1363636,
                "tempo": 120.0
            },
            {
                "start_time": 31.3159091,
                "end_time": 31.4318182,
                "pitch": 56,
                "velocity": 51,
                "duration": 0.1159091,
                "tempo": 120.0
            },
            {
                "start_time": 31.4318182,
                "end_time": 31.55,
                "pitch": 63,
                "velocity": 51,
                "duration": 0.1181818,
                "tempo": 120.0
            },
            {
                "start_time": 31.55,
                "end_time": 31.6681818,
                "pitch": 68,
                "velocity": 51,
                "duration": 0.1181818,
                "tempo": 120.0
            },
            {
                "start_time": 31.6681818,
                "end_time": 31.7863636,
                "pitch": 56,
                "velocity": 51,
                "duration": 0.1181818,
                "tempo": 120.0
            },
            {
                "start_time": 31.7863636,
                "end_time": 31.9204545,
                "pitch": 75,
                "velocity": 51,
                "duration": 0.1340909,
                "tempo": 120.0
            },
            {
                "start_time": 31.9204545,
                "end_time": 32.0363636,
                "pitch": 56,
                "velocity": 51,
                "duration": 0.1159091,
                "tempo": 120.0
            },
            {
                "start_time": 32.0363636,
                "end_time": 32.1545455,
                "pitch": 56,
                "velocity": 51,
                "duration": 0.1181818,
                "tempo": 120.0
            },
            {
                "start_time": 32.1545455,
                "end_time": 32.2727273,
                "pitch": 68,
                "velocity": 51,
                "duration": 0.1181818,
                "tempo": 120.0
            },
            {
                "start_time": 32.2727273,
                "end_time": 32.4068182,
                "pitch": 63,
                "velocity": 51,
                "duration": 0.1340909,
                "tempo": 120.0
            },
            {
                "start_time": 32.4068182,
                "end_time": 32.5272727,
                "pitch": 56,
                "velocity": 51,
                "duration": 0.1204545,
                "tempo": 120.0
            },
            {
                "start_time": 32.5272727,
                "end_time": 32.6454545,
                "pitch": 75,
                "velocity": 51,
                "duration": 0.1181818,
                "tempo": 120.0
            },
            {
                "start_time": 32.6454545,
                "end_time": 32.7659091,
                "pitch": 56,
                "velocity": 51,
                "duration": 0.1204545,
                "tempo": 120.0
            },
            {
                "start_time": 32.7659091,
                "end_time": 32.8840909,
                "pitch": 75,
                "velocity": 51,
                "duration": 0.1181818,
                "tempo": 120.0
            },
            {
                "start_time": 32.8840909,
                "end_time": 33.0159091,
                "pitch": 58,
                "velocity": 51,
                "duration": 0.1318182,
                "tempo": 120.0
            },
            {
                "start_time": 33.0159091,
                "end_time": 33.1318182,
                "pitch": 58,
                "velocity": 51,
                "duration": 0.1159091,
                "tempo": 120.0
            },
            {
                "start_time": 33.1318182,
                "end_time": 33.2454545,
                "pitch": 70,
                "velocity": 51,
                "duration": 0.1136364,
                "tempo": 120.0
            },
            {
                "start_time": 33.2454545,
                "end_time": 33.3613636,
                "pitch": 58,
                "velocity": 51,
                "duration": 0.1159091,
                "tempo": 120.0
            },
            {
                "start_time": 33.3613636,
                "end_time": 33.4772727,
                "pitch": 65,
                "velocity": 51,
                "duration": 0.1159091,
                "tempo": 120.0
            },
            {
                "start_time": 33.4772727,
                "end_time": 33.6136364,
                "pitch": 70,
                "velocity": 51,
                "duration": 0.1363636,
                "tempo": 120.0
            },
            {
                "start_time": 33.6136364,
                "end_time": 33.7295455,
                "pitch": 58,
                "velocity": 51,
                "duration": 0.1159091,
                "tempo": 120.0
            },
            {
                "start_time": 33.7295455,
                "end_time": 33.8477273,
                "pitch": 77,
                "velocity": 51,
                "duration": 0.1181818,
                "tempo": 120.0
            },
            {
                "start_time": 33.8477273,
                "end_time": 33.9636364,
                "pitch": 58,
                "velocity": 51,
                "duration": 0.1159091,
                "tempo": 120.0
            },
            {
                "start_time": 33.9636364,
                "end_time": 34.0818182,
                "pitch": 58,
                "velocity": 51,
                "duration": 0.1181818,
                "tempo": 120.0
            },
            {
                "start_time": 34.0818182,
                "end_time": 34.2136364,
                "pitch": 70,
                "velocity": 51,
                "duration": 0.1318182,
                "tempo": 120.0
            },
            {
                "start_time": 34.2136364,
                "end_time": 34.3318182,
                "pitch": 65,
                "velocity": 51,
                "duration": 0.1181818,
                "tempo": 120.0
            },
            {
                "start_time": 34.3318182,
                "end_time": 34.4477273,
                "pitch": 58,
                "velocity": 51,
                "duration": 0.1159091,
                "tempo": 120.0
            },
            {
                "start_time": 34.4477273,
                "end_time": 34.5659091,
                "pitch": 77,
                "velocity": 51,
                "duration": 0.1181818,
                "tempo": 120.0
            },
            {
                "start_time": 34.5659091,
                "end_time": 34.7,
                "pitch": 58,
                "velocity": 51,
                "duration": 0.1340909,
                "tempo": 120.0
            },
            {
                "start_time": 34.7,
                "end_time": 34.8181818,
                "pitch": 77,
                "velocity": 51,
                "duration": 0.1181818,
                "tempo": 120.0
            },
            {
                "start_time": 34.8181818,
                "end_time": 34.9386364,
                "pitch": 58,
                "velocity": 51,
                "duration": 0.1204545,
                "tempo": 120.0
            },
            {
                "start_time": 34.9386364,
                "end_time": 35.0568182,
                "pitch": 58,
                "velocity": 51,
                "duration": 0.1181818,
                "tempo": 120.0
            },
            {
                "start_time": 35.0568182,
                "end_time": 35.1772727,
                "pitch": 70,
                "velocity": 51,
                "duration": 0.1204545,
                "tempo": 120.0
            },
            {
                "start_time": 35.1772727,
                "end_time": 35.3136364,
                "pitch": 58,
                "velocity": 51,
                "duration": 0.1363636,
                "tempo": 120.0
            },
            {
                "start_time": 35.3136364,
                "end_time": 35.4318182,
                "pitch": 65,
                "velocity": 51,
                "duration": 0.1181818,
                "tempo": 120.0
            },
            {
                "start_time": 35.4318182,
                "end_time": 35.5477273,
                "pitch": 70,
                "velocity": 51,
                "duration": 0.1159091,
                "tempo": 120.0
            },
            {
                "start_time": 35.5477273,
                "end_time": 35.6659091,
                "pitch": 58,
                "velocity": 51,
                "duration": 0.1181818,
                "tempo": 120.0
            },
            {
                "start_time": 35.6659091,
                "end_time": 35.7840909,
                "pitch": 77,
                "velocity": 51,
                "duration": 0.1181818,
                "tempo": 120.0
            },
            {
                "start_time": 35.7840909,
                "end_time": 35.9159091,
                "pitch": 58,
                "velocity": 51,
                "duration": 0.1318182,
                "tempo": 120.0
            },
            {
                "start_time": 35.9159091,
                "end_time": 36.0295455,
                "pitch": 58,
                "velocity": 51,
                "duration": 0.1136364,
                "tempo": 120.0
            },
            {
                "start_time": 36.0295455,
                "end_time": 36.1454545,
                "pitch": 70,
                "velocity": 51,
                "duration": 0.1159091,
                "tempo": 120.0
            },
            {
                "start_time": 36.1454545,
                "end_time": 36.2590909,
                "pitch": 65,
                "velocity": 51,
                "duration": 0.1136364,
                "tempo": 120.0
            },
            {
                "start_time": 36.2590909,
                "end_time": 36.3772727,
                "pitch": 58,
                "velocity": 51,
                "duration": 0.1181818,
                "tempo": 120.0
            },
            {
                "start_time": 36.3772727,
                "end_time": 36.5090909,
                "pitch": 77,
                "velocity": 51,
                "duration": 0.1318182,
                "tempo": 120.0
            },
            {
                "start_time": 36.5090909,
                "end_time": 36.6272727,
                "pitch": 58,
                "velocity": 51,
                "duration": 0.1181818,
                "tempo": 120.0
            },
            {
                "start_time": 36.6272727,
                "end_time": 36.7431818,
                "pitch": 77,
                "velocity": 51,
                "duration": 0.1159091,
                "tempo": 120.0
            },
            {
                "start_time": 36.7590909,
                "end_time": 36.7772727,
                "pitch": 43,
                "velocity": 51,
                "duration": 0.0181818,
                "tempo": 120.0
            }
        ],
        "Vibraphone": [
            {
                "start_time": 0.0136364,
                "end_time": 0.1159091,
                "pitch": 43,
                "velocity": 127,
                "duration": 0.1022727,
                "tempo": 120.0
            },
            {
                "start_time": 0.1159091,
                "end_time": 0.2340909,
                "pitch": 43,
                "velocity": 127,
                "duration": 0.1181818,
                "tempo": 120.0
            },
            {
                "start_time": 0.2340909,
                "end_time": 0.3727273,
                "pitch": 43,
                "velocity": 127,
                "duration": 0.1386364,
                "tempo": 120.0
            },
            {
                "start_time": 0.3727273,
                "end_time": 0.4909091,
                "pitch": 43,
                "velocity": 127,
                "duration": 0.1181818,
                "tempo": 120.0
            },
            {
                "start_time": 0.4909091,
                "end_time": 0.6022727,
                "pitch": 43,
                "velocity": 127,
                "duration": 0.1113636,
                "tempo": 120.0
            },
            {
                "start_time": 0.6022727,
                "end_time": 0.7159091,
                "pitch": 43,
                "velocity": 127,
                "duration": 0.1136364,
                "tempo": 120.0
            },
            {
                "start_time": 0.7159091,
                "end_time": 0.8272727,
                "pitch": 43,
                "velocity": 127,
                "duration": 0.1113636,
                "tempo": 120.0
            },
            {
                "start_time": 0.8272727,
                "end_time": 0.9568182,
                "pitch": 43,
                "velocity": 127,
                "duration": 0.1295455,
                "tempo": 120.0
            },
            {
                "start_time": 0.9568182,
                "end_time": 1.075,
                "pitch": 43,
                "velocity": 127,
                "duration": 0.1181818,
                "tempo": 120.0
            },
            {
                "start_time": 1.075,
                "end_time": 1.1954545,
                "pitch": 43,
                "velocity": 127,
                "duration": 0.1204545,
                "tempo": 120.0
            },
            {
                "start_time": 1.1954545,
                "end_time": 1.3136364,
                "pitch": 43,
                "velocity": 127,
                "duration": 0.1181818,
                "tempo": 120.0
            },
            {
                "start_time": 1.3136364,
                "end_time": 1.4340909,
                "pitch": 43,
                "velocity": 127,
                "duration": 0.1204545,
                "tempo": 120.0
            },
            {
                "start_time": 1.4340909,
                "end_time": 1.5659091,
                "pitch": 43,
                "velocity": 127,
                "duration": 0.1318182,
                "tempo": 120.0
            },
            {
                "start_time": 1.5659091,
                "end_time": 1.6795455,
                "pitch": 43,
                "velocity": 127,
                "duration": 0.1136364,
                "tempo": 120.0
            },
            {
                "start_time": 1.6795455,
                "end_time": 1.7954545,
                "pitch": 43,
                "velocity": 127,
                "duration": 0.1159091,
                "tempo": 120.0
            },
            {
                "start_time": 1.7954545,
                "end_time": 1.9090909,
                "pitch": 43,
                "velocity": 127,
                "duration": 0.1136364,
                "tempo": 120.0
            },
            {
                "start_time": 1.9090909,
                "end_time": 2.0295455,
                "pitch": 43,
                "velocity": 127,
                "duration": 0.1204545,
                "tempo": 120.0
            },
            {
                "start_time": 2.0295455,
                "end_time": 2.1659091,
                "pitch": 43,
                "velocity": 127,
                "duration": 0.1363636,
                "tempo": 120.0
            },
            {
                "start_time": 2.1659091,
                "end_time": 2.2840909,
                "pitch": 43,
                "velocity": 127,
                "duration": 0.1181818,
                "tempo": 120.0
            },
            {
                "start_time": 2.2840909,
                "end_time": 2.4045455,
                "pitch": 43,
                "velocity": 127,
                "duration": 0.1204545,
                "tempo": 120.0
            },
            {
                "start_time": 2.4045455,
                "end_time": 2.5181818,
                "pitch": 43,
                "velocity": 127,
                "duration": 0.1136364,
                "tempo": 120.0
            },
            {
                "start_time": 2.5181818,
                "end_time": 2.65,
                "pitch": 43,
                "velocity": 127,
                "duration": 0.1318182,
                "tempo": 120.0
            },
            {
                "start_time": 2.65,
                "end_time": 2.7659091,
                "pitch": 43,
                "velocity": 127,
                "duration": 0.1159091,
                "tempo": 120.0
            },
            {
                "start_time": 2.7659091,
                "end_time": 2.8795455,
                "pitch": 43,
                "velocity": 127,
                "duration": 0.1136364,
                "tempo": 120.0
            },
            {
                "start_time": 2.8795455,
                "end_time": 3.0,
                "pitch": 43,
                "velocity": 127,
                "duration": 0.1204545,
                "tempo": 120.0
            },
            {
                "start_time": 3.0,
                "end_time": 3.1181818,
                "pitch": 43,
                "velocity": 127,
                "duration": 0.1181818,
                "tempo": 120.0
            },
            {
                "start_time": 3.1181818,
                "end_time": 3.2545455,
                "pitch": 43,
                "velocity": 127,
                "duration": 0.1363636,
                "tempo": 120.0
            },
            {
                "start_time": 3.2545455,
                "end_time": 3.375,
                "pitch": 43,
                "velocity": 127,
                "duration": 0.1204545,
                "tempo": 120.0
            },
            {
                "start_time": 3.375,
                "end_time": 3.4954545,
                "pitch": 43,
                "velocity": 127,
                "duration": 0.1204545,
                "tempo": 120.0
            },
            {
                "start_time": 3.4954545,
                "end_time": 3.6136364,
                "pitch": 43,
                "velocity": 127,
                "duration": 0.1181818,
                "tempo": 120.0
            },
            {
                "start_time": 3.6136364,
                "end_time": 3.7340909,
                "pitch": 43,
                "velocity": 127,
                "duration": 0.1204545,
                "tempo": 120.0
            },
            {
                "start_time": 3.7340909,
                "end_time": 3.8704545,
                "pitch": 43,
                "velocity": 127,
                "duration": 0.1363636,
                "tempo": 120.0
            },
            {
                "start_time": 3.8704545,
                "end_time": 3.9863636,
                "pitch": 46,
                "velocity": 127,
                "duration": 0.1159091,
                "tempo": 120.0
            },
            {
                "start_time": 3.9863636,
                "end_time": 4.1045455,
                "pitch": 46,
                "velocity": 127,
                "duration": 0.1181818,
                "tempo": 120.0
            },
            {
                "start_time": 4.1045455,
                "end_time": 4.2204545,
                "pitch": 46,
                "velocity": 127,
                "duration": 0.1159091,
                "tempo": 120.0
            },
            {
                "start_time": 4.2204545,
                "end_time": 4.3545455,
                "pitch": 46,
                "velocity": 127,
                "duration": 0.1340909,
                "tempo": 120.0
            },
            {
                "start_time": 4.3545455,
                "end_time": 4.4681818,
                "pitch": 46,
                "velocity": 127,
                "duration": 0.1136364,
                "tempo": 120.0
            },
            {
                "start_time": 4.4681818,
                "end_time": 4.5840909,
                "pitch": 46,
                "velocity": 127,
                "duration": 0.1159091,
                "tempo": 120.0
            },
            {
                "start_time": 4.5840909,
                "end_time": 4.6977273,
                "pitch": 46,
                "velocity": 127,
                "duration": 0.1136364,
                "tempo": 120.0
            },
            {
                "start_time": 4.6977273,
                "end_time": 4.8136364,
                "pitch": 46,
                "velocity": 127,
                "duration": 0.1159091,
                "tempo": 120.0
            },
            {
                "start_time": 4.8136364,
                "end_time": 4.9431818,
                "pitch": 46,
                "velocity": 127,
                "duration": 0.1295455,
                "tempo": 120.0
            },
            {
                "start_time": 4.9431818,
                "end_time": 5.0590909,
                "pitch": 46,
                "velocity": 127,
                "duration": 0.1159091,
                "tempo": 120.0
            },
            {
                "start_time": 5.0590909,
                "end_time": 5.1727273,
                "pitch": 46,
                "velocity": 127,
                "duration": 0.1136364,
                "tempo": 120.0
            },
            {
                "start_time": 5.1727273,
                "end_time": 5.2886364,
                "pitch": 46,
                "velocity": 127,
                "duration": 0.1159091,
                "tempo": 120.0
            },
            {
                "start_time": 5.2886364,
                "end_time": 5.4068182,
                "pitch": 46,
                "velocity": 127,
                "duration": 0.1181818,
                "tempo": 120.0
            },
            {
                "start_time": 5.4068182,
                "end_time": 5.5454545,
                "pitch": 46,
                "velocity": 127,
                "duration": 0.1386364,
                "tempo": 120.0
            },
            {
                "start_time": 5.5454545,
                "end_time": 5.6636364,
                "pitch": 46,
                "velocity": 127,
                "duration": 0.1181818,
                "tempo": 120.0
            },
            {
                "start_time": 5.6636364,
                "end_time": 5.7840909,
                "pitch": 46,
                "velocity": 127,
                "duration": 0.1204545,
                "tempo": 120.0
            },
            {
                "start_time": 5.7840909,
                "end_time": 5.9022727,
                "pitch": 46,
                "velocity": 127,
                "duration": 0.1181818,
                "tempo": 120.0
            },
            {
                "start_time": 5.9022727,
                "end_time": 6.0227273,
                "pitch": 46,
                "velocity": 127,
                "duration": 0.1204545,
                "tempo": 120.0
            },
            {
                "start_time": 6.0227273,
                "end_time": 6.1590909,
                "pitch": 46,
                "velocity": 127,
                "duration": 0.1363636,
                "tempo": 120.0
            },
            {
                "start_time": 6.1590909,
                "end_time": 6.2795455,
                "pitch": 46,
                "velocity": 127,
                "duration": 0.1204545,
                "tempo": 120.0
            },
            {
                "start_time": 6.2795455,
                "end_time": 6.3931818,
                "pitch": 46,
                "velocity": 127,
                "duration": 0.1136364,
                "tempo": 120.0
            },
            {
                "start_time": 6.3931818,
                "end_time": 6.5090909,
                "pitch": 46,
                "velocity": 127,
                "duration": 0.1159091,
                "tempo": 120.0
            },
            {
                "start_time": 6.5090909,
                "end_time": 6.6386364,
                "pitch": 46,
                "velocity": 127,
                "duration": 0.1295455,
                "tempo": 120.0
            },
            {
                "start_time": 6.6386364,
                "end_time": 6.7545455,
                "pitch": 46,
                "velocity": 127,
                "duration": 0.1159091,
                "tempo": 120.0
            },
            {
                "start_time": 6.7545455,
                "end_time": 6.8727273,
                "pitch": 46,
                "velocity": 127,
                "duration": 0.1181818,
                "tempo": 120.0
            },
            {
                "start_time": 6.8727273,
                "end_time": 6.9886364,
                "pitch": 46,
                "velocity": 127,
                "duration": 0.1159091,
                "tempo": 120.0
            },
            {
                "start_time": 6.9886364,
                "end_time": 7.1068182,
                "pitch": 46,
                "velocity": 127,
                "duration": 0.1181818,
                "tempo": 120.0
            },
            {
                "start_time": 7.1068182,
                "end_time": 7.2409091,
                "pitch": 46,
                "velocity": 127,
                "duration": 0.1340909,
                "tempo": 120.0
            },
            {
                "start_time": 7.2409091,
                "end_time": 7.3613636,
                "pitch": 46,
                "velocity": 127,
                "duration": 0.1204545,
                "tempo": 120.0
            },
            {
                "start_time": 7.3613636,
                "end_time": 7.4795455,
                "pitch": 46,
                "velocity": 127,
                "duration": 0.1181818,
                "tempo": 120.0
            },
            {
                "start_time": 7.4795455,
                "end_time": 7.6,
                "pitch": 46,
                "velocity": 127,
                "duration": 0.1204545,
                "tempo": 120.0
            },
            {
                "start_time": 7.6,
                "end_time": 7.7204545,
                "pitch": 46,
                "velocity": 127,
                "duration": 0.1204545,
                "tempo": 120.0
            },
            {
                "start_time": 7.7204545,
                "end_time": 7.8545455,
                "pitch": 41,
                "velocity": 127,
                "duration": 0.1340909,
                "tempo": 120.0
            },
            {
                "start_time": 7.8545455,
                "end_time": 7.9727273,
                "pitch": 41,
                "velocity": 127,
                "duration": 0.1181818,
                "tempo": 120.0
            },
            {
                "start_time": 7.9727273,
                "end_time": 8.0886364,
                "pitch": 41,
                "velocity": 127,
                "duration": 0.1159091,
                "tempo": 120.0
            },
            {
                "start_time": 8.0886364,
                "end_time": 8.2068182,
                "pitch": 41,
                "velocity": 127,
                "duration": 0.1181818,
                "tempo": 120.0
            },
            {
                "start_time": 8.2068182,
                "end_time": 8.3227273,
                "pitch": 41,
                "velocity": 127,
                "duration": 0.1159091,
                "tempo": 120.0
            },
            {
                "start_time": 8.3227273,
                "end_time": 8.4522727,
                "pitch": 41,
                "velocity": 127,
                "duration": 0.1295455,
                "tempo": 120.0
            },
            {
                "start_time": 8.4522727,
                "end_time": 8.5681818,
                "pitch": 41,
                "velocity": 127,
                "duration": 0.1159091,
                "tempo": 120.0
            },
            {
                "start_time": 8.5681818,
                "end_time": 8.6818182,
                "pitch": 41,
                "velocity": 127,
                "duration": 0.1136364,
                "tempo": 120.0
            },
            {
                "start_time": 8.6818182,
                "end_time": 8.8,
                "pitch": 41,
                "velocity": 127,
                "duration": 0.1181818,
                "tempo": 120.0
            },
            {
                "start_time": 8.8,
                "end_time": 8.9340909,
                "pitch": 41,
                "velocity": 127,
                "duration": 0.1340909,
                "tempo": 120.0
            },
            {
                "start_time": 8.9340909,
                "end_time": 9.0522727,
                "pitch": 41,
                "velocity": 127,
                "duration": 0.1181818,
                "tempo": 120.0
            },
            {
                "start_time": 9.0522727,
                "end_time": 9.1704545,
                "pitch": 41,
                "velocity": 127,
                "duration": 0.1181818,
                "tempo": 120.0
            },
            {
                "start_time": 9.1704545,
                "end_time": 9.2886364,
                "pitch": 41,
                "velocity": 127,
                "duration": 0.1181818,
                "tempo": 120.0
            },
            {
                "start_time": 9.2886364,
                "end_time": 9.4090909,
                "pitch": 41,
                "velocity": 127,
                "duration": 0.1204545,
                "tempo": 120.0
            },
            {
                "start_time": 9.4090909,
                "end_time": 9.5454545,
                "pitch": 41,
                "velocity": 127,
                "duration": 0.1363636,
                "tempo": 120.0
            },
            {
                "start_time": 9.5454545,
                "end_time": 9.6659091,
                "pitch": 41,
                "velocity": 127,
                "duration": 0.1204545,
                "tempo": 120.0
            },
            {
                "start_time": 9.6659091,
                "end_time": 9.7840909,
                "pitch": 41,
                "velocity": 127,
                "duration": 0.1181818,
                "tempo": 120.0
            },
            {
                "start_time": 9.7840909,
                "end_time": 9.9045455,
                "pitch": 41,
                "velocity": 127,
                "duration": 0.1204545,
                "tempo": 120.0
            },
            {
                "start_time": 9.9045455,
                "end_time": 10.0227273,
                "pitch": 41,
                "velocity": 127,
                "duration": 0.1181818,
                "tempo": 120.0
            },
            {
                "start_time": 10.0227273,
                "end_time": 10.1590909,
                "pitch": 41,
                "velocity": 127,
                "duration": 0.1363636,
                "tempo": 120.0
            },
            {
                "start_time": 10.1590909,
                "end_time": 10.275,
                "pitch": 41,
                "velocity": 127,
                "duration": 0.1159091,
                "tempo": 120.0
            },
            {
                "start_time": 10.275,
                "end_time": 10.3909091,
                "pitch": 41,
                "velocity": 127,
                "duration": 0.1159091,
                "tempo": 120.0
            },
            {
                "start_time": 10.3909091,
                "end_time": 10.5045455,
                "pitch": 41,
                "velocity": 127,
                "duration": 0.1136364,
                "tempo": 120.0
            },
            {
                "start_time": 10.5045455,
                "end_time": 10.6204545,
                "pitch": 41,
                "velocity": 127,
                "duration": 0.1159091,
                "tempo": 120.0
            },
            {
                "start_time": 10.6204545,
                "end_time": 10.75,
                "pitch": 41,
                "velocity": 127,
                "duration": 0.1295455,
                "tempo": 120.0
            },
            {
                "start_time": 10.75,
                "end_time": 10.8659091,
                "pitch": 41,
                "velocity": 127,
                "duration": 0.1159091,
                "tempo": 120.0
            },
            {
                "start_time": 10.8659091,
                "end_time": 10.9795455,
                "pitch": 41,
                "velocity": 127,
                "duration": 0.1136364,
                "tempo": 120.0
            },
            {
                "start_time": 10.9795455,
                "end_time": 11.0954545,
                "pitch": 41,
                "velocity": 127,
                "duration": 0.1159091,
                "tempo": 120.0
            },
            {
                "start_time": 11.0954545,
                "end_time": 11.2318182,
                "pitch": 41,
                "velocity": 127,
                "duration": 0.1363636,
                "tempo": 120.0
            },
            {
                "start_time": 11.2318182,
                "end_time": 11.35,
                "pitch": 41,
                "velocity": 127,
                "duration": 0.1181818,
                "tempo": 120.0
            },
            {
                "start_time": 11.35,
                "end_time": 11.4704545,
                "pitch": 41,
                "velocity": 127,
                "duration": 0.1204545,
                "tempo": 120.0
            },
            {
                "start_time": 11.4704545,
                "end_time": 11.5909091,
                "pitch": 41,
                "velocity": 127,
                "duration": 0.1204545,
                "tempo": 120.0
            },
            {
                "start_time": 11.5909091,
                "end_time": 11.7068182,
                "pitch": 43,
                "velocity": 127,
                "duration": 0.1159091,
                "tempo": 120.0
            },
            {
                "start_time": 11.7068182,
                "end_time": 11.8409091,
                "pitch": 43,
                "velocity": 127,
                "duration": 0.1340909,
                "tempo": 120.0
            },
            {
                "start_time": 11.8409091,
                "end_time": 11.9568182,
                "pitch": 43,
                "velocity": 127,
                "duration": 0.1159091,
                "tempo": 120.0
            },
            {
                "start_time": 11.9568182,
                "end_time": 12.0727273,
                "pitch": 43,
                "velocity": 127,
                "duration": 0.1159091,
                "tempo": 120.0
            },
            {
                "start_time": 12.0727273,
                "end_time": 12.1909091,
                "pitch": 43,
                "velocity": 127,
                "duration": 0.1181818,
                "tempo": 120.0
            },
            {
                "start_time": 12.1909091,
                "end_time": 12.3090909,
                "pitch": 43,
                "velocity": 127,
                "duration": 0.1181818,
                "tempo": 120.0
            },
            {
                "start_time": 12.3090909,
                "end_time": 12.4431818,
                "pitch": 43,
                "velocity": 127,
                "duration": 0.1340909,
                "tempo": 120.0
            },
            {
                "start_time": 12.4431818,
                "end_time": 12.5613636,
                "pitch": 43,
                "velocity": 127,
                "duration": 0.1181818,
                "tempo": 120.0
            },
            {
                "start_time": 12.5613636,
                "end_time": 12.6772727,
                "pitch": 43,
                "velocity": 127,
                "duration": 0.1159091,
                "tempo": 120.0
            },
            {
                "start_time": 12.6772727,
                "end_time": 12.7954545,
                "pitch": 43,
                "velocity": 127,
                "duration": 0.1181818,
                "tempo": 120.0
            },
            {
                "start_time": 12.7954545,
                "end_time": 12.9295455,
                "pitch": 43,
                "velocity": 127,
                "duration": 0.1340909,
                "tempo": 120.0
            },
            {
                "start_time": 12.9295455,
                "end_time": 13.0477273,
                "pitch": 43,
                "velocity": 127,
                "duration": 0.1181818,
                "tempo": 120.0
            },
            {
                "start_time": 13.0477273,
                "end_time": 13.1659091,
                "pitch": 43,
                "velocity": 127,
                "duration": 0.1181818,
                "tempo": 120.0
            },
            {
                "start_time": 13.1659091,
                "end_time": 13.2818182,
                "pitch": 43,
                "velocity": 127,
                "duration": 0.1159091,
                "tempo": 120.0
            },
            {
                "start_time": 13.2818182,
                "end_time": 13.4,
                "pitch": 43,
                "velocity": 127,
                "duration": 0.1181818,
                "tempo": 120.0
            },
            {
                "start_time": 13.4,
                "end_time": 13.5340909,
                "pitch": 43,
                "velocity": 127,
                "duration": 0.1340909,
                "tempo": 120.0
            },
            {
                "start_time": 13.5340909,
                "end_time": 13.6545455,
                "pitch": 46,
                "velocity": 127,
                "duration": 0.1204545,
                "tempo": 120.0
            },
            {
                "start_time": 13.6545455,
                "end_time": 13.775,
                "pitch": 46,
                "velocity": 127,
                "duration": 0.1204545,
                "tempo": 120.0
            },
            {
                "start_time": 13.775,
                "end_time": 13.8931818,
                "pitch": 46,
                "velocity": 127,
                "duration": 0.1181818,
                "tempo": 120.0
            },
            {
                "start_time": 13.8931818,
                "end_time": 14.0136364,
                "pitch": 46,
                "velocity": 127,
                "duration": 0.1204545,
                "tempo": 120.0
            },
            {
                "start_time": 14.0136364,
                "end_time": 14.1409091,
                "pitch": 46,
                "velocity": 127,
                "duration": 0.1272727,
                "tempo": 120.0
            },
            {
                "start_time": 14.1409091,
                "end_time": 14.2522727,
                "pitch": 46,
                "velocity": 127,
                "duration": 0.1113636,
                "tempo": 120.0
            },
            {
                "start_time": 14.2522727,
                "end_time": 14.3659091,
                "pitch": 46,
                "velocity": 127,
                "duration": 0.1136364,
                "tempo": 120.0
            },
            {
                "start_time": 14.3659091,
                "end_time": 14.4772727,
                "pitch": 46,
                "velocity": 127,
                "duration": 0.1113636,
                "tempo": 120.0
            },
            {
                "start_time": 14.4772727,
                "end_time": 14.5977273,
                "pitch": 46,
                "velocity": 127,
                "duration": 0.1204545,
                "tempo": 120.0
            },
            {
                "start_time": 14.5977273,
                "end_time": 14.7340909,
                "pitch": 46,
                "velocity": 127,
                "duration": 0.1363636,
                "tempo": 120.0
            },
            {
                "start_time": 14.7340909,
                "end_time": 14.8522727,
                "pitch": 46,
                "velocity": 127,
                "duration": 0.1181818,
                "tempo": 120.0
            },
            {
                "start_time": 14.8522727,
                "end_time": 14.9727273,
                "pitch": 46,
                "velocity": 127,
                "duration": 0.1204545,
                "tempo": 120.0
            },
            {
                "start_time": 14.9727273,
                "end_time": 15.0909091,
                "pitch": 46,
                "velocity": 127,
                "duration": 0.1181818,
                "tempo": 120.0
            },
            {
                "start_time": 15.0909091,
                "end_time": 15.2295455,
                "pitch": 46,
                "velocity": 127,
                "duration": 0.1386364,
                "tempo": 120.0
            },
            {
                "start_time": 15.2295455,
                "end_time": 15.3477273,
                "pitch": 46,
                "velocity": 127,
                "duration": 0.1181818,
                "tempo": 120.0
            },
            {
                "start_time": 15.3477273,
                "end_time": 15.4681818,
                "pitch": 46,
                "velocity": 127,
                "duration": 0.1204545,
                "tempo": 120.0
            },
            {
                "start_time": 15.4681818,
                "end_time": 15.5863636,
                "pitch": 46,
                "velocity": 127,
                "duration": 0.1181818,
                "tempo": 120.0
            },
            {
                "start_time": 15.5863636,
                "end_time": 15.7022727,
                "pitch": 46,
                "velocity": 127,
                "duration": 0.1159091,
                "tempo": 120.0
            },
            {
                "start_time": 15.7022727,
                "end_time": 15.8363636,
                "pitch": 46,
                "velocity": 127,
                "duration": 0.1340909,
                "tempo": 120.0
            },
            {
                "start_time": 15.8363636,
                "end_time": 15.9545455,
                "pitch": 46,
                "velocity": 127,
                "duration": 0.1181818,
                "tempo": 120.0
            },
            {
                "start_time": 15.9545455,
                "end_time": 16.0704545,
                "pitch": 46,
                "velocity": 127,
                "duration": 0.1159091,
                "tempo": 120.0
            },
            {
                "start_time": 16.0704545,
                "end_time": 16.1886364,
                "pitch": 46,
                "velocity": 127,
                "duration": 0.1181818,
                "tempo": 120.0
            },
            {
                "start_time": 16.1886364,
                "end_time": 16.3045455,
                "pitch": 46,
                "velocity": 127,
                "duration": 0.1159091,
                "tempo": 120.0
            },
            {
                "start_time": 16.3045455,
                "end_time": 16.4386364,
                "pitch": 46,
                "velocity": 127,
                "duration": 0.1340909,
                "tempo": 120.0
            },
            {
                "start_time": 16.4386364,
                "end_time": 16.5568182,
                "pitch": 46,
                "velocity": 127,
                "duration": 0.1181818,
                "tempo": 120.0
            },
            {
                "start_time": 16.5568182,
                "end_time": 16.6727273,
                "pitch": 46,
                "velocity": 127,
                "duration": 0.1159091,
                "tempo": 120.0
            },
            {
                "start_time": 16.6727273,
                "end_time": 16.7909091,
                "pitch": 46,
                "velocity": 127,
                "duration": 0.1181818,
                "tempo": 120.0
            },
            {
                "start_time": 16.7909091,
                "end_time": 16.9090909,
                "pitch": 46,
                "velocity": 127,
                "duration": 0.1181818,
                "tempo": 120.0
            },
            {
                "start_time": 16.9090909,
                "end_time": 17.0409091,
                "pitch": 46,
                "velocity": 127,
                "duration": 0.1318182,
                "tempo": 120.0
            },
            {
                "start_time": 17.0409091,
                "end_time": 17.1545455,
                "pitch": 46,
                "velocity": 127,
                "duration": 0.1136364,
                "tempo": 120.0
            },
            {
                "start_time": 17.1545455,
                "end_time": 17.2704545,
                "pitch": 46,
                "velocity": 127,
                "duration": 0.1159091,
                "tempo": 120.0
            },
            {
                "start_time": 17.2704545,
                "end_time": 17.3840909,
                "pitch": 46,
                "velocity": 127,
                "duration": 0.1136364,
                "tempo": 120.0
            },
            {
                "start_time": 17.3840909,
                "end_time": 17.5204545,
                "pitch": 46,
                "velocity": 127,
                "duration": 0.1363636,
                "tempo": 120.0
            },
            {
                "start_time": 17.5204545,
                "end_time": 17.6409091,
                "pitch": 48,
                "velocity": 127,
                "duration": 0.1204545,
                "tempo": 120.0
            },
            {
                "start_time": 17.6409091,
                "end_time": 17.7590909,
                "pitch": 48,
                "velocity": 127,
                "duration": 0.1181818,
                "tempo": 120.0
            },
            {
                "start_time": 17.7590909,
                "end_time": 17.8795455,
                "pitch": 48,
                "velocity": 127,
                "duration": 0.1204545,
                "tempo": 120.0
            },
            {
                "start_time": 17.8795455,
                "end_time": 17.9931818,
                "pitch": 48,
                "velocity": 127,
                "duration": 0.1136364,
                "tempo": 120.0
            },
            {
                "start_time": 17.9931818,
                "end_time": 18.125,
                "pitch": 48,
                "velocity": 127,
                "duration": 0.1318182,
                "tempo": 120.0
            },
            {
                "start_time": 18.125,
                "end_time": 18.2409091,
                "pitch": 48,
                "velocity": 127,
                "duration": 0.1159091,
                "tempo": 120.0
            },
            {
                "start_time": 18.2409091,
                "end_time": 18.3545455,
                "pitch": 48,
                "velocity": 127,
                "duration": 0.1136364,
                "tempo": 120.0
            },
            {
                "start_time": 18.3545455,
                "end_time": 18.475,
                "pitch": 48,
                "velocity": 127,
                "duration": 0.1204545,
                "tempo": 120.0
            },
            {
                "start_time": 18.475,
                "end_time": 18.5931818,
                "pitch": 48,
                "velocity": 127,
                "duration": 0.1181818,
                "tempo": 120.0
            },
            {
                "start_time": 18.5931818,
                "end_time": 18.7295455,
                "pitch": 48,
                "velocity": 127,
                "duration": 0.1363636,
                "tempo": 120.0
            },
            {
                "start_time": 18.7295455,
                "end_time": 18.85,
                "pitch": 48,
                "velocity": 127,
                "duration": 0.1204545,
                "tempo": 120.0
            },
            {
                "start_time": 18.85,
                "end_time": 18.9681818,
                "pitch": 48,
                "velocity": 127,
                "duration": 0.1181818,
                "tempo": 120.0
            },
            {
                "start_time": 18.9681818,
                "end_time": 19.0886364,
                "pitch": 48,
                "velocity": 127,
                "duration": 0.1204545,
                "tempo": 120.0
            },
            {
                "start_time": 19.0886364,
                "end_time": 19.2090909,
                "pitch": 48,
                "velocity": 127,
                "duration": 0.1204545,
                "tempo": 120.0
            },
            {
                "start_time": 19.2090909,
                "end_time": 19.3454545,
                "pitch": 48,
                "velocity": 127,
                "duration": 0.1363636,
                "tempo": 120.0
            },
            {
                "start_time": 19.3454545,
                "end_time": 19.4613636,
                "pitch": 48,
                "velocity": 127,
                "duration": 0.1159091,
                "tempo": 120.0
            },
            {
                "start_time": 19.4613636,
                "end_time": 19.5772727,
                "pitch": 48,
                "velocity": 127,
                "duration": 0.1159091,
                "tempo": 120.0
            },
            {
                "start_time": 19.5772727,
                "end_time": 19.6954545,
                "pitch": 48,
                "velocity": 127,
                "duration": 0.1181818,
                "tempo": 120.0
            },
            {
                "start_time": 19.6954545,
                "end_time": 19.8272727,
                "pitch": 48,
                "velocity": 127,
                "duration": 0.1318182,
                "tempo": 120.0
            },
            {
                "start_time": 19.8272727,
                "end_time": 19.9454545,
                "pitch": 48,
                "velocity": 127,
                "duration": 0.1181818,
                "tempo": 120.0
            },
            {
                "start_time": 19.9454545,
                "end_time": 20.0636364,
                "pitch": 48,
                "velocity": 127,
                "duration": 0.1181818,
                "tempo": 120.0
            },
            {
                "start_time": 20.0636364,
                "end_time": 20.1818182,
                "pitch": 48,
                "velocity": 127,
                "duration": 0.1181818,
                "tempo": 120.0
            },
            {
                "start_time": 20.1818182,
                "end_time": 20.2977273,
                "pitch": 48,
                "velocity": 127,
                "duration": 0.1159091,
                "tempo": 120.0
            },
            {
                "start_time": 20.2977273,
                "end_time": 20.4272727,
                "pitch": 48,
                "velocity": 127,
                "duration": 0.1295455,
                "tempo": 120.0
            },
            {
                "start_time": 20.4272727,
                "end_time": 20.5386364,
                "pitch": 48,
                "velocity": 127,
                "duration": 0.1113636,
                "tempo": 120.0
            },
            {
                "start_time": 20.5386364,
                "end_time": 20.65,
                "pitch": 48,
                "velocity": 127,
                "duration": 0.1113636,
                "tempo": 120.0
            },
            {
                "start_time": 20.65,
                "end_time": 20.7636364,
                "pitch": 48,
                "velocity": 127,
                "duration": 0.1136364,
                "tempo": 120.0
            },
            {
                "start_time": 20.7636364,
                "end_time": 20.8818182,
                "pitch": 48,
                "velocity": 127,
                "duration": 0.1181818,
                "tempo": 120.0
            },
            {
                "start_time": 20.8818182,
                "end_time": 21.0181818,
                "pitch": 48,
                "velocity": 127,
                "duration": 0.1363636,
                "tempo": 120.0
            },
            {
                "start_time": 21.0181818,
                "end_time": 21.1386364,
                "pitch": 48,
                "velocity": 127,
                "duration": 0.1204545,
                "tempo": 120.0
            },
            {
                "start_time": 21.1386364,
                "end_time": 21.2590909,
                "pitch": 48,
                "velocity": 127,
                "duration": 0.1204545,
                "tempo": 120.0
            },
            {
                "start_time": 21.2590909,
                "end_time": 21.3772727,
                "pitch": 50,
                "velocity": 127,
                "duration": 0.1181818,
                "tempo": 120.0
            },
            {
                "start_time": 21.3772727,
                "end_time": 21.5136364,
                "pitch": 50,
                "velocity": 127,
                "duration": 0.1363636,
                "tempo": 120.0
            },
            {
                "start_time": 21.5136364,
                "end_time": 21.6340909,
                "pitch": 50,
                "velocity": 127,
                "duration": 0.1204545,
                "tempo": 120.0
            },
            {
                "start_time": 21.6340909,
                "end_time": 21.7522727,
                "pitch": 50,
                "velocity": 127,
                "duration": 0.1181818,
                "tempo": 120.0
            },
            {
                "start_time": 21.7522727,
                "end_time": 21.8681818,
                "pitch": 50,
                "velocity": 127,
                "duration": 0.1159091,
                "tempo": 120.0
            },
            {
                "start_time": 21.8681818,
                "end_time": 21.9818182,
                "pitch": 50,
                "velocity": 127,
                "duration": 0.1136364,
                "tempo": 120.0
            },
            {
                "start_time": 21.9818182,
                "end_time": 22.1136364,
                "pitch": 50,
                "velocity": 127,
                "duration": 0.1318182,
                "tempo": 120.0
            },
            {
                "start_time": 22.1136364,
                "end_time": 22.2295455,
                "pitch": 50,
                "velocity": 127,
                "duration": 0.1159091,
                "tempo": 120.0
            },
            {
                "start_time": 22.2295455,
                "end_time": 22.3477273,
                "pitch": 50,
                "velocity": 127,
                "duration": 0.1181818,
                "tempo": 120.0
            },
            {
                "start_time": 22.3477273,
                "end_time": 22.4681818,
                "pitch": 50,
                "velocity": 127,
                "duration": 0.1204545,
                "tempo": 120.0
            },
            {
                "start_time": 22.4681818,
                "end_time": 22.5863636,
                "pitch": 50,
                "velocity": 127,
                "duration": 0.1181818,
                "tempo": 120.0
            },
            {
                "start_time": 22.5863636,
                "end_time": 22.725,
                "pitch": 50,
                "velocity": 127,
                "duration": 0.1386364,
                "tempo": 120.0
            },
            {
                "start_time": 22.725,
                "end_time": 22.8409091,
                "pitch": 50,
                "velocity": 127,
                "duration": 0.1159091,
                "tempo": 120.0
            },
            {
                "start_time": 22.8409091,
                "end_time": 22.9590909,
                "pitch": 50,
                "velocity": 127,
                "duration": 0.1181818,
                "tempo": 120.0
            },
            {
                "start_time": 22.9590909,
                "end_time": 23.0772727,
                "pitch": 50,
                "velocity": 127,
                "duration": 0.1181818,
                "tempo": 120.0
            },
            {
                "start_time": 23.0772727,
                "end_time": 23.1931818,
                "pitch": 50,
                "velocity": 127,
                "duration": 0.1159091,
                "tempo": 120.0
            },
            {
                "start_time": 23.1931818,
                "end_time": 23.325,
                "pitch": 50,
                "velocity": 127,
                "duration": 0.1318182,
                "tempo": 120.0
            },
            {
                "start_time": 23.325,
                "end_time": 23.4409091,
                "pitch": 50,
                "velocity": 127,
                "duration": 0.1159091,
                "tempo": 120.0
            },
            {
                "start_time": 23.4409091,
                "end_time": 23.5545455,
                "pitch": 50,
                "velocity": 127,
                "duration": 0.1136364,
                "tempo": 120.0
            },
            {
                "start_time": 23.5545455,
                "end_time": 23.6704545,
                "pitch": 50,
                "velocity": 127,
                "duration": 0.1159091,
                "tempo": 120.0
            },
            {
                "start_time": 23.6704545,
                "end_time": 23.8045455,
                "pitch": 50,
                "velocity": 127,
                "duration": 0.1340909,
                "tempo": 120.0
            },
            {
                "start_time": 23.8045455,
                "end_time": 23.9227273,
                "pitch": 50,
                "velocity": 127,
                "duration": 0.1181818,
                "tempo": 120.0
            },
            {
                "start_time": 23.9227273,
                "end_time": 24.0386364,
                "pitch": 50,
                "velocity": 127,
                "duration": 0.1159091,
                "tempo": 120.0
            },
            {
                "start_time": 24.0386364,
                "end_time": 24.1568182,
                "pitch": 50,
                "velocity": 127,
                "duration": 0.1181818,
                "tempo": 120.0
            },
            {
                "start_time": 24.1568182,
                "end_time": 24.275,
                "pitch": 50,
                "velocity": 127,
                "duration": 0.1181818,
                "tempo": 120.0
            },
            {
                "start_time": 24.275,
                "end_time": 24.4090909,
                "pitch": 50,
                "velocity": 127,
                "duration": 0.1340909,
                "tempo": 120.0
            },
            {
                "start_time": 24.4090909,
                "end_time": 24.5272727,
                "pitch": 50,
                "velocity": 127,
                "duration": 0.1181818,
                "tempo": 120.0
            },
            {
                "start_time": 24.5272727,
                "end_time": 24.6454545,
                "pitch": 50,
                "velocity": 127,
                "duration": 0.1181818,
                "tempo": 120.0
            },
            {
                "start_time": 24.6454545,
                "end_time": 24.7636364,
                "pitch": 50,
                "velocity": 127,
                "duration": 0.1181818,
                "tempo": 120.0
            },
            {
                "start_time": 24.7636364,
                "end_time": 24.8840909,
                "pitch": 50,
                "velocity": 127,
                "duration": 0.1204545,
                "tempo": 120.0
            },
            {
                "start_time": 24.8840909,
                "end_time": 25.0204545,
                "pitch": 50,
                "velocity": 127,
                "duration": 0.1363636,
                "tempo": 120.0
            },
            {
                "start_time": 25.0204545,
                "end_time": 25.1386364,
                "pitch": 50,
                "velocity": 127,
                "duration": 0.1181818,
                "tempo": 120.0
            },
            {
                "start_time": 25.1386364,
                "end_time": 25.2590909,
                "pitch": 50,
                "velocity": 127,
                "duration": 0.1204545,
                "tempo": 120.0
            },
            {
                "start_time": 25.2590909,
                "end_time": 25.3795455,
                "pitch": 51,
                "velocity": 127,
                "duration": 0.1204545,
                "tempo": 120.0
            },
            {
                "start_time": 25.3795455,
                "end_time": 25.4977273,
                "pitch": 51,
                "velocity": 127,
                "duration": 0.1181818,
                "tempo": 120.0
            },
            {
                "start_time": 25.4977273,
                "end_time": 25.6340909,
                "pitch": 51,
                "velocity": 127,
                "duration": 0.1363636,
                "tempo": 120.0
            },
            {
                "start_time": 25.6340909,
                "end_time": 25.75,
                "pitch": 51,
                "velocity": 127,
                "duration": 0.1159091,
                "tempo": 120.0
            },
            {
                "start_time": 25.75,
                "end_time": 25.8636364,
                "pitch": 51,
                "velocity": 127,
                "duration": 0.1136364,
                "tempo": 120.0
            },
            {
                "start_time": 25.8636364,
                "end_time": 25.9795455,
                "pitch": 51,
                "velocity": 127,
                "duration": 0.1159091,
                "tempo": 120.0
            },
            {
                "start_time": 25.9795455,
                "end_time": 26.1090909,
                "pitch": 51,
                "velocity": 127,
                "duration": 0.1295455,
                "tempo": 120.0
            },
            {
                "start_time": 26.1090909,
                "end_time": 26.2295455,
                "pitch": 51,
                "velocity": 127,
                "duration": 0.1204545,
                "tempo": 120.0
            },
            {
                "start_time": 26.2295455,
                "end_time": 26.35,
                "pitch": 51,
                "velocity": 127,
                "duration": 0.1204545,
                "tempo": 120.0
            },
            {
                "start_time": 26.35,
                "end_time": 26.4681818,
                "pitch": 51,
                "velocity": 127,
                "duration": 0.1181818,
                "tempo": 120.0
            },
            {
                "start_time": 26.4681818,
                "end_time": 26.5886364,
                "pitch": 51,
                "velocity": 127,
                "duration": 0.1204545,
                "tempo": 120.0
            },
            {
                "start_time": 26.5886364,
                "end_time": 26.7204545,
                "pitch": 51,
                "velocity": 127,
                "duration": 0.1318182,
                "tempo": 120.0
            },
            {
                "start_time": 26.7204545,
                "end_time": 26.8340909,
                "pitch": 51,
                "velocity": 127,
                "duration": 0.1136364,
                "tempo": 120.0
            },
            {
                "start_time": 26.8340909,
                "end_time": 26.95,
                "pitch": 51,
                "velocity": 127,
                "duration": 0.1159091,
                "tempo": 120.0
            },
            {
                "start_time": 26.95,
                "end_time": 27.0636364,
                "pitch": 51,
                "velocity": 127,
                "duration": 0.1136364,
                "tempo": 120.0
            },
            {
                "start_time": 27.0636364,
                "end_time": 27.1818182,
                "pitch": 51,
                "velocity": 127,
                "duration": 0.1181818,
                "tempo": 120.0
            },
            {
                "start_time": 27.1818182,
                "end_time": 27.3159091,
                "pitch": 51,
                "velocity": 127,
                "duration": 0.1340909,
                "tempo": 120.0
            },
            {
                "start_time": 27.3159091,
                "end_time": 27.4340909,
                "pitch": 51,
                "velocity": 127,
                "duration": 0.1181818,
                "tempo": 120.0
            },
            {
                "start_time": 27.4340909,
                "end_time": 27.5522727,
                "pitch": 51,
                "velocity": 127,
                "duration": 0.1181818,
                "tempo": 120.0
            },
            {
                "start_time": 27.5522727,
                "end_time": 27.6681818,
                "pitch": 51,
                "velocity": 127,
                "duration": 0.1159091,
                "tempo": 120.0
            },
            {
                "start_time": 27.6681818,
                "end_time": 27.7840909,
                "pitch": 51,
                "velocity": 127,
                "duration": 0.1159091,
                "tempo": 120.0
            },
            {
                "start_time": 27.7840909,
                "end_time": 27.9181818,
                "pitch": 51,
                "velocity": 127,
                "duration": 0.1340909,
                "tempo": 120.0
            },
            {
                "start_time": 27.9181818,
                "end_time": 28.0340909,
                "pitch": 51,
                "velocity": 127,
                "duration": 0.1159091,
                "tempo": 120.0
            },
            {
                "start_time": 28.0340909,
                "end_time": 28.1522727,
                "pitch": 51,
                "velocity": 127,
                "duration": 0.1181818,
                "tempo": 120.0
            },
            {
                "start_time": 28.1522727,
                "end_time": 28.2704545,
                "pitch": 51,
                "velocity": 127,
                "duration": 0.1181818,
                "tempo": 120.0
            },
            {
                "start_time": 28.2704545,
                "end_time": 28.4045455,
                "pitch": 51,
                "velocity": 127,
                "duration": 0.1340909,
                "tempo": 120.0
            },
            {
                "start_time": 28.4045455,
                "end_time": 28.5227273,
                "pitch": 51,
                "velocity": 127,
                "duration": 0.1181818,
                "tempo": 120.0
            },
            {
                "start_time": 28.5227273,
                "end_time": 28.6409091,
                "pitch": 51,
                "velocity": 127,
                "duration": 0.1181818,
                "tempo": 120.0
            },
            {
                "start_time": 28.6409091,
                "end_time": 28.7613636,
                "pitch": 51,
                "velocity": 127,
                "duration": 0.1204545,
                "tempo": 120.0
            },
            {
                "start_time": 28.7613636,
                "end_time": 28.8795455,
                "pitch": 51,
                "velocity": 127,
                "duration": 0.1181818,
                "tempo": 120.0
            },
            {
                "start_time": 28.8795455,
                "end_time": 29.0159091,
                "pitch": 51,
                "velocity": 127,
                "duration": 0.1363636,
                "tempo": 120.0
            },
            {
                "start_time": 29.0159091,
                "end_time": 29.1340909,
                "pitch": 44,
                "velocity": 127,
                "duration": 0.1181818,
                "tempo": 120.0
            },
            {
                "start_time": 29.1340909,
                "end_time": 29.2522727,
                "pitch": 44,
                "velocity": 127,
                "duration": 0.1181818,
                "tempo": 120.0
            },
            {
                "start_time": 29.2522727,
                "end_time": 29.3704545,
                "pitch": 44,
                "velocity": 127,
                "duration": 0.1181818,
                "tempo": 120.0
            },
            {
                "start_time": 29.3704545,
                "end_time": 29.4863636,
                "pitch": 44,
                "velocity": 127,
                "duration": 0.1159091,
                "tempo": 120.0
            },
            {
                "start_time": 29.4863636,
                "end_time": 29.6181818,
                "pitch": 44,
                "velocity": 127,
                "duration": 0.1318182,
                "tempo": 120.0
            },
            {
                "start_time": 29.6181818,
                "end_time": 29.7340909,
                "pitch": 44,
                "velocity": 127,
                "duration": 0.1159091,
                "tempo": 120.0
            },
            {
                "start_time": 29.7340909,
                "end_time": 29.8477273,
                "pitch": 44,
                "velocity": 127,
                "duration": 0.1136364,
                "tempo": 120.0
            },
            {
                "start_time": 29.8477273,
                "end_time": 29.9636364,
                "pitch": 44,
                "velocity": 127,
                "duration": 0.1159091,
                "tempo": 120.0
            },
            {
                "start_time": 29.9636364,
                "end_time": 30.0977273,
                "pitch": 44,
                "velocity": 127,
                "duration": 0.1340909,
                "tempo": 120.0
            },
            {
                "start_time": 30.0977273,
                "end_time": 30.2159091,
                "pitch": 44,
                "velocity": 127,
                "duration": 0.1181818,
                "tempo": 120.0
            },
            {
                "start_time": 30.2159091,
                "end_time": 30.3318182,
                "pitch": 44,
                "velocity": 127,
                "duration": 0.1159091,
                "tempo": 120.0
            },
            {
                "start_time": 30.3318182,
                "end_time": 30.45,
                "pitch": 44,
                "velocity": 127,
                "duration": 0.1181818,
                "tempo": 120.0
            },
            {
                "start_time": 30.45,
                "end_time": 30.5704545,
                "pitch": 44,
                "velocity": 127,
                "duration": 0.1204545,
                "tempo": 120.0
            },
            {
                "start_time": 30.5704545,
                "end_time": 30.7068182,
                "pitch": 44,
                "velocity": 127,
                "duration": 0.1363636,
                "tempo": 120.0
            },
            {
                "start_time": 30.7068182,
                "end_time": 30.825,
                "pitch": 44,
                "velocity": 127,
                "duration": 0.1181818,
                "tempo": 120.0
            },
            {
                "start_time": 30.825,
                "end_time": 30.9454545,
                "pitch": 44,
                "velocity": 127,
                "duration": 0.1204545,
                "tempo": 120.0
            },
            {
                "start_time": 30.9454545,
                "end_time": 31.0636364,
                "pitch": 44,
                "velocity": 127,
                "duration": 0.1181818,
                "tempo": 120.0
            },
            {
                "start_time": 31.0636364,
                "end_time": 31.1795455,
                "pitch": 44,
                "velocity": 127,
                "duration": 0.1159091,
                "tempo": 120.0
            },
            {
                "start_time": 31.1795455,
                "end_time": 31.3159091,
                "pitch": 44,
                "velocity": 127,
                "duration": 0.1363636,
                "tempo": 120.0
            },
            {
                "start_time": 31.3159091,
                "end_time": 31.4318182,
                "pitch": 44,
                "velocity": 127,
                "duration": 0.1159091,
                "tempo": 120.0
            },
            {
                "start_time": 31.4318182,
                "end_time": 31.55,
                "pitch": 44,
                "velocity": 127,
                "duration": 0.1181818,
                "tempo": 120.0
            },
            {
                "start_time": 31.55,
                "end_time": 31.6681818,
                "pitch": 44,
                "velocity": 127,
                "duration": 0.1181818,
                "tempo": 120.0
            },
            {
                "start_time": 31.6681818,
                "end_time": 31.7863636,
                "pitch": 44,
                "velocity": 127,
                "duration": 0.1181818,
                "tempo": 120.0
            },
            {
                "start_time": 31.7863636,
                "end_time": 31.9204545,
                "pitch": 44,
                "velocity": 127,
                "duration": 0.1340909,
                "tempo": 120.0
            },
            {
                "start_time": 31.9204545,
                "end_time": 32.0363636,
                "pitch": 44,
                "velocity": 127,
                "duration": 0.1159091,
                "tempo": 120.0
            },
            {
                "start_time": 32.0363636,
                "end_time": 32.1545455,
                "pitch": 44,
                "velocity": 127,
                "duration": 0.1181818,
                "tempo": 120.0
            },
            {
                "start_time": 32.1545455,
                "end_time": 32.2727273,
                "pitch": 44,
                "velocity": 127,
                "duration": 0.1181818,
                "tempo": 120.0
            },
            {
                "start_time": 32.2727273,
                "end_time": 32.4068182,
                "pitch": 44,
                "velocity": 127,
                "duration": 0.1340909,
                "tempo": 120.0
            },
            {
                "start_time": 32.4068182,
                "end_time": 32.5272727,
                "pitch": 44,
                "velocity": 127,
                "duration": 0.1204545,
                "tempo": 120.0
            },
            {
                "start_time": 32.5272727,
                "end_time": 32.6454545,
                "pitch": 44,
                "velocity": 127,
                "duration": 0.1181818,
                "tempo": 120.0
            },
            {
                "start_time": 32.6454545,
                "end_time": 32.7659091,
                "pitch": 44,
                "velocity": 127,
                "duration": 0.1204545,
                "tempo": 120.0
            },
            {
                "start_time": 32.7659091,
                "end_time": 32.8840909,
                "pitch": 44,
                "velocity": 127,
                "duration": 0.1181818,
                "tempo": 120.0
            },
            {
                "start_time": 32.8840909,
                "end_time": 33.0159091,
                "pitch": 46,
                "velocity": 127,
                "duration": 0.1318182,
                "tempo": 120.0
            },
            {
                "start_time": 33.0159091,
                "end_time": 33.1318182,
                "pitch": 46,
                "velocity": 127,
                "duration": 0.1159091,
                "tempo": 120.0
            },
            {
                "start_time": 33.1318182,
                "end_time": 33.2454545,
                "pitch": 46,
                "velocity": 127,
                "duration": 0.1136364,
                "tempo": 120.0
            },
            {
                "start_time": 33.2454545,
                "end_time": 33.3613636,
                "pitch": 46,
                "velocity": 127,
                "duration": 0.1159091,
                "tempo": 120.0
            },
            {
                "start_time": 33.3613636,
                "end_time": 33.4772727,
                "pitch": 46,
                "velocity": 127,
                "duration": 0.1159091,
                "tempo": 120.0
            },
            {
                "start_time": 33.4772727,
                "end_time": 33.6136364,
                "pitch": 46,
                "velocity": 127,
                "duration": 0.1363636,
                "tempo": 120.0
            },
            {
                "start_time": 33.6136364,
                "end_time": 33.7295455,
                "pitch": 46,
                "velocity": 127,
                "duration": 0.1159091,
                "tempo": 120.0
            },
            {
                "start_time": 33.7295455,
                "end_time": 33.8477273,
                "pitch": 46,
                "velocity": 127,
                "duration": 0.1181818,
                "tempo": 120.0
            },
            {
                "start_time": 33.8477273,
                "end_time": 33.9636364,
                "pitch": 46,
                "velocity": 127,
                "duration": 0.1159091,
                "tempo": 120.0
            },
            {
                "start_time": 33.9636364,
                "end_time": 34.0818182,
                "pitch": 46,
                "velocity": 127,
                "duration": 0.1181818,
                "tempo": 120.0
            },
            {
                "start_time": 34.0818182,
                "end_time": 34.2136364,
                "pitch": 46,
                "velocity": 127,
                "duration": 0.1318182,
                "tempo": 120.0
            },
            {
                "start_time": 34.2136364,
                "end_time": 34.3318182,
                "pitch": 46,
                "velocity": 127,
                "duration": 0.1181818,
                "tempo": 120.0
            },
            {
                "start_time": 34.3318182,
                "end_time": 34.4477273,
                "pitch": 46,
                "velocity": 127,
                "duration": 0.1159091,
                "tempo": 120.0
            },
            {
                "start_time": 34.4477273,
                "end_time": 34.5659091,
                "pitch": 46,
                "velocity": 127,
                "duration": 0.1181818,
                "tempo": 120.0
            },
            {
                "start_time": 34.5659091,
                "end_time": 34.7,
                "pitch": 46,
                "velocity": 127,
                "duration": 0.1340909,
                "tempo": 120.0
            },
            {
                "start_time": 34.7,
                "end_time": 34.8181818,
                "pitch": 46,
                "velocity": 127,
                "duration": 0.1181818,
                "tempo": 120.0
            },
            {
                "start_time": 34.8181818,
                "end_time": 34.9386364,
                "pitch": 46,
                "velocity": 127,
                "duration": 0.1204545,
                "tempo": 120.0
            },
            {
                "start_time": 34.9386364,
                "end_time": 35.0568182,
                "pitch": 46,
                "velocity": 127,
                "duration": 0.1181818,
                "tempo": 120.0
            },
            {
                "start_time": 35.0568182,
                "end_time": 35.1772727,
                "pitch": 46,
                "velocity": 127,
                "duration": 0.1204545,
                "tempo": 120.0
            },
            {
                "start_time": 35.1772727,
                "end_time": 35.3136364,
                "pitch": 46,
                "velocity": 127,
                "duration": 0.1363636,
                "tempo": 120.0
            },
            {
                "start_time": 35.3136364,
                "end_time": 35.4318182,
                "pitch": 46,
                "velocity": 127,
                "duration": 0.1181818,
                "tempo": 120.0
            },
            {
                "start_time": 35.4318182,
                "end_time": 35.5477273,
                "pitch": 46,
                "velocity": 127,
                "duration": 0.1159091,
                "tempo": 120.0
            },
            {
                "start_time": 35.5477273,
                "end_time": 35.6659091,
                "pitch": 46,
                "velocity": 127,
                "duration": 0.1181818,
                "tempo": 120.0
            },
            {
                "start_time": 35.6659091,
                "end_time": 35.7840909,
                "pitch": 46,
                "velocity": 127,
                "duration": 0.1181818,
                "tempo": 120.0
            },
            {
                "start_time": 35.7840909,
                "end_time": 35.9159091,
                "pitch": 46,
                "velocity": 127,
                "duration": 0.1318182,
                "tempo": 120.0
            },
            {
                "start_time": 35.9159091,
                "end_time": 36.0295455,
                "pitch": 46,
                "velocity": 127,
                "duration": 0.1136364,
                "tempo": 120.0
            },
            {
                "start_time": 36.0295455,
                "end_time": 36.1454545,
                "pitch": 46,
                "velocity": 127,
                "duration": 0.1159091,
                "tempo": 120.0
            },
            {
                "start_time": 36.1454545,
                "end_time": 36.2590909,
                "pitch": 46,
                "velocity": 127,
                "duration": 0.1136364,
                "tempo": 120.0
            },
            {
                "start_time": 36.2590909,
                "end_time": 36.3772727,
                "pitch": 46,
                "velocity": 127,
                "duration": 0.1181818,
                "tempo": 120.0
            },
            {
                "start_time": 36.3772727,
                "end_time": 36.5090909,
                "pitch": 46,
                "velocity": 127,
                "duration": 0.1318182,
                "tempo": 120.0
            },
            {
                "start_time": 36.5090909,
                "end_time": 36.6272727,
                "pitch": 46,
                "velocity": 127,
                "duration": 0.1181818,
                "tempo": 120.0
            },
            {
                "start_time": 36.6272727,
                "end_time": 36.7590909,
                "pitch": 46,
                "velocity": 127,
                "duration": 0.1318182,
                "tempo": 120.0
            },
            {
                "start_time": 36.7590909,
                "end_time": 36.7772727,
                "pitch": 43,
                "velocity": 127,
                "duration": 0.0181818,
                "tempo": 120.0
            }
        ]
    }
}