{
    "mood": "sad",
    "instruments": {
        "Electric Guitar (clean)": [
            {
                "start_time": 0.0,
                "end_time": 0.1636364,
                "pitch": 33,
                "velocity": 80,
                "duration": 0.1636364,
                "tempo": 120.0
            },
            {
                "start_time": 0.175,
                "end_time": 0.3636364,
                "pitch": 33,
                "velocity": 80,
                "duration": 0.1886364,
                "tempo": 120.0
            },
            {
                "start_time": 0.3772727,
                "end_time": 0.6272727,
                "pitch": 33,
                "velocity": 80,
                "duration": 0.25,
                "tempo": 120.0
            },
            {
                "start_time": 0.6454545,
                "end_time": 0.8954545,
                "pitch": 33,
                "velocity": 80,
                "duration": 0.25,
                "tempo": 120.0
            },
            {
                "start_time": 0.9113636,
                "end_time": 1.1613636,
                "pitch": 33,
                "velocity": 80,
                "duration": 0.25,
                "tempo": 120.0
            },
            {
                "start_time": 1.1795455,
                "end_time": 1.4295455,
                "pitch": 33,
                "velocity": 80,
                "duration": 0.25,
                "tempo": 120.0
            },
            {
                "start_time": 1.4454545,
                "end_time": 1.7,
                "pitch": 33,
                "velocity": 80,
                "duration": 0.2545455,
                "tempo": 120.0
            },
            {
                "start_time": 1.7181818,
                "end_time": 1.9727273,
                "pitch": 33,
                "velocity": 80,
                "duration": 0.2545455,
                "tempo": 120.0
            },
            {
                "start_time": 1.9909091,
                "end_time": 2.2409091,
                "pitch": 31,
                "velocity": 80,
                "duration": 0.25,
                "tempo": 120.0
            },
            {
                "start_time": 2.2568182,
                "end_time": 2.5068182,
                "pitch": 31,
                "velocity": 80,
                "duration": 0.25,
                "tempo": 120.0
            },
            {
                "start_time": 2.525,
                "end_time": 2.775,
                "pitch": 31,
                "velocity": 80,
                "duration": 0.25,
                "tempo": 120.0
            },
            {
                "start_time": 2.7909091,
                "end_time": 3.0409091,
                "pitch": 31,
                "velocity": 80,
                "duration": 0.25,
                "tempo": 120.0
            },
            {
                "start_time": 3.0590909,
                "end_time": 3.3090909,
                "pitch": 31,
                "velocity": 80,
                "duration": 0.25,
                "tempo": 120.0
            },
            {
                "start_time": 3.325,
                "end_time": 3.5772727,
                "pitch": 31,
                "velocity": 80,
                "duration": 0.2522727,
                "tempo": 120.0
            },
            {
                "start_time": 3.5931818,
                "end_time": 3.8477273,
                "pitch": 31,
                "velocity": 80,
                "duration": 0.2545455,
                "tempo": 120.0
            },
            {
                "start_time": 3.8659091,
                "end_time": 4.1204545,
                "pitch": 31,
                "velocity": 80,
                "duration": 0.2545455,
                "tempo": 120.0
            },
            {
                "start_time": 4.1363636,
                "end_time": 4.3886364,
                "pitch": 29,
                "velocity": 80,
                "duration": 0.2522727,
                "tempo": 120.0
            },
            {
                "start_time": 4.4045455,
                "end_time": 4.6545455,
                "pitch": 29,
                "velocity": 80,
                "duration": 0.25,
                "tempo": 120.0
            },
            {
                "start_time": 4.6704545,
                "end_time": 4.9272727,
                "pitch": 29,
                "velocity": 80,
                "duration": 0.2568182,
                "tempo": 120.0
            },
            {
                "start_time": 4.9431818,
                "end_time": 5.1977273,
                "pitch": 29,
                "velocity": 80,
                "duration": 0.2545455,
                "tempo": 120.0
            },
            {
                "start_time": 5.2159091,
                "end_time": 5.4659091,
                "pitch": 31,
                "velocity": 80,
                "duration": 0.25,
                "tempo": 120.0
            },
            {
                "start_time": 5.4818182,
                "end_time": 5.7340909,
                "pitch": 31,
                "velocity": 80,
                "duration": 0.2522727,
                "tempo": 120.0
            },
            {
                "start_time": 5.75,
                "end_time": 6.0,
                "pitch": 31,
                "velocity": 80,
                "duration": 0.25,
                "tempo": 120.0
            },
            {
                "start_time": 6.0159091,
                "end_time": 6.2681818,
                "pitch": 31,
                "velocity": 80,
                "duration": 0.2522727,
                "tempo": 120.0
            },
            {
                "start_time": 6.2840909,
                "end_time": 8.4659091,
                "pitch": 33,
                "velocity": 80,
                "duration": 2.1818182,
                "tempo": 120.0
            }
        ],
        "Oboe": [
            {
                "start_time": 0.0,
                "end_time": 1.9727273,
                "pitch": 69,
                "velocity": 51,
                "duration": 1.9727273,
                "tempo": 120.0
            },
            {
                "start_time": 1.9909091,
                "end_time": 4.1204545,
                "pitch": 67,
                "velocity": 51,
                "duration": 2.1295455,
                "tempo": 120.0
            },
            {
                "start_time": 4.1363636,
                "end_time": 5.1977273,
                "pitch": 65,
                "velocity": 51,
                "duration": 1.0613636,
                "tempo": 120.0
            },
            {
                "start_time": 5.2159091,
                "end_time": 6.2681818,
                "pitch": 67,
                "velocity": 51,
                "duration": 1.0522727,
                "tempo": 120.0
            },
            {
                "start_time": 6.2840909,
                "end_time": 8.4659091,
                "pitch": 69,
                "velocity": 51,
                "duration": 2.1818182,
                "tempo": 120.0
            }
        ],
        "Trumpet": [
            {
                "start_time": 0.0,
                "end_time": 0.0636364,
                "pitch": 81,
                "velocity": 51,
                "duration": 0.0636364,
                "tempo": 120.0
            },
            {
                "start_time": 0.075,
                "end_time": 0.2636364,
                "pitch": 76,
                "velocity": 51,
                "duration": 0.1886364,
                "tempo": 120.0
            },
            {
                "start_time": 0.2772727,
                "end_time": 0.3636364,
                "pitch": 74,
                "velocity": 51,
                "duration": 0.0863636,
                "tempo": 120.0
            },
            {
                "start_time": 0.3772727,
                "end_time": 0.4931818,
                "pitch": 73,
                "velocity": 51,
                "duration": 0.1159091,
                "tempo": 120.0
            },
            {
                "start_time": 0.5113636,
                "end_time": 1.8363636,
                "pitch": 69,
                "velocity": 51,
                "duration": 1.325,
                "tempo": 120.0
            },
            {
                "start_time": 1.8545455,
                "end_time": 1.9727273,
                "pitch": 74,
                "velocity": 51,
                "duration": 0.1181818,
                "tempo": 120.0
            },
            {
                "start_time": 1.9909091,
                "end_time": 2.1068182,
                "pitch": 76,
                "velocity": 51,
                "duration": 0.1159091,
                "tempo": 120.0
            },
            {
                "start_time": 2.1227273,
                "end_time": 3.9840909,
                "pitch": 67,
                "velocity": 51,
                "duration": 1.8613636,
                "tempo": 120.0
            },
            {
                "start_time": 4.0,
                "end_time": 4.1204545,
                "pitch": 72,
                "velocity": 51,
                "duration": 0.1204545,
                "tempo": 120.0
            },
            {
                "start_time": 4.1363636,
                "end_time": 4.2545455,
                "pitch": 74,
                "velocity": 51,
                "duration": 0.1181818,
                "tempo": 120.0
            },
            {
                "start_time": 4.2704545,
                "end_time": 5.0613636,
                "pitch": 65,
                "velocity": 51,
                "duration": 0.7909091,
                "tempo": 120.0
            },
            {
                "start_time": 5.0795455,
                "end_time": 5.1977273,
                "pitch": 72,
                "velocity": 51,
                "duration": 0.1181818,
                "tempo": 120.0
            },
            {
                "start_time": 5.2159091,
                "end_time": 5.3318182,
                "pitch": 74,
                "velocity": 51,
                "duration": 0.1159091,
                "tempo": 120.0
            },
            {
                "start_time": 5.35,
                "end_time": 6.1340909,
                "pitch": 67,
                "velocity": 51,
                "duration": 0.7840909,
                "tempo": 120.0
            },
            {
                "start_time": 6.15,
                "end_time": 6.2681818,
                "pitch": 67,
                "velocity": 51,
                "duration": 0.1181818,
                "tempo": 120.0
            },
            {
                "start_time": 6.2840909,
                "end_time": 6.4022727,
                "pitch": 76,
                "velocity": 51,
                "duration": 0.1181818,
                "tempo": 120.0
            },
            {
                "start_time": 6.4204545,
                "end_time": 8.6090909,
                "pitch": 69,
                "velocity": 51,
                "duration": 2.1886364,
                "tempo": 120.0
            }
        ]
    }
}