{
    "mood": "sad",
    "instruments": {
        "Clarinet": [
            {
                "start_time": 0.1636364,
                "end_time": 2.2295455,
                "pitch": 62,
                "velocity": 5,
                "duration": 2.0659091,
                "tempo": 120.0
            },
            {
                "start_time": 2.2295455,
                "end_time": 2.4386364,
                "pitch": 64,
                "velocity": 25,
                "duration": 0.2090909,
                "tempo": 120.0
            },
            {
                "start_time": 2.4386364,
                "end_time": 2.6431818,
                "pitch": 65,
                "velocity": 25,
                "duration": 0.2045455,
                "tempo": 120.0
            },
            {
                "start_time": 2.6454545,
                "end_time": 2.85,
                "pitch": 69,
                "velocity": 25,
                "duration": 0.2045455,
                "tempo": 120.0
            },
            {
                "start_time": 2.85,
                "end_time": 3.0590909,
                "pitch": 65,
                "velocity": 25,
                "duration": 0.2090909,
                "tempo": 120.0
            },
            {
                "start_time": 3.0590909,
                "end_time": 3.2681818,
                "pitch": 64,
                "velocity": 25,
                "duration": 0.2090909,
                "tempo": 120.0
            },
            {
                "start_time": 3.2681818,
                "end_time": 5.5431818,
                "pitch": 62,
                "velocity": 25,
                "duration": 2.275,
                "tempo": 120.0
            },
            {
                "start_time": 5.5431818,
                "end_time": 5.7477273,
                "pitch": 64,
                "velocity": 25,
                "duration": 0.2045455,
                "tempo": 120.0
            },
            {
                "start_time": 2.6431818,
                "end_time": 5.9568182,
                "pitch": 57,
                "velocity": 25,
                "duration": 3.3136364,
                "tempo": 120.0
            },
            {
                "start_time": 5.7477273,
                "end_time": 5.9568182,
                "pitch": 65,
                "velocity": 25,
                "duration": 0.2090909,
                "tempo": 120.0
            },
            {
                "start_time": 5.9568182,
                "end_time": 6.1659091,
                "pitch": 69,
                "velocity": 25,
                "duration": 0.2090909,
                "tempo": 120.0
            },
            {
                "start_time": 2.85,
                "end_time": 6.1659091,
                "pitch": 77,
                "velocity": 25,
                "duration": 3.3159091,
                "tempo": 120.0
            },
            {
                "start_time": 6.1659091,
                "end_time": 6.3727273,
                "pitch": 65,
                "velocity": 25,
                "duration": 0.2068182,
                "tempo": 120.0
            },
            {
                "start_time": 6.3727273,
                "end_time": 6.5772727,
                "pitch": 64,
                "velocity": 25,
                "duration": 0.2045455,
                "tempo": 120.0
            },
            {
                "start_time": 6.5772727,
                "end_time": 6.7840909,
                "pitch": 62,
                "velocity": 25,
                "duration": 0.2068182,
                "tempo": 120.0
            },
            {
                "start_time": 6.7840909,
                "end_time": 8.0272727,
                "pitch": 60,
                "velocity": 25,
                "duration": 1.2431818,
                "tempo": 120.0
            },
            {
                "start_time": 6.7840909,
                "end_time": 8.0272727,
                "pitch": 60,
                "velocity": 25,
                "duration": 1.2431818,
                "tempo": 120.0
            },
            {
                "start_time": 8.0272727,
                "end_time": 8.1704545,
                "pitch": 62,
                "velocity": 25,
                "duration": 0.1431818,
                "tempo": 120.0
            },
            {
                "start_time": 8.0272727,
                "end_time": 8.1704545,
                "pitch": 62,
                "velocity": 25,
                "duration": 0.1431818,
                "tempo": 120.0
            },
            {
                "start_time": 5.9568182,
                "end_time": 8.3,
                "pitch": 57,
                "velocity": 25,
                "duration": 2.3431818,
                "tempo": 120.0
            },
            {
                "start_time": 8.1704545,
                "end_time": 8.3,
                "pitch": 60,
                "velocity": 25,
                "duration": 0.1295455,
                "tempo": 120.0
            },
            {
                "start_time": 8.1704545,
                "end_time": 8.3,
                "pitch": 60,
                "velocity": 25,
                "duration": 0.1295455,
                "tempo": 120.0
            },
            {
                "start_time": 8.3,
                "end_time": 8.4454545,
                "pitch": 57,
                "velocity": 25,
                "duration": 0.1454545,
                "tempo": 120.0
            },
            {
                "start_time": 8.3,
                "end_time": 8.4454545,
                "pitch": 57,
                "velocity": 25,
                "duration": 0.1454545,
                "tempo": 120.0
            },
            {
                "start_time": 8.4454545,
                "end_time": 10.0909091,
                "pitch": 55,
                "velocity": 25,
                "duration": 1.6454545,
                "tempo": 120.0
            },
            {
                "start_time": 10.0909091,
                "end_time": 11.7613636,
                "pitch": 53,
                "velocity": 25,
                "duration": 1.6704545,
                "tempo": 120.0
            },
            {
                "start_time": 11.7613636,
                "end_time": 12.9977273,
                "pitch": 52,
                "velocity": 25,
                "duration": 1.2363636,
                "tempo": 120.0
            },
            {
                "start_time": 12.9977273,
                "end_time": 13.4159091,
                "pitch": 48,
                "velocity": 25,
                "duration": 0.4181818,
                "tempo": 120.0
            },
            {
                "start_time": 12.9977273,
                "end_time": 13.4159091,
                "pitch": 48,
                "velocity": 25,
                "duration": 0.4181818,
                "tempo": 120.0
            },
            {
                "start_time": 13.4159091,
                "end_time": 13.5545455,
                "pitch": 50,
                "velocity": 25,
                "duration": 0.1386364,
                "tempo": 120.0
            },
            {
                "start_time": 13.4159091,
                "end_time": 13.5545455,
                "pitch": 50,
                "velocity": 25,
                "duration": 0.1386364,
                "tempo": 120.0
            },
            {
                "start_time": 13.5545455,
                "end_time": 13.6818182,
                "pitch": 53,
                "velocity": 25,
                "duration": 0.1272727,
                "tempo": 120.0
            },
            {
                "start_time": 13.5545455,
                "end_time": 13.6818182,
                "pitch": 53,
                "velocity": 25,
                "duration": 0.1272727,
                "tempo": 120.0
            },
            {
                "start_time": 13.6818182,
                "end_time": 16.7159091,
                "pitch": 50,
                "velocity": 25,
                "duration": 3.0340909,
                "tempo": 120.0
            },
            {
                "start_time": 13.6818182,
                "end_time": 16.7159091,
                "pitch": 50,
                "velocity": 25,
                "duration": 3.0340909,
                "tempo": 120.0
            }
        ],
        "Trumpet": [
            {
                "start_time": 29.7386364,
                "end_time": 29.8818182,
                "pitch": 60,
                "velocity": 51,
                "duration": 0.1431818,
                "tempo": 120.0
            },
            {
                "start_time": 29.8818182,
                "end_time": 30.025,
                "pitch": 62,
                "velocity": 51,
                "duration": 0.1431818,
                "tempo": 120.0
            },
            {
                "start_time": 29.8818182,
                "end_time": 30.025,
                "pitch": 62,
                "velocity": 51,
                "duration": 0.1431818,
                "tempo": 120.0
            },
            {
                "start_time": 30.025,
                "end_time": 30.1613636,
                "pitch": 64,
                "velocity": 51,
                "duration": 0.1363636,
                "tempo": 120.0
            },
            {
                "start_time": 30.025,
                "end_time": 30.1613636,
                "pitch": 64,
                "velocity": 51,
                "duration": 0.1363636,
                "tempo": 120.0
            },
            {
                "start_time": 30.1613636,
                "end_time": 30.3,
                "pitch": 62,
                "velocity": 51,
                "duration": 0.1386364,
                "tempo": 120.0
            },
            {
                "start_time": 30.1613636,
                "end_time": 30.3,
                "pitch": 62,
                "velocity": 51,
                "duration": 0.1386364,
                "tempo": 120.0
            },
            {
                "start_time": 30.3,
                "end_time": 30.4363636,
                "pitch": 64,
                "velocity": 51,
                "duration": 0.1363636,
                "tempo": 120.0
            },
            {
                "start_time": 30.3,
                "end_time": 30.4363636,
                "pitch": 64,
                "velocity": 51,
                "duration": 0.1363636,
                "tempo": 120.0
            },
            {
                "start_time": 30.4363636,
                "end_time": 30.5727273,
                "pitch": 65,
                "velocity": 51,
                "duration": 0.1363636,
                "tempo": 120.0
            },
            {
                "start_time": 30.5727273,
                "end_time": 30.7090909,
                "pitch": 64,
                "velocity": 51,
                "duration": 0.1363636,
                "tempo": 120.0
            },
            {
                "start_time": 30.7090909,
                "end_time": 30.8409091,
                "pitch": 65,
                "velocity": 51,
                "duration": 0.1318182,
                "tempo": 120.0
            },
            {
                "start_time": 30.8409091,
                "end_time": 30.9727273,
                "pitch": 67,
                "velocity": 51,
                "duration": 0.1318182,
                "tempo": 120.0
            },
            {
                "start_time": 30.8409091,
                "end_time": 31.1045455,
                "pitch": 55,
                "velocity": 51,
                "duration": 0.2636364,
                "tempo": 120.0
            },
            {
                "start_time": 30.9727273,
                "end_time": 31.1045455,
                "pitch": 65,
                "velocity": 51,
                "duration": 0.1318182,
                "tempo": 120.0
            },
            {
                "start_time": 31.1045455,
                "end_time": 31.2363636,
                "pitch": 67,
                "velocity": 51,
                "duration": 0.1318182,
                "tempo": 120.0
            },
            {
                "start_time": 31.2363636,
                "end_time": 31.3681818,
                "pitch": 69,
                "velocity": 51,
                "duration": 0.1318182,
                "tempo": 120.0
            },
            {
                "start_time": 31.3681818,
                "end_time": 33.475,
                "pitch": 72,
                "velocity": 32,
                "duration": 2.1068182,
                "tempo": 120.0
            },
            {
                "start_time": 31.3681818,
                "end_time": 33.475,
                "pitch": 72,
                "velocity": 51,
                "duration": 2.1068182,
                "tempo": 120.0
            },
            {
                "start_time": 33.475,
                "end_time": 33.7522727,
                "pitch": 76,
                "velocity": 32,
                "duration": 0.2772727,
                "tempo": 120.0
            },
            {
                "start_time": 33.475,
                "end_time": 33.7522727,
                "pitch": 76,
                "velocity": 32,
                "duration": 0.2772727,
                "tempo": 120.0
            },
            {
                "start_time": 33.7522727,
                "end_time": 34.8659091,
                "pitch": 79,
                "velocity": 32,
                "duration": 1.1136364,
                "tempo": 120.0
            }
        ],
        "Flute": [
            {
                "start_time": 54.9363636,
                "end_time": 55.225,
                "pitch": 65,
                "velocity": 51,
                "duration": 0.2886364,
                "tempo": 120.0
            },
            {
                "start_time": 55.2272727,
                "end_time": 55.5,
                "pitch": 67,
                "velocity": 51,
                "duration": 0.2727273,
                "tempo": 120.0
            },
            {
                "start_time": 55.5,
                "end_time": 55.7727273,
                "pitch": 69,
                "velocity": 51,
                "duration": 0.2727273,
                "tempo": 120.0
            },
            {
                "start_time": 55.7727273,
                "end_time": 56.0477273,
                "pitch": 72,
                "velocity": 51,
                "duration": 0.275,
                "tempo": 120.0
            },
            {
                "start_time": 55.7727273,
                "end_time": 56.0477273,
                "pitch": 72,
                "velocity": 51,
                "duration": 0.275,
                "tempo": 120.0
            },
            {
                "start_time": 56.0477273,
                "end_time": 56.3363636,
                "pitch": 70,
                "velocity": 51,
                "duration": 0.2886364,
                "tempo": 120.0
            },
            {
                "start_time": 56.0477273,
                "end_time": 56.3363636,
                "pitch": 70,
                "velocity": 51,
                "duration": 0.2886364,
                "tempo": 120.0
            },
            {
                "start_time": 56.3363636,
                "end_time": 56.6227273,
                "pitch": 64,
                "velocity": 51,
                "duration": 0.2863636,
                "tempo": 120.0
            }
        ],
        "Vibraphone": [
            {
                "start_time": 3.3204545,
                "end_time": 3.525,
                "pitch": 98,
                "velocity": 40,
                "duration": 0.2045455,
                "tempo": 120.0
            },
            {
                "start_time": 3.525,
                "end_time": 3.7295455,
                "pitch": 93,
                "velocity": 40,
                "duration": 0.2045455,
                "tempo": 120.0
            },
            {
                "start_time": 3.525,
                "end_time": 3.7295455,
                "pitch": 93,
                "velocity": 40,
                "duration": 0.2045455,
                "tempo": 120.0
            },
            {
                "start_time": 3.7295455,
                "end_time": 3.9386364,
                "pitch": 91,
                "velocity": 40,
                "duration": 0.2090909,
                "tempo": 120.0
            },
            {
                "start_time": 3.9386364,
                "end_time": 4.1477273,
                "pitch": 89,
                "velocity": 40,
                "duration": 0.2090909,
                "tempo": 120.0
            },
            {
                "start_time": 4.1477273,
                "end_time": 4.3545455,
                "pitch": 91,
                "velocity": 40,
                "duration": 0.2068182,
                "tempo": 120.0
            },
            {
                "start_time": 4.3545455,
                "end_time": 4.5590909,
                "pitch": 93,
                "velocity": 40,
                "duration": 0.2045455,
                "tempo": 120.0
            },
            {
                "start_time": 4.5590909,
                "end_time": 4.7659091,
                "pitch": 86,
                "velocity": 40,
                "duration": 0.2068182,
                "tempo": 120.0
            },
            {
                "start_time": 4.7659091,
                "end_time": 4.9704545,
                "pitch": 86,
                "velocity": 32,
                "duration": 0.2045455,
                "tempo": 120.0
            },
            {
                "start_time": 4.9704545,
                "end_time": 5.1795455,
                "pitch": 86,
                "velocity": 25,
                "duration": 0.2090909,
                "tempo": 120.0
            },
            {
                "start_time": 5.1795455,
                "end_time": 5.3886364,
                "pitch": 86,
                "velocity": 20,
                "duration": 0.2090909,
                "tempo": 120.0
            },
            {
                "start_time": 5.3886364,
                "end_time": 5.5954545,
                "pitch": 86,
                "velocity": 16,
                "duration": 0.2068182,
                "tempo": 120.0
            },
            {
                "start_time": 5.5954545,
                "end_time": 5.8,
                "pitch": 86,
                "velocity": 13,
                "duration": 0.2045455,
                "tempo": 120.0
            },
            {
                "start_time": 5.8,
                "end_time": 6.6295455,
                "pitch": 86,
                "velocity": 10,
                "duration": 0.8295455,
                "tempo": 120.0
            },
            {
                "start_time": 4.5590909,
                "end_time": 6.8340909,
                "pitch": 98,
                "velocity": 40,
                "duration": 2.275,
                "tempo": 120.0
            },
            {
                "start_time": 6.6295455,
                "end_time": 6.8340909,
                "pitch": 98,
                "velocity": 40,
                "duration": 0.2045455,
                "tempo": 120.0
            },
            {
                "start_time": 6.8340909,
                "end_time": 7.0409091,
                "pitch": 93,
                "velocity": 40,
                "duration": 0.2068182,
                "tempo": 120.0
            },
            {
                "start_time": 6.8340909,
                "end_time": 7.0409091,
                "pitch": 93,
                "velocity": 40,
                "duration": 0.2068182,
                "tempo": 120.0
            },
            {
                "start_time": 7.0409091,
                "end_time": 7.25,
                "pitch": 91,
                "velocity": 40,
                "duration": 0.2090909,
                "tempo": 120.0
            },
            {
                "start_time": 3.9386364,
                "end_time": 7.25,
                "pitch": 101,
                "velocity": 40,
                "duration": 3.3113636,
                "tempo": 120.0
            },
            {
                "start_time": 4.1477273,
                "end_time": 7.4590909,
                "pitch": 79,
                "velocity": 40,
                "duration": 3.3113636,
                "tempo": 120.0
            },
            {
                "start_time": 7.25,
                "end_time": 7.4590909,
                "pitch": 89,
                "velocity": 40,
                "duration": 0.2090909,
                "tempo": 120.0
            },
            {
                "start_time": 7.4590909,
                "end_time": 7.6636364,
                "pitch": 91,
                "velocity": 40,
                "duration": 0.2045455,
                "tempo": 120.0
            },
            {
                "start_time": 7.6636364,
                "end_time": 7.8704545,
                "pitch": 93,
                "velocity": 40,
                "duration": 0.2068182,
                "tempo": 120.0
            },
            {
                "start_time": 7.8704545,
                "end_time": 8.0795455,
                "pitch": 96,
                "velocity": 40,
                "duration": 0.2090909,
                "tempo": 120.0
            },
            {
                "start_time": 7.8704545,
                "end_time": 8.0795455,
                "pitch": 96,
                "velocity": 40,
                "duration": 0.2090909,
                "tempo": 120.0
            },
            {
                "start_time": 8.0795455,
                "end_time": 8.2886364,
                "pitch": 96,
                "velocity": 32,
                "duration": 0.2090909,
                "tempo": 120.0
            },
            {
                "start_time": 8.2886364,
                "end_time": 8.4977273,
                "pitch": 96,
                "velocity": 25,
                "duration": 0.2090909,
                "tempo": 120.0
            },
            {
                "start_time": 8.4977273,
                "end_time": 8.7068182,
                "pitch": 96,
                "velocity": 20,
                "duration": 0.2090909,
                "tempo": 120.0
            },
            {
                "start_time": 8.7068182,
                "end_time": 8.9113636,
                "pitch": 96,
                "velocity": 16,
                "duration": 0.2045455,
                "tempo": 120.0
            },
            {
                "start_time": 8.9113636,
                "end_time": 9.1181818,
                "pitch": 96,
                "velocity": 13,
                "duration": 0.2068182,
                "tempo": 120.0
            },
            {
                "start_time": 9.1181818,
                "end_time": 9.9318182,
                "pitch": 96,
                "velocity": 10,
                "duration": 0.8136364,
                "tempo": 120.0
            },
            {
                "start_time": 9.9318182,
                "end_time": 10.1454545,
                "pitch": 94,
                "velocity": 10,
                "duration": 0.2136364,
                "tempo": 120.0
            },
            {
                "start_time": 9.9318182,
                "end_time": 10.1454545,
                "pitch": 94,
                "velocity": 40,
                "duration": 0.2136364,
                "tempo": 120.0
            },
            {
                "start_time": 10.1454545,
                "end_time": 10.3568182,
                "pitch": 94,
                "velocity": 32,
                "duration": 0.2113636,
                "tempo": 120.0
            },
            {
                "start_time": 10.3568182,
                "end_time": 10.5636364,
                "pitch": 94,
                "velocity": 25,
                "duration": 0.2068182,
                "tempo": 120.0
            },
            {
                "start_time": 10.5636364,
                "end_time": 10.7681818,
                "pitch": 94,
                "velocity": 20,
                "duration": 0.2045455,
                "tempo": 120.0
            },
            {
                "start_time": 10.7681818,
                "end_time": 11.6113636,
                "pitch": 94,
                "velocity": 16,
                "duration": 0.8431818,
                "tempo": 120.0
            },
            {
                "start_time": 11.6113636,
                "end_time": 11.6136364,
                "pitch": 96,
                "velocity": 16,
                "duration": 0.0022727,
                "tempo": 120.0
            },
            {
                "start_time": 11.6136364,
                "end_time": 11.8113636,
                "pitch": 96,
                "velocity": 40,
                "duration": 0.1977273,
                "tempo": 120.0
            },
            {
                "start_time": 11.8113636,
                "end_time": 12.0090909,
                "pitch": 96,
                "velocity": 32,
                "duration": 0.1977273,
                "tempo": 120.0
            },
            {
                "start_time": 12.0090909,
                "end_time": 12.2181818,
                "pitch": 96,
                "velocity": 25,
                "duration": 0.2090909,
                "tempo": 120.0
            },
            {
                "start_time": 12.2181818,
                "end_time": 12.4272727,
                "pitch": 96,
                "velocity": 20,
                "duration": 0.2090909,
                "tempo": 120.0
            },
            {
                "start_time": 12.4272727,
                "end_time": 13.2636364,
                "pitch": 96,
                "velocity": 16,
                "duration": 0.8363636,
                "tempo": 120.0
            },
            {
                "start_time": 7.25,
                "end_time": 13.2636364,
                "pitch": 101,
                "velocity": 40,
                "duration": 6.0136364,
                "tempo": 120.0
            },
            {
                "start_time": 13.2636364,
                "end_time": 13.4659091,
                "pitch": 89,
                "velocity": 40,
                "duration": 0.2022727,
                "tempo": 120.0
            },
            {
                "start_time": 13.4659091,
                "end_time": 13.8772727,
                "pitch": 86,
                "velocity": 40,
                "duration": 0.4113636,
                "tempo": 120.0
            },
            {
                "start_time": 13.4659091,
                "end_time": 13.8772727,
                "pitch": 86,
                "velocity": 40,
                "duration": 0.4113636,
                "tempo": 120.0
            },
            {
                "start_time": 13.8772727,
                "end_time": 14.0863636,
                "pitch": 89,
                "velocity": 32,
                "duration": 0.2090909,
                "tempo": 120.0
            },
            {
                "start_time": 13.8772727,
                "end_time": 14.0863636,
                "pitch": 89,
                "velocity": 40,
                "duration": 0.2090909,
                "tempo": 120.0
            },
            {
                "start_time": 14.0863636,
                "end_time": 14.4977273,
                "pitch": 86,
                "velocity": 32,
                "duration": 0.4113636,
                "tempo": 120.0
            },
            {
                "start_time": 14.0863636,
                "end_time": 14.4977273,
                "pitch": 86,
                "velocity": 32,
                "duration": 0.4113636,
                "tempo": 120.0
            },
            {
                "start_time": 14.4977273,
                "end_time": 14.7022727,
                "pitch": 89,
                "velocity": 20,
                "duration": 0.2045455,
                "tempo": 120.0
            },
            {
                "start_time": 14.4977273,
                "end_time": 14.7022727,
                "pitch": 89,
                "velocity": 32,
                "duration": 0.2045455,
                "tempo": 120.0
            },
            {
                "start_time": 14.7022727,
                "end_time": 15.1204545,
                "pitch": 86,
                "velocity": 20,
                "duration": 0.4181818,
                "tempo": 120.0
            },
            {
                "start_time": 14.7022727,
                "end_time": 15.1204545,
                "pitch": 86,
                "velocity": 20,
                "duration": 0.4181818,
                "tempo": 120.0
            },
            {
                "start_time": 15.1204545,
                "end_time": 15.3340909,
                "pitch": 89,
                "velocity": 16,
                "duration": 0.2136364,
                "tempo": 120.0
            },
            {
                "start_time": 15.1204545,
                "end_time": 15.3340909,
                "pitch": 89,
                "velocity": 20,
                "duration": 0.2136364,
                "tempo": 120.0
            },
            {
                "start_time": 15.3340909,
                "end_time": 15.7363636,
                "pitch": 86,
                "velocity": 16,
                "duration": 0.4022727,
                "tempo": 120.0
            },
            {
                "start_time": 15.3340909,
                "end_time": 15.7363636,
                "pitch": 86,
                "velocity": 16,
                "duration": 0.4022727,
                "tempo": 120.0
            },
            {
                "start_time": 15.7363636,
                "end_time": 15.7386364,
                "pitch": 89,
                "velocity": 16,
                "duration": 0.0022727,
                "tempo": 120.0
            },
            {
                "start_time": 15.7386364,
                "end_time": 15.9454545,
                "pitch": 89,
                "velocity": 10,
                "duration": 0.2068182,
                "tempo": 120.0
            },
            {
                "start_time": 15.9454545,
                "end_time": 16.3568182,
                "pitch": 86,
                "velocity": 10,
                "duration": 0.4113636,
                "tempo": 120.0
            },
            {
                "start_time": 15.9454545,
                "end_time": 16.3568182,
                "pitch": 86,
                "velocity": 10,
                "duration": 0.4113636,
                "tempo": 120.0
            }
        ],
        "French Horn": [
            {
                "start_time": 16.5590909,
                "end_time": 22.5181818,
                "pitch": 69,
                "velocity": 51,
                "duration": 5.9590909,
                "tempo": 120.0
            },
            {
                "start_time": 22.5181818,
                "end_time": 26.9681818,
                "pitch": 69,
                "velocity": 51,
                "duration": 4.45,
                "tempo": 120.0
            },
            {
                "start_time": 26.9681818,
                "end_time": 35.825,
                "pitch": 67,
                "velocity": 51,
                "duration": 8.8568182,
                "tempo": 120.0
            },
            {
                "start_time": 35.825,
                "end_time": 40.2659091,
                "pitch": 58,
                "velocity": 32,
                "duration": 4.4409091,
                "tempo": 120.0
            },
            {
                "start_time": 40.2659091,
                "end_time": 42.9681818,
                "pitch": 60,
                "velocity": 32,
                "duration": 2.7022727,
                "tempo": 120.0
            },
            {
                "start_time": 40.2659091,
                "end_time": 42.9681818,
                "pitch": 60,
                "velocity": 32,
                "duration": 2.7022727,
                "tempo": 120.0
            },
            {
                "start_time": 42.9681818,
                "end_time": 43.5386364,
                "pitch": 55,
                "velocity": 32,
                "duration": 0.5704545,
                "tempo": 120.0
            },
            {
                "start_time": 42.9681818,
                "end_time": 43.5386364,
                "pitch": 55,
                "velocity": 51,
                "duration": 0.5704545,
                "tempo": 120.0
            },
            {
                "start_time": 43.5386364,
                "end_time": 44.1568182,
                "pitch": 57,
                "velocity": 51,
                "duration": 0.6181818,
                "tempo": 120.0
            },
            {
                "start_time": 44.1568182,
                "end_time": 44.7840909,
                "pitch": 60,
                "velocity": 51,
                "duration": 0.6272727,
                "tempo": 120.0
            },
            {
                "start_time": 44.1568182,
                "end_time": 44.7840909,
                "pitch": 60,
                "velocity": 51,
                "duration": 0.6272727,
                "tempo": 120.0
            },
            {
                "start_time": 44.7840909,
                "end_time": 49.7681818,
                "pitch": 58,
                "velocity": 40,
                "duration": 4.9840909,
                "tempo": 120.0
            },
            {
                "start_time": 44.7840909,
                "end_time": 49.7681818,
                "pitch": 58,
                "velocity": 51,
                "duration": 4.9840909,
                "tempo": 120.0
            },
            {
                "start_time": 49.7681818,
                "end_time": 61.0113636,
                "pitch": 64,
                "velocity": 40,
                "duration": 11.2431818,
                "tempo": 120.0
            },
            {
                "start_time": 49.7681818,
                "end_time": 61.0113636,
                "pitch": 64,
                "velocity": 40,
                "duration": 11.2431818,
                "tempo": 120.0
            }
        ],
        "Harpsichord": [
            {
                "start_time": 74.3295455,
                "end_time": 74.4704545,
                "pitch": 38,
                "velocity": 64,
                "duration": 0.1409091,
                "tempo": 120.0
            },
            {
                "start_time": 74.4704545,
                "end_time": 74.6113636,
                "pitch": 38,
                "velocity": 64,
                "duration": 0.1409091,
                "tempo": 120.0
            },
            {
                "start_time": 75.1772727,
                "end_time": 75.3090909,
                "pitch": 38,
                "velocity": 64,
                "duration": 0.1318182,
                "tempo": 120.0
            },
            {
                "start_time": 75.3090909,
                "end_time": 75.4409091,
                "pitch": 38,
                "velocity": 64,
                "duration": 0.1318182,
                "tempo": 120.0
            },
            {
                "start_time": 76.5204545,
                "end_time": 76.6568182,
                "pitch": 38,
                "velocity": 64,
                "duration": 0.1363636,
                "tempo": 120.0
            },
            {
                "start_time": 76.6568182,
                "end_time": 76.8022727,
                "pitch": 38,
                "velocity": 64,
                "duration": 0.1454545,
                "tempo": 120.0
            },
            {
                "start_time": 77.3818182,
                "end_time": 77.5181818,
                "pitch": 38,
                "velocity": 64,
                "duration": 0.1363636,
                "tempo": 120.0
            },
            {
                "start_time": 77.5181818,
                "end_time": 77.6522727,
                "pitch": 38,
                "velocity": 64,
                "duration": 0.1340909,
                "tempo": 120.0
            },
            {
                "start_time": 78.7477273,
                "end_time": 78.8863636,
                "pitch": 38,
                "velocity": 80,
                "duration": 0.1386364,
                "tempo": 120.0
            },
            {
                "start_time": 78.8863636,
                "end_time": 79.0363636,
                "pitch": 38,
                "velocity": 80,
                "duration": 0.15,
                "tempo": 120.0
            },
            {
                "start_time": 79.6386364,
                "end_time": 79.7636364,
                "pitch": 38,
                "velocity": 80,
                "duration": 0.125,
                "tempo": 120.0
            },
            {
                "start_time": 79.7636364,
                "end_time": 79.8909091,
                "pitch": 38,
                "velocity": 80,
                "duration": 0.1272727,
                "tempo": 120.0
            },
            {
                "start_time": 80.9431818,
                "end_time": 81.0681818,
                "pitch": 50,
                "velocity": 101,
                "duration": 0.125,
                "tempo": 120.0
            },
            {
                "start_time": 81.0681818,
                "end_time": 81.1954545,
                "pitch": 50,
                "velocity": 101,
                "duration": 0.1272727,
                "tempo": 120.0
            },
            {
                "start_time": 81.7022727,
                "end_time": 81.9340909,
                "pitch": 50,
                "velocity": 101,
                "duration": 0.2318182,
                "tempo": 120.0
            },
            {
                "start_time": 81.9340909,
                "end_time": 82.1659091,
                "pitch": 50,
                "velocity": 101,
                "duration": 0.2318182,
                "tempo": 120.0
            },
            {
                "start_time": 82.1659091,
                "end_time": 82.3977273,
                "pitch": 50,
                "velocity": 51,
                "duration": 0.2318182,
                "tempo": 120.0
            },
            {
                "start_time": 82.4,
                "end_time": 82.6318182,
                "pitch": 50,
                "velocity": 25,
                "duration": 0.2318182,
                "tempo": 120.0
            },
            {
                "start_time": 82.6318182,
                "end_time": 82.8659091,
                "pitch": 50,
                "velocity": 16,
                "duration": 0.2340909,
                "tempo": 120.0
            },
            {
                "start_time": 82.8659091,
                "end_time": 83.1022727,
                "pitch": 50,
                "velocity": 8,
                "duration": 0.2363636,
                "tempo": 120.0
            },
            {
                "start_time": 83.1022727,
                "end_time": 83.3363636,
                "pitch": 50,
                "velocity": 6,
                "duration": 0.2340909,
                "tempo": 120.0
            },
            {
                "start_time": 83.3363636,
                "end_time": 83.5727273,
                "pitch": 50,
                "velocity": 5,
                "duration": 0.2363636,
                "tempo": 120.0
            }
        ],
        "Electric Guitar (clean)": [
            {
                "start_time": 18.2181818,
                "end_time": 18.3204545,
                "pitch": 38,
                "velocity": 80,
                "duration": 0.1022727,
                "tempo": 120.0
            },
            {
                "start_time": 18.3204545,
                "end_time": 18.45,
                "pitch": 38,
                "velocity": 64,
                "duration": 0.1295455,
                "tempo": 120.0
            },
            {
                "start_time": 18.9727273,
                "end_time": 19.1022727,
                "pitch": 38,
                "velocity": 80,
                "duration": 0.1295455,
                "tempo": 120.0
            },
            {
                "start_time": 19.1022727,
                "end_time": 19.2340909,
                "pitch": 38,
                "velocity": 64,
                "duration": 0.1318182,
                "tempo": 120.0
            },
            {
                "start_time": 20.3,
                "end_time": 20.4363636,
                "pitch": 38,
                "velocity": 80,
                "duration": 0.1363636,
                "tempo": 120.0
            },
            {
                "start_time": 20.4363636,
                "end_time": 20.5818182,
                "pitch": 38,
                "velocity": 51,
                "duration": 0.1454545,
                "tempo": 120.0
            },
            {
                "start_time": 21.1613636,
                "end_time": 21.2954545,
                "pitch": 38,
                "velocity": 80,
                "duration": 0.1340909,
                "tempo": 120.0
            },
            {
                "start_time": 21.2954545,
                "end_time": 21.4318182,
                "pitch": 38,
                "velocity": 51,
                "duration": 0.1363636,
                "tempo": 120.0
            },
            {
                "start_time": 22.5181818,
                "end_time": 22.6568182,
                "pitch": 38,
                "velocity": 80,
                "duration": 0.1386364,
                "tempo": 120.0
            },
            {
                "start_time": 22.6568182,
                "end_time": 22.7954545,
                "pitch": 38,
                "velocity": 51,
                "duration": 0.1386364,
                "tempo": 120.0
            },
            {
                "start_time": 23.3568182,
                "end_time": 23.4954545,
                "pitch": 38,
                "velocity": 80,
                "duration": 0.1386364,
                "tempo": 120.0
            },
            {
                "start_time": 23.4954545,
                "end_time": 23.6363636,
                "pitch": 38,
                "velocity": 51,
                "duration": 0.1409091,
                "tempo": 120.0
            },
            {
                "start_time": 24.7386364,
                "end_time": 24.8772727,
                "pitch": 38,
                "velocity": 80,
                "duration": 0.1386364,
                "tempo": 120.0
            },
            {
                "start_time": 24.8772727,
                "end_time": 25.0227273,
                "pitch": 38,
                "velocity": 51,
                "duration": 0.1454545,
                "tempo": 120.0
            },
            {
                "start_time": 25.6022727,
                "end_time": 25.7386364,
                "pitch": 38,
                "velocity": 80,
                "duration": 0.1363636,
                "tempo": 120.0
            },
            {
                "start_time": 25.7386364,
                "end_time": 25.8727273,
                "pitch": 38,
                "velocity": 51,
                "duration": 0.1340909,
                "tempo": 120.0
            },
            {
                "start_time": 26.9681818,
                "end_time": 27.1045455,
                "pitch": 36,
                "velocity": 80,
                "duration": 0.1363636,
                "tempo": 120.0
            },
            {
                "start_time": 27.1045455,
                "end_time": 27.2409091,
                "pitch": 36,
                "velocity": 51,
                "duration": 0.1363636,
                "tempo": 120.0
            },
            {
                "start_time": 27.7886364,
                "end_time": 27.9295455,
                "pitch": 36,
                "velocity": 80,
                "duration": 0.1409091,
                "tempo": 120.0
            },
            {
                "start_time": 27.9295455,
                "end_time": 28.0704545,
                "pitch": 36,
                "velocity": 51,
                "duration": 0.1409091,
                "tempo": 120.0
            },
            {
                "start_time": 29.1727273,
                "end_time": 29.3090909,
                "pitch": 36,
                "velocity": 80,
                "duration": 0.1363636,
                "tempo": 120.0
            },
            {
                "start_time": 29.3090909,
                "end_time": 29.4522727,
                "pitch": 36,
                "velocity": 51,
                "duration": 0.1431818,
                "tempo": 120.0
            },
            {
                "start_time": 30.025,
                "end_time": 30.1636364,
                "pitch": 36,
                "velocity": 80,
                "duration": 0.1386364,
                "tempo": 120.0
            },
            {
                "start_time": 30.1636364,
                "end_time": 30.3,
                "pitch": 36,
                "velocity": 51,
                "duration": 0.1363636,
                "tempo": 120.0
            },
            {
                "start_time": 31.3681818,
                "end_time": 31.5045455,
                "pitch": 36,
                "velocity": 80,
                "duration": 0.1363636,
                "tempo": 120.0
            },
            {
                "start_time": 31.5045455,
                "end_time": 31.6522727,
                "pitch": 36,
                "velocity": 51,
                "duration": 0.1477273,
                "tempo": 120.0
            },
            {
                "start_time": 32.2477273,
                "end_time": 32.3840909,
                "pitch": 36,
                "velocity": 80,
                "duration": 0.1363636,
                "tempo": 120.0
            },
            {
                "start_time": 32.3840909,
                "end_time": 32.5181818,
                "pitch": 36,
                "velocity": 51,
                "duration": 0.1340909,
                "tempo": 120.0
            },
            {
                "start_time": 33.6136364,
                "end_time": 33.7522727,
                "pitch": 36,
                "velocity": 80,
                "duration": 0.1386364,
                "tempo": 120.0
            },
            {
                "start_time": 33.7522727,
                "end_time": 33.8909091,
                "pitch": 36,
                "velocity": 51,
                "duration": 0.1386364,
                "tempo": 120.0
            },
            {
                "start_time": 34.4522727,
                "end_time": 34.5886364,
                "pitch": 36,
                "velocity": 80,
                "duration": 0.1363636,
                "tempo": 120.0
            },
            {
                "start_time": 34.5886364,
                "end_time": 34.7272727,
                "pitch": 36,
                "velocity": 51,
                "duration": 0.1386364,
                "tempo": 120.0
            },
            {
                "start_time": 35.825,
                "end_time": 35.9636364,
                "pitch": 34,
                "velocity": 80,
                "duration": 0.1386364,
                "tempo": 120.0
            },
            {
                "start_time": 35.9636364,
                "end_time": 36.1068182,
                "pitch": 34,
                "velocity": 51,
                "duration": 0.1431818,
                "tempo": 120.0
            },
            {
                "start_time": 36.6795455,
                "end_time": 36.8159091,
                "pitch": 34,
                "velocity": 80,
                "duration": 0.1363636,
                "tempo": 120.0
            },
            {
                "start_time": 36.8159091,
                "end_time": 36.9545455,
                "pitch": 34,
                "velocity": 51,
                "duration": 0.1386364,
                "tempo": 120.0
            },
            {
                "start_time": 38.0386364,
                "end_time": 38.175,
                "pitch": 34,
                "velocity": 80,
                "duration": 0.1363636,
                "tempo": 120.0
            },
            {
                "start_time": 38.175,
                "end_time": 38.3204545,
                "pitch": 34,
                "velocity": 51,
                "duration": 0.1454545,
                "tempo": 120.0
            },
            {
                "start_time": 38.9,
                "end_time": 39.0363636,
                "pitch": 34,
                "velocity": 80,
                "duration": 0.1363636,
                "tempo": 120.0
            },
            {
                "start_time": 39.0363636,
                "end_time": 39.1704545,
                "pitch": 34,
                "velocity": 51,
                "duration": 0.1340909,
                "tempo": 120.0
            },
            {
                "start_time": 40.2659091,
                "end_time": 40.4045455,
                "pitch": 33,
                "velocity": 80,
                "duration": 0.1386364,
                "tempo": 120.0
            },
            {
                "start_time": 40.4045455,
                "end_time": 40.5431818,
                "pitch": 33,
                "velocity": 51,
                "duration": 0.1386364,
                "tempo": 120.0
            },
            {
                "start_time": 41.0954545,
                "end_time": 41.2340909,
                "pitch": 33,
                "velocity": 80,
                "duration": 0.1386364,
                "tempo": 120.0
            },
            {
                "start_time": 41.2340909,
                "end_time": 41.375,
                "pitch": 33,
                "velocity": 51,
                "duration": 0.1409091,
                "tempo": 120.0
            },
            {
                "start_time": 42.4477273,
                "end_time": 42.5772727,
                "pitch": 33,
                "velocity": 80,
                "duration": 0.1295455,
                "tempo": 120.0
            },
            {
                "start_time": 42.5772727,
                "end_time": 42.7068182,
                "pitch": 33,
                "velocity": 51,
                "duration": 0.1295455,
                "tempo": 120.0
            },
            {
                "start_time": 43.2295455,
                "end_time": 43.3840909,
                "pitch": 33,
                "velocity": 80,
                "duration": 0.1545455,
                "tempo": 120.0
            },
            {
                "start_time": 43.3840909,
                "end_time": 43.5386364,
                "pitch": 33,
                "velocity": 51,
                "duration": 0.1545455,
                "tempo": 120.0
            },
            {
                "start_time": 44.7840909,
                "end_time": 44.9409091,
                "pitch": 34,
                "velocity": 80,
                "duration": 0.1568182,
                "tempo": 120.0
            },
            {
                "start_time": 44.9409091,
                "end_time": 45.0977273,
                "pitch": 34,
                "velocity": 51,
                "duration": 0.1568182,
                "tempo": 120.0
            },
            {
                "start_time": 45.7181818,
                "end_time": 45.8727273,
                "pitch": 34,
                "velocity": 80,
                "duration": 0.1545455,
                "tempo": 120.0
            },
            {
                "start_time": 45.8727273,
                "end_time": 46.0272727,
                "pitch": 34,
                "velocity": 51,
                "duration": 0.1545455,
                "tempo": 120.0
            },
            {
                "start_time": 47.2704545,
                "end_time": 47.4272727,
                "pitch": 34,
                "velocity": 80,
                "duration": 0.1568182,
                "tempo": 120.0
            },
            {
                "start_time": 47.4272727,
                "end_time": 47.5840909,
                "pitch": 34,
                "velocity": 51,
                "duration": 0.1568182,
                "tempo": 120.0
            },
            {
                "start_time": 48.2068182,
                "end_time": 48.3613636,
                "pitch": 34,
                "velocity": 80,
                "duration": 0.1545455,
                "tempo": 120.0
            },
            {
                "start_time": 48.3613636,
                "end_time": 48.5159091,
                "pitch": 34,
                "velocity": 51,
                "duration": 0.1545455,
                "tempo": 120.0
            },
            {
                "start_time": 49.7681818,
                "end_time": 49.9227273,
                "pitch": 37,
                "velocity": 80,
                "duration": 0.1545455,
                "tempo": 120.0
            },
            {
                "start_time": 49.9227273,
                "end_time": 50.0772727,
                "pitch": 37,
                "velocity": 51,
                "duration": 0.1545455,
                "tempo": 120.0
            },
            {
                "start_time": 50.6954545,
                "end_time": 50.8522727,
                "pitch": 37,
                "velocity": 80,
                "duration": 0.1568182,
                "tempo": 120.0
            },
            {
                "start_time": 50.8522727,
                "end_time": 51.0068182,
                "pitch": 37,
                "velocity": 64,
                "duration": 0.1545455,
                "tempo": 120.0
            },
            {
                "start_time": 52.1681818,
                "end_time": 52.3045455,
                "pitch": 37,
                "velocity": 80,
                "duration": 0.1363636,
                "tempo": 120.0
            },
            {
                "start_time": 52.3045455,
                "end_time": 52.4431818,
                "pitch": 37,
                "velocity": 64,
                "duration": 0.1386364,
                "tempo": 120.0
            },
            {
                "start_time": 52.9977273,
                "end_time": 53.1340909,
                "pitch": 37,
                "velocity": 80,
                "duration": 0.1363636,
                "tempo": 120.0
            },
            {
                "start_time": 53.1340909,
                "end_time": 53.2727273,
                "pitch": 37,
                "velocity": 64,
                "duration": 0.1386364,
                "tempo": 120.0
            },
            {
                "start_time": 54.3636364,
                "end_time": 54.5,
                "pitch": 38,
                "velocity": 80,
                "duration": 0.1363636,
                "tempo": 120.0
            },
            {
                "start_time": 54.5,
                "end_time": 54.6454545,
                "pitch": 38,
                "velocity": 51,
                "duration": 0.1454545,
                "tempo": 120.0
            },
            {
                "start_time": 55.2272727,
                "end_time": 55.3636364,
                "pitch": 38,
                "velocity": 80,
                "duration": 0.1363636,
                "tempo": 120.0
            },
            {
                "start_time": 55.3636364,
                "end_time": 55.5,
                "pitch": 38,
                "velocity": 51,
                "duration": 0.1363636,
                "tempo": 120.0
            },
            {
                "start_time": 56.6227273,
                "end_time": 56.7659091,
                "pitch": 38,
                "velocity": 80,
                "duration": 0.1431818,
                "tempo": 120.0
            },
            {
                "start_time": 56.7659091,
                "end_time": 56.9045455,
                "pitch": 38,
                "velocity": 51,
                "duration": 0.1386364,
                "tempo": 120.0
            },
            {
                "start_time": 57.4636364,
                "end_time": 57.5977273,
                "pitch": 38,
                "velocity": 80,
                "duration": 0.1340909,
                "tempo": 120.0
            },
            {
                "start_time": 57.5977273,
                "end_time": 57.7295455,
                "pitch": 38,
                "velocity": 51,
                "duration": 0.1318182,
                "tempo": 120.0
            },
            {
                "start_time": 58.8068182,
                "end_time": 58.9431818,
                "pitch": 38,
                "velocity": 80,
                "duration": 0.1363636,
                "tempo": 120.0
            },
            {
                "start_time": 58.9431818,
                "end_time": 59.0886364,
                "pitch": 38,
                "velocity": 51,
                "duration": 0.1454545,
                "tempo": 120.0
            },
            {
                "start_time": 59.6681818,
                "end_time": 59.8,
                "pitch": 38,
                "velocity": 80,
                "duration": 0.1318182,
                "tempo": 120.0
            },
            {
                "start_time": 59.8,
                "end_time": 59.9318182,
                "pitch": 38,
                "velocity": 51,
                "duration": 0.1318182,
                "tempo": 120.0
            },
            {
                "start_time": 61.0113636,
                "end_time": 61.1477273,
                "pitch": 38,
                "velocity": 80,
                "duration": 0.1363636,
                "tempo": 120.0
            },
            {
                "start_time": 61.1477273,
                "end_time": 61.2931818,
                "pitch": 38,
                "velocity": 51,
                "duration": 0.1454545,
                "tempo": 120.0
            },
            {
                "start_time": 61.8727273,
                "end_time": 62.0090909,
                "pitch": 38,
                "velocity": 80,
                "duration": 0.1363636,
                "tempo": 120.0
            },
            {
                "start_time": 62.0090909,
                "end_time": 62.1431818,
                "pitch": 38,
                "velocity": 51,
                "duration": 0.1340909,
                "tempo": 120.0
            },
            {
                "start_time": 63.2318182,
                "end_time": 63.3704545,
                "pitch": 38,
                "velocity": 80,
                "duration": 0.1386364,
                "tempo": 120.0
            },
            {
                "start_time": 63.3704545,
                "end_time": 63.5136364,
                "pitch": 38,
                "velocity": 51,
                "duration": 0.1431818,
                "tempo": 120.0
            },
            {
                "start_time": 64.0863636,
                "end_time": 64.2204545,
                "pitch": 38,
                "velocity": 80,
                "duration": 0.1340909,
                "tempo": 120.0
            },
            {
                "start_time": 64.2204545,
                "end_time": 64.3568182,
                "pitch": 38,
                "velocity": 51,
                "duration": 0.1363636,
                "tempo": 120.0
            },
            {
                "start_time": 65.4431818,
                "end_time": 65.5818182,
                "pitch": 38,
                "velocity": 80,
                "duration": 0.1386364,
                "tempo": 120.0
            },
            {
                "start_time": 65.5818182,
                "end_time": 65.7295455,
                "pitch": 38,
                "velocity": 51,
                "duration": 0.1477273,
                "tempo": 120.0
            },
            {
                "start_time": 66.325,
                "end_time": 66.4568182,
                "pitch": 38,
                "velocity": 80,
                "duration": 0.1318182,
                "tempo": 120.0
            },
            {
                "start_time": 66.4568182,
                "end_time": 66.5886364,
                "pitch": 38,
                "velocity": 51,
                "duration": 0.1318182,
                "tempo": 120.0
            },
            {
                "start_time": 67.6659091,
                "end_time": 67.8045455,
                "pitch": 38,
                "velocity": 80,
                "duration": 0.1386364,
                "tempo": 120.0
            },
            {
                "start_time": 67.8045455,
                "end_time": 67.95,
                "pitch": 38,
                "velocity": 51,
                "duration": 0.1454545,
                "tempo": 120.0
            },
            {
                "start_time": 68.5295455,
                "end_time": 68.6613636,
                "pitch": 38,
                "velocity": 80,
                "duration": 0.1318182,
                "tempo": 120.0
            },
            {
                "start_time": 68.6613636,
                "end_time": 68.7931818,
                "pitch": 38,
                "velocity": 51,
                "duration": 0.1318182,
                "tempo": 120.0
            },
            {
                "start_time": 69.8704545,
                "end_time": 70.0090909,
                "pitch": 38,
                "velocity": 80,
                "duration": 0.1386364,
                "tempo": 120.0
            },
            {
                "start_time": 70.0090909,
                "end_time": 70.1545455,
                "pitch": 38,
                "velocity": 51,
                "duration": 0.1454545,
                "tempo": 120.0
            },
            {
                "start_time": 70.7340909,
                "end_time": 70.8704545,
                "pitch": 38,
                "velocity": 80,
                "duration": 0.1363636,
                "tempo": 120.0
            },
            {
                "start_time": 70.8704545,
                "end_time": 71.0045455,
                "pitch": 38,
                "velocity": 51,
                "duration": 0.1340909,
                "tempo": 120.0
            },
            {
                "start_time": 72.0931818,
                "end_time": 72.2295455,
                "pitch": 38,
                "velocity": 101,
                "duration": 0.1363636,
                "tempo": 120.0
            },
            {
                "start_time": 72.2295455,
                "end_time": 72.3795455,
                "pitch": 38,
                "velocity": 80,
                "duration": 0.15,
                "tempo": 120.0
            },
            {
                "start_time": 72.9727273,
                "end_time": 73.1045455,
                "pitch": 38,
                "velocity": 101,
                "duration": 0.1318182,
                "tempo": 120.0
            },
            {
                "start_time": 73.1045455,
                "end_time": 73.2340909,
                "pitch": 38,
                "velocity": 80,
                "duration": 0.1295455,
                "tempo": 120.0
            },
            {
                "start_time": 74.3295455,
                "end_time": 74.4704545,
                "pitch": 38,
                "velocity": 127,
                "duration": 0.1409091,
                "tempo": 120.0
            },
            {
                "start_time": 74.4704545,
                "end_time": 74.6113636,
                "pitch": 38,
                "velocity": 101,
                "duration": 0.1409091,
                "tempo": 120.0
            },
            {
                "start_time": 75.1772727,
                "end_time": 75.3090909,
                "pitch": 38,
                "velocity": 127,
                "duration": 0.1318182,
                "tempo": 120.0
            },
            {
                "start_time": 75.3090909,
                "end_time": 75.4409091,
                "pitch": 38,
                "velocity": 101,
                "duration": 0.1318182,
                "tempo": 120.0
            },
            {
                "start_time": 76.5204545,
                "end_time": 76.6568182,
                "pitch": 38,
                "velocity": 127,
                "duration": 0.1363636,
                "tempo": 120.0
            },
            {
                "start_time": 76.6568182,
                "end_time": 76.8022727,
                "pitch": 38,
                "velocity": 101,
                "duration": 0.1454545,
                "tempo": 120.0
            },
            {
                "start_time": 77.3840909,
                "end_time": 77.5181818,
                "pitch": 38,
                "velocity": 127,
                "duration": 0.1340909,
                "tempo": 120.0
            },
            {
                "start_time": 77.5181818,
                "end_time": 77.6522727,
                "pitch": 38,
                "velocity": 101,
                "duration": 0.1340909,
                "tempo": 120.0
            },
            {
                "start_time": 78.7477273,
                "end_time": 78.8863636,
                "pitch": 38,
                "velocity": 101,
                "duration": 0.1386364,
                "tempo": 120.0
            },
            {
                "start_time": 78.8863636,
                "end_time": 79.0363636,
                "pitch": 38,
                "velocity": 101,
                "duration": 0.15,
                "tempo": 120.0
            },
            {
                "start_time": 79.6386364,
                "end_time": 79.7636364,
                "pitch": 38,
                "velocity": 101,
                "duration": 0.125,
                "tempo": 120.0
            },
            {
                "start_time": 79.7636364,
                "end_time": 79.8909091,
                "pitch": 38,
                "velocity": 101,
                "duration": 0.1272727,
                "tempo": 120.0
            },
            {
                "start_time": 80.9431818,
                "end_time": 81.0681818,
                "pitch": 38,
                "velocity": 101,
                "duration": 0.125,
                "tempo": 120.0
            },
            {
                "start_time": 81.0681818,
                "end_time": 81.1954545,
                "pitch": 38,
                "velocity": 101,
                "duration": 0.1272727,
                "tempo": 120.0
            },
            {
                "start_time": 81.7022727,
                "end_time": 81.9340909,
                "pitch": 38,
                "velocity": 101,
                "duration": 0.2318182,
                "tempo": 120.0
            },
            {
                "start_time": 81.9340909,
                "end_time": 82.1659091,
                "pitch": 38,
                "velocity": 101,
                "duration": 0.2318182,
                "tempo": 120.0
            },
            {
                "start_time": 82.1659091,
                "end_time": 82.4,
                "pitch": 38,
                "velocity": 51,
                "duration": 0.2340909,
                "tempo": 120.0
            },
            {
                "start_time": 82.4,
                "end_time": 82.6318182,
                "pitch": 38,
                "velocity": 32,
                "duration": 0.2318182,
                "tempo": 120.0
            },
            {
                "start_time": 82.6318182,
                "end_time": 82.8659091,
                "pitch": 38,
                "velocity": 16,
                "duration": 0.2340909,
                "tempo": 120.0
            },
            {
                "start_time": 82.8659091,
                "end_time": 83.1022727,
                "pitch": 38,
                "velocity": 8,
                "duration": 0.2363636,
                "tempo": 120.0
            },
            {
                "start_time": 83.1022727,
                "end_time": 83.3363636,
                "pitch": 38,
                "velocity": 6,
                "duration": 0.2340909,
                "tempo": 120.0
            },
            {
                "start_time": 83.3363636,
                "end_time": 83.5727273,
                "pitch": 38,
                "velocity": 5,
                "duration": 0.2363636,
                "tempo": 120.0
            }
        ]
    }
}