{
    "mood": "sad",
    "instruments": {
        "Electric Guitar (clean)": [
            {
                "start_time": 0.0,
                "end_time": 0.1659091,
                "pitch": 24,
                "velocity": 64,
                "duration": 0.1659091,
                "tempo": 120.0
            },
            {
                "start_time": 0.1954545,
                "end_time": 0.3886364,
                "pitch": 34,
                "velocity": 64,
                "duration": 0.1931818,
                "tempo": 120.0
            },
            {
                "start_time": 0.4045455,
                "end_time": 0.6136364,
                "pitch": 24,
                "velocity": 64,
                "duration": 0.2090909,
                "tempo": 120.0
            },
            {
                "start_time": 0.6318182,
                "end_time": 0.875,
                "pitch": 36,
                "velocity": 64,
                "duration": 0.2431818,
                "tempo": 120.0
            },
            {
                "start_time": 0.8909091,
                "end_time": 1.3227273,
                "pitch": 24,
                "velocity": 64,
                "duration": 0.4318182,
                "tempo": 120.0
            },
            {
                "start_time": 1.3545455,
                "end_time": 1.8227273,
                "pitch": 24,
                "velocity": 64,
                "duration": 0.4681818,
                "tempo": 120.0
            },
            {
                "start_time": 1.8409091,
                "end_time": 2.0477273,
                "pitch": 26,
                "velocity": 64,
                "duration": 0.2068182,
                "tempo": 120.0
            },
            {
                "start_time": 2.0795455,
                "end_time": 2.2886364,
                "pitch": 36,
                "velocity": 64,
                "duration": 0.2090909,
                "tempo": 120.0
            },
            {
                "start_time": 2.2886364,
                "end_time": 2.5090909,
                "pitch": 26,
                "velocity": 64,
                "duration": 0.2204545,
                "tempo": 120.0
            },
            {
                "start_time": 2.5613636,
                "end_time": 2.7840909,
                "pitch": 43,
                "velocity": 64,
                "duration": 0.2227273,
                "tempo": 120.0
            },
            {
                "start_time": 2.8159091,
                "end_time": 3.0295455,
                "pitch": 36,
                "velocity": 64,
                "duration": 0.2136364,
                "tempo": 120.0
            },
            {
                "start_time": 3.0295455,
                "end_time": 3.2431818,
                "pitch": 41,
                "velocity": 64,
                "duration": 0.2136364,
                "tempo": 120.0
            },
            {
                "start_time": 3.275,
                "end_time": 3.7272727,
                "pitch": 38,
                "velocity": 64,
                "duration": 0.4522727,
                "tempo": 120.0
            },
            {
                "start_time": 3.7795455,
                "end_time": 3.9954545,
                "pitch": 24,
                "velocity": 64,
                "duration": 0.2159091,
                "tempo": 120.0
            },
            {
                "start_time": 4.0113636,
                "end_time": 4.2454545,
                "pitch": 34,
                "velocity": 64,
                "duration": 0.2340909,
                "tempo": 120.0
            },
            {
                "start_time": 4.2613636,
                "end_time": 4.4613636,
                "pitch": 24,
                "velocity": 64,
                "duration": 0.2,
                "tempo": 120.0
            },
            {
                "start_time": 4.4795455,
                "end_time": 4.7113636,
                "pitch": 36,
                "velocity": 64,
                "duration": 0.2318182,
                "tempo": 120.0
            },
            {
                "start_time": 4.7272727,
                "end_time": 5.1772727,
                "pitch": 24,
                "velocity": 64,
                "duration": 0.45,
                "tempo": 120.0
            },
            {
                "start_time": 5.1931818,
                "end_time": 5.6613636,
                "pitch": 24,
                "velocity": 64,
                "duration": 0.4681818,
                "tempo": 120.0
            },
            {
                "start_time": 5.6772727,
                "end_time": 5.8863636,
                "pitch": 26,
                "velocity": 64,
                "duration": 0.2090909,
                "tempo": 120.0
            },
            {
                "start_time": 5.9181818,
                "end_time": 6.1272727,
                "pitch": 36,
                "velocity": 64,
                "duration": 0.2090909,
                "tempo": 120.0
            },
            {
                "start_time": 6.1772727,
                "end_time": 6.4022727,
                "pitch": 26,
                "velocity": 64,
                "duration": 0.225,
                "tempo": 120.0
            },
            {
                "start_time": 6.4022727,
                "end_time": 6.6272727,
                "pitch": 43,
                "velocity": 64,
                "duration": 0.225,
                "tempo": 120.0
            },
            {
                "start_time": 6.6613636,
                "end_time": 6.8681818,
                "pitch": 36,
                "velocity": 64,
                "duration": 0.2068182,
                "tempo": 120.0
            },
            {
                "start_time": 6.8681818,
                "end_time": 7.0772727,
                "pitch": 41,
                "velocity": 64,
                "duration": 0.2090909,
                "tempo": 120.0
            },
            {
                "start_time": 7.1090909,
                "end_time": 7.6045455,
                "pitch": 38,
                "velocity": 64,
                "duration": 0.4954545,
                "tempo": 120.0
            },
            {
                "start_time": 7.6045455,
                "end_time": 7.8227273,
                "pitch": 16,
                "velocity": 64,
                "duration": 0.2181818,
                "tempo": 120.0
            },
            {
                "start_time": 7.8386364,
                "end_time": 8.075,
                "pitch": 32,
                "velocity": 64,
                "duration": 0.2363636,
                "tempo": 120.0
            },
            {
                "start_time": 8.0909091,
                "end_time": 8.2931818,
                "pitch": 16,
                "velocity": 64,
                "duration": 0.2022727,
                "tempo": 120.0
            },
            {
                "start_time": 8.3090909,
                "end_time": 8.5454545,
                "pitch": 34,
                "velocity": 64,
                "duration": 0.2363636,
                "tempo": 120.0
            },
            {
                "start_time": 8.5795455,
                "end_time": 9.0295455,
                "pitch": 16,
                "velocity": 64,
                "duration": 0.45,
                "tempo": 120.0
            },
            {
                "start_time": 9.0454545,
                "end_time": 9.5,
                "pitch": 16,
                "velocity": 64,
                "duration": 0.4545455,
                "tempo": 120.0
            },
            {
                "start_time": 9.5159091,
                "end_time": 9.7295455,
                "pitch": 28,
                "velocity": 64,
                "duration": 0.2136364,
                "tempo": 120.0
            },
            {
                "start_time": 9.7772727,
                "end_time": 9.9909091,
                "pitch": 38,
                "velocity": 64,
                "duration": 0.2136364,
                "tempo": 120.0
            },
            {
                "start_time": 10.025,
                "end_time": 10.25,
                "pitch": 28,
                "velocity": 64,
                "duration": 0.225,
                "tempo": 120.0
            },
            {
                "start_time": 10.25,
                "end_time": 10.4772727,
                "pitch": 45,
                "velocity": 64,
                "duration": 0.2272727,
                "tempo": 120.0
            },
            {
                "start_time": 10.5090909,
                "end_time": 10.7181818,
                "pitch": 38,
                "velocity": 64,
                "duration": 0.2090909,
                "tempo": 120.0
            },
            {
                "start_time": 10.7181818,
                "end_time": 10.9272727,
                "pitch": 43,
                "velocity": 64,
                "duration": 0.2090909,
                "tempo": 120.0
            },
            {
                "start_time": 10.975,
                "end_time": 11.4613636,
                "pitch": 40,
                "velocity": 64,
                "duration": 0.4863636,
                "tempo": 120.0
            },
            {
                "start_time": 11.4613636,
                "end_time": 11.6727273,
                "pitch": 30,
                "velocity": 64,
                "duration": 0.2113636,
                "tempo": 120.0
            },
            {
                "start_time": 11.6909091,
                "end_time": 11.9204545,
                "pitch": 40,
                "velocity": 64,
                "duration": 0.2295455,
                "tempo": 120.0
            },
            {
                "start_time": 11.9363636,
                "end_time": 12.1386364,
                "pitch": 30,
                "velocity": 64,
                "duration": 0.2022727,
                "tempo": 120.0
            },
            {
                "start_time": 12.2045455,
                "end_time": 12.4068182,
                "pitch": 42,
                "velocity": 64,
                "duration": 0.2022727,
                "tempo": 120.0
            },
            {
                "start_time": 12.4227273,
                "end_time": 12.8659091,
                "pitch": 30,
                "velocity": 64,
                "duration": 0.4431818,
                "tempo": 120.0
            },
            {
                "start_time": 12.8818182,
                "end_time": 13.3363636,
                "pitch": 30,
                "velocity": 64,
                "duration": 0.4545455,
                "tempo": 120.0
            },
            {
                "start_time": 13.4045455,
                "end_time": 13.6113636,
                "pitch": 32,
                "velocity": 64,
                "duration": 0.2068182,
                "tempo": 120.0
            },
            {
                "start_time": 13.6295455,
                "end_time": 13.8727273,
                "pitch": 42,
                "velocity": 64,
                "duration": 0.2431818,
                "tempo": 120.0
            },
            {
                "start_time": 13.8886364,
                "end_time": 14.0863636,
                "pitch": 32,
                "velocity": 64,
                "duration": 0.1977273,
                "tempo": 120.0
            },
            {
                "start_time": 14.1022727,
                "end_time": 14.3318182,
                "pitch": 49,
                "velocity": 64,
                "duration": 0.2295455,
                "tempo": 120.0
            },
            {
                "start_time": 14.3477273,
                "end_time": 14.5454545,
                "pitch": 42,
                "velocity": 64,
                "duration": 0.1977273,
                "tempo": 120.0
            },
            {
                "start_time": 14.6113636,
                "end_time": 14.8068182,
                "pitch": 47,
                "velocity": 64,
                "duration": 0.1954545,
                "tempo": 120.0
            },
            {
                "start_time": 14.825,
                "end_time": 15.2931818,
                "pitch": 44,
                "velocity": 64,
                "duration": 0.4681818,
                "tempo": 120.0
            }
        ],
        "Oboe": [
            {
                "start_time": 0.0,
                "end_time": 0.1659091,
                "pitch": 60,
                "velocity": 51,
                "duration": 0.1659091,
                "tempo": 120.0
            },
            {
                "start_time": 0.1954545,
                "end_time": 0.3886364,
                "pitch": 65,
                "velocity": 51,
                "duration": 0.1931818,
                "tempo": 120.0
            },
            {
                "start_time": 0.4045455,
                "end_time": 0.6136364,
                "pitch": 67,
                "velocity": 51,
                "duration": 0.2090909,
                "tempo": 120.0
            },
            {
                "start_time": 0.6318182,
                "end_time": 0.875,
                "pitch": 60,
                "velocity": 51,
                "duration": 0.2431818,
                "tempo": 120.0
            },
            {
                "start_time": 0.8909091,
                "end_time": 1.0818182,
                "pitch": 70,
                "velocity": 51,
                "duration": 0.1909091,
                "tempo": 120.0
            },
            {
                "start_time": 1.0977273,
                "end_time": 1.3227273,
                "pitch": 69,
                "velocity": 51,
                "duration": 0.225,
                "tempo": 120.0
            },
            {
                "start_time": 1.3545455,
                "end_time": 1.5977273,
                "pitch": 70,
                "velocity": 51,
                "duration": 0.2431818,
                "tempo": 120.0
            },
            {
                "start_time": 1.6159091,
                "end_time": 1.8227273,
                "pitch": 72,
                "velocity": 51,
                "duration": 0.2068182,
                "tempo": 120.0
            },
            {
                "start_time": 1.8409091,
                "end_time": 2.0477273,
                "pitch": 62,
                "velocity": 51,
                "duration": 0.2068182,
                "tempo": 120.0
            },
            {
                "start_time": 2.0795455,
                "end_time": 2.2886364,
                "pitch": 67,
                "velocity": 51,
                "duration": 0.2090909,
                "tempo": 120.0
            },
            {
                "start_time": 2.2886364,
                "end_time": 2.5090909,
                "pitch": 69,
                "velocity": 51,
                "duration": 0.2204545,
                "tempo": 120.0
            },
            {
                "start_time": 2.5613636,
                "end_time": 2.7840909,
                "pitch": 62,
                "velocity": 51,
                "duration": 0.2227273,
                "tempo": 120.0
            },
            {
                "start_time": 2.8159091,
                "end_time": 3.0295455,
                "pitch": 72,
                "velocity": 51,
                "duration": 0.2136364,
                "tempo": 120.0
            },
            {
                "start_time": 3.0295455,
                "end_time": 3.2431818,
                "pitch": 71,
                "velocity": 51,
                "duration": 0.2136364,
                "tempo": 120.0
            },
            {
                "start_time": 3.275,
                "end_time": 3.5,
                "pitch": 72,
                "velocity": 51,
                "duration": 0.225,
                "tempo": 120.0
            },
            {
                "start_time": 3.5,
                "end_time": 3.7272727,
                "pitch": 74,
                "velocity": 51,
                "duration": 0.2272727,
                "tempo": 120.0
            },
            {
                "start_time": 3.7795455,
                "end_time": 3.9954545,
                "pitch": 60,
                "velocity": 51,
                "duration": 0.2159091,
                "tempo": 120.0
            },
            {
                "start_time": 4.0113636,
                "end_time": 4.2454545,
                "pitch": 65,
                "velocity": 51,
                "duration": 0.2340909,
                "tempo": 120.0
            },
            {
                "start_time": 4.2613636,
                "end_time": 4.4613636,
                "pitch": 67,
                "velocity": 51,
                "duration": 0.2,
                "tempo": 120.0
            },
            {
                "start_time": 4.4795455,
                "end_time": 4.7113636,
                "pitch": 60,
                "velocity": 51,
                "duration": 0.2318182,
                "tempo": 120.0
            },
            {
                "start_time": 4.7272727,
                "end_time": 4.9204545,
                "pitch": 70,
                "velocity": 51,
                "duration": 0.1931818,
                "tempo": 120.0
            },
            {
                "start_time": 4.9840909,
                "end_time": 5.1772727,
                "pitch": 69,
                "velocity": 51,
                "duration": 0.1931818,
                "tempo": 120.0
            },
            {
                "start_time": 5.1931818,
                "end_time": 5.4363636,
                "pitch": 70,
                "velocity": 51,
                "duration": 0.2431818,
                "tempo": 120.0
            },
            {
                "start_time": 5.4522727,
                "end_time": 5.6613636,
                "pitch": 72,
                "velocity": 51,
                "duration": 0.2090909,
                "tempo": 120.0
            },
            {
                "start_time": 5.6772727,
                "end_time": 5.8863636,
                "pitch": 62,
                "velocity": 51,
                "duration": 0.2090909,
                "tempo": 120.0
            },
            {
                "start_time": 5.9181818,
                "end_time": 6.1272727,
                "pitch": 67,
                "velocity": 51,
                "duration": 0.2090909,
                "tempo": 120.0
            },
            {
                "start_time": 6.1772727,
                "end_time": 6.4022727,
                "pitch": 69,
                "velocity": 51,
                "duration": 0.225,
                "tempo": 120.0
            },
            {
                "start_time": 6.4022727,
                "end_time": 6.6272727,
                "pitch": 62,
                "velocity": 51,
                "duration": 0.225,
                "tempo": 120.0
            },
            {
                "start_time": 6.6613636,
                "end_time": 6.8681818,
                "pitch": 72,
                "velocity": 51,
                "duration": 0.2068182,
                "tempo": 120.0
            },
            {
                "start_time": 6.8681818,
                "end_time": 7.0772727,
                "pitch": 71,
                "velocity": 51,
                "duration": 0.2090909,
                "tempo": 120.0
            },
            {
                "start_time": 7.1090909,
                "end_time": 7.3318182,
                "pitch": 72,
                "velocity": 51,
                "duration": 0.2227273,
                "tempo": 120.0
            },
            {
                "start_time": 7.3818182,
                "end_time": 7.6045455,
                "pitch": 74,
                "velocity": 51,
                "duration": 0.2227273,
                "tempo": 120.0
            },
            {
                "start_time": 7.6045455,
                "end_time": 7.8227273,
                "pitch": 58,
                "velocity": 51,
                "duration": 0.2181818,
                "tempo": 120.0
            },
            {
                "start_time": 7.8386364,
                "end_time": 8.075,
                "pitch": 63,
                "velocity": 51,
                "duration": 0.2363636,
                "tempo": 120.0
            },
            {
                "start_time": 8.0909091,
                "end_time": 8.2931818,
                "pitch": 65,
                "velocity": 51,
                "duration": 0.2022727,
                "tempo": 120.0
            },
            {
                "start_time": 8.3090909,
                "end_time": 8.5454545,
                "pitch": 58,
                "velocity": 51,
                "duration": 0.2363636,
                "tempo": 120.0
            },
            {
                "start_time": 8.5795455,
                "end_time": 8.8113636,
                "pitch": 68,
                "velocity": 51,
                "duration": 0.2318182,
                "tempo": 120.0
            },
            {
                "start_time": 8.8295455,
                "end_time": 9.0295455,
                "pitch": 67,
                "velocity": 51,
                "duration": 0.2,
                "tempo": 120.0
            },
            {
                "start_time": 9.0454545,
                "end_time": 9.2795455,
                "pitch": 68,
                "velocity": 51,
                "duration": 0.2340909,
                "tempo": 120.0
            },
            {
                "start_time": 9.2977273,
                "end_time": 9.5,
                "pitch": 70,
                "velocity": 51,
                "duration": 0.2022727,
                "tempo": 120.0
            },
            {
                "start_time": 9.5159091,
                "end_time": 9.7295455,
                "pitch": 64,
                "velocity": 51,
                "duration": 0.2136364,
                "tempo": 120.0
            },
            {
                "start_time": 9.7772727,
                "end_time": 9.9909091,
                "pitch": 69,
                "velocity": 51,
                "duration": 0.2136364,
                "tempo": 120.0
            },
            {
                "start_time": 10.025,
                "end_time": 10.25,
                "pitch": 71,
                "velocity": 51,
                "duration": 0.225,
                "tempo": 120.0
            },
            {
                "start_time": 10.25,
                "end_time": 10.4772727,
                "pitch": 64,
                "velocity": 51,
                "duration": 0.2272727,
                "tempo": 120.0
            },
            {
                "start_time": 10.5090909,
                "end_time": 10.7181818,
                "pitch": 74,
                "velocity": 51,
                "duration": 0.2090909,
                "tempo": 120.0
            },
            {
                "start_time": 10.7181818,
                "end_time": 10.9272727,
                "pitch": 73,
                "velocity": 51,
                "duration": 0.2090909,
                "tempo": 120.0
            },
            {
                "start_time": 10.975,
                "end_time": 11.2,
                "pitch": 74,
                "velocity": 51,
                "duration": 0.225,
                "tempo": 120.0
            },
            {
                "start_time": 11.2340909,
                "end_time": 11.4613636,
                "pitch": 76,
                "velocity": 51,
                "duration": 0.2272727,
                "tempo": 120.0
            },
            {
                "start_time": 11.4613636,
                "end_time": 11.6727273,
                "pitch": 66,
                "velocity": 51,
                "duration": 0.2113636,
                "tempo": 120.0
            },
            {
                "start_time": 11.6909091,
                "end_time": 11.9204545,
                "pitch": 71,
                "velocity": 51,
                "duration": 0.2295455,
                "tempo": 120.0
            },
            {
                "start_time": 11.9363636,
                "end_time": 12.1386364,
                "pitch": 73,
                "velocity": 51,
                "duration": 0.2022727,
                "tempo": 120.0
            },
            {
                "start_time": 12.2045455,
                "end_time": 12.4068182,
                "pitch": 66,
                "velocity": 51,
                "duration": 0.2022727,
                "tempo": 120.0
            },
            {
                "start_time": 12.4227273,
                "end_time": 12.6522727,
                "pitch": 76,
                "velocity": 51,
                "duration": 0.2295455,
                "tempo": 120.0
            },
            {
                "start_time": 12.6681818,
                "end_time": 12.8659091,
                "pitch": 75,
                "velocity": 51,
                "duration": 0.1977273,
                "tempo": 120.0
            },
            {
                "start_time": 12.8818182,
                "end_time": 13.1181818,
                "pitch": 76,
                "velocity": 51,
                "duration": 0.2363636,
                "tempo": 120.0
            },
            {
                "start_time": 13.1340909,
                "end_time": 13.3363636,
                "pitch": 78,
                "velocity": 51,
                "duration": 0.2022727,
                "tempo": 120.0
            },
            {
                "start_time": 13.4045455,
                "end_time": 13.6113636,
                "pitch": 68,
                "velocity": 51,
                "duration": 0.2068182,
                "tempo": 120.0
            },
            {
                "start_time": 13.6295455,
                "end_time": 13.8727273,
                "pitch": 73,
                "velocity": 51,
                "duration": 0.2431818,
                "tempo": 120.0
            },
            {
                "start_time": 13.8886364,
                "end_time": 14.0863636,
                "pitch": 75,
                "velocity": 51,
                "duration": 0.1977273,
                "tempo": 120.0
            },
            {
                "start_time": 14.1022727,
                "end_time": 14.3318182,
                "pitch": 68,
                "velocity": 51,
                "duration": 0.2295455,
                "tempo": 120.0
            },
            {
                "start_time": 14.3477273,
                "end_time": 14.5454545,
                "pitch": 78,
                "velocity": 51,
                "duration": 0.1977273,
                "tempo": 120.0
            },
            {
                "start_time": 14.6113636,
                "end_time": 14.8068182,
                "pitch": 77,
                "velocity": 51,
                "duration": 0.1954545,
                "tempo": 120.0
            },
            {
                "start_time": 14.825,
                "end_time": 15.0659091,
                "pitch": 78,
                "velocity": 51,
                "duration": 0.2409091,
                "tempo": 120.0
            },
            {
                "start_time": 15.0840909,
                "end_time": 15.2931818,
                "pitch": 80,
                "velocity": 51,
                "duration": 0.2090909,
                "tempo": 120.0
            }
        ],
        "Trumpet": [
            {
                "start_time": 0.0,
                "end_time": 0.0545455,
                "pitch": 76,
                "velocity": 32,
                "duration": 0.0545455,
                "tempo": 120.0
            },
            {
                "start_time": 0.0704545,
                "end_time": 0.2363636,
                "pitch": 67,
                "velocity": 32,
                "duration": 0.1659091,
                "tempo": 120.0
            },
            {
                "start_time": 0.25,
                "end_time": 0.4568182,
                "pitch": 72,
                "velocity": 32,
                "duration": 0.2068182,
                "tempo": 120.0
            },
            {
                "start_time": 0.475,
                "end_time": 0.6840909,
                "pitch": 74,
                "velocity": 32,
                "duration": 0.2090909,
                "tempo": 120.0
            },
            {
                "start_time": 0.7,
                "end_time": 0.9386364,
                "pitch": 67,
                "velocity": 32,
                "duration": 0.2386364,
                "tempo": 120.0
            },
            {
                "start_time": 0.9704545,
                "end_time": 1.1954545,
                "pitch": 77,
                "velocity": 32,
                "duration": 0.225,
                "tempo": 120.0
            },
            {
                "start_time": 1.2113636,
                "end_time": 1.4068182,
                "pitch": 76,
                "velocity": 32,
                "duration": 0.1954545,
                "tempo": 120.0
            },
            {
                "start_time": 1.425,
                "end_time": 1.6681818,
                "pitch": 77,
                "velocity": 32,
                "duration": 0.2431818,
                "tempo": 120.0
            },
            {
                "start_time": 1.6840909,
                "end_time": 1.9045455,
                "pitch": 79,
                "velocity": 32,
                "duration": 0.2204545,
                "tempo": 120.0
            },
            {
                "start_time": 1.9045455,
                "end_time": 2.1136364,
                "pitch": 69,
                "velocity": 32,
                "duration": 0.2090909,
                "tempo": 120.0
            },
            {
                "start_time": 2.1613636,
                "end_time": 2.3727273,
                "pitch": 74,
                "velocity": 32,
                "duration": 0.2113636,
                "tempo": 120.0
            },
            {
                "start_time": 2.4068182,
                "end_time": 2.6295455,
                "pitch": 76,
                "velocity": 32,
                "duration": 0.2227273,
                "tempo": 120.0
            },
            {
                "start_time": 2.6295455,
                "end_time": 2.85,
                "pitch": 69,
                "velocity": 32,
                "duration": 0.2204545,
                "tempo": 120.0
            },
            {
                "start_time": 2.8818182,
                "end_time": 3.0954545,
                "pitch": 79,
                "velocity": 32,
                "duration": 0.2136364,
                "tempo": 120.0
            },
            {
                "start_time": 3.0954545,
                "end_time": 3.3090909,
                "pitch": 78,
                "velocity": 32,
                "duration": 0.2136364,
                "tempo": 120.0
            },
            {
                "start_time": 3.3613636,
                "end_time": 3.5886364,
                "pitch": 79,
                "velocity": 32,
                "duration": 0.2272727,
                "tempo": 120.0
            },
            {
                "start_time": 3.6227273,
                "end_time": 3.8454545,
                "pitch": 81,
                "velocity": 32,
                "duration": 0.2227273,
                "tempo": 120.0
            },
            {
                "start_time": 3.8613636,
                "end_time": 4.0613636,
                "pitch": 67,
                "velocity": 32,
                "duration": 0.2,
                "tempo": 120.0
            },
            {
                "start_time": 4.0795455,
                "end_time": 4.3113636,
                "pitch": 72,
                "velocity": 32,
                "duration": 0.2318182,
                "tempo": 120.0
            },
            {
                "start_time": 4.3295455,
                "end_time": 4.5295455,
                "pitch": 74,
                "velocity": 32,
                "duration": 0.2,
                "tempo": 120.0
            },
            {
                "start_time": 4.5954545,
                "end_time": 4.7931818,
                "pitch": 67,
                "velocity": 32,
                "duration": 0.1977273,
                "tempo": 120.0
            },
            {
                "start_time": 4.8090909,
                "end_time": 5.0318182,
                "pitch": 77,
                "velocity": 32,
                "duration": 0.2227273,
                "tempo": 120.0
            },
            {
                "start_time": 5.0477273,
                "end_time": 5.2454545,
                "pitch": 76,
                "velocity": 32,
                "duration": 0.1977273,
                "tempo": 120.0
            },
            {
                "start_time": 5.2613636,
                "end_time": 5.5045455,
                "pitch": 77,
                "velocity": 32,
                "duration": 0.2431818,
                "tempo": 120.0
            },
            {
                "start_time": 5.5227273,
                "end_time": 5.7431818,
                "pitch": 79,
                "velocity": 32,
                "duration": 0.2204545,
                "tempo": 120.0
            },
            {
                "start_time": 5.7909091,
                "end_time": 5.9977273,
                "pitch": 69,
                "velocity": 32,
                "duration": 0.2068182,
                "tempo": 120.0
            },
            {
                "start_time": 5.9977273,
                "end_time": 6.2113636,
                "pitch": 74,
                "velocity": 32,
                "duration": 0.2136364,
                "tempo": 120.0
            },
            {
                "start_time": 6.2454545,
                "end_time": 6.4727273,
                "pitch": 76,
                "velocity": 32,
                "duration": 0.2272727,
                "tempo": 120.0
            },
            {
                "start_time": 6.4727273,
                "end_time": 6.6931818,
                "pitch": 69,
                "velocity": 32,
                "duration": 0.2204545,
                "tempo": 120.0
            },
            {
                "start_time": 6.725,
                "end_time": 6.9318182,
                "pitch": 79,
                "velocity": 32,
                "duration": 0.2068182,
                "tempo": 120.0
            },
            {
                "start_time": 6.9818182,
                "end_time": 7.1954545,
                "pitch": 78,
                "velocity": 32,
                "duration": 0.2136364,
                "tempo": 120.0
            },
            {
                "start_time": 7.1954545,
                "end_time": 7.4159091,
                "pitch": 79,
                "velocity": 32,
                "duration": 0.2204545,
                "tempo": 120.0
            },
            {
                "start_time": 7.45,
                "end_time": 7.6727273,
                "pitch": 81,
                "velocity": 32,
                "duration": 0.2227273,
                "tempo": 120.0
            },
            {
                "start_time": 7.6886364,
                "end_time": 7.8909091,
                "pitch": 65,
                "velocity": 32,
                "duration": 0.2022727,
                "tempo": 120.0
            },
            {
                "start_time": 7.9068182,
                "end_time": 8.1431818,
                "pitch": 70,
                "velocity": 32,
                "duration": 0.2363636,
                "tempo": 120.0
            },
            {
                "start_time": 8.175,
                "end_time": 8.4113636,
                "pitch": 72,
                "velocity": 32,
                "duration": 0.2363636,
                "tempo": 120.0
            },
            {
                "start_time": 8.4272727,
                "end_time": 8.6295455,
                "pitch": 65,
                "velocity": 32,
                "duration": 0.2022727,
                "tempo": 120.0
            },
            {
                "start_time": 8.6454545,
                "end_time": 8.8795455,
                "pitch": 75,
                "velocity": 32,
                "duration": 0.2340909,
                "tempo": 120.0
            },
            {
                "start_time": 8.8954545,
                "end_time": 9.0954545,
                "pitch": 74,
                "velocity": 32,
                "duration": 0.2,
                "tempo": 120.0
            },
            {
                "start_time": 9.1136364,
                "end_time": 9.3477273,
                "pitch": 75,
                "velocity": 32,
                "duration": 0.2340909,
                "tempo": 120.0
            },
            {
                "start_time": 9.3818182,
                "end_time": 9.5977273,
                "pitch": 77,
                "velocity": 32,
                "duration": 0.2159091,
                "tempo": 120.0
            },
            {
                "start_time": 9.6295455,
                "end_time": 9.8431818,
                "pitch": 71,
                "velocity": 32,
                "duration": 0.2136364,
                "tempo": 120.0
            },
            {
                "start_time": 9.8431818,
                "end_time": 10.0590909,
                "pitch": 76,
                "velocity": 32,
                "duration": 0.2159091,
                "tempo": 120.0
            },
            {
                "start_time": 10.0954545,
                "end_time": 10.3204545,
                "pitch": 78,
                "velocity": 32,
                "duration": 0.225,
                "tempo": 120.0
            },
            {
                "start_time": 10.3204545,
                "end_time": 10.5409091,
                "pitch": 71,
                "velocity": 32,
                "duration": 0.2204545,
                "tempo": 120.0
            },
            {
                "start_time": 10.5886364,
                "end_time": 10.7977273,
                "pitch": 81,
                "velocity": 32,
                "duration": 0.2090909,
                "tempo": 120.0
            },
            {
                "start_time": 10.8295455,
                "end_time": 11.0431818,
                "pitch": 80,
                "velocity": 32,
                "duration": 0.2136364,
                "tempo": 120.0
            },
            {
                "start_time": 11.0431818,
                "end_time": 11.2704545,
                "pitch": 81,
                "velocity": 32,
                "duration": 0.2272727,
                "tempo": 120.0
            },
            {
                "start_time": 11.3045455,
                "end_time": 11.5272727,
                "pitch": 83,
                "velocity": 32,
                "duration": 0.2227273,
                "tempo": 120.0
            },
            {
                "start_time": 11.5431818,
                "end_time": 11.7386364,
                "pitch": 73,
                "velocity": 32,
                "duration": 0.1954545,
                "tempo": 120.0
            },
            {
                "start_time": 11.8045455,
                "end_time": 12.0045455,
                "pitch": 78,
                "velocity": 32,
                "duration": 0.2,
                "tempo": 120.0
            },
            {
                "start_time": 12.0204545,
                "end_time": 12.2545455,
                "pitch": 80,
                "velocity": 32,
                "duration": 0.2340909,
                "tempo": 120.0
            },
            {
                "start_time": 12.2727273,
                "end_time": 12.4727273,
                "pitch": 73,
                "velocity": 32,
                "duration": 0.2,
                "tempo": 120.0
            },
            {
                "start_time": 12.4886364,
                "end_time": 12.7181818,
                "pitch": 83,
                "velocity": 32,
                "duration": 0.2295455,
                "tempo": 120.0
            },
            {
                "start_time": 12.7340909,
                "end_time": 12.9318182,
                "pitch": 82,
                "velocity": 32,
                "duration": 0.1977273,
                "tempo": 120.0
            },
            {
                "start_time": 13.0,
                "end_time": 13.2022727,
                "pitch": 83,
                "velocity": 32,
                "duration": 0.2022727,
                "tempo": 120.0
            },
            {
                "start_time": 13.2181818,
                "end_time": 13.4568182,
                "pitch": 85,
                "velocity": 32,
                "duration": 0.2386364,
                "tempo": 120.0
            },
            {
                "start_time": 13.4727273,
                "end_time": 13.6818182,
                "pitch": 75,
                "velocity": 32,
                "duration": 0.2090909,
                "tempo": 120.0
            },
            {
                "start_time": 13.7,
                "end_time": 13.9386364,
                "pitch": 80,
                "velocity": 32,
                "duration": 0.2386364,
                "tempo": 120.0
            },
            {
                "start_time": 13.9545455,
                "end_time": 14.1522727,
                "pitch": 82,
                "velocity": 32,
                "duration": 0.1977273,
                "tempo": 120.0
            },
            {
                "start_time": 14.2181818,
                "end_time": 14.4136364,
                "pitch": 75,
                "velocity": 32,
                "duration": 0.1954545,
                "tempo": 120.0
            },
            {
                "start_time": 14.4295455,
                "end_time": 14.6590909,
                "pitch": 85,
                "velocity": 32,
                "duration": 0.2295455,
                "tempo": 120.0
            },
            {
                "start_time": 14.6772727,
                "end_time": 14.875,
                "pitch": 84,
                "velocity": 32,
                "duration": 0.1977273,
                "tempo": 120.0
            },
            {
                "start_time": 14.8931818,
                "end_time": 15.1363636,
                "pitch": 85,
                "velocity": 32,
                "duration": 0.2431818,
                "tempo": 120.0
            },
            {
                "start_time": 15.1545455,
                "end_time": 15.4954545,
                "pitch": 87,
                "velocity": 32,
                "duration": 0.3409091,
                "tempo": 120.0
            }
        ]
    }
}