{
    "mood": "sad",
    "instruments": {
        "Acoustic Guitar (nylon)": [
            {
                "start_time": 0.0,
                "end_time": 0.0272727,
                "pitch": 78,
                "velocity": 40,
                "duration": 0.0272727,
                "tempo": 120.0
            },
            {
                "start_time": 0.0568182,
                "end_time": 0.1227273,
                "pitch": 76,
                "velocity": 40,
                "duration": 0.0659091,
                "tempo": 120.0
            },
            {
                "start_time": 0.1386364,
                "end_time": 0.2045455,
                "pitch": 81,
                "velocity": 40,
                "duration": 0.0659091,
                "tempo": 120.0
            },
            {
                "start_time": 0.2227273,
                "end_time": 0.2886364,
                "pitch": 83,
                "velocity": 40,
                "duration": 0.0659091,
                "tempo": 120.0
            },
            {
                "start_time": 0.3227273,
                "end_time": 0.3886364,
                "pitch": 90,
                "velocity": 40,
                "duration": 0.0659091,
                "tempo": 120.0
            },
            {
                "start_time": 0.4068182,
                "end_time": 0.4727273,
                "pitch": 87,
                "velocity": 40,
                "duration": 0.0659091,
                "tempo": 120.0
            },
            {
                "start_time": 0.4909091,
                "end_time": 0.5568182,
                "pitch": 76,
                "velocity": 40,
                "duration": 0.0659091,
                "tempo": 120.0
            },
            {
                "start_time": 0.5909091,
                "end_time": 0.6636364,
                "pitch": 87,
                "velocity": 40,
                "duration": 0.0727273,
                "tempo": 120.0
            },
            {
                "start_time": 0.6795455,
                "end_time": 0.7522727,
                "pitch": 83,
                "velocity": 40,
                "duration": 0.0727273,
                "tempo": 120.0
            },
            {
                "start_time": 0.7681818,
                "end_time": 0.8409091,
                "pitch": 76,
                "velocity": 40,
                "duration": 0.0727273,
                "tempo": 120.0
            },
            {
                "start_time": 0.875,
                "end_time": 0.9454545,
                "pitch": 83,
                "velocity": 40,
                "duration": 0.0704545,
                "tempo": 120.0
            },
            {
                "start_time": 0.9636364,
                "end_time": 1.0340909,
                "pitch": 81,
                "velocity": 40,
                "duration": 0.0704545,
                "tempo": 120.0
            },
            {
                "start_time": 1.0522727,
                "end_time": 1.1204545,
                "pitch": 78,
                "velocity": 40,
                "duration": 0.0681818,
                "tempo": 120.0
            },
            {
                "start_time": 1.1545455,
                "end_time": 1.2204545,
                "pitch": 76,
                "velocity": 40,
                "duration": 0.0659091,
                "tempo": 120.0
            },
            {
                "start_time": 1.2386364,
                "end_time": 1.3045455,
                "pitch": 81,
                "velocity": 40,
                "duration": 0.0659091,
                "tempo": 120.0
            },
            {
                "start_time": 1.3227273,
                "end_time": 1.3886364,
                "pitch": 86,
                "velocity": 40,
                "duration": 0.0659091,
                "tempo": 120.0
            },
            {
                "start_time": 1.4386364,
                "end_time": 1.5068182,
                "pitch": 78,
                "velocity": 40,
                "duration": 0.0681818,
                "tempo": 120.0
            },
            {
                "start_time": 1.5227273,
                "end_time": 1.5909091,
                "pitch": 76,
                "velocity": 40,
                "duration": 0.0681818,
                "tempo": 120.0
            },
            {
                "start_time": 1.6068182,
                "end_time": 1.6727273,
                "pitch": 81,
                "velocity": 40,
                "duration": 0.0659091,
                "tempo": 120.0
            },
            {
                "start_time": 1.7068182,
                "end_time": 1.775,
                "pitch": 83,
                "velocity": 40,
                "duration": 0.0681818,
                "tempo": 120.0
            },
            {
                "start_time": 1.7909091,
                "end_time": 1.8568182,
                "pitch": 90,
                "velocity": 40,
                "duration": 0.0659091,
                "tempo": 120.0
            },
            {
                "start_time": 1.875,
                "end_time": 1.9409091,
                "pitch": 87,
                "velocity": 40,
                "duration": 0.0659091,
                "tempo": 120.0
            },
            {
                "start_time": 1.975,
                "end_time": 2.0431818,
                "pitch": 76,
                "velocity": 40,
                "duration": 0.0681818,
                "tempo": 120.0
            },
            {
                "start_time": 2.0590909,
                "end_time": 2.1295455,
                "pitch": 87,
                "velocity": 40,
                "duration": 0.0704545,
                "tempo": 120.0
            },
            {
                "start_time": 2.1477273,
                "end_time": 2.2181818,
                "pitch": 83,
                "velocity": 40,
                "duration": 0.0704545,
                "tempo": 120.0
            },
            {
                "start_time": 2.2545455,
                "end_time": 2.325,
                "pitch": 76,
                "velocity": 40,
                "duration": 0.0704545,
                "tempo": 120.0
            },
            {
                "start_time": 2.3431818,
                "end_time": 2.4136364,
                "pitch": 83,
                "velocity": 40,
                "duration": 0.0704545,
                "tempo": 120.0
            },
            {
                "start_time": 2.4318182,
                "end_time": 2.5022727,
                "pitch": 81,
                "velocity": 40,
                "duration": 0.0704545,
                "tempo": 120.0
            },
            {
                "start_time": 2.5386364,
                "end_time": 2.6045455,
                "pitch": 78,
                "velocity": 40,
                "duration": 0.0659091,
                "tempo": 120.0
            },
            {
                "start_time": 2.6204545,
                "end_time": 2.6863636,
                "pitch": 76,
                "velocity": 40,
                "duration": 0.0659091,
                "tempo": 120.0
            },
            {
                "start_time": 2.7022727,
                "end_time": 2.7681818,
                "pitch": 81,
                "velocity": 40,
                "duration": 0.0659091,
                "tempo": 120.0
            },
            {
                "start_time": 2.8,
                "end_time": 2.8659091,
                "pitch": 86,
                "velocity": 40,
                "duration": 0.0659091,
                "tempo": 120.0
            },
            {
                "start_time": 2.8818182,
                "end_time": 2.9477273,
                "pitch": 78,
                "velocity": 40,
                "duration": 0.0659091,
                "tempo": 120.0
            },
            {
                "start_time": 2.9636364,
                "end_time": 3.0295455,
                "pitch": 76,
                "velocity": 40,
                "duration": 0.0659091,
                "tempo": 120.0
            },
            {
                "start_time": 3.0636364,
                "end_time": 3.1318182,
                "pitch": 81,
                "velocity": 40,
                "duration": 0.0681818,
                "tempo": 120.0
            },
            {
                "start_time": 3.15,
                "end_time": 3.2159091,
                "pitch": 83,
                "velocity": 40,
                "duration": 0.0659091,
                "tempo": 120.0
            },
            {
                "start_time": 3.2340909,
                "end_time": 3.3022727,
                "pitch": 90,
                "velocity": 40,
                "duration": 0.0681818,
                "tempo": 120.0
            },
            {
                "start_time": 3.3363636,
                "end_time": 3.4045455,
                "pitch": 87,
                "velocity": 40,
                "duration": 0.0681818,
                "tempo": 120.0
            },
            {
                "start_time": 3.4204545,
                "end_time": 3.4886364,
                "pitch": 76,
                "velocity": 40,
                "duration": 0.0681818,
                "tempo": 120.0
            },
            {
                "start_time": 3.5068182,
                "end_time": 3.575,
                "pitch": 87,
                "velocity": 40,
                "duration": 0.0681818,
                "tempo": 120.0
            },
            {
                "start_time": 3.6113636,
                "end_time": 3.6818182,
                "pitch": 83,
                "velocity": 40,
                "duration": 0.0704545,
                "tempo": 120.0
            },
            {
                "start_time": 3.6977273,
                "end_time": 3.7681818,
                "pitch": 76,
                "velocity": 40,
                "duration": 0.0704545,
                "tempo": 120.0
            },
            {
                "start_time": 3.7863636,
                "end_time": 3.8545455,
                "pitch": 83,
                "velocity": 40,
                "duration": 0.0681818,
                "tempo": 120.0
            },
            {
                "start_time": 3.8909091,
                "end_time": 3.9590909,
                "pitch": 81,
                "velocity": 40,
                "duration": 0.0681818,
                "tempo": 120.0
            },
            {
                "start_time": 3.9772727,
                "end_time": 4.0409091,
                "pitch": 78,
                "velocity": 40,
                "duration": 0.0636364,
                "tempo": 120.0
            },
            {
                "start_time": 4.0568182,
                "end_time": 4.1204545,
                "pitch": 76,
                "velocity": 40,
                "duration": 0.0636364,
                "tempo": 120.0
            },
            {
                "start_time": 4.1522727,
                "end_time": 4.2181818,
                "pitch": 81,
                "velocity": 40,
                "duration": 0.0659091,
                "tempo": 120.0
            },
            {
                "start_time": 4.2340909,
                "end_time": 4.2977273,
                "pitch": 86,
                "velocity": 40,
                "duration": 0.0636364,
                "tempo": 120.0
            },
            {
                "start_time": 4.3136364,
                "end_time": 4.3772727,
                "pitch": 78,
                "velocity": 40,
                "duration": 0.0636364,
                "tempo": 120.0
            },
            {
                "start_time": 4.4090909,
                "end_time": 4.475,
                "pitch": 76,
                "velocity": 40,
                "duration": 0.0659091,
                "tempo": 120.0
            },
            {
                "start_time": 4.4909091,
                "end_time": 4.5590909,
                "pitch": 81,
                "velocity": 40,
                "duration": 0.0681818,
                "tempo": 120.0
            },
            {
                "start_time": 4.575,
                "end_time": 4.6431818,
                "pitch": 83,
                "velocity": 40,
                "duration": 0.0681818,
                "tempo": 120.0
            },
            {
                "start_time": 4.6772727,
                "end_time": 4.7431818,
                "pitch": 90,
                "velocity": 40,
                "duration": 0.0659091,
                "tempo": 120.0
            },
            {
                "start_time": 4.7590909,
                "end_time": 4.8272727,
                "pitch": 87,
                "velocity": 40,
                "duration": 0.0681818,
                "tempo": 120.0
            },
            {
                "start_time": 4.8431818,
                "end_time": 4.9113636,
                "pitch": 76,
                "velocity": 40,
                "duration": 0.0681818,
                "tempo": 120.0
            },
            {
                "start_time": 4.9454545,
                "end_time": 5.0159091,
                "pitch": 87,
                "velocity": 40,
                "duration": 0.0704545,
                "tempo": 120.0
            },
            {
                "start_time": 5.0318182,
                "end_time": 5.1022727,
                "pitch": 83,
                "velocity": 40,
                "duration": 0.0704545,
                "tempo": 120.0
            },
            {
                "start_time": 5.1204545,
                "end_time": 5.1886364,
                "pitch": 76,
                "velocity": 40,
                "duration": 0.0681818,
                "tempo": 120.0
            },
            {
                "start_time": 5.225,
                "end_time": 5.2931818,
                "pitch": 83,
                "velocity": 40,
                "duration": 0.0681818,
                "tempo": 120.0
            },
            {
                "start_time": 5.3113636,
                "end_time": 5.3818182,
                "pitch": 81,
                "velocity": 40,
                "duration": 0.0704545,
                "tempo": 120.0
            },
            {
                "start_time": 5.3977273,
                "end_time": 5.4613636,
                "pitch": 78,
                "velocity": 40,
                "duration": 0.0636364,
                "tempo": 120.0
            },
            {
                "start_time": 5.4931818,
                "end_time": 5.5568182,
                "pitch": 76,
                "velocity": 40,
                "duration": 0.0636364,
                "tempo": 120.0
            },
            {
                "start_time": 5.5727273,
                "end_time": 5.6386364,
                "pitch": 81,
                "velocity": 40,
                "duration": 0.0659091,
                "tempo": 120.0
            },
            {
                "start_time": 5.6545455,
                "end_time": 5.7181818,
                "pitch": 86,
                "velocity": 40,
                "duration": 0.0636364,
                "tempo": 120.0
            },
            {
                "start_time": 5.75,
                "end_time": 5.8136364,
                "pitch": 78,
                "velocity": 40,
                "duration": 0.0636364,
                "tempo": 120.0
            },
            {
                "start_time": 5.8295455,
                "end_time": 5.8977273,
                "pitch": 76,
                "velocity": 40,
                "duration": 0.0681818,
                "tempo": 120.0
            },
            {
                "start_time": 5.9136364,
                "end_time": 5.9818182,
                "pitch": 81,
                "velocity": 40,
                "duration": 0.0681818,
                "tempo": 120.0
            },
            {
                "start_time": 6.0159091,
                "end_time": 6.0863636,
                "pitch": 83,
                "velocity": 40,
                "duration": 0.0704545,
                "tempo": 120.0
            },
            {
                "start_time": 6.1022727,
                "end_time": 6.1704545,
                "pitch": 90,
                "velocity": 40,
                "duration": 0.0681818,
                "tempo": 120.0
            },
            {
                "start_time": 6.1886364,
                "end_time": 6.2568182,
                "pitch": 87,
                "velocity": 40,
                "duration": 0.0681818,
                "tempo": 120.0
            },
            {
                "start_time": 6.2909091,
                "end_time": 6.3590909,
                "pitch": 76,
                "velocity": 40,
                "duration": 0.0681818,
                "tempo": 120.0
            },
            {
                "start_time": 6.3772727,
                "end_time": 6.4477273,
                "pitch": 87,
                "velocity": 40,
                "duration": 0.0704545,
                "tempo": 120.0
            },
            {
                "start_time": 6.4659091,
                "end_time": 6.5363636,
                "pitch": 83,
                "velocity": 40,
                "duration": 0.0704545,
                "tempo": 120.0
            },
            {
                "start_time": 6.5727273,
                "end_time": 6.6431818,
                "pitch": 76,
                "velocity": 40,
                "duration": 0.0704545,
                "tempo": 120.0
            },
            {
                "start_time": 6.6613636,
                "end_time": 6.7318182,
                "pitch": 83,
                "velocity": 40,
                "duration": 0.0704545,
                "tempo": 120.0
            },
            {
                "start_time": 6.75,
                "end_time": 6.8204545,
                "pitch": 81,
                "velocity": 40,
                "duration": 0.0704545,
                "tempo": 120.0
            },
            {
                "start_time": 6.8568182,
                "end_time": 6.9227273,
                "pitch": 78,
                "velocity": 40,
                "duration": 0.0659091,
                "tempo": 120.0
            },
            {
                "start_time": 6.9386364,
                "end_time": 7.0045455,
                "pitch": 76,
                "velocity": 40,
                "duration": 0.0659091,
                "tempo": 120.0
            },
            {
                "start_time": 7.0204545,
                "end_time": 7.0863636,
                "pitch": 81,
                "velocity": 40,
                "duration": 0.0659091,
                "tempo": 120.0
            },
            {
                "start_time": 7.1181818,
                "end_time": 7.1840909,
                "pitch": 86,
                "velocity": 40,
                "duration": 0.0659091,
                "tempo": 120.0
            },
            {
                "start_time": 7.2,
                "end_time": 7.2659091,
                "pitch": 78,
                "velocity": 40,
                "duration": 0.0659091,
                "tempo": 120.0
            },
            {
                "start_time": 7.2818182,
                "end_time": 7.3477273,
                "pitch": 76,
                "velocity": 40,
                "duration": 0.0659091,
                "tempo": 120.0
            },
            {
                "start_time": 7.3818182,
                "end_time": 7.4522727,
                "pitch": 81,
                "velocity": 40,
                "duration": 0.0704545,
                "tempo": 120.0
            },
            {
                "start_time": 7.4704545,
                "end_time": 7.5386364,
                "pitch": 83,
                "velocity": 40,
                "duration": 0.0681818,
                "tempo": 120.0
            },
            {
                "start_time": 7.5568182,
                "end_time": 7.6272727,
                "pitch": 90,
                "velocity": 40,
                "duration": 0.0704545,
                "tempo": 120.0
            },
            {
                "start_time": 7.6613636,
                "end_time": 7.7318182,
                "pitch": 87,
                "velocity": 40,
                "duration": 0.0704545,
                "tempo": 120.0
            },
            {
                "start_time": 7.7477273,
                "end_time": 7.8181818,
                "pitch": 76,
                "velocity": 40,
                "duration": 0.0704545,
                "tempo": 120.0
            },
            {
                "start_time": 7.8363636,
                "end_time": 7.9045455,
                "pitch": 87,
                "velocity": 40,
                "duration": 0.0681818,
                "tempo": 120.0
            },
            {
                "start_time": 7.9386364,
                "end_time": 8.0068182,
                "pitch": 83,
                "velocity": 40,
                "duration": 0.0681818,
                "tempo": 120.0
            },
            {
                "start_time": 8.0227273,
                "end_time": 8.0909091,
                "pitch": 76,
                "velocity": 40,
                "duration": 0.0681818,
                "tempo": 120.0
            },
            {
                "start_time": 8.1090909,
                "end_time": 8.1772727,
                "pitch": 83,
                "velocity": 40,
                "duration": 0.0681818,
                "tempo": 120.0
            },
            {
                "start_time": 8.2113636,
                "end_time": 8.2795455,
                "pitch": 81,
                "velocity": 40,
                "duration": 0.0681818,
                "tempo": 120.0
            },
            {
                "start_time": 8.2954545,
                "end_time": 8.3590909,
                "pitch": 78,
                "velocity": 40,
                "duration": 0.0636364,
                "tempo": 120.0
            },
            {
                "start_time": 8.375,
                "end_time": 8.4386364,
                "pitch": 76,
                "velocity": 40,
                "duration": 0.0636364,
                "tempo": 120.0
            },
            {
                "start_time": 8.4727273,
                "end_time": 8.5363636,
                "pitch": 81,
                "velocity": 40,
                "duration": 0.0636364,
                "tempo": 120.0
            },
            {
                "start_time": 8.5522727,
                "end_time": 8.6159091,
                "pitch": 86,
                "velocity": 40,
                "duration": 0.0636364,
                "tempo": 120.0
            },
            {
                "start_time": 8.6318182,
                "end_time": 8.6954545,
                "pitch": 78,
                "velocity": 40,
                "duration": 0.0636364,
                "tempo": 120.0
            },
            {
                "start_time": 8.7272727,
                "end_time": 8.7931818,
                "pitch": 76,
                "velocity": 40,
                "duration": 0.0659091,
                "tempo": 120.0
            },
            {
                "start_time": 8.8113636,
                "end_time": 8.8772727,
                "pitch": 81,
                "velocity": 40,
                "duration": 0.0659091,
                "tempo": 120.0
            },
            {
                "start_time": 8.8931818,
                "end_time": 8.9613636,
                "pitch": 83,
                "velocity": 40,
                "duration": 0.0681818,
                "tempo": 120.0
            },
            {
                "start_time": 8.9954545,
                "end_time": 9.0613636,
                "pitch": 90,
                "velocity": 40,
                "duration": 0.0659091,
                "tempo": 120.0
            },
            {
                "start_time": 9.0772727,
                "end_time": 9.1454545,
                "pitch": 87,
                "velocity": 40,
                "duration": 0.0681818,
                "tempo": 120.0
            },
            {
                "start_time": 9.1613636,
                "end_time": 9.2295455,
                "pitch": 76,
                "velocity": 40,
                "duration": 0.0681818,
                "tempo": 120.0
            },
            {
                "start_time": 9.2636364,
                "end_time": 9.3340909,
                "pitch": 87,
                "velocity": 40,
                "duration": 0.0704545,
                "tempo": 120.0
            },
            {
                "start_time": 9.35,
                "end_time": 9.4204545,
                "pitch": 83,
                "velocity": 40,
                "duration": 0.0704545,
                "tempo": 120.0
            },
            {
                "start_time": 9.4386364,
                "end_time": 9.5068182,
                "pitch": 76,
                "velocity": 40,
                "duration": 0.0681818,
                "tempo": 120.0
            },
            {
                "start_time": 9.5431818,
                "end_time": 9.6113636,
                "pitch": 83,
                "velocity": 40,
                "duration": 0.0681818,
                "tempo": 120.0
            },
            {
                "start_time": 9.6295455,
                "end_time": 9.7,
                "pitch": 81,
                "velocity": 40,
                "duration": 0.0704545,
                "tempo": 120.0
            },
            {
                "start_time": 9.7159091,
                "end_time": 9.7795455,
                "pitch": 78,
                "velocity": 40,
                "duration": 0.0636364,
                "tempo": 120.0
            },
            {
                "start_time": 9.8113636,
                "end_time": 9.8772727,
                "pitch": 76,
                "velocity": 40,
                "duration": 0.0659091,
                "tempo": 120.0
            },
            {
                "start_time": 9.8931818,
                "end_time": 9.9568182,
                "pitch": 81,
                "velocity": 40,
                "duration": 0.0636364,
                "tempo": 120.0
            },
            {
                "start_time": 9.9727273,
                "end_time": 10.0363636,
                "pitch": 86,
                "velocity": 40,
                "duration": 0.0636364,
                "tempo": 120.0
            },
            {
                "start_time": 10.0681818,
                "end_time": 10.1318182,
                "pitch": 78,
                "velocity": 40,
                "duration": 0.0636364,
                "tempo": 120.0
            },
            {
                "start_time": 10.1477273,
                "end_time": 10.2136364,
                "pitch": 76,
                "velocity": 40,
                "duration": 0.0659091,
                "tempo": 120.0
            },
            {
                "start_time": 10.2318182,
                "end_time": 10.2977273,
                "pitch": 81,
                "velocity": 40,
                "duration": 0.0659091,
                "tempo": 120.0
            },
            {
                "start_time": 10.3318182,
                "end_time": 10.4,
                "pitch": 83,
                "velocity": 40,
                "duration": 0.0681818,
                "tempo": 120.0
            },
            {
                "start_time": 10.4159091,
                "end_time": 10.4818182,
                "pitch": 90,
                "velocity": 40,
                "duration": 0.0659091,
                "tempo": 120.0
            },
            {
                "start_time": 10.5,
                "end_time": 10.5659091,
                "pitch": 87,
                "velocity": 40,
                "duration": 0.0659091,
                "tempo": 120.0
            },
            {
                "start_time": 10.6,
                "end_time": 10.6659091,
                "pitch": 76,
                "velocity": 40,
                "duration": 0.0659091,
                "tempo": 120.0
            },
            {
                "start_time": 10.6840909,
                "end_time": 10.7545455,
                "pitch": 87,
                "velocity": 40,
                "duration": 0.0704545,
                "tempo": 120.0
            },
            {
                "start_time": 10.7727273,
                "end_time": 10.8431818,
                "pitch": 83,
                "velocity": 40,
                "duration": 0.0704545,
                "tempo": 120.0
            },
            {
                "start_time": 10.8795455,
                "end_time": 10.95,
                "pitch": 76,
                "velocity": 40,
                "duration": 0.0704545,
                "tempo": 120.0
            },
            {
                "start_time": 10.9681818,
                "end_time": 11.0386364,
                "pitch": 83,
                "velocity": 40,
                "duration": 0.0704545,
                "tempo": 120.0
            },
            {
                "start_time": 11.0568182,
                "end_time": 11.1272727,
                "pitch": 81,
                "velocity": 40,
                "duration": 0.0704545,
                "tempo": 120.0
            },
            {
                "start_time": 11.1636364,
                "end_time": 11.5159091,
                "pitch": 78,
                "velocity": 40,
                "duration": 0.3522727,
                "tempo": 120.0
            },
            {
                "start_time": 11.5159091,
                "end_time": 12.2181818,
                "pitch": 67,
                "velocity": 40,
                "duration": 0.7022727,
                "tempo": 120.0
            }
        ],
        "Acoustic Bass": [
            {
                "start_time": 0.0,
                "end_time": 0.0272727,
                "pitch": 45,
                "velocity": 64,
                "duration": 0.0272727,
                "tempo": 120.0
            },
            {
                "start_time": 0.0568182,
                "end_time": 1.3045455,
                "pitch": 45,
                "velocity": 64,
                "duration": 1.2477273,
                "tempo": 120.0
            },
            {
                "start_time": 1.3227273,
                "end_time": 2.8659091,
                "pitch": 45,
                "velocity": 64,
                "duration": 1.5431818,
                "tempo": 120.0
            },
            {
                "start_time": 2.8818182,
                "end_time": 2.9477273,
                "pitch": 47,
                "velocity": 64,
                "duration": 0.0659091,
                "tempo": 120.0
            },
            {
                "start_time": 2.9636364,
                "end_time": 4.2181818,
                "pitch": 47,
                "velocity": 64,
                "duration": 1.2545455,
                "tempo": 120.0
            },
            {
                "start_time": 4.2340909,
                "end_time": 5.7181818,
                "pitch": 47,
                "velocity": 64,
                "duration": 1.4840909,
                "tempo": 120.0
            },
            {
                "start_time": 5.75,
                "end_time": 7.0863636,
                "pitch": 47,
                "velocity": 64,
                "duration": 1.3363636,
                "tempo": 120.0
            },
            {
                "start_time": 7.1181818,
                "end_time": 8.6159091,
                "pitch": 47,
                "velocity": 64,
                "duration": 1.4977273,
                "tempo": 120.0
            },
            {
                "start_time": 8.6318182,
                "end_time": 9.9568182,
                "pitch": 49,
                "velocity": 64,
                "duration": 1.325,
                "tempo": 120.0
            },
            {
                "start_time": 9.9727273,
                "end_time": 12.2181818,
                "pitch": 49,
                "velocity": 64,
                "duration": 2.2454545,
                "tempo": 120.0
            }
        ],
        "Trumpet": [
            {
                "start_time": 0.0,
                "end_time": 1.2204545,
                "pitch": 54,
                "velocity": 40,
                "duration": 1.2204545,
                "tempo": 120.0
            },
            {
                "start_time": 1.2386364,
                "end_time": 1.3545455,
                "pitch": 54,
                "velocity": 40,
                "duration": 0.1159091,
                "tempo": 120.0
            },
            {
                "start_time": 1.4386364,
                "end_time": 2.8659091,
                "pitch": 54,
                "velocity": 40,
                "duration": 1.4272727,
                "tempo": 120.0
            },
            {
                "start_time": 2.8818182,
                "end_time": 4.1204545,
                "pitch": 56,
                "velocity": 40,
                "duration": 1.2386364,
                "tempo": 120.0
            },
            {
                "start_time": 4.1522727,
                "end_time": 4.2659091,
                "pitch": 56,
                "velocity": 40,
                "duration": 0.1136364,
                "tempo": 120.0
            },
            {
                "start_time": 4.3136364,
                "end_time": 5.7181818,
                "pitch": 56,
                "velocity": 40,
                "duration": 1.4045455,
                "tempo": 120.0
            },
            {
                "start_time": 5.75,
                "end_time": 7.0045455,
                "pitch": 57,
                "velocity": 40,
                "duration": 1.2545455,
                "tempo": 120.0
            },
            {
                "start_time": 7.0204545,
                "end_time": 7.1340909,
                "pitch": 57,
                "velocity": 40,
                "duration": 0.1136364,
                "tempo": 120.0
            },
            {
                "start_time": 7.2,
                "end_time": 8.6159091,
                "pitch": 57,
                "velocity": 40,
                "duration": 1.4159091,
                "tempo": 120.0
            },
            {
                "start_time": 8.6318182,
                "end_time": 10.0363636,
                "pitch": 59,
                "velocity": 40,
                "duration": 1.4045455,
                "tempo": 120.0
            }
        ],
        "Lead 2 (sawtooth)": [
            {
                "start_time": 10.4159091,
                "end_time": 10.7545455,
                "pitch": 66,
                "velocity": 64,
                "duration": 0.3386364,
                "tempo": 120.0
            },
            {
                "start_time": 10.7727273,
                "end_time": 11.1272727,
                "pitch": 71,
                "velocity": 64,
                "duration": 0.3545455,
                "tempo": 120.0
            },
            {
                "start_time": 11.1636364,
                "end_time": 12.2181818,
                "pitch": 78,
                "velocity": 64,
                "duration": 1.0545455,
                "tempo": 120.0
            }
        ]
    }
}