{
    "track_id": "09 Neargead Castle_4",
    "mood": "sad",
    "instruments": {
        "Lead 1 (square)": [
            {
                "pitch": 0,
                "velocity": 0,
                "duration": 9.6477,
                "tempo": 0
            },
            {
                "pitch": 58,
                "velocity": 5,
                "duration": 1.2477,
                "tempo": 120.0
            },
            {
                "pitch": 0,
                "velocity": 0,
                "duration": 0.0614,
                "tempo": 0
            },
            {
                "pitch": 59,
                "velocity": 5,
                "duration": 0.5977,
                "tempo": 120.0
            },
            {
                "pitch": 0,
                "velocity": 0,
                "duration": 0.0636,
                "tempo": 0
            },
            {
                "pitch": 52,
                "velocity": 5,
                "duration": 3.1932,
                "tempo": 120.0
            },
            {
                "pitch": 0,
                "velocity": 0,
                "duration": 0.0614,
                "tempo": 0
            },
            {
                "pitch": 64,
                "velocity": 5,
                "duration": 0.5932,
                "tempo": 120.0
            },
            {
                "pitch": 0,
                "velocity": 0,
                "duration": 0.0636,
                "tempo": 0
            },
            {
                "pitch": 62,
                "velocity": 5,
                "duration": 0.5909,
                "tempo": 120.0
            },
            {
                "pitch": 0,
                "velocity": 0,
                "duration": 0.0636,
                "tempo": 0
            },
            {
                "pitch": 55,
                "velocity": 5,
                "duration": 3.8523,
                "tempo": 120.0
            },
            {
                "pitch": 64,
                "velocity": 5,
                "duration": 5.1659,
                "tempo": 120.0
            },
            {
                "pitch": 64,
                "velocity": 5,
                "duration": 0.6,
                "tempo": 120.0
            },
            {
                "pitch": 0,
                "velocity": 0,
                "duration": 0.0614,
                "tempo": 0
            },
            {
                "pitch": 59,
                "velocity": 5,
                "duration": 3.8318,
                "tempo": 120.0
            },
            {
                "pitch": 0,
                "velocity": 0,
                "duration": 5.9341,
                "tempo": 0
            },
            {
                "pitch": 57,
                "velocity": 5,
                "duration": 0.5864,
                "tempo": 120.0
            },
            {
                "pitch": 0,
                "velocity": 0,
                "duration": 0.0614,
                "tempo": 0
            },
            {
                "pitch": 59,
                "velocity": 5,
                "duration": 0.6,
                "tempo": 120.0
            },
            {
                "pitch": 0,
                "velocity": 0,
                "duration": 0.0614,
                "tempo": 0
            },
            {
                "pitch": 52,
                "velocity": 5,
                "duration": 3.2045,
                "tempo": 120.0
            },
            {
                "pitch": 0,
                "velocity": 0,
                "duration": 0.0591,
                "tempo": 0
            },
            {
                "pitch": 64,
                "velocity": 5,
                "duration": 0.5841,
                "tempo": 120.0
            },
            {
                "pitch": 0,
                "velocity": 0,
                "duration": 0.0591,
                "tempo": 0
            },
            {
                "pitch": 64,
                "velocity": 5,
                "duration": 0.5932,
                "tempo": 120.0
            },
            {
                "pitch": 65,
                "velocity": 5,
                "duration": 15.6364,
                "tempo": 120.0
            },
            {
                "pitch": 59,
                "velocity": 5,
                "duration": 3.8091,
                "tempo": 120.0
            },
            {
                "pitch": 0,
                "velocity": 0,
                "duration": 0.05,
                "tempo": 0
            },
            {
                "pitch": 67,
                "velocity": 5,
                "duration": 0.4818,
                "tempo": 120.0
            },
            {
                "pitch": 0,
                "velocity": 0,
                "duration": 0.5705,
                "tempo": 0
            },
            {
                "pitch": 62,
                "velocity": 5,
                "duration": 0.4705,
                "tempo": 120.0
            },
            {
                "pitch": 0,
                "velocity": 0,
                "duration": 0.0477,
                "tempo": 0
            },
            {
                "pitch": 62,
                "velocity": 5,
                "duration": 2.5409,
                "tempo": 120.0
            },
            {
                "pitch": 0,
                "velocity": 0,
                "duration": 3.6818,
                "tempo": 0
            },
            {
                "pitch": 52,
                "velocity": 5,
                "duration": 0.475,
                "tempo": 120.0
            },
            {
                "pitch": 0,
                "velocity": 0,
                "duration": 0.05,
                "tempo": 0
            },
            {
                "pitch": 52,
                "velocity": 5,
                "duration": 0.475,
                "tempo": 120.0
            },
            {
                "pitch": 0,
                "velocity": 0,
                "duration": 0.05,
                "tempo": 0
            },
            {
                "pitch": 55,
                "velocity": 5,
                "duration": 0.4727,
                "tempo": 120.0
            },
            {
                "pitch": 0,
                "velocity": 0,
                "duration": 0.0477,
                "tempo": 0
            },
            {
                "pitch": 55,
                "velocity": 5,
                "duration": 0.4682,
                "tempo": 120.0
            },
            {
                "pitch": 0,
                "velocity": 0,
                "duration": 0.0477,
                "tempo": 0
            },
            {
                "pitch": 57,
                "velocity": 5,
                "duration": 3.0886,
                "tempo": 120.0
            },
            {
                "pitch": 0,
                "velocity": 0,
                "duration": 0.0614,
                "tempo": 0
            },
            {
                "pitch": 60,
                "velocity": 5,
                "duration": 0.5977,
                "tempo": 120.0
            },
            {
                "pitch": 0,
                "velocity": 0,
                "duration": 0.0614,
                "tempo": 0
            },
            {
                "pitch": 62,
                "velocity": 5,
                "duration": 3.1955,
                "tempo": 120.0
            },
            {
                "pitch": 66,
                "velocity": 5,
                "duration": 17.1318,
                "tempo": 120.0
            },
            {
                "pitch": 66,
                "velocity": 5,
                "duration": 1.2409,
                "tempo": 120.0
            },
            {
                "pitch": 62,
                "velocity": 5,
                "duration": 5.1477,
                "tempo": 120.0
            },
            {
                "pitch": 62,
                "velocity": 5,
                "duration": 3.8432,
                "tempo": 120.0
            },
            {
                "pitch": 0,
                "velocity": 0,
                "duration": 5.6182,
                "tempo": 0
            },
            {
                "pitch": 50,
                "velocity": 5,
                "duration": 0.4818,
                "tempo": 120.0
            },
            {
                "pitch": 0,
                "velocity": 0,
                "duration": 0.0477,
                "tempo": 0
            },
            {
                "pitch": 52,
                "velocity": 5,
                "duration": 0.4659,
                "tempo": 120.0
            },
            {
                "pitch": 67,
                "velocity": 5,
                "duration": 19.9114,
                "tempo": 120.0
            },
            {
                "pitch": 55,
                "velocity": 5,
                "duration": 0.4705,
                "tempo": 120.0
            },
            {
                "pitch": 0,
                "velocity": 0,
                "duration": 0.05,
                "tempo": 0
            },
            {
                "pitch": 55,
                "velocity": 5,
                "duration": 0.475,
                "tempo": 120.0
            },
            {
                "pitch": 0,
                "velocity": 0,
                "duration": 0.05,
                "tempo": 0
            },
            {
                "pitch": 57,
                "velocity": 5,
                "duration": 2.5386,
                "tempo": 120.0
            },
            {
                "pitch": 44,
                "velocity": 5,
                "duration": 19.3591,
                "tempo": 120.0
            },
            {
                "pitch": 60,
                "velocity": 5,
                "duration": 19.175,
                "tempo": 120.0
            },
            {
                "pitch": 60,
                "velocity": 5,
                "duration": 0.475,
                "tempo": 120.0
            },
            {
                "pitch": 0,
                "velocity": 0,
                "duration": 0.05,
                "tempo": 0
            },
            {
                "pitch": 62,
                "velocity": 5,
                "duration": 2.5227,
                "tempo": 120.0
            },
            {
                "pitch": 0,
                "velocity": 0,
                "duration": 0.0523,
                "tempo": 0
            },
            {
                "pitch": 62,
                "velocity": 5,
                "duration": 0.4841,
                "tempo": 120.0
            },
            {
                "pitch": 0,
                "velocity": 0,
                "duration": 0.05,
                "tempo": 0
            },
            {
                "pitch": 64,
                "velocity": 5,
                "duration": 0.2136,
                "tempo": 120.0
            },
            {
                "pitch": 67,
                "velocity": 5,
                "duration": 7.7409,
                "tempo": 120.0
            },
            {
                "pitch": 67,
                "velocity": 5,
                "duration": 0.2091,
                "tempo": 120.0
            },
            {
                "pitch": 0,
                "velocity": 0,
                "duration": 0.0477,
                "tempo": 0
            },
            {
                "pitch": 67,
                "velocity": 5,
                "duration": 0.4705,
                "tempo": 120.0
            },
            {
                "pitch": 0,
                "velocity": 0,
                "duration": 0.05,
                "tempo": 0
            },
            {
                "pitch": 69,
                "velocity": 5,
                "duration": 3.625,
                "tempo": 120.0
            },
            {
                "pitch": 0,
                "velocity": 0,
                "duration": 6.2568,
                "tempo": 0
            },
            {
                "pitch": 52,
                "velocity": 5,
                "duration": 0.4614,
                "tempo": 120.0
            },
            {
                "pitch": 0,
                "velocity": 0,
                "duration": 0.05,
                "tempo": 0
            },
            {
                "pitch": 52,
                "velocity": 5,
                "duration": 0.475,
                "tempo": 120.0
            },
            {
                "pitch": 0,
                "velocity": 0,
                "duration": 0.05,
                "tempo": 0
            },
            {
                "pitch": 55,
                "velocity": 5,
                "duration": 0.4705,
                "tempo": 120.0
            },
            {
                "pitch": 0,
                "velocity": 0,
                "duration": 0.05,
                "tempo": 0
            },
            {
                "pitch": 55,
                "velocity": 5,
                "duration": 0.4659,
                "tempo": 120.0
            },
            {
                "pitch": 60,
                "velocity": 5,
                "duration": 16.5705,
                "tempo": 120.0
            },
            {
                "pitch": 60,
                "velocity": 5,
                "duration": 0.4659,
                "tempo": 120.0
            },
            {
                "pitch": 0,
                "velocity": 0,
                "duration": 0.05,
                "tempo": 0
            },
            {
                "pitch": 64,
                "velocity": 5,
                "duration": 1.5182,
                "tempo": 120.0
            },
            {
                "pitch": 0,
                "velocity": 0,
                "duration": 0.0477,
                "tempo": 0
            },
            {
                "pitch": 64,
                "velocity": 5,
                "duration": 0.9977,
                "tempo": 120.0
            },
            {
                "pitch": 66,
                "velocity": 5,
                "duration": 34.8659,
                "tempo": 120.0
            },
            {
                "pitch": 66,
                "velocity": 5,
                "duration": 0.9682,
                "tempo": 120.0
            },
            {
                "pitch": 0,
                "velocity": 0,
                "duration": 0.05,
                "tempo": 0
            },
            {
                "pitch": 66,
                "velocity": 5,
                "duration": 2.375,
                "tempo": 120.0
            },
            {
                "pitch": 79,
                "velocity": 5,
                "duration": 19.3136,
                "tempo": 120.0
            },
            {
                "pitch": 67,
                "velocity": 5,
                "duration": 18.6318,
                "tempo": 120.0
            },
            {
                "pitch": 67,
                "velocity": 5,
                "duration": 11.0136,
                "tempo": 120.0
            }
        ],
        "Lead 2 (sawtooth)": [
            {
                "pitch": 47,
                "velocity": 10,
                "duration": 9.9159,
                "tempo": 120.0
            },
            {
                "pitch": 0,
                "velocity": 0,
                "duration": 0.0614,
                "tempo": 0
            },
            {
                "pitch": 47,
                "velocity": 10,
                "duration": 3.8523,
                "tempo": 120.0
            },
            {
                "pitch": 0,
                "velocity": 0,
                "duration": 6.5909,
                "tempo": 0
            },
            {
                "pitch": 47,
                "velocity": 10,
                "duration": 3.8477,
                "tempo": 120.0
            },
            {
                "pitch": 53,
                "velocity": 10,
                "duration": 10.4295,
                "tempo": 120.0
            },
            {
                "pitch": 47,
                "velocity": 10,
                "duration": 3.8727,
                "tempo": 120.0
            },
            {
                "pitch": 53,
                "velocity": 10,
                "duration": 10.325,
                "tempo": 120.0
            },
            {
                "pitch": 47,
                "velocity": 10,
                "duration": 3.0455,
                "tempo": 120.0
            },
            {
                "pitch": 53,
                "velocity": 10,
                "duration": 8.3136,
                "tempo": 120.0
            },
            {
                "pitch": 43,
                "velocity": 10,
                "duration": 3.4091,
                "tempo": 120.0
            },
            {
                "pitch": 53,
                "velocity": 10,
                "duration": 9.9886,
                "tempo": 120.0
            },
            {
                "pitch": 47,
                "velocity": 10,
                "duration": 3.8432,
                "tempo": 120.0
            },
            {
                "pitch": 53,
                "velocity": 10,
                "duration": 9.9273,
                "tempo": 120.0
            },
            {
                "pitch": 43,
                "velocity": 10,
                "duration": 3.0545,
                "tempo": 120.0
            },
            {
                "pitch": 53,
                "velocity": 10,
                "duration": 8.3045,
                "tempo": 120.0
            },
            {
                "pitch": 47,
                "velocity": 10,
                "duration": 3.0455,
                "tempo": 120.0
            },
            {
                "pitch": 53,
                "velocity": 10,
                "duration": 8.3091,
                "tempo": 120.0
            },
            {
                "pitch": 43,
                "velocity": 10,
                "duration": 3.0818,
                "tempo": 120.0
            },
            {
                "pitch": 53,
                "velocity": 10,
                "duration": 6.2455,
                "tempo": 120.0
            },
            {
                "pitch": 45,
                "velocity": 10,
                "duration": 2.0227,
                "tempo": 120.0
            },
            {
                "pitch": 0,
                "velocity": 0,
                "duration": 0.05,
                "tempo": 0
            },
            {
                "pitch": 47,
                "velocity": 10,
                "duration": 3.8341,
                "tempo": 120.0
            },
            {
                "pitch": 53,
                "velocity": 10,
                "duration": 14.8932,
                "tempo": 120.0
            },
            {
                "pitch": 47,
                "velocity": 10,
                "duration": 5.0568,
                "tempo": 120.0
            },
            {
                "pitch": 53,
                "velocity": 10,
                "duration": 13.2841,
                "tempo": 120.0
            },
            {
                "pitch": 47,
                "velocity": 10,
                "duration": 4.8136,
                "tempo": 120.0
            },
            {
                "pitch": 53,
                "velocity": 10,
                "duration": 12.7114,
                "tempo": 120.0
            },
            {
                "pitch": 47,
                "velocity": 10,
                "duration": 3.7409,
                "tempo": 120.0
            }
        ],
        "Synth Bass 1": [
            {
                "pitch": 0,
                "velocity": 0,
                "duration": 172.6614,
                "tempo": 0
            },
            {
                "pitch": 80,
                "velocity": 1,
                "duration": 0.2023,
                "tempo": 120.0
            },
            {
                "pitch": 0,
                "velocity": 0,
                "duration": 0.3023,
                "tempo": 0
            },
            {
                "pitch": 87,
                "velocity": 1,
                "duration": 0.2136,
                "tempo": 120.0
            },
            {
                "pitch": 90,
                "velocity": 1,
                "duration": 0.4818,
                "tempo": 120.0
            },
            {
                "pitch": 90,
                "velocity": 1,
                "duration": 0.2159,
                "tempo": 120.0
            },
            {
                "pitch": 0,
                "velocity": 0,
                "duration": 0.05,
                "tempo": 0
            },
            {
                "pitch": 93,
                "velocity": 1,
                "duration": 0.1977,
                "tempo": 120.0
            },
            {
                "pitch": 0,
                "velocity": 0,
                "duration": 0.0477,
                "tempo": 0
            },
            {
                "pitch": 93,
                "velocity": 1,
                "duration": 0.1955,
                "tempo": 120.0
            },
            {
                "pitch": 87,
                "velocity": 1,
                "duration": 1.2432,
                "tempo": 120.0
            },
            {
                "pitch": 87,
                "velocity": 1,
                "duration": 0.2227,
                "tempo": 120.0
            },
            {
                "pitch": 102,
                "velocity": 1,
                "duration": 1.0273,
                "tempo": 120.0
            },
            {
                "pitch": 91,
                "velocity": 1,
                "duration": 0.2045,
                "tempo": 120.0
            },
            {
                "pitch": 0,
                "velocity": 0,
                "duration": 0.2955,
                "tempo": 0
            },
            {
                "pitch": 87,
                "velocity": 1,
                "duration": 0.225,
                "tempo": 120.0
            },
            {
                "pitch": 0,
                "velocity": 0,
                "duration": 0.0545,
                "tempo": 0
            },
            {
                "pitch": 87,
                "velocity": 1,
                "duration": 0.2409,
                "tempo": 120.0
            },
            {
                "pitch": 0,
                "velocity": 0,
                "duration": 0.0568,
                "tempo": 0
            },
            {
                "pitch": 88,
                "velocity": 1,
                "duration": 0.2386,
                "tempo": 120.0
            },
            {
                "pitch": 0,
                "velocity": 0,
                "duration": 0.0545,
                "tempo": 0
            },
            {
                "pitch": 78,
                "velocity": 1,
                "duration": 0.2341,
                "tempo": 120.0
            },
            {
                "pitch": 90,
                "velocity": 1,
                "duration": 1.1591,
                "tempo": 120.0
            },
            {
                "pitch": 79,
                "velocity": 1,
                "duration": 0.2341,
                "tempo": 120.0
            },
            {
                "pitch": 0,
                "velocity": 0,
                "duration": 0.0523,
                "tempo": 0
            },
            {
                "pitch": 79,
                "velocity": 1,
                "duration": 0.225,
                "tempo": 120.0
            },
            {
                "pitch": 0,
                "velocity": 0,
                "duration": 0.0523,
                "tempo": 0
            },
            {
                "pitch": 81,
                "velocity": 1,
                "duration": 0.225,
                "tempo": 120.0
            },
            {
                "pitch": 90,
                "velocity": 1,
                "duration": 1.1318,
                "tempo": 120.0
            },
            {
                "pitch": 87,
                "velocity": 1,
                "duration": 0.2318,
                "tempo": 120.0
            },
            {
                "pitch": 90,
                "velocity": 1,
                "duration": 0.5273,
                "tempo": 120.0
            },
            {
                "pitch": 90,
                "velocity": 1,
                "duration": 0.2409,
                "tempo": 120.0
            },
            {
                "pitch": 102,
                "velocity": 1,
                "duration": 3.3727,
                "tempo": 120.0
            },
            {
                "pitch": 93,
                "velocity": 1,
                "duration": 0.2409,
                "tempo": 120.0
            },
            {
                "pitch": 0,
                "velocity": 0,
                "duration": 0.0568,
                "tempo": 0
            },
            {
                "pitch": 93,
                "velocity": 1,
                "duration": 0.2341,
                "tempo": 120.0
            },
            {
                "pitch": 87,
                "velocity": 1,
                "duration": 1.3955,
                "tempo": 120.0
            },
            {
                "pitch": 87,
                "velocity": 1,
                "duration": 0.2318,
                "tempo": 120.0
            },
            {
                "pitch": 102,
                "velocity": 1,
                "duration": 1.1568,
                "tempo": 120.0
            },
            {
                "pitch": 91,
                "velocity": 1,
                "duration": 0.2386,
                "tempo": 120.0
            }
        ],
        "Acoustic Grand Piano": [
            {
                "pitch": 0,
                "velocity": 0,
                "duration": 180.0,
                "tempo": 0
            },
            {
                "pitch": 108,
                "velocity": 15,
                "duration": 0.1,
                "tempo": 120.0
            }
        ]
    }
}