{
    "track_id": "16 Demo 2_2",
    "mood": "sad",
    "instruments": {
        "Lead 1 (square)": [
            {
                "pitch": 0,
                "velocity": 0,
                "duration": 26.6568,
                "tempo": 0
            },
            {
                "pitch": 92,
                "velocity": 10,
                "duration": 1.6682,
                "tempo": 120.0
            },
            {
                "pitch": 89,
                "velocity": 10,
                "duration": 1.6682,
                "tempo": 120.0
            },
            {
                "pitch": 95,
                "velocity": 10,
                "duration": 1.6659,
                "tempo": 120.0
            },
            {
                "pitch": 86,
                "velocity": 10,
                "duration": 1.6682,
                "tempo": 120.0
            },
            {
                "pitch": 92,
                "velocity": 10,
                "duration": 1.6568,
                "tempo": 120.0
            },
            {
                "pitch": 89,
                "velocity": 10,
                "duration": 1.6659,
                "tempo": 120.0
            },
            {
                "pitch": 0,
                "velocity": 0,
                "duration": 0.0023,
                "tempo": 0
            },
            {
                "pitch": 95,
                "velocity": 10,
                "duration": 1.6659,
                "tempo": 120.0
            },
            {
                "pitch": 86,
                "velocity": 10,
                "duration": 1.6682,
                "tempo": 120.0
            },
            {
                "pitch": 92,
                "velocity": 10,
                "duration": 1.6682,
                "tempo": 120.0
            },
            {
                "pitch": 89,
                "velocity": 10,
                "duration": 1.6659,
                "tempo": 120.0
            },
            {
                "pitch": 95,
                "velocity": 10,
                "duration": 1.6682,
                "tempo": 120.0
            },
            {
                "pitch": 86,
                "velocity": 10,
                "duration": 1.6682,
                "tempo": 120.0
            },
            {
                "pitch": 92,
                "velocity": 10,
                "duration": 1.6682,
                "tempo": 120.0
            },
            {
                "pitch": 89,
                "velocity": 10,
                "duration": 1.6545,
                "tempo": 120.0
            },
            {
                "pitch": 95,
                "velocity": 10,
                "duration": 1.6795,
                "tempo": 120.0
            },
            {
                "pitch": 86,
                "velocity": 10,
                "duration": 1.7182,
                "tempo": 120.0
            },
            {
                "pitch": 84,
                "velocity": 10,
                "duration": 0.2068,
                "tempo": 120.0
            }
        ],
        "Lead 2 (sawtooth)": [
            {
                "pitch": 0,
                "velocity": 0,
                "duration": 26.7545,
                "tempo": 0
            },
            {
                "pitch": 92,
                "velocity": 10,
                "duration": 0.1955,
                "tempo": 120.0
            },
            {
                "pitch": 92,
                "velocity": 8,
                "duration": 0.2159,
                "tempo": 120.0
            },
            {
                "pitch": 92,
                "velocity": 7,
                "duration": 0.2,
                "tempo": 120.0
            },
            {
                "pitch": 0,
                "velocity": 0,
                "duration": 0.0023,
                "tempo": 0
            },
            {
                "pitch": 92,
                "velocity": 5,
                "duration": 0.2182,
                "tempo": 120.0
            },
            {
                "pitch": 92,
                "velocity": 4,
                "duration": 0.2,
                "tempo": 120.0
            },
            {
                "pitch": 92,
                "velocity": 3,
                "duration": 0.2182,
                "tempo": 120.0
            },
            {
                "pitch": 92,
                "velocity": 3,
                "duration": 0.2023,
                "tempo": 120.0
            },
            {
                "pitch": 92,
                "velocity": 2,
                "duration": 0.2159,
                "tempo": 120.0
            },
            {
                "pitch": 89,
                "velocity": 10,
                "duration": 0.1955,
                "tempo": 120.0
            },
            {
                "pitch": 89,
                "velocity": 8,
                "duration": 0.2159,
                "tempo": 120.0
            },
            {
                "pitch": 89,
                "velocity": 7,
                "duration": 0.2,
                "tempo": 120.0
            },
            {
                "pitch": 89,
                "velocity": 5,
                "duration": 0.2182,
                "tempo": 120.0
            },
            {
                "pitch": 89,
                "velocity": 4,
                "duration": 0.2023,
                "tempo": 120.0
            },
            {
                "pitch": 89,
                "velocity": 3,
                "duration": 0.2182,
                "tempo": 120.0
            },
            {
                "pitch": 89,
                "velocity": 3,
                "duration": 0.2023,
                "tempo": 120.0
            },
            {
                "pitch": 89,
                "velocity": 2,
                "duration": 0.2136,
                "tempo": 120.0
            },
            {
                "pitch": 0,
                "velocity": 0,
                "duration": 0.0023,
                "tempo": 0
            },
            {
                "pitch": 95,
                "velocity": 10,
                "duration": 0.1955,
                "tempo": 120.0
            },
            {
                "pitch": 95,
                "velocity": 8,
                "duration": 0.2136,
                "tempo": 120.0
            },
            {
                "pitch": 95,
                "velocity": 7,
                "duration": 0.2023,
                "tempo": 120.0
            },
            {
                "pitch": 95,
                "velocity": 5,
                "duration": 0.2182,
                "tempo": 120.0
            },
            {
                "pitch": 95,
                "velocity": 4,
                "duration": 0.2023,
                "tempo": 120.0
            },
            {
                "pitch": 95,
                "velocity": 3,
                "duration": 0.2182,
                "tempo": 120.0
            },
            {
                "pitch": 95,
                "velocity": 3,
                "duration": 0.2,
                "tempo": 120.0
            },
            {
                "pitch": 95,
                "velocity": 2,
                "duration": 0.2159,
                "tempo": 120.0
            },
            {
                "pitch": 86,
                "velocity": 10,
                "duration": 0.1955,
                "tempo": 120.0
            },
            {
                "pitch": 0,
                "velocity": 0,
                "duration": 0.0023,
                "tempo": 0
            },
            {
                "pitch": 86,
                "velocity": 8,
                "duration": 0.2136,
                "tempo": 120.0
            },
            {
                "pitch": 86,
                "velocity": 7,
                "duration": 0.2023,
                "tempo": 120.0
            },
            {
                "pitch": 86,
                "velocity": 5,
                "duration": 0.2182,
                "tempo": 120.0
            },
            {
                "pitch": 86,
                "velocity": 4,
                "duration": 0.2,
                "tempo": 120.0
            },
            {
                "pitch": 0,
                "velocity": 0,
                "duration": 0.0023,
                "tempo": 0
            },
            {
                "pitch": 86,
                "velocity": 3,
                "duration": 0.2159,
                "tempo": 120.0
            },
            {
                "pitch": 0,
                "velocity": 0,
                "duration": 0.0023,
                "tempo": 0
            },
            {
                "pitch": 86,
                "velocity": 3,
                "duration": 0.2,
                "tempo": 120.0
            },
            {
                "pitch": 86,
                "velocity": 2,
                "duration": 0.2159,
                "tempo": 120.0
            },
            {
                "pitch": 92,
                "velocity": 10,
                "duration": 0.1955,
                "tempo": 120.0
            },
            {
                "pitch": 92,
                "velocity": 8,
                "duration": 0.2159,
                "tempo": 120.0
            },
            {
                "pitch": 92,
                "velocity": 7,
                "duration": 0.2,
                "tempo": 120.0
            },
            {
                "pitch": 0,
                "velocity": 0,
                "duration": 0.0023,
                "tempo": 0
            },
            {
                "pitch": 92,
                "velocity": 5,
                "duration": 0.2182,
                "tempo": 120.0
            },
            {
                "pitch": 92,
                "velocity": 4,
                "duration": 0.2,
                "tempo": 120.0
            },
            {
                "pitch": 92,
                "velocity": 3,
                "duration": 0.2159,
                "tempo": 120.0
            },
            {
                "pitch": 92,
                "velocity": 3,
                "duration": 0.1955,
                "tempo": 120.0
            },
            {
                "pitch": 92,
                "velocity": 2,
                "duration": 0.2159,
                "tempo": 120.0
            },
            {
                "pitch": 89,
                "velocity": 10,
                "duration": 0.2,
                "tempo": 120.0
            },
            {
                "pitch": 0,
                "velocity": 0,
                "duration": 0.0023,
                "tempo": 0
            },
            {
                "pitch": 89,
                "velocity": 8,
                "duration": 0.2182,
                "tempo": 120.0
            },
            {
                "pitch": 89,
                "velocity": 7,
                "duration": 0.2,
                "tempo": 120.0
            },
            {
                "pitch": 89,
                "velocity": 5,
                "duration": 0.2182,
                "tempo": 120.0
            },
            {
                "pitch": 89,
                "velocity": 4,
                "duration": 0.2023,
                "tempo": 120.0
            },
            {
                "pitch": 89,
                "velocity": 3,
                "duration": 0.2159,
                "tempo": 120.0
            },
            {
                "pitch": 89,
                "velocity": 3,
                "duration": 0.1955,
                "tempo": 120.0
            },
            {
                "pitch": 89,
                "velocity": 2,
                "duration": 0.2159,
                "tempo": 120.0
            },
            {
                "pitch": 95,
                "velocity": 10,
                "duration": 0.2,
                "tempo": 120.0
            },
            {
                "pitch": 95,
                "velocity": 8,
                "duration": 0.2182,
                "tempo": 120.0
            },
            {
                "pitch": 95,
                "velocity": 7,
                "duration": 0.2023,
                "tempo": 120.0
            },
            {
                "pitch": 95,
                "velocity": 5,
                "duration": 0.2159,
                "tempo": 120.0
            },
            {
                "pitch": 95,
                "velocity": 4,
                "duration": 0.1955,
                "tempo": 120.0
            },
            {
                "pitch": 95,
                "velocity": 3,
                "duration": 0.2159,
                "tempo": 120.0
            },
            {
                "pitch": 95,
                "velocity": 3,
                "duration": 0.2,
                "tempo": 120.0
            },
            {
                "pitch": 95,
                "velocity": 2,
                "duration": 0.2182,
                "tempo": 120.0
            },
            {
                "pitch": 86,
                "velocity": 10,
                "duration": 0.2023,
                "tempo": 120.0
            },
            {
                "pitch": 86,
                "velocity": 8,
                "duration": 0.2182,
                "tempo": 120.0
            },
            {
                "pitch": 86,
                "velocity": 7,
                "duration": 0.2023,
                "tempo": 120.0
            },
            {
                "pitch": 86,
                "velocity": 5,
                "duration": 0.2159,
                "tempo": 120.0
            },
            {
                "pitch": 86,
                "velocity": 4,
                "duration": 0.1955,
                "tempo": 120.0
            },
            {
                "pitch": 86,
                "velocity": 3,
                "duration": 0.2136,
                "tempo": 120.0
            },
            {
                "pitch": 86,
                "velocity": 3,
                "duration": 0.2023,
                "tempo": 120.0
            },
            {
                "pitch": 86,
                "velocity": 2,
                "duration": 0.2182,
                "tempo": 120.0
            },
            {
                "pitch": 92,
                "velocity": 10,
                "duration": 0.2023,
                "tempo": 120.0
            },
            {
                "pitch": 92,
                "velocity": 8,
                "duration": 0.2159,
                "tempo": 120.0
            },
            {
                "pitch": 92,
                "velocity": 7,
                "duration": 0.1955,
                "tempo": 120.0
            },
            {
                "pitch": 92,
                "velocity": 5,
                "duration": 0.2136,
                "tempo": 120.0
            },
            {
                "pitch": 0,
                "velocity": 0,
                "duration": 0.0023,
                "tempo": 0
            },
            {
                "pitch": 92,
                "velocity": 4,
                "duration": 0.2,
                "tempo": 120.0
            },
            {
                "pitch": 92,
                "velocity": 3,
                "duration": 0.2182,
                "tempo": 120.0
            },
            {
                "pitch": 92,
                "velocity": 3,
                "duration": 0.2023,
                "tempo": 120.0
            },
            {
                "pitch": 92,
                "velocity": 2,
                "duration": 0.2182,
                "tempo": 120.0
            },
            {
                "pitch": 89,
                "velocity": 10,
                "duration": 0.2,
                "tempo": 120.0
            },
            {
                "pitch": 0,
                "velocity": 0,
                "duration": 0.0023,
                "tempo": 0
            },
            {
                "pitch": 89,
                "velocity": 8,
                "duration": 0.2136,
                "tempo": 120.0
            },
            {
                "pitch": 89,
                "velocity": 7,
                "duration": 0.1977,
                "tempo": 120.0
            },
            {
                "pitch": 89,
                "velocity": 5,
                "duration": 0.2136,
                "tempo": 120.0
            },
            {
                "pitch": 89,
                "velocity": 4,
                "duration": 0.2023,
                "tempo": 120.0
            },
            {
                "pitch": 89,
                "velocity": 3,
                "duration": 0.2182,
                "tempo": 120.0
            },
            {
                "pitch": 89,
                "velocity": 3,
                "duration": 0.2023,
                "tempo": 120.0
            },
            {
                "pitch": 89,
                "velocity": 2,
                "duration": 0.2136,
                "tempo": 120.0
            },
            {
                "pitch": 95,
                "velocity": 10,
                "duration": 0.1977,
                "tempo": 120.0
            },
            {
                "pitch": 95,
                "velocity": 8,
                "duration": 0.2136,
                "tempo": 120.0
            },
            {
                "pitch": 95,
                "velocity": 7,
                "duration": 0.2023,
                "tempo": 120.0
            },
            {
                "pitch": 95,
                "velocity": 5,
                "duration": 0.2182,
                "tempo": 120.0
            },
            {
                "pitch": 95,
                "velocity": 4,
                "duration": 0.2023,
                "tempo": 120.0
            },
            {
                "pitch": 95,
                "velocity": 3,
                "duration": 0.2182,
                "tempo": 120.0
            },
            {
                "pitch": 95,
                "velocity": 3,
                "duration": 0.2,
                "tempo": 120.0
            },
            {
                "pitch": 95,
                "velocity": 2,
                "duration": 0.2182,
                "tempo": 120.0
            },
            {
                "pitch": 86,
                "velocity": 10,
                "duration": 0.2023,
                "tempo": 120.0
            },
            {
                "pitch": 86,
                "velocity": 8,
                "duration": 0.2159,
                "tempo": 120.0
            },
            {
                "pitch": 86,
                "velocity": 7,
                "duration": 0.1955,
                "tempo": 120.0
            },
            {
                "pitch": 86,
                "velocity": 5,
                "duration": 0.2159,
                "tempo": 120.0
            },
            {
                "pitch": 86,
                "velocity": 4,
                "duration": 0.2,
                "tempo": 120.0
            },
            {
                "pitch": 86,
                "velocity": 3,
                "duration": 0.2182,
                "tempo": 120.0
            },
            {
                "pitch": 86,
                "velocity": 3,
                "duration": 0.2023,
                "tempo": 120.0
            },
            {
                "pitch": 86,
                "velocity": 2,
                "duration": 0.2182,
                "tempo": 120.0
            },
            {
                "pitch": 92,
                "velocity": 10,
                "duration": 0.2023,
                "tempo": 120.0
            },
            {
                "pitch": 92,
                "velocity": 8,
                "duration": 0.2159,
                "tempo": 120.0
            },
            {
                "pitch": 92,
                "velocity": 7,
                "duration": 0.1955,
                "tempo": 120.0
            },
            {
                "pitch": 92,
                "velocity": 5,
                "duration": 0.2136,
                "tempo": 120.0
            },
            {
                "pitch": 0,
                "velocity": 0,
                "duration": 0.0023,
                "tempo": 0
            },
            {
                "pitch": 92,
                "velocity": 4,
                "duration": 0.2,
                "tempo": 120.0
            },
            {
                "pitch": 92,
                "velocity": 3,
                "duration": 0.2182,
                "tempo": 120.0
            },
            {
                "pitch": 92,
                "velocity": 3,
                "duration": 0.2023,
                "tempo": 120.0
            },
            {
                "pitch": 92,
                "velocity": 2,
                "duration": 0.2159,
                "tempo": 120.0
            },
            {
                "pitch": 89,
                "velocity": 10,
                "duration": 0.1955,
                "tempo": 120.0
            },
            {
                "pitch": 89,
                "velocity": 8,
                "duration": 0.2136,
                "tempo": 120.0
            },
            {
                "pitch": 0,
                "velocity": 0,
                "duration": 0.0023,
                "tempo": 0
            },
            {
                "pitch": 89,
                "velocity": 7,
                "duration": 0.2,
                "tempo": 120.0
            },
            {
                "pitch": 89,
                "velocity": 5,
                "duration": 0.2182,
                "tempo": 120.0
            },
            {
                "pitch": 89,
                "velocity": 4,
                "duration": 0.2023,
                "tempo": 120.0
            },
            {
                "pitch": 89,
                "velocity": 3,
                "duration": 0.2159,
                "tempo": 120.0
            },
            {
                "pitch": 89,
                "velocity": 3,
                "duration": 0.1955,
                "tempo": 120.0
            },
            {
                "pitch": 89,
                "velocity": 2,
                "duration": 0.2136,
                "tempo": 120.0
            },
            {
                "pitch": 0,
                "velocity": 0,
                "duration": 0.0023,
                "tempo": 0
            },
            {
                "pitch": 95,
                "velocity": 10,
                "duration": 0.2,
                "tempo": 120.0
            },
            {
                "pitch": 95,
                "velocity": 8,
                "duration": 0.2182,
                "tempo": 120.0
            },
            {
                "pitch": 95,
                "velocity": 7,
                "duration": 0.2023,
                "tempo": 120.0
            },
            {
                "pitch": 95,
                "velocity": 5,
                "duration": 0.2182,
                "tempo": 120.0
            },
            {
                "pitch": 95,
                "velocity": 4,
                "duration": 0.2023,
                "tempo": 120.0
            },
            {
                "pitch": 95,
                "velocity": 3,
                "duration": 0.2182,
                "tempo": 120.0
            },
            {
                "pitch": 95,
                "velocity": 3,
                "duration": 0.2,
                "tempo": 120.0
            },
            {
                "pitch": 95,
                "velocity": 2,
                "duration": 0.2205,
                "tempo": 120.0
            },
            {
                "pitch": 86,
                "velocity": 10,
                "duration": 0.2068,
                "tempo": 120.0
            },
            {
                "pitch": 86,
                "velocity": 8,
                "duration": 0.225,
                "tempo": 120.0
            },
            {
                "pitch": 86,
                "velocity": 7,
                "duration": 0.2136,
                "tempo": 120.0
            },
            {
                "pitch": 86,
                "velocity": 5,
                "duration": 0.2318,
                "tempo": 120.0
            },
            {
                "pitch": 86,
                "velocity": 4,
                "duration": 0.2068,
                "tempo": 120.0
            },
            {
                "pitch": 86,
                "velocity": 3,
                "duration": 0.2205,
                "tempo": 120.0
            },
            {
                "pitch": 86,
                "velocity": 3,
                "duration": 0.1955,
                "tempo": 120.0
            },
            {
                "pitch": 86,
                "velocity": 2,
                "duration": 0.2136,
                "tempo": 120.0
            },
            {
                "pitch": 84,
                "velocity": 10,
                "duration": 0.2159,
                "tempo": 120.0
            },
            {
                "pitch": 84,
                "velocity": 8,
                "duration": 0.2318,
                "tempo": 120.0
            },
            {
                "pitch": 0,
                "velocity": 0,
                "duration": 0.0023,
                "tempo": 0
            },
            {
                "pitch": 84,
                "velocity": 7,
                "duration": 0.2,
                "tempo": 120.0
            },
            {
                "pitch": 84,
                "velocity": 5,
                "duration": 0.2182,
                "tempo": 120.0
            },
            {
                "pitch": 84,
                "velocity": 4,
                "duration": 0.2023,
                "tempo": 120.0
            },
            {
                "pitch": 84,
                "velocity": 3,
                "duration": 0.2182,
                "tempo": 120.0
            },
            {
                "pitch": 84,
                "velocity": 3,
                "duration": 0.2023,
                "tempo": 120.0
            },
            {
                "pitch": 84,
                "velocity": 2,
                "duration": 0.2182,
                "tempo": 120.0
            },
            {
                "pitch": 84,
                "velocity": 2,
                "duration": 0.1955,
                "tempo": 120.0
            },
            {
                "pitch": 84,
                "velocity": 2,
                "duration": 0.2114,
                "tempo": 120.0
            },
            {
                "pitch": 84,
                "velocity": 2,
                "duration": 0.2023,
                "tempo": 120.0
            },
            {
                "pitch": 84,
                "velocity": 2,
                "duration": 0.9477,
                "tempo": 120.0
            }
        ],
        "Synth Bass 1": [
            {
                "pitch": 72,
                "velocity": 1,
                "duration": 5.8295,
                "tempo": 120.0
            },
            {
                "pitch": 71,
                "velocity": 1,
                "duration": 0.8273,
                "tempo": 120.0
            },
            {
                "pitch": 72,
                "velocity": 1,
                "duration": 5.8318,
                "tempo": 120.0
            },
            {
                "pitch": 71,
                "velocity": 1,
                "duration": 0.8386,
                "tempo": 120.0
            },
            {
                "pitch": 72,
                "velocity": 1,
                "duration": 5.8295,
                "tempo": 120.0
            },
            {
                "pitch": 0,
                "velocity": 0,
                "duration": 0.0023,
                "tempo": 0
            },
            {
                "pitch": 71,
                "velocity": 1,
                "duration": 0.8273,
                "tempo": 120.0
            },
            {
                "pitch": 70,
                "velocity": 1,
                "duration": 1.6682,
                "tempo": 120.0
            },
            {
                "pitch": 70,
                "velocity": 1,
                "duration": 1.6659,
                "tempo": 120.0
            },
            {
                "pitch": 0,
                "velocity": 0,
                "duration": 0.0023,
                "tempo": 0
            },
            {
                "pitch": 66,
                "velocity": 1,
                "duration": 1.6545,
                "tempo": 120.0
            },
            {
                "pitch": 66,
                "velocity": 1,
                "duration": 1.6795,
                "tempo": 120.0
            },
            {
                "pitch": 0,
                "velocity": 0,
                "duration": 26.9273,
                "tempo": 0
            },
            {
                "pitch": 36,
                "velocity": 1,
                "duration": 0.1068,
                "tempo": 120.0
            },
            {
                "pitch": 48,
                "velocity": 1,
                "duration": 0.125,
                "tempo": 120.0
            },
            {
                "pitch": 36,
                "velocity": 1,
                "duration": 0.1068,
                "tempo": 120.0
            },
            {
                "pitch": 48,
                "velocity": 1,
                "duration": 0.1023,
                "tempo": 120.0
            },
            {
                "pitch": 36,
                "velocity": 1,
                "duration": 0.1,
                "tempo": 120.0
            },
            {
                "pitch": 48,
                "velocity": 1,
                "duration": 0.1182,
                "tempo": 120.0
            },
            {
                "pitch": 36,
                "velocity": 1,
                "duration": 0.1,
                "tempo": 120.0
            },
            {
                "pitch": 48,
                "velocity": 1,
                "duration": 0.1,
                "tempo": 120.0
            },
            {
                "pitch": 36,
                "velocity": 1,
                "duration": 0.1023,
                "tempo": 120.0
            },
            {
                "pitch": 48,
                "velocity": 1,
                "duration": 0.1159,
                "tempo": 120.0
            },
            {
                "pitch": 36,
                "velocity": 1,
                "duration": 0.1023,
                "tempo": 120.0
            },
            {
                "pitch": 48,
                "velocity": 1,
                "duration": 0.1,
                "tempo": 120.0
            },
            {
                "pitch": 36,
                "velocity": 1,
                "duration": 0.1,
                "tempo": 120.0
            },
            {
                "pitch": 48,
                "velocity": 1,
                "duration": 0.1182,
                "tempo": 120.0
            },
            {
                "pitch": 36,
                "velocity": 1,
                "duration": 0.1,
                "tempo": 120.0
            },
            {
                "pitch": 48,
                "velocity": 1,
                "duration": 0.0977,
                "tempo": 120.0
            },
            {
                "pitch": 0,
                "velocity": 0,
                "duration": 0.0023,
                "tempo": 0
            },
            {
                "pitch": 36,
                "velocity": 1,
                "duration": 0.0977,
                "tempo": 120.0
            },
            {
                "pitch": 48,
                "velocity": 1,
                "duration": 0.1136,
                "tempo": 120.0
            },
            {
                "pitch": 36,
                "velocity": 1,
                "duration": 0.0977,
                "tempo": 120.0
            },
            {
                "pitch": 48,
                "velocity": 1,
                "duration": 0.1,
                "tempo": 120.0
            },
            {
                "pitch": 36,
                "velocity": 1,
                "duration": 0.1023,
                "tempo": 120.0
            },
            {
                "pitch": 48,
                "velocity": 1,
                "duration": 0.1159,
                "tempo": 120.0
            },
            {
                "pitch": 36,
                "velocity": 1,
                "duration": 0.1023,
                "tempo": 120.0
            },
            {
                "pitch": 48,
                "velocity": 1,
                "duration": 0.1,
                "tempo": 120.0
            },
            {
                "pitch": 36,
                "velocity": 1,
                "duration": 0.1,
                "tempo": 120.0
            },
            {
                "pitch": 48,
                "velocity": 1,
                "duration": 0.1182,
                "tempo": 120.0
            },
            {
                "pitch": 36,
                "velocity": 1,
                "duration": 0.1,
                "tempo": 120.0
            },
            {
                "pitch": 48,
                "velocity": 1,
                "duration": 0.0977,
                "tempo": 120.0
            },
            {
                "pitch": 0,
                "velocity": 0,
                "duration": 0.0023,
                "tempo": 0
            },
            {
                "pitch": 36,
                "velocity": 1,
                "duration": 0.0977,
                "tempo": 120.0
            },
            {
                "pitch": 48,
                "velocity": 1,
                "duration": 0.1136,
                "tempo": 120.0
            }
        ],
        "Acoustic Grand Piano": [
            {
                "pitch": 0,
                "velocity": 0,
                "duration": 56.7409,
                "tempo": 0
            },
            {
                "pitch": 108,
                "velocity": 15,
                "duration": 0.1,
                "tempo": 120.0
            }
        ]
    }
}