{
    "track_id": "17 Game Over_7",
    "mood": "sad",
    "instruments": {
        "Lead 1 (square)": [
            {
                "pitch": 0,
                "velocity": 0,
                "duration": 17.3045,
                "tempo": 0
            },
            {
                "pitch": 50,
                "velocity": 8,
                "duration": 2.1705,
                "tempo": 120.0
            },
            {
                "pitch": 0,
                "velocity": 0,
                "duration": 2.2114,
                "tempo": 0
            },
            {
                "pitch": 50,
                "velocity": 8,
                "duration": 2.1886,
                "tempo": 120.0
            },
            {
                "pitch": 0,
                "velocity": 0,
                "duration": 2.2091,
                "tempo": 0
            },
            {
                "pitch": 50,
                "velocity": 8,
                "duration": 2.1795,
                "tempo": 120.0
            },
            {
                "pitch": 0,
                "velocity": 0,
                "duration": 2.2114,
                "tempo": 0
            },
            {
                "pitch": 50,
                "velocity": 8,
                "duration": 2.1795,
                "tempo": 120.0
            }
        ],
        "Lead 2 (sawtooth)": [
            {
                "pitch": 57,
                "velocity": 5,
                "duration": 0.2864,
                "tempo": 120.0
            },
            {
                "pitch": 0,
                "velocity": 0,
                "duration": 0.0023,
                "tempo": 0
            },
            {
                "pitch": 64,
                "velocity": 5,
                "duration": 0.2705,
                "tempo": 120.0
            },
            {
                "pitch": 57,
                "velocity": 5,
                "duration": 0.2705,
                "tempo": 120.0
            },
            {
                "pitch": 0,
                "velocity": 0,
                "duration": 0.0023,
                "tempo": 0
            },
            {
                "pitch": 64,
                "velocity": 5,
                "duration": 0.8295,
                "tempo": 120.0
            },
            {
                "pitch": 0,
                "velocity": 0,
                "duration": 0.0023,
                "tempo": 0
            },
            {
                "pitch": 67,
                "velocity": 5,
                "duration": 0.2568,
                "tempo": 120.0
            },
            {
                "pitch": 67,
                "velocity": 5,
                "duration": 0.0182,
                "tempo": 120.0
            },
            {
                "pitch": 69,
                "velocity": 5,
                "duration": 0.2705,
                "tempo": 120.0
            },
            {
                "pitch": 0,
                "velocity": 0,
                "duration": 0.0023,
                "tempo": 0
            },
            {
                "pitch": 62,
                "velocity": 5,
                "duration": 0.2864,
                "tempo": 120.0
            },
            {
                "pitch": 65,
                "velocity": 5,
                "duration": 1.6409,
                "tempo": 120.0
            },
            {
                "pitch": 0,
                "velocity": 0,
                "duration": 0.2682,
                "tempo": 0
            },
            {
                "pitch": 55,
                "velocity": 5,
                "duration": 0.2477,
                "tempo": 120.0
            },
            {
                "pitch": 55,
                "velocity": 5,
                "duration": 0.0341,
                "tempo": 120.0
            },
            {
                "pitch": 60,
                "velocity": 5,
                "duration": 0.25,
                "tempo": 120.0
            },
            {
                "pitch": 60,
                "velocity": 5,
                "duration": 0.0159,
                "tempo": 120.0
            },
            {
                "pitch": 55,
                "velocity": 5,
                "duration": 0.25,
                "tempo": 120.0
            },
            {
                "pitch": 55,
                "velocity": 5,
                "duration": 0.0159,
                "tempo": 120.0
            },
            {
                "pitch": 0,
                "velocity": 0,
                "duration": 0.0023,
                "tempo": 0
            },
            {
                "pitch": 64,
                "velocity": 5,
                "duration": 0.8182,
                "tempo": 120.0
            },
            {
                "pitch": 60,
                "velocity": 5,
                "duration": 0.2545,
                "tempo": 120.0
            },
            {
                "pitch": 60,
                "velocity": 5,
                "duration": 0.0341,
                "tempo": 120.0
            },
            {
                "pitch": 62,
                "velocity": 5,
                "duration": 0.2705,
                "tempo": 120.0
            },
            {
                "pitch": 48,
                "velocity": 5,
                "duration": 0.5591,
                "tempo": 120.0
            },
            {
                "pitch": 60,
                "velocity": 5,
                "duration": 0.2545,
                "tempo": 120.0
            },
            {
                "pitch": 60,
                "velocity": 5,
                "duration": 0.0159,
                "tempo": 120.0
            },
            {
                "pitch": 0,
                "velocity": 0,
                "duration": 0.0023,
                "tempo": 0
            },
            {
                "pitch": 59,
                "velocity": 5,
                "duration": 1.0977,
                "tempo": 120.0
            },
            {
                "pitch": 0,
                "velocity": 0,
                "duration": 0.8364,
                "tempo": 0
            },
            {
                "pitch": 57,
                "velocity": 5,
                "duration": 0.275,
                "tempo": 120.0
            },
            {
                "pitch": 64,
                "velocity": 5,
                "duration": 0.2727,
                "tempo": 120.0
            },
            {
                "pitch": 0,
                "velocity": 0,
                "duration": 0.0023,
                "tempo": 0
            },
            {
                "pitch": 57,
                "velocity": 5,
                "duration": 0.2545,
                "tempo": 120.0
            },
            {
                "pitch": 0,
                "velocity": 0,
                "duration": 0.0023,
                "tempo": 0
            },
            {
                "pitch": 64,
                "velocity": 5,
                "duration": 0.8182,
                "tempo": 120.0
            },
            {
                "pitch": 67,
                "velocity": 5,
                "duration": 5.4818,
                "tempo": 120.0
            },
            {
                "pitch": 67,
                "velocity": 5,
                "duration": 0.2523,
                "tempo": 120.0
            },
            {
                "pitch": 79,
                "velocity": 5,
                "duration": 8.7659,
                "tempo": 120.0
            },
            {
                "pitch": 67,
                "velocity": 5,
                "duration": 0.0341,
                "tempo": 120.0
            },
            {
                "pitch": 0,
                "velocity": 0,
                "duration": 0.0023,
                "tempo": 0
            },
            {
                "pitch": 69,
                "velocity": 5,
                "duration": 0.2682,
                "tempo": 120.0
            },
            {
                "pitch": 0,
                "velocity": 0,
                "duration": 0.0023,
                "tempo": 0
            },
            {
                "pitch": 62,
                "velocity": 5,
                "duration": 0.2705,
                "tempo": 120.0
            },
            {
                "pitch": 65,
                "velocity": 5,
                "duration": 1.6409,
                "tempo": 120.0
            },
            {
                "pitch": 0,
                "velocity": 0,
                "duration": 0.2886,
                "tempo": 0
            },
            {
                "pitch": 55,
                "velocity": 5,
                "duration": 0.2523,
                "tempo": 120.0
            },
            {
                "pitch": 55,
                "velocity": 5,
                "duration": 0.0182,
                "tempo": 120.0
            },
            {
                "pitch": 60,
                "velocity": 5,
                "duration": 0.2455,
                "tempo": 120.0
            },
            {
                "pitch": 60,
                "velocity": 5,
                "duration": 0.0318,
                "tempo": 120.0
            },
            {
                "pitch": 55,
                "velocity": 5,
                "duration": 0.2455,
                "tempo": 120.0
            },
            {
                "pitch": 55,
                "velocity": 5,
                "duration": 0.0159,
                "tempo": 120.0
            },
            {
                "pitch": 0,
                "velocity": 0,
                "duration": 0.0023,
                "tempo": 0
            },
            {
                "pitch": 64,
                "velocity": 5,
                "duration": 0.8227,
                "tempo": 120.0
            },
            {
                "pitch": 48,
                "velocity": 5,
                "duration": 8.2227,
                "tempo": 120.0
            },
            {
                "pitch": 60,
                "velocity": 5,
                "duration": 0.2477,
                "tempo": 120.0
            },
            {
                "pitch": 60,
                "velocity": 5,
                "duration": 0.0182,
                "tempo": 120.0
            },
            {
                "pitch": 65,
                "velocity": 5,
                "duration": 0.2818,
                "tempo": 120.0
            },
            {
                "pitch": 64,
                "velocity": 5,
                "duration": 0.2659,
                "tempo": 120.0
            },
            {
                "pitch": 62,
                "velocity": 5,
                "duration": 1.6614,
                "tempo": 120.0
            },
            {
                "pitch": 65,
                "velocity": 5,
                "duration": 0.2773,
                "tempo": 120.0
            },
            {
                "pitch": 62,
                "velocity": 5,
                "duration": 0.2614,
                "tempo": 120.0
            },
            {
                "pitch": 64,
                "velocity": 5,
                "duration": 0.2659,
                "tempo": 120.0
            },
            {
                "pitch": 0,
                "velocity": 0,
                "duration": 0.0023,
                "tempo": 0
            },
            {
                "pitch": 72,
                "velocity": 5,
                "duration": 0.2477,
                "tempo": 120.0
            },
            {
                "pitch": 72,
                "velocity": 5,
                "duration": 0.0341,
                "tempo": 120.0
            },
            {
                "pitch": 72,
                "velocity": 5,
                "duration": 0.2659,
                "tempo": 120.0
            },
            {
                "pitch": 70,
                "velocity": 5,
                "duration": 0.2659,
                "tempo": 120.0
            },
            {
                "pitch": 69,
                "velocity": 5,
                "duration": 0.2818,
                "tempo": 120.0
            },
            {
                "pitch": 67,
                "velocity": 5,
                "duration": 6.0114,
                "tempo": 120.0
            },
            {
                "pitch": 67,
                "velocity": 5,
                "duration": 0.2477,
                "tempo": 120.0
            },
            {
                "pitch": 79,
                "velocity": 5,
                "duration": 8.7705,
                "tempo": 120.0
            },
            {
                "pitch": 67,
                "velocity": 5,
                "duration": 0.0182,
                "tempo": 120.0
            },
            {
                "pitch": 65,
                "velocity": 5,
                "duration": 0.2909,
                "tempo": 120.0
            },
            {
                "pitch": 0,
                "velocity": 0,
                "duration": 0.0023,
                "tempo": 0
            },
            {
                "pitch": 64,
                "velocity": 5,
                "duration": 0.275,
                "tempo": 120.0
            },
            {
                "pitch": 60,
                "velocity": 5,
                "duration": 1.9341,
                "tempo": 120.0
            },
            {
                "pitch": 60,
                "velocity": 5,
                "duration": 0.25,
                "tempo": 120.0
            },
            {
                "pitch": 60,
                "velocity": 5,
                "duration": 0.0159,
                "tempo": 120.0
            },
            {
                "pitch": 0,
                "velocity": 0,
                "duration": 0.0023,
                "tempo": 0
            },
            {
                "pitch": 62,
                "velocity": 5,
                "duration": 1.3727,
                "tempo": 120.0
            },
            {
                "pitch": 0,
                "velocity": 0,
                "duration": 0.0023,
                "tempo": 0
            },
            {
                "pitch": 62,
                "velocity": 5,
                "duration": 0.2682,
                "tempo": 120.0
            },
            {
                "pitch": 0,
                "velocity": 0,
                "duration": 0.0023,
                "tempo": 0
            },
            {
                "pitch": 64,
                "velocity": 5,
                "duration": 0.2864,
                "tempo": 120.0
            },
            {
                "pitch": 65,
                "velocity": 5,
                "duration": 0.2614,
                "tempo": 120.0
            },
            {
                "pitch": 67,
                "velocity": 5,
                "duration": 0.2455,
                "tempo": 120.0
            },
            {
                "pitch": 79,
                "velocity": 5,
                "duration": 3.2932,
                "tempo": 120.0
            },
            {
                "pitch": 67,
                "velocity": 5,
                "duration": 0.3045,
                "tempo": 120.0
            },
            {
                "pitch": 65,
                "velocity": 5,
                "duration": 0.2705,
                "tempo": 120.0
            },
            {
                "pitch": 64,
                "velocity": 5,
                "duration": 0.2818,
                "tempo": 120.0
            },
            {
                "pitch": 0,
                "velocity": 0,
                "duration": 0.0023,
                "tempo": 0
            },
            {
                "pitch": 65,
                "velocity": 5,
                "duration": 0.2659,
                "tempo": 120.0
            },
            {
                "pitch": 64,
                "velocity": 5,
                "duration": 0.2705,
                "tempo": 120.0
            },
            {
                "pitch": 62,
                "velocity": 5,
                "duration": 0.2864,
                "tempo": 120.0
            },
            {
                "pitch": 0,
                "velocity": 0,
                "duration": 0.0023,
                "tempo": 0
            },
            {
                "pitch": 61,
                "velocity": 5,
                "duration": 0.2705,
                "tempo": 120.0
            },
            {
                "pitch": 57,
                "velocity": 5,
                "duration": 1.3795,
                "tempo": 120.0
            },
            {
                "pitch": 65,
                "velocity": 5,
                "duration": 0.2659,
                "tempo": 120.0
            },
            {
                "pitch": 62,
                "velocity": 5,
                "duration": 0.2818,
                "tempo": 120.0
            },
            {
                "pitch": 0,
                "velocity": 0,
                "duration": 0.0023,
                "tempo": 0
            },
            {
                "pitch": 64,
                "velocity": 5,
                "duration": 0.2659,
                "tempo": 120.0
            },
            {
                "pitch": 72,
                "velocity": 5,
                "duration": 0.25,
                "tempo": 120.0
            },
            {
                "pitch": 72,
                "velocity": 5,
                "duration": 0.0159,
                "tempo": 120.0
            },
            {
                "pitch": 72,
                "velocity": 5,
                "duration": 0.2818,
                "tempo": 120.0
            },
            {
                "pitch": 0,
                "velocity": 0,
                "duration": 0.0023,
                "tempo": 0
            },
            {
                "pitch": 70,
                "velocity": 5,
                "duration": 0.2636,
                "tempo": 120.0
            },
            {
                "pitch": 0,
                "velocity": 0,
                "duration": 0.0023,
                "tempo": 0
            },
            {
                "pitch": 69,
                "velocity": 5,
                "duration": 0.2659,
                "tempo": 120.0
            },
            {
                "pitch": 67,
                "velocity": 5,
                "duration": 0.25,
                "tempo": 120.0
            },
            {
                "pitch": 67,
                "velocity": 5,
                "duration": 0.0318,
                "tempo": 120.0
            },
            {
                "pitch": 0,
                "velocity": 0,
                "duration": 0.0023,
                "tempo": 0
            },
            {
                "pitch": 65,
                "velocity": 5,
                "duration": 0.2727,
                "tempo": 120.0
            },
            {
                "pitch": 0,
                "velocity": 0,
                "duration": 0.0023,
                "tempo": 0
            },
            {
                "pitch": 64,
                "velocity": 5,
                "duration": 0.275,
                "tempo": 120.0
            },
            {
                "pitch": 48,
                "velocity": 5,
                "duration": 13.9841,
                "tempo": 120.0
            },
            {
                "pitch": 60,
                "velocity": 5,
                "duration": 1.9114,
                "tempo": 120.0
            },
            {
                "pitch": 60,
                "velocity": 5,
                "duration": 0.2455,
                "tempo": 120.0
            },
            {
                "pitch": 60,
                "velocity": 5,
                "duration": 0.0318,
                "tempo": 120.0
            },
            {
                "pitch": 0,
                "velocity": 0,
                "duration": 0.0023,
                "tempo": 0
            },
            {
                "pitch": 62,
                "velocity": 5,
                "duration": 1.3795,
                "tempo": 120.0
            },
            {
                "pitch": 65,
                "velocity": 5,
                "duration": 0.2659,
                "tempo": 120.0
            },
            {
                "pitch": 67,
                "velocity": 5,
                "duration": 0.25,
                "tempo": 120.0
            },
            {
                "pitch": 79,
                "velocity": 5,
                "duration": 8.2409,
                "tempo": 120.0
            },
            {
                "pitch": 67,
                "velocity": 5,
                "duration": 0.0159,
                "tempo": 120.0
            },
            {
                "pitch": 69,
                "velocity": 5,
                "duration": 0.2773,
                "tempo": 120.0
            },
            {
                "pitch": 70,
                "velocity": 5,
                "duration": 0.5273,
                "tempo": 120.0
            },
            {
                "pitch": 0,
                "velocity": 0,
                "duration": 0.0023,
                "tempo": 0
            },
            {
                "pitch": 69,
                "velocity": 5,
                "duration": 0.2818,
                "tempo": 120.0
            },
            {
                "pitch": 67,
                "velocity": 5,
                "duration": 0.2545,
                "tempo": 120.0
            },
            {
                "pitch": 79,
                "velocity": 5,
                "duration": 1.3591,
                "tempo": 120.0
            },
            {
                "pitch": 67,
                "velocity": 5,
                "duration": 0.0159,
                "tempo": 120.0
            },
            {
                "pitch": 69,
                "velocity": 5,
                "duration": 0.2886,
                "tempo": 120.0
            },
            {
                "pitch": 67,
                "velocity": 5,
                "duration": 0.2591,
                "tempo": 120.0
            },
            {
                "pitch": 67,
                "velocity": 5,
                "duration": 0.0159,
                "tempo": 120.0
            },
            {
                "pitch": 0,
                "velocity": 0,
                "duration": 0.0023,
                "tempo": 0
            },
            {
                "pitch": 65,
                "velocity": 5,
                "duration": 0.275,
                "tempo": 120.0
            },
            {
                "pitch": 64,
                "velocity": 5,
                "duration": 0.2773,
                "tempo": 120.0
            },
            {
                "pitch": 0,
                "velocity": 0,
                "duration": 0.0023,
                "tempo": 0
            },
            {
                "pitch": 62,
                "velocity": 5,
                "duration": 1.3614,
                "tempo": 120.0
            }
        ],
        "Synth Bass 1": [
            {
                "pitch": 0,
                "velocity": 0,
                "duration": 0.8295,
                "tempo": 0
            },
            {
                "pitch": 52,
                "velocity": 1,
                "duration": 1.1091,
                "tempo": 120.0
            },
            {
                "pitch": 0,
                "velocity": 0,
                "duration": 1.0818,
                "tempo": 0
            },
            {
                "pitch": 53,
                "velocity": 1,
                "duration": 1.1182,
                "tempo": 120.0
            },
            {
                "pitch": 0,
                "velocity": 0,
                "duration": 0.0023,
                "tempo": 0
            },
            {
                "pitch": 53,
                "velocity": 1,
                "duration": 1.0795,
                "tempo": 120.0
            },
            {
                "pitch": 52,
                "velocity": 1,
                "duration": 1.1091,
                "tempo": 120.0
            },
            {
                "pitch": 0,
                "velocity": 0,
                "duration": 0.5432,
                "tempo": 0
            },
            {
                "pitch": 47,
                "velocity": 1,
                "duration": 0.5386,
                "tempo": 120.0
            },
            {
                "pitch": 48,
                "velocity": 1,
                "duration": 0.2864,
                "tempo": 120.0
            },
            {
                "pitch": 48,
                "velocity": 1,
                "duration": 0.0523,
                "tempo": 120.0
            },
            {
                "pitch": 36,
                "velocity": 1,
                "duration": 0.1364,
                "tempo": 120.0
            },
            {
                "pitch": 48,
                "velocity": 1,
                "duration": 0.0841,
                "tempo": 120.0
            },
            {
                "pitch": 48,
                "velocity": 1,
                "duration": 0.05,
                "tempo": 120.0
            },
            {
                "pitch": 52,
                "velocity": 1,
                "duration": 0.1341,
                "tempo": 120.0
            },
            {
                "pitch": 48,
                "velocity": 1,
                "duration": 0.0864,
                "tempo": 120.0
            },
            {
                "pitch": 50,
                "velocity": 1,
                "duration": 0.5591,
                "tempo": 120.0
            },
            {
                "pitch": 52,
                "velocity": 1,
                "duration": 2.8364,
                "tempo": 120.0
            },
            {
                "pitch": 52,
                "velocity": 1,
                "duration": 1.1068,
                "tempo": 120.0
            },
            {
                "pitch": 0,
                "velocity": 0,
                "duration": 1.0818,
                "tempo": 0
            },
            {
                "pitch": 53,
                "velocity": 1,
                "duration": 2.2,
                "tempo": 120.0
            },
            {
                "pitch": 52,
                "velocity": 1,
                "duration": 1.0909,
                "tempo": 120.0
            },
            {
                "pitch": 0,
                "velocity": 0,
                "duration": 0.55,
                "tempo": 0
            },
            {
                "pitch": 50,
                "velocity": 1,
                "duration": 0.5591,
                "tempo": 120.0
            },
            {
                "pitch": 36,
                "velocity": 1,
                "duration": 8.6568,
                "tempo": 120.0
            },
            {
                "pitch": 48,
                "velocity": 1,
                "duration": 0.2886,
                "tempo": 120.0
            },
            {
                "pitch": 48,
                "velocity": 1,
                "duration": 0.05,
                "tempo": 120.0
            },
            {
                "pitch": 36,
                "velocity": 1,
                "duration": 0.1341,
                "tempo": 120.0
            },
            {
                "pitch": 48,
                "velocity": 1,
                "duration": 0.0841,
                "tempo": 120.0
            },
            {
                "pitch": 48,
                "velocity": 1,
                "duration": 0.0523,
                "tempo": 120.0
            },
            {
                "pitch": 52,
                "velocity": 1,
                "duration": 0.1364,
                "tempo": 120.0
            },
            {
                "pitch": 48,
                "velocity": 1,
                "duration": 0.0841,
                "tempo": 120.0
            },
            {
                "pitch": 47,
                "velocity": 1,
                "duration": 0.5432,
                "tempo": 120.0
            },
            {
                "pitch": 45,
                "velocity": 1,
                "duration": 2.1705,
                "tempo": 120.0
            },
            {
                "pitch": 36,
                "velocity": 1,
                "duration": 3.1432,
                "tempo": 120.0
            },
            {
                "pitch": 48,
                "velocity": 1,
                "duration": 0.2932,
                "tempo": 120.0
            },
            {
                "pitch": 48,
                "velocity": 1,
                "duration": 0.05,
                "tempo": 120.0
            },
            {
                "pitch": 36,
                "velocity": 1,
                "duration": 0.1364,
                "tempo": 120.0
            },
            {
                "pitch": 48,
                "velocity": 1,
                "duration": 0.0864,
                "tempo": 120.0
            },
            {
                "pitch": 48,
                "velocity": 1,
                "duration": 0.0523,
                "tempo": 120.0
            },
            {
                "pitch": 36,
                "velocity": 1,
                "duration": 0.1386,
                "tempo": 120.0
            },
            {
                "pitch": 48,
                "velocity": 1,
                "duration": 0.0864,
                "tempo": 120.0
            },
            {
                "pitch": 48,
                "velocity": 1,
                "duration": 0.05,
                "tempo": 120.0
            },
            {
                "pitch": 36,
                "velocity": 1,
                "duration": 0.1341,
                "tempo": 120.0
            },
            {
                "pitch": 48,
                "velocity": 1,
                "duration": 0.0841,
                "tempo": 120.0
            },
            {
                "pitch": 48,
                "velocity": 1,
                "duration": 0.05,
                "tempo": 120.0
            },
            {
                "pitch": 36,
                "velocity": 1,
                "duration": 0.1318,
                "tempo": 120.0
            },
            {
                "pitch": 48,
                "velocity": 1,
                "duration": 0.0818,
                "tempo": 120.0
            },
            {
                "pitch": 48,
                "velocity": 1,
                "duration": 0.05,
                "tempo": 120.0
            },
            {
                "pitch": 36,
                "velocity": 1,
                "duration": 0.1341,
                "tempo": 120.0
            },
            {
                "pitch": 48,
                "velocity": 1,
                "duration": 0.0841,
                "tempo": 120.0
            },
            {
                "pitch": 48,
                "velocity": 1,
                "duration": 0.05,
                "tempo": 120.0
            },
            {
                "pitch": 36,
                "velocity": 1,
                "duration": 0.1318,
                "tempo": 120.0
            },
            {
                "pitch": 48,
                "velocity": 1,
                "duration": 0.0818,
                "tempo": 120.0
            },
            {
                "pitch": 48,
                "velocity": 1,
                "duration": 0.0182,
                "tempo": 120.0
            },
            {
                "pitch": 0,
                "velocity": 0,
                "duration": 0.2659,
                "tempo": 0
            },
            {
                "pitch": 46,
                "velocity": 1,
                "duration": 0.2659,
                "tempo": 120.0
            },
            {
                "pitch": 45,
                "velocity": 1,
                "duration": 0.2864,
                "tempo": 120.0
            },
            {
                "pitch": 0,
                "velocity": 0,
                "duration": 0.0023,
                "tempo": 0
            },
            {
                "pitch": 43,
                "velocity": 1,
                "duration": 0.2705,
                "tempo": 120.0
            },
            {
                "pitch": 45,
                "velocity": 1,
                "duration": 2.1886,
                "tempo": 120.0
            },
            {
                "pitch": 0,
                "velocity": 0,
                "duration": 0.0023,
                "tempo": 0
            },
            {
                "pitch": 50,
                "velocity": 1,
                "duration": 1.1,
                "tempo": 120.0
            },
            {
                "pitch": 49,
                "velocity": 1,
                "duration": 1.1091,
                "tempo": 120.0
            },
            {
                "pitch": 45,
                "velocity": 1,
                "duration": 2.1795,
                "tempo": 120.0
            },
            {
                "pitch": 36,
                "velocity": 1,
                "duration": 7.9818,
                "tempo": 120.0
            },
            {
                "pitch": 48,
                "velocity": 1,
                "duration": 0.2909,
                "tempo": 120.0
            },
            {
                "pitch": 48,
                "velocity": 1,
                "duration": 0.0523,
                "tempo": 120.0
            },
            {
                "pitch": 36,
                "velocity": 1,
                "duration": 0.1386,
                "tempo": 120.0
            },
            {
                "pitch": 48,
                "velocity": 1,
                "duration": 0.0864,
                "tempo": 120.0
            },
            {
                "pitch": 48,
                "velocity": 1,
                "duration": 0.05,
                "tempo": 120.0
            },
            {
                "pitch": 36,
                "velocity": 1,
                "duration": 0.1364,
                "tempo": 120.0
            },
            {
                "pitch": 48,
                "velocity": 1,
                "duration": 0.0864,
                "tempo": 120.0
            },
            {
                "pitch": 48,
                "velocity": 1,
                "duration": 0.05,
                "tempo": 120.0
            },
            {
                "pitch": 36,
                "velocity": 1,
                "duration": 0.1318,
                "tempo": 120.0
            },
            {
                "pitch": 48,
                "velocity": 1,
                "duration": 0.0818,
                "tempo": 120.0
            },
            {
                "pitch": 48,
                "velocity": 1,
                "duration": 0.0477,
                "tempo": 120.0
            },
            {
                "pitch": 36,
                "velocity": 1,
                "duration": 0.1318,
                "tempo": 120.0
            },
            {
                "pitch": 48,
                "velocity": 1,
                "duration": 0.0841,
                "tempo": 120.0
            },
            {
                "pitch": 48,
                "velocity": 1,
                "duration": 0.0477,
                "tempo": 120.0
            },
            {
                "pitch": 36,
                "velocity": 1,
                "duration": 0.1295,
                "tempo": 120.0
            },
            {
                "pitch": 48,
                "velocity": 1,
                "duration": 0.0818,
                "tempo": 120.0
            },
            {
                "pitch": 48,
                "velocity": 1,
                "duration": 0.0477,
                "tempo": 120.0
            },
            {
                "pitch": 48,
                "velocity": 1,
                "duration": 0.0818,
                "tempo": 120.0
            },
            {
                "pitch": 0,
                "velocity": 0,
                "duration": 0.2886,
                "tempo": 0
            },
            {
                "pitch": 46,
                "velocity": 1,
                "duration": 0.2705,
                "tempo": 120.0
            },
            {
                "pitch": 45,
                "velocity": 1,
                "duration": 0.2705,
                "tempo": 120.0
            },
            {
                "pitch": 0,
                "velocity": 0,
                "duration": 0.0023,
                "tempo": 0
            },
            {
                "pitch": 43,
                "velocity": 1,
                "duration": 0.2864,
                "tempo": 120.0
            },
            {
                "pitch": 0,
                "velocity": 0,
                "duration": 0.0023,
                "tempo": 0
            },
            {
                "pitch": 45,
                "velocity": 1,
                "duration": 2.1795,
                "tempo": 120.0
            },
            {
                "pitch": 43,
                "velocity": 1,
                "duration": 0.2932,
                "tempo": 120.0
            },
            {
                "pitch": 43,
                "velocity": 1,
                "duration": 0.0523,
                "tempo": 120.0
            },
            {
                "pitch": 43,
                "velocity": 1,
                "duration": 0.0841,
                "tempo": 120.0
            },
            {
                "pitch": 55,
                "velocity": 1,
                "duration": 0.1364,
                "tempo": 120.0
            },
            {
                "pitch": 43,
                "velocity": 1,
                "duration": 0.0523,
                "tempo": 120.0
            },
            {
                "pitch": 43,
                "velocity": 1,
                "duration": 0.0864,
                "tempo": 120.0
            },
            {
                "pitch": 43,
                "velocity": 1,
                "duration": 0.05,
                "tempo": 120.0
            },
            {
                "pitch": 43,
                "velocity": 1,
                "duration": 0.0818,
                "tempo": 120.0
            },
            {
                "pitch": 55,
                "velocity": 1,
                "duration": 0.2705,
                "tempo": 120.0
            },
            {
                "pitch": 43,
                "velocity": 1,
                "duration": 0.0477,
                "tempo": 120.0
            },
            {
                "pitch": 43,
                "velocity": 1,
                "duration": 0.0818,
                "tempo": 120.0
            },
            {
                "pitch": 0,
                "velocity": 0,
                "duration": 0.0023,
                "tempo": 0
            },
            {
                "pitch": 43,
                "velocity": 1,
                "duration": 0.275,
                "tempo": 120.0
            },
            {
                "pitch": 43,
                "velocity": 1,
                "duration": 0.0523,
                "tempo": 120.0
            },
            {
                "pitch": 43,
                "velocity": 1,
                "duration": 0.0841,
                "tempo": 120.0
            },
            {
                "pitch": 55,
                "velocity": 1,
                "duration": 0.5432,
                "tempo": 120.0
            },
            {
                "pitch": 43,
                "velocity": 1,
                "duration": 0.0523,
                "tempo": 120.0
            },
            {
                "pitch": 43,
                "velocity": 1,
                "duration": 0.0841,
                "tempo": 120.0
            },
            {
                "pitch": 55,
                "velocity": 1,
                "duration": 0.1364,
                "tempo": 120.0
            },
            {
                "pitch": 43,
                "velocity": 1,
                "duration": 0.05,
                "tempo": 120.0
            },
            {
                "pitch": 43,
                "velocity": 1,
                "duration": 0.0841,
                "tempo": 120.0
            },
            {
                "pitch": 55,
                "velocity": 1,
                "duration": 0.1341,
                "tempo": 120.0
            },
            {
                "pitch": 43,
                "velocity": 1,
                "duration": 0.0523,
                "tempo": 120.0
            },
            {
                "pitch": 43,
                "velocity": 1,
                "duration": 0.0841,
                "tempo": 120.0
            },
            {
                "pitch": 55,
                "velocity": 1,
                "duration": 0.1364,
                "tempo": 120.0
            },
            {
                "pitch": 43,
                "velocity": 1,
                "duration": 0.05,
                "tempo": 120.0
            },
            {
                "pitch": 43,
                "velocity": 1,
                "duration": 0.0864,
                "tempo": 120.0
            },
            {
                "pitch": 55,
                "velocity": 1,
                "duration": 0.1364,
                "tempo": 120.0
            },
            {
                "pitch": 43,
                "velocity": 1,
                "duration": 0.05,
                "tempo": 120.0
            },
            {
                "pitch": 43,
                "velocity": 1,
                "duration": 0.0841,
                "tempo": 120.0
            },
            {
                "pitch": 55,
                "velocity": 1,
                "duration": 0.1341,
                "tempo": 120.0
            },
            {
                "pitch": 43,
                "velocity": 1,
                "duration": 0.0523,
                "tempo": 120.0
            },
            {
                "pitch": 43,
                "velocity": 1,
                "duration": 0.0841,
                "tempo": 120.0
            },
            {
                "pitch": 55,
                "velocity": 1,
                "duration": 0.1364,
                "tempo": 120.0
            },
            {
                "pitch": 43,
                "velocity": 1,
                "duration": 0.05,
                "tempo": 120.0
            },
            {
                "pitch": 43,
                "velocity": 1,
                "duration": 0.0864,
                "tempo": 120.0
            }
        ],
        "Acoustic Grand Piano": [
            {
                "pitch": 0,
                "velocity": 0,
                "duration": 34.8477,
                "tempo": 0
            },
            {
                "pitch": 108,
                "velocity": 15,
                "duration": 0.1,
                "tempo": 120.0
            }
        ]
    }
}