{
    "track_id": "01 Sample 1_13",
    "mood": "happy",
    "instruments": {
        "Lead 1 (square)": [
            {
                "pitch": 50,
                "velocity": 8,
                "duration": 0.1,
                "tempo": 120.0
            },
            {
                "pitch": 50,
                "velocity": 8,
                "duration": 0.1,
                "tempo": 120.0
            },
            {
                "pitch": 50,
                "velocity": 8,
                "duration": 0.1,
                "tempo": 120.0
            },
            {
                "pitch": 52,
                "velocity": 8,
                "duration": 0.1,
                "tempo": 120.0
            },
            {
                "pitch": 0,
                "velocity": 0,
                "duration": 0.0955,
                "tempo": 0
            },
            {
                "pitch": 38,
                "velocity": 8,
                "duration": 0.0955,
                "tempo": 120.0
            },
            {
                "pitch": 38,
                "velocity": 8,
                "duration": 0.0955,
                "tempo": 120.0
            },
            {
                "pitch": 38,
                "velocity": 8,
                "duration": 0.0955,
                "tempo": 120.0
            },
            {
                "pitch": 40,
                "velocity": 8,
                "duration": 0.1045,
                "tempo": 120.0
            },
            {
                "pitch": 0,
                "velocity": 0,
                "duration": 0.2114,
                "tempo": 0
            },
            {
                "pitch": 60,
                "velocity": 8,
                "duration": 0.1045,
                "tempo": 120.0
            },
            {
                "pitch": 60,
                "velocity": 8,
                "duration": 0.1,
                "tempo": 120.0
            },
            {
                "pitch": 60,
                "velocity": 8,
                "duration": 0.0977,
                "tempo": 120.0
            },
            {
                "pitch": 62,
                "velocity": 8,
                "duration": 0.0977,
                "tempo": 120.0
            },
            {
                "pitch": 0,
                "velocity": 0,
                "duration": 0.0977,
                "tempo": 0
            },
            {
                "pitch": 62,
                "velocity": 8,
                "duration": 0.1,
                "tempo": 120.0
            },
            {
                "pitch": 62,
                "velocity": 8,
                "duration": 0.1023,
                "tempo": 120.0
            },
            {
                "pitch": 62,
                "velocity": 8,
                "duration": 0.1,
                "tempo": 120.0
            },
            {
                "pitch": 64,
                "velocity": 8,
                "duration": 0.1,
                "tempo": 120.0
            },
            {
                "pitch": 0,
                "velocity": 0,
                "duration": 0.0977,
                "tempo": 0
            },
            {
                "pitch": 50,
                "velocity": 8,
                "duration": 0.0977,
                "tempo": 120.0
            },
            {
                "pitch": 50,
                "velocity": 8,
                "duration": 0.0977,
                "tempo": 120.0
            },
            {
                "pitch": 50,
                "velocity": 8,
                "duration": 0.1,
                "tempo": 120.0
            },
            {
                "pitch": 52,
                "velocity": 8,
                "duration": 0.1045,
                "tempo": 120.0
            },
            {
                "pitch": 0,
                "velocity": 0,
                "duration": 0.2114,
                "tempo": 0
            },
            {
                "pitch": 48,
                "velocity": 8,
                "duration": 0.1045,
                "tempo": 120.0
            },
            {
                "pitch": 48,
                "velocity": 8,
                "duration": 0.0977,
                "tempo": 120.0
            },
            {
                "pitch": 48,
                "velocity": 8,
                "duration": 0.0977,
                "tempo": 120.0
            },
            {
                "pitch": 50,
                "velocity": 8,
                "duration": 0.1,
                "tempo": 120.0
            },
            {
                "pitch": 0,
                "velocity": 0,
                "duration": 20.975,
                "tempo": 0
            },
            {
                "pitch": 69,
                "velocity": 10,
                "duration": 0.1,
                "tempo": 120.0
            },
            {
                "pitch": 0,
                "velocity": 0,
                "duration": 0.1023,
                "tempo": 0
            },
            {
                "pitch": 67,
                "velocity": 10,
                "duration": 0.1,
                "tempo": 120.0
            },
            {
                "pitch": 0,
                "velocity": 0,
                "duration": 0.1,
                "tempo": 0
            },
            {
                "pitch": 65,
                "velocity": 10,
                "duration": 0.1,
                "tempo": 120.0
            },
            {
                "pitch": 67,
                "velocity": 10,
                "duration": 0.1,
                "tempo": 120.0
            },
            {
                "pitch": 0,
                "velocity": 0,
                "duration": 0.1,
                "tempo": 0
            },
            {
                "pitch": 65,
                "velocity": 10,
                "duration": 0.1,
                "tempo": 120.0
            },
            {
                "pitch": 0,
                "velocity": 0,
                "duration": 0.1,
                "tempo": 0
            },
            {
                "pitch": 65,
                "velocity": 10,
                "duration": 0.1,
                "tempo": 120.0
            },
            {
                "pitch": 62,
                "velocity": 10,
                "duration": 0.1,
                "tempo": 120.0
            },
            {
                "pitch": 0,
                "velocity": 0,
                "duration": 0.1,
                "tempo": 0
            },
            {
                "pitch": 60,
                "velocity": 10,
                "duration": 0.1,
                "tempo": 120.0
            },
            {
                "pitch": 0,
                "velocity": 0,
                "duration": 0.1023,
                "tempo": 0
            },
            {
                "pitch": 62,
                "velocity": 10,
                "duration": 0.1,
                "tempo": 120.0
            }
        ],
        "Lead 2 (sawtooth)": [
            {
                "pitch": 0,
                "velocity": 0,
                "duration": 15.9614,
                "tempo": 0
            },
            {
                "pitch": 62,
                "velocity": 8,
                "duration": 1.6045,
                "tempo": 120.0
            },
            {
                "pitch": 64,
                "velocity": 8,
                "duration": 1.6023,
                "tempo": 120.0
            },
            {
                "pitch": 62,
                "velocity": 8,
                "duration": 1.6045,
                "tempo": 120.0
            },
            {
                "pitch": 64,
                "velocity": 8,
                "duration": 1.6068,
                "tempo": 120.0
            },
            {
                "pitch": 65,
                "velocity": 8,
                "duration": 3.2068,
                "tempo": 120.0
            }
        ],
        "Synth Bass 1": [
            {
                "pitch": 0,
                "velocity": 0,
                "duration": 3.2045,
                "tempo": 0
            },
            {
                "pitch": 26,
                "velocity": 1,
                "duration": 0.1,
                "tempo": 120.0
            },
            {
                "pitch": 0,
                "velocity": 0,
                "duration": 0.1,
                "tempo": 0
            },
            {
                "pitch": 38,
                "velocity": 1,
                "duration": 0.1,
                "tempo": 120.0
            },
            {
                "pitch": 38,
                "velocity": 1,
                "duration": 0.1,
                "tempo": 120.0
            },
            {
                "pitch": 26,
                "velocity": 1,
                "duration": 0.1,
                "tempo": 120.0
            },
            {
                "pitch": 0,
                "velocity": 0,
                "duration": 0.1,
                "tempo": 0
            },
            {
                "pitch": 38,
                "velocity": 1,
                "duration": 0.1,
                "tempo": 120.0
            },
            {
                "pitch": 38,
                "velocity": 1,
                "duration": 0.1,
                "tempo": 120.0
            },
            {
                "pitch": 26,
                "velocity": 1,
                "duration": 0.1,
                "tempo": 120.0
            },
            {
                "pitch": 0,
                "velocity": 0,
                "duration": 0.1,
                "tempo": 0
            },
            {
                "pitch": 38,
                "velocity": 1,
                "duration": 0.1,
                "tempo": 120.0
            },
            {
                "pitch": 38,
                "velocity": 1,
                "duration": 0.1,
                "tempo": 120.0
            },
            {
                "pitch": 26,
                "velocity": 1,
                "duration": 0.1,
                "tempo": 120.0
            },
            {
                "pitch": 0,
                "velocity": 0,
                "duration": 0.1,
                "tempo": 0
            },
            {
                "pitch": 38,
                "velocity": 1,
                "duration": 0.1023,
                "tempo": 120.0
            },
            {
                "pitch": 38,
                "velocity": 1,
                "duration": 0.1,
                "tempo": 120.0
            },
            {
                "pitch": 26,
                "velocity": 1,
                "duration": 0.1,
                "tempo": 120.0
            },
            {
                "pitch": 0,
                "velocity": 0,
                "duration": 0.1,
                "tempo": 0
            },
            {
                "pitch": 38,
                "velocity": 1,
                "duration": 0.1,
                "tempo": 120.0
            },
            {
                "pitch": 38,
                "velocity": 1,
                "duration": 0.1,
                "tempo": 120.0
            },
            {
                "pitch": 26,
                "velocity": 1,
                "duration": 0.1,
                "tempo": 120.0
            },
            {
                "pitch": 0,
                "velocity": 0,
                "duration": 0.1,
                "tempo": 0
            },
            {
                "pitch": 38,
                "velocity": 1,
                "duration": 0.1023,
                "tempo": 120.0
            },
            {
                "pitch": 38,
                "velocity": 1,
                "duration": 0.1,
                "tempo": 120.0
            },
            {
                "pitch": 26,
                "velocity": 1,
                "duration": 0.1,
                "tempo": 120.0
            },
            {
                "pitch": 0,
                "velocity": 0,
                "duration": 0.1023,
                "tempo": 0
            },
            {
                "pitch": 38,
                "velocity": 1,
                "duration": 0.1,
                "tempo": 120.0
            },
            {
                "pitch": 38,
                "velocity": 1,
                "duration": 0.1,
                "tempo": 120.0
            },
            {
                "pitch": 26,
                "velocity": 1,
                "duration": 0.1,
                "tempo": 120.0
            },
            {
                "pitch": 28,
                "velocity": 1,
                "duration": 0.1,
                "tempo": 120.0
            },
            {
                "pitch": 29,
                "velocity": 1,
                "duration": 0.1,
                "tempo": 120.0
            },
            {
                "pitch": 26,
                "velocity": 1,
                "duration": 0.1,
                "tempo": 120.0
            },
            {
                "pitch": 34,
                "velocity": 1,
                "duration": 0.1023,
                "tempo": 120.0
            },
            {
                "pitch": 0,
                "velocity": 0,
                "duration": 0.1,
                "tempo": 0
            },
            {
                "pitch": 46,
                "velocity": 1,
                "duration": 0.1,
                "tempo": 120.0
            },
            {
                "pitch": 46,
                "velocity": 1,
                "duration": 0.1,
                "tempo": 120.0
            },
            {
                "pitch": 34,
                "velocity": 1,
                "duration": 0.1,
                "tempo": 120.0
            },
            {
                "pitch": 0,
                "velocity": 0,
                "duration": 0.1,
                "tempo": 0
            },
            {
                "pitch": 46,
                "velocity": 1,
                "duration": 0.1,
                "tempo": 120.0
            },
            {
                "pitch": 46,
                "velocity": 1,
                "duration": 0.1,
                "tempo": 120.0
            },
            {
                "pitch": 34,
                "velocity": 1,
                "duration": 0.1023,
                "tempo": 120.0
            },
            {
                "pitch": 0,
                "velocity": 0,
                "duration": 0.1,
                "tempo": 0
            },
            {
                "pitch": 46,
                "velocity": 1,
                "duration": 0.1,
                "tempo": 120.0
            },
            {
                "pitch": 46,
                "velocity": 1,
                "duration": 0.1023,
                "tempo": 120.0
            },
            {
                "pitch": 34,
                "velocity": 1,
                "duration": 0.1,
                "tempo": 120.0
            },
            {
                "pitch": 0,
                "velocity": 0,
                "duration": 0.1,
                "tempo": 0
            },
            {
                "pitch": 46,
                "velocity": 1,
                "duration": 0.1023,
                "tempo": 120.0
            },
            {
                "pitch": 46,
                "velocity": 1,
                "duration": 0.1,
                "tempo": 120.0
            },
            {
                "pitch": 34,
                "velocity": 1,
                "duration": 0.1,
                "tempo": 120.0
            },
            {
                "pitch": 0,
                "velocity": 0,
                "duration": 0.1,
                "tempo": 0
            },
            {
                "pitch": 46,
                "velocity": 1,
                "duration": 0.1,
                "tempo": 120.0
            },
            {
                "pitch": 46,
                "velocity": 1,
                "duration": 0.1,
                "tempo": 120.0
            },
            {
                "pitch": 34,
                "velocity": 1,
                "duration": 0.1,
                "tempo": 120.0
            },
            {
                "pitch": 0,
                "velocity": 0,
                "duration": 0.1,
                "tempo": 0
            },
            {
                "pitch": 46,
                "velocity": 1,
                "duration": 0.1023,
                "tempo": 120.0
            },
            {
                "pitch": 46,
                "velocity": 1,
                "duration": 0.1,
                "tempo": 120.0
            },
            {
                "pitch": 34,
                "velocity": 1,
                "duration": 0.1,
                "tempo": 120.0
            },
            {
                "pitch": 0,
                "velocity": 0,
                "duration": 0.1023,
                "tempo": 0
            },
            {
                "pitch": 46,
                "velocity": 1,
                "duration": 0.1,
                "tempo": 120.0
            },
            {
                "pitch": 46,
                "velocity": 1,
                "duration": 0.1,
                "tempo": 120.0
            },
            {
                "pitch": 34,
                "velocity": 1,
                "duration": 0.1,
                "tempo": 120.0
            },
            {
                "pitch": 36,
                "velocity": 1,
                "duration": 0.1023,
                "tempo": 120.0
            },
            {
                "pitch": 38,
                "velocity": 1,
                "duration": 0.1,
                "tempo": 120.0
            },
            {
                "pitch": 34,
                "velocity": 1,
                "duration": 0.1,
                "tempo": 120.0
            },
            {
                "pitch": 31,
                "velocity": 1,
                "duration": 0.1,
                "tempo": 120.0
            },
            {
                "pitch": 0,
                "velocity": 0,
                "duration": 0.1,
                "tempo": 0
            },
            {
                "pitch": 43,
                "velocity": 1,
                "duration": 0.1,
                "tempo": 120.0
            },
            {
                "pitch": 43,
                "velocity": 1,
                "duration": 0.1,
                "tempo": 120.0
            },
            {
                "pitch": 31,
                "velocity": 1,
                "duration": 0.1023,
                "tempo": 120.0
            },
            {
                "pitch": 0,
                "velocity": 0,
                "duration": 0.1,
                "tempo": 0
            },
            {
                "pitch": 43,
                "velocity": 1,
                "duration": 0.1,
                "tempo": 120.0
            },
            {
                "pitch": 43,
                "velocity": 1,
                "duration": 0.1023,
                "tempo": 120.0
            },
            {
                "pitch": 31,
                "velocity": 1,
                "duration": 0.1,
                "tempo": 120.0
            },
            {
                "pitch": 0,
                "velocity": 0,
                "duration": 0.1,
                "tempo": 0
            },
            {
                "pitch": 43,
                "velocity": 1,
                "duration": 0.1,
                "tempo": 120.0
            },
            {
                "pitch": 43,
                "velocity": 1,
                "duration": 0.1023,
                "tempo": 120.0
            },
            {
                "pitch": 31,
                "velocity": 1,
                "duration": 0.1,
                "tempo": 120.0
            },
            {
                "pitch": 0,
                "velocity": 0,
                "duration": 0.1,
                "tempo": 0
            },
            {
                "pitch": 43,
                "velocity": 1,
                "duration": 0.1023,
                "tempo": 120.0
            },
            {
                "pitch": 43,
                "velocity": 1,
                "duration": 0.1,
                "tempo": 120.0
            },
            {
                "pitch": 31,
                "velocity": 1,
                "duration": 0.1,
                "tempo": 120.0
            },
            {
                "pitch": 0,
                "velocity": 0,
                "duration": 0.1,
                "tempo": 0
            },
            {
                "pitch": 43,
                "velocity": 1,
                "duration": 0.1023,
                "tempo": 120.0
            },
            {
                "pitch": 43,
                "velocity": 1,
                "duration": 0.1,
                "tempo": 120.0
            },
            {
                "pitch": 31,
                "velocity": 1,
                "duration": 0.1,
                "tempo": 120.0
            },
            {
                "pitch": 0,
                "velocity": 0,
                "duration": 0.1,
                "tempo": 0
            },
            {
                "pitch": 43,
                "velocity": 1,
                "duration": 0.1,
                "tempo": 120.0
            },
            {
                "pitch": 43,
                "velocity": 1,
                "duration": 0.1,
                "tempo": 120.0
            },
            {
                "pitch": 31,
                "velocity": 1,
                "duration": 0.1,
                "tempo": 120.0
            },
            {
                "pitch": 0,
                "velocity": 0,
                "duration": 0.1023,
                "tempo": 0
            },
            {
                "pitch": 43,
                "velocity": 1,
                "duration": 0.1,
                "tempo": 120.0
            },
            {
                "pitch": 43,
                "velocity": 1,
                "duration": 0.1,
                "tempo": 120.0
            },
            {
                "pitch": 31,
                "velocity": 1,
                "duration": 0.1023,
                "tempo": 120.0
            },
            {
                "pitch": 33,
                "velocity": 1,
                "duration": 0.1,
                "tempo": 120.0
            },
            {
                "pitch": 34,
                "velocity": 1,
                "duration": 0.1,
                "tempo": 120.0
            },
            {
                "pitch": 31,
                "velocity": 1,
                "duration": 0.1,
                "tempo": 120.0
            },
            {
                "pitch": 26,
                "velocity": 1,
                "duration": 0.1023,
                "tempo": 120.0
            },
            {
                "pitch": 0,
                "velocity": 0,
                "duration": 0.1,
                "tempo": 0
            },
            {
                "pitch": 38,
                "velocity": 1,
                "duration": 0.1,
                "tempo": 120.0
            },
            {
                "pitch": 38,
                "velocity": 1,
                "duration": 0.1023,
                "tempo": 120.0
            },
            {
                "pitch": 26,
                "velocity": 1,
                "duration": 0.1,
                "tempo": 120.0
            },
            {
                "pitch": 0,
                "velocity": 0,
                "duration": 0.1,
                "tempo": 0
            },
            {
                "pitch": 38,
                "velocity": 1,
                "duration": 0.1023,
                "tempo": 120.0
            },
            {
                "pitch": 38,
                "velocity": 1,
                "duration": 0.1,
                "tempo": 120.0
            },
            {
                "pitch": 26,
                "velocity": 1,
                "duration": 0.1,
                "tempo": 120.0
            },
            {
                "pitch": 0,
                "velocity": 0,
                "duration": 0.1,
                "tempo": 0
            },
            {
                "pitch": 38,
                "velocity": 1,
                "duration": 0.1,
                "tempo": 120.0
            },
            {
                "pitch": 38,
                "velocity": 1,
                "duration": 0.1,
                "tempo": 120.0
            },
            {
                "pitch": 26,
                "velocity": 1,
                "duration": 0.1,
                "tempo": 120.0
            },
            {
                "pitch": 0,
                "velocity": 0,
                "duration": 0.1,
                "tempo": 0
            },
            {
                "pitch": 38,
                "velocity": 1,
                "duration": 0.1023,
                "tempo": 120.0
            },
            {
                "pitch": 38,
                "velocity": 1,
                "duration": 0.1,
                "tempo": 120.0
            },
            {
                "pitch": 26,
                "velocity": 1,
                "duration": 0.1,
                "tempo": 120.0
            },
            {
                "pitch": 0,
                "velocity": 0,
                "duration": 0.1023,
                "tempo": 0
            },
            {
                "pitch": 38,
                "velocity": 1,
                "duration": 0.1,
                "tempo": 120.0
            },
            {
                "pitch": 38,
                "velocity": 1,
                "duration": 0.1,
                "tempo": 120.0
            },
            {
                "pitch": 26,
                "velocity": 1,
                "duration": 0.1,
                "tempo": 120.0
            },
            {
                "pitch": 0,
                "velocity": 0,
                "duration": 0.1023,
                "tempo": 0
            },
            {
                "pitch": 38,
                "velocity": 1,
                "duration": 0.1,
                "tempo": 120.0
            },
            {
                "pitch": 38,
                "velocity": 1,
                "duration": 0.1,
                "tempo": 120.0
            },
            {
                "pitch": 26,
                "velocity": 1,
                "duration": 0.1023,
                "tempo": 120.0
            },
            {
                "pitch": 0,
                "velocity": 0,
                "duration": 0.1,
                "tempo": 0
            },
            {
                "pitch": 38,
                "velocity": 1,
                "duration": 0.1,
                "tempo": 120.0
            },
            {
                "pitch": 38,
                "velocity": 1,
                "duration": 0.1023,
                "tempo": 120.0
            },
            {
                "pitch": 26,
                "velocity": 1,
                "duration": 0.1,
                "tempo": 120.0
            },
            {
                "pitch": 28,
                "velocity": 1,
                "duration": 0.1,
                "tempo": 120.0
            },
            {
                "pitch": 29,
                "velocity": 1,
                "duration": 0.1,
                "tempo": 120.0
            },
            {
                "pitch": 33,
                "velocity": 1,
                "duration": 0.1,
                "tempo": 120.0
            },
            {
                "pitch": 34,
                "velocity": 1,
                "duration": 0.1,
                "tempo": 120.0
            },
            {
                "pitch": 0,
                "velocity": 0,
                "duration": 0.1,
                "tempo": 0
            },
            {
                "pitch": 46,
                "velocity": 1,
                "duration": 0.1,
                "tempo": 120.0
            },
            {
                "pitch": 46,
                "velocity": 1,
                "duration": 0.1023,
                "tempo": 120.0
            },
            {
                "pitch": 34,
                "velocity": 1,
                "duration": 0.1,
                "tempo": 120.0
            },
            {
                "pitch": 0,
                "velocity": 0,
                "duration": 0.1,
                "tempo": 0
            },
            {
                "pitch": 46,
                "velocity": 1,
                "duration": 0.1,
                "tempo": 120.0
            },
            {
                "pitch": 46,
                "velocity": 1,
                "duration": 0.1,
                "tempo": 120.0
            },
            {
                "pitch": 34,
                "velocity": 1,
                "duration": 0.1,
                "tempo": 120.0
            },
            {
                "pitch": 0,
                "velocity": 0,
                "duration": 0.1,
                "tempo": 0
            },
            {
                "pitch": 46,
                "velocity": 1,
                "duration": 0.1,
                "tempo": 120.0
            },
            {
                "pitch": 46,
                "velocity": 1,
                "duration": 0.1,
                "tempo": 120.0
            },
            {
                "pitch": 34,
                "velocity": 1,
                "duration": 0.1,
                "tempo": 120.0
            },
            {
                "pitch": 0,
                "velocity": 0,
                "duration": 0.1,
                "tempo": 0
            },
            {
                "pitch": 46,
                "velocity": 1,
                "duration": 0.1023,
                "tempo": 120.0
            },
            {
                "pitch": 46,
                "velocity": 1,
                "duration": 0.1,
                "tempo": 120.0
            },
            {
                "pitch": 36,
                "velocity": 1,
                "duration": 0.1,
                "tempo": 120.0
            },
            {
                "pitch": 0,
                "velocity": 0,
                "duration": 0.1,
                "tempo": 0
            },
            {
                "pitch": 48,
                "velocity": 1,
                "duration": 0.1,
                "tempo": 120.0
            },
            {
                "pitch": 48,
                "velocity": 1,
                "duration": 0.1,
                "tempo": 120.0
            },
            {
                "pitch": 36,
                "velocity": 1,
                "duration": 0.1,
                "tempo": 120.0
            },
            {
                "pitch": 0,
                "velocity": 0,
                "duration": 0.1,
                "tempo": 0
            },
            {
                "pitch": 48,
                "velocity": 1,
                "duration": 0.1023,
                "tempo": 120.0
            },
            {
                "pitch": 48,
                "velocity": 1,
                "duration": 0.1,
                "tempo": 120.0
            },
            {
                "pitch": 36,
                "velocity": 1,
                "duration": 0.1,
                "tempo": 120.0
            },
            {
                "pitch": 0,
                "velocity": 0,
                "duration": 0.1,
                "tempo": 0
            },
            {
                "pitch": 48,
                "velocity": 1,
                "duration": 0.1,
                "tempo": 120.0
            },
            {
                "pitch": 48,
                "velocity": 1,
                "duration": 0.1,
                "tempo": 120.0
            },
            {
                "pitch": 36,
                "velocity": 1,
                "duration": 0.1,
                "tempo": 120.0
            },
            {
                "pitch": 38,
                "velocity": 1,
                "duration": 0.1,
                "tempo": 120.0
            },
            {
                "pitch": 40,
                "velocity": 1,
                "duration": 0.1,
                "tempo": 120.0
            },
            {
                "pitch": 36,
                "velocity": 1,
                "duration": 0.1,
                "tempo": 120.0
            },
            {
                "pitch": 34,
                "velocity": 1,
                "duration": 0.1,
                "tempo": 120.0
            },
            {
                "pitch": 0,
                "velocity": 0,
                "duration": 0.1023,
                "tempo": 0
            },
            {
                "pitch": 46,
                "velocity": 1,
                "duration": 0.1,
                "tempo": 120.0
            },
            {
                "pitch": 46,
                "velocity": 1,
                "duration": 0.1,
                "tempo": 120.0
            },
            {
                "pitch": 34,
                "velocity": 1,
                "duration": 0.1,
                "tempo": 120.0
            },
            {
                "pitch": 0,
                "velocity": 0,
                "duration": 0.1,
                "tempo": 0
            },
            {
                "pitch": 46,
                "velocity": 1,
                "duration": 0.1,
                "tempo": 120.0
            },
            {
                "pitch": 46,
                "velocity": 1,
                "duration": 0.1,
                "tempo": 120.0
            },
            {
                "pitch": 34,
                "velocity": 1,
                "duration": 0.1023,
                "tempo": 120.0
            },
            {
                "pitch": 0,
                "velocity": 0,
                "duration": 0.1,
                "tempo": 0
            },
            {
                "pitch": 46,
                "velocity": 1,
                "duration": 0.1,
                "tempo": 120.0
            },
            {
                "pitch": 46,
                "velocity": 1,
                "duration": 0.1,
                "tempo": 120.0
            },
            {
                "pitch": 34,
                "velocity": 1,
                "duration": 0.1,
                "tempo": 120.0
            },
            {
                "pitch": 0,
                "velocity": 0,
                "duration": 0.1,
                "tempo": 0
            },
            {
                "pitch": 46,
                "velocity": 1,
                "duration": 0.1,
                "tempo": 120.0
            },
            {
                "pitch": 46,
                "velocity": 1,
                "duration": 0.1,
                "tempo": 120.0
            },
            {
                "pitch": 36,
                "velocity": 1,
                "duration": 0.1,
                "tempo": 120.0
            },
            {
                "pitch": 0,
                "velocity": 0,
                "duration": 0.1,
                "tempo": 0
            },
            {
                "pitch": 48,
                "velocity": 1,
                "duration": 0.1,
                "tempo": 120.0
            },
            {
                "pitch": 48,
                "velocity": 1,
                "duration": 0.1,
                "tempo": 120.0
            },
            {
                "pitch": 36,
                "velocity": 1,
                "duration": 0.1023,
                "tempo": 120.0
            },
            {
                "pitch": 0,
                "velocity": 0,
                "duration": 0.1,
                "tempo": 0
            },
            {
                "pitch": 48,
                "velocity": 1,
                "duration": 0.1,
                "tempo": 120.0
            },
            {
                "pitch": 48,
                "velocity": 1,
                "duration": 0.1023,
                "tempo": 120.0
            },
            {
                "pitch": 36,
                "velocity": 1,
                "duration": 0.1,
                "tempo": 120.0
            },
            {
                "pitch": 0,
                "velocity": 0,
                "duration": 0.1,
                "tempo": 0
            },
            {
                "pitch": 48,
                "velocity": 1,
                "duration": 0.1,
                "tempo": 120.0
            },
            {
                "pitch": 48,
                "velocity": 1,
                "duration": 0.1,
                "tempo": 120.0
            },
            {
                "pitch": 36,
                "velocity": 1,
                "duration": 0.1,
                "tempo": 120.0
            },
            {
                "pitch": 38,
                "velocity": 1,
                "duration": 0.1,
                "tempo": 120.0
            },
            {
                "pitch": 40,
                "velocity": 1,
                "duration": 0.1023,
                "tempo": 120.0
            },
            {
                "pitch": 36,
                "velocity": 1,
                "duration": 0.1,
                "tempo": 120.0
            },
            {
                "pitch": 26,
                "velocity": 1,
                "duration": 0.1,
                "tempo": 120.0
            },
            {
                "pitch": 0,
                "velocity": 0,
                "duration": 0.1,
                "tempo": 0
            },
            {
                "pitch": 38,
                "velocity": 1,
                "duration": 0.1,
                "tempo": 120.0
            },
            {
                "pitch": 38,
                "velocity": 1,
                "duration": 0.1,
                "tempo": 120.0
            },
            {
                "pitch": 26,
                "velocity": 1,
                "duration": 0.1,
                "tempo": 120.0
            },
            {
                "pitch": 0,
                "velocity": 0,
                "duration": 0.1,
                "tempo": 0
            },
            {
                "pitch": 38,
                "velocity": 1,
                "duration": 0.1,
                "tempo": 120.0
            },
            {
                "pitch": 38,
                "velocity": 1,
                "duration": 0.1,
                "tempo": 120.0
            },
            {
                "pitch": 26,
                "velocity": 1,
                "duration": 0.1,
                "tempo": 120.0
            },
            {
                "pitch": 0,
                "velocity": 0,
                "duration": 0.1,
                "tempo": 0
            },
            {
                "pitch": 38,
                "velocity": 1,
                "duration": 0.1023,
                "tempo": 120.0
            },
            {
                "pitch": 38,
                "velocity": 1,
                "duration": 0.1,
                "tempo": 120.0
            },
            {
                "pitch": 26,
                "velocity": 1,
                "duration": 0.1,
                "tempo": 120.0
            },
            {
                "pitch": 0,
                "velocity": 0,
                "duration": 0.1,
                "tempo": 0
            },
            {
                "pitch": 38,
                "velocity": 1,
                "duration": 0.1,
                "tempo": 120.0
            },
            {
                "pitch": 38,
                "velocity": 1,
                "duration": 0.1,
                "tempo": 120.0
            },
            {
                "pitch": 26,
                "velocity": 1,
                "duration": 0.1,
                "tempo": 120.0
            },
            {
                "pitch": 0,
                "velocity": 0,
                "duration": 0.1023,
                "tempo": 0
            },
            {
                "pitch": 38,
                "velocity": 1,
                "duration": 0.1,
                "tempo": 120.0
            },
            {
                "pitch": 38,
                "velocity": 1,
                "duration": 0.1,
                "tempo": 120.0
            },
            {
                "pitch": 26,
                "velocity": 1,
                "duration": 0.1,
                "tempo": 120.0
            },
            {
                "pitch": 0,
                "velocity": 0,
                "duration": 0.1,
                "tempo": 0
            },
            {
                "pitch": 38,
                "velocity": 1,
                "duration": 0.1,
                "tempo": 120.0
            },
            {
                "pitch": 38,
                "velocity": 1,
                "duration": 0.1,
                "tempo": 120.0
            },
            {
                "pitch": 26,
                "velocity": 1,
                "duration": 0.1,
                "tempo": 120.0
            },
            {
                "pitch": 0,
                "velocity": 0,
                "duration": 0.1,
                "tempo": 0
            },
            {
                "pitch": 38,
                "velocity": 1,
                "duration": 0.1,
                "tempo": 120.0
            },
            {
                "pitch": 38,
                "velocity": 1,
                "duration": 0.1,
                "tempo": 120.0
            },
            {
                "pitch": 26,
                "velocity": 1,
                "duration": 0.1,
                "tempo": 120.0
            },
            {
                "pitch": 28,
                "velocity": 1,
                "duration": 0.1023,
                "tempo": 120.0
            },
            {
                "pitch": 29,
                "velocity": 1,
                "duration": 0.1,
                "tempo": 120.0
            },
            {
                "pitch": 33,
                "velocity": 1,
                "duration": 0.1,
                "tempo": 120.0
            }
        ],
        "Acoustic Grand Piano": [
            {
                "pitch": 0,
                "velocity": 0,
                "duration": 25.6864,
                "tempo": 0
            },
            {
                "pitch": 108,
                "velocity": 15,
                "duration": 0.1,
                "tempo": 120.0
            }
        ]
    }
}