{
    "track_id": "01_Title_7",
    "mood": "happy",
    "instruments": {
        "Lead 1 (square)": [
            {
                "pitch": 73,
                "velocity": 12,
                "duration": 2.7909,
                "tempo": 120.0
            },
            {
                "pitch": 73,
                "velocity": 12,
                "duration": 0.2045,
                "tempo": 120.0
            },
            {
                "pitch": 73,
                "velocity": 12,
                "duration": 0.2045,
                "tempo": 120.0
            },
            {
                "pitch": 67,
                "velocity": 12,
                "duration": 2.5795,
                "tempo": 120.0
            },
            {
                "pitch": 67,
                "velocity": 12,
                "duration": 0.1909,
                "tempo": 120.0
            },
            {
                "pitch": 0,
                "velocity": 0,
                "duration": 0.2045,
                "tempo": 0
            },
            {
                "pitch": 67,
                "velocity": 12,
                "duration": 0.2045,
                "tempo": 120.0
            },
            {
                "pitch": 66,
                "velocity": 12,
                "duration": 3.1932,
                "tempo": 120.0
            },
            {
                "pitch": 71,
                "velocity": 12,
                "duration": 1.5932,
                "tempo": 120.0
            },
            {
                "pitch": 68,
                "velocity": 12,
                "duration": 1.6159,
                "tempo": 120.0
            },
            {
                "pitch": 68,
                "velocity": 12,
                "duration": 1.6159,
                "tempo": 120.0
            },
            {
                "pitch": 73,
                "velocity": 12,
                "duration": 3.1932,
                "tempo": 120.0
            },
            {
                "pitch": 0,
                "velocity": 0,
                "duration": 0.0023,
                "tempo": 0
            },
            {
                "pitch": 67,
                "velocity": 12,
                "duration": 3.1886,
                "tempo": 120.0
            },
            {
                "pitch": 69,
                "velocity": 12,
                "duration": 3.1795,
                "tempo": 120.0
            },
            {
                "pitch": 71,
                "velocity": 12,
                "duration": 1.6,
                "tempo": 120.0
            },
            {
                "pitch": 71,
                "velocity": 12,
                "duration": 1.6,
                "tempo": 120.0
            },
            {
                "pitch": 68,
                "velocity": 12,
                "duration": 1.5909,
                "tempo": 120.0
            },
            {
                "pitch": 68,
                "velocity": 12,
                "duration": 1.5909,
                "tempo": 120.0
            },
            {
                "pitch": 76,
                "velocity": 12,
                "duration": 12.7545,
                "tempo": 120.0
            },
            {
                "pitch": 73,
                "velocity": 12,
                "duration": 3.1977,
                "tempo": 120.0
            },
            {
                "pitch": 67,
                "velocity": 12,
                "duration": 3.1909,
                "tempo": 120.0
            },
            {
                "pitch": 69,
                "velocity": 12,
                "duration": 3.175,
                "tempo": 120.0
            },
            {
                "pitch": 71,
                "velocity": 12,
                "duration": 1.6,
                "tempo": 120.0
            },
            {
                "pitch": 71,
                "velocity": 12,
                "duration": 1.6,
                "tempo": 120.0
            },
            {
                "pitch": 71,
                "velocity": 12,
                "duration": 1.5886,
                "tempo": 120.0
            },
            {
                "pitch": 44,
                "velocity": 12,
                "duration": 31.9023,
                "tempo": 120.0
            },
            {
                "pitch": 75,
                "velocity": 12,
                "duration": 3.1864,
                "tempo": 120.0
            },
            {
                "pitch": 69,
                "velocity": 12,
                "duration": 3.1886,
                "tempo": 120.0
            },
            {
                "pitch": 71,
                "velocity": 12,
                "duration": 3.1864,
                "tempo": 120.0
            },
            {
                "pitch": 71,
                "velocity": 12,
                "duration": 3.1864,
                "tempo": 120.0
            },
            {
                "pitch": 76,
                "velocity": 12,
                "duration": 22.3136,
                "tempo": 120.0
            },
            {
                "pitch": 73,
                "velocity": 12,
                "duration": 1.5977,
                "tempo": 120.0
            },
            {
                "pitch": 70,
                "velocity": 12,
                "duration": 1.5886,
                "tempo": 120.0
            },
            {
                "pitch": 75,
                "velocity": 12,
                "duration": 3.1886,
                "tempo": 120.0
            },
            {
                "pitch": 69,
                "velocity": 12,
                "duration": 3.1841,
                "tempo": 120.0
            },
            {
                "pitch": 71,
                "velocity": 12,
                "duration": 3.1886,
                "tempo": 120.0
            },
            {
                "pitch": 73,
                "velocity": 12,
                "duration": 1.5977,
                "tempo": 120.0
            },
            {
                "pitch": 73,
                "velocity": 12,
                "duration": 1.5886,
                "tempo": 120.0
            },
            {
                "pitch": 74,
                "velocity": 12,
                "duration": 3.1932,
                "tempo": 120.0
            },
            {
                "pitch": 68,
                "velocity": 12,
                "duration": 3.1932,
                "tempo": 120.0
            },
            {
                "pitch": 70,
                "velocity": 12,
                "duration": 3.1886,
                "tempo": 120.0
            },
            {
                "pitch": 44,
                "velocity": 12,
                "duration": 33.4841,
                "tempo": 120.0
            },
            {
                "pitch": 72,
                "velocity": 12,
                "duration": 1.6,
                "tempo": 120.0
            },
            {
                "pitch": 69,
                "velocity": 12,
                "duration": 1.5932,
                "tempo": 120.0
            },
            {
                "pitch": 77,
                "velocity": 12,
                "duration": 38.2636,
                "tempo": 120.0
            },
            {
                "pitch": 74,
                "velocity": 12,
                "duration": 3.1932,
                "tempo": 120.0
            },
            {
                "pitch": 67,
                "velocity": 12,
                "duration": 3.1932,
                "tempo": 120.0
            },
            {
                "pitch": 70,
                "velocity": 12,
                "duration": 2.4023,
                "tempo": 120.0
            },
            {
                "pitch": 70,
                "velocity": 12,
                "duration": 2.4023,
                "tempo": 120.0
            },
            {
                "pitch": 70,
                "velocity": 12,
                "duration": 0.4023,
                "tempo": 120.0
            },
            {
                "pitch": 76,
                "velocity": 12,
                "duration": 37.8932,
                "tempo": 120.0
            },
            {
                "pitch": 33,
                "velocity": 12,
                "duration": 19.1568,
                "tempo": 120.0
            },
            {
                "pitch": 72,
                "velocity": 12,
                "duration": 0.3909,
                "tempo": 120.0
            },
            {
                "pitch": 68,
                "velocity": 12,
                "duration": 1.6023,
                "tempo": 120.0
            },
            {
                "pitch": 69,
                "velocity": 12,
                "duration": 1.5932,
                "tempo": 120.0
            },
            {
                "pitch": 76,
                "velocity": 12,
                "duration": 3.5864,
                "tempo": 120.0
            },
            {
                "pitch": 73,
                "velocity": 12,
                "duration": 3.1932,
                "tempo": 120.0
            },
            {
                "pitch": 65,
                "velocity": 12,
                "duration": 1.6,
                "tempo": 120.0
            },
            {
                "pitch": 65,
                "velocity": 12,
                "duration": 1.5909,
                "tempo": 120.0
            },
            {
                "pitch": 70,
                "velocity": 12,
                "duration": 2.4045,
                "tempo": 120.0
            },
            {
                "pitch": 70,
                "velocity": 12,
                "duration": 0.3909,
                "tempo": 120.0
            },
            {
                "pitch": 76,
                "velocity": 12,
                "duration": 9.1795,
                "tempo": 120.0
            },
            {
                "pitch": 33,
                "velocity": 12,
                "duration": 12.7727,
                "tempo": 120.0
            },
            {
                "pitch": 72,
                "velocity": 12,
                "duration": 0.3977,
                "tempo": 120.0
            },
            {
                "pitch": 68,
                "velocity": 12,
                "duration": 1.6023,
                "tempo": 120.0
            },
            {
                "pitch": 69,
                "velocity": 12,
                "duration": 1.5909,
                "tempo": 120.0
            }
        ],
        "Lead 2 (sawtooth)": [
            {
                "pitch": 76,
                "velocity": 15,
                "duration": 1.6,
                "tempo": 120.0
            },
            {
                "pitch": 86,
                "velocity": 15,
                "duration": 0.5955,
                "tempo": 120.0
            },
            {
                "pitch": 85,
                "velocity": 15,
                "duration": 0.5955,
                "tempo": 120.0
            },
            {
                "pitch": 81,
                "velocity": 15,
                "duration": 0.4091,
                "tempo": 120.0
            },
            {
                "pitch": 76,
                "velocity": 15,
                "duration": 1.5795,
                "tempo": 120.0
            },
            {
                "pitch": 86,
                "velocity": 15,
                "duration": 0.6091,
                "tempo": 120.0
            },
            {
                "pitch": 85,
                "velocity": 15,
                "duration": 0.5818,
                "tempo": 120.0
            },
            {
                "pitch": 81,
                "velocity": 15,
                "duration": 0.4091,
                "tempo": 120.0
            },
            {
                "pitch": 78,
                "velocity": 15,
                "duration": 1.5909,
                "tempo": 120.0
            },
            {
                "pitch": 86,
                "velocity": 15,
                "duration": 0.6091,
                "tempo": 120.0
            },
            {
                "pitch": 56,
                "velocity": 15,
                "duration": 6.3818,
                "tempo": 120.0
            },
            {
                "pitch": 85,
                "velocity": 15,
                "duration": 0.5932,
                "tempo": 120.0
            },
            {
                "pitch": 81,
                "velocity": 15,
                "duration": 0.4,
                "tempo": 120.0
            },
            {
                "pitch": 90,
                "velocity": 15,
                "duration": 6.3727,
                "tempo": 120.0
            },
            {
                "pitch": 76,
                "velocity": 15,
                "duration": 1.5932,
                "tempo": 120.0
            },
            {
                "pitch": 86,
                "velocity": 15,
                "duration": 0.6114,
                "tempo": 120.0
            },
            {
                "pitch": 85,
                "velocity": 15,
                "duration": 0.6023,
                "tempo": 120.0
            },
            {
                "pitch": 81,
                "velocity": 15,
                "duration": 0.4023,
                "tempo": 120.0
            },
            {
                "pitch": 69,
                "velocity": 10,
                "duration": 0.1977,
                "tempo": 120.0
            },
            {
                "pitch": 73,
                "velocity": 10,
                "duration": 0.2,
                "tempo": 120.0
            },
            {
                "pitch": 76,
                "velocity": 10,
                "duration": 0.1955,
                "tempo": 120.0
            },
            {
                "pitch": 76,
                "velocity": 10,
                "duration": 0.1955,
                "tempo": 120.0
            },
            {
                "pitch": 69,
                "velocity": 10,
                "duration": 0.3955,
                "tempo": 120.0
            },
            {
                "pitch": 73,
                "velocity": 10,
                "duration": 0.2023,
                "tempo": 120.0
            },
            {
                "pitch": 76,
                "velocity": 10,
                "duration": 0.4023,
                "tempo": 120.0
            },
            {
                "pitch": 76,
                "velocity": 10,
                "duration": 0.2,
                "tempo": 120.0
            },
            {
                "pitch": 81,
                "velocity": 10,
                "duration": 0.2,
                "tempo": 120.0
            },
            {
                "pitch": 69,
                "velocity": 10,
                "duration": 0.2,
                "tempo": 120.0
            },
            {
                "pitch": 73,
                "velocity": 10,
                "duration": 0.2,
                "tempo": 120.0
            },
            {
                "pitch": 76,
                "velocity": 10,
                "duration": 0.2,
                "tempo": 120.0
            },
            {
                "pitch": 76,
                "velocity": 10,
                "duration": 0.2,
                "tempo": 120.0
            },
            {
                "pitch": 76,
                "velocity": 10,
                "duration": 0.2,
                "tempo": 120.0
            },
            {
                "pitch": 69,
                "velocity": 10,
                "duration": 0.4023,
                "tempo": 120.0
            },
            {
                "pitch": 73,
                "velocity": 10,
                "duration": 0.2,
                "tempo": 120.0
            },
            {
                "pitch": 76,
                "velocity": 10,
                "duration": 0.2,
                "tempo": 120.0
            },
            {
                "pitch": 76,
                "velocity": 10,
                "duration": 0.2,
                "tempo": 120.0
            },
            {
                "pitch": 76,
                "velocity": 10,
                "duration": 0.2,
                "tempo": 120.0
            },
            {
                "pitch": 81,
                "velocity": 10,
                "duration": 0.2023,
                "tempo": 120.0
            },
            {
                "pitch": 67,
                "velocity": 10,
                "duration": 0.1932,
                "tempo": 120.0
            },
            {
                "pitch": 73,
                "velocity": 10,
                "duration": 0.1955,
                "tempo": 120.0
            },
            {
                "pitch": 76,
                "velocity": 10,
                "duration": 0.2023,
                "tempo": 120.0
            },
            {
                "pitch": 76,
                "velocity": 10,
                "duration": 0.2023,
                "tempo": 120.0
            },
            {
                "pitch": 67,
                "velocity": 10,
                "duration": 0.4,
                "tempo": 120.0
            },
            {
                "pitch": 73,
                "velocity": 10,
                "duration": 0.1977,
                "tempo": 120.0
            },
            {
                "pitch": 76,
                "velocity": 10,
                "duration": 0.2,
                "tempo": 120.0
            },
            {
                "pitch": 76,
                "velocity": 10,
                "duration": 0.0023,
                "tempo": 120.0
            },
            {
                "pitch": 76,
                "velocity": 10,
                "duration": 0.1977,
                "tempo": 120.0
            },
            {
                "pitch": 79,
                "velocity": 10,
                "duration": 0.2,
                "tempo": 120.0
            },
            {
                "pitch": 67,
                "velocity": 10,
                "duration": 0.2,
                "tempo": 120.0
            },
            {
                "pitch": 73,
                "velocity": 10,
                "duration": 0.2023,
                "tempo": 120.0
            },
            {
                "pitch": 76,
                "velocity": 10,
                "duration": 0.2023,
                "tempo": 120.0
            },
            {
                "pitch": 76,
                "velocity": 10,
                "duration": 0.1977,
                "tempo": 120.0
            },
            {
                "pitch": 76,
                "velocity": 10,
                "duration": 0.1977,
                "tempo": 120.0
            },
            {
                "pitch": 67,
                "velocity": 10,
                "duration": 0.4,
                "tempo": 120.0
            },
            {
                "pitch": 73,
                "velocity": 10,
                "duration": 0.2023,
                "tempo": 120.0
            },
            {
                "pitch": 76,
                "velocity": 10,
                "duration": 0.1977,
                "tempo": 120.0
            },
            {
                "pitch": 76,
                "velocity": 10,
                "duration": 0.1977,
                "tempo": 120.0
            },
            {
                "pitch": 79,
                "velocity": 10,
                "duration": 0.2,
                "tempo": 120.0
            },
            {
                "pitch": 69,
                "velocity": 10,
                "duration": 0.2,
                "tempo": 120.0
            },
            {
                "pitch": 73,
                "velocity": 10,
                "duration": 0.1977,
                "tempo": 120.0
            },
            {
                "pitch": 78,
                "velocity": 10,
                "duration": 0.1977,
                "tempo": 120.0
            },
            {
                "pitch": 78,
                "velocity": 10,
                "duration": 0.1977,
                "tempo": 120.0
            },
            {
                "pitch": 69,
                "velocity": 10,
                "duration": 0.3955,
                "tempo": 120.0
            },
            {
                "pitch": 73,
                "velocity": 10,
                "duration": 0.2,
                "tempo": 120.0
            },
            {
                "pitch": 44,
                "velocity": 10,
                "duration": 0.7955,
                "tempo": 120.0
            },
            {
                "pitch": 78,
                "velocity": 10,
                "duration": 0.2,
                "tempo": 120.0
            },
            {
                "pitch": 78,
                "velocity": 10,
                "duration": 0.2,
                "tempo": 120.0
            },
            {
                "pitch": 81,
                "velocity": 10,
                "duration": 0.2,
                "tempo": 120.0
            },
            {
                "pitch": 69,
                "velocity": 10,
                "duration": 0.1977,
                "tempo": 120.0
            },
            {
                "pitch": 76,
                "velocity": 10,
                "duration": 0.7977,
                "tempo": 120.0
            },
            {
                "pitch": 73,
                "velocity": 10,
                "duration": 0.2,
                "tempo": 120.0
            },
            {
                "pitch": 78,
                "velocity": 10,
                "duration": 0.2,
                "tempo": 120.0
            },
            {
                "pitch": 78,
                "velocity": 10,
                "duration": 0.2,
                "tempo": 120.0
            },
            {
                "pitch": 69,
                "velocity": 10,
                "duration": 0.4,
                "tempo": 120.0
            },
            {
                "pitch": 76,
                "velocity": 10,
                "duration": 0.8,
                "tempo": 120.0
            },
            {
                "pitch": 73,
                "velocity": 10,
                "duration": 0.2,
                "tempo": 120.0
            },
            {
                "pitch": 44,
                "velocity": 10,
                "duration": 1.5932,
                "tempo": 120.0
            },
            {
                "pitch": 78,
                "velocity": 10,
                "duration": 0.1955,
                "tempo": 120.0
            },
            {
                "pitch": 78,
                "velocity": 10,
                "duration": 0.1955,
                "tempo": 120.0
            },
            {
                "pitch": 81,
                "velocity": 10,
                "duration": 0.1955,
                "tempo": 120.0
            },
            {
                "pitch": 68,
                "velocity": 10,
                "duration": 0.2045,
                "tempo": 120.0
            },
            {
                "pitch": 71,
                "velocity": 10,
                "duration": 0.2045,
                "tempo": 120.0
            },
            {
                "pitch": 71,
                "velocity": 10,
                "duration": 0.2045,
                "tempo": 120.0
            },
            {
                "pitch": 76,
                "velocity": 10,
                "duration": 1.1955,
                "tempo": 120.0
            },
            {
                "pitch": 76,
                "velocity": 10,
                "duration": 0.1955,
                "tempo": 120.0
            },
            {
                "pitch": 68,
                "velocity": 10,
                "duration": 0.3955,
                "tempo": 120.0
            },
            {
                "pitch": 71,
                "velocity": 10,
                "duration": 0.2,
                "tempo": 120.0
            },
            {
                "pitch": 71,
                "velocity": 10,
                "duration": 0.2,
                "tempo": 120.0
            },
            {
                "pitch": 76,
                "velocity": 10,
                "duration": 0.2,
                "tempo": 120.0
            },
            {
                "pitch": 80,
                "velocity": 10,
                "duration": 0.2,
                "tempo": 120.0
            },
            {
                "pitch": 68,
                "velocity": 10,
                "duration": 0.2,
                "tempo": 120.0
            },
            {
                "pitch": 71,
                "velocity": 10,
                "duration": 0.2,
                "tempo": 120.0
            },
            {
                "pitch": 78,
                "velocity": 10,
                "duration": 1.5909,
                "tempo": 120.0
            },
            {
                "pitch": 33,
                "velocity": 10,
                "duration": 0.8,
                "tempo": 120.0
            },
            {
                "pitch": 76,
                "velocity": 10,
                "duration": 0.2,
                "tempo": 120.0
            },
            {
                "pitch": 68,
                "velocity": 10,
                "duration": 0.4,
                "tempo": 120.0
            },
            {
                "pitch": 71,
                "velocity": 10,
                "duration": 0.2,
                "tempo": 120.0
            },
            {
                "pitch": 78,
                "velocity": 10,
                "duration": 0.8,
                "tempo": 120.0
            },
            {
                "pitch": 33,
                "velocity": 10,
                "duration": 0.7955,
                "tempo": 120.0
            },
            {
                "pitch": 76,
                "velocity": 10,
                "duration": 0.1955,
                "tempo": 120.0
            },
            {
                "pitch": 80,
                "velocity": 10,
                "duration": 0.1955,
                "tempo": 120.0
            },
            {
                "pitch": 69,
                "velocity": 10,
                "duration": 0.2045,
                "tempo": 120.0
            },
            {
                "pitch": 73,
                "velocity": 10,
                "duration": 0.2045,
                "tempo": 120.0
            },
            {
                "pitch": 76,
                "velocity": 10,
                "duration": 0.2045,
                "tempo": 120.0
            },
            {
                "pitch": 44,
                "velocity": 10,
                "duration": 3.9909,
                "tempo": 120.0
            },
            {
                "pitch": 76,
                "velocity": 10,
                "duration": 0.1955,
                "tempo": 120.0
            },
            {
                "pitch": 76,
                "velocity": 10,
                "duration": 0.1955,
                "tempo": 120.0
            },
            {
                "pitch": 69,
                "velocity": 10,
                "duration": 0.3932,
                "tempo": 120.0
            },
            {
                "pitch": 73,
                "velocity": 10,
                "duration": 0.2,
                "tempo": 120.0
            },
            {
                "pitch": 76,
                "velocity": 10,
                "duration": 0.2,
                "tempo": 120.0
            },
            {
                "pitch": 76,
                "velocity": 10,
                "duration": 0.2,
                "tempo": 120.0
            },
            {
                "pitch": 76,
                "velocity": 10,
                "duration": 0.2,
                "tempo": 120.0
            },
            {
                "pitch": 81,
                "velocity": 10,
                "duration": 0.2,
                "tempo": 120.0
            },
            {
                "pitch": 69,
                "velocity": 10,
                "duration": 0.2,
                "tempo": 120.0
            },
            {
                "pitch": 73,
                "velocity": 10,
                "duration": 0.2,
                "tempo": 120.0
            },
            {
                "pitch": 76,
                "velocity": 10,
                "duration": 0.2,
                "tempo": 120.0
            },
            {
                "pitch": 44,
                "velocity": 10,
                "duration": 1.5932,
                "tempo": 120.0
            },
            {
                "pitch": 76,
                "velocity": 10,
                "duration": 0.2,
                "tempo": 120.0
            },
            {
                "pitch": 76,
                "velocity": 10,
                "duration": 0.2,
                "tempo": 120.0
            },
            {
                "pitch": 69,
                "velocity": 10,
                "duration": 0.4,
                "tempo": 120.0
            },
            {
                "pitch": 73,
                "velocity": 10,
                "duration": 0.2,
                "tempo": 120.0
            },
            {
                "pitch": 76,
                "velocity": 10,
                "duration": 0.2,
                "tempo": 120.0
            },
            {
                "pitch": 76,
                "velocity": 10,
                "duration": 0.2,
                "tempo": 120.0
            },
            {
                "pitch": 81,
                "velocity": 10,
                "duration": 0.2,
                "tempo": 120.0
            },
            {
                "pitch": 67,
                "velocity": 10,
                "duration": 0.1955,
                "tempo": 120.0
            },
            {
                "pitch": 73,
                "velocity": 10,
                "duration": 0.1955,
                "tempo": 120.0
            },
            {
                "pitch": 76,
                "velocity": 10,
                "duration": 0.1955,
                "tempo": 120.0
            },
            {
                "pitch": 76,
                "velocity": 10,
                "duration": 0.2,
                "tempo": 120.0
            },
            {
                "pitch": 76,
                "velocity": 10,
                "duration": 0.2,
                "tempo": 120.0
            },
            {
                "pitch": 67,
                "velocity": 10,
                "duration": 0.3977,
                "tempo": 120.0
            },
            {
                "pitch": 73,
                "velocity": 10,
                "duration": 0.2023,
                "tempo": 120.0
            },
            {
                "pitch": 76,
                "velocity": 10,
                "duration": 0.2023,
                "tempo": 120.0
            },
            {
                "pitch": 76,
                "velocity": 10,
                "duration": 0.2,
                "tempo": 120.0
            },
            {
                "pitch": 76,
                "velocity": 10,
                "duration": 0.2,
                "tempo": 120.0
            },
            {
                "pitch": 79,
                "velocity": 10,
                "duration": 0.1977,
                "tempo": 120.0
            },
            {
                "pitch": 67,
                "velocity": 10,
                "duration": 0.2,
                "tempo": 120.0
            },
            {
                "pitch": 73,
                "velocity": 10,
                "duration": 0.2,
                "tempo": 120.0
            },
            {
                "pitch": 76,
                "velocity": 10,
                "duration": 0.2,
                "tempo": 120.0
            },
            {
                "pitch": 76,
                "velocity": 10,
                "duration": 0.2,
                "tempo": 120.0
            },
            {
                "pitch": 67,
                "velocity": 10,
                "duration": 0.4,
                "tempo": 120.0
            },
            {
                "pitch": 73,
                "velocity": 10,
                "duration": 0.2,
                "tempo": 120.0
            },
            {
                "pitch": 76,
                "velocity": 10,
                "duration": 0.2,
                "tempo": 120.0
            },
            {
                "pitch": 76,
                "velocity": 10,
                "duration": 0.2,
                "tempo": 120.0
            },
            {
                "pitch": 76,
                "velocity": 10,
                "duration": 0.2,
                "tempo": 120.0
            },
            {
                "pitch": 79,
                "velocity": 10,
                "duration": 0.2023,
                "tempo": 120.0
            },
            {
                "pitch": 69,
                "velocity": 10,
                "duration": 0.1977,
                "tempo": 120.0
            },
            {
                "pitch": 73,
                "velocity": 10,
                "duration": 0.2,
                "tempo": 120.0
            },
            {
                "pitch": 44,
                "velocity": 10,
                "duration": 4.7841,
                "tempo": 120.0
            },
            {
                "pitch": 78,
                "velocity": 10,
                "duration": 7.3727,
                "tempo": 120.0
            },
            {
                "pitch": 78,
                "velocity": 10,
                "duration": 0.1955,
                "tempo": 120.0
            },
            {
                "pitch": 69,
                "velocity": 10,
                "duration": 0.3955,
                "tempo": 120.0
            },
            {
                "pitch": 73,
                "velocity": 10,
                "duration": 0.1977,
                "tempo": 120.0
            },
            {
                "pitch": 78,
                "velocity": 10,
                "duration": 0.2,
                "tempo": 120.0
            },
            {
                "pitch": 78,
                "velocity": 10,
                "duration": 0.2,
                "tempo": 120.0
            },
            {
                "pitch": 81,
                "velocity": 10,
                "duration": 0.2,
                "tempo": 120.0
            },
            {
                "pitch": 69,
                "velocity": 10,
                "duration": 0.2,
                "tempo": 120.0
            },
            {
                "pitch": 76,
                "velocity": 10,
                "duration": 1.5886,
                "tempo": 120.0
            },
            {
                "pitch": 73,
                "velocity": 10,
                "duration": 0.2,
                "tempo": 120.0
            },
            {
                "pitch": 44,
                "velocity": 10,
                "duration": 1.5932,
                "tempo": 120.0
            },
            {
                "pitch": 78,
                "velocity": 10,
                "duration": 0.2,
                "tempo": 120.0
            },
            {
                "pitch": 78,
                "velocity": 10,
                "duration": 0.2,
                "tempo": 120.0
            },
            {
                "pitch": 69,
                "velocity": 10,
                "duration": 0.4,
                "tempo": 120.0
            },
            {
                "pitch": 76,
                "velocity": 10,
                "duration": 0.8,
                "tempo": 120.0
            },
            {
                "pitch": 73,
                "velocity": 10,
                "duration": 0.1977,
                "tempo": 120.0
            },
            {
                "pitch": 44,
                "velocity": 10,
                "duration": 0.7932,
                "tempo": 120.0
            },
            {
                "pitch": 78,
                "velocity": 10,
                "duration": 0.1955,
                "tempo": 120.0
            },
            {
                "pitch": 78,
                "velocity": 10,
                "duration": 0.1955,
                "tempo": 120.0
            },
            {
                "pitch": 81,
                "velocity": 10,
                "duration": 0.1955,
                "tempo": 120.0
            },
            {
                "pitch": 68,
                "velocity": 10,
                "duration": 0.2045,
                "tempo": 120.0
            },
            {
                "pitch": 71,
                "velocity": 10,
                "duration": 0.2045,
                "tempo": 120.0
            },
            {
                "pitch": 76,
                "velocity": 10,
                "duration": 1.1932,
                "tempo": 120.0
            },
            {
                "pitch": 76,
                "velocity": 10,
                "duration": 0.1955,
                "tempo": 120.0
            },
            {
                "pitch": 68,
                "velocity": 10,
                "duration": 0.3955,
                "tempo": 120.0
            },
            {
                "pitch": 71,
                "velocity": 10,
                "duration": 0.2,
                "tempo": 120.0
            },
            {
                "pitch": 71,
                "velocity": 10,
                "duration": 0.2,
                "tempo": 120.0
            },
            {
                "pitch": 78,
                "velocity": 10,
                "duration": 0.7909,
                "tempo": 120.0
            },
            {
                "pitch": 33,
                "velocity": 10,
                "duration": 11.1591,
                "tempo": 120.0
            },
            {
                "pitch": 76,
                "velocity": 10,
                "duration": 0.2,
                "tempo": 120.0
            },
            {
                "pitch": 80,
                "velocity": 10,
                "duration": 0.2023,
                "tempo": 120.0
            },
            {
                "pitch": 68,
                "velocity": 10,
                "duration": 0.1977,
                "tempo": 120.0
            },
            {
                "pitch": 71,
                "velocity": 10,
                "duration": 0.2,
                "tempo": 120.0
            },
            {
                "pitch": 71,
                "velocity": 10,
                "duration": 0.2,
                "tempo": 120.0
            },
            {
                "pitch": 78,
                "velocity": 10,
                "duration": 0.8,
                "tempo": 120.0
            },
            {
                "pitch": 76,
                "velocity": 10,
                "duration": 0.2,
                "tempo": 120.0
            },
            {
                "pitch": 68,
                "velocity": 10,
                "duration": 0.3977,
                "tempo": 120.0
            },
            {
                "pitch": 71,
                "velocity": 10,
                "duration": 0.2,
                "tempo": 120.0
            },
            {
                "pitch": 71,
                "velocity": 10,
                "duration": 0.2,
                "tempo": 120.0
            },
            {
                "pitch": 78,
                "velocity": 10,
                "duration": 0.7977,
                "tempo": 120.0
            },
            {
                "pitch": 33,
                "velocity": 10,
                "duration": 1.5932,
                "tempo": 120.0
            },
            {
                "pitch": 76,
                "velocity": 10,
                "duration": 0.1955,
                "tempo": 120.0
            },
            {
                "pitch": 80,
                "velocity": 10,
                "duration": 0.1955,
                "tempo": 120.0
            },
            {
                "pitch": 71,
                "velocity": 10,
                "duration": 0.1977,
                "tempo": 120.0
            },
            {
                "pitch": 75,
                "velocity": 10,
                "duration": 0.2,
                "tempo": 120.0
            },
            {
                "pitch": 78,
                "velocity": 10,
                "duration": 0.7886,
                "tempo": 120.0
            },
            {
                "pitch": 56,
                "velocity": 15,
                "duration": 29.7136,
                "tempo": 120.0
            },
            {
                "pitch": 78,
                "velocity": 10,
                "duration": 0.2,
                "tempo": 120.0
            },
            {
                "pitch": 78,
                "velocity": 10,
                "duration": 0.2,
                "tempo": 120.0
            },
            {
                "pitch": 71,
                "velocity": 10,
                "duration": 0.4,
                "tempo": 120.0
            },
            {
                "pitch": 77,
                "velocity": 10,
                "duration": 0.8,
                "tempo": 120.0
            },
            {
                "pitch": 75,
                "velocity": 10,
                "duration": 0.2,
                "tempo": 120.0
            },
            {
                "pitch": 78,
                "velocity": 10,
                "duration": 0.2,
                "tempo": 120.0
            },
            {
                "pitch": 78,
                "velocity": 10,
                "duration": 0.2,
                "tempo": 120.0
            },
            {
                "pitch": 83,
                "velocity": 10,
                "duration": 0.2,
                "tempo": 120.0
            },
            {
                "pitch": 71,
                "velocity": 10,
                "duration": 0.1977,
                "tempo": 120.0
            },
            {
                "pitch": 75,
                "velocity": 10,
                "duration": 0.2,
                "tempo": 120.0
            },
            {
                "pitch": 78,
                "velocity": 10,
                "duration": 0.1955,
                "tempo": 120.0
            },
            {
                "pitch": 71,
                "velocity": 10,
                "duration": 0.4,
                "tempo": 120.0
            },
            {
                "pitch": 77,
                "velocity": 10,
                "duration": 1.5932,
                "tempo": 120.0
            },
            {
                "pitch": 75,
                "velocity": 10,
                "duration": 0.2045,
                "tempo": 120.0
            },
            {
                "pitch": 56,
                "velocity": 10,
                "duration": 2.3932,
                "tempo": 120.0
            },
            {
                "pitch": 78,
                "velocity": 10,
                "duration": 0.1955,
                "tempo": 120.0
            },
            {
                "pitch": 83,
                "velocity": 10,
                "duration": 0.1955,
                "tempo": 120.0
            },
            {
                "pitch": 69,
                "velocity": 10,
                "duration": 0.2,
                "tempo": 120.0
            },
            {
                "pitch": 75,
                "velocity": 10,
                "duration": 0.2023,
                "tempo": 120.0
            },
            {
                "pitch": 44,
                "velocity": 10,
                "duration": 7.1705,
                "tempo": 120.0
            },
            {
                "pitch": 78,
                "velocity": 10,
                "duration": 0.1977,
                "tempo": 120.0
            },
            {
                "pitch": 78,
                "velocity": 10,
                "duration": 0.1977,
                "tempo": 120.0
            },
            {
                "pitch": 69,
                "velocity": 10,
                "duration": 0.4,
                "tempo": 120.0
            },
            {
                "pitch": 77,
                "velocity": 10,
                "duration": 1.5955,
                "tempo": 120.0
            },
            {
                "pitch": 75,
                "velocity": 10,
                "duration": 0.2,
                "tempo": 120.0
            },
            {
                "pitch": 44,
                "velocity": 10,
                "duration": 0.7977,
                "tempo": 120.0
            },
            {
                "pitch": 78,
                "velocity": 10,
                "duration": 0.1977,
                "tempo": 120.0
            },
            {
                "pitch": 81,
                "velocity": 10,
                "duration": 0.2,
                "tempo": 120.0
            },
            {
                "pitch": 69,
                "velocity": 10,
                "duration": 0.2,
                "tempo": 120.0
            },
            {
                "pitch": 77,
                "velocity": 10,
                "duration": 0.7977,
                "tempo": 120.0
            },
            {
                "pitch": 75,
                "velocity": 10,
                "duration": 0.2,
                "tempo": 120.0
            },
            {
                "pitch": 44,
                "velocity": 10,
                "duration": 0.8,
                "tempo": 120.0
            },
            {
                "pitch": 78,
                "velocity": 10,
                "duration": 0.2,
                "tempo": 120.0
            },
            {
                "pitch": 78,
                "velocity": 10,
                "duration": 0.2,
                "tempo": 120.0
            },
            {
                "pitch": 69,
                "velocity": 10,
                "duration": 0.4,
                "tempo": 120.0
            },
            {
                "pitch": 77,
                "velocity": 10,
                "duration": 0.8,
                "tempo": 120.0
            },
            {
                "pitch": 75,
                "velocity": 10,
                "duration": 0.2,
                "tempo": 120.0
            },
            {
                "pitch": 44,
                "velocity": 10,
                "duration": 0.7955,
                "tempo": 120.0
            },
            {
                "pitch": 78,
                "velocity": 10,
                "duration": 0.1955,
                "tempo": 120.0
            },
            {
                "pitch": 81,
                "velocity": 10,
                "duration": 0.1955,
                "tempo": 120.0
            },
            {
                "pitch": 71,
                "velocity": 10,
                "duration": 0.2023,
                "tempo": 120.0
            },
            {
                "pitch": 33,
                "velocity": 10,
                "duration": 6.9795,
                "tempo": 120.0
            },
            {
                "pitch": 75,
                "velocity": 10,
                "duration": 0.2068,
                "tempo": 120.0
            },
            {
                "pitch": 80,
                "velocity": 10,
                "duration": 0.1955,
                "tempo": 120.0
            },
            {
                "pitch": 71,
                "velocity": 10,
                "duration": 0.3932,
                "tempo": 120.0
            },
            {
                "pitch": 77,
                "velocity": 10,
                "duration": 1.5886,
                "tempo": 120.0
            },
            {
                "pitch": 33,
                "velocity": 10,
                "duration": 0.7886,
                "tempo": 120.0
            },
            {
                "pitch": 75,
                "velocity": 10,
                "duration": 0.2,
                "tempo": 120.0
            },
            {
                "pitch": 80,
                "velocity": 10,
                "duration": 0.2,
                "tempo": 120.0
            },
            {
                "pitch": 83,
                "velocity": 10,
                "duration": 1.3977,
                "tempo": 120.0
            },
            {
                "pitch": 83,
                "velocity": 10,
                "duration": 0.2023,
                "tempo": 120.0
            },
            {
                "pitch": 83,
                "velocity": 10,
                "duration": 0.2023,
                "tempo": 120.0
            },
            {
                "pitch": 71,
                "velocity": 10,
                "duration": 0.1977,
                "tempo": 120.0
            },
            {
                "pitch": 77,
                "velocity": 10,
                "duration": 0.8,
                "tempo": 120.0
            },
            {
                "pitch": 75,
                "velocity": 10,
                "duration": 0.2,
                "tempo": 120.0
            },
            {
                "pitch": 80,
                "velocity": 10,
                "duration": 0.2,
                "tempo": 120.0
            },
            {
                "pitch": 71,
                "velocity": 10,
                "duration": 0.3977,
                "tempo": 120.0
            },
            {
                "pitch": 33,
                "velocity": 10,
                "duration": 1.5977,
                "tempo": 120.0
            },
            {
                "pitch": 75,
                "velocity": 10,
                "duration": 0.2,
                "tempo": 120.0
            },
            {
                "pitch": 80,
                "velocity": 10,
                "duration": 0.1955,
                "tempo": 120.0
            },
            {
                "pitch": 83,
                "velocity": 10,
                "duration": 0.7932,
                "tempo": 120.0
            },
            {
                "pitch": 83,
                "velocity": 10,
                "duration": 0.1955,
                "tempo": 120.0
            },
            {
                "pitch": 83,
                "velocity": 10,
                "duration": 0.1955,
                "tempo": 120.0
            },
            {
                "pitch": 70,
                "velocity": 10,
                "duration": 0.2,
                "tempo": 120.0
            },
            {
                "pitch": 73,
                "velocity": 10,
                "duration": 0.1977,
                "tempo": 120.0
            },
            {
                "pitch": 78,
                "velocity": 10,
                "duration": 0.2023,
                "tempo": 120.0
            },
            {
                "pitch": 78,
                "velocity": 10,
                "duration": 0.2023,
                "tempo": 120.0
            },
            {
                "pitch": 70,
                "velocity": 10,
                "duration": 0.4,
                "tempo": 120.0
            },
            {
                "pitch": 73,
                "velocity": 10,
                "duration": 0.2,
                "tempo": 120.0
            },
            {
                "pitch": 78,
                "velocity": 10,
                "duration": 0.1977,
                "tempo": 120.0
            },
            {
                "pitch": 78,
                "velocity": 10,
                "duration": 0.1977,
                "tempo": 120.0
            },
            {
                "pitch": 82,
                "velocity": 10,
                "duration": 0.2,
                "tempo": 120.0
            },
            {
                "pitch": 70,
                "velocity": 10,
                "duration": 0.2,
                "tempo": 120.0
            },
            {
                "pitch": 76,
                "velocity": 10,
                "duration": 1.5977,
                "tempo": 120.0
            },
            {
                "pitch": 73,
                "velocity": 10,
                "duration": 0.1977,
                "tempo": 120.0
            },
            {
                "pitch": 51,
                "velocity": 10,
                "duration": 0.7977,
                "tempo": 120.0
            },
            {
                "pitch": 78,
                "velocity": 10,
                "duration": 0.2,
                "tempo": 120.0
            },
            {
                "pitch": 78,
                "velocity": 10,
                "duration": 0.2,
                "tempo": 120.0
            },
            {
                "pitch": 70,
                "velocity": 10,
                "duration": 0.4,
                "tempo": 120.0
            },
            {
                "pitch": 76,
                "velocity": 10,
                "duration": 0.7977,
                "tempo": 120.0
            },
            {
                "pitch": 73,
                "velocity": 10,
                "duration": 0.2,
                "tempo": 120.0
            },
            {
                "pitch": 51,
                "velocity": 10,
                "duration": 0.7955,
                "tempo": 120.0
            },
            {
                "pitch": 78,
                "velocity": 10,
                "duration": 0.1955,
                "tempo": 120.0
            },
            {
                "pitch": 82,
                "velocity": 10,
                "duration": 0.1977,
                "tempo": 120.0
            },
            {
                "pitch": 71,
                "velocity": 10,
                "duration": 0.2,
                "tempo": 120.0
            },
            {
                "pitch": 75,
                "velocity": 10,
                "duration": 0.2,
                "tempo": 120.0
            },
            {
                "pitch": 56,
                "velocity": 10,
                "duration": 10.3591,
                "tempo": 120.0
            },
            {
                "pitch": 78,
                "velocity": 10,
                "duration": 0.2,
                "tempo": 120.0
            },
            {
                "pitch": 78,
                "velocity": 10,
                "duration": 0.2,
                "tempo": 120.0
            },
            {
                "pitch": 71,
                "velocity": 10,
                "duration": 0.3977,
                "tempo": 120.0
            },
            {
                "pitch": 75,
                "velocity": 10,
                "duration": 0.2,
                "tempo": 120.0
            },
            {
                "pitch": 78,
                "velocity": 10,
                "duration": 0.2,
                "tempo": 120.0
            },
            {
                "pitch": 83,
                "velocity": 10,
                "duration": 0.1977,
                "tempo": 120.0
            },
            {
                "pitch": 71,
                "velocity": 10,
                "duration": 0.2,
                "tempo": 120.0
            },
            {
                "pitch": 75,
                "velocity": 10,
                "duration": 0.2,
                "tempo": 120.0
            },
            {
                "pitch": 56,
                "velocity": 10,
                "duration": 1.5909,
                "tempo": 120.0
            },
            {
                "pitch": 78,
                "velocity": 10,
                "duration": 0.1955,
                "tempo": 120.0
            },
            {
                "pitch": 71,
                "velocity": 10,
                "duration": 0.3955,
                "tempo": 120.0
            },
            {
                "pitch": 77,
                "velocity": 10,
                "duration": 7.1636,
                "tempo": 120.0
            },
            {
                "pitch": 75,
                "velocity": 10,
                "duration": 0.2,
                "tempo": 120.0
            },
            {
                "pitch": 78,
                "velocity": 10,
                "duration": 0.2,
                "tempo": 120.0
            },
            {
                "pitch": 78,
                "velocity": 10,
                "duration": 0.2,
                "tempo": 120.0
            },
            {
                "pitch": 83,
                "velocity": 10,
                "duration": 0.2,
                "tempo": 120.0
            },
            {
                "pitch": 69,
                "velocity": 10,
                "duration": 0.2,
                "tempo": 120.0
            },
            {
                "pitch": 77,
                "velocity": 10,
                "duration": 0.8,
                "tempo": 120.0
            },
            {
                "pitch": 75,
                "velocity": 10,
                "duration": 0.1977,
                "tempo": 120.0
            },
            {
                "pitch": 44,
                "velocity": 10,
                "duration": 10.3545,
                "tempo": 120.0
            },
            {
                "pitch": 78,
                "velocity": 10,
                "duration": 0.2,
                "tempo": 120.0
            },
            {
                "pitch": 78,
                "velocity": 10,
                "duration": 0.2,
                "tempo": 120.0
            },
            {
                "pitch": 69,
                "velocity": 10,
                "duration": 0.3977,
                "tempo": 120.0
            },
            {
                "pitch": 77,
                "velocity": 10,
                "duration": 0.7955,
                "tempo": 120.0
            },
            {
                "pitch": 75,
                "velocity": 10,
                "duration": 0.2,
                "tempo": 120.0
            },
            {
                "pitch": 44,
                "velocity": 10,
                "duration": 0.7977,
                "tempo": 120.0
            },
            {
                "pitch": 78,
                "velocity": 10,
                "duration": 0.2,
                "tempo": 120.0
            },
            {
                "pitch": 78,
                "velocity": 10,
                "duration": 0.2,
                "tempo": 120.0
            },
            {
                "pitch": 81,
                "velocity": 10,
                "duration": 1.5977,
                "tempo": 120.0
            },
            {
                "pitch": 81,
                "velocity": 10,
                "duration": 0.2023,
                "tempo": 120.0
            },
            {
                "pitch": 69,
                "velocity": 10,
                "duration": 0.1977,
                "tempo": 120.0
            },
            {
                "pitch": 77,
                "velocity": 10,
                "duration": 0.8023,
                "tempo": 120.0
            },
            {
                "pitch": 77,
                "velocity": 10,
                "duration": 0.0023,
                "tempo": 120.0
            },
            {
                "pitch": 75,
                "velocity": 10,
                "duration": 0.1977,
                "tempo": 120.0
            },
            {
                "pitch": 44,
                "velocity": 10,
                "duration": 0.8,
                "tempo": 120.0
            },
            {
                "pitch": 78,
                "velocity": 10,
                "duration": 0.2,
                "tempo": 120.0
            },
            {
                "pitch": 78,
                "velocity": 10,
                "duration": 0.2,
                "tempo": 120.0
            },
            {
                "pitch": 69,
                "velocity": 10,
                "duration": 0.3955,
                "tempo": 120.0
            },
            {
                "pitch": 75,
                "velocity": 10,
                "duration": 0.1955,
                "tempo": 120.0
            },
            {
                "pitch": 44,
                "velocity": 10,
                "duration": 0.7886,
                "tempo": 120.0
            },
            {
                "pitch": 78,
                "velocity": 10,
                "duration": 0.1977,
                "tempo": 120.0
            },
            {
                "pitch": 78,
                "velocity": 10,
                "duration": 0.1977,
                "tempo": 120.0
            },
            {
                "pitch": 81,
                "velocity": 10,
                "duration": 0.2,
                "tempo": 120.0
            },
            {
                "pitch": 71,
                "velocity": 10,
                "duration": 0.2045,
                "tempo": 120.0
            },
            {
                "pitch": 77,
                "velocity": 10,
                "duration": 0.7977,
                "tempo": 120.0
            },
            {
                "pitch": 75,
                "velocity": 10,
                "duration": 0.2045,
                "tempo": 120.0
            },
            {
                "pitch": 80,
                "velocity": 10,
                "duration": 0.1955,
                "tempo": 120.0
            },
            {
                "pitch": 83,
                "velocity": 10,
                "duration": 0.6045,
                "tempo": 120.0
            },
            {
                "pitch": 71,
                "velocity": 10,
                "duration": 0.3977,
                "tempo": 120.0
            },
            {
                "pitch": 77,
                "velocity": 10,
                "duration": 0.7977,
                "tempo": 120.0
            },
            {
                "pitch": 33,
                "velocity": 10,
                "duration": 11.1523,
                "tempo": 120.0
            },
            {
                "pitch": 75,
                "velocity": 10,
                "duration": 0.2,
                "tempo": 120.0
            },
            {
                "pitch": 80,
                "velocity": 10,
                "duration": 0.2,
                "tempo": 120.0
            },
            {
                "pitch": 83,
                "velocity": 10,
                "duration": 0.7977,
                "tempo": 120.0
            },
            {
                "pitch": 83,
                "velocity": 10,
                "duration": 0.1977,
                "tempo": 120.0
            },
            {
                "pitch": 83,
                "velocity": 10,
                "duration": 0.1977,
                "tempo": 120.0
            },
            {
                "pitch": 71,
                "velocity": 10,
                "duration": 0.2,
                "tempo": 120.0
            },
            {
                "pitch": 77,
                "velocity": 10,
                "duration": 0.7977,
                "tempo": 120.0
            },
            {
                "pitch": 33,
                "velocity": 10,
                "duration": 0.7977,
                "tempo": 120.0
            },
            {
                "pitch": 75,
                "velocity": 10,
                "duration": 0.2,
                "tempo": 120.0
            },
            {
                "pitch": 80,
                "velocity": 10,
                "duration": 0.2,
                "tempo": 120.0
            },
            {
                "pitch": 71,
                "velocity": 10,
                "duration": 0.3977,
                "tempo": 120.0
            },
            {
                "pitch": 77,
                "velocity": 10,
                "duration": 0.7977,
                "tempo": 120.0
            },
            {
                "pitch": 75,
                "velocity": 10,
                "duration": 0.2,
                "tempo": 120.0
            },
            {
                "pitch": 80,
                "velocity": 10,
                "duration": 0.1955,
                "tempo": 120.0
            },
            {
                "pitch": 83,
                "velocity": 10,
                "duration": 0.7932,
                "tempo": 120.0
            },
            {
                "pitch": 83,
                "velocity": 10,
                "duration": 0.1955,
                "tempo": 120.0
            },
            {
                "pitch": 83,
                "velocity": 10,
                "duration": 0.1955,
                "tempo": 120.0
            },
            {
                "pitch": 70,
                "velocity": 10,
                "duration": 0.2,
                "tempo": 120.0
            },
            {
                "pitch": 73,
                "velocity": 10,
                "duration": 0.2,
                "tempo": 120.0
            },
            {
                "pitch": 78,
                "velocity": 10,
                "duration": 0.2,
                "tempo": 120.0
            },
            {
                "pitch": 70,
                "velocity": 10,
                "duration": 0.3977,
                "tempo": 120.0
            },
            {
                "pitch": 76,
                "velocity": 10,
                "duration": 11.15,
                "tempo": 120.0
            },
            {
                "pitch": 73,
                "velocity": 10,
                "duration": 0.2,
                "tempo": 120.0
            },
            {
                "pitch": 78,
                "velocity": 10,
                "duration": 0.2,
                "tempo": 120.0
            },
            {
                "pitch": 78,
                "velocity": 10,
                "duration": 0.2,
                "tempo": 120.0
            },
            {
                "pitch": 82,
                "velocity": 10,
                "duration": 0.2,
                "tempo": 120.0
            },
            {
                "pitch": 70,
                "velocity": 10,
                "duration": 0.1977,
                "tempo": 120.0
            },
            {
                "pitch": 76,
                "velocity": 10,
                "duration": 0.7977,
                "tempo": 120.0
            },
            {
                "pitch": 73,
                "velocity": 10,
                "duration": 0.2,
                "tempo": 120.0
            },
            {
                "pitch": 51,
                "velocity": 10,
                "duration": 11.9523,
                "tempo": 120.0
            },
            {
                "pitch": 78,
                "velocity": 10,
                "duration": 0.2,
                "tempo": 120.0
            },
            {
                "pitch": 78,
                "velocity": 10,
                "duration": 0.2,
                "tempo": 120.0
            },
            {
                "pitch": 70,
                "velocity": 10,
                "duration": 0.3977,
                "tempo": 120.0
            },
            {
                "pitch": 76,
                "velocity": 10,
                "duration": 0.7977,
                "tempo": 120.0
            },
            {
                "pitch": 73,
                "velocity": 10,
                "duration": 0.1955,
                "tempo": 120.0
            },
            {
                "pitch": 51,
                "velocity": 10,
                "duration": 0.7909,
                "tempo": 120.0
            },
            {
                "pitch": 78,
                "velocity": 10,
                "duration": 0.1977,
                "tempo": 120.0
            },
            {
                "pitch": 78,
                "velocity": 10,
                "duration": 0.1977,
                "tempo": 120.0
            },
            {
                "pitch": 82,
                "velocity": 10,
                "duration": 0.2,
                "tempo": 120.0
            },
            {
                "pitch": 70,
                "velocity": 10,
                "duration": 0.2,
                "tempo": 120.0
            },
            {
                "pitch": 74,
                "velocity": 15,
                "duration": 56.2114,
                "tempo": 120.0
            },
            {
                "pitch": 74,
                "velocity": 10,
                "duration": 0.1977,
                "tempo": 120.0
            },
            {
                "pitch": 77,
                "velocity": 10,
                "duration": 4.175,
                "tempo": 120.0
            },
            {
                "pitch": 51,
                "velocity": 10,
                "duration": 0.8,
                "tempo": 120.0
            },
            {
                "pitch": 77,
                "velocity": 10,
                "duration": 0.2023,
                "tempo": 120.0
            },
            {
                "pitch": 77,
                "velocity": 10,
                "duration": 0.2023,
                "tempo": 120.0
            },
            {
                "pitch": 70,
                "velocity": 10,
                "duration": 0.4,
                "tempo": 120.0
            },
            {
                "pitch": 74,
                "velocity": 10,
                "duration": 0.1977,
                "tempo": 120.0
            },
            {
                "pitch": 77,
                "velocity": 10,
                "duration": 0.1977,
                "tempo": 120.0
            },
            {
                "pitch": 51,
                "velocity": 10,
                "duration": 0.8,
                "tempo": 120.0
            },
            {
                "pitch": 77,
                "velocity": 10,
                "duration": 0.2023,
                "tempo": 120.0
            },
            {
                "pitch": 77,
                "velocity": 10,
                "duration": 0.2023,
                "tempo": 120.0
            },
            {
                "pitch": 82,
                "velocity": 10,
                "duration": 0.2,
                "tempo": 120.0
            },
            {
                "pitch": 70,
                "velocity": 10,
                "duration": 0.2,
                "tempo": 120.0
            },
            {
                "pitch": 74,
                "velocity": 10,
                "duration": 0.1977,
                "tempo": 120.0
            },
            {
                "pitch": 77,
                "velocity": 10,
                "duration": 0.1977,
                "tempo": 120.0
            },
            {
                "pitch": 51,
                "velocity": 10,
                "duration": 0.7955,
                "tempo": 120.0
            },
            {
                "pitch": 77,
                "velocity": 10,
                "duration": 0.1977,
                "tempo": 120.0
            },
            {
                "pitch": 77,
                "velocity": 10,
                "duration": 0.1977,
                "tempo": 120.0
            },
            {
                "pitch": 70,
                "velocity": 10,
                "duration": 0.3955,
                "tempo": 120.0
            },
            {
                "pitch": 74,
                "velocity": 10,
                "duration": 0.2,
                "tempo": 120.0
            },
            {
                "pitch": 51,
                "velocity": 10,
                "duration": 0.7955,
                "tempo": 120.0
            },
            {
                "pitch": 77,
                "velocity": 10,
                "duration": 0.4,
                "tempo": 120.0
            },
            {
                "pitch": 77,
                "velocity": 10,
                "duration": 0.2,
                "tempo": 120.0
            },
            {
                "pitch": 82,
                "velocity": 10,
                "duration": 0.2023,
                "tempo": 120.0
            },
            {
                "pitch": 68,
                "velocity": 10,
                "duration": 0.1977,
                "tempo": 120.0
            },
            {
                "pitch": 74,
                "velocity": 10,
                "duration": 0.2,
                "tempo": 120.0
            },
            {
                "pitch": 77,
                "velocity": 10,
                "duration": 0.2023,
                "tempo": 120.0
            },
            {
                "pitch": 77,
                "velocity": 10,
                "duration": 0.2023,
                "tempo": 120.0
            },
            {
                "pitch": 68,
                "velocity": 10,
                "duration": 0.3977,
                "tempo": 120.0
            },
            {
                "pitch": 77,
                "velocity": 10,
                "duration": 0.0023,
                "tempo": 120.0
            },
            {
                "pitch": 74,
                "velocity": 10,
                "duration": 0.1977,
                "tempo": 120.0
            },
            {
                "pitch": 33,
                "velocity": 10,
                "duration": 8.9682,
                "tempo": 120.0
            },
            {
                "pitch": 77,
                "velocity": 10,
                "duration": 0.2023,
                "tempo": 120.0
            },
            {
                "pitch": 77,
                "velocity": 10,
                "duration": 0.2023,
                "tempo": 120.0
            },
            {
                "pitch": 80,
                "velocity": 10,
                "duration": 0.2,
                "tempo": 120.0
            },
            {
                "pitch": 68,
                "velocity": 10,
                "duration": 0.2,
                "tempo": 120.0
            },
            {
                "pitch": 74,
                "velocity": 10,
                "duration": 0.2023,
                "tempo": 120.0
            },
            {
                "pitch": 33,
                "velocity": 10,
                "duration": 0.8,
                "tempo": 120.0
            },
            {
                "pitch": 77,
                "velocity": 10,
                "duration": 0.1977,
                "tempo": 120.0
            },
            {
                "pitch": 77,
                "velocity": 10,
                "duration": 0.1977,
                "tempo": 120.0
            },
            {
                "pitch": 68,
                "velocity": 10,
                "duration": 0.3955,
                "tempo": 120.0
            },
            {
                "pitch": 74,
                "velocity": 10,
                "duration": 0.1955,
                "tempo": 120.0
            },
            {
                "pitch": 33,
                "velocity": 10,
                "duration": 0.7909,
                "tempo": 120.0
            },
            {
                "pitch": 77,
                "velocity": 10,
                "duration": 0.2,
                "tempo": 120.0
            },
            {
                "pitch": 80,
                "velocity": 10,
                "duration": 0.2023,
                "tempo": 120.0
            },
            {
                "pitch": 70,
                "velocity": 10,
                "duration": 0.1977,
                "tempo": 120.0
            },
            {
                "pitch": 74,
                "velocity": 10,
                "duration": 0.2,
                "tempo": 120.0
            },
            {
                "pitch": 79,
                "velocity": 10,
                "duration": 0.2,
                "tempo": 120.0
            },
            {
                "pitch": 82,
                "velocity": 10,
                "duration": 0.5977,
                "tempo": 120.0
            },
            {
                "pitch": 70,
                "velocity": 10,
                "duration": 0.4,
                "tempo": 120.0
            },
            {
                "pitch": 74,
                "velocity": 10,
                "duration": 0.2,
                "tempo": 120.0
            },
            {
                "pitch": 79,
                "velocity": 10,
                "duration": 0.1955,
                "tempo": 120.0
            },
            {
                "pitch": 82,
                "velocity": 10,
                "duration": 0.7955,
                "tempo": 120.0
            },
            {
                "pitch": 82,
                "velocity": 10,
                "duration": 0.1955,
                "tempo": 120.0
            },
            {
                "pitch": 82,
                "velocity": 10,
                "duration": 0.1955,
                "tempo": 120.0
            },
            {
                "pitch": 70,
                "velocity": 10,
                "duration": 0.2045,
                "tempo": 120.0
            },
            {
                "pitch": 74,
                "velocity": 10,
                "duration": 0.2045,
                "tempo": 120.0
            },
            {
                "pitch": 79,
                "velocity": 10,
                "duration": 0.1955,
                "tempo": 120.0
            },
            {
                "pitch": 70,
                "velocity": 10,
                "duration": 0.3955,
                "tempo": 120.0
            },
            {
                "pitch": 77,
                "velocity": 10,
                "duration": 2.3909,
                "tempo": 120.0
            },
            {
                "pitch": 74,
                "velocity": 10,
                "duration": 0.2,
                "tempo": 120.0
            },
            {
                "pitch": 79,
                "velocity": 10,
                "duration": 0.2,
                "tempo": 120.0
            },
            {
                "pitch": 82,
                "velocity": 10,
                "duration": 0.7955,
                "tempo": 120.0
            },
            {
                "pitch": 82,
                "velocity": 10,
                "duration": 0.2,
                "tempo": 120.0
            },
            {
                "pitch": 82,
                "velocity": 10,
                "duration": 0.2,
                "tempo": 120.0
            },
            {
                "pitch": 69,
                "velocity": 10,
                "duration": 0.2,
                "tempo": 120.0
            },
            {
                "pitch": 76,
                "velocity": 10,
                "duration": 10.3682,
                "tempo": 120.0
            },
            {
                "pitch": 72,
                "velocity": 10,
                "duration": 0.2,
                "tempo": 120.0
            },
            {
                "pitch": 77,
                "velocity": 10,
                "duration": 1.0,
                "tempo": 120.0
            },
            {
                "pitch": 44,
                "velocity": 10,
                "duration": 16.75,
                "tempo": 120.0
            },
            {
                "pitch": 77,
                "velocity": 10,
                "duration": 0.2,
                "tempo": 120.0
            },
            {
                "pitch": 77,
                "velocity": 10,
                "duration": 0.2,
                "tempo": 120.0
            },
            {
                "pitch": 69,
                "velocity": 10,
                "duration": 0.4023,
                "tempo": 120.0
            },
            {
                "pitch": 76,
                "velocity": 10,
                "duration": 0.8023,
                "tempo": 120.0
            },
            {
                "pitch": 72,
                "velocity": 10,
                "duration": 0.2,
                "tempo": 120.0
            },
            {
                "pitch": 77,
                "velocity": 10,
                "duration": 0.2,
                "tempo": 120.0
            },
            {
                "pitch": 77,
                "velocity": 10,
                "duration": 0.2,
                "tempo": 120.0
            },
            {
                "pitch": 81,
                "velocity": 10,
                "duration": 0.1977,
                "tempo": 120.0
            },
            {
                "pitch": 69,
                "velocity": 10,
                "duration": 0.2023,
                "tempo": 120.0
            },
            {
                "pitch": 72,
                "velocity": 10,
                "duration": 0.2,
                "tempo": 120.0
            },
            {
                "pitch": 44,
                "velocity": 10,
                "duration": 1.6023,
                "tempo": 120.0
            },
            {
                "pitch": 77,
                "velocity": 10,
                "duration": 0.2,
                "tempo": 120.0
            },
            {
                "pitch": 77,
                "velocity": 10,
                "duration": 0.2,
                "tempo": 120.0
            },
            {
                "pitch": 69,
                "velocity": 10,
                "duration": 0.3932,
                "tempo": 120.0
            },
            {
                "pitch": 76,
                "velocity": 10,
                "duration": 1.5932,
                "tempo": 120.0
            },
            {
                "pitch": 72,
                "velocity": 10,
                "duration": 0.1955,
                "tempo": 120.0
            },
            {
                "pitch": 44,
                "velocity": 10,
                "duration": 0.7909,
                "tempo": 120.0
            },
            {
                "pitch": 77,
                "velocity": 10,
                "duration": 0.2023,
                "tempo": 120.0
            },
            {
                "pitch": 81,
                "velocity": 10,
                "duration": 0.2,
                "tempo": 120.0
            },
            {
                "pitch": 70,
                "velocity": 10,
                "duration": 0.2,
                "tempo": 120.0
            },
            {
                "pitch": 82,
                "velocity": 10,
                "duration": 0.2023,
                "tempo": 120.0
            },
            {
                "pitch": 70,
                "velocity": 10,
                "duration": 0.2,
                "tempo": 120.0
            },
            {
                "pitch": 82,
                "velocity": 10,
                "duration": 0.1977,
                "tempo": 120.0
            },
            {
                "pitch": 0,
                "velocity": 0,
                "duration": 0.2023,
                "tempo": 0
            },
            {
                "pitch": 82,
                "velocity": 10,
                "duration": 0.2,
                "tempo": 120.0
            },
            {
                "pitch": 70,
                "velocity": 10,
                "duration": 0.2,
                "tempo": 120.0
            },
            {
                "pitch": 82,
                "velocity": 10,
                "duration": 0.1977,
                "tempo": 120.0
            },
            {
                "pitch": 0,
                "velocity": 0,
                "duration": 0.2023,
                "tempo": 0
            },
            {
                "pitch": 82,
                "velocity": 10,
                "duration": 0.2,
                "tempo": 120.0
            },
            {
                "pitch": 70,
                "velocity": 10,
                "duration": 0.2,
                "tempo": 120.0
            },
            {
                "pitch": 82,
                "velocity": 10,
                "duration": 0.2,
                "tempo": 120.0
            },
            {
                "pitch": 0,
                "velocity": 0,
                "duration": 0.1955,
                "tempo": 0
            },
            {
                "pitch": 70,
                "velocity": 10,
                "duration": 0.1955,
                "tempo": 120.0
            },
            {
                "pitch": 70,
                "velocity": 10,
                "duration": 0.2,
                "tempo": 120.0
            },
            {
                "pitch": 82,
                "velocity": 10,
                "duration": 0.2,
                "tempo": 120.0
            },
            {
                "pitch": 63,
                "velocity": 10,
                "duration": 0.2,
                "tempo": 120.0
            },
            {
                "pitch": 75,
                "velocity": 10,
                "duration": 0.2023,
                "tempo": 120.0
            },
            {
                "pitch": 63,
                "velocity": 10,
                "duration": 0.1977,
                "tempo": 120.0
            },
            {
                "pitch": 75,
                "velocity": 10,
                "duration": 0.2,
                "tempo": 120.0
            },
            {
                "pitch": 0,
                "velocity": 0,
                "duration": 0.2,
                "tempo": 0
            },
            {
                "pitch": 75,
                "velocity": 10,
                "duration": 0.2023,
                "tempo": 120.0
            },
            {
                "pitch": 63,
                "velocity": 10,
                "duration": 0.2,
                "tempo": 120.0
            },
            {
                "pitch": 75,
                "velocity": 10,
                "duration": 0.2,
                "tempo": 120.0
            },
            {
                "pitch": 0,
                "velocity": 0,
                "duration": 0.2,
                "tempo": 0
            },
            {
                "pitch": 75,
                "velocity": 10,
                "duration": 0.2,
                "tempo": 120.0
            },
            {
                "pitch": 63,
                "velocity": 10,
                "duration": 0.1955,
                "tempo": 120.0
            },
            {
                "pitch": 75,
                "velocity": 10,
                "duration": 0.1955,
                "tempo": 120.0
            },
            {
                "pitch": 0,
                "velocity": 0,
                "duration": 0.2,
                "tempo": 0
            },
            {
                "pitch": 63,
                "velocity": 10,
                "duration": 0.2,
                "tempo": 120.0
            },
            {
                "pitch": 63,
                "velocity": 10,
                "duration": 0.2,
                "tempo": 120.0
            },
            {
                "pitch": 75,
                "velocity": 10,
                "duration": 0.2,
                "tempo": 120.0
            },
            {
                "pitch": 66,
                "velocity": 10,
                "duration": 0.2,
                "tempo": 120.0
            },
            {
                "pitch": 78,
                "velocity": 10,
                "duration": 0.2,
                "tempo": 120.0
            },
            {
                "pitch": 66,
                "velocity": 10,
                "duration": 0.2023,
                "tempo": 120.0
            },
            {
                "pitch": 78,
                "velocity": 10,
                "duration": 0.2,
                "tempo": 120.0
            },
            {
                "pitch": 0,
                "velocity": 0,
                "duration": 0.2,
                "tempo": 0
            },
            {
                "pitch": 78,
                "velocity": 10,
                "duration": 0.1977,
                "tempo": 120.0
            },
            {
                "pitch": 66,
                "velocity": 10,
                "duration": 0.2023,
                "tempo": 120.0
            },
            {
                "pitch": 78,
                "velocity": 10,
                "duration": 0.2,
                "tempo": 120.0
            },
            {
                "pitch": 0,
                "velocity": 0,
                "duration": 0.2,
                "tempo": 0
            },
            {
                "pitch": 78,
                "velocity": 10,
                "duration": 0.2,
                "tempo": 120.0
            },
            {
                "pitch": 66,
                "velocity": 10,
                "duration": 0.2,
                "tempo": 120.0
            },
            {
                "pitch": 78,
                "velocity": 10,
                "duration": 0.2,
                "tempo": 120.0
            },
            {
                "pitch": 0,
                "velocity": 0,
                "duration": 0.2,
                "tempo": 0
            },
            {
                "pitch": 66,
                "velocity": 10,
                "duration": 0.2023,
                "tempo": 120.0
            },
            {
                "pitch": 66,
                "velocity": 10,
                "duration": 0.1955,
                "tempo": 120.0
            },
            {
                "pitch": 33,
                "velocity": 10,
                "duration": 16.1659,
                "tempo": 120.0
            },
            {
                "pitch": 78,
                "velocity": 10,
                "duration": 0.1955,
                "tempo": 120.0
            },
            {
                "pitch": 68,
                "velocity": 10,
                "duration": 0.2,
                "tempo": 120.0
            },
            {
                "pitch": 80,
                "velocity": 10,
                "duration": 0.2,
                "tempo": 120.0
            },
            {
                "pitch": 68,
                "velocity": 10,
                "duration": 0.2023,
                "tempo": 120.0
            },
            {
                "pitch": 80,
                "velocity": 10,
                "duration": 0.2,
                "tempo": 120.0
            },
            {
                "pitch": 0,
                "velocity": 0,
                "duration": 0.2,
                "tempo": 0
            },
            {
                "pitch": 80,
                "velocity": 10,
                "duration": 0.1977,
                "tempo": 120.0
            },
            {
                "pitch": 68,
                "velocity": 10,
                "duration": 0.2023,
                "tempo": 120.0
            },
            {
                "pitch": 80,
                "velocity": 10,
                "duration": 0.2,
                "tempo": 120.0
            },
            {
                "pitch": 0,
                "velocity": 0,
                "duration": 0.2,
                "tempo": 0
            },
            {
                "pitch": 81,
                "velocity": 10,
                "duration": 0.1977,
                "tempo": 120.0
            },
            {
                "pitch": 69,
                "velocity": 10,
                "duration": 0.1955,
                "tempo": 120.0
            },
            {
                "pitch": 81,
                "velocity": 10,
                "duration": 0.1955,
                "tempo": 120.0
            },
            {
                "pitch": 0,
                "velocity": 0,
                "duration": 0.2023,
                "tempo": 0
            },
            {
                "pitch": 69,
                "velocity": 10,
                "duration": 0.2,
                "tempo": 120.0
            },
            {
                "pitch": 69,
                "velocity": 10,
                "duration": 0.2,
                "tempo": 120.0
            },
            {
                "pitch": 81,
                "velocity": 10,
                "duration": 0.2023,
                "tempo": 120.0
            },
            {
                "pitch": 70,
                "velocity": 10,
                "duration": 0.1977,
                "tempo": 120.0
            },
            {
                "pitch": 82,
                "velocity": 10,
                "duration": 0.2,
                "tempo": 120.0
            },
            {
                "pitch": 70,
                "velocity": 10,
                "duration": 0.2,
                "tempo": 120.0
            },
            {
                "pitch": 82,
                "velocity": 10,
                "duration": 0.2023,
                "tempo": 120.0
            },
            {
                "pitch": 0,
                "velocity": 0,
                "duration": 0.1977,
                "tempo": 0
            },
            {
                "pitch": 82,
                "velocity": 10,
                "duration": 0.2,
                "tempo": 120.0
            },
            {
                "pitch": 70,
                "velocity": 10,
                "duration": 0.2,
                "tempo": 120.0
            },
            {
                "pitch": 0,
                "velocity": 0,
                "duration": 0.0023,
                "tempo": 0
            },
            {
                "pitch": 82,
                "velocity": 10,
                "duration": 0.2,
                "tempo": 120.0
            },
            {
                "pitch": 0,
                "velocity": 0,
                "duration": 0.2,
                "tempo": 0
            },
            {
                "pitch": 82,
                "velocity": 10,
                "duration": 0.2,
                "tempo": 120.0
            },
            {
                "pitch": 70,
                "velocity": 10,
                "duration": 0.2,
                "tempo": 120.0
            },
            {
                "pitch": 82,
                "velocity": 10,
                "duration": 0.2,
                "tempo": 120.0
            },
            {
                "pitch": 0,
                "velocity": 0,
                "duration": 0.1955,
                "tempo": 0
            },
            {
                "pitch": 70,
                "velocity": 10,
                "duration": 0.1955,
                "tempo": 120.0
            },
            {
                "pitch": 70,
                "velocity": 10,
                "duration": 0.2,
                "tempo": 120.0
            },
            {
                "pitch": 82,
                "velocity": 10,
                "duration": 0.2023,
                "tempo": 120.0
            },
            {
                "pitch": 90,
                "velocity": 15,
                "duration": 82.95,
                "tempo": 120.0
            },
            {
                "pitch": 65,
                "velocity": 10,
                "duration": 0.1977,
                "tempo": 120.0
            },
            {
                "pitch": 77,
                "velocity": 10,
                "duration": 0.2,
                "tempo": 120.0
            },
            {
                "pitch": 65,
                "velocity": 10,
                "duration": 0.2,
                "tempo": 120.0
            },
            {
                "pitch": 77,
                "velocity": 10,
                "duration": 0.2023,
                "tempo": 120.0
            },
            {
                "pitch": 0,
                "velocity": 0,
                "duration": 0.2,
                "tempo": 0
            },
            {
                "pitch": 77,
                "velocity": 10,
                "duration": 0.2,
                "tempo": 120.0
            },
            {
                "pitch": 65,
                "velocity": 10,
                "duration": 0.2,
                "tempo": 120.0
            },
            {
                "pitch": 77,
                "velocity": 10,
                "duration": 0.2,
                "tempo": 120.0
            },
            {
                "pitch": 0,
                "velocity": 0,
                "duration": 0.2,
                "tempo": 0
            },
            {
                "pitch": 77,
                "velocity": 10,
                "duration": 0.2,
                "tempo": 120.0
            },
            {
                "pitch": 65,
                "velocity": 10,
                "duration": 0.2,
                "tempo": 120.0
            },
            {
                "pitch": 77,
                "velocity": 10,
                "duration": 0.2,
                "tempo": 120.0
            },
            {
                "pitch": 0,
                "velocity": 0,
                "duration": 0.1955,
                "tempo": 0
            },
            {
                "pitch": 65,
                "velocity": 10,
                "duration": 0.1955,
                "tempo": 120.0
            },
            {
                "pitch": 65,
                "velocity": 10,
                "duration": 0.2,
                "tempo": 120.0
            },
            {
                "pitch": 77,
                "velocity": 10,
                "duration": 0.2,
                "tempo": 120.0
            },
            {
                "pitch": 66,
                "velocity": 10,
                "duration": 0.2023,
                "tempo": 120.0
            },
            {
                "pitch": 78,
                "velocity": 10,
                "duration": 0.2,
                "tempo": 120.0
            },
            {
                "pitch": 66,
                "velocity": 10,
                "duration": 0.2,
                "tempo": 120.0
            },
            {
                "pitch": 78,
                "velocity": 10,
                "duration": 0.1977,
                "tempo": 120.0
            },
            {
                "pitch": 0,
                "velocity": 0,
                "duration": 0.2023,
                "tempo": 0
            },
            {
                "pitch": 78,
                "velocity": 10,
                "duration": 0.2,
                "tempo": 120.0
            },
            {
                "pitch": 66,
                "velocity": 10,
                "duration": 0.2,
                "tempo": 120.0
            },
            {
                "pitch": 78,
                "velocity": 10,
                "duration": 0.1977,
                "tempo": 120.0
            },
            {
                "pitch": 0,
                "velocity": 0,
                "duration": 0.2023,
                "tempo": 0
            },
            {
                "pitch": 78,
                "velocity": 10,
                "duration": 0.2,
                "tempo": 120.0
            },
            {
                "pitch": 66,
                "velocity": 10,
                "duration": 0.2,
                "tempo": 120.0
            },
            {
                "pitch": 78,
                "velocity": 10,
                "duration": 0.2023,
                "tempo": 120.0
            },
            {
                "pitch": 0,
                "velocity": 0,
                "duration": 0.1955,
                "tempo": 0
            },
            {
                "pitch": 66,
                "velocity": 10,
                "duration": 0.1955,
                "tempo": 120.0
            },
            {
                "pitch": 66,
                "velocity": 10,
                "duration": 0.1977,
                "tempo": 120.0
            },
            {
                "pitch": 33,
                "velocity": 10,
                "duration": 12.7727,
                "tempo": 120.0
            },
            {
                "pitch": 78,
                "velocity": 10,
                "duration": 0.2,
                "tempo": 120.0
            },
            {
                "pitch": 68,
                "velocity": 10,
                "duration": 0.2,
                "tempo": 120.0
            },
            {
                "pitch": 80,
                "velocity": 10,
                "duration": 0.2023,
                "tempo": 120.0
            },
            {
                "pitch": 68,
                "velocity": 10,
                "duration": 0.1977,
                "tempo": 120.0
            },
            {
                "pitch": 80,
                "velocity": 10,
                "duration": 0.2,
                "tempo": 120.0
            },
            {
                "pitch": 0,
                "velocity": 0,
                "duration": 0.2023,
                "tempo": 0
            },
            {
                "pitch": 80,
                "velocity": 10,
                "duration": 0.2,
                "tempo": 120.0
            },
            {
                "pitch": 68,
                "velocity": 10,
                "duration": 0.2,
                "tempo": 120.0
            },
            {
                "pitch": 80,
                "velocity": 10,
                "duration": 0.2023,
                "tempo": 120.0
            },
            {
                "pitch": 0,
                "velocity": 0,
                "duration": 0.1977,
                "tempo": 0
            },
            {
                "pitch": 81,
                "velocity": 10,
                "duration": 0.2,
                "tempo": 120.0
            },
            {
                "pitch": 69,
                "velocity": 10,
                "duration": 0.1955,
                "tempo": 120.0
            },
            {
                "pitch": 81,
                "velocity": 10,
                "duration": 0.1955,
                "tempo": 120.0
            },
            {
                "pitch": 0,
                "velocity": 0,
                "duration": 0.2,
                "tempo": 0
            },
            {
                "pitch": 69,
                "velocity": 10,
                "duration": 0.2,
                "tempo": 120.0
            },
            {
                "pitch": 69,
                "velocity": 10,
                "duration": 0.2,
                "tempo": 120.0
            },
            {
                "pitch": 81,
                "velocity": 10,
                "duration": 0.2,
                "tempo": 120.0
            }
        ],
        "Synth Bass 1": [
            {
                "pitch": 0,
                "velocity": 0,
                "duration": 76.15,
                "tempo": 0
            },
            {
                "pitch": 69,
                "velocity": 1,
                "duration": 0.4023,
                "tempo": 120.0
            },
            {
                "pitch": 70,
                "velocity": 1,
                "duration": 1.2023,
                "tempo": 120.0
            },
            {
                "pitch": 72,
                "velocity": 1,
                "duration": 0.1977,
                "tempo": 120.0
            },
            {
                "pitch": 74,
                "velocity": 1,
                "duration": 0.6023,
                "tempo": 120.0
            },
            {
                "pitch": 74,
                "velocity": 1,
                "duration": 0.6023,
                "tempo": 120.0
            },
            {
                "pitch": 74,
                "velocity": 1,
                "duration": 0.4,
                "tempo": 120.0
            },
            {
                "pitch": 72,
                "velocity": 1,
                "duration": 0.3909,
                "tempo": 120.0
            },
            {
                "pitch": 72,
                "velocity": 1,
                "duration": 0.3909,
                "tempo": 120.0
            },
            {
                "pitch": 70,
                "velocity": 1,
                "duration": 0.4,
                "tempo": 120.0
            },
            {
                "pitch": 70,
                "velocity": 1,
                "duration": 0.4,
                "tempo": 120.0
            },
            {
                "pitch": 67,
                "velocity": 1,
                "duration": 0.2,
                "tempo": 120.0
            },
            {
                "pitch": 63,
                "velocity": 1,
                "duration": 1.9932,
                "tempo": 120.0
            },
            {
                "pitch": 70,
                "velocity": 1,
                "duration": 0.2,
                "tempo": 120.0
            },
            {
                "pitch": 69,
                "velocity": 1,
                "duration": 0.2,
                "tempo": 120.0
            },
            {
                "pitch": 67,
                "velocity": 1,
                "duration": 0.1977,
                "tempo": 120.0
            },
            {
                "pitch": 79,
                "velocity": 1,
                "duration": 0.0023,
                "tempo": 120.0
            },
            {
                "pitch": 39,
                "velocity": 1,
                "duration": 1.2,
                "tempo": 120.0
            },
            {
                "pitch": 66,
                "velocity": 1,
                "duration": 0.6,
                "tempo": 120.0
            },
            {
                "pitch": 70,
                "velocity": 1,
                "duration": 0.6,
                "tempo": 120.0
            },
            {
                "pitch": 76,
                "velocity": 1,
                "duration": 6.3841,
                "tempo": 120.0
            },
            {
                "pitch": 51,
                "velocity": 1,
                "duration": 5.5932,
                "tempo": 120.0
            },
            {
                "pitch": 73,
                "velocity": 1,
                "duration": 0.8,
                "tempo": 120.0
            },
            {
                "pitch": 70,
                "velocity": 1,
                "duration": 0.2023,
                "tempo": 120.0
            },
            {
                "pitch": 76,
                "velocity": 1,
                "duration": 1.0023,
                "tempo": 120.0
            },
            {
                "pitch": 72,
                "velocity": 1,
                "duration": 0.6023,
                "tempo": 120.0
            },
            {
                "pitch": 73,
                "velocity": 1,
                "duration": 0.3886,
                "tempo": 120.0
            },
            {
                "pitch": 72,
                "velocity": 1,
                "duration": 1.4045,
                "tempo": 120.0
            },
            {
                "pitch": 68,
                "velocity": 1,
                "duration": 0.2,
                "tempo": 120.0
            },
            {
                "pitch": 69,
                "velocity": 1,
                "duration": 0.5932,
                "tempo": 120.0
            },
            {
                "pitch": 69,
                "velocity": 1,
                "duration": 0.1955,
                "tempo": 120.0
            },
            {
                "pitch": 65,
                "velocity": 1,
                "duration": 0.2023,
                "tempo": 120.0
            },
            {
                "pitch": 72,
                "velocity": 1,
                "duration": 0.2,
                "tempo": 120.0
            },
            {
                "pitch": 73,
                "velocity": 1,
                "duration": 0.2,
                "tempo": 120.0
            },
            {
                "pitch": 51,
                "velocity": 1,
                "duration": 4.3886,
                "tempo": 120.0
            },
            {
                "pitch": 72,
                "velocity": 1,
                "duration": 0.2,
                "tempo": 120.0
            },
            {
                "pitch": 70,
                "velocity": 1,
                "duration": 0.2,
                "tempo": 120.0
            },
            {
                "pitch": 78,
                "velocity": 1,
                "duration": 1.0023,
                "tempo": 120.0
            },
            {
                "pitch": 65,
                "velocity": 1,
                "duration": 0.2,
                "tempo": 120.0
            },
            {
                "pitch": 73,
                "velocity": 1,
                "duration": 0.2,
                "tempo": 120.0
            },
            {
                "pitch": 72,
                "velocity": 1,
                "duration": 0.4,
                "tempo": 120.0
            },
            {
                "pitch": 70,
                "velocity": 1,
                "duration": 0.4,
                "tempo": 120.0
            },
            {
                "pitch": 76,
                "velocity": 1,
                "duration": 5.5864,
                "tempo": 120.0
            },
            {
                "pitch": 73,
                "velocity": 1,
                "duration": 0.4023,
                "tempo": 120.0
            },
            {
                "pitch": 77,
                "velocity": 1,
                "duration": 10.7841,
                "tempo": 120.0
            },
            {
                "pitch": 65,
                "velocity": 1,
                "duration": 0.2,
                "tempo": 120.0
            },
            {
                "pitch": 73,
                "velocity": 1,
                "duration": 0.2,
                "tempo": 120.0
            },
            {
                "pitch": 51,
                "velocity": 1,
                "duration": 2.5977,
                "tempo": 120.0
            },
            {
                "pitch": 72,
                "velocity": 1,
                "duration": 0.3955,
                "tempo": 120.0
            },
            {
                "pitch": 70,
                "velocity": 1,
                "duration": 0.1955,
                "tempo": 120.0
            },
            {
                "pitch": 76,
                "velocity": 1,
                "duration": 1.3932,
                "tempo": 120.0
            },
            {
                "pitch": 72,
                "velocity": 1,
                "duration": 0.2,
                "tempo": 120.0
            },
            {
                "pitch": 73,
                "velocity": 1,
                "duration": 0.2,
                "tempo": 120.0
            },
            {
                "pitch": 77,
                "velocity": 1,
                "duration": 2.7932,
                "tempo": 120.0
            },
            {
                "pitch": 77,
                "velocity": 1,
                "duration": 1.4023,
                "tempo": 120.0
            },
            {
                "pitch": 72,
                "velocity": 1,
                "duration": 0.1977,
                "tempo": 120.0
            },
            {
                "pitch": 69,
                "velocity": 1,
                "duration": 1.1932,
                "tempo": 120.0
            },
            {
                "pitch": 76,
                "velocity": 1,
                "duration": 3.1932,
                "tempo": 120.0
            },
            {
                "pitch": 72,
                "velocity": 1,
                "duration": 0.4,
                "tempo": 120.0
            },
            {
                "pitch": 73,
                "velocity": 1,
                "duration": 0.6,
                "tempo": 120.0
            },
            {
                "pitch": 51,
                "velocity": 1,
                "duration": 4.3909,
                "tempo": 120.0
            },
            {
                "pitch": 51,
                "velocity": 1,
                "duration": 0.0023,
                "tempo": 120.0
            },
            {
                "pitch": 70,
                "velocity": 1,
                "duration": 0.1977,
                "tempo": 120.0
            },
            {
                "pitch": 76,
                "velocity": 1,
                "duration": 1.2,
                "tempo": 120.0
            },
            {
                "pitch": 72,
                "velocity": 1,
                "duration": 0.4023,
                "tempo": 120.0
            },
            {
                "pitch": 70,
                "velocity": 1,
                "duration": 0.3977,
                "tempo": 120.0
            },
            {
                "pitch": 60,
                "velocity": 1,
                "duration": 9.3886,
                "tempo": 120.0
            },
            {
                "pitch": 66,
                "velocity": 1,
                "duration": 0.8023,
                "tempo": 120.0
            },
            {
                "pitch": 72,
                "velocity": 1,
                "duration": 0.3909,
                "tempo": 120.0
            },
            {
                "pitch": 73,
                "velocity": 1,
                "duration": 0.4,
                "tempo": 120.0
            },
            {
                "pitch": 75,
                "velocity": 1,
                "duration": 1.6023,
                "tempo": 120.0
            },
            {
                "pitch": 75,
                "velocity": 1,
                "duration": 0.7909,
                "tempo": 120.0
            },
            {
                "pitch": 72,
                "velocity": 1,
                "duration": 0.6,
                "tempo": 120.0
            }
        ],
        "Acoustic Grand Piano": [
            {
                "pitch": 0,
                "velocity": 0,
                "duration": 102.1,
                "tempo": 0
            },
            {
                "pitch": 108,
                "velocity": 15,
                "duration": 0.1,
                "tempo": 120.0
            }
        ]
    }
}