{
    "track_id": "02 Sample 2_14",
    "mood": "happy",
    "instruments": {
        "Lead 1 (square)": [
            {
                "pitch": 0,
                "velocity": 0,
                "duration": 12.85,
                "tempo": 0
            },
            {
                "pitch": 69,
                "velocity": 10,
                "duration": 0.2023,
                "tempo": 120.0
            },
            {
                "pitch": 0,
                "velocity": 0,
                "duration": 0.2023,
                "tempo": 0
            },
            {
                "pitch": 74,
                "velocity": 10,
                "duration": 0.1,
                "tempo": 120.0
            },
            {
                "pitch": 0,
                "velocity": 0,
                "duration": 0.1,
                "tempo": 0
            },
            {
                "pitch": 67,
                "velocity": 10,
                "duration": 0.2023,
                "tempo": 120.0
            },
            {
                "pitch": 0,
                "velocity": 0,
                "duration": 0.2,
                "tempo": 0
            },
            {
                "pitch": 67,
                "velocity": 10,
                "duration": 0.2,
                "tempo": 120.0
            },
            {
                "pitch": 0,
                "velocity": 0,
                "duration": 0.2,
                "tempo": 0
            },
            {
                "pitch": 67,
                "velocity": 10,
                "duration": 0.2023,
                "tempo": 120.0
            },
            {
                "pitch": 0,
                "velocity": 0,
                "duration": 0.2023,
                "tempo": 0
            },
            {
                "pitch": 69,
                "velocity": 10,
                "duration": 0.1,
                "tempo": 120.0
            },
            {
                "pitch": 0,
                "velocity": 0,
                "duration": 0.1,
                "tempo": 0
            },
            {
                "pitch": 69,
                "velocity": 10,
                "duration": 0.4023,
                "tempo": 120.0
            },
            {
                "pitch": 0,
                "velocity": 0,
                "duration": 0.8023,
                "tempo": 0
            },
            {
                "pitch": 69,
                "velocity": 10,
                "duration": 0.2023,
                "tempo": 120.0
            },
            {
                "pitch": 0,
                "velocity": 0,
                "duration": 0.2023,
                "tempo": 0
            },
            {
                "pitch": 74,
                "velocity": 10,
                "duration": 0.1,
                "tempo": 120.0
            },
            {
                "pitch": 0,
                "velocity": 0,
                "duration": 0.1,
                "tempo": 0
            },
            {
                "pitch": 67,
                "velocity": 10,
                "duration": 0.2023,
                "tempo": 120.0
            },
            {
                "pitch": 0,
                "velocity": 0,
                "duration": 0.2,
                "tempo": 0
            },
            {
                "pitch": 67,
                "velocity": 10,
                "duration": 0.2,
                "tempo": 120.0
            },
            {
                "pitch": 0,
                "velocity": 0,
                "duration": 0.2,
                "tempo": 0
            },
            {
                "pitch": 67,
                "velocity": 10,
                "duration": 0.2,
                "tempo": 120.0
            },
            {
                "pitch": 0,
                "velocity": 0,
                "duration": 0.2,
                "tempo": 0
            },
            {
                "pitch": 69,
                "velocity": 10,
                "duration": 0.1023,
                "tempo": 120.0
            },
            {
                "pitch": 0,
                "velocity": 0,
                "duration": 0.1,
                "tempo": 0
            },
            {
                "pitch": 69,
                "velocity": 10,
                "duration": 0.4,
                "tempo": 120.0
            },
            {
                "pitch": 0,
                "velocity": 0,
                "duration": 0.8023,
                "tempo": 0
            },
            {
                "pitch": 69,
                "velocity": 10,
                "duration": 0.2,
                "tempo": 120.0
            },
            {
                "pitch": 0,
                "velocity": 0,
                "duration": 0.2,
                "tempo": 0
            },
            {
                "pitch": 74,
                "velocity": 10,
                "duration": 0.1023,
                "tempo": 120.0
            },
            {
                "pitch": 0,
                "velocity": 0,
                "duration": 0.1,
                "tempo": 0
            },
            {
                "pitch": 67,
                "velocity": 10,
                "duration": 0.2,
                "tempo": 120.0
            },
            {
                "pitch": 0,
                "velocity": 0,
                "duration": 0.2,
                "tempo": 0
            },
            {
                "pitch": 67,
                "velocity": 10,
                "duration": 0.2,
                "tempo": 120.0
            },
            {
                "pitch": 0,
                "velocity": 0,
                "duration": 0.2023,
                "tempo": 0
            },
            {
                "pitch": 67,
                "velocity": 10,
                "duration": 0.2023,
                "tempo": 120.0
            },
            {
                "pitch": 0,
                "velocity": 0,
                "duration": 0.2,
                "tempo": 0
            },
            {
                "pitch": 69,
                "velocity": 10,
                "duration": 0.1,
                "tempo": 120.0
            },
            {
                "pitch": 0,
                "velocity": 0,
                "duration": 0.1,
                "tempo": 0
            },
            {
                "pitch": 69,
                "velocity": 10,
                "duration": 0.4,
                "tempo": 120.0
            },
            {
                "pitch": 0,
                "velocity": 0,
                "duration": 0.8023,
                "tempo": 0
            },
            {
                "pitch": 69,
                "velocity": 10,
                "duration": 0.2,
                "tempo": 120.0
            },
            {
                "pitch": 0,
                "velocity": 0,
                "duration": 0.2023,
                "tempo": 0
            },
            {
                "pitch": 74,
                "velocity": 10,
                "duration": 0.1,
                "tempo": 120.0
            },
            {
                "pitch": 0,
                "velocity": 0,
                "duration": 0.1,
                "tempo": 0
            },
            {
                "pitch": 67,
                "velocity": 10,
                "duration": 0.2,
                "tempo": 120.0
            },
            {
                "pitch": 0,
                "velocity": 0,
                "duration": 0.2,
                "tempo": 0
            },
            {
                "pitch": 74,
                "velocity": 10,
                "duration": 0.2,
                "tempo": 120.0
            },
            {
                "pitch": 0,
                "velocity": 0,
                "duration": 0.2023,
                "tempo": 0
            },
            {
                "pitch": 76,
                "velocity": 10,
                "duration": 1.1977,
                "tempo": 120.0
            },
            {
                "pitch": 0,
                "velocity": 0,
                "duration": 0.6045,
                "tempo": 0
            },
            {
                "pitch": 69,
                "velocity": 10,
                "duration": 0.2023,
                "tempo": 120.0
            },
            {
                "pitch": 0,
                "velocity": 0,
                "duration": 0.2023,
                "tempo": 0
            },
            {
                "pitch": 74,
                "velocity": 10,
                "duration": 0.1,
                "tempo": 120.0
            },
            {
                "pitch": 0,
                "velocity": 0,
                "duration": 0.1,
                "tempo": 0
            },
            {
                "pitch": 67,
                "velocity": 10,
                "duration": 0.2,
                "tempo": 120.0
            },
            {
                "pitch": 0,
                "velocity": 0,
                "duration": 0.2,
                "tempo": 0
            },
            {
                "pitch": 67,
                "velocity": 10,
                "duration": 0.2023,
                "tempo": 120.0
            },
            {
                "pitch": 0,
                "velocity": 0,
                "duration": 0.2,
                "tempo": 0
            },
            {
                "pitch": 67,
                "velocity": 10,
                "duration": 0.2,
                "tempo": 120.0
            },
            {
                "pitch": 0,
                "velocity": 0,
                "duration": 0.2,
                "tempo": 0
            },
            {
                "pitch": 69,
                "velocity": 10,
                "duration": 0.1,
                "tempo": 120.0
            },
            {
                "pitch": 0,
                "velocity": 0,
                "duration": 0.1,
                "tempo": 0
            },
            {
                "pitch": 69,
                "velocity": 10,
                "duration": 0.4023,
                "tempo": 120.0
            },
            {
                "pitch": 0,
                "velocity": 0,
                "duration": 0.8023,
                "tempo": 0
            },
            {
                "pitch": 69,
                "velocity": 10,
                "duration": 0.2,
                "tempo": 120.0
            },
            {
                "pitch": 0,
                "velocity": 0,
                "duration": 0.2,
                "tempo": 0
            },
            {
                "pitch": 74,
                "velocity": 10,
                "duration": 0.1,
                "tempo": 120.0
            },
            {
                "pitch": 0,
                "velocity": 0,
                "duration": 0.1,
                "tempo": 0
            },
            {
                "pitch": 67,
                "velocity": 10,
                "duration": 0.2,
                "tempo": 120.0
            },
            {
                "pitch": 0,
                "velocity": 0,
                "duration": 0.2023,
                "tempo": 0
            },
            {
                "pitch": 67,
                "velocity": 10,
                "duration": 0.2,
                "tempo": 120.0
            },
            {
                "pitch": 0,
                "velocity": 0,
                "duration": 0.2,
                "tempo": 0
            },
            {
                "pitch": 67,
                "velocity": 10,
                "duration": 0.2,
                "tempo": 120.0
            },
            {
                "pitch": 0,
                "velocity": 0,
                "duration": 0.2023,
                "tempo": 0
            },
            {
                "pitch": 69,
                "velocity": 10,
                "duration": 0.1,
                "tempo": 120.0
            },
            {
                "pitch": 0,
                "velocity": 0,
                "duration": 0.1023,
                "tempo": 0
            },
            {
                "pitch": 69,
                "velocity": 10,
                "duration": 0.4,
                "tempo": 120.0
            },
            {
                "pitch": 0,
                "velocity": 0,
                "duration": 0.8023,
                "tempo": 0
            },
            {
                "pitch": 69,
                "velocity": 10,
                "duration": 0.2,
                "tempo": 120.0
            },
            {
                "pitch": 0,
                "velocity": 0,
                "duration": 0.2023,
                "tempo": 0
            },
            {
                "pitch": 74,
                "velocity": 10,
                "duration": 0.1,
                "tempo": 120.0
            },
            {
                "pitch": 0,
                "velocity": 0,
                "duration": 0.1,
                "tempo": 0
            },
            {
                "pitch": 67,
                "velocity": 10,
                "duration": 0.2,
                "tempo": 120.0
            },
            {
                "pitch": 0,
                "velocity": 0,
                "duration": 0.2,
                "tempo": 0
            },
            {
                "pitch": 67,
                "velocity": 10,
                "duration": 0.2,
                "tempo": 120.0
            },
            {
                "pitch": 0,
                "velocity": 0,
                "duration": 0.2,
                "tempo": 0
            },
            {
                "pitch": 67,
                "velocity": 10,
                "duration": 0.2,
                "tempo": 120.0
            },
            {
                "pitch": 0,
                "velocity": 0,
                "duration": 0.2,
                "tempo": 0
            },
            {
                "pitch": 69,
                "velocity": 10,
                "duration": 0.1,
                "tempo": 120.0
            },
            {
                "pitch": 0,
                "velocity": 0,
                "duration": 0.1,
                "tempo": 0
            },
            {
                "pitch": 69,
                "velocity": 10,
                "duration": 0.4023,
                "tempo": 120.0
            },
            {
                "pitch": 0,
                "velocity": 0,
                "duration": 0.8,
                "tempo": 0
            },
            {
                "pitch": 69,
                "velocity": 10,
                "duration": 0.2,
                "tempo": 120.0
            },
            {
                "pitch": 0,
                "velocity": 0,
                "duration": 0.2,
                "tempo": 0
            },
            {
                "pitch": 74,
                "velocity": 10,
                "duration": 0.1,
                "tempo": 120.0
            },
            {
                "pitch": 0,
                "velocity": 0,
                "duration": 0.1,
                "tempo": 0
            },
            {
                "pitch": 67,
                "velocity": 10,
                "duration": 0.2,
                "tempo": 120.0
            },
            {
                "pitch": 0,
                "velocity": 0,
                "duration": 0.2023,
                "tempo": 0
            },
            {
                "pitch": 74,
                "velocity": 10,
                "duration": 0.2,
                "tempo": 120.0
            },
            {
                "pitch": 0,
                "velocity": 0,
                "duration": 29.2432,
                "tempo": 0
            },
            {
                "pitch": 69,
                "velocity": 10,
                "duration": 0.2023,
                "tempo": 120.0
            },
            {
                "pitch": 0,
                "velocity": 0,
                "duration": 0.2023,
                "tempo": 0
            },
            {
                "pitch": 74,
                "velocity": 10,
                "duration": 0.1,
                "tempo": 120.0
            },
            {
                "pitch": 0,
                "velocity": 0,
                "duration": 0.1,
                "tempo": 0
            },
            {
                "pitch": 67,
                "velocity": 10,
                "duration": 0.2,
                "tempo": 120.0
            },
            {
                "pitch": 0,
                "velocity": 0,
                "duration": 0.2,
                "tempo": 0
            },
            {
                "pitch": 67,
                "velocity": 10,
                "duration": 0.2023,
                "tempo": 120.0
            },
            {
                "pitch": 0,
                "velocity": 0,
                "duration": 0.2,
                "tempo": 0
            },
            {
                "pitch": 67,
                "velocity": 10,
                "duration": 0.2,
                "tempo": 120.0
            },
            {
                "pitch": 0,
                "velocity": 0,
                "duration": 0.2,
                "tempo": 0
            },
            {
                "pitch": 69,
                "velocity": 10,
                "duration": 0.1023,
                "tempo": 120.0
            },
            {
                "pitch": 0,
                "velocity": 0,
                "duration": 0.1,
                "tempo": 0
            },
            {
                "pitch": 69,
                "velocity": 10,
                "duration": 0.4023,
                "tempo": 120.0
            },
            {
                "pitch": 0,
                "velocity": 0,
                "duration": 0.8023,
                "tempo": 0
            },
            {
                "pitch": 69,
                "velocity": 10,
                "duration": 0.2,
                "tempo": 120.0
            },
            {
                "pitch": 0,
                "velocity": 0,
                "duration": 0.2,
                "tempo": 0
            },
            {
                "pitch": 74,
                "velocity": 10,
                "duration": 0.1023,
                "tempo": 120.0
            },
            {
                "pitch": 0,
                "velocity": 0,
                "duration": 0.1,
                "tempo": 0
            },
            {
                "pitch": 67,
                "velocity": 10,
                "duration": 0.2023,
                "tempo": 120.0
            },
            {
                "pitch": 0,
                "velocity": 0,
                "duration": 0.2,
                "tempo": 0
            },
            {
                "pitch": 67,
                "velocity": 10,
                "duration": 0.2023,
                "tempo": 120.0
            },
            {
                "pitch": 0,
                "velocity": 0,
                "duration": 0.2,
                "tempo": 0
            },
            {
                "pitch": 67,
                "velocity": 10,
                "duration": 0.2,
                "tempo": 120.0
            },
            {
                "pitch": 0,
                "velocity": 0,
                "duration": 0.2,
                "tempo": 0
            },
            {
                "pitch": 69,
                "velocity": 10,
                "duration": 0.1023,
                "tempo": 120.0
            },
            {
                "pitch": 0,
                "velocity": 0,
                "duration": 0.1,
                "tempo": 0
            },
            {
                "pitch": 69,
                "velocity": 10,
                "duration": 0.4,
                "tempo": 120.0
            },
            {
                "pitch": 0,
                "velocity": 0,
                "duration": 0.8045,
                "tempo": 0
            },
            {
                "pitch": 69,
                "velocity": 10,
                "duration": 0.2,
                "tempo": 120.0
            },
            {
                "pitch": 0,
                "velocity": 0,
                "duration": 0.2,
                "tempo": 0
            },
            {
                "pitch": 74,
                "velocity": 10,
                "duration": 0.1023,
                "tempo": 120.0
            },
            {
                "pitch": 0,
                "velocity": 0,
                "duration": 0.1,
                "tempo": 0
            },
            {
                "pitch": 67,
                "velocity": 10,
                "duration": 0.2,
                "tempo": 120.0
            },
            {
                "pitch": 0,
                "velocity": 0,
                "duration": 0.2,
                "tempo": 0
            },
            {
                "pitch": 67,
                "velocity": 10,
                "duration": 0.2,
                "tempo": 120.0
            },
            {
                "pitch": 0,
                "velocity": 0,
                "duration": 0.2023,
                "tempo": 0
            },
            {
                "pitch": 67,
                "velocity": 10,
                "duration": 0.2023,
                "tempo": 120.0
            },
            {
                "pitch": 0,
                "velocity": 0,
                "duration": 0.2,
                "tempo": 0
            },
            {
                "pitch": 69,
                "velocity": 10,
                "duration": 0.1023,
                "tempo": 120.0
            },
            {
                "pitch": 0,
                "velocity": 0,
                "duration": 0.1,
                "tempo": 0
            },
            {
                "pitch": 69,
                "velocity": 10,
                "duration": 0.4,
                "tempo": 120.0
            },
            {
                "pitch": 0,
                "velocity": 0,
                "duration": 0.8023,
                "tempo": 0
            },
            {
                "pitch": 69,
                "velocity": 10,
                "duration": 0.2023,
                "tempo": 120.0
            },
            {
                "pitch": 0,
                "velocity": 0,
                "duration": 0.2,
                "tempo": 0
            },
            {
                "pitch": 74,
                "velocity": 10,
                "duration": 0.1,
                "tempo": 120.0
            },
            {
                "pitch": 0,
                "velocity": 0,
                "duration": 0.1023,
                "tempo": 0
            },
            {
                "pitch": 67,
                "velocity": 10,
                "duration": 0.2,
                "tempo": 120.0
            },
            {
                "pitch": 0,
                "velocity": 0,
                "duration": 0.2,
                "tempo": 0
            },
            {
                "pitch": 74,
                "velocity": 10,
                "duration": 0.2,
                "tempo": 120.0
            },
            {
                "pitch": 0,
                "velocity": 0,
                "duration": 0.2023,
                "tempo": 0
            },
            {
                "pitch": 76,
                "velocity": 10,
                "duration": 1.1977,
                "tempo": 120.0
            },
            {
                "pitch": 0,
                "velocity": 0,
                "duration": 0.6068,
                "tempo": 0
            },
            {
                "pitch": 69,
                "velocity": 10,
                "duration": 0.2,
                "tempo": 120.0
            },
            {
                "pitch": 0,
                "velocity": 0,
                "duration": 0.2023,
                "tempo": 0
            },
            {
                "pitch": 74,
                "velocity": 10,
                "duration": 0.1,
                "tempo": 120.0
            },
            {
                "pitch": 0,
                "velocity": 0,
                "duration": 0.1,
                "tempo": 0
            },
            {
                "pitch": 67,
                "velocity": 10,
                "duration": 0.2,
                "tempo": 120.0
            },
            {
                "pitch": 0,
                "velocity": 0,
                "duration": 0.2023,
                "tempo": 0
            },
            {
                "pitch": 67,
                "velocity": 10,
                "duration": 0.2,
                "tempo": 120.0
            },
            {
                "pitch": 0,
                "velocity": 0,
                "duration": 0.2023,
                "tempo": 0
            },
            {
                "pitch": 67,
                "velocity": 10,
                "duration": 0.2,
                "tempo": 120.0
            },
            {
                "pitch": 0,
                "velocity": 0,
                "duration": 0.2,
                "tempo": 0
            },
            {
                "pitch": 69,
                "velocity": 10,
                "duration": 0.1,
                "tempo": 120.0
            },
            {
                "pitch": 0,
                "velocity": 0,
                "duration": 0.1,
                "tempo": 0
            },
            {
                "pitch": 69,
                "velocity": 10,
                "duration": 0.4045,
                "tempo": 120.0
            },
            {
                "pitch": 0,
                "velocity": 0,
                "duration": 0.8023,
                "tempo": 0
            },
            {
                "pitch": 69,
                "velocity": 10,
                "duration": 0.2,
                "tempo": 120.0
            },
            {
                "pitch": 0,
                "velocity": 0,
                "duration": 0.2023,
                "tempo": 0
            },
            {
                "pitch": 74,
                "velocity": 10,
                "duration": 0.1,
                "tempo": 120.0
            },
            {
                "pitch": 0,
                "velocity": 0,
                "duration": 0.1,
                "tempo": 0
            },
            {
                "pitch": 67,
                "velocity": 10,
                "duration": 0.2,
                "tempo": 120.0
            },
            {
                "pitch": 0,
                "velocity": 0,
                "duration": 0.2023,
                "tempo": 0
            },
            {
                "pitch": 67,
                "velocity": 10,
                "duration": 0.2,
                "tempo": 120.0
            },
            {
                "pitch": 0,
                "velocity": 0,
                "duration": 0.2,
                "tempo": 0
            },
            {
                "pitch": 67,
                "velocity": 10,
                "duration": 0.2,
                "tempo": 120.0
            },
            {
                "pitch": 0,
                "velocity": 0,
                "duration": 0.2023,
                "tempo": 0
            },
            {
                "pitch": 69,
                "velocity": 10,
                "duration": 0.1,
                "tempo": 120.0
            },
            {
                "pitch": 0,
                "velocity": 0,
                "duration": 0.1,
                "tempo": 0
            },
            {
                "pitch": 69,
                "velocity": 10,
                "duration": 0.4045,
                "tempo": 120.0
            },
            {
                "pitch": 0,
                "velocity": 0,
                "duration": 0.8023,
                "tempo": 0
            },
            {
                "pitch": 69,
                "velocity": 10,
                "duration": 0.2,
                "tempo": 120.0
            },
            {
                "pitch": 0,
                "velocity": 0,
                "duration": 0.2,
                "tempo": 0
            },
            {
                "pitch": 74,
                "velocity": 10,
                "duration": 0.1,
                "tempo": 120.0
            },
            {
                "pitch": 0,
                "velocity": 0,
                "duration": 0.1,
                "tempo": 0
            },
            {
                "pitch": 67,
                "velocity": 10,
                "duration": 0.2023,
                "tempo": 120.0
            },
            {
                "pitch": 0,
                "velocity": 0,
                "duration": 0.2,
                "tempo": 0
            },
            {
                "pitch": 67,
                "velocity": 10,
                "duration": 0.2023,
                "tempo": 120.0
            },
            {
                "pitch": 0,
                "velocity": 0,
                "duration": 0.2,
                "tempo": 0
            },
            {
                "pitch": 67,
                "velocity": 10,
                "duration": 0.2,
                "tempo": 120.0
            },
            {
                "pitch": 0,
                "velocity": 0,
                "duration": 0.2023,
                "tempo": 0
            },
            {
                "pitch": 69,
                "velocity": 10,
                "duration": 0.1,
                "tempo": 120.0
            },
            {
                "pitch": 0,
                "velocity": 0,
                "duration": 0.1,
                "tempo": 0
            },
            {
                "pitch": 69,
                "velocity": 10,
                "duration": 0.4,
                "tempo": 120.0
            },
            {
                "pitch": 0,
                "velocity": 0,
                "duration": 0.8068,
                "tempo": 0
            },
            {
                "pitch": 69,
                "velocity": 10,
                "duration": 0.2,
                "tempo": 120.0
            },
            {
                "pitch": 0,
                "velocity": 0,
                "duration": 0.2,
                "tempo": 0
            },
            {
                "pitch": 74,
                "velocity": 10,
                "duration": 0.1,
                "tempo": 120.0
            },
            {
                "pitch": 0,
                "velocity": 0,
                "duration": 0.1,
                "tempo": 0
            },
            {
                "pitch": 67,
                "velocity": 10,
                "duration": 0.2023,
                "tempo": 120.0
            },
            {
                "pitch": 0,
                "velocity": 0,
                "duration": 0.2,
                "tempo": 0
            },
            {
                "pitch": 74,
                "velocity": 10,
                "duration": 0.2,
                "tempo": 120.0
            }
        ],
        "Lead 2 (sawtooth)": [
            {
                "pitch": 67,
                "velocity": 15,
                "duration": 0.0205,
                "tempo": 120.0
            },
            {
                "pitch": 0,
                "velocity": 0,
                "duration": 0.0795,
                "tempo": 0
            },
            {
                "pitch": 72,
                "velocity": 15,
                "duration": 0.0205,
                "tempo": 120.0
            },
            {
                "pitch": 0,
                "velocity": 0,
                "duration": 0.0818,
                "tempo": 0
            },
            {
                "pitch": 74,
                "velocity": 15,
                "duration": 0.0182,
                "tempo": 120.0
            },
            {
                "pitch": 0,
                "velocity": 0,
                "duration": 0.0818,
                "tempo": 0
            },
            {
                "pitch": 79,
                "velocity": 15,
                "duration": 0.0205,
                "tempo": 120.0
            },
            {
                "pitch": 0,
                "velocity": 0,
                "duration": 0.0795,
                "tempo": 0
            },
            {
                "pitch": 67,
                "velocity": 15,
                "duration": 0.0205,
                "tempo": 120.0
            },
            {
                "pitch": 0,
                "velocity": 0,
                "duration": 0.0795,
                "tempo": 0
            },
            {
                "pitch": 74,
                "velocity": 15,
                "duration": 0.0205,
                "tempo": 120.0
            },
            {
                "pitch": 0,
                "velocity": 0,
                "duration": 0.0795,
                "tempo": 0
            },
            {
                "pitch": 72,
                "velocity": 15,
                "duration": 0.0205,
                "tempo": 120.0
            },
            {
                "pitch": 0,
                "velocity": 0,
                "duration": 0.0795,
                "tempo": 0
            },
            {
                "pitch": 79,
                "velocity": 15,
                "duration": 0.0205,
                "tempo": 120.0
            },
            {
                "pitch": 0,
                "velocity": 0,
                "duration": 0.0795,
                "tempo": 0
            },
            {
                "pitch": 74,
                "velocity": 15,
                "duration": 0.0205,
                "tempo": 120.0
            },
            {
                "pitch": 0,
                "velocity": 0,
                "duration": 0.0795,
                "tempo": 0
            },
            {
                "pitch": 67,
                "velocity": 15,
                "duration": 0.0205,
                "tempo": 120.0
            },
            {
                "pitch": 0,
                "velocity": 0,
                "duration": 0.0795,
                "tempo": 0
            },
            {
                "pitch": 72,
                "velocity": 15,
                "duration": 0.0205,
                "tempo": 120.0
            },
            {
                "pitch": 0,
                "velocity": 0,
                "duration": 0.0795,
                "tempo": 0
            },
            {
                "pitch": 74,
                "velocity": 15,
                "duration": 0.0205,
                "tempo": 120.0
            },
            {
                "pitch": 0,
                "velocity": 0,
                "duration": 0.0795,
                "tempo": 0
            },
            {
                "pitch": 79,
                "velocity": 15,
                "duration": 0.0205,
                "tempo": 120.0
            },
            {
                "pitch": 0,
                "velocity": 0,
                "duration": 0.0841,
                "tempo": 0
            },
            {
                "pitch": 67,
                "velocity": 15,
                "duration": 0.0205,
                "tempo": 120.0
            },
            {
                "pitch": 0,
                "velocity": 0,
                "duration": 0.0864,
                "tempo": 0
            },
            {
                "pitch": 74,
                "velocity": 15,
                "duration": 0.0205,
                "tempo": 120.0
            },
            {
                "pitch": 0,
                "velocity": 0,
                "duration": 0.0841,
                "tempo": 0
            },
            {
                "pitch": 72,
                "velocity": 15,
                "duration": 0.0205,
                "tempo": 120.0
            },
            {
                "pitch": 0,
                "velocity": 0,
                "duration": 0.0864,
                "tempo": 0
            },
            {
                "pitch": 67,
                "velocity": 15,
                "duration": 0.0205,
                "tempo": 120.0
            },
            {
                "pitch": 0,
                "velocity": 0,
                "duration": 0.0773,
                "tempo": 0
            },
            {
                "pitch": 72,
                "velocity": 15,
                "duration": 0.0205,
                "tempo": 120.0
            },
            {
                "pitch": 0,
                "velocity": 0,
                "duration": 0.0773,
                "tempo": 0
            },
            {
                "pitch": 74,
                "velocity": 15,
                "duration": 0.0205,
                "tempo": 120.0
            },
            {
                "pitch": 0,
                "velocity": 0,
                "duration": 0.0773,
                "tempo": 0
            },
            {
                "pitch": 79,
                "velocity": 15,
                "duration": 0.0205,
                "tempo": 120.0
            },
            {
                "pitch": 0,
                "velocity": 0,
                "duration": 0.0773,
                "tempo": 0
            },
            {
                "pitch": 67,
                "velocity": 15,
                "duration": 0.0205,
                "tempo": 120.0
            },
            {
                "pitch": 0,
                "velocity": 0,
                "duration": 0.0795,
                "tempo": 0
            },
            {
                "pitch": 74,
                "velocity": 15,
                "duration": 0.0205,
                "tempo": 120.0
            },
            {
                "pitch": 0,
                "velocity": 0,
                "duration": 0.0795,
                "tempo": 0
            },
            {
                "pitch": 72,
                "velocity": 15,
                "duration": 0.0205,
                "tempo": 120.0
            },
            {
                "pitch": 0,
                "velocity": 0,
                "duration": 0.0795,
                "tempo": 0
            },
            {
                "pitch": 79,
                "velocity": 15,
                "duration": 0.0205,
                "tempo": 120.0
            },
            {
                "pitch": 0,
                "velocity": 0,
                "duration": 0.0795,
                "tempo": 0
            },
            {
                "pitch": 74,
                "velocity": 15,
                "duration": 0.0205,
                "tempo": 120.0
            },
            {
                "pitch": 0,
                "velocity": 0,
                "duration": 0.0818,
                "tempo": 0
            },
            {
                "pitch": 67,
                "velocity": 15,
                "duration": 0.0205,
                "tempo": 120.0
            },
            {
                "pitch": 0,
                "velocity": 0,
                "duration": 0.0841,
                "tempo": 0
            },
            {
                "pitch": 72,
                "velocity": 15,
                "duration": 0.0205,
                "tempo": 120.0
            },
            {
                "pitch": 0,
                "velocity": 0,
                "duration": 0.0818,
                "tempo": 0
            },
            {
                "pitch": 74,
                "velocity": 15,
                "duration": 0.0205,
                "tempo": 120.0
            },
            {
                "pitch": 0,
                "velocity": 0,
                "duration": 0.0818,
                "tempo": 0
            },
            {
                "pitch": 79,
                "velocity": 15,
                "duration": 0.0205,
                "tempo": 120.0
            },
            {
                "pitch": 0,
                "velocity": 0,
                "duration": 0.0795,
                "tempo": 0
            },
            {
                "pitch": 67,
                "velocity": 15,
                "duration": 0.0205,
                "tempo": 120.0
            },
            {
                "pitch": 0,
                "velocity": 0,
                "duration": 0.0795,
                "tempo": 0
            },
            {
                "pitch": 74,
                "velocity": 15,
                "duration": 0.0205,
                "tempo": 120.0
            },
            {
                "pitch": 0,
                "velocity": 0,
                "duration": 0.0795,
                "tempo": 0
            },
            {
                "pitch": 72,
                "velocity": 15,
                "duration": 0.0205,
                "tempo": 120.0
            },
            {
                "pitch": 0,
                "velocity": 0,
                "duration": 0.0795,
                "tempo": 0
            },
            {
                "pitch": 67,
                "velocity": 15,
                "duration": 0.0205,
                "tempo": 120.0
            },
            {
                "pitch": 0,
                "velocity": 0,
                "duration": 0.0773,
                "tempo": 0
            },
            {
                "pitch": 72,
                "velocity": 15,
                "duration": 0.0205,
                "tempo": 120.0
            },
            {
                "pitch": 0,
                "velocity": 0,
                "duration": 0.0795,
                "tempo": 0
            },
            {
                "pitch": 74,
                "velocity": 15,
                "duration": 0.0182,
                "tempo": 120.0
            },
            {
                "pitch": 0,
                "velocity": 0,
                "duration": 0.0795,
                "tempo": 0
            },
            {
                "pitch": 79,
                "velocity": 15,
                "duration": 0.0182,
                "tempo": 120.0
            },
            {
                "pitch": 0,
                "velocity": 0,
                "duration": 0.0795,
                "tempo": 0
            },
            {
                "pitch": 67,
                "velocity": 15,
                "duration": 0.0205,
                "tempo": 120.0
            },
            {
                "pitch": 0,
                "velocity": 0,
                "duration": 0.0795,
                "tempo": 0
            },
            {
                "pitch": 74,
                "velocity": 15,
                "duration": 0.0205,
                "tempo": 120.0
            },
            {
                "pitch": 0,
                "velocity": 0,
                "duration": 0.0795,
                "tempo": 0
            },
            {
                "pitch": 72,
                "velocity": 15,
                "duration": 0.0205,
                "tempo": 120.0
            },
            {
                "pitch": 0,
                "velocity": 0,
                "duration": 0.0795,
                "tempo": 0
            },
            {
                "pitch": 79,
                "velocity": 15,
                "duration": 0.0205,
                "tempo": 120.0
            },
            {
                "pitch": 0,
                "velocity": 0,
                "duration": 0.0795,
                "tempo": 0
            },
            {
                "pitch": 74,
                "velocity": 15,
                "duration": 0.0205,
                "tempo": 120.0
            },
            {
                "pitch": 0,
                "velocity": 0,
                "duration": 0.0795,
                "tempo": 0
            },
            {
                "pitch": 67,
                "velocity": 15,
                "duration": 0.0205,
                "tempo": 120.0
            },
            {
                "pitch": 0,
                "velocity": 0,
                "duration": 0.0795,
                "tempo": 0
            },
            {
                "pitch": 72,
                "velocity": 15,
                "duration": 0.0205,
                "tempo": 120.0
            },
            {
                "pitch": 0,
                "velocity": 0,
                "duration": 0.0818,
                "tempo": 0
            },
            {
                "pitch": 74,
                "velocity": 15,
                "duration": 0.0182,
                "tempo": 120.0
            },
            {
                "pitch": 0,
                "velocity": 0,
                "duration": 0.0818,
                "tempo": 0
            },
            {
                "pitch": 79,
                "velocity": 15,
                "duration": 0.0205,
                "tempo": 120.0
            },
            {
                "pitch": 0,
                "velocity": 0,
                "duration": 0.0773,
                "tempo": 0
            },
            {
                "pitch": 67,
                "velocity": 15,
                "duration": 0.0205,
                "tempo": 120.0
            },
            {
                "pitch": 0,
                "velocity": 0,
                "duration": 0.0773,
                "tempo": 0
            },
            {
                "pitch": 74,
                "velocity": 15,
                "duration": 0.0205,
                "tempo": 120.0
            },
            {
                "pitch": 0,
                "velocity": 0,
                "duration": 0.0773,
                "tempo": 0
            },
            {
                "pitch": 72,
                "velocity": 15,
                "duration": 0.0205,
                "tempo": 120.0
            },
            {
                "pitch": 0,
                "velocity": 0,
                "duration": 0.0773,
                "tempo": 0
            },
            {
                "pitch": 67,
                "velocity": 15,
                "duration": 0.0205,
                "tempo": 120.0
            },
            {
                "pitch": 0,
                "velocity": 0,
                "duration": 0.0818,
                "tempo": 0
            },
            {
                "pitch": 72,
                "velocity": 15,
                "duration": 0.0227,
                "tempo": 120.0
            },
            {
                "pitch": 0,
                "velocity": 0,
                "duration": 0.0818,
                "tempo": 0
            },
            {
                "pitch": 74,
                "velocity": 15,
                "duration": 0.0205,
                "tempo": 120.0
            },
            {
                "pitch": 0,
                "velocity": 0,
                "duration": 0.0818,
                "tempo": 0
            },
            {
                "pitch": 79,
                "velocity": 15,
                "duration": 0.0205,
                "tempo": 120.0
            },
            {
                "pitch": 0,
                "velocity": 0,
                "duration": 0.0818,
                "tempo": 0
            },
            {
                "pitch": 67,
                "velocity": 15,
                "duration": 0.0205,
                "tempo": 120.0
            },
            {
                "pitch": 0,
                "velocity": 0,
                "duration": 0.0795,
                "tempo": 0
            },
            {
                "pitch": 74,
                "velocity": 15,
                "duration": 0.0205,
                "tempo": 120.0
            },
            {
                "pitch": 0,
                "velocity": 0,
                "duration": 0.0818,
                "tempo": 0
            },
            {
                "pitch": 72,
                "velocity": 15,
                "duration": 0.0205,
                "tempo": 120.0
            },
            {
                "pitch": 0,
                "velocity": 0,
                "duration": 0.0795,
                "tempo": 0
            },
            {
                "pitch": 79,
                "velocity": 15,
                "duration": 0.0205,
                "tempo": 120.0
            },
            {
                "pitch": 0,
                "velocity": 0,
                "duration": 0.0795,
                "tempo": 0
            },
            {
                "pitch": 74,
                "velocity": 15,
                "duration": 0.0205,
                "tempo": 120.0
            },
            {
                "pitch": 0,
                "velocity": 0,
                "duration": 0.0818,
                "tempo": 0
            },
            {
                "pitch": 67,
                "velocity": 15,
                "duration": 0.0205,
                "tempo": 120.0
            },
            {
                "pitch": 0,
                "velocity": 0,
                "duration": 0.0841,
                "tempo": 0
            },
            {
                "pitch": 72,
                "velocity": 15,
                "duration": 0.0205,
                "tempo": 120.0
            },
            {
                "pitch": 0,
                "velocity": 0,
                "duration": 0.0818,
                "tempo": 0
            },
            {
                "pitch": 74,
                "velocity": 15,
                "duration": 0.0205,
                "tempo": 120.0
            },
            {
                "pitch": 0,
                "velocity": 0,
                "duration": 0.0818,
                "tempo": 0
            },
            {
                "pitch": 79,
                "velocity": 15,
                "duration": 0.0205,
                "tempo": 120.0
            },
            {
                "pitch": 0,
                "velocity": 0,
                "duration": 0.0795,
                "tempo": 0
            },
            {
                "pitch": 67,
                "velocity": 15,
                "duration": 0.0205,
                "tempo": 120.0
            },
            {
                "pitch": 0,
                "velocity": 0,
                "duration": 0.0818,
                "tempo": 0
            },
            {
                "pitch": 74,
                "velocity": 15,
                "duration": 0.0205,
                "tempo": 120.0
            },
            {
                "pitch": 0,
                "velocity": 0,
                "duration": 0.0795,
                "tempo": 0
            },
            {
                "pitch": 72,
                "velocity": 15,
                "duration": 0.0205,
                "tempo": 120.0
            },
            {
                "pitch": 0,
                "velocity": 0,
                "duration": 0.0795,
                "tempo": 0
            },
            {
                "pitch": 79,
                "velocity": 15,
                "duration": 0.0205,
                "tempo": 120.0
            },
            {
                "pitch": 0,
                "velocity": 0,
                "duration": 0.0795,
                "tempo": 0
            },
            {
                "pitch": 84,
                "velocity": 15,
                "duration": 0.0182,
                "tempo": 120.0
            },
            {
                "pitch": 0,
                "velocity": 0,
                "duration": 0.0795,
                "tempo": 0
            },
            {
                "pitch": 86,
                "velocity": 15,
                "duration": 0.0182,
                "tempo": 120.0
            },
            {
                "pitch": 0,
                "velocity": 0,
                "duration": 0.0795,
                "tempo": 0
            },
            {
                "pitch": 91,
                "velocity": 15,
                "duration": 0.0205,
                "tempo": 120.0
            },
            {
                "pitch": 0,
                "velocity": 0,
                "duration": 0.0773,
                "tempo": 0
            },
            {
                "pitch": 79,
                "velocity": 15,
                "duration": 0.0205,
                "tempo": 120.0
            },
            {
                "pitch": 0,
                "velocity": 0,
                "duration": 0.0818,
                "tempo": 0
            },
            {
                "pitch": 86,
                "velocity": 15,
                "duration": 0.0205,
                "tempo": 120.0
            },
            {
                "pitch": 0,
                "velocity": 0,
                "duration": 0.0818,
                "tempo": 0
            },
            {
                "pitch": 84,
                "velocity": 15,
                "duration": 0.0205,
                "tempo": 120.0
            },
            {
                "pitch": 0,
                "velocity": 0,
                "duration": 0.0818,
                "tempo": 0
            },
            {
                "pitch": 91,
                "velocity": 15,
                "duration": 0.0205,
                "tempo": 120.0
            },
            {
                "pitch": 0,
                "velocity": 0,
                "duration": 0.0818,
                "tempo": 0
            },
            {
                "pitch": 86,
                "velocity": 15,
                "duration": 0.0205,
                "tempo": 120.0
            },
            {
                "pitch": 0,
                "velocity": 0,
                "duration": 0.0795,
                "tempo": 0
            },
            {
                "pitch": 79,
                "velocity": 15,
                "duration": 0.0182,
                "tempo": 120.0
            },
            {
                "pitch": 0,
                "velocity": 0,
                "duration": 0.0795,
                "tempo": 0
            },
            {
                "pitch": 84,
                "velocity": 15,
                "duration": 0.0205,
                "tempo": 120.0
            },
            {
                "pitch": 0,
                "velocity": 0,
                "duration": 0.0773,
                "tempo": 0
            },
            {
                "pitch": 86,
                "velocity": 15,
                "duration": 0.0205,
                "tempo": 120.0
            },
            {
                "pitch": 0,
                "velocity": 0,
                "duration": 0.0773,
                "tempo": 0
            },
            {
                "pitch": 91,
                "velocity": 15,
                "duration": 0.0205,
                "tempo": 120.0
            },
            {
                "pitch": 0,
                "velocity": 0,
                "duration": 0.0773,
                "tempo": 0
            },
            {
                "pitch": 79,
                "velocity": 15,
                "duration": 0.0205,
                "tempo": 120.0
            },
            {
                "pitch": 0,
                "velocity": 0,
                "duration": 0.0773,
                "tempo": 0
            },
            {
                "pitch": 86,
                "velocity": 15,
                "duration": 0.0205,
                "tempo": 120.0
            },
            {
                "pitch": 0,
                "velocity": 0,
                "duration": 0.0795,
                "tempo": 0
            },
            {
                "pitch": 84,
                "velocity": 15,
                "duration": 0.0182,
                "tempo": 120.0
            },
            {
                "pitch": 0,
                "velocity": 0,
                "duration": 0.0795,
                "tempo": 0
            },
            {
                "pitch": 79,
                "velocity": 15,
                "duration": 0.0205,
                "tempo": 120.0
            },
            {
                "pitch": 0,
                "velocity": 0,
                "duration": 0.0818,
                "tempo": 0
            },
            {
                "pitch": 84,
                "velocity": 15,
                "duration": 0.0205,
                "tempo": 120.0
            },
            {
                "pitch": 0,
                "velocity": 0,
                "duration": 0.0818,
                "tempo": 0
            },
            {
                "pitch": 86,
                "velocity": 15,
                "duration": 0.0205,
                "tempo": 120.0
            },
            {
                "pitch": 0,
                "velocity": 0,
                "duration": 0.0818,
                "tempo": 0
            },
            {
                "pitch": 91,
                "velocity": 15,
                "duration": 0.0205,
                "tempo": 120.0
            },
            {
                "pitch": 0,
                "velocity": 0,
                "duration": 0.0818,
                "tempo": 0
            },
            {
                "pitch": 79,
                "velocity": 15,
                "duration": 0.0205,
                "tempo": 120.0
            },
            {
                "pitch": 0,
                "velocity": 0,
                "duration": 0.0818,
                "tempo": 0
            },
            {
                "pitch": 86,
                "velocity": 15,
                "duration": 0.0205,
                "tempo": 120.0
            },
            {
                "pitch": 0,
                "velocity": 0,
                "duration": 0.0795,
                "tempo": 0
            },
            {
                "pitch": 84,
                "velocity": 15,
                "duration": 0.0205,
                "tempo": 120.0
            },
            {
                "pitch": 0,
                "velocity": 0,
                "duration": 0.0795,
                "tempo": 0
            },
            {
                "pitch": 91,
                "velocity": 15,
                "duration": 0.0205,
                "tempo": 120.0
            },
            {
                "pitch": 0,
                "velocity": 0,
                "duration": 0.0818,
                "tempo": 0
            },
            {
                "pitch": 86,
                "velocity": 15,
                "duration": 0.0182,
                "tempo": 120.0
            },
            {
                "pitch": 0,
                "velocity": 0,
                "duration": 0.0818,
                "tempo": 0
            },
            {
                "pitch": 79,
                "velocity": 15,
                "duration": 0.0205,
                "tempo": 120.0
            },
            {
                "pitch": 0,
                "velocity": 0,
                "duration": 0.0795,
                "tempo": 0
            },
            {
                "pitch": 84,
                "velocity": 15,
                "duration": 0.0205,
                "tempo": 120.0
            },
            {
                "pitch": 0,
                "velocity": 0,
                "duration": 0.0818,
                "tempo": 0
            },
            {
                "pitch": 86,
                "velocity": 15,
                "duration": 0.0182,
                "tempo": 120.0
            },
            {
                "pitch": 0,
                "velocity": 0,
                "duration": 0.0818,
                "tempo": 0
            },
            {
                "pitch": 91,
                "velocity": 15,
                "duration": 0.0205,
                "tempo": 120.0
            },
            {
                "pitch": 0,
                "velocity": 0,
                "duration": 0.0795,
                "tempo": 0
            },
            {
                "pitch": 79,
                "velocity": 15,
                "duration": 0.0205,
                "tempo": 120.0
            },
            {
                "pitch": 0,
                "velocity": 0,
                "duration": 0.0795,
                "tempo": 0
            },
            {
                "pitch": 86,
                "velocity": 15,
                "duration": 0.0205,
                "tempo": 120.0
            },
            {
                "pitch": 0,
                "velocity": 0,
                "duration": 0.0818,
                "tempo": 0
            },
            {
                "pitch": 84,
                "velocity": 15,
                "duration": 0.0205,
                "tempo": 120.0
            },
            {
                "pitch": 0,
                "velocity": 0,
                "duration": 0.0795,
                "tempo": 0
            },
            {
                "pitch": 91,
                "velocity": 15,
                "duration": 0.0205,
                "tempo": 120.0
            },
            {
                "pitch": 0,
                "velocity": 0,
                "duration": 0.0773,
                "tempo": 0
            },
            {
                "pitch": 96,
                "velocity": 15,
                "duration": 0.0205,
                "tempo": 120.0
            },
            {
                "pitch": 0,
                "velocity": 0,
                "duration": 0.0773,
                "tempo": 0
            },
            {
                "pitch": 98,
                "velocity": 15,
                "duration": 0.0205,
                "tempo": 120.0
            },
            {
                "pitch": 0,
                "velocity": 0,
                "duration": 0.0773,
                "tempo": 0
            },
            {
                "pitch": 103,
                "velocity": 15,
                "duration": 0.0205,
                "tempo": 120.0
            },
            {
                "pitch": 0,
                "velocity": 0,
                "duration": 0.0795,
                "tempo": 0
            },
            {
                "pitch": 91,
                "velocity": 15,
                "duration": 0.0182,
                "tempo": 120.0
            },
            {
                "pitch": 0,
                "velocity": 0,
                "duration": 0.0841,
                "tempo": 0
            },
            {
                "pitch": 98,
                "velocity": 15,
                "duration": 0.0205,
                "tempo": 120.0
            },
            {
                "pitch": 0,
                "velocity": 0,
                "duration": 0.0818,
                "tempo": 0
            },
            {
                "pitch": 96,
                "velocity": 15,
                "duration": 0.0205,
                "tempo": 120.0
            },
            {
                "pitch": 0,
                "velocity": 0,
                "duration": 0.0818,
                "tempo": 0
            },
            {
                "pitch": 103,
                "velocity": 15,
                "duration": 0.0205,
                "tempo": 120.0
            },
            {
                "pitch": 0,
                "velocity": 0,
                "duration": 0.0818,
                "tempo": 0
            },
            {
                "pitch": 98,
                "velocity": 15,
                "duration": 0.0205,
                "tempo": 120.0
            },
            {
                "pitch": 0,
                "velocity": 0,
                "duration": 0.0818,
                "tempo": 0
            },
            {
                "pitch": 91,
                "velocity": 15,
                "duration": 0.0182,
                "tempo": 120.0
            },
            {
                "pitch": 0,
                "velocity": 0,
                "duration": 0.0818,
                "tempo": 0
            },
            {
                "pitch": 96,
                "velocity": 15,
                "duration": 0.0205,
                "tempo": 120.0
            },
            {
                "pitch": 0,
                "velocity": 0,
                "duration": 0.0795,
                "tempo": 0
            },
            {
                "pitch": 98,
                "velocity": 15,
                "duration": 0.0205,
                "tempo": 120.0
            },
            {
                "pitch": 0,
                "velocity": 0,
                "duration": 0.0795,
                "tempo": 0
            },
            {
                "pitch": 103,
                "velocity": 15,
                "duration": 0.0205,
                "tempo": 120.0
            },
            {
                "pitch": 0,
                "velocity": 0,
                "duration": 0.0795,
                "tempo": 0
            },
            {
                "pitch": 91,
                "velocity": 15,
                "duration": 0.0182,
                "tempo": 120.0
            },
            {
                "pitch": 0,
                "velocity": 0,
                "duration": 0.0795,
                "tempo": 0
            },
            {
                "pitch": 98,
                "velocity": 15,
                "duration": 0.0182,
                "tempo": 120.0
            },
            {
                "pitch": 0,
                "velocity": 0,
                "duration": 0.0795,
                "tempo": 0
            },
            {
                "pitch": 96,
                "velocity": 15,
                "duration": 0.0182,
                "tempo": 120.0
            },
            {
                "pitch": 0,
                "velocity": 0,
                "duration": 0.0795,
                "tempo": 0
            },
            {
                "pitch": 91,
                "velocity": 15,
                "duration": 0.0205,
                "tempo": 120.0
            },
            {
                "pitch": 0,
                "velocity": 0,
                "duration": 0.0795,
                "tempo": 0
            },
            {
                "pitch": 96,
                "velocity": 15,
                "duration": 0.0205,
                "tempo": 120.0
            },
            {
                "pitch": 0,
                "velocity": 0,
                "duration": 0.0818,
                "tempo": 0
            },
            {
                "pitch": 98,
                "velocity": 15,
                "duration": 0.0182,
                "tempo": 120.0
            },
            {
                "pitch": 0,
                "velocity": 0,
                "duration": 0.0818,
                "tempo": 0
            },
            {
                "pitch": 103,
                "velocity": 15,
                "duration": 0.0205,
                "tempo": 120.0
            },
            {
                "pitch": 0,
                "velocity": 0,
                "duration": 0.0795,
                "tempo": 0
            },
            {
                "pitch": 91,
                "velocity": 15,
                "duration": 0.0205,
                "tempo": 120.0
            },
            {
                "pitch": 0,
                "velocity": 0,
                "duration": 0.0795,
                "tempo": 0
            },
            {
                "pitch": 98,
                "velocity": 15,
                "duration": 0.0205,
                "tempo": 120.0
            },
            {
                "pitch": 0,
                "velocity": 0,
                "duration": 0.0795,
                "tempo": 0
            },
            {
                "pitch": 96,
                "velocity": 15,
                "duration": 0.0205,
                "tempo": 120.0
            },
            {
                "pitch": 0,
                "velocity": 0,
                "duration": 0.0795,
                "tempo": 0
            },
            {
                "pitch": 103,
                "velocity": 15,
                "duration": 0.0205,
                "tempo": 120.0
            },
            {
                "pitch": 0,
                "velocity": 0,
                "duration": 0.0795,
                "tempo": 0
            },
            {
                "pitch": 98,
                "velocity": 15,
                "duration": 0.0205,
                "tempo": 120.0
            },
            {
                "pitch": 0,
                "velocity": 0,
                "duration": 0.0818,
                "tempo": 0
            },
            {
                "pitch": 91,
                "velocity": 15,
                "duration": 0.0205,
                "tempo": 120.0
            },
            {
                "pitch": 0,
                "velocity": 0,
                "duration": 0.0818,
                "tempo": 0
            },
            {
                "pitch": 96,
                "velocity": 15,
                "duration": 0.0205,
                "tempo": 120.0
            },
            {
                "pitch": 0,
                "velocity": 0,
                "duration": 0.0841,
                "tempo": 0
            },
            {
                "pitch": 98,
                "velocity": 15,
                "duration": 0.0205,
                "tempo": 120.0
            },
            {
                "pitch": 0,
                "velocity": 0,
                "duration": 0.0818,
                "tempo": 0
            },
            {
                "pitch": 103,
                "velocity": 15,
                "duration": 0.0182,
                "tempo": 120.0
            },
            {
                "pitch": 0,
                "velocity": 0,
                "duration": 0.0795,
                "tempo": 0
            },
            {
                "pitch": 91,
                "velocity": 15,
                "duration": 0.0205,
                "tempo": 120.0
            },
            {
                "pitch": 0,
                "velocity": 0,
                "duration": 0.0773,
                "tempo": 0
            },
            {
                "pitch": 98,
                "velocity": 15,
                "duration": 0.0205,
                "tempo": 120.0
            },
            {
                "pitch": 0,
                "velocity": 0,
                "duration": 0.0773,
                "tempo": 0
            },
            {
                "pitch": 96,
                "velocity": 15,
                "duration": 0.0205,
                "tempo": 120.0
            },
            {
                "pitch": 0,
                "velocity": 0,
                "duration": 78.6909,
                "tempo": 0
            },
            {
                "pitch": 67,
                "velocity": 15,
                "duration": 0.0205,
                "tempo": 120.0
            },
            {
                "pitch": 0,
                "velocity": 0,
                "duration": 0.0818,
                "tempo": 0
            },
            {
                "pitch": 72,
                "velocity": 15,
                "duration": 0.0205,
                "tempo": 120.0
            },
            {
                "pitch": 0,
                "velocity": 0,
                "duration": 0.0795,
                "tempo": 0
            },
            {
                "pitch": 74,
                "velocity": 15,
                "duration": 0.0205,
                "tempo": 120.0
            },
            {
                "pitch": 0,
                "velocity": 0,
                "duration": 0.0795,
                "tempo": 0
            },
            {
                "pitch": 79,
                "velocity": 15,
                "duration": 0.0205,
                "tempo": 120.0
            },
            {
                "pitch": 0,
                "velocity": 0,
                "duration": 0.0818,
                "tempo": 0
            },
            {
                "pitch": 67,
                "velocity": 15,
                "duration": 0.0205,
                "tempo": 120.0
            },
            {
                "pitch": 0,
                "velocity": 0,
                "duration": 0.0818,
                "tempo": 0
            },
            {
                "pitch": 74,
                "velocity": 15,
                "duration": 0.0205,
                "tempo": 120.0
            },
            {
                "pitch": 0,
                "velocity": 0,
                "duration": 0.0818,
                "tempo": 0
            },
            {
                "pitch": 72,
                "velocity": 15,
                "duration": 0.0205,
                "tempo": 120.0
            },
            {
                "pitch": 0,
                "velocity": 0,
                "duration": 0.0818,
                "tempo": 0
            },
            {
                "pitch": 79,
                "velocity": 15,
                "duration": 0.0205,
                "tempo": 120.0
            },
            {
                "pitch": 0,
                "velocity": 0,
                "duration": 0.0818,
                "tempo": 0
            },
            {
                "pitch": 74,
                "velocity": 15,
                "duration": 0.0205,
                "tempo": 120.0
            },
            {
                "pitch": 0,
                "velocity": 0,
                "duration": 0.0773,
                "tempo": 0
            },
            {
                "pitch": 67,
                "velocity": 15,
                "duration": 0.0205,
                "tempo": 120.0
            },
            {
                "pitch": 0,
                "velocity": 0,
                "duration": 0.0795,
                "tempo": 0
            },
            {
                "pitch": 72,
                "velocity": 15,
                "duration": 0.0182,
                "tempo": 120.0
            },
            {
                "pitch": 0,
                "velocity": 0,
                "duration": 0.0795,
                "tempo": 0
            },
            {
                "pitch": 74,
                "velocity": 15,
                "duration": 0.0182,
                "tempo": 120.0
            },
            {
                "pitch": 0,
                "velocity": 0,
                "duration": 0.0795,
                "tempo": 0
            },
            {
                "pitch": 79,
                "velocity": 15,
                "duration": 0.0205,
                "tempo": 120.0
            },
            {
                "pitch": 0,
                "velocity": 0,
                "duration": 0.0818,
                "tempo": 0
            },
            {
                "pitch": 67,
                "velocity": 15,
                "duration": 0.0205,
                "tempo": 120.0
            },
            {
                "pitch": 0,
                "velocity": 0,
                "duration": 0.0818,
                "tempo": 0
            },
            {
                "pitch": 74,
                "velocity": 15,
                "duration": 0.0205,
                "tempo": 120.0
            },
            {
                "pitch": 0,
                "velocity": 0,
                "duration": 0.0818,
                "tempo": 0
            },
            {
                "pitch": 72,
                "velocity": 15,
                "duration": 0.0205,
                "tempo": 120.0
            },
            {
                "pitch": 0,
                "velocity": 0,
                "duration": 0.0818,
                "tempo": 0
            },
            {
                "pitch": 67,
                "velocity": 15,
                "duration": 0.0205,
                "tempo": 120.0
            },
            {
                "pitch": 0,
                "velocity": 0,
                "duration": 0.0818,
                "tempo": 0
            },
            {
                "pitch": 72,
                "velocity": 15,
                "duration": 0.0182,
                "tempo": 120.0
            },
            {
                "pitch": 0,
                "velocity": 0,
                "duration": 0.0818,
                "tempo": 0
            },
            {
                "pitch": 74,
                "velocity": 15,
                "duration": 0.0182,
                "tempo": 120.0
            },
            {
                "pitch": 0,
                "velocity": 0,
                "duration": 0.0818,
                "tempo": 0
            },
            {
                "pitch": 79,
                "velocity": 15,
                "duration": 0.0182,
                "tempo": 120.0
            },
            {
                "pitch": 0,
                "velocity": 0,
                "duration": 0.0818,
                "tempo": 0
            },
            {
                "pitch": 67,
                "velocity": 15,
                "duration": 0.0182,
                "tempo": 120.0
            },
            {
                "pitch": 0,
                "velocity": 0,
                "duration": 0.0818,
                "tempo": 0
            },
            {
                "pitch": 74,
                "velocity": 15,
                "duration": 0.0205,
                "tempo": 120.0
            },
            {
                "pitch": 0,
                "velocity": 0,
                "duration": 0.0795,
                "tempo": 0
            },
            {
                "pitch": 72,
                "velocity": 15,
                "duration": 0.0205,
                "tempo": 120.0
            },
            {
                "pitch": 0,
                "velocity": 0,
                "duration": 0.0795,
                "tempo": 0
            },
            {
                "pitch": 79,
                "velocity": 15,
                "duration": 0.0205,
                "tempo": 120.0
            },
            {
                "pitch": 0,
                "velocity": 0,
                "duration": 0.0818,
                "tempo": 0
            },
            {
                "pitch": 74,
                "velocity": 15,
                "duration": 0.0205,
                "tempo": 120.0
            },
            {
                "pitch": 0,
                "velocity": 0,
                "duration": 0.0795,
                "tempo": 0
            },
            {
                "pitch": 67,
                "velocity": 15,
                "duration": 0.0205,
                "tempo": 120.0
            },
            {
                "pitch": 0,
                "velocity": 0,
                "duration": 0.0795,
                "tempo": 0
            },
            {
                "pitch": 72,
                "velocity": 15,
                "duration": 0.0205,
                "tempo": 120.0
            },
            {
                "pitch": 0,
                "velocity": 0,
                "duration": 0.0795,
                "tempo": 0
            },
            {
                "pitch": 74,
                "velocity": 15,
                "duration": 0.0205,
                "tempo": 120.0
            },
            {
                "pitch": 0,
                "velocity": 0,
                "duration": 0.0795,
                "tempo": 0
            },
            {
                "pitch": 79,
                "velocity": 15,
                "duration": 0.0182,
                "tempo": 120.0
            },
            {
                "pitch": 0,
                "velocity": 0,
                "duration": 0.0795,
                "tempo": 0
            },
            {
                "pitch": 67,
                "velocity": 15,
                "duration": 0.0205,
                "tempo": 120.0
            },
            {
                "pitch": 0,
                "velocity": 0,
                "duration": 0.0773,
                "tempo": 0
            },
            {
                "pitch": 74,
                "velocity": 15,
                "duration": 0.0205,
                "tempo": 120.0
            },
            {
                "pitch": 0,
                "velocity": 0,
                "duration": 0.0773,
                "tempo": 0
            },
            {
                "pitch": 72,
                "velocity": 15,
                "duration": 0.0205,
                "tempo": 120.0
            },
            {
                "pitch": 0,
                "velocity": 0,
                "duration": 0.0773,
                "tempo": 0
            },
            {
                "pitch": 67,
                "velocity": 15,
                "duration": 0.0205,
                "tempo": 120.0
            },
            {
                "pitch": 0,
                "velocity": 0,
                "duration": 0.0818,
                "tempo": 0
            },
            {
                "pitch": 72,
                "velocity": 15,
                "duration": 0.0182,
                "tempo": 120.0
            },
            {
                "pitch": 0,
                "velocity": 0,
                "duration": 0.0818,
                "tempo": 0
            },
            {
                "pitch": 74,
                "velocity": 15,
                "duration": 0.0205,
                "tempo": 120.0
            },
            {
                "pitch": 0,
                "velocity": 0,
                "duration": 0.0795,
                "tempo": 0
            },
            {
                "pitch": 79,
                "velocity": 15,
                "duration": 0.0205,
                "tempo": 120.0
            },
            {
                "pitch": 0,
                "velocity": 0,
                "duration": 0.0818,
                "tempo": 0
            },
            {
                "pitch": 67,
                "velocity": 15,
                "duration": 0.0182,
                "tempo": 120.0
            },
            {
                "pitch": 0,
                "velocity": 0,
                "duration": 0.0818,
                "tempo": 0
            },
            {
                "pitch": 74,
                "velocity": 15,
                "duration": 0.0182,
                "tempo": 120.0
            },
            {
                "pitch": 0,
                "velocity": 0,
                "duration": 0.0818,
                "tempo": 0
            },
            {
                "pitch": 72,
                "velocity": 15,
                "duration": 0.0182,
                "tempo": 120.0
            },
            {
                "pitch": 0,
                "velocity": 0,
                "duration": 0.0818,
                "tempo": 0
            },
            {
                "pitch": 79,
                "velocity": 15,
                "duration": 0.0182,
                "tempo": 120.0
            },
            {
                "pitch": 0,
                "velocity": 0,
                "duration": 0.0818,
                "tempo": 0
            },
            {
                "pitch": 74,
                "velocity": 15,
                "duration": 0.0182,
                "tempo": 120.0
            },
            {
                "pitch": 0,
                "velocity": 0,
                "duration": 0.0841,
                "tempo": 0
            },
            {
                "pitch": 67,
                "velocity": 15,
                "duration": 0.0205,
                "tempo": 120.0
            },
            {
                "pitch": 0,
                "velocity": 0,
                "duration": 0.0818,
                "tempo": 0
            },
            {
                "pitch": 72,
                "velocity": 15,
                "duration": 0.0205,
                "tempo": 120.0
            },
            {
                "pitch": 0,
                "velocity": 0,
                "duration": 0.0818,
                "tempo": 0
            },
            {
                "pitch": 74,
                "velocity": 15,
                "duration": 0.0205,
                "tempo": 120.0
            },
            {
                "pitch": 0,
                "velocity": 0,
                "duration": 0.0818,
                "tempo": 0
            },
            {
                "pitch": 79,
                "velocity": 15,
                "duration": 0.0205,
                "tempo": 120.0
            },
            {
                "pitch": 0,
                "velocity": 0,
                "duration": 0.0773,
                "tempo": 0
            },
            {
                "pitch": 67,
                "velocity": 15,
                "duration": 0.0205,
                "tempo": 120.0
            },
            {
                "pitch": 0,
                "velocity": 0,
                "duration": 0.0795,
                "tempo": 0
            },
            {
                "pitch": 74,
                "velocity": 15,
                "duration": 0.0182,
                "tempo": 120.0
            },
            {
                "pitch": 0,
                "velocity": 0,
                "duration": 0.0795,
                "tempo": 0
            },
            {
                "pitch": 72,
                "velocity": 15,
                "duration": 0.0182,
                "tempo": 120.0
            },
            {
                "pitch": 0,
                "velocity": 0,
                "duration": 0.0795,
                "tempo": 0
            },
            {
                "pitch": 67,
                "velocity": 15,
                "duration": 0.0205,
                "tempo": 120.0
            },
            {
                "pitch": 0,
                "velocity": 0,
                "duration": 0.0818,
                "tempo": 0
            },
            {
                "pitch": 72,
                "velocity": 15,
                "duration": 0.0205,
                "tempo": 120.0
            },
            {
                "pitch": 0,
                "velocity": 0,
                "duration": 0.0818,
                "tempo": 0
            },
            {
                "pitch": 74,
                "velocity": 15,
                "duration": 0.0205,
                "tempo": 120.0
            },
            {
                "pitch": 0,
                "velocity": 0,
                "duration": 0.0818,
                "tempo": 0
            },
            {
                "pitch": 79,
                "velocity": 15,
                "duration": 0.0205,
                "tempo": 120.0
            },
            {
                "pitch": 0,
                "velocity": 0,
                "duration": 0.0818,
                "tempo": 0
            },
            {
                "pitch": 67,
                "velocity": 15,
                "duration": 0.0205,
                "tempo": 120.0
            },
            {
                "pitch": 0,
                "velocity": 0,
                "duration": 0.0818,
                "tempo": 0
            },
            {
                "pitch": 74,
                "velocity": 15,
                "duration": 0.0205,
                "tempo": 120.0
            },
            {
                "pitch": 0,
                "velocity": 0,
                "duration": 0.0795,
                "tempo": 0
            },
            {
                "pitch": 72,
                "velocity": 15,
                "duration": 0.0205,
                "tempo": 120.0
            },
            {
                "pitch": 0,
                "velocity": 0,
                "duration": 0.0795,
                "tempo": 0
            },
            {
                "pitch": 79,
                "velocity": 15,
                "duration": 0.0205,
                "tempo": 120.0
            },
            {
                "pitch": 0,
                "velocity": 0,
                "duration": 0.0818,
                "tempo": 0
            },
            {
                "pitch": 74,
                "velocity": 15,
                "duration": 0.0182,
                "tempo": 120.0
            },
            {
                "pitch": 0,
                "velocity": 0,
                "duration": 0.0818,
                "tempo": 0
            },
            {
                "pitch": 67,
                "velocity": 15,
                "duration": 0.0182,
                "tempo": 120.0
            },
            {
                "pitch": 0,
                "velocity": 0,
                "duration": 0.0818,
                "tempo": 0
            },
            {
                "pitch": 72,
                "velocity": 15,
                "duration": 0.0182,
                "tempo": 120.0
            },
            {
                "pitch": 0,
                "velocity": 0,
                "duration": 0.0818,
                "tempo": 0
            },
            {
                "pitch": 74,
                "velocity": 15,
                "duration": 0.0182,
                "tempo": 120.0
            },
            {
                "pitch": 0,
                "velocity": 0,
                "duration": 0.0818,
                "tempo": 0
            },
            {
                "pitch": 79,
                "velocity": 15,
                "duration": 0.0182,
                "tempo": 120.0
            },
            {
                "pitch": 0,
                "velocity": 0,
                "duration": 0.0795,
                "tempo": 0
            },
            {
                "pitch": 67,
                "velocity": 15,
                "duration": 0.0182,
                "tempo": 120.0
            },
            {
                "pitch": 0,
                "velocity": 0,
                "duration": 0.0795,
                "tempo": 0
            },
            {
                "pitch": 74,
                "velocity": 15,
                "duration": 0.0205,
                "tempo": 120.0
            },
            {
                "pitch": 0,
                "velocity": 0,
                "duration": 0.0773,
                "tempo": 0
            },
            {
                "pitch": 72,
                "velocity": 15,
                "duration": 0.0205,
                "tempo": 120.0
            },
            {
                "pitch": 0,
                "velocity": 0,
                "duration": 0.0773,
                "tempo": 0
            },
            {
                "pitch": 67,
                "velocity": 15,
                "duration": 0.0205,
                "tempo": 120.0
            },
            {
                "pitch": 0,
                "velocity": 0,
                "duration": 0.0818,
                "tempo": 0
            },
            {
                "pitch": 72,
                "velocity": 15,
                "duration": 0.0205,
                "tempo": 120.0
            },
            {
                "pitch": 0,
                "velocity": 0,
                "duration": 0.0818,
                "tempo": 0
            },
            {
                "pitch": 74,
                "velocity": 15,
                "duration": 0.0205,
                "tempo": 120.0
            },
            {
                "pitch": 0,
                "velocity": 0,
                "duration": 0.0841,
                "tempo": 0
            },
            {
                "pitch": 79,
                "velocity": 15,
                "duration": 0.0205,
                "tempo": 120.0
            },
            {
                "pitch": 0,
                "velocity": 0,
                "duration": 0.0818,
                "tempo": 0
            },
            {
                "pitch": 67,
                "velocity": 15,
                "duration": 0.0205,
                "tempo": 120.0
            },
            {
                "pitch": 0,
                "velocity": 0,
                "duration": 0.0795,
                "tempo": 0
            },
            {
                "pitch": 74,
                "velocity": 15,
                "duration": 0.0205,
                "tempo": 120.0
            },
            {
                "pitch": 0,
                "velocity": 0,
                "duration": 0.0818,
                "tempo": 0
            },
            {
                "pitch": 72,
                "velocity": 15,
                "duration": 0.0182,
                "tempo": 120.0
            },
            {
                "pitch": 0,
                "velocity": 0,
                "duration": 0.0818,
                "tempo": 0
            },
            {
                "pitch": 79,
                "velocity": 15,
                "duration": 0.0205,
                "tempo": 120.0
            },
            {
                "pitch": 0,
                "velocity": 0,
                "duration": 0.0795,
                "tempo": 0
            },
            {
                "pitch": 74,
                "velocity": 15,
                "duration": 0.0205,
                "tempo": 120.0
            },
            {
                "pitch": 0,
                "velocity": 0,
                "duration": 0.0795,
                "tempo": 0
            },
            {
                "pitch": 67,
                "velocity": 15,
                "duration": 0.0205,
                "tempo": 120.0
            },
            {
                "pitch": 0,
                "velocity": 0,
                "duration": 0.0818,
                "tempo": 0
            },
            {
                "pitch": 72,
                "velocity": 15,
                "duration": 0.0205,
                "tempo": 120.0
            },
            {
                "pitch": 0,
                "velocity": 0,
                "duration": 0.0795,
                "tempo": 0
            },
            {
                "pitch": 74,
                "velocity": 15,
                "duration": 0.0205,
                "tempo": 120.0
            },
            {
                "pitch": 0,
                "velocity": 0,
                "duration": 0.0795,
                "tempo": 0
            },
            {
                "pitch": 79,
                "velocity": 15,
                "duration": 0.0205,
                "tempo": 120.0
            },
            {
                "pitch": 0,
                "velocity": 0,
                "duration": 0.0773,
                "tempo": 0
            },
            {
                "pitch": 67,
                "velocity": 15,
                "duration": 0.0205,
                "tempo": 120.0
            },
            {
                "pitch": 0,
                "velocity": 0,
                "duration": 0.0795,
                "tempo": 0
            },
            {
                "pitch": 74,
                "velocity": 15,
                "duration": 0.0182,
                "tempo": 120.0
            },
            {
                "pitch": 0,
                "velocity": 0,
                "duration": 0.0795,
                "tempo": 0
            },
            {
                "pitch": 72,
                "velocity": 15,
                "duration": 0.0182,
                "tempo": 120.0
            },
            {
                "pitch": 0,
                "velocity": 0,
                "duration": 0.0795,
                "tempo": 0
            },
            {
                "pitch": 67,
                "velocity": 15,
                "duration": 0.0205,
                "tempo": 120.0
            },
            {
                "pitch": 0,
                "velocity": 0,
                "duration": 0.0818,
                "tempo": 0
            },
            {
                "pitch": 72,
                "velocity": 15,
                "duration": 0.0205,
                "tempo": 120.0
            },
            {
                "pitch": 0,
                "velocity": 0,
                "duration": 0.0818,
                "tempo": 0
            },
            {
                "pitch": 74,
                "velocity": 15,
                "duration": 0.0205,
                "tempo": 120.0
            },
            {
                "pitch": 0,
                "velocity": 0,
                "duration": 0.0818,
                "tempo": 0
            },
            {
                "pitch": 79,
                "velocity": 15,
                "duration": 0.0205,
                "tempo": 120.0
            },
            {
                "pitch": 0,
                "velocity": 0,
                "duration": 0.0818,
                "tempo": 0
            },
            {
                "pitch": 67,
                "velocity": 15,
                "duration": 0.0205,
                "tempo": 120.0
            },
            {
                "pitch": 0,
                "velocity": 0,
                "duration": 0.0818,
                "tempo": 0
            },
            {
                "pitch": 74,
                "velocity": 15,
                "duration": 0.0182,
                "tempo": 120.0
            },
            {
                "pitch": 0,
                "velocity": 0,
                "duration": 0.0818,
                "tempo": 0
            },
            {
                "pitch": 72,
                "velocity": 15,
                "duration": 0.0182,
                "tempo": 120.0
            },
            {
                "pitch": 0,
                "velocity": 0,
                "duration": 0.0818,
                "tempo": 0
            },
            {
                "pitch": 79,
                "velocity": 15,
                "duration": 0.0182,
                "tempo": 120.0
            },
            {
                "pitch": 0,
                "velocity": 0,
                "duration": 0.0818,
                "tempo": 0
            },
            {
                "pitch": 74,
                "velocity": 15,
                "duration": 0.0182,
                "tempo": 120.0
            },
            {
                "pitch": 0,
                "velocity": 0,
                "duration": 0.0818,
                "tempo": 0
            },
            {
                "pitch": 67,
                "velocity": 15,
                "duration": 0.0205,
                "tempo": 120.0
            },
            {
                "pitch": 0,
                "velocity": 0,
                "duration": 0.0795,
                "tempo": 0
            },
            {
                "pitch": 72,
                "velocity": 15,
                "duration": 0.0205,
                "tempo": 120.0
            },
            {
                "pitch": 0,
                "velocity": 0,
                "duration": 0.0795,
                "tempo": 0
            },
            {
                "pitch": 74,
                "velocity": 15,
                "duration": 0.0205,
                "tempo": 120.0
            },
            {
                "pitch": 0,
                "velocity": 0,
                "duration": 0.0818,
                "tempo": 0
            },
            {
                "pitch": 79,
                "velocity": 15,
                "duration": 0.0205,
                "tempo": 120.0
            },
            {
                "pitch": 0,
                "velocity": 0,
                "duration": 0.0795,
                "tempo": 0
            },
            {
                "pitch": 67,
                "velocity": 15,
                "duration": 0.0205,
                "tempo": 120.0
            },
            {
                "pitch": 0,
                "velocity": 0,
                "duration": 0.0795,
                "tempo": 0
            },
            {
                "pitch": 74,
                "velocity": 15,
                "duration": 0.0205,
                "tempo": 120.0
            },
            {
                "pitch": 0,
                "velocity": 0,
                "duration": 0.0818,
                "tempo": 0
            },
            {
                "pitch": 72,
                "velocity": 15,
                "duration": 0.0182,
                "tempo": 120.0
            }
        ],
        "Synth Bass 1": [
            {
                "pitch": 0,
                "velocity": 0,
                "duration": 0.0091,
                "tempo": 0
            },
            {
                "pitch": 46,
                "velocity": 1,
                "duration": 0.7932,
                "tempo": 120.0
            },
            {
                "pitch": 0,
                "velocity": 0,
                "duration": 0.0114,
                "tempo": 0
            },
            {
                "pitch": 47,
                "velocity": 1,
                "duration": 2.4136,
                "tempo": 120.0
            },
            {
                "pitch": 0,
                "velocity": 0,
                "duration": 0.0114,
                "tempo": 0
            },
            {
                "pitch": 48,
                "velocity": 1,
                "duration": 0.7818,
                "tempo": 120.0
            },
            {
                "pitch": 0,
                "velocity": 0,
                "duration": 0.0091,
                "tempo": 0
            },
            {
                "pitch": 49,
                "velocity": 1,
                "duration": 2.4114,
                "tempo": 120.0
            },
            {
                "pitch": 0,
                "velocity": 0,
                "duration": 0.0114,
                "tempo": 0
            },
            {
                "pitch": 50,
                "velocity": 1,
                "duration": 0.7909,
                "tempo": 120.0
            },
            {
                "pitch": 0,
                "velocity": 0,
                "duration": 0.0114,
                "tempo": 0
            },
            {
                "pitch": 51,
                "velocity": 1,
                "duration": 2.3932,
                "tempo": 120.0
            },
            {
                "pitch": 0,
                "velocity": 0,
                "duration": 0.0091,
                "tempo": 0
            },
            {
                "pitch": 52,
                "velocity": 1,
                "duration": 2.3909,
                "tempo": 120.0
            },
            {
                "pitch": 0,
                "velocity": 0,
                "duration": 79.4273,
                "tempo": 0
            },
            {
                "pitch": 60,
                "velocity": 1,
                "duration": 0.5977,
                "tempo": 120.0
            },
            {
                "pitch": 59,
                "velocity": 1,
                "duration": 0.8023,
                "tempo": 120.0
            },
            {
                "pitch": 59,
                "velocity": 1,
                "duration": 0.4068,
                "tempo": 120.0
            },
            {
                "pitch": 60,
                "velocity": 1,
                "duration": 0.2,
                "tempo": 120.0
            },
            {
                "pitch": 60,
                "velocity": 1,
                "duration": 1.1932,
                "tempo": 120.0
            },
            {
                "pitch": 0,
                "velocity": 0,
                "duration": 0.0114,
                "tempo": 0
            },
            {
                "pitch": 60,
                "velocity": 1,
                "duration": 0.5932,
                "tempo": 120.0
            },
            {
                "pitch": 58,
                "velocity": 1,
                "duration": 0.8068,
                "tempo": 120.0
            },
            {
                "pitch": 58,
                "velocity": 1,
                "duration": 0.4,
                "tempo": 120.0
            },
            {
                "pitch": 60,
                "velocity": 1,
                "duration": 0.2045,
                "tempo": 120.0
            },
            {
                "pitch": 60,
                "velocity": 1,
                "duration": 4.4205,
                "tempo": 120.0
            }
        ],
        "Acoustic Grand Piano": [
            {
                "pitch": 0,
                "velocity": 0,
                "duration": 101.1114,
                "tempo": 0
            },
            {
                "pitch": 108,
                "velocity": 15,
                "duration": 0.1,
                "tempo": 120.0
            }
        ]
    }
}