{
    "track_id": "05 Mission 1 - Practice_1",
    "mood": "happy",
    "instruments": {
        "Lead 1 (square)": [
            {
                "pitch": 0,
                "velocity": 0,
                "duration": 6.2614,
                "tempo": 0
            },
            {
                "pitch": 64,
                "velocity": 7,
                "duration": 0.2114,
                "tempo": 120.0
            },
            {
                "pitch": 0,
                "velocity": 0,
                "duration": 0.0455,
                "tempo": 0
            },
            {
                "pitch": 69,
                "velocity": 7,
                "duration": 0.1841,
                "tempo": 120.0
            },
            {
                "pitch": 0,
                "velocity": 0,
                "duration": 0.0432,
                "tempo": 0
            },
            {
                "pitch": 72,
                "velocity": 7,
                "duration": 0.1864,
                "tempo": 120.0
            },
            {
                "pitch": 0,
                "velocity": 0,
                "duration": 0.0409,
                "tempo": 0
            },
            {
                "pitch": 76,
                "velocity": 7,
                "duration": 0.1659,
                "tempo": 120.0
            },
            {
                "pitch": 0,
                "velocity": 0,
                "duration": 0.0159,
                "tempo": 0
            },
            {
                "pitch": 72,
                "velocity": 7,
                "duration": 0.1614,
                "tempo": 120.0
            },
            {
                "pitch": 0,
                "velocity": 0,
                "duration": 0.0341,
                "tempo": 0
            },
            {
                "pitch": 69,
                "velocity": 7,
                "duration": 0.15,
                "tempo": 120.0
            },
            {
                "pitch": 0,
                "velocity": 0,
                "duration": 0.0341,
                "tempo": 0
            },
            {
                "pitch": 64,
                "velocity": 7,
                "duration": 0.15,
                "tempo": 120.0
            },
            {
                "pitch": 0,
                "velocity": 0,
                "duration": 0.2295,
                "tempo": 0
            },
            {
                "pitch": 62,
                "velocity": 7,
                "duration": 0.1455,
                "tempo": 120.0
            },
            {
                "pitch": 0,
                "velocity": 0,
                "duration": 0.0341,
                "tempo": 0
            },
            {
                "pitch": 65,
                "velocity": 7,
                "duration": 0.15,
                "tempo": 120.0
            },
            {
                "pitch": 0,
                "velocity": 0,
                "duration": 0.0341,
                "tempo": 0
            },
            {
                "pitch": 69,
                "velocity": 7,
                "duration": 0.1682,
                "tempo": 120.0
            },
            {
                "pitch": 0,
                "velocity": 0,
                "duration": 0.0159,
                "tempo": 0
            },
            {
                "pitch": 72,
                "velocity": 7,
                "duration": 0.1591,
                "tempo": 120.0
            },
            {
                "pitch": 0,
                "velocity": 0,
                "duration": 0.0318,
                "tempo": 0
            },
            {
                "pitch": 69,
                "velocity": 7,
                "duration": 0.1432,
                "tempo": 120.0
            },
            {
                "pitch": 0,
                "velocity": 0,
                "duration": 0.0318,
                "tempo": 0
            },
            {
                "pitch": 65,
                "velocity": 7,
                "duration": 0.1545,
                "tempo": 120.0
            },
            {
                "pitch": 0,
                "velocity": 0,
                "duration": 0.0341,
                "tempo": 0
            },
            {
                "pitch": 62,
                "velocity": 7,
                "duration": 0.1727,
                "tempo": 120.0
            },
            {
                "pitch": 0,
                "velocity": 0,
                "duration": 0.2182,
                "tempo": 0
            },
            {
                "pitch": 67,
                "velocity": 7,
                "duration": 0.15,
                "tempo": 120.0
            },
            {
                "pitch": 0,
                "velocity": 0,
                "duration": 0.0364,
                "tempo": 0
            },
            {
                "pitch": 71,
                "velocity": 7,
                "duration": 0.1614,
                "tempo": 120.0
            },
            {
                "pitch": 0,
                "velocity": 0,
                "duration": 0.0318,
                "tempo": 0
            },
            {
                "pitch": 74,
                "velocity": 7,
                "duration": 0.1477,
                "tempo": 120.0
            },
            {
                "pitch": 0,
                "velocity": 0,
                "duration": 0.0318,
                "tempo": 0
            },
            {
                "pitch": 79,
                "velocity": 7,
                "duration": 0.15,
                "tempo": 120.0
            },
            {
                "pitch": 0,
                "velocity": 0,
                "duration": 0.0364,
                "tempo": 0
            },
            {
                "pitch": 74,
                "velocity": 7,
                "duration": 0.1659,
                "tempo": 120.0
            },
            {
                "pitch": 0,
                "velocity": 0,
                "duration": 0.0182,
                "tempo": 0
            },
            {
                "pitch": 71,
                "velocity": 7,
                "duration": 0.1614,
                "tempo": 120.0
            },
            {
                "pitch": 0,
                "velocity": 0,
                "duration": 0.0341,
                "tempo": 0
            },
            {
                "pitch": 67,
                "velocity": 7,
                "duration": 0.1432,
                "tempo": 120.0
            },
            {
                "pitch": 0,
                "velocity": 0,
                "duration": 0.2205,
                "tempo": 0
            },
            {
                "pitch": 64,
                "velocity": 7,
                "duration": 0.1659,
                "tempo": 120.0
            },
            {
                "pitch": 0,
                "velocity": 0,
                "duration": 0.0341,
                "tempo": 0
            },
            {
                "pitch": 69,
                "velocity": 7,
                "duration": 0.1545,
                "tempo": 120.0
            },
            {
                "pitch": 0,
                "velocity": 0,
                "duration": 0.0364,
                "tempo": 0
            },
            {
                "pitch": 72,
                "velocity": 7,
                "duration": 0.1523,
                "tempo": 120.0
            },
            {
                "pitch": 0,
                "velocity": 0,
                "duration": 0.0364,
                "tempo": 0
            },
            {
                "pitch": 76,
                "velocity": 7,
                "duration": 0.1614,
                "tempo": 120.0
            },
            {
                "pitch": 0,
                "velocity": 0,
                "duration": 0.0182,
                "tempo": 0
            },
            {
                "pitch": 72,
                "velocity": 7,
                "duration": 0.1614,
                "tempo": 120.0
            },
            {
                "pitch": 0,
                "velocity": 0,
                "duration": 0.0341,
                "tempo": 0
            },
            {
                "pitch": 69,
                "velocity": 7,
                "duration": 0.15,
                "tempo": 120.0
            },
            {
                "pitch": 0,
                "velocity": 0,
                "duration": 0.0341,
                "tempo": 0
            },
            {
                "pitch": 64,
                "velocity": 7,
                "duration": 0.15,
                "tempo": 120.0
            },
            {
                "pitch": 0,
                "velocity": 0,
                "duration": 0.2295,
                "tempo": 0
            },
            {
                "pitch": 64,
                "velocity": 7,
                "duration": 0.1455,
                "tempo": 120.0
            },
            {
                "pitch": 0,
                "velocity": 0,
                "duration": 0.0341,
                "tempo": 0
            },
            {
                "pitch": 69,
                "velocity": 7,
                "duration": 0.15,
                "tempo": 120.0
            },
            {
                "pitch": 0,
                "velocity": 0,
                "duration": 0.0341,
                "tempo": 0
            },
            {
                "pitch": 72,
                "velocity": 7,
                "duration": 0.1659,
                "tempo": 120.0
            },
            {
                "pitch": 0,
                "velocity": 0,
                "duration": 0.0341,
                "tempo": 0
            },
            {
                "pitch": 76,
                "velocity": 7,
                "duration": 0.15,
                "tempo": 120.0
            },
            {
                "pitch": 0,
                "velocity": 0,
                "duration": 0.0364,
                "tempo": 0
            },
            {
                "pitch": 72,
                "velocity": 7,
                "duration": 0.15,
                "tempo": 120.0
            },
            {
                "pitch": 0,
                "velocity": 0,
                "duration": 0.0341,
                "tempo": 0
            },
            {
                "pitch": 69,
                "velocity": 7,
                "duration": 0.1614,
                "tempo": 120.0
            },
            {
                "pitch": 0,
                "velocity": 0,
                "duration": 0.0182,
                "tempo": 0
            },
            {
                "pitch": 64,
                "velocity": 7,
                "duration": 0.1614,
                "tempo": 120.0
            },
            {
                "pitch": 0,
                "velocity": 0,
                "duration": 0.2227,
                "tempo": 0
            },
            {
                "pitch": 62,
                "velocity": 7,
                "duration": 0.1523,
                "tempo": 120.0
            },
            {
                "pitch": 0,
                "velocity": 0,
                "duration": 0.0364,
                "tempo": 0
            },
            {
                "pitch": 65,
                "velocity": 7,
                "duration": 0.1568,
                "tempo": 120.0
            },
            {
                "pitch": 0,
                "velocity": 0,
                "duration": 0.0341,
                "tempo": 0
            },
            {
                "pitch": 69,
                "velocity": 7,
                "duration": 0.1409,
                "tempo": 120.0
            },
            {
                "pitch": 0,
                "velocity": 0,
                "duration": 0.0318,
                "tempo": 0
            },
            {
                "pitch": 72,
                "velocity": 7,
                "duration": 0.1523,
                "tempo": 120.0
            },
            {
                "pitch": 0,
                "velocity": 0,
                "duration": 0.0341,
                "tempo": 0
            },
            {
                "pitch": 69,
                "velocity": 7,
                "duration": 0.1659,
                "tempo": 120.0
            },
            {
                "pitch": 0,
                "velocity": 0,
                "duration": 0.0182,
                "tempo": 0
            },
            {
                "pitch": 65,
                "velocity": 7,
                "duration": 0.1682,
                "tempo": 120.0
            },
            {
                "pitch": 0,
                "velocity": 0,
                "duration": 0.0341,
                "tempo": 0
            },
            {
                "pitch": 62,
                "velocity": 7,
                "duration": 0.15,
                "tempo": 120.0
            },
            {
                "pitch": 0,
                "velocity": 0,
                "duration": 0.2182,
                "tempo": 0
            },
            {
                "pitch": 67,
                "velocity": 7,
                "duration": 0.1682,
                "tempo": 120.0
            },
            {
                "pitch": 0,
                "velocity": 0,
                "duration": 0.0341,
                "tempo": 0
            },
            {
                "pitch": 71,
                "velocity": 7,
                "duration": 0.15,
                "tempo": 120.0
            },
            {
                "pitch": 0,
                "velocity": 0,
                "duration": 0.0341,
                "tempo": 0
            },
            {
                "pitch": 74,
                "velocity": 7,
                "duration": 0.15,
                "tempo": 120.0
            },
            {
                "pitch": 0,
                "velocity": 0,
                "duration": 0.0341,
                "tempo": 0
            },
            {
                "pitch": 79,
                "velocity": 7,
                "duration": 0.1614,
                "tempo": 120.0
            },
            {
                "pitch": 0,
                "velocity": 0,
                "duration": 0.0341,
                "tempo": 0
            },
            {
                "pitch": 74,
                "velocity": 7,
                "duration": 0.1455,
                "tempo": 120.0
            },
            {
                "pitch": 0,
                "velocity": 0,
                "duration": 0.0341,
                "tempo": 0
            },
            {
                "pitch": 71,
                "velocity": 7,
                "duration": 0.15,
                "tempo": 120.0
            },
            {
                "pitch": 0,
                "velocity": 0,
                "duration": 0.0341,
                "tempo": 0
            },
            {
                "pitch": 67,
                "velocity": 7,
                "duration": 0.1659,
                "tempo": 120.0
            },
            {
                "pitch": 0,
                "velocity": 0,
                "duration": 0.2136,
                "tempo": 0
            },
            {
                "pitch": 64,
                "velocity": 7,
                "duration": 0.1455,
                "tempo": 120.0
            },
            {
                "pitch": 0,
                "velocity": 0,
                "duration": 0.0341,
                "tempo": 0
            },
            {
                "pitch": 69,
                "velocity": 7,
                "duration": 0.1523,
                "tempo": 120.0
            },
            {
                "pitch": 0,
                "velocity": 0,
                "duration": 0.0364,
                "tempo": 0
            },
            {
                "pitch": 72,
                "velocity": 7,
                "duration": 0.1727,
                "tempo": 120.0
            },
            {
                "pitch": 0,
                "velocity": 0,
                "duration": 0.0341,
                "tempo": 0
            },
            {
                "pitch": 76,
                "velocity": 7,
                "duration": 0.15,
                "tempo": 120.0
            },
            {
                "pitch": 0,
                "velocity": 0,
                "duration": 42.85,
                "tempo": 0
            },
            {
                "pitch": 64,
                "velocity": 7,
                "duration": 0.0682,
                "tempo": 120.0
            }
        ],
        "Lead 2 (sawtooth)": [
            {
                "pitch": 0,
                "velocity": 0,
                "duration": 18.2341,
                "tempo": 0
            },
            {
                "pitch": 62,
                "velocity": 12,
                "duration": 1.4614,
                "tempo": 120.0
            },
            {
                "pitch": 0,
                "velocity": 0,
                "duration": 0.0341,
                "tempo": 0
            },
            {
                "pitch": 67,
                "velocity": 12,
                "duration": 1.4795,
                "tempo": 120.0
            },
            {
                "pitch": 0,
                "velocity": 0,
                "duration": 0.0182,
                "tempo": 0
            },
            {
                "pitch": 64,
                "velocity": 12,
                "duration": 1.4705,
                "tempo": 120.0
            },
            {
                "pitch": 0,
                "velocity": 0,
                "duration": 0.0318,
                "tempo": 0
            },
            {
                "pitch": 69,
                "velocity": 12,
                "duration": 1.4727,
                "tempo": 120.0
            },
            {
                "pitch": 0,
                "velocity": 0,
                "duration": 0.0364,
                "tempo": 0
            },
            {
                "pitch": 62,
                "velocity": 12,
                "duration": 1.4682,
                "tempo": 120.0
            },
            {
                "pitch": 0,
                "velocity": 0,
                "duration": 0.0341,
                "tempo": 0
            },
            {
                "pitch": 67,
                "velocity": 12,
                "duration": 1.4545,
                "tempo": 120.0
            },
            {
                "pitch": 0,
                "velocity": 0,
                "duration": 0.0341,
                "tempo": 0
            },
            {
                "pitch": 64,
                "velocity": 12,
                "duration": 1.4727,
                "tempo": 120.0
            },
            {
                "pitch": 0,
                "velocity": 0,
                "duration": 0.0341,
                "tempo": 0
            },
            {
                "pitch": 68,
                "velocity": 12,
                "duration": 1.4705,
                "tempo": 120.0
            }
        ],
        "Synth Bass 1": [
            {
                "pitch": 0,
                "velocity": 0,
                "duration": 18.2977,
                "tempo": 0
            },
            {
                "pitch": 62,
                "velocity": 1,
                "duration": 1.4636,
                "tempo": 120.0
            },
            {
                "pitch": 0,
                "velocity": 0,
                "duration": 0.0341,
                "tempo": 0
            },
            {
                "pitch": 67,
                "velocity": 1,
                "duration": 1.4614,
                "tempo": 120.0
            },
            {
                "pitch": 0,
                "velocity": 0,
                "duration": 0.0318,
                "tempo": 0
            },
            {
                "pitch": 64,
                "velocity": 1,
                "duration": 1.475,
                "tempo": 120.0
            },
            {
                "pitch": 0,
                "velocity": 0,
                "duration": 0.0341,
                "tempo": 0
            },
            {
                "pitch": 69,
                "velocity": 1,
                "duration": 1.4727,
                "tempo": 120.0
            },
            {
                "pitch": 0,
                "velocity": 0,
                "duration": 0.0318,
                "tempo": 0
            },
            {
                "pitch": 62,
                "velocity": 1,
                "duration": 1.4545,
                "tempo": 120.0
            },
            {
                "pitch": 0,
                "velocity": 0,
                "duration": 0.0341,
                "tempo": 0
            },
            {
                "pitch": 67,
                "velocity": 1,
                "duration": 1.4705,
                "tempo": 120.0
            },
            {
                "pitch": 0,
                "velocity": 0,
                "duration": 0.0341,
                "tempo": 0
            },
            {
                "pitch": 64,
                "velocity": 1,
                "duration": 1.4727,
                "tempo": 120.0
            },
            {
                "pitch": 0,
                "velocity": 0,
                "duration": 0.0318,
                "tempo": 0
            },
            {
                "pitch": 68,
                "velocity": 1,
                "duration": 1.4568,
                "tempo": 120.0
            }
        ],
        "Acoustic Grand Piano": [
            {
                "pitch": 0,
                "velocity": 0,
                "duration": 60.5568,
                "tempo": 0
            },
            {
                "pitch": 108,
                "velocity": 15,
                "duration": 0.1,
                "tempo": 120.0
            }
        ]
    }
}