{
    "track_id": "07_Bonus_12",
    "mood": "happy",
    "instruments": {
        "Lead 1 (square)": [
            {
                "pitch": 0,
                "velocity": 0,
                "duration": 5.2682,
                "tempo": 0
            },
            {
                "pitch": 70,
                "velocity": 8,
                "duration": 0.6386,
                "tempo": 120.0
            },
            {
                "pitch": 77,
                "velocity": 8,
                "duration": 1.9114,
                "tempo": 120.0
            },
            {
                "pitch": 70,
                "velocity": 8,
                "duration": 0.1591,
                "tempo": 120.0
            },
            {
                "pitch": 74,
                "velocity": 8,
                "duration": 0.1591,
                "tempo": 120.0
            },
            {
                "pitch": 52,
                "velocity": 8,
                "duration": 2.5591,
                "tempo": 120.0
            },
            {
                "pitch": 75,
                "velocity": 8,
                "duration": 2.2409,
                "tempo": 120.0
            },
            {
                "pitch": 70,
                "velocity": 8,
                "duration": 0.6341,
                "tempo": 120.0
            },
            {
                "pitch": 78,
                "velocity": 8,
                "duration": 5.1045,
                "tempo": 120.0
            },
            {
                "pitch": 52,
                "velocity": 8,
                "duration": 2.5477,
                "tempo": 120.0
            },
            {
                "pitch": 77,
                "velocity": 8,
                "duration": 4.9477,
                "tempo": 120.0
            },
            {
                "pitch": 77,
                "velocity": 8,
                "duration": 1.9136,
                "tempo": 120.0
            },
            {
                "pitch": 70,
                "velocity": 8,
                "duration": 0.1614,
                "tempo": 120.0
            },
            {
                "pitch": 74,
                "velocity": 8,
                "duration": 0.1591,
                "tempo": 120.0
            },
            {
                "pitch": 75,
                "velocity": 8,
                "duration": 2.2295,
                "tempo": 120.0
            },
            {
                "pitch": 74,
                "velocity": 8,
                "duration": 0.6386,
                "tempo": 120.0
            },
            {
                "pitch": 75,
                "velocity": 8,
                "duration": 1.4295,
                "tempo": 120.0
            },
            {
                "pitch": 77,
                "velocity": 8,
                "duration": 4.6182,
                "tempo": 120.0
            },
            {
                "pitch": 77,
                "velocity": 8,
                "duration": 0.1614,
                "tempo": 120.0
            },
            {
                "pitch": 75,
                "velocity": 8,
                "duration": 0.1591,
                "tempo": 120.0
            },
            {
                "pitch": 74,
                "velocity": 8,
                "duration": 0.1591,
                "tempo": 120.0
            },
            {
                "pitch": 70,
                "velocity": 8,
                "duration": 0.6409,
                "tempo": 120.0
            },
            {
                "pitch": 68,
                "velocity": 8,
                "duration": 0.6386,
                "tempo": 120.0
            },
            {
                "pitch": 68,
                "velocity": 8,
                "duration": 0.6386,
                "tempo": 120.0
            },
            {
                "pitch": 70,
                "velocity": 8,
                "duration": 0.3205,
                "tempo": 120.0
            },
            {
                "pitch": 70,
                "velocity": 8,
                "duration": 0.3205,
                "tempo": 120.0
            },
            {
                "pitch": 72,
                "velocity": 8,
                "duration": 0.3159,
                "tempo": 120.0
            },
            {
                "pitch": 73,
                "velocity": 8,
                "duration": 0.3136,
                "tempo": 120.0
            },
            {
                "pitch": 80,
                "velocity": 8,
                "duration": 0.3205,
                "tempo": 120.0
            },
            {
                "pitch": 70,
                "velocity": 8,
                "duration": 0.6386,
                "tempo": 120.0
            },
            {
                "pitch": 0,
                "velocity": 0,
                "duration": 0.0023,
                "tempo": 0
            },
            {
                "pitch": 77,
                "velocity": 8,
                "duration": 1.9136,
                "tempo": 120.0
            },
            {
                "pitch": 70,
                "velocity": 8,
                "duration": 0.1545,
                "tempo": 120.0
            },
            {
                "pitch": 74,
                "velocity": 8,
                "duration": 0.1636,
                "tempo": 120.0
            },
            {
                "pitch": 52,
                "velocity": 8,
                "duration": 12.7568,
                "tempo": 120.0
            },
            {
                "pitch": 75,
                "velocity": 8,
                "duration": 2.2364,
                "tempo": 120.0
            },
            {
                "pitch": 70,
                "velocity": 8,
                "duration": 0.6341,
                "tempo": 120.0
            },
            {
                "pitch": 78,
                "velocity": 8,
                "duration": 15.3045,
                "tempo": 120.0
            },
            {
                "pitch": 52,
                "velocity": 8,
                "duration": 2.5477,
                "tempo": 120.0
            },
            {
                "pitch": 77,
                "velocity": 8,
                "duration": 4.9477,
                "tempo": 120.0
            },
            {
                "pitch": 77,
                "velocity": 8,
                "duration": 1.9136,
                "tempo": 120.0
            },
            {
                "pitch": 70,
                "velocity": 8,
                "duration": 0.1614,
                "tempo": 120.0
            },
            {
                "pitch": 74,
                "velocity": 8,
                "duration": 0.1591,
                "tempo": 120.0
            },
            {
                "pitch": 75,
                "velocity": 8,
                "duration": 2.2295,
                "tempo": 120.0
            },
            {
                "pitch": 74,
                "velocity": 8,
                "duration": 0.6386,
                "tempo": 120.0
            },
            {
                "pitch": 75,
                "velocity": 8,
                "duration": 1.4295,
                "tempo": 120.0
            },
            {
                "pitch": 77,
                "velocity": 8,
                "duration": 0.1614,
                "tempo": 120.0
            },
            {
                "pitch": 75,
                "velocity": 8,
                "duration": 0.1591,
                "tempo": 120.0
            },
            {
                "pitch": 52,
                "velocity": 8,
                "duration": 5.0977,
                "tempo": 120.0
            },
            {
                "pitch": 74,
                "velocity": 8,
                "duration": 0.1591,
                "tempo": 120.0
            },
            {
                "pitch": 70,
                "velocity": 8,
                "duration": 0.6409,
                "tempo": 120.0
            },
            {
                "pitch": 68,
                "velocity": 8,
                "duration": 0.6386,
                "tempo": 120.0
            },
            {
                "pitch": 70,
                "velocity": 8,
                "duration": 0.6409,
                "tempo": 120.0
            },
            {
                "pitch": 76,
                "velocity": 8,
                "duration": 15.625,
                "tempo": 120.0
            },
            {
                "pitch": 72,
                "velocity": 8,
                "duration": 0.3205,
                "tempo": 120.0
            }
        ],
        "Lead 2 (sawtooth)": [
            {
                "pitch": 0,
                "velocity": 0,
                "duration": 36.0364,
                "tempo": 0
            },
            {
                "pitch": 70,
                "velocity": 15,
                "duration": 0.6409,
                "tempo": 120.0
            },
            {
                "pitch": 65,
                "velocity": 15,
                "duration": 1.4386,
                "tempo": 120.0
            },
            {
                "pitch": 68,
                "velocity": 15,
                "duration": 1.75,
                "tempo": 120.0
            },
            {
                "pitch": 72,
                "velocity": 15,
                "duration": 1.2795,
                "tempo": 120.0
            },
            {
                "pitch": 70,
                "velocity": 15,
                "duration": 0.6295,
                "tempo": 120.0
            },
            {
                "pitch": 65,
                "velocity": 15,
                "duration": 1.4409,
                "tempo": 120.0
            },
            {
                "pitch": 68,
                "velocity": 15,
                "duration": 1.7477,
                "tempo": 120.0
            },
            {
                "pitch": 76,
                "velocity": 15,
                "duration": 5.0977,
                "tempo": 120.0
            },
            {
                "pitch": 51,
                "velocity": 15,
                "duration": 4.7773,
                "tempo": 120.0
            },
            {
                "pitch": 72,
                "velocity": 15,
                "duration": 0.9591,
                "tempo": 120.0
            },
            {
                "pitch": 70,
                "velocity": 15,
                "duration": 2.3909,
                "tempo": 120.0
            }
        ],
        "Synth Bass 1": [
            {
                "pitch": 0,
                "velocity": 0,
                "duration": 35.8818,
                "tempo": 0
            },
            {
                "pitch": 72,
                "velocity": 1,
                "duration": 0.6341,
                "tempo": 120.0
            },
            {
                "pitch": 70,
                "velocity": 1,
                "duration": 1.4409,
                "tempo": 120.0
            },
            {
                "pitch": 65,
                "velocity": 1,
                "duration": 1.5886,
                "tempo": 120.0
            },
            {
                "pitch": 73,
                "velocity": 1,
                "duration": 0.9591,
                "tempo": 120.0
            },
            {
                "pitch": 68,
                "velocity": 1,
                "duration": 0.4795,
                "tempo": 120.0
            },
            {
                "pitch": 51,
                "velocity": 1,
                "duration": 5.1045,
                "tempo": 120.0
            },
            {
                "pitch": 72,
                "velocity": 1,
                "duration": 0.6364,
                "tempo": 120.0
            },
            {
                "pitch": 70,
                "velocity": 1,
                "duration": 1.4341,
                "tempo": 120.0
            },
            {
                "pitch": 78,
                "velocity": 1,
                "duration": 5.0977,
                "tempo": 120.0
            },
            {
                "pitch": 61,
                "velocity": 1,
                "duration": 5.1091,
                "tempo": 120.0
            },
            {
                "pitch": 65,
                "velocity": 1,
                "duration": 1.6,
                "tempo": 120.0
            },
            {
                "pitch": 73,
                "velocity": 1,
                "duration": 0.95,
                "tempo": 120.0
            },
            {
                "pitch": 68,
                "velocity": 1,
                "duration": 2.7091,
                "tempo": 120.0
            }
        ],
        "Acoustic Grand Piano": [
            {
                "pitch": 0,
                "velocity": 0,
                "duration": 48.3136,
                "tempo": 0
            },
            {
                "pitch": 108,
                "velocity": 15,
                "duration": 0.1,
                "tempo": 120.0
            }
        ]
    }
}