{
    "track_id": "09_Ruins_6",
    "mood": "happy",
    "instruments": {
        "Lead 1 (square)": [
            {
                "pitch": 0,
                "velocity": 0,
                "duration": 6.3955,
                "tempo": 0
            },
            {
                "pitch": 60,
                "velocity": 12,
                "duration": 1.5909,
                "tempo": 120.0
            },
            {
                "pitch": 62,
                "velocity": 12,
                "duration": 1.6045,
                "tempo": 120.0
            },
            {
                "pitch": 68,
                "velocity": 12,
                "duration": 0.6023,
                "tempo": 120.0
            },
            {
                "pitch": 68,
                "velocity": 12,
                "duration": 0.2,
                "tempo": 120.0
            },
            {
                "pitch": 62,
                "velocity": 12,
                "duration": 0.5955,
                "tempo": 120.0
            },
            {
                "pitch": 70,
                "velocity": 12,
                "duration": 0.1977,
                "tempo": 120.0
            },
            {
                "pitch": 77,
                "velocity": 12,
                "duration": 0.7932,
                "tempo": 120.0
            },
            {
                "pitch": 63,
                "velocity": 12,
                "duration": 0.6,
                "tempo": 120.0
            },
            {
                "pitch": 60,
                "velocity": 12,
                "duration": 0.6023,
                "tempo": 120.0
            },
            {
                "pitch": 60,
                "velocity": 12,
                "duration": 0.6023,
                "tempo": 120.0
            },
            {
                "pitch": 63,
                "velocity": 12,
                "duration": 0.4023,
                "tempo": 120.0
            },
            {
                "pitch": 63,
                "velocity": 12,
                "duration": 0.4023,
                "tempo": 120.0
            },
            {
                "pitch": 68,
                "velocity": 12,
                "duration": 0.9955,
                "tempo": 120.0
            },
            {
                "pitch": 56,
                "velocity": 12,
                "duration": 0.5977,
                "tempo": 120.0
            },
            {
                "pitch": 62,
                "velocity": 12,
                "duration": 1.0,
                "tempo": 120.0
            },
            {
                "pitch": 58,
                "velocity": 12,
                "duration": 0.6023,
                "tempo": 120.0
            },
            {
                "pitch": 72,
                "velocity": 12,
                "duration": 1.5886,
                "tempo": 120.0
            },
            {
                "pitch": 70,
                "velocity": 12,
                "duration": 0.8023,
                "tempo": 120.0
            },
            {
                "pitch": 65,
                "velocity": 12,
                "duration": 0.8,
                "tempo": 120.0
            },
            {
                "pitch": 60,
                "velocity": 12,
                "duration": 1.5886,
                "tempo": 120.0
            },
            {
                "pitch": 62,
                "velocity": 12,
                "duration": 1.6,
                "tempo": 120.0
            },
            {
                "pitch": 62,
                "velocity": 12,
                "duration": 1.6,
                "tempo": 120.0
            },
            {
                "pitch": 63,
                "velocity": 12,
                "duration": 1.5909,
                "tempo": 120.0
            },
            {
                "pitch": 67,
                "velocity": 12,
                "duration": 0.3568,
                "tempo": 120.0
            },
            {
                "pitch": 67,
                "velocity": 12,
                "duration": 0.0409,
                "tempo": 120.0
            },
            {
                "pitch": 67,
                "velocity": 12,
                "duration": 0.3614,
                "tempo": 120.0
            },
            {
                "pitch": 67,
                "velocity": 12,
                "duration": 0.0409,
                "tempo": 120.0
            },
            {
                "pitch": 67,
                "velocity": 12,
                "duration": 0.2,
                "tempo": 120.0
            },
            {
                "pitch": 67,
                "velocity": 12,
                "duration": 0.3568,
                "tempo": 120.0
            },
            {
                "pitch": 67,
                "velocity": 12,
                "duration": 0.2,
                "tempo": 120.0
            },
            {
                "pitch": 67,
                "velocity": 12,
                "duration": 0.0409,
                "tempo": 120.0
            },
            {
                "pitch": 60,
                "velocity": 12,
                "duration": 1.5886,
                "tempo": 120.0
            },
            {
                "pitch": 62,
                "velocity": 12,
                "duration": 1.6,
                "tempo": 120.0
            },
            {
                "pitch": 63,
                "velocity": 12,
                "duration": 1.5909,
                "tempo": 120.0
            },
            {
                "pitch": 58,
                "velocity": 12,
                "duration": 1.5886,
                "tempo": 120.0
            },
            {
                "pitch": 62,
                "velocity": 12,
                "duration": 1.5977,
                "tempo": 120.0
            },
            {
                "pitch": 39,
                "velocity": 12,
                "duration": 4.7841,
                "tempo": 120.0
            },
            {
                "pitch": 64,
                "velocity": 12,
                "duration": 19.1318,
                "tempo": 120.0
            },
            {
                "pitch": 64,
                "velocity": 12,
                "duration": 1.5977,
                "tempo": 120.0
            },
            {
                "pitch": 70,
                "velocity": 12,
                "duration": 0.7909,
                "tempo": 120.0
            },
            {
                "pitch": 78,
                "velocity": 12,
                "duration": 17.5318,
                "tempo": 120.0
            },
            {
                "pitch": 64,
                "velocity": 12,
                "duration": 0.8,
                "tempo": 120.0
            },
            {
                "pitch": 39,
                "velocity": 12,
                "duration": 3.1864,
                "tempo": 120.0
            },
            {
                "pitch": 65,
                "velocity": 12,
                "duration": 6.3818,
                "tempo": 120.0
            },
            {
                "pitch": 65,
                "velocity": 12,
                "duration": 1.5955,
                "tempo": 120.0
            },
            {
                "pitch": 70,
                "velocity": 12,
                "duration": 1.5886,
                "tempo": 120.0
            },
            {
                "pitch": 64,
                "velocity": 12,
                "duration": 1.5977,
                "tempo": 120.0
            },
            {
                "pitch": 74,
                "velocity": 12,
                "duration": 1.5864,
                "tempo": 120.0
            },
            {
                "pitch": 72,
                "velocity": 12,
                "duration": 1.5977,
                "tempo": 120.0
            },
            {
                "pitch": 72,
                "velocity": 12,
                "duration": 1.5977,
                "tempo": 120.0
            },
            {
                "pitch": 62,
                "velocity": 12,
                "duration": 1.5909,
                "tempo": 120.0
            },
            {
                "pitch": 64,
                "velocity": 12,
                "duration": 1.5955,
                "tempo": 120.0
            },
            {
                "pitch": 65,
                "velocity": 12,
                "duration": 1.5886,
                "tempo": 120.0
            },
            {
                "pitch": 69,
                "velocity": 12,
                "duration": 0.3977,
                "tempo": 120.0
            },
            {
                "pitch": 0,
                "velocity": 0,
                "duration": 0.0023,
                "tempo": 0
            },
            {
                "pitch": 69,
                "velocity": 12,
                "duration": 0.3977,
                "tempo": 120.0
            },
            {
                "pitch": 69,
                "velocity": 12,
                "duration": 0.2,
                "tempo": 120.0
            },
            {
                "pitch": 69,
                "velocity": 12,
                "duration": 0.6,
                "tempo": 120.0
            },
            {
                "pitch": 77,
                "velocity": 12,
                "duration": 39.8614,
                "tempo": 120.0
            },
            {
                "pitch": 62,
                "velocity": 12,
                "duration": 1.5864,
                "tempo": 120.0
            },
            {
                "pitch": 64,
                "velocity": 12,
                "duration": 1.5909,
                "tempo": 120.0
            },
            {
                "pitch": 65,
                "velocity": 12,
                "duration": 1.6,
                "tempo": 120.0
            },
            {
                "pitch": 60,
                "velocity": 12,
                "duration": 1.5864,
                "tempo": 120.0
            },
            {
                "pitch": 60,
                "velocity": 12,
                "duration": 1.5864,
                "tempo": 120.0
            },
            {
                "pitch": 60,
                "velocity": 12,
                "duration": 0.4114,
                "tempo": 120.0
            },
            {
                "pitch": 62,
                "velocity": 12,
                "duration": 2.7841,
                "tempo": 120.0
            },
            {
                "pitch": 60,
                "velocity": 12,
                "duration": 1.5886,
                "tempo": 120.0
            },
            {
                "pitch": 60,
                "velocity": 12,
                "duration": 1.5886,
                "tempo": 120.0
            },
            {
                "pitch": 62,
                "velocity": 12,
                "duration": 1.5977,
                "tempo": 120.0
            },
            {
                "pitch": 61,
                "velocity": 12,
                "duration": 1.5909,
                "tempo": 120.0
            },
            {
                "pitch": 63,
                "velocity": 12,
                "duration": 1.6,
                "tempo": 120.0
            },
            {
                "pitch": 69,
                "velocity": 12,
                "duration": 0.5932,
                "tempo": 120.0
            },
            {
                "pitch": 69,
                "velocity": 12,
                "duration": 0.2,
                "tempo": 120.0
            },
            {
                "pitch": 63,
                "velocity": 12,
                "duration": 0.6045,
                "tempo": 120.0
            },
            {
                "pitch": 71,
                "velocity": 12,
                "duration": 0.1955,
                "tempo": 120.0
            },
            {
                "pitch": 64,
                "velocity": 12,
                "duration": 0.6023,
                "tempo": 120.0
            },
            {
                "pitch": 61,
                "velocity": 12,
                "duration": 0.6,
                "tempo": 120.0
            },
            {
                "pitch": 64,
                "velocity": 12,
                "duration": 0.3977,
                "tempo": 120.0
            },
            {
                "pitch": 64,
                "velocity": 12,
                "duration": 0.3977,
                "tempo": 120.0
            },
            {
                "pitch": 69,
                "velocity": 12,
                "duration": 0.9932,
                "tempo": 120.0
            },
            {
                "pitch": 57,
                "velocity": 12,
                "duration": 0.6,
                "tempo": 120.0
            },
            {
                "pitch": 44,
                "velocity": 12,
                "duration": 4.3886,
                "tempo": 120.0
            },
            {
                "pitch": 63,
                "velocity": 12,
                "duration": 1.0,
                "tempo": 120.0
            },
            {
                "pitch": 59,
                "velocity": 12,
                "duration": 0.6,
                "tempo": 120.0
            },
            {
                "pitch": 73,
                "velocity": 12,
                "duration": 1.5932,
                "tempo": 120.0
            },
            {
                "pitch": 71,
                "velocity": 12,
                "duration": 0.8,
                "tempo": 120.0
            },
            {
                "pitch": 66,
                "velocity": 12,
                "duration": 0.8023,
                "tempo": 120.0
            },
            {
                "pitch": 61,
                "velocity": 12,
                "duration": 1.5909,
                "tempo": 120.0
            },
            {
                "pitch": 61,
                "velocity": 12,
                "duration": 1.5909,
                "tempo": 120.0
            },
            {
                "pitch": 63,
                "velocity": 12,
                "duration": 1.5909,
                "tempo": 120.0
            },
            {
                "pitch": 64,
                "velocity": 12,
                "duration": 1.6045,
                "tempo": 120.0
            },
            {
                "pitch": 68,
                "velocity": 12,
                "duration": 0.3977,
                "tempo": 120.0
            },
            {
                "pitch": 68,
                "velocity": 12,
                "duration": 0.4023,
                "tempo": 120.0
            },
            {
                "pitch": 68,
                "velocity": 12,
                "duration": 0.1977,
                "tempo": 120.0
            },
            {
                "pitch": 68,
                "velocity": 12,
                "duration": 0.5909,
                "tempo": 120.0
            },
            {
                "pitch": 61,
                "velocity": 12,
                "duration": 1.6023,
                "tempo": 120.0
            },
            {
                "pitch": 63,
                "velocity": 12,
                "duration": 1.5932,
                "tempo": 120.0
            },
            {
                "pitch": 44,
                "velocity": 12,
                "duration": 14.9659,
                "tempo": 120.0
            },
            {
                "pitch": 64,
                "velocity": 12,
                "duration": 1.6,
                "tempo": 120.0
            },
            {
                "pitch": 59,
                "velocity": 12,
                "duration": 1.5932,
                "tempo": 120.0
            }
        ],
        "Lead 2 (sawtooth)": [
            {
                "pitch": 0,
                "velocity": 0,
                "duration": 6.3955,
                "tempo": 0
            },
            {
                "pitch": 63,
                "velocity": 12,
                "duration": 1.5909,
                "tempo": 120.0
            },
            {
                "pitch": 65,
                "velocity": 12,
                "duration": 1.6045,
                "tempo": 120.0
            },
            {
                "pitch": 60,
                "velocity": 12,
                "duration": 0.4,
                "tempo": 120.0
            },
            {
                "pitch": 60,
                "velocity": 12,
                "duration": 0.4023,
                "tempo": 120.0
            },
            {
                "pitch": 70,
                "velocity": 12,
                "duration": 0.4023,
                "tempo": 120.0
            },
            {
                "pitch": 62,
                "velocity": 12,
                "duration": 0.3909,
                "tempo": 120.0
            },
            {
                "pitch": 67,
                "velocity": 12,
                "duration": 0.3591,
                "tempo": 120.0
            },
            {
                "pitch": 67,
                "velocity": 12,
                "duration": 0.2023,
                "tempo": 120.0
            },
            {
                "pitch": 67,
                "velocity": 12,
                "duration": 0.0386,
                "tempo": 120.0
            },
            {
                "pitch": 0,
                "velocity": 0,
                "duration": 0.0023,
                "tempo": 0
            },
            {
                "pitch": 63,
                "velocity": 12,
                "duration": 0.6,
                "tempo": 120.0
            },
            {
                "pitch": 67,
                "velocity": 12,
                "duration": 0.3614,
                "tempo": 120.0
            },
            {
                "pitch": 79,
                "velocity": 12,
                "duration": 1.2045,
                "tempo": 120.0
            },
            {
                "pitch": 67,
                "velocity": 12,
                "duration": 0.0409,
                "tempo": 120.0
            },
            {
                "pitch": 77,
                "velocity": 12,
                "duration": 1.9955,
                "tempo": 120.0
            },
            {
                "pitch": 63,
                "velocity": 12,
                "duration": 1.1909,
                "tempo": 120.0
            },
            {
                "pitch": 60,
                "velocity": 12,
                "duration": 0.4023,
                "tempo": 120.0
            },
            {
                "pitch": 60,
                "velocity": 12,
                "duration": 0.4023,
                "tempo": 120.0
            },
            {
                "pitch": 65,
                "velocity": 12,
                "duration": 1.2,
                "tempo": 120.0
            },
            {
                "pitch": 65,
                "velocity": 12,
                "duration": 1.2,
                "tempo": 120.0
            },
            {
                "pitch": 65,
                "velocity": 12,
                "duration": 0.4023,
                "tempo": 120.0
            },
            {
                "pitch": 67,
                "velocity": 12,
                "duration": 0.3614,
                "tempo": 120.0
            },
            {
                "pitch": 79,
                "velocity": 12,
                "duration": 3.5977,
                "tempo": 120.0
            },
            {
                "pitch": 67,
                "velocity": 12,
                "duration": 0.2,
                "tempo": 120.0
            },
            {
                "pitch": 67,
                "velocity": 12,
                "duration": 0.1977,
                "tempo": 120.0
            },
            {
                "pitch": 67,
                "velocity": 12,
                "duration": 0.1977,
                "tempo": 120.0
            },
            {
                "pitch": 67,
                "velocity": 12,
                "duration": 0.1955,
                "tempo": 120.0
            },
            {
                "pitch": 67,
                "velocity": 12,
                "duration": 0.1977,
                "tempo": 120.0
            },
            {
                "pitch": 79,
                "velocity": 12,
                "duration": 0.9886,
                "tempo": 120.0
            },
            {
                "pitch": 67,
                "velocity": 12,
                "duration": 0.2,
                "tempo": 120.0
            },
            {
                "pitch": 79,
                "velocity": 12,
                "duration": 0.2,
                "tempo": 120.0
            },
            {
                "pitch": 67,
                "velocity": 12,
                "duration": 0.0409,
                "tempo": 120.0
            },
            {
                "pitch": 65,
                "velocity": 12,
                "duration": 0.8,
                "tempo": 120.0
            },
            {
                "pitch": 58,
                "velocity": 12,
                "duration": 0.4,
                "tempo": 120.0
            },
            {
                "pitch": 62,
                "velocity": 12,
                "duration": 0.4,
                "tempo": 120.0
            },
            {
                "pitch": 63,
                "velocity": 12,
                "duration": 1.5886,
                "tempo": 120.0
            },
            {
                "pitch": 65,
                "velocity": 12,
                "duration": 3.5886,
                "tempo": 120.0
            },
            {
                "pitch": 65,
                "velocity": 12,
                "duration": 1.6,
                "tempo": 120.0
            },
            {
                "pitch": 67,
                "velocity": 12,
                "duration": 0.3591,
                "tempo": 120.0
            },
            {
                "pitch": 79,
                "velocity": 12,
                "duration": 5.1886,
                "tempo": 120.0
            },
            {
                "pitch": 67,
                "velocity": 12,
                "duration": 0.2,
                "tempo": 120.0
            },
            {
                "pitch": 79,
                "velocity": 12,
                "duration": 0.2,
                "tempo": 120.0
            },
            {
                "pitch": 67,
                "velocity": 12,
                "duration": 0.1977,
                "tempo": 120.0
            },
            {
                "pitch": 67,
                "velocity": 12,
                "duration": 0.1977,
                "tempo": 120.0
            },
            {
                "pitch": 67,
                "velocity": 12,
                "duration": 0.1955,
                "tempo": 120.0
            },
            {
                "pitch": 67,
                "velocity": 12,
                "duration": 0.2,
                "tempo": 120.0
            },
            {
                "pitch": 67,
                "velocity": 12,
                "duration": 0.2,
                "tempo": 120.0
            },
            {
                "pitch": 67,
                "velocity": 12,
                "duration": 0.0409,
                "tempo": 120.0
            },
            {
                "pitch": 72,
                "velocity": 12,
                "duration": 0.3977,
                "tempo": 120.0
            },
            {
                "pitch": 72,
                "velocity": 12,
                "duration": 0.4023,
                "tempo": 120.0
            },
            {
                "pitch": 65,
                "velocity": 12,
                "duration": 0.2,
                "tempo": 120.0
            },
            {
                "pitch": 72,
                "velocity": 12,
                "duration": 0.5977,
                "tempo": 120.0
            },
            {
                "pitch": 63,
                "velocity": 12,
                "duration": 1.5886,
                "tempo": 120.0
            },
            {
                "pitch": 65,
                "velocity": 12,
                "duration": 1.6,
                "tempo": 120.0
            },
            {
                "pitch": 67,
                "velocity": 12,
                "duration": 0.3591,
                "tempo": 120.0
            },
            {
                "pitch": 79,
                "velocity": 12,
                "duration": 6.1773,
                "tempo": 120.0
            },
            {
                "pitch": 67,
                "velocity": 12,
                "duration": 0.2,
                "tempo": 120.0
            },
            {
                "pitch": 79,
                "velocity": 12,
                "duration": 0.2,
                "tempo": 120.0
            },
            {
                "pitch": 67,
                "velocity": 12,
                "duration": 0.2,
                "tempo": 120.0
            },
            {
                "pitch": 79,
                "velocity": 12,
                "duration": 0.2,
                "tempo": 120.0
            },
            {
                "pitch": 67,
                "velocity": 12,
                "duration": 0.2,
                "tempo": 120.0
            },
            {
                "pitch": 79,
                "velocity": 12,
                "duration": 0.2,
                "tempo": 120.0
            },
            {
                "pitch": 67,
                "velocity": 12,
                "duration": 0.2,
                "tempo": 120.0
            },
            {
                "pitch": 79,
                "velocity": 12,
                "duration": 0.2,
                "tempo": 120.0
            },
            {
                "pitch": 67,
                "velocity": 12,
                "duration": 0.1955,
                "tempo": 120.0
            },
            {
                "pitch": 67,
                "velocity": 12,
                "duration": 0.1955,
                "tempo": 120.0
            },
            {
                "pitch": 79,
                "velocity": 12,
                "duration": 0.3909,
                "tempo": 120.0
            },
            {
                "pitch": 67,
                "velocity": 12,
                "duration": 0.0409,
                "tempo": 120.0
            },
            {
                "pitch": 77,
                "velocity": 12,
                "duration": 17.5432,
                "tempo": 120.0
            },
            {
                "pitch": 62,
                "velocity": 12,
                "duration": 1.5886,
                "tempo": 120.0
            },
            {
                "pitch": 65,
                "velocity": 12,
                "duration": 1.5977,
                "tempo": 120.0
            },
            {
                "pitch": 67,
                "velocity": 12,
                "duration": 0.3614,
                "tempo": 120.0
            },
            {
                "pitch": 67,
                "velocity": 12,
                "duration": 0.2,
                "tempo": 120.0
            },
            {
                "pitch": 79,
                "velocity": 12,
                "duration": 3.7886,
                "tempo": 120.0
            },
            {
                "pitch": 67,
                "velocity": 12,
                "duration": 0.2,
                "tempo": 120.0
            },
            {
                "pitch": 79,
                "velocity": 12,
                "duration": 0.2,
                "tempo": 120.0
            },
            {
                "pitch": 67,
                "velocity": 12,
                "duration": 0.1977,
                "tempo": 120.0
            },
            {
                "pitch": 79,
                "velocity": 12,
                "duration": 0.1977,
                "tempo": 120.0
            },
            {
                "pitch": 67,
                "velocity": 12,
                "duration": 0.2,
                "tempo": 120.0
            },
            {
                "pitch": 79,
                "velocity": 12,
                "duration": 0.2,
                "tempo": 120.0
            },
            {
                "pitch": 67,
                "velocity": 12,
                "duration": 0.2,
                "tempo": 120.0
            },
            {
                "pitch": 67,
                "velocity": 12,
                "duration": 0.2,
                "tempo": 120.0
            },
            {
                "pitch": 67,
                "velocity": 12,
                "duration": 0.0386,
                "tempo": 120.0
            },
            {
                "pitch": 62,
                "velocity": 12,
                "duration": 0.7909,
                "tempo": 120.0
            },
            {
                "pitch": 72,
                "velocity": 12,
                "duration": 0.8,
                "tempo": 120.0
            },
            {
                "pitch": 69,
                "velocity": 12,
                "duration": 1.5955,
                "tempo": 120.0
            },
            {
                "pitch": 65,
                "velocity": 12,
                "duration": 1.5886,
                "tempo": 120.0
            },
            {
                "pitch": 67,
                "velocity": 12,
                "duration": 0.3591,
                "tempo": 120.0
            },
            {
                "pitch": 67,
                "velocity": 12,
                "duration": 0.2,
                "tempo": 120.0
            },
            {
                "pitch": 79,
                "velocity": 12,
                "duration": 5.7727,
                "tempo": 120.0
            },
            {
                "pitch": 67,
                "velocity": 12,
                "duration": 0.1977,
                "tempo": 120.0
            },
            {
                "pitch": 67,
                "velocity": 12,
                "duration": 0.2,
                "tempo": 120.0
            },
            {
                "pitch": 67,
                "velocity": 12,
                "duration": 0.2023,
                "tempo": 120.0
            },
            {
                "pitch": 79,
                "velocity": 12,
                "duration": 0.6,
                "tempo": 120.0
            },
            {
                "pitch": 67,
                "velocity": 12,
                "duration": 0.2,
                "tempo": 120.0
            },
            {
                "pitch": 67,
                "velocity": 12,
                "duration": 0.1977,
                "tempo": 120.0
            },
            {
                "pitch": 79,
                "velocity": 12,
                "duration": 0.3977,
                "tempo": 120.0
            },
            {
                "pitch": 67,
                "velocity": 12,
                "duration": 0.0409,
                "tempo": 120.0
            },
            {
                "pitch": 69,
                "velocity": 12,
                "duration": 1.5864,
                "tempo": 120.0
            },
            {
                "pitch": 67,
                "velocity": 12,
                "duration": 0.3591,
                "tempo": 120.0
            },
            {
                "pitch": 79,
                "velocity": 12,
                "duration": 1.9864,
                "tempo": 120.0
            },
            {
                "pitch": 67,
                "velocity": 12,
                "duration": 0.2,
                "tempo": 120.0
            },
            {
                "pitch": 67,
                "velocity": 12,
                "duration": 0.2023,
                "tempo": 120.0
            },
            {
                "pitch": 67,
                "velocity": 12,
                "duration": 0.1977,
                "tempo": 120.0
            },
            {
                "pitch": 67,
                "velocity": 12,
                "duration": 0.2,
                "tempo": 120.0
            },
            {
                "pitch": 67,
                "velocity": 12,
                "duration": 0.2,
                "tempo": 120.0
            },
            {
                "pitch": 79,
                "velocity": 12,
                "duration": 1.0,
                "tempo": 120.0
            },
            {
                "pitch": 67,
                "velocity": 12,
                "duration": 0.2,
                "tempo": 120.0
            },
            {
                "pitch": 67,
                "velocity": 12,
                "duration": 0.0386,
                "tempo": 120.0
            },
            {
                "pitch": 78,
                "velocity": 12,
                "duration": 6.3705,
                "tempo": 120.0
            },
            {
                "pitch": 65,
                "velocity": 12,
                "duration": 1.5909,
                "tempo": 120.0
            },
            {
                "pitch": 67,
                "velocity": 12,
                "duration": 0.3591,
                "tempo": 120.0
            },
            {
                "pitch": 67,
                "velocity": 12,
                "duration": 0.1977,
                "tempo": 120.0
            },
            {
                "pitch": 79,
                "velocity": 12,
                "duration": 2.3864,
                "tempo": 120.0
            },
            {
                "pitch": 67,
                "velocity": 12,
                "duration": 0.2,
                "tempo": 120.0
            },
            {
                "pitch": 79,
                "velocity": 12,
                "duration": 0.2,
                "tempo": 120.0
            },
            {
                "pitch": 67,
                "velocity": 12,
                "duration": 0.2,
                "tempo": 120.0
            },
            {
                "pitch": 79,
                "velocity": 12,
                "duration": 0.2,
                "tempo": 120.0
            },
            {
                "pitch": 67,
                "velocity": 12,
                "duration": 0.1977,
                "tempo": 120.0
            },
            {
                "pitch": 79,
                "velocity": 12,
                "duration": 0.1977,
                "tempo": 120.0
            },
            {
                "pitch": 67,
                "velocity": 12,
                "duration": 0.2,
                "tempo": 120.0
            },
            {
                "pitch": 79,
                "velocity": 12,
                "duration": 0.2,
                "tempo": 120.0
            },
            {
                "pitch": 67,
                "velocity": 12,
                "duration": 0.2,
                "tempo": 120.0
            },
            {
                "pitch": 79,
                "velocity": 12,
                "duration": 0.2,
                "tempo": 120.0
            },
            {
                "pitch": 67,
                "velocity": 12,
                "duration": 0.0409,
                "tempo": 120.0
            },
            {
                "pitch": 69,
                "velocity": 12,
                "duration": 1.5886,
                "tempo": 120.0
            },
            {
                "pitch": 77,
                "velocity": 12,
                "duration": 19.1159,
                "tempo": 120.0
            },
            {
                "pitch": 74,
                "velocity": 12,
                "duration": 0.4,
                "tempo": 120.0
            },
            {
                "pitch": 74,
                "velocity": 12,
                "duration": 0.3977,
                "tempo": 120.0
            },
            {
                "pitch": 67,
                "velocity": 12,
                "duration": 0.2,
                "tempo": 120.0
            },
            {
                "pitch": 77,
                "velocity": 12,
                "duration": 0.9977,
                "tempo": 120.0
            },
            {
                "pitch": 74,
                "velocity": 12,
                "duration": 0.6,
                "tempo": 120.0
            },
            {
                "pitch": 65,
                "velocity": 12,
                "duration": 1.5864,
                "tempo": 120.0
            },
            {
                "pitch": 67,
                "velocity": 12,
                "duration": 0.3591,
                "tempo": 120.0
            },
            {
                "pitch": 67,
                "velocity": 12,
                "duration": 0.2,
                "tempo": 120.0
            },
            {
                "pitch": 67,
                "velocity": 12,
                "duration": 0.2023,
                "tempo": 120.0
            },
            {
                "pitch": 67,
                "velocity": 12,
                "duration": 0.1977,
                "tempo": 120.0
            },
            {
                "pitch": 67,
                "velocity": 12,
                "duration": 0.2,
                "tempo": 120.0
            },
            {
                "pitch": 67,
                "velocity": 12,
                "duration": 0.1955,
                "tempo": 120.0
            },
            {
                "pitch": 67,
                "velocity": 12,
                "duration": 0.1955,
                "tempo": 120.0
            },
            {
                "pitch": 67,
                "velocity": 12,
                "duration": 0.0409,
                "tempo": 120.0
            },
            {
                "pitch": 69,
                "velocity": 12,
                "duration": 1.6,
                "tempo": 120.0
            },
            {
                "pitch": 69,
                "velocity": 12,
                "duration": 1.6,
                "tempo": 120.0
            },
            {
                "pitch": 78,
                "velocity": 12,
                "duration": 11.15,
                "tempo": 120.0
            },
            {
                "pitch": 64,
                "velocity": 12,
                "duration": 1.5864,
                "tempo": 120.0
            },
            {
                "pitch": 67,
                "velocity": 12,
                "duration": 0.6295,
                "tempo": 120.0
            },
            {
                "pitch": 69,
                "velocity": 12,
                "duration": 2.5659,
                "tempo": 120.0
            },
            {
                "pitch": 64,
                "velocity": 12,
                "duration": 1.5886,
                "tempo": 120.0
            },
            {
                "pitch": 67,
                "velocity": 12,
                "duration": 0.3568,
                "tempo": 120.0
            },
            {
                "pitch": 79,
                "velocity": 12,
                "duration": 14.7318,
                "tempo": 120.0
            },
            {
                "pitch": 67,
                "velocity": 12,
                "duration": 0.2023,
                "tempo": 120.0
            },
            {
                "pitch": 79,
                "velocity": 12,
                "duration": 0.2023,
                "tempo": 120.0
            },
            {
                "pitch": 67,
                "velocity": 12,
                "duration": 0.2,
                "tempo": 120.0
            },
            {
                "pitch": 79,
                "velocity": 12,
                "duration": 0.2,
                "tempo": 120.0
            },
            {
                "pitch": 67,
                "velocity": 12,
                "duration": 0.2,
                "tempo": 120.0
            },
            {
                "pitch": 79,
                "velocity": 12,
                "duration": 0.2,
                "tempo": 120.0
            },
            {
                "pitch": 67,
                "velocity": 12,
                "duration": 0.2,
                "tempo": 120.0
            },
            {
                "pitch": 79,
                "velocity": 12,
                "duration": 0.2,
                "tempo": 120.0
            },
            {
                "pitch": 67,
                "velocity": 12,
                "duration": 0.1977,
                "tempo": 120.0
            },
            {
                "pitch": 79,
                "velocity": 12,
                "duration": 0.1977,
                "tempo": 120.0
            },
            {
                "pitch": 67,
                "velocity": 12,
                "duration": 0.2,
                "tempo": 120.0
            },
            {
                "pitch": 67,
                "velocity": 12,
                "duration": 0.0409,
                "tempo": 120.0
            },
            {
                "pitch": 78,
                "velocity": 12,
                "duration": 7.9682,
                "tempo": 120.0
            },
            {
                "pitch": 64,
                "velocity": 12,
                "duration": 1.5909,
                "tempo": 120.0
            },
            {
                "pitch": 66,
                "velocity": 12,
                "duration": 1.6,
                "tempo": 120.0
            },
            {
                "pitch": 61,
                "velocity": 12,
                "duration": 0.3932,
                "tempo": 120.0
            },
            {
                "pitch": 61,
                "velocity": 12,
                "duration": 0.3932,
                "tempo": 120.0
            },
            {
                "pitch": 61,
                "velocity": 12,
                "duration": 0.4,
                "tempo": 120.0
            },
            {
                "pitch": 71,
                "velocity": 12,
                "duration": 0.4091,
                "tempo": 120.0
            },
            {
                "pitch": 77,
                "velocity": 12,
                "duration": 17.7386,
                "tempo": 120.0
            },
            {
                "pitch": 63,
                "velocity": 12,
                "duration": 0.3909,
                "tempo": 120.0
            },
            {
                "pitch": 68,
                "velocity": 12,
                "duration": 0.6023,
                "tempo": 120.0
            },
            {
                "pitch": 78,
                "velocity": 12,
                "duration": 5.3864,
                "tempo": 120.0
            },
            {
                "pitch": 64,
                "velocity": 12,
                "duration": 0.6,
                "tempo": 120.0
            },
            {
                "pitch": 68,
                "velocity": 12,
                "duration": 0.3977,
                "tempo": 120.0
            },
            {
                "pitch": 78,
                "velocity": 12,
                "duration": 0.9977,
                "tempo": 120.0
            },
            {
                "pitch": 64,
                "velocity": 12,
                "duration": 1.1909,
                "tempo": 120.0
            },
            {
                "pitch": 61,
                "velocity": 12,
                "duration": 0.4023,
                "tempo": 120.0
            },
            {
                "pitch": 66,
                "velocity": 12,
                "duration": 1.2023,
                "tempo": 120.0
            },
            {
                "pitch": 66,
                "velocity": 12,
                "duration": 0.3977,
                "tempo": 120.0
            },
            {
                "pitch": 68,
                "velocity": 12,
                "duration": 1.5932,
                "tempo": 120.0
            },
            {
                "pitch": 79,
                "velocity": 12,
                "duration": 11.4114,
                "tempo": 120.0
            },
            {
                "pitch": 44,
                "velocity": 12,
                "duration": 7.9864,
                "tempo": 120.0
            },
            {
                "pitch": 66,
                "velocity": 12,
                "duration": 0.8,
                "tempo": 120.0
            },
            {
                "pitch": 59,
                "velocity": 12,
                "duration": 0.4023,
                "tempo": 120.0
            },
            {
                "pitch": 63,
                "velocity": 12,
                "duration": 0.4,
                "tempo": 120.0
            },
            {
                "pitch": 64,
                "velocity": 12,
                "duration": 1.5909,
                "tempo": 120.0
            },
            {
                "pitch": 66,
                "velocity": 12,
                "duration": 1.5909,
                "tempo": 120.0
            },
            {
                "pitch": 66,
                "velocity": 12,
                "duration": 1.5909,
                "tempo": 120.0
            },
            {
                "pitch": 68,
                "velocity": 12,
                "duration": 1.6045,
                "tempo": 120.0
            },
            {
                "pitch": 76,
                "velocity": 12,
                "duration": 57.3955,
                "tempo": 120.0
            },
            {
                "pitch": 73,
                "velocity": 12,
                "duration": 0.3977,
                "tempo": 120.0
            },
            {
                "pitch": 73,
                "velocity": 12,
                "duration": 0.4023,
                "tempo": 120.0
            },
            {
                "pitch": 78,
                "velocity": 12,
                "duration": 11.975,
                "tempo": 120.0
            },
            {
                "pitch": 66,
                "velocity": 12,
                "duration": 0.1977,
                "tempo": 120.0
            },
            {
                "pitch": 73,
                "velocity": 12,
                "duration": 0.5909,
                "tempo": 120.0
            },
            {
                "pitch": 76,
                "velocity": 12,
                "duration": 1.5886,
                "tempo": 120.0
            },
            {
                "pitch": 64,
                "velocity": 12,
                "duration": 1.6023,
                "tempo": 120.0
            },
            {
                "pitch": 66,
                "velocity": 12,
                "duration": 1.5932,
                "tempo": 120.0
            },
            {
                "pitch": 66,
                "velocity": 12,
                "duration": 1.5932,
                "tempo": 120.0
            },
            {
                "pitch": 68,
                "velocity": 12,
                "duration": 1.6,
                "tempo": 120.0
            },
            {
                "pitch": 77,
                "velocity": 12,
                "duration": 19.55,
                "tempo": 120.0
            },
            {
                "pitch": 63,
                "velocity": 12,
                "duration": 1.5932,
                "tempo": 120.0
            }
        ],
        "Synth Bass 1": [
            {
                "pitch": 36,
                "velocity": 1,
                "duration": 0.6068,
                "tempo": 120.0
            },
            {
                "pitch": 36,
                "velocity": 1,
                "duration": 0.2023,
                "tempo": 120.0
            },
            {
                "pitch": 0,
                "velocity": 0,
                "duration": 0.1909,
                "tempo": 0
            },
            {
                "pitch": 36,
                "velocity": 1,
                "duration": 0.1909,
                "tempo": 120.0
            },
            {
                "pitch": 39,
                "velocity": 1,
                "duration": 0.2091,
                "tempo": 120.0
            },
            {
                "pitch": 34,
                "velocity": 1,
                "duration": 0.2114,
                "tempo": 120.0
            },
            {
                "pitch": 36,
                "velocity": 1,
                "duration": 0.5818,
                "tempo": 120.0
            },
            {
                "pitch": 36,
                "velocity": 1,
                "duration": 0.1864,
                "tempo": 120.0
            },
            {
                "pitch": 0,
                "velocity": 0,
                "duration": 0.2,
                "tempo": 0
            },
            {
                "pitch": 36,
                "velocity": 1,
                "duration": 0.2023,
                "tempo": 120.0
            },
            {
                "pitch": 36,
                "velocity": 1,
                "duration": 0.1977,
                "tempo": 120.0
            },
            {
                "pitch": 36,
                "velocity": 1,
                "duration": 0.2,
                "tempo": 120.0
            },
            {
                "pitch": 34,
                "velocity": 1,
                "duration": 0.4205,
                "tempo": 120.0
            },
            {
                "pitch": 46,
                "velocity": 1,
                "duration": 0.0977,
                "tempo": 120.0
            },
            {
                "pitch": 0,
                "velocity": 0,
                "duration": 0.0977,
                "tempo": 0
            },
            {
                "pitch": 34,
                "velocity": 1,
                "duration": 0.0977,
                "tempo": 120.0
            },
            {
                "pitch": 0,
                "velocity": 0,
                "duration": 0.3023,
                "tempo": 0
            },
            {
                "pitch": 34,
                "velocity": 1,
                "duration": 0.2045,
                "tempo": 120.0
            },
            {
                "pitch": 38,
                "velocity": 1,
                "duration": 0.2023,
                "tempo": 120.0
            },
            {
                "pitch": 39,
                "velocity": 1,
                "duration": 0.2,
                "tempo": 120.0
            },
            {
                "pitch": 36,
                "velocity": 1,
                "duration": 0.3909,
                "tempo": 120.0
            },
            {
                "pitch": 36,
                "velocity": 1,
                "duration": 0.3909,
                "tempo": 120.0
            },
            {
                "pitch": 36,
                "velocity": 1,
                "duration": 0.4091,
                "tempo": 120.0
            },
            {
                "pitch": 36,
                "velocity": 1,
                "duration": 0.0977,
                "tempo": 120.0
            },
            {
                "pitch": 0,
                "velocity": 0,
                "duration": 0.0977,
                "tempo": 0
            },
            {
                "pitch": 36,
                "velocity": 1,
                "duration": 0.0977,
                "tempo": 120.0
            },
            {
                "pitch": 0,
                "velocity": 0,
                "duration": 0.0977,
                "tempo": 0
            },
            {
                "pitch": 36,
                "velocity": 1,
                "duration": 0.1,
                "tempo": 120.0
            },
            {
                "pitch": 0,
                "velocity": 0,
                "duration": 0.1,
                "tempo": 0
            },
            {
                "pitch": 36,
                "velocity": 1,
                "duration": 0.1,
                "tempo": 120.0
            },
            {
                "pitch": 0,
                "velocity": 0,
                "duration": 0.1023,
                "tempo": 0
            },
            {
                "pitch": 36,
                "velocity": 1,
                "duration": 0.1,
                "tempo": 120.0
            },
            {
                "pitch": 0,
                "velocity": 0,
                "duration": 0.1,
                "tempo": 0
            },
            {
                "pitch": 36,
                "velocity": 1,
                "duration": 0.1,
                "tempo": 120.0
            },
            {
                "pitch": 0,
                "velocity": 0,
                "duration": 0.1,
                "tempo": 0
            },
            {
                "pitch": 36,
                "velocity": 1,
                "duration": 0.1,
                "tempo": 120.0
            },
            {
                "pitch": 36,
                "velocity": 1,
                "duration": 0.1,
                "tempo": 120.0
            },
            {
                "pitch": 0,
                "velocity": 0,
                "duration": 0.1,
                "tempo": 0
            },
            {
                "pitch": 36,
                "velocity": 1,
                "duration": 0.1,
                "tempo": 120.0
            },
            {
                "pitch": 36,
                "velocity": 1,
                "duration": 0.1,
                "tempo": 120.0
            },
            {
                "pitch": 0,
                "velocity": 0,
                "duration": 0.1,
                "tempo": 0
            },
            {
                "pitch": 36,
                "velocity": 1,
                "duration": 0.1,
                "tempo": 120.0
            },
            {
                "pitch": 0,
                "velocity": 0,
                "duration": 0.1,
                "tempo": 0
            },
            {
                "pitch": 36,
                "velocity": 1,
                "duration": 0.0977,
                "tempo": 120.0
            },
            {
                "pitch": 0,
                "velocity": 0,
                "duration": 0.0977,
                "tempo": 0
            },
            {
                "pitch": 36,
                "velocity": 1,
                "duration": 0.0977,
                "tempo": 120.0
            },
            {
                "pitch": 48,
                "velocity": 1,
                "duration": 0.0977,
                "tempo": 120.0
            },
            {
                "pitch": 34,
                "velocity": 1,
                "duration": 0.1,
                "tempo": 120.0
            },
            {
                "pitch": 0,
                "velocity": 0,
                "duration": 0.1023,
                "tempo": 0
            },
            {
                "pitch": 34,
                "velocity": 1,
                "duration": 0.1,
                "tempo": 120.0
            },
            {
                "pitch": 0,
                "velocity": 0,
                "duration": 0.1,
                "tempo": 0
            },
            {
                "pitch": 34,
                "velocity": 1,
                "duration": 0.1,
                "tempo": 120.0
            },
            {
                "pitch": 34,
                "velocity": 1,
                "duration": 0.1,
                "tempo": 120.0
            },
            {
                "pitch": 0,
                "velocity": 0,
                "duration": 0.1023,
                "tempo": 0
            },
            {
                "pitch": 34,
                "velocity": 1,
                "duration": 0.1,
                "tempo": 120.0
            },
            {
                "pitch": 34,
                "velocity": 1,
                "duration": 0.1,
                "tempo": 120.0
            },
            {
                "pitch": 0,
                "velocity": 0,
                "duration": 0.0977,
                "tempo": 0
            },
            {
                "pitch": 34,
                "velocity": 1,
                "duration": 0.1,
                "tempo": 120.0
            },
            {
                "pitch": 0,
                "velocity": 0,
                "duration": 0.1,
                "tempo": 0
            },
            {
                "pitch": 34,
                "velocity": 1,
                "duration": 0.1,
                "tempo": 120.0
            },
            {
                "pitch": 0,
                "velocity": 0,
                "duration": 0.1023,
                "tempo": 0
            },
            {
                "pitch": 46,
                "velocity": 1,
                "duration": 0.1,
                "tempo": 120.0
            },
            {
                "pitch": 0,
                "velocity": 0,
                "duration": 0.1,
                "tempo": 0
            },
            {
                "pitch": 32,
                "velocity": 1,
                "duration": 0.1,
                "tempo": 120.0
            },
            {
                "pitch": 0,
                "velocity": 0,
                "duration": 0.1,
                "tempo": 0
            },
            {
                "pitch": 32,
                "velocity": 1,
                "duration": 0.1,
                "tempo": 120.0
            },
            {
                "pitch": 0,
                "velocity": 0,
                "duration": 0.1,
                "tempo": 0
            },
            {
                "pitch": 32,
                "velocity": 1,
                "duration": 0.1,
                "tempo": 120.0
            },
            {
                "pitch": 32,
                "velocity": 1,
                "duration": 0.1023,
                "tempo": 120.0
            },
            {
                "pitch": 0,
                "velocity": 0,
                "duration": 0.1,
                "tempo": 0
            },
            {
                "pitch": 44,
                "velocity": 1,
                "duration": 0.1,
                "tempo": 120.0
            },
            {
                "pitch": 34,
                "velocity": 1,
                "duration": 0.1,
                "tempo": 120.0
            },
            {
                "pitch": 0,
                "velocity": 0,
                "duration": 0.1,
                "tempo": 0
            },
            {
                "pitch": 34,
                "velocity": 1,
                "duration": 0.1,
                "tempo": 120.0
            },
            {
                "pitch": 0,
                "velocity": 0,
                "duration": 0.1,
                "tempo": 0
            },
            {
                "pitch": 34,
                "velocity": 1,
                "duration": 0.0977,
                "tempo": 120.0
            },
            {
                "pitch": 34,
                "velocity": 1,
                "duration": 0.0977,
                "tempo": 120.0
            },
            {
                "pitch": 0,
                "velocity": 0,
                "duration": 0.0977,
                "tempo": 0
            },
            {
                "pitch": 34,
                "velocity": 1,
                "duration": 0.0977,
                "tempo": 120.0
            },
            {
                "pitch": 36,
                "velocity": 1,
                "duration": 0.1023,
                "tempo": 120.0
            },
            {
                "pitch": 0,
                "velocity": 0,
                "duration": 0.1,
                "tempo": 0
            },
            {
                "pitch": 36,
                "velocity": 1,
                "duration": 0.1,
                "tempo": 120.0
            },
            {
                "pitch": 0,
                "velocity": 0,
                "duration": 0.1,
                "tempo": 0
            },
            {
                "pitch": 48,
                "velocity": 1,
                "duration": 0.1,
                "tempo": 120.0
            },
            {
                "pitch": 36,
                "velocity": 1,
                "duration": 0.1,
                "tempo": 120.0
            },
            {
                "pitch": 0,
                "velocity": 0,
                "duration": 0.1023,
                "tempo": 0
            },
            {
                "pitch": 36,
                "velocity": 1,
                "duration": 0.1,
                "tempo": 120.0
            },
            {
                "pitch": 36,
                "velocity": 1,
                "duration": 0.1,
                "tempo": 120.0
            },
            {
                "pitch": 48,
                "velocity": 1,
                "duration": 0.1,
                "tempo": 120.0
            },
            {
                "pitch": 36,
                "velocity": 1,
                "duration": 0.1,
                "tempo": 120.0
            },
            {
                "pitch": 0,
                "velocity": 0,
                "duration": 0.1,
                "tempo": 0
            },
            {
                "pitch": 48,
                "velocity": 1,
                "duration": 0.1,
                "tempo": 120.0
            },
            {
                "pitch": 0,
                "velocity": 0,
                "duration": 0.1023,
                "tempo": 0
            },
            {
                "pitch": 36,
                "velocity": 1,
                "duration": 0.1,
                "tempo": 120.0
            },
            {
                "pitch": 0,
                "velocity": 0,
                "duration": 0.1,
                "tempo": 0
            },
            {
                "pitch": 32,
                "velocity": 1,
                "duration": 0.1,
                "tempo": 120.0
            },
            {
                "pitch": 0,
                "velocity": 0,
                "duration": 0.1,
                "tempo": 0
            },
            {
                "pitch": 32,
                "velocity": 1,
                "duration": 0.1,
                "tempo": 120.0
            },
            {
                "pitch": 0,
                "velocity": 0,
                "duration": 0.1,
                "tempo": 0
            },
            {
                "pitch": 32,
                "velocity": 1,
                "duration": 0.1,
                "tempo": 120.0
            },
            {
                "pitch": 32,
                "velocity": 1,
                "duration": 0.1,
                "tempo": 120.0
            },
            {
                "pitch": 0,
                "velocity": 0,
                "duration": 0.1,
                "tempo": 0
            },
            {
                "pitch": 32,
                "velocity": 1,
                "duration": 0.1,
                "tempo": 120.0
            },
            {
                "pitch": 32,
                "velocity": 1,
                "duration": 0.0977,
                "tempo": 120.0
            },
            {
                "pitch": 0,
                "velocity": 0,
                "duration": 0.0977,
                "tempo": 0
            },
            {
                "pitch": 32,
                "velocity": 1,
                "duration": 0.0977,
                "tempo": 120.0
            },
            {
                "pitch": 0,
                "velocity": 0,
                "duration": 0.0977,
                "tempo": 0
            },
            {
                "pitch": 32,
                "velocity": 1,
                "duration": 0.1,
                "tempo": 120.0
            },
            {
                "pitch": 0,
                "velocity": 0,
                "duration": 0.1,
                "tempo": 0
            },
            {
                "pitch": 32,
                "velocity": 1,
                "duration": 0.1,
                "tempo": 120.0
            },
            {
                "pitch": 44,
                "velocity": 1,
                "duration": 0.1023,
                "tempo": 120.0
            },
            {
                "pitch": 34,
                "velocity": 1,
                "duration": 0.0977,
                "tempo": 120.0
            },
            {
                "pitch": 0,
                "velocity": 0,
                "duration": 0.1,
                "tempo": 0
            },
            {
                "pitch": 34,
                "velocity": 1,
                "duration": 0.1,
                "tempo": 120.0
            },
            {
                "pitch": 0,
                "velocity": 0,
                "duration": 0.1,
                "tempo": 0
            },
            {
                "pitch": 34,
                "velocity": 1,
                "duration": 0.1,
                "tempo": 120.0
            },
            {
                "pitch": 34,
                "velocity": 1,
                "duration": 0.1023,
                "tempo": 120.0
            },
            {
                "pitch": 0,
                "velocity": 0,
                "duration": 0.1,
                "tempo": 0
            },
            {
                "pitch": 34,
                "velocity": 1,
                "duration": 0.1,
                "tempo": 120.0
            },
            {
                "pitch": 34,
                "velocity": 1,
                "duration": 0.1,
                "tempo": 120.0
            },
            {
                "pitch": 0,
                "velocity": 0,
                "duration": 0.1,
                "tempo": 0
            },
            {
                "pitch": 34,
                "velocity": 1,
                "duration": 0.1,
                "tempo": 120.0
            },
            {
                "pitch": 0,
                "velocity": 0,
                "duration": 0.1,
                "tempo": 0
            },
            {
                "pitch": 34,
                "velocity": 1,
                "duration": 0.1,
                "tempo": 120.0
            },
            {
                "pitch": 46,
                "velocity": 1,
                "duration": 1.5023,
                "tempo": 120.0
            },
            {
                "pitch": 46,
                "velocity": 1,
                "duration": 0.1,
                "tempo": 120.0
            },
            {
                "pitch": 0,
                "velocity": 0,
                "duration": 0.1,
                "tempo": 0
            },
            {
                "pitch": 36,
                "velocity": 1,
                "duration": 0.1,
                "tempo": 120.0
            },
            {
                "pitch": 0,
                "velocity": 0,
                "duration": 0.1,
                "tempo": 0
            },
            {
                "pitch": 36,
                "velocity": 1,
                "duration": 0.1023,
                "tempo": 120.0
            },
            {
                "pitch": 0,
                "velocity": 0,
                "duration": 0.1,
                "tempo": 0
            },
            {
                "pitch": 36,
                "velocity": 1,
                "duration": 0.1,
                "tempo": 120.0
            },
            {
                "pitch": 36,
                "velocity": 1,
                "duration": 0.0977,
                "tempo": 120.0
            },
            {
                "pitch": 0,
                "velocity": 0,
                "duration": 0.1,
                "tempo": 0
            },
            {
                "pitch": 48,
                "velocity": 1,
                "duration": 0.1,
                "tempo": 120.0
            },
            {
                "pitch": 36,
                "velocity": 1,
                "duration": 0.0977,
                "tempo": 120.0
            },
            {
                "pitch": 0,
                "velocity": 0,
                "duration": 0.0977,
                "tempo": 0
            },
            {
                "pitch": 36,
                "velocity": 1,
                "duration": 0.0977,
                "tempo": 120.0
            },
            {
                "pitch": 0,
                "velocity": 0,
                "duration": 0.0977,
                "tempo": 0
            },
            {
                "pitch": 36,
                "velocity": 1,
                "duration": 0.1,
                "tempo": 120.0
            },
            {
                "pitch": 36,
                "velocity": 1,
                "duration": 0.1,
                "tempo": 120.0
            },
            {
                "pitch": 0,
                "velocity": 0,
                "duration": 0.1,
                "tempo": 0
            },
            {
                "pitch": 36,
                "velocity": 1,
                "duration": 0.0977,
                "tempo": 120.0
            },
            {
                "pitch": 34,
                "velocity": 1,
                "duration": 0.1023,
                "tempo": 120.0
            },
            {
                "pitch": 0,
                "velocity": 0,
                "duration": 0.1,
                "tempo": 0
            },
            {
                "pitch": 34,
                "velocity": 1,
                "duration": 0.1,
                "tempo": 120.0
            },
            {
                "pitch": 0,
                "velocity": 0,
                "duration": 0.1,
                "tempo": 0
            },
            {
                "pitch": 46,
                "velocity": 1,
                "duration": 0.1,
                "tempo": 120.0
            },
            {
                "pitch": 34,
                "velocity": 1,
                "duration": 0.1,
                "tempo": 120.0
            },
            {
                "pitch": 0,
                "velocity": 0,
                "duration": 0.1,
                "tempo": 0
            },
            {
                "pitch": 34,
                "velocity": 1,
                "duration": 0.0977,
                "tempo": 120.0
            },
            {
                "pitch": 34,
                "velocity": 1,
                "duration": 0.1023,
                "tempo": 120.0
            },
            {
                "pitch": 46,
                "velocity": 1,
                "duration": 0.1,
                "tempo": 120.0
            },
            {
                "pitch": 34,
                "velocity": 1,
                "duration": 0.1,
                "tempo": 120.0
            },
            {
                "pitch": 0,
                "velocity": 0,
                "duration": 0.1,
                "tempo": 0
            },
            {
                "pitch": 46,
                "velocity": 1,
                "duration": 0.1,
                "tempo": 120.0
            },
            {
                "pitch": 0,
                "velocity": 0,
                "duration": 0.1,
                "tempo": 0
            },
            {
                "pitch": 34,
                "velocity": 1,
                "duration": 0.1,
                "tempo": 120.0
            },
            {
                "pitch": 0,
                "velocity": 0,
                "duration": 0.1,
                "tempo": 0
            },
            {
                "pitch": 36,
                "velocity": 1,
                "duration": 0.0977,
                "tempo": 120.0
            },
            {
                "pitch": 0,
                "velocity": 0,
                "duration": 0.1,
                "tempo": 0
            },
            {
                "pitch": 36,
                "velocity": 1,
                "duration": 0.1,
                "tempo": 120.0
            },
            {
                "pitch": 0,
                "velocity": 0,
                "duration": 0.1,
                "tempo": 0
            },
            {
                "pitch": 36,
                "velocity": 1,
                "duration": 0.1,
                "tempo": 120.0
            },
            {
                "pitch": 36,
                "velocity": 1,
                "duration": 0.1,
                "tempo": 120.0
            },
            {
                "pitch": 0,
                "velocity": 0,
                "duration": 0.1023,
                "tempo": 0
            },
            {
                "pitch": 36,
                "velocity": 1,
                "duration": 0.1,
                "tempo": 120.0
            },
            {
                "pitch": 36,
                "velocity": 1,
                "duration": 0.0977,
                "tempo": 120.0
            },
            {
                "pitch": 0,
                "velocity": 0,
                "duration": 0.0977,
                "tempo": 0
            },
            {
                "pitch": 36,
                "velocity": 1,
                "duration": 0.0977,
                "tempo": 120.0
            },
            {
                "pitch": 0,
                "velocity": 0,
                "duration": 0.0977,
                "tempo": 0
            },
            {
                "pitch": 36,
                "velocity": 1,
                "duration": 0.1,
                "tempo": 120.0
            },
            {
                "pitch": 0,
                "velocity": 0,
                "duration": 0.1,
                "tempo": 0
            },
            {
                "pitch": 36,
                "velocity": 1,
                "duration": 0.0977,
                "tempo": 120.0
            },
            {
                "pitch": 27,
                "velocity": 1,
                "duration": 12.7795,
                "tempo": 120.0
            },
            {
                "pitch": 48,
                "velocity": 1,
                "duration": 0.1,
                "tempo": 120.0
            },
            {
                "pitch": 34,
                "velocity": 1,
                "duration": 0.1,
                "tempo": 120.0
            },
            {
                "pitch": 0,
                "velocity": 0,
                "duration": 0.1,
                "tempo": 0
            },
            {
                "pitch": 34,
                "velocity": 1,
                "duration": 0.1,
                "tempo": 120.0
            },
            {
                "pitch": 0,
                "velocity": 0,
                "duration": 0.1,
                "tempo": 0
            },
            {
                "pitch": 34,
                "velocity": 1,
                "duration": 0.1,
                "tempo": 120.0
            },
            {
                "pitch": 34,
                "velocity": 1,
                "duration": 0.1,
                "tempo": 120.0
            },
            {
                "pitch": 0,
                "velocity": 0,
                "duration": 0.1,
                "tempo": 0
            },
            {
                "pitch": 34,
                "velocity": 1,
                "duration": 0.1,
                "tempo": 120.0
            },
            {
                "pitch": 34,
                "velocity": 1,
                "duration": 0.1,
                "tempo": 120.0
            },
            {
                "pitch": 0,
                "velocity": 0,
                "duration": 0.1,
                "tempo": 0
            },
            {
                "pitch": 34,
                "velocity": 1,
                "duration": 0.1,
                "tempo": 120.0
            },
            {
                "pitch": 0,
                "velocity": 0,
                "duration": 0.1,
                "tempo": 0
            },
            {
                "pitch": 34,
                "velocity": 1,
                "duration": 0.1,
                "tempo": 120.0
            },
            {
                "pitch": 0,
                "velocity": 0,
                "duration": 0.1,
                "tempo": 0
            },
            {
                "pitch": 46,
                "velocity": 1,
                "duration": 0.1,
                "tempo": 120.0
            },
            {
                "pitch": 0,
                "velocity": 0,
                "duration": 0.1,
                "tempo": 0
            },
            {
                "pitch": 36,
                "velocity": 1,
                "duration": 0.1,
                "tempo": 120.0
            },
            {
                "pitch": 0,
                "velocity": 0,
                "duration": 0.1,
                "tempo": 0
            },
            {
                "pitch": 36,
                "velocity": 1,
                "duration": 0.1,
                "tempo": 120.0
            },
            {
                "pitch": 0,
                "velocity": 0,
                "duration": 0.1,
                "tempo": 0
            },
            {
                "pitch": 48,
                "velocity": 1,
                "duration": 0.1,
                "tempo": 120.0
            },
            {
                "pitch": 36,
                "velocity": 1,
                "duration": 0.1,
                "tempo": 120.0
            },
            {
                "pitch": 0,
                "velocity": 0,
                "duration": 0.0977,
                "tempo": 0
            },
            {
                "pitch": 36,
                "velocity": 1,
                "duration": 0.1,
                "tempo": 120.0
            },
            {
                "pitch": 36,
                "velocity": 1,
                "duration": 0.0977,
                "tempo": 120.0
            },
            {
                "pitch": 0,
                "velocity": 0,
                "duration": 0.0977,
                "tempo": 0
            },
            {
                "pitch": 48,
                "velocity": 1,
                "duration": 0.0977,
                "tempo": 120.0
            },
            {
                "pitch": 0,
                "velocity": 0,
                "duration": 0.0977,
                "tempo": 0
            },
            {
                "pitch": 36,
                "velocity": 1,
                "duration": 0.1,
                "tempo": 120.0
            },
            {
                "pitch": 36,
                "velocity": 1,
                "duration": 0.1,
                "tempo": 120.0
            },
            {
                "pitch": 0,
                "velocity": 0,
                "duration": 0.1023,
                "tempo": 0
            },
            {
                "pitch": 36,
                "velocity": 1,
                "duration": 0.1,
                "tempo": 120.0
            },
            {
                "pitch": 36,
                "velocity": 1,
                "duration": 0.0977,
                "tempo": 120.0
            },
            {
                "pitch": 0,
                "velocity": 0,
                "duration": 0.1,
                "tempo": 0
            },
            {
                "pitch": 36,
                "velocity": 1,
                "duration": 0.1,
                "tempo": 120.0
            },
            {
                "pitch": 0,
                "velocity": 0,
                "duration": 0.1,
                "tempo": 0
            },
            {
                "pitch": 48,
                "velocity": 1,
                "duration": 0.1,
                "tempo": 120.0
            },
            {
                "pitch": 36,
                "velocity": 1,
                "duration": 0.1,
                "tempo": 120.0
            },
            {
                "pitch": 0,
                "velocity": 0,
                "duration": 0.1023,
                "tempo": 0
            },
            {
                "pitch": 36,
                "velocity": 1,
                "duration": 0.1,
                "tempo": 120.0
            },
            {
                "pitch": 36,
                "velocity": 1,
                "duration": 0.1,
                "tempo": 120.0
            },
            {
                "pitch": 48,
                "velocity": 1,
                "duration": 0.0977,
                "tempo": 120.0
            },
            {
                "pitch": 36,
                "velocity": 1,
                "duration": 0.1,
                "tempo": 120.0
            },
            {
                "pitch": 0,
                "velocity": 0,
                "duration": 0.1,
                "tempo": 0
            },
            {
                "pitch": 48,
                "velocity": 1,
                "duration": 0.1,
                "tempo": 120.0
            },
            {
                "pitch": 0,
                "velocity": 0,
                "duration": 0.1,
                "tempo": 0
            },
            {
                "pitch": 36,
                "velocity": 1,
                "duration": 0.1,
                "tempo": 120.0
            },
            {
                "pitch": 0,
                "velocity": 0,
                "duration": 0.1,
                "tempo": 0
            },
            {
                "pitch": 32,
                "velocity": 1,
                "duration": 0.1,
                "tempo": 120.0
            },
            {
                "pitch": 0,
                "velocity": 0,
                "duration": 0.1,
                "tempo": 0
            },
            {
                "pitch": 32,
                "velocity": 1,
                "duration": 0.1,
                "tempo": 120.0
            },
            {
                "pitch": 0,
                "velocity": 0,
                "duration": 0.1,
                "tempo": 0
            },
            {
                "pitch": 32,
                "velocity": 1,
                "duration": 0.0977,
                "tempo": 120.0
            },
            {
                "pitch": 32,
                "velocity": 1,
                "duration": 0.0977,
                "tempo": 120.0
            },
            {
                "pitch": 0,
                "velocity": 0,
                "duration": 0.0977,
                "tempo": 0
            },
            {
                "pitch": 32,
                "velocity": 1,
                "duration": 0.0977,
                "tempo": 120.0
            },
            {
                "pitch": 32,
                "velocity": 1,
                "duration": 0.1,
                "tempo": 120.0
            },
            {
                "pitch": 0,
                "velocity": 0,
                "duration": 0.1,
                "tempo": 0
            },
            {
                "pitch": 32,
                "velocity": 1,
                "duration": 0.1,
                "tempo": 120.0
            },
            {
                "pitch": 0,
                "velocity": 0,
                "duration": 0.1,
                "tempo": 0
            },
            {
                "pitch": 32,
                "velocity": 1,
                "duration": 0.1,
                "tempo": 120.0
            },
            {
                "pitch": 0,
                "velocity": 0,
                "duration": 0.1,
                "tempo": 0
            },
            {
                "pitch": 32,
                "velocity": 1,
                "duration": 0.0977,
                "tempo": 120.0
            },
            {
                "pitch": 44,
                "velocity": 1,
                "duration": 0.1,
                "tempo": 120.0
            },
            {
                "pitch": 34,
                "velocity": 1,
                "duration": 0.1,
                "tempo": 120.0
            },
            {
                "pitch": 0,
                "velocity": 0,
                "duration": 0.1,
                "tempo": 0
            },
            {
                "pitch": 34,
                "velocity": 1,
                "duration": 0.1023,
                "tempo": 120.0
            },
            {
                "pitch": 0,
                "velocity": 0,
                "duration": 0.1,
                "tempo": 0
            },
            {
                "pitch": 34,
                "velocity": 1,
                "duration": 0.1,
                "tempo": 120.0
            },
            {
                "pitch": 34,
                "velocity": 1,
                "duration": 0.1,
                "tempo": 120.0
            },
            {
                "pitch": 0,
                "velocity": 0,
                "duration": 0.0977,
                "tempo": 0
            },
            {
                "pitch": 34,
                "velocity": 1,
                "duration": 0.1,
                "tempo": 120.0
            },
            {
                "pitch": 34,
                "velocity": 1,
                "duration": 0.1,
                "tempo": 120.0
            },
            {
                "pitch": 0,
                "velocity": 0,
                "duration": 0.1023,
                "tempo": 0
            },
            {
                "pitch": 34,
                "velocity": 1,
                "duration": 0.1,
                "tempo": 120.0
            },
            {
                "pitch": 46,
                "velocity": 1,
                "duration": 1.2023,
                "tempo": 120.0
            },
            {
                "pitch": 46,
                "velocity": 1,
                "duration": 0.1,
                "tempo": 120.0
            },
            {
                "pitch": 0,
                "velocity": 0,
                "duration": 0.1,
                "tempo": 0
            },
            {
                "pitch": 34,
                "velocity": 1,
                "duration": 0.1,
                "tempo": 120.0
            },
            {
                "pitch": 34,
                "velocity": 1,
                "duration": 0.0977,
                "tempo": 120.0
            },
            {
                "pitch": 0,
                "velocity": 0,
                "duration": 0.1,
                "tempo": 0
            },
            {
                "pitch": 36,
                "velocity": 1,
                "duration": 0.1,
                "tempo": 120.0
            },
            {
                "pitch": 0,
                "velocity": 0,
                "duration": 0.1,
                "tempo": 0
            },
            {
                "pitch": 36,
                "velocity": 1,
                "duration": 0.1,
                "tempo": 120.0
            },
            {
                "pitch": 0,
                "velocity": 0,
                "duration": 0.1,
                "tempo": 0
            },
            {
                "pitch": 48,
                "velocity": 1,
                "duration": 0.1,
                "tempo": 120.0
            },
            {
                "pitch": 36,
                "velocity": 1,
                "duration": 0.1,
                "tempo": 120.0
            },
            {
                "pitch": 0,
                "velocity": 0,
                "duration": 0.1,
                "tempo": 0
            },
            {
                "pitch": 36,
                "velocity": 1,
                "duration": 0.1,
                "tempo": 120.0
            },
            {
                "pitch": 36,
                "velocity": 1,
                "duration": 0.1,
                "tempo": 120.0
            },
            {
                "pitch": 0,
                "velocity": 0,
                "duration": 0.1,
                "tempo": 0
            },
            {
                "pitch": 48,
                "velocity": 1,
                "duration": 0.1,
                "tempo": 120.0
            },
            {
                "pitch": 0,
                "velocity": 0,
                "duration": 0.1,
                "tempo": 0
            },
            {
                "pitch": 36,
                "velocity": 1,
                "duration": 0.0977,
                "tempo": 120.0
            },
            {
                "pitch": 36,
                "velocity": 1,
                "duration": 0.0977,
                "tempo": 120.0
            },
            {
                "pitch": 0,
                "velocity": 0,
                "duration": 0.0977,
                "tempo": 0
            },
            {
                "pitch": 36,
                "velocity": 1,
                "duration": 0.0977,
                "tempo": 120.0
            },
            {
                "pitch": 34,
                "velocity": 1,
                "duration": 0.0977,
                "tempo": 120.0
            },
            {
                "pitch": 0,
                "velocity": 0,
                "duration": 0.1,
                "tempo": 0
            },
            {
                "pitch": 34,
                "velocity": 1,
                "duration": 0.1,
                "tempo": 120.0
            },
            {
                "pitch": 0,
                "velocity": 0,
                "duration": 0.1,
                "tempo": 0
            },
            {
                "pitch": 46,
                "velocity": 1,
                "duration": 0.1,
                "tempo": 120.0
            },
            {
                "pitch": 34,
                "velocity": 1,
                "duration": 0.1023,
                "tempo": 120.0
            },
            {
                "pitch": 0,
                "velocity": 0,
                "duration": 0.1,
                "tempo": 0
            },
            {
                "pitch": 34,
                "velocity": 1,
                "duration": 0.1,
                "tempo": 120.0
            },
            {
                "pitch": 34,
                "velocity": 1,
                "duration": 0.0977,
                "tempo": 120.0
            },
            {
                "pitch": 46,
                "velocity": 1,
                "duration": 0.0977,
                "tempo": 120.0
            },
            {
                "pitch": 34,
                "velocity": 1,
                "duration": 0.0977,
                "tempo": 120.0
            },
            {
                "pitch": 0,
                "velocity": 0,
                "duration": 0.0977,
                "tempo": 0
            },
            {
                "pitch": 46,
                "velocity": 1,
                "duration": 0.1,
                "tempo": 120.0
            },
            {
                "pitch": 0,
                "velocity": 0,
                "duration": 0.1,
                "tempo": 0
            },
            {
                "pitch": 36,
                "velocity": 1,
                "duration": 0.0977,
                "tempo": 120.0
            },
            {
                "pitch": 0,
                "velocity": 0,
                "duration": 0.1,
                "tempo": 0
            },
            {
                "pitch": 38,
                "velocity": 1,
                "duration": 0.1023,
                "tempo": 120.0
            },
            {
                "pitch": 0,
                "velocity": 0,
                "duration": 0.1023,
                "tempo": 0
            },
            {
                "pitch": 38,
                "velocity": 1,
                "duration": 0.1023,
                "tempo": 120.0
            },
            {
                "pitch": 0,
                "velocity": 0,
                "duration": 0.1045,
                "tempo": 0
            },
            {
                "pitch": 38,
                "velocity": 1,
                "duration": 0.0977,
                "tempo": 120.0
            },
            {
                "pitch": 38,
                "velocity": 1,
                "duration": 0.1,
                "tempo": 120.0
            },
            {
                "pitch": 0,
                "velocity": 0,
                "duration": 0.1,
                "tempo": 0
            },
            {
                "pitch": 38,
                "velocity": 1,
                "duration": 0.1,
                "tempo": 120.0
            },
            {
                "pitch": 38,
                "velocity": 1,
                "duration": 0.0977,
                "tempo": 120.0
            },
            {
                "pitch": 0,
                "velocity": 0,
                "duration": 0.0977,
                "tempo": 0
            },
            {
                "pitch": 38,
                "velocity": 1,
                "duration": 0.0977,
                "tempo": 120.0
            },
            {
                "pitch": 0,
                "velocity": 0,
                "duration": 0.0977,
                "tempo": 0
            },
            {
                "pitch": 38,
                "velocity": 1,
                "duration": 0.1,
                "tempo": 120.0
            },
            {
                "pitch": 0,
                "velocity": 0,
                "duration": 0.1,
                "tempo": 0
            },
            {
                "pitch": 38,
                "velocity": 1,
                "duration": 0.1,
                "tempo": 120.0
            },
            {
                "pitch": 50,
                "velocity": 1,
                "duration": 0.0977,
                "tempo": 120.0
            },
            {
                "pitch": 36,
                "velocity": 1,
                "duration": 0.1,
                "tempo": 120.0
            },
            {
                "pitch": 0,
                "velocity": 0,
                "duration": 0.1023,
                "tempo": 0
            },
            {
                "pitch": 36,
                "velocity": 1,
                "duration": 0.1,
                "tempo": 120.0
            },
            {
                "pitch": 0,
                "velocity": 0,
                "duration": 0.1,
                "tempo": 0
            },
            {
                "pitch": 36,
                "velocity": 1,
                "duration": 0.1,
                "tempo": 120.0
            },
            {
                "pitch": 36,
                "velocity": 1,
                "duration": 0.1,
                "tempo": 120.0
            },
            {
                "pitch": 0,
                "velocity": 0,
                "duration": 0.1,
                "tempo": 0
            },
            {
                "pitch": 36,
                "velocity": 1,
                "duration": 0.1,
                "tempo": 120.0
            },
            {
                "pitch": 36,
                "velocity": 1,
                "duration": 0.0977,
                "tempo": 120.0
            },
            {
                "pitch": 0,
                "velocity": 0,
                "duration": 0.1,
                "tempo": 0
            },
            {
                "pitch": 36,
                "velocity": 1,
                "duration": 0.1,
                "tempo": 120.0
            },
            {
                "pitch": 0,
                "velocity": 0,
                "duration": 0.1,
                "tempo": 0
            },
            {
                "pitch": 36,
                "velocity": 1,
                "duration": 0.1,
                "tempo": 120.0
            },
            {
                "pitch": 48,
                "velocity": 1,
                "duration": 1.5,
                "tempo": 120.0
            },
            {
                "pitch": 48,
                "velocity": 1,
                "duration": 0.1,
                "tempo": 120.0
            },
            {
                "pitch": 0,
                "velocity": 0,
                "duration": 0.0977,
                "tempo": 0
            },
            {
                "pitch": 34,
                "velocity": 1,
                "duration": 0.1,
                "tempo": 120.0
            },
            {
                "pitch": 0,
                "velocity": 0,
                "duration": 0.1,
                "tempo": 0
            },
            {
                "pitch": 34,
                "velocity": 1,
                "duration": 0.1,
                "tempo": 120.0
            },
            {
                "pitch": 0,
                "velocity": 0,
                "duration": 0.1,
                "tempo": 0
            },
            {
                "pitch": 34,
                "velocity": 1,
                "duration": 0.0977,
                "tempo": 120.0
            },
            {
                "pitch": 34,
                "velocity": 1,
                "duration": 0.0977,
                "tempo": 120.0
            },
            {
                "pitch": 0,
                "velocity": 0,
                "duration": 0.0977,
                "tempo": 0
            },
            {
                "pitch": 46,
                "velocity": 1,
                "duration": 0.0977,
                "tempo": 120.0
            },
            {
                "pitch": 36,
                "velocity": 1,
                "duration": 0.1,
                "tempo": 120.0
            },
            {
                "pitch": 0,
                "velocity": 0,
                "duration": 0.0977,
                "tempo": 0
            },
            {
                "pitch": 36,
                "velocity": 1,
                "duration": 0.1,
                "tempo": 120.0
            },
            {
                "pitch": 0,
                "velocity": 0,
                "duration": 0.1,
                "tempo": 0
            },
            {
                "pitch": 36,
                "velocity": 1,
                "duration": 0.1,
                "tempo": 120.0
            },
            {
                "pitch": 36,
                "velocity": 1,
                "duration": 0.1023,
                "tempo": 120.0
            },
            {
                "pitch": 0,
                "velocity": 0,
                "duration": 0.1,
                "tempo": 0
            },
            {
                "pitch": 36,
                "velocity": 1,
                "duration": 0.1,
                "tempo": 120.0
            },
            {
                "pitch": 38,
                "velocity": 1,
                "duration": 0.1,
                "tempo": 120.0
            },
            {
                "pitch": 0,
                "velocity": 0,
                "duration": 0.1,
                "tempo": 0
            },
            {
                "pitch": 38,
                "velocity": 1,
                "duration": 0.0977,
                "tempo": 120.0
            },
            {
                "pitch": 0,
                "velocity": 0,
                "duration": 0.1,
                "tempo": 0
            },
            {
                "pitch": 50,
                "velocity": 1,
                "duration": 0.1,
                "tempo": 120.0
            },
            {
                "pitch": 38,
                "velocity": 1,
                "duration": 0.1,
                "tempo": 120.0
            },
            {
                "pitch": 0,
                "velocity": 0,
                "duration": 0.1,
                "tempo": 0
            },
            {
                "pitch": 38,
                "velocity": 1,
                "duration": 0.1,
                "tempo": 120.0
            },
            {
                "pitch": 38,
                "velocity": 1,
                "duration": 0.1,
                "tempo": 120.0
            },
            {
                "pitch": 50,
                "velocity": 1,
                "duration": 0.1,
                "tempo": 120.0
            },
            {
                "pitch": 38,
                "velocity": 1,
                "duration": 0.0977,
                "tempo": 120.0
            },
            {
                "pitch": 0,
                "velocity": 0,
                "duration": 0.1,
                "tempo": 0
            },
            {
                "pitch": 50,
                "velocity": 1,
                "duration": 0.1,
                "tempo": 120.0
            },
            {
                "pitch": 0,
                "velocity": 0,
                "duration": 0.1,
                "tempo": 0
            },
            {
                "pitch": 38,
                "velocity": 1,
                "duration": 0.1,
                "tempo": 120.0
            },
            {
                "pitch": 0,
                "velocity": 0,
                "duration": 0.0977,
                "tempo": 0
            },
            {
                "pitch": 34,
                "velocity": 1,
                "duration": 0.1023,
                "tempo": 120.0
            },
            {
                "pitch": 0,
                "velocity": 0,
                "duration": 0.1,
                "tempo": 0
            },
            {
                "pitch": 34,
                "velocity": 1,
                "duration": 0.1,
                "tempo": 120.0
            },
            {
                "pitch": 0,
                "velocity": 0,
                "duration": 0.1,
                "tempo": 0
            },
            {
                "pitch": 34,
                "velocity": 1,
                "duration": 0.1,
                "tempo": 120.0
            },
            {
                "pitch": 34,
                "velocity": 1,
                "duration": 0.1,
                "tempo": 120.0
            },
            {
                "pitch": 0,
                "velocity": 0,
                "duration": 0.1,
                "tempo": 0
            },
            {
                "pitch": 34,
                "velocity": 1,
                "duration": 0.1,
                "tempo": 120.0
            },
            {
                "pitch": 34,
                "velocity": 1,
                "duration": 0.0977,
                "tempo": 120.0
            },
            {
                "pitch": 0,
                "velocity": 0,
                "duration": 0.0977,
                "tempo": 0
            },
            {
                "pitch": 34,
                "velocity": 1,
                "duration": 0.0977,
                "tempo": 120.0
            },
            {
                "pitch": 0,
                "velocity": 0,
                "duration": 0.0977,
                "tempo": 0
            },
            {
                "pitch": 34,
                "velocity": 1,
                "duration": 0.1,
                "tempo": 120.0
            },
            {
                "pitch": 0,
                "velocity": 0,
                "duration": 0.1,
                "tempo": 0
            },
            {
                "pitch": 34,
                "velocity": 1,
                "duration": 0.0977,
                "tempo": 120.0
            },
            {
                "pitch": 46,
                "velocity": 1,
                "duration": 0.1,
                "tempo": 120.0
            },
            {
                "pitch": 36,
                "velocity": 1,
                "duration": 0.1,
                "tempo": 120.0
            },
            {
                "pitch": 0,
                "velocity": 0,
                "duration": 0.1,
                "tempo": 0
            },
            {
                "pitch": 36,
                "velocity": 1,
                "duration": 0.1,
                "tempo": 120.0
            },
            {
                "pitch": 0,
                "velocity": 0,
                "duration": 0.1,
                "tempo": 0
            },
            {
                "pitch": 36,
                "velocity": 1,
                "duration": 0.1,
                "tempo": 120.0
            },
            {
                "pitch": 36,
                "velocity": 1,
                "duration": 0.0977,
                "tempo": 120.0
            },
            {
                "pitch": 0,
                "velocity": 0,
                "duration": 0.1,
                "tempo": 0
            },
            {
                "pitch": 36,
                "velocity": 1,
                "duration": 0.1,
                "tempo": 120.0
            },
            {
                "pitch": 36,
                "velocity": 1,
                "duration": 0.1,
                "tempo": 120.0
            },
            {
                "pitch": 0,
                "velocity": 0,
                "duration": 0.1,
                "tempo": 0
            },
            {
                "pitch": 36,
                "velocity": 1,
                "duration": 0.1023,
                "tempo": 120.0
            },
            {
                "pitch": 0,
                "velocity": 0,
                "duration": 0.1,
                "tempo": 0
            },
            {
                "pitch": 36,
                "velocity": 1,
                "duration": 0.1,
                "tempo": 120.0
            },
            {
                "pitch": 0,
                "velocity": 0,
                "duration": 0.0977,
                "tempo": 0
            },
            {
                "pitch": 48,
                "velocity": 1,
                "duration": 0.1,
                "tempo": 120.0
            },
            {
                "pitch": 0,
                "velocity": 0,
                "duration": 0.1,
                "tempo": 0
            },
            {
                "pitch": 38,
                "velocity": 1,
                "duration": 0.0977,
                "tempo": 120.0
            },
            {
                "pitch": 0,
                "velocity": 0,
                "duration": 0.0977,
                "tempo": 0
            },
            {
                "pitch": 38,
                "velocity": 1,
                "duration": 0.0977,
                "tempo": 120.0
            },
            {
                "pitch": 0,
                "velocity": 0,
                "duration": 0.0977,
                "tempo": 0
            },
            {
                "pitch": 38,
                "velocity": 1,
                "duration": 0.1,
                "tempo": 120.0
            },
            {
                "pitch": 38,
                "velocity": 1,
                "duration": 0.1,
                "tempo": 120.0
            },
            {
                "pitch": 0,
                "velocity": 0,
                "duration": 0.1,
                "tempo": 0
            },
            {
                "pitch": 50,
                "velocity": 1,
                "duration": 0.1,
                "tempo": 120.0
            },
            {
                "pitch": 38,
                "velocity": 1,
                "duration": 0.0977,
                "tempo": 120.0
            },
            {
                "pitch": 0,
                "velocity": 0,
                "duration": 0.1,
                "tempo": 0
            },
            {
                "pitch": 38,
                "velocity": 1,
                "duration": 0.1,
                "tempo": 120.0
            },
            {
                "pitch": 0,
                "velocity": 0,
                "duration": 0.1,
                "tempo": 0
            },
            {
                "pitch": 38,
                "velocity": 1,
                "duration": 0.1,
                "tempo": 120.0
            },
            {
                "pitch": 38,
                "velocity": 1,
                "duration": 0.1,
                "tempo": 120.0
            },
            {
                "pitch": 0,
                "velocity": 0,
                "duration": 0.1,
                "tempo": 0
            },
            {
                "pitch": 38,
                "velocity": 1,
                "duration": 0.0977,
                "tempo": 120.0
            },
            {
                "pitch": 36,
                "velocity": 1,
                "duration": 0.1,
                "tempo": 120.0
            },
            {
                "pitch": 36,
                "velocity": 1,
                "duration": 0.1,
                "tempo": 120.0
            },
            {
                "pitch": 0,
                "velocity": 0,
                "duration": 0.1,
                "tempo": 0
            },
            {
                "pitch": 36,
                "velocity": 1,
                "duration": 0.1,
                "tempo": 120.0
            },
            {
                "pitch": 0,
                "velocity": 0,
                "duration": 0.1,
                "tempo": 0
            },
            {
                "pitch": 48,
                "velocity": 1,
                "duration": 0.1,
                "tempo": 120.0
            },
            {
                "pitch": 36,
                "velocity": 1,
                "duration": 0.1,
                "tempo": 120.0
            },
            {
                "pitch": 0,
                "velocity": 0,
                "duration": 0.1,
                "tempo": 0
            },
            {
                "pitch": 36,
                "velocity": 1,
                "duration": 0.1023,
                "tempo": 120.0
            },
            {
                "pitch": 36,
                "velocity": 1,
                "duration": 0.0977,
                "tempo": 120.0
            },
            {
                "pitch": 48,
                "velocity": 1,
                "duration": 0.1,
                "tempo": 120.0
            },
            {
                "pitch": 36,
                "velocity": 1,
                "duration": 0.1,
                "tempo": 120.0
            },
            {
                "pitch": 0,
                "velocity": 0,
                "duration": 0.1,
                "tempo": 0
            },
            {
                "pitch": 48,
                "velocity": 1,
                "duration": 0.1,
                "tempo": 120.0
            },
            {
                "pitch": 0,
                "velocity": 0,
                "duration": 0.1,
                "tempo": 0
            },
            {
                "pitch": 36,
                "velocity": 1,
                "duration": 0.1,
                "tempo": 120.0
            },
            {
                "pitch": 0,
                "velocity": 0,
                "duration": 0.0977,
                "tempo": 0
            },
            {
                "pitch": 38,
                "velocity": 1,
                "duration": 0.1,
                "tempo": 120.0
            },
            {
                "pitch": 0,
                "velocity": 0,
                "duration": 0.1,
                "tempo": 0
            },
            {
                "pitch": 38,
                "velocity": 1,
                "duration": 0.1,
                "tempo": 120.0
            },
            {
                "pitch": 0,
                "velocity": 0,
                "duration": 0.1,
                "tempo": 0
            },
            {
                "pitch": 38,
                "velocity": 1,
                "duration": 0.0977,
                "tempo": 120.0
            },
            {
                "pitch": 38,
                "velocity": 1,
                "duration": 0.0977,
                "tempo": 120.0
            },
            {
                "pitch": 0,
                "velocity": 0,
                "duration": 0.0977,
                "tempo": 0
            },
            {
                "pitch": 38,
                "velocity": 1,
                "duration": 0.0977,
                "tempo": 120.0
            },
            {
                "pitch": 38,
                "velocity": 1,
                "duration": 0.1,
                "tempo": 120.0
            },
            {
                "pitch": 0,
                "velocity": 0,
                "duration": 0.1,
                "tempo": 0
            },
            {
                "pitch": 38,
                "velocity": 1,
                "duration": 0.0977,
                "tempo": 120.0
            },
            {
                "pitch": 0,
                "velocity": 0,
                "duration": 0.1,
                "tempo": 0
            },
            {
                "pitch": 38,
                "velocity": 1,
                "duration": 0.1,
                "tempo": 120.0
            },
            {
                "pitch": 0,
                "velocity": 0,
                "duration": 0.1023,
                "tempo": 0
            },
            {
                "pitch": 38,
                "velocity": 1,
                "duration": 0.1,
                "tempo": 120.0
            },
            {
                "pitch": 50,
                "velocity": 1,
                "duration": 0.1,
                "tempo": 120.0
            },
            {
                "pitch": 36,
                "velocity": 1,
                "duration": 0.1,
                "tempo": 120.0
            },
            {
                "pitch": 0,
                "velocity": 0,
                "duration": 0.0977,
                "tempo": 0
            },
            {
                "pitch": 36,
                "velocity": 1,
                "duration": 0.1023,
                "tempo": 120.0
            },
            {
                "pitch": 0,
                "velocity": 0,
                "duration": 0.0977,
                "tempo": 0
            },
            {
                "pitch": 36,
                "velocity": 1,
                "duration": 0.1,
                "tempo": 120.0
            },
            {
                "pitch": 36,
                "velocity": 1,
                "duration": 0.1,
                "tempo": 120.0
            },
            {
                "pitch": 0,
                "velocity": 0,
                "duration": 0.1,
                "tempo": 0
            },
            {
                "pitch": 36,
                "velocity": 1,
                "duration": 0.1,
                "tempo": 120.0
            },
            {
                "pitch": 36,
                "velocity": 1,
                "duration": 0.1,
                "tempo": 120.0
            },
            {
                "pitch": 0,
                "velocity": 0,
                "duration": 0.1,
                "tempo": 0
            },
            {
                "pitch": 36,
                "velocity": 1,
                "duration": 0.0977,
                "tempo": 120.0
            },
            {
                "pitch": 0,
                "velocity": 0,
                "duration": 0.1,
                "tempo": 0
            },
            {
                "pitch": 36,
                "velocity": 1,
                "duration": 0.1,
                "tempo": 120.0
            },
            {
                "pitch": 48,
                "velocity": 1,
                "duration": 1.4955,
                "tempo": 120.0
            },
            {
                "pitch": 48,
                "velocity": 1,
                "duration": 0.1,
                "tempo": 120.0
            },
            {
                "pitch": 0,
                "velocity": 0,
                "duration": 0.1,
                "tempo": 0
            },
            {
                "pitch": 38,
                "velocity": 1,
                "duration": 0.1,
                "tempo": 120.0
            },
            {
                "pitch": 0,
                "velocity": 0,
                "duration": 0.1,
                "tempo": 0
            },
            {
                "pitch": 38,
                "velocity": 1,
                "duration": 0.1,
                "tempo": 120.0
            },
            {
                "pitch": 0,
                "velocity": 0,
                "duration": 0.1,
                "tempo": 0
            },
            {
                "pitch": 50,
                "velocity": 1,
                "duration": 0.0977,
                "tempo": 120.0
            },
            {
                "pitch": 38,
                "velocity": 1,
                "duration": 0.0977,
                "tempo": 120.0
            },
            {
                "pitch": 0,
                "velocity": 0,
                "duration": 0.0977,
                "tempo": 0
            },
            {
                "pitch": 38,
                "velocity": 1,
                "duration": 0.0977,
                "tempo": 120.0
            },
            {
                "pitch": 38,
                "velocity": 1,
                "duration": 0.1,
                "tempo": 120.0
            },
            {
                "pitch": 0,
                "velocity": 0,
                "duration": 0.1,
                "tempo": 0
            },
            {
                "pitch": 50,
                "velocity": 1,
                "duration": 0.1,
                "tempo": 120.0
            },
            {
                "pitch": 0,
                "velocity": 0,
                "duration": 0.1,
                "tempo": 0
            },
            {
                "pitch": 38,
                "velocity": 1,
                "duration": 0.1,
                "tempo": 120.0
            },
            {
                "pitch": 38,
                "velocity": 1,
                "duration": 0.0977,
                "tempo": 120.0
            },
            {
                "pitch": 0,
                "velocity": 0,
                "duration": 0.1,
                "tempo": 0
            },
            {
                "pitch": 38,
                "velocity": 1,
                "duration": 0.1,
                "tempo": 120.0
            },
            {
                "pitch": 38,
                "velocity": 1,
                "duration": 0.1,
                "tempo": 120.0
            },
            {
                "pitch": 0,
                "velocity": 0,
                "duration": 0.1,
                "tempo": 0
            },
            {
                "pitch": 38,
                "velocity": 1,
                "duration": 0.1,
                "tempo": 120.0
            },
            {
                "pitch": 0,
                "velocity": 0,
                "duration": 0.0977,
                "tempo": 0
            },
            {
                "pitch": 50,
                "velocity": 1,
                "duration": 0.1,
                "tempo": 120.0
            },
            {
                "pitch": 38,
                "velocity": 1,
                "duration": 0.1,
                "tempo": 120.0
            },
            {
                "pitch": 0,
                "velocity": 0,
                "duration": 0.1,
                "tempo": 0
            },
            {
                "pitch": 38,
                "velocity": 1,
                "duration": 0.1,
                "tempo": 120.0
            },
            {
                "pitch": 38,
                "velocity": 1,
                "duration": 0.1,
                "tempo": 120.0
            },
            {
                "pitch": 50,
                "velocity": 1,
                "duration": 0.1,
                "tempo": 120.0
            },
            {
                "pitch": 38,
                "velocity": 1,
                "duration": 0.1,
                "tempo": 120.0
            },
            {
                "pitch": 0,
                "velocity": 0,
                "duration": 0.1,
                "tempo": 0
            },
            {
                "pitch": 50,
                "velocity": 1,
                "duration": 0.1,
                "tempo": 120.0
            },
            {
                "pitch": 0,
                "velocity": 0,
                "duration": 0.1,
                "tempo": 0
            },
            {
                "pitch": 38,
                "velocity": 1,
                "duration": 0.1,
                "tempo": 120.0
            },
            {
                "pitch": 0,
                "velocity": 0,
                "duration": 0.1,
                "tempo": 0
            },
            {
                "pitch": 34,
                "velocity": 1,
                "duration": 0.0977,
                "tempo": 120.0
            },
            {
                "pitch": 0,
                "velocity": 0,
                "duration": 0.0977,
                "tempo": 0
            },
            {
                "pitch": 34,
                "velocity": 1,
                "duration": 0.0977,
                "tempo": 120.0
            },
            {
                "pitch": 0,
                "velocity": 0,
                "duration": 0.0977,
                "tempo": 0
            },
            {
                "pitch": 34,
                "velocity": 1,
                "duration": 0.1,
                "tempo": 120.0
            },
            {
                "pitch": 34,
                "velocity": 1,
                "duration": 0.1,
                "tempo": 120.0
            },
            {
                "pitch": 0,
                "velocity": 0,
                "duration": 0.1,
                "tempo": 0
            },
            {
                "pitch": 34,
                "velocity": 1,
                "duration": 0.1,
                "tempo": 120.0
            },
            {
                "pitch": 34,
                "velocity": 1,
                "duration": 0.0977,
                "tempo": 120.0
            },
            {
                "pitch": 0,
                "velocity": 0,
                "duration": 0.1,
                "tempo": 0
            },
            {
                "pitch": 34,
                "velocity": 1,
                "duration": 0.1,
                "tempo": 120.0
            },
            {
                "pitch": 0,
                "velocity": 0,
                "duration": 0.1,
                "tempo": 0
            },
            {
                "pitch": 34,
                "velocity": 1,
                "duration": 0.1,
                "tempo": 120.0
            },
            {
                "pitch": 0,
                "velocity": 0,
                "duration": 0.1,
                "tempo": 0
            },
            {
                "pitch": 34,
                "velocity": 1,
                "duration": 0.0977,
                "tempo": 120.0
            },
            {
                "pitch": 46,
                "velocity": 1,
                "duration": 0.1,
                "tempo": 120.0
            },
            {
                "pitch": 52,
                "velocity": 1,
                "duration": 12.7409,
                "tempo": 120.0
            },
            {
                "pitch": 36,
                "velocity": 1,
                "duration": 0.1,
                "tempo": 120.0
            },
            {
                "pitch": 0,
                "velocity": 0,
                "duration": 0.1,
                "tempo": 0
            },
            {
                "pitch": 36,
                "velocity": 1,
                "duration": 0.1,
                "tempo": 120.0
            },
            {
                "pitch": 0,
                "velocity": 0,
                "duration": 0.1,
                "tempo": 0
            },
            {
                "pitch": 36,
                "velocity": 1,
                "duration": 0.1,
                "tempo": 120.0
            },
            {
                "pitch": 36,
                "velocity": 1,
                "duration": 0.1,
                "tempo": 120.0
            },
            {
                "pitch": 0,
                "velocity": 0,
                "duration": 0.1,
                "tempo": 0
            },
            {
                "pitch": 36,
                "velocity": 1,
                "duration": 0.1,
                "tempo": 120.0
            },
            {
                "pitch": 36,
                "velocity": 1,
                "duration": 0.1,
                "tempo": 120.0
            },
            {
                "pitch": 0,
                "velocity": 0,
                "duration": 0.1,
                "tempo": 0
            },
            {
                "pitch": 36,
                "velocity": 1,
                "duration": 0.1,
                "tempo": 120.0
            },
            {
                "pitch": 48,
                "velocity": 1,
                "duration": 0.1,
                "tempo": 120.0
            },
            {
                "pitch": 0,
                "velocity": 0,
                "duration": 0.0977,
                "tempo": 0
            },
            {
                "pitch": 36,
                "velocity": 1,
                "duration": 0.0977,
                "tempo": 120.0
            },
            {
                "pitch": 36,
                "velocity": 1,
                "duration": 0.0977,
                "tempo": 120.0
            },
            {
                "pitch": 0,
                "velocity": 0,
                "duration": 0.0977,
                "tempo": 0
            },
            {
                "pitch": 38,
                "velocity": 1,
                "duration": 0.1023,
                "tempo": 120.0
            },
            {
                "pitch": 0,
                "velocity": 0,
                "duration": 0.1023,
                "tempo": 0
            },
            {
                "pitch": 38,
                "velocity": 1,
                "duration": 0.1023,
                "tempo": 120.0
            },
            {
                "pitch": 0,
                "velocity": 0,
                "duration": 0.1023,
                "tempo": 0
            },
            {
                "pitch": 50,
                "velocity": 1,
                "duration": 0.0977,
                "tempo": 120.0
            },
            {
                "pitch": 38,
                "velocity": 1,
                "duration": 0.0977,
                "tempo": 120.0
            },
            {
                "pitch": 0,
                "velocity": 0,
                "duration": 0.0977,
                "tempo": 0
            },
            {
                "pitch": 38,
                "velocity": 1,
                "duration": 0.0977,
                "tempo": 120.0
            },
            {
                "pitch": 38,
                "velocity": 1,
                "duration": 0.1,
                "tempo": 120.0
            },
            {
                "pitch": 0,
                "velocity": 0,
                "duration": 0.1,
                "tempo": 0
            },
            {
                "pitch": 50,
                "velocity": 1,
                "duration": 0.1,
                "tempo": 120.0
            },
            {
                "pitch": 0,
                "velocity": 0,
                "duration": 0.0977,
                "tempo": 0
            },
            {
                "pitch": 38,
                "velocity": 1,
                "duration": 0.1023,
                "tempo": 120.0
            },
            {
                "pitch": 38,
                "velocity": 1,
                "duration": 0.1,
                "tempo": 120.0
            },
            {
                "pitch": 0,
                "velocity": 0,
                "duration": 0.1,
                "tempo": 0
            },
            {
                "pitch": 38,
                "velocity": 1,
                "duration": 0.1,
                "tempo": 120.0
            },
            {
                "pitch": 36,
                "velocity": 1,
                "duration": 0.1,
                "tempo": 120.0
            },
            {
                "pitch": 36,
                "velocity": 1,
                "duration": 0.1,
                "tempo": 120.0
            },
            {
                "pitch": 0,
                "velocity": 0,
                "duration": 0.1,
                "tempo": 0
            },
            {
                "pitch": 36,
                "velocity": 1,
                "duration": 0.1,
                "tempo": 120.0
            },
            {
                "pitch": 0,
                "velocity": 0,
                "duration": 0.1,
                "tempo": 0
            },
            {
                "pitch": 48,
                "velocity": 1,
                "duration": 0.0977,
                "tempo": 120.0
            },
            {
                "pitch": 36,
                "velocity": 1,
                "duration": 0.1,
                "tempo": 120.0
            },
            {
                "pitch": 0,
                "velocity": 0,
                "duration": 0.1,
                "tempo": 0
            },
            {
                "pitch": 36,
                "velocity": 1,
                "duration": 0.1,
                "tempo": 120.0
            },
            {
                "pitch": 36,
                "velocity": 1,
                "duration": 0.0977,
                "tempo": 120.0
            },
            {
                "pitch": 48,
                "velocity": 1,
                "duration": 0.0977,
                "tempo": 120.0
            },
            {
                "pitch": 36,
                "velocity": 1,
                "duration": 0.0977,
                "tempo": 120.0
            },
            {
                "pitch": 0,
                "velocity": 0,
                "duration": 0.0977,
                "tempo": 0
            },
            {
                "pitch": 48,
                "velocity": 1,
                "duration": 0.1,
                "tempo": 120.0
            },
            {
                "pitch": 0,
                "velocity": 0,
                "duration": 0.1,
                "tempo": 0
            },
            {
                "pitch": 36,
                "velocity": 1,
                "duration": 0.0977,
                "tempo": 120.0
            },
            {
                "pitch": 0,
                "velocity": 0,
                "duration": 0.1,
                "tempo": 0
            },
            {
                "pitch": 38,
                "velocity": 1,
                "duration": 0.1023,
                "tempo": 120.0
            },
            {
                "pitch": 0,
                "velocity": 0,
                "duration": 0.1023,
                "tempo": 0
            },
            {
                "pitch": 38,
                "velocity": 1,
                "duration": 0.1023,
                "tempo": 120.0
            },
            {
                "pitch": 0,
                "velocity": 0,
                "duration": 0.1045,
                "tempo": 0
            },
            {
                "pitch": 38,
                "velocity": 1,
                "duration": 0.0977,
                "tempo": 120.0
            },
            {
                "pitch": 0,
                "velocity": 0,
                "duration": 0.1,
                "tempo": 0
            },
            {
                "pitch": 38,
                "velocity": 1,
                "duration": 0.1,
                "tempo": 120.0
            },
            {
                "pitch": 0,
                "velocity": 0,
                "duration": 0.1,
                "tempo": 0
            },
            {
                "pitch": 38,
                "velocity": 1,
                "duration": 0.1,
                "tempo": 120.0
            },
            {
                "pitch": 0,
                "velocity": 0,
                "duration": 0.1,
                "tempo": 0
            },
            {
                "pitch": 38,
                "velocity": 1,
                "duration": 0.1,
                "tempo": 120.0
            },
            {
                "pitch": 0,
                "velocity": 0,
                "duration": 0.1,
                "tempo": 0
            },
            {
                "pitch": 38,
                "velocity": 1,
                "duration": 0.0977,
                "tempo": 120.0
            },
            {
                "pitch": 0,
                "velocity": 0,
                "duration": 0.1,
                "tempo": 0
            },
            {
                "pitch": 38,
                "velocity": 1,
                "duration": 0.1,
                "tempo": 120.0
            },
            {
                "pitch": 0,
                "velocity": 0,
                "duration": 0.1,
                "tempo": 0
            },
            {
                "pitch": 38,
                "velocity": 1,
                "duration": 0.0977,
                "tempo": 120.0
            },
            {
                "pitch": 0,
                "velocity": 0,
                "duration": 0.0977,
                "tempo": 0
            },
            {
                "pitch": 38,
                "velocity": 1,
                "duration": 0.0977,
                "tempo": 120.0
            },
            {
                "pitch": 0,
                "velocity": 0,
                "duration": 0.0977,
                "tempo": 0
            },
            {
                "pitch": 38,
                "velocity": 1,
                "duration": 0.1,
                "tempo": 120.0
            },
            {
                "pitch": 0,
                "velocity": 0,
                "duration": 0.1,
                "tempo": 0
            },
            {
                "pitch": 38,
                "velocity": 1,
                "duration": 0.1,
                "tempo": 120.0
            },
            {
                "pitch": 0,
                "velocity": 0,
                "duration": 0.0977,
                "tempo": 0
            },
            {
                "pitch": 38,
                "velocity": 1,
                "duration": 0.1,
                "tempo": 120.0
            },
            {
                "pitch": 0,
                "velocity": 0,
                "duration": 0.1,
                "tempo": 0
            },
            {
                "pitch": 38,
                "velocity": 1,
                "duration": 0.1,
                "tempo": 120.0
            },
            {
                "pitch": 0,
                "velocity": 0,
                "duration": 0.1,
                "tempo": 0
            },
            {
                "pitch": 38,
                "velocity": 1,
                "duration": 0.1,
                "tempo": 120.0
            },
            {
                "pitch": 0,
                "velocity": 0,
                "duration": 0.1,
                "tempo": 0
            },
            {
                "pitch": 38,
                "velocity": 1,
                "duration": 0.1,
                "tempo": 120.0
            },
            {
                "pitch": 0,
                "velocity": 0,
                "duration": 0.1,
                "tempo": 0
            },
            {
                "pitch": 36,
                "velocity": 1,
                "duration": 0.1,
                "tempo": 120.0
            },
            {
                "pitch": 0,
                "velocity": 0,
                "duration": 0.1,
                "tempo": 0
            },
            {
                "pitch": 36,
                "velocity": 1,
                "duration": 0.1,
                "tempo": 120.0
            },
            {
                "pitch": 0,
                "velocity": 0,
                "duration": 0.1,
                "tempo": 0
            },
            {
                "pitch": 36,
                "velocity": 1,
                "duration": 0.1,
                "tempo": 120.0
            },
            {
                "pitch": 0,
                "velocity": 0,
                "duration": 0.1,
                "tempo": 0
            },
            {
                "pitch": 36,
                "velocity": 1,
                "duration": 0.0977,
                "tempo": 120.0
            },
            {
                "pitch": 0,
                "velocity": 0,
                "duration": 0.1,
                "tempo": 0
            },
            {
                "pitch": 36,
                "velocity": 1,
                "duration": 0.0977,
                "tempo": 120.0
            },
            {
                "pitch": 0,
                "velocity": 0,
                "duration": 0.0977,
                "tempo": 0
            },
            {
                "pitch": 36,
                "velocity": 1,
                "duration": 0.0977,
                "tempo": 120.0
            },
            {
                "pitch": 0,
                "velocity": 0,
                "duration": 0.0977,
                "tempo": 0
            },
            {
                "pitch": 36,
                "velocity": 1,
                "duration": 0.1,
                "tempo": 120.0
            },
            {
                "pitch": 0,
                "velocity": 0,
                "duration": 0.1,
                "tempo": 0
            },
            {
                "pitch": 36,
                "velocity": 1,
                "duration": 0.1,
                "tempo": 120.0
            },
            {
                "pitch": 0,
                "velocity": 0,
                "duration": 0.1,
                "tempo": 0
            },
            {
                "pitch": 43,
                "velocity": 1,
                "duration": 0.0977,
                "tempo": 120.0
            },
            {
                "pitch": 0,
                "velocity": 0,
                "duration": 0.1,
                "tempo": 0
            },
            {
                "pitch": 43,
                "velocity": 1,
                "duration": 0.1,
                "tempo": 120.0
            },
            {
                "pitch": 0,
                "velocity": 0,
                "duration": 0.1,
                "tempo": 0
            },
            {
                "pitch": 43,
                "velocity": 1,
                "duration": 0.1,
                "tempo": 120.0
            },
            {
                "pitch": 0,
                "velocity": 0,
                "duration": 0.1023,
                "tempo": 0
            },
            {
                "pitch": 43,
                "velocity": 1,
                "duration": 0.1,
                "tempo": 120.0
            },
            {
                "pitch": 0,
                "velocity": 0,
                "duration": 0.1,
                "tempo": 0
            },
            {
                "pitch": 43,
                "velocity": 1,
                "duration": 0.1,
                "tempo": 120.0
            },
            {
                "pitch": 0,
                "velocity": 0,
                "duration": 0.1,
                "tempo": 0
            },
            {
                "pitch": 43,
                "velocity": 1,
                "duration": 0.0977,
                "tempo": 120.0
            },
            {
                "pitch": 0,
                "velocity": 0,
                "duration": 0.1,
                "tempo": 0
            },
            {
                "pitch": 43,
                "velocity": 1,
                "duration": 0.1,
                "tempo": 120.0
            },
            {
                "pitch": 0,
                "velocity": 0,
                "duration": 0.1,
                "tempo": 0
            },
            {
                "pitch": 43,
                "velocity": 1,
                "duration": 0.1,
                "tempo": 120.0
            },
            {
                "pitch": 0,
                "velocity": 0,
                "duration": 0.1,
                "tempo": 0
            },
            {
                "pitch": 37,
                "velocity": 1,
                "duration": 0.0955,
                "tempo": 120.0
            },
            {
                "pitch": 0,
                "velocity": 0,
                "duration": 0.0977,
                "tempo": 0
            },
            {
                "pitch": 37,
                "velocity": 1,
                "duration": 0.1,
                "tempo": 120.0
            },
            {
                "pitch": 0,
                "velocity": 0,
                "duration": 0.0977,
                "tempo": 0
            },
            {
                "pitch": 37,
                "velocity": 1,
                "duration": 0.1,
                "tempo": 120.0
            },
            {
                "pitch": 37,
                "velocity": 1,
                "duration": 0.1,
                "tempo": 120.0
            },
            {
                "pitch": 0,
                "velocity": 0,
                "duration": 0.1,
                "tempo": 0
            },
            {
                "pitch": 37,
                "velocity": 1,
                "duration": 0.1,
                "tempo": 120.0
            },
            {
                "pitch": 37,
                "velocity": 1,
                "duration": 0.1,
                "tempo": 120.0
            },
            {
                "pitch": 0,
                "velocity": 0,
                "duration": 0.1,
                "tempo": 0
            },
            {
                "pitch": 37,
                "velocity": 1,
                "duration": 0.1,
                "tempo": 120.0
            },
            {
                "pitch": 0,
                "velocity": 0,
                "duration": 0.1,
                "tempo": 0
            },
            {
                "pitch": 37,
                "velocity": 1,
                "duration": 0.1,
                "tempo": 120.0
            },
            {
                "pitch": 0,
                "velocity": 0,
                "duration": 0.1,
                "tempo": 0
            },
            {
                "pitch": 37,
                "velocity": 1,
                "duration": 0.1,
                "tempo": 120.0
            },
            {
                "pitch": 49,
                "velocity": 1,
                "duration": 0.1,
                "tempo": 120.0
            },
            {
                "pitch": 35,
                "velocity": 1,
                "duration": 0.1,
                "tempo": 120.0
            },
            {
                "pitch": 0,
                "velocity": 0,
                "duration": 0.1,
                "tempo": 0
            },
            {
                "pitch": 35,
                "velocity": 1,
                "duration": 0.1,
                "tempo": 120.0
            },
            {
                "pitch": 0,
                "velocity": 0,
                "duration": 0.1,
                "tempo": 0
            },
            {
                "pitch": 35,
                "velocity": 1,
                "duration": 0.1,
                "tempo": 120.0
            },
            {
                "pitch": 35,
                "velocity": 1,
                "duration": 0.1,
                "tempo": 120.0
            },
            {
                "pitch": 0,
                "velocity": 0,
                "duration": 0.1,
                "tempo": 0
            },
            {
                "pitch": 35,
                "velocity": 1,
                "duration": 0.1,
                "tempo": 120.0
            },
            {
                "pitch": 35,
                "velocity": 1,
                "duration": 0.1023,
                "tempo": 120.0
            },
            {
                "pitch": 0,
                "velocity": 0,
                "duration": 0.1,
                "tempo": 0
            },
            {
                "pitch": 35,
                "velocity": 1,
                "duration": 0.1,
                "tempo": 120.0
            },
            {
                "pitch": 0,
                "velocity": 0,
                "duration": 0.1,
                "tempo": 0
            },
            {
                "pitch": 35,
                "velocity": 1,
                "duration": 0.1,
                "tempo": 120.0
            },
            {
                "pitch": 0,
                "velocity": 0,
                "duration": 0.1,
                "tempo": 0
            },
            {
                "pitch": 47,
                "velocity": 1,
                "duration": 0.1,
                "tempo": 120.0
            },
            {
                "pitch": 0,
                "velocity": 0,
                "duration": 0.0977,
                "tempo": 0
            },
            {
                "pitch": 33,
                "velocity": 1,
                "duration": 0.0977,
                "tempo": 120.0
            },
            {
                "pitch": 0,
                "velocity": 0,
                "duration": 0.0977,
                "tempo": 0
            },
            {
                "pitch": 33,
                "velocity": 1,
                "duration": 0.0977,
                "tempo": 120.0
            },
            {
                "pitch": 0,
                "velocity": 0,
                "duration": 0.0977,
                "tempo": 0
            },
            {
                "pitch": 33,
                "velocity": 1,
                "duration": 0.1,
                "tempo": 120.0
            },
            {
                "pitch": 33,
                "velocity": 1,
                "duration": 0.1023,
                "tempo": 120.0
            },
            {
                "pitch": 0,
                "velocity": 0,
                "duration": 0.1,
                "tempo": 0
            },
            {
                "pitch": 45,
                "velocity": 1,
                "duration": 0.1,
                "tempo": 120.0
            },
            {
                "pitch": 35,
                "velocity": 1,
                "duration": 0.1023,
                "tempo": 120.0
            },
            {
                "pitch": 0,
                "velocity": 0,
                "duration": 0.1023,
                "tempo": 0
            },
            {
                "pitch": 35,
                "velocity": 1,
                "duration": 0.1023,
                "tempo": 120.0
            },
            {
                "pitch": 0,
                "velocity": 0,
                "duration": 0.1023,
                "tempo": 0
            },
            {
                "pitch": 35,
                "velocity": 1,
                "duration": 0.0977,
                "tempo": 120.0
            },
            {
                "pitch": 35,
                "velocity": 1,
                "duration": 0.0977,
                "tempo": 120.0
            },
            {
                "pitch": 0,
                "velocity": 0,
                "duration": 0.0977,
                "tempo": 0
            },
            {
                "pitch": 35,
                "velocity": 1,
                "duration": 0.0977,
                "tempo": 120.0
            },
            {
                "pitch": 40,
                "velocity": 1,
                "duration": 57.3932,
                "tempo": 120.0
            },
            {
                "pitch": 37,
                "velocity": 1,
                "duration": 0.1,
                "tempo": 120.0
            },
            {
                "pitch": 0,
                "velocity": 0,
                "duration": 0.1,
                "tempo": 0
            },
            {
                "pitch": 37,
                "velocity": 1,
                "duration": 0.1023,
                "tempo": 120.0
            },
            {
                "pitch": 0,
                "velocity": 0,
                "duration": 0.1,
                "tempo": 0
            },
            {
                "pitch": 49,
                "velocity": 1,
                "duration": 0.1,
                "tempo": 120.0
            },
            {
                "pitch": 37,
                "velocity": 1,
                "duration": 0.0977,
                "tempo": 120.0
            },
            {
                "pitch": 0,
                "velocity": 0,
                "duration": 0.1,
                "tempo": 0
            },
            {
                "pitch": 37,
                "velocity": 1,
                "duration": 0.1,
                "tempo": 120.0
            },
            {
                "pitch": 37,
                "velocity": 1,
                "duration": 0.1023,
                "tempo": 120.0
            },
            {
                "pitch": 49,
                "velocity": 1,
                "duration": 0.1,
                "tempo": 120.0
            },
            {
                "pitch": 37,
                "velocity": 1,
                "duration": 0.1,
                "tempo": 120.0
            },
            {
                "pitch": 0,
                "velocity": 0,
                "duration": 0.1,
                "tempo": 0
            },
            {
                "pitch": 49,
                "velocity": 1,
                "duration": 0.1,
                "tempo": 120.0
            },
            {
                "pitch": 0,
                "velocity": 0,
                "duration": 0.1,
                "tempo": 0
            },
            {
                "pitch": 37,
                "velocity": 1,
                "duration": 0.1,
                "tempo": 120.0
            },
            {
                "pitch": 0,
                "velocity": 0,
                "duration": 0.0977,
                "tempo": 0
            },
            {
                "pitch": 33,
                "velocity": 1,
                "duration": 0.1,
                "tempo": 120.0
            },
            {
                "pitch": 0,
                "velocity": 0,
                "duration": 0.1023,
                "tempo": 0
            },
            {
                "pitch": 33,
                "velocity": 1,
                "duration": 0.1,
                "tempo": 120.0
            },
            {
                "pitch": 0,
                "velocity": 0,
                "duration": 0.1,
                "tempo": 0
            },
            {
                "pitch": 33,
                "velocity": 1,
                "duration": 0.0977,
                "tempo": 120.0
            },
            {
                "pitch": 33,
                "velocity": 1,
                "duration": 0.0977,
                "tempo": 120.0
            },
            {
                "pitch": 0,
                "velocity": 0,
                "duration": 0.0977,
                "tempo": 0
            },
            {
                "pitch": 33,
                "velocity": 1,
                "duration": 0.0977,
                "tempo": 120.0
            },
            {
                "pitch": 33,
                "velocity": 1,
                "duration": 0.1,
                "tempo": 120.0
            },
            {
                "pitch": 0,
                "velocity": 0,
                "duration": 0.1,
                "tempo": 0
            },
            {
                "pitch": 33,
                "velocity": 1,
                "duration": 0.1,
                "tempo": 120.0
            },
            {
                "pitch": 0,
                "velocity": 0,
                "duration": 0.0977,
                "tempo": 0
            },
            {
                "pitch": 33,
                "velocity": 1,
                "duration": 0.1023,
                "tempo": 120.0
            },
            {
                "pitch": 0,
                "velocity": 0,
                "duration": 0.1,
                "tempo": 0
            },
            {
                "pitch": 33,
                "velocity": 1,
                "duration": 0.1,
                "tempo": 120.0
            },
            {
                "pitch": 45,
                "velocity": 1,
                "duration": 0.1,
                "tempo": 120.0
            },
            {
                "pitch": 35,
                "velocity": 1,
                "duration": 0.1,
                "tempo": 120.0
            },
            {
                "pitch": 0,
                "velocity": 0,
                "duration": 0.1,
                "tempo": 0
            },
            {
                "pitch": 35,
                "velocity": 1,
                "duration": 0.1023,
                "tempo": 120.0
            },
            {
                "pitch": 0,
                "velocity": 0,
                "duration": 0.1,
                "tempo": 0
            },
            {
                "pitch": 35,
                "velocity": 1,
                "duration": 0.1,
                "tempo": 120.0
            },
            {
                "pitch": 35,
                "velocity": 1,
                "duration": 0.0977,
                "tempo": 120.0
            },
            {
                "pitch": 0,
                "velocity": 0,
                "duration": 0.1,
                "tempo": 0
            },
            {
                "pitch": 35,
                "velocity": 1,
                "duration": 0.1,
                "tempo": 120.0
            },
            {
                "pitch": 35,
                "velocity": 1,
                "duration": 0.1,
                "tempo": 120.0
            },
            {
                "pitch": 0,
                "velocity": 0,
                "duration": 0.1,
                "tempo": 0
            },
            {
                "pitch": 35,
                "velocity": 1,
                "duration": 0.1023,
                "tempo": 120.0
            },
            {
                "pitch": 0,
                "velocity": 0,
                "duration": 0.1,
                "tempo": 0
            },
            {
                "pitch": 35,
                "velocity": 1,
                "duration": 0.0977,
                "tempo": 120.0
            },
            {
                "pitch": 47,
                "velocity": 1,
                "duration": 5.4932,
                "tempo": 120.0
            },
            {
                "pitch": 47,
                "velocity": 1,
                "duration": 0.1,
                "tempo": 120.0
            },
            {
                "pitch": 0,
                "velocity": 0,
                "duration": 0.1,
                "tempo": 0
            },
            {
                "pitch": 37,
                "velocity": 1,
                "duration": 0.0977,
                "tempo": 120.0
            },
            {
                "pitch": 0,
                "velocity": 0,
                "duration": 0.0977,
                "tempo": 0
            },
            {
                "pitch": 37,
                "velocity": 1,
                "duration": 0.0977,
                "tempo": 120.0
            },
            {
                "pitch": 0,
                "velocity": 0,
                "duration": 0.0977,
                "tempo": 0
            },
            {
                "pitch": 37,
                "velocity": 1,
                "duration": 0.1,
                "tempo": 120.0
            },
            {
                "pitch": 37,
                "velocity": 1,
                "duration": 0.1023,
                "tempo": 120.0
            },
            {
                "pitch": 0,
                "velocity": 0,
                "duration": 0.1,
                "tempo": 0
            },
            {
                "pitch": 49,
                "velocity": 1,
                "duration": 0.1,
                "tempo": 120.0
            },
            {
                "pitch": 37,
                "velocity": 1,
                "duration": 0.1,
                "tempo": 120.0
            },
            {
                "pitch": 0,
                "velocity": 0,
                "duration": 0.1,
                "tempo": 0
            },
            {
                "pitch": 37,
                "velocity": 1,
                "duration": 0.1,
                "tempo": 120.0
            },
            {
                "pitch": 0,
                "velocity": 0,
                "duration": 0.1,
                "tempo": 0
            },
            {
                "pitch": 37,
                "velocity": 1,
                "duration": 0.1,
                "tempo": 120.0
            },
            {
                "pitch": 37,
                "velocity": 1,
                "duration": 0.1,
                "tempo": 120.0
            },
            {
                "pitch": 0,
                "velocity": 0,
                "duration": 0.1,
                "tempo": 0
            },
            {
                "pitch": 37,
                "velocity": 1,
                "duration": 0.1,
                "tempo": 120.0
            },
            {
                "pitch": 35,
                "velocity": 1,
                "duration": 0.1,
                "tempo": 120.0
            },
            {
                "pitch": 0,
                "velocity": 0,
                "duration": 0.1,
                "tempo": 0
            },
            {
                "pitch": 35,
                "velocity": 1,
                "duration": 0.1,
                "tempo": 120.0
            },
            {
                "pitch": 0,
                "velocity": 0,
                "duration": 0.1023,
                "tempo": 0
            },
            {
                "pitch": 47,
                "velocity": 1,
                "duration": 0.0977,
                "tempo": 120.0
            },
            {
                "pitch": 35,
                "velocity": 1,
                "duration": 0.1,
                "tempo": 120.0
            },
            {
                "pitch": 0,
                "velocity": 0,
                "duration": 0.1,
                "tempo": 0
            },
            {
                "pitch": 35,
                "velocity": 1,
                "duration": 0.1,
                "tempo": 120.0
            },
            {
                "pitch": 35,
                "velocity": 1,
                "duration": 0.1,
                "tempo": 120.0
            },
            {
                "pitch": 47,
                "velocity": 1,
                "duration": 0.1,
                "tempo": 120.0
            },
            {
                "pitch": 35,
                "velocity": 1,
                "duration": 0.1,
                "tempo": 120.0
            },
            {
                "pitch": 0,
                "velocity": 0,
                "duration": 0.1023,
                "tempo": 0
            },
            {
                "pitch": 47,
                "velocity": 1,
                "duration": 0.1,
                "tempo": 120.0
            },
            {
                "pitch": 0,
                "velocity": 0,
                "duration": 0.1,
                "tempo": 0
            },
            {
                "pitch": 35,
                "velocity": 1,
                "duration": 0.1,
                "tempo": 120.0
            },
            {
                "pitch": 0,
                "velocity": 0,
                "duration": 0.1,
                "tempo": 0
            },
            {
                "pitch": 37,
                "velocity": 1,
                "duration": 0.1,
                "tempo": 120.0
            },
            {
                "pitch": 0,
                "velocity": 0,
                "duration": 0.1,
                "tempo": 0
            },
            {
                "pitch": 37,
                "velocity": 1,
                "duration": 0.1,
                "tempo": 120.0
            },
            {
                "pitch": 0,
                "velocity": 0,
                "duration": 0.1,
                "tempo": 0
            },
            {
                "pitch": 37,
                "velocity": 1,
                "duration": 0.0977,
                "tempo": 120.0
            },
            {
                "pitch": 37,
                "velocity": 1,
                "duration": 0.0977,
                "tempo": 120.0
            },
            {
                "pitch": 0,
                "velocity": 0,
                "duration": 0.0977,
                "tempo": 0
            },
            {
                "pitch": 37,
                "velocity": 1,
                "duration": 0.0977,
                "tempo": 120.0
            },
            {
                "pitch": 37,
                "velocity": 1,
                "duration": 0.1,
                "tempo": 120.0
            },
            {
                "pitch": 0,
                "velocity": 0,
                "duration": 0.1,
                "tempo": 0
            },
            {
                "pitch": 37,
                "velocity": 1,
                "duration": 0.1,
                "tempo": 120.0
            },
            {
                "pitch": 0,
                "velocity": 0,
                "duration": 0.1,
                "tempo": 0
            },
            {
                "pitch": 37,
                "velocity": 1,
                "duration": 0.1,
                "tempo": 120.0
            },
            {
                "pitch": 0,
                "velocity": 0,
                "duration": 0.1,
                "tempo": 0
            },
            {
                "pitch": 37,
                "velocity": 1,
                "duration": 0.1,
                "tempo": 120.0
            },
            {
                "pitch": 49,
                "velocity": 1,
                "duration": 0.1,
                "tempo": 120.0
            },
            {
                "pitch": 35,
                "velocity": 1,
                "duration": 0.1,
                "tempo": 120.0
            },
            {
                "pitch": 0,
                "velocity": 0,
                "duration": 0.1,
                "tempo": 0
            },
            {
                "pitch": 35,
                "velocity": 1,
                "duration": 0.1,
                "tempo": 120.0
            },
            {
                "pitch": 0,
                "velocity": 0,
                "duration": 0.1,
                "tempo": 0
            },
            {
                "pitch": 35,
                "velocity": 1,
                "duration": 0.1023,
                "tempo": 120.0
            },
            {
                "pitch": 35,
                "velocity": 1,
                "duration": 0.1,
                "tempo": 120.0
            },
            {
                "pitch": 0,
                "velocity": 0,
                "duration": 0.1,
                "tempo": 0
            },
            {
                "pitch": 35,
                "velocity": 1,
                "duration": 0.1,
                "tempo": 120.0
            },
            {
                "pitch": 35,
                "velocity": 1,
                "duration": 0.1,
                "tempo": 120.0
            },
            {
                "pitch": 0,
                "velocity": 0,
                "duration": 0.1,
                "tempo": 0
            },
            {
                "pitch": 35,
                "velocity": 1,
                "duration": 0.1,
                "tempo": 120.0
            },
            {
                "pitch": 0,
                "velocity": 0,
                "duration": 0.0977,
                "tempo": 0
            },
            {
                "pitch": 35,
                "velocity": 1,
                "duration": 0.0977,
                "tempo": 120.0
            },
            {
                "pitch": 0,
                "velocity": 0,
                "duration": 0.0977,
                "tempo": 0
            },
            {
                "pitch": 47,
                "velocity": 1,
                "duration": 0.0977,
                "tempo": 120.0
            },
            {
                "pitch": 0,
                "velocity": 0,
                "duration": 0.0977,
                "tempo": 0
            },
            {
                "pitch": 37,
                "velocity": 1,
                "duration": 0.1023,
                "tempo": 120.0
            },
            {
                "pitch": 0,
                "velocity": 0,
                "duration": 0.1023,
                "tempo": 0
            },
            {
                "pitch": 37,
                "velocity": 1,
                "duration": 0.1023,
                "tempo": 120.0
            },
            {
                "pitch": 0,
                "velocity": 0,
                "duration": 0.1023,
                "tempo": 0
            },
            {
                "pitch": 49,
                "velocity": 1,
                "duration": 0.0977,
                "tempo": 120.0
            },
            {
                "pitch": 37,
                "velocity": 1,
                "duration": 0.0977,
                "tempo": 120.0
            },
            {
                "pitch": 0,
                "velocity": 0,
                "duration": 0.0977,
                "tempo": 0
            },
            {
                "pitch": 37,
                "velocity": 1,
                "duration": 0.0977,
                "tempo": 120.0
            },
            {
                "pitch": 37,
                "velocity": 1,
                "duration": 0.1023,
                "tempo": 120.0
            },
            {
                "pitch": 0,
                "velocity": 0,
                "duration": 0.1,
                "tempo": 0
            },
            {
                "pitch": 49,
                "velocity": 1,
                "duration": 0.1,
                "tempo": 120.0
            },
            {
                "pitch": 0,
                "velocity": 0,
                "duration": 0.1,
                "tempo": 0
            },
            {
                "pitch": 37,
                "velocity": 1,
                "duration": 0.1,
                "tempo": 120.0
            },
            {
                "pitch": 37,
                "velocity": 1,
                "duration": 0.1,
                "tempo": 120.0
            },
            {
                "pitch": 0,
                "velocity": 0,
                "duration": 0.1,
                "tempo": 0
            },
            {
                "pitch": 37,
                "velocity": 1,
                "duration": 0.1023,
                "tempo": 120.0
            },
            {
                "pitch": 37,
                "velocity": 1,
                "duration": 0.0977,
                "tempo": 120.0
            },
            {
                "pitch": 0,
                "velocity": 0,
                "duration": 0.1,
                "tempo": 0
            },
            {
                "pitch": 37,
                "velocity": 1,
                "duration": 0.1,
                "tempo": 120.0
            },
            {
                "pitch": 0,
                "velocity": 0,
                "duration": 0.1,
                "tempo": 0
            },
            {
                "pitch": 49,
                "velocity": 1,
                "duration": 0.1,
                "tempo": 120.0
            },
            {
                "pitch": 37,
                "velocity": 1,
                "duration": 0.1,
                "tempo": 120.0
            },
            {
                "pitch": 0,
                "velocity": 0,
                "duration": 0.1023,
                "tempo": 0
            },
            {
                "pitch": 37,
                "velocity": 1,
                "duration": 0.1,
                "tempo": 120.0
            },
            {
                "pitch": 37,
                "velocity": 1,
                "duration": 0.0977,
                "tempo": 120.0
            },
            {
                "pitch": 49,
                "velocity": 1,
                "duration": 0.1,
                "tempo": 120.0
            },
            {
                "pitch": 37,
                "velocity": 1,
                "duration": 0.1,
                "tempo": 120.0
            },
            {
                "pitch": 0,
                "velocity": 0,
                "duration": 0.1,
                "tempo": 0
            },
            {
                "pitch": 49,
                "velocity": 1,
                "duration": 0.0977,
                "tempo": 120.0
            },
            {
                "pitch": 0,
                "velocity": 0,
                "duration": 0.0977,
                "tempo": 0
            },
            {
                "pitch": 37,
                "velocity": 1,
                "duration": 0.0977,
                "tempo": 120.0
            },
            {
                "pitch": 0,
                "velocity": 0,
                "duration": 0.0977,
                "tempo": 0
            },
            {
                "pitch": 33,
                "velocity": 1,
                "duration": 0.1,
                "tempo": 120.0
            },
            {
                "pitch": 0,
                "velocity": 0,
                "duration": 0.1,
                "tempo": 0
            },
            {
                "pitch": 33,
                "velocity": 1,
                "duration": 0.1023,
                "tempo": 120.0
            },
            {
                "pitch": 0,
                "velocity": 0,
                "duration": 0.1,
                "tempo": 0
            },
            {
                "pitch": 33,
                "velocity": 1,
                "duration": 0.1,
                "tempo": 120.0
            },
            {
                "pitch": 33,
                "velocity": 1,
                "duration": 0.1,
                "tempo": 120.0
            },
            {
                "pitch": 0,
                "velocity": 0,
                "duration": 0.1,
                "tempo": 0
            },
            {
                "pitch": 33,
                "velocity": 1,
                "duration": 0.1,
                "tempo": 120.0
            },
            {
                "pitch": 33,
                "velocity": 1,
                "duration": 0.1,
                "tempo": 120.0
            },
            {
                "pitch": 0,
                "velocity": 0,
                "duration": 0.1,
                "tempo": 0
            },
            {
                "pitch": 33,
                "velocity": 1,
                "duration": 0.1,
                "tempo": 120.0
            },
            {
                "pitch": 0,
                "velocity": 0,
                "duration": 0.1,
                "tempo": 0
            },
            {
                "pitch": 33,
                "velocity": 1,
                "duration": 0.1,
                "tempo": 120.0
            },
            {
                "pitch": 0,
                "velocity": 0,
                "duration": 0.1,
                "tempo": 0
            },
            {
                "pitch": 33,
                "velocity": 1,
                "duration": 0.1,
                "tempo": 120.0
            },
            {
                "pitch": 45,
                "velocity": 1,
                "duration": 0.1,
                "tempo": 120.0
            },
            {
                "pitch": 35,
                "velocity": 1,
                "duration": 0.1,
                "tempo": 120.0
            },
            {
                "pitch": 0,
                "velocity": 0,
                "duration": 0.1,
                "tempo": 0
            },
            {
                "pitch": 35,
                "velocity": 1,
                "duration": 0.1,
                "tempo": 120.0
            },
            {
                "pitch": 0,
                "velocity": 0,
                "duration": 0.1,
                "tempo": 0
            },
            {
                "pitch": 35,
                "velocity": 1,
                "duration": 0.1,
                "tempo": 120.0
            },
            {
                "pitch": 35,
                "velocity": 1,
                "duration": 0.1,
                "tempo": 120.0
            },
            {
                "pitch": 0,
                "velocity": 0,
                "duration": 0.1,
                "tempo": 0
            },
            {
                "pitch": 35,
                "velocity": 1,
                "duration": 0.1023,
                "tempo": 120.0
            },
            {
                "pitch": 35,
                "velocity": 1,
                "duration": 0.1,
                "tempo": 120.0
            },
            {
                "pitch": 0,
                "velocity": 0,
                "duration": 0.1,
                "tempo": 0
            },
            {
                "pitch": 35,
                "velocity": 1,
                "duration": 0.1,
                "tempo": 120.0
            },
            {
                "pitch": 47,
                "velocity": 1,
                "duration": 0.1,
                "tempo": 120.0
            },
            {
                "pitch": 0,
                "velocity": 0,
                "duration": 0.0977,
                "tempo": 0
            },
            {
                "pitch": 35,
                "velocity": 1,
                "duration": 0.0977,
                "tempo": 120.0
            },
            {
                "pitch": 35,
                "velocity": 1,
                "duration": 0.0977,
                "tempo": 120.0
            },
            {
                "pitch": 0,
                "velocity": 0,
                "duration": 0.0977,
                "tempo": 0
            },
            {
                "pitch": 37,
                "velocity": 1,
                "duration": 0.1023,
                "tempo": 120.0
            },
            {
                "pitch": 0,
                "velocity": 0,
                "duration": 0.1023,
                "tempo": 0
            },
            {
                "pitch": 37,
                "velocity": 1,
                "duration": 0.1023,
                "tempo": 120.0
            },
            {
                "pitch": 0,
                "velocity": 0,
                "duration": 0.1023,
                "tempo": 0
            },
            {
                "pitch": 49,
                "velocity": 1,
                "duration": 0.0977,
                "tempo": 120.0
            },
            {
                "pitch": 37,
                "velocity": 1,
                "duration": 0.0977,
                "tempo": 120.0
            },
            {
                "pitch": 0,
                "velocity": 0,
                "duration": 0.0977,
                "tempo": 0
            },
            {
                "pitch": 37,
                "velocity": 1,
                "duration": 0.0977,
                "tempo": 120.0
            },
            {
                "pitch": 37,
                "velocity": 1,
                "duration": 0.1,
                "tempo": 120.0
            },
            {
                "pitch": 0,
                "velocity": 0,
                "duration": 0.1,
                "tempo": 0
            },
            {
                "pitch": 49,
                "velocity": 1,
                "duration": 0.1,
                "tempo": 120.0
            },
            {
                "pitch": 0,
                "velocity": 0,
                "duration": 0.1,
                "tempo": 0
            },
            {
                "pitch": 37,
                "velocity": 1,
                "duration": 0.1,
                "tempo": 120.0
            },
            {
                "pitch": 37,
                "velocity": 1,
                "duration": 0.1,
                "tempo": 120.0
            },
            {
                "pitch": 0,
                "velocity": 0,
                "duration": 0.1,
                "tempo": 0
            },
            {
                "pitch": 37,
                "velocity": 1,
                "duration": 0.1,
                "tempo": 120.0
            },
            {
                "pitch": 35,
                "velocity": 1,
                "duration": 0.1,
                "tempo": 120.0
            },
            {
                "pitch": 0,
                "velocity": 0,
                "duration": 0.1,
                "tempo": 0
            },
            {
                "pitch": 35,
                "velocity": 1,
                "duration": 0.1,
                "tempo": 120.0
            },
            {
                "pitch": 0,
                "velocity": 0,
                "duration": 0.1,
                "tempo": 0
            },
            {
                "pitch": 47,
                "velocity": 1,
                "duration": 0.1,
                "tempo": 120.0
            },
            {
                "pitch": 35,
                "velocity": 1,
                "duration": 0.1,
                "tempo": 120.0
            },
            {
                "pitch": 0,
                "velocity": 0,
                "duration": 0.1,
                "tempo": 0
            },
            {
                "pitch": 35,
                "velocity": 1,
                "duration": 0.1,
                "tempo": 120.0
            },
            {
                "pitch": 35,
                "velocity": 1,
                "duration": 0.0977,
                "tempo": 120.0
            },
            {
                "pitch": 47,
                "velocity": 1,
                "duration": 0.0977,
                "tempo": 120.0
            },
            {
                "pitch": 35,
                "velocity": 1,
                "duration": 0.0977,
                "tempo": 120.0
            },
            {
                "pitch": 0,
                "velocity": 0,
                "duration": 0.0977,
                "tempo": 0
            },
            {
                "pitch": 47,
                "velocity": 1,
                "duration": 0.1,
                "tempo": 120.0
            },
            {
                "pitch": 0,
                "velocity": 0,
                "duration": 0.1023,
                "tempo": 0
            },
            {
                "pitch": 36,
                "velocity": 1,
                "duration": 0.1,
                "tempo": 120.0
            }
        ],
        "Acoustic Grand Piano": [
            {
                "pitch": 0,
                "velocity": 0,
                "duration": 89.3295,
                "tempo": 0
            },
            {
                "pitch": 108,
                "velocity": 15,
                "duration": 0.1,
                "tempo": 120.0
            }
        ]
    }
}