{
    "track_id": "11 Visual Theme of Stacy (Visual Scene 2)_1",
    "mood": "happy",
    "instruments": {
        "Lead 1 (square)": [
            {
                "pitch": 39,
                "velocity": 10,
                "duration": 0.7955,
                "tempo": 120.0
            },
            {
                "pitch": 0,
                "velocity": 0,
                "duration": 0.0023,
                "tempo": 0
            },
            {
                "pitch": 36,
                "velocity": 10,
                "duration": 0.2205,
                "tempo": 120.0
            },
            {
                "pitch": 36,
                "velocity": 10,
                "duration": 0.0523,
                "tempo": 120.0
            },
            {
                "pitch": 36,
                "velocity": 10,
                "duration": 0.0841,
                "tempo": 120.0
            },
            {
                "pitch": 36,
                "velocity": 10,
                "duration": 0.0523,
                "tempo": 120.0
            },
            {
                "pitch": 40,
                "velocity": 10,
                "duration": 0.1364,
                "tempo": 120.0
            },
            {
                "pitch": 36,
                "velocity": 10,
                "duration": 0.0818,
                "tempo": 120.0
            },
            {
                "pitch": 36,
                "velocity": 10,
                "duration": 0.05,
                "tempo": 120.0
            },
            {
                "pitch": 40,
                "velocity": 10,
                "duration": 0.1318,
                "tempo": 120.0
            },
            {
                "pitch": 36,
                "velocity": 10,
                "duration": 0.0841,
                "tempo": 120.0
            },
            {
                "pitch": 36,
                "velocity": 10,
                "duration": 0.05,
                "tempo": 120.0
            },
            {
                "pitch": 40,
                "velocity": 10,
                "duration": 0.1341,
                "tempo": 120.0
            },
            {
                "pitch": 36,
                "velocity": 10,
                "duration": 0.0818,
                "tempo": 120.0
            },
            {
                "pitch": 36,
                "velocity": 10,
                "duration": 0.0523,
                "tempo": 120.0
            },
            {
                "pitch": 34,
                "velocity": 10,
                "duration": 0.7977,
                "tempo": 120.0
            },
            {
                "pitch": 39,
                "velocity": 10,
                "duration": 0.7932,
                "tempo": 120.0
            },
            {
                "pitch": 36,
                "velocity": 10,
                "duration": 0.2159,
                "tempo": 120.0
            },
            {
                "pitch": 36,
                "velocity": 10,
                "duration": 0.05,
                "tempo": 120.0
            },
            {
                "pitch": 40,
                "velocity": 10,
                "duration": 1.9909,
                "tempo": 120.0
            },
            {
                "pitch": 36,
                "velocity": 10,
                "duration": 0.0841,
                "tempo": 120.0
            },
            {
                "pitch": 36,
                "velocity": 10,
                "duration": 0.05,
                "tempo": 120.0
            },
            {
                "pitch": 40,
                "velocity": 10,
                "duration": 0.1341,
                "tempo": 120.0
            },
            {
                "pitch": 36,
                "velocity": 10,
                "duration": 0.0864,
                "tempo": 120.0
            },
            {
                "pitch": 36,
                "velocity": 10,
                "duration": 0.05,
                "tempo": 120.0
            },
            {
                "pitch": 40,
                "velocity": 10,
                "duration": 0.1364,
                "tempo": 120.0
            },
            {
                "pitch": 36,
                "velocity": 10,
                "duration": 0.0864,
                "tempo": 120.0
            },
            {
                "pitch": 36,
                "velocity": 10,
                "duration": 0.05,
                "tempo": 120.0
            },
            {
                "pitch": 40,
                "velocity": 10,
                "duration": 0.1364,
                "tempo": 120.0
            },
            {
                "pitch": 36,
                "velocity": 10,
                "duration": 0.0864,
                "tempo": 120.0
            },
            {
                "pitch": 36,
                "velocity": 10,
                "duration": 0.0523,
                "tempo": 120.0
            },
            {
                "pitch": 39,
                "velocity": 10,
                "duration": 1.5886,
                "tempo": 120.0
            },
            {
                "pitch": 0,
                "velocity": 0,
                "duration": 0.0023,
                "tempo": 0
            },
            {
                "pitch": 38,
                "velocity": 10,
                "duration": 0.7886,
                "tempo": 120.0
            },
            {
                "pitch": 0,
                "velocity": 0,
                "duration": 0.0023,
                "tempo": 0
            },
            {
                "pitch": 43,
                "velocity": 10,
                "duration": 0.2136,
                "tempo": 120.0
            },
            {
                "pitch": 43,
                "velocity": 10,
                "duration": 0.05,
                "tempo": 120.0
            },
            {
                "pitch": 43,
                "velocity": 10,
                "duration": 0.0841,
                "tempo": 120.0
            },
            {
                "pitch": 55,
                "velocity": 10,
                "duration": 0.1341,
                "tempo": 120.0
            },
            {
                "pitch": 43,
                "velocity": 10,
                "duration": 0.05,
                "tempo": 120.0
            },
            {
                "pitch": 43,
                "velocity": 10,
                "duration": 0.0795,
                "tempo": 120.0
            },
            {
                "pitch": 55,
                "velocity": 10,
                "duration": 0.1295,
                "tempo": 120.0
            },
            {
                "pitch": 43,
                "velocity": 10,
                "duration": 0.05,
                "tempo": 120.0
            },
            {
                "pitch": 43,
                "velocity": 10,
                "duration": 0.0818,
                "tempo": 120.0
            },
            {
                "pitch": 55,
                "velocity": 10,
                "duration": 0.1318,
                "tempo": 120.0
            },
            {
                "pitch": 43,
                "velocity": 10,
                "duration": 0.0477,
                "tempo": 120.0
            },
            {
                "pitch": 43,
                "velocity": 10,
                "duration": 0.0818,
                "tempo": 120.0
            },
            {
                "pitch": 55,
                "velocity": 10,
                "duration": 0.1295,
                "tempo": 120.0
            },
            {
                "pitch": 43,
                "velocity": 10,
                "duration": 0.05,
                "tempo": 120.0
            },
            {
                "pitch": 0,
                "velocity": 0,
                "duration": 0.4,
                "tempo": 0
            },
            {
                "pitch": 43,
                "velocity": 10,
                "duration": 0.2023,
                "tempo": 120.0
            },
            {
                "pitch": 0,
                "velocity": 0,
                "duration": 0.0023,
                "tempo": 0
            },
            {
                "pitch": 45,
                "velocity": 10,
                "duration": 0.2045,
                "tempo": 120.0
            },
            {
                "pitch": 43,
                "velocity": 10,
                "duration": 0.2159,
                "tempo": 120.0
            },
            {
                "pitch": 55,
                "velocity": 10,
                "duration": 1.075,
                "tempo": 120.0
            },
            {
                "pitch": 43,
                "velocity": 10,
                "duration": 0.05,
                "tempo": 120.0
            },
            {
                "pitch": 43,
                "velocity": 10,
                "duration": 0.0818,
                "tempo": 120.0
            },
            {
                "pitch": 55,
                "velocity": 10,
                "duration": 0.1318,
                "tempo": 120.0
            },
            {
                "pitch": 43,
                "velocity": 10,
                "duration": 0.0523,
                "tempo": 120.0
            },
            {
                "pitch": 43,
                "velocity": 10,
                "duration": 0.0818,
                "tempo": 120.0
            },
            {
                "pitch": 55,
                "velocity": 10,
                "duration": 0.1341,
                "tempo": 120.0
            },
            {
                "pitch": 43,
                "velocity": 10,
                "duration": 0.05,
                "tempo": 120.0
            },
            {
                "pitch": 43,
                "velocity": 10,
                "duration": 0.0841,
                "tempo": 120.0
            },
            {
                "pitch": 55,
                "velocity": 10,
                "duration": 0.1341,
                "tempo": 120.0
            },
            {
                "pitch": 43,
                "velocity": 10,
                "duration": 0.05,
                "tempo": 120.0
            },
            {
                "pitch": 43,
                "velocity": 10,
                "duration": 0.0841,
                "tempo": 120.0
            },
            {
                "pitch": 55,
                "velocity": 10,
                "duration": 0.1341,
                "tempo": 120.0
            },
            {
                "pitch": 43,
                "velocity": 10,
                "duration": 0.05,
                "tempo": 120.0
            },
            {
                "pitch": 43,
                "velocity": 10,
                "duration": 0.0841,
                "tempo": 120.0
            },
            {
                "pitch": 55,
                "velocity": 10,
                "duration": 0.1341,
                "tempo": 120.0
            },
            {
                "pitch": 43,
                "velocity": 10,
                "duration": 0.05,
                "tempo": 120.0
            },
            {
                "pitch": 43,
                "velocity": 10,
                "duration": 0.0841,
                "tempo": 120.0
            },
            {
                "pitch": 55,
                "velocity": 10,
                "duration": 0.1341,
                "tempo": 120.0
            },
            {
                "pitch": 43,
                "velocity": 10,
                "duration": 0.05,
                "tempo": 120.0
            },
            {
                "pitch": 43,
                "velocity": 10,
                "duration": 0.0841,
                "tempo": 120.0
            },
            {
                "pitch": 55,
                "velocity": 10,
                "duration": 0.1341,
                "tempo": 120.0
            },
            {
                "pitch": 43,
                "velocity": 10,
                "duration": 0.05,
                "tempo": 120.0
            },
            {
                "pitch": 43,
                "velocity": 10,
                "duration": 0.0818,
                "tempo": 120.0
            },
            {
                "pitch": 43,
                "velocity": 10,
                "duration": 0.0477,
                "tempo": 120.0
            },
            {
                "pitch": 43,
                "velocity": 10,
                "duration": 0.0818,
                "tempo": 120.0
            },
            {
                "pitch": 55,
                "velocity": 10,
                "duration": 0.2614,
                "tempo": 120.0
            },
            {
                "pitch": 43,
                "velocity": 10,
                "duration": 0.05,
                "tempo": 120.0
            },
            {
                "pitch": 43,
                "velocity": 10,
                "duration": 0.0795,
                "tempo": 120.0
            },
            {
                "pitch": 55,
                "velocity": 10,
                "duration": 0.1295,
                "tempo": 120.0
            },
            {
                "pitch": 43,
                "velocity": 10,
                "duration": 0.05,
                "tempo": 120.0
            },
            {
                "pitch": 0,
                "velocity": 0,
                "duration": 0.0023,
                "tempo": 0
            },
            {
                "pitch": 41,
                "velocity": 10,
                "duration": 1.6,
                "tempo": 120.0
            },
            {
                "pitch": 41,
                "velocity": 10,
                "duration": 0.2,
                "tempo": 120.0
            },
            {
                "pitch": 43,
                "velocity": 10,
                "duration": 0.2,
                "tempo": 120.0
            },
            {
                "pitch": 0,
                "velocity": 0,
                "duration": 0.0023,
                "tempo": 0
            },
            {
                "pitch": 41,
                "velocity": 10,
                "duration": 1.1886,
                "tempo": 120.0
            },
            {
                "pitch": 0,
                "velocity": 0,
                "duration": 0.0023,
                "tempo": 0
            },
            {
                "pitch": 43,
                "velocity": 10,
                "duration": 0.2159,
                "tempo": 120.0
            },
            {
                "pitch": 55,
                "velocity": 10,
                "duration": 3.4614,
                "tempo": 120.0
            },
            {
                "pitch": 43,
                "velocity": 10,
                "duration": 0.05,
                "tempo": 120.0
            },
            {
                "pitch": 43,
                "velocity": 10,
                "duration": 0.0841,
                "tempo": 120.0
            },
            {
                "pitch": 43,
                "velocity": 10,
                "duration": 0.05,
                "tempo": 120.0
            },
            {
                "pitch": 43,
                "velocity": 10,
                "duration": 0.0841,
                "tempo": 120.0
            },
            {
                "pitch": 55,
                "velocity": 10,
                "duration": 0.2682,
                "tempo": 120.0
            },
            {
                "pitch": 43,
                "velocity": 10,
                "duration": 0.05,
                "tempo": 120.0
            },
            {
                "pitch": 43,
                "velocity": 10,
                "duration": 0.0841,
                "tempo": 120.0
            },
            {
                "pitch": 43,
                "velocity": 10,
                "duration": 0.05,
                "tempo": 120.0
            },
            {
                "pitch": 43,
                "velocity": 10,
                "duration": 0.0841,
                "tempo": 120.0
            },
            {
                "pitch": 43,
                "velocity": 10,
                "duration": 0.05,
                "tempo": 120.0
            },
            {
                "pitch": 0,
                "velocity": 0,
                "duration": 0.4,
                "tempo": 0
            },
            {
                "pitch": 43,
                "velocity": 10,
                "duration": 0.2,
                "tempo": 120.0
            },
            {
                "pitch": 45,
                "velocity": 10,
                "duration": 0.2,
                "tempo": 120.0
            },
            {
                "pitch": 43,
                "velocity": 10,
                "duration": 0.2182,
                "tempo": 120.0
            },
            {
                "pitch": 55,
                "velocity": 10,
                "duration": 1.3364,
                "tempo": 120.0
            },
            {
                "pitch": 43,
                "velocity": 10,
                "duration": 0.05,
                "tempo": 120.0
            },
            {
                "pitch": 43,
                "velocity": 10,
                "duration": 0.0841,
                "tempo": 120.0
            },
            {
                "pitch": 43,
                "velocity": 10,
                "duration": 0.05,
                "tempo": 120.0
            },
            {
                "pitch": 43,
                "velocity": 10,
                "duration": 0.0841,
                "tempo": 120.0
            },
            {
                "pitch": 55,
                "velocity": 10,
                "duration": 0.2682,
                "tempo": 120.0
            },
            {
                "pitch": 43,
                "velocity": 10,
                "duration": 0.0523,
                "tempo": 120.0
            },
            {
                "pitch": 43,
                "velocity": 10,
                "duration": 0.0841,
                "tempo": 120.0
            },
            {
                "pitch": 55,
                "velocity": 10,
                "duration": 0.1364,
                "tempo": 120.0
            },
            {
                "pitch": 43,
                "velocity": 10,
                "duration": 0.0523,
                "tempo": 120.0
            },
            {
                "pitch": 43,
                "velocity": 10,
                "duration": 0.0841,
                "tempo": 120.0
            },
            {
                "pitch": 55,
                "velocity": 10,
                "duration": 0.1386,
                "tempo": 120.0
            },
            {
                "pitch": 55,
                "velocity": 10,
                "duration": 0.0023,
                "tempo": 120.0
            },
            {
                "pitch": 43,
                "velocity": 10,
                "duration": 0.05,
                "tempo": 120.0
            },
            {
                "pitch": 43,
                "velocity": 10,
                "duration": 0.0795,
                "tempo": 120.0
            },
            {
                "pitch": 43,
                "velocity": 10,
                "duration": 0.0477,
                "tempo": 120.0
            },
            {
                "pitch": 43,
                "velocity": 10,
                "duration": 0.0795,
                "tempo": 120.0
            },
            {
                "pitch": 43,
                "velocity": 10,
                "duration": 0.0477,
                "tempo": 120.0
            },
            {
                "pitch": 43,
                "velocity": 10,
                "duration": 0.0795,
                "tempo": 120.0
            },
            {
                "pitch": 55,
                "velocity": 10,
                "duration": 0.1273,
                "tempo": 120.0
            },
            {
                "pitch": 43,
                "velocity": 10,
                "duration": 0.0477,
                "tempo": 120.0
            },
            {
                "pitch": 43,
                "velocity": 10,
                "duration": 0.0841,
                "tempo": 120.0
            },
            {
                "pitch": 55,
                "velocity": 10,
                "duration": 0.1318,
                "tempo": 120.0
            },
            {
                "pitch": 43,
                "velocity": 10,
                "duration": 0.0523,
                "tempo": 120.0
            },
            {
                "pitch": 43,
                "velocity": 10,
                "duration": 0.0841,
                "tempo": 120.0
            },
            {
                "pitch": 55,
                "velocity": 10,
                "duration": 0.1364,
                "tempo": 120.0
            },
            {
                "pitch": 43,
                "velocity": 10,
                "duration": 0.0523,
                "tempo": 120.0
            },
            {
                "pitch": 43,
                "velocity": 10,
                "duration": 0.0841,
                "tempo": 120.0
            },
            {
                "pitch": 55,
                "velocity": 10,
                "duration": 0.1364,
                "tempo": 120.0
            },
            {
                "pitch": 43,
                "velocity": 10,
                "duration": 0.0523,
                "tempo": 120.0
            },
            {
                "pitch": 41,
                "velocity": 10,
                "duration": 0.8,
                "tempo": 120.0
            },
            {
                "pitch": 0,
                "velocity": 0,
                "duration": 0.4,
                "tempo": 0
            },
            {
                "pitch": 41,
                "velocity": 10,
                "duration": 0.2,
                "tempo": 120.0
            },
            {
                "pitch": 43,
                "velocity": 10,
                "duration": 0.2,
                "tempo": 120.0
            },
            {
                "pitch": 0,
                "velocity": 0,
                "duration": 0.0023,
                "tempo": 0
            },
            {
                "pitch": 41,
                "velocity": 10,
                "duration": 1.5909,
                "tempo": 120.0
            },
            {
                "pitch": 0,
                "velocity": 0,
                "duration": 1.5909,
                "tempo": 0
            },
            {
                "pitch": 39,
                "velocity": 10,
                "duration": 0.8091,
                "tempo": 120.0
            },
            {
                "pitch": 0,
                "velocity": 0,
                "duration": 0.4023,
                "tempo": 0
            },
            {
                "pitch": 38,
                "velocity": 10,
                "duration": 0.1932,
                "tempo": 120.0
            },
            {
                "pitch": 0,
                "velocity": 0,
                "duration": 0.0023,
                "tempo": 0
            },
            {
                "pitch": 39,
                "velocity": 10,
                "duration": 1.8068,
                "tempo": 120.0
            },
            {
                "pitch": 39,
                "velocity": 10,
                "duration": 0.7932,
                "tempo": 120.0
            },
            {
                "pitch": 0,
                "velocity": 0,
                "duration": 0.4,
                "tempo": 0
            },
            {
                "pitch": 38,
                "velocity": 10,
                "duration": 0.2,
                "tempo": 120.0
            },
            {
                "pitch": 39,
                "velocity": 10,
                "duration": 1.7909,
                "tempo": 120.0
            },
            {
                "pitch": 39,
                "velocity": 10,
                "duration": 0.8795,
                "tempo": 120.0
            },
            {
                "pitch": 0,
                "velocity": 0,
                "duration": 0.4591,
                "tempo": 0
            },
            {
                "pitch": 38,
                "velocity": 10,
                "duration": 0.2318,
                "tempo": 120.0
            },
            {
                "pitch": 0,
                "velocity": 0,
                "duration": 0.0023,
                "tempo": 0
            },
            {
                "pitch": 39,
                "velocity": 10,
                "duration": 2.6432,
                "tempo": 120.0
            },
            {
                "pitch": 0,
                "velocity": 0,
                "duration": 0.0023,
                "tempo": 0
            },
            {
                "pitch": 41,
                "velocity": 10,
                "duration": 2.9045,
                "tempo": 120.0
            },
            {
                "pitch": 40,
                "velocity": 10,
                "duration": 31.9045,
                "tempo": 120.0
            },
            {
                "pitch": 40,
                "velocity": 10,
                "duration": 1.4864,
                "tempo": 120.0
            }
        ],
        "Synth Bass 1": [
            {
                "pitch": 0,
                "velocity": 0,
                "duration": 1.0023,
                "tempo": 0
            },
            {
                "pitch": 55,
                "velocity": 1,
                "duration": 0.1182,
                "tempo": 120.0
            },
            {
                "pitch": 55,
                "velocity": 1,
                "duration": 0.0523,
                "tempo": 120.0
            },
            {
                "pitch": 55,
                "velocity": 1,
                "duration": 0.0341,
                "tempo": 120.0
            },
            {
                "pitch": 56,
                "velocity": 1,
                "duration": 0.2,
                "tempo": 120.0
            },
            {
                "pitch": 55,
                "velocity": 1,
                "duration": 0.1159,
                "tempo": 120.0
            },
            {
                "pitch": 67,
                "velocity": 1,
                "duration": 0.4023,
                "tempo": 120.0
            },
            {
                "pitch": 55,
                "velocity": 1,
                "duration": 0.05,
                "tempo": 120.0
            },
            {
                "pitch": 55,
                "velocity": 1,
                "duration": 0.0318,
                "tempo": 120.0
            },
            {
                "pitch": 0,
                "velocity": 0,
                "duration": 0.0023,
                "tempo": 0
            },
            {
                "pitch": 53,
                "velocity": 1,
                "duration": 0.1977,
                "tempo": 120.0
            },
            {
                "pitch": 51,
                "velocity": 1,
                "duration": 0.2,
                "tempo": 120.0
            },
            {
                "pitch": 53,
                "velocity": 1,
                "duration": 0.2,
                "tempo": 120.0
            },
            {
                "pitch": 51,
                "velocity": 1,
                "duration": 0.1977,
                "tempo": 120.0
            },
            {
                "pitch": 0,
                "velocity": 0,
                "duration": 0.0023,
                "tempo": 0
            },
            {
                "pitch": 46,
                "velocity": 1,
                "duration": 0.4,
                "tempo": 120.0
            },
            {
                "pitch": 0,
                "velocity": 0,
                "duration": 0.0023,
                "tempo": 0
            },
            {
                "pitch": 58,
                "velocity": 1,
                "duration": 0.3886,
                "tempo": 120.0
            },
            {
                "pitch": 0,
                "velocity": 0,
                "duration": 0.0023,
                "tempo": 0
            },
            {
                "pitch": 56,
                "velocity": 1,
                "duration": 0.4,
                "tempo": 120.0
            },
            {
                "pitch": 55,
                "velocity": 1,
                "duration": 0.1205,
                "tempo": 120.0
            },
            {
                "pitch": 67,
                "velocity": 1,
                "duration": 2.1955,
                "tempo": 120.0
            },
            {
                "pitch": 55,
                "velocity": 1,
                "duration": 0.05,
                "tempo": 120.0
            },
            {
                "pitch": 55,
                "velocity": 1,
                "duration": 0.0341,
                "tempo": 120.0
            },
            {
                "pitch": 53,
                "velocity": 1,
                "duration": 0.2045,
                "tempo": 120.0
            },
            {
                "pitch": 0,
                "velocity": 0,
                "duration": 0.0023,
                "tempo": 0
            },
            {
                "pitch": 51,
                "velocity": 1,
                "duration": 0.7886,
                "tempo": 120.0
            },
            {
                "pitch": 0,
                "velocity": 0,
                "duration": 0.0023,
                "tempo": 0
            },
            {
                "pitch": 48,
                "velocity": 1,
                "duration": 0.1136,
                "tempo": 120.0
            },
            {
                "pitch": 48,
                "velocity": 1,
                "duration": 0.05,
                "tempo": 120.0
            },
            {
                "pitch": 48,
                "velocity": 1,
                "duration": 0.0341,
                "tempo": 120.0
            },
            {
                "pitch": 51,
                "velocity": 1,
                "duration": 0.2,
                "tempo": 120.0
            },
            {
                "pitch": 53,
                "velocity": 1,
                "duration": 1.5886,
                "tempo": 120.0
            },
            {
                "pitch": 0,
                "velocity": 0,
                "duration": 1.6023,
                "tempo": 0
            },
            {
                "pitch": 48,
                "velocity": 1,
                "duration": 0.1159,
                "tempo": 120.0
            },
            {
                "pitch": 48,
                "velocity": 1,
                "duration": 0.05,
                "tempo": 120.0
            },
            {
                "pitch": 52,
                "velocity": 1,
                "duration": 3.5909,
                "tempo": 120.0
            },
            {
                "pitch": 48,
                "velocity": 1,
                "duration": 0.0341,
                "tempo": 120.0
            },
            {
                "pitch": 55,
                "velocity": 1,
                "duration": 0.1159,
                "tempo": 120.0
            },
            {
                "pitch": 67,
                "velocity": 1,
                "duration": 4.9864,
                "tempo": 120.0
            },
            {
                "pitch": 55,
                "velocity": 1,
                "duration": 0.05,
                "tempo": 120.0
            },
            {
                "pitch": 55,
                "velocity": 1,
                "duration": 0.0841,
                "tempo": 120.0
            },
            {
                "pitch": 55,
                "velocity": 1,
                "duration": 0.05,
                "tempo": 120.0
            },
            {
                "pitch": 55,
                "velocity": 1,
                "duration": 0.0841,
                "tempo": 120.0
            },
            {
                "pitch": 55,
                "velocity": 1,
                "duration": 0.0159,
                "tempo": 120.0
            },
            {
                "pitch": 0,
                "velocity": 0,
                "duration": 0.0023,
                "tempo": 0
            },
            {
                "pitch": 53,
                "velocity": 1,
                "duration": 0.2,
                "tempo": 120.0
            },
            {
                "pitch": 52,
                "velocity": 1,
                "duration": 1.0273,
                "tempo": 120.0
            },
            {
                "pitch": 52,
                "velocity": 1,
                "duration": 0.3909,
                "tempo": 120.0
            },
            {
                "pitch": 53,
                "velocity": 1,
                "duration": 0.3977,
                "tempo": 120.0
            },
            {
                "pitch": 0,
                "velocity": 0,
                "duration": 0.0023,
                "tempo": 0
            },
            {
                "pitch": 52,
                "velocity": 1,
                "duration": 0.4091,
                "tempo": 120.0
            },
            {
                "pitch": 36,
                "velocity": 1,
                "duration": 5.5932,
                "tempo": 120.0
            },
            {
                "pitch": 48,
                "velocity": 1,
                "duration": 0.1159,
                "tempo": 120.0
            },
            {
                "pitch": 48,
                "velocity": 1,
                "duration": 0.05,
                "tempo": 120.0
            },
            {
                "pitch": 36,
                "velocity": 1,
                "duration": 0.1341,
                "tempo": 120.0
            },
            {
                "pitch": 48,
                "velocity": 1,
                "duration": 0.0841,
                "tempo": 120.0
            },
            {
                "pitch": 48,
                "velocity": 1,
                "duration": 0.05,
                "tempo": 120.0
            },
            {
                "pitch": 52,
                "velocity": 1,
                "duration": 0.1341,
                "tempo": 120.0
            },
            {
                "pitch": 36,
                "velocity": 1,
                "duration": 0.1341,
                "tempo": 120.0
            },
            {
                "pitch": 48,
                "velocity": 1,
                "duration": 0.0841,
                "tempo": 120.0
            },
            {
                "pitch": 48,
                "velocity": 1,
                "duration": 0.05,
                "tempo": 120.0
            },
            {
                "pitch": 52,
                "velocity": 1,
                "duration": 0.1341,
                "tempo": 120.0
            },
            {
                "pitch": 36,
                "velocity": 1,
                "duration": 0.1318,
                "tempo": 120.0
            },
            {
                "pitch": 48,
                "velocity": 1,
                "duration": 0.0818,
                "tempo": 120.0
            },
            {
                "pitch": 48,
                "velocity": 1,
                "duration": 0.0477,
                "tempo": 120.0
            },
            {
                "pitch": 52,
                "velocity": 1,
                "duration": 0.1295,
                "tempo": 120.0
            },
            {
                "pitch": 48,
                "velocity": 1,
                "duration": 0.0341,
                "tempo": 120.0
            },
            {
                "pitch": 0,
                "velocity": 0,
                "duration": 0.3955,
                "tempo": 0
            },
            {
                "pitch": 43,
                "velocity": 1,
                "duration": 0.1182,
                "tempo": 120.0
            },
            {
                "pitch": 43,
                "velocity": 1,
                "duration": 0.05,
                "tempo": 120.0
            },
            {
                "pitch": 43,
                "velocity": 1,
                "duration": 0.0318,
                "tempo": 120.0
            },
            {
                "pitch": 0,
                "velocity": 0,
                "duration": 0.0023,
                "tempo": 0
            },
            {
                "pitch": 45,
                "velocity": 1,
                "duration": 0.2023,
                "tempo": 120.0
            },
            {
                "pitch": 36,
                "velocity": 1,
                "duration": 1.0023,
                "tempo": 120.0
            },
            {
                "pitch": 48,
                "velocity": 1,
                "duration": 0.1182,
                "tempo": 120.0
            },
            {
                "pitch": 48,
                "velocity": 1,
                "duration": 0.0523,
                "tempo": 120.0
            },
            {
                "pitch": 52,
                "velocity": 1,
                "duration": 1.0068,
                "tempo": 120.0
            },
            {
                "pitch": 36,
                "velocity": 1,
                "duration": 0.1364,
                "tempo": 120.0
            },
            {
                "pitch": 48,
                "velocity": 1,
                "duration": 0.0841,
                "tempo": 120.0
            },
            {
                "pitch": 48,
                "velocity": 1,
                "duration": 0.05,
                "tempo": 120.0
            },
            {
                "pitch": 36,
                "velocity": 1,
                "duration": 0.1318,
                "tempo": 120.0
            },
            {
                "pitch": 48,
                "velocity": 1,
                "duration": 0.0818,
                "tempo": 120.0
            },
            {
                "pitch": 48,
                "velocity": 1,
                "duration": 0.05,
                "tempo": 120.0
            },
            {
                "pitch": 36,
                "velocity": 1,
                "duration": 0.1341,
                "tempo": 120.0
            },
            {
                "pitch": 48,
                "velocity": 1,
                "duration": 0.0841,
                "tempo": 120.0
            },
            {
                "pitch": 48,
                "velocity": 1,
                "duration": 0.05,
                "tempo": 120.0
            },
            {
                "pitch": 36,
                "velocity": 1,
                "duration": 0.1295,
                "tempo": 120.0
            },
            {
                "pitch": 48,
                "velocity": 1,
                "duration": 0.0795,
                "tempo": 120.0
            },
            {
                "pitch": 48,
                "velocity": 1,
                "duration": 0.0477,
                "tempo": 120.0
            },
            {
                "pitch": 52,
                "velocity": 1,
                "duration": 0.5273,
                "tempo": 120.0
            },
            {
                "pitch": 36,
                "velocity": 1,
                "duration": 0.1273,
                "tempo": 120.0
            },
            {
                "pitch": 48,
                "velocity": 1,
                "duration": 0.0795,
                "tempo": 120.0
            },
            {
                "pitch": 48,
                "velocity": 1,
                "duration": 0.0159,
                "tempo": 120.0
            },
            {
                "pitch": 36,
                "velocity": 1,
                "duration": 2.3318,
                "tempo": 120.0
            },
            {
                "pitch": 48,
                "velocity": 1,
                "duration": 0.1182,
                "tempo": 120.0
            },
            {
                "pitch": 48,
                "velocity": 1,
                "duration": 0.0523,
                "tempo": 120.0
            },
            {
                "pitch": 52,
                "velocity": 1,
                "duration": 2.4636,
                "tempo": 120.0
            },
            {
                "pitch": 48,
                "velocity": 1,
                "duration": 0.0341,
                "tempo": 120.0
            },
            {
                "pitch": 55,
                "velocity": 1,
                "duration": 3.6023,
                "tempo": 120.0
            },
            {
                "pitch": 55,
                "velocity": 1,
                "duration": 0.1182,
                "tempo": 120.0
            },
            {
                "pitch": 67,
                "velocity": 1,
                "duration": 6.4,
                "tempo": 120.0
            },
            {
                "pitch": 55,
                "velocity": 1,
                "duration": 0.0523,
                "tempo": 120.0
            },
            {
                "pitch": 55,
                "velocity": 1,
                "duration": 0.0818,
                "tempo": 120.0
            },
            {
                "pitch": 67,
                "velocity": 1,
                "duration": 0.1341,
                "tempo": 120.0
            },
            {
                "pitch": 55,
                "velocity": 1,
                "duration": 0.0477,
                "tempo": 120.0
            },
            {
                "pitch": 55,
                "velocity": 1,
                "duration": 0.0795,
                "tempo": 120.0
            },
            {
                "pitch": 67,
                "velocity": 1,
                "duration": 0.1273,
                "tempo": 120.0
            },
            {
                "pitch": 55,
                "velocity": 1,
                "duration": 0.0136,
                "tempo": 120.0
            },
            {
                "pitch": 0,
                "velocity": 0,
                "duration": 0.0023,
                "tempo": 0
            },
            {
                "pitch": 57,
                "velocity": 1,
                "duration": 0.1886,
                "tempo": 120.0
            },
            {
                "pitch": 0,
                "velocity": 0,
                "duration": 0.0023,
                "tempo": 0
            },
            {
                "pitch": 60,
                "velocity": 1,
                "duration": 0.1182,
                "tempo": 120.0
            },
            {
                "pitch": 60,
                "velocity": 1,
                "duration": 0.05,
                "tempo": 120.0
            },
            {
                "pitch": 48,
                "velocity": 1,
                "duration": 0.1364,
                "tempo": 120.0
            },
            {
                "pitch": 60,
                "velocity": 1,
                "duration": 0.0864,
                "tempo": 120.0
            },
            {
                "pitch": 60,
                "velocity": 1,
                "duration": 0.0523,
                "tempo": 120.0
            },
            {
                "pitch": 64,
                "velocity": 1,
                "duration": 0.1386,
                "tempo": 120.0
            },
            {
                "pitch": 48,
                "velocity": 1,
                "duration": 0.1364,
                "tempo": 120.0
            },
            {
                "pitch": 60,
                "velocity": 1,
                "duration": 0.0841,
                "tempo": 120.0
            },
            {
                "pitch": 60,
                "velocity": 1,
                "duration": 0.0182,
                "tempo": 120.0
            },
            {
                "pitch": 57,
                "velocity": 1,
                "duration": 0.6,
                "tempo": 120.0
            },
            {
                "pitch": 62,
                "velocity": 1,
                "duration": 0.4,
                "tempo": 120.0
            },
            {
                "pitch": 64,
                "velocity": 1,
                "duration": 1.5023,
                "tempo": 120.0
            },
            {
                "pitch": 64,
                "velocity": 1,
                "duration": 0.4,
                "tempo": 120.0
            },
            {
                "pitch": 62,
                "velocity": 1,
                "duration": 0.4,
                "tempo": 120.0
            },
            {
                "pitch": 48,
                "velocity": 1,
                "duration": 1.9341,
                "tempo": 120.0
            },
            {
                "pitch": 60,
                "velocity": 1,
                "duration": 0.1159,
                "tempo": 120.0
            },
            {
                "pitch": 60,
                "velocity": 1,
                "duration": 0.05,
                "tempo": 120.0
            },
            {
                "pitch": 48,
                "velocity": 1,
                "duration": 0.1341,
                "tempo": 120.0
            },
            {
                "pitch": 60,
                "velocity": 1,
                "duration": 0.0841,
                "tempo": 120.0
            },
            {
                "pitch": 60,
                "velocity": 1,
                "duration": 0.0523,
                "tempo": 120.0
            },
            {
                "pitch": 64,
                "velocity": 1,
                "duration": 0.1364,
                "tempo": 120.0
            },
            {
                "pitch": 48,
                "velocity": 1,
                "duration": 0.1364,
                "tempo": 120.0
            },
            {
                "pitch": 60,
                "velocity": 1,
                "duration": 0.0841,
                "tempo": 120.0
            },
            {
                "pitch": 60,
                "velocity": 1,
                "duration": 0.0182,
                "tempo": 120.0
            },
            {
                "pitch": 64,
                "velocity": 1,
                "duration": 0.1023,
                "tempo": 120.0
            },
            {
                "pitch": 60,
                "velocity": 1,
                "duration": 1.5818,
                "tempo": 120.0
            },
            {
                "pitch": 36,
                "velocity": 1,
                "duration": 6.1886,
                "tempo": 120.0
            },
            {
                "pitch": 48,
                "velocity": 1,
                "duration": 2.9205,
                "tempo": 120.0
            },
            {
                "pitch": 48,
                "velocity": 1,
                "duration": 0.1182,
                "tempo": 120.0
            },
            {
                "pitch": 48,
                "velocity": 1,
                "duration": 0.0523,
                "tempo": 120.0
            },
            {
                "pitch": 52,
                "velocity": 1,
                "duration": 6.1886,
                "tempo": 120.0
            },
            {
                "pitch": 48,
                "velocity": 1,
                "duration": 0.0341,
                "tempo": 120.0
            },
            {
                "pitch": 50,
                "velocity": 1,
                "duration": 0.2,
                "tempo": 120.0
            },
            {
                "pitch": 51,
                "velocity": 1,
                "duration": 0.4,
                "tempo": 120.0
            },
            {
                "pitch": 51,
                "velocity": 1,
                "duration": 0.2,
                "tempo": 120.0
            },
            {
                "pitch": 0,
                "velocity": 0,
                "duration": 0.0023,
                "tempo": 0
            },
            {
                "pitch": 51,
                "velocity": 1,
                "duration": 0.3886,
                "tempo": 120.0
            },
            {
                "pitch": 0,
                "velocity": 0,
                "duration": 0.0023,
                "tempo": 0
            },
            {
                "pitch": 53,
                "velocity": 1,
                "duration": 0.4091,
                "tempo": 120.0
            },
            {
                "pitch": 55,
                "velocity": 1,
                "duration": 0.1159,
                "tempo": 120.0
            },
            {
                "pitch": 67,
                "velocity": 1,
                "duration": 7.5273,
                "tempo": 120.0
            },
            {
                "pitch": 55,
                "velocity": 1,
                "duration": 0.05,
                "tempo": 120.0
            },
            {
                "pitch": 55,
                "velocity": 1,
                "duration": 0.0841,
                "tempo": 120.0
            },
            {
                "pitch": 55,
                "velocity": 1,
                "duration": 0.05,
                "tempo": 120.0
            },
            {
                "pitch": 55,
                "velocity": 1,
                "duration": 0.0841,
                "tempo": 120.0
            },
            {
                "pitch": 67,
                "velocity": 1,
                "duration": 0.2682,
                "tempo": 120.0
            },
            {
                "pitch": 55,
                "velocity": 1,
                "duration": 0.0159,
                "tempo": 120.0
            },
            {
                "pitch": 0,
                "velocity": 0,
                "duration": 0.0023,
                "tempo": 0
            },
            {
                "pitch": 56,
                "velocity": 1,
                "duration": 0.1932,
                "tempo": 120.0
            },
            {
                "pitch": 0,
                "velocity": 0,
                "duration": 0.0023,
                "tempo": 0
            },
            {
                "pitch": 55,
                "velocity": 1,
                "duration": 0.1136,
                "tempo": 120.0
            },
            {
                "pitch": 67,
                "velocity": 1,
                "duration": 0.3273,
                "tempo": 120.0
            },
            {
                "pitch": 55,
                "velocity": 1,
                "duration": 0.0477,
                "tempo": 120.0
            },
            {
                "pitch": 55,
                "velocity": 1,
                "duration": 0.0841,
                "tempo": 120.0
            },
            {
                "pitch": 67,
                "velocity": 1,
                "duration": 0.1318,
                "tempo": 120.0
            },
            {
                "pitch": 55,
                "velocity": 1,
                "duration": 0.05,
                "tempo": 120.0
            },
            {
                "pitch": 55,
                "velocity": 1,
                "duration": 0.0864,
                "tempo": 120.0
            },
            {
                "pitch": 55,
                "velocity": 1,
                "duration": 0.0182,
                "tempo": 120.0
            },
            {
                "pitch": 55,
                "velocity": 1,
                "duration": 0.4,
                "tempo": 120.0
            },
            {
                "pitch": 46,
                "velocity": 1,
                "duration": 0.1955,
                "tempo": 120.0
            },
            {
                "pitch": 36,
                "velocity": 1,
                "duration": 3.3977,
                "tempo": 120.0
            },
            {
                "pitch": 48,
                "velocity": 1,
                "duration": 0.1159,
                "tempo": 120.0
            },
            {
                "pitch": 48,
                "velocity": 1,
                "duration": 0.05,
                "tempo": 120.0
            },
            {
                "pitch": 52,
                "velocity": 1,
                "duration": 3.3955,
                "tempo": 120.0
            },
            {
                "pitch": 48,
                "velocity": 1,
                "duration": 0.0341,
                "tempo": 120.0
            },
            {
                "pitch": 51,
                "velocity": 1,
                "duration": 0.4,
                "tempo": 120.0
            },
            {
                "pitch": 0,
                "velocity": 0,
                "duration": 0.0023,
                "tempo": 0
            },
            {
                "pitch": 51,
                "velocity": 1,
                "duration": 0.1977,
                "tempo": 120.0
            },
            {
                "pitch": 0,
                "velocity": 0,
                "duration": 0.0023,
                "tempo": 0
            },
            {
                "pitch": 51,
                "velocity": 1,
                "duration": 0.4,
                "tempo": 120.0
            },
            {
                "pitch": 53,
                "velocity": 1,
                "duration": 0.3977,
                "tempo": 120.0
            },
            {
                "pitch": 0,
                "velocity": 0,
                "duration": 0.0023,
                "tempo": 0
            },
            {
                "pitch": 51,
                "velocity": 1,
                "duration": 0.3977,
                "tempo": 120.0
            },
            {
                "pitch": 46,
                "velocity": 1,
                "duration": 0.1955,
                "tempo": 120.0
            },
            {
                "pitch": 46,
                "velocity": 1,
                "duration": 0.7955,
                "tempo": 120.0
            },
            {
                "pitch": 0,
                "velocity": 0,
                "duration": 0.0023,
                "tempo": 0
            },
            {
                "pitch": 48,
                "velocity": 1,
                "duration": 0.1159,
                "tempo": 120.0
            },
            {
                "pitch": 48,
                "velocity": 1,
                "duration": 0.05,
                "tempo": 120.0
            },
            {
                "pitch": 52,
                "velocity": 1,
                "duration": 2.9932,
                "tempo": 120.0
            },
            {
                "pitch": 48,
                "velocity": 1,
                "duration": 0.05,
                "tempo": 120.0
            },
            {
                "pitch": 50,
                "velocity": 1,
                "duration": 0.2318,
                "tempo": 120.0
            },
            {
                "pitch": 51,
                "velocity": 1,
                "duration": 0.4432,
                "tempo": 120.0
            },
            {
                "pitch": 51,
                "velocity": 1,
                "duration": 0.2273,
                "tempo": 120.0
            },
            {
                "pitch": 0,
                "velocity": 0,
                "duration": 0.0023,
                "tempo": 0
            },
            {
                "pitch": 51,
                "velocity": 1,
                "duration": 0.4659,
                "tempo": 120.0
            },
            {
                "pitch": 53,
                "velocity": 1,
                "duration": 0.5023,
                "tempo": 120.0
            },
            {
                "pitch": 51,
                "velocity": 1,
                "duration": 0.9364,
                "tempo": 120.0
            },
            {
                "pitch": 50,
                "velocity": 1,
                "duration": 0.6159,
                "tempo": 120.0
            },
            {
                "pitch": 0,
                "velocity": 0,
                "duration": 0.0023,
                "tempo": 0
            },
            {
                "pitch": 48,
                "velocity": 1,
                "duration": 0.1432,
                "tempo": 120.0
            },
            {
                "pitch": 48,
                "velocity": 1,
                "duration": 0.0636,
                "tempo": 120.0
            },
            {
                "pitch": 52,
                "velocity": 1,
                "duration": 3.6841,
                "tempo": 120.0
            },
            {
                "pitch": 48,
                "velocity": 1,
                "duration": 0.1045,
                "tempo": 120.0
            },
            {
                "pitch": 48,
                "velocity": 1,
                "duration": 0.0636,
                "tempo": 120.0
            },
            {
                "pitch": 36,
                "velocity": 1,
                "duration": 6.9977,
                "tempo": 120.0
            },
            {
                "pitch": 48,
                "velocity": 1,
                "duration": 0.1023,
                "tempo": 120.0
            },
            {
                "pitch": 48,
                "velocity": 1,
                "duration": 0.0614,
                "tempo": 120.0
            },
            {
                "pitch": 52,
                "velocity": 1,
                "duration": 0.3318,
                "tempo": 120.0
            },
            {
                "pitch": 48,
                "velocity": 1,
                "duration": 0.0841,
                "tempo": 120.0
            },
            {
                "pitch": 50,
                "velocity": 1,
                "duration": 0.6932,
                "tempo": 120.0
            },
            {
                "pitch": 36,
                "velocity": 1,
                "duration": 0.9864,
                "tempo": 120.0
            },
            {
                "pitch": 48,
                "velocity": 1,
                "duration": 0.1477,
                "tempo": 120.0
            },
            {
                "pitch": 48,
                "velocity": 1,
                "duration": 0.0659,
                "tempo": 120.0
            },
            {
                "pitch": 52,
                "velocity": 1,
                "duration": 0.9909,
                "tempo": 120.0
            },
            {
                "pitch": 36,
                "velocity": 1,
                "duration": 0.1705,
                "tempo": 120.0
            },
            {
                "pitch": 48,
                "velocity": 1,
                "duration": 0.1045,
                "tempo": 120.0
            },
            {
                "pitch": 48,
                "velocity": 1,
                "duration": 0.0659,
                "tempo": 120.0
            },
            {
                "pitch": 52,
                "velocity": 1,
                "duration": 0.1705,
                "tempo": 120.0
            },
            {
                "pitch": 36,
                "velocity": 1,
                "duration": 0.1773,
                "tempo": 120.0
            },
            {
                "pitch": 48,
                "velocity": 1,
                "duration": 0.1114,
                "tempo": 120.0
            },
            {
                "pitch": 48,
                "velocity": 1,
                "duration": 0.0727,
                "tempo": 120.0
            },
            {
                "pitch": 52,
                "velocity": 1,
                "duration": 0.1841,
                "tempo": 120.0
            },
            {
                "pitch": 36,
                "velocity": 1,
                "duration": 0.1909,
                "tempo": 120.0
            },
            {
                "pitch": 48,
                "velocity": 1,
                "duration": 0.1182,
                "tempo": 120.0
            },
            {
                "pitch": 48,
                "velocity": 1,
                "duration": 0.0705,
                "tempo": 120.0
            },
            {
                "pitch": 52,
                "velocity": 1,
                "duration": 0.1886,
                "tempo": 120.0
            },
            {
                "pitch": 48,
                "velocity": 1,
                "duration": 0.1205,
                "tempo": 120.0
            },
            {
                "pitch": 48,
                "velocity": 1,
                "duration": 0.0705,
                "tempo": 120.0
            },
            {
                "pitch": 52,
                "velocity": 1,
                "duration": 0.1909,
                "tempo": 120.0
            },
            {
                "pitch": 36,
                "velocity": 1,
                "duration": 0.3795,
                "tempo": 120.0
            },
            {
                "pitch": 48,
                "velocity": 1,
                "duration": 0.1182,
                "tempo": 120.0
            },
            {
                "pitch": 48,
                "velocity": 1,
                "duration": 0.0727,
                "tempo": 120.0
            },
            {
                "pitch": 52,
                "velocity": 1,
                "duration": 0.1909,
                "tempo": 120.0
            },
            {
                "pitch": 36,
                "velocity": 1,
                "duration": 0.1886,
                "tempo": 120.0
            },
            {
                "pitch": 48,
                "velocity": 1,
                "duration": 0.1159,
                "tempo": 120.0
            },
            {
                "pitch": 48,
                "velocity": 1,
                "duration": 0.0682,
                "tempo": 120.0
            },
            {
                "pitch": 52,
                "velocity": 1,
                "duration": 0.1841,
                "tempo": 120.0
            },
            {
                "pitch": 36,
                "velocity": 1,
                "duration": 0.1841,
                "tempo": 120.0
            },
            {
                "pitch": 48,
                "velocity": 1,
                "duration": 0.1159,
                "tempo": 120.0
            },
            {
                "pitch": 48,
                "velocity": 1,
                "duration": 0.0682,
                "tempo": 120.0
            },
            {
                "pitch": 52,
                "velocity": 1,
                "duration": 0.1841,
                "tempo": 120.0
            },
            {
                "pitch": 36,
                "velocity": 1,
                "duration": 0.1818,
                "tempo": 120.0
            },
            {
                "pitch": 48,
                "velocity": 1,
                "duration": 0.1136,
                "tempo": 120.0
            },
            {
                "pitch": 48,
                "velocity": 1,
                "duration": 0.0682,
                "tempo": 120.0
            },
            {
                "pitch": 52,
                "velocity": 1,
                "duration": 0.1818,
                "tempo": 120.0
            },
            {
                "pitch": 36,
                "velocity": 1,
                "duration": 0.1841,
                "tempo": 120.0
            },
            {
                "pitch": 48,
                "velocity": 1,
                "duration": 0.1159,
                "tempo": 120.0
            },
            {
                "pitch": 48,
                "velocity": 1,
                "duration": 0.0682,
                "tempo": 120.0
            },
            {
                "pitch": 52,
                "velocity": 1,
                "duration": 0.1841,
                "tempo": 120.0
            },
            {
                "pitch": 48,
                "velocity": 1,
                "duration": 0.1136,
                "tempo": 120.0
            },
            {
                "pitch": 48,
                "velocity": 1,
                "duration": 0.0705,
                "tempo": 120.0
            },
            {
                "pitch": 52,
                "velocity": 1,
                "duration": 0.1841,
                "tempo": 120.0
            },
            {
                "pitch": 36,
                "velocity": 1,
                "duration": 0.3682,
                "tempo": 120.0
            },
            {
                "pitch": 48,
                "velocity": 1,
                "duration": 0.1159,
                "tempo": 120.0
            },
            {
                "pitch": 48,
                "velocity": 1,
                "duration": 0.0705,
                "tempo": 120.0
            },
            {
                "pitch": 36,
                "velocity": 1,
                "duration": 0.1864,
                "tempo": 120.0
            },
            {
                "pitch": 48,
                "velocity": 1,
                "duration": 0.1159,
                "tempo": 120.0
            },
            {
                "pitch": 48,
                "velocity": 1,
                "duration": 0.0705,
                "tempo": 120.0
            },
            {
                "pitch": 52,
                "velocity": 1,
                "duration": 0.3727,
                "tempo": 120.0
            },
            {
                "pitch": 36,
                "velocity": 1,
                "duration": 0.1864,
                "tempo": 120.0
            },
            {
                "pitch": 48,
                "velocity": 1,
                "duration": 0.1159,
                "tempo": 120.0
            },
            {
                "pitch": 48,
                "velocity": 1,
                "duration": 0.0705,
                "tempo": 120.0
            },
            {
                "pitch": 36,
                "velocity": 1,
                "duration": 0.1864,
                "tempo": 120.0
            },
            {
                "pitch": 48,
                "velocity": 1,
                "duration": 0.1159,
                "tempo": 120.0
            },
            {
                "pitch": 48,
                "velocity": 1,
                "duration": 0.0682,
                "tempo": 120.0
            },
            {
                "pitch": 52,
                "velocity": 1,
                "duration": 0.3705,
                "tempo": 120.0
            },
            {
                "pitch": 48,
                "velocity": 1,
                "duration": 0.1136,
                "tempo": 120.0
            },
            {
                "pitch": 48,
                "velocity": 1,
                "duration": 0.0659,
                "tempo": 120.0
            },
            {
                "pitch": 52,
                "velocity": 1,
                "duration": 0.1795,
                "tempo": 120.0
            },
            {
                "pitch": 36,
                "velocity": 1,
                "duration": 0.3614,
                "tempo": 120.0
            },
            {
                "pitch": 48,
                "velocity": 1,
                "duration": 0.1136,
                "tempo": 120.0
            },
            {
                "pitch": 48,
                "velocity": 1,
                "duration": 0.0659,
                "tempo": 120.0
            },
            {
                "pitch": 52,
                "velocity": 1,
                "duration": 0.1795,
                "tempo": 120.0
            },
            {
                "pitch": 36,
                "velocity": 1,
                "duration": 0.1795,
                "tempo": 120.0
            },
            {
                "pitch": 48,
                "velocity": 1,
                "duration": 0.1136,
                "tempo": 120.0
            },
            {
                "pitch": 48,
                "velocity": 1,
                "duration": 0.0659,
                "tempo": 120.0
            },
            {
                "pitch": 52,
                "velocity": 1,
                "duration": 0.1795,
                "tempo": 120.0
            },
            {
                "pitch": 36,
                "velocity": 1,
                "duration": 0.1795,
                "tempo": 120.0
            },
            {
                "pitch": 48,
                "velocity": 1,
                "duration": 0.1136,
                "tempo": 120.0
            },
            {
                "pitch": 48,
                "velocity": 1,
                "duration": 0.0682,
                "tempo": 120.0
            },
            {
                "pitch": 48,
                "velocity": 1,
                "duration": 0.1136,
                "tempo": 120.0
            },
            {
                "pitch": 48,
                "velocity": 1,
                "duration": 0.0682,
                "tempo": 120.0
            },
            {
                "pitch": 52,
                "velocity": 1,
                "duration": 0.3636,
                "tempo": 120.0
            },
            {
                "pitch": 36,
                "velocity": 1,
                "duration": 0.3659,
                "tempo": 120.0
            },
            {
                "pitch": 48,
                "velocity": 1,
                "duration": 0.1159,
                "tempo": 120.0
            },
            {
                "pitch": 48,
                "velocity": 1,
                "duration": 0.0682,
                "tempo": 120.0
            },
            {
                "pitch": 52,
                "velocity": 1,
                "duration": 0.1841,
                "tempo": 120.0
            },
            {
                "pitch": 36,
                "velocity": 1,
                "duration": 0.1818,
                "tempo": 120.0
            },
            {
                "pitch": 48,
                "velocity": 1,
                "duration": 0.1136,
                "tempo": 120.0
            },
            {
                "pitch": 48,
                "velocity": 1,
                "duration": 0.0591,
                "tempo": 120.0
            },
            {
                "pitch": 52,
                "velocity": 1,
                "duration": 0.1727,
                "tempo": 120.0
            },
            {
                "pitch": 36,
                "velocity": 1,
                "duration": 0.1432,
                "tempo": 120.0
            },
            {
                "pitch": 48,
                "velocity": 1,
                "duration": 0.0841,
                "tempo": 120.0
            },
            {
                "pitch": 48,
                "velocity": 1,
                "duration": 0.05,
                "tempo": 120.0
            },
            {
                "pitch": 48,
                "velocity": 1,
                "duration": 0.0841,
                "tempo": 120.0
            },
            {
                "pitch": 48,
                "velocity": 1,
                "duration": 0.0477,
                "tempo": 120.0
            },
            {
                "pitch": 52,
                "velocity": 1,
                "duration": 0.2659,
                "tempo": 120.0
            },
            {
                "pitch": 48,
                "velocity": 1,
                "duration": 0.0341,
                "tempo": 120.0
            }
        ],
        "Acoustic Grand Piano": [
            {
                "pitch": 0,
                "velocity": 0,
                "duration": 36.6818,
                "tempo": 0
            },
            {
                "pitch": 108,
                "velocity": 15,
                "duration": 0.1,
                "tempo": 120.0
            }
        ]
    }
}