{
    "track_id": "15 Dragon_1",
    "mood": "happy",
    "instruments": {
        "Lead 1 (square)": [
            {
                "pitch": 79,
                "velocity": 5,
                "duration": 0.6886,
                "tempo": 120.0
            },
            {
                "pitch": 79,
                "velocity": 5,
                "duration": 0.1341,
                "tempo": 120.0
            },
            {
                "pitch": 91,
                "velocity": 5,
                "duration": 0.1341,
                "tempo": 120.0
            },
            {
                "pitch": 79,
                "velocity": 5,
                "duration": 0.1341,
                "tempo": 120.0
            },
            {
                "pitch": 91,
                "velocity": 5,
                "duration": 0.1341,
                "tempo": 120.0
            },
            {
                "pitch": 79,
                "velocity": 5,
                "duration": 0.1341,
                "tempo": 120.0
            },
            {
                "pitch": 91,
                "velocity": 5,
                "duration": 0.1341,
                "tempo": 120.0
            },
            {
                "pitch": 79,
                "velocity": 5,
                "duration": 0.1341,
                "tempo": 120.0
            },
            {
                "pitch": 91,
                "velocity": 5,
                "duration": 0.1341,
                "tempo": 120.0
            },
            {
                "pitch": 79,
                "velocity": 5,
                "duration": 0.1341,
                "tempo": 120.0
            },
            {
                "pitch": 91,
                "velocity": 5,
                "duration": 0.1341,
                "tempo": 120.0
            },
            {
                "pitch": 79,
                "velocity": 5,
                "duration": 0.1318,
                "tempo": 120.0
            },
            {
                "pitch": 91,
                "velocity": 5,
                "duration": 0.1318,
                "tempo": 120.0
            },
            {
                "pitch": 79,
                "velocity": 5,
                "duration": 0.1182,
                "tempo": 120.0
            },
            {
                "pitch": 79,
                "velocity": 5,
                "duration": 0.65,
                "tempo": 120.0
            },
            {
                "pitch": 77,
                "velocity": 5,
                "duration": 0.1523,
                "tempo": 120.0
            },
            {
                "pitch": 77,
                "velocity": 5,
                "duration": 0.2,
                "tempo": 120.0
            },
            {
                "pitch": 90,
                "velocity": 5,
                "duration": 2.6114,
                "tempo": 120.0
            },
            {
                "pitch": 81,
                "velocity": 5,
                "duration": 0.2023,
                "tempo": 120.0
            },
            {
                "pitch": 0,
                "velocity": 0,
                "duration": 0.2,
                "tempo": 0
            },
            {
                "pitch": 81,
                "velocity": 5,
                "duration": 0.2023,
                "tempo": 120.0
            },
            {
                "pitch": 0,
                "velocity": 0,
                "duration": 0.2,
                "tempo": 0
            },
            {
                "pitch": 81,
                "velocity": 5,
                "duration": 0.6409,
                "tempo": 120.0
            },
            {
                "pitch": 79,
                "velocity": 5,
                "duration": 0.0523,
                "tempo": 120.0
            },
            {
                "pitch": 91,
                "velocity": 5,
                "duration": 2.6182,
                "tempo": 120.0
            },
            {
                "pitch": 79,
                "velocity": 5,
                "duration": 0.1364,
                "tempo": 120.0
            },
            {
                "pitch": 91,
                "velocity": 5,
                "duration": 0.1364,
                "tempo": 120.0
            },
            {
                "pitch": 79,
                "velocity": 5,
                "duration": 0.1341,
                "tempo": 120.0
            },
            {
                "pitch": 91,
                "velocity": 5,
                "duration": 0.1341,
                "tempo": 120.0
            },
            {
                "pitch": 79,
                "velocity": 5,
                "duration": 0.1341,
                "tempo": 120.0
            },
            {
                "pitch": 91,
                "velocity": 5,
                "duration": 0.1341,
                "tempo": 120.0
            },
            {
                "pitch": 79,
                "velocity": 5,
                "duration": 0.1318,
                "tempo": 120.0
            },
            {
                "pitch": 91,
                "velocity": 5,
                "duration": 0.1318,
                "tempo": 120.0
            },
            {
                "pitch": 79,
                "velocity": 5,
                "duration": 0.1341,
                "tempo": 120.0
            },
            {
                "pitch": 91,
                "velocity": 5,
                "duration": 0.1341,
                "tempo": 120.0
            },
            {
                "pitch": 79,
                "velocity": 5,
                "duration": 0.1341,
                "tempo": 120.0
            },
            {
                "pitch": 91,
                "velocity": 5,
                "duration": 0.1341,
                "tempo": 120.0
            },
            {
                "pitch": 79,
                "velocity": 5,
                "duration": 0.1364,
                "tempo": 120.0
            },
            {
                "pitch": 91,
                "velocity": 5,
                "duration": 0.1364,
                "tempo": 120.0
            },
            {
                "pitch": 79,
                "velocity": 5,
                "duration": 0.1341,
                "tempo": 120.0
            },
            {
                "pitch": 91,
                "velocity": 5,
                "duration": 0.1341,
                "tempo": 120.0
            },
            {
                "pitch": 79,
                "velocity": 5,
                "duration": 0.1341,
                "tempo": 120.0
            },
            {
                "pitch": 91,
                "velocity": 5,
                "duration": 0.1341,
                "tempo": 120.0
            },
            {
                "pitch": 79,
                "velocity": 5,
                "duration": 0.1341,
                "tempo": 120.0
            },
            {
                "pitch": 91,
                "velocity": 5,
                "duration": 0.1341,
                "tempo": 120.0
            },
            {
                "pitch": 79,
                "velocity": 5,
                "duration": 0.1341,
                "tempo": 120.0
            },
            {
                "pitch": 91,
                "velocity": 5,
                "duration": 0.1341,
                "tempo": 120.0
            },
            {
                "pitch": 79,
                "velocity": 5,
                "duration": 0.1318,
                "tempo": 120.0
            },
            {
                "pitch": 91,
                "velocity": 5,
                "duration": 0.1318,
                "tempo": 120.0
            },
            {
                "pitch": 79,
                "velocity": 5,
                "duration": 0.1341,
                "tempo": 120.0
            },
            {
                "pitch": 91,
                "velocity": 5,
                "duration": 0.1341,
                "tempo": 120.0
            },
            {
                "pitch": 79,
                "velocity": 5,
                "duration": 0.1364,
                "tempo": 120.0
            },
            {
                "pitch": 91,
                "velocity": 5,
                "duration": 0.1364,
                "tempo": 120.0
            },
            {
                "pitch": 79,
                "velocity": 5,
                "duration": 0.1341,
                "tempo": 120.0
            },
            {
                "pitch": 91,
                "velocity": 5,
                "duration": 0.1341,
                "tempo": 120.0
            },
            {
                "pitch": 79,
                "velocity": 5,
                "duration": 0.1318,
                "tempo": 120.0
            },
            {
                "pitch": 91,
                "velocity": 5,
                "duration": 0.1318,
                "tempo": 120.0
            },
            {
                "pitch": 79,
                "velocity": 5,
                "duration": 0.1341,
                "tempo": 120.0
            },
            {
                "pitch": 91,
                "velocity": 5,
                "duration": 0.1341,
                "tempo": 120.0
            },
            {
                "pitch": 79,
                "velocity": 5,
                "duration": 0.0523,
                "tempo": 120.0
            },
            {
                "pitch": 79,
                "velocity": 5,
                "duration": 0.6864,
                "tempo": 120.0
            },
            {
                "pitch": 91,
                "velocity": 5,
                "duration": 0.7386,
                "tempo": 120.0
            },
            {
                "pitch": 79,
                "velocity": 5,
                "duration": 0.1341,
                "tempo": 120.0
            },
            {
                "pitch": 91,
                "velocity": 5,
                "duration": 0.1341,
                "tempo": 120.0
            },
            {
                "pitch": 79,
                "velocity": 5,
                "duration": 0.1341,
                "tempo": 120.0
            },
            {
                "pitch": 91,
                "velocity": 5,
                "duration": 0.1341,
                "tempo": 120.0
            },
            {
                "pitch": 79,
                "velocity": 5,
                "duration": 0.1341,
                "tempo": 120.0
            },
            {
                "pitch": 91,
                "velocity": 5,
                "duration": 0.1341,
                "tempo": 120.0
            },
            {
                "pitch": 79,
                "velocity": 5,
                "duration": 0.1364,
                "tempo": 120.0
            },
            {
                "pitch": 91,
                "velocity": 5,
                "duration": 0.1364,
                "tempo": 120.0
            },
            {
                "pitch": 79,
                "velocity": 5,
                "duration": 0.1341,
                "tempo": 120.0
            },
            {
                "pitch": 91,
                "velocity": 5,
                "duration": 0.1341,
                "tempo": 120.0
            },
            {
                "pitch": 79,
                "velocity": 5,
                "duration": 0.1318,
                "tempo": 120.0
            },
            {
                "pitch": 91,
                "velocity": 5,
                "duration": 0.1318,
                "tempo": 120.0
            },
            {
                "pitch": 79,
                "velocity": 5,
                "duration": 0.1182,
                "tempo": 120.0
            },
            {
                "pitch": 79,
                "velocity": 5,
                "duration": 0.6523,
                "tempo": 120.0
            },
            {
                "pitch": 77,
                "velocity": 5,
                "duration": 0.1545,
                "tempo": 120.0
            },
            {
                "pitch": 77,
                "velocity": 5,
                "duration": 0.2,
                "tempo": 120.0
            },
            {
                "pitch": 90,
                "velocity": 5,
                "duration": 6.4455,
                "tempo": 120.0
            },
            {
                "pitch": 81,
                "velocity": 5,
                "duration": 0.2023,
                "tempo": 120.0
            },
            {
                "pitch": 0,
                "velocity": 0,
                "duration": 0.2023,
                "tempo": 0
            },
            {
                "pitch": 81,
                "velocity": 5,
                "duration": 0.2023,
                "tempo": 120.0
            },
            {
                "pitch": 0,
                "velocity": 0,
                "duration": 0.2,
                "tempo": 0
            },
            {
                "pitch": 81,
                "velocity": 5,
                "duration": 0.6341,
                "tempo": 120.0
            },
            {
                "pitch": 79,
                "velocity": 5,
                "duration": 0.0523,
                "tempo": 120.0
            },
            {
                "pitch": 91,
                "velocity": 5,
                "duration": 2.6182,
                "tempo": 120.0
            },
            {
                "pitch": 79,
                "velocity": 5,
                "duration": 0.1341,
                "tempo": 120.0
            },
            {
                "pitch": 91,
                "velocity": 5,
                "duration": 0.1341,
                "tempo": 120.0
            },
            {
                "pitch": 79,
                "velocity": 5,
                "duration": 0.1341,
                "tempo": 120.0
            },
            {
                "pitch": 91,
                "velocity": 5,
                "duration": 0.1341,
                "tempo": 120.0
            },
            {
                "pitch": 79,
                "velocity": 5,
                "duration": 0.1341,
                "tempo": 120.0
            },
            {
                "pitch": 91,
                "velocity": 5,
                "duration": 0.1341,
                "tempo": 120.0
            },
            {
                "pitch": 79,
                "velocity": 5,
                "duration": 0.1341,
                "tempo": 120.0
            },
            {
                "pitch": 91,
                "velocity": 5,
                "duration": 0.1341,
                "tempo": 120.0
            },
            {
                "pitch": 79,
                "velocity": 5,
                "duration": 0.1341,
                "tempo": 120.0
            },
            {
                "pitch": 91,
                "velocity": 5,
                "duration": 0.1341,
                "tempo": 120.0
            },
            {
                "pitch": 79,
                "velocity": 5,
                "duration": 0.1364,
                "tempo": 120.0
            },
            {
                "pitch": 91,
                "velocity": 5,
                "duration": 0.1364,
                "tempo": 120.0
            },
            {
                "pitch": 79,
                "velocity": 5,
                "duration": 0.1341,
                "tempo": 120.0
            },
            {
                "pitch": 91,
                "velocity": 5,
                "duration": 0.1341,
                "tempo": 120.0
            },
            {
                "pitch": 79,
                "velocity": 5,
                "duration": 0.1364,
                "tempo": 120.0
            },
            {
                "pitch": 91,
                "velocity": 5,
                "duration": 0.1364,
                "tempo": 120.0
            },
            {
                "pitch": 79,
                "velocity": 5,
                "duration": 0.1364,
                "tempo": 120.0
            },
            {
                "pitch": 91,
                "velocity": 5,
                "duration": 0.1364,
                "tempo": 120.0
            },
            {
                "pitch": 79,
                "velocity": 5,
                "duration": 0.1364,
                "tempo": 120.0
            },
            {
                "pitch": 91,
                "velocity": 5,
                "duration": 0.1364,
                "tempo": 120.0
            },
            {
                "pitch": 79,
                "velocity": 5,
                "duration": 0.1318,
                "tempo": 120.0
            },
            {
                "pitch": 91,
                "velocity": 5,
                "duration": 0.1318,
                "tempo": 120.0
            },
            {
                "pitch": 79,
                "velocity": 5,
                "duration": 0.1318,
                "tempo": 120.0
            },
            {
                "pitch": 91,
                "velocity": 5,
                "duration": 0.1318,
                "tempo": 120.0
            },
            {
                "pitch": 79,
                "velocity": 5,
                "duration": 0.1295,
                "tempo": 120.0
            },
            {
                "pitch": 91,
                "velocity": 5,
                "duration": 0.1295,
                "tempo": 120.0
            },
            {
                "pitch": 79,
                "velocity": 5,
                "duration": 0.1386,
                "tempo": 120.0
            },
            {
                "pitch": 91,
                "velocity": 5,
                "duration": 0.1386,
                "tempo": 120.0
            },
            {
                "pitch": 79,
                "velocity": 5,
                "duration": 0.0523,
                "tempo": 120.0
            },
            {
                "pitch": 0,
                "velocity": 0,
                "duration": 25.9318,
                "tempo": 0
            },
            {
                "pitch": 72,
                "velocity": 5,
                "duration": 0.2,
                "tempo": 120.0
            },
            {
                "pitch": 0,
                "velocity": 0,
                "duration": 0.4023,
                "tempo": 0
            },
            {
                "pitch": 70,
                "velocity": 5,
                "duration": 0.4,
                "tempo": 120.0
            },
            {
                "pitch": 70,
                "velocity": 5,
                "duration": 0.2,
                "tempo": 120.0
            },
            {
                "pitch": 72,
                "velocity": 5,
                "duration": 0.2,
                "tempo": 120.0
            },
            {
                "pitch": 74,
                "velocity": 5,
                "duration": 0.2,
                "tempo": 120.0
            },
            {
                "pitch": 76,
                "velocity": 5,
                "duration": 1.2,
                "tempo": 120.0
            },
            {
                "pitch": 76,
                "velocity": 5,
                "duration": 0.2,
                "tempo": 120.0
            },
            {
                "pitch": 70,
                "velocity": 5,
                "duration": 1.4136,
                "tempo": 120.0
            },
            {
                "pitch": 70,
                "velocity": 5,
                "duration": 0.2023,
                "tempo": 120.0
            },
            {
                "pitch": 72,
                "velocity": 5,
                "duration": 2.8182,
                "tempo": 120.0
            },
            {
                "pitch": 72,
                "velocity": 5,
                "duration": 0.4,
                "tempo": 120.0
            },
            {
                "pitch": 69,
                "velocity": 5,
                "duration": 0.0977,
                "tempo": 120.0
            },
            {
                "pitch": 50,
                "velocity": 5,
                "duration": 3.2182,
                "tempo": 120.0
            },
            {
                "pitch": 69,
                "velocity": 5,
                "duration": 0.1023,
                "tempo": 120.0
            },
            {
                "pitch": 72,
                "velocity": 5,
                "duration": 0.1,
                "tempo": 120.0
            },
            {
                "pitch": 76,
                "velocity": 5,
                "duration": 0.4,
                "tempo": 120.0
            },
            {
                "pitch": 69,
                "velocity": 5,
                "duration": 0.1,
                "tempo": 120.0
            },
            {
                "pitch": 50,
                "velocity": 5,
                "duration": 0.4,
                "tempo": 120.0
            },
            {
                "pitch": 69,
                "velocity": 5,
                "duration": 0.1,
                "tempo": 120.0
            },
            {
                "pitch": 72,
                "velocity": 5,
                "duration": 1.6068,
                "tempo": 120.0
            }
        ],
        "Lead 2 (sawtooth)": [
            {
                "pitch": 0,
                "velocity": 0,
                "duration": 38.6159,
                "tempo": 0
            },
            {
                "pitch": 76,
                "velocity": 3,
                "duration": 0.2,
                "tempo": 120.0
            },
            {
                "pitch": 0,
                "velocity": 0,
                "duration": 0.4,
                "tempo": 0
            },
            {
                "pitch": 74,
                "velocity": 3,
                "duration": 0.4023,
                "tempo": 120.0
            },
            {
                "pitch": 74,
                "velocity": 3,
                "duration": 0.2,
                "tempo": 120.0
            },
            {
                "pitch": 76,
                "velocity": 3,
                "duration": 0.8023,
                "tempo": 120.0
            },
            {
                "pitch": 76,
                "velocity": 3,
                "duration": 0.2,
                "tempo": 120.0
            },
            {
                "pitch": 76,
                "velocity": 3,
                "duration": 0.2,
                "tempo": 120.0
            },
            {
                "pitch": 79,
                "velocity": 3,
                "duration": 0.2,
                "tempo": 120.0
            },
            {
                "pitch": 74,
                "velocity": 3,
                "duration": 2.0136,
                "tempo": 120.0
            },
            {
                "pitch": 74,
                "velocity": 3,
                "duration": 1.4136,
                "tempo": 120.0
            },
            {
                "pitch": 74,
                "velocity": 3,
                "duration": 0.2023,
                "tempo": 120.0
            },
            {
                "pitch": 0,
                "velocity": 0,
                "duration": 0.4,
                "tempo": 0
            },
            {
                "pitch": 76,
                "velocity": 3,
                "duration": 0.4023,
                "tempo": 120.0
            },
            {
                "pitch": 72,
                "velocity": 3,
                "duration": 0.0977,
                "tempo": 120.0
            },
            {
                "pitch": 74,
                "velocity": 3,
                "duration": 0.6023,
                "tempo": 120.0
            },
            {
                "pitch": 74,
                "velocity": 3,
                "duration": 0.1023,
                "tempo": 120.0
            },
            {
                "pitch": 76,
                "velocity": 3,
                "duration": 0.3,
                "tempo": 120.0
            },
            {
                "pitch": 76,
                "velocity": 3,
                "duration": 0.1,
                "tempo": 120.0
            },
            {
                "pitch": 72,
                "velocity": 3,
                "duration": 0.4,
                "tempo": 120.0
            },
            {
                "pitch": 72,
                "velocity": 3,
                "duration": 0.0977,
                "tempo": 120.0
            },
            {
                "pitch": 74,
                "velocity": 3,
                "duration": 0.4,
                "tempo": 120.0
            },
            {
                "pitch": 74,
                "velocity": 3,
                "duration": 0.1,
                "tempo": 120.0
            },
            {
                "pitch": 76,
                "velocity": 3,
                "duration": 1.8045,
                "tempo": 120.0
            },
            {
                "pitch": 76,
                "velocity": 3,
                "duration": 1.6045,
                "tempo": 120.0
            }
        ],
        "Synth Bass 1": [
            {
                "pitch": 0,
                "velocity": 0,
                "duration": 69.7705,
                "tempo": 0
            },
            {
                "pitch": 77,
                "velocity": 1,
                "duration": 0.2977,
                "tempo": 120.0
            },
            {
                "pitch": 80,
                "velocity": 1,
                "duration": 0.3023,
                "tempo": 120.0
            },
            {
                "pitch": 80,
                "velocity": 1,
                "duration": 0.2023,
                "tempo": 120.0
            },
            {
                "pitch": 67,
                "velocity": 1,
                "duration": 0.6068,
                "tempo": 120.0
            },
            {
                "pitch": 0,
                "velocity": 0,
                "duration": 0.6068,
                "tempo": 0
            },
            {
                "pitch": 74,
                "velocity": 1,
                "duration": 1.8114,
                "tempo": 120.0
            },
            {
                "pitch": 72,
                "velocity": 1,
                "duration": 0.1,
                "tempo": 120.0
            },
            {
                "pitch": 74,
                "velocity": 1,
                "duration": 0.2,
                "tempo": 120.0
            },
            {
                "pitch": 74,
                "velocity": 1,
                "duration": 0.1,
                "tempo": 120.0
            },
            {
                "pitch": 67,
                "velocity": 1,
                "duration": 0.6023,
                "tempo": 120.0
            },
            {
                "pitch": 0,
                "velocity": 0,
                "duration": 0.6045,
                "tempo": 0
            },
            {
                "pitch": 74,
                "velocity": 1,
                "duration": 1.8136,
                "tempo": 120.0
            },
            {
                "pitch": 72,
                "velocity": 1,
                "duration": 3.2182,
                "tempo": 120.0
            },
            {
                "pitch": 72,
                "velocity": 1,
                "duration": 0.0977,
                "tempo": 120.0
            },
            {
                "pitch": 74,
                "velocity": 1,
                "duration": 0.1977,
                "tempo": 120.0
            },
            {
                "pitch": 74,
                "velocity": 1,
                "duration": 0.1,
                "tempo": 120.0
            },
            {
                "pitch": 77,
                "velocity": 1,
                "duration": 3.2182,
                "tempo": 120.0
            },
            {
                "pitch": 67,
                "velocity": 1,
                "duration": 0.6068,
                "tempo": 120.0
            },
            {
                "pitch": 0,
                "velocity": 0,
                "duration": 0.6,
                "tempo": 0
            },
            {
                "pitch": 74,
                "velocity": 1,
                "duration": 1.8159,
                "tempo": 120.0
            },
            {
                "pitch": 72,
                "velocity": 1,
                "duration": 3.2227,
                "tempo": 120.0
            },
            {
                "pitch": 72,
                "velocity": 1,
                "duration": 0.1,
                "tempo": 120.0
            },
            {
                "pitch": 74,
                "velocity": 1,
                "duration": 0.2,
                "tempo": 120.0
            },
            {
                "pitch": 74,
                "velocity": 1,
                "duration": 0.1,
                "tempo": 120.0
            },
            {
                "pitch": 77,
                "velocity": 1,
                "duration": 3.2227,
                "tempo": 120.0
            },
            {
                "pitch": 68,
                "velocity": 1,
                "duration": 0.8068,
                "tempo": 120.0
            },
            {
                "pitch": 0,
                "velocity": 0,
                "duration": 0.2,
                "tempo": 0
            },
            {
                "pitch": 68,
                "velocity": 1,
                "duration": 0.2,
                "tempo": 120.0
            },
            {
                "pitch": 0,
                "velocity": 0,
                "duration": 0.0023,
                "tempo": 0
            },
            {
                "pitch": 68,
                "velocity": 1,
                "duration": 0.2,
                "tempo": 120.0
            },
            {
                "pitch": 72,
                "velocity": 1,
                "duration": 1.7114,
                "tempo": 120.0
            },
            {
                "pitch": 72,
                "velocity": 1,
                "duration": 0.2023,
                "tempo": 120.0
            },
            {
                "pitch": 77,
                "velocity": 1,
                "duration": 2.2114,
                "tempo": 120.0
            },
            {
                "pitch": 77,
                "velocity": 1,
                "duration": 0.6,
                "tempo": 120.0
            },
            {
                "pitch": 0,
                "velocity": 0,
                "duration": 0.0023,
                "tempo": 0
            },
            {
                "pitch": 74,
                "velocity": 1,
                "duration": 0.2,
                "tempo": 120.0
            },
            {
                "pitch": 0,
                "velocity": 0,
                "duration": 0.0023,
                "tempo": 0
            },
            {
                "pitch": 74,
                "velocity": 1,
                "duration": 0.3,
                "tempo": 120.0
            },
            {
                "pitch": 75,
                "velocity": 1,
                "duration": 0.3023,
                "tempo": 120.0
            },
            {
                "pitch": 90,
                "velocity": 1,
                "duration": 13.1886,
                "tempo": 120.0
            },
            {
                "pitch": 79,
                "velocity": 1,
                "duration": 0.2023,
                "tempo": 120.0
            }
        ],
        "Acoustic Grand Piano": [
            {
                "pitch": 0,
                "velocity": 0,
                "duration": 83.4591,
                "tempo": 0
            },
            {
                "pitch": 108,
                "velocity": 15,
                "duration": 0.1,
                "tempo": 120.0
            }
        ]
    }
}