{
    "track_id": "18 Darkmare_15",
    "mood": "happy",
    "instruments": {
        "Lead 1 (square)": [
            {
                "pitch": 43,
                "velocity": 10,
                "duration": 2.0136,
                "tempo": 120.0
            },
            {
                "pitch": 44,
                "velocity": 10,
                "duration": 2.0068,
                "tempo": 120.0
            },
            {
                "pitch": 44,
                "velocity": 10,
                "duration": 0.25,
                "tempo": 120.0
            },
            {
                "pitch": 46,
                "velocity": 10,
                "duration": 0.25,
                "tempo": 120.0
            },
            {
                "pitch": 44,
                "velocity": 10,
                "duration": 0.2568,
                "tempo": 120.0
            },
            {
                "pitch": 43,
                "velocity": 10,
                "duration": 0.2568,
                "tempo": 120.0
            },
            {
                "pitch": 42,
                "velocity": 10,
                "duration": 0.25,
                "tempo": 120.0
            },
            {
                "pitch": 42,
                "velocity": 10,
                "duration": 0.1659,
                "tempo": 120.0
            },
            {
                "pitch": 43,
                "velocity": 10,
                "duration": 0.05,
                "tempo": 120.0
            },
            {
                "pitch": 46,
                "velocity": 10,
                "duration": 0.0341,
                "tempo": 120.0
            },
            {
                "pitch": 48,
                "velocity": 10,
                "duration": 0.05,
                "tempo": 120.0
            },
            {
                "pitch": 51,
                "velocity": 10,
                "duration": 0.0341,
                "tempo": 120.0
            },
            {
                "pitch": 53,
                "velocity": 10,
                "duration": 0.0841,
                "tempo": 120.0
            },
            {
                "pitch": 51,
                "velocity": 10,
                "duration": 0.0659,
                "tempo": 120.0
            },
            {
                "pitch": 49,
                "velocity": 10,
                "duration": 0.0659,
                "tempo": 120.0
            },
            {
                "pitch": 47,
                "velocity": 10,
                "duration": 0.0659,
                "tempo": 120.0
            },
            {
                "pitch": 45,
                "velocity": 10,
                "duration": 0.1023,
                "tempo": 120.0
            },
            {
                "pitch": 41,
                "velocity": 10,
                "duration": 0.0341,
                "tempo": 120.0
            },
            {
                "pitch": 0,
                "velocity": 0,
                "duration": 0.0023,
                "tempo": 0
            },
            {
                "pitch": 43,
                "velocity": 7,
                "duration": 0.2477,
                "tempo": 120.0
            },
            {
                "pitch": 55,
                "velocity": 7,
                "duration": 0.25,
                "tempo": 120.0
            },
            {
                "pitch": 53,
                "velocity": 7,
                "duration": 0.1659,
                "tempo": 120.0
            },
            {
                "pitch": 50,
                "velocity": 7,
                "duration": 0.0841,
                "tempo": 120.0
            },
            {
                "pitch": 49,
                "velocity": 7,
                "duration": 0.1659,
                "tempo": 120.0
            },
            {
                "pitch": 50,
                "velocity": 7,
                "duration": 0.25,
                "tempo": 120.0
            },
            {
                "pitch": 50,
                "velocity": 7,
                "duration": 0.0864,
                "tempo": 120.0
            },
            {
                "pitch": 50,
                "velocity": 7,
                "duration": 0.25,
                "tempo": 120.0
            },
            {
                "pitch": 49,
                "velocity": 7,
                "duration": 0.25,
                "tempo": 120.0
            },
            {
                "pitch": 48,
                "velocity": 7,
                "duration": 0.1659,
                "tempo": 120.0
            },
            {
                "pitch": 46,
                "velocity": 7,
                "duration": 0.0841,
                "tempo": 120.0
            },
            {
                "pitch": 43,
                "velocity": 7,
                "duration": 0.2523,
                "tempo": 120.0
            },
            {
                "pitch": 55,
                "velocity": 7,
                "duration": 0.2523,
                "tempo": 120.0
            },
            {
                "pitch": 53,
                "velocity": 7,
                "duration": 0.1659,
                "tempo": 120.0
            },
            {
                "pitch": 50,
                "velocity": 7,
                "duration": 0.0841,
                "tempo": 120.0
            },
            {
                "pitch": 49,
                "velocity": 7,
                "duration": 0.1659,
                "tempo": 120.0
            },
            {
                "pitch": 50,
                "velocity": 7,
                "duration": 0.3841,
                "tempo": 120.0
            },
            {
                "pitch": 47,
                "velocity": 7,
                "duration": 0.1341,
                "tempo": 120.0
            },
            {
                "pitch": 0,
                "velocity": 0,
                "duration": 0.5682,
                "tempo": 0
            },
            {
                "pitch": 43,
                "velocity": 7,
                "duration": 0.25,
                "tempo": 120.0
            },
            {
                "pitch": 55,
                "velocity": 7,
                "duration": 0.25,
                "tempo": 120.0
            },
            {
                "pitch": 53,
                "velocity": 7,
                "duration": 0.1659,
                "tempo": 120.0
            },
            {
                "pitch": 50,
                "velocity": 7,
                "duration": 0.0841,
                "tempo": 120.0
            },
            {
                "pitch": 49,
                "velocity": 7,
                "duration": 0.1659,
                "tempo": 120.0
            },
            {
                "pitch": 50,
                "velocity": 7,
                "duration": 0.25,
                "tempo": 120.0
            },
            {
                "pitch": 50,
                "velocity": 7,
                "duration": 0.0864,
                "tempo": 120.0
            },
            {
                "pitch": 53,
                "velocity": 7,
                "duration": 0.25,
                "tempo": 120.0
            },
            {
                "pitch": 55,
                "velocity": 7,
                "duration": 0.2568,
                "tempo": 120.0
            },
            {
                "pitch": 58,
                "velocity": 7,
                "duration": 0.1682,
                "tempo": 120.0
            },
            {
                "pitch": 60,
                "velocity": 7,
                "duration": 0.0886,
                "tempo": 120.0
            },
            {
                "pitch": 61,
                "velocity": 7,
                "duration": 0.1636,
                "tempo": 120.0
            },
            {
                "pitch": 0,
                "velocity": 0,
                "duration": 0.0023,
                "tempo": 0
            },
            {
                "pitch": 60,
                "velocity": 7,
                "duration": 0.0841,
                "tempo": 120.0
            },
            {
                "pitch": 58,
                "velocity": 7,
                "duration": 0.1659,
                "tempo": 120.0
            },
            {
                "pitch": 61,
                "velocity": 7,
                "duration": 0.0841,
                "tempo": 120.0
            },
            {
                "pitch": 60,
                "velocity": 7,
                "duration": 0.1659,
                "tempo": 120.0
            },
            {
                "pitch": 58,
                "velocity": 7,
                "duration": 0.0841,
                "tempo": 120.0
            },
            {
                "pitch": 55,
                "velocity": 7,
                "duration": 0.1659,
                "tempo": 120.0
            },
            {
                "pitch": 53,
                "velocity": 7,
                "duration": 0.3159,
                "tempo": 120.0
            },
            {
                "pitch": 51,
                "velocity": 7,
                "duration": 0.1341,
                "tempo": 120.0
            },
            {
                "pitch": 48,
                "velocity": 7,
                "duration": 0.0682,
                "tempo": 120.0
            },
            {
                "pitch": 0,
                "velocity": 0,
                "duration": 0.5682,
                "tempo": 0
            },
            {
                "pitch": 43,
                "velocity": 7,
                "duration": 0.25,
                "tempo": 120.0
            },
            {
                "pitch": 55,
                "velocity": 7,
                "duration": 0.25,
                "tempo": 120.0
            },
            {
                "pitch": 53,
                "velocity": 7,
                "duration": 0.1659,
                "tempo": 120.0
            },
            {
                "pitch": 50,
                "velocity": 7,
                "duration": 0.0841,
                "tempo": 120.0
            },
            {
                "pitch": 49,
                "velocity": 7,
                "duration": 0.1659,
                "tempo": 120.0
            },
            {
                "pitch": 50,
                "velocity": 7,
                "duration": 0.25,
                "tempo": 120.0
            },
            {
                "pitch": 0,
                "velocity": 0,
                "duration": 0.0023,
                "tempo": 0
            },
            {
                "pitch": 50,
                "velocity": 7,
                "duration": 0.0841,
                "tempo": 120.0
            },
            {
                "pitch": 50,
                "velocity": 7,
                "duration": 0.25,
                "tempo": 120.0
            },
            {
                "pitch": 49,
                "velocity": 7,
                "duration": 0.25,
                "tempo": 120.0
            },
            {
                "pitch": 48,
                "velocity": 7,
                "duration": 0.1659,
                "tempo": 120.0
            },
            {
                "pitch": 46,
                "velocity": 7,
                "duration": 0.0841,
                "tempo": 120.0
            },
            {
                "pitch": 43,
                "velocity": 7,
                "duration": 0.25,
                "tempo": 120.0
            },
            {
                "pitch": 55,
                "velocity": 7,
                "duration": 0.25,
                "tempo": 120.0
            },
            {
                "pitch": 53,
                "velocity": 7,
                "duration": 0.1659,
                "tempo": 120.0
            },
            {
                "pitch": 50,
                "velocity": 7,
                "duration": 0.0841,
                "tempo": 120.0
            },
            {
                "pitch": 49,
                "velocity": 7,
                "duration": 0.1659,
                "tempo": 120.0
            },
            {
                "pitch": 50,
                "velocity": 7,
                "duration": 0.3841,
                "tempo": 120.0
            },
            {
                "pitch": 47,
                "velocity": 7,
                "duration": 0.1341,
                "tempo": 120.0
            },
            {
                "pitch": 0,
                "velocity": 0,
                "duration": 0.5705,
                "tempo": 0
            },
            {
                "pitch": 43,
                "velocity": 7,
                "duration": 0.2477,
                "tempo": 120.0
            },
            {
                "pitch": 55,
                "velocity": 7,
                "duration": 0.25,
                "tempo": 120.0
            },
            {
                "pitch": 0,
                "velocity": 0,
                "duration": 0.0023,
                "tempo": 0
            },
            {
                "pitch": 53,
                "velocity": 7,
                "duration": 0.1636,
                "tempo": 120.0
            },
            {
                "pitch": 50,
                "velocity": 7,
                "duration": 0.0841,
                "tempo": 120.0
            },
            {
                "pitch": 0,
                "velocity": 0,
                "duration": 0.0023,
                "tempo": 0
            },
            {
                "pitch": 49,
                "velocity": 7,
                "duration": 0.1636,
                "tempo": 120.0
            },
            {
                "pitch": 50,
                "velocity": 7,
                "duration": 0.2523,
                "tempo": 120.0
            },
            {
                "pitch": 50,
                "velocity": 7,
                "duration": 0.0841,
                "tempo": 120.0
            },
            {
                "pitch": 53,
                "velocity": 7,
                "duration": 0.25,
                "tempo": 120.0
            },
            {
                "pitch": 55,
                "velocity": 7,
                "duration": 0.2568,
                "tempo": 120.0
            },
            {
                "pitch": 58,
                "velocity": 7,
                "duration": 0.1705,
                "tempo": 120.0
            },
            {
                "pitch": 64,
                "velocity": 7,
                "duration": 8.025,
                "tempo": 120.0
            },
            {
                "pitch": 60,
                "velocity": 7,
                "duration": 0.0864,
                "tempo": 120.0
            },
            {
                "pitch": 61,
                "velocity": 7,
                "duration": 0.1659,
                "tempo": 120.0
            },
            {
                "pitch": 60,
                "velocity": 7,
                "duration": 0.0841,
                "tempo": 120.0
            },
            {
                "pitch": 58,
                "velocity": 7,
                "duration": 0.1659,
                "tempo": 120.0
            },
            {
                "pitch": 61,
                "velocity": 7,
                "duration": 0.0841,
                "tempo": 120.0
            },
            {
                "pitch": 60,
                "velocity": 7,
                "duration": 0.1659,
                "tempo": 120.0
            },
            {
                "pitch": 58,
                "velocity": 7,
                "duration": 0.0841,
                "tempo": 120.0
            },
            {
                "pitch": 55,
                "velocity": 7,
                "duration": 0.1659,
                "tempo": 120.0
            },
            {
                "pitch": 53,
                "velocity": 7,
                "duration": 0.3182,
                "tempo": 120.0
            },
            {
                "pitch": 51,
                "velocity": 7,
                "duration": 0.1318,
                "tempo": 120.0
            },
            {
                "pitch": 48,
                "velocity": 7,
                "duration": 0.0682,
                "tempo": 120.0
            },
            {
                "pitch": 0,
                "velocity": 0,
                "duration": 1.5705,
                "tempo": 0
            },
            {
                "pitch": 44,
                "velocity": 7,
                "duration": 0.1659,
                "tempo": 120.0
            },
            {
                "pitch": 46,
                "velocity": 7,
                "duration": 0.0841,
                "tempo": 120.0
            },
            {
                "pitch": 46,
                "velocity": 7,
                "duration": 0.1659,
                "tempo": 120.0
            },
            {
                "pitch": 46,
                "velocity": 7,
                "duration": 0.25,
                "tempo": 120.0
            },
            {
                "pitch": 46,
                "velocity": 7,
                "duration": 0.0841,
                "tempo": 120.0
            },
            {
                "pitch": 44,
                "velocity": 7,
                "duration": 0.25,
                "tempo": 120.0
            },
            {
                "pitch": 0,
                "velocity": 0,
                "duration": 0.0023,
                "tempo": 0
            },
            {
                "pitch": 43,
                "velocity": 7,
                "duration": 0.2477,
                "tempo": 120.0
            },
            {
                "pitch": 54,
                "velocity": 10,
                "duration": 18.3364,
                "tempo": 120.0
            },
            {
                "pitch": 42,
                "velocity": 7,
                "duration": 0.2,
                "tempo": 120.0
            },
            {
                "pitch": 39,
                "velocity": 7,
                "duration": 0.0523,
                "tempo": 120.0
            },
            {
                "pitch": 0,
                "velocity": 0,
                "duration": 0.6659,
                "tempo": 0
            },
            {
                "pitch": 34,
                "velocity": 7,
                "duration": 0.0841,
                "tempo": 120.0
            },
            {
                "pitch": 34,
                "velocity": 7,
                "duration": 0.1659,
                "tempo": 120.0
            },
            {
                "pitch": 34,
                "velocity": 7,
                "duration": 0.25,
                "tempo": 120.0
            },
            {
                "pitch": 34,
                "velocity": 7,
                "duration": 0.0841,
                "tempo": 120.0
            },
            {
                "pitch": 0,
                "velocity": 0,
                "duration": 0.2523,
                "tempo": 0
            },
            {
                "pitch": 42,
                "velocity": 7,
                "duration": 0.1636,
                "tempo": 120.0
            },
            {
                "pitch": 43,
                "velocity": 7,
                "duration": 0.0841,
                "tempo": 120.0
            },
            {
                "pitch": 0,
                "velocity": 0,
                "duration": 0.0023,
                "tempo": 0
            },
            {
                "pitch": 43,
                "velocity": 7,
                "duration": 0.1636,
                "tempo": 120.0
            },
            {
                "pitch": 43,
                "velocity": 7,
                "duration": 0.0864,
                "tempo": 120.0
            },
            {
                "pitch": 42,
                "velocity": 7,
                "duration": 0.1636,
                "tempo": 120.0
            },
            {
                "pitch": 0,
                "velocity": 0,
                "duration": 0.0023,
                "tempo": 0
            },
            {
                "pitch": 43,
                "velocity": 7,
                "duration": 0.0841,
                "tempo": 120.0
            },
            {
                "pitch": 43,
                "velocity": 7,
                "duration": 0.1659,
                "tempo": 120.0
            },
            {
                "pitch": 43,
                "velocity": 7,
                "duration": 0.0841,
                "tempo": 120.0
            },
            {
                "pitch": 42,
                "velocity": 7,
                "duration": 0.1659,
                "tempo": 120.0
            },
            {
                "pitch": 43,
                "velocity": 7,
                "duration": 0.0841,
                "tempo": 120.0
            },
            {
                "pitch": 43,
                "velocity": 7,
                "duration": 0.1659,
                "tempo": 120.0
            },
            {
                "pitch": 43,
                "velocity": 7,
                "duration": 0.0841,
                "tempo": 120.0
            },
            {
                "pitch": 42,
                "velocity": 7,
                "duration": 0.1705,
                "tempo": 120.0
            },
            {
                "pitch": 43,
                "velocity": 7,
                "duration": 0.0864,
                "tempo": 120.0
            },
            {
                "pitch": 43,
                "velocity": 7,
                "duration": 0.1705,
                "tempo": 120.0
            },
            {
                "pitch": 43,
                "velocity": 7,
                "duration": 0.0864,
                "tempo": 120.0
            },
            {
                "pitch": 44,
                "velocity": 7,
                "duration": 0.1659,
                "tempo": 120.0
            },
            {
                "pitch": 46,
                "velocity": 7,
                "duration": 0.0841,
                "tempo": 120.0
            },
            {
                "pitch": 46,
                "velocity": 7,
                "duration": 0.1659,
                "tempo": 120.0
            },
            {
                "pitch": 46,
                "velocity": 7,
                "duration": 0.0841,
                "tempo": 120.0
            },
            {
                "pitch": 0,
                "velocity": 0,
                "duration": 0.0023,
                "tempo": 0
            },
            {
                "pitch": 44,
                "velocity": 7,
                "duration": 0.1636,
                "tempo": 120.0
            },
            {
                "pitch": 46,
                "velocity": 7,
                "duration": 0.0864,
                "tempo": 120.0
            },
            {
                "pitch": 46,
                "velocity": 7,
                "duration": 0.1636,
                "tempo": 120.0
            },
            {
                "pitch": 0,
                "velocity": 0,
                "duration": 0.0023,
                "tempo": 0
            },
            {
                "pitch": 46,
                "velocity": 7,
                "duration": 0.0841,
                "tempo": 120.0
            },
            {
                "pitch": 44,
                "velocity": 7,
                "duration": 0.1659,
                "tempo": 120.0
            },
            {
                "pitch": 46,
                "velocity": 7,
                "duration": 0.0841,
                "tempo": 120.0
            },
            {
                "pitch": 46,
                "velocity": 7,
                "duration": 0.1659,
                "tempo": 120.0
            },
            {
                "pitch": 46,
                "velocity": 7,
                "duration": 0.0841,
                "tempo": 120.0
            },
            {
                "pitch": 44,
                "velocity": 7,
                "duration": 0.1659,
                "tempo": 120.0
            },
            {
                "pitch": 46,
                "velocity": 7,
                "duration": 0.0841,
                "tempo": 120.0
            },
            {
                "pitch": 46,
                "velocity": 7,
                "duration": 0.1659,
                "tempo": 120.0
            },
            {
                "pitch": 46,
                "velocity": 7,
                "duration": 0.0841,
                "tempo": 120.0
            },
            {
                "pitch": 0,
                "velocity": 0,
                "duration": 0.0023,
                "tempo": 0
            },
            {
                "pitch": 47,
                "velocity": 7,
                "duration": 0.1636,
                "tempo": 120.0
            },
            {
                "pitch": 52,
                "velocity": 10,
                "duration": 24.7409,
                "tempo": 120.0
            },
            {
                "pitch": 48,
                "velocity": 7,
                "duration": 0.0841,
                "tempo": 120.0
            },
            {
                "pitch": 48,
                "velocity": 7,
                "duration": 0.1659,
                "tempo": 120.0
            },
            {
                "pitch": 48,
                "velocity": 7,
                "duration": 0.0841,
                "tempo": 120.0
            },
            {
                "pitch": 0,
                "velocity": 0,
                "duration": 0.0023,
                "tempo": 0
            },
            {
                "pitch": 47,
                "velocity": 7,
                "duration": 0.1636,
                "tempo": 120.0
            },
            {
                "pitch": 52,
                "velocity": 7,
                "duration": 0.5,
                "tempo": 120.0
            },
            {
                "pitch": 48,
                "velocity": 7,
                "duration": 0.0864,
                "tempo": 120.0
            },
            {
                "pitch": 48,
                "velocity": 7,
                "duration": 0.1659,
                "tempo": 120.0
            },
            {
                "pitch": 48,
                "velocity": 7,
                "duration": 0.0841,
                "tempo": 120.0
            },
            {
                "pitch": 49,
                "velocity": 7,
                "duration": 0.25,
                "tempo": 120.0
            },
            {
                "pitch": 50,
                "velocity": 7,
                "duration": 0.1659,
                "tempo": 120.0
            },
            {
                "pitch": 50,
                "velocity": 7,
                "duration": 0.0841,
                "tempo": 120.0
            },
            {
                "pitch": 49,
                "velocity": 7,
                "duration": 0.25,
                "tempo": 120.0
            },
            {
                "pitch": 50,
                "velocity": 7,
                "duration": 0.1659,
                "tempo": 120.0
            },
            {
                "pitch": 50,
                "velocity": 7,
                "duration": 0.0841,
                "tempo": 120.0
            },
            {
                "pitch": 0,
                "velocity": 0,
                "duration": 0.0023,
                "tempo": 0
            },
            {
                "pitch": 51,
                "velocity": 7,
                "duration": 0.25,
                "tempo": 120.0
            },
            {
                "pitch": 52,
                "velocity": 7,
                "duration": 1.7568,
                "tempo": 120.0
            },
            {
                "pitch": 52,
                "velocity": 7,
                "duration": 0.1659,
                "tempo": 120.0
            },
            {
                "pitch": 52,
                "velocity": 7,
                "duration": 0.0841,
                "tempo": 120.0
            },
            {
                "pitch": 0,
                "velocity": 0,
                "duration": 0.0023,
                "tempo": 0
            },
            {
                "pitch": 51,
                "velocity": 7,
                "duration": 0.25,
                "tempo": 120.0
            },
            {
                "pitch": 52,
                "velocity": 7,
                "duration": 0.1659,
                "tempo": 120.0
            },
            {
                "pitch": 52,
                "velocity": 7,
                "duration": 0.0841,
                "tempo": 120.0
            },
            {
                "pitch": 53,
                "velocity": 7,
                "duration": 0.25,
                "tempo": 120.0
            },
            {
                "pitch": 54,
                "velocity": 7,
                "duration": 9.1955,
                "tempo": 120.0
            },
            {
                "pitch": 54,
                "velocity": 7,
                "duration": 0.1659,
                "tempo": 120.0
            },
            {
                "pitch": 54,
                "velocity": 7,
                "duration": 0.0841,
                "tempo": 120.0
            },
            {
                "pitch": 53,
                "velocity": 7,
                "duration": 0.25,
                "tempo": 120.0
            },
            {
                "pitch": 54,
                "velocity": 7,
                "duration": 0.1659,
                "tempo": 120.0
            },
            {
                "pitch": 54,
                "velocity": 7,
                "duration": 0.0841,
                "tempo": 120.0
            },
            {
                "pitch": 0,
                "velocity": 0,
                "duration": 2.0159,
                "tempo": 0
            },
            {
                "pitch": 44,
                "velocity": 10,
                "duration": 0.2455,
                "tempo": 120.0
            },
            {
                "pitch": 46,
                "velocity": 10,
                "duration": 0.2477,
                "tempo": 120.0
            },
            {
                "pitch": 44,
                "velocity": 10,
                "duration": 0.2545,
                "tempo": 120.0
            },
            {
                "pitch": 43,
                "velocity": 10,
                "duration": 0.2568,
                "tempo": 120.0
            },
            {
                "pitch": 0,
                "velocity": 0,
                "duration": 0.0023,
                "tempo": 0
            },
            {
                "pitch": 42,
                "velocity": 10,
                "duration": 0.2477,
                "tempo": 120.0
            },
            {
                "pitch": 0,
                "velocity": 0,
                "duration": 0.0023,
                "tempo": 0
            },
            {
                "pitch": 42,
                "velocity": 10,
                "duration": 0.1659,
                "tempo": 120.0
            },
            {
                "pitch": 43,
                "velocity": 10,
                "duration": 0.0477,
                "tempo": 120.0
            },
            {
                "pitch": 46,
                "velocity": 10,
                "duration": 0.0341,
                "tempo": 120.0
            },
            {
                "pitch": 52,
                "velocity": 10,
                "duration": 0.0023,
                "tempo": 120.0
            },
            {
                "pitch": 48,
                "velocity": 10,
                "duration": 0.0477,
                "tempo": 120.0
            },
            {
                "pitch": 51,
                "velocity": 10,
                "duration": 0.0341,
                "tempo": 120.0
            },
            {
                "pitch": 53,
                "velocity": 10,
                "duration": 0.0841,
                "tempo": 120.0
            },
            {
                "pitch": 51,
                "velocity": 10,
                "duration": 0.0659,
                "tempo": 120.0
            },
            {
                "pitch": 49,
                "velocity": 10,
                "duration": 0.0659,
                "tempo": 120.0
            },
            {
                "pitch": 47,
                "velocity": 10,
                "duration": 0.0682,
                "tempo": 120.0
            },
            {
                "pitch": 45,
                "velocity": 10,
                "duration": 0.1,
                "tempo": 120.0
            },
            {
                "pitch": 41,
                "velocity": 10,
                "duration": 0.0364,
                "tempo": 120.0
            },
            {
                "pitch": 43,
                "velocity": 7,
                "duration": 0.2477,
                "tempo": 120.0
            },
            {
                "pitch": 55,
                "velocity": 7,
                "duration": 0.25,
                "tempo": 120.0
            },
            {
                "pitch": 0,
                "velocity": 0,
                "duration": 0.0023,
                "tempo": 0
            },
            {
                "pitch": 53,
                "velocity": 7,
                "duration": 0.1636,
                "tempo": 120.0
            },
            {
                "pitch": 50,
                "velocity": 7,
                "duration": 0.0841,
                "tempo": 120.0
            },
            {
                "pitch": 49,
                "velocity": 7,
                "duration": 0.1659,
                "tempo": 120.0
            },
            {
                "pitch": 50,
                "velocity": 7,
                "duration": 0.25,
                "tempo": 120.0
            },
            {
                "pitch": 0,
                "velocity": 0,
                "duration": 0.0023,
                "tempo": 0
            },
            {
                "pitch": 50,
                "velocity": 7,
                "duration": 0.0841,
                "tempo": 120.0
            },
            {
                "pitch": 50,
                "velocity": 7,
                "duration": 0.25,
                "tempo": 120.0
            },
            {
                "pitch": 49,
                "velocity": 7,
                "duration": 0.25,
                "tempo": 120.0
            },
            {
                "pitch": 48,
                "velocity": 7,
                "duration": 0.1659,
                "tempo": 120.0
            },
            {
                "pitch": 46,
                "velocity": 7,
                "duration": 0.0841,
                "tempo": 120.0
            },
            {
                "pitch": 0,
                "velocity": 0,
                "duration": 0.0023,
                "tempo": 0
            },
            {
                "pitch": 43,
                "velocity": 7,
                "duration": 0.2477,
                "tempo": 120.0
            },
            {
                "pitch": 55,
                "velocity": 7,
                "duration": 0.2523,
                "tempo": 120.0
            },
            {
                "pitch": 53,
                "velocity": 7,
                "duration": 0.1636,
                "tempo": 120.0
            },
            {
                "pitch": 50,
                "velocity": 7,
                "duration": 0.0864,
                "tempo": 120.0
            },
            {
                "pitch": 49,
                "velocity": 7,
                "duration": 0.1636,
                "tempo": 120.0
            },
            {
                "pitch": 0,
                "velocity": 0,
                "duration": 0.0023,
                "tempo": 0
            },
            {
                "pitch": 50,
                "velocity": 7,
                "duration": 0.3841,
                "tempo": 120.0
            },
            {
                "pitch": 47,
                "velocity": 7,
                "duration": 0.1318,
                "tempo": 120.0
            },
            {
                "pitch": 0,
                "velocity": 0,
                "duration": 0.5705,
                "tempo": 0
            },
            {
                "pitch": 43,
                "velocity": 7,
                "duration": 0.25,
                "tempo": 120.0
            },
            {
                "pitch": 55,
                "velocity": 7,
                "duration": 0.25,
                "tempo": 120.0
            },
            {
                "pitch": 53,
                "velocity": 7,
                "duration": 0.1682,
                "tempo": 120.0
            },
            {
                "pitch": 50,
                "velocity": 7,
                "duration": 0.0864,
                "tempo": 120.0
            },
            {
                "pitch": 49,
                "velocity": 7,
                "duration": 0.1705,
                "tempo": 120.0
            },
            {
                "pitch": 50,
                "velocity": 7,
                "duration": 0.25,
                "tempo": 120.0
            },
            {
                "pitch": 50,
                "velocity": 7,
                "duration": 0.0841,
                "tempo": 120.0
            },
            {
                "pitch": 53,
                "velocity": 7,
                "duration": 0.2455,
                "tempo": 120.0
            },
            {
                "pitch": 55,
                "velocity": 7,
                "duration": 0.2568,
                "tempo": 120.0
            },
            {
                "pitch": 58,
                "velocity": 7,
                "duration": 0.1705,
                "tempo": 120.0
            },
            {
                "pitch": 64,
                "velocity": 7,
                "duration": 24.0818,
                "tempo": 120.0
            },
            {
                "pitch": 60,
                "velocity": 7,
                "duration": 0.0864,
                "tempo": 120.0
            },
            {
                "pitch": 61,
                "velocity": 7,
                "duration": 0.1659,
                "tempo": 120.0
            },
            {
                "pitch": 60,
                "velocity": 7,
                "duration": 0.0841,
                "tempo": 120.0
            },
            {
                "pitch": 58,
                "velocity": 7,
                "duration": 0.1659,
                "tempo": 120.0
            },
            {
                "pitch": 61,
                "velocity": 7,
                "duration": 0.0841,
                "tempo": 120.0
            },
            {
                "pitch": 0,
                "velocity": 0,
                "duration": 0.0023,
                "tempo": 0
            },
            {
                "pitch": 60,
                "velocity": 7,
                "duration": 0.1636,
                "tempo": 120.0
            },
            {
                "pitch": 58,
                "velocity": 7,
                "duration": 0.0841,
                "tempo": 120.0
            },
            {
                "pitch": 0,
                "velocity": 0,
                "duration": 0.0023,
                "tempo": 0
            },
            {
                "pitch": 55,
                "velocity": 7,
                "duration": 0.1636,
                "tempo": 120.0
            },
            {
                "pitch": 53,
                "velocity": 7,
                "duration": 0.3182,
                "tempo": 120.0
            },
            {
                "pitch": 51,
                "velocity": 7,
                "duration": 0.1318,
                "tempo": 120.0
            },
            {
                "pitch": 48,
                "velocity": 7,
                "duration": 0.0682,
                "tempo": 120.0
            },
            {
                "pitch": 0,
                "velocity": 0,
                "duration": 0.5705,
                "tempo": 0
            },
            {
                "pitch": 43,
                "velocity": 7,
                "duration": 0.2477,
                "tempo": 120.0
            },
            {
                "pitch": 55,
                "velocity": 7,
                "duration": 0.25,
                "tempo": 120.0
            },
            {
                "pitch": 0,
                "velocity": 0,
                "duration": 0.0023,
                "tempo": 0
            },
            {
                "pitch": 53,
                "velocity": 7,
                "duration": 0.1636,
                "tempo": 120.0
            },
            {
                "pitch": 50,
                "velocity": 7,
                "duration": 0.0841,
                "tempo": 120.0
            },
            {
                "pitch": 0,
                "velocity": 0,
                "duration": 0.0023,
                "tempo": 0
            },
            {
                "pitch": 49,
                "velocity": 7,
                "duration": 0.1636,
                "tempo": 120.0
            },
            {
                "pitch": 50,
                "velocity": 7,
                "duration": 0.2523,
                "tempo": 120.0
            },
            {
                "pitch": 50,
                "velocity": 7,
                "duration": 0.0841,
                "tempo": 120.0
            },
            {
                "pitch": 50,
                "velocity": 7,
                "duration": 0.25,
                "tempo": 120.0
            },
            {
                "pitch": 49,
                "velocity": 7,
                "duration": 0.25,
                "tempo": 120.0
            },
            {
                "pitch": 48,
                "velocity": 7,
                "duration": 0.1659,
                "tempo": 120.0
            },
            {
                "pitch": 46,
                "velocity": 7,
                "duration": 0.0841,
                "tempo": 120.0
            },
            {
                "pitch": 43,
                "velocity": 7,
                "duration": 0.25,
                "tempo": 120.0
            },
            {
                "pitch": 0,
                "velocity": 0,
                "duration": 0.0023,
                "tempo": 0
            },
            {
                "pitch": 55,
                "velocity": 7,
                "duration": 0.2477,
                "tempo": 120.0
            },
            {
                "pitch": 0,
                "velocity": 0,
                "duration": 0.0023,
                "tempo": 0
            },
            {
                "pitch": 53,
                "velocity": 7,
                "duration": 0.1636,
                "tempo": 120.0
            },
            {
                "pitch": 50,
                "velocity": 7,
                "duration": 0.0864,
                "tempo": 120.0
            },
            {
                "pitch": 49,
                "velocity": 7,
                "duration": 0.1636,
                "tempo": 120.0
            },
            {
                "pitch": 0,
                "velocity": 0,
                "duration": 0.0023,
                "tempo": 0
            },
            {
                "pitch": 50,
                "velocity": 7,
                "duration": 0.3818,
                "tempo": 120.0
            },
            {
                "pitch": 47,
                "velocity": 7,
                "duration": 0.1341,
                "tempo": 120.0
            },
            {
                "pitch": 0,
                "velocity": 0,
                "duration": 0.5705,
                "tempo": 0
            },
            {
                "pitch": 43,
                "velocity": 7,
                "duration": 0.2477,
                "tempo": 120.0
            },
            {
                "pitch": 55,
                "velocity": 7,
                "duration": 0.2523,
                "tempo": 120.0
            },
            {
                "pitch": 53,
                "velocity": 7,
                "duration": 0.1682,
                "tempo": 120.0
            },
            {
                "pitch": 50,
                "velocity": 7,
                "duration": 0.0864,
                "tempo": 120.0
            },
            {
                "pitch": 0,
                "velocity": 0,
                "duration": 0.0023,
                "tempo": 0
            },
            {
                "pitch": 49,
                "velocity": 7,
                "duration": 0.1682,
                "tempo": 120.0
            },
            {
                "pitch": 50,
                "velocity": 7,
                "duration": 0.2545,
                "tempo": 120.0
            },
            {
                "pitch": 50,
                "velocity": 7,
                "duration": 0.0841,
                "tempo": 120.0
            },
            {
                "pitch": 53,
                "velocity": 7,
                "duration": 0.25,
                "tempo": 120.0
            },
            {
                "pitch": 55,
                "velocity": 7,
                "duration": 0.25,
                "tempo": 120.0
            },
            {
                "pitch": 58,
                "velocity": 7,
                "duration": 0.1659,
                "tempo": 120.0
            },
            {
                "pitch": 64,
                "velocity": 7,
                "duration": 8.025,
                "tempo": 120.0
            },
            {
                "pitch": 60,
                "velocity": 7,
                "duration": 0.0841,
                "tempo": 120.0
            },
            {
                "pitch": 61,
                "velocity": 7,
                "duration": 0.1659,
                "tempo": 120.0
            },
            {
                "pitch": 60,
                "velocity": 7,
                "duration": 0.0841,
                "tempo": 120.0
            },
            {
                "pitch": 58,
                "velocity": 7,
                "duration": 0.1659,
                "tempo": 120.0
            },
            {
                "pitch": 61,
                "velocity": 7,
                "duration": 0.0841,
                "tempo": 120.0
            },
            {
                "pitch": 0,
                "velocity": 0,
                "duration": 0.0023,
                "tempo": 0
            },
            {
                "pitch": 60,
                "velocity": 7,
                "duration": 0.1636,
                "tempo": 120.0
            },
            {
                "pitch": 58,
                "velocity": 7,
                "duration": 0.0864,
                "tempo": 120.0
            },
            {
                "pitch": 55,
                "velocity": 7,
                "duration": 0.1636,
                "tempo": 120.0
            },
            {
                "pitch": 0,
                "velocity": 0,
                "duration": 0.0023,
                "tempo": 0
            },
            {
                "pitch": 53,
                "velocity": 7,
                "duration": 0.3159,
                "tempo": 120.0
            },
            {
                "pitch": 51,
                "velocity": 7,
                "duration": 0.1341,
                "tempo": 120.0
            },
            {
                "pitch": 48,
                "velocity": 7,
                "duration": 0.0659,
                "tempo": 120.0
            }
        ],
        "Lead 2 (sawtooth)": [
            {
                "pitch": 0,
                "velocity": 0,
                "duration": 4.2705,
                "tempo": 0
            },
            {
                "pitch": 34,
                "velocity": 10,
                "duration": 0.25,
                "tempo": 120.0
            },
            {
                "pitch": 0,
                "velocity": 0,
                "duration": 0.9795,
                "tempo": 0
            },
            {
                "pitch": 34,
                "velocity": 10,
                "duration": 0.0341,
                "tempo": 120.0
            },
            {
                "pitch": 36,
                "velocity": 10,
                "duration": 0.0341,
                "tempo": 120.0
            },
            {
                "pitch": 38,
                "velocity": 10,
                "duration": 0.0318,
                "tempo": 120.0
            },
            {
                "pitch": 40,
                "velocity": 10,
                "duration": 0.2,
                "tempo": 120.0
            },
            {
                "pitch": 40,
                "velocity": 10,
                "duration": 0.1341,
                "tempo": 120.0
            },
            {
                "pitch": 38,
                "velocity": 10,
                "duration": 0.0682,
                "tempo": 120.0
            },
            {
                "pitch": 36,
                "velocity": 10,
                "duration": 0.0318,
                "tempo": 120.0
            },
            {
                "pitch": 35,
                "velocity": 10,
                "duration": 0.0682,
                "tempo": 120.0
            },
            {
                "pitch": 33,
                "velocity": 10,
                "duration": 0.1,
                "tempo": 120.0
            },
            {
                "pitch": 0,
                "velocity": 0,
                "duration": 0.2841,
                "tempo": 0
            },
            {
                "pitch": 43,
                "velocity": 10,
                "duration": 0.25,
                "tempo": 120.0
            },
            {
                "pitch": 0,
                "velocity": 0,
                "duration": 0.0023,
                "tempo": 0
            },
            {
                "pitch": 41,
                "velocity": 10,
                "duration": 0.1636,
                "tempo": 120.0
            },
            {
                "pitch": 38,
                "velocity": 10,
                "duration": 0.0841,
                "tempo": 120.0
            },
            {
                "pitch": 37,
                "velocity": 10,
                "duration": 0.1659,
                "tempo": 120.0
            },
            {
                "pitch": 38,
                "velocity": 10,
                "duration": 0.25,
                "tempo": 120.0
            },
            {
                "pitch": 0,
                "velocity": 0,
                "duration": 0.0023,
                "tempo": 0
            },
            {
                "pitch": 38,
                "velocity": 10,
                "duration": 0.0841,
                "tempo": 120.0
            },
            {
                "pitch": 38,
                "velocity": 10,
                "duration": 0.25,
                "tempo": 120.0
            },
            {
                "pitch": 37,
                "velocity": 10,
                "duration": 0.25,
                "tempo": 120.0
            },
            {
                "pitch": 36,
                "velocity": 10,
                "duration": 0.1659,
                "tempo": 120.0
            },
            {
                "pitch": 34,
                "velocity": 10,
                "duration": 0.0841,
                "tempo": 120.0
            },
            {
                "pitch": 0,
                "velocity": 0,
                "duration": 0.2523,
                "tempo": 0
            },
            {
                "pitch": 43,
                "velocity": 10,
                "duration": 0.2523,
                "tempo": 120.0
            },
            {
                "pitch": 0,
                "velocity": 0,
                "duration": 0.0023,
                "tempo": 0
            },
            {
                "pitch": 41,
                "velocity": 10,
                "duration": 0.1636,
                "tempo": 120.0
            },
            {
                "pitch": 38,
                "velocity": 10,
                "duration": 0.0864,
                "tempo": 120.0
            },
            {
                "pitch": 37,
                "velocity": 10,
                "duration": 0.1636,
                "tempo": 120.0
            },
            {
                "pitch": 38,
                "velocity": 10,
                "duration": 0.3182,
                "tempo": 120.0
            },
            {
                "pitch": 36,
                "velocity": 10,
                "duration": 0.0659,
                "tempo": 120.0
            },
            {
                "pitch": 35,
                "velocity": 10,
                "duration": 0.1341,
                "tempo": 120.0
            },
            {
                "pitch": 0,
                "velocity": 0,
                "duration": 0.8205,
                "tempo": 0
            },
            {
                "pitch": 43,
                "velocity": 10,
                "duration": 0.25,
                "tempo": 120.0
            },
            {
                "pitch": 41,
                "velocity": 10,
                "duration": 0.1636,
                "tempo": 120.0
            },
            {
                "pitch": 38,
                "velocity": 10,
                "duration": 0.0841,
                "tempo": 120.0
            },
            {
                "pitch": 0,
                "velocity": 0,
                "duration": 0.0023,
                "tempo": 0
            },
            {
                "pitch": 37,
                "velocity": 10,
                "duration": 0.1636,
                "tempo": 120.0
            },
            {
                "pitch": 0,
                "velocity": 0,
                "duration": 0.0023,
                "tempo": 0
            },
            {
                "pitch": 38,
                "velocity": 10,
                "duration": 0.2477,
                "tempo": 120.0
            },
            {
                "pitch": 0,
                "velocity": 0,
                "duration": 0.0023,
                "tempo": 0
            },
            {
                "pitch": 38,
                "velocity": 10,
                "duration": 0.0841,
                "tempo": 120.0
            },
            {
                "pitch": 41,
                "velocity": 10,
                "duration": 0.25,
                "tempo": 120.0
            },
            {
                "pitch": 43,
                "velocity": 10,
                "duration": 0.2568,
                "tempo": 120.0
            },
            {
                "pitch": 46,
                "velocity": 10,
                "duration": 0.1682,
                "tempo": 120.0
            },
            {
                "pitch": 48,
                "velocity": 10,
                "duration": 0.0886,
                "tempo": 120.0
            },
            {
                "pitch": 49,
                "velocity": 10,
                "duration": 0.1659,
                "tempo": 120.0
            },
            {
                "pitch": 48,
                "velocity": 10,
                "duration": 0.0841,
                "tempo": 120.0
            },
            {
                "pitch": 46,
                "velocity": 10,
                "duration": 0.1659,
                "tempo": 120.0
            },
            {
                "pitch": 49,
                "velocity": 10,
                "duration": 0.0841,
                "tempo": 120.0
            },
            {
                "pitch": 48,
                "velocity": 10,
                "duration": 0.1659,
                "tempo": 120.0
            },
            {
                "pitch": 46,
                "velocity": 10,
                "duration": 0.0841,
                "tempo": 120.0
            },
            {
                "pitch": 0,
                "velocity": 0,
                "duration": 0.0023,
                "tempo": 0
            },
            {
                "pitch": 43,
                "velocity": 10,
                "duration": 0.1636,
                "tempo": 120.0
            },
            {
                "pitch": 41,
                "velocity": 10,
                "duration": 0.3182,
                "tempo": 120.0
            },
            {
                "pitch": 39,
                "velocity": 10,
                "duration": 0.1318,
                "tempo": 120.0
            },
            {
                "pitch": 36,
                "velocity": 10,
                "duration": 0.0682,
                "tempo": 120.0
            },
            {
                "pitch": 0,
                "velocity": 0,
                "duration": 0.8182,
                "tempo": 0
            },
            {
                "pitch": 43,
                "velocity": 10,
                "duration": 0.25,
                "tempo": 120.0
            },
            {
                "pitch": 0,
                "velocity": 0,
                "duration": 0.0023,
                "tempo": 0
            },
            {
                "pitch": 41,
                "velocity": 10,
                "duration": 0.1636,
                "tempo": 120.0
            },
            {
                "pitch": 38,
                "velocity": 10,
                "duration": 0.0841,
                "tempo": 120.0
            },
            {
                "pitch": 37,
                "velocity": 10,
                "duration": 0.1659,
                "tempo": 120.0
            },
            {
                "pitch": 38,
                "velocity": 10,
                "duration": 0.2523,
                "tempo": 120.0
            },
            {
                "pitch": 38,
                "velocity": 10,
                "duration": 0.0841,
                "tempo": 120.0
            },
            {
                "pitch": 38,
                "velocity": 10,
                "duration": 0.25,
                "tempo": 120.0
            },
            {
                "pitch": 37,
                "velocity": 10,
                "duration": 0.25,
                "tempo": 120.0
            },
            {
                "pitch": 36,
                "velocity": 10,
                "duration": 0.1659,
                "tempo": 120.0
            },
            {
                "pitch": 34,
                "velocity": 10,
                "duration": 0.0841,
                "tempo": 120.0
            },
            {
                "pitch": 0,
                "velocity": 0,
                "duration": 0.25,
                "tempo": 0
            },
            {
                "pitch": 43,
                "velocity": 10,
                "duration": 0.25,
                "tempo": 120.0
            },
            {
                "pitch": 0,
                "velocity": 0,
                "duration": 0.0023,
                "tempo": 0
            },
            {
                "pitch": 41,
                "velocity": 10,
                "duration": 0.1636,
                "tempo": 120.0
            },
            {
                "pitch": 38,
                "velocity": 10,
                "duration": 0.0864,
                "tempo": 120.0
            },
            {
                "pitch": 37,
                "velocity": 10,
                "duration": 0.1636,
                "tempo": 120.0
            },
            {
                "pitch": 0,
                "velocity": 0,
                "duration": 0.0023,
                "tempo": 0
            },
            {
                "pitch": 38,
                "velocity": 10,
                "duration": 0.3159,
                "tempo": 120.0
            },
            {
                "pitch": 36,
                "velocity": 10,
                "duration": 0.0659,
                "tempo": 120.0
            },
            {
                "pitch": 35,
                "velocity": 10,
                "duration": 0.1341,
                "tempo": 120.0
            },
            {
                "pitch": 0,
                "velocity": 0,
                "duration": 0.8182,
                "tempo": 0
            },
            {
                "pitch": 43,
                "velocity": 10,
                "duration": 0.2523,
                "tempo": 120.0
            },
            {
                "pitch": 41,
                "velocity": 10,
                "duration": 0.1636,
                "tempo": 120.0
            },
            {
                "pitch": 38,
                "velocity": 10,
                "duration": 0.0864,
                "tempo": 120.0
            },
            {
                "pitch": 37,
                "velocity": 10,
                "duration": 0.1636,
                "tempo": 120.0
            },
            {
                "pitch": 0,
                "velocity": 0,
                "duration": 0.0023,
                "tempo": 0
            },
            {
                "pitch": 38,
                "velocity": 10,
                "duration": 0.25,
                "tempo": 120.0
            },
            {
                "pitch": 38,
                "velocity": 10,
                "duration": 0.0841,
                "tempo": 120.0
            },
            {
                "pitch": 41,
                "velocity": 10,
                "duration": 0.25,
                "tempo": 120.0
            },
            {
                "pitch": 43,
                "velocity": 10,
                "duration": 0.2568,
                "tempo": 120.0
            },
            {
                "pitch": 46,
                "velocity": 10,
                "duration": 0.1705,
                "tempo": 120.0
            },
            {
                "pitch": 52,
                "velocity": 10,
                "duration": 8.025,
                "tempo": 120.0
            },
            {
                "pitch": 48,
                "velocity": 10,
                "duration": 0.0864,
                "tempo": 120.0
            },
            {
                "pitch": 49,
                "velocity": 10,
                "duration": 0.1659,
                "tempo": 120.0
            },
            {
                "pitch": 48,
                "velocity": 10,
                "duration": 0.0841,
                "tempo": 120.0
            },
            {
                "pitch": 46,
                "velocity": 10,
                "duration": 0.1659,
                "tempo": 120.0
            },
            {
                "pitch": 49,
                "velocity": 10,
                "duration": 0.0841,
                "tempo": 120.0
            },
            {
                "pitch": 0,
                "velocity": 0,
                "duration": 0.0023,
                "tempo": 0
            },
            {
                "pitch": 48,
                "velocity": 10,
                "duration": 0.1636,
                "tempo": 120.0
            },
            {
                "pitch": 46,
                "velocity": 10,
                "duration": 0.0864,
                "tempo": 120.0
            },
            {
                "pitch": 43,
                "velocity": 10,
                "duration": 0.1636,
                "tempo": 120.0
            },
            {
                "pitch": 0,
                "velocity": 0,
                "duration": 0.0023,
                "tempo": 0
            },
            {
                "pitch": 41,
                "velocity": 10,
                "duration": 0.3159,
                "tempo": 120.0
            },
            {
                "pitch": 39,
                "velocity": 10,
                "duration": 0.1318,
                "tempo": 120.0
            },
            {
                "pitch": 36,
                "velocity": 10,
                "duration": 0.0682,
                "tempo": 120.0
            },
            {
                "pitch": 0,
                "velocity": 0,
                "duration": 1.5705,
                "tempo": 0
            },
            {
                "pitch": 44,
                "velocity": 10,
                "duration": 0.1659,
                "tempo": 120.0
            },
            {
                "pitch": 46,
                "velocity": 10,
                "duration": 0.0841,
                "tempo": 120.0
            },
            {
                "pitch": 46,
                "velocity": 10,
                "duration": 0.1659,
                "tempo": 120.0
            },
            {
                "pitch": 46,
                "velocity": 10,
                "duration": 0.25,
                "tempo": 120.0
            },
            {
                "pitch": 46,
                "velocity": 10,
                "duration": 0.0841,
                "tempo": 120.0
            },
            {
                "pitch": 44,
                "velocity": 10,
                "duration": 0.2523,
                "tempo": 120.0
            },
            {
                "pitch": 43,
                "velocity": 10,
                "duration": 0.2477,
                "tempo": 120.0
            },
            {
                "pitch": 42,
                "velocity": 10,
                "duration": 18.5364,
                "tempo": 120.0
            },
            {
                "pitch": 42,
                "velocity": 10,
                "duration": 0.2,
                "tempo": 120.0
            },
            {
                "pitch": 39,
                "velocity": 10,
                "duration": 0.0523,
                "tempo": 120.0
            },
            {
                "pitch": 0,
                "velocity": 0,
                "duration": 0.6659,
                "tempo": 0
            },
            {
                "pitch": 34,
                "velocity": 10,
                "duration": 0.0841,
                "tempo": 120.0
            },
            {
                "pitch": 34,
                "velocity": 10,
                "duration": 0.1659,
                "tempo": 120.0
            },
            {
                "pitch": 34,
                "velocity": 10,
                "duration": 0.25,
                "tempo": 120.0
            },
            {
                "pitch": 34,
                "velocity": 10,
                "duration": 0.0841,
                "tempo": 120.0
            },
            {
                "pitch": 0,
                "velocity": 0,
                "duration": 2.4318,
                "tempo": 0
            },
            {
                "pitch": 34,
                "velocity": 10,
                "duration": 0.0841,
                "tempo": 120.0
            },
            {
                "pitch": 0,
                "velocity": 0,
                "duration": 0.0023,
                "tempo": 0
            },
            {
                "pitch": 34,
                "velocity": 10,
                "duration": 0.1636,
                "tempo": 120.0
            },
            {
                "pitch": 34,
                "velocity": 10,
                "duration": 0.0864,
                "tempo": 120.0
            },
            {
                "pitch": 0,
                "velocity": 0,
                "duration": 0.1636,
                "tempo": 0
            },
            {
                "pitch": 34,
                "velocity": 10,
                "duration": 0.0864,
                "tempo": 120.0
            },
            {
                "pitch": 34,
                "velocity": 10,
                "duration": 0.1659,
                "tempo": 120.0
            },
            {
                "pitch": 34,
                "velocity": 10,
                "duration": 0.0841,
                "tempo": 120.0
            },
            {
                "pitch": 0,
                "velocity": 0,
                "duration": 0.1659,
                "tempo": 0
            },
            {
                "pitch": 34,
                "velocity": 10,
                "duration": 0.0841,
                "tempo": 120.0
            },
            {
                "pitch": 34,
                "velocity": 10,
                "duration": 0.1659,
                "tempo": 120.0
            },
            {
                "pitch": 34,
                "velocity": 10,
                "duration": 0.0841,
                "tempo": 120.0
            },
            {
                "pitch": 0,
                "velocity": 0,
                "duration": 0.1659,
                "tempo": 0
            },
            {
                "pitch": 34,
                "velocity": 10,
                "duration": 0.0841,
                "tempo": 120.0
            },
            {
                "pitch": 34,
                "velocity": 10,
                "duration": 0.1659,
                "tempo": 120.0
            },
            {
                "pitch": 34,
                "velocity": 10,
                "duration": 0.0864,
                "tempo": 120.0
            },
            {
                "pitch": 35,
                "velocity": 10,
                "duration": 0.1636,
                "tempo": 120.0
            },
            {
                "pitch": 36,
                "velocity": 10,
                "duration": 0.0864,
                "tempo": 120.0
            },
            {
                "pitch": 36,
                "velocity": 10,
                "duration": 0.1636,
                "tempo": 120.0
            },
            {
                "pitch": 0,
                "velocity": 0,
                "duration": 0.0023,
                "tempo": 0
            },
            {
                "pitch": 36,
                "velocity": 10,
                "duration": 0.0841,
                "tempo": 120.0
            },
            {
                "pitch": 35,
                "velocity": 10,
                "duration": 0.1659,
                "tempo": 120.0
            },
            {
                "pitch": 40,
                "velocity": 10,
                "duration": 0.5023,
                "tempo": 120.0
            },
            {
                "pitch": 36,
                "velocity": 10,
                "duration": 0.0841,
                "tempo": 120.0
            },
            {
                "pitch": 36,
                "velocity": 10,
                "duration": 0.1659,
                "tempo": 120.0
            },
            {
                "pitch": 36,
                "velocity": 10,
                "duration": 0.0841,
                "tempo": 120.0
            },
            {
                "pitch": 37,
                "velocity": 10,
                "duration": 0.25,
                "tempo": 120.0
            },
            {
                "pitch": 38,
                "velocity": 10,
                "duration": 0.1659,
                "tempo": 120.0
            },
            {
                "pitch": 38,
                "velocity": 10,
                "duration": 0.0841,
                "tempo": 120.0
            },
            {
                "pitch": 0,
                "velocity": 0,
                "duration": 0.0023,
                "tempo": 0
            },
            {
                "pitch": 37,
                "velocity": 10,
                "duration": 0.2477,
                "tempo": 120.0
            },
            {
                "pitch": 0,
                "velocity": 0,
                "duration": 0.0023,
                "tempo": 0
            },
            {
                "pitch": 38,
                "velocity": 10,
                "duration": 0.1636,
                "tempo": 120.0
            },
            {
                "pitch": 0,
                "velocity": 0,
                "duration": 0.0023,
                "tempo": 0
            },
            {
                "pitch": 38,
                "velocity": 10,
                "duration": 0.0841,
                "tempo": 120.0
            },
            {
                "pitch": 39,
                "velocity": 10,
                "duration": 0.2523,
                "tempo": 120.0
            },
            {
                "pitch": 40,
                "velocity": 10,
                "duration": 1.7545,
                "tempo": 120.0
            },
            {
                "pitch": 40,
                "velocity": 10,
                "duration": 0.1659,
                "tempo": 120.0
            },
            {
                "pitch": 40,
                "velocity": 10,
                "duration": 0.0864,
                "tempo": 120.0
            },
            {
                "pitch": 39,
                "velocity": 10,
                "duration": 0.25,
                "tempo": 120.0
            },
            {
                "pitch": 40,
                "velocity": 10,
                "duration": 0.1659,
                "tempo": 120.0
            },
            {
                "pitch": 40,
                "velocity": 10,
                "duration": 0.0841,
                "tempo": 120.0
            },
            {
                "pitch": 41,
                "velocity": 10,
                "duration": 0.25,
                "tempo": 120.0
            },
            {
                "pitch": 42,
                "velocity": 10,
                "duration": 0.1659,
                "tempo": 120.0
            },
            {
                "pitch": 42,
                "velocity": 10,
                "duration": 0.0841,
                "tempo": 120.0
            },
            {
                "pitch": 0,
                "velocity": 0,
                "duration": 0.0023,
                "tempo": 0
            },
            {
                "pitch": 41,
                "velocity": 10,
                "duration": 0.2477,
                "tempo": 120.0
            },
            {
                "pitch": 0,
                "velocity": 0,
                "duration": 0.0023,
                "tempo": 0
            },
            {
                "pitch": 42,
                "velocity": 10,
                "duration": 0.1636,
                "tempo": 120.0
            },
            {
                "pitch": 42,
                "velocity": 10,
                "duration": 0.0864,
                "tempo": 120.0
            },
            {
                "pitch": 39,
                "velocity": 10,
                "duration": 0.3818,
                "tempo": 120.0
            },
            {
                "pitch": 36,
                "velocity": 10,
                "duration": 0.0659,
                "tempo": 120.0
            },
            {
                "pitch": 35,
                "velocity": 10,
                "duration": 0.05,
                "tempo": 120.0
            },
            {
                "pitch": 0,
                "velocity": 0,
                "duration": 1.7614,
                "tempo": 0
            },
            {
                "pitch": 34,
                "velocity": 10,
                "duration": 0.2477,
                "tempo": 120.0
            },
            {
                "pitch": 0,
                "velocity": 0,
                "duration": 0.9795,
                "tempo": 0
            },
            {
                "pitch": 34,
                "velocity": 10,
                "duration": 0.0341,
                "tempo": 120.0
            },
            {
                "pitch": 36,
                "velocity": 10,
                "duration": 0.0318,
                "tempo": 120.0
            },
            {
                "pitch": 38,
                "velocity": 10,
                "duration": 0.0341,
                "tempo": 120.0
            },
            {
                "pitch": 40,
                "velocity": 10,
                "duration": 0.1977,
                "tempo": 120.0
            },
            {
                "pitch": 40,
                "velocity": 10,
                "duration": 0.1318,
                "tempo": 120.0
            },
            {
                "pitch": 38,
                "velocity": 10,
                "duration": 0.0682,
                "tempo": 120.0
            },
            {
                "pitch": 36,
                "velocity": 10,
                "duration": 0.0341,
                "tempo": 120.0
            },
            {
                "pitch": 35,
                "velocity": 10,
                "duration": 0.0659,
                "tempo": 120.0
            },
            {
                "pitch": 33,
                "velocity": 10,
                "duration": 0.1,
                "tempo": 120.0
            },
            {
                "pitch": 0,
                "velocity": 0,
                "duration": 0.2864,
                "tempo": 0
            },
            {
                "pitch": 43,
                "velocity": 10,
                "duration": 0.25,
                "tempo": 120.0
            },
            {
                "pitch": 41,
                "velocity": 10,
                "duration": 0.1636,
                "tempo": 120.0
            },
            {
                "pitch": 38,
                "velocity": 10,
                "duration": 0.0841,
                "tempo": 120.0
            },
            {
                "pitch": 0,
                "velocity": 0,
                "duration": 0.0023,
                "tempo": 0
            },
            {
                "pitch": 37,
                "velocity": 10,
                "duration": 0.1636,
                "tempo": 120.0
            },
            {
                "pitch": 0,
                "velocity": 0,
                "duration": 0.0023,
                "tempo": 0
            },
            {
                "pitch": 38,
                "velocity": 10,
                "duration": 0.25,
                "tempo": 120.0
            },
            {
                "pitch": 38,
                "velocity": 10,
                "duration": 0.0841,
                "tempo": 120.0
            },
            {
                "pitch": 38,
                "velocity": 10,
                "duration": 0.25,
                "tempo": 120.0
            },
            {
                "pitch": 37,
                "velocity": 10,
                "duration": 0.25,
                "tempo": 120.0
            },
            {
                "pitch": 36,
                "velocity": 10,
                "duration": 0.1659,
                "tempo": 120.0
            },
            {
                "pitch": 34,
                "velocity": 10,
                "duration": 0.0864,
                "tempo": 120.0
            },
            {
                "pitch": 0,
                "velocity": 0,
                "duration": 0.25,
                "tempo": 0
            },
            {
                "pitch": 43,
                "velocity": 10,
                "duration": 0.25,
                "tempo": 120.0
            },
            {
                "pitch": 41,
                "velocity": 10,
                "duration": 0.1636,
                "tempo": 120.0
            },
            {
                "pitch": 0,
                "velocity": 0,
                "duration": 0.0023,
                "tempo": 0
            },
            {
                "pitch": 38,
                "velocity": 10,
                "duration": 0.0841,
                "tempo": 120.0
            },
            {
                "pitch": 37,
                "velocity": 10,
                "duration": 0.1659,
                "tempo": 120.0
            },
            {
                "pitch": 38,
                "velocity": 10,
                "duration": 0.3159,
                "tempo": 120.0
            },
            {
                "pitch": 36,
                "velocity": 10,
                "duration": 0.0682,
                "tempo": 120.0
            },
            {
                "pitch": 35,
                "velocity": 10,
                "duration": 0.1318,
                "tempo": 120.0
            },
            {
                "pitch": 0,
                "velocity": 0,
                "duration": 0.8205,
                "tempo": 0
            },
            {
                "pitch": 43,
                "velocity": 10,
                "duration": 0.25,
                "tempo": 120.0
            },
            {
                "pitch": 41,
                "velocity": 10,
                "duration": 0.1682,
                "tempo": 120.0
            },
            {
                "pitch": 0,
                "velocity": 0,
                "duration": 0.0023,
                "tempo": 0
            },
            {
                "pitch": 38,
                "velocity": 10,
                "duration": 0.0841,
                "tempo": 120.0
            },
            {
                "pitch": 0,
                "velocity": 0,
                "duration": 0.0023,
                "tempo": 0
            },
            {
                "pitch": 37,
                "velocity": 10,
                "duration": 0.1682,
                "tempo": 120.0
            },
            {
                "pitch": 0,
                "velocity": 0,
                "duration": 0.0023,
                "tempo": 0
            },
            {
                "pitch": 38,
                "velocity": 10,
                "duration": 0.2477,
                "tempo": 120.0
            },
            {
                "pitch": 38,
                "velocity": 10,
                "duration": 0.0841,
                "tempo": 120.0
            },
            {
                "pitch": 41,
                "velocity": 10,
                "duration": 0.2455,
                "tempo": 120.0
            },
            {
                "pitch": 43,
                "velocity": 10,
                "duration": 0.2568,
                "tempo": 120.0
            },
            {
                "pitch": 46,
                "velocity": 10,
                "duration": 0.1705,
                "tempo": 120.0
            },
            {
                "pitch": 52,
                "velocity": 10,
                "duration": 24.0818,
                "tempo": 120.0
            },
            {
                "pitch": 48,
                "velocity": 10,
                "duration": 0.0864,
                "tempo": 120.0
            },
            {
                "pitch": 49,
                "velocity": 10,
                "duration": 0.1659,
                "tempo": 120.0
            },
            {
                "pitch": 48,
                "velocity": 10,
                "duration": 0.0841,
                "tempo": 120.0
            },
            {
                "pitch": 46,
                "velocity": 10,
                "duration": 0.1659,
                "tempo": 120.0
            },
            {
                "pitch": 49,
                "velocity": 10,
                "duration": 0.0864,
                "tempo": 120.0
            },
            {
                "pitch": 48,
                "velocity": 10,
                "duration": 0.1636,
                "tempo": 120.0
            },
            {
                "pitch": 46,
                "velocity": 10,
                "duration": 0.0864,
                "tempo": 120.0
            },
            {
                "pitch": 43,
                "velocity": 10,
                "duration": 0.1636,
                "tempo": 120.0
            },
            {
                "pitch": 0,
                "velocity": 0,
                "duration": 0.0023,
                "tempo": 0
            },
            {
                "pitch": 41,
                "velocity": 10,
                "duration": 0.3159,
                "tempo": 120.0
            },
            {
                "pitch": 39,
                "velocity": 10,
                "duration": 0.1341,
                "tempo": 120.0
            },
            {
                "pitch": 36,
                "velocity": 10,
                "duration": 0.0659,
                "tempo": 120.0
            },
            {
                "pitch": 0,
                "velocity": 0,
                "duration": 0.8182,
                "tempo": 0
            },
            {
                "pitch": 43,
                "velocity": 10,
                "duration": 0.2523,
                "tempo": 120.0
            },
            {
                "pitch": 41,
                "velocity": 10,
                "duration": 0.1636,
                "tempo": 120.0
            },
            {
                "pitch": 38,
                "velocity": 10,
                "duration": 0.0864,
                "tempo": 120.0
            },
            {
                "pitch": 37,
                "velocity": 10,
                "duration": 0.1636,
                "tempo": 120.0
            },
            {
                "pitch": 0,
                "velocity": 0,
                "duration": 0.0023,
                "tempo": 0
            },
            {
                "pitch": 38,
                "velocity": 10,
                "duration": 0.25,
                "tempo": 120.0
            },
            {
                "pitch": 38,
                "velocity": 10,
                "duration": 0.0841,
                "tempo": 120.0
            },
            {
                "pitch": 38,
                "velocity": 10,
                "duration": 0.25,
                "tempo": 120.0
            },
            {
                "pitch": 37,
                "velocity": 10,
                "duration": 0.25,
                "tempo": 120.0
            },
            {
                "pitch": 36,
                "velocity": 10,
                "duration": 0.1659,
                "tempo": 120.0
            },
            {
                "pitch": 34,
                "velocity": 10,
                "duration": 0.0864,
                "tempo": 120.0
            },
            {
                "pitch": 0,
                "velocity": 0,
                "duration": 0.25,
                "tempo": 0
            },
            {
                "pitch": 43,
                "velocity": 10,
                "duration": 0.25,
                "tempo": 120.0
            },
            {
                "pitch": 41,
                "velocity": 10,
                "duration": 0.1659,
                "tempo": 120.0
            },
            {
                "pitch": 38,
                "velocity": 10,
                "duration": 0.0841,
                "tempo": 120.0
            },
            {
                "pitch": 37,
                "velocity": 10,
                "duration": 0.1659,
                "tempo": 120.0
            },
            {
                "pitch": 38,
                "velocity": 10,
                "duration": 0.3159,
                "tempo": 120.0
            },
            {
                "pitch": 36,
                "velocity": 10,
                "duration": 0.0682,
                "tempo": 120.0
            },
            {
                "pitch": 35,
                "velocity": 10,
                "duration": 0.1318,
                "tempo": 120.0
            },
            {
                "pitch": 0,
                "velocity": 0,
                "duration": 0.8205,
                "tempo": 0
            },
            {
                "pitch": 43,
                "velocity": 10,
                "duration": 0.25,
                "tempo": 120.0
            },
            {
                "pitch": 41,
                "velocity": 10,
                "duration": 0.1682,
                "tempo": 120.0
            },
            {
                "pitch": 0,
                "velocity": 0,
                "duration": 0.0023,
                "tempo": 0
            },
            {
                "pitch": 38,
                "velocity": 10,
                "duration": 0.0864,
                "tempo": 120.0
            },
            {
                "pitch": 37,
                "velocity": 10,
                "duration": 0.1682,
                "tempo": 120.0
            },
            {
                "pitch": 38,
                "velocity": 10,
                "duration": 0.2545,
                "tempo": 120.0
            },
            {
                "pitch": 38,
                "velocity": 10,
                "duration": 0.0841,
                "tempo": 120.0
            },
            {
                "pitch": 41,
                "velocity": 10,
                "duration": 0.25,
                "tempo": 120.0
            },
            {
                "pitch": 43,
                "velocity": 10,
                "duration": 0.25,
                "tempo": 120.0
            },
            {
                "pitch": 46,
                "velocity": 10,
                "duration": 0.1659,
                "tempo": 120.0
            },
            {
                "pitch": 52,
                "velocity": 10,
                "duration": 8.025,
                "tempo": 120.0
            },
            {
                "pitch": 48,
                "velocity": 10,
                "duration": 0.0864,
                "tempo": 120.0
            },
            {
                "pitch": 49,
                "velocity": 10,
                "duration": 0.1636,
                "tempo": 120.0
            },
            {
                "pitch": 48,
                "velocity": 10,
                "duration": 0.0841,
                "tempo": 120.0
            },
            {
                "pitch": 0,
                "velocity": 0,
                "duration": 0.0023,
                "tempo": 0
            },
            {
                "pitch": 46,
                "velocity": 10,
                "duration": 0.1636,
                "tempo": 120.0
            },
            {
                "pitch": 49,
                "velocity": 10,
                "duration": 0.0864,
                "tempo": 120.0
            },
            {
                "pitch": 48,
                "velocity": 10,
                "duration": 0.1636,
                "tempo": 120.0
            },
            {
                "pitch": 0,
                "velocity": 0,
                "duration": 0.0023,
                "tempo": 0
            },
            {
                "pitch": 46,
                "velocity": 10,
                "duration": 0.0841,
                "tempo": 120.0
            },
            {
                "pitch": 43,
                "velocity": 10,
                "duration": 0.1659,
                "tempo": 120.0
            },
            {
                "pitch": 41,
                "velocity": 10,
                "duration": 0.3159,
                "tempo": 120.0
            },
            {
                "pitch": 39,
                "velocity": 10,
                "duration": 0.1341,
                "tempo": 120.0
            },
            {
                "pitch": 36,
                "velocity": 10,
                "duration": 0.0659,
                "tempo": 120.0
            }
        ],
        "Synth Bass 1": [
            {
                "pitch": 0,
                "velocity": 0,
                "duration": 22.0864,
                "tempo": 0
            },
            {
                "pitch": 79,
                "velocity": 1,
                "duration": 0.0977,
                "tempo": 120.0
            },
            {
                "pitch": 0,
                "velocity": 0,
                "duration": 0.0841,
                "tempo": 0
            },
            {
                "pitch": 77,
                "velocity": 1,
                "duration": 0.0341,
                "tempo": 120.0
            },
            {
                "pitch": 0,
                "velocity": 0,
                "duration": 0.0341,
                "tempo": 0
            },
            {
                "pitch": 74,
                "velocity": 1,
                "duration": 0.1,
                "tempo": 120.0
            },
            {
                "pitch": 0,
                "velocity": 0,
                "duration": 0.0841,
                "tempo": 0
            },
            {
                "pitch": 72,
                "velocity": 1,
                "duration": 0.0318,
                "tempo": 120.0
            },
            {
                "pitch": 0,
                "velocity": 0,
                "duration": 0.0341,
                "tempo": 0
            },
            {
                "pitch": 71,
                "velocity": 1,
                "duration": 0.1,
                "tempo": 120.0
            },
            {
                "pitch": 0,
                "velocity": 0,
                "duration": 0.0841,
                "tempo": 0
            },
            {
                "pitch": 72,
                "velocity": 1,
                "duration": 0.0318,
                "tempo": 120.0
            },
            {
                "pitch": 0,
                "velocity": 0,
                "duration": 0.0341,
                "tempo": 0
            },
            {
                "pitch": 79,
                "velocity": 1,
                "duration": 0.1,
                "tempo": 120.0
            },
            {
                "pitch": 0,
                "velocity": 0,
                "duration": 0.0841,
                "tempo": 0
            },
            {
                "pitch": 77,
                "velocity": 1,
                "duration": 0.0318,
                "tempo": 120.0
            },
            {
                "pitch": 0,
                "velocity": 0,
                "duration": 0.0364,
                "tempo": 0
            },
            {
                "pitch": 74,
                "velocity": 1,
                "duration": 0.0977,
                "tempo": 120.0
            },
            {
                "pitch": 0,
                "velocity": 0,
                "duration": 0.0841,
                "tempo": 0
            },
            {
                "pitch": 72,
                "velocity": 1,
                "duration": 0.0318,
                "tempo": 120.0
            },
            {
                "pitch": 0,
                "velocity": 0,
                "duration": 0.0364,
                "tempo": 0
            },
            {
                "pitch": 71,
                "velocity": 1,
                "duration": 0.0977,
                "tempo": 120.0
            },
            {
                "pitch": 0,
                "velocity": 0,
                "duration": 0.0841,
                "tempo": 0
            },
            {
                "pitch": 72,
                "velocity": 1,
                "duration": 0.0341,
                "tempo": 120.0
            },
            {
                "pitch": 0,
                "velocity": 0,
                "duration": 0.0341,
                "tempo": 0
            },
            {
                "pitch": 79,
                "velocity": 1,
                "duration": 0.0977,
                "tempo": 120.0
            },
            {
                "pitch": 0,
                "velocity": 0,
                "duration": 0.0841,
                "tempo": 0
            },
            {
                "pitch": 77,
                "velocity": 1,
                "duration": 0.0341,
                "tempo": 120.0
            },
            {
                "pitch": 0,
                "velocity": 0,
                "duration": 0.0341,
                "tempo": 0
            },
            {
                "pitch": 74,
                "velocity": 1,
                "duration": 0.0977,
                "tempo": 120.0
            },
            {
                "pitch": 0,
                "velocity": 0,
                "duration": 0.0841,
                "tempo": 0
            },
            {
                "pitch": 72,
                "velocity": 1,
                "duration": 0.0341,
                "tempo": 120.0
            },
            {
                "pitch": 0,
                "velocity": 0,
                "duration": 0.0341,
                "tempo": 0
            },
            {
                "pitch": 71,
                "velocity": 1,
                "duration": 0.1,
                "tempo": 120.0
            },
            {
                "pitch": 0,
                "velocity": 0,
                "duration": 0.0841,
                "tempo": 0
            },
            {
                "pitch": 72,
                "velocity": 1,
                "duration": 0.0318,
                "tempo": 120.0
            },
            {
                "pitch": 0,
                "velocity": 0,
                "duration": 0.0341,
                "tempo": 0
            },
            {
                "pitch": 79,
                "velocity": 1,
                "duration": 0.1,
                "tempo": 120.0
            },
            {
                "pitch": 0,
                "velocity": 0,
                "duration": 0.0841,
                "tempo": 0
            },
            {
                "pitch": 77,
                "velocity": 1,
                "duration": 0.0318,
                "tempo": 120.0
            },
            {
                "pitch": 0,
                "velocity": 0,
                "duration": 0.0341,
                "tempo": 0
            },
            {
                "pitch": 74,
                "velocity": 1,
                "duration": 0.1,
                "tempo": 120.0
            },
            {
                "pitch": 0,
                "velocity": 0,
                "duration": 0.0841,
                "tempo": 0
            },
            {
                "pitch": 72,
                "velocity": 1,
                "duration": 0.0318,
                "tempo": 120.0
            },
            {
                "pitch": 0,
                "velocity": 0,
                "duration": 0.0341,
                "tempo": 0
            },
            {
                "pitch": 71,
                "velocity": 1,
                "duration": 0.1,
                "tempo": 120.0
            },
            {
                "pitch": 0,
                "velocity": 0,
                "duration": 0.0841,
                "tempo": 0
            },
            {
                "pitch": 72,
                "velocity": 1,
                "duration": 0.0318,
                "tempo": 120.0
            },
            {
                "pitch": 0,
                "velocity": 0,
                "duration": 0.0364,
                "tempo": 0
            },
            {
                "pitch": 79,
                "velocity": 1,
                "duration": 0.0977,
                "tempo": 120.0
            },
            {
                "pitch": 0,
                "velocity": 0,
                "duration": 0.0841,
                "tempo": 0
            },
            {
                "pitch": 77,
                "velocity": 1,
                "duration": 0.0341,
                "tempo": 120.0
            },
            {
                "pitch": 0,
                "velocity": 0,
                "duration": 0.0341,
                "tempo": 0
            },
            {
                "pitch": 74,
                "velocity": 1,
                "duration": 0.0977,
                "tempo": 120.0
            },
            {
                "pitch": 0,
                "velocity": 0,
                "duration": 0.0841,
                "tempo": 0
            },
            {
                "pitch": 72,
                "velocity": 1,
                "duration": 0.0341,
                "tempo": 120.0
            },
            {
                "pitch": 0,
                "velocity": 0,
                "duration": 0.0341,
                "tempo": 0
            },
            {
                "pitch": 71,
                "velocity": 1,
                "duration": 0.0977,
                "tempo": 120.0
            },
            {
                "pitch": 0,
                "velocity": 0,
                "duration": 0.0841,
                "tempo": 0
            },
            {
                "pitch": 72,
                "velocity": 1,
                "duration": 0.0341,
                "tempo": 120.0
            },
            {
                "pitch": 0,
                "velocity": 0,
                "duration": 0.0341,
                "tempo": 0
            },
            {
                "pitch": 79,
                "velocity": 1,
                "duration": 0.1,
                "tempo": 120.0
            },
            {
                "pitch": 0,
                "velocity": 0,
                "duration": 0.0818,
                "tempo": 0
            },
            {
                "pitch": 77,
                "velocity": 1,
                "duration": 0.0341,
                "tempo": 120.0
            },
            {
                "pitch": 0,
                "velocity": 0,
                "duration": 0.0364,
                "tempo": 0
            },
            {
                "pitch": 74,
                "velocity": 1,
                "duration": 0.0977,
                "tempo": 120.0
            },
            {
                "pitch": 0,
                "velocity": 0,
                "duration": 0.0841,
                "tempo": 0
            },
            {
                "pitch": 72,
                "velocity": 1,
                "duration": 0.0318,
                "tempo": 120.0
            },
            {
                "pitch": 0,
                "velocity": 0,
                "duration": 0.0341,
                "tempo": 0
            },
            {
                "pitch": 71,
                "velocity": 1,
                "duration": 0.1,
                "tempo": 120.0
            },
            {
                "pitch": 0,
                "velocity": 0,
                "duration": 0.0841,
                "tempo": 0
            },
            {
                "pitch": 72,
                "velocity": 1,
                "duration": 0.0318,
                "tempo": 120.0
            },
            {
                "pitch": 0,
                "velocity": 0,
                "duration": 0.0341,
                "tempo": 0
            },
            {
                "pitch": 79,
                "velocity": 1,
                "duration": 0.1,
                "tempo": 120.0
            },
            {
                "pitch": 0,
                "velocity": 0,
                "duration": 0.0841,
                "tempo": 0
            },
            {
                "pitch": 77,
                "velocity": 1,
                "duration": 0.0318,
                "tempo": 120.0
            },
            {
                "pitch": 0,
                "velocity": 0,
                "duration": 0.0364,
                "tempo": 0
            },
            {
                "pitch": 74,
                "velocity": 1,
                "duration": 0.0977,
                "tempo": 120.0
            },
            {
                "pitch": 0,
                "velocity": 0,
                "duration": 0.0841,
                "tempo": 0
            },
            {
                "pitch": 72,
                "velocity": 1,
                "duration": 0.0341,
                "tempo": 120.0
            },
            {
                "pitch": 0,
                "velocity": 0,
                "duration": 0.0341,
                "tempo": 0
            },
            {
                "pitch": 71,
                "velocity": 1,
                "duration": 0.0977,
                "tempo": 120.0
            },
            {
                "pitch": 0,
                "velocity": 0,
                "duration": 0.0841,
                "tempo": 0
            },
            {
                "pitch": 72,
                "velocity": 1,
                "duration": 0.0341,
                "tempo": 120.0
            },
            {
                "pitch": 0,
                "velocity": 0,
                "duration": 0.0341,
                "tempo": 0
            },
            {
                "pitch": 79,
                "velocity": 1,
                "duration": 0.0977,
                "tempo": 120.0
            },
            {
                "pitch": 0,
                "velocity": 0,
                "duration": 0.0841,
                "tempo": 0
            },
            {
                "pitch": 77,
                "velocity": 1,
                "duration": 0.0341,
                "tempo": 120.0
            },
            {
                "pitch": 0,
                "velocity": 0,
                "duration": 0.0341,
                "tempo": 0
            },
            {
                "pitch": 74,
                "velocity": 1,
                "duration": 0.1,
                "tempo": 120.0
            },
            {
                "pitch": 0,
                "velocity": 0,
                "duration": 0.0864,
                "tempo": 0
            },
            {
                "pitch": 72,
                "velocity": 1,
                "duration": 0.0341,
                "tempo": 120.0
            },
            {
                "pitch": 0,
                "velocity": 0,
                "duration": 0.0364,
                "tempo": 0
            },
            {
                "pitch": 71,
                "velocity": 1,
                "duration": 0.1,
                "tempo": 120.0
            },
            {
                "pitch": 0,
                "velocity": 0,
                "duration": 0.0864,
                "tempo": 0
            },
            {
                "pitch": 72,
                "velocity": 1,
                "duration": 0.0341,
                "tempo": 120.0
            },
            {
                "pitch": 0,
                "velocity": 0,
                "duration": 0.0364,
                "tempo": 0
            },
            {
                "pitch": 79,
                "velocity": 1,
                "duration": 0.0977,
                "tempo": 120.0
            },
            {
                "pitch": 0,
                "velocity": 0,
                "duration": 0.0841,
                "tempo": 0
            },
            {
                "pitch": 77,
                "velocity": 1,
                "duration": 0.0341,
                "tempo": 120.0
            },
            {
                "pitch": 0,
                "velocity": 0,
                "duration": 0.0341,
                "tempo": 0
            },
            {
                "pitch": 74,
                "velocity": 1,
                "duration": 0.1,
                "tempo": 120.0
            },
            {
                "pitch": 0,
                "velocity": 0,
                "duration": 0.0818,
                "tempo": 0
            },
            {
                "pitch": 72,
                "velocity": 1,
                "duration": 0.0341,
                "tempo": 120.0
            },
            {
                "pitch": 0,
                "velocity": 0,
                "duration": 0.0341,
                "tempo": 0
            },
            {
                "pitch": 71,
                "velocity": 1,
                "duration": 0.1,
                "tempo": 120.0
            },
            {
                "pitch": 0,
                "velocity": 0,
                "duration": 0.0841,
                "tempo": 0
            },
            {
                "pitch": 72,
                "velocity": 1,
                "duration": 0.0318,
                "tempo": 120.0
            },
            {
                "pitch": 0,
                "velocity": 0,
                "duration": 5.2955,
                "tempo": 0
            },
            {
                "pitch": 63,
                "velocity": 1,
                "duration": 0.1,
                "tempo": 120.0
            },
            {
                "pitch": 65,
                "velocity": 1,
                "duration": 0.0818,
                "tempo": 120.0
            },
            {
                "pitch": 0,
                "velocity": 0,
                "duration": 0.1841,
                "tempo": 0
            },
            {
                "pitch": 75,
                "velocity": 1,
                "duration": 0.0682,
                "tempo": 120.0
            },
            {
                "pitch": 0,
                "velocity": 0,
                "duration": 0.0659,
                "tempo": 0
            },
            {
                "pitch": 83,
                "velocity": 1,
                "duration": 0.0659,
                "tempo": 120.0
            },
            {
                "pitch": 0,
                "velocity": 0,
                "duration": 0.0682,
                "tempo": 0
            },
            {
                "pitch": 77,
                "velocity": 1,
                "duration": 0.0659,
                "tempo": 120.0
            },
            {
                "pitch": 0,
                "velocity": 0,
                "duration": 0.0682,
                "tempo": 0
            },
            {
                "pitch": 83,
                "velocity": 1,
                "duration": 0.0659,
                "tempo": 120.0
            },
            {
                "pitch": 0,
                "velocity": 0,
                "duration": 0.0659,
                "tempo": 0
            },
            {
                "pitch": 72,
                "velocity": 1,
                "duration": 0.0841,
                "tempo": 120.0
            },
            {
                "pitch": 74,
                "velocity": 1,
                "duration": 0.0659,
                "tempo": 120.0
            },
            {
                "pitch": 0,
                "velocity": 0,
                "duration": 0.1341,
                "tempo": 0
            },
            {
                "pitch": 76,
                "velocity": 1,
                "duration": 0.0841,
                "tempo": 120.0
            },
            {
                "pitch": 0,
                "velocity": 0,
                "duration": 0.0841,
                "tempo": 0
            },
            {
                "pitch": 77,
                "velocity": 1,
                "duration": 0.0818,
                "tempo": 120.0
            },
            {
                "pitch": 0,
                "velocity": 0,
                "duration": 0.0841,
                "tempo": 0
            },
            {
                "pitch": 74,
                "velocity": 1,
                "duration": 0.0864,
                "tempo": 120.0
            },
            {
                "pitch": 0,
                "velocity": 0,
                "duration": 0.0841,
                "tempo": 0
            },
            {
                "pitch": 72,
                "velocity": 1,
                "duration": 0.0682,
                "tempo": 120.0
            },
            {
                "pitch": 70,
                "velocity": 1,
                "duration": 0.0682,
                "tempo": 120.0
            },
            {
                "pitch": 67,
                "velocity": 1,
                "duration": 0.0523,
                "tempo": 120.0
            },
            {
                "pitch": 0,
                "velocity": 0,
                "duration": 0.1864,
                "tempo": 0
            },
            {
                "pitch": 67,
                "velocity": 1,
                "duration": 0.0159,
                "tempo": 120.0
            },
            {
                "pitch": 67,
                "velocity": 1,
                "duration": 0.1,
                "tempo": 120.0
            },
            {
                "pitch": 64,
                "velocity": 1,
                "duration": 0.0636,
                "tempo": 120.0
            },
            {
                "pitch": 0,
                "velocity": 0,
                "duration": 0.1818,
                "tempo": 0
            },
            {
                "pitch": 71,
                "velocity": 1,
                "duration": 0.0818,
                "tempo": 120.0
            },
            {
                "pitch": 0,
                "velocity": 0,
                "duration": 0.0682,
                "tempo": 0
            },
            {
                "pitch": 83,
                "velocity": 1,
                "duration": 0.0864,
                "tempo": 120.0
            },
            {
                "pitch": 79,
                "velocity": 1,
                "duration": 0.6659,
                "tempo": 120.0
            },
            {
                "pitch": 79,
                "velocity": 1,
                "duration": 0.0159,
                "tempo": 120.0
            },
            {
                "pitch": 79,
                "velocity": 1,
                "duration": 0.0705,
                "tempo": 120.0
            },
            {
                "pitch": 0,
                "velocity": 0,
                "duration": 0.0682,
                "tempo": 0
            },
            {
                "pitch": 89,
                "velocity": 1,
                "duration": 0.0841,
                "tempo": 120.0
            },
            {
                "pitch": 91,
                "velocity": 1,
                "duration": 0.3091,
                "tempo": 120.0
            },
            {
                "pitch": 91,
                "velocity": 1,
                "duration": 0.0182,
                "tempo": 120.0
            },
            {
                "pitch": 91,
                "velocity": 1,
                "duration": 0.0659,
                "tempo": 120.0
            },
            {
                "pitch": 0,
                "velocity": 0,
                "duration": 0.0682,
                "tempo": 0
            },
            {
                "pitch": 95,
                "velocity": 1,
                "duration": 0.0818,
                "tempo": 120.0
            }
        ],
        "Acoustic Grand Piano": [
            {
                "pitch": 0,
                "velocity": 0,
                "duration": 54.125,
                "tempo": 0
            },
            {
                "pitch": 108,
                "velocity": 15,
                "duration": 0.1,
                "tempo": 120.0
            }
        ]
    }
}