<?xml version="1.0" encoding="utf-8"?>
<!DOCTYPE score-partwise  PUBLIC "-//Recordare//DTD MusicXML 4.0 Partwise//EN" "http://www.musicxml.org/dtds/partwise.dtd">
<score-partwise version="4.0">
  <movement-title>Music21 Fragment</movement-title>
  <identification>
    <creator type="composer">Music21</creator>
    <encoding>
      <encoding-date>2024-07-01</encoding-date>
      <software>music21 v.9.1.0</software>
    </encoding>
  </identification>
  <defaults>
    <scaling>
      <millimeters>7</millimeters>
      <tenths>40</tenths>
    </scaling>
  </defaults>
  <part-list>
    <score-part id="P7f477f84471519712a91960b63387bef">
      <part-name>Acoustic Bass</part-name>
      <part-abbreviation>Ac b</part-abbreviation>
      <score-instrument id="Ib5fe8e6df84160ddba99606ad5d4ab9c">
        <instrument-name>Acoustic Bass</instrument-name>
        <instrument-abbreviation>Ac b</instrument-abbreviation>
      </score-instrument>
      <midi-instrument id="Ib5fe8e6df84160ddba99606ad5d4ab9c">
        <midi-channel>1</midi-channel>
        <midi-program>33</midi-program>
      </midi-instrument>
    </score-part>
  </part-list>
  <!--=========================== Part 1 ===========================-->
  <part id="P7f477f84471519712a91960b63387bef">
    <!--========================= Measure 1 ==========================-->
    <measure implicit="no" number="1">
      <attributes>
        <divisions>10080</divisions>
        <time>
          <beats>4</beats>
          <beat-type>4</beat-type>
        </time>
        <clef>
          <sign>F</sign>
          <line>4</line>
        </clef>
      </attributes>
      <direction>
        <direction-type>
          <metronome parentheses="no">
            <beat-unit>quarter</beat-unit>
            <per-minute>120</per-minute>
          </metronome>
        </direction-type>
        <sound tempo="120" />
      </direction>
      <note dynamics="88.89">
        <pitch>
          <step>A</step>
          <octave>1</octave>
        </pitch>
        <duration>7560</duration>
        <voice>1</voice>
        <type>eighth</type>
        <dot />
        <stem>up</stem>
        <beam number="1">begin</beam>
      </note>
      <note dynamics="88.89">
        <pitch>
          <step>A</step>
          <octave>2</octave>
        </pitch>
        <duration>3360</duration>
        <voice>1</voice>
        <type>eighth</type>
        <time-modification>
          <actual-notes>3</actual-notes>
          <normal-notes>2</normal-notes>
          <normal-type>eighth</normal-type>
        </time-modification>
        <stem>up</stem>
        <beam number="1">end</beam>
      </note>
      <note>
        <rest />
        <duration>4200</duration>
        <voice>1</voice>
        <type>eighth</type>
        <time-modification>
          <actual-notes>6</actual-notes>
          <normal-notes>5</normal-notes>
          <normal-type>64th</normal-type>
        </time-modification>
      </note>
      <note dynamics="88.89">
        <pitch>
          <step>A</step>
          <octave>2</octave>
        </pitch>
        <duration>3360</duration>
        <voice>1</voice>
        <type>eighth</type>
        <time-modification>
          <actual-notes>3</actual-notes>
          <normal-notes>2</normal-notes>
          <normal-type>eighth</normal-type>
        </time-modification>
      </note>
      <note>
        <rest />
        <duration>4200</duration>
        <voice>1</voice>
        <type>eighth</type>
        <time-modification>
          <actual-notes>6</actual-notes>
          <normal-notes>5</normal-notes>
          <normal-type>64th</normal-type>
        </time-modification>
      </note>
      <note dynamics="88.89">
        <pitch>
          <step>A</step>
          <octave>2</octave>
        </pitch>
        <duration>3360</duration>
        <voice>1</voice>
        <type>eighth</type>
        <time-modification>
          <actual-notes>3</actual-notes>
          <normal-notes>2</normal-notes>
          <normal-type>eighth</normal-type>
        </time-modification>
      </note>
      <note>
        <rest />
        <duration>1680</duration>
        <voice>1</voice>
        <type>16th</type>
        <time-modification>
          <actual-notes>3</actual-notes>
          <normal-notes>2</normal-notes>
          <normal-type>16th</normal-type>
        </time-modification>
      </note>
      <note dynamics="88.89">
        <pitch>
          <step>G</step>
          <octave>1</octave>
        </pitch>
        <duration>7560</duration>
        <voice>1</voice>
        <type>eighth</type>
        <dot />
      </note>
      <note dynamics="88.89">
        <pitch>
          <step>G</step>
          <octave>2</octave>
        </pitch>
        <duration>2520</duration>
        <voice>1</voice>
        <type>16th</type>
      </note>
      <note>
        <rest />
        <duration>2520</duration>
        <voice>1</voice>
        <type>16th</type>
      </note>
      <backup>
        <duration>40320</duration>
      </backup>
      <note>
        <rest />
        <duration>10080</duration>
        <voice>2</voice>
        <type>quarter</type>
      </note>
      <note dynamics="88.89">
        <pitch>
          <step>A</step>
          <octave>1</octave>
        </pitch>
        <duration>2520</duration>
        <voice>2</voice>
        <type>16th</type>
      </note>
      <note>
        <rest />
        <duration>5040</duration>
        <voice>2</voice>
        <type>eighth</type>
      </note>
      <note dynamics="88.89">
        <pitch>
          <step>A</step>
          <octave>1</octave>
        </pitch>
        <duration>2520</duration>
        <voice>2</voice>
        <type>16th</type>
      </note>
      <note>
        <rest />
        <duration>5040</duration>
        <voice>2</voice>
        <type>eighth</type>
      </note>
      <note dynamics="88.89">
        <pitch>
          <step>A</step>
          <octave>1</octave>
        </pitch>
        <duration>3360</duration>
        <voice>2</voice>
        <type>eighth</type>
        <time-modification>
          <actual-notes>3</actual-notes>
          <normal-notes>2</normal-notes>
          <normal-type>eighth</normal-type>
        </time-modification>
      </note>
      <note>
        <rest />
        <duration>6720</duration>
        <voice>2</voice>
        <type>quarter</type>
        <time-modification>
          <actual-notes>3</actual-notes>
          <normal-notes>2</normal-notes>
          <normal-type>quarter</normal-type>
        </time-modification>
      </note>
      <note>
        <rest />
        <duration>5040</duration>
        <voice>2</voice>
        <type>eighth</type>
      </note>
    </measure>
    <!--========================= Measure 2 ==========================-->
    <measure implicit="no" number="2">
      <note dynamics="88.89">
        <pitch>
          <step>G</step>
          <octave>1</octave>
        </pitch>
        <duration>3360</duration>
        <voice>1</voice>
        <type>eighth</type>
        <time-modification>
          <actual-notes>3</actual-notes>
          <normal-notes>2</normal-notes>
          <normal-type>eighth</normal-type>
        </time-modification>
      </note>
      <note>
        <rest />
        <duration>3360</duration>
        <voice>1</voice>
        <type>eighth</type>
        <time-modification>
          <actual-notes>3</actual-notes>
          <normal-notes>2</normal-notes>
          <normal-type>eighth</normal-type>
        </time-modification>
      </note>
      <note dynamics="88.89">
        <pitch>
          <step>G</step>
          <octave>1</octave>
        </pitch>
        <duration>3360</duration>
        <voice>1</voice>
        <type>eighth</type>
        <time-modification>
          <actual-notes>3</actual-notes>
          <normal-notes>2</normal-notes>
          <normal-type>eighth</normal-type>
        </time-modification>
      </note>
      <note dynamics="88.89">
        <pitch>
          <step>G</step>
          <octave>2</octave>
        </pitch>
        <duration>3360</duration>
        <voice>1</voice>
        <type>eighth</type>
        <time-modification>
          <actual-notes>3</actual-notes>
          <normal-notes>2</normal-notes>
          <normal-type>eighth</normal-type>
        </time-modification>
        <stem>up</stem>
        <beam number="1">begin</beam>
      </note>
      <note dynamics="88.89">
        <pitch>
          <step>G</step>
          <octave>1</octave>
        </pitch>
        <duration>3360</duration>
        <voice>1</voice>
        <type>eighth</type>
        <time-modification>
          <actual-notes>3</actual-notes>
          <normal-notes>2</normal-notes>
          <normal-type>eighth</normal-type>
        </time-modification>
        <stem>up</stem>
        <beam number="1">continue</beam>
      </note>
      <note dynamics="88.89">
        <pitch>
          <step>F</step>
          <octave>1</octave>
        </pitch>
        <duration>3360</duration>
        <tie type="start" />
        <voice>1</voice>
        <type>eighth</type>
        <time-modification>
          <actual-notes>3</actual-notes>
          <normal-notes>2</normal-notes>
          <normal-type>eighth</normal-type>
        </time-modification>
        <stem>up</stem>
        <beam number="1">end</beam>
        <notations>
          <tied type="start" />
        </notations>
      </note>
      <note dynamics="88.89">
        <pitch>
          <step>F</step>
          <octave>1</octave>
        </pitch>
        <duration>3360</duration>
        <tie type="stop" />
        <voice>1</voice>
        <type>eighth</type>
        <time-modification>
          <actual-notes>3</actual-notes>
          <normal-notes>2</normal-notes>
          <normal-type>eighth</normal-type>
        </time-modification>
        <stem>up</stem>
        <beam number="1">begin</beam>
        <notations>
          <tied type="stop" />
        </notations>
      </note>
      <note dynamics="88.89">
        <pitch>
          <step>F</step>
          <octave>2</octave>
        </pitch>
        <duration>5040</duration>
        <voice>1</voice>
        <type>eighth</type>
        <stem>up</stem>
        <beam number="1">end</beam>
      </note>
      <note>
        <rest />
        <duration>1680</duration>
        <voice>1</voice>
        <type>16th</type>
        <time-modification>
          <actual-notes>3</actual-notes>
          <normal-notes>2</normal-notes>
          <normal-type>16th</normal-type>
        </time-modification>
      </note>
      <note dynamics="88.89">
        <pitch>
          <step>F</step>
          <octave>2</octave>
        </pitch>
        <duration>2520</duration>
        <voice>1</voice>
        <type>16th</type>
      </note>
      <note>
        <rest />
        <duration>2520</duration>
        <voice>1</voice>
        <type>16th</type>
      </note>
      <note dynamics="88.89">
        <pitch>
          <step>F</step>
          <octave>1</octave>
        </pitch>
        <duration>3360</duration>
        <voice>1</voice>
        <type>eighth</type>
        <time-modification>
          <actual-notes>3</actual-notes>
          <normal-notes>2</normal-notes>
          <normal-type>eighth</normal-type>
        </time-modification>
      </note>
      <note>
        <rest />
        <duration>1680</duration>
        <voice>1</voice>
        <type>16th</type>
        <time-modification>
          <actual-notes>3</actual-notes>
          <normal-notes>2</normal-notes>
          <normal-type>16th</normal-type>
        </time-modification>
      </note>
      <backup>
        <duration>40320</duration>
      </backup>
      <note>
        <rest />
        <duration>2520</duration>
        <voice>2</voice>
        <type>16th</type>
      </note>
      <note dynamics="88.89">
        <pitch>
          <step>G</step>
          <octave>2</octave>
        </pitch>
        <duration>3360</duration>
        <voice>2</voice>
        <type>eighth</type>
        <time-modification>
          <actual-notes>3</actual-notes>
          <normal-notes>2</normal-notes>
          <normal-type>eighth</normal-type>
        </time-modification>
      </note>
      <note>
        <rest />
        <duration>6720</duration>
        <voice>2</voice>
        <type>quarter</type>
        <time-modification>
          <actual-notes>3</actual-notes>
          <normal-notes>2</normal-notes>
          <normal-type>quarter</normal-type>
        </time-modification>
      </note>
      <note>
        <rest />
        <duration>15120</duration>
        <voice>2</voice>
        <type>quarter</type>
        <dot />
      </note>
      <note dynamics="88.89">
        <pitch>
          <step>F</step>
          <octave>1</octave>
        </pitch>
        <duration>3360</duration>
        <voice>2</voice>
        <type>eighth</type>
        <time-modification>
          <actual-notes>3</actual-notes>
          <normal-notes>2</normal-notes>
          <normal-type>eighth</normal-type>
        </time-modification>
      </note>
      <note>
        <rest />
        <duration>6720</duration>
        <voice>2</voice>
        <type>quarter</type>
        <time-modification>
          <actual-notes>3</actual-notes>
          <normal-notes>2</normal-notes>
          <normal-type>quarter</normal-type>
        </time-modification>
      </note>
      <note dynamics="88.89">
        <pitch>
          <step>F</step>
          <octave>2</octave>
        </pitch>
        <duration>2520</duration>
        <voice>2</voice>
        <type>16th</type>
      </note>
    </measure>
    <!--========================= Measure 3 ==========================-->
    <measure implicit="no" number="3">
      <note>
        <rest />
        <duration>2520</duration>
        <voice>1</voice>
        <type>16th</type>
      </note>
      <note dynamics="88.89">
        <pitch>
          <step>F</step>
          <octave>1</octave>
        </pitch>
        <duration>3360</duration>
        <voice>1</voice>
        <type>eighth</type>
        <time-modification>
          <actual-notes>3</actual-notes>
          <normal-notes>2</normal-notes>
          <normal-type>eighth</normal-type>
        </time-modification>
      </note>
      <note>
        <rest />
        <duration>6720</duration>
        <voice>1</voice>
        <type>quarter</type>
        <time-modification>
          <actual-notes>3</actual-notes>
          <normal-notes>2</normal-notes>
          <normal-type>quarter</normal-type>
        </time-modification>
      </note>
      <note dynamics="88.89">
        <pitch>
          <step>G</step>
          <octave>2</octave>
        </pitch>
        <duration>3360</duration>
        <voice>1</voice>
        <type>eighth</type>
        <time-modification>
          <actual-notes>3</actual-notes>
          <normal-notes>2</normal-notes>
          <normal-type>eighth</normal-type>
        </time-modification>
      </note>
      <note>
        <rest />
        <duration>840</duration>
        <voice>1</voice>
        <type>32nd</type>
        <time-modification>
          <actual-notes>3</actual-notes>
          <normal-notes>2</normal-notes>
          <normal-type>32nd</normal-type>
        </time-modification>
      </note>
      <note dynamics="88.89">
        <pitch>
          <step>G</step>
          <octave>1</octave>
        </pitch>
        <duration>3360</duration>
        <voice>1</voice>
        <type>eighth</type>
        <time-modification>
          <actual-notes>3</actual-notes>
          <normal-notes>2</normal-notes>
          <normal-type>eighth</normal-type>
        </time-modification>
      </note>
      <note>
        <pitch>
          <step>F</step>
          <octave>2</octave>
        </pitch>
        <duration>3360</duration>
        <voice>1</voice>
        <type>eighth</type>
        <time-modification>
          <actual-notes>3</actual-notes>
          <normal-notes>2</normal-notes>
          <normal-type>eighth</normal-type>
        </time-modification>
        <stem>up</stem>
        <beam number="1">begin</beam>
      </note>
      <note>
        <chord />
        <pitch>
          <step>G</step>
          <octave>2</octave>
        </pitch>
        <duration>3360</duration>
        <voice>1</voice>
        <type>eighth</type>
        <time-modification>
          <actual-notes>3</actual-notes>
          <normal-notes>2</normal-notes>
          <normal-type>eighth</normal-type>
        </time-modification>
      </note>
      <note dynamics="88.89">
        <pitch>
          <step>G</step>
          <octave>1</octave>
        </pitch>
        <duration>3360</duration>
        <voice>1</voice>
        <type>eighth</type>
        <time-modification>
          <actual-notes>3</actual-notes>
          <normal-notes>2</normal-notes>
          <normal-type>eighth</normal-type>
        </time-modification>
        <stem>up</stem>
        <beam number="1">continue</beam>
      </note>
      <note dynamics="88.89">
        <pitch>
          <step>G</step>
          <octave>2</octave>
        </pitch>
        <duration>3360</duration>
        <voice>1</voice>
        <type>eighth</type>
        <time-modification>
          <actual-notes>3</actual-notes>
          <normal-notes>2</normal-notes>
          <normal-type>eighth</normal-type>
        </time-modification>
        <stem>up</stem>
        <beam number="1">end</beam>
      </note>
      <note dynamics="88.89">
        <pitch>
          <step>G</step>
          <octave>1</octave>
        </pitch>
        <duration>3360</duration>
        <voice>1</voice>
        <type>eighth</type>
        <time-modification>
          <actual-notes>3</actual-notes>
          <normal-notes>2</normal-notes>
          <normal-type>eighth</normal-type>
        </time-modification>
        <stem>up</stem>
        <beam number="1">begin</beam>
      </note>
      <note dynamics="88.89">
        <pitch>
          <step>A</step>
          <octave>1</octave>
        </pitch>
        <duration>3360</duration>
        <tie type="start" />
        <voice>1</voice>
        <type>eighth</type>
        <time-modification>
          <actual-notes>3</actual-notes>
          <normal-notes>2</normal-notes>
          <normal-type>eighth</normal-type>
        </time-modification>
        <stem>up</stem>
        <beam number="1">continue</beam>
        <notations>
          <tied type="start" />
        </notations>
      </note>
      <note dynamics="88.89">
        <pitch>
          <step>A</step>
          <octave>1</octave>
        </pitch>
        <duration>3360</duration>
        <tie type="stop" />
        <tie type="start" />
        <voice>1</voice>
        <type>eighth</type>
        <time-modification>
          <actual-notes>3</actual-notes>
          <normal-notes>2</normal-notes>
          <normal-type>eighth</normal-type>
        </time-modification>
        <stem>up</stem>
        <beam number="1">end</beam>
        <notations>
          <tied type="stop" />
          <tied type="start" />
        </notations>
      </note>
      <backup>
        <duration>40320</duration>
      </backup>
      <note>
        <rest />
        <duration>5040</duration>
        <voice>2</voice>
        <type>eighth</type>
      </note>
      <note dynamics="88.89">
        <pitch>
          <step>G</step>
          <octave>1</octave>
        </pitch>
        <duration>7560</duration>
        <voice>2</voice>
        <type>eighth</type>
        <dot />
      </note>
      <note>
        <rest />
        <duration>20160</duration>
        <voice>2</voice>
        <type>half</type>
      </note>
      <note>
        <rest />
        <duration>7560</duration>
        <voice>2</voice>
        <type>eighth</type>
        <dot />
      </note>
    </measure>
    <!--========================= Measure 4 ==========================-->
    <measure implicit="no" number="4">
      <note dynamics="88.89">
        <pitch>
          <step>A</step>
          <octave>1</octave>
        </pitch>
        <duration>840</duration>
        <tie type="stop" />
        <type>32nd</type>
        <time-modification>
          <actual-notes>3</actual-notes>
          <normal-notes>2</normal-notes>
          <normal-type>32nd</normal-type>
        </time-modification>
        <notations>
          <tied type="stop" />
          <tuplet bracket="no" number="1" placement="above" type="start">
            <tuplet-actual>
              <tuplet-number>3</tuplet-number>
              <tuplet-type>32nd</tuplet-type>
            </tuplet-actual>
            <tuplet-normal>
              <tuplet-number>2</tuplet-number>
              <tuplet-type>32nd</tuplet-type>
            </tuplet-normal>
          </tuplet>
          <tuplet number="1" type="stop" />
        </notations>
      </note>
      <backup>
        <duration>840</duration>
      </backup>
      <note dynamics="88.89">
        <pitch>
          <step>A</step>
          <octave>2</octave>
        </pitch>
        <duration>2520</duration>
        <voice>1</voice>
        <type>16th</type>
      </note>
      <note>
        <rest />
        <duration>2520</duration>
        <voice>1</voice>
        <type>16th</type>
      </note>
      <note dynamics="88.89">
        <pitch>
          <step>A</step>
          <octave>1</octave>
        </pitch>
        <duration>3360</duration>
        <voice>1</voice>
        <type>eighth</type>
        <time-modification>
          <actual-notes>3</actual-notes>
          <normal-notes>2</normal-notes>
          <normal-type>eighth</normal-type>
        </time-modification>
      </note>
      <note>
        <rest />
        <duration>4200</duration>
        <voice>1</voice>
        <type>eighth</type>
        <time-modification>
          <actual-notes>6</actual-notes>
          <normal-notes>5</normal-notes>
          <normal-type>64th</normal-type>
        </time-modification>
      </note>
      <note dynamics="88.89">
        <pitch>
          <step>A</step>
          <octave>1</octave>
        </pitch>
        <duration>3360</duration>
        <voice>1</voice>
        <type>eighth</type>
        <time-modification>
          <actual-notes>3</actual-notes>
          <normal-notes>2</normal-notes>
          <normal-type>eighth</normal-type>
        </time-modification>
      </note>
      <note>
        <rest />
        <duration>1680</duration>
        <voice>1</voice>
        <type>16th</type>
        <time-modification>
          <actual-notes>3</actual-notes>
          <normal-notes>2</normal-notes>
          <normal-type>16th</normal-type>
        </time-modification>
      </note>
      <note dynamics="88.89">
        <pitch>
          <step>A</step>
          <octave>1</octave>
        </pitch>
        <duration>2520</duration>
        <voice>1</voice>
        <type>16th</type>
      </note>
      <note>
        <rest />
        <duration>2520</duration>
        <voice>1</voice>
        <type>16th</type>
      </note>
      <note dynamics="88.89">
        <pitch>
          <step>G</step>
          <octave>1</octave>
        </pitch>
        <duration>7560</duration>
        <voice>1</voice>
        <type>eighth</type>
        <dot />
      </note>
      <note dynamics="88.89">
        <pitch>
          <step>G</step>
          <octave>2</octave>
        </pitch>
        <duration>3360</duration>
        <voice>1</voice>
        <type>eighth</type>
        <time-modification>
          <actual-notes>3</actual-notes>
          <normal-notes>2</normal-notes>
          <normal-type>eighth</normal-type>
        </time-modification>
      </note>
      <note>
        <rest />
        <duration>3360</duration>
        <voice>1</voice>
        <type>eighth</type>
        <time-modification>
          <actual-notes>3</actual-notes>
          <normal-notes>2</normal-notes>
          <normal-type>eighth</normal-type>
        </time-modification>
      </note>
      <note dynamics="88.89">
        <pitch>
          <step>G</step>
          <octave>2</octave>
        </pitch>
        <duration>3360</duration>
        <voice>1</voice>
        <type>eighth</type>
        <time-modification>
          <actual-notes>3</actual-notes>
          <normal-notes>2</normal-notes>
          <normal-type>eighth</normal-type>
        </time-modification>
      </note>
      <backup>
        <duration>40320</duration>
      </backup>
      <note>
        <rest />
        <duration>7560</duration>
        <voice>2</voice>
        <type>eighth</type>
        <dot />
      </note>
      <note dynamics="88.89">
        <pitch>
          <step>A</step>
          <octave>2</octave>
        </pitch>
        <duration>5040</duration>
        <voice>2</voice>
        <type>eighth</type>
      </note>
      <note>
        <rest />
        <duration>2520</duration>
        <voice>2</voice>
        <type>16th</type>
      </note>
      <note dynamics="88.89">
        <pitch>
          <step>A</step>
          <octave>2</octave>
        </pitch>
        <duration>3360</duration>
        <voice>2</voice>
        <type>eighth</type>
        <time-modification>
          <actual-notes>3</actual-notes>
          <normal-notes>2</normal-notes>
          <normal-type>eighth</normal-type>
        </time-modification>
      </note>
      <note>
        <rest />
        <duration>6720</duration>
        <voice>2</voice>
        <type>quarter</type>
        <time-modification>
          <actual-notes>3</actual-notes>
          <normal-notes>2</normal-notes>
          <normal-type>quarter</normal-type>
        </time-modification>
      </note>
      <note>
        <rest />
        <duration>7560</duration>
        <voice>2</voice>
        <type>eighth</type>
        <dot />
      </note>
      <note dynamics="88.89">
        <pitch>
          <step>G</step>
          <octave>1</octave>
        </pitch>
        <duration>3360</duration>
        <voice>2</voice>
        <type>eighth</type>
        <time-modification>
          <actual-notes>3</actual-notes>
          <normal-notes>2</normal-notes>
          <normal-type>eighth</normal-type>
        </time-modification>
      </note>
      <note>
        <rest />
        <duration>4200</duration>
        <voice>2</voice>
        <type>eighth</type>
        <time-modification>
          <actual-notes>6</actual-notes>
          <normal-notes>5</normal-notes>
          <normal-type>64th</normal-type>
        </time-modification>
      </note>
    </measure>
    <!--========================= Measure 5 ==========================-->
    <measure implicit="no" number="5">
      <note dynamics="88.89">
        <pitch>
          <step>G</step>
          <octave>1</octave>
        </pitch>
        <duration>3360</duration>
        <voice>1</voice>
        <type>eighth</type>
        <time-modification>
          <actual-notes>3</actual-notes>
          <normal-notes>2</normal-notes>
          <normal-type>eighth</normal-type>
        </time-modification>
        <stem>up</stem>
        <beam number="1">begin</beam>
      </note>
      <note dynamics="88.89">
        <pitch>
          <step>G</step>
          <octave>2</octave>
        </pitch>
        <duration>3360</duration>
        <voice>1</voice>
        <type>eighth</type>
        <time-modification>
          <actual-notes>3</actual-notes>
          <normal-notes>2</normal-notes>
          <normal-type>eighth</normal-type>
        </time-modification>
        <stem>up</stem>
        <beam number="1">continue</beam>
      </note>
      <note dynamics="88.89">
        <pitch>
          <step>G</step>
          <octave>1</octave>
        </pitch>
        <duration>3360</duration>
        <voice>1</voice>
        <type>eighth</type>
        <time-modification>
          <actual-notes>3</actual-notes>
          <normal-notes>2</normal-notes>
          <normal-type>eighth</normal-type>
        </time-modification>
        <stem>up</stem>
        <beam number="1">end</beam>
      </note>
      <note dynamics="88.89">
        <pitch>
          <step>F</step>
          <octave>1</octave>
        </pitch>
        <duration>7560</duration>
        <voice>1</voice>
        <type>eighth</type>
        <dot />
        <stem>up</stem>
        <beam number="1">begin</beam>
      </note>
      <note dynamics="88.89">
        <pitch>
          <step>F</step>
          <octave>2</octave>
        </pitch>
        <duration>2520</duration>
        <voice>1</voice>
        <type>16th</type>
        <stem>up</stem>
        <beam number="1">end</beam>
        <beam number="2">backward hook</beam>
      </note>
      <note>
        <rest />
        <duration>2520</duration>
        <voice>1</voice>
        <type>16th</type>
      </note>
      <note dynamics="88.89">
        <pitch>
          <step>F</step>
          <octave>1</octave>
        </pitch>
        <duration>3360</duration>
        <voice>1</voice>
        <type>eighth</type>
        <time-modification>
          <actual-notes>3</actual-notes>
          <normal-notes>2</normal-notes>
          <normal-type>eighth</normal-type>
        </time-modification>
      </note>
      <note>
        <rest />
        <duration>1680</duration>
        <voice>1</voice>
        <type>16th</type>
        <time-modification>
          <actual-notes>3</actual-notes>
          <normal-notes>2</normal-notes>
          <normal-type>16th</normal-type>
        </time-modification>
      </note>
      <note dynamics="88.89">
        <pitch>
          <step>F</step>
          <octave>1</octave>
        </pitch>
        <duration>2520</duration>
        <voice>1</voice>
        <type>16th</type>
      </note>
      <note>
        <rest />
        <duration>2520</duration>
        <voice>1</voice>
        <type>16th</type>
      </note>
      <note dynamics="88.89">
        <pitch>
          <step>F</step>
          <octave>2</octave>
        </pitch>
        <duration>3360</duration>
        <voice>1</voice>
        <type>eighth</type>
        <time-modification>
          <actual-notes>3</actual-notes>
          <normal-notes>2</normal-notes>
          <normal-type>eighth</normal-type>
        </time-modification>
      </note>
      <note>
        <rest />
        <duration>4200</duration>
        <voice>1</voice>
        <type>eighth</type>
        <time-modification>
          <actual-notes>6</actual-notes>
          <normal-notes>5</normal-notes>
          <normal-type>64th</normal-type>
        </time-modification>
      </note>
      <backup>
        <duration>40320</duration>
      </backup>
      <note>
        <rest />
        <duration>20160</duration>
        <voice>2</voice>
        <type>half</type>
      </note>
      <note>
        <rest />
        <duration>5040</duration>
        <voice>2</voice>
        <type>eighth</type>
      </note>
      <note dynamics="88.89">
        <pitch>
          <step>F</step>
          <octave>2</octave>
        </pitch>
        <duration>3360</duration>
        <voice>2</voice>
        <type>eighth</type>
        <time-modification>
          <actual-notes>3</actual-notes>
          <normal-notes>2</normal-notes>
          <normal-type>eighth</normal-type>
        </time-modification>
      </note>
      <note>
        <rest />
        <duration>6720</duration>
        <voice>2</voice>
        <type>quarter</type>
        <time-modification>
          <actual-notes>3</actual-notes>
          <normal-notes>2</normal-notes>
          <normal-type>quarter</normal-type>
        </time-modification>
      </note>
      <note dynamics="88.89">
        <pitch>
          <step>F</step>
          <octave>1</octave>
        </pitch>
        <duration>5040</duration>
        <voice>2</voice>
        <type>eighth</type>
      </note>
    </measure>
    <!--========================= Measure 6 ==========================-->
    <measure implicit="no" number="6">
      <note dynamics="88.89">
        <pitch>
          <step>F</step>
          <octave>2</octave>
        </pitch>
        <duration>3360</duration>
        <voice>1</voice>
        <type>eighth</type>
        <time-modification>
          <actual-notes>3</actual-notes>
          <normal-notes>2</normal-notes>
          <normal-type>eighth</normal-type>
        </time-modification>
      </note>
      <note>
        <rest />
        <duration>3360</duration>
        <voice>1</voice>
        <type>eighth</type>
        <time-modification>
          <actual-notes>3</actual-notes>
          <normal-notes>2</normal-notes>
          <normal-type>eighth</normal-type>
        </time-modification>
      </note>
      <note dynamics="88.89">
        <pitch>
          <step>F</step>
          <octave>2</octave>
        </pitch>
        <duration>3360</duration>
        <voice>1</voice>
        <type>eighth</type>
        <time-modification>
          <actual-notes>3</actual-notes>
          <normal-notes>2</normal-notes>
          <normal-type>eighth</normal-type>
        </time-modification>
      </note>
      <note dynamics="88.89">
        <pitch>
          <step>F</step>
          <octave>1</octave>
        </pitch>
        <duration>3360</duration>
        <voice>1</voice>
        <type>eighth</type>
        <time-modification>
          <actual-notes>3</actual-notes>
          <normal-notes>2</normal-notes>
          <normal-type>eighth</normal-type>
        </time-modification>
        <stem>up</stem>
        <beam number="1">begin</beam>
      </note>
      <note dynamics="88.89">
        <pitch>
          <step>F</step>
          <octave>2</octave>
        </pitch>
        <duration>3360</duration>
        <voice>1</voice>
        <type>eighth</type>
        <time-modification>
          <actual-notes>3</actual-notes>
          <normal-notes>2</normal-notes>
          <normal-type>eighth</normal-type>
        </time-modification>
        <stem>up</stem>
        <beam number="1">continue</beam>
      </note>
      <note>
        <pitch>
          <step>F</step>
          <octave>1</octave>
        </pitch>
        <duration>3360</duration>
        <voice>1</voice>
        <type>eighth</type>
        <time-modification>
          <actual-notes>3</actual-notes>
          <normal-notes>2</normal-notes>
          <normal-type>eighth</normal-type>
        </time-modification>
        <stem>up</stem>
        <beam number="1">end</beam>
      </note>
      <note>
        <chord />
        <pitch>
          <step>F</step>
          <octave>2</octave>
        </pitch>
        <duration>3360</duration>
        <voice>1</voice>
        <type>eighth</type>
        <time-modification>
          <actual-notes>3</actual-notes>
          <normal-notes>2</normal-notes>
          <normal-type>eighth</normal-type>
        </time-modification>
      </note>
      <note>
        <pitch>
          <step>F</step>
          <octave>1</octave>
        </pitch>
        <duration>3360</duration>
        <voice>1</voice>
        <type>eighth</type>
        <time-modification>
          <actual-notes>3</actual-notes>
          <normal-notes>2</normal-notes>
          <normal-type>eighth</normal-type>
        </time-modification>
        <stem>up</stem>
        <beam number="1">begin</beam>
      </note>
      <note>
        <chord />
        <pitch>
          <step>E</step>
          <alter>-1</alter>
          <octave>2</octave>
        </pitch>
        <duration>3360</duration>
        <voice>1</voice>
        <type>eighth</type>
        <accidental>flat</accidental>
        <time-modification>
          <actual-notes>3</actual-notes>
          <normal-notes>2</normal-notes>
          <normal-type>eighth</normal-type>
        </time-modification>
      </note>
      <note>
        <pitch>
          <step>F</step>
          <octave>2</octave>
        </pitch>
        <duration>3360</duration>
        <voice>1</voice>
        <type>eighth</type>
        <time-modification>
          <actual-notes>3</actual-notes>
          <normal-notes>2</normal-notes>
          <normal-type>eighth</normal-type>
        </time-modification>
        <stem>up</stem>
        <beam number="1">end</beam>
      </note>
      <note>
        <chord />
        <pitch>
          <step>E</step>
          <alter>-1</alter>
          <octave>2</octave>
        </pitch>
        <duration>3360</duration>
        <voice>1</voice>
        <type>eighth</type>
        <accidental>flat</accidental>
        <time-modification>
          <actual-notes>3</actual-notes>
          <normal-notes>2</normal-notes>
          <normal-type>eighth</normal-type>
        </time-modification>
      </note>
      <note>
        <rest />
        <duration>840</duration>
        <voice>1</voice>
        <type>32nd</type>
        <time-modification>
          <actual-notes>3</actual-notes>
          <normal-notes>2</normal-notes>
          <normal-type>32nd</normal-type>
        </time-modification>
      </note>
      <note>
        <pitch>
          <step>C</step>
          <alter>1</alter>
          <octave>2</octave>
        </pitch>
        <duration>2520</duration>
        <voice>1</voice>
        <type>16th</type>
        <accidental>sharp</accidental>
      </note>
      <note>
        <chord />
        <pitch>
          <step>B</step>
          <octave>1</octave>
        </pitch>
        <duration>2520</duration>
        <voice>1</voice>
        <type>16th</type>
      </note>
      <note dynamics="88.89">
        <pitch>
          <step>G</step>
          <alter>1</alter>
          <octave>1</octave>
        </pitch>
        <duration>2520</duration>
        <voice>1</voice>
        <type>16th</type>
        <accidental>sharp</accidental>
      </note>
      <note>
        <rest />
        <duration>2520</duration>
        <voice>1</voice>
        <type>16th</type>
      </note>
      <note dynamics="88.89">
        <pitch>
          <step>F</step>
          <octave>2</octave>
        </pitch>
        <duration>3360</duration>
        <voice>1</voice>
        <type>eighth</type>
        <time-modification>
          <actual-notes>3</actual-notes>
          <normal-notes>2</normal-notes>
          <normal-type>eighth</normal-type>
        </time-modification>
      </note>
      <note>
        <rest />
        <duration>1680</duration>
        <voice>1</voice>
        <type>16th</type>
        <time-modification>
          <actual-notes>3</actual-notes>
          <normal-notes>2</normal-notes>
          <normal-type>16th</normal-type>
        </time-modification>
      </note>
      <backup>
        <duration>40320</duration>
      </backup>
      <note>
        <rest />
        <duration>2520</duration>
        <voice>2</voice>
        <type>16th</type>
      </note>
      <note dynamics="88.89">
        <pitch>
          <step>F</step>
          <octave>1</octave>
        </pitch>
        <duration>3360</duration>
        <voice>2</voice>
        <type>eighth</type>
        <time-modification>
          <actual-notes>3</actual-notes>
          <normal-notes>2</normal-notes>
          <normal-type>eighth</normal-type>
        </time-modification>
      </note>
      <note>
        <rest />
        <duration>6720</duration>
        <voice>2</voice>
        <type>quarter</type>
        <time-modification>
          <actual-notes>3</actual-notes>
          <normal-notes>2</normal-notes>
          <normal-type>quarter</normal-type>
        </time-modification>
      </note>
      <note>
        <rest />
        <duration>17640</duration>
        <voice>2</voice>
        <type>quarter</type>
        <dot />
        <dot />
      </note>
      <note dynamics="88.89">
        <pitch>
          <step>F</step>
          <octave>1</octave>
        </pitch>
        <duration>2520</duration>
        <voice>2</voice>
        <type>16th</type>
      </note>
      <note>
        <rest />
        <duration>5040</duration>
        <voice>2</voice>
        <type>eighth</type>
      </note>
      <note dynamics="88.89">
        <pitch>
          <step>F</step>
          <octave>1</octave>
        </pitch>
        <duration>2520</duration>
        <voice>2</voice>
        <type>16th</type>
      </note>
    </measure>
    <!--========================= Measure 7 ==========================-->
    <measure implicit="no" number="7">
      <note>
        <rest />
        <duration>2520</duration>
        <voice>1</voice>
        <type>16th</type>
      </note>
      <note dynamics="88.89">
        <pitch>
          <step>F</step>
          <octave>2</octave>
        </pitch>
        <duration>3360</duration>
        <voice>1</voice>
        <type>eighth</type>
        <time-modification>
          <actual-notes>3</actual-notes>
          <normal-notes>2</normal-notes>
          <normal-type>eighth</normal-type>
        </time-modification>
      </note>
      <note>
        <rest />
        <duration>1680</duration>
        <voice>1</voice>
        <type>16th</type>
        <time-modification>
          <actual-notes>3</actual-notes>
          <normal-notes>2</normal-notes>
          <normal-type>16th</normal-type>
        </time-modification>
      </note>
      <note dynamics="88.89">
        <pitch>
          <step>F</step>
          <octave>2</octave>
        </pitch>
        <duration>2520</duration>
        <voice>1</voice>
        <type>16th</type>
      </note>
      <note>
        <rest />
        <duration>2520</duration>
        <voice>1</voice>
        <type>16th</type>
      </note>
      <note dynamics="88.89">
        <pitch>
          <step>F</step>
          <octave>2</octave>
        </pitch>
        <duration>3360</duration>
        <voice>1</voice>
        <type>eighth</type>
        <time-modification>
          <actual-notes>3</actual-notes>
          <normal-notes>2</normal-notes>
          <normal-type>eighth</normal-type>
        </time-modification>
      </note>
      <note>
        <rest />
        <duration>4200</duration>
        <voice>1</voice>
        <type>eighth</type>
        <time-modification>
          <actual-notes>6</actual-notes>
          <normal-notes>5</normal-notes>
          <normal-type>64th</normal-type>
        </time-modification>
      </note>
      <note dynamics="88.89">
        <pitch>
          <step>F</step>
          <octave>2</octave>
        </pitch>
        <duration>3360</duration>
        <voice>1</voice>
        <type>eighth</type>
        <time-modification>
          <actual-notes>3</actual-notes>
          <normal-notes>2</normal-notes>
          <normal-type>eighth</normal-type>
        </time-modification>
      </note>
      <note>
        <rest />
        <duration>1680</duration>
        <voice>1</voice>
        <type>16th</type>
        <time-modification>
          <actual-notes>3</actual-notes>
          <normal-notes>2</normal-notes>
          <normal-type>16th</normal-type>
        </time-modification>
      </note>
      <note dynamics="88.89">
        <pitch>
          <step>F</step>
          <octave>2</octave>
        </pitch>
        <duration>2520</duration>
        <voice>1</voice>
        <type>16th</type>
      </note>
      <note>
        <rest />
        <duration>2520</duration>
        <voice>1</voice>
        <type>16th</type>
      </note>
      <note dynamics="141.11">
        <pitch>
          <step>C</step>
          <alter>1</alter>
          <octave>3</octave>
        </pitch>
        <duration>5040</duration>
        <voice>1</voice>
        <type>eighth</type>
        <accidental>sharp</accidental>
      </note>
      <note>
        <rest />
        <duration>1680</duration>
        <voice>1</voice>
        <type>16th</type>
        <time-modification>
          <actual-notes>3</actual-notes>
          <normal-notes>2</normal-notes>
          <normal-type>16th</normal-type>
        </time-modification>
      </note>
      <note dynamics="141.11">
        <pitch>
          <step>F</step>
          <octave>3</octave>
        </pitch>
        <duration>3360</duration>
        <tie type="start" />
        <voice>1</voice>
        <type>eighth</type>
        <time-modification>
          <actual-notes>3</actual-notes>
          <normal-notes>2</normal-notes>
          <normal-type>eighth</normal-type>
        </time-modification>
        <notations>
          <tied type="start" />
        </notations>
      </note>
      <backup>
        <duration>40320</duration>
      </backup>
      <note>
        <rest />
        <duration>5040</duration>
        <voice>2</voice>
        <type>eighth</type>
      </note>
      <note dynamics="88.89">
        <pitch>
          <step>F</step>
          <octave>1</octave>
        </pitch>
        <duration>3360</duration>
        <voice>2</voice>
        <type>eighth</type>
        <time-modification>
          <actual-notes>3</actual-notes>
          <normal-notes>2</normal-notes>
          <normal-type>eighth</normal-type>
        </time-modification>
      </note>
      <note>
        <rest />
        <duration>6720</duration>
        <voice>2</voice>
        <type>quarter</type>
        <time-modification>
          <actual-notes>3</actual-notes>
          <normal-notes>2</normal-notes>
          <normal-type>quarter</normal-type>
        </time-modification>
      </note>
      <note dynamics="88.89">
        <pitch>
          <step>F</step>
          <octave>1</octave>
        </pitch>
        <duration>2520</duration>
        <voice>2</voice>
        <type>16th</type>
      </note>
      <note>
        <rest />
        <duration>5040</duration>
        <voice>2</voice>
        <type>eighth</type>
      </note>
      <note dynamics="112.22">
        <pitch>
          <step>G</step>
          <octave>2</octave>
        </pitch>
        <duration>2520</duration>
        <voice>2</voice>
        <type>16th</type>
      </note>
      <note>
        <rest />
        <duration>8400</duration>
        <voice>2</voice>
        <type>quarter</type>
        <time-modification>
          <actual-notes>6</actual-notes>
          <normal-notes>5</normal-notes>
          <normal-type>32nd</normal-type>
        </time-modification>
      </note>
      <note dynamics="141.11">
        <pitch>
          <step>E</step>
          <alter>-1</alter>
          <octave>2</octave>
        </pitch>
        <duration>3360</duration>
        <voice>2</voice>
        <type>eighth</type>
        <accidental>flat</accidental>
        <time-modification>
          <actual-notes>3</actual-notes>
          <normal-notes>2</normal-notes>
          <normal-type>eighth</normal-type>
        </time-modification>
      </note>
      <note>
        <rest />
        <duration>3360</duration>
        <voice>2</voice>
        <type>eighth</type>
        <time-modification>
          <actual-notes>3</actual-notes>
          <normal-notes>2</normal-notes>
          <normal-type>eighth</normal-type>
        </time-modification>
      </note>
    </measure>
    <!--========================= Measure 8 ==========================-->
    <measure implicit="no" number="8">
      <note dynamics="141.11">
        <pitch>
          <step>F</step>
          <octave>3</octave>
        </pitch>
        <duration>21840</duration>
        <tie type="stop" />
        <type>whole</type>
        <time-modification>
          <actual-notes>24</actual-notes>
          <normal-notes>13</normal-notes>
          <normal-type>32nd</normal-type>
        </time-modification>
        <notations>
          <tied type="stop" />
          <tuplet bracket="no" number="1" placement="above" type="start">
            <tuplet-actual>
              <tuplet-number>24</tuplet-number>
              <tuplet-type>32nd</tuplet-type>
            </tuplet-actual>
            <tuplet-normal>
              <tuplet-number>13</tuplet-number>
              <tuplet-type>32nd</tuplet-type>
            </tuplet-normal>
          </tuplet>
          <tuplet number="1" type="stop" />
        </notations>
      </note>
      <note dynamics="141.11">
        <pitch>
          <step>B</step>
          <alter>-1</alter>
          <octave>2</octave>
        </pitch>
        <duration>20160</duration>
        <tie type="start" />
        <type>half</type>
        <accidental>flat</accidental>
        <notations>
          <tied type="start" />
        </notations>
      </note>
    </measure>
    <!--========================= Measure 9 ==========================-->
    <measure implicit="no" number="9">
      <note dynamics="141.11">
        <pitch>
          <step>B</step>
          <alter>-1</alter>
          <octave>2</octave>
        </pitch>
        <duration>2520</duration>
        <tie type="stop" />
        <type>16th</type>
        <notations>
          <tied type="stop" />
        </notations>
      </note>
      <note>
        <rest />
        <duration>2520</duration>
        <type>16th</type>
      </note>
      <note dynamics="141.11">
        <pitch>
          <step>B</step>
          <alter>-1</alter>
          <octave>2</octave>
        </pitch>
        <duration>5040</duration>
        <type>eighth</type>
        <accidental>flat</accidental>
      </note>
      <note dynamics="141.11">
        <pitch>
          <step>D</step>
          <octave>0</octave>
        </pitch>
        <duration>30240</duration>
        <tie type="start" />
        <type>half</type>
        <dot />
        <notations>
          <tied type="start" />
        </notations>
      </note>
    </measure>
    <!--========================= Measure 10 =========================-->
    <measure implicit="no" number="10">
      <note dynamics="141.11">
        <pitch>
          <step>D</step>
          <octave>0</octave>
        </pitch>
        <duration>40320</duration>
        <tie type="stop" />
        <tie type="start" />
        <type>whole</type>
        <notations>
          <tied type="stop" />
          <tied type="start" />
        </notations>
      </note>
    </measure>
    <!--========================= Measure 11 =========================-->
    <measure implicit="no" number="11">
      <note dynamics="141.11">
        <pitch>
          <step>D</step>
          <octave>0</octave>
        </pitch>
        <duration>20160</duration>
        <tie type="stop" />
        <tie type="start" />
        <type>half</type>
        <notations>
          <tied type="stop" />
          <tied type="start" />
        </notations>
      </note>
      <note dynamics="141.11">
        <pitch>
          <step>D</step>
          <octave>0</octave>
        </pitch>
        <duration>7560</duration>
        <tie type="stop" />
        <type>eighth</type>
        <dot />
        <notations>
          <tied type="stop" />
        </notations>
      </note>
      <note dynamics="141.11">
        <pitch>
          <step>E</step>
          <octave>2</octave>
        </pitch>
        <duration>7560</duration>
        <type>eighth</type>
        <dot />
      </note>
      <note dynamics="112.22">
        <pitch>
          <step>F</step>
          <octave>1</octave>
        </pitch>
        <duration>5040</duration>
        <type>eighth</type>
        <beam number="1">end</beam>
      </note>
    </measure>
    <!--========================= Measure 12 =========================-->
    <measure implicit="no" number="12">
      <note dynamics="56.67">
        <pitch>
          <step>D</step>
          <octave>2</octave>
        </pitch>
        <duration>17640</duration>
        <type>quarter</type>
        <dot />
        <dot />
      </note>
      <note dynamics="141.11">
        <pitch>
          <step>A</step>
          <octave>1</octave>
        </pitch>
        <duration>20160</duration>
        <tie type="start" />
        <type>half</type>
        <notations>
          <tied type="start" />
        </notations>
      </note>
      <note dynamics="141.11">
        <pitch>
          <step>A</step>
          <octave>1</octave>
        </pitch>
        <duration>2520</duration>
        <tie type="stop" />
        <tie type="start" />
        <type>16th</type>
        <notations>
          <tied type="stop" />
          <tied type="start" />
        </notations>
      </note>
    </measure>
    <!--========================= Measure 13 =========================-->
    <measure implicit="no" number="13">
      <note dynamics="141.11">
        <pitch>
          <step>A</step>
          <octave>1</octave>
        </pitch>
        <duration>4200</duration>
        <tie type="stop" />
        <voice>1</voice>
        <type>eighth</type>
        <time-modification>
          <actual-notes>6</actual-notes>
          <normal-notes>5</normal-notes>
          <normal-type>64th</normal-type>
        </time-modification>
        <notations>
          <tied type="stop" />
        </notations>
      </note>
      <note dynamics="112.22">
        <pitch>
          <step>F</step>
          <octave>1</octave>
        </pitch>
        <duration>5040</duration>
        <voice>1</voice>
        <type>eighth</type>
      </note>
      <note>
        <rest />
        <duration>9240</duration>
        <voice>1</voice>
        <type>quarter</type>
        <time-modification>
          <actual-notes>12</actual-notes>
          <normal-notes>11</normal-notes>
          <normal-type>64th</normal-type>
        </time-modification>
      </note>
      <note dynamics="71.11">
        <pitch>
          <step>A</step>
          <octave>1</octave>
        </pitch>
        <duration>10080</duration>
        <voice>1</voice>
        <type>quarter</type>
      </note>
      <note dynamics="71.11">
        <pitch>
          <step>A</step>
          <octave>1</octave>
        </pitch>
        <duration>10080</duration>
        <voice>1</voice>
        <type>quarter</type>
      </note>
      <note>
        <rest />
        <duration>2520</duration>
        <voice>1</voice>
        <type>16th</type>
      </note>
      <backup>
        <duration>41160</duration>
      </backup>
      <note>
        <rest />
        <duration>7560</duration>
        <voice>2</voice>
        <type>eighth</type>
        <dot />
      </note>
      <note dynamics="141.11">
        <pitch>
          <step>B</step>
          <octave>1</octave>
        </pitch>
        <duration>10080</duration>
        <voice>2</voice>
        <type>quarter</type>
      </note>
      <note>
        <rest />
        <duration>19320</duration>
        <voice>2</voice>
        <type>half</type>
        <time-modification>
          <actual-notes>24</actual-notes>
          <normal-notes>23</normal-notes>
          <normal-type>64th</normal-type>
        </time-modification>
      </note>
      <note dynamics="71.11">
        <pitch>
          <step>A</step>
          <octave>1</octave>
        </pitch>
        <duration>3360</duration>
        <tie type="start" />
        <voice>2</voice>
        <type>eighth</type>
        <time-modification>
          <actual-notes>3</actual-notes>
          <normal-notes>2</normal-notes>
          <normal-type>eighth</normal-type>
        </time-modification>
        <notations>
          <tied type="start" />
        </notations>
      </note>
    </measure>
    <!--========================= Measure 14 =========================-->
    <measure implicit="no" number="14">
      <note dynamics="71.11">
        <pitch>
          <step>A</step>
          <octave>1</octave>
        </pitch>
        <duration>6720</duration>
        <tie type="stop" />
        <type>quarter</type>
        <time-modification>
          <actual-notes>3</actual-notes>
          <normal-notes>2</normal-notes>
          <normal-type>quarter</normal-type>
        </time-modification>
        <notations>
          <tied type="stop" />
          <tuplet bracket="no" number="1" placement="above" type="start">
            <tuplet-actual>
              <tuplet-number>3</tuplet-number>
              <tuplet-type>quarter</tuplet-type>
            </tuplet-actual>
            <tuplet-normal>
              <tuplet-number>2</tuplet-number>
              <tuplet-type>quarter</tuplet-type>
            </tuplet-normal>
          </tuplet>
          <tuplet number="1" type="stop" />
        </notations>
      </note>
      <backup>
        <duration>6720</duration>
      </backup>
      <note>
        <rest />
        <duration>6720</duration>
        <voice>1</voice>
        <type>quarter</type>
        <time-modification>
          <actual-notes>3</actual-notes>
          <normal-notes>2</normal-notes>
          <normal-type>quarter</normal-type>
        </time-modification>
      </note>
      <note dynamics="71.11">
        <pitch>
          <step>A</step>
          <octave>1</octave>
        </pitch>
        <duration>10080</duration>
        <voice>1</voice>
        <type>quarter</type>
      </note>
      <note dynamics="112.22">
        <pitch>
          <step>G</step>
          <octave>1</octave>
        </pitch>
        <duration>5040</duration>
        <voice>1</voice>
        <type>eighth</type>
      </note>
      <note>
        <rest />
        <duration>3360</duration>
        <voice>1</voice>
        <type>eighth</type>
        <time-modification>
          <actual-notes>3</actual-notes>
          <normal-notes>2</normal-notes>
          <normal-type>eighth</normal-type>
        </time-modification>
      </note>
      <note dynamics="112.22">
        <pitch>
          <step>E</step>
          <alter>-1</alter>
          <octave>1</octave>
        </pitch>
        <duration>5040</duration>
        <voice>1</voice>
        <type>eighth</type>
        <accidental>flat</accidental>
      </note>
      <note dynamics="112.22">
        <pitch>
          <step>E</step>
          <alter>-1</alter>
          <octave>1</octave>
        </pitch>
        <duration>7560</duration>
        <voice>1</voice>
        <type>eighth</type>
        <dot />
        <accidental>flat</accidental>
        <stem>up</stem>
        <beam number="1">begin</beam>
      </note>
      <note dynamics="112.22">
        <pitch>
          <step>E</step>
          <alter>-1</alter>
          <octave>1</octave>
        </pitch>
        <duration>2520</duration>
        <tie type="start" />
        <voice>1</voice>
        <type>16th</type>
        <accidental>flat</accidental>
        <stem>up</stem>
        <beam number="1">end</beam>
        <beam number="2">backward hook</beam>
        <notations>
          <tied type="start" />
        </notations>
      </note>
      <backup>
        <duration>40320</duration>
      </backup>
      <note>
        <rest />
        <duration>20160</duration>
        <voice>2</voice>
        <type>half</type>
      </note>
      <note dynamics="112.22">
        <pitch>
          <step>G</step>
          <octave>1</octave>
        </pitch>
        <duration>5040</duration>
        <voice>2</voice>
        <type>eighth</type>
      </note>
      <note>
        <rest />
        <duration>15120</duration>
        <voice>2</voice>
        <type>quarter</type>
        <dot />
      </note>
    </measure>
    <!--========================= Measure 15 =========================-->
    <measure implicit="no" number="15">
      <note dynamics="112.22">
        <pitch>
          <step>E</step>
          <alter>-1</alter>
          <octave>1</octave>
        </pitch>
        <duration>5040</duration>
        <tie type="stop" />
        <type>eighth</type>
        <notations>
          <tied type="stop" />
        </notations>
      </note>
      <backup>
        <duration>5040</duration>
      </backup>
      <note>
        <rest />
        <duration>5040</duration>
        <voice>1</voice>
        <type>eighth</type>
      </note>
      <note dynamics="112.22">
        <pitch>
          <step>E</step>
          <octave>1</octave>
        </pitch>
        <duration>2520</duration>
        <voice>1</voice>
        <type>16th</type>
      </note>
      <note>
        <rest />
        <duration>5880</duration>
        <voice>1</voice>
        <type>quarter</type>
        <time-modification>
          <actual-notes>12</actual-notes>
          <normal-notes>7</normal-notes>
          <normal-type>64th</normal-type>
        </time-modification>
      </note>
      <note dynamics="71.11">
        <pitch>
          <step>G</step>
          <octave>1</octave>
        </pitch>
        <duration>10080</duration>
        <voice>1</voice>
        <type>quarter</type>
      </note>
      <note>
        <pitch>
          <step>G</step>
          <octave>2</octave>
        </pitch>
        <duration>3360</duration>
        <voice>1</voice>
        <type>eighth</type>
        <time-modification>
          <actual-notes>3</actual-notes>
          <normal-notes>2</normal-notes>
          <normal-type>eighth</normal-type>
        </time-modification>
      </note>
      <note>
        <chord />
        <pitch>
          <step>G</step>
          <octave>1</octave>
        </pitch>
        <duration>3360</duration>
        <voice>1</voice>
        <type>eighth</type>
        <time-modification>
          <actual-notes>3</actual-notes>
          <normal-notes>2</normal-notes>
          <normal-type>eighth</normal-type>
        </time-modification>
      </note>
      <note>
        <rest />
        <duration>840</duration>
        <voice>1</voice>
        <type>32nd</type>
        <time-modification>
          <actual-notes>3</actual-notes>
          <normal-notes>2</normal-notes>
          <normal-type>32nd</normal-type>
        </time-modification>
      </note>
      <note dynamics="88.89">
        <pitch>
          <step>F</step>
          <octave>2</octave>
        </pitch>
        <duration>2520</duration>
        <voice>1</voice>
        <type>16th</type>
      </note>
      <note>
        <rest />
        <duration>2520</duration>
        <voice>1</voice>
        <type>16th</type>
      </note>
      <note dynamics="71.11">
        <pitch>
          <step>C</step>
          <octave>-1</octave>
        </pitch>
        <duration>7560</duration>
        <tie type="start" />
        <voice>1</voice>
        <type>eighth</type>
        <dot />
        <notations>
          <tied type="start" />
        </notations>
      </note>
      <backup>
        <duration>40320</duration>
      </backup>
      <note>
        <rest />
        <duration>6720</duration>
        <voice>2</voice>
        <type>quarter</type>
        <time-modification>
          <actual-notes>3</actual-notes>
          <normal-notes>2</normal-notes>
          <normal-type>quarter</normal-type>
        </time-modification>
      </note>
      <note dynamics="112.22">
        <pitch>
          <step>F</step>
          <octave>1</octave>
        </pitch>
        <duration>7560</duration>
        <voice>2</voice>
        <type>eighth</type>
        <dot />
      </note>
      <note>
        <rest />
        <duration>26040</duration>
        <voice>2</voice>
        <type>whole</type>
        <time-modification>
          <actual-notes>48</actual-notes>
          <normal-notes>31</normal-notes>
          <normal-type>64th</normal-type>
        </time-modification>
      </note>
    </measure>
    <!--========================= Measure 16 =========================-->
    <measure implicit="no" number="16">
      <note dynamics="71.11">
        <pitch>
          <step>C</step>
          <octave>-1</octave>
        </pitch>
        <duration>40320</duration>
        <tie type="stop" />
        <tie type="start" />
        <type>whole</type>
        <notations>
          <tied type="stop" />
          <tied type="start" />
        </notations>
      </note>
    </measure>
    <!--========================= Measure 17 =========================-->
    <measure implicit="no" number="17">
      <note dynamics="71.11">
        <pitch>
          <step>C</step>
          <octave>-1</octave>
        </pitch>
        <duration>40320</duration>
        <tie type="stop" />
        <tie type="start" />
        <type>whole</type>
        <notations>
          <tied type="stop" />
          <tied type="start" />
        </notations>
      </note>
    </measure>
    <!--========================= Measure 18 =========================-->
    <measure implicit="no" number="18">
      <note dynamics="71.11">
        <pitch>
          <step>C</step>
          <octave>-1</octave>
        </pitch>
        <duration>10080</duration>
        <tie type="stop" />
        <tie type="start" />
        <type>quarter</type>
        <notations>
          <tied type="stop" />
          <tied type="start" />
        </notations>
      </note>
      <note dynamics="71.11">
        <pitch>
          <step>C</step>
          <octave>-1</octave>
        </pitch>
        <duration>2520</duration>
        <tie type="stop" />
        <type>16th</type>
        <notations>
          <tied type="stop" />
        </notations>
      </note>
      <backup>
        <duration>12600</duration>
      </backup>
      <note>
        <rest />
        <duration>10080</duration>
        <voice>1</voice>
        <type>quarter</type>
      </note>
      <note>
        <rest />
        <duration>2520</duration>
        <voice>1</voice>
        <type>16th</type>
      </note>
      <note dynamics="71.11">
        <pitch>
          <step>C</step>
          <octave>2</octave>
        </pitch>
        <duration>5040</duration>
        <voice>1</voice>
        <type>eighth</type>
      </note>
      <note>
        <rest />
        <duration>7560</duration>
        <voice>1</voice>
        <type>eighth</type>
        <dot />
      </note>
      <note dynamics="88.89">
        <pitch>
          <step>B</step>
          <alter>-1</alter>
          <octave>1</octave>
        </pitch>
        <duration>2520</duration>
        <voice>1</voice>
        <type>16th</type>
        <accidental>flat</accidental>
      </note>
      <note>
        <rest />
        <duration>2520</duration>
        <voice>1</voice>
        <type>16th</type>
      </note>
      <note dynamics="71.11">
        <pitch>
          <step>G</step>
          <octave>0</octave>
        </pitch>
        <duration>10080</duration>
        <tie type="start" />
        <voice>1</voice>
        <type>quarter</type>
        <notations>
          <tied type="start" />
        </notations>
      </note>
      <backup>
        <duration>40320</duration>
      </backup>
      <note>
        <rest />
        <duration>16800</duration>
        <voice>2</voice>
        <type>half</type>
        <time-modification>
          <actual-notes>6</actual-notes>
          <normal-notes>5</normal-notes>
          <normal-type>16th</normal-type>
        </time-modification>
      </note>
      <note dynamics="112.22">
        <pitch>
          <step>A</step>
          <octave>1</octave>
        </pitch>
        <duration>7560</duration>
        <voice>2</voice>
        <type>eighth</type>
        <dot />
      </note>
      <note>
        <rest />
        <duration>2520</duration>
        <voice>2</voice>
        <type>16th</type>
      </note>
      <note dynamics="88.89">
        <pitch>
          <step>G</step>
          <octave>1</octave>
        </pitch>
        <duration>3360</duration>
        <voice>2</voice>
        <type>eighth</type>
        <time-modification>
          <actual-notes>3</actual-notes>
          <normal-notes>2</normal-notes>
          <normal-type>eighth</normal-type>
        </time-modification>
      </note>
      <note>
        <rest />
        <duration>10080</duration>
        <voice>2</voice>
        <type>quarter</type>
      </note>
    </measure>
    <!--========================= Measure 19 =========================-->
    <measure implicit="no" number="19">
      <note dynamics="71.11">
        <pitch>
          <step>G</step>
          <octave>0</octave>
        </pitch>
        <duration>20160</duration>
        <tie type="stop" />
        <type>half</type>
        <notations>
          <tied type="stop" />
        </notations>
      </note>
      <note dynamics="71.11">
        <pitch>
          <step>C</step>
          <octave>2</octave>
        </pitch>
        <duration>2520</duration>
        <type>16th</type>
      </note>
      <note dynamics="112.22">
        <pitch>
          <step>G</step>
          <octave>0</octave>
        </pitch>
        <duration>17640</duration>
        <tie type="start" />
        <type>quarter</type>
        <dot />
        <dot />
        <notations>
          <tied type="start" />
        </notations>
      </note>
    </measure>
    <!--========================= Measure 20 =========================-->
    <measure implicit="no" number="20">
      <note dynamics="112.22">
        <pitch>
          <step>G</step>
          <octave>0</octave>
        </pitch>
        <duration>7560</duration>
        <tie type="stop" />
        <type>eighth</type>
        <dot />
        <notations>
          <tied type="stop" />
        </notations>
      </note>
      <backup>
        <duration>7560</duration>
      </backup>
      <note>
        <rest />
        <duration>6720</duration>
        <voice>1</voice>
        <type>quarter</type>
        <time-modification>
          <actual-notes>3</actual-notes>
          <normal-notes>2</normal-notes>
          <normal-type>quarter</normal-type>
        </time-modification>
      </note>
      <note dynamics="112.22">
        <pitch>
          <step>A</step>
          <octave>2</octave>
        </pitch>
        <duration>2520</duration>
        <voice>1</voice>
        <type>16th</type>
      </note>
      <note>
        <rest />
        <duration>3360</duration>
        <voice>1</voice>
        <type>eighth</type>
        <time-modification>
          <actual-notes>3</actual-notes>
          <normal-notes>2</normal-notes>
          <normal-type>eighth</normal-type>
        </time-modification>
      </note>
      <note dynamics="35.56">
        <pitch>
          <step>C</step>
          <alter>1</alter>
          <octave>3</octave>
        </pitch>
        <duration>2520</duration>
        <voice>1</voice>
        <type>16th</type>
        <accidental>sharp</accidental>
        <stem>up</stem>
        <beam number="1">begin</beam>
        <beam number="2">forward hook</beam>
      </note>
      <note dynamics="35.56">
        <pitch>
          <step>C</step>
          <alter>1</alter>
          <octave>2</octave>
        </pitch>
        <duration>5040</duration>
        <voice>1</voice>
        <type>eighth</type>
        <accidental>sharp</accidental>
        <stem>up</stem>
        <beam number="1">end</beam>
      </note>
      <note dynamics="35.56">
        <pitch>
          <step>C</step>
          <alter>1</alter>
          <octave>3</octave>
        </pitch>
        <duration>2520</duration>
        <voice>1</voice>
        <type>16th</type>
        <accidental>sharp</accidental>
        <stem>up</stem>
        <beam number="1">begin</beam>
        <beam number="2">forward hook</beam>
      </note>
      <note dynamics="35.56">
        <pitch>
          <step>C</step>
          <alter>1</alter>
          <octave>2</octave>
        </pitch>
        <duration>5040</duration>
        <voice>1</voice>
        <type>eighth</type>
        <accidental>sharp</accidental>
        <stem>up</stem>
        <beam number="1">end</beam>
      </note>
      <note>
        <rest />
        <duration>2520</duration>
        <voice>1</voice>
        <type>16th</type>
      </note>
      <note dynamics="112.22">
        <pitch>
          <step>A</step>
          <octave>2</octave>
        </pitch>
        <duration>2520</duration>
        <voice>1</voice>
        <type>16th</type>
        <stem>up</stem>
        <beam number="1">begin</beam>
        <beam number="2">forward hook</beam>
      </note>
      <note dynamics="112.22">
        <pitch>
          <step>G</step>
          <octave>-1</octave>
        </pitch>
        <duration>7560</duration>
        <tie type="start" />
        <voice>1</voice>
        <type>eighth</type>
        <dot />
        <stem>up</stem>
        <beam number="1">end</beam>
        <notations>
          <tied type="start" />
        </notations>
      </note>
      <backup>
        <duration>40320</duration>
      </backup>
      <note>
        <rest />
        <duration>7560</duration>
        <voice>2</voice>
        <type>eighth</type>
        <dot />
      </note>
      <note dynamics="112.22">
        <pitch>
          <step>A</step>
          <octave>2</octave>
        </pitch>
        <duration>2520</duration>
        <voice>2</voice>
        <type>16th</type>
      </note>
      <note>
        <rest />
        <duration>16800</duration>
        <voice>2</voice>
        <type>half</type>
        <time-modification>
          <actual-notes>6</actual-notes>
          <normal-notes>5</normal-notes>
          <normal-type>16th</normal-type>
        </time-modification>
      </note>
      <note>
        <pitch>
          <step>C</step>
          <alter>1</alter>
          <octave>3</octave>
        </pitch>
        <duration>3360</duration>
        <voice>2</voice>
        <type>eighth</type>
        <accidental>sharp</accidental>
        <time-modification>
          <actual-notes>3</actual-notes>
          <normal-notes>2</normal-notes>
          <normal-type>eighth</normal-type>
        </time-modification>
      </note>
      <note>
        <chord />
        <pitch>
          <step>A</step>
          <octave>2</octave>
        </pitch>
        <duration>3360</duration>
        <voice>2</voice>
        <type>eighth</type>
        <time-modification>
          <actual-notes>3</actual-notes>
          <normal-notes>2</normal-notes>
          <normal-type>eighth</normal-type>
        </time-modification>
      </note>
      <note>
        <rest />
        <duration>10080</duration>
        <voice>2</voice>
        <type>quarter</type>
      </note>
    </measure>
    <!--========================= Measure 21 =========================-->
    <measure implicit="no" number="21">
      <note dynamics="112.22">
        <pitch>
          <step>G</step>
          <octave>-1</octave>
        </pitch>
        <duration>17640</duration>
        <tie type="stop" />
        <type>quarter</type>
        <dot />
        <dot />
        <notations>
          <tied type="stop" />
        </notations>
      </note>
      <note dynamics="112.22">
        <pitch>
          <step>D</step>
          <octave>2</octave>
        </pitch>
        <duration>20160</duration>
        <tie type="start" />
        <type>half</type>
        <notations>
          <tied type="start" />
        </notations>
      </note>
      <note dynamics="112.22">
        <pitch>
          <step>D</step>
          <octave>2</octave>
        </pitch>
        <duration>2520</duration>
        <tie type="stop" />
        <tie type="start" />
        <type>16th</type>
        <notations>
          <tied type="stop" />
          <tied type="start" />
        </notations>
      </note>
    </measure>
    <!--========================= Measure 22 =========================-->
    <measure implicit="no" number="22">
      <note dynamics="112.22">
        <pitch>
          <step>D</step>
          <octave>2</octave>
        </pitch>
        <duration>2520</duration>
        <tie type="stop" />
        <type>16th</type>
        <notations>
          <tied type="stop" />
        </notations>
      </note>
      <backup>
        <duration>2520</duration>
      </backup>
      <note>
        <rest />
        <duration>2520</duration>
        <voice>1</voice>
        <type>16th</type>
      </note>
      <note>
        <pitch>
          <step>D</step>
          <octave>2</octave>
        </pitch>
        <duration>2520</duration>
        <voice>1</voice>
        <type>16th</type>
      </note>
      <note>
        <chord />
        <pitch>
          <step>E</step>
          <octave>2</octave>
        </pitch>
        <duration>2520</duration>
        <voice>1</voice>
        <type>16th</type>
      </note>
      <note dynamics="112.22">
        <pitch>
          <step>F</step>
          <alter>1</alter>
          <octave>3</octave>
        </pitch>
        <duration>20160</duration>
        <tie type="start" />
        <voice>1</voice>
        <type>half</type>
        <accidental>sharp</accidental>
        <notations>
          <tied type="start" />
        </notations>
      </note>
      <note dynamics="112.22">
        <pitch>
          <step>F</step>
          <alter>1</alter>
          <octave>3</octave>
        </pitch>
        <duration>5040</duration>
        <tie type="stop" />
        <voice>1</voice>
        <type>eighth</type>
        <notations>
          <tied type="stop" />
        </notations>
      </note>
      <note dynamics="112.22">
        <pitch>
          <step>A</step>
          <octave>2</octave>
        </pitch>
        <duration>5040</duration>
        <voice>1</voice>
        <type>eighth</type>
        <stem>up</stem>
        <beam number="1">begin</beam>
      </note>
      <note dynamics="112.22">
        <pitch>
          <step>C</step>
          <octave>3</octave>
        </pitch>
        <duration>2520</duration>
        <voice>1</voice>
        <type>16th</type>
        <stem>up</stem>
        <beam number="1">end</beam>
        <beam number="2">backward hook</beam>
      </note>
      <note>
        <rest />
        <duration>2520</duration>
        <voice>1</voice>
        <type>16th</type>
      </note>
      <backup>
        <duration>40320</duration>
      </backup>
      <note>
        <rest />
        <duration>36960</duration>
        <voice>2</voice>
        <type>whole</type>
        <time-modification>
          <actual-notes>12</actual-notes>
          <normal-notes>11</normal-notes>
          <normal-type>16th</normal-type>
        </time-modification>
      </note>
      <note dynamics="112.22">
        <pitch>
          <step>E</step>
          <octave>3</octave>
        </pitch>
        <duration>3360</duration>
        <tie type="start" />
        <voice>2</voice>
        <type>eighth</type>
        <time-modification>
          <actual-notes>3</actual-notes>
          <normal-notes>2</normal-notes>
          <normal-type>eighth</normal-type>
        </time-modification>
        <notations>
          <tied type="start" />
        </notations>
      </note>
    </measure>
    <!--========================= Measure 23 =========================-->
    <measure implicit="no" number="23">
      <note dynamics="112.22">
        <pitch>
          <step>E</step>
          <octave>3</octave>
        </pitch>
        <duration>23520</duration>
        <tie type="stop" />
        <type>whole</type>
        <time-modification>
          <actual-notes>12</actual-notes>
          <normal-notes>7</normal-notes>
          <normal-type>16th</normal-type>
        </time-modification>
        <notations>
          <tied type="stop" />
          <tuplet bracket="no" number="1" placement="above" type="start">
            <tuplet-actual>
              <tuplet-number>12</tuplet-number>
              <tuplet-type>16th</tuplet-type>
            </tuplet-actual>
            <tuplet-normal>
              <tuplet-number>7</tuplet-number>
              <tuplet-type>16th</tuplet-type>
            </tuplet-normal>
          </tuplet>
          <tuplet number="1" type="stop" />
        </notations>
      </note>
      <backup>
        <duration>23520</duration>
      </backup>
      <note>
        <rest />
        <duration>20160</duration>
        <voice>1</voice>
        <type>half</type>
      </note>
      <note>
        <rest />
        <duration>2520</duration>
        <voice>1</voice>
        <type>16th</type>
      </note>
      <note dynamics="112.22">
        <pitch>
          <step>B</step>
          <octave>2</octave>
        </pitch>
        <duration>2520</duration>
        <voice>1</voice>
        <type>16th</type>
      </note>
      <note>
        <rest />
        <duration>15120</duration>
        <voice>1</voice>
        <type>quarter</type>
        <dot />
      </note>
      <backup>
        <duration>40320</duration>
      </backup>
      <note>
        <rest />
        <duration>23520</duration>
        <voice>2</voice>
        <type>whole</type>
        <time-modification>
          <actual-notes>12</actual-notes>
          <normal-notes>7</normal-notes>
          <normal-type>16th</normal-type>
        </time-modification>
      </note>
      <note dynamics="112.22">
        <pitch>
          <step>G</step>
          <alter>1</alter>
          <octave>1</octave>
        </pitch>
        <duration>16800</duration>
        <tie type="start" />
        <voice>2</voice>
        <type>half</type>
        <accidental>sharp</accidental>
        <time-modification>
          <actual-notes>6</actual-notes>
          <normal-notes>5</normal-notes>
          <normal-type>16th</normal-type>
        </time-modification>
        <notations>
          <tied type="start" />
        </notations>
      </note>
    </measure>
    <!--========================= Measure 24 =========================-->
    <measure implicit="no" number="24">
      <note dynamics="112.22">
        <pitch>
          <step>G</step>
          <alter>1</alter>
          <octave>1</octave>
        </pitch>
        <duration>8400</duration>
        <tie type="stop" />
        <type>quarter</type>
        <time-modification>
          <actual-notes>6</actual-notes>
          <normal-notes>5</normal-notes>
          <normal-type>32nd</normal-type>
        </time-modification>
        <notations>
          <tied type="stop" />
          <tuplet bracket="no" number="1" placement="above" type="start">
            <tuplet-actual>
              <tuplet-number>6</tuplet-number>
              <tuplet-type>32nd</tuplet-type>
            </tuplet-actual>
            <tuplet-normal>
              <tuplet-number>5</tuplet-number>
              <tuplet-type>32nd</tuplet-type>
            </tuplet-normal>
          </tuplet>
          <tuplet number="1" type="stop" />
        </notations>
      </note>
      <note dynamics="112.22">
        <pitch>
          <step>D</step>
          <octave>3</octave>
        </pitch>
        <duration>2520</duration>
        <type>16th</type>
      </note>
      <note dynamics="112.22">
        <pitch>
          <step>F</step>
          <octave>3</octave>
        </pitch>
        <duration>20160</duration>
        <tie type="start" />
        <type>half</type>
        <notations>
          <tied type="start" />
        </notations>
      </note>
      <note dynamics="112.22">
        <pitch>
          <step>F</step>
          <octave>3</octave>
        </pitch>
        <duration>5040</duration>
        <tie type="stop" />
        <type>eighth</type>
        <notations>
          <tied type="stop" />
        </notations>
      </note>
      <note dynamics="112.22">
        <pitch>
          <step>A</step>
          <octave>2</octave>
        </pitch>
        <duration>2520</duration>
        <type>16th</type>
      </note>
      <note>
        <rest />
        <duration>2520</duration>
        <type>16th</type>
      </note>
    </measure>
    <!--========================= Measure 25 =========================-->
    <measure implicit="no" number="25">
      <note dynamics="112.22">
        <pitch>
          <step>F</step>
          <octave>3</octave>
        </pitch>
        <duration>20160</duration>
        <tie type="start" />
        <voice>1</voice>
        <type>half</type>
        <notations>
          <tied type="start" />
        </notations>
      </note>
      <note dynamics="112.22">
        <pitch>
          <step>F</step>
          <octave>3</octave>
        </pitch>
        <duration>5040</duration>
        <tie type="stop" />
        <voice>1</voice>
        <type>eighth</type>
        <notations>
          <tied type="stop" />
        </notations>
      </note>
      <note dynamics="112.22">
        <pitch>
          <step>A</step>
          <octave>2</octave>
        </pitch>
        <duration>3360</duration>
        <voice>1</voice>
        <type>eighth</type>
        <time-modification>
          <actual-notes>3</actual-notes>
          <normal-notes>2</normal-notes>
          <normal-type>eighth</normal-type>
        </time-modification>
      </note>
      <note>
        <rest />
        <duration>6720</duration>
        <voice>1</voice>
        <type>quarter</type>
        <time-modification>
          <actual-notes>3</actual-notes>
          <normal-notes>2</normal-notes>
          <normal-type>quarter</normal-type>
        </time-modification>
      </note>
      <note dynamics="71.11">
        <pitch>
          <step>F</step>
          <octave>2</octave>
        </pitch>
        <duration>3360</duration>
        <voice>1</voice>
        <type>eighth</type>
        <time-modification>
          <actual-notes>3</actual-notes>
          <normal-notes>2</normal-notes>
          <normal-type>eighth</normal-type>
        </time-modification>
      </note>
      <note>
        <rest />
        <duration>1680</duration>
        <voice>1</voice>
        <type>16th</type>
        <time-modification>
          <actual-notes>3</actual-notes>
          <normal-notes>2</normal-notes>
          <normal-type>16th</normal-type>
        </time-modification>
      </note>
      <backup>
        <duration>40320</duration>
      </backup>
      <note>
        <rest />
        <duration>20160</duration>
        <voice>2</voice>
        <type>half</type>
      </note>
      <note>
        <rest />
        <duration>7560</duration>
        <voice>2</voice>
        <type>eighth</type>
        <dot />
      </note>
      <note dynamics="112.22">
        <pitch>
          <step>A</step>
          <octave>1</octave>
        </pitch>
        <duration>7560</duration>
        <voice>2</voice>
        <type>eighth</type>
        <dot />
      </note>
      <note>
        <rest />
        <duration>2520</duration>
        <voice>2</voice>
        <type>16th</type>
      </note>
      <note dynamics="71.11">
        <pitch>
          <step>F</step>
          <octave>2</octave>
        </pitch>
        <duration>2520</duration>
        <voice>2</voice>
        <type>16th</type>
      </note>
    </measure>
    <!--========================= Measure 26 =========================-->
    <measure implicit="no" number="26">
      <note>
        <rest />
        <duration>2520</duration>
        <voice>1</voice>
        <type>16th</type>
      </note>
      <note dynamics="71.11">
        <pitch>
          <step>F</step>
          <octave>3</octave>
        </pitch>
        <duration>3360</duration>
        <voice>1</voice>
        <type>eighth</type>
        <time-modification>
          <actual-notes>3</actual-notes>
          <normal-notes>2</normal-notes>
          <normal-type>eighth</normal-type>
        </time-modification>
      </note>
      <note>
        <rest />
        <duration>6720</duration>
        <voice>1</voice>
        <type>quarter</type>
        <time-modification>
          <actual-notes>3</actual-notes>
          <normal-notes>2</normal-notes>
          <normal-type>quarter</normal-type>
        </time-modification>
      </note>
      <note>
        <rest />
        <duration>20160</duration>
        <voice>1</voice>
        <type>half</type>
      </note>
      <note>
        <rest />
        <duration>7560</duration>
        <voice>1</voice>
        <type>eighth</type>
        <dot />
      </note>
      <backup>
        <duration>40320</duration>
      </backup>
      <note>
        <rest />
        <duration>5040</duration>
        <voice>2</voice>
        <type>eighth</type>
      </note>
      <note dynamics="71.11">
        <pitch>
          <step>F</step>
          <alter>1</alter>
          <octave>3</octave>
        </pitch>
        <duration>35280</duration>
        <tie type="start" />
        <voice>2</voice>
        <type>half</type>
        <dot />
        <dot />
        <accidental>sharp</accidental>
        <notations>
          <tied type="start" />
        </notations>
      </note>
    </measure>
    <!--========================= Measure 27 =========================-->
    <measure implicit="no" number="27">
      <note dynamics="71.11">
        <pitch>
          <step>F</step>
          <alter>1</alter>
          <octave>3</octave>
        </pitch>
        <duration>40320</duration>
        <tie type="stop" />
        <tie type="start" />
        <type>whole</type>
        <notations>
          <tied type="stop" />
          <tied type="start" />
        </notations>
      </note>
    </measure>
    <!--========================= Measure 28 =========================-->
    <measure implicit="no" number="28">
      <note dynamics="71.11">
        <pitch>
          <step>F</step>
          <alter>1</alter>
          <octave>3</octave>
        </pitch>
        <duration>40320</duration>
        <tie type="stop" />
        <tie type="start" />
        <type>whole</type>
        <notations>
          <tied type="stop" />
          <tied type="start" />
        </notations>
      </note>
    </measure>
    <!--========================= Measure 29 =========================-->
    <measure implicit="no" number="29">
      <note dynamics="71.11">
        <pitch>
          <step>F</step>
          <alter>1</alter>
          <octave>3</octave>
        </pitch>
        <duration>40320</duration>
        <tie type="stop" />
        <tie type="start" />
        <type>whole</type>
        <notations>
          <tied type="stop" />
          <tied type="start" />
        </notations>
      </note>
    </measure>
    <!--========================= Measure 30 =========================-->
    <measure implicit="no" number="30">
      <note dynamics="71.11">
        <pitch>
          <step>F</step>
          <alter>1</alter>
          <octave>3</octave>
        </pitch>
        <duration>40320</duration>
        <tie type="stop" />
        <tie type="start" />
        <type>whole</type>
        <notations>
          <tied type="stop" />
          <tied type="start" />
        </notations>
      </note>
    </measure>
    <!--========================= Measure 31 =========================-->
    <measure implicit="no" number="31">
      <note dynamics="71.11">
        <pitch>
          <step>F</step>
          <alter>1</alter>
          <octave>3</octave>
        </pitch>
        <duration>35280</duration>
        <tie type="stop" />
        <type>half</type>
        <dot />
        <dot />
        <notations>
          <tied type="stop" />
        </notations>
      </note>
      <backup>
        <duration>35280</duration>
      </backup>
      <note>
        <rest />
        <duration>33600</duration>
        <voice>1</voice>
        <type>whole</type>
        <time-modification>
          <actual-notes>6</actual-notes>
          <normal-notes>5</normal-notes>
          <normal-type>eighth</normal-type>
        </time-modification>
      </note>
      <note dynamics="71.11">
        <pitch>
          <step>G</step>
          <octave>2</octave>
        </pitch>
        <duration>3360</duration>
        <voice>1</voice>
        <type>eighth</type>
        <time-modification>
          <actual-notes>3</actual-notes>
          <normal-notes>2</normal-notes>
          <normal-type>eighth</normal-type>
        </time-modification>
        <stem>up</stem>
        <beam number="1">begin</beam>
      </note>
      <note dynamics="112.22">
        <pitch>
          <step>C</step>
          <octave>2</octave>
        </pitch>
        <duration>2520</duration>
        <voice>1</voice>
        <type>16th</type>
        <stem>up</stem>
        <beam number="1">end</beam>
        <beam number="2">backward hook</beam>
      </note>
      <note>
        <rest />
        <duration>840</duration>
        <voice>1</voice>
        <type>32nd</type>
        <time-modification>
          <actual-notes>3</actual-notes>
          <normal-notes>2</normal-notes>
          <normal-type>32nd</normal-type>
        </time-modification>
      </note>
      <backup>
        <duration>40320</duration>
      </backup>
      <note>
        <rest />
        <duration>37800</duration>
        <voice>2</voice>
        <type>half</type>
        <dot />
        <dot />
        <dot />
      </note>
      <note dynamics="112.22">
        <pitch>
          <step>E</step>
          <octave>2</octave>
        </pitch>
        <duration>2520</duration>
        <tie type="start" />
        <voice>2</voice>
        <type>16th</type>
        <notations>
          <tied type="start" />
        </notations>
      </note>
    </measure>
    <!--========================= Measure 32 =========================-->
    <measure implicit="no" number="32">
      <note dynamics="112.22">
        <pitch>
          <step>E</step>
          <octave>2</octave>
        </pitch>
        <duration>2520</duration>
        <tie type="stop" />
        <type>16th</type>
        <notations>
          <tied type="stop" />
        </notations>
      </note>
      <backup>
        <duration>2520</duration>
      </backup>
      <note>
        <rest />
        <duration>2520</duration>
        <voice>1</voice>
        <type>16th</type>
      </note>
      <note dynamics="112.22">
        <pitch>
          <step>A</step>
          <octave>1</octave>
        </pitch>
        <duration>7560</duration>
        <voice>1</voice>
        <type>eighth</type>
        <dot />
      </note>
      <note dynamics="112.22">
        <pitch>
          <step>C</step>
          <octave>2</octave>
        </pitch>
        <duration>2520</duration>
        <voice>1</voice>
        <type>16th</type>
        <stem>up</stem>
        <beam number="1">begin</beam>
        <beam number="2">begin</beam>
      </note>
      <note dynamics="88.89">
        <pitch>
          <step>B</step>
          <alter>-1</alter>
          <octave>1</octave>
        </pitch>
        <duration>2520</duration>
        <voice>1</voice>
        <type>16th</type>
        <accidental>flat</accidental>
        <stem>up</stem>
        <beam number="1">end</beam>
        <beam number="2">end</beam>
      </note>
      <note>
        <rest />
        <duration>1680</duration>
        <voice>1</voice>
        <type>16th</type>
        <time-modification>
          <actual-notes>3</actual-notes>
          <normal-notes>2</normal-notes>
          <normal-type>16th</normal-type>
        </time-modification>
      </note>
      <note dynamics="112.22">
        <pitch>
          <step>A</step>
          <octave>1</octave>
        </pitch>
        <duration>3360</duration>
        <voice>1</voice>
        <type>eighth</type>
        <time-modification>
          <actual-notes>3</actual-notes>
          <normal-notes>2</normal-notes>
          <normal-type>eighth</normal-type>
        </time-modification>
      </note>
      <note dynamics="112.22">
        <pitch>
          <step>A</step>
          <octave>1</octave>
        </pitch>
        <duration>3360</duration>
        <voice>1</voice>
        <type>eighth</type>
        <time-modification>
          <actual-notes>3</actual-notes>
          <normal-notes>2</normal-notes>
          <normal-type>eighth</normal-type>
        </time-modification>
        <stem>up</stem>
        <beam number="1">begin</beam>
      </note>
      <note dynamics="112.22">
        <pitch>
          <step>A</step>
          <octave>2</octave>
        </pitch>
        <duration>2520</duration>
        <voice>1</voice>
        <type>16th</type>
        <stem>up</stem>
        <beam number="1">end</beam>
        <beam number="2">backward hook</beam>
      </note>
      <note>
        <rest />
        <duration>14280</duration>
        <voice>1</voice>
        <type>half</type>
        <time-modification>
          <actual-notes>24</actual-notes>
          <normal-notes>17</normal-notes>
          <normal-type>64th</normal-type>
        </time-modification>
      </note>
      <backup>
        <duration>40320</duration>
      </backup>
      <note>
        <rest />
        <duration>13440</duration>
        <voice>2</voice>
        <type>half</type>
        <time-modification>
          <actual-notes>3</actual-notes>
          <normal-notes>2</normal-notes>
          <normal-type>half</normal-type>
        </time-modification>
      </note>
      <note dynamics="88.89">
        <pitch>
          <step>G</step>
          <alter>1</alter>
          <octave>1</octave>
        </pitch>
        <duration>3360</duration>
        <voice>2</voice>
        <type>eighth</type>
        <accidental>sharp</accidental>
        <time-modification>
          <actual-notes>3</actual-notes>
          <normal-notes>2</normal-notes>
          <normal-type>eighth</normal-type>
        </time-modification>
      </note>
      <note>
        <rest />
        <duration>8400</duration>
        <voice>2</voice>
        <type>quarter</type>
        <time-modification>
          <actual-notes>6</actual-notes>
          <normal-notes>5</normal-notes>
          <normal-type>32nd</normal-type>
        </time-modification>
      </note>
      <note dynamics="112.22">
        <pitch>
          <step>A</step>
          <octave>2</octave>
        </pitch>
        <duration>3360</duration>
        <voice>2</voice>
        <type>eighth</type>
        <time-modification>
          <actual-notes>3</actual-notes>
          <normal-notes>2</normal-notes>
          <normal-type>eighth</normal-type>
        </time-modification>
      </note>
      <note>
        <rest />
        <duration>11760</duration>
        <voice>2</voice>
        <type>half</type>
        <time-modification>
          <actual-notes>12</actual-notes>
          <normal-notes>7</normal-notes>
          <normal-type>32nd</normal-type>
        </time-modification>
      </note>
      <barline location="right">
        <bar-style>light-heavy</bar-style>
      </barline>
    </measure>
  </part>
</score-partwise>