{
    "mood": "happy",
    "instruments": {
        "Trumpet": [
            {
                "start_time": 0.2954545,
                "end_time": 0.4954545,
                "pitch": 69,
                "velocity": 64,
                "duration": 0.2,
                "tempo": 120.0
            },
            {
                "start_time": 0.4954545,
                "end_time": 0.7,
                "pitch": 64,
                "velocity": 64,
                "duration": 0.2045455,
                "tempo": 120.0
            },
            {
                "start_time": 0.7,
                "end_time": 0.9045455,
                "pitch": 69,
                "velocity": 64,
                "duration": 0.2045455,
                "tempo": 120.0
            },
            {
                "start_time": 0.9045455,
                "end_time": 1.2840909,
                "pitch": 74,
                "velocity": 64,
                "duration": 0.3795455,
                "tempo": 120.0
            },
            {
                "start_time": 1.2840909,
                "end_time": 3.4909091,
                "pitch": 73,
                "velocity": 64,
                "duration": 2.2068182,
                "tempo": 120.0
            },
            {
                "start_time": 3.4909091,
                "end_time": 3.6863636,
                "pitch": 69,
                "velocity": 64,
                "duration": 0.1954545,
                "tempo": 120.0
            },
            {
                "start_time": 0.4954545,
                "end_time": 3.6863636,
                "pitch": 78,
                "velocity": 64,
                "duration": 3.1909091,
                "tempo": 120.0
            },
            {
                "start_time": 0.7,
                "end_time": 3.8954545,
                "pitch": 32,
                "velocity": 64,
                "duration": 3.1954545,
                "tempo": 120.0
            },
            {
                "start_time": 3.6863636,
                "end_time": 3.8954545,
                "pitch": 64,
                "velocity": 64,
                "duration": 0.2090909,
                "tempo": 120.0
            },
            {
                "start_time": 3.8954545,
                "end_time": 4.1045455,
                "pitch": 69,
                "velocity": 64,
                "duration": 0.2090909,
                "tempo": 120.0
            },
            {
                "start_time": 0.9045455,
                "end_time": 4.1045455,
                "pitch": 77,
                "velocity": 64,
                "duration": 3.2,
                "tempo": 120.0
            },
            {
                "start_time": 4.1045455,
                "end_time": 4.4727273,
                "pitch": 74,
                "velocity": 64,
                "duration": 0.3681818,
                "tempo": 120.0
            },
            {
                "start_time": 4.475,
                "end_time": 5.0363636,
                "pitch": 73,
                "velocity": 64,
                "duration": 0.5613636,
                "tempo": 120.0
            },
            {
                "start_time": 5.0363636,
                "end_time": 6.6795455,
                "pitch": 75,
                "velocity": 64,
                "duration": 1.6431818,
                "tempo": 120.0
            },
            {
                "start_time": 6.6795455,
                "end_time": 6.8840909,
                "pitch": 69,
                "velocity": 64,
                "duration": 0.2045455,
                "tempo": 120.0
            },
            {
                "start_time": 3.8954545,
                "end_time": 7.0840909,
                "pitch": 32,
                "velocity": 64,
                "duration": 3.1886364,
                "tempo": 120.0
            },
            {
                "start_time": 6.8840909,
                "end_time": 7.0840909,
                "pitch": 64,
                "velocity": 64,
                "duration": 0.2,
                "tempo": 120.0
            },
            {
                "start_time": 7.0840909,
                "end_time": 7.2818182,
                "pitch": 69,
                "velocity": 64,
                "duration": 0.1977273,
                "tempo": 120.0
            },
            {
                "start_time": 4.1045455,
                "end_time": 7.2818182,
                "pitch": 77,
                "velocity": 64,
                "duration": 3.1772727,
                "tempo": 120.0
            },
            {
                "start_time": 7.2818182,
                "end_time": 7.6727273,
                "pitch": 74,
                "velocity": 64,
                "duration": 0.3909091,
                "tempo": 120.0
            },
            {
                "start_time": 7.6727273,
                "end_time": 9.8727273,
                "pitch": 73,
                "velocity": 64,
                "duration": 2.2,
                "tempo": 120.0
            },
            {
                "start_time": 9.8727273,
                "end_time": 10.0772727,
                "pitch": 69,
                "velocity": 64,
                "duration": 0.2045455,
                "tempo": 120.0
            },
            {
                "start_time": 3.6863636,
                "end_time": 10.0772727,
                "pitch": 78,
                "velocity": 64,
                "duration": 6.3909091,
                "tempo": 120.0
            },
            {
                "start_time": 7.0840909,
                "end_time": 10.2772727,
                "pitch": 32,
                "velocity": 64,
                "duration": 3.1931818,
                "tempo": 120.0
            },
            {
                "start_time": 10.0772727,
                "end_time": 10.2772727,
                "pitch": 64,
                "velocity": 64,
                "duration": 0.2,
                "tempo": 120.0
            },
            {
                "start_time": 10.2772727,
                "end_time": 10.4772727,
                "pitch": 69,
                "velocity": 64,
                "duration": 0.2,
                "tempo": 120.0
            },
            {
                "start_time": 7.2818182,
                "end_time": 10.4772727,
                "pitch": 77,
                "velocity": 64,
                "duration": 3.1954545,
                "tempo": 120.0
            },
            {
                "start_time": 10.4772727,
                "end_time": 10.8590909,
                "pitch": 74,
                "velocity": 64,
                "duration": 0.3818182,
                "tempo": 120.0
            },
            {
                "start_time": 10.8590909,
                "end_time": 11.2613636,
                "pitch": 73,
                "velocity": 64,
                "duration": 0.4022727,
                "tempo": 120.0
            },
            {
                "start_time": 11.2613636,
                "end_time": 12.2727273,
                "pitch": 71,
                "velocity": 64,
                "duration": 1.0113636,
                "tempo": 120.0
            },
            {
                "start_time": 12.2727273,
                "end_time": 12.675,
                "pitch": 73,
                "velocity": 64,
                "duration": 0.4022727,
                "tempo": 120.0
            },
            {
                "start_time": 12.675,
                "end_time": 13.075,
                "pitch": 74,
                "velocity": 64,
                "duration": 0.4,
                "tempo": 120.0
            },
            {
                "start_time": 12.2727273,
                "end_time": 15.0659091,
                "pitch": 76,
                "velocity": 64,
                "duration": 2.7931818,
                "tempo": 120.0
            },
            {
                "start_time": 13.075,
                "end_time": 15.0659091,
                "pitch": 76,
                "velocity": 64,
                "duration": 1.9909091,
                "tempo": 120.0
            },
            {
                "start_time": 15.0659091,
                "end_time": 15.4681818,
                "pitch": 73,
                "velocity": 64,
                "duration": 0.4022727,
                "tempo": 120.0
            },
            {
                "start_time": 15.0659091,
                "end_time": 15.4681818,
                "pitch": 73,
                "velocity": 64,
                "duration": 0.4022727,
                "tempo": 120.0
            },
            {
                "start_time": 15.4681818,
                "end_time": 15.8704545,
                "pitch": 74,
                "velocity": 64,
                "duration": 0.4022727,
                "tempo": 120.0
            },
            {
                "start_time": 15.8704545,
                "end_time": 16.2659091,
                "pitch": 76,
                "velocity": 64,
                "duration": 0.3954545,
                "tempo": 120.0
            },
            {
                "start_time": 16.2659091,
                "end_time": 16.6613636,
                "pitch": 74,
                "velocity": 64,
                "duration": 0.3954545,
                "tempo": 120.0
            },
            {
                "start_time": 16.6613636,
                "end_time": 16.8613636,
                "pitch": 73,
                "velocity": 64,
                "duration": 0.2,
                "tempo": 120.0
            },
            {
                "start_time": 16.8636364,
                "end_time": 18.2613636,
                "pitch": 71,
                "velocity": 64,
                "duration": 1.3977273,
                "tempo": 120.0
            },
            {
                "start_time": 18.2613636,
                "end_time": 18.6613636,
                "pitch": 71,
                "velocity": 64,
                "duration": 0.4,
                "tempo": 120.0
            },
            {
                "start_time": 18.6613636,
                "end_time": 19.0613636,
                "pitch": 73,
                "velocity": 64,
                "duration": 0.4,
                "tempo": 120.0
            },
            {
                "start_time": 9.8727273,
                "end_time": 19.4590909,
                "pitch": 44,
                "velocity": 64,
                "duration": 9.5863636,
                "tempo": 120.0
            },
            {
                "start_time": 19.0613636,
                "end_time": 19.4590909,
                "pitch": 74,
                "velocity": 64,
                "duration": 0.3977273,
                "tempo": 120.0
            },
            {
                "start_time": 19.4590909,
                "end_time": 21.45,
                "pitch": 69,
                "velocity": 64,
                "duration": 1.9909091,
                "tempo": 120.0
            },
            {
                "start_time": 21.45,
                "end_time": 21.65,
                "pitch": 66,
                "velocity": 64,
                "duration": 0.2,
                "tempo": 120.0
            },
            {
                "start_time": 21.65,
                "end_time": 21.85,
                "pitch": 68,
                "velocity": 64,
                "duration": 0.2,
                "tempo": 120.0
            },
            {
                "start_time": 21.85,
                "end_time": 22.2431818,
                "pitch": 69,
                "velocity": 64,
                "duration": 0.3931818,
                "tempo": 120.0
            },
            {
                "start_time": 18.6613636,
                "end_time": 22.2431818,
                "pitch": 76,
                "velocity": 64,
                "duration": 3.5818182,
                "tempo": 120.0
            },
            {
                "start_time": 11.2613636,
                "end_time": 22.6431818,
                "pitch": 57,
                "velocity": 64,
                "duration": 11.3818182,
                "tempo": 120.0
            },
            {
                "start_time": 22.2431818,
                "end_time": 22.6431818,
                "pitch": 73,
                "velocity": 64,
                "duration": 0.4,
                "tempo": 120.0
            },
            {
                "start_time": 22.6431818,
                "end_time": 23.2409091,
                "pitch": 71,
                "velocity": 64,
                "duration": 0.5977273,
                "tempo": 120.0
            },
            {
                "start_time": 23.2409091,
                "end_time": 23.8386364,
                "pitch": 68,
                "velocity": 64,
                "duration": 0.5977273,
                "tempo": 120.0
            },
            {
                "start_time": 23.2409091,
                "end_time": 23.8386364,
                "pitch": 68,
                "velocity": 64,
                "duration": 0.5977273,
                "tempo": 120.0
            },
            {
                "start_time": 10.0772727,
                "end_time": 23.8386364,
                "pitch": 78,
                "velocity": 64,
                "duration": 13.7613636,
                "tempo": 120.0
            },
            {
                "start_time": 22.2431818,
                "end_time": 24.6386364,
                "pitch": 76,
                "velocity": 64,
                "duration": 2.3954545,
                "tempo": 120.0
            },
            {
                "start_time": 23.8386364,
                "end_time": 24.6386364,
                "pitch": 76,
                "velocity": 64,
                "duration": 0.8,
                "tempo": 120.0
            },
            {
                "start_time": 24.6386364,
                "end_time": 25.0386364,
                "pitch": 71,
                "velocity": 64,
                "duration": 0.4,
                "tempo": 120.0
            },
            {
                "start_time": 25.0386364,
                "end_time": 25.4340909,
                "pitch": 73,
                "velocity": 64,
                "duration": 0.3954545,
                "tempo": 120.0
            },
            {
                "start_time": 25.4340909,
                "end_time": 25.8340909,
                "pitch": 74,
                "velocity": 64,
                "duration": 0.4,
                "tempo": 120.0
            },
            {
                "start_time": 25.0386364,
                "end_time": 26.6295455,
                "pitch": 76,
                "velocity": 64,
                "duration": 1.5909091,
                "tempo": 120.0
            },
            {
                "start_time": 25.8340909,
                "end_time": 26.6295455,
                "pitch": 76,
                "velocity": 64,
                "duration": 0.7954545,
                "tempo": 120.0
            },
            {
                "start_time": 19.4590909,
                "end_time": 27.2272727,
                "pitch": 44,
                "velocity": 64,
                "duration": 7.7681818,
                "tempo": 120.0
            },
            {
                "start_time": 26.6295455,
                "end_time": 27.2272727,
                "pitch": 73,
                "velocity": 64,
                "duration": 0.5977273,
                "tempo": 120.0
            },
            {
                "start_time": 26.6295455,
                "end_time": 27.2272727,
                "pitch": 73,
                "velocity": 64,
                "duration": 0.5977273,
                "tempo": 120.0
            },
            {
                "start_time": 27.2272727,
                "end_time": 27.8272727,
                "pitch": 81,
                "velocity": 64,
                "duration": 0.6,
                "tempo": 120.0
            },
            {
                "start_time": 27.8272727,
                "end_time": 28.2272727,
                "pitch": 81,
                "velocity": 64,
                "duration": 0.4,
                "tempo": 120.0
            },
            {
                "start_time": 21.45,
                "end_time": 28.6272727,
                "pitch": 79,
                "velocity": 64,
                "duration": 7.1772727,
                "tempo": 120.0
            },
            {
                "start_time": 28.2272727,
                "end_time": 28.6272727,
                "pitch": 79,
                "velocity": 64,
                "duration": 0.4,
                "tempo": 120.0
            },
            {
                "start_time": 23.8386364,
                "end_time": 29.0227273,
                "pitch": 78,
                "velocity": 64,
                "duration": 5.1840909,
                "tempo": 120.0
            },
            {
                "start_time": 28.6272727,
                "end_time": 29.0227273,
                "pitch": 78,
                "velocity": 64,
                "duration": 0.3954545,
                "tempo": 120.0
            },
            {
                "start_time": 29.0227273,
                "end_time": 29.4181818,
                "pitch": 79,
                "velocity": 64,
                "duration": 0.3954545,
                "tempo": 120.0
            },
            {
                "start_time": 28.6272727,
                "end_time": 29.4181818,
                "pitch": 91,
                "velocity": 64,
                "duration": 0.7909091,
                "tempo": 120.0
            },
            {
                "start_time": 29.4181818,
                "end_time": 29.6181818,
                "pitch": 78,
                "velocity": 64,
                "duration": 0.2,
                "tempo": 120.0
            },
            {
                "start_time": 22.6431818,
                "end_time": 30.2181818,
                "pitch": 57,
                "velocity": 64,
                "duration": 7.575,
                "tempo": 120.0
            },
            {
                "start_time": 29.6181818,
                "end_time": 30.2181818,
                "pitch": 76,
                "velocity": 64,
                "duration": 0.6,
                "tempo": 120.0
            },
            {
                "start_time": 29.6181818,
                "end_time": 30.2181818,
                "pitch": 76,
                "velocity": 64,
                "duration": 0.6,
                "tempo": 120.0
            },
            {
                "start_time": 30.2181818,
                "end_time": 31.4159091,
                "pitch": 71,
                "velocity": 64,
                "duration": 1.1977273,
                "tempo": 120.0
            },
            {
                "start_time": 31.4159091,
                "end_time": 32.2181818,
                "pitch": 73,
                "velocity": 64,
                "duration": 0.8022727,
                "tempo": 120.0
            },
            {
                "start_time": 27.2272727,
                "end_time": 33.8045455,
                "pitch": 44,
                "velocity": 64,
                "duration": 6.5772727,
                "tempo": 120.0
            },
            {
                "start_time": 32.2181818,
                "end_time": 33.8045455,
                "pitch": 74,
                "velocity": 64,
                "duration": 1.5863636,
                "tempo": 120.0
            },
            {
                "start_time": 33.8045455,
                "end_time": 34.6045455,
                "pitch": 69,
                "velocity": 64,
                "duration": 0.8,
                "tempo": 120.0
            },
            {
                "start_time": 34.6045455,
                "end_time": 35.4,
                "pitch": 71,
                "velocity": 64,
                "duration": 0.7954545,
                "tempo": 120.0
            },
            {
                "start_time": 35.4,
                "end_time": 38.1863636,
                "pitch": 69,
                "velocity": 64,
                "duration": 2.7863636,
                "tempo": 120.0
            },
            {
                "start_time": 31.4159091,
                "end_time": 38.1863636,
                "pitch": 76,
                "velocity": 64,
                "duration": 6.7704545,
                "tempo": 120.0
            },
            {
                "start_time": 38.1863636,
                "end_time": 38.5818182,
                "pitch": 73,
                "velocity": 64,
                "duration": 0.3954545,
                "tempo": 120.0
            },
            {
                "start_time": 38.5818182,
                "end_time": 40.5727273,
                "pitch": 78,
                "velocity": 64,
                "duration": 1.9909091,
                "tempo": 120.0
            },
            {
                "start_time": 38.5818182,
                "end_time": 40.5727273,
                "pitch": 78,
                "velocity": 64,
                "duration": 1.9909091,
                "tempo": 120.0
            },
            {
                "start_time": 40.5727273,
                "end_time": 40.9727273,
                "pitch": 75,
                "velocity": 64,
                "duration": 0.4,
                "tempo": 120.0
            },
            {
                "start_time": 40.5727273,
                "end_time": 40.9727273,
                "pitch": 75,
                "velocity": 64,
                "duration": 0.4,
                "tempo": 120.0
            },
            {
                "start_time": 38.1863636,
                "end_time": 41.3727273,
                "pitch": 76,
                "velocity": 64,
                "duration": 3.1863636,
                "tempo": 120.0
            },
            {
                "start_time": 40.9727273,
                "end_time": 41.3727273,
                "pitch": 76,
                "velocity": 64,
                "duration": 0.4,
                "tempo": 120.0
            },
            {
                "start_time": 41.3727273,
                "end_time": 41.7704545,
                "pitch": 78,
                "velocity": 64,
                "duration": 0.3977273,
                "tempo": 120.0
            },
            {
                "start_time": 41.3727273,
                "end_time": 41.7704545,
                "pitch": 78,
                "velocity": 64,
                "duration": 0.3977273,
                "tempo": 120.0
            },
            {
                "start_time": 41.7704545,
                "end_time": 42.1704545,
                "pitch": 76,
                "velocity": 64,
                "duration": 0.4,
                "tempo": 120.0
            },
            {
                "start_time": 41.7704545,
                "end_time": 42.1704545,
                "pitch": 76,
                "velocity": 64,
                "duration": 0.4,
                "tempo": 120.0
            },
            {
                "start_time": 42.1704545,
                "end_time": 42.3704545,
                "pitch": 75,
                "velocity": 64,
                "duration": 0.2,
                "tempo": 120.0
            },
            {
                "start_time": 42.3704545,
                "end_time": 43.7659091,
                "pitch": 73,
                "velocity": 64,
                "duration": 1.3954545,
                "tempo": 120.0
            },
            {
                "start_time": 43.7659091,
                "end_time": 44.1659091,
                "pitch": 73,
                "velocity": 64,
                "duration": 0.4,
                "tempo": 120.0
            },
            {
                "start_time": 44.1659091,
                "end_time": 44.5613636,
                "pitch": 75,
                "velocity": 64,
                "duration": 0.3954545,
                "tempo": 120.0
            },
            {
                "start_time": 30.2181818,
                "end_time": 44.9613636,
                "pitch": 57,
                "velocity": 64,
                "duration": 14.7431818,
                "tempo": 120.0
            },
            {
                "start_time": 44.5613636,
                "end_time": 44.9613636,
                "pitch": 76,
                "velocity": 64,
                "duration": 0.4,
                "tempo": 120.0
            },
            {
                "start_time": 44.9613636,
                "end_time": 46.9545455,
                "pitch": 71,
                "velocity": 64,
                "duration": 1.9931818,
                "tempo": 120.0
            },
            {
                "start_time": 46.9545455,
                "end_time": 47.1545455,
                "pitch": 68,
                "velocity": 64,
                "duration": 0.2,
                "tempo": 120.0
            },
            {
                "start_time": 46.9545455,
                "end_time": 47.1545455,
                "pitch": 68,
                "velocity": 64,
                "duration": 0.2,
                "tempo": 120.0
            },
            {
                "start_time": 47.1545455,
                "end_time": 47.3545455,
                "pitch": 70,
                "velocity": 64,
                "duration": 0.2,
                "tempo": 120.0
            },
            {
                "start_time": 47.3545455,
                "end_time": 47.7477273,
                "pitch": 71,
                "velocity": 64,
                "duration": 0.3931818,
                "tempo": 120.0
            },
            {
                "start_time": 47.7477273,
                "end_time": 48.1431818,
                "pitch": 75,
                "velocity": 64,
                "duration": 0.3954545,
                "tempo": 120.0
            },
            {
                "start_time": 48.1431818,
                "end_time": 48.7431818,
                "pitch": 73,
                "velocity": 64,
                "duration": 0.6,
                "tempo": 120.0
            },
            {
                "start_time": 48.7431818,
                "end_time": 49.3431818,
                "pitch": 70,
                "velocity": 64,
                "duration": 0.6,
                "tempo": 120.0
            },
            {
                "start_time": 49.3431818,
                "end_time": 50.1386364,
                "pitch": 78,
                "velocity": 64,
                "duration": 0.7954545,
                "tempo": 120.0
            },
            {
                "start_time": 50.1386364,
                "end_time": 50.1409091,
                "pitch": 73,
                "velocity": 64,
                "duration": 0.0022727,
                "tempo": 120.0
            },
            {
                "start_time": 50.1409091,
                "end_time": 50.5409091,
                "pitch": 73,
                "velocity": 64,
                "duration": 0.4,
                "tempo": 120.0
            },
            {
                "start_time": 50.5409091,
                "end_time": 50.9363636,
                "pitch": 75,
                "velocity": 64,
                "duration": 0.3954545,
                "tempo": 120.0
            },
            {
                "start_time": 50.9363636,
                "end_time": 51.3318182,
                "pitch": 76,
                "velocity": 64,
                "duration": 0.3954545,
                "tempo": 120.0
            },
            {
                "start_time": 51.3318182,
                "end_time": 52.1318182,
                "pitch": 78,
                "velocity": 64,
                "duration": 0.8,
                "tempo": 120.0
            },
            {
                "start_time": 51.3318182,
                "end_time": 52.1318182,
                "pitch": 78,
                "velocity": 64,
                "duration": 0.8,
                "tempo": 120.0
            },
            {
                "start_time": 44.9613636,
                "end_time": 52.7295455,
                "pitch": 57,
                "velocity": 64,
                "duration": 7.7681818,
                "tempo": 120.0
            },
            {
                "start_time": 52.1318182,
                "end_time": 52.7295455,
                "pitch": 75,
                "velocity": 64,
                "duration": 0.5977273,
                "tempo": 120.0
            },
            {
                "start_time": 52.1318182,
                "end_time": 52.7295455,
                "pitch": 75,
                "velocity": 64,
                "duration": 0.5977273,
                "tempo": 120.0
            },
            {
                "start_time": 52.7295455,
                "end_time": 53.3227273,
                "pitch": 83,
                "velocity": 64,
                "duration": 0.5931818,
                "tempo": 120.0
            },
            {
                "start_time": 53.3227273,
                "end_time": 53.7204545,
                "pitch": 83,
                "velocity": 64,
                "duration": 0.3977273,
                "tempo": 120.0
            },
            {
                "start_time": 53.7204545,
                "end_time": 54.1204545,
                "pitch": 81,
                "velocity": 64,
                "duration": 0.4,
                "tempo": 120.0
            },
            {
                "start_time": 53.7204545,
                "end_time": 54.1204545,
                "pitch": 81,
                "velocity": 64,
                "duration": 0.4,
                "tempo": 120.0
            },
            {
                "start_time": 54.1204545,
                "end_time": 54.5181818,
                "pitch": 80,
                "velocity": 64,
                "duration": 0.3977273,
                "tempo": 120.0
            },
            {
                "start_time": 54.5181818,
                "end_time": 54.9159091,
                "pitch": 81,
                "velocity": 64,
                "duration": 0.3977273,
                "tempo": 120.0
            },
            {
                "start_time": 54.9159091,
                "end_time": 55.1159091,
                "pitch": 80,
                "velocity": 64,
                "duration": 0.2,
                "tempo": 120.0
            },
            {
                "start_time": 29.4181818,
                "end_time": 55.1159091,
                "pitch": 91,
                "velocity": 64,
                "duration": 25.6977273,
                "tempo": 120.0
            },
            {
                "start_time": 55.1159091,
                "end_time": 55.7159091,
                "pitch": 78,
                "velocity": 64,
                "duration": 0.6,
                "tempo": 120.0
            },
            {
                "start_time": 55.7159091,
                "end_time": 56.9090909,
                "pitch": 73,
                "velocity": 64,
                "duration": 1.1931818,
                "tempo": 120.0
            },
            {
                "start_time": 55.7159091,
                "end_time": 56.9090909,
                "pitch": 73,
                "velocity": 64,
                "duration": 1.1931818,
                "tempo": 120.0
            },
            {
                "start_time": 56.9090909,
                "end_time": 57.7090909,
                "pitch": 75,
                "velocity": 64,
                "duration": 0.8,
                "tempo": 120.0
            },
            {
                "start_time": 57.7090909,
                "end_time": 59.3022727,
                "pitch": 76,
                "velocity": 64,
                "duration": 1.5931818,
                "tempo": 120.0
            },
            {
                "start_time": 59.3022727,
                "end_time": 60.1,
                "pitch": 71,
                "velocity": 64,
                "duration": 0.7977273,
                "tempo": 120.0
            },
            {
                "start_time": 52.7295455,
                "end_time": 60.8909091,
                "pitch": 57,
                "velocity": 64,
                "duration": 8.1613636,
                "tempo": 120.0
            },
            {
                "start_time": 60.1,
                "end_time": 60.8909091,
                "pitch": 73,
                "velocity": 64,
                "duration": 0.7909091,
                "tempo": 120.0
            },
            {
                "start_time": 60.8909091,
                "end_time": 62.2886364,
                "pitch": 71,
                "velocity": 64,
                "duration": 1.3977273,
                "tempo": 120.0
            },
            {
                "start_time": 60.8909091,
                "end_time": 62.3886364,
                "pitch": 57,
                "velocity": 64,
                "duration": 1.4977273,
                "tempo": 120.0
            },
            {
                "start_time": 62.2886364,
                "end_time": 62.3886364,
                "pitch": 73,
                "velocity": 64,
                "duration": 0.1,
                "tempo": 120.0
            },
            {
                "start_time": 62.3886364,
                "end_time": 63.8795455,
                "pitch": 71,
                "velocity": 64,
                "duration": 1.4909091,
                "tempo": 120.0
            }
        ],
        "Harpsichord": [
            {
                "start_time": 76.4454545,
                "end_time": 76.8477273,
                "pitch": 69,
                "velocity": 64,
                "duration": 0.4022727,
                "tempo": 120.0
            },
            {
                "start_time": 76.8477273,
                "end_time": 78.0477273,
                "pitch": 70,
                "velocity": 64,
                "duration": 1.2,
                "tempo": 120.0
            },
            {
                "start_time": 78.0477273,
                "end_time": 78.2477273,
                "pitch": 72,
                "velocity": 64,
                "duration": 0.2,
                "tempo": 120.0
            },
            {
                "start_time": 78.2477273,
                "end_time": 78.85,
                "pitch": 74,
                "velocity": 64,
                "duration": 0.6022727,
                "tempo": 120.0
            },
            {
                "start_time": 78.85,
                "end_time": 79.2454545,
                "pitch": 74,
                "velocity": 64,
                "duration": 0.3954545,
                "tempo": 120.0
            },
            {
                "start_time": 79.2454545,
                "end_time": 79.6409091,
                "pitch": 72,
                "velocity": 64,
                "duration": 0.3954545,
                "tempo": 120.0
            },
            {
                "start_time": 79.6409091,
                "end_time": 80.0409091,
                "pitch": 70,
                "velocity": 64,
                "duration": 0.4,
                "tempo": 120.0
            },
            {
                "start_time": 80.0409091,
                "end_time": 80.4409091,
                "pitch": 70,
                "velocity": 64,
                "duration": 0.4,
                "tempo": 120.0
            },
            {
                "start_time": 80.4409091,
                "end_time": 80.6386364,
                "pitch": 67,
                "velocity": 64,
                "duration": 0.1977273,
                "tempo": 120.0
            },
            {
                "start_time": 80.4409091,
                "end_time": 80.6386364,
                "pitch": 67,
                "velocity": 64,
                "duration": 0.1977273,
                "tempo": 120.0
            },
            {
                "start_time": 80.6386364,
                "end_time": 82.6340909,
                "pitch": 63,
                "velocity": 64,
                "duration": 1.9954545,
                "tempo": 120.0
            },
            {
                "start_time": 82.6340909,
                "end_time": 82.8318182,
                "pitch": 70,
                "velocity": 64,
                "duration": 0.1977273,
                "tempo": 120.0
            },
            {
                "start_time": 82.8318182,
                "end_time": 83.0318182,
                "pitch": 69,
                "velocity": 64,
                "duration": 0.2,
                "tempo": 120.0
            },
            {
                "start_time": 83.0318182,
                "end_time": 83.2318182,
                "pitch": 67,
                "velocity": 64,
                "duration": 0.2,
                "tempo": 120.0
            },
            {
                "start_time": 82.6340909,
                "end_time": 83.8340909,
                "pitch": 39,
                "velocity": 64,
                "duration": 1.2,
                "tempo": 120.0
            },
            {
                "start_time": 83.2318182,
                "end_time": 83.8340909,
                "pitch": 66,
                "velocity": 64,
                "duration": 0.6022727,
                "tempo": 120.0
            },
            {
                "start_time": 83.8340909,
                "end_time": 84.4340909,
                "pitch": 70,
                "velocity": 64,
                "duration": 0.6,
                "tempo": 120.0
            },
            {
                "start_time": 78.0477273,
                "end_time": 84.4340909,
                "pitch": 76,
                "velocity": 64,
                "duration": 6.3863636,
                "tempo": 120.0
            },
            {
                "start_time": 84.4340909,
                "end_time": 85.2340909,
                "pitch": 73,
                "velocity": 64,
                "duration": 0.8,
                "tempo": 120.0
            },
            {
                "start_time": 85.2340909,
                "end_time": 85.4340909,
                "pitch": 70,
                "velocity": 64,
                "duration": 0.2,
                "tempo": 120.0
            },
            {
                "start_time": 84.4340909,
                "end_time": 85.4340909,
                "pitch": 76,
                "velocity": 64,
                "duration": 1.0,
                "tempo": 120.0
            },
            {
                "start_time": 85.4340909,
                "end_time": 86.0318182,
                "pitch": 72,
                "velocity": 64,
                "duration": 0.5977273,
                "tempo": 120.0
            },
            {
                "start_time": 86.0318182,
                "end_time": 86.4272727,
                "pitch": 73,
                "velocity": 64,
                "duration": 0.3954545,
                "tempo": 120.0
            },
            {
                "start_time": 86.4272727,
                "end_time": 87.8295455,
                "pitch": 72,
                "velocity": 64,
                "duration": 1.4022727,
                "tempo": 120.0
            },
            {
                "start_time": 87.8295455,
                "end_time": 88.0295455,
                "pitch": 68,
                "velocity": 64,
                "duration": 0.2,
                "tempo": 120.0
            },
            {
                "start_time": 88.0295455,
                "end_time": 88.6204545,
                "pitch": 69,
                "velocity": 64,
                "duration": 0.5909091,
                "tempo": 120.0
            },
            {
                "start_time": 88.6204545,
                "end_time": 88.8204545,
                "pitch": 69,
                "velocity": 64,
                "duration": 0.2,
                "tempo": 120.0
            },
            {
                "start_time": 88.8204545,
                "end_time": 89.0204545,
                "pitch": 65,
                "velocity": 64,
                "duration": 0.2,
                "tempo": 120.0
            },
            {
                "start_time": 89.0204545,
                "end_time": 89.2227273,
                "pitch": 72,
                "velocity": 64,
                "duration": 0.2022727,
                "tempo": 120.0
            },
            {
                "start_time": 89.2227273,
                "end_time": 89.4227273,
                "pitch": 73,
                "velocity": 64,
                "duration": 0.2,
                "tempo": 120.0
            },
            {
                "start_time": 79.6409091,
                "end_time": 89.6227273,
                "pitch": 52,
                "velocity": 64,
                "duration": 9.9818182,
                "tempo": 120.0
            },
            {
                "start_time": 89.4227273,
                "end_time": 89.6227273,
                "pitch": 72,
                "velocity": 64,
                "duration": 0.2,
                "tempo": 120.0
            },
            {
                "start_time": 89.6227273,
                "end_time": 89.8227273,
                "pitch": 70,
                "velocity": 64,
                "duration": 0.2,
                "tempo": 120.0
            },
            {
                "start_time": 89.8227273,
                "end_time": 90.0227273,
                "pitch": 65,
                "velocity": 64,
                "duration": 0.2,
                "tempo": 120.0
            },
            {
                "start_time": 90.0227273,
                "end_time": 90.2227273,
                "pitch": 73,
                "velocity": 64,
                "duration": 0.2,
                "tempo": 120.0
            },
            {
                "start_time": 90.2227273,
                "end_time": 90.6227273,
                "pitch": 72,
                "velocity": 64,
                "duration": 0.4,
                "tempo": 120.0
            },
            {
                "start_time": 90.6227273,
                "end_time": 91.0227273,
                "pitch": 70,
                "velocity": 64,
                "duration": 0.4,
                "tempo": 120.0
            },
            {
                "start_time": 91.0227273,
                "end_time": 91.425,
                "pitch": 73,
                "velocity": 64,
                "duration": 0.4022727,
                "tempo": 120.0
            },
            {
                "start_time": 80.6386364,
                "end_time": 91.425,
                "pitch": 77,
                "velocity": 64,
                "duration": 10.7863636,
                "tempo": 120.0
            },
            {
                "start_time": 90.0227273,
                "end_time": 91.625,
                "pitch": 61,
                "velocity": 64,
                "duration": 1.6022727,
                "tempo": 120.0
            },
            {
                "start_time": 91.425,
                "end_time": 91.625,
                "pitch": 65,
                "velocity": 64,
                "duration": 0.2,
                "tempo": 120.0
            },
            {
                "start_time": 91.625,
                "end_time": 91.8227273,
                "pitch": 73,
                "velocity": 64,
                "duration": 0.1977273,
                "tempo": 120.0
            },
            {
                "start_time": 91.8227273,
                "end_time": 92.2136364,
                "pitch": 72,
                "velocity": 64,
                "duration": 0.3909091,
                "tempo": 120.0
            },
            {
                "start_time": 92.2136364,
                "end_time": 92.4159091,
                "pitch": 70,
                "velocity": 64,
                "duration": 0.2022727,
                "tempo": 120.0
            },
            {
                "start_time": 92.4159091,
                "end_time": 92.6159091,
                "pitch": 72,
                "velocity": 64,
                "duration": 0.2,
                "tempo": 120.0
            },
            {
                "start_time": 92.6159091,
                "end_time": 92.8159091,
                "pitch": 73,
                "velocity": 64,
                "duration": 0.2,
                "tempo": 120.0
            },
            {
                "start_time": 91.425,
                "end_time": 92.8159091,
                "pitch": 77,
                "velocity": 64,
                "duration": 1.3909091,
                "tempo": 120.0
            },
            {
                "start_time": 92.8159091,
                "end_time": 94.2159091,
                "pitch": 77,
                "velocity": 64,
                "duration": 1.4,
                "tempo": 120.0
            },
            {
                "start_time": 92.8159091,
                "end_time": 94.2159091,
                "pitch": 77,
                "velocity": 64,
                "duration": 1.4,
                "tempo": 120.0
            },
            {
                "start_time": 94.2159091,
                "end_time": 94.4159091,
                "pitch": 72,
                "velocity": 64,
                "duration": 0.2,
                "tempo": 120.0
            },
            {
                "start_time": 94.2159091,
                "end_time": 94.4159091,
                "pitch": 72,
                "velocity": 64,
                "duration": 0.2,
                "tempo": 120.0
            },
            {
                "start_time": 94.4159091,
                "end_time": 95.6068182,
                "pitch": 69,
                "velocity": 64,
                "duration": 1.1909091,
                "tempo": 120.0
            },
            {
                "start_time": 85.4340909,
                "end_time": 95.6068182,
                "pitch": 76,
                "velocity": 64,
                "duration": 10.1727273,
                "tempo": 120.0
            },
            {
                "start_time": 95.6068182,
                "end_time": 96.0090909,
                "pitch": 72,
                "velocity": 64,
                "duration": 0.4022727,
                "tempo": 120.0
            },
            {
                "start_time": 96.0090909,
                "end_time": 96.6090909,
                "pitch": 73,
                "velocity": 64,
                "duration": 0.6,
                "tempo": 120.0
            },
            {
                "start_time": 96.6090909,
                "end_time": 96.8090909,
                "pitch": 70,
                "velocity": 64,
                "duration": 0.2,
                "tempo": 120.0
            },
            {
                "start_time": 95.6068182,
                "end_time": 96.8090909,
                "pitch": 76,
                "velocity": 64,
                "duration": 1.2022727,
                "tempo": 120.0
            },
            {
                "start_time": 89.6227273,
                "end_time": 97.2090909,
                "pitch": 52,
                "velocity": 64,
                "duration": 7.5863636,
                "tempo": 120.0
            },
            {
                "start_time": 96.8090909,
                "end_time": 97.2090909,
                "pitch": 72,
                "velocity": 64,
                "duration": 0.4,
                "tempo": 120.0
            },
            {
                "start_time": 97.2090909,
                "end_time": 97.6090909,
                "pitch": 70,
                "velocity": 64,
                "duration": 0.4,
                "tempo": 120.0
            },
            {
                "start_time": 89.0204545,
                "end_time": 98.4068182,
                "pitch": 60,
                "velocity": 64,
                "duration": 9.3863636,
                "tempo": 120.0
            },
            {
                "start_time": 97.6090909,
                "end_time": 98.4068182,
                "pitch": 66,
                "velocity": 64,
                "duration": 0.7977273,
                "tempo": 120.0
            },
            {
                "start_time": 98.4068182,
                "end_time": 98.8022727,
                "pitch": 72,
                "velocity": 64,
                "duration": 0.3954545,
                "tempo": 120.0
            },
            {
                "start_time": 98.8022727,
                "end_time": 99.2022727,
                "pitch": 73,
                "velocity": 64,
                "duration": 0.4,
                "tempo": 120.0
            },
            {
                "start_time": 99.2022727,
                "end_time": 100.8045455,
                "pitch": 75,
                "velocity": 64,
                "duration": 1.6022727,
                "tempo": 120.0
            },
            {
                "start_time": 100.8045455,
                "end_time": 101.5954545,
                "pitch": 75,
                "velocity": 64,
                "duration": 0.7909091,
                "tempo": 120.0
            },
            {
                "start_time": 101.5954545,
                "end_time": 101.9954545,
                "pitch": 72,
                "velocity": 64,
                "duration": 0.4,
                "tempo": 120.0
            },
            {
                "start_time": 101.5954545,
                "end_time": 101.9954545,
                "pitch": 72,
                "velocity": 64,
                "duration": 0.4,
                "tempo": 120.0
            }
        ],
        "Electric Piano 1": [
            {
                "start_time": 0.0931818,
                "end_time": 2.0863636,
                "pitch": 33,
                "velocity": 127,
                "duration": 1.9931818,
                "tempo": 120.0
            },
            {
                "start_time": 2.0863636,
                "end_time": 2.2909091,
                "pitch": 33,
                "velocity": 127,
                "duration": 0.2045455,
                "tempo": 120.0
            },
            {
                "start_time": 2.6909091,
                "end_time": 2.8863636,
                "pitch": 33,
                "velocity": 127,
                "duration": 0.1954545,
                "tempo": 120.0
            },
            {
                "start_time": 3.2954545,
                "end_time": 5.2818182,
                "pitch": 31,
                "velocity": 127,
                "duration": 1.9863636,
                "tempo": 120.0
            },
            {
                "start_time": 5.2818182,
                "end_time": 5.4840909,
                "pitch": 31,
                "velocity": 127,
                "duration": 0.2022727,
                "tempo": 120.0
            },
            {
                "start_time": 5.8727273,
                "end_time": 6.0636364,
                "pitch": 31,
                "velocity": 127,
                "duration": 0.1909091,
                "tempo": 120.0
            },
            {
                "start_time": 6.0636364,
                "end_time": 6.2681818,
                "pitch": 43,
                "velocity": 127,
                "duration": 0.2045455,
                "tempo": 120.0
            },
            {
                "start_time": 6.2681818,
                "end_time": 6.475,
                "pitch": 31,
                "velocity": 127,
                "duration": 0.2068182,
                "tempo": 120.0
            },
            {
                "start_time": 6.475,
                "end_time": 8.475,
                "pitch": 30,
                "velocity": 127,
                "duration": 2.0,
                "tempo": 120.0
            },
            {
                "start_time": 8.475,
                "end_time": 8.675,
                "pitch": 30,
                "velocity": 127,
                "duration": 0.2,
                "tempo": 120.0
            },
            {
                "start_time": 9.0704545,
                "end_time": 9.2659091,
                "pitch": 30,
                "velocity": 127,
                "duration": 0.1954545,
                "tempo": 120.0
            },
            {
                "start_time": 9.4659091,
                "end_time": 9.6681818,
                "pitch": 30,
                "velocity": 127,
                "duration": 0.2022727,
                "tempo": 120.0
            },
            {
                "start_time": 9.6681818,
                "end_time": 11.4659091,
                "pitch": 28,
                "velocity": 127,
                "duration": 1.7977273,
                "tempo": 120.0
            },
            {
                "start_time": 11.4659091,
                "end_time": 11.6704545,
                "pitch": 28,
                "velocity": 127,
                "duration": 0.2045455,
                "tempo": 120.0
            },
            {
                "start_time": 11.6704545,
                "end_time": 11.8704545,
                "pitch": 28,
                "velocity": 127,
                "duration": 0.2,
                "tempo": 120.0
            },
            {
                "start_time": 11.8704545,
                "end_time": 12.0727273,
                "pitch": 28,
                "velocity": 127,
                "duration": 0.2022727,
                "tempo": 120.0
            },
            {
                "start_time": 12.0727273,
                "end_time": 12.2727273,
                "pitch": 28,
                "velocity": 127,
                "duration": 0.2,
                "tempo": 120.0
            },
            {
                "start_time": 12.2727273,
                "end_time": 12.4727273,
                "pitch": 28,
                "velocity": 127,
                "duration": 0.2,
                "tempo": 120.0
            },
            {
                "start_time": 12.4727273,
                "end_time": 12.675,
                "pitch": 28,
                "velocity": 127,
                "duration": 0.2022727,
                "tempo": 120.0
            },
            {
                "start_time": 12.675,
                "end_time": 12.875,
                "pitch": 28,
                "velocity": 127,
                "duration": 0.2,
                "tempo": 120.0
            },
            {
                "start_time": 12.875,
                "end_time": 13.075,
                "pitch": 33,
                "velocity": 127,
                "duration": 0.2,
                "tempo": 120.0
            },
            {
                "start_time": 13.4681818,
                "end_time": 14.0659091,
                "pitch": 33,
                "velocity": 127,
                "duration": 0.5977273,
                "tempo": 120.0
            },
            {
                "start_time": 14.0659091,
                "end_time": 14.2659091,
                "pitch": 28,
                "velocity": 127,
                "duration": 0.2,
                "tempo": 120.0
            },
            {
                "start_time": 14.2659091,
                "end_time": 14.4681818,
                "pitch": 28,
                "velocity": 127,
                "duration": 0.2022727,
                "tempo": 120.0
            },
            {
                "start_time": 14.4681818,
                "end_time": 14.6659091,
                "pitch": 33,
                "velocity": 127,
                "duration": 0.1977273,
                "tempo": 120.0
            },
            {
                "start_time": 15.0659091,
                "end_time": 15.4681818,
                "pitch": 33,
                "velocity": 127,
                "duration": 0.4022727,
                "tempo": 120.0
            },
            {
                "start_time": 15.4681818,
                "end_time": 15.6681818,
                "pitch": 33,
                "velocity": 127,
                "duration": 0.2,
                "tempo": 120.0
            },
            {
                "start_time": 15.6681818,
                "end_time": 15.8704545,
                "pitch": 32,
                "velocity": 127,
                "duration": 0.2022727,
                "tempo": 120.0
            },
            {
                "start_time": 15.8704545,
                "end_time": 16.0704545,
                "pitch": 32,
                "velocity": 127,
                "duration": 0.2,
                "tempo": 120.0
            },
            {
                "start_time": 16.0704545,
                "end_time": 16.4613636,
                "pitch": 31,
                "velocity": 127,
                "duration": 0.3909091,
                "tempo": 120.0
            },
            {
                "start_time": 16.4613636,
                "end_time": 16.5613636,
                "pitch": 43,
                "velocity": 127,
                "duration": 0.1,
                "tempo": 120.0
            },
            {
                "start_time": 16.6613636,
                "end_time": 16.8636364,
                "pitch": 31,
                "velocity": 127,
                "duration": 0.2022727,
                "tempo": 120.0
            },
            {
                "start_time": 17.4613636,
                "end_time": 17.6590909,
                "pitch": 26,
                "velocity": 127,
                "duration": 0.1977273,
                "tempo": 120.0
            },
            {
                "start_time": 17.6613636,
                "end_time": 18.0613636,
                "pitch": 31,
                "velocity": 127,
                "duration": 0.4,
                "tempo": 120.0
            },
            {
                "start_time": 18.0613636,
                "end_time": 18.1613636,
                "pitch": 31,
                "velocity": 127,
                "duration": 0.1,
                "tempo": 120.0
            },
            {
                "start_time": 18.2613636,
                "end_time": 18.4613636,
                "pitch": 31,
                "velocity": 127,
                "duration": 0.2,
                "tempo": 120.0
            },
            {
                "start_time": 18.6613636,
                "end_time": 18.8613636,
                "pitch": 31,
                "velocity": 127,
                "duration": 0.2,
                "tempo": 120.0
            },
            {
                "start_time": 18.8613636,
                "end_time": 19.0613636,
                "pitch": 26,
                "velocity": 127,
                "duration": 0.2,
                "tempo": 120.0
            },
            {
                "start_time": 19.0613636,
                "end_time": 19.2613636,
                "pitch": 26,
                "velocity": 127,
                "duration": 0.2,
                "tempo": 120.0
            },
            {
                "start_time": 19.2613636,
                "end_time": 19.8545455,
                "pitch": 30,
                "velocity": 127,
                "duration": 0.5931818,
                "tempo": 120.0
            },
            {
                "start_time": 19.2613636,
                "end_time": 19.8545455,
                "pitch": 30,
                "velocity": 127,
                "duration": 0.5931818,
                "tempo": 120.0
            },
            {
                "start_time": 19.8545455,
                "end_time": 20.05,
                "pitch": 30,
                "velocity": 127,
                "duration": 0.1954545,
                "tempo": 120.0
            },
            {
                "start_time": 20.65,
                "end_time": 21.05,
                "pitch": 30,
                "velocity": 127,
                "duration": 0.4,
                "tempo": 120.0
            },
            {
                "start_time": 21.05,
                "end_time": 21.45,
                "pitch": 30,
                "velocity": 127,
                "duration": 0.4,
                "tempo": 120.0
            },
            {
                "start_time": 21.45,
                "end_time": 21.65,
                "pitch": 30,
                "velocity": 127,
                "duration": 0.2,
                "tempo": 120.0
            },
            {
                "start_time": 21.65,
                "end_time": 21.85,
                "pitch": 30,
                "velocity": 127,
                "duration": 0.2,
                "tempo": 120.0
            },
            {
                "start_time": 22.2454545,
                "end_time": 22.4409091,
                "pitch": 30,
                "velocity": 127,
                "duration": 0.1954545,
                "tempo": 120.0
            },
            {
                "start_time": 22.4409091,
                "end_time": 22.85,
                "pitch": 28,
                "velocity": 127,
                "duration": 0.4090909,
                "tempo": 120.0
            },
            {
                "start_time": 22.85,
                "end_time": 23.0454545,
                "pitch": 28,
                "velocity": 127,
                "duration": 0.1954545,
                "tempo": 120.0
            },
            {
                "start_time": 23.0454545,
                "end_time": 23.2409091,
                "pitch": 40,
                "velocity": 127,
                "duration": 0.1954545,
                "tempo": 120.0
            },
            {
                "start_time": 23.6386364,
                "end_time": 23.8386364,
                "pitch": 28,
                "velocity": 127,
                "duration": 0.2,
                "tempo": 120.0
            },
            {
                "start_time": 24.2386364,
                "end_time": 24.4386364,
                "pitch": 28,
                "velocity": 127,
                "duration": 0.2,
                "tempo": 120.0
            },
            {
                "start_time": 24.4386364,
                "end_time": 24.6386364,
                "pitch": 28,
                "velocity": 127,
                "duration": 0.2,
                "tempo": 120.0
            },
            {
                "start_time": 24.6386364,
                "end_time": 24.8409091,
                "pitch": 40,
                "velocity": 127,
                "duration": 0.2022727,
                "tempo": 120.0
            },
            {
                "start_time": 24.8409091,
                "end_time": 25.0386364,
                "pitch": 40,
                "velocity": 127,
                "duration": 0.1977273,
                "tempo": 120.0
            },
            {
                "start_time": 25.0386364,
                "end_time": 25.2386364,
                "pitch": 28,
                "velocity": 127,
                "duration": 0.2,
                "tempo": 120.0
            },
            {
                "start_time": 25.2386364,
                "end_time": 25.4340909,
                "pitch": 28,
                "velocity": 127,
                "duration": 0.1954545,
                "tempo": 120.0
            },
            {
                "start_time": 25.4340909,
                "end_time": 25.6295455,
                "pitch": 40,
                "velocity": 127,
                "duration": 0.1954545,
                "tempo": 120.0
            },
            {
                "start_time": 25.6295455,
                "end_time": 25.8340909,
                "pitch": 33,
                "velocity": 127,
                "duration": 0.2045455,
                "tempo": 120.0
            },
            {
                "start_time": 26.2340909,
                "end_time": 26.8295455,
                "pitch": 33,
                "velocity": 127,
                "duration": 0.5954545,
                "tempo": 120.0
            },
            {
                "start_time": 26.8295455,
                "end_time": 27.0272727,
                "pitch": 28,
                "velocity": 127,
                "duration": 0.1977273,
                "tempo": 120.0
            },
            {
                "start_time": 27.0272727,
                "end_time": 27.2272727,
                "pitch": 28,
                "velocity": 127,
                "duration": 0.2,
                "tempo": 120.0
            },
            {
                "start_time": 27.2272727,
                "end_time": 27.4272727,
                "pitch": 33,
                "velocity": 127,
                "duration": 0.2,
                "tempo": 120.0
            },
            {
                "start_time": 27.8272727,
                "end_time": 28.2272727,
                "pitch": 33,
                "velocity": 127,
                "duration": 0.4,
                "tempo": 120.0
            },
            {
                "start_time": 28.2295455,
                "end_time": 28.4295455,
                "pitch": 33,
                "velocity": 127,
                "duration": 0.2,
                "tempo": 120.0
            },
            {
                "start_time": 28.4295455,
                "end_time": 28.6295455,
                "pitch": 32,
                "velocity": 127,
                "duration": 0.2,
                "tempo": 120.0
            },
            {
                "start_time": 28.6295455,
                "end_time": 28.8272727,
                "pitch": 32,
                "velocity": 127,
                "duration": 0.1977273,
                "tempo": 120.0
            },
            {
                "start_time": 28.8272727,
                "end_time": 29.2181818,
                "pitch": 31,
                "velocity": 127,
                "duration": 0.3909091,
                "tempo": 120.0
            },
            {
                "start_time": 29.2181818,
                "end_time": 29.3181818,
                "pitch": 43,
                "velocity": 127,
                "duration": 0.1,
                "tempo": 120.0
            },
            {
                "start_time": 29.4181818,
                "end_time": 29.6181818,
                "pitch": 31,
                "velocity": 127,
                "duration": 0.2,
                "tempo": 120.0
            },
            {
                "start_time": 30.2181818,
                "end_time": 30.4181818,
                "pitch": 26,
                "velocity": 127,
                "duration": 0.2,
                "tempo": 120.0
            },
            {
                "start_time": 30.4181818,
                "end_time": 30.8159091,
                "pitch": 31,
                "velocity": 127,
                "duration": 0.3977273,
                "tempo": 120.0
            },
            {
                "start_time": 30.8159091,
                "end_time": 30.9159091,
                "pitch": 31,
                "velocity": 127,
                "duration": 0.1,
                "tempo": 120.0
            },
            {
                "start_time": 31.0181818,
                "end_time": 31.2181818,
                "pitch": 31,
                "velocity": 127,
                "duration": 0.2,
                "tempo": 120.0
            },
            {
                "start_time": 31.4181818,
                "end_time": 31.6159091,
                "pitch": 31,
                "velocity": 127,
                "duration": 0.1977273,
                "tempo": 120.0
            },
            {
                "start_time": 18.8613636,
                "end_time": 31.6159091,
                "pitch": 41,
                "velocity": 127,
                "duration": 12.7545455,
                "tempo": 120.0
            },
            {
                "start_time": 31.6159091,
                "end_time": 31.8181818,
                "pitch": 26,
                "velocity": 127,
                "duration": 0.2022727,
                "tempo": 120.0
            },
            {
                "start_time": 31.8181818,
                "end_time": 32.0181818,
                "pitch": 26,
                "velocity": 127,
                "duration": 0.2,
                "tempo": 120.0
            },
            {
                "start_time": 32.0181818,
                "end_time": 32.6113636,
                "pitch": 30,
                "velocity": 127,
                "duration": 0.5931818,
                "tempo": 120.0
            },
            {
                "start_time": 32.0181818,
                "end_time": 32.6113636,
                "pitch": 30,
                "velocity": 127,
                "duration": 0.5931818,
                "tempo": 120.0
            },
            {
                "start_time": 32.6113636,
                "end_time": 32.8068182,
                "pitch": 30,
                "velocity": 127,
                "duration": 0.1954545,
                "tempo": 120.0
            },
            {
                "start_time": 33.4068182,
                "end_time": 33.8068182,
                "pitch": 30,
                "velocity": 127,
                "duration": 0.4,
                "tempo": 120.0
            },
            {
                "start_time": 33.8068182,
                "end_time": 34.2068182,
                "pitch": 30,
                "velocity": 127,
                "duration": 0.4,
                "tempo": 120.0
            },
            {
                "start_time": 34.2068182,
                "end_time": 34.4045455,
                "pitch": 30,
                "velocity": 127,
                "duration": 0.1977273,
                "tempo": 120.0
            },
            {
                "start_time": 34.4045455,
                "end_time": 34.6045455,
                "pitch": 30,
                "velocity": 127,
                "duration": 0.2,
                "tempo": 120.0
            },
            {
                "start_time": 35.0,
                "end_time": 35.1954545,
                "pitch": 30,
                "velocity": 127,
                "duration": 0.1954545,
                "tempo": 120.0
            },
            {
                "start_time": 35.1954545,
                "end_time": 35.6045455,
                "pitch": 28,
                "velocity": 127,
                "duration": 0.4090909,
                "tempo": 120.0
            },
            {
                "start_time": 35.6045455,
                "end_time": 35.8,
                "pitch": 28,
                "velocity": 127,
                "duration": 0.1954545,
                "tempo": 120.0
            },
            {
                "start_time": 35.8,
                "end_time": 35.9954545,
                "pitch": 40,
                "velocity": 127,
                "duration": 0.1954545,
                "tempo": 120.0
            },
            {
                "start_time": 36.3931818,
                "end_time": 36.5954545,
                "pitch": 28,
                "velocity": 127,
                "duration": 0.2022727,
                "tempo": 120.0
            },
            {
                "start_time": 36.9954545,
                "end_time": 37.1931818,
                "pitch": 28,
                "velocity": 127,
                "duration": 0.1977273,
                "tempo": 120.0
            },
            {
                "start_time": 37.1931818,
                "end_time": 37.3931818,
                "pitch": 28,
                "velocity": 127,
                "duration": 0.2,
                "tempo": 120.0
            },
            {
                "start_time": 37.3931818,
                "end_time": 37.5931818,
                "pitch": 40,
                "velocity": 127,
                "duration": 0.2,
                "tempo": 120.0
            },
            {
                "start_time": 37.5931818,
                "end_time": 37.7909091,
                "pitch": 40,
                "velocity": 127,
                "duration": 0.1977273,
                "tempo": 120.0
            },
            {
                "start_time": 37.7909091,
                "end_time": 37.9909091,
                "pitch": 28,
                "velocity": 127,
                "duration": 0.2,
                "tempo": 120.0
            },
            {
                "start_time": 37.9909091,
                "end_time": 38.1863636,
                "pitch": 28,
                "velocity": 127,
                "duration": 0.1954545,
                "tempo": 120.0
            },
            {
                "start_time": 38.1863636,
                "end_time": 38.3818182,
                "pitch": 40,
                "velocity": 127,
                "duration": 0.1954545,
                "tempo": 120.0
            },
            {
                "start_time": 38.3818182,
                "end_time": 38.5818182,
                "pitch": 35,
                "velocity": 127,
                "duration": 0.2,
                "tempo": 120.0
            },
            {
                "start_time": 38.9818182,
                "end_time": 39.5818182,
                "pitch": 35,
                "velocity": 127,
                "duration": 0.6,
                "tempo": 120.0
            },
            {
                "start_time": 26.8295455,
                "end_time": 39.5818182,
                "pitch": 42,
                "velocity": 127,
                "duration": 12.7522727,
                "tempo": 120.0
            },
            {
                "start_time": 39.5818182,
                "end_time": 39.7795455,
                "pitch": 30,
                "velocity": 127,
                "duration": 0.1977273,
                "tempo": 120.0
            },
            {
                "start_time": 39.7795455,
                "end_time": 39.9795455,
                "pitch": 30,
                "velocity": 127,
                "duration": 0.2,
                "tempo": 120.0
            },
            {
                "start_time": 39.9795455,
                "end_time": 40.1795455,
                "pitch": 35,
                "velocity": 127,
                "duration": 0.2,
                "tempo": 120.0
            },
            {
                "start_time": 40.575,
                "end_time": 40.975,
                "pitch": 35,
                "velocity": 127,
                "duration": 0.4,
                "tempo": 120.0
            },
            {
                "start_time": 40.975,
                "end_time": 41.1795455,
                "pitch": 35,
                "velocity": 127,
                "duration": 0.2045455,
                "tempo": 120.0
            },
            {
                "start_time": 41.1795455,
                "end_time": 41.375,
                "pitch": 34,
                "velocity": 127,
                "duration": 0.1954545,
                "tempo": 120.0
            },
            {
                "start_time": 41.375,
                "end_time": 41.5704545,
                "pitch": 34,
                "velocity": 127,
                "duration": 0.1954545,
                "tempo": 120.0
            },
            {
                "start_time": 41.5704545,
                "end_time": 41.9704545,
                "pitch": 33,
                "velocity": 127,
                "duration": 0.4,
                "tempo": 120.0
            },
            {
                "start_time": 41.9704545,
                "end_time": 42.0704545,
                "pitch": 45,
                "velocity": 127,
                "duration": 0.1,
                "tempo": 120.0
            },
            {
                "start_time": 42.1704545,
                "end_time": 42.3704545,
                "pitch": 33,
                "velocity": 127,
                "duration": 0.2,
                "tempo": 120.0
            },
            {
                "start_time": 42.9681818,
                "end_time": 43.1681818,
                "pitch": 28,
                "velocity": 127,
                "duration": 0.2,
                "tempo": 120.0
            },
            {
                "start_time": 43.1681818,
                "end_time": 43.5659091,
                "pitch": 33,
                "velocity": 127,
                "duration": 0.3977273,
                "tempo": 120.0
            },
            {
                "start_time": 43.5659091,
                "end_time": 43.6659091,
                "pitch": 33,
                "velocity": 127,
                "duration": 0.1,
                "tempo": 120.0
            },
            {
                "start_time": 43.7659091,
                "end_time": 43.9681818,
                "pitch": 33,
                "velocity": 127,
                "duration": 0.2022727,
                "tempo": 120.0
            },
            {
                "start_time": 44.1659091,
                "end_time": 44.3659091,
                "pitch": 33,
                "velocity": 127,
                "duration": 0.2,
                "tempo": 120.0
            },
            {
                "start_time": 39.5818182,
                "end_time": 44.3659091,
                "pitch": 42,
                "velocity": 127,
                "duration": 4.7840909,
                "tempo": 120.0
            },
            {
                "start_time": 44.3659091,
                "end_time": 44.5613636,
                "pitch": 28,
                "velocity": 127,
                "duration": 0.1954545,
                "tempo": 120.0
            },
            {
                "start_time": 44.5613636,
                "end_time": 44.7568182,
                "pitch": 28,
                "velocity": 127,
                "duration": 0.1954545,
                "tempo": 120.0
            },
            {
                "start_time": 44.7568182,
                "end_time": 45.3613636,
                "pitch": 32,
                "velocity": 127,
                "duration": 0.6045455,
                "tempo": 120.0
            },
            {
                "start_time": 45.3613636,
                "end_time": 45.5568182,
                "pitch": 32,
                "velocity": 127,
                "duration": 0.1954545,
                "tempo": 120.0
            },
            {
                "start_time": 46.1568182,
                "end_time": 46.5568182,
                "pitch": 32,
                "velocity": 127,
                "duration": 0.4,
                "tempo": 120.0
            },
            {
                "start_time": 46.5568182,
                "end_time": 46.9545455,
                "pitch": 32,
                "velocity": 127,
                "duration": 0.3977273,
                "tempo": 120.0
            },
            {
                "start_time": 46.9545455,
                "end_time": 47.1545455,
                "pitch": 32,
                "velocity": 127,
                "duration": 0.2,
                "tempo": 120.0
            },
            {
                "start_time": 47.1545455,
                "end_time": 47.3545455,
                "pitch": 32,
                "velocity": 127,
                "duration": 0.2,
                "tempo": 120.0
            },
            {
                "start_time": 47.7477273,
                "end_time": 47.9431818,
                "pitch": 32,
                "velocity": 127,
                "duration": 0.1954545,
                "tempo": 120.0
            },
            {
                "start_time": 44.3659091,
                "end_time": 47.9431818,
                "pitch": 42,
                "velocity": 127,
                "duration": 3.5772727,
                "tempo": 120.0
            },
            {
                "start_time": 47.9431818,
                "end_time": 48.3431818,
                "pitch": 30,
                "velocity": 127,
                "duration": 0.4,
                "tempo": 120.0
            },
            {
                "start_time": 48.3431818,
                "end_time": 48.5431818,
                "pitch": 30,
                "velocity": 127,
                "duration": 0.2,
                "tempo": 120.0
            },
            {
                "start_time": 47.9431818,
                "end_time": 48.7454545,
                "pitch": 42,
                "velocity": 127,
                "duration": 0.8022727,
                "tempo": 120.0
            },
            {
                "start_time": 48.5431818,
                "end_time": 48.7454545,
                "pitch": 42,
                "velocity": 127,
                "duration": 0.2022727,
                "tempo": 120.0
            },
            {
                "start_time": 49.1431818,
                "end_time": 49.3431818,
                "pitch": 30,
                "velocity": 127,
                "duration": 0.2,
                "tempo": 120.0
            },
            {
                "start_time": 49.7409091,
                "end_time": 49.9409091,
                "pitch": 30,
                "velocity": 127,
                "duration": 0.2,
                "tempo": 120.0
            },
            {
                "start_time": 49.9409091,
                "end_time": 50.1409091,
                "pitch": 30,
                "velocity": 127,
                "duration": 0.2,
                "tempo": 120.0
            },
            {
                "start_time": 50.1409091,
                "end_time": 50.3386364,
                "pitch": 42,
                "velocity": 127,
                "duration": 0.1977273,
                "tempo": 120.0
            },
            {
                "start_time": 50.3386364,
                "end_time": 50.5409091,
                "pitch": 42,
                "velocity": 127,
                "duration": 0.2022727,
                "tempo": 120.0
            },
            {
                "start_time": 50.5409091,
                "end_time": 50.7409091,
                "pitch": 30,
                "velocity": 127,
                "duration": 0.2,
                "tempo": 120.0
            },
            {
                "start_time": 50.7409091,
                "end_time": 50.9363636,
                "pitch": 30,
                "velocity": 127,
                "duration": 0.1954545,
                "tempo": 120.0
            },
            {
                "start_time": 50.9363636,
                "end_time": 51.1318182,
                "pitch": 42,
                "velocity": 127,
                "duration": 0.1954545,
                "tempo": 120.0
            },
            {
                "start_time": 51.1318182,
                "end_time": 51.3318182,
                "pitch": 35,
                "velocity": 127,
                "duration": 0.2,
                "tempo": 120.0
            },
            {
                "start_time": 51.7318182,
                "end_time": 52.3295455,
                "pitch": 35,
                "velocity": 127,
                "duration": 0.5977273,
                "tempo": 120.0
            },
            {
                "start_time": 52.3295455,
                "end_time": 52.5295455,
                "pitch": 30,
                "velocity": 127,
                "duration": 0.2,
                "tempo": 120.0
            },
            {
                "start_time": 52.5295455,
                "end_time": 52.7295455,
                "pitch": 30,
                "velocity": 127,
                "duration": 0.2,
                "tempo": 120.0
            },
            {
                "start_time": 52.7295455,
                "end_time": 52.9295455,
                "pitch": 35,
                "velocity": 127,
                "duration": 0.2,
                "tempo": 120.0
            },
            {
                "start_time": 53.3227273,
                "end_time": 53.7204545,
                "pitch": 35,
                "velocity": 127,
                "duration": 0.3977273,
                "tempo": 120.0
            },
            {
                "start_time": 53.7204545,
                "end_time": 53.9204545,
                "pitch": 35,
                "velocity": 127,
                "duration": 0.2,
                "tempo": 120.0
            },
            {
                "start_time": 53.9204545,
                "end_time": 54.1204545,
                "pitch": 34,
                "velocity": 127,
                "duration": 0.2,
                "tempo": 120.0
            },
            {
                "start_time": 54.1204545,
                "end_time": 54.3181818,
                "pitch": 34,
                "velocity": 127,
                "duration": 0.1977273,
                "tempo": 120.0
            },
            {
                "start_time": 54.3181818,
                "end_time": 54.7181818,
                "pitch": 33,
                "velocity": 127,
                "duration": 0.4,
                "tempo": 120.0
            },
            {
                "start_time": 54.7181818,
                "end_time": 54.8181818,
                "pitch": 45,
                "velocity": 127,
                "duration": 0.1,
                "tempo": 120.0
            },
            {
                "start_time": 54.9181818,
                "end_time": 55.1159091,
                "pitch": 33,
                "velocity": 127,
                "duration": 0.1977273,
                "tempo": 120.0
            },
            {
                "start_time": 55.7159091,
                "end_time": 55.9159091,
                "pitch": 28,
                "velocity": 127,
                "duration": 0.2,
                "tempo": 120.0
            },
            {
                "start_time": 55.9159091,
                "end_time": 56.3159091,
                "pitch": 33,
                "velocity": 127,
                "duration": 0.4,
                "tempo": 120.0
            },
            {
                "start_time": 56.3159091,
                "end_time": 56.4159091,
                "pitch": 33,
                "velocity": 127,
                "duration": 0.1,
                "tempo": 120.0
            },
            {
                "start_time": 56.5136364,
                "end_time": 56.7136364,
                "pitch": 33,
                "velocity": 127,
                "duration": 0.2,
                "tempo": 120.0
            },
            {
                "start_time": 56.9090909,
                "end_time": 57.1045455,
                "pitch": 33,
                "velocity": 127,
                "duration": 0.1954545,
                "tempo": 120.0
            },
            {
                "start_time": 57.1045455,
                "end_time": 57.3045455,
                "pitch": 28,
                "velocity": 127,
                "duration": 0.2,
                "tempo": 120.0
            },
            {
                "start_time": 57.3045455,
                "end_time": 57.5045455,
                "pitch": 28,
                "velocity": 127,
                "duration": 0.2,
                "tempo": 120.0
            },
            {
                "start_time": 57.5045455,
                "end_time": 58.1090909,
                "pitch": 32,
                "velocity": 127,
                "duration": 0.6045455,
                "tempo": 120.0
            },
            {
                "start_time": 58.1090909,
                "end_time": 58.3045455,
                "pitch": 32,
                "velocity": 127,
                "duration": 0.1954545,
                "tempo": 120.0
            },
            {
                "start_time": 58.9045455,
                "end_time": 59.3045455,
                "pitch": 32,
                "velocity": 127,
                "duration": 0.4,
                "tempo": 120.0
            },
            {
                "start_time": 59.3045455,
                "end_time": 59.7022727,
                "pitch": 32,
                "velocity": 127,
                "duration": 0.3977273,
                "tempo": 120.0
            },
            {
                "start_time": 59.7022727,
                "end_time": 59.9022727,
                "pitch": 32,
                "velocity": 127,
                "duration": 0.2,
                "tempo": 120.0
            },
            {
                "start_time": 59.9022727,
                "end_time": 60.1,
                "pitch": 32,
                "velocity": 127,
                "duration": 0.1977273,
                "tempo": 120.0
            },
            {
                "start_time": 60.4954545,
                "end_time": 60.6909091,
                "pitch": 32,
                "velocity": 127,
                "duration": 0.1954545,
                "tempo": 120.0
            },
            {
                "start_time": 60.6909091,
                "end_time": 61.0931818,
                "pitch": 30,
                "velocity": 127,
                "duration": 0.4022727,
                "tempo": 120.0
            },
            {
                "start_time": 61.0931818,
                "end_time": 61.2909091,
                "pitch": 30,
                "velocity": 127,
                "duration": 0.1977273,
                "tempo": 120.0
            },
            {
                "start_time": 57.1045455,
                "end_time": 61.4909091,
                "pitch": 42,
                "velocity": 127,
                "duration": 4.3863636,
                "tempo": 120.0
            },
            {
                "start_time": 61.2931818,
                "end_time": 61.4909091,
                "pitch": 42,
                "velocity": 127,
                "duration": 0.1977273,
                "tempo": 120.0
            },
            {
                "start_time": 61.8909091,
                "end_time": 62.0886364,
                "pitch": 30,
                "velocity": 127,
                "duration": 0.1977273,
                "tempo": 120.0
            },
            {
                "start_time": 62.4886364,
                "end_time": 62.6886364,
                "pitch": 30,
                "velocity": 127,
                "duration": 0.2,
                "tempo": 120.0
            },
            {
                "start_time": 62.6886364,
                "end_time": 62.8886364,
                "pitch": 30,
                "velocity": 127,
                "duration": 0.2,
                "tempo": 120.0
            },
            {
                "start_time": 62.8886364,
                "end_time": 63.0886364,
                "pitch": 42,
                "velocity": 127,
                "duration": 0.2,
                "tempo": 120.0
            },
            {
                "start_time": 63.0886364,
                "end_time": 63.2840909,
                "pitch": 42,
                "velocity": 127,
                "duration": 0.1954545,
                "tempo": 120.0
            },
            {
                "start_time": 63.2840909,
                "end_time": 63.4795455,
                "pitch": 30,
                "velocity": 127,
                "duration": 0.1954545,
                "tempo": 120.0
            },
            {
                "start_time": 63.4795455,
                "end_time": 63.6795455,
                "pitch": 30,
                "velocity": 127,
                "duration": 0.2,
                "tempo": 120.0
            },
            {
                "start_time": 63.6795455,
                "end_time": 63.8795455,
                "pitch": 42,
                "velocity": 127,
                "duration": 0.2,
                "tempo": 120.0
            },
            {
                "start_time": 63.8795455,
                "end_time": 64.0772727,
                "pitch": 34,
                "velocity": 127,
                "duration": 0.1977273,
                "tempo": 120.0
            },
            {
                "start_time": 64.4772727,
                "end_time": 65.0772727,
                "pitch": 34,
                "velocity": 127,
                "duration": 0.6,
                "tempo": 120.0
            },
            {
                "start_time": 65.0772727,
                "end_time": 65.2772727,
                "pitch": 29,
                "velocity": 127,
                "duration": 0.2,
                "tempo": 120.0
            },
            {
                "start_time": 65.2772727,
                "end_time": 65.4795455,
                "pitch": 29,
                "velocity": 127,
                "duration": 0.2022727,
                "tempo": 120.0
            },
            {
                "start_time": 65.4795455,
                "end_time": 65.6772727,
                "pitch": 34,
                "velocity": 127,
                "duration": 0.1977273,
                "tempo": 120.0
            },
            {
                "start_time": 66.0727273,
                "end_time": 66.4681818,
                "pitch": 34,
                "velocity": 127,
                "duration": 0.3954545,
                "tempo": 120.0
            },
            {
                "start_time": 66.4681818,
                "end_time": 66.6704545,
                "pitch": 34,
                "velocity": 127,
                "duration": 0.2022727,
                "tempo": 120.0
            },
            {
                "start_time": 66.6704545,
                "end_time": 66.8704545,
                "pitch": 33,
                "velocity": 127,
                "duration": 0.2,
                "tempo": 120.0
            },
            {
                "start_time": 66.8704545,
                "end_time": 67.0704545,
                "pitch": 33,
                "velocity": 127,
                "duration": 0.2,
                "tempo": 120.0
            },
            {
                "start_time": 67.0704545,
                "end_time": 67.4704545,
                "pitch": 32,
                "velocity": 127,
                "duration": 0.4,
                "tempo": 120.0
            },
            {
                "start_time": 67.4704545,
                "end_time": 67.5704545,
                "pitch": 44,
                "velocity": 127,
                "duration": 0.1,
                "tempo": 120.0
            },
            {
                "start_time": 67.6704545,
                "end_time": 67.8704545,
                "pitch": 32,
                "velocity": 127,
                "duration": 0.2,
                "tempo": 120.0
            },
            {
                "start_time": 68.4704545,
                "end_time": 68.6704545,
                "pitch": 27,
                "velocity": 127,
                "duration": 0.2,
                "tempo": 120.0
            },
            {
                "start_time": 68.6704545,
                "end_time": 69.0727273,
                "pitch": 32,
                "velocity": 127,
                "duration": 0.4022727,
                "tempo": 120.0
            },
            {
                "start_time": 69.0727273,
                "end_time": 69.1727273,
                "pitch": 32,
                "velocity": 127,
                "duration": 0.1,
                "tempo": 120.0
            },
            {
                "start_time": 69.2727273,
                "end_time": 69.4704545,
                "pitch": 32,
                "velocity": 127,
                "duration": 0.1977273,
                "tempo": 120.0
            },
            {
                "start_time": 69.6659091,
                "end_time": 69.8613636,
                "pitch": 32,
                "velocity": 127,
                "duration": 0.1954545,
                "tempo": 120.0
            },
            {
                "start_time": 69.8613636,
                "end_time": 70.0636364,
                "pitch": 27,
                "velocity": 127,
                "duration": 0.2022727,
                "tempo": 120.0
            },
            {
                "start_time": 30.4181818,
                "end_time": 70.2636364,
                "pitch": 0,
                "velocity": 127,
                "duration": 39.8454545,
                "tempo": 120.0
            },
            {
                "start_time": 70.0636364,
                "end_time": 70.2636364,
                "pitch": 27,
                "velocity": 127,
                "duration": 0.2,
                "tempo": 120.0
            },
            {
                "start_time": 70.2636364,
                "end_time": 70.8636364,
                "pitch": 31,
                "velocity": 127,
                "duration": 0.6,
                "tempo": 120.0
            },
            {
                "start_time": 70.8636364,
                "end_time": 71.0636364,
                "pitch": 31,
                "velocity": 127,
                "duration": 0.2,
                "tempo": 120.0
            },
            {
                "start_time": 71.6590909,
                "end_time": 72.0590909,
                "pitch": 31,
                "velocity": 127,
                "duration": 0.4,
                "tempo": 120.0
            },
            {
                "start_time": 72.0590909,
                "end_time": 72.4590909,
                "pitch": 31,
                "velocity": 127,
                "duration": 0.4,
                "tempo": 120.0
            },
            {
                "start_time": 72.4590909,
                "end_time": 72.6545455,
                "pitch": 31,
                "velocity": 127,
                "duration": 0.1954545,
                "tempo": 120.0
            },
            {
                "start_time": 72.6545455,
                "end_time": 72.8522727,
                "pitch": 31,
                "velocity": 127,
                "duration": 0.1977273,
                "tempo": 120.0
            },
            {
                "start_time": 73.2522727,
                "end_time": 73.4545455,
                "pitch": 31,
                "velocity": 127,
                "duration": 0.2022727,
                "tempo": 120.0
            },
            {
                "start_time": 73.4545455,
                "end_time": 73.8522727,
                "pitch": 29,
                "velocity": 127,
                "duration": 0.3977273,
                "tempo": 120.0
            },
            {
                "start_time": 73.8522727,
                "end_time": 74.0522727,
                "pitch": 29,
                "velocity": 127,
                "duration": 0.2,
                "tempo": 120.0
            },
            {
                "start_time": 31.6159091,
                "end_time": 74.2545455,
                "pitch": 41,
                "velocity": 127,
                "duration": 42.6386364,
                "tempo": 120.0
            },
            {
                "start_time": 74.0522727,
                "end_time": 74.2545455,
                "pitch": 41,
                "velocity": 127,
                "duration": 0.2022727,
                "tempo": 120.0
            },
            {
                "start_time": 74.6545455,
                "end_time": 74.8545455,
                "pitch": 29,
                "velocity": 127,
                "duration": 0.2,
                "tempo": 120.0
            },
            {
                "start_time": 75.2545455,
                "end_time": 75.4568182,
                "pitch": 29,
                "velocity": 127,
                "duration": 0.2022727,
                "tempo": 120.0
            },
            {
                "start_time": 75.4568182,
                "end_time": 75.6545455,
                "pitch": 29,
                "velocity": 127,
                "duration": 0.1977273,
                "tempo": 120.0
            },
            {
                "start_time": 75.6545455,
                "end_time": 75.8545455,
                "pitch": 41,
                "velocity": 127,
                "duration": 0.2,
                "tempo": 120.0
            },
            {
                "start_time": 75.8545455,
                "end_time": 76.05,
                "pitch": 41,
                "velocity": 127,
                "duration": 0.1954545,
                "tempo": 120.0
            },
            {
                "start_time": 76.05,
                "end_time": 76.2454545,
                "pitch": 29,
                "velocity": 127,
                "duration": 0.1954545,
                "tempo": 120.0
            },
            {
                "start_time": 76.2454545,
                "end_time": 76.4454545,
                "pitch": 29,
                "velocity": 127,
                "duration": 0.2,
                "tempo": 120.0
            },
            {
                "start_time": 76.4454545,
                "end_time": 76.6477273,
                "pitch": 41,
                "velocity": 127,
                "duration": 0.2022727,
                "tempo": 120.0
            },
            {
                "start_time": 76.6477273,
                "end_time": 76.8477273,
                "pitch": 34,
                "velocity": 127,
                "duration": 0.2,
                "tempo": 120.0
            },
            {
                "start_time": 76.8477273,
                "end_time": 77.0477273,
                "pitch": 34,
                "velocity": 127,
                "duration": 0.2,
                "tempo": 120.0
            },
            {
                "start_time": 77.0477273,
                "end_time": 77.2477273,
                "pitch": 46,
                "velocity": 127,
                "duration": 0.2,
                "tempo": 120.0
            },
            {
                "start_time": 77.2477273,
                "end_time": 77.4477273,
                "pitch": 34,
                "velocity": 127,
                "duration": 0.2,
                "tempo": 120.0
            },
            {
                "start_time": 77.4477273,
                "end_time": 77.6477273,
                "pitch": 34,
                "velocity": 127,
                "duration": 0.2,
                "tempo": 120.0
            },
            {
                "start_time": 77.6477273,
                "end_time": 77.8477273,
                "pitch": 34,
                "velocity": 127,
                "duration": 0.2,
                "tempo": 120.0
            },
            {
                "start_time": 77.8477273,
                "end_time": 78.0477273,
                "pitch": 46,
                "velocity": 127,
                "duration": 0.2,
                "tempo": 120.0
            },
            {
                "start_time": 78.0477273,
                "end_time": 78.2477273,
                "pitch": 34,
                "velocity": 127,
                "duration": 0.2,
                "tempo": 120.0
            },
            {
                "start_time": 78.2477273,
                "end_time": 78.4477273,
                "pitch": 34,
                "velocity": 127,
                "duration": 0.2,
                "tempo": 120.0
            },
            {
                "start_time": 78.4477273,
                "end_time": 78.6477273,
                "pitch": 34,
                "velocity": 127,
                "duration": 0.2,
                "tempo": 120.0
            },
            {
                "start_time": 78.6477273,
                "end_time": 78.85,
                "pitch": 46,
                "velocity": 127,
                "duration": 0.2022727,
                "tempo": 120.0
            },
            {
                "start_time": 78.85,
                "end_time": 79.05,
                "pitch": 34,
                "velocity": 127,
                "duration": 0.2,
                "tempo": 120.0
            },
            {
                "start_time": 79.05,
                "end_time": 79.2454545,
                "pitch": 34,
                "velocity": 127,
                "duration": 0.1954545,
                "tempo": 120.0
            },
            {
                "start_time": 79.2454545,
                "end_time": 79.4409091,
                "pitch": 34,
                "velocity": 127,
                "duration": 0.1954545,
                "tempo": 120.0
            },
            {
                "start_time": 79.4409091,
                "end_time": 79.6409091,
                "pitch": 46,
                "velocity": 127,
                "duration": 0.2,
                "tempo": 120.0
            },
            {
                "start_time": 79.6409091,
                "end_time": 79.8386364,
                "pitch": 34,
                "velocity": 127,
                "duration": 0.1977273,
                "tempo": 120.0
            },
            {
                "start_time": 79.8386364,
                "end_time": 80.0409091,
                "pitch": 27,
                "velocity": 127,
                "duration": 0.2022727,
                "tempo": 120.0
            },
            {
                "start_time": 80.0409091,
                "end_time": 80.2409091,
                "pitch": 27,
                "velocity": 127,
                "duration": 0.2,
                "tempo": 120.0
            },
            {
                "start_time": 80.2409091,
                "end_time": 80.4409091,
                "pitch": 39,
                "velocity": 127,
                "duration": 0.2,
                "tempo": 120.0
            },
            {
                "start_time": 80.4409091,
                "end_time": 80.6386364,
                "pitch": 27,
                "velocity": 127,
                "duration": 0.1977273,
                "tempo": 120.0
            },
            {
                "start_time": 80.6386364,
                "end_time": 80.8409091,
                "pitch": 27,
                "velocity": 127,
                "duration": 0.2022727,
                "tempo": 120.0
            },
            {
                "start_time": 80.8409091,
                "end_time": 81.0409091,
                "pitch": 27,
                "velocity": 127,
                "duration": 0.2,
                "tempo": 120.0
            },
            {
                "start_time": 81.0409091,
                "end_time": 81.2409091,
                "pitch": 39,
                "velocity": 127,
                "duration": 0.2,
                "tempo": 120.0
            },
            {
                "start_time": 81.2409091,
                "end_time": 81.4431818,
                "pitch": 27,
                "velocity": 127,
                "duration": 0.2022727,
                "tempo": 120.0
            },
            {
                "start_time": 81.4431818,
                "end_time": 81.6409091,
                "pitch": 27,
                "velocity": 127,
                "duration": 0.1977273,
                "tempo": 120.0
            },
            {
                "start_time": 81.6409091,
                "end_time": 81.8409091,
                "pitch": 27,
                "velocity": 127,
                "duration": 0.2,
                "tempo": 120.0
            },
            {
                "start_time": 81.8409091,
                "end_time": 82.0363636,
                "pitch": 39,
                "velocity": 127,
                "duration": 0.1954545,
                "tempo": 120.0
            },
            {
                "start_time": 82.0363636,
                "end_time": 82.2318182,
                "pitch": 27,
                "velocity": 127,
                "duration": 0.1954545,
                "tempo": 120.0
            },
            {
                "start_time": 82.2318182,
                "end_time": 82.4318182,
                "pitch": 27,
                "velocity": 127,
                "duration": 0.2,
                "tempo": 120.0
            },
            {
                "start_time": 82.4318182,
                "end_time": 82.6340909,
                "pitch": 27,
                "velocity": 127,
                "duration": 0.2022727,
                "tempo": 120.0
            },
            {
                "start_time": 82.6340909,
                "end_time": 82.8318182,
                "pitch": 39,
                "velocity": 127,
                "duration": 0.1977273,
                "tempo": 120.0
            },
            {
                "start_time": 82.8340909,
                "end_time": 83.0318182,
                "pitch": 27,
                "velocity": 127,
                "duration": 0.1977273,
                "tempo": 120.0
            },
            {
                "start_time": 83.0318182,
                "end_time": 83.2340909,
                "pitch": 30,
                "velocity": 127,
                "duration": 0.2022727,
                "tempo": 120.0
            },
            {
                "start_time": 83.0318182,
                "end_time": 83.2340909,
                "pitch": 30,
                "velocity": 127,
                "duration": 0.2022727,
                "tempo": 120.0
            },
            {
                "start_time": 83.2340909,
                "end_time": 83.4340909,
                "pitch": 30,
                "velocity": 127,
                "duration": 0.2,
                "tempo": 120.0
            },
            {
                "start_time": 65.0772727,
                "end_time": 83.6340909,
                "pitch": 42,
                "velocity": 127,
                "duration": 18.5568182,
                "tempo": 120.0
            },
            {
                "start_time": 83.4340909,
                "end_time": 83.6340909,
                "pitch": 42,
                "velocity": 127,
                "duration": 0.2,
                "tempo": 120.0
            },
            {
                "start_time": 83.6340909,
                "end_time": 83.8340909,
                "pitch": 30,
                "velocity": 127,
                "duration": 0.2,
                "tempo": 120.0
            },
            {
                "start_time": 83.8340909,
                "end_time": 84.0340909,
                "pitch": 30,
                "velocity": 127,
                "duration": 0.2,
                "tempo": 120.0
            },
            {
                "start_time": 84.0340909,
                "end_time": 84.2340909,
                "pitch": 30,
                "velocity": 127,
                "duration": 0.2,
                "tempo": 120.0
            },
            {
                "start_time": 84.2340909,
                "end_time": 84.4340909,
                "pitch": 42,
                "velocity": 127,
                "duration": 0.2,
                "tempo": 120.0
            },
            {
                "start_time": 84.4340909,
                "end_time": 84.6340909,
                "pitch": 30,
                "velocity": 127,
                "duration": 0.2,
                "tempo": 120.0
            },
            {
                "start_time": 84.6363636,
                "end_time": 84.8340909,
                "pitch": 30,
                "velocity": 127,
                "duration": 0.1977273,
                "tempo": 120.0
            },
            {
                "start_time": 84.8340909,
                "end_time": 85.0340909,
                "pitch": 30,
                "velocity": 127,
                "duration": 0.2,
                "tempo": 120.0
            },
            {
                "start_time": 85.0340909,
                "end_time": 85.2340909,
                "pitch": 42,
                "velocity": 127,
                "duration": 0.2,
                "tempo": 120.0
            },
            {
                "start_time": 85.2340909,
                "end_time": 85.4363636,
                "pitch": 30,
                "velocity": 127,
                "duration": 0.2022727,
                "tempo": 120.0
            },
            {
                "start_time": 85.4363636,
                "end_time": 85.6363636,
                "pitch": 30,
                "velocity": 127,
                "duration": 0.2,
                "tempo": 120.0
            },
            {
                "start_time": 85.6363636,
                "end_time": 85.8363636,
                "pitch": 42,
                "velocity": 127,
                "duration": 0.2,
                "tempo": 120.0
            },
            {
                "start_time": 85.8363636,
                "end_time": 86.0318182,
                "pitch": 30,
                "velocity": 127,
                "duration": 0.1954545,
                "tempo": 120.0
            },
            {
                "start_time": 86.0318182,
                "end_time": 86.2272727,
                "pitch": 42,
                "velocity": 127,
                "duration": 0.1954545,
                "tempo": 120.0
            },
            {
                "start_time": 86.2272727,
                "end_time": 86.4272727,
                "pitch": 32,
                "velocity": 127,
                "duration": 0.2,
                "tempo": 120.0
            },
            {
                "start_time": 86.4272727,
                "end_time": 86.6295455,
                "pitch": 32,
                "velocity": 127,
                "duration": 0.2022727,
                "tempo": 120.0
            },
            {
                "start_time": 86.6295455,
                "end_time": 86.8295455,
                "pitch": 44,
                "velocity": 127,
                "duration": 0.2,
                "tempo": 120.0
            },
            {
                "start_time": 86.8295455,
                "end_time": 87.0295455,
                "pitch": 32,
                "velocity": 127,
                "duration": 0.2,
                "tempo": 120.0
            },
            {
                "start_time": 87.0295455,
                "end_time": 87.2295455,
                "pitch": 32,
                "velocity": 127,
                "duration": 0.2,
                "tempo": 120.0
            },
            {
                "start_time": 87.2295455,
                "end_time": 87.4295455,
                "pitch": 44,
                "velocity": 127,
                "duration": 0.2,
                "tempo": 120.0
            },
            {
                "start_time": 87.4295455,
                "end_time": 87.6295455,
                "pitch": 32,
                "velocity": 127,
                "duration": 0.2,
                "tempo": 120.0
            },
            {
                "start_time": 87.6295455,
                "end_time": 87.8318182,
                "pitch": 32,
                "velocity": 127,
                "duration": 0.2022727,
                "tempo": 120.0
            },
            {
                "start_time": 87.8318182,
                "end_time": 88.0295455,
                "pitch": 33,
                "velocity": 127,
                "duration": 0.1977273,
                "tempo": 120.0
            },
            {
                "start_time": 88.0295455,
                "end_time": 88.2295455,
                "pitch": 33,
                "velocity": 127,
                "duration": 0.2,
                "tempo": 120.0
            },
            {
                "start_time": 88.2295455,
                "end_time": 88.425,
                "pitch": 45,
                "velocity": 127,
                "duration": 0.1954545,
                "tempo": 120.0
            },
            {
                "start_time": 88.425,
                "end_time": 88.6204545,
                "pitch": 33,
                "velocity": 127,
                "duration": 0.1954545,
                "tempo": 120.0
            },
            {
                "start_time": 88.6204545,
                "end_time": 88.8204545,
                "pitch": 33,
                "velocity": 127,
                "duration": 0.2,
                "tempo": 120.0
            },
            {
                "start_time": 88.8204545,
                "end_time": 89.0227273,
                "pitch": 33,
                "velocity": 127,
                "duration": 0.2022727,
                "tempo": 120.0
            },
            {
                "start_time": 89.0227273,
                "end_time": 89.2227273,
                "pitch": 45,
                "velocity": 127,
                "duration": 0.2,
                "tempo": 120.0
            },
            {
                "start_time": 89.2227273,
                "end_time": 89.4227273,
                "pitch": 33,
                "velocity": 127,
                "duration": 0.2,
                "tempo": 120.0
            },
            {
                "start_time": 89.4227273,
                "end_time": 89.6227273,
                "pitch": 34,
                "velocity": 127,
                "duration": 0.2,
                "tempo": 120.0
            },
            {
                "start_time": 89.6227273,
                "end_time": 89.8227273,
                "pitch": 34,
                "velocity": 127,
                "duration": 0.2,
                "tempo": 120.0
            },
            {
                "start_time": 89.8227273,
                "end_time": 90.0227273,
                "pitch": 46,
                "velocity": 127,
                "duration": 0.2,
                "tempo": 120.0
            },
            {
                "start_time": 90.0227273,
                "end_time": 90.2227273,
                "pitch": 34,
                "velocity": 127,
                "duration": 0.2,
                "tempo": 120.0
            },
            {
                "start_time": 90.2227273,
                "end_time": 90.4227273,
                "pitch": 34,
                "velocity": 127,
                "duration": 0.2,
                "tempo": 120.0
            },
            {
                "start_time": 90.4227273,
                "end_time": 90.6227273,
                "pitch": 34,
                "velocity": 127,
                "duration": 0.2,
                "tempo": 120.0
            },
            {
                "start_time": 90.6227273,
                "end_time": 90.8227273,
                "pitch": 46,
                "velocity": 127,
                "duration": 0.2,
                "tempo": 120.0
            },
            {
                "start_time": 90.8227273,
                "end_time": 91.0227273,
                "pitch": 34,
                "velocity": 127,
                "duration": 0.2,
                "tempo": 120.0
            },
            {
                "start_time": 91.0227273,
                "end_time": 91.225,
                "pitch": 34,
                "velocity": 127,
                "duration": 0.2022727,
                "tempo": 120.0
            },
            {
                "start_time": 91.225,
                "end_time": 91.425,
                "pitch": 34,
                "velocity": 127,
                "duration": 0.2,
                "tempo": 120.0
            },
            {
                "start_time": 91.425,
                "end_time": 91.625,
                "pitch": 46,
                "velocity": 127,
                "duration": 0.2,
                "tempo": 120.0
            },
            {
                "start_time": 91.625,
                "end_time": 91.8227273,
                "pitch": 34,
                "velocity": 127,
                "duration": 0.1977273,
                "tempo": 120.0
            },
            {
                "start_time": 91.8227273,
                "end_time": 92.0181818,
                "pitch": 34,
                "velocity": 127,
                "duration": 0.1954545,
                "tempo": 120.0
            },
            {
                "start_time": 92.0181818,
                "end_time": 92.2136364,
                "pitch": 34,
                "velocity": 127,
                "duration": 0.1954545,
                "tempo": 120.0
            },
            {
                "start_time": 92.2136364,
                "end_time": 92.4159091,
                "pitch": 46,
                "velocity": 127,
                "duration": 0.2022727,
                "tempo": 120.0
            },
            {
                "start_time": 92.4159091,
                "end_time": 92.6159091,
                "pitch": 34,
                "velocity": 127,
                "duration": 0.2,
                "tempo": 120.0
            },
            {
                "start_time": 92.6159091,
                "end_time": 92.8159091,
                "pitch": 29,
                "velocity": 127,
                "duration": 0.2,
                "tempo": 120.0
            },
            {
                "start_time": 92.8159091,
                "end_time": 93.0136364,
                "pitch": 29,
                "velocity": 127,
                "duration": 0.1977273,
                "tempo": 120.0
            },
            {
                "start_time": 79.8386364,
                "end_time": 93.2159091,
                "pitch": 41,
                "velocity": 127,
                "duration": 13.3772727,
                "tempo": 120.0
            },
            {
                "start_time": 93.0136364,
                "end_time": 93.2159091,
                "pitch": 41,
                "velocity": 127,
                "duration": 0.2022727,
                "tempo": 120.0
            },
            {
                "start_time": 93.2159091,
                "end_time": 93.4159091,
                "pitch": 29,
                "velocity": 127,
                "duration": 0.2,
                "tempo": 120.0
            },
            {
                "start_time": 93.4159091,
                "end_time": 93.6159091,
                "pitch": 29,
                "velocity": 127,
                "duration": 0.2,
                "tempo": 120.0
            },
            {
                "start_time": 93.6159091,
                "end_time": 93.8181818,
                "pitch": 29,
                "velocity": 127,
                "duration": 0.2022727,
                "tempo": 120.0
            },
            {
                "start_time": 93.8181818,
                "end_time": 94.0159091,
                "pitch": 41,
                "velocity": 127,
                "duration": 0.1977273,
                "tempo": 120.0
            },
            {
                "start_time": 94.0159091,
                "end_time": 94.2159091,
                "pitch": 29,
                "velocity": 127,
                "duration": 0.2,
                "tempo": 120.0
            },
            {
                "start_time": 94.2159091,
                "end_time": 94.4159091,
                "pitch": 29,
                "velocity": 127,
                "duration": 0.2,
                "tempo": 120.0
            },
            {
                "start_time": 94.4159091,
                "end_time": 94.6181818,
                "pitch": 29,
                "velocity": 127,
                "duration": 0.2022727,
                "tempo": 120.0
            },
            {
                "start_time": 94.6181818,
                "end_time": 94.8159091,
                "pitch": 41,
                "velocity": 127,
                "duration": 0.1977273,
                "tempo": 120.0
            },
            {
                "start_time": 94.8159091,
                "end_time": 95.0159091,
                "pitch": 29,
                "velocity": 127,
                "duration": 0.2,
                "tempo": 120.0
            },
            {
                "start_time": 95.0159091,
                "end_time": 95.2113636,
                "pitch": 29,
                "velocity": 127,
                "duration": 0.1954545,
                "tempo": 120.0
            },
            {
                "start_time": 95.2113636,
                "end_time": 95.4068182,
                "pitch": 29,
                "velocity": 127,
                "duration": 0.1954545,
                "tempo": 120.0
            },
            {
                "start_time": 95.4068182,
                "end_time": 95.6068182,
                "pitch": 41,
                "velocity": 127,
                "duration": 0.2,
                "tempo": 120.0
            },
            {
                "start_time": 95.6068182,
                "end_time": 95.8090909,
                "pitch": 29,
                "velocity": 127,
                "duration": 0.2022727,
                "tempo": 120.0
            },
            {
                "start_time": 95.8090909,
                "end_time": 96.0090909,
                "pitch": 30,
                "velocity": 127,
                "duration": 0.2,
                "tempo": 120.0
            },
            {
                "start_time": 96.0090909,
                "end_time": 96.2090909,
                "pitch": 30,
                "velocity": 127,
                "duration": 0.2,
                "tempo": 120.0
            },
            {
                "start_time": 96.2090909,
                "end_time": 96.4090909,
                "pitch": 42,
                "velocity": 127,
                "duration": 0.2,
                "tempo": 120.0
            },
            {
                "start_time": 96.4090909,
                "end_time": 96.6090909,
                "pitch": 30,
                "velocity": 127,
                "duration": 0.2,
                "tempo": 120.0
            },
            {
                "start_time": 96.6090909,
                "end_time": 96.8090909,
                "pitch": 30,
                "velocity": 127,
                "duration": 0.2,
                "tempo": 120.0
            },
            {
                "start_time": 96.8090909,
                "end_time": 97.0090909,
                "pitch": 30,
                "velocity": 127,
                "duration": 0.2,
                "tempo": 120.0
            },
            {
                "start_time": 97.0090909,
                "end_time": 97.2090909,
                "pitch": 42,
                "velocity": 127,
                "duration": 0.2,
                "tempo": 120.0
            },
            {
                "start_time": 97.2090909,
                "end_time": 97.4090909,
                "pitch": 30,
                "velocity": 127,
                "duration": 0.2,
                "tempo": 120.0
            },
            {
                "start_time": 97.4090909,
                "end_time": 97.6090909,
                "pitch": 30,
                "velocity": 127,
                "duration": 0.2,
                "tempo": 120.0
            },
            {
                "start_time": 97.6090909,
                "end_time": 97.8113636,
                "pitch": 30,
                "velocity": 127,
                "duration": 0.2022727,
                "tempo": 120.0
            },
            {
                "start_time": 97.8113636,
                "end_time": 98.0113636,
                "pitch": 42,
                "velocity": 127,
                "duration": 0.2,
                "tempo": 120.0
            },
            {
                "start_time": 98.0113636,
                "end_time": 98.2113636,
                "pitch": 30,
                "velocity": 127,
                "duration": 0.2,
                "tempo": 120.0
            },
            {
                "start_time": 98.2113636,
                "end_time": 98.4068182,
                "pitch": 30,
                "velocity": 127,
                "duration": 0.1954545,
                "tempo": 120.0
            },
            {
                "start_time": 98.4068182,
                "end_time": 98.6022727,
                "pitch": 42,
                "velocity": 127,
                "duration": 0.1954545,
                "tempo": 120.0
            },
            {
                "start_time": 98.6022727,
                "end_time": 98.8022727,
                "pitch": 30,
                "velocity": 127,
                "duration": 0.2,
                "tempo": 120.0
            },
            {
                "start_time": 98.8022727,
                "end_time": 99.0022727,
                "pitch": 42,
                "velocity": 127,
                "duration": 0.2,
                "tempo": 120.0
            },
            {
                "start_time": 99.0022727,
                "end_time": 99.2022727,
                "pitch": 32,
                "velocity": 127,
                "duration": 0.2,
                "tempo": 120.0
            },
            {
                "start_time": 99.2022727,
                "end_time": 99.4022727,
                "pitch": 32,
                "velocity": 127,
                "duration": 0.2,
                "tempo": 120.0
            },
            {
                "start_time": 99.4022727,
                "end_time": 99.6022727,
                "pitch": 44,
                "velocity": 127,
                "duration": 0.2,
                "tempo": 120.0
            },
            {
                "start_time": 99.6022727,
                "end_time": 99.8022727,
                "pitch": 32,
                "velocity": 127,
                "duration": 0.2,
                "tempo": 120.0
            },
            {
                "start_time": 99.8022727,
                "end_time": 100.0022727,
                "pitch": 32,
                "velocity": 127,
                "duration": 0.2,
                "tempo": 120.0
            },
            {
                "start_time": 100.0022727,
                "end_time": 100.2022727,
                "pitch": 44,
                "velocity": 127,
                "duration": 0.2,
                "tempo": 120.0
            },
            {
                "start_time": 100.2022727,
                "end_time": 100.4045455,
                "pitch": 32,
                "velocity": 127,
                "duration": 0.2022727,
                "tempo": 120.0
            },
            {
                "start_time": 100.4045455,
                "end_time": 100.6045455,
                "pitch": 32,
                "velocity": 127,
                "duration": 0.2,
                "tempo": 120.0
            },
            {
                "start_time": 100.6045455,
                "end_time": 100.8045455,
                "pitch": 33,
                "velocity": 127,
                "duration": 0.2,
                "tempo": 120.0
            },
            {
                "start_time": 100.8045455,
                "end_time": 101.0022727,
                "pitch": 33,
                "velocity": 127,
                "duration": 0.1977273,
                "tempo": 120.0
            },
            {
                "start_time": 101.0022727,
                "end_time": 101.1977273,
                "pitch": 45,
                "velocity": 127,
                "duration": 0.1954545,
                "tempo": 120.0
            },
            {
                "start_time": 101.1977273,
                "end_time": 101.3931818,
                "pitch": 33,
                "velocity": 127,
                "duration": 0.1954545,
                "tempo": 120.0
            },
            {
                "start_time": 101.3931818,
                "end_time": 101.5954545,
                "pitch": 33,
                "velocity": 127,
                "duration": 0.2022727,
                "tempo": 120.0
            },
            {
                "start_time": 101.5954545,
                "end_time": 101.7954545,
                "pitch": 33,
                "velocity": 127,
                "duration": 0.2,
                "tempo": 120.0
            },
            {
                "start_time": 101.7954545,
                "end_time": 101.9954545,
                "pitch": 45,
                "velocity": 127,
                "duration": 0.2,
                "tempo": 120.0
            },
            {
                "start_time": 101.9954545,
                "end_time": 102.1931818,
                "pitch": 33,
                "velocity": 127,
                "duration": 0.1977273,
                "tempo": 120.0
            }
        ],
        "Lead 2 (sawtooth)": [
            {
                "start_time": 0.0954545,
                "end_time": 2.8863636,
                "pitch": 73,
                "velocity": 101,
                "duration": 2.7909091,
                "tempo": 120.0
            },
            {
                "start_time": 2.8863636,
                "end_time": 3.0909091,
                "pitch": 73,
                "velocity": 101,
                "duration": 0.2045455,
                "tempo": 120.0
            },
            {
                "start_time": 3.0909091,
                "end_time": 3.2954545,
                "pitch": 73,
                "velocity": 101,
                "duration": 0.2045455,
                "tempo": 120.0
            },
            {
                "start_time": 3.2954545,
                "end_time": 5.875,
                "pitch": 67,
                "velocity": 101,
                "duration": 2.5795455,
                "tempo": 120.0
            },
            {
                "start_time": 5.875,
                "end_time": 6.0636364,
                "pitch": 67,
                "velocity": 101,
                "duration": 0.1886364,
                "tempo": 120.0
            },
            {
                "start_time": 6.2704545,
                "end_time": 6.475,
                "pitch": 67,
                "velocity": 101,
                "duration": 0.2045455,
                "tempo": 120.0
            },
            {
                "start_time": 6.475,
                "end_time": 9.6681818,
                "pitch": 66,
                "velocity": 101,
                "duration": 3.1931818,
                "tempo": 120.0
            },
            {
                "start_time": 9.6681818,
                "end_time": 11.2613636,
                "pitch": 71,
                "velocity": 101,
                "duration": 1.5931818,
                "tempo": 120.0
            },
            {
                "start_time": 11.2613636,
                "end_time": 12.875,
                "pitch": 68,
                "velocity": 101,
                "duration": 1.6136364,
                "tempo": 120.0
            },
            {
                "start_time": 11.2613636,
                "end_time": 12.875,
                "pitch": 68,
                "velocity": 101,
                "duration": 1.6136364,
                "tempo": 120.0
            },
            {
                "start_time": 12.875,
                "end_time": 16.0704545,
                "pitch": 73,
                "velocity": 101,
                "duration": 3.1954545,
                "tempo": 120.0
            },
            {
                "start_time": 16.0704545,
                "end_time": 19.2613636,
                "pitch": 67,
                "velocity": 101,
                "duration": 3.1909091,
                "tempo": 120.0
            },
            {
                "start_time": 19.2613636,
                "end_time": 22.4409091,
                "pitch": 69,
                "velocity": 101,
                "duration": 3.1795455,
                "tempo": 120.0
            },
            {
                "start_time": 22.4409091,
                "end_time": 24.0409091,
                "pitch": 71,
                "velocity": 101,
                "duration": 1.6,
                "tempo": 120.0
            },
            {
                "start_time": 22.4409091,
                "end_time": 24.0409091,
                "pitch": 71,
                "velocity": 101,
                "duration": 1.6,
                "tempo": 120.0
            },
            {
                "start_time": 24.0409091,
                "end_time": 25.6295455,
                "pitch": 68,
                "velocity": 101,
                "duration": 1.5886364,
                "tempo": 120.0
            },
            {
                "start_time": 24.0409091,
                "end_time": 25.6295455,
                "pitch": 68,
                "velocity": 101,
                "duration": 1.5886364,
                "tempo": 120.0
            },
            {
                "start_time": 12.875,
                "end_time": 25.6295455,
                "pitch": 76,
                "velocity": 101,
                "duration": 12.7545455,
                "tempo": 120.0
            },
            {
                "start_time": 3.2954545,
                "end_time": 28.8272727,
                "pitch": 2,
                "velocity": 101,
                "duration": 25.5318182,
                "tempo": 120.0
            },
            {
                "start_time": 25.6295455,
                "end_time": 28.8272727,
                "pitch": 73,
                "velocity": 101,
                "duration": 3.1977273,
                "tempo": 120.0
            },
            {
                "start_time": 28.8272727,
                "end_time": 32.0181818,
                "pitch": 67,
                "velocity": 101,
                "duration": 3.1909091,
                "tempo": 120.0
            },
            {
                "start_time": 32.0181818,
                "end_time": 35.1954545,
                "pitch": 69,
                "velocity": 101,
                "duration": 3.1772727,
                "tempo": 120.0
            },
            {
                "start_time": 35.1954545,
                "end_time": 36.7954545,
                "pitch": 71,
                "velocity": 101,
                "duration": 1.6,
                "tempo": 120.0
            },
            {
                "start_time": 35.1954545,
                "end_time": 36.7954545,
                "pitch": 71,
                "velocity": 101,
                "duration": 1.6,
                "tempo": 120.0
            },
            {
                "start_time": 36.7954545,
                "end_time": 38.3818182,
                "pitch": 71,
                "velocity": 101,
                "duration": 1.5863636,
                "tempo": 120.0
            },
            {
                "start_time": 9.6681818,
                "end_time": 41.5704545,
                "pitch": 44,
                "velocity": 101,
                "duration": 31.9022727,
                "tempo": 120.0
            },
            {
                "start_time": 38.3818182,
                "end_time": 41.5704545,
                "pitch": 75,
                "velocity": 101,
                "duration": 3.1886364,
                "tempo": 120.0
            },
            {
                "start_time": 41.5704545,
                "end_time": 44.7568182,
                "pitch": 69,
                "velocity": 101,
                "duration": 3.1863636,
                "tempo": 120.0
            },
            {
                "start_time": 44.7568182,
                "end_time": 47.9454545,
                "pitch": 71,
                "velocity": 101,
                "duration": 3.1886364,
                "tempo": 120.0
            },
            {
                "start_time": 44.7568182,
                "end_time": 47.9454545,
                "pitch": 71,
                "velocity": 101,
                "duration": 3.1886364,
                "tempo": 120.0
            },
            {
                "start_time": 25.6295455,
                "end_time": 47.9454545,
                "pitch": 76,
                "velocity": 101,
                "duration": 22.3159091,
                "tempo": 120.0
            },
            {
                "start_time": 47.9454545,
                "end_time": 49.5409091,
                "pitch": 73,
                "velocity": 101,
                "duration": 1.5954545,
                "tempo": 120.0
            },
            {
                "start_time": 49.5409091,
                "end_time": 49.5431818,
                "pitch": 51,
                "velocity": 101,
                "duration": 0.0022727,
                "tempo": 120.0
            },
            {
                "start_time": 49.5431818,
                "end_time": 51.1318182,
                "pitch": 70,
                "velocity": 101,
                "duration": 1.5886364,
                "tempo": 120.0
            },
            {
                "start_time": 51.1318182,
                "end_time": 54.3181818,
                "pitch": 75,
                "velocity": 101,
                "duration": 3.1863636,
                "tempo": 120.0
            },
            {
                "start_time": 54.3204545,
                "end_time": 57.5045455,
                "pitch": 69,
                "velocity": 101,
                "duration": 3.1840909,
                "tempo": 120.0
            },
            {
                "start_time": 57.5045455,
                "end_time": 60.6909091,
                "pitch": 71,
                "velocity": 101,
                "duration": 3.1863636,
                "tempo": 120.0
            },
            {
                "start_time": 60.6909091,
                "end_time": 62.2886364,
                "pitch": 73,
                "velocity": 101,
                "duration": 1.5977273,
                "tempo": 120.0
            },
            {
                "start_time": 62.2886364,
                "end_time": 63.8795455,
                "pitch": 73,
                "velocity": 101,
                "duration": 1.5909091,
                "tempo": 120.0
            },
            {
                "start_time": 63.8795455,
                "end_time": 67.0704545,
                "pitch": 74,
                "velocity": 101,
                "duration": 3.1909091,
                "tempo": 120.0
            },
            {
                "start_time": 67.0704545,
                "end_time": 70.2636364,
                "pitch": 68,
                "velocity": 101,
                "duration": 3.1931818,
                "tempo": 120.0
            },
            {
                "start_time": 70.2636364,
                "end_time": 73.4545455,
                "pitch": 70,
                "velocity": 101,
                "duration": 3.1909091,
                "tempo": 120.0
            },
            {
                "start_time": 41.5704545,
                "end_time": 75.0545455,
                "pitch": 44,
                "velocity": 101,
                "duration": 33.4840909,
                "tempo": 120.0
            },
            {
                "start_time": 73.4545455,
                "end_time": 75.0545455,
                "pitch": 72,
                "velocity": 101,
                "duration": 1.6,
                "tempo": 120.0
            },
            {
                "start_time": 75.0545455,
                "end_time": 76.6477273,
                "pitch": 69,
                "velocity": 101,
                "duration": 1.5931818,
                "tempo": 120.0
            },
            {
                "start_time": 38.3818182,
                "end_time": 76.6477273,
                "pitch": 77,
                "velocity": 101,
                "duration": 38.2659091,
                "tempo": 120.0
            },
            {
                "start_time": 76.6477273,
                "end_time": 79.8409091,
                "pitch": 74,
                "velocity": 101,
                "duration": 3.1931818,
                "tempo": 120.0
            },
            {
                "start_time": 79.8409091,
                "end_time": 83.0318182,
                "pitch": 67,
                "velocity": 101,
                "duration": 3.1909091,
                "tempo": 120.0
            },
            {
                "start_time": 83.0318182,
                "end_time": 85.4363636,
                "pitch": 70,
                "velocity": 101,
                "duration": 2.4045455,
                "tempo": 120.0
            },
            {
                "start_time": 83.0318182,
                "end_time": 85.4363636,
                "pitch": 70,
                "velocity": 101,
                "duration": 2.4045455,
                "tempo": 120.0
            },
            {
                "start_time": 85.4363636,
                "end_time": 85.8363636,
                "pitch": 70,
                "velocity": 101,
                "duration": 0.4,
                "tempo": 120.0
            },
            {
                "start_time": 47.9454545,
                "end_time": 85.8363636,
                "pitch": 76,
                "velocity": 101,
                "duration": 37.8909091,
                "tempo": 120.0
            },
            {
                "start_time": 67.0704545,
                "end_time": 86.2272727,
                "pitch": 33,
                "velocity": 101,
                "duration": 19.1568182,
                "tempo": 120.0
            },
            {
                "start_time": 85.8363636,
                "end_time": 86.2272727,
                "pitch": 72,
                "velocity": 101,
                "duration": 0.3909091,
                "tempo": 120.0
            },
            {
                "start_time": 86.2272727,
                "end_time": 87.8318182,
                "pitch": 68,
                "velocity": 101,
                "duration": 1.6045455,
                "tempo": 120.0
            },
            {
                "start_time": 87.8318182,
                "end_time": 89.4227273,
                "pitch": 69,
                "velocity": 101,
                "duration": 1.5909091,
                "tempo": 120.0
            },
            {
                "start_time": 85.8363636,
                "end_time": 89.4227273,
                "pitch": 76,
                "velocity": 101,
                "duration": 3.5863636,
                "tempo": 120.0
            },
            {
                "start_time": 89.4227273,
                "end_time": 92.6159091,
                "pitch": 73,
                "velocity": 101,
                "duration": 3.1931818,
                "tempo": 120.0
            },
            {
                "start_time": 92.6159091,
                "end_time": 94.2159091,
                "pitch": 65,
                "velocity": 101,
                "duration": 1.6,
                "tempo": 120.0
            },
            {
                "start_time": 94.2159091,
                "end_time": 95.8090909,
                "pitch": 65,
                "velocity": 101,
                "duration": 1.5931818,
                "tempo": 120.0
            },
            {
                "start_time": 95.8090909,
                "end_time": 98.2113636,
                "pitch": 70,
                "velocity": 101,
                "duration": 2.4022727,
                "tempo": 120.0
            },
            {
                "start_time": 98.2113636,
                "end_time": 98.6022727,
                "pitch": 70,
                "velocity": 101,
                "duration": 0.3909091,
                "tempo": 120.0
            },
            {
                "start_time": 89.4227273,
                "end_time": 98.6022727,
                "pitch": 76,
                "velocity": 101,
                "duration": 9.1795455,
                "tempo": 120.0
            },
            {
                "start_time": 86.2272727,
                "end_time": 99.0022727,
                "pitch": 33,
                "velocity": 101,
                "duration": 12.775,
                "tempo": 120.0
            },
            {
                "start_time": 98.6022727,
                "end_time": 99.0022727,
                "pitch": 72,
                "velocity": 101,
                "duration": 0.4,
                "tempo": 120.0
            },
            {
                "start_time": 99.0022727,
                "end_time": 100.6045455,
                "pitch": 68,
                "velocity": 101,
                "duration": 1.6022727,
                "tempo": 120.0
            },
            {
                "start_time": 100.6045455,
                "end_time": 102.1931818,
                "pitch": 69,
                "velocity": 101,
                "duration": 1.5886364,
                "tempo": 120.0
            }
        ],
        "Vibraphone": [
            {
                "start_time": 0.0954545,
                "end_time": 1.6954545,
                "pitch": 76,
                "velocity": 127,
                "duration": 1.6,
                "tempo": 120.0
            },
            {
                "start_time": 1.6954545,
                "end_time": 2.2909091,
                "pitch": 86,
                "velocity": 127,
                "duration": 0.5954545,
                "tempo": 120.0
            },
            {
                "start_time": 2.2909091,
                "end_time": 2.8863636,
                "pitch": 85,
                "velocity": 127,
                "duration": 0.5954545,
                "tempo": 120.0
            },
            {
                "start_time": 2.8863636,
                "end_time": 3.2954545,
                "pitch": 81,
                "velocity": 127,
                "duration": 0.4090909,
                "tempo": 120.0
            },
            {
                "start_time": 3.2954545,
                "end_time": 4.8727273,
                "pitch": 76,
                "velocity": 127,
                "duration": 1.5772727,
                "tempo": 120.0
            },
            {
                "start_time": 4.8727273,
                "end_time": 5.4840909,
                "pitch": 86,
                "velocity": 127,
                "duration": 0.6113636,
                "tempo": 120.0
            },
            {
                "start_time": 5.4840909,
                "end_time": 6.0636364,
                "pitch": 85,
                "velocity": 127,
                "duration": 0.5795455,
                "tempo": 120.0
            },
            {
                "start_time": 6.0659091,
                "end_time": 6.475,
                "pitch": 81,
                "velocity": 127,
                "duration": 0.4090909,
                "tempo": 120.0
            },
            {
                "start_time": 6.475,
                "end_time": 8.0636364,
                "pitch": 78,
                "velocity": 127,
                "duration": 1.5886364,
                "tempo": 120.0
            },
            {
                "start_time": 8.0636364,
                "end_time": 8.675,
                "pitch": 86,
                "velocity": 127,
                "duration": 0.6113636,
                "tempo": 120.0
            },
            {
                "start_time": 2.8863636,
                "end_time": 9.2659091,
                "pitch": 56,
                "velocity": 127,
                "duration": 6.3795455,
                "tempo": 120.0
            },
            {
                "start_time": 8.675,
                "end_time": 9.2659091,
                "pitch": 85,
                "velocity": 127,
                "duration": 0.5909091,
                "tempo": 120.0
            },
            {
                "start_time": 9.2659091,
                "end_time": 9.6681818,
                "pitch": 81,
                "velocity": 127,
                "duration": 0.4022727,
                "tempo": 120.0
            },
            {
                "start_time": 3.2954545,
                "end_time": 9.6681818,
                "pitch": 90,
                "velocity": 127,
                "duration": 6.3727273,
                "tempo": 120.0
            },
            {
                "start_time": 9.6681818,
                "end_time": 11.2613636,
                "pitch": 76,
                "velocity": 127,
                "duration": 1.5931818,
                "tempo": 120.0
            },
            {
                "start_time": 11.2613636,
                "end_time": 11.8727273,
                "pitch": 86,
                "velocity": 127,
                "duration": 0.6113636,
                "tempo": 120.0
            },
            {
                "start_time": 11.8727273,
                "end_time": 12.4727273,
                "pitch": 85,
                "velocity": 127,
                "duration": 0.6,
                "tempo": 120.0
            },
            {
                "start_time": 12.4727273,
                "end_time": 12.875,
                "pitch": 81,
                "velocity": 127,
                "duration": 0.4022727,
                "tempo": 120.0
            },
            {
                "start_time": 12.875,
                "end_time": 13.075,
                "pitch": 69,
                "velocity": 80,
                "duration": 0.2,
                "tempo": 120.0
            },
            {
                "start_time": 13.075,
                "end_time": 13.2727273,
                "pitch": 73,
                "velocity": 80,
                "duration": 0.1977273,
                "tempo": 120.0
            },
            {
                "start_time": 13.2727273,
                "end_time": 13.4704545,
                "pitch": 76,
                "velocity": 80,
                "duration": 0.1977273,
                "tempo": 120.0
            },
            {
                "start_time": 13.2727273,
                "end_time": 13.4704545,
                "pitch": 76,
                "velocity": 80,
                "duration": 0.1977273,
                "tempo": 120.0
            },
            {
                "start_time": 13.4704545,
                "end_time": 13.8659091,
                "pitch": 69,
                "velocity": 80,
                "duration": 0.3954545,
                "tempo": 120.0
            },
            {
                "start_time": 13.8659091,
                "end_time": 14.0659091,
                "pitch": 73,
                "velocity": 80,
                "duration": 0.2,
                "tempo": 120.0
            },
            {
                "start_time": 13.8659091,
                "end_time": 14.2659091,
                "pitch": 76,
                "velocity": 80,
                "duration": 0.4,
                "tempo": 120.0
            },
            {
                "start_time": 14.0659091,
                "end_time": 14.2659091,
                "pitch": 76,
                "velocity": 80,
                "duration": 0.2,
                "tempo": 120.0
            },
            {
                "start_time": 14.2681818,
                "end_time": 14.4681818,
                "pitch": 81,
                "velocity": 80,
                "duration": 0.2,
                "tempo": 120.0
            },
            {
                "start_time": 14.4681818,
                "end_time": 14.6659091,
                "pitch": 69,
                "velocity": 80,
                "duration": 0.1977273,
                "tempo": 120.0
            },
            {
                "start_time": 14.6659091,
                "end_time": 14.6681818,
                "pitch": 76,
                "velocity": 80,
                "duration": 0.0022727,
                "tempo": 120.0
            },
            {
                "start_time": 14.6681818,
                "end_time": 14.8659091,
                "pitch": 73,
                "velocity": 80,
                "duration": 0.1977273,
                "tempo": 120.0
            },
            {
                "start_time": 14.8659091,
                "end_time": 15.0681818,
                "pitch": 76,
                "velocity": 80,
                "duration": 0.2022727,
                "tempo": 120.0
            },
            {
                "start_time": 14.8659091,
                "end_time": 15.0681818,
                "pitch": 76,
                "velocity": 80,
                "duration": 0.2022727,
                "tempo": 120.0
            },
            {
                "start_time": 15.0681818,
                "end_time": 15.4681818,
                "pitch": 69,
                "velocity": 80,
                "duration": 0.4,
                "tempo": 120.0
            },
            {
                "start_time": 15.4681818,
                "end_time": 15.6681818,
                "pitch": 73,
                "velocity": 80,
                "duration": 0.2,
                "tempo": 120.0
            },
            {
                "start_time": 15.4681818,
                "end_time": 15.6681818,
                "pitch": 76,
                "velocity": 80,
                "duration": 0.2,
                "tempo": 120.0
            },
            {
                "start_time": 15.6681818,
                "end_time": 15.8704545,
                "pitch": 76,
                "velocity": 80,
                "duration": 0.2022727,
                "tempo": 120.0
            },
            {
                "start_time": 15.6681818,
                "end_time": 15.8704545,
                "pitch": 76,
                "velocity": 80,
                "duration": 0.2022727,
                "tempo": 120.0
            },
            {
                "start_time": 15.8704545,
                "end_time": 16.0704545,
                "pitch": 81,
                "velocity": 80,
                "duration": 0.2,
                "tempo": 120.0
            },
            {
                "start_time": 16.0704545,
                "end_time": 16.2659091,
                "pitch": 67,
                "velocity": 80,
                "duration": 0.1954545,
                "tempo": 120.0
            },
            {
                "start_time": 16.2659091,
                "end_time": 16.4613636,
                "pitch": 73,
                "velocity": 80,
                "duration": 0.1954545,
                "tempo": 120.0
            },
            {
                "start_time": 16.4613636,
                "end_time": 16.6613636,
                "pitch": 76,
                "velocity": 80,
                "duration": 0.2,
                "tempo": 120.0
            },
            {
                "start_time": 16.4613636,
                "end_time": 16.6613636,
                "pitch": 76,
                "velocity": 80,
                "duration": 0.2,
                "tempo": 120.0
            },
            {
                "start_time": 16.6613636,
                "end_time": 17.0613636,
                "pitch": 67,
                "velocity": 80,
                "duration": 0.4,
                "tempo": 120.0
            },
            {
                "start_time": 17.0613636,
                "end_time": 17.2613636,
                "pitch": 73,
                "velocity": 80,
                "duration": 0.2,
                "tempo": 120.0
            },
            {
                "start_time": 17.0613636,
                "end_time": 17.2613636,
                "pitch": 76,
                "velocity": 80,
                "duration": 0.2,
                "tempo": 120.0
            },
            {
                "start_time": 17.2613636,
                "end_time": 17.4613636,
                "pitch": 76,
                "velocity": 80,
                "duration": 0.2,
                "tempo": 120.0
            },
            {
                "start_time": 17.2613636,
                "end_time": 17.4613636,
                "pitch": 76,
                "velocity": 80,
                "duration": 0.2,
                "tempo": 120.0
            },
            {
                "start_time": 17.4613636,
                "end_time": 17.6613636,
                "pitch": 79,
                "velocity": 80,
                "duration": 0.2,
                "tempo": 120.0
            },
            {
                "start_time": 17.6613636,
                "end_time": 17.8613636,
                "pitch": 67,
                "velocity": 80,
                "duration": 0.2,
                "tempo": 120.0
            },
            {
                "start_time": 17.8613636,
                "end_time": 18.0613636,
                "pitch": 73,
                "velocity": 80,
                "duration": 0.2,
                "tempo": 120.0
            },
            {
                "start_time": 17.8613636,
                "end_time": 18.0613636,
                "pitch": 76,
                "velocity": 80,
                "duration": 0.2,
                "tempo": 120.0
            },
            {
                "start_time": 17.4613636,
                "end_time": 18.2613636,
                "pitch": 2,
                "velocity": 80,
                "duration": 0.8,
                "tempo": 120.0
            },
            {
                "start_time": 18.0613636,
                "end_time": 18.2613636,
                "pitch": 76,
                "velocity": 80,
                "duration": 0.2,
                "tempo": 120.0
            },
            {
                "start_time": 18.0613636,
                "end_time": 18.2613636,
                "pitch": 76,
                "velocity": 80,
                "duration": 0.2,
                "tempo": 120.0
            },
            {
                "start_time": 18.2613636,
                "end_time": 18.6613636,
                "pitch": 67,
                "velocity": 80,
                "duration": 0.4,
                "tempo": 120.0
            },
            {
                "start_time": 18.6613636,
                "end_time": 18.8613636,
                "pitch": 73,
                "velocity": 80,
                "duration": 0.2,
                "tempo": 120.0
            },
            {
                "start_time": 18.8613636,
                "end_time": 19.0613636,
                "pitch": 76,
                "velocity": 80,
                "duration": 0.2,
                "tempo": 120.0
            },
            {
                "start_time": 18.8613636,
                "end_time": 19.0613636,
                "pitch": 76,
                "velocity": 80,
                "duration": 0.2,
                "tempo": 120.0
            },
            {
                "start_time": 19.0613636,
                "end_time": 19.2613636,
                "pitch": 79,
                "velocity": 80,
                "duration": 0.2,
                "tempo": 120.0
            },
            {
                "start_time": 19.2613636,
                "end_time": 19.4590909,
                "pitch": 69,
                "velocity": 80,
                "duration": 0.1977273,
                "tempo": 120.0
            },
            {
                "start_time": 19.4590909,
                "end_time": 19.6590909,
                "pitch": 73,
                "velocity": 80,
                "duration": 0.2,
                "tempo": 120.0
            },
            {
                "start_time": 19.6590909,
                "end_time": 19.8545455,
                "pitch": 78,
                "velocity": 80,
                "duration": 0.1954545,
                "tempo": 120.0
            },
            {
                "start_time": 19.6590909,
                "end_time": 19.8545455,
                "pitch": 78,
                "velocity": 80,
                "duration": 0.1954545,
                "tempo": 120.0
            },
            {
                "start_time": 19.8545455,
                "end_time": 20.25,
                "pitch": 69,
                "velocity": 80,
                "duration": 0.3954545,
                "tempo": 120.0
            },
            {
                "start_time": 20.25,
                "end_time": 20.4522727,
                "pitch": 73,
                "velocity": 80,
                "duration": 0.2022727,
                "tempo": 120.0
            },
            {
                "start_time": 20.4522727,
                "end_time": 20.65,
                "pitch": 78,
                "velocity": 80,
                "duration": 0.1977273,
                "tempo": 120.0
            },
            {
                "start_time": 20.4522727,
                "end_time": 20.65,
                "pitch": 78,
                "velocity": 80,
                "duration": 0.1977273,
                "tempo": 120.0
            },
            {
                "start_time": 19.8545455,
                "end_time": 20.6522727,
                "pitch": 44,
                "velocity": 80,
                "duration": 0.7977273,
                "tempo": 120.0
            },
            {
                "start_time": 20.65,
                "end_time": 20.6522727,
                "pitch": 44,
                "velocity": 80,
                "duration": 0.0022727,
                "tempo": 120.0
            },
            {
                "start_time": 20.6522727,
                "end_time": 20.85,
                "pitch": 81,
                "velocity": 80,
                "duration": 0.1977273,
                "tempo": 120.0
            },
            {
                "start_time": 20.85,
                "end_time": 21.05,
                "pitch": 69,
                "velocity": 80,
                "duration": 0.2,
                "tempo": 120.0
            },
            {
                "start_time": 20.25,
                "end_time": 21.05,
                "pitch": 76,
                "velocity": 80,
                "duration": 0.8,
                "tempo": 120.0
            },
            {
                "start_time": 21.05,
                "end_time": 21.25,
                "pitch": 73,
                "velocity": 80,
                "duration": 0.2,
                "tempo": 120.0
            },
            {
                "start_time": 21.25,
                "end_time": 21.45,
                "pitch": 78,
                "velocity": 80,
                "duration": 0.2,
                "tempo": 120.0
            },
            {
                "start_time": 21.25,
                "end_time": 21.45,
                "pitch": 78,
                "velocity": 80,
                "duration": 0.2,
                "tempo": 120.0
            },
            {
                "start_time": 21.45,
                "end_time": 21.85,
                "pitch": 69,
                "velocity": 80,
                "duration": 0.4,
                "tempo": 120.0
            },
            {
                "start_time": 21.05,
                "end_time": 21.85,
                "pitch": 76,
                "velocity": 80,
                "duration": 0.8,
                "tempo": 120.0
            },
            {
                "start_time": 21.85,
                "end_time": 22.05,
                "pitch": 73,
                "velocity": 80,
                "duration": 0.2,
                "tempo": 120.0
            },
            {
                "start_time": 22.05,
                "end_time": 22.2454545,
                "pitch": 78,
                "velocity": 80,
                "duration": 0.1954545,
                "tempo": 120.0
            },
            {
                "start_time": 22.05,
                "end_time": 22.2454545,
                "pitch": 78,
                "velocity": 80,
                "duration": 0.1954545,
                "tempo": 120.0
            },
            {
                "start_time": 22.2454545,
                "end_time": 22.4409091,
                "pitch": 81,
                "velocity": 80,
                "duration": 0.1954545,
                "tempo": 120.0
            },
            {
                "start_time": 22.4409091,
                "end_time": 22.6454545,
                "pitch": 68,
                "velocity": 80,
                "duration": 0.2045455,
                "tempo": 120.0
            },
            {
                "start_time": 22.6454545,
                "end_time": 22.85,
                "pitch": 71,
                "velocity": 80,
                "duration": 0.2045455,
                "tempo": 120.0
            },
            {
                "start_time": 22.6454545,
                "end_time": 22.85,
                "pitch": 71,
                "velocity": 80,
                "duration": 0.2045455,
                "tempo": 120.0
            },
            {
                "start_time": 21.85,
                "end_time": 23.0454545,
                "pitch": 76,
                "velocity": 80,
                "duration": 1.1954545,
                "tempo": 120.0
            },
            {
                "start_time": 22.85,
                "end_time": 23.0454545,
                "pitch": 76,
                "velocity": 80,
                "duration": 0.1954545,
                "tempo": 120.0
            },
            {
                "start_time": 23.0454545,
                "end_time": 23.4386364,
                "pitch": 68,
                "velocity": 80,
                "duration": 0.3931818,
                "tempo": 120.0
            },
            {
                "start_time": 23.4386364,
                "end_time": 23.6386364,
                "pitch": 71,
                "velocity": 80,
                "duration": 0.2,
                "tempo": 120.0
            },
            {
                "start_time": 23.4386364,
                "end_time": 23.6386364,
                "pitch": 71,
                "velocity": 80,
                "duration": 0.2,
                "tempo": 120.0
            },
            {
                "start_time": 23.6386364,
                "end_time": 23.8386364,
                "pitch": 76,
                "velocity": 80,
                "duration": 0.2,
                "tempo": 120.0
            },
            {
                "start_time": 23.8386364,
                "end_time": 24.0409091,
                "pitch": 80,
                "velocity": 80,
                "duration": 0.2022727,
                "tempo": 120.0
            },
            {
                "start_time": 24.0409091,
                "end_time": 24.2409091,
                "pitch": 68,
                "velocity": 80,
                "duration": 0.2,
                "tempo": 120.0
            },
            {
                "start_time": 24.2409091,
                "end_time": 24.4386364,
                "pitch": 71,
                "velocity": 80,
                "duration": 0.1977273,
                "tempo": 120.0
            },
            {
                "start_time": 22.85,
                "end_time": 24.4386364,
                "pitch": 78,
                "velocity": 80,
                "duration": 1.5886364,
                "tempo": 120.0
            },
            {
                "start_time": 23.8386364,
                "end_time": 24.6409091,
                "pitch": 33,
                "velocity": 80,
                "duration": 0.8022727,
                "tempo": 120.0
            },
            {
                "start_time": 24.4386364,
                "end_time": 24.6409091,
                "pitch": 76,
                "velocity": 80,
                "duration": 0.2022727,
                "tempo": 120.0
            },
            {
                "start_time": 24.6409091,
                "end_time": 25.0409091,
                "pitch": 68,
                "velocity": 80,
                "duration": 0.4,
                "tempo": 120.0
            },
            {
                "start_time": 25.0409091,
                "end_time": 25.2386364,
                "pitch": 71,
                "velocity": 80,
                "duration": 0.1977273,
                "tempo": 120.0
            },
            {
                "start_time": 24.4386364,
                "end_time": 25.2386364,
                "pitch": 78,
                "velocity": 80,
                "duration": 0.8,
                "tempo": 120.0
            },
            {
                "start_time": 24.6409091,
                "end_time": 25.4340909,
                "pitch": 33,
                "velocity": 80,
                "duration": 0.7931818,
                "tempo": 120.0
            },
            {
                "start_time": 25.2386364,
                "end_time": 25.4340909,
                "pitch": 76,
                "velocity": 80,
                "duration": 0.1954545,
                "tempo": 120.0
            },
            {
                "start_time": 25.4340909,
                "end_time": 25.6295455,
                "pitch": 80,
                "velocity": 80,
                "duration": 0.1954545,
                "tempo": 120.0
            },
            {
                "start_time": 25.6295455,
                "end_time": 25.8340909,
                "pitch": 69,
                "velocity": 80,
                "duration": 0.2045455,
                "tempo": 120.0
            },
            {
                "start_time": 25.8340909,
                "end_time": 26.0386364,
                "pitch": 73,
                "velocity": 80,
                "duration": 0.2045455,
                "tempo": 120.0
            },
            {
                "start_time": 25.8340909,
                "end_time": 26.0386364,
                "pitch": 76,
                "velocity": 80,
                "duration": 0.2045455,
                "tempo": 120.0
            },
            {
                "start_time": 22.2454545,
                "end_time": 26.2340909,
                "pitch": 44,
                "velocity": 80,
                "duration": 3.9886364,
                "tempo": 120.0
            },
            {
                "start_time": 26.0386364,
                "end_time": 26.2340909,
                "pitch": 76,
                "velocity": 80,
                "duration": 0.1954545,
                "tempo": 120.0
            },
            {
                "start_time": 26.0386364,
                "end_time": 26.2340909,
                "pitch": 76,
                "velocity": 80,
                "duration": 0.1954545,
                "tempo": 120.0
            },
            {
                "start_time": 26.2340909,
                "end_time": 26.6295455,
                "pitch": 69,
                "velocity": 80,
                "duration": 0.3954545,
                "tempo": 120.0
            },
            {
                "start_time": 26.6295455,
                "end_time": 26.8295455,
                "pitch": 73,
                "velocity": 80,
                "duration": 0.2,
                "tempo": 120.0
            },
            {
                "start_time": 26.6295455,
                "end_time": 26.8295455,
                "pitch": 76,
                "velocity": 80,
                "duration": 0.2,
                "tempo": 120.0
            },
            {
                "start_time": 26.8295455,
                "end_time": 27.0295455,
                "pitch": 76,
                "velocity": 80,
                "duration": 0.2,
                "tempo": 120.0
            },
            {
                "start_time": 26.8295455,
                "end_time": 27.0295455,
                "pitch": 76,
                "velocity": 80,
                "duration": 0.2,
                "tempo": 120.0
            },
            {
                "start_time": 27.0295455,
                "end_time": 27.2272727,
                "pitch": 81,
                "velocity": 80,
                "duration": 0.1977273,
                "tempo": 120.0
            },
            {
                "start_time": 27.2272727,
                "end_time": 27.4295455,
                "pitch": 69,
                "velocity": 80,
                "duration": 0.2022727,
                "tempo": 120.0
            },
            {
                "start_time": 27.4295455,
                "end_time": 27.6295455,
                "pitch": 73,
                "velocity": 80,
                "duration": 0.2,
                "tempo": 120.0
            },
            {
                "start_time": 27.4295455,
                "end_time": 27.6295455,
                "pitch": 76,
                "velocity": 80,
                "duration": 0.2,
                "tempo": 120.0
            },
            {
                "start_time": 26.2340909,
                "end_time": 27.8295455,
                "pitch": 44,
                "velocity": 80,
                "duration": 1.5954545,
                "tempo": 120.0
            },
            {
                "start_time": 27.6295455,
                "end_time": 27.8295455,
                "pitch": 76,
                "velocity": 80,
                "duration": 0.2,
                "tempo": 120.0
            },
            {
                "start_time": 27.6295455,
                "end_time": 27.8295455,
                "pitch": 76,
                "velocity": 80,
                "duration": 0.2,
                "tempo": 120.0
            },
            {
                "start_time": 27.8295455,
                "end_time": 28.2295455,
                "pitch": 69,
                "velocity": 80,
                "duration": 0.4,
                "tempo": 120.0
            },
            {
                "start_time": 28.2295455,
                "end_time": 28.4295455,
                "pitch": 73,
                "velocity": 80,
                "duration": 0.2,
                "tempo": 120.0
            },
            {
                "start_time": 28.4295455,
                "end_time": 28.6295455,
                "pitch": 76,
                "velocity": 80,
                "duration": 0.2,
                "tempo": 120.0
            },
            {
                "start_time": 28.4295455,
                "end_time": 28.6295455,
                "pitch": 76,
                "velocity": 80,
                "duration": 0.2,
                "tempo": 120.0
            },
            {
                "start_time": 28.6295455,
                "end_time": 28.8272727,
                "pitch": 81,
                "velocity": 80,
                "duration": 0.1977273,
                "tempo": 120.0
            },
            {
                "start_time": 28.8272727,
                "end_time": 29.0227273,
                "pitch": 67,
                "velocity": 80,
                "duration": 0.1954545,
                "tempo": 120.0
            },
            {
                "start_time": 29.0227273,
                "end_time": 29.2181818,
                "pitch": 73,
                "velocity": 80,
                "duration": 0.1954545,
                "tempo": 120.0
            },
            {
                "start_time": 29.0227273,
                "end_time": 29.2181818,
                "pitch": 76,
                "velocity": 80,
                "duration": 0.1954545,
                "tempo": 120.0
            },
            {
                "start_time": 29.2181818,
                "end_time": 29.4181818,
                "pitch": 76,
                "velocity": 80,
                "duration": 0.2,
                "tempo": 120.0
            },
            {
                "start_time": 29.2181818,
                "end_time": 29.4181818,
                "pitch": 76,
                "velocity": 80,
                "duration": 0.2,
                "tempo": 120.0
            },
            {
                "start_time": 29.4181818,
                "end_time": 29.8181818,
                "pitch": 67,
                "velocity": 80,
                "duration": 0.4,
                "tempo": 120.0
            },
            {
                "start_time": 29.8181818,
                "end_time": 30.0181818,
                "pitch": 73,
                "velocity": 80,
                "duration": 0.2,
                "tempo": 120.0
            },
            {
                "start_time": 29.8181818,
                "end_time": 30.0181818,
                "pitch": 76,
                "velocity": 80,
                "duration": 0.2,
                "tempo": 120.0
            },
            {
                "start_time": 18.2613636,
                "end_time": 30.2181818,
                "pitch": 2,
                "velocity": 80,
                "duration": 11.9568182,
                "tempo": 120.0
            },
            {
                "start_time": 30.0181818,
                "end_time": 30.2181818,
                "pitch": 76,
                "velocity": 80,
                "duration": 0.2,
                "tempo": 120.0
            },
            {
                "start_time": 30.0181818,
                "end_time": 30.2181818,
                "pitch": 76,
                "velocity": 80,
                "duration": 0.2,
                "tempo": 120.0
            },
            {
                "start_time": 30.2181818,
                "end_time": 30.4181818,
                "pitch": 79,
                "velocity": 80,
                "duration": 0.2,
                "tempo": 120.0
            },
            {
                "start_time": 30.4181818,
                "end_time": 30.6181818,
                "pitch": 67,
                "velocity": 80,
                "duration": 0.2,
                "tempo": 120.0
            },
            {
                "start_time": 30.6181818,
                "end_time": 30.8159091,
                "pitch": 73,
                "velocity": 80,
                "duration": 0.1977273,
                "tempo": 120.0
            },
            {
                "start_time": 30.2181818,
                "end_time": 31.0181818,
                "pitch": 2,
                "velocity": 80,
                "duration": 0.8,
                "tempo": 120.0
            },
            {
                "start_time": 30.8159091,
                "end_time": 31.0181818,
                "pitch": 76,
                "velocity": 80,
                "duration": 0.2022727,
                "tempo": 120.0
            },
            {
                "start_time": 30.8159091,
                "end_time": 31.0181818,
                "pitch": 76,
                "velocity": 80,
                "duration": 0.2022727,
                "tempo": 120.0
            },
            {
                "start_time": 31.0181818,
                "end_time": 31.4181818,
                "pitch": 67,
                "velocity": 80,
                "duration": 0.4,
                "tempo": 120.0
            },
            {
                "start_time": 31.4181818,
                "end_time": 31.6159091,
                "pitch": 73,
                "velocity": 80,
                "duration": 0.1977273,
                "tempo": 120.0
            },
            {
                "start_time": 31.4181818,
                "end_time": 31.6159091,
                "pitch": 76,
                "velocity": 80,
                "duration": 0.1977273,
                "tempo": 120.0
            },
            {
                "start_time": 31.0181818,
                "end_time": 31.8181818,
                "pitch": 2,
                "velocity": 80,
                "duration": 0.8,
                "tempo": 120.0
            },
            {
                "start_time": 31.6159091,
                "end_time": 31.8181818,
                "pitch": 76,
                "velocity": 80,
                "duration": 0.2022727,
                "tempo": 120.0
            },
            {
                "start_time": 31.6159091,
                "end_time": 31.8181818,
                "pitch": 76,
                "velocity": 80,
                "duration": 0.2022727,
                "tempo": 120.0
            },
            {
                "start_time": 31.8181818,
                "end_time": 32.0181818,
                "pitch": 79,
                "velocity": 80,
                "duration": 0.2,
                "tempo": 120.0
            },
            {
                "start_time": 32.0181818,
                "end_time": 32.2181818,
                "pitch": 69,
                "velocity": 80,
                "duration": 0.2,
                "tempo": 120.0
            },
            {
                "start_time": 32.2181818,
                "end_time": 32.4159091,
                "pitch": 73,
                "velocity": 80,
                "duration": 0.1977273,
                "tempo": 120.0
            },
            {
                "start_time": 27.8295455,
                "end_time": 32.6113636,
                "pitch": 44,
                "velocity": 80,
                "duration": 4.7818182,
                "tempo": 120.0
            },
            {
                "start_time": 25.2386364,
                "end_time": 32.6113636,
                "pitch": 78,
                "velocity": 80,
                "duration": 7.3727273,
                "tempo": 120.0
            },
            {
                "start_time": 32.4159091,
                "end_time": 32.6113636,
                "pitch": 78,
                "velocity": 80,
                "duration": 0.1954545,
                "tempo": 120.0
            },
            {
                "start_time": 32.6113636,
                "end_time": 33.0068182,
                "pitch": 69,
                "velocity": 80,
                "duration": 0.3954545,
                "tempo": 120.0
            },
            {
                "start_time": 33.0068182,
                "end_time": 33.2068182,
                "pitch": 73,
                "velocity": 80,
                "duration": 0.2,
                "tempo": 120.0
            },
            {
                "start_time": 33.2068182,
                "end_time": 33.4068182,
                "pitch": 78,
                "velocity": 80,
                "duration": 0.2,
                "tempo": 120.0
            },
            {
                "start_time": 33.2068182,
                "end_time": 33.4068182,
                "pitch": 78,
                "velocity": 80,
                "duration": 0.2,
                "tempo": 120.0
            },
            {
                "start_time": 33.4068182,
                "end_time": 33.6045455,
                "pitch": 81,
                "velocity": 80,
                "duration": 0.1977273,
                "tempo": 120.0
            },
            {
                "start_time": 33.6045455,
                "end_time": 33.8068182,
                "pitch": 69,
                "velocity": 80,
                "duration": 0.2022727,
                "tempo": 120.0
            },
            {
                "start_time": 32.2181818,
                "end_time": 33.8068182,
                "pitch": 76,
                "velocity": 80,
                "duration": 1.5886364,
                "tempo": 120.0
            },
            {
                "start_time": 33.8068182,
                "end_time": 34.0068182,
                "pitch": 73,
                "velocity": 80,
                "duration": 0.2,
                "tempo": 120.0
            },
            {
                "start_time": 32.6113636,
                "end_time": 34.2068182,
                "pitch": 44,
                "velocity": 80,
                "duration": 1.5954545,
                "tempo": 120.0
            },
            {
                "start_time": 34.0068182,
                "end_time": 34.2068182,
                "pitch": 78,
                "velocity": 80,
                "duration": 0.2,
                "tempo": 120.0
            },
            {
                "start_time": 34.0068182,
                "end_time": 34.2068182,
                "pitch": 78,
                "velocity": 80,
                "duration": 0.2,
                "tempo": 120.0
            },
            {
                "start_time": 34.2068182,
                "end_time": 34.6045455,
                "pitch": 69,
                "velocity": 80,
                "duration": 0.3977273,
                "tempo": 120.0
            },
            {
                "start_time": 33.8068182,
                "end_time": 34.6045455,
                "pitch": 76,
                "velocity": 80,
                "duration": 0.7977273,
                "tempo": 120.0
            },
            {
                "start_time": 34.6045455,
                "end_time": 34.8045455,
                "pitch": 73,
                "velocity": 80,
                "duration": 0.2,
                "tempo": 120.0
            },
            {
                "start_time": 34.2068182,
                "end_time": 35.0,
                "pitch": 44,
                "velocity": 80,
                "duration": 0.7931818,
                "tempo": 120.0
            },
            {
                "start_time": 34.8045455,
                "end_time": 35.0,
                "pitch": 78,
                "velocity": 80,
                "duration": 0.1954545,
                "tempo": 120.0
            },
            {
                "start_time": 34.8045455,
                "end_time": 35.0,
                "pitch": 78,
                "velocity": 80,
                "duration": 0.1954545,
                "tempo": 120.0
            },
            {
                "start_time": 35.0,
                "end_time": 35.1954545,
                "pitch": 81,
                "velocity": 80,
                "duration": 0.1954545,
                "tempo": 120.0
            },
            {
                "start_time": 35.1954545,
                "end_time": 35.4,
                "pitch": 68,
                "velocity": 80,
                "duration": 0.2045455,
                "tempo": 120.0
            },
            {
                "start_time": 35.4,
                "end_time": 35.6045455,
                "pitch": 71,
                "velocity": 80,
                "duration": 0.2045455,
                "tempo": 120.0
            },
            {
                "start_time": 34.6045455,
                "end_time": 35.8,
                "pitch": 76,
                "velocity": 80,
                "duration": 1.1954545,
                "tempo": 120.0
            },
            {
                "start_time": 35.6045455,
                "end_time": 35.8,
                "pitch": 76,
                "velocity": 80,
                "duration": 0.1954545,
                "tempo": 120.0
            },
            {
                "start_time": 35.8,
                "end_time": 36.1954545,
                "pitch": 68,
                "velocity": 80,
                "duration": 0.3954545,
                "tempo": 120.0
            },
            {
                "start_time": 36.1954545,
                "end_time": 36.3931818,
                "pitch": 71,
                "velocity": 80,
                "duration": 0.1977273,
                "tempo": 120.0
            },
            {
                "start_time": 36.1954545,
                "end_time": 36.3931818,
                "pitch": 71,
                "velocity": 80,
                "duration": 0.1977273,
                "tempo": 120.0
            },
            {
                "start_time": 35.6045455,
                "end_time": 36.3931818,
                "pitch": 78,
                "velocity": 80,
                "duration": 0.7886364,
                "tempo": 120.0
            },
            {
                "start_time": 25.4340909,
                "end_time": 36.5954545,
                "pitch": 33,
                "velocity": 80,
                "duration": 11.1613636,
                "tempo": 120.0
            },
            {
                "start_time": 36.3931818,
                "end_time": 36.5954545,
                "pitch": 76,
                "velocity": 80,
                "duration": 0.2022727,
                "tempo": 120.0
            },
            {
                "start_time": 36.5954545,
                "end_time": 36.7954545,
                "pitch": 80,
                "velocity": 80,
                "duration": 0.2,
                "tempo": 120.0
            },
            {
                "start_time": 36.7954545,
                "end_time": 36.9954545,
                "pitch": 68,
                "velocity": 80,
                "duration": 0.2,
                "tempo": 120.0
            },
            {
                "start_time": 36.9954545,
                "end_time": 37.1931818,
                "pitch": 71,
                "velocity": 80,
                "duration": 0.1977273,
                "tempo": 120.0
            },
            {
                "start_time": 36.9954545,
                "end_time": 37.1931818,
                "pitch": 71,
                "velocity": 80,
                "duration": 0.1977273,
                "tempo": 120.0
            },
            {
                "start_time": 36.3931818,
                "end_time": 37.1931818,
                "pitch": 78,
                "velocity": 80,
                "duration": 0.8,
                "tempo": 120.0
            },
            {
                "start_time": 37.1931818,
                "end_time": 37.3931818,
                "pitch": 76,
                "velocity": 80,
                "duration": 0.2,
                "tempo": 120.0
            },
            {
                "start_time": 37.3931818,
                "end_time": 37.7931818,
                "pitch": 68,
                "velocity": 80,
                "duration": 0.4,
                "tempo": 120.0
            },
            {
                "start_time": 37.7931818,
                "end_time": 37.9909091,
                "pitch": 71,
                "velocity": 80,
                "duration": 0.1977273,
                "tempo": 120.0
            },
            {
                "start_time": 37.7931818,
                "end_time": 37.9909091,
                "pitch": 71,
                "velocity": 80,
                "duration": 0.1977273,
                "tempo": 120.0
            },
            {
                "start_time": 37.1931818,
                "end_time": 37.9909091,
                "pitch": 78,
                "velocity": 80,
                "duration": 0.7977273,
                "tempo": 120.0
            },
            {
                "start_time": 36.5954545,
                "end_time": 38.1863636,
                "pitch": 33,
                "velocity": 80,
                "duration": 1.5909091,
                "tempo": 120.0
            },
            {
                "start_time": 37.9909091,
                "end_time": 38.1863636,
                "pitch": 76,
                "velocity": 80,
                "duration": 0.1954545,
                "tempo": 120.0
            },
            {
                "start_time": 38.1863636,
                "end_time": 38.3818182,
                "pitch": 80,
                "velocity": 80,
                "duration": 0.1954545,
                "tempo": 120.0
            },
            {
                "start_time": 38.3818182,
                "end_time": 38.5818182,
                "pitch": 71,
                "velocity": 80,
                "duration": 0.2,
                "tempo": 120.0
            },
            {
                "start_time": 38.5818182,
                "end_time": 38.7818182,
                "pitch": 75,
                "velocity": 80,
                "duration": 0.2,
                "tempo": 120.0
            },
            {
                "start_time": 37.9909091,
                "end_time": 38.7818182,
                "pitch": 78,
                "velocity": 80,
                "duration": 0.7909091,
                "tempo": 120.0
            },
            {
                "start_time": 9.2659091,
                "end_time": 38.9818182,
                "pitch": 56,
                "velocity": 127,
                "duration": 29.7159091,
                "tempo": 120.0
            },
            {
                "start_time": 38.7818182,
                "end_time": 38.9818182,
                "pitch": 78,
                "velocity": 80,
                "duration": 0.2,
                "tempo": 120.0
            },
            {
                "start_time": 38.7818182,
                "end_time": 38.9818182,
                "pitch": 78,
                "velocity": 80,
                "duration": 0.2,
                "tempo": 120.0
            },
            {
                "start_time": 38.9818182,
                "end_time": 39.3818182,
                "pitch": 71,
                "velocity": 80,
                "duration": 0.4,
                "tempo": 120.0
            },
            {
                "start_time": 38.5818182,
                "end_time": 39.3818182,
                "pitch": 77,
                "velocity": 80,
                "duration": 0.8,
                "tempo": 120.0
            },
            {
                "start_time": 39.3818182,
                "end_time": 39.5818182,
                "pitch": 75,
                "velocity": 80,
                "duration": 0.2,
                "tempo": 120.0
            },
            {
                "start_time": 39.5818182,
                "end_time": 39.7818182,
                "pitch": 78,
                "velocity": 80,
                "duration": 0.2,
                "tempo": 120.0
            },
            {
                "start_time": 39.5818182,
                "end_time": 39.7818182,
                "pitch": 78,
                "velocity": 80,
                "duration": 0.2,
                "tempo": 120.0
            },
            {
                "start_time": 39.7818182,
                "end_time": 39.9795455,
                "pitch": 83,
                "velocity": 80,
                "duration": 0.1977273,
                "tempo": 120.0
            },
            {
                "start_time": 39.9795455,
                "end_time": 40.1795455,
                "pitch": 71,
                "velocity": 80,
                "duration": 0.2,
                "tempo": 120.0
            },
            {
                "start_time": 40.1795455,
                "end_time": 40.3795455,
                "pitch": 75,
                "velocity": 80,
                "duration": 0.2,
                "tempo": 120.0
            },
            {
                "start_time": 40.3795455,
                "end_time": 40.575,
                "pitch": 78,
                "velocity": 80,
                "duration": 0.1954545,
                "tempo": 120.0
            },
            {
                "start_time": 40.575,
                "end_time": 40.975,
                "pitch": 71,
                "velocity": 80,
                "duration": 0.4,
                "tempo": 120.0
            },
            {
                "start_time": 39.3818182,
                "end_time": 40.975,
                "pitch": 77,
                "velocity": 80,
                "duration": 1.5931818,
                "tempo": 120.0
            },
            {
                "start_time": 40.975,
                "end_time": 41.1795455,
                "pitch": 75,
                "velocity": 80,
                "duration": 0.2045455,
                "tempo": 120.0
            },
            {
                "start_time": 38.9818182,
                "end_time": 41.375,
                "pitch": 56,
                "velocity": 80,
                "duration": 2.3931818,
                "tempo": 120.0
            },
            {
                "start_time": 41.1795455,
                "end_time": 41.375,
                "pitch": 78,
                "velocity": 80,
                "duration": 0.1954545,
                "tempo": 120.0
            },
            {
                "start_time": 41.375,
                "end_time": 41.5704545,
                "pitch": 83,
                "velocity": 80,
                "duration": 0.1954545,
                "tempo": 120.0
            },
            {
                "start_time": 41.5704545,
                "end_time": 41.7704545,
                "pitch": 69,
                "velocity": 80,
                "duration": 0.2,
                "tempo": 120.0
            },
            {
                "start_time": 41.7704545,
                "end_time": 41.9704545,
                "pitch": 75,
                "velocity": 80,
                "duration": 0.2,
                "tempo": 120.0
            },
            {
                "start_time": 35.0,
                "end_time": 42.1704545,
                "pitch": 44,
                "velocity": 80,
                "duration": 7.1704545,
                "tempo": 120.0
            },
            {
                "start_time": 41.9704545,
                "end_time": 42.1704545,
                "pitch": 78,
                "velocity": 80,
                "duration": 0.2,
                "tempo": 120.0
            },
            {
                "start_time": 41.9704545,
                "end_time": 42.1704545,
                "pitch": 78,
                "velocity": 80,
                "duration": 0.2,
                "tempo": 120.0
            },
            {
                "start_time": 42.1704545,
                "end_time": 42.5681818,
                "pitch": 69,
                "velocity": 80,
                "duration": 0.3977273,
                "tempo": 120.0
            },
            {
                "start_time": 40.975,
                "end_time": 42.5681818,
                "pitch": 77,
                "velocity": 80,
                "duration": 1.5931818,
                "tempo": 120.0
            },
            {
                "start_time": 42.5681818,
                "end_time": 42.7681818,
                "pitch": 75,
                "velocity": 80,
                "duration": 0.2,
                "tempo": 120.0
            },
            {
                "start_time": 42.1704545,
                "end_time": 42.9681818,
                "pitch": 44,
                "velocity": 80,
                "duration": 0.7977273,
                "tempo": 120.0
            },
            {
                "start_time": 42.7681818,
                "end_time": 42.9681818,
                "pitch": 78,
                "velocity": 80,
                "duration": 0.2,
                "tempo": 120.0
            },
            {
                "start_time": 42.9681818,
                "end_time": 43.1681818,
                "pitch": 81,
                "velocity": 80,
                "duration": 0.2,
                "tempo": 120.0
            },
            {
                "start_time": 43.1681818,
                "end_time": 43.3659091,
                "pitch": 69,
                "velocity": 80,
                "duration": 0.1977273,
                "tempo": 120.0
            },
            {
                "start_time": 42.5681818,
                "end_time": 43.3659091,
                "pitch": 77,
                "velocity": 80,
                "duration": 0.7977273,
                "tempo": 120.0
            },
            {
                "start_time": 43.3659091,
                "end_time": 43.5659091,
                "pitch": 75,
                "velocity": 80,
                "duration": 0.2,
                "tempo": 120.0
            },
            {
                "start_time": 42.9681818,
                "end_time": 43.7659091,
                "pitch": 44,
                "velocity": 80,
                "duration": 0.7977273,
                "tempo": 120.0
            },
            {
                "start_time": 43.5659091,
                "end_time": 43.7659091,
                "pitch": 78,
                "velocity": 80,
                "duration": 0.2,
                "tempo": 120.0
            },
            {
                "start_time": 43.5659091,
                "end_time": 43.7659091,
                "pitch": 78,
                "velocity": 80,
                "duration": 0.2,
                "tempo": 120.0
            },
            {
                "start_time": 43.7659091,
                "end_time": 44.1659091,
                "pitch": 69,
                "velocity": 80,
                "duration": 0.4,
                "tempo": 120.0
            },
            {
                "start_time": 43.3659091,
                "end_time": 44.1659091,
                "pitch": 77,
                "velocity": 80,
                "duration": 0.8,
                "tempo": 120.0
            },
            {
                "start_time": 44.1659091,
                "end_time": 44.3659091,
                "pitch": 75,
                "velocity": 80,
                "duration": 0.2,
                "tempo": 120.0
            },
            {
                "start_time": 43.7659091,
                "end_time": 44.5613636,
                "pitch": 44,
                "velocity": 80,
                "duration": 0.7954545,
                "tempo": 120.0
            },
            {
                "start_time": 44.3659091,
                "end_time": 44.5613636,
                "pitch": 78,
                "velocity": 80,
                "duration": 0.1954545,
                "tempo": 120.0
            },
            {
                "start_time": 44.5613636,
                "end_time": 44.7568182,
                "pitch": 81,
                "velocity": 80,
                "duration": 0.1954545,
                "tempo": 120.0
            },
            {
                "start_time": 44.7568182,
                "end_time": 44.9613636,
                "pitch": 71,
                "velocity": 80,
                "duration": 0.2045455,
                "tempo": 120.0
            },
            {
                "start_time": 38.1863636,
                "end_time": 45.1659091,
                "pitch": 33,
                "velocity": 80,
                "duration": 6.9795455,
                "tempo": 120.0
            },
            {
                "start_time": 44.9613636,
                "end_time": 45.1659091,
                "pitch": 75,
                "velocity": 80,
                "duration": 0.2045455,
                "tempo": 120.0
            },
            {
                "start_time": 45.1659091,
                "end_time": 45.3613636,
                "pitch": 80,
                "velocity": 80,
                "duration": 0.1954545,
                "tempo": 120.0
            },
            {
                "start_time": 45.3613636,
                "end_time": 45.7568182,
                "pitch": 71,
                "velocity": 80,
                "duration": 0.3954545,
                "tempo": 120.0
            },
            {
                "start_time": 44.1659091,
                "end_time": 45.7568182,
                "pitch": 77,
                "velocity": 80,
                "duration": 1.5909091,
                "tempo": 120.0
            },
            {
                "start_time": 45.1659091,
                "end_time": 45.9568182,
                "pitch": 33,
                "velocity": 80,
                "duration": 0.7909091,
                "tempo": 120.0
            },
            {
                "start_time": 45.7568182,
                "end_time": 45.9568182,
                "pitch": 75,
                "velocity": 80,
                "duration": 0.2,
                "tempo": 120.0
            },
            {
                "start_time": 45.9568182,
                "end_time": 46.1568182,
                "pitch": 80,
                "velocity": 80,
                "duration": 0.2,
                "tempo": 120.0
            },
            {
                "start_time": 44.7568182,
                "end_time": 46.1568182,
                "pitch": 83,
                "velocity": 80,
                "duration": 1.4,
                "tempo": 120.0
            },
            {
                "start_time": 46.1568182,
                "end_time": 46.3568182,
                "pitch": 83,
                "velocity": 80,
                "duration": 0.2,
                "tempo": 120.0
            },
            {
                "start_time": 46.1568182,
                "end_time": 46.3568182,
                "pitch": 83,
                "velocity": 80,
                "duration": 0.2,
                "tempo": 120.0
            },
            {
                "start_time": 46.3568182,
                "end_time": 46.5568182,
                "pitch": 71,
                "velocity": 80,
                "duration": 0.2,
                "tempo": 120.0
            },
            {
                "start_time": 45.7568182,
                "end_time": 46.5568182,
                "pitch": 77,
                "velocity": 80,
                "duration": 0.8,
                "tempo": 120.0
            },
            {
                "start_time": 46.5568182,
                "end_time": 46.7568182,
                "pitch": 75,
                "velocity": 80,
                "duration": 0.2,
                "tempo": 120.0
            },
            {
                "start_time": 46.7568182,
                "end_time": 46.9545455,
                "pitch": 80,
                "velocity": 80,
                "duration": 0.1977273,
                "tempo": 120.0
            },
            {
                "start_time": 46.9545455,
                "end_time": 47.3545455,
                "pitch": 71,
                "velocity": 80,
                "duration": 0.4,
                "tempo": 120.0
            },
            {
                "start_time": 45.9568182,
                "end_time": 47.5522727,
                "pitch": 33,
                "velocity": 80,
                "duration": 1.5954545,
                "tempo": 120.0
            },
            {
                "start_time": 47.3545455,
                "end_time": 47.5522727,
                "pitch": 75,
                "velocity": 80,
                "duration": 0.1977273,
                "tempo": 120.0
            },
            {
                "start_time": 47.5522727,
                "end_time": 47.75,
                "pitch": 80,
                "velocity": 80,
                "duration": 0.1977273,
                "tempo": 120.0
            },
            {
                "start_time": 46.9545455,
                "end_time": 47.75,
                "pitch": 83,
                "velocity": 80,
                "duration": 0.7954545,
                "tempo": 120.0
            },
            {
                "start_time": 47.75,
                "end_time": 47.9454545,
                "pitch": 83,
                "velocity": 80,
                "duration": 0.1954545,
                "tempo": 120.0
            },
            {
                "start_time": 47.75,
                "end_time": 47.9454545,
                "pitch": 83,
                "velocity": 80,
                "duration": 0.1954545,
                "tempo": 120.0
            },
            {
                "start_time": 47.9454545,
                "end_time": 48.1431818,
                "pitch": 70,
                "velocity": 80,
                "duration": 0.1977273,
                "tempo": 120.0
            },
            {
                "start_time": 48.1431818,
                "end_time": 48.3431818,
                "pitch": 73,
                "velocity": 80,
                "duration": 0.2,
                "tempo": 120.0
            },
            {
                "start_time": 48.3431818,
                "end_time": 48.5431818,
                "pitch": 78,
                "velocity": 80,
                "duration": 0.2,
                "tempo": 120.0
            },
            {
                "start_time": 48.3431818,
                "end_time": 48.5431818,
                "pitch": 78,
                "velocity": 80,
                "duration": 0.2,
                "tempo": 120.0
            },
            {
                "start_time": 48.5431818,
                "end_time": 48.9431818,
                "pitch": 70,
                "velocity": 80,
                "duration": 0.4,
                "tempo": 120.0
            },
            {
                "start_time": 48.9431818,
                "end_time": 49.1431818,
                "pitch": 73,
                "velocity": 80,
                "duration": 0.2,
                "tempo": 120.0
            },
            {
                "start_time": 49.1431818,
                "end_time": 49.3431818,
                "pitch": 78,
                "velocity": 80,
                "duration": 0.2,
                "tempo": 120.0
            },
            {
                "start_time": 49.1431818,
                "end_time": 49.3431818,
                "pitch": 78,
                "velocity": 80,
                "duration": 0.2,
                "tempo": 120.0
            },
            {
                "start_time": 49.3431818,
                "end_time": 49.5431818,
                "pitch": 82,
                "velocity": 80,
                "duration": 0.2,
                "tempo": 120.0
            },
            {
                "start_time": 49.5431818,
                "end_time": 49.7409091,
                "pitch": 70,
                "velocity": 80,
                "duration": 0.1977273,
                "tempo": 120.0
            },
            {
                "start_time": 48.1431818,
                "end_time": 49.7409091,
                "pitch": 76,
                "velocity": 80,
                "duration": 1.5977273,
                "tempo": 120.0
            },
            {
                "start_time": 49.7409091,
                "end_time": 49.9409091,
                "pitch": 73,
                "velocity": 80,
                "duration": 0.2,
                "tempo": 120.0
            },
            {
                "start_time": 49.3431818,
                "end_time": 50.1409091,
                "pitch": 51,
                "velocity": 80,
                "duration": 0.7977273,
                "tempo": 120.0
            },
            {
                "start_time": 49.9409091,
                "end_time": 50.1409091,
                "pitch": 78,
                "velocity": 80,
                "duration": 0.2,
                "tempo": 120.0
            },
            {
                "start_time": 49.9409091,
                "end_time": 50.1409091,
                "pitch": 78,
                "velocity": 80,
                "duration": 0.2,
                "tempo": 120.0
            },
            {
                "start_time": 50.1409091,
                "end_time": 50.5409091,
                "pitch": 70,
                "velocity": 80,
                "duration": 0.4,
                "tempo": 120.0
            },
            {
                "start_time": 49.7409091,
                "end_time": 50.5409091,
                "pitch": 76,
                "velocity": 80,
                "duration": 0.8,
                "tempo": 120.0
            },
            {
                "start_time": 50.5409091,
                "end_time": 50.7409091,
                "pitch": 73,
                "velocity": 80,
                "duration": 0.2,
                "tempo": 120.0
            },
            {
                "start_time": 50.1409091,
                "end_time": 50.9363636,
                "pitch": 51,
                "velocity": 80,
                "duration": 0.7954545,
                "tempo": 120.0
            },
            {
                "start_time": 50.7409091,
                "end_time": 50.9363636,
                "pitch": 78,
                "velocity": 80,
                "duration": 0.1954545,
                "tempo": 120.0
            },
            {
                "start_time": 50.9363636,
                "end_time": 51.1318182,
                "pitch": 82,
                "velocity": 80,
                "duration": 0.1954545,
                "tempo": 120.0
            },
            {
                "start_time": 51.1318182,
                "end_time": 51.3318182,
                "pitch": 71,
                "velocity": 80,
                "duration": 0.2,
                "tempo": 120.0
            },
            {
                "start_time": 51.3318182,
                "end_time": 51.5340909,
                "pitch": 75,
                "velocity": 80,
                "duration": 0.2022727,
                "tempo": 120.0
            },
            {
                "start_time": 41.375,
                "end_time": 51.7318182,
                "pitch": 56,
                "velocity": 80,
                "duration": 10.3568182,
                "tempo": 120.0
            },
            {
                "start_time": 51.5340909,
                "end_time": 51.7318182,
                "pitch": 78,
                "velocity": 80,
                "duration": 0.1977273,
                "tempo": 120.0
            },
            {
                "start_time": 51.5340909,
                "end_time": 51.7318182,
                "pitch": 78,
                "velocity": 80,
                "duration": 0.1977273,
                "tempo": 120.0
            },
            {
                "start_time": 51.7318182,
                "end_time": 52.1318182,
                "pitch": 71,
                "velocity": 80,
                "duration": 0.4,
                "tempo": 120.0
            },
            {
                "start_time": 52.1318182,
                "end_time": 52.3295455,
                "pitch": 75,
                "velocity": 80,
                "duration": 0.1977273,
                "tempo": 120.0
            },
            {
                "start_time": 52.3318182,
                "end_time": 52.5295455,
                "pitch": 78,
                "velocity": 80,
                "duration": 0.1977273,
                "tempo": 120.0
            },
            {
                "start_time": 52.5295455,
                "end_time": 52.7295455,
                "pitch": 83,
                "velocity": 80,
                "duration": 0.2,
                "tempo": 120.0
            },
            {
                "start_time": 52.7295455,
                "end_time": 52.9295455,
                "pitch": 71,
                "velocity": 80,
                "duration": 0.2,
                "tempo": 120.0
            },
            {
                "start_time": 52.9295455,
                "end_time": 53.1272727,
                "pitch": 75,
                "velocity": 80,
                "duration": 0.1977273,
                "tempo": 120.0
            },
            {
                "start_time": 51.7318182,
                "end_time": 53.3227273,
                "pitch": 56,
                "velocity": 80,
                "duration": 1.5909091,
                "tempo": 120.0
            },
            {
                "start_time": 53.1272727,
                "end_time": 53.3227273,
                "pitch": 78,
                "velocity": 80,
                "duration": 0.1954545,
                "tempo": 120.0
            },
            {
                "start_time": 53.3227273,
                "end_time": 53.7204545,
                "pitch": 71,
                "velocity": 80,
                "duration": 0.3977273,
                "tempo": 120.0
            },
            {
                "start_time": 46.5568182,
                "end_time": 53.7204545,
                "pitch": 77,
                "velocity": 80,
                "duration": 7.1636364,
                "tempo": 120.0
            },
            {
                "start_time": 53.7204545,
                "end_time": 53.9204545,
                "pitch": 75,
                "velocity": 80,
                "duration": 0.2,
                "tempo": 120.0
            },
            {
                "start_time": 53.9204545,
                "end_time": 54.1204545,
                "pitch": 78,
                "velocity": 80,
                "duration": 0.2,
                "tempo": 120.0
            },
            {
                "start_time": 53.9204545,
                "end_time": 54.1204545,
                "pitch": 78,
                "velocity": 80,
                "duration": 0.2,
                "tempo": 120.0
            },
            {
                "start_time": 54.1204545,
                "end_time": 54.3204545,
                "pitch": 83,
                "velocity": 80,
                "duration": 0.2,
                "tempo": 120.0
            },
            {
                "start_time": 54.3204545,
                "end_time": 54.5181818,
                "pitch": 69,
                "velocity": 80,
                "duration": 0.1977273,
                "tempo": 120.0
            },
            {
                "start_time": 53.7204545,
                "end_time": 54.5181818,
                "pitch": 77,
                "velocity": 80,
                "duration": 0.7977273,
                "tempo": 120.0
            },
            {
                "start_time": 54.5181818,
                "end_time": 54.7181818,
                "pitch": 75,
                "velocity": 80,
                "duration": 0.2,
                "tempo": 120.0
            },
            {
                "start_time": 44.5613636,
                "end_time": 54.9181818,
                "pitch": 44,
                "velocity": 80,
                "duration": 10.3568182,
                "tempo": 120.0
            },
            {
                "start_time": 54.7181818,
                "end_time": 54.9181818,
                "pitch": 78,
                "velocity": 80,
                "duration": 0.2,
                "tempo": 120.0
            },
            {
                "start_time": 54.7181818,
                "end_time": 54.9181818,
                "pitch": 78,
                "velocity": 80,
                "duration": 0.2,
                "tempo": 120.0
            },
            {
                "start_time": 54.9181818,
                "end_time": 55.3159091,
                "pitch": 69,
                "velocity": 80,
                "duration": 0.3977273,
                "tempo": 120.0
            },
            {
                "start_time": 54.5181818,
                "end_time": 55.3159091,
                "pitch": 77,
                "velocity": 80,
                "duration": 0.7977273,
                "tempo": 120.0
            },
            {
                "start_time": 55.3159091,
                "end_time": 55.5159091,
                "pitch": 75,
                "velocity": 80,
                "duration": 0.2,
                "tempo": 120.0
            },
            {
                "start_time": 54.9181818,
                "end_time": 55.7159091,
                "pitch": 44,
                "velocity": 80,
                "duration": 0.7977273,
                "tempo": 120.0
            },
            {
                "start_time": 55.5159091,
                "end_time": 55.7159091,
                "pitch": 78,
                "velocity": 80,
                "duration": 0.2,
                "tempo": 120.0
            },
            {
                "start_time": 55.5159091,
                "end_time": 55.7159091,
                "pitch": 78,
                "velocity": 80,
                "duration": 0.2,
                "tempo": 120.0
            },
            {
                "start_time": 54.3204545,
                "end_time": 55.9159091,
                "pitch": 81,
                "velocity": 80,
                "duration": 1.5954545,
                "tempo": 120.0
            },
            {
                "start_time": 55.7159091,
                "end_time": 55.9159091,
                "pitch": 81,
                "velocity": 80,
                "duration": 0.2,
                "tempo": 120.0
            },
            {
                "start_time": 55.9159091,
                "end_time": 56.1159091,
                "pitch": 69,
                "velocity": 80,
                "duration": 0.2,
                "tempo": 120.0
            },
            {
                "start_time": 55.3159091,
                "end_time": 56.1159091,
                "pitch": 77,
                "velocity": 80,
                "duration": 0.8,
                "tempo": 120.0
            },
            {
                "start_time": 56.1159091,
                "end_time": 56.3159091,
                "pitch": 75,
                "velocity": 80,
                "duration": 0.2,
                "tempo": 120.0
            },
            {
                "start_time": 55.7159091,
                "end_time": 56.5159091,
                "pitch": 44,
                "velocity": 80,
                "duration": 0.8,
                "tempo": 120.0
            },
            {
                "start_time": 56.3159091,
                "end_time": 56.5159091,
                "pitch": 78,
                "velocity": 80,
                "duration": 0.2,
                "tempo": 120.0
            },
            {
                "start_time": 56.3159091,
                "end_time": 56.5159091,
                "pitch": 78,
                "velocity": 80,
                "duration": 0.2,
                "tempo": 120.0
            },
            {
                "start_time": 56.5159091,
                "end_time": 56.9090909,
                "pitch": 69,
                "velocity": 80,
                "duration": 0.3931818,
                "tempo": 120.0
            },
            {
                "start_time": 56.1159091,
                "end_time": 56.9090909,
                "pitch": 77,
                "velocity": 80,
                "duration": 0.7931818,
                "tempo": 120.0
            },
            {
                "start_time": 56.9090909,
                "end_time": 57.1045455,
                "pitch": 75,
                "velocity": 80,
                "duration": 0.1954545,
                "tempo": 120.0
            },
            {
                "start_time": 56.5159091,
                "end_time": 57.3045455,
                "pitch": 44,
                "velocity": 80,
                "duration": 0.7886364,
                "tempo": 120.0
            },
            {
                "start_time": 57.1045455,
                "end_time": 57.3045455,
                "pitch": 78,
                "velocity": 80,
                "duration": 0.2,
                "tempo": 120.0
            },
            {
                "start_time": 57.1045455,
                "end_time": 57.3045455,
                "pitch": 78,
                "velocity": 80,
                "duration": 0.2,
                "tempo": 120.0
            },
            {
                "start_time": 57.3045455,
                "end_time": 57.5045455,
                "pitch": 81,
                "velocity": 80,
                "duration": 0.2,
                "tempo": 120.0
            },
            {
                "start_time": 57.5045455,
                "end_time": 57.7090909,
                "pitch": 71,
                "velocity": 80,
                "duration": 0.2045455,
                "tempo": 120.0
            },
            {
                "start_time": 56.9090909,
                "end_time": 57.7090909,
                "pitch": 77,
                "velocity": 80,
                "duration": 0.8,
                "tempo": 120.0
            },
            {
                "start_time": 57.7090909,
                "end_time": 57.9136364,
                "pitch": 75,
                "velocity": 80,
                "duration": 0.2045455,
                "tempo": 120.0
            },
            {
                "start_time": 57.9136364,
                "end_time": 58.1090909,
                "pitch": 80,
                "velocity": 80,
                "duration": 0.1954545,
                "tempo": 120.0
            },
            {
                "start_time": 57.5045455,
                "end_time": 58.1090909,
                "pitch": 83,
                "velocity": 80,
                "duration": 0.6045455,
                "tempo": 120.0
            },
            {
                "start_time": 58.1090909,
                "end_time": 58.5045455,
                "pitch": 71,
                "velocity": 80,
                "duration": 0.3954545,
                "tempo": 120.0
            },
            {
                "start_time": 57.7090909,
                "end_time": 58.5045455,
                "pitch": 77,
                "velocity": 80,
                "duration": 0.7954545,
                "tempo": 120.0
            },
            {
                "start_time": 47.5522727,
                "end_time": 58.7045455,
                "pitch": 33,
                "velocity": 80,
                "duration": 11.1522727,
                "tempo": 120.0
            },
            {
                "start_time": 58.5045455,
                "end_time": 58.7045455,
                "pitch": 75,
                "velocity": 80,
                "duration": 0.2,
                "tempo": 120.0
            },
            {
                "start_time": 58.7045455,
                "end_time": 58.9045455,
                "pitch": 80,
                "velocity": 80,
                "duration": 0.2,
                "tempo": 120.0
            },
            {
                "start_time": 58.1090909,
                "end_time": 58.9045455,
                "pitch": 83,
                "velocity": 80,
                "duration": 0.7954545,
                "tempo": 120.0
            },
            {
                "start_time": 58.9045455,
                "end_time": 59.1045455,
                "pitch": 83,
                "velocity": 80,
                "duration": 0.2,
                "tempo": 120.0
            },
            {
                "start_time": 58.9045455,
                "end_time": 59.1045455,
                "pitch": 83,
                "velocity": 80,
                "duration": 0.2,
                "tempo": 120.0
            },
            {
                "start_time": 59.1045455,
                "end_time": 59.3045455,
                "pitch": 71,
                "velocity": 80,
                "duration": 0.2,
                "tempo": 120.0
            },
            {
                "start_time": 58.5045455,
                "end_time": 59.3045455,
                "pitch": 77,
                "velocity": 80,
                "duration": 0.8,
                "tempo": 120.0
            },
            {
                "start_time": 58.7045455,
                "end_time": 59.5022727,
                "pitch": 33,
                "velocity": 80,
                "duration": 0.7977273,
                "tempo": 120.0
            },
            {
                "start_time": 59.3045455,
                "end_time": 59.5022727,
                "pitch": 75,
                "velocity": 80,
                "duration": 0.1977273,
                "tempo": 120.0
            },
            {
                "start_time": 59.5022727,
                "end_time": 59.7022727,
                "pitch": 80,
                "velocity": 80,
                "duration": 0.2,
                "tempo": 120.0
            },
            {
                "start_time": 59.7022727,
                "end_time": 60.1,
                "pitch": 71,
                "velocity": 80,
                "duration": 0.3977273,
                "tempo": 120.0
            },
            {
                "start_time": 59.3045455,
                "end_time": 60.1022727,
                "pitch": 77,
                "velocity": 80,
                "duration": 0.7977273,
                "tempo": 120.0
            },
            {
                "start_time": 60.1,
                "end_time": 60.1022727,
                "pitch": 77,
                "velocity": 80,
                "duration": 0.0022727,
                "tempo": 120.0
            },
            {
                "start_time": 60.1022727,
                "end_time": 60.3,
                "pitch": 75,
                "velocity": 80,
                "duration": 0.1977273,
                "tempo": 120.0
            },
            {
                "start_time": 60.3,
                "end_time": 60.4954545,
                "pitch": 80,
                "velocity": 80,
                "duration": 0.1954545,
                "tempo": 120.0
            },
            {
                "start_time": 59.7022727,
                "end_time": 60.4954545,
                "pitch": 83,
                "velocity": 80,
                "duration": 0.7931818,
                "tempo": 120.0
            },
            {
                "start_time": 60.4954545,
                "end_time": 60.6909091,
                "pitch": 83,
                "velocity": 80,
                "duration": 0.1954545,
                "tempo": 120.0
            },
            {
                "start_time": 60.4954545,
                "end_time": 60.6909091,
                "pitch": 83,
                "velocity": 80,
                "duration": 0.1954545,
                "tempo": 120.0
            },
            {
                "start_time": 60.6909091,
                "end_time": 60.8909091,
                "pitch": 70,
                "velocity": 80,
                "duration": 0.2,
                "tempo": 120.0
            },
            {
                "start_time": 60.8909091,
                "end_time": 61.0931818,
                "pitch": 73,
                "velocity": 80,
                "duration": 0.2022727,
                "tempo": 120.0
            },
            {
                "start_time": 61.0931818,
                "end_time": 61.2931818,
                "pitch": 78,
                "velocity": 80,
                "duration": 0.2,
                "tempo": 120.0
            },
            {
                "start_time": 61.2931818,
                "end_time": 61.6909091,
                "pitch": 70,
                "velocity": 80,
                "duration": 0.3977273,
                "tempo": 120.0
            },
            {
                "start_time": 50.5409091,
                "end_time": 61.6909091,
                "pitch": 76,
                "velocity": 80,
                "duration": 11.15,
                "tempo": 120.0
            },
            {
                "start_time": 61.6909091,
                "end_time": 61.8909091,
                "pitch": 73,
                "velocity": 80,
                "duration": 0.2,
                "tempo": 120.0
            },
            {
                "start_time": 61.8909091,
                "end_time": 62.0909091,
                "pitch": 78,
                "velocity": 80,
                "duration": 0.2,
                "tempo": 120.0
            },
            {
                "start_time": 61.8909091,
                "end_time": 62.0909091,
                "pitch": 78,
                "velocity": 80,
                "duration": 0.2,
                "tempo": 120.0
            },
            {
                "start_time": 62.0909091,
                "end_time": 62.2886364,
                "pitch": 82,
                "velocity": 80,
                "duration": 0.1977273,
                "tempo": 120.0
            },
            {
                "start_time": 62.2886364,
                "end_time": 62.4886364,
                "pitch": 70,
                "velocity": 80,
                "duration": 0.2,
                "tempo": 120.0
            },
            {
                "start_time": 61.6909091,
                "end_time": 62.4886364,
                "pitch": 76,
                "velocity": 80,
                "duration": 0.7977273,
                "tempo": 120.0
            },
            {
                "start_time": 62.4886364,
                "end_time": 62.6886364,
                "pitch": 73,
                "velocity": 80,
                "duration": 0.2,
                "tempo": 120.0
            },
            {
                "start_time": 50.9363636,
                "end_time": 62.8886364,
                "pitch": 51,
                "velocity": 80,
                "duration": 11.9522727,
                "tempo": 120.0
            },
            {
                "start_time": 62.6886364,
                "end_time": 62.8886364,
                "pitch": 78,
                "velocity": 80,
                "duration": 0.2,
                "tempo": 120.0
            },
            {
                "start_time": 62.6886364,
                "end_time": 62.8886364,
                "pitch": 78,
                "velocity": 80,
                "duration": 0.2,
                "tempo": 120.0
            },
            {
                "start_time": 62.8886364,
                "end_time": 63.2840909,
                "pitch": 70,
                "velocity": 80,
                "duration": 0.3954545,
                "tempo": 120.0
            },
            {
                "start_time": 62.4886364,
                "end_time": 63.2840909,
                "pitch": 76,
                "velocity": 80,
                "duration": 0.7954545,
                "tempo": 120.0
            },
            {
                "start_time": 63.2840909,
                "end_time": 63.4795455,
                "pitch": 73,
                "velocity": 80,
                "duration": 0.1954545,
                "tempo": 120.0
            },
            {
                "start_time": 62.8886364,
                "end_time": 63.6795455,
                "pitch": 51,
                "velocity": 80,
                "duration": 0.7909091,
                "tempo": 120.0
            },
            {
                "start_time": 63.4795455,
                "end_time": 63.6795455,
                "pitch": 78,
                "velocity": 80,
                "duration": 0.2,
                "tempo": 120.0
            },
            {
                "start_time": 63.4795455,
                "end_time": 63.6795455,
                "pitch": 78,
                "velocity": 80,
                "duration": 0.2,
                "tempo": 120.0
            },
            {
                "start_time": 63.6795455,
                "end_time": 63.8795455,
                "pitch": 82,
                "velocity": 80,
                "duration": 0.2,
                "tempo": 120.0
            },
            {
                "start_time": 63.8795455,
                "end_time": 64.0772727,
                "pitch": 70,
                "velocity": 80,
                "duration": 0.1977273,
                "tempo": 120.0
            },
            {
                "start_time": 8.0636364,
                "end_time": 64.2772727,
                "pitch": 74,
                "velocity": 127,
                "duration": 56.2136364,
                "tempo": 120.0
            },
            {
                "start_time": 64.0772727,
                "end_time": 64.2772727,
                "pitch": 74,
                "velocity": 80,
                "duration": 0.2,
                "tempo": 120.0
            },
            {
                "start_time": 63.6795455,
                "end_time": 64.4772727,
                "pitch": 51,
                "velocity": 80,
                "duration": 0.7977273,
                "tempo": 120.0
            },
            {
                "start_time": 64.2772727,
                "end_time": 64.4772727,
                "pitch": 77,
                "velocity": 80,
                "duration": 0.2,
                "tempo": 120.0
            },
            {
                "start_time": 64.2772727,
                "end_time": 64.4772727,
                "pitch": 77,
                "velocity": 80,
                "duration": 0.2,
                "tempo": 120.0
            },
            {
                "start_time": 64.4772727,
                "end_time": 64.8772727,
                "pitch": 70,
                "velocity": 80,
                "duration": 0.4,
                "tempo": 120.0
            },
            {
                "start_time": 64.8772727,
                "end_time": 65.0772727,
                "pitch": 74,
                "velocity": 80,
                "duration": 0.2,
                "tempo": 120.0
            },
            {
                "start_time": 64.8772727,
                "end_time": 65.0772727,
                "pitch": 77,
                "velocity": 80,
                "duration": 0.2,
                "tempo": 120.0
            },
            {
                "start_time": 64.4772727,
                "end_time": 65.2772727,
                "pitch": 51,
                "velocity": 80,
                "duration": 0.8,
                "tempo": 120.0
            },
            {
                "start_time": 65.0772727,
                "end_time": 65.2772727,
                "pitch": 77,
                "velocity": 80,
                "duration": 0.2,
                "tempo": 120.0
            },
            {
                "start_time": 65.0772727,
                "end_time": 65.2772727,
                "pitch": 77,
                "velocity": 80,
                "duration": 0.2,
                "tempo": 120.0
            },
            {
                "start_time": 65.2772727,
                "end_time": 65.4795455,
                "pitch": 82,
                "velocity": 80,
                "duration": 0.2022727,
                "tempo": 120.0
            },
            {
                "start_time": 65.4795455,
                "end_time": 65.6772727,
                "pitch": 70,
                "velocity": 80,
                "duration": 0.1977273,
                "tempo": 120.0
            },
            {
                "start_time": 65.6772727,
                "end_time": 65.8772727,
                "pitch": 74,
                "velocity": 80,
                "duration": 0.2,
                "tempo": 120.0
            },
            {
                "start_time": 65.6772727,
                "end_time": 65.8772727,
                "pitch": 77,
                "velocity": 80,
                "duration": 0.2,
                "tempo": 120.0
            },
            {
                "start_time": 65.2772727,
                "end_time": 66.0727273,
                "pitch": 51,
                "velocity": 80,
                "duration": 0.7954545,
                "tempo": 120.0
            },
            {
                "start_time": 65.8772727,
                "end_time": 66.0727273,
                "pitch": 77,
                "velocity": 80,
                "duration": 0.1954545,
                "tempo": 120.0
            },
            {
                "start_time": 65.8772727,
                "end_time": 66.0727273,
                "pitch": 77,
                "velocity": 80,
                "duration": 0.1954545,
                "tempo": 120.0
            },
            {
                "start_time": 66.0727273,
                "end_time": 66.4681818,
                "pitch": 70,
                "velocity": 80,
                "duration": 0.3954545,
                "tempo": 120.0
            },
            {
                "start_time": 66.4681818,
                "end_time": 66.6704545,
                "pitch": 74,
                "velocity": 80,
                "duration": 0.2022727,
                "tempo": 120.0
            },
            {
                "start_time": 66.0727273,
                "end_time": 66.8704545,
                "pitch": 51,
                "velocity": 80,
                "duration": 0.7977273,
                "tempo": 120.0
            },
            {
                "start_time": 66.4681818,
                "end_time": 66.8704545,
                "pitch": 77,
                "velocity": 80,
                "duration": 0.4022727,
                "tempo": 120.0
            },
            {
                "start_time": 66.6704545,
                "end_time": 66.8704545,
                "pitch": 77,
                "velocity": 80,
                "duration": 0.2,
                "tempo": 120.0
            },
            {
                "start_time": 66.8704545,
                "end_time": 67.0704545,
                "pitch": 82,
                "velocity": 80,
                "duration": 0.2,
                "tempo": 120.0
            },
            {
                "start_time": 67.0704545,
                "end_time": 67.2704545,
                "pitch": 68,
                "velocity": 80,
                "duration": 0.2,
                "tempo": 120.0
            },
            {
                "start_time": 67.2704545,
                "end_time": 67.4704545,
                "pitch": 74,
                "velocity": 80,
                "duration": 0.2,
                "tempo": 120.0
            },
            {
                "start_time": 67.4704545,
                "end_time": 67.6704545,
                "pitch": 77,
                "velocity": 80,
                "duration": 0.2,
                "tempo": 120.0
            },
            {
                "start_time": 67.4704545,
                "end_time": 67.6704545,
                "pitch": 77,
                "velocity": 80,
                "duration": 0.2,
                "tempo": 120.0
            },
            {
                "start_time": 67.6704545,
                "end_time": 68.0704545,
                "pitch": 68,
                "velocity": 80,
                "duration": 0.4,
                "tempo": 120.0
            },
            {
                "start_time": 68.0704545,
                "end_time": 68.2704545,
                "pitch": 74,
                "velocity": 80,
                "duration": 0.2,
                "tempo": 120.0
            },
            {
                "start_time": 68.0704545,
                "end_time": 68.2704545,
                "pitch": 77,
                "velocity": 80,
                "duration": 0.2,
                "tempo": 120.0
            },
            {
                "start_time": 59.5022727,
                "end_time": 68.4704545,
                "pitch": 33,
                "velocity": 80,
                "duration": 8.9681818,
                "tempo": 120.0
            },
            {
                "start_time": 68.2704545,
                "end_time": 68.4704545,
                "pitch": 77,
                "velocity": 80,
                "duration": 0.2,
                "tempo": 120.0
            },
            {
                "start_time": 68.2704545,
                "end_time": 68.4704545,
                "pitch": 77,
                "velocity": 80,
                "duration": 0.2,
                "tempo": 120.0
            },
            {
                "start_time": 68.4704545,
                "end_time": 68.6704545,
                "pitch": 80,
                "velocity": 80,
                "duration": 0.2,
                "tempo": 120.0
            },
            {
                "start_time": 68.6704545,
                "end_time": 68.8727273,
                "pitch": 68,
                "velocity": 80,
                "duration": 0.2022727,
                "tempo": 120.0
            },
            {
                "start_time": 68.8727273,
                "end_time": 69.0727273,
                "pitch": 74,
                "velocity": 80,
                "duration": 0.2,
                "tempo": 120.0
            },
            {
                "start_time": 68.4704545,
                "end_time": 69.2727273,
                "pitch": 33,
                "velocity": 80,
                "duration": 0.8022727,
                "tempo": 120.0
            },
            {
                "start_time": 69.0727273,
                "end_time": 69.2727273,
                "pitch": 77,
                "velocity": 80,
                "duration": 0.2,
                "tempo": 120.0
            },
            {
                "start_time": 69.0727273,
                "end_time": 69.2727273,
                "pitch": 77,
                "velocity": 80,
                "duration": 0.2,
                "tempo": 120.0
            },
            {
                "start_time": 69.2727273,
                "end_time": 69.6681818,
                "pitch": 68,
                "velocity": 80,
                "duration": 0.3954545,
                "tempo": 120.0
            },
            {
                "start_time": 69.6681818,
                "end_time": 69.8636364,
                "pitch": 74,
                "velocity": 80,
                "duration": 0.1954545,
                "tempo": 120.0
            },
            {
                "start_time": 69.2727273,
                "end_time": 70.0636364,
                "pitch": 33,
                "velocity": 80,
                "duration": 0.7909091,
                "tempo": 120.0
            },
            {
                "start_time": 69.8636364,
                "end_time": 70.0636364,
                "pitch": 77,
                "velocity": 80,
                "duration": 0.2,
                "tempo": 120.0
            },
            {
                "start_time": 70.0636364,
                "end_time": 70.2636364,
                "pitch": 80,
                "velocity": 80,
                "duration": 0.2,
                "tempo": 120.0
            },
            {
                "start_time": 70.2636364,
                "end_time": 70.4636364,
                "pitch": 70,
                "velocity": 80,
                "duration": 0.2,
                "tempo": 120.0
            },
            {
                "start_time": 31.8181818,
                "end_time": 70.6636364,
                "pitch": 2,
                "velocity": 80,
                "duration": 38.8454545,
                "tempo": 120.0
            },
            {
                "start_time": 70.4636364,
                "end_time": 70.6636364,
                "pitch": 74,
                "velocity": 80,
                "duration": 0.2,
                "tempo": 120.0
            },
            {
                "start_time": 70.6636364,
                "end_time": 70.8636364,
                "pitch": 79,
                "velocity": 80,
                "duration": 0.2,
                "tempo": 120.0
            },
            {
                "start_time": 70.2636364,
                "end_time": 70.8636364,
                "pitch": 82,
                "velocity": 80,
                "duration": 0.6,
                "tempo": 120.0
            },
            {
                "start_time": 70.8636364,
                "end_time": 71.2636364,
                "pitch": 70,
                "velocity": 80,
                "duration": 0.4,
                "tempo": 120.0
            },
            {
                "start_time": 70.6636364,
                "end_time": 71.4636364,
                "pitch": 2,
                "velocity": 80,
                "duration": 0.8,
                "tempo": 120.0
            },
            {
                "start_time": 71.2636364,
                "end_time": 71.4636364,
                "pitch": 74,
                "velocity": 80,
                "duration": 0.2,
                "tempo": 120.0
            },
            {
                "start_time": 71.4636364,
                "end_time": 71.6590909,
                "pitch": 79,
                "velocity": 80,
                "duration": 0.1954545,
                "tempo": 120.0
            },
            {
                "start_time": 70.8636364,
                "end_time": 71.6590909,
                "pitch": 82,
                "velocity": 80,
                "duration": 0.7954545,
                "tempo": 120.0
            },
            {
                "start_time": 71.6590909,
                "end_time": 71.8545455,
                "pitch": 82,
                "velocity": 80,
                "duration": 0.1954545,
                "tempo": 120.0
            },
            {
                "start_time": 71.6590909,
                "end_time": 71.8545455,
                "pitch": 82,
                "velocity": 80,
                "duration": 0.1954545,
                "tempo": 120.0
            },
            {
                "start_time": 71.8545455,
                "end_time": 72.0590909,
                "pitch": 70,
                "velocity": 80,
                "duration": 0.2045455,
                "tempo": 120.0
            },
            {
                "start_time": 71.4636364,
                "end_time": 72.2636364,
                "pitch": 2,
                "velocity": 80,
                "duration": 0.8,
                "tempo": 120.0
            },
            {
                "start_time": 72.0590909,
                "end_time": 72.2636364,
                "pitch": 74,
                "velocity": 80,
                "duration": 0.2045455,
                "tempo": 120.0
            },
            {
                "start_time": 72.2636364,
                "end_time": 72.4590909,
                "pitch": 79,
                "velocity": 80,
                "duration": 0.1954545,
                "tempo": 120.0
            },
            {
                "start_time": 72.4590909,
                "end_time": 72.8522727,
                "pitch": 70,
                "velocity": 80,
                "duration": 0.3931818,
                "tempo": 120.0
            },
            {
                "start_time": 70.4636364,
                "end_time": 72.8522727,
                "pitch": 77,
                "velocity": 80,
                "duration": 2.3886364,
                "tempo": 120.0
            },
            {
                "start_time": 72.8522727,
                "end_time": 73.0522727,
                "pitch": 74,
                "velocity": 80,
                "duration": 0.2,
                "tempo": 120.0
            },
            {
                "start_time": 73.0522727,
                "end_time": 73.2522727,
                "pitch": 79,
                "velocity": 80,
                "duration": 0.2,
                "tempo": 120.0
            },
            {
                "start_time": 72.4590909,
                "end_time": 73.2522727,
                "pitch": 82,
                "velocity": 80,
                "duration": 0.7931818,
                "tempo": 120.0
            },
            {
                "start_time": 73.2522727,
                "end_time": 73.4545455,
                "pitch": 82,
                "velocity": 80,
                "duration": 0.2022727,
                "tempo": 120.0
            },
            {
                "start_time": 73.2522727,
                "end_time": 73.4545455,
                "pitch": 82,
                "velocity": 80,
                "duration": 0.2022727,
                "tempo": 120.0
            },
            {
                "start_time": 73.4545455,
                "end_time": 73.6522727,
                "pitch": 69,
                "velocity": 80,
                "duration": 0.1977273,
                "tempo": 120.0
            },
            {
                "start_time": 63.2840909,
                "end_time": 73.6522727,
                "pitch": 76,
                "velocity": 80,
                "duration": 10.3681818,
                "tempo": 120.0
            },
            {
                "start_time": 73.6522727,
                "end_time": 73.8522727,
                "pitch": 72,
                "velocity": 80,
                "duration": 0.2,
                "tempo": 120.0
            },
            {
                "start_time": 72.8522727,
                "end_time": 73.8522727,
                "pitch": 77,
                "velocity": 80,
                "duration": 1.0,
                "tempo": 120.0
            },
            {
                "start_time": 57.3045455,
                "end_time": 74.0545455,
                "pitch": 44,
                "velocity": 80,
                "duration": 16.75,
                "tempo": 120.0
            },
            {
                "start_time": 73.8522727,
                "end_time": 74.0545455,
                "pitch": 77,
                "velocity": 80,
                "duration": 0.2022727,
                "tempo": 120.0
            },
            {
                "start_time": 73.8522727,
                "end_time": 74.0545455,
                "pitch": 77,
                "velocity": 80,
                "duration": 0.2022727,
                "tempo": 120.0
            },
            {
                "start_time": 74.0545455,
                "end_time": 74.4545455,
                "pitch": 69,
                "velocity": 80,
                "duration": 0.4,
                "tempo": 120.0
            },
            {
                "start_time": 73.6522727,
                "end_time": 74.4545455,
                "pitch": 76,
                "velocity": 80,
                "duration": 0.8022727,
                "tempo": 120.0
            },
            {
                "start_time": 74.4545455,
                "end_time": 74.6545455,
                "pitch": 72,
                "velocity": 80,
                "duration": 0.2,
                "tempo": 120.0
            },
            {
                "start_time": 74.6545455,
                "end_time": 74.8545455,
                "pitch": 77,
                "velocity": 80,
                "duration": 0.2,
                "tempo": 120.0
            },
            {
                "start_time": 74.6545455,
                "end_time": 74.8545455,
                "pitch": 77,
                "velocity": 80,
                "duration": 0.2,
                "tempo": 120.0
            },
            {
                "start_time": 74.8545455,
                "end_time": 75.0545455,
                "pitch": 81,
                "velocity": 80,
                "duration": 0.2,
                "tempo": 120.0
            },
            {
                "start_time": 75.0545455,
                "end_time": 75.2545455,
                "pitch": 69,
                "velocity": 80,
                "duration": 0.2,
                "tempo": 120.0
            },
            {
                "start_time": 75.2545455,
                "end_time": 75.4568182,
                "pitch": 72,
                "velocity": 80,
                "duration": 0.2022727,
                "tempo": 120.0
            },
            {
                "start_time": 74.0545455,
                "end_time": 75.6545455,
                "pitch": 44,
                "velocity": 80,
                "duration": 1.6,
                "tempo": 120.0
            },
            {
                "start_time": 75.4568182,
                "end_time": 75.6545455,
                "pitch": 77,
                "velocity": 80,
                "duration": 0.1977273,
                "tempo": 120.0
            },
            {
                "start_time": 75.4568182,
                "end_time": 75.6545455,
                "pitch": 77,
                "velocity": 80,
                "duration": 0.1977273,
                "tempo": 120.0
            },
            {
                "start_time": 75.6545455,
                "end_time": 76.05,
                "pitch": 69,
                "velocity": 80,
                "duration": 0.3954545,
                "tempo": 120.0
            },
            {
                "start_time": 74.4545455,
                "end_time": 76.05,
                "pitch": 76,
                "velocity": 80,
                "duration": 1.5954545,
                "tempo": 120.0
            },
            {
                "start_time": 76.05,
                "end_time": 76.2454545,
                "pitch": 72,
                "velocity": 80,
                "duration": 0.1954545,
                "tempo": 120.0
            },
            {
                "start_time": 75.6545455,
                "end_time": 76.4454545,
                "pitch": 44,
                "velocity": 80,
                "duration": 0.7909091,
                "tempo": 120.0
            },
            {
                "start_time": 76.2454545,
                "end_time": 76.4454545,
                "pitch": 77,
                "velocity": 80,
                "duration": 0.2,
                "tempo": 120.0
            },
            {
                "start_time": 76.4454545,
                "end_time": 76.6477273,
                "pitch": 81,
                "velocity": 80,
                "duration": 0.2022727,
                "tempo": 120.0
            },
            {
                "start_time": 76.6477273,
                "end_time": 76.8477273,
                "pitch": 70,
                "velocity": 80,
                "duration": 0.2,
                "tempo": 120.0
            },
            {
                "start_time": 76.8477273,
                "end_time": 77.0477273,
                "pitch": 82,
                "velocity": 80,
                "duration": 0.2,
                "tempo": 120.0
            },
            {
                "start_time": 77.0477273,
                "end_time": 77.2477273,
                "pitch": 70,
                "velocity": 80,
                "duration": 0.2,
                "tempo": 120.0
            },
            {
                "start_time": 77.2477273,
                "end_time": 77.4477273,
                "pitch": 82,
                "velocity": 80,
                "duration": 0.2,
                "tempo": 120.0
            },
            {
                "start_time": 77.6477273,
                "end_time": 77.8477273,
                "pitch": 82,
                "velocity": 80,
                "duration": 0.2,
                "tempo": 120.0
            },
            {
                "start_time": 77.8477273,
                "end_time": 78.0477273,
                "pitch": 70,
                "velocity": 80,
                "duration": 0.2,
                "tempo": 120.0
            },
            {
                "start_time": 78.0477273,
                "end_time": 78.2477273,
                "pitch": 82,
                "velocity": 80,
                "duration": 0.2,
                "tempo": 120.0
            },
            {
                "start_time": 78.4477273,
                "end_time": 78.6477273,
                "pitch": 82,
                "velocity": 80,
                "duration": 0.2,
                "tempo": 120.0
            },
            {
                "start_time": 78.6477273,
                "end_time": 78.85,
                "pitch": 70,
                "velocity": 80,
                "duration": 0.2022727,
                "tempo": 120.0
            },
            {
                "start_time": 78.85,
                "end_time": 79.05,
                "pitch": 82,
                "velocity": 80,
                "duration": 0.2,
                "tempo": 120.0
            },
            {
                "start_time": 79.2454545,
                "end_time": 79.4409091,
                "pitch": 70,
                "velocity": 80,
                "duration": 0.1954545,
                "tempo": 120.0
            },
            {
                "start_time": 79.4409091,
                "end_time": 79.6409091,
                "pitch": 70,
                "velocity": 80,
                "duration": 0.2,
                "tempo": 120.0
            },
            {
                "start_time": 79.6409091,
                "end_time": 79.8409091,
                "pitch": 82,
                "velocity": 80,
                "duration": 0.2,
                "tempo": 120.0
            },
            {
                "start_time": 79.8409091,
                "end_time": 80.0409091,
                "pitch": 63,
                "velocity": 80,
                "duration": 0.2,
                "tempo": 120.0
            },
            {
                "start_time": 80.0409091,
                "end_time": 80.2409091,
                "pitch": 75,
                "velocity": 80,
                "duration": 0.2,
                "tempo": 120.0
            },
            {
                "start_time": 80.2409091,
                "end_time": 80.4409091,
                "pitch": 63,
                "velocity": 80,
                "duration": 0.2,
                "tempo": 120.0
            },
            {
                "start_time": 80.4409091,
                "end_time": 80.6409091,
                "pitch": 75,
                "velocity": 80,
                "duration": 0.2,
                "tempo": 120.0
            },
            {
                "start_time": 80.8409091,
                "end_time": 81.0409091,
                "pitch": 75,
                "velocity": 80,
                "duration": 0.2,
                "tempo": 120.0
            },
            {
                "start_time": 81.0409091,
                "end_time": 81.2431818,
                "pitch": 63,
                "velocity": 80,
                "duration": 0.2022727,
                "tempo": 120.0
            },
            {
                "start_time": 81.2431818,
                "end_time": 81.4431818,
                "pitch": 75,
                "velocity": 80,
                "duration": 0.2,
                "tempo": 120.0
            },
            {
                "start_time": 81.6431818,
                "end_time": 81.8409091,
                "pitch": 75,
                "velocity": 80,
                "duration": 0.1977273,
                "tempo": 120.0
            },
            {
                "start_time": 81.8409091,
                "end_time": 82.0363636,
                "pitch": 63,
                "velocity": 80,
                "duration": 0.1954545,
                "tempo": 120.0
            },
            {
                "start_time": 82.0363636,
                "end_time": 82.2318182,
                "pitch": 75,
                "velocity": 80,
                "duration": 0.1954545,
                "tempo": 120.0
            },
            {
                "start_time": 82.4340909,
                "end_time": 82.6340909,
                "pitch": 63,
                "velocity": 80,
                "duration": 0.2,
                "tempo": 120.0
            },
            {
                "start_time": 82.6340909,
                "end_time": 82.8340909,
                "pitch": 63,
                "velocity": 80,
                "duration": 0.2,
                "tempo": 120.0
            },
            {
                "start_time": 82.8340909,
                "end_time": 83.0318182,
                "pitch": 75,
                "velocity": 80,
                "duration": 0.1977273,
                "tempo": 120.0
            },
            {
                "start_time": 83.0318182,
                "end_time": 83.2340909,
                "pitch": 66,
                "velocity": 80,
                "duration": 0.2022727,
                "tempo": 120.0
            },
            {
                "start_time": 83.2340909,
                "end_time": 83.4340909,
                "pitch": 78,
                "velocity": 80,
                "duration": 0.2,
                "tempo": 120.0
            },
            {
                "start_time": 83.4340909,
                "end_time": 83.6340909,
                "pitch": 66,
                "velocity": 80,
                "duration": 0.2,
                "tempo": 120.0
            },
            {
                "start_time": 83.6340909,
                "end_time": 83.8363636,
                "pitch": 78,
                "velocity": 80,
                "duration": 0.2022727,
                "tempo": 120.0
            },
            {
                "start_time": 84.0340909,
                "end_time": 84.2340909,
                "pitch": 78,
                "velocity": 80,
                "duration": 0.2,
                "tempo": 120.0
            },
            {
                "start_time": 84.2340909,
                "end_time": 84.4340909,
                "pitch": 66,
                "velocity": 80,
                "duration": 0.2,
                "tempo": 120.0
            },
            {
                "start_time": 84.4340909,
                "end_time": 84.6363636,
                "pitch": 78,
                "velocity": 80,
                "duration": 0.2022727,
                "tempo": 120.0
            },
            {
                "start_time": 84.8340909,
                "end_time": 85.0340909,
                "pitch": 78,
                "velocity": 80,
                "duration": 0.2,
                "tempo": 120.0
            },
            {
                "start_time": 85.0340909,
                "end_time": 85.2340909,
                "pitch": 66,
                "velocity": 80,
                "duration": 0.2,
                "tempo": 120.0
            },
            {
                "start_time": 85.2340909,
                "end_time": 85.4363636,
                "pitch": 78,
                "velocity": 80,
                "duration": 0.2022727,
                "tempo": 120.0
            },
            {
                "start_time": 85.6363636,
                "end_time": 85.8363636,
                "pitch": 66,
                "velocity": 80,
                "duration": 0.2,
                "tempo": 120.0
            },
            {
                "start_time": 85.8363636,
                "end_time": 86.0318182,
                "pitch": 66,
                "velocity": 80,
                "duration": 0.1954545,
                "tempo": 120.0
            },
            {
                "start_time": 70.0636364,
                "end_time": 86.2272727,
                "pitch": 33,
                "velocity": 80,
                "duration": 16.1636364,
                "tempo": 120.0
            },
            {
                "start_time": 86.0318182,
                "end_time": 86.2272727,
                "pitch": 78,
                "velocity": 80,
                "duration": 0.1954545,
                "tempo": 120.0
            },
            {
                "start_time": 86.2272727,
                "end_time": 86.4295455,
                "pitch": 68,
                "velocity": 80,
                "duration": 0.2022727,
                "tempo": 120.0
            },
            {
                "start_time": 86.4295455,
                "end_time": 86.6295455,
                "pitch": 80,
                "velocity": 80,
                "duration": 0.2,
                "tempo": 120.0
            },
            {
                "start_time": 86.6295455,
                "end_time": 86.8295455,
                "pitch": 68,
                "velocity": 80,
                "duration": 0.2,
                "tempo": 120.0
            },
            {
                "start_time": 86.8295455,
                "end_time": 87.0318182,
                "pitch": 80,
                "velocity": 80,
                "duration": 0.2022727,
                "tempo": 120.0
            },
            {
                "start_time": 87.2295455,
                "end_time": 87.4295455,
                "pitch": 80,
                "velocity": 80,
                "duration": 0.2,
                "tempo": 120.0
            },
            {
                "start_time": 87.4295455,
                "end_time": 87.6295455,
                "pitch": 68,
                "velocity": 80,
                "duration": 0.2,
                "tempo": 120.0
            },
            {
                "start_time": 87.6295455,
                "end_time": 87.8318182,
                "pitch": 80,
                "velocity": 80,
                "duration": 0.2022727,
                "tempo": 120.0
            },
            {
                "start_time": 88.0295455,
                "end_time": 88.2295455,
                "pitch": 81,
                "velocity": 80,
                "duration": 0.2,
                "tempo": 120.0
            },
            {
                "start_time": 88.2295455,
                "end_time": 88.425,
                "pitch": 69,
                "velocity": 80,
                "duration": 0.1954545,
                "tempo": 120.0
            },
            {
                "start_time": 88.425,
                "end_time": 88.6204545,
                "pitch": 81,
                "velocity": 80,
                "duration": 0.1954545,
                "tempo": 120.0
            },
            {
                "start_time": 88.8204545,
                "end_time": 89.0227273,
                "pitch": 69,
                "velocity": 80,
                "duration": 0.2022727,
                "tempo": 120.0
            },
            {
                "start_time": 89.0227273,
                "end_time": 89.2227273,
                "pitch": 69,
                "velocity": 80,
                "duration": 0.2,
                "tempo": 120.0
            },
            {
                "start_time": 89.2227273,
                "end_time": 89.4227273,
                "pitch": 81,
                "velocity": 80,
                "duration": 0.2,
                "tempo": 120.0
            },
            {
                "start_time": 89.4227273,
                "end_time": 89.6227273,
                "pitch": 70,
                "velocity": 80,
                "duration": 0.2,
                "tempo": 120.0
            },
            {
                "start_time": 89.6227273,
                "end_time": 89.8227273,
                "pitch": 82,
                "velocity": 80,
                "duration": 0.2,
                "tempo": 120.0
            },
            {
                "start_time": 89.8227273,
                "end_time": 90.0227273,
                "pitch": 70,
                "velocity": 80,
                "duration": 0.2,
                "tempo": 120.0
            },
            {
                "start_time": 90.0227273,
                "end_time": 90.2227273,
                "pitch": 82,
                "velocity": 80,
                "duration": 0.2,
                "tempo": 120.0
            },
            {
                "start_time": 90.4227273,
                "end_time": 90.6227273,
                "pitch": 82,
                "velocity": 80,
                "duration": 0.2,
                "tempo": 120.0
            },
            {
                "start_time": 90.6227273,
                "end_time": 90.8227273,
                "pitch": 70,
                "velocity": 80,
                "duration": 0.2,
                "tempo": 120.0
            },
            {
                "start_time": 90.8227273,
                "end_time": 91.0227273,
                "pitch": 82,
                "velocity": 80,
                "duration": 0.2,
                "tempo": 120.0
            },
            {
                "start_time": 91.225,
                "end_time": 91.425,
                "pitch": 82,
                "velocity": 80,
                "duration": 0.2,
                "tempo": 120.0
            },
            {
                "start_time": 91.425,
                "end_time": 91.625,
                "pitch": 70,
                "velocity": 80,
                "duration": 0.2,
                "tempo": 120.0
            },
            {
                "start_time": 91.625,
                "end_time": 91.8227273,
                "pitch": 82,
                "velocity": 80,
                "duration": 0.1977273,
                "tempo": 120.0
            },
            {
                "start_time": 92.0181818,
                "end_time": 92.2136364,
                "pitch": 70,
                "velocity": 80,
                "duration": 0.1954545,
                "tempo": 120.0
            },
            {
                "start_time": 92.2136364,
                "end_time": 92.4159091,
                "pitch": 70,
                "velocity": 80,
                "duration": 0.2022727,
                "tempo": 120.0
            },
            {
                "start_time": 92.4159091,
                "end_time": 92.6159091,
                "pitch": 82,
                "velocity": 80,
                "duration": 0.2,
                "tempo": 120.0
            },
            {
                "start_time": 9.6681818,
                "end_time": 92.6159091,
                "pitch": 90,
                "velocity": 127,
                "duration": 82.9477273,
                "tempo": 120.0
            },
            {
                "start_time": 92.6159091,
                "end_time": 92.8159091,
                "pitch": 65,
                "velocity": 80,
                "duration": 0.2,
                "tempo": 120.0
            },
            {
                "start_time": 92.8159091,
                "end_time": 93.0136364,
                "pitch": 77,
                "velocity": 80,
                "duration": 0.1977273,
                "tempo": 120.0
            },
            {
                "start_time": 93.0159091,
                "end_time": 93.2159091,
                "pitch": 65,
                "velocity": 80,
                "duration": 0.2,
                "tempo": 120.0
            },
            {
                "start_time": 93.2159091,
                "end_time": 93.4159091,
                "pitch": 77,
                "velocity": 80,
                "duration": 0.2,
                "tempo": 120.0
            },
            {
                "start_time": 93.6159091,
                "end_time": 93.8181818,
                "pitch": 77,
                "velocity": 80,
                "duration": 0.2022727,
                "tempo": 120.0
            },
            {
                "start_time": 93.8181818,
                "end_time": 94.0181818,
                "pitch": 65,
                "velocity": 80,
                "duration": 0.2,
                "tempo": 120.0
            },
            {
                "start_time": 94.0181818,
                "end_time": 94.2159091,
                "pitch": 77,
                "velocity": 80,
                "duration": 0.1977273,
                "tempo": 120.0
            },
            {
                "start_time": 94.4181818,
                "end_time": 94.6181818,
                "pitch": 77,
                "velocity": 80,
                "duration": 0.2,
                "tempo": 120.0
            },
            {
                "start_time": 94.6181818,
                "end_time": 94.8181818,
                "pitch": 65,
                "velocity": 80,
                "duration": 0.2,
                "tempo": 120.0
            },
            {
                "start_time": 94.8181818,
                "end_time": 95.0159091,
                "pitch": 77,
                "velocity": 80,
                "duration": 0.1977273,
                "tempo": 120.0
            },
            {
                "start_time": 95.2113636,
                "end_time": 95.4068182,
                "pitch": 65,
                "velocity": 80,
                "duration": 0.1954545,
                "tempo": 120.0
            },
            {
                "start_time": 95.4068182,
                "end_time": 95.6090909,
                "pitch": 65,
                "velocity": 80,
                "duration": 0.2022727,
                "tempo": 120.0
            },
            {
                "start_time": 95.6090909,
                "end_time": 95.8090909,
                "pitch": 77,
                "velocity": 80,
                "duration": 0.2,
                "tempo": 120.0
            },
            {
                "start_time": 95.8090909,
                "end_time": 96.0090909,
                "pitch": 66,
                "velocity": 80,
                "duration": 0.2,
                "tempo": 120.0
            },
            {
                "start_time": 96.0090909,
                "end_time": 96.2113636,
                "pitch": 78,
                "velocity": 80,
                "duration": 0.2022727,
                "tempo": 120.0
            },
            {
                "start_time": 96.2113636,
                "end_time": 96.4090909,
                "pitch": 66,
                "velocity": 80,
                "duration": 0.1977273,
                "tempo": 120.0
            },
            {
                "start_time": 96.4090909,
                "end_time": 96.6090909,
                "pitch": 78,
                "velocity": 80,
                "duration": 0.2,
                "tempo": 120.0
            },
            {
                "start_time": 96.8090909,
                "end_time": 97.0113636,
                "pitch": 78,
                "velocity": 80,
                "duration": 0.2022727,
                "tempo": 120.0
            },
            {
                "start_time": 97.0113636,
                "end_time": 97.2090909,
                "pitch": 66,
                "velocity": 80,
                "duration": 0.1977273,
                "tempo": 120.0
            },
            {
                "start_time": 97.2090909,
                "end_time": 97.4090909,
                "pitch": 78,
                "velocity": 80,
                "duration": 0.2,
                "tempo": 120.0
            },
            {
                "start_time": 97.6090909,
                "end_time": 97.8113636,
                "pitch": 78,
                "velocity": 80,
                "duration": 0.2022727,
                "tempo": 120.0
            },
            {
                "start_time": 97.8113636,
                "end_time": 98.0113636,
                "pitch": 66,
                "velocity": 80,
                "duration": 0.2,
                "tempo": 120.0
            },
            {
                "start_time": 98.0113636,
                "end_time": 98.2113636,
                "pitch": 78,
                "velocity": 80,
                "duration": 0.2,
                "tempo": 120.0
            },
            {
                "start_time": 98.4068182,
                "end_time": 98.6022727,
                "pitch": 66,
                "velocity": 80,
                "duration": 0.1954545,
                "tempo": 120.0
            },
            {
                "start_time": 98.6022727,
                "end_time": 98.8022727,
                "pitch": 66,
                "velocity": 80,
                "duration": 0.2,
                "tempo": 120.0
            },
            {
                "start_time": 86.2272727,
                "end_time": 99.0022727,
                "pitch": 33,
                "velocity": 80,
                "duration": 12.775,
                "tempo": 120.0
            },
            {
                "start_time": 98.8022727,
                "end_time": 99.0022727,
                "pitch": 78,
                "velocity": 80,
                "duration": 0.2,
                "tempo": 120.0
            },
            {
                "start_time": 99.0022727,
                "end_time": 99.2022727,
                "pitch": 68,
                "velocity": 80,
                "duration": 0.2,
                "tempo": 120.0
            },
            {
                "start_time": 99.2022727,
                "end_time": 99.4022727,
                "pitch": 80,
                "velocity": 80,
                "duration": 0.2,
                "tempo": 120.0
            },
            {
                "start_time": 99.4022727,
                "end_time": 99.6022727,
                "pitch": 68,
                "velocity": 80,
                "duration": 0.2,
                "tempo": 120.0
            },
            {
                "start_time": 99.6022727,
                "end_time": 99.8022727,
                "pitch": 80,
                "velocity": 80,
                "duration": 0.2,
                "tempo": 120.0
            },
            {
                "start_time": 100.0022727,
                "end_time": 100.2022727,
                "pitch": 80,
                "velocity": 80,
                "duration": 0.2,
                "tempo": 120.0
            },
            {
                "start_time": 100.2022727,
                "end_time": 100.4045455,
                "pitch": 68,
                "velocity": 80,
                "duration": 0.2022727,
                "tempo": 120.0
            },
            {
                "start_time": 100.4045455,
                "end_time": 100.6045455,
                "pitch": 80,
                "velocity": 80,
                "duration": 0.2,
                "tempo": 120.0
            },
            {
                "start_time": 100.8045455,
                "end_time": 101.0022727,
                "pitch": 81,
                "velocity": 80,
                "duration": 0.1977273,
                "tempo": 120.0
            },
            {
                "start_time": 101.0022727,
                "end_time": 101.1977273,
                "pitch": 69,
                "velocity": 80,
                "duration": 0.1954545,
                "tempo": 120.0
            },
            {
                "start_time": 101.1977273,
                "end_time": 101.3931818,
                "pitch": 81,
                "velocity": 80,
                "duration": 0.1954545,
                "tempo": 120.0
            },
            {
                "start_time": 101.5954545,
                "end_time": 101.7954545,
                "pitch": 69,
                "velocity": 80,
                "duration": 0.2,
                "tempo": 120.0
            },
            {
                "start_time": 101.7954545,
                "end_time": 101.9954545,
                "pitch": 69,
                "velocity": 80,
                "duration": 0.2,
                "tempo": 120.0
            },
            {
                "start_time": 101.9954545,
                "end_time": 102.1931818,
                "pitch": 81,
                "velocity": 80,
                "duration": 0.1977273,
                "tempo": 120.0
            }
        ]
    }
}