{
    "mood": "happy",
    "instruments": {
        "Harpsichord": [
            {
                "start_time": 0.0295455,
                "end_time": 0.8227273,
                "pitch": 61,
                "velocity": 51,
                "duration": 0.7931818,
                "tempo": 120.0
            },
            {
                "start_time": 0.8227273,
                "end_time": 3.2477273,
                "pitch": 62,
                "velocity": 51,
                "duration": 2.425,
                "tempo": 120.0
            },
            {
                "start_time": 3.2477273,
                "end_time": 4.0409091,
                "pitch": 63,
                "velocity": 51,
                "duration": 0.7931818,
                "tempo": 120.0
            },
            {
                "start_time": 4.0409091,
                "end_time": 6.4613636,
                "pitch": 64,
                "velocity": 51,
                "duration": 2.4204545,
                "tempo": 120.0
            },
            {
                "start_time": 6.4613636,
                "end_time": 7.2636364,
                "pitch": 65,
                "velocity": 51,
                "duration": 0.8022727,
                "tempo": 120.0
            },
            {
                "start_time": 7.2636364,
                "end_time": 9.6681818,
                "pitch": 66,
                "velocity": 51,
                "duration": 2.4045455,
                "tempo": 120.0
            },
            {
                "start_time": 9.6681818,
                "end_time": 12.8818182,
                "pitch": 67,
                "velocity": 51,
                "duration": 3.2136364,
                "tempo": 120.0
            }
        ],
        "Oboe": [
            {
                "start_time": 0.0204545,
                "end_time": 0.8227273,
                "pitch": 58,
                "velocity": 64,
                "duration": 0.8022727,
                "tempo": 120.0
            },
            {
                "start_time": 0.8227273,
                "end_time": 3.2477273,
                "pitch": 59,
                "velocity": 64,
                "duration": 2.425,
                "tempo": 120.0
            },
            {
                "start_time": 3.2477273,
                "end_time": 4.0409091,
                "pitch": 60,
                "velocity": 64,
                "duration": 0.7931818,
                "tempo": 120.0
            },
            {
                "start_time": 4.0409091,
                "end_time": 6.4613636,
                "pitch": 61,
                "velocity": 64,
                "duration": 2.4204545,
                "tempo": 120.0
            },
            {
                "start_time": 6.4613636,
                "end_time": 7.2636364,
                "pitch": 62,
                "velocity": 64,
                "duration": 0.8022727,
                "tempo": 120.0
            },
            {
                "start_time": 7.2636364,
                "end_time": 9.6681818,
                "pitch": 63,
                "velocity": 64,
                "duration": 2.4045455,
                "tempo": 120.0
            },
            {
                "start_time": 9.6681818,
                "end_time": 12.8704545,
                "pitch": 64,
                "velocity": 64,
                "duration": 3.2022727,
                "tempo": 120.0
            }
        ],
        "Electric Guitar (clean)": [
            {
                "start_time": 12.8704545,
                "end_time": 13.0227273,
                "pitch": 29,
                "velocity": 80,
                "duration": 0.1522727,
                "tempo": 120.0
            },
            {
                "start_time": 13.2727273,
                "end_time": 13.3431818,
                "pitch": 41,
                "velocity": 80,
                "duration": 0.0704545,
                "tempo": 120.0
            },
            {
                "start_time": 13.475,
                "end_time": 13.625,
                "pitch": 28,
                "velocity": 80,
                "duration": 0.15,
                "tempo": 120.0
            },
            {
                "start_time": 13.8772727,
                "end_time": 13.9454545,
                "pitch": 28,
                "velocity": 80,
                "duration": 0.0681818,
                "tempo": 120.0
            },
            {
                "start_time": 14.0772727,
                "end_time": 14.1477273,
                "pitch": 40,
                "velocity": 80,
                "duration": 0.0704545,
                "tempo": 120.0
            },
            {
                "start_time": 14.2772727,
                "end_time": 14.4295455,
                "pitch": 33,
                "velocity": 80,
                "duration": 0.1522727,
                "tempo": 120.0
            },
            {
                "start_time": 14.6795455,
                "end_time": 14.75,
                "pitch": 33,
                "velocity": 80,
                "duration": 0.0704545,
                "tempo": 120.0
            },
            {
                "start_time": 14.8818182,
                "end_time": 14.9522727,
                "pitch": 45,
                "velocity": 80,
                "duration": 0.0704545,
                "tempo": 120.0
            },
            {
                "start_time": 15.0840909,
                "end_time": 15.1545455,
                "pitch": 33,
                "velocity": 80,
                "duration": 0.0704545,
                "tempo": 120.0
            },
            {
                "start_time": 15.2840909,
                "end_time": 15.3545455,
                "pitch": 33,
                "velocity": 80,
                "duration": 0.0704545,
                "tempo": 120.0
            },
            {
                "start_time": 15.4863636,
                "end_time": 15.5568182,
                "pitch": 35,
                "velocity": 80,
                "duration": 0.0704545,
                "tempo": 120.0
            },
            {
                "start_time": 15.6863636,
                "end_time": 15.7568182,
                "pitch": 36,
                "velocity": 80,
                "duration": 0.0704545,
                "tempo": 120.0
            },
            {
                "start_time": 15.8863636,
                "end_time": 15.9568182,
                "pitch": 33,
                "velocity": 80,
                "duration": 0.0704545,
                "tempo": 120.0
            },
            {
                "start_time": 16.0863636,
                "end_time": 16.2386364,
                "pitch": 29,
                "velocity": 80,
                "duration": 0.1522727,
                "tempo": 120.0
            },
            {
                "start_time": 16.4886364,
                "end_time": 16.5590909,
                "pitch": 41,
                "velocity": 80,
                "duration": 0.0704545,
                "tempo": 120.0
            },
            {
                "start_time": 16.6909091,
                "end_time": 16.8431818,
                "pitch": 28,
                "velocity": 80,
                "duration": 0.1522727,
                "tempo": 120.0
            },
            {
                "start_time": 17.0931818,
                "end_time": 17.1613636,
                "pitch": 28,
                "velocity": 80,
                "duration": 0.0681818,
                "tempo": 120.0
            },
            {
                "start_time": 17.2931818,
                "end_time": 17.3613636,
                "pitch": 40,
                "velocity": 80,
                "duration": 0.0681818,
                "tempo": 120.0
            },
            {
                "start_time": 17.4931818,
                "end_time": 17.6431818,
                "pitch": 33,
                "velocity": 80,
                "duration": 0.15,
                "tempo": 120.0
            },
            {
                "start_time": 17.8931818,
                "end_time": 17.9636364,
                "pitch": 33,
                "velocity": 80,
                "duration": 0.0704545,
                "tempo": 120.0
            },
            {
                "start_time": 18.0954545,
                "end_time": 18.1659091,
                "pitch": 45,
                "velocity": 80,
                "duration": 0.0704545,
                "tempo": 120.0
            },
            {
                "start_time": 18.2954545,
                "end_time": 18.3659091,
                "pitch": 33,
                "velocity": 80,
                "duration": 0.0704545,
                "tempo": 120.0
            },
            {
                "start_time": 18.4954545,
                "end_time": 18.5659091,
                "pitch": 33,
                "velocity": 80,
                "duration": 0.0704545,
                "tempo": 120.0
            },
            {
                "start_time": 18.6954545,
                "end_time": 18.7659091,
                "pitch": 35,
                "velocity": 80,
                "duration": 0.0704545,
                "tempo": 120.0
            },
            {
                "start_time": 18.8977273,
                "end_time": 18.9681818,
                "pitch": 36,
                "velocity": 80,
                "duration": 0.0704545,
                "tempo": 120.0
            },
            {
                "start_time": 19.0977273,
                "end_time": 19.1681818,
                "pitch": 33,
                "velocity": 80,
                "duration": 0.0704545,
                "tempo": 120.0
            },
            {
                "start_time": 19.2977273,
                "end_time": 19.4477273,
                "pitch": 29,
                "velocity": 80,
                "duration": 0.15,
                "tempo": 120.0
            },
            {
                "start_time": 19.6977273,
                "end_time": 19.7681818,
                "pitch": 41,
                "velocity": 80,
                "duration": 0.0704545,
                "tempo": 120.0
            },
            {
                "start_time": 19.9,
                "end_time": 20.05,
                "pitch": 28,
                "velocity": 80,
                "duration": 0.15,
                "tempo": 120.0
            },
            {
                "start_time": 20.3,
                "end_time": 20.3704545,
                "pitch": 28,
                "velocity": 80,
                "duration": 0.0704545,
                "tempo": 120.0
            },
            {
                "start_time": 20.5,
                "end_time": 20.5704545,
                "pitch": 40,
                "velocity": 80,
                "duration": 0.0704545,
                "tempo": 120.0
            },
            {
                "start_time": 20.7022727,
                "end_time": 20.8522727,
                "pitch": 33,
                "velocity": 80,
                "duration": 0.15,
                "tempo": 120.0
            },
            {
                "start_time": 21.1022727,
                "end_time": 21.1727273,
                "pitch": 33,
                "velocity": 80,
                "duration": 0.0704545,
                "tempo": 120.0
            },
            {
                "start_time": 21.3022727,
                "end_time": 21.3727273,
                "pitch": 45,
                "velocity": 80,
                "duration": 0.0704545,
                "tempo": 120.0
            },
            {
                "start_time": 21.5022727,
                "end_time": 21.5727273,
                "pitch": 33,
                "velocity": 80,
                "duration": 0.0704545,
                "tempo": 120.0
            },
            {
                "start_time": 21.7022727,
                "end_time": 21.7727273,
                "pitch": 33,
                "velocity": 80,
                "duration": 0.0704545,
                "tempo": 120.0
            },
            {
                "start_time": 21.9045455,
                "end_time": 21.975,
                "pitch": 35,
                "velocity": 80,
                "duration": 0.0704545,
                "tempo": 120.0
            },
            {
                "start_time": 22.1068182,
                "end_time": 22.175,
                "pitch": 36,
                "velocity": 80,
                "duration": 0.0681818,
                "tempo": 120.0
            },
            {
                "start_time": 22.3068182,
                "end_time": 22.375,
                "pitch": 33,
                "velocity": 80,
                "duration": 0.0681818,
                "tempo": 120.0
            },
            {
                "start_time": 22.5068182,
                "end_time": 22.6568182,
                "pitch": 29,
                "velocity": 80,
                "duration": 0.15,
                "tempo": 120.0
            },
            {
                "start_time": 22.9090909,
                "end_time": 22.9795455,
                "pitch": 41,
                "velocity": 80,
                "duration": 0.0704545,
                "tempo": 120.0
            },
            {
                "start_time": 23.1090909,
                "end_time": 23.2590909,
                "pitch": 28,
                "velocity": 80,
                "duration": 0.15,
                "tempo": 120.0
            },
            {
                "start_time": 23.5090909,
                "end_time": 23.6590909,
                "pitch": 40,
                "velocity": 80,
                "duration": 0.15,
                "tempo": 120.0
            },
            {
                "start_time": 23.9090909,
                "end_time": 24.9022727,
                "pitch": 41,
                "velocity": 80,
                "duration": 0.9931818,
                "tempo": 120.0
            },
            {
                "start_time": 24.9022727,
                "end_time": 24.9545455,
                "pitch": 41,
                "velocity": 80,
                "duration": 0.0522727,
                "tempo": 120.0
            },
            {
                "start_time": 25.7136364,
                "end_time": 25.8159091,
                "pitch": 29,
                "velocity": 80,
                "duration": 0.1022727,
                "tempo": 120.0
            },
            {
                "start_time": 26.1159091,
                "end_time": 26.1659091,
                "pitch": 41,
                "velocity": 80,
                "duration": 0.05,
                "tempo": 120.0
            },
            {
                "start_time": 26.3159091,
                "end_time": 26.4159091,
                "pitch": 28,
                "velocity": 80,
                "duration": 0.1,
                "tempo": 120.0
            },
            {
                "start_time": 26.7181818,
                "end_time": 26.7681818,
                "pitch": 28,
                "velocity": 80,
                "duration": 0.05,
                "tempo": 120.0
            },
            {
                "start_time": 26.9204545,
                "end_time": 26.9704545,
                "pitch": 40,
                "velocity": 80,
                "duration": 0.05,
                "tempo": 120.0
            },
            {
                "start_time": 27.1204545,
                "end_time": 27.2204545,
                "pitch": 33,
                "velocity": 80,
                "duration": 0.1,
                "tempo": 120.0
            },
            {
                "start_time": 27.5204545,
                "end_time": 27.5704545,
                "pitch": 33,
                "velocity": 80,
                "duration": 0.05,
                "tempo": 120.0
            },
            {
                "start_time": 27.7204545,
                "end_time": 27.7704545,
                "pitch": 45,
                "velocity": 80,
                "duration": 0.05,
                "tempo": 120.0
            },
            {
                "start_time": 27.9204545,
                "end_time": 27.9704545,
                "pitch": 33,
                "velocity": 80,
                "duration": 0.05,
                "tempo": 120.0
            },
            {
                "start_time": 28.1227273,
                "end_time": 28.1727273,
                "pitch": 33,
                "velocity": 80,
                "duration": 0.05,
                "tempo": 120.0
            },
            {
                "start_time": 28.3227273,
                "end_time": 28.3727273,
                "pitch": 35,
                "velocity": 80,
                "duration": 0.05,
                "tempo": 120.0
            },
            {
                "start_time": 28.5227273,
                "end_time": 28.5727273,
                "pitch": 36,
                "velocity": 80,
                "duration": 0.05,
                "tempo": 120.0
            },
            {
                "start_time": 28.7227273,
                "end_time": 28.775,
                "pitch": 33,
                "velocity": 80,
                "duration": 0.0522727,
                "tempo": 120.0
            },
            {
                "start_time": 28.925,
                "end_time": 29.025,
                "pitch": 29,
                "velocity": 80,
                "duration": 0.1,
                "tempo": 120.0
            },
            {
                "start_time": 29.325,
                "end_time": 29.375,
                "pitch": 41,
                "velocity": 80,
                "duration": 0.05,
                "tempo": 120.0
            },
            {
                "start_time": 29.525,
                "end_time": 29.625,
                "pitch": 28,
                "velocity": 80,
                "duration": 0.1,
                "tempo": 120.0
            },
            {
                "start_time": 29.9272727,
                "end_time": 29.9772727,
                "pitch": 28,
                "velocity": 80,
                "duration": 0.05,
                "tempo": 120.0
            },
            {
                "start_time": 30.1272727,
                "end_time": 30.1772727,
                "pitch": 40,
                "velocity": 80,
                "duration": 0.05,
                "tempo": 120.0
            },
            {
                "start_time": 30.3272727,
                "end_time": 30.4272727,
                "pitch": 33,
                "velocity": 80,
                "duration": 0.1,
                "tempo": 120.0
            },
            {
                "start_time": 30.7295455,
                "end_time": 30.7795455,
                "pitch": 33,
                "velocity": 80,
                "duration": 0.05,
                "tempo": 120.0
            },
            {
                "start_time": 30.9295455,
                "end_time": 30.9795455,
                "pitch": 45,
                "velocity": 80,
                "duration": 0.05,
                "tempo": 120.0
            },
            {
                "start_time": 31.1295455,
                "end_time": 31.1795455,
                "pitch": 33,
                "velocity": 80,
                "duration": 0.05,
                "tempo": 120.0
            },
            {
                "start_time": 31.3295455,
                "end_time": 31.3795455,
                "pitch": 33,
                "velocity": 80,
                "duration": 0.05,
                "tempo": 120.0
            },
            {
                "start_time": 31.5295455,
                "end_time": 31.5795455,
                "pitch": 35,
                "velocity": 80,
                "duration": 0.05,
                "tempo": 120.0
            },
            {
                "start_time": 31.7295455,
                "end_time": 31.7818182,
                "pitch": 36,
                "velocity": 80,
                "duration": 0.0522727,
                "tempo": 120.0
            },
            {
                "start_time": 31.9318182,
                "end_time": 31.9818182,
                "pitch": 33,
                "velocity": 80,
                "duration": 0.05,
                "tempo": 120.0
            },
            {
                "start_time": 32.1340909,
                "end_time": 32.2340909,
                "pitch": 29,
                "velocity": 80,
                "duration": 0.1,
                "tempo": 120.0
            },
            {
                "start_time": 32.5363636,
                "end_time": 32.5863636,
                "pitch": 41,
                "velocity": 80,
                "duration": 0.05,
                "tempo": 120.0
            },
            {
                "start_time": 32.7363636,
                "end_time": 32.8363636,
                "pitch": 28,
                "velocity": 80,
                "duration": 0.1,
                "tempo": 120.0
            },
            {
                "start_time": 33.1363636,
                "end_time": 33.1863636,
                "pitch": 28,
                "velocity": 80,
                "duration": 0.05,
                "tempo": 120.0
            },
            {
                "start_time": 33.3363636,
                "end_time": 33.3863636,
                "pitch": 40,
                "velocity": 80,
                "duration": 0.05,
                "tempo": 120.0
            },
            {
                "start_time": 33.5363636,
                "end_time": 33.6363636,
                "pitch": 33,
                "velocity": 80,
                "duration": 0.1,
                "tempo": 120.0
            },
            {
                "start_time": 33.9363636,
                "end_time": 33.9863636,
                "pitch": 33,
                "velocity": 80,
                "duration": 0.05,
                "tempo": 120.0
            },
            {
                "start_time": 34.1363636,
                "end_time": 34.1863636,
                "pitch": 45,
                "velocity": 80,
                "duration": 0.05,
                "tempo": 120.0
            },
            {
                "start_time": 34.3363636,
                "end_time": 34.3863636,
                "pitch": 33,
                "velocity": 80,
                "duration": 0.05,
                "tempo": 120.0
            },
            {
                "start_time": 34.5386364,
                "end_time": 34.5886364,
                "pitch": 33,
                "velocity": 80,
                "duration": 0.05,
                "tempo": 120.0
            },
            {
                "start_time": 34.7386364,
                "end_time": 34.7886364,
                "pitch": 35,
                "velocity": 80,
                "duration": 0.05,
                "tempo": 120.0
            },
            {
                "start_time": 34.9386364,
                "end_time": 34.9886364,
                "pitch": 36,
                "velocity": 80,
                "duration": 0.05,
                "tempo": 120.0
            },
            {
                "start_time": 35.1386364,
                "end_time": 35.1886364,
                "pitch": 33,
                "velocity": 80,
                "duration": 0.05,
                "tempo": 120.0
            },
            {
                "start_time": 35.3386364,
                "end_time": 35.4386364,
                "pitch": 29,
                "velocity": 80,
                "duration": 0.1,
                "tempo": 120.0
            },
            {
                "start_time": 35.7386364,
                "end_time": 35.7886364,
                "pitch": 41,
                "velocity": 80,
                "duration": 0.05,
                "tempo": 120.0
            },
            {
                "start_time": 35.9386364,
                "end_time": 36.0386364,
                "pitch": 28,
                "velocity": 80,
                "duration": 0.1,
                "tempo": 120.0
            },
            {
                "start_time": 36.3386364,
                "end_time": 36.4409091,
                "pitch": 40,
                "velocity": 80,
                "duration": 0.1022727,
                "tempo": 120.0
            },
            {
                "start_time": 36.7409091,
                "end_time": 38.1431818,
                "pitch": 41,
                "velocity": 80,
                "duration": 1.4022727,
                "tempo": 120.0
            },
            {
                "start_time": 38.1431818,
                "end_time": 38.2136364,
                "pitch": 40,
                "velocity": 80,
                "duration": 0.0704545,
                "tempo": 120.0
            },
            {
                "start_time": 38.2136364,
                "end_time": 38.2840909,
                "pitch": 38,
                "velocity": 80,
                "duration": 0.0704545,
                "tempo": 120.0
            },
            {
                "start_time": 38.2840909,
                "end_time": 38.3454545,
                "pitch": 36,
                "velocity": 80,
                "duration": 0.0613636,
                "tempo": 120.0
            },
            {
                "start_time": 38.3454545,
                "end_time": 38.4159091,
                "pitch": 35,
                "velocity": 80,
                "duration": 0.0704545,
                "tempo": 120.0
            },
            {
                "start_time": 38.4159091,
                "end_time": 38.5477273,
                "pitch": 33,
                "velocity": 80,
                "duration": 0.1318182,
                "tempo": 120.0
            },
            {
                "start_time": 38.5477273,
                "end_time": 38.6977273,
                "pitch": 46,
                "velocity": 80,
                "duration": 0.15,
                "tempo": 120.0
            },
            {
                "start_time": 38.7477273,
                "end_time": 38.8159091,
                "pitch": 70,
                "velocity": 80,
                "duration": 0.0681818,
                "tempo": 120.0
            },
            {
                "start_time": 38.8477273,
                "end_time": 38.9159091,
                "pitch": 82,
                "velocity": 80,
                "duration": 0.0681818,
                "tempo": 120.0
            },
            {
                "start_time": 38.9477273,
                "end_time": 39.0977273,
                "pitch": 46,
                "velocity": 80,
                "duration": 0.15,
                "tempo": 120.0
            },
            {
                "start_time": 39.1477273,
                "end_time": 39.2977273,
                "pitch": 34,
                "velocity": 80,
                "duration": 0.15,
                "tempo": 120.0
            },
            {
                "start_time": 39.5477273,
                "end_time": 39.6977273,
                "pitch": 34,
                "velocity": 80,
                "duration": 0.15,
                "tempo": 120.0
            },
            {
                "start_time": 39.7477273,
                "end_time": 39.8977273,
                "pitch": 46,
                "velocity": 80,
                "duration": 0.15,
                "tempo": 120.0
            },
            {
                "start_time": 39.9477273,
                "end_time": 40.0977273,
                "pitch": 34,
                "velocity": 80,
                "duration": 0.15,
                "tempo": 120.0
            },
            {
                "start_time": 40.1477273,
                "end_time": 40.2977273,
                "pitch": 27,
                "velocity": 80,
                "duration": 0.15,
                "tempo": 120.0
            },
            {
                "start_time": 40.3477273,
                "end_time": 40.4181818,
                "pitch": 70,
                "velocity": 80,
                "duration": 0.0704545,
                "tempo": 120.0
            },
            {
                "start_time": 40.4477273,
                "end_time": 40.5181818,
                "pitch": 82,
                "velocity": 80,
                "duration": 0.0704545,
                "tempo": 120.0
            },
            {
                "start_time": 40.55,
                "end_time": 40.7,
                "pitch": 39,
                "velocity": 80,
                "duration": 0.15,
                "tempo": 120.0
            },
            {
                "start_time": 40.75,
                "end_time": 40.9,
                "pitch": 27,
                "velocity": 80,
                "duration": 0.15,
                "tempo": 120.0
            },
            {
                "start_time": 41.15,
                "end_time": 41.3,
                "pitch": 27,
                "velocity": 80,
                "duration": 0.15,
                "tempo": 120.0
            },
            {
                "start_time": 41.35,
                "end_time": 41.5,
                "pitch": 39,
                "velocity": 80,
                "duration": 0.15,
                "tempo": 120.0
            },
            {
                "start_time": 41.55,
                "end_time": 41.7,
                "pitch": 27,
                "velocity": 80,
                "duration": 0.15,
                "tempo": 120.0
            },
            {
                "start_time": 41.75,
                "end_time": 41.9,
                "pitch": 32,
                "velocity": 80,
                "duration": 0.15,
                "tempo": 120.0
            },
            {
                "start_time": 41.95,
                "end_time": 42.0181818,
                "pitch": 68,
                "velocity": 80,
                "duration": 0.0681818,
                "tempo": 120.0
            },
            {
                "start_time": 42.05,
                "end_time": 42.1181818,
                "pitch": 80,
                "velocity": 80,
                "duration": 0.0681818,
                "tempo": 120.0
            },
            {
                "start_time": 42.15,
                "end_time": 42.3,
                "pitch": 44,
                "velocity": 80,
                "duration": 0.15,
                "tempo": 120.0
            },
            {
                "start_time": 42.35,
                "end_time": 42.5022727,
                "pitch": 32,
                "velocity": 80,
                "duration": 0.1522727,
                "tempo": 120.0
            },
            {
                "start_time": 42.7522727,
                "end_time": 42.9022727,
                "pitch": 32,
                "velocity": 80,
                "duration": 0.15,
                "tempo": 120.0
            },
            {
                "start_time": 42.9522727,
                "end_time": 43.1022727,
                "pitch": 44,
                "velocity": 80,
                "duration": 0.15,
                "tempo": 120.0
            },
            {
                "start_time": 43.1522727,
                "end_time": 43.3022727,
                "pitch": 32,
                "velocity": 80,
                "duration": 0.15,
                "tempo": 120.0
            },
            {
                "start_time": 43.3522727,
                "end_time": 43.5022727,
                "pitch": 25,
                "velocity": 80,
                "duration": 0.15,
                "tempo": 120.0
            },
            {
                "start_time": 43.5522727,
                "end_time": 43.6227273,
                "pitch": 68,
                "velocity": 80,
                "duration": 0.0704545,
                "tempo": 120.0
            },
            {
                "start_time": 43.6522727,
                "end_time": 43.7227273,
                "pitch": 80,
                "velocity": 80,
                "duration": 0.0704545,
                "tempo": 120.0
            },
            {
                "start_time": 43.7522727,
                "end_time": 43.9022727,
                "pitch": 37,
                "velocity": 80,
                "duration": 0.15,
                "tempo": 120.0
            },
            {
                "start_time": 43.9522727,
                "end_time": 44.1022727,
                "pitch": 25,
                "velocity": 80,
                "duration": 0.15,
                "tempo": 120.0
            },
            {
                "start_time": 44.3522727,
                "end_time": 44.5045455,
                "pitch": 25,
                "velocity": 80,
                "duration": 0.1522727,
                "tempo": 120.0
            },
            {
                "start_time": 44.5545455,
                "end_time": 44.7045455,
                "pitch": 37,
                "velocity": 80,
                "duration": 0.15,
                "tempo": 120.0
            },
            {
                "start_time": 44.7545455,
                "end_time": 44.9045455,
                "pitch": 25,
                "velocity": 80,
                "duration": 0.15,
                "tempo": 120.0
            },
            {
                "start_time": 44.9545455,
                "end_time": 45.1045455,
                "pitch": 30,
                "velocity": 80,
                "duration": 0.15,
                "tempo": 120.0
            },
            {
                "start_time": 45.3545455,
                "end_time": 45.5045455,
                "pitch": 42,
                "velocity": 80,
                "duration": 0.15,
                "tempo": 120.0
            },
            {
                "start_time": 45.5545455,
                "end_time": 45.7045455,
                "pitch": 30,
                "velocity": 80,
                "duration": 0.15,
                "tempo": 120.0
            },
            {
                "start_time": 45.9545455,
                "end_time": 46.1045455,
                "pitch": 30,
                "velocity": 80,
                "duration": 0.15,
                "tempo": 120.0
            },
            {
                "start_time": 46.1545455,
                "end_time": 46.3068182,
                "pitch": 42,
                "velocity": 80,
                "duration": 0.1522727,
                "tempo": 120.0
            },
            {
                "start_time": 46.3568182,
                "end_time": 46.5068182,
                "pitch": 30,
                "velocity": 80,
                "duration": 0.15,
                "tempo": 120.0
            },
            {
                "start_time": 46.5568182,
                "end_time": 46.7068182,
                "pitch": 29,
                "velocity": 80,
                "duration": 0.15,
                "tempo": 120.0
            },
            {
                "start_time": 46.9568182,
                "end_time": 47.1068182,
                "pitch": 41,
                "velocity": 80,
                "duration": 0.15,
                "tempo": 120.0
            },
            {
                "start_time": 47.1568182,
                "end_time": 47.3068182,
                "pitch": 29,
                "velocity": 80,
                "duration": 0.15,
                "tempo": 120.0
            },
            {
                "start_time": 47.3568182,
                "end_time": 47.5068182,
                "pitch": 34,
                "velocity": 80,
                "duration": 0.15,
                "tempo": 120.0
            },
            {
                "start_time": 47.5568182,
                "end_time": 47.7068182,
                "pitch": 34,
                "velocity": 80,
                "duration": 0.15,
                "tempo": 120.0
            },
            {
                "start_time": 47.7568182,
                "end_time": 47.9068182,
                "pitch": 46,
                "velocity": 80,
                "duration": 0.15,
                "tempo": 120.0
            },
            {
                "start_time": 47.9568182,
                "end_time": 48.1068182,
                "pitch": 34,
                "velocity": 80,
                "duration": 0.15,
                "tempo": 120.0
            },
            {
                "start_time": 48.1568182,
                "end_time": 48.3090909,
                "pitch": 27,
                "velocity": 80,
                "duration": 0.1522727,
                "tempo": 120.0
            },
            {
                "start_time": 48.5590909,
                "end_time": 48.7090909,
                "pitch": 39,
                "velocity": 80,
                "duration": 0.15,
                "tempo": 120.0
            },
            {
                "start_time": 48.7590909,
                "end_time": 48.9090909,
                "pitch": 27,
                "velocity": 80,
                "duration": 0.15,
                "tempo": 120.0
            },
            {
                "start_time": 49.1590909,
                "end_time": 49.3090909,
                "pitch": 27,
                "velocity": 80,
                "duration": 0.15,
                "tempo": 120.0
            },
            {
                "start_time": 49.3590909,
                "end_time": 49.5090909,
                "pitch": 39,
                "velocity": 80,
                "duration": 0.15,
                "tempo": 120.0
            },
            {
                "start_time": 49.5590909,
                "end_time": 49.7090909,
                "pitch": 27,
                "velocity": 80,
                "duration": 0.15,
                "tempo": 120.0
            },
            {
                "start_time": 49.7590909,
                "end_time": 49.9090909,
                "pitch": 32,
                "velocity": 80,
                "duration": 0.15,
                "tempo": 120.0
            },
            {
                "start_time": 50.1590909,
                "end_time": 50.3113636,
                "pitch": 44,
                "velocity": 80,
                "duration": 0.1522727,
                "tempo": 120.0
            },
            {
                "start_time": 50.3613636,
                "end_time": 50.5113636,
                "pitch": 32,
                "velocity": 80,
                "duration": 0.15,
                "tempo": 120.0
            },
            {
                "start_time": 50.7636364,
                "end_time": 50.9136364,
                "pitch": 32,
                "velocity": 80,
                "duration": 0.15,
                "tempo": 120.0
            },
            {
                "start_time": 50.9636364,
                "end_time": 51.1136364,
                "pitch": 44,
                "velocity": 80,
                "duration": 0.15,
                "tempo": 120.0
            },
            {
                "start_time": 51.1636364,
                "end_time": 51.3136364,
                "pitch": 32,
                "velocity": 80,
                "duration": 0.15,
                "tempo": 120.0
            },
            {
                "start_time": 51.3636364,
                "end_time": 51.4318182,
                "pitch": 30,
                "velocity": 80,
                "duration": 0.0681818,
                "tempo": 120.0
            },
            {
                "start_time": 51.5636364,
                "end_time": 51.6318182,
                "pitch": 30,
                "velocity": 80,
                "duration": 0.0681818,
                "tempo": 120.0
            },
            {
                "start_time": 51.7636364,
                "end_time": 51.8318182,
                "pitch": 42,
                "velocity": 80,
                "duration": 0.0681818,
                "tempo": 120.0
            },
            {
                "start_time": 51.9636364,
                "end_time": 52.0318182,
                "pitch": 32,
                "velocity": 80,
                "duration": 0.0681818,
                "tempo": 120.0
            },
            {
                "start_time": 52.1636364,
                "end_time": 52.2340909,
                "pitch": 32,
                "velocity": 80,
                "duration": 0.0704545,
                "tempo": 120.0
            },
            {
                "start_time": 52.3636364,
                "end_time": 52.4340909,
                "pitch": 32,
                "velocity": 80,
                "duration": 0.0704545,
                "tempo": 120.0
            },
            {
                "start_time": 52.5659091,
                "end_time": 52.6363636,
                "pitch": 44,
                "velocity": 80,
                "duration": 0.0704545,
                "tempo": 120.0
            },
            {
                "start_time": 52.7659091,
                "end_time": 52.8363636,
                "pitch": 32,
                "velocity": 80,
                "duration": 0.0704545,
                "tempo": 120.0
            },
            {
                "start_time": 52.9659091,
                "end_time": 53.0363636,
                "pitch": 34,
                "velocity": 80,
                "duration": 0.0704545,
                "tempo": 120.0
            },
            {
                "start_time": 53.1659091,
                "end_time": 53.2363636,
                "pitch": 34,
                "velocity": 80,
                "duration": 0.0704545,
                "tempo": 120.0
            },
            {
                "start_time": 53.3659091,
                "end_time": 53.4363636,
                "pitch": 34,
                "velocity": 80,
                "duration": 0.0704545,
                "tempo": 120.0
            },
            {
                "start_time": 53.5659091,
                "end_time": 53.6363636,
                "pitch": 46,
                "velocity": 80,
                "duration": 0.0704545,
                "tempo": 120.0
            },
            {
                "start_time": 53.7659091,
                "end_time": 53.8363636,
                "pitch": 34,
                "velocity": 80,
                "duration": 0.0704545,
                "tempo": 120.0
            },
            {
                "start_time": 53.9659091,
                "end_time": 54.0363636,
                "pitch": 46,
                "velocity": 80,
                "duration": 0.0704545,
                "tempo": 120.0
            },
            {
                "start_time": 54.1659091,
                "end_time": 54.2363636,
                "pitch": 32,
                "velocity": 80,
                "duration": 0.0704545,
                "tempo": 120.0
            },
            {
                "start_time": 54.3659091,
                "end_time": 54.4363636,
                "pitch": 44,
                "velocity": 80,
                "duration": 0.0704545,
                "tempo": 120.0
            },
            {
                "start_time": 54.5681818,
                "end_time": 54.6386364,
                "pitch": 30,
                "velocity": 80,
                "duration": 0.0704545,
                "tempo": 120.0
            },
            {
                "start_time": 54.7681818,
                "end_time": 54.8386364,
                "pitch": 30,
                "velocity": 80,
                "duration": 0.0704545,
                "tempo": 120.0
            },
            {
                "start_time": 54.9681818,
                "end_time": 55.0386364,
                "pitch": 42,
                "velocity": 80,
                "duration": 0.0704545,
                "tempo": 120.0
            },
            {
                "start_time": 55.1681818,
                "end_time": 55.2386364,
                "pitch": 32,
                "velocity": 80,
                "duration": 0.0704545,
                "tempo": 120.0
            },
            {
                "start_time": 55.3681818,
                "end_time": 55.4386364,
                "pitch": 32,
                "velocity": 80,
                "duration": 0.0704545,
                "tempo": 120.0
            },
            {
                "start_time": 55.5681818,
                "end_time": 55.6386364,
                "pitch": 32,
                "velocity": 80,
                "duration": 0.0704545,
                "tempo": 120.0
            },
            {
                "start_time": 55.7681818,
                "end_time": 55.8386364,
                "pitch": 44,
                "velocity": 80,
                "duration": 0.0704545,
                "tempo": 120.0
            },
            {
                "start_time": 55.9681818,
                "end_time": 56.0386364,
                "pitch": 32,
                "velocity": 80,
                "duration": 0.0704545,
                "tempo": 120.0
            },
            {
                "start_time": 56.1681818,
                "end_time": 56.2386364,
                "pitch": 34,
                "velocity": 80,
                "duration": 0.0704545,
                "tempo": 120.0
            },
            {
                "start_time": 56.3704545,
                "end_time": 56.4409091,
                "pitch": 34,
                "velocity": 80,
                "duration": 0.0704545,
                "tempo": 120.0
            },
            {
                "start_time": 56.5704545,
                "end_time": 56.6409091,
                "pitch": 34,
                "velocity": 80,
                "duration": 0.0704545,
                "tempo": 120.0
            },
            {
                "start_time": 56.7704545,
                "end_time": 56.8409091,
                "pitch": 46,
                "velocity": 80,
                "duration": 0.0704545,
                "tempo": 120.0
            },
            {
                "start_time": 56.9704545,
                "end_time": 57.0409091,
                "pitch": 34,
                "velocity": 80,
                "duration": 0.0704545,
                "tempo": 120.0
            },
            {
                "start_time": 57.1704545,
                "end_time": 57.2409091,
                "pitch": 46,
                "velocity": 80,
                "duration": 0.0704545,
                "tempo": 120.0
            },
            {
                "start_time": 57.3704545,
                "end_time": 57.4409091,
                "pitch": 32,
                "velocity": 80,
                "duration": 0.0704545,
                "tempo": 120.0
            },
            {
                "start_time": 57.5704545,
                "end_time": 57.6409091,
                "pitch": 44,
                "velocity": 80,
                "duration": 0.0704545,
                "tempo": 120.0
            },
            {
                "start_time": 57.7704545,
                "end_time": 57.8409091,
                "pitch": 30,
                "velocity": 80,
                "duration": 0.0704545,
                "tempo": 120.0
            },
            {
                "start_time": 57.9704545,
                "end_time": 58.0409091,
                "pitch": 30,
                "velocity": 80,
                "duration": 0.0704545,
                "tempo": 120.0
            },
            {
                "start_time": 58.1704545,
                "end_time": 58.2409091,
                "pitch": 42,
                "velocity": 80,
                "duration": 0.0704545,
                "tempo": 120.0
            },
            {
                "start_time": 58.3727273,
                "end_time": 58.4431818,
                "pitch": 32,
                "velocity": 80,
                "duration": 0.0704545,
                "tempo": 120.0
            },
            {
                "start_time": 58.5727273,
                "end_time": 58.6431818,
                "pitch": 32,
                "velocity": 80,
                "duration": 0.0704545,
                "tempo": 120.0
            },
            {
                "start_time": 58.7727273,
                "end_time": 58.8431818,
                "pitch": 32,
                "velocity": 80,
                "duration": 0.0704545,
                "tempo": 120.0
            },
            {
                "start_time": 58.9727273,
                "end_time": 59.0431818,
                "pitch": 44,
                "velocity": 80,
                "duration": 0.0704545,
                "tempo": 120.0
            },
            {
                "start_time": 59.1727273,
                "end_time": 59.2431818,
                "pitch": 32,
                "velocity": 80,
                "duration": 0.0704545,
                "tempo": 120.0
            },
            {
                "start_time": 59.3727273,
                "end_time": 59.4431818,
                "pitch": 34,
                "velocity": 80,
                "duration": 0.0704545,
                "tempo": 120.0
            },
            {
                "start_time": 59.5727273,
                "end_time": 59.6431818,
                "pitch": 34,
                "velocity": 80,
                "duration": 0.0704545,
                "tempo": 120.0
            },
            {
                "start_time": 59.7727273,
                "end_time": 59.8431818,
                "pitch": 34,
                "velocity": 80,
                "duration": 0.0704545,
                "tempo": 120.0
            },
            {
                "start_time": 59.9727273,
                "end_time": 60.0431818,
                "pitch": 46,
                "velocity": 80,
                "duration": 0.0704545,
                "tempo": 120.0
            },
            {
                "start_time": 60.1727273,
                "end_time": 60.2431818,
                "pitch": 34,
                "velocity": 80,
                "duration": 0.0704545,
                "tempo": 120.0
            },
            {
                "start_time": 60.375,
                "end_time": 60.4454545,
                "pitch": 46,
                "velocity": 80,
                "duration": 0.0704545,
                "tempo": 120.0
            },
            {
                "start_time": 60.5772727,
                "end_time": 60.6454545,
                "pitch": 32,
                "velocity": 80,
                "duration": 0.0681818,
                "tempo": 120.0
            },
            {
                "start_time": 60.7772727,
                "end_time": 60.8454545,
                "pitch": 44,
                "velocity": 80,
                "duration": 0.0681818,
                "tempo": 120.0
            },
            {
                "start_time": 60.9772727,
                "end_time": 61.0454545,
                "pitch": 30,
                "velocity": 80,
                "duration": 0.0681818,
                "tempo": 120.0
            },
            {
                "start_time": 61.1772727,
                "end_time": 61.2454545,
                "pitch": 30,
                "velocity": 80,
                "duration": 0.0681818,
                "tempo": 120.0
            },
            {
                "start_time": 61.3772727,
                "end_time": 61.4454545,
                "pitch": 42,
                "velocity": 80,
                "duration": 0.0681818,
                "tempo": 120.0
            },
            {
                "start_time": 61.5772727,
                "end_time": 61.6454545,
                "pitch": 32,
                "velocity": 80,
                "duration": 0.0681818,
                "tempo": 120.0
            },
            {
                "start_time": 61.9772727,
                "end_time": 62.0454545,
                "pitch": 32,
                "velocity": 80,
                "duration": 0.0681818,
                "tempo": 120.0
            },
            {
                "start_time": 62.3727273,
                "end_time": 63.65,
                "pitch": 34,
                "velocity": 80,
                "duration": 1.2772727,
                "tempo": 120.0
            },
            {
                "start_time": 65.7840909,
                "end_time": 65.9363636,
                "pitch": 29,
                "velocity": 80,
                "duration": 0.1522727,
                "tempo": 120.0
            },
            {
                "start_time": 66.1863636,
                "end_time": 66.2568182,
                "pitch": 41,
                "velocity": 80,
                "duration": 0.0704545,
                "tempo": 120.0
            },
            {
                "start_time": 66.3863636,
                "end_time": 66.5363636,
                "pitch": 28,
                "velocity": 80,
                "duration": 0.15,
                "tempo": 120.0
            },
            {
                "start_time": 66.7886364,
                "end_time": 66.8590909,
                "pitch": 28,
                "velocity": 80,
                "duration": 0.0704545,
                "tempo": 120.0
            },
            {
                "start_time": 66.9909091,
                "end_time": 67.0590909,
                "pitch": 40,
                "velocity": 80,
                "duration": 0.0681818,
                "tempo": 120.0
            },
            {
                "start_time": 67.1909091,
                "end_time": 67.3409091,
                "pitch": 33,
                "velocity": 80,
                "duration": 0.15,
                "tempo": 120.0
            },
            {
                "start_time": 67.5909091,
                "end_time": 67.6613636,
                "pitch": 33,
                "velocity": 80,
                "duration": 0.0704545,
                "tempo": 120.0
            },
            {
                "start_time": 67.7931818,
                "end_time": 67.8636364,
                "pitch": 45,
                "velocity": 80,
                "duration": 0.0704545,
                "tempo": 120.0
            },
            {
                "start_time": 67.9931818,
                "end_time": 68.0636364,
                "pitch": 33,
                "velocity": 80,
                "duration": 0.0704545,
                "tempo": 120.0
            },
            {
                "start_time": 68.1954545,
                "end_time": 68.2659091,
                "pitch": 33,
                "velocity": 80,
                "duration": 0.0704545,
                "tempo": 120.0
            },
            {
                "start_time": 68.3954545,
                "end_time": 68.4659091,
                "pitch": 35,
                "velocity": 80,
                "duration": 0.0704545,
                "tempo": 120.0
            },
            {
                "start_time": 68.5954545,
                "end_time": 68.6659091,
                "pitch": 36,
                "velocity": 80,
                "duration": 0.0704545,
                "tempo": 120.0
            },
            {
                "start_time": 68.7977273,
                "end_time": 68.8681818,
                "pitch": 33,
                "velocity": 80,
                "duration": 0.0704545,
                "tempo": 120.0
            },
            {
                "start_time": 68.9977273,
                "end_time": 69.1477273,
                "pitch": 29,
                "velocity": 80,
                "duration": 0.15,
                "tempo": 120.0
            },
            {
                "start_time": 69.3977273,
                "end_time": 69.4681818,
                "pitch": 41,
                "velocity": 80,
                "duration": 0.0704545,
                "tempo": 120.0
            },
            {
                "start_time": 69.6,
                "end_time": 69.75,
                "pitch": 28,
                "velocity": 80,
                "duration": 0.15,
                "tempo": 120.0
            },
            {
                "start_time": 70.0022727,
                "end_time": 70.0727273,
                "pitch": 28,
                "velocity": 80,
                "duration": 0.0704545,
                "tempo": 120.0
            },
            {
                "start_time": 70.2045455,
                "end_time": 70.2727273,
                "pitch": 40,
                "velocity": 80,
                "duration": 0.0681818,
                "tempo": 120.0
            },
            {
                "start_time": 70.4045455,
                "end_time": 70.5545455,
                "pitch": 33,
                "velocity": 80,
                "duration": 0.15,
                "tempo": 120.0
            },
            {
                "start_time": 70.8045455,
                "end_time": 70.875,
                "pitch": 33,
                "velocity": 80,
                "duration": 0.0704545,
                "tempo": 120.0
            },
            {
                "start_time": 71.0068182,
                "end_time": 71.075,
                "pitch": 45,
                "velocity": 80,
                "duration": 0.0681818,
                "tempo": 120.0
            },
            {
                "start_time": 71.2068182,
                "end_time": 71.275,
                "pitch": 33,
                "velocity": 80,
                "duration": 0.0681818,
                "tempo": 120.0
            },
            {
                "start_time": 71.4068182,
                "end_time": 71.4772727,
                "pitch": 33,
                "velocity": 80,
                "duration": 0.0704545,
                "tempo": 120.0
            },
            {
                "start_time": 71.6068182,
                "end_time": 71.6772727,
                "pitch": 35,
                "velocity": 80,
                "duration": 0.0704545,
                "tempo": 120.0
            },
            {
                "start_time": 71.8090909,
                "end_time": 71.8795455,
                "pitch": 36,
                "velocity": 80,
                "duration": 0.0704545,
                "tempo": 120.0
            },
            {
                "start_time": 72.0090909,
                "end_time": 72.0795455,
                "pitch": 33,
                "velocity": 80,
                "duration": 0.0704545,
                "tempo": 120.0
            },
            {
                "start_time": 72.2113636,
                "end_time": 72.3613636,
                "pitch": 29,
                "velocity": 80,
                "duration": 0.15,
                "tempo": 120.0
            },
            {
                "start_time": 72.6113636,
                "end_time": 72.6818182,
                "pitch": 41,
                "velocity": 80,
                "duration": 0.0704545,
                "tempo": 120.0
            },
            {
                "start_time": 72.8136364,
                "end_time": 72.9636364,
                "pitch": 28,
                "velocity": 80,
                "duration": 0.15,
                "tempo": 120.0
            },
            {
                "start_time": 73.2136364,
                "end_time": 73.2840909,
                "pitch": 28,
                "velocity": 80,
                "duration": 0.0704545,
                "tempo": 120.0
            },
            {
                "start_time": 73.4136364,
                "end_time": 73.4840909,
                "pitch": 40,
                "velocity": 80,
                "duration": 0.0704545,
                "tempo": 120.0
            },
            {
                "start_time": 73.6159091,
                "end_time": 73.7659091,
                "pitch": 33,
                "velocity": 80,
                "duration": 0.15,
                "tempo": 120.0
            },
            {
                "start_time": 74.0181818,
                "end_time": 74.0886364,
                "pitch": 33,
                "velocity": 80,
                "duration": 0.0704545,
                "tempo": 120.0
            },
            {
                "start_time": 74.2204545,
                "end_time": 74.2886364,
                "pitch": 45,
                "velocity": 80,
                "duration": 0.0681818,
                "tempo": 120.0
            },
            {
                "start_time": 74.4204545,
                "end_time": 74.4886364,
                "pitch": 33,
                "velocity": 80,
                "duration": 0.0681818,
                "tempo": 120.0
            },
            {
                "start_time": 74.6204545,
                "end_time": 74.6909091,
                "pitch": 33,
                "velocity": 80,
                "duration": 0.0704545,
                "tempo": 120.0
            },
            {
                "start_time": 74.8204545,
                "end_time": 74.8909091,
                "pitch": 35,
                "velocity": 80,
                "duration": 0.0704545,
                "tempo": 120.0
            },
            {
                "start_time": 75.0227273,
                "end_time": 75.0931818,
                "pitch": 36,
                "velocity": 80,
                "duration": 0.0704545,
                "tempo": 120.0
            },
            {
                "start_time": 75.2227273,
                "end_time": 75.2931818,
                "pitch": 33,
                "velocity": 80,
                "duration": 0.0704545,
                "tempo": 120.0
            },
            {
                "start_time": 75.4227273,
                "end_time": 75.5727273,
                "pitch": 29,
                "velocity": 80,
                "duration": 0.15,
                "tempo": 120.0
            },
            {
                "start_time": 75.825,
                "end_time": 75.8954545,
                "pitch": 41,
                "velocity": 80,
                "duration": 0.0704545,
                "tempo": 120.0
            },
            {
                "start_time": 76.0272727,
                "end_time": 76.1772727,
                "pitch": 28,
                "velocity": 80,
                "duration": 0.15,
                "tempo": 120.0
            },
            {
                "start_time": 76.4272727,
                "end_time": 76.5772727,
                "pitch": 40,
                "velocity": 80,
                "duration": 0.15,
                "tempo": 120.0
            },
            {
                "start_time": 76.8295455,
                "end_time": 77.8227273,
                "pitch": 41,
                "velocity": 80,
                "duration": 0.9931818,
                "tempo": 120.0
            },
            {
                "start_time": 77.8227273,
                "end_time": 77.8727273,
                "pitch": 41,
                "velocity": 80,
                "duration": 0.05,
                "tempo": 120.0
            },
            {
                "start_time": 78.6340909,
                "end_time": 78.7340909,
                "pitch": 29,
                "velocity": 80,
                "duration": 0.1,
                "tempo": 120.0
            },
            {
                "start_time": 79.0363636,
                "end_time": 79.0863636,
                "pitch": 41,
                "velocity": 80,
                "duration": 0.05,
                "tempo": 120.0
            },
            {
                "start_time": 79.2363636,
                "end_time": 79.3363636,
                "pitch": 28,
                "velocity": 80,
                "duration": 0.1,
                "tempo": 120.0
            },
            {
                "start_time": 79.6363636,
                "end_time": 79.6886364,
                "pitch": 28,
                "velocity": 80,
                "duration": 0.0522727,
                "tempo": 120.0
            },
            {
                "start_time": 79.8386364,
                "end_time": 79.8886364,
                "pitch": 40,
                "velocity": 80,
                "duration": 0.05,
                "tempo": 120.0
            },
            {
                "start_time": 80.0409091,
                "end_time": 80.1409091,
                "pitch": 33,
                "velocity": 80,
                "duration": 0.1,
                "tempo": 120.0
            },
            {
                "start_time": 80.4409091,
                "end_time": 80.4909091,
                "pitch": 33,
                "velocity": 80,
                "duration": 0.05,
                "tempo": 120.0
            },
            {
                "start_time": 80.6409091,
                "end_time": 80.6909091,
                "pitch": 45,
                "velocity": 80,
                "duration": 0.05,
                "tempo": 120.0
            },
            {
                "start_time": 80.8431818,
                "end_time": 80.8931818,
                "pitch": 33,
                "velocity": 80,
                "duration": 0.05,
                "tempo": 120.0
            },
            {
                "start_time": 81.0431818,
                "end_time": 81.0931818,
                "pitch": 33,
                "velocity": 80,
                "duration": 0.05,
                "tempo": 120.0
            },
            {
                "start_time": 81.2431818,
                "end_time": 81.2931818,
                "pitch": 35,
                "velocity": 80,
                "duration": 0.05,
                "tempo": 120.0
            },
            {
                "start_time": 81.4431818,
                "end_time": 81.4954545,
                "pitch": 36,
                "velocity": 80,
                "duration": 0.0522727,
                "tempo": 120.0
            },
            {
                "start_time": 81.6454545,
                "end_time": 81.6954545,
                "pitch": 33,
                "velocity": 80,
                "duration": 0.05,
                "tempo": 120.0
            },
            {
                "start_time": 81.8477273,
                "end_time": 81.9477273,
                "pitch": 29,
                "velocity": 80,
                "duration": 0.1,
                "tempo": 120.0
            },
            {
                "start_time": 82.25,
                "end_time": 82.3,
                "pitch": 41,
                "velocity": 80,
                "duration": 0.05,
                "tempo": 120.0
            },
            {
                "start_time": 82.45,
                "end_time": 82.55,
                "pitch": 28,
                "velocity": 80,
                "duration": 0.1,
                "tempo": 120.0
            },
            {
                "start_time": 82.85,
                "end_time": 82.9,
                "pitch": 28,
                "velocity": 80,
                "duration": 0.05,
                "tempo": 120.0
            },
            {
                "start_time": 83.0522727,
                "end_time": 83.1022727,
                "pitch": 40,
                "velocity": 80,
                "duration": 0.05,
                "tempo": 120.0
            },
            {
                "start_time": 83.2522727,
                "end_time": 83.3522727,
                "pitch": 33,
                "velocity": 80,
                "duration": 0.1,
                "tempo": 120.0
            },
            {
                "start_time": 83.6545455,
                "end_time": 83.7045455,
                "pitch": 33,
                "velocity": 80,
                "duration": 0.05,
                "tempo": 120.0
            },
            {
                "start_time": 83.8545455,
                "end_time": 83.9045455,
                "pitch": 45,
                "velocity": 80,
                "duration": 0.05,
                "tempo": 120.0
            },
            {
                "start_time": 84.0568182,
                "end_time": 84.1068182,
                "pitch": 33,
                "velocity": 80,
                "duration": 0.05,
                "tempo": 120.0
            },
            {
                "start_time": 84.2568182,
                "end_time": 84.3068182,
                "pitch": 33,
                "velocity": 80,
                "duration": 0.05,
                "tempo": 120.0
            },
            {
                "start_time": 84.4568182,
                "end_time": 84.5068182,
                "pitch": 35,
                "velocity": 80,
                "duration": 0.05,
                "tempo": 120.0
            },
            {
                "start_time": 84.6568182,
                "end_time": 84.7068182,
                "pitch": 36,
                "velocity": 80,
                "duration": 0.05,
                "tempo": 120.0
            },
            {
                "start_time": 84.8590909,
                "end_time": 84.9090909,
                "pitch": 33,
                "velocity": 80,
                "duration": 0.05,
                "tempo": 120.0
            },
            {
                "start_time": 85.0590909,
                "end_time": 85.1590909,
                "pitch": 29,
                "velocity": 80,
                "duration": 0.1,
                "tempo": 120.0
            },
            {
                "start_time": 85.4590909,
                "end_time": 85.5113636,
                "pitch": 41,
                "velocity": 80,
                "duration": 0.0522727,
                "tempo": 120.0
            },
            {
                "start_time": 85.6613636,
                "end_time": 85.7613636,
                "pitch": 28,
                "velocity": 80,
                "duration": 0.1,
                "tempo": 120.0
            },
            {
                "start_time": 86.0636364,
                "end_time": 86.1136364,
                "pitch": 28,
                "velocity": 80,
                "duration": 0.05,
                "tempo": 120.0
            },
            {
                "start_time": 86.2659091,
                "end_time": 86.3159091,
                "pitch": 40,
                "velocity": 80,
                "duration": 0.05,
                "tempo": 120.0
            },
            {
                "start_time": 86.4659091,
                "end_time": 86.5659091,
                "pitch": 33,
                "velocity": 80,
                "duration": 0.1,
                "tempo": 120.0
            },
            {
                "start_time": 86.8659091,
                "end_time": 86.9181818,
                "pitch": 33,
                "velocity": 80,
                "duration": 0.0522727,
                "tempo": 120.0
            },
            {
                "start_time": 87.0681818,
                "end_time": 87.1181818,
                "pitch": 45,
                "velocity": 80,
                "duration": 0.05,
                "tempo": 120.0
            },
            {
                "start_time": 87.2681818,
                "end_time": 87.3181818,
                "pitch": 33,
                "velocity": 80,
                "duration": 0.05,
                "tempo": 120.0
            },
            {
                "start_time": 87.4681818,
                "end_time": 87.5181818,
                "pitch": 33,
                "velocity": 80,
                "duration": 0.05,
                "tempo": 120.0
            },
            {
                "start_time": 87.6704545,
                "end_time": 87.7204545,
                "pitch": 35,
                "velocity": 80,
                "duration": 0.05,
                "tempo": 120.0
            },
            {
                "start_time": 87.8704545,
                "end_time": 87.9204545,
                "pitch": 36,
                "velocity": 80,
                "duration": 0.05,
                "tempo": 120.0
            },
            {
                "start_time": 88.0727273,
                "end_time": 88.1227273,
                "pitch": 33,
                "velocity": 80,
                "duration": 0.05,
                "tempo": 120.0
            },
            {
                "start_time": 88.2727273,
                "end_time": 88.3727273,
                "pitch": 29,
                "velocity": 80,
                "duration": 0.1,
                "tempo": 120.0
            },
            {
                "start_time": 88.6727273,
                "end_time": 88.725,
                "pitch": 41,
                "velocity": 80,
                "duration": 0.0522727,
                "tempo": 120.0
            },
            {
                "start_time": 88.875,
                "end_time": 88.975,
                "pitch": 28,
                "velocity": 80,
                "duration": 0.1,
                "tempo": 120.0
            },
            {
                "start_time": 89.2772727,
                "end_time": 89.3772727,
                "pitch": 40,
                "velocity": 80,
                "duration": 0.1,
                "tempo": 120.0
            },
            {
                "start_time": 89.6772727,
                "end_time": 91.0840909,
                "pitch": 41,
                "velocity": 80,
                "duration": 1.4068182,
                "tempo": 120.0
            },
            {
                "start_time": 91.0840909,
                "end_time": 91.1545455,
                "pitch": 40,
                "velocity": 80,
                "duration": 0.0704545,
                "tempo": 120.0
            },
            {
                "start_time": 91.1545455,
                "end_time": 91.225,
                "pitch": 38,
                "velocity": 80,
                "duration": 0.0704545,
                "tempo": 120.0
            },
            {
                "start_time": 91.225,
                "end_time": 91.2840909,
                "pitch": 36,
                "velocity": 80,
                "duration": 0.0590909,
                "tempo": 120.0
            },
            {
                "start_time": 91.2840909,
                "end_time": 91.3545455,
                "pitch": 35,
                "velocity": 80,
                "duration": 0.0704545,
                "tempo": 120.0
            },
            {
                "start_time": 91.3545455,
                "end_time": 91.4840909,
                "pitch": 33,
                "velocity": 80,
                "duration": 0.1295455,
                "tempo": 120.0
            }
        ],
        "Lead 2 (sawtooth)": [
            {
                "start_time": 15.4863636,
                "end_time": 15.6863636,
                "pitch": 69,
                "velocity": 80,
                "duration": 0.2,
                "tempo": 120.0
            },
            {
                "start_time": 15.6863636,
                "end_time": 15.8863636,
                "pitch": 81,
                "velocity": 80,
                "duration": 0.2,
                "tempo": 120.0
            },
            {
                "start_time": 15.8863636,
                "end_time": 16.0863636,
                "pitch": 69,
                "velocity": 80,
                "duration": 0.2,
                "tempo": 120.0
            },
            {
                "start_time": 18.4954545,
                "end_time": 18.5954545,
                "pitch": 69,
                "velocity": 80,
                "duration": 0.1,
                "tempo": 120.0
            },
            {
                "start_time": 18.5954545,
                "end_time": 18.6954545,
                "pitch": 69,
                "velocity": 80,
                "duration": 0.1,
                "tempo": 120.0
            },
            {
                "start_time": 18.6954545,
                "end_time": 18.7977273,
                "pitch": 81,
                "velocity": 80,
                "duration": 0.1022727,
                "tempo": 120.0
            },
            {
                "start_time": 18.7977273,
                "end_time": 18.8977273,
                "pitch": 81,
                "velocity": 80,
                "duration": 0.1,
                "tempo": 120.0
            },
            {
                "start_time": 18.8977273,
                "end_time": 18.9977273,
                "pitch": 69,
                "velocity": 80,
                "duration": 0.1,
                "tempo": 120.0
            },
            {
                "start_time": 18.9977273,
                "end_time": 19.0977273,
                "pitch": 69,
                "velocity": 80,
                "duration": 0.1,
                "tempo": 120.0
            },
            {
                "start_time": 19.0977273,
                "end_time": 19.1977273,
                "pitch": 81,
                "velocity": 80,
                "duration": 0.1,
                "tempo": 120.0
            },
            {
                "start_time": 19.1977273,
                "end_time": 19.2977273,
                "pitch": 81,
                "velocity": 80,
                "duration": 0.1,
                "tempo": 120.0
            },
            {
                "start_time": 21.9045455,
                "end_time": 22.1068182,
                "pitch": 69,
                "velocity": 80,
                "duration": 0.2022727,
                "tempo": 120.0
            },
            {
                "start_time": 22.1068182,
                "end_time": 22.3068182,
                "pitch": 81,
                "velocity": 80,
                "duration": 0.2,
                "tempo": 120.0
            },
            {
                "start_time": 22.3068182,
                "end_time": 22.5068182,
                "pitch": 69,
                "velocity": 80,
                "duration": 0.2,
                "tempo": 120.0
            },
            {
                "start_time": 25.1090909,
                "end_time": 25.2113636,
                "pitch": 76,
                "velocity": 80,
                "duration": 0.1022727,
                "tempo": 120.0
            },
            {
                "start_time": 25.2113636,
                "end_time": 25.3136364,
                "pitch": 76,
                "velocity": 80,
                "duration": 0.1022727,
                "tempo": 120.0
            },
            {
                "start_time": 25.3136364,
                "end_time": 25.4136364,
                "pitch": 81,
                "velocity": 80,
                "duration": 0.1,
                "tempo": 120.0
            },
            {
                "start_time": 25.4136364,
                "end_time": 25.5136364,
                "pitch": 81,
                "velocity": 80,
                "duration": 0.1,
                "tempo": 120.0
            },
            {
                "start_time": 25.5136364,
                "end_time": 25.6136364,
                "pitch": 76,
                "velocity": 80,
                "duration": 0.1,
                "tempo": 120.0
            },
            {
                "start_time": 25.6136364,
                "end_time": 25.7136364,
                "pitch": 76,
                "velocity": 80,
                "duration": 0.1,
                "tempo": 120.0
            },
            {
                "start_time": 28.3227273,
                "end_time": 28.5227273,
                "pitch": 69,
                "velocity": 80,
                "duration": 0.2,
                "tempo": 120.0
            },
            {
                "start_time": 28.5227273,
                "end_time": 28.7227273,
                "pitch": 81,
                "velocity": 80,
                "duration": 0.2,
                "tempo": 120.0
            },
            {
                "start_time": 28.7227273,
                "end_time": 28.925,
                "pitch": 69,
                "velocity": 80,
                "duration": 0.2022727,
                "tempo": 120.0
            },
            {
                "start_time": 31.3295455,
                "end_time": 31.4295455,
                "pitch": 69,
                "velocity": 80,
                "duration": 0.1,
                "tempo": 120.0
            },
            {
                "start_time": 31.4295455,
                "end_time": 31.5295455,
                "pitch": 69,
                "velocity": 80,
                "duration": 0.1,
                "tempo": 120.0
            },
            {
                "start_time": 31.5295455,
                "end_time": 31.6295455,
                "pitch": 81,
                "velocity": 80,
                "duration": 0.1,
                "tempo": 120.0
            },
            {
                "start_time": 31.6295455,
                "end_time": 31.7295455,
                "pitch": 81,
                "velocity": 80,
                "duration": 0.1,
                "tempo": 120.0
            },
            {
                "start_time": 31.7295455,
                "end_time": 31.8318182,
                "pitch": 69,
                "velocity": 80,
                "duration": 0.1022727,
                "tempo": 120.0
            },
            {
                "start_time": 31.8318182,
                "end_time": 31.9318182,
                "pitch": 69,
                "velocity": 80,
                "duration": 0.1,
                "tempo": 120.0
            },
            {
                "start_time": 31.9318182,
                "end_time": 32.0318182,
                "pitch": 81,
                "velocity": 80,
                "duration": 0.1,
                "tempo": 120.0
            },
            {
                "start_time": 32.0318182,
                "end_time": 32.1340909,
                "pitch": 81,
                "velocity": 80,
                "duration": 0.1022727,
                "tempo": 120.0
            },
            {
                "start_time": 34.7386364,
                "end_time": 34.9386364,
                "pitch": 69,
                "velocity": 80,
                "duration": 0.2,
                "tempo": 120.0
            },
            {
                "start_time": 34.9386364,
                "end_time": 35.1386364,
                "pitch": 81,
                "velocity": 80,
                "duration": 0.2,
                "tempo": 120.0
            },
            {
                "start_time": 35.1386364,
                "end_time": 35.3386364,
                "pitch": 69,
                "velocity": 80,
                "duration": 0.2,
                "tempo": 120.0
            },
            {
                "start_time": 36.9409091,
                "end_time": 37.0818182,
                "pitch": 45,
                "velocity": 80,
                "duration": 0.1409091,
                "tempo": 120.0
            },
            {
                "start_time": 37.0818182,
                "end_time": 37.2113636,
                "pitch": 47,
                "velocity": 80,
                "duration": 0.1295455,
                "tempo": 120.0
            },
            {
                "start_time": 37.2113636,
                "end_time": 37.3409091,
                "pitch": 48,
                "velocity": 80,
                "duration": 0.1295455,
                "tempo": 120.0
            },
            {
                "start_time": 37.3409091,
                "end_time": 37.4431818,
                "pitch": 50,
                "velocity": 80,
                "duration": 0.1022727,
                "tempo": 120.0
            },
            {
                "start_time": 37.4431818,
                "end_time": 37.5454545,
                "pitch": 52,
                "velocity": 80,
                "duration": 0.1022727,
                "tempo": 120.0
            },
            {
                "start_time": 37.5454545,
                "end_time": 37.65,
                "pitch": 53,
                "velocity": 80,
                "duration": 0.1045455,
                "tempo": 120.0
            },
            {
                "start_time": 37.65,
                "end_time": 37.7522727,
                "pitch": 55,
                "velocity": 80,
                "duration": 0.1022727,
                "tempo": 120.0
            },
            {
                "start_time": 37.7522727,
                "end_time": 37.8204545,
                "pitch": 57,
                "velocity": 80,
                "duration": 0.0681818,
                "tempo": 120.0
            },
            {
                "start_time": 37.8204545,
                "end_time": 37.8886364,
                "pitch": 59,
                "velocity": 80,
                "duration": 0.0681818,
                "tempo": 120.0
            },
            {
                "start_time": 37.8886364,
                "end_time": 37.9477273,
                "pitch": 60,
                "velocity": 80,
                "duration": 0.0590909,
                "tempo": 120.0
            },
            {
                "start_time": 37.9477273,
                "end_time": 38.0159091,
                "pitch": 62,
                "velocity": 80,
                "duration": 0.0681818,
                "tempo": 120.0
            },
            {
                "start_time": 38.0159091,
                "end_time": 38.0840909,
                "pitch": 64,
                "velocity": 80,
                "duration": 0.0681818,
                "tempo": 120.0
            },
            {
                "start_time": 38.0840909,
                "end_time": 38.1431818,
                "pitch": 65,
                "velocity": 80,
                "duration": 0.0590909,
                "tempo": 120.0
            },
            {
                "start_time": 38.1431818,
                "end_time": 38.1931818,
                "pitch": 67,
                "velocity": 80,
                "duration": 0.05,
                "tempo": 120.0
            },
            {
                "start_time": 38.1931818,
                "end_time": 38.2454545,
                "pitch": 69,
                "velocity": 80,
                "duration": 0.0522727,
                "tempo": 120.0
            },
            {
                "start_time": 38.2454545,
                "end_time": 38.2954545,
                "pitch": 71,
                "velocity": 80,
                "duration": 0.05,
                "tempo": 120.0
            },
            {
                "start_time": 38.2954545,
                "end_time": 38.3454545,
                "pitch": 72,
                "velocity": 80,
                "duration": 0.05,
                "tempo": 120.0
            },
            {
                "start_time": 38.3454545,
                "end_time": 38.3954545,
                "pitch": 74,
                "velocity": 80,
                "duration": 0.05,
                "tempo": 120.0
            },
            {
                "start_time": 38.3954545,
                "end_time": 38.4454545,
                "pitch": 76,
                "velocity": 80,
                "duration": 0.05,
                "tempo": 120.0
            },
            {
                "start_time": 38.4454545,
                "end_time": 38.4954545,
                "pitch": 77,
                "velocity": 80,
                "duration": 0.05,
                "tempo": 120.0
            },
            {
                "start_time": 38.4954545,
                "end_time": 38.5477273,
                "pitch": 79,
                "velocity": 80,
                "duration": 0.0522727,
                "tempo": 120.0
            },
            {
                "start_time": 38.5477273,
                "end_time": 40.1477273,
                "pitch": 68,
                "velocity": 80,
                "duration": 1.6,
                "tempo": 120.0
            },
            {
                "start_time": 40.1477273,
                "end_time": 41.75,
                "pitch": 67,
                "velocity": 80,
                "duration": 1.6022727,
                "tempo": 120.0
            },
            {
                "start_time": 41.75,
                "end_time": 43.3522727,
                "pitch": 66,
                "velocity": 80,
                "duration": 1.6022727,
                "tempo": 120.0
            },
            {
                "start_time": 43.3522727,
                "end_time": 44.5545455,
                "pitch": 65,
                "velocity": 80,
                "duration": 1.2022727,
                "tempo": 120.0
            },
            {
                "start_time": 44.5545455,
                "end_time": 44.9545455,
                "pitch": 61,
                "velocity": 80,
                "duration": 0.4,
                "tempo": 120.0
            },
            {
                "start_time": 44.9545455,
                "end_time": 45.5545455,
                "pitch": 63,
                "velocity": 80,
                "duration": 0.6,
                "tempo": 120.0
            },
            {
                "start_time": 45.5545455,
                "end_time": 46.1545455,
                "pitch": 65,
                "velocity": 80,
                "duration": 0.6,
                "tempo": 120.0
            },
            {
                "start_time": 46.1545455,
                "end_time": 46.5568182,
                "pitch": 66,
                "velocity": 80,
                "duration": 0.4022727,
                "tempo": 120.0
            },
            {
                "start_time": 46.5568182,
                "end_time": 47.1568182,
                "pitch": 65,
                "velocity": 80,
                "duration": 0.6,
                "tempo": 120.0
            },
            {
                "start_time": 47.1568182,
                "end_time": 47.7568182,
                "pitch": 68,
                "velocity": 80,
                "duration": 0.6,
                "tempo": 120.0
            },
            {
                "start_time": 47.7568182,
                "end_time": 48.1568182,
                "pitch": 70,
                "velocity": 80,
                "duration": 0.4,
                "tempo": 120.0
            },
            {
                "start_time": 48.1568182,
                "end_time": 48.7590909,
                "pitch": 70,
                "velocity": 80,
                "duration": 0.6022727,
                "tempo": 120.0
            },
            {
                "start_time": 48.7590909,
                "end_time": 48.9590909,
                "pitch": 67,
                "velocity": 80,
                "duration": 0.2,
                "tempo": 120.0
            },
            {
                "start_time": 48.9590909,
                "end_time": 49.3590909,
                "pitch": 67,
                "velocity": 80,
                "duration": 0.4,
                "tempo": 120.0
            },
            {
                "start_time": 49.3590909,
                "end_time": 49.7590909,
                "pitch": 70,
                "velocity": 80,
                "duration": 0.4,
                "tempo": 120.0
            },
            {
                "start_time": 49.7590909,
                "end_time": 50.3613636,
                "pitch": 70,
                "velocity": 80,
                "duration": 0.6022727,
                "tempo": 120.0
            },
            {
                "start_time": 50.3613636,
                "end_time": 51.3636364,
                "pitch": 72,
                "velocity": 80,
                "duration": 1.0022727,
                "tempo": 120.0
            },
            {
                "start_time": 51.3636364,
                "end_time": 51.5636364,
                "pitch": 61,
                "velocity": 80,
                "duration": 0.2,
                "tempo": 120.0
            },
            {
                "start_time": 51.5636364,
                "end_time": 51.7636364,
                "pitch": 61,
                "velocity": 80,
                "duration": 0.2,
                "tempo": 120.0
            },
            {
                "start_time": 51.7636364,
                "end_time": 51.9636364,
                "pitch": 61,
                "velocity": 80,
                "duration": 0.2,
                "tempo": 120.0
            },
            {
                "start_time": 51.9636364,
                "end_time": 52.1636364,
                "pitch": 63,
                "velocity": 80,
                "duration": 0.2,
                "tempo": 120.0
            },
            {
                "start_time": 52.3636364,
                "end_time": 52.5659091,
                "pitch": 63,
                "velocity": 80,
                "duration": 0.2022727,
                "tempo": 120.0
            },
            {
                "start_time": 52.7659091,
                "end_time": 52.9659091,
                "pitch": 63,
                "velocity": 80,
                "duration": 0.2,
                "tempo": 120.0
            },
            {
                "start_time": 53.1659091,
                "end_time": 53.3659091,
                "pitch": 65,
                "velocity": 80,
                "duration": 0.2,
                "tempo": 120.0
            },
            {
                "start_time": 53.3659091,
                "end_time": 53.7659091,
                "pitch": 65,
                "velocity": 80,
                "duration": 0.4,
                "tempo": 120.0
            },
            {
                "start_time": 53.7659091,
                "end_time": 54.1659091,
                "pitch": 61,
                "velocity": 80,
                "duration": 0.4,
                "tempo": 120.0
            },
            {
                "start_time": 54.1659091,
                "end_time": 54.5681818,
                "pitch": 60,
                "velocity": 80,
                "duration": 0.4022727,
                "tempo": 120.0
            },
            {
                "start_time": 54.5681818,
                "end_time": 54.7681818,
                "pitch": 60,
                "velocity": 80,
                "duration": 0.2,
                "tempo": 120.0
            },
            {
                "start_time": 54.7681818,
                "end_time": 54.9681818,
                "pitch": 60,
                "velocity": 80,
                "duration": 0.2,
                "tempo": 120.0
            },
            {
                "start_time": 54.9681818,
                "end_time": 55.1681818,
                "pitch": 61,
                "velocity": 80,
                "duration": 0.2,
                "tempo": 120.0
            },
            {
                "start_time": 55.1681818,
                "end_time": 55.3681818,
                "pitch": 63,
                "velocity": 80,
                "duration": 0.2,
                "tempo": 120.0
            },
            {
                "start_time": 55.5681818,
                "end_time": 55.7681818,
                "pitch": 63,
                "velocity": 80,
                "duration": 0.2,
                "tempo": 120.0
            },
            {
                "start_time": 55.9681818,
                "end_time": 56.1681818,
                "pitch": 63,
                "velocity": 80,
                "duration": 0.2,
                "tempo": 120.0
            },
            {
                "start_time": 56.3704545,
                "end_time": 56.5704545,
                "pitch": 65,
                "velocity": 80,
                "duration": 0.2,
                "tempo": 120.0
            },
            {
                "start_time": 56.5704545,
                "end_time": 56.9704545,
                "pitch": 65,
                "velocity": 80,
                "duration": 0.4,
                "tempo": 120.0
            },
            {
                "start_time": 56.9704545,
                "end_time": 57.3704545,
                "pitch": 65,
                "velocity": 80,
                "duration": 0.4,
                "tempo": 120.0
            },
            {
                "start_time": 57.3704545,
                "end_time": 57.7704545,
                "pitch": 68,
                "velocity": 80,
                "duration": 0.4,
                "tempo": 120.0
            },
            {
                "start_time": 57.7704545,
                "end_time": 57.9704545,
                "pitch": 61,
                "velocity": 80,
                "duration": 0.2,
                "tempo": 120.0
            },
            {
                "start_time": 57.9704545,
                "end_time": 58.1704545,
                "pitch": 61,
                "velocity": 80,
                "duration": 0.2,
                "tempo": 120.0
            },
            {
                "start_time": 58.1704545,
                "end_time": 58.3727273,
                "pitch": 61,
                "velocity": 80,
                "duration": 0.2022727,
                "tempo": 120.0
            },
            {
                "start_time": 58.3727273,
                "end_time": 58.5727273,
                "pitch": 63,
                "velocity": 80,
                "duration": 0.2,
                "tempo": 120.0
            },
            {
                "start_time": 58.7727273,
                "end_time": 58.9727273,
                "pitch": 63,
                "velocity": 80,
                "duration": 0.2,
                "tempo": 120.0
            },
            {
                "start_time": 59.1727273,
                "end_time": 59.3727273,
                "pitch": 63,
                "velocity": 80,
                "duration": 0.2,
                "tempo": 120.0
            },
            {
                "start_time": 59.5727273,
                "end_time": 59.7727273,
                "pitch": 65,
                "velocity": 80,
                "duration": 0.2,
                "tempo": 120.0
            },
            {
                "start_time": 59.7727273,
                "end_time": 60.1727273,
                "pitch": 65,
                "velocity": 80,
                "duration": 0.4,
                "tempo": 120.0
            },
            {
                "start_time": 60.1727273,
                "end_time": 60.5772727,
                "pitch": 61,
                "velocity": 80,
                "duration": 0.4045455,
                "tempo": 120.0
            },
            {
                "start_time": 60.5772727,
                "end_time": 60.9772727,
                "pitch": 60,
                "velocity": 80,
                "duration": 0.4,
                "tempo": 120.0
            },
            {
                "start_time": 60.9772727,
                "end_time": 61.1772727,
                "pitch": 61,
                "velocity": 80,
                "duration": 0.2,
                "tempo": 120.0
            },
            {
                "start_time": 61.1772727,
                "end_time": 61.3772727,
                "pitch": 61,
                "velocity": 80,
                "duration": 0.2,
                "tempo": 120.0
            },
            {
                "start_time": 61.3772727,
                "end_time": 61.5772727,
                "pitch": 61,
                "velocity": 80,
                "duration": 0.2,
                "tempo": 120.0
            },
            {
                "start_time": 61.5772727,
                "end_time": 61.7772727,
                "pitch": 63,
                "velocity": 80,
                "duration": 0.2,
                "tempo": 120.0
            },
            {
                "start_time": 61.9772727,
                "end_time": 62.175,
                "pitch": 63,
                "velocity": 80,
                "duration": 0.1977273,
                "tempo": 120.0
            },
            {
                "start_time": 62.3727273,
                "end_time": 65.7840909,
                "pitch": 65,
                "velocity": 80,
                "duration": 3.4113636,
                "tempo": 120.0
            },
            {
                "start_time": 68.3954545,
                "end_time": 68.5954545,
                "pitch": 69,
                "velocity": 80,
                "duration": 0.2,
                "tempo": 120.0
            },
            {
                "start_time": 68.5954545,
                "end_time": 68.7977273,
                "pitch": 81,
                "velocity": 80,
                "duration": 0.2022727,
                "tempo": 120.0
            },
            {
                "start_time": 68.7977273,
                "end_time": 68.9977273,
                "pitch": 69,
                "velocity": 80,
                "duration": 0.2,
                "tempo": 120.0
            },
            {
                "start_time": 71.4068182,
                "end_time": 71.5068182,
                "pitch": 69,
                "velocity": 80,
                "duration": 0.1,
                "tempo": 120.0
            },
            {
                "start_time": 71.5068182,
                "end_time": 71.6068182,
                "pitch": 69,
                "velocity": 80,
                "duration": 0.1,
                "tempo": 120.0
            },
            {
                "start_time": 71.6068182,
                "end_time": 71.7090909,
                "pitch": 81,
                "velocity": 80,
                "duration": 0.1022727,
                "tempo": 120.0
            },
            {
                "start_time": 71.7090909,
                "end_time": 71.8090909,
                "pitch": 81,
                "velocity": 80,
                "duration": 0.1,
                "tempo": 120.0
            },
            {
                "start_time": 71.8090909,
                "end_time": 71.9090909,
                "pitch": 69,
                "velocity": 80,
                "duration": 0.1,
                "tempo": 120.0
            },
            {
                "start_time": 71.9090909,
                "end_time": 72.0090909,
                "pitch": 69,
                "velocity": 80,
                "duration": 0.1,
                "tempo": 120.0
            },
            {
                "start_time": 72.0090909,
                "end_time": 72.1113636,
                "pitch": 81,
                "velocity": 80,
                "duration": 0.1022727,
                "tempo": 120.0
            },
            {
                "start_time": 72.1113636,
                "end_time": 72.2113636,
                "pitch": 81,
                "velocity": 80,
                "duration": 0.1,
                "tempo": 120.0
            },
            {
                "start_time": 74.8204545,
                "end_time": 75.0227273,
                "pitch": 69,
                "velocity": 80,
                "duration": 0.2022727,
                "tempo": 120.0
            },
            {
                "start_time": 75.0227273,
                "end_time": 75.2227273,
                "pitch": 81,
                "velocity": 80,
                "duration": 0.2,
                "tempo": 120.0
            },
            {
                "start_time": 75.2227273,
                "end_time": 75.4227273,
                "pitch": 69,
                "velocity": 80,
                "duration": 0.2,
                "tempo": 120.0
            },
            {
                "start_time": 78.0272727,
                "end_time": 78.1295455,
                "pitch": 76,
                "velocity": 80,
                "duration": 0.1022727,
                "tempo": 120.0
            },
            {
                "start_time": 78.1295455,
                "end_time": 78.2340909,
                "pitch": 76,
                "velocity": 80,
                "duration": 0.1045455,
                "tempo": 120.0
            },
            {
                "start_time": 78.2340909,
                "end_time": 78.3340909,
                "pitch": 81,
                "velocity": 80,
                "duration": 0.1,
                "tempo": 120.0
            },
            {
                "start_time": 78.3340909,
                "end_time": 78.4340909,
                "pitch": 81,
                "velocity": 80,
                "duration": 0.1,
                "tempo": 120.0
            },
            {
                "start_time": 78.4340909,
                "end_time": 78.5340909,
                "pitch": 76,
                "velocity": 80,
                "duration": 0.1,
                "tempo": 120.0
            },
            {
                "start_time": 78.5340909,
                "end_time": 78.6340909,
                "pitch": 76,
                "velocity": 80,
                "duration": 0.1,
                "tempo": 120.0
            },
            {
                "start_time": 81.2431818,
                "end_time": 81.4431818,
                "pitch": 69,
                "velocity": 80,
                "duration": 0.2,
                "tempo": 120.0
            },
            {
                "start_time": 81.4431818,
                "end_time": 81.6454545,
                "pitch": 81,
                "velocity": 80,
                "duration": 0.2022727,
                "tempo": 120.0
            },
            {
                "start_time": 81.6454545,
                "end_time": 81.8477273,
                "pitch": 69,
                "velocity": 80,
                "duration": 0.2022727,
                "tempo": 120.0
            },
            {
                "start_time": 84.2568182,
                "end_time": 84.3568182,
                "pitch": 69,
                "velocity": 80,
                "duration": 0.1,
                "tempo": 120.0
            },
            {
                "start_time": 84.3568182,
                "end_time": 84.4568182,
                "pitch": 69,
                "velocity": 80,
                "duration": 0.1,
                "tempo": 120.0
            },
            {
                "start_time": 84.4568182,
                "end_time": 84.5568182,
                "pitch": 81,
                "velocity": 80,
                "duration": 0.1,
                "tempo": 120.0
            },
            {
                "start_time": 84.5568182,
                "end_time": 84.6568182,
                "pitch": 81,
                "velocity": 80,
                "duration": 0.1,
                "tempo": 120.0
            },
            {
                "start_time": 84.6568182,
                "end_time": 84.7590909,
                "pitch": 69,
                "velocity": 80,
                "duration": 0.1022727,
                "tempo": 120.0
            },
            {
                "start_time": 84.7590909,
                "end_time": 84.8590909,
                "pitch": 69,
                "velocity": 80,
                "duration": 0.1,
                "tempo": 120.0
            },
            {
                "start_time": 84.8590909,
                "end_time": 84.9590909,
                "pitch": 81,
                "velocity": 80,
                "duration": 0.1,
                "tempo": 120.0
            },
            {
                "start_time": 84.9590909,
                "end_time": 85.0590909,
                "pitch": 81,
                "velocity": 80,
                "duration": 0.1,
                "tempo": 120.0
            },
            {
                "start_time": 87.6704545,
                "end_time": 87.8704545,
                "pitch": 69,
                "velocity": 80,
                "duration": 0.2,
                "tempo": 120.0
            },
            {
                "start_time": 87.8704545,
                "end_time": 88.0727273,
                "pitch": 81,
                "velocity": 80,
                "duration": 0.2022727,
                "tempo": 120.0
            },
            {
                "start_time": 88.0727273,
                "end_time": 88.2727273,
                "pitch": 69,
                "velocity": 80,
                "duration": 0.2,
                "tempo": 120.0
            },
            {
                "start_time": 89.8795455,
                "end_time": 90.0204545,
                "pitch": 45,
                "velocity": 80,
                "duration": 0.1409091,
                "tempo": 120.0
            },
            {
                "start_time": 90.0204545,
                "end_time": 90.15,
                "pitch": 47,
                "velocity": 80,
                "duration": 0.1295455,
                "tempo": 120.0
            },
            {
                "start_time": 90.15,
                "end_time": 90.2818182,
                "pitch": 48,
                "velocity": 80,
                "duration": 0.1318182,
                "tempo": 120.0
            },
            {
                "start_time": 90.2818182,
                "end_time": 90.3840909,
                "pitch": 50,
                "velocity": 80,
                "duration": 0.1022727,
                "tempo": 120.0
            },
            {
                "start_time": 90.3840909,
                "end_time": 90.4863636,
                "pitch": 52,
                "velocity": 80,
                "duration": 0.1022727,
                "tempo": 120.0
            },
            {
                "start_time": 90.4863636,
                "end_time": 90.5886364,
                "pitch": 53,
                "velocity": 80,
                "duration": 0.1022727,
                "tempo": 120.0
            },
            {
                "start_time": 90.5886364,
                "end_time": 90.6931818,
                "pitch": 55,
                "velocity": 80,
                "duration": 0.1045455,
                "tempo": 120.0
            },
            {
                "start_time": 90.6931818,
                "end_time": 90.7613636,
                "pitch": 57,
                "velocity": 80,
                "duration": 0.0681818,
                "tempo": 120.0
            },
            {
                "start_time": 90.7613636,
                "end_time": 90.8295455,
                "pitch": 59,
                "velocity": 80,
                "duration": 0.0681818,
                "tempo": 120.0
            },
            {
                "start_time": 90.8295455,
                "end_time": 90.8886364,
                "pitch": 60,
                "velocity": 80,
                "duration": 0.0590909,
                "tempo": 120.0
            },
            {
                "start_time": 90.8886364,
                "end_time": 90.9568182,
                "pitch": 62,
                "velocity": 80,
                "duration": 0.0681818,
                "tempo": 120.0
            },
            {
                "start_time": 90.9568182,
                "end_time": 91.025,
                "pitch": 64,
                "velocity": 80,
                "duration": 0.0681818,
                "tempo": 120.0
            },
            {
                "start_time": 91.025,
                "end_time": 91.0840909,
                "pitch": 65,
                "velocity": 80,
                "duration": 0.0590909,
                "tempo": 120.0
            },
            {
                "start_time": 91.0840909,
                "end_time": 91.1340909,
                "pitch": 67,
                "velocity": 80,
                "duration": 0.05,
                "tempo": 120.0
            },
            {
                "start_time": 91.1340909,
                "end_time": 91.1840909,
                "pitch": 69,
                "velocity": 80,
                "duration": 0.05,
                "tempo": 120.0
            },
            {
                "start_time": 91.1840909,
                "end_time": 91.2340909,
                "pitch": 71,
                "velocity": 80,
                "duration": 0.05,
                "tempo": 120.0
            },
            {
                "start_time": 91.2340909,
                "end_time": 91.2840909,
                "pitch": 72,
                "velocity": 80,
                "duration": 0.05,
                "tempo": 120.0
            },
            {
                "start_time": 91.2840909,
                "end_time": 91.3340909,
                "pitch": 74,
                "velocity": 80,
                "duration": 0.05,
                "tempo": 120.0
            },
            {
                "start_time": 91.3340909,
                "end_time": 91.3840909,
                "pitch": 76,
                "velocity": 80,
                "duration": 0.05,
                "tempo": 120.0
            },
            {
                "start_time": 91.3840909,
                "end_time": 91.4340909,
                "pitch": 77,
                "velocity": 80,
                "duration": 0.05,
                "tempo": 120.0
            },
            {
                "start_time": 91.4340909,
                "end_time": 91.4840909,
                "pitch": 79,
                "velocity": 80,
                "duration": 0.05,
                "tempo": 120.0
            },
            {
                "start_time": 91.4840909,
                "end_time": 94.6954545,
                "pitch": 65,
                "velocity": 64,
                "duration": 3.2113636,
                "tempo": 120.0
            },
            {
                "start_time": 94.6954545,
                "end_time": 94.8977273,
                "pitch": 67,
                "velocity": 64,
                "duration": 0.2022727,
                "tempo": 120.0
            },
            {
                "start_time": 95.0977273,
                "end_time": 95.1977273,
                "pitch": 70,
                "velocity": 64,
                "duration": 0.1,
                "tempo": 120.0
            },
            {
                "start_time": 95.2977273,
                "end_time": 95.4977273,
                "pitch": 65,
                "velocity": 64,
                "duration": 0.2,
                "tempo": 120.0
            },
            {
                "start_time": 95.7045455,
                "end_time": 95.9090909,
                "pitch": 67,
                "velocity": 64,
                "duration": 0.2045455,
                "tempo": 120.0
            },
            {
                "start_time": 96.1045455,
                "end_time": 96.3022727,
                "pitch": 65,
                "velocity": 64,
                "duration": 0.1977273,
                "tempo": 120.0
            },
            {
                "start_time": 96.5068182,
                "end_time": 96.6090909,
                "pitch": 63,
                "velocity": 64,
                "duration": 0.1022727,
                "tempo": 120.0
            },
            {
                "start_time": 96.7113636,
                "end_time": 101.1318182,
                "pitch": 63,
                "velocity": 64,
                "duration": 4.4204545,
                "tempo": 120.0
            }
        ],
        "Trumpet": [
            {
                "start_time": 12.8704545,
                "end_time": 13.0727273,
                "pitch": 69,
                "velocity": 80,
                "duration": 0.2022727,
                "tempo": 120.0
            },
            {
                "start_time": 13.2727273,
                "end_time": 13.375,
                "pitch": 74,
                "velocity": 80,
                "duration": 0.1022727,
                "tempo": 120.0
            },
            {
                "start_time": 13.475,
                "end_time": 13.6772727,
                "pitch": 67,
                "velocity": 80,
                "duration": 0.2022727,
                "tempo": 120.0
            },
            {
                "start_time": 13.8772727,
                "end_time": 14.0772727,
                "pitch": 67,
                "velocity": 80,
                "duration": 0.2,
                "tempo": 120.0
            },
            {
                "start_time": 14.2772727,
                "end_time": 14.4795455,
                "pitch": 67,
                "velocity": 80,
                "duration": 0.2022727,
                "tempo": 120.0
            },
            {
                "start_time": 14.6795455,
                "end_time": 14.7818182,
                "pitch": 69,
                "velocity": 80,
                "duration": 0.1022727,
                "tempo": 120.0
            },
            {
                "start_time": 14.8818182,
                "end_time": 15.2840909,
                "pitch": 69,
                "velocity": 80,
                "duration": 0.4022727,
                "tempo": 120.0
            },
            {
                "start_time": 16.0863636,
                "end_time": 16.2886364,
                "pitch": 69,
                "velocity": 80,
                "duration": 0.2022727,
                "tempo": 120.0
            },
            {
                "start_time": 16.4886364,
                "end_time": 16.5909091,
                "pitch": 74,
                "velocity": 80,
                "duration": 0.1022727,
                "tempo": 120.0
            },
            {
                "start_time": 16.6909091,
                "end_time": 16.8931818,
                "pitch": 67,
                "velocity": 80,
                "duration": 0.2022727,
                "tempo": 120.0
            },
            {
                "start_time": 17.0931818,
                "end_time": 17.2931818,
                "pitch": 67,
                "velocity": 80,
                "duration": 0.2,
                "tempo": 120.0
            },
            {
                "start_time": 17.4931818,
                "end_time": 17.6931818,
                "pitch": 67,
                "velocity": 80,
                "duration": 0.2,
                "tempo": 120.0
            },
            {
                "start_time": 17.8931818,
                "end_time": 17.9954545,
                "pitch": 69,
                "velocity": 80,
                "duration": 0.1022727,
                "tempo": 120.0
            },
            {
                "start_time": 18.0954545,
                "end_time": 18.4954545,
                "pitch": 69,
                "velocity": 80,
                "duration": 0.4,
                "tempo": 120.0
            },
            {
                "start_time": 19.2977273,
                "end_time": 19.4977273,
                "pitch": 69,
                "velocity": 80,
                "duration": 0.2,
                "tempo": 120.0
            },
            {
                "start_time": 19.6977273,
                "end_time": 19.7977273,
                "pitch": 74,
                "velocity": 80,
                "duration": 0.1,
                "tempo": 120.0
            },
            {
                "start_time": 19.9,
                "end_time": 20.1,
                "pitch": 67,
                "velocity": 80,
                "duration": 0.2,
                "tempo": 120.0
            },
            {
                "start_time": 20.3,
                "end_time": 20.5,
                "pitch": 67,
                "velocity": 80,
                "duration": 0.2,
                "tempo": 120.0
            },
            {
                "start_time": 20.7022727,
                "end_time": 20.9022727,
                "pitch": 67,
                "velocity": 80,
                "duration": 0.2,
                "tempo": 120.0
            },
            {
                "start_time": 21.1022727,
                "end_time": 21.2022727,
                "pitch": 69,
                "velocity": 80,
                "duration": 0.1,
                "tempo": 120.0
            },
            {
                "start_time": 21.3022727,
                "end_time": 21.7022727,
                "pitch": 69,
                "velocity": 80,
                "duration": 0.4,
                "tempo": 120.0
            },
            {
                "start_time": 22.5068182,
                "end_time": 22.7068182,
                "pitch": 69,
                "velocity": 80,
                "duration": 0.2,
                "tempo": 120.0
            },
            {
                "start_time": 22.9090909,
                "end_time": 23.0090909,
                "pitch": 74,
                "velocity": 80,
                "duration": 0.1,
                "tempo": 120.0
            },
            {
                "start_time": 23.1090909,
                "end_time": 23.3090909,
                "pitch": 67,
                "velocity": 80,
                "duration": 0.2,
                "tempo": 120.0
            },
            {
                "start_time": 23.5090909,
                "end_time": 23.7090909,
                "pitch": 74,
                "velocity": 80,
                "duration": 0.2,
                "tempo": 120.0
            },
            {
                "start_time": 23.9090909,
                "end_time": 25.1090909,
                "pitch": 76,
                "velocity": 80,
                "duration": 1.2,
                "tempo": 120.0
            },
            {
                "start_time": 25.7136364,
                "end_time": 25.9159091,
                "pitch": 69,
                "velocity": 80,
                "duration": 0.2022727,
                "tempo": 120.0
            },
            {
                "start_time": 26.1159091,
                "end_time": 26.2159091,
                "pitch": 74,
                "velocity": 80,
                "duration": 0.1,
                "tempo": 120.0
            },
            {
                "start_time": 26.3159091,
                "end_time": 26.5159091,
                "pitch": 67,
                "velocity": 80,
                "duration": 0.2,
                "tempo": 120.0
            },
            {
                "start_time": 26.7181818,
                "end_time": 26.9204545,
                "pitch": 67,
                "velocity": 80,
                "duration": 0.2022727,
                "tempo": 120.0
            },
            {
                "start_time": 27.1204545,
                "end_time": 27.3204545,
                "pitch": 67,
                "velocity": 80,
                "duration": 0.2,
                "tempo": 120.0
            },
            {
                "start_time": 27.5204545,
                "end_time": 27.6204545,
                "pitch": 69,
                "velocity": 80,
                "duration": 0.1,
                "tempo": 120.0
            },
            {
                "start_time": 27.7204545,
                "end_time": 28.1227273,
                "pitch": 69,
                "velocity": 80,
                "duration": 0.4022727,
                "tempo": 120.0
            },
            {
                "start_time": 28.925,
                "end_time": 29.125,
                "pitch": 69,
                "velocity": 80,
                "duration": 0.2,
                "tempo": 120.0
            },
            {
                "start_time": 29.325,
                "end_time": 29.425,
                "pitch": 74,
                "velocity": 80,
                "duration": 0.1,
                "tempo": 120.0
            },
            {
                "start_time": 29.525,
                "end_time": 29.725,
                "pitch": 67,
                "velocity": 80,
                "duration": 0.2,
                "tempo": 120.0
            },
            {
                "start_time": 29.9272727,
                "end_time": 30.1272727,
                "pitch": 67,
                "velocity": 80,
                "duration": 0.2,
                "tempo": 120.0
            },
            {
                "start_time": 30.3272727,
                "end_time": 30.5272727,
                "pitch": 67,
                "velocity": 80,
                "duration": 0.2,
                "tempo": 120.0
            },
            {
                "start_time": 30.7295455,
                "end_time": 30.8295455,
                "pitch": 69,
                "velocity": 80,
                "duration": 0.1,
                "tempo": 120.0
            },
            {
                "start_time": 30.9295455,
                "end_time": 31.3295455,
                "pitch": 69,
                "velocity": 80,
                "duration": 0.4,
                "tempo": 120.0
            },
            {
                "start_time": 32.1340909,
                "end_time": 32.3340909,
                "pitch": 69,
                "velocity": 80,
                "duration": 0.2,
                "tempo": 120.0
            },
            {
                "start_time": 32.5363636,
                "end_time": 32.6363636,
                "pitch": 74,
                "velocity": 80,
                "duration": 0.1,
                "tempo": 120.0
            },
            {
                "start_time": 32.7363636,
                "end_time": 32.9363636,
                "pitch": 67,
                "velocity": 80,
                "duration": 0.2,
                "tempo": 120.0
            },
            {
                "start_time": 33.1363636,
                "end_time": 33.3363636,
                "pitch": 67,
                "velocity": 80,
                "duration": 0.2,
                "tempo": 120.0
            },
            {
                "start_time": 33.5363636,
                "end_time": 33.7363636,
                "pitch": 67,
                "velocity": 80,
                "duration": 0.2,
                "tempo": 120.0
            },
            {
                "start_time": 33.9363636,
                "end_time": 34.0363636,
                "pitch": 69,
                "velocity": 80,
                "duration": 0.1,
                "tempo": 120.0
            },
            {
                "start_time": 34.1363636,
                "end_time": 34.5386364,
                "pitch": 69,
                "velocity": 80,
                "duration": 0.4022727,
                "tempo": 120.0
            },
            {
                "start_time": 35.3386364,
                "end_time": 35.5386364,
                "pitch": 69,
                "velocity": 80,
                "duration": 0.2,
                "tempo": 120.0
            },
            {
                "start_time": 35.7386364,
                "end_time": 35.8386364,
                "pitch": 74,
                "velocity": 80,
                "duration": 0.1,
                "tempo": 120.0
            },
            {
                "start_time": 35.9386364,
                "end_time": 36.1386364,
                "pitch": 67,
                "velocity": 80,
                "duration": 0.2,
                "tempo": 120.0
            },
            {
                "start_time": 36.3386364,
                "end_time": 36.5409091,
                "pitch": 74,
                "velocity": 80,
                "duration": 0.2022727,
                "tempo": 120.0
            },
            {
                "start_time": 65.7840909,
                "end_time": 65.9863636,
                "pitch": 69,
                "velocity": 80,
                "duration": 0.2022727,
                "tempo": 120.0
            },
            {
                "start_time": 66.1863636,
                "end_time": 66.2863636,
                "pitch": 74,
                "velocity": 80,
                "duration": 0.1,
                "tempo": 120.0
            },
            {
                "start_time": 66.3863636,
                "end_time": 66.5863636,
                "pitch": 67,
                "velocity": 80,
                "duration": 0.2,
                "tempo": 120.0
            },
            {
                "start_time": 66.7886364,
                "end_time": 66.9909091,
                "pitch": 67,
                "velocity": 80,
                "duration": 0.2022727,
                "tempo": 120.0
            },
            {
                "start_time": 67.1909091,
                "end_time": 67.3909091,
                "pitch": 67,
                "velocity": 80,
                "duration": 0.2,
                "tempo": 120.0
            },
            {
                "start_time": 67.5909091,
                "end_time": 67.6909091,
                "pitch": 69,
                "velocity": 80,
                "duration": 0.1,
                "tempo": 120.0
            },
            {
                "start_time": 67.7931818,
                "end_time": 68.1954545,
                "pitch": 69,
                "velocity": 80,
                "duration": 0.4022727,
                "tempo": 120.0
            },
            {
                "start_time": 68.9977273,
                "end_time": 69.1977273,
                "pitch": 69,
                "velocity": 80,
                "duration": 0.2,
                "tempo": 120.0
            },
            {
                "start_time": 69.3977273,
                "end_time": 69.4977273,
                "pitch": 74,
                "velocity": 80,
                "duration": 0.1,
                "tempo": 120.0
            },
            {
                "start_time": 69.6,
                "end_time": 69.8,
                "pitch": 67,
                "velocity": 80,
                "duration": 0.2,
                "tempo": 120.0
            },
            {
                "start_time": 70.0022727,
                "end_time": 70.2045455,
                "pitch": 67,
                "velocity": 80,
                "duration": 0.2022727,
                "tempo": 120.0
            },
            {
                "start_time": 70.4045455,
                "end_time": 70.6045455,
                "pitch": 67,
                "velocity": 80,
                "duration": 0.2,
                "tempo": 120.0
            },
            {
                "start_time": 70.8045455,
                "end_time": 70.9045455,
                "pitch": 69,
                "velocity": 80,
                "duration": 0.1,
                "tempo": 120.0
            },
            {
                "start_time": 71.0068182,
                "end_time": 71.4068182,
                "pitch": 69,
                "velocity": 80,
                "duration": 0.4,
                "tempo": 120.0
            },
            {
                "start_time": 72.2113636,
                "end_time": 72.4113636,
                "pitch": 69,
                "velocity": 80,
                "duration": 0.2,
                "tempo": 120.0
            },
            {
                "start_time": 72.6113636,
                "end_time": 72.7113636,
                "pitch": 74,
                "velocity": 80,
                "duration": 0.1,
                "tempo": 120.0
            },
            {
                "start_time": 72.8136364,
                "end_time": 73.0136364,
                "pitch": 67,
                "velocity": 80,
                "duration": 0.2,
                "tempo": 120.0
            },
            {
                "start_time": 73.2136364,
                "end_time": 73.4136364,
                "pitch": 67,
                "velocity": 80,
                "duration": 0.2,
                "tempo": 120.0
            },
            {
                "start_time": 73.6159091,
                "end_time": 73.8159091,
                "pitch": 67,
                "velocity": 80,
                "duration": 0.2,
                "tempo": 120.0
            },
            {
                "start_time": 74.0181818,
                "end_time": 74.1181818,
                "pitch": 69,
                "velocity": 80,
                "duration": 0.1,
                "tempo": 120.0
            },
            {
                "start_time": 74.2204545,
                "end_time": 74.6204545,
                "pitch": 69,
                "velocity": 80,
                "duration": 0.4,
                "tempo": 120.0
            },
            {
                "start_time": 75.4227273,
                "end_time": 75.6227273,
                "pitch": 69,
                "velocity": 80,
                "duration": 0.2,
                "tempo": 120.0
            },
            {
                "start_time": 75.825,
                "end_time": 75.925,
                "pitch": 74,
                "velocity": 80,
                "duration": 0.1,
                "tempo": 120.0
            },
            {
                "start_time": 76.0272727,
                "end_time": 76.2272727,
                "pitch": 67,
                "velocity": 80,
                "duration": 0.2,
                "tempo": 120.0
            },
            {
                "start_time": 76.4272727,
                "end_time": 76.6272727,
                "pitch": 74,
                "velocity": 80,
                "duration": 0.2,
                "tempo": 120.0
            },
            {
                "start_time": 76.8295455,
                "end_time": 78.0272727,
                "pitch": 76,
                "velocity": 80,
                "duration": 1.1977273,
                "tempo": 120.0
            },
            {
                "start_time": 78.6340909,
                "end_time": 78.8340909,
                "pitch": 69,
                "velocity": 80,
                "duration": 0.2,
                "tempo": 120.0
            },
            {
                "start_time": 79.0363636,
                "end_time": 79.1363636,
                "pitch": 74,
                "velocity": 80,
                "duration": 0.1,
                "tempo": 120.0
            },
            {
                "start_time": 79.2363636,
                "end_time": 79.4363636,
                "pitch": 67,
                "velocity": 80,
                "duration": 0.2,
                "tempo": 120.0
            },
            {
                "start_time": 79.6363636,
                "end_time": 79.8386364,
                "pitch": 67,
                "velocity": 80,
                "duration": 0.2022727,
                "tempo": 120.0
            },
            {
                "start_time": 80.0409091,
                "end_time": 80.2409091,
                "pitch": 67,
                "velocity": 80,
                "duration": 0.2,
                "tempo": 120.0
            },
            {
                "start_time": 80.4409091,
                "end_time": 80.5409091,
                "pitch": 69,
                "velocity": 80,
                "duration": 0.1,
                "tempo": 120.0
            },
            {
                "start_time": 80.6409091,
                "end_time": 81.0431818,
                "pitch": 69,
                "velocity": 80,
                "duration": 0.4022727,
                "tempo": 120.0
            },
            {
                "start_time": 81.8477273,
                "end_time": 82.0477273,
                "pitch": 69,
                "velocity": 80,
                "duration": 0.2,
                "tempo": 120.0
            },
            {
                "start_time": 82.25,
                "end_time": 82.35,
                "pitch": 74,
                "velocity": 80,
                "duration": 0.1,
                "tempo": 120.0
            },
            {
                "start_time": 82.45,
                "end_time": 82.65,
                "pitch": 67,
                "velocity": 80,
                "duration": 0.2,
                "tempo": 120.0
            },
            {
                "start_time": 82.85,
                "end_time": 83.0522727,
                "pitch": 67,
                "velocity": 80,
                "duration": 0.2022727,
                "tempo": 120.0
            },
            {
                "start_time": 83.2522727,
                "end_time": 83.4522727,
                "pitch": 67,
                "velocity": 80,
                "duration": 0.2,
                "tempo": 120.0
            },
            {
                "start_time": 83.6545455,
                "end_time": 83.7545455,
                "pitch": 69,
                "velocity": 80,
                "duration": 0.1,
                "tempo": 120.0
            },
            {
                "start_time": 83.8545455,
                "end_time": 84.2568182,
                "pitch": 69,
                "velocity": 80,
                "duration": 0.4022727,
                "tempo": 120.0
            },
            {
                "start_time": 85.0590909,
                "end_time": 85.2590909,
                "pitch": 69,
                "velocity": 80,
                "duration": 0.2,
                "tempo": 120.0
            },
            {
                "start_time": 85.4590909,
                "end_time": 85.5613636,
                "pitch": 74,
                "velocity": 80,
                "duration": 0.1022727,
                "tempo": 120.0
            },
            {
                "start_time": 85.6613636,
                "end_time": 85.8636364,
                "pitch": 67,
                "velocity": 80,
                "duration": 0.2022727,
                "tempo": 120.0
            },
            {
                "start_time": 86.0636364,
                "end_time": 86.2659091,
                "pitch": 67,
                "velocity": 80,
                "duration": 0.2022727,
                "tempo": 120.0
            },
            {
                "start_time": 86.4659091,
                "end_time": 86.6659091,
                "pitch": 67,
                "velocity": 80,
                "duration": 0.2,
                "tempo": 120.0
            },
            {
                "start_time": 86.8659091,
                "end_time": 86.9681818,
                "pitch": 69,
                "velocity": 80,
                "duration": 0.1022727,
                "tempo": 120.0
            },
            {
                "start_time": 87.0681818,
                "end_time": 87.4681818,
                "pitch": 69,
                "velocity": 80,
                "duration": 0.4,
                "tempo": 120.0
            },
            {
                "start_time": 88.2727273,
                "end_time": 88.4727273,
                "pitch": 69,
                "velocity": 80,
                "duration": 0.2,
                "tempo": 120.0
            },
            {
                "start_time": 88.6727273,
                "end_time": 88.775,
                "pitch": 74,
                "velocity": 80,
                "duration": 0.1022727,
                "tempo": 120.0
            },
            {
                "start_time": 88.875,
                "end_time": 89.0772727,
                "pitch": 67,
                "velocity": 80,
                "duration": 0.2022727,
                "tempo": 120.0
            },
            {
                "start_time": 89.2772727,
                "end_time": 89.4772727,
                "pitch": 74,
                "velocity": 80,
                "duration": 0.2,
                "tempo": 120.0
            }
        ],
        "Church Organ": [
            {
                "start_time": 0.0204545,
                "end_time": 0.0409091,
                "pitch": 67,
                "velocity": 127,
                "duration": 0.0204545,
                "tempo": 120.0
            },
            {
                "start_time": 0.1204545,
                "end_time": 0.1409091,
                "pitch": 72,
                "velocity": 127,
                "duration": 0.0204545,
                "tempo": 120.0
            },
            {
                "start_time": 0.2204545,
                "end_time": 0.2409091,
                "pitch": 74,
                "velocity": 127,
                "duration": 0.0204545,
                "tempo": 120.0
            },
            {
                "start_time": 0.3227273,
                "end_time": 0.3431818,
                "pitch": 79,
                "velocity": 127,
                "duration": 0.0204545,
                "tempo": 120.0
            },
            {
                "start_time": 0.4227273,
                "end_time": 0.4431818,
                "pitch": 67,
                "velocity": 127,
                "duration": 0.0204545,
                "tempo": 120.0
            },
            {
                "start_time": 0.5227273,
                "end_time": 0.5431818,
                "pitch": 74,
                "velocity": 127,
                "duration": 0.0204545,
                "tempo": 120.0
            },
            {
                "start_time": 0.6227273,
                "end_time": 0.6431818,
                "pitch": 72,
                "velocity": 127,
                "duration": 0.0204545,
                "tempo": 120.0
            },
            {
                "start_time": 0.7227273,
                "end_time": 0.7431818,
                "pitch": 79,
                "velocity": 127,
                "duration": 0.0204545,
                "tempo": 120.0
            },
            {
                "start_time": 0.8227273,
                "end_time": 0.8431818,
                "pitch": 74,
                "velocity": 127,
                "duration": 0.0204545,
                "tempo": 120.0
            },
            {
                "start_time": 0.9227273,
                "end_time": 0.9431818,
                "pitch": 67,
                "velocity": 127,
                "duration": 0.0204545,
                "tempo": 120.0
            },
            {
                "start_time": 1.0227273,
                "end_time": 1.0431818,
                "pitch": 72,
                "velocity": 127,
                "duration": 0.0204545,
                "tempo": 120.0
            },
            {
                "start_time": 1.1227273,
                "end_time": 1.1431818,
                "pitch": 74,
                "velocity": 127,
                "duration": 0.0204545,
                "tempo": 120.0
            },
            {
                "start_time": 1.2227273,
                "end_time": 1.2431818,
                "pitch": 79,
                "velocity": 127,
                "duration": 0.0204545,
                "tempo": 120.0
            },
            {
                "start_time": 1.3272727,
                "end_time": 1.3477273,
                "pitch": 67,
                "velocity": 127,
                "duration": 0.0204545,
                "tempo": 120.0
            },
            {
                "start_time": 1.4318182,
                "end_time": 1.4545455,
                "pitch": 74,
                "velocity": 127,
                "duration": 0.0227273,
                "tempo": 120.0
            },
            {
                "start_time": 1.5386364,
                "end_time": 1.5590909,
                "pitch": 72,
                "velocity": 127,
                "duration": 0.0204545,
                "tempo": 120.0
            },
            {
                "start_time": 1.6431818,
                "end_time": 1.6636364,
                "pitch": 67,
                "velocity": 127,
                "duration": 0.0204545,
                "tempo": 120.0
            },
            {
                "start_time": 1.7431818,
                "end_time": 1.7613636,
                "pitch": 72,
                "velocity": 127,
                "duration": 0.0181818,
                "tempo": 120.0
            },
            {
                "start_time": 1.8409091,
                "end_time": 1.8613636,
                "pitch": 74,
                "velocity": 127,
                "duration": 0.0204545,
                "tempo": 120.0
            },
            {
                "start_time": 1.9386364,
                "end_time": 1.9590909,
                "pitch": 79,
                "velocity": 127,
                "duration": 0.0204545,
                "tempo": 120.0
            },
            {
                "start_time": 2.0363636,
                "end_time": 2.0568182,
                "pitch": 67,
                "velocity": 127,
                "duration": 0.0204545,
                "tempo": 120.0
            },
            {
                "start_time": 2.1363636,
                "end_time": 2.1568182,
                "pitch": 74,
                "velocity": 127,
                "duration": 0.0204545,
                "tempo": 120.0
            },
            {
                "start_time": 2.2363636,
                "end_time": 2.2568182,
                "pitch": 72,
                "velocity": 127,
                "duration": 0.0204545,
                "tempo": 120.0
            },
            {
                "start_time": 2.3363636,
                "end_time": 2.3568182,
                "pitch": 79,
                "velocity": 127,
                "duration": 0.0204545,
                "tempo": 120.0
            },
            {
                "start_time": 2.4363636,
                "end_time": 2.4568182,
                "pitch": 74,
                "velocity": 127,
                "duration": 0.0204545,
                "tempo": 120.0
            },
            {
                "start_time": 2.5386364,
                "end_time": 2.5590909,
                "pitch": 67,
                "velocity": 127,
                "duration": 0.0204545,
                "tempo": 120.0
            },
            {
                "start_time": 2.6409091,
                "end_time": 2.6613636,
                "pitch": 72,
                "velocity": 127,
                "duration": 0.0204545,
                "tempo": 120.0
            },
            {
                "start_time": 2.7454545,
                "end_time": 2.7659091,
                "pitch": 74,
                "velocity": 127,
                "duration": 0.0204545,
                "tempo": 120.0
            },
            {
                "start_time": 2.8477273,
                "end_time": 2.8681818,
                "pitch": 79,
                "velocity": 127,
                "duration": 0.0204545,
                "tempo": 120.0
            },
            {
                "start_time": 2.9477273,
                "end_time": 2.9681818,
                "pitch": 67,
                "velocity": 127,
                "duration": 0.0204545,
                "tempo": 120.0
            },
            {
                "start_time": 3.0477273,
                "end_time": 3.0681818,
                "pitch": 74,
                "velocity": 127,
                "duration": 0.0204545,
                "tempo": 120.0
            },
            {
                "start_time": 3.1477273,
                "end_time": 3.1681818,
                "pitch": 72,
                "velocity": 127,
                "duration": 0.0204545,
                "tempo": 120.0
            },
            {
                "start_time": 3.2477273,
                "end_time": 3.2681818,
                "pitch": 67,
                "velocity": 127,
                "duration": 0.0204545,
                "tempo": 120.0
            },
            {
                "start_time": 3.3454545,
                "end_time": 3.3659091,
                "pitch": 72,
                "velocity": 127,
                "duration": 0.0204545,
                "tempo": 120.0
            },
            {
                "start_time": 3.4431818,
                "end_time": 3.4636364,
                "pitch": 74,
                "velocity": 127,
                "duration": 0.0204545,
                "tempo": 120.0
            },
            {
                "start_time": 3.5431818,
                "end_time": 3.5613636,
                "pitch": 79,
                "velocity": 127,
                "duration": 0.0181818,
                "tempo": 120.0
            },
            {
                "start_time": 3.6409091,
                "end_time": 3.6590909,
                "pitch": 67,
                "velocity": 127,
                "duration": 0.0181818,
                "tempo": 120.0
            },
            {
                "start_time": 3.7409091,
                "end_time": 3.7590909,
                "pitch": 74,
                "velocity": 127,
                "duration": 0.0181818,
                "tempo": 120.0
            },
            {
                "start_time": 3.8409091,
                "end_time": 3.8590909,
                "pitch": 72,
                "velocity": 127,
                "duration": 0.0181818,
                "tempo": 120.0
            },
            {
                "start_time": 3.9409091,
                "end_time": 3.9590909,
                "pitch": 79,
                "velocity": 127,
                "duration": 0.0181818,
                "tempo": 120.0
            },
            {
                "start_time": 4.0409091,
                "end_time": 4.0590909,
                "pitch": 74,
                "velocity": 127,
                "duration": 0.0181818,
                "tempo": 120.0
            },
            {
                "start_time": 4.1409091,
                "end_time": 4.1613636,
                "pitch": 67,
                "velocity": 127,
                "duration": 0.0204545,
                "tempo": 120.0
            },
            {
                "start_time": 4.2409091,
                "end_time": 4.2613636,
                "pitch": 72,
                "velocity": 127,
                "duration": 0.0204545,
                "tempo": 120.0
            },
            {
                "start_time": 4.3409091,
                "end_time": 4.3613636,
                "pitch": 74,
                "velocity": 127,
                "duration": 0.0204545,
                "tempo": 120.0
            },
            {
                "start_time": 4.4431818,
                "end_time": 4.4613636,
                "pitch": 79,
                "velocity": 127,
                "duration": 0.0181818,
                "tempo": 120.0
            },
            {
                "start_time": 4.5409091,
                "end_time": 4.5590909,
                "pitch": 67,
                "velocity": 127,
                "duration": 0.0181818,
                "tempo": 120.0
            },
            {
                "start_time": 4.6386364,
                "end_time": 4.6590909,
                "pitch": 74,
                "velocity": 127,
                "duration": 0.0204545,
                "tempo": 120.0
            },
            {
                "start_time": 4.7363636,
                "end_time": 4.7568182,
                "pitch": 72,
                "velocity": 127,
                "duration": 0.0204545,
                "tempo": 120.0
            },
            {
                "start_time": 4.8340909,
                "end_time": 4.8545455,
                "pitch": 67,
                "velocity": 127,
                "duration": 0.0204545,
                "tempo": 120.0
            },
            {
                "start_time": 4.9363636,
                "end_time": 4.9568182,
                "pitch": 72,
                "velocity": 127,
                "duration": 0.0204545,
                "tempo": 120.0
            },
            {
                "start_time": 5.0386364,
                "end_time": 5.0613636,
                "pitch": 74,
                "velocity": 127,
                "duration": 0.0227273,
                "tempo": 120.0
            },
            {
                "start_time": 5.1431818,
                "end_time": 5.1636364,
                "pitch": 79,
                "velocity": 127,
                "duration": 0.0204545,
                "tempo": 120.0
            },
            {
                "start_time": 5.2454545,
                "end_time": 5.2659091,
                "pitch": 67,
                "velocity": 127,
                "duration": 0.0204545,
                "tempo": 120.0
            },
            {
                "start_time": 5.3454545,
                "end_time": 5.3659091,
                "pitch": 74,
                "velocity": 127,
                "duration": 0.0204545,
                "tempo": 120.0
            },
            {
                "start_time": 5.4477273,
                "end_time": 5.4659091,
                "pitch": 72,
                "velocity": 127,
                "duration": 0.0181818,
                "tempo": 120.0
            },
            {
                "start_time": 5.5477273,
                "end_time": 5.5681818,
                "pitch": 79,
                "velocity": 127,
                "duration": 0.0204545,
                "tempo": 120.0
            },
            {
                "start_time": 5.6477273,
                "end_time": 5.6681818,
                "pitch": 74,
                "velocity": 127,
                "duration": 0.0204545,
                "tempo": 120.0
            },
            {
                "start_time": 5.75,
                "end_time": 5.7704545,
                "pitch": 67,
                "velocity": 127,
                "duration": 0.0204545,
                "tempo": 120.0
            },
            {
                "start_time": 5.8522727,
                "end_time": 5.8727273,
                "pitch": 72,
                "velocity": 127,
                "duration": 0.0204545,
                "tempo": 120.0
            },
            {
                "start_time": 5.9568182,
                "end_time": 5.9772727,
                "pitch": 74,
                "velocity": 127,
                "duration": 0.0204545,
                "tempo": 120.0
            },
            {
                "start_time": 6.0590909,
                "end_time": 6.0795455,
                "pitch": 79,
                "velocity": 127,
                "duration": 0.0204545,
                "tempo": 120.0
            },
            {
                "start_time": 6.1590909,
                "end_time": 6.1795455,
                "pitch": 67,
                "velocity": 127,
                "duration": 0.0204545,
                "tempo": 120.0
            },
            {
                "start_time": 6.2613636,
                "end_time": 6.2795455,
                "pitch": 74,
                "velocity": 127,
                "duration": 0.0181818,
                "tempo": 120.0
            },
            {
                "start_time": 6.3613636,
                "end_time": 6.3818182,
                "pitch": 72,
                "velocity": 127,
                "duration": 0.0204545,
                "tempo": 120.0
            },
            {
                "start_time": 6.4613636,
                "end_time": 6.4818182,
                "pitch": 79,
                "velocity": 127,
                "duration": 0.0204545,
                "tempo": 120.0
            },
            {
                "start_time": 6.5590909,
                "end_time": 6.5795455,
                "pitch": 84,
                "velocity": 127,
                "duration": 0.0204545,
                "tempo": 120.0
            },
            {
                "start_time": 6.6590909,
                "end_time": 6.6772727,
                "pitch": 86,
                "velocity": 127,
                "duration": 0.0181818,
                "tempo": 120.0
            },
            {
                "start_time": 6.7568182,
                "end_time": 6.775,
                "pitch": 91,
                "velocity": 127,
                "duration": 0.0181818,
                "tempo": 120.0
            },
            {
                "start_time": 6.8545455,
                "end_time": 6.8727273,
                "pitch": 79,
                "velocity": 127,
                "duration": 0.0181818,
                "tempo": 120.0
            },
            {
                "start_time": 6.9568182,
                "end_time": 6.9772727,
                "pitch": 86,
                "velocity": 127,
                "duration": 0.0204545,
                "tempo": 120.0
            },
            {
                "start_time": 7.0590909,
                "end_time": 7.0795455,
                "pitch": 84,
                "velocity": 127,
                "duration": 0.0204545,
                "tempo": 120.0
            },
            {
                "start_time": 7.1613636,
                "end_time": 7.1818182,
                "pitch": 91,
                "velocity": 127,
                "duration": 0.0204545,
                "tempo": 120.0
            },
            {
                "start_time": 7.2636364,
                "end_time": 7.2840909,
                "pitch": 86,
                "velocity": 127,
                "duration": 0.0204545,
                "tempo": 120.0
            },
            {
                "start_time": 7.3636364,
                "end_time": 7.3818182,
                "pitch": 79,
                "velocity": 127,
                "duration": 0.0181818,
                "tempo": 120.0
            },
            {
                "start_time": 7.4613636,
                "end_time": 7.4795455,
                "pitch": 84,
                "velocity": 127,
                "duration": 0.0181818,
                "tempo": 120.0
            },
            {
                "start_time": 7.5590909,
                "end_time": 7.5772727,
                "pitch": 86,
                "velocity": 127,
                "duration": 0.0181818,
                "tempo": 120.0
            },
            {
                "start_time": 7.6568182,
                "end_time": 7.6772727,
                "pitch": 91,
                "velocity": 127,
                "duration": 0.0204545,
                "tempo": 120.0
            },
            {
                "start_time": 7.7545455,
                "end_time": 7.775,
                "pitch": 79,
                "velocity": 127,
                "duration": 0.0204545,
                "tempo": 120.0
            },
            {
                "start_time": 7.8522727,
                "end_time": 7.8727273,
                "pitch": 86,
                "velocity": 127,
                "duration": 0.0204545,
                "tempo": 120.0
            },
            {
                "start_time": 7.95,
                "end_time": 7.9704545,
                "pitch": 84,
                "velocity": 127,
                "duration": 0.0204545,
                "tempo": 120.0
            },
            {
                "start_time": 8.05,
                "end_time": 8.0681818,
                "pitch": 79,
                "velocity": 127,
                "duration": 0.0181818,
                "tempo": 120.0
            },
            {
                "start_time": 8.1522727,
                "end_time": 8.1727273,
                "pitch": 84,
                "velocity": 127,
                "duration": 0.0204545,
                "tempo": 120.0
            },
            {
                "start_time": 8.2545455,
                "end_time": 8.275,
                "pitch": 86,
                "velocity": 127,
                "duration": 0.0204545,
                "tempo": 120.0
            },
            {
                "start_time": 8.3568182,
                "end_time": 8.3772727,
                "pitch": 91,
                "velocity": 127,
                "duration": 0.0204545,
                "tempo": 120.0
            },
            {
                "start_time": 8.4590909,
                "end_time": 8.4795455,
                "pitch": 79,
                "velocity": 127,
                "duration": 0.0204545,
                "tempo": 120.0
            },
            {
                "start_time": 8.5613636,
                "end_time": 8.5795455,
                "pitch": 86,
                "velocity": 127,
                "duration": 0.0181818,
                "tempo": 120.0
            },
            {
                "start_time": 8.6613636,
                "end_time": 8.6818182,
                "pitch": 84,
                "velocity": 127,
                "duration": 0.0204545,
                "tempo": 120.0
            },
            {
                "start_time": 8.7613636,
                "end_time": 8.7818182,
                "pitch": 91,
                "velocity": 127,
                "duration": 0.0204545,
                "tempo": 120.0
            },
            {
                "start_time": 8.8613636,
                "end_time": 8.8818182,
                "pitch": 86,
                "velocity": 127,
                "duration": 0.0204545,
                "tempo": 120.0
            },
            {
                "start_time": 8.9636364,
                "end_time": 8.9840909,
                "pitch": 79,
                "velocity": 127,
                "duration": 0.0204545,
                "tempo": 120.0
            },
            {
                "start_time": 9.0636364,
                "end_time": 9.0840909,
                "pitch": 84,
                "velocity": 127,
                "duration": 0.0204545,
                "tempo": 120.0
            },
            {
                "start_time": 9.1636364,
                "end_time": 9.1840909,
                "pitch": 86,
                "velocity": 127,
                "duration": 0.0204545,
                "tempo": 120.0
            },
            {
                "start_time": 9.2659091,
                "end_time": 9.2840909,
                "pitch": 91,
                "velocity": 127,
                "duration": 0.0181818,
                "tempo": 120.0
            },
            {
                "start_time": 9.3659091,
                "end_time": 9.3863636,
                "pitch": 79,
                "velocity": 127,
                "duration": 0.0204545,
                "tempo": 120.0
            },
            {
                "start_time": 9.4659091,
                "end_time": 9.4863636,
                "pitch": 86,
                "velocity": 127,
                "duration": 0.0204545,
                "tempo": 120.0
            },
            {
                "start_time": 9.5659091,
                "end_time": 9.5863636,
                "pitch": 84,
                "velocity": 127,
                "duration": 0.0204545,
                "tempo": 120.0
            },
            {
                "start_time": 9.6681818,
                "end_time": 9.6863636,
                "pitch": 91,
                "velocity": 127,
                "duration": 0.0181818,
                "tempo": 120.0
            },
            {
                "start_time": 9.7659091,
                "end_time": 9.7863636,
                "pitch": 96,
                "velocity": 127,
                "duration": 0.0204545,
                "tempo": 120.0
            },
            {
                "start_time": 9.8636364,
                "end_time": 9.8840909,
                "pitch": 98,
                "velocity": 127,
                "duration": 0.0204545,
                "tempo": 120.0
            },
            {
                "start_time": 9.9613636,
                "end_time": 9.9818182,
                "pitch": 103,
                "velocity": 127,
                "duration": 0.0204545,
                "tempo": 120.0
            },
            {
                "start_time": 10.0590909,
                "end_time": 10.0795455,
                "pitch": 91,
                "velocity": 127,
                "duration": 0.0204545,
                "tempo": 120.0
            },
            {
                "start_time": 10.1613636,
                "end_time": 10.1818182,
                "pitch": 98,
                "velocity": 127,
                "duration": 0.0204545,
                "tempo": 120.0
            },
            {
                "start_time": 10.2659091,
                "end_time": 10.2863636,
                "pitch": 96,
                "velocity": 127,
                "duration": 0.0204545,
                "tempo": 120.0
            },
            {
                "start_time": 10.3681818,
                "end_time": 10.3886364,
                "pitch": 103,
                "velocity": 127,
                "duration": 0.0204545,
                "tempo": 120.0
            },
            {
                "start_time": 10.4704545,
                "end_time": 10.4909091,
                "pitch": 98,
                "velocity": 127,
                "duration": 0.0204545,
                "tempo": 120.0
            },
            {
                "start_time": 10.5704545,
                "end_time": 10.5909091,
                "pitch": 91,
                "velocity": 127,
                "duration": 0.0204545,
                "tempo": 120.0
            },
            {
                "start_time": 10.6727273,
                "end_time": 10.6909091,
                "pitch": 96,
                "velocity": 127,
                "duration": 0.0181818,
                "tempo": 120.0
            },
            {
                "start_time": 10.7727273,
                "end_time": 10.7931818,
                "pitch": 98,
                "velocity": 127,
                "duration": 0.0204545,
                "tempo": 120.0
            },
            {
                "start_time": 10.8727273,
                "end_time": 10.8931818,
                "pitch": 103,
                "velocity": 127,
                "duration": 0.0204545,
                "tempo": 120.0
            },
            {
                "start_time": 10.9704545,
                "end_time": 10.9909091,
                "pitch": 91,
                "velocity": 127,
                "duration": 0.0204545,
                "tempo": 120.0
            },
            {
                "start_time": 11.0704545,
                "end_time": 11.0886364,
                "pitch": 98,
                "velocity": 127,
                "duration": 0.0181818,
                "tempo": 120.0
            },
            {
                "start_time": 11.1681818,
                "end_time": 11.1863636,
                "pitch": 96,
                "velocity": 127,
                "duration": 0.0181818,
                "tempo": 120.0
            },
            {
                "start_time": 11.2659091,
                "end_time": 11.2863636,
                "pitch": 91,
                "velocity": 127,
                "duration": 0.0204545,
                "tempo": 120.0
            },
            {
                "start_time": 11.3659091,
                "end_time": 11.3863636,
                "pitch": 96,
                "velocity": 127,
                "duration": 0.0204545,
                "tempo": 120.0
            },
            {
                "start_time": 11.4659091,
                "end_time": 11.4863636,
                "pitch": 98,
                "velocity": 127,
                "duration": 0.0204545,
                "tempo": 120.0
            },
            {
                "start_time": 11.5681818,
                "end_time": 11.5886364,
                "pitch": 103,
                "velocity": 127,
                "duration": 0.0204545,
                "tempo": 120.0
            },
            {
                "start_time": 11.6681818,
                "end_time": 11.6886364,
                "pitch": 91,
                "velocity": 127,
                "duration": 0.0204545,
                "tempo": 120.0
            },
            {
                "start_time": 11.7681818,
                "end_time": 11.7886364,
                "pitch": 98,
                "velocity": 127,
                "duration": 0.0204545,
                "tempo": 120.0
            },
            {
                "start_time": 11.8681818,
                "end_time": 11.8886364,
                "pitch": 96,
                "velocity": 127,
                "duration": 0.0204545,
                "tempo": 120.0
            },
            {
                "start_time": 11.9681818,
                "end_time": 11.9886364,
                "pitch": 103,
                "velocity": 127,
                "duration": 0.0204545,
                "tempo": 120.0
            },
            {
                "start_time": 12.0681818,
                "end_time": 12.0886364,
                "pitch": 98,
                "velocity": 127,
                "duration": 0.0204545,
                "tempo": 120.0
            },
            {
                "start_time": 12.1704545,
                "end_time": 12.1909091,
                "pitch": 91,
                "velocity": 127,
                "duration": 0.0204545,
                "tempo": 120.0
            },
            {
                "start_time": 12.2727273,
                "end_time": 12.2931818,
                "pitch": 96,
                "velocity": 127,
                "duration": 0.0204545,
                "tempo": 120.0
            },
            {
                "start_time": 12.375,
                "end_time": 12.3954545,
                "pitch": 98,
                "velocity": 127,
                "duration": 0.0204545,
                "tempo": 120.0
            },
            {
                "start_time": 12.4795455,
                "end_time": 12.4977273,
                "pitch": 103,
                "velocity": 127,
                "duration": 0.0181818,
                "tempo": 120.0
            },
            {
                "start_time": 12.5772727,
                "end_time": 12.5954545,
                "pitch": 91,
                "velocity": 127,
                "duration": 0.0181818,
                "tempo": 120.0
            },
            {
                "start_time": 12.675,
                "end_time": 12.6954545,
                "pitch": 98,
                "velocity": 127,
                "duration": 0.0204545,
                "tempo": 120.0
            },
            {
                "start_time": 12.7727273,
                "end_time": 12.7931818,
                "pitch": 96,
                "velocity": 127,
                "duration": 0.0204545,
                "tempo": 120.0
            },
            {
                "start_time": 91.4840909,
                "end_time": 91.5045455,
                "pitch": 67,
                "velocity": 127,
                "duration": 0.0204545,
                "tempo": 120.0
            },
            {
                "start_time": 91.5863636,
                "end_time": 91.6045455,
                "pitch": 72,
                "velocity": 127,
                "duration": 0.0181818,
                "tempo": 120.0
            },
            {
                "start_time": 91.6863636,
                "end_time": 91.7068182,
                "pitch": 74,
                "velocity": 127,
                "duration": 0.0204545,
                "tempo": 120.0
            },
            {
                "start_time": 91.7863636,
                "end_time": 91.8068182,
                "pitch": 79,
                "velocity": 127,
                "duration": 0.0204545,
                "tempo": 120.0
            },
            {
                "start_time": 91.8863636,
                "end_time": 91.9068182,
                "pitch": 67,
                "velocity": 127,
                "duration": 0.0204545,
                "tempo": 120.0
            },
            {
                "start_time": 91.9909091,
                "end_time": 92.0113636,
                "pitch": 74,
                "velocity": 127,
                "duration": 0.0204545,
                "tempo": 120.0
            },
            {
                "start_time": 92.0931818,
                "end_time": 92.1136364,
                "pitch": 72,
                "velocity": 127,
                "duration": 0.0204545,
                "tempo": 120.0
            },
            {
                "start_time": 92.1954545,
                "end_time": 92.2159091,
                "pitch": 79,
                "velocity": 127,
                "duration": 0.0204545,
                "tempo": 120.0
            },
            {
                "start_time": 92.2977273,
                "end_time": 92.3181818,
                "pitch": 74,
                "velocity": 127,
                "duration": 0.0204545,
                "tempo": 120.0
            },
            {
                "start_time": 92.3954545,
                "end_time": 92.4159091,
                "pitch": 67,
                "velocity": 127,
                "duration": 0.0204545,
                "tempo": 120.0
            },
            {
                "start_time": 92.4931818,
                "end_time": 92.5136364,
                "pitch": 72,
                "velocity": 127,
                "duration": 0.0204545,
                "tempo": 120.0
            },
            {
                "start_time": 92.5931818,
                "end_time": 92.6113636,
                "pitch": 74,
                "velocity": 127,
                "duration": 0.0181818,
                "tempo": 120.0
            },
            {
                "start_time": 92.6909091,
                "end_time": 92.7113636,
                "pitch": 79,
                "velocity": 127,
                "duration": 0.0204545,
                "tempo": 120.0
            },
            {
                "start_time": 92.7931818,
                "end_time": 92.8136364,
                "pitch": 67,
                "velocity": 127,
                "duration": 0.0204545,
                "tempo": 120.0
            },
            {
                "start_time": 92.8954545,
                "end_time": 92.9159091,
                "pitch": 74,
                "velocity": 127,
                "duration": 0.0204545,
                "tempo": 120.0
            },
            {
                "start_time": 92.9977273,
                "end_time": 93.0181818,
                "pitch": 72,
                "velocity": 127,
                "duration": 0.0204545,
                "tempo": 120.0
            },
            {
                "start_time": 93.1,
                "end_time": 93.1204545,
                "pitch": 67,
                "velocity": 127,
                "duration": 0.0204545,
                "tempo": 120.0
            },
            {
                "start_time": 93.2,
                "end_time": 93.2204545,
                "pitch": 72,
                "velocity": 127,
                "duration": 0.0204545,
                "tempo": 120.0
            },
            {
                "start_time": 93.3,
                "end_time": 93.3204545,
                "pitch": 74,
                "velocity": 127,
                "duration": 0.0204545,
                "tempo": 120.0
            },
            {
                "start_time": 93.4,
                "end_time": 93.4204545,
                "pitch": 79,
                "velocity": 127,
                "duration": 0.0204545,
                "tempo": 120.0
            },
            {
                "start_time": 93.5,
                "end_time": 93.5204545,
                "pitch": 67,
                "velocity": 127,
                "duration": 0.0204545,
                "tempo": 120.0
            },
            {
                "start_time": 93.6022727,
                "end_time": 93.6227273,
                "pitch": 74,
                "velocity": 127,
                "duration": 0.0204545,
                "tempo": 120.0
            },
            {
                "start_time": 93.7022727,
                "end_time": 93.7227273,
                "pitch": 72,
                "velocity": 127,
                "duration": 0.0204545,
                "tempo": 120.0
            },
            {
                "start_time": 93.8022727,
                "end_time": 93.8227273,
                "pitch": 79,
                "velocity": 127,
                "duration": 0.0204545,
                "tempo": 120.0
            },
            {
                "start_time": 93.9045455,
                "end_time": 93.9227273,
                "pitch": 74,
                "velocity": 127,
                "duration": 0.0181818,
                "tempo": 120.0
            },
            {
                "start_time": 94.0045455,
                "end_time": 94.0227273,
                "pitch": 67,
                "velocity": 127,
                "duration": 0.0181818,
                "tempo": 120.0
            },
            {
                "start_time": 94.1045455,
                "end_time": 94.1227273,
                "pitch": 72,
                "velocity": 127,
                "duration": 0.0181818,
                "tempo": 120.0
            },
            {
                "start_time": 94.2045455,
                "end_time": 94.2227273,
                "pitch": 74,
                "velocity": 127,
                "duration": 0.0181818,
                "tempo": 120.0
            },
            {
                "start_time": 94.3045455,
                "end_time": 94.3227273,
                "pitch": 79,
                "velocity": 127,
                "duration": 0.0181818,
                "tempo": 120.0
            },
            {
                "start_time": 94.4022727,
                "end_time": 94.4204545,
                "pitch": 67,
                "velocity": 127,
                "duration": 0.0181818,
                "tempo": 120.0
            },
            {
                "start_time": 94.5,
                "end_time": 94.5181818,
                "pitch": 74,
                "velocity": 127,
                "duration": 0.0181818,
                "tempo": 120.0
            },
            {
                "start_time": 94.5977273,
                "end_time": 94.6181818,
                "pitch": 72,
                "velocity": 127,
                "duration": 0.0204545,
                "tempo": 120.0
            },
            {
                "start_time": 94.6954545,
                "end_time": 94.7159091,
                "pitch": 67,
                "velocity": 127,
                "duration": 0.0204545,
                "tempo": 120.0
            },
            {
                "start_time": 94.7954545,
                "end_time": 94.8159091,
                "pitch": 72,
                "velocity": 127,
                "duration": 0.0204545,
                "tempo": 120.0
            },
            {
                "start_time": 94.8977273,
                "end_time": 94.9181818,
                "pitch": 74,
                "velocity": 127,
                "duration": 0.0204545,
                "tempo": 120.0
            },
            {
                "start_time": 94.9977273,
                "end_time": 95.0181818,
                "pitch": 79,
                "velocity": 127,
                "duration": 0.0204545,
                "tempo": 120.0
            },
            {
                "start_time": 95.0977273,
                "end_time": 95.1181818,
                "pitch": 67,
                "velocity": 127,
                "duration": 0.0204545,
                "tempo": 120.0
            },
            {
                "start_time": 95.1977273,
                "end_time": 95.2181818,
                "pitch": 74,
                "velocity": 127,
                "duration": 0.0204545,
                "tempo": 120.0
            },
            {
                "start_time": 95.2977273,
                "end_time": 95.3181818,
                "pitch": 72,
                "velocity": 127,
                "duration": 0.0204545,
                "tempo": 120.0
            },
            {
                "start_time": 95.3977273,
                "end_time": 95.4181818,
                "pitch": 79,
                "velocity": 127,
                "duration": 0.0204545,
                "tempo": 120.0
            },
            {
                "start_time": 95.4977273,
                "end_time": 95.5181818,
                "pitch": 74,
                "velocity": 127,
                "duration": 0.0204545,
                "tempo": 120.0
            },
            {
                "start_time": 95.6,
                "end_time": 95.6204545,
                "pitch": 67,
                "velocity": 127,
                "duration": 0.0204545,
                "tempo": 120.0
            },
            {
                "start_time": 95.7045455,
                "end_time": 95.725,
                "pitch": 72,
                "velocity": 127,
                "duration": 0.0204545,
                "tempo": 120.0
            },
            {
                "start_time": 95.8068182,
                "end_time": 95.8272727,
                "pitch": 74,
                "velocity": 127,
                "duration": 0.0204545,
                "tempo": 120.0
            },
            {
                "start_time": 95.9090909,
                "end_time": 95.9295455,
                "pitch": 79,
                "velocity": 127,
                "duration": 0.0204545,
                "tempo": 120.0
            },
            {
                "start_time": 96.0068182,
                "end_time": 96.0272727,
                "pitch": 67,
                "velocity": 127,
                "duration": 0.0204545,
                "tempo": 120.0
            },
            {
                "start_time": 96.1045455,
                "end_time": 96.125,
                "pitch": 74,
                "velocity": 127,
                "duration": 0.0204545,
                "tempo": 120.0
            },
            {
                "start_time": 96.2022727,
                "end_time": 96.2227273,
                "pitch": 72,
                "velocity": 127,
                "duration": 0.0204545,
                "tempo": 120.0
            },
            {
                "start_time": 96.3022727,
                "end_time": 96.3204545,
                "pitch": 67,
                "velocity": 127,
                "duration": 0.0181818,
                "tempo": 120.0
            },
            {
                "start_time": 96.4045455,
                "end_time": 96.425,
                "pitch": 72,
                "velocity": 127,
                "duration": 0.0204545,
                "tempo": 120.0
            },
            {
                "start_time": 96.5068182,
                "end_time": 96.5272727,
                "pitch": 74,
                "velocity": 127,
                "duration": 0.0204545,
                "tempo": 120.0
            },
            {
                "start_time": 96.6090909,
                "end_time": 96.6295455,
                "pitch": 79,
                "velocity": 127,
                "duration": 0.0204545,
                "tempo": 120.0
            },
            {
                "start_time": 96.7113636,
                "end_time": 96.7318182,
                "pitch": 67,
                "velocity": 127,
                "duration": 0.0204545,
                "tempo": 120.0
            },
            {
                "start_time": 96.8136364,
                "end_time": 96.8318182,
                "pitch": 74,
                "velocity": 127,
                "duration": 0.0181818,
                "tempo": 120.0
            },
            {
                "start_time": 96.9136364,
                "end_time": 96.9340909,
                "pitch": 72,
                "velocity": 127,
                "duration": 0.0204545,
                "tempo": 120.0
            },
            {
                "start_time": 97.0136364,
                "end_time": 97.0340909,
                "pitch": 79,
                "velocity": 127,
                "duration": 0.0204545,
                "tempo": 120.0
            },
            {
                "start_time": 97.1136364,
                "end_time": 97.1340909,
                "pitch": 74,
                "velocity": 127,
                "duration": 0.0204545,
                "tempo": 120.0
            },
            {
                "start_time": 97.2136364,
                "end_time": 97.2340909,
                "pitch": 67,
                "velocity": 127,
                "duration": 0.0204545,
                "tempo": 120.0
            },
            {
                "start_time": 97.3136364,
                "end_time": 97.3340909,
                "pitch": 72,
                "velocity": 127,
                "duration": 0.0204545,
                "tempo": 120.0
            },
            {
                "start_time": 97.4136364,
                "end_time": 97.4340909,
                "pitch": 74,
                "velocity": 127,
                "duration": 0.0204545,
                "tempo": 120.0
            },
            {
                "start_time": 97.5136364,
                "end_time": 97.5340909,
                "pitch": 79,
                "velocity": 127,
                "duration": 0.0204545,
                "tempo": 120.0
            },
            {
                "start_time": 97.6136364,
                "end_time": 97.6318182,
                "pitch": 67,
                "velocity": 127,
                "duration": 0.0181818,
                "tempo": 120.0
            },
            {
                "start_time": 97.7113636,
                "end_time": 97.7295455,
                "pitch": 74,
                "velocity": 127,
                "duration": 0.0181818,
                "tempo": 120.0
            },
            {
                "start_time": 97.8090909,
                "end_time": 97.8295455,
                "pitch": 72,
                "velocity": 127,
                "duration": 0.0204545,
                "tempo": 120.0
            },
            {
                "start_time": 97.9068182,
                "end_time": 97.9272727,
                "pitch": 67,
                "velocity": 127,
                "duration": 0.0204545,
                "tempo": 120.0
            },
            {
                "start_time": 98.0090909,
                "end_time": 98.0295455,
                "pitch": 72,
                "velocity": 127,
                "duration": 0.0204545,
                "tempo": 120.0
            },
            {
                "start_time": 98.1113636,
                "end_time": 98.1318182,
                "pitch": 74,
                "velocity": 127,
                "duration": 0.0204545,
                "tempo": 120.0
            },
            {
                "start_time": 98.2136364,
                "end_time": 98.2340909,
                "pitch": 79,
                "velocity": 127,
                "duration": 0.0204545,
                "tempo": 120.0
            },
            {
                "start_time": 98.3181818,
                "end_time": 98.3386364,
                "pitch": 67,
                "velocity": 127,
                "duration": 0.0204545,
                "tempo": 120.0
            },
            {
                "start_time": 98.4181818,
                "end_time": 98.4386364,
                "pitch": 74,
                "velocity": 127,
                "duration": 0.0204545,
                "tempo": 120.0
            },
            {
                "start_time": 98.5181818,
                "end_time": 98.5386364,
                "pitch": 72,
                "velocity": 127,
                "duration": 0.0204545,
                "tempo": 120.0
            },
            {
                "start_time": 98.6204545,
                "end_time": 98.6386364,
                "pitch": 79,
                "velocity": 127,
                "duration": 0.0181818,
                "tempo": 120.0
            },
            {
                "start_time": 98.7204545,
                "end_time": 98.7409091,
                "pitch": 74,
                "velocity": 127,
                "duration": 0.0204545,
                "tempo": 120.0
            },
            {
                "start_time": 98.8204545,
                "end_time": 98.8409091,
                "pitch": 67,
                "velocity": 127,
                "duration": 0.0204545,
                "tempo": 120.0
            },
            {
                "start_time": 98.9227273,
                "end_time": 98.9409091,
                "pitch": 72,
                "velocity": 127,
                "duration": 0.0181818,
                "tempo": 120.0
            },
            {
                "start_time": 99.0227273,
                "end_time": 99.0431818,
                "pitch": 74,
                "velocity": 127,
                "duration": 0.0204545,
                "tempo": 120.0
            },
            {
                "start_time": 99.1227273,
                "end_time": 99.1431818,
                "pitch": 79,
                "velocity": 127,
                "duration": 0.0204545,
                "tempo": 120.0
            },
            {
                "start_time": 99.2204545,
                "end_time": 99.2409091,
                "pitch": 67,
                "velocity": 127,
                "duration": 0.0204545,
                "tempo": 120.0
            },
            {
                "start_time": 99.3181818,
                "end_time": 99.3386364,
                "pitch": 74,
                "velocity": 127,
                "duration": 0.0204545,
                "tempo": 120.0
            },
            {
                "start_time": 99.4181818,
                "end_time": 99.4363636,
                "pitch": 72,
                "velocity": 127,
                "duration": 0.0181818,
                "tempo": 120.0
            },
            {
                "start_time": 99.5159091,
                "end_time": 99.5340909,
                "pitch": 67,
                "velocity": 127,
                "duration": 0.0181818,
                "tempo": 120.0
            },
            {
                "start_time": 99.6181818,
                "end_time": 99.6386364,
                "pitch": 72,
                "velocity": 127,
                "duration": 0.0204545,
                "tempo": 120.0
            },
            {
                "start_time": 99.7204545,
                "end_time": 99.7409091,
                "pitch": 74,
                "velocity": 127,
                "duration": 0.0204545,
                "tempo": 120.0
            },
            {
                "start_time": 99.8227273,
                "end_time": 99.8431818,
                "pitch": 79,
                "velocity": 127,
                "duration": 0.0204545,
                "tempo": 120.0
            },
            {
                "start_time": 99.925,
                "end_time": 99.9454545,
                "pitch": 67,
                "velocity": 127,
                "duration": 0.0204545,
                "tempo": 120.0
            },
            {
                "start_time": 100.025,
                "end_time": 100.0454545,
                "pitch": 74,
                "velocity": 127,
                "duration": 0.0204545,
                "tempo": 120.0
            },
            {
                "start_time": 100.125,
                "end_time": 100.1454545,
                "pitch": 72,
                "velocity": 127,
                "duration": 0.0204545,
                "tempo": 120.0
            },
            {
                "start_time": 100.225,
                "end_time": 100.2454545,
                "pitch": 79,
                "velocity": 127,
                "duration": 0.0204545,
                "tempo": 120.0
            },
            {
                "start_time": 100.325,
                "end_time": 100.3454545,
                "pitch": 74,
                "velocity": 127,
                "duration": 0.0204545,
                "tempo": 120.0
            },
            {
                "start_time": 100.4272727,
                "end_time": 100.4477273,
                "pitch": 67,
                "velocity": 127,
                "duration": 0.0204545,
                "tempo": 120.0
            },
            {
                "start_time": 100.5272727,
                "end_time": 100.5477273,
                "pitch": 72,
                "velocity": 127,
                "duration": 0.0204545,
                "tempo": 120.0
            },
            {
                "start_time": 100.6272727,
                "end_time": 100.6477273,
                "pitch": 74,
                "velocity": 127,
                "duration": 0.0204545,
                "tempo": 120.0
            },
            {
                "start_time": 100.7295455,
                "end_time": 100.7477273,
                "pitch": 79,
                "velocity": 127,
                "duration": 0.0181818,
                "tempo": 120.0
            },
            {
                "start_time": 100.8295455,
                "end_time": 100.85,
                "pitch": 67,
                "velocity": 127,
                "duration": 0.0204545,
                "tempo": 120.0
            },
            {
                "start_time": 100.9295455,
                "end_time": 100.95,
                "pitch": 74,
                "velocity": 127,
                "duration": 0.0204545,
                "tempo": 120.0
            },
            {
                "start_time": 101.0295455,
                "end_time": 101.05,
                "pitch": 72,
                "velocity": 127,
                "duration": 0.0204545,
                "tempo": 120.0
            }
        ]
    }
}