{
    "mood": "happy",
    "instruments": {
        "French Horn": [
            {
                "start_time": 0.5954545,
                "end_time": 0.6909091,
                "pitch": 60,
                "velocity": 64,
                "duration": 0.0954545,
                "tempo": 120.0
            },
            {
                "start_time": 0.6909091,
                "end_time": 0.7886364,
                "pitch": 62,
                "velocity": 64,
                "duration": 0.0977273,
                "tempo": 120.0
            },
            {
                "start_time": 0.7886364,
                "end_time": 1.5931818,
                "pitch": 64,
                "velocity": 64,
                "duration": 0.8045455,
                "tempo": 120.0
            },
            {
                "start_time": 0.7886364,
                "end_time": 2.0136364,
                "pitch": 62,
                "velocity": 64,
                "duration": 1.225,
                "tempo": 120.0
            },
            {
                "start_time": 1.5931818,
                "end_time": 2.0136364,
                "pitch": 62,
                "velocity": 64,
                "duration": 0.4204545,
                "tempo": 120.0
            },
            {
                "start_time": 2.0136364,
                "end_time": 2.3954545,
                "pitch": 65,
                "velocity": 64,
                "duration": 0.3818182,
                "tempo": 120.0
            },
            {
                "start_time": 2.3954545,
                "end_time": 2.8181818,
                "pitch": 70,
                "velocity": 64,
                "duration": 0.4227273,
                "tempo": 120.0
            },
            {
                "start_time": 2.8181818,
                "end_time": 3.2113636,
                "pitch": 74,
                "velocity": 64,
                "duration": 0.3931818,
                "tempo": 120.0
            },
            {
                "start_time": 3.2113636,
                "end_time": 3.3113636,
                "pitch": 70,
                "velocity": 64,
                "duration": 0.1,
                "tempo": 120.0
            },
            {
                "start_time": 3.3113636,
                "end_time": 3.4136364,
                "pitch": 70,
                "velocity": 64,
                "duration": 0.1022727,
                "tempo": 120.0
            },
            {
                "start_time": 3.4159091,
                "end_time": 3.8113636,
                "pitch": 69,
                "velocity": 64,
                "duration": 0.3954545,
                "tempo": 120.0
            },
            {
                "start_time": 2.0136364,
                "end_time": 3.9090909,
                "pitch": 62,
                "velocity": 64,
                "duration": 1.8954545,
                "tempo": 120.0
            },
            {
                "start_time": 3.8136364,
                "end_time": 3.9090909,
                "pitch": 62,
                "velocity": 64,
                "duration": 0.0954545,
                "tempo": 120.0
            },
            {
                "start_time": 0.6909091,
                "end_time": 4.0045455,
                "pitch": 60,
                "velocity": 64,
                "duration": 3.3136364,
                "tempo": 120.0
            },
            {
                "start_time": 3.9090909,
                "end_time": 4.0045455,
                "pitch": 60,
                "velocity": 64,
                "duration": 0.0954545,
                "tempo": 120.0
            },
            {
                "start_time": 3.9090909,
                "end_time": 4.4136364,
                "pitch": 62,
                "velocity": 64,
                "duration": 0.5045455,
                "tempo": 120.0
            },
            {
                "start_time": 4.0045455,
                "end_time": 4.4136364,
                "pitch": 62,
                "velocity": 64,
                "duration": 0.4090909,
                "tempo": 120.0
            },
            {
                "start_time": 4.4136364,
                "end_time": 4.8181818,
                "pitch": 65,
                "velocity": 64,
                "duration": 0.4045455,
                "tempo": 120.0
            },
            {
                "start_time": 4.0045455,
                "end_time": 5.4204545,
                "pitch": 60,
                "velocity": 64,
                "duration": 1.4159091,
                "tempo": 120.0
            },
            {
                "start_time": 4.8204545,
                "end_time": 5.4204545,
                "pitch": 60,
                "velocity": 64,
                "duration": 0.6,
                "tempo": 120.0
            },
            {
                "start_time": 5.4204545,
                "end_time": 5.5159091,
                "pitch": 60,
                "velocity": 64,
                "duration": 0.0954545,
                "tempo": 120.0
            },
            {
                "start_time": 4.4136364,
                "end_time": 5.6113636,
                "pitch": 62,
                "velocity": 64,
                "duration": 1.1977273,
                "tempo": 120.0
            },
            {
                "start_time": 5.5159091,
                "end_time": 5.6113636,
                "pitch": 62,
                "velocity": 64,
                "duration": 0.0954545,
                "tempo": 120.0
            },
            {
                "start_time": 1.5931818,
                "end_time": 5.8159091,
                "pitch": 64,
                "velocity": 64,
                "duration": 4.2227273,
                "tempo": 120.0
            },
            {
                "start_time": 5.6113636,
                "end_time": 5.8159091,
                "pitch": 64,
                "velocity": 64,
                "duration": 0.2045455,
                "tempo": 120.0
            },
            {
                "start_time": 5.8159091,
                "end_time": 5.9204545,
                "pitch": 64,
                "velocity": 64,
                "duration": 0.1045455,
                "tempo": 120.0
            },
            {
                "start_time": 5.9204545,
                "end_time": 6.0227273,
                "pitch": 64,
                "velocity": 64,
                "duration": 0.1022727,
                "tempo": 120.0
            },
            {
                "start_time": 2.3954545,
                "end_time": 6.0227273,
                "pitch": 78,
                "velocity": 64,
                "duration": 3.6272727,
                "tempo": 120.0
            },
            {
                "start_time": 6.0227273,
                "end_time": 6.4363636,
                "pitch": 67,
                "velocity": 64,
                "duration": 0.4136364,
                "tempo": 120.0
            },
            {
                "start_time": 5.5159091,
                "end_time": 7.1295455,
                "pitch": 60,
                "velocity": 64,
                "duration": 1.6136364,
                "tempo": 120.0
            },
            {
                "start_time": 5.6113636,
                "end_time": 7.2272727,
                "pitch": 62,
                "velocity": 64,
                "duration": 1.6159091,
                "tempo": 120.0
            },
            {
                "start_time": 7.1295455,
                "end_time": 7.2272727,
                "pitch": 62,
                "velocity": 64,
                "duration": 0.0977273,
                "tempo": 120.0
            },
            {
                "start_time": 7.2272727,
                "end_time": 8.0340909,
                "pitch": 64,
                "velocity": 64,
                "duration": 0.8068182,
                "tempo": 120.0
            },
            {
                "start_time": 7.2272727,
                "end_time": 8.4454545,
                "pitch": 62,
                "velocity": 64,
                "duration": 1.2181818,
                "tempo": 120.0
            },
            {
                "start_time": 8.0340909,
                "end_time": 8.4454545,
                "pitch": 62,
                "velocity": 64,
                "duration": 0.4113636,
                "tempo": 120.0
            },
            {
                "start_time": 4.8204545,
                "end_time": 8.8363636,
                "pitch": 65,
                "velocity": 64,
                "duration": 4.0159091,
                "tempo": 120.0
            },
            {
                "start_time": 8.4454545,
                "end_time": 8.8363636,
                "pitch": 65,
                "velocity": 64,
                "duration": 0.3909091,
                "tempo": 120.0
            },
            {
                "start_time": 6.0227273,
                "end_time": 8.8363636,
                "pitch": 78,
                "velocity": 64,
                "duration": 2.8136364,
                "tempo": 120.0
            },
            {
                "start_time": 2.8181818,
                "end_time": 9.2590909,
                "pitch": 50,
                "velocity": 64,
                "duration": 6.4409091,
                "tempo": 120.0
            },
            {
                "start_time": 8.8363636,
                "end_time": 9.2590909,
                "pitch": 70,
                "velocity": 64,
                "duration": 0.4227273,
                "tempo": 120.0
            },
            {
                "start_time": 9.2590909,
                "end_time": 9.6431818,
                "pitch": 72,
                "velocity": 64,
                "duration": 0.3840909,
                "tempo": 120.0
            },
            {
                "start_time": 9.6431818,
                "end_time": 9.7409091,
                "pitch": 70,
                "velocity": 64,
                "duration": 0.0977273,
                "tempo": 120.0
            },
            {
                "start_time": 9.7431818,
                "end_time": 9.8454545,
                "pitch": 70,
                "velocity": 64,
                "duration": 0.1022727,
                "tempo": 120.0
            },
            {
                "start_time": 3.8136364,
                "end_time": 10.2477273,
                "pitch": 38,
                "velocity": 64,
                "duration": 6.4340909,
                "tempo": 120.0
            },
            {
                "start_time": 9.8454545,
                "end_time": 10.2477273,
                "pitch": 69,
                "velocity": 64,
                "duration": 0.4022727,
                "tempo": 120.0
            },
            {
                "start_time": 8.4454545,
                "end_time": 10.3454545,
                "pitch": 62,
                "velocity": 64,
                "duration": 1.9,
                "tempo": 120.0
            },
            {
                "start_time": 10.2477273,
                "end_time": 10.3454545,
                "pitch": 62,
                "velocity": 64,
                "duration": 0.0977273,
                "tempo": 120.0
            },
            {
                "start_time": 7.1295455,
                "end_time": 10.4454545,
                "pitch": 60,
                "velocity": 64,
                "duration": 3.3159091,
                "tempo": 120.0
            },
            {
                "start_time": 10.3454545,
                "end_time": 10.4454545,
                "pitch": 60,
                "velocity": 64,
                "duration": 0.1,
                "tempo": 120.0
            },
            {
                "start_time": 10.3454545,
                "end_time": 10.8545455,
                "pitch": 62,
                "velocity": 64,
                "duration": 0.5090909,
                "tempo": 120.0
            },
            {
                "start_time": 10.4454545,
                "end_time": 10.8545455,
                "pitch": 62,
                "velocity": 64,
                "duration": 0.4090909,
                "tempo": 120.0
            },
            {
                "start_time": 10.8545455,
                "end_time": 11.2613636,
                "pitch": 65,
                "velocity": 64,
                "duration": 0.4068182,
                "tempo": 120.0
            },
            {
                "start_time": 10.4454545,
                "end_time": 11.8613636,
                "pitch": 60,
                "velocity": 64,
                "duration": 1.4159091,
                "tempo": 120.0
            },
            {
                "start_time": 11.2613636,
                "end_time": 11.8613636,
                "pitch": 60,
                "velocity": 64,
                "duration": 0.6,
                "tempo": 120.0
            },
            {
                "start_time": 11.8613636,
                "end_time": 11.9568182,
                "pitch": 60,
                "velocity": 64,
                "duration": 0.0954545,
                "tempo": 120.0
            },
            {
                "start_time": 10.8545455,
                "end_time": 12.0522727,
                "pitch": 62,
                "velocity": 64,
                "duration": 1.1977273,
                "tempo": 120.0
            },
            {
                "start_time": 11.9568182,
                "end_time": 12.0522727,
                "pitch": 62,
                "velocity": 64,
                "duration": 0.0954545,
                "tempo": 120.0
            },
            {
                "start_time": 8.0340909,
                "end_time": 12.2568182,
                "pitch": 64,
                "velocity": 64,
                "duration": 4.2227273,
                "tempo": 120.0
            },
            {
                "start_time": 12.0522727,
                "end_time": 12.2568182,
                "pitch": 64,
                "velocity": 64,
                "duration": 0.2045455,
                "tempo": 120.0
            },
            {
                "start_time": 8.8363636,
                "end_time": 12.2568182,
                "pitch": 78,
                "velocity": 64,
                "duration": 3.4204545,
                "tempo": 120.0
            },
            {
                "start_time": 12.2568182,
                "end_time": 12.3590909,
                "pitch": 67,
                "velocity": 64,
                "duration": 0.1022727,
                "tempo": 120.0
            },
            {
                "start_time": 12.3613636,
                "end_time": 12.4636364,
                "pitch": 67,
                "velocity": 64,
                "duration": 0.1022727,
                "tempo": 120.0
            },
            {
                "start_time": 12.4636364,
                "end_time": 12.8772727,
                "pitch": 69,
                "velocity": 64,
                "duration": 0.4136364,
                "tempo": 120.0
            },
            {
                "start_time": 12.0522727,
                "end_time": 71.5477273,
                "pitch": 62,
                "velocity": 64,
                "duration": 59.4954545,
                "tempo": 120.0
            },
            {
                "start_time": 71.3477273,
                "end_time": 71.5477273,
                "pitch": 62,
                "velocity": 40,
                "duration": 0.2,
                "tempo": 120.0
            },
            {
                "start_time": 72.1545455,
                "end_time": 72.3613636,
                "pitch": 64,
                "velocity": 40,
                "duration": 0.2068182,
                "tempo": 120.0
            },
            {
                "start_time": 72.5636364,
                "end_time": 72.7636364,
                "pitch": 64,
                "velocity": 40,
                "duration": 0.2,
                "tempo": 120.0
            },
            {
                "start_time": 11.2613636,
                "end_time": 72.9704545,
                "pitch": 65,
                "velocity": 64,
                "duration": 61.7090909,
                "tempo": 120.0
            },
            {
                "start_time": 72.7659091,
                "end_time": 72.9704545,
                "pitch": 65,
                "velocity": 40,
                "duration": 0.2045455,
                "tempo": 120.0
            },
            {
                "start_time": 72.9704545,
                "end_time": 73.175,
                "pitch": 64,
                "velocity": 40,
                "duration": 0.2045455,
                "tempo": 120.0
            },
            {
                "start_time": 12.2568182,
                "end_time": 73.175,
                "pitch": 78,
                "velocity": 64,
                "duration": 60.9181818,
                "tempo": 120.0
            },
            {
                "start_time": 73.175,
                "end_time": 73.3659091,
                "pitch": 67,
                "velocity": 40,
                "duration": 0.1909091,
                "tempo": 120.0
            },
            {
                "start_time": 73.7568182,
                "end_time": 73.9590909,
                "pitch": 55,
                "velocity": 40,
                "duration": 0.2022727,
                "tempo": 120.0
            },
            {
                "start_time": 72.1545455,
                "end_time": 75.3772727,
                "pitch": 62,
                "velocity": 40,
                "duration": 3.2227273,
                "tempo": 120.0
            },
            {
                "start_time": 75.3772727,
                "end_time": 75.5772727,
                "pitch": 64,
                "velocity": 40,
                "duration": 0.2,
                "tempo": 120.0
            },
            {
                "start_time": 75.7840909,
                "end_time": 75.9886364,
                "pitch": 64,
                "velocity": 40,
                "duration": 0.2045455,
                "tempo": 120.0
            },
            {
                "start_time": 75.9886364,
                "end_time": 76.1840909,
                "pitch": 65,
                "velocity": 40,
                "duration": 0.1954545,
                "tempo": 120.0
            },
            {
                "start_time": 76.1863636,
                "end_time": 76.3795455,
                "pitch": 64,
                "velocity": 40,
                "duration": 0.1931818,
                "tempo": 120.0
            },
            {
                "start_time": 73.175,
                "end_time": 76.3818182,
                "pitch": 78,
                "velocity": 40,
                "duration": 3.2068182,
                "tempo": 120.0
            },
            {
                "start_time": 76.3818182,
                "end_time": 76.5818182,
                "pitch": 67,
                "velocity": 40,
                "duration": 0.2,
                "tempo": 120.0
            },
            {
                "start_time": 75.3772727,
                "end_time": 78.5931818,
                "pitch": 62,
                "velocity": 40,
                "duration": 3.2159091,
                "tempo": 120.0
            },
            {
                "start_time": 78.5931818,
                "end_time": 78.7954545,
                "pitch": 64,
                "velocity": 40,
                "duration": 0.2022727,
                "tempo": 120.0
            },
            {
                "start_time": 79.0022727,
                "end_time": 79.2068182,
                "pitch": 64,
                "velocity": 40,
                "duration": 0.2045455,
                "tempo": 120.0
            },
            {
                "start_time": 79.2068182,
                "end_time": 79.4090909,
                "pitch": 65,
                "velocity": 40,
                "duration": 0.2022727,
                "tempo": 120.0
            },
            {
                "start_time": 79.4090909,
                "end_time": 79.6090909,
                "pitch": 64,
                "velocity": 40,
                "duration": 0.2,
                "tempo": 120.0
            },
            {
                "start_time": 76.3818182,
                "end_time": 79.6090909,
                "pitch": 78,
                "velocity": 40,
                "duration": 3.2272727,
                "tempo": 120.0
            },
            {
                "start_time": 79.6090909,
                "end_time": 79.8090909,
                "pitch": 67,
                "velocity": 40,
                "duration": 0.2,
                "tempo": 120.0
            },
            {
                "start_time": 78.5931818,
                "end_time": 81.8181818,
                "pitch": 62,
                "velocity": 40,
                "duration": 3.225,
                "tempo": 120.0
            },
            {
                "start_time": 81.8181818,
                "end_time": 82.0181818,
                "pitch": 64,
                "velocity": 40,
                "duration": 0.2,
                "tempo": 120.0
            },
            {
                "start_time": 82.225,
                "end_time": 82.4295455,
                "pitch": 64,
                "velocity": 40,
                "duration": 0.2045455,
                "tempo": 120.0
            },
            {
                "start_time": 82.4318182,
                "end_time": 82.6318182,
                "pitch": 65,
                "velocity": 40,
                "duration": 0.2,
                "tempo": 120.0
            },
            {
                "start_time": 82.6318182,
                "end_time": 82.8318182,
                "pitch": 64,
                "velocity": 40,
                "duration": 0.2,
                "tempo": 120.0
            },
            {
                "start_time": 79.6090909,
                "end_time": 82.8318182,
                "pitch": 78,
                "velocity": 40,
                "duration": 3.2227273,
                "tempo": 120.0
            },
            {
                "start_time": 82.8318182,
                "end_time": 83.0272727,
                "pitch": 67,
                "velocity": 40,
                "duration": 0.1954545,
                "tempo": 120.0
            },
            {
                "start_time": 83.825,
                "end_time": 87.0431818,
                "pitch": 67,
                "velocity": 40,
                "duration": 3.2181818,
                "tempo": 120.0
            },
            {
                "start_time": 87.0431818,
                "end_time": 89.8659091,
                "pitch": 79,
                "velocity": 40,
                "duration": 2.8227273,
                "tempo": 120.0
            },
            {
                "start_time": 89.8659091,
                "end_time": 90.0659091,
                "pitch": 79,
                "velocity": 40,
                "duration": 0.2,
                "tempo": 120.0
            },
            {
                "start_time": 11.9568182,
                "end_time": 90.7795455,
                "pitch": 60,
                "velocity": 64,
                "duration": 78.8227273,
                "tempo": 120.0
            },
            {
                "start_time": 81.8181818,
                "end_time": 90.8772727,
                "pitch": 62,
                "velocity": 40,
                "duration": 9.0590909,
                "tempo": 120.0
            },
            {
                "start_time": 90.7795455,
                "end_time": 90.8772727,
                "pitch": 62,
                "velocity": 64,
                "duration": 0.0977273,
                "tempo": 120.0
            },
            {
                "start_time": 90.8772727,
                "end_time": 91.2886364,
                "pitch": 64,
                "velocity": 64,
                "duration": 0.4113636,
                "tempo": 120.0
            }
        ],
        "Acoustic Bass": [
            {
                "start_time": 12.875,
                "end_time": 13.0636364,
                "pitch": 36,
                "velocity": 51,
                "duration": 0.1886364,
                "tempo": 120.0
            },
            {
                "start_time": 13.0659091,
                "end_time": 13.2568182,
                "pitch": 36,
                "velocity": 51,
                "duration": 0.1909091,
                "tempo": 120.0
            },
            {
                "start_time": 13.2568182,
                "end_time": 13.3068182,
                "pitch": 39,
                "velocity": 51,
                "duration": 0.05,
                "tempo": 120.0
            },
            {
                "start_time": 13.3068182,
                "end_time": 13.4568182,
                "pitch": 39,
                "velocity": 51,
                "duration": 0.15,
                "tempo": 120.0
            },
            {
                "start_time": 13.2568182,
                "end_time": 13.6590909,
                "pitch": 36,
                "velocity": 51,
                "duration": 0.4022727,
                "tempo": 120.0
            },
            {
                "start_time": 13.4568182,
                "end_time": 13.6590909,
                "pitch": 36,
                "velocity": 51,
                "duration": 0.2022727,
                "tempo": 120.0
            },
            {
                "start_time": 13.6590909,
                "end_time": 13.8636364,
                "pitch": 43,
                "velocity": 51,
                "duration": 0.2045455,
                "tempo": 120.0
            },
            {
                "start_time": 13.8659091,
                "end_time": 14.0704545,
                "pitch": 43,
                "velocity": 51,
                "duration": 0.2045455,
                "tempo": 120.0
            },
            {
                "start_time": 13.4568182,
                "end_time": 14.2659091,
                "pitch": 40,
                "velocity": 51,
                "duration": 0.8090909,
                "tempo": 120.0
            },
            {
                "start_time": 14.0704545,
                "end_time": 14.2659091,
                "pitch": 40,
                "velocity": 51,
                "duration": 0.1954545,
                "tempo": 120.0
            },
            {
                "start_time": 14.2659091,
                "end_time": 14.2681818,
                "pitch": 54,
                "velocity": 51,
                "duration": 0.0022727,
                "tempo": 120.0
            },
            {
                "start_time": 14.0704545,
                "end_time": 14.4636364,
                "pitch": 0,
                "velocity": 51,
                "duration": 0.3931818,
                "tempo": 120.0
            },
            {
                "start_time": 14.2681818,
                "end_time": 14.4636364,
                "pitch": 43,
                "velocity": 51,
                "duration": 0.1954545,
                "tempo": 120.0
            },
            {
                "start_time": 14.4636364,
                "end_time": 14.6681818,
                "pitch": 36,
                "velocity": 51,
                "duration": 0.2045455,
                "tempo": 120.0
            },
            {
                "start_time": 14.6681818,
                "end_time": 14.875,
                "pitch": 36,
                "velocity": 51,
                "duration": 0.2068182,
                "tempo": 120.0
            },
            {
                "start_time": 14.875,
                "end_time": 14.925,
                "pitch": 39,
                "velocity": 51,
                "duration": 0.05,
                "tempo": 120.0
            },
            {
                "start_time": 14.925,
                "end_time": 15.075,
                "pitch": 39,
                "velocity": 51,
                "duration": 0.15,
                "tempo": 120.0
            },
            {
                "start_time": 14.875,
                "end_time": 15.2772727,
                "pitch": 36,
                "velocity": 51,
                "duration": 0.4022727,
                "tempo": 120.0
            },
            {
                "start_time": 15.0772727,
                "end_time": 15.2772727,
                "pitch": 36,
                "velocity": 51,
                "duration": 0.2,
                "tempo": 120.0
            },
            {
                "start_time": 13.6590909,
                "end_time": 15.2772727,
                "pitch": 52,
                "velocity": 51,
                "duration": 1.6181818,
                "tempo": 120.0
            },
            {
                "start_time": 15.2772727,
                "end_time": 15.4795455,
                "pitch": 43,
                "velocity": 51,
                "duration": 0.2022727,
                "tempo": 120.0
            },
            {
                "start_time": 14.4636364,
                "end_time": 15.6818182,
                "pitch": 0,
                "velocity": 51,
                "duration": 1.2181818,
                "tempo": 120.0
            },
            {
                "start_time": 15.4795455,
                "end_time": 15.6818182,
                "pitch": 43,
                "velocity": 51,
                "duration": 0.2022727,
                "tempo": 120.0
            },
            {
                "start_time": 15.0772727,
                "end_time": 15.8818182,
                "pitch": 40,
                "velocity": 51,
                "duration": 0.8045455,
                "tempo": 120.0
            },
            {
                "start_time": 15.6818182,
                "end_time": 15.8818182,
                "pitch": 40,
                "velocity": 51,
                "duration": 0.2,
                "tempo": 120.0
            },
            {
                "start_time": 15.6818182,
                "end_time": 16.0840909,
                "pitch": 0,
                "velocity": 51,
                "duration": 0.4022727,
                "tempo": 120.0
            },
            {
                "start_time": 15.8818182,
                "end_time": 16.0840909,
                "pitch": 43,
                "velocity": 51,
                "duration": 0.2022727,
                "tempo": 120.0
            },
            {
                "start_time": 16.0840909,
                "end_time": 16.2863636,
                "pitch": 29,
                "velocity": 51,
                "duration": 0.2022727,
                "tempo": 120.0
            },
            {
                "start_time": 16.2863636,
                "end_time": 16.4863636,
                "pitch": 29,
                "velocity": 51,
                "duration": 0.2,
                "tempo": 120.0
            },
            {
                "start_time": 16.4886364,
                "end_time": 16.5363636,
                "pitch": 32,
                "velocity": 51,
                "duration": 0.0477273,
                "tempo": 120.0
            },
            {
                "start_time": 16.5386364,
                "end_time": 16.6886364,
                "pitch": 32,
                "velocity": 51,
                "duration": 0.15,
                "tempo": 120.0
            },
            {
                "start_time": 16.8886364,
                "end_time": 17.0886364,
                "pitch": 36,
                "velocity": 51,
                "duration": 0.2,
                "tempo": 120.0
            },
            {
                "start_time": 17.0886364,
                "end_time": 17.2886364,
                "pitch": 36,
                "velocity": 51,
                "duration": 0.2,
                "tempo": 120.0
            },
            {
                "start_time": 17.2886364,
                "end_time": 17.4909091,
                "pitch": 33,
                "velocity": 51,
                "duration": 0.2022727,
                "tempo": 120.0
            },
            {
                "start_time": 17.4909091,
                "end_time": 17.6909091,
                "pitch": 36,
                "velocity": 51,
                "duration": 0.2,
                "tempo": 120.0
            },
            {
                "start_time": 17.6909091,
                "end_time": 17.8909091,
                "pitch": 29,
                "velocity": 51,
                "duration": 0.2,
                "tempo": 120.0
            },
            {
                "start_time": 17.8931818,
                "end_time": 18.0931818,
                "pitch": 29,
                "velocity": 51,
                "duration": 0.2,
                "tempo": 120.0
            },
            {
                "start_time": 16.4886364,
                "end_time": 18.0931818,
                "pitch": 42,
                "velocity": 51,
                "duration": 1.6045455,
                "tempo": 120.0
            },
            {
                "start_time": 18.0931818,
                "end_time": 18.1431818,
                "pitch": 32,
                "velocity": 51,
                "duration": 0.05,
                "tempo": 120.0
            },
            {
                "start_time": 18.1431818,
                "end_time": 18.2931818,
                "pitch": 32,
                "velocity": 51,
                "duration": 0.15,
                "tempo": 120.0
            },
            {
                "start_time": 16.8886364,
                "end_time": 18.4954545,
                "pitch": 41,
                "velocity": 51,
                "duration": 1.6068182,
                "tempo": 120.0
            },
            {
                "start_time": 18.4954545,
                "end_time": 18.6954545,
                "pitch": 36,
                "velocity": 51,
                "duration": 0.2,
                "tempo": 120.0
            },
            {
                "start_time": 18.6954545,
                "end_time": 18.8954545,
                "pitch": 36,
                "velocity": 51,
                "duration": 0.2,
                "tempo": 120.0
            },
            {
                "start_time": 17.2886364,
                "end_time": 18.8954545,
                "pitch": 40,
                "velocity": 51,
                "duration": 1.6068182,
                "tempo": 120.0
            },
            {
                "start_time": 17.4909091,
                "end_time": 19.0954545,
                "pitch": 7,
                "velocity": 51,
                "duration": 1.6045455,
                "tempo": 120.0
            },
            {
                "start_time": 18.8954545,
                "end_time": 19.0954545,
                "pitch": 33,
                "velocity": 51,
                "duration": 0.2,
                "tempo": 120.0
            },
            {
                "start_time": 19.0954545,
                "end_time": 19.2954545,
                "pitch": 36,
                "velocity": 51,
                "duration": 0.2,
                "tempo": 120.0
            },
            {
                "start_time": 18.8954545,
                "end_time": 19.2977273,
                "pitch": 40,
                "velocity": 51,
                "duration": 0.4022727,
                "tempo": 120.0
            },
            {
                "start_time": 19.2977273,
                "end_time": 19.4977273,
                "pitch": 34,
                "velocity": 51,
                "duration": 0.2,
                "tempo": 120.0
            },
            {
                "start_time": 19.4977273,
                "end_time": 19.7,
                "pitch": 34,
                "velocity": 51,
                "duration": 0.2022727,
                "tempo": 120.0
            },
            {
                "start_time": 19.7,
                "end_time": 19.75,
                "pitch": 37,
                "velocity": 51,
                "duration": 0.05,
                "tempo": 120.0
            },
            {
                "start_time": 19.75,
                "end_time": 19.9,
                "pitch": 37,
                "velocity": 51,
                "duration": 0.15,
                "tempo": 120.0
            },
            {
                "start_time": 18.4954545,
                "end_time": 19.9,
                "pitch": 41,
                "velocity": 51,
                "duration": 1.4045455,
                "tempo": 120.0
            },
            {
                "start_time": 19.7,
                "end_time": 20.1,
                "pitch": 14,
                "velocity": 51,
                "duration": 0.4,
                "tempo": 120.0
            },
            {
                "start_time": 19.9,
                "end_time": 20.1,
                "pitch": 34,
                "velocity": 51,
                "duration": 0.2,
                "tempo": 120.0
            },
            {
                "start_time": 19.9,
                "end_time": 20.3022727,
                "pitch": 41,
                "velocity": 51,
                "duration": 0.4022727,
                "tempo": 120.0
            },
            {
                "start_time": 20.1,
                "end_time": 20.3022727,
                "pitch": 41,
                "velocity": 51,
                "duration": 0.2022727,
                "tempo": 120.0
            },
            {
                "start_time": 20.3022727,
                "end_time": 20.5045455,
                "pitch": 41,
                "velocity": 51,
                "duration": 0.2022727,
                "tempo": 120.0
            },
            {
                "start_time": 20.5045455,
                "end_time": 20.7090909,
                "pitch": 38,
                "velocity": 51,
                "duration": 0.2045455,
                "tempo": 120.0
            },
            {
                "start_time": 20.5045455,
                "end_time": 20.9136364,
                "pitch": 41,
                "velocity": 51,
                "duration": 0.4090909,
                "tempo": 120.0
            },
            {
                "start_time": 20.7090909,
                "end_time": 20.9136364,
                "pitch": 41,
                "velocity": 51,
                "duration": 0.2045455,
                "tempo": 120.0
            },
            {
                "start_time": 18.0931818,
                "end_time": 20.9159091,
                "pitch": 42,
                "velocity": 51,
                "duration": 2.8227273,
                "tempo": 120.0
            },
            {
                "start_time": 20.9159091,
                "end_time": 21.1113636,
                "pitch": 34,
                "velocity": 51,
                "duration": 0.1954545,
                "tempo": 120.0
            },
            {
                "start_time": 20.1,
                "end_time": 21.3068182,
                "pitch": 14,
                "velocity": 51,
                "duration": 1.2068182,
                "tempo": 120.0
            },
            {
                "start_time": 21.1113636,
                "end_time": 21.3068182,
                "pitch": 34,
                "velocity": 51,
                "duration": 0.1954545,
                "tempo": 120.0
            },
            {
                "start_time": 21.3068182,
                "end_time": 21.3590909,
                "pitch": 37,
                "velocity": 51,
                "duration": 0.0522727,
                "tempo": 120.0
            },
            {
                "start_time": 21.3590909,
                "end_time": 21.5136364,
                "pitch": 37,
                "velocity": 51,
                "duration": 0.1545455,
                "tempo": 120.0
            },
            {
                "start_time": 21.3068182,
                "end_time": 21.7181818,
                "pitch": 14,
                "velocity": 51,
                "duration": 0.4113636,
                "tempo": 120.0
            },
            {
                "start_time": 21.5136364,
                "end_time": 21.7181818,
                "pitch": 34,
                "velocity": 51,
                "duration": 0.2045455,
                "tempo": 120.0
            },
            {
                "start_time": 21.5136364,
                "end_time": 21.9204545,
                "pitch": 41,
                "velocity": 51,
                "duration": 0.4068182,
                "tempo": 120.0
            },
            {
                "start_time": 21.7181818,
                "end_time": 21.9204545,
                "pitch": 41,
                "velocity": 51,
                "duration": 0.2022727,
                "tempo": 120.0
            },
            {
                "start_time": 21.9204545,
                "end_time": 22.1227273,
                "pitch": 41,
                "velocity": 51,
                "duration": 0.2022727,
                "tempo": 120.0
            },
            {
                "start_time": 20.7090909,
                "end_time": 22.3227273,
                "pitch": 38,
                "velocity": 51,
                "duration": 1.6136364,
                "tempo": 120.0
            },
            {
                "start_time": 22.1227273,
                "end_time": 22.3227273,
                "pitch": 38,
                "velocity": 51,
                "duration": 0.2,
                "tempo": 120.0
            },
            {
                "start_time": 22.1227273,
                "end_time": 22.5227273,
                "pitch": 41,
                "velocity": 51,
                "duration": 0.4,
                "tempo": 120.0
            },
            {
                "start_time": 22.3227273,
                "end_time": 22.5227273,
                "pitch": 41,
                "velocity": 51,
                "duration": 0.2,
                "tempo": 120.0
            },
            {
                "start_time": 22.5227273,
                "end_time": 22.725,
                "pitch": 36,
                "velocity": 51,
                "duration": 0.2022727,
                "tempo": 120.0
            },
            {
                "start_time": 22.725,
                "end_time": 22.925,
                "pitch": 36,
                "velocity": 51,
                "duration": 0.2,
                "tempo": 120.0
            },
            {
                "start_time": 22.925,
                "end_time": 22.975,
                "pitch": 39,
                "velocity": 51,
                "duration": 0.05,
                "tempo": 120.0
            },
            {
                "start_time": 22.9772727,
                "end_time": 23.125,
                "pitch": 39,
                "velocity": 51,
                "duration": 0.1477273,
                "tempo": 120.0
            },
            {
                "start_time": 19.2977273,
                "end_time": 23.1272727,
                "pitch": 40,
                "velocity": 51,
                "duration": 3.8295455,
                "tempo": 120.0
            },
            {
                "start_time": 22.925,
                "end_time": 23.3272727,
                "pitch": 36,
                "velocity": 51,
                "duration": 0.4022727,
                "tempo": 120.0
            },
            {
                "start_time": 23.1272727,
                "end_time": 23.3272727,
                "pitch": 36,
                "velocity": 51,
                "duration": 0.2,
                "tempo": 120.0
            },
            {
                "start_time": 15.2772727,
                "end_time": 23.3272727,
                "pitch": 52,
                "velocity": 51,
                "duration": 8.05,
                "tempo": 120.0
            },
            {
                "start_time": 23.3272727,
                "end_time": 23.5272727,
                "pitch": 43,
                "velocity": 51,
                "duration": 0.2,
                "tempo": 120.0
            },
            {
                "start_time": 16.0840909,
                "end_time": 23.7272727,
                "pitch": 0,
                "velocity": 51,
                "duration": 7.6431818,
                "tempo": 120.0
            },
            {
                "start_time": 23.5272727,
                "end_time": 23.7272727,
                "pitch": 43,
                "velocity": 51,
                "duration": 0.2,
                "tempo": 120.0
            },
            {
                "start_time": 23.1272727,
                "end_time": 23.9295455,
                "pitch": 40,
                "velocity": 51,
                "duration": 0.8022727,
                "tempo": 120.0
            },
            {
                "start_time": 23.7272727,
                "end_time": 23.9295455,
                "pitch": 40,
                "velocity": 51,
                "duration": 0.2022727,
                "tempo": 120.0
            },
            {
                "start_time": 15.8818182,
                "end_time": 23.9295455,
                "pitch": 54,
                "velocity": 51,
                "duration": 8.0477273,
                "tempo": 120.0
            },
            {
                "start_time": 23.7272727,
                "end_time": 24.1295455,
                "pitch": 0,
                "velocity": 51,
                "duration": 0.4022727,
                "tempo": 120.0
            },
            {
                "start_time": 23.9295455,
                "end_time": 24.1295455,
                "pitch": 43,
                "velocity": 51,
                "duration": 0.2,
                "tempo": 120.0
            },
            {
                "start_time": 24.1295455,
                "end_time": 24.3295455,
                "pitch": 36,
                "velocity": 51,
                "duration": 0.2,
                "tempo": 120.0
            },
            {
                "start_time": 24.3295455,
                "end_time": 24.5295455,
                "pitch": 36,
                "velocity": 51,
                "duration": 0.2,
                "tempo": 120.0
            },
            {
                "start_time": 24.5318182,
                "end_time": 24.7318182,
                "pitch": 40,
                "velocity": 51,
                "duration": 0.2,
                "tempo": 120.0
            },
            {
                "start_time": 24.7318182,
                "end_time": 24.9340909,
                "pitch": 40,
                "velocity": 51,
                "duration": 0.2022727,
                "tempo": 120.0
            },
            {
                "start_time": 24.9340909,
                "end_time": 25.1340909,
                "pitch": 40,
                "velocity": 51,
                "duration": 0.2,
                "tempo": 120.0
            },
            {
                "start_time": 22.5227273,
                "end_time": 25.3340909,
                "pitch": 41,
                "velocity": 51,
                "duration": 2.8113636,
                "tempo": 120.0
            },
            {
                "start_time": 25.1340909,
                "end_time": 25.3340909,
                "pitch": 41,
                "velocity": 51,
                "duration": 0.2,
                "tempo": 120.0
            },
            {
                "start_time": 25.3340909,
                "end_time": 25.5340909,
                "pitch": 41,
                "velocity": 51,
                "duration": 0.2,
                "tempo": 120.0
            },
            {
                "start_time": 23.9295455,
                "end_time": 25.5340909,
                "pitch": 54,
                "velocity": 51,
                "duration": 1.6045455,
                "tempo": 120.0
            },
            {
                "start_time": 25.5340909,
                "end_time": 25.7340909,
                "pitch": 43,
                "velocity": 51,
                "duration": 0.2,
                "tempo": 120.0
            },
            {
                "start_time": 24.1295455,
                "end_time": 25.7363636,
                "pitch": 0,
                "velocity": 51,
                "duration": 1.6068182,
                "tempo": 120.0
            },
            {
                "start_time": 24.5318182,
                "end_time": 25.9363636,
                "pitch": 36,
                "velocity": 51,
                "duration": 1.4045455,
                "tempo": 120.0
            },
            {
                "start_time": 25.7363636,
                "end_time": 25.9363636,
                "pitch": 36,
                "velocity": 51,
                "duration": 0.2,
                "tempo": 120.0
            },
            {
                "start_time": 25.9363636,
                "end_time": 26.1386364,
                "pitch": 36,
                "velocity": 51,
                "duration": 0.2022727,
                "tempo": 120.0
            },
            {
                "start_time": 26.1386364,
                "end_time": 26.1886364,
                "pitch": 39,
                "velocity": 51,
                "duration": 0.05,
                "tempo": 120.0
            },
            {
                "start_time": 26.1886364,
                "end_time": 26.3386364,
                "pitch": 39,
                "velocity": 51,
                "duration": 0.15,
                "tempo": 120.0
            },
            {
                "start_time": 26.1386364,
                "end_time": 26.5386364,
                "pitch": 36,
                "velocity": 51,
                "duration": 0.4,
                "tempo": 120.0
            },
            {
                "start_time": 26.3386364,
                "end_time": 26.5386364,
                "pitch": 36,
                "velocity": 51,
                "duration": 0.2,
                "tempo": 120.0
            },
            {
                "start_time": 23.3272727,
                "end_time": 26.5386364,
                "pitch": 52,
                "velocity": 51,
                "duration": 3.2113636,
                "tempo": 120.0
            },
            {
                "start_time": 26.5386364,
                "end_time": 26.7409091,
                "pitch": 43,
                "velocity": 51,
                "duration": 0.2022727,
                "tempo": 120.0
            },
            {
                "start_time": 26.7409091,
                "end_time": 26.9409091,
                "pitch": 43,
                "velocity": 51,
                "duration": 0.2,
                "tempo": 120.0
            },
            {
                "start_time": 25.7363636,
                "end_time": 26.9431818,
                "pitch": 0,
                "velocity": 51,
                "duration": 1.2068182,
                "tempo": 120.0
            },
            {
                "start_time": 26.3386364,
                "end_time": 27.1431818,
                "pitch": 40,
                "velocity": 51,
                "duration": 0.8045455,
                "tempo": 120.0
            },
            {
                "start_time": 26.9431818,
                "end_time": 27.1431818,
                "pitch": 40,
                "velocity": 51,
                "duration": 0.2,
                "tempo": 120.0
            },
            {
                "start_time": 25.5340909,
                "end_time": 27.1431818,
                "pitch": 54,
                "velocity": 51,
                "duration": 1.6090909,
                "tempo": 120.0
            },
            {
                "start_time": 26.9431818,
                "end_time": 27.3431818,
                "pitch": 0,
                "velocity": 51,
                "duration": 0.4,
                "tempo": 120.0
            },
            {
                "start_time": 27.1431818,
                "end_time": 27.3431818,
                "pitch": 43,
                "velocity": 51,
                "duration": 0.2,
                "tempo": 120.0
            },
            {
                "start_time": 27.3431818,
                "end_time": 27.5431818,
                "pitch": 36,
                "velocity": 51,
                "duration": 0.2,
                "tempo": 120.0
            },
            {
                "start_time": 27.5431818,
                "end_time": 27.7431818,
                "pitch": 36,
                "velocity": 51,
                "duration": 0.2,
                "tempo": 120.0
            },
            {
                "start_time": 27.7431818,
                "end_time": 27.7931818,
                "pitch": 39,
                "velocity": 51,
                "duration": 0.05,
                "tempo": 120.0
            },
            {
                "start_time": 27.7931818,
                "end_time": 27.9454545,
                "pitch": 39,
                "velocity": 51,
                "duration": 0.1522727,
                "tempo": 120.0
            },
            {
                "start_time": 27.7431818,
                "end_time": 28.1454545,
                "pitch": 36,
                "velocity": 51,
                "duration": 0.4022727,
                "tempo": 120.0
            },
            {
                "start_time": 27.9454545,
                "end_time": 28.1454545,
                "pitch": 36,
                "velocity": 51,
                "duration": 0.2,
                "tempo": 120.0
            },
            {
                "start_time": 26.5386364,
                "end_time": 28.1477273,
                "pitch": 52,
                "velocity": 51,
                "duration": 1.6090909,
                "tempo": 120.0
            },
            {
                "start_time": 28.1454545,
                "end_time": 28.1477273,
                "pitch": 52,
                "velocity": 51,
                "duration": 0.0022727,
                "tempo": 120.0
            },
            {
                "start_time": 28.1477273,
                "end_time": 28.3522727,
                "pitch": 43,
                "velocity": 51,
                "duration": 0.2045455,
                "tempo": 120.0
            },
            {
                "start_time": 27.3431818,
                "end_time": 28.5568182,
                "pitch": 0,
                "velocity": 51,
                "duration": 1.2136364,
                "tempo": 120.0
            },
            {
                "start_time": 28.3522727,
                "end_time": 28.5568182,
                "pitch": 43,
                "velocity": 51,
                "duration": 0.2045455,
                "tempo": 120.0
            },
            {
                "start_time": 27.9454545,
                "end_time": 28.7545455,
                "pitch": 40,
                "velocity": 51,
                "duration": 0.8090909,
                "tempo": 120.0
            },
            {
                "start_time": 28.5568182,
                "end_time": 28.7545455,
                "pitch": 40,
                "velocity": 51,
                "duration": 0.1977273,
                "tempo": 120.0
            },
            {
                "start_time": 27.1431818,
                "end_time": 28.7545455,
                "pitch": 54,
                "velocity": 51,
                "duration": 1.6113636,
                "tempo": 120.0
            },
            {
                "start_time": 28.5568182,
                "end_time": 28.95,
                "pitch": 0,
                "velocity": 51,
                "duration": 0.3931818,
                "tempo": 120.0
            },
            {
                "start_time": 28.7545455,
                "end_time": 28.95,
                "pitch": 43,
                "velocity": 51,
                "duration": 0.1954545,
                "tempo": 120.0
            },
            {
                "start_time": 28.95,
                "end_time": 29.1545455,
                "pitch": 29,
                "velocity": 51,
                "duration": 0.2045455,
                "tempo": 120.0
            },
            {
                "start_time": 29.1568182,
                "end_time": 29.3613636,
                "pitch": 29,
                "velocity": 51,
                "duration": 0.2045455,
                "tempo": 120.0
            },
            {
                "start_time": 20.9159091,
                "end_time": 29.3613636,
                "pitch": 42,
                "velocity": 51,
                "duration": 8.4454545,
                "tempo": 120.0
            },
            {
                "start_time": 29.3613636,
                "end_time": 29.4113636,
                "pitch": 32,
                "velocity": 51,
                "duration": 0.05,
                "tempo": 120.0
            },
            {
                "start_time": 29.4113636,
                "end_time": 29.5613636,
                "pitch": 32,
                "velocity": 51,
                "duration": 0.15,
                "tempo": 120.0
            },
            {
                "start_time": 29.7613636,
                "end_time": 29.9613636,
                "pitch": 36,
                "velocity": 51,
                "duration": 0.2,
                "tempo": 120.0
            },
            {
                "start_time": 29.9636364,
                "end_time": 30.1636364,
                "pitch": 36,
                "velocity": 51,
                "duration": 0.2,
                "tempo": 120.0
            },
            {
                "start_time": 19.0954545,
                "end_time": 30.3636364,
                "pitch": 7,
                "velocity": 51,
                "duration": 11.2681818,
                "tempo": 120.0
            },
            {
                "start_time": 30.1636364,
                "end_time": 30.3636364,
                "pitch": 33,
                "velocity": 51,
                "duration": 0.2,
                "tempo": 120.0
            },
            {
                "start_time": 17.6909091,
                "end_time": 30.5659091,
                "pitch": 24,
                "velocity": 51,
                "duration": 12.875,
                "tempo": 120.0
            },
            {
                "start_time": 30.3636364,
                "end_time": 30.5659091,
                "pitch": 36,
                "velocity": 51,
                "duration": 0.2022727,
                "tempo": 120.0
            },
            {
                "start_time": 30.5659091,
                "end_time": 30.7659091,
                "pitch": 29,
                "velocity": 51,
                "duration": 0.2,
                "tempo": 120.0
            },
            {
                "start_time": 30.7659091,
                "end_time": 30.9659091,
                "pitch": 29,
                "velocity": 51,
                "duration": 0.2,
                "tempo": 120.0
            },
            {
                "start_time": 29.3613636,
                "end_time": 30.9659091,
                "pitch": 42,
                "velocity": 51,
                "duration": 1.6045455,
                "tempo": 120.0
            },
            {
                "start_time": 30.9659091,
                "end_time": 31.0159091,
                "pitch": 32,
                "velocity": 51,
                "duration": 0.05,
                "tempo": 120.0
            },
            {
                "start_time": 31.0181818,
                "end_time": 31.1681818,
                "pitch": 32,
                "velocity": 51,
                "duration": 0.15,
                "tempo": 120.0
            },
            {
                "start_time": 29.7613636,
                "end_time": 31.3704545,
                "pitch": 41,
                "velocity": 51,
                "duration": 1.6090909,
                "tempo": 120.0
            },
            {
                "start_time": 31.3704545,
                "end_time": 31.5704545,
                "pitch": 36,
                "velocity": 51,
                "duration": 0.2,
                "tempo": 120.0
            },
            {
                "start_time": 31.5704545,
                "end_time": 31.7704545,
                "pitch": 36,
                "velocity": 51,
                "duration": 0.2,
                "tempo": 120.0
            },
            {
                "start_time": 30.1636364,
                "end_time": 31.7704545,
                "pitch": 40,
                "velocity": 51,
                "duration": 1.6068182,
                "tempo": 120.0
            },
            {
                "start_time": 30.3636364,
                "end_time": 31.9704545,
                "pitch": 7,
                "velocity": 51,
                "duration": 1.6068182,
                "tempo": 120.0
            },
            {
                "start_time": 31.7704545,
                "end_time": 31.9704545,
                "pitch": 33,
                "velocity": 51,
                "duration": 0.2,
                "tempo": 120.0
            },
            {
                "start_time": 31.9704545,
                "end_time": 32.1704545,
                "pitch": 36,
                "velocity": 51,
                "duration": 0.2,
                "tempo": 120.0
            },
            {
                "start_time": 31.7704545,
                "end_time": 32.1704545,
                "pitch": 40,
                "velocity": 51,
                "duration": 0.4,
                "tempo": 120.0
            },
            {
                "start_time": 32.1704545,
                "end_time": 32.3704545,
                "pitch": 34,
                "velocity": 51,
                "duration": 0.2,
                "tempo": 120.0
            },
            {
                "start_time": 32.3704545,
                "end_time": 32.5704545,
                "pitch": 34,
                "velocity": 51,
                "duration": 0.2,
                "tempo": 120.0
            },
            {
                "start_time": 21.7181818,
                "end_time": 32.5727273,
                "pitch": 14,
                "velocity": 51,
                "duration": 10.8545455,
                "tempo": 120.0
            },
            {
                "start_time": 32.5727273,
                "end_time": 32.6227273,
                "pitch": 37,
                "velocity": 51,
                "duration": 0.05,
                "tempo": 120.0
            },
            {
                "start_time": 32.6227273,
                "end_time": 32.7727273,
                "pitch": 37,
                "velocity": 51,
                "duration": 0.15,
                "tempo": 120.0
            },
            {
                "start_time": 31.3704545,
                "end_time": 32.7727273,
                "pitch": 41,
                "velocity": 51,
                "duration": 1.4022727,
                "tempo": 120.0
            },
            {
                "start_time": 32.5727273,
                "end_time": 32.975,
                "pitch": 14,
                "velocity": 51,
                "duration": 0.4022727,
                "tempo": 120.0
            },
            {
                "start_time": 32.7727273,
                "end_time": 32.975,
                "pitch": 34,
                "velocity": 51,
                "duration": 0.2022727,
                "tempo": 120.0
            },
            {
                "start_time": 32.7727273,
                "end_time": 33.175,
                "pitch": 41,
                "velocity": 51,
                "duration": 0.4022727,
                "tempo": 120.0
            },
            {
                "start_time": 32.975,
                "end_time": 33.175,
                "pitch": 41,
                "velocity": 51,
                "duration": 0.2,
                "tempo": 120.0
            },
            {
                "start_time": 33.175,
                "end_time": 33.375,
                "pitch": 41,
                "velocity": 51,
                "duration": 0.2,
                "tempo": 120.0
            },
            {
                "start_time": 22.3227273,
                "end_time": 33.575,
                "pitch": 38,
                "velocity": 51,
                "duration": 11.2522727,
                "tempo": 120.0
            },
            {
                "start_time": 33.375,
                "end_time": 33.575,
                "pitch": 38,
                "velocity": 51,
                "duration": 0.2,
                "tempo": 120.0
            },
            {
                "start_time": 33.375,
                "end_time": 33.775,
                "pitch": 41,
                "velocity": 51,
                "duration": 0.4,
                "tempo": 120.0
            },
            {
                "start_time": 33.575,
                "end_time": 33.775,
                "pitch": 41,
                "velocity": 51,
                "duration": 0.2,
                "tempo": 120.0
            },
            {
                "start_time": 30.9659091,
                "end_time": 33.775,
                "pitch": 42,
                "velocity": 51,
                "duration": 2.8090909,
                "tempo": 120.0
            },
            {
                "start_time": 33.775,
                "end_time": 33.975,
                "pitch": 34,
                "velocity": 51,
                "duration": 0.2,
                "tempo": 120.0
            },
            {
                "start_time": 32.975,
                "end_time": 34.1772727,
                "pitch": 14,
                "velocity": 51,
                "duration": 1.2022727,
                "tempo": 120.0
            },
            {
                "start_time": 33.9772727,
                "end_time": 34.1772727,
                "pitch": 34,
                "velocity": 51,
                "duration": 0.2,
                "tempo": 120.0
            },
            {
                "start_time": 34.1772727,
                "end_time": 34.2272727,
                "pitch": 37,
                "velocity": 51,
                "duration": 0.05,
                "tempo": 120.0
            },
            {
                "start_time": 34.2272727,
                "end_time": 34.3772727,
                "pitch": 37,
                "velocity": 51,
                "duration": 0.15,
                "tempo": 120.0
            },
            {
                "start_time": 34.1772727,
                "end_time": 34.5772727,
                "pitch": 14,
                "velocity": 51,
                "duration": 0.4,
                "tempo": 120.0
            },
            {
                "start_time": 34.3772727,
                "end_time": 34.5772727,
                "pitch": 34,
                "velocity": 51,
                "duration": 0.2,
                "tempo": 120.0
            },
            {
                "start_time": 34.3772727,
                "end_time": 34.7772727,
                "pitch": 41,
                "velocity": 51,
                "duration": 0.4,
                "tempo": 120.0
            },
            {
                "start_time": 34.5772727,
                "end_time": 34.7772727,
                "pitch": 41,
                "velocity": 51,
                "duration": 0.2,
                "tempo": 120.0
            },
            {
                "start_time": 34.7795455,
                "end_time": 34.9795455,
                "pitch": 41,
                "velocity": 51,
                "duration": 0.2,
                "tempo": 120.0
            },
            {
                "start_time": 33.575,
                "end_time": 35.1863636,
                "pitch": 38,
                "velocity": 51,
                "duration": 1.6113636,
                "tempo": 120.0
            },
            {
                "start_time": 34.9795455,
                "end_time": 35.1863636,
                "pitch": 38,
                "velocity": 51,
                "duration": 0.2068182,
                "tempo": 120.0
            },
            {
                "start_time": 34.9795455,
                "end_time": 35.3909091,
                "pitch": 41,
                "velocity": 51,
                "duration": 0.4113636,
                "tempo": 120.0
            },
            {
                "start_time": 35.1863636,
                "end_time": 35.3909091,
                "pitch": 41,
                "velocity": 51,
                "duration": 0.2045455,
                "tempo": 120.0
            },
            {
                "start_time": 35.3909091,
                "end_time": 35.5909091,
                "pitch": 36,
                "velocity": 51,
                "duration": 0.2,
                "tempo": 120.0
            },
            {
                "start_time": 35.5931818,
                "end_time": 35.7931818,
                "pitch": 36,
                "velocity": 51,
                "duration": 0.2,
                "tempo": 120.0
            },
            {
                "start_time": 35.7931818,
                "end_time": 35.8409091,
                "pitch": 39,
                "velocity": 51,
                "duration": 0.0477273,
                "tempo": 120.0
            },
            {
                "start_time": 35.8409091,
                "end_time": 35.9886364,
                "pitch": 39,
                "velocity": 51,
                "duration": 0.1477273,
                "tempo": 120.0
            },
            {
                "start_time": 32.1704545,
                "end_time": 35.9886364,
                "pitch": 40,
                "velocity": 51,
                "duration": 3.8181818,
                "tempo": 120.0
            },
            {
                "start_time": 35.7931818,
                "end_time": 36.1840909,
                "pitch": 36,
                "velocity": 51,
                "duration": 0.3909091,
                "tempo": 120.0
            },
            {
                "start_time": 35.9886364,
                "end_time": 36.1840909,
                "pitch": 36,
                "velocity": 51,
                "duration": 0.1954545,
                "tempo": 120.0
            },
            {
                "start_time": 36.1840909,
                "end_time": 36.3840909,
                "pitch": 43,
                "velocity": 51,
                "duration": 0.2,
                "tempo": 120.0
            },
            {
                "start_time": 28.95,
                "end_time": 36.5863636,
                "pitch": 0,
                "velocity": 51,
                "duration": 7.6363636,
                "tempo": 120.0
            },
            {
                "start_time": 36.3863636,
                "end_time": 36.5863636,
                "pitch": 43,
                "velocity": 51,
                "duration": 0.2,
                "tempo": 120.0
            },
            {
                "start_time": 35.9886364,
                "end_time": 36.7909091,
                "pitch": 40,
                "velocity": 51,
                "duration": 0.8022727,
                "tempo": 120.0
            },
            {
                "start_time": 36.5863636,
                "end_time": 36.7909091,
                "pitch": 40,
                "velocity": 51,
                "duration": 0.2045455,
                "tempo": 120.0
            },
            {
                "start_time": 28.7545455,
                "end_time": 36.7909091,
                "pitch": 54,
                "velocity": 51,
                "duration": 8.0363636,
                "tempo": 120.0
            },
            {
                "start_time": 36.7909091,
                "end_time": 36.9954545,
                "pitch": 43,
                "velocity": 51,
                "duration": 0.2045455,
                "tempo": 120.0
            },
            {
                "start_time": 36.5863636,
                "end_time": 36.9977273,
                "pitch": 0,
                "velocity": 51,
                "duration": 0.4113636,
                "tempo": 120.0
            },
            {
                "start_time": 36.9977273,
                "end_time": 37.1977273,
                "pitch": 36,
                "velocity": 51,
                "duration": 0.2,
                "tempo": 120.0
            },
            {
                "start_time": 37.1977273,
                "end_time": 37.3977273,
                "pitch": 36,
                "velocity": 51,
                "duration": 0.2,
                "tempo": 120.0
            },
            {
                "start_time": 37.3977273,
                "end_time": 37.5977273,
                "pitch": 40,
                "velocity": 51,
                "duration": 0.2,
                "tempo": 120.0
            },
            {
                "start_time": 37.3977273,
                "end_time": 37.7977273,
                "pitch": 36,
                "velocity": 51,
                "duration": 0.4,
                "tempo": 120.0
            },
            {
                "start_time": 37.5977273,
                "end_time": 37.7977273,
                "pitch": 36,
                "velocity": 51,
                "duration": 0.2,
                "tempo": 120.0
            },
            {
                "start_time": 37.7977273,
                "end_time": 37.9977273,
                "pitch": 36,
                "velocity": 51,
                "duration": 0.2,
                "tempo": 120.0
            },
            {
                "start_time": 37.9977273,
                "end_time": 38.1977273,
                "pitch": 48,
                "velocity": 51,
                "duration": 0.2,
                "tempo": 120.0
            },
            {
                "start_time": 35.1863636,
                "end_time": 38.4,
                "pitch": 38,
                "velocity": 51,
                "duration": 3.2136364,
                "tempo": 120.0
            },
            {
                "start_time": 38.1977273,
                "end_time": 38.4,
                "pitch": 38,
                "velocity": 51,
                "duration": 0.2022727,
                "tempo": 120.0
            },
            {
                "start_time": 38.4,
                "end_time": 38.6022727,
                "pitch": 50,
                "velocity": 51,
                "duration": 0.2022727,
                "tempo": 120.0
            },
            {
                "start_time": 38.6022727,
                "end_time": 38.8022727,
                "pitch": 38,
                "velocity": 51,
                "duration": 0.2,
                "tempo": 120.0
            },
            {
                "start_time": 38.8022727,
                "end_time": 39.0022727,
                "pitch": 39,
                "velocity": 51,
                "duration": 0.2,
                "tempo": 120.0
            },
            {
                "start_time": 39.0022727,
                "end_time": 39.2022727,
                "pitch": 43,
                "velocity": 51,
                "duration": 0.2,
                "tempo": 120.0
            },
            {
                "start_time": 34.5772727,
                "end_time": 39.4022727,
                "pitch": 14,
                "velocity": 51,
                "duration": 4.825,
                "tempo": 120.0
            },
            {
                "start_time": 39.2022727,
                "end_time": 39.4022727,
                "pitch": 46,
                "velocity": 51,
                "duration": 0.2,
                "tempo": 120.0
            },
            {
                "start_time": 39.4022727,
                "end_time": 39.6022727,
                "pitch": 39,
                "velocity": 51,
                "duration": 0.2,
                "tempo": 120.0
            },
            {
                "start_time": 39.6022727,
                "end_time": 39.8022727,
                "pitch": 39,
                "velocity": 51,
                "duration": 0.2,
                "tempo": 120.0
            },
            {
                "start_time": 39.0022727,
                "end_time": 39.8045455,
                "pitch": 53,
                "velocity": 51,
                "duration": 0.8022727,
                "tempo": 120.0
            },
            {
                "start_time": 39.2022727,
                "end_time": 40.0045455,
                "pitch": 43,
                "velocity": 51,
                "duration": 0.8022727,
                "tempo": 120.0
            },
            {
                "start_time": 39.8045455,
                "end_time": 40.0045455,
                "pitch": 43,
                "velocity": 51,
                "duration": 0.2,
                "tempo": 120.0
            },
            {
                "start_time": 39.4022727,
                "end_time": 40.2045455,
                "pitch": 14,
                "velocity": 51,
                "duration": 0.8022727,
                "tempo": 120.0
            },
            {
                "start_time": 40.0045455,
                "end_time": 40.2045455,
                "pitch": 46,
                "velocity": 51,
                "duration": 0.2,
                "tempo": 120.0
            },
            {
                "start_time": 40.2045455,
                "end_time": 40.4045455,
                "pitch": 39,
                "velocity": 51,
                "duration": 0.2,
                "tempo": 120.0
            },
            {
                "start_time": 40.4068182,
                "end_time": 40.6068182,
                "pitch": 39,
                "velocity": 51,
                "duration": 0.2,
                "tempo": 120.0
            },
            {
                "start_time": 39.8045455,
                "end_time": 40.6068182,
                "pitch": 53,
                "velocity": 51,
                "duration": 0.8022727,
                "tempo": 120.0
            },
            {
                "start_time": 40.0045455,
                "end_time": 40.8068182,
                "pitch": 43,
                "velocity": 51,
                "duration": 0.8022727,
                "tempo": 120.0
            },
            {
                "start_time": 40.6068182,
                "end_time": 40.8068182,
                "pitch": 43,
                "velocity": 51,
                "duration": 0.2,
                "tempo": 120.0
            },
            {
                "start_time": 40.8068182,
                "end_time": 41.0068182,
                "pitch": 46,
                "velocity": 51,
                "duration": 0.2,
                "tempo": 120.0
            },
            {
                "start_time": 40.2045455,
                "end_time": 41.0090909,
                "pitch": 14,
                "velocity": 51,
                "duration": 0.8045455,
                "tempo": 120.0
            },
            {
                "start_time": 41.0090909,
                "end_time": 41.2068182,
                "pitch": 39,
                "velocity": 51,
                "duration": 0.1977273,
                "tempo": 120.0
            },
            {
                "start_time": 41.2090909,
                "end_time": 41.4090909,
                "pitch": 39,
                "velocity": 51,
                "duration": 0.2,
                "tempo": 120.0
            },
            {
                "start_time": 40.6068182,
                "end_time": 41.4090909,
                "pitch": 53,
                "velocity": 51,
                "duration": 0.8022727,
                "tempo": 120.0
            },
            {
                "start_time": 40.8068182,
                "end_time": 41.6090909,
                "pitch": 43,
                "velocity": 51,
                "duration": 0.8022727,
                "tempo": 120.0
            },
            {
                "start_time": 41.4090909,
                "end_time": 41.6090909,
                "pitch": 43,
                "velocity": 51,
                "duration": 0.2,
                "tempo": 120.0
            },
            {
                "start_time": 41.0090909,
                "end_time": 41.8090909,
                "pitch": 14,
                "velocity": 51,
                "duration": 0.8,
                "tempo": 120.0
            },
            {
                "start_time": 41.6090909,
                "end_time": 41.8090909,
                "pitch": 46,
                "velocity": 51,
                "duration": 0.2,
                "tempo": 120.0
            },
            {
                "start_time": 38.1977273,
                "end_time": 42.0090909,
                "pitch": 36,
                "velocity": 51,
                "duration": 3.8113636,
                "tempo": 120.0
            },
            {
                "start_time": 41.8090909,
                "end_time": 42.0090909,
                "pitch": 36,
                "velocity": 51,
                "duration": 0.2,
                "tempo": 120.0
            },
            {
                "start_time": 42.0090909,
                "end_time": 42.2090909,
                "pitch": 36,
                "velocity": 51,
                "duration": 0.2,
                "tempo": 120.0
            },
            {
                "start_time": 37.5977273,
                "end_time": 42.4113636,
                "pitch": 40,
                "velocity": 51,
                "duration": 4.8136364,
                "tempo": 120.0
            },
            {
                "start_time": 42.2090909,
                "end_time": 42.4113636,
                "pitch": 40,
                "velocity": 51,
                "duration": 0.2022727,
                "tempo": 120.0
            },
            {
                "start_time": 36.7909091,
                "end_time": 42.4113636,
                "pitch": 54,
                "velocity": 51,
                "duration": 5.6204545,
                "tempo": 120.0
            },
            {
                "start_time": 41.6090909,
                "end_time": 42.6113636,
                "pitch": 43,
                "velocity": 51,
                "duration": 1.0022727,
                "tempo": 120.0
            },
            {
                "start_time": 42.4113636,
                "end_time": 42.6113636,
                "pitch": 43,
                "velocity": 51,
                "duration": 0.2,
                "tempo": 120.0
            },
            {
                "start_time": 36.9977273,
                "end_time": 42.6136364,
                "pitch": 0,
                "velocity": 51,
                "duration": 5.6159091,
                "tempo": 120.0
            },
            {
                "start_time": 42.2090909,
                "end_time": 42.8136364,
                "pitch": 36,
                "velocity": 51,
                "duration": 0.6045455,
                "tempo": 120.0
            },
            {
                "start_time": 42.6136364,
                "end_time": 42.8136364,
                "pitch": 36,
                "velocity": 51,
                "duration": 0.2,
                "tempo": 120.0
            },
            {
                "start_time": 42.8136364,
                "end_time": 43.0136364,
                "pitch": 36,
                "velocity": 51,
                "duration": 0.2,
                "tempo": 120.0
            },
            {
                "start_time": 43.0136364,
                "end_time": 43.2136364,
                "pitch": 40,
                "velocity": 51,
                "duration": 0.2,
                "tempo": 120.0
            },
            {
                "start_time": 42.4113636,
                "end_time": 43.2136364,
                "pitch": 54,
                "velocity": 51,
                "duration": 0.8022727,
                "tempo": 120.0
            },
            {
                "start_time": 42.6136364,
                "end_time": 43.4136364,
                "pitch": 0,
                "velocity": 51,
                "duration": 0.8,
                "tempo": 120.0
            },
            {
                "start_time": 43.2136364,
                "end_time": 43.4136364,
                "pitch": 43,
                "velocity": 51,
                "duration": 0.2,
                "tempo": 120.0
            },
            {
                "start_time": 43.0136364,
                "end_time": 43.6181818,
                "pitch": 36,
                "velocity": 51,
                "duration": 0.6045455,
                "tempo": 120.0
            },
            {
                "start_time": 43.4136364,
                "end_time": 43.6181818,
                "pitch": 36,
                "velocity": 51,
                "duration": 0.2045455,
                "tempo": 120.0
            },
            {
                "start_time": 43.6204545,
                "end_time": 43.825,
                "pitch": 36,
                "velocity": 51,
                "duration": 0.2045455,
                "tempo": 120.0
            },
            {
                "start_time": 43.825,
                "end_time": 44.025,
                "pitch": 40,
                "velocity": 51,
                "duration": 0.2,
                "tempo": 120.0
            },
            {
                "start_time": 43.2136364,
                "end_time": 44.025,
                "pitch": 54,
                "velocity": 51,
                "duration": 0.8113636,
                "tempo": 120.0
            },
            {
                "start_time": 44.025,
                "end_time": 44.225,
                "pitch": 43,
                "velocity": 51,
                "duration": 0.2,
                "tempo": 120.0
            },
            {
                "start_time": 44.225,
                "end_time": 44.425,
                "pitch": 31,
                "velocity": 51,
                "duration": 0.2,
                "tempo": 120.0
            },
            {
                "start_time": 44.4272727,
                "end_time": 44.6272727,
                "pitch": 31,
                "velocity": 51,
                "duration": 0.2,
                "tempo": 120.0
            },
            {
                "start_time": 44.6272727,
                "end_time": 44.8272727,
                "pitch": 31,
                "velocity": 51,
                "duration": 0.2,
                "tempo": 120.0
            },
            {
                "start_time": 44.8272727,
                "end_time": 45.0272727,
                "pitch": 35,
                "velocity": 51,
                "duration": 0.2,
                "tempo": 120.0
            },
            {
                "start_time": 43.825,
                "end_time": 45.2272727,
                "pitch": 36,
                "velocity": 51,
                "duration": 1.4022727,
                "tempo": 120.0
            },
            {
                "start_time": 45.0272727,
                "end_time": 45.2272727,
                "pitch": 36,
                "velocity": 51,
                "duration": 0.2,
                "tempo": 120.0
            },
            {
                "start_time": 45.2272727,
                "end_time": 45.4272727,
                "pitch": 36,
                "velocity": 51,
                "duration": 0.2,
                "tempo": 120.0
            },
            {
                "start_time": 45.4272727,
                "end_time": 45.4772727,
                "pitch": 39,
                "velocity": 51,
                "duration": 0.05,
                "tempo": 120.0
            },
            {
                "start_time": 45.4772727,
                "end_time": 45.6295455,
                "pitch": 39,
                "velocity": 51,
                "duration": 0.1522727,
                "tempo": 120.0
            },
            {
                "start_time": 45.4272727,
                "end_time": 45.8295455,
                "pitch": 36,
                "velocity": 51,
                "duration": 0.4022727,
                "tempo": 120.0
            },
            {
                "start_time": 45.6295455,
                "end_time": 45.8295455,
                "pitch": 36,
                "velocity": 51,
                "duration": 0.2,
                "tempo": 120.0
            },
            {
                "start_time": 36.1840909,
                "end_time": 45.8318182,
                "pitch": 52,
                "velocity": 51,
                "duration": 9.6477273,
                "tempo": 120.0
            },
            {
                "start_time": 45.8318182,
                "end_time": 46.0318182,
                "pitch": 43,
                "velocity": 51,
                "duration": 0.2,
                "tempo": 120.0
            },
            {
                "start_time": 43.4136364,
                "end_time": 46.2318182,
                "pitch": 0,
                "velocity": 51,
                "duration": 2.8181818,
                "tempo": 120.0
            },
            {
                "start_time": 46.0318182,
                "end_time": 46.2318182,
                "pitch": 43,
                "velocity": 51,
                "duration": 0.2,
                "tempo": 120.0
            },
            {
                "start_time": 45.6295455,
                "end_time": 46.4318182,
                "pitch": 40,
                "velocity": 51,
                "duration": 0.8022727,
                "tempo": 120.0
            },
            {
                "start_time": 46.2318182,
                "end_time": 46.4318182,
                "pitch": 40,
                "velocity": 51,
                "duration": 0.2,
                "tempo": 120.0
            },
            {
                "start_time": 44.025,
                "end_time": 46.4318182,
                "pitch": 54,
                "velocity": 51,
                "duration": 2.4068182,
                "tempo": 120.0
            },
            {
                "start_time": 46.2318182,
                "end_time": 46.6318182,
                "pitch": 0,
                "velocity": 51,
                "duration": 0.4,
                "tempo": 120.0
            },
            {
                "start_time": 46.4318182,
                "end_time": 46.6318182,
                "pitch": 43,
                "velocity": 51,
                "duration": 0.2,
                "tempo": 120.0
            },
            {
                "start_time": 46.6318182,
                "end_time": 46.8318182,
                "pitch": 36,
                "velocity": 51,
                "duration": 0.2,
                "tempo": 120.0
            },
            {
                "start_time": 46.8318182,
                "end_time": 47.0318182,
                "pitch": 36,
                "velocity": 51,
                "duration": 0.2,
                "tempo": 120.0
            },
            {
                "start_time": 47.0318182,
                "end_time": 47.0818182,
                "pitch": 39,
                "velocity": 51,
                "duration": 0.05,
                "tempo": 120.0
            },
            {
                "start_time": 47.0818182,
                "end_time": 47.2318182,
                "pitch": 39,
                "velocity": 51,
                "duration": 0.15,
                "tempo": 120.0
            },
            {
                "start_time": 47.0318182,
                "end_time": 47.4318182,
                "pitch": 36,
                "velocity": 51,
                "duration": 0.4,
                "tempo": 120.0
            },
            {
                "start_time": 47.2318182,
                "end_time": 47.4318182,
                "pitch": 36,
                "velocity": 51,
                "duration": 0.2,
                "tempo": 120.0
            },
            {
                "start_time": 45.8318182,
                "end_time": 47.4340909,
                "pitch": 52,
                "velocity": 51,
                "duration": 1.6022727,
                "tempo": 120.0
            },
            {
                "start_time": 47.4318182,
                "end_time": 47.4340909,
                "pitch": 52,
                "velocity": 51,
                "duration": 0.0022727,
                "tempo": 120.0
            },
            {
                "start_time": 47.4340909,
                "end_time": 47.6340909,
                "pitch": 43,
                "velocity": 51,
                "duration": 0.2,
                "tempo": 120.0
            },
            {
                "start_time": 46.6318182,
                "end_time": 47.8363636,
                "pitch": 0,
                "velocity": 51,
                "duration": 1.2045455,
                "tempo": 120.0
            },
            {
                "start_time": 47.6340909,
                "end_time": 47.8363636,
                "pitch": 43,
                "velocity": 51,
                "duration": 0.2022727,
                "tempo": 120.0
            },
            {
                "start_time": 47.2318182,
                "end_time": 48.0363636,
                "pitch": 40,
                "velocity": 51,
                "duration": 0.8045455,
                "tempo": 120.0
            },
            {
                "start_time": 47.8363636,
                "end_time": 48.0363636,
                "pitch": 40,
                "velocity": 51,
                "duration": 0.2,
                "tempo": 120.0
            },
            {
                "start_time": 46.4318182,
                "end_time": 48.0363636,
                "pitch": 54,
                "velocity": 51,
                "duration": 1.6045455,
                "tempo": 120.0
            },
            {
                "start_time": 47.8363636,
                "end_time": 48.2363636,
                "pitch": 0,
                "velocity": 51,
                "duration": 0.4,
                "tempo": 120.0
            },
            {
                "start_time": 48.0363636,
                "end_time": 48.2363636,
                "pitch": 43,
                "velocity": 51,
                "duration": 0.2,
                "tempo": 120.0
            },
            {
                "start_time": 48.2363636,
                "end_time": 48.4363636,
                "pitch": 29,
                "velocity": 51,
                "duration": 0.2,
                "tempo": 120.0
            },
            {
                "start_time": 48.4363636,
                "end_time": 48.6363636,
                "pitch": 29,
                "velocity": 51,
                "duration": 0.2,
                "tempo": 120.0
            },
            {
                "start_time": 33.775,
                "end_time": 48.6363636,
                "pitch": 42,
                "velocity": 51,
                "duration": 14.8613636,
                "tempo": 120.0
            },
            {
                "start_time": 48.6363636,
                "end_time": 48.6863636,
                "pitch": 32,
                "velocity": 51,
                "duration": 0.05,
                "tempo": 120.0
            },
            {
                "start_time": 48.6863636,
                "end_time": 48.8363636,
                "pitch": 32,
                "velocity": 51,
                "duration": 0.15,
                "tempo": 120.0
            },
            {
                "start_time": 35.3909091,
                "end_time": 49.0386364,
                "pitch": 41,
                "velocity": 51,
                "duration": 13.6477273,
                "tempo": 120.0
            },
            {
                "start_time": 49.0386364,
                "end_time": 49.2386364,
                "pitch": 36,
                "velocity": 51,
                "duration": 0.2,
                "tempo": 120.0
            },
            {
                "start_time": 49.2386364,
                "end_time": 49.4386364,
                "pitch": 36,
                "velocity": 51,
                "duration": 0.2,
                "tempo": 120.0
            },
            {
                "start_time": 44.8272727,
                "end_time": 49.6386364,
                "pitch": 33,
                "velocity": 51,
                "duration": 4.8113636,
                "tempo": 120.0
            },
            {
                "start_time": 49.4386364,
                "end_time": 49.6386364,
                "pitch": 33,
                "velocity": 51,
                "duration": 0.2,
                "tempo": 120.0
            },
            {
                "start_time": 31.9704545,
                "end_time": 49.6409091,
                "pitch": 7,
                "velocity": 51,
                "duration": 17.6704545,
                "tempo": 120.0
            },
            {
                "start_time": 30.5659091,
                "end_time": 49.8409091,
                "pitch": 24,
                "velocity": 51,
                "duration": 19.275,
                "tempo": 120.0
            },
            {
                "start_time": 49.6409091,
                "end_time": 49.8409091,
                "pitch": 36,
                "velocity": 51,
                "duration": 0.2,
                "tempo": 120.0
            },
            {
                "start_time": 49.8409091,
                "end_time": 50.0409091,
                "pitch": 29,
                "velocity": 51,
                "duration": 0.2,
                "tempo": 120.0
            },
            {
                "start_time": 50.0409091,
                "end_time": 50.2409091,
                "pitch": 29,
                "velocity": 51,
                "duration": 0.2,
                "tempo": 120.0
            },
            {
                "start_time": 48.6363636,
                "end_time": 50.2431818,
                "pitch": 42,
                "velocity": 51,
                "duration": 1.6068182,
                "tempo": 120.0
            },
            {
                "start_time": 50.2431818,
                "end_time": 50.2909091,
                "pitch": 32,
                "velocity": 51,
                "duration": 0.0477273,
                "tempo": 120.0
            },
            {
                "start_time": 50.2931818,
                "end_time": 50.4431818,
                "pitch": 32,
                "velocity": 51,
                "duration": 0.15,
                "tempo": 120.0
            },
            {
                "start_time": 49.0386364,
                "end_time": 50.6431818,
                "pitch": 41,
                "velocity": 51,
                "duration": 1.6045455,
                "tempo": 120.0
            },
            {
                "start_time": 50.6431818,
                "end_time": 50.8477273,
                "pitch": 36,
                "velocity": 51,
                "duration": 0.2045455,
                "tempo": 120.0
            },
            {
                "start_time": 50.8477273,
                "end_time": 51.0545455,
                "pitch": 36,
                "velocity": 51,
                "duration": 0.2068182,
                "tempo": 120.0
            },
            {
                "start_time": 49.4386364,
                "end_time": 51.0545455,
                "pitch": 40,
                "velocity": 51,
                "duration": 1.6159091,
                "tempo": 120.0
            },
            {
                "start_time": 51.0545455,
                "end_time": 51.2545455,
                "pitch": 33,
                "velocity": 51,
                "duration": 0.2,
                "tempo": 120.0
            },
            {
                "start_time": 49.6409091,
                "end_time": 51.2568182,
                "pitch": 7,
                "velocity": 51,
                "duration": 1.6159091,
                "tempo": 120.0
            },
            {
                "start_time": 51.2568182,
                "end_time": 51.4568182,
                "pitch": 36,
                "velocity": 51,
                "duration": 0.2,
                "tempo": 120.0
            },
            {
                "start_time": 51.0545455,
                "end_time": 51.4568182,
                "pitch": 40,
                "velocity": 51,
                "duration": 0.4022727,
                "tempo": 120.0
            },
            {
                "start_time": 51.4568182,
                "end_time": 51.6568182,
                "pitch": 34,
                "velocity": 51,
                "duration": 0.2,
                "tempo": 120.0
            },
            {
                "start_time": 51.6568182,
                "end_time": 51.8568182,
                "pitch": 34,
                "velocity": 51,
                "duration": 0.2,
                "tempo": 120.0
            },
            {
                "start_time": 41.8090909,
                "end_time": 51.8590909,
                "pitch": 14,
                "velocity": 51,
                "duration": 10.05,
                "tempo": 120.0
            },
            {
                "start_time": 51.8568182,
                "end_time": 51.8590909,
                "pitch": 14,
                "velocity": 51,
                "duration": 0.0022727,
                "tempo": 120.0
            },
            {
                "start_time": 51.8590909,
                "end_time": 51.9068182,
                "pitch": 37,
                "velocity": 51,
                "duration": 0.0477273,
                "tempo": 120.0
            },
            {
                "start_time": 51.9090909,
                "end_time": 52.0568182,
                "pitch": 37,
                "velocity": 51,
                "duration": 0.1477273,
                "tempo": 120.0
            },
            {
                "start_time": 50.6431818,
                "end_time": 52.0590909,
                "pitch": 41,
                "velocity": 51,
                "duration": 1.4159091,
                "tempo": 120.0
            },
            {
                "start_time": 52.0590909,
                "end_time": 52.2590909,
                "pitch": 34,
                "velocity": 51,
                "duration": 0.2,
                "tempo": 120.0
            },
            {
                "start_time": 52.0590909,
                "end_time": 52.4590909,
                "pitch": 41,
                "velocity": 51,
                "duration": 0.4,
                "tempo": 120.0
            },
            {
                "start_time": 52.2590909,
                "end_time": 52.4590909,
                "pitch": 41,
                "velocity": 51,
                "duration": 0.2,
                "tempo": 120.0
            },
            {
                "start_time": 52.4590909,
                "end_time": 52.6590909,
                "pitch": 41,
                "velocity": 51,
                "duration": 0.2,
                "tempo": 120.0
            },
            {
                "start_time": 52.6590909,
                "end_time": 52.8590909,
                "pitch": 38,
                "velocity": 51,
                "duration": 0.2,
                "tempo": 120.0
            },
            {
                "start_time": 52.6590909,
                "end_time": 53.0590909,
                "pitch": 41,
                "velocity": 51,
                "duration": 0.4,
                "tempo": 120.0
            },
            {
                "start_time": 52.8590909,
                "end_time": 53.0590909,
                "pitch": 41,
                "velocity": 51,
                "duration": 0.2,
                "tempo": 120.0
            },
            {
                "start_time": 50.2431818,
                "end_time": 53.0590909,
                "pitch": 42,
                "velocity": 51,
                "duration": 2.8159091,
                "tempo": 120.0
            },
            {
                "start_time": 53.0590909,
                "end_time": 53.2613636,
                "pitch": 34,
                "velocity": 51,
                "duration": 0.2022727,
                "tempo": 120.0
            },
            {
                "start_time": 53.2613636,
                "end_time": 53.4613636,
                "pitch": 34,
                "velocity": 51,
                "duration": 0.2,
                "tempo": 120.0
            },
            {
                "start_time": 52.2590909,
                "end_time": 53.4636364,
                "pitch": 14,
                "velocity": 51,
                "duration": 1.2045455,
                "tempo": 120.0
            },
            {
                "start_time": 53.4636364,
                "end_time": 53.5136364,
                "pitch": 37,
                "velocity": 51,
                "duration": 0.05,
                "tempo": 120.0
            },
            {
                "start_time": 53.5136364,
                "end_time": 53.6636364,
                "pitch": 37,
                "velocity": 51,
                "duration": 0.15,
                "tempo": 120.0
            },
            {
                "start_time": 53.4636364,
                "end_time": 53.8636364,
                "pitch": 14,
                "velocity": 51,
                "duration": 0.4,
                "tempo": 120.0
            },
            {
                "start_time": 53.6636364,
                "end_time": 53.8636364,
                "pitch": 34,
                "velocity": 51,
                "duration": 0.2,
                "tempo": 120.0
            },
            {
                "start_time": 53.6636364,
                "end_time": 54.0636364,
                "pitch": 41,
                "velocity": 51,
                "duration": 0.4,
                "tempo": 120.0
            },
            {
                "start_time": 53.8636364,
                "end_time": 54.0636364,
                "pitch": 41,
                "velocity": 51,
                "duration": 0.2,
                "tempo": 120.0
            },
            {
                "start_time": 54.0636364,
                "end_time": 54.2636364,
                "pitch": 41,
                "velocity": 51,
                "duration": 0.2,
                "tempo": 120.0
            },
            {
                "start_time": 52.8590909,
                "end_time": 54.4636364,
                "pitch": 38,
                "velocity": 51,
                "duration": 1.6045455,
                "tempo": 120.0
            },
            {
                "start_time": 54.2636364,
                "end_time": 54.4636364,
                "pitch": 38,
                "velocity": 51,
                "duration": 0.2,
                "tempo": 120.0
            },
            {
                "start_time": 54.2636364,
                "end_time": 54.6636364,
                "pitch": 41,
                "velocity": 51,
                "duration": 0.4,
                "tempo": 120.0
            },
            {
                "start_time": 54.4636364,
                "end_time": 54.6636364,
                "pitch": 41,
                "velocity": 51,
                "duration": 0.2,
                "tempo": 120.0
            },
            {
                "start_time": 54.6636364,
                "end_time": 54.8636364,
                "pitch": 36,
                "velocity": 51,
                "duration": 0.2,
                "tempo": 120.0
            },
            {
                "start_time": 54.8636364,
                "end_time": 55.0636364,
                "pitch": 36,
                "velocity": 51,
                "duration": 0.2,
                "tempo": 120.0
            },
            {
                "start_time": 55.0659091,
                "end_time": 55.1159091,
                "pitch": 39,
                "velocity": 51,
                "duration": 0.05,
                "tempo": 120.0
            },
            {
                "start_time": 55.1159091,
                "end_time": 55.2659091,
                "pitch": 39,
                "velocity": 51,
                "duration": 0.15,
                "tempo": 120.0
            },
            {
                "start_time": 51.4568182,
                "end_time": 55.2659091,
                "pitch": 40,
                "velocity": 51,
                "duration": 3.8090909,
                "tempo": 120.0
            },
            {
                "start_time": 55.0659091,
                "end_time": 55.4681818,
                "pitch": 36,
                "velocity": 51,
                "duration": 0.4022727,
                "tempo": 120.0
            },
            {
                "start_time": 55.2659091,
                "end_time": 55.4681818,
                "pitch": 36,
                "velocity": 51,
                "duration": 0.2022727,
                "tempo": 120.0
            },
            {
                "start_time": 55.4681818,
                "end_time": 55.6681818,
                "pitch": 43,
                "velocity": 51,
                "duration": 0.2,
                "tempo": 120.0
            },
            {
                "start_time": 48.2363636,
                "end_time": 55.8681818,
                "pitch": 0,
                "velocity": 51,
                "duration": 7.6318182,
                "tempo": 120.0
            },
            {
                "start_time": 55.6681818,
                "end_time": 55.8681818,
                "pitch": 43,
                "velocity": 51,
                "duration": 0.2,
                "tempo": 120.0
            },
            {
                "start_time": 55.2659091,
                "end_time": 56.0681818,
                "pitch": 40,
                "velocity": 51,
                "duration": 0.8022727,
                "tempo": 120.0
            },
            {
                "start_time": 55.8681818,
                "end_time": 56.0681818,
                "pitch": 40,
                "velocity": 51,
                "duration": 0.2,
                "tempo": 120.0
            },
            {
                "start_time": 48.0363636,
                "end_time": 56.0681818,
                "pitch": 54,
                "velocity": 51,
                "duration": 8.0318182,
                "tempo": 120.0
            },
            {
                "start_time": 56.0681818,
                "end_time": 56.2681818,
                "pitch": 43,
                "velocity": 51,
                "duration": 0.2,
                "tempo": 120.0
            },
            {
                "start_time": 55.8681818,
                "end_time": 56.2704545,
                "pitch": 0,
                "velocity": 51,
                "duration": 0.4022727,
                "tempo": 120.0
            },
            {
                "start_time": 56.2681818,
                "end_time": 56.2704545,
                "pitch": 0,
                "velocity": 51,
                "duration": 0.0022727,
                "tempo": 120.0
            },
            {
                "start_time": 56.2704545,
                "end_time": 56.4681818,
                "pitch": 36,
                "velocity": 51,
                "duration": 0.1977273,
                "tempo": 120.0
            },
            {
                "start_time": 56.4704545,
                "end_time": 56.6704545,
                "pitch": 36,
                "velocity": 51,
                "duration": 0.2,
                "tempo": 120.0
            },
            {
                "start_time": 56.6704545,
                "end_time": 56.8704545,
                "pitch": 40,
                "velocity": 51,
                "duration": 0.2,
                "tempo": 120.0
            },
            {
                "start_time": 56.8704545,
                "end_time": 57.0704545,
                "pitch": 40,
                "velocity": 51,
                "duration": 0.2,
                "tempo": 120.0
            },
            {
                "start_time": 57.0704545,
                "end_time": 57.275,
                "pitch": 40,
                "velocity": 51,
                "duration": 0.2045455,
                "tempo": 120.0
            },
            {
                "start_time": 54.6636364,
                "end_time": 57.4818182,
                "pitch": 41,
                "velocity": 51,
                "duration": 2.8181818,
                "tempo": 120.0
            },
            {
                "start_time": 57.275,
                "end_time": 57.4818182,
                "pitch": 41,
                "velocity": 51,
                "duration": 0.2068182,
                "tempo": 120.0
            },
            {
                "start_time": 57.4818182,
                "end_time": 57.6818182,
                "pitch": 41,
                "velocity": 51,
                "duration": 0.2,
                "tempo": 120.0
            },
            {
                "start_time": 56.0681818,
                "end_time": 57.6818182,
                "pitch": 54,
                "velocity": 51,
                "duration": 1.6136364,
                "tempo": 120.0
            },
            {
                "start_time": 57.6818182,
                "end_time": 57.8818182,
                "pitch": 43,
                "velocity": 51,
                "duration": 0.2,
                "tempo": 120.0
            },
            {
                "start_time": 56.6704545,
                "end_time": 58.0818182,
                "pitch": 36,
                "velocity": 51,
                "duration": 1.4113636,
                "tempo": 120.0
            },
            {
                "start_time": 57.8818182,
                "end_time": 58.0818182,
                "pitch": 36,
                "velocity": 51,
                "duration": 0.2,
                "tempo": 120.0
            },
            {
                "start_time": 58.0818182,
                "end_time": 58.2818182,
                "pitch": 36,
                "velocity": 51,
                "duration": 0.2,
                "tempo": 120.0
            },
            {
                "start_time": 58.2840909,
                "end_time": 58.3340909,
                "pitch": 39,
                "velocity": 51,
                "duration": 0.05,
                "tempo": 120.0
            },
            {
                "start_time": 58.3340909,
                "end_time": 58.4840909,
                "pitch": 39,
                "velocity": 51,
                "duration": 0.15,
                "tempo": 120.0
            },
            {
                "start_time": 58.2840909,
                "end_time": 58.6863636,
                "pitch": 36,
                "velocity": 51,
                "duration": 0.4022727,
                "tempo": 120.0
            },
            {
                "start_time": 58.4840909,
                "end_time": 58.6863636,
                "pitch": 36,
                "velocity": 51,
                "duration": 0.2022727,
                "tempo": 120.0
            },
            {
                "start_time": 55.4681818,
                "end_time": 58.6863636,
                "pitch": 52,
                "velocity": 51,
                "duration": 3.2181818,
                "tempo": 120.0
            },
            {
                "start_time": 58.6863636,
                "end_time": 58.8863636,
                "pitch": 43,
                "velocity": 51,
                "duration": 0.2,
                "tempo": 120.0
            },
            {
                "start_time": 57.8818182,
                "end_time": 59.0863636,
                "pitch": 0,
                "velocity": 51,
                "duration": 1.2045455,
                "tempo": 120.0
            },
            {
                "start_time": 58.8863636,
                "end_time": 59.0863636,
                "pitch": 43,
                "velocity": 51,
                "duration": 0.2,
                "tempo": 120.0
            },
            {
                "start_time": 58.4840909,
                "end_time": 59.2863636,
                "pitch": 40,
                "velocity": 51,
                "duration": 0.8022727,
                "tempo": 120.0
            },
            {
                "start_time": 59.0863636,
                "end_time": 59.2863636,
                "pitch": 40,
                "velocity": 51,
                "duration": 0.2,
                "tempo": 120.0
            },
            {
                "start_time": 57.6818182,
                "end_time": 59.2863636,
                "pitch": 54,
                "velocity": 51,
                "duration": 1.6045455,
                "tempo": 120.0
            },
            {
                "start_time": 59.0863636,
                "end_time": 59.4863636,
                "pitch": 0,
                "velocity": 51,
                "duration": 0.4,
                "tempo": 120.0
            },
            {
                "start_time": 59.2863636,
                "end_time": 59.4863636,
                "pitch": 43,
                "velocity": 51,
                "duration": 0.2,
                "tempo": 120.0
            },
            {
                "start_time": 59.4863636,
                "end_time": 59.6863636,
                "pitch": 36,
                "velocity": 51,
                "duration": 0.2,
                "tempo": 120.0
            },
            {
                "start_time": 59.6886364,
                "end_time": 59.8886364,
                "pitch": 36,
                "velocity": 51,
                "duration": 0.2,
                "tempo": 120.0
            },
            {
                "start_time": 59.8886364,
                "end_time": 59.9386364,
                "pitch": 39,
                "velocity": 51,
                "duration": 0.05,
                "tempo": 120.0
            },
            {
                "start_time": 59.9386364,
                "end_time": 60.0886364,
                "pitch": 39,
                "velocity": 51,
                "duration": 0.15,
                "tempo": 120.0
            },
            {
                "start_time": 59.8886364,
                "end_time": 60.2886364,
                "pitch": 36,
                "velocity": 51,
                "duration": 0.4,
                "tempo": 120.0
            },
            {
                "start_time": 60.0886364,
                "end_time": 60.2886364,
                "pitch": 36,
                "velocity": 51,
                "duration": 0.2,
                "tempo": 120.0
            },
            {
                "start_time": 58.6863636,
                "end_time": 60.2886364,
                "pitch": 52,
                "velocity": 51,
                "duration": 1.6022727,
                "tempo": 120.0
            },
            {
                "start_time": 60.2886364,
                "end_time": 60.4886364,
                "pitch": 43,
                "velocity": 51,
                "duration": 0.2,
                "tempo": 120.0
            },
            {
                "start_time": 59.4863636,
                "end_time": 60.6909091,
                "pitch": 0,
                "velocity": 51,
                "duration": 1.2045455,
                "tempo": 120.0
            },
            {
                "start_time": 60.4909091,
                "end_time": 60.6909091,
                "pitch": 43,
                "velocity": 51,
                "duration": 0.2,
                "tempo": 120.0
            },
            {
                "start_time": 60.0886364,
                "end_time": 60.8909091,
                "pitch": 40,
                "velocity": 51,
                "duration": 0.8022727,
                "tempo": 120.0
            },
            {
                "start_time": 60.6909091,
                "end_time": 60.8909091,
                "pitch": 40,
                "velocity": 51,
                "duration": 0.2,
                "tempo": 120.0
            },
            {
                "start_time": 59.2863636,
                "end_time": 60.8909091,
                "pitch": 54,
                "velocity": 51,
                "duration": 1.6045455,
                "tempo": 120.0
            },
            {
                "start_time": 60.8909091,
                "end_time": 61.0909091,
                "pitch": 43,
                "velocity": 51,
                "duration": 0.2,
                "tempo": 120.0
            },
            {
                "start_time": 60.6909091,
                "end_time": 61.0931818,
                "pitch": 0,
                "velocity": 51,
                "duration": 0.4022727,
                "tempo": 120.0
            },
            {
                "start_time": 61.0931818,
                "end_time": 61.2931818,
                "pitch": 29,
                "velocity": 51,
                "duration": 0.2,
                "tempo": 120.0
            },
            {
                "start_time": 61.2931818,
                "end_time": 61.4931818,
                "pitch": 29,
                "velocity": 51,
                "duration": 0.2,
                "tempo": 120.0
            },
            {
                "start_time": 53.0590909,
                "end_time": 61.4931818,
                "pitch": 42,
                "velocity": 51,
                "duration": 8.4340909,
                "tempo": 120.0
            },
            {
                "start_time": 61.4931818,
                "end_time": 61.5431818,
                "pitch": 32,
                "velocity": 51,
                "duration": 0.05,
                "tempo": 120.0
            },
            {
                "start_time": 61.5431818,
                "end_time": 61.6931818,
                "pitch": 32,
                "velocity": 51,
                "duration": 0.15,
                "tempo": 120.0
            },
            {
                "start_time": 61.8931818,
                "end_time": 62.0931818,
                "pitch": 36,
                "velocity": 51,
                "duration": 0.2,
                "tempo": 120.0
            },
            {
                "start_time": 62.0931818,
                "end_time": 62.2931818,
                "pitch": 36,
                "velocity": 51,
                "duration": 0.2,
                "tempo": 120.0
            },
            {
                "start_time": 51.2568182,
                "end_time": 62.4954545,
                "pitch": 7,
                "velocity": 51,
                "duration": 11.2386364,
                "tempo": 120.0
            },
            {
                "start_time": 62.2931818,
                "end_time": 62.4954545,
                "pitch": 33,
                "velocity": 51,
                "duration": 0.2022727,
                "tempo": 120.0
            },
            {
                "start_time": 49.8409091,
                "end_time": 62.6977273,
                "pitch": 24,
                "velocity": 51,
                "duration": 12.8568182,
                "tempo": 120.0
            },
            {
                "start_time": 62.4954545,
                "end_time": 62.6977273,
                "pitch": 36,
                "velocity": 51,
                "duration": 0.2022727,
                "tempo": 120.0
            },
            {
                "start_time": 62.6977273,
                "end_time": 62.8977273,
                "pitch": 29,
                "velocity": 51,
                "duration": 0.2,
                "tempo": 120.0
            },
            {
                "start_time": 62.8977273,
                "end_time": 63.0977273,
                "pitch": 29,
                "velocity": 51,
                "duration": 0.2,
                "tempo": 120.0
            },
            {
                "start_time": 61.4931818,
                "end_time": 63.0977273,
                "pitch": 42,
                "velocity": 51,
                "duration": 1.6045455,
                "tempo": 120.0
            },
            {
                "start_time": 63.0977273,
                "end_time": 63.1477273,
                "pitch": 32,
                "velocity": 51,
                "duration": 0.05,
                "tempo": 120.0
            },
            {
                "start_time": 63.1477273,
                "end_time": 63.2977273,
                "pitch": 32,
                "velocity": 51,
                "duration": 0.15,
                "tempo": 120.0
            },
            {
                "start_time": 61.8931818,
                "end_time": 63.4977273,
                "pitch": 41,
                "velocity": 51,
                "duration": 1.6045455,
                "tempo": 120.0
            },
            {
                "start_time": 63.4977273,
                "end_time": 63.6977273,
                "pitch": 36,
                "velocity": 51,
                "duration": 0.2,
                "tempo": 120.0
            },
            {
                "start_time": 63.6977273,
                "end_time": 63.8977273,
                "pitch": 36,
                "velocity": 51,
                "duration": 0.2,
                "tempo": 120.0
            },
            {
                "start_time": 62.2931818,
                "end_time": 63.8977273,
                "pitch": 40,
                "velocity": 51,
                "duration": 1.6045455,
                "tempo": 120.0
            },
            {
                "start_time": 63.8977273,
                "end_time": 64.0977273,
                "pitch": 33,
                "velocity": 51,
                "duration": 0.2,
                "tempo": 120.0
            },
            {
                "start_time": 62.4954545,
                "end_time": 64.1,
                "pitch": 7,
                "velocity": 51,
                "duration": 1.6045455,
                "tempo": 120.0
            },
            {
                "start_time": 64.1,
                "end_time": 64.3,
                "pitch": 36,
                "velocity": 51,
                "duration": 0.2,
                "tempo": 120.0
            },
            {
                "start_time": 63.8977273,
                "end_time": 64.3,
                "pitch": 40,
                "velocity": 51,
                "duration": 0.4022727,
                "tempo": 120.0
            },
            {
                "start_time": 64.3,
                "end_time": 64.5,
                "pitch": 34,
                "velocity": 51,
                "duration": 0.2,
                "tempo": 120.0
            },
            {
                "start_time": 53.8636364,
                "end_time": 64.7022727,
                "pitch": 14,
                "velocity": 51,
                "duration": 10.8386364,
                "tempo": 120.0
            },
            {
                "start_time": 64.5,
                "end_time": 64.7022727,
                "pitch": 34,
                "velocity": 51,
                "duration": 0.2022727,
                "tempo": 120.0
            },
            {
                "start_time": 64.7022727,
                "end_time": 64.7522727,
                "pitch": 37,
                "velocity": 51,
                "duration": 0.05,
                "tempo": 120.0
            },
            {
                "start_time": 64.7522727,
                "end_time": 64.9022727,
                "pitch": 37,
                "velocity": 51,
                "duration": 0.15,
                "tempo": 120.0
            },
            {
                "start_time": 63.4977273,
                "end_time": 64.9022727,
                "pitch": 41,
                "velocity": 51,
                "duration": 1.4045455,
                "tempo": 120.0
            },
            {
                "start_time": 64.7022727,
                "end_time": 65.1022727,
                "pitch": 14,
                "velocity": 51,
                "duration": 0.4,
                "tempo": 120.0
            },
            {
                "start_time": 64.9022727,
                "end_time": 65.1022727,
                "pitch": 34,
                "velocity": 51,
                "duration": 0.2,
                "tempo": 120.0
            },
            {
                "start_time": 64.9022727,
                "end_time": 65.3090909,
                "pitch": 41,
                "velocity": 51,
                "duration": 0.4068182,
                "tempo": 120.0
            },
            {
                "start_time": 65.1022727,
                "end_time": 65.3090909,
                "pitch": 41,
                "velocity": 51,
                "duration": 0.2068182,
                "tempo": 120.0
            },
            {
                "start_time": 65.3090909,
                "end_time": 65.5136364,
                "pitch": 41,
                "velocity": 51,
                "duration": 0.2045455,
                "tempo": 120.0
            },
            {
                "start_time": 54.4636364,
                "end_time": 65.7136364,
                "pitch": 38,
                "velocity": 51,
                "duration": 11.25,
                "tempo": 120.0
            },
            {
                "start_time": 65.5136364,
                "end_time": 65.7136364,
                "pitch": 38,
                "velocity": 51,
                "duration": 0.2,
                "tempo": 120.0
            },
            {
                "start_time": 65.7136364,
                "end_time": 65.7159091,
                "pitch": 38,
                "velocity": 51,
                "duration": 0.0022727,
                "tempo": 120.0
            },
            {
                "start_time": 65.5136364,
                "end_time": 65.9136364,
                "pitch": 41,
                "velocity": 51,
                "duration": 0.4,
                "tempo": 120.0
            },
            {
                "start_time": 65.7159091,
                "end_time": 65.9136364,
                "pitch": 41,
                "velocity": 51,
                "duration": 0.1977273,
                "tempo": 120.0
            },
            {
                "start_time": 63.0977273,
                "end_time": 65.9159091,
                "pitch": 42,
                "velocity": 51,
                "duration": 2.8181818,
                "tempo": 120.0
            },
            {
                "start_time": 65.9159091,
                "end_time": 66.1159091,
                "pitch": 34,
                "velocity": 51,
                "duration": 0.2,
                "tempo": 120.0
            },
            {
                "start_time": 65.1022727,
                "end_time": 66.3181818,
                "pitch": 14,
                "velocity": 51,
                "duration": 1.2159091,
                "tempo": 120.0
            },
            {
                "start_time": 66.1159091,
                "end_time": 66.3181818,
                "pitch": 34,
                "velocity": 51,
                "duration": 0.2022727,
                "tempo": 120.0
            },
            {
                "start_time": 66.3181818,
                "end_time": 66.3681818,
                "pitch": 37,
                "velocity": 51,
                "duration": 0.05,
                "tempo": 120.0
            },
            {
                "start_time": 66.3681818,
                "end_time": 66.5181818,
                "pitch": 37,
                "velocity": 51,
                "duration": 0.15,
                "tempo": 120.0
            },
            {
                "start_time": 66.3181818,
                "end_time": 66.7181818,
                "pitch": 14,
                "velocity": 51,
                "duration": 0.4,
                "tempo": 120.0
            },
            {
                "start_time": 66.5181818,
                "end_time": 66.7181818,
                "pitch": 34,
                "velocity": 51,
                "duration": 0.2,
                "tempo": 120.0
            },
            {
                "start_time": 66.5181818,
                "end_time": 66.9204545,
                "pitch": 41,
                "velocity": 51,
                "duration": 0.4022727,
                "tempo": 120.0
            },
            {
                "start_time": 66.7181818,
                "end_time": 66.9204545,
                "pitch": 41,
                "velocity": 51,
                "duration": 0.2022727,
                "tempo": 120.0
            },
            {
                "start_time": 66.9204545,
                "end_time": 67.1227273,
                "pitch": 41,
                "velocity": 51,
                "duration": 0.2022727,
                "tempo": 120.0
            },
            {
                "start_time": 67.1227273,
                "end_time": 67.3227273,
                "pitch": 38,
                "velocity": 51,
                "duration": 0.2,
                "tempo": 120.0
            },
            {
                "start_time": 67.1227273,
                "end_time": 67.525,
                "pitch": 41,
                "velocity": 51,
                "duration": 0.4022727,
                "tempo": 120.0
            },
            {
                "start_time": 67.3227273,
                "end_time": 67.525,
                "pitch": 41,
                "velocity": 51,
                "duration": 0.2022727,
                "tempo": 120.0
            },
            {
                "start_time": 67.525,
                "end_time": 67.725,
                "pitch": 36,
                "velocity": 51,
                "duration": 0.2,
                "tempo": 120.0
            },
            {
                "start_time": 67.725,
                "end_time": 67.925,
                "pitch": 36,
                "velocity": 51,
                "duration": 0.2,
                "tempo": 120.0
            },
            {
                "start_time": 67.925,
                "end_time": 67.975,
                "pitch": 39,
                "velocity": 51,
                "duration": 0.05,
                "tempo": 120.0
            },
            {
                "start_time": 67.9772727,
                "end_time": 68.1272727,
                "pitch": 39,
                "velocity": 51,
                "duration": 0.15,
                "tempo": 120.0
            },
            {
                "start_time": 64.3,
                "end_time": 68.1272727,
                "pitch": 40,
                "velocity": 51,
                "duration": 3.8272727,
                "tempo": 120.0
            },
            {
                "start_time": 67.925,
                "end_time": 68.3295455,
                "pitch": 36,
                "velocity": 51,
                "duration": 0.4045455,
                "tempo": 120.0
            },
            {
                "start_time": 68.1272727,
                "end_time": 68.3295455,
                "pitch": 36,
                "velocity": 51,
                "duration": 0.2022727,
                "tempo": 120.0
            },
            {
                "start_time": 60.2886364,
                "end_time": 68.3295455,
                "pitch": 52,
                "velocity": 51,
                "duration": 8.0409091,
                "tempo": 120.0
            },
            {
                "start_time": 68.3295455,
                "end_time": 68.5295455,
                "pitch": 43,
                "velocity": 51,
                "duration": 0.2,
                "tempo": 120.0
            },
            {
                "start_time": 61.0931818,
                "end_time": 68.7295455,
                "pitch": 0,
                "velocity": 51,
                "duration": 7.6363636,
                "tempo": 120.0
            },
            {
                "start_time": 68.5295455,
                "end_time": 68.7295455,
                "pitch": 43,
                "velocity": 51,
                "duration": 0.2,
                "tempo": 120.0
            },
            {
                "start_time": 68.1272727,
                "end_time": 68.9318182,
                "pitch": 40,
                "velocity": 51,
                "duration": 0.8045455,
                "tempo": 120.0
            },
            {
                "start_time": 68.7295455,
                "end_time": 68.9318182,
                "pitch": 40,
                "velocity": 51,
                "duration": 0.2022727,
                "tempo": 120.0
            },
            {
                "start_time": 60.8909091,
                "end_time": 68.9318182,
                "pitch": 54,
                "velocity": 51,
                "duration": 8.0409091,
                "tempo": 120.0
            },
            {
                "start_time": 68.7295455,
                "end_time": 69.1318182,
                "pitch": 0,
                "velocity": 51,
                "duration": 0.4022727,
                "tempo": 120.0
            },
            {
                "start_time": 68.9318182,
                "end_time": 69.1318182,
                "pitch": 43,
                "velocity": 51,
                "duration": 0.2,
                "tempo": 120.0
            },
            {
                "start_time": 69.1318182,
                "end_time": 69.3340909,
                "pitch": 36,
                "velocity": 51,
                "duration": 0.2022727,
                "tempo": 120.0
            },
            {
                "start_time": 69.3340909,
                "end_time": 69.5363636,
                "pitch": 36,
                "velocity": 51,
                "duration": 0.2022727,
                "tempo": 120.0
            },
            {
                "start_time": 69.5363636,
                "end_time": 69.7363636,
                "pitch": 40,
                "velocity": 51,
                "duration": 0.2,
                "tempo": 120.0
            },
            {
                "start_time": 69.5363636,
                "end_time": 69.9363636,
                "pitch": 36,
                "velocity": 51,
                "duration": 0.4,
                "tempo": 120.0
            },
            {
                "start_time": 69.7363636,
                "end_time": 69.9363636,
                "pitch": 36,
                "velocity": 51,
                "duration": 0.2,
                "tempo": 120.0
            },
            {
                "start_time": 69.7363636,
                "end_time": 70.1386364,
                "pitch": 40,
                "velocity": 51,
                "duration": 0.4022727,
                "tempo": 120.0
            },
            {
                "start_time": 69.9363636,
                "end_time": 70.1386364,
                "pitch": 40,
                "velocity": 51,
                "duration": 0.2022727,
                "tempo": 120.0
            },
            {
                "start_time": 67.3227273,
                "end_time": 70.3386364,
                "pitch": 38,
                "velocity": 51,
                "duration": 3.0159091,
                "tempo": 120.0
            },
            {
                "start_time": 70.1386364,
                "end_time": 70.3386364,
                "pitch": 38,
                "velocity": 51,
                "duration": 0.2,
                "tempo": 120.0
            },
            {
                "start_time": 69.9363636,
                "end_time": 70.5409091,
                "pitch": 36,
                "velocity": 51,
                "duration": 0.6045455,
                "tempo": 120.0
            },
            {
                "start_time": 70.3409091,
                "end_time": 70.5409091,
                "pitch": 36,
                "velocity": 51,
                "duration": 0.2,
                "tempo": 120.0
            },
            {
                "start_time": 70.1386364,
                "end_time": 70.5409091,
                "pitch": 40,
                "velocity": 51,
                "duration": 0.4022727,
                "tempo": 120.0
            },
            {
                "start_time": 45.0272727,
                "end_time": 70.7409091,
                "pitch": 19,
                "velocity": 51,
                "duration": 25.7136364,
                "tempo": 120.0
            },
            {
                "start_time": 70.5409091,
                "end_time": 70.7409091,
                "pitch": 35,
                "velocity": 51,
                "duration": 0.2,
                "tempo": 120.0
            },
            {
                "start_time": 70.3409091,
                "end_time": 70.9409091,
                "pitch": 38,
                "velocity": 51,
                "duration": 0.6,
                "tempo": 120.0
            },
            {
                "start_time": 70.7409091,
                "end_time": 70.9409091,
                "pitch": 38,
                "velocity": 51,
                "duration": 0.2,
                "tempo": 120.0
            },
            {
                "start_time": 71.3454545,
                "end_time": 71.5454545,
                "pitch": 38,
                "velocity": 51,
                "duration": 0.2,
                "tempo": 120.0
            },
            {
                "start_time": 70.5409091,
                "end_time": 71.7477273,
                "pitch": 40,
                "velocity": 51,
                "duration": 1.2068182,
                "tempo": 120.0
            },
            {
                "start_time": 71.5477273,
                "end_time": 71.7477273,
                "pitch": 40,
                "velocity": 51,
                "duration": 0.2,
                "tempo": 120.0
            },
            {
                "start_time": 72.1522727,
                "end_time": 72.3590909,
                "pitch": 40,
                "velocity": 51,
                "duration": 0.2068182,
                "tempo": 120.0
            },
            {
                "start_time": 72.3590909,
                "end_time": 72.5590909,
                "pitch": 40,
                "velocity": 51,
                "duration": 0.2,
                "tempo": 120.0
            },
            {
                "start_time": 67.525,
                "end_time": 72.5613636,
                "pitch": 41,
                "velocity": 51,
                "duration": 5.0363636,
                "tempo": 120.0
            },
            {
                "start_time": 72.5613636,
                "end_time": 72.7613636,
                "pitch": 36,
                "velocity": 51,
                "duration": 0.2,
                "tempo": 120.0
            },
            {
                "start_time": 72.7613636,
                "end_time": 72.9681818,
                "pitch": 33,
                "velocity": 51,
                "duration": 0.2068182,
                "tempo": 120.0
            },
            {
                "start_time": 72.9681818,
                "end_time": 73.1727273,
                "pitch": 45,
                "velocity": 51,
                "duration": 0.2045455,
                "tempo": 120.0
            },
            {
                "start_time": 69.1318182,
                "end_time": 73.9568182,
                "pitch": 0,
                "velocity": 51,
                "duration": 4.825,
                "tempo": 120.0
            },
            {
                "start_time": 71.5477273,
                "end_time": 74.1613636,
                "pitch": 38,
                "velocity": 51,
                "duration": 2.6136364,
                "tempo": 120.0
            },
            {
                "start_time": 73.9568182,
                "end_time": 74.1613636,
                "pitch": 38,
                "velocity": 51,
                "duration": 0.2045455,
                "tempo": 120.0
            },
            {
                "start_time": 74.5704545,
                "end_time": 74.7704545,
                "pitch": 38,
                "velocity": 51,
                "duration": 0.2,
                "tempo": 120.0
            },
            {
                "start_time": 72.7613636,
                "end_time": 74.9727273,
                "pitch": 40,
                "velocity": 51,
                "duration": 2.2113636,
                "tempo": 120.0
            },
            {
                "start_time": 74.7704545,
                "end_time": 74.9727273,
                "pitch": 40,
                "velocity": 51,
                "duration": 0.2022727,
                "tempo": 120.0
            },
            {
                "start_time": 75.375,
                "end_time": 75.575,
                "pitch": 40,
                "velocity": 51,
                "duration": 0.2,
                "tempo": 120.0
            },
            {
                "start_time": 75.575,
                "end_time": 75.7795455,
                "pitch": 40,
                "velocity": 51,
                "duration": 0.2045455,
                "tempo": 120.0
            },
            {
                "start_time": 72.5613636,
                "end_time": 75.7795455,
                "pitch": 41,
                "velocity": 51,
                "duration": 3.2181818,
                "tempo": 120.0
            },
            {
                "start_time": 75.7795455,
                "end_time": 75.9863636,
                "pitch": 36,
                "velocity": 51,
                "duration": 0.2068182,
                "tempo": 120.0
            },
            {
                "start_time": 75.9863636,
                "end_time": 76.1818182,
                "pitch": 33,
                "velocity": 51,
                "duration": 0.1954545,
                "tempo": 120.0
            },
            {
                "start_time": 76.1818182,
                "end_time": 76.3795455,
                "pitch": 45,
                "velocity": 51,
                "duration": 0.1977273,
                "tempo": 120.0
            },
            {
                "start_time": 73.9568182,
                "end_time": 77.1863636,
                "pitch": 0,
                "velocity": 51,
                "duration": 3.2295455,
                "tempo": 120.0
            },
            {
                "start_time": 74.7704545,
                "end_time": 77.3863636,
                "pitch": 38,
                "velocity": 51,
                "duration": 2.6159091,
                "tempo": 120.0
            },
            {
                "start_time": 77.1863636,
                "end_time": 77.3863636,
                "pitch": 38,
                "velocity": 51,
                "duration": 0.2,
                "tempo": 120.0
            },
            {
                "start_time": 77.7909091,
                "end_time": 77.9977273,
                "pitch": 38,
                "velocity": 51,
                "duration": 0.2068182,
                "tempo": 120.0
            },
            {
                "start_time": 75.9863636,
                "end_time": 78.1931818,
                "pitch": 40,
                "velocity": 51,
                "duration": 2.2068182,
                "tempo": 120.0
            },
            {
                "start_time": 77.9977273,
                "end_time": 78.1931818,
                "pitch": 40,
                "velocity": 51,
                "duration": 0.1954545,
                "tempo": 120.0
            },
            {
                "start_time": 78.5909091,
                "end_time": 78.7931818,
                "pitch": 40,
                "velocity": 51,
                "duration": 0.2022727,
                "tempo": 120.0
            },
            {
                "start_time": 78.7931818,
                "end_time": 78.9977273,
                "pitch": 40,
                "velocity": 51,
                "duration": 0.2045455,
                "tempo": 120.0
            },
            {
                "start_time": 75.7795455,
                "end_time": 78.9977273,
                "pitch": 41,
                "velocity": 51,
                "duration": 3.2181818,
                "tempo": 120.0
            },
            {
                "start_time": 78.9977273,
                "end_time": 79.2045455,
                "pitch": 36,
                "velocity": 51,
                "duration": 0.2068182,
                "tempo": 120.0
            },
            {
                "start_time": 79.2045455,
                "end_time": 79.4068182,
                "pitch": 33,
                "velocity": 51,
                "duration": 0.2022727,
                "tempo": 120.0
            },
            {
                "start_time": 79.4068182,
                "end_time": 79.6068182,
                "pitch": 45,
                "velocity": 51,
                "duration": 0.2,
                "tempo": 120.0
            },
            {
                "start_time": 77.1863636,
                "end_time": 80.4022727,
                "pitch": 0,
                "velocity": 51,
                "duration": 3.2159091,
                "tempo": 120.0
            },
            {
                "start_time": 80.4,
                "end_time": 80.4022727,
                "pitch": 0,
                "velocity": 51,
                "duration": 0.0022727,
                "tempo": 120.0
            },
            {
                "start_time": 77.9977273,
                "end_time": 80.6068182,
                "pitch": 38,
                "velocity": 51,
                "duration": 2.6090909,
                "tempo": 120.0
            },
            {
                "start_time": 80.4022727,
                "end_time": 80.6068182,
                "pitch": 38,
                "velocity": 51,
                "duration": 0.2045455,
                "tempo": 120.0
            },
            {
                "start_time": 81.0136364,
                "end_time": 81.2136364,
                "pitch": 38,
                "velocity": 51,
                "duration": 0.2,
                "tempo": 120.0
            },
            {
                "start_time": 79.2045455,
                "end_time": 81.4136364,
                "pitch": 40,
                "velocity": 51,
                "duration": 2.2090909,
                "tempo": 120.0
            },
            {
                "start_time": 81.2136364,
                "end_time": 81.4136364,
                "pitch": 40,
                "velocity": 51,
                "duration": 0.2,
                "tempo": 120.0
            },
            {
                "start_time": 81.8159091,
                "end_time": 82.0159091,
                "pitch": 40,
                "velocity": 51,
                "duration": 0.2,
                "tempo": 120.0
            },
            {
                "start_time": 82.0159091,
                "end_time": 82.2227273,
                "pitch": 40,
                "velocity": 51,
                "duration": 0.2068182,
                "tempo": 120.0
            },
            {
                "start_time": 78.9977273,
                "end_time": 82.2227273,
                "pitch": 41,
                "velocity": 51,
                "duration": 3.225,
                "tempo": 120.0
            },
            {
                "start_time": 82.2227273,
                "end_time": 82.4272727,
                "pitch": 36,
                "velocity": 51,
                "duration": 0.2045455,
                "tempo": 120.0
            },
            {
                "start_time": 82.4272727,
                "end_time": 82.6272727,
                "pitch": 33,
                "velocity": 51,
                "duration": 0.2,
                "tempo": 120.0
            },
            {
                "start_time": 82.6272727,
                "end_time": 82.8272727,
                "pitch": 45,
                "velocity": 51,
                "duration": 0.2,
                "tempo": 120.0
            },
            {
                "start_time": 82.8295455,
                "end_time": 83.025,
                "pitch": 31,
                "velocity": 51,
                "duration": 0.1954545,
                "tempo": 120.0
            },
            {
                "start_time": 83.025,
                "end_time": 83.2204545,
                "pitch": 31,
                "velocity": 51,
                "duration": 0.1954545,
                "tempo": 120.0
            },
            {
                "start_time": 70.7409091,
                "end_time": 83.4227273,
                "pitch": 19,
                "velocity": 51,
                "duration": 12.6818182,
                "tempo": 120.0
            },
            {
                "start_time": 83.2204545,
                "end_time": 83.4227273,
                "pitch": 35,
                "velocity": 51,
                "duration": 0.2022727,
                "tempo": 120.0
            },
            {
                "start_time": 83.4227273,
                "end_time": 83.625,
                "pitch": 36,
                "velocity": 51,
                "duration": 0.2022727,
                "tempo": 120.0
            },
            {
                "start_time": 83.625,
                "end_time": 85.2318182,
                "pitch": 36,
                "velocity": 51,
                "duration": 1.6068182,
                "tempo": 120.0
            },
            {
                "start_time": 85.2318182,
                "end_time": 86.8431818,
                "pitch": 36,
                "velocity": 51,
                "duration": 1.6113636,
                "tempo": 120.0
            },
            {
                "start_time": 86.8431818,
                "end_time": 88.45,
                "pitch": 36,
                "velocity": 51,
                "duration": 1.6068182,
                "tempo": 120.0
            },
            {
                "start_time": 88.45,
                "end_time": 90.0613636,
                "pitch": 36,
                "velocity": 51,
                "duration": 1.6113636,
                "tempo": 120.0
            }
        ],
        "Trumpet": [
            {
                "start_time": 6.6340909,
                "end_time": 6.7340909,
                "pitch": 67,
                "velocity": 64,
                "duration": 0.1,
                "tempo": 120.0
            },
            {
                "start_time": 6.7340909,
                "end_time": 6.8340909,
                "pitch": 70,
                "velocity": 64,
                "duration": 0.1,
                "tempo": 120.0
            },
            {
                "start_time": 6.8363636,
                "end_time": 7.6204545,
                "pitch": 72,
                "velocity": 64,
                "duration": 0.7840909,
                "tempo": 120.0
            },
            {
                "start_time": 7.6204545,
                "end_time": 8.0318182,
                "pitch": 74,
                "velocity": 64,
                "duration": 0.4113636,
                "tempo": 120.0
            },
            {
                "start_time": 8.0318182,
                "end_time": 8.2363636,
                "pitch": 77,
                "velocity": 64,
                "duration": 0.2045455,
                "tempo": 120.0
            },
            {
                "start_time": 8.2386364,
                "end_time": 8.3409091,
                "pitch": 77,
                "velocity": 64,
                "duration": 0.1022727,
                "tempo": 120.0
            },
            {
                "start_time": 8.0318182,
                "end_time": 8.4431818,
                "pitch": 74,
                "velocity": 64,
                "duration": 0.4113636,
                "tempo": 120.0
            },
            {
                "start_time": 8.3409091,
                "end_time": 8.4431818,
                "pitch": 74,
                "velocity": 64,
                "duration": 0.1022727,
                "tempo": 120.0
            },
            {
                "start_time": 7.6204545,
                "end_time": 9.2568182,
                "pitch": 72,
                "velocity": 64,
                "duration": 1.6363636,
                "tempo": 120.0
            },
            {
                "start_time": 8.4431818,
                "end_time": 9.2568182,
                "pitch": 72,
                "velocity": 64,
                "duration": 0.8136364,
                "tempo": 120.0
            },
            {
                "start_time": 9.2568182,
                "end_time": 9.6409091,
                "pitch": 75,
                "velocity": 64,
                "duration": 0.3840909,
                "tempo": 120.0
            },
            {
                "start_time": 9.6409091,
                "end_time": 10.4431818,
                "pitch": 75,
                "velocity": 64,
                "duration": 0.8022727,
                "tempo": 120.0
            },
            {
                "start_time": 10.4431818,
                "end_time": 11.2590909,
                "pitch": 82,
                "velocity": 64,
                "duration": 0.8159091,
                "tempo": 120.0
            },
            {
                "start_time": 11.2590909,
                "end_time": 11.3613636,
                "pitch": 84,
                "velocity": 64,
                "duration": 0.1022727,
                "tempo": 120.0
            },
            {
                "start_time": 11.2590909,
                "end_time": 11.4636364,
                "pitch": 62,
                "velocity": 64,
                "duration": 0.2045455,
                "tempo": 120.0
            },
            {
                "start_time": 11.3613636,
                "end_time": 11.4636364,
                "pitch": 82,
                "velocity": 64,
                "duration": 0.1022727,
                "tempo": 120.0
            },
            {
                "start_time": 11.4636364,
                "end_time": 12.8772727,
                "pitch": 84,
                "velocity": 64,
                "duration": 1.4136364,
                "tempo": 120.0
            }
        ],
        "Clarinet": [
            {
                "start_time": 13.0659091,
                "end_time": 15.4795455,
                "pitch": 64,
                "velocity": 51,
                "duration": 2.4136364,
                "tempo": 120.0
            },
            {
                "start_time": 15.4795455,
                "end_time": 15.8840909,
                "pitch": 55,
                "velocity": 51,
                "duration": 0.4045455,
                "tempo": 120.0
            },
            {
                "start_time": 15.8840909,
                "end_time": 16.2863636,
                "pitch": 60,
                "velocity": 51,
                "duration": 0.4022727,
                "tempo": 120.0
            },
            {
                "start_time": 16.2863636,
                "end_time": 16.8886364,
                "pitch": 65,
                "velocity": 51,
                "duration": 0.6022727,
                "tempo": 120.0
            },
            {
                "start_time": 16.8886364,
                "end_time": 17.4909091,
                "pitch": 65,
                "velocity": 51,
                "duration": 0.6022727,
                "tempo": 120.0
            },
            {
                "start_time": 16.2863636,
                "end_time": 18.0931818,
                "pitch": 60,
                "velocity": 51,
                "duration": 1.8068182,
                "tempo": 120.0
            },
            {
                "start_time": 17.4909091,
                "end_time": 18.0931818,
                "pitch": 60,
                "velocity": 51,
                "duration": 0.6022727,
                "tempo": 120.0
            },
            {
                "start_time": 17.4909091,
                "end_time": 18.0931818,
                "pitch": 64,
                "velocity": 51,
                "duration": 0.6022727,
                "tempo": 120.0
            },
            {
                "start_time": 18.0931818,
                "end_time": 18.6954545,
                "pitch": 57,
                "velocity": 51,
                "duration": 0.6022727,
                "tempo": 120.0
            },
            {
                "start_time": 18.6977273,
                "end_time": 19.0977273,
                "pitch": 60,
                "velocity": 51,
                "duration": 0.4,
                "tempo": 120.0
            },
            {
                "start_time": 19.0977273,
                "end_time": 19.4977273,
                "pitch": 62,
                "velocity": 51,
                "duration": 0.4,
                "tempo": 120.0
            },
            {
                "start_time": 19.5,
                "end_time": 20.1,
                "pitch": 65,
                "velocity": 51,
                "duration": 0.6,
                "tempo": 120.0
            },
            {
                "start_time": 18.0931818,
                "end_time": 20.7090909,
                "pitch": 64,
                "velocity": 51,
                "duration": 2.6159091,
                "tempo": 120.0
            },
            {
                "start_time": 20.1022727,
                "end_time": 20.7090909,
                "pitch": 65,
                "velocity": 51,
                "duration": 0.6068182,
                "tempo": 120.0
            },
            {
                "start_time": 19.0977273,
                "end_time": 21.3090909,
                "pitch": 60,
                "velocity": 51,
                "duration": 2.2113636,
                "tempo": 120.0
            },
            {
                "start_time": 20.7090909,
                "end_time": 21.3090909,
                "pitch": 60,
                "velocity": 51,
                "duration": 0.6,
                "tempo": 120.0
            },
            {
                "start_time": 21.3090909,
                "end_time": 21.9204545,
                "pitch": 65,
                "velocity": 51,
                "duration": 0.6113636,
                "tempo": 120.0
            },
            {
                "start_time": 21.9204545,
                "end_time": 22.3227273,
                "pitch": 65,
                "velocity": 51,
                "duration": 0.4022727,
                "tempo": 120.0
            },
            {
                "start_time": 20.7090909,
                "end_time": 22.725,
                "pitch": 64,
                "velocity": 51,
                "duration": 2.0159091,
                "tempo": 120.0
            },
            {
                "start_time": 22.3227273,
                "end_time": 22.725,
                "pitch": 64,
                "velocity": 51,
                "duration": 0.4022727,
                "tempo": 120.0
            },
            {
                "start_time": 15.8840909,
                "end_time": 23.2931818,
                "pitch": 0,
                "velocity": 51,
                "duration": 7.4090909,
                "tempo": 120.0
            },
            {
                "start_time": 22.725,
                "end_time": 23.2931818,
                "pitch": 67,
                "velocity": 51,
                "duration": 0.5681818,
                "tempo": 120.0
            },
            {
                "start_time": 23.2931818,
                "end_time": 23.3431818,
                "pitch": 67,
                "velocity": 51,
                "duration": 0.05,
                "tempo": 120.0
            },
            {
                "start_time": 23.2931818,
                "end_time": 23.4272727,
                "pitch": 0,
                "velocity": 51,
                "duration": 0.1340909,
                "tempo": 120.0
            },
            {
                "start_time": 23.3431818,
                "end_time": 23.4272727,
                "pitch": 67,
                "velocity": 51,
                "duration": 0.0840909,
                "tempo": 120.0
            },
            {
                "start_time": 23.4272727,
                "end_time": 23.4772727,
                "pitch": 67,
                "velocity": 51,
                "duration": 0.05,
                "tempo": 120.0
            },
            {
                "start_time": 23.3431818,
                "end_time": 23.4772727,
                "pitch": 79,
                "velocity": 51,
                "duration": 0.1340909,
                "tempo": 120.0
            },
            {
                "start_time": 23.4272727,
                "end_time": 23.5613636,
                "pitch": 0,
                "velocity": 51,
                "duration": 0.1340909,
                "tempo": 120.0
            },
            {
                "start_time": 23.4772727,
                "end_time": 23.5613636,
                "pitch": 67,
                "velocity": 51,
                "duration": 0.0840909,
                "tempo": 120.0
            },
            {
                "start_time": 23.5613636,
                "end_time": 23.6113636,
                "pitch": 67,
                "velocity": 51,
                "duration": 0.05,
                "tempo": 120.0
            },
            {
                "start_time": 23.4772727,
                "end_time": 23.6113636,
                "pitch": 79,
                "velocity": 51,
                "duration": 0.1340909,
                "tempo": 120.0
            },
            {
                "start_time": 23.5613636,
                "end_time": 23.6931818,
                "pitch": 0,
                "velocity": 51,
                "duration": 0.1318182,
                "tempo": 120.0
            },
            {
                "start_time": 23.6113636,
                "end_time": 23.6931818,
                "pitch": 67,
                "velocity": 51,
                "duration": 0.0818182,
                "tempo": 120.0
            },
            {
                "start_time": 23.6931818,
                "end_time": 23.7431818,
                "pitch": 67,
                "velocity": 51,
                "duration": 0.05,
                "tempo": 120.0
            },
            {
                "start_time": 23.6113636,
                "end_time": 23.7431818,
                "pitch": 79,
                "velocity": 51,
                "duration": 0.1318182,
                "tempo": 120.0
            },
            {
                "start_time": 23.6931818,
                "end_time": 23.8272727,
                "pitch": 0,
                "velocity": 51,
                "duration": 0.1340909,
                "tempo": 120.0
            },
            {
                "start_time": 23.7431818,
                "end_time": 23.8272727,
                "pitch": 67,
                "velocity": 51,
                "duration": 0.0840909,
                "tempo": 120.0
            },
            {
                "start_time": 23.8272727,
                "end_time": 23.8772727,
                "pitch": 67,
                "velocity": 51,
                "duration": 0.05,
                "tempo": 120.0
            },
            {
                "start_time": 23.7431818,
                "end_time": 23.8772727,
                "pitch": 79,
                "velocity": 51,
                "duration": 0.1340909,
                "tempo": 120.0
            },
            {
                "start_time": 23.8772727,
                "end_time": 23.9295455,
                "pitch": 67,
                "velocity": 51,
                "duration": 0.0522727,
                "tempo": 120.0
            },
            {
                "start_time": 22.725,
                "end_time": 24.1318182,
                "pitch": 78,
                "velocity": 51,
                "duration": 1.4068182,
                "tempo": 120.0
            },
            {
                "start_time": 24.1318182,
                "end_time": 24.2295455,
                "pitch": 67,
                "velocity": 51,
                "duration": 0.0977273,
                "tempo": 120.0
            },
            {
                "start_time": 23.8272727,
                "end_time": 24.2318182,
                "pitch": 0,
                "velocity": 51,
                "duration": 0.4045455,
                "tempo": 120.0
            },
            {
                "start_time": 24.2318182,
                "end_time": 24.3318182,
                "pitch": 65,
                "velocity": 51,
                "duration": 0.1,
                "tempo": 120.0
            },
            {
                "start_time": 24.3318182,
                "end_time": 25.1363636,
                "pitch": 65,
                "velocity": 51,
                "duration": 0.8045455,
                "tempo": 120.0
            },
            {
                "start_time": 25.1363636,
                "end_time": 25.3363636,
                "pitch": 60,
                "velocity": 51,
                "duration": 0.2,
                "tempo": 120.0
            },
            {
                "start_time": 25.3363636,
                "end_time": 25.5363636,
                "pitch": 60,
                "velocity": 51,
                "duration": 0.2,
                "tempo": 120.0
            },
            {
                "start_time": 19.5,
                "end_time": 25.7363636,
                "pitch": 62,
                "velocity": 51,
                "duration": 6.2363636,
                "tempo": 120.0
            },
            {
                "start_time": 25.5363636,
                "end_time": 25.7363636,
                "pitch": 62,
                "velocity": 51,
                "duration": 0.2,
                "tempo": 120.0
            },
            {
                "start_time": 25.7363636,
                "end_time": 25.9363636,
                "pitch": 62,
                "velocity": 51,
                "duration": 0.2,
                "tempo": 120.0
            },
            {
                "start_time": 25.9386364,
                "end_time": 28.3522727,
                "pitch": 63,
                "velocity": 51,
                "duration": 2.4136364,
                "tempo": 120.0
            },
            {
                "start_time": 15.4795455,
                "end_time": 28.3522727,
                "pitch": 66,
                "velocity": 51,
                "duration": 12.8727273,
                "tempo": 120.0
            },
            {
                "start_time": 24.2318182,
                "end_time": 28.7545455,
                "pitch": 0,
                "velocity": 51,
                "duration": 4.5227273,
                "tempo": 120.0
            },
            {
                "start_time": 28.3522727,
                "end_time": 28.7545455,
                "pitch": 55,
                "velocity": 51,
                "duration": 0.4022727,
                "tempo": 120.0
            },
            {
                "start_time": 25.5363636,
                "end_time": 29.1568182,
                "pitch": 60,
                "velocity": 51,
                "duration": 3.6204545,
                "tempo": 120.0
            },
            {
                "start_time": 28.7545455,
                "end_time": 29.1568182,
                "pitch": 60,
                "velocity": 51,
                "duration": 0.4022727,
                "tempo": 120.0
            },
            {
                "start_time": 29.1568182,
                "end_time": 29.7636364,
                "pitch": 65,
                "velocity": 51,
                "duration": 0.6068182,
                "tempo": 120.0
            },
            {
                "start_time": 25.1363636,
                "end_time": 30.3659091,
                "pitch": 64,
                "velocity": 51,
                "duration": 5.2295455,
                "tempo": 120.0
            },
            {
                "start_time": 29.7636364,
                "end_time": 30.3659091,
                "pitch": 65,
                "velocity": 51,
                "duration": 0.6022727,
                "tempo": 120.0
            },
            {
                "start_time": 29.1568182,
                "end_time": 30.9681818,
                "pitch": 60,
                "velocity": 51,
                "duration": 1.8113636,
                "tempo": 120.0
            },
            {
                "start_time": 30.3659091,
                "end_time": 30.9681818,
                "pitch": 60,
                "velocity": 51,
                "duration": 0.6022727,
                "tempo": 120.0
            },
            {
                "start_time": 30.3659091,
                "end_time": 30.9681818,
                "pitch": 64,
                "velocity": 51,
                "duration": 0.6022727,
                "tempo": 120.0
            },
            {
                "start_time": 18.6977273,
                "end_time": 31.5704545,
                "pitch": 28,
                "velocity": 51,
                "duration": 12.8727273,
                "tempo": 120.0
            },
            {
                "start_time": 30.9681818,
                "end_time": 31.5704545,
                "pitch": 57,
                "velocity": 51,
                "duration": 0.6022727,
                "tempo": 120.0
            },
            {
                "start_time": 31.5704545,
                "end_time": 31.9704545,
                "pitch": 60,
                "velocity": 51,
                "duration": 0.4,
                "tempo": 120.0
            },
            {
                "start_time": 31.9704545,
                "end_time": 32.3727273,
                "pitch": 62,
                "velocity": 51,
                "duration": 0.4022727,
                "tempo": 120.0
            },
            {
                "start_time": 32.3727273,
                "end_time": 32.975,
                "pitch": 65,
                "velocity": 51,
                "duration": 0.6022727,
                "tempo": 120.0
            },
            {
                "start_time": 32.975,
                "end_time": 33.575,
                "pitch": 65,
                "velocity": 51,
                "duration": 0.6,
                "tempo": 120.0
            },
            {
                "start_time": 30.9681818,
                "end_time": 33.5772727,
                "pitch": 64,
                "velocity": 51,
                "duration": 2.6090909,
                "tempo": 120.0
            },
            {
                "start_time": 21.3090909,
                "end_time": 34.1772727,
                "pitch": 59,
                "velocity": 51,
                "duration": 12.8681818,
                "tempo": 120.0
            },
            {
                "start_time": 31.9704545,
                "end_time": 34.1772727,
                "pitch": 60,
                "velocity": 51,
                "duration": 2.2068182,
                "tempo": 120.0
            },
            {
                "start_time": 33.5772727,
                "end_time": 34.1772727,
                "pitch": 60,
                "velocity": 51,
                "duration": 0.6,
                "tempo": 120.0
            },
            {
                "start_time": 34.1772727,
                "end_time": 34.7795455,
                "pitch": 65,
                "velocity": 51,
                "duration": 0.6022727,
                "tempo": 120.0
            },
            {
                "start_time": 34.7795455,
                "end_time": 35.1863636,
                "pitch": 65,
                "velocity": 51,
                "duration": 0.4068182,
                "tempo": 120.0
            },
            {
                "start_time": 35.1863636,
                "end_time": 35.5931818,
                "pitch": 58,
                "velocity": 51,
                "duration": 0.4068182,
                "tempo": 120.0
            },
            {
                "start_time": 35.1863636,
                "end_time": 36.1863636,
                "pitch": 65,
                "velocity": 51,
                "duration": 1.0,
                "tempo": 120.0
            },
            {
                "start_time": 35.5931818,
                "end_time": 36.1863636,
                "pitch": 65,
                "velocity": 51,
                "duration": 0.5931818,
                "tempo": 120.0
            },
            {
                "start_time": 36.1863636,
                "end_time": 36.2840909,
                "pitch": 65,
                "velocity": 51,
                "duration": 0.0977273,
                "tempo": 120.0
            },
            {
                "start_time": 33.5772727,
                "end_time": 36.3863636,
                "pitch": 64,
                "velocity": 51,
                "duration": 2.8090909,
                "tempo": 120.0
            },
            {
                "start_time": 36.2863636,
                "end_time": 36.3863636,
                "pitch": 64,
                "velocity": 51,
                "duration": 0.1,
                "tempo": 120.0
            },
            {
                "start_time": 36.3863636,
                "end_time": 38.4,
                "pitch": 65,
                "velocity": 51,
                "duration": 2.0136364,
                "tempo": 120.0
            },
            {
                "start_time": 34.1772727,
                "end_time": 45.2295455,
                "pitch": 59,
                "velocity": 51,
                "duration": 11.0522727,
                "tempo": 120.0
            },
            {
                "start_time": 45.2295455,
                "end_time": 47.6340909,
                "pitch": 64,
                "velocity": 51,
                "duration": 2.4045455,
                "tempo": 120.0
            },
            {
                "start_time": 28.3522727,
                "end_time": 47.6363636,
                "pitch": 66,
                "velocity": 51,
                "duration": 19.2840909,
                "tempo": 120.0
            },
            {
                "start_time": 47.6340909,
                "end_time": 47.6363636,
                "pitch": 66,
                "velocity": 51,
                "duration": 0.0022727,
                "tempo": 120.0
            },
            {
                "start_time": 28.7545455,
                "end_time": 48.0363636,
                "pitch": 0,
                "velocity": 51,
                "duration": 19.2818182,
                "tempo": 120.0
            },
            {
                "start_time": 47.6363636,
                "end_time": 48.0363636,
                "pitch": 55,
                "velocity": 51,
                "duration": 0.4,
                "tempo": 120.0
            },
            {
                "start_time": 48.0363636,
                "end_time": 48.4363636,
                "pitch": 60,
                "velocity": 51,
                "duration": 0.4,
                "tempo": 120.0
            },
            {
                "start_time": 48.4386364,
                "end_time": 49.0386364,
                "pitch": 65,
                "velocity": 51,
                "duration": 0.6,
                "tempo": 120.0
            },
            {
                "start_time": 49.0386364,
                "end_time": 49.6409091,
                "pitch": 65,
                "velocity": 51,
                "duration": 0.6022727,
                "tempo": 120.0
            },
            {
                "start_time": 48.4386364,
                "end_time": 50.2431818,
                "pitch": 60,
                "velocity": 51,
                "duration": 1.8045455,
                "tempo": 120.0
            },
            {
                "start_time": 49.6409091,
                "end_time": 50.2431818,
                "pitch": 60,
                "velocity": 51,
                "duration": 0.6022727,
                "tempo": 120.0
            },
            {
                "start_time": 49.6409091,
                "end_time": 50.2431818,
                "pitch": 64,
                "velocity": 51,
                "duration": 0.6022727,
                "tempo": 120.0
            },
            {
                "start_time": 50.2431818,
                "end_time": 50.8477273,
                "pitch": 57,
                "velocity": 51,
                "duration": 0.6045455,
                "tempo": 120.0
            },
            {
                "start_time": 31.5704545,
                "end_time": 50.85,
                "pitch": 28,
                "velocity": 51,
                "duration": 19.2795455,
                "tempo": 120.0
            },
            {
                "start_time": 50.8477273,
                "end_time": 50.85,
                "pitch": 28,
                "velocity": 51,
                "duration": 0.0022727,
                "tempo": 120.0
            },
            {
                "start_time": 50.85,
                "end_time": 51.2568182,
                "pitch": 60,
                "velocity": 51,
                "duration": 0.4068182,
                "tempo": 120.0
            },
            {
                "start_time": 32.3727273,
                "end_time": 51.6590909,
                "pitch": 62,
                "velocity": 51,
                "duration": 19.2863636,
                "tempo": 120.0
            },
            {
                "start_time": 51.2568182,
                "end_time": 51.6590909,
                "pitch": 62,
                "velocity": 51,
                "duration": 0.4022727,
                "tempo": 120.0
            },
            {
                "start_time": 51.6590909,
                "end_time": 52.2590909,
                "pitch": 65,
                "velocity": 51,
                "duration": 0.6,
                "tempo": 120.0
            },
            {
                "start_time": 50.2431818,
                "end_time": 52.8590909,
                "pitch": 64,
                "velocity": 51,
                "duration": 2.6159091,
                "tempo": 120.0
            },
            {
                "start_time": 52.2590909,
                "end_time": 52.8590909,
                "pitch": 65,
                "velocity": 51,
                "duration": 0.6,
                "tempo": 120.0
            },
            {
                "start_time": 45.2295455,
                "end_time": 53.4636364,
                "pitch": 59,
                "velocity": 51,
                "duration": 8.2340909,
                "tempo": 120.0
            },
            {
                "start_time": 51.2568182,
                "end_time": 53.4636364,
                "pitch": 60,
                "velocity": 51,
                "duration": 2.2068182,
                "tempo": 120.0
            },
            {
                "start_time": 52.8590909,
                "end_time": 53.4636364,
                "pitch": 60,
                "velocity": 51,
                "duration": 0.6045455,
                "tempo": 120.0
            },
            {
                "start_time": 53.4636364,
                "end_time": 54.0636364,
                "pitch": 65,
                "velocity": 51,
                "duration": 0.6,
                "tempo": 120.0
            },
            {
                "start_time": 54.0636364,
                "end_time": 54.4636364,
                "pitch": 65,
                "velocity": 51,
                "duration": 0.4,
                "tempo": 120.0
            },
            {
                "start_time": 52.8590909,
                "end_time": 54.8659091,
                "pitch": 64,
                "velocity": 51,
                "duration": 2.0068182,
                "tempo": 120.0
            },
            {
                "start_time": 54.4659091,
                "end_time": 54.8659091,
                "pitch": 64,
                "velocity": 51,
                "duration": 0.4,
                "tempo": 120.0
            },
            {
                "start_time": 24.1318182,
                "end_time": 54.8659091,
                "pitch": 78,
                "velocity": 51,
                "duration": 30.7340909,
                "tempo": 120.0
            },
            {
                "start_time": 48.0363636,
                "end_time": 55.4340909,
                "pitch": 0,
                "velocity": 51,
                "duration": 7.3977273,
                "tempo": 120.0
            },
            {
                "start_time": 54.8659091,
                "end_time": 55.4340909,
                "pitch": 67,
                "velocity": 51,
                "duration": 0.5681818,
                "tempo": 120.0
            },
            {
                "start_time": 55.4340909,
                "end_time": 55.4840909,
                "pitch": 67,
                "velocity": 51,
                "duration": 0.05,
                "tempo": 120.0
            },
            {
                "start_time": 23.8772727,
                "end_time": 55.4840909,
                "pitch": 79,
                "velocity": 51,
                "duration": 31.6068182,
                "tempo": 120.0
            },
            {
                "start_time": 55.4340909,
                "end_time": 55.5681818,
                "pitch": 0,
                "velocity": 51,
                "duration": 0.1340909,
                "tempo": 120.0
            },
            {
                "start_time": 55.4840909,
                "end_time": 55.5681818,
                "pitch": 67,
                "velocity": 51,
                "duration": 0.0840909,
                "tempo": 120.0
            },
            {
                "start_time": 55.5681818,
                "end_time": 55.6181818,
                "pitch": 67,
                "velocity": 51,
                "duration": 0.05,
                "tempo": 120.0
            },
            {
                "start_time": 55.4840909,
                "end_time": 55.6181818,
                "pitch": 79,
                "velocity": 51,
                "duration": 0.1340909,
                "tempo": 120.0
            },
            {
                "start_time": 55.5681818,
                "end_time": 55.7022727,
                "pitch": 0,
                "velocity": 51,
                "duration": 0.1340909,
                "tempo": 120.0
            },
            {
                "start_time": 55.6181818,
                "end_time": 55.7022727,
                "pitch": 67,
                "velocity": 51,
                "duration": 0.0840909,
                "tempo": 120.0
            },
            {
                "start_time": 55.7022727,
                "end_time": 55.7522727,
                "pitch": 67,
                "velocity": 51,
                "duration": 0.05,
                "tempo": 120.0
            },
            {
                "start_time": 55.6181818,
                "end_time": 55.7522727,
                "pitch": 79,
                "velocity": 51,
                "duration": 0.1340909,
                "tempo": 120.0
            },
            {
                "start_time": 55.7022727,
                "end_time": 55.8363636,
                "pitch": 0,
                "velocity": 51,
                "duration": 0.1340909,
                "tempo": 120.0
            },
            {
                "start_time": 55.7522727,
                "end_time": 55.8363636,
                "pitch": 67,
                "velocity": 51,
                "duration": 0.0840909,
                "tempo": 120.0
            },
            {
                "start_time": 55.8363636,
                "end_time": 55.8863636,
                "pitch": 67,
                "velocity": 51,
                "duration": 0.05,
                "tempo": 120.0
            },
            {
                "start_time": 55.7522727,
                "end_time": 55.8863636,
                "pitch": 79,
                "velocity": 51,
                "duration": 0.1340909,
                "tempo": 120.0
            },
            {
                "start_time": 55.8363636,
                "end_time": 55.9681818,
                "pitch": 0,
                "velocity": 51,
                "duration": 0.1318182,
                "tempo": 120.0
            },
            {
                "start_time": 55.8863636,
                "end_time": 55.9681818,
                "pitch": 67,
                "velocity": 51,
                "duration": 0.0818182,
                "tempo": 120.0
            },
            {
                "start_time": 55.9681818,
                "end_time": 56.0181818,
                "pitch": 67,
                "velocity": 51,
                "duration": 0.05,
                "tempo": 120.0
            },
            {
                "start_time": 55.8863636,
                "end_time": 56.0181818,
                "pitch": 79,
                "velocity": 51,
                "duration": 0.1318182,
                "tempo": 120.0
            },
            {
                "start_time": 56.0181818,
                "end_time": 56.0704545,
                "pitch": 67,
                "velocity": 51,
                "duration": 0.0522727,
                "tempo": 120.0
            },
            {
                "start_time": 54.8659091,
                "end_time": 56.2704545,
                "pitch": 78,
                "velocity": 51,
                "duration": 1.4045455,
                "tempo": 120.0
            },
            {
                "start_time": 55.9681818,
                "end_time": 56.3704545,
                "pitch": 0,
                "velocity": 51,
                "duration": 0.4022727,
                "tempo": 120.0
            },
            {
                "start_time": 56.2704545,
                "end_time": 56.3704545,
                "pitch": 67,
                "velocity": 51,
                "duration": 0.1,
                "tempo": 120.0
            },
            {
                "start_time": 56.3704545,
                "end_time": 56.4704545,
                "pitch": 65,
                "velocity": 51,
                "duration": 0.1,
                "tempo": 120.0
            },
            {
                "start_time": 56.4704545,
                "end_time": 57.2772727,
                "pitch": 65,
                "velocity": 51,
                "duration": 0.8068182,
                "tempo": 120.0
            },
            {
                "start_time": 57.2772727,
                "end_time": 57.4818182,
                "pitch": 60,
                "velocity": 51,
                "duration": 0.2045455,
                "tempo": 120.0
            },
            {
                "start_time": 57.4818182,
                "end_time": 57.6840909,
                "pitch": 60,
                "velocity": 51,
                "duration": 0.2022727,
                "tempo": 120.0
            },
            {
                "start_time": 51.6590909,
                "end_time": 57.8840909,
                "pitch": 62,
                "velocity": 51,
                "duration": 6.225,
                "tempo": 120.0
            },
            {
                "start_time": 57.6840909,
                "end_time": 57.8840909,
                "pitch": 62,
                "velocity": 51,
                "duration": 0.2,
                "tempo": 120.0
            },
            {
                "start_time": 57.8840909,
                "end_time": 58.0840909,
                "pitch": 62,
                "velocity": 51,
                "duration": 0.2,
                "tempo": 120.0
            },
            {
                "start_time": 58.0840909,
                "end_time": 60.4909091,
                "pitch": 63,
                "velocity": 51,
                "duration": 2.4068182,
                "tempo": 120.0
            },
            {
                "start_time": 56.3704545,
                "end_time": 60.8931818,
                "pitch": 0,
                "velocity": 51,
                "duration": 4.5227273,
                "tempo": 120.0
            },
            {
                "start_time": 60.4909091,
                "end_time": 60.8931818,
                "pitch": 55,
                "velocity": 51,
                "duration": 0.4022727,
                "tempo": 120.0
            },
            {
                "start_time": 57.6840909,
                "end_time": 61.2931818,
                "pitch": 60,
                "velocity": 51,
                "duration": 3.6090909,
                "tempo": 120.0
            },
            {
                "start_time": 60.8931818,
                "end_time": 61.2931818,
                "pitch": 60,
                "velocity": 51,
                "duration": 0.4,
                "tempo": 120.0
            },
            {
                "start_time": 61.2931818,
                "end_time": 61.8931818,
                "pitch": 65,
                "velocity": 51,
                "duration": 0.6,
                "tempo": 120.0
            },
            {
                "start_time": 57.2772727,
                "end_time": 62.4954545,
                "pitch": 64,
                "velocity": 51,
                "duration": 5.2181818,
                "tempo": 120.0
            },
            {
                "start_time": 61.8931818,
                "end_time": 62.4954545,
                "pitch": 65,
                "velocity": 51,
                "duration": 0.6022727,
                "tempo": 120.0
            },
            {
                "start_time": 61.2931818,
                "end_time": 63.0977273,
                "pitch": 60,
                "velocity": 51,
                "duration": 1.8045455,
                "tempo": 120.0
            },
            {
                "start_time": 62.4954545,
                "end_time": 63.0977273,
                "pitch": 60,
                "velocity": 51,
                "duration": 0.6022727,
                "tempo": 120.0
            },
            {
                "start_time": 62.4954545,
                "end_time": 63.0977273,
                "pitch": 64,
                "velocity": 51,
                "duration": 0.6022727,
                "tempo": 120.0
            },
            {
                "start_time": 63.0977273,
                "end_time": 63.6977273,
                "pitch": 57,
                "velocity": 51,
                "duration": 0.6,
                "tempo": 120.0
            },
            {
                "start_time": 63.7,
                "end_time": 64.1,
                "pitch": 60,
                "velocity": 51,
                "duration": 0.4,
                "tempo": 120.0
            },
            {
                "start_time": 64.1,
                "end_time": 64.5022727,
                "pitch": 62,
                "velocity": 51,
                "duration": 0.4022727,
                "tempo": 120.0
            },
            {
                "start_time": 64.5022727,
                "end_time": 65.1022727,
                "pitch": 65,
                "velocity": 51,
                "duration": 0.6,
                "tempo": 120.0
            },
            {
                "start_time": 63.0977273,
                "end_time": 65.7159091,
                "pitch": 64,
                "velocity": 51,
                "duration": 2.6181818,
                "tempo": 120.0
            },
            {
                "start_time": 65.1045455,
                "end_time": 65.7159091,
                "pitch": 65,
                "velocity": 51,
                "duration": 0.6113636,
                "tempo": 120.0
            },
            {
                "start_time": 53.4636364,
                "end_time": 66.3181818,
                "pitch": 59,
                "velocity": 51,
                "duration": 12.8545455,
                "tempo": 120.0
            },
            {
                "start_time": 64.1,
                "end_time": 66.3181818,
                "pitch": 60,
                "velocity": 51,
                "duration": 2.2181818,
                "tempo": 120.0
            },
            {
                "start_time": 65.7159091,
                "end_time": 66.3181818,
                "pitch": 60,
                "velocity": 51,
                "duration": 0.6022727,
                "tempo": 120.0
            },
            {
                "start_time": 66.3181818,
                "end_time": 66.9204545,
                "pitch": 65,
                "velocity": 51,
                "duration": 0.6022727,
                "tempo": 120.0
            },
            {
                "start_time": 66.9204545,
                "end_time": 67.325,
                "pitch": 65,
                "velocity": 51,
                "duration": 0.4045455,
                "tempo": 120.0
            },
            {
                "start_time": 67.325,
                "end_time": 67.725,
                "pitch": 58,
                "velocity": 51,
                "duration": 0.4,
                "tempo": 120.0
            },
            {
                "start_time": 35.5931818,
                "end_time": 67.7272727,
                "pitch": 38,
                "velocity": 51,
                "duration": 32.1340909,
                "tempo": 120.0
            },
            {
                "start_time": 67.325,
                "end_time": 68.3295455,
                "pitch": 65,
                "velocity": 51,
                "duration": 1.0045455,
                "tempo": 120.0
            },
            {
                "start_time": 67.7272727,
                "end_time": 68.3295455,
                "pitch": 65,
                "velocity": 51,
                "duration": 0.6022727,
                "tempo": 120.0
            },
            {
                "start_time": 68.3295455,
                "end_time": 68.4295455,
                "pitch": 65,
                "velocity": 51,
                "duration": 0.1,
                "tempo": 120.0
            },
            {
                "start_time": 65.7159091,
                "end_time": 68.5295455,
                "pitch": 64,
                "velocity": 51,
                "duration": 2.8136364,
                "tempo": 120.0
            },
            {
                "start_time": 68.4295455,
                "end_time": 68.5295455,
                "pitch": 64,
                "velocity": 51,
                "duration": 0.1,
                "tempo": 120.0
            },
            {
                "start_time": 68.5295455,
                "end_time": 70.3409091,
                "pitch": 65,
                "velocity": 51,
                "duration": 1.8113636,
                "tempo": 120.0
            }
        ],
        "Vibraphone": [
            {
                "start_time": 39.0045455,
                "end_time": 39.2045455,
                "pitch": 64,
                "velocity": 51,
                "duration": 0.2,
                "tempo": 120.0
            },
            {
                "start_time": 39.2045455,
                "end_time": 39.4045455,
                "pitch": 62,
                "velocity": 51,
                "duration": 0.2,
                "tempo": 120.0
            },
            {
                "start_time": 39.4045455,
                "end_time": 42.0090909,
                "pitch": 70,
                "velocity": 51,
                "duration": 2.6045455,
                "tempo": 120.0
            },
            {
                "start_time": 42.2113636,
                "end_time": 42.4113636,
                "pitch": 64,
                "velocity": 51,
                "duration": 0.2,
                "tempo": 120.0
            },
            {
                "start_time": 42.4113636,
                "end_time": 42.6136364,
                "pitch": 64,
                "velocity": 51,
                "duration": 0.2022727,
                "tempo": 120.0
            },
            {
                "start_time": 39.4045455,
                "end_time": 42.6136364,
                "pitch": 77,
                "velocity": 51,
                "duration": 3.2090909,
                "tempo": 120.0
            },
            {
                "start_time": 42.6136364,
                "end_time": 45.2272727,
                "pitch": 72,
                "velocity": 51,
                "duration": 2.6136364,
                "tempo": 120.0
            }
        ],
        "Acoustic Grand Piano": [
            {
                "start_time": 13.2590909,
                "end_time": 13.4590909,
                "pitch": 60,
                "velocity": 51,
                "duration": 0.2,
                "tempo": 120.0
            },
            {
                "start_time": 14.0727273,
                "end_time": 14.2681818,
                "pitch": 60,
                "velocity": 51,
                "duration": 0.1954545,
                "tempo": 120.0
            },
            {
                "start_time": 14.8772727,
                "end_time": 15.0772727,
                "pitch": 60,
                "velocity": 51,
                "duration": 0.2,
                "tempo": 120.0
            },
            {
                "start_time": 17.4909091,
                "end_time": 17.8931818,
                "pitch": 65,
                "velocity": 51,
                "duration": 0.4022727,
                "tempo": 120.0
            },
            {
                "start_time": 28.5590909,
                "end_time": 28.9522727,
                "pitch": 67,
                "velocity": 51,
                "duration": 0.3931818,
                "tempo": 120.0
            },
            {
                "start_time": 40.0045455,
                "end_time": 40.8090909,
                "pitch": 70,
                "velocity": 51,
                "duration": 0.8045455,
                "tempo": 120.0
            },
            {
                "start_time": 40.8090909,
                "end_time": 41.6090909,
                "pitch": 67,
                "velocity": 51,
                "duration": 0.8,
                "tempo": 120.0
            },
            {
                "start_time": 40.8090909,
                "end_time": 41.8113636,
                "pitch": 70,
                "velocity": 51,
                "duration": 1.0022727,
                "tempo": 120.0
            },
            {
                "start_time": 41.6090909,
                "end_time": 41.8113636,
                "pitch": 70,
                "velocity": 51,
                "duration": 0.2022727,
                "tempo": 120.0
            },
            {
                "start_time": 41.8113636,
                "end_time": 43.2136364,
                "pitch": 64,
                "velocity": 51,
                "duration": 1.4022727,
                "tempo": 120.0
            },
            {
                "start_time": 28.5590909,
                "end_time": 43.2159091,
                "pitch": 78,
                "velocity": 51,
                "duration": 14.6568182,
                "tempo": 120.0
            },
            {
                "start_time": 41.6090909,
                "end_time": 44.0272727,
                "pitch": 67,
                "velocity": 51,
                "duration": 2.4181818,
                "tempo": 120.0
            },
            {
                "start_time": 43.2159091,
                "end_time": 44.0272727,
                "pitch": 67,
                "velocity": 51,
                "duration": 0.8113636,
                "tempo": 120.0
            },
            {
                "start_time": 43.2159091,
                "end_time": 44.2272727,
                "pitch": 78,
                "velocity": 51,
                "duration": 1.0113636,
                "tempo": 120.0
            },
            {
                "start_time": 44.2272727,
                "end_time": 44.4272727,
                "pitch": 67,
                "velocity": 51,
                "duration": 0.2,
                "tempo": 120.0
            },
            {
                "start_time": 44.4295455,
                "end_time": 44.6295455,
                "pitch": 67,
                "velocity": 51,
                "duration": 0.2,
                "tempo": 120.0
            },
            {
                "start_time": 44.6295455,
                "end_time": 44.8295455,
                "pitch": 67,
                "velocity": 51,
                "duration": 0.2,
                "tempo": 120.0
            },
            {
                "start_time": 44.8295455,
                "end_time": 45.0318182,
                "pitch": 67,
                "velocity": 51,
                "duration": 0.2022727,
                "tempo": 120.0
            },
            {
                "start_time": 17.4909091,
                "end_time": 46.4340909,
                "pitch": 60,
                "velocity": 51,
                "duration": 28.9431818,
                "tempo": 120.0
            },
            {
                "start_time": 46.2340909,
                "end_time": 46.4340909,
                "pitch": 60,
                "velocity": 51,
                "duration": 0.2,
                "tempo": 120.0
            },
            {
                "start_time": 47.0340909,
                "end_time": 47.2340909,
                "pitch": 60,
                "velocity": 51,
                "duration": 0.2,
                "tempo": 120.0
            },
            {
                "start_time": 49.6409091,
                "end_time": 50.0431818,
                "pitch": 65,
                "velocity": 51,
                "duration": 0.4022727,
                "tempo": 120.0
            },
            {
                "start_time": 44.2272727,
                "end_time": 60.6931818,
                "pitch": 78,
                "velocity": 51,
                "duration": 16.4659091,
                "tempo": 120.0
            },
            {
                "start_time": 60.6931818,
                "end_time": 61.0954545,
                "pitch": 67,
                "velocity": 51,
                "duration": 0.4022727,
                "tempo": 120.0
            }
        ]
    }
}