{
    "mood": "happy",
    "instruments": {
        "Oboe": [
            {
                "start_time": 0.2090909,
                "end_time": 0.3090909,
                "pitch": 36,
                "velocity": 80,
                "duration": 0.1,
                "tempo": 120.0
            },
            {
                "start_time": 0.7454545,
                "end_time": 0.8454545,
                "pitch": 43,
                "velocity": 80,
                "duration": 0.1,
                "tempo": 120.0
            },
            {
                "start_time": 1.2886364,
                "end_time": 1.3886364,
                "pitch": 36,
                "velocity": 80,
                "duration": 0.1,
                "tempo": 120.0
            },
            {
                "start_time": 1.825,
                "end_time": 1.925,
                "pitch": 43,
                "velocity": 80,
                "duration": 0.1,
                "tempo": 120.0
            },
            {
                "start_time": 2.3590909,
                "end_time": 2.4613636,
                "pitch": 36,
                "velocity": 80,
                "duration": 0.1022727,
                "tempo": 120.0
            },
            {
                "start_time": 2.9045455,
                "end_time": 3.0068182,
                "pitch": 43,
                "velocity": 80,
                "duration": 0.1022727,
                "tempo": 120.0
            },
            {
                "start_time": 3.45,
                "end_time": 3.5477273,
                "pitch": 36,
                "velocity": 80,
                "duration": 0.0977273,
                "tempo": 120.0
            },
            {
                "start_time": 3.9840909,
                "end_time": 4.0840909,
                "pitch": 43,
                "velocity": 80,
                "duration": 0.1,
                "tempo": 120.0
            },
            {
                "start_time": 4.5181818,
                "end_time": 4.6181818,
                "pitch": 36,
                "velocity": 80,
                "duration": 0.1,
                "tempo": 120.0
            },
            {
                "start_time": 5.0545455,
                "end_time": 5.1568182,
                "pitch": 43,
                "velocity": 80,
                "duration": 0.1022727,
                "tempo": 120.0
            },
            {
                "start_time": 5.6090909,
                "end_time": 5.7090909,
                "pitch": 36,
                "velocity": 80,
                "duration": 0.1,
                "tempo": 120.0
            },
            {
                "start_time": 6.1431818,
                "end_time": 6.2431818,
                "pitch": 43,
                "velocity": 80,
                "duration": 0.1,
                "tempo": 120.0
            },
            {
                "start_time": 6.6795455,
                "end_time": 6.7795455,
                "pitch": 36,
                "velocity": 80,
                "duration": 0.1,
                "tempo": 120.0
            },
            {
                "start_time": 7.2136364,
                "end_time": 7.3136364,
                "pitch": 43,
                "velocity": 80,
                "duration": 0.1,
                "tempo": 120.0
            },
            {
                "start_time": 7.75,
                "end_time": 7.85,
                "pitch": 36,
                "velocity": 80,
                "duration": 0.1,
                "tempo": 120.0
            },
            {
                "start_time": 8.2931818,
                "end_time": 8.3954545,
                "pitch": 43,
                "velocity": 80,
                "duration": 0.1022727,
                "tempo": 120.0
            },
            {
                "start_time": 8.8386364,
                "end_time": 8.9386364,
                "pitch": 36,
                "velocity": 80,
                "duration": 0.1,
                "tempo": 120.0
            },
            {
                "start_time": 9.3727273,
                "end_time": 9.475,
                "pitch": 43,
                "velocity": 80,
                "duration": 0.1022727,
                "tempo": 120.0
            },
            {
                "start_time": 9.9181818,
                "end_time": 10.0204545,
                "pitch": 36,
                "velocity": 80,
                "duration": 0.1022727,
                "tempo": 120.0
            },
            {
                "start_time": 10.4636364,
                "end_time": 10.5613636,
                "pitch": 43,
                "velocity": 80,
                "duration": 0.0977273,
                "tempo": 120.0
            },
            {
                "start_time": 10.9886364,
                "end_time": 11.0909091,
                "pitch": 36,
                "velocity": 80,
                "duration": 0.1022727,
                "tempo": 120.0
            },
            {
                "start_time": 11.5318182,
                "end_time": 11.6340909,
                "pitch": 43,
                "velocity": 80,
                "duration": 0.1022727,
                "tempo": 120.0
            },
            {
                "start_time": 12.0772727,
                "end_time": 12.1772727,
                "pitch": 36,
                "velocity": 80,
                "duration": 0.1,
                "tempo": 120.0
            },
            {
                "start_time": 12.6136364,
                "end_time": 12.7136364,
                "pitch": 43,
                "velocity": 80,
                "duration": 0.1,
                "tempo": 120.0
            },
            {
                "start_time": 13.1477273,
                "end_time": 13.2477273,
                "pitch": 36,
                "velocity": 80,
                "duration": 0.1,
                "tempo": 120.0
            },
            {
                "start_time": 13.6840909,
                "end_time": 13.7863636,
                "pitch": 43,
                "velocity": 80,
                "duration": 0.1022727,
                "tempo": 120.0
            },
            {
                "start_time": 14.2363636,
                "end_time": 14.3363636,
                "pitch": 36,
                "velocity": 80,
                "duration": 0.1,
                "tempo": 120.0
            },
            {
                "start_time": 14.7636364,
                "end_time": 14.8636364,
                "pitch": 43,
                "velocity": 80,
                "duration": 0.1,
                "tempo": 120.0
            },
            {
                "start_time": 15.2977273,
                "end_time": 15.3977273,
                "pitch": 36,
                "velocity": 80,
                "duration": 0.1,
                "tempo": 120.0
            },
            {
                "start_time": 15.8340909,
                "end_time": 15.9340909,
                "pitch": 43,
                "velocity": 80,
                "duration": 0.1,
                "tempo": 120.0
            },
            {
                "start_time": 16.3772727,
                "end_time": 16.4772727,
                "pitch": 36,
                "velocity": 80,
                "duration": 0.1,
                "tempo": 120.0
            },
            {
                "start_time": 16.9136364,
                "end_time": 17.0136364,
                "pitch": 43,
                "velocity": 80,
                "duration": 0.1,
                "tempo": 120.0
            },
            {
                "start_time": 17.4568182,
                "end_time": 17.5568182,
                "pitch": 36,
                "velocity": 80,
                "duration": 0.1,
                "tempo": 120.0
            },
            {
                "start_time": 17.9931818,
                "end_time": 18.0954545,
                "pitch": 43,
                "velocity": 80,
                "duration": 0.1022727,
                "tempo": 120.0
            },
            {
                "start_time": 18.5477273,
                "end_time": 18.6477273,
                "pitch": 36,
                "velocity": 80,
                "duration": 0.1,
                "tempo": 120.0
            },
            {
                "start_time": 19.0818182,
                "end_time": 19.1818182,
                "pitch": 43,
                "velocity": 80,
                "duration": 0.1,
                "tempo": 120.0
            },
            {
                "start_time": 19.6181818,
                "end_time": 19.7181818,
                "pitch": 36,
                "velocity": 80,
                "duration": 0.1,
                "tempo": 120.0
            },
            {
                "start_time": 20.1613636,
                "end_time": 20.2613636,
                "pitch": 43,
                "velocity": 80,
                "duration": 0.1,
                "tempo": 120.0
            },
            {
                "start_time": 20.6977273,
                "end_time": 20.7977273,
                "pitch": 36,
                "velocity": 80,
                "duration": 0.1,
                "tempo": 120.0
            },
            {
                "start_time": 21.2409091,
                "end_time": 21.3409091,
                "pitch": 43,
                "velocity": 80,
                "duration": 0.1,
                "tempo": 120.0
            },
            {
                "start_time": 21.7772727,
                "end_time": 21.8772727,
                "pitch": 36,
                "velocity": 80,
                "duration": 0.1,
                "tempo": 120.0
            },
            {
                "start_time": 22.3204545,
                "end_time": 22.4204545,
                "pitch": 43,
                "velocity": 80,
                "duration": 0.1,
                "tempo": 120.0
            },
            {
                "start_time": 22.8568182,
                "end_time": 22.9568182,
                "pitch": 36,
                "velocity": 80,
                "duration": 0.1,
                "tempo": 120.0
            },
            {
                "start_time": 23.3909091,
                "end_time": 23.4931818,
                "pitch": 43,
                "velocity": 80,
                "duration": 0.1022727,
                "tempo": 120.0
            },
            {
                "start_time": 23.9363636,
                "end_time": 24.0363636,
                "pitch": 36,
                "velocity": 80,
                "duration": 0.1,
                "tempo": 120.0
            },
            {
                "start_time": 24.4704545,
                "end_time": 24.5727273,
                "pitch": 43,
                "velocity": 80,
                "duration": 0.1022727,
                "tempo": 120.0
            },
            {
                "start_time": 25.0159091,
                "end_time": 25.1159091,
                "pitch": 36,
                "velocity": 80,
                "duration": 0.1,
                "tempo": 120.0
            },
            {
                "start_time": 25.55,
                "end_time": 25.6522727,
                "pitch": 43,
                "velocity": 80,
                "duration": 0.1022727,
                "tempo": 120.0
            },
            {
                "start_time": 26.0954545,
                "end_time": 26.1931818,
                "pitch": 36,
                "velocity": 80,
                "duration": 0.0977273,
                "tempo": 120.0
            },
            {
                "start_time": 26.6204545,
                "end_time": 26.7227273,
                "pitch": 43,
                "velocity": 80,
                "duration": 0.1022727,
                "tempo": 120.0
            },
            {
                "start_time": 27.1659091,
                "end_time": 27.2659091,
                "pitch": 36,
                "velocity": 80,
                "duration": 0.1,
                "tempo": 120.0
            },
            {
                "start_time": 27.7,
                "end_time": 27.8022727,
                "pitch": 43,
                "velocity": 80,
                "duration": 0.1022727,
                "tempo": 120.0
            },
            {
                "start_time": 28.2454545,
                "end_time": 28.3454545,
                "pitch": 36,
                "velocity": 80,
                "duration": 0.1,
                "tempo": 120.0
            },
            {
                "start_time": 28.7795455,
                "end_time": 28.8795455,
                "pitch": 43,
                "velocity": 80,
                "duration": 0.1,
                "tempo": 120.0
            },
            {
                "start_time": 29.3159091,
                "end_time": 29.4181818,
                "pitch": 36,
                "velocity": 80,
                "duration": 0.1022727,
                "tempo": 120.0
            },
            {
                "start_time": 29.8590909,
                "end_time": 29.9613636,
                "pitch": 43,
                "velocity": 80,
                "duration": 0.1022727,
                "tempo": 120.0
            },
            {
                "start_time": 30.4045455,
                "end_time": 30.5045455,
                "pitch": 36,
                "velocity": 80,
                "duration": 0.1,
                "tempo": 120.0
            },
            {
                "start_time": 30.9409091,
                "end_time": 31.0409091,
                "pitch": 43,
                "velocity": 80,
                "duration": 0.1,
                "tempo": 120.0
            },
            {
                "start_time": 31.475,
                "end_time": 31.575,
                "pitch": 36,
                "velocity": 80,
                "duration": 0.1,
                "tempo": 120.0
            },
            {
                "start_time": 32.0090909,
                "end_time": 32.1113636,
                "pitch": 43,
                "velocity": 80,
                "duration": 0.1022727,
                "tempo": 120.0
            },
            {
                "start_time": 32.5545455,
                "end_time": 32.6568182,
                "pitch": 36,
                "velocity": 80,
                "duration": 0.1022727,
                "tempo": 120.0
            },
            {
                "start_time": 33.1,
                "end_time": 33.2,
                "pitch": 43,
                "velocity": 80,
                "duration": 0.1,
                "tempo": 120.0
            },
            {
                "start_time": 33.6340909,
                "end_time": 33.7340909,
                "pitch": 36,
                "velocity": 80,
                "duration": 0.1,
                "tempo": 120.0
            },
            {
                "start_time": 34.1704545,
                "end_time": 34.2704545,
                "pitch": 43,
                "velocity": 80,
                "duration": 0.1,
                "tempo": 120.0
            },
            {
                "start_time": 34.7045455,
                "end_time": 34.8045455,
                "pitch": 36,
                "velocity": 80,
                "duration": 0.1,
                "tempo": 120.0
            },
            {
                "start_time": 35.2409091,
                "end_time": 35.3409091,
                "pitch": 43,
                "velocity": 80,
                "duration": 0.1,
                "tempo": 120.0
            },
            {
                "start_time": 35.775,
                "end_time": 35.8772727,
                "pitch": 36,
                "velocity": 80,
                "duration": 0.1022727,
                "tempo": 120.0
            },
            {
                "start_time": 36.3204545,
                "end_time": 36.4204545,
                "pitch": 43,
                "velocity": 80,
                "duration": 0.1,
                "tempo": 120.0
            },
            {
                "start_time": 36.8545455,
                "end_time": 36.9545455,
                "pitch": 36,
                "velocity": 80,
                "duration": 0.1,
                "tempo": 120.0
            },
            {
                "start_time": 37.3909091,
                "end_time": 37.4909091,
                "pitch": 43,
                "velocity": 80,
                "duration": 0.1,
                "tempo": 120.0
            },
            {
                "start_time": 37.9340909,
                "end_time": 38.0340909,
                "pitch": 36,
                "velocity": 80,
                "duration": 0.1,
                "tempo": 120.0
            },
            {
                "start_time": 38.4704545,
                "end_time": 38.5704545,
                "pitch": 43,
                "velocity": 80,
                "duration": 0.1,
                "tempo": 120.0
            },
            {
                "start_time": 39.0136364,
                "end_time": 39.1136364,
                "pitch": 36,
                "velocity": 80,
                "duration": 0.1,
                "tempo": 120.0
            },
            {
                "start_time": 39.55,
                "end_time": 39.65,
                "pitch": 43,
                "velocity": 80,
                "duration": 0.1,
                "tempo": 120.0
            },
            {
                "start_time": 40.0931818,
                "end_time": 40.1931818,
                "pitch": 36,
                "velocity": 80,
                "duration": 0.1,
                "tempo": 120.0
            },
            {
                "start_time": 40.6295455,
                "end_time": 40.7295455,
                "pitch": 43,
                "velocity": 80,
                "duration": 0.1,
                "tempo": 120.0
            },
            {
                "start_time": 41.1636364,
                "end_time": 41.2659091,
                "pitch": 36,
                "velocity": 80,
                "duration": 0.1022727,
                "tempo": 120.0
            },
            {
                "start_time": 41.7090909,
                "end_time": 41.8090909,
                "pitch": 43,
                "velocity": 80,
                "duration": 0.1,
                "tempo": 120.0
            },
            {
                "start_time": 42.2431818,
                "end_time": 42.3431818,
                "pitch": 36,
                "velocity": 80,
                "duration": 0.1,
                "tempo": 120.0
            },
            {
                "start_time": 42.7795455,
                "end_time": 42.8795455,
                "pitch": 43,
                "velocity": 80,
                "duration": 0.1,
                "tempo": 120.0
            },
            {
                "start_time": 43.3227273,
                "end_time": 43.4227273,
                "pitch": 36,
                "velocity": 80,
                "duration": 0.1,
                "tempo": 120.0
            },
            {
                "start_time": 43.8590909,
                "end_time": 43.9613636,
                "pitch": 43,
                "velocity": 80,
                "duration": 0.1022727,
                "tempo": 120.0
            },
            {
                "start_time": 44.4022727,
                "end_time": 44.5022727,
                "pitch": 36,
                "velocity": 80,
                "duration": 0.1,
                "tempo": 120.0
            },
            {
                "start_time": 44.9386364,
                "end_time": 45.0409091,
                "pitch": 43,
                "velocity": 80,
                "duration": 0.1022727,
                "tempo": 120.0
            },
            {
                "start_time": 45.4818182,
                "end_time": 45.5818182,
                "pitch": 36,
                "velocity": 80,
                "duration": 0.1,
                "tempo": 120.0
            },
            {
                "start_time": 46.0181818,
                "end_time": 46.1181818,
                "pitch": 43,
                "velocity": 80,
                "duration": 0.1,
                "tempo": 120.0
            },
            {
                "start_time": 46.5522727,
                "end_time": 46.6545455,
                "pitch": 36,
                "velocity": 80,
                "duration": 0.1022727,
                "tempo": 120.0
            },
            {
                "start_time": 47.0977273,
                "end_time": 47.1977273,
                "pitch": 43,
                "velocity": 80,
                "duration": 0.1,
                "tempo": 120.0
            },
            {
                "start_time": 47.6318182,
                "end_time": 47.7340909,
                "pitch": 36,
                "velocity": 80,
                "duration": 0.1022727,
                "tempo": 120.0
            },
            {
                "start_time": 48.1772727,
                "end_time": 48.2772727,
                "pitch": 43,
                "velocity": 80,
                "duration": 0.1,
                "tempo": 120.0
            },
            {
                "start_time": 48.7113636,
                "end_time": 48.8113636,
                "pitch": 36,
                "velocity": 80,
                "duration": 0.1,
                "tempo": 120.0
            },
            {
                "start_time": 49.2477273,
                "end_time": 49.35,
                "pitch": 43,
                "velocity": 80,
                "duration": 0.1022727,
                "tempo": 120.0
            },
            {
                "start_time": 49.7931818,
                "end_time": 49.8931818,
                "pitch": 36,
                "velocity": 80,
                "duration": 0.1,
                "tempo": 120.0
            },
            {
                "start_time": 50.3272727,
                "end_time": 50.4295455,
                "pitch": 43,
                "velocity": 80,
                "duration": 0.1022727,
                "tempo": 120.0
            },
            {
                "start_time": 50.8727273,
                "end_time": 50.9727273,
                "pitch": 36,
                "velocity": 80,
                "duration": 0.1,
                "tempo": 120.0
            },
            {
                "start_time": 51.4068182,
                "end_time": 51.5068182,
                "pitch": 43,
                "velocity": 80,
                "duration": 0.1,
                "tempo": 120.0
            },
            {
                "start_time": 51.9409091,
                "end_time": 52.0431818,
                "pitch": 36,
                "velocity": 80,
                "duration": 0.1022727,
                "tempo": 120.0
            },
            {
                "start_time": 52.4863636,
                "end_time": 52.5863636,
                "pitch": 43,
                "velocity": 80,
                "duration": 0.1,
                "tempo": 120.0
            },
            {
                "start_time": 53.0227273,
                "end_time": 53.1227273,
                "pitch": 36,
                "velocity": 80,
                "duration": 0.1,
                "tempo": 120.0
            },
            {
                "start_time": 53.5659091,
                "end_time": 53.6659091,
                "pitch": 43,
                "velocity": 80,
                "duration": 0.1,
                "tempo": 120.0
            },
            {
                "start_time": 54.1022727,
                "end_time": 54.2022727,
                "pitch": 36,
                "velocity": 80,
                "duration": 0.1,
                "tempo": 120.0
            },
            {
                "start_time": 54.6454545,
                "end_time": 54.7454545,
                "pitch": 43,
                "velocity": 80,
                "duration": 0.1,
                "tempo": 120.0
            },
            {
                "start_time": 55.1818182,
                "end_time": 55.2818182,
                "pitch": 36,
                "velocity": 80,
                "duration": 0.1,
                "tempo": 120.0
            },
            {
                "start_time": 55.7159091,
                "end_time": 55.8181818,
                "pitch": 43,
                "velocity": 80,
                "duration": 0.1022727,
                "tempo": 120.0
            },
            {
                "start_time": 56.2613636,
                "end_time": 56.3613636,
                "pitch": 36,
                "velocity": 80,
                "duration": 0.1,
                "tempo": 120.0
            },
            {
                "start_time": 56.7954545,
                "end_time": 56.8977273,
                "pitch": 43,
                "velocity": 80,
                "duration": 0.1022727,
                "tempo": 120.0
            },
            {
                "start_time": 57.3409091,
                "end_time": 57.4409091,
                "pitch": 36,
                "velocity": 80,
                "duration": 0.1,
                "tempo": 120.0
            },
            {
                "start_time": 57.875,
                "end_time": 57.9772727,
                "pitch": 43,
                "velocity": 80,
                "duration": 0.1022727,
                "tempo": 120.0
            },
            {
                "start_time": 58.4204545,
                "end_time": 58.5204545,
                "pitch": 36,
                "velocity": 80,
                "duration": 0.1,
                "tempo": 120.0
            },
            {
                "start_time": 58.9545455,
                "end_time": 59.0545455,
                "pitch": 43,
                "velocity": 80,
                "duration": 0.1,
                "tempo": 120.0
            },
            {
                "start_time": 59.4909091,
                "end_time": 59.5931818,
                "pitch": 36,
                "velocity": 80,
                "duration": 0.1022727,
                "tempo": 120.0
            },
            {
                "start_time": 60.0340909,
                "end_time": 60.1340909,
                "pitch": 43,
                "velocity": 80,
                "duration": 0.1,
                "tempo": 120.0
            },
            {
                "start_time": 60.5704545,
                "end_time": 60.6727273,
                "pitch": 36,
                "velocity": 80,
                "duration": 0.1022727,
                "tempo": 120.0
            },
            {
                "start_time": 61.1136364,
                "end_time": 61.2136364,
                "pitch": 43,
                "velocity": 80,
                "duration": 0.1,
                "tempo": 120.0
            },
            {
                "start_time": 61.65,
                "end_time": 61.75,
                "pitch": 36,
                "velocity": 80,
                "duration": 0.1,
                "tempo": 120.0
            },
            {
                "start_time": 62.1840909,
                "end_time": 62.2863636,
                "pitch": 43,
                "velocity": 80,
                "duration": 0.1022727,
                "tempo": 120.0
            },
            {
                "start_time": 62.7295455,
                "end_time": 62.8295455,
                "pitch": 36,
                "velocity": 80,
                "duration": 0.1,
                "tempo": 120.0
            },
            {
                "start_time": 63.2636364,
                "end_time": 63.3636364,
                "pitch": 43,
                "velocity": 80,
                "duration": 0.1,
                "tempo": 120.0
            },
            {
                "start_time": 63.8,
                "end_time": 63.9022727,
                "pitch": 36,
                "velocity": 80,
                "duration": 0.1022727,
                "tempo": 120.0
            },
            {
                "start_time": 64.3431818,
                "end_time": 64.4431818,
                "pitch": 43,
                "velocity": 80,
                "duration": 0.1,
                "tempo": 120.0
            },
            {
                "start_time": 64.8795455,
                "end_time": 64.9818182,
                "pitch": 36,
                "velocity": 80,
                "duration": 0.1022727,
                "tempo": 120.0
            },
            {
                "start_time": 65.425,
                "end_time": 65.525,
                "pitch": 43,
                "velocity": 80,
                "duration": 0.1,
                "tempo": 120.0
            },
            {
                "start_time": 65.9590909,
                "end_time": 66.0613636,
                "pitch": 36,
                "velocity": 80,
                "duration": 0.1022727,
                "tempo": 120.0
            },
            {
                "start_time": 66.5045455,
                "end_time": 66.6045455,
                "pitch": 43,
                "velocity": 80,
                "duration": 0.1,
                "tempo": 120.0
            },
            {
                "start_time": 67.0386364,
                "end_time": 67.1386364,
                "pitch": 36,
                "velocity": 80,
                "duration": 0.1,
                "tempo": 120.0
            },
            {
                "start_time": 67.5727273,
                "end_time": 67.675,
                "pitch": 43,
                "velocity": 80,
                "duration": 0.1022727,
                "tempo": 120.0
            },
            {
                "start_time": 68.1181818,
                "end_time": 68.2181818,
                "pitch": 36,
                "velocity": 80,
                "duration": 0.1,
                "tempo": 120.0
            },
            {
                "start_time": 68.6545455,
                "end_time": 68.7545455,
                "pitch": 43,
                "velocity": 80,
                "duration": 0.1,
                "tempo": 120.0
            }
        ],
        "Electric Piano 1": [
            {
                "start_time": 4.5204545,
                "end_time": 4.6022727,
                "pitch": 60,
                "velocity": 64,
                "duration": 0.0818182,
                "tempo": 120.0
            },
            {
                "start_time": 4.6022727,
                "end_time": 5.3318182,
                "pitch": 62,
                "velocity": 64,
                "duration": 0.7295455,
                "tempo": 120.0
            },
            {
                "start_time": 6.6818182,
                "end_time": 6.7636364,
                "pitch": 60,
                "velocity": 64,
                "duration": 0.0818182,
                "tempo": 120.0
            },
            {
                "start_time": 6.7636364,
                "end_time": 6.9477273,
                "pitch": 62,
                "velocity": 64,
                "duration": 0.1840909,
                "tempo": 120.0
            },
            {
                "start_time": 7.2159091,
                "end_time": 7.2977273,
                "pitch": 60,
                "velocity": 64,
                "duration": 0.0818182,
                "tempo": 120.0
            },
            {
                "start_time": 7.2977273,
                "end_time": 7.4818182,
                "pitch": 62,
                "velocity": 64,
                "duration": 0.1840909,
                "tempo": 120.0
            },
            {
                "start_time": 13.15,
                "end_time": 13.2318182,
                "pitch": 60,
                "velocity": 64,
                "duration": 0.0818182,
                "tempo": 120.0
            },
            {
                "start_time": 13.2318182,
                "end_time": 13.9613636,
                "pitch": 62,
                "velocity": 64,
                "duration": 0.7295455,
                "tempo": 120.0
            },
            {
                "start_time": 15.3,
                "end_time": 15.3818182,
                "pitch": 60,
                "velocity": 64,
                "duration": 0.0818182,
                "tempo": 120.0
            },
            {
                "start_time": 15.3818182,
                "end_time": 15.5659091,
                "pitch": 62,
                "velocity": 64,
                "duration": 0.1840909,
                "tempo": 120.0
            },
            {
                "start_time": 15.8340909,
                "end_time": 15.9181818,
                "pitch": 60,
                "velocity": 64,
                "duration": 0.0840909,
                "tempo": 120.0
            },
            {
                "start_time": 15.9181818,
                "end_time": 16.1068182,
                "pitch": 62,
                "velocity": 64,
                "duration": 0.1886364,
                "tempo": 120.0
            },
            {
                "start_time": 16.3795455,
                "end_time": 16.4795455,
                "pitch": 60,
                "velocity": 64,
                "duration": 0.1,
                "tempo": 120.0
            },
            {
                "start_time": 17.475,
                "end_time": 18.0090909,
                "pitch": 81,
                "velocity": 64,
                "duration": 0.5340909,
                "tempo": 120.0
            },
            {
                "start_time": 18.0090909,
                "end_time": 18.1318182,
                "pitch": 79,
                "velocity": 64,
                "duration": 0.1227273,
                "tempo": 120.0
            },
            {
                "start_time": 18.1318182,
                "end_time": 18.3045455,
                "pitch": 79,
                "velocity": 64,
                "duration": 0.1727273,
                "tempo": 120.0
            },
            {
                "start_time": 18.1318182,
                "end_time": 18.3045455,
                "pitch": 91,
                "velocity": 64,
                "duration": 0.1727273,
                "tempo": 120.0
            },
            {
                "start_time": 18.3045455,
                "end_time": 18.4772727,
                "pitch": 79,
                "velocity": 64,
                "duration": 0.1727273,
                "tempo": 120.0
            },
            {
                "start_time": 18.3045455,
                "end_time": 18.4772727,
                "pitch": 91,
                "velocity": 64,
                "duration": 0.1727273,
                "tempo": 120.0
            },
            {
                "start_time": 18.4772727,
                "end_time": 18.5636364,
                "pitch": 79,
                "velocity": 64,
                "duration": 0.0863636,
                "tempo": 120.0
            },
            {
                "start_time": 18.5636364,
                "end_time": 19.1,
                "pitch": 77,
                "velocity": 64,
                "duration": 0.5363636,
                "tempo": 120.0
            },
            {
                "start_time": 19.1,
                "end_time": 19.6340909,
                "pitch": 76,
                "velocity": 64,
                "duration": 0.5340909,
                "tempo": 120.0
            },
            {
                "start_time": 19.6340909,
                "end_time": 20.1795455,
                "pitch": 74,
                "velocity": 64,
                "duration": 0.5454545,
                "tempo": 120.0
            },
            {
                "start_time": 20.1795455,
                "end_time": 20.7136364,
                "pitch": 76,
                "velocity": 64,
                "duration": 0.5340909,
                "tempo": 120.0
            },
            {
                "start_time": 20.9863636,
                "end_time": 21.2590909,
                "pitch": 76,
                "velocity": 64,
                "duration": 0.2727273,
                "tempo": 120.0
            },
            {
                "start_time": 21.2590909,
                "end_time": 21.6590909,
                "pitch": 76,
                "velocity": 64,
                "duration": 0.4,
                "tempo": 120.0
            },
            {
                "start_time": 21.6613636,
                "end_time": 21.7931818,
                "pitch": 76,
                "velocity": 64,
                "duration": 0.1318182,
                "tempo": 120.0
            },
            {
                "start_time": 21.7931818,
                "end_time": 21.9136364,
                "pitch": 79,
                "velocity": 64,
                "duration": 0.1204545,
                "tempo": 120.0
            },
            {
                "start_time": 18.4772727,
                "end_time": 21.9136364,
                "pitch": 91,
                "velocity": 64,
                "duration": 3.4363636,
                "tempo": 120.0
            },
            {
                "start_time": 21.9136364,
                "end_time": 22.0818182,
                "pitch": 79,
                "velocity": 64,
                "duration": 0.1681818,
                "tempo": 120.0
            },
            {
                "start_time": 21.9136364,
                "end_time": 22.0840909,
                "pitch": 91,
                "velocity": 64,
                "duration": 0.1704545,
                "tempo": 120.0
            },
            {
                "start_time": 22.0818182,
                "end_time": 22.0840909,
                "pitch": 91,
                "velocity": 64,
                "duration": 0.0022727,
                "tempo": 120.0
            },
            {
                "start_time": 22.0840909,
                "end_time": 22.2022727,
                "pitch": 79,
                "velocity": 64,
                "duration": 0.1181818,
                "tempo": 120.0
            },
            {
                "start_time": 22.2022727,
                "end_time": 22.3386364,
                "pitch": 76,
                "velocity": 64,
                "duration": 0.1363636,
                "tempo": 120.0
            },
            {
                "start_time": 22.3386364,
                "end_time": 22.7386364,
                "pitch": 77,
                "velocity": 64,
                "duration": 0.4,
                "tempo": 120.0
            },
            {
                "start_time": 22.7409091,
                "end_time": 22.8727273,
                "pitch": 74,
                "velocity": 64,
                "duration": 0.1318182,
                "tempo": 120.0
            },
            {
                "start_time": 22.8727273,
                "end_time": 23.275,
                "pitch": 76,
                "velocity": 64,
                "duration": 0.4022727,
                "tempo": 120.0
            },
            {
                "start_time": 23.275,
                "end_time": 23.4090909,
                "pitch": 72,
                "velocity": 64,
                "duration": 0.1340909,
                "tempo": 120.0
            },
            {
                "start_time": 23.4090909,
                "end_time": 23.8159091,
                "pitch": 74,
                "velocity": 64,
                "duration": 0.4068182,
                "tempo": 120.0
            },
            {
                "start_time": 23.8181818,
                "end_time": 23.9522727,
                "pitch": 71,
                "velocity": 64,
                "duration": 0.1340909,
                "tempo": 120.0
            },
            {
                "start_time": 23.9545455,
                "end_time": 24.2204545,
                "pitch": 72,
                "velocity": 64,
                "duration": 0.2659091,
                "tempo": 120.0
            },
            {
                "start_time": 24.2204545,
                "end_time": 24.3386364,
                "pitch": 67,
                "velocity": 64,
                "duration": 0.1181818,
                "tempo": 120.0
            },
            {
                "start_time": 24.3386364,
                "end_time": 24.4886364,
                "pitch": 67,
                "velocity": 64,
                "duration": 0.15,
                "tempo": 120.0
            },
            {
                "start_time": 24.4886364,
                "end_time": 24.6068182,
                "pitch": 67,
                "velocity": 64,
                "duration": 0.1181818,
                "tempo": 120.0
            },
            {
                "start_time": 24.3386364,
                "end_time": 24.6068182,
                "pitch": 79,
                "velocity": 64,
                "duration": 0.2681818,
                "tempo": 120.0
            },
            {
                "start_time": 24.6068182,
                "end_time": 24.7772727,
                "pitch": 67,
                "velocity": 64,
                "duration": 0.1704545,
                "tempo": 120.0
            },
            {
                "start_time": 24.6068182,
                "end_time": 24.7772727,
                "pitch": 79,
                "velocity": 64,
                "duration": 0.1704545,
                "tempo": 120.0
            },
            {
                "start_time": 24.7772727,
                "end_time": 24.9477273,
                "pitch": 67,
                "velocity": 64,
                "duration": 0.1704545,
                "tempo": 120.0
            },
            {
                "start_time": 24.7772727,
                "end_time": 24.9477273,
                "pitch": 79,
                "velocity": 64,
                "duration": 0.1704545,
                "tempo": 120.0
            },
            {
                "start_time": 24.9477273,
                "end_time": 25.0318182,
                "pitch": 67,
                "velocity": 64,
                "duration": 0.0840909,
                "tempo": 120.0
            },
            {
                "start_time": 26.1113636,
                "end_time": 26.6386364,
                "pitch": 81,
                "velocity": 64,
                "duration": 0.5272727,
                "tempo": 120.0
            },
            {
                "start_time": 24.9477273,
                "end_time": 26.7568182,
                "pitch": 79,
                "velocity": 64,
                "duration": 1.8090909,
                "tempo": 120.0
            },
            {
                "start_time": 26.6386364,
                "end_time": 26.7568182,
                "pitch": 79,
                "velocity": 64,
                "duration": 0.1181818,
                "tempo": 120.0
            },
            {
                "start_time": 26.7568182,
                "end_time": 26.9272727,
                "pitch": 79,
                "velocity": 64,
                "duration": 0.1704545,
                "tempo": 120.0
            },
            {
                "start_time": 26.7568182,
                "end_time": 26.9272727,
                "pitch": 91,
                "velocity": 64,
                "duration": 0.1704545,
                "tempo": 120.0
            },
            {
                "start_time": 26.9272727,
                "end_time": 27.0977273,
                "pitch": 79,
                "velocity": 64,
                "duration": 0.1704545,
                "tempo": 120.0
            },
            {
                "start_time": 26.9272727,
                "end_time": 27.0977273,
                "pitch": 91,
                "velocity": 64,
                "duration": 0.1704545,
                "tempo": 120.0
            },
            {
                "start_time": 27.0977273,
                "end_time": 27.1818182,
                "pitch": 79,
                "velocity": 64,
                "duration": 0.0840909,
                "tempo": 120.0
            },
            {
                "start_time": 27.1840909,
                "end_time": 27.7181818,
                "pitch": 77,
                "velocity": 64,
                "duration": 0.5340909,
                "tempo": 120.0
            },
            {
                "start_time": 27.7181818,
                "end_time": 28.2613636,
                "pitch": 76,
                "velocity": 64,
                "duration": 0.5431818,
                "tempo": 120.0
            },
            {
                "start_time": 28.2636364,
                "end_time": 28.7977273,
                "pitch": 75,
                "velocity": 64,
                "duration": 0.5340909,
                "tempo": 120.0
            },
            {
                "start_time": 28.7977273,
                "end_time": 29.3318182,
                "pitch": 76,
                "velocity": 64,
                "duration": 0.5340909,
                "tempo": 120.0
            },
            {
                "start_time": 29.6045455,
                "end_time": 29.8772727,
                "pitch": 76,
                "velocity": 64,
                "duration": 0.2727273,
                "tempo": 120.0
            },
            {
                "start_time": 29.8772727,
                "end_time": 30.2863636,
                "pitch": 76,
                "velocity": 64,
                "duration": 0.4090909,
                "tempo": 120.0
            },
            {
                "start_time": 30.2863636,
                "end_time": 30.4227273,
                "pitch": 76,
                "velocity": 64,
                "duration": 0.1363636,
                "tempo": 120.0
            },
            {
                "start_time": 30.5568182,
                "end_time": 30.8227273,
                "pitch": 76,
                "velocity": 64,
                "duration": 0.2659091,
                "tempo": 120.0
            },
            {
                "start_time": 30.8227273,
                "end_time": 31.0909091,
                "pitch": 76,
                "velocity": 64,
                "duration": 0.2681818,
                "tempo": 120.0
            },
            {
                "start_time": 31.0909091,
                "end_time": 31.3590909,
                "pitch": 76,
                "velocity": 64,
                "duration": 0.2681818,
                "tempo": 120.0
            },
            {
                "start_time": 31.3590909,
                "end_time": 31.625,
                "pitch": 76,
                "velocity": 64,
                "duration": 0.2659091,
                "tempo": 120.0
            },
            {
                "start_time": 31.625,
                "end_time": 31.8931818,
                "pitch": 76,
                "velocity": 64,
                "duration": 0.2681818,
                "tempo": 120.0
            },
            {
                "start_time": 31.8931818,
                "end_time": 32.1636364,
                "pitch": 76,
                "velocity": 64,
                "duration": 0.2704545,
                "tempo": 120.0
            },
            {
                "start_time": 32.1636364,
                "end_time": 32.4363636,
                "pitch": 76,
                "velocity": 64,
                "duration": 0.2727273,
                "tempo": 120.0
            },
            {
                "start_time": 32.4363636,
                "end_time": 32.5727273,
                "pitch": 76,
                "velocity": 64,
                "duration": 0.1363636,
                "tempo": 120.0
            },
            {
                "start_time": 32.5727273,
                "end_time": 32.8454545,
                "pitch": 76,
                "velocity": 64,
                "duration": 0.2727273,
                "tempo": 120.0
            },
            {
                "start_time": 32.8454545,
                "end_time": 33.1159091,
                "pitch": 77,
                "velocity": 64,
                "duration": 0.2704545,
                "tempo": 120.0
            },
            {
                "start_time": 33.1159091,
                "end_time": 33.3840909,
                "pitch": 76,
                "velocity": 64,
                "duration": 0.2681818,
                "tempo": 120.0
            },
            {
                "start_time": 33.3840909,
                "end_time": 33.6522727,
                "pitch": 77,
                "velocity": 64,
                "duration": 0.2681818,
                "tempo": 120.0
            },
            {
                "start_time": 33.6522727,
                "end_time": 34.1863636,
                "pitch": 76,
                "velocity": 64,
                "duration": 0.5340909,
                "tempo": 120.0
            },
            {
                "start_time": 34.1863636,
                "end_time": 34.7068182,
                "pitch": 76,
                "velocity": 64,
                "duration": 0.5204545,
                "tempo": 120.0
            },
            {
                "start_time": 39.0159091,
                "end_time": 39.0977273,
                "pitch": 60,
                "velocity": 64,
                "duration": 0.0818182,
                "tempo": 120.0
            },
            {
                "start_time": 39.0977273,
                "end_time": 39.8227273,
                "pitch": 62,
                "velocity": 64,
                "duration": 0.725,
                "tempo": 120.0
            },
            {
                "start_time": 41.1659091,
                "end_time": 41.25,
                "pitch": 60,
                "velocity": 64,
                "duration": 0.0840909,
                "tempo": 120.0
            },
            {
                "start_time": 41.25,
                "end_time": 41.4363636,
                "pitch": 62,
                "velocity": 64,
                "duration": 0.1863636,
                "tempo": 120.0
            },
            {
                "start_time": 41.7113636,
                "end_time": 41.7931818,
                "pitch": 60,
                "velocity": 64,
                "duration": 0.0818182,
                "tempo": 120.0
            },
            {
                "start_time": 41.7931818,
                "end_time": 41.9772727,
                "pitch": 62,
                "velocity": 64,
                "duration": 0.1840909,
                "tempo": 120.0
            },
            {
                "start_time": 47.6340909,
                "end_time": 47.7181818,
                "pitch": 60,
                "velocity": 64,
                "duration": 0.0840909,
                "tempo": 120.0
            },
            {
                "start_time": 47.7181818,
                "end_time": 48.4454545,
                "pitch": 62,
                "velocity": 64,
                "duration": 0.7272727,
                "tempo": 120.0
            },
            {
                "start_time": 49.7931818,
                "end_time": 49.875,
                "pitch": 60,
                "velocity": 64,
                "duration": 0.0818182,
                "tempo": 120.0
            },
            {
                "start_time": 49.875,
                "end_time": 50.0613636,
                "pitch": 62,
                "velocity": 64,
                "duration": 0.1863636,
                "tempo": 120.0
            },
            {
                "start_time": 50.3295455,
                "end_time": 50.4136364,
                "pitch": 60,
                "velocity": 64,
                "duration": 0.0840909,
                "tempo": 120.0
            },
            {
                "start_time": 50.4136364,
                "end_time": 50.6,
                "pitch": 62,
                "velocity": 64,
                "duration": 0.1863636,
                "tempo": 120.0
            },
            {
                "start_time": 50.8727273,
                "end_time": 50.9727273,
                "pitch": 60,
                "velocity": 64,
                "duration": 0.1,
                "tempo": 120.0
            },
            {
                "start_time": 51.9590909,
                "end_time": 52.5045455,
                "pitch": 81,
                "velocity": 64,
                "duration": 0.5454545,
                "tempo": 120.0
            },
            {
                "start_time": 52.5045455,
                "end_time": 52.6204545,
                "pitch": 79,
                "velocity": 64,
                "duration": 0.1159091,
                "tempo": 120.0
            },
            {
                "start_time": 27.0977273,
                "end_time": 52.6204545,
                "pitch": 91,
                "velocity": 64,
                "duration": 25.5227273,
                "tempo": 120.0
            },
            {
                "start_time": 52.6204545,
                "end_time": 52.7886364,
                "pitch": 79,
                "velocity": 64,
                "duration": 0.1681818,
                "tempo": 120.0
            },
            {
                "start_time": 52.6204545,
                "end_time": 52.7886364,
                "pitch": 91,
                "velocity": 64,
                "duration": 0.1681818,
                "tempo": 120.0
            },
            {
                "start_time": 52.7886364,
                "end_time": 52.9545455,
                "pitch": 79,
                "velocity": 64,
                "duration": 0.1659091,
                "tempo": 120.0
            },
            {
                "start_time": 52.7886364,
                "end_time": 52.9545455,
                "pitch": 91,
                "velocity": 64,
                "duration": 0.1659091,
                "tempo": 120.0
            },
            {
                "start_time": 52.9545455,
                "end_time": 53.0386364,
                "pitch": 79,
                "velocity": 64,
                "duration": 0.0840909,
                "tempo": 120.0
            },
            {
                "start_time": 53.0386364,
                "end_time": 53.5840909,
                "pitch": 77,
                "velocity": 64,
                "duration": 0.5454545,
                "tempo": 120.0
            },
            {
                "start_time": 53.5840909,
                "end_time": 54.1181818,
                "pitch": 76,
                "velocity": 64,
                "duration": 0.5340909,
                "tempo": 120.0
            },
            {
                "start_time": 54.1181818,
                "end_time": 54.6636364,
                "pitch": 74,
                "velocity": 64,
                "duration": 0.5454545,
                "tempo": 120.0
            },
            {
                "start_time": 54.6636364,
                "end_time": 55.1977273,
                "pitch": 76,
                "velocity": 64,
                "duration": 0.5340909,
                "tempo": 120.0
            },
            {
                "start_time": 55.4659091,
                "end_time": 55.7340909,
                "pitch": 76,
                "velocity": 64,
                "duration": 0.2681818,
                "tempo": 120.0
            },
            {
                "start_time": 55.7340909,
                "end_time": 56.1409091,
                "pitch": 76,
                "velocity": 64,
                "duration": 0.4068182,
                "tempo": 120.0
            },
            {
                "start_time": 56.1431818,
                "end_time": 56.2772727,
                "pitch": 76,
                "velocity": 64,
                "duration": 0.1340909,
                "tempo": 120.0
            },
            {
                "start_time": 56.2772727,
                "end_time": 56.3954545,
                "pitch": 79,
                "velocity": 64,
                "duration": 0.1181818,
                "tempo": 120.0
            },
            {
                "start_time": 52.9545455,
                "end_time": 56.3954545,
                "pitch": 91,
                "velocity": 64,
                "duration": 3.4409091,
                "tempo": 120.0
            },
            {
                "start_time": 56.3954545,
                "end_time": 56.5613636,
                "pitch": 79,
                "velocity": 64,
                "duration": 0.1659091,
                "tempo": 120.0
            },
            {
                "start_time": 56.3954545,
                "end_time": 56.5613636,
                "pitch": 91,
                "velocity": 64,
                "duration": 0.1659091,
                "tempo": 120.0
            },
            {
                "start_time": 56.5613636,
                "end_time": 56.6795455,
                "pitch": 79,
                "velocity": 64,
                "duration": 0.1181818,
                "tempo": 120.0
            },
            {
                "start_time": 56.6795455,
                "end_time": 56.8136364,
                "pitch": 76,
                "velocity": 64,
                "duration": 0.1340909,
                "tempo": 120.0
            },
            {
                "start_time": 56.8136364,
                "end_time": 57.2204545,
                "pitch": 77,
                "velocity": 64,
                "duration": 0.4068182,
                "tempo": 120.0
            },
            {
                "start_time": 57.2227273,
                "end_time": 57.3568182,
                "pitch": 74,
                "velocity": 64,
                "duration": 0.1340909,
                "tempo": 120.0
            },
            {
                "start_time": 57.3568182,
                "end_time": 57.7590909,
                "pitch": 76,
                "velocity": 64,
                "duration": 0.4022727,
                "tempo": 120.0
            },
            {
                "start_time": 57.7590909,
                "end_time": 57.8931818,
                "pitch": 72,
                "velocity": 64,
                "duration": 0.1340909,
                "tempo": 120.0
            },
            {
                "start_time": 57.8931818,
                "end_time": 58.3022727,
                "pitch": 74,
                "velocity": 64,
                "duration": 0.4090909,
                "tempo": 120.0
            },
            {
                "start_time": 58.3022727,
                "end_time": 58.4363636,
                "pitch": 71,
                "velocity": 64,
                "duration": 0.1340909,
                "tempo": 120.0
            },
            {
                "start_time": 58.4386364,
                "end_time": 58.7045455,
                "pitch": 72,
                "velocity": 64,
                "duration": 0.2659091,
                "tempo": 120.0
            },
            {
                "start_time": 58.7045455,
                "end_time": 58.8204545,
                "pitch": 67,
                "velocity": 64,
                "duration": 0.1159091,
                "tempo": 120.0
            },
            {
                "start_time": 58.8204545,
                "end_time": 58.9727273,
                "pitch": 67,
                "velocity": 64,
                "duration": 0.1522727,
                "tempo": 120.0
            },
            {
                "start_time": 58.9727273,
                "end_time": 59.0886364,
                "pitch": 67,
                "velocity": 64,
                "duration": 0.1159091,
                "tempo": 120.0
            },
            {
                "start_time": 58.8204545,
                "end_time": 59.0886364,
                "pitch": 79,
                "velocity": 64,
                "duration": 0.2681818,
                "tempo": 120.0
            },
            {
                "start_time": 59.0886364,
                "end_time": 59.2568182,
                "pitch": 67,
                "velocity": 64,
                "duration": 0.1681818,
                "tempo": 120.0
            },
            {
                "start_time": 59.0886364,
                "end_time": 59.2568182,
                "pitch": 79,
                "velocity": 64,
                "duration": 0.1681818,
                "tempo": 120.0
            },
            {
                "start_time": 59.2568182,
                "end_time": 59.4227273,
                "pitch": 67,
                "velocity": 64,
                "duration": 0.1659091,
                "tempo": 120.0
            },
            {
                "start_time": 59.2568182,
                "end_time": 59.4227273,
                "pitch": 79,
                "velocity": 64,
                "duration": 0.1659091,
                "tempo": 120.0
            },
            {
                "start_time": 59.4227273,
                "end_time": 59.5068182,
                "pitch": 67,
                "velocity": 64,
                "duration": 0.0840909,
                "tempo": 120.0
            },
            {
                "start_time": 60.5886364,
                "end_time": 61.1318182,
                "pitch": 81,
                "velocity": 64,
                "duration": 0.5431818,
                "tempo": 120.0
            },
            {
                "start_time": 59.4227273,
                "end_time": 61.2477273,
                "pitch": 79,
                "velocity": 64,
                "duration": 1.825,
                "tempo": 120.0
            },
            {
                "start_time": 61.1318182,
                "end_time": 61.2477273,
                "pitch": 79,
                "velocity": 64,
                "duration": 0.1159091,
                "tempo": 120.0
            },
            {
                "start_time": 56.5613636,
                "end_time": 61.2477273,
                "pitch": 91,
                "velocity": 64,
                "duration": 4.6863636,
                "tempo": 120.0
            },
            {
                "start_time": 61.2477273,
                "end_time": 61.4159091,
                "pitch": 79,
                "velocity": 64,
                "duration": 0.1681818,
                "tempo": 120.0
            },
            {
                "start_time": 61.2477273,
                "end_time": 61.4159091,
                "pitch": 91,
                "velocity": 64,
                "duration": 0.1681818,
                "tempo": 120.0
            },
            {
                "start_time": 61.4159091,
                "end_time": 61.5818182,
                "pitch": 79,
                "velocity": 64,
                "duration": 0.1659091,
                "tempo": 120.0
            },
            {
                "start_time": 61.4159091,
                "end_time": 61.5840909,
                "pitch": 91,
                "velocity": 64,
                "duration": 0.1681818,
                "tempo": 120.0
            },
            {
                "start_time": 61.5818182,
                "end_time": 61.5840909,
                "pitch": 91,
                "velocity": 64,
                "duration": 0.0022727,
                "tempo": 120.0
            },
            {
                "start_time": 61.5840909,
                "end_time": 61.6659091,
                "pitch": 79,
                "velocity": 64,
                "duration": 0.0818182,
                "tempo": 120.0
            },
            {
                "start_time": 61.6659091,
                "end_time": 62.2022727,
                "pitch": 77,
                "velocity": 64,
                "duration": 0.5363636,
                "tempo": 120.0
            },
            {
                "start_time": 62.2022727,
                "end_time": 62.7454545,
                "pitch": 76,
                "velocity": 64,
                "duration": 0.5431818,
                "tempo": 120.0
            },
            {
                "start_time": 62.7477273,
                "end_time": 63.2818182,
                "pitch": 75,
                "velocity": 64,
                "duration": 0.5340909,
                "tempo": 120.0
            },
            {
                "start_time": 63.2818182,
                "end_time": 63.8159091,
                "pitch": 76,
                "velocity": 64,
                "duration": 0.5340909,
                "tempo": 120.0
            },
            {
                "start_time": 64.0886364,
                "end_time": 64.3613636,
                "pitch": 76,
                "velocity": 64,
                "duration": 0.2727273,
                "tempo": 120.0
            },
            {
                "start_time": 64.3613636,
                "end_time": 64.7613636,
                "pitch": 76,
                "velocity": 64,
                "duration": 0.4,
                "tempo": 120.0
            },
            {
                "start_time": 64.7636364,
                "end_time": 64.8954545,
                "pitch": 76,
                "velocity": 64,
                "duration": 0.1318182,
                "tempo": 120.0
            },
            {
                "start_time": 65.0340909,
                "end_time": 65.3045455,
                "pitch": 76,
                "velocity": 64,
                "duration": 0.2704545,
                "tempo": 120.0
            },
            {
                "start_time": 65.3045455,
                "end_time": 65.575,
                "pitch": 76,
                "velocity": 64,
                "duration": 0.2704545,
                "tempo": 120.0
            },
            {
                "start_time": 65.575,
                "end_time": 65.8431818,
                "pitch": 76,
                "velocity": 64,
                "duration": 0.2681818,
                "tempo": 120.0
            },
            {
                "start_time": 65.8431818,
                "end_time": 66.1113636,
                "pitch": 76,
                "velocity": 64,
                "duration": 0.2681818,
                "tempo": 120.0
            },
            {
                "start_time": 66.1136364,
                "end_time": 66.3840909,
                "pitch": 76,
                "velocity": 64,
                "duration": 0.2704545,
                "tempo": 120.0
            },
            {
                "start_time": 66.3840909,
                "end_time": 66.6545455,
                "pitch": 76,
                "velocity": 64,
                "duration": 0.2704545,
                "tempo": 120.0
            },
            {
                "start_time": 66.6545455,
                "end_time": 66.9227273,
                "pitch": 76,
                "velocity": 64,
                "duration": 0.2681818,
                "tempo": 120.0
            },
            {
                "start_time": 66.9227273,
                "end_time": 67.0545455,
                "pitch": 76,
                "velocity": 64,
                "duration": 0.1318182,
                "tempo": 120.0
            },
            {
                "start_time": 67.0568182,
                "end_time": 67.3227273,
                "pitch": 76,
                "velocity": 64,
                "duration": 0.2659091,
                "tempo": 120.0
            },
            {
                "start_time": 67.3227273,
                "end_time": 67.5909091,
                "pitch": 77,
                "velocity": 64,
                "duration": 0.2681818,
                "tempo": 120.0
            },
            {
                "start_time": 67.5909091,
                "end_time": 67.8636364,
                "pitch": 76,
                "velocity": 64,
                "duration": 0.2727273,
                "tempo": 120.0
            },
            {
                "start_time": 67.8636364,
                "end_time": 68.1363636,
                "pitch": 77,
                "velocity": 64,
                "duration": 0.2727273,
                "tempo": 120.0
            },
            {
                "start_time": 68.1363636,
                "end_time": 68.6704545,
                "pitch": 76,
                "velocity": 64,
                "duration": 0.5340909,
                "tempo": 120.0
            },
            {
                "start_time": 68.6704545,
                "end_time": 69.1977273,
                "pitch": 76,
                "velocity": 64,
                "duration": 0.5272727,
                "tempo": 120.0
            }
        ],
        "Vibraphone": [
            {
                "start_time": 8.8409091,
                "end_time": 9.1068182,
                "pitch": 60,
                "velocity": 40,
                "duration": 0.2659091,
                "tempo": 120.0
            },
            {
                "start_time": 9.1090909,
                "end_time": 9.1386364,
                "pitch": 67,
                "velocity": 40,
                "duration": 0.0295455,
                "tempo": 120.0
            },
            {
                "start_time": 9.1386364,
                "end_time": 9.1909091,
                "pitch": 67,
                "velocity": 40,
                "duration": 0.0522727,
                "tempo": 120.0
            },
            {
                "start_time": 9.1386364,
                "end_time": 9.3068182,
                "pitch": 0,
                "velocity": 40,
                "duration": 0.1681818,
                "tempo": 120.0
            },
            {
                "start_time": 9.1909091,
                "end_time": 9.3068182,
                "pitch": 67,
                "velocity": 40,
                "duration": 0.1159091,
                "tempo": 120.0
            },
            {
                "start_time": 9.3068182,
                "end_time": 9.3568182,
                "pitch": 67,
                "velocity": 40,
                "duration": 0.05,
                "tempo": 120.0
            },
            {
                "start_time": 9.1909091,
                "end_time": 9.3568182,
                "pitch": 79,
                "velocity": 40,
                "duration": 0.1659091,
                "tempo": 120.0
            },
            {
                "start_time": 9.3068182,
                "end_time": 9.475,
                "pitch": 0,
                "velocity": 40,
                "duration": 0.1681818,
                "tempo": 120.0
            },
            {
                "start_time": 9.3568182,
                "end_time": 9.475,
                "pitch": 67,
                "velocity": 40,
                "duration": 0.1181818,
                "tempo": 120.0
            },
            {
                "start_time": 9.475,
                "end_time": 9.5272727,
                "pitch": 67,
                "velocity": 40,
                "duration": 0.0522727,
                "tempo": 120.0
            },
            {
                "start_time": 9.3568182,
                "end_time": 9.5272727,
                "pitch": 79,
                "velocity": 40,
                "duration": 0.1704545,
                "tempo": 120.0
            },
            {
                "start_time": 9.475,
                "end_time": 9.6454545,
                "pitch": 0,
                "velocity": 40,
                "duration": 0.1704545,
                "tempo": 120.0
            },
            {
                "start_time": 9.5272727,
                "end_time": 9.6454545,
                "pitch": 67,
                "velocity": 40,
                "duration": 0.1181818,
                "tempo": 120.0
            },
            {
                "start_time": 9.6454545,
                "end_time": 9.6977273,
                "pitch": 67,
                "velocity": 40,
                "duration": 0.0522727,
                "tempo": 120.0
            },
            {
                "start_time": 9.5272727,
                "end_time": 9.6977273,
                "pitch": 79,
                "velocity": 40,
                "duration": 0.1704545,
                "tempo": 120.0
            },
            {
                "start_time": 9.6454545,
                "end_time": 9.8159091,
                "pitch": 0,
                "velocity": 40,
                "duration": 0.1704545,
                "tempo": 120.0
            },
            {
                "start_time": 9.6977273,
                "end_time": 9.8159091,
                "pitch": 67,
                "velocity": 40,
                "duration": 0.1181818,
                "tempo": 120.0
            },
            {
                "start_time": 9.8159091,
                "end_time": 9.8681818,
                "pitch": 67,
                "velocity": 40,
                "duration": 0.0522727,
                "tempo": 120.0
            },
            {
                "start_time": 9.6977273,
                "end_time": 9.8681818,
                "pitch": 79,
                "velocity": 40,
                "duration": 0.1704545,
                "tempo": 120.0
            },
            {
                "start_time": 9.8159091,
                "end_time": 9.9863636,
                "pitch": 0,
                "velocity": 40,
                "duration": 0.1704545,
                "tempo": 120.0
            },
            {
                "start_time": 9.8681818,
                "end_time": 9.9863636,
                "pitch": 67,
                "velocity": 40,
                "duration": 0.1181818,
                "tempo": 120.0
            },
            {
                "start_time": 9.9863636,
                "end_time": 10.0386364,
                "pitch": 67,
                "velocity": 40,
                "duration": 0.0522727,
                "tempo": 120.0
            },
            {
                "start_time": 9.8681818,
                "end_time": 10.0386364,
                "pitch": 79,
                "velocity": 40,
                "duration": 0.1704545,
                "tempo": 120.0
            },
            {
                "start_time": 9.9863636,
                "end_time": 10.1568182,
                "pitch": 0,
                "velocity": 40,
                "duration": 0.1704545,
                "tempo": 120.0
            },
            {
                "start_time": 10.0386364,
                "end_time": 10.1568182,
                "pitch": 67,
                "velocity": 40,
                "duration": 0.1181818,
                "tempo": 120.0
            },
            {
                "start_time": 10.1568182,
                "end_time": 10.2068182,
                "pitch": 67,
                "velocity": 40,
                "duration": 0.05,
                "tempo": 120.0
            },
            {
                "start_time": 10.0386364,
                "end_time": 10.2090909,
                "pitch": 79,
                "velocity": 40,
                "duration": 0.1704545,
                "tempo": 120.0
            },
            {
                "start_time": 10.2068182,
                "end_time": 10.2090909,
                "pitch": 79,
                "velocity": 40,
                "duration": 0.0022727,
                "tempo": 120.0
            },
            {
                "start_time": 10.1568182,
                "end_time": 10.3272727,
                "pitch": 0,
                "velocity": 40,
                "duration": 0.1704545,
                "tempo": 120.0
            },
            {
                "start_time": 10.2090909,
                "end_time": 10.3272727,
                "pitch": 67,
                "velocity": 40,
                "duration": 0.1181818,
                "tempo": 120.0
            },
            {
                "start_time": 10.3272727,
                "end_time": 10.3772727,
                "pitch": 67,
                "velocity": 40,
                "duration": 0.05,
                "tempo": 120.0
            },
            {
                "start_time": 10.3272727,
                "end_time": 10.4954545,
                "pitch": 0,
                "velocity": 40,
                "duration": 0.1681818,
                "tempo": 120.0
            },
            {
                "start_time": 10.3772727,
                "end_time": 10.4954545,
                "pitch": 67,
                "velocity": 40,
                "duration": 0.1181818,
                "tempo": 120.0
            },
            {
                "start_time": 10.4954545,
                "end_time": 10.5136364,
                "pitch": 67,
                "velocity": 40,
                "duration": 0.0181818,
                "tempo": 120.0
            },
            {
                "start_time": 10.3772727,
                "end_time": 10.5136364,
                "pitch": 79,
                "velocity": 40,
                "duration": 0.1363636,
                "tempo": 120.0
            },
            {
                "start_time": 10.5136364,
                "end_time": 10.9909091,
                "pitch": 67,
                "velocity": 40,
                "duration": 0.4772727,
                "tempo": 120.0
            },
            {
                "start_time": 10.9909091,
                "end_time": 11.2636364,
                "pitch": 72,
                "velocity": 40,
                "duration": 0.2727273,
                "tempo": 120.0
            },
            {
                "start_time": 10.4954545,
                "end_time": 11.2954545,
                "pitch": 0,
                "velocity": 40,
                "duration": 0.8,
                "tempo": 120.0
            },
            {
                "start_time": 10.5136364,
                "end_time": 11.2954545,
                "pitch": 79,
                "velocity": 40,
                "duration": 0.7818182,
                "tempo": 120.0
            },
            {
                "start_time": 11.2636364,
                "end_time": 11.2954545,
                "pitch": 79,
                "velocity": 40,
                "duration": 0.0318182,
                "tempo": 120.0
            },
            {
                "start_time": 11.2954545,
                "end_time": 11.3454545,
                "pitch": 79,
                "velocity": 40,
                "duration": 0.05,
                "tempo": 120.0
            },
            {
                "start_time": 11.2954545,
                "end_time": 11.4659091,
                "pitch": 0,
                "velocity": 40,
                "duration": 0.1704545,
                "tempo": 120.0
            },
            {
                "start_time": 11.3454545,
                "end_time": 11.4659091,
                "pitch": 79,
                "velocity": 40,
                "duration": 0.1204545,
                "tempo": 120.0
            },
            {
                "start_time": 11.4659091,
                "end_time": 11.5159091,
                "pitch": 79,
                "velocity": 40,
                "duration": 0.05,
                "tempo": 120.0
            },
            {
                "start_time": 11.3454545,
                "end_time": 11.5159091,
                "pitch": 91,
                "velocity": 40,
                "duration": 0.1704545,
                "tempo": 120.0
            },
            {
                "start_time": 11.4659091,
                "end_time": 11.6363636,
                "pitch": 0,
                "velocity": 40,
                "duration": 0.1704545,
                "tempo": 120.0
            },
            {
                "start_time": 11.5159091,
                "end_time": 11.6363636,
                "pitch": 79,
                "velocity": 40,
                "duration": 0.1204545,
                "tempo": 120.0
            },
            {
                "start_time": 11.6363636,
                "end_time": 11.6863636,
                "pitch": 79,
                "velocity": 40,
                "duration": 0.05,
                "tempo": 120.0
            },
            {
                "start_time": 11.5159091,
                "end_time": 11.6863636,
                "pitch": 91,
                "velocity": 40,
                "duration": 0.1704545,
                "tempo": 120.0
            },
            {
                "start_time": 11.6363636,
                "end_time": 11.8068182,
                "pitch": 0,
                "velocity": 40,
                "duration": 0.1704545,
                "tempo": 120.0
            },
            {
                "start_time": 11.6863636,
                "end_time": 11.8068182,
                "pitch": 79,
                "velocity": 40,
                "duration": 0.1204545,
                "tempo": 120.0
            },
            {
                "start_time": 11.8068182,
                "end_time": 11.8568182,
                "pitch": 79,
                "velocity": 40,
                "duration": 0.05,
                "tempo": 120.0
            },
            {
                "start_time": 11.6863636,
                "end_time": 11.8568182,
                "pitch": 91,
                "velocity": 40,
                "duration": 0.1704545,
                "tempo": 120.0
            },
            {
                "start_time": 11.8068182,
                "end_time": 11.975,
                "pitch": 0,
                "velocity": 40,
                "duration": 0.1681818,
                "tempo": 120.0
            },
            {
                "start_time": 11.8568182,
                "end_time": 11.975,
                "pitch": 79,
                "velocity": 40,
                "duration": 0.1181818,
                "tempo": 120.0
            },
            {
                "start_time": 11.975,
                "end_time": 12.0272727,
                "pitch": 79,
                "velocity": 40,
                "duration": 0.0522727,
                "tempo": 120.0
            },
            {
                "start_time": 11.8568182,
                "end_time": 12.0272727,
                "pitch": 91,
                "velocity": 40,
                "duration": 0.1704545,
                "tempo": 120.0
            },
            {
                "start_time": 11.975,
                "end_time": 12.1454545,
                "pitch": 0,
                "velocity": 40,
                "duration": 0.1704545,
                "tempo": 120.0
            },
            {
                "start_time": 12.0272727,
                "end_time": 12.1454545,
                "pitch": 79,
                "velocity": 40,
                "duration": 0.1181818,
                "tempo": 120.0
            },
            {
                "start_time": 12.1454545,
                "end_time": 12.1954545,
                "pitch": 79,
                "velocity": 40,
                "duration": 0.05,
                "tempo": 120.0
            },
            {
                "start_time": 12.0272727,
                "end_time": 12.1954545,
                "pitch": 91,
                "velocity": 40,
                "duration": 0.1681818,
                "tempo": 120.0
            },
            {
                "start_time": 12.1454545,
                "end_time": 12.3113636,
                "pitch": 0,
                "velocity": 40,
                "duration": 0.1659091,
                "tempo": 120.0
            },
            {
                "start_time": 12.1954545,
                "end_time": 12.3113636,
                "pitch": 79,
                "velocity": 40,
                "duration": 0.1159091,
                "tempo": 120.0
            },
            {
                "start_time": 12.3113636,
                "end_time": 12.3636364,
                "pitch": 79,
                "velocity": 40,
                "duration": 0.0522727,
                "tempo": 120.0
            },
            {
                "start_time": 12.1954545,
                "end_time": 12.3636364,
                "pitch": 91,
                "velocity": 40,
                "duration": 0.1681818,
                "tempo": 120.0
            },
            {
                "start_time": 12.3113636,
                "end_time": 12.4795455,
                "pitch": 0,
                "velocity": 40,
                "duration": 0.1681818,
                "tempo": 120.0
            },
            {
                "start_time": 12.3636364,
                "end_time": 12.4795455,
                "pitch": 79,
                "velocity": 40,
                "duration": 0.1159091,
                "tempo": 120.0
            },
            {
                "start_time": 12.4795455,
                "end_time": 12.5295455,
                "pitch": 79,
                "velocity": 40,
                "duration": 0.05,
                "tempo": 120.0
            },
            {
                "start_time": 12.3636364,
                "end_time": 12.5295455,
                "pitch": 91,
                "velocity": 40,
                "duration": 0.1659091,
                "tempo": 120.0
            },
            {
                "start_time": 12.4795455,
                "end_time": 12.6477273,
                "pitch": 0,
                "velocity": 40,
                "duration": 0.1681818,
                "tempo": 120.0
            },
            {
                "start_time": 12.5295455,
                "end_time": 12.6477273,
                "pitch": 79,
                "velocity": 40,
                "duration": 0.1181818,
                "tempo": 120.0
            },
            {
                "start_time": 12.6477273,
                "end_time": 12.6636364,
                "pitch": 79,
                "velocity": 40,
                "duration": 0.0159091,
                "tempo": 120.0
            },
            {
                "start_time": 12.5295455,
                "end_time": 12.6636364,
                "pitch": 91,
                "velocity": 40,
                "duration": 0.1340909,
                "tempo": 120.0
            },
            {
                "start_time": 12.6636364,
                "end_time": 13.15,
                "pitch": 79,
                "velocity": 40,
                "duration": 0.4863636,
                "tempo": 120.0
            },
            {
                "start_time": 43.3272727,
                "end_time": 43.5931818,
                "pitch": 60,
                "velocity": 40,
                "duration": 0.2659091,
                "tempo": 120.0
            },
            {
                "start_time": 12.6477273,
                "end_time": 43.625,
                "pitch": 0,
                "velocity": 40,
                "duration": 30.9772727,
                "tempo": 120.0
            },
            {
                "start_time": 43.5931818,
                "end_time": 43.625,
                "pitch": 67,
                "velocity": 40,
                "duration": 0.0318182,
                "tempo": 120.0
            },
            {
                "start_time": 43.625,
                "end_time": 43.675,
                "pitch": 67,
                "velocity": 40,
                "duration": 0.05,
                "tempo": 120.0
            },
            {
                "start_time": 43.625,
                "end_time": 43.7909091,
                "pitch": 0,
                "velocity": 40,
                "duration": 0.1659091,
                "tempo": 120.0
            },
            {
                "start_time": 43.675,
                "end_time": 43.7909091,
                "pitch": 67,
                "velocity": 40,
                "duration": 0.1159091,
                "tempo": 120.0
            },
            {
                "start_time": 43.7909091,
                "end_time": 43.8431818,
                "pitch": 67,
                "velocity": 40,
                "duration": 0.0522727,
                "tempo": 120.0
            },
            {
                "start_time": 43.675,
                "end_time": 43.8431818,
                "pitch": 79,
                "velocity": 40,
                "duration": 0.1681818,
                "tempo": 120.0
            },
            {
                "start_time": 43.7909091,
                "end_time": 43.9613636,
                "pitch": 0,
                "velocity": 40,
                "duration": 0.1704545,
                "tempo": 120.0
            },
            {
                "start_time": 43.8431818,
                "end_time": 43.9613636,
                "pitch": 67,
                "velocity": 40,
                "duration": 0.1181818,
                "tempo": 120.0
            },
            {
                "start_time": 43.9613636,
                "end_time": 44.0113636,
                "pitch": 67,
                "velocity": 40,
                "duration": 0.05,
                "tempo": 120.0
            },
            {
                "start_time": 43.8431818,
                "end_time": 44.0113636,
                "pitch": 79,
                "velocity": 40,
                "duration": 0.1681818,
                "tempo": 120.0
            },
            {
                "start_time": 43.9613636,
                "end_time": 44.1318182,
                "pitch": 0,
                "velocity": 40,
                "duration": 0.1704545,
                "tempo": 120.0
            },
            {
                "start_time": 44.0113636,
                "end_time": 44.1318182,
                "pitch": 67,
                "velocity": 40,
                "duration": 0.1204545,
                "tempo": 120.0
            },
            {
                "start_time": 44.1318182,
                "end_time": 44.1818182,
                "pitch": 67,
                "velocity": 40,
                "duration": 0.05,
                "tempo": 120.0
            },
            {
                "start_time": 44.0113636,
                "end_time": 44.1818182,
                "pitch": 79,
                "velocity": 40,
                "duration": 0.1704545,
                "tempo": 120.0
            },
            {
                "start_time": 44.1318182,
                "end_time": 44.3022727,
                "pitch": 0,
                "velocity": 40,
                "duration": 0.1704545,
                "tempo": 120.0
            },
            {
                "start_time": 44.1818182,
                "end_time": 44.3022727,
                "pitch": 67,
                "velocity": 40,
                "duration": 0.1204545,
                "tempo": 120.0
            },
            {
                "start_time": 44.3022727,
                "end_time": 44.3522727,
                "pitch": 67,
                "velocity": 40,
                "duration": 0.05,
                "tempo": 120.0
            },
            {
                "start_time": 44.1818182,
                "end_time": 44.3522727,
                "pitch": 79,
                "velocity": 40,
                "duration": 0.1704545,
                "tempo": 120.0
            },
            {
                "start_time": 44.3022727,
                "end_time": 44.4704545,
                "pitch": 0,
                "velocity": 40,
                "duration": 0.1681818,
                "tempo": 120.0
            },
            {
                "start_time": 44.3522727,
                "end_time": 44.4704545,
                "pitch": 67,
                "velocity": 40,
                "duration": 0.1181818,
                "tempo": 120.0
            },
            {
                "start_time": 44.4704545,
                "end_time": 44.5204545,
                "pitch": 67,
                "velocity": 40,
                "duration": 0.05,
                "tempo": 120.0
            },
            {
                "start_time": 44.3522727,
                "end_time": 44.5204545,
                "pitch": 79,
                "velocity": 40,
                "duration": 0.1681818,
                "tempo": 120.0
            },
            {
                "start_time": 44.4704545,
                "end_time": 44.6386364,
                "pitch": 0,
                "velocity": 40,
                "duration": 0.1681818,
                "tempo": 120.0
            },
            {
                "start_time": 44.5204545,
                "end_time": 44.6386364,
                "pitch": 67,
                "velocity": 40,
                "duration": 0.1181818,
                "tempo": 120.0
            },
            {
                "start_time": 44.6386364,
                "end_time": 44.6886364,
                "pitch": 67,
                "velocity": 40,
                "duration": 0.05,
                "tempo": 120.0
            },
            {
                "start_time": 44.5204545,
                "end_time": 44.6886364,
                "pitch": 79,
                "velocity": 40,
                "duration": 0.1681818,
                "tempo": 120.0
            },
            {
                "start_time": 44.6386364,
                "end_time": 44.8045455,
                "pitch": 0,
                "velocity": 40,
                "duration": 0.1659091,
                "tempo": 120.0
            },
            {
                "start_time": 44.6886364,
                "end_time": 44.8045455,
                "pitch": 67,
                "velocity": 40,
                "duration": 0.1159091,
                "tempo": 120.0
            },
            {
                "start_time": 44.8045455,
                "end_time": 44.8545455,
                "pitch": 67,
                "velocity": 40,
                "duration": 0.05,
                "tempo": 120.0
            },
            {
                "start_time": 44.6886364,
                "end_time": 44.8545455,
                "pitch": 79,
                "velocity": 40,
                "duration": 0.1659091,
                "tempo": 120.0
            },
            {
                "start_time": 44.8045455,
                "end_time": 44.9727273,
                "pitch": 0,
                "velocity": 40,
                "duration": 0.1681818,
                "tempo": 120.0
            },
            {
                "start_time": 44.8545455,
                "end_time": 44.9727273,
                "pitch": 67,
                "velocity": 40,
                "duration": 0.1181818,
                "tempo": 120.0
            },
            {
                "start_time": 44.9727273,
                "end_time": 44.9909091,
                "pitch": 67,
                "velocity": 40,
                "duration": 0.0181818,
                "tempo": 120.0
            },
            {
                "start_time": 44.8545455,
                "end_time": 44.9909091,
                "pitch": 79,
                "velocity": 40,
                "duration": 0.1363636,
                "tempo": 120.0
            },
            {
                "start_time": 44.9909091,
                "end_time": 45.4840909,
                "pitch": 67,
                "velocity": 40,
                "duration": 0.4931818,
                "tempo": 120.0
            },
            {
                "start_time": 45.4863636,
                "end_time": 45.7522727,
                "pitch": 72,
                "velocity": 40,
                "duration": 0.2659091,
                "tempo": 120.0
            },
            {
                "start_time": 44.9727273,
                "end_time": 45.7840909,
                "pitch": 0,
                "velocity": 40,
                "duration": 0.8113636,
                "tempo": 120.0
            },
            {
                "start_time": 44.9909091,
                "end_time": 45.7840909,
                "pitch": 79,
                "velocity": 40,
                "duration": 0.7931818,
                "tempo": 120.0
            },
            {
                "start_time": 45.7522727,
                "end_time": 45.7840909,
                "pitch": 79,
                "velocity": 40,
                "duration": 0.0318182,
                "tempo": 120.0
            },
            {
                "start_time": 45.7840909,
                "end_time": 45.8340909,
                "pitch": 79,
                "velocity": 40,
                "duration": 0.05,
                "tempo": 120.0
            },
            {
                "start_time": 12.6636364,
                "end_time": 45.8340909,
                "pitch": 91,
                "velocity": 40,
                "duration": 33.1704545,
                "tempo": 120.0
            },
            {
                "start_time": 45.7840909,
                "end_time": 45.9522727,
                "pitch": 0,
                "velocity": 40,
                "duration": 0.1681818,
                "tempo": 120.0
            },
            {
                "start_time": 45.8340909,
                "end_time": 45.9522727,
                "pitch": 79,
                "velocity": 40,
                "duration": 0.1181818,
                "tempo": 120.0
            },
            {
                "start_time": 45.9522727,
                "end_time": 46.0022727,
                "pitch": 79,
                "velocity": 40,
                "duration": 0.05,
                "tempo": 120.0
            },
            {
                "start_time": 45.8340909,
                "end_time": 46.0022727,
                "pitch": 91,
                "velocity": 40,
                "duration": 0.1681818,
                "tempo": 120.0
            },
            {
                "start_time": 45.9522727,
                "end_time": 46.1181818,
                "pitch": 0,
                "velocity": 40,
                "duration": 0.1659091,
                "tempo": 120.0
            },
            {
                "start_time": 46.0022727,
                "end_time": 46.1181818,
                "pitch": 79,
                "velocity": 40,
                "duration": 0.1159091,
                "tempo": 120.0
            },
            {
                "start_time": 46.1181818,
                "end_time": 46.1681818,
                "pitch": 79,
                "velocity": 40,
                "duration": 0.05,
                "tempo": 120.0
            },
            {
                "start_time": 46.0022727,
                "end_time": 46.1681818,
                "pitch": 91,
                "velocity": 40,
                "duration": 0.1659091,
                "tempo": 120.0
            },
            {
                "start_time": 46.1181818,
                "end_time": 46.2863636,
                "pitch": 0,
                "velocity": 40,
                "duration": 0.1681818,
                "tempo": 120.0
            },
            {
                "start_time": 46.1681818,
                "end_time": 46.2863636,
                "pitch": 79,
                "velocity": 40,
                "duration": 0.1181818,
                "tempo": 120.0
            },
            {
                "start_time": 46.2863636,
                "end_time": 46.3363636,
                "pitch": 79,
                "velocity": 40,
                "duration": 0.05,
                "tempo": 120.0
            },
            {
                "start_time": 46.1681818,
                "end_time": 46.3363636,
                "pitch": 91,
                "velocity": 40,
                "duration": 0.1681818,
                "tempo": 120.0
            },
            {
                "start_time": 46.2863636,
                "end_time": 46.4522727,
                "pitch": 0,
                "velocity": 40,
                "duration": 0.1659091,
                "tempo": 120.0
            },
            {
                "start_time": 46.3363636,
                "end_time": 46.4522727,
                "pitch": 79,
                "velocity": 40,
                "duration": 0.1159091,
                "tempo": 120.0
            },
            {
                "start_time": 46.4522727,
                "end_time": 46.5022727,
                "pitch": 79,
                "velocity": 40,
                "duration": 0.05,
                "tempo": 120.0
            },
            {
                "start_time": 46.3363636,
                "end_time": 46.5022727,
                "pitch": 91,
                "velocity": 40,
                "duration": 0.1659091,
                "tempo": 120.0
            },
            {
                "start_time": 46.4522727,
                "end_time": 46.6204545,
                "pitch": 0,
                "velocity": 40,
                "duration": 0.1681818,
                "tempo": 120.0
            },
            {
                "start_time": 46.5022727,
                "end_time": 46.6204545,
                "pitch": 79,
                "velocity": 40,
                "duration": 0.1181818,
                "tempo": 120.0
            },
            {
                "start_time": 46.6204545,
                "end_time": 46.6727273,
                "pitch": 79,
                "velocity": 40,
                "duration": 0.0522727,
                "tempo": 120.0
            },
            {
                "start_time": 46.5022727,
                "end_time": 46.6727273,
                "pitch": 91,
                "velocity": 40,
                "duration": 0.1704545,
                "tempo": 120.0
            },
            {
                "start_time": 46.6204545,
                "end_time": 46.7909091,
                "pitch": 0,
                "velocity": 40,
                "duration": 0.1704545,
                "tempo": 120.0
            },
            {
                "start_time": 46.6727273,
                "end_time": 46.7909091,
                "pitch": 79,
                "velocity": 40,
                "duration": 0.1181818,
                "tempo": 120.0
            },
            {
                "start_time": 46.7909091,
                "end_time": 46.8431818,
                "pitch": 79,
                "velocity": 40,
                "duration": 0.0522727,
                "tempo": 120.0
            },
            {
                "start_time": 46.6727273,
                "end_time": 46.8431818,
                "pitch": 91,
                "velocity": 40,
                "duration": 0.1704545,
                "tempo": 120.0
            },
            {
                "start_time": 46.7909091,
                "end_time": 46.9613636,
                "pitch": 0,
                "velocity": 40,
                "duration": 0.1704545,
                "tempo": 120.0
            },
            {
                "start_time": 46.8431818,
                "end_time": 46.9613636,
                "pitch": 79,
                "velocity": 40,
                "duration": 0.1181818,
                "tempo": 120.0
            },
            {
                "start_time": 46.9613636,
                "end_time": 47.0136364,
                "pitch": 79,
                "velocity": 40,
                "duration": 0.0522727,
                "tempo": 120.0
            },
            {
                "start_time": 46.8431818,
                "end_time": 47.0136364,
                "pitch": 91,
                "velocity": 40,
                "duration": 0.1704545,
                "tempo": 120.0
            },
            {
                "start_time": 46.9613636,
                "end_time": 47.1318182,
                "pitch": 0,
                "velocity": 40,
                "duration": 0.1704545,
                "tempo": 120.0
            },
            {
                "start_time": 47.0136364,
                "end_time": 47.1318182,
                "pitch": 79,
                "velocity": 40,
                "duration": 0.1181818,
                "tempo": 120.0
            },
            {
                "start_time": 47.1318182,
                "end_time": 47.1477273,
                "pitch": 79,
                "velocity": 40,
                "duration": 0.0159091,
                "tempo": 120.0
            },
            {
                "start_time": 47.0136364,
                "end_time": 47.1477273,
                "pitch": 91,
                "velocity": 40,
                "duration": 0.1340909,
                "tempo": 120.0
            },
            {
                "start_time": 47.1477273,
                "end_time": 47.6363636,
                "pitch": 79,
                "velocity": 40,
                "duration": 0.4886364,
                "tempo": 120.0
            }
        ],
        "Violin": [
            {
                "start_time": 17.4613636,
                "end_time": 19.6181818,
                "pitch": 84,
                "velocity": 40,
                "duration": 2.1568182,
                "tempo": 120.0
            },
            {
                "start_time": 19.6204545,
                "end_time": 21.2431818,
                "pitch": 91,
                "velocity": 40,
                "duration": 1.6227273,
                "tempo": 120.0
            },
            {
                "start_time": 21.2431818,
                "end_time": 21.6454545,
                "pitch": 89,
                "velocity": 40,
                "duration": 0.4022727,
                "tempo": 120.0
            },
            {
                "start_time": 21.6454545,
                "end_time": 21.7795455,
                "pitch": 88,
                "velocity": 40,
                "duration": 0.1340909,
                "tempo": 120.0
            },
            {
                "start_time": 21.7795455,
                "end_time": 22.1863636,
                "pitch": 89,
                "velocity": 40,
                "duration": 0.4068182,
                "tempo": 120.0
            },
            {
                "start_time": 22.1863636,
                "end_time": 22.3227273,
                "pitch": 88,
                "velocity": 40,
                "duration": 0.1363636,
                "tempo": 120.0
            },
            {
                "start_time": 22.3227273,
                "end_time": 23.3931818,
                "pitch": 89,
                "velocity": 40,
                "duration": 1.0704545,
                "tempo": 120.0
            },
            {
                "start_time": 23.3931818,
                "end_time": 23.9386364,
                "pitch": 91,
                "velocity": 40,
                "duration": 0.5454545,
                "tempo": 120.0
            },
            {
                "start_time": 23.9386364,
                "end_time": 26.0977273,
                "pitch": 84,
                "velocity": 40,
                "duration": 2.1590909,
                "tempo": 120.0
            },
            {
                "start_time": 26.0977273,
                "end_time": 28.2477273,
                "pitch": 96,
                "velocity": 40,
                "duration": 2.15,
                "tempo": 120.0
            },
            {
                "start_time": 28.2477273,
                "end_time": 29.8613636,
                "pitch": 103,
                "velocity": 40,
                "duration": 1.6136364,
                "tempo": 120.0
            },
            {
                "start_time": 29.8636364,
                "end_time": 30.2704545,
                "pitch": 101,
                "velocity": 40,
                "duration": 0.4068182,
                "tempo": 120.0
            },
            {
                "start_time": 30.2704545,
                "end_time": 30.4068182,
                "pitch": 100,
                "velocity": 40,
                "duration": 0.1363636,
                "tempo": 120.0
            },
            {
                "start_time": 30.4068182,
                "end_time": 30.8068182,
                "pitch": 101,
                "velocity": 40,
                "duration": 0.4,
                "tempo": 120.0
            },
            {
                "start_time": 30.8068182,
                "end_time": 30.9409091,
                "pitch": 100,
                "velocity": 40,
                "duration": 0.1340909,
                "tempo": 120.0
            },
            {
                "start_time": 30.9431818,
                "end_time": 32.0113636,
                "pitch": 101,
                "velocity": 40,
                "duration": 1.0681818,
                "tempo": 120.0
            },
            {
                "start_time": 32.0113636,
                "end_time": 32.5568182,
                "pitch": 103,
                "velocity": 40,
                "duration": 0.5454545,
                "tempo": 120.0
            },
            {
                "start_time": 32.5568182,
                "end_time": 33.6363636,
                "pitch": 103,
                "velocity": 40,
                "duration": 1.0795455,
                "tempo": 120.0
            },
            {
                "start_time": 33.6363636,
                "end_time": 33.9022727,
                "pitch": 79,
                "velocity": 101,
                "duration": 0.2659091,
                "tempo": 120.0
            },
            {
                "start_time": 33.9045455,
                "end_time": 33.9704545,
                "pitch": 72,
                "velocity": 101,
                "duration": 0.0659091,
                "tempo": 120.0
            },
            {
                "start_time": 33.9704545,
                "end_time": 34.1727273,
                "pitch": 72,
                "velocity": 51,
                "duration": 0.2022727,
                "tempo": 120.0
            },
            {
                "start_time": 34.1727273,
                "end_time": 34.2386364,
                "pitch": 72,
                "velocity": 101,
                "duration": 0.0659091,
                "tempo": 120.0
            },
            {
                "start_time": 34.2386364,
                "end_time": 34.4386364,
                "pitch": 72,
                "velocity": 51,
                "duration": 0.2,
                "tempo": 120.0
            },
            {
                "start_time": 51.9454545,
                "end_time": 54.1022727,
                "pitch": 84,
                "velocity": 40,
                "duration": 2.1568182,
                "tempo": 120.0
            },
            {
                "start_time": 54.1045455,
                "end_time": 55.7181818,
                "pitch": 91,
                "velocity": 40,
                "duration": 1.6136364,
                "tempo": 120.0
            },
            {
                "start_time": 55.7181818,
                "end_time": 56.1272727,
                "pitch": 89,
                "velocity": 40,
                "duration": 0.4090909,
                "tempo": 120.0
            },
            {
                "start_time": 56.1272727,
                "end_time": 56.2636364,
                "pitch": 88,
                "velocity": 40,
                "duration": 0.1363636,
                "tempo": 120.0
            },
            {
                "start_time": 56.2636364,
                "end_time": 56.6636364,
                "pitch": 89,
                "velocity": 40,
                "duration": 0.4,
                "tempo": 120.0
            },
            {
                "start_time": 56.6636364,
                "end_time": 56.7977273,
                "pitch": 88,
                "velocity": 40,
                "duration": 0.1340909,
                "tempo": 120.0
            },
            {
                "start_time": 56.7977273,
                "end_time": 57.8772727,
                "pitch": 89,
                "velocity": 40,
                "duration": 1.0795455,
                "tempo": 120.0
            },
            {
                "start_time": 57.8772727,
                "end_time": 58.4227273,
                "pitch": 91,
                "velocity": 40,
                "duration": 0.5454545,
                "tempo": 120.0
            },
            {
                "start_time": 58.4227273,
                "end_time": 60.5727273,
                "pitch": 84,
                "velocity": 40,
                "duration": 2.15,
                "tempo": 120.0
            },
            {
                "start_time": 60.5727273,
                "end_time": 62.7318182,
                "pitch": 96,
                "velocity": 40,
                "duration": 2.1590909,
                "tempo": 120.0
            },
            {
                "start_time": 62.7318182,
                "end_time": 64.3454545,
                "pitch": 103,
                "velocity": 40,
                "duration": 1.6136364,
                "tempo": 120.0
            },
            {
                "start_time": 64.3477273,
                "end_time": 64.7477273,
                "pitch": 101,
                "velocity": 40,
                "duration": 0.4,
                "tempo": 120.0
            },
            {
                "start_time": 64.7477273,
                "end_time": 64.8818182,
                "pitch": 100,
                "velocity": 40,
                "duration": 0.1340909,
                "tempo": 120.0
            },
            {
                "start_time": 64.8818182,
                "end_time": 65.2886364,
                "pitch": 101,
                "velocity": 40,
                "duration": 0.4068182,
                "tempo": 120.0
            },
            {
                "start_time": 65.2886364,
                "end_time": 65.425,
                "pitch": 100,
                "velocity": 40,
                "duration": 0.1363636,
                "tempo": 120.0
            },
            {
                "start_time": 65.4272727,
                "end_time": 66.5045455,
                "pitch": 101,
                "velocity": 40,
                "duration": 1.0772727,
                "tempo": 120.0
            },
            {
                "start_time": 66.5068182,
                "end_time": 67.0409091,
                "pitch": 103,
                "velocity": 40,
                "duration": 0.5340909,
                "tempo": 120.0
            },
            {
                "start_time": 67.0409091,
                "end_time": 68.1204545,
                "pitch": 103,
                "velocity": 40,
                "duration": 1.0795455,
                "tempo": 120.0
            },
            {
                "start_time": 68.1204545,
                "end_time": 68.3863636,
                "pitch": 79,
                "velocity": 101,
                "duration": 0.2659091,
                "tempo": 120.0
            },
            {
                "start_time": 68.3886364,
                "end_time": 68.4545455,
                "pitch": 72,
                "velocity": 101,
                "duration": 0.0659091,
                "tempo": 120.0
            },
            {
                "start_time": 68.4545455,
                "end_time": 68.6545455,
                "pitch": 72,
                "velocity": 51,
                "duration": 0.2,
                "tempo": 120.0
            },
            {
                "start_time": 68.6568182,
                "end_time": 68.7227273,
                "pitch": 72,
                "velocity": 101,
                "duration": 0.0659091,
                "tempo": 120.0
            },
            {
                "start_time": 68.7227273,
                "end_time": 68.9272727,
                "pitch": 72,
                "velocity": 51,
                "duration": 0.2045455,
                "tempo": 120.0
            }
        ]
    }
}