{
    "mood": "happy",
    "instruments": {
        "Electric Piano 1": [
            {
                "start_time": 0.0272727,
                "end_time": 0.1113636,
                "pitch": 36,
                "velocity": 80,
                "duration": 0.0840909,
                "tempo": 120.0
            },
            {
                "start_time": 0.1795455,
                "end_time": 0.2659091,
                "pitch": 48,
                "velocity": 80,
                "duration": 0.0863636,
                "tempo": 120.0
            },
            {
                "start_time": 0.3340909,
                "end_time": 0.4363636,
                "pitch": 48,
                "velocity": 80,
                "duration": 0.1022727,
                "tempo": 120.0
            },
            {
                "start_time": 0.5045455,
                "end_time": 0.6931818,
                "pitch": 48,
                "velocity": 80,
                "duration": 0.1886364,
                "tempo": 120.0
            },
            {
                "start_time": 0.8136364,
                "end_time": 0.8977273,
                "pitch": 48,
                "velocity": 80,
                "duration": 0.0840909,
                "tempo": 120.0
            },
            {
                "start_time": 0.9659091,
                "end_time": 1.1409091,
                "pitch": 36,
                "velocity": 80,
                "duration": 0.175,
                "tempo": 120.0
            },
            {
                "start_time": 1.2704545,
                "end_time": 1.3477273,
                "pitch": 48,
                "velocity": 80,
                "duration": 0.0772727,
                "tempo": 120.0
            },
            {
                "start_time": 1.4136364,
                "end_time": 1.4977273,
                "pitch": 43,
                "velocity": 80,
                "duration": 0.0840909,
                "tempo": 120.0
            },
            {
                "start_time": 1.5659091,
                "end_time": 1.6681818,
                "pitch": 41,
                "velocity": 80,
                "duration": 0.1022727,
                "tempo": 120.0
            },
            {
                "start_time": 1.7386364,
                "end_time": 1.8227273,
                "pitch": 39,
                "velocity": 80,
                "duration": 0.0840909,
                "tempo": 120.0
            },
            {
                "start_time": 1.8909091,
                "end_time": 1.975,
                "pitch": 36,
                "velocity": 80,
                "duration": 0.0840909,
                "tempo": 120.0
            },
            {
                "start_time": 2.0454545,
                "end_time": 2.2318182,
                "pitch": 48,
                "velocity": 80,
                "duration": 0.1863636,
                "tempo": 120.0
            },
            {
                "start_time": 2.3522727,
                "end_time": 2.5318182,
                "pitch": 48,
                "velocity": 80,
                "duration": 0.1795455,
                "tempo": 120.0
            },
            {
                "start_time": 2.6636364,
                "end_time": 2.7431818,
                "pitch": 48,
                "velocity": 80,
                "duration": 0.0795455,
                "tempo": 120.0
            },
            {
                "start_time": 2.8090909,
                "end_time": 2.9909091,
                "pitch": 36,
                "velocity": 80,
                "duration": 0.1818182,
                "tempo": 120.0
            },
            {
                "start_time": 3.1272727,
                "end_time": 3.2090909,
                "pitch": 48,
                "velocity": 80,
                "duration": 0.0818182,
                "tempo": 120.0
            },
            {
                "start_time": 3.2772727,
                "end_time": 3.3613636,
                "pitch": 48,
                "velocity": 80,
                "duration": 0.0840909,
                "tempo": 120.0
            },
            {
                "start_time": 3.4295455,
                "end_time": 3.5159091,
                "pitch": 36,
                "velocity": 80,
                "duration": 0.0863636,
                "tempo": 120.0
            },
            {
                "start_time": 3.5840909,
                "end_time": 3.6863636,
                "pitch": 48,
                "velocity": 80,
                "duration": 0.1022727,
                "tempo": 120.0
            },
            {
                "start_time": 3.7545455,
                "end_time": 3.8363636,
                "pitch": 36,
                "velocity": 80,
                "duration": 0.0818182,
                "tempo": 120.0
            },
            {
                "start_time": 3.9045455,
                "end_time": 3.9863636,
                "pitch": 48,
                "velocity": 80,
                "duration": 0.0818182,
                "tempo": 120.0
            },
            {
                "start_time": 4.0545455,
                "end_time": 4.1386364,
                "pitch": 48,
                "velocity": 80,
                "duration": 0.0840909,
                "tempo": 120.0
            },
            {
                "start_time": 4.2045455,
                "end_time": 4.3840909,
                "pitch": 48,
                "velocity": 80,
                "duration": 0.1795455,
                "tempo": 120.0
            },
            {
                "start_time": 4.5159091,
                "end_time": 4.5954545,
                "pitch": 48,
                "velocity": 80,
                "duration": 0.0795455,
                "tempo": 120.0
            },
            {
                "start_time": 4.6613636,
                "end_time": 4.8477273,
                "pitch": 36,
                "velocity": 80,
                "duration": 0.1863636,
                "tempo": 120.0
            },
            {
                "start_time": 4.9704545,
                "end_time": 5.0704545,
                "pitch": 48,
                "velocity": 80,
                "duration": 0.1,
                "tempo": 120.0
            },
            {
                "start_time": 5.1409091,
                "end_time": 5.225,
                "pitch": 43,
                "velocity": 80,
                "duration": 0.0840909,
                "tempo": 120.0
            },
            {
                "start_time": 5.2931818,
                "end_time": 5.3772727,
                "pitch": 41,
                "velocity": 80,
                "duration": 0.0840909,
                "tempo": 120.0
            },
            {
                "start_time": 5.4477273,
                "end_time": 5.5318182,
                "pitch": 39,
                "velocity": 80,
                "duration": 0.0840909,
                "tempo": 120.0
            },
            {
                "start_time": 5.6022727,
                "end_time": 5.6954545,
                "pitch": 36,
                "velocity": 80,
                "duration": 0.0931818,
                "tempo": 120.0
            },
            {
                "start_time": 5.7613636,
                "end_time": 5.9340909,
                "pitch": 48,
                "velocity": 80,
                "duration": 0.1727273,
                "tempo": 120.0
            },
            {
                "start_time": 6.0477273,
                "end_time": 6.2340909,
                "pitch": 48,
                "velocity": 80,
                "duration": 0.1863636,
                "tempo": 120.0
            },
            {
                "start_time": 6.3545455,
                "end_time": 6.4568182,
                "pitch": 48,
                "velocity": 80,
                "duration": 0.1022727,
                "tempo": 120.0
            },
            {
                "start_time": 6.525,
                "end_time": 6.7090909,
                "pitch": 36,
                "velocity": 80,
                "duration": 0.1840909,
                "tempo": 120.0
            },
            {
                "start_time": 6.8272727,
                "end_time": 6.9090909,
                "pitch": 48,
                "velocity": 80,
                "duration": 0.0818182,
                "tempo": 120.0
            },
            {
                "start_time": 6.9772727,
                "end_time": 7.0727273,
                "pitch": 41,
                "velocity": 80,
                "duration": 0.0954545,
                "tempo": 120.0
            },
            {
                "start_time": 7.1386364,
                "end_time": 7.2204545,
                "pitch": 43,
                "velocity": 80,
                "duration": 0.0818182,
                "tempo": 120.0
            },
            {
                "start_time": 7.2863636,
                "end_time": 7.3659091,
                "pitch": 46,
                "velocity": 80,
                "duration": 0.0795455,
                "tempo": 120.0
            },
            {
                "start_time": 7.4340909,
                "end_time": 7.5181818,
                "pitch": 36,
                "velocity": 80,
                "duration": 0.0840909,
                "tempo": 120.0
            },
            {
                "start_time": 7.5863636,
                "end_time": 7.6886364,
                "pitch": 48,
                "velocity": 80,
                "duration": 0.1022727,
                "tempo": 120.0
            },
            {
                "start_time": 7.7568182,
                "end_time": 7.8409091,
                "pitch": 48,
                "velocity": 80,
                "duration": 0.0840909,
                "tempo": 120.0
            },
            {
                "start_time": 7.9113636,
                "end_time": 8.0931818,
                "pitch": 48,
                "velocity": 80,
                "duration": 0.1818182,
                "tempo": 120.0
            },
            {
                "start_time": 8.2113636,
                "end_time": 8.2931818,
                "pitch": 48,
                "velocity": 80,
                "duration": 0.0818182,
                "tempo": 120.0
            },
            {
                "start_time": 8.3613636,
                "end_time": 8.5409091,
                "pitch": 36,
                "velocity": 80,
                "duration": 0.1795455,
                "tempo": 120.0
            },
            {
                "start_time": 8.6727273,
                "end_time": 8.7522727,
                "pitch": 48,
                "velocity": 80,
                "duration": 0.0795455,
                "tempo": 120.0
            },
            {
                "start_time": 8.8181818,
                "end_time": 8.9022727,
                "pitch": 43,
                "velocity": 80,
                "duration": 0.0840909,
                "tempo": 120.0
            },
            {
                "start_time": 8.9704545,
                "end_time": 9.0727273,
                "pitch": 41,
                "velocity": 80,
                "duration": 0.1022727,
                "tempo": 120.0
            },
            {
                "start_time": 9.1431818,
                "end_time": 9.2272727,
                "pitch": 39,
                "velocity": 80,
                "duration": 0.0840909,
                "tempo": 120.0
            },
            {
                "start_time": 9.2977273,
                "end_time": 9.3818182,
                "pitch": 31,
                "velocity": 80,
                "duration": 0.0840909,
                "tempo": 120.0
            },
            {
                "start_time": 9.45,
                "end_time": 9.6363636,
                "pitch": 43,
                "velocity": 80,
                "duration": 0.1863636,
                "tempo": 120.0
            },
            {
                "start_time": 9.775,
                "end_time": 9.9568182,
                "pitch": 43,
                "velocity": 80,
                "duration": 0.1818182,
                "tempo": 120.0
            },
            {
                "start_time": 10.075,
                "end_time": 10.1568182,
                "pitch": 43,
                "velocity": 80,
                "duration": 0.0818182,
                "tempo": 120.0
            },
            {
                "start_time": 10.225,
                "end_time": 10.4045455,
                "pitch": 31,
                "velocity": 80,
                "duration": 0.1795455,
                "tempo": 120.0
            },
            {
                "start_time": 10.5363636,
                "end_time": 10.6159091,
                "pitch": 43,
                "velocity": 80,
                "duration": 0.0795455,
                "tempo": 120.0
            },
            {
                "start_time": 10.6818182,
                "end_time": 10.7659091,
                "pitch": 43,
                "velocity": 80,
                "duration": 0.0840909,
                "tempo": 120.0
            },
            {
                "start_time": 10.8340909,
                "end_time": 10.9204545,
                "pitch": 31,
                "velocity": 80,
                "duration": 0.0863636,
                "tempo": 120.0
            },
            {
                "start_time": 10.9886364,
                "end_time": 11.0909091,
                "pitch": 43,
                "velocity": 80,
                "duration": 0.1022727,
                "tempo": 120.0
            },
            {
                "start_time": 11.1590909,
                "end_time": 11.2431818,
                "pitch": 32,
                "velocity": 80,
                "duration": 0.0840909,
                "tempo": 120.0
            },
            {
                "start_time": 11.3113636,
                "end_time": 11.3931818,
                "pitch": 44,
                "velocity": 80,
                "duration": 0.0818182,
                "tempo": 120.0
            },
            {
                "start_time": 11.4613636,
                "end_time": 11.5431818,
                "pitch": 44,
                "velocity": 80,
                "duration": 0.0818182,
                "tempo": 120.0
            },
            {
                "start_time": 11.6113636,
                "end_time": 11.7886364,
                "pitch": 44,
                "velocity": 80,
                "duration": 0.1772727,
                "tempo": 120.0
            },
            {
                "start_time": 11.9204545,
                "end_time": 12.0,
                "pitch": 44,
                "velocity": 80,
                "duration": 0.0795455,
                "tempo": 120.0
            },
            {
                "start_time": 12.0681818,
                "end_time": 12.2545455,
                "pitch": 29,
                "velocity": 80,
                "duration": 0.1863636,
                "tempo": 120.0
            },
            {
                "start_time": 12.375,
                "end_time": 12.475,
                "pitch": 41,
                "velocity": 80,
                "duration": 0.1,
                "tempo": 120.0
            },
            {
                "start_time": 12.5454545,
                "end_time": 12.6272727,
                "pitch": 41,
                "velocity": 80,
                "duration": 0.0818182,
                "tempo": 120.0
            },
            {
                "start_time": 12.6954545,
                "end_time": 12.7772727,
                "pitch": 29,
                "velocity": 80,
                "duration": 0.0818182,
                "tempo": 120.0
            },
            {
                "start_time": 12.8454545,
                "end_time": 12.9272727,
                "pitch": 41,
                "velocity": 80,
                "duration": 0.0818182,
                "tempo": 120.0
            },
            {
                "start_time": 12.9954545,
                "end_time": 13.0931818,
                "pitch": 34,
                "velocity": 80,
                "duration": 0.0977273,
                "tempo": 120.0
            },
            {
                "start_time": 13.1590909,
                "end_time": 13.3363636,
                "pitch": 46,
                "velocity": 80,
                "duration": 0.1772727,
                "tempo": 120.0
            },
            {
                "start_time": 13.4522727,
                "end_time": 13.6386364,
                "pitch": 46,
                "velocity": 80,
                "duration": 0.1863636,
                "tempo": 120.0
            },
            {
                "start_time": 13.7590909,
                "end_time": 13.8613636,
                "pitch": 46,
                "velocity": 80,
                "duration": 0.1022727,
                "tempo": 120.0
            },
            {
                "start_time": 13.9295455,
                "end_time": 14.0136364,
                "pitch": 46,
                "velocity": 80,
                "duration": 0.0840909,
                "tempo": 120.0
            },
            {
                "start_time": 14.0795455,
                "end_time": 14.3636364,
                "pitch": 31,
                "velocity": 80,
                "duration": 0.2840909,
                "tempo": 120.0
            },
            {
                "start_time": 14.5477273,
                "end_time": 14.6295455,
                "pitch": 41,
                "velocity": 80,
                "duration": 0.0818182,
                "tempo": 120.0
            },
            {
                "start_time": 14.6977273,
                "end_time": 14.7795455,
                "pitch": 43,
                "velocity": 80,
                "duration": 0.0818182,
                "tempo": 120.0
            }
        ]
    }
}