{
    "mood": "happy",
    "instruments": {
        "Acoustic Bass": [
            {
                "start_time": 0.0,
                "end_time": 0.1159091,
                "pitch": 36,
                "velocity": 127,
                "duration": 0.1159091,
                "tempo": 120.0
            },
            {
                "start_time": 0.15,
                "end_time": 0.25,
                "pitch": 36,
                "velocity": 127,
                "duration": 0.1,
                "tempo": 120.0
            },
            {
                "start_time": 0.2840909,
                "end_time": 0.3818182,
                "pitch": 36,
                "velocity": 127,
                "duration": 0.0977273,
                "tempo": 120.0
            },
            {
                "start_time": 0.4159091,
                "end_time": 0.5159091,
                "pitch": 36,
                "velocity": 127,
                "duration": 0.1,
                "tempo": 120.0
            },
            {
                "start_time": 0.8181818,
                "end_time": 1.0181818,
                "pitch": 36,
                "velocity": 127,
                "duration": 0.2,
                "tempo": 120.0
            },
            {
                "start_time": 1.0909091,
                "end_time": 1.2931818,
                "pitch": 36,
                "velocity": 127,
                "duration": 0.2022727,
                "tempo": 120.0
            },
            {
                "start_time": 1.3636364,
                "end_time": 1.6022727,
                "pitch": 36,
                "velocity": 127,
                "duration": 0.2386364,
                "tempo": 120.0
            },
            {
                "start_time": 1.6386364,
                "end_time": 1.8772727,
                "pitch": 36,
                "velocity": 127,
                "duration": 0.2386364,
                "tempo": 120.0
            },
            {
                "start_time": 2.4613636,
                "end_time": 2.6954545,
                "pitch": 36,
                "velocity": 127,
                "duration": 0.2340909,
                "tempo": 120.0
            },
            {
                "start_time": 2.7318182,
                "end_time": 2.9659091,
                "pitch": 36,
                "velocity": 127,
                "duration": 0.2340909,
                "tempo": 120.0
            },
            {
                "start_time": 3.0022727,
                "end_time": 3.2363636,
                "pitch": 36,
                "velocity": 127,
                "duration": 0.2340909,
                "tempo": 120.0
            },
            {
                "start_time": 3.2727273,
                "end_time": 3.5090909,
                "pitch": 36,
                "velocity": 127,
                "duration": 0.2363636,
                "tempo": 120.0
            },
            {
                "start_time": 4.0840909,
                "end_time": 4.3159091,
                "pitch": 36,
                "velocity": 127,
                "duration": 0.2318182,
                "tempo": 120.0
            },
            {
                "start_time": 4.3522727,
                "end_time": 4.5840909,
                "pitch": 36,
                "velocity": 127,
                "duration": 0.2318182,
                "tempo": 120.0
            },
            {
                "start_time": 4.6181818,
                "end_time": 4.85,
                "pitch": 36,
                "velocity": 127,
                "duration": 0.2318182,
                "tempo": 120.0
            },
            {
                "start_time": 4.8863636,
                "end_time": 5.1181818,
                "pitch": 36,
                "velocity": 127,
                "duration": 0.2318182,
                "tempo": 120.0
            },
            {
                "start_time": 5.7204545,
                "end_time": 5.925,
                "pitch": 36,
                "velocity": 127,
                "duration": 0.2045455,
                "tempo": 120.0
            },
            {
                "start_time": 5.9931818,
                "end_time": 6.1977273,
                "pitch": 36,
                "velocity": 127,
                "duration": 0.2045455,
                "tempo": 120.0
            },
            {
                "start_time": 6.2681818,
                "end_time": 6.4727273,
                "pitch": 36,
                "velocity": 127,
                "duration": 0.2045455,
                "tempo": 120.0
            },
            {
                "start_time": 6.5431818,
                "end_time": 6.7477273,
                "pitch": 36,
                "velocity": 127,
                "duration": 0.2045455,
                "tempo": 120.0
            },
            {
                "start_time": 7.3659091,
                "end_time": 7.5636364,
                "pitch": 36,
                "velocity": 127,
                "duration": 0.1977273,
                "tempo": 120.0
            },
            {
                "start_time": 7.6340909,
                "end_time": 7.8318182,
                "pitch": 36,
                "velocity": 127,
                "duration": 0.1977273,
                "tempo": 120.0
            },
            {
                "start_time": 7.9,
                "end_time": 8.1318182,
                "pitch": 36,
                "velocity": 127,
                "duration": 0.2318182,
                "tempo": 120.0
            },
            {
                "start_time": 8.1681818,
                "end_time": 8.4,
                "pitch": 36,
                "velocity": 127,
                "duration": 0.2318182,
                "tempo": 120.0
            },
            {
                "start_time": 8.9681818,
                "end_time": 9.2,
                "pitch": 36,
                "velocity": 127,
                "duration": 0.2318182,
                "tempo": 120.0
            },
            {
                "start_time": 9.2340909,
                "end_time": 9.4659091,
                "pitch": 36,
                "velocity": 127,
                "duration": 0.2318182,
                "tempo": 120.0
            },
            {
                "start_time": 9.5022727,
                "end_time": 9.7340909,
                "pitch": 36,
                "velocity": 127,
                "duration": 0.2318182,
                "tempo": 120.0
            },
            {
                "start_time": 9.7704545,
                "end_time": 10.0,
                "pitch": 36,
                "velocity": 127,
                "duration": 0.2295455,
                "tempo": 120.0
            },
            {
                "start_time": 10.3045455,
                "end_time": 12.1795455,
                "pitch": 36,
                "velocity": 127,
                "duration": 1.875,
                "tempo": 120.0
            }
        ]
    }
}