{
    "mood": "happy",
    "instruments": {
        "Vibraphone": [
            {
                "start_time": 0.0,
                "end_time": 0.1659091,
                "pitch": 70,
                "velocity": 64,
                "duration": 0.1659091,
                "tempo": 120.0
            },
            {
                "start_time": 0.1840909,
                "end_time": 0.3772727,
                "pitch": 69,
                "velocity": 64,
                "duration": 0.1931818,
                "tempo": 120.0
            },
            {
                "start_time": 0.3954545,
                "end_time": 0.5886364,
                "pitch": 70,
                "velocity": 64,
                "duration": 0.1931818,
                "tempo": 120.0
            },
            {
                "start_time": 0.6068182,
                "end_time": 1.6022727,
                "pitch": 67,
                "velocity": 64,
                "duration": 0.9954545,
                "tempo": 120.0
            },
            {
                "start_time": 1.6204545,
                "end_time": 1.8136364,
                "pitch": 67,
                "velocity": 64,
                "duration": 0.1931818,
                "tempo": 120.0
            },
            {
                "start_time": 1.8295455,
                "end_time": 2.0045455,
                "pitch": 66,
                "velocity": 64,
                "duration": 0.175,
                "tempo": 120.0
            },
            {
                "start_time": 2.0204545,
                "end_time": 2.1954545,
                "pitch": 67,
                "velocity": 64,
                "duration": 0.175,
                "tempo": 120.0
            },
            {
                "start_time": 2.2113636,
                "end_time": 3.2068182,
                "pitch": 63,
                "velocity": 64,
                "duration": 0.9954545,
                "tempo": 120.0
            },
            {
                "start_time": 3.225,
                "end_time": 3.4181818,
                "pitch": 67,
                "velocity": 64,
                "duration": 0.1931818,
                "tempo": 120.0
            },
            {
                "start_time": 3.4363636,
                "end_time": 3.6113636,
                "pitch": 65,
                "velocity": 64,
                "duration": 0.175,
                "tempo": 120.0
            },
            {
                "start_time": 3.6272727,
                "end_time": 3.8022727,
                "pitch": 63,
                "velocity": 64,
                "duration": 0.175,
                "tempo": 120.0
            },
            {
                "start_time": 3.8181818,
                "end_time": 4.8136364,
                "pitch": 65,
                "velocity": 64,
                "duration": 0.9954545,
                "tempo": 120.0
            },
            {
                "start_time": 4.8318182,
                "end_time": 5.025,
                "pitch": 70,
                "velocity": 64,
                "duration": 0.1931818,
                "tempo": 120.0
            },
            {
                "start_time": 5.0409091,
                "end_time": 5.2159091,
                "pitch": 72,
                "velocity": 64,
                "duration": 0.175,
                "tempo": 120.0
            },
            {
                "start_time": 5.2318182,
                "end_time": 5.4068182,
                "pitch": 70,
                "velocity": 64,
                "duration": 0.175,
                "tempo": 120.0
            },
            {
                "start_time": 5.4227273,
                "end_time": 6.4113636,
                "pitch": 67,
                "velocity": 64,
                "duration": 0.9886364,
                "tempo": 120.0
            },
            {
                "start_time": 6.4272727,
                "end_time": 6.6113636,
                "pitch": 70,
                "velocity": 64,
                "duration": 0.1840909,
                "tempo": 120.0
            },
            {
                "start_time": 6.6295455,
                "end_time": 6.8181818,
                "pitch": 72,
                "velocity": 64,
                "duration": 0.1886364,
                "tempo": 120.0
            },
            {
                "start_time": 6.8340909,
                "end_time": 7.0227273,
                "pitch": 74,
                "velocity": 64,
                "duration": 0.1886364,
                "tempo": 120.0
            },
            {
                "start_time": 7.0386364,
                "end_time": 7.4159091,
                "pitch": 75,
                "velocity": 64,
                "duration": 0.3772727,
                "tempo": 120.0
            },
            {
                "start_time": 7.4318182,
                "end_time": 7.825,
                "pitch": 70,
                "velocity": 64,
                "duration": 0.3931818,
                "tempo": 120.0
            },
            {
                "start_time": 7.8409091,
                "end_time": 8.2181818,
                "pitch": 67,
                "velocity": 64,
                "duration": 0.3772727,
                "tempo": 120.0
            },
            {
                "start_time": 8.2340909,
                "end_time": 8.6386364,
                "pitch": 63,
                "velocity": 64,
                "duration": 0.4045455,
                "tempo": 120.0
            },
            {
                "start_time": 8.6545455,
                "end_time": 9.6340909,
                "pitch": 72,
                "velocity": 64,
                "duration": 0.9795455,
                "tempo": 120.0
            },
            {
                "start_time": 9.6522727,
                "end_time": 9.8454545,
                "pitch": 72,
                "velocity": 64,
                "duration": 0.1931818,
                "tempo": 120.0
            },
            {
                "start_time": 9.8613636,
                "end_time": 10.0363636,
                "pitch": 74,
                "velocity": 64,
                "duration": 0.175,
                "tempo": 120.0
            },
            {
                "start_time": 10.0522727,
                "end_time": 10.2272727,
                "pitch": 72,
                "velocity": 64,
                "duration": 0.175,
                "tempo": 120.0
            },
            {
                "start_time": 10.2431818,
                "end_time": 10.6363636,
                "pitch": 70,
                "velocity": 64,
                "duration": 0.3931818,
                "tempo": 120.0
            },
            {
                "start_time": 10.6545455,
                "end_time": 11.0295455,
                "pitch": 68,
                "velocity": 64,
                "duration": 0.375,
                "tempo": 120.0
            },
            {
                "start_time": 11.0454545,
                "end_time": 11.45,
                "pitch": 67,
                "velocity": 64,
                "duration": 0.4045455,
                "tempo": 120.0
            },
            {
                "start_time": 11.4681818,
                "end_time": 11.8545455,
                "pitch": 65,
                "velocity": 64,
                "duration": 0.3863636,
                "tempo": 120.0
            },
            {
                "start_time": 11.8704545,
                "end_time": 12.8295455,
                "pitch": 63,
                "velocity": 64,
                "duration": 0.9590909,
                "tempo": 120.0
            }
        ],
        "Acoustic Bass": [
            {
                "start_time": 0.6068182,
                "end_time": 0.7954545,
                "pitch": 51,
                "velocity": 51,
                "duration": 0.1886364,
                "tempo": 120.0
            },
            {
                "start_time": 0.8113636,
                "end_time": 0.8977273,
                "pitch": 58,
                "velocity": 51,
                "duration": 0.0863636,
                "tempo": 120.0
            },
            {
                "start_time": 0.9136364,
                "end_time": 1.0,
                "pitch": 58,
                "velocity": 51,
                "duration": 0.0863636,
                "tempo": 120.0
            },
            {
                "start_time": 1.0159091,
                "end_time": 1.1977273,
                "pitch": 51,
                "velocity": 51,
                "duration": 0.1818182,
                "tempo": 120.0
            },
            {
                "start_time": 1.2136364,
                "end_time": 1.3931818,
                "pitch": 58,
                "velocity": 51,
                "duration": 0.1795455,
                "tempo": 120.0
            },
            {
                "start_time": 1.4090909,
                "end_time": 1.4613636,
                "pitch": 51,
                "velocity": 51,
                "duration": 0.0522727,
                "tempo": 120.0
            },
            {
                "start_time": 2.2113636,
                "end_time": 2.4,
                "pitch": 51,
                "velocity": 51,
                "duration": 0.1886364,
                "tempo": 120.0
            },
            {
                "start_time": 2.4181818,
                "end_time": 2.5022727,
                "pitch": 58,
                "velocity": 51,
                "duration": 0.0840909,
                "tempo": 120.0
            },
            {
                "start_time": 2.5204545,
                "end_time": 2.6068182,
                "pitch": 58,
                "velocity": 51,
                "duration": 0.0863636,
                "tempo": 120.0
            },
            {
                "start_time": 2.6227273,
                "end_time": 2.8022727,
                "pitch": 51,
                "velocity": 51,
                "duration": 0.1795455,
                "tempo": 120.0
            },
            {
                "start_time": 2.8181818,
                "end_time": 2.9977273,
                "pitch": 58,
                "velocity": 51,
                "duration": 0.1795455,
                "tempo": 120.0
            },
            {
                "start_time": 3.0136364,
                "end_time": 3.0659091,
                "pitch": 51,
                "velocity": 51,
                "duration": 0.0522727,
                "tempo": 120.0
            },
            {
                "start_time": 3.8181818,
                "end_time": 4.0068182,
                "pitch": 46,
                "velocity": 51,
                "duration": 0.1886364,
                "tempo": 120.0
            },
            {
                "start_time": 4.0227273,
                "end_time": 4.1090909,
                "pitch": 53,
                "velocity": 51,
                "duration": 0.0863636,
                "tempo": 120.0
            },
            {
                "start_time": 4.125,
                "end_time": 4.2113636,
                "pitch": 53,
                "velocity": 51,
                "duration": 0.0863636,
                "tempo": 120.0
            },
            {
                "start_time": 4.2272727,
                "end_time": 4.4068182,
                "pitch": 46,
                "velocity": 51,
                "duration": 0.1795455,
                "tempo": 120.0
            },
            {
                "start_time": 4.425,
                "end_time": 4.6045455,
                "pitch": 50,
                "velocity": 51,
                "duration": 0.1795455,
                "tempo": 120.0
            },
            {
                "start_time": 4.6204545,
                "end_time": 4.6727273,
                "pitch": 56,
                "velocity": 51,
                "duration": 0.0522727,
                "tempo": 120.0
            },
            {
                "start_time": 5.4227273,
                "end_time": 5.6113636,
                "pitch": 51,
                "velocity": 51,
                "duration": 0.1886364,
                "tempo": 120.0
            },
            {
                "start_time": 5.6295455,
                "end_time": 5.7136364,
                "pitch": 58,
                "velocity": 51,
                "duration": 0.0840909,
                "tempo": 120.0
            },
            {
                "start_time": 5.7318182,
                "end_time": 5.8181818,
                "pitch": 58,
                "velocity": 51,
                "duration": 0.0863636,
                "tempo": 120.0
            },
            {
                "start_time": 5.8340909,
                "end_time": 6.0136364,
                "pitch": 51,
                "velocity": 51,
                "duration": 0.1795455,
                "tempo": 120.0
            },
            {
                "start_time": 6.0295455,
                "end_time": 6.2090909,
                "pitch": 58,
                "velocity": 51,
                "duration": 0.1795455,
                "tempo": 120.0
            },
            {
                "start_time": 6.225,
                "end_time": 6.4113636,
                "pitch": 51,
                "velocity": 51,
                "duration": 0.1863636,
                "tempo": 120.0
            },
            {
                "start_time": 6.4272727,
                "end_time": 6.6113636,
                "pitch": 58,
                "velocity": 51,
                "duration": 0.1840909,
                "tempo": 120.0
            },
            {
                "start_time": 6.6295455,
                "end_time": 6.8181818,
                "pitch": 57,
                "velocity": 51,
                "duration": 0.1886364,
                "tempo": 120.0
            },
            {
                "start_time": 6.8340909,
                "end_time": 7.0227273,
                "pitch": 56,
                "velocity": 51,
                "duration": 0.1886364,
                "tempo": 120.0
            },
            {
                "start_time": 7.0386364,
                "end_time": 7.2181818,
                "pitch": 51,
                "velocity": 51,
                "duration": 0.1795455,
                "tempo": 120.0
            },
            {
                "start_time": 7.2363636,
                "end_time": 7.3159091,
                "pitch": 58,
                "velocity": 51,
                "duration": 0.0795455,
                "tempo": 120.0
            },
            {
                "start_time": 7.3340909,
                "end_time": 7.4159091,
                "pitch": 58,
                "velocity": 51,
                "duration": 0.0818182,
                "tempo": 120.0
            },
            {
                "start_time": 7.4318182,
                "end_time": 7.6204545,
                "pitch": 51,
                "velocity": 51,
                "duration": 0.1886364,
                "tempo": 120.0
            },
            {
                "start_time": 7.6363636,
                "end_time": 7.825,
                "pitch": 58,
                "velocity": 51,
                "duration": 0.1886364,
                "tempo": 120.0
            },
            {
                "start_time": 7.8409091,
                "end_time": 8.0204545,
                "pitch": 51,
                "velocity": 51,
                "duration": 0.1795455,
                "tempo": 120.0
            },
            {
                "start_time": 8.0386364,
                "end_time": 8.2181818,
                "pitch": 55,
                "velocity": 51,
                "duration": 0.1795455,
                "tempo": 120.0
            },
            {
                "start_time": 8.2340909,
                "end_time": 8.4272727,
                "pitch": 58,
                "velocity": 51,
                "duration": 0.1931818,
                "tempo": 120.0
            },
            {
                "start_time": 8.4454545,
                "end_time": 8.6386364,
                "pitch": 61,
                "velocity": 51,
                "duration": 0.1931818,
                "tempo": 120.0
            },
            {
                "start_time": 8.6545455,
                "end_time": 8.8295455,
                "pitch": 44,
                "velocity": 51,
                "duration": 0.175,
                "tempo": 120.0
            },
            {
                "start_time": 8.8454545,
                "end_time": 8.8613636,
                "pitch": 48,
                "velocity": 51,
                "duration": 0.0159091,
                "tempo": 120.0
            },
            {
                "start_time": 8.8772727,
                "end_time": 9.0204545,
                "pitch": 48,
                "velocity": 51,
                "duration": 0.1431818,
                "tempo": 120.0
            },
            {
                "start_time": 9.0386364,
                "end_time": 9.2227273,
                "pitch": 51,
                "velocity": 51,
                "duration": 0.1840909,
                "tempo": 120.0
            },
            {
                "start_time": 9.2386364,
                "end_time": 9.4227273,
                "pitch": 55,
                "velocity": 51,
                "duration": 0.1840909,
                "tempo": 120.0
            },
            {
                "start_time": 9.4409091,
                "end_time": 9.5272727,
                "pitch": 56,
                "velocity": 51,
                "duration": 0.0863636,
                "tempo": 120.0
            },
            {
                "start_time": 10.2431818,
                "end_time": 10.4318182,
                "pitch": 46,
                "velocity": 51,
                "duration": 0.1886364,
                "tempo": 120.0
            },
            {
                "start_time": 10.45,
                "end_time": 10.6363636,
                "pitch": 58,
                "velocity": 51,
                "duration": 0.1863636,
                "tempo": 120.0
            },
            {
                "start_time": 10.6545455,
                "end_time": 10.8340909,
                "pitch": 46,
                "velocity": 51,
                "duration": 0.1795455,
                "tempo": 120.0
            },
            {
                "start_time": 10.85,
                "end_time": 10.9318182,
                "pitch": 59,
                "velocity": 51,
                "duration": 0.0818182,
                "tempo": 120.0
            },
            {
                "start_time": 10.9477273,
                "end_time": 11.0295455,
                "pitch": 59,
                "velocity": 51,
                "duration": 0.0818182,
                "tempo": 120.0
            },
            {
                "start_time": 11.0454545,
                "end_time": 11.2386364,
                "pitch": 46,
                "velocity": 51,
                "duration": 0.1931818,
                "tempo": 120.0
            },
            {
                "start_time": 11.2568182,
                "end_time": 11.45,
                "pitch": 60,
                "velocity": 51,
                "duration": 0.1931818,
                "tempo": 120.0
            },
            {
                "start_time": 11.4681818,
                "end_time": 11.6522727,
                "pitch": 46,
                "velocity": 51,
                "duration": 0.1840909,
                "tempo": 120.0
            },
            {
                "start_time": 11.6704545,
                "end_time": 11.7545455,
                "pitch": 62,
                "velocity": 51,
                "duration": 0.0840909,
                "tempo": 120.0
            },
            {
                "start_time": 11.7704545,
                "end_time": 11.8545455,
                "pitch": 62,
                "velocity": 51,
                "duration": 0.0840909,
                "tempo": 120.0
            },
            {
                "start_time": 11.8704545,
                "end_time": 12.0545455,
                "pitch": 51,
                "velocity": 51,
                "duration": 0.1840909,
                "tempo": 120.0
            },
            {
                "start_time": 12.0704545,
                "end_time": 12.2545455,
                "pitch": 58,
                "velocity": 51,
                "duration": 0.1840909,
                "tempo": 120.0
            },
            {
                "start_time": 12.2704545,
                "end_time": 12.4386364,
                "pitch": 51,
                "velocity": 51,
                "duration": 0.1681818,
                "tempo": 120.0
            },
            {
                "start_time": 12.4545455,
                "end_time": 12.4704545,
                "pitch": 57,
                "velocity": 51,
                "duration": 0.0159091,
                "tempo": 120.0
            },
            {
                "start_time": 12.4863636,
                "end_time": 12.625,
                "pitch": 57,
                "velocity": 51,
                "duration": 0.1386364,
                "tempo": 120.0
            },
            {
                "start_time": 12.6409091,
                "end_time": 12.8295455,
                "pitch": 63,
                "velocity": 51,
                "duration": 0.1886364,
                "tempo": 120.0
            }
        ],
        "Clarinet": [
            {
                "start_time": 0.8113636,
                "end_time": 0.8295455,
                "pitch": 74,
                "velocity": 40,
                "duration": 0.0181818,
                "tempo": 120.0
            },
            {
                "start_time": 0.8454545,
                "end_time": 1.1977273,
                "pitch": 75,
                "velocity": 40,
                "duration": 0.3522727,
                "tempo": 120.0
            },
            {
                "start_time": 1.2136364,
                "end_time": 1.2295455,
                "pitch": 74,
                "velocity": 40,
                "duration": 0.0159091,
                "tempo": 120.0
            },
            {
                "start_time": 1.2454545,
                "end_time": 1.3931818,
                "pitch": 75,
                "velocity": 40,
                "duration": 0.1477273,
                "tempo": 120.0
            },
            {
                "start_time": 1.4090909,
                "end_time": 1.425,
                "pitch": 74,
                "velocity": 40,
                "duration": 0.0159091,
                "tempo": 120.0
            },
            {
                "start_time": 1.4431818,
                "end_time": 2.4,
                "pitch": 75,
                "velocity": 40,
                "duration": 0.9568182,
                "tempo": 120.0
            },
            {
                "start_time": 2.4181818,
                "end_time": 2.4340909,
                "pitch": 78,
                "velocity": 40,
                "duration": 0.0159091,
                "tempo": 120.0
            },
            {
                "start_time": 2.4522727,
                "end_time": 2.8022727,
                "pitch": 79,
                "velocity": 40,
                "duration": 0.35,
                "tempo": 120.0
            },
            {
                "start_time": 2.8181818,
                "end_time": 2.8340909,
                "pitch": 78,
                "velocity": 40,
                "duration": 0.0159091,
                "tempo": 120.0
            },
            {
                "start_time": 2.8522727,
                "end_time": 2.9977273,
                "pitch": 79,
                "velocity": 40,
                "duration": 0.1454545,
                "tempo": 120.0
            },
            {
                "start_time": 3.0136364,
                "end_time": 3.0318182,
                "pitch": 78,
                "velocity": 40,
                "duration": 0.0181818,
                "tempo": 120.0
            },
            {
                "start_time": 3.05,
                "end_time": 4.0068182,
                "pitch": 79,
                "velocity": 40,
                "duration": 0.9568182,
                "tempo": 120.0
            },
            {
                "start_time": 4.0227273,
                "end_time": 4.0409091,
                "pitch": 79,
                "velocity": 40,
                "duration": 0.0181818,
                "tempo": 120.0
            },
            {
                "start_time": 4.0568182,
                "end_time": 4.4068182,
                "pitch": 80,
                "velocity": 40,
                "duration": 0.35,
                "tempo": 120.0
            },
            {
                "start_time": 4.425,
                "end_time": 4.4409091,
                "pitch": 79,
                "velocity": 40,
                "duration": 0.0159091,
                "tempo": 120.0
            },
            {
                "start_time": 4.4568182,
                "end_time": 4.6045455,
                "pitch": 80,
                "velocity": 40,
                "duration": 0.1477273,
                "tempo": 120.0
            },
            {
                "start_time": 4.6204545,
                "end_time": 4.6363636,
                "pitch": 79,
                "velocity": 40,
                "duration": 0.0159091,
                "tempo": 120.0
            },
            {
                "start_time": 4.6545455,
                "end_time": 5.6113636,
                "pitch": 80,
                "velocity": 40,
                "duration": 0.9568182,
                "tempo": 120.0
            },
            {
                "start_time": 5.6295455,
                "end_time": 5.6454545,
                "pitch": 81,
                "velocity": 40,
                "duration": 0.0159091,
                "tempo": 120.0
            },
            {
                "start_time": 5.6636364,
                "end_time": 6.0136364,
                "pitch": 82,
                "velocity": 40,
                "duration": 0.35,
                "tempo": 120.0
            },
            {
                "start_time": 6.0295455,
                "end_time": 6.0454545,
                "pitch": 81,
                "velocity": 40,
                "duration": 0.0159091,
                "tempo": 120.0
            },
            {
                "start_time": 6.0613636,
                "end_time": 6.2090909,
                "pitch": 82,
                "velocity": 40,
                "duration": 0.1477273,
                "tempo": 120.0
            },
            {
                "start_time": 6.225,
                "end_time": 6.2431818,
                "pitch": 81,
                "velocity": 40,
                "duration": 0.0181818,
                "tempo": 120.0
            },
            {
                "start_time": 6.2590909,
                "end_time": 7.0227273,
                "pitch": 82,
                "velocity": 40,
                "duration": 0.7636364,
                "tempo": 120.0
            },
            {
                "start_time": 7.0386364,
                "end_time": 7.2181818,
                "pitch": 82,
                "velocity": 40,
                "duration": 0.1795455,
                "tempo": 120.0
            },
            {
                "start_time": 7.2363636,
                "end_time": 7.4159091,
                "pitch": 80,
                "velocity": 40,
                "duration": 0.1795455,
                "tempo": 120.0
            },
            {
                "start_time": 7.4318182,
                "end_time": 7.6204545,
                "pitch": 79,
                "velocity": 40,
                "duration": 0.1886364,
                "tempo": 120.0
            },
            {
                "start_time": 7.6363636,
                "end_time": 8.0204545,
                "pitch": 77,
                "velocity": 40,
                "duration": 0.3840909,
                "tempo": 120.0
            },
            {
                "start_time": 8.0386364,
                "end_time": 8.2181818,
                "pitch": 75,
                "velocity": 40,
                "duration": 0.1795455,
                "tempo": 120.0
            },
            {
                "start_time": 8.2340909,
                "end_time": 8.4272727,
                "pitch": 77,
                "velocity": 40,
                "duration": 0.1931818,
                "tempo": 120.0
            },
            {
                "start_time": 8.4454545,
                "end_time": 8.8295455,
                "pitch": 79,
                "velocity": 40,
                "duration": 0.3840909,
                "tempo": 120.0
            },
            {
                "start_time": 8.8454545,
                "end_time": 8.8613636,
                "pitch": 79,
                "velocity": 40,
                "duration": 0.0159091,
                "tempo": 120.0
            },
            {
                "start_time": 8.8772727,
                "end_time": 9.2227273,
                "pitch": 80,
                "velocity": 40,
                "duration": 0.3454545,
                "tempo": 120.0
            },
            {
                "start_time": 9.2386364,
                "end_time": 9.2545455,
                "pitch": 79,
                "velocity": 40,
                "duration": 0.0159091,
                "tempo": 120.0
            },
            {
                "start_time": 9.2727273,
                "end_time": 9.4227273,
                "pitch": 80,
                "velocity": 40,
                "duration": 0.15,
                "tempo": 120.0
            },
            {
                "start_time": 9.4409091,
                "end_time": 9.4568182,
                "pitch": 79,
                "velocity": 40,
                "duration": 0.0159091,
                "tempo": 120.0
            },
            {
                "start_time": 9.475,
                "end_time": 10.2272727,
                "pitch": 80,
                "velocity": 40,
                "duration": 0.7522727,
                "tempo": 120.0
            },
            {
                "start_time": 10.2431818,
                "end_time": 11.0295455,
                "pitch": 80,
                "velocity": 40,
                "duration": 0.7863636,
                "tempo": 120.0
            },
            {
                "start_time": 11.0454545,
                "end_time": 11.45,
                "pitch": 82,
                "velocity": 40,
                "duration": 0.4045455,
                "tempo": 120.0
            },
            {
                "start_time": 11.4681818,
                "end_time": 11.8545455,
                "pitch": 80,
                "velocity": 40,
                "duration": 0.3863636,
                "tempo": 120.0
            },
            {
                "start_time": 11.8704545,
                "end_time": 12.0545455,
                "pitch": 79,
                "velocity": 40,
                "duration": 0.1840909,
                "tempo": 120.0
            },
            {
                "start_time": 12.0704545,
                "end_time": 12.8295455,
                "pitch": 75,
                "velocity": 40,
                "duration": 0.7590909,
                "tempo": 120.0
            }
        ]
    }
}