{
    "mood": "happy",
    "instruments": {
        "Acoustic Bass": [
            {
                "start_time": 0.0159091,
                "end_time": 0.1272727,
                "pitch": 41,
                "velocity": 80,
                "duration": 0.1113636,
                "tempo": 120.0
            },
            {
                "start_time": 0.1295455,
                "end_time": 0.2454545,
                "pitch": 43,
                "velocity": 80,
                "duration": 0.1159091,
                "tempo": 120.0
            },
            {
                "start_time": 0.3636364,
                "end_time": 0.4795455,
                "pitch": 43,
                "velocity": 80,
                "duration": 0.1159091,
                "tempo": 120.0
            },
            {
                "start_time": 0.5954545,
                "end_time": 0.7090909,
                "pitch": 43,
                "velocity": 80,
                "duration": 0.1136364,
                "tempo": 120.0
            },
            {
                "start_time": 0.7113636,
                "end_time": 0.825,
                "pitch": 41,
                "velocity": 80,
                "duration": 0.1136364,
                "tempo": 120.0
            },
            {
                "start_time": 0.825,
                "end_time": 0.9386364,
                "pitch": 38,
                "velocity": 80,
                "duration": 0.1136364,
                "tempo": 120.0
            },
            {
                "start_time": 0.9409091,
                "end_time": 1.3977273,
                "pitch": 41,
                "velocity": 80,
                "duration": 0.4568182,
                "tempo": 120.0
            },
            {
                "start_time": 1.4,
                "end_time": 1.6318182,
                "pitch": 43,
                "velocity": 80,
                "duration": 0.2318182,
                "tempo": 120.0
            },
            {
                "start_time": 1.8704545,
                "end_time": 1.9840909,
                "pitch": 41,
                "velocity": 80,
                "duration": 0.1136364,
                "tempo": 120.0
            },
            {
                "start_time": 1.9863636,
                "end_time": 2.1022727,
                "pitch": 43,
                "velocity": 80,
                "duration": 0.1159091,
                "tempo": 120.0
            },
            {
                "start_time": 2.2204545,
                "end_time": 2.3363636,
                "pitch": 43,
                "velocity": 80,
                "duration": 0.1159091,
                "tempo": 120.0
            },
            {
                "start_time": 2.4568182,
                "end_time": 2.5727273,
                "pitch": 43,
                "velocity": 80,
                "duration": 0.1159091,
                "tempo": 120.0
            },
            {
                "start_time": 2.5727273,
                "end_time": 2.6886364,
                "pitch": 41,
                "velocity": 80,
                "duration": 0.1159091,
                "tempo": 120.0
            },
            {
                "start_time": 2.6909091,
                "end_time": 2.8068182,
                "pitch": 38,
                "velocity": 80,
                "duration": 0.1159091,
                "tempo": 120.0
            },
            {
                "start_time": 2.8090909,
                "end_time": 2.9204545,
                "pitch": 41,
                "velocity": 80,
                "duration": 0.1113636,
                "tempo": 120.0
            },
            {
                "start_time": 3.0363636,
                "end_time": 3.15,
                "pitch": 41,
                "velocity": 80,
                "duration": 0.1136364,
                "tempo": 120.0
            },
            {
                "start_time": 3.2659091,
                "end_time": 3.3840909,
                "pitch": 41,
                "velocity": 80,
                "duration": 0.1181818,
                "tempo": 120.0
            },
            {
                "start_time": 3.3840909,
                "end_time": 3.7363636,
                "pitch": 43,
                "velocity": 80,
                "duration": 0.3522727,
                "tempo": 120.0
            },
            {
                "start_time": 3.7386364,
                "end_time": 3.8522727,
                "pitch": 39,
                "velocity": 80,
                "duration": 0.1136364,
                "tempo": 120.0
            },
            {
                "start_time": 3.8545455,
                "end_time": 3.9704545,
                "pitch": 41,
                "velocity": 80,
                "duration": 0.1159091,
                "tempo": 120.0
            },
            {
                "start_time": 4.0886364,
                "end_time": 4.2045455,
                "pitch": 41,
                "velocity": 80,
                "duration": 0.1159091,
                "tempo": 120.0
            },
            {
                "start_time": 4.3227273,
                "end_time": 4.4409091,
                "pitch": 41,
                "velocity": 80,
                "duration": 0.1181818,
                "tempo": 120.0
            },
            {
                "start_time": 4.4409091,
                "end_time": 4.5568182,
                "pitch": 39,
                "velocity": 80,
                "duration": 0.1159091,
                "tempo": 120.0
            },
            {
                "start_time": 4.5590909,
                "end_time": 4.675,
                "pitch": 36,
                "velocity": 80,
                "duration": 0.1159091,
                "tempo": 120.0
            },
            {
                "start_time": 4.675,
                "end_time": 5.1340909,
                "pitch": 39,
                "velocity": 80,
                "duration": 0.4590909,
                "tempo": 120.0
            },
            {
                "start_time": 5.1340909,
                "end_time": 5.3681818,
                "pitch": 41,
                "velocity": 80,
                "duration": 0.2340909,
                "tempo": 120.0
            },
            {
                "start_time": 5.6045455,
                "end_time": 5.7204545,
                "pitch": 39,
                "velocity": 80,
                "duration": 0.1159091,
                "tempo": 120.0
            },
            {
                "start_time": 5.7204545,
                "end_time": 5.8363636,
                "pitch": 41,
                "velocity": 80,
                "duration": 0.1159091,
                "tempo": 120.0
            },
            {
                "start_time": 5.9568182,
                "end_time": 6.0727273,
                "pitch": 41,
                "velocity": 80,
                "duration": 0.1159091,
                "tempo": 120.0
            },
            {
                "start_time": 6.1909091,
                "end_time": 6.3068182,
                "pitch": 41,
                "velocity": 80,
                "duration": 0.1159091,
                "tempo": 120.0
            },
            {
                "start_time": 6.3090909,
                "end_time": 6.425,
                "pitch": 39,
                "velocity": 80,
                "duration": 0.1159091,
                "tempo": 120.0
            },
            {
                "start_time": 6.425,
                "end_time": 6.5431818,
                "pitch": 36,
                "velocity": 80,
                "duration": 0.1181818,
                "tempo": 120.0
            },
            {
                "start_time": 6.5431818,
                "end_time": 6.6568182,
                "pitch": 39,
                "velocity": 80,
                "duration": 0.1136364,
                "tempo": 120.0
            },
            {
                "start_time": 6.7727273,
                "end_time": 6.8863636,
                "pitch": 39,
                "velocity": 80,
                "duration": 0.1136364,
                "tempo": 120.0
            },
            {
                "start_time": 7.0022727,
                "end_time": 7.1181818,
                "pitch": 39,
                "velocity": 80,
                "duration": 0.1159091,
                "tempo": 120.0
            },
            {
                "start_time": 7.1204545,
                "end_time": 7.475,
                "pitch": 41,
                "velocity": 80,
                "duration": 0.3545455,
                "tempo": 120.0
            },
            {
                "start_time": 7.4772727,
                "end_time": 7.5886364,
                "pitch": 41,
                "velocity": 80,
                "duration": 0.1113636,
                "tempo": 120.0
            },
            {
                "start_time": 7.5909091,
                "end_time": 7.7045455,
                "pitch": 43,
                "velocity": 80,
                "duration": 0.1136364,
                "tempo": 120.0
            },
            {
                "start_time": 7.825,
                "end_time": 7.9409091,
                "pitch": 43,
                "velocity": 80,
                "duration": 0.1159091,
                "tempo": 120.0
            },
            {
                "start_time": 8.0590909,
                "end_time": 8.1772727,
                "pitch": 43,
                "velocity": 80,
                "duration": 0.1181818,
                "tempo": 120.0
            },
            {
                "start_time": 8.1772727,
                "end_time": 8.2931818,
                "pitch": 41,
                "velocity": 80,
                "duration": 0.1159091,
                "tempo": 120.0
            },
            {
                "start_time": 8.2931818,
                "end_time": 8.4113636,
                "pitch": 38,
                "velocity": 80,
                "duration": 0.1181818,
                "tempo": 120.0
            },
            {
                "start_time": 8.4136364,
                "end_time": 8.8704545,
                "pitch": 41,
                "velocity": 80,
                "duration": 0.4568182,
                "tempo": 120.0
            },
            {
                "start_time": 8.8704545,
                "end_time": 9.1022727,
                "pitch": 43,
                "velocity": 80,
                "duration": 0.2318182,
                "tempo": 120.0
            },
            {
                "start_time": 9.3409091,
                "end_time": 9.4545455,
                "pitch": 41,
                "velocity": 80,
                "duration": 0.1136364,
                "tempo": 120.0
            },
            {
                "start_time": 9.4568182,
                "end_time": 9.575,
                "pitch": 43,
                "velocity": 80,
                "duration": 0.1181818,
                "tempo": 120.0
            },
            {
                "start_time": 9.6909091,
                "end_time": 9.8090909,
                "pitch": 43,
                "velocity": 80,
                "duration": 0.1181818,
                "tempo": 120.0
            },
            {
                "start_time": 9.9272727,
                "end_time": 10.0431818,
                "pitch": 43,
                "velocity": 80,
                "duration": 0.1159091,
                "tempo": 120.0
            },
            {
                "start_time": 10.0454545,
                "end_time": 10.1613636,
                "pitch": 41,
                "velocity": 80,
                "duration": 0.1159091,
                "tempo": 120.0
            },
            {
                "start_time": 10.1636364,
                "end_time": 10.2795455,
                "pitch": 38,
                "velocity": 80,
                "duration": 0.1159091,
                "tempo": 120.0
            },
            {
                "start_time": 10.2795455,
                "end_time": 10.3931818,
                "pitch": 41,
                "velocity": 80,
                "duration": 0.1136364,
                "tempo": 120.0
            },
            {
                "start_time": 10.5090909,
                "end_time": 10.6227273,
                "pitch": 41,
                "velocity": 80,
                "duration": 0.1136364,
                "tempo": 120.0
            },
            {
                "start_time": 10.7386364,
                "end_time": 10.8545455,
                "pitch": 41,
                "velocity": 80,
                "duration": 0.1159091,
                "tempo": 120.0
            },
            {
                "start_time": 10.8568182,
                "end_time": 11.2090909,
                "pitch": 43,
                "velocity": 80,
                "duration": 0.3522727,
                "tempo": 120.0
            },
            {
                "start_time": 11.2090909,
                "end_time": 11.325,
                "pitch": 39,
                "velocity": 80,
                "duration": 0.1159091,
                "tempo": 120.0
            },
            {
                "start_time": 11.325,
                "end_time": 11.4409091,
                "pitch": 41,
                "velocity": 80,
                "duration": 0.1159091,
                "tempo": 120.0
            },
            {
                "start_time": 11.5613636,
                "end_time": 11.6772727,
                "pitch": 41,
                "velocity": 80,
                "duration": 0.1159091,
                "tempo": 120.0
            },
            {
                "start_time": 11.7931818,
                "end_time": 11.9068182,
                "pitch": 41,
                "velocity": 80,
                "duration": 0.1136364,
                "tempo": 120.0
            },
            {
                "start_time": 11.9068182,
                "end_time": 12.0204545,
                "pitch": 39,
                "velocity": 80,
                "duration": 0.1136364,
                "tempo": 120.0
            },
            {
                "start_time": 12.0204545,
                "end_time": 12.1363636,
                "pitch": 36,
                "velocity": 80,
                "duration": 0.1159091,
                "tempo": 120.0
            },
            {
                "start_time": 12.1386364,
                "end_time": 12.6045455,
                "pitch": 39,
                "velocity": 80,
                "duration": 0.4659091,
                "tempo": 120.0
            },
            {
                "start_time": 12.6068182,
                "end_time": 12.8386364,
                "pitch": 41,
                "velocity": 80,
                "duration": 0.2318182,
                "tempo": 120.0
            },
            {
                "start_time": 13.0772727,
                "end_time": 13.1886364,
                "pitch": 39,
                "velocity": 80,
                "duration": 0.1113636,
                "tempo": 120.0
            },
            {
                "start_time": 13.1886364,
                "end_time": 13.3045455,
                "pitch": 41,
                "velocity": 80,
                "duration": 0.1159091,
                "tempo": 120.0
            },
            {
                "start_time": 13.4181818,
                "end_time": 13.5340909,
                "pitch": 41,
                "velocity": 80,
                "duration": 0.1159091,
                "tempo": 120.0
            },
            {
                "start_time": 13.6522727,
                "end_time": 13.7681818,
                "pitch": 41,
                "velocity": 80,
                "duration": 0.1159091,
                "tempo": 120.0
            },
            {
                "start_time": 13.7704545,
                "end_time": 13.8863636,
                "pitch": 39,
                "velocity": 80,
                "duration": 0.1159091,
                "tempo": 120.0
            },
            {
                "start_time": 13.8863636,
                "end_time": 14.0022727,
                "pitch": 36,
                "velocity": 80,
                "duration": 0.1159091,
                "tempo": 120.0
            },
            {
                "start_time": 14.0045455,
                "end_time": 14.1204545,
                "pitch": 39,
                "velocity": 80,
                "duration": 0.1159091,
                "tempo": 120.0
            },
            {
                "start_time": 14.2386364,
                "end_time": 14.3545455,
                "pitch": 39,
                "velocity": 80,
                "duration": 0.1159091,
                "tempo": 120.0
            },
            {
                "start_time": 14.475,
                "end_time": 14.5909091,
                "pitch": 39,
                "velocity": 80,
                "duration": 0.1159091,
                "tempo": 120.0
            },
            {
                "start_time": 14.5909091,
                "end_time": 14.9431818,
                "pitch": 41,
                "velocity": 80,
                "duration": 0.3522727,
                "tempo": 120.0
            },
            {
                "start_time": 14.9454545,
                "end_time": 15.0590909,
                "pitch": 41,
                "velocity": 80,
                "duration": 0.1136364,
                "tempo": 120.0
            },
            {
                "start_time": 15.0613636,
                "end_time": 15.175,
                "pitch": 43,
                "velocity": 80,
                "duration": 0.1136364,
                "tempo": 120.0
            },
            {
                "start_time": 15.2954545,
                "end_time": 15.4113636,
                "pitch": 43,
                "velocity": 80,
                "duration": 0.1159091,
                "tempo": 120.0
            },
            {
                "start_time": 15.5272727,
                "end_time": 15.6409091,
                "pitch": 43,
                "velocity": 80,
                "duration": 0.1136364,
                "tempo": 120.0
            },
            {
                "start_time": 15.6431818,
                "end_time": 15.7545455,
                "pitch": 41,
                "velocity": 80,
                "duration": 0.1113636,
                "tempo": 120.0
            },
            {
                "start_time": 15.7568182,
                "end_time": 15.8727273,
                "pitch": 38,
                "velocity": 80,
                "duration": 0.1159091,
                "tempo": 120.0
            },
            {
                "start_time": 15.8727273,
                "end_time": 16.3409091,
                "pitch": 41,
                "velocity": 80,
                "duration": 0.4681818,
                "tempo": 120.0
            },
            {
                "start_time": 16.3409091,
                "end_time": 16.5727273,
                "pitch": 43,
                "velocity": 80,
                "duration": 0.2318182,
                "tempo": 120.0
            },
            {
                "start_time": 16.8113636,
                "end_time": 16.9227273,
                "pitch": 41,
                "velocity": 80,
                "duration": 0.1113636,
                "tempo": 120.0
            },
            {
                "start_time": 16.925,
                "end_time": 17.0386364,
                "pitch": 43,
                "velocity": 80,
                "duration": 0.1136364,
                "tempo": 120.0
            },
            {
                "start_time": 17.1545455,
                "end_time": 17.2681818,
                "pitch": 43,
                "velocity": 80,
                "duration": 0.1136364,
                "tempo": 120.0
            },
            {
                "start_time": 17.3863636,
                "end_time": 17.5045455,
                "pitch": 43,
                "velocity": 80,
                "duration": 0.1181818,
                "tempo": 120.0
            },
            {
                "start_time": 17.5045455,
                "end_time": 17.6204545,
                "pitch": 41,
                "velocity": 80,
                "duration": 0.1159091,
                "tempo": 120.0
            },
            {
                "start_time": 17.6227273,
                "end_time": 17.7386364,
                "pitch": 38,
                "velocity": 80,
                "duration": 0.1159091,
                "tempo": 120.0
            },
            {
                "start_time": 17.7409091,
                "end_time": 17.8545455,
                "pitch": 41,
                "velocity": 80,
                "duration": 0.1136364,
                "tempo": 120.0
            },
            {
                "start_time": 17.975,
                "end_time": 18.0909091,
                "pitch": 41,
                "velocity": 80,
                "duration": 0.1159091,
                "tempo": 120.0
            },
            {
                "start_time": 18.2090909,
                "end_time": 18.325,
                "pitch": 41,
                "velocity": 80,
                "duration": 0.1159091,
                "tempo": 120.0
            },
            {
                "start_time": 18.3272727,
                "end_time": 18.6795455,
                "pitch": 43,
                "velocity": 80,
                "duration": 0.3522727,
                "tempo": 120.0
            },
            {
                "start_time": 18.6795455,
                "end_time": 18.7931818,
                "pitch": 39,
                "velocity": 80,
                "duration": 0.1136364,
                "tempo": 120.0
            },
            {
                "start_time": 18.7931818,
                "end_time": 18.9045455,
                "pitch": 41,
                "velocity": 80,
                "duration": 0.1113636,
                "tempo": 120.0
            },
            {
                "start_time": 19.0227273,
                "end_time": 19.1363636,
                "pitch": 41,
                "velocity": 80,
                "duration": 0.1136364,
                "tempo": 120.0
            },
            {
                "start_time": 19.2545455,
                "end_time": 19.3704545,
                "pitch": 41,
                "velocity": 80,
                "duration": 0.1159091,
                "tempo": 120.0
            },
            {
                "start_time": 19.3727273,
                "end_time": 19.4863636,
                "pitch": 39,
                "velocity": 80,
                "duration": 0.1136364,
                "tempo": 120.0
            },
            {
                "start_time": 19.4886364,
                "end_time": 19.6068182,
                "pitch": 36,
                "velocity": 80,
                "duration": 0.1181818,
                "tempo": 120.0
            },
            {
                "start_time": 19.6068182,
                "end_time": 20.075,
                "pitch": 39,
                "velocity": 80,
                "duration": 0.4681818,
                "tempo": 120.0
            },
            {
                "start_time": 20.0772727,
                "end_time": 20.3090909,
                "pitch": 41,
                "velocity": 80,
                "duration": 0.2318182,
                "tempo": 120.0
            },
            {
                "start_time": 20.5477273,
                "end_time": 20.6590909,
                "pitch": 39,
                "velocity": 80,
                "duration": 0.1113636,
                "tempo": 120.0
            },
            {
                "start_time": 20.6590909,
                "end_time": 20.775,
                "pitch": 41,
                "velocity": 80,
                "duration": 0.1159091,
                "tempo": 120.0
            },
            {
                "start_time": 20.8886364,
                "end_time": 21.0045455,
                "pitch": 41,
                "velocity": 80,
                "duration": 0.1159091,
                "tempo": 120.0
            },
            {
                "start_time": 21.1227273,
                "end_time": 21.2386364,
                "pitch": 41,
                "velocity": 80,
                "duration": 0.1159091,
                "tempo": 120.0
            },
            {
                "start_time": 21.2409091,
                "end_time": 21.3568182,
                "pitch": 39,
                "velocity": 80,
                "duration": 0.1159091,
                "tempo": 120.0
            },
            {
                "start_time": 21.3568182,
                "end_time": 21.4727273,
                "pitch": 36,
                "velocity": 80,
                "duration": 0.1159091,
                "tempo": 120.0
            },
            {
                "start_time": 21.475,
                "end_time": 21.5909091,
                "pitch": 39,
                "velocity": 80,
                "duration": 0.1159091,
                "tempo": 120.0
            },
            {
                "start_time": 21.7090909,
                "end_time": 21.825,
                "pitch": 39,
                "velocity": 80,
                "duration": 0.1159091,
                "tempo": 120.0
            },
            {
                "start_time": 21.9454545,
                "end_time": 22.0568182,
                "pitch": 39,
                "velocity": 80,
                "duration": 0.1113636,
                "tempo": 120.0
            },
            {
                "start_time": 22.0590909,
                "end_time": 22.4022727,
                "pitch": 41,
                "velocity": 80,
                "duration": 0.3431818,
                "tempo": 120.0
            },
            {
                "start_time": 22.4136364,
                "end_time": 22.5227273,
                "pitch": 41,
                "velocity": 80,
                "duration": 0.1090909,
                "tempo": 120.0
            },
            {
                "start_time": 22.5227273,
                "end_time": 22.6386364,
                "pitch": 43,
                "velocity": 80,
                "duration": 0.1159091,
                "tempo": 120.0
            }
        ],
        "Electric Piano 1": [
            {
                "start_time": 0.0136364,
                "end_time": 0.1272727,
                "pitch": 29,
                "velocity": 40,
                "duration": 0.1136364,
                "tempo": 120.0
            },
            {
                "start_time": 0.1272727,
                "end_time": 0.2454545,
                "pitch": 31,
                "velocity": 40,
                "duration": 0.1181818,
                "tempo": 120.0
            },
            {
                "start_time": 0.3636364,
                "end_time": 0.4795455,
                "pitch": 31,
                "velocity": 40,
                "duration": 0.1159091,
                "tempo": 120.0
            },
            {
                "start_time": 0.5954545,
                "end_time": 0.7090909,
                "pitch": 31,
                "velocity": 40,
                "duration": 0.1136364,
                "tempo": 120.0
            },
            {
                "start_time": 0.7090909,
                "end_time": 0.8227273,
                "pitch": 29,
                "velocity": 40,
                "duration": 0.1136364,
                "tempo": 120.0
            },
            {
                "start_time": 0.825,
                "end_time": 0.9386364,
                "pitch": 26,
                "velocity": 40,
                "duration": 0.1136364,
                "tempo": 120.0
            },
            {
                "start_time": 0.9386364,
                "end_time": 1.3977273,
                "pitch": 29,
                "velocity": 40,
                "duration": 0.4590909,
                "tempo": 120.0
            },
            {
                "start_time": 1.3977273,
                "end_time": 1.6318182,
                "pitch": 31,
                "velocity": 40,
                "duration": 0.2340909,
                "tempo": 120.0
            },
            {
                "start_time": 1.8681818,
                "end_time": 1.9840909,
                "pitch": 29,
                "velocity": 40,
                "duration": 0.1159091,
                "tempo": 120.0
            },
            {
                "start_time": 1.9840909,
                "end_time": 2.1022727,
                "pitch": 31,
                "velocity": 40,
                "duration": 0.1181818,
                "tempo": 120.0
            },
            {
                "start_time": 2.2204545,
                "end_time": 2.3363636,
                "pitch": 31,
                "velocity": 40,
                "duration": 0.1159091,
                "tempo": 120.0
            },
            {
                "start_time": 2.4545455,
                "end_time": 2.5704545,
                "pitch": 31,
                "velocity": 40,
                "duration": 0.1159091,
                "tempo": 120.0
            },
            {
                "start_time": 2.5727273,
                "end_time": 2.6886364,
                "pitch": 29,
                "velocity": 40,
                "duration": 0.1159091,
                "tempo": 120.0
            },
            {
                "start_time": 2.6886364,
                "end_time": 2.8068182,
                "pitch": 26,
                "velocity": 40,
                "duration": 0.1181818,
                "tempo": 120.0
            },
            {
                "start_time": 2.8068182,
                "end_time": 2.9204545,
                "pitch": 29,
                "velocity": 40,
                "duration": 0.1136364,
                "tempo": 120.0
            },
            {
                "start_time": 3.0363636,
                "end_time": 3.15,
                "pitch": 29,
                "velocity": 40,
                "duration": 0.1136364,
                "tempo": 120.0
            },
            {
                "start_time": 3.2659091,
                "end_time": 3.3818182,
                "pitch": 29,
                "velocity": 40,
                "duration": 0.1159091,
                "tempo": 120.0
            },
            {
                "start_time": 3.3818182,
                "end_time": 3.7340909,
                "pitch": 31,
                "velocity": 40,
                "duration": 0.3522727,
                "tempo": 120.0
            },
            {
                "start_time": 3.7363636,
                "end_time": 3.8522727,
                "pitch": 27,
                "velocity": 40,
                "duration": 0.1159091,
                "tempo": 120.0
            },
            {
                "start_time": 3.8522727,
                "end_time": 3.9704545,
                "pitch": 29,
                "velocity": 40,
                "duration": 0.1181818,
                "tempo": 120.0
            },
            {
                "start_time": 4.0863636,
                "end_time": 4.2045455,
                "pitch": 29,
                "velocity": 40,
                "duration": 0.1181818,
                "tempo": 120.0
            },
            {
                "start_time": 4.3227273,
                "end_time": 4.4386364,
                "pitch": 29,
                "velocity": 40,
                "duration": 0.1159091,
                "tempo": 120.0
            },
            {
                "start_time": 4.4409091,
                "end_time": 4.5568182,
                "pitch": 27,
                "velocity": 40,
                "duration": 0.1159091,
                "tempo": 120.0
            },
            {
                "start_time": 4.5568182,
                "end_time": 4.675,
                "pitch": 24,
                "velocity": 40,
                "duration": 0.1181818,
                "tempo": 120.0
            },
            {
                "start_time": 4.675,
                "end_time": 5.1318182,
                "pitch": 27,
                "velocity": 40,
                "duration": 0.4568182,
                "tempo": 120.0
            },
            {
                "start_time": 5.1340909,
                "end_time": 5.3681818,
                "pitch": 29,
                "velocity": 40,
                "duration": 0.2340909,
                "tempo": 120.0
            },
            {
                "start_time": 5.6045455,
                "end_time": 5.7204545,
                "pitch": 27,
                "velocity": 40,
                "duration": 0.1159091,
                "tempo": 120.0
            },
            {
                "start_time": 5.7204545,
                "end_time": 5.8363636,
                "pitch": 29,
                "velocity": 40,
                "duration": 0.1159091,
                "tempo": 120.0
            },
            {
                "start_time": 5.9545455,
                "end_time": 6.0727273,
                "pitch": 29,
                "velocity": 40,
                "duration": 0.1181818,
                "tempo": 120.0
            },
            {
                "start_time": 6.1886364,
                "end_time": 6.3068182,
                "pitch": 29,
                "velocity": 40,
                "duration": 0.1181818,
                "tempo": 120.0
            },
            {
                "start_time": 6.3068182,
                "end_time": 6.4227273,
                "pitch": 27,
                "velocity": 40,
                "duration": 0.1159091,
                "tempo": 120.0
            },
            {
                "start_time": 6.425,
                "end_time": 6.5409091,
                "pitch": 24,
                "velocity": 40,
                "duration": 0.1159091,
                "tempo": 120.0
            },
            {
                "start_time": 6.5431818,
                "end_time": 6.6568182,
                "pitch": 27,
                "velocity": 40,
                "duration": 0.1136364,
                "tempo": 120.0
            },
            {
                "start_time": 6.7704545,
                "end_time": 6.8840909,
                "pitch": 27,
                "velocity": 40,
                "duration": 0.1136364,
                "tempo": 120.0
            },
            {
                "start_time": 7.0,
                "end_time": 7.1181818,
                "pitch": 27,
                "velocity": 40,
                "duration": 0.1181818,
                "tempo": 120.0
            },
            {
                "start_time": 7.1181818,
                "end_time": 7.4727273,
                "pitch": 29,
                "velocity": 40,
                "duration": 0.3545455,
                "tempo": 120.0
            },
            {
                "start_time": 7.475,
                "end_time": 7.5886364,
                "pitch": 29,
                "velocity": 40,
                "duration": 0.1136364,
                "tempo": 120.0
            },
            {
                "start_time": 7.5886364,
                "end_time": 7.7045455,
                "pitch": 31,
                "velocity": 40,
                "duration": 0.1159091,
                "tempo": 120.0
            },
            {
                "start_time": 7.825,
                "end_time": 7.9409091,
                "pitch": 31,
                "velocity": 40,
                "duration": 0.1159091,
                "tempo": 120.0
            },
            {
                "start_time": 8.0590909,
                "end_time": 8.175,
                "pitch": 31,
                "velocity": 40,
                "duration": 0.1159091,
                "tempo": 120.0
            },
            {
                "start_time": 8.1772727,
                "end_time": 8.2909091,
                "pitch": 29,
                "velocity": 40,
                "duration": 0.1136364,
                "tempo": 120.0
            },
            {
                "start_time": 8.2931818,
                "end_time": 8.4113636,
                "pitch": 26,
                "velocity": 40,
                "duration": 0.1181818,
                "tempo": 120.0
            },
            {
                "start_time": 8.4113636,
                "end_time": 8.8681818,
                "pitch": 29,
                "velocity": 40,
                "duration": 0.4568182,
                "tempo": 120.0
            },
            {
                "start_time": 8.8704545,
                "end_time": 9.1022727,
                "pitch": 31,
                "velocity": 40,
                "duration": 0.2318182,
                "tempo": 120.0
            },
            {
                "start_time": 9.3409091,
                "end_time": 9.4545455,
                "pitch": 29,
                "velocity": 40,
                "duration": 0.1136364,
                "tempo": 120.0
            },
            {
                "start_time": 9.4545455,
                "end_time": 9.575,
                "pitch": 31,
                "velocity": 40,
                "duration": 0.1204545,
                "tempo": 120.0
            },
            {
                "start_time": 9.6909091,
                "end_time": 9.8090909,
                "pitch": 31,
                "velocity": 40,
                "duration": 0.1181818,
                "tempo": 120.0
            },
            {
                "start_time": 9.9272727,
                "end_time": 10.0431818,
                "pitch": 31,
                "velocity": 40,
                "duration": 0.1159091,
                "tempo": 120.0
            },
            {
                "start_time": 10.0431818,
                "end_time": 10.1613636,
                "pitch": 29,
                "velocity": 40,
                "duration": 0.1181818,
                "tempo": 120.0
            },
            {
                "start_time": 10.1613636,
                "end_time": 10.2772727,
                "pitch": 26,
                "velocity": 40,
                "duration": 0.1159091,
                "tempo": 120.0
            },
            {
                "start_time": 10.2795455,
                "end_time": 10.3931818,
                "pitch": 29,
                "velocity": 40,
                "duration": 0.1136364,
                "tempo": 120.0
            },
            {
                "start_time": 10.5090909,
                "end_time": 10.6227273,
                "pitch": 29,
                "velocity": 40,
                "duration": 0.1136364,
                "tempo": 120.0
            },
            {
                "start_time": 10.7386364,
                "end_time": 10.8545455,
                "pitch": 29,
                "velocity": 40,
                "duration": 0.1159091,
                "tempo": 120.0
            },
            {
                "start_time": 10.8545455,
                "end_time": 11.2068182,
                "pitch": 31,
                "velocity": 40,
                "duration": 0.3522727,
                "tempo": 120.0
            },
            {
                "start_time": 11.2090909,
                "end_time": 11.3227273,
                "pitch": 27,
                "velocity": 40,
                "duration": 0.1136364,
                "tempo": 120.0
            },
            {
                "start_time": 11.325,
                "end_time": 11.4409091,
                "pitch": 29,
                "velocity": 40,
                "duration": 0.1159091,
                "tempo": 120.0
            },
            {
                "start_time": 11.5590909,
                "end_time": 11.675,
                "pitch": 29,
                "velocity": 40,
                "duration": 0.1159091,
                "tempo": 120.0
            },
            {
                "start_time": 11.7909091,
                "end_time": 11.9045455,
                "pitch": 29,
                "velocity": 40,
                "duration": 0.1136364,
                "tempo": 120.0
            },
            {
                "start_time": 11.9068182,
                "end_time": 12.0181818,
                "pitch": 27,
                "velocity": 40,
                "duration": 0.1113636,
                "tempo": 120.0
            },
            {
                "start_time": 12.0181818,
                "end_time": 12.1363636,
                "pitch": 24,
                "velocity": 40,
                "duration": 0.1181818,
                "tempo": 120.0
            },
            {
                "start_time": 12.1363636,
                "end_time": 12.6045455,
                "pitch": 27,
                "velocity": 40,
                "duration": 0.4681818,
                "tempo": 120.0
            },
            {
                "start_time": 12.6045455,
                "end_time": 12.8386364,
                "pitch": 29,
                "velocity": 40,
                "duration": 0.2340909,
                "tempo": 120.0
            },
            {
                "start_time": 13.075,
                "end_time": 13.1863636,
                "pitch": 27,
                "velocity": 40,
                "duration": 0.1113636,
                "tempo": 120.0
            },
            {
                "start_time": 13.1886364,
                "end_time": 13.3045455,
                "pitch": 29,
                "velocity": 40,
                "duration": 0.1159091,
                "tempo": 120.0
            },
            {
                "start_time": 13.4181818,
                "end_time": 13.5318182,
                "pitch": 29,
                "velocity": 40,
                "duration": 0.1136364,
                "tempo": 120.0
            },
            {
                "start_time": 13.65,
                "end_time": 13.7681818,
                "pitch": 29,
                "velocity": 40,
                "duration": 0.1181818,
                "tempo": 120.0
            },
            {
                "start_time": 13.7681818,
                "end_time": 13.8840909,
                "pitch": 27,
                "velocity": 40,
                "duration": 0.1159091,
                "tempo": 120.0
            },
            {
                "start_time": 13.8863636,
                "end_time": 14.0022727,
                "pitch": 24,
                "velocity": 40,
                "duration": 0.1159091,
                "tempo": 120.0
            },
            {
                "start_time": 14.0022727,
                "end_time": 14.1204545,
                "pitch": 27,
                "velocity": 40,
                "duration": 0.1181818,
                "tempo": 120.0
            },
            {
                "start_time": 14.2386364,
                "end_time": 14.3522727,
                "pitch": 27,
                "velocity": 40,
                "duration": 0.1136364,
                "tempo": 120.0
            },
            {
                "start_time": 14.4727273,
                "end_time": 14.5886364,
                "pitch": 27,
                "velocity": 40,
                "duration": 0.1159091,
                "tempo": 120.0
            },
            {
                "start_time": 14.5909091,
                "end_time": 14.9431818,
                "pitch": 29,
                "velocity": 40,
                "duration": 0.3522727,
                "tempo": 120.0
            },
            {
                "start_time": 14.9431818,
                "end_time": 15.0590909,
                "pitch": 29,
                "velocity": 40,
                "duration": 0.1159091,
                "tempo": 120.0
            },
            {
                "start_time": 15.0590909,
                "end_time": 15.175,
                "pitch": 31,
                "velocity": 40,
                "duration": 0.1159091,
                "tempo": 120.0
            },
            {
                "start_time": 15.2954545,
                "end_time": 15.4113636,
                "pitch": 31,
                "velocity": 40,
                "duration": 0.1159091,
                "tempo": 120.0
            },
            {
                "start_time": 15.5272727,
                "end_time": 15.6409091,
                "pitch": 31,
                "velocity": 40,
                "duration": 0.1136364,
                "tempo": 120.0
            },
            {
                "start_time": 15.6409091,
                "end_time": 15.7545455,
                "pitch": 29,
                "velocity": 40,
                "duration": 0.1136364,
                "tempo": 120.0
            },
            {
                "start_time": 15.7545455,
                "end_time": 15.8704545,
                "pitch": 26,
                "velocity": 40,
                "duration": 0.1159091,
                "tempo": 120.0
            },
            {
                "start_time": 15.8704545,
                "end_time": 16.3386364,
                "pitch": 29,
                "velocity": 40,
                "duration": 0.4681818,
                "tempo": 120.0
            },
            {
                "start_time": 16.3409091,
                "end_time": 16.5727273,
                "pitch": 31,
                "velocity": 40,
                "duration": 0.2318182,
                "tempo": 120.0
            },
            {
                "start_time": 16.8113636,
                "end_time": 16.9227273,
                "pitch": 29,
                "velocity": 40,
                "duration": 0.1113636,
                "tempo": 120.0
            },
            {
                "start_time": 16.9227273,
                "end_time": 17.0386364,
                "pitch": 31,
                "velocity": 40,
                "duration": 0.1159091,
                "tempo": 120.0
            },
            {
                "start_time": 17.1522727,
                "end_time": 17.2681818,
                "pitch": 31,
                "velocity": 40,
                "duration": 0.1159091,
                "tempo": 120.0
            },
            {
                "start_time": 17.3863636,
                "end_time": 17.5022727,
                "pitch": 31,
                "velocity": 40,
                "duration": 0.1159091,
                "tempo": 120.0
            },
            {
                "start_time": 17.5045455,
                "end_time": 17.6204545,
                "pitch": 29,
                "velocity": 40,
                "duration": 0.1159091,
                "tempo": 120.0
            },
            {
                "start_time": 17.6204545,
                "end_time": 17.7386364,
                "pitch": 26,
                "velocity": 40,
                "duration": 0.1181818,
                "tempo": 120.0
            },
            {
                "start_time": 17.7386364,
                "end_time": 17.8545455,
                "pitch": 29,
                "velocity": 40,
                "duration": 0.1159091,
                "tempo": 120.0
            },
            {
                "start_time": 17.9727273,
                "end_time": 18.0886364,
                "pitch": 29,
                "velocity": 40,
                "duration": 0.1159091,
                "tempo": 120.0
            },
            {
                "start_time": 18.2090909,
                "end_time": 18.325,
                "pitch": 29,
                "velocity": 40,
                "duration": 0.1159091,
                "tempo": 120.0
            },
            {
                "start_time": 18.325,
                "end_time": 18.6772727,
                "pitch": 31,
                "velocity": 40,
                "duration": 0.3522727,
                "tempo": 120.0
            },
            {
                "start_time": 18.6772727,
                "end_time": 18.7909091,
                "pitch": 27,
                "velocity": 40,
                "duration": 0.1136364,
                "tempo": 120.0
            },
            {
                "start_time": 18.7909091,
                "end_time": 18.9045455,
                "pitch": 29,
                "velocity": 40,
                "duration": 0.1136364,
                "tempo": 120.0
            },
            {
                "start_time": 19.0204545,
                "end_time": 19.1363636,
                "pitch": 29,
                "velocity": 40,
                "duration": 0.1159091,
                "tempo": 120.0
            },
            {
                "start_time": 19.2522727,
                "end_time": 19.3704545,
                "pitch": 29,
                "velocity": 40,
                "duration": 0.1181818,
                "tempo": 120.0
            },
            {
                "start_time": 19.3704545,
                "end_time": 19.4863636,
                "pitch": 27,
                "velocity": 40,
                "duration": 0.1159091,
                "tempo": 120.0
            },
            {
                "start_time": 19.4863636,
                "end_time": 19.6068182,
                "pitch": 24,
                "velocity": 40,
                "duration": 0.1204545,
                "tempo": 120.0
            },
            {
                "start_time": 19.6068182,
                "end_time": 20.075,
                "pitch": 27,
                "velocity": 40,
                "duration": 0.4681818,
                "tempo": 120.0
            },
            {
                "start_time": 20.075,
                "end_time": 20.3090909,
                "pitch": 29,
                "velocity": 40,
                "duration": 0.2340909,
                "tempo": 120.0
            },
            {
                "start_time": 20.5454545,
                "end_time": 20.6568182,
                "pitch": 27,
                "velocity": 40,
                "duration": 0.1113636,
                "tempo": 120.0
            },
            {
                "start_time": 20.6590909,
                "end_time": 20.775,
                "pitch": 29,
                "velocity": 40,
                "duration": 0.1159091,
                "tempo": 120.0
            },
            {
                "start_time": 20.8886364,
                "end_time": 21.0022727,
                "pitch": 29,
                "velocity": 40,
                "duration": 0.1136364,
                "tempo": 120.0
            },
            {
                "start_time": 21.1204545,
                "end_time": 21.2386364,
                "pitch": 29,
                "velocity": 40,
                "duration": 0.1181818,
                "tempo": 120.0
            },
            {
                "start_time": 21.2386364,
                "end_time": 21.3545455,
                "pitch": 27,
                "velocity": 40,
                "duration": 0.1159091,
                "tempo": 120.0
            },
            {
                "start_time": 21.3568182,
                "end_time": 21.4727273,
                "pitch": 24,
                "velocity": 40,
                "duration": 0.1159091,
                "tempo": 120.0
            },
            {
                "start_time": 21.4727273,
                "end_time": 21.5909091,
                "pitch": 27,
                "velocity": 40,
                "duration": 0.1181818,
                "tempo": 120.0
            },
            {
                "start_time": 21.7090909,
                "end_time": 21.8227273,
                "pitch": 27,
                "velocity": 40,
                "duration": 0.1136364,
                "tempo": 120.0
            },
            {
                "start_time": 21.9431818,
                "end_time": 22.0568182,
                "pitch": 27,
                "velocity": 40,
                "duration": 0.1136364,
                "tempo": 120.0
            },
            {
                "start_time": 22.0568182,
                "end_time": 22.4,
                "pitch": 29,
                "velocity": 40,
                "duration": 0.3431818,
                "tempo": 120.0
            },
            {
                "start_time": 22.4113636,
                "end_time": 22.5204545,
                "pitch": 29,
                "velocity": 40,
                "duration": 0.1090909,
                "tempo": 120.0
            },
            {
                "start_time": 22.5227273,
                "end_time": 22.6386364,
                "pitch": 31,
                "velocity": 40,
                "duration": 0.1159091,
                "tempo": 120.0
            }
        ],
        "Harpsichord": [
            {
                "start_time": 7.4727273,
                "end_time": 7.5863636,
                "pitch": 65,
                "velocity": 127,
                "duration": 0.1136364,
                "tempo": 120.0
            },
            {
                "start_time": 7.5886364,
                "end_time": 7.7045455,
                "pitch": 67,
                "velocity": 127,
                "duration": 0.1159091,
                "tempo": 120.0
            },
            {
                "start_time": 7.8227273,
                "end_time": 8.175,
                "pitch": 67,
                "velocity": 127,
                "duration": 0.3522727,
                "tempo": 120.0
            },
            {
                "start_time": 8.175,
                "end_time": 8.2909091,
                "pitch": 62,
                "velocity": 127,
                "duration": 0.1159091,
                "tempo": 120.0
            },
            {
                "start_time": 8.4113636,
                "end_time": 8.5227273,
                "pitch": 65,
                "velocity": 127,
                "duration": 0.1113636,
                "tempo": 120.0
            },
            {
                "start_time": 8.6409091,
                "end_time": 8.8681818,
                "pitch": 65,
                "velocity": 127,
                "duration": 0.2272727,
                "tempo": 120.0
            },
            {
                "start_time": 8.8681818,
                "end_time": 8.9840909,
                "pitch": 65,
                "velocity": 127,
                "duration": 0.1159091,
                "tempo": 120.0
            },
            {
                "start_time": 8.9863636,
                "end_time": 9.1022727,
                "pitch": 67,
                "velocity": 127,
                "duration": 0.1159091,
                "tempo": 120.0
            },
            {
                "start_time": 9.3386364,
                "end_time": 9.4545455,
                "pitch": 62,
                "velocity": 127,
                "duration": 0.1159091,
                "tempo": 120.0
            },
            {
                "start_time": 9.5727273,
                "end_time": 9.6886364,
                "pitch": 65,
                "velocity": 127,
                "duration": 0.1159091,
                "tempo": 120.0
            },
            {
                "start_time": 9.8090909,
                "end_time": 9.925,
                "pitch": 62,
                "velocity": 127,
                "duration": 0.1159091,
                "tempo": 120.0
            },
            {
                "start_time": 9.925,
                "end_time": 10.1590909,
                "pitch": 65,
                "velocity": 127,
                "duration": 0.2340909,
                "tempo": 120.0
            },
            {
                "start_time": 10.1613636,
                "end_time": 10.2772727,
                "pitch": 62,
                "velocity": 127,
                "duration": 0.1159091,
                "tempo": 120.0
            },
            {
                "start_time": 10.2772727,
                "end_time": 10.3909091,
                "pitch": 65,
                "velocity": 127,
                "duration": 0.1136364,
                "tempo": 120.0
            },
            {
                "start_time": 10.3931818,
                "end_time": 10.5068182,
                "pitch": 65,
                "velocity": 127,
                "duration": 0.1136364,
                "tempo": 120.0
            },
            {
                "start_time": 10.5068182,
                "end_time": 10.7363636,
                "pitch": 65,
                "velocity": 127,
                "duration": 0.2295455,
                "tempo": 120.0
            },
            {
                "start_time": 10.7363636,
                "end_time": 10.8522727,
                "pitch": 65,
                "velocity": 127,
                "duration": 0.1159091,
                "tempo": 120.0
            },
            {
                "start_time": 10.8545455,
                "end_time": 10.9704545,
                "pitch": 67,
                "velocity": 127,
                "duration": 0.1159091,
                "tempo": 120.0
            },
            {
                "start_time": 11.2068182,
                "end_time": 11.3227273,
                "pitch": 65,
                "velocity": 127,
                "duration": 0.1159091,
                "tempo": 120.0
            },
            {
                "start_time": 11.3227273,
                "end_time": 11.4386364,
                "pitch": 67,
                "velocity": 127,
                "duration": 0.1159091,
                "tempo": 120.0
            },
            {
                "start_time": 11.5590909,
                "end_time": 11.9045455,
                "pitch": 67,
                "velocity": 127,
                "duration": 0.3454545,
                "tempo": 120.0
            },
            {
                "start_time": 11.9045455,
                "end_time": 12.0181818,
                "pitch": 62,
                "velocity": 127,
                "duration": 0.1136364,
                "tempo": 120.0
            },
            {
                "start_time": 12.1363636,
                "end_time": 12.25,
                "pitch": 65,
                "velocity": 127,
                "duration": 0.1136364,
                "tempo": 120.0
            },
            {
                "start_time": 12.3704545,
                "end_time": 12.6022727,
                "pitch": 65,
                "velocity": 127,
                "duration": 0.2318182,
                "tempo": 120.0
            },
            {
                "start_time": 12.6045455,
                "end_time": 12.7204545,
                "pitch": 65,
                "velocity": 127,
                "duration": 0.1159091,
                "tempo": 120.0
            },
            {
                "start_time": 12.7227273,
                "end_time": 12.8386364,
                "pitch": 67,
                "velocity": 127,
                "duration": 0.1159091,
                "tempo": 120.0
            },
            {
                "start_time": 13.075,
                "end_time": 13.1863636,
                "pitch": 65,
                "velocity": 127,
                "duration": 0.1113636,
                "tempo": 120.0
            },
            {
                "start_time": 13.3045455,
                "end_time": 13.4159091,
                "pitch": 62,
                "velocity": 127,
                "duration": 0.1113636,
                "tempo": 120.0
            },
            {
                "start_time": 13.5318182,
                "end_time": 13.6477273,
                "pitch": 65,
                "velocity": 127,
                "duration": 0.1159091,
                "tempo": 120.0
            },
            {
                "start_time": 13.65,
                "end_time": 13.85,
                "pitch": 62,
                "velocity": 127,
                "duration": 0.2,
                "tempo": 120.0
            },
            {
                "start_time": 13.8522727,
                "end_time": 13.8840909,
                "pitch": 67,
                "velocity": 101,
                "duration": 0.0318182,
                "tempo": 120.0
            },
            {
                "start_time": 13.8840909,
                "end_time": 13.9159091,
                "pitch": 69,
                "velocity": 101,
                "duration": 0.0318182,
                "tempo": 120.0
            },
            {
                "start_time": 13.9181818,
                "end_time": 14.1181818,
                "pitch": 70,
                "velocity": 127,
                "duration": 0.2,
                "tempo": 120.0
            },
            {
                "start_time": 14.1204545,
                "end_time": 14.2363636,
                "pitch": 70,
                "velocity": 127,
                "duration": 0.1159091,
                "tempo": 120.0
            },
            {
                "start_time": 14.2363636,
                "end_time": 14.3522727,
                "pitch": 69,
                "velocity": 127,
                "duration": 0.1159091,
                "tempo": 120.0
            },
            {
                "start_time": 14.4727273,
                "end_time": 14.5886364,
                "pitch": 67,
                "velocity": 127,
                "duration": 0.1159091,
                "tempo": 120.0
            },
            {
                "start_time": 14.5886364,
                "end_time": 14.9409091,
                "pitch": 65,
                "velocity": 127,
                "duration": 0.3522727,
                "tempo": 120.0
            },
            {
                "start_time": 14.9431818,
                "end_time": 15.0568182,
                "pitch": 65,
                "velocity": 127,
                "duration": 0.1136364,
                "tempo": 120.0
            },
            {
                "start_time": 15.0590909,
                "end_time": 15.175,
                "pitch": 67,
                "velocity": 127,
                "duration": 0.1159091,
                "tempo": 120.0
            },
            {
                "start_time": 15.2931818,
                "end_time": 15.6386364,
                "pitch": 67,
                "velocity": 127,
                "duration": 0.3454545,
                "tempo": 120.0
            },
            {
                "start_time": 15.6409091,
                "end_time": 15.7545455,
                "pitch": 62,
                "velocity": 127,
                "duration": 0.1136364,
                "tempo": 120.0
            },
            {
                "start_time": 15.8704545,
                "end_time": 15.9863636,
                "pitch": 65,
                "velocity": 127,
                "duration": 0.1159091,
                "tempo": 120.0
            },
            {
                "start_time": 16.1045455,
                "end_time": 16.3386364,
                "pitch": 65,
                "velocity": 127,
                "duration": 0.2340909,
                "tempo": 120.0
            },
            {
                "start_time": 16.3386364,
                "end_time": 16.4545455,
                "pitch": 65,
                "velocity": 127,
                "duration": 0.1159091,
                "tempo": 120.0
            },
            {
                "start_time": 16.4568182,
                "end_time": 16.5727273,
                "pitch": 67,
                "velocity": 127,
                "duration": 0.1159091,
                "tempo": 120.0
            },
            {
                "start_time": 16.8090909,
                "end_time": 16.9227273,
                "pitch": 62,
                "velocity": 127,
                "duration": 0.1136364,
                "tempo": 120.0
            },
            {
                "start_time": 17.0386364,
                "end_time": 17.1522727,
                "pitch": 65,
                "velocity": 127,
                "duration": 0.1136364,
                "tempo": 120.0
            },
            {
                "start_time": 17.2681818,
                "end_time": 17.3840909,
                "pitch": 62,
                "velocity": 127,
                "duration": 0.1159091,
                "tempo": 120.0
            },
            {
                "start_time": 17.3840909,
                "end_time": 17.6181818,
                "pitch": 65,
                "velocity": 127,
                "duration": 0.2340909,
                "tempo": 120.0
            },
            {
                "start_time": 17.6204545,
                "end_time": 17.7363636,
                "pitch": 62,
                "velocity": 127,
                "duration": 0.1159091,
                "tempo": 120.0
            },
            {
                "start_time": 17.7386364,
                "end_time": 17.8522727,
                "pitch": 65,
                "velocity": 127,
                "duration": 0.1136364,
                "tempo": 120.0
            },
            {
                "start_time": 17.8545455,
                "end_time": 17.9704545,
                "pitch": 65,
                "velocity": 127,
                "duration": 0.1159091,
                "tempo": 120.0
            },
            {
                "start_time": 17.9727273,
                "end_time": 18.2068182,
                "pitch": 65,
                "velocity": 127,
                "duration": 0.2340909,
                "tempo": 120.0
            },
            {
                "start_time": 18.2068182,
                "end_time": 18.3227273,
                "pitch": 65,
                "velocity": 127,
                "duration": 0.1159091,
                "tempo": 120.0
            },
            {
                "start_time": 18.325,
                "end_time": 18.4409091,
                "pitch": 67,
                "velocity": 127,
                "duration": 0.1159091,
                "tempo": 120.0
            },
            {
                "start_time": 18.6772727,
                "end_time": 18.7886364,
                "pitch": 65,
                "velocity": 127,
                "duration": 0.1113636,
                "tempo": 120.0
            },
            {
                "start_time": 18.7909091,
                "end_time": 18.9045455,
                "pitch": 67,
                "velocity": 127,
                "duration": 0.1136364,
                "tempo": 120.0
            },
            {
                "start_time": 19.0204545,
                "end_time": 19.3681818,
                "pitch": 67,
                "velocity": 127,
                "duration": 0.3477273,
                "tempo": 120.0
            },
            {
                "start_time": 19.3704545,
                "end_time": 19.4863636,
                "pitch": 62,
                "velocity": 127,
                "duration": 0.1159091,
                "tempo": 120.0
            },
            {
                "start_time": 19.6068182,
                "end_time": 19.7204545,
                "pitch": 65,
                "velocity": 127,
                "duration": 0.1136364,
                "tempo": 120.0
            },
            {
                "start_time": 19.8409091,
                "end_time": 20.0727273,
                "pitch": 65,
                "velocity": 127,
                "duration": 0.2318182,
                "tempo": 120.0
            },
            {
                "start_time": 20.075,
                "end_time": 20.1909091,
                "pitch": 65,
                "velocity": 127,
                "duration": 0.1159091,
                "tempo": 120.0
            },
            {
                "start_time": 20.1931818,
                "end_time": 20.3090909,
                "pitch": 67,
                "velocity": 127,
                "duration": 0.1159091,
                "tempo": 120.0
            },
            {
                "start_time": 20.5454545,
                "end_time": 20.6568182,
                "pitch": 65,
                "velocity": 127,
                "duration": 0.1113636,
                "tempo": 120.0
            },
            {
                "start_time": 20.775,
                "end_time": 20.8863636,
                "pitch": 62,
                "velocity": 127,
                "duration": 0.1113636,
                "tempo": 120.0
            },
            {
                "start_time": 21.0022727,
                "end_time": 21.1181818,
                "pitch": 65,
                "velocity": 127,
                "duration": 0.1159091,
                "tempo": 120.0
            },
            {
                "start_time": 21.1204545,
                "end_time": 21.3204545,
                "pitch": 62,
                "velocity": 127,
                "duration": 0.2,
                "tempo": 120.0
            },
            {
                "start_time": 21.3227273,
                "end_time": 21.3545455,
                "pitch": 67,
                "velocity": 101,
                "duration": 0.0318182,
                "tempo": 120.0
            },
            {
                "start_time": 21.3545455,
                "end_time": 21.3863636,
                "pitch": 69,
                "velocity": 101,
                "duration": 0.0318182,
                "tempo": 120.0
            },
            {
                "start_time": 21.3886364,
                "end_time": 21.5886364,
                "pitch": 70,
                "velocity": 127,
                "duration": 0.2,
                "tempo": 120.0
            },
            {
                "start_time": 21.5909091,
                "end_time": 21.7068182,
                "pitch": 70,
                "velocity": 127,
                "duration": 0.1159091,
                "tempo": 120.0
            },
            {
                "start_time": 21.7068182,
                "end_time": 21.8227273,
                "pitch": 69,
                "velocity": 127,
                "duration": 0.1159091,
                "tempo": 120.0
            },
            {
                "start_time": 21.9431818,
                "end_time": 22.0545455,
                "pitch": 67,
                "velocity": 127,
                "duration": 0.1113636,
                "tempo": 120.0
            },
            {
                "start_time": 22.0568182,
                "end_time": 22.4,
                "pitch": 65,
                "velocity": 127,
                "duration": 0.3431818,
                "tempo": 120.0
            },
            {
                "start_time": 22.4,
                "end_time": 22.4022727,
                "pitch": 65,
                "velocity": 127,
                "duration": 0.0022727,
                "tempo": 120.0
            },
            {
                "start_time": 22.4090909,
                "end_time": 22.5181818,
                "pitch": 65,
                "velocity": 127,
                "duration": 0.1090909,
                "tempo": 120.0
            },
            {
                "start_time": 22.5204545,
                "end_time": 22.6386364,
                "pitch": 67,
                "velocity": 127,
                "duration": 0.1181818,
                "tempo": 120.0
            }
        ]
    }
}