{
    "mood": "happy",
    "instruments": {
        "Trumpet": [
            {
                "start_time": 5.3795455,
                "end_time": 5.4431818,
                "pitch": 69,
                "velocity": 80,
                "duration": 0.0636364,
                "tempo": 120.0
            },
            {
                "start_time": 5.5568182,
                "end_time": 5.7431818,
                "pitch": 69,
                "velocity": 4,
                "duration": 0.1863636,
                "tempo": 120.0
            },
            {
                "start_time": 5.7454545,
                "end_time": 5.8068182,
                "pitch": 69,
                "velocity": 80,
                "duration": 0.0613636,
                "tempo": 120.0
            },
            {
                "start_time": 5.9159091,
                "end_time": 6.25,
                "pitch": 69,
                "velocity": 4,
                "duration": 0.3340909,
                "tempo": 120.0
            },
            {
                "start_time": 6.2522727,
                "end_time": 6.3909091,
                "pitch": 67,
                "velocity": 80,
                "duration": 0.1386364,
                "tempo": 120.0
            },
            {
                "start_time": 6.5863636,
                "end_time": 6.6477273,
                "pitch": 69,
                "velocity": 80,
                "duration": 0.0613636,
                "tempo": 120.0
            },
            {
                "start_time": 6.7545455,
                "end_time": 7.2659091,
                "pitch": 69,
                "velocity": 4,
                "duration": 0.5113636,
                "tempo": 120.0
            },
            {
                "start_time": 7.2659091,
                "end_time": 7.3272727,
                "pitch": 69,
                "velocity": 80,
                "duration": 0.0613636,
                "tempo": 120.0
            },
            {
                "start_time": 7.4386364,
                "end_time": 7.6022727,
                "pitch": 69,
                "velocity": 4,
                "duration": 0.1636364,
                "tempo": 120.0
            },
            {
                "start_time": 7.6022727,
                "end_time": 7.75,
                "pitch": 69,
                "velocity": 80,
                "duration": 0.1477273,
                "tempo": 120.0
            },
            {
                "start_time": 7.9431818,
                "end_time": 8.0068182,
                "pitch": 67,
                "velocity": 80,
                "duration": 0.0636364,
                "tempo": 120.0
            },
            {
                "start_time": 8.1227273,
                "end_time": 8.1795455,
                "pitch": 69,
                "velocity": 80,
                "duration": 0.0568182,
                "tempo": 120.0
            },
            {
                "start_time": 8.2863636,
                "end_time": 8.4636364,
                "pitch": 69,
                "velocity": 4,
                "duration": 0.1772727,
                "tempo": 120.0
            },
            {
                "start_time": 8.4636364,
                "end_time": 8.5227273,
                "pitch": 69,
                "velocity": 80,
                "duration": 0.0590909,
                "tempo": 120.0
            },
            {
                "start_time": 8.6318182,
                "end_time": 8.9613636,
                "pitch": 69,
                "velocity": 4,
                "duration": 0.3295455,
                "tempo": 120.0
            },
            {
                "start_time": 8.9613636,
                "end_time": 9.1,
                "pitch": 67,
                "velocity": 80,
                "duration": 0.1386364,
                "tempo": 120.0
            },
            {
                "start_time": 9.2977273,
                "end_time": 9.3568182,
                "pitch": 69,
                "velocity": 80,
                "duration": 0.0590909,
                "tempo": 120.0
            },
            {
                "start_time": 9.4636364,
                "end_time": 9.9704545,
                "pitch": 69,
                "velocity": 4,
                "duration": 0.5068182,
                "tempo": 120.0
            },
            {
                "start_time": 9.9727273,
                "end_time": 10.0318182,
                "pitch": 69,
                "velocity": 80,
                "duration": 0.0590909,
                "tempo": 120.0
            },
            {
                "start_time": 10.1386364,
                "end_time": 10.3113636,
                "pitch": 69,
                "velocity": 4,
                "duration": 0.1727273,
                "tempo": 120.0
            },
            {
                "start_time": 10.3113636,
                "end_time": 10.4681818,
                "pitch": 69,
                "velocity": 80,
                "duration": 0.1568182,
                "tempo": 120.0
            },
            {
                "start_time": 10.6568182,
                "end_time": 10.7204545,
                "pitch": 67,
                "velocity": 80,
                "duration": 0.0636364,
                "tempo": 120.0
            },
            {
                "start_time": 10.8318182,
                "end_time": 10.8909091,
                "pitch": 71,
                "velocity": 80,
                "duration": 0.0590909,
                "tempo": 120.0
            },
            {
                "start_time": 10.9954545,
                "end_time": 11.1727273,
                "pitch": 71,
                "velocity": 4,
                "duration": 0.1772727,
                "tempo": 120.0
            },
            {
                "start_time": 11.175,
                "end_time": 11.2340909,
                "pitch": 71,
                "velocity": 80,
                "duration": 0.0590909,
                "tempo": 120.0
            },
            {
                "start_time": 11.3409091,
                "end_time": 11.6704545,
                "pitch": 71,
                "velocity": 4,
                "duration": 0.3295455,
                "tempo": 120.0
            },
            {
                "start_time": 11.6704545,
                "end_time": 11.8090909,
                "pitch": 69,
                "velocity": 4,
                "duration": 0.1386364,
                "tempo": 120.0
            },
            {
                "start_time": 11.6727273,
                "end_time": 11.8090909,
                "pitch": 69,
                "velocity": 80,
                "duration": 0.1363636,
                "tempo": 120.0
            },
            {
                "start_time": 12.0068182,
                "end_time": 12.0681818,
                "pitch": 71,
                "velocity": 80,
                "duration": 0.0613636,
                "tempo": 120.0
            },
            {
                "start_time": 12.1727273,
                "end_time": 12.6818182,
                "pitch": 71,
                "velocity": 4,
                "duration": 0.5090909,
                "tempo": 120.0
            },
            {
                "start_time": 12.6818182,
                "end_time": 12.7409091,
                "pitch": 71,
                "velocity": 80,
                "duration": 0.0590909,
                "tempo": 120.0
            },
            {
                "start_time": 12.8477273,
                "end_time": 13.0181818,
                "pitch": 71,
                "velocity": 4,
                "duration": 0.1704545,
                "tempo": 120.0
            },
            {
                "start_time": 13.0181818,
                "end_time": 13.1704545,
                "pitch": 71,
                "velocity": 80,
                "duration": 0.1522727,
                "tempo": 120.0
            },
            {
                "start_time": 13.3613636,
                "end_time": 13.4272727,
                "pitch": 69,
                "velocity": 80,
                "duration": 0.0659091,
                "tempo": 120.0
            },
            {
                "start_time": 13.5409091,
                "end_time": 13.6,
                "pitch": 71,
                "velocity": 80,
                "duration": 0.0590909,
                "tempo": 120.0
            },
            {
                "start_time": 13.7068182,
                "end_time": 13.8840909,
                "pitch": 71,
                "velocity": 4,
                "duration": 0.1772727,
                "tempo": 120.0
            },
            {
                "start_time": 13.8840909,
                "end_time": 13.9431818,
                "pitch": 71,
                "velocity": 80,
                "duration": 0.0590909,
                "tempo": 120.0
            },
            {
                "start_time": 14.0522727,
                "end_time": 14.3818182,
                "pitch": 71,
                "velocity": 4,
                "duration": 0.3295455,
                "tempo": 120.0
            },
            {
                "start_time": 14.3818182,
                "end_time": 14.5204545,
                "pitch": 69,
                "velocity": 4,
                "duration": 0.1386364,
                "tempo": 120.0
            },
            {
                "start_time": 14.3818182,
                "end_time": 14.5204545,
                "pitch": 69,
                "velocity": 80,
                "duration": 0.1386364,
                "tempo": 120.0
            },
            {
                "start_time": 14.7159091,
                "end_time": 14.7772727,
                "pitch": 71,
                "velocity": 80,
                "duration": 0.0613636,
                "tempo": 120.0
            },
            {
                "start_time": 14.8840909,
                "end_time": 15.3909091,
                "pitch": 71,
                "velocity": 4,
                "duration": 0.5068182,
                "tempo": 120.0
            },
            {
                "start_time": 15.3909091,
                "end_time": 15.4522727,
                "pitch": 71,
                "velocity": 80,
                "duration": 0.0613636,
                "tempo": 120.0
            },
            {
                "start_time": 15.5613636,
                "end_time": 15.675,
                "pitch": 67,
                "velocity": 80,
                "duration": 0.1136364,
                "tempo": 120.0
            },
            {
                "start_time": 15.825,
                "end_time": 15.9409091,
                "pitch": 67,
                "velocity": 80,
                "duration": 0.1159091,
                "tempo": 120.0
            },
            {
                "start_time": 16.0818182,
                "end_time": 16.1409091,
                "pitch": 67,
                "velocity": 80,
                "duration": 0.0590909,
                "tempo": 120.0
            }
        ],
        "Flute": [
            {
                "start_time": 16.2545455,
                "end_time": 16.3977273,
                "pitch": 76,
                "velocity": 80,
                "duration": 0.1431818,
                "tempo": 120.0
            },
            {
                "start_time": 16.4227273,
                "end_time": 16.5704545,
                "pitch": 74,
                "velocity": 80,
                "duration": 0.1477273,
                "tempo": 120.0
            },
            {
                "start_time": 16.6,
                "end_time": 16.7386364,
                "pitch": 72,
                "velocity": 80,
                "duration": 0.1386364,
                "tempo": 120.0
            },
            {
                "start_time": 16.7681818,
                "end_time": 16.9068182,
                "pitch": 71,
                "velocity": 80,
                "duration": 0.1386364,
                "tempo": 120.0
            },
            {
                "start_time": 16.925,
                "end_time": 17.1,
                "pitch": 71,
                "velocity": 4,
                "duration": 0.175,
                "tempo": 120.0
            },
            {
                "start_time": 17.1,
                "end_time": 17.2409091,
                "pitch": 72,
                "velocity": 80,
                "duration": 0.1409091,
                "tempo": 120.0
            },
            {
                "start_time": 17.2636364,
                "end_time": 17.4340909,
                "pitch": 60,
                "velocity": 4,
                "duration": 0.1704545,
                "tempo": 120.0
            },
            {
                "start_time": 17.4340909,
                "end_time": 17.4363636,
                "pitch": 57,
                "velocity": 4,
                "duration": 0.0022727,
                "tempo": 120.0
            },
            {
                "start_time": 17.4363636,
                "end_time": 18.325,
                "pitch": 69,
                "velocity": 80,
                "duration": 0.8886364,
                "tempo": 120.0
            },
            {
                "start_time": 18.45,
                "end_time": 18.6,
                "pitch": 71,
                "velocity": 80,
                "duration": 0.15,
                "tempo": 120.0
            },
            {
                "start_time": 18.6295455,
                "end_time": 18.7727273,
                "pitch": 72,
                "velocity": 80,
                "duration": 0.1431818,
                "tempo": 120.0
            },
            {
                "start_time": 18.8,
                "end_time": 19.8340909,
                "pitch": 79,
                "velocity": 80,
                "duration": 1.0340909,
                "tempo": 120.0
            },
            {
                "start_time": 19.975,
                "end_time": 20.2772727,
                "pitch": 77,
                "velocity": 80,
                "duration": 0.3022727,
                "tempo": 120.0
            },
            {
                "start_time": 20.3181818,
                "end_time": 20.4636364,
                "pitch": 76,
                "velocity": 80,
                "duration": 0.1454545,
                "tempo": 120.0
            },
            {
                "start_time": 20.4886364,
                "end_time": 20.6318182,
                "pitch": 74,
                "velocity": 80,
                "duration": 0.1431818,
                "tempo": 120.0
            },
            {
                "start_time": 20.65,
                "end_time": 20.825,
                "pitch": 74,
                "velocity": 4,
                "duration": 0.175,
                "tempo": 120.0
            },
            {
                "start_time": 20.825,
                "end_time": 20.9659091,
                "pitch": 72,
                "velocity": 80,
                "duration": 0.1409091,
                "tempo": 120.0
            },
            {
                "start_time": 20.9909091,
                "end_time": 21.1590909,
                "pitch": 72,
                "velocity": 4,
                "duration": 0.1681818,
                "tempo": 120.0
            },
            {
                "start_time": 21.1613636,
                "end_time": 21.3090909,
                "pitch": 74,
                "velocity": 80,
                "duration": 0.1477273,
                "tempo": 120.0
            },
            {
                "start_time": 21.3363636,
                "end_time": 21.5,
                "pitch": 62,
                "velocity": 4,
                "duration": 0.1636364,
                "tempo": 120.0
            },
            {
                "start_time": 21.5022727,
                "end_time": 22.2386364,
                "pitch": 71,
                "velocity": 80,
                "duration": 0.7363636,
                "tempo": 120.0
            },
            {
                "start_time": 22.3477273,
                "end_time": 23.5272727,
                "pitch": 71,
                "velocity": 80,
                "duration": 1.1795455,
                "tempo": 120.0
            },
            {
                "start_time": 23.7,
                "end_time": 23.8704545,
                "pitch": 71,
                "velocity": 4,
                "duration": 0.1704545,
                "tempo": 120.0
            },
            {
                "start_time": 23.8704545,
                "end_time": 24.0227273,
                "pitch": 67,
                "velocity": 4,
                "duration": 0.1522727,
                "tempo": 120.0
            },
            {
                "start_time": 23.8727273,
                "end_time": 24.0227273,
                "pitch": 67,
                "velocity": 80,
                "duration": 0.15,
                "tempo": 120.0
            },
            {
                "start_time": 24.0522727,
                "end_time": 24.1954545,
                "pitch": 69,
                "velocity": 80,
                "duration": 0.1431818,
                "tempo": 120.0
            },
            {
                "start_time": 24.2204545,
                "end_time": 24.9545455,
                "pitch": 71,
                "velocity": 80,
                "duration": 0.7340909,
                "tempo": 120.0
            },
            {
                "start_time": 25.0590909,
                "end_time": 26.2386364,
                "pitch": 71,
                "velocity": 80,
                "duration": 1.1795455,
                "tempo": 120.0
            },
            {
                "start_time": 26.4113636,
                "end_time": 27.0954545,
                "pitch": 71,
                "velocity": 4,
                "duration": 0.6840909,
                "tempo": 120.0
            },
            {
                "start_time": 27.0954545,
                "end_time": 27.2363636,
                "pitch": 76,
                "velocity": 4,
                "duration": 0.1409091,
                "tempo": 120.0
            },
            {
                "start_time": 27.0954545,
                "end_time": 27.2363636,
                "pitch": 76,
                "velocity": 80,
                "duration": 0.1409091,
                "tempo": 120.0
            },
            {
                "start_time": 27.2613636,
                "end_time": 27.4045455,
                "pitch": 74,
                "velocity": 80,
                "duration": 0.1431818,
                "tempo": 120.0
            },
            {
                "start_time": 27.4340909,
                "end_time": 27.5772727,
                "pitch": 72,
                "velocity": 80,
                "duration": 0.1431818,
                "tempo": 120.0
            },
            {
                "start_time": 27.6068182,
                "end_time": 27.75,
                "pitch": 71,
                "velocity": 80,
                "duration": 0.1431818,
                "tempo": 120.0
            },
            {
                "start_time": 27.7704545,
                "end_time": 27.9431818,
                "pitch": 71,
                "velocity": 4,
                "duration": 0.1727273,
                "tempo": 120.0
            },
            {
                "start_time": 27.9431818,
                "end_time": 28.0840909,
                "pitch": 72,
                "velocity": 80,
                "duration": 0.1409091,
                "tempo": 120.0
            },
            {
                "start_time": 28.1068182,
                "end_time": 28.2840909,
                "pitch": 60,
                "velocity": 4,
                "duration": 0.1772727,
                "tempo": 120.0
            },
            {
                "start_time": 28.2840909,
                "end_time": 29.1681818,
                "pitch": 69,
                "velocity": 80,
                "duration": 0.8840909,
                "tempo": 120.0
            },
            {
                "start_time": 29.2954545,
                "end_time": 29.4454545,
                "pitch": 71,
                "velocity": 80,
                "duration": 0.15,
                "tempo": 120.0
            },
            {
                "start_time": 29.475,
                "end_time": 29.6159091,
                "pitch": 72,
                "velocity": 80,
                "duration": 0.1409091,
                "tempo": 120.0
            },
            {
                "start_time": 29.6431818,
                "end_time": 30.6795455,
                "pitch": 79,
                "velocity": 80,
                "duration": 1.0363636,
                "tempo": 120.0
            },
            {
                "start_time": 30.8204545,
                "end_time": 31.1227273,
                "pitch": 77,
                "velocity": 80,
                "duration": 0.3022727,
                "tempo": 120.0
            },
            {
                "start_time": 31.1636364,
                "end_time": 31.3090909,
                "pitch": 76,
                "velocity": 80,
                "duration": 0.1454545,
                "tempo": 120.0
            },
            {
                "start_time": 31.3340909,
                "end_time": 31.4772727,
                "pitch": 74,
                "velocity": 80,
                "duration": 0.1431818,
                "tempo": 120.0
            },
            {
                "start_time": 31.4954545,
                "end_time": 31.6704545,
                "pitch": 74,
                "velocity": 4,
                "duration": 0.175,
                "tempo": 120.0
            },
            {
                "start_time": 31.6704545,
                "end_time": 31.8113636,
                "pitch": 72,
                "velocity": 80,
                "duration": 0.1409091,
                "tempo": 120.0
            },
            {
                "start_time": 31.8363636,
                "end_time": 32.0045455,
                "pitch": 72,
                "velocity": 4,
                "duration": 0.1681818,
                "tempo": 120.0
            },
            {
                "start_time": 32.0068182,
                "end_time": 32.1568182,
                "pitch": 74,
                "velocity": 80,
                "duration": 0.15,
                "tempo": 120.0
            },
            {
                "start_time": 32.1818182,
                "end_time": 32.3454545,
                "pitch": 74,
                "velocity": 4,
                "duration": 0.1636364,
                "tempo": 120.0
            },
            {
                "start_time": 32.3454545,
                "end_time": 33.0840909,
                "pitch": 76,
                "velocity": 4,
                "duration": 0.7386364,
                "tempo": 120.0
            },
            {
                "start_time": 32.3477273,
                "end_time": 33.0840909,
                "pitch": 76,
                "velocity": 80,
                "duration": 0.7363636,
                "tempo": 120.0
            },
            {
                "start_time": 33.1931818,
                "end_time": 34.3727273,
                "pitch": 76,
                "velocity": 80,
                "duration": 1.1795455,
                "tempo": 120.0
            },
            {
                "start_time": 34.5454545,
                "end_time": 34.7159091,
                "pitch": 76,
                "velocity": 4,
                "duration": 0.1704545,
                "tempo": 120.0
            },
            {
                "start_time": 34.7159091,
                "end_time": 34.8681818,
                "pitch": 73,
                "velocity": 4,
                "duration": 0.1522727,
                "tempo": 120.0
            },
            {
                "start_time": 34.7181818,
                "end_time": 34.8681818,
                "pitch": 73,
                "velocity": 80,
                "duration": 0.15,
                "tempo": 120.0
            },
            {
                "start_time": 34.8977273,
                "end_time": 35.0409091,
                "pitch": 74,
                "velocity": 80,
                "duration": 0.1431818,
                "tempo": 120.0
            },
            {
                "start_time": 35.0659091,
                "end_time": 35.8,
                "pitch": 76,
                "velocity": 80,
                "duration": 0.7340909,
                "tempo": 120.0
            },
            {
                "start_time": 35.9045455,
                "end_time": 37.0840909,
                "pitch": 76,
                "velocity": 80,
                "duration": 1.1795455,
                "tempo": 120.0
            },
            {
                "start_time": 37.2568182,
                "end_time": 37.9431818,
                "pitch": 76,
                "velocity": 4,
                "duration": 0.6863636,
                "tempo": 120.0
            }
        ],
        "Acoustic Bass": [
            {
                "start_time": 0.0136364,
                "end_time": 0.1159091,
                "pitch": 0,
                "velocity": 4,
                "duration": 0.1022727,
                "tempo": 120.0
            },
            {
                "start_time": 0.1181818,
                "end_time": 0.5772727,
                "pitch": 34,
                "velocity": 101,
                "duration": 0.4590909,
                "tempo": 120.0
            },
            {
                "start_time": 0.6568182,
                "end_time": 1.2318182,
                "pitch": 36,
                "velocity": 101,
                "duration": 0.575,
                "tempo": 120.0
            },
            {
                "start_time": 1.325,
                "end_time": 1.9181818,
                "pitch": 37,
                "velocity": 101,
                "duration": 0.5931818,
                "tempo": 120.0
            },
            {
                "start_time": 2.0159091,
                "end_time": 2.5886364,
                "pitch": 39,
                "velocity": 101,
                "duration": 0.5727273,
                "tempo": 120.0
            },
            {
                "start_time": 2.6863636,
                "end_time": 3.6409091,
                "pitch": 41,
                "velocity": 101,
                "duration": 0.9545455,
                "tempo": 120.0
            },
            {
                "start_time": 3.775,
                "end_time": 3.9,
                "pitch": 41,
                "velocity": 101,
                "duration": 0.125,
                "tempo": 120.0
            },
            {
                "start_time": 3.925,
                "end_time": 4.0477273,
                "pitch": 41,
                "velocity": 101,
                "duration": 0.1227273,
                "tempo": 120.0
            },
            {
                "start_time": 4.0659091,
                "end_time": 5.3795455,
                "pitch": 41,
                "velocity": 4,
                "duration": 1.3136364,
                "tempo": 120.0
            },
            {
                "start_time": 5.3795455,
                "end_time": 5.7,
                "pitch": 31,
                "velocity": 4,
                "duration": 0.3204545,
                "tempo": 120.0
            },
            {
                "start_time": 5.3818182,
                "end_time": 5.7,
                "pitch": 31,
                "velocity": 101,
                "duration": 0.3181818,
                "tempo": 120.0
            },
            {
                "start_time": 5.7454545,
                "end_time": 5.8931818,
                "pitch": 38,
                "velocity": 101,
                "duration": 0.1477273,
                "tempo": 120.0
            },
            {
                "start_time": 5.9159091,
                "end_time": 6.0636364,
                "pitch": 31,
                "velocity": 101,
                "duration": 0.1477273,
                "tempo": 120.0
            },
            {
                "start_time": 6.0818182,
                "end_time": 6.25,
                "pitch": 31,
                "velocity": 4,
                "duration": 0.1681818,
                "tempo": 120.0
            },
            {
                "start_time": 6.2522727,
                "end_time": 6.3909091,
                "pitch": 31,
                "velocity": 101,
                "duration": 0.1386364,
                "tempo": 120.0
            },
            {
                "start_time": 6.4113636,
                "end_time": 6.5613636,
                "pitch": 38,
                "velocity": 101,
                "duration": 0.15,
                "tempo": 120.0
            },
            {
                "start_time": 6.5863636,
                "end_time": 7.1727273,
                "pitch": 41,
                "velocity": 101,
                "duration": 0.5863636,
                "tempo": 120.0
            },
            {
                "start_time": 7.2659091,
                "end_time": 7.4136364,
                "pitch": 38,
                "velocity": 101,
                "duration": 0.1477273,
                "tempo": 120.0
            },
            {
                "start_time": 7.4386364,
                "end_time": 7.7318182,
                "pitch": 29,
                "velocity": 101,
                "duration": 0.2931818,
                "tempo": 120.0
            },
            {
                "start_time": 7.7727273,
                "end_time": 8.0772727,
                "pitch": 31,
                "velocity": 101,
                "duration": 0.3045455,
                "tempo": 120.0
            },
            {
                "start_time": 8.1227273,
                "end_time": 8.4204545,
                "pitch": 31,
                "velocity": 101,
                "duration": 0.2977273,
                "tempo": 120.0
            },
            {
                "start_time": 8.4636364,
                "end_time": 8.6068182,
                "pitch": 38,
                "velocity": 101,
                "duration": 0.1431818,
                "tempo": 120.0
            },
            {
                "start_time": 8.6318182,
                "end_time": 8.775,
                "pitch": 31,
                "velocity": 101,
                "duration": 0.1431818,
                "tempo": 120.0
            },
            {
                "start_time": 8.7931818,
                "end_time": 8.9613636,
                "pitch": 31,
                "velocity": 4,
                "duration": 0.1681818,
                "tempo": 120.0
            },
            {
                "start_time": 8.9613636,
                "end_time": 9.1,
                "pitch": 31,
                "velocity": 101,
                "duration": 0.1386364,
                "tempo": 120.0
            },
            {
                "start_time": 9.1204545,
                "end_time": 9.2704545,
                "pitch": 38,
                "velocity": 101,
                "duration": 0.15,
                "tempo": 120.0
            },
            {
                "start_time": 9.2977273,
                "end_time": 9.8795455,
                "pitch": 41,
                "velocity": 101,
                "duration": 0.5818182,
                "tempo": 120.0
            },
            {
                "start_time": 9.9727273,
                "end_time": 10.1159091,
                "pitch": 38,
                "velocity": 101,
                "duration": 0.1431818,
                "tempo": 120.0
            },
            {
                "start_time": 10.1386364,
                "end_time": 10.45,
                "pitch": 29,
                "velocity": 101,
                "duration": 0.3113636,
                "tempo": 120.0
            },
            {
                "start_time": 10.4931818,
                "end_time": 10.7886364,
                "pitch": 31,
                "velocity": 101,
                "duration": 0.2954545,
                "tempo": 120.0
            },
            {
                "start_time": 10.8318182,
                "end_time": 11.1318182,
                "pitch": 33,
                "velocity": 101,
                "duration": 0.3,
                "tempo": 120.0
            },
            {
                "start_time": 11.175,
                "end_time": 11.3181818,
                "pitch": 40,
                "velocity": 101,
                "duration": 0.1431818,
                "tempo": 120.0
            },
            {
                "start_time": 11.3409091,
                "end_time": 11.4840909,
                "pitch": 33,
                "velocity": 101,
                "duration": 0.1431818,
                "tempo": 120.0
            },
            {
                "start_time": 11.5022727,
                "end_time": 11.6704545,
                "pitch": 33,
                "velocity": 4,
                "duration": 0.1681818,
                "tempo": 120.0
            },
            {
                "start_time": 11.6727273,
                "end_time": 11.8113636,
                "pitch": 33,
                "velocity": 101,
                "duration": 0.1386364,
                "tempo": 120.0
            },
            {
                "start_time": 11.8318182,
                "end_time": 11.9818182,
                "pitch": 40,
                "velocity": 101,
                "duration": 0.15,
                "tempo": 120.0
            },
            {
                "start_time": 12.0068182,
                "end_time": 12.5909091,
                "pitch": 43,
                "velocity": 101,
                "duration": 0.5840909,
                "tempo": 120.0
            },
            {
                "start_time": 12.6818182,
                "end_time": 12.825,
                "pitch": 40,
                "velocity": 101,
                "duration": 0.1431818,
                "tempo": 120.0
            },
            {
                "start_time": 12.8477273,
                "end_time": 13.1522727,
                "pitch": 31,
                "velocity": 101,
                "duration": 0.3045455,
                "tempo": 120.0
            },
            {
                "start_time": 13.1931818,
                "end_time": 13.4977273,
                "pitch": 33,
                "velocity": 101,
                "duration": 0.3045455,
                "tempo": 120.0
            },
            {
                "start_time": 13.5409091,
                "end_time": 13.8409091,
                "pitch": 33,
                "velocity": 101,
                "duration": 0.3,
                "tempo": 120.0
            },
            {
                "start_time": 13.8840909,
                "end_time": 14.0272727,
                "pitch": 40,
                "velocity": 101,
                "duration": 0.1431818,
                "tempo": 120.0
            },
            {
                "start_time": 14.0522727,
                "end_time": 14.1954545,
                "pitch": 33,
                "velocity": 101,
                "duration": 0.1431818,
                "tempo": 120.0
            },
            {
                "start_time": 14.2136364,
                "end_time": 14.3818182,
                "pitch": 33,
                "velocity": 4,
                "duration": 0.1681818,
                "tempo": 120.0
            },
            {
                "start_time": 14.3818182,
                "end_time": 14.5204545,
                "pitch": 33,
                "velocity": 101,
                "duration": 0.1386364,
                "tempo": 120.0
            },
            {
                "start_time": 14.5409091,
                "end_time": 14.6909091,
                "pitch": 40,
                "velocity": 101,
                "duration": 0.15,
                "tempo": 120.0
            },
            {
                "start_time": 14.7181818,
                "end_time": 15.3,
                "pitch": 43,
                "velocity": 101,
                "duration": 0.5818182,
                "tempo": 120.0
            },
            {
                "start_time": 15.3931818,
                "end_time": 15.5340909,
                "pitch": 40,
                "velocity": 101,
                "duration": 0.1409091,
                "tempo": 120.0
            },
            {
                "start_time": 15.5613636,
                "end_time": 15.7818182,
                "pitch": 33,
                "velocity": 101,
                "duration": 0.2204545,
                "tempo": 120.0
            },
            {
                "start_time": 15.825,
                "end_time": 16.0409091,
                "pitch": 33,
                "velocity": 101,
                "duration": 0.2159091,
                "tempo": 120.0
            },
            {
                "start_time": 16.0818182,
                "end_time": 16.225,
                "pitch": 33,
                "velocity": 101,
                "duration": 0.1431818,
                "tempo": 120.0
            },
            {
                "start_time": 16.2545455,
                "end_time": 16.5522727,
                "pitch": 31,
                "velocity": 101,
                "duration": 0.2977273,
                "tempo": 120.0
            },
            {
                "start_time": 16.6,
                "end_time": 16.7386364,
                "pitch": 38,
                "velocity": 101,
                "duration": 0.1386364,
                "tempo": 120.0
            },
            {
                "start_time": 16.7681818,
                "end_time": 16.9068182,
                "pitch": 31,
                "velocity": 101,
                "duration": 0.1386364,
                "tempo": 120.0
            },
            {
                "start_time": 16.9272727,
                "end_time": 17.1,
                "pitch": 31,
                "velocity": 4,
                "duration": 0.1727273,
                "tempo": 120.0
            },
            {
                "start_time": 17.1,
                "end_time": 17.2409091,
                "pitch": 31,
                "velocity": 101,
                "duration": 0.1409091,
                "tempo": 120.0
            },
            {
                "start_time": 17.2636364,
                "end_time": 17.4090909,
                "pitch": 38,
                "velocity": 101,
                "duration": 0.1454545,
                "tempo": 120.0
            },
            {
                "start_time": 17.4363636,
                "end_time": 18.0227273,
                "pitch": 41,
                "velocity": 101,
                "duration": 0.5863636,
                "tempo": 120.0
            },
            {
                "start_time": 18.1113636,
                "end_time": 18.2568182,
                "pitch": 38,
                "velocity": 101,
                "duration": 0.1454545,
                "tempo": 120.0
            },
            {
                "start_time": 18.2772727,
                "end_time": 18.5840909,
                "pitch": 29,
                "velocity": 101,
                "duration": 0.3068182,
                "tempo": 120.0
            },
            {
                "start_time": 18.6318182,
                "end_time": 18.9272727,
                "pitch": 31,
                "velocity": 101,
                "duration": 0.2954545,
                "tempo": 120.0
            },
            {
                "start_time": 18.9704545,
                "end_time": 19.2545455,
                "pitch": 31,
                "velocity": 101,
                "duration": 0.2840909,
                "tempo": 120.0
            },
            {
                "start_time": 19.2931818,
                "end_time": 19.4431818,
                "pitch": 38,
                "velocity": 101,
                "duration": 0.15,
                "tempo": 120.0
            },
            {
                "start_time": 19.4636364,
                "end_time": 19.6136364,
                "pitch": 31,
                "velocity": 101,
                "duration": 0.15,
                "tempo": 120.0
            },
            {
                "start_time": 19.6318182,
                "end_time": 19.8045455,
                "pitch": 31,
                "velocity": 4,
                "duration": 0.1727273,
                "tempo": 120.0
            },
            {
                "start_time": 19.8045455,
                "end_time": 19.95,
                "pitch": 31,
                "velocity": 101,
                "duration": 0.1454545,
                "tempo": 120.0
            },
            {
                "start_time": 19.975,
                "end_time": 20.1227273,
                "pitch": 38,
                "velocity": 101,
                "duration": 0.1477273,
                "tempo": 120.0
            },
            {
                "start_time": 20.1477273,
                "end_time": 20.7318182,
                "pitch": 41,
                "velocity": 101,
                "duration": 0.5840909,
                "tempo": 120.0
            },
            {
                "start_time": 20.825,
                "end_time": 20.9659091,
                "pitch": 38,
                "velocity": 101,
                "duration": 0.1409091,
                "tempo": 120.0
            },
            {
                "start_time": 20.9909091,
                "end_time": 21.2931818,
                "pitch": 29,
                "velocity": 101,
                "duration": 0.3022727,
                "tempo": 120.0
            },
            {
                "start_time": 21.3363636,
                "end_time": 21.6295455,
                "pitch": 31,
                "velocity": 101,
                "duration": 0.2931818,
                "tempo": 120.0
            },
            {
                "start_time": 21.6704545,
                "end_time": 21.9659091,
                "pitch": 33,
                "velocity": 101,
                "duration": 0.2954545,
                "tempo": 120.0
            },
            {
                "start_time": 22.0022727,
                "end_time": 22.1522727,
                "pitch": 40,
                "velocity": 101,
                "duration": 0.15,
                "tempo": 120.0
            },
            {
                "start_time": 22.175,
                "end_time": 22.325,
                "pitch": 33,
                "velocity": 101,
                "duration": 0.15,
                "tempo": 120.0
            },
            {
                "start_time": 22.3477273,
                "end_time": 22.5181818,
                "pitch": 33,
                "velocity": 4,
                "duration": 0.1704545,
                "tempo": 120.0
            },
            {
                "start_time": 22.5181818,
                "end_time": 22.6613636,
                "pitch": 33,
                "velocity": 101,
                "duration": 0.1431818,
                "tempo": 120.0
            },
            {
                "start_time": 22.6818182,
                "end_time": 22.8295455,
                "pitch": 40,
                "velocity": 101,
                "duration": 0.1477273,
                "tempo": 120.0
            },
            {
                "start_time": 22.8522727,
                "end_time": 23.4363636,
                "pitch": 43,
                "velocity": 101,
                "duration": 0.5840909,
                "tempo": 120.0
            },
            {
                "start_time": 23.5272727,
                "end_time": 23.6772727,
                "pitch": 40,
                "velocity": 101,
                "duration": 0.15,
                "tempo": 120.0
            },
            {
                "start_time": 23.7,
                "end_time": 24.0045455,
                "pitch": 31,
                "velocity": 101,
                "duration": 0.3045455,
                "tempo": 120.0
            },
            {
                "start_time": 24.0522727,
                "end_time": 24.35,
                "pitch": 33,
                "velocity": 101,
                "duration": 0.2977273,
                "tempo": 120.0
            },
            {
                "start_time": 24.3909091,
                "end_time": 24.6863636,
                "pitch": 33,
                "velocity": 101,
                "duration": 0.2954545,
                "tempo": 120.0
            },
            {
                "start_time": 24.725,
                "end_time": 24.8704545,
                "pitch": 40,
                "velocity": 101,
                "duration": 0.1454545,
                "tempo": 120.0
            },
            {
                "start_time": 24.8931818,
                "end_time": 25.0386364,
                "pitch": 33,
                "velocity": 101,
                "duration": 0.1454545,
                "tempo": 120.0
            },
            {
                "start_time": 25.0590909,
                "end_time": 25.2295455,
                "pitch": 33,
                "velocity": 4,
                "duration": 0.1704545,
                "tempo": 120.0
            },
            {
                "start_time": 25.2295455,
                "end_time": 25.3727273,
                "pitch": 33,
                "velocity": 101,
                "duration": 0.1431818,
                "tempo": 120.0
            },
            {
                "start_time": 25.3931818,
                "end_time": 25.5409091,
                "pitch": 40,
                "velocity": 101,
                "duration": 0.1477273,
                "tempo": 120.0
            },
            {
                "start_time": 25.5636364,
                "end_time": 26.1477273,
                "pitch": 43,
                "velocity": 101,
                "duration": 0.5840909,
                "tempo": 120.0
            },
            {
                "start_time": 26.2386364,
                "end_time": 26.3886364,
                "pitch": 40,
                "velocity": 101,
                "duration": 0.15,
                "tempo": 120.0
            },
            {
                "start_time": 26.4113636,
                "end_time": 26.7068182,
                "pitch": 31,
                "velocity": 101,
                "duration": 0.2954545,
                "tempo": 120.0
            },
            {
                "start_time": 26.7454545,
                "end_time": 27.0522727,
                "pitch": 33,
                "velocity": 101,
                "duration": 0.3068182,
                "tempo": 120.0
            },
            {
                "start_time": 27.0954545,
                "end_time": 27.3886364,
                "pitch": 31,
                "velocity": 101,
                "duration": 0.2931818,
                "tempo": 120.0
            },
            {
                "start_time": 27.4340909,
                "end_time": 27.5772727,
                "pitch": 38,
                "velocity": 101,
                "duration": 0.1431818,
                "tempo": 120.0
            },
            {
                "start_time": 27.6068182,
                "end_time": 27.75,
                "pitch": 31,
                "velocity": 101,
                "duration": 0.1431818,
                "tempo": 120.0
            },
            {
                "start_time": 27.7704545,
                "end_time": 27.9431818,
                "pitch": 31,
                "velocity": 4,
                "duration": 0.1727273,
                "tempo": 120.0
            },
            {
                "start_time": 27.9431818,
                "end_time": 28.0840909,
                "pitch": 31,
                "velocity": 101,
                "duration": 0.1409091,
                "tempo": 120.0
            },
            {
                "start_time": 28.1068182,
                "end_time": 28.2568182,
                "pitch": 38,
                "velocity": 101,
                "duration": 0.15,
                "tempo": 120.0
            },
            {
                "start_time": 28.2840909,
                "end_time": 28.8659091,
                "pitch": 41,
                "velocity": 101,
                "duration": 0.5818182,
                "tempo": 120.0
            },
            {
                "start_time": 28.9545455,
                "end_time": 29.1,
                "pitch": 38,
                "velocity": 101,
                "duration": 0.1454545,
                "tempo": 120.0
            },
            {
                "start_time": 29.1227273,
                "end_time": 29.4272727,
                "pitch": 29,
                "velocity": 101,
                "duration": 0.3045455,
                "tempo": 120.0
            },
            {
                "start_time": 29.475,
                "end_time": 29.7727273,
                "pitch": 31,
                "velocity": 101,
                "duration": 0.2977273,
                "tempo": 120.0
            },
            {
                "start_time": 29.8159091,
                "end_time": 30.1090909,
                "pitch": 31,
                "velocity": 101,
                "duration": 0.2931818,
                "tempo": 120.0
            },
            {
                "start_time": 30.1477273,
                "end_time": 30.2931818,
                "pitch": 38,
                "velocity": 101,
                "duration": 0.1454545,
                "tempo": 120.0
            },
            {
                "start_time": 30.3136364,
                "end_time": 30.4613636,
                "pitch": 31,
                "velocity": 101,
                "duration": 0.1477273,
                "tempo": 120.0
            },
            {
                "start_time": 30.4772727,
                "end_time": 30.65,
                "pitch": 31,
                "velocity": 4,
                "duration": 0.1727273,
                "tempo": 120.0
            },
            {
                "start_time": 30.65,
                "end_time": 30.7954545,
                "pitch": 31,
                "velocity": 101,
                "duration": 0.1454545,
                "tempo": 120.0
            },
            {
                "start_time": 30.8204545,
                "end_time": 30.9681818,
                "pitch": 38,
                "velocity": 101,
                "duration": 0.1477273,
                "tempo": 120.0
            },
            {
                "start_time": 30.9931818,
                "end_time": 31.5772727,
                "pitch": 41,
                "velocity": 101,
                "duration": 0.5840909,
                "tempo": 120.0
            },
            {
                "start_time": 31.6704545,
                "end_time": 31.8113636,
                "pitch": 38,
                "velocity": 101,
                "duration": 0.1409091,
                "tempo": 120.0
            },
            {
                "start_time": 31.8363636,
                "end_time": 32.1386364,
                "pitch": 29,
                "velocity": 101,
                "duration": 0.3022727,
                "tempo": 120.0
            },
            {
                "start_time": 32.1818182,
                "end_time": 32.475,
                "pitch": 31,
                "velocity": 101,
                "duration": 0.2931818,
                "tempo": 120.0
            },
            {
                "start_time": 32.5159091,
                "end_time": 32.8113636,
                "pitch": 33,
                "velocity": 101,
                "duration": 0.2954545,
                "tempo": 120.0
            },
            {
                "start_time": 32.8477273,
                "end_time": 33.0,
                "pitch": 40,
                "velocity": 101,
                "duration": 0.1522727,
                "tempo": 120.0
            },
            {
                "start_time": 33.0204545,
                "end_time": 33.1704545,
                "pitch": 33,
                "velocity": 101,
                "duration": 0.15,
                "tempo": 120.0
            },
            {
                "start_time": 33.1931818,
                "end_time": 33.3636364,
                "pitch": 33,
                "velocity": 4,
                "duration": 0.1704545,
                "tempo": 120.0
            },
            {
                "start_time": 33.3636364,
                "end_time": 33.5068182,
                "pitch": 33,
                "velocity": 101,
                "duration": 0.1431818,
                "tempo": 120.0
            },
            {
                "start_time": 33.5272727,
                "end_time": 33.675,
                "pitch": 40,
                "velocity": 101,
                "duration": 0.1477273,
                "tempo": 120.0
            },
            {
                "start_time": 33.6977273,
                "end_time": 34.2818182,
                "pitch": 43,
                "velocity": 101,
                "duration": 0.5840909,
                "tempo": 120.0
            },
            {
                "start_time": 34.3727273,
                "end_time": 34.5227273,
                "pitch": 40,
                "velocity": 101,
                "duration": 0.15,
                "tempo": 120.0
            },
            {
                "start_time": 34.5454545,
                "end_time": 34.85,
                "pitch": 31,
                "velocity": 101,
                "duration": 0.3045455,
                "tempo": 120.0
            },
            {
                "start_time": 34.8977273,
                "end_time": 35.1954545,
                "pitch": 33,
                "velocity": 101,
                "duration": 0.2977273,
                "tempo": 120.0
            },
            {
                "start_time": 35.2363636,
                "end_time": 35.5318182,
                "pitch": 33,
                "velocity": 101,
                "duration": 0.2954545,
                "tempo": 120.0
            },
            {
                "start_time": 35.5704545,
                "end_time": 35.7159091,
                "pitch": 40,
                "velocity": 101,
                "duration": 0.1454545,
                "tempo": 120.0
            },
            {
                "start_time": 35.7386364,
                "end_time": 35.8840909,
                "pitch": 33,
                "velocity": 101,
                "duration": 0.1454545,
                "tempo": 120.0
            },
            {
                "start_time": 35.9045455,
                "end_time": 36.075,
                "pitch": 33,
                "velocity": 4,
                "duration": 0.1704545,
                "tempo": 120.0
            },
            {
                "start_time": 36.075,
                "end_time": 36.2181818,
                "pitch": 33,
                "velocity": 101,
                "duration": 0.1431818,
                "tempo": 120.0
            },
            {
                "start_time": 36.2386364,
                "end_time": 36.3863636,
                "pitch": 40,
                "velocity": 101,
                "duration": 0.1477273,
                "tempo": 120.0
            },
            {
                "start_time": 36.4090909,
                "end_time": 36.9931818,
                "pitch": 43,
                "velocity": 101,
                "duration": 0.5840909,
                "tempo": 120.0
            },
            {
                "start_time": 37.0840909,
                "end_time": 37.2340909,
                "pitch": 40,
                "velocity": 101,
                "duration": 0.15,
                "tempo": 120.0
            },
            {
                "start_time": 37.2568182,
                "end_time": 37.5522727,
                "pitch": 31,
                "velocity": 101,
                "duration": 0.2954545,
                "tempo": 120.0
            },
            {
                "start_time": 37.5909091,
                "end_time": 37.8977273,
                "pitch": 33,
                "velocity": 101,
                "duration": 0.3068182,
                "tempo": 120.0
            },
            {
                "start_time": 37.9431818,
                "end_time": 38.3772727,
                "pitch": 29,
                "velocity": 101,
                "duration": 0.4340909,
                "tempo": 120.0
            },
            {
                "start_time": 38.4545455,
                "end_time": 38.5954545,
                "pitch": 36,
                "velocity": 101,
                "duration": 0.1409091,
                "tempo": 120.0
            },
            {
                "start_time": 38.6204545,
                "end_time": 38.9227273,
                "pitch": 36,
                "velocity": 101,
                "duration": 0.3022727,
                "tempo": 120.0
            },
            {
                "start_time": 38.9659091,
                "end_time": 39.1068182,
                "pitch": 29,
                "velocity": 101,
                "duration": 0.1409091,
                "tempo": 120.0
            },
            {
                "start_time": 39.1340909,
                "end_time": 39.7136364,
                "pitch": 36,
                "velocity": 101,
                "duration": 0.5795455,
                "tempo": 120.0
            },
            {
                "start_time": 39.8022727,
                "end_time": 40.1,
                "pitch": 29,
                "velocity": 101,
                "duration": 0.2977273,
                "tempo": 120.0
            },
            {
                "start_time": 40.1409091,
                "end_time": 40.2909091,
                "pitch": 29,
                "velocity": 101,
                "duration": 0.15,
                "tempo": 120.0
            },
            {
                "start_time": 40.3181818,
                "end_time": 40.4636364,
                "pitch": 36,
                "velocity": 101,
                "duration": 0.1454545,
                "tempo": 120.0
            },
            {
                "start_time": 40.4909091,
                "end_time": 40.6363636,
                "pitch": 41,
                "velocity": 101,
                "duration": 0.1454545,
                "tempo": 120.0
            },
            {
                "start_time": 40.6659091,
                "end_time": 41.0886364,
                "pitch": 29,
                "velocity": 101,
                "duration": 0.4227273,
                "tempo": 120.0
            },
            {
                "start_time": 41.1659091,
                "end_time": 41.3068182,
                "pitch": 36,
                "velocity": 101,
                "duration": 0.1409091,
                "tempo": 120.0
            },
            {
                "start_time": 41.3318182,
                "end_time": 41.625,
                "pitch": 36,
                "velocity": 101,
                "duration": 0.2931818,
                "tempo": 120.0
            },
            {
                "start_time": 41.6681818,
                "end_time": 41.8136364,
                "pitch": 29,
                "velocity": 101,
                "duration": 0.1454545,
                "tempo": 120.0
            },
            {
                "start_time": 41.8409091,
                "end_time": 42.425,
                "pitch": 36,
                "velocity": 101,
                "duration": 0.5840909,
                "tempo": 120.0
            },
            {
                "start_time": 42.5136364,
                "end_time": 42.8113636,
                "pitch": 29,
                "velocity": 101,
                "duration": 0.2977273,
                "tempo": 120.0
            },
            {
                "start_time": 42.8522727,
                "end_time": 43.0022727,
                "pitch": 29,
                "velocity": 101,
                "duration": 0.15,
                "tempo": 120.0
            },
            {
                "start_time": 43.0295455,
                "end_time": 43.175,
                "pitch": 36,
                "velocity": 101,
                "duration": 0.1454545,
                "tempo": 120.0
            },
            {
                "start_time": 43.2022727,
                "end_time": 43.3477273,
                "pitch": 41,
                "velocity": 101,
                "duration": 0.1454545,
                "tempo": 120.0
            },
            {
                "start_time": 43.3772727,
                "end_time": 43.8,
                "pitch": 27,
                "velocity": 101,
                "duration": 0.4227273,
                "tempo": 120.0
            },
            {
                "start_time": 43.8772727,
                "end_time": 44.0181818,
                "pitch": 34,
                "velocity": 101,
                "duration": 0.1409091,
                "tempo": 120.0
            },
            {
                "start_time": 44.0431818,
                "end_time": 44.3363636,
                "pitch": 34,
                "velocity": 101,
                "duration": 0.2931818,
                "tempo": 120.0
            },
            {
                "start_time": 44.3795455,
                "end_time": 44.525,
                "pitch": 27,
                "velocity": 101,
                "duration": 0.1454545,
                "tempo": 120.0
            },
            {
                "start_time": 44.5522727,
                "end_time": 45.1363636,
                "pitch": 34,
                "velocity": 101,
                "duration": 0.5840909,
                "tempo": 120.0
            },
            {
                "start_time": 45.2272727,
                "end_time": 45.5227273,
                "pitch": 27,
                "velocity": 101,
                "duration": 0.2954545,
                "tempo": 120.0
            },
            {
                "start_time": 45.5636364,
                "end_time": 45.7136364,
                "pitch": 27,
                "velocity": 101,
                "duration": 0.15,
                "tempo": 120.0
            },
            {
                "start_time": 45.7409091,
                "end_time": 45.8863636,
                "pitch": 34,
                "velocity": 101,
                "duration": 0.1454545,
                "tempo": 120.0
            },
            {
                "start_time": 45.9136364,
                "end_time": 46.0590909,
                "pitch": 39,
                "velocity": 101,
                "duration": 0.1454545,
                "tempo": 120.0
            },
            {
                "start_time": 46.0886364,
                "end_time": 46.5113636,
                "pitch": 27,
                "velocity": 101,
                "duration": 0.4227273,
                "tempo": 120.0
            },
            {
                "start_time": 46.5909091,
                "end_time": 46.7295455,
                "pitch": 34,
                "velocity": 101,
                "duration": 0.1386364,
                "tempo": 120.0
            },
            {
                "start_time": 46.7545455,
                "end_time": 47.0568182,
                "pitch": 34,
                "velocity": 101,
                "duration": 0.3022727,
                "tempo": 120.0
            },
            {
                "start_time": 47.1,
                "end_time": 47.2431818,
                "pitch": 27,
                "velocity": 101,
                "duration": 0.1431818,
                "tempo": 120.0
            },
            {
                "start_time": 47.2704545,
                "end_time": 47.8477273,
                "pitch": 34,
                "velocity": 101,
                "duration": 0.5772727,
                "tempo": 120.0
            },
            {
                "start_time": 47.9363636,
                "end_time": 48.2318182,
                "pitch": 27,
                "velocity": 101,
                "duration": 0.2954545,
                "tempo": 120.0
            },
            {
                "start_time": 48.2704545,
                "end_time": 48.4159091,
                "pitch": 27,
                "velocity": 101,
                "duration": 0.1454545,
                "tempo": 120.0
            },
            {
                "start_time": 48.4409091,
                "end_time": 48.5886364,
                "pitch": 34,
                "velocity": 101,
                "duration": 0.1477273,
                "tempo": 120.0
            },
            {
                "start_time": 48.6113636,
                "end_time": 48.7590909,
                "pitch": 39,
                "velocity": 101,
                "duration": 0.1477273,
                "tempo": 120.0
            },
            {
                "start_time": 48.7886364,
                "end_time": 49.2227273,
                "pitch": 29,
                "velocity": 101,
                "duration": 0.4340909,
                "tempo": 120.0
            },
            {
                "start_time": 49.3,
                "end_time": 49.4409091,
                "pitch": 37,
                "velocity": 101,
                "duration": 0.1409091,
                "tempo": 120.0
            },
            {
                "start_time": 49.4659091,
                "end_time": 49.7681818,
                "pitch": 37,
                "velocity": 101,
                "duration": 0.3022727,
                "tempo": 120.0
            },
            {
                "start_time": 49.8113636,
                "end_time": 49.9545455,
                "pitch": 29,
                "velocity": 101,
                "duration": 0.1431818,
                "tempo": 120.0
            },
            {
                "start_time": 49.9795455,
                "end_time": 50.5590909,
                "pitch": 37,
                "velocity": 101,
                "duration": 0.5795455,
                "tempo": 120.0
            },
            {
                "start_time": 50.6477273,
                "end_time": 50.9454545,
                "pitch": 29,
                "velocity": 101,
                "duration": 0.2977273,
                "tempo": 120.0
            },
            {
                "start_time": 50.9863636,
                "end_time": 51.1363636,
                "pitch": 32,
                "velocity": 101,
                "duration": 0.15,
                "tempo": 120.0
            },
            {
                "start_time": 51.1636364,
                "end_time": 51.3090909,
                "pitch": 37,
                "velocity": 101,
                "duration": 0.1454545,
                "tempo": 120.0
            },
            {
                "start_time": 51.3363636,
                "end_time": 51.4818182,
                "pitch": 41,
                "velocity": 101,
                "duration": 0.1454545,
                "tempo": 120.0
            },
            {
                "start_time": 51.5113636,
                "end_time": 51.9340909,
                "pitch": 29,
                "velocity": 101,
                "duration": 0.4227273,
                "tempo": 120.0
            },
            {
                "start_time": 52.0113636,
                "end_time": 52.1522727,
                "pitch": 37,
                "velocity": 101,
                "duration": 0.1409091,
                "tempo": 120.0
            },
            {
                "start_time": 52.1772727,
                "end_time": 52.4795455,
                "pitch": 37,
                "velocity": 101,
                "duration": 0.3022727,
                "tempo": 120.0
            },
            {
                "start_time": 52.5227273,
                "end_time": 52.6659091,
                "pitch": 29,
                "velocity": 101,
                "duration": 0.1431818,
                "tempo": 120.0
            },
            {
                "start_time": 52.6909091,
                "end_time": 53.2704545,
                "pitch": 37,
                "velocity": 101,
                "duration": 0.5795455,
                "tempo": 120.0
            },
            {
                "start_time": 53.3613636,
                "end_time": 53.6568182,
                "pitch": 29,
                "velocity": 101,
                "duration": 0.2954545,
                "tempo": 120.0
            },
            {
                "start_time": 53.6977273,
                "end_time": 53.8477273,
                "pitch": 32,
                "velocity": 101,
                "duration": 0.15,
                "tempo": 120.0
            },
            {
                "start_time": 53.875,
                "end_time": 54.0204545,
                "pitch": 37,
                "velocity": 101,
                "duration": 0.1454545,
                "tempo": 120.0
            },
            {
                "start_time": 54.0454545,
                "end_time": 54.1931818,
                "pitch": 41,
                "velocity": 101,
                "duration": 0.1477273,
                "tempo": 120.0
            },
            {
                "start_time": 54.2204545,
                "end_time": 54.6431818,
                "pitch": 36,
                "velocity": 101,
                "duration": 0.4227273,
                "tempo": 120.0
            },
            {
                "start_time": 54.7181818,
                "end_time": 55.1454545,
                "pitch": 31,
                "velocity": 101,
                "duration": 0.4272727,
                "tempo": 120.0
            },
            {
                "start_time": 55.225,
                "end_time": 55.525,
                "pitch": 36,
                "velocity": 101,
                "duration": 0.3,
                "tempo": 120.0
            },
            {
                "start_time": 55.5704545,
                "end_time": 56.0022727,
                "pitch": 38,
                "velocity": 101,
                "duration": 0.4318182,
                "tempo": 120.0
            },
            {
                "start_time": 56.0772727,
                "end_time": 56.5045455,
                "pitch": 33,
                "velocity": 101,
                "duration": 0.4272727,
                "tempo": 120.0
            },
            {
                "start_time": 56.5840909,
                "end_time": 56.8840909,
                "pitch": 38,
                "velocity": 101,
                "duration": 0.3,
                "tempo": 120.0
            },
            {
                "start_time": 56.9295455,
                "end_time": 57.3568182,
                "pitch": 39,
                "velocity": 101,
                "duration": 0.4272727,
                "tempo": 120.0
            },
            {
                "start_time": 57.4295455,
                "end_time": 57.8590909,
                "pitch": 34,
                "velocity": 101,
                "duration": 0.4295455,
                "tempo": 120.0
            },
            {
                "start_time": 57.9409091,
                "end_time": 58.2340909,
                "pitch": 39,
                "velocity": 101,
                "duration": 0.2931818,
                "tempo": 120.0
            },
            {
                "start_time": 58.2727273,
                "end_time": 58.6977273,
                "pitch": 41,
                "velocity": 101,
                "duration": 0.425,
                "tempo": 120.0
            },
            {
                "start_time": 58.7772727,
                "end_time": 59.2136364,
                "pitch": 36,
                "velocity": 101,
                "duration": 0.4363636,
                "tempo": 120.0
            },
            {
                "start_time": 59.2909091,
                "end_time": 59.5909091,
                "pitch": 41,
                "velocity": 101,
                "duration": 0.3,
                "tempo": 120.0
            },
            {
                "start_time": 59.6272727,
                "end_time": 59.8068182,
                "pitch": 41,
                "velocity": 4,
                "duration": 0.1795455,
                "tempo": 120.0
            },
            {
                "start_time": 59.8090909,
                "end_time": 59.9522727,
                "pitch": 43,
                "velocity": 101,
                "duration": 0.1431818,
                "tempo": 120.0
            },
            {
                "start_time": 59.9818182,
                "end_time": 60.1227273,
                "pitch": 43,
                "velocity": 101,
                "duration": 0.1409091,
                "tempo": 120.0
            },
            {
                "start_time": 60.1409091,
                "end_time": 60.3159091,
                "pitch": 43,
                "velocity": 4,
                "duration": 0.175,
                "tempo": 120.0
            },
            {
                "start_time": 60.3159091,
                "end_time": 60.4568182,
                "pitch": 43,
                "velocity": 101,
                "duration": 0.1409091,
                "tempo": 120.0
            },
            {
                "start_time": 60.4772727,
                "end_time": 60.65,
                "pitch": 43,
                "velocity": 4,
                "duration": 0.1727273,
                "tempo": 120.0
            },
            {
                "start_time": 60.65,
                "end_time": 60.7886364,
                "pitch": 43,
                "velocity": 101,
                "duration": 0.1386364,
                "tempo": 120.0
            },
            {
                "start_time": 60.8159091,
                "end_time": 60.95,
                "pitch": 43,
                "velocity": 101,
                "duration": 0.1340909,
                "tempo": 120.0
            },
            {
                "start_time": 60.9704545,
                "end_time": 62.3136364,
                "pitch": 43,
                "velocity": 4,
                "duration": 1.3431818,
                "tempo": 120.0
            }
        ],
        "Vibraphone": [
            {
                "start_time": 37.9431818,
                "end_time": 38.0,
                "pitch": 76,
                "velocity": 80,
                "duration": 0.0568182,
                "tempo": 120.0
            },
            {
                "start_time": 38.0204545,
                "end_time": 38.0863636,
                "pitch": 72,
                "velocity": 80,
                "duration": 0.0659091,
                "tempo": 120.0
            },
            {
                "start_time": 38.1090909,
                "end_time": 38.1727273,
                "pitch": 69,
                "velocity": 80,
                "duration": 0.0636364,
                "tempo": 120.0
            },
            {
                "start_time": 38.1931818,
                "end_time": 38.2590909,
                "pitch": 65,
                "velocity": 80,
                "duration": 0.0659091,
                "tempo": 120.0
            },
            {
                "start_time": 38.2818182,
                "end_time": 38.3431818,
                "pitch": 76,
                "velocity": 80,
                "duration": 0.0613636,
                "tempo": 120.0
            },
            {
                "start_time": 38.3636364,
                "end_time": 38.4272727,
                "pitch": 72,
                "velocity": 80,
                "duration": 0.0636364,
                "tempo": 120.0
            },
            {
                "start_time": 38.4545455,
                "end_time": 38.5113636,
                "pitch": 69,
                "velocity": 80,
                "duration": 0.0568182,
                "tempo": 120.0
            },
            {
                "start_time": 38.5295455,
                "end_time": 38.5954545,
                "pitch": 65,
                "velocity": 80,
                "duration": 0.0659091,
                "tempo": 120.0
            },
            {
                "start_time": 38.6204545,
                "end_time": 38.6795455,
                "pitch": 76,
                "velocity": 80,
                "duration": 0.0590909,
                "tempo": 120.0
            },
            {
                "start_time": 38.7,
                "end_time": 38.7659091,
                "pitch": 72,
                "velocity": 80,
                "duration": 0.0659091,
                "tempo": 120.0
            },
            {
                "start_time": 38.7886364,
                "end_time": 38.8522727,
                "pitch": 69,
                "velocity": 80,
                "duration": 0.0636364,
                "tempo": 120.0
            },
            {
                "start_time": 38.8727273,
                "end_time": 38.9386364,
                "pitch": 65,
                "velocity": 80,
                "duration": 0.0659091,
                "tempo": 120.0
            },
            {
                "start_time": 38.9659091,
                "end_time": 39.0227273,
                "pitch": 76,
                "velocity": 80,
                "duration": 0.0568182,
                "tempo": 120.0
            },
            {
                "start_time": 39.0431818,
                "end_time": 39.1068182,
                "pitch": 72,
                "velocity": 80,
                "duration": 0.0636364,
                "tempo": 120.0
            },
            {
                "start_time": 39.1340909,
                "end_time": 39.1909091,
                "pitch": 69,
                "velocity": 80,
                "duration": 0.0568182,
                "tempo": 120.0
            },
            {
                "start_time": 39.2113636,
                "end_time": 39.275,
                "pitch": 65,
                "velocity": 80,
                "duration": 0.0636364,
                "tempo": 120.0
            },
            {
                "start_time": 39.2977273,
                "end_time": 39.3590909,
                "pitch": 76,
                "velocity": 80,
                "duration": 0.0613636,
                "tempo": 120.0
            },
            {
                "start_time": 39.3772727,
                "end_time": 39.4431818,
                "pitch": 72,
                "velocity": 80,
                "duration": 0.0659091,
                "tempo": 120.0
            },
            {
                "start_time": 39.4681818,
                "end_time": 39.5272727,
                "pitch": 69,
                "velocity": 80,
                "duration": 0.0590909,
                "tempo": 120.0
            },
            {
                "start_time": 39.5454545,
                "end_time": 39.6113636,
                "pitch": 65,
                "velocity": 80,
                "duration": 0.0659091,
                "tempo": 120.0
            },
            {
                "start_time": 39.6295455,
                "end_time": 39.6954545,
                "pitch": 76,
                "velocity": 80,
                "duration": 0.0659091,
                "tempo": 120.0
            },
            {
                "start_time": 39.7136364,
                "end_time": 39.7772727,
                "pitch": 72,
                "velocity": 80,
                "duration": 0.0636364,
                "tempo": 120.0
            },
            {
                "start_time": 39.8022727,
                "end_time": 39.8613636,
                "pitch": 69,
                "velocity": 80,
                "duration": 0.0590909,
                "tempo": 120.0
            },
            {
                "start_time": 39.8818182,
                "end_time": 39.9454545,
                "pitch": 65,
                "velocity": 80,
                "duration": 0.0636364,
                "tempo": 120.0
            },
            {
                "start_time": 39.9681818,
                "end_time": 40.0318182,
                "pitch": 76,
                "velocity": 80,
                "duration": 0.0636364,
                "tempo": 120.0
            },
            {
                "start_time": 40.0522727,
                "end_time": 40.1181818,
                "pitch": 72,
                "velocity": 80,
                "duration": 0.0659091,
                "tempo": 120.0
            },
            {
                "start_time": 40.1409091,
                "end_time": 40.2045455,
                "pitch": 69,
                "velocity": 80,
                "duration": 0.0636364,
                "tempo": 120.0
            },
            {
                "start_time": 40.2227273,
                "end_time": 40.2909091,
                "pitch": 65,
                "velocity": 80,
                "duration": 0.0681818,
                "tempo": 120.0
            },
            {
                "start_time": 40.3181818,
                "end_time": 40.3772727,
                "pitch": 76,
                "velocity": 80,
                "duration": 0.0590909,
                "tempo": 120.0
            },
            {
                "start_time": 40.3954545,
                "end_time": 40.4636364,
                "pitch": 72,
                "velocity": 80,
                "duration": 0.0681818,
                "tempo": 120.0
            },
            {
                "start_time": 40.4909091,
                "end_time": 40.55,
                "pitch": 69,
                "velocity": 80,
                "duration": 0.0590909,
                "tempo": 120.0
            },
            {
                "start_time": 40.5681818,
                "end_time": 40.6363636,
                "pitch": 65,
                "velocity": 80,
                "duration": 0.0681818,
                "tempo": 120.0
            },
            {
                "start_time": 40.6659091,
                "end_time": 40.7204545,
                "pitch": 75,
                "velocity": 80,
                "duration": 0.0545455,
                "tempo": 120.0
            },
            {
                "start_time": 40.7386364,
                "end_time": 40.8045455,
                "pitch": 72,
                "velocity": 80,
                "duration": 0.0659091,
                "tempo": 120.0
            },
            {
                "start_time": 40.825,
                "end_time": 40.8863636,
                "pitch": 68,
                "velocity": 80,
                "duration": 0.0613636,
                "tempo": 120.0
            },
            {
                "start_time": 40.9068182,
                "end_time": 40.9704545,
                "pitch": 65,
                "velocity": 80,
                "duration": 0.0636364,
                "tempo": 120.0
            },
            {
                "start_time": 40.9931818,
                "end_time": 41.0545455,
                "pitch": 75,
                "velocity": 80,
                "duration": 0.0613636,
                "tempo": 120.0
            },
            {
                "start_time": 41.075,
                "end_time": 41.1386364,
                "pitch": 72,
                "velocity": 80,
                "duration": 0.0636364,
                "tempo": 120.0
            },
            {
                "start_time": 41.1659091,
                "end_time": 41.2227273,
                "pitch": 68,
                "velocity": 80,
                "duration": 0.0568182,
                "tempo": 120.0
            },
            {
                "start_time": 41.2409091,
                "end_time": 41.3068182,
                "pitch": 65,
                "velocity": 80,
                "duration": 0.0659091,
                "tempo": 120.0
            },
            {
                "start_time": 41.3318182,
                "end_time": 41.3909091,
                "pitch": 75,
                "velocity": 80,
                "duration": 0.0590909,
                "tempo": 120.0
            },
            {
                "start_time": 41.4090909,
                "end_time": 41.475,
                "pitch": 72,
                "velocity": 80,
                "duration": 0.0659091,
                "tempo": 120.0
            },
            {
                "start_time": 41.4954545,
                "end_time": 41.5590909,
                "pitch": 68,
                "velocity": 80,
                "duration": 0.0636364,
                "tempo": 120.0
            },
            {
                "start_time": 41.5772727,
                "end_time": 41.6409091,
                "pitch": 65,
                "velocity": 80,
                "duration": 0.0636364,
                "tempo": 120.0
            },
            {
                "start_time": 41.6681818,
                "end_time": 41.7272727,
                "pitch": 75,
                "velocity": 80,
                "duration": 0.0590909,
                "tempo": 120.0
            },
            {
                "start_time": 41.7477273,
                "end_time": 41.8136364,
                "pitch": 72,
                "velocity": 80,
                "duration": 0.0659091,
                "tempo": 120.0
            },
            {
                "start_time": 41.8409091,
                "end_time": 41.9,
                "pitch": 68,
                "velocity": 80,
                "duration": 0.0590909,
                "tempo": 120.0
            },
            {
                "start_time": 41.9204545,
                "end_time": 41.9863636,
                "pitch": 65,
                "velocity": 80,
                "duration": 0.0659091,
                "tempo": 120.0
            },
            {
                "start_time": 42.0090909,
                "end_time": 42.0704545,
                "pitch": 75,
                "velocity": 80,
                "duration": 0.0613636,
                "tempo": 120.0
            },
            {
                "start_time": 42.0886364,
                "end_time": 42.1545455,
                "pitch": 72,
                "velocity": 80,
                "duration": 0.0659091,
                "tempo": 120.0
            },
            {
                "start_time": 42.1795455,
                "end_time": 42.2386364,
                "pitch": 68,
                "velocity": 80,
                "duration": 0.0590909,
                "tempo": 120.0
            },
            {
                "start_time": 42.2568182,
                "end_time": 42.3227273,
                "pitch": 65,
                "velocity": 80,
                "duration": 0.0659091,
                "tempo": 120.0
            },
            {
                "start_time": 42.3431818,
                "end_time": 42.4068182,
                "pitch": 75,
                "velocity": 80,
                "duration": 0.0636364,
                "tempo": 120.0
            },
            {
                "start_time": 42.425,
                "end_time": 42.4886364,
                "pitch": 72,
                "velocity": 80,
                "duration": 0.0636364,
                "tempo": 120.0
            },
            {
                "start_time": 42.5136364,
                "end_time": 42.5727273,
                "pitch": 68,
                "velocity": 80,
                "duration": 0.0590909,
                "tempo": 120.0
            },
            {
                "start_time": 42.5931818,
                "end_time": 42.6568182,
                "pitch": 65,
                "velocity": 80,
                "duration": 0.0636364,
                "tempo": 120.0
            },
            {
                "start_time": 42.6795455,
                "end_time": 42.7431818,
                "pitch": 75,
                "velocity": 80,
                "duration": 0.0636364,
                "tempo": 120.0
            },
            {
                "start_time": 42.7636364,
                "end_time": 42.8295455,
                "pitch": 72,
                "velocity": 80,
                "duration": 0.0659091,
                "tempo": 120.0
            },
            {
                "start_time": 42.8522727,
                "end_time": 42.9159091,
                "pitch": 68,
                "velocity": 80,
                "duration": 0.0636364,
                "tempo": 120.0
            },
            {
                "start_time": 42.9340909,
                "end_time": 43.0022727,
                "pitch": 65,
                "velocity": 80,
                "duration": 0.0681818,
                "tempo": 120.0
            },
            {
                "start_time": 43.0295455,
                "end_time": 43.0886364,
                "pitch": 75,
                "velocity": 80,
                "duration": 0.0590909,
                "tempo": 120.0
            },
            {
                "start_time": 43.1068182,
                "end_time": 43.175,
                "pitch": 72,
                "velocity": 80,
                "duration": 0.0681818,
                "tempo": 120.0
            },
            {
                "start_time": 43.2022727,
                "end_time": 43.2613636,
                "pitch": 68,
                "velocity": 80,
                "duration": 0.0590909,
                "tempo": 120.0
            },
            {
                "start_time": 43.2795455,
                "end_time": 43.3477273,
                "pitch": 65,
                "velocity": 80,
                "duration": 0.0681818,
                "tempo": 120.0
            },
            {
                "start_time": 43.3772727,
                "end_time": 43.4318182,
                "pitch": 74,
                "velocity": 80,
                "duration": 0.0545455,
                "tempo": 120.0
            },
            {
                "start_time": 43.45,
                "end_time": 43.5159091,
                "pitch": 70,
                "velocity": 80,
                "duration": 0.0659091,
                "tempo": 120.0
            },
            {
                "start_time": 43.5363636,
                "end_time": 43.5977273,
                "pitch": 67,
                "velocity": 80,
                "duration": 0.0613636,
                "tempo": 120.0
            },
            {
                "start_time": 43.6181818,
                "end_time": 43.6818182,
                "pitch": 63,
                "velocity": 80,
                "duration": 0.0636364,
                "tempo": 120.0
            },
            {
                "start_time": 43.7045455,
                "end_time": 43.7659091,
                "pitch": 74,
                "velocity": 80,
                "duration": 0.0613636,
                "tempo": 120.0
            },
            {
                "start_time": 43.7863636,
                "end_time": 43.85,
                "pitch": 70,
                "velocity": 80,
                "duration": 0.0636364,
                "tempo": 120.0
            },
            {
                "start_time": 43.8772727,
                "end_time": 43.9340909,
                "pitch": 67,
                "velocity": 80,
                "duration": 0.0568182,
                "tempo": 120.0
            },
            {
                "start_time": 43.9545455,
                "end_time": 44.0181818,
                "pitch": 63,
                "velocity": 80,
                "duration": 0.0636364,
                "tempo": 120.0
            },
            {
                "start_time": 44.0431818,
                "end_time": 44.1022727,
                "pitch": 74,
                "velocity": 80,
                "duration": 0.0590909,
                "tempo": 120.0
            },
            {
                "start_time": 44.1204545,
                "end_time": 44.1863636,
                "pitch": 70,
                "velocity": 80,
                "duration": 0.0659091,
                "tempo": 120.0
            },
            {
                "start_time": 44.2068182,
                "end_time": 44.2704545,
                "pitch": 67,
                "velocity": 80,
                "duration": 0.0636364,
                "tempo": 120.0
            },
            {
                "start_time": 44.2886364,
                "end_time": 44.3522727,
                "pitch": 63,
                "velocity": 80,
                "duration": 0.0636364,
                "tempo": 120.0
            },
            {
                "start_time": 44.3795455,
                "end_time": 44.4386364,
                "pitch": 74,
                "velocity": 80,
                "duration": 0.0590909,
                "tempo": 120.0
            },
            {
                "start_time": 44.4590909,
                "end_time": 44.525,
                "pitch": 70,
                "velocity": 80,
                "duration": 0.0659091,
                "tempo": 120.0
            },
            {
                "start_time": 44.5522727,
                "end_time": 44.6113636,
                "pitch": 67,
                "velocity": 80,
                "duration": 0.0590909,
                "tempo": 120.0
            },
            {
                "start_time": 44.6318182,
                "end_time": 44.6977273,
                "pitch": 63,
                "velocity": 80,
                "duration": 0.0659091,
                "tempo": 120.0
            },
            {
                "start_time": 44.7204545,
                "end_time": 44.7818182,
                "pitch": 74,
                "velocity": 80,
                "duration": 0.0613636,
                "tempo": 120.0
            },
            {
                "start_time": 44.8022727,
                "end_time": 44.8659091,
                "pitch": 70,
                "velocity": 80,
                "duration": 0.0636364,
                "tempo": 120.0
            },
            {
                "start_time": 44.8909091,
                "end_time": 44.95,
                "pitch": 67,
                "velocity": 80,
                "duration": 0.0590909,
                "tempo": 120.0
            },
            {
                "start_time": 44.9681818,
                "end_time": 45.0340909,
                "pitch": 63,
                "velocity": 80,
                "duration": 0.0659091,
                "tempo": 120.0
            },
            {
                "start_time": 45.0545455,
                "end_time": 45.1181818,
                "pitch": 74,
                "velocity": 80,
                "duration": 0.0636364,
                "tempo": 120.0
            },
            {
                "start_time": 45.1363636,
                "end_time": 45.2022727,
                "pitch": 70,
                "velocity": 80,
                "duration": 0.0659091,
                "tempo": 120.0
            },
            {
                "start_time": 45.2272727,
                "end_time": 45.2840909,
                "pitch": 67,
                "velocity": 80,
                "duration": 0.0568182,
                "tempo": 120.0
            },
            {
                "start_time": 45.3045455,
                "end_time": 45.3681818,
                "pitch": 63,
                "velocity": 80,
                "duration": 0.0636364,
                "tempo": 120.0
            },
            {
                "start_time": 45.3931818,
                "end_time": 45.4545455,
                "pitch": 74,
                "velocity": 80,
                "duration": 0.0613636,
                "tempo": 120.0
            },
            {
                "start_time": 45.475,
                "end_time": 45.5409091,
                "pitch": 70,
                "velocity": 80,
                "duration": 0.0659091,
                "tempo": 120.0
            },
            {
                "start_time": 45.5636364,
                "end_time": 45.6272727,
                "pitch": 67,
                "velocity": 80,
                "duration": 0.0636364,
                "tempo": 120.0
            },
            {
                "start_time": 45.6477273,
                "end_time": 45.7136364,
                "pitch": 63,
                "velocity": 80,
                "duration": 0.0659091,
                "tempo": 120.0
            },
            {
                "start_time": 45.7409091,
                "end_time": 45.8,
                "pitch": 74,
                "velocity": 80,
                "duration": 0.0590909,
                "tempo": 120.0
            },
            {
                "start_time": 45.8181818,
                "end_time": 45.8863636,
                "pitch": 70,
                "velocity": 80,
                "duration": 0.0681818,
                "tempo": 120.0
            },
            {
                "start_time": 45.9136364,
                "end_time": 45.9727273,
                "pitch": 67,
                "velocity": 80,
                "duration": 0.0590909,
                "tempo": 120.0
            },
            {
                "start_time": 45.9909091,
                "end_time": 46.0590909,
                "pitch": 63,
                "velocity": 80,
                "duration": 0.0681818,
                "tempo": 120.0
            },
            {
                "start_time": 46.0886364,
                "end_time": 46.1431818,
                "pitch": 73,
                "velocity": 80,
                "duration": 0.0545455,
                "tempo": 120.0
            },
            {
                "start_time": 46.1613636,
                "end_time": 46.2272727,
                "pitch": 70,
                "velocity": 80,
                "duration": 0.0659091,
                "tempo": 120.0
            },
            {
                "start_time": 46.25,
                "end_time": 46.3113636,
                "pitch": 66,
                "velocity": 80,
                "duration": 0.0613636,
                "tempo": 120.0
            },
            {
                "start_time": 46.3295455,
                "end_time": 46.3931818,
                "pitch": 63,
                "velocity": 80,
                "duration": 0.0636364,
                "tempo": 120.0
            },
            {
                "start_time": 46.4204545,
                "end_time": 46.4772727,
                "pitch": 73,
                "velocity": 80,
                "duration": 0.0568182,
                "tempo": 120.0
            },
            {
                "start_time": 46.4977273,
                "end_time": 46.5613636,
                "pitch": 70,
                "velocity": 80,
                "duration": 0.0636364,
                "tempo": 120.0
            },
            {
                "start_time": 46.5909091,
                "end_time": 46.6454545,
                "pitch": 66,
                "velocity": 80,
                "duration": 0.0545455,
                "tempo": 120.0
            },
            {
                "start_time": 46.6659091,
                "end_time": 46.7295455,
                "pitch": 63,
                "velocity": 80,
                "duration": 0.0636364,
                "tempo": 120.0
            },
            {
                "start_time": 46.7545455,
                "end_time": 46.8159091,
                "pitch": 73,
                "velocity": 80,
                "duration": 0.0613636,
                "tempo": 120.0
            },
            {
                "start_time": 46.8340909,
                "end_time": 46.9022727,
                "pitch": 70,
                "velocity": 80,
                "duration": 0.0681818,
                "tempo": 120.0
            },
            {
                "start_time": 46.9272727,
                "end_time": 46.9863636,
                "pitch": 66,
                "velocity": 80,
                "duration": 0.0590909,
                "tempo": 120.0
            },
            {
                "start_time": 47.0068182,
                "end_time": 47.0727273,
                "pitch": 63,
                "velocity": 80,
                "duration": 0.0659091,
                "tempo": 120.0
            },
            {
                "start_time": 47.1,
                "end_time": 47.1590909,
                "pitch": 73,
                "velocity": 80,
                "duration": 0.0590909,
                "tempo": 120.0
            },
            {
                "start_time": 47.1772727,
                "end_time": 47.2431818,
                "pitch": 70,
                "velocity": 80,
                "duration": 0.0659091,
                "tempo": 120.0
            },
            {
                "start_time": 47.2704545,
                "end_time": 47.325,
                "pitch": 66,
                "velocity": 80,
                "duration": 0.0545455,
                "tempo": 120.0
            },
            {
                "start_time": 47.3454545,
                "end_time": 47.4090909,
                "pitch": 63,
                "velocity": 80,
                "duration": 0.0636364,
                "tempo": 120.0
            },
            {
                "start_time": 47.4318182,
                "end_time": 47.4931818,
                "pitch": 73,
                "velocity": 80,
                "duration": 0.0613636,
                "tempo": 120.0
            },
            {
                "start_time": 47.5136364,
                "end_time": 47.5772727,
                "pitch": 70,
                "velocity": 80,
                "duration": 0.0636364,
                "tempo": 120.0
            },
            {
                "start_time": 47.5977273,
                "end_time": 47.6613636,
                "pitch": 66,
                "velocity": 80,
                "duration": 0.0636364,
                "tempo": 120.0
            },
            {
                "start_time": 47.6795455,
                "end_time": 47.7454545,
                "pitch": 63,
                "velocity": 80,
                "duration": 0.0659091,
                "tempo": 120.0
            },
            {
                "start_time": 47.7659091,
                "end_time": 47.8295455,
                "pitch": 73,
                "velocity": 80,
                "duration": 0.0636364,
                "tempo": 120.0
            },
            {
                "start_time": 47.8477273,
                "end_time": 47.9136364,
                "pitch": 70,
                "velocity": 80,
                "duration": 0.0659091,
                "tempo": 120.0
            },
            {
                "start_time": 47.9363636,
                "end_time": 47.9954545,
                "pitch": 66,
                "velocity": 80,
                "duration": 0.0590909,
                "tempo": 120.0
            },
            {
                "start_time": 48.0159091,
                "end_time": 48.0795455,
                "pitch": 63,
                "velocity": 80,
                "duration": 0.0636364,
                "tempo": 120.0
            },
            {
                "start_time": 48.1022727,
                "end_time": 48.1636364,
                "pitch": 73,
                "velocity": 80,
                "duration": 0.0613636,
                "tempo": 120.0
            },
            {
                "start_time": 48.1840909,
                "end_time": 48.2477273,
                "pitch": 70,
                "velocity": 80,
                "duration": 0.0636364,
                "tempo": 120.0
            },
            {
                "start_time": 48.2704545,
                "end_time": 48.3318182,
                "pitch": 66,
                "velocity": 80,
                "duration": 0.0613636,
                "tempo": 120.0
            },
            {
                "start_time": 48.35,
                "end_time": 48.4159091,
                "pitch": 63,
                "velocity": 80,
                "duration": 0.0659091,
                "tempo": 120.0
            },
            {
                "start_time": 48.4409091,
                "end_time": 48.5022727,
                "pitch": 73,
                "velocity": 80,
                "duration": 0.0613636,
                "tempo": 120.0
            },
            {
                "start_time": 48.5204545,
                "end_time": 48.5886364,
                "pitch": 70,
                "velocity": 80,
                "duration": 0.0681818,
                "tempo": 120.0
            },
            {
                "start_time": 48.6113636,
                "end_time": 48.6727273,
                "pitch": 66,
                "velocity": 80,
                "duration": 0.0613636,
                "tempo": 120.0
            },
            {
                "start_time": 48.6931818,
                "end_time": 48.7590909,
                "pitch": 63,
                "velocity": 80,
                "duration": 0.0659091,
                "tempo": 120.0
            },
            {
                "start_time": 48.7886364,
                "end_time": 48.8454545,
                "pitch": 72,
                "velocity": 80,
                "duration": 0.0568182,
                "tempo": 120.0
            },
            {
                "start_time": 48.8659091,
                "end_time": 48.9318182,
                "pitch": 68,
                "velocity": 80,
                "duration": 0.0659091,
                "tempo": 120.0
            },
            {
                "start_time": 48.9545455,
                "end_time": 49.0181818,
                "pitch": 65,
                "velocity": 80,
                "duration": 0.0636364,
                "tempo": 120.0
            },
            {
                "start_time": 49.0386364,
                "end_time": 49.1045455,
                "pitch": 61,
                "velocity": 80,
                "duration": 0.0659091,
                "tempo": 120.0
            },
            {
                "start_time": 49.1272727,
                "end_time": 49.1886364,
                "pitch": 72,
                "velocity": 80,
                "duration": 0.0613636,
                "tempo": 120.0
            },
            {
                "start_time": 49.2090909,
                "end_time": 49.2727273,
                "pitch": 68,
                "velocity": 80,
                "duration": 0.0636364,
                "tempo": 120.0
            },
            {
                "start_time": 49.3,
                "end_time": 49.3568182,
                "pitch": 65,
                "velocity": 80,
                "duration": 0.0568182,
                "tempo": 120.0
            },
            {
                "start_time": 49.3772727,
                "end_time": 49.4409091,
                "pitch": 61,
                "velocity": 80,
                "duration": 0.0636364,
                "tempo": 120.0
            },
            {
                "start_time": 49.4659091,
                "end_time": 49.5272727,
                "pitch": 72,
                "velocity": 80,
                "duration": 0.0613636,
                "tempo": 120.0
            },
            {
                "start_time": 49.5454545,
                "end_time": 49.6136364,
                "pitch": 68,
                "velocity": 80,
                "duration": 0.0681818,
                "tempo": 120.0
            },
            {
                "start_time": 49.6340909,
                "end_time": 49.7,
                "pitch": 65,
                "velocity": 80,
                "duration": 0.0659091,
                "tempo": 120.0
            },
            {
                "start_time": 49.7181818,
                "end_time": 49.7840909,
                "pitch": 61,
                "velocity": 80,
                "duration": 0.0659091,
                "tempo": 120.0
            },
            {
                "start_time": 49.8113636,
                "end_time": 49.8704545,
                "pitch": 72,
                "velocity": 80,
                "duration": 0.0590909,
                "tempo": 120.0
            },
            {
                "start_time": 49.8886364,
                "end_time": 49.9545455,
                "pitch": 68,
                "velocity": 80,
                "duration": 0.0659091,
                "tempo": 120.0
            },
            {
                "start_time": 49.9795455,
                "end_time": 50.0363636,
                "pitch": 65,
                "velocity": 80,
                "duration": 0.0568182,
                "tempo": 120.0
            },
            {
                "start_time": 50.0568182,
                "end_time": 50.1204545,
                "pitch": 61,
                "velocity": 80,
                "duration": 0.0636364,
                "tempo": 120.0
            },
            {
                "start_time": 50.1431818,
                "end_time": 50.2045455,
                "pitch": 72,
                "velocity": 80,
                "duration": 0.0613636,
                "tempo": 120.0
            },
            {
                "start_time": 50.225,
                "end_time": 50.2886364,
                "pitch": 68,
                "velocity": 80,
                "duration": 0.0636364,
                "tempo": 120.0
            },
            {
                "start_time": 50.3136364,
                "end_time": 50.3727273,
                "pitch": 65,
                "velocity": 80,
                "duration": 0.0590909,
                "tempo": 120.0
            },
            {
                "start_time": 50.3909091,
                "end_time": 50.4568182,
                "pitch": 61,
                "velocity": 80,
                "duration": 0.0659091,
                "tempo": 120.0
            },
            {
                "start_time": 50.4772727,
                "end_time": 50.5409091,
                "pitch": 72,
                "velocity": 80,
                "duration": 0.0636364,
                "tempo": 120.0
            },
            {
                "start_time": 50.5590909,
                "end_time": 50.625,
                "pitch": 68,
                "velocity": 80,
                "duration": 0.0659091,
                "tempo": 120.0
            },
            {
                "start_time": 50.6477273,
                "end_time": 50.7090909,
                "pitch": 65,
                "velocity": 80,
                "duration": 0.0613636,
                "tempo": 120.0
            },
            {
                "start_time": 50.7272727,
                "end_time": 50.7909091,
                "pitch": 61,
                "velocity": 80,
                "duration": 0.0636364,
                "tempo": 120.0
            },
            {
                "start_time": 50.8136364,
                "end_time": 50.8772727,
                "pitch": 72,
                "velocity": 80,
                "duration": 0.0636364,
                "tempo": 120.0
            },
            {
                "start_time": 50.8977273,
                "end_time": 50.9636364,
                "pitch": 68,
                "velocity": 80,
                "duration": 0.0659091,
                "tempo": 120.0
            },
            {
                "start_time": 50.9863636,
                "end_time": 51.05,
                "pitch": 65,
                "velocity": 80,
                "duration": 0.0636364,
                "tempo": 120.0
            },
            {
                "start_time": 51.0704545,
                "end_time": 51.1363636,
                "pitch": 61,
                "velocity": 80,
                "duration": 0.0659091,
                "tempo": 120.0
            },
            {
                "start_time": 51.1636364,
                "end_time": 51.2227273,
                "pitch": 72,
                "velocity": 80,
                "duration": 0.0590909,
                "tempo": 120.0
            },
            {
                "start_time": 51.2431818,
                "end_time": 51.3090909,
                "pitch": 68,
                "velocity": 80,
                "duration": 0.0659091,
                "tempo": 120.0
            },
            {
                "start_time": 51.3363636,
                "end_time": 51.3954545,
                "pitch": 65,
                "velocity": 80,
                "duration": 0.0590909,
                "tempo": 120.0
            },
            {
                "start_time": 51.4136364,
                "end_time": 51.4818182,
                "pitch": 61,
                "velocity": 80,
                "duration": 0.0681818,
                "tempo": 120.0
            },
            {
                "start_time": 51.5113636,
                "end_time": 51.5659091,
                "pitch": 71,
                "velocity": 80,
                "duration": 0.0545455,
                "tempo": 120.0
            },
            {
                "start_time": 51.5840909,
                "end_time": 51.65,
                "pitch": 68,
                "velocity": 80,
                "duration": 0.0659091,
                "tempo": 120.0
            },
            {
                "start_time": 51.6704545,
                "end_time": 51.7340909,
                "pitch": 64,
                "velocity": 80,
                "duration": 0.0636364,
                "tempo": 120.0
            },
            {
                "start_time": 51.7522727,
                "end_time": 51.8181818,
                "pitch": 61,
                "velocity": 80,
                "duration": 0.0659091,
                "tempo": 120.0
            },
            {
                "start_time": 51.8386364,
                "end_time": 51.9,
                "pitch": 71,
                "velocity": 80,
                "duration": 0.0613636,
                "tempo": 120.0
            },
            {
                "start_time": 51.9204545,
                "end_time": 51.9840909,
                "pitch": 68,
                "velocity": 80,
                "duration": 0.0636364,
                "tempo": 120.0
            },
            {
                "start_time": 52.0113636,
                "end_time": 52.0681818,
                "pitch": 64,
                "velocity": 80,
                "duration": 0.0568182,
                "tempo": 120.0
            },
            {
                "start_time": 52.0886364,
                "end_time": 52.1522727,
                "pitch": 61,
                "velocity": 80,
                "duration": 0.0636364,
                "tempo": 120.0
            },
            {
                "start_time": 52.1772727,
                "end_time": 52.2386364,
                "pitch": 71,
                "velocity": 80,
                "duration": 0.0613636,
                "tempo": 120.0
            },
            {
                "start_time": 52.2568182,
                "end_time": 52.325,
                "pitch": 68,
                "velocity": 80,
                "duration": 0.0681818,
                "tempo": 120.0
            },
            {
                "start_time": 52.3454545,
                "end_time": 52.4113636,
                "pitch": 64,
                "velocity": 80,
                "duration": 0.0659091,
                "tempo": 120.0
            },
            {
                "start_time": 52.4295455,
                "end_time": 52.4954545,
                "pitch": 61,
                "velocity": 80,
                "duration": 0.0659091,
                "tempo": 120.0
            },
            {
                "start_time": 52.5227273,
                "end_time": 52.5818182,
                "pitch": 71,
                "velocity": 80,
                "duration": 0.0590909,
                "tempo": 120.0
            },
            {
                "start_time": 52.6,
                "end_time": 52.6659091,
                "pitch": 68,
                "velocity": 80,
                "duration": 0.0659091,
                "tempo": 120.0
            },
            {
                "start_time": 52.6909091,
                "end_time": 52.7477273,
                "pitch": 64,
                "velocity": 80,
                "duration": 0.0568182,
                "tempo": 120.0
            },
            {
                "start_time": 52.7681818,
                "end_time": 52.8318182,
                "pitch": 61,
                "velocity": 80,
                "duration": 0.0636364,
                "tempo": 120.0
            },
            {
                "start_time": 52.8545455,
                "end_time": 52.9159091,
                "pitch": 71,
                "velocity": 80,
                "duration": 0.0613636,
                "tempo": 120.0
            },
            {
                "start_time": 52.9363636,
                "end_time": 53.0,
                "pitch": 68,
                "velocity": 80,
                "duration": 0.0636364,
                "tempo": 120.0
            },
            {
                "start_time": 53.025,
                "end_time": 53.0840909,
                "pitch": 64,
                "velocity": 80,
                "duration": 0.0590909,
                "tempo": 120.0
            },
            {
                "start_time": 53.1022727,
                "end_time": 53.1681818,
                "pitch": 61,
                "velocity": 80,
                "duration": 0.0659091,
                "tempo": 120.0
            },
            {
                "start_time": 53.1886364,
                "end_time": 53.2522727,
                "pitch": 71,
                "velocity": 80,
                "duration": 0.0636364,
                "tempo": 120.0
            },
            {
                "start_time": 53.2704545,
                "end_time": 53.3363636,
                "pitch": 68,
                "velocity": 80,
                "duration": 0.0659091,
                "tempo": 120.0
            },
            {
                "start_time": 53.3613636,
                "end_time": 53.4204545,
                "pitch": 64,
                "velocity": 80,
                "duration": 0.0590909,
                "tempo": 120.0
            },
            {
                "start_time": 53.4386364,
                "end_time": 53.5022727,
                "pitch": 61,
                "velocity": 80,
                "duration": 0.0636364,
                "tempo": 120.0
            },
            {
                "start_time": 53.5272727,
                "end_time": 53.5886364,
                "pitch": 71,
                "velocity": 80,
                "duration": 0.0613636,
                "tempo": 120.0
            },
            {
                "start_time": 53.6090909,
                "end_time": 53.675,
                "pitch": 68,
                "velocity": 80,
                "duration": 0.0659091,
                "tempo": 120.0
            },
            {
                "start_time": 53.6977273,
                "end_time": 53.7613636,
                "pitch": 64,
                "velocity": 80,
                "duration": 0.0636364,
                "tempo": 120.0
            },
            {
                "start_time": 53.7818182,
                "end_time": 53.8477273,
                "pitch": 61,
                "velocity": 80,
                "duration": 0.0659091,
                "tempo": 120.0
            },
            {
                "start_time": 53.875,
                "end_time": 53.9340909,
                "pitch": 71,
                "velocity": 80,
                "duration": 0.0590909,
                "tempo": 120.0
            },
            {
                "start_time": 53.9545455,
                "end_time": 54.0204545,
                "pitch": 68,
                "velocity": 80,
                "duration": 0.0659091,
                "tempo": 120.0
            },
            {
                "start_time": 54.0454545,
                "end_time": 54.1068182,
                "pitch": 64,
                "velocity": 80,
                "duration": 0.0613636,
                "tempo": 120.0
            },
            {
                "start_time": 54.125,
                "end_time": 54.1931818,
                "pitch": 61,
                "velocity": 80,
                "duration": 0.0681818,
                "tempo": 120.0
            },
            {
                "start_time": 54.2204545,
                "end_time": 54.6431818,
                "pitch": 63,
                "velocity": 80,
                "duration": 0.4227273,
                "tempo": 120.0
            },
            {
                "start_time": 54.7181818,
                "end_time": 55.1454545,
                "pitch": 60,
                "velocity": 80,
                "duration": 0.4272727,
                "tempo": 120.0
            },
            {
                "start_time": 55.225,
                "end_time": 55.525,
                "pitch": 63,
                "velocity": 80,
                "duration": 0.3,
                "tempo": 120.0
            },
            {
                "start_time": 55.5704545,
                "end_time": 56.0022727,
                "pitch": 65,
                "velocity": 80,
                "duration": 0.4318182,
                "tempo": 120.0
            },
            {
                "start_time": 56.0772727,
                "end_time": 56.5045455,
                "pitch": 62,
                "velocity": 80,
                "duration": 0.4272727,
                "tempo": 120.0
            },
            {
                "start_time": 56.5840909,
                "end_time": 56.8840909,
                "pitch": 65,
                "velocity": 80,
                "duration": 0.3,
                "tempo": 120.0
            },
            {
                "start_time": 56.9295455,
                "end_time": 57.3568182,
                "pitch": 66,
                "velocity": 80,
                "duration": 0.4272727,
                "tempo": 120.0
            },
            {
                "start_time": 57.4295455,
                "end_time": 57.8590909,
                "pitch": 63,
                "velocity": 80,
                "duration": 0.4295455,
                "tempo": 120.0
            },
            {
                "start_time": 57.9409091,
                "end_time": 58.2340909,
                "pitch": 66,
                "velocity": 80,
                "duration": 0.2931818,
                "tempo": 120.0
            },
            {
                "start_time": 58.2727273,
                "end_time": 58.4340909,
                "pitch": 66,
                "velocity": 4,
                "duration": 0.1613636,
                "tempo": 120.0
            },
            {
                "start_time": 58.4340909,
                "end_time": 58.575,
                "pitch": 60,
                "velocity": 4,
                "duration": 0.1409091,
                "tempo": 120.0
            },
            {
                "start_time": 58.4363636,
                "end_time": 58.575,
                "pitch": 60,
                "velocity": 80,
                "duration": 0.1386364,
                "tempo": 120.0
            },
            {
                "start_time": 58.5954545,
                "end_time": 58.75,
                "pitch": 61,
                "velocity": 80,
                "duration": 0.1545455,
                "tempo": 120.0
            },
            {
                "start_time": 58.7772727,
                "end_time": 58.9272727,
                "pitch": 63,
                "velocity": 80,
                "duration": 0.15,
                "tempo": 120.0
            },
            {
                "start_time": 58.9522727,
                "end_time": 59.0954545,
                "pitch": 65,
                "velocity": 80,
                "duration": 0.1431818,
                "tempo": 120.0
            },
            {
                "start_time": 59.1181818,
                "end_time": 59.2636364,
                "pitch": 66,
                "velocity": 80,
                "duration": 0.1454545,
                "tempo": 120.0
            },
            {
                "start_time": 59.2909091,
                "end_time": 59.4363636,
                "pitch": 68,
                "velocity": 80,
                "duration": 0.1454545,
                "tempo": 120.0
            },
            {
                "start_time": 59.4613636,
                "end_time": 59.6090909,
                "pitch": 70,
                "velocity": 80,
                "duration": 0.1477273,
                "tempo": 120.0
            },
            {
                "start_time": 59.6272727,
                "end_time": 59.8068182,
                "pitch": 70,
                "velocity": 4,
                "duration": 0.1795455,
                "tempo": 120.0
            },
            {
                "start_time": 59.8090909,
                "end_time": 59.9522727,
                "pitch": 69,
                "velocity": 80,
                "duration": 0.1431818,
                "tempo": 120.0
            },
            {
                "start_time": 59.9818182,
                "end_time": 60.1227273,
                "pitch": 69,
                "velocity": 80,
                "duration": 0.1409091,
                "tempo": 120.0
            },
            {
                "start_time": 60.1409091,
                "end_time": 60.3159091,
                "pitch": 69,
                "velocity": 4,
                "duration": 0.175,
                "tempo": 120.0
            },
            {
                "start_time": 60.3159091,
                "end_time": 60.4568182,
                "pitch": 69,
                "velocity": 80,
                "duration": 0.1409091,
                "tempo": 120.0
            },
            {
                "start_time": 60.4772727,
                "end_time": 60.65,
                "pitch": 69,
                "velocity": 4,
                "duration": 0.1727273,
                "tempo": 120.0
            },
            {
                "start_time": 60.65,
                "end_time": 60.7886364,
                "pitch": 69,
                "velocity": 80,
                "duration": 0.1386364,
                "tempo": 120.0
            },
            {
                "start_time": 60.8159091,
                "end_time": 60.95,
                "pitch": 69,
                "velocity": 80,
                "duration": 0.1340909,
                "tempo": 120.0
            },
            {
                "start_time": 60.9704545,
                "end_time": 62.3136364,
                "pitch": 69,
                "velocity": 4,
                "duration": 1.3431818,
                "tempo": 120.0
            }
        ]
    }
}