{
    "mood": "happy",
    "instruments": {
        "Electric Piano 1": [
            {
                "start_time": 38.6159091,
                "end_time": 39.2181818,
                "pitch": 60,
                "velocity": 51,
                "duration": 0.6022727,
                "tempo": 120.0
            },
            {
                "start_time": 39.2181818,
                "end_time": 39.8181818,
                "pitch": 60,
                "velocity": 51,
                "duration": 0.6,
                "tempo": 120.0
            },
            {
                "start_time": 39.8181818,
                "end_time": 40.2181818,
                "pitch": 60,
                "velocity": 51,
                "duration": 0.4,
                "tempo": 120.0
            },
            {
                "start_time": 40.2204545,
                "end_time": 40.8272727,
                "pitch": 60,
                "velocity": 51,
                "duration": 0.6068182,
                "tempo": 120.0
            },
            {
                "start_time": 40.8272727,
                "end_time": 41.4227273,
                "pitch": 60,
                "velocity": 51,
                "duration": 0.5954545,
                "tempo": 120.0
            },
            {
                "start_time": 41.4227273,
                "end_time": 41.825,
                "pitch": 60,
                "velocity": 51,
                "duration": 0.4022727,
                "tempo": 120.0
            },
            {
                "start_time": 41.825,
                "end_time": 42.4318182,
                "pitch": 60,
                "velocity": 51,
                "duration": 0.6068182,
                "tempo": 120.0
            },
            {
                "start_time": 42.4318182,
                "end_time": 43.0318182,
                "pitch": 60,
                "velocity": 51,
                "duration": 0.6,
                "tempo": 120.0
            },
            {
                "start_time": 43.0318182,
                "end_time": 43.4318182,
                "pitch": 60,
                "velocity": 51,
                "duration": 0.4,
                "tempo": 120.0
            },
            {
                "start_time": 43.4318182,
                "end_time": 44.0386364,
                "pitch": 60,
                "velocity": 51,
                "duration": 0.6068182,
                "tempo": 120.0
            },
            {
                "start_time": 44.0386364,
                "end_time": 44.6363636,
                "pitch": 60,
                "velocity": 51,
                "duration": 0.5977273,
                "tempo": 120.0
            },
            {
                "start_time": 44.6363636,
                "end_time": 45.0409091,
                "pitch": 60,
                "velocity": 51,
                "duration": 0.4045455,
                "tempo": 120.0
            },
            {
                "start_time": 45.0409091,
                "end_time": 45.6522727,
                "pitch": 60,
                "velocity": 51,
                "duration": 0.6113636,
                "tempo": 120.0
            },
            {
                "start_time": 45.6522727,
                "end_time": 46.2522727,
                "pitch": 60,
                "velocity": 51,
                "duration": 0.6,
                "tempo": 120.0
            },
            {
                "start_time": 46.2522727,
                "end_time": 46.6636364,
                "pitch": 60,
                "velocity": 51,
                "duration": 0.4113636,
                "tempo": 120.0
            },
            {
                "start_time": 46.6636364,
                "end_time": 47.2568182,
                "pitch": 60,
                "velocity": 51,
                "duration": 0.5931818,
                "tempo": 120.0
            },
            {
                "start_time": 47.2568182,
                "end_time": 47.8568182,
                "pitch": 60,
                "velocity": 51,
                "duration": 0.6,
                "tempo": 120.0
            },
            {
                "start_time": 47.8568182,
                "end_time": 48.2568182,
                "pitch": 60,
                "velocity": 51,
                "duration": 0.4,
                "tempo": 120.0
            },
            {
                "start_time": 48.2590909,
                "end_time": 48.8659091,
                "pitch": 60,
                "velocity": 51,
                "duration": 0.6068182,
                "tempo": 120.0
            },
            {
                "start_time": 48.8659091,
                "end_time": 49.4613636,
                "pitch": 60,
                "velocity": 51,
                "duration": 0.5954545,
                "tempo": 120.0
            },
            {
                "start_time": 49.4613636,
                "end_time": 49.8636364,
                "pitch": 60,
                "velocity": 51,
                "duration": 0.4022727,
                "tempo": 120.0
            },
            {
                "start_time": 49.8636364,
                "end_time": 50.475,
                "pitch": 60,
                "velocity": 51,
                "duration": 0.6113636,
                "tempo": 120.0
            },
            {
                "start_time": 50.475,
                "end_time": 51.075,
                "pitch": 60,
                "velocity": 51,
                "duration": 0.6,
                "tempo": 120.0
            },
            {
                "start_time": 51.075,
                "end_time": 51.475,
                "pitch": 60,
                "velocity": 51,
                "duration": 0.4,
                "tempo": 120.0
            }
        ],
        "Oboe": [
            {
                "start_time": 25.7545455,
                "end_time": 26.3659091,
                "pitch": 51,
                "velocity": 80,
                "duration": 0.6113636,
                "tempo": 120.0
            },
            {
                "start_time": 26.3659091,
                "end_time": 26.5659091,
                "pitch": 56,
                "velocity": 80,
                "duration": 0.2,
                "tempo": 120.0
            },
            {
                "start_time": 26.5659091,
                "end_time": 27.1704545,
                "pitch": 60,
                "velocity": 80,
                "duration": 0.6045455,
                "tempo": 120.0
            },
            {
                "start_time": 27.1704545,
                "end_time": 27.3704545,
                "pitch": 56,
                "velocity": 80,
                "duration": 0.2,
                "tempo": 120.0
            },
            {
                "start_time": 27.3704545,
                "end_time": 27.9727273,
                "pitch": 68,
                "velocity": 80,
                "duration": 0.6022727,
                "tempo": 120.0
            },
            {
                "start_time": 27.9727273,
                "end_time": 28.1727273,
                "pitch": 67,
                "velocity": 80,
                "duration": 0.2,
                "tempo": 120.0
            },
            {
                "start_time": 28.175,
                "end_time": 28.575,
                "pitch": 65,
                "velocity": 80,
                "duration": 0.4,
                "tempo": 120.0
            },
            {
                "start_time": 28.575,
                "end_time": 28.9772727,
                "pitch": 63,
                "velocity": 80,
                "duration": 0.4022727,
                "tempo": 120.0
            },
            {
                "start_time": 28.9772727,
                "end_time": 30.1818182,
                "pitch": 62,
                "velocity": 80,
                "duration": 1.2045455,
                "tempo": 120.0
            },
            {
                "start_time": 30.1818182,
                "end_time": 30.5818182,
                "pitch": 65,
                "velocity": 80,
                "duration": 0.4,
                "tempo": 120.0
            },
            {
                "start_time": 30.5840909,
                "end_time": 31.3863636,
                "pitch": 63,
                "velocity": 80,
                "duration": 0.8022727,
                "tempo": 120.0
            },
            {
                "start_time": 31.3863636,
                "end_time": 32.1977273,
                "pitch": 62,
                "velocity": 80,
                "duration": 0.8113636,
                "tempo": 120.0
            },
            {
                "start_time": 32.1977273,
                "end_time": 32.8,
                "pitch": 51,
                "velocity": 80,
                "duration": 0.6022727,
                "tempo": 120.0
            },
            {
                "start_time": 32.8,
                "end_time": 33.0022727,
                "pitch": 56,
                "velocity": 80,
                "duration": 0.2022727,
                "tempo": 120.0
            },
            {
                "start_time": 33.0022727,
                "end_time": 33.6022727,
                "pitch": 60,
                "velocity": 80,
                "duration": 0.6,
                "tempo": 120.0
            },
            {
                "start_time": 33.6022727,
                "end_time": 33.8045455,
                "pitch": 56,
                "velocity": 80,
                "duration": 0.2022727,
                "tempo": 120.0
            },
            {
                "start_time": 33.8045455,
                "end_time": 34.4045455,
                "pitch": 68,
                "velocity": 80,
                "duration": 0.6,
                "tempo": 120.0
            },
            {
                "start_time": 34.4045455,
                "end_time": 34.6045455,
                "pitch": 67,
                "velocity": 80,
                "duration": 0.2,
                "tempo": 120.0
            },
            {
                "start_time": 34.6045455,
                "end_time": 35.0068182,
                "pitch": 65,
                "velocity": 80,
                "duration": 0.4022727,
                "tempo": 120.0
            },
            {
                "start_time": 35.0068182,
                "end_time": 35.4090909,
                "pitch": 63,
                "velocity": 80,
                "duration": 0.4022727,
                "tempo": 120.0
            },
            {
                "start_time": 35.4090909,
                "end_time": 36.6090909,
                "pitch": 62,
                "velocity": 80,
                "duration": 1.2,
                "tempo": 120.0
            },
            {
                "start_time": 36.6090909,
                "end_time": 37.0136364,
                "pitch": 65,
                "velocity": 80,
                "duration": 0.4045455,
                "tempo": 120.0
            },
            {
                "start_time": 37.0136364,
                "end_time": 37.8136364,
                "pitch": 68,
                "velocity": 80,
                "duration": 0.8,
                "tempo": 120.0
            },
            {
                "start_time": 37.8136364,
                "end_time": 38.6159091,
                "pitch": 70,
                "velocity": 80,
                "duration": 0.8022727,
                "tempo": 120.0
            }
        ],
        "Acoustic Grand Piano": [
            {
                "start_time": 38.6159091,
                "end_time": 38.7136364,
                "pitch": 79,
                "velocity": 80,
                "duration": 0.0977273,
                "tempo": 120.0
            },
            {
                "start_time": 38.7136364,
                "end_time": 38.8159091,
                "pitch": 76,
                "velocity": 80,
                "duration": 0.1022727,
                "tempo": 120.0
            },
            {
                "start_time": 38.8159091,
                "end_time": 38.9159091,
                "pitch": 72,
                "velocity": 80,
                "duration": 0.1,
                "tempo": 120.0
            },
            {
                "start_time": 38.9159091,
                "end_time": 39.0159091,
                "pitch": 79,
                "velocity": 80,
                "duration": 0.1,
                "tempo": 120.0
            },
            {
                "start_time": 39.0181818,
                "end_time": 39.1159091,
                "pitch": 76,
                "velocity": 80,
                "duration": 0.0977273,
                "tempo": 120.0
            },
            {
                "start_time": 39.1159091,
                "end_time": 39.2181818,
                "pitch": 72,
                "velocity": 80,
                "duration": 0.1022727,
                "tempo": 120.0
            },
            {
                "start_time": 39.2181818,
                "end_time": 39.3159091,
                "pitch": 79,
                "velocity": 80,
                "duration": 0.0977273,
                "tempo": 120.0
            },
            {
                "start_time": 39.3181818,
                "end_time": 39.4181818,
                "pitch": 76,
                "velocity": 80,
                "duration": 0.1,
                "tempo": 120.0
            },
            {
                "start_time": 39.4181818,
                "end_time": 39.5181818,
                "pitch": 79,
                "velocity": 80,
                "duration": 0.1,
                "tempo": 120.0
            },
            {
                "start_time": 39.5181818,
                "end_time": 39.6181818,
                "pitch": 76,
                "velocity": 80,
                "duration": 0.1,
                "tempo": 120.0
            },
            {
                "start_time": 39.6181818,
                "end_time": 39.7181818,
                "pitch": 72,
                "velocity": 80,
                "duration": 0.1,
                "tempo": 120.0
            },
            {
                "start_time": 39.7181818,
                "end_time": 39.8181818,
                "pitch": 79,
                "velocity": 80,
                "duration": 0.1,
                "tempo": 120.0
            },
            {
                "start_time": 39.8181818,
                "end_time": 39.9181818,
                "pitch": 76,
                "velocity": 80,
                "duration": 0.1,
                "tempo": 120.0
            },
            {
                "start_time": 39.9181818,
                "end_time": 40.0181818,
                "pitch": 72,
                "velocity": 80,
                "duration": 0.1,
                "tempo": 120.0
            },
            {
                "start_time": 40.0181818,
                "end_time": 40.1181818,
                "pitch": 79,
                "velocity": 80,
                "duration": 0.1,
                "tempo": 120.0
            },
            {
                "start_time": 40.1181818,
                "end_time": 40.2181818,
                "pitch": 76,
                "velocity": 80,
                "duration": 0.1,
                "tempo": 120.0
            },
            {
                "start_time": 40.2181818,
                "end_time": 40.3204545,
                "pitch": 82,
                "velocity": 80,
                "duration": 0.1022727,
                "tempo": 120.0
            },
            {
                "start_time": 40.3204545,
                "end_time": 40.425,
                "pitch": 77,
                "velocity": 80,
                "duration": 0.1045455,
                "tempo": 120.0
            },
            {
                "start_time": 40.425,
                "end_time": 40.5272727,
                "pitch": 74,
                "velocity": 80,
                "duration": 0.1022727,
                "tempo": 120.0
            },
            {
                "start_time": 40.5272727,
                "end_time": 40.6295455,
                "pitch": 82,
                "velocity": 80,
                "duration": 0.1022727,
                "tempo": 120.0
            },
            {
                "start_time": 40.6295455,
                "end_time": 40.7272727,
                "pitch": 77,
                "velocity": 80,
                "duration": 0.0977273,
                "tempo": 120.0
            },
            {
                "start_time": 40.7272727,
                "end_time": 40.825,
                "pitch": 74,
                "velocity": 80,
                "duration": 0.0977273,
                "tempo": 120.0
            },
            {
                "start_time": 40.8272727,
                "end_time": 40.9227273,
                "pitch": 82,
                "velocity": 80,
                "duration": 0.0954545,
                "tempo": 120.0
            },
            {
                "start_time": 40.925,
                "end_time": 41.0227273,
                "pitch": 77,
                "velocity": 80,
                "duration": 0.0977273,
                "tempo": 120.0
            },
            {
                "start_time": 41.0227273,
                "end_time": 41.1227273,
                "pitch": 82,
                "velocity": 80,
                "duration": 0.1,
                "tempo": 120.0
            },
            {
                "start_time": 41.1227273,
                "end_time": 41.2227273,
                "pitch": 77,
                "velocity": 80,
                "duration": 0.1,
                "tempo": 120.0
            },
            {
                "start_time": 41.2227273,
                "end_time": 41.3227273,
                "pitch": 74,
                "velocity": 80,
                "duration": 0.1,
                "tempo": 120.0
            },
            {
                "start_time": 41.3227273,
                "end_time": 41.4227273,
                "pitch": 82,
                "velocity": 80,
                "duration": 0.1,
                "tempo": 120.0
            },
            {
                "start_time": 41.4227273,
                "end_time": 41.5227273,
                "pitch": 77,
                "velocity": 80,
                "duration": 0.1,
                "tempo": 120.0
            },
            {
                "start_time": 41.5227273,
                "end_time": 41.6227273,
                "pitch": 74,
                "velocity": 80,
                "duration": 0.1,
                "tempo": 120.0
            },
            {
                "start_time": 41.6227273,
                "end_time": 41.7227273,
                "pitch": 82,
                "velocity": 80,
                "duration": 0.1,
                "tempo": 120.0
            },
            {
                "start_time": 41.7227273,
                "end_time": 41.8227273,
                "pitch": 77,
                "velocity": 80,
                "duration": 0.1,
                "tempo": 120.0
            },
            {
                "start_time": 41.825,
                "end_time": 41.925,
                "pitch": 84,
                "velocity": 80,
                "duration": 0.1,
                "tempo": 120.0
            },
            {
                "start_time": 41.9272727,
                "end_time": 42.0295455,
                "pitch": 79,
                "velocity": 80,
                "duration": 0.1022727,
                "tempo": 120.0
            },
            {
                "start_time": 42.0295455,
                "end_time": 42.1318182,
                "pitch": 76,
                "velocity": 80,
                "duration": 0.1022727,
                "tempo": 120.0
            },
            {
                "start_time": 42.1318182,
                "end_time": 42.2340909,
                "pitch": 84,
                "velocity": 80,
                "duration": 0.1022727,
                "tempo": 120.0
            },
            {
                "start_time": 42.2340909,
                "end_time": 42.3318182,
                "pitch": 79,
                "velocity": 80,
                "duration": 0.0977273,
                "tempo": 120.0
            },
            {
                "start_time": 42.3318182,
                "end_time": 42.4318182,
                "pitch": 76,
                "velocity": 80,
                "duration": 0.1,
                "tempo": 120.0
            },
            {
                "start_time": 42.4318182,
                "end_time": 42.5295455,
                "pitch": 84,
                "velocity": 80,
                "duration": 0.0977273,
                "tempo": 120.0
            },
            {
                "start_time": 42.5295455,
                "end_time": 42.6272727,
                "pitch": 79,
                "velocity": 80,
                "duration": 0.0977273,
                "tempo": 120.0
            },
            {
                "start_time": 42.6272727,
                "end_time": 42.7272727,
                "pitch": 84,
                "velocity": 80,
                "duration": 0.1,
                "tempo": 120.0
            },
            {
                "start_time": 42.7272727,
                "end_time": 42.8295455,
                "pitch": 79,
                "velocity": 80,
                "duration": 0.1022727,
                "tempo": 120.0
            },
            {
                "start_time": 42.8295455,
                "end_time": 42.9295455,
                "pitch": 76,
                "velocity": 80,
                "duration": 0.1,
                "tempo": 120.0
            },
            {
                "start_time": 42.9295455,
                "end_time": 43.0318182,
                "pitch": 84,
                "velocity": 80,
                "duration": 0.1022727,
                "tempo": 120.0
            },
            {
                "start_time": 43.0318182,
                "end_time": 43.1295455,
                "pitch": 79,
                "velocity": 80,
                "duration": 0.0977273,
                "tempo": 120.0
            },
            {
                "start_time": 43.1295455,
                "end_time": 43.2318182,
                "pitch": 76,
                "velocity": 80,
                "duration": 0.1022727,
                "tempo": 120.0
            },
            {
                "start_time": 43.2318182,
                "end_time": 43.3318182,
                "pitch": 84,
                "velocity": 80,
                "duration": 0.1,
                "tempo": 120.0
            },
            {
                "start_time": 43.3318182,
                "end_time": 43.4318182,
                "pitch": 79,
                "velocity": 80,
                "duration": 0.1,
                "tempo": 120.0
            },
            {
                "start_time": 43.4318182,
                "end_time": 43.5340909,
                "pitch": 88,
                "velocity": 80,
                "duration": 0.1022727,
                "tempo": 120.0
            },
            {
                "start_time": 43.5340909,
                "end_time": 43.6363636,
                "pitch": 84,
                "velocity": 80,
                "duration": 0.1022727,
                "tempo": 120.0
            },
            {
                "start_time": 43.6363636,
                "end_time": 43.7386364,
                "pitch": 79,
                "velocity": 80,
                "duration": 0.1022727,
                "tempo": 120.0
            },
            {
                "start_time": 43.7386364,
                "end_time": 43.8431818,
                "pitch": 88,
                "velocity": 80,
                "duration": 0.1045455,
                "tempo": 120.0
            },
            {
                "start_time": 43.8431818,
                "end_time": 43.9409091,
                "pitch": 84,
                "velocity": 80,
                "duration": 0.0977273,
                "tempo": 120.0
            },
            {
                "start_time": 43.9409091,
                "end_time": 44.0386364,
                "pitch": 79,
                "velocity": 80,
                "duration": 0.0977273,
                "tempo": 120.0
            },
            {
                "start_time": 44.0386364,
                "end_time": 44.1363636,
                "pitch": 88,
                "velocity": 80,
                "duration": 0.0977273,
                "tempo": 120.0
            },
            {
                "start_time": 44.1363636,
                "end_time": 44.2340909,
                "pitch": 84,
                "velocity": 80,
                "duration": 0.0977273,
                "tempo": 120.0
            },
            {
                "start_time": 44.2363636,
                "end_time": 44.3340909,
                "pitch": 88,
                "velocity": 80,
                "duration": 0.0977273,
                "tempo": 120.0
            },
            {
                "start_time": 44.3340909,
                "end_time": 44.4363636,
                "pitch": 84,
                "velocity": 80,
                "duration": 0.1022727,
                "tempo": 120.0
            },
            {
                "start_time": 44.4363636,
                "end_time": 44.5340909,
                "pitch": 79,
                "velocity": 80,
                "duration": 0.0977273,
                "tempo": 120.0
            },
            {
                "start_time": 44.5363636,
                "end_time": 44.6363636,
                "pitch": 88,
                "velocity": 80,
                "duration": 0.1,
                "tempo": 120.0
            },
            {
                "start_time": 44.6363636,
                "end_time": 44.7363636,
                "pitch": 84,
                "velocity": 80,
                "duration": 0.1,
                "tempo": 120.0
            },
            {
                "start_time": 44.7363636,
                "end_time": 44.8363636,
                "pitch": 79,
                "velocity": 80,
                "duration": 0.1,
                "tempo": 120.0
            },
            {
                "start_time": 44.8386364,
                "end_time": 44.9386364,
                "pitch": 88,
                "velocity": 80,
                "duration": 0.1,
                "tempo": 120.0
            },
            {
                "start_time": 44.9386364,
                "end_time": 45.0386364,
                "pitch": 84,
                "velocity": 80,
                "duration": 0.1,
                "tempo": 120.0
            },
            {
                "start_time": 45.0386364,
                "end_time": 45.1409091,
                "pitch": 79,
                "velocity": 80,
                "duration": 0.1022727,
                "tempo": 120.0
            },
            {
                "start_time": 45.1409091,
                "end_time": 45.2454545,
                "pitch": 76,
                "velocity": 80,
                "duration": 0.1045455,
                "tempo": 120.0
            },
            {
                "start_time": 45.2454545,
                "end_time": 45.3477273,
                "pitch": 72,
                "velocity": 80,
                "duration": 0.1022727,
                "tempo": 120.0
            },
            {
                "start_time": 45.3477273,
                "end_time": 45.45,
                "pitch": 79,
                "velocity": 80,
                "duration": 0.1022727,
                "tempo": 120.0
            },
            {
                "start_time": 45.45,
                "end_time": 45.55,
                "pitch": 76,
                "velocity": 80,
                "duration": 0.1,
                "tempo": 120.0
            },
            {
                "start_time": 45.55,
                "end_time": 45.65,
                "pitch": 72,
                "velocity": 80,
                "duration": 0.1,
                "tempo": 120.0
            },
            {
                "start_time": 45.65,
                "end_time": 45.75,
                "pitch": 79,
                "velocity": 80,
                "duration": 0.1,
                "tempo": 120.0
            },
            {
                "start_time": 45.75,
                "end_time": 45.85,
                "pitch": 76,
                "velocity": 80,
                "duration": 0.1,
                "tempo": 120.0
            },
            {
                "start_time": 45.8522727,
                "end_time": 45.95,
                "pitch": 79,
                "velocity": 80,
                "duration": 0.0977273,
                "tempo": 120.0
            },
            {
                "start_time": 45.95,
                "end_time": 46.0522727,
                "pitch": 76,
                "velocity": 80,
                "duration": 0.1022727,
                "tempo": 120.0
            },
            {
                "start_time": 46.0522727,
                "end_time": 46.15,
                "pitch": 72,
                "velocity": 80,
                "duration": 0.0977273,
                "tempo": 120.0
            },
            {
                "start_time": 46.1522727,
                "end_time": 46.2522727,
                "pitch": 79,
                "velocity": 80,
                "duration": 0.1,
                "tempo": 120.0
            },
            {
                "start_time": 46.2522727,
                "end_time": 46.3545455,
                "pitch": 76,
                "velocity": 80,
                "duration": 0.1022727,
                "tempo": 120.0
            },
            {
                "start_time": 46.3545455,
                "end_time": 46.4568182,
                "pitch": 72,
                "velocity": 80,
                "duration": 0.1022727,
                "tempo": 120.0
            },
            {
                "start_time": 46.4568182,
                "end_time": 46.5590909,
                "pitch": 79,
                "velocity": 80,
                "duration": 0.1022727,
                "tempo": 120.0
            },
            {
                "start_time": 46.5590909,
                "end_time": 46.6636364,
                "pitch": 76,
                "velocity": 80,
                "duration": 0.1045455,
                "tempo": 120.0
            },
            {
                "start_time": 46.6636364,
                "end_time": 46.7613636,
                "pitch": 82,
                "velocity": 80,
                "duration": 0.0977273,
                "tempo": 120.0
            },
            {
                "start_time": 46.7613636,
                "end_time": 46.8590909,
                "pitch": 77,
                "velocity": 80,
                "duration": 0.0977273,
                "tempo": 120.0
            },
            {
                "start_time": 46.8590909,
                "end_time": 46.9568182,
                "pitch": 74,
                "velocity": 80,
                "duration": 0.0977273,
                "tempo": 120.0
            },
            {
                "start_time": 46.9568182,
                "end_time": 47.0545455,
                "pitch": 82,
                "velocity": 80,
                "duration": 0.0977273,
                "tempo": 120.0
            },
            {
                "start_time": 47.0568182,
                "end_time": 47.1545455,
                "pitch": 77,
                "velocity": 80,
                "duration": 0.0977273,
                "tempo": 120.0
            },
            {
                "start_time": 47.1545455,
                "end_time": 47.2568182,
                "pitch": 74,
                "velocity": 80,
                "duration": 0.1022727,
                "tempo": 120.0
            },
            {
                "start_time": 47.2568182,
                "end_time": 47.3545455,
                "pitch": 82,
                "velocity": 80,
                "duration": 0.0977273,
                "tempo": 120.0
            },
            {
                "start_time": 47.3568182,
                "end_time": 47.4568182,
                "pitch": 77,
                "velocity": 80,
                "duration": 0.1,
                "tempo": 120.0
            },
            {
                "start_time": 47.4568182,
                "end_time": 47.5568182,
                "pitch": 82,
                "velocity": 80,
                "duration": 0.1,
                "tempo": 120.0
            },
            {
                "start_time": 47.5568182,
                "end_time": 47.6568182,
                "pitch": 77,
                "velocity": 80,
                "duration": 0.1,
                "tempo": 120.0
            },
            {
                "start_time": 47.6568182,
                "end_time": 47.7568182,
                "pitch": 74,
                "velocity": 80,
                "duration": 0.1,
                "tempo": 120.0
            },
            {
                "start_time": 47.7568182,
                "end_time": 47.8568182,
                "pitch": 82,
                "velocity": 80,
                "duration": 0.1,
                "tempo": 120.0
            },
            {
                "start_time": 47.8568182,
                "end_time": 47.9568182,
                "pitch": 77,
                "velocity": 80,
                "duration": 0.1,
                "tempo": 120.0
            },
            {
                "start_time": 47.9568182,
                "end_time": 48.0568182,
                "pitch": 74,
                "velocity": 80,
                "duration": 0.1,
                "tempo": 120.0
            },
            {
                "start_time": 48.0568182,
                "end_time": 48.1568182,
                "pitch": 82,
                "velocity": 80,
                "duration": 0.1,
                "tempo": 120.0
            },
            {
                "start_time": 48.1568182,
                "end_time": 48.2568182,
                "pitch": 77,
                "velocity": 80,
                "duration": 0.1,
                "tempo": 120.0
            },
            {
                "start_time": 48.2568182,
                "end_time": 48.3590909,
                "pitch": 84,
                "velocity": 80,
                "duration": 0.1022727,
                "tempo": 120.0
            },
            {
                "start_time": 48.3590909,
                "end_time": 48.4636364,
                "pitch": 79,
                "velocity": 80,
                "duration": 0.1045455,
                "tempo": 120.0
            },
            {
                "start_time": 48.4636364,
                "end_time": 48.5659091,
                "pitch": 76,
                "velocity": 80,
                "duration": 0.1022727,
                "tempo": 120.0
            },
            {
                "start_time": 48.5659091,
                "end_time": 48.6681818,
                "pitch": 84,
                "velocity": 80,
                "duration": 0.1022727,
                "tempo": 120.0
            },
            {
                "start_time": 48.6681818,
                "end_time": 48.7659091,
                "pitch": 79,
                "velocity": 80,
                "duration": 0.0977273,
                "tempo": 120.0
            },
            {
                "start_time": 48.7659091,
                "end_time": 48.8636364,
                "pitch": 76,
                "velocity": 80,
                "duration": 0.0977273,
                "tempo": 120.0
            },
            {
                "start_time": 48.8659091,
                "end_time": 48.9613636,
                "pitch": 84,
                "velocity": 80,
                "duration": 0.0954545,
                "tempo": 120.0
            },
            {
                "start_time": 48.9636364,
                "end_time": 49.0613636,
                "pitch": 79,
                "velocity": 80,
                "duration": 0.0977273,
                "tempo": 120.0
            },
            {
                "start_time": 49.0613636,
                "end_time": 49.1613636,
                "pitch": 84,
                "velocity": 80,
                "duration": 0.1,
                "tempo": 120.0
            },
            {
                "start_time": 49.1613636,
                "end_time": 49.2613636,
                "pitch": 79,
                "velocity": 80,
                "duration": 0.1,
                "tempo": 120.0
            },
            {
                "start_time": 49.2613636,
                "end_time": 49.3613636,
                "pitch": 76,
                "velocity": 80,
                "duration": 0.1,
                "tempo": 120.0
            },
            {
                "start_time": 49.3613636,
                "end_time": 49.4613636,
                "pitch": 84,
                "velocity": 80,
                "duration": 0.1,
                "tempo": 120.0
            },
            {
                "start_time": 49.4613636,
                "end_time": 49.5613636,
                "pitch": 79,
                "velocity": 80,
                "duration": 0.1,
                "tempo": 120.0
            },
            {
                "start_time": 49.5613636,
                "end_time": 49.6613636,
                "pitch": 76,
                "velocity": 80,
                "duration": 0.1,
                "tempo": 120.0
            },
            {
                "start_time": 49.6613636,
                "end_time": 49.7613636,
                "pitch": 84,
                "velocity": 80,
                "duration": 0.1,
                "tempo": 120.0
            },
            {
                "start_time": 49.7613636,
                "end_time": 49.8613636,
                "pitch": 79,
                "velocity": 80,
                "duration": 0.1,
                "tempo": 120.0
            },
            {
                "start_time": 49.8636364,
                "end_time": 49.9636364,
                "pitch": 88,
                "velocity": 80,
                "duration": 0.1,
                "tempo": 120.0
            },
            {
                "start_time": 49.9659091,
                "end_time": 50.0681818,
                "pitch": 84,
                "velocity": 80,
                "duration": 0.1022727,
                "tempo": 120.0
            },
            {
                "start_time": 50.0681818,
                "end_time": 50.1704545,
                "pitch": 79,
                "velocity": 80,
                "duration": 0.1022727,
                "tempo": 120.0
            },
            {
                "start_time": 50.1704545,
                "end_time": 50.2727273,
                "pitch": 84,
                "velocity": 80,
                "duration": 0.1022727,
                "tempo": 120.0
            },
            {
                "start_time": 50.275,
                "end_time": 50.3727273,
                "pitch": 79,
                "velocity": 80,
                "duration": 0.0977273,
                "tempo": 120.0
            },
            {
                "start_time": 50.3727273,
                "end_time": 50.475,
                "pitch": 76,
                "velocity": 80,
                "duration": 0.1022727,
                "tempo": 120.0
            },
            {
                "start_time": 50.475,
                "end_time": 50.5727273,
                "pitch": 79,
                "velocity": 80,
                "duration": 0.0977273,
                "tempo": 120.0
            },
            {
                "start_time": 50.575,
                "end_time": 50.675,
                "pitch": 76,
                "velocity": 80,
                "duration": 0.1,
                "tempo": 120.0
            },
            {
                "start_time": 50.675,
                "end_time": 50.7727273,
                "pitch": 72,
                "velocity": 80,
                "duration": 0.0977273,
                "tempo": 120.0
            },
            {
                "start_time": 50.7727273,
                "end_time": 50.875,
                "pitch": 76,
                "velocity": 80,
                "duration": 0.1022727,
                "tempo": 120.0
            },
            {
                "start_time": 50.875,
                "end_time": 50.9727273,
                "pitch": 72,
                "velocity": 80,
                "duration": 0.0977273,
                "tempo": 120.0
            },
            {
                "start_time": 50.9727273,
                "end_time": 51.075,
                "pitch": 67,
                "velocity": 80,
                "duration": 0.1022727,
                "tempo": 120.0
            },
            {
                "start_time": 51.075,
                "end_time": 51.175,
                "pitch": 72,
                "velocity": 80,
                "duration": 0.1,
                "tempo": 120.0
            },
            {
                "start_time": 51.175,
                "end_time": 51.275,
                "pitch": 67,
                "velocity": 80,
                "duration": 0.1,
                "tempo": 120.0
            },
            {
                "start_time": 51.275,
                "end_time": 51.375,
                "pitch": 64,
                "velocity": 80,
                "duration": 0.1,
                "tempo": 120.0
            },
            {
                "start_time": 51.375,
                "end_time": 51.475,
                "pitch": 60,
                "velocity": 80,
                "duration": 0.1,
                "tempo": 120.0
            }
        ],
        "Lead 2 (sawtooth)": [
            {
                "start_time": 0.0045455,
                "end_time": 0.6022727,
                "pitch": 76,
                "velocity": 64,
                "duration": 0.5977273,
                "tempo": 120.0
            },
            {
                "start_time": 0.6022727,
                "end_time": 3.2090909,
                "pitch": 74,
                "velocity": 64,
                "duration": 2.6068182,
                "tempo": 120.0
            },
            {
                "start_time": 3.2090909,
                "end_time": 3.8204545,
                "pitch": 76,
                "velocity": 64,
                "duration": 0.6113636,
                "tempo": 120.0
            },
            {
                "start_time": 3.8204545,
                "end_time": 6.4318182,
                "pitch": 74,
                "velocity": 64,
                "duration": 2.6113636,
                "tempo": 120.0
            },
            {
                "start_time": 6.4318182,
                "end_time": 7.0363636,
                "pitch": 76,
                "velocity": 64,
                "duration": 0.6045455,
                "tempo": 120.0
            },
            {
                "start_time": 7.0363636,
                "end_time": 9.6522727,
                "pitch": 74,
                "velocity": 64,
                "duration": 2.6159091,
                "tempo": 120.0
            },
            {
                "start_time": 9.6522727,
                "end_time": 10.2590909,
                "pitch": 76,
                "velocity": 64,
                "duration": 0.6068182,
                "tempo": 120.0
            },
            {
                "start_time": 10.2590909,
                "end_time": 12.8795455,
                "pitch": 74,
                "velocity": 64,
                "duration": 2.6204545,
                "tempo": 120.0
            },
            {
                "start_time": 12.8795455,
                "end_time": 13.4840909,
                "pitch": 76,
                "velocity": 64,
                "duration": 0.6045455,
                "tempo": 120.0
            },
            {
                "start_time": 13.4840909,
                "end_time": 16.1,
                "pitch": 74,
                "velocity": 64,
                "duration": 2.6159091,
                "tempo": 120.0
            },
            {
                "start_time": 16.1,
                "end_time": 16.7068182,
                "pitch": 76,
                "velocity": 64,
                "duration": 0.6068182,
                "tempo": 120.0
            },
            {
                "start_time": 16.7090909,
                "end_time": 19.3227273,
                "pitch": 74,
                "velocity": 64,
                "duration": 2.6136364,
                "tempo": 120.0
            },
            {
                "start_time": 19.3227273,
                "end_time": 19.925,
                "pitch": 76,
                "velocity": 64,
                "duration": 0.6022727,
                "tempo": 120.0
            },
            {
                "start_time": 19.925,
                "end_time": 22.5386364,
                "pitch": 74,
                "velocity": 64,
                "duration": 2.6136364,
                "tempo": 120.0
            },
            {
                "start_time": 22.5386364,
                "end_time": 23.1386364,
                "pitch": 76,
                "velocity": 64,
                "duration": 0.6,
                "tempo": 120.0
            },
            {
                "start_time": 23.1386364,
                "end_time": 25.7522727,
                "pitch": 74,
                "velocity": 64,
                "duration": 2.6136364,
                "tempo": 120.0
            }
        ],
        "Vibraphone": [
            {
                "start_time": 1.6045455,
                "end_time": 2.2068182,
                "pitch": 84,
                "velocity": 101,
                "duration": 0.6022727,
                "tempo": 120.0
            },
            {
                "start_time": 2.2068182,
                "end_time": 4.825,
                "pitch": 83,
                "velocity": 101,
                "duration": 2.6181818,
                "tempo": 120.0
            },
            {
                "start_time": 4.825,
                "end_time": 5.4272727,
                "pitch": 84,
                "velocity": 101,
                "duration": 0.6022727,
                "tempo": 120.0
            },
            {
                "start_time": 5.4272727,
                "end_time": 8.0431818,
                "pitch": 83,
                "velocity": 101,
                "duration": 2.6159091,
                "tempo": 120.0
            },
            {
                "start_time": 8.0431818,
                "end_time": 8.6454545,
                "pitch": 84,
                "velocity": 101,
                "duration": 0.6022727,
                "tempo": 120.0
            },
            {
                "start_time": 8.6454545,
                "end_time": 11.2681818,
                "pitch": 83,
                "velocity": 101,
                "duration": 2.6227273,
                "tempo": 120.0
            },
            {
                "start_time": 11.2681818,
                "end_time": 11.8727273,
                "pitch": 84,
                "velocity": 101,
                "duration": 0.6045455,
                "tempo": 120.0
            },
            {
                "start_time": 11.8727273,
                "end_time": 14.4886364,
                "pitch": 83,
                "velocity": 101,
                "duration": 2.6159091,
                "tempo": 120.0
            },
            {
                "start_time": 14.4886364,
                "end_time": 15.0931818,
                "pitch": 84,
                "velocity": 101,
                "duration": 0.6045455,
                "tempo": 120.0
            },
            {
                "start_time": 15.0931818,
                "end_time": 17.7181818,
                "pitch": 83,
                "velocity": 101,
                "duration": 2.625,
                "tempo": 120.0
            },
            {
                "start_time": 17.7181818,
                "end_time": 18.3159091,
                "pitch": 84,
                "velocity": 101,
                "duration": 0.5977273,
                "tempo": 120.0
            },
            {
                "start_time": 18.3159091,
                "end_time": 20.9295455,
                "pitch": 83,
                "velocity": 101,
                "duration": 2.6136364,
                "tempo": 120.0
            },
            {
                "start_time": 20.9295455,
                "end_time": 21.5318182,
                "pitch": 84,
                "velocity": 101,
                "duration": 0.6022727,
                "tempo": 120.0
            },
            {
                "start_time": 21.5318182,
                "end_time": 24.1431818,
                "pitch": 83,
                "velocity": 101,
                "duration": 2.6113636,
                "tempo": 120.0
            },
            {
                "start_time": 24.1431818,
                "end_time": 24.75,
                "pitch": 84,
                "velocity": 101,
                "duration": 0.6068182,
                "tempo": 120.0
            },
            {
                "start_time": 24.7522727,
                "end_time": 25.7522727,
                "pitch": 83,
                "velocity": 101,
                "duration": 1.0,
                "tempo": 120.0
            }
        ],
        "Acoustic Guitar (nylon)": [
            {
                "start_time": 0.0022727,
                "end_time": 0.0681818,
                "pitch": 31,
                "velocity": 101,
                "duration": 0.0659091,
                "tempo": 120.0
            },
            {
                "start_time": 0.1022727,
                "end_time": 0.25,
                "pitch": 31,
                "velocity": 101,
                "duration": 0.1477273,
                "tempo": 120.0
            },
            {
                "start_time": 0.3,
                "end_time": 0.3681818,
                "pitch": 31,
                "velocity": 101,
                "duration": 0.0681818,
                "tempo": 120.0
            },
            {
                "start_time": 0.4022727,
                "end_time": 0.55,
                "pitch": 31,
                "velocity": 101,
                "duration": 0.1477273,
                "tempo": 120.0
            },
            {
                "start_time": 0.6022727,
                "end_time": 0.7522727,
                "pitch": 43,
                "velocity": 101,
                "duration": 0.15,
                "tempo": 120.0
            },
            {
                "start_time": 0.8022727,
                "end_time": 0.8681818,
                "pitch": 31,
                "velocity": 101,
                "duration": 0.0659091,
                "tempo": 120.0
            },
            {
                "start_time": 0.9022727,
                "end_time": 1.0522727,
                "pitch": 31,
                "velocity": 101,
                "duration": 0.15,
                "tempo": 120.0
            },
            {
                "start_time": 1.1022727,
                "end_time": 1.1681818,
                "pitch": 31,
                "velocity": 101,
                "duration": 0.0659091,
                "tempo": 120.0
            },
            {
                "start_time": 1.2045455,
                "end_time": 1.3522727,
                "pitch": 31,
                "velocity": 101,
                "duration": 0.1477273,
                "tempo": 120.0
            },
            {
                "start_time": 1.4022727,
                "end_time": 1.5522727,
                "pitch": 43,
                "velocity": 101,
                "duration": 0.15,
                "tempo": 120.0
            },
            {
                "start_time": 1.6045455,
                "end_time": 1.6704545,
                "pitch": 31,
                "velocity": 101,
                "duration": 0.0659091,
                "tempo": 120.0
            },
            {
                "start_time": 1.7045455,
                "end_time": 1.8545455,
                "pitch": 31,
                "velocity": 101,
                "duration": 0.15,
                "tempo": 120.0
            },
            {
                "start_time": 1.9045455,
                "end_time": 1.9727273,
                "pitch": 31,
                "velocity": 101,
                "duration": 0.0681818,
                "tempo": 120.0
            },
            {
                "start_time": 2.0068182,
                "end_time": 2.1568182,
                "pitch": 31,
                "velocity": 101,
                "duration": 0.15,
                "tempo": 120.0
            },
            {
                "start_time": 2.2068182,
                "end_time": 2.3568182,
                "pitch": 43,
                "velocity": 101,
                "duration": 0.15,
                "tempo": 120.0
            },
            {
                "start_time": 2.4068182,
                "end_time": 2.5568182,
                "pitch": 29,
                "velocity": 101,
                "duration": 0.15,
                "tempo": 120.0
            },
            {
                "start_time": 2.6068182,
                "end_time": 2.7568182,
                "pitch": 41,
                "velocity": 101,
                "duration": 0.15,
                "tempo": 120.0
            },
            {
                "start_time": 2.8068182,
                "end_time": 2.9568182,
                "pitch": 34,
                "velocity": 101,
                "duration": 0.15,
                "tempo": 120.0
            },
            {
                "start_time": 3.0090909,
                "end_time": 3.1568182,
                "pitch": 46,
                "velocity": 101,
                "duration": 0.1477273,
                "tempo": 120.0
            },
            {
                "start_time": 3.2090909,
                "end_time": 3.275,
                "pitch": 31,
                "velocity": 101,
                "duration": 0.0659091,
                "tempo": 120.0
            },
            {
                "start_time": 3.3113636,
                "end_time": 3.4636364,
                "pitch": 31,
                "velocity": 101,
                "duration": 0.1522727,
                "tempo": 120.0
            },
            {
                "start_time": 3.5159091,
                "end_time": 3.5840909,
                "pitch": 31,
                "velocity": 101,
                "duration": 0.0681818,
                "tempo": 120.0
            },
            {
                "start_time": 3.6204545,
                "end_time": 3.7681818,
                "pitch": 31,
                "velocity": 101,
                "duration": 0.1477273,
                "tempo": 120.0
            },
            {
                "start_time": 3.8204545,
                "end_time": 3.9704545,
                "pitch": 43,
                "velocity": 101,
                "duration": 0.15,
                "tempo": 120.0
            },
            {
                "start_time": 4.0204545,
                "end_time": 4.0863636,
                "pitch": 31,
                "velocity": 101,
                "duration": 0.0659091,
                "tempo": 120.0
            },
            {
                "start_time": 4.1204545,
                "end_time": 4.2704545,
                "pitch": 31,
                "velocity": 101,
                "duration": 0.15,
                "tempo": 120.0
            },
            {
                "start_time": 4.3204545,
                "end_time": 4.3863636,
                "pitch": 31,
                "velocity": 101,
                "duration": 0.0659091,
                "tempo": 120.0
            },
            {
                "start_time": 4.4227273,
                "end_time": 4.5704545,
                "pitch": 31,
                "velocity": 101,
                "duration": 0.1477273,
                "tempo": 120.0
            },
            {
                "start_time": 4.6227273,
                "end_time": 4.7727273,
                "pitch": 43,
                "velocity": 101,
                "duration": 0.15,
                "tempo": 120.0
            },
            {
                "start_time": 4.825,
                "end_time": 4.8909091,
                "pitch": 31,
                "velocity": 101,
                "duration": 0.0659091,
                "tempo": 120.0
            },
            {
                "start_time": 4.925,
                "end_time": 5.0727273,
                "pitch": 31,
                "velocity": 101,
                "duration": 0.1477273,
                "tempo": 120.0
            },
            {
                "start_time": 5.125,
                "end_time": 5.1909091,
                "pitch": 31,
                "velocity": 101,
                "duration": 0.0659091,
                "tempo": 120.0
            },
            {
                "start_time": 5.225,
                "end_time": 5.375,
                "pitch": 31,
                "velocity": 101,
                "duration": 0.15,
                "tempo": 120.0
            },
            {
                "start_time": 5.4272727,
                "end_time": 5.5772727,
                "pitch": 43,
                "velocity": 101,
                "duration": 0.15,
                "tempo": 120.0
            },
            {
                "start_time": 5.6272727,
                "end_time": 5.7772727,
                "pitch": 29,
                "velocity": 101,
                "duration": 0.15,
                "tempo": 120.0
            },
            {
                "start_time": 5.8295455,
                "end_time": 5.9795455,
                "pitch": 41,
                "velocity": 101,
                "duration": 0.15,
                "tempo": 120.0
            },
            {
                "start_time": 6.0318182,
                "end_time": 6.1795455,
                "pitch": 34,
                "velocity": 101,
                "duration": 0.1477273,
                "tempo": 120.0
            },
            {
                "start_time": 6.2318182,
                "end_time": 6.3818182,
                "pitch": 46,
                "velocity": 101,
                "duration": 0.15,
                "tempo": 120.0
            },
            {
                "start_time": 6.4318182,
                "end_time": 6.4977273,
                "pitch": 31,
                "velocity": 101,
                "duration": 0.0659091,
                "tempo": 120.0
            },
            {
                "start_time": 6.5318182,
                "end_time": 6.6818182,
                "pitch": 31,
                "velocity": 101,
                "duration": 0.15,
                "tempo": 120.0
            },
            {
                "start_time": 6.7340909,
                "end_time": 6.8,
                "pitch": 31,
                "velocity": 101,
                "duration": 0.0659091,
                "tempo": 120.0
            },
            {
                "start_time": 6.8363636,
                "end_time": 6.9840909,
                "pitch": 31,
                "velocity": 101,
                "duration": 0.1477273,
                "tempo": 120.0
            },
            {
                "start_time": 7.0340909,
                "end_time": 7.1840909,
                "pitch": 43,
                "velocity": 101,
                "duration": 0.15,
                "tempo": 120.0
            },
            {
                "start_time": 7.2363636,
                "end_time": 7.3022727,
                "pitch": 31,
                "velocity": 101,
                "duration": 0.0659091,
                "tempo": 120.0
            },
            {
                "start_time": 7.3363636,
                "end_time": 7.4863636,
                "pitch": 31,
                "velocity": 101,
                "duration": 0.15,
                "tempo": 120.0
            },
            {
                "start_time": 7.5363636,
                "end_time": 7.6045455,
                "pitch": 31,
                "velocity": 101,
                "duration": 0.0681818,
                "tempo": 120.0
            },
            {
                "start_time": 7.6386364,
                "end_time": 7.7886364,
                "pitch": 31,
                "velocity": 101,
                "duration": 0.15,
                "tempo": 120.0
            },
            {
                "start_time": 7.8409091,
                "end_time": 7.9909091,
                "pitch": 43,
                "velocity": 101,
                "duration": 0.15,
                "tempo": 120.0
            },
            {
                "start_time": 8.0409091,
                "end_time": 8.1068182,
                "pitch": 31,
                "velocity": 101,
                "duration": 0.0659091,
                "tempo": 120.0
            },
            {
                "start_time": 8.1431818,
                "end_time": 8.2909091,
                "pitch": 31,
                "velocity": 101,
                "duration": 0.1477273,
                "tempo": 120.0
            },
            {
                "start_time": 8.3409091,
                "end_time": 8.4090909,
                "pitch": 31,
                "velocity": 101,
                "duration": 0.0681818,
                "tempo": 120.0
            },
            {
                "start_time": 8.4431818,
                "end_time": 8.5931818,
                "pitch": 31,
                "velocity": 101,
                "duration": 0.15,
                "tempo": 120.0
            },
            {
                "start_time": 8.6431818,
                "end_time": 8.7954545,
                "pitch": 43,
                "velocity": 101,
                "duration": 0.1522727,
                "tempo": 120.0
            },
            {
                "start_time": 8.8454545,
                "end_time": 8.9954545,
                "pitch": 29,
                "velocity": 101,
                "duration": 0.15,
                "tempo": 120.0
            },
            {
                "start_time": 9.0477273,
                "end_time": 9.1977273,
                "pitch": 41,
                "velocity": 101,
                "duration": 0.15,
                "tempo": 120.0
            },
            {
                "start_time": 9.25,
                "end_time": 9.4,
                "pitch": 34,
                "velocity": 101,
                "duration": 0.15,
                "tempo": 120.0
            },
            {
                "start_time": 9.45,
                "end_time": 9.6,
                "pitch": 46,
                "velocity": 101,
                "duration": 0.15,
                "tempo": 120.0
            },
            {
                "start_time": 9.6522727,
                "end_time": 9.7181818,
                "pitch": 31,
                "velocity": 101,
                "duration": 0.0659091,
                "tempo": 120.0
            },
            {
                "start_time": 9.7522727,
                "end_time": 9.9022727,
                "pitch": 31,
                "velocity": 101,
                "duration": 0.15,
                "tempo": 120.0
            },
            {
                "start_time": 9.9522727,
                "end_time": 10.0181818,
                "pitch": 31,
                "velocity": 101,
                "duration": 0.0659091,
                "tempo": 120.0
            },
            {
                "start_time": 10.0545455,
                "end_time": 10.2068182,
                "pitch": 31,
                "velocity": 101,
                "duration": 0.1522727,
                "tempo": 120.0
            },
            {
                "start_time": 10.2590909,
                "end_time": 10.4113636,
                "pitch": 43,
                "velocity": 101,
                "duration": 0.1522727,
                "tempo": 120.0
            },
            {
                "start_time": 10.4636364,
                "end_time": 10.5272727,
                "pitch": 31,
                "velocity": 101,
                "duration": 0.0636364,
                "tempo": 120.0
            },
            {
                "start_time": 10.5613636,
                "end_time": 10.7090909,
                "pitch": 31,
                "velocity": 101,
                "duration": 0.1477273,
                "tempo": 120.0
            },
            {
                "start_time": 10.7568182,
                "end_time": 10.8227273,
                "pitch": 31,
                "velocity": 101,
                "duration": 0.0659091,
                "tempo": 120.0
            },
            {
                "start_time": 10.8568182,
                "end_time": 11.0090909,
                "pitch": 31,
                "velocity": 101,
                "duration": 0.1522727,
                "tempo": 120.0
            },
            {
                "start_time": 11.0613636,
                "end_time": 11.2159091,
                "pitch": 43,
                "velocity": 101,
                "duration": 0.1545455,
                "tempo": 120.0
            },
            {
                "start_time": 11.2681818,
                "end_time": 11.3340909,
                "pitch": 31,
                "velocity": 101,
                "duration": 0.0659091,
                "tempo": 120.0
            },
            {
                "start_time": 11.3681818,
                "end_time": 11.5181818,
                "pitch": 31,
                "velocity": 101,
                "duration": 0.15,
                "tempo": 120.0
            },
            {
                "start_time": 11.5704545,
                "end_time": 11.6363636,
                "pitch": 31,
                "velocity": 101,
                "duration": 0.0659091,
                "tempo": 120.0
            },
            {
                "start_time": 11.6727273,
                "end_time": 11.8204545,
                "pitch": 31,
                "velocity": 101,
                "duration": 0.1477273,
                "tempo": 120.0
            },
            {
                "start_time": 11.8704545,
                "end_time": 12.0204545,
                "pitch": 43,
                "velocity": 101,
                "duration": 0.15,
                "tempo": 120.0
            },
            {
                "start_time": 12.0727273,
                "end_time": 12.2227273,
                "pitch": 29,
                "velocity": 101,
                "duration": 0.15,
                "tempo": 120.0
            },
            {
                "start_time": 12.2727273,
                "end_time": 12.4227273,
                "pitch": 41,
                "velocity": 101,
                "duration": 0.15,
                "tempo": 120.0
            },
            {
                "start_time": 12.475,
                "end_time": 12.625,
                "pitch": 34,
                "velocity": 101,
                "duration": 0.15,
                "tempo": 120.0
            },
            {
                "start_time": 12.6772727,
                "end_time": 12.8272727,
                "pitch": 46,
                "velocity": 101,
                "duration": 0.15,
                "tempo": 120.0
            },
            {
                "start_time": 12.8772727,
                "end_time": 12.9454545,
                "pitch": 31,
                "velocity": 101,
                "duration": 0.0681818,
                "tempo": 120.0
            },
            {
                "start_time": 12.9795455,
                "end_time": 13.1295455,
                "pitch": 31,
                "velocity": 101,
                "duration": 0.15,
                "tempo": 120.0
            },
            {
                "start_time": 13.1795455,
                "end_time": 13.2477273,
                "pitch": 31,
                "velocity": 101,
                "duration": 0.0681818,
                "tempo": 120.0
            },
            {
                "start_time": 13.2818182,
                "end_time": 13.4318182,
                "pitch": 31,
                "velocity": 101,
                "duration": 0.15,
                "tempo": 120.0
            },
            {
                "start_time": 13.4840909,
                "end_time": 13.6340909,
                "pitch": 43,
                "velocity": 101,
                "duration": 0.15,
                "tempo": 120.0
            },
            {
                "start_time": 13.6840909,
                "end_time": 13.75,
                "pitch": 31,
                "velocity": 101,
                "duration": 0.0659091,
                "tempo": 120.0
            },
            {
                "start_time": 13.7840909,
                "end_time": 13.9340909,
                "pitch": 31,
                "velocity": 101,
                "duration": 0.15,
                "tempo": 120.0
            },
            {
                "start_time": 13.9840909,
                "end_time": 14.05,
                "pitch": 31,
                "velocity": 101,
                "duration": 0.0659091,
                "tempo": 120.0
            },
            {
                "start_time": 14.0863636,
                "end_time": 14.2363636,
                "pitch": 31,
                "velocity": 101,
                "duration": 0.15,
                "tempo": 120.0
            },
            {
                "start_time": 14.2863636,
                "end_time": 14.4363636,
                "pitch": 43,
                "velocity": 101,
                "duration": 0.15,
                "tempo": 120.0
            },
            {
                "start_time": 14.4886364,
                "end_time": 14.5545455,
                "pitch": 31,
                "velocity": 101,
                "duration": 0.0659091,
                "tempo": 120.0
            },
            {
                "start_time": 14.5886364,
                "end_time": 14.7386364,
                "pitch": 31,
                "velocity": 101,
                "duration": 0.15,
                "tempo": 120.0
            },
            {
                "start_time": 14.7909091,
                "end_time": 14.8568182,
                "pitch": 31,
                "velocity": 101,
                "duration": 0.0659091,
                "tempo": 120.0
            },
            {
                "start_time": 14.8931818,
                "end_time": 15.0409091,
                "pitch": 31,
                "velocity": 101,
                "duration": 0.1477273,
                "tempo": 120.0
            },
            {
                "start_time": 15.0931818,
                "end_time": 15.2431818,
                "pitch": 43,
                "velocity": 101,
                "duration": 0.15,
                "tempo": 120.0
            },
            {
                "start_time": 15.2954545,
                "end_time": 15.4454545,
                "pitch": 29,
                "velocity": 101,
                "duration": 0.15,
                "tempo": 120.0
            },
            {
                "start_time": 15.4954545,
                "end_time": 15.6477273,
                "pitch": 41,
                "velocity": 101,
                "duration": 0.1522727,
                "tempo": 120.0
            },
            {
                "start_time": 15.6977273,
                "end_time": 15.8477273,
                "pitch": 34,
                "velocity": 101,
                "duration": 0.15,
                "tempo": 120.0
            },
            {
                "start_time": 15.8977273,
                "end_time": 16.0477273,
                "pitch": 46,
                "velocity": 101,
                "duration": 0.15,
                "tempo": 120.0
            },
            {
                "start_time": 16.0977273,
                "end_time": 16.1659091,
                "pitch": 31,
                "velocity": 101,
                "duration": 0.0681818,
                "tempo": 120.0
            },
            {
                "start_time": 16.2,
                "end_time": 16.35,
                "pitch": 31,
                "velocity": 101,
                "duration": 0.15,
                "tempo": 120.0
            },
            {
                "start_time": 16.4,
                "end_time": 16.4681818,
                "pitch": 31,
                "velocity": 101,
                "duration": 0.0681818,
                "tempo": 120.0
            },
            {
                "start_time": 16.5022727,
                "end_time": 16.6545455,
                "pitch": 31,
                "velocity": 101,
                "duration": 0.1522727,
                "tempo": 120.0
            },
            {
                "start_time": 16.7068182,
                "end_time": 16.8613636,
                "pitch": 43,
                "velocity": 101,
                "duration": 0.1545455,
                "tempo": 120.0
            },
            {
                "start_time": 16.9136364,
                "end_time": 16.9772727,
                "pitch": 31,
                "velocity": 101,
                "duration": 0.0636364,
                "tempo": 120.0
            },
            {
                "start_time": 17.0113636,
                "end_time": 17.1568182,
                "pitch": 31,
                "velocity": 101,
                "duration": 0.1454545,
                "tempo": 120.0
            },
            {
                "start_time": 17.2068182,
                "end_time": 17.2727273,
                "pitch": 31,
                "velocity": 101,
                "duration": 0.0659091,
                "tempo": 120.0
            },
            {
                "start_time": 17.3068182,
                "end_time": 17.4590909,
                "pitch": 31,
                "velocity": 101,
                "duration": 0.1522727,
                "tempo": 120.0
            },
            {
                "start_time": 17.5113636,
                "end_time": 17.6636364,
                "pitch": 43,
                "velocity": 101,
                "duration": 0.1522727,
                "tempo": 120.0
            },
            {
                "start_time": 17.7159091,
                "end_time": 17.7818182,
                "pitch": 31,
                "velocity": 101,
                "duration": 0.0659091,
                "tempo": 120.0
            },
            {
                "start_time": 17.8159091,
                "end_time": 17.9613636,
                "pitch": 31,
                "velocity": 101,
                "duration": 0.1454545,
                "tempo": 120.0
            },
            {
                "start_time": 18.0113636,
                "end_time": 18.075,
                "pitch": 31,
                "velocity": 101,
                "duration": 0.0636364,
                "tempo": 120.0
            },
            {
                "start_time": 18.1090909,
                "end_time": 18.2636364,
                "pitch": 31,
                "velocity": 101,
                "duration": 0.1545455,
                "tempo": 120.0
            },
            {
                "start_time": 18.3159091,
                "end_time": 18.4681818,
                "pitch": 43,
                "velocity": 101,
                "duration": 0.1522727,
                "tempo": 120.0
            },
            {
                "start_time": 18.5204545,
                "end_time": 18.6704545,
                "pitch": 29,
                "velocity": 101,
                "duration": 0.15,
                "tempo": 120.0
            },
            {
                "start_time": 18.7204545,
                "end_time": 18.8704545,
                "pitch": 41,
                "velocity": 101,
                "duration": 0.15,
                "tempo": 120.0
            },
            {
                "start_time": 18.9204545,
                "end_time": 19.0704545,
                "pitch": 34,
                "velocity": 101,
                "duration": 0.15,
                "tempo": 120.0
            },
            {
                "start_time": 19.1227273,
                "end_time": 19.2704545,
                "pitch": 46,
                "velocity": 101,
                "duration": 0.1477273,
                "tempo": 120.0
            },
            {
                "start_time": 19.3227273,
                "end_time": 19.3886364,
                "pitch": 31,
                "velocity": 101,
                "duration": 0.0659091,
                "tempo": 120.0
            },
            {
                "start_time": 19.4227273,
                "end_time": 19.5727273,
                "pitch": 31,
                "velocity": 101,
                "duration": 0.15,
                "tempo": 120.0
            },
            {
                "start_time": 19.6227273,
                "end_time": 19.6909091,
                "pitch": 31,
                "velocity": 101,
                "duration": 0.0681818,
                "tempo": 120.0
            },
            {
                "start_time": 19.725,
                "end_time": 19.875,
                "pitch": 31,
                "velocity": 101,
                "duration": 0.15,
                "tempo": 120.0
            },
            {
                "start_time": 19.925,
                "end_time": 20.075,
                "pitch": 43,
                "velocity": 101,
                "duration": 0.15,
                "tempo": 120.0
            },
            {
                "start_time": 20.125,
                "end_time": 20.1931818,
                "pitch": 31,
                "velocity": 101,
                "duration": 0.0681818,
                "tempo": 120.0
            },
            {
                "start_time": 20.2272727,
                "end_time": 20.3772727,
                "pitch": 31,
                "velocity": 101,
                "duration": 0.15,
                "tempo": 120.0
            },
            {
                "start_time": 20.4272727,
                "end_time": 20.4954545,
                "pitch": 31,
                "velocity": 101,
                "duration": 0.0681818,
                "tempo": 120.0
            },
            {
                "start_time": 20.5295455,
                "end_time": 20.6772727,
                "pitch": 31,
                "velocity": 101,
                "duration": 0.1477273,
                "tempo": 120.0
            },
            {
                "start_time": 20.7295455,
                "end_time": 20.8795455,
                "pitch": 43,
                "velocity": 101,
                "duration": 0.15,
                "tempo": 120.0
            },
            {
                "start_time": 20.9295455,
                "end_time": 20.9954545,
                "pitch": 31,
                "velocity": 101,
                "duration": 0.0659091,
                "tempo": 120.0
            },
            {
                "start_time": 21.0295455,
                "end_time": 21.1795455,
                "pitch": 31,
                "velocity": 101,
                "duration": 0.15,
                "tempo": 120.0
            },
            {
                "start_time": 21.2295455,
                "end_time": 21.2954545,
                "pitch": 31,
                "velocity": 101,
                "duration": 0.0659091,
                "tempo": 120.0
            },
            {
                "start_time": 21.3318182,
                "end_time": 21.4795455,
                "pitch": 31,
                "velocity": 101,
                "duration": 0.1477273,
                "tempo": 120.0
            },
            {
                "start_time": 21.5318182,
                "end_time": 21.6818182,
                "pitch": 43,
                "velocity": 101,
                "duration": 0.15,
                "tempo": 120.0
            },
            {
                "start_time": 21.7340909,
                "end_time": 21.8818182,
                "pitch": 29,
                "velocity": 101,
                "duration": 0.1477273,
                "tempo": 120.0
            },
            {
                "start_time": 21.9340909,
                "end_time": 22.0818182,
                "pitch": 41,
                "velocity": 101,
                "duration": 0.1477273,
                "tempo": 120.0
            },
            {
                "start_time": 22.1340909,
                "end_time": 22.2840909,
                "pitch": 34,
                "velocity": 101,
                "duration": 0.15,
                "tempo": 120.0
            },
            {
                "start_time": 22.3363636,
                "end_time": 22.4863636,
                "pitch": 46,
                "velocity": 101,
                "duration": 0.15,
                "tempo": 120.0
            },
            {
                "start_time": 22.5363636,
                "end_time": 22.6022727,
                "pitch": 31,
                "velocity": 101,
                "duration": 0.0659091,
                "tempo": 120.0
            },
            {
                "start_time": 22.6363636,
                "end_time": 22.7863636,
                "pitch": 31,
                "velocity": 101,
                "duration": 0.15,
                "tempo": 120.0
            },
            {
                "start_time": 22.8363636,
                "end_time": 22.9022727,
                "pitch": 31,
                "velocity": 101,
                "duration": 0.0659091,
                "tempo": 120.0
            },
            {
                "start_time": 22.9386364,
                "end_time": 23.0863636,
                "pitch": 31,
                "velocity": 101,
                "duration": 0.1477273,
                "tempo": 120.0
            },
            {
                "start_time": 23.1386364,
                "end_time": 23.2863636,
                "pitch": 43,
                "velocity": 101,
                "duration": 0.1477273,
                "tempo": 120.0
            },
            {
                "start_time": 23.3386364,
                "end_time": 23.4045455,
                "pitch": 31,
                "velocity": 101,
                "duration": 0.0659091,
                "tempo": 120.0
            },
            {
                "start_time": 23.4386364,
                "end_time": 23.5886364,
                "pitch": 31,
                "velocity": 101,
                "duration": 0.15,
                "tempo": 120.0
            },
            {
                "start_time": 23.6409091,
                "end_time": 23.7068182,
                "pitch": 31,
                "velocity": 101,
                "duration": 0.0659091,
                "tempo": 120.0
            },
            {
                "start_time": 23.7431818,
                "end_time": 23.8909091,
                "pitch": 31,
                "velocity": 101,
                "duration": 0.1477273,
                "tempo": 120.0
            },
            {
                "start_time": 23.9409091,
                "end_time": 24.0909091,
                "pitch": 43,
                "velocity": 101,
                "duration": 0.15,
                "tempo": 120.0
            },
            {
                "start_time": 24.1409091,
                "end_time": 24.2090909,
                "pitch": 31,
                "velocity": 101,
                "duration": 0.0681818,
                "tempo": 120.0
            },
            {
                "start_time": 24.2431818,
                "end_time": 24.3931818,
                "pitch": 31,
                "velocity": 101,
                "duration": 0.15,
                "tempo": 120.0
            },
            {
                "start_time": 24.4431818,
                "end_time": 24.5113636,
                "pitch": 31,
                "velocity": 101,
                "duration": 0.0681818,
                "tempo": 120.0
            },
            {
                "start_time": 24.5454545,
                "end_time": 24.6977273,
                "pitch": 31,
                "velocity": 101,
                "duration": 0.1522727,
                "tempo": 120.0
            },
            {
                "start_time": 24.75,
                "end_time": 24.9045455,
                "pitch": 43,
                "velocity": 101,
                "duration": 0.1545455,
                "tempo": 120.0
            },
            {
                "start_time": 24.9568182,
                "end_time": 25.1022727,
                "pitch": 29,
                "velocity": 101,
                "duration": 0.1454545,
                "tempo": 120.0
            },
            {
                "start_time": 25.1522727,
                "end_time": 25.3,
                "pitch": 41,
                "velocity": 101,
                "duration": 0.1477273,
                "tempo": 120.0
            },
            {
                "start_time": 25.35,
                "end_time": 25.5,
                "pitch": 34,
                "velocity": 101,
                "duration": 0.15,
                "tempo": 120.0
            },
            {
                "start_time": 25.55,
                "end_time": 25.7,
                "pitch": 46,
                "velocity": 101,
                "duration": 0.15,
                "tempo": 120.0
            },
            {
                "start_time": 25.7522727,
                "end_time": 25.8204545,
                "pitch": 32,
                "velocity": 101,
                "duration": 0.0681818,
                "tempo": 120.0
            },
            {
                "start_time": 25.8545455,
                "end_time": 25.9227273,
                "pitch": 39,
                "velocity": 101,
                "duration": 0.0681818,
                "tempo": 120.0
            },
            {
                "start_time": 25.9590909,
                "end_time": 26.025,
                "pitch": 44,
                "velocity": 101,
                "duration": 0.0659091,
                "tempo": 120.0
            },
            {
                "start_time": 26.0613636,
                "end_time": 26.1295455,
                "pitch": 32,
                "velocity": 101,
                "duration": 0.0681818,
                "tempo": 120.0
            },
            {
                "start_time": 26.1636364,
                "end_time": 26.2295455,
                "pitch": 39,
                "velocity": 101,
                "duration": 0.0659091,
                "tempo": 120.0
            },
            {
                "start_time": 26.2636364,
                "end_time": 26.3295455,
                "pitch": 44,
                "velocity": 101,
                "duration": 0.0659091,
                "tempo": 120.0
            },
            {
                "start_time": 26.3659091,
                "end_time": 26.4295455,
                "pitch": 32,
                "velocity": 101,
                "duration": 0.0636364,
                "tempo": 120.0
            },
            {
                "start_time": 26.4636364,
                "end_time": 26.5295455,
                "pitch": 44,
                "velocity": 101,
                "duration": 0.0659091,
                "tempo": 120.0
            },
            {
                "start_time": 26.5659091,
                "end_time": 26.6318182,
                "pitch": 32,
                "velocity": 101,
                "duration": 0.0659091,
                "tempo": 120.0
            },
            {
                "start_time": 26.6659091,
                "end_time": 26.7318182,
                "pitch": 39,
                "velocity": 101,
                "duration": 0.0659091,
                "tempo": 120.0
            },
            {
                "start_time": 26.7659091,
                "end_time": 26.8318182,
                "pitch": 44,
                "velocity": 101,
                "duration": 0.0659091,
                "tempo": 120.0
            },
            {
                "start_time": 26.8681818,
                "end_time": 26.9340909,
                "pitch": 32,
                "velocity": 101,
                "duration": 0.0659091,
                "tempo": 120.0
            },
            {
                "start_time": 26.9681818,
                "end_time": 27.0340909,
                "pitch": 39,
                "velocity": 101,
                "duration": 0.0659091,
                "tempo": 120.0
            },
            {
                "start_time": 27.0681818,
                "end_time": 27.1340909,
                "pitch": 44,
                "velocity": 101,
                "duration": 0.0659091,
                "tempo": 120.0
            },
            {
                "start_time": 27.1681818,
                "end_time": 27.2340909,
                "pitch": 32,
                "velocity": 101,
                "duration": 0.0659091,
                "tempo": 120.0
            },
            {
                "start_time": 27.2681818,
                "end_time": 27.3340909,
                "pitch": 44,
                "velocity": 101,
                "duration": 0.0659091,
                "tempo": 120.0
            },
            {
                "start_time": 27.3681818,
                "end_time": 27.4340909,
                "pitch": 32,
                "velocity": 101,
                "duration": 0.0659091,
                "tempo": 120.0
            },
            {
                "start_time": 27.4681818,
                "end_time": 27.5340909,
                "pitch": 39,
                "velocity": 101,
                "duration": 0.0659091,
                "tempo": 120.0
            },
            {
                "start_time": 27.5681818,
                "end_time": 27.6340909,
                "pitch": 44,
                "velocity": 101,
                "duration": 0.0659091,
                "tempo": 120.0
            },
            {
                "start_time": 27.6681818,
                "end_time": 27.7340909,
                "pitch": 32,
                "velocity": 101,
                "duration": 0.0659091,
                "tempo": 120.0
            },
            {
                "start_time": 27.7704545,
                "end_time": 27.8340909,
                "pitch": 39,
                "velocity": 101,
                "duration": 0.0636364,
                "tempo": 120.0
            },
            {
                "start_time": 27.8704545,
                "end_time": 27.9363636,
                "pitch": 44,
                "velocity": 101,
                "duration": 0.0659091,
                "tempo": 120.0
            },
            {
                "start_time": 27.9704545,
                "end_time": 28.0363636,
                "pitch": 32,
                "velocity": 101,
                "duration": 0.0659091,
                "tempo": 120.0
            },
            {
                "start_time": 28.0704545,
                "end_time": 28.1386364,
                "pitch": 44,
                "velocity": 101,
                "duration": 0.0681818,
                "tempo": 120.0
            },
            {
                "start_time": 28.1727273,
                "end_time": 28.2386364,
                "pitch": 32,
                "velocity": 101,
                "duration": 0.0659091,
                "tempo": 120.0
            },
            {
                "start_time": 28.2727273,
                "end_time": 28.3386364,
                "pitch": 39,
                "velocity": 101,
                "duration": 0.0659091,
                "tempo": 120.0
            },
            {
                "start_time": 28.3727273,
                "end_time": 28.4386364,
                "pitch": 44,
                "velocity": 101,
                "duration": 0.0659091,
                "tempo": 120.0
            },
            {
                "start_time": 28.4727273,
                "end_time": 28.5386364,
                "pitch": 32,
                "velocity": 101,
                "duration": 0.0659091,
                "tempo": 120.0
            },
            {
                "start_time": 28.5727273,
                "end_time": 28.6386364,
                "pitch": 39,
                "velocity": 101,
                "duration": 0.0659091,
                "tempo": 120.0
            },
            {
                "start_time": 28.6727273,
                "end_time": 28.7386364,
                "pitch": 44,
                "velocity": 101,
                "duration": 0.0659091,
                "tempo": 120.0
            },
            {
                "start_time": 28.775,
                "end_time": 28.8409091,
                "pitch": 32,
                "velocity": 101,
                "duration": 0.0659091,
                "tempo": 120.0
            },
            {
                "start_time": 28.875,
                "end_time": 28.9409091,
                "pitch": 44,
                "velocity": 101,
                "duration": 0.0659091,
                "tempo": 120.0
            },
            {
                "start_time": 28.9772727,
                "end_time": 29.0409091,
                "pitch": 34,
                "velocity": 101,
                "duration": 0.0636364,
                "tempo": 120.0
            },
            {
                "start_time": 29.075,
                "end_time": 29.1409091,
                "pitch": 41,
                "velocity": 101,
                "duration": 0.0659091,
                "tempo": 120.0
            },
            {
                "start_time": 29.1772727,
                "end_time": 29.2409091,
                "pitch": 46,
                "velocity": 101,
                "duration": 0.0636364,
                "tempo": 120.0
            },
            {
                "start_time": 29.2772727,
                "end_time": 29.3431818,
                "pitch": 34,
                "velocity": 101,
                "duration": 0.0659091,
                "tempo": 120.0
            },
            {
                "start_time": 29.3772727,
                "end_time": 29.4431818,
                "pitch": 41,
                "velocity": 101,
                "duration": 0.0659091,
                "tempo": 120.0
            },
            {
                "start_time": 29.4772727,
                "end_time": 29.5431818,
                "pitch": 46,
                "velocity": 101,
                "duration": 0.0659091,
                "tempo": 120.0
            },
            {
                "start_time": 29.5772727,
                "end_time": 29.6431818,
                "pitch": 34,
                "velocity": 101,
                "duration": 0.0659091,
                "tempo": 120.0
            },
            {
                "start_time": 29.6772727,
                "end_time": 29.7431818,
                "pitch": 46,
                "velocity": 101,
                "duration": 0.0659091,
                "tempo": 120.0
            },
            {
                "start_time": 29.7772727,
                "end_time": 29.8431818,
                "pitch": 34,
                "velocity": 101,
                "duration": 0.0659091,
                "tempo": 120.0
            },
            {
                "start_time": 29.8772727,
                "end_time": 29.9431818,
                "pitch": 41,
                "velocity": 101,
                "duration": 0.0659091,
                "tempo": 120.0
            },
            {
                "start_time": 29.9795455,
                "end_time": 30.0454545,
                "pitch": 46,
                "velocity": 101,
                "duration": 0.0659091,
                "tempo": 120.0
            },
            {
                "start_time": 30.0795455,
                "end_time": 30.1454545,
                "pitch": 34,
                "velocity": 101,
                "duration": 0.0659091,
                "tempo": 120.0
            },
            {
                "start_time": 30.1818182,
                "end_time": 30.2454545,
                "pitch": 41,
                "velocity": 101,
                "duration": 0.0636364,
                "tempo": 120.0
            },
            {
                "start_time": 30.2795455,
                "end_time": 30.3454545,
                "pitch": 46,
                "velocity": 101,
                "duration": 0.0659091,
                "tempo": 120.0
            },
            {
                "start_time": 30.3818182,
                "end_time": 30.4454545,
                "pitch": 34,
                "velocity": 101,
                "duration": 0.0636364,
                "tempo": 120.0
            },
            {
                "start_time": 30.4795455,
                "end_time": 30.5454545,
                "pitch": 46,
                "velocity": 101,
                "duration": 0.0659091,
                "tempo": 120.0
            },
            {
                "start_time": 30.5818182,
                "end_time": 30.6477273,
                "pitch": 34,
                "velocity": 101,
                "duration": 0.0659091,
                "tempo": 120.0
            },
            {
                "start_time": 30.6818182,
                "end_time": 30.7477273,
                "pitch": 41,
                "velocity": 101,
                "duration": 0.0659091,
                "tempo": 120.0
            },
            {
                "start_time": 30.7840909,
                "end_time": 30.8477273,
                "pitch": 46,
                "velocity": 101,
                "duration": 0.0636364,
                "tempo": 120.0
            },
            {
                "start_time": 30.8840909,
                "end_time": 30.95,
                "pitch": 34,
                "velocity": 101,
                "duration": 0.0659091,
                "tempo": 120.0
            },
            {
                "start_time": 30.9840909,
                "end_time": 31.05,
                "pitch": 41,
                "velocity": 101,
                "duration": 0.0659091,
                "tempo": 120.0
            },
            {
                "start_time": 31.0840909,
                "end_time": 31.15,
                "pitch": 46,
                "velocity": 101,
                "duration": 0.0659091,
                "tempo": 120.0
            },
            {
                "start_time": 31.1840909,
                "end_time": 31.25,
                "pitch": 34,
                "velocity": 101,
                "duration": 0.0659091,
                "tempo": 120.0
            },
            {
                "start_time": 31.2840909,
                "end_time": 31.35,
                "pitch": 46,
                "velocity": 101,
                "duration": 0.0659091,
                "tempo": 120.0
            },
            {
                "start_time": 31.3840909,
                "end_time": 31.45,
                "pitch": 34,
                "velocity": 101,
                "duration": 0.0659091,
                "tempo": 120.0
            },
            {
                "start_time": 31.4840909,
                "end_time": 31.55,
                "pitch": 41,
                "velocity": 101,
                "duration": 0.0659091,
                "tempo": 120.0
            },
            {
                "start_time": 31.5863636,
                "end_time": 31.65,
                "pitch": 46,
                "velocity": 101,
                "duration": 0.0636364,
                "tempo": 120.0
            },
            {
                "start_time": 31.6863636,
                "end_time": 31.75,
                "pitch": 34,
                "velocity": 101,
                "duration": 0.0636364,
                "tempo": 120.0
            },
            {
                "start_time": 31.7863636,
                "end_time": 31.8522727,
                "pitch": 41,
                "velocity": 101,
                "duration": 0.0659091,
                "tempo": 120.0
            },
            {
                "start_time": 31.8886364,
                "end_time": 31.9545455,
                "pitch": 46,
                "velocity": 101,
                "duration": 0.0659091,
                "tempo": 120.0
            },
            {
                "start_time": 31.9909091,
                "end_time": 32.0590909,
                "pitch": 34,
                "velocity": 101,
                "duration": 0.0681818,
                "tempo": 120.0
            },
            {
                "start_time": 32.0931818,
                "end_time": 32.1613636,
                "pitch": 46,
                "velocity": 101,
                "duration": 0.0681818,
                "tempo": 120.0
            },
            {
                "start_time": 32.1977273,
                "end_time": 32.2613636,
                "pitch": 32,
                "velocity": 101,
                "duration": 0.0636364,
                "tempo": 120.0
            },
            {
                "start_time": 32.2977273,
                "end_time": 32.3636364,
                "pitch": 39,
                "velocity": 101,
                "duration": 0.0659091,
                "tempo": 120.0
            },
            {
                "start_time": 32.3977273,
                "end_time": 32.4636364,
                "pitch": 44,
                "velocity": 101,
                "duration": 0.0659091,
                "tempo": 120.0
            },
            {
                "start_time": 32.4977273,
                "end_time": 32.5636364,
                "pitch": 32,
                "velocity": 101,
                "duration": 0.0659091,
                "tempo": 120.0
            },
            {
                "start_time": 32.5977273,
                "end_time": 32.6636364,
                "pitch": 39,
                "velocity": 101,
                "duration": 0.0659091,
                "tempo": 120.0
            },
            {
                "start_time": 32.6977273,
                "end_time": 32.7636364,
                "pitch": 44,
                "velocity": 101,
                "duration": 0.0659091,
                "tempo": 120.0
            },
            {
                "start_time": 32.8,
                "end_time": 32.8659091,
                "pitch": 32,
                "velocity": 101,
                "duration": 0.0659091,
                "tempo": 120.0
            },
            {
                "start_time": 32.9,
                "end_time": 32.9659091,
                "pitch": 44,
                "velocity": 101,
                "duration": 0.0659091,
                "tempo": 120.0
            },
            {
                "start_time": 33.0,
                "end_time": 33.0659091,
                "pitch": 32,
                "velocity": 101,
                "duration": 0.0659091,
                "tempo": 120.0
            },
            {
                "start_time": 33.1,
                "end_time": 33.1659091,
                "pitch": 39,
                "velocity": 101,
                "duration": 0.0659091,
                "tempo": 120.0
            },
            {
                "start_time": 33.2022727,
                "end_time": 33.2659091,
                "pitch": 44,
                "velocity": 101,
                "duration": 0.0636364,
                "tempo": 120.0
            },
            {
                "start_time": 33.3022727,
                "end_time": 33.3659091,
                "pitch": 32,
                "velocity": 101,
                "duration": 0.0636364,
                "tempo": 120.0
            },
            {
                "start_time": 33.4022727,
                "end_time": 33.4659091,
                "pitch": 39,
                "velocity": 101,
                "duration": 0.0636364,
                "tempo": 120.0
            },
            {
                "start_time": 33.5,
                "end_time": 33.5659091,
                "pitch": 44,
                "velocity": 101,
                "duration": 0.0659091,
                "tempo": 120.0
            },
            {
                "start_time": 33.6022727,
                "end_time": 33.6659091,
                "pitch": 32,
                "velocity": 101,
                "duration": 0.0636364,
                "tempo": 120.0
            },
            {
                "start_time": 33.7022727,
                "end_time": 33.7681818,
                "pitch": 44,
                "velocity": 101,
                "duration": 0.0659091,
                "tempo": 120.0
            },
            {
                "start_time": 33.8022727,
                "end_time": 33.8681818,
                "pitch": 32,
                "velocity": 101,
                "duration": 0.0659091,
                "tempo": 120.0
            },
            {
                "start_time": 33.9022727,
                "end_time": 33.9681818,
                "pitch": 39,
                "velocity": 101,
                "duration": 0.0659091,
                "tempo": 120.0
            },
            {
                "start_time": 34.0022727,
                "end_time": 34.0681818,
                "pitch": 44,
                "velocity": 101,
                "duration": 0.0659091,
                "tempo": 120.0
            },
            {
                "start_time": 34.1022727,
                "end_time": 34.1681818,
                "pitch": 32,
                "velocity": 101,
                "duration": 0.0659091,
                "tempo": 120.0
            },
            {
                "start_time": 34.2022727,
                "end_time": 34.2681818,
                "pitch": 39,
                "velocity": 101,
                "duration": 0.0659091,
                "tempo": 120.0
            },
            {
                "start_time": 34.3022727,
                "end_time": 34.3681818,
                "pitch": 44,
                "velocity": 101,
                "duration": 0.0659091,
                "tempo": 120.0
            },
            {
                "start_time": 34.4022727,
                "end_time": 34.4681818,
                "pitch": 32,
                "velocity": 101,
                "duration": 0.0659091,
                "tempo": 120.0
            },
            {
                "start_time": 34.5022727,
                "end_time": 34.5681818,
                "pitch": 44,
                "velocity": 101,
                "duration": 0.0659091,
                "tempo": 120.0
            },
            {
                "start_time": 34.6022727,
                "end_time": 34.6681818,
                "pitch": 32,
                "velocity": 101,
                "duration": 0.0659091,
                "tempo": 120.0
            },
            {
                "start_time": 34.7022727,
                "end_time": 34.7704545,
                "pitch": 39,
                "velocity": 101,
                "duration": 0.0681818,
                "tempo": 120.0
            },
            {
                "start_time": 34.8045455,
                "end_time": 34.8704545,
                "pitch": 44,
                "velocity": 101,
                "duration": 0.0659091,
                "tempo": 120.0
            },
            {
                "start_time": 34.9045455,
                "end_time": 34.9704545,
                "pitch": 32,
                "velocity": 101,
                "duration": 0.0659091,
                "tempo": 120.0
            },
            {
                "start_time": 35.0068182,
                "end_time": 35.0704545,
                "pitch": 39,
                "velocity": 101,
                "duration": 0.0636364,
                "tempo": 120.0
            },
            {
                "start_time": 35.1068182,
                "end_time": 35.1727273,
                "pitch": 44,
                "velocity": 101,
                "duration": 0.0659091,
                "tempo": 120.0
            },
            {
                "start_time": 35.2068182,
                "end_time": 35.2727273,
                "pitch": 32,
                "velocity": 101,
                "duration": 0.0659091,
                "tempo": 120.0
            },
            {
                "start_time": 35.3068182,
                "end_time": 35.3727273,
                "pitch": 44,
                "velocity": 101,
                "duration": 0.0659091,
                "tempo": 120.0
            },
            {
                "start_time": 35.4068182,
                "end_time": 35.4727273,
                "pitch": 34,
                "velocity": 101,
                "duration": 0.0659091,
                "tempo": 120.0
            },
            {
                "start_time": 35.5068182,
                "end_time": 35.5727273,
                "pitch": 41,
                "velocity": 101,
                "duration": 0.0659091,
                "tempo": 120.0
            },
            {
                "start_time": 35.6068182,
                "end_time": 35.6727273,
                "pitch": 46,
                "velocity": 101,
                "duration": 0.0659091,
                "tempo": 120.0
            },
            {
                "start_time": 35.7068182,
                "end_time": 35.7727273,
                "pitch": 34,
                "velocity": 101,
                "duration": 0.0659091,
                "tempo": 120.0
            },
            {
                "start_time": 35.8068182,
                "end_time": 35.8727273,
                "pitch": 41,
                "velocity": 101,
                "duration": 0.0659091,
                "tempo": 120.0
            },
            {
                "start_time": 35.9068182,
                "end_time": 35.9727273,
                "pitch": 46,
                "velocity": 101,
                "duration": 0.0659091,
                "tempo": 120.0
            },
            {
                "start_time": 36.0068182,
                "end_time": 36.0727273,
                "pitch": 34,
                "velocity": 101,
                "duration": 0.0659091,
                "tempo": 120.0
            },
            {
                "start_time": 36.1068182,
                "end_time": 36.1727273,
                "pitch": 46,
                "velocity": 101,
                "duration": 0.0659091,
                "tempo": 120.0
            },
            {
                "start_time": 36.2090909,
                "end_time": 36.2727273,
                "pitch": 34,
                "velocity": 101,
                "duration": 0.0636364,
                "tempo": 120.0
            },
            {
                "start_time": 36.3068182,
                "end_time": 36.3727273,
                "pitch": 41,
                "velocity": 101,
                "duration": 0.0659091,
                "tempo": 120.0
            },
            {
                "start_time": 36.4090909,
                "end_time": 36.4727273,
                "pitch": 46,
                "velocity": 101,
                "duration": 0.0636364,
                "tempo": 120.0
            },
            {
                "start_time": 36.5090909,
                "end_time": 36.5727273,
                "pitch": 34,
                "velocity": 101,
                "duration": 0.0636364,
                "tempo": 120.0
            },
            {
                "start_time": 36.6090909,
                "end_time": 36.675,
                "pitch": 41,
                "velocity": 101,
                "duration": 0.0659091,
                "tempo": 120.0
            },
            {
                "start_time": 36.7090909,
                "end_time": 36.775,
                "pitch": 46,
                "velocity": 101,
                "duration": 0.0659091,
                "tempo": 120.0
            },
            {
                "start_time": 36.8113636,
                "end_time": 36.875,
                "pitch": 34,
                "velocity": 101,
                "duration": 0.0636364,
                "tempo": 120.0
            },
            {
                "start_time": 36.9113636,
                "end_time": 36.9772727,
                "pitch": 46,
                "velocity": 101,
                "duration": 0.0659091,
                "tempo": 120.0
            },
            {
                "start_time": 37.0113636,
                "end_time": 37.0772727,
                "pitch": 34,
                "velocity": 101,
                "duration": 0.0659091,
                "tempo": 120.0
            },
            {
                "start_time": 37.1113636,
                "end_time": 37.1772727,
                "pitch": 41,
                "velocity": 101,
                "duration": 0.0659091,
                "tempo": 120.0
            },
            {
                "start_time": 37.2113636,
                "end_time": 37.2772727,
                "pitch": 46,
                "velocity": 101,
                "duration": 0.0659091,
                "tempo": 120.0
            },
            {
                "start_time": 37.3113636,
                "end_time": 37.3772727,
                "pitch": 34,
                "velocity": 101,
                "duration": 0.0659091,
                "tempo": 120.0
            },
            {
                "start_time": 37.4113636,
                "end_time": 37.4772727,
                "pitch": 41,
                "velocity": 101,
                "duration": 0.0659091,
                "tempo": 120.0
            },
            {
                "start_time": 37.5113636,
                "end_time": 37.5772727,
                "pitch": 46,
                "velocity": 101,
                "duration": 0.0659091,
                "tempo": 120.0
            },
            {
                "start_time": 37.6136364,
                "end_time": 37.6772727,
                "pitch": 34,
                "velocity": 101,
                "duration": 0.0636364,
                "tempo": 120.0
            },
            {
                "start_time": 37.7113636,
                "end_time": 37.7772727,
                "pitch": 46,
                "velocity": 101,
                "duration": 0.0659091,
                "tempo": 120.0
            },
            {
                "start_time": 37.8136364,
                "end_time": 37.8772727,
                "pitch": 34,
                "velocity": 101,
                "duration": 0.0636364,
                "tempo": 120.0
            },
            {
                "start_time": 37.9136364,
                "end_time": 37.9772727,
                "pitch": 41,
                "velocity": 101,
                "duration": 0.0636364,
                "tempo": 120.0
            },
            {
                "start_time": 38.0136364,
                "end_time": 38.0772727,
                "pitch": 46,
                "velocity": 101,
                "duration": 0.0636364,
                "tempo": 120.0
            },
            {
                "start_time": 38.1136364,
                "end_time": 38.1795455,
                "pitch": 34,
                "velocity": 101,
                "duration": 0.0659091,
                "tempo": 120.0
            },
            {
                "start_time": 38.2136364,
                "end_time": 38.2795455,
                "pitch": 41,
                "velocity": 101,
                "duration": 0.0659091,
                "tempo": 120.0
            },
            {
                "start_time": 38.3136364,
                "end_time": 38.3795455,
                "pitch": 46,
                "velocity": 101,
                "duration": 0.0659091,
                "tempo": 120.0
            },
            {
                "start_time": 38.4136364,
                "end_time": 38.4795455,
                "pitch": 34,
                "velocity": 101,
                "duration": 0.0659091,
                "tempo": 120.0
            },
            {
                "start_time": 38.5136364,
                "end_time": 38.5795455,
                "pitch": 46,
                "velocity": 101,
                "duration": 0.0659091,
                "tempo": 120.0
            },
            {
                "start_time": 38.6136364,
                "end_time": 38.7636364,
                "pitch": 36,
                "velocity": 101,
                "duration": 0.15,
                "tempo": 120.0
            },
            {
                "start_time": 38.8159091,
                "end_time": 38.9659091,
                "pitch": 48,
                "velocity": 101,
                "duration": 0.15,
                "tempo": 120.0
            },
            {
                "start_time": 39.0159091,
                "end_time": 39.1659091,
                "pitch": 33,
                "velocity": 101,
                "duration": 0.15,
                "tempo": 120.0
            },
            {
                "start_time": 39.2159091,
                "end_time": 39.3659091,
                "pitch": 45,
                "velocity": 101,
                "duration": 0.15,
                "tempo": 120.0
            },
            {
                "start_time": 39.4159091,
                "end_time": 39.5659091,
                "pitch": 34,
                "velocity": 101,
                "duration": 0.15,
                "tempo": 120.0
            },
            {
                "start_time": 39.6181818,
                "end_time": 39.7659091,
                "pitch": 46,
                "velocity": 101,
                "duration": 0.1477273,
                "tempo": 120.0
            },
            {
                "start_time": 39.8181818,
                "end_time": 39.9659091,
                "pitch": 35,
                "velocity": 101,
                "duration": 0.1477273,
                "tempo": 120.0
            },
            {
                "start_time": 40.0181818,
                "end_time": 40.1681818,
                "pitch": 47,
                "velocity": 101,
                "duration": 0.15,
                "tempo": 120.0
            },
            {
                "start_time": 40.2181818,
                "end_time": 40.3704545,
                "pitch": 36,
                "velocity": 101,
                "duration": 0.1522727,
                "tempo": 120.0
            },
            {
                "start_time": 40.4227273,
                "end_time": 40.5772727,
                "pitch": 48,
                "velocity": 101,
                "duration": 0.1545455,
                "tempo": 120.0
            },
            {
                "start_time": 40.6295455,
                "end_time": 40.775,
                "pitch": 33,
                "velocity": 101,
                "duration": 0.1454545,
                "tempo": 120.0
            },
            {
                "start_time": 40.825,
                "end_time": 40.9727273,
                "pitch": 45,
                "velocity": 101,
                "duration": 0.1477273,
                "tempo": 120.0
            },
            {
                "start_time": 41.0227273,
                "end_time": 41.1704545,
                "pitch": 34,
                "velocity": 101,
                "duration": 0.1477273,
                "tempo": 120.0
            },
            {
                "start_time": 41.2227273,
                "end_time": 41.3727273,
                "pitch": 46,
                "velocity": 101,
                "duration": 0.15,
                "tempo": 120.0
            },
            {
                "start_time": 41.4227273,
                "end_time": 41.5727273,
                "pitch": 35,
                "velocity": 101,
                "duration": 0.15,
                "tempo": 120.0
            },
            {
                "start_time": 41.6227273,
                "end_time": 41.7727273,
                "pitch": 47,
                "velocity": 101,
                "duration": 0.15,
                "tempo": 120.0
            },
            {
                "start_time": 41.8227273,
                "end_time": 41.9772727,
                "pitch": 36,
                "velocity": 101,
                "duration": 0.1545455,
                "tempo": 120.0
            },
            {
                "start_time": 42.0295455,
                "end_time": 42.1818182,
                "pitch": 48,
                "velocity": 101,
                "duration": 0.1522727,
                "tempo": 120.0
            },
            {
                "start_time": 42.2340909,
                "end_time": 42.3795455,
                "pitch": 33,
                "velocity": 101,
                "duration": 0.1454545,
                "tempo": 120.0
            },
            {
                "start_time": 42.4295455,
                "end_time": 42.5772727,
                "pitch": 45,
                "velocity": 101,
                "duration": 0.1477273,
                "tempo": 120.0
            },
            {
                "start_time": 42.6272727,
                "end_time": 42.7772727,
                "pitch": 34,
                "velocity": 101,
                "duration": 0.15,
                "tempo": 120.0
            },
            {
                "start_time": 42.8295455,
                "end_time": 42.9795455,
                "pitch": 46,
                "velocity": 101,
                "duration": 0.15,
                "tempo": 120.0
            },
            {
                "start_time": 43.0295455,
                "end_time": 43.1795455,
                "pitch": 35,
                "velocity": 101,
                "duration": 0.15,
                "tempo": 120.0
            },
            {
                "start_time": 43.2295455,
                "end_time": 43.3795455,
                "pitch": 47,
                "velocity": 101,
                "duration": 0.15,
                "tempo": 120.0
            },
            {
                "start_time": 43.4318182,
                "end_time": 43.5840909,
                "pitch": 36,
                "velocity": 101,
                "duration": 0.1522727,
                "tempo": 120.0
            },
            {
                "start_time": 43.6363636,
                "end_time": 43.7909091,
                "pitch": 48,
                "velocity": 101,
                "duration": 0.1545455,
                "tempo": 120.0
            },
            {
                "start_time": 43.8409091,
                "end_time": 43.9886364,
                "pitch": 33,
                "velocity": 101,
                "duration": 0.1477273,
                "tempo": 120.0
            },
            {
                "start_time": 44.0386364,
                "end_time": 44.1840909,
                "pitch": 45,
                "velocity": 101,
                "duration": 0.1454545,
                "tempo": 120.0
            },
            {
                "start_time": 44.2340909,
                "end_time": 44.3840909,
                "pitch": 34,
                "velocity": 101,
                "duration": 0.15,
                "tempo": 120.0
            },
            {
                "start_time": 44.4340909,
                "end_time": 44.5840909,
                "pitch": 46,
                "velocity": 101,
                "duration": 0.15,
                "tempo": 120.0
            },
            {
                "start_time": 44.6363636,
                "end_time": 44.7863636,
                "pitch": 35,
                "velocity": 101,
                "duration": 0.15,
                "tempo": 120.0
            },
            {
                "start_time": 44.8363636,
                "end_time": 44.9863636,
                "pitch": 47,
                "velocity": 101,
                "duration": 0.15,
                "tempo": 120.0
            },
            {
                "start_time": 45.0386364,
                "end_time": 45.1931818,
                "pitch": 36,
                "velocity": 101,
                "duration": 0.1545455,
                "tempo": 120.0
            },
            {
                "start_time": 45.2454545,
                "end_time": 45.3977273,
                "pitch": 48,
                "velocity": 101,
                "duration": 0.1522727,
                "tempo": 120.0
            },
            {
                "start_time": 45.45,
                "end_time": 45.6,
                "pitch": 33,
                "velocity": 101,
                "duration": 0.15,
                "tempo": 120.0
            },
            {
                "start_time": 45.65,
                "end_time": 45.8,
                "pitch": 45,
                "velocity": 101,
                "duration": 0.15,
                "tempo": 120.0
            },
            {
                "start_time": 45.85,
                "end_time": 46.0,
                "pitch": 34,
                "velocity": 101,
                "duration": 0.15,
                "tempo": 120.0
            },
            {
                "start_time": 46.05,
                "end_time": 46.2,
                "pitch": 46,
                "velocity": 101,
                "duration": 0.15,
                "tempo": 120.0
            },
            {
                "start_time": 46.2522727,
                "end_time": 46.4045455,
                "pitch": 35,
                "velocity": 101,
                "duration": 0.1522727,
                "tempo": 120.0
            },
            {
                "start_time": 46.4568182,
                "end_time": 46.6090909,
                "pitch": 47,
                "velocity": 101,
                "duration": 0.1522727,
                "tempo": 120.0
            },
            {
                "start_time": 46.6613636,
                "end_time": 46.8090909,
                "pitch": 36,
                "velocity": 101,
                "duration": 0.1477273,
                "tempo": 120.0
            },
            {
                "start_time": 46.8590909,
                "end_time": 47.0045455,
                "pitch": 48,
                "velocity": 101,
                "duration": 0.1454545,
                "tempo": 120.0
            },
            {
                "start_time": 47.0545455,
                "end_time": 47.2045455,
                "pitch": 33,
                "velocity": 101,
                "duration": 0.15,
                "tempo": 120.0
            },
            {
                "start_time": 47.2545455,
                "end_time": 47.4045455,
                "pitch": 45,
                "velocity": 101,
                "duration": 0.15,
                "tempo": 120.0
            },
            {
                "start_time": 47.4568182,
                "end_time": 47.6045455,
                "pitch": 34,
                "velocity": 101,
                "duration": 0.1477273,
                "tempo": 120.0
            },
            {
                "start_time": 47.6568182,
                "end_time": 47.8045455,
                "pitch": 46,
                "velocity": 101,
                "duration": 0.1477273,
                "tempo": 120.0
            },
            {
                "start_time": 47.8568182,
                "end_time": 48.0045455,
                "pitch": 35,
                "velocity": 101,
                "duration": 0.1477273,
                "tempo": 120.0
            },
            {
                "start_time": 48.0568182,
                "end_time": 48.2068182,
                "pitch": 47,
                "velocity": 101,
                "duration": 0.15,
                "tempo": 120.0
            },
            {
                "start_time": 48.2568182,
                "end_time": 48.4090909,
                "pitch": 36,
                "velocity": 101,
                "duration": 0.1522727,
                "tempo": 120.0
            },
            {
                "start_time": 48.4613636,
                "end_time": 48.6159091,
                "pitch": 48,
                "velocity": 101,
                "duration": 0.1545455,
                "tempo": 120.0
            },
            {
                "start_time": 48.6681818,
                "end_time": 48.8136364,
                "pitch": 33,
                "velocity": 101,
                "duration": 0.1454545,
                "tempo": 120.0
            },
            {
                "start_time": 48.8636364,
                "end_time": 49.0113636,
                "pitch": 45,
                "velocity": 101,
                "duration": 0.1477273,
                "tempo": 120.0
            },
            {
                "start_time": 49.0613636,
                "end_time": 49.2090909,
                "pitch": 34,
                "velocity": 101,
                "duration": 0.1477273,
                "tempo": 120.0
            },
            {
                "start_time": 49.2613636,
                "end_time": 49.4113636,
                "pitch": 46,
                "velocity": 101,
                "duration": 0.15,
                "tempo": 120.0
            },
            {
                "start_time": 49.4613636,
                "end_time": 49.6113636,
                "pitch": 35,
                "velocity": 101,
                "duration": 0.15,
                "tempo": 120.0
            },
            {
                "start_time": 49.6613636,
                "end_time": 49.8113636,
                "pitch": 47,
                "velocity": 101,
                "duration": 0.15,
                "tempo": 120.0
            },
            {
                "start_time": 49.8613636,
                "end_time": 50.0159091,
                "pitch": 36,
                "velocity": 101,
                "duration": 0.1545455,
                "tempo": 120.0
            },
            {
                "start_time": 50.0681818,
                "end_time": 50.2204545,
                "pitch": 48,
                "velocity": 101,
                "duration": 0.1522727,
                "tempo": 120.0
            },
            {
                "start_time": 50.2727273,
                "end_time": 50.4227273,
                "pitch": 33,
                "velocity": 101,
                "duration": 0.15,
                "tempo": 120.0
            },
            {
                "start_time": 50.4727273,
                "end_time": 50.6227273,
                "pitch": 45,
                "velocity": 101,
                "duration": 0.15,
                "tempo": 120.0
            },
            {
                "start_time": 50.6727273,
                "end_time": 50.8227273,
                "pitch": 34,
                "velocity": 101,
                "duration": 0.15,
                "tempo": 120.0
            },
            {
                "start_time": 50.875,
                "end_time": 51.0227273,
                "pitch": 46,
                "velocity": 101,
                "duration": 0.1477273,
                "tempo": 120.0
            },
            {
                "start_time": 51.075,
                "end_time": 51.2227273,
                "pitch": 35,
                "velocity": 101,
                "duration": 0.1477273,
                "tempo": 120.0
            },
            {
                "start_time": 51.275,
                "end_time": 51.425,
                "pitch": 47,
                "velocity": 101,
                "duration": 0.15,
                "tempo": 120.0
            }
        ]
    }
}