{
    "mood": "happy",
    "instruments": {
        "Electric Piano 1": [
            {
                "start_time": 0.4386364,
                "end_time": 0.9340909,
                "pitch": 56,
                "velocity": 25,
                "duration": 0.4954545,
                "tempo": 120.0
            },
            {
                "start_time": 1.1909091,
                "end_time": 1.425,
                "pitch": 56,
                "velocity": 25,
                "duration": 0.2340909,
                "tempo": 120.0
            },
            {
                "start_time": 1.6568182,
                "end_time": 1.9045455,
                "pitch": 56,
                "velocity": 25,
                "duration": 0.2477273,
                "tempo": 120.0
            },
            {
                "start_time": 2.3909091,
                "end_time": 2.8636364,
                "pitch": 56,
                "velocity": 25,
                "duration": 0.4727273,
                "tempo": 120.0
            },
            {
                "start_time": 3.1136364,
                "end_time": 3.3477273,
                "pitch": 56,
                "velocity": 25,
                "duration": 0.2340909,
                "tempo": 120.0
            },
            {
                "start_time": 3.5977273,
                "end_time": 3.8318182,
                "pitch": 56,
                "velocity": 25,
                "duration": 0.2340909,
                "tempo": 120.0
            },
            {
                "start_time": 4.0636364,
                "end_time": 4.3113636,
                "pitch": 56,
                "velocity": 25,
                "duration": 0.2477273,
                "tempo": 120.0
            },
            {
                "start_time": 4.3113636,
                "end_time": 4.7977273,
                "pitch": 54,
                "velocity": 25,
                "duration": 0.4863636,
                "tempo": 120.0
            },
            {
                "start_time": 5.0363636,
                "end_time": 5.2704545,
                "pitch": 54,
                "velocity": 25,
                "duration": 0.2340909,
                "tempo": 120.0
            },
            {
                "start_time": 5.5204545,
                "end_time": 6.2431818,
                "pitch": 54,
                "velocity": 25,
                "duration": 0.7227273,
                "tempo": 120.0
            },
            {
                "start_time": 6.2431818,
                "end_time": 6.7272727,
                "pitch": 56,
                "velocity": 25,
                "duration": 0.4840909,
                "tempo": 120.0
            },
            {
                "start_time": 6.9636364,
                "end_time": 7.2136364,
                "pitch": 56,
                "velocity": 25,
                "duration": 0.25,
                "tempo": 120.0
            },
            {
                "start_time": 7.4454545,
                "end_time": 7.6863636,
                "pitch": 56,
                "velocity": 25,
                "duration": 0.2409091,
                "tempo": 120.0
            },
            {
                "start_time": 8.1681818,
                "end_time": 8.6590909,
                "pitch": 59,
                "velocity": 25,
                "duration": 0.4909091,
                "tempo": 120.0
            },
            {
                "start_time": 8.8977273,
                "end_time": 9.15,
                "pitch": 59,
                "velocity": 25,
                "duration": 0.2522727,
                "tempo": 120.0
            },
            {
                "start_time": 9.3863636,
                "end_time": 9.6340909,
                "pitch": 59,
                "velocity": 25,
                "duration": 0.2477273,
                "tempo": 120.0
            },
            {
                "start_time": 10.0977273,
                "end_time": 10.5931818,
                "pitch": 59,
                "velocity": 25,
                "duration": 0.4954545,
                "tempo": 120.0
            },
            {
                "start_time": 10.8545455,
                "end_time": 11.0886364,
                "pitch": 59,
                "velocity": 25,
                "duration": 0.2340909,
                "tempo": 120.0
            },
            {
                "start_time": 11.3272727,
                "end_time": 11.5659091,
                "pitch": 59,
                "velocity": 25,
                "duration": 0.2386364,
                "tempo": 120.0
            },
            {
                "start_time": 11.7886364,
                "end_time": 12.0454545,
                "pitch": 59,
                "velocity": 25,
                "duration": 0.2568182,
                "tempo": 120.0
            },
            {
                "start_time": 12.0454545,
                "end_time": 12.525,
                "pitch": 59,
                "velocity": 25,
                "duration": 0.4795455,
                "tempo": 120.0
            },
            {
                "start_time": 12.7840909,
                "end_time": 13.0113636,
                "pitch": 59,
                "velocity": 25,
                "duration": 0.2272727,
                "tempo": 120.0
            },
            {
                "start_time": 13.2568182,
                "end_time": 13.9795455,
                "pitch": 59,
                "velocity": 25,
                "duration": 0.7227273,
                "tempo": 120.0
            },
            {
                "start_time": 13.9795455,
                "end_time": 14.4681818,
                "pitch": 58,
                "velocity": 25,
                "duration": 0.4886364,
                "tempo": 120.0
            },
            {
                "start_time": 14.7090909,
                "end_time": 14.9318182,
                "pitch": 58,
                "velocity": 25,
                "duration": 0.2227273,
                "tempo": 120.0
            },
            {
                "start_time": 15.1727273,
                "end_time": 15.4363636,
                "pitch": 58,
                "velocity": 25,
                "duration": 0.2636364,
                "tempo": 120.0
            },
            {
                "start_time": 16.0409091,
                "end_time": 16.6568182,
                "pitch": 59,
                "velocity": 25,
                "duration": 0.6159091,
                "tempo": 120.0
            },
            {
                "start_time": 16.8909091,
                "end_time": 17.1431818,
                "pitch": 59,
                "velocity": 25,
                "duration": 0.2522727,
                "tempo": 120.0
            },
            {
                "start_time": 17.3818182,
                "end_time": 17.6227273,
                "pitch": 59,
                "velocity": 25,
                "duration": 0.2409091,
                "tempo": 120.0
            },
            {
                "start_time": 18.0886364,
                "end_time": 18.5840909,
                "pitch": 59,
                "velocity": 25,
                "duration": 0.4954545,
                "tempo": 120.0
            },
            {
                "start_time": 18.8204545,
                "end_time": 19.0704545,
                "pitch": 59,
                "velocity": 25,
                "duration": 0.25,
                "tempo": 120.0
            },
            {
                "start_time": 19.3045455,
                "end_time": 19.5545455,
                "pitch": 59,
                "velocity": 25,
                "duration": 0.25,
                "tempo": 120.0
            },
            {
                "start_time": 19.7931818,
                "end_time": 20.0340909,
                "pitch": 59,
                "velocity": 25,
                "duration": 0.2409091,
                "tempo": 120.0
            },
            {
                "start_time": 20.0340909,
                "end_time": 20.5090909,
                "pitch": 59,
                "velocity": 25,
                "duration": 0.475,
                "tempo": 120.0
            },
            {
                "start_time": 20.7636364,
                "end_time": 20.9977273,
                "pitch": 59,
                "velocity": 25,
                "duration": 0.2340909,
                "tempo": 120.0
            },
            {
                "start_time": 21.2318182,
                "end_time": 21.9818182,
                "pitch": 59,
                "velocity": 25,
                "duration": 0.75,
                "tempo": 120.0
            },
            {
                "start_time": 21.9818182,
                "end_time": 22.4522727,
                "pitch": 58,
                "velocity": 25,
                "duration": 0.4704545,
                "tempo": 120.0
            },
            {
                "start_time": 22.7,
                "end_time": 22.9295455,
                "pitch": 58,
                "velocity": 25,
                "duration": 0.2295455,
                "tempo": 120.0
            },
            {
                "start_time": 23.1772727,
                "end_time": 23.4136364,
                "pitch": 58,
                "velocity": 25,
                "duration": 0.2363636,
                "tempo": 120.0
            },
            {
                "start_time": 23.9090909,
                "end_time": 24.3954545,
                "pitch": 59,
                "velocity": 25,
                "duration": 0.4863636,
                "tempo": 120.0
            },
            {
                "start_time": 24.6363636,
                "end_time": 24.875,
                "pitch": 59,
                "velocity": 25,
                "duration": 0.2386364,
                "tempo": 120.0
            },
            {
                "start_time": 25.1136364,
                "end_time": 25.3409091,
                "pitch": 59,
                "velocity": 25,
                "duration": 0.2272727,
                "tempo": 120.0
            },
            {
                "start_time": 25.8363636,
                "end_time": 26.3227273,
                "pitch": 59,
                "velocity": 25,
                "duration": 0.4863636,
                "tempo": 120.0
            },
            {
                "start_time": 26.5590909,
                "end_time": 26.8113636,
                "pitch": 59,
                "velocity": 25,
                "duration": 0.2522727,
                "tempo": 120.0
            },
            {
                "start_time": 27.05,
                "end_time": 27.2909091,
                "pitch": 59,
                "velocity": 25,
                "duration": 0.2409091,
                "tempo": 120.0
            },
            {
                "start_time": 27.5363636,
                "end_time": 27.7659091,
                "pitch": 59,
                "velocity": 25,
                "duration": 0.2295455,
                "tempo": 120.0
            },
            {
                "start_time": 27.7659091,
                "end_time": 28.2545455,
                "pitch": 59,
                "velocity": 25,
                "duration": 0.4886364,
                "tempo": 120.0
            },
            {
                "start_time": 28.4909091,
                "end_time": 28.7409091,
                "pitch": 59,
                "velocity": 25,
                "duration": 0.25,
                "tempo": 120.0
            },
            {
                "start_time": 28.9795455,
                "end_time": 29.7090909,
                "pitch": 59,
                "velocity": 25,
                "duration": 0.7295455,
                "tempo": 120.0
            },
            {
                "start_time": 29.7090909,
                "end_time": 30.1840909,
                "pitch": 58,
                "velocity": 25,
                "duration": 0.475,
                "tempo": 120.0
            },
            {
                "start_time": 30.4386364,
                "end_time": 30.6727273,
                "pitch": 58,
                "velocity": 25,
                "duration": 0.2340909,
                "tempo": 120.0
            },
            {
                "start_time": 30.9113636,
                "end_time": 62.0545455,
                "pitch": 58,
                "velocity": 25,
                "duration": 31.1431818,
                "tempo": 120.0
            },
            {
                "start_time": 62.55,
                "end_time": 63.0340909,
                "pitch": 57,
                "velocity": 25,
                "duration": 0.4840909,
                "tempo": 120.0
            },
            {
                "start_time": 63.2681818,
                "end_time": 63.5,
                "pitch": 57,
                "velocity": 25,
                "duration": 0.2318182,
                "tempo": 120.0
            },
            {
                "start_time": 63.7454545,
                "end_time": 63.9772727,
                "pitch": 57,
                "velocity": 25,
                "duration": 0.2318182,
                "tempo": 120.0
            },
            {
                "start_time": 64.4727273,
                "end_time": 64.9590909,
                "pitch": 57,
                "velocity": 25,
                "duration": 0.4863636,
                "tempo": 120.0
            },
            {
                "start_time": 65.2,
                "end_time": 65.4568182,
                "pitch": 57,
                "velocity": 25,
                "duration": 0.2568182,
                "tempo": 120.0
            },
            {
                "start_time": 65.6909091,
                "end_time": 65.9272727,
                "pitch": 57,
                "velocity": 25,
                "duration": 0.2363636,
                "tempo": 120.0
            },
            {
                "start_time": 66.1727273,
                "end_time": 66.4045455,
                "pitch": 57,
                "velocity": 25,
                "duration": 0.2318182,
                "tempo": 120.0
            },
            {
                "start_time": 66.4045455,
                "end_time": 66.8909091,
                "pitch": 55,
                "velocity": 25,
                "duration": 0.4863636,
                "tempo": 120.0
            },
            {
                "start_time": 67.125,
                "end_time": 67.375,
                "pitch": 55,
                "velocity": 25,
                "duration": 0.25,
                "tempo": 120.0
            },
            {
                "start_time": 67.6136364,
                "end_time": 68.3409091,
                "pitch": 55,
                "velocity": 25,
                "duration": 0.7272727,
                "tempo": 120.0
            },
            {
                "start_time": 68.3431818,
                "end_time": 68.8181818,
                "pitch": 57,
                "velocity": 25,
                "duration": 0.475,
                "tempo": 120.0
            },
            {
                "start_time": 69.0681818,
                "end_time": 69.3022727,
                "pitch": 57,
                "velocity": 25,
                "duration": 0.2340909,
                "tempo": 120.0
            },
            {
                "start_time": 69.5409091,
                "end_time": 85.2613636,
                "pitch": 57,
                "velocity": 25,
                "duration": 15.7204545,
                "tempo": 120.0
            },
            {
                "start_time": 85.7386364,
                "end_time": 86.225,
                "pitch": 57,
                "velocity": 25,
                "duration": 0.4863636,
                "tempo": 120.0
            },
            {
                "start_time": 86.4659091,
                "end_time": 86.7204545,
                "pitch": 57,
                "velocity": 25,
                "duration": 0.2545455,
                "tempo": 120.0
            },
            {
                "start_time": 86.9545455,
                "end_time": 87.2090909,
                "pitch": 57,
                "velocity": 25,
                "duration": 0.2545455,
                "tempo": 120.0
            },
            {
                "start_time": 87.6795455,
                "end_time": 88.1568182,
                "pitch": 57,
                "velocity": 25,
                "duration": 0.4772727,
                "tempo": 120.0
            },
            {
                "start_time": 88.4136364,
                "end_time": 88.6522727,
                "pitch": 57,
                "velocity": 25,
                "duration": 0.2386364,
                "tempo": 120.0
            },
            {
                "start_time": 88.8886364,
                "end_time": 89.1386364,
                "pitch": 57,
                "velocity": 25,
                "duration": 0.25,
                "tempo": 120.0
            },
            {
                "start_time": 89.375,
                "end_time": 89.6272727,
                "pitch": 57,
                "velocity": 25,
                "duration": 0.2522727,
                "tempo": 120.0
            },
            {
                "start_time": 89.6272727,
                "end_time": 90.1068182,
                "pitch": 55,
                "velocity": 25,
                "duration": 0.4795455,
                "tempo": 120.0
            },
            {
                "start_time": 90.3522727,
                "end_time": 90.5818182,
                "pitch": 55,
                "velocity": 25,
                "duration": 0.2295455,
                "tempo": 120.0
            },
            {
                "start_time": 90.8340909,
                "end_time": 91.5545455,
                "pitch": 55,
                "velocity": 25,
                "duration": 0.7204545,
                "tempo": 120.0
            },
            {
                "start_time": 91.5545455,
                "end_time": 92.05,
                "pitch": 57,
                "velocity": 25,
                "duration": 0.4954545,
                "tempo": 120.0
            },
            {
                "start_time": 92.2840909,
                "end_time": 92.5181818,
                "pitch": 57,
                "velocity": 25,
                "duration": 0.2340909,
                "tempo": 120.0
            },
            {
                "start_time": 92.7636364,
                "end_time": 123.8727273,
                "pitch": 57,
                "velocity": 25,
                "duration": 31.1090909,
                "tempo": 120.0
            }
        ],
        "Acoustic Guitar (nylon)": [
            {
                "start_time": 31.6568182,
                "end_time": 31.7704545,
                "pitch": 25,
                "velocity": 32,
                "duration": 0.1136364,
                "tempo": 120.0
            },
            {
                "start_time": 31.7727273,
                "end_time": 31.8886364,
                "pitch": 28,
                "velocity": 32,
                "duration": 0.1159091,
                "tempo": 120.0
            },
            {
                "start_time": 31.8886364,
                "end_time": 32.0068182,
                "pitch": 32,
                "velocity": 32,
                "duration": 0.1181818,
                "tempo": 120.0
            },
            {
                "start_time": 32.0068182,
                "end_time": 32.1227273,
                "pitch": 37,
                "velocity": 32,
                "duration": 0.1159091,
                "tempo": 120.0
            },
            {
                "start_time": 32.125,
                "end_time": 32.2568182,
                "pitch": 40,
                "velocity": 32,
                "duration": 0.1318182,
                "tempo": 120.0
            },
            {
                "start_time": 32.2568182,
                "end_time": 32.375,
                "pitch": 44,
                "velocity": 32,
                "duration": 0.1181818,
                "tempo": 120.0
            },
            {
                "start_time": 32.3772727,
                "end_time": 32.4931818,
                "pitch": 49,
                "velocity": 32,
                "duration": 0.1159091,
                "tempo": 120.0
            },
            {
                "start_time": 32.4931818,
                "end_time": 32.6113636,
                "pitch": 52,
                "velocity": 32,
                "duration": 0.1181818,
                "tempo": 120.0
            },
            {
                "start_time": 32.6113636,
                "end_time": 32.7272727,
                "pitch": 56,
                "velocity": 32,
                "duration": 0.1159091,
                "tempo": 120.0
            },
            {
                "start_time": 32.7272727,
                "end_time": 32.8636364,
                "pitch": 61,
                "velocity": 32,
                "duration": 0.1363636,
                "tempo": 120.0
            },
            {
                "start_time": 32.8636364,
                "end_time": 32.9818182,
                "pitch": 64,
                "velocity": 32,
                "duration": 0.1181818,
                "tempo": 120.0
            },
            {
                "start_time": 32.9818182,
                "end_time": 33.1,
                "pitch": 68,
                "velocity": 32,
                "duration": 0.1181818,
                "tempo": 120.0
            },
            {
                "start_time": 33.1,
                "end_time": 33.2159091,
                "pitch": 73,
                "velocity": 32,
                "duration": 0.1159091,
                "tempo": 120.0
            },
            {
                "start_time": 33.2159091,
                "end_time": 33.3340909,
                "pitch": 76,
                "velocity": 32,
                "duration": 0.1181818,
                "tempo": 120.0
            },
            {
                "start_time": 33.3340909,
                "end_time": 33.4659091,
                "pitch": 80,
                "velocity": 32,
                "duration": 0.1318182,
                "tempo": 120.0
            },
            {
                "start_time": 33.4659091,
                "end_time": 33.5840909,
                "pitch": 85,
                "velocity": 32,
                "duration": 0.1181818,
                "tempo": 120.0
            },
            {
                "start_time": 33.5840909,
                "end_time": 33.6977273,
                "pitch": 25,
                "velocity": 32,
                "duration": 0.1136364,
                "tempo": 120.0
            },
            {
                "start_time": 33.6977273,
                "end_time": 33.8159091,
                "pitch": 29,
                "velocity": 32,
                "duration": 0.1181818,
                "tempo": 120.0
            },
            {
                "start_time": 33.8159091,
                "end_time": 33.9318182,
                "pitch": 32,
                "velocity": 32,
                "duration": 0.1159091,
                "tempo": 120.0
            },
            {
                "start_time": 33.9340909,
                "end_time": 34.0681818,
                "pitch": 37,
                "velocity": 32,
                "duration": 0.1340909,
                "tempo": 120.0
            },
            {
                "start_time": 34.0681818,
                "end_time": 34.1863636,
                "pitch": 41,
                "velocity": 32,
                "duration": 0.1181818,
                "tempo": 120.0
            },
            {
                "start_time": 34.1863636,
                "end_time": 34.3068182,
                "pitch": 44,
                "velocity": 32,
                "duration": 0.1204545,
                "tempo": 120.0
            },
            {
                "start_time": 34.3068182,
                "end_time": 34.425,
                "pitch": 49,
                "velocity": 32,
                "duration": 0.1181818,
                "tempo": 120.0
            },
            {
                "start_time": 34.425,
                "end_time": 34.5454545,
                "pitch": 53,
                "velocity": 32,
                "duration": 0.1204545,
                "tempo": 120.0
            },
            {
                "start_time": 34.5454545,
                "end_time": 34.675,
                "pitch": 56,
                "velocity": 32,
                "duration": 0.1295455,
                "tempo": 120.0
            },
            {
                "start_time": 34.675,
                "end_time": 34.7931818,
                "pitch": 61,
                "velocity": 32,
                "duration": 0.1181818,
                "tempo": 120.0
            },
            {
                "start_time": 34.7931818,
                "end_time": 34.9068182,
                "pitch": 65,
                "velocity": 32,
                "duration": 0.1136364,
                "tempo": 120.0
            },
            {
                "start_time": 34.9068182,
                "end_time": 35.0227273,
                "pitch": 68,
                "velocity": 32,
                "duration": 0.1159091,
                "tempo": 120.0
            },
            {
                "start_time": 35.0227273,
                "end_time": 35.1386364,
                "pitch": 73,
                "velocity": 32,
                "duration": 0.1159091,
                "tempo": 120.0
            },
            {
                "start_time": 35.1386364,
                "end_time": 35.275,
                "pitch": 77,
                "velocity": 32,
                "duration": 0.1363636,
                "tempo": 120.0
            },
            {
                "start_time": 35.275,
                "end_time": 35.3931818,
                "pitch": 80,
                "velocity": 32,
                "duration": 0.1181818,
                "tempo": 120.0
            },
            {
                "start_time": 35.3931818,
                "end_time": 35.5090909,
                "pitch": 85,
                "velocity": 32,
                "duration": 0.1159091,
                "tempo": 120.0
            },
            {
                "start_time": 35.5113636,
                "end_time": 35.625,
                "pitch": 25,
                "velocity": 32,
                "duration": 0.1136364,
                "tempo": 120.0
            },
            {
                "start_time": 35.625,
                "end_time": 35.7431818,
                "pitch": 30,
                "velocity": 32,
                "duration": 0.1181818,
                "tempo": 120.0
            },
            {
                "start_time": 35.7431818,
                "end_time": 35.8772727,
                "pitch": 34,
                "velocity": 32,
                "duration": 0.1340909,
                "tempo": 120.0
            },
            {
                "start_time": 35.8772727,
                "end_time": 35.9931818,
                "pitch": 37,
                "velocity": 32,
                "duration": 0.1159091,
                "tempo": 120.0
            },
            {
                "start_time": 35.9931818,
                "end_time": 36.1136364,
                "pitch": 42,
                "velocity": 32,
                "duration": 0.1204545,
                "tempo": 120.0
            },
            {
                "start_time": 36.1136364,
                "end_time": 36.2340909,
                "pitch": 46,
                "velocity": 32,
                "duration": 0.1204545,
                "tempo": 120.0
            },
            {
                "start_time": 36.2340909,
                "end_time": 36.3522727,
                "pitch": 49,
                "velocity": 32,
                "duration": 0.1181818,
                "tempo": 120.0
            },
            {
                "start_time": 36.3522727,
                "end_time": 36.4909091,
                "pitch": 54,
                "velocity": 32,
                "duration": 0.1386364,
                "tempo": 120.0
            },
            {
                "start_time": 36.4909091,
                "end_time": 36.6045455,
                "pitch": 58,
                "velocity": 32,
                "duration": 0.1136364,
                "tempo": 120.0
            },
            {
                "start_time": 36.6045455,
                "end_time": 36.7227273,
                "pitch": 61,
                "velocity": 32,
                "duration": 0.1181818,
                "tempo": 120.0
            },
            {
                "start_time": 36.7227273,
                "end_time": 36.8386364,
                "pitch": 66,
                "velocity": 32,
                "duration": 0.1159091,
                "tempo": 120.0
            },
            {
                "start_time": 36.8386364,
                "end_time": 36.9568182,
                "pitch": 70,
                "velocity": 32,
                "duration": 0.1181818,
                "tempo": 120.0
            },
            {
                "start_time": 36.9568182,
                "end_time": 37.0863636,
                "pitch": 73,
                "velocity": 32,
                "duration": 0.1295455,
                "tempo": 120.0
            },
            {
                "start_time": 37.0886364,
                "end_time": 37.2022727,
                "pitch": 78,
                "velocity": 32,
                "duration": 0.1136364,
                "tempo": 120.0
            },
            {
                "start_time": 37.2045455,
                "end_time": 37.3181818,
                "pitch": 82,
                "velocity": 32,
                "duration": 0.1136364,
                "tempo": 120.0
            },
            {
                "start_time": 37.3181818,
                "end_time": 37.4340909,
                "pitch": 85,
                "velocity": 32,
                "duration": 0.1159091,
                "tempo": 120.0
            },
            {
                "start_time": 37.4340909,
                "end_time": 37.5477273,
                "pitch": 27,
                "velocity": 32,
                "duration": 0.1136364,
                "tempo": 120.0
            },
            {
                "start_time": 37.5477273,
                "end_time": 37.6818182,
                "pitch": 31,
                "velocity": 32,
                "duration": 0.1340909,
                "tempo": 120.0
            },
            {
                "start_time": 37.6818182,
                "end_time": 37.8,
                "pitch": 34,
                "velocity": 32,
                "duration": 0.1181818,
                "tempo": 120.0
            },
            {
                "start_time": 37.8,
                "end_time": 37.9159091,
                "pitch": 39,
                "velocity": 32,
                "duration": 0.1159091,
                "tempo": 120.0
            },
            {
                "start_time": 37.9159091,
                "end_time": 38.0363636,
                "pitch": 43,
                "velocity": 32,
                "duration": 0.1204545,
                "tempo": 120.0
            },
            {
                "start_time": 38.0363636,
                "end_time": 38.1568182,
                "pitch": 46,
                "velocity": 32,
                "duration": 0.1204545,
                "tempo": 120.0
            },
            {
                "start_time": 38.1568182,
                "end_time": 38.2909091,
                "pitch": 51,
                "velocity": 32,
                "duration": 0.1340909,
                "tempo": 120.0
            },
            {
                "start_time": 38.2909091,
                "end_time": 38.4136364,
                "pitch": 55,
                "velocity": 32,
                "duration": 0.1227273,
                "tempo": 120.0
            },
            {
                "start_time": 38.4136364,
                "end_time": 38.5295455,
                "pitch": 58,
                "velocity": 32,
                "duration": 0.1159091,
                "tempo": 120.0
            },
            {
                "start_time": 38.5295455,
                "end_time": 38.6454545,
                "pitch": 63,
                "velocity": 32,
                "duration": 0.1159091,
                "tempo": 120.0
            },
            {
                "start_time": 38.6454545,
                "end_time": 38.7636364,
                "pitch": 67,
                "velocity": 32,
                "duration": 0.1181818,
                "tempo": 120.0
            },
            {
                "start_time": 38.7636364,
                "end_time": 38.8977273,
                "pitch": 70,
                "velocity": 32,
                "duration": 0.1340909,
                "tempo": 120.0
            },
            {
                "start_time": 39.3681818,
                "end_time": 39.4977273,
                "pitch": 25,
                "velocity": 32,
                "duration": 0.1295455,
                "tempo": 120.0
            },
            {
                "start_time": 39.4977273,
                "end_time": 39.6136364,
                "pitch": 28,
                "velocity": 32,
                "duration": 0.1159091,
                "tempo": 120.0
            },
            {
                "start_time": 39.6136364,
                "end_time": 39.7272727,
                "pitch": 32,
                "velocity": 32,
                "duration": 0.1136364,
                "tempo": 120.0
            },
            {
                "start_time": 39.7295455,
                "end_time": 39.8431818,
                "pitch": 37,
                "velocity": 32,
                "duration": 0.1136364,
                "tempo": 120.0
            },
            {
                "start_time": 39.8431818,
                "end_time": 39.9636364,
                "pitch": 40,
                "velocity": 32,
                "duration": 0.1204545,
                "tempo": 120.0
            },
            {
                "start_time": 39.9636364,
                "end_time": 40.1,
                "pitch": 44,
                "velocity": 32,
                "duration": 0.1363636,
                "tempo": 120.0
            },
            {
                "start_time": 40.1,
                "end_time": 40.2181818,
                "pitch": 49,
                "velocity": 32,
                "duration": 0.1181818,
                "tempo": 120.0
            },
            {
                "start_time": 40.2204545,
                "end_time": 40.3409091,
                "pitch": 52,
                "velocity": 32,
                "duration": 0.1204545,
                "tempo": 120.0
            },
            {
                "start_time": 40.3409091,
                "end_time": 40.4545455,
                "pitch": 56,
                "velocity": 32,
                "duration": 0.1136364,
                "tempo": 120.0
            },
            {
                "start_time": 40.4568182,
                "end_time": 40.575,
                "pitch": 61,
                "velocity": 32,
                "duration": 0.1181818,
                "tempo": 120.0
            },
            {
                "start_time": 40.575,
                "end_time": 40.7090909,
                "pitch": 64,
                "velocity": 32,
                "duration": 0.1340909,
                "tempo": 120.0
            },
            {
                "start_time": 40.7090909,
                "end_time": 40.8272727,
                "pitch": 68,
                "velocity": 32,
                "duration": 0.1181818,
                "tempo": 120.0
            },
            {
                "start_time": 40.8272727,
                "end_time": 40.9431818,
                "pitch": 73,
                "velocity": 32,
                "duration": 0.1159091,
                "tempo": 120.0
            },
            {
                "start_time": 40.9431818,
                "end_time": 41.0613636,
                "pitch": 76,
                "velocity": 32,
                "duration": 0.1181818,
                "tempo": 120.0
            },
            {
                "start_time": 41.0613636,
                "end_time": 41.1772727,
                "pitch": 80,
                "velocity": 32,
                "duration": 0.1159091,
                "tempo": 120.0
            },
            {
                "start_time": 41.1772727,
                "end_time": 41.3113636,
                "pitch": 85,
                "velocity": 32,
                "duration": 0.1340909,
                "tempo": 120.0
            },
            {
                "start_time": 41.3113636,
                "end_time": 41.4295455,
                "pitch": 25,
                "velocity": 32,
                "duration": 0.1181818,
                "tempo": 120.0
            },
            {
                "start_time": 41.4295455,
                "end_time": 41.55,
                "pitch": 29,
                "velocity": 32,
                "duration": 0.1204545,
                "tempo": 120.0
            },
            {
                "start_time": 41.55,
                "end_time": 41.6704545,
                "pitch": 32,
                "velocity": 32,
                "duration": 0.1204545,
                "tempo": 120.0
            },
            {
                "start_time": 41.6704545,
                "end_time": 41.7909091,
                "pitch": 37,
                "velocity": 32,
                "duration": 0.1204545,
                "tempo": 120.0
            },
            {
                "start_time": 41.7909091,
                "end_time": 41.9204545,
                "pitch": 41,
                "velocity": 32,
                "duration": 0.1295455,
                "tempo": 120.0
            },
            {
                "start_time": 41.9204545,
                "end_time": 42.0363636,
                "pitch": 44,
                "velocity": 32,
                "duration": 0.1159091,
                "tempo": 120.0
            },
            {
                "start_time": 42.0363636,
                "end_time": 42.15,
                "pitch": 49,
                "velocity": 32,
                "duration": 0.1136364,
                "tempo": 120.0
            },
            {
                "start_time": 42.15,
                "end_time": 42.2659091,
                "pitch": 53,
                "velocity": 32,
                "duration": 0.1159091,
                "tempo": 120.0
            },
            {
                "start_time": 42.2659091,
                "end_time": 42.3818182,
                "pitch": 56,
                "velocity": 32,
                "duration": 0.1159091,
                "tempo": 120.0
            },
            {
                "start_time": 42.3818182,
                "end_time": 42.5181818,
                "pitch": 61,
                "velocity": 32,
                "duration": 0.1363636,
                "tempo": 120.0
            },
            {
                "start_time": 42.5181818,
                "end_time": 42.6363636,
                "pitch": 65,
                "velocity": 32,
                "duration": 0.1181818,
                "tempo": 120.0
            },
            {
                "start_time": 42.6363636,
                "end_time": 42.7545455,
                "pitch": 68,
                "velocity": 32,
                "duration": 0.1181818,
                "tempo": 120.0
            },
            {
                "start_time": 42.7545455,
                "end_time": 42.8704545,
                "pitch": 73,
                "velocity": 32,
                "duration": 0.1159091,
                "tempo": 120.0
            },
            {
                "start_time": 42.8704545,
                "end_time": 42.9886364,
                "pitch": 77,
                "velocity": 32,
                "duration": 0.1181818,
                "tempo": 120.0
            },
            {
                "start_time": 42.9886364,
                "end_time": 43.1204545,
                "pitch": 80,
                "velocity": 32,
                "duration": 0.1318182,
                "tempo": 120.0
            },
            {
                "start_time": 43.1227273,
                "end_time": 43.2386364,
                "pitch": 85,
                "velocity": 32,
                "duration": 0.1159091,
                "tempo": 120.0
            },
            {
                "start_time": 43.2386364,
                "end_time": 43.3568182,
                "pitch": 25,
                "velocity": 32,
                "duration": 0.1181818,
                "tempo": 120.0
            },
            {
                "start_time": 43.3568182,
                "end_time": 43.4772727,
                "pitch": 30,
                "velocity": 32,
                "duration": 0.1204545,
                "tempo": 120.0
            },
            {
                "start_time": 43.4772727,
                "end_time": 43.5954545,
                "pitch": 34,
                "velocity": 32,
                "duration": 0.1181818,
                "tempo": 120.0
            },
            {
                "start_time": 43.5954545,
                "end_time": 43.7340909,
                "pitch": 37,
                "velocity": 32,
                "duration": 0.1386364,
                "tempo": 120.0
            },
            {
                "start_time": 43.7340909,
                "end_time": 43.85,
                "pitch": 42,
                "velocity": 32,
                "duration": 0.1159091,
                "tempo": 120.0
            },
            {
                "start_time": 43.85,
                "end_time": 43.9681818,
                "pitch": 46,
                "velocity": 32,
                "duration": 0.1181818,
                "tempo": 120.0
            },
            {
                "start_time": 43.9681818,
                "end_time": 44.0840909,
                "pitch": 49,
                "velocity": 32,
                "duration": 0.1159091,
                "tempo": 120.0
            },
            {
                "start_time": 44.0840909,
                "end_time": 44.2022727,
                "pitch": 54,
                "velocity": 32,
                "duration": 0.1181818,
                "tempo": 120.0
            },
            {
                "start_time": 44.2022727,
                "end_time": 44.3318182,
                "pitch": 58,
                "velocity": 32,
                "duration": 0.1295455,
                "tempo": 120.0
            },
            {
                "start_time": 44.3318182,
                "end_time": 44.4477273,
                "pitch": 61,
                "velocity": 32,
                "duration": 0.1159091,
                "tempo": 120.0
            },
            {
                "start_time": 44.4477273,
                "end_time": 44.5613636,
                "pitch": 66,
                "velocity": 32,
                "duration": 0.1136364,
                "tempo": 120.0
            },
            {
                "start_time": 44.5613636,
                "end_time": 44.6772727,
                "pitch": 70,
                "velocity": 32,
                "duration": 0.1159091,
                "tempo": 120.0
            },
            {
                "start_time": 44.6772727,
                "end_time": 44.7954545,
                "pitch": 73,
                "velocity": 32,
                "duration": 0.1181818,
                "tempo": 120.0
            },
            {
                "start_time": 44.7954545,
                "end_time": 44.9295455,
                "pitch": 78,
                "velocity": 32,
                "duration": 0.1340909,
                "tempo": 120.0
            },
            {
                "start_time": 44.9295455,
                "end_time": 45.0477273,
                "pitch": 82,
                "velocity": 32,
                "duration": 0.1181818,
                "tempo": 120.0
            },
            {
                "start_time": 45.0477273,
                "end_time": 45.1659091,
                "pitch": 85,
                "velocity": 32,
                "duration": 0.1181818,
                "tempo": 120.0
            },
            {
                "start_time": 45.1659091,
                "end_time": 45.2840909,
                "pitch": 27,
                "velocity": 32,
                "duration": 0.1181818,
                "tempo": 120.0
            },
            {
                "start_time": 45.2840909,
                "end_time": 45.4045455,
                "pitch": 31,
                "velocity": 32,
                "duration": 0.1204545,
                "tempo": 120.0
            },
            {
                "start_time": 45.4045455,
                "end_time": 45.5409091,
                "pitch": 34,
                "velocity": 32,
                "duration": 0.1363636,
                "tempo": 120.0
            },
            {
                "start_time": 45.5409091,
                "end_time": 45.6590909,
                "pitch": 39,
                "velocity": 32,
                "duration": 0.1181818,
                "tempo": 120.0
            },
            {
                "start_time": 45.6613636,
                "end_time": 45.7772727,
                "pitch": 43,
                "velocity": 32,
                "duration": 0.1159091,
                "tempo": 120.0
            },
            {
                "start_time": 45.7772727,
                "end_time": 45.8931818,
                "pitch": 46,
                "velocity": 32,
                "duration": 0.1159091,
                "tempo": 120.0
            },
            {
                "start_time": 45.8931818,
                "end_time": 46.0090909,
                "pitch": 51,
                "velocity": 32,
                "duration": 0.1159091,
                "tempo": 120.0
            },
            {
                "start_time": 46.0090909,
                "end_time": 46.1454545,
                "pitch": 55,
                "velocity": 32,
                "duration": 0.1363636,
                "tempo": 120.0
            },
            {
                "start_time": 46.1454545,
                "end_time": 46.2613636,
                "pitch": 58,
                "velocity": 32,
                "duration": 0.1159091,
                "tempo": 120.0
            },
            {
                "start_time": 46.2613636,
                "end_time": 46.3772727,
                "pitch": 63,
                "velocity": 32,
                "duration": 0.1159091,
                "tempo": 120.0
            },
            {
                "start_time": 46.3772727,
                "end_time": 46.4954545,
                "pitch": 67,
                "velocity": 32,
                "duration": 0.1181818,
                "tempo": 120.0
            },
            {
                "start_time": 46.4954545,
                "end_time": 46.6136364,
                "pitch": 70,
                "velocity": 32,
                "duration": 0.1181818,
                "tempo": 120.0
            },
            {
                "start_time": 47.0886364,
                "end_time": 47.2045455,
                "pitch": 26,
                "velocity": 32,
                "duration": 0.1159091,
                "tempo": 120.0
            },
            {
                "start_time": 47.2045455,
                "end_time": 47.3386364,
                "pitch": 29,
                "velocity": 32,
                "duration": 0.1340909,
                "tempo": 120.0
            },
            {
                "start_time": 47.3386364,
                "end_time": 47.4545455,
                "pitch": 33,
                "velocity": 32,
                "duration": 0.1159091,
                "tempo": 120.0
            },
            {
                "start_time": 47.4545455,
                "end_time": 47.5727273,
                "pitch": 38,
                "velocity": 32,
                "duration": 0.1181818,
                "tempo": 120.0
            },
            {
                "start_time": 47.5727273,
                "end_time": 47.6909091,
                "pitch": 41,
                "velocity": 32,
                "duration": 0.1181818,
                "tempo": 120.0
            },
            {
                "start_time": 47.6909091,
                "end_time": 47.8113636,
                "pitch": 45,
                "velocity": 32,
                "duration": 0.1204545,
                "tempo": 120.0
            },
            {
                "start_time": 47.8113636,
                "end_time": 47.9477273,
                "pitch": 50,
                "velocity": 32,
                "duration": 0.1363636,
                "tempo": 120.0
            },
            {
                "start_time": 47.9477273,
                "end_time": 48.0681818,
                "pitch": 53,
                "velocity": 32,
                "duration": 0.1204545,
                "tempo": 120.0
            },
            {
                "start_time": 48.0681818,
                "end_time": 48.1840909,
                "pitch": 57,
                "velocity": 32,
                "duration": 0.1159091,
                "tempo": 120.0
            },
            {
                "start_time": 48.1840909,
                "end_time": 48.3022727,
                "pitch": 62,
                "velocity": 32,
                "duration": 0.1181818,
                "tempo": 120.0
            },
            {
                "start_time": 48.3022727,
                "end_time": 48.4181818,
                "pitch": 65,
                "velocity": 32,
                "duration": 0.1159091,
                "tempo": 120.0
            },
            {
                "start_time": 48.4181818,
                "end_time": 48.5522727,
                "pitch": 69,
                "velocity": 32,
                "duration": 0.1340909,
                "tempo": 120.0
            },
            {
                "start_time": 48.5522727,
                "end_time": 48.6704545,
                "pitch": 74,
                "velocity": 32,
                "duration": 0.1181818,
                "tempo": 120.0
            },
            {
                "start_time": 48.6704545,
                "end_time": 48.7909091,
                "pitch": 77,
                "velocity": 32,
                "duration": 0.1204545,
                "tempo": 120.0
            },
            {
                "start_time": 48.7909091,
                "end_time": 48.9113636,
                "pitch": 81,
                "velocity": 32,
                "duration": 0.1204545,
                "tempo": 120.0
            },
            {
                "start_time": 48.9113636,
                "end_time": 49.0295455,
                "pitch": 86,
                "velocity": 32,
                "duration": 0.1181818,
                "tempo": 120.0
            },
            {
                "start_time": 49.0318182,
                "end_time": 49.1568182,
                "pitch": 26,
                "velocity": 32,
                "duration": 0.125,
                "tempo": 120.0
            },
            {
                "start_time": 49.1568182,
                "end_time": 49.2704545,
                "pitch": 30,
                "velocity": 32,
                "duration": 0.1136364,
                "tempo": 120.0
            },
            {
                "start_time": 49.2704545,
                "end_time": 49.3818182,
                "pitch": 33,
                "velocity": 32,
                "duration": 0.1113636,
                "tempo": 120.0
            },
            {
                "start_time": 49.3818182,
                "end_time": 49.4954545,
                "pitch": 38,
                "velocity": 32,
                "duration": 0.1136364,
                "tempo": 120.0
            },
            {
                "start_time": 49.4954545,
                "end_time": 49.6136364,
                "pitch": 42,
                "velocity": 32,
                "duration": 0.1181818,
                "tempo": 120.0
            },
            {
                "start_time": 49.6136364,
                "end_time": 49.7522727,
                "pitch": 45,
                "velocity": 32,
                "duration": 0.1386364,
                "tempo": 120.0
            },
            {
                "start_time": 49.7522727,
                "end_time": 49.8704545,
                "pitch": 50,
                "velocity": 32,
                "duration": 0.1181818,
                "tempo": 120.0
            },
            {
                "start_time": 49.8704545,
                "end_time": 49.9909091,
                "pitch": 54,
                "velocity": 32,
                "duration": 0.1204545,
                "tempo": 120.0
            },
            {
                "start_time": 49.9909091,
                "end_time": 50.1068182,
                "pitch": 57,
                "velocity": 32,
                "duration": 0.1159091,
                "tempo": 120.0
            },
            {
                "start_time": 50.1068182,
                "end_time": 50.225,
                "pitch": 62,
                "velocity": 32,
                "duration": 0.1181818,
                "tempo": 120.0
            },
            {
                "start_time": 50.225,
                "end_time": 50.3568182,
                "pitch": 66,
                "velocity": 32,
                "duration": 0.1318182,
                "tempo": 120.0
            },
            {
                "start_time": 50.3568182,
                "end_time": 50.475,
                "pitch": 69,
                "velocity": 32,
                "duration": 0.1181818,
                "tempo": 120.0
            },
            {
                "start_time": 50.475,
                "end_time": 50.5909091,
                "pitch": 74,
                "velocity": 32,
                "duration": 0.1159091,
                "tempo": 120.0
            },
            {
                "start_time": 50.5909091,
                "end_time": 50.7090909,
                "pitch": 78,
                "velocity": 32,
                "duration": 0.1181818,
                "tempo": 120.0
            },
            {
                "start_time": 50.7090909,
                "end_time": 50.825,
                "pitch": 81,
                "velocity": 32,
                "duration": 0.1159091,
                "tempo": 120.0
            },
            {
                "start_time": 50.825,
                "end_time": 50.9590909,
                "pitch": 86,
                "velocity": 32,
                "duration": 0.1340909,
                "tempo": 120.0
            },
            {
                "start_time": 50.9590909,
                "end_time": 51.0772727,
                "pitch": 26,
                "velocity": 32,
                "duration": 0.1181818,
                "tempo": 120.0
            },
            {
                "start_time": 51.0772727,
                "end_time": 51.1977273,
                "pitch": 31,
                "velocity": 32,
                "duration": 0.1204545,
                "tempo": 120.0
            },
            {
                "start_time": 51.1977273,
                "end_time": 51.3181818,
                "pitch": 35,
                "velocity": 32,
                "duration": 0.1204545,
                "tempo": 120.0
            },
            {
                "start_time": 51.3181818,
                "end_time": 51.4386364,
                "pitch": 38,
                "velocity": 32,
                "duration": 0.1204545,
                "tempo": 120.0
            },
            {
                "start_time": 51.4386364,
                "end_time": 51.5681818,
                "pitch": 43,
                "velocity": 32,
                "duration": 0.1295455,
                "tempo": 120.0
            },
            {
                "start_time": 51.5681818,
                "end_time": 51.6840909,
                "pitch": 47,
                "velocity": 32,
                "duration": 0.1159091,
                "tempo": 120.0
            },
            {
                "start_time": 51.6840909,
                "end_time": 51.7977273,
                "pitch": 50,
                "velocity": 32,
                "duration": 0.1136364,
                "tempo": 120.0
            },
            {
                "start_time": 51.7977273,
                "end_time": 51.9136364,
                "pitch": 55,
                "velocity": 32,
                "duration": 0.1159091,
                "tempo": 120.0
            },
            {
                "start_time": 51.9159091,
                "end_time": 52.0295455,
                "pitch": 59,
                "velocity": 32,
                "duration": 0.1136364,
                "tempo": 120.0
            },
            {
                "start_time": 52.0295455,
                "end_time": 52.1659091,
                "pitch": 62,
                "velocity": 32,
                "duration": 0.1363636,
                "tempo": 120.0
            },
            {
                "start_time": 52.1659091,
                "end_time": 52.2840909,
                "pitch": 67,
                "velocity": 32,
                "duration": 0.1181818,
                "tempo": 120.0
            },
            {
                "start_time": 52.2840909,
                "end_time": 52.4022727,
                "pitch": 71,
                "velocity": 32,
                "duration": 0.1181818,
                "tempo": 120.0
            },
            {
                "start_time": 52.4022727,
                "end_time": 52.5181818,
                "pitch": 74,
                "velocity": 32,
                "duration": 0.1159091,
                "tempo": 120.0
            },
            {
                "start_time": 52.5181818,
                "end_time": 52.6363636,
                "pitch": 79,
                "velocity": 32,
                "duration": 0.1181818,
                "tempo": 120.0
            },
            {
                "start_time": 52.6363636,
                "end_time": 52.7704545,
                "pitch": 83,
                "velocity": 32,
                "duration": 0.1340909,
                "tempo": 120.0
            },
            {
                "start_time": 52.7704545,
                "end_time": 52.8863636,
                "pitch": 86,
                "velocity": 32,
                "duration": 0.1159091,
                "tempo": 120.0
            },
            {
                "start_time": 52.8863636,
                "end_time": 53.0045455,
                "pitch": 28,
                "velocity": 32,
                "duration": 0.1181818,
                "tempo": 120.0
            },
            {
                "start_time": 53.0045455,
                "end_time": 53.125,
                "pitch": 32,
                "velocity": 32,
                "duration": 0.1204545,
                "tempo": 120.0
            },
            {
                "start_time": 53.125,
                "end_time": 53.2431818,
                "pitch": 35,
                "velocity": 32,
                "duration": 0.1181818,
                "tempo": 120.0
            },
            {
                "start_time": 53.2454545,
                "end_time": 53.3818182,
                "pitch": 40,
                "velocity": 32,
                "duration": 0.1363636,
                "tempo": 120.0
            },
            {
                "start_time": 53.3818182,
                "end_time": 53.4977273,
                "pitch": 44,
                "velocity": 32,
                "duration": 0.1159091,
                "tempo": 120.0
            },
            {
                "start_time": 53.4977273,
                "end_time": 53.6136364,
                "pitch": 47,
                "velocity": 32,
                "duration": 0.1159091,
                "tempo": 120.0
            },
            {
                "start_time": 53.6159091,
                "end_time": 53.7295455,
                "pitch": 52,
                "velocity": 32,
                "duration": 0.1136364,
                "tempo": 120.0
            },
            {
                "start_time": 53.7295455,
                "end_time": 53.85,
                "pitch": 56,
                "velocity": 32,
                "duration": 0.1204545,
                "tempo": 120.0
            },
            {
                "start_time": 53.85,
                "end_time": 53.9795455,
                "pitch": 59,
                "velocity": 32,
                "duration": 0.1295455,
                "tempo": 120.0
            },
            {
                "start_time": 53.9795455,
                "end_time": 54.0954545,
                "pitch": 64,
                "velocity": 32,
                "duration": 0.1159091,
                "tempo": 120.0
            },
            {
                "start_time": 54.0954545,
                "end_time": 54.2090909,
                "pitch": 68,
                "velocity": 32,
                "duration": 0.1136364,
                "tempo": 120.0
            },
            {
                "start_time": 54.2090909,
                "end_time": 54.3272727,
                "pitch": 71,
                "velocity": 32,
                "duration": 0.1181818,
                "tempo": 120.0
            },
            {
                "start_time": 54.8090909,
                "end_time": 54.9272727,
                "pitch": 26,
                "velocity": 32,
                "duration": 0.1181818,
                "tempo": 120.0
            },
            {
                "start_time": 54.9272727,
                "end_time": 55.0477273,
                "pitch": 29,
                "velocity": 32,
                "duration": 0.1204545,
                "tempo": 120.0
            },
            {
                "start_time": 55.0477273,
                "end_time": 55.1840909,
                "pitch": 33,
                "velocity": 32,
                "duration": 0.1363636,
                "tempo": 120.0
            },
            {
                "start_time": 55.1840909,
                "end_time": 55.3045455,
                "pitch": 38,
                "velocity": 32,
                "duration": 0.1204545,
                "tempo": 120.0
            },
            {
                "start_time": 55.3045455,
                "end_time": 55.4204545,
                "pitch": 41,
                "velocity": 32,
                "duration": 0.1159091,
                "tempo": 120.0
            },
            {
                "start_time": 55.4204545,
                "end_time": 55.5386364,
                "pitch": 45,
                "velocity": 32,
                "duration": 0.1181818,
                "tempo": 120.0
            },
            {
                "start_time": 55.5386364,
                "end_time": 55.6545455,
                "pitch": 50,
                "velocity": 32,
                "duration": 0.1159091,
                "tempo": 120.0
            },
            {
                "start_time": 55.6545455,
                "end_time": 55.7886364,
                "pitch": 53,
                "velocity": 32,
                "duration": 0.1340909,
                "tempo": 120.0
            },
            {
                "start_time": 55.7886364,
                "end_time": 55.9068182,
                "pitch": 57,
                "velocity": 32,
                "duration": 0.1181818,
                "tempo": 120.0
            },
            {
                "start_time": 55.9068182,
                "end_time": 56.0272727,
                "pitch": 62,
                "velocity": 32,
                "duration": 0.1204545,
                "tempo": 120.0
            },
            {
                "start_time": 56.0295455,
                "end_time": 56.1477273,
                "pitch": 65,
                "velocity": 32,
                "duration": 0.1181818,
                "tempo": 120.0
            },
            {
                "start_time": 56.1477273,
                "end_time": 56.2681818,
                "pitch": 69,
                "velocity": 32,
                "duration": 0.1204545,
                "tempo": 120.0
            },
            {
                "start_time": 56.2681818,
                "end_time": 56.3954545,
                "pitch": 74,
                "velocity": 32,
                "duration": 0.1272727,
                "tempo": 120.0
            },
            {
                "start_time": 56.3954545,
                "end_time": 56.5068182,
                "pitch": 77,
                "velocity": 32,
                "duration": 0.1113636,
                "tempo": 120.0
            },
            {
                "start_time": 56.5090909,
                "end_time": 56.6204545,
                "pitch": 81,
                "velocity": 32,
                "duration": 0.1113636,
                "tempo": 120.0
            },
            {
                "start_time": 56.6204545,
                "end_time": 56.7318182,
                "pitch": 86,
                "velocity": 32,
                "duration": 0.1113636,
                "tempo": 120.0
            },
            {
                "start_time": 56.7318182,
                "end_time": 56.85,
                "pitch": 26,
                "velocity": 32,
                "duration": 0.1181818,
                "tempo": 120.0
            },
            {
                "start_time": 56.85,
                "end_time": 56.9886364,
                "pitch": 30,
                "velocity": 32,
                "duration": 0.1386364,
                "tempo": 120.0
            },
            {
                "start_time": 56.9886364,
                "end_time": 57.1068182,
                "pitch": 33,
                "velocity": 32,
                "duration": 0.1181818,
                "tempo": 120.0
            },
            {
                "start_time": 57.1068182,
                "end_time": 57.2272727,
                "pitch": 38,
                "velocity": 32,
                "duration": 0.1204545,
                "tempo": 120.0
            },
            {
                "start_time": 57.2272727,
                "end_time": 57.3454545,
                "pitch": 42,
                "velocity": 32,
                "duration": 0.1181818,
                "tempo": 120.0
            },
            {
                "start_time": 57.3454545,
                "end_time": 57.4636364,
                "pitch": 45,
                "velocity": 32,
                "duration": 0.1181818,
                "tempo": 120.0
            },
            {
                "start_time": 57.4636364,
                "end_time": 57.5954545,
                "pitch": 50,
                "velocity": 32,
                "duration": 0.1318182,
                "tempo": 120.0
            },
            {
                "start_time": 57.5977273,
                "end_time": 57.7159091,
                "pitch": 54,
                "velocity": 32,
                "duration": 0.1181818,
                "tempo": 120.0
            },
            {
                "start_time": 57.7159091,
                "end_time": 57.8318182,
                "pitch": 57,
                "velocity": 32,
                "duration": 0.1159091,
                "tempo": 120.0
            },
            {
                "start_time": 57.8318182,
                "end_time": 57.95,
                "pitch": 62,
                "velocity": 32,
                "duration": 0.1181818,
                "tempo": 120.0
            },
            {
                "start_time": 57.95,
                "end_time": 58.0659091,
                "pitch": 66,
                "velocity": 32,
                "duration": 0.1159091,
                "tempo": 120.0
            },
            {
                "start_time": 58.0659091,
                "end_time": 58.2,
                "pitch": 69,
                "velocity": 32,
                "duration": 0.1340909,
                "tempo": 120.0
            },
            {
                "start_time": 58.2,
                "end_time": 58.3181818,
                "pitch": 74,
                "velocity": 32,
                "duration": 0.1181818,
                "tempo": 120.0
            },
            {
                "start_time": 58.3181818,
                "end_time": 58.4386364,
                "pitch": 78,
                "velocity": 32,
                "duration": 0.1204545,
                "tempo": 120.0
            },
            {
                "start_time": 58.4386364,
                "end_time": 58.5590909,
                "pitch": 81,
                "velocity": 32,
                "duration": 0.1204545,
                "tempo": 120.0
            },
            {
                "start_time": 58.5590909,
                "end_time": 58.6795455,
                "pitch": 86,
                "velocity": 32,
                "duration": 0.1204545,
                "tempo": 120.0
            },
            {
                "start_time": 58.6795455,
                "end_time": 58.8090909,
                "pitch": 26,
                "velocity": 32,
                "duration": 0.1295455,
                "tempo": 120.0
            },
            {
                "start_time": 58.8090909,
                "end_time": 58.925,
                "pitch": 31,
                "velocity": 32,
                "duration": 0.1159091,
                "tempo": 120.0
            },
            {
                "start_time": 58.925,
                "end_time": 59.0386364,
                "pitch": 35,
                "velocity": 32,
                "duration": 0.1136364,
                "tempo": 120.0
            },
            {
                "start_time": 59.0386364,
                "end_time": 59.1545455,
                "pitch": 38,
                "velocity": 32,
                "duration": 0.1159091,
                "tempo": 120.0
            },
            {
                "start_time": 59.1545455,
                "end_time": 59.2727273,
                "pitch": 43,
                "velocity": 32,
                "duration": 0.1181818,
                "tempo": 120.0
            },
            {
                "start_time": 59.2727273,
                "end_time": 59.4068182,
                "pitch": 47,
                "velocity": 32,
                "duration": 0.1340909,
                "tempo": 120.0
            },
            {
                "start_time": 59.4068182,
                "end_time": 59.525,
                "pitch": 50,
                "velocity": 32,
                "duration": 0.1181818,
                "tempo": 120.0
            },
            {
                "start_time": 59.525,
                "end_time": 59.6431818,
                "pitch": 55,
                "velocity": 32,
                "duration": 0.1181818,
                "tempo": 120.0
            },
            {
                "start_time": 59.6431818,
                "end_time": 59.7568182,
                "pitch": 59,
                "velocity": 32,
                "duration": 0.1136364,
                "tempo": 120.0
            },
            {
                "start_time": 59.7590909,
                "end_time": 59.8772727,
                "pitch": 62,
                "velocity": 32,
                "duration": 0.1181818,
                "tempo": 120.0
            },
            {
                "start_time": 59.8772727,
                "end_time": 60.0090909,
                "pitch": 67,
                "velocity": 32,
                "duration": 0.1318182,
                "tempo": 120.0
            },
            {
                "start_time": 60.0090909,
                "end_time": 60.1272727,
                "pitch": 71,
                "velocity": 32,
                "duration": 0.1181818,
                "tempo": 120.0
            },
            {
                "start_time": 60.1272727,
                "end_time": 60.2454545,
                "pitch": 74,
                "velocity": 32,
                "duration": 0.1181818,
                "tempo": 120.0
            },
            {
                "start_time": 60.2454545,
                "end_time": 60.3659091,
                "pitch": 79,
                "velocity": 32,
                "duration": 0.1204545,
                "tempo": 120.0
            },
            {
                "start_time": 60.3659091,
                "end_time": 60.4863636,
                "pitch": 83,
                "velocity": 32,
                "duration": 0.1204545,
                "tempo": 120.0
            },
            {
                "start_time": 60.4863636,
                "end_time": 60.6227273,
                "pitch": 86,
                "velocity": 32,
                "duration": 0.1363636,
                "tempo": 120.0
            },
            {
                "start_time": 60.6227273,
                "end_time": 60.7363636,
                "pitch": 28,
                "velocity": 32,
                "duration": 0.1136364,
                "tempo": 120.0
            },
            {
                "start_time": 60.7386364,
                "end_time": 60.8545455,
                "pitch": 32,
                "velocity": 32,
                "duration": 0.1159091,
                "tempo": 120.0
            },
            {
                "start_time": 60.8545455,
                "end_time": 60.9727273,
                "pitch": 35,
                "velocity": 32,
                "duration": 0.1181818,
                "tempo": 120.0
            },
            {
                "start_time": 60.9727273,
                "end_time": 61.0886364,
                "pitch": 40,
                "velocity": 32,
                "duration": 0.1159091,
                "tempo": 120.0
            },
            {
                "start_time": 61.0886364,
                "end_time": 61.2204545,
                "pitch": 44,
                "velocity": 32,
                "duration": 0.1318182,
                "tempo": 120.0
            },
            {
                "start_time": 61.2204545,
                "end_time": 61.3363636,
                "pitch": 47,
                "velocity": 32,
                "duration": 0.1159091,
                "tempo": 120.0
            },
            {
                "start_time": 61.3363636,
                "end_time": 61.45,
                "pitch": 52,
                "velocity": 32,
                "duration": 0.1136364,
                "tempo": 120.0
            },
            {
                "start_time": 61.45,
                "end_time": 61.5659091,
                "pitch": 56,
                "velocity": 32,
                "duration": 0.1159091,
                "tempo": 120.0
            },
            {
                "start_time": 61.5659091,
                "end_time": 61.6840909,
                "pitch": 59,
                "velocity": 32,
                "duration": 0.1181818,
                "tempo": 120.0
            },
            {
                "start_time": 61.6840909,
                "end_time": 61.8181818,
                "pitch": 64,
                "velocity": 32,
                "duration": 0.1340909,
                "tempo": 120.0
            },
            {
                "start_time": 61.8181818,
                "end_time": 61.9363636,
                "pitch": 68,
                "velocity": 32,
                "duration": 0.1181818,
                "tempo": 120.0
            },
            {
                "start_time": 61.9363636,
                "end_time": 92.9954545,
                "pitch": 71,
                "velocity": 32,
                "duration": 31.0590909,
                "tempo": 120.0
            },
            {
                "start_time": 93.4772727,
                "end_time": 93.5954545,
                "pitch": 26,
                "velocity": 32,
                "duration": 0.1181818,
                "tempo": 120.0
            },
            {
                "start_time": 93.5954545,
                "end_time": 93.7159091,
                "pitch": 29,
                "velocity": 32,
                "duration": 0.1204545,
                "tempo": 120.0
            },
            {
                "start_time": 93.7159091,
                "end_time": 93.8522727,
                "pitch": 33,
                "velocity": 32,
                "duration": 0.1363636,
                "tempo": 120.0
            },
            {
                "start_time": 93.8522727,
                "end_time": 93.9727273,
                "pitch": 38,
                "velocity": 32,
                "duration": 0.1204545,
                "tempo": 120.0
            },
            {
                "start_time": 93.9727273,
                "end_time": 94.0886364,
                "pitch": 41,
                "velocity": 32,
                "duration": 0.1159091,
                "tempo": 120.0
            },
            {
                "start_time": 94.0886364,
                "end_time": 94.2068182,
                "pitch": 45,
                "velocity": 32,
                "duration": 0.1181818,
                "tempo": 120.0
            },
            {
                "start_time": 94.2068182,
                "end_time": 94.3227273,
                "pitch": 50,
                "velocity": 32,
                "duration": 0.1159091,
                "tempo": 120.0
            },
            {
                "start_time": 94.3227273,
                "end_time": 94.4568182,
                "pitch": 53,
                "velocity": 32,
                "duration": 0.1340909,
                "tempo": 120.0
            },
            {
                "start_time": 94.4568182,
                "end_time": 94.5727273,
                "pitch": 57,
                "velocity": 32,
                "duration": 0.1159091,
                "tempo": 120.0
            },
            {
                "start_time": 94.5727273,
                "end_time": 94.6931818,
                "pitch": 62,
                "velocity": 32,
                "duration": 0.1204545,
                "tempo": 120.0
            },
            {
                "start_time": 94.6931818,
                "end_time": 94.8090909,
                "pitch": 65,
                "velocity": 32,
                "duration": 0.1159091,
                "tempo": 120.0
            },
            {
                "start_time": 94.8090909,
                "end_time": 94.9272727,
                "pitch": 69,
                "velocity": 32,
                "duration": 0.1181818,
                "tempo": 120.0
            },
            {
                "start_time": 94.9272727,
                "end_time": 95.0590909,
                "pitch": 74,
                "velocity": 32,
                "duration": 0.1318182,
                "tempo": 120.0
            },
            {
                "start_time": 95.0590909,
                "end_time": 95.175,
                "pitch": 77,
                "velocity": 32,
                "duration": 0.1159091,
                "tempo": 120.0
            },
            {
                "start_time": 95.175,
                "end_time": 95.2886364,
                "pitch": 81,
                "velocity": 32,
                "duration": 0.1136364,
                "tempo": 120.0
            },
            {
                "start_time": 95.2886364,
                "end_time": 95.4045455,
                "pitch": 86,
                "velocity": 32,
                "duration": 0.1159091,
                "tempo": 120.0
            },
            {
                "start_time": 95.4045455,
                "end_time": 95.5227273,
                "pitch": 26,
                "velocity": 32,
                "duration": 0.1181818,
                "tempo": 120.0
            },
            {
                "start_time": 95.5227273,
                "end_time": 95.6590909,
                "pitch": 30,
                "velocity": 32,
                "duration": 0.1363636,
                "tempo": 120.0
            },
            {
                "start_time": 95.6590909,
                "end_time": 95.7795455,
                "pitch": 33,
                "velocity": 32,
                "duration": 0.1204545,
                "tempo": 120.0
            },
            {
                "start_time": 95.7795455,
                "end_time": 95.9,
                "pitch": 38,
                "velocity": 32,
                "duration": 0.1204545,
                "tempo": 120.0
            },
            {
                "start_time": 95.9,
                "end_time": 96.0159091,
                "pitch": 42,
                "velocity": 32,
                "duration": 0.1159091,
                "tempo": 120.0
            },
            {
                "start_time": 96.0159091,
                "end_time": 96.1340909,
                "pitch": 45,
                "velocity": 32,
                "duration": 0.1181818,
                "tempo": 120.0
            },
            {
                "start_time": 96.1340909,
                "end_time": 96.2659091,
                "pitch": 50,
                "velocity": 32,
                "duration": 0.1318182,
                "tempo": 120.0
            },
            {
                "start_time": 96.2659091,
                "end_time": 96.3840909,
                "pitch": 54,
                "velocity": 32,
                "duration": 0.1181818,
                "tempo": 120.0
            },
            {
                "start_time": 96.3840909,
                "end_time": 96.5,
                "pitch": 57,
                "velocity": 32,
                "duration": 0.1159091,
                "tempo": 120.0
            },
            {
                "start_time": 96.5,
                "end_time": 96.6204545,
                "pitch": 62,
                "velocity": 32,
                "duration": 0.1204545,
                "tempo": 120.0
            },
            {
                "start_time": 96.6204545,
                "end_time": 96.7363636,
                "pitch": 66,
                "velocity": 32,
                "duration": 0.1159091,
                "tempo": 120.0
            },
            {
                "start_time": 96.7363636,
                "end_time": 96.8727273,
                "pitch": 69,
                "velocity": 32,
                "duration": 0.1363636,
                "tempo": 120.0
            },
            {
                "start_time": 96.8727273,
                "end_time": 96.9909091,
                "pitch": 74,
                "velocity": 32,
                "duration": 0.1181818,
                "tempo": 120.0
            },
            {
                "start_time": 96.9909091,
                "end_time": 97.1113636,
                "pitch": 78,
                "velocity": 32,
                "duration": 0.1204545,
                "tempo": 120.0
            },
            {
                "start_time": 97.1113636,
                "end_time": 97.2318182,
                "pitch": 81,
                "velocity": 32,
                "duration": 0.1204545,
                "tempo": 120.0
            },
            {
                "start_time": 97.2318182,
                "end_time": 97.35,
                "pitch": 86,
                "velocity": 32,
                "duration": 0.1181818,
                "tempo": 120.0
            },
            {
                "start_time": 97.35,
                "end_time": 97.4795455,
                "pitch": 26,
                "velocity": 32,
                "duration": 0.1295455,
                "tempo": 120.0
            },
            {
                "start_time": 97.4795455,
                "end_time": 97.5954545,
                "pitch": 31,
                "velocity": 32,
                "duration": 0.1159091,
                "tempo": 120.0
            },
            {
                "start_time": 97.5954545,
                "end_time": 97.7113636,
                "pitch": 35,
                "velocity": 32,
                "duration": 0.1159091,
                "tempo": 120.0
            },
            {
                "start_time": 97.7113636,
                "end_time": 97.8272727,
                "pitch": 38,
                "velocity": 32,
                "duration": 0.1159091,
                "tempo": 120.0
            },
            {
                "start_time": 97.8272727,
                "end_time": 97.9431818,
                "pitch": 43,
                "velocity": 32,
                "duration": 0.1159091,
                "tempo": 120.0
            },
            {
                "start_time": 97.9431818,
                "end_time": 98.0795455,
                "pitch": 47,
                "velocity": 32,
                "duration": 0.1363636,
                "tempo": 120.0
            },
            {
                "start_time": 98.0795455,
                "end_time": 98.1954545,
                "pitch": 50,
                "velocity": 32,
                "duration": 0.1159091,
                "tempo": 120.0
            },
            {
                "start_time": 98.1954545,
                "end_time": 98.3159091,
                "pitch": 55,
                "velocity": 32,
                "duration": 0.1204545,
                "tempo": 120.0
            },
            {
                "start_time": 98.3159091,
                "end_time": 98.4295455,
                "pitch": 59,
                "velocity": 32,
                "duration": 0.1136364,
                "tempo": 120.0
            },
            {
                "start_time": 98.4318182,
                "end_time": 98.55,
                "pitch": 62,
                "velocity": 32,
                "duration": 0.1181818,
                "tempo": 120.0
            },
            {
                "start_time": 98.55,
                "end_time": 98.6840909,
                "pitch": 67,
                "velocity": 32,
                "duration": 0.1340909,
                "tempo": 120.0
            },
            {
                "start_time": 98.6840909,
                "end_time": 98.8022727,
                "pitch": 71,
                "velocity": 32,
                "duration": 0.1181818,
                "tempo": 120.0
            },
            {
                "start_time": 98.8022727,
                "end_time": 98.9204545,
                "pitch": 74,
                "velocity": 32,
                "duration": 0.1181818,
                "tempo": 120.0
            },
            {
                "start_time": 98.9204545,
                "end_time": 99.0409091,
                "pitch": 79,
                "velocity": 32,
                "duration": 0.1204545,
                "tempo": 120.0
            },
            {
                "start_time": 99.0431818,
                "end_time": 99.1613636,
                "pitch": 83,
                "velocity": 32,
                "duration": 0.1181818,
                "tempo": 120.0
            },
            {
                "start_time": 99.1613636,
                "end_time": 99.2977273,
                "pitch": 86,
                "velocity": 32,
                "duration": 0.1363636,
                "tempo": 120.0
            },
            {
                "start_time": 99.2977273,
                "end_time": 99.4136364,
                "pitch": 28,
                "velocity": 32,
                "duration": 0.1159091,
                "tempo": 120.0
            },
            {
                "start_time": 99.4136364,
                "end_time": 99.5318182,
                "pitch": 32,
                "velocity": 32,
                "duration": 0.1181818,
                "tempo": 120.0
            },
            {
                "start_time": 99.5340909,
                "end_time": 99.65,
                "pitch": 35,
                "velocity": 32,
                "duration": 0.1159091,
                "tempo": 120.0
            },
            {
                "start_time": 99.65,
                "end_time": 99.7681818,
                "pitch": 40,
                "velocity": 32,
                "duration": 0.1181818,
                "tempo": 120.0
            },
            {
                "start_time": 99.7681818,
                "end_time": 99.9,
                "pitch": 44,
                "velocity": 32,
                "duration": 0.1318182,
                "tempo": 120.0
            },
            {
                "start_time": 99.9,
                "end_time": 100.0159091,
                "pitch": 47,
                "velocity": 32,
                "duration": 0.1159091,
                "tempo": 120.0
            },
            {
                "start_time": 100.0159091,
                "end_time": 100.1295455,
                "pitch": 52,
                "velocity": 32,
                "duration": 0.1136364,
                "tempo": 120.0
            },
            {
                "start_time": 100.1295455,
                "end_time": 100.2454545,
                "pitch": 56,
                "velocity": 32,
                "duration": 0.1159091,
                "tempo": 120.0
            },
            {
                "start_time": 100.2454545,
                "end_time": 100.3636364,
                "pitch": 59,
                "velocity": 32,
                "duration": 0.1181818,
                "tempo": 120.0
            },
            {
                "start_time": 100.3636364,
                "end_time": 100.4977273,
                "pitch": 64,
                "velocity": 32,
                "duration": 0.1340909,
                "tempo": 120.0
            },
            {
                "start_time": 100.4977273,
                "end_time": 100.6159091,
                "pitch": 68,
                "velocity": 32,
                "duration": 0.1181818,
                "tempo": 120.0
            },
            {
                "start_time": 100.6159091,
                "end_time": 100.7340909,
                "pitch": 71,
                "velocity": 32,
                "duration": 0.1181818,
                "tempo": 120.0
            },
            {
                "start_time": 101.2295455,
                "end_time": 101.3454545,
                "pitch": 26,
                "velocity": 32,
                "duration": 0.1159091,
                "tempo": 120.0
            },
            {
                "start_time": 101.3454545,
                "end_time": 101.4636364,
                "pitch": 29,
                "velocity": 32,
                "duration": 0.1181818,
                "tempo": 120.0
            },
            {
                "start_time": 101.4636364,
                "end_time": 101.5818182,
                "pitch": 33,
                "velocity": 32,
                "duration": 0.1181818,
                "tempo": 120.0
            },
            {
                "start_time": 101.5818182,
                "end_time": 101.7159091,
                "pitch": 38,
                "velocity": 32,
                "duration": 0.1340909,
                "tempo": 120.0
            },
            {
                "start_time": 101.7181818,
                "end_time": 101.8363636,
                "pitch": 41,
                "velocity": 32,
                "duration": 0.1181818,
                "tempo": 120.0
            },
            {
                "start_time": 101.8363636,
                "end_time": 101.9568182,
                "pitch": 45,
                "velocity": 32,
                "duration": 0.1204545,
                "tempo": 120.0
            },
            {
                "start_time": 101.9568182,
                "end_time": 102.075,
                "pitch": 50,
                "velocity": 32,
                "duration": 0.1181818,
                "tempo": 120.0
            },
            {
                "start_time": 102.075,
                "end_time": 102.1954545,
                "pitch": 53,
                "velocity": 32,
                "duration": 0.1204545,
                "tempo": 120.0
            },
            {
                "start_time": 102.1954545,
                "end_time": 102.3227273,
                "pitch": 57,
                "velocity": 32,
                "duration": 0.1272727,
                "tempo": 120.0
            },
            {
                "start_time": 102.3227273,
                "end_time": 102.4363636,
                "pitch": 62,
                "velocity": 32,
                "duration": 0.1136364,
                "tempo": 120.0
            },
            {
                "start_time": 102.4363636,
                "end_time": 102.5477273,
                "pitch": 65,
                "velocity": 32,
                "duration": 0.1113636,
                "tempo": 120.0
            },
            {
                "start_time": 102.5477273,
                "end_time": 102.6613636,
                "pitch": 69,
                "velocity": 32,
                "duration": 0.1136364,
                "tempo": 120.0
            },
            {
                "start_time": 102.6613636,
                "end_time": 102.7772727,
                "pitch": 74,
                "velocity": 32,
                "duration": 0.1159091,
                "tempo": 120.0
            },
            {
                "start_time": 102.7772727,
                "end_time": 102.9113636,
                "pitch": 77,
                "velocity": 32,
                "duration": 0.1340909,
                "tempo": 120.0
            },
            {
                "start_time": 102.9113636,
                "end_time": 103.0272727,
                "pitch": 81,
                "velocity": 32,
                "duration": 0.1159091,
                "tempo": 120.0
            },
            {
                "start_time": 103.0295455,
                "end_time": 103.1454545,
                "pitch": 86,
                "velocity": 32,
                "duration": 0.1159091,
                "tempo": 120.0
            },
            {
                "start_time": 103.1454545,
                "end_time": 103.2636364,
                "pitch": 26,
                "velocity": 32,
                "duration": 0.1181818,
                "tempo": 120.0
            },
            {
                "start_time": 103.2636364,
                "end_time": 103.3840909,
                "pitch": 30,
                "velocity": 32,
                "duration": 0.1204545,
                "tempo": 120.0
            },
            {
                "start_time": 103.3840909,
                "end_time": 103.5204545,
                "pitch": 33,
                "velocity": 32,
                "duration": 0.1363636,
                "tempo": 120.0
            },
            {
                "start_time": 103.5204545,
                "end_time": 103.6409091,
                "pitch": 38,
                "velocity": 32,
                "duration": 0.1204545,
                "tempo": 120.0
            },
            {
                "start_time": 103.6409091,
                "end_time": 103.7568182,
                "pitch": 42,
                "velocity": 32,
                "duration": 0.1159091,
                "tempo": 120.0
            },
            {
                "start_time": 103.7568182,
                "end_time": 103.875,
                "pitch": 45,
                "velocity": 32,
                "duration": 0.1181818,
                "tempo": 120.0
            },
            {
                "start_time": 103.875,
                "end_time": 103.9886364,
                "pitch": 50,
                "velocity": 32,
                "duration": 0.1136364,
                "tempo": 120.0
            },
            {
                "start_time": 103.9886364,
                "end_time": 104.125,
                "pitch": 54,
                "velocity": 32,
                "duration": 0.1363636,
                "tempo": 120.0
            },
            {
                "start_time": 104.125,
                "end_time": 104.2431818,
                "pitch": 57,
                "velocity": 32,
                "duration": 0.1181818,
                "tempo": 120.0
            },
            {
                "start_time": 104.2431818,
                "end_time": 104.3636364,
                "pitch": 62,
                "velocity": 32,
                "duration": 0.1204545,
                "tempo": 120.0
            },
            {
                "start_time": 104.3636364,
                "end_time": 104.4818182,
                "pitch": 66,
                "velocity": 32,
                "duration": 0.1181818,
                "tempo": 120.0
            },
            {
                "start_time": 104.4840909,
                "end_time": 104.6045455,
                "pitch": 69,
                "velocity": 32,
                "duration": 0.1204545,
                "tempo": 120.0
            },
            {
                "start_time": 104.6045455,
                "end_time": 104.7340909,
                "pitch": 74,
                "velocity": 32,
                "duration": 0.1295455,
                "tempo": 120.0
            },
            {
                "start_time": 104.7340909,
                "end_time": 104.85,
                "pitch": 78,
                "velocity": 32,
                "duration": 0.1159091,
                "tempo": 120.0
            },
            {
                "start_time": 104.85,
                "end_time": 104.9659091,
                "pitch": 81,
                "velocity": 32,
                "duration": 0.1159091,
                "tempo": 120.0
            },
            {
                "start_time": 104.9659091,
                "end_time": 105.0795455,
                "pitch": 86,
                "velocity": 32,
                "duration": 0.1136364,
                "tempo": 120.0
            },
            {
                "start_time": 105.0795455,
                "end_time": 105.1954545,
                "pitch": 26,
                "velocity": 32,
                "duration": 0.1159091,
                "tempo": 120.0
            },
            {
                "start_time": 105.1954545,
                "end_time": 105.3318182,
                "pitch": 31,
                "velocity": 32,
                "duration": 0.1363636,
                "tempo": 120.0
            },
            {
                "start_time": 105.3318182,
                "end_time": 105.45,
                "pitch": 35,
                "velocity": 32,
                "duration": 0.1181818,
                "tempo": 120.0
            },
            {
                "start_time": 105.45,
                "end_time": 105.5681818,
                "pitch": 38,
                "velocity": 32,
                "duration": 0.1181818,
                "tempo": 120.0
            },
            {
                "start_time": 105.5681818,
                "end_time": 105.6863636,
                "pitch": 43,
                "velocity": 32,
                "duration": 0.1181818,
                "tempo": 120.0
            },
            {
                "start_time": 105.6863636,
                "end_time": 105.8068182,
                "pitch": 47,
                "velocity": 32,
                "duration": 0.1204545,
                "tempo": 120.0
            },
            {
                "start_time": 105.8068182,
                "end_time": 105.9431818,
                "pitch": 50,
                "velocity": 32,
                "duration": 0.1363636,
                "tempo": 120.0
            },
            {
                "start_time": 105.9431818,
                "end_time": 106.0636364,
                "pitch": 55,
                "velocity": 32,
                "duration": 0.1204545,
                "tempo": 120.0
            },
            {
                "start_time": 106.0636364,
                "end_time": 106.1795455,
                "pitch": 59,
                "velocity": 32,
                "duration": 0.1159091,
                "tempo": 120.0
            },
            {
                "start_time": 106.1795455,
                "end_time": 106.2977273,
                "pitch": 62,
                "velocity": 32,
                "duration": 0.1181818,
                "tempo": 120.0
            },
            {
                "start_time": 106.3,
                "end_time": 106.4159091,
                "pitch": 67,
                "velocity": 32,
                "duration": 0.1159091,
                "tempo": 120.0
            },
            {
                "start_time": 106.4159091,
                "end_time": 106.5522727,
                "pitch": 71,
                "velocity": 32,
                "duration": 0.1363636,
                "tempo": 120.0
            },
            {
                "start_time": 106.5522727,
                "end_time": 106.6659091,
                "pitch": 74,
                "velocity": 32,
                "duration": 0.1136364,
                "tempo": 120.0
            },
            {
                "start_time": 106.6681818,
                "end_time": 106.7840909,
                "pitch": 79,
                "velocity": 32,
                "duration": 0.1159091,
                "tempo": 120.0
            },
            {
                "start_time": 106.7840909,
                "end_time": 106.9022727,
                "pitch": 83,
                "velocity": 32,
                "duration": 0.1181818,
                "tempo": 120.0
            },
            {
                "start_time": 106.9022727,
                "end_time": 107.0181818,
                "pitch": 86,
                "velocity": 32,
                "duration": 0.1159091,
                "tempo": 120.0
            },
            {
                "start_time": 107.0181818,
                "end_time": 107.1477273,
                "pitch": 28,
                "velocity": 32,
                "duration": 0.1295455,
                "tempo": 120.0
            },
            {
                "start_time": 107.1477273,
                "end_time": 107.2636364,
                "pitch": 32,
                "velocity": 32,
                "duration": 0.1159091,
                "tempo": 120.0
            },
            {
                "start_time": 107.2636364,
                "end_time": 107.3795455,
                "pitch": 35,
                "velocity": 32,
                "duration": 0.1159091,
                "tempo": 120.0
            },
            {
                "start_time": 107.3795455,
                "end_time": 107.4931818,
                "pitch": 40,
                "velocity": 32,
                "duration": 0.1136364,
                "tempo": 120.0
            },
            {
                "start_time": 107.4931818,
                "end_time": 107.6136364,
                "pitch": 44,
                "velocity": 32,
                "duration": 0.1204545,
                "tempo": 120.0
            },
            {
                "start_time": 107.6136364,
                "end_time": 107.75,
                "pitch": 47,
                "velocity": 32,
                "duration": 0.1363636,
                "tempo": 120.0
            },
            {
                "start_time": 107.75,
                "end_time": 107.8681818,
                "pitch": 52,
                "velocity": 32,
                "duration": 0.1181818,
                "tempo": 120.0
            },
            {
                "start_time": 107.8681818,
                "end_time": 107.9909091,
                "pitch": 56,
                "velocity": 32,
                "duration": 0.1227273,
                "tempo": 120.0
            },
            {
                "start_time": 107.9909091,
                "end_time": 108.1068182,
                "pitch": 59,
                "velocity": 32,
                "duration": 0.1159091,
                "tempo": 120.0
            },
            {
                "start_time": 108.1068182,
                "end_time": 108.225,
                "pitch": 64,
                "velocity": 32,
                "duration": 0.1181818,
                "tempo": 120.0
            },
            {
                "start_time": 108.225,
                "end_time": 108.3590909,
                "pitch": 68,
                "velocity": 32,
                "duration": 0.1340909,
                "tempo": 120.0
            },
            {
                "start_time": 108.3590909,
                "end_time": 108.4795455,
                "pitch": 71,
                "velocity": 32,
                "duration": 0.1204545,
                "tempo": 120.0
            },
            {
                "start_time": 108.9613636,
                "end_time": 109.0772727,
                "pitch": 25,
                "velocity": 32,
                "duration": 0.1159091,
                "tempo": 120.0
            },
            {
                "start_time": 109.0772727,
                "end_time": 109.1954545,
                "pitch": 28,
                "velocity": 32,
                "duration": 0.1181818,
                "tempo": 120.0
            },
            {
                "start_time": 109.1977273,
                "end_time": 109.3136364,
                "pitch": 32,
                "velocity": 32,
                "duration": 0.1159091,
                "tempo": 120.0
            },
            {
                "start_time": 109.3136364,
                "end_time": 109.4318182,
                "pitch": 37,
                "velocity": 32,
                "duration": 0.1181818,
                "tempo": 120.0
            },
            {
                "start_time": 109.4340909,
                "end_time": 109.5659091,
                "pitch": 40,
                "velocity": 32,
                "duration": 0.1318182,
                "tempo": 120.0
            },
            {
                "start_time": 109.5659091,
                "end_time": 109.6863636,
                "pitch": 44,
                "velocity": 32,
                "duration": 0.1204545,
                "tempo": 120.0
            },
            {
                "start_time": 109.6863636,
                "end_time": 109.8022727,
                "pitch": 49,
                "velocity": 32,
                "duration": 0.1159091,
                "tempo": 120.0
            },
            {
                "start_time": 109.8022727,
                "end_time": 109.9204545,
                "pitch": 52,
                "velocity": 32,
                "duration": 0.1181818,
                "tempo": 120.0
            },
            {
                "start_time": 109.9204545,
                "end_time": 110.0363636,
                "pitch": 56,
                "velocity": 32,
                "duration": 0.1159091,
                "tempo": 120.0
            },
            {
                "start_time": 110.0363636,
                "end_time": 110.1704545,
                "pitch": 61,
                "velocity": 32,
                "duration": 0.1340909,
                "tempo": 120.0
            },
            {
                "start_time": 110.1704545,
                "end_time": 110.2863636,
                "pitch": 64,
                "velocity": 32,
                "duration": 0.1159091,
                "tempo": 120.0
            },
            {
                "start_time": 110.2863636,
                "end_time": 110.4045455,
                "pitch": 68,
                "velocity": 32,
                "duration": 0.1181818,
                "tempo": 120.0
            },
            {
                "start_time": 110.4045455,
                "end_time": 110.5204545,
                "pitch": 73,
                "velocity": 32,
                "duration": 0.1159091,
                "tempo": 120.0
            },
            {
                "start_time": 110.5227273,
                "end_time": 110.6409091,
                "pitch": 76,
                "velocity": 32,
                "duration": 0.1181818,
                "tempo": 120.0
            },
            {
                "start_time": 110.6409091,
                "end_time": 110.775,
                "pitch": 80,
                "velocity": 32,
                "duration": 0.1340909,
                "tempo": 120.0
            },
            {
                "start_time": 110.775,
                "end_time": 110.8931818,
                "pitch": 85,
                "velocity": 32,
                "duration": 0.1181818,
                "tempo": 120.0
            },
            {
                "start_time": 110.8931818,
                "end_time": 111.0090909,
                "pitch": 25,
                "velocity": 32,
                "duration": 0.1159091,
                "tempo": 120.0
            },
            {
                "start_time": 111.0090909,
                "end_time": 111.1272727,
                "pitch": 29,
                "velocity": 32,
                "duration": 0.1181818,
                "tempo": 120.0
            },
            {
                "start_time": 111.1272727,
                "end_time": 111.2454545,
                "pitch": 32,
                "velocity": 32,
                "duration": 0.1181818,
                "tempo": 120.0
            },
            {
                "start_time": 111.2454545,
                "end_time": 111.3795455,
                "pitch": 37,
                "velocity": 32,
                "duration": 0.1340909,
                "tempo": 120.0
            },
            {
                "start_time": 111.3795455,
                "end_time": 111.5,
                "pitch": 41,
                "velocity": 32,
                "duration": 0.1204545,
                "tempo": 120.0
            },
            {
                "start_time": 111.5,
                "end_time": 111.6204545,
                "pitch": 44,
                "velocity": 32,
                "duration": 0.1204545,
                "tempo": 120.0
            },
            {
                "start_time": 111.6204545,
                "end_time": 111.7363636,
                "pitch": 49,
                "velocity": 32,
                "duration": 0.1159091,
                "tempo": 120.0
            },
            {
                "start_time": 111.7386364,
                "end_time": 111.8590909,
                "pitch": 53,
                "velocity": 32,
                "duration": 0.1204545,
                "tempo": 120.0
            },
            {
                "start_time": 111.8590909,
                "end_time": 111.9886364,
                "pitch": 56,
                "velocity": 32,
                "duration": 0.1295455,
                "tempo": 120.0
            },
            {
                "start_time": 111.9886364,
                "end_time": 112.1045455,
                "pitch": 61,
                "velocity": 32,
                "duration": 0.1159091,
                "tempo": 120.0
            },
            {
                "start_time": 112.1068182,
                "end_time": 112.2204545,
                "pitch": 65,
                "velocity": 32,
                "duration": 0.1136364,
                "tempo": 120.0
            },
            {
                "start_time": 112.2204545,
                "end_time": 112.3363636,
                "pitch": 68,
                "velocity": 32,
                "duration": 0.1159091,
                "tempo": 120.0
            },
            {
                "start_time": 112.3363636,
                "end_time": 112.4522727,
                "pitch": 73,
                "velocity": 32,
                "duration": 0.1159091,
                "tempo": 120.0
            },
            {
                "start_time": 112.4522727,
                "end_time": 112.5886364,
                "pitch": 77,
                "velocity": 32,
                "duration": 0.1363636,
                "tempo": 120.0
            },
            {
                "start_time": 112.5886364,
                "end_time": 112.7045455,
                "pitch": 80,
                "velocity": 32,
                "duration": 0.1159091,
                "tempo": 120.0
            },
            {
                "start_time": 112.7068182,
                "end_time": 112.8227273,
                "pitch": 85,
                "velocity": 32,
                "duration": 0.1159091,
                "tempo": 120.0
            },
            {
                "start_time": 112.8227273,
                "end_time": 112.9386364,
                "pitch": 25,
                "velocity": 32,
                "duration": 0.1159091,
                "tempo": 120.0
            },
            {
                "start_time": 112.9386364,
                "end_time": 113.0568182,
                "pitch": 30,
                "velocity": 32,
                "duration": 0.1181818,
                "tempo": 120.0
            },
            {
                "start_time": 113.0590909,
                "end_time": 113.1931818,
                "pitch": 34,
                "velocity": 32,
                "duration": 0.1340909,
                "tempo": 120.0
            },
            {
                "start_time": 113.1931818,
                "end_time": 113.3113636,
                "pitch": 37,
                "velocity": 32,
                "duration": 0.1181818,
                "tempo": 120.0
            },
            {
                "start_time": 113.3113636,
                "end_time": 113.4295455,
                "pitch": 42,
                "velocity": 32,
                "duration": 0.1181818,
                "tempo": 120.0
            },
            {
                "start_time": 113.4295455,
                "end_time": 113.55,
                "pitch": 46,
                "velocity": 32,
                "duration": 0.1204545,
                "tempo": 120.0
            },
            {
                "start_time": 113.55,
                "end_time": 113.6681818,
                "pitch": 49,
                "velocity": 32,
                "duration": 0.1181818,
                "tempo": 120.0
            },
            {
                "start_time": 113.6704545,
                "end_time": 113.8068182,
                "pitch": 54,
                "velocity": 32,
                "duration": 0.1363636,
                "tempo": 120.0
            },
            {
                "start_time": 113.8068182,
                "end_time": 113.9227273,
                "pitch": 58,
                "velocity": 32,
                "duration": 0.1159091,
                "tempo": 120.0
            },
            {
                "start_time": 113.9227273,
                "end_time": 114.0431818,
                "pitch": 61,
                "velocity": 32,
                "duration": 0.1204545,
                "tempo": 120.0
            },
            {
                "start_time": 114.0431818,
                "end_time": 114.1590909,
                "pitch": 66,
                "velocity": 32,
                "duration": 0.1159091,
                "tempo": 120.0
            },
            {
                "start_time": 114.1590909,
                "end_time": 114.2772727,
                "pitch": 70,
                "velocity": 32,
                "duration": 0.1181818,
                "tempo": 120.0
            },
            {
                "start_time": 114.2772727,
                "end_time": 114.4090909,
                "pitch": 73,
                "velocity": 32,
                "duration": 0.1318182,
                "tempo": 120.0
            },
            {
                "start_time": 114.4090909,
                "end_time": 114.525,
                "pitch": 78,
                "velocity": 32,
                "duration": 0.1159091,
                "tempo": 120.0
            },
            {
                "start_time": 114.525,
                "end_time": 114.6386364,
                "pitch": 82,
                "velocity": 32,
                "duration": 0.1136364,
                "tempo": 120.0
            },
            {
                "start_time": 114.6386364,
                "end_time": 114.7545455,
                "pitch": 85,
                "velocity": 32,
                "duration": 0.1159091,
                "tempo": 120.0
            },
            {
                "start_time": 114.7545455,
                "end_time": 114.8704545,
                "pitch": 27,
                "velocity": 32,
                "duration": 0.1159091,
                "tempo": 120.0
            },
            {
                "start_time": 114.8704545,
                "end_time": 115.0045455,
                "pitch": 31,
                "velocity": 32,
                "duration": 0.1340909,
                "tempo": 120.0
            },
            {
                "start_time": 115.0068182,
                "end_time": 115.1227273,
                "pitch": 34,
                "velocity": 32,
                "duration": 0.1159091,
                "tempo": 120.0
            },
            {
                "start_time": 115.1227273,
                "end_time": 115.2409091,
                "pitch": 39,
                "velocity": 32,
                "duration": 0.1181818,
                "tempo": 120.0
            },
            {
                "start_time": 115.2409091,
                "end_time": 115.3613636,
                "pitch": 43,
                "velocity": 32,
                "duration": 0.1204545,
                "tempo": 120.0
            },
            {
                "start_time": 115.3613636,
                "end_time": 115.4795455,
                "pitch": 46,
                "velocity": 32,
                "duration": 0.1181818,
                "tempo": 120.0
            },
            {
                "start_time": 115.4818182,
                "end_time": 115.6159091,
                "pitch": 51,
                "velocity": 32,
                "duration": 0.1340909,
                "tempo": 120.0
            },
            {
                "start_time": 115.6159091,
                "end_time": 115.7386364,
                "pitch": 55,
                "velocity": 32,
                "duration": 0.1227273,
                "tempo": 120.0
            },
            {
                "start_time": 115.7386364,
                "end_time": 115.8545455,
                "pitch": 58,
                "velocity": 32,
                "duration": 0.1159091,
                "tempo": 120.0
            },
            {
                "start_time": 115.8545455,
                "end_time": 115.9727273,
                "pitch": 63,
                "velocity": 32,
                "duration": 0.1181818,
                "tempo": 120.0
            },
            {
                "start_time": 115.9727273,
                "end_time": 116.0909091,
                "pitch": 67,
                "velocity": 32,
                "duration": 0.1181818,
                "tempo": 120.0
            },
            {
                "start_time": 116.0909091,
                "end_time": 116.2272727,
                "pitch": 70,
                "velocity": 32,
                "duration": 0.1363636,
                "tempo": 120.0
            },
            {
                "start_time": 116.6931818,
                "end_time": 116.8227273,
                "pitch": 25,
                "velocity": 32,
                "duration": 0.1295455,
                "tempo": 120.0
            },
            {
                "start_time": 116.8227273,
                "end_time": 116.9386364,
                "pitch": 28,
                "velocity": 32,
                "duration": 0.1159091,
                "tempo": 120.0
            },
            {
                "start_time": 116.9386364,
                "end_time": 117.0522727,
                "pitch": 32,
                "velocity": 32,
                "duration": 0.1136364,
                "tempo": 120.0
            },
            {
                "start_time": 117.0522727,
                "end_time": 117.1681818,
                "pitch": 37,
                "velocity": 32,
                "duration": 0.1159091,
                "tempo": 120.0
            },
            {
                "start_time": 117.1681818,
                "end_time": 117.2886364,
                "pitch": 40,
                "velocity": 32,
                "duration": 0.1204545,
                "tempo": 120.0
            },
            {
                "start_time": 117.2886364,
                "end_time": 117.425,
                "pitch": 44,
                "velocity": 32,
                "duration": 0.1363636,
                "tempo": 120.0
            },
            {
                "start_time": 117.425,
                "end_time": 117.5431818,
                "pitch": 49,
                "velocity": 32,
                "duration": 0.1181818,
                "tempo": 120.0
            },
            {
                "start_time": 117.5431818,
                "end_time": 117.6659091,
                "pitch": 52,
                "velocity": 32,
                "duration": 0.1227273,
                "tempo": 120.0
            },
            {
                "start_time": 117.6659091,
                "end_time": 117.7795455,
                "pitch": 56,
                "velocity": 32,
                "duration": 0.1136364,
                "tempo": 120.0
            },
            {
                "start_time": 117.7818182,
                "end_time": 117.9,
                "pitch": 61,
                "velocity": 32,
                "duration": 0.1181818,
                "tempo": 120.0
            },
            {
                "start_time": 117.9,
                "end_time": 118.0340909,
                "pitch": 64,
                "velocity": 32,
                "duration": 0.1340909,
                "tempo": 120.0
            },
            {
                "start_time": 118.0340909,
                "end_time": 118.1522727,
                "pitch": 68,
                "velocity": 32,
                "duration": 0.1181818,
                "tempo": 120.0
            },
            {
                "start_time": 118.1522727,
                "end_time": 118.2681818,
                "pitch": 73,
                "velocity": 32,
                "duration": 0.1159091,
                "tempo": 120.0
            },
            {
                "start_time": 118.2681818,
                "end_time": 118.3863636,
                "pitch": 76,
                "velocity": 32,
                "duration": 0.1181818,
                "tempo": 120.0
            },
            {
                "start_time": 118.3863636,
                "end_time": 118.5022727,
                "pitch": 80,
                "velocity": 32,
                "duration": 0.1159091,
                "tempo": 120.0
            },
            {
                "start_time": 118.5022727,
                "end_time": 118.6363636,
                "pitch": 85,
                "velocity": 32,
                "duration": 0.1340909,
                "tempo": 120.0
            },
            {
                "start_time": 118.6363636,
                "end_time": 118.7545455,
                "pitch": 25,
                "velocity": 32,
                "duration": 0.1181818,
                "tempo": 120.0
            },
            {
                "start_time": 118.7545455,
                "end_time": 118.875,
                "pitch": 29,
                "velocity": 32,
                "duration": 0.1204545,
                "tempo": 120.0
            },
            {
                "start_time": 118.875,
                "end_time": 118.9954545,
                "pitch": 32,
                "velocity": 32,
                "duration": 0.1204545,
                "tempo": 120.0
            },
            {
                "start_time": 118.9954545,
                "end_time": 119.1159091,
                "pitch": 37,
                "velocity": 32,
                "duration": 0.1204545,
                "tempo": 120.0
            },
            {
                "start_time": 119.1159091,
                "end_time": 119.2454545,
                "pitch": 41,
                "velocity": 32,
                "duration": 0.1295455,
                "tempo": 120.0
            },
            {
                "start_time": 119.2454545,
                "end_time": 119.3613636,
                "pitch": 44,
                "velocity": 32,
                "duration": 0.1159091,
                "tempo": 120.0
            },
            {
                "start_time": 119.3613636,
                "end_time": 119.475,
                "pitch": 49,
                "velocity": 32,
                "duration": 0.1136364,
                "tempo": 120.0
            },
            {
                "start_time": 119.475,
                "end_time": 119.5909091,
                "pitch": 53,
                "velocity": 32,
                "duration": 0.1159091,
                "tempo": 120.0
            },
            {
                "start_time": 119.5909091,
                "end_time": 119.7068182,
                "pitch": 56,
                "velocity": 32,
                "duration": 0.1159091,
                "tempo": 120.0
            },
            {
                "start_time": 119.7068182,
                "end_time": 119.8409091,
                "pitch": 61,
                "velocity": 32,
                "duration": 0.1340909,
                "tempo": 120.0
            },
            {
                "start_time": 119.8431818,
                "end_time": 119.9568182,
                "pitch": 65,
                "velocity": 32,
                "duration": 0.1136364,
                "tempo": 120.0
            },
            {
                "start_time": 119.9590909,
                "end_time": 120.075,
                "pitch": 68,
                "velocity": 32,
                "duration": 0.1159091,
                "tempo": 120.0
            },
            {
                "start_time": 120.075,
                "end_time": 120.1931818,
                "pitch": 73,
                "velocity": 32,
                "duration": 0.1181818,
                "tempo": 120.0
            },
            {
                "start_time": 120.1931818,
                "end_time": 120.3113636,
                "pitch": 77,
                "velocity": 32,
                "duration": 0.1181818,
                "tempo": 120.0
            },
            {
                "start_time": 120.3113636,
                "end_time": 120.4454545,
                "pitch": 80,
                "velocity": 32,
                "duration": 0.1340909,
                "tempo": 120.0
            },
            {
                "start_time": 120.4454545,
                "end_time": 120.5636364,
                "pitch": 85,
                "velocity": 32,
                "duration": 0.1181818,
                "tempo": 120.0
            },
            {
                "start_time": 120.5636364,
                "end_time": 120.6818182,
                "pitch": 25,
                "velocity": 32,
                "duration": 0.1181818,
                "tempo": 120.0
            },
            {
                "start_time": 120.6818182,
                "end_time": 120.8022727,
                "pitch": 30,
                "velocity": 32,
                "duration": 0.1204545,
                "tempo": 120.0
            },
            {
                "start_time": 120.8022727,
                "end_time": 120.9204545,
                "pitch": 34,
                "velocity": 32,
                "duration": 0.1181818,
                "tempo": 120.0
            },
            {
                "start_time": 120.9204545,
                "end_time": 121.0590909,
                "pitch": 37,
                "velocity": 32,
                "duration": 0.1386364,
                "tempo": 120.0
            },
            {
                "start_time": 121.0590909,
                "end_time": 121.175,
                "pitch": 42,
                "velocity": 32,
                "duration": 0.1159091,
                "tempo": 120.0
            },
            {
                "start_time": 121.175,
                "end_time": 121.2931818,
                "pitch": 46,
                "velocity": 32,
                "duration": 0.1181818,
                "tempo": 120.0
            },
            {
                "start_time": 121.2931818,
                "end_time": 121.4090909,
                "pitch": 49,
                "velocity": 32,
                "duration": 0.1159091,
                "tempo": 120.0
            },
            {
                "start_time": 121.4090909,
                "end_time": 121.5272727,
                "pitch": 54,
                "velocity": 32,
                "duration": 0.1181818,
                "tempo": 120.0
            },
            {
                "start_time": 121.5272727,
                "end_time": 121.6568182,
                "pitch": 58,
                "velocity": 32,
                "duration": 0.1295455,
                "tempo": 120.0
            },
            {
                "start_time": 121.6568182,
                "end_time": 121.7727273,
                "pitch": 61,
                "velocity": 32,
                "duration": 0.1159091,
                "tempo": 120.0
            },
            {
                "start_time": 121.7727273,
                "end_time": 121.8863636,
                "pitch": 66,
                "velocity": 32,
                "duration": 0.1136364,
                "tempo": 120.0
            },
            {
                "start_time": 121.8863636,
                "end_time": 122.0022727,
                "pitch": 70,
                "velocity": 32,
                "duration": 0.1159091,
                "tempo": 120.0
            },
            {
                "start_time": 122.0022727,
                "end_time": 122.1204545,
                "pitch": 73,
                "velocity": 32,
                "duration": 0.1181818,
                "tempo": 120.0
            },
            {
                "start_time": 122.1204545,
                "end_time": 122.2545455,
                "pitch": 78,
                "velocity": 32,
                "duration": 0.1340909,
                "tempo": 120.0
            },
            {
                "start_time": 122.2545455,
                "end_time": 122.3727273,
                "pitch": 82,
                "velocity": 32,
                "duration": 0.1181818,
                "tempo": 120.0
            },
            {
                "start_time": 122.3727273,
                "end_time": 122.4909091,
                "pitch": 85,
                "velocity": 32,
                "duration": 0.1181818,
                "tempo": 120.0
            },
            {
                "start_time": 122.4909091,
                "end_time": 122.6068182,
                "pitch": 27,
                "velocity": 32,
                "duration": 0.1159091,
                "tempo": 120.0
            },
            {
                "start_time": 122.6068182,
                "end_time": 122.725,
                "pitch": 31,
                "velocity": 32,
                "duration": 0.1181818,
                "tempo": 120.0
            },
            {
                "start_time": 122.725,
                "end_time": 122.8590909,
                "pitch": 34,
                "velocity": 32,
                "duration": 0.1340909,
                "tempo": 120.0
            },
            {
                "start_time": 122.8590909,
                "end_time": 122.9772727,
                "pitch": 39,
                "velocity": 32,
                "duration": 0.1181818,
                "tempo": 120.0
            },
            {
                "start_time": 122.9772727,
                "end_time": 123.0977273,
                "pitch": 43,
                "velocity": 32,
                "duration": 0.1204545,
                "tempo": 120.0
            },
            {
                "start_time": 123.0977273,
                "end_time": 123.2159091,
                "pitch": 46,
                "velocity": 32,
                "duration": 0.1181818,
                "tempo": 120.0
            },
            {
                "start_time": 123.2159091,
                "end_time": 123.3363636,
                "pitch": 51,
                "velocity": 32,
                "duration": 0.1204545,
                "tempo": 120.0
            },
            {
                "start_time": 123.3363636,
                "end_time": 123.4659091,
                "pitch": 55,
                "velocity": 32,
                "duration": 0.1295455,
                "tempo": 120.0
            },
            {
                "start_time": 123.4659091,
                "end_time": 123.5659091,
                "pitch": 58,
                "velocity": 32,
                "duration": 0.1,
                "tempo": 120.0
            },
            {
                "start_time": 123.5681818,
                "end_time": 123.6704545,
                "pitch": 63,
                "velocity": 32,
                "duration": 0.1022727,
                "tempo": 120.0
            },
            {
                "start_time": 123.6704545,
                "end_time": 123.7727273,
                "pitch": 67,
                "velocity": 32,
                "duration": 0.1022727,
                "tempo": 120.0
            }
        ],
        "Acoustic Bass": [
            {
                "start_time": 7.6840909,
                "end_time": 8.1681818,
                "pitch": 32,
                "velocity": 101,
                "duration": 0.4840909,
                "tempo": 120.0
            },
            {
                "start_time": 8.4181818,
                "end_time": 8.6568182,
                "pitch": 32,
                "velocity": 101,
                "duration": 0.2386364,
                "tempo": 120.0
            },
            {
                "start_time": 8.8977273,
                "end_time": 9.15,
                "pitch": 32,
                "velocity": 101,
                "duration": 0.2522727,
                "tempo": 120.0
            },
            {
                "start_time": 9.3840909,
                "end_time": 9.6318182,
                "pitch": 30,
                "velocity": 101,
                "duration": 0.2477273,
                "tempo": 120.0
            },
            {
                "start_time": 9.6318182,
                "end_time": 10.0977273,
                "pitch": 28,
                "velocity": 101,
                "duration": 0.4659091,
                "tempo": 120.0
            },
            {
                "start_time": 10.35,
                "end_time": 10.5909091,
                "pitch": 28,
                "velocity": 101,
                "duration": 0.2409091,
                "tempo": 120.0
            },
            {
                "start_time": 10.8522727,
                "end_time": 11.0886364,
                "pitch": 28,
                "velocity": 101,
                "duration": 0.2363636,
                "tempo": 120.0
            },
            {
                "start_time": 11.325,
                "end_time": 11.5659091,
                "pitch": 32,
                "velocity": 101,
                "duration": 0.2409091,
                "tempo": 120.0
            },
            {
                "start_time": 11.5659091,
                "end_time": 12.0454545,
                "pitch": 30,
                "velocity": 101,
                "duration": 0.4795455,
                "tempo": 120.0
            },
            {
                "start_time": 12.2840909,
                "end_time": 12.525,
                "pitch": 30,
                "velocity": 101,
                "duration": 0.2409091,
                "tempo": 120.0
            },
            {
                "start_time": 12.7818182,
                "end_time": 13.4931818,
                "pitch": 30,
                "velocity": 101,
                "duration": 0.7113636,
                "tempo": 120.0
            },
            {
                "start_time": 13.4931818,
                "end_time": 13.9772727,
                "pitch": 27,
                "velocity": 101,
                "duration": 0.4840909,
                "tempo": 120.0
            },
            {
                "start_time": 14.2113636,
                "end_time": 14.4681818,
                "pitch": 27,
                "velocity": 101,
                "duration": 0.2568182,
                "tempo": 120.0
            },
            {
                "start_time": 14.7090909,
                "end_time": 14.9318182,
                "pitch": 27,
                "velocity": 101,
                "duration": 0.2227273,
                "tempo": 120.0
            },
            {
                "start_time": 15.1727273,
                "end_time": 15.4363636,
                "pitch": 30,
                "velocity": 101,
                "duration": 0.2636364,
                "tempo": 120.0
            },
            {
                "start_time": 15.4363636,
                "end_time": 15.5772727,
                "pitch": 32,
                "velocity": 80,
                "duration": 0.1409091,
                "tempo": 120.0
            },
            {
                "start_time": 15.5772727,
                "end_time": 15.7454545,
                "pitch": 32,
                "velocity": 80,
                "duration": 0.1681818,
                "tempo": 120.0
            },
            {
                "start_time": 15.7454545,
                "end_time": 15.8909091,
                "pitch": 32,
                "velocity": 80,
                "duration": 0.1454545,
                "tempo": 120.0
            },
            {
                "start_time": 15.8909091,
                "end_time": 16.0386364,
                "pitch": 32,
                "velocity": 80,
                "duration": 0.1477273,
                "tempo": 120.0
            },
            {
                "start_time": 16.0386364,
                "end_time": 16.1840909,
                "pitch": 32,
                "velocity": 80,
                "duration": 0.1454545,
                "tempo": 120.0
            },
            {
                "start_time": 16.1840909,
                "end_time": 16.3363636,
                "pitch": 32,
                "velocity": 80,
                "duration": 0.1522727,
                "tempo": 120.0
            },
            {
                "start_time": 16.3363636,
                "end_time": 16.5045455,
                "pitch": 32,
                "velocity": 80,
                "duration": 0.1681818,
                "tempo": 120.0
            },
            {
                "start_time": 16.5045455,
                "end_time": 16.6545455,
                "pitch": 32,
                "velocity": 80,
                "duration": 0.15,
                "tempo": 120.0
            },
            {
                "start_time": 16.6545455,
                "end_time": 16.7704545,
                "pitch": 32,
                "velocity": 80,
                "duration": 0.1159091,
                "tempo": 120.0
            },
            {
                "start_time": 16.7727273,
                "end_time": 16.8909091,
                "pitch": 32,
                "velocity": 80,
                "duration": 0.1181818,
                "tempo": 120.0
            },
            {
                "start_time": 16.8909091,
                "end_time": 17.0068182,
                "pitch": 32,
                "velocity": 80,
                "duration": 0.1159091,
                "tempo": 120.0
            },
            {
                "start_time": 17.0068182,
                "end_time": 17.1431818,
                "pitch": 32,
                "velocity": 80,
                "duration": 0.1363636,
                "tempo": 120.0
            },
            {
                "start_time": 17.1431818,
                "end_time": 17.2590909,
                "pitch": 32,
                "velocity": 80,
                "duration": 0.1159091,
                "tempo": 120.0
            },
            {
                "start_time": 17.2613636,
                "end_time": 17.3818182,
                "pitch": 32,
                "velocity": 80,
                "duration": 0.1204545,
                "tempo": 120.0
            },
            {
                "start_time": 17.3818182,
                "end_time": 17.5,
                "pitch": 30,
                "velocity": 80,
                "duration": 0.1181818,
                "tempo": 120.0
            },
            {
                "start_time": 17.5,
                "end_time": 17.6204545,
                "pitch": 30,
                "velocity": 80,
                "duration": 0.1204545,
                "tempo": 120.0
            },
            {
                "start_time": 17.6227273,
                "end_time": 17.7477273,
                "pitch": 28,
                "velocity": 80,
                "duration": 0.125,
                "tempo": 120.0
            },
            {
                "start_time": 17.7477273,
                "end_time": 17.8613636,
                "pitch": 28,
                "velocity": 80,
                "duration": 0.1136364,
                "tempo": 120.0
            },
            {
                "start_time": 17.8613636,
                "end_time": 17.9727273,
                "pitch": 28,
                "velocity": 80,
                "duration": 0.1113636,
                "tempo": 120.0
            },
            {
                "start_time": 17.9727273,
                "end_time": 18.0863636,
                "pitch": 28,
                "velocity": 80,
                "duration": 0.1136364,
                "tempo": 120.0
            },
            {
                "start_time": 18.0863636,
                "end_time": 18.2045455,
                "pitch": 28,
                "velocity": 80,
                "duration": 0.1181818,
                "tempo": 120.0
            },
            {
                "start_time": 18.2045455,
                "end_time": 18.3431818,
                "pitch": 28,
                "velocity": 80,
                "duration": 0.1386364,
                "tempo": 120.0
            },
            {
                "start_time": 18.3431818,
                "end_time": 18.4613636,
                "pitch": 28,
                "velocity": 80,
                "duration": 0.1181818,
                "tempo": 120.0
            },
            {
                "start_time": 18.4613636,
                "end_time": 18.5818182,
                "pitch": 28,
                "velocity": 80,
                "duration": 0.1204545,
                "tempo": 120.0
            },
            {
                "start_time": 18.5818182,
                "end_time": 18.6977273,
                "pitch": 28,
                "velocity": 80,
                "duration": 0.1159091,
                "tempo": 120.0
            },
            {
                "start_time": 18.6977273,
                "end_time": 18.8181818,
                "pitch": 28,
                "velocity": 80,
                "duration": 0.1204545,
                "tempo": 120.0
            },
            {
                "start_time": 18.8181818,
                "end_time": 18.95,
                "pitch": 28,
                "velocity": 80,
                "duration": 0.1318182,
                "tempo": 120.0
            },
            {
                "start_time": 18.95,
                "end_time": 19.0704545,
                "pitch": 28,
                "velocity": 80,
                "duration": 0.1204545,
                "tempo": 120.0
            },
            {
                "start_time": 19.0704545,
                "end_time": 19.1840909,
                "pitch": 28,
                "velocity": 80,
                "duration": 0.1136364,
                "tempo": 120.0
            },
            {
                "start_time": 19.1840909,
                "end_time": 19.3045455,
                "pitch": 28,
                "velocity": 80,
                "duration": 0.1204545,
                "tempo": 120.0
            },
            {
                "start_time": 19.3045455,
                "end_time": 19.4181818,
                "pitch": 32,
                "velocity": 80,
                "duration": 0.1136364,
                "tempo": 120.0
            },
            {
                "start_time": 19.4204545,
                "end_time": 19.5545455,
                "pitch": 32,
                "velocity": 80,
                "duration": 0.1340909,
                "tempo": 120.0
            },
            {
                "start_time": 19.5545455,
                "end_time": 19.6727273,
                "pitch": 30,
                "velocity": 80,
                "duration": 0.1181818,
                "tempo": 120.0
            },
            {
                "start_time": 19.6727273,
                "end_time": 19.7909091,
                "pitch": 30,
                "velocity": 80,
                "duration": 0.1181818,
                "tempo": 120.0
            },
            {
                "start_time": 19.7931818,
                "end_time": 19.9113636,
                "pitch": 30,
                "velocity": 80,
                "duration": 0.1181818,
                "tempo": 120.0
            },
            {
                "start_time": 19.9113636,
                "end_time": 20.0318182,
                "pitch": 30,
                "velocity": 80,
                "duration": 0.1204545,
                "tempo": 120.0
            },
            {
                "start_time": 20.0318182,
                "end_time": 20.1613636,
                "pitch": 30,
                "velocity": 80,
                "duration": 0.1295455,
                "tempo": 120.0
            },
            {
                "start_time": 20.1613636,
                "end_time": 20.2795455,
                "pitch": 30,
                "velocity": 80,
                "duration": 0.1181818,
                "tempo": 120.0
            },
            {
                "start_time": 20.2795455,
                "end_time": 20.3931818,
                "pitch": 30,
                "velocity": 80,
                "duration": 0.1136364,
                "tempo": 120.0
            },
            {
                "start_time": 20.3931818,
                "end_time": 20.5090909,
                "pitch": 30,
                "velocity": 80,
                "duration": 0.1159091,
                "tempo": 120.0
            },
            {
                "start_time": 20.5090909,
                "end_time": 20.625,
                "pitch": 30,
                "velocity": 80,
                "duration": 0.1159091,
                "tempo": 120.0
            },
            {
                "start_time": 20.625,
                "end_time": 20.7613636,
                "pitch": 30,
                "velocity": 80,
                "duration": 0.1363636,
                "tempo": 120.0
            },
            {
                "start_time": 20.7613636,
                "end_time": 20.8772727,
                "pitch": 30,
                "velocity": 80,
                "duration": 0.1159091,
                "tempo": 120.0
            },
            {
                "start_time": 20.8772727,
                "end_time": 20.9977273,
                "pitch": 30,
                "velocity": 80,
                "duration": 0.1204545,
                "tempo": 120.0
            },
            {
                "start_time": 20.9977273,
                "end_time": 21.1113636,
                "pitch": 30,
                "velocity": 80,
                "duration": 0.1136364,
                "tempo": 120.0
            },
            {
                "start_time": 21.1113636,
                "end_time": 21.2318182,
                "pitch": 30,
                "velocity": 80,
                "duration": 0.1204545,
                "tempo": 120.0
            },
            {
                "start_time": 21.2318182,
                "end_time": 21.3659091,
                "pitch": 30,
                "velocity": 80,
                "duration": 0.1340909,
                "tempo": 120.0
            },
            {
                "start_time": 21.3659091,
                "end_time": 21.4840909,
                "pitch": 30,
                "velocity": 80,
                "duration": 0.1181818,
                "tempo": 120.0
            },
            {
                "start_time": 21.4840909,
                "end_time": 21.6022727,
                "pitch": 27,
                "velocity": 80,
                "duration": 0.1181818,
                "tempo": 120.0
            },
            {
                "start_time": 21.6022727,
                "end_time": 21.7227273,
                "pitch": 27,
                "velocity": 80,
                "duration": 0.1204545,
                "tempo": 120.0
            },
            {
                "start_time": 21.7227273,
                "end_time": 21.8431818,
                "pitch": 27,
                "velocity": 80,
                "duration": 0.1204545,
                "tempo": 120.0
            },
            {
                "start_time": 21.8431818,
                "end_time": 21.9795455,
                "pitch": 27,
                "velocity": 80,
                "duration": 0.1363636,
                "tempo": 120.0
            },
            {
                "start_time": 21.9818182,
                "end_time": 22.0954545,
                "pitch": 27,
                "velocity": 80,
                "duration": 0.1136364,
                "tempo": 120.0
            },
            {
                "start_time": 22.0954545,
                "end_time": 22.2159091,
                "pitch": 27,
                "velocity": 80,
                "duration": 0.1204545,
                "tempo": 120.0
            },
            {
                "start_time": 22.2159091,
                "end_time": 22.3318182,
                "pitch": 27,
                "velocity": 80,
                "duration": 0.1159091,
                "tempo": 120.0
            },
            {
                "start_time": 22.3318182,
                "end_time": 22.4522727,
                "pitch": 27,
                "velocity": 80,
                "duration": 0.1204545,
                "tempo": 120.0
            },
            {
                "start_time": 22.4522727,
                "end_time": 22.5818182,
                "pitch": 27,
                "velocity": 80,
                "duration": 0.1295455,
                "tempo": 120.0
            },
            {
                "start_time": 22.5818182,
                "end_time": 22.6977273,
                "pitch": 27,
                "velocity": 80,
                "duration": 0.1159091,
                "tempo": 120.0
            },
            {
                "start_time": 22.6977273,
                "end_time": 22.8113636,
                "pitch": 27,
                "velocity": 80,
                "duration": 0.1136364,
                "tempo": 120.0
            },
            {
                "start_time": 22.8113636,
                "end_time": 22.9272727,
                "pitch": 27,
                "velocity": 80,
                "duration": 0.1159091,
                "tempo": 120.0
            },
            {
                "start_time": 22.9272727,
                "end_time": 23.0431818,
                "pitch": 27,
                "velocity": 80,
                "duration": 0.1159091,
                "tempo": 120.0
            },
            {
                "start_time": 23.0431818,
                "end_time": 23.1772727,
                "pitch": 27,
                "velocity": 80,
                "duration": 0.1340909,
                "tempo": 120.0
            },
            {
                "start_time": 23.1772727,
                "end_time": 23.2931818,
                "pitch": 30,
                "velocity": 80,
                "duration": 0.1159091,
                "tempo": 120.0
            },
            {
                "start_time": 23.2931818,
                "end_time": 23.4136364,
                "pitch": 30,
                "velocity": 80,
                "duration": 0.1204545,
                "tempo": 120.0
            },
            {
                "start_time": 23.4136364,
                "end_time": 23.5295455,
                "pitch": 32,
                "velocity": 80,
                "duration": 0.1159091,
                "tempo": 120.0
            },
            {
                "start_time": 23.5295455,
                "end_time": 23.65,
                "pitch": 32,
                "velocity": 80,
                "duration": 0.1204545,
                "tempo": 120.0
            },
            {
                "start_time": 23.65,
                "end_time": 23.7863636,
                "pitch": 32,
                "velocity": 80,
                "duration": 0.1363636,
                "tempo": 120.0
            },
            {
                "start_time": 23.7863636,
                "end_time": 23.9068182,
                "pitch": 32,
                "velocity": 80,
                "duration": 0.1204545,
                "tempo": 120.0
            },
            {
                "start_time": 23.9068182,
                "end_time": 24.0227273,
                "pitch": 32,
                "velocity": 80,
                "duration": 0.1159091,
                "tempo": 120.0
            },
            {
                "start_time": 24.0227273,
                "end_time": 24.1431818,
                "pitch": 32,
                "velocity": 80,
                "duration": 0.1204545,
                "tempo": 120.0
            },
            {
                "start_time": 24.1431818,
                "end_time": 24.2590909,
                "pitch": 32,
                "velocity": 80,
                "duration": 0.1159091,
                "tempo": 120.0
            },
            {
                "start_time": 24.2590909,
                "end_time": 24.3954545,
                "pitch": 32,
                "velocity": 80,
                "duration": 0.1363636,
                "tempo": 120.0
            },
            {
                "start_time": 24.3954545,
                "end_time": 24.5136364,
                "pitch": 32,
                "velocity": 80,
                "duration": 0.1181818,
                "tempo": 120.0
            },
            {
                "start_time": 24.5136364,
                "end_time": 24.6340909,
                "pitch": 32,
                "velocity": 80,
                "duration": 0.1204545,
                "tempo": 120.0
            },
            {
                "start_time": 24.6340909,
                "end_time": 24.7522727,
                "pitch": 32,
                "velocity": 80,
                "duration": 0.1181818,
                "tempo": 120.0
            },
            {
                "start_time": 24.7522727,
                "end_time": 24.8727273,
                "pitch": 32,
                "velocity": 80,
                "duration": 0.1204545,
                "tempo": 120.0
            },
            {
                "start_time": 24.875,
                "end_time": 25.0,
                "pitch": 32,
                "velocity": 80,
                "duration": 0.125,
                "tempo": 120.0
            },
            {
                "start_time": 25.0,
                "end_time": 25.1136364,
                "pitch": 32,
                "velocity": 80,
                "duration": 0.1136364,
                "tempo": 120.0
            },
            {
                "start_time": 25.1136364,
                "end_time": 25.225,
                "pitch": 30,
                "velocity": 80,
                "duration": 0.1113636,
                "tempo": 120.0
            },
            {
                "start_time": 25.225,
                "end_time": 25.3386364,
                "pitch": 30,
                "velocity": 80,
                "duration": 0.1136364,
                "tempo": 120.0
            },
            {
                "start_time": 25.3386364,
                "end_time": 25.4568182,
                "pitch": 28,
                "velocity": 80,
                "duration": 0.1181818,
                "tempo": 120.0
            },
            {
                "start_time": 25.4568182,
                "end_time": 25.5931818,
                "pitch": 28,
                "velocity": 80,
                "duration": 0.1363636,
                "tempo": 120.0
            },
            {
                "start_time": 25.5931818,
                "end_time": 25.7136364,
                "pitch": 28,
                "velocity": 80,
                "duration": 0.1204545,
                "tempo": 120.0
            },
            {
                "start_time": 25.7136364,
                "end_time": 25.8340909,
                "pitch": 28,
                "velocity": 80,
                "duration": 0.1204545,
                "tempo": 120.0
            },
            {
                "start_time": 25.8340909,
                "end_time": 25.95,
                "pitch": 28,
                "velocity": 80,
                "duration": 0.1159091,
                "tempo": 120.0
            },
            {
                "start_time": 25.95,
                "end_time": 26.0704545,
                "pitch": 28,
                "velocity": 80,
                "duration": 0.1204545,
                "tempo": 120.0
            },
            {
                "start_time": 26.0704545,
                "end_time": 26.2022727,
                "pitch": 28,
                "velocity": 80,
                "duration": 0.1318182,
                "tempo": 120.0
            },
            {
                "start_time": 26.2045455,
                "end_time": 26.3227273,
                "pitch": 28,
                "velocity": 80,
                "duration": 0.1181818,
                "tempo": 120.0
            },
            {
                "start_time": 26.3227273,
                "end_time": 26.4386364,
                "pitch": 28,
                "velocity": 80,
                "duration": 0.1159091,
                "tempo": 120.0
            },
            {
                "start_time": 26.4386364,
                "end_time": 26.5590909,
                "pitch": 28,
                "velocity": 80,
                "duration": 0.1204545,
                "tempo": 120.0
            },
            {
                "start_time": 26.5590909,
                "end_time": 26.6727273,
                "pitch": 28,
                "velocity": 80,
                "duration": 0.1136364,
                "tempo": 120.0
            },
            {
                "start_time": 26.6727273,
                "end_time": 26.8113636,
                "pitch": 28,
                "velocity": 80,
                "duration": 0.1386364,
                "tempo": 120.0
            },
            {
                "start_time": 26.8113636,
                "end_time": 26.9272727,
                "pitch": 28,
                "velocity": 80,
                "duration": 0.1159091,
                "tempo": 120.0
            },
            {
                "start_time": 26.9272727,
                "end_time": 27.05,
                "pitch": 28,
                "velocity": 80,
                "duration": 0.1227273,
                "tempo": 120.0
            },
            {
                "start_time": 27.05,
                "end_time": 27.1681818,
                "pitch": 32,
                "velocity": 80,
                "duration": 0.1181818,
                "tempo": 120.0
            },
            {
                "start_time": 27.1681818,
                "end_time": 27.2886364,
                "pitch": 32,
                "velocity": 80,
                "duration": 0.1204545,
                "tempo": 120.0
            },
            {
                "start_time": 27.2886364,
                "end_time": 27.4181818,
                "pitch": 30,
                "velocity": 80,
                "duration": 0.1295455,
                "tempo": 120.0
            },
            {
                "start_time": 27.4181818,
                "end_time": 27.5340909,
                "pitch": 30,
                "velocity": 80,
                "duration": 0.1159091,
                "tempo": 120.0
            },
            {
                "start_time": 27.5340909,
                "end_time": 27.65,
                "pitch": 30,
                "velocity": 80,
                "duration": 0.1159091,
                "tempo": 120.0
            },
            {
                "start_time": 27.65,
                "end_time": 27.7659091,
                "pitch": 30,
                "velocity": 80,
                "duration": 0.1159091,
                "tempo": 120.0
            },
            {
                "start_time": 27.7659091,
                "end_time": 27.8818182,
                "pitch": 30,
                "velocity": 80,
                "duration": 0.1159091,
                "tempo": 120.0
            },
            {
                "start_time": 27.8818182,
                "end_time": 28.0181818,
                "pitch": 30,
                "velocity": 80,
                "duration": 0.1363636,
                "tempo": 120.0
            },
            {
                "start_time": 28.0181818,
                "end_time": 28.1340909,
                "pitch": 30,
                "velocity": 80,
                "duration": 0.1159091,
                "tempo": 120.0
            },
            {
                "start_time": 28.1340909,
                "end_time": 28.2522727,
                "pitch": 30,
                "velocity": 80,
                "duration": 0.1181818,
                "tempo": 120.0
            },
            {
                "start_time": 28.2522727,
                "end_time": 28.3704545,
                "pitch": 30,
                "velocity": 80,
                "duration": 0.1181818,
                "tempo": 120.0
            },
            {
                "start_time": 28.3704545,
                "end_time": 28.4886364,
                "pitch": 30,
                "velocity": 80,
                "duration": 0.1181818,
                "tempo": 120.0
            },
            {
                "start_time": 28.4886364,
                "end_time": 28.6227273,
                "pitch": 30,
                "velocity": 80,
                "duration": 0.1340909,
                "tempo": 120.0
            },
            {
                "start_time": 28.6227273,
                "end_time": 28.7409091,
                "pitch": 30,
                "velocity": 80,
                "duration": 0.1181818,
                "tempo": 120.0
            },
            {
                "start_time": 28.7409091,
                "end_time": 28.8590909,
                "pitch": 30,
                "velocity": 80,
                "duration": 0.1181818,
                "tempo": 120.0
            },
            {
                "start_time": 28.8590909,
                "end_time": 28.9795455,
                "pitch": 30,
                "velocity": 80,
                "duration": 0.1204545,
                "tempo": 120.0
            },
            {
                "start_time": 28.9795455,
                "end_time": 29.0977273,
                "pitch": 30,
                "velocity": 80,
                "duration": 0.1181818,
                "tempo": 120.0
            },
            {
                "start_time": 29.0977273,
                "end_time": 29.2363636,
                "pitch": 30,
                "velocity": 80,
                "duration": 0.1386364,
                "tempo": 120.0
            },
            {
                "start_time": 29.2363636,
                "end_time": 29.3522727,
                "pitch": 27,
                "velocity": 80,
                "duration": 0.1159091,
                "tempo": 120.0
            },
            {
                "start_time": 29.3522727,
                "end_time": 29.4704545,
                "pitch": 27,
                "velocity": 80,
                "duration": 0.1181818,
                "tempo": 120.0
            },
            {
                "start_time": 29.4704545,
                "end_time": 29.5886364,
                "pitch": 27,
                "velocity": 80,
                "duration": 0.1181818,
                "tempo": 120.0
            },
            {
                "start_time": 29.5886364,
                "end_time": 29.7068182,
                "pitch": 27,
                "velocity": 80,
                "duration": 0.1181818,
                "tempo": 120.0
            },
            {
                "start_time": 29.7090909,
                "end_time": 29.8363636,
                "pitch": 27,
                "velocity": 80,
                "duration": 0.1272727,
                "tempo": 120.0
            },
            {
                "start_time": 29.8363636,
                "end_time": 29.9545455,
                "pitch": 27,
                "velocity": 80,
                "duration": 0.1181818,
                "tempo": 120.0
            },
            {
                "start_time": 29.9545455,
                "end_time": 30.0681818,
                "pitch": 27,
                "velocity": 80,
                "duration": 0.1136364,
                "tempo": 120.0
            },
            {
                "start_time": 30.0681818,
                "end_time": 30.1840909,
                "pitch": 27,
                "velocity": 80,
                "duration": 0.1159091,
                "tempo": 120.0
            },
            {
                "start_time": 30.1840909,
                "end_time": 30.3,
                "pitch": 27,
                "velocity": 80,
                "duration": 0.1159091,
                "tempo": 120.0
            },
            {
                "start_time": 30.3,
                "end_time": 30.4363636,
                "pitch": 27,
                "velocity": 80,
                "duration": 0.1363636,
                "tempo": 120.0
            },
            {
                "start_time": 30.4363636,
                "end_time": 30.5522727,
                "pitch": 27,
                "velocity": 80,
                "duration": 0.1159091,
                "tempo": 120.0
            },
            {
                "start_time": 30.5522727,
                "end_time": 30.6727273,
                "pitch": 27,
                "velocity": 80,
                "duration": 0.1204545,
                "tempo": 120.0
            },
            {
                "start_time": 30.6727273,
                "end_time": 30.7909091,
                "pitch": 27,
                "velocity": 80,
                "duration": 0.1181818,
                "tempo": 120.0
            },
            {
                "start_time": 30.7909091,
                "end_time": 30.9090909,
                "pitch": 27,
                "velocity": 80,
                "duration": 0.1181818,
                "tempo": 120.0
            },
            {
                "start_time": 30.9090909,
                "end_time": 31.0477273,
                "pitch": 30,
                "velocity": 80,
                "duration": 0.1386364,
                "tempo": 120.0
            },
            {
                "start_time": 31.0477273,
                "end_time": 31.1681818,
                "pitch": 30,
                "velocity": 80,
                "duration": 0.1204545,
                "tempo": 120.0
            },
            {
                "start_time": 31.1681818,
                "end_time": 31.2840909,
                "pitch": 28,
                "velocity": 64,
                "duration": 0.1159091,
                "tempo": 120.0
            },
            {
                "start_time": 31.2840909,
                "end_time": 31.4022727,
                "pitch": 28,
                "velocity": 64,
                "duration": 0.1181818,
                "tempo": 120.0
            },
            {
                "start_time": 31.4045455,
                "end_time": 31.5204545,
                "pitch": 40,
                "velocity": 64,
                "duration": 0.1159091,
                "tempo": 120.0
            },
            {
                "start_time": 31.5204545,
                "end_time": 31.6545455,
                "pitch": 40,
                "velocity": 64,
                "duration": 0.1340909,
                "tempo": 120.0
            },
            {
                "start_time": 31.6568182,
                "end_time": 31.7704545,
                "pitch": 28,
                "velocity": 64,
                "duration": 0.1136364,
                "tempo": 120.0
            },
            {
                "start_time": 31.7704545,
                "end_time": 31.8886364,
                "pitch": 28,
                "velocity": 64,
                "duration": 0.1181818,
                "tempo": 120.0
            },
            {
                "start_time": 31.8886364,
                "end_time": 32.0045455,
                "pitch": 40,
                "velocity": 64,
                "duration": 0.1159091,
                "tempo": 120.0
            },
            {
                "start_time": 32.0045455,
                "end_time": 32.1227273,
                "pitch": 40,
                "velocity": 64,
                "duration": 0.1181818,
                "tempo": 120.0
            },
            {
                "start_time": 32.1227273,
                "end_time": 32.2568182,
                "pitch": 28,
                "velocity": 64,
                "duration": 0.1340909,
                "tempo": 120.0
            },
            {
                "start_time": 32.2568182,
                "end_time": 32.375,
                "pitch": 28,
                "velocity": 64,
                "duration": 0.1181818,
                "tempo": 120.0
            },
            {
                "start_time": 32.375,
                "end_time": 32.4909091,
                "pitch": 40,
                "velocity": 64,
                "duration": 0.1159091,
                "tempo": 120.0
            },
            {
                "start_time": 32.4909091,
                "end_time": 32.6113636,
                "pitch": 40,
                "velocity": 64,
                "duration": 0.1204545,
                "tempo": 120.0
            },
            {
                "start_time": 32.6113636,
                "end_time": 32.7272727,
                "pitch": 28,
                "velocity": 64,
                "duration": 0.1159091,
                "tempo": 120.0
            },
            {
                "start_time": 32.7272727,
                "end_time": 32.8636364,
                "pitch": 28,
                "velocity": 64,
                "duration": 0.1363636,
                "tempo": 120.0
            },
            {
                "start_time": 32.8636364,
                "end_time": 32.9795455,
                "pitch": 40,
                "velocity": 64,
                "duration": 0.1159091,
                "tempo": 120.0
            },
            {
                "start_time": 32.9795455,
                "end_time": 33.0977273,
                "pitch": 40,
                "velocity": 64,
                "duration": 0.1181818,
                "tempo": 120.0
            },
            {
                "start_time": 33.0977273,
                "end_time": 33.2136364,
                "pitch": 25,
                "velocity": 64,
                "duration": 0.1159091,
                "tempo": 120.0
            },
            {
                "start_time": 33.2136364,
                "end_time": 33.3318182,
                "pitch": 25,
                "velocity": 64,
                "duration": 0.1181818,
                "tempo": 120.0
            },
            {
                "start_time": 33.3318182,
                "end_time": 33.4659091,
                "pitch": 37,
                "velocity": 64,
                "duration": 0.1340909,
                "tempo": 120.0
            },
            {
                "start_time": 33.4659091,
                "end_time": 33.5818182,
                "pitch": 37,
                "velocity": 64,
                "duration": 0.1159091,
                "tempo": 120.0
            },
            {
                "start_time": 33.5818182,
                "end_time": 33.6977273,
                "pitch": 25,
                "velocity": 64,
                "duration": 0.1159091,
                "tempo": 120.0
            },
            {
                "start_time": 33.6977273,
                "end_time": 33.8159091,
                "pitch": 25,
                "velocity": 64,
                "duration": 0.1181818,
                "tempo": 120.0
            },
            {
                "start_time": 33.8159091,
                "end_time": 33.9318182,
                "pitch": 37,
                "velocity": 64,
                "duration": 0.1159091,
                "tempo": 120.0
            },
            {
                "start_time": 33.9318182,
                "end_time": 34.0659091,
                "pitch": 37,
                "velocity": 64,
                "duration": 0.1340909,
                "tempo": 120.0
            },
            {
                "start_time": 34.0659091,
                "end_time": 34.1840909,
                "pitch": 25,
                "velocity": 64,
                "duration": 0.1181818,
                "tempo": 120.0
            },
            {
                "start_time": 34.1840909,
                "end_time": 34.3045455,
                "pitch": 25,
                "velocity": 64,
                "duration": 0.1204545,
                "tempo": 120.0
            },
            {
                "start_time": 34.3068182,
                "end_time": 34.4227273,
                "pitch": 37,
                "velocity": 64,
                "duration": 0.1159091,
                "tempo": 120.0
            },
            {
                "start_time": 34.4227273,
                "end_time": 34.5454545,
                "pitch": 37,
                "velocity": 64,
                "duration": 0.1227273,
                "tempo": 120.0
            },
            {
                "start_time": 34.5454545,
                "end_time": 34.675,
                "pitch": 25,
                "velocity": 64,
                "duration": 0.1295455,
                "tempo": 120.0
            },
            {
                "start_time": 34.675,
                "end_time": 34.7909091,
                "pitch": 25,
                "velocity": 64,
                "duration": 0.1159091,
                "tempo": 120.0
            },
            {
                "start_time": 34.7909091,
                "end_time": 34.9045455,
                "pitch": 37,
                "velocity": 64,
                "duration": 0.1136364,
                "tempo": 120.0
            },
            {
                "start_time": 34.9045455,
                "end_time": 35.0204545,
                "pitch": 37,
                "velocity": 64,
                "duration": 0.1159091,
                "tempo": 120.0
            },
            {
                "start_time": 35.0227273,
                "end_time": 35.1386364,
                "pitch": 30,
                "velocity": 64,
                "duration": 0.1159091,
                "tempo": 120.0
            },
            {
                "start_time": 35.1386364,
                "end_time": 35.2727273,
                "pitch": 30,
                "velocity": 64,
                "duration": 0.1340909,
                "tempo": 120.0
            },
            {
                "start_time": 35.2727273,
                "end_time": 35.3909091,
                "pitch": 42,
                "velocity": 64,
                "duration": 0.1181818,
                "tempo": 120.0
            },
            {
                "start_time": 35.3909091,
                "end_time": 35.5090909,
                "pitch": 42,
                "velocity": 64,
                "duration": 0.1181818,
                "tempo": 120.0
            },
            {
                "start_time": 35.5090909,
                "end_time": 35.625,
                "pitch": 30,
                "velocity": 64,
                "duration": 0.1159091,
                "tempo": 120.0
            },
            {
                "start_time": 35.625,
                "end_time": 35.7409091,
                "pitch": 30,
                "velocity": 64,
                "duration": 0.1159091,
                "tempo": 120.0
            },
            {
                "start_time": 35.7409091,
                "end_time": 35.875,
                "pitch": 42,
                "velocity": 64,
                "duration": 0.1340909,
                "tempo": 120.0
            },
            {
                "start_time": 35.875,
                "end_time": 35.9931818,
                "pitch": 42,
                "velocity": 64,
                "duration": 0.1181818,
                "tempo": 120.0
            },
            {
                "start_time": 35.9931818,
                "end_time": 36.1113636,
                "pitch": 30,
                "velocity": 64,
                "duration": 0.1181818,
                "tempo": 120.0
            },
            {
                "start_time": 36.1113636,
                "end_time": 36.2318182,
                "pitch": 30,
                "velocity": 64,
                "duration": 0.1204545,
                "tempo": 120.0
            },
            {
                "start_time": 36.2318182,
                "end_time": 36.35,
                "pitch": 42,
                "velocity": 64,
                "duration": 0.1181818,
                "tempo": 120.0
            },
            {
                "start_time": 36.35,
                "end_time": 36.4886364,
                "pitch": 42,
                "velocity": 64,
                "duration": 0.1386364,
                "tempo": 120.0
            },
            {
                "start_time": 36.4886364,
                "end_time": 36.6045455,
                "pitch": 30,
                "velocity": 64,
                "duration": 0.1159091,
                "tempo": 120.0
            },
            {
                "start_time": 36.6045455,
                "end_time": 36.7227273,
                "pitch": 30,
                "velocity": 64,
                "duration": 0.1181818,
                "tempo": 120.0
            },
            {
                "start_time": 36.7227273,
                "end_time": 36.8386364,
                "pitch": 42,
                "velocity": 64,
                "duration": 0.1159091,
                "tempo": 120.0
            },
            {
                "start_time": 36.8386364,
                "end_time": 36.9568182,
                "pitch": 42,
                "velocity": 64,
                "duration": 0.1181818,
                "tempo": 120.0
            },
            {
                "start_time": 36.9568182,
                "end_time": 37.0863636,
                "pitch": 27,
                "velocity": 64,
                "duration": 0.1295455,
                "tempo": 120.0
            },
            {
                "start_time": 37.0863636,
                "end_time": 37.2022727,
                "pitch": 27,
                "velocity": 64,
                "duration": 0.1159091,
                "tempo": 120.0
            },
            {
                "start_time": 37.2022727,
                "end_time": 37.3181818,
                "pitch": 39,
                "velocity": 64,
                "duration": 0.1159091,
                "tempo": 120.0
            },
            {
                "start_time": 37.3181818,
                "end_time": 37.4318182,
                "pitch": 39,
                "velocity": 64,
                "duration": 0.1136364,
                "tempo": 120.0
            },
            {
                "start_time": 37.4318182,
                "end_time": 37.5477273,
                "pitch": 27,
                "velocity": 64,
                "duration": 0.1159091,
                "tempo": 120.0
            },
            {
                "start_time": 37.5477273,
                "end_time": 37.6818182,
                "pitch": 27,
                "velocity": 64,
                "duration": 0.1340909,
                "tempo": 120.0
            },
            {
                "start_time": 37.6818182,
                "end_time": 37.7977273,
                "pitch": 39,
                "velocity": 64,
                "duration": 0.1159091,
                "tempo": 120.0
            },
            {
                "start_time": 37.7977273,
                "end_time": 37.9159091,
                "pitch": 39,
                "velocity": 64,
                "duration": 0.1181818,
                "tempo": 120.0
            },
            {
                "start_time": 37.9159091,
                "end_time": 38.0340909,
                "pitch": 27,
                "velocity": 64,
                "duration": 0.1181818,
                "tempo": 120.0
            },
            {
                "start_time": 38.0340909,
                "end_time": 38.1545455,
                "pitch": 27,
                "velocity": 64,
                "duration": 0.1204545,
                "tempo": 120.0
            },
            {
                "start_time": 38.1545455,
                "end_time": 38.2909091,
                "pitch": 39,
                "velocity": 64,
                "duration": 0.1363636,
                "tempo": 120.0
            },
            {
                "start_time": 38.2909091,
                "end_time": 38.4113636,
                "pitch": 39,
                "velocity": 64,
                "duration": 0.1204545,
                "tempo": 120.0
            },
            {
                "start_time": 38.4113636,
                "end_time": 38.5272727,
                "pitch": 27,
                "velocity": 64,
                "duration": 0.1159091,
                "tempo": 120.0
            },
            {
                "start_time": 38.5272727,
                "end_time": 38.6454545,
                "pitch": 27,
                "velocity": 64,
                "duration": 0.1181818,
                "tempo": 120.0
            },
            {
                "start_time": 38.6454545,
                "end_time": 38.7613636,
                "pitch": 39,
                "velocity": 64,
                "duration": 0.1159091,
                "tempo": 120.0
            },
            {
                "start_time": 38.7613636,
                "end_time": 38.8977273,
                "pitch": 39,
                "velocity": 64,
                "duration": 0.1363636,
                "tempo": 120.0
            },
            {
                "start_time": 38.8977273,
                "end_time": 39.0136364,
                "pitch": 28,
                "velocity": 64,
                "duration": 0.1159091,
                "tempo": 120.0
            },
            {
                "start_time": 39.0136364,
                "end_time": 39.1318182,
                "pitch": 28,
                "velocity": 64,
                "duration": 0.1181818,
                "tempo": 120.0
            },
            {
                "start_time": 39.1318182,
                "end_time": 39.25,
                "pitch": 40,
                "velocity": 64,
                "duration": 0.1181818,
                "tempo": 120.0
            },
            {
                "start_time": 39.25,
                "end_time": 39.3659091,
                "pitch": 40,
                "velocity": 64,
                "duration": 0.1159091,
                "tempo": 120.0
            },
            {
                "start_time": 39.3659091,
                "end_time": 39.4954545,
                "pitch": 28,
                "velocity": 64,
                "duration": 0.1295455,
                "tempo": 120.0
            },
            {
                "start_time": 39.4954545,
                "end_time": 39.6113636,
                "pitch": 28,
                "velocity": 64,
                "duration": 0.1159091,
                "tempo": 120.0
            },
            {
                "start_time": 39.6113636,
                "end_time": 39.7272727,
                "pitch": 40,
                "velocity": 64,
                "duration": 0.1159091,
                "tempo": 120.0
            },
            {
                "start_time": 39.7272727,
                "end_time": 39.8431818,
                "pitch": 40,
                "velocity": 64,
                "duration": 0.1159091,
                "tempo": 120.0
            },
            {
                "start_time": 39.8431818,
                "end_time": 39.9613636,
                "pitch": 28,
                "velocity": 64,
                "duration": 0.1181818,
                "tempo": 120.0
            },
            {
                "start_time": 39.9613636,
                "end_time": 40.1,
                "pitch": 28,
                "velocity": 64,
                "duration": 0.1386364,
                "tempo": 120.0
            },
            {
                "start_time": 40.1,
                "end_time": 40.2181818,
                "pitch": 40,
                "velocity": 64,
                "duration": 0.1181818,
                "tempo": 120.0
            },
            {
                "start_time": 40.2181818,
                "end_time": 40.3386364,
                "pitch": 40,
                "velocity": 64,
                "duration": 0.1204545,
                "tempo": 120.0
            },
            {
                "start_time": 40.3386364,
                "end_time": 40.4545455,
                "pitch": 28,
                "velocity": 64,
                "duration": 0.1159091,
                "tempo": 120.0
            },
            {
                "start_time": 40.4545455,
                "end_time": 40.575,
                "pitch": 28,
                "velocity": 64,
                "duration": 0.1204545,
                "tempo": 120.0
            },
            {
                "start_time": 40.575,
                "end_time": 40.7068182,
                "pitch": 40,
                "velocity": 64,
                "duration": 0.1318182,
                "tempo": 120.0
            },
            {
                "start_time": 40.7090909,
                "end_time": 40.8272727,
                "pitch": 40,
                "velocity": 64,
                "duration": 0.1181818,
                "tempo": 120.0
            },
            {
                "start_time": 40.8272727,
                "end_time": 40.9431818,
                "pitch": 25,
                "velocity": 64,
                "duration": 0.1159091,
                "tempo": 120.0
            },
            {
                "start_time": 40.9431818,
                "end_time": 41.0590909,
                "pitch": 25,
                "velocity": 64,
                "duration": 0.1159091,
                "tempo": 120.0
            },
            {
                "start_time": 41.0613636,
                "end_time": 41.1772727,
                "pitch": 37,
                "velocity": 64,
                "duration": 0.1159091,
                "tempo": 120.0
            },
            {
                "start_time": 41.1772727,
                "end_time": 41.3113636,
                "pitch": 37,
                "velocity": 64,
                "duration": 0.1340909,
                "tempo": 120.0
            },
            {
                "start_time": 41.3113636,
                "end_time": 41.4272727,
                "pitch": 25,
                "velocity": 64,
                "duration": 0.1159091,
                "tempo": 120.0
            },
            {
                "start_time": 41.4272727,
                "end_time": 41.5477273,
                "pitch": 25,
                "velocity": 64,
                "duration": 0.1204545,
                "tempo": 120.0
            },
            {
                "start_time": 41.55,
                "end_time": 41.6681818,
                "pitch": 37,
                "velocity": 64,
                "duration": 0.1181818,
                "tempo": 120.0
            },
            {
                "start_time": 41.6681818,
                "end_time": 41.7886364,
                "pitch": 37,
                "velocity": 64,
                "duration": 0.1204545,
                "tempo": 120.0
            },
            {
                "start_time": 41.7886364,
                "end_time": 41.9204545,
                "pitch": 25,
                "velocity": 64,
                "duration": 0.1318182,
                "tempo": 120.0
            },
            {
                "start_time": 41.9204545,
                "end_time": 42.0363636,
                "pitch": 25,
                "velocity": 64,
                "duration": 0.1159091,
                "tempo": 120.0
            },
            {
                "start_time": 42.0363636,
                "end_time": 42.1477273,
                "pitch": 37,
                "velocity": 64,
                "duration": 0.1113636,
                "tempo": 120.0
            },
            {
                "start_time": 42.15,
                "end_time": 42.2659091,
                "pitch": 37,
                "velocity": 64,
                "duration": 0.1159091,
                "tempo": 120.0
            },
            {
                "start_time": 42.2659091,
                "end_time": 42.3818182,
                "pitch": 25,
                "velocity": 64,
                "duration": 0.1159091,
                "tempo": 120.0
            },
            {
                "start_time": 42.3818182,
                "end_time": 42.5181818,
                "pitch": 25,
                "velocity": 64,
                "duration": 0.1363636,
                "tempo": 120.0
            },
            {
                "start_time": 42.5181818,
                "end_time": 42.6340909,
                "pitch": 37,
                "velocity": 64,
                "duration": 0.1159091,
                "tempo": 120.0
            },
            {
                "start_time": 42.6340909,
                "end_time": 42.7522727,
                "pitch": 37,
                "velocity": 64,
                "duration": 0.1181818,
                "tempo": 120.0
            },
            {
                "start_time": 42.7545455,
                "end_time": 42.8681818,
                "pitch": 30,
                "velocity": 64,
                "duration": 0.1136364,
                "tempo": 120.0
            },
            {
                "start_time": 42.8681818,
                "end_time": 42.9863636,
                "pitch": 30,
                "velocity": 64,
                "duration": 0.1181818,
                "tempo": 120.0
            },
            {
                "start_time": 42.9863636,
                "end_time": 43.1204545,
                "pitch": 42,
                "velocity": 64,
                "duration": 0.1340909,
                "tempo": 120.0
            },
            {
                "start_time": 43.1204545,
                "end_time": 43.2363636,
                "pitch": 42,
                "velocity": 64,
                "duration": 0.1159091,
                "tempo": 120.0
            },
            {
                "start_time": 43.2363636,
                "end_time": 43.3545455,
                "pitch": 30,
                "velocity": 64,
                "duration": 0.1181818,
                "tempo": 120.0
            },
            {
                "start_time": 43.3545455,
                "end_time": 43.475,
                "pitch": 30,
                "velocity": 64,
                "duration": 0.1204545,
                "tempo": 120.0
            },
            {
                "start_time": 43.475,
                "end_time": 43.5954545,
                "pitch": 42,
                "velocity": 64,
                "duration": 0.1204545,
                "tempo": 120.0
            },
            {
                "start_time": 43.5954545,
                "end_time": 43.7318182,
                "pitch": 42,
                "velocity": 64,
                "duration": 0.1363636,
                "tempo": 120.0
            },
            {
                "start_time": 43.7340909,
                "end_time": 43.8477273,
                "pitch": 30,
                "velocity": 64,
                "duration": 0.1136364,
                "tempo": 120.0
            },
            {
                "start_time": 43.85,
                "end_time": 43.9659091,
                "pitch": 30,
                "velocity": 64,
                "duration": 0.1159091,
                "tempo": 120.0
            },
            {
                "start_time": 43.9659091,
                "end_time": 44.0818182,
                "pitch": 42,
                "velocity": 64,
                "duration": 0.1159091,
                "tempo": 120.0
            },
            {
                "start_time": 44.0818182,
                "end_time": 44.2,
                "pitch": 42,
                "velocity": 64,
                "duration": 0.1181818,
                "tempo": 120.0
            },
            {
                "start_time": 44.2,
                "end_time": 44.3295455,
                "pitch": 30,
                "velocity": 64,
                "duration": 0.1295455,
                "tempo": 120.0
            },
            {
                "start_time": 44.3295455,
                "end_time": 44.4454545,
                "pitch": 30,
                "velocity": 64,
                "duration": 0.1159091,
                "tempo": 120.0
            },
            {
                "start_time": 44.4477273,
                "end_time": 44.5613636,
                "pitch": 42,
                "velocity": 64,
                "duration": 0.1136364,
                "tempo": 120.0
            },
            {
                "start_time": 44.5613636,
                "end_time": 44.6772727,
                "pitch": 42,
                "velocity": 64,
                "duration": 0.1159091,
                "tempo": 120.0
            },
            {
                "start_time": 44.6772727,
                "end_time": 44.7931818,
                "pitch": 27,
                "velocity": 64,
                "duration": 0.1159091,
                "tempo": 120.0
            },
            {
                "start_time": 44.7931818,
                "end_time": 44.9295455,
                "pitch": 27,
                "velocity": 64,
                "duration": 0.1363636,
                "tempo": 120.0
            },
            {
                "start_time": 44.9295455,
                "end_time": 45.0454545,
                "pitch": 39,
                "velocity": 64,
                "duration": 0.1159091,
                "tempo": 120.0
            },
            {
                "start_time": 45.0477273,
                "end_time": 45.1636364,
                "pitch": 39,
                "velocity": 64,
                "duration": 0.1159091,
                "tempo": 120.0
            },
            {
                "start_time": 45.1636364,
                "end_time": 45.2818182,
                "pitch": 27,
                "velocity": 64,
                "duration": 0.1181818,
                "tempo": 120.0
            },
            {
                "start_time": 45.2818182,
                "end_time": 45.4022727,
                "pitch": 27,
                "velocity": 64,
                "duration": 0.1204545,
                "tempo": 120.0
            },
            {
                "start_time": 45.4022727,
                "end_time": 45.5386364,
                "pitch": 39,
                "velocity": 64,
                "duration": 0.1363636,
                "tempo": 120.0
            },
            {
                "start_time": 45.5386364,
                "end_time": 45.6590909,
                "pitch": 39,
                "velocity": 64,
                "duration": 0.1204545,
                "tempo": 120.0
            },
            {
                "start_time": 45.6590909,
                "end_time": 45.775,
                "pitch": 27,
                "velocity": 64,
                "duration": 0.1159091,
                "tempo": 120.0
            },
            {
                "start_time": 45.7772727,
                "end_time": 45.8931818,
                "pitch": 27,
                "velocity": 64,
                "duration": 0.1159091,
                "tempo": 120.0
            },
            {
                "start_time": 45.8931818,
                "end_time": 46.0090909,
                "pitch": 39,
                "velocity": 64,
                "duration": 0.1159091,
                "tempo": 120.0
            },
            {
                "start_time": 46.0090909,
                "end_time": 46.1431818,
                "pitch": 39,
                "velocity": 64,
                "duration": 0.1340909,
                "tempo": 120.0
            },
            {
                "start_time": 46.1454545,
                "end_time": 46.2590909,
                "pitch": 27,
                "velocity": 64,
                "duration": 0.1136364,
                "tempo": 120.0
            },
            {
                "start_time": 46.2590909,
                "end_time": 46.3772727,
                "pitch": 27,
                "velocity": 64,
                "duration": 0.1181818,
                "tempo": 120.0
            },
            {
                "start_time": 46.3772727,
                "end_time": 46.4931818,
                "pitch": 39,
                "velocity": 64,
                "duration": 0.1159091,
                "tempo": 120.0
            },
            {
                "start_time": 46.4931818,
                "end_time": 46.6113636,
                "pitch": 39,
                "velocity": 64,
                "duration": 0.1181818,
                "tempo": 120.0
            },
            {
                "start_time": 46.6113636,
                "end_time": 46.7409091,
                "pitch": 29,
                "velocity": 64,
                "duration": 0.1295455,
                "tempo": 120.0
            },
            {
                "start_time": 46.7409091,
                "end_time": 46.8568182,
                "pitch": 29,
                "velocity": 64,
                "duration": 0.1159091,
                "tempo": 120.0
            },
            {
                "start_time": 46.8568182,
                "end_time": 46.9727273,
                "pitch": 41,
                "velocity": 64,
                "duration": 0.1159091,
                "tempo": 120.0
            },
            {
                "start_time": 46.9727273,
                "end_time": 47.0886364,
                "pitch": 41,
                "velocity": 64,
                "duration": 0.1159091,
                "tempo": 120.0
            },
            {
                "start_time": 47.0886364,
                "end_time": 47.2022727,
                "pitch": 29,
                "velocity": 64,
                "duration": 0.1136364,
                "tempo": 120.0
            },
            {
                "start_time": 47.2022727,
                "end_time": 47.3363636,
                "pitch": 29,
                "velocity": 64,
                "duration": 0.1340909,
                "tempo": 120.0
            },
            {
                "start_time": 47.3363636,
                "end_time": 47.4545455,
                "pitch": 41,
                "velocity": 64,
                "duration": 0.1181818,
                "tempo": 120.0
            },
            {
                "start_time": 47.4545455,
                "end_time": 47.5704545,
                "pitch": 41,
                "velocity": 64,
                "duration": 0.1159091,
                "tempo": 120.0
            },
            {
                "start_time": 47.5704545,
                "end_time": 47.6909091,
                "pitch": 29,
                "velocity": 64,
                "duration": 0.1204545,
                "tempo": 120.0
            },
            {
                "start_time": 47.6909091,
                "end_time": 47.8113636,
                "pitch": 29,
                "velocity": 64,
                "duration": 0.1204545,
                "tempo": 120.0
            },
            {
                "start_time": 47.8113636,
                "end_time": 47.9454545,
                "pitch": 41,
                "velocity": 64,
                "duration": 0.1340909,
                "tempo": 120.0
            },
            {
                "start_time": 47.9477273,
                "end_time": 48.0681818,
                "pitch": 41,
                "velocity": 64,
                "duration": 0.1204545,
                "tempo": 120.0
            },
            {
                "start_time": 48.0681818,
                "end_time": 48.1818182,
                "pitch": 29,
                "velocity": 64,
                "duration": 0.1136364,
                "tempo": 120.0
            },
            {
                "start_time": 48.1818182,
                "end_time": 48.3,
                "pitch": 29,
                "velocity": 64,
                "duration": 0.1181818,
                "tempo": 120.0
            },
            {
                "start_time": 48.3,
                "end_time": 48.4159091,
                "pitch": 41,
                "velocity": 64,
                "duration": 0.1159091,
                "tempo": 120.0
            },
            {
                "start_time": 48.4159091,
                "end_time": 48.55,
                "pitch": 41,
                "velocity": 64,
                "duration": 0.1340909,
                "tempo": 120.0
            },
            {
                "start_time": 48.5522727,
                "end_time": 48.6704545,
                "pitch": 26,
                "velocity": 64,
                "duration": 0.1181818,
                "tempo": 120.0
            },
            {
                "start_time": 48.6704545,
                "end_time": 48.7909091,
                "pitch": 26,
                "velocity": 64,
                "duration": 0.1204545,
                "tempo": 120.0
            },
            {
                "start_time": 48.7909091,
                "end_time": 48.9090909,
                "pitch": 38,
                "velocity": 64,
                "duration": 0.1181818,
                "tempo": 120.0
            },
            {
                "start_time": 48.9113636,
                "end_time": 49.0295455,
                "pitch": 38,
                "velocity": 64,
                "duration": 0.1181818,
                "tempo": 120.0
            },
            {
                "start_time": 49.0295455,
                "end_time": 49.1568182,
                "pitch": 26,
                "velocity": 64,
                "duration": 0.1272727,
                "tempo": 120.0
            },
            {
                "start_time": 49.1568182,
                "end_time": 49.2681818,
                "pitch": 26,
                "velocity": 64,
                "duration": 0.1113636,
                "tempo": 120.0
            },
            {
                "start_time": 49.2704545,
                "end_time": 49.3818182,
                "pitch": 38,
                "velocity": 64,
                "duration": 0.1113636,
                "tempo": 120.0
            },
            {
                "start_time": 49.3818182,
                "end_time": 49.4954545,
                "pitch": 38,
                "velocity": 64,
                "duration": 0.1136364,
                "tempo": 120.0
            },
            {
                "start_time": 49.4954545,
                "end_time": 49.6136364,
                "pitch": 26,
                "velocity": 64,
                "duration": 0.1181818,
                "tempo": 120.0
            },
            {
                "start_time": 49.6136364,
                "end_time": 49.7522727,
                "pitch": 26,
                "velocity": 64,
                "duration": 0.1386364,
                "tempo": 120.0
            },
            {
                "start_time": 49.7522727,
                "end_time": 49.8681818,
                "pitch": 38,
                "velocity": 64,
                "duration": 0.1159091,
                "tempo": 120.0
            },
            {
                "start_time": 49.8681818,
                "end_time": 49.9909091,
                "pitch": 38,
                "velocity": 64,
                "duration": 0.1227273,
                "tempo": 120.0
            },
            {
                "start_time": 49.9909091,
                "end_time": 50.1045455,
                "pitch": 26,
                "velocity": 64,
                "duration": 0.1136364,
                "tempo": 120.0
            },
            {
                "start_time": 50.1045455,
                "end_time": 50.225,
                "pitch": 26,
                "velocity": 64,
                "duration": 0.1204545,
                "tempo": 120.0
            },
            {
                "start_time": 50.225,
                "end_time": 50.3568182,
                "pitch": 38,
                "velocity": 64,
                "duration": 0.1318182,
                "tempo": 120.0
            },
            {
                "start_time": 50.3568182,
                "end_time": 50.475,
                "pitch": 38,
                "velocity": 64,
                "duration": 0.1181818,
                "tempo": 120.0
            },
            {
                "start_time": 50.475,
                "end_time": 50.5909091,
                "pitch": 31,
                "velocity": 64,
                "duration": 0.1159091,
                "tempo": 120.0
            },
            {
                "start_time": 50.5909091,
                "end_time": 50.7068182,
                "pitch": 31,
                "velocity": 64,
                "duration": 0.1159091,
                "tempo": 120.0
            },
            {
                "start_time": 50.7090909,
                "end_time": 50.825,
                "pitch": 43,
                "velocity": 64,
                "duration": 0.1159091,
                "tempo": 120.0
            },
            {
                "start_time": 50.825,
                "end_time": 50.9590909,
                "pitch": 43,
                "velocity": 64,
                "duration": 0.1340909,
                "tempo": 120.0
            },
            {
                "start_time": 50.9590909,
                "end_time": 51.075,
                "pitch": 31,
                "velocity": 64,
                "duration": 0.1159091,
                "tempo": 120.0
            },
            {
                "start_time": 51.0772727,
                "end_time": 51.1954545,
                "pitch": 31,
                "velocity": 64,
                "duration": 0.1181818,
                "tempo": 120.0
            },
            {
                "start_time": 51.1977273,
                "end_time": 51.3159091,
                "pitch": 43,
                "velocity": 64,
                "duration": 0.1181818,
                "tempo": 120.0
            },
            {
                "start_time": 51.3159091,
                "end_time": 51.4363636,
                "pitch": 43,
                "velocity": 64,
                "duration": 0.1204545,
                "tempo": 120.0
            },
            {
                "start_time": 51.4363636,
                "end_time": 51.5681818,
                "pitch": 31,
                "velocity": 64,
                "duration": 0.1318182,
                "tempo": 120.0
            },
            {
                "start_time": 51.5681818,
                "end_time": 51.6840909,
                "pitch": 31,
                "velocity": 64,
                "duration": 0.1159091,
                "tempo": 120.0
            },
            {
                "start_time": 51.6840909,
                "end_time": 51.7977273,
                "pitch": 43,
                "velocity": 64,
                "duration": 0.1136364,
                "tempo": 120.0
            },
            {
                "start_time": 51.7977273,
                "end_time": 51.9136364,
                "pitch": 43,
                "velocity": 64,
                "duration": 0.1159091,
                "tempo": 120.0
            },
            {
                "start_time": 51.9136364,
                "end_time": 52.0295455,
                "pitch": 31,
                "velocity": 64,
                "duration": 0.1159091,
                "tempo": 120.0
            },
            {
                "start_time": 52.0295455,
                "end_time": 52.1659091,
                "pitch": 31,
                "velocity": 64,
                "duration": 0.1363636,
                "tempo": 120.0
            },
            {
                "start_time": 52.1659091,
                "end_time": 52.2818182,
                "pitch": 43,
                "velocity": 64,
                "duration": 0.1159091,
                "tempo": 120.0
            },
            {
                "start_time": 52.2818182,
                "end_time": 52.4022727,
                "pitch": 43,
                "velocity": 64,
                "duration": 0.1204545,
                "tempo": 120.0
            },
            {
                "start_time": 52.4022727,
                "end_time": 52.5159091,
                "pitch": 28,
                "velocity": 64,
                "duration": 0.1136364,
                "tempo": 120.0
            },
            {
                "start_time": 52.5181818,
                "end_time": 52.6340909,
                "pitch": 28,
                "velocity": 64,
                "duration": 0.1159091,
                "tempo": 120.0
            },
            {
                "start_time": 52.6340909,
                "end_time": 52.7681818,
                "pitch": 40,
                "velocity": 64,
                "duration": 0.1340909,
                "tempo": 120.0
            },
            {
                "start_time": 52.7681818,
                "end_time": 52.8840909,
                "pitch": 40,
                "velocity": 64,
                "duration": 0.1159091,
                "tempo": 120.0
            },
            {
                "start_time": 52.8863636,
                "end_time": 53.0022727,
                "pitch": 28,
                "velocity": 64,
                "duration": 0.1159091,
                "tempo": 120.0
            },
            {
                "start_time": 53.0022727,
                "end_time": 53.1227273,
                "pitch": 28,
                "velocity": 64,
                "duration": 0.1204545,
                "tempo": 120.0
            },
            {
                "start_time": 53.1227273,
                "end_time": 53.2431818,
                "pitch": 40,
                "velocity": 64,
                "duration": 0.1204545,
                "tempo": 120.0
            },
            {
                "start_time": 53.2431818,
                "end_time": 53.3795455,
                "pitch": 40,
                "velocity": 64,
                "duration": 0.1363636,
                "tempo": 120.0
            },
            {
                "start_time": 53.3795455,
                "end_time": 53.4977273,
                "pitch": 28,
                "velocity": 64,
                "duration": 0.1181818,
                "tempo": 120.0
            },
            {
                "start_time": 53.4977273,
                "end_time": 53.6136364,
                "pitch": 28,
                "velocity": 64,
                "duration": 0.1159091,
                "tempo": 120.0
            },
            {
                "start_time": 53.6136364,
                "end_time": 53.7295455,
                "pitch": 40,
                "velocity": 64,
                "duration": 0.1159091,
                "tempo": 120.0
            },
            {
                "start_time": 53.7295455,
                "end_time": 53.8477273,
                "pitch": 40,
                "velocity": 64,
                "duration": 0.1181818,
                "tempo": 120.0
            },
            {
                "start_time": 53.8477273,
                "end_time": 53.9795455,
                "pitch": 28,
                "velocity": 64,
                "duration": 0.1318182,
                "tempo": 120.0
            },
            {
                "start_time": 53.9795455,
                "end_time": 54.0931818,
                "pitch": 28,
                "velocity": 64,
                "duration": 0.1136364,
                "tempo": 120.0
            },
            {
                "start_time": 54.0931818,
                "end_time": 54.2090909,
                "pitch": 40,
                "velocity": 64,
                "duration": 0.1159091,
                "tempo": 120.0
            },
            {
                "start_time": 54.2090909,
                "end_time": 54.325,
                "pitch": 40,
                "velocity": 64,
                "duration": 0.1159091,
                "tempo": 120.0
            },
            {
                "start_time": 54.325,
                "end_time": 54.4409091,
                "pitch": 29,
                "velocity": 64,
                "duration": 0.1159091,
                "tempo": 120.0
            },
            {
                "start_time": 54.4409091,
                "end_time": 54.575,
                "pitch": 29,
                "velocity": 64,
                "duration": 0.1340909,
                "tempo": 120.0
            },
            {
                "start_time": 54.575,
                "end_time": 54.6909091,
                "pitch": 41,
                "velocity": 64,
                "duration": 0.1159091,
                "tempo": 120.0
            },
            {
                "start_time": 54.6909091,
                "end_time": 54.8090909,
                "pitch": 41,
                "velocity": 64,
                "duration": 0.1181818,
                "tempo": 120.0
            },
            {
                "start_time": 54.8090909,
                "end_time": 54.925,
                "pitch": 29,
                "velocity": 64,
                "duration": 0.1159091,
                "tempo": 120.0
            },
            {
                "start_time": 54.9272727,
                "end_time": 55.0454545,
                "pitch": 29,
                "velocity": 64,
                "duration": 0.1181818,
                "tempo": 120.0
            },
            {
                "start_time": 55.0477273,
                "end_time": 55.1840909,
                "pitch": 41,
                "velocity": 64,
                "duration": 0.1363636,
                "tempo": 120.0
            },
            {
                "start_time": 55.1840909,
                "end_time": 55.3045455,
                "pitch": 41,
                "velocity": 64,
                "duration": 0.1204545,
                "tempo": 120.0
            },
            {
                "start_time": 55.3045455,
                "end_time": 55.4204545,
                "pitch": 29,
                "velocity": 64,
                "duration": 0.1159091,
                "tempo": 120.0
            },
            {
                "start_time": 55.4204545,
                "end_time": 55.5386364,
                "pitch": 29,
                "velocity": 64,
                "duration": 0.1181818,
                "tempo": 120.0
            },
            {
                "start_time": 55.5386364,
                "end_time": 55.6522727,
                "pitch": 41,
                "velocity": 64,
                "duration": 0.1136364,
                "tempo": 120.0
            },
            {
                "start_time": 55.6545455,
                "end_time": 55.7886364,
                "pitch": 41,
                "velocity": 64,
                "duration": 0.1340909,
                "tempo": 120.0
            },
            {
                "start_time": 55.7886364,
                "end_time": 55.9045455,
                "pitch": 29,
                "velocity": 64,
                "duration": 0.1159091,
                "tempo": 120.0
            },
            {
                "start_time": 55.9068182,
                "end_time": 56.0272727,
                "pitch": 29,
                "velocity": 64,
                "duration": 0.1204545,
                "tempo": 120.0
            },
            {
                "start_time": 56.0272727,
                "end_time": 56.1454545,
                "pitch": 41,
                "velocity": 64,
                "duration": 0.1181818,
                "tempo": 120.0
            },
            {
                "start_time": 56.1454545,
                "end_time": 56.2659091,
                "pitch": 41,
                "velocity": 64,
                "duration": 0.1204545,
                "tempo": 120.0
            },
            {
                "start_time": 56.2659091,
                "end_time": 56.3931818,
                "pitch": 26,
                "velocity": 64,
                "duration": 0.1272727,
                "tempo": 120.0
            },
            {
                "start_time": 56.3931818,
                "end_time": 56.5068182,
                "pitch": 26,
                "velocity": 64,
                "duration": 0.1136364,
                "tempo": 120.0
            },
            {
                "start_time": 56.5068182,
                "end_time": 56.6181818,
                "pitch": 38,
                "velocity": 64,
                "duration": 0.1113636,
                "tempo": 120.0
            },
            {
                "start_time": 56.6204545,
                "end_time": 56.7318182,
                "pitch": 38,
                "velocity": 64,
                "duration": 0.1113636,
                "tempo": 120.0
            },
            {
                "start_time": 56.7318182,
                "end_time": 56.85,
                "pitch": 26,
                "velocity": 64,
                "duration": 0.1181818,
                "tempo": 120.0
            },
            {
                "start_time": 56.85,
                "end_time": 56.9863636,
                "pitch": 26,
                "velocity": 64,
                "duration": 0.1363636,
                "tempo": 120.0
            },
            {
                "start_time": 56.9863636,
                "end_time": 57.1068182,
                "pitch": 38,
                "velocity": 64,
                "duration": 0.1204545,
                "tempo": 120.0
            },
            {
                "start_time": 57.1068182,
                "end_time": 57.2272727,
                "pitch": 38,
                "velocity": 64,
                "duration": 0.1204545,
                "tempo": 120.0
            },
            {
                "start_time": 57.2272727,
                "end_time": 57.3431818,
                "pitch": 26,
                "velocity": 64,
                "duration": 0.1159091,
                "tempo": 120.0
            },
            {
                "start_time": 57.3431818,
                "end_time": 57.4636364,
                "pitch": 26,
                "velocity": 64,
                "duration": 0.1204545,
                "tempo": 120.0
            },
            {
                "start_time": 57.4636364,
                "end_time": 57.5954545,
                "pitch": 38,
                "velocity": 64,
                "duration": 0.1318182,
                "tempo": 120.0
            },
            {
                "start_time": 57.5954545,
                "end_time": 57.7159091,
                "pitch": 38,
                "velocity": 64,
                "duration": 0.1204545,
                "tempo": 120.0
            },
            {
                "start_time": 57.7159091,
                "end_time": 57.8295455,
                "pitch": 26,
                "velocity": 64,
                "duration": 0.1136364,
                "tempo": 120.0
            },
            {
                "start_time": 57.8295455,
                "end_time": 57.9477273,
                "pitch": 26,
                "velocity": 64,
                "duration": 0.1181818,
                "tempo": 120.0
            },
            {
                "start_time": 57.9477273,
                "end_time": 58.0636364,
                "pitch": 38,
                "velocity": 64,
                "duration": 0.1159091,
                "tempo": 120.0
            },
            {
                "start_time": 58.0636364,
                "end_time": 58.2,
                "pitch": 38,
                "velocity": 64,
                "duration": 0.1363636,
                "tempo": 120.0
            },
            {
                "start_time": 58.2,
                "end_time": 58.3181818,
                "pitch": 31,
                "velocity": 64,
                "duration": 0.1181818,
                "tempo": 120.0
            },
            {
                "start_time": 58.3181818,
                "end_time": 58.4386364,
                "pitch": 31,
                "velocity": 64,
                "duration": 0.1204545,
                "tempo": 120.0
            },
            {
                "start_time": 58.4386364,
                "end_time": 58.5568182,
                "pitch": 43,
                "velocity": 64,
                "duration": 0.1181818,
                "tempo": 120.0
            },
            {
                "start_time": 58.5590909,
                "end_time": 58.6772727,
                "pitch": 43,
                "velocity": 64,
                "duration": 0.1181818,
                "tempo": 120.0
            },
            {
                "start_time": 58.6772727,
                "end_time": 58.8068182,
                "pitch": 31,
                "velocity": 64,
                "duration": 0.1295455,
                "tempo": 120.0
            },
            {
                "start_time": 58.8068182,
                "end_time": 58.9227273,
                "pitch": 31,
                "velocity": 64,
                "duration": 0.1159091,
                "tempo": 120.0
            },
            {
                "start_time": 58.9227273,
                "end_time": 59.0386364,
                "pitch": 43,
                "velocity": 64,
                "duration": 0.1159091,
                "tempo": 120.0
            },
            {
                "start_time": 59.0386364,
                "end_time": 59.1545455,
                "pitch": 43,
                "velocity": 64,
                "duration": 0.1159091,
                "tempo": 120.0
            },
            {
                "start_time": 59.1545455,
                "end_time": 59.2704545,
                "pitch": 31,
                "velocity": 64,
                "duration": 0.1159091,
                "tempo": 120.0
            },
            {
                "start_time": 59.2704545,
                "end_time": 59.4068182,
                "pitch": 31,
                "velocity": 64,
                "duration": 0.1363636,
                "tempo": 120.0
            },
            {
                "start_time": 59.4068182,
                "end_time": 59.5227273,
                "pitch": 43,
                "velocity": 64,
                "duration": 0.1159091,
                "tempo": 120.0
            },
            {
                "start_time": 59.5227273,
                "end_time": 59.6409091,
                "pitch": 43,
                "velocity": 64,
                "duration": 0.1181818,
                "tempo": 120.0
            },
            {
                "start_time": 59.6431818,
                "end_time": 59.7568182,
                "pitch": 31,
                "velocity": 64,
                "duration": 0.1136364,
                "tempo": 120.0
            },
            {
                "start_time": 59.7568182,
                "end_time": 59.875,
                "pitch": 31,
                "velocity": 64,
                "duration": 0.1181818,
                "tempo": 120.0
            },
            {
                "start_time": 59.875,
                "end_time": 60.0068182,
                "pitch": 43,
                "velocity": 64,
                "duration": 0.1318182,
                "tempo": 120.0
            },
            {
                "start_time": 60.0090909,
                "end_time": 60.125,
                "pitch": 43,
                "velocity": 64,
                "duration": 0.1159091,
                "tempo": 120.0
            },
            {
                "start_time": 60.125,
                "end_time": 60.2431818,
                "pitch": 28,
                "velocity": 64,
                "duration": 0.1181818,
                "tempo": 120.0
            },
            {
                "start_time": 60.2454545,
                "end_time": 60.3659091,
                "pitch": 28,
                "velocity": 64,
                "duration": 0.1204545,
                "tempo": 120.0
            },
            {
                "start_time": 60.3659091,
                "end_time": 60.4840909,
                "pitch": 40,
                "velocity": 64,
                "duration": 0.1181818,
                "tempo": 120.0
            },
            {
                "start_time": 60.4840909,
                "end_time": 60.6204545,
                "pitch": 40,
                "velocity": 64,
                "duration": 0.1363636,
                "tempo": 120.0
            },
            {
                "start_time": 60.6227273,
                "end_time": 60.7363636,
                "pitch": 28,
                "velocity": 64,
                "duration": 0.1136364,
                "tempo": 120.0
            },
            {
                "start_time": 60.7363636,
                "end_time": 60.8545455,
                "pitch": 28,
                "velocity": 64,
                "duration": 0.1181818,
                "tempo": 120.0
            },
            {
                "start_time": 60.8545455,
                "end_time": 60.9704545,
                "pitch": 40,
                "velocity": 64,
                "duration": 0.1159091,
                "tempo": 120.0
            },
            {
                "start_time": 60.9704545,
                "end_time": 61.0886364,
                "pitch": 40,
                "velocity": 64,
                "duration": 0.1181818,
                "tempo": 120.0
            },
            {
                "start_time": 61.0886364,
                "end_time": 61.2181818,
                "pitch": 28,
                "velocity": 64,
                "duration": 0.1295455,
                "tempo": 120.0
            },
            {
                "start_time": 61.2181818,
                "end_time": 61.3340909,
                "pitch": 28,
                "velocity": 64,
                "duration": 0.1159091,
                "tempo": 120.0
            },
            {
                "start_time": 61.3340909,
                "end_time": 61.4477273,
                "pitch": 40,
                "velocity": 64,
                "duration": 0.1136364,
                "tempo": 120.0
            },
            {
                "start_time": 61.4477273,
                "end_time": 61.5659091,
                "pitch": 40,
                "velocity": 64,
                "duration": 0.1181818,
                "tempo": 120.0
            },
            {
                "start_time": 61.5659091,
                "end_time": 61.6818182,
                "pitch": 28,
                "velocity": 64,
                "duration": 0.1159091,
                "tempo": 120.0
            },
            {
                "start_time": 61.6818182,
                "end_time": 61.8159091,
                "pitch": 28,
                "velocity": 64,
                "duration": 0.1340909,
                "tempo": 120.0
            },
            {
                "start_time": 61.8159091,
                "end_time": 61.9340909,
                "pitch": 40,
                "velocity": 64,
                "duration": 0.1181818,
                "tempo": 120.0
            },
            {
                "start_time": 61.9340909,
                "end_time": 62.0545455,
                "pitch": 40,
                "velocity": 64,
                "duration": 0.1204545,
                "tempo": 120.0
            },
            {
                "start_time": 62.0545455,
                "end_time": 62.1704545,
                "pitch": 33,
                "velocity": 80,
                "duration": 0.1159091,
                "tempo": 120.0
            },
            {
                "start_time": 62.1704545,
                "end_time": 62.2909091,
                "pitch": 33,
                "velocity": 80,
                "duration": 0.1204545,
                "tempo": 120.0
            },
            {
                "start_time": 62.2909091,
                "end_time": 62.4272727,
                "pitch": 33,
                "velocity": 80,
                "duration": 0.1363636,
                "tempo": 120.0
            },
            {
                "start_time": 62.4272727,
                "end_time": 62.5477273,
                "pitch": 33,
                "velocity": 80,
                "duration": 0.1204545,
                "tempo": 120.0
            },
            {
                "start_time": 62.5477273,
                "end_time": 62.6636364,
                "pitch": 33,
                "velocity": 80,
                "duration": 0.1159091,
                "tempo": 120.0
            },
            {
                "start_time": 62.6636364,
                "end_time": 62.7818182,
                "pitch": 33,
                "velocity": 80,
                "duration": 0.1181818,
                "tempo": 120.0
            },
            {
                "start_time": 62.7818182,
                "end_time": 62.8977273,
                "pitch": 33,
                "velocity": 80,
                "duration": 0.1159091,
                "tempo": 120.0
            },
            {
                "start_time": 62.8977273,
                "end_time": 63.0318182,
                "pitch": 33,
                "velocity": 80,
                "duration": 0.1340909,
                "tempo": 120.0
            },
            {
                "start_time": 63.0318182,
                "end_time": 63.1477273,
                "pitch": 33,
                "velocity": 80,
                "duration": 0.1159091,
                "tempo": 120.0
            },
            {
                "start_time": 63.1477273,
                "end_time": 63.2659091,
                "pitch": 33,
                "velocity": 80,
                "duration": 0.1181818,
                "tempo": 120.0
            },
            {
                "start_time": 63.2659091,
                "end_time": 63.3818182,
                "pitch": 33,
                "velocity": 80,
                "duration": 0.1159091,
                "tempo": 120.0
            },
            {
                "start_time": 63.3818182,
                "end_time": 63.5,
                "pitch": 33,
                "velocity": 80,
                "duration": 0.1181818,
                "tempo": 120.0
            },
            {
                "start_time": 63.5,
                "end_time": 63.6295455,
                "pitch": 33,
                "velocity": 80,
                "duration": 0.1295455,
                "tempo": 120.0
            },
            {
                "start_time": 63.6295455,
                "end_time": 63.7454545,
                "pitch": 33,
                "velocity": 80,
                "duration": 0.1159091,
                "tempo": 120.0
            },
            {
                "start_time": 63.7454545,
                "end_time": 63.8590909,
                "pitch": 31,
                "velocity": 80,
                "duration": 0.1136364,
                "tempo": 120.0
            },
            {
                "start_time": 63.8590909,
                "end_time": 63.975,
                "pitch": 31,
                "velocity": 80,
                "duration": 0.1159091,
                "tempo": 120.0
            },
            {
                "start_time": 63.9772727,
                "end_time": 64.0931818,
                "pitch": 29,
                "velocity": 80,
                "duration": 0.1159091,
                "tempo": 120.0
            },
            {
                "start_time": 64.0931818,
                "end_time": 64.2318182,
                "pitch": 29,
                "velocity": 80,
                "duration": 0.1386364,
                "tempo": 120.0
            },
            {
                "start_time": 64.2318182,
                "end_time": 64.35,
                "pitch": 29,
                "velocity": 80,
                "duration": 0.1181818,
                "tempo": 120.0
            },
            {
                "start_time": 64.35,
                "end_time": 64.4704545,
                "pitch": 29,
                "velocity": 80,
                "duration": 0.1204545,
                "tempo": 120.0
            },
            {
                "start_time": 64.4727273,
                "end_time": 64.5863636,
                "pitch": 29,
                "velocity": 80,
                "duration": 0.1136364,
                "tempo": 120.0
            },
            {
                "start_time": 64.5863636,
                "end_time": 64.7068182,
                "pitch": 29,
                "velocity": 80,
                "duration": 0.1204545,
                "tempo": 120.0
            },
            {
                "start_time": 64.7068182,
                "end_time": 64.8409091,
                "pitch": 29,
                "velocity": 80,
                "duration": 0.1340909,
                "tempo": 120.0
            },
            {
                "start_time": 64.8409091,
                "end_time": 64.9590909,
                "pitch": 29,
                "velocity": 80,
                "duration": 0.1181818,
                "tempo": 120.0
            },
            {
                "start_time": 64.9590909,
                "end_time": 65.0772727,
                "pitch": 29,
                "velocity": 80,
                "duration": 0.1181818,
                "tempo": 120.0
            },
            {
                "start_time": 65.0772727,
                "end_time": 65.2,
                "pitch": 29,
                "velocity": 80,
                "duration": 0.1227273,
                "tempo": 120.0
            },
            {
                "start_time": 65.2,
                "end_time": 65.3159091,
                "pitch": 29,
                "velocity": 80,
                "duration": 0.1159091,
                "tempo": 120.0
            },
            {
                "start_time": 65.3159091,
                "end_time": 65.4545455,
                "pitch": 29,
                "velocity": 80,
                "duration": 0.1386364,
                "tempo": 120.0
            },
            {
                "start_time": 65.4545455,
                "end_time": 65.5704545,
                "pitch": 29,
                "velocity": 80,
                "duration": 0.1159091,
                "tempo": 120.0
            },
            {
                "start_time": 65.5704545,
                "end_time": 65.6909091,
                "pitch": 29,
                "velocity": 80,
                "duration": 0.1204545,
                "tempo": 120.0
            },
            {
                "start_time": 65.6909091,
                "end_time": 65.8068182,
                "pitch": 33,
                "velocity": 80,
                "duration": 0.1159091,
                "tempo": 120.0
            },
            {
                "start_time": 65.8068182,
                "end_time": 65.9272727,
                "pitch": 33,
                "velocity": 80,
                "duration": 0.1204545,
                "tempo": 120.0
            },
            {
                "start_time": 65.9272727,
                "end_time": 66.0568182,
                "pitch": 31,
                "velocity": 80,
                "duration": 0.1295455,
                "tempo": 120.0
            },
            {
                "start_time": 66.0568182,
                "end_time": 66.1704545,
                "pitch": 31,
                "velocity": 80,
                "duration": 0.1136364,
                "tempo": 120.0
            },
            {
                "start_time": 66.1704545,
                "end_time": 66.2863636,
                "pitch": 31,
                "velocity": 80,
                "duration": 0.1159091,
                "tempo": 120.0
            },
            {
                "start_time": 66.2863636,
                "end_time": 66.4022727,
                "pitch": 31,
                "velocity": 80,
                "duration": 0.1159091,
                "tempo": 120.0
            },
            {
                "start_time": 66.4022727,
                "end_time": 66.5181818,
                "pitch": 31,
                "velocity": 80,
                "duration": 0.1159091,
                "tempo": 120.0
            },
            {
                "start_time": 66.5181818,
                "end_time": 66.6545455,
                "pitch": 31,
                "velocity": 80,
                "duration": 0.1363636,
                "tempo": 120.0
            },
            {
                "start_time": 66.6545455,
                "end_time": 66.7704545,
                "pitch": 31,
                "velocity": 80,
                "duration": 0.1159091,
                "tempo": 120.0
            },
            {
                "start_time": 66.7704545,
                "end_time": 66.8909091,
                "pitch": 31,
                "velocity": 80,
                "duration": 0.1204545,
                "tempo": 120.0
            },
            {
                "start_time": 66.8909091,
                "end_time": 67.0045455,
                "pitch": 31,
                "velocity": 80,
                "duration": 0.1136364,
                "tempo": 120.0
            },
            {
                "start_time": 67.0068182,
                "end_time": 67.125,
                "pitch": 31,
                "velocity": 80,
                "duration": 0.1181818,
                "tempo": 120.0
            },
            {
                "start_time": 67.125,
                "end_time": 67.2568182,
                "pitch": 31,
                "velocity": 80,
                "duration": 0.1318182,
                "tempo": 120.0
            },
            {
                "start_time": 67.2568182,
                "end_time": 67.375,
                "pitch": 31,
                "velocity": 80,
                "duration": 0.1181818,
                "tempo": 120.0
            },
            {
                "start_time": 67.375,
                "end_time": 67.4909091,
                "pitch": 31,
                "velocity": 80,
                "duration": 0.1159091,
                "tempo": 120.0
            },
            {
                "start_time": 67.4909091,
                "end_time": 67.6113636,
                "pitch": 31,
                "velocity": 80,
                "duration": 0.1204545,
                "tempo": 120.0
            },
            {
                "start_time": 67.6113636,
                "end_time": 67.7318182,
                "pitch": 31,
                "velocity": 80,
                "duration": 0.1204545,
                "tempo": 120.0
            },
            {
                "start_time": 67.7318182,
                "end_time": 67.8704545,
                "pitch": 31,
                "velocity": 80,
                "duration": 0.1386364,
                "tempo": 120.0
            },
            {
                "start_time": 67.8704545,
                "end_time": 67.9863636,
                "pitch": 28,
                "velocity": 80,
                "duration": 0.1159091,
                "tempo": 120.0
            },
            {
                "start_time": 67.9863636,
                "end_time": 68.1045455,
                "pitch": 28,
                "velocity": 80,
                "duration": 0.1181818,
                "tempo": 120.0
            },
            {
                "start_time": 68.1045455,
                "end_time": 68.2227273,
                "pitch": 28,
                "velocity": 80,
                "duration": 0.1181818,
                "tempo": 120.0
            },
            {
                "start_time": 68.2227273,
                "end_time": 68.3409091,
                "pitch": 28,
                "velocity": 80,
                "duration": 0.1181818,
                "tempo": 120.0
            },
            {
                "start_time": 68.3409091,
                "end_time": 68.4704545,
                "pitch": 28,
                "velocity": 80,
                "duration": 0.1295455,
                "tempo": 120.0
            },
            {
                "start_time": 68.4704545,
                "end_time": 68.5863636,
                "pitch": 28,
                "velocity": 80,
                "duration": 0.1159091,
                "tempo": 120.0
            },
            {
                "start_time": 68.5886364,
                "end_time": 68.7,
                "pitch": 28,
                "velocity": 80,
                "duration": 0.1113636,
                "tempo": 120.0
            },
            {
                "start_time": 68.7,
                "end_time": 68.8181818,
                "pitch": 28,
                "velocity": 80,
                "duration": 0.1181818,
                "tempo": 120.0
            },
            {
                "start_time": 68.8181818,
                "end_time": 68.9318182,
                "pitch": 28,
                "velocity": 80,
                "duration": 0.1136364,
                "tempo": 120.0
            },
            {
                "start_time": 68.9318182,
                "end_time": 69.0681818,
                "pitch": 28,
                "velocity": 80,
                "duration": 0.1363636,
                "tempo": 120.0
            },
            {
                "start_time": 69.0681818,
                "end_time": 69.1818182,
                "pitch": 28,
                "velocity": 80,
                "duration": 0.1136364,
                "tempo": 120.0
            },
            {
                "start_time": 69.1818182,
                "end_time": 69.3022727,
                "pitch": 28,
                "velocity": 80,
                "duration": 0.1204545,
                "tempo": 120.0
            },
            {
                "start_time": 69.3022727,
                "end_time": 69.4204545,
                "pitch": 28,
                "velocity": 80,
                "duration": 0.1181818,
                "tempo": 120.0
            },
            {
                "start_time": 69.4204545,
                "end_time": 69.5386364,
                "pitch": 28,
                "velocity": 80,
                "duration": 0.1181818,
                "tempo": 120.0
            },
            {
                "start_time": 69.5386364,
                "end_time": 69.675,
                "pitch": 31,
                "velocity": 80,
                "duration": 0.1363636,
                "tempo": 120.0
            },
            {
                "start_time": 69.6772727,
                "end_time": 69.7977273,
                "pitch": 31,
                "velocity": 80,
                "duration": 0.1204545,
                "tempo": 120.0
            },
            {
                "start_time": 69.7977273,
                "end_time": 69.9113636,
                "pitch": 33,
                "velocity": 64,
                "duration": 0.1136364,
                "tempo": 120.0
            },
            {
                "start_time": 69.9113636,
                "end_time": 70.0295455,
                "pitch": 33,
                "velocity": 64,
                "duration": 0.1181818,
                "tempo": 120.0
            },
            {
                "start_time": 70.0295455,
                "end_time": 70.1454545,
                "pitch": 33,
                "velocity": 64,
                "duration": 0.1159091,
                "tempo": 120.0
            },
            {
                "start_time": 70.1454545,
                "end_time": 70.2795455,
                "pitch": 33,
                "velocity": 64,
                "duration": 0.1340909,
                "tempo": 120.0
            },
            {
                "start_time": 70.2795455,
                "end_time": 70.3954545,
                "pitch": 33,
                "velocity": 64,
                "duration": 0.1159091,
                "tempo": 120.0
            },
            {
                "start_time": 70.3954545,
                "end_time": 70.5159091,
                "pitch": 33,
                "velocity": 64,
                "duration": 0.1204545,
                "tempo": 120.0
            },
            {
                "start_time": 70.5159091,
                "end_time": 70.6318182,
                "pitch": 33,
                "velocity": 64,
                "duration": 0.1159091,
                "tempo": 120.0
            },
            {
                "start_time": 70.6318182,
                "end_time": 70.75,
                "pitch": 33,
                "velocity": 64,
                "duration": 0.1181818,
                "tempo": 120.0
            },
            {
                "start_time": 70.75,
                "end_time": 70.8840909,
                "pitch": 33,
                "velocity": 64,
                "duration": 0.1340909,
                "tempo": 120.0
            },
            {
                "start_time": 70.8863636,
                "end_time": 71.0022727,
                "pitch": 33,
                "velocity": 64,
                "duration": 0.1159091,
                "tempo": 120.0
            },
            {
                "start_time": 71.0022727,
                "end_time": 71.1204545,
                "pitch": 33,
                "velocity": 64,
                "duration": 0.1181818,
                "tempo": 120.0
            },
            {
                "start_time": 71.1204545,
                "end_time": 71.2386364,
                "pitch": 33,
                "velocity": 64,
                "duration": 0.1181818,
                "tempo": 120.0
            },
            {
                "start_time": 71.2386364,
                "end_time": 71.3545455,
                "pitch": 33,
                "velocity": 64,
                "duration": 0.1159091,
                "tempo": 120.0
            },
            {
                "start_time": 71.3545455,
                "end_time": 71.4909091,
                "pitch": 33,
                "velocity": 64,
                "duration": 0.1363636,
                "tempo": 120.0
            },
            {
                "start_time": 71.4909091,
                "end_time": 71.6090909,
                "pitch": 33,
                "velocity": 64,
                "duration": 0.1181818,
                "tempo": 120.0
            },
            {
                "start_time": 71.6090909,
                "end_time": 71.7272727,
                "pitch": 33,
                "velocity": 64,
                "duration": 0.1181818,
                "tempo": 120.0
            },
            {
                "start_time": 71.7272727,
                "end_time": 71.8431818,
                "pitch": 33,
                "velocity": 64,
                "duration": 0.1159091,
                "tempo": 120.0
            },
            {
                "start_time": 71.8431818,
                "end_time": 71.9590909,
                "pitch": 33,
                "velocity": 64,
                "duration": 0.1159091,
                "tempo": 120.0
            },
            {
                "start_time": 71.9590909,
                "end_time": 72.0931818,
                "pitch": 33,
                "velocity": 64,
                "duration": 0.1340909,
                "tempo": 120.0
            },
            {
                "start_time": 72.0931818,
                "end_time": 72.2090909,
                "pitch": 33,
                "velocity": 64,
                "duration": 0.1159091,
                "tempo": 120.0
            },
            {
                "start_time": 72.2113636,
                "end_time": 72.3272727,
                "pitch": 33,
                "velocity": 64,
                "duration": 0.1159091,
                "tempo": 120.0
            },
            {
                "start_time": 72.3272727,
                "end_time": 72.4454545,
                "pitch": 33,
                "velocity": 64,
                "duration": 0.1181818,
                "tempo": 120.0
            },
            {
                "start_time": 72.4454545,
                "end_time": 72.5636364,
                "pitch": 33,
                "velocity": 64,
                "duration": 0.1181818,
                "tempo": 120.0
            },
            {
                "start_time": 72.5636364,
                "end_time": 72.6977273,
                "pitch": 33,
                "velocity": 64,
                "duration": 0.1340909,
                "tempo": 120.0
            },
            {
                "start_time": 72.6977273,
                "end_time": 72.8181818,
                "pitch": 33,
                "velocity": 64,
                "duration": 0.1204545,
                "tempo": 120.0
            },
            {
                "start_time": 72.8181818,
                "end_time": 72.9363636,
                "pitch": 33,
                "velocity": 64,
                "duration": 0.1181818,
                "tempo": 120.0
            },
            {
                "start_time": 72.9363636,
                "end_time": 73.0568182,
                "pitch": 33,
                "velocity": 64,
                "duration": 0.1204545,
                "tempo": 120.0
            },
            {
                "start_time": 73.0568182,
                "end_time": 73.1772727,
                "pitch": 33,
                "velocity": 64,
                "duration": 0.1204545,
                "tempo": 120.0
            },
            {
                "start_time": 73.1772727,
                "end_time": 73.3045455,
                "pitch": 33,
                "velocity": 64,
                "duration": 0.1272727,
                "tempo": 120.0
            },
            {
                "start_time": 73.3045455,
                "end_time": 73.4159091,
                "pitch": 33,
                "velocity": 64,
                "duration": 0.1113636,
                "tempo": 120.0
            },
            {
                "start_time": 73.4159091,
                "end_time": 73.5295455,
                "pitch": 33,
                "velocity": 64,
                "duration": 0.1136364,
                "tempo": 120.0
            },
            {
                "start_time": 73.5295455,
                "end_time": 73.6431818,
                "pitch": 33,
                "velocity": 64,
                "duration": 0.1136364,
                "tempo": 120.0
            },
            {
                "start_time": 73.6431818,
                "end_time": 73.7613636,
                "pitch": 29,
                "velocity": 64,
                "duration": 0.1181818,
                "tempo": 120.0
            },
            {
                "start_time": 73.7613636,
                "end_time": 73.8977273,
                "pitch": 29,
                "velocity": 64,
                "duration": 0.1363636,
                "tempo": 120.0
            },
            {
                "start_time": 73.8977273,
                "end_time": 74.0181818,
                "pitch": 29,
                "velocity": 64,
                "duration": 0.1204545,
                "tempo": 120.0
            },
            {
                "start_time": 74.0181818,
                "end_time": 74.1363636,
                "pitch": 29,
                "velocity": 64,
                "duration": 0.1181818,
                "tempo": 120.0
            },
            {
                "start_time": 74.1386364,
                "end_time": 74.2545455,
                "pitch": 29,
                "velocity": 64,
                "duration": 0.1159091,
                "tempo": 120.0
            },
            {
                "start_time": 74.2545455,
                "end_time": 74.3727273,
                "pitch": 29,
                "velocity": 64,
                "duration": 0.1181818,
                "tempo": 120.0
            },
            {
                "start_time": 74.3727273,
                "end_time": 74.5068182,
                "pitch": 29,
                "velocity": 64,
                "duration": 0.1340909,
                "tempo": 120.0
            },
            {
                "start_time": 74.5068182,
                "end_time": 74.625,
                "pitch": 29,
                "velocity": 64,
                "duration": 0.1181818,
                "tempo": 120.0
            },
            {
                "start_time": 74.625,
                "end_time": 74.7454545,
                "pitch": 29,
                "velocity": 64,
                "duration": 0.1204545,
                "tempo": 120.0
            },
            {
                "start_time": 74.7454545,
                "end_time": 74.8636364,
                "pitch": 29,
                "velocity": 64,
                "duration": 0.1181818,
                "tempo": 120.0
            },
            {
                "start_time": 74.8636364,
                "end_time": 74.9840909,
                "pitch": 29,
                "velocity": 64,
                "duration": 0.1204545,
                "tempo": 120.0
            },
            {
                "start_time": 74.9840909,
                "end_time": 75.1204545,
                "pitch": 29,
                "velocity": 64,
                "duration": 0.1363636,
                "tempo": 120.0
            },
            {
                "start_time": 75.1204545,
                "end_time": 75.2363636,
                "pitch": 29,
                "velocity": 64,
                "duration": 0.1159091,
                "tempo": 120.0
            },
            {
                "start_time": 75.2386364,
                "end_time": 75.3568182,
                "pitch": 29,
                "velocity": 64,
                "duration": 0.1181818,
                "tempo": 120.0
            },
            {
                "start_time": 75.3568182,
                "end_time": 75.475,
                "pitch": 29,
                "velocity": 64,
                "duration": 0.1181818,
                "tempo": 120.0
            },
            {
                "start_time": 75.475,
                "end_time": 75.5931818,
                "pitch": 29,
                "velocity": 64,
                "duration": 0.1181818,
                "tempo": 120.0
            },
            {
                "start_time": 75.5931818,
                "end_time": 75.7227273,
                "pitch": 31,
                "velocity": 64,
                "duration": 0.1295455,
                "tempo": 120.0
            },
            {
                "start_time": 75.7227273,
                "end_time": 75.8386364,
                "pitch": 31,
                "velocity": 64,
                "duration": 0.1159091,
                "tempo": 120.0
            },
            {
                "start_time": 75.8386364,
                "end_time": 75.9522727,
                "pitch": 31,
                "velocity": 64,
                "duration": 0.1136364,
                "tempo": 120.0
            },
            {
                "start_time": 75.9522727,
                "end_time": 76.0681818,
                "pitch": 31,
                "velocity": 64,
                "duration": 0.1159091,
                "tempo": 120.0
            },
            {
                "start_time": 76.0681818,
                "end_time": 76.1840909,
                "pitch": 31,
                "velocity": 64,
                "duration": 0.1159091,
                "tempo": 120.0
            },
            {
                "start_time": 76.1840909,
                "end_time": 76.3204545,
                "pitch": 31,
                "velocity": 64,
                "duration": 0.1363636,
                "tempo": 120.0
            },
            {
                "start_time": 76.3204545,
                "end_time": 76.4386364,
                "pitch": 31,
                "velocity": 64,
                "duration": 0.1181818,
                "tempo": 120.0
            },
            {
                "start_time": 76.4386364,
                "end_time": 76.5568182,
                "pitch": 31,
                "velocity": 64,
                "duration": 0.1181818,
                "tempo": 120.0
            },
            {
                "start_time": 76.5568182,
                "end_time": 76.675,
                "pitch": 31,
                "velocity": 64,
                "duration": 0.1181818,
                "tempo": 120.0
            },
            {
                "start_time": 76.675,
                "end_time": 76.7954545,
                "pitch": 31,
                "velocity": 64,
                "duration": 0.1204545,
                "tempo": 120.0
            },
            {
                "start_time": 76.7954545,
                "end_time": 76.9318182,
                "pitch": 31,
                "velocity": 64,
                "duration": 0.1363636,
                "tempo": 120.0
            },
            {
                "start_time": 76.9318182,
                "end_time": 77.0522727,
                "pitch": 31,
                "velocity": 64,
                "duration": 0.1204545,
                "tempo": 120.0
            },
            {
                "start_time": 77.0522727,
                "end_time": 77.1681818,
                "pitch": 31,
                "velocity": 64,
                "duration": 0.1159091,
                "tempo": 120.0
            },
            {
                "start_time": 77.1681818,
                "end_time": 77.2863636,
                "pitch": 31,
                "velocity": 64,
                "duration": 0.1181818,
                "tempo": 120.0
            },
            {
                "start_time": 77.2863636,
                "end_time": 77.4045455,
                "pitch": 31,
                "velocity": 64,
                "duration": 0.1181818,
                "tempo": 120.0
            },
            {
                "start_time": 77.4045455,
                "end_time": 77.5409091,
                "pitch": 31,
                "velocity": 64,
                "duration": 0.1363636,
                "tempo": 120.0
            },
            {
                "start_time": 77.5431818,
                "end_time": 77.6568182,
                "pitch": 33,
                "velocity": 64,
                "duration": 0.1136364,
                "tempo": 120.0
            },
            {
                "start_time": 77.6568182,
                "end_time": 77.775,
                "pitch": 33,
                "velocity": 64,
                "duration": 0.1181818,
                "tempo": 120.0
            },
            {
                "start_time": 77.775,
                "end_time": 77.8931818,
                "pitch": 33,
                "velocity": 64,
                "duration": 0.1181818,
                "tempo": 120.0
            },
            {
                "start_time": 77.8931818,
                "end_time": 78.0113636,
                "pitch": 33,
                "velocity": 64,
                "duration": 0.1181818,
                "tempo": 120.0
            },
            {
                "start_time": 78.0113636,
                "end_time": 78.1409091,
                "pitch": 33,
                "velocity": 64,
                "duration": 0.1295455,
                "tempo": 120.0
            },
            {
                "start_time": 78.1409091,
                "end_time": 78.2568182,
                "pitch": 33,
                "velocity": 64,
                "duration": 0.1159091,
                "tempo": 120.0
            },
            {
                "start_time": 78.2568182,
                "end_time": 78.3727273,
                "pitch": 33,
                "velocity": 64,
                "duration": 0.1159091,
                "tempo": 120.0
            },
            {
                "start_time": 78.3727273,
                "end_time": 78.4863636,
                "pitch": 33,
                "velocity": 64,
                "duration": 0.1136364,
                "tempo": 120.0
            },
            {
                "start_time": 78.4863636,
                "end_time": 78.6068182,
                "pitch": 33,
                "velocity": 64,
                "duration": 0.1204545,
                "tempo": 120.0
            },
            {
                "start_time": 78.6068182,
                "end_time": 78.7431818,
                "pitch": 33,
                "velocity": 64,
                "duration": 0.1363636,
                "tempo": 120.0
            },
            {
                "start_time": 78.7431818,
                "end_time": 78.8636364,
                "pitch": 33,
                "velocity": 64,
                "duration": 0.1204545,
                "tempo": 120.0
            },
            {
                "start_time": 78.8636364,
                "end_time": 78.9818182,
                "pitch": 33,
                "velocity": 64,
                "duration": 0.1181818,
                "tempo": 120.0
            },
            {
                "start_time": 78.9818182,
                "end_time": 79.1,
                "pitch": 33,
                "velocity": 64,
                "duration": 0.1181818,
                "tempo": 120.0
            },
            {
                "start_time": 79.1,
                "end_time": 79.2181818,
                "pitch": 33,
                "velocity": 64,
                "duration": 0.1181818,
                "tempo": 120.0
            },
            {
                "start_time": 79.2181818,
                "end_time": 79.3522727,
                "pitch": 33,
                "velocity": 64,
                "duration": 0.1340909,
                "tempo": 120.0
            },
            {
                "start_time": 79.3522727,
                "end_time": 79.4727273,
                "pitch": 33,
                "velocity": 64,
                "duration": 0.1204545,
                "tempo": 120.0
            },
            {
                "start_time": 79.4727273,
                "end_time": 79.5863636,
                "pitch": 33,
                "velocity": 64,
                "duration": 0.1136364,
                "tempo": 120.0
            },
            {
                "start_time": 79.5863636,
                "end_time": 79.7045455,
                "pitch": 33,
                "velocity": 64,
                "duration": 0.1181818,
                "tempo": 120.0
            },
            {
                "start_time": 79.7045455,
                "end_time": 79.8204545,
                "pitch": 33,
                "velocity": 64,
                "duration": 0.1159091,
                "tempo": 120.0
            },
            {
                "start_time": 79.8204545,
                "end_time": 79.9545455,
                "pitch": 33,
                "velocity": 64,
                "duration": 0.1340909,
                "tempo": 120.0
            },
            {
                "start_time": 79.9545455,
                "end_time": 80.0727273,
                "pitch": 33,
                "velocity": 64,
                "duration": 0.1181818,
                "tempo": 120.0
            },
            {
                "start_time": 80.0727273,
                "end_time": 80.1931818,
                "pitch": 33,
                "velocity": 64,
                "duration": 0.1204545,
                "tempo": 120.0
            },
            {
                "start_time": 80.1931818,
                "end_time": 80.3136364,
                "pitch": 33,
                "velocity": 64,
                "duration": 0.1204545,
                "tempo": 120.0
            },
            {
                "start_time": 80.3136364,
                "end_time": 80.4318182,
                "pitch": 33,
                "velocity": 64,
                "duration": 0.1181818,
                "tempo": 120.0
            },
            {
                "start_time": 80.4318182,
                "end_time": 80.5636364,
                "pitch": 33,
                "velocity": 64,
                "duration": 0.1318182,
                "tempo": 120.0
            },
            {
                "start_time": 80.5636364,
                "end_time": 80.6795455,
                "pitch": 33,
                "velocity": 64,
                "duration": 0.1159091,
                "tempo": 120.0
            },
            {
                "start_time": 80.6795455,
                "end_time": 80.7931818,
                "pitch": 33,
                "velocity": 64,
                "duration": 0.1136364,
                "tempo": 120.0
            },
            {
                "start_time": 80.7931818,
                "end_time": 80.9090909,
                "pitch": 33,
                "velocity": 64,
                "duration": 0.1159091,
                "tempo": 120.0
            },
            {
                "start_time": 80.9090909,
                "end_time": 81.025,
                "pitch": 33,
                "velocity": 64,
                "duration": 0.1159091,
                "tempo": 120.0
            },
            {
                "start_time": 81.0272727,
                "end_time": 81.1613636,
                "pitch": 33,
                "velocity": 64,
                "duration": 0.1340909,
                "tempo": 120.0
            },
            {
                "start_time": 81.1613636,
                "end_time": 81.2795455,
                "pitch": 33,
                "velocity": 64,
                "duration": 0.1181818,
                "tempo": 120.0
            },
            {
                "start_time": 81.2795455,
                "end_time": 81.3977273,
                "pitch": 33,
                "velocity": 64,
                "duration": 0.1181818,
                "tempo": 120.0
            },
            {
                "start_time": 81.3977273,
                "end_time": 81.5136364,
                "pitch": 29,
                "velocity": 64,
                "duration": 0.1159091,
                "tempo": 120.0
            },
            {
                "start_time": 81.5136364,
                "end_time": 81.6295455,
                "pitch": 29,
                "velocity": 64,
                "duration": 0.1159091,
                "tempo": 120.0
            },
            {
                "start_time": 81.6318182,
                "end_time": 81.7636364,
                "pitch": 29,
                "velocity": 64,
                "duration": 0.1318182,
                "tempo": 120.0
            },
            {
                "start_time": 81.7636364,
                "end_time": 81.8818182,
                "pitch": 29,
                "velocity": 64,
                "duration": 0.1181818,
                "tempo": 120.0
            },
            {
                "start_time": 81.8818182,
                "end_time": 82.0,
                "pitch": 29,
                "velocity": 64,
                "duration": 0.1181818,
                "tempo": 120.0
            },
            {
                "start_time": 82.0,
                "end_time": 82.1204545,
                "pitch": 29,
                "velocity": 64,
                "duration": 0.1204545,
                "tempo": 120.0
            },
            {
                "start_time": 82.1204545,
                "end_time": 82.2409091,
                "pitch": 29,
                "velocity": 64,
                "duration": 0.1204545,
                "tempo": 120.0
            },
            {
                "start_time": 82.2409091,
                "end_time": 82.3772727,
                "pitch": 29,
                "velocity": 64,
                "duration": 0.1363636,
                "tempo": 120.0
            },
            {
                "start_time": 82.3772727,
                "end_time": 82.4931818,
                "pitch": 29,
                "velocity": 64,
                "duration": 0.1159091,
                "tempo": 120.0
            },
            {
                "start_time": 82.4931818,
                "end_time": 82.6090909,
                "pitch": 29,
                "velocity": 64,
                "duration": 0.1159091,
                "tempo": 120.0
            },
            {
                "start_time": 82.6113636,
                "end_time": 82.7272727,
                "pitch": 29,
                "velocity": 64,
                "duration": 0.1159091,
                "tempo": 120.0
            },
            {
                "start_time": 82.7272727,
                "end_time": 82.8431818,
                "pitch": 29,
                "velocity": 64,
                "duration": 0.1159091,
                "tempo": 120.0
            },
            {
                "start_time": 82.8431818,
                "end_time": 82.975,
                "pitch": 29,
                "velocity": 64,
                "duration": 0.1318182,
                "tempo": 120.0
            },
            {
                "start_time": 82.975,
                "end_time": 83.0909091,
                "pitch": 29,
                "velocity": 64,
                "duration": 0.1159091,
                "tempo": 120.0
            },
            {
                "start_time": 83.0909091,
                "end_time": 83.2045455,
                "pitch": 29,
                "velocity": 64,
                "duration": 0.1136364,
                "tempo": 120.0
            },
            {
                "start_time": 83.2045455,
                "end_time": 83.3227273,
                "pitch": 29,
                "velocity": 64,
                "duration": 0.1181818,
                "tempo": 120.0
            },
            {
                "start_time": 83.3227273,
                "end_time": 83.4363636,
                "pitch": 31,
                "velocity": 64,
                "duration": 0.1136364,
                "tempo": 120.0
            },
            {
                "start_time": 83.4363636,
                "end_time": 83.5704545,
                "pitch": 31,
                "velocity": 64,
                "duration": 0.1340909,
                "tempo": 120.0
            },
            {
                "start_time": 83.5704545,
                "end_time": 83.6863636,
                "pitch": 31,
                "velocity": 64,
                "duration": 0.1159091,
                "tempo": 120.0
            },
            {
                "start_time": 83.6863636,
                "end_time": 83.8045455,
                "pitch": 31,
                "velocity": 64,
                "duration": 0.1181818,
                "tempo": 120.0
            },
            {
                "start_time": 83.8045455,
                "end_time": 83.9204545,
                "pitch": 31,
                "velocity": 64,
                "duration": 0.1159091,
                "tempo": 120.0
            },
            {
                "start_time": 83.9204545,
                "end_time": 84.0386364,
                "pitch": 31,
                "velocity": 64,
                "duration": 0.1181818,
                "tempo": 120.0
            },
            {
                "start_time": 84.0409091,
                "end_time": 84.175,
                "pitch": 31,
                "velocity": 64,
                "duration": 0.1340909,
                "tempo": 120.0
            },
            {
                "start_time": 84.175,
                "end_time": 84.2909091,
                "pitch": 31,
                "velocity": 64,
                "duration": 0.1159091,
                "tempo": 120.0
            },
            {
                "start_time": 84.2931818,
                "end_time": 84.4113636,
                "pitch": 31,
                "velocity": 64,
                "duration": 0.1181818,
                "tempo": 120.0
            },
            {
                "start_time": 84.4113636,
                "end_time": 84.5318182,
                "pitch": 31,
                "velocity": 64,
                "duration": 0.1204545,
                "tempo": 120.0
            },
            {
                "start_time": 84.5318182,
                "end_time": 84.65,
                "pitch": 31,
                "velocity": 64,
                "duration": 0.1181818,
                "tempo": 120.0
            },
            {
                "start_time": 84.65,
                "end_time": 84.7886364,
                "pitch": 31,
                "velocity": 64,
                "duration": 0.1386364,
                "tempo": 120.0
            },
            {
                "start_time": 84.7886364,
                "end_time": 84.9045455,
                "pitch": 31,
                "velocity": 64,
                "duration": 0.1159091,
                "tempo": 120.0
            },
            {
                "start_time": 84.9068182,
                "end_time": 85.0227273,
                "pitch": 31,
                "velocity": 64,
                "duration": 0.1159091,
                "tempo": 120.0
            },
            {
                "start_time": 85.0227273,
                "end_time": 85.1409091,
                "pitch": 31,
                "velocity": 64,
                "duration": 0.1181818,
                "tempo": 120.0
            },
            {
                "start_time": 85.1409091,
                "end_time": 85.2613636,
                "pitch": 31,
                "velocity": 64,
                "duration": 0.1204545,
                "tempo": 120.0
            },
            {
                "start_time": 85.2613636,
                "end_time": 85.3909091,
                "pitch": 33,
                "velocity": 80,
                "duration": 0.1295455,
                "tempo": 120.0
            },
            {
                "start_time": 85.3909091,
                "end_time": 85.5045455,
                "pitch": 33,
                "velocity": 80,
                "duration": 0.1136364,
                "tempo": 120.0
            },
            {
                "start_time": 85.5045455,
                "end_time": 85.6204545,
                "pitch": 33,
                "velocity": 80,
                "duration": 0.1159091,
                "tempo": 120.0
            },
            {
                "start_time": 85.6204545,
                "end_time": 85.7363636,
                "pitch": 33,
                "velocity": 80,
                "duration": 0.1159091,
                "tempo": 120.0
            },
            {
                "start_time": 85.7363636,
                "end_time": 85.8522727,
                "pitch": 33,
                "velocity": 80,
                "duration": 0.1159091,
                "tempo": 120.0
            },
            {
                "start_time": 85.8522727,
                "end_time": 85.9886364,
                "pitch": 33,
                "velocity": 80,
                "duration": 0.1363636,
                "tempo": 120.0
            },
            {
                "start_time": 85.9886364,
                "end_time": 86.1045455,
                "pitch": 33,
                "velocity": 80,
                "duration": 0.1159091,
                "tempo": 120.0
            },
            {
                "start_time": 86.1045455,
                "end_time": 86.225,
                "pitch": 33,
                "velocity": 80,
                "duration": 0.1204545,
                "tempo": 120.0
            },
            {
                "start_time": 86.225,
                "end_time": 86.3431818,
                "pitch": 33,
                "velocity": 80,
                "duration": 0.1181818,
                "tempo": 120.0
            },
            {
                "start_time": 86.3431818,
                "end_time": 86.4636364,
                "pitch": 33,
                "velocity": 80,
                "duration": 0.1204545,
                "tempo": 120.0
            },
            {
                "start_time": 86.4636364,
                "end_time": 86.6,
                "pitch": 33,
                "velocity": 80,
                "duration": 0.1363636,
                "tempo": 120.0
            },
            {
                "start_time": 86.6,
                "end_time": 86.7204545,
                "pitch": 33,
                "velocity": 80,
                "duration": 0.1204545,
                "tempo": 120.0
            },
            {
                "start_time": 86.7204545,
                "end_time": 86.8363636,
                "pitch": 33,
                "velocity": 80,
                "duration": 0.1159091,
                "tempo": 120.0
            },
            {
                "start_time": 86.8363636,
                "end_time": 86.9545455,
                "pitch": 33,
                "velocity": 80,
                "duration": 0.1181818,
                "tempo": 120.0
            },
            {
                "start_time": 86.9545455,
                "end_time": 87.0727273,
                "pitch": 31,
                "velocity": 80,
                "duration": 0.1181818,
                "tempo": 120.0
            },
            {
                "start_time": 87.0727273,
                "end_time": 87.2068182,
                "pitch": 31,
                "velocity": 80,
                "duration": 0.1340909,
                "tempo": 120.0
            },
            {
                "start_time": 87.2090909,
                "end_time": 87.325,
                "pitch": 29,
                "velocity": 80,
                "duration": 0.1159091,
                "tempo": 120.0
            },
            {
                "start_time": 87.325,
                "end_time": 87.4409091,
                "pitch": 29,
                "velocity": 80,
                "duration": 0.1159091,
                "tempo": 120.0
            },
            {
                "start_time": 87.4431818,
                "end_time": 87.5590909,
                "pitch": 29,
                "velocity": 80,
                "duration": 0.1159091,
                "tempo": 120.0
            },
            {
                "start_time": 87.5590909,
                "end_time": 87.6795455,
                "pitch": 29,
                "velocity": 80,
                "duration": 0.1204545,
                "tempo": 120.0
            },
            {
                "start_time": 87.6795455,
                "end_time": 87.8068182,
                "pitch": 29,
                "velocity": 80,
                "duration": 0.1272727,
                "tempo": 120.0
            },
            {
                "start_time": 87.8090909,
                "end_time": 87.925,
                "pitch": 29,
                "velocity": 80,
                "duration": 0.1159091,
                "tempo": 120.0
            },
            {
                "start_time": 87.925,
                "end_time": 88.0386364,
                "pitch": 29,
                "velocity": 80,
                "duration": 0.1136364,
                "tempo": 120.0
            },
            {
                "start_time": 88.0386364,
                "end_time": 88.1545455,
                "pitch": 29,
                "velocity": 80,
                "duration": 0.1159091,
                "tempo": 120.0
            },
            {
                "start_time": 88.1545455,
                "end_time": 88.2727273,
                "pitch": 29,
                "velocity": 80,
                "duration": 0.1181818,
                "tempo": 120.0
            },
            {
                "start_time": 88.2727273,
                "end_time": 88.4113636,
                "pitch": 29,
                "velocity": 80,
                "duration": 0.1386364,
                "tempo": 120.0
            },
            {
                "start_time": 88.4113636,
                "end_time": 88.5295455,
                "pitch": 29,
                "velocity": 80,
                "duration": 0.1181818,
                "tempo": 120.0
            },
            {
                "start_time": 88.5295455,
                "end_time": 88.65,
                "pitch": 29,
                "velocity": 80,
                "duration": 0.1204545,
                "tempo": 120.0
            },
            {
                "start_time": 88.65,
                "end_time": 88.7659091,
                "pitch": 29,
                "velocity": 80,
                "duration": 0.1159091,
                "tempo": 120.0
            },
            {
                "start_time": 88.7659091,
                "end_time": 88.8863636,
                "pitch": 29,
                "velocity": 80,
                "duration": 0.1204545,
                "tempo": 120.0
            },
            {
                "start_time": 88.8863636,
                "end_time": 89.0204545,
                "pitch": 33,
                "velocity": 80,
                "duration": 0.1340909,
                "tempo": 120.0
            },
            {
                "start_time": 89.0204545,
                "end_time": 89.1386364,
                "pitch": 33,
                "velocity": 80,
                "duration": 0.1181818,
                "tempo": 120.0
            },
            {
                "start_time": 89.1386364,
                "end_time": 89.2545455,
                "pitch": 31,
                "velocity": 80,
                "duration": 0.1159091,
                "tempo": 120.0
            },
            {
                "start_time": 89.2545455,
                "end_time": 89.3727273,
                "pitch": 31,
                "velocity": 80,
                "duration": 0.1181818,
                "tempo": 120.0
            },
            {
                "start_time": 89.3727273,
                "end_time": 89.4909091,
                "pitch": 31,
                "velocity": 80,
                "duration": 0.1181818,
                "tempo": 120.0
            },
            {
                "start_time": 89.4909091,
                "end_time": 89.6272727,
                "pitch": 31,
                "velocity": 80,
                "duration": 0.1363636,
                "tempo": 120.0
            },
            {
                "start_time": 89.6272727,
                "end_time": 89.7431818,
                "pitch": 31,
                "velocity": 80,
                "duration": 0.1159091,
                "tempo": 120.0
            },
            {
                "start_time": 89.7431818,
                "end_time": 89.8659091,
                "pitch": 31,
                "velocity": 80,
                "duration": 0.1227273,
                "tempo": 120.0
            },
            {
                "start_time": 89.8659091,
                "end_time": 89.9840909,
                "pitch": 31,
                "velocity": 80,
                "duration": 0.1181818,
                "tempo": 120.0
            },
            {
                "start_time": 89.9840909,
                "end_time": 90.1045455,
                "pitch": 31,
                "velocity": 80,
                "duration": 0.1204545,
                "tempo": 120.0
            },
            {
                "start_time": 90.1045455,
                "end_time": 90.2340909,
                "pitch": 31,
                "velocity": 80,
                "duration": 0.1295455,
                "tempo": 120.0
            },
            {
                "start_time": 90.2363636,
                "end_time": 90.3522727,
                "pitch": 31,
                "velocity": 80,
                "duration": 0.1159091,
                "tempo": 120.0
            },
            {
                "start_time": 90.3522727,
                "end_time": 90.4659091,
                "pitch": 31,
                "velocity": 80,
                "duration": 0.1136364,
                "tempo": 120.0
            },
            {
                "start_time": 90.4659091,
                "end_time": 90.5818182,
                "pitch": 31,
                "velocity": 80,
                "duration": 0.1159091,
                "tempo": 120.0
            },
            {
                "start_time": 90.5818182,
                "end_time": 90.6977273,
                "pitch": 31,
                "velocity": 80,
                "duration": 0.1159091,
                "tempo": 120.0
            },
            {
                "start_time": 90.6977273,
                "end_time": 90.8318182,
                "pitch": 31,
                "velocity": 80,
                "duration": 0.1340909,
                "tempo": 120.0
            },
            {
                "start_time": 90.8318182,
                "end_time": 90.95,
                "pitch": 31,
                "velocity": 80,
                "duration": 0.1181818,
                "tempo": 120.0
            },
            {
                "start_time": 90.95,
                "end_time": 91.0704545,
                "pitch": 31,
                "velocity": 80,
                "duration": 0.1204545,
                "tempo": 120.0
            },
            {
                "start_time": 91.0704545,
                "end_time": 91.1840909,
                "pitch": 28,
                "velocity": 80,
                "duration": 0.1136364,
                "tempo": 120.0
            },
            {
                "start_time": 91.1840909,
                "end_time": 91.3022727,
                "pitch": 28,
                "velocity": 80,
                "duration": 0.1181818,
                "tempo": 120.0
            },
            {
                "start_time": 91.3022727,
                "end_time": 91.4340909,
                "pitch": 28,
                "velocity": 80,
                "duration": 0.1318182,
                "tempo": 120.0
            },
            {
                "start_time": 91.4340909,
                "end_time": 91.5522727,
                "pitch": 28,
                "velocity": 80,
                "duration": 0.1181818,
                "tempo": 120.0
            },
            {
                "start_time": 91.5545455,
                "end_time": 91.6704545,
                "pitch": 28,
                "velocity": 80,
                "duration": 0.1159091,
                "tempo": 120.0
            },
            {
                "start_time": 91.6704545,
                "end_time": 91.7931818,
                "pitch": 28,
                "velocity": 80,
                "duration": 0.1227273,
                "tempo": 120.0
            },
            {
                "start_time": 91.7931818,
                "end_time": 91.9113636,
                "pitch": 28,
                "velocity": 80,
                "duration": 0.1181818,
                "tempo": 120.0
            },
            {
                "start_time": 91.9113636,
                "end_time": 92.0477273,
                "pitch": 28,
                "velocity": 80,
                "duration": 0.1363636,
                "tempo": 120.0
            },
            {
                "start_time": 92.05,
                "end_time": 92.1636364,
                "pitch": 28,
                "velocity": 80,
                "duration": 0.1136364,
                "tempo": 120.0
            },
            {
                "start_time": 92.1636364,
                "end_time": 92.2818182,
                "pitch": 28,
                "velocity": 80,
                "duration": 0.1181818,
                "tempo": 120.0
            },
            {
                "start_time": 92.2840909,
                "end_time": 92.3977273,
                "pitch": 28,
                "velocity": 80,
                "duration": 0.1136364,
                "tempo": 120.0
            },
            {
                "start_time": 92.3977273,
                "end_time": 92.5159091,
                "pitch": 28,
                "velocity": 80,
                "duration": 0.1181818,
                "tempo": 120.0
            },
            {
                "start_time": 92.5159091,
                "end_time": 92.6454545,
                "pitch": 28,
                "velocity": 80,
                "duration": 0.1295455,
                "tempo": 120.0
            },
            {
                "start_time": 92.6454545,
                "end_time": 92.7613636,
                "pitch": 28,
                "velocity": 80,
                "duration": 0.1159091,
                "tempo": 120.0
            },
            {
                "start_time": 92.7613636,
                "end_time": 92.8772727,
                "pitch": 31,
                "velocity": 80,
                "duration": 0.1159091,
                "tempo": 120.0
            },
            {
                "start_time": 92.8772727,
                "end_time": 92.9931818,
                "pitch": 31,
                "velocity": 80,
                "duration": 0.1159091,
                "tempo": 120.0
            },
            {
                "start_time": 92.9931818,
                "end_time": 93.1090909,
                "pitch": 29,
                "velocity": 64,
                "duration": 0.1159091,
                "tempo": 120.0
            },
            {
                "start_time": 93.1090909,
                "end_time": 93.2431818,
                "pitch": 29,
                "velocity": 64,
                "duration": 0.1340909,
                "tempo": 120.0
            },
            {
                "start_time": 93.2431818,
                "end_time": 93.3590909,
                "pitch": 41,
                "velocity": 64,
                "duration": 0.1159091,
                "tempo": 120.0
            },
            {
                "start_time": 93.3590909,
                "end_time": 93.4772727,
                "pitch": 41,
                "velocity": 64,
                "duration": 0.1181818,
                "tempo": 120.0
            },
            {
                "start_time": 93.4772727,
                "end_time": 93.5931818,
                "pitch": 29,
                "velocity": 64,
                "duration": 0.1159091,
                "tempo": 120.0
            },
            {
                "start_time": 93.5954545,
                "end_time": 93.7136364,
                "pitch": 29,
                "velocity": 64,
                "duration": 0.1181818,
                "tempo": 120.0
            },
            {
                "start_time": 93.7159091,
                "end_time": 93.8522727,
                "pitch": 41,
                "velocity": 64,
                "duration": 0.1363636,
                "tempo": 120.0
            },
            {
                "start_time": 93.8522727,
                "end_time": 93.9727273,
                "pitch": 41,
                "velocity": 64,
                "duration": 0.1204545,
                "tempo": 120.0
            },
            {
                "start_time": 93.9727273,
                "end_time": 94.0886364,
                "pitch": 29,
                "velocity": 64,
                "duration": 0.1159091,
                "tempo": 120.0
            },
            {
                "start_time": 94.0886364,
                "end_time": 94.2068182,
                "pitch": 29,
                "velocity": 64,
                "duration": 0.1181818,
                "tempo": 120.0
            },
            {
                "start_time": 94.2068182,
                "end_time": 94.3204545,
                "pitch": 41,
                "velocity": 64,
                "duration": 0.1136364,
                "tempo": 120.0
            },
            {
                "start_time": 94.3227273,
                "end_time": 94.4568182,
                "pitch": 41,
                "velocity": 64,
                "duration": 0.1340909,
                "tempo": 120.0
            },
            {
                "start_time": 94.4568182,
                "end_time": 94.5727273,
                "pitch": 29,
                "velocity": 64,
                "duration": 0.1159091,
                "tempo": 120.0
            },
            {
                "start_time": 94.5727273,
                "end_time": 94.6909091,
                "pitch": 29,
                "velocity": 64,
                "duration": 0.1181818,
                "tempo": 120.0
            },
            {
                "start_time": 94.6909091,
                "end_time": 94.8090909,
                "pitch": 41,
                "velocity": 64,
                "duration": 0.1181818,
                "tempo": 120.0
            },
            {
                "start_time": 94.8090909,
                "end_time": 94.9272727,
                "pitch": 41,
                "velocity": 64,
                "duration": 0.1181818,
                "tempo": 120.0
            },
            {
                "start_time": 94.9272727,
                "end_time": 95.0568182,
                "pitch": 26,
                "velocity": 64,
                "duration": 0.1295455,
                "tempo": 120.0
            },
            {
                "start_time": 95.0568182,
                "end_time": 95.1727273,
                "pitch": 26,
                "velocity": 64,
                "duration": 0.1159091,
                "tempo": 120.0
            },
            {
                "start_time": 95.1727273,
                "end_time": 95.2886364,
                "pitch": 38,
                "velocity": 64,
                "duration": 0.1159091,
                "tempo": 120.0
            },
            {
                "start_time": 95.2886364,
                "end_time": 95.4022727,
                "pitch": 38,
                "velocity": 64,
                "duration": 0.1136364,
                "tempo": 120.0
            },
            {
                "start_time": 95.4045455,
                "end_time": 95.5204545,
                "pitch": 26,
                "velocity": 64,
                "duration": 0.1159091,
                "tempo": 120.0
            },
            {
                "start_time": 95.5204545,
                "end_time": 95.6590909,
                "pitch": 26,
                "velocity": 64,
                "duration": 0.1386364,
                "tempo": 120.0
            },
            {
                "start_time": 95.6590909,
                "end_time": 95.7772727,
                "pitch": 38,
                "velocity": 64,
                "duration": 0.1181818,
                "tempo": 120.0
            },
            {
                "start_time": 95.7795455,
                "end_time": 95.8977273,
                "pitch": 38,
                "velocity": 64,
                "duration": 0.1181818,
                "tempo": 120.0
            },
            {
                "start_time": 95.9,
                "end_time": 96.0159091,
                "pitch": 26,
                "velocity": 64,
                "duration": 0.1159091,
                "tempo": 120.0
            },
            {
                "start_time": 96.0159091,
                "end_time": 96.1318182,
                "pitch": 26,
                "velocity": 64,
                "duration": 0.1159091,
                "tempo": 120.0
            },
            {
                "start_time": 96.1340909,
                "end_time": 96.2636364,
                "pitch": 38,
                "velocity": 64,
                "duration": 0.1295455,
                "tempo": 120.0
            },
            {
                "start_time": 96.2636364,
                "end_time": 96.3840909,
                "pitch": 38,
                "velocity": 64,
                "duration": 0.1204545,
                "tempo": 120.0
            },
            {
                "start_time": 96.3840909,
                "end_time": 96.4977273,
                "pitch": 26,
                "velocity": 64,
                "duration": 0.1136364,
                "tempo": 120.0
            },
            {
                "start_time": 96.5,
                "end_time": 96.6181818,
                "pitch": 26,
                "velocity": 64,
                "duration": 0.1181818,
                "tempo": 120.0
            },
            {
                "start_time": 96.6181818,
                "end_time": 96.7363636,
                "pitch": 38,
                "velocity": 64,
                "duration": 0.1181818,
                "tempo": 120.0
            },
            {
                "start_time": 96.7363636,
                "end_time": 96.8704545,
                "pitch": 38,
                "velocity": 64,
                "duration": 0.1340909,
                "tempo": 120.0
            },
            {
                "start_time": 96.8704545,
                "end_time": 96.9886364,
                "pitch": 31,
                "velocity": 64,
                "duration": 0.1181818,
                "tempo": 120.0
            },
            {
                "start_time": 96.9886364,
                "end_time": 97.1090909,
                "pitch": 31,
                "velocity": 64,
                "duration": 0.1204545,
                "tempo": 120.0
            },
            {
                "start_time": 97.1113636,
                "end_time": 97.2295455,
                "pitch": 43,
                "velocity": 64,
                "duration": 0.1181818,
                "tempo": 120.0
            },
            {
                "start_time": 97.2295455,
                "end_time": 97.35,
                "pitch": 43,
                "velocity": 64,
                "duration": 0.1204545,
                "tempo": 120.0
            },
            {
                "start_time": 97.35,
                "end_time": 97.4795455,
                "pitch": 31,
                "velocity": 64,
                "duration": 0.1295455,
                "tempo": 120.0
            },
            {
                "start_time": 97.4795455,
                "end_time": 97.5954545,
                "pitch": 31,
                "velocity": 64,
                "duration": 0.1159091,
                "tempo": 120.0
            },
            {
                "start_time": 97.5954545,
                "end_time": 97.7090909,
                "pitch": 43,
                "velocity": 64,
                "duration": 0.1136364,
                "tempo": 120.0
            },
            {
                "start_time": 97.7090909,
                "end_time": 97.825,
                "pitch": 43,
                "velocity": 64,
                "duration": 0.1159091,
                "tempo": 120.0
            },
            {
                "start_time": 97.825,
                "end_time": 97.9431818,
                "pitch": 31,
                "velocity": 64,
                "duration": 0.1181818,
                "tempo": 120.0
            },
            {
                "start_time": 97.9431818,
                "end_time": 98.0772727,
                "pitch": 31,
                "velocity": 64,
                "duration": 0.1340909,
                "tempo": 120.0
            },
            {
                "start_time": 98.0772727,
                "end_time": 98.1954545,
                "pitch": 43,
                "velocity": 64,
                "duration": 0.1181818,
                "tempo": 120.0
            },
            {
                "start_time": 98.1954545,
                "end_time": 98.3136364,
                "pitch": 43,
                "velocity": 64,
                "duration": 0.1181818,
                "tempo": 120.0
            },
            {
                "start_time": 98.3136364,
                "end_time": 98.4295455,
                "pitch": 31,
                "velocity": 64,
                "duration": 0.1159091,
                "tempo": 120.0
            },
            {
                "start_time": 98.4295455,
                "end_time": 98.55,
                "pitch": 31,
                "velocity": 64,
                "duration": 0.1204545,
                "tempo": 120.0
            },
            {
                "start_time": 98.55,
                "end_time": 98.6818182,
                "pitch": 43,
                "velocity": 64,
                "duration": 0.1318182,
                "tempo": 120.0
            },
            {
                "start_time": 98.6840909,
                "end_time": 98.8022727,
                "pitch": 43,
                "velocity": 64,
                "duration": 0.1181818,
                "tempo": 120.0
            },
            {
                "start_time": 98.8022727,
                "end_time": 98.9204545,
                "pitch": 28,
                "velocity": 64,
                "duration": 0.1181818,
                "tempo": 120.0
            },
            {
                "start_time": 98.9204545,
                "end_time": 99.0409091,
                "pitch": 28,
                "velocity": 64,
                "duration": 0.1204545,
                "tempo": 120.0
            },
            {
                "start_time": 99.0409091,
                "end_time": 99.1613636,
                "pitch": 40,
                "velocity": 64,
                "duration": 0.1204545,
                "tempo": 120.0
            },
            {
                "start_time": 99.1613636,
                "end_time": 99.2977273,
                "pitch": 40,
                "velocity": 64,
                "duration": 0.1363636,
                "tempo": 120.0
            },
            {
                "start_time": 99.2977273,
                "end_time": 99.4136364,
                "pitch": 28,
                "velocity": 64,
                "duration": 0.1159091,
                "tempo": 120.0
            },
            {
                "start_time": 99.4136364,
                "end_time": 99.5318182,
                "pitch": 28,
                "velocity": 64,
                "duration": 0.1181818,
                "tempo": 120.0
            },
            {
                "start_time": 99.5318182,
                "end_time": 99.65,
                "pitch": 40,
                "velocity": 64,
                "duration": 0.1181818,
                "tempo": 120.0
            },
            {
                "start_time": 99.65,
                "end_time": 99.7681818,
                "pitch": 40,
                "velocity": 64,
                "duration": 0.1181818,
                "tempo": 120.0
            },
            {
                "start_time": 99.7681818,
                "end_time": 99.8977273,
                "pitch": 28,
                "velocity": 64,
                "duration": 0.1295455,
                "tempo": 120.0
            },
            {
                "start_time": 99.9,
                "end_time": 100.0136364,
                "pitch": 28,
                "velocity": 64,
                "duration": 0.1136364,
                "tempo": 120.0
            },
            {
                "start_time": 100.0136364,
                "end_time": 100.1272727,
                "pitch": 40,
                "velocity": 64,
                "duration": 0.1136364,
                "tempo": 120.0
            },
            {
                "start_time": 100.1272727,
                "end_time": 100.2454545,
                "pitch": 40,
                "velocity": 64,
                "duration": 0.1181818,
                "tempo": 120.0
            },
            {
                "start_time": 100.2454545,
                "end_time": 100.3613636,
                "pitch": 28,
                "velocity": 64,
                "duration": 0.1159091,
                "tempo": 120.0
            },
            {
                "start_time": 100.3613636,
                "end_time": 100.4954545,
                "pitch": 28,
                "velocity": 64,
                "duration": 0.1340909,
                "tempo": 120.0
            },
            {
                "start_time": 100.4954545,
                "end_time": 100.6136364,
                "pitch": 40,
                "velocity": 64,
                "duration": 0.1181818,
                "tempo": 120.0
            },
            {
                "start_time": 100.6136364,
                "end_time": 100.7340909,
                "pitch": 40,
                "velocity": 64,
                "duration": 0.1204545,
                "tempo": 120.0
            },
            {
                "start_time": 100.7340909,
                "end_time": 100.85,
                "pitch": 29,
                "velocity": 64,
                "duration": 0.1159091,
                "tempo": 120.0
            },
            {
                "start_time": 100.8522727,
                "end_time": 100.9727273,
                "pitch": 29,
                "velocity": 64,
                "duration": 0.1204545,
                "tempo": 120.0
            },
            {
                "start_time": 100.9727273,
                "end_time": 101.1090909,
                "pitch": 41,
                "velocity": 64,
                "duration": 0.1363636,
                "tempo": 120.0
            },
            {
                "start_time": 101.1090909,
                "end_time": 101.2272727,
                "pitch": 41,
                "velocity": 64,
                "duration": 0.1181818,
                "tempo": 120.0
            },
            {
                "start_time": 101.2272727,
                "end_time": 101.3431818,
                "pitch": 29,
                "velocity": 64,
                "duration": 0.1159091,
                "tempo": 120.0
            },
            {
                "start_time": 101.3431818,
                "end_time": 101.4636364,
                "pitch": 29,
                "velocity": 64,
                "duration": 0.1204545,
                "tempo": 120.0
            },
            {
                "start_time": 101.4636364,
                "end_time": 101.5795455,
                "pitch": 41,
                "velocity": 64,
                "duration": 0.1159091,
                "tempo": 120.0
            },
            {
                "start_time": 101.5818182,
                "end_time": 101.7159091,
                "pitch": 41,
                "velocity": 64,
                "duration": 0.1340909,
                "tempo": 120.0
            },
            {
                "start_time": 101.7159091,
                "end_time": 101.8340909,
                "pitch": 29,
                "velocity": 64,
                "duration": 0.1181818,
                "tempo": 120.0
            },
            {
                "start_time": 101.8340909,
                "end_time": 101.9545455,
                "pitch": 29,
                "velocity": 64,
                "duration": 0.1204545,
                "tempo": 120.0
            },
            {
                "start_time": 101.9545455,
                "end_time": 102.075,
                "pitch": 41,
                "velocity": 64,
                "duration": 0.1204545,
                "tempo": 120.0
            },
            {
                "start_time": 102.075,
                "end_time": 102.1954545,
                "pitch": 41,
                "velocity": 64,
                "duration": 0.1204545,
                "tempo": 120.0
            },
            {
                "start_time": 102.1954545,
                "end_time": 102.3204545,
                "pitch": 29,
                "velocity": 64,
                "duration": 0.125,
                "tempo": 120.0
            },
            {
                "start_time": 102.3204545,
                "end_time": 102.4340909,
                "pitch": 29,
                "velocity": 64,
                "duration": 0.1136364,
                "tempo": 120.0
            },
            {
                "start_time": 102.4363636,
                "end_time": 102.5454545,
                "pitch": 41,
                "velocity": 64,
                "duration": 0.1090909,
                "tempo": 120.0
            },
            {
                "start_time": 102.5477273,
                "end_time": 102.6590909,
                "pitch": 41,
                "velocity": 64,
                "duration": 0.1113636,
                "tempo": 120.0
            },
            {
                "start_time": 102.6613636,
                "end_time": 102.775,
                "pitch": 26,
                "velocity": 64,
                "duration": 0.1136364,
                "tempo": 120.0
            },
            {
                "start_time": 102.775,
                "end_time": 102.9113636,
                "pitch": 26,
                "velocity": 64,
                "duration": 0.1363636,
                "tempo": 120.0
            },
            {
                "start_time": 102.9113636,
                "end_time": 103.0272727,
                "pitch": 38,
                "velocity": 64,
                "duration": 0.1159091,
                "tempo": 120.0
            },
            {
                "start_time": 103.0272727,
                "end_time": 103.1431818,
                "pitch": 38,
                "velocity": 64,
                "duration": 0.1159091,
                "tempo": 120.0
            },
            {
                "start_time": 103.1431818,
                "end_time": 103.2613636,
                "pitch": 26,
                "velocity": 64,
                "duration": 0.1181818,
                "tempo": 120.0
            },
            {
                "start_time": 103.2613636,
                "end_time": 103.3818182,
                "pitch": 26,
                "velocity": 64,
                "duration": 0.1204545,
                "tempo": 120.0
            },
            {
                "start_time": 103.3818182,
                "end_time": 103.5181818,
                "pitch": 38,
                "velocity": 64,
                "duration": 0.1363636,
                "tempo": 120.0
            },
            {
                "start_time": 103.5204545,
                "end_time": 103.6386364,
                "pitch": 38,
                "velocity": 64,
                "duration": 0.1181818,
                "tempo": 120.0
            },
            {
                "start_time": 103.6386364,
                "end_time": 103.7545455,
                "pitch": 26,
                "velocity": 64,
                "duration": 0.1159091,
                "tempo": 120.0
            },
            {
                "start_time": 103.7568182,
                "end_time": 103.8727273,
                "pitch": 26,
                "velocity": 64,
                "duration": 0.1159091,
                "tempo": 120.0
            },
            {
                "start_time": 103.8727273,
                "end_time": 103.9886364,
                "pitch": 38,
                "velocity": 64,
                "duration": 0.1159091,
                "tempo": 120.0
            },
            {
                "start_time": 103.9886364,
                "end_time": 104.1227273,
                "pitch": 38,
                "velocity": 64,
                "duration": 0.1340909,
                "tempo": 120.0
            },
            {
                "start_time": 104.125,
                "end_time": 104.2409091,
                "pitch": 26,
                "velocity": 64,
                "duration": 0.1159091,
                "tempo": 120.0
            },
            {
                "start_time": 104.2409091,
                "end_time": 104.3636364,
                "pitch": 26,
                "velocity": 64,
                "duration": 0.1227273,
                "tempo": 120.0
            },
            {
                "start_time": 104.3636364,
                "end_time": 104.4818182,
                "pitch": 38,
                "velocity": 64,
                "duration": 0.1181818,
                "tempo": 120.0
            },
            {
                "start_time": 104.4818182,
                "end_time": 104.6022727,
                "pitch": 38,
                "velocity": 64,
                "duration": 0.1204545,
                "tempo": 120.0
            },
            {
                "start_time": 104.6022727,
                "end_time": 104.7318182,
                "pitch": 31,
                "velocity": 64,
                "duration": 0.1295455,
                "tempo": 120.0
            },
            {
                "start_time": 104.7340909,
                "end_time": 104.8477273,
                "pitch": 31,
                "velocity": 64,
                "duration": 0.1136364,
                "tempo": 120.0
            },
            {
                "start_time": 104.85,
                "end_time": 104.9636364,
                "pitch": 43,
                "velocity": 64,
                "duration": 0.1136364,
                "tempo": 120.0
            },
            {
                "start_time": 104.9636364,
                "end_time": 105.0795455,
                "pitch": 43,
                "velocity": 64,
                "duration": 0.1159091,
                "tempo": 120.0
            },
            {
                "start_time": 105.0795455,
                "end_time": 105.1954545,
                "pitch": 31,
                "velocity": 64,
                "duration": 0.1159091,
                "tempo": 120.0
            },
            {
                "start_time": 105.1954545,
                "end_time": 105.3295455,
                "pitch": 31,
                "velocity": 64,
                "duration": 0.1340909,
                "tempo": 120.0
            },
            {
                "start_time": 105.3295455,
                "end_time": 105.4477273,
                "pitch": 43,
                "velocity": 64,
                "duration": 0.1181818,
                "tempo": 120.0
            },
            {
                "start_time": 105.4477273,
                "end_time": 105.5659091,
                "pitch": 43,
                "velocity": 64,
                "duration": 0.1181818,
                "tempo": 120.0
            },
            {
                "start_time": 105.5659091,
                "end_time": 105.6840909,
                "pitch": 31,
                "velocity": 64,
                "duration": 0.1181818,
                "tempo": 120.0
            },
            {
                "start_time": 105.6863636,
                "end_time": 105.8068182,
                "pitch": 31,
                "velocity": 64,
                "duration": 0.1204545,
                "tempo": 120.0
            },
            {
                "start_time": 105.8068182,
                "end_time": 105.9409091,
                "pitch": 43,
                "velocity": 64,
                "duration": 0.1340909,
                "tempo": 120.0
            },
            {
                "start_time": 105.9409091,
                "end_time": 106.0613636,
                "pitch": 43,
                "velocity": 64,
                "duration": 0.1204545,
                "tempo": 120.0
            },
            {
                "start_time": 106.0636364,
                "end_time": 106.1772727,
                "pitch": 31,
                "velocity": 64,
                "duration": 0.1136364,
                "tempo": 120.0
            },
            {
                "start_time": 106.1772727,
                "end_time": 106.2977273,
                "pitch": 31,
                "velocity": 64,
                "duration": 0.1204545,
                "tempo": 120.0
            },
            {
                "start_time": 106.2977273,
                "end_time": 106.4136364,
                "pitch": 43,
                "velocity": 64,
                "duration": 0.1159091,
                "tempo": 120.0
            },
            {
                "start_time": 106.4136364,
                "end_time": 106.55,
                "pitch": 43,
                "velocity": 64,
                "duration": 0.1363636,
                "tempo": 120.0
            },
            {
                "start_time": 106.55,
                "end_time": 106.6659091,
                "pitch": 28,
                "velocity": 64,
                "duration": 0.1159091,
                "tempo": 120.0
            },
            {
                "start_time": 106.6659091,
                "end_time": 106.7840909,
                "pitch": 28,
                "velocity": 64,
                "duration": 0.1181818,
                "tempo": 120.0
            },
            {
                "start_time": 106.7840909,
                "end_time": 106.9,
                "pitch": 40,
                "velocity": 64,
                "duration": 0.1159091,
                "tempo": 120.0
            },
            {
                "start_time": 106.9,
                "end_time": 107.0181818,
                "pitch": 40,
                "velocity": 64,
                "duration": 0.1181818,
                "tempo": 120.0
            },
            {
                "start_time": 107.0181818,
                "end_time": 107.1477273,
                "pitch": 28,
                "velocity": 64,
                "duration": 0.1295455,
                "tempo": 120.0
            },
            {
                "start_time": 107.1477273,
                "end_time": 107.2636364,
                "pitch": 28,
                "velocity": 64,
                "duration": 0.1159091,
                "tempo": 120.0
            },
            {
                "start_time": 107.2636364,
                "end_time": 107.3772727,
                "pitch": 40,
                "velocity": 64,
                "duration": 0.1136364,
                "tempo": 120.0
            },
            {
                "start_time": 107.3772727,
                "end_time": 107.4931818,
                "pitch": 40,
                "velocity": 64,
                "duration": 0.1159091,
                "tempo": 120.0
            },
            {
                "start_time": 107.4931818,
                "end_time": 107.6113636,
                "pitch": 28,
                "velocity": 64,
                "duration": 0.1181818,
                "tempo": 120.0
            },
            {
                "start_time": 107.6113636,
                "end_time": 107.75,
                "pitch": 28,
                "velocity": 64,
                "duration": 0.1386364,
                "tempo": 120.0
            },
            {
                "start_time": 107.75,
                "end_time": 107.8681818,
                "pitch": 40,
                "velocity": 64,
                "duration": 0.1181818,
                "tempo": 120.0
            },
            {
                "start_time": 107.8681818,
                "end_time": 107.9886364,
                "pitch": 40,
                "velocity": 64,
                "duration": 0.1204545,
                "tempo": 120.0
            },
            {
                "start_time": 107.9886364,
                "end_time": 108.1068182,
                "pitch": 28,
                "velocity": 64,
                "duration": 0.1181818,
                "tempo": 120.0
            },
            {
                "start_time": 108.1068182,
                "end_time": 108.2227273,
                "pitch": 28,
                "velocity": 64,
                "duration": 0.1159091,
                "tempo": 120.0
            },
            {
                "start_time": 108.225,
                "end_time": 108.3590909,
                "pitch": 40,
                "velocity": 64,
                "duration": 0.1340909,
                "tempo": 120.0
            },
            {
                "start_time": 108.3590909,
                "end_time": 108.4772727,
                "pitch": 40,
                "velocity": 64,
                "duration": 0.1181818,
                "tempo": 120.0
            },
            {
                "start_time": 108.4772727,
                "end_time": 108.5931818,
                "pitch": 28,
                "velocity": 64,
                "duration": 0.1159091,
                "tempo": 120.0
            },
            {
                "start_time": 108.5931818,
                "end_time": 108.7113636,
                "pitch": 28,
                "velocity": 64,
                "duration": 0.1181818,
                "tempo": 120.0
            },
            {
                "start_time": 108.7113636,
                "end_time": 108.8272727,
                "pitch": 40,
                "velocity": 64,
                "duration": 0.1159091,
                "tempo": 120.0
            },
            {
                "start_time": 108.8272727,
                "end_time": 108.9613636,
                "pitch": 40,
                "velocity": 64,
                "duration": 0.1340909,
                "tempo": 120.0
            },
            {
                "start_time": 108.9613636,
                "end_time": 109.0772727,
                "pitch": 28,
                "velocity": 64,
                "duration": 0.1159091,
                "tempo": 120.0
            },
            {
                "start_time": 109.0772727,
                "end_time": 109.1954545,
                "pitch": 28,
                "velocity": 64,
                "duration": 0.1181818,
                "tempo": 120.0
            },
            {
                "start_time": 109.1954545,
                "end_time": 109.3136364,
                "pitch": 40,
                "velocity": 64,
                "duration": 0.1181818,
                "tempo": 120.0
            },
            {
                "start_time": 109.3136364,
                "end_time": 109.4318182,
                "pitch": 40,
                "velocity": 64,
                "duration": 0.1181818,
                "tempo": 120.0
            },
            {
                "start_time": 109.4318182,
                "end_time": 109.5659091,
                "pitch": 28,
                "velocity": 64,
                "duration": 0.1340909,
                "tempo": 120.0
            },
            {
                "start_time": 109.5659091,
                "end_time": 109.6840909,
                "pitch": 28,
                "velocity": 64,
                "duration": 0.1181818,
                "tempo": 120.0
            },
            {
                "start_time": 109.6840909,
                "end_time": 109.8,
                "pitch": 40,
                "velocity": 64,
                "duration": 0.1159091,
                "tempo": 120.0
            },
            {
                "start_time": 109.8022727,
                "end_time": 109.9204545,
                "pitch": 40,
                "velocity": 64,
                "duration": 0.1181818,
                "tempo": 120.0
            },
            {
                "start_time": 109.9204545,
                "end_time": 110.0340909,
                "pitch": 28,
                "velocity": 64,
                "duration": 0.1136364,
                "tempo": 120.0
            },
            {
                "start_time": 110.0340909,
                "end_time": 110.1704545,
                "pitch": 28,
                "velocity": 64,
                "duration": 0.1363636,
                "tempo": 120.0
            },
            {
                "start_time": 110.1704545,
                "end_time": 110.2863636,
                "pitch": 40,
                "velocity": 64,
                "duration": 0.1159091,
                "tempo": 120.0
            },
            {
                "start_time": 110.2863636,
                "end_time": 110.4045455,
                "pitch": 40,
                "velocity": 64,
                "duration": 0.1181818,
                "tempo": 120.0
            },
            {
                "start_time": 110.4045455,
                "end_time": 110.5204545,
                "pitch": 25,
                "velocity": 64,
                "duration": 0.1159091,
                "tempo": 120.0
            },
            {
                "start_time": 110.5204545,
                "end_time": 110.6386364,
                "pitch": 25,
                "velocity": 64,
                "duration": 0.1181818,
                "tempo": 120.0
            },
            {
                "start_time": 110.6386364,
                "end_time": 110.7727273,
                "pitch": 37,
                "velocity": 64,
                "duration": 0.1340909,
                "tempo": 120.0
            },
            {
                "start_time": 110.775,
                "end_time": 110.8909091,
                "pitch": 37,
                "velocity": 64,
                "duration": 0.1159091,
                "tempo": 120.0
            },
            {
                "start_time": 110.8909091,
                "end_time": 111.0068182,
                "pitch": 25,
                "velocity": 64,
                "duration": 0.1159091,
                "tempo": 120.0
            },
            {
                "start_time": 111.0068182,
                "end_time": 111.125,
                "pitch": 25,
                "velocity": 64,
                "duration": 0.1181818,
                "tempo": 120.0
            },
            {
                "start_time": 111.1272727,
                "end_time": 111.2431818,
                "pitch": 37,
                "velocity": 64,
                "duration": 0.1159091,
                "tempo": 120.0
            },
            {
                "start_time": 111.2431818,
                "end_time": 111.3795455,
                "pitch": 37,
                "velocity": 64,
                "duration": 0.1363636,
                "tempo": 120.0
            },
            {
                "start_time": 111.3795455,
                "end_time": 111.4977273,
                "pitch": 25,
                "velocity": 64,
                "duration": 0.1181818,
                "tempo": 120.0
            },
            {
                "start_time": 111.4977273,
                "end_time": 111.6181818,
                "pitch": 25,
                "velocity": 64,
                "duration": 0.1204545,
                "tempo": 120.0
            },
            {
                "start_time": 111.6181818,
                "end_time": 111.7363636,
                "pitch": 37,
                "velocity": 64,
                "duration": 0.1181818,
                "tempo": 120.0
            },
            {
                "start_time": 111.7363636,
                "end_time": 111.8590909,
                "pitch": 37,
                "velocity": 64,
                "duration": 0.1227273,
                "tempo": 120.0
            },
            {
                "start_time": 111.8590909,
                "end_time": 111.9886364,
                "pitch": 25,
                "velocity": 64,
                "duration": 0.1295455,
                "tempo": 120.0
            },
            {
                "start_time": 111.9886364,
                "end_time": 112.1045455,
                "pitch": 25,
                "velocity": 64,
                "duration": 0.1159091,
                "tempo": 120.0
            },
            {
                "start_time": 112.1045455,
                "end_time": 112.2181818,
                "pitch": 37,
                "velocity": 64,
                "duration": 0.1136364,
                "tempo": 120.0
            },
            {
                "start_time": 112.2181818,
                "end_time": 112.3340909,
                "pitch": 37,
                "velocity": 64,
                "duration": 0.1159091,
                "tempo": 120.0
            },
            {
                "start_time": 112.3340909,
                "end_time": 112.4522727,
                "pitch": 30,
                "velocity": 64,
                "duration": 0.1181818,
                "tempo": 120.0
            },
            {
                "start_time": 112.4522727,
                "end_time": 112.5863636,
                "pitch": 30,
                "velocity": 64,
                "duration": 0.1340909,
                "tempo": 120.0
            },
            {
                "start_time": 112.5863636,
                "end_time": 112.7045455,
                "pitch": 42,
                "velocity": 64,
                "duration": 0.1181818,
                "tempo": 120.0
            },
            {
                "start_time": 112.7045455,
                "end_time": 112.8227273,
                "pitch": 42,
                "velocity": 64,
                "duration": 0.1181818,
                "tempo": 120.0
            },
            {
                "start_time": 112.8227273,
                "end_time": 112.9386364,
                "pitch": 30,
                "velocity": 64,
                "duration": 0.1159091,
                "tempo": 120.0
            },
            {
                "start_time": 112.9386364,
                "end_time": 113.0568182,
                "pitch": 30,
                "velocity": 64,
                "duration": 0.1181818,
                "tempo": 120.0
            },
            {
                "start_time": 113.0568182,
                "end_time": 113.1909091,
                "pitch": 42,
                "velocity": 64,
                "duration": 0.1340909,
                "tempo": 120.0
            },
            {
                "start_time": 113.1909091,
                "end_time": 113.3090909,
                "pitch": 42,
                "velocity": 64,
                "duration": 0.1181818,
                "tempo": 120.0
            },
            {
                "start_time": 113.3090909,
                "end_time": 113.4295455,
                "pitch": 30,
                "velocity": 64,
                "duration": 0.1204545,
                "tempo": 120.0
            },
            {
                "start_time": 113.4295455,
                "end_time": 113.55,
                "pitch": 30,
                "velocity": 64,
                "duration": 0.1204545,
                "tempo": 120.0
            },
            {
                "start_time": 113.55,
                "end_time": 113.6681818,
                "pitch": 42,
                "velocity": 64,
                "duration": 0.1181818,
                "tempo": 120.0
            },
            {
                "start_time": 113.6681818,
                "end_time": 113.8068182,
                "pitch": 42,
                "velocity": 64,
                "duration": 0.1386364,
                "tempo": 120.0
            },
            {
                "start_time": 113.8068182,
                "end_time": 113.9204545,
                "pitch": 30,
                "velocity": 64,
                "duration": 0.1136364,
                "tempo": 120.0
            },
            {
                "start_time": 113.9227273,
                "end_time": 114.0409091,
                "pitch": 30,
                "velocity": 64,
                "duration": 0.1181818,
                "tempo": 120.0
            },
            {
                "start_time": 114.0409091,
                "end_time": 114.1590909,
                "pitch": 42,
                "velocity": 64,
                "duration": 0.1181818,
                "tempo": 120.0
            },
            {
                "start_time": 114.1590909,
                "end_time": 114.2772727,
                "pitch": 42,
                "velocity": 64,
                "duration": 0.1181818,
                "tempo": 120.0
            },
            {
                "start_time": 114.2772727,
                "end_time": 114.4068182,
                "pitch": 27,
                "velocity": 64,
                "duration": 0.1295455,
                "tempo": 120.0
            },
            {
                "start_time": 114.4068182,
                "end_time": 114.5227273,
                "pitch": 27,
                "velocity": 64,
                "duration": 0.1159091,
                "tempo": 120.0
            },
            {
                "start_time": 114.5227273,
                "end_time": 114.6386364,
                "pitch": 39,
                "velocity": 64,
                "duration": 0.1159091,
                "tempo": 120.0
            },
            {
                "start_time": 114.6386364,
                "end_time": 114.7522727,
                "pitch": 39,
                "velocity": 64,
                "duration": 0.1136364,
                "tempo": 120.0
            },
            {
                "start_time": 114.7522727,
                "end_time": 114.8681818,
                "pitch": 27,
                "velocity": 64,
                "duration": 0.1159091,
                "tempo": 120.0
            },
            {
                "start_time": 114.8681818,
                "end_time": 115.0045455,
                "pitch": 27,
                "velocity": 64,
                "duration": 0.1363636,
                "tempo": 120.0
            },
            {
                "start_time": 115.0045455,
                "end_time": 115.1227273,
                "pitch": 39,
                "velocity": 64,
                "duration": 0.1181818,
                "tempo": 120.0
            },
            {
                "start_time": 115.1227273,
                "end_time": 115.2409091,
                "pitch": 39,
                "velocity": 64,
                "duration": 0.1181818,
                "tempo": 120.0
            },
            {
                "start_time": 115.2409091,
                "end_time": 115.3590909,
                "pitch": 27,
                "velocity": 64,
                "duration": 0.1181818,
                "tempo": 120.0
            },
            {
                "start_time": 115.3590909,
                "end_time": 115.4795455,
                "pitch": 27,
                "velocity": 64,
                "duration": 0.1204545,
                "tempo": 120.0
            },
            {
                "start_time": 115.4795455,
                "end_time": 115.6159091,
                "pitch": 39,
                "velocity": 64,
                "duration": 0.1363636,
                "tempo": 120.0
            },
            {
                "start_time": 115.6159091,
                "end_time": 115.7363636,
                "pitch": 39,
                "velocity": 64,
                "duration": 0.1204545,
                "tempo": 120.0
            },
            {
                "start_time": 115.7363636,
                "end_time": 115.8545455,
                "pitch": 27,
                "velocity": 64,
                "duration": 0.1181818,
                "tempo": 120.0
            },
            {
                "start_time": 115.8545455,
                "end_time": 115.9704545,
                "pitch": 27,
                "velocity": 64,
                "duration": 0.1159091,
                "tempo": 120.0
            },
            {
                "start_time": 115.9727273,
                "end_time": 116.0886364,
                "pitch": 39,
                "velocity": 64,
                "duration": 0.1159091,
                "tempo": 120.0
            },
            {
                "start_time": 116.0886364,
                "end_time": 116.225,
                "pitch": 39,
                "velocity": 64,
                "duration": 0.1363636,
                "tempo": 120.0
            },
            {
                "start_time": 116.225,
                "end_time": 116.3409091,
                "pitch": 28,
                "velocity": 64,
                "duration": 0.1159091,
                "tempo": 120.0
            },
            {
                "start_time": 116.3409091,
                "end_time": 116.4590909,
                "pitch": 28,
                "velocity": 64,
                "duration": 0.1181818,
                "tempo": 120.0
            },
            {
                "start_time": 116.4590909,
                "end_time": 116.575,
                "pitch": 40,
                "velocity": 64,
                "duration": 0.1159091,
                "tempo": 120.0
            },
            {
                "start_time": 116.575,
                "end_time": 116.6909091,
                "pitch": 40,
                "velocity": 64,
                "duration": 0.1159091,
                "tempo": 120.0
            },
            {
                "start_time": 116.6909091,
                "end_time": 116.8204545,
                "pitch": 28,
                "velocity": 64,
                "duration": 0.1295455,
                "tempo": 120.0
            },
            {
                "start_time": 116.8204545,
                "end_time": 116.9363636,
                "pitch": 28,
                "velocity": 64,
                "duration": 0.1159091,
                "tempo": 120.0
            },
            {
                "start_time": 116.9363636,
                "end_time": 117.0522727,
                "pitch": 40,
                "velocity": 64,
                "duration": 0.1159091,
                "tempo": 120.0
            },
            {
                "start_time": 117.0522727,
                "end_time": 117.1681818,
                "pitch": 40,
                "velocity": 64,
                "duration": 0.1159091,
                "tempo": 120.0
            },
            {
                "start_time": 117.1681818,
                "end_time": 117.2863636,
                "pitch": 28,
                "velocity": 64,
                "duration": 0.1181818,
                "tempo": 120.0
            },
            {
                "start_time": 117.2863636,
                "end_time": 117.425,
                "pitch": 28,
                "velocity": 64,
                "duration": 0.1386364,
                "tempo": 120.0
            },
            {
                "start_time": 117.425,
                "end_time": 117.5431818,
                "pitch": 40,
                "velocity": 64,
                "duration": 0.1181818,
                "tempo": 120.0
            },
            {
                "start_time": 117.5431818,
                "end_time": 117.6636364,
                "pitch": 40,
                "velocity": 64,
                "duration": 0.1204545,
                "tempo": 120.0
            },
            {
                "start_time": 117.6636364,
                "end_time": 117.7795455,
                "pitch": 28,
                "velocity": 64,
                "duration": 0.1159091,
                "tempo": 120.0
            },
            {
                "start_time": 117.7795455,
                "end_time": 117.9,
                "pitch": 28,
                "velocity": 64,
                "duration": 0.1204545,
                "tempo": 120.0
            },
            {
                "start_time": 117.9,
                "end_time": 118.0318182,
                "pitch": 40,
                "velocity": 64,
                "duration": 0.1318182,
                "tempo": 120.0
            },
            {
                "start_time": 118.0340909,
                "end_time": 118.1522727,
                "pitch": 40,
                "velocity": 64,
                "duration": 0.1181818,
                "tempo": 120.0
            },
            {
                "start_time": 118.1522727,
                "end_time": 118.2681818,
                "pitch": 25,
                "velocity": 64,
                "duration": 0.1159091,
                "tempo": 120.0
            },
            {
                "start_time": 118.2681818,
                "end_time": 118.3840909,
                "pitch": 25,
                "velocity": 64,
                "duration": 0.1159091,
                "tempo": 120.0
            },
            {
                "start_time": 118.3863636,
                "end_time": 118.5022727,
                "pitch": 37,
                "velocity": 64,
                "duration": 0.1159091,
                "tempo": 120.0
            },
            {
                "start_time": 118.5022727,
                "end_time": 118.6363636,
                "pitch": 37,
                "velocity": 64,
                "duration": 0.1340909,
                "tempo": 120.0
            },
            {
                "start_time": 118.6363636,
                "end_time": 118.7522727,
                "pitch": 25,
                "velocity": 64,
                "duration": 0.1159091,
                "tempo": 120.0
            },
            {
                "start_time": 118.7522727,
                "end_time": 118.8727273,
                "pitch": 25,
                "velocity": 64,
                "duration": 0.1204545,
                "tempo": 120.0
            },
            {
                "start_time": 118.8727273,
                "end_time": 118.9931818,
                "pitch": 37,
                "velocity": 64,
                "duration": 0.1204545,
                "tempo": 120.0
            },
            {
                "start_time": 118.9931818,
                "end_time": 119.1136364,
                "pitch": 37,
                "velocity": 64,
                "duration": 0.1204545,
                "tempo": 120.0
            },
            {
                "start_time": 119.1136364,
                "end_time": 119.2454545,
                "pitch": 25,
                "velocity": 64,
                "duration": 0.1318182,
                "tempo": 120.0
            },
            {
                "start_time": 119.2454545,
                "end_time": 119.3613636,
                "pitch": 25,
                "velocity": 64,
                "duration": 0.1159091,
                "tempo": 120.0
            },
            {
                "start_time": 119.3613636,
                "end_time": 119.4727273,
                "pitch": 37,
                "velocity": 64,
                "duration": 0.1113636,
                "tempo": 120.0
            },
            {
                "start_time": 119.4727273,
                "end_time": 119.5909091,
                "pitch": 37,
                "velocity": 64,
                "duration": 0.1181818,
                "tempo": 120.0
            },
            {
                "start_time": 119.5909091,
                "end_time": 119.7045455,
                "pitch": 25,
                "velocity": 64,
                "duration": 0.1136364,
                "tempo": 120.0
            },
            {
                "start_time": 119.7045455,
                "end_time": 119.8409091,
                "pitch": 25,
                "velocity": 64,
                "duration": 0.1363636,
                "tempo": 120.0
            },
            {
                "start_time": 119.8409091,
                "end_time": 119.9568182,
                "pitch": 37,
                "velocity": 64,
                "duration": 0.1159091,
                "tempo": 120.0
            },
            {
                "start_time": 119.9568182,
                "end_time": 120.075,
                "pitch": 37,
                "velocity": 64,
                "duration": 0.1181818,
                "tempo": 120.0
            },
            {
                "start_time": 120.075,
                "end_time": 120.1909091,
                "pitch": 30,
                "velocity": 64,
                "duration": 0.1159091,
                "tempo": 120.0
            },
            {
                "start_time": 120.1909091,
                "end_time": 120.3090909,
                "pitch": 30,
                "velocity": 64,
                "duration": 0.1181818,
                "tempo": 120.0
            },
            {
                "start_time": 120.3090909,
                "end_time": 120.4454545,
                "pitch": 42,
                "velocity": 64,
                "duration": 0.1363636,
                "tempo": 120.0
            },
            {
                "start_time": 120.4454545,
                "end_time": 120.5613636,
                "pitch": 42,
                "velocity": 64,
                "duration": 0.1159091,
                "tempo": 120.0
            },
            {
                "start_time": 120.5613636,
                "end_time": 120.6795455,
                "pitch": 30,
                "velocity": 64,
                "duration": 0.1181818,
                "tempo": 120.0
            },
            {
                "start_time": 120.6795455,
                "end_time": 120.8,
                "pitch": 30,
                "velocity": 64,
                "duration": 0.1204545,
                "tempo": 120.0
            },
            {
                "start_time": 120.8,
                "end_time": 120.9204545,
                "pitch": 42,
                "velocity": 64,
                "duration": 0.1204545,
                "tempo": 120.0
            },
            {
                "start_time": 120.9204545,
                "end_time": 121.0568182,
                "pitch": 42,
                "velocity": 64,
                "duration": 0.1363636,
                "tempo": 120.0
            },
            {
                "start_time": 121.0590909,
                "end_time": 121.1727273,
                "pitch": 30,
                "velocity": 64,
                "duration": 0.1136364,
                "tempo": 120.0
            },
            {
                "start_time": 121.175,
                "end_time": 121.2909091,
                "pitch": 30,
                "velocity": 64,
                "duration": 0.1159091,
                "tempo": 120.0
            },
            {
                "start_time": 121.2909091,
                "end_time": 121.4068182,
                "pitch": 42,
                "velocity": 64,
                "duration": 0.1159091,
                "tempo": 120.0
            },
            {
                "start_time": 121.4068182,
                "end_time": 121.525,
                "pitch": 42,
                "velocity": 64,
                "duration": 0.1181818,
                "tempo": 120.0
            },
            {
                "start_time": 121.525,
                "end_time": 121.6545455,
                "pitch": 30,
                "velocity": 64,
                "duration": 0.1295455,
                "tempo": 120.0
            },
            {
                "start_time": 121.6545455,
                "end_time": 121.7704545,
                "pitch": 30,
                "velocity": 64,
                "duration": 0.1159091,
                "tempo": 120.0
            },
            {
                "start_time": 121.7727273,
                "end_time": 121.8863636,
                "pitch": 42,
                "velocity": 64,
                "duration": 0.1136364,
                "tempo": 120.0
            },
            {
                "start_time": 121.8863636,
                "end_time": 122.0022727,
                "pitch": 42,
                "velocity": 64,
                "duration": 0.1159091,
                "tempo": 120.0
            },
            {
                "start_time": 122.0022727,
                "end_time": 122.1181818,
                "pitch": 27,
                "velocity": 64,
                "duration": 0.1159091,
                "tempo": 120.0
            },
            {
                "start_time": 122.1181818,
                "end_time": 122.2545455,
                "pitch": 27,
                "velocity": 64,
                "duration": 0.1363636,
                "tempo": 120.0
            },
            {
                "start_time": 122.2545455,
                "end_time": 122.3727273,
                "pitch": 39,
                "velocity": 64,
                "duration": 0.1181818,
                "tempo": 120.0
            },
            {
                "start_time": 122.3727273,
                "end_time": 122.4886364,
                "pitch": 39,
                "velocity": 64,
                "duration": 0.1159091,
                "tempo": 120.0
            },
            {
                "start_time": 122.4886364,
                "end_time": 122.6045455,
                "pitch": 27,
                "velocity": 64,
                "duration": 0.1159091,
                "tempo": 120.0
            },
            {
                "start_time": 122.6045455,
                "end_time": 122.7227273,
                "pitch": 27,
                "velocity": 64,
                "duration": 0.1181818,
                "tempo": 120.0
            },
            {
                "start_time": 122.725,
                "end_time": 122.8590909,
                "pitch": 39,
                "velocity": 64,
                "duration": 0.1340909,
                "tempo": 120.0
            },
            {
                "start_time": 122.8590909,
                "end_time": 122.975,
                "pitch": 39,
                "velocity": 64,
                "duration": 0.1159091,
                "tempo": 120.0
            },
            {
                "start_time": 122.9772727,
                "end_time": 123.0954545,
                "pitch": 27,
                "velocity": 64,
                "duration": 0.1181818,
                "tempo": 120.0
            },
            {
                "start_time": 123.0954545,
                "end_time": 123.2159091,
                "pitch": 27,
                "velocity": 64,
                "duration": 0.1204545,
                "tempo": 120.0
            },
            {
                "start_time": 123.2159091,
                "end_time": 123.3340909,
                "pitch": 39,
                "velocity": 64,
                "duration": 0.1181818,
                "tempo": 120.0
            },
            {
                "start_time": 123.3340909,
                "end_time": 123.4636364,
                "pitch": 39,
                "velocity": 64,
                "duration": 0.1295455,
                "tempo": 120.0
            },
            {
                "start_time": 123.4636364,
                "end_time": 123.5659091,
                "pitch": 27,
                "velocity": 64,
                "duration": 0.1022727,
                "tempo": 120.0
            },
            {
                "start_time": 123.5659091,
                "end_time": 123.6681818,
                "pitch": 27,
                "velocity": 64,
                "duration": 0.1022727,
                "tempo": 120.0
            },
            {
                "start_time": 123.6681818,
                "end_time": 123.7704545,
                "pitch": 39,
                "velocity": 64,
                "duration": 0.1022727,
                "tempo": 120.0
            }
        ],
        "Harpsichord": [
            {
                "start_time": 69.8,
                "end_time": 69.9136364,
                "pitch": 69,
                "velocity": 32,
                "duration": 0.1136364,
                "tempo": 120.0
            },
            {
                "start_time": 69.9136364,
                "end_time": 70.0295455,
                "pitch": 64,
                "velocity": 32,
                "duration": 0.1159091,
                "tempo": 120.0
            },
            {
                "start_time": 70.0295455,
                "end_time": 70.1454545,
                "pitch": 57,
                "velocity": 32,
                "duration": 0.1159091,
                "tempo": 120.0
            },
            {
                "start_time": 70.1477273,
                "end_time": 70.2795455,
                "pitch": 64,
                "velocity": 32,
                "duration": 0.1318182,
                "tempo": 120.0
            },
            {
                "start_time": 70.2795455,
                "end_time": 70.3977273,
                "pitch": 69,
                "velocity": 32,
                "duration": 0.1181818,
                "tempo": 120.0
            },
            {
                "start_time": 70.3977273,
                "end_time": 70.5159091,
                "pitch": 64,
                "velocity": 32,
                "duration": 0.1181818,
                "tempo": 120.0
            },
            {
                "start_time": 70.5159091,
                "end_time": 70.6340909,
                "pitch": 57,
                "velocity": 32,
                "duration": 0.1181818,
                "tempo": 120.0
            },
            {
                "start_time": 70.6340909,
                "end_time": 70.75,
                "pitch": 64,
                "velocity": 32,
                "duration": 0.1159091,
                "tempo": 120.0
            },
            {
                "start_time": 70.75,
                "end_time": 70.8863636,
                "pitch": 69,
                "velocity": 32,
                "duration": 0.1363636,
                "tempo": 120.0
            },
            {
                "start_time": 70.8863636,
                "end_time": 71.0022727,
                "pitch": 64,
                "velocity": 32,
                "duration": 0.1159091,
                "tempo": 120.0
            },
            {
                "start_time": 71.0045455,
                "end_time": 71.1204545,
                "pitch": 57,
                "velocity": 32,
                "duration": 0.1159091,
                "tempo": 120.0
            },
            {
                "start_time": 71.1204545,
                "end_time": 71.2386364,
                "pitch": 64,
                "velocity": 32,
                "duration": 0.1181818,
                "tempo": 120.0
            },
            {
                "start_time": 71.2386364,
                "end_time": 71.3545455,
                "pitch": 69,
                "velocity": 32,
                "duration": 0.1159091,
                "tempo": 120.0
            },
            {
                "start_time": 71.3568182,
                "end_time": 71.4909091,
                "pitch": 64,
                "velocity": 32,
                "duration": 0.1340909,
                "tempo": 120.0
            },
            {
                "start_time": 71.4909091,
                "end_time": 71.6090909,
                "pitch": 57,
                "velocity": 32,
                "duration": 0.1181818,
                "tempo": 120.0
            },
            {
                "start_time": 71.6090909,
                "end_time": 71.7272727,
                "pitch": 64,
                "velocity": 32,
                "duration": 0.1181818,
                "tempo": 120.0
            },
            {
                "start_time": 71.7272727,
                "end_time": 71.8431818,
                "pitch": 69,
                "velocity": 32,
                "duration": 0.1159091,
                "tempo": 120.0
            },
            {
                "start_time": 71.8431818,
                "end_time": 71.9590909,
                "pitch": 64,
                "velocity": 32,
                "duration": 0.1159091,
                "tempo": 120.0
            },
            {
                "start_time": 71.9613636,
                "end_time": 72.0931818,
                "pitch": 57,
                "velocity": 32,
                "duration": 0.1318182,
                "tempo": 120.0
            },
            {
                "start_time": 72.0931818,
                "end_time": 72.2113636,
                "pitch": 64,
                "velocity": 32,
                "duration": 0.1181818,
                "tempo": 120.0
            },
            {
                "start_time": 72.2113636,
                "end_time": 72.3272727,
                "pitch": 69,
                "velocity": 32,
                "duration": 0.1159091,
                "tempo": 120.0
            },
            {
                "start_time": 72.3272727,
                "end_time": 72.4454545,
                "pitch": 64,
                "velocity": 32,
                "duration": 0.1181818,
                "tempo": 120.0
            },
            {
                "start_time": 72.4454545,
                "end_time": 72.5636364,
                "pitch": 57,
                "velocity": 32,
                "duration": 0.1181818,
                "tempo": 120.0
            },
            {
                "start_time": 72.5636364,
                "end_time": 72.6977273,
                "pitch": 64,
                "velocity": 32,
                "duration": 0.1340909,
                "tempo": 120.0
            },
            {
                "start_time": 72.6977273,
                "end_time": 72.8181818,
                "pitch": 69,
                "velocity": 32,
                "duration": 0.1204545,
                "tempo": 120.0
            },
            {
                "start_time": 72.8181818,
                "end_time": 72.9386364,
                "pitch": 64,
                "velocity": 32,
                "duration": 0.1204545,
                "tempo": 120.0
            },
            {
                "start_time": 72.9386364,
                "end_time": 73.0568182,
                "pitch": 57,
                "velocity": 32,
                "duration": 0.1181818,
                "tempo": 120.0
            },
            {
                "start_time": 73.0568182,
                "end_time": 73.1772727,
                "pitch": 64,
                "velocity": 32,
                "duration": 0.1204545,
                "tempo": 120.0
            },
            {
                "start_time": 73.1772727,
                "end_time": 73.3045455,
                "pitch": 69,
                "velocity": 32,
                "duration": 0.1272727,
                "tempo": 120.0
            },
            {
                "start_time": 73.3045455,
                "end_time": 73.4181818,
                "pitch": 64,
                "velocity": 32,
                "duration": 0.1136364,
                "tempo": 120.0
            },
            {
                "start_time": 73.4181818,
                "end_time": 73.5295455,
                "pitch": 57,
                "velocity": 32,
                "duration": 0.1113636,
                "tempo": 120.0
            },
            {
                "start_time": 73.5295455,
                "end_time": 73.6431818,
                "pitch": 64,
                "velocity": 32,
                "duration": 0.1136364,
                "tempo": 120.0
            },
            {
                "start_time": 73.6431818,
                "end_time": 73.7613636,
                "pitch": 69,
                "velocity": 32,
                "duration": 0.1181818,
                "tempo": 120.0
            },
            {
                "start_time": 73.7613636,
                "end_time": 73.8977273,
                "pitch": 64,
                "velocity": 32,
                "duration": 0.1363636,
                "tempo": 120.0
            },
            {
                "start_time": 73.8977273,
                "end_time": 74.0181818,
                "pitch": 57,
                "velocity": 32,
                "duration": 0.1204545,
                "tempo": 120.0
            },
            {
                "start_time": 74.0181818,
                "end_time": 74.1386364,
                "pitch": 64,
                "velocity": 32,
                "duration": 0.1204545,
                "tempo": 120.0
            },
            {
                "start_time": 74.1386364,
                "end_time": 74.2545455,
                "pitch": 69,
                "velocity": 32,
                "duration": 0.1159091,
                "tempo": 120.0
            },
            {
                "start_time": 74.2545455,
                "end_time": 74.3727273,
                "pitch": 64,
                "velocity": 32,
                "duration": 0.1181818,
                "tempo": 120.0
            },
            {
                "start_time": 74.3727273,
                "end_time": 74.5068182,
                "pitch": 57,
                "velocity": 32,
                "duration": 0.1340909,
                "tempo": 120.0
            },
            {
                "start_time": 74.5090909,
                "end_time": 74.625,
                "pitch": 64,
                "velocity": 32,
                "duration": 0.1159091,
                "tempo": 120.0
            },
            {
                "start_time": 74.625,
                "end_time": 74.7454545,
                "pitch": 69,
                "velocity": 32,
                "duration": 0.1204545,
                "tempo": 120.0
            },
            {
                "start_time": 74.7454545,
                "end_time": 74.8636364,
                "pitch": 64,
                "velocity": 32,
                "duration": 0.1181818,
                "tempo": 120.0
            },
            {
                "start_time": 74.8659091,
                "end_time": 74.9840909,
                "pitch": 57,
                "velocity": 32,
                "duration": 0.1181818,
                "tempo": 120.0
            },
            {
                "start_time": 74.9840909,
                "end_time": 75.1204545,
                "pitch": 64,
                "velocity": 32,
                "duration": 0.1363636,
                "tempo": 120.0
            },
            {
                "start_time": 75.1227273,
                "end_time": 75.2386364,
                "pitch": 69,
                "velocity": 32,
                "duration": 0.1159091,
                "tempo": 120.0
            },
            {
                "start_time": 75.2386364,
                "end_time": 75.3568182,
                "pitch": 64,
                "velocity": 32,
                "duration": 0.1181818,
                "tempo": 120.0
            },
            {
                "start_time": 75.3568182,
                "end_time": 75.475,
                "pitch": 57,
                "velocity": 32,
                "duration": 0.1181818,
                "tempo": 120.0
            },
            {
                "start_time": 75.475,
                "end_time": 75.5931818,
                "pitch": 64,
                "velocity": 32,
                "duration": 0.1181818,
                "tempo": 120.0
            },
            {
                "start_time": 75.5931818,
                "end_time": 75.7227273,
                "pitch": 69,
                "velocity": 32,
                "duration": 0.1295455,
                "tempo": 120.0
            },
            {
                "start_time": 75.725,
                "end_time": 75.8386364,
                "pitch": 64,
                "velocity": 32,
                "duration": 0.1136364,
                "tempo": 120.0
            },
            {
                "start_time": 75.8386364,
                "end_time": 75.9545455,
                "pitch": 57,
                "velocity": 32,
                "duration": 0.1159091,
                "tempo": 120.0
            },
            {
                "start_time": 75.9545455,
                "end_time": 76.0681818,
                "pitch": 64,
                "velocity": 32,
                "duration": 0.1136364,
                "tempo": 120.0
            },
            {
                "start_time": 76.0681818,
                "end_time": 76.1863636,
                "pitch": 69,
                "velocity": 32,
                "duration": 0.1181818,
                "tempo": 120.0
            },
            {
                "start_time": 76.1863636,
                "end_time": 76.3204545,
                "pitch": 64,
                "velocity": 32,
                "duration": 0.1340909,
                "tempo": 120.0
            },
            {
                "start_time": 76.3204545,
                "end_time": 76.4386364,
                "pitch": 57,
                "velocity": 32,
                "duration": 0.1181818,
                "tempo": 120.0
            },
            {
                "start_time": 76.4386364,
                "end_time": 76.5568182,
                "pitch": 64,
                "velocity": 32,
                "duration": 0.1181818,
                "tempo": 120.0
            },
            {
                "start_time": 76.5568182,
                "end_time": 76.675,
                "pitch": 69,
                "velocity": 32,
                "duration": 0.1181818,
                "tempo": 120.0
            },
            {
                "start_time": 76.6772727,
                "end_time": 76.7954545,
                "pitch": 64,
                "velocity": 32,
                "duration": 0.1181818,
                "tempo": 120.0
            },
            {
                "start_time": 76.7954545,
                "end_time": 76.9318182,
                "pitch": 57,
                "velocity": 32,
                "duration": 0.1363636,
                "tempo": 120.0
            },
            {
                "start_time": 76.9318182,
                "end_time": 77.0522727,
                "pitch": 64,
                "velocity": 32,
                "duration": 0.1204545,
                "tempo": 120.0
            },
            {
                "start_time": 77.0522727,
                "end_time": 77.1681818,
                "pitch": 69,
                "velocity": 32,
                "duration": 0.1159091,
                "tempo": 120.0
            },
            {
                "start_time": 77.1681818,
                "end_time": 77.2886364,
                "pitch": 64,
                "velocity": 32,
                "duration": 0.1204545,
                "tempo": 120.0
            },
            {
                "start_time": 77.2886364,
                "end_time": 77.4045455,
                "pitch": 57,
                "velocity": 32,
                "duration": 0.1159091,
                "tempo": 120.0
            },
            {
                "start_time": 77.4068182,
                "end_time": 77.5431818,
                "pitch": 64,
                "velocity": 32,
                "duration": 0.1363636,
                "tempo": 120.0
            },
            {
                "start_time": 77.5431818,
                "end_time": 77.6568182,
                "pitch": 69,
                "velocity": 32,
                "duration": 0.1136364,
                "tempo": 120.0
            },
            {
                "start_time": 77.6568182,
                "end_time": 77.775,
                "pitch": 64,
                "velocity": 32,
                "duration": 0.1181818,
                "tempo": 120.0
            },
            {
                "start_time": 77.775,
                "end_time": 77.8931818,
                "pitch": 57,
                "velocity": 32,
                "duration": 0.1181818,
                "tempo": 120.0
            },
            {
                "start_time": 77.8931818,
                "end_time": 78.0113636,
                "pitch": 64,
                "velocity": 32,
                "duration": 0.1181818,
                "tempo": 120.0
            },
            {
                "start_time": 78.0113636,
                "end_time": 78.1409091,
                "pitch": 69,
                "velocity": 32,
                "duration": 0.1295455,
                "tempo": 120.0
            },
            {
                "start_time": 78.1409091,
                "end_time": 78.2568182,
                "pitch": 64,
                "velocity": 32,
                "duration": 0.1159091,
                "tempo": 120.0
            },
            {
                "start_time": 78.2568182,
                "end_time": 78.3727273,
                "pitch": 57,
                "velocity": 32,
                "duration": 0.1159091,
                "tempo": 120.0
            },
            {
                "start_time": 78.3727273,
                "end_time": 78.4863636,
                "pitch": 64,
                "velocity": 32,
                "duration": 0.1136364,
                "tempo": 120.0
            },
            {
                "start_time": 78.4863636,
                "end_time": 78.6068182,
                "pitch": 69,
                "velocity": 32,
                "duration": 0.1204545,
                "tempo": 120.0
            },
            {
                "start_time": 78.6068182,
                "end_time": 78.7431818,
                "pitch": 64,
                "velocity": 32,
                "duration": 0.1363636,
                "tempo": 120.0
            },
            {
                "start_time": 78.7431818,
                "end_time": 78.8636364,
                "pitch": 57,
                "velocity": 32,
                "duration": 0.1204545,
                "tempo": 120.0
            },
            {
                "start_time": 78.8636364,
                "end_time": 78.9840909,
                "pitch": 64,
                "velocity": 32,
                "duration": 0.1204545,
                "tempo": 120.0
            },
            {
                "start_time": 78.9840909,
                "end_time": 79.1,
                "pitch": 69,
                "velocity": 32,
                "duration": 0.1159091,
                "tempo": 120.0
            },
            {
                "start_time": 79.1,
                "end_time": 79.2181818,
                "pitch": 64,
                "velocity": 32,
                "duration": 0.1181818,
                "tempo": 120.0
            },
            {
                "start_time": 79.2181818,
                "end_time": 79.3522727,
                "pitch": 57,
                "velocity": 32,
                "duration": 0.1340909,
                "tempo": 120.0
            },
            {
                "start_time": 79.3522727,
                "end_time": 79.4727273,
                "pitch": 64,
                "velocity": 32,
                "duration": 0.1204545,
                "tempo": 120.0
            },
            {
                "start_time": 79.4727273,
                "end_time": 79.5863636,
                "pitch": 69,
                "velocity": 32,
                "duration": 0.1136364,
                "tempo": 120.0
            },
            {
                "start_time": 79.5886364,
                "end_time": 79.7045455,
                "pitch": 64,
                "velocity": 32,
                "duration": 0.1159091,
                "tempo": 120.0
            },
            {
                "start_time": 79.7045455,
                "end_time": 79.8204545,
                "pitch": 57,
                "velocity": 32,
                "duration": 0.1159091,
                "tempo": 120.0
            },
            {
                "start_time": 79.8204545,
                "end_time": 79.9545455,
                "pitch": 64,
                "velocity": 32,
                "duration": 0.1340909,
                "tempo": 120.0
            },
            {
                "start_time": 79.9545455,
                "end_time": 80.0727273,
                "pitch": 69,
                "velocity": 32,
                "duration": 0.1181818,
                "tempo": 120.0
            },
            {
                "start_time": 80.0727273,
                "end_time": 80.1931818,
                "pitch": 64,
                "velocity": 32,
                "duration": 0.1204545,
                "tempo": 120.0
            },
            {
                "start_time": 80.1931818,
                "end_time": 80.3136364,
                "pitch": 57,
                "velocity": 32,
                "duration": 0.1204545,
                "tempo": 120.0
            },
            {
                "start_time": 80.3136364,
                "end_time": 80.4340909,
                "pitch": 64,
                "velocity": 32,
                "duration": 0.1204545,
                "tempo": 120.0
            },
            {
                "start_time": 80.4340909,
                "end_time": 80.5659091,
                "pitch": 69,
                "velocity": 32,
                "duration": 0.1318182,
                "tempo": 120.0
            },
            {
                "start_time": 80.5659091,
                "end_time": 80.6795455,
                "pitch": 64,
                "velocity": 32,
                "duration": 0.1136364,
                "tempo": 120.0
            },
            {
                "start_time": 80.6795455,
                "end_time": 80.7931818,
                "pitch": 57,
                "velocity": 32,
                "duration": 0.1136364,
                "tempo": 120.0
            },
            {
                "start_time": 80.7931818,
                "end_time": 80.9090909,
                "pitch": 64,
                "velocity": 32,
                "duration": 0.1159091,
                "tempo": 120.0
            },
            {
                "start_time": 80.9090909,
                "end_time": 81.0272727,
                "pitch": 69,
                "velocity": 32,
                "duration": 0.1181818,
                "tempo": 120.0
            },
            {
                "start_time": 81.0272727,
                "end_time": 81.1613636,
                "pitch": 64,
                "velocity": 32,
                "duration": 0.1340909,
                "tempo": 120.0
            },
            {
                "start_time": 81.1613636,
                "end_time": 81.2795455,
                "pitch": 57,
                "velocity": 32,
                "duration": 0.1181818,
                "tempo": 120.0
            },
            {
                "start_time": 81.2795455,
                "end_time": 81.4,
                "pitch": 64,
                "velocity": 32,
                "duration": 0.1204545,
                "tempo": 120.0
            },
            {
                "start_time": 81.4,
                "end_time": 81.5136364,
                "pitch": 69,
                "velocity": 32,
                "duration": 0.1136364,
                "tempo": 120.0
            },
            {
                "start_time": 81.5136364,
                "end_time": 81.6318182,
                "pitch": 64,
                "velocity": 32,
                "duration": 0.1181818,
                "tempo": 120.0
            },
            {
                "start_time": 81.6318182,
                "end_time": 81.7636364,
                "pitch": 57,
                "velocity": 32,
                "duration": 0.1318182,
                "tempo": 120.0
            },
            {
                "start_time": 81.7659091,
                "end_time": 81.8818182,
                "pitch": 64,
                "velocity": 32,
                "duration": 0.1159091,
                "tempo": 120.0
            },
            {
                "start_time": 81.8818182,
                "end_time": 82.0,
                "pitch": 69,
                "velocity": 32,
                "duration": 0.1181818,
                "tempo": 120.0
            },
            {
                "start_time": 82.0,
                "end_time": 82.1204545,
                "pitch": 64,
                "velocity": 32,
                "duration": 0.1204545,
                "tempo": 120.0
            },
            {
                "start_time": 82.1204545,
                "end_time": 82.2409091,
                "pitch": 57,
                "velocity": 32,
                "duration": 0.1204545,
                "tempo": 120.0
            },
            {
                "start_time": 82.2409091,
                "end_time": 82.3772727,
                "pitch": 64,
                "velocity": 32,
                "duration": 0.1363636,
                "tempo": 120.0
            },
            {
                "start_time": 82.3772727,
                "end_time": 82.4931818,
                "pitch": 69,
                "velocity": 32,
                "duration": 0.1159091,
                "tempo": 120.0
            },
            {
                "start_time": 82.4931818,
                "end_time": 82.6113636,
                "pitch": 64,
                "velocity": 32,
                "duration": 0.1181818,
                "tempo": 120.0
            },
            {
                "start_time": 82.6113636,
                "end_time": 82.7272727,
                "pitch": 57,
                "velocity": 32,
                "duration": 0.1159091,
                "tempo": 120.0
            },
            {
                "start_time": 82.7272727,
                "end_time": 82.8454545,
                "pitch": 64,
                "velocity": 32,
                "duration": 0.1181818,
                "tempo": 120.0
            },
            {
                "start_time": 82.8454545,
                "end_time": 82.975,
                "pitch": 69,
                "velocity": 32,
                "duration": 0.1295455,
                "tempo": 120.0
            },
            {
                "start_time": 82.975,
                "end_time": 83.0909091,
                "pitch": 64,
                "velocity": 32,
                "duration": 0.1159091,
                "tempo": 120.0
            },
            {
                "start_time": 83.0909091,
                "end_time": 83.2068182,
                "pitch": 57,
                "velocity": 32,
                "duration": 0.1159091,
                "tempo": 120.0
            },
            {
                "start_time": 83.2068182,
                "end_time": 83.3227273,
                "pitch": 64,
                "velocity": 32,
                "duration": 0.1159091,
                "tempo": 120.0
            },
            {
                "start_time": 83.3227273,
                "end_time": 83.4363636,
                "pitch": 69,
                "velocity": 32,
                "duration": 0.1136364,
                "tempo": 120.0
            },
            {
                "start_time": 83.4386364,
                "end_time": 83.5704545,
                "pitch": 64,
                "velocity": 32,
                "duration": 0.1318182,
                "tempo": 120.0
            },
            {
                "start_time": 83.5704545,
                "end_time": 83.6886364,
                "pitch": 57,
                "velocity": 32,
                "duration": 0.1181818,
                "tempo": 120.0
            },
            {
                "start_time": 83.6886364,
                "end_time": 83.8045455,
                "pitch": 64,
                "velocity": 32,
                "duration": 0.1159091,
                "tempo": 120.0
            },
            {
                "start_time": 83.8045455,
                "end_time": 83.9204545,
                "pitch": 69,
                "velocity": 32,
                "duration": 0.1159091,
                "tempo": 120.0
            },
            {
                "start_time": 83.9227273,
                "end_time": 84.0409091,
                "pitch": 64,
                "velocity": 32,
                "duration": 0.1181818,
                "tempo": 120.0
            },
            {
                "start_time": 84.0409091,
                "end_time": 84.175,
                "pitch": 57,
                "velocity": 32,
                "duration": 0.1340909,
                "tempo": 120.0
            },
            {
                "start_time": 84.175,
                "end_time": 84.2931818,
                "pitch": 64,
                "velocity": 32,
                "duration": 0.1181818,
                "tempo": 120.0
            },
            {
                "start_time": 84.2931818,
                "end_time": 84.4113636,
                "pitch": 69,
                "velocity": 32,
                "duration": 0.1181818,
                "tempo": 120.0
            },
            {
                "start_time": 84.4113636,
                "end_time": 84.5318182,
                "pitch": 64,
                "velocity": 32,
                "duration": 0.1204545,
                "tempo": 120.0
            },
            {
                "start_time": 84.5318182,
                "end_time": 84.65,
                "pitch": 57,
                "velocity": 32,
                "duration": 0.1181818,
                "tempo": 120.0
            },
            {
                "start_time": 84.65,
                "end_time": 84.7886364,
                "pitch": 64,
                "velocity": 32,
                "duration": 0.1386364,
                "tempo": 120.0
            },
            {
                "start_time": 84.7886364,
                "end_time": 84.9068182,
                "pitch": 69,
                "velocity": 32,
                "duration": 0.1181818,
                "tempo": 120.0
            },
            {
                "start_time": 84.9068182,
                "end_time": 85.0227273,
                "pitch": 64,
                "velocity": 32,
                "duration": 0.1159091,
                "tempo": 120.0
            },
            {
                "start_time": 85.025,
                "end_time": 85.1409091,
                "pitch": 57,
                "velocity": 32,
                "duration": 0.1159091,
                "tempo": 120.0
            }
        ]
    }
}