{
    "mood": "happy",
    "instruments": {
        "Harpsichord": [
            {
                "start_time": 0.2681818,
                "end_time": 1.9522727,
                "pitch": 60,
                "velocity": 64,
                "duration": 1.6840909,
                "tempo": 120.0
            },
            {
                "start_time": 1.9772727,
                "end_time": 2.4863636,
                "pitch": 63,
                "velocity": 64,
                "duration": 0.5090909,
                "tempo": 120.0
            },
            {
                "start_time": 2.5090909,
                "end_time": 3.0181818,
                "pitch": 61,
                "velocity": 64,
                "duration": 0.5090909,
                "tempo": 120.0
            },
            {
                "start_time": 3.0409091,
                "end_time": 4.8022727,
                "pitch": 61,
                "velocity": 64,
                "duration": 1.7613636,
                "tempo": 120.0
            },
            {
                "start_time": 1.9772727,
                "end_time": 4.825,
                "pitch": 60,
                "velocity": 64,
                "duration": 2.8477273,
                "tempo": 120.0
            },
            {
                "start_time": 2.5090909,
                "end_time": 5.3340909,
                "pitch": 63,
                "velocity": 64,
                "duration": 2.825,
                "tempo": 120.0
            },
            {
                "start_time": 4.825,
                "end_time": 5.3340909,
                "pitch": 63,
                "velocity": 64,
                "duration": 0.5090909,
                "tempo": 120.0
            },
            {
                "start_time": 5.3568182,
                "end_time": 5.8704545,
                "pitch": 61,
                "velocity": 64,
                "duration": 0.5136364,
                "tempo": 120.0
            },
            {
                "start_time": 5.8954545,
                "end_time": 7.6636364,
                "pitch": 61,
                "velocity": 64,
                "duration": 1.7681818,
                "tempo": 120.0
            },
            {
                "start_time": 4.825,
                "end_time": 7.6863636,
                "pitch": 60,
                "velocity": 64,
                "duration": 2.8613636,
                "tempo": 120.0
            },
            {
                "start_time": 5.3568182,
                "end_time": 8.1954545,
                "pitch": 63,
                "velocity": 64,
                "duration": 2.8386364,
                "tempo": 120.0
            },
            {
                "start_time": 7.6863636,
                "end_time": 8.1954545,
                "pitch": 63,
                "velocity": 64,
                "duration": 0.5090909,
                "tempo": 120.0
            },
            {
                "start_time": 8.2181818,
                "end_time": 8.7318182,
                "pitch": 61,
                "velocity": 64,
                "duration": 0.5136364,
                "tempo": 120.0
            },
            {
                "start_time": 8.7545455,
                "end_time": 9.7909091,
                "pitch": 61,
                "velocity": 64,
                "duration": 1.0363636,
                "tempo": 120.0
            },
            {
                "start_time": 9.8136364,
                "end_time": 9.9727273,
                "pitch": 58,
                "velocity": 64,
                "duration": 0.1590909,
                "tempo": 120.0
            },
            {
                "start_time": 7.6863636,
                "end_time": 10.1568182,
                "pitch": 60,
                "velocity": 64,
                "duration": 2.4704545,
                "tempo": 120.0
            },
            {
                "start_time": 9.9954545,
                "end_time": 10.1568182,
                "pitch": 60,
                "velocity": 64,
                "duration": 0.1613636,
                "tempo": 120.0
            },
            {
                "start_time": 9.8136364,
                "end_time": 10.1795455,
                "pitch": 64,
                "velocity": 64,
                "duration": 0.3659091,
                "tempo": 120.0
            },
            {
                "start_time": 10.1795455,
                "end_time": 11.5886364,
                "pitch": 58,
                "velocity": 64,
                "duration": 1.4090909,
                "tempo": 120.0
            },
            {
                "start_time": 9.9954545,
                "end_time": 11.6113636,
                "pitch": 39,
                "velocity": 64,
                "duration": 1.6159091,
                "tempo": 120.0
            },
            {
                "start_time": 11.6113636,
                "end_time": 13.3727273,
                "pitch": 60,
                "velocity": 64,
                "duration": 1.7613636,
                "tempo": 120.0
            },
            {
                "start_time": 8.2181818,
                "end_time": 13.9045455,
                "pitch": 63,
                "velocity": 64,
                "duration": 5.6863636,
                "tempo": 120.0
            },
            {
                "start_time": 13.3954545,
                "end_time": 13.9045455,
                "pitch": 63,
                "velocity": 64,
                "duration": 0.5090909,
                "tempo": 120.0
            },
            {
                "start_time": 13.9272727,
                "end_time": 14.4431818,
                "pitch": 61,
                "velocity": 64,
                "duration": 0.5159091,
                "tempo": 120.0
            },
            {
                "start_time": 14.4659091,
                "end_time": 16.2340909,
                "pitch": 61,
                "velocity": 64,
                "duration": 1.7681818,
                "tempo": 120.0
            },
            {
                "start_time": 13.3954545,
                "end_time": 16.2568182,
                "pitch": 60,
                "velocity": 64,
                "duration": 2.8613636,
                "tempo": 120.0
            },
            {
                "start_time": 13.9272727,
                "end_time": 16.7659091,
                "pitch": 63,
                "velocity": 64,
                "duration": 2.8386364,
                "tempo": 120.0
            },
            {
                "start_time": 16.2568182,
                "end_time": 16.7659091,
                "pitch": 63,
                "velocity": 64,
                "duration": 0.5090909,
                "tempo": 120.0
            },
            {
                "start_time": 16.7886364,
                "end_time": 17.2977273,
                "pitch": 61,
                "velocity": 64,
                "duration": 0.5090909,
                "tempo": 120.0
            },
            {
                "start_time": 17.3204545,
                "end_time": 19.0954545,
                "pitch": 61,
                "velocity": 64,
                "duration": 1.775,
                "tempo": 120.0
            },
            {
                "start_time": 16.2568182,
                "end_time": 19.1181818,
                "pitch": 60,
                "velocity": 64,
                "duration": 2.8613636,
                "tempo": 120.0
            },
            {
                "start_time": 16.7886364,
                "end_time": 19.6181818,
                "pitch": 63,
                "velocity": 64,
                "duration": 2.8295455,
                "tempo": 120.0
            },
            {
                "start_time": 19.1181818,
                "end_time": 19.6181818,
                "pitch": 63,
                "velocity": 64,
                "duration": 0.5,
                "tempo": 120.0
            },
            {
                "start_time": 19.6409091,
                "end_time": 20.1522727,
                "pitch": 61,
                "velocity": 64,
                "duration": 0.5113636,
                "tempo": 120.0
            },
            {
                "start_time": 20.175,
                "end_time": 21.2227273,
                "pitch": 61,
                "velocity": 64,
                "duration": 1.0477273,
                "tempo": 120.0
            },
            {
                "start_time": 10.1795455,
                "end_time": 21.2454545,
                "pitch": 64,
                "velocity": 64,
                "duration": 11.0659091,
                "tempo": 120.0
            },
            {
                "start_time": 21.2454545,
                "end_time": 21.4022727,
                "pitch": 58,
                "velocity": 64,
                "duration": 0.1568182,
                "tempo": 120.0
            },
            {
                "start_time": 11.6113636,
                "end_time": 21.425,
                "pitch": 39,
                "velocity": 64,
                "duration": 9.8136364,
                "tempo": 120.0
            },
            {
                "start_time": 19.1181818,
                "end_time": 21.5818182,
                "pitch": 60,
                "velocity": 64,
                "duration": 2.4636364,
                "tempo": 120.0
            },
            {
                "start_time": 21.425,
                "end_time": 21.5818182,
                "pitch": 60,
                "velocity": 64,
                "duration": 0.1568182,
                "tempo": 120.0
            },
            {
                "start_time": 21.2454545,
                "end_time": 21.6045455,
                "pitch": 64,
                "velocity": 64,
                "duration": 0.3590909,
                "tempo": 120.0
            },
            {
                "start_time": 21.6045455,
                "end_time": 22.6522727,
                "pitch": 58,
                "velocity": 64,
                "duration": 1.0477273,
                "tempo": 120.0
            },
            {
                "start_time": 22.675,
                "end_time": 24.5840909,
                "pitch": 58,
                "velocity": 64,
                "duration": 1.9090909,
                "tempo": 120.0
            },
            {
                "start_time": 24.6,
                "end_time": 24.9840909,
                "pitch": 56,
                "velocity": 64,
                "duration": 0.3840909,
                "tempo": 120.0
            },
            {
                "start_time": 25.0,
                "end_time": 25.3909091,
                "pitch": 58,
                "velocity": 64,
                "duration": 0.3909091,
                "tempo": 120.0
            },
            {
                "start_time": 25.4090909,
                "end_time": 25.7909091,
                "pitch": 60,
                "velocity": 64,
                "duration": 0.3818182,
                "tempo": 120.0
            },
            {
                "start_time": 21.6045455,
                "end_time": 25.8068182,
                "pitch": 64,
                "velocity": 64,
                "duration": 4.2022727,
                "tempo": 120.0
            },
            {
                "start_time": 25.8068182,
                "end_time": 26.1954545,
                "pitch": 58,
                "velocity": 64,
                "duration": 0.3886364,
                "tempo": 120.0
            },
            {
                "start_time": 26.2136364,
                "end_time": 26.4590909,
                "pitch": 58,
                "velocity": 64,
                "duration": 0.2454545,
                "tempo": 120.0
            },
            {
                "start_time": 26.4772727,
                "end_time": 26.5886364,
                "pitch": 56,
                "velocity": 64,
                "duration": 0.1113636,
                "tempo": 120.0
            },
            {
                "start_time": 27.4136364,
                "end_time": 29.6909091,
                "pitch": 51,
                "velocity": 64,
                "duration": 2.2772727,
                "tempo": 120.0
            },
            {
                "start_time": 29.9727273,
                "end_time": 30.0863636,
                "pitch": 53,
                "velocity": 64,
                "duration": 0.1136364,
                "tempo": 120.0
            },
            {
                "start_time": 30.3727273,
                "end_time": 30.4909091,
                "pitch": 53,
                "velocity": 64,
                "duration": 0.1181818,
                "tempo": 120.0
            },
            {
                "start_time": 30.7795455,
                "end_time": 30.8954545,
                "pitch": 53,
                "velocity": 64,
                "duration": 0.1159091,
                "tempo": 120.0
            }
        ],
        "Trumpet": [
            {
                "start_time": 30.9181818,
                "end_time": 31.0136364,
                "pitch": 48,
                "velocity": 40,
                "duration": 0.0954545,
                "tempo": 120.0
            },
            {
                "start_time": 31.1795455,
                "end_time": 31.275,
                "pitch": 48,
                "velocity": 40,
                "duration": 0.0954545,
                "tempo": 120.0
            },
            {
                "start_time": 31.3113636,
                "end_time": 31.4068182,
                "pitch": 51,
                "velocity": 40,
                "duration": 0.0954545,
                "tempo": 120.0
            },
            {
                "start_time": 31.575,
                "end_time": 33.0318182,
                "pitch": 53,
                "velocity": 40,
                "duration": 1.4568182,
                "tempo": 120.0
            },
            {
                "start_time": 33.0659091,
                "end_time": 33.3,
                "pitch": 55,
                "velocity": 40,
                "duration": 0.2340909,
                "tempo": 120.0
            },
            {
                "start_time": 33.3340909,
                "end_time": 33.4340909,
                "pitch": 55,
                "velocity": 40,
                "duration": 0.1,
                "tempo": 120.0
            },
            {
                "start_time": 33.4681818,
                "end_time": 33.7,
                "pitch": 56,
                "velocity": 40,
                "duration": 0.2318182,
                "tempo": 120.0
            },
            {
                "start_time": 33.7363636,
                "end_time": 34.3954545,
                "pitch": 55,
                "velocity": 40,
                "duration": 0.6590909,
                "tempo": 120.0
            },
            {
                "start_time": 34.3954545,
                "end_time": 34.4795455,
                "pitch": 55,
                "velocity": 40,
                "duration": 0.0840909,
                "tempo": 120.0
            },
            {
                "start_time": 34.3954545,
                "end_time": 34.5977273,
                "pitch": 0,
                "velocity": 40,
                "duration": 0.2022727,
                "tempo": 120.0
            },
            {
                "start_time": 34.4795455,
                "end_time": 34.5977273,
                "pitch": 55,
                "velocity": 40,
                "duration": 0.1181818,
                "tempo": 120.0
            },
            {
                "start_time": 34.5977273,
                "end_time": 34.6818182,
                "pitch": 55,
                "velocity": 40,
                "duration": 0.0840909,
                "tempo": 120.0
            },
            {
                "start_time": 34.4795455,
                "end_time": 34.6818182,
                "pitch": 67,
                "velocity": 40,
                "duration": 0.2022727,
                "tempo": 120.0
            },
            {
                "start_time": 34.5977273,
                "end_time": 34.8022727,
                "pitch": 0,
                "velocity": 40,
                "duration": 0.2045455,
                "tempo": 120.0
            },
            {
                "start_time": 34.6818182,
                "end_time": 34.8022727,
                "pitch": 55,
                "velocity": 40,
                "duration": 0.1204545,
                "tempo": 120.0
            },
            {
                "start_time": 34.8022727,
                "end_time": 34.8863636,
                "pitch": 55,
                "velocity": 40,
                "duration": 0.0840909,
                "tempo": 120.0
            },
            {
                "start_time": 34.6818182,
                "end_time": 34.8863636,
                "pitch": 67,
                "velocity": 40,
                "duration": 0.2045455,
                "tempo": 120.0
            },
            {
                "start_time": 34.8022727,
                "end_time": 35.0068182,
                "pitch": 0,
                "velocity": 40,
                "duration": 0.2045455,
                "tempo": 120.0
            },
            {
                "start_time": 34.8863636,
                "end_time": 35.0068182,
                "pitch": 55,
                "velocity": 40,
                "duration": 0.1204545,
                "tempo": 120.0
            },
            {
                "start_time": 35.0068182,
                "end_time": 35.0409091,
                "pitch": 55,
                "velocity": 40,
                "duration": 0.0340909,
                "tempo": 120.0
            },
            {
                "start_time": 35.2113636,
                "end_time": 35.3113636,
                "pitch": 46,
                "velocity": 40,
                "duration": 0.1,
                "tempo": 120.0
            },
            {
                "start_time": 31.575,
                "end_time": 35.5795455,
                "pitch": 51,
                "velocity": 40,
                "duration": 4.0045455,
                "tempo": 120.0
            },
            {
                "start_time": 35.4795455,
                "end_time": 35.5795455,
                "pitch": 51,
                "velocity": 40,
                "duration": 0.1,
                "tempo": 120.0
            },
            {
                "start_time": 35.6136364,
                "end_time": 35.7113636,
                "pitch": 53,
                "velocity": 40,
                "duration": 0.0977273,
                "tempo": 120.0
            },
            {
                "start_time": 33.0659091,
                "end_time": 35.8818182,
                "pitch": 66,
                "velocity": 40,
                "duration": 2.8159091,
                "tempo": 120.0
            },
            {
                "start_time": 35.0068182,
                "end_time": 36.55,
                "pitch": 0,
                "velocity": 40,
                "duration": 1.5431818,
                "tempo": 120.0
            },
            {
                "start_time": 35.8818182,
                "end_time": 36.55,
                "pitch": 55,
                "velocity": 40,
                "duration": 0.6681818,
                "tempo": 120.0
            },
            {
                "start_time": 36.55,
                "end_time": 36.6340909,
                "pitch": 55,
                "velocity": 40,
                "duration": 0.0840909,
                "tempo": 120.0
            },
            {
                "start_time": 34.8863636,
                "end_time": 36.6340909,
                "pitch": 67,
                "velocity": 40,
                "duration": 1.7477273,
                "tempo": 120.0
            },
            {
                "start_time": 36.55,
                "end_time": 36.7477273,
                "pitch": 0,
                "velocity": 40,
                "duration": 0.1977273,
                "tempo": 120.0
            },
            {
                "start_time": 36.6340909,
                "end_time": 36.7477273,
                "pitch": 55,
                "velocity": 40,
                "duration": 0.1136364,
                "tempo": 120.0
            },
            {
                "start_time": 36.7477273,
                "end_time": 36.8295455,
                "pitch": 55,
                "velocity": 40,
                "duration": 0.0818182,
                "tempo": 120.0
            },
            {
                "start_time": 36.6340909,
                "end_time": 36.8295455,
                "pitch": 67,
                "velocity": 40,
                "duration": 0.1954545,
                "tempo": 120.0
            },
            {
                "start_time": 36.7477273,
                "end_time": 36.9454545,
                "pitch": 0,
                "velocity": 40,
                "duration": 0.1977273,
                "tempo": 120.0
            },
            {
                "start_time": 36.8295455,
                "end_time": 36.9454545,
                "pitch": 55,
                "velocity": 40,
                "duration": 0.1159091,
                "tempo": 120.0
            },
            {
                "start_time": 36.9454545,
                "end_time": 37.0272727,
                "pitch": 55,
                "velocity": 40,
                "duration": 0.0818182,
                "tempo": 120.0
            },
            {
                "start_time": 36.8295455,
                "end_time": 37.0272727,
                "pitch": 67,
                "velocity": 40,
                "duration": 0.1977273,
                "tempo": 120.0
            },
            {
                "start_time": 37.0272727,
                "end_time": 37.0431818,
                "pitch": 55,
                "velocity": 40,
                "duration": 0.0159091,
                "tempo": 120.0
            },
            {
                "start_time": 35.6136364,
                "end_time": 37.4977273,
                "pitch": 51,
                "velocity": 40,
                "duration": 1.8840909,
                "tempo": 120.0
            },
            {
                "start_time": 37.4977273,
                "end_time": 37.9909091,
                "pitch": 48,
                "velocity": 40,
                "duration": 0.4931818,
                "tempo": 120.0
            },
            {
                "start_time": 38.0272727,
                "end_time": 39.3318182,
                "pitch": 53,
                "velocity": 40,
                "duration": 1.3045455,
                "tempo": 120.0
            },
            {
                "start_time": 38.0272727,
                "end_time": 39.6,
                "pitch": 48,
                "velocity": 40,
                "duration": 1.5727273,
                "tempo": 120.0
            },
            {
                "start_time": 39.5,
                "end_time": 39.6,
                "pitch": 48,
                "velocity": 40,
                "duration": 0.1,
                "tempo": 120.0
            },
            {
                "start_time": 39.775,
                "end_time": 39.875,
                "pitch": 48,
                "velocity": 40,
                "duration": 0.1,
                "tempo": 120.0
            },
            {
                "start_time": 31.3113636,
                "end_time": 39.9113636,
                "pitch": 49,
                "velocity": 40,
                "duration": 8.6,
                "tempo": 120.0
            },
            {
                "start_time": 37.4977273,
                "end_time": 40.0090909,
                "pitch": 51,
                "velocity": 40,
                "duration": 2.5113636,
                "tempo": 120.0
            },
            {
                "start_time": 39.9113636,
                "end_time": 40.0090909,
                "pitch": 51,
                "velocity": 40,
                "duration": 0.0977273,
                "tempo": 120.0
            },
            {
                "start_time": 39.5,
                "end_time": 41.6136364,
                "pitch": 53,
                "velocity": 40,
                "duration": 2.1136364,
                "tempo": 120.0
            },
            {
                "start_time": 40.1795455,
                "end_time": 41.6136364,
                "pitch": 53,
                "velocity": 40,
                "duration": 1.4340909,
                "tempo": 120.0
            },
            {
                "start_time": 35.8818182,
                "end_time": 41.6477273,
                "pitch": 66,
                "velocity": 40,
                "duration": 5.7659091,
                "tempo": 120.0
            },
            {
                "start_time": 41.6477273,
                "end_time": 41.875,
                "pitch": 55,
                "velocity": 40,
                "duration": 0.2272727,
                "tempo": 120.0
            },
            {
                "start_time": 41.9090909,
                "end_time": 42.0090909,
                "pitch": 55,
                "velocity": 40,
                "duration": 0.1,
                "tempo": 120.0
            },
            {
                "start_time": 42.0454545,
                "end_time": 42.2840909,
                "pitch": 56,
                "velocity": 40,
                "duration": 0.2386364,
                "tempo": 120.0
            },
            {
                "start_time": 33.7363636,
                "end_time": 42.3204545,
                "pitch": 58,
                "velocity": 40,
                "duration": 8.5840909,
                "tempo": 120.0
            },
            {
                "start_time": 36.9454545,
                "end_time": 42.9886364,
                "pitch": 0,
                "velocity": 40,
                "duration": 6.0431818,
                "tempo": 120.0
            },
            {
                "start_time": 42.3204545,
                "end_time": 42.9886364,
                "pitch": 55,
                "velocity": 40,
                "duration": 0.6681818,
                "tempo": 120.0
            },
            {
                "start_time": 42.9886364,
                "end_time": 43.0727273,
                "pitch": 55,
                "velocity": 40,
                "duration": 0.0840909,
                "tempo": 120.0
            },
            {
                "start_time": 37.0272727,
                "end_time": 43.0727273,
                "pitch": 67,
                "velocity": 40,
                "duration": 6.0454545,
                "tempo": 120.0
            },
            {
                "start_time": 42.9886364,
                "end_time": 43.1909091,
                "pitch": 0,
                "velocity": 40,
                "duration": 0.2022727,
                "tempo": 120.0
            },
            {
                "start_time": 43.0727273,
                "end_time": 43.1909091,
                "pitch": 55,
                "velocity": 40,
                "duration": 0.1181818,
                "tempo": 120.0
            },
            {
                "start_time": 43.1909091,
                "end_time": 43.2772727,
                "pitch": 55,
                "velocity": 40,
                "duration": 0.0863636,
                "tempo": 120.0
            },
            {
                "start_time": 43.0727273,
                "end_time": 43.2772727,
                "pitch": 67,
                "velocity": 40,
                "duration": 0.2045455,
                "tempo": 120.0
            },
            {
                "start_time": 43.1909091,
                "end_time": 43.3977273,
                "pitch": 0,
                "velocity": 40,
                "duration": 0.2068182,
                "tempo": 120.0
            },
            {
                "start_time": 43.2772727,
                "end_time": 43.3977273,
                "pitch": 55,
                "velocity": 40,
                "duration": 0.1204545,
                "tempo": 120.0
            },
            {
                "start_time": 43.3977273,
                "end_time": 43.4818182,
                "pitch": 55,
                "velocity": 40,
                "duration": 0.0840909,
                "tempo": 120.0
            },
            {
                "start_time": 43.2772727,
                "end_time": 43.4818182,
                "pitch": 67,
                "velocity": 40,
                "duration": 0.2045455,
                "tempo": 120.0
            },
            {
                "start_time": 43.4818182,
                "end_time": 43.5,
                "pitch": 55,
                "velocity": 40,
                "duration": 0.0181818,
                "tempo": 120.0
            },
            {
                "start_time": 39.9113636,
                "end_time": 43.9295455,
                "pitch": 49,
                "velocity": 40,
                "duration": 4.0181818,
                "tempo": 120.0
            },
            {
                "start_time": 43.9295455,
                "end_time": 44.4363636,
                "pitch": 53,
                "velocity": 40,
                "duration": 0.5068182,
                "tempo": 120.0
            },
            {
                "start_time": 40.1795455,
                "end_time": 46.7068182,
                "pitch": 51,
                "velocity": 40,
                "duration": 6.5272727,
                "tempo": 120.0
            },
            {
                "start_time": 44.4704545,
                "end_time": 46.7068182,
                "pitch": 51,
                "velocity": 40,
                "duration": 2.2363636,
                "tempo": 120.0
            },
            {
                "start_time": 48.0795455,
                "end_time": 48.1772727,
                "pitch": 48,
                "velocity": 40,
                "duration": 0.0977273,
                "tempo": 120.0
            },
            {
                "start_time": 48.3454545,
                "end_time": 48.4454545,
                "pitch": 48,
                "velocity": 40,
                "duration": 0.1,
                "tempo": 120.0
            },
            {
                "start_time": 43.9295455,
                "end_time": 48.4840909,
                "pitch": 49,
                "velocity": 40,
                "duration": 4.5545455,
                "tempo": 120.0
            },
            {
                "start_time": 48.0795455,
                "end_time": 48.5840909,
                "pitch": 51,
                "velocity": 40,
                "duration": 0.5045455,
                "tempo": 120.0
            },
            {
                "start_time": 48.4840909,
                "end_time": 48.5840909,
                "pitch": 51,
                "velocity": 40,
                "duration": 0.1,
                "tempo": 120.0
            },
            {
                "start_time": 44.4704545,
                "end_time": 50.1886364,
                "pitch": 53,
                "velocity": 40,
                "duration": 5.7181818,
                "tempo": 120.0
            },
            {
                "start_time": 48.7568182,
                "end_time": 50.1886364,
                "pitch": 53,
                "velocity": 40,
                "duration": 1.4318182,
                "tempo": 120.0
            },
            {
                "start_time": 41.6477273,
                "end_time": 50.225,
                "pitch": 66,
                "velocity": 40,
                "duration": 8.5772727,
                "tempo": 120.0
            },
            {
                "start_time": 50.225,
                "end_time": 50.4613636,
                "pitch": 55,
                "velocity": 40,
                "duration": 0.2363636,
                "tempo": 120.0
            },
            {
                "start_time": 50.4977273,
                "end_time": 50.5954545,
                "pitch": 55,
                "velocity": 40,
                "duration": 0.0977273,
                "tempo": 120.0
            },
            {
                "start_time": 50.6295455,
                "end_time": 50.8613636,
                "pitch": 56,
                "velocity": 40,
                "duration": 0.2318182,
                "tempo": 120.0
            },
            {
                "start_time": 42.3204545,
                "end_time": 50.8954545,
                "pitch": 58,
                "velocity": 40,
                "duration": 8.575,
                "tempo": 120.0
            },
            {
                "start_time": 43.3977273,
                "end_time": 51.5681818,
                "pitch": 0,
                "velocity": 40,
                "duration": 8.1704545,
                "tempo": 120.0
            },
            {
                "start_time": 50.8954545,
                "end_time": 51.5681818,
                "pitch": 55,
                "velocity": 40,
                "duration": 0.6727273,
                "tempo": 120.0
            },
            {
                "start_time": 51.5681818,
                "end_time": 51.65,
                "pitch": 55,
                "velocity": 40,
                "duration": 0.0818182,
                "tempo": 120.0
            },
            {
                "start_time": 43.4818182,
                "end_time": 51.65,
                "pitch": 67,
                "velocity": 40,
                "duration": 8.1681818,
                "tempo": 120.0
            },
            {
                "start_time": 51.5681818,
                "end_time": 51.7681818,
                "pitch": 0,
                "velocity": 40,
                "duration": 0.2,
                "tempo": 120.0
            },
            {
                "start_time": 51.65,
                "end_time": 51.7681818,
                "pitch": 55,
                "velocity": 40,
                "duration": 0.1181818,
                "tempo": 120.0
            },
            {
                "start_time": 51.7681818,
                "end_time": 51.8522727,
                "pitch": 55,
                "velocity": 40,
                "duration": 0.0840909,
                "tempo": 120.0
            },
            {
                "start_time": 51.65,
                "end_time": 51.8522727,
                "pitch": 67,
                "velocity": 40,
                "duration": 0.2022727,
                "tempo": 120.0
            },
            {
                "start_time": 51.7681818,
                "end_time": 51.9681818,
                "pitch": 0,
                "velocity": 40,
                "duration": 0.2,
                "tempo": 120.0
            },
            {
                "start_time": 51.8522727,
                "end_time": 51.9681818,
                "pitch": 55,
                "velocity": 40,
                "duration": 0.1159091,
                "tempo": 120.0
            },
            {
                "start_time": 51.9681818,
                "end_time": 52.0522727,
                "pitch": 55,
                "velocity": 40,
                "duration": 0.0840909,
                "tempo": 120.0
            },
            {
                "start_time": 51.8522727,
                "end_time": 52.0522727,
                "pitch": 67,
                "velocity": 40,
                "duration": 0.2,
                "tempo": 120.0
            },
            {
                "start_time": 51.9681818,
                "end_time": 52.1727273,
                "pitch": 0,
                "velocity": 40,
                "duration": 0.2045455,
                "tempo": 120.0
            },
            {
                "start_time": 52.0522727,
                "end_time": 52.1727273,
                "pitch": 55,
                "velocity": 40,
                "duration": 0.1204545,
                "tempo": 120.0
            },
            {
                "start_time": 52.1727273,
                "end_time": 52.2068182,
                "pitch": 55,
                "velocity": 40,
                "duration": 0.0340909,
                "tempo": 120.0
            },
            {
                "start_time": 52.3795455,
                "end_time": 52.6090909,
                "pitch": 55,
                "velocity": 40,
                "duration": 0.2295455,
                "tempo": 120.0
            },
            {
                "start_time": 52.6431818,
                "end_time": 52.7386364,
                "pitch": 55,
                "velocity": 40,
                "duration": 0.0954545,
                "tempo": 120.0
            },
            {
                "start_time": 52.7727273,
                "end_time": 53.0113636,
                "pitch": 56,
                "velocity": 40,
                "duration": 0.2386364,
                "tempo": 120.0
            },
            {
                "start_time": 50.8954545,
                "end_time": 53.0477273,
                "pitch": 58,
                "velocity": 40,
                "duration": 2.1522727,
                "tempo": 120.0
            },
            {
                "start_time": 52.1727273,
                "end_time": 53.7113636,
                "pitch": 0,
                "velocity": 40,
                "duration": 1.5386364,
                "tempo": 120.0
            },
            {
                "start_time": 53.0477273,
                "end_time": 53.7113636,
                "pitch": 55,
                "velocity": 40,
                "duration": 0.6636364,
                "tempo": 120.0
            },
            {
                "start_time": 53.7113636,
                "end_time": 53.7977273,
                "pitch": 55,
                "velocity": 40,
                "duration": 0.0863636,
                "tempo": 120.0
            },
            {
                "start_time": 52.0522727,
                "end_time": 53.7977273,
                "pitch": 67,
                "velocity": 40,
                "duration": 1.7454545,
                "tempo": 120.0
            },
            {
                "start_time": 53.7113636,
                "end_time": 53.9181818,
                "pitch": 0,
                "velocity": 40,
                "duration": 0.2068182,
                "tempo": 120.0
            },
            {
                "start_time": 53.7977273,
                "end_time": 53.9181818,
                "pitch": 55,
                "velocity": 40,
                "duration": 0.1204545,
                "tempo": 120.0
            },
            {
                "start_time": 53.9181818,
                "end_time": 54.0045455,
                "pitch": 55,
                "velocity": 40,
                "duration": 0.0863636,
                "tempo": 120.0
            },
            {
                "start_time": 53.7977273,
                "end_time": 54.0045455,
                "pitch": 67,
                "velocity": 40,
                "duration": 0.2068182,
                "tempo": 120.0
            },
            {
                "start_time": 53.9181818,
                "end_time": 54.1227273,
                "pitch": 0,
                "velocity": 40,
                "duration": 0.2045455,
                "tempo": 120.0
            },
            {
                "start_time": 54.0045455,
                "end_time": 54.1227273,
                "pitch": 55,
                "velocity": 40,
                "duration": 0.1181818,
                "tempo": 120.0
            },
            {
                "start_time": 54.1227273,
                "end_time": 54.2045455,
                "pitch": 55,
                "velocity": 40,
                "duration": 0.0818182,
                "tempo": 120.0
            },
            {
                "start_time": 54.0045455,
                "end_time": 54.2045455,
                "pitch": 67,
                "velocity": 40,
                "duration": 0.2,
                "tempo": 120.0
            },
            {
                "start_time": 54.1227273,
                "end_time": 54.3227273,
                "pitch": 0,
                "velocity": 40,
                "duration": 0.2,
                "tempo": 120.0
            },
            {
                "start_time": 54.2045455,
                "end_time": 54.3227273,
                "pitch": 55,
                "velocity": 40,
                "duration": 0.1181818,
                "tempo": 120.0
            },
            {
                "start_time": 54.3227273,
                "end_time": 54.3568182,
                "pitch": 55,
                "velocity": 40,
                "duration": 0.0340909,
                "tempo": 120.0
            },
            {
                "start_time": 54.5227273,
                "end_time": 54.75,
                "pitch": 55,
                "velocity": 40,
                "duration": 0.2272727,
                "tempo": 120.0
            },
            {
                "start_time": 54.7840909,
                "end_time": 54.8840909,
                "pitch": 55,
                "velocity": 40,
                "duration": 0.1,
                "tempo": 120.0
            },
            {
                "start_time": 54.9227273,
                "end_time": 55.1590909,
                "pitch": 56,
                "velocity": 40,
                "duration": 0.2363636,
                "tempo": 120.0
            },
            {
                "start_time": 53.0477273,
                "end_time": 55.1954545,
                "pitch": 58,
                "velocity": 40,
                "duration": 2.1477273,
                "tempo": 120.0
            },
            {
                "start_time": 54.3227273,
                "end_time": 55.8613636,
                "pitch": 0,
                "velocity": 40,
                "duration": 1.5386364,
                "tempo": 120.0
            },
            {
                "start_time": 55.1954545,
                "end_time": 55.8613636,
                "pitch": 55,
                "velocity": 40,
                "duration": 0.6659091,
                "tempo": 120.0
            },
            {
                "start_time": 55.8613636,
                "end_time": 55.9454545,
                "pitch": 55,
                "velocity": 40,
                "duration": 0.0840909,
                "tempo": 120.0
            },
            {
                "start_time": 54.2045455,
                "end_time": 55.9454545,
                "pitch": 67,
                "velocity": 40,
                "duration": 1.7409091,
                "tempo": 120.0
            },
            {
                "start_time": 55.8613636,
                "end_time": 56.0613636,
                "pitch": 0,
                "velocity": 40,
                "duration": 0.2,
                "tempo": 120.0
            },
            {
                "start_time": 55.9454545,
                "end_time": 56.0613636,
                "pitch": 55,
                "velocity": 40,
                "duration": 0.1159091,
                "tempo": 120.0
            },
            {
                "start_time": 56.0613636,
                "end_time": 56.0954545,
                "pitch": 55,
                "velocity": 40,
                "duration": 0.0340909,
                "tempo": 120.0
            },
            {
                "start_time": 55.9454545,
                "end_time": 56.1318182,
                "pitch": 67,
                "velocity": 40,
                "duration": 0.1863636,
                "tempo": 120.0
            },
            {
                "start_time": 56.1318182,
                "end_time": 56.6318182,
                "pitch": 56,
                "velocity": 40,
                "duration": 0.5,
                "tempo": 120.0
            },
            {
                "start_time": 56.8,
                "end_time": 56.9,
                "pitch": 48,
                "velocity": 40,
                "duration": 0.1,
                "tempo": 120.0
            },
            {
                "start_time": 56.9340909,
                "end_time": 57.0318182,
                "pitch": 48,
                "velocity": 40,
                "duration": 0.0977273,
                "tempo": 120.0
            },
            {
                "start_time": 48.4840909,
                "end_time": 57.0681818,
                "pitch": 49,
                "velocity": 40,
                "duration": 8.5840909,
                "tempo": 120.0
            },
            {
                "start_time": 48.7568182,
                "end_time": 57.1659091,
                "pitch": 51,
                "velocity": 40,
                "duration": 8.4090909,
                "tempo": 120.0
            },
            {
                "start_time": 57.0681818,
                "end_time": 57.1659091,
                "pitch": 51,
                "velocity": 40,
                "duration": 0.0977273,
                "tempo": 120.0
            },
            {
                "start_time": 57.3363636,
                "end_time": 58.7704545,
                "pitch": 53,
                "velocity": 40,
                "duration": 1.4340909,
                "tempo": 120.0
            },
            {
                "start_time": 50.225,
                "end_time": 58.8045455,
                "pitch": 66,
                "velocity": 40,
                "duration": 8.5795455,
                "tempo": 120.0
            },
            {
                "start_time": 55.1954545,
                "end_time": 59.1704545,
                "pitch": 58,
                "velocity": 40,
                "duration": 3.975,
                "tempo": 120.0
            },
            {
                "start_time": 58.8045455,
                "end_time": 59.1704545,
                "pitch": 58,
                "velocity": 40,
                "duration": 0.3659091,
                "tempo": 120.0
            },
            {
                "start_time": 59.2068182,
                "end_time": 59.4454545,
                "pitch": 58,
                "velocity": 40,
                "duration": 0.2386364,
                "tempo": 120.0
            },
            {
                "start_time": 56.0613636,
                "end_time": 60.15,
                "pitch": 0,
                "velocity": 40,
                "duration": 4.0886364,
                "tempo": 120.0
            },
            {
                "start_time": 59.4818182,
                "end_time": 60.15,
                "pitch": 56,
                "velocity": 40,
                "duration": 0.6681818,
                "tempo": 120.0
            },
            {
                "start_time": 60.15,
                "end_time": 60.2295455,
                "pitch": 55,
                "velocity": 40,
                "duration": 0.0795455,
                "tempo": 120.0
            },
            {
                "start_time": 56.1318182,
                "end_time": 60.2295455,
                "pitch": 67,
                "velocity": 40,
                "duration": 4.0977273,
                "tempo": 120.0
            },
            {
                "start_time": 60.2295455,
                "end_time": 60.3431818,
                "pitch": 55,
                "velocity": 40,
                "duration": 0.1136364,
                "tempo": 120.0
            },
            {
                "start_time": 60.15,
                "end_time": 60.3454545,
                "pitch": 0,
                "velocity": 40,
                "duration": 0.1954545,
                "tempo": 120.0
            },
            {
                "start_time": 60.3431818,
                "end_time": 60.3454545,
                "pitch": 0,
                "velocity": 40,
                "duration": 0.0022727,
                "tempo": 120.0
            },
            {
                "start_time": 60.3454545,
                "end_time": 60.4272727,
                "pitch": 55,
                "velocity": 40,
                "duration": 0.0818182,
                "tempo": 120.0
            },
            {
                "start_time": 60.2295455,
                "end_time": 60.4272727,
                "pitch": 67,
                "velocity": 40,
                "duration": 0.1977273,
                "tempo": 120.0
            },
            {
                "start_time": 60.4272727,
                "end_time": 60.5090909,
                "pitch": 55,
                "velocity": 40,
                "duration": 0.0818182,
                "tempo": 120.0
            },
            {
                "start_time": 57.3363636,
                "end_time": 61.1704545,
                "pitch": 51,
                "velocity": 40,
                "duration": 3.8340909,
                "tempo": 120.0
            },
            {
                "start_time": 60.5431818,
                "end_time": 61.1704545,
                "pitch": 51,
                "velocity": 40,
                "duration": 0.6272727,
                "tempo": 120.0
            },
            {
                "start_time": 61.2045455,
                "end_time": 61.5886364,
                "pitch": 48,
                "velocity": 40,
                "duration": 0.3840909,
                "tempo": 120.0
            },
            {
                "start_time": 61.6272727,
                "end_time": 63.8636364,
                "pitch": 52,
                "velocity": 40,
                "duration": 2.2363636,
                "tempo": 120.0
            }
        ],
        "Clarinet": [
            {
                "start_time": 65.2295455,
                "end_time": 65.3318182,
                "pitch": 65,
                "velocity": 32,
                "duration": 0.1022727,
                "tempo": 120.0
            },
            {
                "start_time": 65.5022727,
                "end_time": 65.6045455,
                "pitch": 67,
                "velocity": 32,
                "duration": 0.1022727,
                "tempo": 120.0
            },
            {
                "start_time": 65.7727273,
                "end_time": 65.8727273,
                "pitch": 67,
                "velocity": 32,
                "duration": 0.1,
                "tempo": 120.0
            },
            {
                "start_time": 66.0409091,
                "end_time": 66.1409091,
                "pitch": 68,
                "velocity": 32,
                "duration": 0.1,
                "tempo": 120.0
            },
            {
                "start_time": 66.175,
                "end_time": 67.6113636,
                "pitch": 72,
                "velocity": 32,
                "duration": 1.4363636,
                "tempo": 120.0
            },
            {
                "start_time": 67.6454545,
                "end_time": 68.0113636,
                "pitch": 75,
                "velocity": 32,
                "duration": 0.3659091,
                "tempo": 120.0
            },
            {
                "start_time": 68.0454545,
                "end_time": 68.2840909,
                "pitch": 73,
                "velocity": 32,
                "duration": 0.2386364,
                "tempo": 120.0
            },
            {
                "start_time": 68.3204545,
                "end_time": 69.8954545,
                "pitch": 70,
                "velocity": 32,
                "duration": 1.575,
                "tempo": 120.0
            },
            {
                "start_time": 70.4545455,
                "end_time": 71.9045455,
                "pitch": 70,
                "velocity": 32,
                "duration": 1.45,
                "tempo": 120.0
            },
            {
                "start_time": 66.175,
                "end_time": 71.9386364,
                "pitch": 51,
                "velocity": 32,
                "duration": 5.7636364,
                "tempo": 120.0
            },
            {
                "start_time": 71.9386364,
                "end_time": 72.3136364,
                "pitch": 73,
                "velocity": 32,
                "duration": 0.375,
                "tempo": 120.0
            },
            {
                "start_time": 72.3477273,
                "end_time": 72.7181818,
                "pitch": 73,
                "velocity": 32,
                "duration": 0.3704545,
                "tempo": 120.0
            },
            {
                "start_time": 68.3204545,
                "end_time": 72.7522727,
                "pitch": 76,
                "velocity": 32,
                "duration": 4.4318182,
                "tempo": 120.0
            },
            {
                "start_time": 72.7522727,
                "end_time": 73.6477273,
                "pitch": 70,
                "velocity": 32,
                "duration": 0.8954545,
                "tempo": 120.0
            },
            {
                "start_time": 73.6818182,
                "end_time": 74.725,
                "pitch": 70,
                "velocity": 32,
                "duration": 1.0431818,
                "tempo": 120.0
            },
            {
                "start_time": 74.7590909,
                "end_time": 76.2045455,
                "pitch": 68,
                "velocity": 32,
                "duration": 1.4454545,
                "tempo": 120.0
            },
            {
                "start_time": 67.6454545,
                "end_time": 76.6045455,
                "pitch": 72,
                "velocity": 32,
                "duration": 8.9590909,
                "tempo": 120.0
            },
            {
                "start_time": 76.2386364,
                "end_time": 76.6045455,
                "pitch": 72,
                "velocity": 32,
                "duration": 0.3659091,
                "tempo": 120.0
            },
            {
                "start_time": 72.7522727,
                "end_time": 76.6386364,
                "pitch": 76,
                "velocity": 32,
                "duration": 3.8863636,
                "tempo": 120.0
            },
            {
                "start_time": 76.6386364,
                "end_time": 76.8681818,
                "pitch": 70,
                "velocity": 32,
                "duration": 0.2295455,
                "tempo": 120.0
            },
            {
                "start_time": 76.9,
                "end_time": 77.9431818,
                "pitch": 70,
                "velocity": 32,
                "duration": 1.0431818,
                "tempo": 120.0
            },
            {
                "start_time": 77.9772727,
                "end_time": 79.0204545,
                "pitch": 68,
                "velocity": 32,
                "duration": 1.0431818,
                "tempo": 120.0
            },
            {
                "start_time": 82.4113636,
                "end_time": 82.5159091,
                "pitch": 63,
                "velocity": 32,
                "duration": 0.1045455,
                "tempo": 120.0
            },
            {
                "start_time": 65.5022727,
                "end_time": 82.6818182,
                "pitch": 78,
                "velocity": 32,
                "duration": 17.1795455,
                "tempo": 120.0
            },
            {
                "start_time": 82.6818182,
                "end_time": 82.7795455,
                "pitch": 67,
                "velocity": 32,
                "duration": 0.0977273,
                "tempo": 120.0
            },
            {
                "start_time": 82.9454545,
                "end_time": 83.0454545,
                "pitch": 67,
                "velocity": 32,
                "duration": 0.1,
                "tempo": 120.0
            },
            {
                "start_time": 83.2136364,
                "end_time": 83.3136364,
                "pitch": 68,
                "velocity": 32,
                "duration": 0.1,
                "tempo": 120.0
            },
            {
                "start_time": 71.9386364,
                "end_time": 83.3477273,
                "pitch": 51,
                "velocity": 32,
                "duration": 11.4090909,
                "tempo": 120.0
            },
            {
                "start_time": 83.3477273,
                "end_time": 84.7931818,
                "pitch": 72,
                "velocity": 32,
                "duration": 1.4454545,
                "tempo": 120.0
            },
            {
                "start_time": 68.0454545,
                "end_time": 85.2,
                "pitch": 75,
                "velocity": 32,
                "duration": 17.1545455,
                "tempo": 120.0
            },
            {
                "start_time": 84.8272727,
                "end_time": 85.2,
                "pitch": 75,
                "velocity": 32,
                "duration": 0.3727273,
                "tempo": 120.0
            },
            {
                "start_time": 85.2340909,
                "end_time": 85.4681818,
                "pitch": 73,
                "velocity": 32,
                "duration": 0.2340909,
                "tempo": 120.0
            },
            {
                "start_time": 76.6386364,
                "end_time": 85.5022727,
                "pitch": 76,
                "velocity": 32,
                "duration": 8.8636364,
                "tempo": 120.0
            },
            {
                "start_time": 85.5022727,
                "end_time": 87.0772727,
                "pitch": 70,
                "velocity": 32,
                "duration": 1.575,
                "tempo": 120.0
            },
            {
                "start_time": 87.6477273,
                "end_time": 89.0954545,
                "pitch": 70,
                "velocity": 32,
                "duration": 1.4477273,
                "tempo": 120.0
            },
            {
                "start_time": 83.3477273,
                "end_time": 89.1295455,
                "pitch": 51,
                "velocity": 32,
                "duration": 5.7818182,
                "tempo": 120.0
            },
            {
                "start_time": 89.1295455,
                "end_time": 89.4909091,
                "pitch": 73,
                "velocity": 32,
                "duration": 0.3613636,
                "tempo": 120.0
            },
            {
                "start_time": 89.525,
                "end_time": 89.7568182,
                "pitch": 73,
                "velocity": 32,
                "duration": 0.2318182,
                "tempo": 120.0
            },
            {
                "start_time": 85.5022727,
                "end_time": 89.7909091,
                "pitch": 76,
                "velocity": 32,
                "duration": 4.2886364,
                "tempo": 120.0
            },
            {
                "start_time": 89.7909091,
                "end_time": 90.4272727,
                "pitch": 70,
                "velocity": 32,
                "duration": 0.6363636,
                "tempo": 120.0
            },
            {
                "start_time": 89.1295455,
                "end_time": 90.4613636,
                "pitch": 51,
                "velocity": 32,
                "duration": 1.3318182,
                "tempo": 120.0
            },
            {
                "start_time": 84.8272727,
                "end_time": 90.6954545,
                "pitch": 72,
                "velocity": 32,
                "duration": 5.8681818,
                "tempo": 120.0
            },
            {
                "start_time": 90.4613636,
                "end_time": 90.6954545,
                "pitch": 72,
                "velocity": 32,
                "duration": 0.2340909,
                "tempo": 120.0
            },
            {
                "start_time": 89.7909091,
                "end_time": 90.7295455,
                "pitch": 76,
                "velocity": 32,
                "duration": 0.9386364,
                "tempo": 120.0
            },
            {
                "start_time": 90.7295455,
                "end_time": 91.1,
                "pitch": 68,
                "velocity": 32,
                "duration": 0.3704545,
                "tempo": 120.0
            },
            {
                "start_time": 91.2727273,
                "end_time": 91.5113636,
                "pitch": 68,
                "velocity": 32,
                "duration": 0.2386364,
                "tempo": 120.0
            },
            {
                "start_time": 91.5454545,
                "end_time": 91.6454545,
                "pitch": 67,
                "velocity": 32,
                "duration": 0.1,
                "tempo": 120.0
            },
            {
                "start_time": 76.2386364,
                "end_time": 91.6795455,
                "pitch": 33,
                "velocity": 32,
                "duration": 15.4409091,
                "tempo": 120.0
            },
            {
                "start_time": 91.6795455,
                "end_time": 91.9136364,
                "pitch": 72,
                "velocity": 32,
                "duration": 0.2340909,
                "tempo": 120.0
            },
            {
                "start_time": 91.9477273,
                "end_time": 93.3795455,
                "pitch": 77,
                "velocity": 32,
                "duration": 1.4318182,
                "tempo": 120.0
            },
            {
                "start_time": 93.4136364,
                "end_time": 93.6522727,
                "pitch": 77,
                "velocity": 32,
                "duration": 0.2386364,
                "tempo": 120.0
            },
            {
                "start_time": 85.2340909,
                "end_time": 93.925,
                "pitch": 75,
                "velocity": 32,
                "duration": 8.6909091,
                "tempo": 120.0
            },
            {
                "start_time": 93.6863636,
                "end_time": 93.925,
                "pitch": 75,
                "velocity": 32,
                "duration": 0.2386364,
                "tempo": 120.0
            },
            {
                "start_time": 93.9568182,
                "end_time": 94.7795455,
                "pitch": 79,
                "velocity": 32,
                "duration": 0.8227273,
                "tempo": 120.0
            },
            {
                "start_time": 94.7795455,
                "end_time": 94.8954545,
                "pitch": 79,
                "velocity": 32,
                "duration": 0.1159091,
                "tempo": 120.0
            },
            {
                "start_time": 94.8954545,
                "end_time": 94.9977273,
                "pitch": 77,
                "velocity": 32,
                "duration": 0.1022727,
                "tempo": 120.0
            },
            {
                "start_time": 95.0318182,
                "end_time": 95.2636364,
                "pitch": 75,
                "velocity": 32,
                "duration": 0.2318182,
                "tempo": 120.0
            },
            {
                "start_time": 95.2977273,
                "end_time": 95.6659091,
                "pitch": 82,
                "velocity": 32,
                "duration": 0.3681818,
                "tempo": 120.0
            },
            {
                "start_time": 95.7,
                "end_time": 96.0681818,
                "pitch": 82,
                "velocity": 32,
                "duration": 0.3681818,
                "tempo": 120.0
            },
            {
                "start_time": 96.1022727,
                "end_time": 96.2022727,
                "pitch": 80,
                "velocity": 32,
                "duration": 0.1,
                "tempo": 120.0
            },
            {
                "start_time": 94.7795455,
                "end_time": 96.2363636,
                "pitch": 2,
                "velocity": 32,
                "duration": 1.4568182,
                "tempo": 120.0
            },
            {
                "start_time": 96.2363636,
                "end_time": 99.9636364,
                "pitch": 77,
                "velocity": 32,
                "duration": 3.7272727,
                "tempo": 120.0
            }
        ],
        "Acoustic Bass": [
            {
                "start_time": 0.0045455,
                "end_time": 0.1181818,
                "pitch": 41,
                "velocity": 64,
                "duration": 0.1136364,
                "tempo": 120.0
            },
            {
                "start_time": 0.1340909,
                "end_time": 0.25,
                "pitch": 53,
                "velocity": 64,
                "duration": 0.1159091,
                "tempo": 120.0
            },
            {
                "start_time": 0.4022727,
                "end_time": 0.5181818,
                "pitch": 53,
                "velocity": 64,
                "duration": 0.1159091,
                "tempo": 120.0
            },
            {
                "start_time": 0.7136364,
                "end_time": 0.8704545,
                "pitch": 41,
                "velocity": 64,
                "duration": 0.1568182,
                "tempo": 120.0
            },
            {
                "start_time": 1.075,
                "end_time": 1.2318182,
                "pitch": 41,
                "velocity": 64,
                "duration": 0.1568182,
                "tempo": 120.0
            },
            {
                "start_time": 1.2545455,
                "end_time": 1.4113636,
                "pitch": 41,
                "velocity": 64,
                "duration": 0.1568182,
                "tempo": 120.0
            },
            {
                "start_time": 2.6863636,
                "end_time": 2.8409091,
                "pitch": 39,
                "velocity": 64,
                "duration": 0.1545455,
                "tempo": 120.0
            },
            {
                "start_time": 2.8636364,
                "end_time": 3.0181818,
                "pitch": 51,
                "velocity": 64,
                "duration": 0.1545455,
                "tempo": 120.0
            },
            {
                "start_time": 3.2181818,
                "end_time": 3.3727273,
                "pitch": 51,
                "velocity": 64,
                "duration": 0.1545455,
                "tempo": 120.0
            },
            {
                "start_time": 3.575,
                "end_time": 3.7318182,
                "pitch": 39,
                "velocity": 64,
                "duration": 0.1568182,
                "tempo": 120.0
            },
            {
                "start_time": 3.9363636,
                "end_time": 4.0931818,
                "pitch": 39,
                "velocity": 64,
                "duration": 0.1568182,
                "tempo": 120.0
            },
            {
                "start_time": 4.1159091,
                "end_time": 4.2704545,
                "pitch": 39,
                "velocity": 64,
                "duration": 0.1545455,
                "tempo": 120.0
            },
            {
                "start_time": 5.5340909,
                "end_time": 5.6909091,
                "pitch": 39,
                "velocity": 64,
                "duration": 0.1568182,
                "tempo": 120.0
            },
            {
                "start_time": 5.7136364,
                "end_time": 5.8727273,
                "pitch": 49,
                "velocity": 64,
                "duration": 0.1590909,
                "tempo": 120.0
            },
            {
                "start_time": 6.075,
                "end_time": 6.2318182,
                "pitch": 49,
                "velocity": 64,
                "duration": 0.1568182,
                "tempo": 120.0
            },
            {
                "start_time": 6.4340909,
                "end_time": 6.5886364,
                "pitch": 37,
                "velocity": 64,
                "duration": 0.1545455,
                "tempo": 120.0
            },
            {
                "start_time": 6.7863636,
                "end_time": 6.9431818,
                "pitch": 37,
                "velocity": 64,
                "duration": 0.1568182,
                "tempo": 120.0
            },
            {
                "start_time": 6.9636364,
                "end_time": 7.1227273,
                "pitch": 37,
                "velocity": 64,
                "duration": 0.1590909,
                "tempo": 120.0
            },
            {
                "start_time": 8.3954545,
                "end_time": 8.5522727,
                "pitch": 37,
                "velocity": 64,
                "duration": 0.1568182,
                "tempo": 120.0
            },
            {
                "start_time": 8.575,
                "end_time": 8.7318182,
                "pitch": 51,
                "velocity": 64,
                "duration": 0.1568182,
                "tempo": 120.0
            },
            {
                "start_time": 8.9363636,
                "end_time": 9.0931818,
                "pitch": 51,
                "velocity": 64,
                "duration": 0.1568182,
                "tempo": 120.0
            },
            {
                "start_time": 9.2909091,
                "end_time": 9.4431818,
                "pitch": 39,
                "velocity": 64,
                "duration": 0.1522727,
                "tempo": 120.0
            },
            {
                "start_time": 9.6386364,
                "end_time": 9.7909091,
                "pitch": 39,
                "velocity": 64,
                "duration": 0.1522727,
                "tempo": 120.0
            },
            {
                "start_time": 9.8136364,
                "end_time": 9.9727273,
                "pitch": 39,
                "velocity": 64,
                "duration": 0.1590909,
                "tempo": 120.0
            },
            {
                "start_time": 9.9954545,
                "end_time": 10.1568182,
                "pitch": 51,
                "velocity": 64,
                "duration": 0.1613636,
                "tempo": 120.0
            },
            {
                "start_time": 2.6863636,
                "end_time": 10.3409091,
                "pitch": 41,
                "velocity": 64,
                "duration": 7.6545455,
                "tempo": 120.0
            },
            {
                "start_time": 10.1795455,
                "end_time": 10.3409091,
                "pitch": 41,
                "velocity": 64,
                "duration": 0.1613636,
                "tempo": 120.0
            },
            {
                "start_time": 10.3636364,
                "end_time": 10.5227273,
                "pitch": 53,
                "velocity": 64,
                "duration": 0.1590909,
                "tempo": 120.0
            },
            {
                "start_time": 10.5477273,
                "end_time": 10.7022727,
                "pitch": 43,
                "velocity": 64,
                "duration": 0.1545455,
                "tempo": 120.0
            },
            {
                "start_time": 10.725,
                "end_time": 10.8795455,
                "pitch": 55,
                "velocity": 64,
                "duration": 0.1545455,
                "tempo": 120.0
            },
            {
                "start_time": 0.0045455,
                "end_time": 10.9022727,
                "pitch": 0,
                "velocity": 64,
                "duration": 10.8977273,
                "tempo": 120.0
            },
            {
                "start_time": 10.1795455,
                "end_time": 11.0568182,
                "pitch": 39,
                "velocity": 64,
                "duration": 0.8772727,
                "tempo": 120.0
            },
            {
                "start_time": 10.9022727,
                "end_time": 11.0568182,
                "pitch": 39,
                "velocity": 64,
                "duration": 0.1545455,
                "tempo": 120.0
            },
            {
                "start_time": 11.0795455,
                "end_time": 11.2340909,
                "pitch": 51,
                "velocity": 64,
                "duration": 0.1545455,
                "tempo": 120.0
            },
            {
                "start_time": 11.2568182,
                "end_time": 11.4113636,
                "pitch": 41,
                "velocity": 64,
                "duration": 0.1545455,
                "tempo": 120.0
            },
            {
                "start_time": 11.4340909,
                "end_time": 11.5886364,
                "pitch": 53,
                "velocity": 64,
                "duration": 0.1545455,
                "tempo": 120.0
            },
            {
                "start_time": 11.7886364,
                "end_time": 11.9431818,
                "pitch": 53,
                "velocity": 64,
                "duration": 0.1545455,
                "tempo": 120.0
            },
            {
                "start_time": 12.1454545,
                "end_time": 12.3022727,
                "pitch": 41,
                "velocity": 64,
                "duration": 0.1568182,
                "tempo": 120.0
            },
            {
                "start_time": 12.5068182,
                "end_time": 12.6636364,
                "pitch": 41,
                "velocity": 64,
                "duration": 0.1568182,
                "tempo": 120.0
            },
            {
                "start_time": 12.6863636,
                "end_time": 12.8409091,
                "pitch": 41,
                "velocity": 64,
                "duration": 0.1545455,
                "tempo": 120.0
            },
            {
                "start_time": 11.2568182,
                "end_time": 14.2613636,
                "pitch": 39,
                "velocity": 64,
                "duration": 3.0045455,
                "tempo": 120.0
            },
            {
                "start_time": 14.1045455,
                "end_time": 14.2613636,
                "pitch": 39,
                "velocity": 64,
                "duration": 0.1568182,
                "tempo": 120.0
            },
            {
                "start_time": 14.2840909,
                "end_time": 14.4431818,
                "pitch": 51,
                "velocity": 64,
                "duration": 0.1590909,
                "tempo": 120.0
            },
            {
                "start_time": 14.6454545,
                "end_time": 14.8022727,
                "pitch": 51,
                "velocity": 64,
                "duration": 0.1568182,
                "tempo": 120.0
            },
            {
                "start_time": 15.0045455,
                "end_time": 15.1590909,
                "pitch": 39,
                "velocity": 64,
                "duration": 0.1545455,
                "tempo": 120.0
            },
            {
                "start_time": 15.3590909,
                "end_time": 15.5136364,
                "pitch": 39,
                "velocity": 64,
                "duration": 0.1545455,
                "tempo": 120.0
            },
            {
                "start_time": 15.5363636,
                "end_time": 15.6931818,
                "pitch": 39,
                "velocity": 64,
                "duration": 0.1568182,
                "tempo": 120.0
            },
            {
                "start_time": 16.9659091,
                "end_time": 17.1204545,
                "pitch": 39,
                "velocity": 64,
                "duration": 0.1545455,
                "tempo": 120.0
            },
            {
                "start_time": 17.1431818,
                "end_time": 17.2977273,
                "pitch": 49,
                "velocity": 64,
                "duration": 0.1545455,
                "tempo": 120.0
            },
            {
                "start_time": 17.4977273,
                "end_time": 17.6522727,
                "pitch": 49,
                "velocity": 64,
                "duration": 0.1545455,
                "tempo": 120.0
            },
            {
                "start_time": 17.8545455,
                "end_time": 18.0136364,
                "pitch": 37,
                "velocity": 64,
                "duration": 0.1590909,
                "tempo": 120.0
            },
            {
                "start_time": 18.2159091,
                "end_time": 18.3727273,
                "pitch": 37,
                "velocity": 64,
                "duration": 0.1568182,
                "tempo": 120.0
            },
            {
                "start_time": 18.3954545,
                "end_time": 18.5545455,
                "pitch": 37,
                "velocity": 64,
                "duration": 0.1590909,
                "tempo": 120.0
            },
            {
                "start_time": 19.8159091,
                "end_time": 19.9727273,
                "pitch": 37,
                "velocity": 64,
                "duration": 0.1568182,
                "tempo": 120.0
            },
            {
                "start_time": 19.9954545,
                "end_time": 20.1522727,
                "pitch": 51,
                "velocity": 64,
                "duration": 0.1568182,
                "tempo": 120.0
            },
            {
                "start_time": 20.3545455,
                "end_time": 20.5136364,
                "pitch": 51,
                "velocity": 64,
                "duration": 0.1590909,
                "tempo": 120.0
            },
            {
                "start_time": 20.7136364,
                "end_time": 20.8681818,
                "pitch": 39,
                "velocity": 64,
                "duration": 0.1545455,
                "tempo": 120.0
            },
            {
                "start_time": 21.0681818,
                "end_time": 21.2227273,
                "pitch": 39,
                "velocity": 64,
                "duration": 0.1545455,
                "tempo": 120.0
            },
            {
                "start_time": 21.2454545,
                "end_time": 21.4022727,
                "pitch": 39,
                "velocity": 64,
                "duration": 0.1568182,
                "tempo": 120.0
            },
            {
                "start_time": 21.425,
                "end_time": 21.5818182,
                "pitch": 51,
                "velocity": 64,
                "duration": 0.1568182,
                "tempo": 120.0
            },
            {
                "start_time": 14.1045455,
                "end_time": 21.7636364,
                "pitch": 41,
                "velocity": 64,
                "duration": 7.6590909,
                "tempo": 120.0
            },
            {
                "start_time": 21.6068182,
                "end_time": 21.7636364,
                "pitch": 41,
                "velocity": 64,
                "duration": 0.1568182,
                "tempo": 120.0
            },
            {
                "start_time": 21.7863636,
                "end_time": 21.9431818,
                "pitch": 53,
                "velocity": 64,
                "duration": 0.1568182,
                "tempo": 120.0
            },
            {
                "start_time": 10.5477273,
                "end_time": 21.9659091,
                "pitch": 54,
                "velocity": 64,
                "duration": 11.4181818,
                "tempo": 120.0
            },
            {
                "start_time": 21.9659091,
                "end_time": 22.1204545,
                "pitch": 43,
                "velocity": 64,
                "duration": 0.1545455,
                "tempo": 120.0
            },
            {
                "start_time": 22.1431818,
                "end_time": 22.2977273,
                "pitch": 55,
                "velocity": 64,
                "duration": 0.1545455,
                "tempo": 120.0
            },
            {
                "start_time": 10.9022727,
                "end_time": 22.3204545,
                "pitch": 0,
                "velocity": 64,
                "duration": 11.4181818,
                "tempo": 120.0
            },
            {
                "start_time": 21.6068182,
                "end_time": 22.475,
                "pitch": 39,
                "velocity": 64,
                "duration": 0.8681818,
                "tempo": 120.0
            },
            {
                "start_time": 22.3204545,
                "end_time": 22.475,
                "pitch": 39,
                "velocity": 64,
                "duration": 0.1545455,
                "tempo": 120.0
            },
            {
                "start_time": 22.4977273,
                "end_time": 22.6522727,
                "pitch": 51,
                "velocity": 64,
                "duration": 0.1545455,
                "tempo": 120.0
            },
            {
                "start_time": 22.675,
                "end_time": 22.8318182,
                "pitch": 39,
                "velocity": 64,
                "duration": 0.1568182,
                "tempo": 120.0
            },
            {
                "start_time": 22.8568182,
                "end_time": 23.0136364,
                "pitch": 37,
                "velocity": 64,
                "duration": 0.1568182,
                "tempo": 120.0
            },
            {
                "start_time": 23.7522727,
                "end_time": 23.9068182,
                "pitch": 37,
                "velocity": 64,
                "duration": 0.1545455,
                "tempo": 120.0
            },
            {
                "start_time": 23.9295455,
                "end_time": 24.0477273,
                "pitch": 37,
                "velocity": 64,
                "duration": 0.1181818,
                "tempo": 120.0
            },
            {
                "start_time": 24.2,
                "end_time": 24.3159091,
                "pitch": 49,
                "velocity": 64,
                "duration": 0.1159091,
                "tempo": 120.0
            },
            {
                "start_time": 24.4659091,
                "end_time": 24.5840909,
                "pitch": 37,
                "velocity": 64,
                "duration": 0.1181818,
                "tempo": 120.0
            },
            {
                "start_time": 24.7340909,
                "end_time": 24.85,
                "pitch": 37,
                "velocity": 64,
                "duration": 0.1159091,
                "tempo": 120.0
            },
            {
                "start_time": 24.8681818,
                "end_time": 24.9840909,
                "pitch": 37,
                "velocity": 64,
                "duration": 0.1159091,
                "tempo": 120.0
            },
            {
                "start_time": 25.0022727,
                "end_time": 25.1181818,
                "pitch": 41,
                "velocity": 64,
                "duration": 0.1159091,
                "tempo": 120.0
            },
            {
                "start_time": 25.0022727,
                "end_time": 25.2545455,
                "pitch": 39,
                "velocity": 64,
                "duration": 0.2522727,
                "tempo": 120.0
            },
            {
                "start_time": 25.1340909,
                "end_time": 25.2545455,
                "pitch": 39,
                "velocity": 64,
                "duration": 0.1204545,
                "tempo": 120.0
            },
            {
                "start_time": 25.2704545,
                "end_time": 25.3909091,
                "pitch": 39,
                "velocity": 64,
                "duration": 0.1204545,
                "tempo": 120.0
            },
            {
                "start_time": 25.9386364,
                "end_time": 26.0568182,
                "pitch": 39,
                "velocity": 64,
                "duration": 0.1181818,
                "tempo": 120.0
            },
            {
                "start_time": 26.075,
                "end_time": 26.1954545,
                "pitch": 39,
                "velocity": 64,
                "duration": 0.1204545,
                "tempo": 120.0
            },
            {
                "start_time": 26.2136364,
                "end_time": 26.3318182,
                "pitch": 51,
                "velocity": 64,
                "duration": 0.1181818,
                "tempo": 120.0
            },
            {
                "start_time": 26.6045455,
                "end_time": 26.7159091,
                "pitch": 51,
                "velocity": 64,
                "duration": 0.1113636,
                "tempo": 120.0
            },
            {
                "start_time": 27.0,
                "end_time": 27.1159091,
                "pitch": 39,
                "velocity": 64,
                "duration": 0.1159091,
                "tempo": 120.0
            },
            {
                "start_time": 27.1318182,
                "end_time": 27.1340909,
                "pitch": 39,
                "velocity": 64,
                "duration": 0.0022727,
                "tempo": 120.0
            },
            {
                "start_time": 25.1340909,
                "end_time": 27.3954545,
                "pitch": 41,
                "velocity": 64,
                "duration": 2.2613636,
                "tempo": 120.0
            },
            {
                "start_time": 27.1340909,
                "end_time": 27.3954545,
                "pitch": 41,
                "velocity": 64,
                "duration": 0.2613636,
                "tempo": 120.0
            },
            {
                "start_time": 27.4136364,
                "end_time": 27.5363636,
                "pitch": 41,
                "velocity": 64,
                "duration": 0.1227273,
                "tempo": 120.0
            },
            {
                "start_time": 28.1636364,
                "end_time": 28.3022727,
                "pitch": 41,
                "velocity": 64,
                "duration": 0.1386364,
                "tempo": 120.0
            },
            {
                "start_time": 28.3227273,
                "end_time": 28.4590909,
                "pitch": 41,
                "velocity": 64,
                "duration": 0.1363636,
                "tempo": 120.0
            },
            {
                "start_time": 28.6363636,
                "end_time": 28.7545455,
                "pitch": 53,
                "velocity": 64,
                "duration": 0.1181818,
                "tempo": 120.0
            },
            {
                "start_time": 28.9045455,
                "end_time": 29.0227273,
                "pitch": 41,
                "velocity": 64,
                "duration": 0.1181818,
                "tempo": 120.0
            },
            {
                "start_time": 29.1727273,
                "end_time": 29.5568182,
                "pitch": 39,
                "velocity": 64,
                "duration": 0.3840909,
                "tempo": 120.0
            },
            {
                "start_time": 29.1727273,
                "end_time": 29.9568182,
                "pitch": 41,
                "velocity": 64,
                "duration": 0.7840909,
                "tempo": 120.0
            },
            {
                "start_time": 29.8431818,
                "end_time": 29.9568182,
                "pitch": 41,
                "velocity": 64,
                "duration": 0.1136364,
                "tempo": 120.0
            },
            {
                "start_time": 30.2363636,
                "end_time": 30.3545455,
                "pitch": 41,
                "velocity": 64,
                "duration": 0.1181818,
                "tempo": 120.0
            },
            {
                "start_time": 30.6477273,
                "end_time": 30.7636364,
                "pitch": 41,
                "velocity": 64,
                "duration": 0.1159091,
                "tempo": 120.0
            },
            {
                "start_time": 31.1795455,
                "end_time": 31.6909091,
                "pitch": 41,
                "velocity": 64,
                "duration": 0.5113636,
                "tempo": 120.0
            },
            {
                "start_time": 31.7068182,
                "end_time": 31.8227273,
                "pitch": 37,
                "velocity": 64,
                "duration": 0.1159091,
                "tempo": 120.0
            },
            {
                "start_time": 31.8409091,
                "end_time": 31.9590909,
                "pitch": 37,
                "velocity": 64,
                "duration": 0.1181818,
                "tempo": 120.0
            },
            {
                "start_time": 32.5272727,
                "end_time": 32.6454545,
                "pitch": 37,
                "velocity": 64,
                "duration": 0.1181818,
                "tempo": 120.0
            },
            {
                "start_time": 32.6636364,
                "end_time": 32.7795455,
                "pitch": 37,
                "velocity": 64,
                "duration": 0.1159091,
                "tempo": 120.0
            },
            {
                "start_time": 33.0636364,
                "end_time": 33.3159091,
                "pitch": 37,
                "velocity": 64,
                "duration": 0.2522727,
                "tempo": 120.0
            },
            {
                "start_time": 33.3340909,
                "end_time": 33.45,
                "pitch": 49,
                "velocity": 64,
                "duration": 0.1159091,
                "tempo": 120.0
            },
            {
                "start_time": 33.4681818,
                "end_time": 33.7181818,
                "pitch": 37,
                "velocity": 64,
                "duration": 0.25,
                "tempo": 120.0
            },
            {
                "start_time": 33.7340909,
                "end_time": 33.9818182,
                "pitch": 37,
                "velocity": 64,
                "duration": 0.2477273,
                "tempo": 120.0
            },
            {
                "start_time": 29.8431818,
                "end_time": 34.1136364,
                "pitch": 39,
                "velocity": 64,
                "duration": 4.2704545,
                "tempo": 120.0
            },
            {
                "start_time": 33.9977273,
                "end_time": 34.1136364,
                "pitch": 39,
                "velocity": 64,
                "duration": 0.1159091,
                "tempo": 120.0
            },
            {
                "start_time": 34.6636364,
                "end_time": 34.7840909,
                "pitch": 39,
                "velocity": 64,
                "duration": 0.1204545,
                "tempo": 120.0
            },
            {
                "start_time": 34.8,
                "end_time": 34.9204545,
                "pitch": 39,
                "velocity": 64,
                "duration": 0.1204545,
                "tempo": 120.0
            },
            {
                "start_time": 35.2113636,
                "end_time": 35.4613636,
                "pitch": 39,
                "velocity": 64,
                "duration": 0.25,
                "tempo": 120.0
            },
            {
                "start_time": 35.4795455,
                "end_time": 35.5954545,
                "pitch": 51,
                "velocity": 64,
                "duration": 0.1159091,
                "tempo": 120.0
            },
            {
                "start_time": 35.6136364,
                "end_time": 35.8613636,
                "pitch": 39,
                "velocity": 64,
                "duration": 0.2477273,
                "tempo": 120.0
            },
            {
                "start_time": 35.8795455,
                "end_time": 36.1318182,
                "pitch": 36,
                "velocity": 64,
                "duration": 0.2522727,
                "tempo": 120.0
            },
            {
                "start_time": 36.1477273,
                "end_time": 36.2659091,
                "pitch": 36,
                "velocity": 64,
                "duration": 0.1181818,
                "tempo": 120.0
            },
            {
                "start_time": 36.8136364,
                "end_time": 36.9272727,
                "pitch": 36,
                "velocity": 64,
                "duration": 0.1136364,
                "tempo": 120.0
            },
            {
                "start_time": 36.9454545,
                "end_time": 37.0590909,
                "pitch": 36,
                "velocity": 64,
                "duration": 0.1136364,
                "tempo": 120.0
            },
            {
                "start_time": 37.3568182,
                "end_time": 37.6113636,
                "pitch": 36,
                "velocity": 64,
                "duration": 0.2545455,
                "tempo": 120.0
            },
            {
                "start_time": 37.6295455,
                "end_time": 37.7431818,
                "pitch": 48,
                "velocity": 64,
                "duration": 0.1136364,
                "tempo": 120.0
            },
            {
                "start_time": 37.7590909,
                "end_time": 38.0068182,
                "pitch": 36,
                "velocity": 64,
                "duration": 0.2477273,
                "tempo": 120.0
            },
            {
                "start_time": 31.7068182,
                "end_time": 38.2772727,
                "pitch": 41,
                "velocity": 64,
                "duration": 6.5704545,
                "tempo": 120.0
            },
            {
                "start_time": 38.025,
                "end_time": 38.2772727,
                "pitch": 41,
                "velocity": 64,
                "duration": 0.2522727,
                "tempo": 120.0
            },
            {
                "start_time": 38.2931818,
                "end_time": 38.4136364,
                "pitch": 41,
                "velocity": 64,
                "duration": 0.1204545,
                "tempo": 120.0
            },
            {
                "start_time": 38.9659091,
                "end_time": 39.0818182,
                "pitch": 41,
                "velocity": 64,
                "duration": 0.1159091,
                "tempo": 120.0
            },
            {
                "start_time": 39.0977273,
                "end_time": 39.2136364,
                "pitch": 41,
                "velocity": 64,
                "duration": 0.1159091,
                "tempo": 120.0
            },
            {
                "start_time": 39.5,
                "end_time": 39.7545455,
                "pitch": 41,
                "velocity": 64,
                "duration": 0.2545455,
                "tempo": 120.0
            },
            {
                "start_time": 35.8795455,
                "end_time": 40.0272727,
                "pitch": 39,
                "velocity": 64,
                "duration": 4.1477273,
                "tempo": 120.0
            },
            {
                "start_time": 39.7727273,
                "end_time": 40.0272727,
                "pitch": 39,
                "velocity": 64,
                "duration": 0.2545455,
                "tempo": 120.0
            },
            {
                "start_time": 39.7727273,
                "end_time": 40.1590909,
                "pitch": 41,
                "velocity": 64,
                "duration": 0.3863636,
                "tempo": 120.0
            },
            {
                "start_time": 40.0431818,
                "end_time": 40.1590909,
                "pitch": 41,
                "velocity": 64,
                "duration": 0.1159091,
                "tempo": 120.0
            },
            {
                "start_time": 40.1772727,
                "end_time": 40.425,
                "pitch": 37,
                "velocity": 64,
                "duration": 0.2477273,
                "tempo": 120.0
            },
            {
                "start_time": 40.4409091,
                "end_time": 40.5545455,
                "pitch": 37,
                "velocity": 64,
                "duration": 0.1136364,
                "tempo": 120.0
            },
            {
                "start_time": 41.1136364,
                "end_time": 41.2318182,
                "pitch": 37,
                "velocity": 64,
                "duration": 0.1181818,
                "tempo": 120.0
            },
            {
                "start_time": 41.2477273,
                "end_time": 41.3636364,
                "pitch": 37,
                "velocity": 64,
                "duration": 0.1159091,
                "tempo": 120.0
            },
            {
                "start_time": 41.6454545,
                "end_time": 41.8909091,
                "pitch": 37,
                "velocity": 64,
                "duration": 0.2454545,
                "tempo": 120.0
            },
            {
                "start_time": 41.9090909,
                "end_time": 42.0272727,
                "pitch": 49,
                "velocity": 64,
                "duration": 0.1181818,
                "tempo": 120.0
            },
            {
                "start_time": 42.0454545,
                "end_time": 42.3022727,
                "pitch": 37,
                "velocity": 64,
                "duration": 0.2568182,
                "tempo": 120.0
            },
            {
                "start_time": 42.3181818,
                "end_time": 42.5681818,
                "pitch": 37,
                "velocity": 64,
                "duration": 0.25,
                "tempo": 120.0
            },
            {
                "start_time": 40.0431818,
                "end_time": 42.7022727,
                "pitch": 39,
                "velocity": 64,
                "duration": 2.6590909,
                "tempo": 120.0
            },
            {
                "start_time": 42.5863636,
                "end_time": 42.7022727,
                "pitch": 39,
                "velocity": 64,
                "duration": 0.1159091,
                "tempo": 120.0
            },
            {
                "start_time": 43.2590909,
                "end_time": 43.3795455,
                "pitch": 39,
                "velocity": 64,
                "duration": 0.1204545,
                "tempo": 120.0
            },
            {
                "start_time": 43.3977273,
                "end_time": 43.5159091,
                "pitch": 39,
                "velocity": 64,
                "duration": 0.1181818,
                "tempo": 120.0
            },
            {
                "start_time": 43.7954545,
                "end_time": 44.0454545,
                "pitch": 39,
                "velocity": 64,
                "duration": 0.25,
                "tempo": 120.0
            },
            {
                "start_time": 44.0636364,
                "end_time": 44.1818182,
                "pitch": 51,
                "velocity": 64,
                "duration": 0.1181818,
                "tempo": 120.0
            },
            {
                "start_time": 44.2,
                "end_time": 44.4522727,
                "pitch": 39,
                "velocity": 64,
                "duration": 0.2522727,
                "tempo": 120.0
            },
            {
                "start_time": 44.4704545,
                "end_time": 44.7136364,
                "pitch": 44,
                "velocity": 64,
                "duration": 0.2431818,
                "tempo": 120.0
            },
            {
                "start_time": 44.7295455,
                "end_time": 44.8477273,
                "pitch": 44,
                "velocity": 64,
                "duration": 0.1181818,
                "tempo": 120.0
            },
            {
                "start_time": 45.4,
                "end_time": 45.5181818,
                "pitch": 44,
                "velocity": 64,
                "duration": 0.1181818,
                "tempo": 120.0
            },
            {
                "start_time": 45.5340909,
                "end_time": 45.65,
                "pitch": 44,
                "velocity": 64,
                "duration": 0.1159091,
                "tempo": 120.0
            },
            {
                "start_time": 45.9340909,
                "end_time": 46.1909091,
                "pitch": 44,
                "velocity": 64,
                "duration": 0.2568182,
                "tempo": 120.0
            },
            {
                "start_time": 46.2090909,
                "end_time": 46.3295455,
                "pitch": 56,
                "velocity": 64,
                "duration": 0.1204545,
                "tempo": 120.0
            },
            {
                "start_time": 46.3454545,
                "end_time": 46.5909091,
                "pitch": 44,
                "velocity": 64,
                "duration": 0.2454545,
                "tempo": 120.0
            },
            {
                "start_time": 46.6090909,
                "end_time": 46.8590909,
                "pitch": 44,
                "velocity": 64,
                "duration": 0.25,
                "tempo": 120.0
            },
            {
                "start_time": 46.875,
                "end_time": 46.9954545,
                "pitch": 44,
                "velocity": 64,
                "duration": 0.1204545,
                "tempo": 120.0
            },
            {
                "start_time": 47.5431818,
                "end_time": 47.6590909,
                "pitch": 44,
                "velocity": 64,
                "duration": 0.1159091,
                "tempo": 120.0
            },
            {
                "start_time": 47.675,
                "end_time": 47.7931818,
                "pitch": 44,
                "velocity": 64,
                "duration": 0.1181818,
                "tempo": 120.0
            },
            {
                "start_time": 48.0772727,
                "end_time": 48.3272727,
                "pitch": 44,
                "velocity": 64,
                "duration": 0.25,
                "tempo": 120.0
            },
            {
                "start_time": 48.3431818,
                "end_time": 48.4636364,
                "pitch": 56,
                "velocity": 64,
                "duration": 0.1204545,
                "tempo": 120.0
            },
            {
                "start_time": 48.4818182,
                "end_time": 48.7363636,
                "pitch": 44,
                "velocity": 64,
                "duration": 0.2545455,
                "tempo": 120.0
            },
            {
                "start_time": 49.0227273,
                "end_time": 49.1386364,
                "pitch": 37,
                "velocity": 64,
                "duration": 0.1159091,
                "tempo": 120.0
            },
            {
                "start_time": 49.6863636,
                "end_time": 49.8022727,
                "pitch": 37,
                "velocity": 64,
                "duration": 0.1159091,
                "tempo": 120.0
            },
            {
                "start_time": 49.8181818,
                "end_time": 49.9318182,
                "pitch": 37,
                "velocity": 64,
                "duration": 0.1136364,
                "tempo": 120.0
            },
            {
                "start_time": 50.2227273,
                "end_time": 50.4772727,
                "pitch": 37,
                "velocity": 64,
                "duration": 0.2545455,
                "tempo": 120.0
            },
            {
                "start_time": 50.4954545,
                "end_time": 50.6113636,
                "pitch": 49,
                "velocity": 64,
                "duration": 0.1159091,
                "tempo": 120.0
            },
            {
                "start_time": 50.6295455,
                "end_time": 50.8772727,
                "pitch": 37,
                "velocity": 64,
                "duration": 0.2477273,
                "tempo": 120.0
            },
            {
                "start_time": 50.8954545,
                "end_time": 51.1386364,
                "pitch": 37,
                "velocity": 64,
                "duration": 0.2431818,
                "tempo": 120.0
            },
            {
                "start_time": 51.1568182,
                "end_time": 51.275,
                "pitch": 39,
                "velocity": 64,
                "duration": 0.1181818,
                "tempo": 120.0
            },
            {
                "start_time": 51.8340909,
                "end_time": 51.95,
                "pitch": 39,
                "velocity": 64,
                "duration": 0.1159091,
                "tempo": 120.0
            },
            {
                "start_time": 51.9681818,
                "end_time": 52.0863636,
                "pitch": 39,
                "velocity": 64,
                "duration": 0.1181818,
                "tempo": 120.0
            },
            {
                "start_time": 52.3795455,
                "end_time": 52.625,
                "pitch": 39,
                "velocity": 64,
                "duration": 0.2454545,
                "tempo": 120.0
            },
            {
                "start_time": 52.6409091,
                "end_time": 52.7545455,
                "pitch": 51,
                "velocity": 64,
                "duration": 0.1136364,
                "tempo": 120.0
            },
            {
                "start_time": 52.7727273,
                "end_time": 53.0272727,
                "pitch": 39,
                "velocity": 64,
                "duration": 0.2545455,
                "tempo": 120.0
            },
            {
                "start_time": 38.025,
                "end_time": 53.2977273,
                "pitch": 36,
                "velocity": 64,
                "duration": 15.2727273,
                "tempo": 120.0
            },
            {
                "start_time": 53.0454545,
                "end_time": 53.2977273,
                "pitch": 36,
                "velocity": 64,
                "duration": 0.2522727,
                "tempo": 120.0
            },
            {
                "start_time": 53.3136364,
                "end_time": 53.4272727,
                "pitch": 36,
                "velocity": 64,
                "duration": 0.1136364,
                "tempo": 120.0
            },
            {
                "start_time": 53.9863636,
                "end_time": 54.1045455,
                "pitch": 36,
                "velocity": 64,
                "duration": 0.1181818,
                "tempo": 120.0
            },
            {
                "start_time": 54.1204545,
                "end_time": 54.2386364,
                "pitch": 36,
                "velocity": 64,
                "duration": 0.1181818,
                "tempo": 120.0
            },
            {
                "start_time": 54.5204545,
                "end_time": 54.7659091,
                "pitch": 36,
                "velocity": 64,
                "duration": 0.2454545,
                "tempo": 120.0
            },
            {
                "start_time": 54.7840909,
                "end_time": 54.9022727,
                "pitch": 48,
                "velocity": 64,
                "duration": 0.1181818,
                "tempo": 120.0
            },
            {
                "start_time": 54.9204545,
                "end_time": 55.1772727,
                "pitch": 36,
                "velocity": 64,
                "duration": 0.2568182,
                "tempo": 120.0
            },
            {
                "start_time": 40.1772727,
                "end_time": 55.4431818,
                "pitch": 41,
                "velocity": 64,
                "duration": 15.2659091,
                "tempo": 120.0
            },
            {
                "start_time": 55.1931818,
                "end_time": 55.4431818,
                "pitch": 41,
                "velocity": 64,
                "duration": 0.25,
                "tempo": 120.0
            },
            {
                "start_time": 55.4613636,
                "end_time": 55.5772727,
                "pitch": 41,
                "velocity": 64,
                "duration": 0.1159091,
                "tempo": 120.0
            },
            {
                "start_time": 56.1295455,
                "end_time": 56.2477273,
                "pitch": 41,
                "velocity": 64,
                "duration": 0.1181818,
                "tempo": 120.0
            },
            {
                "start_time": 56.2636364,
                "end_time": 56.3818182,
                "pitch": 41,
                "velocity": 64,
                "duration": 0.1181818,
                "tempo": 120.0
            },
            {
                "start_time": 56.6659091,
                "end_time": 56.9159091,
                "pitch": 41,
                "velocity": 64,
                "duration": 0.25,
                "tempo": 120.0
            },
            {
                "start_time": 53.0454545,
                "end_time": 57.1818182,
                "pitch": 39,
                "velocity": 64,
                "duration": 4.1363636,
                "tempo": 120.0
            },
            {
                "start_time": 56.9340909,
                "end_time": 57.1818182,
                "pitch": 39,
                "velocity": 64,
                "duration": 0.2477273,
                "tempo": 120.0
            },
            {
                "start_time": 56.9340909,
                "end_time": 57.3159091,
                "pitch": 41,
                "velocity": 64,
                "duration": 0.3818182,
                "tempo": 120.0
            },
            {
                "start_time": 57.2,
                "end_time": 57.3159091,
                "pitch": 41,
                "velocity": 64,
                "duration": 0.1159091,
                "tempo": 120.0
            },
            {
                "start_time": 57.3340909,
                "end_time": 57.5818182,
                "pitch": 37,
                "velocity": 64,
                "duration": 0.2477273,
                "tempo": 120.0
            },
            {
                "start_time": 57.6,
                "end_time": 57.7159091,
                "pitch": 37,
                "velocity": 64,
                "duration": 0.1159091,
                "tempo": 120.0
            },
            {
                "start_time": 58.2704545,
                "end_time": 58.3863636,
                "pitch": 37,
                "velocity": 64,
                "duration": 0.1159091,
                "tempo": 120.0
            },
            {
                "start_time": 58.4045455,
                "end_time": 58.5204545,
                "pitch": 37,
                "velocity": 64,
                "duration": 0.1159091,
                "tempo": 120.0
            },
            {
                "start_time": 58.8045455,
                "end_time": 59.0545455,
                "pitch": 37,
                "velocity": 64,
                "duration": 0.25,
                "tempo": 120.0
            },
            {
                "start_time": 59.0704545,
                "end_time": 59.1886364,
                "pitch": 49,
                "velocity": 64,
                "duration": 0.1181818,
                "tempo": 120.0
            },
            {
                "start_time": 59.2045455,
                "end_time": 59.4613636,
                "pitch": 37,
                "velocity": 64,
                "duration": 0.2568182,
                "tempo": 120.0
            },
            {
                "start_time": 59.4795455,
                "end_time": 59.7318182,
                "pitch": 37,
                "velocity": 64,
                "duration": 0.2522727,
                "tempo": 120.0
            },
            {
                "start_time": 57.2,
                "end_time": 59.8659091,
                "pitch": 39,
                "velocity": 64,
                "duration": 2.6659091,
                "tempo": 120.0
            },
            {
                "start_time": 59.75,
                "end_time": 59.8659091,
                "pitch": 39,
                "velocity": 64,
                "duration": 0.1159091,
                "tempo": 120.0
            },
            {
                "start_time": 60.4090909,
                "end_time": 60.5272727,
                "pitch": 39,
                "velocity": 64,
                "duration": 0.1181818,
                "tempo": 120.0
            },
            {
                "start_time": 60.5431818,
                "end_time": 60.6590909,
                "pitch": 39,
                "velocity": 64,
                "duration": 0.1159091,
                "tempo": 120.0
            },
            {
                "start_time": 60.9409091,
                "end_time": 61.1863636,
                "pitch": 39,
                "velocity": 64,
                "duration": 0.2454545,
                "tempo": 120.0
            },
            {
                "start_time": 61.2022727,
                "end_time": 61.325,
                "pitch": 51,
                "velocity": 64,
                "duration": 0.1227273,
                "tempo": 120.0
            },
            {
                "start_time": 61.3431818,
                "end_time": 61.6068182,
                "pitch": 39,
                "velocity": 64,
                "duration": 0.2636364,
                "tempo": 120.0
            },
            {
                "start_time": 61.625,
                "end_time": 61.7590909,
                "pitch": 39,
                "velocity": 64,
                "duration": 0.1340909,
                "tempo": 120.0
            },
            {
                "start_time": 57.3340909,
                "end_time": 61.875,
                "pitch": 41,
                "velocity": 64,
                "duration": 4.5409091,
                "tempo": 120.0
            },
            {
                "start_time": 61.7590909,
                "end_time": 61.875,
                "pitch": 41,
                "velocity": 64,
                "duration": 0.1159091,
                "tempo": 120.0
            },
            {
                "start_time": 61.8931818,
                "end_time": 62.0090909,
                "pitch": 41,
                "velocity": 64,
                "duration": 0.1159091,
                "tempo": 120.0
            },
            {
                "start_time": 62.5545455,
                "end_time": 62.6659091,
                "pitch": 41,
                "velocity": 64,
                "duration": 0.1113636,
                "tempo": 120.0
            },
            {
                "start_time": 62.6818182,
                "end_time": 62.7931818,
                "pitch": 41,
                "velocity": 64,
                "duration": 0.1113636,
                "tempo": 120.0
            },
            {
                "start_time": 63.0909091,
                "end_time": 63.3454545,
                "pitch": 41,
                "velocity": 64,
                "duration": 0.2545455,
                "tempo": 120.0
            },
            {
                "start_time": 44.4704545,
                "end_time": 63.475,
                "pitch": 53,
                "velocity": 64,
                "duration": 19.0045455,
                "tempo": 120.0
            },
            {
                "start_time": 63.3613636,
                "end_time": 63.475,
                "pitch": 53,
                "velocity": 64,
                "duration": 0.1136364,
                "tempo": 120.0
            },
            {
                "start_time": 63.4931818,
                "end_time": 63.8795455,
                "pitch": 41,
                "velocity": 64,
                "duration": 0.3863636,
                "tempo": 120.0
            },
            {
                "start_time": 63.8977273,
                "end_time": 64.0181818,
                "pitch": 41,
                "velocity": 64,
                "duration": 0.1204545,
                "tempo": 120.0
            },
            {
                "start_time": 64.0340909,
                "end_time": 64.1522727,
                "pitch": 41,
                "velocity": 64,
                "duration": 0.1181818,
                "tempo": 120.0
            },
            {
                "start_time": 64.7022727,
                "end_time": 64.8181818,
                "pitch": 41,
                "velocity": 64,
                "duration": 0.1159091,
                "tempo": 120.0
            },
            {
                "start_time": 64.8363636,
                "end_time": 64.95,
                "pitch": 41,
                "velocity": 64,
                "duration": 0.1136364,
                "tempo": 120.0
            },
            {
                "start_time": 65.2295455,
                "end_time": 65.4840909,
                "pitch": 41,
                "velocity": 64,
                "duration": 0.2545455,
                "tempo": 120.0
            },
            {
                "start_time": 65.5045455,
                "end_time": 65.6227273,
                "pitch": 53,
                "velocity": 64,
                "duration": 0.1181818,
                "tempo": 120.0
            },
            {
                "start_time": 65.6409091,
                "end_time": 66.0227273,
                "pitch": 41,
                "velocity": 64,
                "duration": 0.3818182,
                "tempo": 120.0
            },
            {
                "start_time": 66.0409091,
                "end_time": 66.1568182,
                "pitch": 37,
                "velocity": 64,
                "duration": 0.1159091,
                "tempo": 120.0
            },
            {
                "start_time": 66.175,
                "end_time": 66.2909091,
                "pitch": 37,
                "velocity": 64,
                "duration": 0.1159091,
                "tempo": 120.0
            },
            {
                "start_time": 66.8409091,
                "end_time": 66.9590909,
                "pitch": 37,
                "velocity": 64,
                "duration": 0.1181818,
                "tempo": 120.0
            },
            {
                "start_time": 66.975,
                "end_time": 67.0909091,
                "pitch": 37,
                "velocity": 64,
                "duration": 0.1159091,
                "tempo": 120.0
            },
            {
                "start_time": 67.3772727,
                "end_time": 67.6272727,
                "pitch": 37,
                "velocity": 64,
                "duration": 0.25,
                "tempo": 120.0
            },
            {
                "start_time": 67.6454545,
                "end_time": 67.7613636,
                "pitch": 49,
                "velocity": 64,
                "duration": 0.1159091,
                "tempo": 120.0
            },
            {
                "start_time": 67.7795455,
                "end_time": 68.0295455,
                "pitch": 37,
                "velocity": 64,
                "duration": 0.25,
                "tempo": 120.0
            },
            {
                "start_time": 68.0477273,
                "end_time": 68.3022727,
                "pitch": 37,
                "velocity": 64,
                "duration": 0.2545455,
                "tempo": 120.0
            },
            {
                "start_time": 68.3204545,
                "end_time": 68.4386364,
                "pitch": 39,
                "velocity": 64,
                "duration": 0.1181818,
                "tempo": 120.0
            },
            {
                "start_time": 68.9840909,
                "end_time": 69.1,
                "pitch": 39,
                "velocity": 64,
                "duration": 0.1159091,
                "tempo": 120.0
            },
            {
                "start_time": 69.1159091,
                "end_time": 69.2340909,
                "pitch": 39,
                "velocity": 64,
                "duration": 0.1181818,
                "tempo": 120.0
            },
            {
                "start_time": 69.525,
                "end_time": 69.7795455,
                "pitch": 39,
                "velocity": 64,
                "duration": 0.2545455,
                "tempo": 120.0
            },
            {
                "start_time": 69.7954545,
                "end_time": 69.9113636,
                "pitch": 51,
                "velocity": 64,
                "duration": 0.1159091,
                "tempo": 120.0
            },
            {
                "start_time": 69.9295455,
                "end_time": 70.1772727,
                "pitch": 39,
                "velocity": 64,
                "duration": 0.2477273,
                "tempo": 120.0
            },
            {
                "start_time": 55.1931818,
                "end_time": 70.4386364,
                "pitch": 36,
                "velocity": 64,
                "duration": 15.2454545,
                "tempo": 120.0
            },
            {
                "start_time": 70.1931818,
                "end_time": 70.4386364,
                "pitch": 36,
                "velocity": 64,
                "duration": 0.2454545,
                "tempo": 120.0
            },
            {
                "start_time": 70.4545455,
                "end_time": 70.575,
                "pitch": 36,
                "velocity": 64,
                "duration": 0.1204545,
                "tempo": 120.0
            },
            {
                "start_time": 71.1340909,
                "end_time": 71.25,
                "pitch": 36,
                "velocity": 64,
                "duration": 0.1159091,
                "tempo": 120.0
            },
            {
                "start_time": 71.2681818,
                "end_time": 71.3840909,
                "pitch": 36,
                "velocity": 64,
                "duration": 0.1159091,
                "tempo": 120.0
            },
            {
                "start_time": 71.6704545,
                "end_time": 71.9227273,
                "pitch": 36,
                "velocity": 64,
                "duration": 0.2522727,
                "tempo": 120.0
            },
            {
                "start_time": 71.9386364,
                "end_time": 72.0568182,
                "pitch": 48,
                "velocity": 64,
                "duration": 0.1181818,
                "tempo": 120.0
            },
            {
                "start_time": 72.075,
                "end_time": 72.3295455,
                "pitch": 36,
                "velocity": 64,
                "duration": 0.2545455,
                "tempo": 120.0
            },
            {
                "start_time": 66.0409091,
                "end_time": 72.6022727,
                "pitch": 41,
                "velocity": 64,
                "duration": 6.5613636,
                "tempo": 120.0
            },
            {
                "start_time": 72.3477273,
                "end_time": 72.6022727,
                "pitch": 41,
                "velocity": 64,
                "duration": 0.2545455,
                "tempo": 120.0
            },
            {
                "start_time": 72.6181818,
                "end_time": 72.7340909,
                "pitch": 41,
                "velocity": 64,
                "duration": 0.1159091,
                "tempo": 120.0
            },
            {
                "start_time": 73.2795455,
                "end_time": 73.3954545,
                "pitch": 41,
                "velocity": 64,
                "duration": 0.1159091,
                "tempo": 120.0
            },
            {
                "start_time": 73.4136364,
                "end_time": 73.5295455,
                "pitch": 41,
                "velocity": 64,
                "duration": 0.1159091,
                "tempo": 120.0
            },
            {
                "start_time": 73.8113636,
                "end_time": 74.0568182,
                "pitch": 41,
                "velocity": 64,
                "duration": 0.2454545,
                "tempo": 120.0
            },
            {
                "start_time": 70.1931818,
                "end_time": 74.3318182,
                "pitch": 39,
                "velocity": 64,
                "duration": 4.1386364,
                "tempo": 120.0
            },
            {
                "start_time": 74.075,
                "end_time": 74.3318182,
                "pitch": 39,
                "velocity": 64,
                "duration": 0.2568182,
                "tempo": 120.0
            },
            {
                "start_time": 74.075,
                "end_time": 74.4681818,
                "pitch": 41,
                "velocity": 64,
                "duration": 0.3931818,
                "tempo": 120.0
            },
            {
                "start_time": 74.3477273,
                "end_time": 74.4681818,
                "pitch": 41,
                "velocity": 64,
                "duration": 0.1204545,
                "tempo": 120.0
            },
            {
                "start_time": 74.4863636,
                "end_time": 74.7431818,
                "pitch": 37,
                "velocity": 64,
                "duration": 0.2568182,
                "tempo": 120.0
            },
            {
                "start_time": 74.7590909,
                "end_time": 74.8795455,
                "pitch": 37,
                "velocity": 64,
                "duration": 0.1204545,
                "tempo": 120.0
            },
            {
                "start_time": 75.4318182,
                "end_time": 75.5454545,
                "pitch": 37,
                "velocity": 64,
                "duration": 0.1136364,
                "tempo": 120.0
            },
            {
                "start_time": 75.5613636,
                "end_time": 75.6772727,
                "pitch": 37,
                "velocity": 64,
                "duration": 0.1159091,
                "tempo": 120.0
            },
            {
                "start_time": 75.9681818,
                "end_time": 76.2204545,
                "pitch": 37,
                "velocity": 64,
                "duration": 0.2522727,
                "tempo": 120.0
            },
            {
                "start_time": 76.2386364,
                "end_time": 76.3568182,
                "pitch": 49,
                "velocity": 64,
                "duration": 0.1181818,
                "tempo": 120.0
            },
            {
                "start_time": 76.3727273,
                "end_time": 76.6227273,
                "pitch": 37,
                "velocity": 64,
                "duration": 0.25,
                "tempo": 120.0
            },
            {
                "start_time": 76.6386364,
                "end_time": 76.8840909,
                "pitch": 37,
                "velocity": 64,
                "duration": 0.2454545,
                "tempo": 120.0
            },
            {
                "start_time": 74.3477273,
                "end_time": 77.0204545,
                "pitch": 39,
                "velocity": 64,
                "duration": 2.6727273,
                "tempo": 120.0
            },
            {
                "start_time": 76.9,
                "end_time": 77.0204545,
                "pitch": 39,
                "velocity": 64,
                "duration": 0.1204545,
                "tempo": 120.0
            },
            {
                "start_time": 77.5727273,
                "end_time": 77.6863636,
                "pitch": 39,
                "velocity": 64,
                "duration": 0.1136364,
                "tempo": 120.0
            },
            {
                "start_time": 77.7045455,
                "end_time": 77.8227273,
                "pitch": 39,
                "velocity": 64,
                "duration": 0.1181818,
                "tempo": 120.0
            },
            {
                "start_time": 78.1159091,
                "end_time": 78.3681818,
                "pitch": 39,
                "velocity": 64,
                "duration": 0.2522727,
                "tempo": 120.0
            },
            {
                "start_time": 78.3840909,
                "end_time": 78.5022727,
                "pitch": 51,
                "velocity": 64,
                "duration": 0.1181818,
                "tempo": 120.0
            },
            {
                "start_time": 78.5181818,
                "end_time": 78.7681818,
                "pitch": 39,
                "velocity": 64,
                "duration": 0.25,
                "tempo": 120.0
            },
            {
                "start_time": 78.7863636,
                "end_time": 79.0363636,
                "pitch": 44,
                "velocity": 64,
                "duration": 0.25,
                "tempo": 120.0
            },
            {
                "start_time": 79.0545455,
                "end_time": 79.1704545,
                "pitch": 44,
                "velocity": 64,
                "duration": 0.1159091,
                "tempo": 120.0
            },
            {
                "start_time": 79.725,
                "end_time": 79.8431818,
                "pitch": 44,
                "velocity": 64,
                "duration": 0.1181818,
                "tempo": 120.0
            },
            {
                "start_time": 79.8590909,
                "end_time": 79.975,
                "pitch": 44,
                "velocity": 64,
                "duration": 0.1159091,
                "tempo": 120.0
            },
            {
                "start_time": 80.2568182,
                "end_time": 80.5022727,
                "pitch": 44,
                "velocity": 64,
                "duration": 0.2454545,
                "tempo": 120.0
            },
            {
                "start_time": 80.5181818,
                "end_time": 80.6386364,
                "pitch": 56,
                "velocity": 64,
                "duration": 0.1204545,
                "tempo": 120.0
            },
            {
                "start_time": 80.6568182,
                "end_time": 80.9136364,
                "pitch": 44,
                "velocity": 64,
                "duration": 0.2568182,
                "tempo": 120.0
            },
            {
                "start_time": 80.9295455,
                "end_time": 81.1818182,
                "pitch": 44,
                "velocity": 64,
                "duration": 0.2522727,
                "tempo": 120.0
            },
            {
                "start_time": 81.2,
                "end_time": 81.3159091,
                "pitch": 44,
                "velocity": 64,
                "duration": 0.1159091,
                "tempo": 120.0
            },
            {
                "start_time": 81.8681818,
                "end_time": 81.9818182,
                "pitch": 44,
                "velocity": 64,
                "duration": 0.1136364,
                "tempo": 120.0
            },
            {
                "start_time": 81.9977273,
                "end_time": 82.1136364,
                "pitch": 44,
                "velocity": 64,
                "duration": 0.1159091,
                "tempo": 120.0
            },
            {
                "start_time": 82.4113636,
                "end_time": 82.6659091,
                "pitch": 44,
                "velocity": 64,
                "duration": 0.2545455,
                "tempo": 120.0
            },
            {
                "start_time": 82.6840909,
                "end_time": 82.7954545,
                "pitch": 56,
                "velocity": 64,
                "duration": 0.1113636,
                "tempo": 120.0
            },
            {
                "start_time": 82.8136364,
                "end_time": 83.0613636,
                "pitch": 44,
                "velocity": 64,
                "duration": 0.2477273,
                "tempo": 120.0
            },
            {
                "start_time": 83.3477273,
                "end_time": 83.4636364,
                "pitch": 37,
                "velocity": 64,
                "duration": 0.1159091,
                "tempo": 120.0
            },
            {
                "start_time": 84.0181818,
                "end_time": 84.1340909,
                "pitch": 37,
                "velocity": 64,
                "duration": 0.1159091,
                "tempo": 120.0
            },
            {
                "start_time": 84.15,
                "end_time": 84.2681818,
                "pitch": 37,
                "velocity": 64,
                "duration": 0.1181818,
                "tempo": 120.0
            },
            {
                "start_time": 84.5545455,
                "end_time": 84.8113636,
                "pitch": 37,
                "velocity": 64,
                "duration": 0.2568182,
                "tempo": 120.0
            },
            {
                "start_time": 84.8295455,
                "end_time": 84.9477273,
                "pitch": 49,
                "velocity": 64,
                "duration": 0.1181818,
                "tempo": 120.0
            },
            {
                "start_time": 84.9659091,
                "end_time": 85.2181818,
                "pitch": 37,
                "velocity": 64,
                "duration": 0.2522727,
                "tempo": 120.0
            },
            {
                "start_time": 85.2363636,
                "end_time": 85.4863636,
                "pitch": 37,
                "velocity": 64,
                "duration": 0.25,
                "tempo": 120.0
            },
            {
                "start_time": 85.5022727,
                "end_time": 85.6181818,
                "pitch": 39,
                "velocity": 64,
                "duration": 0.1159091,
                "tempo": 120.0
            },
            {
                "start_time": 86.1727273,
                "end_time": 86.2886364,
                "pitch": 39,
                "velocity": 64,
                "duration": 0.1159091,
                "tempo": 120.0
            },
            {
                "start_time": 86.3068182,
                "end_time": 86.4227273,
                "pitch": 39,
                "velocity": 64,
                "duration": 0.1159091,
                "tempo": 120.0
            },
            {
                "start_time": 86.7068182,
                "end_time": 86.9590909,
                "pitch": 39,
                "velocity": 64,
                "duration": 0.2522727,
                "tempo": 120.0
            },
            {
                "start_time": 86.9772727,
                "end_time": 87.0931818,
                "pitch": 51,
                "velocity": 64,
                "duration": 0.1159091,
                "tempo": 120.0
            },
            {
                "start_time": 87.1113636,
                "end_time": 87.3636364,
                "pitch": 39,
                "velocity": 64,
                "duration": 0.2522727,
                "tempo": 120.0
            },
            {
                "start_time": 72.3477273,
                "end_time": 87.6295455,
                "pitch": 36,
                "velocity": 64,
                "duration": 15.2818182,
                "tempo": 120.0
            },
            {
                "start_time": 87.3795455,
                "end_time": 87.6295455,
                "pitch": 36,
                "velocity": 64,
                "duration": 0.25,
                "tempo": 120.0
            },
            {
                "start_time": 87.6477273,
                "end_time": 87.7636364,
                "pitch": 36,
                "velocity": 64,
                "duration": 0.1159091,
                "tempo": 120.0
            },
            {
                "start_time": 88.3136364,
                "end_time": 88.4295455,
                "pitch": 36,
                "velocity": 64,
                "duration": 0.1159091,
                "tempo": 120.0
            },
            {
                "start_time": 88.4454545,
                "end_time": 88.5590909,
                "pitch": 36,
                "velocity": 64,
                "duration": 0.1136364,
                "tempo": 120.0
            },
            {
                "start_time": 88.8568182,
                "end_time": 89.1136364,
                "pitch": 36,
                "velocity": 64,
                "duration": 0.2568182,
                "tempo": 120.0
            },
            {
                "start_time": 89.1295455,
                "end_time": 89.2431818,
                "pitch": 48,
                "velocity": 64,
                "duration": 0.1136364,
                "tempo": 120.0
            },
            {
                "start_time": 89.2613636,
                "end_time": 89.5068182,
                "pitch": 36,
                "velocity": 64,
                "duration": 0.2454545,
                "tempo": 120.0
            },
            {
                "start_time": 74.4863636,
                "end_time": 89.775,
                "pitch": 41,
                "velocity": 64,
                "duration": 15.2886364,
                "tempo": 120.0
            },
            {
                "start_time": 89.525,
                "end_time": 89.775,
                "pitch": 41,
                "velocity": 64,
                "duration": 0.25,
                "tempo": 120.0
            },
            {
                "start_time": 89.7909091,
                "end_time": 89.9090909,
                "pitch": 41,
                "velocity": 64,
                "duration": 0.1181818,
                "tempo": 120.0
            },
            {
                "start_time": 90.4636364,
                "end_time": 90.5772727,
                "pitch": 41,
                "velocity": 64,
                "duration": 0.1136364,
                "tempo": 120.0
            },
            {
                "start_time": 90.5954545,
                "end_time": 90.7136364,
                "pitch": 41,
                "velocity": 64,
                "duration": 0.1181818,
                "tempo": 120.0
            },
            {
                "start_time": 91.0,
                "end_time": 91.2545455,
                "pitch": 41,
                "velocity": 64,
                "duration": 0.2545455,
                "tempo": 120.0
            },
            {
                "start_time": 87.3795455,
                "end_time": 91.5272727,
                "pitch": 39,
                "velocity": 64,
                "duration": 4.1477273,
                "tempo": 120.0
            },
            {
                "start_time": 91.2727273,
                "end_time": 91.5272727,
                "pitch": 39,
                "velocity": 64,
                "duration": 0.2545455,
                "tempo": 120.0
            },
            {
                "start_time": 91.2727273,
                "end_time": 91.6613636,
                "pitch": 41,
                "velocity": 64,
                "duration": 0.3886364,
                "tempo": 120.0
            },
            {
                "start_time": 91.5454545,
                "end_time": 91.6613636,
                "pitch": 41,
                "velocity": 64,
                "duration": 0.1159091,
                "tempo": 120.0
            },
            {
                "start_time": 91.6795455,
                "end_time": 91.9295455,
                "pitch": 37,
                "velocity": 64,
                "duration": 0.25,
                "tempo": 120.0
            },
            {
                "start_time": 91.9477273,
                "end_time": 92.0636364,
                "pitch": 37,
                "velocity": 64,
                "duration": 0.1159091,
                "tempo": 120.0
            },
            {
                "start_time": 92.6181818,
                "end_time": 92.7340909,
                "pitch": 37,
                "velocity": 64,
                "duration": 0.1159091,
                "tempo": 120.0
            },
            {
                "start_time": 92.7522727,
                "end_time": 92.8681818,
                "pitch": 37,
                "velocity": 64,
                "duration": 0.1159091,
                "tempo": 120.0
            },
            {
                "start_time": 93.1522727,
                "end_time": 93.3954545,
                "pitch": 37,
                "velocity": 64,
                "duration": 0.2431818,
                "tempo": 120.0
            },
            {
                "start_time": 93.4136364,
                "end_time": 93.5318182,
                "pitch": 49,
                "velocity": 64,
                "duration": 0.1181818,
                "tempo": 120.0
            },
            {
                "start_time": 93.55,
                "end_time": 93.8068182,
                "pitch": 37,
                "velocity": 64,
                "duration": 0.2568182,
                "tempo": 120.0
            },
            {
                "start_time": 93.825,
                "end_time": 94.075,
                "pitch": 37,
                "velocity": 64,
                "duration": 0.25,
                "tempo": 120.0
            },
            {
                "start_time": 91.5454545,
                "end_time": 94.2068182,
                "pitch": 39,
                "velocity": 64,
                "duration": 2.6613636,
                "tempo": 120.0
            },
            {
                "start_time": 94.0909091,
                "end_time": 94.2068182,
                "pitch": 39,
                "velocity": 64,
                "duration": 0.1159091,
                "tempo": 120.0
            },
            {
                "start_time": 94.7636364,
                "end_time": 94.8795455,
                "pitch": 39,
                "velocity": 64,
                "duration": 0.1159091,
                "tempo": 120.0
            },
            {
                "start_time": 94.8977273,
                "end_time": 95.0136364,
                "pitch": 39,
                "velocity": 64,
                "duration": 0.1159091,
                "tempo": 120.0
            },
            {
                "start_time": 95.2977273,
                "end_time": 95.55,
                "pitch": 39,
                "velocity": 64,
                "duration": 0.2522727,
                "tempo": 120.0
            },
            {
                "start_time": 95.5659091,
                "end_time": 95.6840909,
                "pitch": 51,
                "velocity": 64,
                "duration": 0.1181818,
                "tempo": 120.0
            },
            {
                "start_time": 95.7,
                "end_time": 95.9522727,
                "pitch": 39,
                "velocity": 64,
                "duration": 0.2522727,
                "tempo": 120.0
            },
            {
                "start_time": 95.9704545,
                "end_time": 96.1022727,
                "pitch": 39,
                "velocity": 64,
                "duration": 0.1318182,
                "tempo": 120.0
            },
            {
                "start_time": 91.6795455,
                "end_time": 96.2181818,
                "pitch": 41,
                "velocity": 64,
                "duration": 4.5386364,
                "tempo": 120.0
            },
            {
                "start_time": 96.1022727,
                "end_time": 96.2181818,
                "pitch": 41,
                "velocity": 64,
                "duration": 0.1159091,
                "tempo": 120.0
            },
            {
                "start_time": 96.2363636,
                "end_time": 96.3522727,
                "pitch": 41,
                "velocity": 64,
                "duration": 0.1159091,
                "tempo": 120.0
            },
            {
                "start_time": 96.9090909,
                "end_time": 97.025,
                "pitch": 41,
                "velocity": 64,
                "duration": 0.1159091,
                "tempo": 120.0
            },
            {
                "start_time": 97.0431818,
                "end_time": 97.1590909,
                "pitch": 41,
                "velocity": 64,
                "duration": 0.1159091,
                "tempo": 120.0
            },
            {
                "start_time": 97.4431818,
                "end_time": 97.6954545,
                "pitch": 41,
                "velocity": 64,
                "duration": 0.2522727,
                "tempo": 120.0
            },
            {
                "start_time": 78.7863636,
                "end_time": 97.8295455,
                "pitch": 53,
                "velocity": 64,
                "duration": 19.0431818,
                "tempo": 120.0
            },
            {
                "start_time": 97.7113636,
                "end_time": 97.8295455,
                "pitch": 53,
                "velocity": 64,
                "duration": 0.1181818,
                "tempo": 120.0
            },
            {
                "start_time": 97.8454545,
                "end_time": 98.2295455,
                "pitch": 41,
                "velocity": 64,
                "duration": 0.3840909,
                "tempo": 120.0
            },
            {
                "start_time": 98.2477273,
                "end_time": 98.3659091,
                "pitch": 41,
                "velocity": 64,
                "duration": 0.1181818,
                "tempo": 120.0
            },
            {
                "start_time": 98.3840909,
                "end_time": 98.5045455,
                "pitch": 41,
                "velocity": 64,
                "duration": 0.1204545,
                "tempo": 120.0
            },
            {
                "start_time": 99.05,
                "end_time": 99.1681818,
                "pitch": 41,
                "velocity": 64,
                "duration": 0.1181818,
                "tempo": 120.0
            },
            {
                "start_time": 99.1840909,
                "end_time": 99.3,
                "pitch": 41,
                "velocity": 64,
                "duration": 0.1159091,
                "tempo": 120.0
            },
            {
                "start_time": 99.5886364,
                "end_time": 99.8454545,
                "pitch": 41,
                "velocity": 64,
                "duration": 0.2568182,
                "tempo": 120.0
            },
            {
                "start_time": 99.8636364,
                "end_time": 99.9795455,
                "pitch": 53,
                "velocity": 64,
                "duration": 0.1159091,
                "tempo": 120.0
            },
            {
                "start_time": 99.9977273,
                "end_time": 100.3840909,
                "pitch": 41,
                "velocity": 64,
                "duration": 0.3863636,
                "tempo": 120.0
            },
            {
                "start_time": 100.4045455,
                "end_time": 100.5181818,
                "pitch": 41,
                "velocity": 64,
                "duration": 0.1136364,
                "tempo": 120.0
            },
            {
                "start_time": 100.5340909,
                "end_time": 100.6522727,
                "pitch": 53,
                "velocity": 64,
                "duration": 0.1181818,
                "tempo": 120.0
            }
        ],
        "Acoustic Grand Piano": [
            {
                "start_time": 31.575,
                "end_time": 32.2363636,
                "pitch": 61,
                "velocity": 51,
                "duration": 0.6613636,
                "tempo": 120.0
            },
            {
                "start_time": 32.2545455,
                "end_time": 32.7818182,
                "pitch": 65,
                "velocity": 51,
                "duration": 0.5272727,
                "tempo": 120.0
            },
            {
                "start_time": 32.8,
                "end_time": 33.3159091,
                "pitch": 68,
                "velocity": 51,
                "duration": 0.5159091,
                "tempo": 120.0
            },
            {
                "start_time": 31.575,
                "end_time": 33.3363636,
                "pitch": 21,
                "velocity": 51,
                "duration": 1.7613636,
                "tempo": 120.0
            },
            {
                "start_time": 33.3363636,
                "end_time": 33.7181818,
                "pitch": 65,
                "velocity": 51,
                "duration": 0.3818182,
                "tempo": 120.0
            },
            {
                "start_time": 33.7363636,
                "end_time": 34.6477273,
                "pitch": 55,
                "velocity": 51,
                "duration": 0.9113636,
                "tempo": 120.0
            },
            {
                "start_time": 34.6659091,
                "end_time": 34.9204545,
                "pitch": 75,
                "velocity": 51,
                "duration": 0.2545455,
                "tempo": 120.0
            },
            {
                "start_time": 34.9386364,
                "end_time": 35.0590909,
                "pitch": 73,
                "velocity": 51,
                "duration": 0.1204545,
                "tempo": 120.0
            },
            {
                "start_time": 35.0772727,
                "end_time": 35.3272727,
                "pitch": 73,
                "velocity": 51,
                "duration": 0.25,
                "tempo": 120.0
            },
            {
                "start_time": 35.3454545,
                "end_time": 35.7295455,
                "pitch": 79,
                "velocity": 51,
                "duration": 0.3840909,
                "tempo": 120.0
            },
            {
                "start_time": 37.0772727,
                "end_time": 37.6136364,
                "pitch": 60,
                "velocity": 51,
                "duration": 0.5363636,
                "tempo": 120.0
            },
            {
                "start_time": 37.6318182,
                "end_time": 38.0090909,
                "pitch": 58,
                "velocity": 51,
                "duration": 0.3772727,
                "tempo": 120.0
            },
            {
                "start_time": 38.0272727,
                "end_time": 38.9522727,
                "pitch": 60,
                "velocity": 51,
                "duration": 0.925,
                "tempo": 120.0
            },
            {
                "start_time": 38.9681818,
                "end_time": 39.2159091,
                "pitch": 72,
                "velocity": 51,
                "duration": 0.2477273,
                "tempo": 120.0
            },
            {
                "start_time": 39.2318182,
                "end_time": 39.3477273,
                "pitch": 73,
                "velocity": 51,
                "duration": 0.1159091,
                "tempo": 120.0
            },
            {
                "start_time": 39.5,
                "end_time": 39.6181818,
                "pitch": 70,
                "velocity": 51,
                "duration": 0.1181818,
                "tempo": 120.0
            },
            {
                "start_time": 39.6386364,
                "end_time": 39.7545455,
                "pitch": 72,
                "velocity": 51,
                "duration": 0.1159091,
                "tempo": 120.0
            },
            {
                "start_time": 39.9136364,
                "end_time": 40.0272727,
                "pitch": 60,
                "velocity": 51,
                "duration": 0.1136364,
                "tempo": 120.0
            },
            {
                "start_time": 32.2545455,
                "end_time": 40.6863636,
                "pitch": 61,
                "velocity": 51,
                "duration": 8.4318182,
                "tempo": 120.0
            },
            {
                "start_time": 40.1795455,
                "end_time": 40.6863636,
                "pitch": 61,
                "velocity": 51,
                "duration": 0.5068182,
                "tempo": 120.0
            },
            {
                "start_time": 40.8409091,
                "end_time": 41.3659091,
                "pitch": 65,
                "velocity": 51,
                "duration": 0.525,
                "tempo": 120.0
            },
            {
                "start_time": 32.8,
                "end_time": 41.3840909,
                "pitch": 78,
                "velocity": 51,
                "duration": 8.5840909,
                "tempo": 120.0
            },
            {
                "start_time": 41.3840909,
                "end_time": 41.8909091,
                "pitch": 68,
                "velocity": 51,
                "duration": 0.5068182,
                "tempo": 120.0
            },
            {
                "start_time": 33.3363636,
                "end_time": 41.9113636,
                "pitch": 21,
                "velocity": 51,
                "duration": 8.575,
                "tempo": 120.0
            },
            {
                "start_time": 41.9113636,
                "end_time": 42.3022727,
                "pitch": 65,
                "velocity": 51,
                "duration": 0.3909091,
                "tempo": 120.0
            },
            {
                "start_time": 33.7363636,
                "end_time": 42.3227273,
                "pitch": 66,
                "velocity": 51,
                "duration": 8.5863636,
                "tempo": 120.0
            },
            {
                "start_time": 42.3227273,
                "end_time": 43.5181818,
                "pitch": 58,
                "velocity": 51,
                "duration": 1.1954545,
                "tempo": 120.0
            },
            {
                "start_time": 43.5363636,
                "end_time": 43.9113636,
                "pitch": 55,
                "velocity": 51,
                "duration": 0.375,
                "tempo": 120.0
            },
            {
                "start_time": 43.5363636,
                "end_time": 44.4522727,
                "pitch": 58,
                "velocity": 51,
                "duration": 0.9159091,
                "tempo": 120.0
            },
            {
                "start_time": 43.9295455,
                "end_time": 44.4522727,
                "pitch": 58,
                "velocity": 51,
                "duration": 0.5227273,
                "tempo": 120.0
            },
            {
                "start_time": 39.6386364,
                "end_time": 45.6522727,
                "pitch": 51,
                "velocity": 51,
                "duration": 6.0136364,
                "tempo": 120.0
            },
            {
                "start_time": 44.4727273,
                "end_time": 45.6522727,
                "pitch": 51,
                "velocity": 51,
                "duration": 1.1795455,
                "tempo": 120.0
            },
            {
                "start_time": 41.9113636,
                "end_time": 48.7590909,
                "pitch": 21,
                "velocity": 51,
                "duration": 6.8477273,
                "tempo": 120.0
            },
            {
                "start_time": 40.8409091,
                "end_time": 49.2727273,
                "pitch": 61,
                "velocity": 51,
                "duration": 8.4318182,
                "tempo": 120.0
            },
            {
                "start_time": 48.7590909,
                "end_time": 49.2727273,
                "pitch": 61,
                "velocity": 40,
                "duration": 0.5136364,
                "tempo": 120.0
            },
            {
                "start_time": 49.425,
                "end_time": 49.9340909,
                "pitch": 65,
                "velocity": 40,
                "duration": 0.5090909,
                "tempo": 120.0
            },
            {
                "start_time": 41.3840909,
                "end_time": 49.95,
                "pitch": 78,
                "velocity": 51,
                "duration": 8.5659091,
                "tempo": 120.0
            },
            {
                "start_time": 49.95,
                "end_time": 50.4772727,
                "pitch": 68,
                "velocity": 40,
                "duration": 0.5272727,
                "tempo": 120.0
            },
            {
                "start_time": 48.7590909,
                "end_time": 50.4977273,
                "pitch": 21,
                "velocity": 40,
                "duration": 1.7386364,
                "tempo": 120.0
            },
            {
                "start_time": 50.4977273,
                "end_time": 50.8772727,
                "pitch": 65,
                "velocity": 40,
                "duration": 0.3795455,
                "tempo": 120.0
            },
            {
                "start_time": 49.95,
                "end_time": 50.8977273,
                "pitch": 78,
                "velocity": 40,
                "duration": 0.9477273,
                "tempo": 120.0
            },
            {
                "start_time": 50.8977273,
                "end_time": 52.0886364,
                "pitch": 70,
                "velocity": 40,
                "duration": 1.1909091,
                "tempo": 120.0
            },
            {
                "start_time": 52.1068182,
                "end_time": 53.1659091,
                "pitch": 67,
                "velocity": 40,
                "duration": 1.0590909,
                "tempo": 120.0
            },
            {
                "start_time": 43.9295455,
                "end_time": 53.5590909,
                "pitch": 55,
                "velocity": 51,
                "duration": 9.6295455,
                "tempo": 120.0
            },
            {
                "start_time": 53.1840909,
                "end_time": 53.5590909,
                "pitch": 55,
                "velocity": 40,
                "duration": 0.375,
                "tempo": 120.0
            },
            {
                "start_time": 53.5772727,
                "end_time": 53.9704545,
                "pitch": 55,
                "velocity": 40,
                "duration": 0.3931818,
                "tempo": 120.0
            },
            {
                "start_time": 42.3227273,
                "end_time": 54.5227273,
                "pitch": 66,
                "velocity": 51,
                "duration": 12.2,
                "tempo": 120.0
            },
            {
                "start_time": 54.5227273,
                "end_time": 54.9022727,
                "pitch": 55,
                "velocity": 40,
                "duration": 0.3795455,
                "tempo": 120.0
            },
            {
                "start_time": 55.1977273,
                "end_time": 56.1136364,
                "pitch": 53,
                "velocity": 40,
                "duration": 0.9159091,
                "tempo": 120.0
            },
            {
                "start_time": 54.5227273,
                "end_time": 56.1318182,
                "pitch": 66,
                "velocity": 40,
                "duration": 1.6090909,
                "tempo": 120.0
            },
            {
                "start_time": 56.1318182,
                "end_time": 56.6477273,
                "pitch": 56,
                "velocity": 40,
                "duration": 0.5159091,
                "tempo": 120.0
            },
            {
                "start_time": 57.3363636,
                "end_time": 57.85,
                "pitch": 53,
                "velocity": 40,
                "duration": 0.5136364,
                "tempo": 120.0
            },
            {
                "start_time": 50.8977273,
                "end_time": 58.0022727,
                "pitch": 78,
                "velocity": 40,
                "duration": 7.1045455,
                "tempo": 120.0
            },
            {
                "start_time": 58.0022727,
                "end_time": 58.5204545,
                "pitch": 68,
                "velocity": 40,
                "duration": 0.5181818,
                "tempo": 120.0
            },
            {
                "start_time": 58.5386364,
                "end_time": 59.0545455,
                "pitch": 68,
                "velocity": 40,
                "duration": 0.5159091,
                "tempo": 120.0
            },
            {
                "start_time": 50.4977273,
                "end_time": 59.0727273,
                "pitch": 21,
                "velocity": 40,
                "duration": 8.575,
                "tempo": 120.0
            },
            {
                "start_time": 59.0727273,
                "end_time": 59.4613636,
                "pitch": 65,
                "velocity": 40,
                "duration": 0.3886364,
                "tempo": 120.0
            },
            {
                "start_time": 59.4818182,
                "end_time": 60.1318182,
                "pitch": 65,
                "velocity": 40,
                "duration": 0.65,
                "tempo": 120.0
            },
            {
                "start_time": 60.15,
                "end_time": 60.6590909,
                "pitch": 67,
                "velocity": 40,
                "duration": 0.5090909,
                "tempo": 120.0
            },
            {
                "start_time": 61.2045455,
                "end_time": 61.6068182,
                "pitch": 55,
                "velocity": 40,
                "duration": 0.4022727,
                "tempo": 120.0
            }
        ],
        "Church Organ": [
            {
                "start_time": 0.2681818,
                "end_time": 0.5181818,
                "pitch": 67,
                "velocity": 64,
                "duration": 0.25,
                "tempo": 120.0
            },
            {
                "start_time": 1.2568182,
                "end_time": 1.4136364,
                "pitch": 67,
                "velocity": 64,
                "duration": 0.1568182,
                "tempo": 120.0
            },
            {
                "start_time": 1.6181818,
                "end_time": 1.7727273,
                "pitch": 67,
                "velocity": 64,
                "duration": 0.1545455,
                "tempo": 120.0
            },
            {
                "start_time": 1.2568182,
                "end_time": 3.0409091,
                "pitch": 78,
                "velocity": 64,
                "duration": 1.7840909,
                "tempo": 120.0
            },
            {
                "start_time": 3.0409091,
                "end_time": 3.3727273,
                "pitch": 67,
                "velocity": 64,
                "duration": 0.3318182,
                "tempo": 120.0
            },
            {
                "start_time": 3.0409091,
                "end_time": 4.1181818,
                "pitch": 78,
                "velocity": 64,
                "duration": 1.0772727,
                "tempo": 120.0
            },
            {
                "start_time": 4.1181818,
                "end_time": 4.2704545,
                "pitch": 67,
                "velocity": 64,
                "duration": 0.1522727,
                "tempo": 120.0
            },
            {
                "start_time": 4.4727273,
                "end_time": 4.625,
                "pitch": 67,
                "velocity": 64,
                "duration": 0.1522727,
                "tempo": 120.0
            },
            {
                "start_time": 4.1181818,
                "end_time": 5.8977273,
                "pitch": 78,
                "velocity": 64,
                "duration": 1.7795455,
                "tempo": 120.0
            },
            {
                "start_time": 5.8954545,
                "end_time": 5.8977273,
                "pitch": 78,
                "velocity": 64,
                "duration": 0.0022727,
                "tempo": 120.0
            },
            {
                "start_time": 5.8977273,
                "end_time": 6.2340909,
                "pitch": 67,
                "velocity": 64,
                "duration": 0.3363636,
                "tempo": 120.0
            },
            {
                "start_time": 6.9659091,
                "end_time": 7.1227273,
                "pitch": 67,
                "velocity": 64,
                "duration": 0.1568182,
                "tempo": 120.0
            },
            {
                "start_time": 7.3272727,
                "end_time": 7.4818182,
                "pitch": 67,
                "velocity": 64,
                "duration": 0.1545455,
                "tempo": 120.0
            },
            {
                "start_time": 8.3977273,
                "end_time": 9.7909091,
                "pitch": 65,
                "velocity": 64,
                "duration": 1.3931818,
                "tempo": 120.0
            },
            {
                "start_time": 9.8159091,
                "end_time": 11.2340909,
                "pitch": 65,
                "velocity": 64,
                "duration": 1.4181818,
                "tempo": 120.0
            },
            {
                "start_time": 11.6136364,
                "end_time": 11.9431818,
                "pitch": 67,
                "velocity": 64,
                "duration": 0.3295455,
                "tempo": 120.0
            },
            {
                "start_time": 6.9659091,
                "end_time": 12.6886364,
                "pitch": 78,
                "velocity": 64,
                "duration": 5.7227273,
                "tempo": 120.0
            },
            {
                "start_time": 12.6886364,
                "end_time": 12.8431818,
                "pitch": 67,
                "velocity": 64,
                "duration": 0.1545455,
                "tempo": 120.0
            },
            {
                "start_time": 13.0431818,
                "end_time": 13.1954545,
                "pitch": 67,
                "velocity": 64,
                "duration": 0.1522727,
                "tempo": 120.0
            },
            {
                "start_time": 12.6886364,
                "end_time": 14.4681818,
                "pitch": 78,
                "velocity": 64,
                "duration": 1.7795455,
                "tempo": 120.0
            },
            {
                "start_time": 14.4681818,
                "end_time": 14.8045455,
                "pitch": 67,
                "velocity": 64,
                "duration": 0.3363636,
                "tempo": 120.0
            },
            {
                "start_time": 14.4681818,
                "end_time": 15.5363636,
                "pitch": 78,
                "velocity": 64,
                "duration": 1.0681818,
                "tempo": 120.0
            },
            {
                "start_time": 15.5363636,
                "end_time": 15.6931818,
                "pitch": 67,
                "velocity": 64,
                "duration": 0.1568182,
                "tempo": 120.0
            },
            {
                "start_time": 15.8977273,
                "end_time": 16.0545455,
                "pitch": 67,
                "velocity": 64,
                "duration": 0.1568182,
                "tempo": 120.0
            },
            {
                "start_time": 15.5363636,
                "end_time": 17.3227273,
                "pitch": 78,
                "velocity": 64,
                "duration": 1.7863636,
                "tempo": 120.0
            },
            {
                "start_time": 17.3227273,
                "end_time": 17.6522727,
                "pitch": 67,
                "velocity": 64,
                "duration": 0.3295455,
                "tempo": 120.0
            },
            {
                "start_time": 17.3227273,
                "end_time": 18.3977273,
                "pitch": 78,
                "velocity": 64,
                "duration": 1.075,
                "tempo": 120.0
            },
            {
                "start_time": 18.3977273,
                "end_time": 18.5545455,
                "pitch": 67,
                "velocity": 64,
                "duration": 0.1568182,
                "tempo": 120.0
            },
            {
                "start_time": 18.7590909,
                "end_time": 18.9136364,
                "pitch": 67,
                "velocity": 64,
                "duration": 0.1545455,
                "tempo": 120.0
            },
            {
                "start_time": 19.8159091,
                "end_time": 21.2227273,
                "pitch": 65,
                "velocity": 64,
                "duration": 1.4068182,
                "tempo": 120.0
            },
            {
                "start_time": 21.2477273,
                "end_time": 22.6522727,
                "pitch": 65,
                "velocity": 64,
                "duration": 1.4045455,
                "tempo": 120.0
            },
            {
                "start_time": 22.6772727,
                "end_time": 23.0136364,
                "pitch": 63,
                "velocity": 64,
                "duration": 0.3363636,
                "tempo": 120.0
            },
            {
                "start_time": 18.3977273,
                "end_time": 23.0386364,
                "pitch": 78,
                "velocity": 64,
                "duration": 4.6409091,
                "tempo": 120.0
            },
            {
                "start_time": 23.0363636,
                "end_time": 23.0386364,
                "pitch": 78,
                "velocity": 64,
                "duration": 0.0022727,
                "tempo": 120.0
            },
            {
                "start_time": 23.0386364,
                "end_time": 23.1931818,
                "pitch": 67,
                "velocity": 64,
                "duration": 0.1545455,
                "tempo": 120.0
            },
            {
                "start_time": 23.3977273,
                "end_time": 23.5522727,
                "pitch": 67,
                "velocity": 64,
                "duration": 0.1545455,
                "tempo": 120.0
            },
            {
                "start_time": 23.575,
                "end_time": 23.7295455,
                "pitch": 68,
                "velocity": 64,
                "duration": 0.1545455,
                "tempo": 120.0
            },
            {
                "start_time": 23.9295455,
                "end_time": 24.3159091,
                "pitch": 72,
                "velocity": 64,
                "duration": 0.3863636,
                "tempo": 120.0
            },
            {
                "start_time": 24.3340909,
                "end_time": 24.7181818,
                "pitch": 70,
                "velocity": 64,
                "duration": 0.3840909,
                "tempo": 120.0
            },
            {
                "start_time": 24.7363636,
                "end_time": 25.1181818,
                "pitch": 70,
                "velocity": 64,
                "duration": 0.3818182,
                "tempo": 120.0
            },
            {
                "start_time": 25.1363636,
                "end_time": 25.5295455,
                "pitch": 75,
                "velocity": 64,
                "duration": 0.3931818,
                "tempo": 120.0
            },
            {
                "start_time": 25.5477273,
                "end_time": 25.9227273,
                "pitch": 75,
                "velocity": 64,
                "duration": 0.375,
                "tempo": 120.0
            },
            {
                "start_time": 25.9409091,
                "end_time": 26.1954545,
                "pitch": 75,
                "velocity": 64,
                "duration": 0.2545455,
                "tempo": 120.0
            },
            {
                "start_time": 26.2136364,
                "end_time": 26.3318182,
                "pitch": 75,
                "velocity": 64,
                "duration": 0.1181818,
                "tempo": 120.0
            },
            {
                "start_time": 11.6136364,
                "end_time": 27.1340909,
                "pitch": 77,
                "velocity": 64,
                "duration": 15.5204545,
                "tempo": 120.0
            },
            {
                "start_time": 27.1340909,
                "end_time": 29.5568182,
                "pitch": 68,
                "velocity": 64,
                "duration": 2.4227273,
                "tempo": 120.0
            },
            {
                "start_time": 29.8431818,
                "end_time": 29.9568182,
                "pitch": 68,
                "velocity": 64,
                "duration": 0.1136364,
                "tempo": 120.0
            },
            {
                "start_time": 30.2363636,
                "end_time": 30.3545455,
                "pitch": 68,
                "velocity": 64,
                "duration": 0.1181818,
                "tempo": 120.0
            },
            {
                "start_time": 30.6477273,
                "end_time": 30.7636364,
                "pitch": 68,
                "velocity": 64,
                "duration": 0.1159091,
                "tempo": 120.0
            }
        ],
        "Flute": [
            {
                "start_time": 0.5363636,
                "end_time": 0.8727273,
                "pitch": 77,
                "velocity": 40,
                "duration": 0.3363636,
                "tempo": 120.0
            },
            {
                "start_time": 0.8954545,
                "end_time": 1.2318182,
                "pitch": 79,
                "velocity": 40,
                "duration": 0.3363636,
                "tempo": 120.0
            },
            {
                "start_time": 1.2590909,
                "end_time": 3.0181818,
                "pitch": 79,
                "velocity": 40,
                "duration": 1.7590909,
                "tempo": 120.0
            },
            {
                "start_time": 3.3977273,
                "end_time": 3.7340909,
                "pitch": 77,
                "velocity": 40,
                "duration": 0.3363636,
                "tempo": 120.0
            },
            {
                "start_time": 0.8954545,
                "end_time": 3.7568182,
                "pitch": 90,
                "velocity": 40,
                "duration": 2.8613636,
                "tempo": 120.0
            },
            {
                "start_time": 3.7568182,
                "end_time": 4.0931818,
                "pitch": 79,
                "velocity": 40,
                "duration": 0.3363636,
                "tempo": 120.0
            },
            {
                "start_time": 4.1204545,
                "end_time": 5.8727273,
                "pitch": 79,
                "velocity": 40,
                "duration": 1.7522727,
                "tempo": 120.0
            },
            {
                "start_time": 3.3977273,
                "end_time": 6.2568182,
                "pitch": 33,
                "velocity": 40,
                "duration": 2.8590909,
                "tempo": 120.0
            },
            {
                "start_time": 6.2568182,
                "end_time": 6.5886364,
                "pitch": 77,
                "velocity": 40,
                "duration": 0.3318182,
                "tempo": 120.0
            },
            {
                "start_time": 3.7568182,
                "end_time": 6.6113636,
                "pitch": 90,
                "velocity": 40,
                "duration": 2.8545455,
                "tempo": 120.0
            },
            {
                "start_time": 6.6113636,
                "end_time": 6.9431818,
                "pitch": 79,
                "velocity": 40,
                "duration": 0.3318182,
                "tempo": 120.0
            },
            {
                "start_time": 6.9681818,
                "end_time": 8.7340909,
                "pitch": 79,
                "velocity": 40,
                "duration": 1.7659091,
                "tempo": 120.0
            },
            {
                "start_time": 8.7568182,
                "end_time": 9.7909091,
                "pitch": 80,
                "velocity": 40,
                "duration": 1.0340909,
                "tempo": 120.0
            },
            {
                "start_time": 9.8159091,
                "end_time": 11.5886364,
                "pitch": 80,
                "velocity": 40,
                "duration": 1.7727273,
                "tempo": 120.0
            },
            {
                "start_time": 11.9681818,
                "end_time": 12.3045455,
                "pitch": 77,
                "velocity": 40,
                "duration": 0.3363636,
                "tempo": 120.0
            },
            {
                "start_time": 6.6113636,
                "end_time": 12.3272727,
                "pitch": 90,
                "velocity": 40,
                "duration": 5.7159091,
                "tempo": 120.0
            },
            {
                "start_time": 12.3272727,
                "end_time": 12.6659091,
                "pitch": 79,
                "velocity": 40,
                "duration": 0.3386364,
                "tempo": 120.0
            },
            {
                "start_time": 12.6909091,
                "end_time": 14.4431818,
                "pitch": 79,
                "velocity": 40,
                "duration": 1.7522727,
                "tempo": 120.0
            },
            {
                "start_time": 6.2568182,
                "end_time": 14.8295455,
                "pitch": 33,
                "velocity": 40,
                "duration": 8.5727273,
                "tempo": 120.0
            },
            {
                "start_time": 14.8295455,
                "end_time": 15.1590909,
                "pitch": 77,
                "velocity": 40,
                "duration": 0.3295455,
                "tempo": 120.0
            },
            {
                "start_time": 12.3272727,
                "end_time": 15.1818182,
                "pitch": 90,
                "velocity": 40,
                "duration": 2.8545455,
                "tempo": 120.0
            },
            {
                "start_time": 15.1818182,
                "end_time": 15.5136364,
                "pitch": 79,
                "velocity": 40,
                "duration": 0.3318182,
                "tempo": 120.0
            },
            {
                "start_time": 15.5386364,
                "end_time": 17.3,
                "pitch": 79,
                "velocity": 40,
                "duration": 1.7613636,
                "tempo": 120.0
            },
            {
                "start_time": 14.8295455,
                "end_time": 17.6772727,
                "pitch": 33,
                "velocity": 40,
                "duration": 2.8477273,
                "tempo": 120.0
            },
            {
                "start_time": 17.6772727,
                "end_time": 18.0136364,
                "pitch": 77,
                "velocity": 40,
                "duration": 0.3363636,
                "tempo": 120.0
            },
            {
                "start_time": 15.1818182,
                "end_time": 18.0363636,
                "pitch": 90,
                "velocity": 40,
                "duration": 2.8545455,
                "tempo": 120.0
            },
            {
                "start_time": 18.0363636,
                "end_time": 18.375,
                "pitch": 79,
                "velocity": 40,
                "duration": 0.3386364,
                "tempo": 120.0
            },
            {
                "start_time": 18.4,
                "end_time": 20.1522727,
                "pitch": 79,
                "velocity": 40,
                "duration": 1.7522727,
                "tempo": 120.0
            },
            {
                "start_time": 20.1772727,
                "end_time": 21.2227273,
                "pitch": 80,
                "velocity": 40,
                "duration": 1.0454545,
                "tempo": 120.0
            },
            {
                "start_time": 21.25,
                "end_time": 22.6545455,
                "pitch": 80,
                "velocity": 40,
                "duration": 1.4045455,
                "tempo": 120.0
            },
            {
                "start_time": 11.9681818,
                "end_time": 22.6795455,
                "pitch": 2,
                "velocity": 40,
                "duration": 10.7113636,
                "tempo": 120.0
            },
            {
                "start_time": 22.6795455,
                "end_time": 24.5840909,
                "pitch": 72,
                "velocity": 40,
                "duration": 1.9045455,
                "tempo": 120.0
            },
            {
                "start_time": 24.6022727,
                "end_time": 24.9840909,
                "pitch": 72,
                "velocity": 40,
                "duration": 0.3818182,
                "tempo": 120.0
            },
            {
                "start_time": 25.0022727,
                "end_time": 25.3909091,
                "pitch": 73,
                "velocity": 40,
                "duration": 0.3886364,
                "tempo": 120.0
            },
            {
                "start_time": 25.4090909,
                "end_time": 25.7909091,
                "pitch": 80,
                "velocity": 40,
                "duration": 0.3818182,
                "tempo": 120.0
            },
            {
                "start_time": 25.8090909,
                "end_time": 26.1954545,
                "pitch": 80,
                "velocity": 40,
                "duration": 0.3863636,
                "tempo": 120.0
            },
            {
                "start_time": 22.6795455,
                "end_time": 26.2159091,
                "pitch": 2,
                "velocity": 40,
                "duration": 3.5363636,
                "tempo": 120.0
            },
            {
                "start_time": 26.2159091,
                "end_time": 26.4613636,
                "pitch": 77,
                "velocity": 40,
                "duration": 0.2454545,
                "tempo": 120.0
            },
            {
                "start_time": 26.4772727,
                "end_time": 26.5886364,
                "pitch": 77,
                "velocity": 40,
                "duration": 0.1113636,
                "tempo": 120.0
            },
            {
                "start_time": 26.8659091,
                "end_time": 27.3954545,
                "pitch": 70,
                "velocity": 40,
                "duration": 0.5295455,
                "tempo": 120.0
            },
            {
                "start_time": 27.4159091,
                "end_time": 29.575,
                "pitch": 72,
                "velocity": 40,
                "duration": 2.1590909,
                "tempo": 120.0
            },
            {
                "start_time": 29.8454545,
                "end_time": 29.9568182,
                "pitch": 68,
                "velocity": 40,
                "duration": 0.1113636,
                "tempo": 120.0
            },
            {
                "start_time": 30.2386364,
                "end_time": 30.3545455,
                "pitch": 68,
                "velocity": 40,
                "duration": 0.1159091,
                "tempo": 120.0
            },
            {
                "start_time": 30.65,
                "end_time": 30.7636364,
                "pitch": 68,
                "velocity": 40,
                "duration": 0.1136364,
                "tempo": 120.0
            },
            {
                "start_time": 45.6704545,
                "end_time": 46.1931818,
                "pitch": 63,
                "velocity": 40,
                "duration": 0.5227273,
                "tempo": 120.0
            },
            {
                "start_time": 26.8659091,
                "end_time": 46.2113636,
                "pitch": 77,
                "velocity": 40,
                "duration": 19.3454545,
                "tempo": 120.0
            },
            {
                "start_time": 46.2113636,
                "end_time": 46.7227273,
                "pitch": 67,
                "velocity": 40,
                "duration": 0.5113636,
                "tempo": 120.0
            },
            {
                "start_time": 46.7409091,
                "end_time": 47.7931818,
                "pitch": 67,
                "velocity": 40,
                "duration": 1.0522727,
                "tempo": 120.0
            }
        ],
        "Vibraphone": [
            {
                "start_time": 63.9022727,
                "end_time": 64.0181818,
                "pitch": 84,
                "velocity": 40,
                "duration": 0.1159091,
                "tempo": 120.0
            },
            {
                "start_time": 64.0363636,
                "end_time": 64.1522727,
                "pitch": 77,
                "velocity": 40,
                "duration": 0.1159091,
                "tempo": 120.0
            },
            {
                "start_time": 64.0363636,
                "end_time": 64.2863636,
                "pitch": 72,
                "velocity": 40,
                "duration": 0.25,
                "tempo": 120.0
            },
            {
                "start_time": 64.1704545,
                "end_time": 64.2863636,
                "pitch": 72,
                "velocity": 40,
                "duration": 0.1159091,
                "tempo": 120.0
            },
            {
                "start_time": 64.3045455,
                "end_time": 64.4181818,
                "pitch": 84,
                "velocity": 40,
                "duration": 0.1136364,
                "tempo": 120.0
            },
            {
                "start_time": 64.1704545,
                "end_time": 64.5522727,
                "pitch": 77,
                "velocity": 40,
                "duration": 0.3818182,
                "tempo": 120.0
            },
            {
                "start_time": 64.4363636,
                "end_time": 64.5522727,
                "pitch": 77,
                "velocity": 40,
                "duration": 0.1159091,
                "tempo": 120.0
            },
            {
                "start_time": 64.4363636,
                "end_time": 64.6863636,
                "pitch": 72,
                "velocity": 40,
                "duration": 0.25,
                "tempo": 120.0
            },
            {
                "start_time": 64.5704545,
                "end_time": 64.6863636,
                "pitch": 72,
                "velocity": 40,
                "duration": 0.1159091,
                "tempo": 120.0
            },
            {
                "start_time": 64.7045455,
                "end_time": 64.8204545,
                "pitch": 84,
                "velocity": 40,
                "duration": 0.1159091,
                "tempo": 120.0
            },
            {
                "start_time": 64.5704545,
                "end_time": 64.95,
                "pitch": 77,
                "velocity": 40,
                "duration": 0.3795455,
                "tempo": 120.0
            },
            {
                "start_time": 64.8386364,
                "end_time": 64.95,
                "pitch": 77,
                "velocity": 40,
                "duration": 0.1113636,
                "tempo": 120.0
            },
            {
                "start_time": 64.9704545,
                "end_time": 65.0818182,
                "pitch": 77,
                "velocity": 40,
                "duration": 0.1113636,
                "tempo": 120.0
            },
            {
                "start_time": 65.2318182,
                "end_time": 65.3477273,
                "pitch": 79,
                "velocity": 40,
                "duration": 0.1159091,
                "tempo": 120.0
            },
            {
                "start_time": 65.5045455,
                "end_time": 65.6227273,
                "pitch": 79,
                "velocity": 40,
                "duration": 0.1181818,
                "tempo": 120.0
            },
            {
                "start_time": 65.775,
                "end_time": 65.8909091,
                "pitch": 84,
                "velocity": 40,
                "duration": 0.1159091,
                "tempo": 120.0
            },
            {
                "start_time": 63.9022727,
                "end_time": 98.5045455,
                "pitch": 89,
                "velocity": 40,
                "duration": 34.6022727,
                "tempo": 120.0
            },
            {
                "start_time": 98.2477273,
                "end_time": 98.5045455,
                "pitch": 89,
                "velocity": 32,
                "duration": 0.2568182,
                "tempo": 120.0
            },
            {
                "start_time": 98.5227273,
                "end_time": 98.6409091,
                "pitch": 89,
                "velocity": 32,
                "duration": 0.1181818,
                "tempo": 120.0
            },
            {
                "start_time": 98.2477273,
                "end_time": 98.7727273,
                "pitch": 84,
                "velocity": 32,
                "duration": 0.525,
                "tempo": 120.0
            },
            {
                "start_time": 98.6590909,
                "end_time": 98.7727273,
                "pitch": 84,
                "velocity": 32,
                "duration": 0.1136364,
                "tempo": 120.0
            },
            {
                "start_time": 98.7909091,
                "end_time": 98.9045455,
                "pitch": 80,
                "velocity": 32,
                "duration": 0.1136364,
                "tempo": 120.0
            },
            {
                "start_time": 65.775,
                "end_time": 98.9227273,
                "pitch": 45,
                "velocity": 40,
                "duration": 33.1477273,
                "tempo": 120.0
            },
            {
                "start_time": 98.9204545,
                "end_time": 98.9227273,
                "pitch": 45,
                "velocity": 32,
                "duration": 0.0022727,
                "tempo": 120.0
            },
            {
                "start_time": 98.9227273,
                "end_time": 99.0340909,
                "pitch": 84,
                "velocity": 32,
                "duration": 0.1113636,
                "tempo": 120.0
            },
            {
                "start_time": 98.7909091,
                "end_time": 99.0522727,
                "pitch": 88,
                "velocity": 32,
                "duration": 0.2613636,
                "tempo": 120.0
            },
            {
                "start_time": 99.0522727,
                "end_time": 99.1681818,
                "pitch": 80,
                "velocity": 32,
                "duration": 0.1159091,
                "tempo": 120.0
            },
            {
                "start_time": 99.1863636,
                "end_time": 99.3022727,
                "pitch": 80,
                "velocity": 32,
                "duration": 0.1159091,
                "tempo": 120.0
            },
            {
                "start_time": 99.3181818,
                "end_time": 99.5704545,
                "pitch": 77,
                "velocity": 32,
                "duration": 0.2522727,
                "tempo": 120.0
            },
            {
                "start_time": 99.5909091,
                "end_time": 99.7090909,
                "pitch": 77,
                "velocity": 32,
                "duration": 0.1181818,
                "tempo": 120.0
            },
            {
                "start_time": 64.8386364,
                "end_time": 99.8454545,
                "pitch": 72,
                "velocity": 40,
                "duration": 35.0068182,
                "tempo": 120.0
            },
            {
                "start_time": 99.7272727,
                "end_time": 99.8454545,
                "pitch": 72,
                "velocity": 32,
                "duration": 0.1181818,
                "tempo": 120.0
            },
            {
                "start_time": 99.8659091,
                "end_time": 99.9818182,
                "pitch": 68,
                "velocity": 32,
                "duration": 0.1159091,
                "tempo": 120.0
            },
            {
                "start_time": 100.0,
                "end_time": 100.1159091,
                "pitch": 72,
                "velocity": 32,
                "duration": 0.1159091,
                "tempo": 120.0
            },
            {
                "start_time": 99.8659091,
                "end_time": 100.1340909,
                "pitch": 76,
                "velocity": 32,
                "duration": 0.2681818,
                "tempo": 120.0
            },
            {
                "start_time": 100.1340909,
                "end_time": 100.25,
                "pitch": 68,
                "velocity": 32,
                "duration": 0.1159091,
                "tempo": 120.0
            },
            {
                "start_time": 100.2681818,
                "end_time": 100.3840909,
                "pitch": 68,
                "velocity": 32,
                "duration": 0.1159091,
                "tempo": 120.0
            }
        ],
        "Oboe": [
            {
                "start_time": 66.1772727,
                "end_time": 67.6295455,
                "pitch": 53,
                "velocity": 32,
                "duration": 1.4522727,
                "tempo": 120.0
            },
            {
                "start_time": 67.6477273,
                "end_time": 68.0295455,
                "pitch": 56,
                "velocity": 32,
                "duration": 0.3818182,
                "tempo": 120.0
            },
            {
                "start_time": 68.05,
                "end_time": 68.3022727,
                "pitch": 53,
                "velocity": 32,
                "duration": 0.2522727,
                "tempo": 120.0
            },
            {
                "start_time": 67.6477273,
                "end_time": 68.3227273,
                "pitch": 66,
                "velocity": 32,
                "duration": 0.675,
                "tempo": 120.0
            },
            {
                "start_time": 68.3227273,
                "end_time": 69.9136364,
                "pitch": 55,
                "velocity": 32,
                "duration": 1.5909091,
                "tempo": 120.0
            },
            {
                "start_time": 70.4568182,
                "end_time": 71.9227273,
                "pitch": 55,
                "velocity": 32,
                "duration": 1.4659091,
                "tempo": 120.0
            },
            {
                "start_time": 71.9409091,
                "end_time": 72.3295455,
                "pitch": 58,
                "velocity": 32,
                "duration": 0.3886364,
                "tempo": 120.0
            },
            {
                "start_time": 71.9409091,
                "end_time": 72.7363636,
                "pitch": 55,
                "velocity": 32,
                "duration": 0.7954545,
                "tempo": 120.0
            },
            {
                "start_time": 72.35,
                "end_time": 72.7363636,
                "pitch": 55,
                "velocity": 32,
                "duration": 0.3863636,
                "tempo": 120.0
            },
            {
                "start_time": 72.7545455,
                "end_time": 73.6659091,
                "pitch": 55,
                "velocity": 32,
                "duration": 0.9113636,
                "tempo": 120.0
            },
            {
                "start_time": 74.7613636,
                "end_time": 75.15,
                "pitch": 53,
                "velocity": 32,
                "duration": 0.3886364,
                "tempo": 120.0
            },
            {
                "start_time": 75.1681818,
                "end_time": 76.2227273,
                "pitch": 51,
                "velocity": 32,
                "duration": 1.0545455,
                "tempo": 120.0
            },
            {
                "start_time": 68.3227273,
                "end_time": 76.2409091,
                "pitch": 66,
                "velocity": 32,
                "duration": 7.9181818,
                "tempo": 120.0
            },
            {
                "start_time": 76.2409091,
                "end_time": 76.6227273,
                "pitch": 56,
                "velocity": 32,
                "duration": 0.3818182,
                "tempo": 120.0
            },
            {
                "start_time": 76.6409091,
                "end_time": 76.8840909,
                "pitch": 56,
                "velocity": 32,
                "duration": 0.2431818,
                "tempo": 120.0
            },
            {
                "start_time": 77.9795455,
                "end_time": 79.0363636,
                "pitch": 46,
                "velocity": 32,
                "duration": 1.0568182,
                "tempo": 120.0
            },
            {
                "start_time": 79.0545455,
                "end_time": 79.0568182,
                "pitch": 27,
                "velocity": 32,
                "duration": 0.0022727,
                "tempo": 120.0
            },
            {
                "start_time": 66.1772727,
                "end_time": 81.3181818,
                "pitch": 48,
                "velocity": 32,
                "duration": 15.1409091,
                "tempo": 120.0
            },
            {
                "start_time": 79.0568182,
                "end_time": 81.3181818,
                "pitch": 48,
                "velocity": 32,
                "duration": 2.2613636,
                "tempo": 120.0
            },
            {
                "start_time": 82.4136364,
                "end_time": 82.5340909,
                "pitch": 48,
                "velocity": 32,
                "duration": 0.1204545,
                "tempo": 120.0
            },
            {
                "start_time": 82.6863636,
                "end_time": 82.7977273,
                "pitch": 48,
                "velocity": 32,
                "duration": 0.1113636,
                "tempo": 120.0
            },
            {
                "start_time": 82.9477273,
                "end_time": 83.0613636,
                "pitch": 48,
                "velocity": 32,
                "duration": 0.1136364,
                "tempo": 120.0
            },
            {
                "start_time": 83.2159091,
                "end_time": 83.3295455,
                "pitch": 51,
                "velocity": 32,
                "duration": 0.1136364,
                "tempo": 120.0
            },
            {
                "start_time": 83.35,
                "end_time": 84.8113636,
                "pitch": 51,
                "velocity": 32,
                "duration": 1.4613636,
                "tempo": 120.0
            },
            {
                "start_time": 76.2409091,
                "end_time": 84.8318182,
                "pitch": 66,
                "velocity": 32,
                "duration": 8.5909091,
                "tempo": 120.0
            },
            {
                "start_time": 84.8318182,
                "end_time": 85.2181818,
                "pitch": 56,
                "velocity": 32,
                "duration": 0.3863636,
                "tempo": 120.0
            },
            {
                "start_time": 68.05,
                "end_time": 85.2386364,
                "pitch": 8,
                "velocity": 32,
                "duration": 17.1886364,
                "tempo": 120.0
            },
            {
                "start_time": 77.9795455,
                "end_time": 85.4863636,
                "pitch": 53,
                "velocity": 32,
                "duration": 7.5068182,
                "tempo": 120.0
            },
            {
                "start_time": 85.2386364,
                "end_time": 85.4863636,
                "pitch": 53,
                "velocity": 32,
                "duration": 0.2477273,
                "tempo": 120.0
            },
            {
                "start_time": 84.8318182,
                "end_time": 85.5045455,
                "pitch": 66,
                "velocity": 32,
                "duration": 0.6727273,
                "tempo": 120.0
            },
            {
                "start_time": 85.5045455,
                "end_time": 87.0954545,
                "pitch": 55,
                "velocity": 32,
                "duration": 1.5909091,
                "tempo": 120.0
            },
            {
                "start_time": 87.65,
                "end_time": 89.1136364,
                "pitch": 55,
                "velocity": 32,
                "duration": 1.4636364,
                "tempo": 120.0
            },
            {
                "start_time": 72.35,
                "end_time": 89.5090909,
                "pitch": 58,
                "velocity": 32,
                "duration": 17.1590909,
                "tempo": 120.0
            },
            {
                "start_time": 89.1318182,
                "end_time": 89.5090909,
                "pitch": 58,
                "velocity": 32,
                "duration": 0.3772727,
                "tempo": 120.0
            },
            {
                "start_time": 89.1318182,
                "end_time": 89.775,
                "pitch": 55,
                "velocity": 32,
                "duration": 0.6431818,
                "tempo": 120.0
            },
            {
                "start_time": 89.5272727,
                "end_time": 89.775,
                "pitch": 55,
                "velocity": 32,
                "duration": 0.2477273,
                "tempo": 120.0
            },
            {
                "start_time": 90.4659091,
                "end_time": 90.7136364,
                "pitch": 53,
                "velocity": 32,
                "duration": 0.2477273,
                "tempo": 120.0
            },
            {
                "start_time": 90.7318182,
                "end_time": 91.1181818,
                "pitch": 48,
                "velocity": 32,
                "duration": 0.3863636,
                "tempo": 120.0
            },
            {
                "start_time": 91.275,
                "end_time": 91.6613636,
                "pitch": 48,
                "velocity": 32,
                "duration": 0.3863636,
                "tempo": 120.0
            },
            {
                "start_time": 90.7318182,
                "end_time": 91.9295455,
                "pitch": 53,
                "velocity": 32,
                "duration": 1.1977273,
                "tempo": 120.0
            },
            {
                "start_time": 91.6818182,
                "end_time": 91.9295455,
                "pitch": 53,
                "velocity": 32,
                "duration": 0.2477273,
                "tempo": 120.0
            },
            {
                "start_time": 85.5045455,
                "end_time": 91.95,
                "pitch": 66,
                "velocity": 32,
                "duration": 6.4454545,
                "tempo": 120.0
            },
            {
                "start_time": 91.95,
                "end_time": 93.3977273,
                "pitch": 56,
                "velocity": 32,
                "duration": 1.4477273,
                "tempo": 120.0
            },
            {
                "start_time": 93.4159091,
                "end_time": 93.6704545,
                "pitch": 56,
                "velocity": 32,
                "duration": 0.2545455,
                "tempo": 120.0
            },
            {
                "start_time": 93.6909091,
                "end_time": 93.9409091,
                "pitch": 55,
                "velocity": 32,
                "duration": 0.25,
                "tempo": 120.0
            },
            {
                "start_time": 93.9590909,
                "end_time": 95.0159091,
                "pitch": 56,
                "velocity": 32,
                "duration": 1.0568182,
                "tempo": 120.0
            },
            {
                "start_time": 95.0340909,
                "end_time": 95.2818182,
                "pitch": 55,
                "velocity": 32,
                "duration": 0.2477273,
                "tempo": 120.0
            },
            {
                "start_time": 95.0340909,
                "end_time": 95.6840909,
                "pitch": 67,
                "velocity": 32,
                "duration": 0.65,
                "tempo": 120.0
            },
            {
                "start_time": 95.3,
                "end_time": 95.6840909,
                "pitch": 67,
                "velocity": 32,
                "duration": 0.3840909,
                "tempo": 120.0
            },
            {
                "start_time": 96.1045455,
                "end_time": 96.2181818,
                "pitch": 65,
                "velocity": 32,
                "duration": 0.1136364,
                "tempo": 120.0
            },
            {
                "start_time": 96.2363636,
                "end_time": 97.9636364,
                "pitch": 60,
                "velocity": 32,
                "duration": 1.7272727,
                "tempo": 120.0
            }
        ]
    }
}