{
    "mood": "happy",
    "instruments": {
        "Trumpet": [
            {
                "start_time": 0.0090909,
                "end_time": 0.4477273,
                "pitch": 0,
                "velocity": 4,
                "duration": 0.4386364,
                "tempo": 120.0
            },
            {
                "start_time": 0.45,
                "end_time": 0.6477273,
                "pitch": 62,
                "velocity": 40,
                "duration": 0.1977273,
                "tempo": 120.0
            },
            {
                "start_time": 0.6727273,
                "end_time": 0.7204545,
                "pitch": 62,
                "velocity": 40,
                "duration": 0.0477273,
                "tempo": 120.0
            },
            {
                "start_time": 0.7204545,
                "end_time": 0.7772727,
                "pitch": 64,
                "velocity": 40,
                "duration": 0.0568182,
                "tempo": 120.0
            },
            {
                "start_time": 0.7795455,
                "end_time": 0.8159091,
                "pitch": 65,
                "velocity": 40,
                "duration": 0.0363636,
                "tempo": 120.0
            },
            {
                "start_time": 0.8159091,
                "end_time": 0.8636364,
                "pitch": 67,
                "velocity": 40,
                "duration": 0.0477273,
                "tempo": 120.0
            },
            {
                "start_time": 0.8636364,
                "end_time": 0.9272727,
                "pitch": 69,
                "velocity": 40,
                "duration": 0.0636364,
                "tempo": 120.0
            },
            {
                "start_time": 0.9295455,
                "end_time": 0.9909091,
                "pitch": 71,
                "velocity": 40,
                "duration": 0.0613636,
                "tempo": 120.0
            },
            {
                "start_time": 0.9931818,
                "end_time": 1.0568182,
                "pitch": 72,
                "velocity": 40,
                "duration": 0.0636364,
                "tempo": 120.0
            },
            {
                "start_time": 1.0568182,
                "end_time": 1.125,
                "pitch": 74,
                "velocity": 40,
                "duration": 0.0681818,
                "tempo": 120.0
            },
            {
                "start_time": 1.125,
                "end_time": 1.8431818,
                "pitch": 76,
                "velocity": 51,
                "duration": 0.7181818,
                "tempo": 120.0
            },
            {
                "start_time": 2.0681818,
                "end_time": 2.3340909,
                "pitch": 69,
                "velocity": 51,
                "duration": 0.2659091,
                "tempo": 120.0
            },
            {
                "start_time": 2.4204545,
                "end_time": 2.6863636,
                "pitch": 72,
                "velocity": 51,
                "duration": 0.2659091,
                "tempo": 120.0
            },
            {
                "start_time": 2.7772727,
                "end_time": 2.9545455,
                "pitch": 79,
                "velocity": 51,
                "duration": 0.1772727,
                "tempo": 120.0
            },
            {
                "start_time": 3.0113636,
                "end_time": 3.2727273,
                "pitch": 77,
                "velocity": 51,
                "duration": 0.2613636,
                "tempo": 120.0
            },
            {
                "start_time": 3.3636364,
                "end_time": 3.625,
                "pitch": 76,
                "velocity": 51,
                "duration": 0.2613636,
                "tempo": 120.0
            },
            {
                "start_time": 3.7159091,
                "end_time": 4.2386364,
                "pitch": 71,
                "velocity": 51,
                "duration": 0.5227273,
                "tempo": 120.0
            },
            {
                "start_time": 4.4136364,
                "end_time": 4.5886364,
                "pitch": 67,
                "velocity": 51,
                "duration": 0.175,
                "tempo": 120.0
            },
            {
                "start_time": 4.6477273,
                "end_time": 4.8272727,
                "pitch": 71,
                "velocity": 51,
                "duration": 0.1795455,
                "tempo": 120.0
            },
            {
                "start_time": 4.8863636,
                "end_time": 5.2272727,
                "pitch": 69,
                "velocity": 51,
                "duration": 0.3409091,
                "tempo": 120.0
            },
            {
                "start_time": 5.3431818,
                "end_time": 5.6954545,
                "pitch": 76,
                "velocity": 51,
                "duration": 0.3522727,
                "tempo": 120.0
            },
            {
                "start_time": 5.8113636,
                "end_time": 5.8909091,
                "pitch": 74,
                "velocity": 51,
                "duration": 0.0795455,
                "tempo": 120.0
            },
            {
                "start_time": 5.9340909,
                "end_time": 6.0045455,
                "pitch": 72,
                "velocity": 51,
                "duration": 0.0704545,
                "tempo": 120.0
            },
            {
                "start_time": 6.0409091,
                "end_time": 6.1568182,
                "pitch": 72,
                "velocity": 4,
                "duration": 0.1159091,
                "tempo": 120.0
            },
            {
                "start_time": 6.1568182,
                "end_time": 6.2340909,
                "pitch": 71,
                "velocity": 51,
                "duration": 0.0772727,
                "tempo": 120.0
            },
            {
                "start_time": 6.275,
                "end_time": 6.3909091,
                "pitch": 71,
                "velocity": 4,
                "duration": 0.1159091,
                "tempo": 120.0
            },
            {
                "start_time": 6.3909091,
                "end_time": 6.4727273,
                "pitch": 72,
                "velocity": 51,
                "duration": 0.0818182,
                "tempo": 120.0
            },
            {
                "start_time": 6.5159091,
                "end_time": 6.5931818,
                "pitch": 71,
                "velocity": 51,
                "duration": 0.0772727,
                "tempo": 120.0
            },
            {
                "start_time": 6.6295455,
                "end_time": 6.7136364,
                "pitch": 67,
                "velocity": 51,
                "duration": 0.0840909,
                "tempo": 120.0
            },
            {
                "start_time": 6.7545455,
                "end_time": 7.4363636,
                "pitch": 64,
                "velocity": 51,
                "duration": 0.6818182,
                "tempo": 120.0
            },
            {
                "start_time": 0.8159091,
                "end_time": 7.9022727,
                "pitch": 55,
                "velocity": 40,
                "duration": 7.0863636,
                "tempo": 120.0
            },
            {
                "start_time": 7.675,
                "end_time": 7.9022727,
                "pitch": 64,
                "velocity": 4,
                "duration": 0.2272727,
                "tempo": 120.0
            },
            {
                "start_time": 7.9022727,
                "end_time": 8.0840909,
                "pitch": 67,
                "velocity": 51,
                "duration": 0.1818182,
                "tempo": 120.0
            },
            {
                "start_time": 8.1340909,
                "end_time": 8.2545455,
                "pitch": 67,
                "velocity": 4,
                "duration": 0.1204545,
                "tempo": 120.0
            },
            {
                "start_time": 8.2545455,
                "end_time": 8.5204545,
                "pitch": 68,
                "velocity": 51,
                "duration": 0.2659091,
                "tempo": 120.0
            },
            {
                "start_time": 8.6113636,
                "end_time": 9.3045455,
                "pitch": 69,
                "velocity": 51,
                "duration": 0.6931818,
                "tempo": 120.0
            },
            {
                "start_time": 9.5363636,
                "end_time": 9.7954545,
                "pitch": 71,
                "velocity": 51,
                "duration": 0.2590909,
                "tempo": 120.0
            },
            {
                "start_time": 9.8795455,
                "end_time": 10.1454545,
                "pitch": 72,
                "velocity": 51,
                "duration": 0.2659091,
                "tempo": 120.0
            },
            {
                "start_time": 10.2386364,
                "end_time": 10.4204545,
                "pitch": 74,
                "velocity": 51,
                "duration": 0.1818182,
                "tempo": 120.0
            },
            {
                "start_time": 10.4795455,
                "end_time": 11.1772727,
                "pitch": 67,
                "velocity": 51,
                "duration": 0.6977273,
                "tempo": 120.0
            },
            {
                "start_time": 11.4068182,
                "end_time": 11.5863636,
                "pitch": 71,
                "velocity": 51,
                "duration": 0.1795455,
                "tempo": 120.0
            },
            {
                "start_time": 11.6386364,
                "end_time": 11.7204545,
                "pitch": 69,
                "velocity": 51,
                "duration": 0.0818182,
                "tempo": 120.0
            },
            {
                "start_time": 11.7636364,
                "end_time": 11.8363636,
                "pitch": 63,
                "velocity": 51,
                "duration": 0.0727273,
                "tempo": 120.0
            },
            {
                "start_time": 11.8772727,
                "end_time": 11.9909091,
                "pitch": 63,
                "velocity": 4,
                "duration": 0.1136364,
                "tempo": 120.0
            },
            {
                "start_time": 11.9931818,
                "end_time": 12.0727273,
                "pitch": 64,
                "velocity": 51,
                "duration": 0.0795455,
                "tempo": 120.0
            },
            {
                "start_time": 12.1090909,
                "end_time": 12.225,
                "pitch": 64,
                "velocity": 4,
                "duration": 0.1159091,
                "tempo": 120.0
            },
            {
                "start_time": 12.225,
                "end_time": 12.5727273,
                "pitch": 65,
                "velocity": 51,
                "duration": 0.3477273,
                "tempo": 120.0
            },
            {
                "start_time": 12.6909091,
                "end_time": 12.95,
                "pitch": 69,
                "velocity": 51,
                "duration": 0.2590909,
                "tempo": 120.0
            },
            {
                "start_time": 13.0431818,
                "end_time": 13.2181818,
                "pitch": 72,
                "velocity": 51,
                "duration": 0.175,
                "tempo": 120.0
            },
            {
                "start_time": 13.2704545,
                "end_time": 13.5318182,
                "pitch": 76,
                "velocity": 51,
                "duration": 0.2613636,
                "tempo": 120.0
            },
            {
                "start_time": 13.6159091,
                "end_time": 13.8818182,
                "pitch": 72,
                "velocity": 51,
                "duration": 0.2659091,
                "tempo": 120.0
            },
            {
                "start_time": 13.975,
                "end_time": 14.1568182,
                "pitch": 69,
                "velocity": 51,
                "duration": 0.1818182,
                "tempo": 120.0
            },
            {
                "start_time": 14.2136364,
                "end_time": 14.9136364,
                "pitch": 74,
                "velocity": 51,
                "duration": 0.7,
                "tempo": 120.0
            },
            {
                "start_time": 15.1409091,
                "end_time": 15.3181818,
                "pitch": 67,
                "velocity": 51,
                "duration": 0.1772727,
                "tempo": 120.0
            },
            {
                "start_time": 15.3704545,
                "end_time": 15.4477273,
                "pitch": 69,
                "velocity": 51,
                "duration": 0.0772727,
                "tempo": 120.0
            },
            {
                "start_time": 15.4909091,
                "end_time": 15.6636364,
                "pitch": 71,
                "velocity": 51,
                "duration": 0.1727273,
                "tempo": 120.0
            },
            {
                "start_time": 15.7204545,
                "end_time": 15.8022727,
                "pitch": 72,
                "velocity": 51,
                "duration": 0.0818182,
                "tempo": 120.0
            },
            {
                "start_time": 15.8477273,
                "end_time": 15.9204545,
                "pitch": 74,
                "velocity": 51,
                "duration": 0.0727273,
                "tempo": 120.0
            },
            {
                "start_time": 15.9590909,
                "end_time": 16.0409091,
                "pitch": 77,
                "velocity": 51,
                "duration": 0.0818182,
                "tempo": 120.0
            },
            {
                "start_time": 16.0795455,
                "end_time": 16.7772727,
                "pitch": 76,
                "velocity": 51,
                "duration": 0.6977273,
                "tempo": 120.0
            },
            {
                "start_time": 17.0090909,
                "end_time": 17.0863636,
                "pitch": 64,
                "velocity": 51,
                "duration": 0.0772727,
                "tempo": 120.0
            },
            {
                "start_time": 17.1272727,
                "end_time": 17.2022727,
                "pitch": 65,
                "velocity": 51,
                "duration": 0.075,
                "tempo": 120.0
            },
            {
                "start_time": 17.2454545,
                "end_time": 17.3159091,
                "pitch": 69,
                "velocity": 51,
                "duration": 0.0704545,
                "tempo": 120.0
            },
            {
                "start_time": 17.3568182,
                "end_time": 17.4318182,
                "pitch": 72,
                "velocity": 51,
                "duration": 0.075,
                "tempo": 120.0
            },
            {
                "start_time": 17.4681818,
                "end_time": 17.5477273,
                "pitch": 76,
                "velocity": 51,
                "duration": 0.0795455,
                "tempo": 120.0
            },
            {
                "start_time": 17.5909091,
                "end_time": 17.6636364,
                "pitch": 76,
                "velocity": 51,
                "duration": 0.0727273,
                "tempo": 120.0
            },
            {
                "start_time": 17.7,
                "end_time": 17.8181818,
                "pitch": 76,
                "velocity": 4,
                "duration": 0.1181818,
                "tempo": 120.0
            },
            {
                "start_time": 17.8181818,
                "end_time": 18.6045455,
                "pitch": 74,
                "velocity": 51,
                "duration": 0.7863636,
                "tempo": 120.0
            },
            {
                "start_time": 18.875,
                "end_time": 18.9977273,
                "pitch": 74,
                "velocity": 4,
                "duration": 0.1227273,
                "tempo": 120.0
            },
            {
                "start_time": 18.9977273,
                "end_time": 19.0681818,
                "pitch": 64,
                "velocity": 51,
                "duration": 0.0704545,
                "tempo": 120.0
            },
            {
                "start_time": 19.1068182,
                "end_time": 19.1840909,
                "pitch": 67,
                "velocity": 51,
                "duration": 0.0772727,
                "tempo": 120.0
            },
            {
                "start_time": 19.2227273,
                "end_time": 19.2977273,
                "pitch": 71,
                "velocity": 51,
                "duration": 0.075,
                "tempo": 120.0
            },
            {
                "start_time": 19.3431818,
                "end_time": 19.4159091,
                "pitch": 74,
                "velocity": 51,
                "duration": 0.0727273,
                "tempo": 120.0
            },
            {
                "start_time": 19.4545455,
                "end_time": 19.5363636,
                "pitch": 74,
                "velocity": 51,
                "duration": 0.0818182,
                "tempo": 120.0
            },
            {
                "start_time": 19.5818182,
                "end_time": 19.6568182,
                "pitch": 73,
                "velocity": 51,
                "duration": 0.075,
                "tempo": 120.0
            },
            {
                "start_time": 19.6931818,
                "end_time": 20.0363636,
                "pitch": 72,
                "velocity": 51,
                "duration": 0.3431818,
                "tempo": 120.0
            },
            {
                "start_time": 20.15,
                "end_time": 20.4136364,
                "pitch": 69,
                "velocity": 51,
                "duration": 0.2636364,
                "tempo": 120.0
            },
            {
                "start_time": 20.5090909,
                "end_time": 20.6886364,
                "pitch": 65,
                "velocity": 51,
                "duration": 0.1795455,
                "tempo": 120.0
            },
            {
                "start_time": 20.7431818,
                "end_time": 21.0022727,
                "pitch": 62,
                "velocity": 51,
                "duration": 0.2590909,
                "tempo": 120.0
            },
            {
                "start_time": 21.0863636,
                "end_time": 21.35,
                "pitch": 64,
                "velocity": 51,
                "duration": 0.2636364,
                "tempo": 120.0
            },
            {
                "start_time": 21.4454545,
                "end_time": 21.6181818,
                "pitch": 65,
                "velocity": 51,
                "duration": 0.1727273,
                "tempo": 120.0
            },
            {
                "start_time": 21.6727273,
                "end_time": 21.7522727,
                "pitch": 64,
                "velocity": 51,
                "duration": 0.0795455,
                "tempo": 120.0
            },
            {
                "start_time": 21.7977273,
                "end_time": 21.8704545,
                "pitch": 63,
                "velocity": 51,
                "duration": 0.0727273,
                "tempo": 120.0
            },
            {
                "start_time": 21.9068182,
                "end_time": 21.9863636,
                "pitch": 64,
                "velocity": 51,
                "duration": 0.0795455,
                "tempo": 120.0
            },
            {
                "start_time": 22.025,
                "end_time": 22.1045455,
                "pitch": 65,
                "velocity": 51,
                "duration": 0.0795455,
                "tempo": 120.0
            },
            {
                "start_time": 22.1431818,
                "end_time": 22.2227273,
                "pitch": 64,
                "velocity": 51,
                "duration": 0.0795455,
                "tempo": 120.0
            },
            {
                "start_time": 22.2681818,
                "end_time": 22.3386364,
                "pitch": 65,
                "velocity": 51,
                "duration": 0.0704545,
                "tempo": 120.0
            },
            {
                "start_time": 22.3772727,
                "end_time": 22.4568182,
                "pitch": 67,
                "velocity": 51,
                "duration": 0.0795455,
                "tempo": 120.0
            },
            {
                "start_time": 22.4954545,
                "end_time": 22.575,
                "pitch": 66,
                "velocity": 51,
                "duration": 0.0795455,
                "tempo": 120.0
            },
            {
                "start_time": 22.6136364,
                "end_time": 22.6909091,
                "pitch": 67,
                "velocity": 51,
                "duration": 0.0772727,
                "tempo": 120.0
            },
            {
                "start_time": 22.7340909,
                "end_time": 22.8045455,
                "pitch": 68,
                "velocity": 51,
                "duration": 0.0704545,
                "tempo": 120.0
            },
            {
                "start_time": 22.8431818,
                "end_time": 22.9204545,
                "pitch": 67,
                "velocity": 51,
                "duration": 0.0772727,
                "tempo": 120.0
            },
            {
                "start_time": 22.9636364,
                "end_time": 23.0340909,
                "pitch": 68,
                "velocity": 51,
                "duration": 0.0704545,
                "tempo": 120.0
            },
            {
                "start_time": 23.0704545,
                "end_time": 23.15,
                "pitch": 69,
                "velocity": 51,
                "duration": 0.0795455,
                "tempo": 120.0
            },
            {
                "start_time": 23.1886364,
                "end_time": 23.2681818,
                "pitch": 72,
                "velocity": 51,
                "duration": 0.0795455,
                "tempo": 120.0
            },
            {
                "start_time": 23.3090909,
                "end_time": 23.4204545,
                "pitch": 72,
                "velocity": 4,
                "duration": 0.1113636,
                "tempo": 120.0
            },
            {
                "start_time": 23.4204545,
                "end_time": 24.2,
                "pitch": 76,
                "velocity": 4,
                "duration": 0.7795455,
                "tempo": 120.0
            },
            {
                "start_time": 23.4227273,
                "end_time": 24.2,
                "pitch": 76,
                "velocity": 51,
                "duration": 0.7772727,
                "tempo": 120.0
            },
            {
                "start_time": 24.475,
                "end_time": 24.7340909,
                "pitch": 69,
                "velocity": 51,
                "duration": 0.2590909,
                "tempo": 120.0
            },
            {
                "start_time": 24.8227273,
                "end_time": 25.0818182,
                "pitch": 72,
                "velocity": 51,
                "duration": 0.2590909,
                "tempo": 120.0
            },
            {
                "start_time": 25.1727273,
                "end_time": 25.35,
                "pitch": 76,
                "velocity": 51,
                "duration": 0.1772727,
                "tempo": 120.0
            },
            {
                "start_time": 25.4022727,
                "end_time": 26.1136364,
                "pitch": 74,
                "velocity": 51,
                "duration": 0.7113636,
                "tempo": 120.0
            },
            {
                "start_time": 26.3431818,
                "end_time": 26.6022727,
                "pitch": 67,
                "velocity": 51,
                "duration": 0.2590909,
                "tempo": 120.0
            },
            {
                "start_time": 26.6886364,
                "end_time": 26.9522727,
                "pitch": 71,
                "velocity": 51,
                "duration": 0.2636364,
                "tempo": 120.0
            },
            {
                "start_time": 27.05,
                "end_time": 27.2272727,
                "pitch": 74,
                "velocity": 51,
                "duration": 0.1772727,
                "tempo": 120.0
            },
            {
                "start_time": 27.2840909,
                "end_time": 27.3613636,
                "pitch": 72,
                "velocity": 51,
                "duration": 0.0772727,
                "tempo": 120.0
            },
            {
                "start_time": 27.4045455,
                "end_time": 27.475,
                "pitch": 71,
                "velocity": 51,
                "duration": 0.0704545,
                "tempo": 120.0
            },
            {
                "start_time": 27.5136364,
                "end_time": 27.5909091,
                "pitch": 72,
                "velocity": 51,
                "duration": 0.0772727,
                "tempo": 120.0
            },
            {
                "start_time": 27.6272727,
                "end_time": 27.7045455,
                "pitch": 68,
                "velocity": 51,
                "duration": 0.0772727,
                "tempo": 120.0
            },
            {
                "start_time": 27.7454545,
                "end_time": 27.8227273,
                "pitch": 69,
                "velocity": 51,
                "duration": 0.0772727,
                "tempo": 120.0
            },
            {
                "start_time": 27.8590909,
                "end_time": 27.9386364,
                "pitch": 64,
                "velocity": 51,
                "duration": 0.0795455,
                "tempo": 120.0
            },
            {
                "start_time": 27.9795455,
                "end_time": 28.0568182,
                "pitch": 68,
                "velocity": 51,
                "duration": 0.0772727,
                "tempo": 120.0
            },
            {
                "start_time": 28.0977273,
                "end_time": 28.2727273,
                "pitch": 65,
                "velocity": 51,
                "duration": 0.175,
                "tempo": 120.0
            },
            {
                "start_time": 28.3340909,
                "end_time": 28.4045455,
                "pitch": 62,
                "velocity": 51,
                "duration": 0.0704545,
                "tempo": 120.0
            },
            {
                "start_time": 28.4431818,
                "end_time": 28.5181818,
                "pitch": 64,
                "velocity": 51,
                "duration": 0.075,
                "tempo": 120.0
            },
            {
                "start_time": 28.5568182,
                "end_time": 28.6340909,
                "pitch": 65,
                "velocity": 51,
                "duration": 0.0772727,
                "tempo": 120.0
            },
            {
                "start_time": 28.6727273,
                "end_time": 28.75,
                "pitch": 67,
                "velocity": 51,
                "duration": 0.0772727,
                "tempo": 120.0
            },
            {
                "start_time": 28.7886364,
                "end_time": 28.8681818,
                "pitch": 69,
                "velocity": 51,
                "duration": 0.0795455,
                "tempo": 120.0
            },
            {
                "start_time": 28.9068182,
                "end_time": 28.9840909,
                "pitch": 72,
                "velocity": 51,
                "duration": 0.0772727,
                "tempo": 120.0
            },
            {
                "start_time": 29.0204545,
                "end_time": 29.1022727,
                "pitch": 76,
                "velocity": 51,
                "duration": 0.0818182,
                "tempo": 120.0
            },
            {
                "start_time": 29.1454545,
                "end_time": 29.8318182,
                "pitch": 79,
                "velocity": 51,
                "duration": 0.6863636,
                "tempo": 120.0
            },
            {
                "start_time": 30.0681818,
                "end_time": 30.7704545,
                "pitch": 81,
                "velocity": 51,
                "duration": 0.7022727,
                "tempo": 120.0
            },
            {
                "start_time": 31.0,
                "end_time": 31.7090909,
                "pitch": 76,
                "velocity": 51,
                "duration": 0.7090909,
                "tempo": 120.0
            },
            {
                "start_time": 31.9340909,
                "end_time": 32.1954545,
                "pitch": 69,
                "velocity": 51,
                "duration": 0.2613636,
                "tempo": 120.0
            },
            {
                "start_time": 32.2795455,
                "end_time": 32.5454545,
                "pitch": 72,
                "velocity": 51,
                "duration": 0.2659091,
                "tempo": 120.0
            },
            {
                "start_time": 32.6386364,
                "end_time": 32.8204545,
                "pitch": 79,
                "velocity": 51,
                "duration": 0.1818182,
                "tempo": 120.0
            },
            {
                "start_time": 32.8772727,
                "end_time": 33.1409091,
                "pitch": 77,
                "velocity": 51,
                "duration": 0.2636364,
                "tempo": 120.0
            },
            {
                "start_time": 33.2295455,
                "end_time": 33.4886364,
                "pitch": 76,
                "velocity": 51,
                "duration": 0.2590909,
                "tempo": 120.0
            },
            {
                "start_time": 33.5772727,
                "end_time": 34.0954545,
                "pitch": 71,
                "velocity": 51,
                "duration": 0.5181818,
                "tempo": 120.0
            },
            {
                "start_time": 34.2704545,
                "end_time": 34.4454545,
                "pitch": 67,
                "velocity": 51,
                "duration": 0.175,
                "tempo": 120.0
            },
            {
                "start_time": 34.5045455,
                "end_time": 34.6840909,
                "pitch": 71,
                "velocity": 51,
                "duration": 0.1795455,
                "tempo": 120.0
            },
            {
                "start_time": 34.7431818,
                "end_time": 35.0840909,
                "pitch": 69,
                "velocity": 51,
                "duration": 0.3409091,
                "tempo": 120.0
            },
            {
                "start_time": 35.2,
                "end_time": 35.5568182,
                "pitch": 76,
                "velocity": 51,
                "duration": 0.3568182,
                "tempo": 120.0
            },
            {
                "start_time": 35.675,
                "end_time": 35.7522727,
                "pitch": 74,
                "velocity": 51,
                "duration": 0.0772727,
                "tempo": 120.0
            },
            {
                "start_time": 35.7931818,
                "end_time": 35.8636364,
                "pitch": 72,
                "velocity": 51,
                "duration": 0.0704545,
                "tempo": 120.0
            },
            {
                "start_time": 35.8977273,
                "end_time": 36.0113636,
                "pitch": 72,
                "velocity": 4,
                "duration": 0.1136364,
                "tempo": 120.0
            },
            {
                "start_time": 36.0136364,
                "end_time": 36.0886364,
                "pitch": 71,
                "velocity": 51,
                "duration": 0.075,
                "tempo": 120.0
            },
            {
                "start_time": 36.1295455,
                "end_time": 36.2431818,
                "pitch": 71,
                "velocity": 4,
                "duration": 0.1136364,
                "tempo": 120.0
            },
            {
                "start_time": 36.2431818,
                "end_time": 36.325,
                "pitch": 72,
                "velocity": 51,
                "duration": 0.0818182,
                "tempo": 120.0
            },
            {
                "start_time": 36.3659091,
                "end_time": 36.4431818,
                "pitch": 71,
                "velocity": 51,
                "duration": 0.0772727,
                "tempo": 120.0
            },
            {
                "start_time": 36.4795455,
                "end_time": 36.5613636,
                "pitch": 67,
                "velocity": 51,
                "duration": 0.0818182,
                "tempo": 120.0
            },
            {
                "start_time": 36.6022727,
                "end_time": 37.0681818,
                "pitch": 64,
                "velocity": 51,
                "duration": 0.4659091,
                "tempo": 120.0
            }
        ],
        "French Horn": [
            {
                "start_time": 0.0090909,
                "end_time": 0.2113636,
                "pitch": 0,
                "velocity": 4,
                "duration": 0.2022727,
                "tempo": 120.0
            },
            {
                "start_time": 0.2113636,
                "end_time": 0.4022727,
                "pitch": 62,
                "velocity": 80,
                "duration": 0.1909091,
                "tempo": 120.0
            },
            {
                "start_time": 0.45,
                "end_time": 0.4954545,
                "pitch": 62,
                "velocity": 80,
                "duration": 0.0454545,
                "tempo": 120.0
            },
            {
                "start_time": 0.4954545,
                "end_time": 0.5454545,
                "pitch": 64,
                "velocity": 80,
                "duration": 0.05,
                "tempo": 120.0
            },
            {
                "start_time": 0.4954545,
                "end_time": 0.5454545,
                "pitch": 64,
                "velocity": 80,
                "duration": 0.05,
                "tempo": 120.0
            },
            {
                "start_time": 0.5477273,
                "end_time": 0.5954545,
                "pitch": 65,
                "velocity": 80,
                "duration": 0.0477273,
                "tempo": 120.0
            },
            {
                "start_time": 0.5977273,
                "end_time": 0.6477273,
                "pitch": 67,
                "velocity": 80,
                "duration": 0.05,
                "tempo": 120.0
            },
            {
                "start_time": 0.6477273,
                "end_time": 0.7113636,
                "pitch": 69,
                "velocity": 80,
                "duration": 0.0636364,
                "tempo": 120.0
            },
            {
                "start_time": 0.7113636,
                "end_time": 0.7772727,
                "pitch": 71,
                "velocity": 80,
                "duration": 0.0659091,
                "tempo": 120.0
            },
            {
                "start_time": 0.7113636,
                "end_time": 0.7772727,
                "pitch": 71,
                "velocity": 80,
                "duration": 0.0659091,
                "tempo": 120.0
            },
            {
                "start_time": 0.7795455,
                "end_time": 0.8386364,
                "pitch": 72,
                "velocity": 80,
                "duration": 0.0590909,
                "tempo": 120.0
            },
            {
                "start_time": 0.8409091,
                "end_time": 0.9,
                "pitch": 74,
                "velocity": 80,
                "duration": 0.0590909,
                "tempo": 120.0
            },
            {
                "start_time": 0.9,
                "end_time": 0.9113636,
                "pitch": 62,
                "velocity": 4,
                "duration": 0.0113636,
                "tempo": 120.0
            },
            {
                "start_time": 1.125,
                "end_time": 1.1886364,
                "pitch": 65,
                "velocity": 80,
                "duration": 0.0636364,
                "tempo": 120.0
            },
            {
                "start_time": 1.2454545,
                "end_time": 1.3090909,
                "pitch": 65,
                "velocity": 80,
                "duration": 0.0636364,
                "tempo": 120.0
            },
            {
                "start_time": 1.3659091,
                "end_time": 1.4318182,
                "pitch": 65,
                "velocity": 80,
                "duration": 0.0659091,
                "tempo": 120.0
            },
            {
                "start_time": 1.4886364,
                "end_time": 1.5545455,
                "pitch": 65,
                "velocity": 80,
                "duration": 0.0659091,
                "tempo": 120.0
            },
            {
                "start_time": 1.6090909,
                "end_time": 1.8409091,
                "pitch": 65,
                "velocity": 4,
                "duration": 0.2318182,
                "tempo": 120.0
            },
            {
                "start_time": 1.8431818,
                "end_time": 1.9022727,
                "pitch": 65,
                "velocity": 80,
                "duration": 0.0590909,
                "tempo": 120.0
            },
            {
                "start_time": 1.9545455,
                "end_time": 2.1909091,
                "pitch": 65,
                "velocity": 4,
                "duration": 0.2363636,
                "tempo": 120.0
            },
            {
                "start_time": 2.1909091,
                "end_time": 2.5522727,
                "pitch": 65,
                "velocity": 80,
                "duration": 0.3613636,
                "tempo": 120.0
            },
            {
                "start_time": 2.7772727,
                "end_time": 3.0113636,
                "pitch": 65,
                "velocity": 4,
                "duration": 0.2340909,
                "tempo": 120.0
            },
            {
                "start_time": 3.0113636,
                "end_time": 3.0727273,
                "pitch": 64,
                "velocity": 80,
                "duration": 0.0613636,
                "tempo": 120.0
            },
            {
                "start_time": 3.1295455,
                "end_time": 3.1886364,
                "pitch": 64,
                "velocity": 80,
                "duration": 0.0590909,
                "tempo": 120.0
            },
            {
                "start_time": 3.2431818,
                "end_time": 3.3068182,
                "pitch": 64,
                "velocity": 80,
                "duration": 0.0636364,
                "tempo": 120.0
            },
            {
                "start_time": 3.3636364,
                "end_time": 3.425,
                "pitch": 64,
                "velocity": 80,
                "duration": 0.0613636,
                "tempo": 120.0
            },
            {
                "start_time": 3.4795455,
                "end_time": 3.7159091,
                "pitch": 64,
                "velocity": 4,
                "duration": 0.2363636,
                "tempo": 120.0
            },
            {
                "start_time": 3.7159091,
                "end_time": 3.7772727,
                "pitch": 64,
                "velocity": 80,
                "duration": 0.0613636,
                "tempo": 120.0
            },
            {
                "start_time": 3.8295455,
                "end_time": 4.0636364,
                "pitch": 64,
                "velocity": 4,
                "duration": 0.2340909,
                "tempo": 120.0
            },
            {
                "start_time": 4.0659091,
                "end_time": 4.125,
                "pitch": 64,
                "velocity": 80,
                "duration": 0.0590909,
                "tempo": 120.0
            },
            {
                "start_time": 4.1772727,
                "end_time": 4.2931818,
                "pitch": 64,
                "velocity": 4,
                "duration": 0.1159091,
                "tempo": 120.0
            },
            {
                "start_time": 4.2954545,
                "end_time": 4.3545455,
                "pitch": 64,
                "velocity": 80,
                "duration": 0.0590909,
                "tempo": 120.0
            },
            {
                "start_time": 4.4136364,
                "end_time": 4.5568182,
                "pitch": 63,
                "velocity": 80,
                "duration": 0.1431818,
                "tempo": 120.0
            },
            {
                "start_time": 4.65,
                "end_time": 4.8840909,
                "pitch": 63,
                "velocity": 4,
                "duration": 0.2340909,
                "tempo": 120.0
            },
            {
                "start_time": 4.8863636,
                "end_time": 4.9454545,
                "pitch": 62,
                "velocity": 80,
                "duration": 0.0590909,
                "tempo": 120.0
            },
            {
                "start_time": 5.0,
                "end_time": 5.0590909,
                "pitch": 62,
                "velocity": 80,
                "duration": 0.0590909,
                "tempo": 120.0
            },
            {
                "start_time": 5.1159091,
                "end_time": 5.175,
                "pitch": 62,
                "velocity": 80,
                "duration": 0.0590909,
                "tempo": 120.0
            },
            {
                "start_time": 5.2272727,
                "end_time": 5.2886364,
                "pitch": 62,
                "velocity": 80,
                "duration": 0.0613636,
                "tempo": 120.0
            },
            {
                "start_time": 5.3431818,
                "end_time": 5.5795455,
                "pitch": 62,
                "velocity": 4,
                "duration": 0.2363636,
                "tempo": 120.0
            },
            {
                "start_time": 5.5795455,
                "end_time": 5.7909091,
                "pitch": 62,
                "velocity": 80,
                "duration": 0.2113636,
                "tempo": 120.0
            },
            {
                "start_time": 5.9340909,
                "end_time": 6.1363636,
                "pitch": 65,
                "velocity": 80,
                "duration": 0.2022727,
                "tempo": 120.0
            },
            {
                "start_time": 6.275,
                "end_time": 6.4204545,
                "pitch": 69,
                "velocity": 80,
                "duration": 0.1454545,
                "tempo": 120.0
            },
            {
                "start_time": 6.5159091,
                "end_time": 6.7522727,
                "pitch": 69,
                "velocity": 4,
                "duration": 0.2363636,
                "tempo": 120.0
            },
            {
                "start_time": 6.7545455,
                "end_time": 6.8136364,
                "pitch": 67,
                "velocity": 80,
                "duration": 0.0590909,
                "tempo": 120.0
            },
            {
                "start_time": 6.8681818,
                "end_time": 6.9272727,
                "pitch": 67,
                "velocity": 80,
                "duration": 0.0590909,
                "tempo": 120.0
            },
            {
                "start_time": 6.9795455,
                "end_time": 7.0431818,
                "pitch": 67,
                "velocity": 80,
                "duration": 0.0636364,
                "tempo": 120.0
            },
            {
                "start_time": 7.0954545,
                "end_time": 7.1568182,
                "pitch": 67,
                "velocity": 80,
                "duration": 0.0613636,
                "tempo": 120.0
            },
            {
                "start_time": 7.2090909,
                "end_time": 7.6727273,
                "pitch": 67,
                "velocity": 4,
                "duration": 0.4636364,
                "tempo": 120.0
            },
            {
                "start_time": 7.675,
                "end_time": 7.8159091,
                "pitch": 64,
                "velocity": 80,
                "duration": 0.1409091,
                "tempo": 120.0
            },
            {
                "start_time": 7.9045455,
                "end_time": 8.025,
                "pitch": 64,
                "velocity": 4,
                "duration": 0.1204545,
                "tempo": 120.0
            },
            {
                "start_time": 8.0272727,
                "end_time": 8.2363636,
                "pitch": 64,
                "velocity": 80,
                "duration": 0.2090909,
                "tempo": 120.0
            },
            {
                "start_time": 8.375,
                "end_time": 8.6090909,
                "pitch": 64,
                "velocity": 4,
                "duration": 0.2340909,
                "tempo": 120.0
            },
            {
                "start_time": 8.6113636,
                "end_time": 8.6704545,
                "pitch": 65,
                "velocity": 80,
                "duration": 0.0590909,
                "tempo": 120.0
            },
            {
                "start_time": 8.725,
                "end_time": 8.7840909,
                "pitch": 65,
                "velocity": 80,
                "duration": 0.0590909,
                "tempo": 120.0
            },
            {
                "start_time": 8.8386364,
                "end_time": 8.9,
                "pitch": 65,
                "velocity": 80,
                "duration": 0.0613636,
                "tempo": 120.0
            },
            {
                "start_time": 8.9522727,
                "end_time": 9.0136364,
                "pitch": 65,
                "velocity": 80,
                "duration": 0.0613636,
                "tempo": 120.0
            },
            {
                "start_time": 9.0659091,
                "end_time": 9.3045455,
                "pitch": 65,
                "velocity": 4,
                "duration": 0.2386364,
                "tempo": 120.0
            },
            {
                "start_time": 9.3045455,
                "end_time": 9.3659091,
                "pitch": 65,
                "velocity": 80,
                "duration": 0.0613636,
                "tempo": 120.0
            },
            {
                "start_time": 9.4181818,
                "end_time": 9.6545455,
                "pitch": 65,
                "velocity": 4,
                "duration": 0.2363636,
                "tempo": 120.0
            },
            {
                "start_time": 9.6568182,
                "end_time": 10.0090909,
                "pitch": 65,
                "velocity": 80,
                "duration": 0.3522727,
                "tempo": 120.0
            },
            {
                "start_time": 10.2386364,
                "end_time": 10.4772727,
                "pitch": 65,
                "velocity": 4,
                "duration": 0.2386364,
                "tempo": 120.0
            },
            {
                "start_time": 10.4795455,
                "end_time": 10.5386364,
                "pitch": 64,
                "velocity": 80,
                "duration": 0.0590909,
                "tempo": 120.0
            },
            {
                "start_time": 10.5954545,
                "end_time": 10.6568182,
                "pitch": 64,
                "velocity": 80,
                "duration": 0.0613636,
                "tempo": 120.0
            },
            {
                "start_time": 10.7113636,
                "end_time": 10.775,
                "pitch": 64,
                "velocity": 80,
                "duration": 0.0636364,
                "tempo": 120.0
            },
            {
                "start_time": 10.8295455,
                "end_time": 10.8909091,
                "pitch": 64,
                "velocity": 80,
                "duration": 0.0613636,
                "tempo": 120.0
            },
            {
                "start_time": 10.9454545,
                "end_time": 11.1772727,
                "pitch": 64,
                "velocity": 4,
                "duration": 0.2318182,
                "tempo": 120.0
            },
            {
                "start_time": 11.1772727,
                "end_time": 11.2363636,
                "pitch": 64,
                "velocity": 80,
                "duration": 0.0590909,
                "tempo": 120.0
            },
            {
                "start_time": 11.2886364,
                "end_time": 11.525,
                "pitch": 64,
                "velocity": 4,
                "duration": 0.2363636,
                "tempo": 120.0
            },
            {
                "start_time": 11.5272727,
                "end_time": 11.5863636,
                "pitch": 64,
                "velocity": 80,
                "duration": 0.0590909,
                "tempo": 120.0
            },
            {
                "start_time": 11.6386364,
                "end_time": 11.7636364,
                "pitch": 64,
                "velocity": 4,
                "duration": 0.125,
                "tempo": 120.0
            },
            {
                "start_time": 11.7636364,
                "end_time": 11.8204545,
                "pitch": 64,
                "velocity": 80,
                "duration": 0.0568182,
                "tempo": 120.0
            },
            {
                "start_time": 11.8772727,
                "end_time": 12.0227273,
                "pitch": 63,
                "velocity": 80,
                "duration": 0.1454545,
                "tempo": 120.0
            },
            {
                "start_time": 12.1090909,
                "end_time": 12.3431818,
                "pitch": 63,
                "velocity": 4,
                "duration": 0.2340909,
                "tempo": 120.0
            },
            {
                "start_time": 12.3454545,
                "end_time": 12.4068182,
                "pitch": 62,
                "velocity": 80,
                "duration": 0.0613636,
                "tempo": 120.0
            },
            {
                "start_time": 12.4636364,
                "end_time": 12.5204545,
                "pitch": 62,
                "velocity": 80,
                "duration": 0.0568182,
                "tempo": 120.0
            },
            {
                "start_time": 12.5727273,
                "end_time": 12.6363636,
                "pitch": 62,
                "velocity": 80,
                "duration": 0.0636364,
                "tempo": 120.0
            },
            {
                "start_time": 12.6909091,
                "end_time": 12.75,
                "pitch": 62,
                "velocity": 80,
                "duration": 0.0590909,
                "tempo": 120.0
            },
            {
                "start_time": 12.8045455,
                "end_time": 13.0409091,
                "pitch": 62,
                "velocity": 4,
                "duration": 0.2363636,
                "tempo": 120.0
            },
            {
                "start_time": 13.0431818,
                "end_time": 13.2522727,
                "pitch": 62,
                "velocity": 80,
                "duration": 0.2090909,
                "tempo": 120.0
            },
            {
                "start_time": 13.3909091,
                "end_time": 13.5954545,
                "pitch": 65,
                "velocity": 80,
                "duration": 0.2045455,
                "tempo": 120.0
            },
            {
                "start_time": 13.7363636,
                "end_time": 13.8818182,
                "pitch": 69,
                "velocity": 80,
                "duration": 0.1454545,
                "tempo": 120.0
            },
            {
                "start_time": 13.975,
                "end_time": 14.2136364,
                "pitch": 69,
                "velocity": 4,
                "duration": 0.2386364,
                "tempo": 120.0
            },
            {
                "start_time": 14.2136364,
                "end_time": 14.275,
                "pitch": 69,
                "velocity": 80,
                "duration": 0.0613636,
                "tempo": 120.0
            },
            {
                "start_time": 14.3318182,
                "end_time": 14.3931818,
                "pitch": 69,
                "velocity": 80,
                "duration": 0.0613636,
                "tempo": 120.0
            },
            {
                "start_time": 14.4477273,
                "end_time": 14.5113636,
                "pitch": 69,
                "velocity": 80,
                "duration": 0.0636364,
                "tempo": 120.0
            },
            {
                "start_time": 14.5636364,
                "end_time": 14.6272727,
                "pitch": 69,
                "velocity": 80,
                "duration": 0.0636364,
                "tempo": 120.0
            },
            {
                "start_time": 14.6818182,
                "end_time": 14.9136364,
                "pitch": 69,
                "velocity": 4,
                "duration": 0.2318182,
                "tempo": 120.0
            },
            {
                "start_time": 14.9136364,
                "end_time": 14.9727273,
                "pitch": 67,
                "velocity": 80,
                "duration": 0.0590909,
                "tempo": 120.0
            },
            {
                "start_time": 15.0227273,
                "end_time": 15.2568182,
                "pitch": 67,
                "velocity": 4,
                "duration": 0.2340909,
                "tempo": 120.0
            },
            {
                "start_time": 15.2568182,
                "end_time": 15.3181818,
                "pitch": 67,
                "velocity": 80,
                "duration": 0.0613636,
                "tempo": 120.0
            },
            {
                "start_time": 15.3727273,
                "end_time": 15.4909091,
                "pitch": 67,
                "velocity": 4,
                "duration": 0.1181818,
                "tempo": 120.0
            },
            {
                "start_time": 15.4909091,
                "end_time": 15.6977273,
                "pitch": 67,
                "velocity": 80,
                "duration": 0.2068182,
                "tempo": 120.0
            },
            {
                "start_time": 15.85,
                "end_time": 16.6022727,
                "pitch": 69,
                "velocity": 80,
                "duration": 0.7522727,
                "tempo": 120.0
            },
            {
                "start_time": 16.7772727,
                "end_time": 17.1522727,
                "pitch": 65,
                "velocity": 80,
                "duration": 0.375,
                "tempo": 120.0
            },
            {
                "start_time": 17.2454545,
                "end_time": 17.3318182,
                "pitch": 65,
                "velocity": 80,
                "duration": 0.0863636,
                "tempo": 120.0
            },
            {
                "start_time": 17.3590909,
                "end_time": 17.4477273,
                "pitch": 65,
                "velocity": 80,
                "duration": 0.0886364,
                "tempo": 120.0
            },
            {
                "start_time": 17.4681818,
                "end_time": 17.5909091,
                "pitch": 65,
                "velocity": 4,
                "duration": 0.1227273,
                "tempo": 120.0
            },
            {
                "start_time": 17.5909091,
                "end_time": 18.4363636,
                "pitch": 64,
                "velocity": 80,
                "duration": 0.8454545,
                "tempo": 120.0
            },
            {
                "start_time": 18.6431818,
                "end_time": 18.9227273,
                "pitch": 64,
                "velocity": 80,
                "duration": 0.2795455,
                "tempo": 120.0
            },
            {
                "start_time": 18.9977273,
                "end_time": 19.2659091,
                "pitch": 64,
                "velocity": 80,
                "duration": 0.2681818,
                "tempo": 120.0
            },
            {
                "start_time": 19.3431818,
                "end_time": 19.5204545,
                "pitch": 64,
                "velocity": 80,
                "duration": 0.1772727,
                "tempo": 120.0
            },
            {
                "start_time": 19.5818182,
                "end_time": 20.3272727,
                "pitch": 62,
                "velocity": 80,
                "duration": 0.7454545,
                "tempo": 120.0
            },
            {
                "start_time": 20.5113636,
                "end_time": 21.2659091,
                "pitch": 65,
                "velocity": 80,
                "duration": 0.7545455,
                "tempo": 120.0
            },
            {
                "start_time": 21.4454545,
                "end_time": 21.7181818,
                "pitch": 64,
                "velocity": 80,
                "duration": 0.2727273,
                "tempo": 120.0
            },
            {
                "start_time": 21.7977273,
                "end_time": 22.1727273,
                "pitch": 63,
                "velocity": 80,
                "duration": 0.375,
                "tempo": 120.0
            },
            {
                "start_time": 22.2681818,
                "end_time": 22.6409091,
                "pitch": 62,
                "velocity": 80,
                "duration": 0.3727273,
                "tempo": 120.0
            },
            {
                "start_time": 22.7340909,
                "end_time": 22.8204545,
                "pitch": 62,
                "velocity": 80,
                "duration": 0.0863636,
                "tempo": 120.0
            },
            {
                "start_time": 22.8431818,
                "end_time": 22.9636364,
                "pitch": 62,
                "velocity": 4,
                "duration": 0.1204545,
                "tempo": 120.0
            },
            {
                "start_time": 22.9636364,
                "end_time": 23.2340909,
                "pitch": 65,
                "velocity": 4,
                "duration": 0.2704545,
                "tempo": 120.0
            },
            {
                "start_time": 22.9636364,
                "end_time": 23.2340909,
                "pitch": 65,
                "velocity": 80,
                "duration": 0.2704545,
                "tempo": 120.0
            },
            {
                "start_time": 23.3090909,
                "end_time": 24.4545455,
                "pitch": 65,
                "velocity": 80,
                "duration": 1.1454545,
                "tempo": 120.0
            },
            {
                "start_time": 24.7090909,
                "end_time": 24.8,
                "pitch": 65,
                "velocity": 80,
                "duration": 0.0909091,
                "tempo": 120.0
            },
            {
                "start_time": 24.8227273,
                "end_time": 24.9136364,
                "pitch": 65,
                "velocity": 80,
                "duration": 0.0909091,
                "tempo": 120.0
            },
            {
                "start_time": 24.9363636,
                "end_time": 25.0522727,
                "pitch": 65,
                "velocity": 4,
                "duration": 0.1159091,
                "tempo": 120.0
            },
            {
                "start_time": 25.0545455,
                "end_time": 25.9045455,
                "pitch": 64,
                "velocity": 80,
                "duration": 0.85,
                "tempo": 120.0
            },
            {
                "start_time": 26.1136364,
                "end_time": 26.3886364,
                "pitch": 64,
                "velocity": 80,
                "duration": 0.275,
                "tempo": 120.0
            },
            {
                "start_time": 26.4636364,
                "end_time": 26.7340909,
                "pitch": 64,
                "velocity": 80,
                "duration": 0.2704545,
                "tempo": 120.0
            },
            {
                "start_time": 26.8090909,
                "end_time": 26.9863636,
                "pitch": 64,
                "velocity": 80,
                "duration": 0.1772727,
                "tempo": 120.0
            },
            {
                "start_time": 27.05,
                "end_time": 27.3295455,
                "pitch": 62,
                "velocity": 80,
                "duration": 0.2795455,
                "tempo": 120.0
            },
            {
                "start_time": 27.4045455,
                "end_time": 27.8727273,
                "pitch": 65,
                "velocity": 80,
                "duration": 0.4681818,
                "tempo": 120.0
            },
            {
                "start_time": 27.9795455,
                "end_time": 28.2568182,
                "pitch": 69,
                "velocity": 80,
                "duration": 0.2772727,
                "tempo": 120.0
            },
            {
                "start_time": 28.3340909,
                "end_time": 28.8,
                "pitch": 72,
                "velocity": 80,
                "duration": 0.4659091,
                "tempo": 120.0
            },
            {
                "start_time": 28.9068182,
                "end_time": 29.1431818,
                "pitch": 72,
                "velocity": 4,
                "duration": 0.2363636,
                "tempo": 120.0
            },
            {
                "start_time": 29.1454545,
                "end_time": 29.2022727,
                "pitch": 71,
                "velocity": 80,
                "duration": 0.0568182,
                "tempo": 120.0
            },
            {
                "start_time": 29.2522727,
                "end_time": 29.4863636,
                "pitch": 71,
                "velocity": 4,
                "duration": 0.2340909,
                "tempo": 120.0
            },
            {
                "start_time": 29.4863636,
                "end_time": 29.5454545,
                "pitch": 71,
                "velocity": 80,
                "duration": 0.0590909,
                "tempo": 120.0
            },
            {
                "start_time": 29.5954545,
                "end_time": 29.9522727,
                "pitch": 71,
                "velocity": 4,
                "duration": 0.3568182,
                "tempo": 120.0
            },
            {
                "start_time": 29.9522727,
                "end_time": 30.0136364,
                "pitch": 73,
                "velocity": 4,
                "duration": 0.0613636,
                "tempo": 120.0
            },
            {
                "start_time": 29.9545455,
                "end_time": 30.0136364,
                "pitch": 73,
                "velocity": 80,
                "duration": 0.0590909,
                "tempo": 120.0
            },
            {
                "start_time": 30.0681818,
                "end_time": 30.1886364,
                "pitch": 73,
                "velocity": 4,
                "duration": 0.1204545,
                "tempo": 120.0
            },
            {
                "start_time": 30.1886364,
                "end_time": 30.55,
                "pitch": 73,
                "velocity": 80,
                "duration": 0.3613636,
                "tempo": 120.0
            },
            {
                "start_time": 30.7704545,
                "end_time": 30.9977273,
                "pitch": 61,
                "velocity": 4,
                "duration": 0.2272727,
                "tempo": 120.0
            },
            {
                "start_time": 30.9977273,
                "end_time": 31.0613636,
                "pitch": 65,
                "velocity": 4,
                "duration": 0.0636364,
                "tempo": 120.0
            },
            {
                "start_time": 31.0,
                "end_time": 31.0613636,
                "pitch": 65,
                "velocity": 80,
                "duration": 0.0613636,
                "tempo": 120.0
            },
            {
                "start_time": 31.1181818,
                "end_time": 31.1818182,
                "pitch": 65,
                "velocity": 80,
                "duration": 0.0636364,
                "tempo": 120.0
            },
            {
                "start_time": 31.2363636,
                "end_time": 31.3022727,
                "pitch": 65,
                "velocity": 80,
                "duration": 0.0659091,
                "tempo": 120.0
            },
            {
                "start_time": 31.3568182,
                "end_time": 31.4227273,
                "pitch": 65,
                "velocity": 80,
                "duration": 0.0659091,
                "tempo": 120.0
            },
            {
                "start_time": 31.4772727,
                "end_time": 31.7090909,
                "pitch": 65,
                "velocity": 4,
                "duration": 0.2318182,
                "tempo": 120.0
            },
            {
                "start_time": 31.7090909,
                "end_time": 31.7681818,
                "pitch": 65,
                "velocity": 80,
                "duration": 0.0590909,
                "tempo": 120.0
            },
            {
                "start_time": 31.8204545,
                "end_time": 32.0545455,
                "pitch": 65,
                "velocity": 4,
                "duration": 0.2340909,
                "tempo": 120.0
            },
            {
                "start_time": 32.0568182,
                "end_time": 32.4090909,
                "pitch": 65,
                "velocity": 80,
                "duration": 0.3522727,
                "tempo": 120.0
            },
            {
                "start_time": 32.6386364,
                "end_time": 32.8772727,
                "pitch": 65,
                "velocity": 4,
                "duration": 0.2386364,
                "tempo": 120.0
            },
            {
                "start_time": 32.8772727,
                "end_time": 32.9386364,
                "pitch": 64,
                "velocity": 80,
                "duration": 0.0613636,
                "tempo": 120.0
            },
            {
                "start_time": 32.9977273,
                "end_time": 33.0568182,
                "pitch": 64,
                "velocity": 80,
                "duration": 0.0590909,
                "tempo": 120.0
            },
            {
                "start_time": 33.1113636,
                "end_time": 33.175,
                "pitch": 64,
                "velocity": 80,
                "duration": 0.0636364,
                "tempo": 120.0
            },
            {
                "start_time": 33.2295455,
                "end_time": 33.2909091,
                "pitch": 64,
                "velocity": 80,
                "duration": 0.0613636,
                "tempo": 120.0
            },
            {
                "start_time": 33.3477273,
                "end_time": 33.5772727,
                "pitch": 64,
                "velocity": 4,
                "duration": 0.2295455,
                "tempo": 120.0
            },
            {
                "start_time": 33.5772727,
                "end_time": 33.6363636,
                "pitch": 64,
                "velocity": 80,
                "duration": 0.0590909,
                "tempo": 120.0
            },
            {
                "start_time": 33.6886364,
                "end_time": 33.9204545,
                "pitch": 64,
                "velocity": 4,
                "duration": 0.2318182,
                "tempo": 120.0
            },
            {
                "start_time": 33.9204545,
                "end_time": 33.9818182,
                "pitch": 64,
                "velocity": 80,
                "duration": 0.0613636,
                "tempo": 120.0
            },
            {
                "start_time": 34.0340909,
                "end_time": 34.15,
                "pitch": 64,
                "velocity": 4,
                "duration": 0.1159091,
                "tempo": 120.0
            },
            {
                "start_time": 34.15,
                "end_time": 34.2113636,
                "pitch": 64,
                "velocity": 80,
                "duration": 0.0613636,
                "tempo": 120.0
            },
            {
                "start_time": 34.2704545,
                "end_time": 34.4136364,
                "pitch": 63,
                "velocity": 80,
                "duration": 0.1431818,
                "tempo": 120.0
            },
            {
                "start_time": 34.5045455,
                "end_time": 34.7409091,
                "pitch": 63,
                "velocity": 4,
                "duration": 0.2363636,
                "tempo": 120.0
            },
            {
                "start_time": 34.7431818,
                "end_time": 34.8022727,
                "pitch": 62,
                "velocity": 80,
                "duration": 0.0590909,
                "tempo": 120.0
            },
            {
                "start_time": 34.8568182,
                "end_time": 34.9159091,
                "pitch": 62,
                "velocity": 80,
                "duration": 0.0590909,
                "tempo": 120.0
            },
            {
                "start_time": 34.9727273,
                "end_time": 35.0318182,
                "pitch": 62,
                "velocity": 80,
                "duration": 0.0590909,
                "tempo": 120.0
            },
            {
                "start_time": 35.0840909,
                "end_time": 35.1454545,
                "pitch": 62,
                "velocity": 80,
                "duration": 0.0613636,
                "tempo": 120.0
            },
            {
                "start_time": 35.2,
                "end_time": 35.4386364,
                "pitch": 62,
                "velocity": 4,
                "duration": 0.2386364,
                "tempo": 120.0
            },
            {
                "start_time": 35.4409091,
                "end_time": 35.6545455,
                "pitch": 62,
                "velocity": 80,
                "duration": 0.2136364,
                "tempo": 120.0
            },
            {
                "start_time": 35.7931818,
                "end_time": 35.9931818,
                "pitch": 65,
                "velocity": 80,
                "duration": 0.2,
                "tempo": 120.0
            },
            {
                "start_time": 36.1295455,
                "end_time": 36.2727273,
                "pitch": 69,
                "velocity": 80,
                "duration": 0.1431818,
                "tempo": 120.0
            },
            {
                "start_time": 36.3659091,
                "end_time": 36.6022727,
                "pitch": 69,
                "velocity": 4,
                "duration": 0.2363636,
                "tempo": 120.0
            },
            {
                "start_time": 36.6022727,
                "end_time": 36.6636364,
                "pitch": 67,
                "velocity": 80,
                "duration": 0.0613636,
                "tempo": 120.0
            },
            {
                "start_time": 36.7204545,
                "end_time": 36.7818182,
                "pitch": 67,
                "velocity": 80,
                "duration": 0.0613636,
                "tempo": 120.0
            },
            {
                "start_time": 36.8363636,
                "end_time": 36.9,
                "pitch": 67,
                "velocity": 80,
                "duration": 0.0636364,
                "tempo": 120.0
            },
            {
                "start_time": 36.9522727,
                "end_time": 37.0159091,
                "pitch": 67,
                "velocity": 80,
                "duration": 0.0636364,
                "tempo": 120.0
            }
        ],
        "Acoustic Bass": [
            {
                "start_time": 0.0090909,
                "end_time": 0.2113636,
                "pitch": 0,
                "velocity": 4,
                "duration": 0.2022727,
                "tempo": 120.0
            },
            {
                "start_time": 0.2113636,
                "end_time": 0.4022727,
                "pitch": 38,
                "velocity": 101,
                "duration": 0.1909091,
                "tempo": 120.0
            },
            {
                "start_time": 0.45,
                "end_time": 0.4954545,
                "pitch": 38,
                "velocity": 101,
                "duration": 0.0454545,
                "tempo": 120.0
            },
            {
                "start_time": 0.4954545,
                "end_time": 0.5454545,
                "pitch": 38,
                "velocity": 101,
                "duration": 0.05,
                "tempo": 120.0
            },
            {
                "start_time": 0.5454545,
                "end_time": 0.5954545,
                "pitch": 36,
                "velocity": 101,
                "duration": 0.05,
                "tempo": 120.0
            },
            {
                "start_time": 0.5477273,
                "end_time": 0.5954545,
                "pitch": 36,
                "velocity": 101,
                "duration": 0.0477273,
                "tempo": 120.0
            },
            {
                "start_time": 0.5977273,
                "end_time": 0.6477273,
                "pitch": 35,
                "velocity": 101,
                "duration": 0.05,
                "tempo": 120.0
            },
            {
                "start_time": 0.6477273,
                "end_time": 0.7113636,
                "pitch": 34,
                "velocity": 101,
                "duration": 0.0636364,
                "tempo": 120.0
            },
            {
                "start_time": 0.7113636,
                "end_time": 0.7772727,
                "pitch": 33,
                "velocity": 101,
                "duration": 0.0659091,
                "tempo": 120.0
            },
            {
                "start_time": 0.7795455,
                "end_time": 0.8386364,
                "pitch": 32,
                "velocity": 101,
                "duration": 0.0590909,
                "tempo": 120.0
            },
            {
                "start_time": 0.8409091,
                "end_time": 0.9,
                "pitch": 31,
                "velocity": 101,
                "duration": 0.0590909,
                "tempo": 120.0
            },
            {
                "start_time": 0.9,
                "end_time": 1.1886364,
                "pitch": 29,
                "velocity": 101,
                "duration": 0.2886364,
                "tempo": 120.0
            },
            {
                "start_time": 1.2454545,
                "end_time": 1.5545455,
                "pitch": 36,
                "velocity": 101,
                "duration": 0.3090909,
                "tempo": 120.0
            },
            {
                "start_time": 0.9,
                "end_time": 1.8022727,
                "pitch": 41,
                "velocity": 101,
                "duration": 0.9022727,
                "tempo": 120.0
            },
            {
                "start_time": 1.6090909,
                "end_time": 1.8022727,
                "pitch": 41,
                "velocity": 101,
                "duration": 0.1931818,
                "tempo": 120.0
            },
            {
                "start_time": 1.8431818,
                "end_time": 1.9522727,
                "pitch": 29,
                "velocity": 4,
                "duration": 0.1090909,
                "tempo": 120.0
            },
            {
                "start_time": 1.9545455,
                "end_time": 2.05,
                "pitch": 29,
                "velocity": 101,
                "duration": 0.0954545,
                "tempo": 120.0
            },
            {
                "start_time": 2.0681818,
                "end_time": 2.1909091,
                "pitch": 29,
                "velocity": 4,
                "duration": 0.1227273,
                "tempo": 120.0
            },
            {
                "start_time": 2.1909091,
                "end_time": 2.2840909,
                "pitch": 29,
                "velocity": 101,
                "duration": 0.0931818,
                "tempo": 120.0
            },
            {
                "start_time": 2.3022727,
                "end_time": 2.5022727,
                "pitch": 36,
                "velocity": 101,
                "duration": 0.2,
                "tempo": 120.0
            },
            {
                "start_time": 2.5409091,
                "end_time": 2.7363636,
                "pitch": 41,
                "velocity": 101,
                "duration": 0.1954545,
                "tempo": 120.0
            },
            {
                "start_time": 2.7772727,
                "end_time": 3.0727273,
                "pitch": 28,
                "velocity": 101,
                "duration": 0.2954545,
                "tempo": 120.0
            },
            {
                "start_time": 3.1295455,
                "end_time": 3.425,
                "pitch": 35,
                "velocity": 101,
                "duration": 0.2954545,
                "tempo": 120.0
            },
            {
                "start_time": 3.4795455,
                "end_time": 3.675,
                "pitch": 40,
                "velocity": 101,
                "duration": 0.1954545,
                "tempo": 120.0
            },
            {
                "start_time": 3.7159091,
                "end_time": 3.8295455,
                "pitch": 28,
                "velocity": 4,
                "duration": 0.1136364,
                "tempo": 120.0
            },
            {
                "start_time": 3.8295455,
                "end_time": 3.9272727,
                "pitch": 28,
                "velocity": 101,
                "duration": 0.0977273,
                "tempo": 120.0
            },
            {
                "start_time": 3.9454545,
                "end_time": 4.0636364,
                "pitch": 28,
                "velocity": 4,
                "duration": 0.1181818,
                "tempo": 120.0
            },
            {
                "start_time": 4.0659091,
                "end_time": 4.1568182,
                "pitch": 28,
                "velocity": 101,
                "duration": 0.0909091,
                "tempo": 120.0
            },
            {
                "start_time": 4.1772727,
                "end_time": 4.2931818,
                "pitch": 28,
                "velocity": 4,
                "duration": 0.1159091,
                "tempo": 120.0
            },
            {
                "start_time": 4.2954545,
                "end_time": 4.3863636,
                "pitch": 40,
                "velocity": 101,
                "duration": 0.0909091,
                "tempo": 120.0
            },
            {
                "start_time": 4.4136364,
                "end_time": 4.6068182,
                "pitch": 39,
                "velocity": 101,
                "duration": 0.1931818,
                "tempo": 120.0
            },
            {
                "start_time": 4.65,
                "end_time": 4.9454545,
                "pitch": 26,
                "velocity": 101,
                "duration": 0.2954545,
                "tempo": 120.0
            },
            {
                "start_time": 5.0,
                "end_time": 5.2886364,
                "pitch": 33,
                "velocity": 101,
                "duration": 0.2886364,
                "tempo": 120.0
            },
            {
                "start_time": 5.3431818,
                "end_time": 5.5386364,
                "pitch": 38,
                "velocity": 101,
                "duration": 0.1954545,
                "tempo": 120.0
            },
            {
                "start_time": 5.5795455,
                "end_time": 5.6954545,
                "pitch": 26,
                "velocity": 4,
                "duration": 0.1159091,
                "tempo": 120.0
            },
            {
                "start_time": 5.6954545,
                "end_time": 5.7909091,
                "pitch": 31,
                "velocity": 101,
                "duration": 0.0954545,
                "tempo": 120.0
            },
            {
                "start_time": 5.8113636,
                "end_time": 5.9340909,
                "pitch": 31,
                "velocity": 4,
                "duration": 0.1227273,
                "tempo": 120.0
            },
            {
                "start_time": 5.9340909,
                "end_time": 6.0204545,
                "pitch": 31,
                "velocity": 101,
                "duration": 0.0863636,
                "tempo": 120.0
            },
            {
                "start_time": 6.0409091,
                "end_time": 6.2340909,
                "pitch": 38,
                "velocity": 101,
                "duration": 0.1931818,
                "tempo": 120.0
            },
            {
                "start_time": 6.275,
                "end_time": 6.4727273,
                "pitch": 43,
                "velocity": 101,
                "duration": 0.1977273,
                "tempo": 120.0
            },
            {
                "start_time": 6.5159091,
                "end_time": 6.8136364,
                "pitch": 24,
                "velocity": 101,
                "duration": 0.2977273,
                "tempo": 120.0
            },
            {
                "start_time": 6.8681818,
                "end_time": 7.1568182,
                "pitch": 31,
                "velocity": 101,
                "duration": 0.2886364,
                "tempo": 120.0
            },
            {
                "start_time": 7.2090909,
                "end_time": 7.4022727,
                "pitch": 36,
                "velocity": 101,
                "duration": 0.1931818,
                "tempo": 120.0
            },
            {
                "start_time": 7.4363636,
                "end_time": 7.6727273,
                "pitch": 36,
                "velocity": 4,
                "duration": 0.2363636,
                "tempo": 120.0
            },
            {
                "start_time": 7.675,
                "end_time": 7.8659091,
                "pitch": 36,
                "velocity": 101,
                "duration": 0.1909091,
                "tempo": 120.0
            },
            {
                "start_time": 7.9045455,
                "end_time": 8.025,
                "pitch": 36,
                "velocity": 4,
                "duration": 0.1204545,
                "tempo": 120.0
            },
            {
                "start_time": 8.0272727,
                "end_time": 8.2022727,
                "pitch": 36,
                "velocity": 101,
                "duration": 0.175,
                "tempo": 120.0
            },
            {
                "start_time": 8.2204545,
                "end_time": 8.2704545,
                "pitch": 35,
                "velocity": 101,
                "duration": 0.05,
                "tempo": 120.0
            },
            {
                "start_time": 8.2704545,
                "end_time": 8.3204545,
                "pitch": 34,
                "velocity": 101,
                "duration": 0.05,
                "tempo": 120.0
            },
            {
                "start_time": 8.3227273,
                "end_time": 8.375,
                "pitch": 33,
                "velocity": 101,
                "duration": 0.0522727,
                "tempo": 120.0
            },
            {
                "start_time": 8.375,
                "end_time": 8.6363636,
                "pitch": 29,
                "velocity": 101,
                "duration": 0.2613636,
                "tempo": 120.0
            },
            {
                "start_time": 8.725,
                "end_time": 8.9818182,
                "pitch": 36,
                "velocity": 101,
                "duration": 0.2568182,
                "tempo": 120.0
            },
            {
                "start_time": 8.375,
                "end_time": 9.2477273,
                "pitch": 41,
                "velocity": 101,
                "duration": 0.8727273,
                "tempo": 120.0
            },
            {
                "start_time": 9.0659091,
                "end_time": 9.2477273,
                "pitch": 41,
                "velocity": 101,
                "duration": 0.1818182,
                "tempo": 120.0
            },
            {
                "start_time": 9.3045455,
                "end_time": 9.4181818,
                "pitch": 29,
                "velocity": 4,
                "duration": 0.1136364,
                "tempo": 120.0
            },
            {
                "start_time": 9.4181818,
                "end_time": 9.5,
                "pitch": 29,
                "velocity": 101,
                "duration": 0.0818182,
                "tempo": 120.0
            },
            {
                "start_time": 9.5363636,
                "end_time": 9.6545455,
                "pitch": 29,
                "velocity": 4,
                "duration": 0.1181818,
                "tempo": 120.0
            },
            {
                "start_time": 9.6568182,
                "end_time": 9.7295455,
                "pitch": 29,
                "velocity": 101,
                "duration": 0.0727273,
                "tempo": 120.0
            },
            {
                "start_time": 9.7636364,
                "end_time": 9.9431818,
                "pitch": 36,
                "velocity": 101,
                "duration": 0.1795455,
                "tempo": 120.0
            },
            {
                "start_time": 9.9954545,
                "end_time": 10.1795455,
                "pitch": 41,
                "velocity": 101,
                "duration": 0.1840909,
                "tempo": 120.0
            },
            {
                "start_time": 10.2386364,
                "end_time": 10.5068182,
                "pitch": 28,
                "velocity": 101,
                "duration": 0.2681818,
                "tempo": 120.0
            },
            {
                "start_time": 10.5954545,
                "end_time": 10.8590909,
                "pitch": 35,
                "velocity": 101,
                "duration": 0.2636364,
                "tempo": 120.0
            },
            {
                "start_time": 10.9454545,
                "end_time": 11.1227273,
                "pitch": 40,
                "velocity": 101,
                "duration": 0.1772727,
                "tempo": 120.0
            },
            {
                "start_time": 11.1772727,
                "end_time": 11.2886364,
                "pitch": 28,
                "velocity": 4,
                "duration": 0.1113636,
                "tempo": 120.0
            },
            {
                "start_time": 11.2886364,
                "end_time": 11.3681818,
                "pitch": 28,
                "velocity": 101,
                "duration": 0.0795455,
                "tempo": 120.0
            },
            {
                "start_time": 11.4068182,
                "end_time": 11.525,
                "pitch": 28,
                "velocity": 4,
                "duration": 0.1181818,
                "tempo": 120.0
            },
            {
                "start_time": 11.5272727,
                "end_time": 11.6022727,
                "pitch": 28,
                "velocity": 101,
                "duration": 0.075,
                "tempo": 120.0
            },
            {
                "start_time": 11.6386364,
                "end_time": 11.7636364,
                "pitch": 28,
                "velocity": 4,
                "duration": 0.125,
                "tempo": 120.0
            },
            {
                "start_time": 11.7636364,
                "end_time": 11.8363636,
                "pitch": 40,
                "velocity": 101,
                "duration": 0.0727273,
                "tempo": 120.0
            },
            {
                "start_time": 11.8772727,
                "end_time": 12.0545455,
                "pitch": 39,
                "velocity": 101,
                "duration": 0.1772727,
                "tempo": 120.0
            },
            {
                "start_time": 12.1090909,
                "end_time": 12.3727273,
                "pitch": 26,
                "velocity": 101,
                "duration": 0.2636364,
                "tempo": 120.0
            },
            {
                "start_time": 12.4636364,
                "end_time": 12.7181818,
                "pitch": 33,
                "velocity": 101,
                "duration": 0.2545455,
                "tempo": 120.0
            },
            {
                "start_time": 12.8045455,
                "end_time": 12.9840909,
                "pitch": 38,
                "velocity": 101,
                "duration": 0.1795455,
                "tempo": 120.0
            },
            {
                "start_time": 13.0431818,
                "end_time": 13.1522727,
                "pitch": 26,
                "velocity": 4,
                "duration": 0.1090909,
                "tempo": 120.0
            },
            {
                "start_time": 13.1545455,
                "end_time": 13.2340909,
                "pitch": 26,
                "velocity": 101,
                "duration": 0.0795455,
                "tempo": 120.0
            },
            {
                "start_time": 13.2704545,
                "end_time": 13.3909091,
                "pitch": 26,
                "velocity": 4,
                "duration": 0.1204545,
                "tempo": 120.0
            },
            {
                "start_time": 13.3909091,
                "end_time": 13.4659091,
                "pitch": 26,
                "velocity": 101,
                "duration": 0.075,
                "tempo": 120.0
            },
            {
                "start_time": 13.5,
                "end_time": 13.6772727,
                "pitch": 33,
                "velocity": 101,
                "duration": 0.1772727,
                "tempo": 120.0
            },
            {
                "start_time": 13.7363636,
                "end_time": 13.9159091,
                "pitch": 38,
                "velocity": 101,
                "duration": 0.1795455,
                "tempo": 120.0
            },
            {
                "start_time": 13.975,
                "end_time": 14.2409091,
                "pitch": 31,
                "velocity": 101,
                "duration": 0.2659091,
                "tempo": 120.0
            },
            {
                "start_time": 14.3318182,
                "end_time": 14.5931818,
                "pitch": 38,
                "velocity": 101,
                "duration": 0.2613636,
                "tempo": 120.0
            },
            {
                "start_time": 14.6818182,
                "end_time": 14.8590909,
                "pitch": 43,
                "velocity": 101,
                "duration": 0.1772727,
                "tempo": 120.0
            },
            {
                "start_time": 14.9136364,
                "end_time": 15.1704545,
                "pitch": 43,
                "velocity": 4,
                "duration": 0.2568182,
                "tempo": 120.0
            },
            {
                "start_time": 15.1727273,
                "end_time": 15.2363636,
                "pitch": 43,
                "velocity": 101,
                "duration": 0.0636364,
                "tempo": 120.0
            },
            {
                "start_time": 15.2386364,
                "end_time": 15.3022727,
                "pitch": 42,
                "velocity": 101,
                "duration": 0.0636364,
                "tempo": 120.0
            },
            {
                "start_time": 15.3022727,
                "end_time": 15.3704545,
                "pitch": 41,
                "velocity": 101,
                "duration": 0.0681818,
                "tempo": 120.0
            },
            {
                "start_time": 15.3727273,
                "end_time": 15.4340909,
                "pitch": 40,
                "velocity": 101,
                "duration": 0.0613636,
                "tempo": 120.0
            },
            {
                "start_time": 15.4340909,
                "end_time": 15.4909091,
                "pitch": 39,
                "velocity": 101,
                "duration": 0.0568182,
                "tempo": 120.0
            },
            {
                "start_time": 15.4909091,
                "end_time": 15.5318182,
                "pitch": 38,
                "velocity": 101,
                "duration": 0.0409091,
                "tempo": 120.0
            },
            {
                "start_time": 15.5318182,
                "end_time": 15.5818182,
                "pitch": 37,
                "velocity": 101,
                "duration": 0.05,
                "tempo": 120.0
            },
            {
                "start_time": 15.5818182,
                "end_time": 15.6318182,
                "pitch": 36,
                "velocity": 101,
                "duration": 0.05,
                "tempo": 120.0
            },
            {
                "start_time": 15.6318182,
                "end_time": 15.6818182,
                "pitch": 35,
                "velocity": 101,
                "duration": 0.05,
                "tempo": 120.0
            },
            {
                "start_time": 15.6840909,
                "end_time": 15.7340909,
                "pitch": 34,
                "velocity": 101,
                "duration": 0.05,
                "tempo": 120.0
            },
            {
                "start_time": 15.7340909,
                "end_time": 15.7863636,
                "pitch": 33,
                "velocity": 101,
                "duration": 0.0522727,
                "tempo": 120.0
            },
            {
                "start_time": 15.7863636,
                "end_time": 15.8477273,
                "pitch": 32,
                "velocity": 101,
                "duration": 0.0613636,
                "tempo": 120.0
            },
            {
                "start_time": 15.85,
                "end_time": 16.1090909,
                "pitch": 29,
                "velocity": 101,
                "duration": 0.2590909,
                "tempo": 120.0
            },
            {
                "start_time": 16.1931818,
                "end_time": 16.4522727,
                "pitch": 36,
                "velocity": 101,
                "duration": 0.2590909,
                "tempo": 120.0
            },
            {
                "start_time": 15.8477273,
                "end_time": 16.7204545,
                "pitch": 41,
                "velocity": 101,
                "duration": 0.8727273,
                "tempo": 120.0
            },
            {
                "start_time": 16.5386364,
                "end_time": 16.7204545,
                "pitch": 41,
                "velocity": 101,
                "duration": 0.1818182,
                "tempo": 120.0
            },
            {
                "start_time": 16.7772727,
                "end_time": 16.8909091,
                "pitch": 29,
                "velocity": 4,
                "duration": 0.1136364,
                "tempo": 120.0
            },
            {
                "start_time": 16.8909091,
                "end_time": 16.9704545,
                "pitch": 29,
                "velocity": 101,
                "duration": 0.0795455,
                "tempo": 120.0
            },
            {
                "start_time": 17.0090909,
                "end_time": 17.125,
                "pitch": 29,
                "velocity": 4,
                "duration": 0.1159091,
                "tempo": 120.0
            },
            {
                "start_time": 17.1272727,
                "end_time": 17.2022727,
                "pitch": 29,
                "velocity": 101,
                "duration": 0.075,
                "tempo": 120.0
            },
            {
                "start_time": 17.2454545,
                "end_time": 17.4136364,
                "pitch": 36,
                "velocity": 101,
                "duration": 0.1681818,
                "tempo": 120.0
            },
            {
                "start_time": 17.4681818,
                "end_time": 17.6477273,
                "pitch": 41,
                "velocity": 101,
                "duration": 0.1795455,
                "tempo": 120.0
            },
            {
                "start_time": 17.7022727,
                "end_time": 17.9659091,
                "pitch": 28,
                "velocity": 101,
                "duration": 0.2636364,
                "tempo": 120.0
            },
            {
                "start_time": 18.0522727,
                "end_time": 18.3181818,
                "pitch": 35,
                "velocity": 101,
                "duration": 0.2659091,
                "tempo": 120.0
            },
            {
                "start_time": 18.4045455,
                "end_time": 18.5863636,
                "pitch": 40,
                "velocity": 101,
                "duration": 0.1818182,
                "tempo": 120.0
            },
            {
                "start_time": 18.6431818,
                "end_time": 18.7590909,
                "pitch": 28,
                "velocity": 4,
                "duration": 0.1159091,
                "tempo": 120.0
            },
            {
                "start_time": 18.7590909,
                "end_time": 18.8386364,
                "pitch": 28,
                "velocity": 101,
                "duration": 0.0795455,
                "tempo": 120.0
            },
            {
                "start_time": 18.875,
                "end_time": 18.9977273,
                "pitch": 28,
                "velocity": 4,
                "duration": 0.1227273,
                "tempo": 120.0
            },
            {
                "start_time": 18.9977273,
                "end_time": 19.0681818,
                "pitch": 28,
                "velocity": 101,
                "duration": 0.0704545,
                "tempo": 120.0
            },
            {
                "start_time": 19.1068182,
                "end_time": 19.2227273,
                "pitch": 28,
                "velocity": 4,
                "duration": 0.1159091,
                "tempo": 120.0
            },
            {
                "start_time": 19.2227273,
                "end_time": 19.2977273,
                "pitch": 40,
                "velocity": 101,
                "duration": 0.075,
                "tempo": 120.0
            },
            {
                "start_time": 19.3431818,
                "end_time": 19.5204545,
                "pitch": 39,
                "velocity": 101,
                "duration": 0.1772727,
                "tempo": 120.0
            },
            {
                "start_time": 19.5818182,
                "end_time": 19.8431818,
                "pitch": 26,
                "velocity": 101,
                "duration": 0.2613636,
                "tempo": 120.0
            },
            {
                "start_time": 19.9272727,
                "end_time": 20.1795455,
                "pitch": 33,
                "velocity": 101,
                "duration": 0.2522727,
                "tempo": 120.0
            },
            {
                "start_time": 20.2636364,
                "end_time": 20.4477273,
                "pitch": 38,
                "velocity": 101,
                "duration": 0.1840909,
                "tempo": 120.0
            },
            {
                "start_time": 20.5113636,
                "end_time": 20.6227273,
                "pitch": 26,
                "velocity": 4,
                "duration": 0.1113636,
                "tempo": 120.0
            },
            {
                "start_time": 20.6227273,
                "end_time": 20.7068182,
                "pitch": 26,
                "velocity": 101,
                "duration": 0.0840909,
                "tempo": 120.0
            },
            {
                "start_time": 20.7431818,
                "end_time": 20.8590909,
                "pitch": 26,
                "velocity": 4,
                "duration": 0.1159091,
                "tempo": 120.0
            },
            {
                "start_time": 20.8590909,
                "end_time": 20.9363636,
                "pitch": 26,
                "velocity": 101,
                "duration": 0.0772727,
                "tempo": 120.0
            },
            {
                "start_time": 20.9727273,
                "end_time": 21.15,
                "pitch": 33,
                "velocity": 101,
                "duration": 0.1772727,
                "tempo": 120.0
            },
            {
                "start_time": 21.2045455,
                "end_time": 21.3840909,
                "pitch": 38,
                "velocity": 101,
                "duration": 0.1795455,
                "tempo": 120.0
            },
            {
                "start_time": 21.4454545,
                "end_time": 21.7022727,
                "pitch": 40,
                "velocity": 101,
                "duration": 0.2568182,
                "tempo": 120.0
            },
            {
                "start_time": 21.7977273,
                "end_time": 22.1431818,
                "pitch": 39,
                "velocity": 101,
                "duration": 0.3454545,
                "tempo": 120.0
            },
            {
                "start_time": 22.2681818,
                "end_time": 22.6136364,
                "pitch": 38,
                "velocity": 101,
                "duration": 0.3454545,
                "tempo": 120.0
            },
            {
                "start_time": 22.7340909,
                "end_time": 22.8045455,
                "pitch": 43,
                "velocity": 101,
                "duration": 0.0704545,
                "tempo": 120.0
            },
            {
                "start_time": 22.8431818,
                "end_time": 22.9636364,
                "pitch": 43,
                "velocity": 4,
                "duration": 0.1204545,
                "tempo": 120.0
            },
            {
                "start_time": 22.9636364,
                "end_time": 23.0340909,
                "pitch": 43,
                "velocity": 101,
                "duration": 0.0704545,
                "tempo": 120.0
            },
            {
                "start_time": 23.0704545,
                "end_time": 23.2522727,
                "pitch": 42,
                "velocity": 101,
                "duration": 0.1818182,
                "tempo": 120.0
            },
            {
                "start_time": 23.3090909,
                "end_time": 23.5681818,
                "pitch": 29,
                "velocity": 101,
                "duration": 0.2590909,
                "tempo": 120.0
            },
            {
                "start_time": 23.6522727,
                "end_time": 23.9136364,
                "pitch": 36,
                "velocity": 101,
                "duration": 0.2613636,
                "tempo": 120.0
            },
            {
                "start_time": 23.9977273,
                "end_time": 24.1818182,
                "pitch": 41,
                "velocity": 101,
                "duration": 0.1840909,
                "tempo": 120.0
            },
            {
                "start_time": 24.2363636,
                "end_time": 24.3545455,
                "pitch": 29,
                "velocity": 4,
                "duration": 0.1181818,
                "tempo": 120.0
            },
            {
                "start_time": 24.3545455,
                "end_time": 24.4386364,
                "pitch": 29,
                "velocity": 101,
                "duration": 0.0840909,
                "tempo": 120.0
            },
            {
                "start_time": 24.475,
                "end_time": 24.5909091,
                "pitch": 29,
                "velocity": 4,
                "duration": 0.1159091,
                "tempo": 120.0
            },
            {
                "start_time": 24.5909091,
                "end_time": 24.6681818,
                "pitch": 29,
                "velocity": 101,
                "duration": 0.0772727,
                "tempo": 120.0
            },
            {
                "start_time": 24.7090909,
                "end_time": 24.8818182,
                "pitch": 36,
                "velocity": 101,
                "duration": 0.1727273,
                "tempo": 120.0
            },
            {
                "start_time": 24.9363636,
                "end_time": 25.1159091,
                "pitch": 41,
                "velocity": 101,
                "duration": 0.1795455,
                "tempo": 120.0
            },
            {
                "start_time": 25.1727273,
                "end_time": 25.4340909,
                "pitch": 28,
                "velocity": 101,
                "duration": 0.2613636,
                "tempo": 120.0
            },
            {
                "start_time": 25.5204545,
                "end_time": 25.7863636,
                "pitch": 35,
                "velocity": 101,
                "duration": 0.2659091,
                "tempo": 120.0
            },
            {
                "start_time": 25.8727273,
                "end_time": 26.0545455,
                "pitch": 40,
                "velocity": 101,
                "duration": 0.1818182,
                "tempo": 120.0
            },
            {
                "start_time": 26.1136364,
                "end_time": 26.225,
                "pitch": 28,
                "velocity": 4,
                "duration": 0.1113636,
                "tempo": 120.0
            },
            {
                "start_time": 26.225,
                "end_time": 26.3068182,
                "pitch": 28,
                "velocity": 101,
                "duration": 0.0818182,
                "tempo": 120.0
            },
            {
                "start_time": 26.3431818,
                "end_time": 26.4636364,
                "pitch": 28,
                "velocity": 4,
                "duration": 0.1204545,
                "tempo": 120.0
            },
            {
                "start_time": 26.4636364,
                "end_time": 26.5363636,
                "pitch": 28,
                "velocity": 101,
                "duration": 0.0727273,
                "tempo": 120.0
            },
            {
                "start_time": 26.5704545,
                "end_time": 26.6886364,
                "pitch": 28,
                "velocity": 4,
                "duration": 0.1181818,
                "tempo": 120.0
            },
            {
                "start_time": 26.6886364,
                "end_time": 26.7659091,
                "pitch": 40,
                "velocity": 101,
                "duration": 0.0772727,
                "tempo": 120.0
            },
            {
                "start_time": 26.8090909,
                "end_time": 26.9863636,
                "pitch": 39,
                "velocity": 101,
                "duration": 0.1772727,
                "tempo": 120.0
            },
            {
                "start_time": 27.05,
                "end_time": 27.3113636,
                "pitch": 26,
                "velocity": 101,
                "duration": 0.2613636,
                "tempo": 120.0
            },
            {
                "start_time": 27.4068182,
                "end_time": 27.6568182,
                "pitch": 33,
                "velocity": 101,
                "duration": 0.25,
                "tempo": 120.0
            },
            {
                "start_time": 27.7454545,
                "end_time": 27.9227273,
                "pitch": 38,
                "velocity": 101,
                "duration": 0.1772727,
                "tempo": 120.0
            },
            {
                "start_time": 27.9795455,
                "end_time": 28.0954545,
                "pitch": 26,
                "velocity": 4,
                "duration": 0.1159091,
                "tempo": 120.0
            },
            {
                "start_time": 28.0977273,
                "end_time": 28.175,
                "pitch": 26,
                "velocity": 101,
                "duration": 0.0772727,
                "tempo": 120.0
            },
            {
                "start_time": 28.2113636,
                "end_time": 28.3340909,
                "pitch": 26,
                "velocity": 4,
                "duration": 0.1227273,
                "tempo": 120.0
            },
            {
                "start_time": 28.3340909,
                "end_time": 28.4045455,
                "pitch": 26,
                "velocity": 101,
                "duration": 0.0704545,
                "tempo": 120.0
            },
            {
                "start_time": 28.4431818,
                "end_time": 28.6181818,
                "pitch": 33,
                "velocity": 101,
                "duration": 0.175,
                "tempo": 120.0
            },
            {
                "start_time": 28.6727273,
                "end_time": 28.85,
                "pitch": 38,
                "velocity": 101,
                "duration": 0.1772727,
                "tempo": 120.0
            },
            {
                "start_time": 5.6954545,
                "end_time": 29.1431818,
                "pitch": 19,
                "velocity": 4,
                "duration": 23.4477273,
                "tempo": 120.0
            },
            {
                "start_time": 28.9068182,
                "end_time": 29.1431818,
                "pitch": 26,
                "velocity": 4,
                "duration": 0.2363636,
                "tempo": 120.0
            },
            {
                "start_time": 29.1454545,
                "end_time": 29.2181818,
                "pitch": 31,
                "velocity": 101,
                "duration": 0.0727273,
                "tempo": 120.0
            },
            {
                "start_time": 29.2522727,
                "end_time": 29.4863636,
                "pitch": 31,
                "velocity": 4,
                "duration": 0.2340909,
                "tempo": 120.0
            },
            {
                "start_time": 29.4863636,
                "end_time": 29.7454545,
                "pitch": 31,
                "velocity": 101,
                "duration": 0.2590909,
                "tempo": 120.0
            },
            {
                "start_time": 29.8318182,
                "end_time": 29.9522727,
                "pitch": 31,
                "velocity": 4,
                "duration": 0.1204545,
                "tempo": 120.0
            },
            {
                "start_time": 29.9545455,
                "end_time": 30.0318182,
                "pitch": 31,
                "velocity": 101,
                "duration": 0.0772727,
                "tempo": 120.0
            },
            {
                "start_time": 30.0681818,
                "end_time": 30.1886364,
                "pitch": 31,
                "velocity": 4,
                "duration": 0.1204545,
                "tempo": 120.0
            },
            {
                "start_time": 30.1886364,
                "end_time": 30.2659091,
                "pitch": 31,
                "velocity": 101,
                "duration": 0.0772727,
                "tempo": 120.0
            },
            {
                "start_time": 30.3022727,
                "end_time": 30.3681818,
                "pitch": 30,
                "velocity": 101,
                "duration": 0.0659091,
                "tempo": 120.0
            },
            {
                "start_time": 30.3681818,
                "end_time": 30.4363636,
                "pitch": 29,
                "velocity": 101,
                "duration": 0.0681818,
                "tempo": 120.0
            },
            {
                "start_time": 30.4363636,
                "end_time": 30.5022727,
                "pitch": 28,
                "velocity": 101,
                "duration": 0.0659091,
                "tempo": 120.0
            },
            {
                "start_time": 30.5022727,
                "end_time": 30.5681818,
                "pitch": 27,
                "velocity": 101,
                "duration": 0.0659091,
                "tempo": 120.0
            },
            {
                "start_time": 30.5681818,
                "end_time": 30.6181818,
                "pitch": 27,
                "velocity": 101,
                "duration": 0.05,
                "tempo": 120.0
            },
            {
                "start_time": 30.6181818,
                "end_time": 30.6681818,
                "pitch": 26,
                "velocity": 101,
                "duration": 0.05,
                "tempo": 120.0
            },
            {
                "start_time": 30.6681818,
                "end_time": 30.7159091,
                "pitch": 25,
                "velocity": 101,
                "duration": 0.0477273,
                "tempo": 120.0
            },
            {
                "start_time": 30.7159091,
                "end_time": 30.7681818,
                "pitch": 24,
                "velocity": 101,
                "duration": 0.0522727,
                "tempo": 120.0
            },
            {
                "start_time": 30.7681818,
                "end_time": 31.0272727,
                "pitch": 29,
                "velocity": 101,
                "duration": 0.2590909,
                "tempo": 120.0
            },
            {
                "start_time": 30.7704545,
                "end_time": 31.0272727,
                "pitch": 29,
                "velocity": 101,
                "duration": 0.2568182,
                "tempo": 120.0
            },
            {
                "start_time": 31.1181818,
                "end_time": 31.3863636,
                "pitch": 36,
                "velocity": 101,
                "duration": 0.2681818,
                "tempo": 120.0
            },
            {
                "start_time": 31.4772727,
                "end_time": 31.6545455,
                "pitch": 41,
                "velocity": 101,
                "duration": 0.1772727,
                "tempo": 120.0
            },
            {
                "start_time": 31.7090909,
                "end_time": 31.8204545,
                "pitch": 29,
                "velocity": 4,
                "duration": 0.1113636,
                "tempo": 120.0
            },
            {
                "start_time": 31.8204545,
                "end_time": 31.9,
                "pitch": 29,
                "velocity": 101,
                "duration": 0.0795455,
                "tempo": 120.0
            },
            {
                "start_time": 31.9340909,
                "end_time": 32.0545455,
                "pitch": 29,
                "velocity": 4,
                "duration": 0.1204545,
                "tempo": 120.0
            },
            {
                "start_time": 32.0568182,
                "end_time": 32.1295455,
                "pitch": 29,
                "velocity": 101,
                "duration": 0.0727273,
                "tempo": 120.0
            },
            {
                "start_time": 32.1636364,
                "end_time": 32.3409091,
                "pitch": 36,
                "velocity": 101,
                "duration": 0.1772727,
                "tempo": 120.0
            },
            {
                "start_time": 32.3954545,
                "end_time": 32.5795455,
                "pitch": 41,
                "velocity": 101,
                "duration": 0.1840909,
                "tempo": 120.0
            },
            {
                "start_time": 32.6386364,
                "end_time": 32.9068182,
                "pitch": 28,
                "velocity": 101,
                "duration": 0.2681818,
                "tempo": 120.0
            },
            {
                "start_time": 32.9977273,
                "end_time": 33.2590909,
                "pitch": 35,
                "velocity": 101,
                "duration": 0.2613636,
                "tempo": 120.0
            },
            {
                "start_time": 33.3477273,
                "end_time": 33.5227273,
                "pitch": 40,
                "velocity": 101,
                "duration": 0.175,
                "tempo": 120.0
            },
            {
                "start_time": 33.5772727,
                "end_time": 33.6886364,
                "pitch": 28,
                "velocity": 4,
                "duration": 0.1113636,
                "tempo": 120.0
            },
            {
                "start_time": 33.6886364,
                "end_time": 33.7681818,
                "pitch": 28,
                "velocity": 101,
                "duration": 0.0795455,
                "tempo": 120.0
            },
            {
                "start_time": 33.8,
                "end_time": 33.9204545,
                "pitch": 28,
                "velocity": 4,
                "duration": 0.1204545,
                "tempo": 120.0
            },
            {
                "start_time": 33.9204545,
                "end_time": 33.9977273,
                "pitch": 28,
                "velocity": 101,
                "duration": 0.0772727,
                "tempo": 120.0
            },
            {
                "start_time": 34.0340909,
                "end_time": 34.15,
                "pitch": 28,
                "velocity": 4,
                "duration": 0.1159091,
                "tempo": 120.0
            },
            {
                "start_time": 34.15,
                "end_time": 34.2272727,
                "pitch": 40,
                "velocity": 101,
                "duration": 0.0772727,
                "tempo": 120.0
            },
            {
                "start_time": 34.2704545,
                "end_time": 34.4477273,
                "pitch": 39,
                "velocity": 101,
                "duration": 0.1772727,
                "tempo": 120.0
            },
            {
                "start_time": 34.5045455,
                "end_time": 34.7681818,
                "pitch": 26,
                "velocity": 101,
                "duration": 0.2636364,
                "tempo": 120.0
            },
            {
                "start_time": 34.8568182,
                "end_time": 35.1136364,
                "pitch": 33,
                "velocity": 101,
                "duration": 0.2568182,
                "tempo": 120.0
            },
            {
                "start_time": 35.2,
                "end_time": 35.3818182,
                "pitch": 38,
                "velocity": 101,
                "duration": 0.1818182,
                "tempo": 120.0
            },
            {
                "start_time": 29.1431818,
                "end_time": 35.5568182,
                "pitch": 19,
                "velocity": 4,
                "duration": 6.4136364,
                "tempo": 120.0
            },
            {
                "start_time": 35.4409091,
                "end_time": 35.5568182,
                "pitch": 26,
                "velocity": 4,
                "duration": 0.1159091,
                "tempo": 120.0
            },
            {
                "start_time": 35.5568182,
                "end_time": 35.6386364,
                "pitch": 31,
                "velocity": 101,
                "duration": 0.0818182,
                "tempo": 120.0
            },
            {
                "start_time": 35.675,
                "end_time": 35.7931818,
                "pitch": 31,
                "velocity": 4,
                "duration": 0.1181818,
                "tempo": 120.0
            },
            {
                "start_time": 35.7954545,
                "end_time": 35.8636364,
                "pitch": 31,
                "velocity": 101,
                "duration": 0.0681818,
                "tempo": 120.0
            },
            {
                "start_time": 35.8977273,
                "end_time": 36.0727273,
                "pitch": 38,
                "velocity": 101,
                "duration": 0.175,
                "tempo": 120.0
            },
            {
                "start_time": 36.1295455,
                "end_time": 36.3068182,
                "pitch": 43,
                "velocity": 101,
                "duration": 0.1772727,
                "tempo": 120.0
            },
            {
                "start_time": 36.3659091,
                "end_time": 36.6295455,
                "pitch": 24,
                "velocity": 101,
                "duration": 0.2636364,
                "tempo": 120.0
            },
            {
                "start_time": 36.7204545,
                "end_time": 36.9818182,
                "pitch": 31,
                "velocity": 101,
                "duration": 0.2613636,
                "tempo": 120.0
            }
        ]
    }
}