{
    "mood": "happy",
    "instruments": {
        "Harpsichord": [
            {
                "start_time": 0.0,
                "end_time": 0.1840909,
                "pitch": 50,
                "velocity": 101,
                "duration": 0.1840909,
                "tempo": 120.0
            },
            {
                "start_time": 0.1840909,
                "end_time": 0.3704545,
                "pitch": 62,
                "velocity": 101,
                "duration": 0.1863636,
                "tempo": 120.0
            },
            {
                "start_time": 0.3704545,
                "end_time": 0.5409091,
                "pitch": 50,
                "velocity": 101,
                "duration": 0.1704545,
                "tempo": 120.0
            },
            {
                "start_time": 0.5409091,
                "end_time": 0.7318182,
                "pitch": 62,
                "velocity": 101,
                "duration": 0.1909091,
                "tempo": 120.0
            },
            {
                "start_time": 0.7318182,
                "end_time": 0.8977273,
                "pitch": 50,
                "velocity": 101,
                "duration": 0.1659091,
                "tempo": 120.0
            },
            {
                "start_time": 0.8977273,
                "end_time": 1.0818182,
                "pitch": 62,
                "velocity": 101,
                "duration": 0.1840909,
                "tempo": 120.0
            },
            {
                "start_time": 1.0818182,
                "end_time": 1.2659091,
                "pitch": 50,
                "velocity": 101,
                "duration": 0.1840909,
                "tempo": 120.0
            },
            {
                "start_time": 1.2659091,
                "end_time": 1.4340909,
                "pitch": 62,
                "velocity": 101,
                "duration": 0.1681818,
                "tempo": 120.0
            },
            {
                "start_time": 0.0,
                "end_time": 1.6181818,
                "pitch": 48,
                "velocity": 101,
                "duration": 1.6181818,
                "tempo": 120.0
            },
            {
                "start_time": 1.4340909,
                "end_time": 1.6181818,
                "pitch": 48,
                "velocity": 101,
                "duration": 0.1840909,
                "tempo": 120.0
            },
            {
                "start_time": 1.6181818,
                "end_time": 1.7840909,
                "pitch": 60,
                "velocity": 101,
                "duration": 0.1659091,
                "tempo": 120.0
            },
            {
                "start_time": 1.7840909,
                "end_time": 1.9681818,
                "pitch": 48,
                "velocity": 101,
                "duration": 0.1840909,
                "tempo": 120.0
            },
            {
                "start_time": 1.9681818,
                "end_time": 2.1522727,
                "pitch": 60,
                "velocity": 101,
                "duration": 0.1840909,
                "tempo": 120.0
            },
            {
                "start_time": 2.1522727,
                "end_time": 2.3295455,
                "pitch": 48,
                "velocity": 101,
                "duration": 0.1772727,
                "tempo": 120.0
            },
            {
                "start_time": 2.3295455,
                "end_time": 2.5227273,
                "pitch": 60,
                "velocity": 101,
                "duration": 0.1931818,
                "tempo": 120.0
            },
            {
                "start_time": 2.5227273,
                "end_time": 2.6909091,
                "pitch": 48,
                "velocity": 101,
                "duration": 0.1681818,
                "tempo": 120.0
            },
            {
                "start_time": 2.6909091,
                "end_time": 2.875,
                "pitch": 60,
                "velocity": 101,
                "duration": 0.1840909,
                "tempo": 120.0
            },
            {
                "start_time": 2.875,
                "end_time": 3.0590909,
                "pitch": 48,
                "velocity": 101,
                "duration": 0.1840909,
                "tempo": 120.0
            },
            {
                "start_time": 3.0590909,
                "end_time": 3.225,
                "pitch": 58,
                "velocity": 101,
                "duration": 0.1659091,
                "tempo": 120.0
            },
            {
                "start_time": 3.225,
                "end_time": 3.4090909,
                "pitch": 46,
                "velocity": 101,
                "duration": 0.1840909,
                "tempo": 120.0
            },
            {
                "start_time": 3.4090909,
                "end_time": 3.5772727,
                "pitch": 58,
                "velocity": 101,
                "duration": 0.1681818,
                "tempo": 120.0
            },
            {
                "start_time": 3.5772727,
                "end_time": 3.7613636,
                "pitch": 46,
                "velocity": 101,
                "duration": 0.1840909,
                "tempo": 120.0
            },
            {
                "start_time": 3.7613636,
                "end_time": 3.9454545,
                "pitch": 58,
                "velocity": 101,
                "duration": 0.1840909,
                "tempo": 120.0
            },
            {
                "start_time": 3.9454545,
                "end_time": 4.1204545,
                "pitch": 46,
                "velocity": 101,
                "duration": 0.175,
                "tempo": 120.0
            },
            {
                "start_time": 4.1204545,
                "end_time": 4.3159091,
                "pitch": 58,
                "velocity": 101,
                "duration": 0.1954545,
                "tempo": 120.0
            },
            {
                "start_time": 4.3159091,
                "end_time": 4.4840909,
                "pitch": 46,
                "velocity": 101,
                "duration": 0.1681818,
                "tempo": 120.0
            },
            {
                "start_time": 4.4840909,
                "end_time": 4.6659091,
                "pitch": 60,
                "velocity": 101,
                "duration": 0.1818182,
                "tempo": 120.0
            },
            {
                "start_time": 4.6659091,
                "end_time": 4.85,
                "pitch": 48,
                "velocity": 101,
                "duration": 0.1840909,
                "tempo": 120.0
            },
            {
                "start_time": 4.85,
                "end_time": 5.0181818,
                "pitch": 48,
                "velocity": 101,
                "duration": 0.1681818,
                "tempo": 120.0
            },
            {
                "start_time": 5.0181818,
                "end_time": 5.2022727,
                "pitch": 58,
                "velocity": 101,
                "duration": 0.1840909,
                "tempo": 120.0
            },
            {
                "start_time": 5.2022727,
                "end_time": 5.3704545,
                "pitch": 46,
                "velocity": 101,
                "duration": 0.1681818,
                "tempo": 120.0
            },
            {
                "start_time": 1.4340909,
                "end_time": 5.5522727,
                "pitch": 50,
                "velocity": 101,
                "duration": 4.1181818,
                "tempo": 120.0
            },
            {
                "start_time": 5.3704545,
                "end_time": 5.5522727,
                "pitch": 50,
                "velocity": 101,
                "duration": 0.1818182,
                "tempo": 120.0
            },
            {
                "start_time": 5.5522727,
                "end_time": 5.7204545,
                "pitch": 62,
                "velocity": 101,
                "duration": 0.1681818,
                "tempo": 120.0
            },
            {
                "start_time": 5.7204545,
                "end_time": 5.9045455,
                "pitch": 50,
                "velocity": 101,
                "duration": 0.1840909,
                "tempo": 120.0
            },
            {
                "start_time": 5.9045455,
                "end_time": 6.0886364,
                "pitch": 62,
                "velocity": 101,
                "duration": 0.1840909,
                "tempo": 120.0
            },
            {
                "start_time": 6.0886364,
                "end_time": 6.2659091,
                "pitch": 50,
                "velocity": 101,
                "duration": 0.1772727,
                "tempo": 120.0
            },
            {
                "start_time": 6.2659091,
                "end_time": 6.4590909,
                "pitch": 62,
                "velocity": 101,
                "duration": 0.1931818,
                "tempo": 120.0
            },
            {
                "start_time": 6.4590909,
                "end_time": 6.6272727,
                "pitch": 50,
                "velocity": 101,
                "duration": 0.1681818,
                "tempo": 120.0
            },
            {
                "start_time": 6.6272727,
                "end_time": 6.8113636,
                "pitch": 62,
                "velocity": 101,
                "duration": 0.1840909,
                "tempo": 120.0
            },
            {
                "start_time": 6.8113636,
                "end_time": 6.9931818,
                "pitch": 48,
                "velocity": 101,
                "duration": 0.1818182,
                "tempo": 120.0
            },
            {
                "start_time": 6.9931818,
                "end_time": 7.1613636,
                "pitch": 60,
                "velocity": 101,
                "duration": 0.1681818,
                "tempo": 120.0
            },
            {
                "start_time": 7.1613636,
                "end_time": 7.3454545,
                "pitch": 48,
                "velocity": 101,
                "duration": 0.1840909,
                "tempo": 120.0
            },
            {
                "start_time": 7.3454545,
                "end_time": 7.5136364,
                "pitch": 60,
                "velocity": 101,
                "duration": 0.1681818,
                "tempo": 120.0
            },
            {
                "start_time": 7.5136364,
                "end_time": 7.6977273,
                "pitch": 48,
                "velocity": 101,
                "duration": 0.1840909,
                "tempo": 120.0
            },
            {
                "start_time": 7.6977273,
                "end_time": 7.8818182,
                "pitch": 60,
                "velocity": 101,
                "duration": 0.1840909,
                "tempo": 120.0
            },
            {
                "start_time": 7.8818182,
                "end_time": 8.0522727,
                "pitch": 48,
                "velocity": 101,
                "duration": 0.1704545,
                "tempo": 120.0
            },
            {
                "start_time": 8.0522727,
                "end_time": 8.2431818,
                "pitch": 60,
                "velocity": 101,
                "duration": 0.1909091,
                "tempo": 120.0
            },
            {
                "start_time": 8.2431818,
                "end_time": 8.4136364,
                "pitch": 48,
                "velocity": 101,
                "duration": 0.1704545,
                "tempo": 120.0
            },
            {
                "start_time": 8.4136364,
                "end_time": 8.6045455,
                "pitch": 58,
                "velocity": 101,
                "duration": 0.1909091,
                "tempo": 120.0
            },
            {
                "start_time": 5.3704545,
                "end_time": 8.7886364,
                "pitch": 46,
                "velocity": 101,
                "duration": 3.4181818,
                "tempo": 120.0
            },
            {
                "start_time": 8.6045455,
                "end_time": 8.7886364,
                "pitch": 46,
                "velocity": 101,
                "duration": 0.1840909,
                "tempo": 120.0
            },
            {
                "start_time": 8.7886364,
                "end_time": 8.9568182,
                "pitch": 58,
                "velocity": 101,
                "duration": 0.1681818,
                "tempo": 120.0
            },
            {
                "start_time": 8.9568182,
                "end_time": 9.1386364,
                "pitch": 46,
                "velocity": 101,
                "duration": 0.1818182,
                "tempo": 120.0
            },
            {
                "start_time": 9.1386364,
                "end_time": 9.3068182,
                "pitch": 58,
                "velocity": 101,
                "duration": 0.1681818,
                "tempo": 120.0
            },
            {
                "start_time": 9.3068182,
                "end_time": 9.4909091,
                "pitch": 46,
                "velocity": 101,
                "duration": 0.1840909,
                "tempo": 120.0
            },
            {
                "start_time": 9.4909091,
                "end_time": 9.675,
                "pitch": 58,
                "velocity": 101,
                "duration": 0.1840909,
                "tempo": 120.0
            },
            {
                "start_time": 9.675,
                "end_time": 9.8477273,
                "pitch": 46,
                "velocity": 101,
                "duration": 0.1727273,
                "tempo": 120.0
            },
            {
                "start_time": 9.8477273,
                "end_time": 10.0363636,
                "pitch": 58,
                "velocity": 101,
                "duration": 0.1886364,
                "tempo": 120.0
            },
            {
                "start_time": 10.0363636,
                "end_time": 10.2045455,
                "pitch": 46,
                "velocity": 101,
                "duration": 0.1681818,
                "tempo": 120.0
            },
            {
                "start_time": 10.2045455,
                "end_time": 10.3886364,
                "pitch": 58,
                "velocity": 101,
                "duration": 0.1840909,
                "tempo": 120.0
            },
            {
                "start_time": 10.3886364,
                "end_time": 10.5545455,
                "pitch": 46,
                "velocity": 101,
                "duration": 0.1659091,
                "tempo": 120.0
            },
            {
                "start_time": 10.5545455,
                "end_time": 10.7386364,
                "pitch": 58,
                "velocity": 101,
                "duration": 0.1840909,
                "tempo": 120.0
            },
            {
                "start_time": 10.7386364,
                "end_time": 10.9295455,
                "pitch": 46,
                "velocity": 101,
                "duration": 0.1909091,
                "tempo": 120.0
            },
            {
                "start_time": 10.9295455,
                "end_time": 11.1022727,
                "pitch": 58,
                "velocity": 101,
                "duration": 0.1727273,
                "tempo": 120.0
            },
            {
                "start_time": 6.8113636,
                "end_time": 11.2840909,
                "pitch": 50,
                "velocity": 101,
                "duration": 4.4727273,
                "tempo": 120.0
            },
            {
                "start_time": 11.1022727,
                "end_time": 11.2840909,
                "pitch": 50,
                "velocity": 101,
                "duration": 0.1818182,
                "tempo": 120.0
            },
            {
                "start_time": 11.2840909,
                "end_time": 11.4522727,
                "pitch": 62,
                "velocity": 101,
                "duration": 0.1681818,
                "tempo": 120.0
            },
            {
                "start_time": 11.4522727,
                "end_time": 11.6363636,
                "pitch": 50,
                "velocity": 101,
                "duration": 0.1840909,
                "tempo": 120.0
            },
            {
                "start_time": 11.6363636,
                "end_time": 11.8204545,
                "pitch": 62,
                "velocity": 101,
                "duration": 0.1840909,
                "tempo": 120.0
            },
            {
                "start_time": 11.8204545,
                "end_time": 11.9931818,
                "pitch": 50,
                "velocity": 101,
                "duration": 0.1727273,
                "tempo": 120.0
            },
            {
                "start_time": 11.9931818,
                "end_time": 12.1818182,
                "pitch": 62,
                "velocity": 101,
                "duration": 0.1886364,
                "tempo": 120.0
            },
            {
                "start_time": 12.1818182,
                "end_time": 12.35,
                "pitch": 50,
                "velocity": 101,
                "duration": 0.1681818,
                "tempo": 120.0
            },
            {
                "start_time": 12.35,
                "end_time": 12.5340909,
                "pitch": 62,
                "velocity": 101,
                "duration": 0.1840909,
                "tempo": 120.0
            },
            {
                "start_time": 12.5340909,
                "end_time": 12.7227273,
                "pitch": 48,
                "velocity": 101,
                "duration": 0.1886364,
                "tempo": 120.0
            },
            {
                "start_time": 12.7227273,
                "end_time": 13.0727273,
                "pitch": 48,
                "velocity": 101,
                "duration": 0.35,
                "tempo": 120.0
            },
            {
                "start_time": 13.0727273,
                "end_time": 13.4204545,
                "pitch": 48,
                "velocity": 101,
                "duration": 0.3477273,
                "tempo": 120.0
            },
            {
                "start_time": 13.4204545,
                "end_time": 13.6045455,
                "pitch": 47,
                "velocity": 101,
                "duration": 0.1840909,
                "tempo": 120.0
            },
            {
                "start_time": 13.6045455,
                "end_time": 13.975,
                "pitch": 47,
                "velocity": 101,
                "duration": 0.3704545,
                "tempo": 120.0
            },
            {
                "start_time": 11.1022727,
                "end_time": 14.1409091,
                "pitch": 46,
                "velocity": 101,
                "duration": 3.0386364,
                "tempo": 120.0
            },
            {
                "start_time": 13.975,
                "end_time": 14.1409091,
                "pitch": 46,
                "velocity": 101,
                "duration": 0.1659091,
                "tempo": 120.0
            },
            {
                "start_time": 14.1409091,
                "end_time": 14.325,
                "pitch": 45,
                "velocity": 101,
                "duration": 0.1840909,
                "tempo": 120.0
            },
            {
                "start_time": 14.325,
                "end_time": 14.5136364,
                "pitch": 45,
                "velocity": 101,
                "duration": 0.1886364,
                "tempo": 120.0
            },
            {
                "start_time": 14.5136364,
                "end_time": 14.6863636,
                "pitch": 45,
                "velocity": 101,
                "duration": 0.1727273,
                "tempo": 120.0
            },
            {
                "start_time": 14.6863636,
                "end_time": 14.8659091,
                "pitch": 45,
                "velocity": 101,
                "duration": 0.1795455,
                "tempo": 120.0
            },
            {
                "start_time": 14.8659091,
                "end_time": 15.0272727,
                "pitch": 45,
                "velocity": 101,
                "duration": 0.1613636,
                "tempo": 120.0
            },
            {
                "start_time": 15.0272727,
                "end_time": 15.2113636,
                "pitch": 45,
                "velocity": 101,
                "duration": 0.1840909,
                "tempo": 120.0
            },
            {
                "start_time": 15.2113636,
                "end_time": 15.3954545,
                "pitch": 45,
                "velocity": 101,
                "duration": 0.1840909,
                "tempo": 120.0
            },
            {
                "start_time": 15.3954545,
                "end_time": 15.5727273,
                "pitch": 45,
                "velocity": 101,
                "duration": 0.1772727,
                "tempo": 120.0
            },
            {
                "start_time": 15.5727273,
                "end_time": 15.7659091,
                "pitch": 45,
                "velocity": 101,
                "duration": 0.1931818,
                "tempo": 120.0
            },
            {
                "start_time": 15.7659091,
                "end_time": 15.9340909,
                "pitch": 45,
                "velocity": 101,
                "duration": 0.1681818,
                "tempo": 120.0
            },
            {
                "start_time": 15.9340909,
                "end_time": 16.1181818,
                "pitch": 45,
                "velocity": 101,
                "duration": 0.1840909,
                "tempo": 120.0
            },
            {
                "start_time": 16.1181818,
                "end_time": 16.2863636,
                "pitch": 45,
                "velocity": 101,
                "duration": 0.1681818,
                "tempo": 120.0
            },
            {
                "start_time": 16.2863636,
                "end_time": 16.4681818,
                "pitch": 45,
                "velocity": 101,
                "duration": 0.1818182,
                "tempo": 120.0
            },
            {
                "start_time": 16.4681818,
                "end_time": 16.6522727,
                "pitch": 45,
                "velocity": 101,
                "duration": 0.1840909,
                "tempo": 120.0
            },
            {
                "start_time": 16.6522727,
                "end_time": 16.8204545,
                "pitch": 45,
                "velocity": 101,
                "duration": 0.1681818,
                "tempo": 120.0
            },
            {
                "start_time": 16.8204545,
                "end_time": 17.0045455,
                "pitch": 45,
                "velocity": 101,
                "duration": 0.1840909,
                "tempo": 120.0
            },
            {
                "start_time": 17.0045455,
                "end_time": 17.1727273,
                "pitch": 45,
                "velocity": 101,
                "duration": 0.1681818,
                "tempo": 120.0
            },
            {
                "start_time": 17.1727273,
                "end_time": 17.3568182,
                "pitch": 45,
                "velocity": 101,
                "duration": 0.1840909,
                "tempo": 120.0
            },
            {
                "start_time": 17.3568182,
                "end_time": 17.5386364,
                "pitch": 45,
                "velocity": 101,
                "duration": 0.1818182,
                "tempo": 120.0
            },
            {
                "start_time": 17.5409091,
                "end_time": 17.7159091,
                "pitch": 45,
                "velocity": 101,
                "duration": 0.175,
                "tempo": 120.0
            },
            {
                "start_time": 17.7159091,
                "end_time": 17.9113636,
                "pitch": 45,
                "velocity": 101,
                "duration": 0.1954545,
                "tempo": 120.0
            },
            {
                "start_time": 17.9113636,
                "end_time": 18.0772727,
                "pitch": 45,
                "velocity": 101,
                "duration": 0.1659091,
                "tempo": 120.0
            },
            {
                "start_time": 18.0772727,
                "end_time": 18.2613636,
                "pitch": 45,
                "velocity": 101,
                "duration": 0.1840909,
                "tempo": 120.0
            },
            {
                "start_time": 18.2613636,
                "end_time": 18.4454545,
                "pitch": 45,
                "velocity": 101,
                "duration": 0.1840909,
                "tempo": 120.0
            },
            {
                "start_time": 18.4454545,
                "end_time": 18.6136364,
                "pitch": 45,
                "velocity": 101,
                "duration": 0.1681818,
                "tempo": 120.0
            },
            {
                "start_time": 18.6136364,
                "end_time": 18.7977273,
                "pitch": 45,
                "velocity": 101,
                "duration": 0.1840909,
                "tempo": 120.0
            },
            {
                "start_time": 18.7977273,
                "end_time": 18.9636364,
                "pitch": 45,
                "velocity": 101,
                "duration": 0.1659091,
                "tempo": 120.0
            },
            {
                "start_time": 18.9636364,
                "end_time": 19.1545455,
                "pitch": 45,
                "velocity": 101,
                "duration": 0.1909091,
                "tempo": 120.0
            },
            {
                "start_time": 19.1545455,
                "end_time": 19.3431818,
                "pitch": 45,
                "velocity": 101,
                "duration": 0.1886364,
                "tempo": 120.0
            },
            {
                "start_time": 19.3431818,
                "end_time": 19.5159091,
                "pitch": 45,
                "velocity": 101,
                "duration": 0.1727273,
                "tempo": 120.0
            },
            {
                "start_time": 19.5159091,
                "end_time": 19.7045455,
                "pitch": 45,
                "velocity": 101,
                "duration": 0.1886364,
                "tempo": 120.0
            },
            {
                "start_time": 19.7045455,
                "end_time": 19.8727273,
                "pitch": 45,
                "velocity": 101,
                "duration": 0.1681818,
                "tempo": 120.0
            },
            {
                "start_time": 19.8727273,
                "end_time": 20.0568182,
                "pitch": 57,
                "velocity": 101,
                "duration": 0.1840909,
                "tempo": 120.0
            },
            {
                "start_time": 20.0568182,
                "end_time": 20.2409091,
                "pitch": 45,
                "velocity": 101,
                "duration": 0.1840909,
                "tempo": 120.0
            },
            {
                "start_time": 20.2409091,
                "end_time": 20.4068182,
                "pitch": 57,
                "velocity": 101,
                "duration": 0.1659091,
                "tempo": 120.0
            },
            {
                "start_time": 20.4068182,
                "end_time": 20.5909091,
                "pitch": 45,
                "velocity": 101,
                "duration": 0.1840909,
                "tempo": 120.0
            },
            {
                "start_time": 20.5909091,
                "end_time": 20.7590909,
                "pitch": 57,
                "velocity": 101,
                "duration": 0.1681818,
                "tempo": 120.0
            },
            {
                "start_time": 20.7590909,
                "end_time": 20.9431818,
                "pitch": 45,
                "velocity": 101,
                "duration": 0.1840909,
                "tempo": 120.0
            },
            {
                "start_time": 20.9431818,
                "end_time": 21.1090909,
                "pitch": 57,
                "velocity": 101,
                "duration": 0.1659091,
                "tempo": 120.0
            },
            {
                "start_time": 21.1090909,
                "end_time": 21.2931818,
                "pitch": 45,
                "velocity": 101,
                "duration": 0.1840909,
                "tempo": 120.0
            },
            {
                "start_time": 21.2931818,
                "end_time": 21.4772727,
                "pitch": 45,
                "velocity": 101,
                "duration": 0.1840909,
                "tempo": 120.0
            },
            {
                "start_time": 21.4772727,
                "end_time": 21.6545455,
                "pitch": 45,
                "velocity": 101,
                "duration": 0.1772727,
                "tempo": 120.0
            },
            {
                "start_time": 21.6545455,
                "end_time": 21.8477273,
                "pitch": 45,
                "velocity": 101,
                "duration": 0.1931818,
                "tempo": 120.0
            },
            {
                "start_time": 21.8477273,
                "end_time": 22.0159091,
                "pitch": 45,
                "velocity": 101,
                "duration": 0.1681818,
                "tempo": 120.0
            },
            {
                "start_time": 22.0159091,
                "end_time": 22.2,
                "pitch": 57,
                "velocity": 101,
                "duration": 0.1840909,
                "tempo": 120.0
            },
            {
                "start_time": 22.2,
                "end_time": 22.3886364,
                "pitch": 45,
                "velocity": 101,
                "duration": 0.1886364,
                "tempo": 120.0
            },
            {
                "start_time": 22.3886364,
                "end_time": 22.5613636,
                "pitch": 57,
                "velocity": 101,
                "duration": 0.1727273,
                "tempo": 120.0
            },
            {
                "start_time": 12.5340909,
                "end_time": 22.7386364,
                "pitch": 50,
                "velocity": 101,
                "duration": 10.2045455,
                "tempo": 120.0
            },
            {
                "start_time": 22.5613636,
                "end_time": 22.7386364,
                "pitch": 50,
                "velocity": 101,
                "duration": 0.1772727,
                "tempo": 120.0
            },
            {
                "start_time": 22.7386364,
                "end_time": 22.9022727,
                "pitch": 62,
                "velocity": 101,
                "duration": 0.1636364,
                "tempo": 120.0
            }
        ],
        "Trumpet": [
            {
                "start_time": 18.2613636,
                "end_time": 18.4454545,
                "pitch": 57,
                "velocity": 101,
                "duration": 0.1840909,
                "tempo": 120.0
            },
            {
                "start_time": 18.4454545,
                "end_time": 18.6136364,
                "pitch": 57,
                "velocity": 101,
                "duration": 0.1681818,
                "tempo": 120.0
            },
            {
                "start_time": 18.6136364,
                "end_time": 18.7977273,
                "pitch": 58,
                "velocity": 101,
                "duration": 0.1840909,
                "tempo": 120.0
            },
            {
                "start_time": 18.7977273,
                "end_time": 18.9636364,
                "pitch": 57,
                "velocity": 101,
                "duration": 0.1659091,
                "tempo": 120.0
            },
            {
                "start_time": 18.9636364,
                "end_time": 19.1522727,
                "pitch": 58,
                "velocity": 101,
                "duration": 0.1886364,
                "tempo": 120.0
            },
            {
                "start_time": 19.1522727,
                "end_time": 19.3431818,
                "pitch": 57,
                "velocity": 101,
                "duration": 0.1909091,
                "tempo": 120.0
            },
            {
                "start_time": 19.3431818,
                "end_time": 19.5159091,
                "pitch": 58,
                "velocity": 101,
                "duration": 0.1727273,
                "tempo": 120.0
            },
            {
                "start_time": 19.5159091,
                "end_time": 19.7045455,
                "pitch": 57,
                "velocity": 101,
                "duration": 0.1886364,
                "tempo": 120.0
            },
            {
                "start_time": 19.7045455,
                "end_time": 19.8727273,
                "pitch": 61,
                "velocity": 101,
                "duration": 0.1681818,
                "tempo": 120.0
            },
            {
                "start_time": 19.8727273,
                "end_time": 20.0568182,
                "pitch": 61,
                "velocity": 101,
                "duration": 0.1840909,
                "tempo": 120.0
            },
            {
                "start_time": 20.0568182,
                "end_time": 20.1386364,
                "pitch": 62,
                "velocity": 101,
                "duration": 0.0818182,
                "tempo": 120.0
            },
            {
                "start_time": 20.1386364,
                "end_time": 20.2409091,
                "pitch": 61,
                "velocity": 101,
                "duration": 0.1022727,
                "tempo": 120.0
            },
            {
                "start_time": 20.2409091,
                "end_time": 20.3227273,
                "pitch": 62,
                "velocity": 101,
                "duration": 0.0818182,
                "tempo": 120.0
            },
            {
                "start_time": 20.3227273,
                "end_time": 20.4068182,
                "pitch": 61,
                "velocity": 101,
                "duration": 0.0840909,
                "tempo": 120.0
            },
            {
                "start_time": 20.4068182,
                "end_time": 20.4909091,
                "pitch": 62,
                "velocity": 101,
                "duration": 0.0840909,
                "tempo": 120.0
            },
            {
                "start_time": 20.4909091,
                "end_time": 20.5909091,
                "pitch": 61,
                "velocity": 101,
                "duration": 0.1,
                "tempo": 120.0
            },
            {
                "start_time": 20.5909091,
                "end_time": 20.6409091,
                "pitch": 67,
                "velocity": 101,
                "duration": 0.05,
                "tempo": 120.0
            },
            {
                "start_time": 20.6409091,
                "end_time": 20.7068182,
                "pitch": 68,
                "velocity": 101,
                "duration": 0.0659091,
                "tempo": 120.0
            },
            {
                "start_time": 20.7068182,
                "end_time": 20.7590909,
                "pitch": 68,
                "velocity": 101,
                "duration": 0.0522727,
                "tempo": 120.0
            },
            {
                "start_time": 20.7590909,
                "end_time": 20.825,
                "pitch": 69,
                "velocity": 101,
                "duration": 0.0659091,
                "tempo": 120.0
            },
            {
                "start_time": 20.825,
                "end_time": 20.875,
                "pitch": 70,
                "velocity": 101,
                "duration": 0.05,
                "tempo": 120.0
            },
            {
                "start_time": 20.875,
                "end_time": 20.9431818,
                "pitch": 71,
                "velocity": 101,
                "duration": 0.0681818,
                "tempo": 120.0
            },
            {
                "start_time": 20.9431818,
                "end_time": 20.9909091,
                "pitch": 72,
                "velocity": 101,
                "duration": 0.0477273,
                "tempo": 120.0
            },
            {
                "start_time": 20.9909091,
                "end_time": 21.0590909,
                "pitch": 73,
                "velocity": 101,
                "duration": 0.0681818,
                "tempo": 120.0
            },
            {
                "start_time": 21.0590909,
                "end_time": 21.1090909,
                "pitch": 74,
                "velocity": 101,
                "duration": 0.05,
                "tempo": 120.0
            }
        ],
        "Acoustic Bass": [
            {
                "start_time": 0.0,
                "end_time": 0.1840909,
                "pitch": 38,
                "velocity": 127,
                "duration": 0.1840909,
                "tempo": 120.0
            },
            {
                "start_time": 0.1840909,
                "end_time": 0.3681818,
                "pitch": 50,
                "velocity": 127,
                "duration": 0.1840909,
                "tempo": 120.0
            },
            {
                "start_time": 0.3704545,
                "end_time": 0.5409091,
                "pitch": 38,
                "velocity": 127,
                "duration": 0.1704545,
                "tempo": 120.0
            },
            {
                "start_time": 0.5409091,
                "end_time": 0.7318182,
                "pitch": 50,
                "velocity": 127,
                "duration": 0.1909091,
                "tempo": 120.0
            },
            {
                "start_time": 0.7318182,
                "end_time": 0.8977273,
                "pitch": 38,
                "velocity": 127,
                "duration": 0.1659091,
                "tempo": 120.0
            },
            {
                "start_time": 0.8977273,
                "end_time": 1.0818182,
                "pitch": 50,
                "velocity": 127,
                "duration": 0.1840909,
                "tempo": 120.0
            },
            {
                "start_time": 1.0818182,
                "end_time": 1.2659091,
                "pitch": 38,
                "velocity": 127,
                "duration": 0.1840909,
                "tempo": 120.0
            },
            {
                "start_time": 1.2659091,
                "end_time": 1.4340909,
                "pitch": 50,
                "velocity": 127,
                "duration": 0.1681818,
                "tempo": 120.0
            },
            {
                "start_time": 0.0,
                "end_time": 1.6181818,
                "pitch": 36,
                "velocity": 127,
                "duration": 1.6181818,
                "tempo": 120.0
            },
            {
                "start_time": 1.4340909,
                "end_time": 1.6181818,
                "pitch": 36,
                "velocity": 127,
                "duration": 0.1840909,
                "tempo": 120.0
            },
            {
                "start_time": 1.6181818,
                "end_time": 1.7840909,
                "pitch": 48,
                "velocity": 127,
                "duration": 0.1659091,
                "tempo": 120.0
            },
            {
                "start_time": 1.7840909,
                "end_time": 1.9681818,
                "pitch": 36,
                "velocity": 127,
                "duration": 0.1840909,
                "tempo": 120.0
            },
            {
                "start_time": 1.9681818,
                "end_time": 2.1522727,
                "pitch": 48,
                "velocity": 127,
                "duration": 0.1840909,
                "tempo": 120.0
            },
            {
                "start_time": 2.1522727,
                "end_time": 2.3295455,
                "pitch": 36,
                "velocity": 127,
                "duration": 0.1772727,
                "tempo": 120.0
            },
            {
                "start_time": 2.3295455,
                "end_time": 2.5227273,
                "pitch": 48,
                "velocity": 127,
                "duration": 0.1931818,
                "tempo": 120.0
            },
            {
                "start_time": 2.5227273,
                "end_time": 2.6909091,
                "pitch": 36,
                "velocity": 127,
                "duration": 0.1681818,
                "tempo": 120.0
            },
            {
                "start_time": 2.6909091,
                "end_time": 2.875,
                "pitch": 48,
                "velocity": 127,
                "duration": 0.1840909,
                "tempo": 120.0
            },
            {
                "start_time": 2.875,
                "end_time": 3.0590909,
                "pitch": 36,
                "velocity": 127,
                "duration": 0.1840909,
                "tempo": 120.0
            },
            {
                "start_time": 3.0590909,
                "end_time": 3.225,
                "pitch": 46,
                "velocity": 127,
                "duration": 0.1659091,
                "tempo": 120.0
            },
            {
                "start_time": 3.225,
                "end_time": 3.4090909,
                "pitch": 34,
                "velocity": 127,
                "duration": 0.1840909,
                "tempo": 120.0
            },
            {
                "start_time": 3.4090909,
                "end_time": 3.5772727,
                "pitch": 46,
                "velocity": 127,
                "duration": 0.1681818,
                "tempo": 120.0
            },
            {
                "start_time": 3.5772727,
                "end_time": 3.7613636,
                "pitch": 34,
                "velocity": 127,
                "duration": 0.1840909,
                "tempo": 120.0
            },
            {
                "start_time": 3.7613636,
                "end_time": 3.9454545,
                "pitch": 46,
                "velocity": 127,
                "duration": 0.1840909,
                "tempo": 120.0
            },
            {
                "start_time": 3.9454545,
                "end_time": 4.1204545,
                "pitch": 34,
                "velocity": 127,
                "duration": 0.175,
                "tempo": 120.0
            },
            {
                "start_time": 4.1204545,
                "end_time": 4.3159091,
                "pitch": 46,
                "velocity": 127,
                "duration": 0.1954545,
                "tempo": 120.0
            },
            {
                "start_time": 4.3159091,
                "end_time": 4.4818182,
                "pitch": 34,
                "velocity": 127,
                "duration": 0.1659091,
                "tempo": 120.0
            },
            {
                "start_time": 4.4818182,
                "end_time": 4.6659091,
                "pitch": 48,
                "velocity": 127,
                "duration": 0.1840909,
                "tempo": 120.0
            },
            {
                "start_time": 4.6659091,
                "end_time": 4.85,
                "pitch": 36,
                "velocity": 127,
                "duration": 0.1840909,
                "tempo": 120.0
            },
            {
                "start_time": 4.85,
                "end_time": 5.0181818,
                "pitch": 36,
                "velocity": 127,
                "duration": 0.1681818,
                "tempo": 120.0
            },
            {
                "start_time": 5.0181818,
                "end_time": 5.2022727,
                "pitch": 46,
                "velocity": 127,
                "duration": 0.1840909,
                "tempo": 120.0
            },
            {
                "start_time": 5.2022727,
                "end_time": 5.3704545,
                "pitch": 34,
                "velocity": 127,
                "duration": 0.1681818,
                "tempo": 120.0
            },
            {
                "start_time": 1.4340909,
                "end_time": 5.5522727,
                "pitch": 38,
                "velocity": 127,
                "duration": 4.1181818,
                "tempo": 120.0
            },
            {
                "start_time": 5.3704545,
                "end_time": 5.5522727,
                "pitch": 38,
                "velocity": 127,
                "duration": 0.1818182,
                "tempo": 120.0
            },
            {
                "start_time": 5.5522727,
                "end_time": 5.7204545,
                "pitch": 50,
                "velocity": 127,
                "duration": 0.1681818,
                "tempo": 120.0
            },
            {
                "start_time": 5.7204545,
                "end_time": 5.9045455,
                "pitch": 38,
                "velocity": 127,
                "duration": 0.1840909,
                "tempo": 120.0
            },
            {
                "start_time": 5.9045455,
                "end_time": 6.0886364,
                "pitch": 50,
                "velocity": 127,
                "duration": 0.1840909,
                "tempo": 120.0
            },
            {
                "start_time": 6.0886364,
                "end_time": 6.2636364,
                "pitch": 38,
                "velocity": 127,
                "duration": 0.175,
                "tempo": 120.0
            },
            {
                "start_time": 6.2636364,
                "end_time": 6.4590909,
                "pitch": 50,
                "velocity": 127,
                "duration": 0.1954545,
                "tempo": 120.0
            },
            {
                "start_time": 6.4590909,
                "end_time": 6.6272727,
                "pitch": 38,
                "velocity": 127,
                "duration": 0.1681818,
                "tempo": 120.0
            },
            {
                "start_time": 6.6272727,
                "end_time": 6.8113636,
                "pitch": 50,
                "velocity": 127,
                "duration": 0.1840909,
                "tempo": 120.0
            },
            {
                "start_time": 6.8113636,
                "end_time": 6.9931818,
                "pitch": 36,
                "velocity": 127,
                "duration": 0.1818182,
                "tempo": 120.0
            },
            {
                "start_time": 6.9931818,
                "end_time": 7.1613636,
                "pitch": 48,
                "velocity": 127,
                "duration": 0.1681818,
                "tempo": 120.0
            },
            {
                "start_time": 7.1613636,
                "end_time": 7.3454545,
                "pitch": 36,
                "velocity": 127,
                "duration": 0.1840909,
                "tempo": 120.0
            },
            {
                "start_time": 7.3454545,
                "end_time": 7.5136364,
                "pitch": 48,
                "velocity": 127,
                "duration": 0.1681818,
                "tempo": 120.0
            },
            {
                "start_time": 7.5136364,
                "end_time": 7.6977273,
                "pitch": 36,
                "velocity": 127,
                "duration": 0.1840909,
                "tempo": 120.0
            },
            {
                "start_time": 7.6977273,
                "end_time": 7.8795455,
                "pitch": 48,
                "velocity": 127,
                "duration": 0.1818182,
                "tempo": 120.0
            },
            {
                "start_time": 7.8795455,
                "end_time": 8.0522727,
                "pitch": 36,
                "velocity": 127,
                "duration": 0.1727273,
                "tempo": 120.0
            },
            {
                "start_time": 8.0522727,
                "end_time": 8.2431818,
                "pitch": 48,
                "velocity": 127,
                "duration": 0.1909091,
                "tempo": 120.0
            },
            {
                "start_time": 8.2431818,
                "end_time": 8.4136364,
                "pitch": 36,
                "velocity": 127,
                "duration": 0.1704545,
                "tempo": 120.0
            },
            {
                "start_time": 8.4136364,
                "end_time": 8.6045455,
                "pitch": 46,
                "velocity": 127,
                "duration": 0.1909091,
                "tempo": 120.0
            },
            {
                "start_time": 5.3704545,
                "end_time": 8.7886364,
                "pitch": 34,
                "velocity": 127,
                "duration": 3.4181818,
                "tempo": 120.0
            },
            {
                "start_time": 8.6045455,
                "end_time": 8.7886364,
                "pitch": 34,
                "velocity": 127,
                "duration": 0.1840909,
                "tempo": 120.0
            },
            {
                "start_time": 8.7886364,
                "end_time": 8.9568182,
                "pitch": 46,
                "velocity": 127,
                "duration": 0.1681818,
                "tempo": 120.0
            },
            {
                "start_time": 8.9568182,
                "end_time": 9.1386364,
                "pitch": 34,
                "velocity": 127,
                "duration": 0.1818182,
                "tempo": 120.0
            },
            {
                "start_time": 9.1386364,
                "end_time": 9.3068182,
                "pitch": 46,
                "velocity": 127,
                "duration": 0.1681818,
                "tempo": 120.0
            },
            {
                "start_time": 9.3068182,
                "end_time": 9.4909091,
                "pitch": 34,
                "velocity": 127,
                "duration": 0.1840909,
                "tempo": 120.0
            },
            {
                "start_time": 9.4909091,
                "end_time": 9.675,
                "pitch": 46,
                "velocity": 127,
                "duration": 0.1840909,
                "tempo": 120.0
            },
            {
                "start_time": 9.675,
                "end_time": 9.8477273,
                "pitch": 34,
                "velocity": 127,
                "duration": 0.1727273,
                "tempo": 120.0
            },
            {
                "start_time": 9.8477273,
                "end_time": 10.0363636,
                "pitch": 46,
                "velocity": 127,
                "duration": 0.1886364,
                "tempo": 120.0
            },
            {
                "start_time": 10.0363636,
                "end_time": 10.2045455,
                "pitch": 34,
                "velocity": 127,
                "duration": 0.1681818,
                "tempo": 120.0
            },
            {
                "start_time": 10.2045455,
                "end_time": 10.3886364,
                "pitch": 46,
                "velocity": 127,
                "duration": 0.1840909,
                "tempo": 120.0
            },
            {
                "start_time": 10.3886364,
                "end_time": 10.5545455,
                "pitch": 34,
                "velocity": 127,
                "duration": 0.1659091,
                "tempo": 120.0
            },
            {
                "start_time": 10.5545455,
                "end_time": 10.7386364,
                "pitch": 46,
                "velocity": 127,
                "duration": 0.1840909,
                "tempo": 120.0
            },
            {
                "start_time": 10.7386364,
                "end_time": 10.9272727,
                "pitch": 34,
                "velocity": 127,
                "duration": 0.1886364,
                "tempo": 120.0
            },
            {
                "start_time": 10.9272727,
                "end_time": 11.1022727,
                "pitch": 46,
                "velocity": 127,
                "duration": 0.175,
                "tempo": 120.0
            },
            {
                "start_time": 6.8113636,
                "end_time": 11.2840909,
                "pitch": 38,
                "velocity": 127,
                "duration": 4.4727273,
                "tempo": 120.0
            },
            {
                "start_time": 11.1022727,
                "end_time": 11.2840909,
                "pitch": 38,
                "velocity": 127,
                "duration": 0.1818182,
                "tempo": 120.0
            },
            {
                "start_time": 11.2840909,
                "end_time": 11.4522727,
                "pitch": 50,
                "velocity": 127,
                "duration": 0.1681818,
                "tempo": 120.0
            },
            {
                "start_time": 11.4522727,
                "end_time": 11.6363636,
                "pitch": 38,
                "velocity": 127,
                "duration": 0.1840909,
                "tempo": 120.0
            },
            {
                "start_time": 11.6363636,
                "end_time": 11.8204545,
                "pitch": 50,
                "velocity": 127,
                "duration": 0.1840909,
                "tempo": 120.0
            },
            {
                "start_time": 11.8204545,
                "end_time": 11.9931818,
                "pitch": 38,
                "velocity": 127,
                "duration": 0.1727273,
                "tempo": 120.0
            },
            {
                "start_time": 11.9931818,
                "end_time": 12.1818182,
                "pitch": 50,
                "velocity": 127,
                "duration": 0.1886364,
                "tempo": 120.0
            },
            {
                "start_time": 12.1818182,
                "end_time": 12.3477273,
                "pitch": 38,
                "velocity": 127,
                "duration": 0.1659091,
                "tempo": 120.0
            },
            {
                "start_time": 12.3477273,
                "end_time": 12.5340909,
                "pitch": 50,
                "velocity": 127,
                "duration": 0.1863636,
                "tempo": 120.0
            },
            {
                "start_time": 12.5340909,
                "end_time": 12.7227273,
                "pitch": 36,
                "velocity": 127,
                "duration": 0.1886364,
                "tempo": 120.0
            },
            {
                "start_time": 12.7227273,
                "end_time": 13.0727273,
                "pitch": 36,
                "velocity": 127,
                "duration": 0.35,
                "tempo": 120.0
            },
            {
                "start_time": 13.0727273,
                "end_time": 13.4204545,
                "pitch": 36,
                "velocity": 127,
                "duration": 0.3477273,
                "tempo": 120.0
            },
            {
                "start_time": 13.4204545,
                "end_time": 13.6045455,
                "pitch": 35,
                "velocity": 127,
                "duration": 0.1840909,
                "tempo": 120.0
            },
            {
                "start_time": 13.6045455,
                "end_time": 13.975,
                "pitch": 35,
                "velocity": 127,
                "duration": 0.3704545,
                "tempo": 120.0
            },
            {
                "start_time": 11.1022727,
                "end_time": 14.1409091,
                "pitch": 34,
                "velocity": 127,
                "duration": 3.0386364,
                "tempo": 120.0
            },
            {
                "start_time": 13.975,
                "end_time": 14.1409091,
                "pitch": 34,
                "velocity": 127,
                "duration": 0.1659091,
                "tempo": 120.0
            },
            {
                "start_time": 14.1409091,
                "end_time": 14.325,
                "pitch": 33,
                "velocity": 127,
                "duration": 0.1840909,
                "tempo": 120.0
            },
            {
                "start_time": 14.325,
                "end_time": 14.5136364,
                "pitch": 33,
                "velocity": 127,
                "duration": 0.1886364,
                "tempo": 120.0
            },
            {
                "start_time": 14.5136364,
                "end_time": 14.6863636,
                "pitch": 33,
                "velocity": 127,
                "duration": 0.1727273,
                "tempo": 120.0
            },
            {
                "start_time": 14.6863636,
                "end_time": 14.8659091,
                "pitch": 33,
                "velocity": 127,
                "duration": 0.1795455,
                "tempo": 120.0
            },
            {
                "start_time": 14.8659091,
                "end_time": 15.0272727,
                "pitch": 33,
                "velocity": 127,
                "duration": 0.1613636,
                "tempo": 120.0
            },
            {
                "start_time": 15.0272727,
                "end_time": 15.2113636,
                "pitch": 33,
                "velocity": 127,
                "duration": 0.1840909,
                "tempo": 120.0
            },
            {
                "start_time": 15.2113636,
                "end_time": 15.3954545,
                "pitch": 33,
                "velocity": 127,
                "duration": 0.1840909,
                "tempo": 120.0
            },
            {
                "start_time": 15.3954545,
                "end_time": 15.5727273,
                "pitch": 33,
                "velocity": 127,
                "duration": 0.1772727,
                "tempo": 120.0
            },
            {
                "start_time": 15.5727273,
                "end_time": 15.7659091,
                "pitch": 33,
                "velocity": 127,
                "duration": 0.1931818,
                "tempo": 120.0
            },
            {
                "start_time": 15.7659091,
                "end_time": 15.9340909,
                "pitch": 33,
                "velocity": 127,
                "duration": 0.1681818,
                "tempo": 120.0
            },
            {
                "start_time": 15.9340909,
                "end_time": 16.1181818,
                "pitch": 33,
                "velocity": 127,
                "duration": 0.1840909,
                "tempo": 120.0
            },
            {
                "start_time": 16.1181818,
                "end_time": 16.2840909,
                "pitch": 33,
                "velocity": 127,
                "duration": 0.1659091,
                "tempo": 120.0
            },
            {
                "start_time": 16.2840909,
                "end_time": 16.4681818,
                "pitch": 33,
                "velocity": 127,
                "duration": 0.1840909,
                "tempo": 120.0
            },
            {
                "start_time": 16.4681818,
                "end_time": 16.6522727,
                "pitch": 33,
                "velocity": 127,
                "duration": 0.1840909,
                "tempo": 120.0
            },
            {
                "start_time": 16.6522727,
                "end_time": 16.8204545,
                "pitch": 33,
                "velocity": 127,
                "duration": 0.1681818,
                "tempo": 120.0
            },
            {
                "start_time": 16.8204545,
                "end_time": 17.0045455,
                "pitch": 33,
                "velocity": 127,
                "duration": 0.1840909,
                "tempo": 120.0
            },
            {
                "start_time": 17.0045455,
                "end_time": 17.1704545,
                "pitch": 33,
                "velocity": 127,
                "duration": 0.1659091,
                "tempo": 120.0
            },
            {
                "start_time": 17.1727273,
                "end_time": 17.3545455,
                "pitch": 33,
                "velocity": 127,
                "duration": 0.1818182,
                "tempo": 120.0
            },
            {
                "start_time": 17.3545455,
                "end_time": 17.5386364,
                "pitch": 33,
                "velocity": 127,
                "duration": 0.1840909,
                "tempo": 120.0
            },
            {
                "start_time": 17.5386364,
                "end_time": 17.7159091,
                "pitch": 33,
                "velocity": 127,
                "duration": 0.1772727,
                "tempo": 120.0
            },
            {
                "start_time": 17.7159091,
                "end_time": 17.9090909,
                "pitch": 33,
                "velocity": 127,
                "duration": 0.1931818,
                "tempo": 120.0
            },
            {
                "start_time": 17.9090909,
                "end_time": 18.0772727,
                "pitch": 33,
                "velocity": 127,
                "duration": 0.1681818,
                "tempo": 120.0
            },
            {
                "start_time": 18.0772727,
                "end_time": 18.2613636,
                "pitch": 33,
                "velocity": 127,
                "duration": 0.1840909,
                "tempo": 120.0
            },
            {
                "start_time": 18.2613636,
                "end_time": 18.4454545,
                "pitch": 33,
                "velocity": 127,
                "duration": 0.1840909,
                "tempo": 120.0
            },
            {
                "start_time": 18.4454545,
                "end_time": 18.6136364,
                "pitch": 33,
                "velocity": 127,
                "duration": 0.1681818,
                "tempo": 120.0
            },
            {
                "start_time": 18.6136364,
                "end_time": 18.7977273,
                "pitch": 33,
                "velocity": 127,
                "duration": 0.1840909,
                "tempo": 120.0
            },
            {
                "start_time": 18.7977273,
                "end_time": 18.9636364,
                "pitch": 33,
                "velocity": 127,
                "duration": 0.1659091,
                "tempo": 120.0
            },
            {
                "start_time": 18.9636364,
                "end_time": 19.1545455,
                "pitch": 33,
                "velocity": 127,
                "duration": 0.1909091,
                "tempo": 120.0
            },
            {
                "start_time": 19.1545455,
                "end_time": 19.3431818,
                "pitch": 33,
                "velocity": 127,
                "duration": 0.1886364,
                "tempo": 120.0
            },
            {
                "start_time": 19.3431818,
                "end_time": 19.5159091,
                "pitch": 33,
                "velocity": 127,
                "duration": 0.1727273,
                "tempo": 120.0
            },
            {
                "start_time": 19.5159091,
                "end_time": 19.7045455,
                "pitch": 33,
                "velocity": 127,
                "duration": 0.1886364,
                "tempo": 120.0
            },
            {
                "start_time": 19.7045455,
                "end_time": 19.8727273,
                "pitch": 33,
                "velocity": 127,
                "duration": 0.1681818,
                "tempo": 120.0
            },
            {
                "start_time": 19.8727273,
                "end_time": 20.0568182,
                "pitch": 45,
                "velocity": 127,
                "duration": 0.1840909,
                "tempo": 120.0
            },
            {
                "start_time": 20.0568182,
                "end_time": 20.2409091,
                "pitch": 33,
                "velocity": 127,
                "duration": 0.1840909,
                "tempo": 120.0
            },
            {
                "start_time": 20.2409091,
                "end_time": 20.4068182,
                "pitch": 45,
                "velocity": 127,
                "duration": 0.1659091,
                "tempo": 120.0
            },
            {
                "start_time": 20.4068182,
                "end_time": 20.5909091,
                "pitch": 33,
                "velocity": 127,
                "duration": 0.1840909,
                "tempo": 120.0
            },
            {
                "start_time": 20.5909091,
                "end_time": 20.7590909,
                "pitch": 45,
                "velocity": 127,
                "duration": 0.1681818,
                "tempo": 120.0
            },
            {
                "start_time": 20.7590909,
                "end_time": 20.9431818,
                "pitch": 33,
                "velocity": 127,
                "duration": 0.1840909,
                "tempo": 120.0
            },
            {
                "start_time": 20.9431818,
                "end_time": 21.1090909,
                "pitch": 45,
                "velocity": 127,
                "duration": 0.1659091,
                "tempo": 120.0
            },
            {
                "start_time": 21.1090909,
                "end_time": 21.2931818,
                "pitch": 33,
                "velocity": 127,
                "duration": 0.1840909,
                "tempo": 120.0
            },
            {
                "start_time": 21.2931818,
                "end_time": 21.4772727,
                "pitch": 33,
                "velocity": 127,
                "duration": 0.1840909,
                "tempo": 120.0
            },
            {
                "start_time": 21.4772727,
                "end_time": 21.6545455,
                "pitch": 33,
                "velocity": 127,
                "duration": 0.1772727,
                "tempo": 120.0
            },
            {
                "start_time": 21.6545455,
                "end_time": 21.8477273,
                "pitch": 33,
                "velocity": 127,
                "duration": 0.1931818,
                "tempo": 120.0
            },
            {
                "start_time": 21.8477273,
                "end_time": 22.0159091,
                "pitch": 33,
                "velocity": 127,
                "duration": 0.1681818,
                "tempo": 120.0
            },
            {
                "start_time": 22.0159091,
                "end_time": 22.2,
                "pitch": 45,
                "velocity": 127,
                "duration": 0.1840909,
                "tempo": 120.0
            },
            {
                "start_time": 22.2,
                "end_time": 22.3886364,
                "pitch": 33,
                "velocity": 127,
                "duration": 0.1886364,
                "tempo": 120.0
            },
            {
                "start_time": 22.3886364,
                "end_time": 22.5613636,
                "pitch": 45,
                "velocity": 127,
                "duration": 0.1727273,
                "tempo": 120.0
            },
            {
                "start_time": 12.5340909,
                "end_time": 22.7386364,
                "pitch": 38,
                "velocity": 127,
                "duration": 10.2045455,
                "tempo": 120.0
            },
            {
                "start_time": 22.5613636,
                "end_time": 22.7386364,
                "pitch": 38,
                "velocity": 127,
                "duration": 0.1772727,
                "tempo": 120.0
            },
            {
                "start_time": 22.7386364,
                "end_time": 22.9022727,
                "pitch": 50,
                "velocity": 127,
                "duration": 0.1636364,
                "tempo": 120.0
            }
        ]
    }
}