{
    "mood": "happy",
    "instruments": {
        "Electric Piano 1": [
            {
                "start_time": 44.9522727,
                "end_time": 44.9659091,
                "pitch": 32,
                "velocity": 127,
                "duration": 0.0136364,
                "tempo": 120.0
            },
            {
                "start_time": 44.9659091,
                "end_time": 44.9840909,
                "pitch": 30,
                "velocity": 127,
                "duration": 0.0181818,
                "tempo": 120.0
            },
            {
                "start_time": 45.0181818,
                "end_time": 45.0363636,
                "pitch": 32,
                "velocity": 127,
                "duration": 0.0181818,
                "tempo": 120.0
            },
            {
                "start_time": 44.9659091,
                "end_time": 45.0363636,
                "pitch": 42,
                "velocity": 127,
                "duration": 0.0704545,
                "tempo": 120.0
            },
            {
                "start_time": 45.0363636,
                "end_time": 45.0522727,
                "pitch": 30,
                "velocity": 127,
                "duration": 0.0159091,
                "tempo": 120.0
            },
            {
                "start_time": 45.0886364,
                "end_time": 45.1045455,
                "pitch": 32,
                "velocity": 127,
                "duration": 0.0159091,
                "tempo": 120.0
            },
            {
                "start_time": 45.0363636,
                "end_time": 45.1045455,
                "pitch": 42,
                "velocity": 127,
                "duration": 0.0681818,
                "tempo": 120.0
            },
            {
                "start_time": 45.1045455,
                "end_time": 45.1386364,
                "pitch": 30,
                "velocity": 127,
                "duration": 0.0340909,
                "tempo": 120.0
            },
            {
                "start_time": 45.1386364,
                "end_time": 45.1727273,
                "pitch": 27,
                "velocity": 127,
                "duration": 0.0340909,
                "tempo": 120.0
            },
            {
                "start_time": 45.1727273,
                "end_time": 45.1909091,
                "pitch": 24,
                "velocity": 127,
                "duration": 0.0181818,
                "tempo": 120.0
            },
            {
                "start_time": 45.2090909,
                "end_time": 45.225,
                "pitch": 32,
                "velocity": 127,
                "duration": 0.0159091,
                "tempo": 120.0
            },
            {
                "start_time": 45.1045455,
                "end_time": 45.225,
                "pitch": 42,
                "velocity": 127,
                "duration": 0.1204545,
                "tempo": 120.0
            },
            {
                "start_time": 45.225,
                "end_time": 45.2590909,
                "pitch": 30,
                "velocity": 127,
                "duration": 0.0340909,
                "tempo": 120.0
            },
            {
                "start_time": 45.2590909,
                "end_time": 45.2931818,
                "pitch": 27,
                "velocity": 127,
                "duration": 0.0340909,
                "tempo": 120.0
            },
            {
                "start_time": 45.2931818,
                "end_time": 45.3113636,
                "pitch": 24,
                "velocity": 127,
                "duration": 0.0181818,
                "tempo": 120.0
            },
            {
                "start_time": 45.3477273,
                "end_time": 45.3636364,
                "pitch": 28,
                "velocity": 127,
                "duration": 0.0159091,
                "tempo": 120.0
            },
            {
                "start_time": 45.3636364,
                "end_time": 45.3795455,
                "pitch": 26,
                "velocity": 127,
                "duration": 0.0159091,
                "tempo": 120.0
            },
            {
                "start_time": 45.4113636,
                "end_time": 45.4272727,
                "pitch": 28,
                "velocity": 127,
                "duration": 0.0159091,
                "tempo": 120.0
            },
            {
                "start_time": 45.4272727,
                "end_time": 45.4454545,
                "pitch": 26,
                "velocity": 127,
                "duration": 0.0181818,
                "tempo": 120.0
            },
            {
                "start_time": 45.4772727,
                "end_time": 45.4931818,
                "pitch": 28,
                "velocity": 127,
                "duration": 0.0159091,
                "tempo": 120.0
            },
            {
                "start_time": 45.4931818,
                "end_time": 45.525,
                "pitch": 26,
                "velocity": 127,
                "duration": 0.0318182,
                "tempo": 120.0
            },
            {
                "start_time": 45.525,
                "end_time": 45.5590909,
                "pitch": 23,
                "velocity": 127,
                "duration": 0.0340909,
                "tempo": 120.0
            },
            {
                "start_time": 45.5590909,
                "end_time": 45.575,
                "pitch": 20,
                "velocity": 127,
                "duration": 0.0159091,
                "tempo": 120.0
            },
            {
                "start_time": 45.6090909,
                "end_time": 45.625,
                "pitch": 28,
                "velocity": 127,
                "duration": 0.0159091,
                "tempo": 120.0
            },
            {
                "start_time": 45.625,
                "end_time": 45.6568182,
                "pitch": 26,
                "velocity": 127,
                "duration": 0.0318182,
                "tempo": 120.0
            },
            {
                "start_time": 45.6568182,
                "end_time": 45.6886364,
                "pitch": 23,
                "velocity": 127,
                "duration": 0.0318182,
                "tempo": 120.0
            },
            {
                "start_time": 45.6886364,
                "end_time": 45.7068182,
                "pitch": 20,
                "velocity": 127,
                "duration": 0.0181818,
                "tempo": 120.0
            }
        ],
        "Violin": [
            {
                "start_time": 7.9022727,
                "end_time": 9.4409091,
                "pitch": 64,
                "velocity": 101,
                "duration": 1.5386364,
                "tempo": 120.0
            },
            {
                "start_time": 9.4772727,
                "end_time": 10.2295455,
                "pitch": 59,
                "velocity": 101,
                "duration": 0.7522727,
                "tempo": 120.0
            },
            {
                "start_time": 10.2636364,
                "end_time": 11.0181818,
                "pitch": 66,
                "velocity": 101,
                "duration": 0.7545455,
                "tempo": 120.0
            },
            {
                "start_time": 11.0545455,
                "end_time": 12.5863636,
                "pitch": 67,
                "velocity": 101,
                "duration": 1.5318182,
                "tempo": 120.0
            },
            {
                "start_time": 12.6181818,
                "end_time": 13.3818182,
                "pitch": 66,
                "velocity": 101,
                "duration": 0.7636364,
                "tempo": 120.0
            },
            {
                "start_time": 13.4159091,
                "end_time": 14.1704545,
                "pitch": 62,
                "velocity": 101,
                "duration": 0.7545455,
                "tempo": 120.0
            },
            {
                "start_time": 14.2045455,
                "end_time": 15.7590909,
                "pitch": 60,
                "velocity": 101,
                "duration": 1.5545455,
                "tempo": 120.0
            },
            {
                "start_time": 15.7931818,
                "end_time": 16.5386364,
                "pitch": 57,
                "velocity": 101,
                "duration": 0.7454545,
                "tempo": 120.0
            },
            {
                "start_time": 16.5727273,
                "end_time": 17.325,
                "pitch": 62,
                "velocity": 101,
                "duration": 0.7522727,
                "tempo": 120.0
            },
            {
                "start_time": 17.3613636,
                "end_time": 20.4931818,
                "pitch": 59,
                "velocity": 101,
                "duration": 3.1318182,
                "tempo": 120.0
            },
            {
                "start_time": 20.5295455,
                "end_time": 22.0590909,
                "pitch": 64,
                "velocity": 101,
                "duration": 1.5295455,
                "tempo": 120.0
            },
            {
                "start_time": 22.0931818,
                "end_time": 22.8454545,
                "pitch": 59,
                "velocity": 101,
                "duration": 0.7522727,
                "tempo": 120.0
            },
            {
                "start_time": 22.8772727,
                "end_time": 23.6431818,
                "pitch": 66,
                "velocity": 101,
                "duration": 0.7659091,
                "tempo": 120.0
            },
            {
                "start_time": 23.6795455,
                "end_time": 25.2113636,
                "pitch": 67,
                "velocity": 101,
                "duration": 1.5318182,
                "tempo": 120.0
            },
            {
                "start_time": 25.2454545,
                "end_time": 25.9977273,
                "pitch": 66,
                "velocity": 101,
                "duration": 0.7522727,
                "tempo": 120.0
            },
            {
                "start_time": 26.0318182,
                "end_time": 26.7863636,
                "pitch": 62,
                "velocity": 101,
                "duration": 0.7545455,
                "tempo": 120.0
            },
            {
                "start_time": 26.8227273,
                "end_time": 28.3636364,
                "pitch": 60,
                "velocity": 101,
                "duration": 1.5409091,
                "tempo": 120.0
            },
            {
                "start_time": 28.3954545,
                "end_time": 29.15,
                "pitch": 57,
                "velocity": 101,
                "duration": 0.7545455,
                "tempo": 120.0
            },
            {
                "start_time": 29.1840909,
                "end_time": 29.9477273,
                "pitch": 62,
                "velocity": 101,
                "duration": 0.7636364,
                "tempo": 120.0
            },
            {
                "start_time": 29.9818182,
                "end_time": 32.3022727,
                "pitch": 64,
                "velocity": 101,
                "duration": 2.3204545,
                "tempo": 120.0
            }
        ],
        "Acoustic Bass": [
            {
                "start_time": 0.7886364,
                "end_time": 1.0272727,
                "pitch": 45,
                "velocity": 80,
                "duration": 0.2386364,
                "tempo": 120.0
            },
            {
                "start_time": 1.0613636,
                "end_time": 1.5659091,
                "pitch": 45,
                "velocity": 80,
                "duration": 0.5045455,
                "tempo": 120.0
            },
            {
                "start_time": 1.6022727,
                "end_time": 1.6954545,
                "pitch": 40,
                "velocity": 80,
                "duration": 0.0931818,
                "tempo": 120.0
            },
            {
                "start_time": 1.7272727,
                "end_time": 1.8227273,
                "pitch": 40,
                "velocity": 80,
                "duration": 0.0954545,
                "tempo": 120.0
            },
            {
                "start_time": 1.8545455,
                "end_time": 1.95,
                "pitch": 42,
                "velocity": 80,
                "duration": 0.0954545,
                "tempo": 120.0
            },
            {
                "start_time": 1.9818182,
                "end_time": 2.0840909,
                "pitch": 40,
                "velocity": 80,
                "duration": 0.1022727,
                "tempo": 120.0
            },
            {
                "start_time": 2.1181818,
                "end_time": 2.2045455,
                "pitch": 43,
                "velocity": 80,
                "duration": 0.0863636,
                "tempo": 120.0
            },
            {
                "start_time": 2.2386364,
                "end_time": 2.3409091,
                "pitch": 40,
                "velocity": 80,
                "duration": 0.1022727,
                "tempo": 120.0
            },
            {
                "start_time": 2.375,
                "end_time": 2.6090909,
                "pitch": 45,
                "velocity": 80,
                "duration": 0.2340909,
                "tempo": 120.0
            },
            {
                "start_time": 2.6431818,
                "end_time": 3.0,
                "pitch": 38,
                "velocity": 80,
                "duration": 0.3568182,
                "tempo": 120.0
            },
            {
                "start_time": 3.0340909,
                "end_time": 3.1363636,
                "pitch": 42,
                "velocity": 80,
                "duration": 0.1022727,
                "tempo": 120.0
            },
            {
                "start_time": 3.1727273,
                "end_time": 3.2704545,
                "pitch": 40,
                "velocity": 80,
                "duration": 0.0977273,
                "tempo": 120.0
            },
            {
                "start_time": 3.3022727,
                "end_time": 3.4,
                "pitch": 40,
                "velocity": 80,
                "duration": 0.0977273,
                "tempo": 120.0
            },
            {
                "start_time": 3.4340909,
                "end_time": 3.5318182,
                "pitch": 42,
                "velocity": 80,
                "duration": 0.0977273,
                "tempo": 120.0
            },
            {
                "start_time": 3.5636364,
                "end_time": 3.65,
                "pitch": 40,
                "velocity": 80,
                "duration": 0.0863636,
                "tempo": 120.0
            },
            {
                "start_time": 3.6840909,
                "end_time": 3.7863636,
                "pitch": 43,
                "velocity": 80,
                "duration": 0.1022727,
                "tempo": 120.0
            },
            {
                "start_time": 3.8227273,
                "end_time": 3.9227273,
                "pitch": 40,
                "velocity": 80,
                "duration": 0.1,
                "tempo": 120.0
            },
            {
                "start_time": 3.9568182,
                "end_time": 4.1863636,
                "pitch": 38,
                "velocity": 80,
                "duration": 0.2295455,
                "tempo": 120.0
            },
            {
                "start_time": 4.2204545,
                "end_time": 4.5681818,
                "pitch": 42,
                "velocity": 80,
                "duration": 0.3477273,
                "tempo": 120.0
            },
            {
                "start_time": 4.6022727,
                "end_time": 4.7022727,
                "pitch": 38,
                "velocity": 80,
                "duration": 0.1,
                "tempo": 120.0
            },
            {
                "start_time": 4.7386364,
                "end_time": 4.8386364,
                "pitch": 40,
                "velocity": 80,
                "duration": 0.1,
                "tempo": 120.0
            },
            {
                "start_time": 4.875,
                "end_time": 4.9772727,
                "pitch": 40,
                "velocity": 80,
                "duration": 0.1022727,
                "tempo": 120.0
            },
            {
                "start_time": 5.0136364,
                "end_time": 5.0977273,
                "pitch": 42,
                "velocity": 80,
                "duration": 0.0840909,
                "tempo": 120.0
            },
            {
                "start_time": 5.1318182,
                "end_time": 5.2295455,
                "pitch": 40,
                "velocity": 80,
                "duration": 0.0977273,
                "tempo": 120.0
            },
            {
                "start_time": 5.2636364,
                "end_time": 5.3613636,
                "pitch": 43,
                "velocity": 80,
                "duration": 0.0977273,
                "tempo": 120.0
            },
            {
                "start_time": 5.3931818,
                "end_time": 5.4931818,
                "pitch": 40,
                "velocity": 80,
                "duration": 0.1,
                "tempo": 120.0
            },
            {
                "start_time": 5.525,
                "end_time": 5.7659091,
                "pitch": 45,
                "velocity": 80,
                "duration": 0.2409091,
                "tempo": 120.0
            },
            {
                "start_time": 5.7840909,
                "end_time": 6.1568182,
                "pitch": 38,
                "velocity": 80,
                "duration": 0.3727273,
                "tempo": 120.0
            },
            {
                "start_time": 6.1909091,
                "end_time": 6.2909091,
                "pitch": 42,
                "velocity": 80,
                "duration": 0.1,
                "tempo": 120.0
            },
            {
                "start_time": 6.325,
                "end_time": 6.4272727,
                "pitch": 40,
                "velocity": 80,
                "duration": 0.1022727,
                "tempo": 120.0
            },
            {
                "start_time": 6.4613636,
                "end_time": 6.5477273,
                "pitch": 40,
                "velocity": 80,
                "duration": 0.0863636,
                "tempo": 120.0
            },
            {
                "start_time": 6.5840909,
                "end_time": 6.6863636,
                "pitch": 42,
                "velocity": 80,
                "duration": 0.1022727,
                "tempo": 120.0
            },
            {
                "start_time": 6.7204545,
                "end_time": 6.8181818,
                "pitch": 40,
                "velocity": 80,
                "duration": 0.0977273,
                "tempo": 120.0
            },
            {
                "start_time": 6.8522727,
                "end_time": 6.95,
                "pitch": 43,
                "velocity": 80,
                "duration": 0.0977273,
                "tempo": 120.0
            },
            {
                "start_time": 6.9840909,
                "end_time": 7.0795455,
                "pitch": 40,
                "velocity": 80,
                "duration": 0.0954545,
                "tempo": 120.0
            },
            {
                "start_time": 7.1136364,
                "end_time": 7.3340909,
                "pitch": 38,
                "velocity": 80,
                "duration": 0.2204545,
                "tempo": 120.0
            },
            {
                "start_time": 7.3704545,
                "end_time": 7.7340909,
                "pitch": 42,
                "velocity": 80,
                "duration": 0.3636364,
                "tempo": 120.0
            },
            {
                "start_time": 7.7681818,
                "end_time": 7.8659091,
                "pitch": 38,
                "velocity": 80,
                "duration": 0.0977273,
                "tempo": 120.0
            },
            {
                "start_time": 7.9,
                "end_time": 7.9863636,
                "pitch": 40,
                "velocity": 80,
                "duration": 0.0863636,
                "tempo": 120.0
            },
            {
                "start_time": 8.0204545,
                "end_time": 8.1272727,
                "pitch": 40,
                "velocity": 80,
                "duration": 0.1068182,
                "tempo": 120.0
            },
            {
                "start_time": 8.1613636,
                "end_time": 8.2681818,
                "pitch": 42,
                "velocity": 80,
                "duration": 0.1068182,
                "tempo": 120.0
            },
            {
                "start_time": 8.3022727,
                "end_time": 8.4,
                "pitch": 40,
                "velocity": 80,
                "duration": 0.0977273,
                "tempo": 120.0
            },
            {
                "start_time": 8.4340909,
                "end_time": 8.5318182,
                "pitch": 43,
                "velocity": 80,
                "duration": 0.0977273,
                "tempo": 120.0
            },
            {
                "start_time": 8.5636364,
                "end_time": 8.6454545,
                "pitch": 40,
                "velocity": 80,
                "duration": 0.0818182,
                "tempo": 120.0
            },
            {
                "start_time": 8.6795455,
                "end_time": 8.9068182,
                "pitch": 45,
                "velocity": 80,
                "duration": 0.2272727,
                "tempo": 120.0
            },
            {
                "start_time": 8.9409091,
                "end_time": 9.3159091,
                "pitch": 38,
                "velocity": 80,
                "duration": 0.375,
                "tempo": 120.0
            },
            {
                "start_time": 9.3522727,
                "end_time": 9.4409091,
                "pitch": 42,
                "velocity": 80,
                "duration": 0.0886364,
                "tempo": 120.0
            },
            {
                "start_time": 9.475,
                "end_time": 9.5727273,
                "pitch": 40,
                "velocity": 80,
                "duration": 0.0977273,
                "tempo": 120.0
            },
            {
                "start_time": 9.6068182,
                "end_time": 9.7045455,
                "pitch": 40,
                "velocity": 80,
                "duration": 0.0977273,
                "tempo": 120.0
            },
            {
                "start_time": 9.7386364,
                "end_time": 9.8340909,
                "pitch": 42,
                "velocity": 80,
                "duration": 0.0954545,
                "tempo": 120.0
            },
            {
                "start_time": 9.8681818,
                "end_time": 9.9704545,
                "pitch": 40,
                "velocity": 80,
                "duration": 0.1022727,
                "tempo": 120.0
            },
            {
                "start_time": 10.0045455,
                "end_time": 10.0909091,
                "pitch": 43,
                "velocity": 80,
                "duration": 0.0863636,
                "tempo": 120.0
            },
            {
                "start_time": 10.1272727,
                "end_time": 10.2295455,
                "pitch": 40,
                "velocity": 80,
                "duration": 0.1022727,
                "tempo": 120.0
            },
            {
                "start_time": 10.2636364,
                "end_time": 10.4931818,
                "pitch": 38,
                "velocity": 80,
                "duration": 0.2295455,
                "tempo": 120.0
            },
            {
                "start_time": 10.525,
                "end_time": 10.8795455,
                "pitch": 42,
                "velocity": 80,
                "duration": 0.3545455,
                "tempo": 120.0
            },
            {
                "start_time": 10.9159091,
                "end_time": 11.0181818,
                "pitch": 38,
                "velocity": 80,
                "duration": 0.1022727,
                "tempo": 120.0
            },
            {
                "start_time": 11.0545455,
                "end_time": 11.1545455,
                "pitch": 40,
                "velocity": 80,
                "duration": 0.1,
                "tempo": 120.0
            },
            {
                "start_time": 11.1863636,
                "end_time": 11.2886364,
                "pitch": 40,
                "velocity": 80,
                "duration": 0.1022727,
                "tempo": 120.0
            },
            {
                "start_time": 11.3227273,
                "end_time": 11.4227273,
                "pitch": 42,
                "velocity": 80,
                "duration": 0.1,
                "tempo": 120.0
            },
            {
                "start_time": 11.4568182,
                "end_time": 11.5409091,
                "pitch": 40,
                "velocity": 80,
                "duration": 0.0840909,
                "tempo": 120.0
            },
            {
                "start_time": 11.575,
                "end_time": 11.6772727,
                "pitch": 43,
                "velocity": 80,
                "duration": 0.1022727,
                "tempo": 120.0
            },
            {
                "start_time": 11.7113636,
                "end_time": 11.8159091,
                "pitch": 40,
                "velocity": 80,
                "duration": 0.1045455,
                "tempo": 120.0
            },
            {
                "start_time": 11.85,
                "end_time": 12.0772727,
                "pitch": 45,
                "velocity": 80,
                "duration": 0.2272727,
                "tempo": 120.0
            },
            {
                "start_time": 12.1113636,
                "end_time": 12.4545455,
                "pitch": 38,
                "velocity": 80,
                "duration": 0.3431818,
                "tempo": 120.0
            },
            {
                "start_time": 12.4863636,
                "end_time": 12.5863636,
                "pitch": 42,
                "velocity": 80,
                "duration": 0.1,
                "tempo": 120.0
            },
            {
                "start_time": 12.6181818,
                "end_time": 12.7227273,
                "pitch": 40,
                "velocity": 80,
                "duration": 0.1045455,
                "tempo": 120.0
            },
            {
                "start_time": 12.7568182,
                "end_time": 12.8636364,
                "pitch": 40,
                "velocity": 80,
                "duration": 0.1068182,
                "tempo": 120.0
            },
            {
                "start_time": 12.9,
                "end_time": 12.9863636,
                "pitch": 42,
                "velocity": 80,
                "duration": 0.0863636,
                "tempo": 120.0
            },
            {
                "start_time": 13.0227273,
                "end_time": 13.1204545,
                "pitch": 40,
                "velocity": 80,
                "duration": 0.0977273,
                "tempo": 120.0
            },
            {
                "start_time": 13.1522727,
                "end_time": 13.2522727,
                "pitch": 43,
                "velocity": 80,
                "duration": 0.1,
                "tempo": 120.0
            },
            {
                "start_time": 13.2840909,
                "end_time": 13.3818182,
                "pitch": 40,
                "velocity": 80,
                "duration": 0.0977273,
                "tempo": 120.0
            },
            {
                "start_time": 13.4136364,
                "end_time": 13.6545455,
                "pitch": 38,
                "velocity": 80,
                "duration": 0.2409091,
                "tempo": 120.0
            },
            {
                "start_time": 13.6727273,
                "end_time": 14.0386364,
                "pitch": 42,
                "velocity": 80,
                "duration": 0.3659091,
                "tempo": 120.0
            },
            {
                "start_time": 14.0727273,
                "end_time": 14.1704545,
                "pitch": 38,
                "velocity": 80,
                "duration": 0.0977273,
                "tempo": 120.0
            },
            {
                "start_time": 14.2045455,
                "end_time": 14.3068182,
                "pitch": 36,
                "velocity": 80,
                "duration": 0.1022727,
                "tempo": 120.0
            },
            {
                "start_time": 14.3409091,
                "end_time": 14.4272727,
                "pitch": 36,
                "velocity": 80,
                "duration": 0.0863636,
                "tempo": 120.0
            },
            {
                "start_time": 14.4613636,
                "end_time": 14.5636364,
                "pitch": 38,
                "velocity": 80,
                "duration": 0.1022727,
                "tempo": 120.0
            },
            {
                "start_time": 14.6,
                "end_time": 14.7,
                "pitch": 36,
                "velocity": 80,
                "duration": 0.1,
                "tempo": 120.0
            },
            {
                "start_time": 14.7340909,
                "end_time": 14.8340909,
                "pitch": 40,
                "velocity": 80,
                "duration": 0.1,
                "tempo": 120.0
            },
            {
                "start_time": 14.8681818,
                "end_time": 14.9681818,
                "pitch": 36,
                "velocity": 80,
                "duration": 0.1,
                "tempo": 120.0
            },
            {
                "start_time": 15.0022727,
                "end_time": 15.225,
                "pitch": 42,
                "velocity": 80,
                "duration": 0.2227273,
                "tempo": 120.0
            },
            {
                "start_time": 15.2613636,
                "end_time": 15.6272727,
                "pitch": 36,
                "velocity": 80,
                "duration": 0.3659091,
                "tempo": 120.0
            },
            {
                "start_time": 15.6590909,
                "end_time": 15.7590909,
                "pitch": 38,
                "velocity": 80,
                "duration": 0.1,
                "tempo": 120.0
            },
            {
                "start_time": 15.7909091,
                "end_time": 15.8772727,
                "pitch": 33,
                "velocity": 80,
                "duration": 0.0863636,
                "tempo": 120.0
            },
            {
                "start_time": 15.9113636,
                "end_time": 16.0159091,
                "pitch": 33,
                "velocity": 80,
                "duration": 0.1045455,
                "tempo": 120.0
            },
            {
                "start_time": 16.05,
                "end_time": 16.1522727,
                "pitch": 36,
                "velocity": 80,
                "duration": 0.1022727,
                "tempo": 120.0
            },
            {
                "start_time": 16.1863636,
                "end_time": 16.2886364,
                "pitch": 33,
                "velocity": 80,
                "duration": 0.1022727,
                "tempo": 120.0
            },
            {
                "start_time": 16.3227273,
                "end_time": 16.4227273,
                "pitch": 38,
                "velocity": 80,
                "duration": 0.1,
                "tempo": 120.0
            },
            {
                "start_time": 16.4568182,
                "end_time": 16.5386364,
                "pitch": 33,
                "velocity": 80,
                "duration": 0.0818182,
                "tempo": 120.0
            },
            {
                "start_time": 16.5727273,
                "end_time": 16.8022727,
                "pitch": 33,
                "velocity": 80,
                "duration": 0.2295455,
                "tempo": 120.0
            },
            {
                "start_time": 16.8340909,
                "end_time": 17.2045455,
                "pitch": 38,
                "velocity": 80,
                "duration": 0.3704545,
                "tempo": 120.0
            },
            {
                "start_time": 17.2386364,
                "end_time": 17.325,
                "pitch": 39,
                "velocity": 80,
                "duration": 0.0863636,
                "tempo": 120.0
            },
            {
                "start_time": 17.3613636,
                "end_time": 17.4590909,
                "pitch": 40,
                "velocity": 80,
                "duration": 0.0977273,
                "tempo": 120.0
            },
            {
                "start_time": 17.4931818,
                "end_time": 17.5954545,
                "pitch": 40,
                "velocity": 80,
                "duration": 0.1022727,
                "tempo": 120.0
            },
            {
                "start_time": 17.6295455,
                "end_time": 17.7295455,
                "pitch": 42,
                "velocity": 80,
                "duration": 0.1,
                "tempo": 120.0
            },
            {
                "start_time": 17.7613636,
                "end_time": 17.8636364,
                "pitch": 40,
                "velocity": 80,
                "duration": 0.1022727,
                "tempo": 120.0
            },
            {
                "start_time": 17.9,
                "end_time": 17.9840909,
                "pitch": 43,
                "velocity": 80,
                "duration": 0.0840909,
                "tempo": 120.0
            },
            {
                "start_time": 18.0181818,
                "end_time": 18.1204545,
                "pitch": 40,
                "velocity": 80,
                "duration": 0.1022727,
                "tempo": 120.0
            },
            {
                "start_time": 18.1545455,
                "end_time": 18.3840909,
                "pitch": 45,
                "velocity": 80,
                "duration": 0.2295455,
                "tempo": 120.0
            },
            {
                "start_time": 18.4181818,
                "end_time": 18.7704545,
                "pitch": 38,
                "velocity": 80,
                "duration": 0.3522727,
                "tempo": 120.0
            },
            {
                "start_time": 18.8045455,
                "end_time": 18.9068182,
                "pitch": 42,
                "velocity": 80,
                "duration": 0.1022727,
                "tempo": 120.0
            },
            {
                "start_time": 18.9409091,
                "end_time": 19.0386364,
                "pitch": 40,
                "velocity": 80,
                "duration": 0.0977273,
                "tempo": 120.0
            },
            {
                "start_time": 19.0727273,
                "end_time": 19.1704545,
                "pitch": 40,
                "velocity": 80,
                "duration": 0.0977273,
                "tempo": 120.0
            },
            {
                "start_time": 19.2045455,
                "end_time": 19.3022727,
                "pitch": 40,
                "velocity": 80,
                "duration": 0.0977273,
                "tempo": 120.0
            },
            {
                "start_time": 19.3340909,
                "end_time": 19.4204545,
                "pitch": 40,
                "velocity": 80,
                "duration": 0.0863636,
                "tempo": 120.0
            },
            {
                "start_time": 19.4568182,
                "end_time": 19.5613636,
                "pitch": 40,
                "velocity": 80,
                "duration": 0.1045455,
                "tempo": 120.0
            },
            {
                "start_time": 19.5977273,
                "end_time": 19.7022727,
                "pitch": 40,
                "velocity": 80,
                "duration": 0.1045455,
                "tempo": 120.0
            },
            {
                "start_time": 19.7386364,
                "end_time": 19.9681818,
                "pitch": 45,
                "velocity": 80,
                "duration": 0.2295455,
                "tempo": 120.0
            },
            {
                "start_time": 20.0,
                "end_time": 20.4931818,
                "pitch": 38,
                "velocity": 80,
                "duration": 0.4931818,
                "tempo": 120.0
            },
            {
                "start_time": 20.5295455,
                "end_time": 20.6272727,
                "pitch": 40,
                "velocity": 80,
                "duration": 0.0977273,
                "tempo": 120.0
            },
            {
                "start_time": 20.6613636,
                "end_time": 20.7613636,
                "pitch": 40,
                "velocity": 80,
                "duration": 0.1,
                "tempo": 120.0
            },
            {
                "start_time": 20.7954545,
                "end_time": 20.8795455,
                "pitch": 42,
                "velocity": 80,
                "duration": 0.0840909,
                "tempo": 120.0
            },
            {
                "start_time": 20.9136364,
                "end_time": 21.0113636,
                "pitch": 40,
                "velocity": 80,
                "duration": 0.0977273,
                "tempo": 120.0
            },
            {
                "start_time": 21.0431818,
                "end_time": 21.1409091,
                "pitch": 43,
                "velocity": 80,
                "duration": 0.0977273,
                "tempo": 120.0
            },
            {
                "start_time": 21.175,
                "end_time": 21.2727273,
                "pitch": 40,
                "velocity": 80,
                "duration": 0.0977273,
                "tempo": 120.0
            },
            {
                "start_time": 21.3068182,
                "end_time": 21.5454545,
                "pitch": 45,
                "velocity": 80,
                "duration": 0.2386364,
                "tempo": 120.0
            },
            {
                "start_time": 21.5613636,
                "end_time": 21.9272727,
                "pitch": 38,
                "velocity": 80,
                "duration": 0.3659091,
                "tempo": 120.0
            },
            {
                "start_time": 21.9613636,
                "end_time": 22.0590909,
                "pitch": 42,
                "velocity": 80,
                "duration": 0.0977273,
                "tempo": 120.0
            },
            {
                "start_time": 22.0931818,
                "end_time": 22.1931818,
                "pitch": 40,
                "velocity": 80,
                "duration": 0.1,
                "tempo": 120.0
            },
            {
                "start_time": 22.2295455,
                "end_time": 22.3136364,
                "pitch": 40,
                "velocity": 80,
                "duration": 0.0840909,
                "tempo": 120.0
            },
            {
                "start_time": 22.35,
                "end_time": 22.45,
                "pitch": 42,
                "velocity": 80,
                "duration": 0.1,
                "tempo": 120.0
            },
            {
                "start_time": 22.4840909,
                "end_time": 22.5840909,
                "pitch": 40,
                "velocity": 80,
                "duration": 0.1,
                "tempo": 120.0
            },
            {
                "start_time": 22.6159091,
                "end_time": 22.7136364,
                "pitch": 43,
                "velocity": 80,
                "duration": 0.0977273,
                "tempo": 120.0
            },
            {
                "start_time": 22.7477273,
                "end_time": 22.8454545,
                "pitch": 40,
                "velocity": 80,
                "duration": 0.0977273,
                "tempo": 120.0
            },
            {
                "start_time": 22.8772727,
                "end_time": 23.1022727,
                "pitch": 38,
                "velocity": 80,
                "duration": 0.225,
                "tempo": 120.0
            },
            {
                "start_time": 23.1363636,
                "end_time": 23.5090909,
                "pitch": 42,
                "velocity": 80,
                "duration": 0.3727273,
                "tempo": 120.0
            },
            {
                "start_time": 23.5431818,
                "end_time": 23.6431818,
                "pitch": 38,
                "velocity": 80,
                "duration": 0.1,
                "tempo": 120.0
            },
            {
                "start_time": 23.6772727,
                "end_time": 23.7613636,
                "pitch": 40,
                "velocity": 80,
                "duration": 0.0840909,
                "tempo": 120.0
            },
            {
                "start_time": 23.7954545,
                "end_time": 23.9,
                "pitch": 40,
                "velocity": 80,
                "duration": 0.1045455,
                "tempo": 120.0
            },
            {
                "start_time": 23.9340909,
                "end_time": 24.0363636,
                "pitch": 42,
                "velocity": 80,
                "duration": 0.1022727,
                "tempo": 120.0
            },
            {
                "start_time": 24.0704545,
                "end_time": 24.1681818,
                "pitch": 40,
                "velocity": 80,
                "duration": 0.0977273,
                "tempo": 120.0
            },
            {
                "start_time": 24.2022727,
                "end_time": 24.3,
                "pitch": 43,
                "velocity": 80,
                "duration": 0.0977273,
                "tempo": 120.0
            },
            {
                "start_time": 24.3318182,
                "end_time": 24.4136364,
                "pitch": 40,
                "velocity": 80,
                "duration": 0.0818182,
                "tempo": 120.0
            },
            {
                "start_time": 24.4454545,
                "end_time": 24.6818182,
                "pitch": 45,
                "velocity": 80,
                "duration": 0.2363636,
                "tempo": 120.0
            },
            {
                "start_time": 24.7136364,
                "end_time": 25.0909091,
                "pitch": 38,
                "velocity": 80,
                "duration": 0.3772727,
                "tempo": 120.0
            },
            {
                "start_time": 25.125,
                "end_time": 25.2113636,
                "pitch": 42,
                "velocity": 80,
                "duration": 0.0863636,
                "tempo": 120.0
            },
            {
                "start_time": 25.2454545,
                "end_time": 25.3431818,
                "pitch": 40,
                "velocity": 80,
                "duration": 0.0977273,
                "tempo": 120.0
            },
            {
                "start_time": 25.375,
                "end_time": 25.475,
                "pitch": 40,
                "velocity": 80,
                "duration": 0.1,
                "tempo": 120.0
            },
            {
                "start_time": 25.5068182,
                "end_time": 25.6045455,
                "pitch": 42,
                "velocity": 80,
                "duration": 0.0977273,
                "tempo": 120.0
            },
            {
                "start_time": 25.6386364,
                "end_time": 25.7409091,
                "pitch": 40,
                "velocity": 80,
                "duration": 0.1022727,
                "tempo": 120.0
            },
            {
                "start_time": 25.775,
                "end_time": 25.8590909,
                "pitch": 43,
                "velocity": 80,
                "duration": 0.0840909,
                "tempo": 120.0
            },
            {
                "start_time": 25.8954545,
                "end_time": 25.9977273,
                "pitch": 40,
                "velocity": 80,
                "duration": 0.1022727,
                "tempo": 120.0
            },
            {
                "start_time": 26.0318182,
                "end_time": 26.2659091,
                "pitch": 38,
                "velocity": 80,
                "duration": 0.2340909,
                "tempo": 120.0
            },
            {
                "start_time": 26.3,
                "end_time": 26.6522727,
                "pitch": 42,
                "velocity": 80,
                "duration": 0.3522727,
                "tempo": 120.0
            },
            {
                "start_time": 26.6863636,
                "end_time": 26.7863636,
                "pitch": 38,
                "velocity": 80,
                "duration": 0.1,
                "tempo": 120.0
            },
            {
                "start_time": 26.8227273,
                "end_time": 26.9204545,
                "pitch": 36,
                "velocity": 80,
                "duration": 0.0977273,
                "tempo": 120.0
            },
            {
                "start_time": 26.9545455,
                "end_time": 27.0545455,
                "pitch": 36,
                "velocity": 80,
                "duration": 0.1,
                "tempo": 120.0
            },
            {
                "start_time": 27.0886364,
                "end_time": 27.1886364,
                "pitch": 38,
                "velocity": 80,
                "duration": 0.1,
                "tempo": 120.0
            },
            {
                "start_time": 27.2227273,
                "end_time": 27.3090909,
                "pitch": 36,
                "velocity": 80,
                "duration": 0.0863636,
                "tempo": 120.0
            },
            {
                "start_time": 27.3431818,
                "end_time": 27.4454545,
                "pitch": 40,
                "velocity": 80,
                "duration": 0.1022727,
                "tempo": 120.0
            },
            {
                "start_time": 27.4795455,
                "end_time": 27.5818182,
                "pitch": 36,
                "velocity": 80,
                "duration": 0.1022727,
                "tempo": 120.0
            },
            {
                "start_time": 27.6159091,
                "end_time": 27.8522727,
                "pitch": 42,
                "velocity": 80,
                "duration": 0.2363636,
                "tempo": 120.0
            },
            {
                "start_time": 27.8840909,
                "end_time": 28.2318182,
                "pitch": 36,
                "velocity": 80,
                "duration": 0.3477273,
                "tempo": 120.0
            },
            {
                "start_time": 28.2636364,
                "end_time": 28.3636364,
                "pitch": 38,
                "velocity": 80,
                "duration": 0.1,
                "tempo": 120.0
            },
            {
                "start_time": 28.3954545,
                "end_time": 28.4977273,
                "pitch": 33,
                "velocity": 80,
                "duration": 0.1022727,
                "tempo": 120.0
            },
            {
                "start_time": 28.5318182,
                "end_time": 28.6363636,
                "pitch": 33,
                "velocity": 80,
                "duration": 0.1045455,
                "tempo": 120.0
            },
            {
                "start_time": 28.6704545,
                "end_time": 28.7568182,
                "pitch": 36,
                "velocity": 80,
                "duration": 0.0863636,
                "tempo": 120.0
            },
            {
                "start_time": 28.7909091,
                "end_time": 28.8886364,
                "pitch": 33,
                "velocity": 80,
                "duration": 0.0977273,
                "tempo": 120.0
            },
            {
                "start_time": 28.9227273,
                "end_time": 29.0204545,
                "pitch": 38,
                "velocity": 80,
                "duration": 0.0977273,
                "tempo": 120.0
            },
            {
                "start_time": 29.0545455,
                "end_time": 29.15,
                "pitch": 33,
                "velocity": 80,
                "duration": 0.0954545,
                "tempo": 120.0
            },
            {
                "start_time": 29.1840909,
                "end_time": 29.4227273,
                "pitch": 33,
                "velocity": 80,
                "duration": 0.2386364,
                "tempo": 120.0
            },
            {
                "start_time": 29.4409091,
                "end_time": 29.8113636,
                "pitch": 38,
                "velocity": 80,
                "duration": 0.3704545,
                "tempo": 120.0
            },
            {
                "start_time": 29.8454545,
                "end_time": 29.9477273,
                "pitch": 39,
                "velocity": 80,
                "duration": 0.1022727,
                "tempo": 120.0
            },
            {
                "start_time": 29.9818182,
                "end_time": 30.0840909,
                "pitch": 40,
                "velocity": 80,
                "duration": 0.1022727,
                "tempo": 120.0
            },
            {
                "start_time": 30.1181818,
                "end_time": 30.2045455,
                "pitch": 40,
                "velocity": 80,
                "duration": 0.0863636,
                "tempo": 120.0
            },
            {
                "start_time": 30.2386364,
                "end_time": 30.3409091,
                "pitch": 42,
                "velocity": 80,
                "duration": 0.1022727,
                "tempo": 120.0
            },
            {
                "start_time": 30.3772727,
                "end_time": 30.475,
                "pitch": 40,
                "velocity": 80,
                "duration": 0.0977273,
                "tempo": 120.0
            },
            {
                "start_time": 30.5068182,
                "end_time": 30.6045455,
                "pitch": 43,
                "velocity": 80,
                "duration": 0.0977273,
                "tempo": 120.0
            },
            {
                "start_time": 30.6386364,
                "end_time": 30.7363636,
                "pitch": 40,
                "velocity": 80,
                "duration": 0.0977273,
                "tempo": 120.0
            },
            {
                "start_time": 30.7681818,
                "end_time": 30.9909091,
                "pitch": 45,
                "velocity": 80,
                "duration": 0.2227273,
                "tempo": 120.0
            },
            {
                "start_time": 31.025,
                "end_time": 31.3977273,
                "pitch": 38,
                "velocity": 80,
                "duration": 0.3727273,
                "tempo": 120.0
            },
            {
                "start_time": 31.4318182,
                "end_time": 31.5318182,
                "pitch": 42,
                "velocity": 80,
                "duration": 0.1,
                "tempo": 120.0
            },
            {
                "start_time": 31.5659091,
                "end_time": 31.65,
                "pitch": 40,
                "velocity": 80,
                "duration": 0.0840909,
                "tempo": 120.0
            },
            {
                "start_time": 31.6840909,
                "end_time": 31.7863636,
                "pitch": 40,
                "velocity": 80,
                "duration": 0.1022727,
                "tempo": 120.0
            },
            {
                "start_time": 31.8227273,
                "end_time": 31.925,
                "pitch": 40,
                "velocity": 80,
                "duration": 0.1022727,
                "tempo": 120.0
            },
            {
                "start_time": 31.9590909,
                "end_time": 32.0568182,
                "pitch": 40,
                "velocity": 80,
                "duration": 0.0977273,
                "tempo": 120.0
            },
            {
                "start_time": 32.0886364,
                "end_time": 32.1886364,
                "pitch": 40,
                "velocity": 80,
                "duration": 0.1,
                "tempo": 120.0
            },
            {
                "start_time": 32.2204545,
                "end_time": 32.3022727,
                "pitch": 40,
                "velocity": 80,
                "duration": 0.0818182,
                "tempo": 120.0
            },
            {
                "start_time": 32.3363636,
                "end_time": 32.4340909,
                "pitch": 42,
                "velocity": 80,
                "duration": 0.0977273,
                "tempo": 120.0
            },
            {
                "start_time": 32.4681818,
                "end_time": 32.5704545,
                "pitch": 42,
                "velocity": 80,
                "duration": 0.1022727,
                "tempo": 120.0
            },
            {
                "start_time": 32.6045455,
                "end_time": 32.7045455,
                "pitch": 42,
                "velocity": 80,
                "duration": 0.1,
                "tempo": 120.0
            },
            {
                "start_time": 32.7363636,
                "end_time": 32.8386364,
                "pitch": 43,
                "velocity": 80,
                "duration": 0.1022727,
                "tempo": 120.0
            },
            {
                "start_time": 32.8727273,
                "end_time": 32.9727273,
                "pitch": 43,
                "velocity": 80,
                "duration": 0.1,
                "tempo": 120.0
            },
            {
                "start_time": 33.0068182,
                "end_time": 33.0909091,
                "pitch": 43,
                "velocity": 80,
                "duration": 0.0840909,
                "tempo": 120.0
            },
            {
                "start_time": 33.125,
                "end_time": 33.2227273,
                "pitch": 45,
                "velocity": 80,
                "duration": 0.0977273,
                "tempo": 120.0
            },
            {
                "start_time": 33.2568182,
                "end_time": 33.3590909,
                "pitch": 45,
                "velocity": 80,
                "duration": 0.1022727,
                "tempo": 120.0
            },
            {
                "start_time": 33.3909091,
                "end_time": 33.4931818,
                "pitch": 45,
                "velocity": 80,
                "duration": 0.1022727,
                "tempo": 120.0
            },
            {
                "start_time": 33.525,
                "end_time": 33.6272727,
                "pitch": 40,
                "velocity": 80,
                "duration": 0.1022727,
                "tempo": 120.0
            },
            {
                "start_time": 33.6636364,
                "end_time": 33.7477273,
                "pitch": 45,
                "velocity": 80,
                "duration": 0.0840909,
                "tempo": 120.0
            },
            {
                "start_time": 33.7818182,
                "end_time": 33.8840909,
                "pitch": 40,
                "velocity": 80,
                "duration": 0.1022727,
                "tempo": 120.0
            },
            {
                "start_time": 33.9204545,
                "end_time": 34.1477273,
                "pitch": 45,
                "velocity": 80,
                "duration": 0.2272727,
                "tempo": 120.0
            },
            {
                "start_time": 34.1818182,
                "end_time": 34.5363636,
                "pitch": 40,
                "velocity": 80,
                "duration": 0.3545455,
                "tempo": 120.0
            },
            {
                "start_time": 34.5704545,
                "end_time": 34.675,
                "pitch": 43,
                "velocity": 80,
                "duration": 0.1045455,
                "tempo": 120.0
            },
            {
                "start_time": 34.7090909,
                "end_time": 34.8090909,
                "pitch": 38,
                "velocity": 80,
                "duration": 0.1,
                "tempo": 120.0
            },
            {
                "start_time": 34.8431818,
                "end_time": 34.9431818,
                "pitch": 38,
                "velocity": 80,
                "duration": 0.1,
                "tempo": 120.0
            },
            {
                "start_time": 34.9772727,
                "end_time": 35.0772727,
                "pitch": 38,
                "velocity": 80,
                "duration": 0.1,
                "tempo": 120.0
            },
            {
                "start_time": 35.1113636,
                "end_time": 35.1954545,
                "pitch": 42,
                "velocity": 80,
                "duration": 0.0840909,
                "tempo": 120.0
            },
            {
                "start_time": 35.2318182,
                "end_time": 35.3340909,
                "pitch": 38,
                "velocity": 80,
                "duration": 0.1022727,
                "tempo": 120.0
            },
            {
                "start_time": 35.3681818,
                "end_time": 35.4704545,
                "pitch": 42,
                "velocity": 80,
                "duration": 0.1022727,
                "tempo": 120.0
            },
            {
                "start_time": 35.5045455,
                "end_time": 35.7340909,
                "pitch": 43,
                "velocity": 80,
                "duration": 0.2295455,
                "tempo": 120.0
            },
            {
                "start_time": 35.7659091,
                "end_time": 36.1204545,
                "pitch": 42,
                "velocity": 80,
                "duration": 0.3545455,
                "tempo": 120.0
            },
            {
                "start_time": 36.1545455,
                "end_time": 36.2590909,
                "pitch": 38,
                "velocity": 80,
                "duration": 0.1045455,
                "tempo": 120.0
            },
            {
                "start_time": 36.2954545,
                "end_time": 36.3931818,
                "pitch": 43,
                "velocity": 80,
                "duration": 0.0977273,
                "tempo": 120.0
            },
            {
                "start_time": 36.4272727,
                "end_time": 36.5272727,
                "pitch": 43,
                "velocity": 80,
                "duration": 0.1,
                "tempo": 120.0
            },
            {
                "start_time": 36.5613636,
                "end_time": 36.6454545,
                "pitch": 43,
                "velocity": 80,
                "duration": 0.0840909,
                "tempo": 120.0
            },
            {
                "start_time": 36.6795455,
                "end_time": 36.7772727,
                "pitch": 38,
                "velocity": 80,
                "duration": 0.0977273,
                "tempo": 120.0
            },
            {
                "start_time": 36.8113636,
                "end_time": 36.9090909,
                "pitch": 43,
                "velocity": 80,
                "duration": 0.0977273,
                "tempo": 120.0
            },
            {
                "start_time": 36.9409091,
                "end_time": 37.0386364,
                "pitch": 38,
                "velocity": 80,
                "duration": 0.0977273,
                "tempo": 120.0
            },
            {
                "start_time": 37.0727273,
                "end_time": 37.3113636,
                "pitch": 43,
                "velocity": 80,
                "duration": 0.2386364,
                "tempo": 120.0
            },
            {
                "start_time": 37.3295455,
                "end_time": 37.6954545,
                "pitch": 38,
                "velocity": 80,
                "duration": 0.3659091,
                "tempo": 120.0
            },
            {
                "start_time": 37.7272727,
                "end_time": 37.825,
                "pitch": 42,
                "velocity": 80,
                "duration": 0.0977273,
                "tempo": 120.0
            },
            {
                "start_time": 37.8590909,
                "end_time": 37.9636364,
                "pitch": 36,
                "velocity": 80,
                "duration": 0.1045455,
                "tempo": 120.0
            },
            {
                "start_time": 37.9977273,
                "end_time": 38.0863636,
                "pitch": 36,
                "velocity": 80,
                "duration": 0.0886364,
                "tempo": 120.0
            },
            {
                "start_time": 38.1204545,
                "end_time": 38.2272727,
                "pitch": 38,
                "velocity": 80,
                "duration": 0.1068182,
                "tempo": 120.0
            },
            {
                "start_time": 38.2613636,
                "end_time": 38.3590909,
                "pitch": 36,
                "velocity": 80,
                "duration": 0.0977273,
                "tempo": 120.0
            },
            {
                "start_time": 38.3931818,
                "end_time": 38.4909091,
                "pitch": 40,
                "velocity": 80,
                "duration": 0.0977273,
                "tempo": 120.0
            },
            {
                "start_time": 38.525,
                "end_time": 38.6227273,
                "pitch": 36,
                "velocity": 80,
                "duration": 0.0977273,
                "tempo": 120.0
            },
            {
                "start_time": 38.6545455,
                "end_time": 38.8772727,
                "pitch": 43,
                "velocity": 80,
                "duration": 0.2227273,
                "tempo": 120.0
            },
            {
                "start_time": 38.9113636,
                "end_time": 39.2772727,
                "pitch": 42,
                "velocity": 80,
                "duration": 0.3659091,
                "tempo": 120.0
            },
            {
                "start_time": 39.3090909,
                "end_time": 39.4090909,
                "pitch": 38,
                "velocity": 80,
                "duration": 0.1,
                "tempo": 120.0
            },
            {
                "start_time": 39.4409091,
                "end_time": 39.525,
                "pitch": 33,
                "velocity": 80,
                "duration": 0.0840909,
                "tempo": 120.0
            },
            {
                "start_time": 39.5613636,
                "end_time": 39.6636364,
                "pitch": 33,
                "velocity": 80,
                "duration": 0.1022727,
                "tempo": 120.0
            },
            {
                "start_time": 39.6977273,
                "end_time": 39.8,
                "pitch": 36,
                "velocity": 80,
                "duration": 0.1022727,
                "tempo": 120.0
            },
            {
                "start_time": 39.8340909,
                "end_time": 39.9340909,
                "pitch": 33,
                "velocity": 80,
                "duration": 0.1,
                "tempo": 120.0
            },
            {
                "start_time": 39.9681818,
                "end_time": 40.0681818,
                "pitch": 38,
                "velocity": 80,
                "duration": 0.1,
                "tempo": 120.0
            },
            {
                "start_time": 40.1022727,
                "end_time": 40.2022727,
                "pitch": 33,
                "velocity": 80,
                "duration": 0.1,
                "tempo": 120.0
            },
            {
                "start_time": 40.2204545,
                "end_time": 40.45,
                "pitch": 40,
                "velocity": 80,
                "duration": 0.2295455,
                "tempo": 120.0
            },
            {
                "start_time": 40.4818182,
                "end_time": 40.8522727,
                "pitch": 36,
                "velocity": 80,
                "duration": 0.3704545,
                "tempo": 120.0
            },
            {
                "start_time": 40.8863636,
                "end_time": 40.9727273,
                "pitch": 37,
                "velocity": 80,
                "duration": 0.0863636,
                "tempo": 120.0
            },
            {
                "start_time": 41.0068182,
                "end_time": 41.1068182,
                "pitch": 38,
                "velocity": 80,
                "duration": 0.1,
                "tempo": 120.0
            },
            {
                "start_time": 41.1409091,
                "end_time": 41.2409091,
                "pitch": 38,
                "velocity": 80,
                "duration": 0.1,
                "tempo": 120.0
            },
            {
                "start_time": 41.275,
                "end_time": 41.375,
                "pitch": 40,
                "velocity": 80,
                "duration": 0.1,
                "tempo": 120.0
            },
            {
                "start_time": 41.4090909,
                "end_time": 41.5113636,
                "pitch": 38,
                "velocity": 80,
                "duration": 0.1022727,
                "tempo": 120.0
            },
            {
                "start_time": 41.5454545,
                "end_time": 41.6318182,
                "pitch": 42,
                "velocity": 80,
                "duration": 0.0863636,
                "tempo": 120.0
            },
            {
                "start_time": 41.6659091,
                "end_time": 41.7681818,
                "pitch": 38,
                "velocity": 80,
                "duration": 0.1022727,
                "tempo": 120.0
            },
            {
                "start_time": 41.8022727,
                "end_time": 42.0318182,
                "pitch": 43,
                "velocity": 80,
                "duration": 0.2295455,
                "tempo": 120.0
            },
            {
                "start_time": 42.0636364,
                "end_time": 42.4181818,
                "pitch": 42,
                "velocity": 80,
                "duration": 0.3545455,
                "tempo": 120.0
            },
            {
                "start_time": 42.4522727,
                "end_time": 42.5545455,
                "pitch": 38,
                "velocity": 80,
                "duration": 0.1022727,
                "tempo": 120.0
            },
            {
                "start_time": 42.5909091,
                "end_time": 42.6886364,
                "pitch": 43,
                "velocity": 80,
                "duration": 0.0977273,
                "tempo": 120.0
            },
            {
                "start_time": 42.7227273,
                "end_time": 42.8227273,
                "pitch": 43,
                "velocity": 80,
                "duration": 0.1,
                "tempo": 120.0
            },
            {
                "start_time": 42.8568182,
                "end_time": 42.9590909,
                "pitch": 45,
                "velocity": 80,
                "duration": 0.1022727,
                "tempo": 120.0
            },
            {
                "start_time": 42.9909091,
                "end_time": 43.0772727,
                "pitch": 43,
                "velocity": 80,
                "duration": 0.0863636,
                "tempo": 120.0
            },
            {
                "start_time": 43.1113636,
                "end_time": 43.2136364,
                "pitch": 47,
                "velocity": 80,
                "duration": 0.1022727,
                "tempo": 120.0
            },
            {
                "start_time": 43.2477273,
                "end_time": 43.35,
                "pitch": 43,
                "velocity": 80,
                "duration": 0.1022727,
                "tempo": 120.0
            },
            {
                "start_time": 43.3863636,
                "end_time": 43.6136364,
                "pitch": 48,
                "velocity": 80,
                "duration": 0.2272727,
                "tempo": 120.0
            },
            {
                "start_time": 43.6477273,
                "end_time": 44.0,
                "pitch": 47,
                "velocity": 80,
                "duration": 0.3522727,
                "tempo": 120.0
            },
            {
                "start_time": 44.0340909,
                "end_time": 44.1363636,
                "pitch": 43,
                "velocity": 80,
                "duration": 0.1022727,
                "tempo": 120.0
            },
            {
                "start_time": 44.1727273,
                "end_time": 44.2704545,
                "pitch": 44,
                "velocity": 80,
                "duration": 0.0977273,
                "tempo": 120.0
            },
            {
                "start_time": 44.3022727,
                "end_time": 44.4,
                "pitch": 44,
                "velocity": 80,
                "duration": 0.0977273,
                "tempo": 120.0
            },
            {
                "start_time": 44.4340909,
                "end_time": 44.5136364,
                "pitch": 44,
                "velocity": 80,
                "duration": 0.0795455,
                "tempo": 120.0
            },
            {
                "start_time": 44.5477273,
                "end_time": 44.6477273,
                "pitch": 44,
                "velocity": 80,
                "duration": 0.1,
                "tempo": 120.0
            },
            {
                "start_time": 44.6818182,
                "end_time": 44.7818182,
                "pitch": 44,
                "velocity": 80,
                "duration": 0.1,
                "tempo": 120.0
            },
            {
                "start_time": 44.8159091,
                "end_time": 44.9159091,
                "pitch": 44,
                "velocity": 80,
                "duration": 0.1,
                "tempo": 120.0
            },
            {
                "start_time": 44.95,
                "end_time": 45.1909091,
                "pitch": 44,
                "velocity": 80,
                "duration": 0.2409091,
                "tempo": 120.0
            },
            {
                "start_time": 45.2090909,
                "end_time": 45.4431818,
                "pitch": 41,
                "velocity": 80,
                "duration": 0.2340909,
                "tempo": 120.0
            },
            {
                "start_time": 45.4772727,
                "end_time": 45.575,
                "pitch": 40,
                "velocity": 80,
                "duration": 0.0977273,
                "tempo": 120.0
            },
            {
                "start_time": 45.6068182,
                "end_time": 45.7068182,
                "pitch": 44,
                "velocity": 80,
                "duration": 0.1,
                "tempo": 120.0
            },
            {
                "start_time": 45.7409091,
                "end_time": 45.8409091,
                "pitch": 45,
                "velocity": 80,
                "duration": 0.1,
                "tempo": 120.0
            },
            {
                "start_time": 45.875,
                "end_time": 45.9613636,
                "pitch": 45,
                "velocity": 80,
                "duration": 0.0863636,
                "tempo": 120.0
            },
            {
                "start_time": 45.9954545,
                "end_time": 46.0977273,
                "pitch": 45,
                "velocity": 80,
                "duration": 0.1022727,
                "tempo": 120.0
            },
            {
                "start_time": 46.1318182,
                "end_time": 46.2318182,
                "pitch": 40,
                "velocity": 80,
                "duration": 0.1,
                "tempo": 120.0
            },
            {
                "start_time": 46.2659091,
                "end_time": 46.3681818,
                "pitch": 45,
                "velocity": 80,
                "duration": 0.1022727,
                "tempo": 120.0
            },
            {
                "start_time": 46.4,
                "end_time": 46.5022727,
                "pitch": 40,
                "velocity": 80,
                "duration": 0.1022727,
                "tempo": 120.0
            },
            {
                "start_time": 46.5340909,
                "end_time": 46.7522727,
                "pitch": 45,
                "velocity": 80,
                "duration": 0.2181818,
                "tempo": 120.0
            },
            {
                "start_time": 46.7863636,
                "end_time": 47.1568182,
                "pitch": 40,
                "velocity": 80,
                "duration": 0.3704545,
                "tempo": 120.0
            },
            {
                "start_time": 47.1886364,
                "end_time": 47.2909091,
                "pitch": 43,
                "velocity": 80,
                "duration": 0.1022727,
                "tempo": 120.0
            },
            {
                "start_time": 47.325,
                "end_time": 47.4090909,
                "pitch": 38,
                "velocity": 80,
                "duration": 0.0840909,
                "tempo": 120.0
            },
            {
                "start_time": 47.4431818,
                "end_time": 47.5454545,
                "pitch": 38,
                "velocity": 80,
                "duration": 0.1022727,
                "tempo": 120.0
            },
            {
                "start_time": 47.5795455,
                "end_time": 47.6818182,
                "pitch": 38,
                "velocity": 80,
                "duration": 0.1022727,
                "tempo": 120.0
            },
            {
                "start_time": 47.7181818,
                "end_time": 47.8159091,
                "pitch": 42,
                "velocity": 80,
                "duration": 0.0977273,
                "tempo": 120.0
            },
            {
                "start_time": 47.8477273,
                "end_time": 47.9454545,
                "pitch": 38,
                "velocity": 80,
                "duration": 0.0977273,
                "tempo": 120.0
            },
            {
                "start_time": 47.9795455,
                "end_time": 48.0772727,
                "pitch": 42,
                "velocity": 80,
                "duration": 0.0977273,
                "tempo": 120.0
            },
            {
                "start_time": 48.0931818,
                "end_time": 48.3272727,
                "pitch": 43,
                "velocity": 80,
                "duration": 0.2340909,
                "tempo": 120.0
            },
            {
                "start_time": 48.3613636,
                "end_time": 48.7363636,
                "pitch": 42,
                "velocity": 80,
                "duration": 0.375,
                "tempo": 120.0
            },
            {
                "start_time": 48.7704545,
                "end_time": 48.8545455,
                "pitch": 38,
                "velocity": 80,
                "duration": 0.0840909,
                "tempo": 120.0
            },
            {
                "start_time": 48.8909091,
                "end_time": 48.9909091,
                "pitch": 43,
                "velocity": 80,
                "duration": 0.1,
                "tempo": 120.0
            },
            {
                "start_time": 49.025,
                "end_time": 49.125,
                "pitch": 43,
                "velocity": 80,
                "duration": 0.1,
                "tempo": 120.0
            },
            {
                "start_time": 49.1590909,
                "end_time": 49.2590909,
                "pitch": 43,
                "velocity": 80,
                "duration": 0.1,
                "tempo": 120.0
            },
            {
                "start_time": 49.2931818,
                "end_time": 49.3931818,
                "pitch": 38,
                "velocity": 80,
                "duration": 0.1,
                "tempo": 120.0
            },
            {
                "start_time": 49.4272727,
                "end_time": 49.5113636,
                "pitch": 43,
                "velocity": 80,
                "duration": 0.0840909,
                "tempo": 120.0
            },
            {
                "start_time": 49.5431818,
                "end_time": 49.6454545,
                "pitch": 38,
                "velocity": 80,
                "duration": 0.1022727,
                "tempo": 120.0
            },
            {
                "start_time": 49.6795455,
                "end_time": 49.9136364,
                "pitch": 43,
                "velocity": 80,
                "duration": 0.2340909,
                "tempo": 120.0
            },
            {
                "start_time": 49.9477273,
                "end_time": 50.3022727,
                "pitch": 38,
                "velocity": 80,
                "duration": 0.3545455,
                "tempo": 120.0
            },
            {
                "start_time": 50.3386364,
                "end_time": 50.4409091,
                "pitch": 42,
                "velocity": 80,
                "duration": 0.1022727,
                "tempo": 120.0
            },
            {
                "start_time": 50.475,
                "end_time": 50.5727273,
                "pitch": 36,
                "velocity": 80,
                "duration": 0.0977273,
                "tempo": 120.0
            },
            {
                "start_time": 50.6045455,
                "end_time": 50.7045455,
                "pitch": 36,
                "velocity": 80,
                "duration": 0.1,
                "tempo": 120.0
            },
            {
                "start_time": 50.7363636,
                "end_time": 50.8340909,
                "pitch": 38,
                "velocity": 80,
                "duration": 0.0977273,
                "tempo": 120.0
            },
            {
                "start_time": 50.8681818,
                "end_time": 50.9522727,
                "pitch": 36,
                "velocity": 80,
                "duration": 0.0840909,
                "tempo": 120.0
            },
            {
                "start_time": 50.9863636,
                "end_time": 51.0886364,
                "pitch": 40,
                "velocity": 80,
                "duration": 0.1022727,
                "tempo": 120.0
            },
            {
                "start_time": 51.1227273,
                "end_time": 51.2272727,
                "pitch": 36,
                "velocity": 80,
                "duration": 0.1045455,
                "tempo": 120.0
            },
            {
                "start_time": 51.2613636,
                "end_time": 51.4954545,
                "pitch": 43,
                "velocity": 80,
                "duration": 0.2340909,
                "tempo": 120.0
            },
            {
                "start_time": 51.5295455,
                "end_time": 51.8818182,
                "pitch": 42,
                "velocity": 80,
                "duration": 0.3522727,
                "tempo": 120.0
            },
            {
                "start_time": 51.9159091,
                "end_time": 52.0159091,
                "pitch": 38,
                "velocity": 80,
                "duration": 0.1,
                "tempo": 120.0
            },
            {
                "start_time": 52.05,
                "end_time": 52.15,
                "pitch": 33,
                "velocity": 80,
                "duration": 0.1,
                "tempo": 120.0
            },
            {
                "start_time": 52.1840909,
                "end_time": 52.2840909,
                "pitch": 33,
                "velocity": 80,
                "duration": 0.1,
                "tempo": 120.0
            },
            {
                "start_time": 52.3181818,
                "end_time": 52.4022727,
                "pitch": 36,
                "velocity": 80,
                "duration": 0.0840909,
                "tempo": 120.0
            },
            {
                "start_time": 52.4363636,
                "end_time": 52.5363636,
                "pitch": 33,
                "velocity": 80,
                "duration": 0.1,
                "tempo": 120.0
            },
            {
                "start_time": 52.5704545,
                "end_time": 52.6704545,
                "pitch": 38,
                "velocity": 80,
                "duration": 0.1,
                "tempo": 120.0
            },
            {
                "start_time": 52.7045455,
                "end_time": 52.8045455,
                "pitch": 33,
                "velocity": 80,
                "duration": 0.1,
                "tempo": 120.0
            },
            {
                "start_time": 52.8386364,
                "end_time": 53.0727273,
                "pitch": 40,
                "velocity": 80,
                "duration": 0.2340909,
                "tempo": 120.0
            },
            {
                "start_time": 53.1068182,
                "end_time": 53.4590909,
                "pitch": 36,
                "velocity": 80,
                "duration": 0.3522727,
                "tempo": 120.0
            },
            {
                "start_time": 53.4931818,
                "end_time": 53.5931818,
                "pitch": 37,
                "velocity": 80,
                "duration": 0.1,
                "tempo": 120.0
            },
            {
                "start_time": 53.6272727,
                "end_time": 53.7295455,
                "pitch": 38,
                "velocity": 80,
                "duration": 0.1022727,
                "tempo": 120.0
            },
            {
                "start_time": 53.7636364,
                "end_time": 53.85,
                "pitch": 38,
                "velocity": 80,
                "duration": 0.0863636,
                "tempo": 120.0
            },
            {
                "start_time": 53.8840909,
                "end_time": 53.9863636,
                "pitch": 40,
                "velocity": 80,
                "duration": 0.1022727,
                "tempo": 120.0
            },
            {
                "start_time": 54.0204545,
                "end_time": 54.1181818,
                "pitch": 38,
                "velocity": 80,
                "duration": 0.0977273,
                "tempo": 120.0
            },
            {
                "start_time": 54.1522727,
                "end_time": 54.25,
                "pitch": 42,
                "velocity": 80,
                "duration": 0.0977273,
                "tempo": 120.0
            },
            {
                "start_time": 54.2818182,
                "end_time": 54.3795455,
                "pitch": 38,
                "velocity": 80,
                "duration": 0.0977273,
                "tempo": 120.0
            },
            {
                "start_time": 54.4136364,
                "end_time": 54.6363636,
                "pitch": 43,
                "velocity": 80,
                "duration": 0.2227273,
                "tempo": 120.0
            },
            {
                "start_time": 54.6704545,
                "end_time": 55.0386364,
                "pitch": 42,
                "velocity": 80,
                "duration": 0.3681818,
                "tempo": 120.0
            },
            {
                "start_time": 55.0704545,
                "end_time": 55.1681818,
                "pitch": 38,
                "velocity": 80,
                "duration": 0.0977273,
                "tempo": 120.0
            },
            {
                "start_time": 55.2022727,
                "end_time": 55.2886364,
                "pitch": 40,
                "velocity": 80,
                "duration": 0.0863636,
                "tempo": 120.0
            },
            {
                "start_time": 55.325,
                "end_time": 55.4295455,
                "pitch": 40,
                "velocity": 80,
                "duration": 0.1045455,
                "tempo": 120.0
            },
            {
                "start_time": 55.4636364,
                "end_time": 55.5704545,
                "pitch": 42,
                "velocity": 80,
                "duration": 0.1068182,
                "tempo": 120.0
            },
            {
                "start_time": 55.6045455,
                "end_time": 55.7045455,
                "pitch": 40,
                "velocity": 80,
                "duration": 0.1,
                "tempo": 120.0
            },
            {
                "start_time": 55.7363636,
                "end_time": 55.8340909,
                "pitch": 43,
                "velocity": 80,
                "duration": 0.0977273,
                "tempo": 120.0
            },
            {
                "start_time": 55.8681818,
                "end_time": 55.9659091,
                "pitch": 40,
                "velocity": 80,
                "duration": 0.0977273,
                "tempo": 120.0
            },
            {
                "start_time": 55.9818182,
                "end_time": 56.2113636,
                "pitch": 42,
                "velocity": 80,
                "duration": 0.2295455,
                "tempo": 120.0
            },
            {
                "start_time": 56.2431818,
                "end_time": 56.6136364,
                "pitch": 38,
                "velocity": 80,
                "duration": 0.3704545,
                "tempo": 120.0
            },
            {
                "start_time": 56.6477273,
                "end_time": 56.7340909,
                "pitch": 39,
                "velocity": 80,
                "duration": 0.0863636,
                "tempo": 120.0
            },
            {
                "start_time": 56.7681818,
                "end_time": 56.8681818,
                "pitch": 40,
                "velocity": 80,
                "duration": 0.1,
                "tempo": 120.0
            },
            {
                "start_time": 56.9022727,
                "end_time": 57.0022727,
                "pitch": 40,
                "velocity": 80,
                "duration": 0.1,
                "tempo": 120.0
            },
            {
                "start_time": 57.0363636,
                "end_time": 57.1363636,
                "pitch": 40,
                "velocity": 80,
                "duration": 0.1,
                "tempo": 120.0
            },
            {
                "start_time": 57.1704545,
                "end_time": 57.2727273,
                "pitch": 40,
                "velocity": 80,
                "duration": 0.1022727,
                "tempo": 120.0
            },
            {
                "start_time": 57.3068182,
                "end_time": 57.4090909,
                "pitch": 40,
                "velocity": 80,
                "duration": 0.1022727,
                "tempo": 120.0
            },
            {
                "start_time": 57.4272727,
                "end_time": 57.5295455,
                "pitch": 40,
                "velocity": 80,
                "duration": 0.1022727,
                "tempo": 120.0
            },
            {
                "start_time": 57.5659091,
                "end_time": 57.8,
                "pitch": 45,
                "velocity": 80,
                "duration": 0.2340909,
                "tempo": 120.0
            },
            {
                "start_time": 57.8340909,
                "end_time": 58.3204545,
                "pitch": 38,
                "velocity": 80,
                "duration": 0.4863636,
                "tempo": 120.0
            },
            {
                "start_time": 58.3545455,
                "end_time": 58.4545455,
                "pitch": 40,
                "velocity": 80,
                "duration": 0.1,
                "tempo": 120.0
            },
            {
                "start_time": 58.4863636,
                "end_time": 58.4886364,
                "pitch": 40,
                "velocity": 80,
                "duration": 0.0022727,
                "tempo": 120.0
            }
        ],
        "Church Organ": [
            {
                "start_time": 0.0204545,
                "end_time": 0.2340909,
                "pitch": 40,
                "velocity": 51,
                "duration": 0.2136364,
                "tempo": 120.0
            },
            {
                "start_time": 0.2340909,
                "end_time": 0.2681818,
                "pitch": 44,
                "velocity": 51,
                "duration": 0.0340909,
                "tempo": 120.0
            },
            {
                "start_time": 0.2681818,
                "end_time": 0.3,
                "pitch": 46,
                "velocity": 51,
                "duration": 0.0318182,
                "tempo": 120.0
            },
            {
                "start_time": 0.3,
                "end_time": 0.3340909,
                "pitch": 48,
                "velocity": 51,
                "duration": 0.0340909,
                "tempo": 120.0
            },
            {
                "start_time": 0.3340909,
                "end_time": 0.3681818,
                "pitch": 50,
                "velocity": 51,
                "duration": 0.0340909,
                "tempo": 120.0
            },
            {
                "start_time": 0.3,
                "end_time": 0.4340909,
                "pitch": 52,
                "velocity": 51,
                "duration": 0.1340909,
                "tempo": 120.0
            },
            {
                "start_time": 0.3681818,
                "end_time": 0.4340909,
                "pitch": 52,
                "velocity": 51,
                "duration": 0.0659091,
                "tempo": 120.0
            },
            {
                "start_time": 0.4340909,
                "end_time": 0.4681818,
                "pitch": 56,
                "velocity": 51,
                "duration": 0.0340909,
                "tempo": 120.0
            },
            {
                "start_time": 0.4681818,
                "end_time": 0.5022727,
                "pitch": 58,
                "velocity": 51,
                "duration": 0.0340909,
                "tempo": 120.0
            },
            {
                "start_time": 0.5022727,
                "end_time": 0.5363636,
                "pitch": 60,
                "velocity": 51,
                "duration": 0.0340909,
                "tempo": 120.0
            },
            {
                "start_time": 0.5363636,
                "end_time": 0.5681818,
                "pitch": 62,
                "velocity": 51,
                "duration": 0.0318182,
                "tempo": 120.0
            },
            {
                "start_time": 0.5022727,
                "end_time": 0.6363636,
                "pitch": 64,
                "velocity": 51,
                "duration": 0.1340909,
                "tempo": 120.0
            },
            {
                "start_time": 0.5681818,
                "end_time": 0.6363636,
                "pitch": 64,
                "velocity": 51,
                "duration": 0.0681818,
                "tempo": 120.0
            },
            {
                "start_time": 0.6363636,
                "end_time": 0.6704545,
                "pitch": 68,
                "velocity": 51,
                "duration": 0.0340909,
                "tempo": 120.0
            },
            {
                "start_time": 0.6704545,
                "end_time": 0.7045455,
                "pitch": 70,
                "velocity": 51,
                "duration": 0.0340909,
                "tempo": 120.0
            },
            {
                "start_time": 0.7045455,
                "end_time": 0.7363636,
                "pitch": 72,
                "velocity": 51,
                "duration": 0.0318182,
                "tempo": 120.0
            },
            {
                "start_time": 0.7363636,
                "end_time": 0.7545455,
                "pitch": 74,
                "velocity": 51,
                "duration": 0.0181818,
                "tempo": 120.0
            },
            {
                "start_time": 0.7045455,
                "end_time": 1.6045455,
                "pitch": 76,
                "velocity": 51,
                "duration": 0.9,
                "tempo": 120.0
            },
            {
                "start_time": 0.7545455,
                "end_time": 1.6045455,
                "pitch": 76,
                "velocity": 51,
                "duration": 0.85,
                "tempo": 120.0
            },
            {
                "start_time": 1.6045455,
                "end_time": 3.1386364,
                "pitch": 64,
                "velocity": 51,
                "duration": 1.5340909,
                "tempo": 120.0
            },
            {
                "start_time": 3.175,
                "end_time": 3.4022727,
                "pitch": 40,
                "velocity": 51,
                "duration": 0.2272727,
                "tempo": 120.0
            },
            {
                "start_time": 3.4022727,
                "end_time": 3.4363636,
                "pitch": 44,
                "velocity": 51,
                "duration": 0.0340909,
                "tempo": 120.0
            },
            {
                "start_time": 3.4363636,
                "end_time": 3.4659091,
                "pitch": 46,
                "velocity": 51,
                "duration": 0.0295455,
                "tempo": 120.0
            },
            {
                "start_time": 3.4659091,
                "end_time": 3.5,
                "pitch": 48,
                "velocity": 51,
                "duration": 0.0340909,
                "tempo": 120.0
            },
            {
                "start_time": 3.5,
                "end_time": 3.5318182,
                "pitch": 50,
                "velocity": 51,
                "duration": 0.0318182,
                "tempo": 120.0
            },
            {
                "start_time": 0.4340909,
                "end_time": 3.5977273,
                "pitch": 7,
                "velocity": 51,
                "duration": 3.1636364,
                "tempo": 120.0
            },
            {
                "start_time": 3.4659091,
                "end_time": 3.5977273,
                "pitch": 52,
                "velocity": 51,
                "duration": 0.1318182,
                "tempo": 120.0
            },
            {
                "start_time": 3.5318182,
                "end_time": 3.5977273,
                "pitch": 52,
                "velocity": 51,
                "duration": 0.0659091,
                "tempo": 120.0
            },
            {
                "start_time": 3.5977273,
                "end_time": 3.6159091,
                "pitch": 56,
                "velocity": 51,
                "duration": 0.0181818,
                "tempo": 120.0
            },
            {
                "start_time": 3.6159091,
                "end_time": 3.65,
                "pitch": 58,
                "velocity": 51,
                "duration": 0.0340909,
                "tempo": 120.0
            },
            {
                "start_time": 3.65,
                "end_time": 3.6863636,
                "pitch": 60,
                "velocity": 51,
                "duration": 0.0363636,
                "tempo": 120.0
            },
            {
                "start_time": 3.6863636,
                "end_time": 3.7181818,
                "pitch": 62,
                "velocity": 51,
                "duration": 0.0318182,
                "tempo": 120.0
            },
            {
                "start_time": 0.6363636,
                "end_time": 3.7886364,
                "pitch": 19,
                "velocity": 51,
                "duration": 3.1522727,
                "tempo": 120.0
            },
            {
                "start_time": 3.65,
                "end_time": 3.7886364,
                "pitch": 64,
                "velocity": 51,
                "duration": 0.1386364,
                "tempo": 120.0
            },
            {
                "start_time": 3.7181818,
                "end_time": 3.7886364,
                "pitch": 64,
                "velocity": 51,
                "duration": 0.0704545,
                "tempo": 120.0
            },
            {
                "start_time": 3.7886364,
                "end_time": 3.8227273,
                "pitch": 68,
                "velocity": 51,
                "duration": 0.0340909,
                "tempo": 120.0
            },
            {
                "start_time": 3.8227273,
                "end_time": 3.8545455,
                "pitch": 70,
                "velocity": 51,
                "duration": 0.0318182,
                "tempo": 120.0
            },
            {
                "start_time": 3.8545455,
                "end_time": 3.8886364,
                "pitch": 72,
                "velocity": 51,
                "duration": 0.0340909,
                "tempo": 120.0
            },
            {
                "start_time": 3.8886364,
                "end_time": 3.925,
                "pitch": 74,
                "velocity": 51,
                "duration": 0.0363636,
                "tempo": 120.0
            },
            {
                "start_time": 3.8545455,
                "end_time": 6.3590909,
                "pitch": 76,
                "velocity": 51,
                "duration": 2.5045455,
                "tempo": 120.0
            },
            {
                "start_time": 3.925,
                "end_time": 6.3590909,
                "pitch": 76,
                "velocity": 51,
                "duration": 2.4340909,
                "tempo": 120.0
            },
            {
                "start_time": 6.3590909,
                "end_time": 6.4272727,
                "pitch": 74,
                "velocity": 51,
                "duration": 0.0681818,
                "tempo": 120.0
            },
            {
                "start_time": 6.4272727,
                "end_time": 6.4636364,
                "pitch": 72,
                "velocity": 51,
                "duration": 0.0363636,
                "tempo": 120.0
            },
            {
                "start_time": 6.4636364,
                "end_time": 6.5136364,
                "pitch": 71,
                "velocity": 51,
                "duration": 0.05,
                "tempo": 120.0
            },
            {
                "start_time": 6.5136364,
                "end_time": 6.6181818,
                "pitch": 69,
                "velocity": 51,
                "duration": 0.1045455,
                "tempo": 120.0
            },
            {
                "start_time": 6.6181818,
                "end_time": 6.7227273,
                "pitch": 66,
                "velocity": 51,
                "duration": 0.1045455,
                "tempo": 120.0
            },
            {
                "start_time": 6.7227273,
                "end_time": 6.7863636,
                "pitch": 63,
                "velocity": 51,
                "duration": 0.0636364,
                "tempo": 120.0
            },
            {
                "start_time": 6.7863636,
                "end_time": 6.8522727,
                "pitch": 61,
                "velocity": 51,
                "duration": 0.0659091,
                "tempo": 120.0
            },
            {
                "start_time": 6.8522727,
                "end_time": 6.9159091,
                "pitch": 59,
                "velocity": 51,
                "duration": 0.0636364,
                "tempo": 120.0
            },
            {
                "start_time": 6.9159091,
                "end_time": 7.0159091,
                "pitch": 57,
                "velocity": 51,
                "duration": 0.1,
                "tempo": 120.0
            },
            {
                "start_time": 7.0159091,
                "end_time": 7.1136364,
                "pitch": 54,
                "velocity": 51,
                "duration": 0.0977273,
                "tempo": 120.0
            },
            {
                "start_time": 7.1136364,
                "end_time": 7.1818182,
                "pitch": 51,
                "velocity": 51,
                "duration": 0.0681818,
                "tempo": 120.0
            },
            {
                "start_time": 7.1818182,
                "end_time": 7.2340909,
                "pitch": 49,
                "velocity": 51,
                "duration": 0.0522727,
                "tempo": 120.0
            },
            {
                "start_time": 7.2340909,
                "end_time": 7.3022727,
                "pitch": 47,
                "velocity": 51,
                "duration": 0.0681818,
                "tempo": 120.0
            },
            {
                "start_time": 7.3022727,
                "end_time": 7.4045455,
                "pitch": 45,
                "velocity": 51,
                "duration": 0.1022727,
                "tempo": 120.0
            },
            {
                "start_time": 7.4045455,
                "end_time": 7.8659091,
                "pitch": 42,
                "velocity": 51,
                "duration": 0.4613636,
                "tempo": 120.0
            },
            {
                "start_time": 33.1272727,
                "end_time": 33.8863636,
                "pitch": 57,
                "velocity": 80,
                "duration": 0.7590909,
                "tempo": 120.0
            },
            {
                "start_time": 33.9227273,
                "end_time": 34.15,
                "pitch": 61,
                "velocity": 80,
                "duration": 0.2272727,
                "tempo": 120.0
            },
            {
                "start_time": 34.15,
                "end_time": 34.675,
                "pitch": 63,
                "velocity": 80,
                "duration": 0.525,
                "tempo": 120.0
            },
            {
                "start_time": 34.7113636,
                "end_time": 35.4704545,
                "pitch": 63,
                "velocity": 80,
                "duration": 0.7590909,
                "tempo": 120.0
            },
            {
                "start_time": 35.5068182,
                "end_time": 35.7340909,
                "pitch": 64,
                "velocity": 80,
                "duration": 0.2272727,
                "tempo": 120.0
            },
            {
                "start_time": 35.7681818,
                "end_time": 35.9840909,
                "pitch": 62,
                "velocity": 80,
                "duration": 0.2159091,
                "tempo": 120.0
            },
            {
                "start_time": 36.0181818,
                "end_time": 36.2590909,
                "pitch": 60,
                "velocity": 80,
                "duration": 0.2409091,
                "tempo": 120.0
            },
            {
                "start_time": 36.2954545,
                "end_time": 37.0409091,
                "pitch": 59,
                "velocity": 80,
                "duration": 0.7454545,
                "tempo": 120.0
            },
            {
                "start_time": 37.075,
                "end_time": 37.2954545,
                "pitch": 62,
                "velocity": 80,
                "duration": 0.2204545,
                "tempo": 120.0
            },
            {
                "start_time": 37.2954545,
                "end_time": 37.8272727,
                "pitch": 65,
                "velocity": 80,
                "duration": 0.5318182,
                "tempo": 120.0
            },
            {
                "start_time": 37.8613636,
                "end_time": 38.6227273,
                "pitch": 65,
                "velocity": 80,
                "duration": 0.7613636,
                "tempo": 120.0
            },
            {
                "start_time": 38.6568182,
                "end_time": 38.8772727,
                "pitch": 64,
                "velocity": 80,
                "duration": 0.2204545,
                "tempo": 120.0
            },
            {
                "start_time": 38.9136364,
                "end_time": 39.1477273,
                "pitch": 62,
                "velocity": 80,
                "duration": 0.2340909,
                "tempo": 120.0
            },
            {
                "start_time": 39.1795455,
                "end_time": 39.4090909,
                "pitch": 60,
                "velocity": 80,
                "duration": 0.2295455,
                "tempo": 120.0
            },
            {
                "start_time": 39.4431818,
                "end_time": 40.2045455,
                "pitch": 57,
                "velocity": 80,
                "duration": 0.7613636,
                "tempo": 120.0
            },
            {
                "start_time": 40.2227273,
                "end_time": 40.9727273,
                "pitch": 52,
                "velocity": 80,
                "duration": 0.75,
                "tempo": 120.0
            },
            {
                "start_time": 41.0090909,
                "end_time": 41.7681818,
                "pitch": 53,
                "velocity": 80,
                "duration": 0.7590909,
                "tempo": 120.0
            },
            {
                "start_time": 7.4045455,
                "end_time": 42.0318182,
                "pitch": 54,
                "velocity": 51,
                "duration": 34.6272727,
                "tempo": 120.0
            },
            {
                "start_time": 41.8045455,
                "end_time": 42.0318182,
                "pitch": 54,
                "velocity": 80,
                "duration": 0.2272727,
                "tempo": 120.0
            },
            {
                "start_time": 42.0659091,
                "end_time": 42.2977273,
                "pitch": 55,
                "velocity": 80,
                "duration": 0.2318182,
                "tempo": 120.0
            },
            {
                "start_time": 42.3340909,
                "end_time": 42.5545455,
                "pitch": 57,
                "velocity": 80,
                "duration": 0.2204545,
                "tempo": 120.0
            },
            {
                "start_time": 42.5931818,
                "end_time": 43.7454545,
                "pitch": 58,
                "velocity": 80,
                "duration": 1.1522727,
                "tempo": 120.0
            },
            {
                "start_time": 43.7795455,
                "end_time": 44.1386364,
                "pitch": 57,
                "velocity": 80,
                "duration": 0.3590909,
                "tempo": 120.0
            },
            {
                "start_time": 6.4636364,
                "end_time": 44.7818182,
                "pitch": 56,
                "velocity": 51,
                "duration": 38.3181818,
                "tempo": 120.0
            },
            {
                "start_time": 44.1727273,
                "end_time": 44.7818182,
                "pitch": 56,
                "velocity": 80,
                "duration": 0.6090909,
                "tempo": 120.0
            },
            {
                "start_time": 44.8181818,
                "end_time": 44.9159091,
                "pitch": 57,
                "velocity": 80,
                "duration": 0.0977273,
                "tempo": 120.0
            },
            {
                "start_time": 44.9522727,
                "end_time": 45.1909091,
                "pitch": 59,
                "velocity": 80,
                "duration": 0.2386364,
                "tempo": 120.0
            },
            {
                "start_time": 45.2113636,
                "end_time": 45.4454545,
                "pitch": 60,
                "velocity": 80,
                "duration": 0.2340909,
                "tempo": 120.0
            },
            {
                "start_time": 45.4795455,
                "end_time": 45.7068182,
                "pitch": 62,
                "velocity": 80,
                "duration": 0.2272727,
                "tempo": 120.0
            },
            {
                "start_time": 45.7431818,
                "end_time": 46.5022727,
                "pitch": 57,
                "velocity": 80,
                "duration": 0.7590909,
                "tempo": 120.0
            },
            {
                "start_time": 46.5363636,
                "end_time": 46.7704545,
                "pitch": 61,
                "velocity": 80,
                "duration": 0.2340909,
                "tempo": 120.0
            },
            {
                "start_time": 46.7704545,
                "end_time": 47.2909091,
                "pitch": 63,
                "velocity": 80,
                "duration": 0.5204545,
                "tempo": 120.0
            },
            {
                "start_time": 47.3272727,
                "end_time": 48.0772727,
                "pitch": 63,
                "velocity": 80,
                "duration": 0.75,
                "tempo": 120.0
            },
            {
                "start_time": 48.0954545,
                "end_time": 48.3295455,
                "pitch": 64,
                "velocity": 80,
                "duration": 0.2340909,
                "tempo": 120.0
            },
            {
                "start_time": 48.3636364,
                "end_time": 48.6,
                "pitch": 62,
                "velocity": 80,
                "duration": 0.2363636,
                "tempo": 120.0
            },
            {
                "start_time": 48.6340909,
                "end_time": 48.8568182,
                "pitch": 60,
                "velocity": 80,
                "duration": 0.2227273,
                "tempo": 120.0
            },
            {
                "start_time": 48.8909091,
                "end_time": 49.6454545,
                "pitch": 59,
                "velocity": 80,
                "duration": 0.7545455,
                "tempo": 120.0
            },
            {
                "start_time": 49.6795455,
                "end_time": 49.8954545,
                "pitch": 62,
                "velocity": 80,
                "duration": 0.2159091,
                "tempo": 120.0
            },
            {
                "start_time": 49.8954545,
                "end_time": 50.4409091,
                "pitch": 65,
                "velocity": 80,
                "duration": 0.5454545,
                "tempo": 120.0
            },
            {
                "start_time": 50.4772727,
                "end_time": 51.2272727,
                "pitch": 65,
                "velocity": 80,
                "duration": 0.75,
                "tempo": 120.0
            },
            {
                "start_time": 51.2613636,
                "end_time": 51.4954545,
                "pitch": 64,
                "velocity": 80,
                "duration": 0.2340909,
                "tempo": 120.0
            },
            {
                "start_time": 51.5318182,
                "end_time": 51.7477273,
                "pitch": 62,
                "velocity": 80,
                "duration": 0.2159091,
                "tempo": 120.0
            },
            {
                "start_time": 51.7818182,
                "end_time": 52.0159091,
                "pitch": 60,
                "velocity": 80,
                "duration": 0.2340909,
                "tempo": 120.0
            },
            {
                "start_time": 52.0522727,
                "end_time": 52.8045455,
                "pitch": 57,
                "velocity": 80,
                "duration": 0.7522727,
                "tempo": 120.0
            },
            {
                "start_time": 52.8386364,
                "end_time": 53.5931818,
                "pitch": 52,
                "velocity": 80,
                "duration": 0.7545455,
                "tempo": 120.0
            },
            {
                "start_time": 53.6295455,
                "end_time": 54.3818182,
                "pitch": 53,
                "velocity": 80,
                "duration": 0.7522727,
                "tempo": 120.0
            },
            {
                "start_time": 54.4136364,
                "end_time": 54.6363636,
                "pitch": 54,
                "velocity": 80,
                "duration": 0.2227273,
                "tempo": 120.0
            },
            {
                "start_time": 54.6727273,
                "end_time": 54.9068182,
                "pitch": 55,
                "velocity": 80,
                "duration": 0.2340909,
                "tempo": 120.0
            },
            {
                "start_time": 54.9409091,
                "end_time": 55.1704545,
                "pitch": 57,
                "velocity": 80,
                "duration": 0.2295455,
                "tempo": 120.0
            },
            {
                "start_time": 55.2045455,
                "end_time": 57.5318182,
                "pitch": 52,
                "velocity": 80,
                "duration": 2.3272727,
                "tempo": 120.0
            },
            {
                "start_time": 58.3590909,
                "end_time": 58.4886364,
                "pitch": 64,
                "velocity": 64,
                "duration": 0.1295455,
                "tempo": 120.0
            }
        ],
        "Vibraphone": [
            {
                "start_time": 7.9045455,
                "end_time": 7.9863636,
                "pitch": 64,
                "velocity": 64,
                "duration": 0.0818182,
                "tempo": 120.0
            },
            {
                "start_time": 8.0227273,
                "end_time": 8.1272727,
                "pitch": 59,
                "velocity": 64,
                "duration": 0.1045455,
                "tempo": 120.0
            },
            {
                "start_time": 8.1636364,
                "end_time": 8.2681818,
                "pitch": 62,
                "velocity": 64,
                "duration": 0.1045455,
                "tempo": 120.0
            },
            {
                "start_time": 8.3045455,
                "end_time": 8.4022727,
                "pitch": 57,
                "velocity": 51,
                "duration": 0.0977273,
                "tempo": 120.0
            },
            {
                "start_time": 8.4340909,
                "end_time": 8.5318182,
                "pitch": 62,
                "velocity": 51,
                "duration": 0.0977273,
                "tempo": 120.0
            },
            {
                "start_time": 8.5659091,
                "end_time": 8.6454545,
                "pitch": 59,
                "velocity": 51,
                "duration": 0.0795455,
                "tempo": 120.0
            },
            {
                "start_time": 8.6795455,
                "end_time": 8.7772727,
                "pitch": 64,
                "velocity": 40,
                "duration": 0.0977273,
                "tempo": 120.0
            },
            {
                "start_time": 8.8090909,
                "end_time": 8.9090909,
                "pitch": 59,
                "velocity": 40,
                "duration": 0.1,
                "tempo": 120.0
            },
            {
                "start_time": 8.9409091,
                "end_time": 9.0386364,
                "pitch": 62,
                "velocity": 40,
                "duration": 0.0977273,
                "tempo": 120.0
            },
            {
                "start_time": 9.0727273,
                "end_time": 9.1772727,
                "pitch": 57,
                "velocity": 32,
                "duration": 0.1045455,
                "tempo": 120.0
            },
            {
                "start_time": 9.2113636,
                "end_time": 9.3181818,
                "pitch": 62,
                "velocity": 32,
                "duration": 0.1068182,
                "tempo": 120.0
            },
            {
                "start_time": 9.3522727,
                "end_time": 9.4409091,
                "pitch": 59,
                "velocity": 32,
                "duration": 0.0886364,
                "tempo": 120.0
            },
            {
                "start_time": 9.4772727,
                "end_time": 9.575,
                "pitch": 64,
                "velocity": 51,
                "duration": 0.0977273,
                "tempo": 120.0
            },
            {
                "start_time": 9.6068182,
                "end_time": 9.7045455,
                "pitch": 69,
                "velocity": 51,
                "duration": 0.0977273,
                "tempo": 120.0
            },
            {
                "start_time": 9.7386364,
                "end_time": 9.8363636,
                "pitch": 74,
                "velocity": 51,
                "duration": 0.0977273,
                "tempo": 120.0
            },
            {
                "start_time": 9.8681818,
                "end_time": 9.9704545,
                "pitch": 67,
                "velocity": 51,
                "duration": 0.1022727,
                "tempo": 120.0
            },
            {
                "start_time": 10.0068182,
                "end_time": 10.0931818,
                "pitch": 72,
                "velocity": 51,
                "duration": 0.0863636,
                "tempo": 120.0
            },
            {
                "start_time": 10.1272727,
                "end_time": 10.2295455,
                "pitch": 77,
                "velocity": 51,
                "duration": 0.1022727,
                "tempo": 120.0
            },
            {
                "start_time": 10.2659091,
                "end_time": 10.3613636,
                "pitch": 69,
                "velocity": 51,
                "duration": 0.0954545,
                "tempo": 120.0
            },
            {
                "start_time": 10.3954545,
                "end_time": 10.4931818,
                "pitch": 74,
                "velocity": 51,
                "duration": 0.0977273,
                "tempo": 120.0
            },
            {
                "start_time": 10.5272727,
                "end_time": 10.625,
                "pitch": 79,
                "velocity": 51,
                "duration": 0.0977273,
                "tempo": 120.0
            },
            {
                "start_time": 10.6568182,
                "end_time": 10.7590909,
                "pitch": 78,
                "velocity": 51,
                "duration": 0.1022727,
                "tempo": 120.0
            },
            {
                "start_time": 10.7772727,
                "end_time": 10.8818182,
                "pitch": 76,
                "velocity": 51,
                "duration": 0.1045455,
                "tempo": 120.0
            },
            {
                "start_time": 10.9159091,
                "end_time": 11.0181818,
                "pitch": 69,
                "velocity": 51,
                "duration": 0.1022727,
                "tempo": 120.0
            },
            {
                "start_time": 11.0545455,
                "end_time": 11.1545455,
                "pitch": 64,
                "velocity": 64,
                "duration": 0.1,
                "tempo": 120.0
            },
            {
                "start_time": 11.1886364,
                "end_time": 11.2886364,
                "pitch": 59,
                "velocity": 64,
                "duration": 0.1,
                "tempo": 120.0
            },
            {
                "start_time": 11.3227273,
                "end_time": 11.4227273,
                "pitch": 62,
                "velocity": 64,
                "duration": 0.1,
                "tempo": 120.0
            },
            {
                "start_time": 11.4568182,
                "end_time": 11.5409091,
                "pitch": 57,
                "velocity": 51,
                "duration": 0.0840909,
                "tempo": 120.0
            },
            {
                "start_time": 11.5772727,
                "end_time": 11.6772727,
                "pitch": 62,
                "velocity": 51,
                "duration": 0.1,
                "tempo": 120.0
            },
            {
                "start_time": 11.7136364,
                "end_time": 11.8159091,
                "pitch": 59,
                "velocity": 51,
                "duration": 0.1022727,
                "tempo": 120.0
            },
            {
                "start_time": 11.85,
                "end_time": 11.9477273,
                "pitch": 64,
                "velocity": 40,
                "duration": 0.0977273,
                "tempo": 120.0
            },
            {
                "start_time": 11.9795455,
                "end_time": 12.0795455,
                "pitch": 59,
                "velocity": 40,
                "duration": 0.1,
                "tempo": 120.0
            },
            {
                "start_time": 12.1113636,
                "end_time": 12.2090909,
                "pitch": 62,
                "velocity": 40,
                "duration": 0.0977273,
                "tempo": 120.0
            },
            {
                "start_time": 12.225,
                "end_time": 12.3227273,
                "pitch": 57,
                "velocity": 32,
                "duration": 0.0977273,
                "tempo": 120.0
            },
            {
                "start_time": 12.3568182,
                "end_time": 12.4545455,
                "pitch": 62,
                "velocity": 32,
                "duration": 0.0977273,
                "tempo": 120.0
            },
            {
                "start_time": 12.4886364,
                "end_time": 12.5863636,
                "pitch": 59,
                "velocity": 32,
                "duration": 0.0977273,
                "tempo": 120.0
            },
            {
                "start_time": 12.6204545,
                "end_time": 12.7227273,
                "pitch": 64,
                "velocity": 51,
                "duration": 0.1022727,
                "tempo": 120.0
            },
            {
                "start_time": 12.7590909,
                "end_time": 12.8636364,
                "pitch": 69,
                "velocity": 51,
                "duration": 0.1045455,
                "tempo": 120.0
            },
            {
                "start_time": 12.9,
                "end_time": 12.9863636,
                "pitch": 74,
                "velocity": 51,
                "duration": 0.0863636,
                "tempo": 120.0
            },
            {
                "start_time": 13.0227273,
                "end_time": 13.1204545,
                "pitch": 67,
                "velocity": 51,
                "duration": 0.0977273,
                "tempo": 120.0
            },
            {
                "start_time": 13.1545455,
                "end_time": 13.2522727,
                "pitch": 72,
                "velocity": 51,
                "duration": 0.0977273,
                "tempo": 120.0
            },
            {
                "start_time": 13.2863636,
                "end_time": 13.3818182,
                "pitch": 77,
                "velocity": 51,
                "duration": 0.0954545,
                "tempo": 120.0
            },
            {
                "start_time": 13.4159091,
                "end_time": 13.5181818,
                "pitch": 69,
                "velocity": 51,
                "duration": 0.1022727,
                "tempo": 120.0
            },
            {
                "start_time": 13.5522727,
                "end_time": 13.6568182,
                "pitch": 74,
                "velocity": 51,
                "duration": 0.1045455,
                "tempo": 120.0
            },
            {
                "start_time": 13.6727273,
                "end_time": 13.7772727,
                "pitch": 79,
                "velocity": 51,
                "duration": 0.1045455,
                "tempo": 120.0
            },
            {
                "start_time": 13.8113636,
                "end_time": 13.9090909,
                "pitch": 78,
                "velocity": 51,
                "duration": 0.0977273,
                "tempo": 120.0
            },
            {
                "start_time": 13.9409091,
                "end_time": 14.0386364,
                "pitch": 76,
                "velocity": 51,
                "duration": 0.0977273,
                "tempo": 120.0
            },
            {
                "start_time": 14.0727273,
                "end_time": 14.1704545,
                "pitch": 69,
                "velocity": 51,
                "duration": 0.0977273,
                "tempo": 120.0
            },
            {
                "start_time": 14.2068182,
                "end_time": 14.3068182,
                "pitch": 64,
                "velocity": 64,
                "duration": 0.1,
                "tempo": 120.0
            },
            {
                "start_time": 14.3431818,
                "end_time": 14.4272727,
                "pitch": 59,
                "velocity": 64,
                "duration": 0.0840909,
                "tempo": 120.0
            },
            {
                "start_time": 14.4636364,
                "end_time": 14.5659091,
                "pitch": 62,
                "velocity": 64,
                "duration": 0.1022727,
                "tempo": 120.0
            },
            {
                "start_time": 14.6,
                "end_time": 14.7,
                "pitch": 57,
                "velocity": 51,
                "duration": 0.1,
                "tempo": 120.0
            },
            {
                "start_time": 14.7340909,
                "end_time": 14.8340909,
                "pitch": 62,
                "velocity": 51,
                "duration": 0.1,
                "tempo": 120.0
            },
            {
                "start_time": 14.8681818,
                "end_time": 14.9681818,
                "pitch": 59,
                "velocity": 51,
                "duration": 0.1,
                "tempo": 120.0
            },
            {
                "start_time": 15.0022727,
                "end_time": 15.0886364,
                "pitch": 64,
                "velocity": 40,
                "duration": 0.0863636,
                "tempo": 120.0
            },
            {
                "start_time": 15.1227273,
                "end_time": 15.2272727,
                "pitch": 59,
                "velocity": 40,
                "duration": 0.1045455,
                "tempo": 120.0
            },
            {
                "start_time": 15.2613636,
                "end_time": 15.3636364,
                "pitch": 62,
                "velocity": 40,
                "duration": 0.1022727,
                "tempo": 120.0
            },
            {
                "start_time": 15.3977273,
                "end_time": 15.4977273,
                "pitch": 57,
                "velocity": 32,
                "duration": 0.1,
                "tempo": 120.0
            },
            {
                "start_time": 15.5295455,
                "end_time": 15.6272727,
                "pitch": 62,
                "velocity": 32,
                "duration": 0.0977273,
                "tempo": 120.0
            },
            {
                "start_time": 15.6613636,
                "end_time": 15.7590909,
                "pitch": 59,
                "velocity": 32,
                "duration": 0.0977273,
                "tempo": 120.0
            },
            {
                "start_time": 15.7931818,
                "end_time": 15.8772727,
                "pitch": 64,
                "velocity": 64,
                "duration": 0.0840909,
                "tempo": 120.0
            },
            {
                "start_time": 15.9136364,
                "end_time": 16.0159091,
                "pitch": 59,
                "velocity": 64,
                "duration": 0.1022727,
                "tempo": 120.0
            },
            {
                "start_time": 16.05,
                "end_time": 16.1522727,
                "pitch": 62,
                "velocity": 64,
                "duration": 0.1022727,
                "tempo": 120.0
            },
            {
                "start_time": 16.1886364,
                "end_time": 16.2886364,
                "pitch": 57,
                "velocity": 51,
                "duration": 0.1,
                "tempo": 120.0
            },
            {
                "start_time": 16.3227273,
                "end_time": 16.4227273,
                "pitch": 62,
                "velocity": 51,
                "duration": 0.1,
                "tempo": 120.0
            },
            {
                "start_time": 16.4568182,
                "end_time": 16.5409091,
                "pitch": 59,
                "velocity": 51,
                "duration": 0.0840909,
                "tempo": 120.0
            },
            {
                "start_time": 16.575,
                "end_time": 16.6727273,
                "pitch": 64,
                "velocity": 40,
                "duration": 0.0977273,
                "tempo": 120.0
            },
            {
                "start_time": 16.7045455,
                "end_time": 16.8022727,
                "pitch": 59,
                "velocity": 40,
                "duration": 0.0977273,
                "tempo": 120.0
            },
            {
                "start_time": 16.8363636,
                "end_time": 16.9340909,
                "pitch": 62,
                "velocity": 40,
                "duration": 0.0977273,
                "tempo": 120.0
            },
            {
                "start_time": 16.9659091,
                "end_time": 17.0681818,
                "pitch": 57,
                "velocity": 32,
                "duration": 0.1022727,
                "tempo": 120.0
            },
            {
                "start_time": 17.1022727,
                "end_time": 17.2045455,
                "pitch": 62,
                "velocity": 32,
                "duration": 0.1022727,
                "tempo": 120.0
            },
            {
                "start_time": 17.2409091,
                "end_time": 17.325,
                "pitch": 59,
                "velocity": 32,
                "duration": 0.0840909,
                "tempo": 120.0
            },
            {
                "start_time": 17.3613636,
                "end_time": 17.4613636,
                "pitch": 64,
                "velocity": 64,
                "duration": 0.1,
                "tempo": 120.0
            },
            {
                "start_time": 17.4954545,
                "end_time": 17.5954545,
                "pitch": 59,
                "velocity": 64,
                "duration": 0.1,
                "tempo": 120.0
            },
            {
                "start_time": 17.6295455,
                "end_time": 17.7295455,
                "pitch": 62,
                "velocity": 64,
                "duration": 0.1,
                "tempo": 120.0
            },
            {
                "start_time": 17.7636364,
                "end_time": 17.8659091,
                "pitch": 57,
                "velocity": 51,
                "duration": 0.1022727,
                "tempo": 120.0
            },
            {
                "start_time": 17.9,
                "end_time": 17.9840909,
                "pitch": 62,
                "velocity": 51,
                "duration": 0.0840909,
                "tempo": 120.0
            },
            {
                "start_time": 18.0204545,
                "end_time": 18.1227273,
                "pitch": 59,
                "velocity": 51,
                "duration": 0.1022727,
                "tempo": 120.0
            },
            {
                "start_time": 18.1568182,
                "end_time": 18.2545455,
                "pitch": 64,
                "velocity": 40,
                "duration": 0.0977273,
                "tempo": 120.0
            },
            {
                "start_time": 18.2863636,
                "end_time": 18.3840909,
                "pitch": 59,
                "velocity": 40,
                "duration": 0.0977273,
                "tempo": 120.0
            },
            {
                "start_time": 18.4181818,
                "end_time": 18.5159091,
                "pitch": 62,
                "velocity": 40,
                "duration": 0.0977273,
                "tempo": 120.0
            },
            {
                "start_time": 18.5477273,
                "end_time": 18.65,
                "pitch": 57,
                "velocity": 32,
                "duration": 0.1022727,
                "tempo": 120.0
            },
            {
                "start_time": 18.6863636,
                "end_time": 18.7704545,
                "pitch": 62,
                "velocity": 32,
                "duration": 0.0840909,
                "tempo": 120.0
            },
            {
                "start_time": 18.8045455,
                "end_time": 18.9068182,
                "pitch": 59,
                "velocity": 32,
                "duration": 0.1022727,
                "tempo": 120.0
            },
            {
                "start_time": 18.9431818,
                "end_time": 19.0409091,
                "pitch": 64,
                "velocity": 51,
                "duration": 0.0977273,
                "tempo": 120.0
            },
            {
                "start_time": 19.0727273,
                "end_time": 19.1704545,
                "pitch": 69,
                "velocity": 51,
                "duration": 0.0977273,
                "tempo": 120.0
            },
            {
                "start_time": 19.2045455,
                "end_time": 19.3022727,
                "pitch": 74,
                "velocity": 51,
                "duration": 0.0977273,
                "tempo": 120.0
            },
            {
                "start_time": 19.3340909,
                "end_time": 19.4227273,
                "pitch": 67,
                "velocity": 51,
                "duration": 0.0886364,
                "tempo": 120.0
            },
            {
                "start_time": 19.4568182,
                "end_time": 19.5613636,
                "pitch": 72,
                "velocity": 51,
                "duration": 0.1045455,
                "tempo": 120.0
            },
            {
                "start_time": 19.5977273,
                "end_time": 19.7022727,
                "pitch": 77,
                "velocity": 51,
                "duration": 0.1045455,
                "tempo": 120.0
            },
            {
                "start_time": 19.7386364,
                "end_time": 19.8363636,
                "pitch": 69,
                "velocity": 51,
                "duration": 0.0977273,
                "tempo": 120.0
            },
            {
                "start_time": 19.8704545,
                "end_time": 19.9681818,
                "pitch": 74,
                "velocity": 51,
                "duration": 0.0977273,
                "tempo": 120.0
            },
            {
                "start_time": 20.0022727,
                "end_time": 20.0977273,
                "pitch": 79,
                "velocity": 51,
                "duration": 0.0954545,
                "tempo": 120.0
            },
            {
                "start_time": 20.1136364,
                "end_time": 20.2159091,
                "pitch": 78,
                "velocity": 51,
                "duration": 0.1022727,
                "tempo": 120.0
            },
            {
                "start_time": 20.2522727,
                "end_time": 20.3545455,
                "pitch": 76,
                "velocity": 51,
                "duration": 0.1022727,
                "tempo": 120.0
            },
            {
                "start_time": 20.3886364,
                "end_time": 20.4931818,
                "pitch": 69,
                "velocity": 51,
                "duration": 0.1045455,
                "tempo": 120.0
            },
            {
                "start_time": 20.5295455,
                "end_time": 20.6272727,
                "pitch": 64,
                "velocity": 64,
                "duration": 0.0977273,
                "tempo": 120.0
            },
            {
                "start_time": 20.6636364,
                "end_time": 20.7613636,
                "pitch": 59,
                "velocity": 64,
                "duration": 0.0977273,
                "tempo": 120.0
            },
            {
                "start_time": 20.7954545,
                "end_time": 20.8795455,
                "pitch": 62,
                "velocity": 64,
                "duration": 0.0840909,
                "tempo": 120.0
            },
            {
                "start_time": 20.9136364,
                "end_time": 21.0113636,
                "pitch": 57,
                "velocity": 51,
                "duration": 0.0977273,
                "tempo": 120.0
            },
            {
                "start_time": 21.0454545,
                "end_time": 21.1431818,
                "pitch": 62,
                "velocity": 51,
                "duration": 0.0977273,
                "tempo": 120.0
            },
            {
                "start_time": 21.175,
                "end_time": 21.2727273,
                "pitch": 59,
                "velocity": 51,
                "duration": 0.0977273,
                "tempo": 120.0
            },
            {
                "start_time": 21.3068182,
                "end_time": 21.4090909,
                "pitch": 64,
                "velocity": 40,
                "duration": 0.1022727,
                "tempo": 120.0
            },
            {
                "start_time": 21.4431818,
                "end_time": 21.5454545,
                "pitch": 59,
                "velocity": 40,
                "duration": 0.1022727,
                "tempo": 120.0
            },
            {
                "start_time": 21.5636364,
                "end_time": 21.6659091,
                "pitch": 62,
                "velocity": 40,
                "duration": 0.1022727,
                "tempo": 120.0
            },
            {
                "start_time": 21.7,
                "end_time": 21.7977273,
                "pitch": 57,
                "velocity": 32,
                "duration": 0.0977273,
                "tempo": 120.0
            },
            {
                "start_time": 21.8295455,
                "end_time": 21.9272727,
                "pitch": 62,
                "velocity": 32,
                "duration": 0.0977273,
                "tempo": 120.0
            },
            {
                "start_time": 21.9613636,
                "end_time": 22.0590909,
                "pitch": 59,
                "velocity": 32,
                "duration": 0.0977273,
                "tempo": 120.0
            },
            {
                "start_time": 22.0931818,
                "end_time": 22.1954545,
                "pitch": 64,
                "velocity": 51,
                "duration": 0.1022727,
                "tempo": 120.0
            },
            {
                "start_time": 22.2295455,
                "end_time": 22.3136364,
                "pitch": 69,
                "velocity": 51,
                "duration": 0.0840909,
                "tempo": 120.0
            },
            {
                "start_time": 22.35,
                "end_time": 22.4522727,
                "pitch": 74,
                "velocity": 51,
                "duration": 0.1022727,
                "tempo": 120.0
            },
            {
                "start_time": 22.4863636,
                "end_time": 22.5840909,
                "pitch": 67,
                "velocity": 51,
                "duration": 0.0977273,
                "tempo": 120.0
            },
            {
                "start_time": 22.6159091,
                "end_time": 22.7136364,
                "pitch": 72,
                "velocity": 51,
                "duration": 0.0977273,
                "tempo": 120.0
            },
            {
                "start_time": 22.7477273,
                "end_time": 22.8454545,
                "pitch": 77,
                "velocity": 51,
                "duration": 0.0977273,
                "tempo": 120.0
            },
            {
                "start_time": 22.8795455,
                "end_time": 22.9818182,
                "pitch": 69,
                "velocity": 51,
                "duration": 0.1022727,
                "tempo": 120.0
            },
            {
                "start_time": 23.0,
                "end_time": 23.1022727,
                "pitch": 74,
                "velocity": 51,
                "duration": 0.1022727,
                "tempo": 120.0
            },
            {
                "start_time": 23.1363636,
                "end_time": 23.2386364,
                "pitch": 79,
                "velocity": 51,
                "duration": 0.1022727,
                "tempo": 120.0
            },
            {
                "start_time": 23.275,
                "end_time": 23.375,
                "pitch": 78,
                "velocity": 51,
                "duration": 0.1,
                "tempo": 120.0
            },
            {
                "start_time": 23.4090909,
                "end_time": 23.5090909,
                "pitch": 76,
                "velocity": 51,
                "duration": 0.1,
                "tempo": 120.0
            },
            {
                "start_time": 23.5431818,
                "end_time": 23.6431818,
                "pitch": 69,
                "velocity": 51,
                "duration": 0.1,
                "tempo": 120.0
            },
            {
                "start_time": 23.6795455,
                "end_time": 23.7636364,
                "pitch": 64,
                "velocity": 64,
                "duration": 0.0840909,
                "tempo": 120.0
            },
            {
                "start_time": 23.7977273,
                "end_time": 23.9,
                "pitch": 59,
                "velocity": 64,
                "duration": 0.1022727,
                "tempo": 120.0
            },
            {
                "start_time": 23.9340909,
                "end_time": 24.0363636,
                "pitch": 62,
                "velocity": 64,
                "duration": 0.1022727,
                "tempo": 120.0
            },
            {
                "start_time": 24.0704545,
                "end_time": 24.1681818,
                "pitch": 57,
                "velocity": 51,
                "duration": 0.0977273,
                "tempo": 120.0
            },
            {
                "start_time": 24.2022727,
                "end_time": 24.3,
                "pitch": 62,
                "velocity": 51,
                "duration": 0.0977273,
                "tempo": 120.0
            },
            {
                "start_time": 24.3318182,
                "end_time": 24.4136364,
                "pitch": 59,
                "velocity": 51,
                "duration": 0.0818182,
                "tempo": 120.0
            },
            {
                "start_time": 24.4477273,
                "end_time": 24.5477273,
                "pitch": 64,
                "velocity": 40,
                "duration": 0.1,
                "tempo": 120.0
            },
            {
                "start_time": 24.5818182,
                "end_time": 24.6818182,
                "pitch": 59,
                "velocity": 40,
                "duration": 0.1,
                "tempo": 120.0
            },
            {
                "start_time": 24.7159091,
                "end_time": 24.8159091,
                "pitch": 62,
                "velocity": 40,
                "duration": 0.1,
                "tempo": 120.0
            },
            {
                "start_time": 24.85,
                "end_time": 24.9522727,
                "pitch": 57,
                "velocity": 32,
                "duration": 0.1022727,
                "tempo": 120.0
            },
            {
                "start_time": 24.9863636,
                "end_time": 25.0909091,
                "pitch": 62,
                "velocity": 32,
                "duration": 0.1045455,
                "tempo": 120.0
            },
            {
                "start_time": 25.125,
                "end_time": 25.2113636,
                "pitch": 59,
                "velocity": 32,
                "duration": 0.0863636,
                "tempo": 120.0
            },
            {
                "start_time": 25.2477273,
                "end_time": 25.3431818,
                "pitch": 64,
                "velocity": 51,
                "duration": 0.0954545,
                "tempo": 120.0
            },
            {
                "start_time": 25.3772727,
                "end_time": 25.475,
                "pitch": 69,
                "velocity": 51,
                "duration": 0.0977273,
                "tempo": 120.0
            },
            {
                "start_time": 25.5090909,
                "end_time": 25.6045455,
                "pitch": 74,
                "velocity": 51,
                "duration": 0.0954545,
                "tempo": 120.0
            },
            {
                "start_time": 25.6386364,
                "end_time": 25.7409091,
                "pitch": 67,
                "velocity": 51,
                "duration": 0.1022727,
                "tempo": 120.0
            },
            {
                "start_time": 25.775,
                "end_time": 25.8613636,
                "pitch": 72,
                "velocity": 51,
                "duration": 0.0863636,
                "tempo": 120.0
            },
            {
                "start_time": 25.8954545,
                "end_time": 25.9977273,
                "pitch": 77,
                "velocity": 51,
                "duration": 0.1022727,
                "tempo": 120.0
            },
            {
                "start_time": 26.0318182,
                "end_time": 26.1318182,
                "pitch": 69,
                "velocity": 51,
                "duration": 0.1,
                "tempo": 120.0
            },
            {
                "start_time": 26.1659091,
                "end_time": 26.2659091,
                "pitch": 74,
                "velocity": 51,
                "duration": 0.1,
                "tempo": 120.0
            },
            {
                "start_time": 26.3,
                "end_time": 26.4,
                "pitch": 79,
                "velocity": 51,
                "duration": 0.1,
                "tempo": 120.0
            },
            {
                "start_time": 26.4340909,
                "end_time": 26.5340909,
                "pitch": 78,
                "velocity": 51,
                "duration": 0.1,
                "tempo": 120.0
            },
            {
                "start_time": 26.5681818,
                "end_time": 26.6522727,
                "pitch": 76,
                "velocity": 51,
                "duration": 0.0840909,
                "tempo": 120.0
            },
            {
                "start_time": 26.6863636,
                "end_time": 26.7863636,
                "pitch": 69,
                "velocity": 51,
                "duration": 0.1,
                "tempo": 120.0
            },
            {
                "start_time": 26.8227273,
                "end_time": 26.9204545,
                "pitch": 64,
                "velocity": 64,
                "duration": 0.0977273,
                "tempo": 120.0
            },
            {
                "start_time": 26.9545455,
                "end_time": 27.0545455,
                "pitch": 59,
                "velocity": 64,
                "duration": 0.1,
                "tempo": 120.0
            },
            {
                "start_time": 27.0909091,
                "end_time": 27.1886364,
                "pitch": 62,
                "velocity": 64,
                "duration": 0.0977273,
                "tempo": 120.0
            },
            {
                "start_time": 27.2227273,
                "end_time": 27.3090909,
                "pitch": 57,
                "velocity": 51,
                "duration": 0.0863636,
                "tempo": 120.0
            },
            {
                "start_time": 27.3431818,
                "end_time": 27.4454545,
                "pitch": 62,
                "velocity": 51,
                "duration": 0.1022727,
                "tempo": 120.0
            },
            {
                "start_time": 27.4795455,
                "end_time": 27.5818182,
                "pitch": 59,
                "velocity": 51,
                "duration": 0.1022727,
                "tempo": 120.0
            },
            {
                "start_time": 27.6181818,
                "end_time": 27.7181818,
                "pitch": 64,
                "velocity": 40,
                "duration": 0.1,
                "tempo": 120.0
            },
            {
                "start_time": 27.75,
                "end_time": 27.8522727,
                "pitch": 59,
                "velocity": 40,
                "duration": 0.1022727,
                "tempo": 120.0
            },
            {
                "start_time": 27.8863636,
                "end_time": 27.9863636,
                "pitch": 62,
                "velocity": 40,
                "duration": 0.1,
                "tempo": 120.0
            },
            {
                "start_time": 28.0022727,
                "end_time": 28.1,
                "pitch": 57,
                "velocity": 32,
                "duration": 0.0977273,
                "tempo": 120.0
            },
            {
                "start_time": 28.1340909,
                "end_time": 28.2318182,
                "pitch": 62,
                "velocity": 32,
                "duration": 0.0977273,
                "tempo": 120.0
            },
            {
                "start_time": 28.2659091,
                "end_time": 28.3636364,
                "pitch": 59,
                "velocity": 32,
                "duration": 0.0977273,
                "tempo": 120.0
            },
            {
                "start_time": 28.3977273,
                "end_time": 28.4977273,
                "pitch": 64,
                "velocity": 64,
                "duration": 0.1,
                "tempo": 120.0
            },
            {
                "start_time": 28.5340909,
                "end_time": 28.6363636,
                "pitch": 59,
                "velocity": 64,
                "duration": 0.1022727,
                "tempo": 120.0
            },
            {
                "start_time": 28.6727273,
                "end_time": 28.7568182,
                "pitch": 62,
                "velocity": 64,
                "duration": 0.0840909,
                "tempo": 120.0
            },
            {
                "start_time": 28.7931818,
                "end_time": 28.8886364,
                "pitch": 57,
                "velocity": 51,
                "duration": 0.0954545,
                "tempo": 120.0
            },
            {
                "start_time": 28.9227273,
                "end_time": 29.0204545,
                "pitch": 62,
                "velocity": 51,
                "duration": 0.0977273,
                "tempo": 120.0
            },
            {
                "start_time": 29.0545455,
                "end_time": 29.1522727,
                "pitch": 59,
                "velocity": 51,
                "duration": 0.0977273,
                "tempo": 120.0
            },
            {
                "start_time": 29.1840909,
                "end_time": 29.2863636,
                "pitch": 64,
                "velocity": 40,
                "duration": 0.1022727,
                "tempo": 120.0
            },
            {
                "start_time": 29.3204545,
                "end_time": 29.4227273,
                "pitch": 59,
                "velocity": 40,
                "duration": 0.1022727,
                "tempo": 120.0
            },
            {
                "start_time": 29.4409091,
                "end_time": 29.5431818,
                "pitch": 62,
                "velocity": 40,
                "duration": 0.1022727,
                "tempo": 120.0
            },
            {
                "start_time": 29.5772727,
                "end_time": 29.6772727,
                "pitch": 57,
                "velocity": 32,
                "duration": 0.1,
                "tempo": 120.0
            },
            {
                "start_time": 29.7113636,
                "end_time": 29.8113636,
                "pitch": 62,
                "velocity": 32,
                "duration": 0.1,
                "tempo": 120.0
            },
            {
                "start_time": 29.8454545,
                "end_time": 29.9477273,
                "pitch": 59,
                "velocity": 32,
                "duration": 0.1022727,
                "tempo": 120.0
            },
            {
                "start_time": 29.9818182,
                "end_time": 30.0840909,
                "pitch": 64,
                "velocity": 64,
                "duration": 0.1022727,
                "tempo": 120.0
            },
            {
                "start_time": 30.1181818,
                "end_time": 30.2045455,
                "pitch": 59,
                "velocity": 64,
                "duration": 0.0863636,
                "tempo": 120.0
            },
            {
                "start_time": 30.2409091,
                "end_time": 30.3409091,
                "pitch": 62,
                "velocity": 64,
                "duration": 0.1,
                "tempo": 120.0
            },
            {
                "start_time": 30.3772727,
                "end_time": 30.475,
                "pitch": 57,
                "velocity": 51,
                "duration": 0.0977273,
                "tempo": 120.0
            },
            {
                "start_time": 30.5068182,
                "end_time": 30.6045455,
                "pitch": 62,
                "velocity": 51,
                "duration": 0.0977273,
                "tempo": 120.0
            },
            {
                "start_time": 30.6386364,
                "end_time": 30.7363636,
                "pitch": 59,
                "velocity": 51,
                "duration": 0.0977273,
                "tempo": 120.0
            },
            {
                "start_time": 30.7704545,
                "end_time": 30.8704545,
                "pitch": 64,
                "velocity": 40,
                "duration": 0.1,
                "tempo": 120.0
            },
            {
                "start_time": 30.8886364,
                "end_time": 30.9909091,
                "pitch": 59,
                "velocity": 40,
                "duration": 0.1022727,
                "tempo": 120.0
            },
            {
                "start_time": 31.025,
                "end_time": 31.1272727,
                "pitch": 62,
                "velocity": 40,
                "duration": 0.1022727,
                "tempo": 120.0
            },
            {
                "start_time": 31.1636364,
                "end_time": 31.2636364,
                "pitch": 57,
                "velocity": 32,
                "duration": 0.1,
                "tempo": 120.0
            },
            {
                "start_time": 31.2977273,
                "end_time": 31.3977273,
                "pitch": 62,
                "velocity": 32,
                "duration": 0.1,
                "tempo": 120.0
            },
            {
                "start_time": 31.4318182,
                "end_time": 31.5318182,
                "pitch": 59,
                "velocity": 32,
                "duration": 0.1,
                "tempo": 120.0
            },
            {
                "start_time": 31.5659091,
                "end_time": 31.65,
                "pitch": 64,
                "velocity": 51,
                "duration": 0.0840909,
                "tempo": 120.0
            },
            {
                "start_time": 31.6863636,
                "end_time": 31.7886364,
                "pitch": 69,
                "velocity": 51,
                "duration": 0.1022727,
                "tempo": 120.0
            },
            {
                "start_time": 31.8227273,
                "end_time": 31.925,
                "pitch": 74,
                "velocity": 51,
                "duration": 0.1022727,
                "tempo": 120.0
            },
            {
                "start_time": 31.9590909,
                "end_time": 32.0568182,
                "pitch": 67,
                "velocity": 51,
                "duration": 0.0977273,
                "tempo": 120.0
            },
            {
                "start_time": 32.0909091,
                "end_time": 32.1886364,
                "pitch": 72,
                "velocity": 51,
                "duration": 0.0977273,
                "tempo": 120.0
            },
            {
                "start_time": 32.2204545,
                "end_time": 32.3022727,
                "pitch": 77,
                "velocity": 51,
                "duration": 0.0818182,
                "tempo": 120.0
            },
            {
                "start_time": 32.3363636,
                "end_time": 32.4363636,
                "pitch": 69,
                "velocity": 51,
                "duration": 0.1,
                "tempo": 120.0
            },
            {
                "start_time": 32.4704545,
                "end_time": 32.5704545,
                "pitch": 74,
                "velocity": 51,
                "duration": 0.1,
                "tempo": 120.0
            },
            {
                "start_time": 32.6045455,
                "end_time": 32.7045455,
                "pitch": 78,
                "velocity": 51,
                "duration": 0.1,
                "tempo": 120.0
            },
            {
                "start_time": 32.7386364,
                "end_time": 32.8386364,
                "pitch": 79,
                "velocity": 51,
                "duration": 0.1,
                "tempo": 120.0
            },
            {
                "start_time": 32.8727273,
                "end_time": 32.9727273,
                "pitch": 81,
                "velocity": 51,
                "duration": 0.1,
                "tempo": 120.0
            },
            {
                "start_time": 33.0068182,
                "end_time": 33.0909091,
                "pitch": 83,
                "velocity": 51,
                "duration": 0.0840909,
                "tempo": 120.0
            }
        ],
        "Flute": [
            {
                "start_time": 32.4704545,
                "end_time": 32.5704545,
                "pitch": 62,
                "velocity": 40,
                "duration": 0.1,
                "tempo": 120.0
            },
            {
                "start_time": 32.6045455,
                "end_time": 32.7045455,
                "pitch": 64,
                "velocity": 40,
                "duration": 0.1,
                "tempo": 120.0
            },
            {
                "start_time": 32.7386364,
                "end_time": 32.8386364,
                "pitch": 66,
                "velocity": 40,
                "duration": 0.1,
                "tempo": 120.0
            },
            {
                "start_time": 32.8727273,
                "end_time": 32.9727273,
                "pitch": 67,
                "velocity": 40,
                "duration": 0.1,
                "tempo": 120.0
            },
            {
                "start_time": 33.0068182,
                "end_time": 33.0909091,
                "pitch": 69,
                "velocity": 40,
                "duration": 0.0840909,
                "tempo": 120.0
            },
            {
                "start_time": 33.1272727,
                "end_time": 33.225,
                "pitch": 71,
                "velocity": 40,
                "duration": 0.0977273,
                "tempo": 120.0
            },
            {
                "start_time": 33.2590909,
                "end_time": 33.3590909,
                "pitch": 72,
                "velocity": 40,
                "duration": 0.1,
                "tempo": 120.0
            },
            {
                "start_time": 33.3931818,
                "end_time": 33.4931818,
                "pitch": 71,
                "velocity": 40,
                "duration": 0.1,
                "tempo": 120.0
            },
            {
                "start_time": 33.5272727,
                "end_time": 33.6295455,
                "pitch": 72,
                "velocity": 40,
                "duration": 0.1022727,
                "tempo": 120.0
            },
            {
                "start_time": 33.6636364,
                "end_time": 33.7477273,
                "pitch": 69,
                "velocity": 40,
                "duration": 0.0840909,
                "tempo": 120.0
            },
            {
                "start_time": 33.7840909,
                "end_time": 33.8863636,
                "pitch": 67,
                "velocity": 40,
                "duration": 0.1022727,
                "tempo": 120.0
            },
            {
                "start_time": 33.9204545,
                "end_time": 34.0181818,
                "pitch": 69,
                "velocity": 40,
                "duration": 0.0977273,
                "tempo": 120.0
            },
            {
                "start_time": 34.05,
                "end_time": 34.15,
                "pitch": 66,
                "velocity": 40,
                "duration": 0.1,
                "tempo": 120.0
            },
            {
                "start_time": 34.1818182,
                "end_time": 34.2795455,
                "pitch": 64,
                "velocity": 40,
                "duration": 0.0977273,
                "tempo": 120.0
            },
            {
                "start_time": 34.3136364,
                "end_time": 34.4159091,
                "pitch": 66,
                "velocity": 40,
                "duration": 0.1022727,
                "tempo": 120.0
            },
            {
                "start_time": 34.45,
                "end_time": 34.5363636,
                "pitch": 62,
                "velocity": 40,
                "duration": 0.0863636,
                "tempo": 120.0
            },
            {
                "start_time": 34.5704545,
                "end_time": 34.675,
                "pitch": 60,
                "velocity": 40,
                "duration": 0.1045455,
                "tempo": 120.0
            },
            {
                "start_time": 34.7090909,
                "end_time": 34.8090909,
                "pitch": 62,
                "velocity": 40,
                "duration": 0.1,
                "tempo": 120.0
            },
            {
                "start_time": 34.8431818,
                "end_time": 34.9431818,
                "pitch": 60,
                "velocity": 40,
                "duration": 0.1,
                "tempo": 120.0
            },
            {
                "start_time": 34.9772727,
                "end_time": 35.0772727,
                "pitch": 59,
                "velocity": 40,
                "duration": 0.1,
                "tempo": 120.0
            },
            {
                "start_time": 35.1113636,
                "end_time": 35.1977273,
                "pitch": 60,
                "velocity": 40,
                "duration": 0.0863636,
                "tempo": 120.0
            },
            {
                "start_time": 35.2318182,
                "end_time": 35.3340909,
                "pitch": 62,
                "velocity": 40,
                "duration": 0.1022727,
                "tempo": 120.0
            },
            {
                "start_time": 35.3681818,
                "end_time": 35.4704545,
                "pitch": 64,
                "velocity": 40,
                "duration": 0.1022727,
                "tempo": 120.0
            },
            {
                "start_time": 35.5068182,
                "end_time": 35.6022727,
                "pitch": 66,
                "velocity": 40,
                "duration": 0.0954545,
                "tempo": 120.0
            },
            {
                "start_time": 35.6363636,
                "end_time": 35.7340909,
                "pitch": 64,
                "velocity": 40,
                "duration": 0.0977273,
                "tempo": 120.0
            },
            {
                "start_time": 35.7681818,
                "end_time": 35.8636364,
                "pitch": 66,
                "velocity": 40,
                "duration": 0.0954545,
                "tempo": 120.0
            },
            {
                "start_time": 35.8977273,
                "end_time": 35.9840909,
                "pitch": 67,
                "velocity": 40,
                "duration": 0.0863636,
                "tempo": 120.0
            },
            {
                "start_time": 36.0181818,
                "end_time": 36.1204545,
                "pitch": 66,
                "velocity": 40,
                "duration": 0.1022727,
                "tempo": 120.0
            },
            {
                "start_time": 36.1568182,
                "end_time": 36.2590909,
                "pitch": 67,
                "velocity": 40,
                "duration": 0.1022727,
                "tempo": 120.0
            },
            {
                "start_time": 36.2954545,
                "end_time": 36.3954545,
                "pitch": 69,
                "velocity": 40,
                "duration": 0.1,
                "tempo": 120.0
            },
            {
                "start_time": 36.4295455,
                "end_time": 36.5295455,
                "pitch": 71,
                "velocity": 40,
                "duration": 0.1,
                "tempo": 120.0
            },
            {
                "start_time": 36.5636364,
                "end_time": 36.6454545,
                "pitch": 69,
                "velocity": 40,
                "duration": 0.0818182,
                "tempo": 120.0
            },
            {
                "start_time": 36.6795455,
                "end_time": 36.7772727,
                "pitch": 71,
                "velocity": 40,
                "duration": 0.0977273,
                "tempo": 120.0
            },
            {
                "start_time": 36.8113636,
                "end_time": 36.9090909,
                "pitch": 67,
                "velocity": 40,
                "duration": 0.0977273,
                "tempo": 120.0
            },
            {
                "start_time": 36.9431818,
                "end_time": 37.0409091,
                "pitch": 66,
                "velocity": 40,
                "duration": 0.0977273,
                "tempo": 120.0
            },
            {
                "start_time": 37.0727273,
                "end_time": 37.175,
                "pitch": 67,
                "velocity": 40,
                "duration": 0.1022727,
                "tempo": 120.0
            },
            {
                "start_time": 37.2090909,
                "end_time": 37.3113636,
                "pitch": 64,
                "velocity": 40,
                "duration": 0.1022727,
                "tempo": 120.0
            },
            {
                "start_time": 37.3295455,
                "end_time": 37.4318182,
                "pitch": 62,
                "velocity": 40,
                "duration": 0.1022727,
                "tempo": 120.0
            },
            {
                "start_time": 37.4659091,
                "end_time": 37.5636364,
                "pitch": 64,
                "velocity": 40,
                "duration": 0.0977273,
                "tempo": 120.0
            },
            {
                "start_time": 37.5977273,
                "end_time": 37.6954545,
                "pitch": 62,
                "velocity": 40,
                "duration": 0.0977273,
                "tempo": 120.0
            },
            {
                "start_time": 37.7272727,
                "end_time": 37.825,
                "pitch": 60,
                "velocity": 40,
                "duration": 0.0977273,
                "tempo": 120.0
            },
            {
                "start_time": 37.8590909,
                "end_time": 37.9636364,
                "pitch": 59,
                "velocity": 40,
                "duration": 0.1045455,
                "tempo": 120.0
            },
            {
                "start_time": 38.0,
                "end_time": 38.0863636,
                "pitch": 60,
                "velocity": 40,
                "duration": 0.0863636,
                "tempo": 120.0
            },
            {
                "start_time": 38.1227273,
                "end_time": 38.2272727,
                "pitch": 62,
                "velocity": 40,
                "duration": 0.1045455,
                "tempo": 120.0
            },
            {
                "start_time": 38.2636364,
                "end_time": 38.3613636,
                "pitch": 64,
                "velocity": 40,
                "duration": 0.0977273,
                "tempo": 120.0
            },
            {
                "start_time": 38.3931818,
                "end_time": 38.4909091,
                "pitch": 62,
                "velocity": 40,
                "duration": 0.0977273,
                "tempo": 120.0
            },
            {
                "start_time": 38.525,
                "end_time": 38.6227273,
                "pitch": 64,
                "velocity": 40,
                "duration": 0.0977273,
                "tempo": 120.0
            },
            {
                "start_time": 38.6568182,
                "end_time": 38.7568182,
                "pitch": 66,
                "velocity": 40,
                "duration": 0.1,
                "tempo": 120.0
            },
            {
                "start_time": 38.775,
                "end_time": 38.8772727,
                "pitch": 64,
                "velocity": 40,
                "duration": 0.1022727,
                "tempo": 120.0
            },
            {
                "start_time": 38.9113636,
                "end_time": 39.0136364,
                "pitch": 66,
                "velocity": 40,
                "duration": 0.1022727,
                "tempo": 120.0
            },
            {
                "start_time": 39.0477273,
                "end_time": 39.1454545,
                "pitch": 67,
                "velocity": 40,
                "duration": 0.0977273,
                "tempo": 120.0
            },
            {
                "start_time": 39.1795455,
                "end_time": 39.2772727,
                "pitch": 66,
                "velocity": 40,
                "duration": 0.0977273,
                "tempo": 120.0
            },
            {
                "start_time": 39.3113636,
                "end_time": 39.4090909,
                "pitch": 67,
                "velocity": 40,
                "duration": 0.0977273,
                "tempo": 120.0
            },
            {
                "start_time": 39.4431818,
                "end_time": 39.5272727,
                "pitch": 71,
                "velocity": 40,
                "duration": 0.0840909,
                "tempo": 120.0
            },
            {
                "start_time": 39.5613636,
                "end_time": 39.6636364,
                "pitch": 69,
                "velocity": 40,
                "duration": 0.1022727,
                "tempo": 120.0
            },
            {
                "start_time": 39.6977273,
                "end_time": 39.8,
                "pitch": 67,
                "velocity": 40,
                "duration": 0.1022727,
                "tempo": 120.0
            },
            {
                "start_time": 39.8363636,
                "end_time": 39.9363636,
                "pitch": 69,
                "velocity": 40,
                "duration": 0.1,
                "tempo": 120.0
            },
            {
                "start_time": 39.9704545,
                "end_time": 40.0704545,
                "pitch": 66,
                "velocity": 40,
                "duration": 0.1,
                "tempo": 120.0
            },
            {
                "start_time": 40.1045455,
                "end_time": 40.2045455,
                "pitch": 64,
                "velocity": 40,
                "duration": 0.1,
                "tempo": 120.0
            },
            {
                "start_time": 40.2204545,
                "end_time": 40.3181818,
                "pitch": 66,
                "velocity": 40,
                "duration": 0.0977273,
                "tempo": 120.0
            },
            {
                "start_time": 40.3522727,
                "end_time": 40.45,
                "pitch": 62,
                "velocity": 40,
                "duration": 0.0977273,
                "tempo": 120.0
            },
            {
                "start_time": 40.4840909,
                "end_time": 40.5795455,
                "pitch": 60,
                "velocity": 40,
                "duration": 0.0954545,
                "tempo": 120.0
            },
            {
                "start_time": 40.6136364,
                "end_time": 40.7159091,
                "pitch": 59,
                "velocity": 40,
                "duration": 0.1022727,
                "tempo": 120.0
            },
            {
                "start_time": 40.75,
                "end_time": 40.8522727,
                "pitch": 60,
                "velocity": 40,
                "duration": 0.1022727,
                "tempo": 120.0
            },
            {
                "start_time": 40.8886364,
                "end_time": 40.9727273,
                "pitch": 59,
                "velocity": 40,
                "duration": 0.0840909,
                "tempo": 120.0
            },
            {
                "start_time": 41.0090909,
                "end_time": 41.1068182,
                "pitch": 56,
                "velocity": 40,
                "duration": 0.0977273,
                "tempo": 120.0
            },
            {
                "start_time": 41.1409091,
                "end_time": 41.2409091,
                "pitch": 57,
                "velocity": 40,
                "duration": 0.1,
                "tempo": 120.0
            },
            {
                "start_time": 41.275,
                "end_time": 41.375,
                "pitch": 59,
                "velocity": 40,
                "duration": 0.1,
                "tempo": 120.0
            },
            {
                "start_time": 41.4113636,
                "end_time": 41.5113636,
                "pitch": 60,
                "velocity": 40,
                "duration": 0.1,
                "tempo": 120.0
            },
            {
                "start_time": 41.5477273,
                "end_time": 41.6318182,
                "pitch": 59,
                "velocity": 40,
                "duration": 0.0840909,
                "tempo": 120.0
            },
            {
                "start_time": 41.6659091,
                "end_time": 41.7681818,
                "pitch": 60,
                "velocity": 40,
                "duration": 0.1022727,
                "tempo": 120.0
            },
            {
                "start_time": 41.8045455,
                "end_time": 41.9022727,
                "pitch": 62,
                "velocity": 40,
                "duration": 0.0977273,
                "tempo": 120.0
            },
            {
                "start_time": 41.9340909,
                "end_time": 42.0318182,
                "pitch": 60,
                "velocity": 40,
                "duration": 0.0977273,
                "tempo": 120.0
            },
            {
                "start_time": 42.0659091,
                "end_time": 42.1636364,
                "pitch": 62,
                "velocity": 40,
                "duration": 0.0977273,
                "tempo": 120.0
            },
            {
                "start_time": 42.1954545,
                "end_time": 42.2977273,
                "pitch": 64,
                "velocity": 40,
                "duration": 0.1022727,
                "tempo": 120.0
            },
            {
                "start_time": 42.3318182,
                "end_time": 42.4181818,
                "pitch": 66,
                "velocity": 40,
                "duration": 0.0863636,
                "tempo": 120.0
            },
            {
                "start_time": 42.4522727,
                "end_time": 42.5545455,
                "pitch": 67,
                "velocity": 40,
                "duration": 0.1022727,
                "tempo": 120.0
            },
            {
                "start_time": 42.5909091,
                "end_time": 42.6909091,
                "pitch": 69,
                "velocity": 40,
                "duration": 0.1,
                "tempo": 120.0
            },
            {
                "start_time": 42.725,
                "end_time": 42.825,
                "pitch": 71,
                "velocity": 40,
                "duration": 0.1,
                "tempo": 120.0
            },
            {
                "start_time": 42.8590909,
                "end_time": 42.9590909,
                "pitch": 69,
                "velocity": 40,
                "duration": 0.1,
                "tempo": 120.0
            },
            {
                "start_time": 42.9931818,
                "end_time": 43.0772727,
                "pitch": 71,
                "velocity": 40,
                "duration": 0.0840909,
                "tempo": 120.0
            },
            {
                "start_time": 43.1136364,
                "end_time": 43.2136364,
                "pitch": 72,
                "velocity": 40,
                "duration": 0.1,
                "tempo": 120.0
            },
            {
                "start_time": 43.25,
                "end_time": 43.3522727,
                "pitch": 71,
                "velocity": 40,
                "duration": 0.1022727,
                "tempo": 120.0
            },
            {
                "start_time": 43.3863636,
                "end_time": 43.4840909,
                "pitch": 72,
                "velocity": 40,
                "duration": 0.0977273,
                "tempo": 120.0
            },
            {
                "start_time": 43.5159091,
                "end_time": 43.6136364,
                "pitch": 74,
                "velocity": 40,
                "duration": 0.0977273,
                "tempo": 120.0
            },
            {
                "start_time": 43.6477273,
                "end_time": 43.7454545,
                "pitch": 72,
                "velocity": 40,
                "duration": 0.0977273,
                "tempo": 120.0
            },
            {
                "start_time": 43.7795455,
                "end_time": 43.8636364,
                "pitch": 74,
                "velocity": 40,
                "duration": 0.0840909,
                "tempo": 120.0
            },
            {
                "start_time": 43.8977273,
                "end_time": 44.0,
                "pitch": 76,
                "velocity": 40,
                "duration": 0.1022727,
                "tempo": 120.0
            },
            {
                "start_time": 44.0363636,
                "end_time": 44.1386364,
                "pitch": 74,
                "velocity": 40,
                "duration": 0.1022727,
                "tempo": 120.0
            },
            {
                "start_time": 44.1727273,
                "end_time": 44.2704545,
                "pitch": 72,
                "velocity": 40,
                "duration": 0.0977273,
                "tempo": 120.0
            },
            {
                "start_time": 44.3022727,
                "end_time": 44.4,
                "pitch": 74,
                "velocity": 40,
                "duration": 0.0977273,
                "tempo": 120.0
            },
            {
                "start_time": 44.4340909,
                "end_time": 44.5159091,
                "pitch": 72,
                "velocity": 40,
                "duration": 0.0818182,
                "tempo": 120.0
            },
            {
                "start_time": 44.5477273,
                "end_time": 44.6477273,
                "pitch": 71,
                "velocity": 40,
                "duration": 0.1,
                "tempo": 120.0
            },
            {
                "start_time": 44.6818182,
                "end_time": 44.7818182,
                "pitch": 72,
                "velocity": 40,
                "duration": 0.1,
                "tempo": 120.0
            },
            {
                "start_time": 44.8159091,
                "end_time": 44.9159091,
                "pitch": 71,
                "velocity": 40,
                "duration": 0.1,
                "tempo": 120.0
            },
            {
                "start_time": 45.8772727,
                "end_time": 45.9613636,
                "pitch": 72,
                "velocity": 40,
                "duration": 0.0840909,
                "tempo": 120.0
            },
            {
                "start_time": 45.9954545,
                "end_time": 46.0977273,
                "pitch": 71,
                "velocity": 40,
                "duration": 0.1022727,
                "tempo": 120.0
            },
            {
                "start_time": 46.1340909,
                "end_time": 46.2340909,
                "pitch": 72,
                "velocity": 40,
                "duration": 0.1,
                "tempo": 120.0
            },
            {
                "start_time": 46.2681818,
                "end_time": 46.3681818,
                "pitch": 69,
                "velocity": 40,
                "duration": 0.1,
                "tempo": 120.0
            },
            {
                "start_time": 46.4022727,
                "end_time": 46.5022727,
                "pitch": 67,
                "velocity": 40,
                "duration": 0.1,
                "tempo": 120.0
            },
            {
                "start_time": 46.5363636,
                "end_time": 46.6363636,
                "pitch": 69,
                "velocity": 40,
                "duration": 0.1,
                "tempo": 120.0
            },
            {
                "start_time": 46.6522727,
                "end_time": 46.7545455,
                "pitch": 66,
                "velocity": 40,
                "duration": 0.1022727,
                "tempo": 120.0
            },
            {
                "start_time": 46.7886364,
                "end_time": 46.8886364,
                "pitch": 64,
                "velocity": 40,
                "duration": 0.1,
                "tempo": 120.0
            },
            {
                "start_time": 46.9227273,
                "end_time": 47.0227273,
                "pitch": 66,
                "velocity": 40,
                "duration": 0.1,
                "tempo": 120.0
            },
            {
                "start_time": 47.0568182,
                "end_time": 47.1568182,
                "pitch": 62,
                "velocity": 40,
                "duration": 0.1,
                "tempo": 120.0
            },
            {
                "start_time": 47.1909091,
                "end_time": 47.2909091,
                "pitch": 60,
                "velocity": 40,
                "duration": 0.1,
                "tempo": 120.0
            },
            {
                "start_time": 47.325,
                "end_time": 47.4090909,
                "pitch": 62,
                "velocity": 40,
                "duration": 0.0840909,
                "tempo": 120.0
            },
            {
                "start_time": 47.4454545,
                "end_time": 47.5454545,
                "pitch": 60,
                "velocity": 40,
                "duration": 0.1,
                "tempo": 120.0
            },
            {
                "start_time": 47.5818182,
                "end_time": 47.6840909,
                "pitch": 59,
                "velocity": 40,
                "duration": 0.1022727,
                "tempo": 120.0
            },
            {
                "start_time": 47.7181818,
                "end_time": 47.8159091,
                "pitch": 60,
                "velocity": 40,
                "duration": 0.0977273,
                "tempo": 120.0
            },
            {
                "start_time": 47.85,
                "end_time": 47.9477273,
                "pitch": 62,
                "velocity": 40,
                "duration": 0.0977273,
                "tempo": 120.0
            },
            {
                "start_time": 47.9795455,
                "end_time": 48.0772727,
                "pitch": 64,
                "velocity": 40,
                "duration": 0.0977273,
                "tempo": 120.0
            },
            {
                "start_time": 48.0954545,
                "end_time": 48.1931818,
                "pitch": 66,
                "velocity": 40,
                "duration": 0.0977273,
                "tempo": 120.0
            },
            {
                "start_time": 48.2272727,
                "end_time": 48.3295455,
                "pitch": 64,
                "velocity": 40,
                "duration": 0.1022727,
                "tempo": 120.0
            },
            {
                "start_time": 48.3636364,
                "end_time": 48.4636364,
                "pitch": 66,
                "velocity": 40,
                "duration": 0.1,
                "tempo": 120.0
            },
            {
                "start_time": 48.4954545,
                "end_time": 48.5977273,
                "pitch": 67,
                "velocity": 40,
                "duration": 0.1022727,
                "tempo": 120.0
            },
            {
                "start_time": 48.6340909,
                "end_time": 48.7363636,
                "pitch": 66,
                "velocity": 40,
                "duration": 0.1022727,
                "tempo": 120.0
            },
            {
                "start_time": 48.7704545,
                "end_time": 48.8568182,
                "pitch": 67,
                "velocity": 40,
                "duration": 0.0863636,
                "tempo": 120.0
            },
            {
                "start_time": 48.8909091,
                "end_time": 48.9909091,
                "pitch": 69,
                "velocity": 40,
                "duration": 0.1,
                "tempo": 120.0
            },
            {
                "start_time": 49.025,
                "end_time": 49.125,
                "pitch": 71,
                "velocity": 40,
                "duration": 0.1,
                "tempo": 120.0
            },
            {
                "start_time": 49.1590909,
                "end_time": 49.2590909,
                "pitch": 69,
                "velocity": 40,
                "duration": 0.1,
                "tempo": 120.0
            },
            {
                "start_time": 49.2931818,
                "end_time": 49.3931818,
                "pitch": 71,
                "velocity": 40,
                "duration": 0.1,
                "tempo": 120.0
            },
            {
                "start_time": 49.4272727,
                "end_time": 49.5113636,
                "pitch": 67,
                "velocity": 40,
                "duration": 0.0840909,
                "tempo": 120.0
            },
            {
                "start_time": 49.5454545,
                "end_time": 49.6454545,
                "pitch": 66,
                "velocity": 40,
                "duration": 0.1,
                "tempo": 120.0
            },
            {
                "start_time": 49.6795455,
                "end_time": 49.7795455,
                "pitch": 67,
                "velocity": 40,
                "duration": 0.1,
                "tempo": 120.0
            },
            {
                "start_time": 49.8136364,
                "end_time": 49.9136364,
                "pitch": 64,
                "velocity": 40,
                "duration": 0.1,
                "tempo": 120.0
            },
            {
                "start_time": 49.9477273,
                "end_time": 50.0477273,
                "pitch": 62,
                "velocity": 40,
                "duration": 0.1,
                "tempo": 120.0
            },
            {
                "start_time": 50.0818182,
                "end_time": 50.1840909,
                "pitch": 64,
                "velocity": 40,
                "duration": 0.1022727,
                "tempo": 120.0
            },
            {
                "start_time": 50.2181818,
                "end_time": 50.3045455,
                "pitch": 62,
                "velocity": 40,
                "duration": 0.0863636,
                "tempo": 120.0
            },
            {
                "start_time": 50.3386364,
                "end_time": 50.4409091,
                "pitch": 60,
                "velocity": 40,
                "duration": 0.1022727,
                "tempo": 120.0
            },
            {
                "start_time": 50.4772727,
                "end_time": 50.5727273,
                "pitch": 59,
                "velocity": 40,
                "duration": 0.0954545,
                "tempo": 120.0
            },
            {
                "start_time": 50.6068182,
                "end_time": 50.7045455,
                "pitch": 60,
                "velocity": 40,
                "duration": 0.0977273,
                "tempo": 120.0
            },
            {
                "start_time": 50.7363636,
                "end_time": 50.8340909,
                "pitch": 62,
                "velocity": 40,
                "duration": 0.0977273,
                "tempo": 120.0
            },
            {
                "start_time": 50.8681818,
                "end_time": 50.9522727,
                "pitch": 64,
                "velocity": 40,
                "duration": 0.0840909,
                "tempo": 120.0
            },
            {
                "start_time": 50.9886364,
                "end_time": 51.0909091,
                "pitch": 62,
                "velocity": 40,
                "duration": 0.1022727,
                "tempo": 120.0
            },
            {
                "start_time": 51.125,
                "end_time": 51.2272727,
                "pitch": 64,
                "velocity": 40,
                "duration": 0.1022727,
                "tempo": 120.0
            },
            {
                "start_time": 51.2613636,
                "end_time": 51.3613636,
                "pitch": 66,
                "velocity": 40,
                "duration": 0.1,
                "tempo": 120.0
            },
            {
                "start_time": 51.3954545,
                "end_time": 51.4954545,
                "pitch": 64,
                "velocity": 40,
                "duration": 0.1,
                "tempo": 120.0
            },
            {
                "start_time": 51.5295455,
                "end_time": 51.6295455,
                "pitch": 66,
                "velocity": 40,
                "duration": 0.1,
                "tempo": 120.0
            },
            {
                "start_time": 51.6636364,
                "end_time": 51.7477273,
                "pitch": 67,
                "velocity": 40,
                "duration": 0.0840909,
                "tempo": 120.0
            },
            {
                "start_time": 51.7818182,
                "end_time": 51.8818182,
                "pitch": 66,
                "velocity": 40,
                "duration": 0.1,
                "tempo": 120.0
            },
            {
                "start_time": 51.9159091,
                "end_time": 52.0159091,
                "pitch": 67,
                "velocity": 40,
                "duration": 0.1,
                "tempo": 120.0
            },
            {
                "start_time": 52.0522727,
                "end_time": 52.15,
                "pitch": 71,
                "velocity": 40,
                "duration": 0.0977273,
                "tempo": 120.0
            },
            {
                "start_time": 52.1840909,
                "end_time": 52.2840909,
                "pitch": 69,
                "velocity": 40,
                "duration": 0.1,
                "tempo": 120.0
            },
            {
                "start_time": 52.3181818,
                "end_time": 52.4022727,
                "pitch": 67,
                "velocity": 40,
                "duration": 0.0840909,
                "tempo": 120.0
            },
            {
                "start_time": 52.4363636,
                "end_time": 52.5363636,
                "pitch": 69,
                "velocity": 40,
                "duration": 0.1,
                "tempo": 120.0
            },
            {
                "start_time": 52.5704545,
                "end_time": 52.6704545,
                "pitch": 66,
                "velocity": 40,
                "duration": 0.1,
                "tempo": 120.0
            },
            {
                "start_time": 52.7045455,
                "end_time": 52.8045455,
                "pitch": 64,
                "velocity": 40,
                "duration": 0.1,
                "tempo": 120.0
            },
            {
                "start_time": 52.8386364,
                "end_time": 52.9386364,
                "pitch": 66,
                "velocity": 40,
                "duration": 0.1,
                "tempo": 120.0
            },
            {
                "start_time": 52.9727273,
                "end_time": 53.0727273,
                "pitch": 62,
                "velocity": 40,
                "duration": 0.1,
                "tempo": 120.0
            },
            {
                "start_time": 53.1068182,
                "end_time": 53.1909091,
                "pitch": 60,
                "velocity": 40,
                "duration": 0.0840909,
                "tempo": 120.0
            },
            {
                "start_time": 53.225,
                "end_time": 53.325,
                "pitch": 59,
                "velocity": 40,
                "duration": 0.1,
                "tempo": 120.0
            },
            {
                "start_time": 53.3590909,
                "end_time": 53.4590909,
                "pitch": 60,
                "velocity": 40,
                "duration": 0.1,
                "tempo": 120.0
            },
            {
                "start_time": 53.4931818,
                "end_time": 53.5931818,
                "pitch": 59,
                "velocity": 40,
                "duration": 0.1,
                "tempo": 120.0
            },
            {
                "start_time": 53.6295455,
                "end_time": 53.7295455,
                "pitch": 56,
                "velocity": 40,
                "duration": 0.1,
                "tempo": 120.0
            },
            {
                "start_time": 53.7636364,
                "end_time": 53.85,
                "pitch": 57,
                "velocity": 40,
                "duration": 0.0863636,
                "tempo": 120.0
            },
            {
                "start_time": 53.8840909,
                "end_time": 53.9863636,
                "pitch": 59,
                "velocity": 40,
                "duration": 0.1022727,
                "tempo": 120.0
            },
            {
                "start_time": 54.0204545,
                "end_time": 54.1181818,
                "pitch": 60,
                "velocity": 40,
                "duration": 0.0977273,
                "tempo": 120.0
            },
            {
                "start_time": 54.1522727,
                "end_time": 54.25,
                "pitch": 59,
                "velocity": 40,
                "duration": 0.0977273,
                "tempo": 120.0
            },
            {
                "start_time": 54.2840909,
                "end_time": 54.3795455,
                "pitch": 60,
                "velocity": 40,
                "duration": 0.0954545,
                "tempo": 120.0
            },
            {
                "start_time": 54.4136364,
                "end_time": 54.5159091,
                "pitch": 62,
                "velocity": 40,
                "duration": 0.1022727,
                "tempo": 120.0
            },
            {
                "start_time": 54.5340909,
                "end_time": 54.6363636,
                "pitch": 60,
                "velocity": 40,
                "duration": 0.1022727,
                "tempo": 120.0
            },
            {
                "start_time": 54.6727273,
                "end_time": 54.775,
                "pitch": 62,
                "velocity": 40,
                "duration": 0.1022727,
                "tempo": 120.0
            },
            {
                "start_time": 54.8090909,
                "end_time": 54.9068182,
                "pitch": 64,
                "velocity": 40,
                "duration": 0.0977273,
                "tempo": 120.0
            },
            {
                "start_time": 54.9409091,
                "end_time": 55.0386364,
                "pitch": 66,
                "velocity": 40,
                "duration": 0.0977273,
                "tempo": 120.0
            },
            {
                "start_time": 55.0727273,
                "end_time": 55.1704545,
                "pitch": 67,
                "velocity": 40,
                "duration": 0.0977273,
                "tempo": 120.0
            },
            {
                "start_time": 55.2045455,
                "end_time": 55.2886364,
                "pitch": 69,
                "velocity": 40,
                "duration": 0.0840909,
                "tempo": 120.0
            },
            {
                "start_time": 55.325,
                "end_time": 55.4295455,
                "pitch": 64,
                "velocity": 40,
                "duration": 0.1045455,
                "tempo": 120.0
            },
            {
                "start_time": 55.4659091,
                "end_time": 55.5704545,
                "pitch": 69,
                "velocity": 40,
                "duration": 0.1045455,
                "tempo": 120.0
            },
            {
                "start_time": 55.6068182,
                "end_time": 55.7045455,
                "pitch": 67,
                "velocity": 40,
                "duration": 0.0977273,
                "tempo": 120.0
            },
            {
                "start_time": 55.7386364,
                "end_time": 55.8340909,
                "pitch": 64,
                "velocity": 32,
                "duration": 0.0954545,
                "tempo": 120.0
            },
            {
                "start_time": 55.8681818,
                "end_time": 55.9659091,
                "pitch": 66,
                "velocity": 32,
                "duration": 0.0977273,
                "tempo": 120.0
            },
            {
                "start_time": 55.9818182,
                "end_time": 56.0795455,
                "pitch": 62,
                "velocity": 32,
                "duration": 0.0977273,
                "tempo": 120.0
            },
            {
                "start_time": 56.1136364,
                "end_time": 56.2113636,
                "pitch": 64,
                "velocity": 40,
                "duration": 0.0977273,
                "tempo": 120.0
            },
            {
                "start_time": 56.2431818,
                "end_time": 56.3409091,
                "pitch": 69,
                "velocity": 40,
                "duration": 0.0977273,
                "tempo": 120.0
            },
            {
                "start_time": 56.375,
                "end_time": 56.4772727,
                "pitch": 67,
                "velocity": 40,
                "duration": 0.1022727,
                "tempo": 120.0
            },
            {
                "start_time": 56.5113636,
                "end_time": 56.6136364,
                "pitch": 64,
                "velocity": 32,
                "duration": 0.1022727,
                "tempo": 120.0
            },
            {
                "start_time": 56.65,
                "end_time": 56.7340909,
                "pitch": 66,
                "velocity": 32,
                "duration": 0.0840909,
                "tempo": 120.0
            },
            {
                "start_time": 56.7681818,
                "end_time": 56.8681818,
                "pitch": 67,
                "velocity": 32,
                "duration": 0.1,
                "tempo": 120.0
            },
            {
                "start_time": 56.9045455,
                "end_time": 57.0022727,
                "pitch": 64,
                "velocity": 40,
                "duration": 0.0977273,
                "tempo": 120.0
            },
            {
                "start_time": 57.0363636,
                "end_time": 57.1363636,
                "pitch": 69,
                "velocity": 40,
                "duration": 0.1,
                "tempo": 120.0
            },
            {
                "start_time": 57.1727273,
                "end_time": 57.2727273,
                "pitch": 67,
                "velocity": 40,
                "duration": 0.1,
                "tempo": 120.0
            },
            {
                "start_time": 57.3090909,
                "end_time": 57.4113636,
                "pitch": 64,
                "velocity": 32,
                "duration": 0.1022727,
                "tempo": 120.0
            },
            {
                "start_time": 57.4272727,
                "end_time": 57.5295455,
                "pitch": 66,
                "velocity": 32,
                "duration": 0.1022727,
                "tempo": 120.0
            },
            {
                "start_time": 57.5681818,
                "end_time": 57.6659091,
                "pitch": 62,
                "velocity": 32,
                "duration": 0.0977273,
                "tempo": 120.0
            },
            {
                "start_time": 57.7,
                "end_time": 57.8,
                "pitch": 64,
                "velocity": 40,
                "duration": 0.1,
                "tempo": 120.0
            },
            {
                "start_time": 57.8340909,
                "end_time": 57.9340909,
                "pitch": 69,
                "velocity": 40,
                "duration": 0.1,
                "tempo": 120.0
            },
            {
                "start_time": 57.9681818,
                "end_time": 58.0681818,
                "pitch": 67,
                "velocity": 40,
                "duration": 0.1,
                "tempo": 120.0
            },
            {
                "start_time": 58.1022727,
                "end_time": 58.1863636,
                "pitch": 64,
                "velocity": 32,
                "duration": 0.0840909,
                "tempo": 120.0
            },
            {
                "start_time": 58.2204545,
                "end_time": 58.3204545,
                "pitch": 66,
                "velocity": 32,
                "duration": 0.1,
                "tempo": 120.0
            },
            {
                "start_time": 58.3568182,
                "end_time": 58.4545455,
                "pitch": 67,
                "velocity": 32,
                "duration": 0.0977273,
                "tempo": 120.0
            }
        ]
    }
}