{
    "mood": "happy",
    "instruments": {
        "Acoustic Grand Piano": [
            {
                "start_time": 0.025,
                "end_time": 0.1727273,
                "pitch": 33,
                "velocity": 101,
                "duration": 0.1477273,
                "tempo": 120.0
            },
            {
                "start_time": 0.3431818,
                "end_time": 0.5,
                "pitch": 38,
                "velocity": 101,
                "duration": 0.1568182,
                "tempo": 120.0
            },
            {
                "start_time": 0.6681818,
                "end_time": 0.775,
                "pitch": 26,
                "velocity": 101,
                "duration": 0.1068182,
                "tempo": 120.0
            },
            {
                "start_time": 0.8886364,
                "end_time": 1.0409091,
                "pitch": 26,
                "velocity": 101,
                "duration": 0.1522727,
                "tempo": 120.0
            },
            {
                "start_time": 1.2227273,
                "end_time": 1.3863636,
                "pitch": 33,
                "velocity": 101,
                "duration": 0.1636364,
                "tempo": 120.0
            },
            {
                "start_time": 1.55,
                "end_time": 1.6522727,
                "pitch": 45,
                "velocity": 101,
                "duration": 0.1022727,
                "tempo": 120.0
            },
            {
                "start_time": 1.7590909,
                "end_time": 1.8636364,
                "pitch": 28,
                "velocity": 101,
                "duration": 0.1045455,
                "tempo": 120.0
            },
            {
                "start_time": 1.9704545,
                "end_time": 2.0818182,
                "pitch": 28,
                "velocity": 101,
                "duration": 0.1113636,
                "tempo": 120.0
            },
            {
                "start_time": 2.1863636,
                "end_time": 2.2318182,
                "pitch": 38,
                "velocity": 101,
                "duration": 0.0454545,
                "tempo": 120.0
            },
            {
                "start_time": 2.2818182,
                "end_time": 2.3272727,
                "pitch": 40,
                "velocity": 101,
                "duration": 0.0454545,
                "tempo": 120.0
            },
            {
                "start_time": 2.3772727,
                "end_time": 2.4727273,
                "pitch": 40,
                "velocity": 4,
                "duration": 0.0954545,
                "tempo": 120.0
            },
            {
                "start_time": 2.4727273,
                "end_time": 2.5181818,
                "pitch": 35,
                "velocity": 4,
                "duration": 0.0454545,
                "tempo": 120.0
            },
            {
                "start_time": 2.4727273,
                "end_time": 2.5181818,
                "pitch": 35,
                "velocity": 101,
                "duration": 0.0454545,
                "tempo": 120.0
            },
            {
                "start_time": 2.5727273,
                "end_time": 2.6181818,
                "pitch": 38,
                "velocity": 101,
                "duration": 0.0454545,
                "tempo": 120.0
            },
            {
                "start_time": 2.675,
                "end_time": 2.7227273,
                "pitch": 38,
                "velocity": 101,
                "duration": 0.0477273,
                "tempo": 120.0
            },
            {
                "start_time": 2.7795455,
                "end_time": 2.8295455,
                "pitch": 35,
                "velocity": 101,
                "duration": 0.05,
                "tempo": 120.0
            },
            {
                "start_time": 2.8931818,
                "end_time": 2.9340909,
                "pitch": 35,
                "velocity": 101,
                "duration": 0.0409091,
                "tempo": 120.0
            },
            {
                "start_time": 2.9909091,
                "end_time": 3.0340909,
                "pitch": 38,
                "velocity": 101,
                "duration": 0.0431818,
                "tempo": 120.0
            },
            {
                "start_time": 3.0863636,
                "end_time": 3.1295455,
                "pitch": 40,
                "velocity": 101,
                "duration": 0.0431818,
                "tempo": 120.0
            },
            {
                "start_time": 3.1863636,
                "end_time": 3.2772727,
                "pitch": 40,
                "velocity": 4,
                "duration": 0.0909091,
                "tempo": 120.0
            },
            {
                "start_time": 3.2772727,
                "end_time": 3.3204545,
                "pitch": 40,
                "velocity": 101,
                "duration": 0.0431818,
                "tempo": 120.0
            },
            {
                "start_time": 3.3727273,
                "end_time": 3.4772727,
                "pitch": 28,
                "velocity": 101,
                "duration": 0.1045455,
                "tempo": 120.0
            },
            {
                "start_time": 3.5795455,
                "end_time": 3.6795455,
                "pitch": 28,
                "velocity": 101,
                "duration": 0.1,
                "tempo": 120.0
            },
            {
                "start_time": 3.7863636,
                "end_time": 3.8318182,
                "pitch": 38,
                "velocity": 101,
                "duration": 0.0454545,
                "tempo": 120.0
            },
            {
                "start_time": 3.8863636,
                "end_time": 3.9318182,
                "pitch": 40,
                "velocity": 101,
                "duration": 0.0454545,
                "tempo": 120.0
            },
            {
                "start_time": 3.9863636,
                "end_time": 4.0863636,
                "pitch": 40,
                "velocity": 4,
                "duration": 0.1,
                "tempo": 120.0
            },
            {
                "start_time": 4.0863636,
                "end_time": 4.1318182,
                "pitch": 40,
                "velocity": 101,
                "duration": 0.0454545,
                "tempo": 120.0
            },
            {
                "start_time": 4.1886364,
                "end_time": 4.2318182,
                "pitch": 38,
                "velocity": 101,
                "duration": 0.0431818,
                "tempo": 120.0
            },
            {
                "start_time": 4.2909091,
                "end_time": 4.3363636,
                "pitch": 40,
                "velocity": 101,
                "duration": 0.0454545,
                "tempo": 120.0
            },
            {
                "start_time": 4.3931818,
                "end_time": 4.4386364,
                "pitch": 33,
                "velocity": 101,
                "duration": 0.0454545,
                "tempo": 120.0
            },
            {
                "start_time": 4.5,
                "end_time": 4.5409091,
                "pitch": 35,
                "velocity": 101,
                "duration": 0.0409091,
                "tempo": 120.0
            },
            {
                "start_time": 4.5954545,
                "end_time": 4.6409091,
                "pitch": 38,
                "velocity": 101,
                "duration": 0.0454545,
                "tempo": 120.0
            },
            {
                "start_time": 4.6931818,
                "end_time": 4.7409091,
                "pitch": 40,
                "velocity": 101,
                "duration": 0.0477273,
                "tempo": 120.0
            },
            {
                "start_time": 4.7977273,
                "end_time": 4.8909091,
                "pitch": 40,
                "velocity": 4,
                "duration": 0.0931818,
                "tempo": 120.0
            },
            {
                "start_time": 4.8909091,
                "end_time": 4.9363636,
                "pitch": 40,
                "velocity": 101,
                "duration": 0.0454545,
                "tempo": 120.0
            },
            {
                "start_time": 4.9909091,
                "end_time": 5.0886364,
                "pitch": 26,
                "velocity": 101,
                "duration": 0.0977273,
                "tempo": 120.0
            },
            {
                "start_time": 5.1886364,
                "end_time": 5.2931818,
                "pitch": 26,
                "velocity": 101,
                "duration": 0.1045455,
                "tempo": 120.0
            },
            {
                "start_time": 5.3909091,
                "end_time": 5.4363636,
                "pitch": 37,
                "velocity": 101,
                "duration": 0.0454545,
                "tempo": 120.0
            },
            {
                "start_time": 5.4909091,
                "end_time": 5.5363636,
                "pitch": 38,
                "velocity": 101,
                "duration": 0.0454545,
                "tempo": 120.0
            },
            {
                "start_time": 5.5977273,
                "end_time": 5.6386364,
                "pitch": 33,
                "velocity": 101,
                "duration": 0.0409091,
                "tempo": 120.0
            },
            {
                "start_time": 5.6909091,
                "end_time": 5.7386364,
                "pitch": 33,
                "velocity": 101,
                "duration": 0.0477273,
                "tempo": 120.0
            },
            {
                "start_time": 5.7931818,
                "end_time": 5.8409091,
                "pitch": 37,
                "velocity": 101,
                "duration": 0.0477273,
                "tempo": 120.0
            },
            {
                "start_time": 5.9022727,
                "end_time": 5.9477273,
                "pitch": 37,
                "velocity": 101,
                "duration": 0.0454545,
                "tempo": 120.0
            },
            {
                "start_time": 6.0045455,
                "end_time": 6.0522727,
                "pitch": 33,
                "velocity": 101,
                "duration": 0.0477273,
                "tempo": 120.0
            },
            {
                "start_time": 6.1113636,
                "end_time": 6.1590909,
                "pitch": 33,
                "velocity": 101,
                "duration": 0.0477273,
                "tempo": 120.0
            },
            {
                "start_time": 6.2136364,
                "end_time": 6.2590909,
                "pitch": 37,
                "velocity": 101,
                "duration": 0.0454545,
                "tempo": 120.0
            },
            {
                "start_time": 6.3090909,
                "end_time": 6.3545455,
                "pitch": 38,
                "velocity": 101,
                "duration": 0.0454545,
                "tempo": 120.0
            },
            {
                "start_time": 6.4045455,
                "end_time": 6.5022727,
                "pitch": 38,
                "velocity": 4,
                "duration": 0.0977273,
                "tempo": 120.0
            },
            {
                "start_time": 6.5022727,
                "end_time": 6.5454545,
                "pitch": 35,
                "velocity": 4,
                "duration": 0.0431818,
                "tempo": 120.0
            },
            {
                "start_time": 6.5022727,
                "end_time": 6.5454545,
                "pitch": 35,
                "velocity": 101,
                "duration": 0.0431818,
                "tempo": 120.0
            },
            {
                "start_time": 6.5977273,
                "end_time": 6.6954545,
                "pitch": 26,
                "velocity": 101,
                "duration": 0.0977273,
                "tempo": 120.0
            },
            {
                "start_time": 6.7977273,
                "end_time": 6.8977273,
                "pitch": 26,
                "velocity": 101,
                "duration": 0.1,
                "tempo": 120.0
            },
            {
                "start_time": 7.0022727,
                "end_time": 7.0477273,
                "pitch": 37,
                "velocity": 101,
                "duration": 0.0454545,
                "tempo": 120.0
            },
            {
                "start_time": 7.1022727,
                "end_time": 7.1477273,
                "pitch": 38,
                "velocity": 101,
                "duration": 0.0454545,
                "tempo": 120.0
            },
            {
                "start_time": 7.2,
                "end_time": 7.3,
                "pitch": 38,
                "velocity": 4,
                "duration": 0.1,
                "tempo": 120.0
            },
            {
                "start_time": 7.3,
                "end_time": 7.3477273,
                "pitch": 33,
                "velocity": 4,
                "duration": 0.0477273,
                "tempo": 120.0
            },
            {
                "start_time": 7.3,
                "end_time": 7.3477273,
                "pitch": 33,
                "velocity": 101,
                "duration": 0.0477273,
                "tempo": 120.0
            },
            {
                "start_time": 7.4045455,
                "end_time": 7.45,
                "pitch": 37,
                "velocity": 101,
                "duration": 0.0454545,
                "tempo": 120.0
            },
            {
                "start_time": 7.5068182,
                "end_time": 7.5522727,
                "pitch": 37,
                "velocity": 101,
                "duration": 0.0454545,
                "tempo": 120.0
            },
            {
                "start_time": 7.6090909,
                "end_time": 7.6545455,
                "pitch": 33,
                "velocity": 101,
                "duration": 0.0454545,
                "tempo": 120.0
            },
            {
                "start_time": 7.7136364,
                "end_time": 7.7568182,
                "pitch": 33,
                "velocity": 101,
                "duration": 0.0431818,
                "tempo": 120.0
            },
            {
                "start_time": 7.8159091,
                "end_time": 7.8590909,
                "pitch": 37,
                "velocity": 101,
                "duration": 0.0431818,
                "tempo": 120.0
            },
            {
                "start_time": 7.9136364,
                "end_time": 7.9568182,
                "pitch": 38,
                "velocity": 101,
                "duration": 0.0431818,
                "tempo": 120.0
            },
            {
                "start_time": 8.0136364,
                "end_time": 8.0545455,
                "pitch": 26,
                "velocity": 101,
                "duration": 0.0409091,
                "tempo": 120.0
            },
            {
                "start_time": 8.1113636,
                "end_time": 8.1522727,
                "pitch": 27,
                "velocity": 101,
                "duration": 0.0409091,
                "tempo": 120.0
            },
            {
                "start_time": 8.2090909,
                "end_time": 8.2522727,
                "pitch": 28,
                "velocity": 101,
                "duration": 0.0431818,
                "tempo": 120.0
            },
            {
                "start_time": 8.3090909,
                "end_time": 8.3568182,
                "pitch": 28,
                "velocity": 101,
                "duration": 0.0477273,
                "tempo": 120.0
            },
            {
                "start_time": 8.4113636,
                "end_time": 8.4590909,
                "pitch": 40,
                "velocity": 101,
                "duration": 0.0477273,
                "tempo": 120.0
            },
            {
                "start_time": 8.5159091,
                "end_time": 8.5613636,
                "pitch": 28,
                "velocity": 101,
                "duration": 0.0454545,
                "tempo": 120.0
            },
            {
                "start_time": 8.6159091,
                "end_time": 8.6613636,
                "pitch": 38,
                "velocity": 101,
                "duration": 0.0454545,
                "tempo": 120.0
            },
            {
                "start_time": 8.7159091,
                "end_time": 8.7590909,
                "pitch": 40,
                "velocity": 101,
                "duration": 0.0431818,
                "tempo": 120.0
            },
            {
                "start_time": 8.8113636,
                "end_time": 8.8590909,
                "pitch": 35,
                "velocity": 101,
                "duration": 0.0477273,
                "tempo": 120.0
            },
            {
                "start_time": 8.9113636,
                "end_time": 8.9568182,
                "pitch": 37,
                "velocity": 101,
                "duration": 0.0454545,
                "tempo": 120.0
            },
            {
                "start_time": 9.0113636,
                "end_time": 9.0568182,
                "pitch": 38,
                "velocity": 101,
                "duration": 0.0454545,
                "tempo": 120.0
            },
            {
                "start_time": 9.1136364,
                "end_time": 9.1590909,
                "pitch": 38,
                "velocity": 101,
                "duration": 0.0454545,
                "tempo": 120.0
            },
            {
                "start_time": 9.2159091,
                "end_time": 9.2613636,
                "pitch": 35,
                "velocity": 101,
                "duration": 0.0454545,
                "tempo": 120.0
            },
            {
                "start_time": 9.3227273,
                "end_time": 9.3659091,
                "pitch": 35,
                "velocity": 101,
                "duration": 0.0431818,
                "tempo": 120.0
            },
            {
                "start_time": 9.4204545,
                "end_time": 9.4659091,
                "pitch": 38,
                "velocity": 101,
                "duration": 0.0454545,
                "tempo": 120.0
            },
            {
                "start_time": 9.5181818,
                "end_time": 9.5636364,
                "pitch": 40,
                "velocity": 101,
                "duration": 0.0454545,
                "tempo": 120.0
            },
            {
                "start_time": 9.6204545,
                "end_time": 9.7159091,
                "pitch": 40,
                "velocity": 4,
                "duration": 0.0954545,
                "tempo": 120.0
            },
            {
                "start_time": 9.7159091,
                "end_time": 9.7590909,
                "pitch": 40,
                "velocity": 101,
                "duration": 0.0431818,
                "tempo": 120.0
            },
            {
                "start_time": 9.8136364,
                "end_time": 9.9136364,
                "pitch": 28,
                "velocity": 101,
                "duration": 0.1,
                "tempo": 120.0
            },
            {
                "start_time": 10.0136364,
                "end_time": 10.1136364,
                "pitch": 28,
                "velocity": 101,
                "duration": 0.1,
                "tempo": 120.0
            },
            {
                "start_time": 10.2181818,
                "end_time": 10.2636364,
                "pitch": 38,
                "velocity": 101,
                "duration": 0.0454545,
                "tempo": 120.0
            },
            {
                "start_time": 10.3204545,
                "end_time": 10.3659091,
                "pitch": 40,
                "velocity": 101,
                "duration": 0.0454545,
                "tempo": 120.0
            },
            {
                "start_time": 10.425,
                "end_time": 10.4704545,
                "pitch": 35,
                "velocity": 101,
                "duration": 0.0454545,
                "tempo": 120.0
            },
            {
                "start_time": 10.5272727,
                "end_time": 10.5727273,
                "pitch": 37,
                "velocity": 101,
                "duration": 0.0454545,
                "tempo": 120.0
            },
            {
                "start_time": 10.6318182,
                "end_time": 10.675,
                "pitch": 38,
                "velocity": 101,
                "duration": 0.0431818,
                "tempo": 120.0
            },
            {
                "start_time": 10.7340909,
                "end_time": 10.7772727,
                "pitch": 38,
                "velocity": 101,
                "duration": 0.0431818,
                "tempo": 120.0
            },
            {
                "start_time": 10.8363636,
                "end_time": 10.8818182,
                "pitch": 35,
                "velocity": 101,
                "duration": 0.0454545,
                "tempo": 120.0
            },
            {
                "start_time": 10.9409091,
                "end_time": 10.9840909,
                "pitch": 35,
                "velocity": 101,
                "duration": 0.0431818,
                "tempo": 120.0
            },
            {
                "start_time": 11.0386364,
                "end_time": 11.0840909,
                "pitch": 38,
                "velocity": 101,
                "duration": 0.0454545,
                "tempo": 120.0
            },
            {
                "start_time": 11.1363636,
                "end_time": 11.1818182,
                "pitch": 40,
                "velocity": 101,
                "duration": 0.0454545,
                "tempo": 120.0
            },
            {
                "start_time": 11.2409091,
                "end_time": 11.2818182,
                "pitch": 26,
                "velocity": 101,
                "duration": 0.0409091,
                "tempo": 120.0
            },
            {
                "start_time": 11.3363636,
                "end_time": 11.3795455,
                "pitch": 28,
                "velocity": 101,
                "duration": 0.0431818,
                "tempo": 120.0
            },
            {
                "start_time": 11.4318182,
                "end_time": 11.5340909,
                "pitch": 26,
                "velocity": 101,
                "duration": 0.1022727,
                "tempo": 120.0
            },
            {
                "start_time": 11.6363636,
                "end_time": 11.7318182,
                "pitch": 26,
                "velocity": 101,
                "duration": 0.0954545,
                "tempo": 120.0
            },
            {
                "start_time": 11.8363636,
                "end_time": 11.8818182,
                "pitch": 37,
                "velocity": 101,
                "duration": 0.0454545,
                "tempo": 120.0
            },
            {
                "start_time": 11.9363636,
                "end_time": 11.9818182,
                "pitch": 38,
                "velocity": 101,
                "duration": 0.0454545,
                "tempo": 120.0
            },
            {
                "start_time": 12.0340909,
                "end_time": 12.0818182,
                "pitch": 26,
                "velocity": 101,
                "duration": 0.0477273,
                "tempo": 120.0
            },
            {
                "start_time": 12.1340909,
                "end_time": 12.1818182,
                "pitch": 26,
                "velocity": 101,
                "duration": 0.0477273,
                "tempo": 120.0
            },
            {
                "start_time": 12.2363636,
                "end_time": 12.2818182,
                "pitch": 37,
                "velocity": 101,
                "duration": 0.0454545,
                "tempo": 120.0
            },
            {
                "start_time": 12.3363636,
                "end_time": 12.3840909,
                "pitch": 37,
                "velocity": 101,
                "duration": 0.0477273,
                "tempo": 120.0
            },
            {
                "start_time": 12.4363636,
                "end_time": 12.4840909,
                "pitch": 26,
                "velocity": 101,
                "duration": 0.0477273,
                "tempo": 120.0
            },
            {
                "start_time": 12.5386364,
                "end_time": 12.5840909,
                "pitch": 26,
                "velocity": 101,
                "duration": 0.0454545,
                "tempo": 120.0
            },
            {
                "start_time": 12.6409091,
                "end_time": 12.6863636,
                "pitch": 37,
                "velocity": 101,
                "duration": 0.0454545,
                "tempo": 120.0
            },
            {
                "start_time": 12.7431818,
                "end_time": 12.7886364,
                "pitch": 38,
                "velocity": 101,
                "duration": 0.0454545,
                "tempo": 120.0
            },
            {
                "start_time": 12.8454545,
                "end_time": 12.9545455,
                "pitch": 38,
                "velocity": 4,
                "duration": 0.1090909,
                "tempo": 120.0
            },
            {
                "start_time": 12.9545455,
                "end_time": 12.9954545,
                "pitch": 38,
                "velocity": 101,
                "duration": 0.0409091,
                "tempo": 120.0
            },
            {
                "start_time": 13.0522727,
                "end_time": 13.0954545,
                "pitch": 26,
                "velocity": 101,
                "duration": 0.0431818,
                "tempo": 120.0
            },
            {
                "start_time": 13.15,
                "end_time": 13.1931818,
                "pitch": 26,
                "velocity": 101,
                "duration": 0.0431818,
                "tempo": 120.0
            },
            {
                "start_time": 13.25,
                "end_time": 13.2909091,
                "pitch": 38,
                "velocity": 101,
                "duration": 0.0409091,
                "tempo": 120.0
            },
            {
                "start_time": 13.3454545,
                "end_time": 13.3909091,
                "pitch": 26,
                "velocity": 101,
                "duration": 0.0454545,
                "tempo": 120.0
            },
            {
                "start_time": 13.4431818,
                "end_time": 13.4886364,
                "pitch": 37,
                "velocity": 101,
                "duration": 0.0454545,
                "tempo": 120.0
            },
            {
                "start_time": 13.5454545,
                "end_time": 13.5909091,
                "pitch": 38,
                "velocity": 101,
                "duration": 0.0454545,
                "tempo": 120.0
            },
            {
                "start_time": 13.6431818,
                "end_time": 13.6909091,
                "pitch": 26,
                "velocity": 101,
                "duration": 0.0477273,
                "tempo": 120.0
            },
            {
                "start_time": 13.7454545,
                "end_time": 13.7909091,
                "pitch": 26,
                "velocity": 101,
                "duration": 0.0454545,
                "tempo": 120.0
            },
            {
                "start_time": 13.8477273,
                "end_time": 13.8931818,
                "pitch": 37,
                "velocity": 101,
                "duration": 0.0454545,
                "tempo": 120.0
            },
            {
                "start_time": 13.9477273,
                "end_time": 13.9931818,
                "pitch": 37,
                "velocity": 101,
                "duration": 0.0454545,
                "tempo": 120.0
            },
            {
                "start_time": 14.0454545,
                "end_time": 14.0931818,
                "pitch": 26,
                "velocity": 101,
                "duration": 0.0477273,
                "tempo": 120.0
            },
            {
                "start_time": 14.1477273,
                "end_time": 14.1931818,
                "pitch": 26,
                "velocity": 101,
                "duration": 0.0454545,
                "tempo": 120.0
            },
            {
                "start_time": 14.2477273,
                "end_time": 14.2931818,
                "pitch": 37,
                "velocity": 101,
                "duration": 0.0454545,
                "tempo": 120.0
            },
            {
                "start_time": 14.35,
                "end_time": 14.3931818,
                "pitch": 38,
                "velocity": 101,
                "duration": 0.0431818,
                "tempo": 120.0
            },
            {
                "start_time": 14.45,
                "end_time": 14.5545455,
                "pitch": 38,
                "velocity": 4,
                "duration": 0.1045455,
                "tempo": 120.0
            },
            {
                "start_time": 14.5545455,
                "end_time": 14.5954545,
                "pitch": 38,
                "velocity": 101,
                "duration": 0.0409091,
                "tempo": 120.0
            },
            {
                "start_time": 14.6568182,
                "end_time": 14.6977273,
                "pitch": 31,
                "velocity": 101,
                "duration": 0.0409091,
                "tempo": 120.0
            },
            {
                "start_time": 14.7568182,
                "end_time": 14.8,
                "pitch": 31,
                "velocity": 101,
                "duration": 0.0431818,
                "tempo": 120.0
            },
            {
                "start_time": 14.8590909,
                "end_time": 14.9045455,
                "pitch": 42,
                "velocity": 101,
                "duration": 0.0454545,
                "tempo": 120.0
            },
            {
                "start_time": 14.9636364,
                "end_time": 15.0068182,
                "pitch": 43,
                "velocity": 101,
                "duration": 0.0431818,
                "tempo": 120.0
            },
            {
                "start_time": 15.0613636,
                "end_time": 15.1068182,
                "pitch": 42,
                "velocity": 101,
                "duration": 0.0454545,
                "tempo": 120.0
            },
            {
                "start_time": 15.1613636,
                "end_time": 15.2045455,
                "pitch": 43,
                "velocity": 101,
                "duration": 0.0431818,
                "tempo": 120.0
            },
            {
                "start_time": 15.2590909,
                "end_time": 15.3022727,
                "pitch": 31,
                "velocity": 101,
                "duration": 0.0431818,
                "tempo": 120.0
            },
            {
                "start_time": 15.3568182,
                "end_time": 15.4545455,
                "pitch": 31,
                "velocity": 101,
                "duration": 0.0977273,
                "tempo": 120.0
            },
            {
                "start_time": 15.5545455,
                "end_time": 15.6022727,
                "pitch": 31,
                "velocity": 101,
                "duration": 0.0477273,
                "tempo": 120.0
            },
            {
                "start_time": 15.6568182,
                "end_time": 15.7022727,
                "pitch": 43,
                "velocity": 101,
                "duration": 0.0454545,
                "tempo": 120.0
            },
            {
                "start_time": 15.7613636,
                "end_time": 15.8022727,
                "pitch": 31,
                "velocity": 101,
                "duration": 0.0409091,
                "tempo": 120.0
            },
            {
                "start_time": 15.8568182,
                "end_time": 15.9022727,
                "pitch": 42,
                "velocity": 101,
                "duration": 0.0454545,
                "tempo": 120.0
            },
            {
                "start_time": 15.9590909,
                "end_time": 16.0045455,
                "pitch": 43,
                "velocity": 101,
                "duration": 0.0454545,
                "tempo": 120.0
            },
            {
                "start_time": 16.0613636,
                "end_time": 16.1045455,
                "pitch": 31,
                "velocity": 101,
                "duration": 0.0431818,
                "tempo": 120.0
            },
            {
                "start_time": 16.1590909,
                "end_time": 16.2045455,
                "pitch": 31,
                "velocity": 101,
                "duration": 0.0454545,
                "tempo": 120.0
            },
            {
                "start_time": 16.2613636,
                "end_time": 16.3045455,
                "pitch": 33,
                "velocity": 101,
                "duration": 0.0431818,
                "tempo": 120.0
            },
            {
                "start_time": 16.3636364,
                "end_time": 16.4090909,
                "pitch": 33,
                "velocity": 101,
                "duration": 0.0454545,
                "tempo": 120.0
            },
            {
                "start_time": 16.4659091,
                "end_time": 16.5113636,
                "pitch": 45,
                "velocity": 101,
                "duration": 0.0454545,
                "tempo": 120.0
            },
            {
                "start_time": 16.5704545,
                "end_time": 16.6136364,
                "pitch": 45,
                "velocity": 101,
                "duration": 0.0431818,
                "tempo": 120.0
            },
            {
                "start_time": 16.6704545,
                "end_time": 16.7136364,
                "pitch": 44,
                "velocity": 101,
                "duration": 0.0431818,
                "tempo": 120.0
            },
            {
                "start_time": 16.7681818,
                "end_time": 16.8113636,
                "pitch": 45,
                "velocity": 101,
                "duration": 0.0431818,
                "tempo": 120.0
            },
            {
                "start_time": 16.8659091,
                "end_time": 16.9113636,
                "pitch": 33,
                "velocity": 101,
                "duration": 0.0454545,
                "tempo": 120.0
            },
            {
                "start_time": 16.9636364,
                "end_time": 17.0613636,
                "pitch": 33,
                "velocity": 101,
                "duration": 0.0977273,
                "tempo": 120.0
            },
            {
                "start_time": 17.1659091,
                "end_time": 17.2159091,
                "pitch": 33,
                "velocity": 101,
                "duration": 0.05,
                "tempo": 120.0
            },
            {
                "start_time": 17.2727273,
                "end_time": 17.3204545,
                "pitch": 45,
                "velocity": 101,
                "duration": 0.0477273,
                "tempo": 120.0
            },
            {
                "start_time": 17.3818182,
                "end_time": 17.4272727,
                "pitch": 33,
                "velocity": 101,
                "duration": 0.0454545,
                "tempo": 120.0
            },
            {
                "start_time": 17.4840909,
                "end_time": 17.5295455,
                "pitch": 44,
                "velocity": 101,
                "duration": 0.0454545,
                "tempo": 120.0
            },
            {
                "start_time": 17.5818182,
                "end_time": 17.6272727,
                "pitch": 45,
                "velocity": 101,
                "duration": 0.0454545,
                "tempo": 120.0
            },
            {
                "start_time": 17.6840909,
                "end_time": 17.725,
                "pitch": 33,
                "velocity": 101,
                "duration": 0.0409091,
                "tempo": 120.0
            },
            {
                "start_time": 17.7795455,
                "end_time": 17.8227273,
                "pitch": 33,
                "velocity": 101,
                "duration": 0.0431818,
                "tempo": 120.0
            },
            {
                "start_time": 17.8818182,
                "end_time": 17.9227273,
                "pitch": 35,
                "velocity": 101,
                "duration": 0.0409091,
                "tempo": 120.0
            },
            {
                "start_time": 17.9818182,
                "end_time": 18.0272727,
                "pitch": 35,
                "velocity": 101,
                "duration": 0.0454545,
                "tempo": 120.0
            },
            {
                "start_time": 18.0840909,
                "end_time": 18.1295455,
                "pitch": 47,
                "velocity": 101,
                "duration": 0.0454545,
                "tempo": 120.0
            },
            {
                "start_time": 18.1886364,
                "end_time": 18.2318182,
                "pitch": 35,
                "velocity": 101,
                "duration": 0.0431818,
                "tempo": 120.0
            },
            {
                "start_time": 18.2886364,
                "end_time": 18.3340909,
                "pitch": 47,
                "velocity": 101,
                "duration": 0.0454545,
                "tempo": 120.0
            },
            {
                "start_time": 18.3909091,
                "end_time": 18.4363636,
                "pitch": 35,
                "velocity": 101,
                "duration": 0.0454545,
                "tempo": 120.0
            },
            {
                "start_time": 18.4909091,
                "end_time": 18.5363636,
                "pitch": 45,
                "velocity": 101,
                "duration": 0.0454545,
                "tempo": 120.0
            },
            {
                "start_time": 18.5909091,
                "end_time": 18.7363636,
                "pitch": 47,
                "velocity": 101,
                "duration": 0.1454545,
                "tempo": 120.0
            },
            {
                "start_time": 18.8886364,
                "end_time": 18.9318182,
                "pitch": 35,
                "velocity": 101,
                "duration": 0.0431818,
                "tempo": 120.0
            },
            {
                "start_time": 18.9840909,
                "end_time": 19.0295455,
                "pitch": 47,
                "velocity": 101,
                "duration": 0.0454545,
                "tempo": 120.0
            },
            {
                "start_time": 19.0863636,
                "end_time": 19.1295455,
                "pitch": 35,
                "velocity": 101,
                "duration": 0.0431818,
                "tempo": 120.0
            },
            {
                "start_time": 19.1863636,
                "end_time": 19.2295455,
                "pitch": 45,
                "velocity": 101,
                "duration": 0.0431818,
                "tempo": 120.0
            },
            {
                "start_time": 19.2863636,
                "end_time": 19.3295455,
                "pitch": 44,
                "velocity": 101,
                "duration": 0.0431818,
                "tempo": 120.0
            },
            {
                "start_time": 19.3909091,
                "end_time": 19.4295455,
                "pitch": 40,
                "velocity": 101,
                "duration": 0.0386364,
                "tempo": 120.0
            },
            {
                "start_time": 19.4886364,
                "end_time": 19.5295455,
                "pitch": 35,
                "velocity": 101,
                "duration": 0.0409091,
                "tempo": 120.0
            },
            {
                "start_time": 19.5886364,
                "end_time": 19.6318182,
                "pitch": 35,
                "velocity": 101,
                "duration": 0.0431818,
                "tempo": 120.0
            },
            {
                "start_time": 19.6886364,
                "end_time": 19.7318182,
                "pitch": 47,
                "velocity": 101,
                "duration": 0.0431818,
                "tempo": 120.0
            },
            {
                "start_time": 19.7863636,
                "end_time": 19.8318182,
                "pitch": 35,
                "velocity": 101,
                "duration": 0.0454545,
                "tempo": 120.0
            },
            {
                "start_time": 19.8863636,
                "end_time": 19.9318182,
                "pitch": 45,
                "velocity": 101,
                "duration": 0.0454545,
                "tempo": 120.0
            },
            {
                "start_time": 19.9886364,
                "end_time": 20.0340909,
                "pitch": 47,
                "velocity": 101,
                "duration": 0.0454545,
                "tempo": 120.0
            },
            {
                "start_time": 20.0909091,
                "end_time": 20.1386364,
                "pitch": 35,
                "velocity": 101,
                "duration": 0.0477273,
                "tempo": 120.0
            },
            {
                "start_time": 20.1954545,
                "end_time": 20.2954545,
                "pitch": 35,
                "velocity": 101,
                "duration": 0.1,
                "tempo": 120.0
            },
            {
                "start_time": 20.3954545,
                "end_time": 20.4386364,
                "pitch": 35,
                "velocity": 101,
                "duration": 0.0431818,
                "tempo": 120.0
            },
            {
                "start_time": 20.4931818,
                "end_time": 20.5386364,
                "pitch": 47,
                "velocity": 101,
                "duration": 0.0454545,
                "tempo": 120.0
            },
            {
                "start_time": 20.5909091,
                "end_time": 20.6363636,
                "pitch": 35,
                "velocity": 101,
                "duration": 0.0454545,
                "tempo": 120.0
            },
            {
                "start_time": 20.6931818,
                "end_time": 20.7363636,
                "pitch": 45,
                "velocity": 101,
                "duration": 0.0431818,
                "tempo": 120.0
            },
            {
                "start_time": 20.7909091,
                "end_time": 20.8363636,
                "pitch": 47,
                "velocity": 101,
                "duration": 0.0454545,
                "tempo": 120.0
            },
            {
                "start_time": 20.8954545,
                "end_time": 20.9363636,
                "pitch": 33,
                "velocity": 101,
                "duration": 0.0409091,
                "tempo": 120.0
            },
            {
                "start_time": 20.9954545,
                "end_time": 21.0386364,
                "pitch": 35,
                "velocity": 101,
                "duration": 0.0431818,
                "tempo": 120.0
            },
            {
                "start_time": 21.0954545,
                "end_time": 21.1386364,
                "pitch": 31,
                "velocity": 101,
                "duration": 0.0431818,
                "tempo": 120.0
            },
            {
                "start_time": 21.1977273,
                "end_time": 21.2431818,
                "pitch": 31,
                "velocity": 101,
                "duration": 0.0454545,
                "tempo": 120.0
            },
            {
                "start_time": 21.3,
                "end_time": 21.3454545,
                "pitch": 43,
                "velocity": 101,
                "duration": 0.0454545,
                "tempo": 120.0
            },
            {
                "start_time": 21.4045455,
                "end_time": 21.4477273,
                "pitch": 31,
                "velocity": 101,
                "duration": 0.0431818,
                "tempo": 120.0
            },
            {
                "start_time": 21.5045455,
                "end_time": 21.5477273,
                "pitch": 42,
                "velocity": 101,
                "duration": 0.0431818,
                "tempo": 120.0
            },
            {
                "start_time": 21.6022727,
                "end_time": 21.6477273,
                "pitch": 31,
                "velocity": 101,
                "duration": 0.0454545,
                "tempo": 120.0
            },
            {
                "start_time": 21.7,
                "end_time": 21.7454545,
                "pitch": 42,
                "velocity": 101,
                "duration": 0.0454545,
                "tempo": 120.0
            },
            {
                "start_time": 21.8,
                "end_time": 21.8977273,
                "pitch": 43,
                "velocity": 101,
                "duration": 0.0977273,
                "tempo": 120.0
            },
            {
                "start_time": 21.9954545,
                "end_time": 22.0431818,
                "pitch": 31,
                "velocity": 101,
                "duration": 0.0477273,
                "tempo": 120.0
            },
            {
                "start_time": 22.0977273,
                "end_time": 22.1431818,
                "pitch": 43,
                "velocity": 101,
                "duration": 0.0454545,
                "tempo": 120.0
            },
            {
                "start_time": 22.2022727,
                "end_time": 22.2454545,
                "pitch": 31,
                "velocity": 101,
                "duration": 0.0431818,
                "tempo": 120.0
            },
            {
                "start_time": 22.3,
                "end_time": 22.3454545,
                "pitch": 42,
                "velocity": 101,
                "duration": 0.0454545,
                "tempo": 120.0
            },
            {
                "start_time": 22.4,
                "end_time": 22.4454545,
                "pitch": 43,
                "velocity": 101,
                "duration": 0.0454545,
                "tempo": 120.0
            },
            {
                "start_time": 22.5045455,
                "end_time": 22.5454545,
                "pitch": 31,
                "velocity": 101,
                "duration": 0.0409091,
                "tempo": 120.0
            },
            {
                "start_time": 22.6,
                "end_time": 22.6454545,
                "pitch": 31,
                "velocity": 101,
                "duration": 0.0454545,
                "tempo": 120.0
            },
            {
                "start_time": 22.7045455,
                "end_time": 22.7454545,
                "pitch": 33,
                "velocity": 101,
                "duration": 0.0409091,
                "tempo": 120.0
            },
            {
                "start_time": 22.8045455,
                "end_time": 22.8477273,
                "pitch": 33,
                "velocity": 101,
                "duration": 0.0431818,
                "tempo": 120.0
            },
            {
                "start_time": 22.9022727,
                "end_time": 22.9477273,
                "pitch": 45,
                "velocity": 101,
                "duration": 0.0454545,
                "tempo": 120.0
            },
            {
                "start_time": 23.0090909,
                "end_time": 23.05,
                "pitch": 33,
                "velocity": 101,
                "duration": 0.0409091,
                "tempo": 120.0
            },
            {
                "start_time": 23.1045455,
                "end_time": 23.15,
                "pitch": 44,
                "velocity": 101,
                "duration": 0.0454545,
                "tempo": 120.0
            },
            {
                "start_time": 23.2045455,
                "end_time": 23.25,
                "pitch": 33,
                "velocity": 101,
                "duration": 0.0454545,
                "tempo": 120.0
            },
            {
                "start_time": 23.3068182,
                "end_time": 23.35,
                "pitch": 44,
                "velocity": 101,
                "duration": 0.0431818,
                "tempo": 120.0
            },
            {
                "start_time": 23.4045455,
                "end_time": 23.5045455,
                "pitch": 45,
                "velocity": 101,
                "duration": 0.1,
                "tempo": 120.0
            },
            {
                "start_time": 23.6022727,
                "end_time": 23.65,
                "pitch": 33,
                "velocity": 101,
                "duration": 0.0477273,
                "tempo": 120.0
            },
            {
                "start_time": 23.7045455,
                "end_time": 23.75,
                "pitch": 45,
                "velocity": 101,
                "duration": 0.0454545,
                "tempo": 120.0
            },
            {
                "start_time": 23.8090909,
                "end_time": 23.85,
                "pitch": 33,
                "velocity": 101,
                "duration": 0.0409091,
                "tempo": 120.0
            },
            {
                "start_time": 23.9045455,
                "end_time": 23.95,
                "pitch": 44,
                "velocity": 101,
                "duration": 0.0454545,
                "tempo": 120.0
            },
            {
                "start_time": 24.0045455,
                "end_time": 24.0522727,
                "pitch": 45,
                "velocity": 101,
                "duration": 0.0477273,
                "tempo": 120.0
            },
            {
                "start_time": 24.1113636,
                "end_time": 24.1522727,
                "pitch": 33,
                "velocity": 101,
                "duration": 0.0409091,
                "tempo": 120.0
            },
            {
                "start_time": 24.2068182,
                "end_time": 24.2522727,
                "pitch": 33,
                "velocity": 101,
                "duration": 0.0454545,
                "tempo": 120.0
            },
            {
                "start_time": 24.3113636,
                "end_time": 24.3545455,
                "pitch": 34,
                "velocity": 101,
                "duration": 0.0431818,
                "tempo": 120.0
            },
            {
                "start_time": 24.4136364,
                "end_time": 24.4568182,
                "pitch": 34,
                "velocity": 101,
                "duration": 0.0431818,
                "tempo": 120.0
            },
            {
                "start_time": 24.5136364,
                "end_time": 24.5613636,
                "pitch": 46,
                "velocity": 101,
                "duration": 0.0477273,
                "tempo": 120.0
            },
            {
                "start_time": 24.6227273,
                "end_time": 24.6636364,
                "pitch": 34,
                "velocity": 101,
                "duration": 0.0409091,
                "tempo": 120.0
            },
            {
                "start_time": 24.7204545,
                "end_time": 24.7659091,
                "pitch": 45,
                "velocity": 101,
                "duration": 0.0454545,
                "tempo": 120.0
            },
            {
                "start_time": 24.8227273,
                "end_time": 24.8704545,
                "pitch": 34,
                "velocity": 101,
                "duration": 0.0477273,
                "tempo": 120.0
            },
            {
                "start_time": 24.9295455,
                "end_time": 24.9727273,
                "pitch": 45,
                "velocity": 101,
                "duration": 0.0431818,
                "tempo": 120.0
            },
            {
                "start_time": 25.0295455,
                "end_time": 25.1295455,
                "pitch": 46,
                "velocity": 101,
                "duration": 0.1,
                "tempo": 120.0
            },
            {
                "start_time": 25.2272727,
                "end_time": 25.2727273,
                "pitch": 34,
                "velocity": 101,
                "duration": 0.0454545,
                "tempo": 120.0
            },
            {
                "start_time": 25.3272727,
                "end_time": 25.3727273,
                "pitch": 46,
                "velocity": 101,
                "duration": 0.0454545,
                "tempo": 120.0
            },
            {
                "start_time": 25.4272727,
                "end_time": 25.4704545,
                "pitch": 34,
                "velocity": 101,
                "duration": 0.0431818,
                "tempo": 120.0
            },
            {
                "start_time": 25.525,
                "end_time": 25.5704545,
                "pitch": 45,
                "velocity": 101,
                "duration": 0.0454545,
                "tempo": 120.0
            },
            {
                "start_time": 25.6272727,
                "end_time": 25.6727273,
                "pitch": 46,
                "velocity": 101,
                "duration": 0.0454545,
                "tempo": 120.0
            },
            {
                "start_time": 25.7340909,
                "end_time": 25.775,
                "pitch": 34,
                "velocity": 101,
                "duration": 0.0409091,
                "tempo": 120.0
            },
            {
                "start_time": 25.8363636,
                "end_time": 25.8795455,
                "pitch": 34,
                "velocity": 101,
                "duration": 0.0431818,
                "tempo": 120.0
            },
            {
                "start_time": 25.9386364,
                "end_time": 25.9795455,
                "pitch": 36,
                "velocity": 101,
                "duration": 0.0409091,
                "tempo": 120.0
            },
            {
                "start_time": 26.0363636,
                "end_time": 26.0772727,
                "pitch": 31,
                "velocity": 101,
                "duration": 0.0409091,
                "tempo": 120.0
            },
            {
                "start_time": 26.1340909,
                "end_time": 26.175,
                "pitch": 36,
                "velocity": 101,
                "duration": 0.0409091,
                "tempo": 120.0
            },
            {
                "start_time": 26.2340909,
                "end_time": 26.3272727,
                "pitch": 36,
                "velocity": 101,
                "duration": 0.0931818,
                "tempo": 120.0
            },
            {
                "start_time": 26.4318182,
                "end_time": 26.475,
                "pitch": 36,
                "velocity": 101,
                "duration": 0.0431818,
                "tempo": 120.0
            },
            {
                "start_time": 26.5318182,
                "end_time": 26.575,
                "pitch": 31,
                "velocity": 101,
                "duration": 0.0431818,
                "tempo": 120.0
            },
            {
                "start_time": 26.6295455,
                "end_time": 26.7295455,
                "pitch": 36,
                "velocity": 101,
                "duration": 0.1,
                "tempo": 120.0
            },
            {
                "start_time": 26.8340909,
                "end_time": 26.8772727,
                "pitch": 36,
                "velocity": 101,
                "duration": 0.0431818,
                "tempo": 120.0
            },
            {
                "start_time": 26.9318182,
                "end_time": 26.9772727,
                "pitch": 31,
                "velocity": 101,
                "duration": 0.0454545,
                "tempo": 120.0
            },
            {
                "start_time": 27.0363636,
                "end_time": 27.0772727,
                "pitch": 36,
                "velocity": 101,
                "duration": 0.0409091,
                "tempo": 120.0
            },
            {
                "start_time": 27.1340909,
                "end_time": 27.1772727,
                "pitch": 36,
                "velocity": 101,
                "duration": 0.0431818,
                "tempo": 120.0
            },
            {
                "start_time": 27.2363636,
                "end_time": 27.2818182,
                "pitch": 36,
                "velocity": 101,
                "duration": 0.0454545,
                "tempo": 120.0
            },
            {
                "start_time": 27.3409091,
                "end_time": 27.3840909,
                "pitch": 37,
                "velocity": 101,
                "duration": 0.0431818,
                "tempo": 120.0
            },
            {
                "start_time": 27.4409091,
                "end_time": 27.4863636,
                "pitch": 37,
                "velocity": 101,
                "duration": 0.0454545,
                "tempo": 120.0
            },
            {
                "start_time": 27.55,
                "end_time": 27.5886364,
                "pitch": 38,
                "velocity": 101,
                "duration": 0.0386364,
                "tempo": 120.0
            },
            {
                "start_time": 27.65,
                "end_time": 27.6931818,
                "pitch": 45,
                "velocity": 101,
                "duration": 0.0431818,
                "tempo": 120.0
            },
            {
                "start_time": 27.7522727,
                "end_time": 27.7954545,
                "pitch": 50,
                "velocity": 101,
                "duration": 0.0431818,
                "tempo": 120.0
            },
            {
                "start_time": 27.8568182,
                "end_time": 27.8977273,
                "pitch": 36,
                "velocity": 101,
                "duration": 0.0409091,
                "tempo": 120.0
            },
            {
                "start_time": 27.9590909,
                "end_time": 28.0,
                "pitch": 43,
                "velocity": 101,
                "duration": 0.0409091,
                "tempo": 120.0
            },
            {
                "start_time": 28.0590909,
                "end_time": 28.0977273,
                "pitch": 48,
                "velocity": 101,
                "duration": 0.0386364,
                "tempo": 120.0
            },
            {
                "start_time": 28.1568182,
                "end_time": 28.1954545,
                "pitch": 34,
                "velocity": 101,
                "duration": 0.0386364,
                "tempo": 120.0
            },
            {
                "start_time": 28.2545455,
                "end_time": 28.2931818,
                "pitch": 41,
                "velocity": 101,
                "duration": 0.0386364,
                "tempo": 120.0
            },
            {
                "start_time": 28.3522727,
                "end_time": 28.3931818,
                "pitch": 46,
                "velocity": 101,
                "duration": 0.0409091,
                "tempo": 120.0
            },
            {
                "start_time": 28.4545455,
                "end_time": 28.4954545,
                "pitch": 33,
                "velocity": 101,
                "duration": 0.0409091,
                "tempo": 120.0
            },
            {
                "start_time": 28.5590909,
                "end_time": 28.6,
                "pitch": 40,
                "velocity": 101,
                "duration": 0.0409091,
                "tempo": 120.0
            },
            {
                "start_time": 28.6613636,
                "end_time": 28.7022727,
                "pitch": 45,
                "velocity": 101,
                "duration": 0.0409091,
                "tempo": 120.0
            },
            {
                "start_time": 28.7636364,
                "end_time": 28.8045455,
                "pitch": 41,
                "velocity": 101,
                "duration": 0.0409091,
                "tempo": 120.0
            },
            {
                "start_time": 28.8636364,
                "end_time": 28.9045455,
                "pitch": 36,
                "velocity": 101,
                "duration": 0.0409091,
                "tempo": 120.0
            },
            {
                "start_time": 28.9636364,
                "end_time": 29.0045455,
                "pitch": 41,
                "velocity": 101,
                "duration": 0.0409091,
                "tempo": 120.0
            },
            {
                "start_time": 29.0636364,
                "end_time": 29.3022727,
                "pitch": 37,
                "velocity": 101,
                "duration": 0.2386364,
                "tempo": 120.0
            },
            {
                "start_time": 29.5522727,
                "end_time": 29.5977273,
                "pitch": 37,
                "velocity": 101,
                "duration": 0.0454545,
                "tempo": 120.0
            },
            {
                "start_time": 29.65,
                "end_time": 29.6977273,
                "pitch": 37,
                "velocity": 101,
                "duration": 0.0477273,
                "tempo": 120.0
            },
            {
                "start_time": 29.7545455,
                "end_time": 29.85,
                "pitch": 37,
                "velocity": 4,
                "duration": 0.0954545,
                "tempo": 120.0
            },
            {
                "start_time": 29.85,
                "end_time": 29.8977273,
                "pitch": 37,
                "velocity": 101,
                "duration": 0.0477273,
                "tempo": 120.0
            },
            {
                "start_time": 29.95,
                "end_time": 29.9954545,
                "pitch": 37,
                "velocity": 101,
                "duration": 0.0454545,
                "tempo": 120.0
            },
            {
                "start_time": 30.0545455,
                "end_time": 30.0954545,
                "pitch": 49,
                "velocity": 101,
                "duration": 0.0409091,
                "tempo": 120.0
            },
            {
                "start_time": 30.1477273,
                "end_time": 30.1931818,
                "pitch": 49,
                "velocity": 101,
                "duration": 0.0454545,
                "tempo": 120.0
            },
            {
                "start_time": 30.2477273,
                "end_time": 30.2909091,
                "pitch": 49,
                "velocity": 101,
                "duration": 0.0431818,
                "tempo": 120.0
            },
            {
                "start_time": 30.3454545,
                "end_time": 30.3909091,
                "pitch": 49,
                "velocity": 101,
                "duration": 0.0454545,
                "tempo": 120.0
            },
            {
                "start_time": 30.4477273,
                "end_time": 30.4954545,
                "pitch": 44,
                "velocity": 101,
                "duration": 0.0477273,
                "tempo": 120.0
            },
            {
                "start_time": 30.55,
                "end_time": 30.5977273,
                "pitch": 46,
                "velocity": 101,
                "duration": 0.0477273,
                "tempo": 120.0
            },
            {
                "start_time": 30.6522727,
                "end_time": 31.1113636,
                "pitch": 49,
                "velocity": 101,
                "duration": 0.4590909,
                "tempo": 120.0
            },
            {
                "start_time": 31.5340909,
                "end_time": 32.1659091,
                "pitch": 0,
                "velocity": 127,
                "duration": 0.6318182,
                "tempo": 120.0
            }
        ],
        "Trumpet": [
            {
                "start_time": 0.025,
                "end_time": 0.3431818,
                "pitch": 0,
                "velocity": 4,
                "duration": 0.3181818,
                "tempo": 120.0
            },
            {
                "start_time": 0.3431818,
                "end_time": 0.6204545,
                "pitch": 73,
                "velocity": 40,
                "duration": 0.2772727,
                "tempo": 120.0
            },
            {
                "start_time": 0.6681818,
                "end_time": 0.95,
                "pitch": 78,
                "velocity": 40,
                "duration": 0.2818182,
                "tempo": 120.0
            },
            {
                "start_time": 0.9886364,
                "end_time": 1.1886364,
                "pitch": 80,
                "velocity": 40,
                "duration": 0.2,
                "tempo": 120.0
            },
            {
                "start_time": 1.2227273,
                "end_time": 1.5022727,
                "pitch": 81,
                "velocity": 40,
                "duration": 0.2795455,
                "tempo": 120.0
            },
            {
                "start_time": 1.55,
                "end_time": 1.8227273,
                "pitch": 85,
                "velocity": 40,
                "duration": 0.2727273,
                "tempo": 120.0
            },
            {
                "start_time": 1.8636364,
                "end_time": 2.0568182,
                "pitch": 88,
                "velocity": 40,
                "duration": 0.1931818,
                "tempo": 120.0
            },
            {
                "start_time": 2.0795455,
                "end_time": 2.7795455,
                "pitch": 83,
                "velocity": 40,
                "duration": 0.7,
                "tempo": 120.0
            },
            {
                "start_time": 2.8909091,
                "end_time": 3.1454545,
                "pitch": 81,
                "velocity": 40,
                "duration": 0.2545455,
                "tempo": 120.0
            },
            {
                "start_time": 3.1863636,
                "end_time": 3.4386364,
                "pitch": 80,
                "velocity": 40,
                "duration": 0.2522727,
                "tempo": 120.0
            },
            {
                "start_time": 3.4772727,
                "end_time": 4.1886364,
                "pitch": 76,
                "velocity": 40,
                "duration": 0.7113636,
                "tempo": 120.0
            },
            {
                "start_time": 4.2909091,
                "end_time": 4.3704545,
                "pitch": 76,
                "velocity": 40,
                "duration": 0.0795455,
                "tempo": 120.0
            },
            {
                "start_time": 4.3931818,
                "end_time": 4.4727273,
                "pitch": 78,
                "velocity": 40,
                "duration": 0.0795455,
                "tempo": 120.0
            },
            {
                "start_time": 4.5,
                "end_time": 4.7568182,
                "pitch": 81,
                "velocity": 40,
                "duration": 0.2568182,
                "tempo": 120.0
            },
            {
                "start_time": 4.7977273,
                "end_time": 5.0522727,
                "pitch": 80,
                "velocity": 40,
                "duration": 0.2545455,
                "tempo": 120.0
            },
            {
                "start_time": 5.0886364,
                "end_time": 5.2681818,
                "pitch": 76,
                "velocity": 40,
                "duration": 0.1795455,
                "tempo": 120.0
            },
            {
                "start_time": 5.2931818,
                "end_time": 5.5545455,
                "pitch": 78,
                "velocity": 40,
                "duration": 0.2613636,
                "tempo": 120.0
            },
            {
                "start_time": 5.5954545,
                "end_time": 5.8590909,
                "pitch": 74,
                "velocity": 40,
                "duration": 0.2636364,
                "tempo": 120.0
            },
            {
                "start_time": 5.9022727,
                "end_time": 7.3,
                "pitch": 72,
                "velocity": 40,
                "duration": 1.3977273,
                "tempo": 120.0
            },
            {
                "start_time": 7.5068182,
                "end_time": 7.7136364,
                "pitch": 72,
                "velocity": 4,
                "duration": 0.2068182,
                "tempo": 120.0
            },
            {
                "start_time": 8.5159091,
                "end_time": 9.2159091,
                "pitch": 83,
                "velocity": 40,
                "duration": 0.7,
                "tempo": 120.0
            },
            {
                "start_time": 9.3227273,
                "end_time": 9.5795455,
                "pitch": 81,
                "velocity": 40,
                "duration": 0.2568182,
                "tempo": 120.0
            },
            {
                "start_time": 9.6204545,
                "end_time": 9.8772727,
                "pitch": 80,
                "velocity": 40,
                "duration": 0.2568182,
                "tempo": 120.0
            },
            {
                "start_time": 9.9136364,
                "end_time": 10.6318182,
                "pitch": 76,
                "velocity": 40,
                "duration": 0.7181818,
                "tempo": 120.0
            },
            {
                "start_time": 10.7340909,
                "end_time": 10.8113636,
                "pitch": 76,
                "velocity": 40,
                "duration": 0.0772727,
                "tempo": 120.0
            },
            {
                "start_time": 10.8363636,
                "end_time": 10.9159091,
                "pitch": 78,
                "velocity": 40,
                "duration": 0.0795455,
                "tempo": 120.0
            },
            {
                "start_time": 10.9409091,
                "end_time": 11.2,
                "pitch": 80,
                "velocity": 40,
                "duration": 0.2590909,
                "tempo": 120.0
            },
            {
                "start_time": 11.2409091,
                "end_time": 11.4954545,
                "pitch": 83,
                "velocity": 40,
                "duration": 0.2545455,
                "tempo": 120.0
            },
            {
                "start_time": 11.5340909,
                "end_time": 11.6136364,
                "pitch": 88,
                "velocity": 40,
                "duration": 0.0795455,
                "tempo": 120.0
            },
            {
                "start_time": 11.6363636,
                "end_time": 12.7886364,
                "pitch": 86,
                "velocity": 40,
                "duration": 1.1522727,
                "tempo": 120.0
            },
            {
                "start_time": 12.9545455,
                "end_time": 13.0295455,
                "pitch": 85,
                "velocity": 40,
                "duration": 0.075,
                "tempo": 120.0
            },
            {
                "start_time": 13.0522727,
                "end_time": 13.1272727,
                "pitch": 83,
                "velocity": 40,
                "duration": 0.075,
                "tempo": 120.0
            },
            {
                "start_time": 13.15,
                "end_time": 13.2272727,
                "pitch": 80,
                "velocity": 40,
                "duration": 0.0772727,
                "tempo": 120.0
            },
            {
                "start_time": 13.25,
                "end_time": 14.3931818,
                "pitch": 81,
                "velocity": 40,
                "duration": 1.1431818,
                "tempo": 120.0
            },
            {
                "start_time": 14.9636364,
                "end_time": 15.6568182,
                "pitch": 83,
                "velocity": 40,
                "duration": 0.6931818,
                "tempo": 120.0
            },
            {
                "start_time": 15.7613636,
                "end_time": 16.0204545,
                "pitch": 83,
                "velocity": 40,
                "duration": 0.2590909,
                "tempo": 120.0
            },
            {
                "start_time": 16.0613636,
                "end_time": 16.3227273,
                "pitch": 85,
                "velocity": 40,
                "duration": 0.2613636,
                "tempo": 120.0
            },
            {
                "start_time": 16.3636364,
                "end_time": 16.5454545,
                "pitch": 86,
                "velocity": 40,
                "duration": 0.1818182,
                "tempo": 120.0
            },
            {
                "start_time": 16.5704545,
                "end_time": 17.2727273,
                "pitch": 85,
                "velocity": 40,
                "duration": 0.7022727,
                "tempo": 120.0
            },
            {
                "start_time": 17.3818182,
                "end_time": 17.6431818,
                "pitch": 88,
                "velocity": 40,
                "duration": 0.2613636,
                "tempo": 120.0
            },
            {
                "start_time": 17.6840909,
                "end_time": 17.9409091,
                "pitch": 87,
                "velocity": 40,
                "duration": 0.2568182,
                "tempo": 120.0
            },
            {
                "start_time": 17.9818182,
                "end_time": 18.1636364,
                "pitch": 88,
                "velocity": 40,
                "duration": 0.1818182,
                "tempo": 120.0
            },
            {
                "start_time": 18.1886364,
                "end_time": 19.2295455,
                "pitch": 90,
                "velocity": 40,
                "duration": 1.0409091,
                "tempo": 120.0
            },
            {
                "start_time": 19.3909091,
                "end_time": 19.4636364,
                "pitch": 87,
                "velocity": 40,
                "duration": 0.0727273,
                "tempo": 120.0
            },
            {
                "start_time": 19.4886364,
                "end_time": 19.5636364,
                "pitch": 83,
                "velocity": 40,
                "duration": 0.075,
                "tempo": 120.0
            },
            {
                "start_time": 19.5886364,
                "end_time": 19.6636364,
                "pitch": 78,
                "velocity": 40,
                "duration": 0.075,
                "tempo": 120.0
            },
            {
                "start_time": 19.6886364,
                "end_time": 20.8363636,
                "pitch": 81,
                "velocity": 40,
                "duration": 1.1477273,
                "tempo": 120.0
            },
            {
                "start_time": 20.9954545,
                "end_time": 21.1727273,
                "pitch": 81,
                "velocity": 40,
                "duration": 0.1772727,
                "tempo": 120.0
            },
            {
                "start_time": 21.1977273,
                "end_time": 21.3795455,
                "pitch": 82,
                "velocity": 40,
                "duration": 0.1818182,
                "tempo": 120.0
            },
            {
                "start_time": 21.4045455,
                "end_time": 22.0977273,
                "pitch": 83,
                "velocity": 40,
                "duration": 0.6931818,
                "tempo": 120.0
            },
            {
                "start_time": 22.2022727,
                "end_time": 22.4613636,
                "pitch": 83,
                "velocity": 40,
                "duration": 0.2590909,
                "tempo": 120.0
            },
            {
                "start_time": 22.5045455,
                "end_time": 22.7636364,
                "pitch": 85,
                "velocity": 40,
                "duration": 0.2590909,
                "tempo": 120.0
            },
            {
                "start_time": 22.8045455,
                "end_time": 22.9818182,
                "pitch": 86,
                "velocity": 40,
                "duration": 0.1772727,
                "tempo": 120.0
            },
            {
                "start_time": 23.0090909,
                "end_time": 23.2659091,
                "pitch": 88,
                "velocity": 40,
                "duration": 0.2568182,
                "tempo": 120.0
            },
            {
                "start_time": 23.3068182,
                "end_time": 23.7340909,
                "pitch": 85,
                "velocity": 40,
                "duration": 0.4272727,
                "tempo": 120.0
            },
            {
                "start_time": 23.8090909,
                "end_time": 24.0681818,
                "pitch": 85,
                "velocity": 40,
                "duration": 0.2590909,
                "tempo": 120.0
            },
            {
                "start_time": 24.1090909,
                "end_time": 24.3727273,
                "pitch": 86,
                "velocity": 40,
                "duration": 0.2636364,
                "tempo": 120.0
            },
            {
                "start_time": 24.4136364,
                "end_time": 24.5954545,
                "pitch": 88,
                "velocity": 40,
                "duration": 0.1818182,
                "tempo": 120.0
            },
            {
                "start_time": 24.6227273,
                "end_time": 24.8863636,
                "pitch": 89,
                "velocity": 40,
                "duration": 0.2636364,
                "tempo": 120.0
            },
            {
                "start_time": 24.9295455,
                "end_time": 25.625,
                "pitch": 86,
                "velocity": 40,
                "duration": 0.6954545,
                "tempo": 120.0
            },
            {
                "start_time": 25.7340909,
                "end_time": 25.8090909,
                "pitch": 82,
                "velocity": 40,
                "duration": 0.075,
                "tempo": 120.0
            },
            {
                "start_time": 25.8340909,
                "end_time": 26.0113636,
                "pitch": 86,
                "velocity": 40,
                "duration": 0.1772727,
                "tempo": 120.0
            },
            {
                "start_time": 26.0363636,
                "end_time": 26.2090909,
                "pitch": 89,
                "velocity": 40,
                "duration": 0.1727273,
                "tempo": 120.0
            },
            {
                "start_time": 26.2340909,
                "end_time": 26.4068182,
                "pitch": 88,
                "velocity": 40,
                "duration": 0.1727273,
                "tempo": 120.0
            },
            {
                "start_time": 26.4318182,
                "end_time": 26.5068182,
                "pitch": 89,
                "velocity": 40,
                "duration": 0.075,
                "tempo": 120.0
            },
            {
                "start_time": 26.5318182,
                "end_time": 26.9590909,
                "pitch": 91,
                "velocity": 40,
                "duration": 0.4272727,
                "tempo": 120.0
            },
            {
                "start_time": 27.0363636,
                "end_time": 27.1090909,
                "pitch": 91,
                "velocity": 40,
                "duration": 0.0727273,
                "tempo": 120.0
            },
            {
                "start_time": 27.1340909,
                "end_time": 27.3159091,
                "pitch": 88,
                "velocity": 40,
                "duration": 0.1818182,
                "tempo": 120.0
            },
            {
                "start_time": 27.3409091,
                "end_time": 27.5204545,
                "pitch": 89,
                "velocity": 40,
                "duration": 0.1795455,
                "tempo": 120.0
            },
            {
                "start_time": 27.5477273,
                "end_time": 27.8113636,
                "pitch": 91,
                "velocity": 40,
                "duration": 0.2636364,
                "tempo": 120.0
            },
            {
                "start_time": 27.8568182,
                "end_time": 27.9318182,
                "pitch": 93,
                "velocity": 40,
                "duration": 0.075,
                "tempo": 120.0
            },
            {
                "start_time": 27.9590909,
                "end_time": 28.0318182,
                "pitch": 90,
                "velocity": 40,
                "duration": 0.0727273,
                "tempo": 120.0
            },
            {
                "start_time": 28.0568182,
                "end_time": 28.1295455,
                "pitch": 86,
                "velocity": 40,
                "duration": 0.0727273,
                "tempo": 120.0
            },
            {
                "start_time": 28.1568182,
                "end_time": 28.2272727,
                "pitch": 91,
                "velocity": 40,
                "duration": 0.0704545,
                "tempo": 120.0
            },
            {
                "start_time": 28.2545455,
                "end_time": 28.325,
                "pitch": 88,
                "velocity": 40,
                "duration": 0.0704545,
                "tempo": 120.0
            },
            {
                "start_time": 28.3522727,
                "end_time": 28.4272727,
                "pitch": 84,
                "velocity": 40,
                "duration": 0.075,
                "tempo": 120.0
            },
            {
                "start_time": 28.4545455,
                "end_time": 28.5295455,
                "pitch": 89,
                "velocity": 40,
                "duration": 0.075,
                "tempo": 120.0
            },
            {
                "start_time": 28.5568182,
                "end_time": 28.6340909,
                "pitch": 86,
                "velocity": 40,
                "duration": 0.0772727,
                "tempo": 120.0
            },
            {
                "start_time": 28.6613636,
                "end_time": 28.7363636,
                "pitch": 82,
                "velocity": 40,
                "duration": 0.075,
                "tempo": 120.0
            },
            {
                "start_time": 28.7636364,
                "end_time": 28.8363636,
                "pitch": 88,
                "velocity": 40,
                "duration": 0.0727273,
                "tempo": 120.0
            },
            {
                "start_time": 28.8636364,
                "end_time": 28.9363636,
                "pitch": 84,
                "velocity": 40,
                "duration": 0.0727273,
                "tempo": 120.0
            },
            {
                "start_time": 28.9636364,
                "end_time": 29.0363636,
                "pitch": 81,
                "velocity": 40,
                "duration": 0.0727273,
                "tempo": 120.0
            },
            {
                "start_time": 29.0636364,
                "end_time": 29.1363636,
                "pitch": 86,
                "velocity": 40,
                "duration": 0.0727273,
                "tempo": 120.0
            },
            {
                "start_time": 29.1590909,
                "end_time": 29.2363636,
                "pitch": 82,
                "velocity": 40,
                "duration": 0.0772727,
                "tempo": 120.0
            },
            {
                "start_time": 29.2568182,
                "end_time": 29.3340909,
                "pitch": 79,
                "velocity": 40,
                "duration": 0.0772727,
                "tempo": 120.0
            },
            {
                "start_time": 29.3545455,
                "end_time": 29.6977273,
                "pitch": 84,
                "velocity": 40,
                "duration": 0.3431818,
                "tempo": 120.0
            },
            {
                "start_time": 29.7545455,
                "end_time": 30.0136364,
                "pitch": 89,
                "velocity": 40,
                "duration": 0.2590909,
                "tempo": 120.0
            },
            {
                "start_time": 30.0522727,
                "end_time": 30.9409091,
                "pitch": 94,
                "velocity": 40,
                "duration": 0.8886364,
                "tempo": 120.0
            },
            {
                "start_time": 31.0590909,
                "end_time": 32.1659091,
                "pitch": 0,
                "velocity": 127,
                "duration": 1.1068182,
                "tempo": 120.0
            }
        ],
        "Harpsichord": [
            {
                "start_time": 1.7590909,
                "end_time": 2.1863636,
                "pitch": 49,
                "velocity": 4,
                "duration": 0.4272727,
                "tempo": 120.0
            },
            {
                "start_time": 2.1863636,
                "end_time": 2.2159091,
                "pitch": 57,
                "velocity": 80,
                "duration": 0.0295455,
                "tempo": 120.0
            },
            {
                "start_time": 2.2818182,
                "end_time": 2.3113636,
                "pitch": 57,
                "velocity": 80,
                "duration": 0.0295455,
                "tempo": 120.0
            },
            {
                "start_time": 2.3772727,
                "end_time": 2.5727273,
                "pitch": 57,
                "velocity": 4,
                "duration": 0.1954545,
                "tempo": 120.0
            },
            {
                "start_time": 2.5727273,
                "end_time": 2.6,
                "pitch": 66,
                "velocity": 4,
                "duration": 0.0272727,
                "tempo": 120.0
            },
            {
                "start_time": 2.5727273,
                "end_time": 2.6,
                "pitch": 66,
                "velocity": 80,
                "duration": 0.0272727,
                "tempo": 120.0
            },
            {
                "start_time": 2.675,
                "end_time": 2.7068182,
                "pitch": 64,
                "velocity": 80,
                "duration": 0.0318182,
                "tempo": 120.0
            },
            {
                "start_time": 2.7795455,
                "end_time": 2.8909091,
                "pitch": 64,
                "velocity": 4,
                "duration": 0.1113636,
                "tempo": 120.0
            },
            {
                "start_time": 2.8931818,
                "end_time": 2.9181818,
                "pitch": 64,
                "velocity": 80,
                "duration": 0.025,
                "tempo": 120.0
            },
            {
                "start_time": 2.9909091,
                "end_time": 3.1863636,
                "pitch": 64,
                "velocity": 4,
                "duration": 0.1954545,
                "tempo": 120.0
            },
            {
                "start_time": 3.1863636,
                "end_time": 3.2090909,
                "pitch": 62,
                "velocity": 4,
                "duration": 0.0227273,
                "tempo": 120.0
            },
            {
                "start_time": 3.1863636,
                "end_time": 3.2090909,
                "pitch": 62,
                "velocity": 80,
                "duration": 0.0227273,
                "tempo": 120.0
            },
            {
                "start_time": 3.2772727,
                "end_time": 3.3045455,
                "pitch": 64,
                "velocity": 80,
                "duration": 0.0272727,
                "tempo": 120.0
            },
            {
                "start_time": 2.1863636,
                "end_time": 3.7840909,
                "pitch": 45,
                "velocity": 4,
                "duration": 1.5977273,
                "tempo": 120.0
            },
            {
                "start_time": 3.3727273,
                "end_time": 3.7840909,
                "pitch": 52,
                "velocity": 4,
                "duration": 0.4113636,
                "tempo": 120.0
            },
            {
                "start_time": 3.7863636,
                "end_time": 3.8136364,
                "pitch": 57,
                "velocity": 80,
                "duration": 0.0272727,
                "tempo": 120.0
            },
            {
                "start_time": 3.8863636,
                "end_time": 3.9136364,
                "pitch": 57,
                "velocity": 80,
                "duration": 0.0272727,
                "tempo": 120.0
            },
            {
                "start_time": 3.9863636,
                "end_time": 4.1886364,
                "pitch": 57,
                "velocity": 4,
                "duration": 0.2022727,
                "tempo": 120.0
            },
            {
                "start_time": 4.1886364,
                "end_time": 4.2159091,
                "pitch": 66,
                "velocity": 4,
                "duration": 0.0272727,
                "tempo": 120.0
            },
            {
                "start_time": 4.1886364,
                "end_time": 4.2159091,
                "pitch": 66,
                "velocity": 80,
                "duration": 0.0272727,
                "tempo": 120.0
            },
            {
                "start_time": 4.2909091,
                "end_time": 4.3181818,
                "pitch": 64,
                "velocity": 80,
                "duration": 0.0272727,
                "tempo": 120.0
            },
            {
                "start_time": 4.3931818,
                "end_time": 4.5,
                "pitch": 64,
                "velocity": 4,
                "duration": 0.1068182,
                "tempo": 120.0
            },
            {
                "start_time": 4.5,
                "end_time": 4.525,
                "pitch": 64,
                "velocity": 80,
                "duration": 0.025,
                "tempo": 120.0
            },
            {
                "start_time": 4.5954545,
                "end_time": 4.7954545,
                "pitch": 64,
                "velocity": 4,
                "duration": 0.2,
                "tempo": 120.0
            },
            {
                "start_time": 4.7954545,
                "end_time": 4.8227273,
                "pitch": 62,
                "velocity": 4,
                "duration": 0.0272727,
                "tempo": 120.0
            },
            {
                "start_time": 4.7977273,
                "end_time": 4.8227273,
                "pitch": 62,
                "velocity": 80,
                "duration": 0.025,
                "tempo": 120.0
            },
            {
                "start_time": 4.8909091,
                "end_time": 4.9204545,
                "pitch": 64,
                "velocity": 80,
                "duration": 0.0295455,
                "tempo": 120.0
            },
            {
                "start_time": 4.9909091,
                "end_time": 5.3909091,
                "pitch": 64,
                "velocity": 4,
                "duration": 0.4,
                "tempo": 120.0
            },
            {
                "start_time": 5.3909091,
                "end_time": 5.4204545,
                "pitch": 61,
                "velocity": 4,
                "duration": 0.0295455,
                "tempo": 120.0
            },
            {
                "start_time": 5.3909091,
                "end_time": 5.4204545,
                "pitch": 61,
                "velocity": 80,
                "duration": 0.0295455,
                "tempo": 120.0
            },
            {
                "start_time": 5.4909091,
                "end_time": 5.5204545,
                "pitch": 62,
                "velocity": 80,
                "duration": 0.0295455,
                "tempo": 120.0
            },
            {
                "start_time": 5.5977273,
                "end_time": 5.7931818,
                "pitch": 62,
                "velocity": 4,
                "duration": 0.1954545,
                "tempo": 120.0
            },
            {
                "start_time": 5.7931818,
                "end_time": 5.8227273,
                "pitch": 64,
                "velocity": 4,
                "duration": 0.0295455,
                "tempo": 120.0
            },
            {
                "start_time": 5.7931818,
                "end_time": 5.8227273,
                "pitch": 64,
                "velocity": 80,
                "duration": 0.0295455,
                "tempo": 120.0
            },
            {
                "start_time": 5.9022727,
                "end_time": 5.9295455,
                "pitch": 62,
                "velocity": 80,
                "duration": 0.0272727,
                "tempo": 120.0
            },
            {
                "start_time": 6.0045455,
                "end_time": 6.1090909,
                "pitch": 62,
                "velocity": 4,
                "duration": 0.1045455,
                "tempo": 120.0
            },
            {
                "start_time": 6.1113636,
                "end_time": 6.1409091,
                "pitch": 62,
                "velocity": 80,
                "duration": 0.0295455,
                "tempo": 120.0
            },
            {
                "start_time": 6.2136364,
                "end_time": 6.4045455,
                "pitch": 62,
                "velocity": 4,
                "duration": 0.1909091,
                "tempo": 120.0
            },
            {
                "start_time": 6.4045455,
                "end_time": 6.4340909,
                "pitch": 61,
                "velocity": 80,
                "duration": 0.0295455,
                "tempo": 120.0
            },
            {
                "start_time": 6.5022727,
                "end_time": 6.5295455,
                "pitch": 62,
                "velocity": 80,
                "duration": 0.0272727,
                "tempo": 120.0
            },
            {
                "start_time": 6.5977273,
                "end_time": 7.0022727,
                "pitch": 62,
                "velocity": 4,
                "duration": 0.4045455,
                "tempo": 120.0
            },
            {
                "start_time": 7.0022727,
                "end_time": 7.0295455,
                "pitch": 61,
                "velocity": 80,
                "duration": 0.0272727,
                "tempo": 120.0
            },
            {
                "start_time": 7.1022727,
                "end_time": 7.1318182,
                "pitch": 62,
                "velocity": 80,
                "duration": 0.0295455,
                "tempo": 120.0
            },
            {
                "start_time": 7.2,
                "end_time": 7.4045455,
                "pitch": 62,
                "velocity": 4,
                "duration": 0.2045455,
                "tempo": 120.0
            },
            {
                "start_time": 7.4045455,
                "end_time": 7.4318182,
                "pitch": 64,
                "velocity": 4,
                "duration": 0.0272727,
                "tempo": 120.0
            },
            {
                "start_time": 7.4045455,
                "end_time": 7.4318182,
                "pitch": 64,
                "velocity": 80,
                "duration": 0.0272727,
                "tempo": 120.0
            },
            {
                "start_time": 7.5068182,
                "end_time": 7.5340909,
                "pitch": 62,
                "velocity": 80,
                "duration": 0.0272727,
                "tempo": 120.0
            },
            {
                "start_time": 7.6090909,
                "end_time": 7.7136364,
                "pitch": 62,
                "velocity": 4,
                "duration": 0.1045455,
                "tempo": 120.0
            },
            {
                "start_time": 7.7136364,
                "end_time": 7.7409091,
                "pitch": 62,
                "velocity": 80,
                "duration": 0.0272727,
                "tempo": 120.0
            },
            {
                "start_time": 7.8159091,
                "end_time": 8.0113636,
                "pitch": 62,
                "velocity": 4,
                "duration": 0.1954545,
                "tempo": 120.0
            },
            {
                "start_time": 8.0136364,
                "end_time": 8.0386364,
                "pitch": 61,
                "velocity": 80,
                "duration": 0.025,
                "tempo": 120.0
            },
            {
                "start_time": 8.1113636,
                "end_time": 8.1363636,
                "pitch": 62,
                "velocity": 80,
                "duration": 0.025,
                "tempo": 120.0
            },
            {
                "start_time": 8.2090909,
                "end_time": 8.6159091,
                "pitch": 62,
                "velocity": 4,
                "duration": 0.4068182,
                "tempo": 120.0
            },
            {
                "start_time": 8.6159091,
                "end_time": 8.6454545,
                "pitch": 62,
                "velocity": 80,
                "duration": 0.0295455,
                "tempo": 120.0
            },
            {
                "start_time": 8.7159091,
                "end_time": 8.7431818,
                "pitch": 64,
                "velocity": 80,
                "duration": 0.0272727,
                "tempo": 120.0
            },
            {
                "start_time": 8.8113636,
                "end_time": 9.0113636,
                "pitch": 64,
                "velocity": 4,
                "duration": 0.2,
                "tempo": 120.0
            },
            {
                "start_time": 9.0113636,
                "end_time": 9.0386364,
                "pitch": 66,
                "velocity": 80,
                "duration": 0.0272727,
                "tempo": 120.0
            },
            {
                "start_time": 9.1136364,
                "end_time": 9.1431818,
                "pitch": 64,
                "velocity": 80,
                "duration": 0.0295455,
                "tempo": 120.0
            },
            {
                "start_time": 9.2159091,
                "end_time": 9.2454545,
                "pitch": 64,
                "velocity": 80,
                "duration": 0.0295455,
                "tempo": 120.0
            },
            {
                "start_time": 9.3227273,
                "end_time": 9.4181818,
                "pitch": 64,
                "velocity": 4,
                "duration": 0.0954545,
                "tempo": 120.0
            },
            {
                "start_time": 9.4204545,
                "end_time": 9.6204545,
                "pitch": 64,
                "velocity": 4,
                "duration": 0.2,
                "tempo": 120.0
            },
            {
                "start_time": 9.6204545,
                "end_time": 9.6454545,
                "pitch": 62,
                "velocity": 4,
                "duration": 0.025,
                "tempo": 120.0
            },
            {
                "start_time": 9.6204545,
                "end_time": 9.6454545,
                "pitch": 62,
                "velocity": 80,
                "duration": 0.025,
                "tempo": 120.0
            },
            {
                "start_time": 9.7159091,
                "end_time": 9.7431818,
                "pitch": 64,
                "velocity": 80,
                "duration": 0.0272727,
                "tempo": 120.0
            },
            {
                "start_time": 9.8136364,
                "end_time": 10.2159091,
                "pitch": 64,
                "velocity": 4,
                "duration": 0.4022727,
                "tempo": 120.0
            },
            {
                "start_time": 10.2159091,
                "end_time": 10.2477273,
                "pitch": 62,
                "velocity": 4,
                "duration": 0.0318182,
                "tempo": 120.0
            },
            {
                "start_time": 10.2181818,
                "end_time": 10.2477273,
                "pitch": 62,
                "velocity": 80,
                "duration": 0.0295455,
                "tempo": 120.0
            },
            {
                "start_time": 10.3204545,
                "end_time": 10.35,
                "pitch": 64,
                "velocity": 80,
                "duration": 0.0295455,
                "tempo": 120.0
            },
            {
                "start_time": 10.425,
                "end_time": 10.6318182,
                "pitch": 64,
                "velocity": 4,
                "duration": 0.2068182,
                "tempo": 120.0
            },
            {
                "start_time": 10.6318182,
                "end_time": 10.6590909,
                "pitch": 66,
                "velocity": 80,
                "duration": 0.0272727,
                "tempo": 120.0
            },
            {
                "start_time": 10.7340909,
                "end_time": 10.7613636,
                "pitch": 64,
                "velocity": 80,
                "duration": 0.0272727,
                "tempo": 120.0
            },
            {
                "start_time": 10.8363636,
                "end_time": 10.8636364,
                "pitch": 64,
                "velocity": 80,
                "duration": 0.0272727,
                "tempo": 120.0
            },
            {
                "start_time": 10.9409091,
                "end_time": 11.0386364,
                "pitch": 64,
                "velocity": 4,
                "duration": 0.0977273,
                "tempo": 120.0
            },
            {
                "start_time": 11.0386364,
                "end_time": 11.2409091,
                "pitch": 64,
                "velocity": 4,
                "duration": 0.2022727,
                "tempo": 120.0
            },
            {
                "start_time": 11.2409091,
                "end_time": 11.2636364,
                "pitch": 62,
                "velocity": 4,
                "duration": 0.0227273,
                "tempo": 120.0
            },
            {
                "start_time": 11.2409091,
                "end_time": 11.2636364,
                "pitch": 62,
                "velocity": 80,
                "duration": 0.0227273,
                "tempo": 120.0
            },
            {
                "start_time": 11.3363636,
                "end_time": 11.3636364,
                "pitch": 64,
                "velocity": 80,
                "duration": 0.0272727,
                "tempo": 120.0
            },
            {
                "start_time": 11.4318182,
                "end_time": 11.8363636,
                "pitch": 64,
                "velocity": 4,
                "duration": 0.4045455,
                "tempo": 120.0
            },
            {
                "start_time": 11.8363636,
                "end_time": 11.8636364,
                "pitch": 60,
                "velocity": 4,
                "duration": 0.0272727,
                "tempo": 120.0
            },
            {
                "start_time": 11.8363636,
                "end_time": 11.8636364,
                "pitch": 60,
                "velocity": 80,
                "duration": 0.0272727,
                "tempo": 120.0
            },
            {
                "start_time": 11.9363636,
                "end_time": 11.9659091,
                "pitch": 62,
                "velocity": 80,
                "duration": 0.0295455,
                "tempo": 120.0
            },
            {
                "start_time": 12.0340909,
                "end_time": 12.2363636,
                "pitch": 62,
                "velocity": 4,
                "duration": 0.2022727,
                "tempo": 120.0
            },
            {
                "start_time": 12.2363636,
                "end_time": 12.2659091,
                "pitch": 64,
                "velocity": 4,
                "duration": 0.0295455,
                "tempo": 120.0
            },
            {
                "start_time": 12.2363636,
                "end_time": 12.2659091,
                "pitch": 64,
                "velocity": 80,
                "duration": 0.0295455,
                "tempo": 120.0
            },
            {
                "start_time": 12.3363636,
                "end_time": 12.3659091,
                "pitch": 62,
                "velocity": 80,
                "duration": 0.0295455,
                "tempo": 120.0
            },
            {
                "start_time": 12.4363636,
                "end_time": 12.5386364,
                "pitch": 62,
                "velocity": 4,
                "duration": 0.1022727,
                "tempo": 120.0
            },
            {
                "start_time": 12.5386364,
                "end_time": 12.5681818,
                "pitch": 62,
                "velocity": 80,
                "duration": 0.0295455,
                "tempo": 120.0
            },
            {
                "start_time": 12.6409091,
                "end_time": 12.8454545,
                "pitch": 62,
                "velocity": 4,
                "duration": 0.2045455,
                "tempo": 120.0
            },
            {
                "start_time": 12.8454545,
                "end_time": 12.875,
                "pitch": 60,
                "velocity": 80,
                "duration": 0.0295455,
                "tempo": 120.0
            },
            {
                "start_time": 12.9545455,
                "end_time": 12.9772727,
                "pitch": 62,
                "velocity": 80,
                "duration": 0.0227273,
                "tempo": 120.0
            },
            {
                "start_time": 13.0522727,
                "end_time": 13.25,
                "pitch": 62,
                "velocity": 4,
                "duration": 0.1977273,
                "tempo": 120.0
            },
            {
                "start_time": 13.25,
                "end_time": 13.275,
                "pitch": 62,
                "velocity": 80,
                "duration": 0.025,
                "tempo": 120.0
            },
            {
                "start_time": 13.3431818,
                "end_time": 13.4431818,
                "pitch": 62,
                "velocity": 4,
                "duration": 0.1,
                "tempo": 120.0
            },
            {
                "start_time": 13.4431818,
                "end_time": 13.4727273,
                "pitch": 60,
                "velocity": 80,
                "duration": 0.0295455,
                "tempo": 120.0
            },
            {
                "start_time": 13.5454545,
                "end_time": 13.5727273,
                "pitch": 62,
                "velocity": 80,
                "duration": 0.0272727,
                "tempo": 120.0
            },
            {
                "start_time": 13.6431818,
                "end_time": 13.8454545,
                "pitch": 62,
                "velocity": 4,
                "duration": 0.2022727,
                "tempo": 120.0
            },
            {
                "start_time": 13.8454545,
                "end_time": 13.875,
                "pitch": 64,
                "velocity": 4,
                "duration": 0.0295455,
                "tempo": 120.0
            },
            {
                "start_time": 13.8477273,
                "end_time": 13.875,
                "pitch": 64,
                "velocity": 80,
                "duration": 0.0272727,
                "tempo": 120.0
            },
            {
                "start_time": 13.9477273,
                "end_time": 13.975,
                "pitch": 62,
                "velocity": 80,
                "duration": 0.0272727,
                "tempo": 120.0
            },
            {
                "start_time": 14.0454545,
                "end_time": 14.1477273,
                "pitch": 62,
                "velocity": 4,
                "duration": 0.1022727,
                "tempo": 120.0
            },
            {
                "start_time": 14.1477273,
                "end_time": 14.1772727,
                "pitch": 62,
                "velocity": 80,
                "duration": 0.0295455,
                "tempo": 120.0
            },
            {
                "start_time": 14.2477273,
                "end_time": 14.35,
                "pitch": 62,
                "velocity": 4,
                "duration": 0.1022727,
                "tempo": 120.0
            },
            {
                "start_time": 14.35,
                "end_time": 14.3772727,
                "pitch": 62,
                "velocity": 80,
                "duration": 0.0272727,
                "tempo": 120.0
            },
            {
                "start_time": 14.45,
                "end_time": 14.4772727,
                "pitch": 60,
                "velocity": 80,
                "duration": 0.0272727,
                "tempo": 120.0
            },
            {
                "start_time": 14.5545455,
                "end_time": 14.5795455,
                "pitch": 62,
                "velocity": 80,
                "duration": 0.025,
                "tempo": 120.0
            },
            {
                "start_time": 15.4545455,
                "end_time": 15.6568182,
                "pitch": 62,
                "velocity": 4,
                "duration": 0.2022727,
                "tempo": 120.0
            },
            {
                "start_time": 15.6568182,
                "end_time": 15.6863636,
                "pitch": 62,
                "velocity": 80,
                "duration": 0.0295455,
                "tempo": 120.0
            },
            {
                "start_time": 15.7613636,
                "end_time": 15.7863636,
                "pitch": 62,
                "velocity": 80,
                "duration": 0.025,
                "tempo": 120.0
            },
            {
                "start_time": 15.8568182,
                "end_time": 15.8863636,
                "pitch": 62,
                "velocity": 80,
                "duration": 0.0295455,
                "tempo": 120.0
            },
            {
                "start_time": 15.9590909,
                "end_time": 15.9863636,
                "pitch": 59,
                "velocity": 80,
                "duration": 0.0272727,
                "tempo": 120.0
            },
            {
                "start_time": 16.0613636,
                "end_time": 16.1590909,
                "pitch": 59,
                "velocity": 4,
                "duration": 0.0977273,
                "tempo": 120.0
            },
            {
                "start_time": 16.1590909,
                "end_time": 16.1863636,
                "pitch": 59,
                "velocity": 80,
                "duration": 0.0272727,
                "tempo": 120.0
            },
            {
                "start_time": 17.0613636,
                "end_time": 17.2727273,
                "pitch": 64,
                "velocity": 4,
                "duration": 0.2113636,
                "tempo": 120.0
            },
            {
                "start_time": 17.2727273,
                "end_time": 17.3045455,
                "pitch": 64,
                "velocity": 80,
                "duration": 0.0318182,
                "tempo": 120.0
            },
            {
                "start_time": 17.3818182,
                "end_time": 17.4840909,
                "pitch": 64,
                "velocity": 4,
                "duration": 0.1022727,
                "tempo": 120.0
            },
            {
                "start_time": 17.4840909,
                "end_time": 17.5136364,
                "pitch": 62,
                "velocity": 4,
                "duration": 0.0295455,
                "tempo": 120.0
            },
            {
                "start_time": 17.4840909,
                "end_time": 17.5136364,
                "pitch": 62,
                "velocity": 80,
                "duration": 0.0295455,
                "tempo": 120.0
            },
            {
                "start_time": 17.5818182,
                "end_time": 17.6113636,
                "pitch": 64,
                "velocity": 80,
                "duration": 0.0295455,
                "tempo": 120.0
            },
            {
                "start_time": 17.6840909,
                "end_time": 17.7795455,
                "pitch": 64,
                "velocity": 4,
                "duration": 0.0954545,
                "tempo": 120.0
            },
            {
                "start_time": 17.7795455,
                "end_time": 17.8068182,
                "pitch": 64,
                "velocity": 80,
                "duration": 0.0272727,
                "tempo": 120.0
            },
            {
                "start_time": 18.6886364,
                "end_time": 18.8863636,
                "pitch": 66,
                "velocity": 4,
                "duration": 0.1977273,
                "tempo": 120.0
            },
            {
                "start_time": 18.8886364,
                "end_time": 18.9159091,
                "pitch": 66,
                "velocity": 80,
                "duration": 0.0272727,
                "tempo": 120.0
            },
            {
                "start_time": 18.9840909,
                "end_time": 19.0863636,
                "pitch": 66,
                "velocity": 4,
                "duration": 0.1022727,
                "tempo": 120.0
            },
            {
                "start_time": 19.0863636,
                "end_time": 19.1136364,
                "pitch": 64,
                "velocity": 80,
                "duration": 0.0272727,
                "tempo": 120.0
            },
            {
                "start_time": 19.1863636,
                "end_time": 19.2136364,
                "pitch": 66,
                "velocity": 80,
                "duration": 0.0272727,
                "tempo": 120.0
            },
            {
                "start_time": 19.2863636,
                "end_time": 19.3909091,
                "pitch": 66,
                "velocity": 4,
                "duration": 0.1045455,
                "tempo": 120.0
            },
            {
                "start_time": 19.3909091,
                "end_time": 19.4136364,
                "pitch": 64,
                "velocity": 80,
                "duration": 0.0227273,
                "tempo": 120.0
            },
            {
                "start_time": 21.8977273,
                "end_time": 22.0977273,
                "pitch": 62,
                "velocity": 4,
                "duration": 0.2,
                "tempo": 120.0
            },
            {
                "start_time": 22.0977273,
                "end_time": 22.1272727,
                "pitch": 62,
                "velocity": 4,
                "duration": 0.0295455,
                "tempo": 120.0
            },
            {
                "start_time": 22.2022727,
                "end_time": 22.3,
                "pitch": 62,
                "velocity": 4,
                "duration": 0.0977273,
                "tempo": 120.0
            },
            {
                "start_time": 22.3,
                "end_time": 22.3295455,
                "pitch": 62,
                "velocity": 4,
                "duration": 0.0295455,
                "tempo": 120.0
            },
            {
                "start_time": 22.4,
                "end_time": 22.4295455,
                "pitch": 62,
                "velocity": 4,
                "duration": 0.0295455,
                "tempo": 120.0
            },
            {
                "start_time": 22.5045455,
                "end_time": 22.7045455,
                "pitch": 62,
                "velocity": 4,
                "duration": 0.2,
                "tempo": 120.0
            },
            {
                "start_time": 22.7045455,
                "end_time": 23.7045455,
                "pitch": 64,
                "velocity": 4,
                "duration": 1.0,
                "tempo": 120.0
            },
            {
                "start_time": 23.5045455,
                "end_time": 23.7045455,
                "pitch": 64,
                "velocity": 4,
                "duration": 0.2,
                "tempo": 120.0
            },
            {
                "start_time": 23.7045455,
                "end_time": 23.7340909,
                "pitch": 61,
                "velocity": 4,
                "duration": 0.0295455,
                "tempo": 120.0
            },
            {
                "start_time": 23.7045455,
                "end_time": 23.7340909,
                "pitch": 61,
                "velocity": 80,
                "duration": 0.0295455,
                "tempo": 120.0
            },
            {
                "start_time": 23.8090909,
                "end_time": 23.9045455,
                "pitch": 61,
                "velocity": 4,
                "duration": 0.0954545,
                "tempo": 120.0
            },
            {
                "start_time": 23.9045455,
                "end_time": 23.9340909,
                "pitch": 59,
                "velocity": 80,
                "duration": 0.0295455,
                "tempo": 120.0
            },
            {
                "start_time": 24.0045455,
                "end_time": 24.0340909,
                "pitch": 61,
                "velocity": 80,
                "duration": 0.0295455,
                "tempo": 120.0
            },
            {
                "start_time": 24.1113636,
                "end_time": 24.3113636,
                "pitch": 61,
                "velocity": 4,
                "duration": 0.2,
                "tempo": 120.0
            },
            {
                "start_time": 24.3113636,
                "end_time": 25.3272727,
                "pitch": 65,
                "velocity": 4,
                "duration": 1.0159091,
                "tempo": 120.0
            },
            {
                "start_time": 25.1295455,
                "end_time": 25.3272727,
                "pitch": 65,
                "velocity": 4,
                "duration": 0.1977273,
                "tempo": 120.0
            },
            {
                "start_time": 25.3272727,
                "end_time": 25.3545455,
                "pitch": 62,
                "velocity": 4,
                "duration": 0.0272727,
                "tempo": 120.0
            },
            {
                "start_time": 25.3272727,
                "end_time": 25.3545455,
                "pitch": 62,
                "velocity": 80,
                "duration": 0.0272727,
                "tempo": 120.0
            },
            {
                "start_time": 25.4272727,
                "end_time": 25.525,
                "pitch": 62,
                "velocity": 4,
                "duration": 0.0977273,
                "tempo": 120.0
            },
            {
                "start_time": 25.525,
                "end_time": 25.5522727,
                "pitch": 62,
                "velocity": 80,
                "duration": 0.0272727,
                "tempo": 120.0
            },
            {
                "start_time": 25.6272727,
                "end_time": 25.6568182,
                "pitch": 62,
                "velocity": 80,
                "duration": 0.0295455,
                "tempo": 120.0
            },
            {
                "start_time": 25.7340909,
                "end_time": 25.8340909,
                "pitch": 62,
                "velocity": 4,
                "duration": 0.1,
                "tempo": 120.0
            },
            {
                "start_time": 25.8363636,
                "end_time": 25.8613636,
                "pitch": 62,
                "velocity": 80,
                "duration": 0.025,
                "tempo": 120.0
            }
        ],
        "Lead 2 (sawtooth)": [
            {
                "start_time": 0.025,
                "end_time": 0.2931818,
                "pitch": 54,
                "velocity": 80,
                "duration": 0.2681818,
                "tempo": 120.0
            },
            {
                "start_time": 0.3431818,
                "end_time": 0.6204545,
                "pitch": 57,
                "velocity": 80,
                "duration": 0.2772727,
                "tempo": 120.0
            },
            {
                "start_time": 0.6681818,
                "end_time": 0.8590909,
                "pitch": 61,
                "velocity": 80,
                "duration": 0.1909091,
                "tempo": 120.0
            },
            {
                "start_time": 0.8886364,
                "end_time": 1.1704545,
                "pitch": 61,
                "velocity": 80,
                "duration": 0.2818182,
                "tempo": 120.0
            },
            {
                "start_time": 1.2227273,
                "end_time": 1.5022727,
                "pitch": 64,
                "velocity": 80,
                "duration": 0.2795455,
                "tempo": 120.0
            },
            {
                "start_time": 1.55,
                "end_time": 1.7363636,
                "pitch": 69,
                "velocity": 80,
                "duration": 0.1863636,
                "tempo": 120.0
            },
            {
                "start_time": 1.7590909,
                "end_time": 32.1659091,
                "pitch": 0,
                "velocity": 127,
                "duration": 30.4068182,
                "tempo": 120.0
            }
        ]
    }
}