{
    "mood": "happy",
    "instruments": {
        "Church Organ": [
            {
                "start_time": 0.0,
                "end_time": 0.1,
                "pitch": 82,
                "velocity": 64,
                "duration": 0.1,
                "tempo": 120.0
            },
            {
                "start_time": 0.1181818,
                "end_time": 0.2340909,
                "pitch": 82,
                "velocity": 64,
                "duration": 0.1159091,
                "tempo": 120.0
            },
            {
                "start_time": 0.2522727,
                "end_time": 0.3681818,
                "pitch": 82,
                "velocity": 64,
                "duration": 0.1159091,
                "tempo": 120.0
            },
            {
                "start_time": 0.3863636,
                "end_time": 0.6363636,
                "pitch": 84,
                "velocity": 64,
                "duration": 0.25,
                "tempo": 120.0
            },
            {
                "start_time": 0.6545455,
                "end_time": 0.7704545,
                "pitch": 84,
                "velocity": 64,
                "duration": 0.1159091,
                "tempo": 120.0
            },
            {
                "start_time": 0.7886364,
                "end_time": 1.2840909,
                "pitch": 86,
                "velocity": 64,
                "duration": 0.4954545,
                "tempo": 120.0
            },
            {
                "start_time": 1.3181818,
                "end_time": 1.5522727,
                "pitch": 86,
                "velocity": 64,
                "duration": 0.2340909,
                "tempo": 120.0
            },
            {
                "start_time": 1.5863636,
                "end_time": 2.0886364,
                "pitch": 84,
                "velocity": 64,
                "duration": 0.5022727,
                "tempo": 120.0
            },
            {
                "start_time": 2.1227273,
                "end_time": 2.3590909,
                "pitch": 84,
                "velocity": 64,
                "duration": 0.2363636,
                "tempo": 120.0
            },
            {
                "start_time": 2.3909091,
                "end_time": 2.6227273,
                "pitch": 82,
                "velocity": 64,
                "duration": 0.2318182,
                "tempo": 120.0
            },
            {
                "start_time": 2.6568182,
                "end_time": 2.8886364,
                "pitch": 82,
                "velocity": 64,
                "duration": 0.2318182,
                "tempo": 120.0
            },
            {
                "start_time": 2.9204545,
                "end_time": 3.1522727,
                "pitch": 82,
                "velocity": 64,
                "duration": 0.2318182,
                "tempo": 120.0
            },
            {
                "start_time": 3.1863636,
                "end_time": 3.6818182,
                "pitch": 84,
                "velocity": 64,
                "duration": 0.4954545,
                "tempo": 120.0
            },
            {
                "start_time": 3.7159091,
                "end_time": 3.9477273,
                "pitch": 84,
                "velocity": 64,
                "duration": 0.2318182,
                "tempo": 120.0
            },
            {
                "start_time": 3.9795455,
                "end_time": 4.4840909,
                "pitch": 86,
                "velocity": 64,
                "duration": 0.5045455,
                "tempo": 120.0
            },
            {
                "start_time": 4.5181818,
                "end_time": 4.7522727,
                "pitch": 86,
                "velocity": 64,
                "duration": 0.2340909,
                "tempo": 120.0
            },
            {
                "start_time": 4.7863636,
                "end_time": 5.2886364,
                "pitch": 86,
                "velocity": 64,
                "duration": 0.5022727,
                "tempo": 120.0
            },
            {
                "start_time": 5.3227273,
                "end_time": 5.5568182,
                "pitch": 86,
                "velocity": 64,
                "duration": 0.2340909,
                "tempo": 120.0
            },
            {
                "start_time": 5.5909091,
                "end_time": 8.8181818,
                "pitch": 87,
                "velocity": 64,
                "duration": 3.2272727,
                "tempo": 120.0
            }
        ],
        "Acoustic Bass": [
            {
                "start_time": 0.0,
                "end_time": 0.1,
                "pitch": 79,
                "velocity": 51,
                "duration": 0.1,
                "tempo": 120.0
            },
            {
                "start_time": 0.1181818,
                "end_time": 0.2340909,
                "pitch": 79,
                "velocity": 51,
                "duration": 0.1159091,
                "tempo": 120.0
            },
            {
                "start_time": 0.2522727,
                "end_time": 0.3681818,
                "pitch": 79,
                "velocity": 51,
                "duration": 0.1159091,
                "tempo": 120.0
            },
            {
                "start_time": 0.3863636,
                "end_time": 0.6363636,
                "pitch": 80,
                "velocity": 51,
                "duration": 0.25,
                "tempo": 120.0
            },
            {
                "start_time": 0.6545455,
                "end_time": 0.7704545,
                "pitch": 80,
                "velocity": 51,
                "duration": 0.1159091,
                "tempo": 120.0
            },
            {
                "start_time": 0.7886364,
                "end_time": 1.2840909,
                "pitch": 82,
                "velocity": 51,
                "duration": 0.4954545,
                "tempo": 120.0
            },
            {
                "start_time": 1.3181818,
                "end_time": 1.5522727,
                "pitch": 82,
                "velocity": 51,
                "duration": 0.2340909,
                "tempo": 120.0
            },
            {
                "start_time": 1.5863636,
                "end_time": 2.0886364,
                "pitch": 80,
                "velocity": 51,
                "duration": 0.5022727,
                "tempo": 120.0
            },
            {
                "start_time": 2.1227273,
                "end_time": 2.3590909,
                "pitch": 80,
                "velocity": 51,
                "duration": 0.2363636,
                "tempo": 120.0
            },
            {
                "start_time": 2.3909091,
                "end_time": 2.6227273,
                "pitch": 79,
                "velocity": 51,
                "duration": 0.2318182,
                "tempo": 120.0
            },
            {
                "start_time": 2.6568182,
                "end_time": 2.8886364,
                "pitch": 79,
                "velocity": 51,
                "duration": 0.2318182,
                "tempo": 120.0
            },
            {
                "start_time": 2.9204545,
                "end_time": 3.1522727,
                "pitch": 79,
                "velocity": 51,
                "duration": 0.2318182,
                "tempo": 120.0
            },
            {
                "start_time": 3.1863636,
                "end_time": 3.6818182,
                "pitch": 80,
                "velocity": 51,
                "duration": 0.4954545,
                "tempo": 120.0
            },
            {
                "start_time": 3.7159091,
                "end_time": 3.9477273,
                "pitch": 80,
                "velocity": 51,
                "duration": 0.2318182,
                "tempo": 120.0
            },
            {
                "start_time": 3.9795455,
                "end_time": 4.4840909,
                "pitch": 82,
                "velocity": 51,
                "duration": 0.5045455,
                "tempo": 120.0
            },
            {
                "start_time": 4.5181818,
                "end_time": 4.7522727,
                "pitch": 82,
                "velocity": 51,
                "duration": 0.2340909,
                "tempo": 120.0
            },
            {
                "start_time": 4.7863636,
                "end_time": 5.2886364,
                "pitch": 82,
                "velocity": 51,
                "duration": 0.5022727,
                "tempo": 120.0
            },
            {
                "start_time": 5.3227273,
                "end_time": 5.5568182,
                "pitch": 82,
                "velocity": 51,
                "duration": 0.2340909,
                "tempo": 120.0
            },
            {
                "start_time": 5.5909091,
                "end_time": 8.8181818,
                "pitch": 82,
                "velocity": 51,
                "duration": 3.2272727,
                "tempo": 120.0
            }
        ],
        "Flute": [
            {
                "start_time": 0.0,
                "end_time": 0.1,
                "pitch": 75,
                "velocity": 40,
                "duration": 0.1,
                "tempo": 120.0
            },
            {
                "start_time": 0.1181818,
                "end_time": 0.2340909,
                "pitch": 75,
                "velocity": 40,
                "duration": 0.1159091,
                "tempo": 120.0
            },
            {
                "start_time": 0.2522727,
                "end_time": 0.3681818,
                "pitch": 75,
                "velocity": 40,
                "duration": 0.1159091,
                "tempo": 120.0
            },
            {
                "start_time": 0.3863636,
                "end_time": 0.6363636,
                "pitch": 77,
                "velocity": 40,
                "duration": 0.25,
                "tempo": 120.0
            },
            {
                "start_time": 0.6545455,
                "end_time": 0.7704545,
                "pitch": 77,
                "velocity": 40,
                "duration": 0.1159091,
                "tempo": 120.0
            },
            {
                "start_time": 0.7886364,
                "end_time": 1.2840909,
                "pitch": 77,
                "velocity": 40,
                "duration": 0.4954545,
                "tempo": 120.0
            },
            {
                "start_time": 1.3181818,
                "end_time": 1.5522727,
                "pitch": 77,
                "velocity": 40,
                "duration": 0.2340909,
                "tempo": 120.0
            },
            {
                "start_time": 1.5863636,
                "end_time": 2.0886364,
                "pitch": 75,
                "velocity": 40,
                "duration": 0.5022727,
                "tempo": 120.0
            },
            {
                "start_time": 2.1227273,
                "end_time": 2.3590909,
                "pitch": 75,
                "velocity": 40,
                "duration": 0.2363636,
                "tempo": 120.0
            },
            {
                "start_time": 2.3909091,
                "end_time": 2.6227273,
                "pitch": 75,
                "velocity": 40,
                "duration": 0.2318182,
                "tempo": 120.0
            },
            {
                "start_time": 2.6568182,
                "end_time": 2.8886364,
                "pitch": 75,
                "velocity": 40,
                "duration": 0.2318182,
                "tempo": 120.0
            },
            {
                "start_time": 2.9204545,
                "end_time": 3.1522727,
                "pitch": 75,
                "velocity": 40,
                "duration": 0.2318182,
                "tempo": 120.0
            },
            {
                "start_time": 3.1863636,
                "end_time": 3.6818182,
                "pitch": 77,
                "velocity": 40,
                "duration": 0.4954545,
                "tempo": 120.0
            },
            {
                "start_time": 3.7159091,
                "end_time": 3.9477273,
                "pitch": 77,
                "velocity": 40,
                "duration": 0.2318182,
                "tempo": 120.0
            },
            {
                "start_time": 3.9795455,
                "end_time": 4.4840909,
                "pitch": 77,
                "velocity": 40,
                "duration": 0.5045455,
                "tempo": 120.0
            },
            {
                "start_time": 4.5181818,
                "end_time": 4.7522727,
                "pitch": 77,
                "velocity": 40,
                "duration": 0.2340909,
                "tempo": 120.0
            },
            {
                "start_time": 4.7863636,
                "end_time": 5.2886364,
                "pitch": 77,
                "velocity": 40,
                "duration": 0.5022727,
                "tempo": 120.0
            },
            {
                "start_time": 5.3227273,
                "end_time": 5.5568182,
                "pitch": 77,
                "velocity": 40,
                "duration": 0.2340909,
                "tempo": 120.0
            },
            {
                "start_time": 5.5909091,
                "end_time": 8.8181818,
                "pitch": 79,
                "velocity": 40,
                "duration": 3.2272727,
                "tempo": 120.0
            }
        ]
    }
}