{
    "mood": "happy",
    "instruments": {
        "Electric Piano 1": [
            {
                "start_time": 0.7318182,
                "end_time": 1.2113636,
                "pitch": 67,
                "velocity": 32,
                "duration": 0.4795455,
                "tempo": 120.0
            },
            {
                "start_time": 1.2113636,
                "end_time": 1.6795455,
                "pitch": 55,
                "velocity": 32,
                "duration": 0.4681818,
                "tempo": 120.0
            },
            {
                "start_time": 1.6795455,
                "end_time": 2.1681818,
                "pitch": 62,
                "velocity": 32,
                "duration": 0.4886364,
                "tempo": 120.0
            },
            {
                "start_time": 2.1681818,
                "end_time": 2.6613636,
                "pitch": 55,
                "velocity": 32,
                "duration": 0.4931818,
                "tempo": 120.0
            },
            {
                "start_time": 2.6613636,
                "end_time": 3.1431818,
                "pitch": 67,
                "velocity": 32,
                "duration": 0.4818182,
                "tempo": 120.0
            },
            {
                "start_time": 3.1431818,
                "end_time": 3.3727273,
                "pitch": 55,
                "velocity": 32,
                "duration": 0.2295455,
                "tempo": 120.0
            },
            {
                "start_time": 3.3727273,
                "end_time": 3.8590909,
                "pitch": 62,
                "velocity": 32,
                "duration": 0.4863636,
                "tempo": 120.0
            },
            {
                "start_time": 3.8590909,
                "end_time": 4.0954545,
                "pitch": 55,
                "velocity": 32,
                "duration": 0.2363636,
                "tempo": 120.0
            },
            {
                "start_time": 4.0954545,
                "end_time": 4.3522727,
                "pitch": 62,
                "velocity": 32,
                "duration": 0.2568182,
                "tempo": 120.0
            },
            {
                "start_time": 4.3522727,
                "end_time": 4.5863636,
                "pitch": 67,
                "velocity": 32,
                "duration": 0.2340909,
                "tempo": 120.0
            },
            {
                "start_time": 5.0704545,
                "end_time": 5.55,
                "pitch": 55,
                "velocity": 32,
                "duration": 0.4795455,
                "tempo": 120.0
            },
            {
                "start_time": 5.55,
                "end_time": 6.0363636,
                "pitch": 60,
                "velocity": 32,
                "duration": 0.4863636,
                "tempo": 120.0
            },
            {
                "start_time": 6.0363636,
                "end_time": 6.5113636,
                "pitch": 55,
                "velocity": 32,
                "duration": 0.475,
                "tempo": 120.0
            },
            {
                "start_time": 6.5113636,
                "end_time": 7.0022727,
                "pitch": 67,
                "velocity": 32,
                "duration": 0.4909091,
                "tempo": 120.0
            },
            {
                "start_time": 7.0022727,
                "end_time": 7.2590909,
                "pitch": 55,
                "velocity": 32,
                "duration": 0.2568182,
                "tempo": 120.0
            },
            {
                "start_time": 7.2590909,
                "end_time": 7.7272727,
                "pitch": 60,
                "velocity": 32,
                "duration": 0.4681818,
                "tempo": 120.0
            },
            {
                "start_time": 7.7272727,
                "end_time": 7.9659091,
                "pitch": 55,
                "velocity": 32,
                "duration": 0.2386364,
                "tempo": 120.0
            },
            {
                "start_time": 7.9659091,
                "end_time": 8.1909091,
                "pitch": 60,
                "velocity": 32,
                "duration": 0.225,
                "tempo": 120.0
            },
            {
                "start_time": 8.1909091,
                "end_time": 8.4477273,
                "pitch": 67,
                "velocity": 32,
                "duration": 0.2568182,
                "tempo": 120.0
            },
            {
                "start_time": 8.9227273,
                "end_time": 9.4136364,
                "pitch": 53,
                "velocity": 32,
                "duration": 0.4909091,
                "tempo": 120.0
            },
            {
                "start_time": 9.4136364,
                "end_time": 9.9045455,
                "pitch": 60,
                "velocity": 32,
                "duration": 0.4909091,
                "tempo": 120.0
            },
            {
                "start_time": 9.9045455,
                "end_time": 10.3840909,
                "pitch": 53,
                "velocity": 32,
                "duration": 0.4795455,
                "tempo": 120.0
            },
            {
                "start_time": 10.3840909,
                "end_time": 10.8659091,
                "pitch": 67,
                "velocity": 32,
                "duration": 0.4818182,
                "tempo": 120.0
            },
            {
                "start_time": 10.8659091,
                "end_time": 11.1022727,
                "pitch": 53,
                "velocity": 32,
                "duration": 0.2363636,
                "tempo": 120.0
            },
            {
                "start_time": 11.1022727,
                "end_time": 11.6,
                "pitch": 60,
                "velocity": 32,
                "duration": 0.4977273,
                "tempo": 120.0
            },
            {
                "start_time": 11.6,
                "end_time": 11.8318182,
                "pitch": 53,
                "velocity": 32,
                "duration": 0.2318182,
                "tempo": 120.0
            },
            {
                "start_time": 11.8318182,
                "end_time": 12.0818182,
                "pitch": 60,
                "velocity": 32,
                "duration": 0.25,
                "tempo": 120.0
            },
            {
                "start_time": 12.0818182,
                "end_time": 12.3159091,
                "pitch": 67,
                "velocity": 32,
                "duration": 0.2340909,
                "tempo": 120.0
            },
            {
                "start_time": 12.7977273,
                "end_time": 13.2840909,
                "pitch": 53,
                "velocity": 32,
                "duration": 0.4863636,
                "tempo": 120.0
            },
            {
                "start_time": 13.2840909,
                "end_time": 13.7590909,
                "pitch": 60,
                "velocity": 32,
                "duration": 0.475,
                "tempo": 120.0
            },
            {
                "start_time": 13.7590909,
                "end_time": 14.2522727,
                "pitch": 53,
                "velocity": 32,
                "duration": 0.4931818,
                "tempo": 120.0
            },
            {
                "start_time": 14.2522727,
                "end_time": 14.7431818,
                "pitch": 67,
                "velocity": 32,
                "duration": 0.4909091,
                "tempo": 120.0
            },
            {
                "start_time": 14.7431818,
                "end_time": 14.9795455,
                "pitch": 53,
                "velocity": 32,
                "duration": 0.2363636,
                "tempo": 120.0
            },
            {
                "start_time": 14.9795455,
                "end_time": 15.4568182,
                "pitch": 60,
                "velocity": 32,
                "duration": 0.4772727,
                "tempo": 120.0
            },
            {
                "start_time": 16.1772727,
                "end_time": 16.6659091,
                "pitch": 67,
                "velocity": 32,
                "duration": 0.4886364,
                "tempo": 120.0
            },
            {
                "start_time": 16.6659091,
                "end_time": 17.1568182,
                "pitch": 55,
                "velocity": 32,
                "duration": 0.4909091,
                "tempo": 120.0
            },
            {
                "start_time": 17.1568182,
                "end_time": 17.6363636,
                "pitch": 62,
                "velocity": 32,
                "duration": 0.4795455,
                "tempo": 120.0
            },
            {
                "start_time": 17.6363636,
                "end_time": 18.1181818,
                "pitch": 55,
                "velocity": 32,
                "duration": 0.4818182,
                "tempo": 120.0
            },
            {
                "start_time": 18.1181818,
                "end_time": 18.5931818,
                "pitch": 67,
                "velocity": 32,
                "duration": 0.475,
                "tempo": 120.0
            },
            {
                "start_time": 18.5931818,
                "end_time": 18.85,
                "pitch": 55,
                "velocity": 32,
                "duration": 0.2568182,
                "tempo": 120.0
            },
            {
                "start_time": 18.85,
                "end_time": 19.3386364,
                "pitch": 62,
                "velocity": 32,
                "duration": 0.4886364,
                "tempo": 120.0
            },
            {
                "start_time": 19.3386364,
                "end_time": 19.5727273,
                "pitch": 55,
                "velocity": 32,
                "duration": 0.2340909,
                "tempo": 120.0
            },
            {
                "start_time": 19.5727273,
                "end_time": 19.8090909,
                "pitch": 62,
                "velocity": 32,
                "duration": 0.2363636,
                "tempo": 120.0
            },
            {
                "start_time": 19.8090909,
                "end_time": 20.0545455,
                "pitch": 67,
                "velocity": 32,
                "duration": 0.2454545,
                "tempo": 120.0
            },
            {
                "start_time": 20.5409091,
                "end_time": 21.0159091,
                "pitch": 55,
                "velocity": 32,
                "duration": 0.475,
                "tempo": 120.0
            },
            {
                "start_time": 21.0159091,
                "end_time": 21.5022727,
                "pitch": 60,
                "velocity": 32,
                "duration": 0.4863636,
                "tempo": 120.0
            },
            {
                "start_time": 21.5022727,
                "end_time": 21.9909091,
                "pitch": 55,
                "velocity": 32,
                "duration": 0.4886364,
                "tempo": 120.0
            },
            {
                "start_time": 21.9909091,
                "end_time": 22.4772727,
                "pitch": 67,
                "velocity": 32,
                "duration": 0.4863636,
                "tempo": 120.0
            },
            {
                "start_time": 22.4772727,
                "end_time": 22.7068182,
                "pitch": 55,
                "velocity": 32,
                "duration": 0.2295455,
                "tempo": 120.0
            },
            {
                "start_time": 22.7090909,
                "end_time": 23.1977273,
                "pitch": 60,
                "velocity": 32,
                "duration": 0.4886364,
                "tempo": 120.0
            },
            {
                "start_time": 23.1977273,
                "end_time": 23.4318182,
                "pitch": 55,
                "velocity": 32,
                "duration": 0.2340909,
                "tempo": 120.0
            },
            {
                "start_time": 23.4318182,
                "end_time": 23.6840909,
                "pitch": 60,
                "velocity": 32,
                "duration": 0.2522727,
                "tempo": 120.0
            },
            {
                "start_time": 23.6840909,
                "end_time": 23.9227273,
                "pitch": 67,
                "velocity": 32,
                "duration": 0.2386364,
                "tempo": 120.0
            },
            {
                "start_time": 24.4136364,
                "end_time": 24.8954545,
                "pitch": 53,
                "velocity": 32,
                "duration": 0.4818182,
                "tempo": 120.0
            },
            {
                "start_time": 24.8954545,
                "end_time": 25.375,
                "pitch": 60,
                "velocity": 32,
                "duration": 0.4795455,
                "tempo": 120.0
            },
            {
                "start_time": 25.3772727,
                "end_time": 25.85,
                "pitch": 53,
                "velocity": 32,
                "duration": 0.4727273,
                "tempo": 120.0
            },
            {
                "start_time": 25.85,
                "end_time": 26.3409091,
                "pitch": 67,
                "velocity": 32,
                "duration": 0.4909091,
                "tempo": 120.0
            },
            {
                "start_time": 26.3409091,
                "end_time": 26.5931818,
                "pitch": 53,
                "velocity": 32,
                "duration": 0.2522727,
                "tempo": 120.0
            },
            {
                "start_time": 26.5931818,
                "end_time": 27.0659091,
                "pitch": 60,
                "velocity": 32,
                "duration": 0.4727273,
                "tempo": 120.0
            },
            {
                "start_time": 27.0659091,
                "end_time": 27.3113636,
                "pitch": 53,
                "velocity": 32,
                "duration": 0.2454545,
                "tempo": 120.0
            },
            {
                "start_time": 27.3113636,
                "end_time": 27.5409091,
                "pitch": 60,
                "velocity": 32,
                "duration": 0.2295455,
                "tempo": 120.0
            },
            {
                "start_time": 27.5409091,
                "end_time": 27.7977273,
                "pitch": 67,
                "velocity": 32,
                "duration": 0.2568182,
                "tempo": 120.0
            },
            {
                "start_time": 28.2727273,
                "end_time": 28.7590909,
                "pitch": 53,
                "velocity": 32,
                "duration": 0.4863636,
                "tempo": 120.0
            },
            {
                "start_time": 28.7590909,
                "end_time": 29.25,
                "pitch": 60,
                "velocity": 32,
                "duration": 0.4909091,
                "tempo": 120.0
            },
            {
                "start_time": 29.2522727,
                "end_time": 29.7318182,
                "pitch": 53,
                "velocity": 32,
                "duration": 0.4795455,
                "tempo": 120.0
            },
            {
                "start_time": 29.7318182,
                "end_time": 30.2113636,
                "pitch": 67,
                "velocity": 32,
                "duration": 0.4795455,
                "tempo": 120.0
            },
            {
                "start_time": 30.2136364,
                "end_time": 30.4522727,
                "pitch": 53,
                "velocity": 32,
                "duration": 0.2386364,
                "tempo": 120.0
            },
            {
                "start_time": 30.4522727,
                "end_time": 30.9409091,
                "pitch": 60,
                "velocity": 32,
                "duration": 0.4886364,
                "tempo": 120.0
            },
            {
                "start_time": 31.6659091,
                "end_time": 32.1522727,
                "pitch": 67,
                "velocity": 32,
                "duration": 0.4863636,
                "tempo": 120.0
            },
            {
                "start_time": 32.1522727,
                "end_time": 32.6363636,
                "pitch": 55,
                "velocity": 32,
                "duration": 0.4840909,
                "tempo": 120.0
            },
            {
                "start_time": 32.6363636,
                "end_time": 33.1022727,
                "pitch": 62,
                "velocity": 32,
                "duration": 0.4659091,
                "tempo": 120.0
            },
            {
                "start_time": 33.1045455,
                "end_time": 33.5931818,
                "pitch": 55,
                "velocity": 32,
                "duration": 0.4886364,
                "tempo": 120.0
            },
            {
                "start_time": 33.5931818,
                "end_time": 34.0840909,
                "pitch": 67,
                "velocity": 32,
                "duration": 0.4909091,
                "tempo": 120.0
            },
            {
                "start_time": 34.0840909,
                "end_time": 34.3181818,
                "pitch": 55,
                "velocity": 32,
                "duration": 0.2340909,
                "tempo": 120.0
            },
            {
                "start_time": 34.3181818,
                "end_time": 34.7954545,
                "pitch": 62,
                "velocity": 32,
                "duration": 0.4772727,
                "tempo": 120.0
            },
            {
                "start_time": 34.7954545,
                "end_time": 35.0454545,
                "pitch": 55,
                "velocity": 32,
                "duration": 0.25,
                "tempo": 120.0
            },
            {
                "start_time": 35.0454545,
                "end_time": 35.2818182,
                "pitch": 62,
                "velocity": 32,
                "duration": 0.2363636,
                "tempo": 120.0
            },
            {
                "start_time": 35.2818182,
                "end_time": 35.5204545,
                "pitch": 67,
                "velocity": 32,
                "duration": 0.2386364,
                "tempo": 120.0
            },
            {
                "start_time": 36.0113636,
                "end_time": 36.5,
                "pitch": 55,
                "velocity": 32,
                "duration": 0.4886364,
                "tempo": 120.0
            },
            {
                "start_time": 36.5,
                "end_time": 36.9795455,
                "pitch": 60,
                "velocity": 32,
                "duration": 0.4795455,
                "tempo": 120.0
            },
            {
                "start_time": 36.9795455,
                "end_time": 37.4613636,
                "pitch": 55,
                "velocity": 32,
                "duration": 0.4818182,
                "tempo": 120.0
            },
            {
                "start_time": 37.4613636,
                "end_time": 37.9363636,
                "pitch": 67,
                "velocity": 32,
                "duration": 0.475,
                "tempo": 120.0
            },
            {
                "start_time": 37.9363636,
                "end_time": 38.1886364,
                "pitch": 55,
                "velocity": 32,
                "duration": 0.2522727,
                "tempo": 120.0
            },
            {
                "start_time": 38.1886364,
                "end_time": 38.6840909,
                "pitch": 60,
                "velocity": 32,
                "duration": 0.4954545,
                "tempo": 120.0
            },
            {
                "start_time": 38.6863636,
                "end_time": 38.9181818,
                "pitch": 55,
                "velocity": 32,
                "duration": 0.2318182,
                "tempo": 120.0
            },
            {
                "start_time": 38.9204545,
                "end_time": 39.1545455,
                "pitch": 60,
                "velocity": 32,
                "duration": 0.2340909,
                "tempo": 120.0
            },
            {
                "start_time": 39.1545455,
                "end_time": 39.4,
                "pitch": 67,
                "velocity": 32,
                "duration": 0.2454545,
                "tempo": 120.0
            },
            {
                "start_time": 39.8818182,
                "end_time": 40.3545455,
                "pitch": 53,
                "velocity": 32,
                "duration": 0.4727273,
                "tempo": 120.0
            },
            {
                "start_time": 40.3545455,
                "end_time": 40.8454545,
                "pitch": 60,
                "velocity": 32,
                "duration": 0.4909091,
                "tempo": 120.0
            },
            {
                "start_time": 40.8454545,
                "end_time": 41.3318182,
                "pitch": 53,
                "velocity": 32,
                "duration": 0.4863636,
                "tempo": 120.0
            },
            {
                "start_time": 41.3318182,
                "end_time": 41.8136364,
                "pitch": 67,
                "velocity": 32,
                "duration": 0.4818182,
                "tempo": 120.0
            },
            {
                "start_time": 41.8136364,
                "end_time": 42.0431818,
                "pitch": 53,
                "velocity": 32,
                "duration": 0.2295455,
                "tempo": 120.0
            },
            {
                "start_time": 42.0431818,
                "end_time": 42.5318182,
                "pitch": 60,
                "velocity": 32,
                "duration": 0.4886364,
                "tempo": 120.0
            },
            {
                "start_time": 42.5318182,
                "end_time": 42.7681818,
                "pitch": 53,
                "velocity": 32,
                "duration": 0.2363636,
                "tempo": 120.0
            },
            {
                "start_time": 42.7704545,
                "end_time": 43.025,
                "pitch": 60,
                "velocity": 32,
                "duration": 0.2545455,
                "tempo": 120.0
            },
            {
                "start_time": 43.025,
                "end_time": 43.2613636,
                "pitch": 67,
                "velocity": 32,
                "duration": 0.2363636,
                "tempo": 120.0
            },
            {
                "start_time": 43.7477273,
                "end_time": 44.2340909,
                "pitch": 53,
                "velocity": 32,
                "duration": 0.4863636,
                "tempo": 120.0
            },
            {
                "start_time": 44.2340909,
                "end_time": 44.7204545,
                "pitch": 60,
                "velocity": 32,
                "duration": 0.4863636,
                "tempo": 120.0
            },
            {
                "start_time": 44.7204545,
                "end_time": 45.1886364,
                "pitch": 53,
                "velocity": 32,
                "duration": 0.4681818,
                "tempo": 120.0
            },
            {
                "start_time": 45.1886364,
                "end_time": 45.6795455,
                "pitch": 67,
                "velocity": 32,
                "duration": 0.4909091,
                "tempo": 120.0
            },
            {
                "start_time": 45.6818182,
                "end_time": 45.9363636,
                "pitch": 53,
                "velocity": 32,
                "duration": 0.2545455,
                "tempo": 120.0
            }
        ],
        "Acoustic Grand Piano": [
            {
                "start_time": 147.0227273,
                "end_time": 147.0909091,
                "pitch": 89,
                "velocity": 64,
                "duration": 0.0681818,
                "tempo": 120.0
            },
            {
                "start_time": 147.0909091,
                "end_time": 147.175,
                "pitch": 88,
                "velocity": 64,
                "duration": 0.0840909,
                "tempo": 120.0
            },
            {
                "start_time": 147.175,
                "end_time": 147.2590909,
                "pitch": 89,
                "velocity": 64,
                "duration": 0.0840909,
                "tempo": 120.0
            },
            {
                "start_time": 147.2590909,
                "end_time": 147.3431818,
                "pitch": 88,
                "velocity": 64,
                "duration": 0.0840909,
                "tempo": 120.0
            },
            {
                "start_time": 147.3431818,
                "end_time": 147.4295455,
                "pitch": 86,
                "velocity": 64,
                "duration": 0.0863636,
                "tempo": 120.0
            },
            {
                "start_time": 147.4295455,
                "end_time": 147.4954545,
                "pitch": 88,
                "velocity": 64,
                "duration": 0.0659091,
                "tempo": 120.0
            },
            {
                "start_time": 147.4954545,
                "end_time": 147.5795455,
                "pitch": 86,
                "velocity": 64,
                "duration": 0.0840909,
                "tempo": 120.0
            },
            {
                "start_time": 147.5795455,
                "end_time": 147.6681818,
                "pitch": 84,
                "velocity": 64,
                "duration": 0.0886364,
                "tempo": 120.0
            },
            {
                "start_time": 147.6681818,
                "end_time": 147.75,
                "pitch": 86,
                "velocity": 64,
                "duration": 0.0818182,
                "tempo": 120.0
            },
            {
                "start_time": 147.7522727,
                "end_time": 147.8363636,
                "pitch": 84,
                "velocity": 64,
                "duration": 0.0840909,
                "tempo": 120.0
            },
            {
                "start_time": 147.8363636,
                "end_time": 147.9068182,
                "pitch": 83,
                "velocity": 64,
                "duration": 0.0704545,
                "tempo": 120.0
            },
            {
                "start_time": 147.9068182,
                "end_time": 147.9840909,
                "pitch": 84,
                "velocity": 64,
                "duration": 0.0772727,
                "tempo": 120.0
            },
            {
                "start_time": 147.9840909,
                "end_time": 148.0659091,
                "pitch": 83,
                "velocity": 64,
                "duration": 0.0818182,
                "tempo": 120.0
            },
            {
                "start_time": 148.0659091,
                "end_time": 148.1477273,
                "pitch": 81,
                "velocity": 64,
                "duration": 0.0818182,
                "tempo": 120.0
            },
            {
                "start_time": 148.1477273,
                "end_time": 148.225,
                "pitch": 83,
                "velocity": 64,
                "duration": 0.0772727,
                "tempo": 120.0
            },
            {
                "start_time": 148.225,
                "end_time": 148.2886364,
                "pitch": 81,
                "velocity": 64,
                "duration": 0.0636364,
                "tempo": 120.0
            },
            {
                "start_time": 148.2909091,
                "end_time": 148.3704545,
                "pitch": 79,
                "velocity": 64,
                "duration": 0.0795455,
                "tempo": 120.0
            },
            {
                "start_time": 148.3727273,
                "end_time": 148.4545455,
                "pitch": 81,
                "velocity": 64,
                "duration": 0.0818182,
                "tempo": 120.0
            },
            {
                "start_time": 148.4545455,
                "end_time": 148.5409091,
                "pitch": 79,
                "velocity": 64,
                "duration": 0.0863636,
                "tempo": 120.0
            },
            {
                "start_time": 148.5409091,
                "end_time": 148.6295455,
                "pitch": 77,
                "velocity": 64,
                "duration": 0.0886364,
                "tempo": 120.0
            },
            {
                "start_time": 148.6295455,
                "end_time": 148.6954545,
                "pitch": 79,
                "velocity": 64,
                "duration": 0.0659091,
                "tempo": 120.0
            },
            {
                "start_time": 148.6954545,
                "end_time": 148.7795455,
                "pitch": 77,
                "velocity": 64,
                "duration": 0.0840909,
                "tempo": 120.0
            },
            {
                "start_time": 148.7795455,
                "end_time": 148.8681818,
                "pitch": 76,
                "velocity": 64,
                "duration": 0.0886364,
                "tempo": 120.0
            },
            {
                "start_time": 148.8681818,
                "end_time": 148.95,
                "pitch": 77,
                "velocity": 64,
                "duration": 0.0818182,
                "tempo": 120.0
            },
            {
                "start_time": 148.95,
                "end_time": 149.0318182,
                "pitch": 76,
                "velocity": 64,
                "duration": 0.0818182,
                "tempo": 120.0
            },
            {
                "start_time": 149.0318182,
                "end_time": 149.1022727,
                "pitch": 74,
                "velocity": 64,
                "duration": 0.0704545,
                "tempo": 120.0
            },
            {
                "start_time": 149.1022727,
                "end_time": 149.1818182,
                "pitch": 76,
                "velocity": 64,
                "duration": 0.0795455,
                "tempo": 120.0
            },
            {
                "start_time": 149.1818182,
                "end_time": 149.2659091,
                "pitch": 74,
                "velocity": 64,
                "duration": 0.0840909,
                "tempo": 120.0
            },
            {
                "start_time": 149.2659091,
                "end_time": 149.35,
                "pitch": 72,
                "velocity": 64,
                "duration": 0.0840909,
                "tempo": 120.0
            },
            {
                "start_time": 149.3522727,
                "end_time": 149.4340909,
                "pitch": 74,
                "velocity": 64,
                "duration": 0.0818182,
                "tempo": 120.0
            },
            {
                "start_time": 149.4340909,
                "end_time": 149.5022727,
                "pitch": 72,
                "velocity": 64,
                "duration": 0.0681818,
                "tempo": 120.0
            },
            {
                "start_time": 149.5045455,
                "end_time": 149.5909091,
                "pitch": 71,
                "velocity": 64,
                "duration": 0.0863636,
                "tempo": 120.0
            },
            {
                "start_time": 149.5909091,
                "end_time": 149.675,
                "pitch": 72,
                "velocity": 64,
                "duration": 0.0840909,
                "tempo": 120.0
            },
            {
                "start_time": 149.675,
                "end_time": 149.7590909,
                "pitch": 71,
                "velocity": 64,
                "duration": 0.0840909,
                "tempo": 120.0
            },
            {
                "start_time": 149.7590909,
                "end_time": 149.8477273,
                "pitch": 69,
                "velocity": 64,
                "duration": 0.0886364,
                "tempo": 120.0
            },
            {
                "start_time": 149.8477273,
                "end_time": 149.9113636,
                "pitch": 71,
                "velocity": 64,
                "duration": 0.0636364,
                "tempo": 120.0
            },
            {
                "start_time": 149.9113636,
                "end_time": 149.9954545,
                "pitch": 69,
                "velocity": 64,
                "duration": 0.0840909,
                "tempo": 120.0
            },
            {
                "start_time": 149.9954545,
                "end_time": 150.0818182,
                "pitch": 67,
                "velocity": 64,
                "duration": 0.0863636,
                "tempo": 120.0
            },
            {
                "start_time": 150.0818182,
                "end_time": 150.1613636,
                "pitch": 69,
                "velocity": 64,
                "duration": 0.0795455,
                "tempo": 120.0
            },
            {
                "start_time": 150.1613636,
                "end_time": 150.2454545,
                "pitch": 67,
                "velocity": 64,
                "duration": 0.0840909,
                "tempo": 120.0
            },
            {
                "start_time": 150.2454545,
                "end_time": 150.3136364,
                "pitch": 65,
                "velocity": 64,
                "duration": 0.0681818,
                "tempo": 120.0
            },
            {
                "start_time": 150.3136364,
                "end_time": 150.3954545,
                "pitch": 67,
                "velocity": 64,
                "duration": 0.0818182,
                "tempo": 120.0
            },
            {
                "start_time": 150.3954545,
                "end_time": 150.4772727,
                "pitch": 65,
                "velocity": 64,
                "duration": 0.0818182,
                "tempo": 120.0
            },
            {
                "start_time": 150.4772727,
                "end_time": 150.5613636,
                "pitch": 64,
                "velocity": 64,
                "duration": 0.0840909,
                "tempo": 120.0
            },
            {
                "start_time": 150.5613636,
                "end_time": 150.6409091,
                "pitch": 65,
                "velocity": 64,
                "duration": 0.0795455,
                "tempo": 120.0
            },
            {
                "start_time": 150.6409091,
                "end_time": 150.7068182,
                "pitch": 64,
                "velocity": 64,
                "duration": 0.0659091,
                "tempo": 120.0
            },
            {
                "start_time": 150.7068182,
                "end_time": 150.7909091,
                "pitch": 62,
                "velocity": 64,
                "duration": 0.0840909,
                "tempo": 120.0
            },
            {
                "start_time": 150.7909091,
                "end_time": 150.9068182,
                "pitch": 74,
                "velocity": 80,
                "duration": 0.1159091,
                "tempo": 120.0
            },
            {
                "start_time": 150.9068182,
                "end_time": 151.0409091,
                "pitch": 62,
                "velocity": 80,
                "duration": 0.1340909,
                "tempo": 120.0
            },
            {
                "start_time": 151.0409091,
                "end_time": 151.1568182,
                "pitch": 62,
                "velocity": 80,
                "duration": 0.1159091,
                "tempo": 120.0
            },
            {
                "start_time": 151.1568182,
                "end_time": 151.275,
                "pitch": 74,
                "velocity": 80,
                "duration": 0.1181818,
                "tempo": 120.0
            },
            {
                "start_time": 151.275,
                "end_time": 151.3931818,
                "pitch": 62,
                "velocity": 80,
                "duration": 0.1181818,
                "tempo": 120.0
            },
            {
                "start_time": 151.3931818,
                "end_time": 151.5136364,
                "pitch": 62,
                "velocity": 80,
                "duration": 0.1204545,
                "tempo": 120.0
            },
            {
                "start_time": 151.5159091,
                "end_time": 151.65,
                "pitch": 74,
                "velocity": 80,
                "duration": 0.1340909,
                "tempo": 120.0
            },
            {
                "start_time": 151.65,
                "end_time": 151.7704545,
                "pitch": 62,
                "velocity": 80,
                "duration": 0.1204545,
                "tempo": 120.0
            },
            {
                "start_time": 151.7704545,
                "end_time": 151.8863636,
                "pitch": 62,
                "velocity": 80,
                "duration": 0.1159091,
                "tempo": 120.0
            },
            {
                "start_time": 151.8863636,
                "end_time": 152.0045455,
                "pitch": 74,
                "velocity": 80,
                "duration": 0.1181818,
                "tempo": 120.0
            },
            {
                "start_time": 152.0045455,
                "end_time": 152.1204545,
                "pitch": 62,
                "velocity": 80,
                "duration": 0.1159091,
                "tempo": 120.0
            },
            {
                "start_time": 152.1204545,
                "end_time": 152.2545455,
                "pitch": 62,
                "velocity": 80,
                "duration": 0.1340909,
                "tempo": 120.0
            },
            {
                "start_time": 152.2545455,
                "end_time": 152.3727273,
                "pitch": 74,
                "velocity": 80,
                "duration": 0.1181818,
                "tempo": 120.0
            },
            {
                "start_time": 152.3727273,
                "end_time": 152.4909091,
                "pitch": 62,
                "velocity": 80,
                "duration": 0.1181818,
                "tempo": 120.0
            },
            {
                "start_time": 152.4909091,
                "end_time": 152.6090909,
                "pitch": 74,
                "velocity": 80,
                "duration": 0.1181818,
                "tempo": 120.0
            },
            {
                "start_time": 152.6090909,
                "end_time": 152.725,
                "pitch": 62,
                "velocity": 80,
                "duration": 0.1159091,
                "tempo": 120.0
            },
            {
                "start_time": 152.725,
                "end_time": 152.8568182,
                "pitch": 74,
                "velocity": 80,
                "duration": 0.1318182,
                "tempo": 120.0
            },
            {
                "start_time": 152.8568182,
                "end_time": 152.9727273,
                "pitch": 62,
                "velocity": 80,
                "duration": 0.1159091,
                "tempo": 120.0
            },
            {
                "start_time": 152.9727273,
                "end_time": 153.0863636,
                "pitch": 62,
                "velocity": 80,
                "duration": 0.1136364,
                "tempo": 120.0
            },
            {
                "start_time": 153.0863636,
                "end_time": 153.2022727,
                "pitch": 74,
                "velocity": 80,
                "duration": 0.1159091,
                "tempo": 120.0
            },
            {
                "start_time": 153.2022727,
                "end_time": 153.3204545,
                "pitch": 62,
                "velocity": 80,
                "duration": 0.1181818,
                "tempo": 120.0
            },
            {
                "start_time": 153.3204545,
                "end_time": 153.4590909,
                "pitch": 62,
                "velocity": 80,
                "duration": 0.1386364,
                "tempo": 120.0
            },
            {
                "start_time": 153.4590909,
                "end_time": 153.5772727,
                "pitch": 74,
                "velocity": 80,
                "duration": 0.1181818,
                "tempo": 120.0
            },
            {
                "start_time": 153.5772727,
                "end_time": 153.6977273,
                "pitch": 62,
                "velocity": 80,
                "duration": 0.1204545,
                "tempo": 120.0
            },
            {
                "start_time": 153.6977273,
                "end_time": 153.8136364,
                "pitch": 62,
                "velocity": 80,
                "duration": 0.1159091,
                "tempo": 120.0
            },
            {
                "start_time": 153.8136364,
                "end_time": 153.9318182,
                "pitch": 74,
                "velocity": 80,
                "duration": 0.1181818,
                "tempo": 120.0
            },
            {
                "start_time": 153.9318182,
                "end_time": 154.0636364,
                "pitch": 62,
                "velocity": 80,
                "duration": 0.1318182,
                "tempo": 120.0
            },
            {
                "start_time": 154.0636364,
                "end_time": 154.1818182,
                "pitch": 62,
                "velocity": 80,
                "duration": 0.1181818,
                "tempo": 120.0
            },
            {
                "start_time": 154.1818182,
                "end_time": 154.2977273,
                "pitch": 74,
                "velocity": 80,
                "duration": 0.1159091,
                "tempo": 120.0
            },
            {
                "start_time": 154.2977273,
                "end_time": 154.4159091,
                "pitch": 62,
                "velocity": 80,
                "duration": 0.1181818,
                "tempo": 120.0
            },
            {
                "start_time": 154.4159091,
                "end_time": 154.5318182,
                "pitch": 74,
                "velocity": 80,
                "duration": 0.1159091,
                "tempo": 120.0
            },
            {
                "start_time": 154.5318182,
                "end_time": 154.6659091,
                "pitch": 62,
                "velocity": 80,
                "duration": 0.1340909,
                "tempo": 120.0
            },
            {
                "start_time": 154.6659091,
                "end_time": 154.9045455,
                "pitch": 86,
                "velocity": 80,
                "duration": 0.2386364,
                "tempo": 120.0
            },
            {
                "start_time": 154.9045455,
                "end_time": 155.1431818,
                "pitch": 86,
                "velocity": 80,
                "duration": 0.2386364,
                "tempo": 120.0
            },
            {
                "start_time": 155.1431818,
                "end_time": 155.3909091,
                "pitch": 74,
                "velocity": 80,
                "duration": 0.2477273,
                "tempo": 120.0
            },
            {
                "start_time": 155.3909091,
                "end_time": 155.6204545,
                "pitch": 74,
                "velocity": 80,
                "duration": 0.2295455,
                "tempo": 120.0
            },
            {
                "start_time": 155.6204545,
                "end_time": 155.8704545,
                "pitch": 86,
                "velocity": 80,
                "duration": 0.25,
                "tempo": 120.0
            },
            {
                "start_time": 155.8704545,
                "end_time": 156.1045455,
                "pitch": 86,
                "velocity": 80,
                "duration": 0.2340909,
                "tempo": 120.0
            },
            {
                "start_time": 156.1045455,
                "end_time": 156.3409091,
                "pitch": 74,
                "velocity": 80,
                "duration": 0.2363636,
                "tempo": 120.0
            },
            {
                "start_time": 156.3409091,
                "end_time": 156.5909091,
                "pitch": 74,
                "velocity": 80,
                "duration": 0.25,
                "tempo": 120.0
            },
            {
                "start_time": 156.5931818,
                "end_time": 156.7113636,
                "pitch": 74,
                "velocity": 80,
                "duration": 0.1181818,
                "tempo": 120.0
            },
            {
                "start_time": 156.7113636,
                "end_time": 156.8318182,
                "pitch": 79,
                "velocity": 80,
                "duration": 0.1204545,
                "tempo": 120.0
            },
            {
                "start_time": 156.8318182,
                "end_time": 156.95,
                "pitch": 81,
                "velocity": 80,
                "duration": 0.1181818,
                "tempo": 120.0
            },
            {
                "start_time": 156.95,
                "end_time": 157.0863636,
                "pitch": 83,
                "velocity": 80,
                "duration": 0.1363636,
                "tempo": 120.0
            },
            {
                "start_time": 157.0886364,
                "end_time": 157.2045455,
                "pitch": 81,
                "velocity": 80,
                "duration": 0.1159091,
                "tempo": 120.0
            },
            {
                "start_time": 157.2045455,
                "end_time": 157.3227273,
                "pitch": 79,
                "velocity": 80,
                "duration": 0.1181818,
                "tempo": 120.0
            },
            {
                "start_time": 157.3227273,
                "end_time": 157.4409091,
                "pitch": 74,
                "velocity": 80,
                "duration": 0.1181818,
                "tempo": 120.0
            },
            {
                "start_time": 157.4409091,
                "end_time": 157.5590909,
                "pitch": 79,
                "velocity": 80,
                "duration": 0.1181818,
                "tempo": 120.0
            },
            {
                "start_time": 157.5590909,
                "end_time": 157.6886364,
                "pitch": 81,
                "velocity": 80,
                "duration": 0.1295455,
                "tempo": 120.0
            },
            {
                "start_time": 157.6886364,
                "end_time": 157.8045455,
                "pitch": 83,
                "velocity": 80,
                "duration": 0.1159091,
                "tempo": 120.0
            },
            {
                "start_time": 157.8068182,
                "end_time": 157.9204545,
                "pitch": 79,
                "velocity": 80,
                "duration": 0.1136364,
                "tempo": 120.0
            },
            {
                "start_time": 157.9204545,
                "end_time": 158.0340909,
                "pitch": 81,
                "velocity": 80,
                "duration": 0.1136364,
                "tempo": 120.0
            },
            {
                "start_time": 158.0363636,
                "end_time": 158.1522727,
                "pitch": 83,
                "velocity": 80,
                "duration": 0.1159091,
                "tempo": 120.0
            },
            {
                "start_time": 158.1522727,
                "end_time": 158.2863636,
                "pitch": 86,
                "velocity": 80,
                "duration": 0.1340909,
                "tempo": 120.0
            },
            {
                "start_time": 158.2863636,
                "end_time": 158.4022727,
                "pitch": 84,
                "velocity": 80,
                "duration": 0.1159091,
                "tempo": 120.0
            },
            {
                "start_time": 158.4022727,
                "end_time": 158.5181818,
                "pitch": 83,
                "velocity": 80,
                "duration": 0.1159091,
                "tempo": 120.0
            },
            {
                "start_time": 158.5181818,
                "end_time": 158.6386364,
                "pitch": 81,
                "velocity": 80,
                "duration": 0.1204545,
                "tempo": 120.0
            },
            {
                "start_time": 158.6386364,
                "end_time": 158.7590909,
                "pitch": 79,
                "velocity": 80,
                "duration": 0.1204545,
                "tempo": 120.0
            },
            {
                "start_time": 158.7590909,
                "end_time": 158.8954545,
                "pitch": 81,
                "velocity": 80,
                "duration": 0.1363636,
                "tempo": 120.0
            },
            {
                "start_time": 158.8954545,
                "end_time": 159.0159091,
                "pitch": 79,
                "velocity": 80,
                "duration": 0.1204545,
                "tempo": 120.0
            },
            {
                "start_time": 159.0159091,
                "end_time": 159.1318182,
                "pitch": 81,
                "velocity": 80,
                "duration": 0.1159091,
                "tempo": 120.0
            },
            {
                "start_time": 159.1318182,
                "end_time": 159.2477273,
                "pitch": 79,
                "velocity": 80,
                "duration": 0.1159091,
                "tempo": 120.0
            },
            {
                "start_time": 159.25,
                "end_time": 159.3636364,
                "pitch": 81,
                "velocity": 80,
                "duration": 0.1136364,
                "tempo": 120.0
            },
            {
                "start_time": 159.3659091,
                "end_time": 159.4977273,
                "pitch": 83,
                "velocity": 80,
                "duration": 0.1318182,
                "tempo": 120.0
            },
            {
                "start_time": 159.4977273,
                "end_time": 159.6159091,
                "pitch": 81,
                "velocity": 80,
                "duration": 0.1181818,
                "tempo": 120.0
            },
            {
                "start_time": 159.6159091,
                "end_time": 159.7340909,
                "pitch": 79,
                "velocity": 80,
                "duration": 0.1181818,
                "tempo": 120.0
            },
            {
                "start_time": 159.7340909,
                "end_time": 159.8522727,
                "pitch": 74,
                "velocity": 80,
                "duration": 0.1181818,
                "tempo": 120.0
            },
            {
                "start_time": 159.8522727,
                "end_time": 159.9681818,
                "pitch": 72,
                "velocity": 80,
                "duration": 0.1159091,
                "tempo": 120.0
            },
            {
                "start_time": 159.9704545,
                "end_time": 160.1,
                "pitch": 74,
                "velocity": 80,
                "duration": 0.1295455,
                "tempo": 120.0
            },
            {
                "start_time": 160.1,
                "end_time": 160.2159091,
                "pitch": 72,
                "velocity": 80,
                "duration": 0.1159091,
                "tempo": 120.0
            },
            {
                "start_time": 160.2159091,
                "end_time": 160.3318182,
                "pitch": 71,
                "velocity": 80,
                "duration": 0.1159091,
                "tempo": 120.0
            },
            {
                "start_time": 160.3318182,
                "end_time": 160.4454545,
                "pitch": 72,
                "velocity": 80,
                "duration": 0.1136364,
                "tempo": 120.0
            },
            {
                "start_time": 160.4454545,
                "end_time": 160.5659091,
                "pitch": 74,
                "velocity": 80,
                "duration": 0.1204545,
                "tempo": 120.0
            },
            {
                "start_time": 160.5659091,
                "end_time": 160.7022727,
                "pitch": 72,
                "velocity": 80,
                "duration": 0.1363636,
                "tempo": 120.0
            },
            {
                "start_time": 160.7022727,
                "end_time": 160.8227273,
                "pitch": 71,
                "velocity": 80,
                "duration": 0.1204545,
                "tempo": 120.0
            },
            {
                "start_time": 160.8227273,
                "end_time": 160.9409091,
                "pitch": 67,
                "velocity": 80,
                "duration": 0.1181818,
                "tempo": 120.0
            },
            {
                "start_time": 160.9409091,
                "end_time": 161.0590909,
                "pitch": 62,
                "velocity": 80,
                "duration": 0.1181818,
                "tempo": 120.0
            },
            {
                "start_time": 161.0590909,
                "end_time": 161.1772727,
                "pitch": 67,
                "velocity": 80,
                "duration": 0.1181818,
                "tempo": 120.0
            },
            {
                "start_time": 161.1772727,
                "end_time": 161.3113636,
                "pitch": 69,
                "velocity": 80,
                "duration": 0.1340909,
                "tempo": 120.0
            },
            {
                "start_time": 161.3113636,
                "end_time": 161.4295455,
                "pitch": 62,
                "velocity": 80,
                "duration": 0.1181818,
                "tempo": 120.0
            },
            {
                "start_time": 161.4295455,
                "end_time": 161.5454545,
                "pitch": 71,
                "velocity": 80,
                "duration": 0.1159091,
                "tempo": 120.0
            },
            {
                "start_time": 161.5454545,
                "end_time": 161.6636364,
                "pitch": 62,
                "velocity": 80,
                "duration": 0.1181818,
                "tempo": 120.0
            },
            {
                "start_time": 161.6636364,
                "end_time": 161.7795455,
                "pitch": 72,
                "velocity": 80,
                "duration": 0.1159091,
                "tempo": 120.0
            },
            {
                "start_time": 161.7795455,
                "end_time": 161.9136364,
                "pitch": 62,
                "velocity": 80,
                "duration": 0.1340909,
                "tempo": 120.0
            },
            {
                "start_time": 161.9136364,
                "end_time": 162.0340909,
                "pitch": 74,
                "velocity": 80,
                "duration": 0.1204545,
                "tempo": 120.0
            },
            {
                "start_time": 162.0340909,
                "end_time": 162.1522727,
                "pitch": 62,
                "velocity": 80,
                "duration": 0.1181818,
                "tempo": 120.0
            },
            {
                "start_time": 162.1545455,
                "end_time": 162.2727273,
                "pitch": 71,
                "velocity": 80,
                "duration": 0.1181818,
                "tempo": 120.0
            },
            {
                "start_time": 162.2727273,
                "end_time": 162.3931818,
                "pitch": 62,
                "velocity": 80,
                "duration": 0.1204545,
                "tempo": 120.0
            },
            {
                "start_time": 162.3931818,
                "end_time": 162.6386364,
                "pitch": 65,
                "velocity": 80,
                "duration": 0.2454545,
                "tempo": 120.0
            },
            {
                "start_time": 162.6386364,
                "end_time": 162.7522727,
                "pitch": 67,
                "velocity": 80,
                "duration": 0.1136364,
                "tempo": 120.0
            },
            {
                "start_time": 162.7522727,
                "end_time": 162.9840909,
                "pitch": 65,
                "velocity": 80,
                "duration": 0.2318182,
                "tempo": 120.0
            },
            {
                "start_time": 162.9840909,
                "end_time": 163.1181818,
                "pitch": 67,
                "velocity": 80,
                "duration": 0.1340909,
                "tempo": 120.0
            },
            {
                "start_time": 163.1204545,
                "end_time": 163.3522727,
                "pitch": 65,
                "velocity": 80,
                "duration": 0.2318182,
                "tempo": 120.0
            },
            {
                "start_time": 163.3522727,
                "end_time": 163.4681818,
                "pitch": 67,
                "velocity": 80,
                "duration": 0.1159091,
                "tempo": 120.0
            },
            {
                "start_time": 163.4681818,
                "end_time": 163.7181818,
                "pitch": 65,
                "velocity": 80,
                "duration": 0.25,
                "tempo": 120.0
            },
            {
                "start_time": 163.7204545,
                "end_time": 163.8363636,
                "pitch": 67,
                "velocity": 80,
                "duration": 0.1159091,
                "tempo": 120.0
            },
            {
                "start_time": 163.8363636,
                "end_time": 164.075,
                "pitch": 65,
                "velocity": 80,
                "duration": 0.2386364,
                "tempo": 120.0
            },
            {
                "start_time": 164.075,
                "end_time": 164.1954545,
                "pitch": 67,
                "velocity": 80,
                "duration": 0.1204545,
                "tempo": 120.0
            },
            {
                "start_time": 164.1954545,
                "end_time": 164.4477273,
                "pitch": 65,
                "velocity": 80,
                "duration": 0.2522727,
                "tempo": 120.0
            },
            {
                "start_time": 164.4477273,
                "end_time": 164.5659091,
                "pitch": 67,
                "velocity": 80,
                "duration": 0.1181818,
                "tempo": 120.0
            },
            {
                "start_time": 164.5659091,
                "end_time": 164.7977273,
                "pitch": 65,
                "velocity": 80,
                "duration": 0.2318182,
                "tempo": 120.0
            },
            {
                "start_time": 164.8,
                "end_time": 164.9295455,
                "pitch": 67,
                "velocity": 80,
                "duration": 0.1295455,
                "tempo": 120.0
            },
            {
                "start_time": 164.9295455,
                "end_time": 165.1590909,
                "pitch": 65,
                "velocity": 80,
                "duration": 0.2295455,
                "tempo": 120.0
            },
            {
                "start_time": 165.1590909,
                "end_time": 165.275,
                "pitch": 67,
                "velocity": 80,
                "duration": 0.1159091,
                "tempo": 120.0
            },
            {
                "start_time": 165.2772727,
                "end_time": 165.5272727,
                "pitch": 65,
                "velocity": 80,
                "duration": 0.25,
                "tempo": 120.0
            },
            {
                "start_time": 165.5295455,
                "end_time": 165.6454545,
                "pitch": 67,
                "velocity": 80,
                "duration": 0.1159091,
                "tempo": 120.0
            },
            {
                "start_time": 165.6454545,
                "end_time": 165.8818182,
                "pitch": 65,
                "velocity": 80,
                "duration": 0.2363636,
                "tempo": 120.0
            },
            {
                "start_time": 165.8840909,
                "end_time": 166.0022727,
                "pitch": 67,
                "velocity": 80,
                "duration": 0.1181818,
                "tempo": 120.0
            },
            {
                "start_time": 166.0045455,
                "end_time": 166.2590909,
                "pitch": 67,
                "velocity": 80,
                "duration": 0.2545455,
                "tempo": 120.0
            },
            {
                "start_time": 166.2590909,
                "end_time": 166.375,
                "pitch": 71,
                "velocity": 80,
                "duration": 0.1159091,
                "tempo": 120.0
            },
            {
                "start_time": 166.375,
                "end_time": 166.4931818,
                "pitch": 62,
                "velocity": 80,
                "duration": 0.1181818,
                "tempo": 120.0
            },
            {
                "start_time": 166.4931818,
                "end_time": 166.6090909,
                "pitch": 72,
                "velocity": 80,
                "duration": 0.1159091,
                "tempo": 120.0
            },
            {
                "start_time": 166.6090909,
                "end_time": 166.7431818,
                "pitch": 62,
                "velocity": 80,
                "duration": 0.1340909,
                "tempo": 120.0
            },
            {
                "start_time": 166.7431818,
                "end_time": 166.8590909,
                "pitch": 74,
                "velocity": 80,
                "duration": 0.1159091,
                "tempo": 120.0
            },
            {
                "start_time": 166.8590909,
                "end_time": 166.9772727,
                "pitch": 62,
                "velocity": 80,
                "duration": 0.1181818,
                "tempo": 120.0
            },
            {
                "start_time": 166.9772727,
                "end_time": 167.0931818,
                "pitch": 72,
                "velocity": 80,
                "duration": 0.1159091,
                "tempo": 120.0
            },
            {
                "start_time": 167.0931818,
                "end_time": 167.3409091,
                "pitch": 71,
                "velocity": 80,
                "duration": 0.2477273,
                "tempo": 120.0
            },
            {
                "start_time": 167.3409091,
                "end_time": 167.4568182,
                "pitch": 62,
                "velocity": 80,
                "duration": 0.1159091,
                "tempo": 120.0
            },
            {
                "start_time": 167.4568182,
                "end_time": 167.5704545,
                "pitch": 72,
                "velocity": 80,
                "duration": 0.1136364,
                "tempo": 120.0
            },
            {
                "start_time": 167.5727273,
                "end_time": 167.6863636,
                "pitch": 62,
                "velocity": 80,
                "duration": 0.1136364,
                "tempo": 120.0
            },
            {
                "start_time": 167.6863636,
                "end_time": 167.8068182,
                "pitch": 74,
                "velocity": 80,
                "duration": 0.1204545,
                "tempo": 120.0
            },
            {
                "start_time": 167.8068182,
                "end_time": 167.9431818,
                "pitch": 62,
                "velocity": 80,
                "duration": 0.1363636,
                "tempo": 120.0
            },
            {
                "start_time": 167.9431818,
                "end_time": 168.0636364,
                "pitch": 72,
                "velocity": 80,
                "duration": 0.1204545,
                "tempo": 120.0
            },
            {
                "start_time": 168.0636364,
                "end_time": 168.1818182,
                "pitch": 62,
                "velocity": 80,
                "duration": 0.1181818,
                "tempo": 120.0
            },
            {
                "start_time": 168.1818182,
                "end_time": 168.4159091,
                "pitch": 74,
                "velocity": 80,
                "duration": 0.2340909,
                "tempo": 120.0
            },
            {
                "start_time": 168.4159091,
                "end_time": 168.6659091,
                "pitch": 74,
                "velocity": 80,
                "duration": 0.25,
                "tempo": 120.0
            },
            {
                "start_time": 168.6659091,
                "end_time": 168.9022727,
                "pitch": 74,
                "velocity": 80,
                "duration": 0.2363636,
                "tempo": 120.0
            },
            {
                "start_time": 168.9022727,
                "end_time": 169.1545455,
                "pitch": 74,
                "velocity": 80,
                "duration": 0.2522727,
                "tempo": 120.0
            },
            {
                "start_time": 169.1545455,
                "end_time": 169.3931818,
                "pitch": 74,
                "velocity": 80,
                "duration": 0.2386364,
                "tempo": 120.0
            },
            {
                "start_time": 169.3931818,
                "end_time": 169.6318182,
                "pitch": 74,
                "velocity": 80,
                "duration": 0.2386364,
                "tempo": 120.0
            },
            {
                "start_time": 169.6318182,
                "end_time": 169.8727273,
                "pitch": 74,
                "velocity": 80,
                "duration": 0.2409091,
                "tempo": 120.0
            },
            {
                "start_time": 169.8727273,
                "end_time": 170.0977273,
                "pitch": 74,
                "velocity": 80,
                "duration": 0.225,
                "tempo": 120.0
            },
            {
                "start_time": 170.0977273,
                "end_time": 170.2159091,
                "pitch": 74,
                "velocity": 80,
                "duration": 0.1181818,
                "tempo": 120.0
            },
            {
                "start_time": 170.2159091,
                "end_time": 170.3545455,
                "pitch": 62,
                "velocity": 80,
                "duration": 0.1386364,
                "tempo": 120.0
            },
            {
                "start_time": 170.3545455,
                "end_time": 170.4727273,
                "pitch": 62,
                "velocity": 80,
                "duration": 0.1181818,
                "tempo": 120.0
            },
            {
                "start_time": 170.4727273,
                "end_time": 170.5931818,
                "pitch": 74,
                "velocity": 80,
                "duration": 0.1204545,
                "tempo": 120.0
            },
            {
                "start_time": 170.5931818,
                "end_time": 170.7090909,
                "pitch": 62,
                "velocity": 80,
                "duration": 0.1159091,
                "tempo": 120.0
            },
            {
                "start_time": 170.7090909,
                "end_time": 170.8272727,
                "pitch": 62,
                "velocity": 80,
                "duration": 0.1181818,
                "tempo": 120.0
            },
            {
                "start_time": 170.8272727,
                "end_time": 170.9590909,
                "pitch": 74,
                "velocity": 80,
                "duration": 0.1318182,
                "tempo": 120.0
            },
            {
                "start_time": 170.9590909,
                "end_time": 171.0772727,
                "pitch": 62,
                "velocity": 80,
                "duration": 0.1181818,
                "tempo": 120.0
            },
            {
                "start_time": 171.0772727,
                "end_time": 171.1931818,
                "pitch": 62,
                "velocity": 80,
                "duration": 0.1159091,
                "tempo": 120.0
            },
            {
                "start_time": 171.1931818,
                "end_time": 171.3113636,
                "pitch": 74,
                "velocity": 80,
                "duration": 0.1181818,
                "tempo": 120.0
            },
            {
                "start_time": 171.3113636,
                "end_time": 171.4272727,
                "pitch": 62,
                "velocity": 80,
                "duration": 0.1159091,
                "tempo": 120.0
            },
            {
                "start_time": 171.4272727,
                "end_time": 171.5613636,
                "pitch": 62,
                "velocity": 80,
                "duration": 0.1340909,
                "tempo": 120.0
            },
            {
                "start_time": 171.5613636,
                "end_time": 171.6818182,
                "pitch": 74,
                "velocity": 80,
                "duration": 0.1204545,
                "tempo": 120.0
            },
            {
                "start_time": 171.6818182,
                "end_time": 171.8,
                "pitch": 62,
                "velocity": 80,
                "duration": 0.1181818,
                "tempo": 120.0
            },
            {
                "start_time": 171.8022727,
                "end_time": 171.9204545,
                "pitch": 74,
                "velocity": 80,
                "duration": 0.1181818,
                "tempo": 120.0
            },
            {
                "start_time": 171.9204545,
                "end_time": 172.0386364,
                "pitch": 62,
                "velocity": 80,
                "duration": 0.1181818,
                "tempo": 120.0
            },
            {
                "start_time": 172.0409091,
                "end_time": 172.1704545,
                "pitch": 72,
                "velocity": 80,
                "duration": 0.1295455,
                "tempo": 120.0
            },
            {
                "start_time": 172.1704545,
                "end_time": 172.2863636,
                "pitch": 60,
                "velocity": 80,
                "duration": 0.1159091,
                "tempo": 120.0
            },
            {
                "start_time": 172.2863636,
                "end_time": 172.4,
                "pitch": 60,
                "velocity": 80,
                "duration": 0.1136364,
                "tempo": 120.0
            },
            {
                "start_time": 172.4,
                "end_time": 172.5159091,
                "pitch": 72,
                "velocity": 80,
                "duration": 0.1159091,
                "tempo": 120.0
            },
            {
                "start_time": 172.5159091,
                "end_time": 172.6340909,
                "pitch": 60,
                "velocity": 80,
                "duration": 0.1181818,
                "tempo": 120.0
            },
            {
                "start_time": 172.6340909,
                "end_time": 172.7681818,
                "pitch": 60,
                "velocity": 80,
                "duration": 0.1340909,
                "tempo": 120.0
            },
            {
                "start_time": 172.7681818,
                "end_time": 172.8840909,
                "pitch": 72,
                "velocity": 80,
                "duration": 0.1159091,
                "tempo": 120.0
            },
            {
                "start_time": 172.8863636,
                "end_time": 173.0045455,
                "pitch": 60,
                "velocity": 80,
                "duration": 0.1181818,
                "tempo": 120.0
            },
            {
                "start_time": 173.0045455,
                "end_time": 173.1204545,
                "pitch": 60,
                "velocity": 80,
                "duration": 0.1159091,
                "tempo": 120.0
            },
            {
                "start_time": 173.1204545,
                "end_time": 173.2386364,
                "pitch": 72,
                "velocity": 80,
                "duration": 0.1181818,
                "tempo": 120.0
            },
            {
                "start_time": 173.2386364,
                "end_time": 173.3704545,
                "pitch": 60,
                "velocity": 80,
                "duration": 0.1318182,
                "tempo": 120.0
            },
            {
                "start_time": 173.3704545,
                "end_time": 173.4886364,
                "pitch": 60,
                "velocity": 80,
                "duration": 0.1181818,
                "tempo": 120.0
            },
            {
                "start_time": 173.4886364,
                "end_time": 173.6068182,
                "pitch": 72,
                "velocity": 80,
                "duration": 0.1181818,
                "tempo": 120.0
            },
            {
                "start_time": 173.6068182,
                "end_time": 173.7272727,
                "pitch": 60,
                "velocity": 80,
                "duration": 0.1204545,
                "tempo": 120.0
            },
            {
                "start_time": 173.7272727,
                "end_time": 173.8477273,
                "pitch": 72,
                "velocity": 80,
                "duration": 0.1204545,
                "tempo": 120.0
            },
            {
                "start_time": 173.8477273,
                "end_time": 173.9840909,
                "pitch": 60,
                "velocity": 80,
                "duration": 0.1363636,
                "tempo": 120.0
            },
            {
                "start_time": 173.9840909,
                "end_time": 174.0477273,
                "pitch": 67,
                "velocity": 80,
                "duration": 0.0636364,
                "tempo": 120.0
            },
            {
                "start_time": 174.0477273,
                "end_time": 174.1318182,
                "pitch": 62,
                "velocity": 80,
                "duration": 0.0840909,
                "tempo": 120.0
            },
            {
                "start_time": 174.1318182,
                "end_time": 174.2181818,
                "pitch": 60,
                "velocity": 80,
                "duration": 0.0863636,
                "tempo": 120.0
            },
            {
                "start_time": 174.2181818,
                "end_time": 174.2977273,
                "pitch": 67,
                "velocity": 80,
                "duration": 0.0795455,
                "tempo": 120.0
            },
            {
                "start_time": 174.2977273,
                "end_time": 174.3818182,
                "pitch": 62,
                "velocity": 80,
                "duration": 0.0840909,
                "tempo": 120.0
            },
            {
                "start_time": 174.3818182,
                "end_time": 174.45,
                "pitch": 60,
                "velocity": 80,
                "duration": 0.0681818,
                "tempo": 120.0
            },
            {
                "start_time": 174.4522727,
                "end_time": 174.5318182,
                "pitch": 67,
                "velocity": 80,
                "duration": 0.0795455,
                "tempo": 120.0
            },
            {
                "start_time": 174.5318182,
                "end_time": 174.6136364,
                "pitch": 62,
                "velocity": 80,
                "duration": 0.0818182,
                "tempo": 120.0
            },
            {
                "start_time": 174.6136364,
                "end_time": 174.6977273,
                "pitch": 60,
                "velocity": 80,
                "duration": 0.0840909,
                "tempo": 120.0
            },
            {
                "start_time": 174.6977273,
                "end_time": 174.7772727,
                "pitch": 67,
                "velocity": 80,
                "duration": 0.0795455,
                "tempo": 120.0
            },
            {
                "start_time": 174.7772727,
                "end_time": 174.8431818,
                "pitch": 62,
                "velocity": 80,
                "duration": 0.0659091,
                "tempo": 120.0
            },
            {
                "start_time": 174.8431818,
                "end_time": 174.9272727,
                "pitch": 59,
                "velocity": 80,
                "duration": 0.0840909,
                "tempo": 120.0
            },
            {
                "start_time": 174.9272727,
                "end_time": 175.0090909,
                "pitch": 67,
                "velocity": 80,
                "duration": 0.0818182,
                "tempo": 120.0
            },
            {
                "start_time": 175.0090909,
                "end_time": 175.0909091,
                "pitch": 61,
                "velocity": 80,
                "duration": 0.0818182,
                "tempo": 120.0
            },
            {
                "start_time": 175.0931818,
                "end_time": 175.1772727,
                "pitch": 59,
                "velocity": 80,
                "duration": 0.0840909,
                "tempo": 120.0
            },
            {
                "start_time": 175.1772727,
                "end_time": 175.2431818,
                "pitch": 66,
                "velocity": 80,
                "duration": 0.0659091,
                "tempo": 120.0
            },
            {
                "start_time": 175.2431818,
                "end_time": 175.325,
                "pitch": 61,
                "velocity": 80,
                "duration": 0.0818182,
                "tempo": 120.0
            },
            {
                "start_time": 175.325,
                "end_time": 175.4113636,
                "pitch": 59,
                "velocity": 80,
                "duration": 0.0863636,
                "tempo": 120.0
            },
            {
                "start_time": 175.4113636,
                "end_time": 175.4954545,
                "pitch": 66,
                "velocity": 80,
                "duration": 0.0840909,
                "tempo": 120.0
            },
            {
                "start_time": 175.4954545,
                "end_time": 175.5795455,
                "pitch": 61,
                "velocity": 80,
                "duration": 0.0840909,
                "tempo": 120.0
            },
            {
                "start_time": 175.5795455,
                "end_time": 175.65,
                "pitch": 59,
                "velocity": 80,
                "duration": 0.0704545,
                "tempo": 120.0
            },
            {
                "start_time": 175.6522727,
                "end_time": 175.7340909,
                "pitch": 66,
                "velocity": 80,
                "duration": 0.0818182,
                "tempo": 120.0
            },
            {
                "start_time": 175.7340909,
                "end_time": 175.8181818,
                "pitch": 61,
                "velocity": 80,
                "duration": 0.0840909,
                "tempo": 120.0
            },
            {
                "start_time": 175.8204545,
                "end_time": 175.9068182,
                "pitch": 59,
                "velocity": 80,
                "duration": 0.0863636,
                "tempo": 120.0
            },
            {
                "start_time": 175.9068182,
                "end_time": 175.9886364,
                "pitch": 66,
                "velocity": 80,
                "duration": 0.0818182,
                "tempo": 120.0
            },
            {
                "start_time": 175.9886364,
                "end_time": 176.0545455,
                "pitch": 61,
                "velocity": 80,
                "duration": 0.0659091,
                "tempo": 120.0
            },
            {
                "start_time": 176.0545455,
                "end_time": 176.1409091,
                "pitch": 59,
                "velocity": 80,
                "duration": 0.0863636,
                "tempo": 120.0
            },
            {
                "start_time": 176.1409091,
                "end_time": 176.2227273,
                "pitch": 66,
                "velocity": 80,
                "duration": 0.0818182,
                "tempo": 120.0
            },
            {
                "start_time": 176.2227273,
                "end_time": 176.3045455,
                "pitch": 61,
                "velocity": 80,
                "duration": 0.0818182,
                "tempo": 120.0
            },
            {
                "start_time": 176.3045455,
                "end_time": 176.3909091,
                "pitch": 59,
                "velocity": 80,
                "duration": 0.0863636,
                "tempo": 120.0
            },
            {
                "start_time": 176.3909091,
                "end_time": 176.4568182,
                "pitch": 66,
                "velocity": 80,
                "duration": 0.0659091,
                "tempo": 120.0
            },
            {
                "start_time": 176.4568182,
                "end_time": 176.5409091,
                "pitch": 61,
                "velocity": 80,
                "duration": 0.0840909,
                "tempo": 120.0
            },
            {
                "start_time": 176.5409091,
                "end_time": 176.6272727,
                "pitch": 59,
                "velocity": 80,
                "duration": 0.0863636,
                "tempo": 120.0
            },
            {
                "start_time": 176.6272727,
                "end_time": 176.7090909,
                "pitch": 67,
                "velocity": 80,
                "duration": 0.0818182,
                "tempo": 120.0
            },
            {
                "start_time": 176.7090909,
                "end_time": 176.7931818,
                "pitch": 61,
                "velocity": 80,
                "duration": 0.0840909,
                "tempo": 120.0
            },
            {
                "start_time": 176.7931818,
                "end_time": 176.8613636,
                "pitch": 59,
                "velocity": 80,
                "duration": 0.0681818,
                "tempo": 120.0
            },
            {
                "start_time": 176.8636364,
                "end_time": 176.9409091,
                "pitch": 67,
                "velocity": 80,
                "duration": 0.0772727,
                "tempo": 120.0
            },
            {
                "start_time": 176.9409091,
                "end_time": 177.025,
                "pitch": 62,
                "velocity": 80,
                "duration": 0.0840909,
                "tempo": 120.0
            },
            {
                "start_time": 177.025,
                "end_time": 177.1090909,
                "pitch": 59,
                "velocity": 80,
                "duration": 0.0840909,
                "tempo": 120.0
            },
            {
                "start_time": 177.1090909,
                "end_time": 177.1886364,
                "pitch": 67,
                "velocity": 80,
                "duration": 0.0795455,
                "tempo": 120.0
            },
            {
                "start_time": 177.1886364,
                "end_time": 177.2545455,
                "pitch": 62,
                "velocity": 80,
                "duration": 0.0659091,
                "tempo": 120.0
            },
            {
                "start_time": 177.2545455,
                "end_time": 177.3386364,
                "pitch": 60,
                "velocity": 80,
                "duration": 0.0840909,
                "tempo": 120.0
            },
            {
                "start_time": 177.3386364,
                "end_time": 177.4204545,
                "pitch": 67,
                "velocity": 80,
                "duration": 0.0818182,
                "tempo": 120.0
            },
            {
                "start_time": 177.4204545,
                "end_time": 177.5068182,
                "pitch": 62,
                "velocity": 80,
                "duration": 0.0863636,
                "tempo": 120.0
            },
            {
                "start_time": 177.5068182,
                "end_time": 177.5954545,
                "pitch": 60,
                "velocity": 80,
                "duration": 0.0886364,
                "tempo": 120.0
            },
            {
                "start_time": 177.5954545,
                "end_time": 177.6613636,
                "pitch": 67,
                "velocity": 80,
                "duration": 0.0659091,
                "tempo": 120.0
            },
            {
                "start_time": 177.6613636,
                "end_time": 177.7454545,
                "pitch": 62,
                "velocity": 80,
                "duration": 0.0840909,
                "tempo": 120.0
            }
        ],
        "Lead 2 (sawtooth)": [
            {
                "start_time": 92.8022727,
                "end_time": 93.0568182,
                "pitch": 63,
                "velocity": 101,
                "duration": 0.2545455,
                "tempo": 120.0
            },
            {
                "start_time": 93.0568182,
                "end_time": 93.1772727,
                "pitch": 65,
                "velocity": 101,
                "duration": 0.1204545,
                "tempo": 120.0
            },
            {
                "start_time": 93.1772727,
                "end_time": 93.4113636,
                "pitch": 63,
                "velocity": 101,
                "duration": 0.2340909,
                "tempo": 120.0
            },
            {
                "start_time": 93.4113636,
                "end_time": 93.5272727,
                "pitch": 65,
                "velocity": 101,
                "duration": 0.1159091,
                "tempo": 120.0
            },
            {
                "start_time": 93.5272727,
                "end_time": 93.7727273,
                "pitch": 63,
                "velocity": 101,
                "duration": 0.2454545,
                "tempo": 120.0
            },
            {
                "start_time": 93.775,
                "end_time": 93.8931818,
                "pitch": 65,
                "velocity": 101,
                "duration": 0.1181818,
                "tempo": 120.0
            },
            {
                "start_time": 93.8931818,
                "end_time": 94.1318182,
                "pitch": 63,
                "velocity": 101,
                "duration": 0.2386364,
                "tempo": 120.0
            },
            {
                "start_time": 94.1318182,
                "end_time": 94.2681818,
                "pitch": 65,
                "velocity": 101,
                "duration": 0.1363636,
                "tempo": 120.0
            },
            {
                "start_time": 94.2681818,
                "end_time": 94.5045455,
                "pitch": 63,
                "velocity": 101,
                "duration": 0.2363636,
                "tempo": 120.0
            },
            {
                "start_time": 94.5045455,
                "end_time": 94.6227273,
                "pitch": 65,
                "velocity": 101,
                "duration": 0.1181818,
                "tempo": 120.0
            },
            {
                "start_time": 94.6227273,
                "end_time": 94.8704545,
                "pitch": 63,
                "velocity": 101,
                "duration": 0.2477273,
                "tempo": 120.0
            },
            {
                "start_time": 94.8704545,
                "end_time": 94.9863636,
                "pitch": 65,
                "velocity": 101,
                "duration": 0.1159091,
                "tempo": 120.0
            },
            {
                "start_time": 94.9863636,
                "end_time": 95.2159091,
                "pitch": 63,
                "velocity": 101,
                "duration": 0.2295455,
                "tempo": 120.0
            },
            {
                "start_time": 95.2159091,
                "end_time": 95.3340909,
                "pitch": 65,
                "velocity": 101,
                "duration": 0.1181818,
                "tempo": 120.0
            },
            {
                "start_time": 95.3340909,
                "end_time": 95.5863636,
                "pitch": 63,
                "velocity": 101,
                "duration": 0.2522727,
                "tempo": 120.0
            },
            {
                "start_time": 95.5863636,
                "end_time": 95.7045455,
                "pitch": 65,
                "velocity": 101,
                "duration": 0.1181818,
                "tempo": 120.0
            },
            {
                "start_time": 95.7045455,
                "end_time": 95.9431818,
                "pitch": 63,
                "velocity": 101,
                "duration": 0.2386364,
                "tempo": 120.0
            },
            {
                "start_time": 95.9431818,
                "end_time": 96.0795455,
                "pitch": 65,
                "velocity": 101,
                "duration": 0.1363636,
                "tempo": 120.0
            },
            {
                "start_time": 96.0795455,
                "end_time": 96.3181818,
                "pitch": 63,
                "velocity": 101,
                "duration": 0.2386364,
                "tempo": 120.0
            },
            {
                "start_time": 96.3181818,
                "end_time": 96.4363636,
                "pitch": 65,
                "velocity": 101,
                "duration": 0.1181818,
                "tempo": 120.0
            },
            {
                "start_time": 96.4363636,
                "end_time": 96.6863636,
                "pitch": 65,
                "velocity": 101,
                "duration": 0.25,
                "tempo": 120.0
            },
            {
                "start_time": 96.6863636,
                "end_time": 96.8045455,
                "pitch": 65,
                "velocity": 101,
                "duration": 0.1181818,
                "tempo": 120.0
            },
            {
                "start_time": 96.8045455,
                "end_time": 96.9227273,
                "pitch": 63,
                "velocity": 101,
                "duration": 0.1181818,
                "tempo": 120.0
            },
            {
                "start_time": 96.9227273,
                "end_time": 97.0386364,
                "pitch": 60,
                "velocity": 101,
                "duration": 0.1159091,
                "tempo": 120.0
            },
            {
                "start_time": 97.0386364,
                "end_time": 97.2863636,
                "pitch": 58,
                "velocity": 101,
                "duration": 0.2477273,
                "tempo": 120.0
            },
            {
                "start_time": 97.2863636,
                "end_time": 97.6318182,
                "pitch": 57,
                "velocity": 101,
                "duration": 0.3454545,
                "tempo": 120.0
            },
            {
                "start_time": 97.6318182,
                "end_time": 97.75,
                "pitch": 65,
                "velocity": 101,
                "duration": 0.1181818,
                "tempo": 120.0
            },
            {
                "start_time": 97.75,
                "end_time": 97.8886364,
                "pitch": 63,
                "velocity": 101,
                "duration": 0.1386364,
                "tempo": 120.0
            },
            {
                "start_time": 97.8886364,
                "end_time": 98.0068182,
                "pitch": 60,
                "velocity": 101,
                "duration": 0.1181818,
                "tempo": 120.0
            },
            {
                "start_time": 98.0068182,
                "end_time": 98.2431818,
                "pitch": 58,
                "velocity": 101,
                "duration": 0.2363636,
                "tempo": 120.0
            },
            {
                "start_time": 98.2431818,
                "end_time": 98.6090909,
                "pitch": 57,
                "velocity": 101,
                "duration": 0.3659091,
                "tempo": 120.0
            },
            {
                "start_time": 98.6113636,
                "end_time": 98.8454545,
                "pitch": 51,
                "velocity": 101,
                "duration": 0.2340909,
                "tempo": 120.0
            },
            {
                "start_time": 98.8477273,
                "end_time": 98.9636364,
                "pitch": 53,
                "velocity": 101,
                "duration": 0.1159091,
                "tempo": 120.0
            },
            {
                "start_time": 98.9636364,
                "end_time": 99.2181818,
                "pitch": 51,
                "velocity": 101,
                "duration": 0.2545455,
                "tempo": 120.0
            },
            {
                "start_time": 99.2181818,
                "end_time": 99.3386364,
                "pitch": 53,
                "velocity": 101,
                "duration": 0.1204545,
                "tempo": 120.0
            },
            {
                "start_time": 99.3386364,
                "end_time": 99.5772727,
                "pitch": 51,
                "velocity": 101,
                "duration": 0.2386364,
                "tempo": 120.0
            },
            {
                "start_time": 99.5772727,
                "end_time": 99.7090909,
                "pitch": 53,
                "velocity": 101,
                "duration": 0.1318182,
                "tempo": 120.0
            },
            {
                "start_time": 99.7090909,
                "end_time": 99.9386364,
                "pitch": 51,
                "velocity": 101,
                "duration": 0.2295455,
                "tempo": 120.0
            },
            {
                "start_time": 99.9386364,
                "end_time": 100.0545455,
                "pitch": 53,
                "velocity": 101,
                "duration": 0.1159091,
                "tempo": 120.0
            },
            {
                "start_time": 100.0545455,
                "end_time": 100.3045455,
                "pitch": 51,
                "velocity": 101,
                "duration": 0.25,
                "tempo": 120.0
            },
            {
                "start_time": 100.3045455,
                "end_time": 108.2863636,
                "pitch": 53,
                "velocity": 101,
                "duration": 7.9818182,
                "tempo": 120.0
            },
            {
                "start_time": 108.2863636,
                "end_time": 108.525,
                "pitch": 63,
                "velocity": 101,
                "duration": 0.2386364,
                "tempo": 120.0
            },
            {
                "start_time": 108.525,
                "end_time": 108.6431818,
                "pitch": 65,
                "velocity": 101,
                "duration": 0.1181818,
                "tempo": 120.0
            },
            {
                "start_time": 108.6431818,
                "end_time": 108.8977273,
                "pitch": 63,
                "velocity": 101,
                "duration": 0.2545455,
                "tempo": 120.0
            },
            {
                "start_time": 108.8977273,
                "end_time": 109.0159091,
                "pitch": 65,
                "velocity": 101,
                "duration": 0.1181818,
                "tempo": 120.0
            },
            {
                "start_time": 109.0181818,
                "end_time": 109.2522727,
                "pitch": 63,
                "velocity": 101,
                "duration": 0.2340909,
                "tempo": 120.0
            },
            {
                "start_time": 109.2522727,
                "end_time": 109.3840909,
                "pitch": 65,
                "velocity": 101,
                "duration": 0.1318182,
                "tempo": 120.0
            },
            {
                "start_time": 109.3840909,
                "end_time": 109.6136364,
                "pitch": 63,
                "velocity": 101,
                "duration": 0.2295455,
                "tempo": 120.0
            },
            {
                "start_time": 109.6136364,
                "end_time": 109.7295455,
                "pitch": 65,
                "velocity": 101,
                "duration": 0.1159091,
                "tempo": 120.0
            },
            {
                "start_time": 109.7295455,
                "end_time": 109.9795455,
                "pitch": 63,
                "velocity": 101,
                "duration": 0.25,
                "tempo": 120.0
            },
            {
                "start_time": 109.9795455,
                "end_time": 110.0954545,
                "pitch": 65,
                "velocity": 101,
                "duration": 0.1159091,
                "tempo": 120.0
            },
            {
                "start_time": 110.0954545,
                "end_time": 110.3295455,
                "pitch": 63,
                "velocity": 101,
                "duration": 0.2340909,
                "tempo": 120.0
            },
            {
                "start_time": 110.3295455,
                "end_time": 110.4477273,
                "pitch": 65,
                "velocity": 101,
                "duration": 0.1181818,
                "tempo": 120.0
            },
            {
                "start_time": 110.4477273,
                "end_time": 110.7,
                "pitch": 63,
                "velocity": 101,
                "duration": 0.2522727,
                "tempo": 120.0
            },
            {
                "start_time": 110.7,
                "end_time": 110.8181818,
                "pitch": 65,
                "velocity": 101,
                "duration": 0.1181818,
                "tempo": 120.0
            },
            {
                "start_time": 110.8204545,
                "end_time": 111.0590909,
                "pitch": 63,
                "velocity": 101,
                "duration": 0.2386364,
                "tempo": 120.0
            },
            {
                "start_time": 111.0590909,
                "end_time": 111.1954545,
                "pitch": 65,
                "velocity": 101,
                "duration": 0.1363636,
                "tempo": 120.0
            },
            {
                "start_time": 111.1977273,
                "end_time": 111.4318182,
                "pitch": 63,
                "velocity": 101,
                "duration": 0.2340909,
                "tempo": 120.0
            },
            {
                "start_time": 111.4318182,
                "end_time": 111.55,
                "pitch": 65,
                "velocity": 101,
                "duration": 0.1181818,
                "tempo": 120.0
            },
            {
                "start_time": 111.55,
                "end_time": 111.7977273,
                "pitch": 63,
                "velocity": 101,
                "duration": 0.2477273,
                "tempo": 120.0
            },
            {
                "start_time": 111.7977273,
                "end_time": 111.9136364,
                "pitch": 65,
                "velocity": 101,
                "duration": 0.1159091,
                "tempo": 120.0
            },
            {
                "start_time": 111.9136364,
                "end_time": 112.1431818,
                "pitch": 65,
                "velocity": 101,
                "duration": 0.2295455,
                "tempo": 120.0
            },
            {
                "start_time": 112.1431818,
                "end_time": 112.2613636,
                "pitch": 65,
                "velocity": 101,
                "duration": 0.1181818,
                "tempo": 120.0
            },
            {
                "start_time": 112.2613636,
                "end_time": 112.3954545,
                "pitch": 63,
                "velocity": 101,
                "duration": 0.1340909,
                "tempo": 120.0
            },
            {
                "start_time": 112.3954545,
                "end_time": 112.5136364,
                "pitch": 60,
                "velocity": 101,
                "duration": 0.1181818,
                "tempo": 120.0
            },
            {
                "start_time": 112.5136364,
                "end_time": 112.75,
                "pitch": 58,
                "velocity": 101,
                "duration": 0.2363636,
                "tempo": 120.0
            },
            {
                "start_time": 112.75,
                "end_time": 113.1272727,
                "pitch": 57,
                "velocity": 101,
                "duration": 0.3772727,
                "tempo": 120.0
            },
            {
                "start_time": 113.1272727,
                "end_time": 113.2431818,
                "pitch": 65,
                "velocity": 101,
                "duration": 0.1159091,
                "tempo": 120.0
            },
            {
                "start_time": 113.2431818,
                "end_time": 113.3636364,
                "pitch": 63,
                "velocity": 101,
                "duration": 0.1204545,
                "tempo": 120.0
            },
            {
                "start_time": 113.3636364,
                "end_time": 113.4795455,
                "pitch": 60,
                "velocity": 101,
                "duration": 0.1159091,
                "tempo": 120.0
            },
            {
                "start_time": 113.4795455,
                "end_time": 113.7340909,
                "pitch": 58,
                "velocity": 101,
                "duration": 0.2545455,
                "tempo": 120.0
            },
            {
                "start_time": 113.7340909,
                "end_time": 114.0931818,
                "pitch": 57,
                "velocity": 101,
                "duration": 0.3590909,
                "tempo": 120.0
            },
            {
                "start_time": 114.0931818,
                "end_time": 114.3340909,
                "pitch": 51,
                "velocity": 101,
                "duration": 0.2409091,
                "tempo": 120.0
            },
            {
                "start_time": 114.3340909,
                "end_time": 114.4454545,
                "pitch": 53,
                "velocity": 101,
                "duration": 0.1113636,
                "tempo": 120.0
            },
            {
                "start_time": 114.4454545,
                "end_time": 114.6772727,
                "pitch": 51,
                "velocity": 101,
                "duration": 0.2318182,
                "tempo": 120.0
            },
            {
                "start_time": 114.6772727,
                "end_time": 114.8159091,
                "pitch": 53,
                "velocity": 101,
                "duration": 0.1386364,
                "tempo": 120.0
            },
            {
                "start_time": 114.8159091,
                "end_time": 115.0545455,
                "pitch": 51,
                "velocity": 101,
                "duration": 0.2386364,
                "tempo": 120.0
            },
            {
                "start_time": 115.0545455,
                "end_time": 115.1704545,
                "pitch": 53,
                "velocity": 101,
                "duration": 0.1159091,
                "tempo": 120.0
            },
            {
                "start_time": 115.1704545,
                "end_time": 115.425,
                "pitch": 51,
                "velocity": 101,
                "duration": 0.2545455,
                "tempo": 120.0
            },
            {
                "start_time": 115.425,
                "end_time": 115.5409091,
                "pitch": 53,
                "velocity": 101,
                "duration": 0.1159091,
                "tempo": 120.0
            },
            {
                "start_time": 115.5431818,
                "end_time": 115.7772727,
                "pitch": 51,
                "velocity": 101,
                "duration": 0.2340909,
                "tempo": 120.0
            }
        ],
        "Synth Bass 1": [
            {
                "start_time": 100.5363636,
                "end_time": 100.6545455,
                "pitch": 77,
                "velocity": 101,
                "duration": 0.1181818,
                "tempo": 120.0
            },
            {
                "start_time": 100.6545455,
                "end_time": 100.9068182,
                "pitch": 75,
                "velocity": 101,
                "duration": 0.2522727,
                "tempo": 120.0
            },
            {
                "start_time": 100.9068182,
                "end_time": 101.025,
                "pitch": 65,
                "velocity": 101,
                "duration": 0.1181818,
                "tempo": 120.0
            },
            {
                "start_time": 101.025,
                "end_time": 101.2659091,
                "pitch": 63,
                "velocity": 101,
                "duration": 0.2409091,
                "tempo": 120.0
            },
            {
                "start_time": 101.2659091,
                "end_time": 101.3840909,
                "pitch": 77,
                "velocity": 101,
                "duration": 0.1181818,
                "tempo": 120.0
            },
            {
                "start_time": 101.3840909,
                "end_time": 101.6386364,
                "pitch": 75,
                "velocity": 101,
                "duration": 0.2545455,
                "tempo": 120.0
            },
            {
                "start_time": 101.6386364,
                "end_time": 101.7568182,
                "pitch": 65,
                "velocity": 101,
                "duration": 0.1181818,
                "tempo": 120.0
            },
            {
                "start_time": 101.7568182,
                "end_time": 101.9931818,
                "pitch": 63,
                "velocity": 101,
                "duration": 0.2363636,
                "tempo": 120.0
            },
            {
                "start_time": 101.9931818,
                "end_time": 102.1227273,
                "pitch": 77,
                "velocity": 101,
                "duration": 0.1295455,
                "tempo": 120.0
            },
            {
                "start_time": 102.1227273,
                "end_time": 102.3545455,
                "pitch": 75,
                "velocity": 101,
                "duration": 0.2318182,
                "tempo": 120.0
            },
            {
                "start_time": 102.3545455,
                "end_time": 102.4681818,
                "pitch": 65,
                "velocity": 101,
                "duration": 0.1136364,
                "tempo": 120.0
            },
            {
                "start_time": 102.4681818,
                "end_time": 102.5863636,
                "pitch": 77,
                "velocity": 101,
                "duration": 0.1181818,
                "tempo": 120.0
            },
            {
                "start_time": 102.5863636,
                "end_time": 102.8386364,
                "pitch": 75,
                "velocity": 101,
                "duration": 0.2522727,
                "tempo": 120.0
            },
            {
                "start_time": 102.8386364,
                "end_time": 102.9568182,
                "pitch": 65,
                "velocity": 101,
                "duration": 0.1181818,
                "tempo": 120.0
            },
            {
                "start_time": 102.9568182,
                "end_time": 103.1931818,
                "pitch": 63,
                "velocity": 101,
                "duration": 0.2363636,
                "tempo": 120.0
            },
            {
                "start_time": 103.1931818,
                "end_time": 103.325,
                "pitch": 77,
                "velocity": 101,
                "duration": 0.1318182,
                "tempo": 120.0
            },
            {
                "start_time": 103.325,
                "end_time": 103.5636364,
                "pitch": 75,
                "velocity": 101,
                "duration": 0.2386364,
                "tempo": 120.0
            },
            {
                "start_time": 103.5636364,
                "end_time": 103.6840909,
                "pitch": 65,
                "velocity": 101,
                "duration": 0.1204545,
                "tempo": 120.0
            },
            {
                "start_time": 103.6840909,
                "end_time": 103.9409091,
                "pitch": 63,
                "velocity": 101,
                "duration": 0.2568182,
                "tempo": 120.0
            },
            {
                "start_time": 103.9409091,
                "end_time": 104.0568182,
                "pitch": 77,
                "velocity": 101,
                "duration": 0.1159091,
                "tempo": 120.0
            },
            {
                "start_time": 104.0568182,
                "end_time": 104.2931818,
                "pitch": 75,
                "velocity": 101,
                "duration": 0.2363636,
                "tempo": 120.0
            },
            {
                "start_time": 104.2931818,
                "end_time": 104.4113636,
                "pitch": 65,
                "velocity": 101,
                "duration": 0.1181818,
                "tempo": 120.0
            },
            {
                "start_time": 104.4113636,
                "end_time": 104.5431818,
                "pitch": 77,
                "velocity": 101,
                "duration": 0.1318182,
                "tempo": 120.0
            },
            {
                "start_time": 104.5431818,
                "end_time": 104.7727273,
                "pitch": 75,
                "velocity": 101,
                "duration": 0.2295455,
                "tempo": 120.0
            },
            {
                "start_time": 104.7727273,
                "end_time": 104.8863636,
                "pitch": 65,
                "velocity": 101,
                "duration": 0.1136364,
                "tempo": 120.0
            },
            {
                "start_time": 104.8863636,
                "end_time": 105.1431818,
                "pitch": 63,
                "velocity": 101,
                "duration": 0.2568182,
                "tempo": 120.0
            },
            {
                "start_time": 105.1431818,
                "end_time": 105.2613636,
                "pitch": 77,
                "velocity": 101,
                "duration": 0.1181818,
                "tempo": 120.0
            },
            {
                "start_time": 105.2636364,
                "end_time": 105.5,
                "pitch": 75,
                "velocity": 101,
                "duration": 0.2363636,
                "tempo": 120.0
            },
            {
                "start_time": 105.5,
                "end_time": 105.6181818,
                "pitch": 65,
                "velocity": 101,
                "duration": 0.1181818,
                "tempo": 120.0
            },
            {
                "start_time": 105.6181818,
                "end_time": 105.8704545,
                "pitch": 63,
                "velocity": 101,
                "duration": 0.2522727,
                "tempo": 120.0
            },
            {
                "start_time": 105.8704545,
                "end_time": 105.9886364,
                "pitch": 77,
                "velocity": 101,
                "duration": 0.1181818,
                "tempo": 120.0
            },
            {
                "start_time": 105.9886364,
                "end_time": 106.225,
                "pitch": 75,
                "velocity": 101,
                "duration": 0.2363636,
                "tempo": 120.0
            },
            {
                "start_time": 106.225,
                "end_time": 106.3568182,
                "pitch": 65,
                "velocity": 101,
                "duration": 0.1318182,
                "tempo": 120.0
            },
            {
                "start_time": 106.3590909,
                "end_time": 106.475,
                "pitch": 77,
                "velocity": 101,
                "duration": 0.1159091,
                "tempo": 120.0
            },
            {
                "start_time": 106.475,
                "end_time": 106.7090909,
                "pitch": 75,
                "velocity": 101,
                "duration": 0.2340909,
                "tempo": 120.0
            },
            {
                "start_time": 106.7090909,
                "end_time": 106.825,
                "pitch": 65,
                "velocity": 101,
                "duration": 0.1159091,
                "tempo": 120.0
            },
            {
                "start_time": 106.825,
                "end_time": 107.0727273,
                "pitch": 63,
                "velocity": 101,
                "duration": 0.2477273,
                "tempo": 120.0
            },
            {
                "start_time": 107.0727273,
                "end_time": 107.1863636,
                "pitch": 77,
                "velocity": 101,
                "duration": 0.1136364,
                "tempo": 120.0
            },
            {
                "start_time": 107.1863636,
                "end_time": 107.4204545,
                "pitch": 75,
                "velocity": 101,
                "duration": 0.2340909,
                "tempo": 120.0
            },
            {
                "start_time": 107.4204545,
                "end_time": 107.5590909,
                "pitch": 65,
                "velocity": 101,
                "duration": 0.1386364,
                "tempo": 120.0
            },
            {
                "start_time": 107.5590909,
                "end_time": 107.7977273,
                "pitch": 63,
                "velocity": 101,
                "duration": 0.2386364,
                "tempo": 120.0
            },
            {
                "start_time": 107.7977273,
                "end_time": 107.9159091,
                "pitch": 77,
                "velocity": 101,
                "duration": 0.1181818,
                "tempo": 120.0
            },
            {
                "start_time": 107.9159091,
                "end_time": 108.1681818,
                "pitch": 75,
                "velocity": 101,
                "duration": 0.2522727,
                "tempo": 120.0
            },
            {
                "start_time": 108.1681818,
                "end_time": 116.0295455,
                "pitch": 65,
                "velocity": 101,
                "duration": 7.8613636,
                "tempo": 120.0
            },
            {
                "start_time": 116.0295455,
                "end_time": 116.15,
                "pitch": 77,
                "velocity": 101,
                "duration": 0.1204545,
                "tempo": 120.0
            },
            {
                "start_time": 116.15,
                "end_time": 116.3886364,
                "pitch": 75,
                "velocity": 101,
                "duration": 0.2386364,
                "tempo": 120.0
            },
            {
                "start_time": 116.3886364,
                "end_time": 116.5090909,
                "pitch": 65,
                "velocity": 101,
                "duration": 0.1204545,
                "tempo": 120.0
            },
            {
                "start_time": 116.5090909,
                "end_time": 116.7545455,
                "pitch": 63,
                "velocity": 101,
                "duration": 0.2454545,
                "tempo": 120.0
            },
            {
                "start_time": 116.7545455,
                "end_time": 116.8681818,
                "pitch": 77,
                "velocity": 101,
                "duration": 0.1136364,
                "tempo": 120.0
            },
            {
                "start_time": 116.8704545,
                "end_time": 117.1022727,
                "pitch": 75,
                "velocity": 101,
                "duration": 0.2318182,
                "tempo": 120.0
            },
            {
                "start_time": 117.1022727,
                "end_time": 117.2386364,
                "pitch": 65,
                "velocity": 101,
                "duration": 0.1363636,
                "tempo": 120.0
            },
            {
                "start_time": 117.2386364,
                "end_time": 117.4727273,
                "pitch": 63,
                "velocity": 101,
                "duration": 0.2340909,
                "tempo": 120.0
            },
            {
                "start_time": 117.4727273,
                "end_time": 117.5909091,
                "pitch": 77,
                "velocity": 101,
                "duration": 0.1181818,
                "tempo": 120.0
            },
            {
                "start_time": 117.5909091,
                "end_time": 117.8431818,
                "pitch": 75,
                "velocity": 101,
                "duration": 0.2522727,
                "tempo": 120.0
            },
            {
                "start_time": 117.8431818,
                "end_time": 117.9590909,
                "pitch": 65,
                "velocity": 101,
                "duration": 0.1159091,
                "tempo": 120.0
            },
            {
                "start_time": 117.9590909,
                "end_time": 118.0795455,
                "pitch": 77,
                "velocity": 101,
                "duration": 0.1204545,
                "tempo": 120.0
            },
            {
                "start_time": 118.0795455,
                "end_time": 118.3181818,
                "pitch": 75,
                "velocity": 101,
                "duration": 0.2386364,
                "tempo": 120.0
            },
            {
                "start_time": 118.3204545,
                "end_time": 118.4568182,
                "pitch": 65,
                "velocity": 101,
                "duration": 0.1363636,
                "tempo": 120.0
            },
            {
                "start_time": 118.4568182,
                "end_time": 118.6909091,
                "pitch": 63,
                "velocity": 101,
                "duration": 0.2340909,
                "tempo": 120.0
            },
            {
                "start_time": 118.6931818,
                "end_time": 118.8090909,
                "pitch": 77,
                "velocity": 101,
                "duration": 0.1159091,
                "tempo": 120.0
            },
            {
                "start_time": 118.8090909,
                "end_time": 119.0590909,
                "pitch": 75,
                "velocity": 101,
                "duration": 0.25,
                "tempo": 120.0
            },
            {
                "start_time": 119.0590909,
                "end_time": 119.175,
                "pitch": 65,
                "velocity": 101,
                "duration": 0.1159091,
                "tempo": 120.0
            },
            {
                "start_time": 119.175,
                "end_time": 119.4045455,
                "pitch": 63,
                "velocity": 101,
                "duration": 0.2295455,
                "tempo": 120.0
            },
            {
                "start_time": 119.4045455,
                "end_time": 119.5204545,
                "pitch": 77,
                "velocity": 101,
                "duration": 0.1159091,
                "tempo": 120.0
            },
            {
                "start_time": 119.5204545,
                "end_time": 119.7704545,
                "pitch": 75,
                "velocity": 101,
                "duration": 0.25,
                "tempo": 120.0
            },
            {
                "start_time": 119.7704545,
                "end_time": 119.8863636,
                "pitch": 65,
                "velocity": 101,
                "duration": 0.1159091,
                "tempo": 120.0
            },
            {
                "start_time": 119.8863636,
                "end_time": 120.0068182,
                "pitch": 77,
                "velocity": 101,
                "duration": 0.1204545,
                "tempo": 120.0
            },
            {
                "start_time": 120.0068182,
                "end_time": 120.2636364,
                "pitch": 75,
                "velocity": 101,
                "duration": 0.2568182,
                "tempo": 120.0
            },
            {
                "start_time": 120.2636364,
                "end_time": 120.3840909,
                "pitch": 65,
                "velocity": 101,
                "duration": 0.1204545,
                "tempo": 120.0
            },
            {
                "start_time": 120.3840909,
                "end_time": 120.6181818,
                "pitch": 63,
                "velocity": 101,
                "duration": 0.2340909,
                "tempo": 120.0
            },
            {
                "start_time": 120.6181818,
                "end_time": 120.7363636,
                "pitch": 77,
                "velocity": 101,
                "duration": 0.1181818,
                "tempo": 120.0
            },
            {
                "start_time": 120.7363636,
                "end_time": 120.9863636,
                "pitch": 75,
                "velocity": 101,
                "duration": 0.25,
                "tempo": 120.0
            },
            {
                "start_time": 120.9863636,
                "end_time": 121.1045455,
                "pitch": 65,
                "velocity": 101,
                "duration": 0.1181818,
                "tempo": 120.0
            },
            {
                "start_time": 121.1045455,
                "end_time": 121.3386364,
                "pitch": 63,
                "velocity": 101,
                "duration": 0.2340909,
                "tempo": 120.0
            },
            {
                "start_time": 121.3386364,
                "end_time": 121.4704545,
                "pitch": 77,
                "velocity": 101,
                "duration": 0.1318182,
                "tempo": 120.0
            },
            {
                "start_time": 121.4704545,
                "end_time": 121.7,
                "pitch": 75,
                "velocity": 101,
                "duration": 0.2295455,
                "tempo": 120.0
            },
            {
                "start_time": 121.7,
                "end_time": 121.8136364,
                "pitch": 65,
                "velocity": 101,
                "duration": 0.1136364,
                "tempo": 120.0
            },
            {
                "start_time": 121.8136364,
                "end_time": 121.9340909,
                "pitch": 77,
                "velocity": 101,
                "duration": 0.1204545,
                "tempo": 120.0
            },
            {
                "start_time": 121.9340909,
                "end_time": 122.1909091,
                "pitch": 75,
                "velocity": 101,
                "duration": 0.2568182,
                "tempo": 120.0
            },
            {
                "start_time": 122.1909091,
                "end_time": 122.3090909,
                "pitch": 65,
                "velocity": 101,
                "duration": 0.1181818,
                "tempo": 120.0
            },
            {
                "start_time": 122.3113636,
                "end_time": 122.5431818,
                "pitch": 63,
                "velocity": 101,
                "duration": 0.2318182,
                "tempo": 120.0
            },
            {
                "start_time": 122.5431818,
                "end_time": 122.6772727,
                "pitch": 77,
                "velocity": 101,
                "duration": 0.1340909,
                "tempo": 120.0
            },
            {
                "start_time": 122.6772727,
                "end_time": 122.9113636,
                "pitch": 75,
                "velocity": 101,
                "duration": 0.2340909,
                "tempo": 120.0
            },
            {
                "start_time": 122.9113636,
                "end_time": 123.0295455,
                "pitch": 65,
                "velocity": 101,
                "duration": 0.1181818,
                "tempo": 120.0
            },
            {
                "start_time": 123.0295455,
                "end_time": 123.2818182,
                "pitch": 63,
                "velocity": 101,
                "duration": 0.2522727,
                "tempo": 120.0
            },
            {
                "start_time": 123.2818182,
                "end_time": 123.4022727,
                "pitch": 77,
                "velocity": 101,
                "duration": 0.1204545,
                "tempo": 120.0
            },
            {
                "start_time": 123.4022727,
                "end_time": 123.6409091,
                "pitch": 75,
                "velocity": 101,
                "duration": 0.2386364,
                "tempo": 120.0
            }
        ],
        "Trumpet": [
            {
                "start_time": 0.0113636,
                "end_time": 15.4590909,
                "pitch": 31,
                "velocity": 64,
                "duration": 15.4477273,
                "tempo": 120.0
            },
            {
                "start_time": 15.4590909,
                "end_time": 19.3409091,
                "pitch": 31,
                "velocity": 64,
                "duration": 3.8818182,
                "tempo": 120.0
            },
            {
                "start_time": 19.3409091,
                "end_time": 23.1977273,
                "pitch": 28,
                "velocity": 64,
                "duration": 3.8568182,
                "tempo": 120.0
            },
            {
                "start_time": 23.1977273,
                "end_time": 30.9431818,
                "pitch": 29,
                "velocity": 64,
                "duration": 7.7454545,
                "tempo": 120.0
            },
            {
                "start_time": 30.9431818,
                "end_time": 34.7954545,
                "pitch": 31,
                "velocity": 64,
                "duration": 3.8522727,
                "tempo": 120.0
            },
            {
                "start_time": 34.7954545,
                "end_time": 38.6863636,
                "pitch": 28,
                "velocity": 64,
                "duration": 3.8909091,
                "tempo": 120.0
            },
            {
                "start_time": 38.6863636,
                "end_time": 46.4113636,
                "pitch": 29,
                "velocity": 64,
                "duration": 7.725,
                "tempo": 120.0
            },
            {
                "start_time": 46.4113636,
                "end_time": 51.6909091,
                "pitch": 67,
                "velocity": 51,
                "duration": 5.2795455,
                "tempo": 120.0
            },
            {
                "start_time": 51.6909091,
                "end_time": 56.0522727,
                "pitch": 65,
                "velocity": 51,
                "duration": 4.3613636,
                "tempo": 120.0
            },
            {
                "start_time": 56.0522727,
                "end_time": 59.9431818,
                "pitch": 67,
                "velocity": 51,
                "duration": 3.8909091,
                "tempo": 120.0
            },
            {
                "start_time": 59.9431818,
                "end_time": 61.8727273,
                "pitch": 62,
                "velocity": 51,
                "duration": 1.9295455,
                "tempo": 120.0
            },
            {
                "start_time": 61.8727273,
                "end_time": 67.1727273,
                "pitch": 67,
                "velocity": 51,
                "duration": 5.3,
                "tempo": 120.0
            },
            {
                "start_time": 67.1727273,
                "end_time": 71.5181818,
                "pitch": 65,
                "velocity": 51,
                "duration": 4.3454545,
                "tempo": 120.0
            },
            {
                "start_time": 71.5181818,
                "end_time": 75.4068182,
                "pitch": 67,
                "velocity": 51,
                "duration": 3.8886364,
                "tempo": 120.0
            },
            {
                "start_time": 75.4068182,
                "end_time": 131.4886364,
                "pitch": 62,
                "velocity": 51,
                "duration": 56.0818182,
                "tempo": 120.0
            },
            {
                "start_time": 131.4886364,
                "end_time": 136.7772727,
                "pitch": 67,
                "velocity": 51,
                "duration": 5.2886364,
                "tempo": 120.0
            },
            {
                "start_time": 136.7772727,
                "end_time": 141.1204545,
                "pitch": 65,
                "velocity": 51,
                "duration": 4.3431818,
                "tempo": 120.0
            },
            {
                "start_time": 141.1204545,
                "end_time": 145.0181818,
                "pitch": 67,
                "velocity": 51,
                "duration": 3.8977273,
                "tempo": 120.0
            }
        ],
        "Acoustic Bass": [
            {
                "start_time": 46.4090909,
                "end_time": 46.6545455,
                "pitch": 31,
                "velocity": 101,
                "duration": 0.2454545,
                "tempo": 120.0
            },
            {
                "start_time": 46.6545455,
                "end_time": 46.8840909,
                "pitch": 31,
                "velocity": 101,
                "duration": 0.2295455,
                "tempo": 120.0
            },
            {
                "start_time": 46.8840909,
                "end_time": 47.0,
                "pitch": 43,
                "velocity": 101,
                "duration": 0.1159091,
                "tempo": 120.0
            },
            {
                "start_time": 47.0,
                "end_time": 47.1340909,
                "pitch": 31,
                "velocity": 101,
                "duration": 0.1340909,
                "tempo": 120.0
            },
            {
                "start_time": 47.1363636,
                "end_time": 47.25,
                "pitch": 41,
                "velocity": 101,
                "duration": 0.1136364,
                "tempo": 120.0
            },
            {
                "start_time": 47.25,
                "end_time": 47.4840909,
                "pitch": 43,
                "velocity": 101,
                "duration": 0.2340909,
                "tempo": 120.0
            },
            {
                "start_time": 47.4840909,
                "end_time": 47.7386364,
                "pitch": 31,
                "velocity": 101,
                "duration": 0.2545455,
                "tempo": 120.0
            },
            {
                "start_time": 47.7386364,
                "end_time": 47.975,
                "pitch": 31,
                "velocity": 101,
                "duration": 0.2363636,
                "tempo": 120.0
            },
            {
                "start_time": 47.975,
                "end_time": 48.0954545,
                "pitch": 31,
                "velocity": 101,
                "duration": 0.1204545,
                "tempo": 120.0
            },
            {
                "start_time": 48.0954545,
                "end_time": 48.2159091,
                "pitch": 43,
                "velocity": 101,
                "duration": 0.1204545,
                "tempo": 120.0
            },
            {
                "start_time": 48.2159091,
                "end_time": 48.3522727,
                "pitch": 31,
                "velocity": 101,
                "duration": 0.1363636,
                "tempo": 120.0
            },
            {
                "start_time": 48.3522727,
                "end_time": 48.5863636,
                "pitch": 28,
                "velocity": 101,
                "duration": 0.2340909,
                "tempo": 120.0
            },
            {
                "start_time": 48.5863636,
                "end_time": 48.95,
                "pitch": 28,
                "velocity": 101,
                "duration": 0.3636364,
                "tempo": 120.0
            },
            {
                "start_time": 48.95,
                "end_time": 49.2954545,
                "pitch": 40,
                "velocity": 101,
                "duration": 0.3454545,
                "tempo": 120.0
            },
            {
                "start_time": 49.2954545,
                "end_time": 49.5477273,
                "pitch": 28,
                "velocity": 101,
                "duration": 0.2522727,
                "tempo": 120.0
            },
            {
                "start_time": 49.5477273,
                "end_time": 49.7840909,
                "pitch": 28,
                "velocity": 101,
                "duration": 0.2363636,
                "tempo": 120.0
            },
            {
                "start_time": 49.7840909,
                "end_time": 49.9022727,
                "pitch": 40,
                "velocity": 101,
                "duration": 0.1181818,
                "tempo": 120.0
            },
            {
                "start_time": 49.9022727,
                "end_time": 50.0227273,
                "pitch": 28,
                "velocity": 101,
                "duration": 0.1204545,
                "tempo": 120.0
            },
            {
                "start_time": 50.0227273,
                "end_time": 50.1590909,
                "pitch": 28,
                "velocity": 101,
                "duration": 0.1363636,
                "tempo": 120.0
            },
            {
                "start_time": 50.1590909,
                "end_time": 50.5159091,
                "pitch": 29,
                "velocity": 101,
                "duration": 0.3568182,
                "tempo": 120.0
            },
            {
                "start_time": 50.5159091,
                "end_time": 50.7681818,
                "pitch": 29,
                "velocity": 101,
                "duration": 0.2522727,
                "tempo": 120.0
            },
            {
                "start_time": 50.7681818,
                "end_time": 50.8818182,
                "pitch": 41,
                "velocity": 101,
                "duration": 0.1136364,
                "tempo": 120.0
            },
            {
                "start_time": 50.8818182,
                "end_time": 51.0,
                "pitch": 29,
                "velocity": 101,
                "duration": 0.1181818,
                "tempo": 120.0
            },
            {
                "start_time": 51.0022727,
                "end_time": 51.1159091,
                "pitch": 39,
                "velocity": 101,
                "duration": 0.1136364,
                "tempo": 120.0
            },
            {
                "start_time": 51.1159091,
                "end_time": 51.3636364,
                "pitch": 41,
                "velocity": 101,
                "duration": 0.2477273,
                "tempo": 120.0
            },
            {
                "start_time": 51.3636364,
                "end_time": 51.5954545,
                "pitch": 29,
                "velocity": 101,
                "duration": 0.2318182,
                "tempo": 120.0
            },
            {
                "start_time": 51.5954545,
                "end_time": 51.8295455,
                "pitch": 29,
                "velocity": 101,
                "duration": 0.2340909,
                "tempo": 120.0
            },
            {
                "start_time": 51.8295455,
                "end_time": 51.9659091,
                "pitch": 29,
                "velocity": 101,
                "duration": 0.1363636,
                "tempo": 120.0
            },
            {
                "start_time": 51.9681818,
                "end_time": 52.0863636,
                "pitch": 39,
                "velocity": 101,
                "duration": 0.1181818,
                "tempo": 120.0
            },
            {
                "start_time": 52.0863636,
                "end_time": 52.2068182,
                "pitch": 41,
                "velocity": 101,
                "duration": 0.1204545,
                "tempo": 120.0
            },
            {
                "start_time": 52.2068182,
                "end_time": 52.3227273,
                "pitch": 31,
                "velocity": 101,
                "duration": 0.1159091,
                "tempo": 120.0
            },
            {
                "start_time": 52.3227273,
                "end_time": 52.4409091,
                "pitch": 31,
                "velocity": 101,
                "duration": 0.1181818,
                "tempo": 120.0
            },
            {
                "start_time": 52.4409091,
                "end_time": 52.5727273,
                "pitch": 43,
                "velocity": 101,
                "duration": 0.1318182,
                "tempo": 120.0
            },
            {
                "start_time": 52.5727273,
                "end_time": 52.6909091,
                "pitch": 43,
                "velocity": 101,
                "duration": 0.1181818,
                "tempo": 120.0
            },
            {
                "start_time": 52.6909091,
                "end_time": 52.8068182,
                "pitch": 31,
                "velocity": 101,
                "duration": 0.1159091,
                "tempo": 120.0
            },
            {
                "start_time": 52.8068182,
                "end_time": 52.925,
                "pitch": 31,
                "velocity": 101,
                "duration": 0.1181818,
                "tempo": 120.0
            },
            {
                "start_time": 52.925,
                "end_time": 53.0431818,
                "pitch": 43,
                "velocity": 101,
                "duration": 0.1181818,
                "tempo": 120.0
            },
            {
                "start_time": 53.0431818,
                "end_time": 53.1772727,
                "pitch": 43,
                "velocity": 101,
                "duration": 0.1340909,
                "tempo": 120.0
            },
            {
                "start_time": 53.1772727,
                "end_time": 53.2954545,
                "pitch": 31,
                "velocity": 101,
                "duration": 0.1181818,
                "tempo": 120.0
            },
            {
                "start_time": 53.2954545,
                "end_time": 53.4181818,
                "pitch": 31,
                "velocity": 101,
                "duration": 0.1227273,
                "tempo": 120.0
            },
            {
                "start_time": 53.4181818,
                "end_time": 53.5363636,
                "pitch": 43,
                "velocity": 101,
                "duration": 0.1181818,
                "tempo": 120.0
            },
            {
                "start_time": 53.5363636,
                "end_time": 53.6568182,
                "pitch": 43,
                "velocity": 101,
                "duration": 0.1204545,
                "tempo": 120.0
            },
            {
                "start_time": 53.6568182,
                "end_time": 53.7863636,
                "pitch": 31,
                "velocity": 101,
                "duration": 0.1295455,
                "tempo": 120.0
            },
            {
                "start_time": 53.7886364,
                "end_time": 53.9045455,
                "pitch": 31,
                "velocity": 101,
                "duration": 0.1159091,
                "tempo": 120.0
            },
            {
                "start_time": 53.9045455,
                "end_time": 54.0181818,
                "pitch": 43,
                "velocity": 101,
                "duration": 0.1136364,
                "tempo": 120.0
            },
            {
                "start_time": 54.0181818,
                "end_time": 54.1318182,
                "pitch": 31,
                "velocity": 101,
                "duration": 0.1136364,
                "tempo": 120.0
            },
            {
                "start_time": 54.1340909,
                "end_time": 54.3840909,
                "pitch": 31,
                "velocity": 101,
                "duration": 0.25,
                "tempo": 120.0
            },
            {
                "start_time": 54.3840909,
                "end_time": 54.6159091,
                "pitch": 31,
                "velocity": 101,
                "duration": 0.2318182,
                "tempo": 120.0
            },
            {
                "start_time": 54.6181818,
                "end_time": 54.7340909,
                "pitch": 43,
                "velocity": 101,
                "duration": 0.1159091,
                "tempo": 120.0
            },
            {
                "start_time": 54.7340909,
                "end_time": 54.8522727,
                "pitch": 31,
                "velocity": 101,
                "duration": 0.1181818,
                "tempo": 120.0
            },
            {
                "start_time": 54.8522727,
                "end_time": 54.9863636,
                "pitch": 41,
                "velocity": 101,
                "duration": 0.1340909,
                "tempo": 120.0
            },
            {
                "start_time": 54.9863636,
                "end_time": 55.2227273,
                "pitch": 43,
                "velocity": 101,
                "duration": 0.2363636,
                "tempo": 120.0
            },
            {
                "start_time": 55.2227273,
                "end_time": 55.4636364,
                "pitch": 31,
                "velocity": 101,
                "duration": 0.2409091,
                "tempo": 120.0
            },
            {
                "start_time": 55.4636364,
                "end_time": 55.7181818,
                "pitch": 31,
                "velocity": 101,
                "duration": 0.2545455,
                "tempo": 120.0
            },
            {
                "start_time": 55.7181818,
                "end_time": 55.8363636,
                "pitch": 31,
                "velocity": 101,
                "duration": 0.1181818,
                "tempo": 120.0
            },
            {
                "start_time": 55.8363636,
                "end_time": 55.9545455,
                "pitch": 43,
                "velocity": 101,
                "duration": 0.1181818,
                "tempo": 120.0
            },
            {
                "start_time": 55.9545455,
                "end_time": 56.0704545,
                "pitch": 31,
                "velocity": 101,
                "duration": 0.1159091,
                "tempo": 120.0
            },
            {
                "start_time": 56.0704545,
                "end_time": 56.3181818,
                "pitch": 28,
                "velocity": 101,
                "duration": 0.2477273,
                "tempo": 120.0
            },
            {
                "start_time": 56.3181818,
                "end_time": 56.6636364,
                "pitch": 28,
                "velocity": 101,
                "duration": 0.3454545,
                "tempo": 120.0
            },
            {
                "start_time": 56.6636364,
                "end_time": 57.0318182,
                "pitch": 40,
                "velocity": 101,
                "duration": 0.3681818,
                "tempo": 120.0
            },
            {
                "start_time": 57.0318182,
                "end_time": 57.2704545,
                "pitch": 28,
                "velocity": 101,
                "duration": 0.2386364,
                "tempo": 120.0
            },
            {
                "start_time": 57.2727273,
                "end_time": 57.5272727,
                "pitch": 28,
                "velocity": 101,
                "duration": 0.2545455,
                "tempo": 120.0
            },
            {
                "start_time": 57.5272727,
                "end_time": 57.6454545,
                "pitch": 40,
                "velocity": 101,
                "duration": 0.1181818,
                "tempo": 120.0
            },
            {
                "start_time": 57.6454545,
                "end_time": 57.7636364,
                "pitch": 28,
                "velocity": 101,
                "duration": 0.1181818,
                "tempo": 120.0
            },
            {
                "start_time": 57.7636364,
                "end_time": 57.8795455,
                "pitch": 28,
                "velocity": 101,
                "duration": 0.1159091,
                "tempo": 120.0
            },
            {
                "start_time": 57.8818182,
                "end_time": 58.25,
                "pitch": 29,
                "velocity": 101,
                "duration": 0.3681818,
                "tempo": 120.0
            },
            {
                "start_time": 58.25,
                "end_time": 58.4818182,
                "pitch": 29,
                "velocity": 101,
                "duration": 0.2318182,
                "tempo": 120.0
            },
            {
                "start_time": 58.4818182,
                "end_time": 58.6136364,
                "pitch": 41,
                "velocity": 101,
                "duration": 0.1318182,
                "tempo": 120.0
            },
            {
                "start_time": 58.6136364,
                "end_time": 58.7295455,
                "pitch": 29,
                "velocity": 101,
                "duration": 0.1159091,
                "tempo": 120.0
            },
            {
                "start_time": 58.7295455,
                "end_time": 58.8431818,
                "pitch": 39,
                "velocity": 101,
                "duration": 0.1136364,
                "tempo": 120.0
            },
            {
                "start_time": 58.8431818,
                "end_time": 59.075,
                "pitch": 41,
                "velocity": 101,
                "duration": 0.2318182,
                "tempo": 120.0
            },
            {
                "start_time": 59.075,
                "end_time": 59.3272727,
                "pitch": 29,
                "velocity": 101,
                "duration": 0.2522727,
                "tempo": 120.0
            },
            {
                "start_time": 59.3272727,
                "end_time": 59.5659091,
                "pitch": 29,
                "velocity": 101,
                "duration": 0.2386364,
                "tempo": 120.0
            },
            {
                "start_time": 59.5659091,
                "end_time": 59.6863636,
                "pitch": 29,
                "velocity": 101,
                "duration": 0.1204545,
                "tempo": 120.0
            },
            {
                "start_time": 59.6863636,
                "end_time": 59.8227273,
                "pitch": 39,
                "velocity": 101,
                "duration": 0.1363636,
                "tempo": 120.0
            },
            {
                "start_time": 59.8227273,
                "end_time": 59.9431818,
                "pitch": 41,
                "velocity": 101,
                "duration": 0.1204545,
                "tempo": 120.0
            },
            {
                "start_time": 59.9431818,
                "end_time": 60.0590909,
                "pitch": 31,
                "velocity": 101,
                "duration": 0.1159091,
                "tempo": 120.0
            },
            {
                "start_time": 60.0590909,
                "end_time": 60.1772727,
                "pitch": 31,
                "velocity": 101,
                "duration": 0.1181818,
                "tempo": 120.0
            },
            {
                "start_time": 60.1772727,
                "end_time": 60.2954545,
                "pitch": 43,
                "velocity": 101,
                "duration": 0.1181818,
                "tempo": 120.0
            },
            {
                "start_time": 60.2954545,
                "end_time": 60.4295455,
                "pitch": 43,
                "velocity": 101,
                "duration": 0.1340909,
                "tempo": 120.0
            },
            {
                "start_time": 60.4295455,
                "end_time": 60.5477273,
                "pitch": 31,
                "velocity": 101,
                "duration": 0.1181818,
                "tempo": 120.0
            },
            {
                "start_time": 60.5477273,
                "end_time": 60.6704545,
                "pitch": 31,
                "velocity": 101,
                "duration": 0.1227273,
                "tempo": 120.0
            },
            {
                "start_time": 60.6704545,
                "end_time": 60.7886364,
                "pitch": 43,
                "velocity": 101,
                "duration": 0.1181818,
                "tempo": 120.0
            },
            {
                "start_time": 60.7886364,
                "end_time": 60.9090909,
                "pitch": 43,
                "velocity": 101,
                "duration": 0.1204545,
                "tempo": 120.0
            },
            {
                "start_time": 60.9090909,
                "end_time": 61.0363636,
                "pitch": 31,
                "velocity": 101,
                "duration": 0.1272727,
                "tempo": 120.0
            },
            {
                "start_time": 61.0363636,
                "end_time": 61.15,
                "pitch": 31,
                "velocity": 101,
                "duration": 0.1136364,
                "tempo": 120.0
            },
            {
                "start_time": 61.15,
                "end_time": 61.2613636,
                "pitch": 43,
                "velocity": 101,
                "duration": 0.1113636,
                "tempo": 120.0
            },
            {
                "start_time": 61.2613636,
                "end_time": 61.375,
                "pitch": 43,
                "velocity": 101,
                "duration": 0.1136364,
                "tempo": 120.0
            },
            {
                "start_time": 61.375,
                "end_time": 61.4931818,
                "pitch": 31,
                "velocity": 101,
                "duration": 0.1181818,
                "tempo": 120.0
            },
            {
                "start_time": 61.4931818,
                "end_time": 61.6318182,
                "pitch": 31,
                "velocity": 101,
                "duration": 0.1386364,
                "tempo": 120.0
            },
            {
                "start_time": 61.6318182,
                "end_time": 61.75,
                "pitch": 43,
                "velocity": 101,
                "duration": 0.1181818,
                "tempo": 120.0
            },
            {
                "start_time": 61.75,
                "end_time": 61.8704545,
                "pitch": 31,
                "velocity": 101,
                "duration": 0.1204545,
                "tempo": 120.0
            },
            {
                "start_time": 61.8727273,
                "end_time": 62.1090909,
                "pitch": 31,
                "velocity": 101,
                "duration": 0.2363636,
                "tempo": 120.0
            },
            {
                "start_time": 62.1090909,
                "end_time": 62.3659091,
                "pitch": 31,
                "velocity": 101,
                "duration": 0.2568182,
                "tempo": 120.0
            },
            {
                "start_time": 62.3659091,
                "end_time": 62.4818182,
                "pitch": 43,
                "velocity": 101,
                "duration": 0.1159091,
                "tempo": 120.0
            },
            {
                "start_time": 62.4818182,
                "end_time": 62.6,
                "pitch": 31,
                "velocity": 101,
                "duration": 0.1181818,
                "tempo": 120.0
            },
            {
                "start_time": 62.6,
                "end_time": 62.7136364,
                "pitch": 41,
                "velocity": 101,
                "duration": 0.1136364,
                "tempo": 120.0
            },
            {
                "start_time": 62.7159091,
                "end_time": 62.9659091,
                "pitch": 43,
                "velocity": 101,
                "duration": 0.25,
                "tempo": 120.0
            },
            {
                "start_time": 62.9659091,
                "end_time": 63.2022727,
                "pitch": 31,
                "velocity": 101,
                "duration": 0.2363636,
                "tempo": 120.0
            },
            {
                "start_time": 63.2022727,
                "end_time": 63.45,
                "pitch": 31,
                "velocity": 101,
                "duration": 0.2477273,
                "tempo": 120.0
            },
            {
                "start_time": 63.4522727,
                "end_time": 63.5681818,
                "pitch": 31,
                "velocity": 101,
                "duration": 0.1159091,
                "tempo": 120.0
            },
            {
                "start_time": 63.5681818,
                "end_time": 63.6818182,
                "pitch": 43,
                "velocity": 101,
                "duration": 0.1136364,
                "tempo": 120.0
            },
            {
                "start_time": 63.6818182,
                "end_time": 63.7954545,
                "pitch": 31,
                "velocity": 101,
                "duration": 0.1136364,
                "tempo": 120.0
            },
            {
                "start_time": 63.7977273,
                "end_time": 64.0477273,
                "pitch": 28,
                "velocity": 101,
                "duration": 0.25,
                "tempo": 120.0
            },
            {
                "start_time": 64.0477273,
                "end_time": 64.4,
                "pitch": 28,
                "velocity": 101,
                "duration": 0.3522727,
                "tempo": 120.0
            },
            {
                "start_time": 64.4,
                "end_time": 64.7772727,
                "pitch": 40,
                "velocity": 101,
                "duration": 0.3772727,
                "tempo": 120.0
            },
            {
                "start_time": 64.7772727,
                "end_time": 65.0113636,
                "pitch": 28,
                "velocity": 101,
                "duration": 0.2340909,
                "tempo": 120.0
            },
            {
                "start_time": 65.0113636,
                "end_time": 65.2613636,
                "pitch": 28,
                "velocity": 101,
                "duration": 0.25,
                "tempo": 120.0
            },
            {
                "start_time": 65.2613636,
                "end_time": 65.3772727,
                "pitch": 40,
                "velocity": 101,
                "duration": 0.1159091,
                "tempo": 120.0
            },
            {
                "start_time": 65.3772727,
                "end_time": 65.4954545,
                "pitch": 28,
                "velocity": 101,
                "duration": 0.1181818,
                "tempo": 120.0
            },
            {
                "start_time": 65.4954545,
                "end_time": 65.6136364,
                "pitch": 28,
                "velocity": 101,
                "duration": 0.1181818,
                "tempo": 120.0
            },
            {
                "start_time": 65.6136364,
                "end_time": 65.9772727,
                "pitch": 29,
                "velocity": 101,
                "duration": 0.3636364,
                "tempo": 120.0
            },
            {
                "start_time": 65.9772727,
                "end_time": 66.2090909,
                "pitch": 29,
                "velocity": 101,
                "duration": 0.2318182,
                "tempo": 120.0
            },
            {
                "start_time": 66.2090909,
                "end_time": 66.325,
                "pitch": 41,
                "velocity": 101,
                "duration": 0.1159091,
                "tempo": 120.0
            },
            {
                "start_time": 66.3272727,
                "end_time": 66.4636364,
                "pitch": 29,
                "velocity": 101,
                "duration": 0.1363636,
                "tempo": 120.0
            },
            {
                "start_time": 66.4636364,
                "end_time": 66.5818182,
                "pitch": 39,
                "velocity": 101,
                "duration": 0.1181818,
                "tempo": 120.0
            },
            {
                "start_time": 66.5818182,
                "end_time": 66.8204545,
                "pitch": 41,
                "velocity": 101,
                "duration": 0.2386364,
                "tempo": 120.0
            },
            {
                "start_time": 66.8204545,
                "end_time": 67.0727273,
                "pitch": 29,
                "velocity": 101,
                "duration": 0.2522727,
                "tempo": 120.0
            },
            {
                "start_time": 67.0727273,
                "end_time": 67.3090909,
                "pitch": 29,
                "velocity": 101,
                "duration": 0.2363636,
                "tempo": 120.0
            },
            {
                "start_time": 67.3090909,
                "end_time": 67.4272727,
                "pitch": 29,
                "velocity": 101,
                "duration": 0.1181818,
                "tempo": 120.0
            },
            {
                "start_time": 67.4272727,
                "end_time": 67.5431818,
                "pitch": 39,
                "velocity": 101,
                "duration": 0.1159091,
                "tempo": 120.0
            },
            {
                "start_time": 67.5454545,
                "end_time": 67.6795455,
                "pitch": 41,
                "velocity": 101,
                "duration": 0.1340909,
                "tempo": 120.0
            },
            {
                "start_time": 67.6795455,
                "end_time": 67.7954545,
                "pitch": 31,
                "velocity": 101,
                "duration": 0.1159091,
                "tempo": 120.0
            },
            {
                "start_time": 67.7954545,
                "end_time": 67.9136364,
                "pitch": 31,
                "velocity": 101,
                "duration": 0.1181818,
                "tempo": 120.0
            },
            {
                "start_time": 67.9159091,
                "end_time": 68.0318182,
                "pitch": 43,
                "velocity": 101,
                "duration": 0.1159091,
                "tempo": 120.0
            },
            {
                "start_time": 68.0318182,
                "end_time": 68.15,
                "pitch": 43,
                "velocity": 101,
                "duration": 0.1181818,
                "tempo": 120.0
            },
            {
                "start_time": 68.15,
                "end_time": 68.2795455,
                "pitch": 31,
                "velocity": 101,
                "duration": 0.1295455,
                "tempo": 120.0
            },
            {
                "start_time": 68.2795455,
                "end_time": 68.3954545,
                "pitch": 31,
                "velocity": 101,
                "duration": 0.1159091,
                "tempo": 120.0
            },
            {
                "start_time": 68.3977273,
                "end_time": 68.5090909,
                "pitch": 43,
                "velocity": 101,
                "duration": 0.1113636,
                "tempo": 120.0
            },
            {
                "start_time": 68.5090909,
                "end_time": 68.6272727,
                "pitch": 43,
                "velocity": 101,
                "duration": 0.1181818,
                "tempo": 120.0
            },
            {
                "start_time": 68.6272727,
                "end_time": 68.7454545,
                "pitch": 31,
                "velocity": 101,
                "duration": 0.1181818,
                "tempo": 120.0
            },
            {
                "start_time": 68.7454545,
                "end_time": 68.8818182,
                "pitch": 31,
                "velocity": 101,
                "duration": 0.1363636,
                "tempo": 120.0
            },
            {
                "start_time": 68.8840909,
                "end_time": 69.0022727,
                "pitch": 43,
                "velocity": 101,
                "duration": 0.1181818,
                "tempo": 120.0
            },
            {
                "start_time": 69.0022727,
                "end_time": 69.1227273,
                "pitch": 43,
                "velocity": 101,
                "duration": 0.1204545,
                "tempo": 120.0
            },
            {
                "start_time": 69.1227273,
                "end_time": 69.2386364,
                "pitch": 31,
                "velocity": 101,
                "duration": 0.1159091,
                "tempo": 120.0
            },
            {
                "start_time": 69.2386364,
                "end_time": 69.3568182,
                "pitch": 31,
                "velocity": 101,
                "duration": 0.1181818,
                "tempo": 120.0
            },
            {
                "start_time": 69.3568182,
                "end_time": 69.4909091,
                "pitch": 43,
                "velocity": 101,
                "duration": 0.1340909,
                "tempo": 120.0
            },
            {
                "start_time": 69.4909091,
                "end_time": 69.6090909,
                "pitch": 31,
                "velocity": 101,
                "duration": 0.1181818,
                "tempo": 120.0
            },
            {
                "start_time": 69.6090909,
                "end_time": 69.8431818,
                "pitch": 31,
                "velocity": 101,
                "duration": 0.2340909,
                "tempo": 120.0
            },
            {
                "start_time": 69.8431818,
                "end_time": 70.0931818,
                "pitch": 31,
                "velocity": 101,
                "duration": 0.25,
                "tempo": 120.0
            },
            {
                "start_time": 70.0931818,
                "end_time": 70.2113636,
                "pitch": 43,
                "velocity": 101,
                "duration": 0.1181818,
                "tempo": 120.0
            },
            {
                "start_time": 70.2113636,
                "end_time": 70.3340909,
                "pitch": 31,
                "velocity": 101,
                "duration": 0.1227273,
                "tempo": 120.0
            },
            {
                "start_time": 70.3340909,
                "end_time": 70.4522727,
                "pitch": 41,
                "velocity": 101,
                "duration": 0.1181818,
                "tempo": 120.0
            },
            {
                "start_time": 70.4522727,
                "end_time": 70.7022727,
                "pitch": 43,
                "velocity": 101,
                "duration": 0.25,
                "tempo": 120.0
            },
            {
                "start_time": 70.7022727,
                "end_time": 70.9340909,
                "pitch": 31,
                "velocity": 101,
                "duration": 0.2318182,
                "tempo": 120.0
            },
            {
                "start_time": 70.9340909,
                "end_time": 71.1659091,
                "pitch": 31,
                "velocity": 101,
                "duration": 0.2318182,
                "tempo": 120.0
            },
            {
                "start_time": 71.1659091,
                "end_time": 71.3022727,
                "pitch": 31,
                "velocity": 101,
                "duration": 0.1363636,
                "tempo": 120.0
            },
            {
                "start_time": 71.3022727,
                "end_time": 71.4181818,
                "pitch": 43,
                "velocity": 101,
                "duration": 0.1159091,
                "tempo": 120.0
            },
            {
                "start_time": 71.4181818,
                "end_time": 71.5363636,
                "pitch": 31,
                "velocity": 101,
                "duration": 0.1181818,
                "tempo": 120.0
            },
            {
                "start_time": 71.5363636,
                "end_time": 71.7704545,
                "pitch": 28,
                "velocity": 101,
                "duration": 0.2340909,
                "tempo": 120.0
            },
            {
                "start_time": 71.7704545,
                "end_time": 72.1386364,
                "pitch": 28,
                "velocity": 101,
                "duration": 0.3681818,
                "tempo": 120.0
            },
            {
                "start_time": 72.1386364,
                "end_time": 72.5159091,
                "pitch": 40,
                "velocity": 101,
                "duration": 0.3772727,
                "tempo": 120.0
            },
            {
                "start_time": 72.5159091,
                "end_time": 72.75,
                "pitch": 28,
                "velocity": 101,
                "duration": 0.2340909,
                "tempo": 120.0
            },
            {
                "start_time": 72.75,
                "end_time": 72.9840909,
                "pitch": 28,
                "velocity": 101,
                "duration": 0.2340909,
                "tempo": 120.0
            },
            {
                "start_time": 72.9840909,
                "end_time": 73.1136364,
                "pitch": 40,
                "velocity": 101,
                "duration": 0.1295455,
                "tempo": 120.0
            },
            {
                "start_time": 73.1136364,
                "end_time": 73.2295455,
                "pitch": 28,
                "velocity": 101,
                "duration": 0.1159091,
                "tempo": 120.0
            },
            {
                "start_time": 73.2295455,
                "end_time": 73.3431818,
                "pitch": 28,
                "velocity": 101,
                "duration": 0.1136364,
                "tempo": 120.0
            },
            {
                "start_time": 73.3454545,
                "end_time": 73.7113636,
                "pitch": 29,
                "velocity": 101,
                "duration": 0.3659091,
                "tempo": 120.0
            },
            {
                "start_time": 73.7113636,
                "end_time": 73.9477273,
                "pitch": 29,
                "velocity": 101,
                "duration": 0.2363636,
                "tempo": 120.0
            },
            {
                "start_time": 73.9477273,
                "end_time": 74.0659091,
                "pitch": 41,
                "velocity": 101,
                "duration": 0.1181818,
                "tempo": 120.0
            },
            {
                "start_time": 74.0659091,
                "end_time": 74.1863636,
                "pitch": 29,
                "velocity": 101,
                "duration": 0.1204545,
                "tempo": 120.0
            },
            {
                "start_time": 74.1863636,
                "end_time": 74.3227273,
                "pitch": 39,
                "velocity": 101,
                "duration": 0.1363636,
                "tempo": 120.0
            },
            {
                "start_time": 74.3227273,
                "end_time": 74.5590909,
                "pitch": 41,
                "velocity": 101,
                "duration": 0.2363636,
                "tempo": 120.0
            },
            {
                "start_time": 74.5590909,
                "end_time": 74.7931818,
                "pitch": 29,
                "velocity": 101,
                "duration": 0.2340909,
                "tempo": 120.0
            },
            {
                "start_time": 74.7931818,
                "end_time": 75.0454545,
                "pitch": 29,
                "velocity": 101,
                "duration": 0.2522727,
                "tempo": 120.0
            },
            {
                "start_time": 75.0454545,
                "end_time": 75.1659091,
                "pitch": 29,
                "velocity": 101,
                "duration": 0.1204545,
                "tempo": 120.0
            },
            {
                "start_time": 75.1659091,
                "end_time": 75.2863636,
                "pitch": 39,
                "velocity": 101,
                "duration": 0.1204545,
                "tempo": 120.0
            },
            {
                "start_time": 75.2863636,
                "end_time": 75.4045455,
                "pitch": 41,
                "velocity": 101,
                "duration": 0.1181818,
                "tempo": 120.0
            },
            {
                "start_time": 75.4045455,
                "end_time": 75.5340909,
                "pitch": 31,
                "velocity": 101,
                "duration": 0.1295455,
                "tempo": 120.0
            },
            {
                "start_time": 75.5340909,
                "end_time": 75.6454545,
                "pitch": 31,
                "velocity": 101,
                "duration": 0.1113636,
                "tempo": 120.0
            },
            {
                "start_time": 75.6477273,
                "end_time": 75.7568182,
                "pitch": 43,
                "velocity": 101,
                "duration": 0.1090909,
                "tempo": 120.0
            },
            {
                "start_time": 75.7568182,
                "end_time": 75.8704545,
                "pitch": 43,
                "velocity": 101,
                "duration": 0.1136364,
                "tempo": 120.0
            },
            {
                "start_time": 75.8704545,
                "end_time": 75.9886364,
                "pitch": 31,
                "velocity": 101,
                "duration": 0.1181818,
                "tempo": 120.0
            },
            {
                "start_time": 75.9886364,
                "end_time": 76.1272727,
                "pitch": 31,
                "velocity": 101,
                "duration": 0.1386364,
                "tempo": 120.0
            },
            {
                "start_time": 76.1272727,
                "end_time": 76.2454545,
                "pitch": 43,
                "velocity": 101,
                "duration": 0.1181818,
                "tempo": 120.0
            },
            {
                "start_time": 76.2454545,
                "end_time": 76.3659091,
                "pitch": 43,
                "velocity": 101,
                "duration": 0.1204545,
                "tempo": 120.0
            },
            {
                "start_time": 76.3659091,
                "end_time": 76.4818182,
                "pitch": 31,
                "velocity": 101,
                "duration": 0.1159091,
                "tempo": 120.0
            },
            {
                "start_time": 76.4840909,
                "end_time": 76.6022727,
                "pitch": 31,
                "velocity": 101,
                "duration": 0.1181818,
                "tempo": 120.0
            },
            {
                "start_time": 76.6022727,
                "end_time": 76.7363636,
                "pitch": 43,
                "velocity": 101,
                "duration": 0.1340909,
                "tempo": 120.0
            },
            {
                "start_time": 76.7363636,
                "end_time": 76.8545455,
                "pitch": 43,
                "velocity": 101,
                "duration": 0.1181818,
                "tempo": 120.0
            },
            {
                "start_time": 76.8545455,
                "end_time": 76.9727273,
                "pitch": 31,
                "velocity": 101,
                "duration": 0.1181818,
                "tempo": 120.0
            },
            {
                "start_time": 76.9727273,
                "end_time": 77.0931818,
                "pitch": 31,
                "velocity": 101,
                "duration": 0.1204545,
                "tempo": 120.0
            },
            {
                "start_time": 77.0931818,
                "end_time": 77.2136364,
                "pitch": 43,
                "velocity": 101,
                "duration": 0.1204545,
                "tempo": 120.0
            },
            {
                "start_time": 77.2136364,
                "end_time": 77.3522727,
                "pitch": 31,
                "velocity": 101,
                "duration": 0.1386364,
                "tempo": 120.0
            },
            {
                "start_time": 77.3522727,
                "end_time": 77.5840909,
                "pitch": 31,
                "velocity": 101,
                "duration": 0.2318182,
                "tempo": 120.0
            },
            {
                "start_time": 77.5840909,
                "end_time": 77.8181818,
                "pitch": 31,
                "velocity": 101,
                "duration": 0.2340909,
                "tempo": 120.0
            },
            {
                "start_time": 77.8181818,
                "end_time": 77.9477273,
                "pitch": 43,
                "velocity": 101,
                "duration": 0.1295455,
                "tempo": 120.0
            },
            {
                "start_time": 77.9477273,
                "end_time": 78.0636364,
                "pitch": 31,
                "velocity": 101,
                "duration": 0.1159091,
                "tempo": 120.0
            },
            {
                "start_time": 78.0636364,
                "end_time": 78.1772727,
                "pitch": 41,
                "velocity": 101,
                "duration": 0.1136364,
                "tempo": 120.0
            },
            {
                "start_time": 78.1772727,
                "end_time": 78.4090909,
                "pitch": 43,
                "velocity": 101,
                "duration": 0.2318182,
                "tempo": 120.0
            },
            {
                "start_time": 78.4090909,
                "end_time": 78.6636364,
                "pitch": 31,
                "velocity": 101,
                "duration": 0.2545455,
                "tempo": 120.0
            },
            {
                "start_time": 78.6636364,
                "end_time": 78.8977273,
                "pitch": 31,
                "velocity": 101,
                "duration": 0.2340909,
                "tempo": 120.0
            },
            {
                "start_time": 78.8977273,
                "end_time": 79.0181818,
                "pitch": 31,
                "velocity": 101,
                "duration": 0.1204545,
                "tempo": 120.0
            },
            {
                "start_time": 79.0181818,
                "end_time": 79.1522727,
                "pitch": 43,
                "velocity": 101,
                "duration": 0.1340909,
                "tempo": 120.0
            },
            {
                "start_time": 79.1522727,
                "end_time": 79.2681818,
                "pitch": 31,
                "velocity": 101,
                "duration": 0.1159091,
                "tempo": 120.0
            },
            {
                "start_time": 79.2681818,
                "end_time": 79.5090909,
                "pitch": 28,
                "velocity": 101,
                "duration": 0.2409091,
                "tempo": 120.0
            },
            {
                "start_time": 79.5090909,
                "end_time": 79.8818182,
                "pitch": 28,
                "velocity": 101,
                "duration": 0.3727273,
                "tempo": 120.0
            },
            {
                "start_time": 79.8818182,
                "end_time": 80.2363636,
                "pitch": 40,
                "velocity": 101,
                "duration": 0.3545455,
                "tempo": 120.0
            },
            {
                "start_time": 80.2363636,
                "end_time": 80.4818182,
                "pitch": 28,
                "velocity": 101,
                "duration": 0.2454545,
                "tempo": 120.0
            },
            {
                "start_time": 80.4818182,
                "end_time": 80.7113636,
                "pitch": 28,
                "velocity": 101,
                "duration": 0.2295455,
                "tempo": 120.0
            },
            {
                "start_time": 80.7113636,
                "end_time": 80.8295455,
                "pitch": 40,
                "velocity": 101,
                "duration": 0.1181818,
                "tempo": 120.0
            },
            {
                "start_time": 80.8295455,
                "end_time": 80.9659091,
                "pitch": 28,
                "velocity": 101,
                "duration": 0.1363636,
                "tempo": 120.0
            },
            {
                "start_time": 80.9659091,
                "end_time": 81.0818182,
                "pitch": 28,
                "velocity": 101,
                "duration": 0.1159091,
                "tempo": 120.0
            },
            {
                "start_time": 81.0818182,
                "end_time": 81.4386364,
                "pitch": 29,
                "velocity": 101,
                "duration": 0.3568182,
                "tempo": 120.0
            },
            {
                "start_time": 81.4409091,
                "end_time": 81.6954545,
                "pitch": 29,
                "velocity": 101,
                "duration": 0.2545455,
                "tempo": 120.0
            },
            {
                "start_time": 81.6954545,
                "end_time": 81.8113636,
                "pitch": 41,
                "velocity": 101,
                "duration": 0.1159091,
                "tempo": 120.0
            },
            {
                "start_time": 81.8136364,
                "end_time": 81.9318182,
                "pitch": 29,
                "velocity": 101,
                "duration": 0.1181818,
                "tempo": 120.0
            },
            {
                "start_time": 81.9318182,
                "end_time": 82.0477273,
                "pitch": 39,
                "velocity": 101,
                "duration": 0.1159091,
                "tempo": 120.0
            },
            {
                "start_time": 82.0477273,
                "end_time": 82.3,
                "pitch": 41,
                "velocity": 101,
                "duration": 0.2522727,
                "tempo": 120.0
            },
            {
                "start_time": 82.3,
                "end_time": 82.5340909,
                "pitch": 29,
                "velocity": 101,
                "duration": 0.2340909,
                "tempo": 120.0
            },
            {
                "start_time": 82.5340909,
                "end_time": 82.7818182,
                "pitch": 29,
                "velocity": 101,
                "duration": 0.2477273,
                "tempo": 120.0
            },
            {
                "start_time": 82.7818182,
                "end_time": 82.8977273,
                "pitch": 29,
                "velocity": 101,
                "duration": 0.1159091,
                "tempo": 120.0
            },
            {
                "start_time": 82.8977273,
                "end_time": 83.0113636,
                "pitch": 39,
                "velocity": 101,
                "duration": 0.1136364,
                "tempo": 120.0
            },
            {
                "start_time": 83.0113636,
                "end_time": 83.1272727,
                "pitch": 41,
                "velocity": 101,
                "duration": 0.1159091,
                "tempo": 120.0
            },
            {
                "start_time": 83.1272727,
                "end_time": 83.2454545,
                "pitch": 31,
                "velocity": 101,
                "duration": 0.1181818,
                "tempo": 120.0
            },
            {
                "start_time": 83.2454545,
                "end_time": 83.3840909,
                "pitch": 31,
                "velocity": 101,
                "duration": 0.1386364,
                "tempo": 120.0
            },
            {
                "start_time": 83.3840909,
                "end_time": 83.5022727,
                "pitch": 43,
                "velocity": 101,
                "duration": 0.1181818,
                "tempo": 120.0
            },
            {
                "start_time": 83.5022727,
                "end_time": 83.6227273,
                "pitch": 43,
                "velocity": 101,
                "duration": 0.1204545,
                "tempo": 120.0
            },
            {
                "start_time": 83.6227273,
                "end_time": 83.7386364,
                "pitch": 31,
                "velocity": 101,
                "duration": 0.1159091,
                "tempo": 120.0
            },
            {
                "start_time": 83.7386364,
                "end_time": 83.8590909,
                "pitch": 31,
                "velocity": 101,
                "duration": 0.1204545,
                "tempo": 120.0
            },
            {
                "start_time": 83.8590909,
                "end_time": 83.9909091,
                "pitch": 43,
                "velocity": 101,
                "duration": 0.1318182,
                "tempo": 120.0
            },
            {
                "start_time": 83.9909091,
                "end_time": 84.1113636,
                "pitch": 43,
                "velocity": 101,
                "duration": 0.1204545,
                "tempo": 120.0
            },
            {
                "start_time": 84.1113636,
                "end_time": 84.225,
                "pitch": 31,
                "velocity": 101,
                "duration": 0.1136364,
                "tempo": 120.0
            },
            {
                "start_time": 84.2272727,
                "end_time": 84.3454545,
                "pitch": 31,
                "velocity": 101,
                "duration": 0.1181818,
                "tempo": 120.0
            },
            {
                "start_time": 84.3454545,
                "end_time": 84.4590909,
                "pitch": 43,
                "velocity": 101,
                "duration": 0.1136364,
                "tempo": 120.0
            },
            {
                "start_time": 84.4613636,
                "end_time": 84.5954545,
                "pitch": 43,
                "velocity": 101,
                "duration": 0.1340909,
                "tempo": 120.0
            },
            {
                "start_time": 84.5954545,
                "end_time": 84.7136364,
                "pitch": 31,
                "velocity": 101,
                "duration": 0.1181818,
                "tempo": 120.0
            },
            {
                "start_time": 84.7136364,
                "end_time": 84.8340909,
                "pitch": 31,
                "velocity": 101,
                "duration": 0.1204545,
                "tempo": 120.0
            },
            {
                "start_time": 84.8340909,
                "end_time": 84.9522727,
                "pitch": 43,
                "velocity": 101,
                "duration": 0.1181818,
                "tempo": 120.0
            },
            {
                "start_time": 84.9545455,
                "end_time": 85.0727273,
                "pitch": 31,
                "velocity": 101,
                "duration": 0.1181818,
                "tempo": 120.0
            },
            {
                "start_time": 85.0727273,
                "end_time": 85.3136364,
                "pitch": 31,
                "velocity": 101,
                "duration": 0.2409091,
                "tempo": 120.0
            },
            {
                "start_time": 85.3136364,
                "end_time": 85.5386364,
                "pitch": 31,
                "velocity": 101,
                "duration": 0.225,
                "tempo": 120.0
            },
            {
                "start_time": 85.5386364,
                "end_time": 85.6568182,
                "pitch": 43,
                "velocity": 101,
                "duration": 0.1181818,
                "tempo": 120.0
            },
            {
                "start_time": 85.6568182,
                "end_time": 85.7954545,
                "pitch": 31,
                "velocity": 101,
                "duration": 0.1386364,
                "tempo": 120.0
            },
            {
                "start_time": 85.7954545,
                "end_time": 85.9136364,
                "pitch": 41,
                "velocity": 101,
                "duration": 0.1181818,
                "tempo": 120.0
            },
            {
                "start_time": 85.9136364,
                "end_time": 86.15,
                "pitch": 43,
                "velocity": 101,
                "duration": 0.2363636,
                "tempo": 120.0
            },
            {
                "start_time": 86.15,
                "end_time": 86.4022727,
                "pitch": 31,
                "velocity": 101,
                "duration": 0.2522727,
                "tempo": 120.0
            },
            {
                "start_time": 86.4045455,
                "end_time": 86.6409091,
                "pitch": 31,
                "velocity": 101,
                "duration": 0.2363636,
                "tempo": 120.0
            },
            {
                "start_time": 86.6409091,
                "end_time": 86.7613636,
                "pitch": 31,
                "velocity": 101,
                "duration": 0.1204545,
                "tempo": 120.0
            },
            {
                "start_time": 86.7613636,
                "end_time": 86.8795455,
                "pitch": 43,
                "velocity": 101,
                "duration": 0.1181818,
                "tempo": 120.0
            },
            {
                "start_time": 86.8818182,
                "end_time": 87.0159091,
                "pitch": 31,
                "velocity": 101,
                "duration": 0.1340909,
                "tempo": 120.0
            },
            {
                "start_time": 87.0181818,
                "end_time": 87.2522727,
                "pitch": 28,
                "velocity": 101,
                "duration": 0.2340909,
                "tempo": 120.0
            },
            {
                "start_time": 87.2522727,
                "end_time": 87.6136364,
                "pitch": 28,
                "velocity": 101,
                "duration": 0.3613636,
                "tempo": 120.0
            },
            {
                "start_time": 87.6159091,
                "end_time": 87.9613636,
                "pitch": 40,
                "velocity": 101,
                "duration": 0.3454545,
                "tempo": 120.0
            },
            {
                "start_time": 87.9613636,
                "end_time": 88.2136364,
                "pitch": 28,
                "velocity": 101,
                "duration": 0.2522727,
                "tempo": 120.0
            },
            {
                "start_time": 88.2136364,
                "end_time": 88.4477273,
                "pitch": 28,
                "velocity": 101,
                "duration": 0.2340909,
                "tempo": 120.0
            },
            {
                "start_time": 88.4477273,
                "end_time": 88.5681818,
                "pitch": 40,
                "velocity": 101,
                "duration": 0.1204545,
                "tempo": 120.0
            },
            {
                "start_time": 88.5681818,
                "end_time": 88.6886364,
                "pitch": 28,
                "velocity": 101,
                "duration": 0.1204545,
                "tempo": 120.0
            },
            {
                "start_time": 88.6886364,
                "end_time": 88.825,
                "pitch": 28,
                "velocity": 101,
                "duration": 0.1363636,
                "tempo": 120.0
            },
            {
                "start_time": 88.825,
                "end_time": 89.1795455,
                "pitch": 29,
                "velocity": 101,
                "duration": 0.3545455,
                "tempo": 120.0
            },
            {
                "start_time": 89.1795455,
                "end_time": 89.4318182,
                "pitch": 29,
                "velocity": 101,
                "duration": 0.2522727,
                "tempo": 120.0
            },
            {
                "start_time": 89.4318182,
                "end_time": 89.55,
                "pitch": 41,
                "velocity": 101,
                "duration": 0.1181818,
                "tempo": 120.0
            },
            {
                "start_time": 89.55,
                "end_time": 89.6727273,
                "pitch": 29,
                "velocity": 101,
                "duration": 0.1227273,
                "tempo": 120.0
            },
            {
                "start_time": 89.6727273,
                "end_time": 89.7909091,
                "pitch": 39,
                "velocity": 101,
                "duration": 0.1181818,
                "tempo": 120.0
            },
            {
                "start_time": 89.7909091,
                "end_time": 90.0386364,
                "pitch": 41,
                "velocity": 101,
                "duration": 0.2477273,
                "tempo": 120.0
            },
            {
                "start_time": 90.0386364,
                "end_time": 90.2636364,
                "pitch": 29,
                "velocity": 101,
                "duration": 0.225,
                "tempo": 120.0
            },
            {
                "start_time": 90.2636364,
                "end_time": 90.4954545,
                "pitch": 29,
                "velocity": 101,
                "duration": 0.2318182,
                "tempo": 120.0
            },
            {
                "start_time": 90.4954545,
                "end_time": 90.6318182,
                "pitch": 29,
                "velocity": 101,
                "duration": 0.1363636,
                "tempo": 120.0
            },
            {
                "start_time": 90.6318182,
                "end_time": 90.7522727,
                "pitch": 39,
                "velocity": 101,
                "duration": 0.1204545,
                "tempo": 120.0
            },
            {
                "start_time": 90.7522727,
                "end_time": 90.8704545,
                "pitch": 41,
                "velocity": 101,
                "duration": 0.1181818,
                "tempo": 120.0
            },
            {
                "start_time": 90.8727273,
                "end_time": 90.9886364,
                "pitch": 31,
                "velocity": 101,
                "duration": 0.1159091,
                "tempo": 120.0
            },
            {
                "start_time": 90.9886364,
                "end_time": 91.1068182,
                "pitch": 31,
                "velocity": 101,
                "duration": 0.1181818,
                "tempo": 120.0
            },
            {
                "start_time": 91.1068182,
                "end_time": 91.2409091,
                "pitch": 43,
                "velocity": 101,
                "duration": 0.1340909,
                "tempo": 120.0
            },
            {
                "start_time": 91.2409091,
                "end_time": 91.3590909,
                "pitch": 43,
                "velocity": 101,
                "duration": 0.1181818,
                "tempo": 120.0
            },
            {
                "start_time": 91.3590909,
                "end_time": 91.475,
                "pitch": 31,
                "velocity": 101,
                "duration": 0.1159091,
                "tempo": 120.0
            },
            {
                "start_time": 91.4772727,
                "end_time": 91.5954545,
                "pitch": 31,
                "velocity": 101,
                "duration": 0.1181818,
                "tempo": 120.0
            },
            {
                "start_time": 91.5954545,
                "end_time": 91.7113636,
                "pitch": 43,
                "velocity": 101,
                "duration": 0.1159091,
                "tempo": 120.0
            },
            {
                "start_time": 91.7113636,
                "end_time": 91.8477273,
                "pitch": 43,
                "velocity": 101,
                "duration": 0.1363636,
                "tempo": 120.0
            },
            {
                "start_time": 91.8477273,
                "end_time": 91.9659091,
                "pitch": 31,
                "velocity": 101,
                "duration": 0.1181818,
                "tempo": 120.0
            },
            {
                "start_time": 91.9659091,
                "end_time": 92.0863636,
                "pitch": 31,
                "velocity": 101,
                "duration": 0.1204545,
                "tempo": 120.0
            },
            {
                "start_time": 92.0863636,
                "end_time": 92.2045455,
                "pitch": 43,
                "velocity": 101,
                "duration": 0.1181818,
                "tempo": 120.0
            },
            {
                "start_time": 92.2068182,
                "end_time": 92.325,
                "pitch": 43,
                "velocity": 101,
                "duration": 0.1181818,
                "tempo": 120.0
            },
            {
                "start_time": 92.3272727,
                "end_time": 92.4568182,
                "pitch": 31,
                "velocity": 101,
                "duration": 0.1295455,
                "tempo": 120.0
            },
            {
                "start_time": 92.4568182,
                "end_time": 92.5727273,
                "pitch": 31,
                "velocity": 101,
                "duration": 0.1159091,
                "tempo": 120.0
            },
            {
                "start_time": 92.5727273,
                "end_time": 92.6863636,
                "pitch": 43,
                "velocity": 101,
                "duration": 0.1136364,
                "tempo": 120.0
            },
            {
                "start_time": 92.6863636,
                "end_time": 92.8045455,
                "pitch": 31,
                "velocity": 101,
                "duration": 0.1181818,
                "tempo": 120.0
            },
            {
                "start_time": 92.8045455,
                "end_time": 93.0590909,
                "pitch": 29,
                "velocity": 101,
                "duration": 0.2545455,
                "tempo": 120.0
            },
            {
                "start_time": 93.0590909,
                "end_time": 93.2977273,
                "pitch": 29,
                "velocity": 101,
                "duration": 0.2386364,
                "tempo": 120.0
            },
            {
                "start_time": 93.2977273,
                "end_time": 93.4113636,
                "pitch": 41,
                "velocity": 101,
                "duration": 0.1136364,
                "tempo": 120.0
            },
            {
                "start_time": 93.4113636,
                "end_time": 93.5272727,
                "pitch": 29,
                "velocity": 101,
                "duration": 0.1159091,
                "tempo": 120.0
            },
            {
                "start_time": 93.5272727,
                "end_time": 93.6590909,
                "pitch": 39,
                "velocity": 101,
                "duration": 0.1318182,
                "tempo": 120.0
            },
            {
                "start_time": 93.6590909,
                "end_time": 93.8931818,
                "pitch": 41,
                "velocity": 101,
                "duration": 0.2340909,
                "tempo": 120.0
            },
            {
                "start_time": 93.8931818,
                "end_time": 94.1318182,
                "pitch": 29,
                "velocity": 101,
                "duration": 0.2386364,
                "tempo": 120.0
            },
            {
                "start_time": 94.1318182,
                "end_time": 94.3863636,
                "pitch": 29,
                "velocity": 101,
                "duration": 0.2545455,
                "tempo": 120.0
            },
            {
                "start_time": 94.3863636,
                "end_time": 94.5045455,
                "pitch": 29,
                "velocity": 101,
                "duration": 0.1181818,
                "tempo": 120.0
            },
            {
                "start_time": 94.5045455,
                "end_time": 94.6227273,
                "pitch": 41,
                "velocity": 101,
                "duration": 0.1181818,
                "tempo": 120.0
            },
            {
                "start_time": 94.6227273,
                "end_time": 94.7409091,
                "pitch": 29,
                "velocity": 101,
                "duration": 0.1181818,
                "tempo": 120.0
            },
            {
                "start_time": 94.7409091,
                "end_time": 94.9863636,
                "pitch": 26,
                "velocity": 101,
                "duration": 0.2454545,
                "tempo": 120.0
            },
            {
                "start_time": 94.9886364,
                "end_time": 95.3340909,
                "pitch": 26,
                "velocity": 101,
                "duration": 0.3454545,
                "tempo": 120.0
            },
            {
                "start_time": 95.3340909,
                "end_time": 95.7045455,
                "pitch": 38,
                "velocity": 101,
                "duration": 0.3704545,
                "tempo": 120.0
            },
            {
                "start_time": 95.7045455,
                "end_time": 95.9454545,
                "pitch": 26,
                "velocity": 101,
                "duration": 0.2409091,
                "tempo": 120.0
            },
            {
                "start_time": 95.9454545,
                "end_time": 96.2,
                "pitch": 26,
                "velocity": 101,
                "duration": 0.2545455,
                "tempo": 120.0
            },
            {
                "start_time": 96.2,
                "end_time": 96.3181818,
                "pitch": 38,
                "velocity": 101,
                "duration": 0.1181818,
                "tempo": 120.0
            },
            {
                "start_time": 96.3181818,
                "end_time": 96.4363636,
                "pitch": 26,
                "velocity": 101,
                "duration": 0.1181818,
                "tempo": 120.0
            },
            {
                "start_time": 96.4363636,
                "end_time": 96.5545455,
                "pitch": 26,
                "velocity": 101,
                "duration": 0.1181818,
                "tempo": 120.0
            },
            {
                "start_time": 96.5545455,
                "end_time": 96.9227273,
                "pitch": 27,
                "velocity": 101,
                "duration": 0.3681818,
                "tempo": 120.0
            },
            {
                "start_time": 96.9227273,
                "end_time": 97.1545455,
                "pitch": 27,
                "velocity": 101,
                "duration": 0.2318182,
                "tempo": 120.0
            },
            {
                "start_time": 97.1568182,
                "end_time": 97.2863636,
                "pitch": 39,
                "velocity": 101,
                "duration": 0.1295455,
                "tempo": 120.0
            },
            {
                "start_time": 97.2863636,
                "end_time": 97.4022727,
                "pitch": 27,
                "velocity": 101,
                "duration": 0.1159091,
                "tempo": 120.0
            },
            {
                "start_time": 97.4022727,
                "end_time": 97.5159091,
                "pitch": 37,
                "velocity": 101,
                "duration": 0.1136364,
                "tempo": 120.0
            },
            {
                "start_time": 97.5159091,
                "end_time": 97.75,
                "pitch": 39,
                "velocity": 101,
                "duration": 0.2340909,
                "tempo": 120.0
            },
            {
                "start_time": 97.75,
                "end_time": 98.0068182,
                "pitch": 27,
                "velocity": 101,
                "duration": 0.2568182,
                "tempo": 120.0
            },
            {
                "start_time": 98.0068182,
                "end_time": 98.2431818,
                "pitch": 27,
                "velocity": 101,
                "duration": 0.2363636,
                "tempo": 120.0
            },
            {
                "start_time": 98.2431818,
                "end_time": 98.3613636,
                "pitch": 27,
                "velocity": 101,
                "duration": 0.1181818,
                "tempo": 120.0
            },
            {
                "start_time": 98.3613636,
                "end_time": 98.4954545,
                "pitch": 37,
                "velocity": 101,
                "duration": 0.1340909,
                "tempo": 120.0
            },
            {
                "start_time": 98.4954545,
                "end_time": 98.6113636,
                "pitch": 39,
                "velocity": 101,
                "duration": 0.1159091,
                "tempo": 120.0
            },
            {
                "start_time": 98.6113636,
                "end_time": 98.7295455,
                "pitch": 29,
                "velocity": 101,
                "duration": 0.1181818,
                "tempo": 120.0
            },
            {
                "start_time": 98.7295455,
                "end_time": 98.8477273,
                "pitch": 29,
                "velocity": 101,
                "duration": 0.1181818,
                "tempo": 120.0
            },
            {
                "start_time": 98.8477273,
                "end_time": 98.9636364,
                "pitch": 41,
                "velocity": 101,
                "duration": 0.1159091,
                "tempo": 120.0
            },
            {
                "start_time": 98.9636364,
                "end_time": 99.0977273,
                "pitch": 41,
                "velocity": 101,
                "duration": 0.1340909,
                "tempo": 120.0
            },
            {
                "start_time": 99.1,
                "end_time": 99.2181818,
                "pitch": 29,
                "velocity": 101,
                "duration": 0.1181818,
                "tempo": 120.0
            },
            {
                "start_time": 99.2181818,
                "end_time": 99.3386364,
                "pitch": 29,
                "velocity": 101,
                "duration": 0.1204545,
                "tempo": 120.0
            },
            {
                "start_time": 99.3386364,
                "end_time": 99.4568182,
                "pitch": 41,
                "velocity": 101,
                "duration": 0.1181818,
                "tempo": 120.0
            },
            {
                "start_time": 99.4568182,
                "end_time": 99.5772727,
                "pitch": 41,
                "velocity": 101,
                "duration": 0.1204545,
                "tempo": 120.0
            },
            {
                "start_time": 99.5795455,
                "end_time": 99.7090909,
                "pitch": 29,
                "velocity": 101,
                "duration": 0.1295455,
                "tempo": 120.0
            },
            {
                "start_time": 99.7090909,
                "end_time": 99.825,
                "pitch": 29,
                "velocity": 101,
                "duration": 0.1159091,
                "tempo": 120.0
            },
            {
                "start_time": 99.825,
                "end_time": 99.9386364,
                "pitch": 41,
                "velocity": 101,
                "duration": 0.1136364,
                "tempo": 120.0
            },
            {
                "start_time": 99.9386364,
                "end_time": 100.0545455,
                "pitch": 41,
                "velocity": 101,
                "duration": 0.1159091,
                "tempo": 120.0
            },
            {
                "start_time": 100.0545455,
                "end_time": 100.1704545,
                "pitch": 29,
                "velocity": 101,
                "duration": 0.1159091,
                "tempo": 120.0
            },
            {
                "start_time": 100.1704545,
                "end_time": 100.3045455,
                "pitch": 29,
                "velocity": 101,
                "duration": 0.1340909,
                "tempo": 120.0
            },
            {
                "start_time": 100.3045455,
                "end_time": 100.4204545,
                "pitch": 41,
                "velocity": 101,
                "duration": 0.1159091,
                "tempo": 120.0
            },
            {
                "start_time": 100.4204545,
                "end_time": 100.5386364,
                "pitch": 29,
                "velocity": 101,
                "duration": 0.1181818,
                "tempo": 120.0
            },
            {
                "start_time": 100.5386364,
                "end_time": 100.7727273,
                "pitch": 29,
                "velocity": 101,
                "duration": 0.2340909,
                "tempo": 120.0
            },
            {
                "start_time": 100.7727273,
                "end_time": 101.025,
                "pitch": 29,
                "velocity": 101,
                "duration": 0.2522727,
                "tempo": 120.0
            },
            {
                "start_time": 101.0272727,
                "end_time": 101.1454545,
                "pitch": 41,
                "velocity": 101,
                "duration": 0.1181818,
                "tempo": 120.0
            },
            {
                "start_time": 101.1454545,
                "end_time": 101.2659091,
                "pitch": 29,
                "velocity": 101,
                "duration": 0.1204545,
                "tempo": 120.0
            },
            {
                "start_time": 101.2659091,
                "end_time": 101.3840909,
                "pitch": 39,
                "velocity": 101,
                "duration": 0.1181818,
                "tempo": 120.0
            },
            {
                "start_time": 101.3840909,
                "end_time": 101.6386364,
                "pitch": 41,
                "velocity": 101,
                "duration": 0.2545455,
                "tempo": 120.0
            },
            {
                "start_time": 101.6386364,
                "end_time": 101.875,
                "pitch": 29,
                "velocity": 101,
                "duration": 0.2363636,
                "tempo": 120.0
            },
            {
                "start_time": 101.875,
                "end_time": 102.125,
                "pitch": 29,
                "velocity": 101,
                "duration": 0.25,
                "tempo": 120.0
            },
            {
                "start_time": 102.125,
                "end_time": 102.2386364,
                "pitch": 29,
                "velocity": 101,
                "duration": 0.1136364,
                "tempo": 120.0
            },
            {
                "start_time": 102.2386364,
                "end_time": 102.3545455,
                "pitch": 41,
                "velocity": 101,
                "duration": 0.1159091,
                "tempo": 120.0
            },
            {
                "start_time": 102.3545455,
                "end_time": 102.4681818,
                "pitch": 29,
                "velocity": 101,
                "duration": 0.1136364,
                "tempo": 120.0
            },
            {
                "start_time": 102.4681818,
                "end_time": 102.7204545,
                "pitch": 26,
                "velocity": 101,
                "duration": 0.2522727,
                "tempo": 120.0
            },
            {
                "start_time": 102.7204545,
                "end_time": 103.0727273,
                "pitch": 26,
                "velocity": 101,
                "duration": 0.3522727,
                "tempo": 120.0
            },
            {
                "start_time": 103.0727273,
                "end_time": 103.4454545,
                "pitch": 38,
                "velocity": 101,
                "duration": 0.3727273,
                "tempo": 120.0
            },
            {
                "start_time": 103.4454545,
                "end_time": 103.6840909,
                "pitch": 26,
                "velocity": 101,
                "duration": 0.2386364,
                "tempo": 120.0
            },
            {
                "start_time": 103.6840909,
                "end_time": 103.9409091,
                "pitch": 26,
                "velocity": 101,
                "duration": 0.2568182,
                "tempo": 120.0
            },
            {
                "start_time": 103.9409091,
                "end_time": 104.0590909,
                "pitch": 38,
                "velocity": 101,
                "duration": 0.1181818,
                "tempo": 120.0
            },
            {
                "start_time": 104.0590909,
                "end_time": 104.175,
                "pitch": 26,
                "velocity": 101,
                "duration": 0.1159091,
                "tempo": 120.0
            },
            {
                "start_time": 104.1772727,
                "end_time": 104.2931818,
                "pitch": 26,
                "velocity": 101,
                "duration": 0.1159091,
                "tempo": 120.0
            },
            {
                "start_time": 104.2954545,
                "end_time": 104.6568182,
                "pitch": 27,
                "velocity": 101,
                "duration": 0.3613636,
                "tempo": 120.0
            },
            {
                "start_time": 104.6568182,
                "end_time": 104.8886364,
                "pitch": 27,
                "velocity": 101,
                "duration": 0.2318182,
                "tempo": 120.0
            },
            {
                "start_time": 104.8886364,
                "end_time": 105.0068182,
                "pitch": 39,
                "velocity": 101,
                "duration": 0.1181818,
                "tempo": 120.0
            },
            {
                "start_time": 105.0068182,
                "end_time": 105.1454545,
                "pitch": 27,
                "velocity": 101,
                "duration": 0.1386364,
                "tempo": 120.0
            },
            {
                "start_time": 105.1454545,
                "end_time": 105.2636364,
                "pitch": 37,
                "velocity": 101,
                "duration": 0.1181818,
                "tempo": 120.0
            },
            {
                "start_time": 105.2636364,
                "end_time": 105.5,
                "pitch": 39,
                "velocity": 101,
                "duration": 0.2363636,
                "tempo": 120.0
            },
            {
                "start_time": 105.5,
                "end_time": 105.7522727,
                "pitch": 27,
                "velocity": 101,
                "duration": 0.2522727,
                "tempo": 120.0
            },
            {
                "start_time": 105.7522727,
                "end_time": 105.9886364,
                "pitch": 27,
                "velocity": 101,
                "duration": 0.2363636,
                "tempo": 120.0
            },
            {
                "start_time": 105.9886364,
                "end_time": 106.1068182,
                "pitch": 27,
                "velocity": 101,
                "duration": 0.1181818,
                "tempo": 120.0
            },
            {
                "start_time": 106.1068182,
                "end_time": 106.225,
                "pitch": 37,
                "velocity": 101,
                "duration": 0.1181818,
                "tempo": 120.0
            },
            {
                "start_time": 106.225,
                "end_time": 106.3590909,
                "pitch": 39,
                "velocity": 101,
                "duration": 0.1340909,
                "tempo": 120.0
            },
            {
                "start_time": 106.3590909,
                "end_time": 106.475,
                "pitch": 29,
                "velocity": 101,
                "duration": 0.1159091,
                "tempo": 120.0
            },
            {
                "start_time": 106.475,
                "end_time": 106.5931818,
                "pitch": 29,
                "velocity": 101,
                "duration": 0.1181818,
                "tempo": 120.0
            },
            {
                "start_time": 106.5931818,
                "end_time": 106.7090909,
                "pitch": 41,
                "velocity": 101,
                "duration": 0.1159091,
                "tempo": 120.0
            },
            {
                "start_time": 106.7090909,
                "end_time": 106.8272727,
                "pitch": 41,
                "velocity": 101,
                "duration": 0.1181818,
                "tempo": 120.0
            },
            {
                "start_time": 106.8272727,
                "end_time": 106.9568182,
                "pitch": 29,
                "velocity": 101,
                "duration": 0.1295455,
                "tempo": 120.0
            },
            {
                "start_time": 106.9568182,
                "end_time": 107.0727273,
                "pitch": 29,
                "velocity": 101,
                "duration": 0.1159091,
                "tempo": 120.0
            },
            {
                "start_time": 107.0727273,
                "end_time": 107.1863636,
                "pitch": 41,
                "velocity": 101,
                "duration": 0.1136364,
                "tempo": 120.0
            },
            {
                "start_time": 107.1863636,
                "end_time": 107.3022727,
                "pitch": 41,
                "velocity": 101,
                "duration": 0.1159091,
                "tempo": 120.0
            },
            {
                "start_time": 107.3022727,
                "end_time": 107.4204545,
                "pitch": 29,
                "velocity": 101,
                "duration": 0.1181818,
                "tempo": 120.0
            },
            {
                "start_time": 107.4204545,
                "end_time": 107.5590909,
                "pitch": 29,
                "velocity": 101,
                "duration": 0.1386364,
                "tempo": 120.0
            },
            {
                "start_time": 107.5590909,
                "end_time": 107.6772727,
                "pitch": 41,
                "velocity": 101,
                "duration": 0.1181818,
                "tempo": 120.0
            },
            {
                "start_time": 107.6772727,
                "end_time": 107.7977273,
                "pitch": 41,
                "velocity": 101,
                "duration": 0.1204545,
                "tempo": 120.0
            },
            {
                "start_time": 107.7977273,
                "end_time": 107.9159091,
                "pitch": 29,
                "velocity": 101,
                "duration": 0.1181818,
                "tempo": 120.0
            },
            {
                "start_time": 107.9159091,
                "end_time": 108.0340909,
                "pitch": 29,
                "velocity": 101,
                "duration": 0.1181818,
                "tempo": 120.0
            },
            {
                "start_time": 108.0340909,
                "end_time": 108.1681818,
                "pitch": 41,
                "velocity": 101,
                "duration": 0.1340909,
                "tempo": 120.0
            },
            {
                "start_time": 108.1681818,
                "end_time": 108.2886364,
                "pitch": 29,
                "velocity": 101,
                "duration": 0.1204545,
                "tempo": 120.0
            },
            {
                "start_time": 108.2886364,
                "end_time": 108.525,
                "pitch": 29,
                "velocity": 101,
                "duration": 0.2363636,
                "tempo": 120.0
            },
            {
                "start_time": 108.525,
                "end_time": 108.7818182,
                "pitch": 29,
                "velocity": 101,
                "duration": 0.2568182,
                "tempo": 120.0
            },
            {
                "start_time": 108.7818182,
                "end_time": 108.8977273,
                "pitch": 41,
                "velocity": 101,
                "duration": 0.1159091,
                "tempo": 120.0
            },
            {
                "start_time": 108.9,
                "end_time": 109.0181818,
                "pitch": 29,
                "velocity": 101,
                "duration": 0.1181818,
                "tempo": 120.0
            },
            {
                "start_time": 109.0181818,
                "end_time": 109.1340909,
                "pitch": 39,
                "velocity": 101,
                "duration": 0.1159091,
                "tempo": 120.0
            },
            {
                "start_time": 109.1340909,
                "end_time": 109.3840909,
                "pitch": 41,
                "velocity": 101,
                "duration": 0.25,
                "tempo": 120.0
            },
            {
                "start_time": 109.3840909,
                "end_time": 109.6136364,
                "pitch": 29,
                "velocity": 101,
                "duration": 0.2295455,
                "tempo": 120.0
            },
            {
                "start_time": 109.6136364,
                "end_time": 109.8454545,
                "pitch": 29,
                "velocity": 101,
                "duration": 0.2318182,
                "tempo": 120.0
            },
            {
                "start_time": 109.8454545,
                "end_time": 109.9795455,
                "pitch": 29,
                "velocity": 101,
                "duration": 0.1340909,
                "tempo": 120.0
            },
            {
                "start_time": 109.9795455,
                "end_time": 110.0977273,
                "pitch": 41,
                "velocity": 101,
                "duration": 0.1181818,
                "tempo": 120.0
            },
            {
                "start_time": 110.0977273,
                "end_time": 110.2113636,
                "pitch": 29,
                "velocity": 101,
                "duration": 0.1136364,
                "tempo": 120.0
            },
            {
                "start_time": 110.2136364,
                "end_time": 110.45,
                "pitch": 26,
                "velocity": 101,
                "duration": 0.2363636,
                "tempo": 120.0
            },
            {
                "start_time": 110.45,
                "end_time": 110.8204545,
                "pitch": 26,
                "velocity": 101,
                "duration": 0.3704545,
                "tempo": 120.0
            },
            {
                "start_time": 110.8204545,
                "end_time": 111.1977273,
                "pitch": 38,
                "velocity": 101,
                "duration": 0.3772727,
                "tempo": 120.0
            },
            {
                "start_time": 111.1977273,
                "end_time": 111.4318182,
                "pitch": 26,
                "velocity": 101,
                "duration": 0.2340909,
                "tempo": 120.0
            },
            {
                "start_time": 111.4318182,
                "end_time": 111.6681818,
                "pitch": 26,
                "velocity": 101,
                "duration": 0.2363636,
                "tempo": 120.0
            },
            {
                "start_time": 111.6681818,
                "end_time": 111.7977273,
                "pitch": 38,
                "velocity": 101,
                "duration": 0.1295455,
                "tempo": 120.0
            },
            {
                "start_time": 111.8,
                "end_time": 111.9136364,
                "pitch": 26,
                "velocity": 101,
                "duration": 0.1136364,
                "tempo": 120.0
            },
            {
                "start_time": 111.9136364,
                "end_time": 112.0295455,
                "pitch": 26,
                "velocity": 101,
                "duration": 0.1159091,
                "tempo": 120.0
            },
            {
                "start_time": 112.0295455,
                "end_time": 112.3954545,
                "pitch": 27,
                "velocity": 101,
                "duration": 0.3659091,
                "tempo": 120.0
            },
            {
                "start_time": 112.3977273,
                "end_time": 112.6318182,
                "pitch": 27,
                "velocity": 101,
                "duration": 0.2340909,
                "tempo": 120.0
            },
            {
                "start_time": 112.6318182,
                "end_time": 112.75,
                "pitch": 39,
                "velocity": 101,
                "duration": 0.1181818,
                "tempo": 120.0
            },
            {
                "start_time": 112.75,
                "end_time": 112.8704545,
                "pitch": 27,
                "velocity": 101,
                "duration": 0.1204545,
                "tempo": 120.0
            },
            {
                "start_time": 112.8704545,
                "end_time": 113.0068182,
                "pitch": 37,
                "velocity": 101,
                "duration": 0.1363636,
                "tempo": 120.0
            },
            {
                "start_time": 113.0068182,
                "end_time": 113.2454545,
                "pitch": 39,
                "velocity": 101,
                "duration": 0.2386364,
                "tempo": 120.0
            },
            {
                "start_time": 113.2454545,
                "end_time": 113.4818182,
                "pitch": 27,
                "velocity": 101,
                "duration": 0.2363636,
                "tempo": 120.0
            },
            {
                "start_time": 113.4818182,
                "end_time": 113.7340909,
                "pitch": 27,
                "velocity": 101,
                "duration": 0.2522727,
                "tempo": 120.0
            },
            {
                "start_time": 113.7340909,
                "end_time": 113.8545455,
                "pitch": 27,
                "velocity": 101,
                "duration": 0.1204545,
                "tempo": 120.0
            },
            {
                "start_time": 113.8545455,
                "end_time": 113.975,
                "pitch": 37,
                "velocity": 101,
                "duration": 0.1204545,
                "tempo": 120.0
            },
            {
                "start_time": 113.975,
                "end_time": 114.0931818,
                "pitch": 39,
                "velocity": 101,
                "duration": 0.1181818,
                "tempo": 120.0
            },
            {
                "start_time": 114.0931818,
                "end_time": 114.2227273,
                "pitch": 29,
                "velocity": 101,
                "duration": 0.1295455,
                "tempo": 120.0
            },
            {
                "start_time": 114.2227273,
                "end_time": 114.3340909,
                "pitch": 29,
                "velocity": 101,
                "duration": 0.1113636,
                "tempo": 120.0
            },
            {
                "start_time": 114.3340909,
                "end_time": 114.4477273,
                "pitch": 41,
                "velocity": 101,
                "duration": 0.1136364,
                "tempo": 120.0
            },
            {
                "start_time": 114.4477273,
                "end_time": 114.5590909,
                "pitch": 41,
                "velocity": 101,
                "duration": 0.1113636,
                "tempo": 120.0
            },
            {
                "start_time": 114.5590909,
                "end_time": 114.6772727,
                "pitch": 29,
                "velocity": 101,
                "duration": 0.1181818,
                "tempo": 120.0
            },
            {
                "start_time": 114.6772727,
                "end_time": 114.8159091,
                "pitch": 29,
                "velocity": 101,
                "duration": 0.1386364,
                "tempo": 120.0
            },
            {
                "start_time": 114.8159091,
                "end_time": 114.9340909,
                "pitch": 41,
                "velocity": 101,
                "duration": 0.1181818,
                "tempo": 120.0
            },
            {
                "start_time": 114.9340909,
                "end_time": 115.0545455,
                "pitch": 41,
                "velocity": 101,
                "duration": 0.1204545,
                "tempo": 120.0
            },
            {
                "start_time": 115.0545455,
                "end_time": 115.1727273,
                "pitch": 29,
                "velocity": 101,
                "duration": 0.1181818,
                "tempo": 120.0
            },
            {
                "start_time": 115.1727273,
                "end_time": 115.2909091,
                "pitch": 29,
                "velocity": 101,
                "duration": 0.1181818,
                "tempo": 120.0
            },
            {
                "start_time": 115.2909091,
                "end_time": 115.425,
                "pitch": 41,
                "velocity": 101,
                "duration": 0.1340909,
                "tempo": 120.0
            },
            {
                "start_time": 115.425,
                "end_time": 115.5431818,
                "pitch": 41,
                "velocity": 101,
                "duration": 0.1181818,
                "tempo": 120.0
            },
            {
                "start_time": 115.5431818,
                "end_time": 115.6590909,
                "pitch": 29,
                "velocity": 101,
                "duration": 0.1159091,
                "tempo": 120.0
            },
            {
                "start_time": 115.6590909,
                "end_time": 115.7795455,
                "pitch": 29,
                "velocity": 101,
                "duration": 0.1204545,
                "tempo": 120.0
            },
            {
                "start_time": 115.7795455,
                "end_time": 115.8954545,
                "pitch": 41,
                "velocity": 101,
                "duration": 0.1159091,
                "tempo": 120.0
            },
            {
                "start_time": 115.8954545,
                "end_time": 116.0295455,
                "pitch": 29,
                "velocity": 101,
                "duration": 0.1340909,
                "tempo": 120.0
            },
            {
                "start_time": 116.0295455,
                "end_time": 116.2704545,
                "pitch": 29,
                "velocity": 101,
                "duration": 0.2409091,
                "tempo": 120.0
            },
            {
                "start_time": 116.2704545,
                "end_time": 116.5090909,
                "pitch": 29,
                "velocity": 101,
                "duration": 0.2386364,
                "tempo": 120.0
            },
            {
                "start_time": 116.5090909,
                "end_time": 116.6386364,
                "pitch": 41,
                "velocity": 101,
                "duration": 0.1295455,
                "tempo": 120.0
            },
            {
                "start_time": 116.6386364,
                "end_time": 116.7568182,
                "pitch": 29,
                "velocity": 101,
                "duration": 0.1181818,
                "tempo": 120.0
            },
            {
                "start_time": 116.7568182,
                "end_time": 116.8704545,
                "pitch": 39,
                "velocity": 101,
                "duration": 0.1136364,
                "tempo": 120.0
            },
            {
                "start_time": 116.8704545,
                "end_time": 117.1022727,
                "pitch": 41,
                "velocity": 101,
                "duration": 0.2318182,
                "tempo": 120.0
            },
            {
                "start_time": 117.1022727,
                "end_time": 117.3545455,
                "pitch": 29,
                "velocity": 101,
                "duration": 0.2522727,
                "tempo": 120.0
            },
            {
                "start_time": 117.3545455,
                "end_time": 117.5909091,
                "pitch": 29,
                "velocity": 101,
                "duration": 0.2363636,
                "tempo": 120.0
            },
            {
                "start_time": 117.5909091,
                "end_time": 117.7090909,
                "pitch": 29,
                "velocity": 101,
                "duration": 0.1181818,
                "tempo": 120.0
            },
            {
                "start_time": 117.7090909,
                "end_time": 117.8431818,
                "pitch": 41,
                "velocity": 101,
                "duration": 0.1340909,
                "tempo": 120.0
            },
            {
                "start_time": 117.8431818,
                "end_time": 117.9613636,
                "pitch": 29,
                "velocity": 101,
                "duration": 0.1181818,
                "tempo": 120.0
            },
            {
                "start_time": 117.9613636,
                "end_time": 118.2,
                "pitch": 26,
                "velocity": 101,
                "duration": 0.2386364,
                "tempo": 120.0
            },
            {
                "start_time": 118.2,
                "end_time": 118.5727273,
                "pitch": 26,
                "velocity": 101,
                "duration": 0.3727273,
                "tempo": 120.0
            },
            {
                "start_time": 118.5727273,
                "end_time": 118.9272727,
                "pitch": 38,
                "velocity": 101,
                "duration": 0.3545455,
                "tempo": 120.0
            },
            {
                "start_time": 118.9272727,
                "end_time": 119.175,
                "pitch": 26,
                "velocity": 101,
                "duration": 0.2477273,
                "tempo": 120.0
            },
            {
                "start_time": 119.175,
                "end_time": 119.4045455,
                "pitch": 26,
                "velocity": 101,
                "duration": 0.2295455,
                "tempo": 120.0
            },
            {
                "start_time": 119.4045455,
                "end_time": 119.5204545,
                "pitch": 38,
                "velocity": 101,
                "duration": 0.1159091,
                "tempo": 120.0
            },
            {
                "start_time": 119.5204545,
                "end_time": 119.6545455,
                "pitch": 26,
                "velocity": 101,
                "duration": 0.1340909,
                "tempo": 120.0
            },
            {
                "start_time": 119.6545455,
                "end_time": 119.7727273,
                "pitch": 26,
                "velocity": 101,
                "duration": 0.1181818,
                "tempo": 120.0
            },
            {
                "start_time": 119.7727273,
                "end_time": 120.1272727,
                "pitch": 27,
                "velocity": 101,
                "duration": 0.3545455,
                "tempo": 120.0
            },
            {
                "start_time": 120.1272727,
                "end_time": 120.3840909,
                "pitch": 27,
                "velocity": 101,
                "duration": 0.2568182,
                "tempo": 120.0
            },
            {
                "start_time": 120.3840909,
                "end_time": 120.5,
                "pitch": 39,
                "velocity": 101,
                "duration": 0.1159091,
                "tempo": 120.0
            },
            {
                "start_time": 120.5,
                "end_time": 120.6204545,
                "pitch": 27,
                "velocity": 101,
                "duration": 0.1204545,
                "tempo": 120.0
            },
            {
                "start_time": 120.6204545,
                "end_time": 120.7363636,
                "pitch": 37,
                "velocity": 101,
                "duration": 0.1159091,
                "tempo": 120.0
            },
            {
                "start_time": 120.7363636,
                "end_time": 120.9886364,
                "pitch": 39,
                "velocity": 101,
                "duration": 0.2522727,
                "tempo": 120.0
            },
            {
                "start_time": 120.9886364,
                "end_time": 121.2204545,
                "pitch": 27,
                "velocity": 101,
                "duration": 0.2318182,
                "tempo": 120.0
            },
            {
                "start_time": 121.2204545,
                "end_time": 121.4704545,
                "pitch": 27,
                "velocity": 101,
                "duration": 0.25,
                "tempo": 120.0
            },
            {
                "start_time": 121.4704545,
                "end_time": 121.5840909,
                "pitch": 27,
                "velocity": 101,
                "duration": 0.1136364,
                "tempo": 120.0
            },
            {
                "start_time": 121.5840909,
                "end_time": 121.7,
                "pitch": 37,
                "velocity": 101,
                "duration": 0.1159091,
                "tempo": 120.0
            },
            {
                "start_time": 121.7,
                "end_time": 121.8159091,
                "pitch": 39,
                "velocity": 101,
                "duration": 0.1159091,
                "tempo": 120.0
            },
            {
                "start_time": 121.8159091,
                "end_time": 121.9340909,
                "pitch": 29,
                "velocity": 101,
                "duration": 0.1181818,
                "tempo": 120.0
            },
            {
                "start_time": 121.9340909,
                "end_time": 122.0704545,
                "pitch": 29,
                "velocity": 101,
                "duration": 0.1363636,
                "tempo": 120.0
            },
            {
                "start_time": 122.0704545,
                "end_time": 122.1909091,
                "pitch": 41,
                "velocity": 101,
                "duration": 0.1204545,
                "tempo": 120.0
            },
            {
                "start_time": 122.1909091,
                "end_time": 122.3113636,
                "pitch": 41,
                "velocity": 101,
                "duration": 0.1204545,
                "tempo": 120.0
            },
            {
                "start_time": 122.3113636,
                "end_time": 122.4272727,
                "pitch": 29,
                "velocity": 101,
                "duration": 0.1159091,
                "tempo": 120.0
            },
            {
                "start_time": 122.4272727,
                "end_time": 122.5454545,
                "pitch": 29,
                "velocity": 101,
                "duration": 0.1181818,
                "tempo": 120.0
            },
            {
                "start_time": 122.5454545,
                "end_time": 122.6772727,
                "pitch": 41,
                "velocity": 101,
                "duration": 0.1318182,
                "tempo": 120.0
            },
            {
                "start_time": 122.6772727,
                "end_time": 122.7954545,
                "pitch": 41,
                "velocity": 101,
                "duration": 0.1181818,
                "tempo": 120.0
            },
            {
                "start_time": 122.7954545,
                "end_time": 122.9113636,
                "pitch": 29,
                "velocity": 101,
                "duration": 0.1159091,
                "tempo": 120.0
            },
            {
                "start_time": 122.9113636,
                "end_time": 123.0295455,
                "pitch": 29,
                "velocity": 101,
                "duration": 0.1181818,
                "tempo": 120.0
            },
            {
                "start_time": 123.0318182,
                "end_time": 123.1477273,
                "pitch": 41,
                "velocity": 101,
                "duration": 0.1159091,
                "tempo": 120.0
            },
            {
                "start_time": 123.1477273,
                "end_time": 123.2818182,
                "pitch": 41,
                "velocity": 101,
                "duration": 0.1340909,
                "tempo": 120.0
            },
            {
                "start_time": 123.2818182,
                "end_time": 123.4022727,
                "pitch": 29,
                "velocity": 101,
                "duration": 0.1204545,
                "tempo": 120.0
            },
            {
                "start_time": 123.4022727,
                "end_time": 123.5227273,
                "pitch": 29,
                "velocity": 101,
                "duration": 0.1204545,
                "tempo": 120.0
            },
            {
                "start_time": 123.5227273,
                "end_time": 123.6409091,
                "pitch": 41,
                "velocity": 101,
                "duration": 0.1181818,
                "tempo": 120.0
            },
            {
                "start_time": 123.6409091,
                "end_time": 131.4886364,
                "pitch": 29,
                "velocity": 101,
                "duration": 7.8477273,
                "tempo": 120.0
            },
            {
                "start_time": 131.4886364,
                "end_time": 131.7363636,
                "pitch": 31,
                "velocity": 101,
                "duration": 0.2477273,
                "tempo": 120.0
            },
            {
                "start_time": 131.7363636,
                "end_time": 131.9704545,
                "pitch": 31,
                "velocity": 101,
                "duration": 0.2340909,
                "tempo": 120.0
            },
            {
                "start_time": 131.9704545,
                "end_time": 132.0863636,
                "pitch": 43,
                "velocity": 101,
                "duration": 0.1159091,
                "tempo": 120.0
            },
            {
                "start_time": 132.0886364,
                "end_time": 132.2068182,
                "pitch": 31,
                "velocity": 101,
                "duration": 0.1181818,
                "tempo": 120.0
            },
            {
                "start_time": 132.2068182,
                "end_time": 132.3386364,
                "pitch": 41,
                "velocity": 101,
                "duration": 0.1318182,
                "tempo": 120.0
            },
            {
                "start_time": 132.3409091,
                "end_time": 132.575,
                "pitch": 43,
                "velocity": 101,
                "duration": 0.2340909,
                "tempo": 120.0
            },
            {
                "start_time": 132.575,
                "end_time": 132.8090909,
                "pitch": 31,
                "velocity": 101,
                "duration": 0.2340909,
                "tempo": 120.0
            },
            {
                "start_time": 132.8090909,
                "end_time": 133.0613636,
                "pitch": 31,
                "velocity": 101,
                "duration": 0.2522727,
                "tempo": 120.0
            },
            {
                "start_time": 133.0613636,
                "end_time": 133.1818182,
                "pitch": 31,
                "velocity": 101,
                "duration": 0.1204545,
                "tempo": 120.0
            },
            {
                "start_time": 133.1818182,
                "end_time": 133.3022727,
                "pitch": 43,
                "velocity": 101,
                "duration": 0.1204545,
                "tempo": 120.0
            },
            {
                "start_time": 133.3022727,
                "end_time": 133.4204545,
                "pitch": 31,
                "velocity": 101,
                "duration": 0.1181818,
                "tempo": 120.0
            },
            {
                "start_time": 133.4204545,
                "end_time": 133.6681818,
                "pitch": 28,
                "velocity": 101,
                "duration": 0.2477273,
                "tempo": 120.0
            },
            {
                "start_time": 133.6681818,
                "end_time": 134.0136364,
                "pitch": 28,
                "velocity": 101,
                "duration": 0.3454545,
                "tempo": 120.0
            },
            {
                "start_time": 134.0136364,
                "end_time": 134.3818182,
                "pitch": 40,
                "velocity": 101,
                "duration": 0.3681818,
                "tempo": 120.0
            },
            {
                "start_time": 134.3818182,
                "end_time": 134.6181818,
                "pitch": 28,
                "velocity": 101,
                "duration": 0.2363636,
                "tempo": 120.0
            },
            {
                "start_time": 134.6181818,
                "end_time": 134.8704545,
                "pitch": 28,
                "velocity": 101,
                "duration": 0.2522727,
                "tempo": 120.0
            },
            {
                "start_time": 134.8704545,
                "end_time": 134.9886364,
                "pitch": 40,
                "velocity": 101,
                "duration": 0.1181818,
                "tempo": 120.0
            },
            {
                "start_time": 134.9886364,
                "end_time": 135.1090909,
                "pitch": 28,
                "velocity": 101,
                "duration": 0.1204545,
                "tempo": 120.0
            },
            {
                "start_time": 135.1090909,
                "end_time": 135.2272727,
                "pitch": 28,
                "velocity": 101,
                "duration": 0.1181818,
                "tempo": 120.0
            },
            {
                "start_time": 135.2295455,
                "end_time": 135.6,
                "pitch": 29,
                "velocity": 101,
                "duration": 0.3704545,
                "tempo": 120.0
            },
            {
                "start_time": 135.6,
                "end_time": 135.8363636,
                "pitch": 29,
                "velocity": 101,
                "duration": 0.2363636,
                "tempo": 120.0
            },
            {
                "start_time": 135.8363636,
                "end_time": 135.9659091,
                "pitch": 41,
                "velocity": 101,
                "duration": 0.1295455,
                "tempo": 120.0
            },
            {
                "start_time": 135.9659091,
                "end_time": 136.0818182,
                "pitch": 29,
                "velocity": 101,
                "duration": 0.1159091,
                "tempo": 120.0
            },
            {
                "start_time": 136.0840909,
                "end_time": 136.1954545,
                "pitch": 39,
                "velocity": 101,
                "duration": 0.1113636,
                "tempo": 120.0
            },
            {
                "start_time": 136.1977273,
                "end_time": 136.4272727,
                "pitch": 41,
                "velocity": 101,
                "duration": 0.2295455,
                "tempo": 120.0
            },
            {
                "start_time": 136.4295455,
                "end_time": 136.6795455,
                "pitch": 29,
                "velocity": 101,
                "duration": 0.25,
                "tempo": 120.0
            },
            {
                "start_time": 136.6795455,
                "end_time": 136.9159091,
                "pitch": 29,
                "velocity": 101,
                "duration": 0.2363636,
                "tempo": 120.0
            },
            {
                "start_time": 136.9159091,
                "end_time": 137.0363636,
                "pitch": 29,
                "velocity": 101,
                "duration": 0.1204545,
                "tempo": 120.0
            },
            {
                "start_time": 137.0363636,
                "end_time": 137.1727273,
                "pitch": 39,
                "velocity": 101,
                "duration": 0.1363636,
                "tempo": 120.0
            },
            {
                "start_time": 137.1727273,
                "end_time": 137.2909091,
                "pitch": 41,
                "velocity": 101,
                "duration": 0.1181818,
                "tempo": 120.0
            },
            {
                "start_time": 137.2931818,
                "end_time": 137.4090909,
                "pitch": 31,
                "velocity": 101,
                "duration": 0.1159091,
                "tempo": 120.0
            },
            {
                "start_time": 137.4090909,
                "end_time": 137.525,
                "pitch": 31,
                "velocity": 101,
                "duration": 0.1159091,
                "tempo": 120.0
            },
            {
                "start_time": 137.5272727,
                "end_time": 137.6409091,
                "pitch": 43,
                "velocity": 101,
                "duration": 0.1136364,
                "tempo": 120.0
            },
            {
                "start_time": 137.6409091,
                "end_time": 137.775,
                "pitch": 43,
                "velocity": 101,
                "duration": 0.1340909,
                "tempo": 120.0
            },
            {
                "start_time": 137.7772727,
                "end_time": 137.8931818,
                "pitch": 31,
                "velocity": 101,
                "duration": 0.1159091,
                "tempo": 120.0
            },
            {
                "start_time": 137.8954545,
                "end_time": 138.0159091,
                "pitch": 31,
                "velocity": 101,
                "duration": 0.1204545,
                "tempo": 120.0
            },
            {
                "start_time": 138.0159091,
                "end_time": 138.1340909,
                "pitch": 43,
                "velocity": 101,
                "duration": 0.1181818,
                "tempo": 120.0
            },
            {
                "start_time": 138.1340909,
                "end_time": 138.2545455,
                "pitch": 43,
                "velocity": 101,
                "duration": 0.1204545,
                "tempo": 120.0
            },
            {
                "start_time": 138.2545455,
                "end_time": 138.3818182,
                "pitch": 31,
                "velocity": 101,
                "duration": 0.1272727,
                "tempo": 120.0
            },
            {
                "start_time": 138.3818182,
                "end_time": 138.4954545,
                "pitch": 31,
                "velocity": 101,
                "duration": 0.1136364,
                "tempo": 120.0
            },
            {
                "start_time": 138.4954545,
                "end_time": 138.6068182,
                "pitch": 43,
                "velocity": 101,
                "duration": 0.1113636,
                "tempo": 120.0
            },
            {
                "start_time": 138.6068182,
                "end_time": 138.7204545,
                "pitch": 43,
                "velocity": 101,
                "duration": 0.1136364,
                "tempo": 120.0
            },
            {
                "start_time": 138.7204545,
                "end_time": 138.8386364,
                "pitch": 31,
                "velocity": 101,
                "duration": 0.1181818,
                "tempo": 120.0
            },
            {
                "start_time": 138.8386364,
                "end_time": 138.9772727,
                "pitch": 31,
                "velocity": 101,
                "duration": 0.1386364,
                "tempo": 120.0
            },
            {
                "start_time": 138.9772727,
                "end_time": 139.0954545,
                "pitch": 43,
                "velocity": 101,
                "duration": 0.1181818,
                "tempo": 120.0
            },
            {
                "start_time": 139.0954545,
                "end_time": 139.2159091,
                "pitch": 31,
                "velocity": 101,
                "duration": 0.1204545,
                "tempo": 120.0
            },
            {
                "start_time": 139.2159091,
                "end_time": 139.45,
                "pitch": 31,
                "velocity": 101,
                "duration": 0.2340909,
                "tempo": 120.0
            },
            {
                "start_time": 139.45,
                "end_time": 139.7,
                "pitch": 31,
                "velocity": 101,
                "duration": 0.25,
                "tempo": 120.0
            },
            {
                "start_time": 139.7,
                "end_time": 139.8181818,
                "pitch": 43,
                "velocity": 101,
                "duration": 0.1181818,
                "tempo": 120.0
            },
            {
                "start_time": 139.8181818,
                "end_time": 139.9386364,
                "pitch": 31,
                "velocity": 101,
                "duration": 0.1204545,
                "tempo": 120.0
            },
            {
                "start_time": 139.9386364,
                "end_time": 140.0568182,
                "pitch": 41,
                "velocity": 101,
                "duration": 0.1181818,
                "tempo": 120.0
            },
            {
                "start_time": 140.0568182,
                "end_time": 140.3113636,
                "pitch": 43,
                "velocity": 101,
                "duration": 0.2545455,
                "tempo": 120.0
            },
            {
                "start_time": 140.3113636,
                "end_time": 140.5454545,
                "pitch": 31,
                "velocity": 101,
                "duration": 0.2340909,
                "tempo": 120.0
            },
            {
                "start_time": 140.5454545,
                "end_time": 140.7931818,
                "pitch": 31,
                "velocity": 101,
                "duration": 0.2477273,
                "tempo": 120.0
            },
            {
                "start_time": 140.7931818,
                "end_time": 140.9090909,
                "pitch": 31,
                "velocity": 101,
                "duration": 0.1159091,
                "tempo": 120.0
            },
            {
                "start_time": 140.9090909,
                "end_time": 141.0227273,
                "pitch": 43,
                "velocity": 101,
                "duration": 0.1136364,
                "tempo": 120.0
            },
            {
                "start_time": 141.0227273,
                "end_time": 141.1386364,
                "pitch": 31,
                "velocity": 101,
                "duration": 0.1159091,
                "tempo": 120.0
            },
            {
                "start_time": 141.1386364,
                "end_time": 141.3886364,
                "pitch": 28,
                "velocity": 101,
                "duration": 0.25,
                "tempo": 120.0
            },
            {
                "start_time": 141.3886364,
                "end_time": 141.7386364,
                "pitch": 28,
                "velocity": 101,
                "duration": 0.35,
                "tempo": 120.0
            },
            {
                "start_time": 141.7386364,
                "end_time": 142.1068182,
                "pitch": 40,
                "velocity": 101,
                "duration": 0.3681818,
                "tempo": 120.0
            },
            {
                "start_time": 142.1068182,
                "end_time": 142.3454545,
                "pitch": 28,
                "velocity": 101,
                "duration": 0.2386364,
                "tempo": 120.0
            },
            {
                "start_time": 142.3454545,
                "end_time": 142.6022727,
                "pitch": 28,
                "velocity": 101,
                "duration": 0.2568182,
                "tempo": 120.0
            },
            {
                "start_time": 142.6022727,
                "end_time": 142.7181818,
                "pitch": 40,
                "velocity": 101,
                "duration": 0.1159091,
                "tempo": 120.0
            },
            {
                "start_time": 142.7181818,
                "end_time": 142.8363636,
                "pitch": 28,
                "velocity": 101,
                "duration": 0.1181818,
                "tempo": 120.0
            },
            {
                "start_time": 142.8363636,
                "end_time": 142.9522727,
                "pitch": 28,
                "velocity": 101,
                "duration": 0.1159091,
                "tempo": 120.0
            },
            {
                "start_time": 142.9522727,
                "end_time": 143.3159091,
                "pitch": 29,
                "velocity": 101,
                "duration": 0.3636364,
                "tempo": 120.0
            },
            {
                "start_time": 143.3159091,
                "end_time": 143.5454545,
                "pitch": 29,
                "velocity": 101,
                "duration": 0.2295455,
                "tempo": 120.0
            },
            {
                "start_time": 143.5454545,
                "end_time": 143.6613636,
                "pitch": 41,
                "velocity": 101,
                "duration": 0.1159091,
                "tempo": 120.0
            },
            {
                "start_time": 143.6613636,
                "end_time": 143.7977273,
                "pitch": 29,
                "velocity": 101,
                "duration": 0.1363636,
                "tempo": 120.0
            },
            {
                "start_time": 143.7977273,
                "end_time": 143.9136364,
                "pitch": 39,
                "velocity": 101,
                "duration": 0.1159091,
                "tempo": 120.0
            },
            {
                "start_time": 143.9136364,
                "end_time": 144.1522727,
                "pitch": 41,
                "velocity": 101,
                "duration": 0.2386364,
                "tempo": 120.0
            },
            {
                "start_time": 144.1522727,
                "end_time": 144.4090909,
                "pitch": 29,
                "velocity": 101,
                "duration": 0.2568182,
                "tempo": 120.0
            },
            {
                "start_time": 144.4090909,
                "end_time": 144.6454545,
                "pitch": 29,
                "velocity": 101,
                "duration": 0.2363636,
                "tempo": 120.0
            },
            {
                "start_time": 144.6454545,
                "end_time": 144.7659091,
                "pitch": 29,
                "velocity": 101,
                "duration": 0.1204545,
                "tempo": 120.0
            },
            {
                "start_time": 144.7659091,
                "end_time": 144.8818182,
                "pitch": 39,
                "velocity": 101,
                "duration": 0.1159091,
                "tempo": 120.0
            },
            {
                "start_time": 144.8818182,
                "end_time": 145.0159091,
                "pitch": 41,
                "velocity": 101,
                "duration": 0.1340909,
                "tempo": 120.0
            },
            {
                "start_time": 145.0181818,
                "end_time": 145.1340909,
                "pitch": 31,
                "velocity": 101,
                "duration": 0.1159091,
                "tempo": 120.0
            },
            {
                "start_time": 145.1340909,
                "end_time": 145.25,
                "pitch": 31,
                "velocity": 101,
                "duration": 0.1159091,
                "tempo": 120.0
            },
            {
                "start_time": 145.25,
                "end_time": 145.3659091,
                "pitch": 43,
                "velocity": 101,
                "duration": 0.1159091,
                "tempo": 120.0
            },
            {
                "start_time": 145.3659091,
                "end_time": 145.4840909,
                "pitch": 43,
                "velocity": 101,
                "duration": 0.1181818,
                "tempo": 120.0
            },
            {
                "start_time": 145.4840909,
                "end_time": 145.6136364,
                "pitch": 31,
                "velocity": 101,
                "duration": 0.1295455,
                "tempo": 120.0
            },
            {
                "start_time": 145.6136364,
                "end_time": 145.7318182,
                "pitch": 31,
                "velocity": 101,
                "duration": 0.1181818,
                "tempo": 120.0
            },
            {
                "start_time": 145.7318182,
                "end_time": 145.8454545,
                "pitch": 43,
                "velocity": 101,
                "duration": 0.1136364,
                "tempo": 120.0
            },
            {
                "start_time": 145.8454545,
                "end_time": 145.9613636,
                "pitch": 43,
                "velocity": 101,
                "duration": 0.1159091,
                "tempo": 120.0
            },
            {
                "start_time": 145.9613636,
                "end_time": 146.0795455,
                "pitch": 31,
                "velocity": 101,
                "duration": 0.1181818,
                "tempo": 120.0
            },
            {
                "start_time": 146.0795455,
                "end_time": 146.2181818,
                "pitch": 31,
                "velocity": 101,
                "duration": 0.1386364,
                "tempo": 120.0
            },
            {
                "start_time": 146.2181818,
                "end_time": 146.3363636,
                "pitch": 43,
                "velocity": 101,
                "duration": 0.1181818,
                "tempo": 120.0
            },
            {
                "start_time": 146.3363636,
                "end_time": 146.4568182,
                "pitch": 43,
                "velocity": 101,
                "duration": 0.1204545,
                "tempo": 120.0
            },
            {
                "start_time": 146.4568182,
                "end_time": 146.5727273,
                "pitch": 31,
                "velocity": 101,
                "duration": 0.1159091,
                "tempo": 120.0
            },
            {
                "start_time": 146.5727273,
                "end_time": 146.6909091,
                "pitch": 31,
                "velocity": 101,
                "duration": 0.1181818,
                "tempo": 120.0
            },
            {
                "start_time": 146.6909091,
                "end_time": 146.8227273,
                "pitch": 43,
                "velocity": 101,
                "duration": 0.1318182,
                "tempo": 120.0
            },
            {
                "start_time": 146.8227273,
                "end_time": 146.9409091,
                "pitch": 31,
                "velocity": 101,
                "duration": 0.1181818,
                "tempo": 120.0
            },
            {
                "start_time": 146.9431818,
                "end_time": 147.175,
                "pitch": 31,
                "velocity": 101,
                "duration": 0.2318182,
                "tempo": 120.0
            },
            {
                "start_time": 147.175,
                "end_time": 147.4272727,
                "pitch": 31,
                "velocity": 101,
                "duration": 0.2522727,
                "tempo": 120.0
            },
            {
                "start_time": 147.4295455,
                "end_time": 147.5454545,
                "pitch": 43,
                "velocity": 101,
                "duration": 0.1159091,
                "tempo": 120.0
            },
            {
                "start_time": 147.5454545,
                "end_time": 147.6681818,
                "pitch": 31,
                "velocity": 101,
                "duration": 0.1227273,
                "tempo": 120.0
            },
            {
                "start_time": 147.6681818,
                "end_time": 147.7863636,
                "pitch": 41,
                "velocity": 101,
                "duration": 0.1181818,
                "tempo": 120.0
            },
            {
                "start_time": 147.7863636,
                "end_time": 148.0340909,
                "pitch": 43,
                "velocity": 101,
                "duration": 0.2477273,
                "tempo": 120.0
            },
            {
                "start_time": 148.0340909,
                "end_time": 148.2590909,
                "pitch": 31,
                "velocity": 101,
                "duration": 0.225,
                "tempo": 120.0
            },
            {
                "start_time": 148.2590909,
                "end_time": 148.4909091,
                "pitch": 31,
                "velocity": 101,
                "duration": 0.2318182,
                "tempo": 120.0
            },
            {
                "start_time": 148.4909091,
                "end_time": 148.6272727,
                "pitch": 31,
                "velocity": 101,
                "duration": 0.1363636,
                "tempo": 120.0
            },
            {
                "start_time": 148.6295455,
                "end_time": 148.7477273,
                "pitch": 43,
                "velocity": 101,
                "duration": 0.1181818,
                "tempo": 120.0
            },
            {
                "start_time": 148.7477273,
                "end_time": 148.8659091,
                "pitch": 31,
                "velocity": 101,
                "duration": 0.1181818,
                "tempo": 120.0
            },
            {
                "start_time": 148.8681818,
                "end_time": 149.1,
                "pitch": 28,
                "velocity": 101,
                "duration": 0.2318182,
                "tempo": 120.0
            },
            {
                "start_time": 149.1022727,
                "end_time": 149.4704545,
                "pitch": 28,
                "velocity": 101,
                "duration": 0.3681818,
                "tempo": 120.0
            },
            {
                "start_time": 149.4704545,
                "end_time": 149.8477273,
                "pitch": 40,
                "velocity": 101,
                "duration": 0.3772727,
                "tempo": 120.0
            },
            {
                "start_time": 149.8477273,
                "end_time": 150.0818182,
                "pitch": 28,
                "velocity": 101,
                "duration": 0.2340909,
                "tempo": 120.0
            },
            {
                "start_time": 150.0818182,
                "end_time": 150.3136364,
                "pitch": 28,
                "velocity": 101,
                "duration": 0.2318182,
                "tempo": 120.0
            },
            {
                "start_time": 150.3136364,
                "end_time": 150.4454545,
                "pitch": 40,
                "velocity": 101,
                "duration": 0.1318182,
                "tempo": 120.0
            },
            {
                "start_time": 150.4454545,
                "end_time": 150.5613636,
                "pitch": 28,
                "velocity": 101,
                "duration": 0.1159091,
                "tempo": 120.0
            },
            {
                "start_time": 150.5613636,
                "end_time": 150.675,
                "pitch": 28,
                "velocity": 101,
                "duration": 0.1136364,
                "tempo": 120.0
            },
            {
                "start_time": 150.675,
                "end_time": 151.0409091,
                "pitch": 29,
                "velocity": 101,
                "duration": 0.3659091,
                "tempo": 120.0
            },
            {
                "start_time": 151.0409091,
                "end_time": 151.275,
                "pitch": 29,
                "velocity": 101,
                "duration": 0.2340909,
                "tempo": 120.0
            },
            {
                "start_time": 151.275,
                "end_time": 151.3931818,
                "pitch": 41,
                "velocity": 101,
                "duration": 0.1181818,
                "tempo": 120.0
            },
            {
                "start_time": 151.3931818,
                "end_time": 151.5136364,
                "pitch": 29,
                "velocity": 101,
                "duration": 0.1204545,
                "tempo": 120.0
            },
            {
                "start_time": 151.5136364,
                "end_time": 151.65,
                "pitch": 39,
                "velocity": 101,
                "duration": 0.1363636,
                "tempo": 120.0
            },
            {
                "start_time": 151.65,
                "end_time": 151.8863636,
                "pitch": 41,
                "velocity": 101,
                "duration": 0.2363636,
                "tempo": 120.0
            },
            {
                "start_time": 151.8863636,
                "end_time": 152.1204545,
                "pitch": 29,
                "velocity": 101,
                "duration": 0.2340909,
                "tempo": 120.0
            },
            {
                "start_time": 152.1204545,
                "end_time": 152.3704545,
                "pitch": 29,
                "velocity": 101,
                "duration": 0.25,
                "tempo": 120.0
            },
            {
                "start_time": 152.3727273,
                "end_time": 152.4886364,
                "pitch": 29,
                "velocity": 101,
                "duration": 0.1159091,
                "tempo": 120.0
            },
            {
                "start_time": 152.4909091,
                "end_time": 152.6068182,
                "pitch": 39,
                "velocity": 101,
                "duration": 0.1159091,
                "tempo": 120.0
            },
            {
                "start_time": 152.6068182,
                "end_time": 152.725,
                "pitch": 41,
                "velocity": 101,
                "duration": 0.1181818,
                "tempo": 120.0
            },
            {
                "start_time": 152.725,
                "end_time": 152.8568182,
                "pitch": 31,
                "velocity": 101,
                "duration": 0.1318182,
                "tempo": 120.0
            },
            {
                "start_time": 152.8568182,
                "end_time": 152.9704545,
                "pitch": 31,
                "velocity": 101,
                "duration": 0.1136364,
                "tempo": 120.0
            },
            {
                "start_time": 152.9727273,
                "end_time": 153.0863636,
                "pitch": 43,
                "velocity": 101,
                "duration": 0.1136364,
                "tempo": 120.0
            },
            {
                "start_time": 153.0863636,
                "end_time": 153.2,
                "pitch": 43,
                "velocity": 101,
                "duration": 0.1136364,
                "tempo": 120.0
            },
            {
                "start_time": 153.2022727,
                "end_time": 153.3204545,
                "pitch": 31,
                "velocity": 101,
                "duration": 0.1181818,
                "tempo": 120.0
            },
            {
                "start_time": 153.3204545,
                "end_time": 153.4568182,
                "pitch": 31,
                "velocity": 101,
                "duration": 0.1363636,
                "tempo": 120.0
            },
            {
                "start_time": 153.4590909,
                "end_time": 153.5772727,
                "pitch": 43,
                "velocity": 101,
                "duration": 0.1181818,
                "tempo": 120.0
            },
            {
                "start_time": 153.5772727,
                "end_time": 153.6977273,
                "pitch": 43,
                "velocity": 101,
                "duration": 0.1204545,
                "tempo": 120.0
            },
            {
                "start_time": 153.6977273,
                "end_time": 153.8136364,
                "pitch": 31,
                "velocity": 101,
                "duration": 0.1159091,
                "tempo": 120.0
            },
            {
                "start_time": 153.8136364,
                "end_time": 153.9318182,
                "pitch": 31,
                "velocity": 101,
                "duration": 0.1181818,
                "tempo": 120.0
            },
            {
                "start_time": 153.9318182,
                "end_time": 154.0636364,
                "pitch": 43,
                "velocity": 101,
                "duration": 0.1318182,
                "tempo": 120.0
            },
            {
                "start_time": 154.0636364,
                "end_time": 154.1818182,
                "pitch": 43,
                "velocity": 101,
                "duration": 0.1181818,
                "tempo": 120.0
            },
            {
                "start_time": 154.1818182,
                "end_time": 154.2977273,
                "pitch": 31,
                "velocity": 101,
                "duration": 0.1159091,
                "tempo": 120.0
            },
            {
                "start_time": 154.2977273,
                "end_time": 154.4159091,
                "pitch": 31,
                "velocity": 101,
                "duration": 0.1181818,
                "tempo": 120.0
            },
            {
                "start_time": 154.4159091,
                "end_time": 154.5318182,
                "pitch": 43,
                "velocity": 101,
                "duration": 0.1159091,
                "tempo": 120.0
            },
            {
                "start_time": 154.5318182,
                "end_time": 154.6636364,
                "pitch": 31,
                "velocity": 101,
                "duration": 0.1318182,
                "tempo": 120.0
            },
            {
                "start_time": 154.6659091,
                "end_time": 154.9045455,
                "pitch": 31,
                "velocity": 101,
                "duration": 0.2386364,
                "tempo": 120.0
            },
            {
                "start_time": 154.9045455,
                "end_time": 155.1431818,
                "pitch": 31,
                "velocity": 101,
                "duration": 0.2386364,
                "tempo": 120.0
            },
            {
                "start_time": 155.1431818,
                "end_time": 155.2727273,
                "pitch": 43,
                "velocity": 101,
                "duration": 0.1295455,
                "tempo": 120.0
            },
            {
                "start_time": 155.275,
                "end_time": 155.3909091,
                "pitch": 31,
                "velocity": 101,
                "duration": 0.1159091,
                "tempo": 120.0
            },
            {
                "start_time": 155.3909091,
                "end_time": 155.5045455,
                "pitch": 41,
                "velocity": 101,
                "duration": 0.1136364,
                "tempo": 120.0
            },
            {
                "start_time": 155.5045455,
                "end_time": 155.7363636,
                "pitch": 43,
                "velocity": 101,
                "duration": 0.2318182,
                "tempo": 120.0
            },
            {
                "start_time": 155.7363636,
                "end_time": 155.9863636,
                "pitch": 31,
                "velocity": 101,
                "duration": 0.25,
                "tempo": 120.0
            },
            {
                "start_time": 155.9863636,
                "end_time": 156.2204545,
                "pitch": 31,
                "velocity": 101,
                "duration": 0.2340909,
                "tempo": 120.0
            },
            {
                "start_time": 156.2204545,
                "end_time": 156.3386364,
                "pitch": 31,
                "velocity": 101,
                "duration": 0.1181818,
                "tempo": 120.0
            },
            {
                "start_time": 156.3409091,
                "end_time": 156.4727273,
                "pitch": 43,
                "velocity": 101,
                "duration": 0.1318182,
                "tempo": 120.0
            },
            {
                "start_time": 156.475,
                "end_time": 156.5909091,
                "pitch": 31,
                "velocity": 101,
                "duration": 0.1159091,
                "tempo": 120.0
            },
            {
                "start_time": 156.5909091,
                "end_time": 156.8318182,
                "pitch": 28,
                "velocity": 101,
                "duration": 0.2409091,
                "tempo": 120.0
            },
            {
                "start_time": 156.8318182,
                "end_time": 157.2045455,
                "pitch": 28,
                "velocity": 101,
                "duration": 0.3727273,
                "tempo": 120.0
            },
            {
                "start_time": 157.2045455,
                "end_time": 157.5590909,
                "pitch": 40,
                "velocity": 101,
                "duration": 0.3545455,
                "tempo": 120.0
            },
            {
                "start_time": 157.5590909,
                "end_time": 157.8045455,
                "pitch": 28,
                "velocity": 101,
                "duration": 0.2454545,
                "tempo": 120.0
            },
            {
                "start_time": 157.8045455,
                "end_time": 158.0340909,
                "pitch": 28,
                "velocity": 101,
                "duration": 0.2295455,
                "tempo": 120.0
            },
            {
                "start_time": 158.0340909,
                "end_time": 158.1522727,
                "pitch": 40,
                "velocity": 101,
                "duration": 0.1181818,
                "tempo": 120.0
            },
            {
                "start_time": 158.1522727,
                "end_time": 158.2863636,
                "pitch": 28,
                "velocity": 101,
                "duration": 0.1340909,
                "tempo": 120.0
            },
            {
                "start_time": 158.2863636,
                "end_time": 158.4022727,
                "pitch": 28,
                "velocity": 101,
                "duration": 0.1159091,
                "tempo": 120.0
            },
            {
                "start_time": 158.4022727,
                "end_time": 158.7590909,
                "pitch": 29,
                "velocity": 101,
                "duration": 0.3568182,
                "tempo": 120.0
            },
            {
                "start_time": 158.7590909,
                "end_time": 159.0136364,
                "pitch": 29,
                "velocity": 101,
                "duration": 0.2545455,
                "tempo": 120.0
            },
            {
                "start_time": 159.0136364,
                "end_time": 159.1295455,
                "pitch": 41,
                "velocity": 101,
                "duration": 0.1159091,
                "tempo": 120.0
            },
            {
                "start_time": 159.1295455,
                "end_time": 159.2477273,
                "pitch": 29,
                "velocity": 101,
                "duration": 0.1181818,
                "tempo": 120.0
            },
            {
                "start_time": 159.2477273,
                "end_time": 159.3636364,
                "pitch": 39,
                "velocity": 101,
                "duration": 0.1159091,
                "tempo": 120.0
            },
            {
                "start_time": 159.3636364,
                "end_time": 159.6159091,
                "pitch": 41,
                "velocity": 101,
                "duration": 0.2522727,
                "tempo": 120.0
            },
            {
                "start_time": 159.6159091,
                "end_time": 159.8522727,
                "pitch": 29,
                "velocity": 101,
                "duration": 0.2363636,
                "tempo": 120.0
            },
            {
                "start_time": 159.8522727,
                "end_time": 160.1,
                "pitch": 29,
                "velocity": 101,
                "duration": 0.2477273,
                "tempo": 120.0
            },
            {
                "start_time": 160.1,
                "end_time": 160.2159091,
                "pitch": 29,
                "velocity": 101,
                "duration": 0.1159091,
                "tempo": 120.0
            },
            {
                "start_time": 160.2159091,
                "end_time": 160.3318182,
                "pitch": 39,
                "velocity": 101,
                "duration": 0.1159091,
                "tempo": 120.0
            },
            {
                "start_time": 160.3318182,
                "end_time": 160.4454545,
                "pitch": 41,
                "velocity": 101,
                "duration": 0.1136364,
                "tempo": 120.0
            },
            {
                "start_time": 160.4454545,
                "end_time": 160.5636364,
                "pitch": 31,
                "velocity": 101,
                "duration": 0.1181818,
                "tempo": 120.0
            },
            {
                "start_time": 160.5659091,
                "end_time": 160.7022727,
                "pitch": 31,
                "velocity": 101,
                "duration": 0.1363636,
                "tempo": 120.0
            },
            {
                "start_time": 160.7022727,
                "end_time": 160.8204545,
                "pitch": 43,
                "velocity": 101,
                "duration": 0.1181818,
                "tempo": 120.0
            },
            {
                "start_time": 160.8204545,
                "end_time": 160.9409091,
                "pitch": 43,
                "velocity": 101,
                "duration": 0.1204545,
                "tempo": 120.0
            },
            {
                "start_time": 160.9409091,
                "end_time": 161.0590909,
                "pitch": 31,
                "velocity": 101,
                "duration": 0.1181818,
                "tempo": 120.0
            },
            {
                "start_time": 161.0590909,
                "end_time": 161.1772727,
                "pitch": 31,
                "velocity": 101,
                "duration": 0.1181818,
                "tempo": 120.0
            },
            {
                "start_time": 161.1772727,
                "end_time": 161.3113636,
                "pitch": 43,
                "velocity": 101,
                "duration": 0.1340909,
                "tempo": 120.0
            },
            {
                "start_time": 161.3113636,
                "end_time": 161.4295455,
                "pitch": 43,
                "velocity": 101,
                "duration": 0.1181818,
                "tempo": 120.0
            },
            {
                "start_time": 161.4295455,
                "end_time": 161.5454545,
                "pitch": 31,
                "velocity": 101,
                "duration": 0.1159091,
                "tempo": 120.0
            },
            {
                "start_time": 161.5454545,
                "end_time": 161.6636364,
                "pitch": 31,
                "velocity": 101,
                "duration": 0.1181818,
                "tempo": 120.0
            },
            {
                "start_time": 161.6636364,
                "end_time": 161.7795455,
                "pitch": 43,
                "velocity": 101,
                "duration": 0.1159091,
                "tempo": 120.0
            },
            {
                "start_time": 161.7795455,
                "end_time": 161.9136364,
                "pitch": 43,
                "velocity": 101,
                "duration": 0.1340909,
                "tempo": 120.0
            },
            {
                "start_time": 161.9136364,
                "end_time": 162.0318182,
                "pitch": 31,
                "velocity": 101,
                "duration": 0.1181818,
                "tempo": 120.0
            },
            {
                "start_time": 162.0318182,
                "end_time": 162.1522727,
                "pitch": 31,
                "velocity": 101,
                "duration": 0.1204545,
                "tempo": 120.0
            },
            {
                "start_time": 162.1522727,
                "end_time": 162.2727273,
                "pitch": 43,
                "velocity": 101,
                "duration": 0.1204545,
                "tempo": 120.0
            },
            {
                "start_time": 162.2727273,
                "end_time": 162.3931818,
                "pitch": 31,
                "velocity": 101,
                "duration": 0.1204545,
                "tempo": 120.0
            },
            {
                "start_time": 162.3931818,
                "end_time": 162.6386364,
                "pitch": 31,
                "velocity": 101,
                "duration": 0.2454545,
                "tempo": 120.0
            },
            {
                "start_time": 162.6386364,
                "end_time": 162.8681818,
                "pitch": 31,
                "velocity": 101,
                "duration": 0.2295455,
                "tempo": 120.0
            },
            {
                "start_time": 162.8681818,
                "end_time": 162.9840909,
                "pitch": 43,
                "velocity": 101,
                "duration": 0.1159091,
                "tempo": 120.0
            },
            {
                "start_time": 162.9840909,
                "end_time": 163.1181818,
                "pitch": 31,
                "velocity": 101,
                "duration": 0.1340909,
                "tempo": 120.0
            },
            {
                "start_time": 163.1181818,
                "end_time": 163.2340909,
                "pitch": 41,
                "velocity": 101,
                "duration": 0.1159091,
                "tempo": 120.0
            },
            {
                "start_time": 163.2340909,
                "end_time": 163.4681818,
                "pitch": 43,
                "velocity": 101,
                "duration": 0.2340909,
                "tempo": 120.0
            },
            {
                "start_time": 163.4681818,
                "end_time": 163.7181818,
                "pitch": 31,
                "velocity": 101,
                "duration": 0.25,
                "tempo": 120.0
            },
            {
                "start_time": 163.7181818,
                "end_time": 163.9545455,
                "pitch": 31,
                "velocity": 101,
                "duration": 0.2363636,
                "tempo": 120.0
            },
            {
                "start_time": 163.9545455,
                "end_time": 164.075,
                "pitch": 31,
                "velocity": 101,
                "duration": 0.1204545,
                "tempo": 120.0
            },
            {
                "start_time": 164.075,
                "end_time": 164.1954545,
                "pitch": 43,
                "velocity": 101,
                "duration": 0.1204545,
                "tempo": 120.0
            },
            {
                "start_time": 164.1954545,
                "end_time": 164.3318182,
                "pitch": 31,
                "velocity": 101,
                "duration": 0.1363636,
                "tempo": 120.0
            },
            {
                "start_time": 164.3318182,
                "end_time": 164.5659091,
                "pitch": 28,
                "velocity": 101,
                "duration": 0.2340909,
                "tempo": 120.0
            },
            {
                "start_time": 164.5659091,
                "end_time": 164.9295455,
                "pitch": 28,
                "velocity": 101,
                "duration": 0.3636364,
                "tempo": 120.0
            },
            {
                "start_time": 164.9295455,
                "end_time": 165.275,
                "pitch": 40,
                "velocity": 101,
                "duration": 0.3454545,
                "tempo": 120.0
            },
            {
                "start_time": 165.275,
                "end_time": 165.5272727,
                "pitch": 28,
                "velocity": 101,
                "duration": 0.2522727,
                "tempo": 120.0
            },
            {
                "start_time": 165.5272727,
                "end_time": 165.7613636,
                "pitch": 28,
                "velocity": 101,
                "duration": 0.2340909,
                "tempo": 120.0
            },
            {
                "start_time": 165.7636364,
                "end_time": 165.8818182,
                "pitch": 40,
                "velocity": 101,
                "duration": 0.1181818,
                "tempo": 120.0
            },
            {
                "start_time": 165.8818182,
                "end_time": 166.0022727,
                "pitch": 28,
                "velocity": 101,
                "duration": 0.1204545,
                "tempo": 120.0
            },
            {
                "start_time": 166.0022727,
                "end_time": 166.1386364,
                "pitch": 28,
                "velocity": 101,
                "duration": 0.1363636,
                "tempo": 120.0
            },
            {
                "start_time": 166.1386364,
                "end_time": 166.4931818,
                "pitch": 29,
                "velocity": 101,
                "duration": 0.3545455,
                "tempo": 120.0
            },
            {
                "start_time": 166.4931818,
                "end_time": 166.7431818,
                "pitch": 29,
                "velocity": 101,
                "duration": 0.25,
                "tempo": 120.0
            },
            {
                "start_time": 166.7431818,
                "end_time": 166.8590909,
                "pitch": 41,
                "velocity": 101,
                "duration": 0.1159091,
                "tempo": 120.0
            },
            {
                "start_time": 166.8590909,
                "end_time": 166.9772727,
                "pitch": 29,
                "velocity": 101,
                "duration": 0.1181818,
                "tempo": 120.0
            },
            {
                "start_time": 166.9772727,
                "end_time": 167.0931818,
                "pitch": 39,
                "velocity": 101,
                "duration": 0.1159091,
                "tempo": 120.0
            },
            {
                "start_time": 167.0931818,
                "end_time": 167.3409091,
                "pitch": 41,
                "velocity": 101,
                "duration": 0.2477273,
                "tempo": 120.0
            },
            {
                "start_time": 167.3409091,
                "end_time": 167.5704545,
                "pitch": 29,
                "velocity": 101,
                "duration": 0.2295455,
                "tempo": 120.0
            },
            {
                "start_time": 167.5704545,
                "end_time": 167.8045455,
                "pitch": 29,
                "velocity": 101,
                "duration": 0.2340909,
                "tempo": 120.0
            },
            {
                "start_time": 167.8045455,
                "end_time": 167.9431818,
                "pitch": 29,
                "velocity": 101,
                "duration": 0.1386364,
                "tempo": 120.0
            },
            {
                "start_time": 167.9431818,
                "end_time": 168.0613636,
                "pitch": 39,
                "velocity": 101,
                "duration": 0.1181818,
                "tempo": 120.0
            },
            {
                "start_time": 168.0636364,
                "end_time": 168.1818182,
                "pitch": 41,
                "velocity": 101,
                "duration": 0.1181818,
                "tempo": 120.0
            },
            {
                "start_time": 168.1818182,
                "end_time": 168.2977273,
                "pitch": 31,
                "velocity": 101,
                "duration": 0.1159091,
                "tempo": 120.0
            },
            {
                "start_time": 168.2977273,
                "end_time": 168.4159091,
                "pitch": 31,
                "velocity": 101,
                "duration": 0.1181818,
                "tempo": 120.0
            },
            {
                "start_time": 168.4159091,
                "end_time": 168.5477273,
                "pitch": 43,
                "velocity": 101,
                "duration": 0.1318182,
                "tempo": 120.0
            },
            {
                "start_time": 168.5477273,
                "end_time": 168.6659091,
                "pitch": 43,
                "velocity": 101,
                "duration": 0.1181818,
                "tempo": 120.0
            },
            {
                "start_time": 168.6659091,
                "end_time": 168.7818182,
                "pitch": 31,
                "velocity": 101,
                "duration": 0.1159091,
                "tempo": 120.0
            },
            {
                "start_time": 168.7818182,
                "end_time": 168.9022727,
                "pitch": 31,
                "velocity": 101,
                "duration": 0.1204545,
                "tempo": 120.0
            },
            {
                "start_time": 168.9022727,
                "end_time": 169.0181818,
                "pitch": 43,
                "velocity": 101,
                "duration": 0.1159091,
                "tempo": 120.0
            },
            {
                "start_time": 169.0181818,
                "end_time": 169.1545455,
                "pitch": 43,
                "velocity": 101,
                "duration": 0.1363636,
                "tempo": 120.0
            },
            {
                "start_time": 169.1545455,
                "end_time": 169.2727273,
                "pitch": 31,
                "velocity": 101,
                "duration": 0.1181818,
                "tempo": 120.0
            },
            {
                "start_time": 169.2727273,
                "end_time": 169.3931818,
                "pitch": 31,
                "velocity": 101,
                "duration": 0.1204545,
                "tempo": 120.0
            },
            {
                "start_time": 169.3931818,
                "end_time": 169.5113636,
                "pitch": 43,
                "velocity": 101,
                "duration": 0.1181818,
                "tempo": 120.0
            },
            {
                "start_time": 169.5113636,
                "end_time": 169.6318182,
                "pitch": 43,
                "velocity": 101,
                "duration": 0.1204545,
                "tempo": 120.0
            },
            {
                "start_time": 169.6318182,
                "end_time": 169.7590909,
                "pitch": 31,
                "velocity": 101,
                "duration": 0.1272727,
                "tempo": 120.0
            },
            {
                "start_time": 169.7590909,
                "end_time": 169.8727273,
                "pitch": 31,
                "velocity": 101,
                "duration": 0.1136364,
                "tempo": 120.0
            },
            {
                "start_time": 169.8727273,
                "end_time": 169.9840909,
                "pitch": 43,
                "velocity": 101,
                "duration": 0.1113636,
                "tempo": 120.0
            },
            {
                "start_time": 169.9840909,
                "end_time": 170.0977273,
                "pitch": 31,
                "velocity": 101,
                "duration": 0.1136364,
                "tempo": 120.0
            },
            {
                "start_time": 170.0977273,
                "end_time": 170.3545455,
                "pitch": 31,
                "velocity": 101,
                "duration": 0.2568182,
                "tempo": 120.0
            },
            {
                "start_time": 170.3545455,
                "end_time": 170.5931818,
                "pitch": 31,
                "velocity": 101,
                "duration": 0.2386364,
                "tempo": 120.0
            },
            {
                "start_time": 170.5931818,
                "end_time": 170.7090909,
                "pitch": 43,
                "velocity": 101,
                "duration": 0.1159091,
                "tempo": 120.0
            },
            {
                "start_time": 170.7090909,
                "end_time": 170.8272727,
                "pitch": 31,
                "velocity": 101,
                "duration": 0.1181818,
                "tempo": 120.0
            },
            {
                "start_time": 170.8272727,
                "end_time": 170.9590909,
                "pitch": 41,
                "velocity": 101,
                "duration": 0.1318182,
                "tempo": 120.0
            },
            {
                "start_time": 170.9590909,
                "end_time": 171.1931818,
                "pitch": 43,
                "velocity": 101,
                "duration": 0.2340909,
                "tempo": 120.0
            },
            {
                "start_time": 171.1931818,
                "end_time": 171.4272727,
                "pitch": 31,
                "velocity": 101,
                "duration": 0.2340909,
                "tempo": 120.0
            },
            {
                "start_time": 171.4272727,
                "end_time": 171.6795455,
                "pitch": 31,
                "velocity": 101,
                "duration": 0.2522727,
                "tempo": 120.0
            },
            {
                "start_time": 171.6795455,
                "end_time": 171.8,
                "pitch": 31,
                "velocity": 101,
                "duration": 0.1204545,
                "tempo": 120.0
            },
            {
                "start_time": 171.8,
                "end_time": 171.9204545,
                "pitch": 43,
                "velocity": 101,
                "duration": 0.1204545,
                "tempo": 120.0
            },
            {
                "start_time": 171.9204545,
                "end_time": 172.0386364,
                "pitch": 31,
                "velocity": 101,
                "duration": 0.1181818,
                "tempo": 120.0
            },
            {
                "start_time": 172.0386364,
                "end_time": 172.2863636,
                "pitch": 28,
                "velocity": 101,
                "duration": 0.2477273,
                "tempo": 120.0
            },
            {
                "start_time": 172.2863636,
                "end_time": 172.6318182,
                "pitch": 28,
                "velocity": 101,
                "duration": 0.3454545,
                "tempo": 120.0
            },
            {
                "start_time": 172.6318182,
                "end_time": 173.0045455,
                "pitch": 40,
                "velocity": 101,
                "duration": 0.3727273,
                "tempo": 120.0
            },
            {
                "start_time": 173.0045455,
                "end_time": 173.2386364,
                "pitch": 28,
                "velocity": 101,
                "duration": 0.2340909,
                "tempo": 120.0
            },
            {
                "start_time": 173.2386364,
                "end_time": 173.4863636,
                "pitch": 28,
                "velocity": 101,
                "duration": 0.2477273,
                "tempo": 120.0
            },
            {
                "start_time": 173.4886364,
                "end_time": 173.6068182,
                "pitch": 40,
                "velocity": 101,
                "duration": 0.1181818,
                "tempo": 120.0
            },
            {
                "start_time": 173.6068182,
                "end_time": 173.7272727,
                "pitch": 28,
                "velocity": 101,
                "duration": 0.1204545,
                "tempo": 120.0
            },
            {
                "start_time": 173.7272727,
                "end_time": 173.8477273,
                "pitch": 28,
                "velocity": 101,
                "duration": 0.1204545,
                "tempo": 120.0
            },
            {
                "start_time": 173.8477273,
                "end_time": 174.2181818,
                "pitch": 29,
                "velocity": 101,
                "duration": 0.3704545,
                "tempo": 120.0
            },
            {
                "start_time": 174.2181818,
                "end_time": 174.45,
                "pitch": 29,
                "velocity": 101,
                "duration": 0.2318182,
                "tempo": 120.0
            },
            {
                "start_time": 174.45,
                "end_time": 174.5795455,
                "pitch": 41,
                "velocity": 101,
                "duration": 0.1295455,
                "tempo": 120.0
            },
            {
                "start_time": 174.5818182,
                "end_time": 174.6977273,
                "pitch": 29,
                "velocity": 101,
                "duration": 0.1159091,
                "tempo": 120.0
            },
            {
                "start_time": 174.6977273,
                "end_time": 174.8113636,
                "pitch": 39,
                "velocity": 101,
                "duration": 0.1136364,
                "tempo": 120.0
            },
            {
                "start_time": 174.8113636,
                "end_time": 175.0431818,
                "pitch": 41,
                "velocity": 101,
                "duration": 0.2318182,
                "tempo": 120.0
            },
            {
                "start_time": 175.0431818,
                "end_time": 175.2931818,
                "pitch": 29,
                "velocity": 101,
                "duration": 0.25,
                "tempo": 120.0
            },
            {
                "start_time": 175.2931818,
                "end_time": 175.5295455,
                "pitch": 29,
                "velocity": 101,
                "duration": 0.2363636,
                "tempo": 120.0
            },
            {
                "start_time": 175.5295455,
                "end_time": 175.65,
                "pitch": 29,
                "velocity": 101,
                "duration": 0.1204545,
                "tempo": 120.0
            },
            {
                "start_time": 175.65,
                "end_time": 175.7863636,
                "pitch": 39,
                "velocity": 101,
                "duration": 0.1363636,
                "tempo": 120.0
            },
            {
                "start_time": 175.7863636,
                "end_time": 175.9068182,
                "pitch": 41,
                "velocity": 101,
                "duration": 0.1204545,
                "tempo": 120.0
            },
            {
                "start_time": 175.9068182,
                "end_time": 176.0227273,
                "pitch": 31,
                "velocity": 101,
                "duration": 0.1159091,
                "tempo": 120.0
            },
            {
                "start_time": 176.0227273,
                "end_time": 176.1409091,
                "pitch": 31,
                "velocity": 101,
                "duration": 0.1181818,
                "tempo": 120.0
            },
            {
                "start_time": 176.1409091,
                "end_time": 176.2568182,
                "pitch": 43,
                "velocity": 101,
                "duration": 0.1159091,
                "tempo": 120.0
            },
            {
                "start_time": 176.2568182,
                "end_time": 176.3909091,
                "pitch": 43,
                "velocity": 101,
                "duration": 0.1340909,
                "tempo": 120.0
            },
            {
                "start_time": 176.3909091,
                "end_time": 176.5068182,
                "pitch": 31,
                "velocity": 101,
                "duration": 0.1159091,
                "tempo": 120.0
            },
            {
                "start_time": 176.5068182,
                "end_time": 176.625,
                "pitch": 31,
                "velocity": 101,
                "duration": 0.1181818,
                "tempo": 120.0
            },
            {
                "start_time": 176.6272727,
                "end_time": 176.7431818,
                "pitch": 43,
                "velocity": 101,
                "duration": 0.1159091,
                "tempo": 120.0
            },
            {
                "start_time": 176.7431818,
                "end_time": 176.8613636,
                "pitch": 43,
                "velocity": 101,
                "duration": 0.1181818,
                "tempo": 120.0
            },
            {
                "start_time": 176.8613636,
                "end_time": 176.9909091,
                "pitch": 31,
                "velocity": 101,
                "duration": 0.1295455,
                "tempo": 120.0
            },
            {
                "start_time": 176.9909091,
                "end_time": 177.1090909,
                "pitch": 31,
                "velocity": 101,
                "duration": 0.1181818,
                "tempo": 120.0
            },
            {
                "start_time": 177.1090909,
                "end_time": 177.2227273,
                "pitch": 43,
                "velocity": 101,
                "duration": 0.1136364,
                "tempo": 120.0
            },
            {
                "start_time": 177.2227273,
                "end_time": 177.3386364,
                "pitch": 43,
                "velocity": 101,
                "duration": 0.1159091,
                "tempo": 120.0
            },
            {
                "start_time": 177.3386364,
                "end_time": 177.4568182,
                "pitch": 31,
                "velocity": 101,
                "duration": 0.1181818,
                "tempo": 120.0
            },
            {
                "start_time": 177.4568182,
                "end_time": 177.5954545,
                "pitch": 31,
                "velocity": 101,
                "duration": 0.1386364,
                "tempo": 120.0
            },
            {
                "start_time": 177.5954545,
                "end_time": 177.7136364,
                "pitch": 43,
                "velocity": 101,
                "duration": 0.1181818,
                "tempo": 120.0
            },
            {
                "start_time": 177.7136364,
                "end_time": 177.8340909,
                "pitch": 31,
                "velocity": 101,
                "duration": 0.1204545,
                "tempo": 120.0
            },
            {
                "start_time": 177.8363636,
                "end_time": 178.0681818,
                "pitch": 31,
                "velocity": 101,
                "duration": 0.2318182,
                "tempo": 120.0
            },
            {
                "start_time": 178.0681818,
                "end_time": 178.3204545,
                "pitch": 31,
                "velocity": 101,
                "duration": 0.2522727,
                "tempo": 120.0
            },
            {
                "start_time": 178.3227273,
                "end_time": 178.4363636,
                "pitch": 43,
                "velocity": 101,
                "duration": 0.1136364,
                "tempo": 120.0
            },
            {
                "start_time": 178.4363636,
                "end_time": 178.5545455,
                "pitch": 31,
                "velocity": 101,
                "duration": 0.1181818,
                "tempo": 120.0
            },
            {
                "start_time": 178.5545455,
                "end_time": 178.6704545,
                "pitch": 41,
                "velocity": 101,
                "duration": 0.1159091,
                "tempo": 120.0
            },
            {
                "start_time": 178.6704545,
                "end_time": 178.9227273,
                "pitch": 43,
                "velocity": 101,
                "duration": 0.2522727,
                "tempo": 120.0
            },
            {
                "start_time": 178.9227273,
                "end_time": 179.1636364,
                "pitch": 31,
                "velocity": 101,
                "duration": 0.2409091,
                "tempo": 120.0
            },
            {
                "start_time": 179.1636364,
                "end_time": 179.4136364,
                "pitch": 31,
                "velocity": 101,
                "duration": 0.25,
                "tempo": 120.0
            },
            {
                "start_time": 179.4136364,
                "end_time": 179.5295455,
                "pitch": 31,
                "velocity": 101,
                "duration": 0.1159091,
                "tempo": 120.0
            },
            {
                "start_time": 179.5295455,
                "end_time": 179.6454545,
                "pitch": 43,
                "velocity": 101,
                "duration": 0.1159091,
                "tempo": 120.0
            },
            {
                "start_time": 179.6454545,
                "end_time": 179.7590909,
                "pitch": 31,
                "velocity": 101,
                "duration": 0.1136364,
                "tempo": 120.0
            }
        ],
        "Acoustic Guitar (nylon)": [
            {
                "start_time": 77.3522727,
                "end_time": 77.4659091,
                "pitch": 67,
                "velocity": 16,
                "duration": 0.1136364,
                "tempo": 120.0
            },
            {
                "start_time": 77.4659091,
                "end_time": 77.5840909,
                "pitch": 60,
                "velocity": 16,
                "duration": 0.1181818,
                "tempo": 120.0
            },
            {
                "start_time": 77.5840909,
                "end_time": 77.7,
                "pitch": 62,
                "velocity": 16,
                "duration": 0.1159091,
                "tempo": 120.0
            },
            {
                "start_time": 77.7,
                "end_time": 77.8181818,
                "pitch": 65,
                "velocity": 16,
                "duration": 0.1181818,
                "tempo": 120.0
            },
            {
                "start_time": 77.8181818,
                "end_time": 77.9477273,
                "pitch": 60,
                "velocity": 16,
                "duration": 0.1295455,
                "tempo": 120.0
            },
            {
                "start_time": 77.9477273,
                "end_time": 78.0636364,
                "pitch": 62,
                "velocity": 20,
                "duration": 0.1159091,
                "tempo": 120.0
            },
            {
                "start_time": 78.0636364,
                "end_time": 78.1772727,
                "pitch": 67,
                "velocity": 20,
                "duration": 0.1136364,
                "tempo": 120.0
            },
            {
                "start_time": 78.1772727,
                "end_time": 78.2931818,
                "pitch": 60,
                "velocity": 20,
                "duration": 0.1159091,
                "tempo": 120.0
            },
            {
                "start_time": 78.2931818,
                "end_time": 78.4113636,
                "pitch": 62,
                "velocity": 20,
                "duration": 0.1181818,
                "tempo": 120.0
            },
            {
                "start_time": 78.4113636,
                "end_time": 78.5454545,
                "pitch": 65,
                "velocity": 25,
                "duration": 0.1340909,
                "tempo": 120.0
            },
            {
                "start_time": 78.5454545,
                "end_time": 78.6636364,
                "pitch": 60,
                "velocity": 25,
                "duration": 0.1181818,
                "tempo": 120.0
            },
            {
                "start_time": 78.6636364,
                "end_time": 78.7818182,
                "pitch": 62,
                "velocity": 32,
                "duration": 0.1181818,
                "tempo": 120.0
            },
            {
                "start_time": 78.7818182,
                "end_time": 78.9,
                "pitch": 67,
                "velocity": 32,
                "duration": 0.1181818,
                "tempo": 120.0
            },
            {
                "start_time": 78.9,
                "end_time": 79.0181818,
                "pitch": 60,
                "velocity": 40,
                "duration": 0.1181818,
                "tempo": 120.0
            },
            {
                "start_time": 79.0181818,
                "end_time": 79.1522727,
                "pitch": 62,
                "velocity": 40,
                "duration": 0.1340909,
                "tempo": 120.0
            },
            {
                "start_time": 79.1522727,
                "end_time": 79.2704545,
                "pitch": 65,
                "velocity": 51,
                "duration": 0.1181818,
                "tempo": 120.0
            },
            {
                "start_time": 79.2704545,
                "end_time": 79.3886364,
                "pitch": 60,
                "velocity": 51,
                "duration": 0.1181818,
                "tempo": 120.0
            },
            {
                "start_time": 79.3886364,
                "end_time": 79.5090909,
                "pitch": 62,
                "velocity": 64,
                "duration": 0.1204545,
                "tempo": 120.0
            },
            {
                "start_time": 79.5090909,
                "end_time": 79.6272727,
                "pitch": 67,
                "velocity": 64,
                "duration": 0.1181818,
                "tempo": 120.0
            },
            {
                "start_time": 79.6272727,
                "end_time": 79.7659091,
                "pitch": 60,
                "velocity": 80,
                "duration": 0.1386364,
                "tempo": 120.0
            },
            {
                "start_time": 79.7659091,
                "end_time": 79.8818182,
                "pitch": 62,
                "velocity": 80,
                "duration": 0.1159091,
                "tempo": 120.0
            },
            {
                "start_time": 79.8818182,
                "end_time": 80.0,
                "pitch": 65,
                "velocity": 101,
                "duration": 0.1181818,
                "tempo": 120.0
            },
            {
                "start_time": 80.0,
                "end_time": 80.1159091,
                "pitch": 60,
                "velocity": 101,
                "duration": 0.1159091,
                "tempo": 120.0
            },
            {
                "start_time": 80.1181818,
                "end_time": 80.2363636,
                "pitch": 62,
                "velocity": 101,
                "duration": 0.1181818,
                "tempo": 120.0
            },
            {
                "start_time": 80.2363636,
                "end_time": 80.3659091,
                "pitch": 67,
                "velocity": 101,
                "duration": 0.1295455,
                "tempo": 120.0
            },
            {
                "start_time": 80.3659091,
                "end_time": 80.4840909,
                "pitch": 60,
                "velocity": 101,
                "duration": 0.1181818,
                "tempo": 120.0
            },
            {
                "start_time": 80.4840909,
                "end_time": 80.5954545,
                "pitch": 62,
                "velocity": 101,
                "duration": 0.1113636,
                "tempo": 120.0
            },
            {
                "start_time": 80.5977273,
                "end_time": 80.7136364,
                "pitch": 65,
                "velocity": 101,
                "duration": 0.1159091,
                "tempo": 120.0
            },
            {
                "start_time": 80.7136364,
                "end_time": 80.8295455,
                "pitch": 60,
                "velocity": 101,
                "duration": 0.1159091,
                "tempo": 120.0
            },
            {
                "start_time": 80.8295455,
                "end_time": 80.9659091,
                "pitch": 62,
                "velocity": 101,
                "duration": 0.1363636,
                "tempo": 120.0
            },
            {
                "start_time": 80.9659091,
                "end_time": 81.0818182,
                "pitch": 67,
                "velocity": 101,
                "duration": 0.1159091,
                "tempo": 120.0
            },
            {
                "start_time": 81.0818182,
                "end_time": 81.2,
                "pitch": 60,
                "velocity": 101,
                "duration": 0.1181818,
                "tempo": 120.0
            },
            {
                "start_time": 81.2,
                "end_time": 81.3181818,
                "pitch": 62,
                "velocity": 101,
                "duration": 0.1181818,
                "tempo": 120.0
            },
            {
                "start_time": 81.3181818,
                "end_time": 81.4409091,
                "pitch": 65,
                "velocity": 101,
                "duration": 0.1227273,
                "tempo": 120.0
            },
            {
                "start_time": 81.4409091,
                "end_time": 81.575,
                "pitch": 60,
                "velocity": 101,
                "duration": 0.1340909,
                "tempo": 120.0
            },
            {
                "start_time": 81.575,
                "end_time": 81.6977273,
                "pitch": 62,
                "velocity": 101,
                "duration": 0.1227273,
                "tempo": 120.0
            },
            {
                "start_time": 81.6977273,
                "end_time": 81.8136364,
                "pitch": 67,
                "velocity": 101,
                "duration": 0.1159091,
                "tempo": 120.0
            },
            {
                "start_time": 81.8136364,
                "end_time": 81.9318182,
                "pitch": 60,
                "velocity": 101,
                "duration": 0.1181818,
                "tempo": 120.0
            },
            {
                "start_time": 81.9318182,
                "end_time": 82.0477273,
                "pitch": 62,
                "velocity": 101,
                "duration": 0.1159091,
                "tempo": 120.0
            },
            {
                "start_time": 82.0477273,
                "end_time": 82.1840909,
                "pitch": 65,
                "velocity": 101,
                "duration": 0.1363636,
                "tempo": 120.0
            },
            {
                "start_time": 82.1840909,
                "end_time": 82.3,
                "pitch": 60,
                "velocity": 101,
                "duration": 0.1159091,
                "tempo": 120.0
            },
            {
                "start_time": 82.3,
                "end_time": 82.4181818,
                "pitch": 62,
                "velocity": 80,
                "duration": 0.1181818,
                "tempo": 120.0
            },
            {
                "start_time": 82.4181818,
                "end_time": 82.5340909,
                "pitch": 67,
                "velocity": 80,
                "duration": 0.1159091,
                "tempo": 120.0
            },
            {
                "start_time": 82.5340909,
                "end_time": 82.6522727,
                "pitch": 60,
                "velocity": 64,
                "duration": 0.1181818,
                "tempo": 120.0
            },
            {
                "start_time": 82.6522727,
                "end_time": 82.7818182,
                "pitch": 62,
                "velocity": 64,
                "duration": 0.1295455,
                "tempo": 120.0
            },
            {
                "start_time": 82.7818182,
                "end_time": 82.8977273,
                "pitch": 65,
                "velocity": 51,
                "duration": 0.1159091,
                "tempo": 120.0
            },
            {
                "start_time": 82.8977273,
                "end_time": 83.0136364,
                "pitch": 60,
                "velocity": 51,
                "duration": 0.1159091,
                "tempo": 120.0
            },
            {
                "start_time": 83.0136364,
                "end_time": 83.1272727,
                "pitch": 62,
                "velocity": 40,
                "duration": 0.1136364,
                "tempo": 120.0
            },
            {
                "start_time": 83.1272727,
                "end_time": 83.2454545,
                "pitch": 67,
                "velocity": 40,
                "duration": 0.1181818,
                "tempo": 120.0
            },
            {
                "start_time": 83.2477273,
                "end_time": 83.3840909,
                "pitch": 60,
                "velocity": 32,
                "duration": 0.1363636,
                "tempo": 120.0
            },
            {
                "start_time": 83.3840909,
                "end_time": 83.5022727,
                "pitch": 62,
                "velocity": 32,
                "duration": 0.1181818,
                "tempo": 120.0
            },
            {
                "start_time": 83.5022727,
                "end_time": 83.6227273,
                "pitch": 65,
                "velocity": 25,
                "duration": 0.1204545,
                "tempo": 120.0
            },
            {
                "start_time": 83.6227273,
                "end_time": 83.7386364,
                "pitch": 60,
                "velocity": 25,
                "duration": 0.1159091,
                "tempo": 120.0
            },
            {
                "start_time": 83.7409091,
                "end_time": 83.8590909,
                "pitch": 62,
                "velocity": 25,
                "duration": 0.1181818,
                "tempo": 120.0
            },
            {
                "start_time": 83.8590909,
                "end_time": 83.9931818,
                "pitch": 67,
                "velocity": 25,
                "duration": 0.1340909,
                "tempo": 120.0
            },
            {
                "start_time": 83.9931818,
                "end_time": 84.1113636,
                "pitch": 60,
                "velocity": 20,
                "duration": 0.1181818,
                "tempo": 120.0
            },
            {
                "start_time": 84.1113636,
                "end_time": 84.2272727,
                "pitch": 62,
                "velocity": 20,
                "duration": 0.1159091,
                "tempo": 120.0
            },
            {
                "start_time": 84.2272727,
                "end_time": 84.3454545,
                "pitch": 65,
                "velocity": 20,
                "duration": 0.1181818,
                "tempo": 120.0
            },
            {
                "start_time": 84.3454545,
                "end_time": 84.4613636,
                "pitch": 60,
                "velocity": 20,
                "duration": 0.1159091,
                "tempo": 120.0
            },
            {
                "start_time": 84.4613636,
                "end_time": 84.5954545,
                "pitch": 62,
                "velocity": 20,
                "duration": 0.1340909,
                "tempo": 120.0
            },
            {
                "start_time": 84.5954545,
                "end_time": 84.7136364,
                "pitch": 67,
                "velocity": 20,
                "duration": 0.1181818,
                "tempo": 120.0
            },
            {
                "start_time": 84.7136364,
                "end_time": 84.8340909,
                "pitch": 60,
                "velocity": 20,
                "duration": 0.1204545,
                "tempo": 120.0
            },
            {
                "start_time": 84.8340909,
                "end_time": 84.9545455,
                "pitch": 62,
                "velocity": 20,
                "duration": 0.1204545,
                "tempo": 120.0
            },
            {
                "start_time": 84.9545455,
                "end_time": 85.0727273,
                "pitch": 65,
                "velocity": 20,
                "duration": 0.1181818,
                "tempo": 120.0
            },
            {
                "start_time": 85.0727273,
                "end_time": 85.2,
                "pitch": 67,
                "velocity": 16,
                "duration": 0.1272727,
                "tempo": 120.0
            },
            {
                "start_time": 85.2,
                "end_time": 85.3136364,
                "pitch": 60,
                "velocity": 16,
                "duration": 0.1136364,
                "tempo": 120.0
            },
            {
                "start_time": 85.3136364,
                "end_time": 85.425,
                "pitch": 62,
                "velocity": 16,
                "duration": 0.1113636,
                "tempo": 120.0
            },
            {
                "start_time": 85.425,
                "end_time": 85.5386364,
                "pitch": 65,
                "velocity": 16,
                "duration": 0.1136364,
                "tempo": 120.0
            },
            {
                "start_time": 85.5386364,
                "end_time": 85.6568182,
                "pitch": 60,
                "velocity": 16,
                "duration": 0.1181818,
                "tempo": 120.0
            },
            {
                "start_time": 85.6568182,
                "end_time": 85.7954545,
                "pitch": 62,
                "velocity": 20,
                "duration": 0.1386364,
                "tempo": 120.0
            },
            {
                "start_time": 85.7954545,
                "end_time": 85.9136364,
                "pitch": 67,
                "velocity": 20,
                "duration": 0.1181818,
                "tempo": 120.0
            },
            {
                "start_time": 85.9136364,
                "end_time": 86.0340909,
                "pitch": 60,
                "velocity": 20,
                "duration": 0.1204545,
                "tempo": 120.0
            },
            {
                "start_time": 86.0340909,
                "end_time": 86.15,
                "pitch": 62,
                "velocity": 20,
                "duration": 0.1159091,
                "tempo": 120.0
            },
            {
                "start_time": 86.1522727,
                "end_time": 86.2704545,
                "pitch": 65,
                "velocity": 25,
                "duration": 0.1181818,
                "tempo": 120.0
            },
            {
                "start_time": 86.2704545,
                "end_time": 86.4045455,
                "pitch": 60,
                "velocity": 25,
                "duration": 0.1340909,
                "tempo": 120.0
            },
            {
                "start_time": 86.4045455,
                "end_time": 86.5227273,
                "pitch": 62,
                "velocity": 32,
                "duration": 0.1181818,
                "tempo": 120.0
            },
            {
                "start_time": 86.5227273,
                "end_time": 86.6409091,
                "pitch": 67,
                "velocity": 32,
                "duration": 0.1181818,
                "tempo": 120.0
            },
            {
                "start_time": 86.6409091,
                "end_time": 86.7613636,
                "pitch": 60,
                "velocity": 40,
                "duration": 0.1204545,
                "tempo": 120.0
            },
            {
                "start_time": 86.7613636,
                "end_time": 86.8818182,
                "pitch": 62,
                "velocity": 40,
                "duration": 0.1204545,
                "tempo": 120.0
            },
            {
                "start_time": 86.8818182,
                "end_time": 87.0181818,
                "pitch": 65,
                "velocity": 51,
                "duration": 0.1363636,
                "tempo": 120.0
            },
            {
                "start_time": 87.0181818,
                "end_time": 87.1340909,
                "pitch": 60,
                "velocity": 51,
                "duration": 0.1159091,
                "tempo": 120.0
            },
            {
                "start_time": 87.1340909,
                "end_time": 87.2522727,
                "pitch": 62,
                "velocity": 64,
                "duration": 0.1181818,
                "tempo": 120.0
            },
            {
                "start_time": 87.2522727,
                "end_time": 87.3681818,
                "pitch": 67,
                "velocity": 64,
                "duration": 0.1159091,
                "tempo": 120.0
            },
            {
                "start_time": 87.3681818,
                "end_time": 87.4840909,
                "pitch": 60,
                "velocity": 80,
                "duration": 0.1159091,
                "tempo": 120.0
            },
            {
                "start_time": 87.4840909,
                "end_time": 87.6159091,
                "pitch": 62,
                "velocity": 80,
                "duration": 0.1318182,
                "tempo": 120.0
            },
            {
                "start_time": 87.6159091,
                "end_time": 87.7318182,
                "pitch": 65,
                "velocity": 101,
                "duration": 0.1159091,
                "tempo": 120.0
            },
            {
                "start_time": 87.7318182,
                "end_time": 87.8454545,
                "pitch": 60,
                "velocity": 101,
                "duration": 0.1136364,
                "tempo": 120.0
            },
            {
                "start_time": 87.8454545,
                "end_time": 87.9613636,
                "pitch": 62,
                "velocity": 101,
                "duration": 0.1159091,
                "tempo": 120.0
            },
            {
                "start_time": 87.9613636,
                "end_time": 88.0772727,
                "pitch": 67,
                "velocity": 101,
                "duration": 0.1159091,
                "tempo": 120.0
            },
            {
                "start_time": 88.0772727,
                "end_time": 88.2136364,
                "pitch": 60,
                "velocity": 101,
                "duration": 0.1363636,
                "tempo": 120.0
            },
            {
                "start_time": 88.2136364,
                "end_time": 88.3295455,
                "pitch": 62,
                "velocity": 101,
                "duration": 0.1159091,
                "tempo": 120.0
            },
            {
                "start_time": 88.3295455,
                "end_time": 88.45,
                "pitch": 65,
                "velocity": 101,
                "duration": 0.1204545,
                "tempo": 120.0
            },
            {
                "start_time": 88.45,
                "end_time": 88.5681818,
                "pitch": 60,
                "velocity": 101,
                "duration": 0.1181818,
                "tempo": 120.0
            },
            {
                "start_time": 88.5681818,
                "end_time": 88.6886364,
                "pitch": 62,
                "velocity": 101,
                "duration": 0.1204545,
                "tempo": 120.0
            },
            {
                "start_time": 88.6886364,
                "end_time": 88.825,
                "pitch": 67,
                "velocity": 101,
                "duration": 0.1363636,
                "tempo": 120.0
            },
            {
                "start_time": 88.825,
                "end_time": 88.9454545,
                "pitch": 60,
                "velocity": 101,
                "duration": 0.1204545,
                "tempo": 120.0
            },
            {
                "start_time": 88.9454545,
                "end_time": 89.0613636,
                "pitch": 62,
                "velocity": 101,
                "duration": 0.1159091,
                "tempo": 120.0
            },
            {
                "start_time": 89.0613636,
                "end_time": 89.1818182,
                "pitch": 65,
                "velocity": 101,
                "duration": 0.1204545,
                "tempo": 120.0
            },
            {
                "start_time": 89.1818182,
                "end_time": 89.2977273,
                "pitch": 60,
                "velocity": 101,
                "duration": 0.1159091,
                "tempo": 120.0
            },
            {
                "start_time": 89.2977273,
                "end_time": 89.4318182,
                "pitch": 62,
                "velocity": 101,
                "duration": 0.1340909,
                "tempo": 120.0
            },
            {
                "start_time": 89.4340909,
                "end_time": 89.55,
                "pitch": 67,
                "velocity": 101,
                "duration": 0.1159091,
                "tempo": 120.0
            },
            {
                "start_time": 89.5522727,
                "end_time": 89.6727273,
                "pitch": 60,
                "velocity": 101,
                "duration": 0.1204545,
                "tempo": 120.0
            },
            {
                "start_time": 89.6727273,
                "end_time": 89.7909091,
                "pitch": 62,
                "velocity": 101,
                "duration": 0.1181818,
                "tempo": 120.0
            },
            {
                "start_time": 89.7909091,
                "end_time": 89.9113636,
                "pitch": 65,
                "velocity": 101,
                "duration": 0.1204545,
                "tempo": 120.0
            },
            {
                "start_time": 89.9113636,
                "end_time": 90.0386364,
                "pitch": 60,
                "velocity": 101,
                "duration": 0.1272727,
                "tempo": 120.0
            },
            {
                "start_time": 90.0386364,
                "end_time": 90.1522727,
                "pitch": 62,
                "velocity": 80,
                "duration": 0.1136364,
                "tempo": 120.0
            },
            {
                "start_time": 90.1522727,
                "end_time": 90.2636364,
                "pitch": 67,
                "velocity": 80,
                "duration": 0.1113636,
                "tempo": 120.0
            },
            {
                "start_time": 90.2636364,
                "end_time": 90.375,
                "pitch": 60,
                "velocity": 64,
                "duration": 0.1113636,
                "tempo": 120.0
            },
            {
                "start_time": 90.3772727,
                "end_time": 90.4954545,
                "pitch": 62,
                "velocity": 64,
                "duration": 0.1181818,
                "tempo": 120.0
            },
            {
                "start_time": 90.4954545,
                "end_time": 90.6340909,
                "pitch": 65,
                "velocity": 51,
                "duration": 0.1386364,
                "tempo": 120.0
            },
            {
                "start_time": 90.6340909,
                "end_time": 90.7522727,
                "pitch": 60,
                "velocity": 51,
                "duration": 0.1181818,
                "tempo": 120.0
            },
            {
                "start_time": 90.7522727,
                "end_time": 90.8727273,
                "pitch": 62,
                "velocity": 40,
                "duration": 0.1204545,
                "tempo": 120.0
            },
            {
                "start_time": 90.8727273,
                "end_time": 90.9886364,
                "pitch": 67,
                "velocity": 40,
                "duration": 0.1159091,
                "tempo": 120.0
            },
            {
                "start_time": 90.9886364,
                "end_time": 91.1068182,
                "pitch": 60,
                "velocity": 32,
                "duration": 0.1181818,
                "tempo": 120.0
            },
            {
                "start_time": 91.1090909,
                "end_time": 91.2409091,
                "pitch": 62,
                "velocity": 32,
                "duration": 0.1318182,
                "tempo": 120.0
            },
            {
                "start_time": 91.2409091,
                "end_time": 91.3590909,
                "pitch": 65,
                "velocity": 25,
                "duration": 0.1181818,
                "tempo": 120.0
            },
            {
                "start_time": 91.3590909,
                "end_time": 91.4772727,
                "pitch": 60,
                "velocity": 25,
                "duration": 0.1181818,
                "tempo": 120.0
            },
            {
                "start_time": 91.4772727,
                "end_time": 91.5954545,
                "pitch": 62,
                "velocity": 25,
                "duration": 0.1181818,
                "tempo": 120.0
            },
            {
                "start_time": 91.5954545,
                "end_time": 91.7113636,
                "pitch": 67,
                "velocity": 25,
                "duration": 0.1159091,
                "tempo": 120.0
            },
            {
                "start_time": 91.7113636,
                "end_time": 91.8477273,
                "pitch": 60,
                "velocity": 20,
                "duration": 0.1363636,
                "tempo": 120.0
            },
            {
                "start_time": 91.8477273,
                "end_time": 91.9659091,
                "pitch": 62,
                "velocity": 20,
                "duration": 0.1181818,
                "tempo": 120.0
            },
            {
                "start_time": 91.9659091,
                "end_time": 92.0886364,
                "pitch": 65,
                "velocity": 20,
                "duration": 0.1227273,
                "tempo": 120.0
            },
            {
                "start_time": 92.0886364,
                "end_time": 92.2068182,
                "pitch": 60,
                "velocity": 20,
                "duration": 0.1181818,
                "tempo": 120.0
            },
            {
                "start_time": 92.2068182,
                "end_time": 92.3272727,
                "pitch": 62,
                "velocity": 20,
                "duration": 0.1204545,
                "tempo": 120.0
            },
            {
                "start_time": 92.3272727,
                "end_time": 92.4568182,
                "pitch": 67,
                "velocity": 20,
                "duration": 0.1295455,
                "tempo": 120.0
            },
            {
                "start_time": 92.4568182,
                "end_time": 92.5727273,
                "pitch": 60,
                "velocity": 20,
                "duration": 0.1159091,
                "tempo": 120.0
            },
            {
                "start_time": 92.5727273,
                "end_time": 92.6886364,
                "pitch": 62,
                "velocity": 20,
                "duration": 0.1159091,
                "tempo": 120.0
            },
            {
                "start_time": 92.6886364,
                "end_time": 92.8045455,
                "pitch": 65,
                "velocity": 20,
                "duration": 0.1159091,
                "tempo": 120.0
            },
            {
                "start_time": 92.8045455,
                "end_time": 92.9204545,
                "pitch": 65,
                "velocity": 16,
                "duration": 0.1159091,
                "tempo": 120.0
            },
            {
                "start_time": 92.9204545,
                "end_time": 93.0590909,
                "pitch": 58,
                "velocity": 16,
                "duration": 0.1386364,
                "tempo": 120.0
            },
            {
                "start_time": 93.0590909,
                "end_time": 93.1772727,
                "pitch": 60,
                "velocity": 16,
                "duration": 0.1181818,
                "tempo": 120.0
            },
            {
                "start_time": 93.1772727,
                "end_time": 93.2977273,
                "pitch": 63,
                "velocity": 16,
                "duration": 0.1204545,
                "tempo": 120.0
            },
            {
                "start_time": 93.2977273,
                "end_time": 93.4136364,
                "pitch": 58,
                "velocity": 16,
                "duration": 0.1159091,
                "tempo": 120.0
            },
            {
                "start_time": 93.4136364,
                "end_time": 93.5295455,
                "pitch": 60,
                "velocity": 20,
                "duration": 0.1159091,
                "tempo": 120.0
            },
            {
                "start_time": 93.5295455,
                "end_time": 93.6590909,
                "pitch": 65,
                "velocity": 20,
                "duration": 0.1295455,
                "tempo": 120.0
            },
            {
                "start_time": 93.6590909,
                "end_time": 93.775,
                "pitch": 58,
                "velocity": 20,
                "duration": 0.1159091,
                "tempo": 120.0
            },
            {
                "start_time": 93.775,
                "end_time": 93.8931818,
                "pitch": 60,
                "velocity": 20,
                "duration": 0.1181818,
                "tempo": 120.0
            },
            {
                "start_time": 93.8931818,
                "end_time": 94.0136364,
                "pitch": 63,
                "velocity": 25,
                "duration": 0.1204545,
                "tempo": 120.0
            },
            {
                "start_time": 94.0136364,
                "end_time": 94.1340909,
                "pitch": 58,
                "velocity": 25,
                "duration": 0.1204545,
                "tempo": 120.0
            },
            {
                "start_time": 94.1340909,
                "end_time": 94.2704545,
                "pitch": 60,
                "velocity": 32,
                "duration": 0.1363636,
                "tempo": 120.0
            },
            {
                "start_time": 94.2704545,
                "end_time": 94.3863636,
                "pitch": 65,
                "velocity": 32,
                "duration": 0.1159091,
                "tempo": 120.0
            },
            {
                "start_time": 94.3886364,
                "end_time": 94.5068182,
                "pitch": 58,
                "velocity": 40,
                "duration": 0.1181818,
                "tempo": 120.0
            },
            {
                "start_time": 94.5068182,
                "end_time": 94.625,
                "pitch": 60,
                "velocity": 40,
                "duration": 0.1181818,
                "tempo": 120.0
            },
            {
                "start_time": 94.625,
                "end_time": 94.7409091,
                "pitch": 63,
                "velocity": 51,
                "duration": 0.1159091,
                "tempo": 120.0
            },
            {
                "start_time": 94.7409091,
                "end_time": 94.8727273,
                "pitch": 58,
                "velocity": 51,
                "duration": 0.1318182,
                "tempo": 120.0
            },
            {
                "start_time": 94.8727273,
                "end_time": 94.9886364,
                "pitch": 60,
                "velocity": 64,
                "duration": 0.1159091,
                "tempo": 120.0
            },
            {
                "start_time": 94.9886364,
                "end_time": 95.1022727,
                "pitch": 65,
                "velocity": 64,
                "duration": 0.1136364,
                "tempo": 120.0
            },
            {
                "start_time": 95.1022727,
                "end_time": 95.2159091,
                "pitch": 58,
                "velocity": 80,
                "duration": 0.1136364,
                "tempo": 120.0
            },
            {
                "start_time": 95.2181818,
                "end_time": 95.3340909,
                "pitch": 60,
                "velocity": 80,
                "duration": 0.1159091,
                "tempo": 120.0
            },
            {
                "start_time": 95.3340909,
                "end_time": 95.4681818,
                "pitch": 63,
                "velocity": 101,
                "duration": 0.1340909,
                "tempo": 120.0
            },
            {
                "start_time": 95.4704545,
                "end_time": 95.5863636,
                "pitch": 58,
                "velocity": 101,
                "duration": 0.1159091,
                "tempo": 120.0
            },
            {
                "start_time": 95.5863636,
                "end_time": 95.7068182,
                "pitch": 60,
                "velocity": 101,
                "duration": 0.1204545,
                "tempo": 120.0
            },
            {
                "start_time": 95.7068182,
                "end_time": 95.8227273,
                "pitch": 65,
                "velocity": 101,
                "duration": 0.1159091,
                "tempo": 120.0
            },
            {
                "start_time": 95.8227273,
                "end_time": 95.9454545,
                "pitch": 58,
                "velocity": 101,
                "duration": 0.1227273,
                "tempo": 120.0
            },
            {
                "start_time": 95.9454545,
                "end_time": 96.0818182,
                "pitch": 60,
                "velocity": 101,
                "duration": 0.1363636,
                "tempo": 120.0
            },
            {
                "start_time": 96.0818182,
                "end_time": 96.2,
                "pitch": 63,
                "velocity": 101,
                "duration": 0.1181818,
                "tempo": 120.0
            },
            {
                "start_time": 96.2,
                "end_time": 96.3181818,
                "pitch": 58,
                "velocity": 101,
                "duration": 0.1181818,
                "tempo": 120.0
            },
            {
                "start_time": 96.3181818,
                "end_time": 96.4363636,
                "pitch": 60,
                "velocity": 101,
                "duration": 0.1181818,
                "tempo": 120.0
            },
            {
                "start_time": 96.4363636,
                "end_time": 96.5545455,
                "pitch": 65,
                "velocity": 101,
                "duration": 0.1181818,
                "tempo": 120.0
            },
            {
                "start_time": 96.5545455,
                "end_time": 96.6886364,
                "pitch": 58,
                "velocity": 101,
                "duration": 0.1340909,
                "tempo": 120.0
            },
            {
                "start_time": 96.6886364,
                "end_time": 96.8045455,
                "pitch": 60,
                "velocity": 101,
                "duration": 0.1159091,
                "tempo": 120.0
            },
            {
                "start_time": 96.8045455,
                "end_time": 96.9227273,
                "pitch": 63,
                "velocity": 101,
                "duration": 0.1181818,
                "tempo": 120.0
            },
            {
                "start_time": 96.9227273,
                "end_time": 97.0386364,
                "pitch": 58,
                "velocity": 101,
                "duration": 0.1159091,
                "tempo": 120.0
            },
            {
                "start_time": 97.0386364,
                "end_time": 97.1568182,
                "pitch": 60,
                "velocity": 101,
                "duration": 0.1181818,
                "tempo": 120.0
            },
            {
                "start_time": 97.1568182,
                "end_time": 97.2863636,
                "pitch": 65,
                "velocity": 101,
                "duration": 0.1295455,
                "tempo": 120.0
            },
            {
                "start_time": 97.2863636,
                "end_time": 97.4022727,
                "pitch": 58,
                "velocity": 101,
                "duration": 0.1159091,
                "tempo": 120.0
            },
            {
                "start_time": 97.4022727,
                "end_time": 97.5159091,
                "pitch": 60,
                "velocity": 101,
                "duration": 0.1136364,
                "tempo": 120.0
            },
            {
                "start_time": 97.5159091,
                "end_time": 97.6318182,
                "pitch": 63,
                "velocity": 101,
                "duration": 0.1159091,
                "tempo": 120.0
            },
            {
                "start_time": 97.6318182,
                "end_time": 97.7522727,
                "pitch": 58,
                "velocity": 101,
                "duration": 0.1204545,
                "tempo": 120.0
            },
            {
                "start_time": 97.7522727,
                "end_time": 97.8886364,
                "pitch": 60,
                "velocity": 80,
                "duration": 0.1363636,
                "tempo": 120.0
            },
            {
                "start_time": 97.8886364,
                "end_time": 98.0090909,
                "pitch": 65,
                "velocity": 80,
                "duration": 0.1204545,
                "tempo": 120.0
            },
            {
                "start_time": 98.0090909,
                "end_time": 98.1272727,
                "pitch": 58,
                "velocity": 64,
                "duration": 0.1181818,
                "tempo": 120.0
            },
            {
                "start_time": 98.1272727,
                "end_time": 98.2454545,
                "pitch": 60,
                "velocity": 64,
                "duration": 0.1181818,
                "tempo": 120.0
            },
            {
                "start_time": 98.2454545,
                "end_time": 98.3613636,
                "pitch": 63,
                "velocity": 51,
                "duration": 0.1159091,
                "tempo": 120.0
            },
            {
                "start_time": 98.3613636,
                "end_time": 98.4954545,
                "pitch": 58,
                "velocity": 51,
                "duration": 0.1340909,
                "tempo": 120.0
            },
            {
                "start_time": 98.4954545,
                "end_time": 98.6113636,
                "pitch": 60,
                "velocity": 40,
                "duration": 0.1159091,
                "tempo": 120.0
            },
            {
                "start_time": 98.6113636,
                "end_time": 98.7295455,
                "pitch": 65,
                "velocity": 40,
                "duration": 0.1181818,
                "tempo": 120.0
            },
            {
                "start_time": 98.7295455,
                "end_time": 98.8477273,
                "pitch": 58,
                "velocity": 32,
                "duration": 0.1181818,
                "tempo": 120.0
            },
            {
                "start_time": 98.8477273,
                "end_time": 98.9659091,
                "pitch": 60,
                "velocity": 32,
                "duration": 0.1181818,
                "tempo": 120.0
            },
            {
                "start_time": 98.9659091,
                "end_time": 99.1,
                "pitch": 63,
                "velocity": 25,
                "duration": 0.1340909,
                "tempo": 120.0
            },
            {
                "start_time": 99.1,
                "end_time": 99.2181818,
                "pitch": 58,
                "velocity": 25,
                "duration": 0.1181818,
                "tempo": 120.0
            },
            {
                "start_time": 99.2181818,
                "end_time": 99.3386364,
                "pitch": 60,
                "velocity": 25,
                "duration": 0.1204545,
                "tempo": 120.0
            },
            {
                "start_time": 99.3386364,
                "end_time": 99.4568182,
                "pitch": 65,
                "velocity": 25,
                "duration": 0.1181818,
                "tempo": 120.0
            },
            {
                "start_time": 99.4590909,
                "end_time": 99.5795455,
                "pitch": 58,
                "velocity": 20,
                "duration": 0.1204545,
                "tempo": 120.0
            },
            {
                "start_time": 99.5795455,
                "end_time": 99.7090909,
                "pitch": 60,
                "velocity": 20,
                "duration": 0.1295455,
                "tempo": 120.0
            },
            {
                "start_time": 99.7090909,
                "end_time": 99.825,
                "pitch": 63,
                "velocity": 20,
                "duration": 0.1159091,
                "tempo": 120.0
            },
            {
                "start_time": 99.825,
                "end_time": 99.9386364,
                "pitch": 58,
                "velocity": 20,
                "duration": 0.1136364,
                "tempo": 120.0
            },
            {
                "start_time": 99.9409091,
                "end_time": 100.0545455,
                "pitch": 60,
                "velocity": 20,
                "duration": 0.1136364,
                "tempo": 120.0
            },
            {
                "start_time": 100.0545455,
                "end_time": 100.1704545,
                "pitch": 65,
                "velocity": 20,
                "duration": 0.1159091,
                "tempo": 120.0
            },
            {
                "start_time": 100.1704545,
                "end_time": 100.3068182,
                "pitch": 58,
                "velocity": 20,
                "duration": 0.1363636,
                "tempo": 120.0
            },
            {
                "start_time": 100.3068182,
                "end_time": 100.4227273,
                "pitch": 60,
                "velocity": 20,
                "duration": 0.1159091,
                "tempo": 120.0
            },
            {
                "start_time": 100.4227273,
                "end_time": 100.5386364,
                "pitch": 63,
                "velocity": 20,
                "duration": 0.1159091,
                "tempo": 120.0
            },
            {
                "start_time": 100.5386364,
                "end_time": 100.6568182,
                "pitch": 65,
                "velocity": 16,
                "duration": 0.1181818,
                "tempo": 120.0
            },
            {
                "start_time": 100.6568182,
                "end_time": 100.775,
                "pitch": 58,
                "velocity": 16,
                "duration": 0.1181818,
                "tempo": 120.0
            },
            {
                "start_time": 100.775,
                "end_time": 100.9090909,
                "pitch": 60,
                "velocity": 16,
                "duration": 0.1340909,
                "tempo": 120.0
            },
            {
                "start_time": 100.9090909,
                "end_time": 101.0272727,
                "pitch": 63,
                "velocity": 16,
                "duration": 0.1181818,
                "tempo": 120.0
            },
            {
                "start_time": 101.0272727,
                "end_time": 101.1454545,
                "pitch": 58,
                "velocity": 16,
                "duration": 0.1181818,
                "tempo": 120.0
            },
            {
                "start_time": 101.1454545,
                "end_time": 101.2659091,
                "pitch": 60,
                "velocity": 20,
                "duration": 0.1204545,
                "tempo": 120.0
            },
            {
                "start_time": 101.2659091,
                "end_time": 101.3840909,
                "pitch": 65,
                "velocity": 20,
                "duration": 0.1181818,
                "tempo": 120.0
            },
            {
                "start_time": 101.3840909,
                "end_time": 101.5227273,
                "pitch": 58,
                "velocity": 20,
                "duration": 0.1386364,
                "tempo": 120.0
            },
            {
                "start_time": 101.5227273,
                "end_time": 101.6386364,
                "pitch": 60,
                "velocity": 20,
                "duration": 0.1159091,
                "tempo": 120.0
            },
            {
                "start_time": 101.6409091,
                "end_time": 101.7590909,
                "pitch": 63,
                "velocity": 25,
                "duration": 0.1181818,
                "tempo": 120.0
            },
            {
                "start_time": 101.7590909,
                "end_time": 101.875,
                "pitch": 58,
                "velocity": 25,
                "duration": 0.1159091,
                "tempo": 120.0
            },
            {
                "start_time": 101.875,
                "end_time": 101.9931818,
                "pitch": 60,
                "velocity": 32,
                "duration": 0.1181818,
                "tempo": 120.0
            },
            {
                "start_time": 101.9931818,
                "end_time": 102.125,
                "pitch": 65,
                "velocity": 32,
                "duration": 0.1318182,
                "tempo": 120.0
            },
            {
                "start_time": 102.125,
                "end_time": 102.2386364,
                "pitch": 58,
                "velocity": 40,
                "duration": 0.1136364,
                "tempo": 120.0
            },
            {
                "start_time": 102.2409091,
                "end_time": 102.3545455,
                "pitch": 60,
                "velocity": 40,
                "duration": 0.1136364,
                "tempo": 120.0
            },
            {
                "start_time": 102.3545455,
                "end_time": 102.4704545,
                "pitch": 63,
                "velocity": 51,
                "duration": 0.1159091,
                "tempo": 120.0
            },
            {
                "start_time": 102.4704545,
                "end_time": 102.5863636,
                "pitch": 58,
                "velocity": 51,
                "duration": 0.1159091,
                "tempo": 120.0
            },
            {
                "start_time": 102.5863636,
                "end_time": 102.7227273,
                "pitch": 60,
                "velocity": 64,
                "duration": 0.1363636,
                "tempo": 120.0
            },
            {
                "start_time": 102.7227273,
                "end_time": 102.8386364,
                "pitch": 65,
                "velocity": 64,
                "duration": 0.1159091,
                "tempo": 120.0
            },
            {
                "start_time": 102.8386364,
                "end_time": 102.9568182,
                "pitch": 58,
                "velocity": 80,
                "duration": 0.1181818,
                "tempo": 120.0
            },
            {
                "start_time": 102.9568182,
                "end_time": 103.075,
                "pitch": 60,
                "velocity": 80,
                "duration": 0.1181818,
                "tempo": 120.0
            },
            {
                "start_time": 103.075,
                "end_time": 103.1931818,
                "pitch": 63,
                "velocity": 101,
                "duration": 0.1181818,
                "tempo": 120.0
            },
            {
                "start_time": 103.1931818,
                "end_time": 103.3272727,
                "pitch": 58,
                "velocity": 101,
                "duration": 0.1340909,
                "tempo": 120.0
            },
            {
                "start_time": 103.3272727,
                "end_time": 103.4454545,
                "pitch": 60,
                "velocity": 101,
                "duration": 0.1181818,
                "tempo": 120.0
            },
            {
                "start_time": 103.4454545,
                "end_time": 103.5636364,
                "pitch": 65,
                "velocity": 101,
                "duration": 0.1181818,
                "tempo": 120.0
            },
            {
                "start_time": 103.5636364,
                "end_time": 103.6840909,
                "pitch": 58,
                "velocity": 101,
                "duration": 0.1204545,
                "tempo": 120.0
            },
            {
                "start_time": 103.6863636,
                "end_time": 103.8022727,
                "pitch": 60,
                "velocity": 101,
                "duration": 0.1159091,
                "tempo": 120.0
            },
            {
                "start_time": 103.8022727,
                "end_time": 103.9409091,
                "pitch": 63,
                "velocity": 101,
                "duration": 0.1386364,
                "tempo": 120.0
            },
            {
                "start_time": 103.9409091,
                "end_time": 104.0590909,
                "pitch": 58,
                "velocity": 101,
                "duration": 0.1181818,
                "tempo": 120.0
            },
            {
                "start_time": 104.0590909,
                "end_time": 104.1772727,
                "pitch": 60,
                "velocity": 101,
                "duration": 0.1181818,
                "tempo": 120.0
            },
            {
                "start_time": 104.1772727,
                "end_time": 104.2954545,
                "pitch": 65,
                "velocity": 101,
                "duration": 0.1181818,
                "tempo": 120.0
            },
            {
                "start_time": 104.2954545,
                "end_time": 104.4113636,
                "pitch": 58,
                "velocity": 101,
                "duration": 0.1159091,
                "tempo": 120.0
            },
            {
                "start_time": 104.4113636,
                "end_time": 104.5431818,
                "pitch": 60,
                "velocity": 101,
                "duration": 0.1318182,
                "tempo": 120.0
            },
            {
                "start_time": 104.5431818,
                "end_time": 104.6590909,
                "pitch": 63,
                "velocity": 101,
                "duration": 0.1159091,
                "tempo": 120.0
            },
            {
                "start_time": 104.6590909,
                "end_time": 104.7727273,
                "pitch": 58,
                "velocity": 101,
                "duration": 0.1136364,
                "tempo": 120.0
            },
            {
                "start_time": 104.7727273,
                "end_time": 104.8886364,
                "pitch": 60,
                "velocity": 101,
                "duration": 0.1159091,
                "tempo": 120.0
            },
            {
                "start_time": 104.8886364,
                "end_time": 105.0068182,
                "pitch": 65,
                "velocity": 101,
                "duration": 0.1181818,
                "tempo": 120.0
            },
            {
                "start_time": 105.0068182,
                "end_time": 105.1454545,
                "pitch": 58,
                "velocity": 101,
                "duration": 0.1386364,
                "tempo": 120.0
            },
            {
                "start_time": 105.1454545,
                "end_time": 105.2636364,
                "pitch": 60,
                "velocity": 101,
                "duration": 0.1181818,
                "tempo": 120.0
            },
            {
                "start_time": 105.2636364,
                "end_time": 105.3840909,
                "pitch": 63,
                "velocity": 101,
                "duration": 0.1204545,
                "tempo": 120.0
            },
            {
                "start_time": 105.3840909,
                "end_time": 105.5022727,
                "pitch": 58,
                "velocity": 101,
                "duration": 0.1181818,
                "tempo": 120.0
            },
            {
                "start_time": 105.5022727,
                "end_time": 105.6204545,
                "pitch": 60,
                "velocity": 80,
                "duration": 0.1181818,
                "tempo": 120.0
            },
            {
                "start_time": 105.6204545,
                "end_time": 105.7545455,
                "pitch": 65,
                "velocity": 80,
                "duration": 0.1340909,
                "tempo": 120.0
            },
            {
                "start_time": 105.7545455,
                "end_time": 105.8704545,
                "pitch": 58,
                "velocity": 64,
                "duration": 0.1159091,
                "tempo": 120.0
            },
            {
                "start_time": 105.8704545,
                "end_time": 105.9886364,
                "pitch": 60,
                "velocity": 64,
                "duration": 0.1181818,
                "tempo": 120.0
            },
            {
                "start_time": 105.9886364,
                "end_time": 106.1068182,
                "pitch": 63,
                "velocity": 51,
                "duration": 0.1181818,
                "tempo": 120.0
            },
            {
                "start_time": 106.1068182,
                "end_time": 106.225,
                "pitch": 58,
                "velocity": 51,
                "duration": 0.1181818,
                "tempo": 120.0
            },
            {
                "start_time": 106.225,
                "end_time": 106.3590909,
                "pitch": 60,
                "velocity": 40,
                "duration": 0.1340909,
                "tempo": 120.0
            },
            {
                "start_time": 106.3590909,
                "end_time": 106.4772727,
                "pitch": 65,
                "velocity": 40,
                "duration": 0.1181818,
                "tempo": 120.0
            },
            {
                "start_time": 106.4772727,
                "end_time": 106.5931818,
                "pitch": 58,
                "velocity": 32,
                "duration": 0.1159091,
                "tempo": 120.0
            },
            {
                "start_time": 106.5931818,
                "end_time": 106.7090909,
                "pitch": 60,
                "velocity": 32,
                "duration": 0.1159091,
                "tempo": 120.0
            },
            {
                "start_time": 106.7090909,
                "end_time": 106.8272727,
                "pitch": 63,
                "velocity": 25,
                "duration": 0.1181818,
                "tempo": 120.0
            },
            {
                "start_time": 106.8272727,
                "end_time": 106.9568182,
                "pitch": 58,
                "velocity": 25,
                "duration": 0.1295455,
                "tempo": 120.0
            },
            {
                "start_time": 106.9568182,
                "end_time": 107.0727273,
                "pitch": 60,
                "velocity": 25,
                "duration": 0.1159091,
                "tempo": 120.0
            },
            {
                "start_time": 107.0727273,
                "end_time": 107.1886364,
                "pitch": 65,
                "velocity": 25,
                "duration": 0.1159091,
                "tempo": 120.0
            },
            {
                "start_time": 107.1886364,
                "end_time": 107.3022727,
                "pitch": 58,
                "velocity": 20,
                "duration": 0.1136364,
                "tempo": 120.0
            },
            {
                "start_time": 107.3022727,
                "end_time": 107.4227273,
                "pitch": 60,
                "velocity": 20,
                "duration": 0.1204545,
                "tempo": 120.0
            },
            {
                "start_time": 107.4227273,
                "end_time": 107.5590909,
                "pitch": 63,
                "velocity": 20,
                "duration": 0.1363636,
                "tempo": 120.0
            },
            {
                "start_time": 107.5590909,
                "end_time": 107.6772727,
                "pitch": 58,
                "velocity": 20,
                "duration": 0.1181818,
                "tempo": 120.0
            },
            {
                "start_time": 107.6795455,
                "end_time": 107.7977273,
                "pitch": 60,
                "velocity": 20,
                "duration": 0.1181818,
                "tempo": 120.0
            },
            {
                "start_time": 107.8,
                "end_time": 107.9159091,
                "pitch": 65,
                "velocity": 20,
                "duration": 0.1159091,
                "tempo": 120.0
            },
            {
                "start_time": 107.9159091,
                "end_time": 108.0340909,
                "pitch": 58,
                "velocity": 20,
                "duration": 0.1181818,
                "tempo": 120.0
            },
            {
                "start_time": 108.0340909,
                "end_time": 108.1681818,
                "pitch": 60,
                "velocity": 20,
                "duration": 0.1340909,
                "tempo": 120.0
            },
            {
                "start_time": 108.1681818,
                "end_time": 108.2886364,
                "pitch": 63,
                "velocity": 20,
                "duration": 0.1204545,
                "tempo": 120.0
            },
            {
                "start_time": 108.2886364,
                "end_time": 108.4045455,
                "pitch": 65,
                "velocity": 16,
                "duration": 0.1159091,
                "tempo": 120.0
            },
            {
                "start_time": 108.4045455,
                "end_time": 108.525,
                "pitch": 58,
                "velocity": 16,
                "duration": 0.1204545,
                "tempo": 120.0
            },
            {
                "start_time": 108.525,
                "end_time": 108.6454545,
                "pitch": 60,
                "velocity": 16,
                "duration": 0.1204545,
                "tempo": 120.0
            },
            {
                "start_time": 108.6454545,
                "end_time": 108.7818182,
                "pitch": 63,
                "velocity": 16,
                "duration": 0.1363636,
                "tempo": 120.0
            },
            {
                "start_time": 108.7818182,
                "end_time": 108.9,
                "pitch": 58,
                "velocity": 16,
                "duration": 0.1181818,
                "tempo": 120.0
            },
            {
                "start_time": 108.9,
                "end_time": 109.0181818,
                "pitch": 60,
                "velocity": 20,
                "duration": 0.1181818,
                "tempo": 120.0
            },
            {
                "start_time": 109.0181818,
                "end_time": 109.1340909,
                "pitch": 65,
                "velocity": 20,
                "duration": 0.1159091,
                "tempo": 120.0
            },
            {
                "start_time": 109.1340909,
                "end_time": 109.2522727,
                "pitch": 58,
                "velocity": 20,
                "duration": 0.1181818,
                "tempo": 120.0
            },
            {
                "start_time": 109.2522727,
                "end_time": 109.3840909,
                "pitch": 60,
                "velocity": 20,
                "duration": 0.1318182,
                "tempo": 120.0
            },
            {
                "start_time": 109.3840909,
                "end_time": 109.5,
                "pitch": 63,
                "velocity": 25,
                "duration": 0.1159091,
                "tempo": 120.0
            },
            {
                "start_time": 109.5,
                "end_time": 109.6136364,
                "pitch": 58,
                "velocity": 25,
                "duration": 0.1136364,
                "tempo": 120.0
            },
            {
                "start_time": 109.6159091,
                "end_time": 109.7295455,
                "pitch": 60,
                "velocity": 32,
                "duration": 0.1136364,
                "tempo": 120.0
            },
            {
                "start_time": 109.7295455,
                "end_time": 109.8454545,
                "pitch": 65,
                "velocity": 32,
                "duration": 0.1159091,
                "tempo": 120.0
            },
            {
                "start_time": 109.8454545,
                "end_time": 109.9795455,
                "pitch": 58,
                "velocity": 40,
                "duration": 0.1340909,
                "tempo": 120.0
            },
            {
                "start_time": 109.9795455,
                "end_time": 110.0977273,
                "pitch": 60,
                "velocity": 40,
                "duration": 0.1181818,
                "tempo": 120.0
            },
            {
                "start_time": 110.0977273,
                "end_time": 110.2136364,
                "pitch": 63,
                "velocity": 51,
                "duration": 0.1159091,
                "tempo": 120.0
            },
            {
                "start_time": 110.2136364,
                "end_time": 110.3318182,
                "pitch": 58,
                "velocity": 51,
                "duration": 0.1181818,
                "tempo": 120.0
            },
            {
                "start_time": 110.3318182,
                "end_time": 110.45,
                "pitch": 60,
                "velocity": 64,
                "duration": 0.1181818,
                "tempo": 120.0
            },
            {
                "start_time": 110.45,
                "end_time": 110.5818182,
                "pitch": 65,
                "velocity": 64,
                "duration": 0.1318182,
                "tempo": 120.0
            },
            {
                "start_time": 110.5840909,
                "end_time": 110.7,
                "pitch": 58,
                "velocity": 80,
                "duration": 0.1159091,
                "tempo": 120.0
            },
            {
                "start_time": 110.7,
                "end_time": 110.8204545,
                "pitch": 60,
                "velocity": 80,
                "duration": 0.1204545,
                "tempo": 120.0
            },
            {
                "start_time": 110.8204545,
                "end_time": 110.9409091,
                "pitch": 63,
                "velocity": 101,
                "duration": 0.1204545,
                "tempo": 120.0
            },
            {
                "start_time": 110.9409091,
                "end_time": 111.0590909,
                "pitch": 58,
                "velocity": 101,
                "duration": 0.1181818,
                "tempo": 120.0
            },
            {
                "start_time": 111.0590909,
                "end_time": 111.1977273,
                "pitch": 60,
                "velocity": 101,
                "duration": 0.1386364,
                "tempo": 120.0
            },
            {
                "start_time": 111.1977273,
                "end_time": 111.3136364,
                "pitch": 65,
                "velocity": 101,
                "duration": 0.1159091,
                "tempo": 120.0
            },
            {
                "start_time": 111.3136364,
                "end_time": 111.4340909,
                "pitch": 58,
                "velocity": 101,
                "duration": 0.1204545,
                "tempo": 120.0
            },
            {
                "start_time": 111.4340909,
                "end_time": 111.55,
                "pitch": 60,
                "velocity": 101,
                "duration": 0.1159091,
                "tempo": 120.0
            },
            {
                "start_time": 111.55,
                "end_time": 111.6681818,
                "pitch": 63,
                "velocity": 101,
                "duration": 0.1181818,
                "tempo": 120.0
            },
            {
                "start_time": 111.6681818,
                "end_time": 111.8,
                "pitch": 58,
                "velocity": 101,
                "duration": 0.1318182,
                "tempo": 120.0
            },
            {
                "start_time": 111.8,
                "end_time": 111.9159091,
                "pitch": 60,
                "velocity": 101,
                "duration": 0.1159091,
                "tempo": 120.0
            },
            {
                "start_time": 111.9159091,
                "end_time": 112.0295455,
                "pitch": 65,
                "velocity": 101,
                "duration": 0.1136364,
                "tempo": 120.0
            },
            {
                "start_time": 112.0295455,
                "end_time": 112.1431818,
                "pitch": 58,
                "velocity": 101,
                "duration": 0.1136364,
                "tempo": 120.0
            },
            {
                "start_time": 112.1454545,
                "end_time": 112.2613636,
                "pitch": 60,
                "velocity": 101,
                "duration": 0.1159091,
                "tempo": 120.0
            },
            {
                "start_time": 112.2613636,
                "end_time": 112.3977273,
                "pitch": 63,
                "velocity": 101,
                "duration": 0.1363636,
                "tempo": 120.0
            },
            {
                "start_time": 112.3977273,
                "end_time": 112.5136364,
                "pitch": 58,
                "velocity": 101,
                "duration": 0.1159091,
                "tempo": 120.0
            },
            {
                "start_time": 112.5136364,
                "end_time": 112.6318182,
                "pitch": 60,
                "velocity": 101,
                "duration": 0.1181818,
                "tempo": 120.0
            },
            {
                "start_time": 112.6318182,
                "end_time": 112.7522727,
                "pitch": 65,
                "velocity": 101,
                "duration": 0.1204545,
                "tempo": 120.0
            },
            {
                "start_time": 112.7522727,
                "end_time": 112.8727273,
                "pitch": 58,
                "velocity": 101,
                "duration": 0.1204545,
                "tempo": 120.0
            },
            {
                "start_time": 112.8727273,
                "end_time": 113.0068182,
                "pitch": 60,
                "velocity": 101,
                "duration": 0.1340909,
                "tempo": 120.0
            },
            {
                "start_time": 113.0068182,
                "end_time": 113.1272727,
                "pitch": 63,
                "velocity": 101,
                "duration": 0.1204545,
                "tempo": 120.0
            },
            {
                "start_time": 113.1272727,
                "end_time": 113.2454545,
                "pitch": 58,
                "velocity": 101,
                "duration": 0.1181818,
                "tempo": 120.0
            },
            {
                "start_time": 113.2454545,
                "end_time": 113.3636364,
                "pitch": 60,
                "velocity": 80,
                "duration": 0.1181818,
                "tempo": 120.0
            },
            {
                "start_time": 113.3636364,
                "end_time": 113.4818182,
                "pitch": 65,
                "velocity": 80,
                "duration": 0.1181818,
                "tempo": 120.0
            },
            {
                "start_time": 113.4818182,
                "end_time": 113.6159091,
                "pitch": 58,
                "velocity": 64,
                "duration": 0.1340909,
                "tempo": 120.0
            },
            {
                "start_time": 113.6159091,
                "end_time": 113.7363636,
                "pitch": 60,
                "velocity": 64,
                "duration": 0.1204545,
                "tempo": 120.0
            },
            {
                "start_time": 113.7363636,
                "end_time": 113.8545455,
                "pitch": 63,
                "velocity": 51,
                "duration": 0.1181818,
                "tempo": 120.0
            },
            {
                "start_time": 113.8545455,
                "end_time": 113.975,
                "pitch": 58,
                "velocity": 51,
                "duration": 0.1204545,
                "tempo": 120.0
            },
            {
                "start_time": 113.975,
                "end_time": 114.0931818,
                "pitch": 60,
                "velocity": 40,
                "duration": 0.1181818,
                "tempo": 120.0
            },
            {
                "start_time": 114.0954545,
                "end_time": 114.2227273,
                "pitch": 65,
                "velocity": 40,
                "duration": 0.1272727,
                "tempo": 120.0
            },
            {
                "start_time": 114.2227273,
                "end_time": 114.3363636,
                "pitch": 58,
                "velocity": 32,
                "duration": 0.1136364,
                "tempo": 120.0
            },
            {
                "start_time": 114.3363636,
                "end_time": 114.4477273,
                "pitch": 60,
                "velocity": 32,
                "duration": 0.1113636,
                "tempo": 120.0
            },
            {
                "start_time": 114.4477273,
                "end_time": 114.5590909,
                "pitch": 63,
                "velocity": 25,
                "duration": 0.1113636,
                "tempo": 120.0
            },
            {
                "start_time": 114.5590909,
                "end_time": 114.6772727,
                "pitch": 58,
                "velocity": 25,
                "duration": 0.1181818,
                "tempo": 120.0
            },
            {
                "start_time": 114.6795455,
                "end_time": 114.8159091,
                "pitch": 60,
                "velocity": 25,
                "duration": 0.1363636,
                "tempo": 120.0
            },
            {
                "start_time": 114.8159091,
                "end_time": 114.9340909,
                "pitch": 65,
                "velocity": 25,
                "duration": 0.1181818,
                "tempo": 120.0
            },
            {
                "start_time": 114.9340909,
                "end_time": 115.0545455,
                "pitch": 58,
                "velocity": 20,
                "duration": 0.1204545,
                "tempo": 120.0
            },
            {
                "start_time": 115.0568182,
                "end_time": 115.1727273,
                "pitch": 60,
                "velocity": 20,
                "duration": 0.1159091,
                "tempo": 120.0
            },
            {
                "start_time": 115.1727273,
                "end_time": 115.2909091,
                "pitch": 63,
                "velocity": 20,
                "duration": 0.1181818,
                "tempo": 120.0
            },
            {
                "start_time": 115.2909091,
                "end_time": 115.425,
                "pitch": 58,
                "velocity": 20,
                "duration": 0.1340909,
                "tempo": 120.0
            },
            {
                "start_time": 115.425,
                "end_time": 115.5431818,
                "pitch": 60,
                "velocity": 20,
                "duration": 0.1181818,
                "tempo": 120.0
            },
            {
                "start_time": 115.5431818,
                "end_time": 115.6613636,
                "pitch": 65,
                "velocity": 20,
                "duration": 0.1181818,
                "tempo": 120.0
            },
            {
                "start_time": 115.6613636,
                "end_time": 115.7795455,
                "pitch": 58,
                "velocity": 20,
                "duration": 0.1181818,
                "tempo": 120.0
            },
            {
                "start_time": 115.7795455,
                "end_time": 115.8954545,
                "pitch": 60,
                "velocity": 20,
                "duration": 0.1159091,
                "tempo": 120.0
            },
            {
                "start_time": 115.8954545,
                "end_time": 116.0318182,
                "pitch": 63,
                "velocity": 20,
                "duration": 0.1363636,
                "tempo": 120.0
            },
            {
                "start_time": 116.0318182,
                "end_time": 116.15,
                "pitch": 65,
                "velocity": 16,
                "duration": 0.1181818,
                "tempo": 120.0
            },
            {
                "start_time": 116.15,
                "end_time": 116.2704545,
                "pitch": 58,
                "velocity": 16,
                "duration": 0.1204545,
                "tempo": 120.0
            },
            {
                "start_time": 116.2704545,
                "end_time": 116.3886364,
                "pitch": 60,
                "velocity": 16,
                "duration": 0.1181818,
                "tempo": 120.0
            },
            {
                "start_time": 116.3886364,
                "end_time": 116.5090909,
                "pitch": 63,
                "velocity": 16,
                "duration": 0.1204545,
                "tempo": 120.0
            },
            {
                "start_time": 116.5090909,
                "end_time": 116.6409091,
                "pitch": 58,
                "velocity": 16,
                "duration": 0.1318182,
                "tempo": 120.0
            },
            {
                "start_time": 116.6409091,
                "end_time": 116.7568182,
                "pitch": 60,
                "velocity": 20,
                "duration": 0.1159091,
                "tempo": 120.0
            },
            {
                "start_time": 116.7568182,
                "end_time": 116.8704545,
                "pitch": 65,
                "velocity": 20,
                "duration": 0.1136364,
                "tempo": 120.0
            },
            {
                "start_time": 116.8704545,
                "end_time": 116.9863636,
                "pitch": 58,
                "velocity": 20,
                "duration": 0.1159091,
                "tempo": 120.0
            },
            {
                "start_time": 116.9863636,
                "end_time": 117.1022727,
                "pitch": 60,
                "velocity": 20,
                "duration": 0.1159091,
                "tempo": 120.0
            },
            {
                "start_time": 117.1045455,
                "end_time": 117.2386364,
                "pitch": 63,
                "velocity": 25,
                "duration": 0.1340909,
                "tempo": 120.0
            },
            {
                "start_time": 117.2386364,
                "end_time": 117.3545455,
                "pitch": 58,
                "velocity": 25,
                "duration": 0.1159091,
                "tempo": 120.0
            },
            {
                "start_time": 117.3568182,
                "end_time": 117.4727273,
                "pitch": 60,
                "velocity": 32,
                "duration": 0.1159091,
                "tempo": 120.0
            },
            {
                "start_time": 117.4727273,
                "end_time": 117.5909091,
                "pitch": 65,
                "velocity": 32,
                "duration": 0.1181818,
                "tempo": 120.0
            },
            {
                "start_time": 117.5909091,
                "end_time": 117.7090909,
                "pitch": 58,
                "velocity": 40,
                "duration": 0.1181818,
                "tempo": 120.0
            },
            {
                "start_time": 117.7090909,
                "end_time": 117.8454545,
                "pitch": 60,
                "velocity": 40,
                "duration": 0.1363636,
                "tempo": 120.0
            },
            {
                "start_time": 117.8454545,
                "end_time": 117.9613636,
                "pitch": 63,
                "velocity": 51,
                "duration": 0.1159091,
                "tempo": 120.0
            },
            {
                "start_time": 117.9613636,
                "end_time": 118.0795455,
                "pitch": 58,
                "velocity": 51,
                "duration": 0.1181818,
                "tempo": 120.0
            },
            {
                "start_time": 118.0818182,
                "end_time": 118.2,
                "pitch": 60,
                "velocity": 64,
                "duration": 0.1181818,
                "tempo": 120.0
            },
            {
                "start_time": 118.2,
                "end_time": 118.3204545,
                "pitch": 65,
                "velocity": 64,
                "duration": 0.1204545,
                "tempo": 120.0
            },
            {
                "start_time": 118.3204545,
                "end_time": 118.4568182,
                "pitch": 58,
                "velocity": 80,
                "duration": 0.1363636,
                "tempo": 120.0
            },
            {
                "start_time": 118.4568182,
                "end_time": 118.575,
                "pitch": 60,
                "velocity": 80,
                "duration": 0.1181818,
                "tempo": 120.0
            },
            {
                "start_time": 118.575,
                "end_time": 118.6931818,
                "pitch": 63,
                "velocity": 101,
                "duration": 0.1181818,
                "tempo": 120.0
            },
            {
                "start_time": 118.6931818,
                "end_time": 118.8090909,
                "pitch": 58,
                "velocity": 101,
                "duration": 0.1159091,
                "tempo": 120.0
            },
            {
                "start_time": 118.8090909,
                "end_time": 118.9272727,
                "pitch": 60,
                "velocity": 101,
                "duration": 0.1181818,
                "tempo": 120.0
            },
            {
                "start_time": 118.9295455,
                "end_time": 119.0590909,
                "pitch": 65,
                "velocity": 101,
                "duration": 0.1295455,
                "tempo": 120.0
            },
            {
                "start_time": 119.0590909,
                "end_time": 119.175,
                "pitch": 58,
                "velocity": 101,
                "duration": 0.1159091,
                "tempo": 120.0
            },
            {
                "start_time": 119.175,
                "end_time": 119.2886364,
                "pitch": 60,
                "velocity": 101,
                "duration": 0.1136364,
                "tempo": 120.0
            },
            {
                "start_time": 119.2886364,
                "end_time": 119.4045455,
                "pitch": 63,
                "velocity": 101,
                "duration": 0.1159091,
                "tempo": 120.0
            },
            {
                "start_time": 119.4045455,
                "end_time": 119.5204545,
                "pitch": 58,
                "velocity": 101,
                "duration": 0.1159091,
                "tempo": 120.0
            },
            {
                "start_time": 119.5204545,
                "end_time": 119.6545455,
                "pitch": 60,
                "velocity": 101,
                "duration": 0.1340909,
                "tempo": 120.0
            },
            {
                "start_time": 119.6545455,
                "end_time": 119.7727273,
                "pitch": 65,
                "velocity": 101,
                "duration": 0.1181818,
                "tempo": 120.0
            },
            {
                "start_time": 119.7727273,
                "end_time": 119.8886364,
                "pitch": 58,
                "velocity": 101,
                "duration": 0.1159091,
                "tempo": 120.0
            },
            {
                "start_time": 119.8886364,
                "end_time": 120.0068182,
                "pitch": 60,
                "velocity": 101,
                "duration": 0.1181818,
                "tempo": 120.0
            },
            {
                "start_time": 120.0068182,
                "end_time": 120.1272727,
                "pitch": 63,
                "velocity": 101,
                "duration": 0.1204545,
                "tempo": 120.0
            },
            {
                "start_time": 120.1272727,
                "end_time": 120.2636364,
                "pitch": 58,
                "velocity": 101,
                "duration": 0.1363636,
                "tempo": 120.0
            },
            {
                "start_time": 120.2636364,
                "end_time": 120.3840909,
                "pitch": 60,
                "velocity": 101,
                "duration": 0.1204545,
                "tempo": 120.0
            },
            {
                "start_time": 120.3840909,
                "end_time": 120.5,
                "pitch": 65,
                "velocity": 101,
                "duration": 0.1159091,
                "tempo": 120.0
            },
            {
                "start_time": 120.5,
                "end_time": 120.6204545,
                "pitch": 58,
                "velocity": 101,
                "duration": 0.1204545,
                "tempo": 120.0
            },
            {
                "start_time": 120.6204545,
                "end_time": 120.7363636,
                "pitch": 60,
                "velocity": 101,
                "duration": 0.1159091,
                "tempo": 120.0
            },
            {
                "start_time": 120.7363636,
                "end_time": 120.8704545,
                "pitch": 63,
                "velocity": 101,
                "duration": 0.1340909,
                "tempo": 120.0
            },
            {
                "start_time": 120.8727273,
                "end_time": 120.9886364,
                "pitch": 58,
                "velocity": 101,
                "duration": 0.1159091,
                "tempo": 120.0
            },
            {
                "start_time": 120.9886364,
                "end_time": 121.1068182,
                "pitch": 60,
                "velocity": 80,
                "duration": 0.1181818,
                "tempo": 120.0
            },
            {
                "start_time": 121.1068182,
                "end_time": 121.2227273,
                "pitch": 65,
                "velocity": 80,
                "duration": 0.1159091,
                "tempo": 120.0
            },
            {
                "start_time": 121.2227273,
                "end_time": 121.3386364,
                "pitch": 58,
                "velocity": 64,
                "duration": 0.1159091,
                "tempo": 120.0
            },
            {
                "start_time": 121.3386364,
                "end_time": 121.4704545,
                "pitch": 60,
                "velocity": 64,
                "duration": 0.1318182,
                "tempo": 120.0
            },
            {
                "start_time": 121.4704545,
                "end_time": 121.5863636,
                "pitch": 63,
                "velocity": 51,
                "duration": 0.1159091,
                "tempo": 120.0
            },
            {
                "start_time": 121.5863636,
                "end_time": 121.7,
                "pitch": 58,
                "velocity": 51,
                "duration": 0.1136364,
                "tempo": 120.0
            },
            {
                "start_time": 121.7022727,
                "end_time": 121.8159091,
                "pitch": 60,
                "velocity": 40,
                "duration": 0.1136364,
                "tempo": 120.0
            },
            {
                "start_time": 121.8159091,
                "end_time": 121.9340909,
                "pitch": 65,
                "velocity": 40,
                "duration": 0.1181818,
                "tempo": 120.0
            },
            {
                "start_time": 121.9363636,
                "end_time": 122.0727273,
                "pitch": 58,
                "velocity": 32,
                "duration": 0.1363636,
                "tempo": 120.0
            },
            {
                "start_time": 122.0727273,
                "end_time": 122.1909091,
                "pitch": 60,
                "velocity": 32,
                "duration": 0.1181818,
                "tempo": 120.0
            },
            {
                "start_time": 122.1909091,
                "end_time": 122.3113636,
                "pitch": 63,
                "velocity": 25,
                "duration": 0.1204545,
                "tempo": 120.0
            },
            {
                "start_time": 122.3113636,
                "end_time": 122.4272727,
                "pitch": 58,
                "velocity": 25,
                "duration": 0.1159091,
                "tempo": 120.0
            },
            {
                "start_time": 122.4272727,
                "end_time": 122.5454545,
                "pitch": 60,
                "velocity": 25,
                "duration": 0.1181818,
                "tempo": 120.0
            },
            {
                "start_time": 122.5454545,
                "end_time": 122.6772727,
                "pitch": 65,
                "velocity": 25,
                "duration": 0.1318182,
                "tempo": 120.0
            },
            {
                "start_time": 122.6772727,
                "end_time": 122.7954545,
                "pitch": 58,
                "velocity": 20,
                "duration": 0.1181818,
                "tempo": 120.0
            },
            {
                "start_time": 122.7954545,
                "end_time": 122.9113636,
                "pitch": 60,
                "velocity": 20,
                "duration": 0.1159091,
                "tempo": 120.0
            },
            {
                "start_time": 122.9113636,
                "end_time": 123.0318182,
                "pitch": 63,
                "velocity": 20,
                "duration": 0.1204545,
                "tempo": 120.0
            },
            {
                "start_time": 123.0318182,
                "end_time": 123.1477273,
                "pitch": 58,
                "velocity": 20,
                "duration": 0.1159091,
                "tempo": 120.0
            },
            {
                "start_time": 123.1477273,
                "end_time": 123.2840909,
                "pitch": 60,
                "velocity": 20,
                "duration": 0.1363636,
                "tempo": 120.0
            },
            {
                "start_time": 123.2840909,
                "end_time": 123.4022727,
                "pitch": 65,
                "velocity": 20,
                "duration": 0.1181818,
                "tempo": 120.0
            },
            {
                "start_time": 123.4022727,
                "end_time": 123.5227273,
                "pitch": 58,
                "velocity": 20,
                "duration": 0.1204545,
                "tempo": 120.0
            },
            {
                "start_time": 123.5227273,
                "end_time": 123.6431818,
                "pitch": 60,
                "velocity": 20,
                "duration": 0.1204545,
                "tempo": 120.0
            },
            {
                "start_time": 123.6431818,
                "end_time": 123.7636364,
                "pitch": 63,
                "velocity": 20,
                "duration": 0.1204545,
                "tempo": 120.0
            },
            {
                "start_time": 123.7636364,
                "end_time": 123.8886364,
                "pitch": 67,
                "velocity": 16,
                "duration": 0.125,
                "tempo": 120.0
            },
            {
                "start_time": 123.8886364,
                "end_time": 124.0,
                "pitch": 60,
                "velocity": 16,
                "duration": 0.1113636,
                "tempo": 120.0
            },
            {
                "start_time": 124.0022727,
                "end_time": 124.1136364,
                "pitch": 62,
                "velocity": 16,
                "duration": 0.1113636,
                "tempo": 120.0
            },
            {
                "start_time": 124.1136364,
                "end_time": 124.2272727,
                "pitch": 65,
                "velocity": 16,
                "duration": 0.1136364,
                "tempo": 120.0
            },
            {
                "start_time": 124.2272727,
                "end_time": 124.3454545,
                "pitch": 60,
                "velocity": 16,
                "duration": 0.1181818,
                "tempo": 120.0
            },
            {
                "start_time": 124.3454545,
                "end_time": 124.4795455,
                "pitch": 62,
                "velocity": 20,
                "duration": 0.1340909,
                "tempo": 120.0
            },
            {
                "start_time": 124.4795455,
                "end_time": 124.5977273,
                "pitch": 67,
                "velocity": 20,
                "duration": 0.1181818,
                "tempo": 120.0
            },
            {
                "start_time": 124.5977273,
                "end_time": 124.7159091,
                "pitch": 60,
                "velocity": 20,
                "duration": 0.1181818,
                "tempo": 120.0
            },
            {
                "start_time": 124.7159091,
                "end_time": 124.8363636,
                "pitch": 62,
                "velocity": 20,
                "duration": 0.1204545,
                "tempo": 120.0
            },
            {
                "start_time": 124.8363636,
                "end_time": 124.9545455,
                "pitch": 65,
                "velocity": 25,
                "duration": 0.1181818,
                "tempo": 120.0
            },
            {
                "start_time": 124.9545455,
                "end_time": 125.0909091,
                "pitch": 60,
                "velocity": 25,
                "duration": 0.1363636,
                "tempo": 120.0
            },
            {
                "start_time": 125.0909091,
                "end_time": 125.2113636,
                "pitch": 62,
                "velocity": 32,
                "duration": 0.1204545,
                "tempo": 120.0
            },
            {
                "start_time": 125.2113636,
                "end_time": 125.3295455,
                "pitch": 67,
                "velocity": 32,
                "duration": 0.1181818,
                "tempo": 120.0
            },
            {
                "start_time": 125.3295455,
                "end_time": 125.4454545,
                "pitch": 60,
                "velocity": 40,
                "duration": 0.1159091,
                "tempo": 120.0
            },
            {
                "start_time": 125.4454545,
                "end_time": 125.5636364,
                "pitch": 62,
                "velocity": 40,
                "duration": 0.1181818,
                "tempo": 120.0
            },
            {
                "start_time": 125.5659091,
                "end_time": 125.7,
                "pitch": 65,
                "velocity": 51,
                "duration": 0.1340909,
                "tempo": 120.0
            },
            {
                "start_time": 125.7,
                "end_time": 125.8181818,
                "pitch": 60,
                "velocity": 51,
                "duration": 0.1181818,
                "tempo": 120.0
            },
            {
                "start_time": 125.8181818,
                "end_time": 125.9386364,
                "pitch": 62,
                "velocity": 64,
                "duration": 0.1204545,
                "tempo": 120.0
            },
            {
                "start_time": 125.9386364,
                "end_time": 126.0590909,
                "pitch": 67,
                "velocity": 64,
                "duration": 0.1204545,
                "tempo": 120.0
            },
            {
                "start_time": 126.0590909,
                "end_time": 126.1772727,
                "pitch": 60,
                "velocity": 80,
                "duration": 0.1181818,
                "tempo": 120.0
            },
            {
                "start_time": 126.1772727,
                "end_time": 126.3045455,
                "pitch": 62,
                "velocity": 80,
                "duration": 0.1272727,
                "tempo": 120.0
            },
            {
                "start_time": 126.3068182,
                "end_time": 126.4181818,
                "pitch": 65,
                "velocity": 101,
                "duration": 0.1113636,
                "tempo": 120.0
            },
            {
                "start_time": 126.4181818,
                "end_time": 126.5295455,
                "pitch": 60,
                "velocity": 101,
                "duration": 0.1113636,
                "tempo": 120.0
            },
            {
                "start_time": 126.5295455,
                "end_time": 126.6431818,
                "pitch": 62,
                "velocity": 101,
                "duration": 0.1136364,
                "tempo": 120.0
            },
            {
                "start_time": 126.6431818,
                "end_time": 126.7636364,
                "pitch": 67,
                "velocity": 101,
                "duration": 0.1204545,
                "tempo": 120.0
            },
            {
                "start_time": 126.7636364,
                "end_time": 126.9,
                "pitch": 60,
                "velocity": 101,
                "duration": 0.1363636,
                "tempo": 120.0
            },
            {
                "start_time": 126.9,
                "end_time": 127.0181818,
                "pitch": 62,
                "velocity": 101,
                "duration": 0.1181818,
                "tempo": 120.0
            },
            {
                "start_time": 127.0181818,
                "end_time": 127.1386364,
                "pitch": 65,
                "velocity": 101,
                "duration": 0.1204545,
                "tempo": 120.0
            },
            {
                "start_time": 127.1386364,
                "end_time": 127.2545455,
                "pitch": 60,
                "velocity": 101,
                "duration": 0.1159091,
                "tempo": 120.0
            },
            {
                "start_time": 127.2568182,
                "end_time": 127.375,
                "pitch": 62,
                "velocity": 101,
                "duration": 0.1181818,
                "tempo": 120.0
            },
            {
                "start_time": 127.375,
                "end_time": 127.5068182,
                "pitch": 67,
                "velocity": 101,
                "duration": 0.1318182,
                "tempo": 120.0
            },
            {
                "start_time": 127.5090909,
                "end_time": 127.6272727,
                "pitch": 60,
                "velocity": 101,
                "duration": 0.1181818,
                "tempo": 120.0
            },
            {
                "start_time": 127.6272727,
                "end_time": 127.7454545,
                "pitch": 62,
                "velocity": 101,
                "duration": 0.1181818,
                "tempo": 120.0
            },
            {
                "start_time": 127.7454545,
                "end_time": 127.8659091,
                "pitch": 65,
                "velocity": 101,
                "duration": 0.1204545,
                "tempo": 120.0
            },
            {
                "start_time": 127.8659091,
                "end_time": 127.9840909,
                "pitch": 60,
                "velocity": 101,
                "duration": 0.1181818,
                "tempo": 120.0
            },
            {
                "start_time": 127.9840909,
                "end_time": 128.1227273,
                "pitch": 62,
                "velocity": 101,
                "duration": 0.1386364,
                "tempo": 120.0
            },
            {
                "start_time": 128.1227273,
                "end_time": 128.2386364,
                "pitch": 67,
                "velocity": 101,
                "duration": 0.1159091,
                "tempo": 120.0
            },
            {
                "start_time": 128.2386364,
                "end_time": 128.3568182,
                "pitch": 60,
                "velocity": 101,
                "duration": 0.1181818,
                "tempo": 120.0
            },
            {
                "start_time": 128.3568182,
                "end_time": 128.475,
                "pitch": 62,
                "velocity": 101,
                "duration": 0.1181818,
                "tempo": 120.0
            },
            {
                "start_time": 128.475,
                "end_time": 128.5931818,
                "pitch": 65,
                "velocity": 101,
                "duration": 0.1181818,
                "tempo": 120.0
            },
            {
                "start_time": 128.5931818,
                "end_time": 128.725,
                "pitch": 60,
                "velocity": 101,
                "duration": 0.1318182,
                "tempo": 120.0
            },
            {
                "start_time": 128.725,
                "end_time": 128.8386364,
                "pitch": 62,
                "velocity": 80,
                "duration": 0.1136364,
                "tempo": 120.0
            },
            {
                "start_time": 128.8409091,
                "end_time": 128.9545455,
                "pitch": 67,
                "velocity": 80,
                "duration": 0.1136364,
                "tempo": 120.0
            },
            {
                "start_time": 128.9545455,
                "end_time": 129.0704545,
                "pitch": 60,
                "velocity": 64,
                "duration": 0.1159091,
                "tempo": 120.0
            },
            {
                "start_time": 129.0704545,
                "end_time": 129.1863636,
                "pitch": 62,
                "velocity": 64,
                "duration": 0.1159091,
                "tempo": 120.0
            },
            {
                "start_time": 129.1863636,
                "end_time": 129.3181818,
                "pitch": 65,
                "velocity": 51,
                "duration": 0.1318182,
                "tempo": 120.0
            },
            {
                "start_time": 129.3204545,
                "end_time": 129.4363636,
                "pitch": 60,
                "velocity": 51,
                "duration": 0.1159091,
                "tempo": 120.0
            },
            {
                "start_time": 129.4363636,
                "end_time": 129.5545455,
                "pitch": 62,
                "velocity": 40,
                "duration": 0.1181818,
                "tempo": 120.0
            },
            {
                "start_time": 129.5545455,
                "end_time": 129.675,
                "pitch": 67,
                "velocity": 40,
                "duration": 0.1204545,
                "tempo": 120.0
            },
            {
                "start_time": 129.675,
                "end_time": 129.7931818,
                "pitch": 60,
                "velocity": 32,
                "duration": 0.1181818,
                "tempo": 120.0
            },
            {
                "start_time": 129.7931818,
                "end_time": 129.9295455,
                "pitch": 62,
                "velocity": 32,
                "duration": 0.1363636,
                "tempo": 120.0
            },
            {
                "start_time": 129.9318182,
                "end_time": 130.05,
                "pitch": 65,
                "velocity": 25,
                "duration": 0.1181818,
                "tempo": 120.0
            },
            {
                "start_time": 130.05,
                "end_time": 130.1659091,
                "pitch": 60,
                "velocity": 25,
                "duration": 0.1159091,
                "tempo": 120.0
            },
            {
                "start_time": 130.1659091,
                "end_time": 130.2818182,
                "pitch": 62,
                "velocity": 25,
                "duration": 0.1159091,
                "tempo": 120.0
            },
            {
                "start_time": 130.2840909,
                "end_time": 130.4,
                "pitch": 67,
                "velocity": 25,
                "duration": 0.1159091,
                "tempo": 120.0
            },
            {
                "start_time": 130.4,
                "end_time": 130.5340909,
                "pitch": 60,
                "velocity": 20,
                "duration": 0.1340909,
                "tempo": 120.0
            },
            {
                "start_time": 130.5340909,
                "end_time": 130.6522727,
                "pitch": 62,
                "velocity": 20,
                "duration": 0.1181818,
                "tempo": 120.0
            },
            {
                "start_time": 130.6522727,
                "end_time": 130.7727273,
                "pitch": 65,
                "velocity": 20,
                "duration": 0.1204545,
                "tempo": 120.0
            },
            {
                "start_time": 130.7727273,
                "end_time": 130.8931818,
                "pitch": 60,
                "velocity": 20,
                "duration": 0.1204545,
                "tempo": 120.0
            },
            {
                "start_time": 130.8931818,
                "end_time": 131.0113636,
                "pitch": 62,
                "velocity": 20,
                "duration": 0.1181818,
                "tempo": 120.0
            },
            {
                "start_time": 131.0113636,
                "end_time": 131.1431818,
                "pitch": 67,
                "velocity": 20,
                "duration": 0.1318182,
                "tempo": 120.0
            },
            {
                "start_time": 131.1431818,
                "end_time": 131.2590909,
                "pitch": 60,
                "velocity": 20,
                "duration": 0.1159091,
                "tempo": 120.0
            },
            {
                "start_time": 131.2590909,
                "end_time": 131.3727273,
                "pitch": 62,
                "velocity": 20,
                "duration": 0.1136364,
                "tempo": 120.0
            },
            {
                "start_time": 131.375,
                "end_time": 177.8363636,
                "pitch": 65,
                "velocity": 20,
                "duration": 46.4613636,
                "tempo": 120.0
            },
            {
                "start_time": 177.8363636,
                "end_time": 177.95,
                "pitch": 67,
                "velocity": 16,
                "duration": 0.1136364,
                "tempo": 120.0
            },
            {
                "start_time": 177.95,
                "end_time": 178.0681818,
                "pitch": 60,
                "velocity": 16,
                "duration": 0.1181818,
                "tempo": 120.0
            },
            {
                "start_time": 178.0681818,
                "end_time": 178.2022727,
                "pitch": 62,
                "velocity": 16,
                "duration": 0.1340909,
                "tempo": 120.0
            },
            {
                "start_time": 178.2022727,
                "end_time": 178.3227273,
                "pitch": 65,
                "velocity": 16,
                "duration": 0.1204545,
                "tempo": 120.0
            },
            {
                "start_time": 178.3227273,
                "end_time": 178.4363636,
                "pitch": 60,
                "velocity": 16,
                "duration": 0.1136364,
                "tempo": 120.0
            },
            {
                "start_time": 178.4363636,
                "end_time": 178.5545455,
                "pitch": 62,
                "velocity": 20,
                "duration": 0.1181818,
                "tempo": 120.0
            },
            {
                "start_time": 178.5545455,
                "end_time": 178.6704545,
                "pitch": 67,
                "velocity": 20,
                "duration": 0.1159091,
                "tempo": 120.0
            },
            {
                "start_time": 178.6704545,
                "end_time": 178.8045455,
                "pitch": 60,
                "velocity": 20,
                "duration": 0.1340909,
                "tempo": 120.0
            },
            {
                "start_time": 178.8045455,
                "end_time": 178.925,
                "pitch": 62,
                "velocity": 20,
                "duration": 0.1204545,
                "tempo": 120.0
            },
            {
                "start_time": 178.925,
                "end_time": 179.0454545,
                "pitch": 65,
                "velocity": 25,
                "duration": 0.1204545,
                "tempo": 120.0
            },
            {
                "start_time": 179.0454545,
                "end_time": 179.1636364,
                "pitch": 60,
                "velocity": 25,
                "duration": 0.1181818,
                "tempo": 120.0
            },
            {
                "start_time": 179.1636364,
                "end_time": 179.2840909,
                "pitch": 62,
                "velocity": 32,
                "duration": 0.1204545,
                "tempo": 120.0
            },
            {
                "start_time": 179.2840909,
                "end_time": 179.4159091,
                "pitch": 67,
                "velocity": 32,
                "duration": 0.1318182,
                "tempo": 120.0
            },
            {
                "start_time": 179.4159091,
                "end_time": 179.5318182,
                "pitch": 60,
                "velocity": 40,
                "duration": 0.1159091,
                "tempo": 120.0
            },
            {
                "start_time": 179.5318182,
                "end_time": 179.6454545,
                "pitch": 62,
                "velocity": 40,
                "duration": 0.1136364,
                "tempo": 120.0
            },
            {
                "start_time": 179.6454545,
                "end_time": 179.7613636,
                "pitch": 65,
                "velocity": 51,
                "duration": 0.1159091,
                "tempo": 120.0
            },
            {
                "start_time": 179.7613636,
                "end_time": 179.8772727,
                "pitch": 60,
                "velocity": 51,
                "duration": 0.1159091,
                "tempo": 120.0
            }
        ]
    }
}