{
    "mood": "happy",
    "instruments": {
        "Trumpet": [
            {
                "start_time": 0.0522727,
                "end_time": 0.8659091,
                "pitch": 69,
                "velocity": 127,
                "duration": 0.8136364,
                "tempo": 120.0
            },
            {
                "start_time": 0.8659091,
                "end_time": 1.0272727,
                "pitch": 71,
                "velocity": 127,
                "duration": 0.1613636,
                "tempo": 120.0
            },
            {
                "start_time": 1.0272727,
                "end_time": 1.1909091,
                "pitch": 72,
                "velocity": 127,
                "duration": 0.1636364,
                "tempo": 120.0
            },
            {
                "start_time": 1.1909091,
                "end_time": 1.3545455,
                "pitch": 74,
                "velocity": 127,
                "duration": 0.1636364,
                "tempo": 120.0
            },
            {
                "start_time": 1.1909091,
                "end_time": 1.3545455,
                "pitch": 74,
                "velocity": 127,
                "duration": 0.1636364,
                "tempo": 120.0
            },
            {
                "start_time": 1.3545455,
                "end_time": 1.4340909,
                "pitch": 76,
                "velocity": 127,
                "duration": 0.0795455,
                "tempo": 120.0
            },
            {
                "start_time": 1.5159091,
                "end_time": 1.5977273,
                "pitch": 76,
                "velocity": 127,
                "duration": 0.0818182,
                "tempo": 120.0
            },
            {
                "start_time": 1.6795455,
                "end_time": 1.7590909,
                "pitch": 76,
                "velocity": 127,
                "duration": 0.0795455,
                "tempo": 120.0
            },
            {
                "start_time": 1.8409091,
                "end_time": 2.3181818,
                "pitch": 74,
                "velocity": 127,
                "duration": 0.4772727,
                "tempo": 120.0
            },
            {
                "start_time": 2.3181818,
                "end_time": 2.6340909,
                "pitch": 71,
                "velocity": 127,
                "duration": 0.3159091,
                "tempo": 120.0
            },
            {
                "start_time": 2.6340909,
                "end_time": 5.0954545,
                "pitch": 69,
                "velocity": 127,
                "duration": 2.4613636,
                "tempo": 120.0
            },
            {
                "start_time": 2.6340909,
                "end_time": 5.0954545,
                "pitch": 69,
                "velocity": 127,
                "duration": 2.4613636,
                "tempo": 120.0
            }
        ],
        "Acoustic Bass": [
            {
                "start_time": 0.0545455,
                "end_time": 0.2159091,
                "pitch": 33,
                "velocity": 127,
                "duration": 0.1613636,
                "tempo": 120.0
            },
            {
                "start_time": 0.2159091,
                "end_time": 0.3795455,
                "pitch": 33,
                "velocity": 127,
                "duration": 0.1636364,
                "tempo": 120.0
            },
            {
                "start_time": 0.3795455,
                "end_time": 0.5409091,
                "pitch": 33,
                "velocity": 127,
                "duration": 0.1613636,
                "tempo": 120.0
            },
            {
                "start_time": 0.5409091,
                "end_time": 0.7045455,
                "pitch": 33,
                "velocity": 127,
                "duration": 0.1636364,
                "tempo": 120.0
            },
            {
                "start_time": 0.7045455,
                "end_time": 0.8659091,
                "pitch": 33,
                "velocity": 127,
                "duration": 0.1613636,
                "tempo": 120.0
            },
            {
                "start_time": 0.8659091,
                "end_time": 1.0295455,
                "pitch": 33,
                "velocity": 127,
                "duration": 0.1636364,
                "tempo": 120.0
            },
            {
                "start_time": 1.0295455,
                "end_time": 1.1909091,
                "pitch": 33,
                "velocity": 127,
                "duration": 0.1613636,
                "tempo": 120.0
            },
            {
                "start_time": 1.1909091,
                "end_time": 1.3545455,
                "pitch": 33,
                "velocity": 127,
                "duration": 0.1636364,
                "tempo": 120.0
            },
            {
                "start_time": 1.3545455,
                "end_time": 1.5159091,
                "pitch": 36,
                "velocity": 127,
                "duration": 0.1613636,
                "tempo": 120.0
            },
            {
                "start_time": 1.5159091,
                "end_time": 1.6795455,
                "pitch": 36,
                "velocity": 127,
                "duration": 0.1636364,
                "tempo": 120.0
            },
            {
                "start_time": 1.6795455,
                "end_time": 1.8409091,
                "pitch": 36,
                "velocity": 127,
                "duration": 0.1613636,
                "tempo": 120.0
            },
            {
                "start_time": 1.8409091,
                "end_time": 2.0045455,
                "pitch": 36,
                "velocity": 127,
                "duration": 0.1636364,
                "tempo": 120.0
            },
            {
                "start_time": 2.0045455,
                "end_time": 2.1613636,
                "pitch": 31,
                "velocity": 127,
                "duration": 0.1568182,
                "tempo": 120.0
            },
            {
                "start_time": 2.1613636,
                "end_time": 2.3181818,
                "pitch": 31,
                "velocity": 127,
                "duration": 0.1568182,
                "tempo": 120.0
            },
            {
                "start_time": 2.3181818,
                "end_time": 2.4772727,
                "pitch": 31,
                "velocity": 127,
                "duration": 0.1590909,
                "tempo": 120.0
            },
            {
                "start_time": 2.4772727,
                "end_time": 2.6340909,
                "pitch": 31,
                "velocity": 127,
                "duration": 0.1568182,
                "tempo": 120.0
            },
            {
                "start_time": 2.6340909,
                "end_time": 2.7909091,
                "pitch": 33,
                "velocity": 127,
                "duration": 0.1568182,
                "tempo": 120.0
            },
            {
                "start_time": 2.6340909,
                "end_time": 2.7909091,
                "pitch": 33,
                "velocity": 127,
                "duration": 0.1568182,
                "tempo": 120.0
            },
            {
                "start_time": 2.7909091,
                "end_time": 3.1068182,
                "pitch": 45,
                "velocity": 127,
                "duration": 0.3159091,
                "tempo": 120.0
            },
            {
                "start_time": 3.1068182,
                "end_time": 5.1727273,
                "pitch": 33,
                "velocity": 127,
                "duration": 2.0659091,
                "tempo": 120.0
            }
        ],
        "Lead 2 (sawtooth)": [
            {
                "start_time": 0.0545455,
                "end_time": 0.5409091,
                "pitch": 64,
                "velocity": 101,
                "duration": 0.4863636,
                "tempo": 120.0
            },
            {
                "start_time": 0.5409091,
                "end_time": 1.0295455,
                "pitch": 64,
                "velocity": 101,
                "duration": 0.4886364,
                "tempo": 120.0
            },
            {
                "start_time": 1.0295455,
                "end_time": 1.3545455,
                "pitch": 64,
                "velocity": 101,
                "duration": 0.325,
                "tempo": 120.0
            },
            {
                "start_time": 1.3545455,
                "end_time": 1.8409091,
                "pitch": 60,
                "velocity": 101,
                "duration": 0.4863636,
                "tempo": 120.0
            },
            {
                "start_time": 1.3545455,
                "end_time": 1.8409091,
                "pitch": 60,
                "velocity": 101,
                "duration": 0.4863636,
                "tempo": 120.0
            },
            {
                "start_time": 1.8409091,
                "end_time": 2.3181818,
                "pitch": 59,
                "velocity": 101,
                "duration": 0.4772727,
                "tempo": 120.0
            },
            {
                "start_time": 2.3204545,
                "end_time": 2.6340909,
                "pitch": 64,
                "velocity": 101,
                "duration": 0.3136364,
                "tempo": 120.0
            },
            {
                "start_time": 2.6340909,
                "end_time": 5.0181818,
                "pitch": 64,
                "velocity": 101,
                "duration": 2.3840909,
                "tempo": 120.0
            }
        ],
        "Electric Piano 1": [
            {
                "start_time": 0.0545455,
                "end_time": 0.2159091,
                "pitch": 33,
                "velocity": 127,
                "duration": 0.1613636,
                "tempo": 120.0
            },
            {
                "start_time": 0.2159091,
                "end_time": 0.3795455,
                "pitch": 33,
                "velocity": 127,
                "duration": 0.1636364,
                "tempo": 120.0
            },
            {
                "start_time": 0.3795455,
                "end_time": 0.5409091,
                "pitch": 45,
                "velocity": 127,
                "duration": 0.1613636,
                "tempo": 120.0
            },
            {
                "start_time": 0.5409091,
                "end_time": 0.7045455,
                "pitch": 33,
                "velocity": 127,
                "duration": 0.1636364,
                "tempo": 120.0
            },
            {
                "start_time": 0.7045455,
                "end_time": 0.8659091,
                "pitch": 33,
                "velocity": 127,
                "duration": 0.1613636,
                "tempo": 120.0
            },
            {
                "start_time": 0.8659091,
                "end_time": 1.0295455,
                "pitch": 33,
                "velocity": 127,
                "duration": 0.1636364,
                "tempo": 120.0
            },
            {
                "start_time": 1.0295455,
                "end_time": 1.1909091,
                "pitch": 33,
                "velocity": 127,
                "duration": 0.1613636,
                "tempo": 120.0
            },
            {
                "start_time": 1.1909091,
                "end_time": 1.3545455,
                "pitch": 45,
                "velocity": 127,
                "duration": 0.1636364,
                "tempo": 120.0
            },
            {
                "start_time": 1.3545455,
                "end_time": 1.5159091,
                "pitch": 36,
                "velocity": 127,
                "duration": 0.1613636,
                "tempo": 120.0
            },
            {
                "start_time": 1.5159091,
                "end_time": 1.6795455,
                "pitch": 36,
                "velocity": 127,
                "duration": 0.1636364,
                "tempo": 120.0
            },
            {
                "start_time": 1.6795455,
                "end_time": 1.8431818,
                "pitch": 36,
                "velocity": 127,
                "duration": 0.1636364,
                "tempo": 120.0
            },
            {
                "start_time": 1.8431818,
                "end_time": 2.0045455,
                "pitch": 36,
                "velocity": 127,
                "duration": 0.1613636,
                "tempo": 120.0
            },
            {
                "start_time": 2.0045455,
                "end_time": 2.1613636,
                "pitch": 31,
                "velocity": 127,
                "duration": 0.1568182,
                "tempo": 120.0
            },
            {
                "start_time": 2.1613636,
                "end_time": 2.3204545,
                "pitch": 31,
                "velocity": 127,
                "duration": 0.1590909,
                "tempo": 120.0
            },
            {
                "start_time": 2.3204545,
                "end_time": 2.4772727,
                "pitch": 31,
                "velocity": 127,
                "duration": 0.1568182,
                "tempo": 120.0
            },
            {
                "start_time": 2.4772727,
                "end_time": 2.6340909,
                "pitch": 43,
                "velocity": 127,
                "duration": 0.1568182,
                "tempo": 120.0
            },
            {
                "start_time": 2.6340909,
                "end_time": 2.7909091,
                "pitch": 33,
                "velocity": 127,
                "duration": 0.1568182,
                "tempo": 120.0
            },
            {
                "start_time": 2.6340909,
                "end_time": 3.1068182,
                "pitch": 45,
                "velocity": 127,
                "duration": 0.4727273,
                "tempo": 120.0
            },
            {
                "start_time": 2.7909091,
                "end_time": 3.1068182,
                "pitch": 45,
                "velocity": 127,
                "duration": 0.3159091,
                "tempo": 120.0
            },
            {
                "start_time": 3.1068182,
                "end_time": 5.1727273,
                "pitch": 33,
                "velocity": 127,
                "duration": 2.0659091,
                "tempo": 120.0
            }
        ]
    }
}