{
    "mood": "happy",
    "instruments": {
        "French Horn": [
            {
                "start_time": 0.8045455,
                "end_time": 2.3568182,
                "pitch": 55,
                "velocity": 40,
                "duration": 1.5522727,
                "tempo": 120.0
            },
            {
                "start_time": 2.8159091,
                "end_time": 3.1659091,
                "pitch": 55,
                "velocity": 40,
                "duration": 0.35,
                "tempo": 120.0
            },
            {
                "start_time": 3.2181818,
                "end_time": 3.5681818,
                "pitch": 55,
                "velocity": 40,
                "duration": 0.35,
                "tempo": 120.0
            },
            {
                "start_time": 3.6204545,
                "end_time": 3.9727273,
                "pitch": 52,
                "velocity": 40,
                "duration": 0.3522727,
                "tempo": 120.0
            },
            {
                "start_time": 5.1136364,
                "end_time": 6.6636364,
                "pitch": 57,
                "velocity": 40,
                "duration": 1.55,
                "tempo": 120.0
            },
            {
                "start_time": 2.8159091,
                "end_time": 7.1227273,
                "pitch": 67,
                "velocity": 40,
                "duration": 4.3068182,
                "tempo": 120.0
            },
            {
                "start_time": 7.1227273,
                "end_time": 7.4727273,
                "pitch": 55,
                "velocity": 40,
                "duration": 0.35,
                "tempo": 120.0
            },
            {
                "start_time": 7.525,
                "end_time": 7.875,
                "pitch": 55,
                "velocity": 40,
                "duration": 0.35,
                "tempo": 120.0
            },
            {
                "start_time": 7.9272727,
                "end_time": 8.2795455,
                "pitch": 62,
                "velocity": 40,
                "duration": 0.3522727,
                "tempo": 120.0
            },
            {
                "start_time": 9.425,
                "end_time": 10.975,
                "pitch": 57,
                "velocity": 40,
                "duration": 1.55,
                "tempo": 120.0
            },
            {
                "start_time": 7.1227273,
                "end_time": 11.4318182,
                "pitch": 67,
                "velocity": 40,
                "duration": 4.3090909,
                "tempo": 120.0
            },
            {
                "start_time": 11.4318182,
                "end_time": 11.7840909,
                "pitch": 55,
                "velocity": 40,
                "duration": 0.3522727,
                "tempo": 120.0
            },
            {
                "start_time": 11.8363636,
                "end_time": 12.1840909,
                "pitch": 55,
                "velocity": 40,
                "duration": 0.3477273,
                "tempo": 120.0
            },
            {
                "start_time": 3.6204545,
                "end_time": 12.2363636,
                "pitch": 19,
                "velocity": 40,
                "duration": 8.6159091,
                "tempo": 120.0
            },
            {
                "start_time": 12.2363636,
                "end_time": 12.5909091,
                "pitch": 52,
                "velocity": 40,
                "duration": 0.3545455,
                "tempo": 120.0
            },
            {
                "start_time": 12.9136364,
                "end_time": 14.4772727,
                "pitch": 52,
                "velocity": 40,
                "duration": 1.5636364,
                "tempo": 120.0
            },
            {
                "start_time": 14.5318182,
                "end_time": 14.75,
                "pitch": 50,
                "velocity": 40,
                "duration": 0.2181818,
                "tempo": 120.0
            },
            {
                "start_time": 14.8022727,
                "end_time": 15.0227273,
                "pitch": 52,
                "velocity": 40,
                "duration": 0.2204545,
                "tempo": 120.0
            },
            {
                "start_time": 11.4318182,
                "end_time": 15.0727273,
                "pitch": 67,
                "velocity": 40,
                "duration": 3.6409091,
                "tempo": 120.0
            },
            {
                "start_time": 15.0727273,
                "end_time": 15.6931818,
                "pitch": 57,
                "velocity": 40,
                "duration": 0.6204545,
                "tempo": 120.0
            },
            {
                "start_time": 15.7454545,
                "end_time": 16.1022727,
                "pitch": 57,
                "velocity": 40,
                "duration": 0.3568182,
                "tempo": 120.0
            },
            {
                "start_time": 16.4227273,
                "end_time": 16.6386364,
                "pitch": 54,
                "velocity": 40,
                "duration": 0.2159091,
                "tempo": 120.0
            },
            {
                "start_time": 16.9613636,
                "end_time": 17.1818182,
                "pitch": 52,
                "velocity": 40,
                "duration": 0.2204545,
                "tempo": 120.0
            },
            {
                "start_time": 17.2340909,
                "end_time": 17.3159091,
                "pitch": 45,
                "velocity": 40,
                "duration": 0.0818182,
                "tempo": 120.0
            },
            {
                "start_time": 17.3659091,
                "end_time": 19.4659091,
                "pitch": 45,
                "velocity": 40,
                "duration": 2.1,
                "tempo": 120.0
            },
            {
                "start_time": 7.9272727,
                "end_time": 19.5181818,
                "pitch": 32,
                "velocity": 40,
                "duration": 11.5909091,
                "tempo": 120.0
            },
            {
                "start_time": 19.5181818,
                "end_time": 19.6,
                "pitch": 52,
                "velocity": 32,
                "duration": 0.0818182,
                "tempo": 120.0
            },
            {
                "start_time": 19.6522727,
                "end_time": 19.7340909,
                "pitch": 52,
                "velocity": 32,
                "duration": 0.0818182,
                "tempo": 120.0
            },
            {
                "start_time": 19.7863636,
                "end_time": 19.8681818,
                "pitch": 52,
                "velocity": 32,
                "duration": 0.0818182,
                "tempo": 120.0
            },
            {
                "start_time": 19.9181818,
                "end_time": 20.0022727,
                "pitch": 50,
                "velocity": 32,
                "duration": 0.0840909,
                "tempo": 120.0
            },
            {
                "start_time": 20.3272727,
                "end_time": 20.5454545,
                "pitch": 55,
                "velocity": 32,
                "duration": 0.2181818,
                "tempo": 120.0
            },
            {
                "start_time": 20.5954545,
                "end_time": 20.6795455,
                "pitch": 55,
                "velocity": 32,
                "duration": 0.0840909,
                "tempo": 120.0
            },
            {
                "start_time": 20.9977273,
                "end_time": 21.0818182,
                "pitch": 57,
                "velocity": 32,
                "duration": 0.0840909,
                "tempo": 120.0
            },
            {
                "start_time": 21.4,
                "end_time": 21.6181818,
                "pitch": 55,
                "velocity": 32,
                "duration": 0.2181818,
                "tempo": 120.0
            },
            {
                "start_time": 12.2363636,
                "end_time": 21.6704545,
                "pitch": 19,
                "velocity": 40,
                "duration": 9.4340909,
                "tempo": 120.0
            },
            {
                "start_time": 21.6704545,
                "end_time": 21.7545455,
                "pitch": 52,
                "velocity": 32,
                "duration": 0.0840909,
                "tempo": 120.0
            },
            {
                "start_time": 21.8068182,
                "end_time": 21.8909091,
                "pitch": 52,
                "velocity": 32,
                "duration": 0.0840909,
                "tempo": 120.0
            },
            {
                "start_time": 21.9431818,
                "end_time": 22.0272727,
                "pitch": 52,
                "velocity": 32,
                "duration": 0.0840909,
                "tempo": 120.0
            },
            {
                "start_time": 22.0795455,
                "end_time": 22.1613636,
                "pitch": 50,
                "velocity": 32,
                "duration": 0.0818182,
                "tempo": 120.0
            },
            {
                "start_time": 20.3272727,
                "end_time": 22.4795455,
                "pitch": 66,
                "velocity": 32,
                "duration": 2.1522727,
                "tempo": 120.0
            },
            {
                "start_time": 22.4795455,
                "end_time": 22.6977273,
                "pitch": 55,
                "velocity": 32,
                "duration": 0.2181818,
                "tempo": 120.0
            },
            {
                "start_time": 22.7477273,
                "end_time": 22.8340909,
                "pitch": 55,
                "velocity": 32,
                "duration": 0.0863636,
                "tempo": 120.0
            },
            {
                "start_time": 23.1568182,
                "end_time": 23.2409091,
                "pitch": 57,
                "velocity": 32,
                "duration": 0.0840909,
                "tempo": 120.0
            },
            {
                "start_time": 23.6954545,
                "end_time": 23.7772727,
                "pitch": 47,
                "velocity": 51,
                "duration": 0.0818182,
                "tempo": 120.0
            },
            {
                "start_time": 23.9681818,
                "end_time": 24.05,
                "pitch": 47,
                "velocity": 51,
                "duration": 0.0818182,
                "tempo": 120.0
            },
            {
                "start_time": 24.2409091,
                "end_time": 24.3204545,
                "pitch": 47,
                "velocity": 51,
                "duration": 0.0795455,
                "tempo": 120.0
            },
            {
                "start_time": 24.5068182,
                "end_time": 24.5886364,
                "pitch": 47,
                "velocity": 51,
                "duration": 0.0818182,
                "tempo": 120.0
            },
            {
                "start_time": 24.775,
                "end_time": 24.8568182,
                "pitch": 47,
                "velocity": 51,
                "duration": 0.0818182,
                "tempo": 120.0
            }
        ],
        "Flute": [
            {
                "start_time": 4.025,
                "end_time": 4.2454545,
                "pitch": 76,
                "velocity": 32,
                "duration": 0.2204545,
                "tempo": 120.0
            },
            {
                "start_time": 4.2977273,
                "end_time": 4.5136364,
                "pitch": 79,
                "velocity": 32,
                "duration": 0.2159091,
                "tempo": 120.0
            },
            {
                "start_time": 4.5636364,
                "end_time": 5.0590909,
                "pitch": 79,
                "velocity": 32,
                "duration": 0.4954545,
                "tempo": 120.0
            },
            {
                "start_time": 8.3318182,
                "end_time": 8.5522727,
                "pitch": 78,
                "velocity": 32,
                "duration": 0.2204545,
                "tempo": 120.0
            },
            {
                "start_time": 4.2977273,
                "end_time": 8.6045455,
                "pitch": 91,
                "velocity": 32,
                "duration": 4.3068182,
                "tempo": 120.0
            },
            {
                "start_time": 8.6045455,
                "end_time": 8.8227273,
                "pitch": 79,
                "velocity": 32,
                "duration": 0.2181818,
                "tempo": 120.0
            },
            {
                "start_time": 8.875,
                "end_time": 9.3727273,
                "pitch": 79,
                "velocity": 32,
                "duration": 0.4977273,
                "tempo": 120.0
            }
        ],
        "Vibraphone": [
            {
                "start_time": 25.9795455,
                "end_time": 26.0795455,
                "pitch": 83,
                "velocity": 51,
                "duration": 0.1,
                "tempo": 120.0
            },
            {
                "start_time": 26.2522727,
                "end_time": 26.3522727,
                "pitch": 83,
                "velocity": 51,
                "duration": 0.1,
                "tempo": 120.0
            },
            {
                "start_time": 26.5204545,
                "end_time": 26.6204545,
                "pitch": 83,
                "velocity": 51,
                "duration": 0.1,
                "tempo": 120.0
            },
            {
                "start_time": 26.7886364,
                "end_time": 26.8886364,
                "pitch": 81,
                "velocity": 51,
                "duration": 0.1,
                "tempo": 120.0
            },
            {
                "start_time": 27.0590909,
                "end_time": 27.4318182,
                "pitch": 86,
                "velocity": 51,
                "duration": 0.3727273,
                "tempo": 120.0
            },
            {
                "start_time": 27.4681818,
                "end_time": 27.5659091,
                "pitch": 88,
                "velocity": 51,
                "duration": 0.0977273,
                "tempo": 120.0
            },
            {
                "start_time": 27.8681818,
                "end_time": 28.375,
                "pitch": 83,
                "velocity": 51,
                "duration": 0.5068182,
                "tempo": 120.0
            },
            {
                "start_time": 28.4113636,
                "end_time": 28.5113636,
                "pitch": 83,
                "velocity": 51,
                "duration": 0.1,
                "tempo": 120.0
            },
            {
                "start_time": 28.6818182,
                "end_time": 28.7795455,
                "pitch": 83,
                "velocity": 51,
                "duration": 0.0977273,
                "tempo": 120.0
            },
            {
                "start_time": 28.9477273,
                "end_time": 29.0477273,
                "pitch": 81,
                "velocity": 51,
                "duration": 0.1,
                "tempo": 120.0
            },
            {
                "start_time": 27.0590909,
                "end_time": 29.2159091,
                "pitch": 68,
                "velocity": 51,
                "duration": 2.1568182,
                "tempo": 120.0
            },
            {
                "start_time": 27.4681818,
                "end_time": 29.5840909,
                "pitch": 86,
                "velocity": 51,
                "duration": 2.1159091,
                "tempo": 120.0
            },
            {
                "start_time": 29.2159091,
                "end_time": 29.5840909,
                "pitch": 86,
                "velocity": 51,
                "duration": 0.3681818,
                "tempo": 120.0
            },
            {
                "start_time": 29.6181818,
                "end_time": 29.7181818,
                "pitch": 88,
                "velocity": 51,
                "duration": 0.1,
                "tempo": 120.0
            },
            {
                "start_time": 30.025,
                "end_time": 31.3409091,
                "pitch": 91,
                "velocity": 51,
                "duration": 1.3159091,
                "tempo": 120.0
            },
            {
                "start_time": 27.8681818,
                "end_time": 32.15,
                "pitch": 90,
                "velocity": 51,
                "duration": 4.2818182,
                "tempo": 120.0
            },
            {
                "start_time": 31.9136364,
                "end_time": 32.15,
                "pitch": 90,
                "velocity": 51,
                "duration": 0.2363636,
                "tempo": 120.0
            },
            {
                "start_time": 29.6181818,
                "end_time": 32.2863636,
                "pitch": 86,
                "velocity": 51,
                "duration": 2.6681818,
                "tempo": 120.0
            },
            {
                "start_time": 32.1863636,
                "end_time": 32.2863636,
                "pitch": 86,
                "velocity": 51,
                "duration": 0.1,
                "tempo": 120.0
            },
            {
                "start_time": 32.3227273,
                "end_time": 33.7659091,
                "pitch": 81,
                "velocity": 51,
                "duration": 1.4431818,
                "tempo": 120.0
            },
            {
                "start_time": 34.3386364,
                "end_time": 34.7090909,
                "pitch": 81,
                "velocity": 51,
                "duration": 0.3704545,
                "tempo": 120.0
            },
            {
                "start_time": 34.8795455,
                "end_time": 34.9818182,
                "pitch": 83,
                "velocity": 51,
                "duration": 0.1022727,
                "tempo": 120.0
            },
            {
                "start_time": 35.15,
                "end_time": 35.25,
                "pitch": 83,
                "velocity": 51,
                "duration": 0.1,
                "tempo": 120.0
            },
            {
                "start_time": 35.4181818,
                "end_time": 35.5181818,
                "pitch": 81,
                "velocity": 51,
                "duration": 0.1,
                "tempo": 120.0
            },
            {
                "start_time": 29.2159091,
                "end_time": 35.6840909,
                "pitch": 68,
                "velocity": 51,
                "duration": 6.4681818,
                "tempo": 120.0
            },
            {
                "start_time": 35.6840909,
                "end_time": 36.0522727,
                "pitch": 86,
                "velocity": 51,
                "duration": 0.3681818,
                "tempo": 120.0
            },
            {
                "start_time": 36.0863636,
                "end_time": 36.0886364,
                "pitch": 86,
                "velocity": 51,
                "duration": 0.0022727,
                "tempo": 120.0
            },
            {
                "start_time": 36.0886364,
                "end_time": 36.1886364,
                "pitch": 88,
                "velocity": 51,
                "duration": 0.1,
                "tempo": 120.0
            },
            {
                "start_time": 32.1863636,
                "end_time": 36.4954545,
                "pitch": 90,
                "velocity": 51,
                "duration": 4.3090909,
                "tempo": 120.0
            },
            {
                "start_time": 36.4954545,
                "end_time": 37.0045455,
                "pitch": 83,
                "velocity": 51,
                "duration": 0.5090909,
                "tempo": 120.0
            },
            {
                "start_time": 37.0386364,
                "end_time": 37.1409091,
                "pitch": 83,
                "velocity": 51,
                "duration": 0.1022727,
                "tempo": 120.0
            },
            {
                "start_time": 37.3068182,
                "end_time": 37.4045455,
                "pitch": 83,
                "velocity": 51,
                "duration": 0.0977273,
                "tempo": 120.0
            },
            {
                "start_time": 37.5704545,
                "end_time": 37.6681818,
                "pitch": 81,
                "velocity": 51,
                "duration": 0.0977273,
                "tempo": 120.0
            },
            {
                "start_time": 35.6840909,
                "end_time": 37.8386364,
                "pitch": 68,
                "velocity": 51,
                "duration": 2.1545455,
                "tempo": 120.0
            },
            {
                "start_time": 37.8386364,
                "end_time": 38.075,
                "pitch": 86,
                "velocity": 51,
                "duration": 0.2363636,
                "tempo": 120.0
            },
            {
                "start_time": 38.1113636,
                "end_time": 38.3477273,
                "pitch": 88,
                "velocity": 51,
                "duration": 0.2363636,
                "tempo": 120.0
            },
            {
                "start_time": 30.025,
                "end_time": 38.3818182,
                "pitch": 102,
                "velocity": 51,
                "duration": 8.3568182,
                "tempo": 120.0
            },
            {
                "start_time": 38.3818182,
                "end_time": 38.6204545,
                "pitch": 91,
                "velocity": 51,
                "duration": 0.2386364,
                "tempo": 120.0
            },
            {
                "start_time": 31.9136364,
                "end_time": 38.6545455,
                "pitch": 14,
                "velocity": 51,
                "duration": 6.7409091,
                "tempo": 120.0
            },
            {
                "start_time": 36.4954545,
                "end_time": 39.6931818,
                "pitch": 90,
                "velocity": 51,
                "duration": 3.1977273,
                "tempo": 120.0
            },
            {
                "start_time": 38.6545455,
                "end_time": 39.6931818,
                "pitch": 90,
                "velocity": 51,
                "duration": 1.0386364,
                "tempo": 120.0
            },
            {
                "start_time": 40.2704545,
                "end_time": 40.5045455,
                "pitch": 74,
                "velocity": 25,
                "duration": 0.2340909,
                "tempo": 120.0
            },
            {
                "start_time": 40.5409091,
                "end_time": 40.7727273,
                "pitch": 76,
                "velocity": 25,
                "duration": 0.2318182,
                "tempo": 120.0
            },
            {
                "start_time": 40.8090909,
                "end_time": 40.9068182,
                "pitch": 79,
                "velocity": 25,
                "duration": 0.0977273,
                "tempo": 120.0
            },
            {
                "start_time": 40.2704545,
                "end_time": 41.3136364,
                "pitch": 78,
                "velocity": 25,
                "duration": 1.0431818,
                "tempo": 120.0
            },
            {
                "start_time": 40.9409091,
                "end_time": 41.3136364,
                "pitch": 78,
                "velocity": 25,
                "duration": 0.3727273,
                "tempo": 120.0
            },
            {
                "start_time": 41.35,
                "end_time": 41.45,
                "pitch": 62,
                "velocity": 25,
                "duration": 0.1,
                "tempo": 120.0
            },
            {
                "start_time": 41.6204545,
                "end_time": 41.7181818,
                "pitch": 62,
                "velocity": 25,
                "duration": 0.0977273,
                "tempo": 120.0
            },
            {
                "start_time": 41.8863636,
                "end_time": 41.9863636,
                "pitch": 67,
                "velocity": 25,
                "duration": 0.1,
                "tempo": 120.0
            },
            {
                "start_time": 32.3227273,
                "end_time": 60.4840909,
                "pitch": 89,
                "velocity": 51,
                "duration": 28.1613636,
                "tempo": 120.0
            },
            {
                "start_time": 60.4840909,
                "end_time": 60.5818182,
                "pitch": 83,
                "velocity": 51,
                "duration": 0.0977273,
                "tempo": 120.0
            },
            {
                "start_time": 60.75,
                "end_time": 60.85,
                "pitch": 83,
                "velocity": 51,
                "duration": 0.1,
                "tempo": 120.0
            },
            {
                "start_time": 61.0181818,
                "end_time": 61.1181818,
                "pitch": 83,
                "velocity": 51,
                "duration": 0.1,
                "tempo": 120.0
            },
            {
                "start_time": 61.2863636,
                "end_time": 61.3863636,
                "pitch": 81,
                "velocity": 51,
                "duration": 0.1,
                "tempo": 120.0
            },
            {
                "start_time": 37.8386364,
                "end_time": 61.5545455,
                "pitch": 68,
                "velocity": 51,
                "duration": 23.7159091,
                "tempo": 120.0
            },
            {
                "start_time": 38.1113636,
                "end_time": 61.9295455,
                "pitch": 86,
                "velocity": 51,
                "duration": 23.8181818,
                "tempo": 120.0
            },
            {
                "start_time": 61.5545455,
                "end_time": 61.9295455,
                "pitch": 86,
                "velocity": 51,
                "duration": 0.375,
                "tempo": 120.0
            },
            {
                "start_time": 61.9659091,
                "end_time": 62.0636364,
                "pitch": 88,
                "velocity": 51,
                "duration": 0.0977273,
                "tempo": 120.0
            },
            {
                "start_time": 40.8090909,
                "end_time": 62.3659091,
                "pitch": 90,
                "velocity": 25,
                "duration": 21.5568182,
                "tempo": 120.0
            },
            {
                "start_time": 62.3659091,
                "end_time": 62.8727273,
                "pitch": 83,
                "velocity": 51,
                "duration": 0.5068182,
                "tempo": 120.0
            },
            {
                "start_time": 62.9068182,
                "end_time": 63.0090909,
                "pitch": 83,
                "velocity": 51,
                "duration": 0.1022727,
                "tempo": 120.0
            },
            {
                "start_time": 63.1772727,
                "end_time": 63.2772727,
                "pitch": 83,
                "velocity": 51,
                "duration": 0.1,
                "tempo": 120.0
            },
            {
                "start_time": 63.4454545,
                "end_time": 63.5454545,
                "pitch": 81,
                "velocity": 51,
                "duration": 0.1,
                "tempo": 120.0
            },
            {
                "start_time": 61.5545455,
                "end_time": 63.7136364,
                "pitch": 68,
                "velocity": 51,
                "duration": 2.1590909,
                "tempo": 120.0
            },
            {
                "start_time": 61.9659091,
                "end_time": 64.0795455,
                "pitch": 86,
                "velocity": 51,
                "duration": 2.1136364,
                "tempo": 120.0
            },
            {
                "start_time": 63.7136364,
                "end_time": 64.0795455,
                "pitch": 86,
                "velocity": 51,
                "duration": 0.3659091,
                "tempo": 120.0
            },
            {
                "start_time": 64.1159091,
                "end_time": 64.2159091,
                "pitch": 88,
                "velocity": 51,
                "duration": 0.1,
                "tempo": 120.0
            },
            {
                "start_time": 38.3818182,
                "end_time": 64.5227273,
                "pitch": 102,
                "velocity": 51,
                "duration": 26.1409091,
                "tempo": 120.0
            },
            {
                "start_time": 64.5227273,
                "end_time": 65.8386364,
                "pitch": 91,
                "velocity": 51,
                "duration": 1.3159091,
                "tempo": 120.0
            },
            {
                "start_time": 38.6545455,
                "end_time": 66.4068182,
                "pitch": 14,
                "velocity": 51,
                "duration": 27.7522727,
                "tempo": 120.0
            },
            {
                "start_time": 62.3659091,
                "end_time": 66.6409091,
                "pitch": 90,
                "velocity": 51,
                "duration": 4.275,
                "tempo": 120.0
            },
            {
                "start_time": 66.4068182,
                "end_time": 66.6409091,
                "pitch": 90,
                "velocity": 51,
                "duration": 0.2340909,
                "tempo": 120.0
            },
            {
                "start_time": 64.1159091,
                "end_time": 66.775,
                "pitch": 86,
                "velocity": 51,
                "duration": 2.6590909,
                "tempo": 120.0
            },
            {
                "start_time": 66.6772727,
                "end_time": 66.775,
                "pitch": 86,
                "velocity": 51,
                "duration": 0.0977273,
                "tempo": 120.0
            },
            {
                "start_time": 60.4840909,
                "end_time": 66.8090909,
                "pitch": 89,
                "velocity": 51,
                "duration": 6.325,
                "tempo": 120.0
            },
            {
                "start_time": 66.8090909,
                "end_time": 68.2636364,
                "pitch": 81,
                "velocity": 51,
                "duration": 1.4545455,
                "tempo": 120.0
            },
            {
                "start_time": 68.8340909,
                "end_time": 69.2068182,
                "pitch": 81,
                "velocity": 51,
                "duration": 0.3727273,
                "tempo": 120.0
            },
            {
                "start_time": 69.3772727,
                "end_time": 69.4795455,
                "pitch": 83,
                "velocity": 51,
                "duration": 0.1022727,
                "tempo": 120.0
            },
            {
                "start_time": 69.6477273,
                "end_time": 69.7477273,
                "pitch": 83,
                "velocity": 51,
                "duration": 0.1,
                "tempo": 120.0
            },
            {
                "start_time": 69.9136364,
                "end_time": 70.0136364,
                "pitch": 81,
                "velocity": 51,
                "duration": 0.1,
                "tempo": 120.0
            },
            {
                "start_time": 63.7136364,
                "end_time": 70.1818182,
                "pitch": 68,
                "velocity": 51,
                "duration": 6.4681818,
                "tempo": 120.0
            },
            {
                "start_time": 70.1818182,
                "end_time": 70.55,
                "pitch": 86,
                "velocity": 51,
                "duration": 0.3681818,
                "tempo": 120.0
            },
            {
                "start_time": 70.5840909,
                "end_time": 70.6840909,
                "pitch": 88,
                "velocity": 51,
                "duration": 0.1,
                "tempo": 120.0
            },
            {
                "start_time": 66.6772727,
                "end_time": 70.9909091,
                "pitch": 90,
                "velocity": 51,
                "duration": 4.3136364,
                "tempo": 120.0
            },
            {
                "start_time": 70.9909091,
                "end_time": 71.4954545,
                "pitch": 83,
                "velocity": 51,
                "duration": 0.5045455,
                "tempo": 120.0
            },
            {
                "start_time": 71.5295455,
                "end_time": 71.6295455,
                "pitch": 83,
                "velocity": 51,
                "duration": 0.1,
                "tempo": 120.0
            },
            {
                "start_time": 71.7977273,
                "end_time": 71.8977273,
                "pitch": 83,
                "velocity": 51,
                "duration": 0.1,
                "tempo": 120.0
            },
            {
                "start_time": 72.0636364,
                "end_time": 72.1636364,
                "pitch": 81,
                "velocity": 51,
                "duration": 0.1,
                "tempo": 120.0
            },
            {
                "start_time": 70.1818182,
                "end_time": 72.3340909,
                "pitch": 68,
                "velocity": 51,
                "duration": 2.1522727,
                "tempo": 120.0
            },
            {
                "start_time": 70.5840909,
                "end_time": 72.5727273,
                "pitch": 86,
                "velocity": 51,
                "duration": 1.9886364,
                "tempo": 120.0
            },
            {
                "start_time": 72.3340909,
                "end_time": 72.5727273,
                "pitch": 86,
                "velocity": 51,
                "duration": 0.2386364,
                "tempo": 120.0
            },
            {
                "start_time": 72.6090909,
                "end_time": 72.8454545,
                "pitch": 88,
                "velocity": 51,
                "duration": 0.2363636,
                "tempo": 120.0
            },
            {
                "start_time": 64.5227273,
                "end_time": 72.8795455,
                "pitch": 102,
                "velocity": 51,
                "duration": 8.3568182,
                "tempo": 120.0
            },
            {
                "start_time": 72.8795455,
                "end_time": 73.1159091,
                "pitch": 91,
                "velocity": 51,
                "duration": 0.2363636,
                "tempo": 120.0
            },
            {
                "start_time": 66.4068182,
                "end_time": 73.1522727,
                "pitch": 14,
                "velocity": 51,
                "duration": 6.7454545,
                "tempo": 120.0
            },
            {
                "start_time": 73.15,
                "end_time": 73.1522727,
                "pitch": 14,
                "velocity": 51,
                "duration": 0.0022727,
                "tempo": 120.0
            },
            {
                "start_time": 70.9909091,
                "end_time": 74.1909091,
                "pitch": 90,
                "velocity": 51,
                "duration": 3.2,
                "tempo": 120.0
            },
            {
                "start_time": 73.1522727,
                "end_time": 74.1909091,
                "pitch": 90,
                "velocity": 51,
                "duration": 1.0386364,
                "tempo": 120.0
            },
            {
                "start_time": 41.8863636,
                "end_time": 74.7659091,
                "pitch": 78,
                "velocity": 25,
                "duration": 32.8795455,
                "tempo": 120.0
            },
            {
                "start_time": 40.5409091,
                "end_time": 75.0022727,
                "pitch": 74,
                "velocity": 25,
                "duration": 34.4613636,
                "tempo": 120.0
            },
            {
                "start_time": 74.7659091,
                "end_time": 75.0022727,
                "pitch": 74,
                "velocity": 25,
                "duration": 0.2363636,
                "tempo": 120.0
            },
            {
                "start_time": 75.0363636,
                "end_time": 75.2704545,
                "pitch": 76,
                "velocity": 25,
                "duration": 0.2340909,
                "tempo": 120.0
            },
            {
                "start_time": 75.3045455,
                "end_time": 75.4045455,
                "pitch": 79,
                "velocity": 25,
                "duration": 0.1,
                "tempo": 120.0
            },
            {
                "start_time": 40.9409091,
                "end_time": 75.4386364,
                "pitch": 2,
                "velocity": 25,
                "duration": 34.4977273,
                "tempo": 120.0
            },
            {
                "start_time": 74.7659091,
                "end_time": 75.8113636,
                "pitch": 78,
                "velocity": 25,
                "duration": 1.0454545,
                "tempo": 120.0
            },
            {
                "start_time": 75.4386364,
                "end_time": 75.8113636,
                "pitch": 78,
                "velocity": 25,
                "duration": 0.3727273,
                "tempo": 120.0
            },
            {
                "start_time": 41.35,
                "end_time": 75.8454545,
                "pitch": 66,
                "velocity": 25,
                "duration": 34.4954545,
                "tempo": 120.0
            },
            {
                "start_time": 75.8454545,
                "end_time": 75.9477273,
                "pitch": 62,
                "velocity": 25,
                "duration": 0.1022727,
                "tempo": 120.0
            },
            {
                "start_time": 76.1159091,
                "end_time": 76.2159091,
                "pitch": 62,
                "velocity": 25,
                "duration": 0.1,
                "tempo": 120.0
            },
            {
                "start_time": 76.3840909,
                "end_time": 76.4840909,
                "pitch": 67,
                "velocity": 25,
                "duration": 0.1,
                "tempo": 120.0
            }
        ],
        "Church Organ": [
            {
                "start_time": 42.5590909,
                "end_time": 42.7931818,
                "pitch": 66,
                "velocity": 40,
                "duration": 0.2340909,
                "tempo": 120.0
            },
            {
                "start_time": 42.8272727,
                "end_time": 43.0659091,
                "pitch": 66,
                "velocity": 40,
                "duration": 0.2386364,
                "tempo": 120.0
            },
            {
                "start_time": 43.1045455,
                "end_time": 43.3386364,
                "pitch": 64,
                "velocity": 40,
                "duration": 0.2340909,
                "tempo": 120.0
            },
            {
                "start_time": 43.375,
                "end_time": 44.6909091,
                "pitch": 62,
                "velocity": 40,
                "duration": 1.3159091,
                "tempo": 120.0
            },
            {
                "start_time": 44.7272727,
                "end_time": 44.9590909,
                "pitch": 59,
                "velocity": 40,
                "duration": 0.2318182,
                "tempo": 120.0
            },
            {
                "start_time": 44.9931818,
                "end_time": 45.2272727,
                "pitch": 60,
                "velocity": 40,
                "duration": 0.2340909,
                "tempo": 120.0
            },
            {
                "start_time": 45.2590909,
                "end_time": 45.3590909,
                "pitch": 62,
                "velocity": 40,
                "duration": 0.1,
                "tempo": 120.0
            },
            {
                "start_time": 45.3954545,
                "end_time": 46.8409091,
                "pitch": 62,
                "velocity": 40,
                "duration": 1.4454545,
                "tempo": 120.0
            },
            {
                "start_time": 46.8772727,
                "end_time": 47.1090909,
                "pitch": 64,
                "velocity": 40,
                "duration": 0.2318182,
                "tempo": 120.0
            },
            {
                "start_time": 47.1454545,
                "end_time": 47.3772727,
                "pitch": 67,
                "velocity": 40,
                "duration": 0.2318182,
                "tempo": 120.0
            },
            {
                "start_time": 47.4090909,
                "end_time": 48.1886364,
                "pitch": 67,
                "velocity": 40,
                "duration": 0.7795455,
                "tempo": 120.0
            },
            {
                "start_time": 48.2227273,
                "end_time": 48.7272727,
                "pitch": 69,
                "velocity": 40,
                "duration": 0.5045455,
                "tempo": 120.0
            },
            {
                "start_time": 44.7272727,
                "end_time": 49.3045455,
                "pitch": 66,
                "velocity": 40,
                "duration": 4.5772727,
                "tempo": 120.0
            },
            {
                "start_time": 49.3045455,
                "end_time": 49.5363636,
                "pitch": 62,
                "velocity": 40,
                "duration": 0.2318182,
                "tempo": 120.0
            },
            {
                "start_time": 49.5704545,
                "end_time": 49.6704545,
                "pitch": 57,
                "velocity": 40,
                "duration": 0.1,
                "tempo": 120.0
            },
            {
                "start_time": 49.7045455,
                "end_time": 50.8772727,
                "pitch": 57,
                "velocity": 40,
                "duration": 1.1727273,
                "tempo": 120.0
            },
            {
                "start_time": 44.9931818,
                "end_time": 51.1863636,
                "pitch": 44,
                "velocity": 40,
                "duration": 6.1931818,
                "tempo": 120.0
            },
            {
                "start_time": 49.3045455,
                "end_time": 51.4227273,
                "pitch": 66,
                "velocity": 40,
                "duration": 2.1181818,
                "tempo": 120.0
            },
            {
                "start_time": 51.1863636,
                "end_time": 51.4227273,
                "pitch": 66,
                "velocity": 40,
                "duration": 0.2363636,
                "tempo": 120.0
            },
            {
                "start_time": 51.4590909,
                "end_time": 51.6954545,
                "pitch": 66,
                "velocity": 40,
                "duration": 0.2363636,
                "tempo": 120.0
            },
            {
                "start_time": 51.7295455,
                "end_time": 51.8295455,
                "pitch": 64,
                "velocity": 40,
                "duration": 0.1,
                "tempo": 120.0
            },
            {
                "start_time": 51.8636364,
                "end_time": 52.7659091,
                "pitch": 62,
                "velocity": 40,
                "duration": 0.9022727,
                "tempo": 120.0
            },
            {
                "start_time": 52.8022727,
                "end_time": 53.0363636,
                "pitch": 59,
                "velocity": 40,
                "duration": 0.2340909,
                "tempo": 120.0
            },
            {
                "start_time": 51.1863636,
                "end_time": 53.0727273,
                "pitch": 44,
                "velocity": 40,
                "duration": 1.8863636,
                "tempo": 120.0
            },
            {
                "start_time": 45.2590909,
                "end_time": 53.3090909,
                "pitch": 60,
                "velocity": 40,
                "duration": 8.05,
                "tempo": 120.0
            },
            {
                "start_time": 53.0727273,
                "end_time": 53.3090909,
                "pitch": 60,
                "velocity": 40,
                "duration": 0.2363636,
                "tempo": 120.0
            },
            {
                "start_time": 53.3477273,
                "end_time": 53.5772727,
                "pitch": 62,
                "velocity": 40,
                "duration": 0.2295455,
                "tempo": 120.0
            },
            {
                "start_time": 53.6136364,
                "end_time": 53.8454545,
                "pitch": 62,
                "velocity": 40,
                "duration": 0.2318182,
                "tempo": 120.0
            },
            {
                "start_time": 53.8795455,
                "end_time": 53.9795455,
                "pitch": 64,
                "velocity": 40,
                "duration": 0.1,
                "tempo": 120.0
            },
            {
                "start_time": 47.1454545,
                "end_time": 54.0136364,
                "pitch": 79,
                "velocity": 40,
                "duration": 6.8681818,
                "tempo": 120.0
            },
            {
                "start_time": 54.0136364,
                "end_time": 54.925,
                "pitch": 67,
                "velocity": 40,
                "duration": 0.9113636,
                "tempo": 120.0
            },
            {
                "start_time": 55.5068182,
                "end_time": 55.7386364,
                "pitch": 64,
                "velocity": 40,
                "duration": 0.2318182,
                "tempo": 120.0
            },
            {
                "start_time": 54.0136364,
                "end_time": 55.775,
                "pitch": 79,
                "velocity": 40,
                "duration": 1.7613636,
                "tempo": 120.0
            },
            {
                "start_time": 55.775,
                "end_time": 56.0045455,
                "pitch": 67,
                "velocity": 40,
                "duration": 0.2295455,
                "tempo": 120.0
            },
            {
                "start_time": 56.0386364,
                "end_time": 56.1386364,
                "pitch": 67,
                "velocity": 40,
                "duration": 0.1,
                "tempo": 120.0
            },
            {
                "start_time": 56.1727273,
                "end_time": 57.075,
                "pitch": 69,
                "velocity": 40,
                "duration": 0.9022727,
                "tempo": 120.0
            },
            {
                "start_time": 52.8022727,
                "end_time": 58.4318182,
                "pitch": 66,
                "velocity": 40,
                "duration": 5.6295455,
                "tempo": 120.0
            },
            {
                "start_time": 57.9295455,
                "end_time": 58.4318182,
                "pitch": 66,
                "velocity": 40,
                "duration": 0.5022727,
                "tempo": 120.0
            },
            {
                "start_time": 58.4659091,
                "end_time": 58.7,
                "pitch": 64,
                "velocity": 40,
                "duration": 0.2340909,
                "tempo": 120.0
            },
            {
                "start_time": 77.0545455,
                "end_time": 77.2909091,
                "pitch": 66,
                "velocity": 40,
                "duration": 0.2363636,
                "tempo": 120.0
            },
            {
                "start_time": 77.325,
                "end_time": 77.5636364,
                "pitch": 66,
                "velocity": 40,
                "duration": 0.2386364,
                "tempo": 120.0
            },
            {
                "start_time": 77.6,
                "end_time": 77.8340909,
                "pitch": 64,
                "velocity": 40,
                "duration": 0.2340909,
                "tempo": 120.0
            },
            {
                "start_time": 77.8704545,
                "end_time": 79.1863636,
                "pitch": 62,
                "velocity": 40,
                "duration": 1.3159091,
                "tempo": 120.0
            },
            {
                "start_time": 79.225,
                "end_time": 79.4545455,
                "pitch": 59,
                "velocity": 40,
                "duration": 0.2295455,
                "tempo": 120.0
            },
            {
                "start_time": 53.0727273,
                "end_time": 79.4909091,
                "pitch": 44,
                "velocity": 40,
                "duration": 26.4181818,
                "tempo": 120.0
            },
            {
                "start_time": 53.3477273,
                "end_time": 79.7227273,
                "pitch": 60,
                "velocity": 40,
                "duration": 26.375,
                "tempo": 120.0
            },
            {
                "start_time": 79.4909091,
                "end_time": 79.7227273,
                "pitch": 60,
                "velocity": 40,
                "duration": 0.2318182,
                "tempo": 120.0
            },
            {
                "start_time": 79.7568182,
                "end_time": 79.8568182,
                "pitch": 62,
                "velocity": 40,
                "duration": 0.1,
                "tempo": 120.0
            },
            {
                "start_time": 79.8909091,
                "end_time": 81.3363636,
                "pitch": 62,
                "velocity": 40,
                "duration": 1.4454545,
                "tempo": 120.0
            },
            {
                "start_time": 81.375,
                "end_time": 81.6045455,
                "pitch": 64,
                "velocity": 40,
                "duration": 0.2295455,
                "tempo": 120.0
            },
            {
                "start_time": 55.775,
                "end_time": 81.6409091,
                "pitch": 79,
                "velocity": 40,
                "duration": 25.8659091,
                "tempo": 120.0
            },
            {
                "start_time": 81.6409091,
                "end_time": 81.8727273,
                "pitch": 67,
                "velocity": 40,
                "duration": 0.2318182,
                "tempo": 120.0
            },
            {
                "start_time": 81.9068182,
                "end_time": 82.6863636,
                "pitch": 67,
                "velocity": 40,
                "duration": 0.7795455,
                "tempo": 120.0
            },
            {
                "start_time": 82.7204545,
                "end_time": 83.225,
                "pitch": 69,
                "velocity": 40,
                "duration": 0.5045455,
                "tempo": 120.0
            },
            {
                "start_time": 79.225,
                "end_time": 83.8,
                "pitch": 66,
                "velocity": 40,
                "duration": 4.575,
                "tempo": 120.0
            },
            {
                "start_time": 83.8,
                "end_time": 84.0318182,
                "pitch": 62,
                "velocity": 40,
                "duration": 0.2318182,
                "tempo": 120.0
            },
            {
                "start_time": 49.5704545,
                "end_time": 84.0659091,
                "pitch": 65,
                "velocity": 40,
                "duration": 34.4954545,
                "tempo": 120.0
            },
            {
                "start_time": 84.0659091,
                "end_time": 84.1659091,
                "pitch": 57,
                "velocity": 40,
                "duration": 0.1,
                "tempo": 120.0
            },
            {
                "start_time": 84.2,
                "end_time": 85.375,
                "pitch": 57,
                "velocity": 40,
                "duration": 1.175,
                "tempo": 120.0
            },
            {
                "start_time": 79.4909091,
                "end_time": 85.6840909,
                "pitch": 44,
                "velocity": 40,
                "duration": 6.1931818,
                "tempo": 120.0
            },
            {
                "start_time": 83.8,
                "end_time": 85.9181818,
                "pitch": 66,
                "velocity": 40,
                "duration": 2.1181818,
                "tempo": 120.0
            },
            {
                "start_time": 85.6840909,
                "end_time": 85.9181818,
                "pitch": 66,
                "velocity": 40,
                "duration": 0.2340909,
                "tempo": 120.0
            },
            {
                "start_time": 85.9568182,
                "end_time": 86.1909091,
                "pitch": 66,
                "velocity": 40,
                "duration": 0.2340909,
                "tempo": 120.0
            },
            {
                "start_time": 86.225,
                "end_time": 86.325,
                "pitch": 64,
                "velocity": 40,
                "duration": 0.1,
                "tempo": 120.0
            },
            {
                "start_time": 86.3613636,
                "end_time": 87.2636364,
                "pitch": 62,
                "velocity": 40,
                "duration": 0.9022727,
                "tempo": 120.0
            },
            {
                "start_time": 87.2977273,
                "end_time": 87.5340909,
                "pitch": 59,
                "velocity": 40,
                "duration": 0.2363636,
                "tempo": 120.0
            },
            {
                "start_time": 85.6840909,
                "end_time": 87.5704545,
                "pitch": 44,
                "velocity": 40,
                "duration": 1.8863636,
                "tempo": 120.0
            },
            {
                "start_time": 79.7568182,
                "end_time": 87.8068182,
                "pitch": 60,
                "velocity": 40,
                "duration": 8.05,
                "tempo": 120.0
            },
            {
                "start_time": 87.5704545,
                "end_time": 87.8068182,
                "pitch": 60,
                "velocity": 40,
                "duration": 0.2363636,
                "tempo": 120.0
            },
            {
                "start_time": 87.8431818,
                "end_time": 88.075,
                "pitch": 62,
                "velocity": 40,
                "duration": 0.2318182,
                "tempo": 120.0
            },
            {
                "start_time": 88.1113636,
                "end_time": 88.3431818,
                "pitch": 62,
                "velocity": 40,
                "duration": 0.2318182,
                "tempo": 120.0
            },
            {
                "start_time": 88.3772727,
                "end_time": 88.475,
                "pitch": 64,
                "velocity": 40,
                "duration": 0.0977273,
                "tempo": 120.0
            },
            {
                "start_time": 81.6409091,
                "end_time": 88.5113636,
                "pitch": 79,
                "velocity": 40,
                "duration": 6.8704545,
                "tempo": 120.0
            },
            {
                "start_time": 88.5113636,
                "end_time": 89.4204545,
                "pitch": 67,
                "velocity": 40,
                "duration": 0.9090909,
                "tempo": 120.0
            },
            {
                "start_time": 90.0022727,
                "end_time": 90.2340909,
                "pitch": 64,
                "velocity": 40,
                "duration": 0.2318182,
                "tempo": 120.0
            },
            {
                "start_time": 88.5113636,
                "end_time": 90.2704545,
                "pitch": 79,
                "velocity": 40,
                "duration": 1.7590909,
                "tempo": 120.0
            },
            {
                "start_time": 90.2704545,
                "end_time": 90.5022727,
                "pitch": 67,
                "velocity": 40,
                "duration": 0.2318182,
                "tempo": 120.0
            },
            {
                "start_time": 90.5363636,
                "end_time": 90.6363636,
                "pitch": 67,
                "velocity": 40,
                "duration": 0.1,
                "tempo": 120.0
            },
            {
                "start_time": 90.6704545,
                "end_time": 91.5727273,
                "pitch": 69,
                "velocity": 40,
                "duration": 0.9022727,
                "tempo": 120.0
            },
            {
                "start_time": 87.2977273,
                "end_time": 92.6613636,
                "pitch": 66,
                "velocity": 40,
                "duration": 5.3636364,
                "tempo": 120.0
            },
            {
                "start_time": 92.425,
                "end_time": 92.6613636,
                "pitch": 66,
                "velocity": 40,
                "duration": 0.2363636,
                "tempo": 120.0
            },
            {
                "start_time": 92.6977273,
                "end_time": 92.9295455,
                "pitch": 71,
                "velocity": 40,
                "duration": 0.2318182,
                "tempo": 120.0
            }
        ],
        "Trumpet": [
            {
                "start_time": 95.1204545,
                "end_time": 95.6068182,
                "pitch": 71,
                "velocity": 32,
                "duration": 0.4863636,
                "tempo": 120.0
            },
            {
                "start_time": 95.6590909,
                "end_time": 96.1454545,
                "pitch": 71,
                "velocity": 32,
                "duration": 0.4863636,
                "tempo": 120.0
            },
            {
                "start_time": 96.2,
                "end_time": 96.6886364,
                "pitch": 69,
                "velocity": 32,
                "duration": 0.4886364,
                "tempo": 120.0
            },
            {
                "start_time": 96.7409091,
                "end_time": 96.9545455,
                "pitch": 72,
                "velocity": 32,
                "duration": 0.2136364,
                "tempo": 120.0
            },
            {
                "start_time": 97.0068182,
                "end_time": 97.7613636,
                "pitch": 74,
                "velocity": 32,
                "duration": 0.7545455,
                "tempo": 120.0
            },
            {
                "start_time": 97.8136364,
                "end_time": 98.3022727,
                "pitch": 74,
                "velocity": 32,
                "duration": 0.4886364,
                "tempo": 120.0
            },
            {
                "start_time": 97.0068182,
                "end_time": 98.8386364,
                "pitch": 72,
                "velocity": 32,
                "duration": 1.8318182,
                "tempo": 120.0
            },
            {
                "start_time": 98.3545455,
                "end_time": 98.8386364,
                "pitch": 72,
                "velocity": 32,
                "duration": 0.4840909,
                "tempo": 120.0
            },
            {
                "start_time": 98.8886364,
                "end_time": 99.3772727,
                "pitch": 71,
                "velocity": 32,
                "duration": 0.4886364,
                "tempo": 120.0
            },
            {
                "start_time": 99.4295455,
                "end_time": 100.9977273,
                "pitch": 71,
                "velocity": 32,
                "duration": 1.5681818,
                "tempo": 120.0
            },
            {
                "start_time": 101.05,
                "end_time": 101.2636364,
                "pitch": 71,
                "velocity": 32,
                "duration": 0.2136364,
                "tempo": 120.0
            },
            {
                "start_time": 101.3181818,
                "end_time": 102.3454545,
                "pitch": 69,
                "velocity": 32,
                "duration": 1.0272727,
                "tempo": 120.0
            },
            {
                "start_time": 102.3954545,
                "end_time": 102.6113636,
                "pitch": 69,
                "velocity": 32,
                "duration": 0.2159091,
                "tempo": 120.0
            },
            {
                "start_time": 102.6636364,
                "end_time": 103.0136364,
                "pitch": 72,
                "velocity": 32,
                "duration": 0.35,
                "tempo": 120.0
            },
            {
                "start_time": 98.8886364,
                "end_time": 103.0659091,
                "pitch": 76,
                "velocity": 32,
                "duration": 4.1772727,
                "tempo": 120.0
            },
            {
                "start_time": 103.0659091,
                "end_time": 103.4227273,
                "pitch": 71,
                "velocity": 32,
                "duration": 0.3568182,
                "tempo": 120.0
            },
            {
                "start_time": 103.475,
                "end_time": 103.5568182,
                "pitch": 71,
                "velocity": 32,
                "duration": 0.0818182,
                "tempo": 120.0
            },
            {
                "start_time": 103.6090909,
                "end_time": 105.3068182,
                "pitch": 69,
                "velocity": 32,
                "duration": 1.6977273,
                "tempo": 120.0
            },
            {
                "start_time": 105.3590909,
                "end_time": 105.575,
                "pitch": 69,
                "velocity": 32,
                "duration": 0.2159091,
                "tempo": 120.0
            },
            {
                "start_time": 105.625,
                "end_time": 106.6545455,
                "pitch": 67,
                "velocity": 32,
                "duration": 1.0295455,
                "tempo": 120.0
            },
            {
                "start_time": 106.9772727,
                "end_time": 107.1977273,
                "pitch": 64,
                "velocity": 32,
                "duration": 0.2204545,
                "tempo": 120.0
            },
            {
                "start_time": 95.1204545,
                "end_time": 107.25,
                "pitch": 79,
                "velocity": 32,
                "duration": 12.1295455,
                "tempo": 120.0
            },
            {
                "start_time": 107.25,
                "end_time": 107.7340909,
                "pitch": 67,
                "velocity": 32,
                "duration": 0.4840909,
                "tempo": 120.0
            },
            {
                "start_time": 107.7863636,
                "end_time": 109.35,
                "pitch": 67,
                "velocity": 32,
                "duration": 1.5636364,
                "tempo": 120.0
            },
            {
                "start_time": 109.6727273,
                "end_time": 109.8931818,
                "pitch": 66,
                "velocity": 32,
                "duration": 0.2204545,
                "tempo": 120.0
            },
            {
                "start_time": 109.9454545,
                "end_time": 112.3136364,
                "pitch": 64,
                "velocity": 32,
                "duration": 2.3681818,
                "tempo": 120.0
            },
            {
                "start_time": 107.25,
                "end_time": 112.3681818,
                "pitch": 79,
                "velocity": 32,
                "duration": 5.1181818,
                "tempo": 120.0
            },
            {
                "start_time": 112.3681818,
                "end_time": 112.8545455,
                "pitch": 71,
                "velocity": 32,
                "duration": 0.4863636,
                "tempo": 120.0
            },
            {
                "start_time": 112.9068182,
                "end_time": 113.3954545,
                "pitch": 71,
                "velocity": 32,
                "duration": 0.4886364,
                "tempo": 120.0
            },
            {
                "start_time": 113.4477273,
                "end_time": 113.9363636,
                "pitch": 69,
                "velocity": 32,
                "duration": 0.4886364,
                "tempo": 120.0
            },
            {
                "start_time": 96.7409091,
                "end_time": 113.9886364,
                "pitch": 56,
                "velocity": 32,
                "duration": 17.2477273,
                "tempo": 120.0
            },
            {
                "start_time": 113.9886364,
                "end_time": 114.2022727,
                "pitch": 72,
                "velocity": 32,
                "duration": 0.2136364,
                "tempo": 120.0
            },
            {
                "start_time": 98.3545455,
                "end_time": 115.0090909,
                "pitch": 74,
                "velocity": 32,
                "duration": 16.6545455,
                "tempo": 120.0
            },
            {
                "start_time": 114.2545455,
                "end_time": 115.0090909,
                "pitch": 74,
                "velocity": 32,
                "duration": 0.7545455,
                "tempo": 120.0
            },
            {
                "start_time": 115.0613636,
                "end_time": 115.55,
                "pitch": 74,
                "velocity": 32,
                "duration": 0.4886364,
                "tempo": 120.0
            },
            {
                "start_time": 114.2545455,
                "end_time": 116.0863636,
                "pitch": 72,
                "velocity": 32,
                "duration": 1.8318182,
                "tempo": 120.0
            },
            {
                "start_time": 115.6022727,
                "end_time": 116.0863636,
                "pitch": 72,
                "velocity": 32,
                "duration": 0.4840909,
                "tempo": 120.0
            },
            {
                "start_time": 103.0659091,
                "end_time": 116.1363636,
                "pitch": 76,
                "velocity": 32,
                "duration": 13.0704545,
                "tempo": 120.0
            },
            {
                "start_time": 116.1363636,
                "end_time": 116.625,
                "pitch": 71,
                "velocity": 32,
                "duration": 0.4886364,
                "tempo": 120.0
            },
            {
                "start_time": 116.6772727,
                "end_time": 118.2386364,
                "pitch": 71,
                "velocity": 32,
                "duration": 1.5613636,
                "tempo": 120.0
            },
            {
                "start_time": 118.2931818,
                "end_time": 118.5113636,
                "pitch": 71,
                "velocity": 32,
                "duration": 0.2181818,
                "tempo": 120.0
            },
            {
                "start_time": 118.5659091,
                "end_time": 119.5909091,
                "pitch": 69,
                "velocity": 32,
                "duration": 1.025,
                "tempo": 120.0
            },
            {
                "start_time": 119.6431818,
                "end_time": 119.8590909,
                "pitch": 69,
                "velocity": 32,
                "duration": 0.2159091,
                "tempo": 120.0
            },
            {
                "start_time": 102.6636364,
                "end_time": 119.9113636,
                "pitch": 44,
                "velocity": 32,
                "duration": 17.2477273,
                "tempo": 120.0
            },
            {
                "start_time": 119.9113636,
                "end_time": 120.2613636,
                "pitch": 72,
                "velocity": 32,
                "duration": 0.35,
                "tempo": 120.0
            },
            {
                "start_time": 116.1363636,
                "end_time": 120.3136364,
                "pitch": 76,
                "velocity": 32,
                "duration": 4.1772727,
                "tempo": 120.0
            },
            {
                "start_time": 120.3136364,
                "end_time": 120.6704545,
                "pitch": 71,
                "velocity": 32,
                "duration": 0.3568182,
                "tempo": 120.0
            },
            {
                "start_time": 120.725,
                "end_time": 120.8068182,
                "pitch": 71,
                "velocity": 32,
                "duration": 0.0818182,
                "tempo": 120.0
            },
            {
                "start_time": 120.8568182,
                "end_time": 122.5545455,
                "pitch": 69,
                "velocity": 32,
                "duration": 1.6977273,
                "tempo": 120.0
            },
            {
                "start_time": 122.6068182,
                "end_time": 122.8227273,
                "pitch": 69,
                "velocity": 32,
                "duration": 0.2159091,
                "tempo": 120.0
            },
            {
                "start_time": 122.875,
                "end_time": 125.25,
                "pitch": 67,
                "velocity": 32,
                "duration": 2.375,
                "tempo": 120.0
            },
            {
                "start_time": 125.3,
                "end_time": 126.8681818,
                "pitch": 67,
                "velocity": 32,
                "duration": 1.5681818,
                "tempo": 120.0
            },
            {
                "start_time": 126.9204545,
                "end_time": 127.1409091,
                "pitch": 69,
                "velocity": 32,
                "duration": 0.2204545,
                "tempo": 120.0
            },
            {
                "start_time": 122.875,
                "end_time": 127.9431818,
                "pitch": 71,
                "velocity": 32,
                "duration": 5.0681818,
                "tempo": 120.0
            },
            {
                "start_time": 127.1931818,
                "end_time": 127.9431818,
                "pitch": 71,
                "velocity": 32,
                "duration": 0.75,
                "tempo": 120.0
            },
            {
                "start_time": 127.9954545,
                "end_time": 128.4818182,
                "pitch": 69,
                "velocity": 32,
                "duration": 0.4863636,
                "tempo": 120.0
            },
            {
                "start_time": 129.075,
                "end_time": 129.5613636,
                "pitch": 62,
                "velocity": 32,
                "duration": 0.4863636,
                "tempo": 120.0
            },
            {
                "start_time": 129.6136364,
                "end_time": 131.4954545,
                "pitch": 62,
                "velocity": 32,
                "duration": 1.8818182,
                "tempo": 120.0
            }
        ],
        "Acoustic Bass": [
            {
                "start_time": 0.0022727,
                "end_time": 0.0795455,
                "pitch": 40,
                "velocity": 64,
                "duration": 0.0772727,
                "tempo": 120.0
            },
            {
                "start_time": 0.1295455,
                "end_time": 0.2136364,
                "pitch": 40,
                "velocity": 64,
                "duration": 0.0840909,
                "tempo": 120.0
            },
            {
                "start_time": 0.2636364,
                "end_time": 0.3454545,
                "pitch": 38,
                "velocity": 64,
                "duration": 0.0818182,
                "tempo": 120.0
            },
            {
                "start_time": 0.2636364,
                "end_time": 0.4795455,
                "pitch": 40,
                "velocity": 64,
                "duration": 0.2159091,
                "tempo": 120.0
            },
            {
                "start_time": 0.3977273,
                "end_time": 0.4795455,
                "pitch": 40,
                "velocity": 64,
                "duration": 0.0818182,
                "tempo": 120.0
            },
            {
                "start_time": 0.8022727,
                "end_time": 1.025,
                "pitch": 43,
                "velocity": 64,
                "duration": 0.2227273,
                "tempo": 120.0
            },
            {
                "start_time": 1.075,
                "end_time": 1.2840909,
                "pitch": 43,
                "velocity": 64,
                "duration": 0.2090909,
                "tempo": 120.0
            },
            {
                "start_time": 1.3340909,
                "end_time": 1.4136364,
                "pitch": 57,
                "velocity": 64,
                "duration": 0.0795455,
                "tempo": 120.0
            },
            {
                "start_time": 1.4636364,
                "end_time": 1.6772727,
                "pitch": 45,
                "velocity": 64,
                "duration": 0.2136364,
                "tempo": 120.0
            },
            {
                "start_time": 1.7272727,
                "end_time": 1.8136364,
                "pitch": 43,
                "velocity": 64,
                "duration": 0.0863636,
                "tempo": 120.0
            },
            {
                "start_time": 1.8636364,
                "end_time": 1.95,
                "pitch": 55,
                "velocity": 64,
                "duration": 0.0863636,
                "tempo": 120.0
            },
            {
                "start_time": 2.0,
                "end_time": 2.0863636,
                "pitch": 45,
                "velocity": 64,
                "duration": 0.0863636,
                "tempo": 120.0
            },
            {
                "start_time": 2.1363636,
                "end_time": 2.2204545,
                "pitch": 40,
                "velocity": 64,
                "duration": 0.0840909,
                "tempo": 120.0
            },
            {
                "start_time": 2.2727273,
                "end_time": 2.3568182,
                "pitch": 40,
                "velocity": 64,
                "duration": 0.0840909,
                "tempo": 120.0
            },
            {
                "start_time": 0.3977273,
                "end_time": 2.4931818,
                "pitch": 38,
                "velocity": 64,
                "duration": 2.0954545,
                "tempo": 120.0
            },
            {
                "start_time": 2.4090909,
                "end_time": 2.4931818,
                "pitch": 38,
                "velocity": 64,
                "duration": 0.0840909,
                "tempo": 120.0
            },
            {
                "start_time": 2.4090909,
                "end_time": 2.6295455,
                "pitch": 40,
                "velocity": 64,
                "duration": 0.2204545,
                "tempo": 120.0
            },
            {
                "start_time": 2.5454545,
                "end_time": 2.6295455,
                "pitch": 40,
                "velocity": 64,
                "duration": 0.0840909,
                "tempo": 120.0
            },
            {
                "start_time": 0.8022727,
                "end_time": 2.95,
                "pitch": 54,
                "velocity": 64,
                "duration": 2.1477273,
                "tempo": 120.0
            },
            {
                "start_time": 2.95,
                "end_time": 3.1659091,
                "pitch": 43,
                "velocity": 64,
                "duration": 0.2159091,
                "tempo": 120.0
            },
            {
                "start_time": 3.2159091,
                "end_time": 3.4340909,
                "pitch": 43,
                "velocity": 64,
                "duration": 0.2181818,
                "tempo": 120.0
            },
            {
                "start_time": 3.4840909,
                "end_time": 3.5681818,
                "pitch": 57,
                "velocity": 64,
                "duration": 0.0840909,
                "tempo": 120.0
            },
            {
                "start_time": 3.6181818,
                "end_time": 3.8363636,
                "pitch": 45,
                "velocity": 64,
                "duration": 0.2181818,
                "tempo": 120.0
            },
            {
                "start_time": 3.8886364,
                "end_time": 3.9727273,
                "pitch": 43,
                "velocity": 64,
                "duration": 0.0840909,
                "tempo": 120.0
            },
            {
                "start_time": 4.025,
                "end_time": 4.1090909,
                "pitch": 55,
                "velocity": 64,
                "duration": 0.0840909,
                "tempo": 120.0
            },
            {
                "start_time": 4.1590909,
                "end_time": 4.2454545,
                "pitch": 45,
                "velocity": 64,
                "duration": 0.0863636,
                "tempo": 120.0
            },
            {
                "start_time": 2.1363636,
                "end_time": 4.2977273,
                "pitch": 7,
                "velocity": 64,
                "duration": 2.1613636,
                "tempo": 120.0
            },
            {
                "start_time": 4.2977273,
                "end_time": 4.3795455,
                "pitch": 40,
                "velocity": 64,
                "duration": 0.0818182,
                "tempo": 120.0
            },
            {
                "start_time": 4.4295455,
                "end_time": 4.5136364,
                "pitch": 40,
                "velocity": 64,
                "duration": 0.0840909,
                "tempo": 120.0
            },
            {
                "start_time": 2.5454545,
                "end_time": 4.6477273,
                "pitch": 38,
                "velocity": 64,
                "duration": 2.1022727,
                "tempo": 120.0
            },
            {
                "start_time": 4.5636364,
                "end_time": 4.6477273,
                "pitch": 38,
                "velocity": 64,
                "duration": 0.0840909,
                "tempo": 120.0
            },
            {
                "start_time": 4.5636364,
                "end_time": 4.7818182,
                "pitch": 40,
                "velocity": 64,
                "duration": 0.2181818,
                "tempo": 120.0
            },
            {
                "start_time": 4.6977273,
                "end_time": 4.7818182,
                "pitch": 40,
                "velocity": 64,
                "duration": 0.0840909,
                "tempo": 120.0
            },
            {
                "start_time": 2.95,
                "end_time": 5.1113636,
                "pitch": 54,
                "velocity": 64,
                "duration": 2.1613636,
                "tempo": 120.0
            },
            {
                "start_time": 5.1113636,
                "end_time": 5.3409091,
                "pitch": 43,
                "velocity": 64,
                "duration": 0.2295455,
                "tempo": 120.0
            },
            {
                "start_time": 5.3954545,
                "end_time": 5.6,
                "pitch": 43,
                "velocity": 64,
                "duration": 0.2045455,
                "tempo": 120.0
            },
            {
                "start_time": 5.6454545,
                "end_time": 5.725,
                "pitch": 57,
                "velocity": 64,
                "duration": 0.0795455,
                "tempo": 120.0
            },
            {
                "start_time": 5.7727273,
                "end_time": 5.9840909,
                "pitch": 45,
                "velocity": 64,
                "duration": 0.2113636,
                "tempo": 120.0
            },
            {
                "start_time": 6.0340909,
                "end_time": 6.1181818,
                "pitch": 43,
                "velocity": 64,
                "duration": 0.0840909,
                "tempo": 120.0
            },
            {
                "start_time": 6.1704545,
                "end_time": 6.2545455,
                "pitch": 55,
                "velocity": 64,
                "duration": 0.0840909,
                "tempo": 120.0
            },
            {
                "start_time": 6.3068182,
                "end_time": 6.3909091,
                "pitch": 45,
                "velocity": 64,
                "duration": 0.0840909,
                "tempo": 120.0
            },
            {
                "start_time": 4.2977273,
                "end_time": 6.4431818,
                "pitch": 7,
                "velocity": 64,
                "duration": 2.1454545,
                "tempo": 120.0
            },
            {
                "start_time": 6.4431818,
                "end_time": 6.5272727,
                "pitch": 40,
                "velocity": 64,
                "duration": 0.0840909,
                "tempo": 120.0
            },
            {
                "start_time": 6.5795455,
                "end_time": 6.6636364,
                "pitch": 40,
                "velocity": 64,
                "duration": 0.0840909,
                "tempo": 120.0
            },
            {
                "start_time": 4.6977273,
                "end_time": 6.8,
                "pitch": 38,
                "velocity": 64,
                "duration": 2.1022727,
                "tempo": 120.0
            },
            {
                "start_time": 6.7159091,
                "end_time": 6.8,
                "pitch": 38,
                "velocity": 64,
                "duration": 0.0840909,
                "tempo": 120.0
            },
            {
                "start_time": 6.7159091,
                "end_time": 6.9363636,
                "pitch": 40,
                "velocity": 64,
                "duration": 0.2204545,
                "tempo": 120.0
            },
            {
                "start_time": 6.8522727,
                "end_time": 6.9363636,
                "pitch": 40,
                "velocity": 64,
                "duration": 0.0840909,
                "tempo": 120.0
            },
            {
                "start_time": 5.1113636,
                "end_time": 7.2545455,
                "pitch": 54,
                "velocity": 64,
                "duration": 2.1431818,
                "tempo": 120.0
            },
            {
                "start_time": 7.2545455,
                "end_time": 7.4727273,
                "pitch": 43,
                "velocity": 64,
                "duration": 0.2181818,
                "tempo": 120.0
            },
            {
                "start_time": 7.5227273,
                "end_time": 7.7386364,
                "pitch": 43,
                "velocity": 64,
                "duration": 0.2159091,
                "tempo": 120.0
            },
            {
                "start_time": 7.7909091,
                "end_time": 7.8727273,
                "pitch": 57,
                "velocity": 64,
                "duration": 0.0818182,
                "tempo": 120.0
            },
            {
                "start_time": 7.925,
                "end_time": 8.1431818,
                "pitch": 45,
                "velocity": 64,
                "duration": 0.2181818,
                "tempo": 120.0
            },
            {
                "start_time": 8.1931818,
                "end_time": 8.2795455,
                "pitch": 43,
                "velocity": 64,
                "duration": 0.0863636,
                "tempo": 120.0
            },
            {
                "start_time": 8.3295455,
                "end_time": 8.4159091,
                "pitch": 55,
                "velocity": 64,
                "duration": 0.0863636,
                "tempo": 120.0
            },
            {
                "start_time": 8.4659091,
                "end_time": 8.55,
                "pitch": 45,
                "velocity": 64,
                "duration": 0.0840909,
                "tempo": 120.0
            },
            {
                "start_time": 6.4431818,
                "end_time": 8.6022727,
                "pitch": 7,
                "velocity": 64,
                "duration": 2.1590909,
                "tempo": 120.0
            },
            {
                "start_time": 8.6022727,
                "end_time": 8.6863636,
                "pitch": 40,
                "velocity": 64,
                "duration": 0.0840909,
                "tempo": 120.0
            },
            {
                "start_time": 8.7386364,
                "end_time": 8.8227273,
                "pitch": 40,
                "velocity": 64,
                "duration": 0.0840909,
                "tempo": 120.0
            },
            {
                "start_time": 6.8522727,
                "end_time": 8.9590909,
                "pitch": 38,
                "velocity": 64,
                "duration": 2.1068182,
                "tempo": 120.0
            },
            {
                "start_time": 8.875,
                "end_time": 8.9590909,
                "pitch": 38,
                "velocity": 64,
                "duration": 0.0840909,
                "tempo": 120.0
            },
            {
                "start_time": 8.875,
                "end_time": 9.0954545,
                "pitch": 40,
                "velocity": 64,
                "duration": 0.2204545,
                "tempo": 120.0
            },
            {
                "start_time": 9.0113636,
                "end_time": 9.0954545,
                "pitch": 40,
                "velocity": 64,
                "duration": 0.0840909,
                "tempo": 120.0
            },
            {
                "start_time": 7.2545455,
                "end_time": 9.425,
                "pitch": 54,
                "velocity": 64,
                "duration": 2.1704545,
                "tempo": 120.0
            },
            {
                "start_time": 9.425,
                "end_time": 9.65,
                "pitch": 43,
                "velocity": 64,
                "duration": 0.225,
                "tempo": 120.0
            },
            {
                "start_time": 9.7022727,
                "end_time": 9.9113636,
                "pitch": 43,
                "velocity": 64,
                "duration": 0.2090909,
                "tempo": 120.0
            },
            {
                "start_time": 9.9613636,
                "end_time": 10.0409091,
                "pitch": 57,
                "velocity": 64,
                "duration": 0.0795455,
                "tempo": 120.0
            },
            {
                "start_time": 10.0886364,
                "end_time": 10.3022727,
                "pitch": 45,
                "velocity": 64,
                "duration": 0.2136364,
                "tempo": 120.0
            },
            {
                "start_time": 10.3522727,
                "end_time": 10.4363636,
                "pitch": 43,
                "velocity": 64,
                "duration": 0.0840909,
                "tempo": 120.0
            },
            {
                "start_time": 10.4863636,
                "end_time": 10.5704545,
                "pitch": 55,
                "velocity": 64,
                "duration": 0.0840909,
                "tempo": 120.0
            },
            {
                "start_time": 10.6204545,
                "end_time": 10.7045455,
                "pitch": 45,
                "velocity": 64,
                "duration": 0.0840909,
                "tempo": 120.0
            },
            {
                "start_time": 8.6022727,
                "end_time": 10.7545455,
                "pitch": 7,
                "velocity": 64,
                "duration": 2.1522727,
                "tempo": 120.0
            },
            {
                "start_time": 10.7545455,
                "end_time": 10.8386364,
                "pitch": 40,
                "velocity": 64,
                "duration": 0.0840909,
                "tempo": 120.0
            },
            {
                "start_time": 10.8886364,
                "end_time": 10.975,
                "pitch": 40,
                "velocity": 64,
                "duration": 0.0863636,
                "tempo": 120.0
            },
            {
                "start_time": 9.0113636,
                "end_time": 11.1113636,
                "pitch": 38,
                "velocity": 64,
                "duration": 2.1,
                "tempo": 120.0
            },
            {
                "start_time": 11.025,
                "end_time": 11.1113636,
                "pitch": 38,
                "velocity": 64,
                "duration": 0.0863636,
                "tempo": 120.0
            },
            {
                "start_time": 11.025,
                "end_time": 11.2477273,
                "pitch": 40,
                "velocity": 64,
                "duration": 0.2227273,
                "tempo": 120.0
            },
            {
                "start_time": 11.1636364,
                "end_time": 11.2477273,
                "pitch": 40,
                "velocity": 64,
                "duration": 0.0840909,
                "tempo": 120.0
            },
            {
                "start_time": 9.425,
                "end_time": 11.5659091,
                "pitch": 54,
                "velocity": 64,
                "duration": 2.1409091,
                "tempo": 120.0
            },
            {
                "start_time": 11.5659091,
                "end_time": 11.7818182,
                "pitch": 43,
                "velocity": 64,
                "duration": 0.2159091,
                "tempo": 120.0
            },
            {
                "start_time": 11.8340909,
                "end_time": 12.05,
                "pitch": 43,
                "velocity": 64,
                "duration": 0.2159091,
                "tempo": 120.0
            },
            {
                "start_time": 12.1,
                "end_time": 12.1840909,
                "pitch": 57,
                "velocity": 64,
                "duration": 0.0840909,
                "tempo": 120.0
            },
            {
                "start_time": 12.2340909,
                "end_time": 12.4545455,
                "pitch": 45,
                "velocity": 64,
                "duration": 0.2204545,
                "tempo": 120.0
            },
            {
                "start_time": 0.0022727,
                "end_time": 12.6409091,
                "pitch": 0,
                "velocity": 64,
                "duration": 12.6386364,
                "tempo": 120.0
            },
            {
                "start_time": 11.1636364,
                "end_time": 13.1295455,
                "pitch": 38,
                "velocity": 64,
                "duration": 1.9659091,
                "tempo": 120.0
            },
            {
                "start_time": 12.6409091,
                "end_time": 13.1295455,
                "pitch": 38,
                "velocity": 64,
                "duration": 0.4886364,
                "tempo": 120.0
            },
            {
                "start_time": 13.1818182,
                "end_time": 13.3977273,
                "pitch": 38,
                "velocity": 64,
                "duration": 0.2159091,
                "tempo": 120.0
            },
            {
                "start_time": 13.4477273,
                "end_time": 13.6704545,
                "pitch": 38,
                "velocity": 64,
                "duration": 0.2227273,
                "tempo": 120.0
            },
            {
                "start_time": 13.7204545,
                "end_time": 13.9409091,
                "pitch": 38,
                "velocity": 64,
                "duration": 0.2204545,
                "tempo": 120.0
            },
            {
                "start_time": 13.9931818,
                "end_time": 14.2113636,
                "pitch": 38,
                "velocity": 64,
                "duration": 0.2181818,
                "tempo": 120.0
            },
            {
                "start_time": 14.2613636,
                "end_time": 14.4772727,
                "pitch": 38,
                "velocity": 64,
                "duration": 0.2159091,
                "tempo": 120.0
            },
            {
                "start_time": 14.5295455,
                "end_time": 14.75,
                "pitch": 38,
                "velocity": 64,
                "duration": 0.2204545,
                "tempo": 120.0
            },
            {
                "start_time": 14.8,
                "end_time": 15.2909091,
                "pitch": 38,
                "velocity": 64,
                "duration": 0.4909091,
                "tempo": 120.0
            },
            {
                "start_time": 15.3409091,
                "end_time": 15.5568182,
                "pitch": 38,
                "velocity": 64,
                "duration": 0.2159091,
                "tempo": 120.0
            },
            {
                "start_time": 15.6068182,
                "end_time": 15.8295455,
                "pitch": 38,
                "velocity": 64,
                "duration": 0.2227273,
                "tempo": 120.0
            },
            {
                "start_time": 15.8795455,
                "end_time": 16.1,
                "pitch": 38,
                "velocity": 64,
                "duration": 0.2204545,
                "tempo": 120.0
            },
            {
                "start_time": 16.1522727,
                "end_time": 16.3704545,
                "pitch": 38,
                "velocity": 64,
                "duration": 0.2181818,
                "tempo": 120.0
            },
            {
                "start_time": 16.6886364,
                "end_time": 16.7727273,
                "pitch": 38,
                "velocity": 64,
                "duration": 0.0840909,
                "tempo": 120.0
            },
            {
                "start_time": 16.8227273,
                "end_time": 17.0454545,
                "pitch": 38,
                "velocity": 64,
                "duration": 0.2227273,
                "tempo": 120.0
            },
            {
                "start_time": 17.0954545,
                "end_time": 17.3159091,
                "pitch": 39,
                "velocity": 64,
                "duration": 0.2204545,
                "tempo": 120.0
            },
            {
                "start_time": 17.3659091,
                "end_time": 17.45,
                "pitch": 40,
                "velocity": 64,
                "duration": 0.0840909,
                "tempo": 120.0
            },
            {
                "start_time": 17.5,
                "end_time": 17.5840909,
                "pitch": 38,
                "velocity": 64,
                "duration": 0.0840909,
                "tempo": 120.0
            },
            {
                "start_time": 17.5,
                "end_time": 17.7181818,
                "pitch": 40,
                "velocity": 64,
                "duration": 0.2181818,
                "tempo": 120.0
            },
            {
                "start_time": 17.6340909,
                "end_time": 17.7181818,
                "pitch": 40,
                "velocity": 64,
                "duration": 0.0840909,
                "tempo": 120.0
            },
            {
                "start_time": 11.5659091,
                "end_time": 18.0340909,
                "pitch": 54,
                "velocity": 64,
                "duration": 6.4681818,
                "tempo": 120.0
            },
            {
                "start_time": 18.0340909,
                "end_time": 18.2522727,
                "pitch": 43,
                "velocity": 64,
                "duration": 0.2181818,
                "tempo": 120.0
            },
            {
                "start_time": 18.3022727,
                "end_time": 18.5204545,
                "pitch": 43,
                "velocity": 64,
                "duration": 0.2181818,
                "tempo": 120.0
            },
            {
                "start_time": 18.5704545,
                "end_time": 18.6545455,
                "pitch": 57,
                "velocity": 64,
                "duration": 0.0840909,
                "tempo": 120.0
            },
            {
                "start_time": 18.7045455,
                "end_time": 18.9227273,
                "pitch": 45,
                "velocity": 64,
                "duration": 0.2181818,
                "tempo": 120.0
            },
            {
                "start_time": 18.975,
                "end_time": 19.0590909,
                "pitch": 43,
                "velocity": 64,
                "duration": 0.0840909,
                "tempo": 120.0
            },
            {
                "start_time": 19.1090909,
                "end_time": 19.1954545,
                "pitch": 55,
                "velocity": 64,
                "duration": 0.0863636,
                "tempo": 120.0
            },
            {
                "start_time": 19.2454545,
                "end_time": 19.3318182,
                "pitch": 45,
                "velocity": 64,
                "duration": 0.0863636,
                "tempo": 120.0
            },
            {
                "start_time": 10.7545455,
                "end_time": 19.3840909,
                "pitch": 7,
                "velocity": 64,
                "duration": 8.6295455,
                "tempo": 120.0
            },
            {
                "start_time": 19.3840909,
                "end_time": 19.4659091,
                "pitch": 40,
                "velocity": 64,
                "duration": 0.0818182,
                "tempo": 120.0
            },
            {
                "start_time": 19.5159091,
                "end_time": 19.6,
                "pitch": 40,
                "velocity": 64,
                "duration": 0.0840909,
                "tempo": 120.0
            },
            {
                "start_time": 17.6340909,
                "end_time": 19.7340909,
                "pitch": 38,
                "velocity": 64,
                "duration": 2.1,
                "tempo": 120.0
            },
            {
                "start_time": 19.65,
                "end_time": 19.7340909,
                "pitch": 38,
                "velocity": 64,
                "duration": 0.0840909,
                "tempo": 120.0
            },
            {
                "start_time": 19.65,
                "end_time": 19.8681818,
                "pitch": 40,
                "velocity": 64,
                "duration": 0.2181818,
                "tempo": 120.0
            },
            {
                "start_time": 19.7840909,
                "end_time": 19.8681818,
                "pitch": 40,
                "velocity": 64,
                "duration": 0.0840909,
                "tempo": 120.0
            },
            {
                "start_time": 18.0340909,
                "end_time": 20.1909091,
                "pitch": 54,
                "velocity": 64,
                "duration": 2.1568182,
                "tempo": 120.0
            },
            {
                "start_time": 20.1909091,
                "end_time": 20.4113636,
                "pitch": 43,
                "velocity": 64,
                "duration": 0.2204545,
                "tempo": 120.0
            },
            {
                "start_time": 20.4636364,
                "end_time": 20.6795455,
                "pitch": 43,
                "velocity": 64,
                "duration": 0.2159091,
                "tempo": 120.0
            },
            {
                "start_time": 20.7295455,
                "end_time": 20.8136364,
                "pitch": 57,
                "velocity": 64,
                "duration": 0.0840909,
                "tempo": 120.0
            },
            {
                "start_time": 20.8636364,
                "end_time": 21.0795455,
                "pitch": 45,
                "velocity": 64,
                "duration": 0.2159091,
                "tempo": 120.0
            },
            {
                "start_time": 21.1318182,
                "end_time": 21.2136364,
                "pitch": 43,
                "velocity": 64,
                "duration": 0.0818182,
                "tempo": 120.0
            },
            {
                "start_time": 21.2659091,
                "end_time": 21.3477273,
                "pitch": 55,
                "velocity": 64,
                "duration": 0.0818182,
                "tempo": 120.0
            },
            {
                "start_time": 21.3977273,
                "end_time": 21.4818182,
                "pitch": 45,
                "velocity": 64,
                "duration": 0.0840909,
                "tempo": 120.0
            },
            {
                "start_time": 19.3840909,
                "end_time": 21.5340909,
                "pitch": 7,
                "velocity": 64,
                "duration": 2.15,
                "tempo": 120.0
            },
            {
                "start_time": 21.5340909,
                "end_time": 21.6181818,
                "pitch": 40,
                "velocity": 64,
                "duration": 0.0840909,
                "tempo": 120.0
            },
            {
                "start_time": 21.6681818,
                "end_time": 21.7522727,
                "pitch": 40,
                "velocity": 64,
                "duration": 0.0840909,
                "tempo": 120.0
            },
            {
                "start_time": 19.7840909,
                "end_time": 21.8886364,
                "pitch": 38,
                "velocity": 64,
                "duration": 2.1045455,
                "tempo": 120.0
            },
            {
                "start_time": 21.8045455,
                "end_time": 21.8886364,
                "pitch": 38,
                "velocity": 64,
                "duration": 0.0840909,
                "tempo": 120.0
            },
            {
                "start_time": 21.8045455,
                "end_time": 22.025,
                "pitch": 40,
                "velocity": 64,
                "duration": 0.2204545,
                "tempo": 120.0
            },
            {
                "start_time": 21.9409091,
                "end_time": 22.025,
                "pitch": 40,
                "velocity": 64,
                "duration": 0.0840909,
                "tempo": 120.0
            },
            {
                "start_time": 20.1909091,
                "end_time": 22.3454545,
                "pitch": 54,
                "velocity": 64,
                "duration": 2.1545455,
                "tempo": 120.0
            },
            {
                "start_time": 22.3454545,
                "end_time": 22.5613636,
                "pitch": 43,
                "velocity": 64,
                "duration": 0.2159091,
                "tempo": 120.0
            },
            {
                "start_time": 22.6136364,
                "end_time": 22.8318182,
                "pitch": 43,
                "velocity": 64,
                "duration": 0.2181818,
                "tempo": 120.0
            },
            {
                "start_time": 22.8840909,
                "end_time": 22.9681818,
                "pitch": 57,
                "velocity": 64,
                "duration": 0.0840909,
                "tempo": 120.0
            },
            {
                "start_time": 23.0204545,
                "end_time": 23.2409091,
                "pitch": 45,
                "velocity": 64,
                "duration": 0.2204545,
                "tempo": 120.0
            },
            {
                "start_time": 23.2909091,
                "end_time": 23.375,
                "pitch": 43,
                "velocity": 64,
                "duration": 0.0840909,
                "tempo": 120.0
            },
            {
                "start_time": 23.425,
                "end_time": 23.5068182,
                "pitch": 55,
                "velocity": 64,
                "duration": 0.0818182,
                "tempo": 120.0
            },
            {
                "start_time": 23.5590909,
                "end_time": 23.6409091,
                "pitch": 45,
                "velocity": 64,
                "duration": 0.0818182,
                "tempo": 120.0
            },
            {
                "start_time": 21.5340909,
                "end_time": 23.6931818,
                "pitch": 7,
                "velocity": 64,
                "duration": 2.1590909,
                "tempo": 120.0
            },
            {
                "start_time": 23.6931818,
                "end_time": 23.7772727,
                "pitch": 40,
                "velocity": 64,
                "duration": 0.0840909,
                "tempo": 120.0
            },
            {
                "start_time": 23.9636364,
                "end_time": 24.05,
                "pitch": 40,
                "velocity": 64,
                "duration": 0.0863636,
                "tempo": 120.0
            },
            {
                "start_time": 24.2363636,
                "end_time": 24.3204545,
                "pitch": 40,
                "velocity": 64,
                "duration": 0.0840909,
                "tempo": 120.0
            },
            {
                "start_time": 24.5045455,
                "end_time": 24.5886364,
                "pitch": 40,
                "velocity": 64,
                "duration": 0.0840909,
                "tempo": 120.0
            },
            {
                "start_time": 24.7727273,
                "end_time": 24.8545455,
                "pitch": 40,
                "velocity": 64,
                "duration": 0.0818182,
                "tempo": 120.0
            },
            {
                "start_time": 25.8431818,
                "end_time": 25.9272727,
                "pitch": 40,
                "velocity": 64,
                "duration": 0.0840909,
                "tempo": 120.0
            },
            {
                "start_time": 25.9772727,
                "end_time": 26.0636364,
                "pitch": 40,
                "velocity": 64,
                "duration": 0.0863636,
                "tempo": 120.0
            },
            {
                "start_time": 21.9409091,
                "end_time": 26.2,
                "pitch": 38,
                "velocity": 64,
                "duration": 4.2590909,
                "tempo": 120.0
            },
            {
                "start_time": 26.1136364,
                "end_time": 26.2,
                "pitch": 38,
                "velocity": 64,
                "duration": 0.0863636,
                "tempo": 120.0
            },
            {
                "start_time": 26.1136364,
                "end_time": 26.4704545,
                "pitch": 40,
                "velocity": 64,
                "duration": 0.3568182,
                "tempo": 120.0
            },
            {
                "start_time": 26.3863636,
                "end_time": 26.4704545,
                "pitch": 40,
                "velocity": 64,
                "duration": 0.0840909,
                "tempo": 120.0
            },
            {
                "start_time": 22.3454545,
                "end_time": 26.6545455,
                "pitch": 54,
                "velocity": 64,
                "duration": 4.3090909,
                "tempo": 120.0
            },
            {
                "start_time": 26.6545455,
                "end_time": 26.8704545,
                "pitch": 43,
                "velocity": 64,
                "duration": 0.2159091,
                "tempo": 120.0
            },
            {
                "start_time": 26.9227273,
                "end_time": 27.0068182,
                "pitch": 43,
                "velocity": 64,
                "duration": 0.0840909,
                "tempo": 120.0
            },
            {
                "start_time": 27.4659091,
                "end_time": 27.55,
                "pitch": 45,
                "velocity": 64,
                "duration": 0.0840909,
                "tempo": 120.0
            },
            {
                "start_time": 27.6,
                "end_time": 27.95,
                "pitch": 43,
                "velocity": 64,
                "duration": 0.35,
                "tempo": 120.0
            },
            {
                "start_time": 23.6931818,
                "end_time": 28.0022727,
                "pitch": 7,
                "velocity": 64,
                "duration": 4.3090909,
                "tempo": 120.0
            },
            {
                "start_time": 28.0022727,
                "end_time": 28.0863636,
                "pitch": 40,
                "velocity": 64,
                "duration": 0.0840909,
                "tempo": 120.0
            },
            {
                "start_time": 28.1386364,
                "end_time": 28.2227273,
                "pitch": 40,
                "velocity": 64,
                "duration": 0.0840909,
                "tempo": 120.0
            },
            {
                "start_time": 26.3863636,
                "end_time": 28.3590909,
                "pitch": 38,
                "velocity": 64,
                "duration": 1.9727273,
                "tempo": 120.0
            },
            {
                "start_time": 28.275,
                "end_time": 28.3590909,
                "pitch": 38,
                "velocity": 64,
                "duration": 0.0840909,
                "tempo": 120.0
            },
            {
                "start_time": 28.5454545,
                "end_time": 28.5477273,
                "pitch": 38,
                "velocity": 64,
                "duration": 0.0022727,
                "tempo": 120.0
            },
            {
                "start_time": 28.275,
                "end_time": 28.6295455,
                "pitch": 40,
                "velocity": 64,
                "duration": 0.3545455,
                "tempo": 120.0
            },
            {
                "start_time": 28.5477273,
                "end_time": 28.6295455,
                "pitch": 40,
                "velocity": 64,
                "duration": 0.0818182,
                "tempo": 120.0
            },
            {
                "start_time": 26.6545455,
                "end_time": 28.8136364,
                "pitch": 54,
                "velocity": 64,
                "duration": 2.1590909,
                "tempo": 120.0
            },
            {
                "start_time": 28.8136364,
                "end_time": 29.0318182,
                "pitch": 43,
                "velocity": 64,
                "duration": 0.2181818,
                "tempo": 120.0
            },
            {
                "start_time": 29.0818182,
                "end_time": 29.1636364,
                "pitch": 47,
                "velocity": 64,
                "duration": 0.0818182,
                "tempo": 120.0
            },
            {
                "start_time": 29.0818182,
                "end_time": 29.4318182,
                "pitch": 43,
                "velocity": 64,
                "duration": 0.35,
                "tempo": 120.0
            },
            {
                "start_time": 29.3477273,
                "end_time": 29.4318182,
                "pitch": 43,
                "velocity": 64,
                "duration": 0.0840909,
                "tempo": 120.0
            },
            {
                "start_time": 29.6159091,
                "end_time": 29.7,
                "pitch": 43,
                "velocity": 64,
                "duration": 0.0840909,
                "tempo": 120.0
            },
            {
                "start_time": 29.7522727,
                "end_time": 30.1090909,
                "pitch": 45,
                "velocity": 64,
                "duration": 0.3568182,
                "tempo": 120.0
            },
            {
                "start_time": 12.6409091,
                "end_time": 30.1613636,
                "pitch": 0,
                "velocity": 64,
                "duration": 17.5204545,
                "tempo": 120.0
            },
            {
                "start_time": 30.1613636,
                "end_time": 30.2454545,
                "pitch": 38,
                "velocity": 64,
                "duration": 0.0840909,
                "tempo": 120.0
            },
            {
                "start_time": 30.2977273,
                "end_time": 30.3818182,
                "pitch": 38,
                "velocity": 64,
                "duration": 0.0840909,
                "tempo": 120.0
            },
            {
                "start_time": 30.4340909,
                "end_time": 30.5181818,
                "pitch": 33,
                "velocity": 64,
                "duration": 0.0840909,
                "tempo": 120.0
            },
            {
                "start_time": 28.0022727,
                "end_time": 30.7068182,
                "pitch": 7,
                "velocity": 64,
                "duration": 2.7045455,
                "tempo": 120.0
            },
            {
                "start_time": 30.7068182,
                "end_time": 30.7886364,
                "pitch": 38,
                "velocity": 64,
                "duration": 0.0818182,
                "tempo": 120.0
            },
            {
                "start_time": 30.9727273,
                "end_time": 31.0568182,
                "pitch": 40,
                "velocity": 64,
                "duration": 0.0840909,
                "tempo": 120.0
            },
            {
                "start_time": 31.2409091,
                "end_time": 31.325,
                "pitch": 40,
                "velocity": 64,
                "duration": 0.0840909,
                "tempo": 120.0
            },
            {
                "start_time": 31.7772727,
                "end_time": 31.8613636,
                "pitch": 42,
                "velocity": 64,
                "duration": 0.0840909,
                "tempo": 120.0
            },
            {
                "start_time": 31.9113636,
                "end_time": 32.2681818,
                "pitch": 40,
                "velocity": 64,
                "duration": 0.3568182,
                "tempo": 120.0
            },
            {
                "start_time": 30.9727273,
                "end_time": 32.4045455,
                "pitch": 38,
                "velocity": 64,
                "duration": 1.4318182,
                "tempo": 120.0
            },
            {
                "start_time": 32.3204545,
                "end_time": 32.4045455,
                "pitch": 38,
                "velocity": 64,
                "duration": 0.0840909,
                "tempo": 120.0
            },
            {
                "start_time": 32.4545455,
                "end_time": 32.5386364,
                "pitch": 38,
                "velocity": 64,
                "duration": 0.0840909,
                "tempo": 120.0
            },
            {
                "start_time": 30.4340909,
                "end_time": 32.5886364,
                "pitch": 41,
                "velocity": 64,
                "duration": 2.1545455,
                "tempo": 120.0
            },
            {
                "start_time": 32.5886364,
                "end_time": 32.6727273,
                "pitch": 33,
                "velocity": 64,
                "duration": 0.0840909,
                "tempo": 120.0
            },
            {
                "start_time": 30.7068182,
                "end_time": 32.8568182,
                "pitch": 7,
                "velocity": 64,
                "duration": 2.15,
                "tempo": 120.0
            },
            {
                "start_time": 32.8568182,
                "end_time": 32.9386364,
                "pitch": 38,
                "velocity": 64,
                "duration": 0.0818182,
                "tempo": 120.0
            },
            {
                "start_time": 33.1227273,
                "end_time": 33.2068182,
                "pitch": 40,
                "velocity": 64,
                "duration": 0.0840909,
                "tempo": 120.0
            },
            {
                "start_time": 33.3909091,
                "end_time": 33.475,
                "pitch": 40,
                "velocity": 64,
                "duration": 0.0840909,
                "tempo": 120.0
            },
            {
                "start_time": 28.8136364,
                "end_time": 33.9363636,
                "pitch": 54,
                "velocity": 64,
                "duration": 5.1227273,
                "tempo": 120.0
            },
            {
                "start_time": 33.9363636,
                "end_time": 34.0181818,
                "pitch": 43,
                "velocity": 64,
                "duration": 0.0818182,
                "tempo": 120.0
            },
            {
                "start_time": 30.1613636,
                "end_time": 34.0704545,
                "pitch": 0,
                "velocity": 64,
                "duration": 3.9090909,
                "tempo": 120.0
            },
            {
                "start_time": 32.3204545,
                "end_time": 34.2863636,
                "pitch": 42,
                "velocity": 64,
                "duration": 1.9659091,
                "tempo": 120.0
            },
            {
                "start_time": 34.0704545,
                "end_time": 34.2863636,
                "pitch": 42,
                "velocity": 64,
                "duration": 0.2159091,
                "tempo": 120.0
            },
            {
                "start_time": 33.1227273,
                "end_time": 34.4204545,
                "pitch": 38,
                "velocity": 64,
                "duration": 1.2977273,
                "tempo": 120.0
            },
            {
                "start_time": 34.3363636,
                "end_time": 34.4204545,
                "pitch": 38,
                "velocity": 64,
                "duration": 0.0840909,
                "tempo": 120.0
            },
            {
                "start_time": 34.4704545,
                "end_time": 34.5545455,
                "pitch": 40,
                "velocity": 64,
                "duration": 0.0840909,
                "tempo": 120.0
            },
            {
                "start_time": 34.6068182,
                "end_time": 34.6909091,
                "pitch": 40,
                "velocity": 64,
                "duration": 0.0840909,
                "tempo": 120.0
            },
            {
                "start_time": 34.4704545,
                "end_time": 34.8272727,
                "pitch": 38,
                "velocity": 64,
                "duration": 0.3568182,
                "tempo": 120.0
            },
            {
                "start_time": 34.7431818,
                "end_time": 34.8272727,
                "pitch": 38,
                "velocity": 64,
                "duration": 0.0840909,
                "tempo": 120.0
            },
            {
                "start_time": 34.7431818,
                "end_time": 35.0977273,
                "pitch": 40,
                "velocity": 64,
                "duration": 0.3545455,
                "tempo": 120.0
            },
            {
                "start_time": 35.0159091,
                "end_time": 35.0977273,
                "pitch": 40,
                "velocity": 64,
                "duration": 0.0818182,
                "tempo": 120.0
            },
            {
                "start_time": 33.9363636,
                "end_time": 35.2840909,
                "pitch": 54,
                "velocity": 64,
                "duration": 1.3477273,
                "tempo": 120.0
            },
            {
                "start_time": 35.2840909,
                "end_time": 35.5,
                "pitch": 43,
                "velocity": 64,
                "duration": 0.2159091,
                "tempo": 120.0
            },
            {
                "start_time": 35.5522727,
                "end_time": 35.6340909,
                "pitch": 43,
                "velocity": 64,
                "duration": 0.0818182,
                "tempo": 120.0
            },
            {
                "start_time": 36.0863636,
                "end_time": 36.1704545,
                "pitch": 45,
                "velocity": 64,
                "duration": 0.0840909,
                "tempo": 120.0
            },
            {
                "start_time": 36.2227273,
                "end_time": 36.5795455,
                "pitch": 43,
                "velocity": 64,
                "duration": 0.3568182,
                "tempo": 120.0
            },
            {
                "start_time": 32.8568182,
                "end_time": 36.6295455,
                "pitch": 7,
                "velocity": 64,
                "duration": 3.7727273,
                "tempo": 120.0
            },
            {
                "start_time": 36.6295455,
                "end_time": 36.7159091,
                "pitch": 40,
                "velocity": 64,
                "duration": 0.0863636,
                "tempo": 120.0
            },
            {
                "start_time": 36.7659091,
                "end_time": 36.8522727,
                "pitch": 40,
                "velocity": 64,
                "duration": 0.0863636,
                "tempo": 120.0
            },
            {
                "start_time": 35.0159091,
                "end_time": 36.9863636,
                "pitch": 38,
                "velocity": 64,
                "duration": 1.9704545,
                "tempo": 120.0
            },
            {
                "start_time": 36.9022727,
                "end_time": 36.9863636,
                "pitch": 38,
                "velocity": 64,
                "duration": 0.0840909,
                "tempo": 120.0
            },
            {
                "start_time": 36.9022727,
                "end_time": 37.2568182,
                "pitch": 40,
                "velocity": 64,
                "duration": 0.3545455,
                "tempo": 120.0
            },
            {
                "start_time": 37.175,
                "end_time": 37.2568182,
                "pitch": 40,
                "velocity": 64,
                "duration": 0.0818182,
                "tempo": 120.0
            },
            {
                "start_time": 35.2840909,
                "end_time": 37.4386364,
                "pitch": 54,
                "velocity": 64,
                "duration": 2.1545455,
                "tempo": 120.0
            },
            {
                "start_time": 37.4386364,
                "end_time": 37.6522727,
                "pitch": 43,
                "velocity": 64,
                "duration": 0.2136364,
                "tempo": 120.0
            },
            {
                "start_time": 29.3477273,
                "end_time": 37.7863636,
                "pitch": 47,
                "velocity": 64,
                "duration": 8.4386364,
                "tempo": 120.0
            },
            {
                "start_time": 37.7022727,
                "end_time": 37.7863636,
                "pitch": 47,
                "velocity": 64,
                "duration": 0.0840909,
                "tempo": 120.0
            },
            {
                "start_time": 37.7022727,
                "end_time": 38.0568182,
                "pitch": 43,
                "velocity": 64,
                "duration": 0.3545455,
                "tempo": 120.0
            },
            {
                "start_time": 37.9727273,
                "end_time": 38.0568182,
                "pitch": 43,
                "velocity": 64,
                "duration": 0.0840909,
                "tempo": 120.0
            },
            {
                "start_time": 38.2454545,
                "end_time": 38.3295455,
                "pitch": 43,
                "velocity": 64,
                "duration": 0.0840909,
                "tempo": 120.0
            },
            {
                "start_time": 38.3818182,
                "end_time": 38.7386364,
                "pitch": 45,
                "velocity": 64,
                "duration": 0.3568182,
                "tempo": 120.0
            },
            {
                "start_time": 34.0704545,
                "end_time": 38.7909091,
                "pitch": 0,
                "velocity": 64,
                "duration": 4.7204545,
                "tempo": 120.0
            },
            {
                "start_time": 37.175,
                "end_time": 38.8727273,
                "pitch": 38,
                "velocity": 64,
                "duration": 1.6977273,
                "tempo": 120.0
            },
            {
                "start_time": 38.7909091,
                "end_time": 38.8727273,
                "pitch": 38,
                "velocity": 64,
                "duration": 0.0818182,
                "tempo": 120.0
            },
            {
                "start_time": 38.925,
                "end_time": 39.0068182,
                "pitch": 38,
                "velocity": 64,
                "duration": 0.0818182,
                "tempo": 120.0
            },
            {
                "start_time": 32.5886364,
                "end_time": 39.0568182,
                "pitch": 41,
                "velocity": 64,
                "duration": 6.4681818,
                "tempo": 120.0
            },
            {
                "start_time": 39.0568182,
                "end_time": 39.1409091,
                "pitch": 33,
                "velocity": 64,
                "duration": 0.0840909,
                "tempo": 120.0
            },
            {
                "start_time": 36.6295455,
                "end_time": 39.325,
                "pitch": 7,
                "velocity": 64,
                "duration": 2.6954545,
                "tempo": 120.0
            },
            {
                "start_time": 39.325,
                "end_time": 39.4090909,
                "pitch": 38,
                "velocity": 64,
                "duration": 0.0840909,
                "tempo": 120.0
            },
            {
                "start_time": 39.5931818,
                "end_time": 39.6772727,
                "pitch": 40,
                "velocity": 64,
                "duration": 0.0840909,
                "tempo": 120.0
            },
            {
                "start_time": 39.8613636,
                "end_time": 39.9454545,
                "pitch": 40,
                "velocity": 64,
                "duration": 0.0840909,
                "tempo": 120.0
            },
            {
                "start_time": 34.3363636,
                "end_time": 40.4886364,
                "pitch": 42,
                "velocity": 64,
                "duration": 6.1522727,
                "tempo": 120.0
            },
            {
                "start_time": 40.4045455,
                "end_time": 40.4886364,
                "pitch": 42,
                "velocity": 64,
                "duration": 0.0840909,
                "tempo": 120.0
            },
            {
                "start_time": 40.5386364,
                "end_time": 40.8909091,
                "pitch": 40,
                "velocity": 64,
                "duration": 0.3522727,
                "tempo": 120.0
            },
            {
                "start_time": 39.5931818,
                "end_time": 41.025,
                "pitch": 38,
                "velocity": 64,
                "duration": 1.4318182,
                "tempo": 120.0
            },
            {
                "start_time": 40.9409091,
                "end_time": 41.025,
                "pitch": 38,
                "velocity": 64,
                "duration": 0.0840909,
                "tempo": 120.0
            },
            {
                "start_time": 41.0772727,
                "end_time": 41.1613636,
                "pitch": 38,
                "velocity": 64,
                "duration": 0.0840909,
                "tempo": 120.0
            },
            {
                "start_time": 39.0568182,
                "end_time": 41.2136364,
                "pitch": 41,
                "velocity": 64,
                "duration": 2.1568182,
                "tempo": 120.0
            },
            {
                "start_time": 41.2136364,
                "end_time": 41.2977273,
                "pitch": 33,
                "velocity": 64,
                "duration": 0.0840909,
                "tempo": 120.0
            },
            {
                "start_time": 39.325,
                "end_time": 41.4863636,
                "pitch": 7,
                "velocity": 64,
                "duration": 2.1613636,
                "tempo": 120.0
            },
            {
                "start_time": 41.4863636,
                "end_time": 41.5681818,
                "pitch": 38,
                "velocity": 64,
                "duration": 0.0818182,
                "tempo": 120.0
            },
            {
                "start_time": 41.7522727,
                "end_time": 41.8363636,
                "pitch": 40,
                "velocity": 64,
                "duration": 0.0840909,
                "tempo": 120.0
            },
            {
                "start_time": 42.0204545,
                "end_time": 42.1022727,
                "pitch": 40,
                "velocity": 64,
                "duration": 0.0818182,
                "tempo": 120.0
            },
            {
                "start_time": 37.4386364,
                "end_time": 42.5568182,
                "pitch": 54,
                "velocity": 64,
                "duration": 5.1181818,
                "tempo": 120.0
            },
            {
                "start_time": 42.5568182,
                "end_time": 42.6409091,
                "pitch": 43,
                "velocity": 64,
                "duration": 0.0840909,
                "tempo": 120.0
            },
            {
                "start_time": 38.7909091,
                "end_time": 42.6909091,
                "pitch": 0,
                "velocity": 64,
                "duration": 3.9,
                "tempo": 120.0
            },
            {
                "start_time": 40.9409091,
                "end_time": 42.9113636,
                "pitch": 42,
                "velocity": 64,
                "duration": 1.9704545,
                "tempo": 120.0
            },
            {
                "start_time": 42.6909091,
                "end_time": 42.9113636,
                "pitch": 42,
                "velocity": 64,
                "duration": 0.2204545,
                "tempo": 120.0
            },
            {
                "start_time": 41.7522727,
                "end_time": 43.0477273,
                "pitch": 38,
                "velocity": 64,
                "duration": 1.2954545,
                "tempo": 120.0
            },
            {
                "start_time": 42.9636364,
                "end_time": 43.0477273,
                "pitch": 38,
                "velocity": 64,
                "duration": 0.0840909,
                "tempo": 120.0
            },
            {
                "start_time": 43.1,
                "end_time": 43.3204545,
                "pitch": 36,
                "velocity": 64,
                "duration": 0.2204545,
                "tempo": 120.0
            },
            {
                "start_time": 43.3727273,
                "end_time": 43.5931818,
                "pitch": 36,
                "velocity": 64,
                "duration": 0.2204545,
                "tempo": 120.0
            },
            {
                "start_time": 43.6454545,
                "end_time": 43.8613636,
                "pitch": 36,
                "velocity": 64,
                "duration": 0.2159091,
                "tempo": 120.0
            },
            {
                "start_time": 43.9136364,
                "end_time": 44.1295455,
                "pitch": 36,
                "velocity": 64,
                "duration": 0.2159091,
                "tempo": 120.0
            },
            {
                "start_time": 44.1795455,
                "end_time": 44.4,
                "pitch": 36,
                "velocity": 64,
                "duration": 0.2204545,
                "tempo": 120.0
            },
            {
                "start_time": 44.4522727,
                "end_time": 44.6727273,
                "pitch": 36,
                "velocity": 64,
                "duration": 0.2204545,
                "tempo": 120.0
            },
            {
                "start_time": 44.725,
                "end_time": 44.9409091,
                "pitch": 36,
                "velocity": 64,
                "duration": 0.2159091,
                "tempo": 120.0
            },
            {
                "start_time": 44.9931818,
                "end_time": 45.4772727,
                "pitch": 36,
                "velocity": 64,
                "duration": 0.4840909,
                "tempo": 120.0
            },
            {
                "start_time": 45.5272727,
                "end_time": 45.7431818,
                "pitch": 36,
                "velocity": 64,
                "duration": 0.2159091,
                "tempo": 120.0
            },
            {
                "start_time": 45.7954545,
                "end_time": 46.0113636,
                "pitch": 36,
                "velocity": 64,
                "duration": 0.2159091,
                "tempo": 120.0
            },
            {
                "start_time": 46.0636364,
                "end_time": 46.2795455,
                "pitch": 36,
                "velocity": 64,
                "duration": 0.2159091,
                "tempo": 120.0
            },
            {
                "start_time": 46.3295455,
                "end_time": 46.55,
                "pitch": 36,
                "velocity": 64,
                "duration": 0.2204545,
                "tempo": 120.0
            },
            {
                "start_time": 46.6022727,
                "end_time": 46.8227273,
                "pitch": 36,
                "velocity": 64,
                "duration": 0.2204545,
                "tempo": 120.0
            },
            {
                "start_time": 46.875,
                "end_time": 47.0909091,
                "pitch": 36,
                "velocity": 64,
                "duration": 0.2159091,
                "tempo": 120.0
            },
            {
                "start_time": 47.1431818,
                "end_time": 47.6295455,
                "pitch": 40,
                "velocity": 64,
                "duration": 0.4863636,
                "tempo": 120.0
            },
            {
                "start_time": 47.6818182,
                "end_time": 47.9022727,
                "pitch": 40,
                "velocity": 64,
                "duration": 0.2204545,
                "tempo": 120.0
            },
            {
                "start_time": 47.9545455,
                "end_time": 48.1704545,
                "pitch": 40,
                "velocity": 64,
                "duration": 0.2159091,
                "tempo": 120.0
            },
            {
                "start_time": 48.2227273,
                "end_time": 48.4386364,
                "pitch": 40,
                "velocity": 64,
                "duration": 0.2159091,
                "tempo": 120.0
            },
            {
                "start_time": 48.4909091,
                "end_time": 48.7090909,
                "pitch": 40,
                "velocity": 64,
                "duration": 0.2181818,
                "tempo": 120.0
            },
            {
                "start_time": 48.7613636,
                "end_time": 48.9818182,
                "pitch": 40,
                "velocity": 64,
                "duration": 0.2204545,
                "tempo": 120.0
            },
            {
                "start_time": 49.0340909,
                "end_time": 49.2522727,
                "pitch": 40,
                "velocity": 64,
                "duration": 0.2181818,
                "tempo": 120.0
            },
            {
                "start_time": 49.3022727,
                "end_time": 49.7863636,
                "pitch": 40,
                "velocity": 64,
                "duration": 0.4840909,
                "tempo": 120.0
            },
            {
                "start_time": 49.8363636,
                "end_time": 50.0545455,
                "pitch": 40,
                "velocity": 64,
                "duration": 0.2181818,
                "tempo": 120.0
            },
            {
                "start_time": 50.1045455,
                "end_time": 50.3204545,
                "pitch": 40,
                "velocity": 64,
                "duration": 0.2159091,
                "tempo": 120.0
            },
            {
                "start_time": 50.3727273,
                "end_time": 50.5886364,
                "pitch": 40,
                "velocity": 64,
                "duration": 0.2159091,
                "tempo": 120.0
            },
            {
                "start_time": 50.6409091,
                "end_time": 50.8613636,
                "pitch": 40,
                "velocity": 64,
                "duration": 0.2204545,
                "tempo": 120.0
            },
            {
                "start_time": 50.9113636,
                "end_time": 51.1318182,
                "pitch": 40,
                "velocity": 64,
                "duration": 0.2204545,
                "tempo": 120.0
            },
            {
                "start_time": 43.1,
                "end_time": 51.4045455,
                "pitch": 38,
                "velocity": 64,
                "duration": 8.3045455,
                "tempo": 120.0
            },
            {
                "start_time": 51.1840909,
                "end_time": 51.4045455,
                "pitch": 38,
                "velocity": 64,
                "duration": 0.2204545,
                "tempo": 120.0
            },
            {
                "start_time": 47.1431818,
                "end_time": 51.9454545,
                "pitch": 36,
                "velocity": 64,
                "duration": 4.8022727,
                "tempo": 120.0
            },
            {
                "start_time": 51.4568182,
                "end_time": 51.9454545,
                "pitch": 36,
                "velocity": 64,
                "duration": 0.4886364,
                "tempo": 120.0
            },
            {
                "start_time": 51.9954545,
                "end_time": 52.2136364,
                "pitch": 36,
                "velocity": 64,
                "duration": 0.2181818,
                "tempo": 120.0
            },
            {
                "start_time": 52.2636364,
                "end_time": 52.4818182,
                "pitch": 36,
                "velocity": 64,
                "duration": 0.2181818,
                "tempo": 120.0
            },
            {
                "start_time": 52.5318182,
                "end_time": 52.7477273,
                "pitch": 36,
                "velocity": 64,
                "duration": 0.2159091,
                "tempo": 120.0
            },
            {
                "start_time": 52.8,
                "end_time": 53.0204545,
                "pitch": 36,
                "velocity": 64,
                "duration": 0.2204545,
                "tempo": 120.0
            },
            {
                "start_time": 53.0727273,
                "end_time": 53.2931818,
                "pitch": 36,
                "velocity": 64,
                "duration": 0.2204545,
                "tempo": 120.0
            },
            {
                "start_time": 53.3431818,
                "end_time": 53.5613636,
                "pitch": 36,
                "velocity": 64,
                "duration": 0.2181818,
                "tempo": 120.0
            },
            {
                "start_time": 51.1840909,
                "end_time": 53.6113636,
                "pitch": 40,
                "velocity": 64,
                "duration": 2.4272727,
                "tempo": 120.0
            },
            {
                "start_time": 53.6113636,
                "end_time": 53.6954545,
                "pitch": 35,
                "velocity": 64,
                "duration": 0.0840909,
                "tempo": 120.0
            },
            {
                "start_time": 53.7454545,
                "end_time": 54.0954545,
                "pitch": 35,
                "velocity": 64,
                "duration": 0.35,
                "tempo": 120.0
            },
            {
                "start_time": 54.1454545,
                "end_time": 54.3636364,
                "pitch": 34,
                "velocity": 64,
                "duration": 0.2181818,
                "tempo": 120.0
            },
            {
                "start_time": 54.4136364,
                "end_time": 54.6340909,
                "pitch": 34,
                "velocity": 64,
                "duration": 0.2204545,
                "tempo": 120.0
            },
            {
                "start_time": 54.6863636,
                "end_time": 54.9068182,
                "pitch": 34,
                "velocity": 64,
                "duration": 0.2204545,
                "tempo": 120.0
            },
            {
                "start_time": 54.9590909,
                "end_time": 55.1795455,
                "pitch": 34,
                "velocity": 64,
                "duration": 0.2204545,
                "tempo": 120.0
            },
            {
                "start_time": 55.2318182,
                "end_time": 55.4522727,
                "pitch": 34,
                "velocity": 64,
                "duration": 0.2204545,
                "tempo": 120.0
            },
            {
                "start_time": 55.5045455,
                "end_time": 55.7204545,
                "pitch": 34,
                "velocity": 64,
                "duration": 0.2159091,
                "tempo": 120.0
            },
            {
                "start_time": 55.7727273,
                "end_time": 56.2568182,
                "pitch": 34,
                "velocity": 64,
                "duration": 0.4840909,
                "tempo": 120.0
            },
            {
                "start_time": 56.3068182,
                "end_time": 56.5227273,
                "pitch": 35,
                "velocity": 64,
                "duration": 0.2159091,
                "tempo": 120.0
            },
            {
                "start_time": 56.575,
                "end_time": 56.7909091,
                "pitch": 35,
                "velocity": 64,
                "duration": 0.2159091,
                "tempo": 120.0
            },
            {
                "start_time": 56.8409091,
                "end_time": 57.3295455,
                "pitch": 35,
                "velocity": 64,
                "duration": 0.4886364,
                "tempo": 120.0
            },
            {
                "start_time": 57.3818182,
                "end_time": 57.6022727,
                "pitch": 35,
                "velocity": 64,
                "duration": 0.2204545,
                "tempo": 120.0
            },
            {
                "start_time": 57.6545455,
                "end_time": 57.875,
                "pitch": 35,
                "velocity": 64,
                "duration": 0.2204545,
                "tempo": 120.0
            },
            {
                "start_time": 57.925,
                "end_time": 58.1477273,
                "pitch": 35,
                "velocity": 64,
                "duration": 0.2227273,
                "tempo": 120.0
            },
            {
                "start_time": 58.1977273,
                "end_time": 58.4159091,
                "pitch": 35,
                "velocity": 64,
                "duration": 0.2181818,
                "tempo": 120.0
            },
            {
                "start_time": 59.5363636,
                "end_time": 60.2977273,
                "pitch": 35,
                "velocity": 64,
                "duration": 0.7613636,
                "tempo": 120.0
            },
            {
                "start_time": 53.6113636,
                "end_time": 60.4318182,
                "pitch": 40,
                "velocity": 64,
                "duration": 6.8204545,
                "tempo": 120.0
            },
            {
                "start_time": 60.35,
                "end_time": 60.4318182,
                "pitch": 40,
                "velocity": 64,
                "duration": 0.0818182,
                "tempo": 120.0
            },
            {
                "start_time": 60.4818182,
                "end_time": 60.5659091,
                "pitch": 40,
                "velocity": 64,
                "duration": 0.0840909,
                "tempo": 120.0
            },
            {
                "start_time": 51.4568182,
                "end_time": 60.7,
                "pitch": 38,
                "velocity": 64,
                "duration": 9.2431818,
                "tempo": 120.0
            },
            {
                "start_time": 60.6159091,
                "end_time": 60.7,
                "pitch": 38,
                "velocity": 64,
                "duration": 0.0840909,
                "tempo": 120.0
            },
            {
                "start_time": 60.6159091,
                "end_time": 60.9659091,
                "pitch": 40,
                "velocity": 64,
                "duration": 0.35,
                "tempo": 120.0
            },
            {
                "start_time": 60.8840909,
                "end_time": 60.9659091,
                "pitch": 40,
                "velocity": 64,
                "duration": 0.0818182,
                "tempo": 120.0
            },
            {
                "start_time": 42.5568182,
                "end_time": 61.1522727,
                "pitch": 54,
                "velocity": 64,
                "duration": 18.5954545,
                "tempo": 120.0
            },
            {
                "start_time": 61.1522727,
                "end_time": 61.3681818,
                "pitch": 43,
                "velocity": 64,
                "duration": 0.2159091,
                "tempo": 120.0
            },
            {
                "start_time": 61.4181818,
                "end_time": 61.5022727,
                "pitch": 43,
                "velocity": 64,
                "duration": 0.0840909,
                "tempo": 120.0
            },
            {
                "start_time": 61.9636364,
                "end_time": 62.0477273,
                "pitch": 45,
                "velocity": 64,
                "duration": 0.0840909,
                "tempo": 120.0
            },
            {
                "start_time": 62.0977273,
                "end_time": 62.4477273,
                "pitch": 43,
                "velocity": 64,
                "duration": 0.35,
                "tempo": 120.0
            },
            {
                "start_time": 41.4863636,
                "end_time": 62.4977273,
                "pitch": 7,
                "velocity": 64,
                "duration": 21.0113636,
                "tempo": 120.0
            },
            {
                "start_time": 62.4977273,
                "end_time": 62.5840909,
                "pitch": 40,
                "velocity": 64,
                "duration": 0.0863636,
                "tempo": 120.0
            },
            {
                "start_time": 62.6340909,
                "end_time": 62.7181818,
                "pitch": 40,
                "velocity": 64,
                "duration": 0.0840909,
                "tempo": 120.0
            },
            {
                "start_time": 60.8840909,
                "end_time": 62.8545455,
                "pitch": 38,
                "velocity": 64,
                "duration": 1.9704545,
                "tempo": 120.0
            },
            {
                "start_time": 62.7704545,
                "end_time": 62.8545455,
                "pitch": 38,
                "velocity": 64,
                "duration": 0.0840909,
                "tempo": 120.0
            },
            {
                "start_time": 62.7704545,
                "end_time": 63.1272727,
                "pitch": 40,
                "velocity": 64,
                "duration": 0.3568182,
                "tempo": 120.0
            },
            {
                "start_time": 63.0431818,
                "end_time": 63.1272727,
                "pitch": 40,
                "velocity": 64,
                "duration": 0.0840909,
                "tempo": 120.0
            },
            {
                "start_time": 61.1522727,
                "end_time": 63.3113636,
                "pitch": 54,
                "velocity": 64,
                "duration": 2.1590909,
                "tempo": 120.0
            },
            {
                "start_time": 63.3113636,
                "end_time": 63.5272727,
                "pitch": 43,
                "velocity": 64,
                "duration": 0.2159091,
                "tempo": 120.0
            },
            {
                "start_time": 37.9727273,
                "end_time": 63.6613636,
                "pitch": 47,
                "velocity": 64,
                "duration": 25.6886364,
                "tempo": 120.0
            },
            {
                "start_time": 63.5795455,
                "end_time": 63.6613636,
                "pitch": 47,
                "velocity": 64,
                "duration": 0.0818182,
                "tempo": 120.0
            },
            {
                "start_time": 63.5795455,
                "end_time": 63.9295455,
                "pitch": 43,
                "velocity": 64,
                "duration": 0.35,
                "tempo": 120.0
            },
            {
                "start_time": 63.8454545,
                "end_time": 63.9295455,
                "pitch": 43,
                "velocity": 64,
                "duration": 0.0840909,
                "tempo": 120.0
            },
            {
                "start_time": 64.1136364,
                "end_time": 64.1977273,
                "pitch": 43,
                "velocity": 64,
                "duration": 0.0840909,
                "tempo": 120.0
            },
            {
                "start_time": 64.25,
                "end_time": 64.6068182,
                "pitch": 45,
                "velocity": 64,
                "duration": 0.3568182,
                "tempo": 120.0
            },
            {
                "start_time": 42.6909091,
                "end_time": 64.6590909,
                "pitch": 0,
                "velocity": 64,
                "duration": 21.9681818,
                "tempo": 120.0
            },
            {
                "start_time": 64.6568182,
                "end_time": 64.6590909,
                "pitch": 0,
                "velocity": 64,
                "duration": 0.0022727,
                "tempo": 120.0
            },
            {
                "start_time": 63.0431818,
                "end_time": 64.7431818,
                "pitch": 38,
                "velocity": 64,
                "duration": 1.7,
                "tempo": 120.0
            },
            {
                "start_time": 64.6590909,
                "end_time": 64.7431818,
                "pitch": 38,
                "velocity": 64,
                "duration": 0.0840909,
                "tempo": 120.0
            },
            {
                "start_time": 64.7931818,
                "end_time": 64.8795455,
                "pitch": 38,
                "velocity": 64,
                "duration": 0.0863636,
                "tempo": 120.0
            },
            {
                "start_time": 41.2136364,
                "end_time": 64.9295455,
                "pitch": 41,
                "velocity": 64,
                "duration": 23.7159091,
                "tempo": 120.0
            },
            {
                "start_time": 64.9295455,
                "end_time": 65.0159091,
                "pitch": 33,
                "velocity": 64,
                "duration": 0.0863636,
                "tempo": 120.0
            },
            {
                "start_time": 62.4977273,
                "end_time": 65.2022727,
                "pitch": 7,
                "velocity": 64,
                "duration": 2.7045455,
                "tempo": 120.0
            },
            {
                "start_time": 65.2022727,
                "end_time": 65.2863636,
                "pitch": 38,
                "velocity": 64,
                "duration": 0.0840909,
                "tempo": 120.0
            },
            {
                "start_time": 65.4704545,
                "end_time": 65.5545455,
                "pitch": 40,
                "velocity": 64,
                "duration": 0.0840909,
                "tempo": 120.0
            },
            {
                "start_time": 65.7386364,
                "end_time": 65.8204545,
                "pitch": 40,
                "velocity": 64,
                "duration": 0.0818182,
                "tempo": 120.0
            },
            {
                "start_time": 42.9636364,
                "end_time": 66.3568182,
                "pitch": 42,
                "velocity": 64,
                "duration": 23.3931818,
                "tempo": 120.0
            },
            {
                "start_time": 66.2727273,
                "end_time": 66.3568182,
                "pitch": 42,
                "velocity": 64,
                "duration": 0.0840909,
                "tempo": 120.0
            },
            {
                "start_time": 66.4068182,
                "end_time": 66.7568182,
                "pitch": 40,
                "velocity": 64,
                "duration": 0.35,
                "tempo": 120.0
            },
            {
                "start_time": 65.4704545,
                "end_time": 66.8931818,
                "pitch": 38,
                "velocity": 64,
                "duration": 1.4227273,
                "tempo": 120.0
            },
            {
                "start_time": 66.8090909,
                "end_time": 66.8931818,
                "pitch": 38,
                "velocity": 64,
                "duration": 0.0840909,
                "tempo": 120.0
            },
            {
                "start_time": 66.9431818,
                "end_time": 67.0295455,
                "pitch": 38,
                "velocity": 64,
                "duration": 0.0863636,
                "tempo": 120.0
            },
            {
                "start_time": 64.9295455,
                "end_time": 67.0795455,
                "pitch": 41,
                "velocity": 64,
                "duration": 2.15,
                "tempo": 120.0
            },
            {
                "start_time": 67.0795455,
                "end_time": 67.1659091,
                "pitch": 33,
                "velocity": 64,
                "duration": 0.0863636,
                "tempo": 120.0
            },
            {
                "start_time": 65.2022727,
                "end_time": 67.3522727,
                "pitch": 7,
                "velocity": 64,
                "duration": 2.15,
                "tempo": 120.0
            },
            {
                "start_time": 67.3522727,
                "end_time": 67.4363636,
                "pitch": 38,
                "velocity": 64,
                "duration": 0.0840909,
                "tempo": 120.0
            },
            {
                "start_time": 67.6204545,
                "end_time": 67.7045455,
                "pitch": 40,
                "velocity": 64,
                "duration": 0.0840909,
                "tempo": 120.0
            },
            {
                "start_time": 67.8886364,
                "end_time": 67.9727273,
                "pitch": 40,
                "velocity": 64,
                "duration": 0.0840909,
                "tempo": 120.0
            },
            {
                "start_time": 63.3113636,
                "end_time": 68.4340909,
                "pitch": 54,
                "velocity": 64,
                "duration": 5.1227273,
                "tempo": 120.0
            },
            {
                "start_time": 68.4318182,
                "end_time": 68.4340909,
                "pitch": 54,
                "velocity": 64,
                "duration": 0.0022727,
                "tempo": 120.0
            },
            {
                "start_time": 68.4340909,
                "end_time": 68.5159091,
                "pitch": 43,
                "velocity": 64,
                "duration": 0.0818182,
                "tempo": 120.0
            },
            {
                "start_time": 66.8090909,
                "end_time": 68.7840909,
                "pitch": 42,
                "velocity": 64,
                "duration": 1.975,
                "tempo": 120.0
            },
            {
                "start_time": 68.5659091,
                "end_time": 68.7840909,
                "pitch": 42,
                "velocity": 64,
                "duration": 0.2181818,
                "tempo": 120.0
            },
            {
                "start_time": 67.6204545,
                "end_time": 68.9181818,
                "pitch": 38,
                "velocity": 64,
                "duration": 1.2977273,
                "tempo": 120.0
            },
            {
                "start_time": 68.8340909,
                "end_time": 68.9181818,
                "pitch": 38,
                "velocity": 64,
                "duration": 0.0840909,
                "tempo": 120.0
            },
            {
                "start_time": 68.9681818,
                "end_time": 69.0522727,
                "pitch": 40,
                "velocity": 64,
                "duration": 0.0840909,
                "tempo": 120.0
            },
            {
                "start_time": 69.1045455,
                "end_time": 69.1886364,
                "pitch": 40,
                "velocity": 64,
                "duration": 0.0840909,
                "tempo": 120.0
            },
            {
                "start_time": 68.9681818,
                "end_time": 69.325,
                "pitch": 38,
                "velocity": 64,
                "duration": 0.3568182,
                "tempo": 120.0
            },
            {
                "start_time": 69.2409091,
                "end_time": 69.325,
                "pitch": 38,
                "velocity": 64,
                "duration": 0.0840909,
                "tempo": 120.0
            },
            {
                "start_time": 69.2409091,
                "end_time": 69.5954545,
                "pitch": 40,
                "velocity": 64,
                "duration": 0.3545455,
                "tempo": 120.0
            },
            {
                "start_time": 69.5136364,
                "end_time": 69.5954545,
                "pitch": 40,
                "velocity": 64,
                "duration": 0.0818182,
                "tempo": 120.0
            },
            {
                "start_time": 69.7795455,
                "end_time": 69.9977273,
                "pitch": 43,
                "velocity": 64,
                "duration": 0.2181818,
                "tempo": 120.0
            },
            {
                "start_time": 70.0477273,
                "end_time": 70.1318182,
                "pitch": 43,
                "velocity": 64,
                "duration": 0.0840909,
                "tempo": 120.0
            },
            {
                "start_time": 70.5818182,
                "end_time": 70.6681818,
                "pitch": 45,
                "velocity": 64,
                "duration": 0.0863636,
                "tempo": 120.0
            },
            {
                "start_time": 70.7181818,
                "end_time": 71.075,
                "pitch": 43,
                "velocity": 64,
                "duration": 0.3568182,
                "tempo": 120.0
            },
            {
                "start_time": 67.3522727,
                "end_time": 71.1272727,
                "pitch": 7,
                "velocity": 64,
                "duration": 3.775,
                "tempo": 120.0
            },
            {
                "start_time": 71.1272727,
                "end_time": 71.2113636,
                "pitch": 40,
                "velocity": 64,
                "duration": 0.0840909,
                "tempo": 120.0
            },
            {
                "start_time": 71.2613636,
                "end_time": 71.3454545,
                "pitch": 40,
                "velocity": 64,
                "duration": 0.0840909,
                "tempo": 120.0
            },
            {
                "start_time": 69.5136364,
                "end_time": 71.4772727,
                "pitch": 38,
                "velocity": 64,
                "duration": 1.9636364,
                "tempo": 120.0
            },
            {
                "start_time": 71.3954545,
                "end_time": 71.4772727,
                "pitch": 38,
                "velocity": 64,
                "duration": 0.0818182,
                "tempo": 120.0
            },
            {
                "start_time": 71.3954545,
                "end_time": 71.7454545,
                "pitch": 40,
                "velocity": 64,
                "duration": 0.35,
                "tempo": 120.0
            },
            {
                "start_time": 71.6636364,
                "end_time": 71.7454545,
                "pitch": 40,
                "velocity": 64,
                "duration": 0.0818182,
                "tempo": 120.0
            },
            {
                "start_time": 69.7795455,
                "end_time": 71.9295455,
                "pitch": 54,
                "velocity": 64,
                "duration": 2.15,
                "tempo": 120.0
            },
            {
                "start_time": 71.9295455,
                "end_time": 72.1477273,
                "pitch": 43,
                "velocity": 64,
                "duration": 0.2181818,
                "tempo": 120.0
            },
            {
                "start_time": 63.8454545,
                "end_time": 72.2818182,
                "pitch": 47,
                "velocity": 64,
                "duration": 8.4363636,
                "tempo": 120.0
            },
            {
                "start_time": 72.1977273,
                "end_time": 72.2818182,
                "pitch": 47,
                "velocity": 64,
                "duration": 0.0840909,
                "tempo": 120.0
            },
            {
                "start_time": 72.1977273,
                "end_time": 72.5545455,
                "pitch": 43,
                "velocity": 64,
                "duration": 0.3568182,
                "tempo": 120.0
            },
            {
                "start_time": 72.4704545,
                "end_time": 72.5545455,
                "pitch": 43,
                "velocity": 64,
                "duration": 0.0840909,
                "tempo": 120.0
            },
            {
                "start_time": 72.7431818,
                "end_time": 72.8272727,
                "pitch": 43,
                "velocity": 64,
                "duration": 0.0840909,
                "tempo": 120.0
            },
            {
                "start_time": 72.8772727,
                "end_time": 73.2363636,
                "pitch": 45,
                "velocity": 64,
                "duration": 0.3590909,
                "tempo": 120.0
            },
            {
                "start_time": 68.5659091,
                "end_time": 73.2863636,
                "pitch": 0,
                "velocity": 64,
                "duration": 4.7204545,
                "tempo": 120.0
            },
            {
                "start_time": 71.6636364,
                "end_time": 73.3704545,
                "pitch": 38,
                "velocity": 64,
                "duration": 1.7068182,
                "tempo": 120.0
            },
            {
                "start_time": 73.2863636,
                "end_time": 73.3704545,
                "pitch": 38,
                "velocity": 64,
                "duration": 0.0840909,
                "tempo": 120.0
            },
            {
                "start_time": 73.4204545,
                "end_time": 73.5045455,
                "pitch": 38,
                "velocity": 64,
                "duration": 0.0840909,
                "tempo": 120.0
            },
            {
                "start_time": 67.0795455,
                "end_time": 73.5545455,
                "pitch": 41,
                "velocity": 64,
                "duration": 6.475,
                "tempo": 120.0
            },
            {
                "start_time": 73.5545455,
                "end_time": 73.6386364,
                "pitch": 33,
                "velocity": 64,
                "duration": 0.0840909,
                "tempo": 120.0
            },
            {
                "start_time": 71.1272727,
                "end_time": 73.8227273,
                "pitch": 7,
                "velocity": 64,
                "duration": 2.6954545,
                "tempo": 120.0
            },
            {
                "start_time": 73.8227273,
                "end_time": 73.9068182,
                "pitch": 38,
                "velocity": 64,
                "duration": 0.0840909,
                "tempo": 120.0
            },
            {
                "start_time": 74.0909091,
                "end_time": 74.1727273,
                "pitch": 40,
                "velocity": 64,
                "duration": 0.0818182,
                "tempo": 120.0
            },
            {
                "start_time": 74.3568182,
                "end_time": 74.4431818,
                "pitch": 40,
                "velocity": 64,
                "duration": 0.0863636,
                "tempo": 120.0
            },
            {
                "start_time": 68.8340909,
                "end_time": 74.9863636,
                "pitch": 42,
                "velocity": 64,
                "duration": 6.1522727,
                "tempo": 120.0
            },
            {
                "start_time": 74.9022727,
                "end_time": 74.9863636,
                "pitch": 42,
                "velocity": 64,
                "duration": 0.0840909,
                "tempo": 120.0
            },
            {
                "start_time": 75.0363636,
                "end_time": 75.3863636,
                "pitch": 40,
                "velocity": 64,
                "duration": 0.35,
                "tempo": 120.0
            },
            {
                "start_time": 74.0909091,
                "end_time": 75.5227273,
                "pitch": 38,
                "velocity": 64,
                "duration": 1.4318182,
                "tempo": 120.0
            },
            {
                "start_time": 75.4363636,
                "end_time": 75.5227273,
                "pitch": 38,
                "velocity": 64,
                "duration": 0.0863636,
                "tempo": 120.0
            },
            {
                "start_time": 75.5727273,
                "end_time": 75.6568182,
                "pitch": 38,
                "velocity": 64,
                "duration": 0.0840909,
                "tempo": 120.0
            },
            {
                "start_time": 73.5545455,
                "end_time": 75.7090909,
                "pitch": 41,
                "velocity": 64,
                "duration": 2.1545455,
                "tempo": 120.0
            },
            {
                "start_time": 75.7090909,
                "end_time": 75.7931818,
                "pitch": 33,
                "velocity": 64,
                "duration": 0.0840909,
                "tempo": 120.0
            },
            {
                "start_time": 73.8227273,
                "end_time": 75.9818182,
                "pitch": 7,
                "velocity": 64,
                "duration": 2.1590909,
                "tempo": 120.0
            },
            {
                "start_time": 75.9818182,
                "end_time": 76.0659091,
                "pitch": 38,
                "velocity": 64,
                "duration": 0.0840909,
                "tempo": 120.0
            },
            {
                "start_time": 76.25,
                "end_time": 76.3318182,
                "pitch": 40,
                "velocity": 64,
                "duration": 0.0818182,
                "tempo": 120.0
            },
            {
                "start_time": 76.5159091,
                "end_time": 76.6,
                "pitch": 40,
                "velocity": 64,
                "duration": 0.0840909,
                "tempo": 120.0
            },
            {
                "start_time": 71.9295455,
                "end_time": 77.0522727,
                "pitch": 54,
                "velocity": 64,
                "duration": 5.1227273,
                "tempo": 120.0
            },
            {
                "start_time": 77.0522727,
                "end_time": 77.1363636,
                "pitch": 43,
                "velocity": 64,
                "duration": 0.0840909,
                "tempo": 120.0
            },
            {
                "start_time": 73.2863636,
                "end_time": 77.1886364,
                "pitch": 0,
                "velocity": 64,
                "duration": 3.9022727,
                "tempo": 120.0
            },
            {
                "start_time": 75.4363636,
                "end_time": 77.4090909,
                "pitch": 42,
                "velocity": 64,
                "duration": 1.9727273,
                "tempo": 120.0
            },
            {
                "start_time": 77.1886364,
                "end_time": 77.4090909,
                "pitch": 42,
                "velocity": 64,
                "duration": 0.2204545,
                "tempo": 120.0
            },
            {
                "start_time": 76.25,
                "end_time": 77.5454545,
                "pitch": 38,
                "velocity": 64,
                "duration": 1.2954545,
                "tempo": 120.0
            },
            {
                "start_time": 77.4613636,
                "end_time": 77.5454545,
                "pitch": 38,
                "velocity": 64,
                "duration": 0.0840909,
                "tempo": 120.0
            },
            {
                "start_time": 77.5977273,
                "end_time": 77.8181818,
                "pitch": 36,
                "velocity": 64,
                "duration": 0.2204545,
                "tempo": 120.0
            },
            {
                "start_time": 77.8681818,
                "end_time": 78.0909091,
                "pitch": 36,
                "velocity": 64,
                "duration": 0.2227273,
                "tempo": 120.0
            },
            {
                "start_time": 78.1409091,
                "end_time": 78.3590909,
                "pitch": 36,
                "velocity": 64,
                "duration": 0.2181818,
                "tempo": 120.0
            },
            {
                "start_time": 78.4090909,
                "end_time": 78.6272727,
                "pitch": 36,
                "velocity": 64,
                "duration": 0.2181818,
                "tempo": 120.0
            },
            {
                "start_time": 78.6772727,
                "end_time": 78.8977273,
                "pitch": 36,
                "velocity": 64,
                "duration": 0.2204545,
                "tempo": 120.0
            },
            {
                "start_time": 78.95,
                "end_time": 79.1704545,
                "pitch": 36,
                "velocity": 64,
                "duration": 0.2204545,
                "tempo": 120.0
            },
            {
                "start_time": 79.2227273,
                "end_time": 79.4386364,
                "pitch": 36,
                "velocity": 64,
                "duration": 0.2159091,
                "tempo": 120.0
            },
            {
                "start_time": 79.4886364,
                "end_time": 79.9727273,
                "pitch": 36,
                "velocity": 64,
                "duration": 0.4840909,
                "tempo": 120.0
            },
            {
                "start_time": 80.025,
                "end_time": 80.2409091,
                "pitch": 36,
                "velocity": 64,
                "duration": 0.2159091,
                "tempo": 120.0
            },
            {
                "start_time": 80.2909091,
                "end_time": 80.5090909,
                "pitch": 36,
                "velocity": 64,
                "duration": 0.2181818,
                "tempo": 120.0
            },
            {
                "start_time": 80.5590909,
                "end_time": 80.7772727,
                "pitch": 36,
                "velocity": 64,
                "duration": 0.2181818,
                "tempo": 120.0
            },
            {
                "start_time": 80.8272727,
                "end_time": 81.0477273,
                "pitch": 36,
                "velocity": 64,
                "duration": 0.2204545,
                "tempo": 120.0
            },
            {
                "start_time": 81.1,
                "end_time": 81.3204545,
                "pitch": 36,
                "velocity": 64,
                "duration": 0.2204545,
                "tempo": 120.0
            },
            {
                "start_time": 81.3727273,
                "end_time": 81.5886364,
                "pitch": 36,
                "velocity": 64,
                "duration": 0.2159091,
                "tempo": 120.0
            },
            {
                "start_time": 81.6386364,
                "end_time": 82.1272727,
                "pitch": 40,
                "velocity": 64,
                "duration": 0.4886364,
                "tempo": 120.0
            },
            {
                "start_time": 82.1795455,
                "end_time": 82.4,
                "pitch": 40,
                "velocity": 64,
                "duration": 0.2204545,
                "tempo": 120.0
            },
            {
                "start_time": 82.4522727,
                "end_time": 82.6681818,
                "pitch": 40,
                "velocity": 64,
                "duration": 0.2159091,
                "tempo": 120.0
            },
            {
                "start_time": 82.7181818,
                "end_time": 82.9363636,
                "pitch": 40,
                "velocity": 64,
                "duration": 0.2181818,
                "tempo": 120.0
            },
            {
                "start_time": 82.9863636,
                "end_time": 83.2068182,
                "pitch": 40,
                "velocity": 64,
                "duration": 0.2204545,
                "tempo": 120.0
            },
            {
                "start_time": 83.2590909,
                "end_time": 83.4795455,
                "pitch": 40,
                "velocity": 64,
                "duration": 0.2204545,
                "tempo": 120.0
            },
            {
                "start_time": 83.5318182,
                "end_time": 83.7477273,
                "pitch": 40,
                "velocity": 64,
                "duration": 0.2159091,
                "tempo": 120.0
            },
            {
                "start_time": 83.8,
                "end_time": 84.2840909,
                "pitch": 40,
                "velocity": 64,
                "duration": 0.4840909,
                "tempo": 120.0
            },
            {
                "start_time": 84.3340909,
                "end_time": 84.55,
                "pitch": 40,
                "velocity": 64,
                "duration": 0.2159091,
                "tempo": 120.0
            },
            {
                "start_time": 84.6022727,
                "end_time": 84.8181818,
                "pitch": 40,
                "velocity": 64,
                "duration": 0.2159091,
                "tempo": 120.0
            },
            {
                "start_time": 84.8681818,
                "end_time": 85.0863636,
                "pitch": 40,
                "velocity": 64,
                "duration": 0.2181818,
                "tempo": 120.0
            },
            {
                "start_time": 85.1363636,
                "end_time": 85.3568182,
                "pitch": 40,
                "velocity": 64,
                "duration": 0.2204545,
                "tempo": 120.0
            },
            {
                "start_time": 85.4090909,
                "end_time": 85.6295455,
                "pitch": 40,
                "velocity": 64,
                "duration": 0.2204545,
                "tempo": 120.0
            },
            {
                "start_time": 77.5977273,
                "end_time": 85.9022727,
                "pitch": 38,
                "velocity": 64,
                "duration": 8.3045455,
                "tempo": 120.0
            },
            {
                "start_time": 85.6818182,
                "end_time": 85.9022727,
                "pitch": 38,
                "velocity": 64,
                "duration": 0.2204545,
                "tempo": 120.0
            },
            {
                "start_time": 81.6386364,
                "end_time": 86.4431818,
                "pitch": 36,
                "velocity": 64,
                "duration": 4.8045455,
                "tempo": 120.0
            },
            {
                "start_time": 85.9545455,
                "end_time": 86.4431818,
                "pitch": 36,
                "velocity": 64,
                "duration": 0.4886364,
                "tempo": 120.0
            },
            {
                "start_time": 86.4931818,
                "end_time": 86.7113636,
                "pitch": 36,
                "velocity": 64,
                "duration": 0.2181818,
                "tempo": 120.0
            },
            {
                "start_time": 86.7613636,
                "end_time": 86.9772727,
                "pitch": 36,
                "velocity": 64,
                "duration": 0.2159091,
                "tempo": 120.0
            },
            {
                "start_time": 87.0295455,
                "end_time": 87.2454545,
                "pitch": 36,
                "velocity": 64,
                "duration": 0.2159091,
                "tempo": 120.0
            },
            {
                "start_time": 87.2954545,
                "end_time": 87.5159091,
                "pitch": 36,
                "velocity": 64,
                "duration": 0.2204545,
                "tempo": 120.0
            },
            {
                "start_time": 87.5681818,
                "end_time": 87.7886364,
                "pitch": 36,
                "velocity": 64,
                "duration": 0.2204545,
                "tempo": 120.0
            },
            {
                "start_time": 87.8409091,
                "end_time": 88.0568182,
                "pitch": 36,
                "velocity": 64,
                "duration": 0.2159091,
                "tempo": 120.0
            },
            {
                "start_time": 85.6818182,
                "end_time": 88.1090909,
                "pitch": 40,
                "velocity": 64,
                "duration": 2.4272727,
                "tempo": 120.0
            },
            {
                "start_time": 88.1090909,
                "end_time": 88.1909091,
                "pitch": 35,
                "velocity": 64,
                "duration": 0.0818182,
                "tempo": 120.0
            },
            {
                "start_time": 88.2431818,
                "end_time": 88.5931818,
                "pitch": 35,
                "velocity": 64,
                "duration": 0.35,
                "tempo": 120.0
            },
            {
                "start_time": 88.6431818,
                "end_time": 88.8613636,
                "pitch": 34,
                "velocity": 64,
                "duration": 0.2181818,
                "tempo": 120.0
            },
            {
                "start_time": 88.9113636,
                "end_time": 89.1318182,
                "pitch": 34,
                "velocity": 64,
                "duration": 0.2204545,
                "tempo": 120.0
            },
            {
                "start_time": 89.1840909,
                "end_time": 89.4045455,
                "pitch": 34,
                "velocity": 64,
                "duration": 0.2204545,
                "tempo": 120.0
            },
            {
                "start_time": 89.4545455,
                "end_time": 89.6772727,
                "pitch": 34,
                "velocity": 64,
                "duration": 0.2227273,
                "tempo": 120.0
            },
            {
                "start_time": 89.7272727,
                "end_time": 89.9477273,
                "pitch": 34,
                "velocity": 64,
                "duration": 0.2204545,
                "tempo": 120.0
            },
            {
                "start_time": 90.0,
                "end_time": 90.2181818,
                "pitch": 34,
                "velocity": 64,
                "duration": 0.2181818,
                "tempo": 120.0
            },
            {
                "start_time": 90.2681818,
                "end_time": 90.7522727,
                "pitch": 34,
                "velocity": 64,
                "duration": 0.4840909,
                "tempo": 120.0
            },
            {
                "start_time": 90.8022727,
                "end_time": 91.0204545,
                "pitch": 35,
                "velocity": 64,
                "duration": 0.2181818,
                "tempo": 120.0
            },
            {
                "start_time": 91.0704545,
                "end_time": 91.2886364,
                "pitch": 35,
                "velocity": 64,
                "duration": 0.2181818,
                "tempo": 120.0
            },
            {
                "start_time": 91.3386364,
                "end_time": 91.8272727,
                "pitch": 35,
                "velocity": 64,
                "duration": 0.4886364,
                "tempo": 120.0
            },
            {
                "start_time": 91.8772727,
                "end_time": 92.1,
                "pitch": 35,
                "velocity": 64,
                "duration": 0.2227273,
                "tempo": 120.0
            },
            {
                "start_time": 92.15,
                "end_time": 92.3704545,
                "pitch": 35,
                "velocity": 64,
                "duration": 0.2204545,
                "tempo": 120.0
            },
            {
                "start_time": 92.4227273,
                "end_time": 92.6431818,
                "pitch": 35,
                "velocity": 64,
                "duration": 0.2204545,
                "tempo": 120.0
            },
            {
                "start_time": 94.0340909,
                "end_time": 94.7931818,
                "pitch": 35,
                "velocity": 64,
                "duration": 0.7590909,
                "tempo": 120.0
            },
            {
                "start_time": 94.8454545,
                "end_time": 95.0659091,
                "pitch": 31,
                "velocity": 64,
                "duration": 0.2204545,
                "tempo": 120.0
            },
            {
                "start_time": 95.1181818,
                "end_time": 95.3386364,
                "pitch": 31,
                "velocity": 64,
                "duration": 0.2204545,
                "tempo": 120.0
            },
            {
                "start_time": 95.3909091,
                "end_time": 95.6068182,
                "pitch": 31,
                "velocity": 64,
                "duration": 0.2159091,
                "tempo": 120.0
            },
            {
                "start_time": 95.6568182,
                "end_time": 95.875,
                "pitch": 31,
                "velocity": 64,
                "duration": 0.2181818,
                "tempo": 120.0
            },
            {
                "start_time": 95.925,
                "end_time": 96.1454545,
                "pitch": 31,
                "velocity": 64,
                "duration": 0.2204545,
                "tempo": 120.0
            },
            {
                "start_time": 96.1977273,
                "end_time": 96.4181818,
                "pitch": 31,
                "velocity": 64,
                "duration": 0.2204545,
                "tempo": 120.0
            },
            {
                "start_time": 96.4704545,
                "end_time": 96.6863636,
                "pitch": 31,
                "velocity": 64,
                "duration": 0.2159091,
                "tempo": 120.0
            },
            {
                "start_time": 96.7386364,
                "end_time": 96.9545455,
                "pitch": 31,
                "velocity": 64,
                "duration": 0.2159091,
                "tempo": 120.0
            },
            {
                "start_time": 97.0045455,
                "end_time": 97.2227273,
                "pitch": 31,
                "velocity": 64,
                "duration": 0.2181818,
                "tempo": 120.0
            },
            {
                "start_time": 97.2727273,
                "end_time": 97.4909091,
                "pitch": 31,
                "velocity": 64,
                "duration": 0.2181818,
                "tempo": 120.0
            },
            {
                "start_time": 97.5409091,
                "end_time": 97.7613636,
                "pitch": 31,
                "velocity": 64,
                "duration": 0.2204545,
                "tempo": 120.0
            },
            {
                "start_time": 97.8113636,
                "end_time": 98.0340909,
                "pitch": 43,
                "velocity": 64,
                "duration": 0.2227273,
                "tempo": 120.0
            },
            {
                "start_time": 77.1886364,
                "end_time": 98.0840909,
                "pitch": 0,
                "velocity": 64,
                "duration": 20.8954545,
                "tempo": 120.0
            },
            {
                "start_time": 77.4613636,
                "end_time": 98.3022727,
                "pitch": 42,
                "velocity": 64,
                "duration": 20.8409091,
                "tempo": 120.0
            },
            {
                "start_time": 98.0840909,
                "end_time": 98.3022727,
                "pitch": 42,
                "velocity": 64,
                "duration": 0.2181818,
                "tempo": 120.0
            },
            {
                "start_time": 98.3522727,
                "end_time": 98.5704545,
                "pitch": 42,
                "velocity": 64,
                "duration": 0.2181818,
                "tempo": 120.0
            },
            {
                "start_time": 98.6204545,
                "end_time": 98.8363636,
                "pitch": 42,
                "velocity": 64,
                "duration": 0.2159091,
                "tempo": 120.0
            },
            {
                "start_time": 88.1090909,
                "end_time": 99.1045455,
                "pitch": 40,
                "velocity": 64,
                "duration": 10.9954545,
                "tempo": 120.0
            },
            {
                "start_time": 98.8863636,
                "end_time": 99.1045455,
                "pitch": 40,
                "velocity": 64,
                "duration": 0.2181818,
                "tempo": 120.0
            },
            {
                "start_time": 85.9545455,
                "end_time": 99.375,
                "pitch": 38,
                "velocity": 64,
                "duration": 13.4204545,
                "tempo": 120.0
            },
            {
                "start_time": 99.1545455,
                "end_time": 99.375,
                "pitch": 38,
                "velocity": 64,
                "duration": 0.2204545,
                "tempo": 120.0
            },
            {
                "start_time": 99.4272727,
                "end_time": 99.6477273,
                "pitch": 38,
                "velocity": 64,
                "duration": 0.2204545,
                "tempo": 120.0
            },
            {
                "start_time": 99.7,
                "end_time": 99.9159091,
                "pitch": 38,
                "velocity": 64,
                "duration": 0.2159091,
                "tempo": 120.0
            },
            {
                "start_time": 99.9681818,
                "end_time": 100.1840909,
                "pitch": 38,
                "velocity": 64,
                "duration": 0.2159091,
                "tempo": 120.0
            },
            {
                "start_time": 100.2340909,
                "end_time": 100.4568182,
                "pitch": 38,
                "velocity": 64,
                "duration": 0.2227273,
                "tempo": 120.0
            },
            {
                "start_time": 100.5068182,
                "end_time": 100.7272727,
                "pitch": 38,
                "velocity": 64,
                "duration": 0.2204545,
                "tempo": 120.0
            },
            {
                "start_time": 100.7795455,
                "end_time": 100.9977273,
                "pitch": 38,
                "velocity": 64,
                "duration": 0.2181818,
                "tempo": 120.0
            },
            {
                "start_time": 101.0477273,
                "end_time": 101.2636364,
                "pitch": 38,
                "velocity": 64,
                "duration": 0.2159091,
                "tempo": 120.0
            },
            {
                "start_time": 101.3136364,
                "end_time": 101.5363636,
                "pitch": 38,
                "velocity": 64,
                "duration": 0.2227273,
                "tempo": 120.0
            },
            {
                "start_time": 101.5863636,
                "end_time": 101.8068182,
                "pitch": 38,
                "velocity": 64,
                "duration": 0.2204545,
                "tempo": 120.0
            },
            {
                "start_time": 101.8590909,
                "end_time": 102.0772727,
                "pitch": 38,
                "velocity": 64,
                "duration": 0.2181818,
                "tempo": 120.0
            },
            {
                "start_time": 102.1272727,
                "end_time": 102.3431818,
                "pitch": 38,
                "velocity": 64,
                "duration": 0.2159091,
                "tempo": 120.0
            },
            {
                "start_time": 102.3954545,
                "end_time": 102.6113636,
                "pitch": 38,
                "velocity": 64,
                "duration": 0.2159091,
                "tempo": 120.0
            },
            {
                "start_time": 102.6613636,
                "end_time": 102.8795455,
                "pitch": 39,
                "velocity": 64,
                "duration": 0.2181818,
                "tempo": 120.0
            },
            {
                "start_time": 102.9295455,
                "end_time": 103.15,
                "pitch": 39,
                "velocity": 64,
                "duration": 0.2204545,
                "tempo": 120.0
            },
            {
                "start_time": 103.2022727,
                "end_time": 103.4227273,
                "pitch": 39,
                "velocity": 64,
                "duration": 0.2204545,
                "tempo": 120.0
            },
            {
                "start_time": 103.475,
                "end_time": 103.6909091,
                "pitch": 39,
                "velocity": 64,
                "duration": 0.2159091,
                "tempo": 120.0
            },
            {
                "start_time": 99.1545455,
                "end_time": 103.9590909,
                "pitch": 40,
                "velocity": 64,
                "duration": 4.8045455,
                "tempo": 120.0
            },
            {
                "start_time": 103.7409091,
                "end_time": 103.9590909,
                "pitch": 40,
                "velocity": 64,
                "duration": 0.2181818,
                "tempo": 120.0
            },
            {
                "start_time": 104.0090909,
                "end_time": 104.2272727,
                "pitch": 40,
                "velocity": 64,
                "duration": 0.2181818,
                "tempo": 120.0
            },
            {
                "start_time": 104.2772727,
                "end_time": 104.4931818,
                "pitch": 40,
                "velocity": 64,
                "duration": 0.2159091,
                "tempo": 120.0
            },
            {
                "start_time": 104.5454545,
                "end_time": 104.7659091,
                "pitch": 40,
                "velocity": 64,
                "duration": 0.2204545,
                "tempo": 120.0
            },
            {
                "start_time": 104.8159091,
                "end_time": 105.0386364,
                "pitch": 40,
                "velocity": 64,
                "duration": 0.2227273,
                "tempo": 120.0
            },
            {
                "start_time": 105.0886364,
                "end_time": 105.3068182,
                "pitch": 40,
                "velocity": 64,
                "duration": 0.2181818,
                "tempo": 120.0
            },
            {
                "start_time": 105.3568182,
                "end_time": 105.5727273,
                "pitch": 40,
                "velocity": 64,
                "duration": 0.2159091,
                "tempo": 120.0
            },
            {
                "start_time": 105.625,
                "end_time": 105.8454545,
                "pitch": 40,
                "velocity": 64,
                "duration": 0.2204545,
                "tempo": 120.0
            },
            {
                "start_time": 105.8954545,
                "end_time": 106.1181818,
                "pitch": 40,
                "velocity": 64,
                "duration": 0.2227273,
                "tempo": 120.0
            },
            {
                "start_time": 106.1681818,
                "end_time": 106.3863636,
                "pitch": 40,
                "velocity": 64,
                "duration": 0.2181818,
                "tempo": 120.0
            },
            {
                "start_time": 106.4363636,
                "end_time": 106.6545455,
                "pitch": 40,
                "velocity": 64,
                "duration": 0.2181818,
                "tempo": 120.0
            },
            {
                "start_time": 106.7045455,
                "end_time": 106.925,
                "pitch": 40,
                "velocity": 64,
                "duration": 0.2204545,
                "tempo": 120.0
            },
            {
                "start_time": 106.9772727,
                "end_time": 107.1977273,
                "pitch": 40,
                "velocity": 64,
                "duration": 0.2204545,
                "tempo": 120.0
            },
            {
                "start_time": 107.2477273,
                "end_time": 107.4659091,
                "pitch": 40,
                "velocity": 64,
                "duration": 0.2181818,
                "tempo": 120.0
            },
            {
                "start_time": 107.5159091,
                "end_time": 107.7340909,
                "pitch": 40,
                "velocity": 64,
                "duration": 0.2181818,
                "tempo": 120.0
            },
            {
                "start_time": 107.7840909,
                "end_time": 108.0045455,
                "pitch": 38,
                "velocity": 64,
                "duration": 0.2204545,
                "tempo": 120.0
            },
            {
                "start_time": 108.0568182,
                "end_time": 108.2772727,
                "pitch": 38,
                "velocity": 64,
                "duration": 0.2204545,
                "tempo": 120.0
            },
            {
                "start_time": 108.3295455,
                "end_time": 108.5454545,
                "pitch": 38,
                "velocity": 64,
                "duration": 0.2159091,
                "tempo": 120.0
            },
            {
                "start_time": 108.5954545,
                "end_time": 108.8136364,
                "pitch": 38,
                "velocity": 64,
                "duration": 0.2181818,
                "tempo": 120.0
            },
            {
                "start_time": 108.8636364,
                "end_time": 109.0818182,
                "pitch": 38,
                "velocity": 64,
                "duration": 0.2181818,
                "tempo": 120.0
            },
            {
                "start_time": 109.1318182,
                "end_time": 109.3477273,
                "pitch": 38,
                "velocity": 64,
                "duration": 0.2159091,
                "tempo": 120.0
            },
            {
                "start_time": 109.4,
                "end_time": 109.6204545,
                "pitch": 38,
                "velocity": 64,
                "duration": 0.2204545,
                "tempo": 120.0
            },
            {
                "start_time": 109.6704545,
                "end_time": 109.8909091,
                "pitch": 38,
                "velocity": 64,
                "duration": 0.2204545,
                "tempo": 120.0
            },
            {
                "start_time": 109.9431818,
                "end_time": 110.1613636,
                "pitch": 38,
                "velocity": 64,
                "duration": 0.2181818,
                "tempo": 120.0
            },
            {
                "start_time": 110.2113636,
                "end_time": 110.4272727,
                "pitch": 38,
                "velocity": 64,
                "duration": 0.2159091,
                "tempo": 120.0
            },
            {
                "start_time": 110.4795455,
                "end_time": 110.6954545,
                "pitch": 38,
                "velocity": 64,
                "duration": 0.2159091,
                "tempo": 120.0
            },
            {
                "start_time": 110.7454545,
                "end_time": 110.9636364,
                "pitch": 38,
                "velocity": 64,
                "duration": 0.2181818,
                "tempo": 120.0
            },
            {
                "start_time": 111.0136364,
                "end_time": 111.2340909,
                "pitch": 38,
                "velocity": 64,
                "duration": 0.2204545,
                "tempo": 120.0
            },
            {
                "start_time": 107.7840909,
                "end_time": 111.5068182,
                "pitch": 40,
                "velocity": 64,
                "duration": 3.7227273,
                "tempo": 120.0
            },
            {
                "start_time": 111.2863636,
                "end_time": 111.5068182,
                "pitch": 40,
                "velocity": 64,
                "duration": 0.2204545,
                "tempo": 120.0
            },
            {
                "start_time": 111.5590909,
                "end_time": 111.775,
                "pitch": 40,
                "velocity": 64,
                "duration": 0.2159091,
                "tempo": 120.0
            },
            {
                "start_time": 111.825,
                "end_time": 112.0431818,
                "pitch": 42,
                "velocity": 64,
                "duration": 0.2181818,
                "tempo": 120.0
            },
            {
                "start_time": 77.0522727,
                "end_time": 112.0931818,
                "pitch": 54,
                "velocity": 64,
                "duration": 35.0409091,
                "tempo": 120.0
            },
            {
                "start_time": 112.0931818,
                "end_time": 112.3136364,
                "pitch": 43,
                "velocity": 64,
                "duration": 0.2204545,
                "tempo": 120.0
            },
            {
                "start_time": 112.3659091,
                "end_time": 112.5863636,
                "pitch": 43,
                "velocity": 64,
                "duration": 0.2204545,
                "tempo": 120.0
            },
            {
                "start_time": 112.6386364,
                "end_time": 112.8545455,
                "pitch": 43,
                "velocity": 64,
                "duration": 0.2159091,
                "tempo": 120.0
            },
            {
                "start_time": 112.9045455,
                "end_time": 113.1227273,
                "pitch": 43,
                "velocity": 64,
                "duration": 0.2181818,
                "tempo": 120.0
            },
            {
                "start_time": 113.1727273,
                "end_time": 113.3931818,
                "pitch": 43,
                "velocity": 64,
                "duration": 0.2204545,
                "tempo": 120.0
            },
            {
                "start_time": 113.4454545,
                "end_time": 113.6659091,
                "pitch": 43,
                "velocity": 64,
                "duration": 0.2204545,
                "tempo": 120.0
            },
            {
                "start_time": 113.7181818,
                "end_time": 113.9340909,
                "pitch": 43,
                "velocity": 64,
                "duration": 0.2159091,
                "tempo": 120.0
            },
            {
                "start_time": 113.9863636,
                "end_time": 114.2022727,
                "pitch": 43,
                "velocity": 64,
                "duration": 0.2159091,
                "tempo": 120.0
            },
            {
                "start_time": 114.2522727,
                "end_time": 114.4704545,
                "pitch": 43,
                "velocity": 64,
                "duration": 0.2181818,
                "tempo": 120.0
            },
            {
                "start_time": 114.5204545,
                "end_time": 114.7386364,
                "pitch": 43,
                "velocity": 64,
                "duration": 0.2181818,
                "tempo": 120.0
            },
            {
                "start_time": 114.7886364,
                "end_time": 115.0090909,
                "pitch": 43,
                "velocity": 64,
                "duration": 0.2204545,
                "tempo": 120.0
            },
            {
                "start_time": 115.0590909,
                "end_time": 115.2818182,
                "pitch": 43,
                "velocity": 64,
                "duration": 0.2227273,
                "tempo": 120.0
            },
            {
                "start_time": 115.3340909,
                "end_time": 115.55,
                "pitch": 43,
                "velocity": 64,
                "duration": 0.2159091,
                "tempo": 120.0
            },
            {
                "start_time": 115.6,
                "end_time": 115.8181818,
                "pitch": 43,
                "velocity": 64,
                "duration": 0.2181818,
                "tempo": 120.0
            },
            {
                "start_time": 98.0840909,
                "end_time": 115.8681818,
                "pitch": 0,
                "velocity": 64,
                "duration": 17.7840909,
                "tempo": 120.0
            },
            {
                "start_time": 115.8681818,
                "end_time": 116.0840909,
                "pitch": 42,
                "velocity": 64,
                "duration": 0.2159091,
                "tempo": 120.0
            },
            {
                "start_time": 116.1363636,
                "end_time": 116.3522727,
                "pitch": 42,
                "velocity": 64,
                "duration": 0.2159091,
                "tempo": 120.0
            },
            {
                "start_time": 116.4022727,
                "end_time": 116.6227273,
                "pitch": 42,
                "velocity": 64,
                "duration": 0.2204545,
                "tempo": 120.0
            },
            {
                "start_time": 75.7090909,
                "end_time": 116.8954545,
                "pitch": 41,
                "velocity": 64,
                "duration": 41.1863636,
                "tempo": 120.0
            },
            {
                "start_time": 116.675,
                "end_time": 116.8954545,
                "pitch": 41,
                "velocity": 64,
                "duration": 0.2204545,
                "tempo": 120.0
            },
            {
                "start_time": 116.9477273,
                "end_time": 117.1659091,
                "pitch": 41,
                "velocity": 64,
                "duration": 0.2181818,
                "tempo": 120.0
            },
            {
                "start_time": 117.2159091,
                "end_time": 117.4318182,
                "pitch": 41,
                "velocity": 64,
                "duration": 0.2159091,
                "tempo": 120.0
            },
            {
                "start_time": 117.4818182,
                "end_time": 117.7,
                "pitch": 41,
                "velocity": 64,
                "duration": 0.2181818,
                "tempo": 120.0
            },
            {
                "start_time": 117.75,
                "end_time": 117.9681818,
                "pitch": 41,
                "velocity": 64,
                "duration": 0.2181818,
                "tempo": 120.0
            },
            {
                "start_time": 118.0181818,
                "end_time": 118.2386364,
                "pitch": 41,
                "velocity": 64,
                "duration": 0.2204545,
                "tempo": 120.0
            },
            {
                "start_time": 118.2909091,
                "end_time": 118.5113636,
                "pitch": 41,
                "velocity": 64,
                "duration": 0.2204545,
                "tempo": 120.0
            },
            {
                "start_time": 118.5613636,
                "end_time": 118.7795455,
                "pitch": 41,
                "velocity": 64,
                "duration": 0.2181818,
                "tempo": 120.0
            },
            {
                "start_time": 118.8295455,
                "end_time": 119.0477273,
                "pitch": 41,
                "velocity": 64,
                "duration": 0.2181818,
                "tempo": 120.0
            },
            {
                "start_time": 119.0977273,
                "end_time": 119.3181818,
                "pitch": 41,
                "velocity": 64,
                "duration": 0.2204545,
                "tempo": 120.0
            },
            {
                "start_time": 119.3704545,
                "end_time": 119.5909091,
                "pitch": 41,
                "velocity": 64,
                "duration": 0.2204545,
                "tempo": 120.0
            },
            {
                "start_time": 119.6431818,
                "end_time": 119.8590909,
                "pitch": 41,
                "velocity": 64,
                "duration": 0.2159091,
                "tempo": 120.0
            },
            {
                "start_time": 119.9090909,
                "end_time": 120.1272727,
                "pitch": 41,
                "velocity": 64,
                "duration": 0.2181818,
                "tempo": 120.0
            },
            {
                "start_time": 120.1772727,
                "end_time": 120.3977273,
                "pitch": 41,
                "velocity": 64,
                "duration": 0.2204545,
                "tempo": 120.0
            },
            {
                "start_time": 120.45,
                "end_time": 120.6704545,
                "pitch": 41,
                "velocity": 64,
                "duration": 0.2204545,
                "tempo": 120.0
            },
            {
                "start_time": 120.7227273,
                "end_time": 120.9386364,
                "pitch": 41,
                "velocity": 64,
                "duration": 0.2159091,
                "tempo": 120.0
            },
            {
                "start_time": 120.9886364,
                "end_time": 121.2068182,
                "pitch": 40,
                "velocity": 64,
                "duration": 0.2181818,
                "tempo": 120.0
            },
            {
                "start_time": 121.2568182,
                "end_time": 121.475,
                "pitch": 40,
                "velocity": 64,
                "duration": 0.2181818,
                "tempo": 120.0
            },
            {
                "start_time": 121.525,
                "end_time": 121.7409091,
                "pitch": 40,
                "velocity": 64,
                "duration": 0.2159091,
                "tempo": 120.0
            },
            {
                "start_time": 121.7931818,
                "end_time": 122.0136364,
                "pitch": 40,
                "velocity": 64,
                "duration": 0.2204545,
                "tempo": 120.0
            },
            {
                "start_time": 122.0636364,
                "end_time": 122.2863636,
                "pitch": 40,
                "velocity": 64,
                "duration": 0.2227273,
                "tempo": 120.0
            },
            {
                "start_time": 122.3363636,
                "end_time": 122.5545455,
                "pitch": 40,
                "velocity": 64,
                "duration": 0.2181818,
                "tempo": 120.0
            },
            {
                "start_time": 122.6045455,
                "end_time": 122.8204545,
                "pitch": 40,
                "velocity": 64,
                "duration": 0.2159091,
                "tempo": 120.0
            },
            {
                "start_time": 122.8727273,
                "end_time": 123.0931818,
                "pitch": 40,
                "velocity": 64,
                "duration": 0.2204545,
                "tempo": 120.0
            },
            {
                "start_time": 123.1431818,
                "end_time": 123.3659091,
                "pitch": 40,
                "velocity": 64,
                "duration": 0.2227273,
                "tempo": 120.0
            },
            {
                "start_time": 123.4159091,
                "end_time": 123.6340909,
                "pitch": 40,
                "velocity": 64,
                "duration": 0.2181818,
                "tempo": 120.0
            },
            {
                "start_time": 123.6840909,
                "end_time": 123.9022727,
                "pitch": 40,
                "velocity": 64,
                "duration": 0.2181818,
                "tempo": 120.0
            },
            {
                "start_time": 123.9522727,
                "end_time": 124.1681818,
                "pitch": 40,
                "velocity": 64,
                "duration": 0.2159091,
                "tempo": 120.0
            },
            {
                "start_time": 124.2204545,
                "end_time": 124.4363636,
                "pitch": 40,
                "velocity": 64,
                "duration": 0.2159091,
                "tempo": 120.0
            },
            {
                "start_time": 111.2863636,
                "end_time": 124.7068182,
                "pitch": 38,
                "velocity": 64,
                "duration": 13.4204545,
                "tempo": 120.0
            },
            {
                "start_time": 124.4863636,
                "end_time": 124.7068182,
                "pitch": 38,
                "velocity": 64,
                "duration": 0.2204545,
                "tempo": 120.0
            },
            {
                "start_time": 124.7590909,
                "end_time": 124.9795455,
                "pitch": 38,
                "velocity": 64,
                "duration": 0.2204545,
                "tempo": 120.0
            },
            {
                "start_time": 125.0318182,
                "end_time": 125.2477273,
                "pitch": 36,
                "velocity": 64,
                "duration": 0.2159091,
                "tempo": 120.0
            },
            {
                "start_time": 125.3,
                "end_time": 125.5159091,
                "pitch": 36,
                "velocity": 64,
                "duration": 0.2159091,
                "tempo": 120.0
            },
            {
                "start_time": 125.5659091,
                "end_time": 125.7886364,
                "pitch": 36,
                "velocity": 64,
                "duration": 0.2227273,
                "tempo": 120.0
            },
            {
                "start_time": 125.8386364,
                "end_time": 126.0590909,
                "pitch": 36,
                "velocity": 64,
                "duration": 0.2204545,
                "tempo": 120.0
            },
            {
                "start_time": 126.1113636,
                "end_time": 126.3295455,
                "pitch": 36,
                "velocity": 64,
                "duration": 0.2181818,
                "tempo": 120.0
            },
            {
                "start_time": 126.3795455,
                "end_time": 126.5954545,
                "pitch": 36,
                "velocity": 64,
                "duration": 0.2159091,
                "tempo": 120.0
            },
            {
                "start_time": 126.6477273,
                "end_time": 126.8681818,
                "pitch": 36,
                "velocity": 64,
                "duration": 0.2204545,
                "tempo": 120.0
            },
            {
                "start_time": 126.9181818,
                "end_time": 127.1386364,
                "pitch": 36,
                "velocity": 64,
                "duration": 0.2204545,
                "tempo": 120.0
            },
            {
                "start_time": 125.0318182,
                "end_time": 127.4090909,
                "pitch": 38,
                "velocity": 64,
                "duration": 2.3772727,
                "tempo": 120.0
            },
            {
                "start_time": 127.1909091,
                "end_time": 127.4090909,
                "pitch": 38,
                "velocity": 64,
                "duration": 0.2181818,
                "tempo": 120.0
            },
            {
                "start_time": 127.4590909,
                "end_time": 127.675,
                "pitch": 38,
                "velocity": 64,
                "duration": 0.2159091,
                "tempo": 120.0
            },
            {
                "start_time": 127.7272727,
                "end_time": 127.9431818,
                "pitch": 38,
                "velocity": 64,
                "duration": 0.2159091,
                "tempo": 120.0
            },
            {
                "start_time": 127.9931818,
                "end_time": 128.2113636,
                "pitch": 38,
                "velocity": 64,
                "duration": 0.2181818,
                "tempo": 120.0
            },
            {
                "start_time": 128.2613636,
                "end_time": 128.4818182,
                "pitch": 38,
                "velocity": 64,
                "duration": 0.2204545,
                "tempo": 120.0
            },
            {
                "start_time": 128.5340909,
                "end_time": 128.7545455,
                "pitch": 38,
                "velocity": 64,
                "duration": 0.2204545,
                "tempo": 120.0
            },
            {
                "start_time": 128.8068182,
                "end_time": 129.0227273,
                "pitch": 38,
                "velocity": 64,
                "duration": 0.2159091,
                "tempo": 120.0
            },
            {
                "start_time": 129.0727273,
                "end_time": 129.2909091,
                "pitch": 38,
                "velocity": 64,
                "duration": 0.2181818,
                "tempo": 120.0
            },
            {
                "start_time": 124.4863636,
                "end_time": 129.425,
                "pitch": 40,
                "velocity": 64,
                "duration": 4.9386364,
                "tempo": 120.0
            },
            {
                "start_time": 129.3409091,
                "end_time": 129.425,
                "pitch": 40,
                "velocity": 64,
                "duration": 0.0840909,
                "tempo": 120.0
            },
            {
                "start_time": 129.4772727,
                "end_time": 129.5613636,
                "pitch": 40,
                "velocity": 64,
                "duration": 0.0840909,
                "tempo": 120.0
            },
            {
                "start_time": 129.3409091,
                "end_time": 129.6977273,
                "pitch": 38,
                "velocity": 64,
                "duration": 0.3568182,
                "tempo": 120.0
            },
            {
                "start_time": 129.6136364,
                "end_time": 129.6977273,
                "pitch": 38,
                "velocity": 64,
                "duration": 0.0840909,
                "tempo": 120.0
            },
            {
                "start_time": 129.6136364,
                "end_time": 129.8340909,
                "pitch": 40,
                "velocity": 64,
                "duration": 0.2204545,
                "tempo": 120.0
            },
            {
                "start_time": 129.75,
                "end_time": 129.8340909,
                "pitch": 40,
                "velocity": 64,
                "duration": 0.0840909,
                "tempo": 120.0
            },
            {
                "start_time": 112.0931818,
                "end_time": 130.1545455,
                "pitch": 54,
                "velocity": 64,
                "duration": 18.0613636,
                "tempo": 120.0
            },
            {
                "start_time": 130.1545455,
                "end_time": 130.3704545,
                "pitch": 43,
                "velocity": 64,
                "duration": 0.2159091,
                "tempo": 120.0
            },
            {
                "start_time": 130.4204545,
                "end_time": 130.6386364,
                "pitch": 43,
                "velocity": 64,
                "duration": 0.2181818,
                "tempo": 120.0
            },
            {
                "start_time": 130.6886364,
                "end_time": 130.7727273,
                "pitch": 57,
                "velocity": 64,
                "duration": 0.0840909,
                "tempo": 120.0
            },
            {
                "start_time": 130.8227273,
                "end_time": 131.0386364,
                "pitch": 45,
                "velocity": 64,
                "duration": 0.2159091,
                "tempo": 120.0
            },
            {
                "start_time": 131.0909091,
                "end_time": 131.1727273,
                "pitch": 43,
                "velocity": 64,
                "duration": 0.0818182,
                "tempo": 120.0
            },
            {
                "start_time": 131.2227273,
                "end_time": 131.3068182,
                "pitch": 55,
                "velocity": 64,
                "duration": 0.0840909,
                "tempo": 120.0
            },
            {
                "start_time": 131.3568182,
                "end_time": 131.4409091,
                "pitch": 45,
                "velocity": 64,
                "duration": 0.0840909,
                "tempo": 120.0
            },
            {
                "start_time": 75.9818182,
                "end_time": 131.4909091,
                "pitch": 7,
                "velocity": 64,
                "duration": 55.5090909,
                "tempo": 120.0
            },
            {
                "start_time": 131.4909091,
                "end_time": 131.575,
                "pitch": 40,
                "velocity": 64,
                "duration": 0.0840909,
                "tempo": 120.0
            },
            {
                "start_time": 131.6272727,
                "end_time": 131.7113636,
                "pitch": 40,
                "velocity": 64,
                "duration": 0.0840909,
                "tempo": 120.0
            },
            {
                "start_time": 129.75,
                "end_time": 131.8477273,
                "pitch": 38,
                "velocity": 64,
                "duration": 2.0977273,
                "tempo": 120.0
            },
            {
                "start_time": 131.7636364,
                "end_time": 131.8477273,
                "pitch": 38,
                "velocity": 64,
                "duration": 0.0840909,
                "tempo": 120.0
            },
            {
                "start_time": 131.7636364,
                "end_time": 131.9840909,
                "pitch": 40,
                "velocity": 64,
                "duration": 0.2204545,
                "tempo": 120.0
            },
            {
                "start_time": 131.9,
                "end_time": 131.9840909,
                "pitch": 40,
                "velocity": 64,
                "duration": 0.0840909,
                "tempo": 120.0
            },
            {
                "start_time": 130.1545455,
                "end_time": 132.3045455,
                "pitch": 54,
                "velocity": 64,
                "duration": 2.15,
                "tempo": 120.0
            },
            {
                "start_time": 132.3045455,
                "end_time": 132.5204545,
                "pitch": 43,
                "velocity": 64,
                "duration": 0.2159091,
                "tempo": 120.0
            },
            {
                "start_time": 132.5704545,
                "end_time": 132.7886364,
                "pitch": 43,
                "velocity": 64,
                "duration": 0.2181818,
                "tempo": 120.0
            },
            {
                "start_time": 132.8386364,
                "end_time": 132.9227273,
                "pitch": 57,
                "velocity": 64,
                "duration": 0.0840909,
                "tempo": 120.0
            },
            {
                "start_time": 132.9727273,
                "end_time": 133.1909091,
                "pitch": 45,
                "velocity": 64,
                "duration": 0.2181818,
                "tempo": 120.0
            },
            {
                "start_time": 133.2431818,
                "end_time": 133.3272727,
                "pitch": 43,
                "velocity": 64,
                "duration": 0.0840909,
                "tempo": 120.0
            },
            {
                "start_time": 133.3795455,
                "end_time": 133.4636364,
                "pitch": 55,
                "velocity": 64,
                "duration": 0.0840909,
                "tempo": 120.0
            },
            {
                "start_time": 133.5136364,
                "end_time": 133.6,
                "pitch": 45,
                "velocity": 64,
                "duration": 0.0863636,
                "tempo": 120.0
            },
            {
                "start_time": 131.4909091,
                "end_time": 133.65,
                "pitch": 7,
                "velocity": 64,
                "duration": 2.1590909,
                "tempo": 120.0
            },
            {
                "start_time": 133.65,
                "end_time": 133.7363636,
                "pitch": 40,
                "velocity": 64,
                "duration": 0.0863636,
                "tempo": 120.0
            },
            {
                "start_time": 133.7863636,
                "end_time": 133.8727273,
                "pitch": 40,
                "velocity": 64,
                "duration": 0.0863636,
                "tempo": 120.0
            },
            {
                "start_time": 131.9,
                "end_time": 134.0090909,
                "pitch": 38,
                "velocity": 64,
                "duration": 2.1090909,
                "tempo": 120.0
            },
            {
                "start_time": 133.9227273,
                "end_time": 134.0090909,
                "pitch": 38,
                "velocity": 64,
                "duration": 0.0863636,
                "tempo": 120.0
            },
            {
                "start_time": 133.9227273,
                "end_time": 134.1431818,
                "pitch": 40,
                "velocity": 64,
                "duration": 0.2204545,
                "tempo": 120.0
            },
            {
                "start_time": 134.0590909,
                "end_time": 134.1431818,
                "pitch": 40,
                "velocity": 64,
                "duration": 0.0840909,
                "tempo": 120.0
            },
            {
                "start_time": 132.3045455,
                "end_time": 134.4636364,
                "pitch": 54,
                "velocity": 64,
                "duration": 2.1590909,
                "tempo": 120.0
            },
            {
                "start_time": 134.4636364,
                "end_time": 134.6795455,
                "pitch": 43,
                "velocity": 64,
                "duration": 0.2159091,
                "tempo": 120.0
            },
            {
                "start_time": 134.7318182,
                "end_time": 134.9477273,
                "pitch": 43,
                "velocity": 64,
                "duration": 0.2159091,
                "tempo": 120.0
            },
            {
                "start_time": 134.9977273,
                "end_time": 135.0818182,
                "pitch": 57,
                "velocity": 64,
                "duration": 0.0840909,
                "tempo": 120.0
            },
            {
                "start_time": 135.1318182,
                "end_time": 135.35,
                "pitch": 45,
                "velocity": 64,
                "duration": 0.2181818,
                "tempo": 120.0
            },
            {
                "start_time": 135.4,
                "end_time": 135.4840909,
                "pitch": 43,
                "velocity": 64,
                "duration": 0.0840909,
                "tempo": 120.0
            },
            {
                "start_time": 135.5340909,
                "end_time": 135.6159091,
                "pitch": 55,
                "velocity": 64,
                "duration": 0.0818182,
                "tempo": 120.0
            },
            {
                "start_time": 135.6681818,
                "end_time": 135.75,
                "pitch": 45,
                "velocity": 64,
                "duration": 0.0818182,
                "tempo": 120.0
            },
            {
                "start_time": 133.65,
                "end_time": 135.8022727,
                "pitch": 7,
                "velocity": 64,
                "duration": 2.1522727,
                "tempo": 120.0
            },
            {
                "start_time": 135.8022727,
                "end_time": 135.8863636,
                "pitch": 40,
                "velocity": 64,
                "duration": 0.0840909,
                "tempo": 120.0
            },
            {
                "start_time": 135.9363636,
                "end_time": 136.0227273,
                "pitch": 40,
                "velocity": 64,
                "duration": 0.0863636,
                "tempo": 120.0
            },
            {
                "start_time": 134.0590909,
                "end_time": 136.1590909,
                "pitch": 38,
                "velocity": 64,
                "duration": 2.1,
                "tempo": 120.0
            },
            {
                "start_time": 136.0727273,
                "end_time": 136.1590909,
                "pitch": 38,
                "velocity": 64,
                "duration": 0.0863636,
                "tempo": 120.0
            },
            {
                "start_time": 136.0727273,
                "end_time": 136.2954545,
                "pitch": 40,
                "velocity": 64,
                "duration": 0.2227273,
                "tempo": 120.0
            },
            {
                "start_time": 136.2090909,
                "end_time": 136.2954545,
                "pitch": 40,
                "velocity": 64,
                "duration": 0.0863636,
                "tempo": 120.0
            },
            {
                "start_time": 134.4636364,
                "end_time": 136.6136364,
                "pitch": 54,
                "velocity": 64,
                "duration": 2.15,
                "tempo": 120.0
            },
            {
                "start_time": 136.6136364,
                "end_time": 136.8295455,
                "pitch": 43,
                "velocity": 64,
                "duration": 0.2159091,
                "tempo": 120.0
            },
            {
                "start_time": 136.8818182,
                "end_time": 137.0977273,
                "pitch": 43,
                "velocity": 64,
                "duration": 0.2159091,
                "tempo": 120.0
            },
            {
                "start_time": 137.1477273,
                "end_time": 137.2318182,
                "pitch": 57,
                "velocity": 64,
                "duration": 0.0840909,
                "tempo": 120.0
            },
            {
                "start_time": 137.2818182,
                "end_time": 137.5,
                "pitch": 45,
                "velocity": 64,
                "duration": 0.2181818,
                "tempo": 120.0
            },
            {
                "start_time": 137.5522727,
                "end_time": 137.6363636,
                "pitch": 43,
                "velocity": 64,
                "duration": 0.0840909,
                "tempo": 120.0
            },
            {
                "start_time": 137.6886364,
                "end_time": 137.7727273,
                "pitch": 55,
                "velocity": 64,
                "duration": 0.0840909,
                "tempo": 120.0
            },
            {
                "start_time": 137.825,
                "end_time": 137.9090909,
                "pitch": 45,
                "velocity": 64,
                "duration": 0.0840909,
                "tempo": 120.0
            },
            {
                "start_time": 135.8022727,
                "end_time": 137.9613636,
                "pitch": 7,
                "velocity": 64,
                "duration": 2.1590909,
                "tempo": 120.0
            },
            {
                "start_time": 137.9613636,
                "end_time": 138.0431818,
                "pitch": 40,
                "velocity": 64,
                "duration": 0.0818182,
                "tempo": 120.0
            },
            {
                "start_time": 138.0954545,
                "end_time": 138.1772727,
                "pitch": 40,
                "velocity": 64,
                "duration": 0.0818182,
                "tempo": 120.0
            }
        ],
        "Acoustic Grand Piano": [
            {
                "start_time": 92.9636364,
                "end_time": 93.0477273,
                "pitch": 51,
                "velocity": 40,
                "duration": 0.0840909,
                "tempo": 120.0
            },
            {
                "start_time": 93.0977273,
                "end_time": 93.1795455,
                "pitch": 52,
                "velocity": 40,
                "duration": 0.0818182,
                "tempo": 120.0
            },
            {
                "start_time": 93.2318182,
                "end_time": 93.3136364,
                "pitch": 59,
                "velocity": 40,
                "duration": 0.0818182,
                "tempo": 120.0
            },
            {
                "start_time": 93.3659091,
                "end_time": 93.4477273,
                "pitch": 61,
                "velocity": 40,
                "duration": 0.0818182,
                "tempo": 120.0
            },
            {
                "start_time": 93.5,
                "end_time": 93.5818182,
                "pitch": 63,
                "velocity": 40,
                "duration": 0.0818182,
                "tempo": 120.0
            },
            {
                "start_time": 93.6340909,
                "end_time": 93.7159091,
                "pitch": 63,
                "velocity": 40,
                "duration": 0.0818182,
                "tempo": 120.0
            },
            {
                "start_time": 93.7681818,
                "end_time": 93.85,
                "pitch": 64,
                "velocity": 40,
                "duration": 0.0818182,
                "tempo": 120.0
            },
            {
                "start_time": 93.2318182,
                "end_time": 94.1159091,
                "pitch": 66,
                "velocity": 40,
                "duration": 0.8840909,
                "tempo": 120.0
            },
            {
                "start_time": 94.0340909,
                "end_time": 94.1159091,
                "pitch": 66,
                "velocity": 40,
                "duration": 0.0818182,
                "tempo": 120.0
            },
            {
                "start_time": 94.1681818,
                "end_time": 94.25,
                "pitch": 67,
                "velocity": 40,
                "duration": 0.0818182,
                "tempo": 120.0
            },
            {
                "start_time": 94.3022727,
                "end_time": 94.3863636,
                "pitch": 67,
                "velocity": 40,
                "duration": 0.0840909,
                "tempo": 120.0
            },
            {
                "start_time": 94.4386364,
                "end_time": 94.5227273,
                "pitch": 71,
                "velocity": 40,
                "duration": 0.0840909,
                "tempo": 120.0
            },
            {
                "start_time": 94.575,
                "end_time": 94.6590909,
                "pitch": 72,
                "velocity": 40,
                "duration": 0.0840909,
                "tempo": 120.0
            },
            {
                "start_time": 94.7113636,
                "end_time": 94.7954545,
                "pitch": 74,
                "velocity": 40,
                "duration": 0.0840909,
                "tempo": 120.0
            },
            {
                "start_time": 94.8477273,
                "end_time": 94.9295455,
                "pitch": 91,
                "velocity": 40,
                "duration": 0.0818182,
                "tempo": 120.0
            },
            {
                "start_time": 94.9818182,
                "end_time": 95.0659091,
                "pitch": 90,
                "velocity": 40,
                "duration": 0.0840909,
                "tempo": 120.0
            },
            {
                "start_time": 95.1204545,
                "end_time": 95.2022727,
                "pitch": 91,
                "velocity": 40,
                "duration": 0.0818182,
                "tempo": 120.0
            },
            {
                "start_time": 94.9818182,
                "end_time": 95.2545455,
                "pitch": 7,
                "velocity": 40,
                "duration": 0.2727273,
                "tempo": 120.0
            },
            {
                "start_time": 95.2545455,
                "end_time": 95.3386364,
                "pitch": 86,
                "velocity": 40,
                "duration": 0.0840909,
                "tempo": 120.0
            },
            {
                "start_time": 94.8477273,
                "end_time": 95.3909091,
                "pitch": 101,
                "velocity": 40,
                "duration": 0.5431818,
                "tempo": 120.0
            },
            {
                "start_time": 95.3909091,
                "end_time": 95.4727273,
                "pitch": 91,
                "velocity": 40,
                "duration": 0.0818182,
                "tempo": 120.0
            },
            {
                "start_time": 95.2545455,
                "end_time": 95.525,
                "pitch": 7,
                "velocity": 40,
                "duration": 0.2704545,
                "tempo": 120.0
            },
            {
                "start_time": 95.525,
                "end_time": 95.6068182,
                "pitch": 90,
                "velocity": 40,
                "duration": 0.0818182,
                "tempo": 120.0
            },
            {
                "start_time": 95.1204545,
                "end_time": 95.6590909,
                "pitch": 102,
                "velocity": 40,
                "duration": 0.5386364,
                "tempo": 120.0
            },
            {
                "start_time": 95.6590909,
                "end_time": 95.7409091,
                "pitch": 91,
                "velocity": 40,
                "duration": 0.0818182,
                "tempo": 120.0
            },
            {
                "start_time": 95.525,
                "end_time": 95.7909091,
                "pitch": 7,
                "velocity": 40,
                "duration": 0.2659091,
                "tempo": 120.0
            },
            {
                "start_time": 95.7909091,
                "end_time": 95.875,
                "pitch": 86,
                "velocity": 40,
                "duration": 0.0840909,
                "tempo": 120.0
            },
            {
                "start_time": 95.3909091,
                "end_time": 95.9272727,
                "pitch": 101,
                "velocity": 40,
                "duration": 0.5363636,
                "tempo": 120.0
            },
            {
                "start_time": 95.9272727,
                "end_time": 96.0090909,
                "pitch": 91,
                "velocity": 40,
                "duration": 0.0818182,
                "tempo": 120.0
            },
            {
                "start_time": 95.7909091,
                "end_time": 96.0613636,
                "pitch": 7,
                "velocity": 40,
                "duration": 0.2704545,
                "tempo": 120.0
            },
            {
                "start_time": 96.0613636,
                "end_time": 96.1454545,
                "pitch": 90,
                "velocity": 40,
                "duration": 0.0840909,
                "tempo": 120.0
            },
            {
                "start_time": 95.6590909,
                "end_time": 96.1977273,
                "pitch": 102,
                "velocity": 40,
                "duration": 0.5386364,
                "tempo": 120.0
            },
            {
                "start_time": 96.1977273,
                "end_time": 96.2818182,
                "pitch": 91,
                "velocity": 40,
                "duration": 0.0840909,
                "tempo": 120.0
            },
            {
                "start_time": 96.0613636,
                "end_time": 96.3340909,
                "pitch": 7,
                "velocity": 40,
                "duration": 0.2727273,
                "tempo": 120.0
            },
            {
                "start_time": 96.3340909,
                "end_time": 96.4181818,
                "pitch": 86,
                "velocity": 40,
                "duration": 0.0840909,
                "tempo": 120.0
            },
            {
                "start_time": 95.9272727,
                "end_time": 96.4727273,
                "pitch": 101,
                "velocity": 40,
                "duration": 0.5454545,
                "tempo": 120.0
            },
            {
                "start_time": 96.4727273,
                "end_time": 96.5545455,
                "pitch": 91,
                "velocity": 40,
                "duration": 0.0818182,
                "tempo": 120.0
            },
            {
                "start_time": 96.3340909,
                "end_time": 96.6045455,
                "pitch": 7,
                "velocity": 40,
                "duration": 0.2704545,
                "tempo": 120.0
            },
            {
                "start_time": 96.6045455,
                "end_time": 96.6863636,
                "pitch": 90,
                "velocity": 40,
                "duration": 0.0818182,
                "tempo": 120.0
            },
            {
                "start_time": 96.1977273,
                "end_time": 96.7386364,
                "pitch": 102,
                "velocity": 40,
                "duration": 0.5409091,
                "tempo": 120.0
            },
            {
                "start_time": 96.7386364,
                "end_time": 96.8204545,
                "pitch": 91,
                "velocity": 40,
                "duration": 0.0818182,
                "tempo": 120.0
            },
            {
                "start_time": 96.6045455,
                "end_time": 96.8704545,
                "pitch": 7,
                "velocity": 40,
                "duration": 0.2659091,
                "tempo": 120.0
            },
            {
                "start_time": 96.8704545,
                "end_time": 96.9545455,
                "pitch": 86,
                "velocity": 40,
                "duration": 0.0840909,
                "tempo": 120.0
            },
            {
                "start_time": 96.4727273,
                "end_time": 97.0068182,
                "pitch": 101,
                "velocity": 40,
                "duration": 0.5340909,
                "tempo": 120.0
            },
            {
                "start_time": 97.0068182,
                "end_time": 97.0886364,
                "pitch": 91,
                "velocity": 40,
                "duration": 0.0818182,
                "tempo": 120.0
            },
            {
                "start_time": 96.8704545,
                "end_time": 97.1386364,
                "pitch": 7,
                "velocity": 40,
                "duration": 0.2681818,
                "tempo": 120.0
            },
            {
                "start_time": 97.1386364,
                "end_time": 97.2227273,
                "pitch": 90,
                "velocity": 40,
                "duration": 0.0840909,
                "tempo": 120.0
            },
            {
                "start_time": 96.7386364,
                "end_time": 97.2727273,
                "pitch": 102,
                "velocity": 40,
                "duration": 0.5340909,
                "tempo": 120.0
            },
            {
                "start_time": 97.2727273,
                "end_time": 97.3568182,
                "pitch": 91,
                "velocity": 40,
                "duration": 0.0840909,
                "tempo": 120.0
            },
            {
                "start_time": 97.1386364,
                "end_time": 97.4068182,
                "pitch": 7,
                "velocity": 40,
                "duration": 0.2681818,
                "tempo": 120.0
            },
            {
                "start_time": 97.4068182,
                "end_time": 97.4909091,
                "pitch": 86,
                "velocity": 40,
                "duration": 0.0840909,
                "tempo": 120.0
            },
            {
                "start_time": 97.0068182,
                "end_time": 97.5431818,
                "pitch": 101,
                "velocity": 40,
                "duration": 0.5363636,
                "tempo": 120.0
            },
            {
                "start_time": 97.5409091,
                "end_time": 97.5431818,
                "pitch": 101,
                "velocity": 40,
                "duration": 0.0022727,
                "tempo": 120.0
            },
            {
                "start_time": 97.5431818,
                "end_time": 97.625,
                "pitch": 91,
                "velocity": 40,
                "duration": 0.0818182,
                "tempo": 120.0
            },
            {
                "start_time": 97.4068182,
                "end_time": 97.6772727,
                "pitch": 7,
                "velocity": 40,
                "duration": 0.2704545,
                "tempo": 120.0
            },
            {
                "start_time": 97.6772727,
                "end_time": 97.7613636,
                "pitch": 90,
                "velocity": 40,
                "duration": 0.0840909,
                "tempo": 120.0
            },
            {
                "start_time": 97.2727273,
                "end_time": 97.8136364,
                "pitch": 102,
                "velocity": 40,
                "duration": 0.5409091,
                "tempo": 120.0
            },
            {
                "start_time": 97.8136364,
                "end_time": 97.8977273,
                "pitch": 91,
                "velocity": 40,
                "duration": 0.0840909,
                "tempo": 120.0
            },
            {
                "start_time": 97.6772727,
                "end_time": 97.9477273,
                "pitch": 7,
                "velocity": 40,
                "duration": 0.2704545,
                "tempo": 120.0
            },
            {
                "start_time": 97.9477273,
                "end_time": 98.0340909,
                "pitch": 86,
                "velocity": 40,
                "duration": 0.0863636,
                "tempo": 120.0
            },
            {
                "start_time": 98.0863636,
                "end_time": 98.1681818,
                "pitch": 91,
                "velocity": 40,
                "duration": 0.0818182,
                "tempo": 120.0
            },
            {
                "start_time": 97.9477273,
                "end_time": 98.2181818,
                "pitch": 7,
                "velocity": 40,
                "duration": 0.2704545,
                "tempo": 120.0
            },
            {
                "start_time": 98.2181818,
                "end_time": 98.3022727,
                "pitch": 90,
                "velocity": 40,
                "duration": 0.0840909,
                "tempo": 120.0
            },
            {
                "start_time": 97.8136364,
                "end_time": 98.3545455,
                "pitch": 102,
                "velocity": 40,
                "duration": 0.5409091,
                "tempo": 120.0
            },
            {
                "start_time": 98.3545455,
                "end_time": 98.4363636,
                "pitch": 91,
                "velocity": 40,
                "duration": 0.0818182,
                "tempo": 120.0
            },
            {
                "start_time": 98.2181818,
                "end_time": 98.4863636,
                "pitch": 7,
                "velocity": 40,
                "duration": 0.2681818,
                "tempo": 120.0
            },
            {
                "start_time": 98.4863636,
                "end_time": 98.5704545,
                "pitch": 86,
                "velocity": 40,
                "duration": 0.0840909,
                "tempo": 120.0
            },
            {
                "start_time": 98.0863636,
                "end_time": 98.6227273,
                "pitch": 101,
                "velocity": 40,
                "duration": 0.5363636,
                "tempo": 120.0
            },
            {
                "start_time": 98.6227273,
                "end_time": 98.7045455,
                "pitch": 91,
                "velocity": 40,
                "duration": 0.0818182,
                "tempo": 120.0
            },
            {
                "start_time": 98.4863636,
                "end_time": 98.7545455,
                "pitch": 7,
                "velocity": 40,
                "duration": 0.2681818,
                "tempo": 120.0
            },
            {
                "start_time": 98.7545455,
                "end_time": 98.8363636,
                "pitch": 90,
                "velocity": 40,
                "duration": 0.0818182,
                "tempo": 120.0
            },
            {
                "start_time": 98.3545455,
                "end_time": 98.8886364,
                "pitch": 102,
                "velocity": 40,
                "duration": 0.5340909,
                "tempo": 120.0
            },
            {
                "start_time": 98.8886364,
                "end_time": 98.9704545,
                "pitch": 91,
                "velocity": 40,
                "duration": 0.0818182,
                "tempo": 120.0
            },
            {
                "start_time": 98.7545455,
                "end_time": 99.0227273,
                "pitch": 7,
                "velocity": 40,
                "duration": 0.2681818,
                "tempo": 120.0
            },
            {
                "start_time": 99.0227273,
                "end_time": 99.1045455,
                "pitch": 88,
                "velocity": 40,
                "duration": 0.0818182,
                "tempo": 120.0
            },
            {
                "start_time": 99.1568182,
                "end_time": 99.2409091,
                "pitch": 86,
                "velocity": 40,
                "duration": 0.0840909,
                "tempo": 120.0
            },
            {
                "start_time": 99.2909091,
                "end_time": 99.3772727,
                "pitch": 86,
                "velocity": 40,
                "duration": 0.0863636,
                "tempo": 120.0
            },
            {
                "start_time": 99.4295455,
                "end_time": 99.5113636,
                "pitch": 85,
                "velocity": 40,
                "duration": 0.0818182,
                "tempo": 120.0
            },
            {
                "start_time": 99.5636364,
                "end_time": 99.6477273,
                "pitch": 81,
                "velocity": 40,
                "duration": 0.0840909,
                "tempo": 120.0
            },
            {
                "start_time": 99.7,
                "end_time": 99.7840909,
                "pitch": 86,
                "velocity": 40,
                "duration": 0.0840909,
                "tempo": 120.0
            },
            {
                "start_time": 99.8340909,
                "end_time": 99.9181818,
                "pitch": 86,
                "velocity": 40,
                "duration": 0.0840909,
                "tempo": 120.0
            },
            {
                "start_time": 99.9681818,
                "end_time": 100.05,
                "pitch": 85,
                "velocity": 40,
                "duration": 0.0818182,
                "tempo": 120.0
            },
            {
                "start_time": 99.5636364,
                "end_time": 100.1022727,
                "pitch": 89,
                "velocity": 40,
                "duration": 0.5386364,
                "tempo": 120.0
            },
            {
                "start_time": 100.1022727,
                "end_time": 100.1840909,
                "pitch": 81,
                "velocity": 40,
                "duration": 0.0818182,
                "tempo": 120.0
            },
            {
                "start_time": 99.7,
                "end_time": 100.2363636,
                "pitch": 55,
                "velocity": 40,
                "duration": 0.5363636,
                "tempo": 120.0
            },
            {
                "start_time": 100.2363636,
                "end_time": 100.3204545,
                "pitch": 86,
                "velocity": 40,
                "duration": 0.0840909,
                "tempo": 120.0
            },
            {
                "start_time": 100.3704545,
                "end_time": 100.4568182,
                "pitch": 86,
                "velocity": 40,
                "duration": 0.0863636,
                "tempo": 120.0
            },
            {
                "start_time": 100.5090909,
                "end_time": 100.5931818,
                "pitch": 85,
                "velocity": 40,
                "duration": 0.0840909,
                "tempo": 120.0
            },
            {
                "start_time": 100.1022727,
                "end_time": 100.6431818,
                "pitch": 89,
                "velocity": 40,
                "duration": 0.5409091,
                "tempo": 120.0
            },
            {
                "start_time": 100.6431818,
                "end_time": 100.7295455,
                "pitch": 81,
                "velocity": 40,
                "duration": 0.0863636,
                "tempo": 120.0
            },
            {
                "start_time": 100.2363636,
                "end_time": 100.7818182,
                "pitch": 55,
                "velocity": 40,
                "duration": 0.5454545,
                "tempo": 120.0
            },
            {
                "start_time": 100.7818182,
                "end_time": 100.8636364,
                "pitch": 86,
                "velocity": 40,
                "duration": 0.0818182,
                "tempo": 120.0
            },
            {
                "start_time": 100.9136364,
                "end_time": 100.9977273,
                "pitch": 86,
                "velocity": 40,
                "duration": 0.0840909,
                "tempo": 120.0
            },
            {
                "start_time": 101.05,
                "end_time": 101.1295455,
                "pitch": 85,
                "velocity": 40,
                "duration": 0.0795455,
                "tempo": 120.0
            },
            {
                "start_time": 100.6431818,
                "end_time": 101.1818182,
                "pitch": 89,
                "velocity": 40,
                "duration": 0.5386364,
                "tempo": 120.0
            },
            {
                "start_time": 101.1818182,
                "end_time": 101.2636364,
                "pitch": 81,
                "velocity": 40,
                "duration": 0.0818182,
                "tempo": 120.0
            },
            {
                "start_time": 100.7818182,
                "end_time": 101.3159091,
                "pitch": 55,
                "velocity": 40,
                "duration": 0.5340909,
                "tempo": 120.0
            },
            {
                "start_time": 101.3159091,
                "end_time": 101.4,
                "pitch": 86,
                "velocity": 40,
                "duration": 0.0840909,
                "tempo": 120.0
            },
            {
                "start_time": 101.45,
                "end_time": 101.5363636,
                "pitch": 86,
                "velocity": 40,
                "duration": 0.0863636,
                "tempo": 120.0
            },
            {
                "start_time": 101.5886364,
                "end_time": 101.6727273,
                "pitch": 85,
                "velocity": 40,
                "duration": 0.0840909,
                "tempo": 120.0
            },
            {
                "start_time": 101.1818182,
                "end_time": 101.7227273,
                "pitch": 89,
                "velocity": 40,
                "duration": 0.5409091,
                "tempo": 120.0
            },
            {
                "start_time": 101.7227273,
                "end_time": 101.8090909,
                "pitch": 81,
                "velocity": 40,
                "duration": 0.0863636,
                "tempo": 120.0
            },
            {
                "start_time": 101.3159091,
                "end_time": 101.8590909,
                "pitch": 55,
                "velocity": 40,
                "duration": 0.5431818,
                "tempo": 120.0
            },
            {
                "start_time": 101.8590909,
                "end_time": 101.9431818,
                "pitch": 86,
                "velocity": 40,
                "duration": 0.0840909,
                "tempo": 120.0
            },
            {
                "start_time": 101.9931818,
                "end_time": 102.0772727,
                "pitch": 86,
                "velocity": 40,
                "duration": 0.0840909,
                "tempo": 120.0
            },
            {
                "start_time": 102.1272727,
                "end_time": 102.2113636,
                "pitch": 85,
                "velocity": 40,
                "duration": 0.0840909,
                "tempo": 120.0
            },
            {
                "start_time": 101.7227273,
                "end_time": 102.2613636,
                "pitch": 89,
                "velocity": 40,
                "duration": 0.5386364,
                "tempo": 120.0
            },
            {
                "start_time": 102.2613636,
                "end_time": 102.3431818,
                "pitch": 81,
                "velocity": 40,
                "duration": 0.0818182,
                "tempo": 120.0
            },
            {
                "start_time": 101.8590909,
                "end_time": 102.3954545,
                "pitch": 55,
                "velocity": 40,
                "duration": 0.5363636,
                "tempo": 120.0
            },
            {
                "start_time": 102.3954545,
                "end_time": 102.4772727,
                "pitch": 86,
                "velocity": 40,
                "duration": 0.0818182,
                "tempo": 120.0
            },
            {
                "start_time": 102.5272727,
                "end_time": 102.6113636,
                "pitch": 86,
                "velocity": 40,
                "duration": 0.0840909,
                "tempo": 120.0
            },
            {
                "start_time": 102.6636364,
                "end_time": 102.7454545,
                "pitch": 85,
                "velocity": 40,
                "duration": 0.0818182,
                "tempo": 120.0
            },
            {
                "start_time": 102.2613636,
                "end_time": 102.7954545,
                "pitch": 89,
                "velocity": 40,
                "duration": 0.5340909,
                "tempo": 120.0
            },
            {
                "start_time": 102.7954545,
                "end_time": 102.8795455,
                "pitch": 81,
                "velocity": 40,
                "duration": 0.0840909,
                "tempo": 120.0
            },
            {
                "start_time": 102.3954545,
                "end_time": 102.9318182,
                "pitch": 55,
                "velocity": 40,
                "duration": 0.5363636,
                "tempo": 120.0
            },
            {
                "start_time": 102.9318182,
                "end_time": 103.0136364,
                "pitch": 86,
                "velocity": 40,
                "duration": 0.0818182,
                "tempo": 120.0
            },
            {
                "start_time": 103.0659091,
                "end_time": 103.15,
                "pitch": 86,
                "velocity": 40,
                "duration": 0.0840909,
                "tempo": 120.0
            },
            {
                "start_time": 103.2022727,
                "end_time": 103.2863636,
                "pitch": 85,
                "velocity": 40,
                "duration": 0.0840909,
                "tempo": 120.0
            },
            {
                "start_time": 103.3386364,
                "end_time": 103.4227273,
                "pitch": 86,
                "velocity": 40,
                "duration": 0.0840909,
                "tempo": 120.0
            },
            {
                "start_time": 103.475,
                "end_time": 103.5568182,
                "pitch": 87,
                "velocity": 40,
                "duration": 0.0818182,
                "tempo": 120.0
            },
            {
                "start_time": 99.1568182,
                "end_time": 103.6909091,
                "pitch": 88,
                "velocity": 40,
                "duration": 4.5340909,
                "tempo": 120.0
            },
            {
                "start_time": 103.6090909,
                "end_time": 103.6909091,
                "pitch": 88,
                "velocity": 40,
                "duration": 0.0818182,
                "tempo": 120.0
            },
            {
                "start_time": 103.7431818,
                "end_time": 103.825,
                "pitch": 87,
                "velocity": 40,
                "duration": 0.0818182,
                "tempo": 120.0
            },
            {
                "start_time": 103.875,
                "end_time": 103.9590909,
                "pitch": 83,
                "velocity": 40,
                "duration": 0.0840909,
                "tempo": 120.0
            },
            {
                "start_time": 104.0113636,
                "end_time": 104.0931818,
                "pitch": 88,
                "velocity": 40,
                "duration": 0.0818182,
                "tempo": 120.0
            },
            {
                "start_time": 104.1431818,
                "end_time": 104.2272727,
                "pitch": 88,
                "velocity": 40,
                "duration": 0.0840909,
                "tempo": 120.0
            },
            {
                "start_time": 104.2772727,
                "end_time": 104.3613636,
                "pitch": 87,
                "velocity": 40,
                "duration": 0.0840909,
                "tempo": 120.0
            },
            {
                "start_time": 103.875,
                "end_time": 104.4113636,
                "pitch": 90,
                "velocity": 40,
                "duration": 0.5363636,
                "tempo": 120.0
            },
            {
                "start_time": 104.4113636,
                "end_time": 104.4954545,
                "pitch": 83,
                "velocity": 40,
                "duration": 0.0840909,
                "tempo": 120.0
            },
            {
                "start_time": 104.0113636,
                "end_time": 104.5454545,
                "pitch": 68,
                "velocity": 40,
                "duration": 0.5340909,
                "tempo": 120.0
            },
            {
                "start_time": 104.5454545,
                "end_time": 104.6295455,
                "pitch": 88,
                "velocity": 40,
                "duration": 0.0840909,
                "tempo": 120.0
            },
            {
                "start_time": 104.6818182,
                "end_time": 104.7659091,
                "pitch": 88,
                "velocity": 40,
                "duration": 0.0840909,
                "tempo": 120.0
            },
            {
                "start_time": 104.8181818,
                "end_time": 104.9022727,
                "pitch": 87,
                "velocity": 40,
                "duration": 0.0840909,
                "tempo": 120.0
            },
            {
                "start_time": 104.4113636,
                "end_time": 104.9522727,
                "pitch": 90,
                "velocity": 40,
                "duration": 0.5409091,
                "tempo": 120.0
            },
            {
                "start_time": 104.9522727,
                "end_time": 105.0386364,
                "pitch": 83,
                "velocity": 40,
                "duration": 0.0863636,
                "tempo": 120.0
            },
            {
                "start_time": 104.5454545,
                "end_time": 105.0909091,
                "pitch": 68,
                "velocity": 40,
                "duration": 0.5454545,
                "tempo": 120.0
            },
            {
                "start_time": 105.0909091,
                "end_time": 105.1727273,
                "pitch": 88,
                "velocity": 40,
                "duration": 0.0818182,
                "tempo": 120.0
            },
            {
                "start_time": 105.2227273,
                "end_time": 105.3068182,
                "pitch": 88,
                "velocity": 40,
                "duration": 0.0840909,
                "tempo": 120.0
            },
            {
                "start_time": 105.3590909,
                "end_time": 105.4409091,
                "pitch": 87,
                "velocity": 40,
                "duration": 0.0818182,
                "tempo": 120.0
            },
            {
                "start_time": 104.9522727,
                "end_time": 105.4909091,
                "pitch": 90,
                "velocity": 40,
                "duration": 0.5386364,
                "tempo": 120.0
            },
            {
                "start_time": 105.4909091,
                "end_time": 105.575,
                "pitch": 83,
                "velocity": 40,
                "duration": 0.0840909,
                "tempo": 120.0
            },
            {
                "start_time": 105.0909091,
                "end_time": 105.625,
                "pitch": 68,
                "velocity": 40,
                "duration": 0.5340909,
                "tempo": 120.0
            },
            {
                "start_time": 105.625,
                "end_time": 105.7090909,
                "pitch": 88,
                "velocity": 40,
                "duration": 0.0840909,
                "tempo": 120.0
            },
            {
                "start_time": 105.7613636,
                "end_time": 105.8454545,
                "pitch": 88,
                "velocity": 40,
                "duration": 0.0840909,
                "tempo": 120.0
            },
            {
                "start_time": 105.8977273,
                "end_time": 105.9818182,
                "pitch": 87,
                "velocity": 40,
                "duration": 0.0840909,
                "tempo": 120.0
            },
            {
                "start_time": 105.4909091,
                "end_time": 106.0340909,
                "pitch": 90,
                "velocity": 40,
                "duration": 0.5431818,
                "tempo": 120.0
            },
            {
                "start_time": 106.0318182,
                "end_time": 106.0340909,
                "pitch": 90,
                "velocity": 40,
                "duration": 0.0022727,
                "tempo": 120.0
            },
            {
                "start_time": 106.0340909,
                "end_time": 106.1181818,
                "pitch": 83,
                "velocity": 40,
                "duration": 0.0840909,
                "tempo": 120.0
            },
            {
                "start_time": 105.625,
                "end_time": 106.1704545,
                "pitch": 68,
                "velocity": 40,
                "duration": 0.5454545,
                "tempo": 120.0
            },
            {
                "start_time": 106.1704545,
                "end_time": 106.2522727,
                "pitch": 88,
                "velocity": 40,
                "duration": 0.0818182,
                "tempo": 120.0
            },
            {
                "start_time": 106.3022727,
                "end_time": 106.3863636,
                "pitch": 88,
                "velocity": 40,
                "duration": 0.0840909,
                "tempo": 120.0
            },
            {
                "start_time": 106.4386364,
                "end_time": 106.5204545,
                "pitch": 87,
                "velocity": 40,
                "duration": 0.0818182,
                "tempo": 120.0
            },
            {
                "start_time": 106.5704545,
                "end_time": 106.6545455,
                "pitch": 83,
                "velocity": 40,
                "duration": 0.0840909,
                "tempo": 120.0
            },
            {
                "start_time": 106.1704545,
                "end_time": 106.7045455,
                "pitch": 68,
                "velocity": 40,
                "duration": 0.5340909,
                "tempo": 120.0
            },
            {
                "start_time": 106.7045455,
                "end_time": 106.7886364,
                "pitch": 88,
                "velocity": 40,
                "duration": 0.0840909,
                "tempo": 120.0
            },
            {
                "start_time": 106.8409091,
                "end_time": 106.925,
                "pitch": 88,
                "velocity": 40,
                "duration": 0.0840909,
                "tempo": 120.0
            },
            {
                "start_time": 106.9772727,
                "end_time": 107.0613636,
                "pitch": 87,
                "velocity": 40,
                "duration": 0.0840909,
                "tempo": 120.0
            },
            {
                "start_time": 106.5704545,
                "end_time": 107.1136364,
                "pitch": 90,
                "velocity": 40,
                "duration": 0.5431818,
                "tempo": 120.0
            },
            {
                "start_time": 107.1113636,
                "end_time": 107.1136364,
                "pitch": 90,
                "velocity": 40,
                "duration": 0.0022727,
                "tempo": 120.0
            },
            {
                "start_time": 107.1136364,
                "end_time": 107.1977273,
                "pitch": 83,
                "velocity": 40,
                "duration": 0.0840909,
                "tempo": 120.0
            },
            {
                "start_time": 106.7045455,
                "end_time": 107.25,
                "pitch": 68,
                "velocity": 40,
                "duration": 0.5454545,
                "tempo": 120.0
            },
            {
                "start_time": 107.25,
                "end_time": 107.3318182,
                "pitch": 88,
                "velocity": 40,
                "duration": 0.0818182,
                "tempo": 120.0
            },
            {
                "start_time": 107.3818182,
                "end_time": 107.4659091,
                "pitch": 88,
                "velocity": 40,
                "duration": 0.0840909,
                "tempo": 120.0
            },
            {
                "start_time": 107.5181818,
                "end_time": 107.6,
                "pitch": 87,
                "velocity": 40,
                "duration": 0.0818182,
                "tempo": 120.0
            },
            {
                "start_time": 107.65,
                "end_time": 107.7340909,
                "pitch": 83,
                "velocity": 40,
                "duration": 0.0840909,
                "tempo": 120.0
            },
            {
                "start_time": 107.25,
                "end_time": 107.7840909,
                "pitch": 68,
                "velocity": 40,
                "duration": 0.5340909,
                "tempo": 120.0
            },
            {
                "start_time": 107.7840909,
                "end_time": 107.8681818,
                "pitch": 86,
                "velocity": 40,
                "duration": 0.0840909,
                "tempo": 120.0
            },
            {
                "start_time": 107.9204545,
                "end_time": 108.0045455,
                "pitch": 86,
                "velocity": 40,
                "duration": 0.0840909,
                "tempo": 120.0
            },
            {
                "start_time": 108.0568182,
                "end_time": 108.1409091,
                "pitch": 85,
                "velocity": 40,
                "duration": 0.0840909,
                "tempo": 120.0
            },
            {
                "start_time": 102.7954545,
                "end_time": 108.1931818,
                "pitch": 89,
                "velocity": 40,
                "duration": 5.3977273,
                "tempo": 120.0
            },
            {
                "start_time": 108.1931818,
                "end_time": 108.2772727,
                "pitch": 81,
                "velocity": 40,
                "duration": 0.0840909,
                "tempo": 120.0
            },
            {
                "start_time": 102.9318182,
                "end_time": 108.3295455,
                "pitch": 55,
                "velocity": 40,
                "duration": 5.3977273,
                "tempo": 120.0
            },
            {
                "start_time": 108.3295455,
                "end_time": 108.4113636,
                "pitch": 86,
                "velocity": 40,
                "duration": 0.0818182,
                "tempo": 120.0
            },
            {
                "start_time": 108.4636364,
                "end_time": 108.5454545,
                "pitch": 86,
                "velocity": 40,
                "duration": 0.0818182,
                "tempo": 120.0
            },
            {
                "start_time": 108.5977273,
                "end_time": 108.6795455,
                "pitch": 85,
                "velocity": 40,
                "duration": 0.0818182,
                "tempo": 120.0
            },
            {
                "start_time": 108.1931818,
                "end_time": 108.7295455,
                "pitch": 89,
                "velocity": 40,
                "duration": 0.5363636,
                "tempo": 120.0
            },
            {
                "start_time": 108.7295455,
                "end_time": 108.8136364,
                "pitch": 81,
                "velocity": 40,
                "duration": 0.0840909,
                "tempo": 120.0
            },
            {
                "start_time": 108.3295455,
                "end_time": 108.8636364,
                "pitch": 55,
                "velocity": 40,
                "duration": 0.5340909,
                "tempo": 120.0
            },
            {
                "start_time": 108.8636364,
                "end_time": 108.9477273,
                "pitch": 86,
                "velocity": 40,
                "duration": 0.0840909,
                "tempo": 120.0
            },
            {
                "start_time": 108.9977273,
                "end_time": 109.0818182,
                "pitch": 86,
                "velocity": 40,
                "duration": 0.0840909,
                "tempo": 120.0
            },
            {
                "start_time": 109.1318182,
                "end_time": 109.2136364,
                "pitch": 85,
                "velocity": 40,
                "duration": 0.0818182,
                "tempo": 120.0
            },
            {
                "start_time": 108.7295455,
                "end_time": 109.2659091,
                "pitch": 89,
                "velocity": 40,
                "duration": 0.5363636,
                "tempo": 120.0
            },
            {
                "start_time": 109.2659091,
                "end_time": 109.3477273,
                "pitch": 81,
                "velocity": 40,
                "duration": 0.0818182,
                "tempo": 120.0
            },
            {
                "start_time": 108.8636364,
                "end_time": 109.4,
                "pitch": 55,
                "velocity": 40,
                "duration": 0.5363636,
                "tempo": 120.0
            },
            {
                "start_time": 109.4,
                "end_time": 109.4840909,
                "pitch": 86,
                "velocity": 40,
                "duration": 0.0840909,
                "tempo": 120.0
            },
            {
                "start_time": 109.5340909,
                "end_time": 109.6204545,
                "pitch": 86,
                "velocity": 40,
                "duration": 0.0863636,
                "tempo": 120.0
            },
            {
                "start_time": 109.6727273,
                "end_time": 109.7568182,
                "pitch": 85,
                "velocity": 40,
                "duration": 0.0840909,
                "tempo": 120.0
            },
            {
                "start_time": 109.2659091,
                "end_time": 109.8068182,
                "pitch": 89,
                "velocity": 40,
                "duration": 0.5409091,
                "tempo": 120.0
            },
            {
                "start_time": 109.8068182,
                "end_time": 109.8931818,
                "pitch": 81,
                "velocity": 40,
                "duration": 0.0863636,
                "tempo": 120.0
            },
            {
                "start_time": 109.4,
                "end_time": 109.9454545,
                "pitch": 55,
                "velocity": 40,
                "duration": 0.5454545,
                "tempo": 120.0
            },
            {
                "start_time": 109.9454545,
                "end_time": 110.0272727,
                "pitch": 86,
                "velocity": 40,
                "duration": 0.0818182,
                "tempo": 120.0
            },
            {
                "start_time": 110.0772727,
                "end_time": 110.1613636,
                "pitch": 86,
                "velocity": 40,
                "duration": 0.0840909,
                "tempo": 120.0
            },
            {
                "start_time": 110.2136364,
                "end_time": 110.2954545,
                "pitch": 85,
                "velocity": 40,
                "duration": 0.0818182,
                "tempo": 120.0
            },
            {
                "start_time": 109.8068182,
                "end_time": 110.3454545,
                "pitch": 89,
                "velocity": 40,
                "duration": 0.5386364,
                "tempo": 120.0
            },
            {
                "start_time": 110.3454545,
                "end_time": 110.4295455,
                "pitch": 81,
                "velocity": 40,
                "duration": 0.0840909,
                "tempo": 120.0
            },
            {
                "start_time": 109.9454545,
                "end_time": 110.4795455,
                "pitch": 55,
                "velocity": 40,
                "duration": 0.5340909,
                "tempo": 120.0
            },
            {
                "start_time": 110.4795455,
                "end_time": 110.5613636,
                "pitch": 86,
                "velocity": 40,
                "duration": 0.0818182,
                "tempo": 120.0
            },
            {
                "start_time": 110.6136364,
                "end_time": 110.6954545,
                "pitch": 86,
                "velocity": 40,
                "duration": 0.0818182,
                "tempo": 120.0
            },
            {
                "start_time": 110.7477273,
                "end_time": 110.8295455,
                "pitch": 85,
                "velocity": 40,
                "duration": 0.0818182,
                "tempo": 120.0
            },
            {
                "start_time": 110.3454545,
                "end_time": 110.8795455,
                "pitch": 89,
                "velocity": 40,
                "duration": 0.5340909,
                "tempo": 120.0
            },
            {
                "start_time": 110.8795455,
                "end_time": 110.9636364,
                "pitch": 81,
                "velocity": 40,
                "duration": 0.0840909,
                "tempo": 120.0
            },
            {
                "start_time": 110.4795455,
                "end_time": 111.0159091,
                "pitch": 55,
                "velocity": 40,
                "duration": 0.5363636,
                "tempo": 120.0
            },
            {
                "start_time": 111.0159091,
                "end_time": 111.0977273,
                "pitch": 86,
                "velocity": 40,
                "duration": 0.0818182,
                "tempo": 120.0
            },
            {
                "start_time": 111.15,
                "end_time": 111.2340909,
                "pitch": 86,
                "velocity": 40,
                "duration": 0.0840909,
                "tempo": 120.0
            },
            {
                "start_time": 111.2886364,
                "end_time": 111.3704545,
                "pitch": 85,
                "velocity": 40,
                "duration": 0.0818182,
                "tempo": 120.0
            },
            {
                "start_time": 110.8795455,
                "end_time": 111.4227273,
                "pitch": 89,
                "velocity": 40,
                "duration": 0.5431818,
                "tempo": 120.0
            },
            {
                "start_time": 111.4227273,
                "end_time": 111.5068182,
                "pitch": 81,
                "velocity": 40,
                "duration": 0.0840909,
                "tempo": 120.0
            },
            {
                "start_time": 111.0159091,
                "end_time": 111.5590909,
                "pitch": 55,
                "velocity": 40,
                "duration": 0.5431818,
                "tempo": 120.0
            },
            {
                "start_time": 111.5590909,
                "end_time": 111.6409091,
                "pitch": 86,
                "velocity": 40,
                "duration": 0.0818182,
                "tempo": 120.0
            },
            {
                "start_time": 111.6931818,
                "end_time": 111.775,
                "pitch": 86,
                "velocity": 40,
                "duration": 0.0818182,
                "tempo": 120.0
            },
            {
                "start_time": 111.8272727,
                "end_time": 111.9090909,
                "pitch": 85,
                "velocity": 40,
                "duration": 0.0818182,
                "tempo": 120.0
            },
            {
                "start_time": 107.65,
                "end_time": 112.0431818,
                "pitch": 90,
                "velocity": 40,
                "duration": 4.3931818,
                "tempo": 120.0
            },
            {
                "start_time": 111.9590909,
                "end_time": 112.0431818,
                "pitch": 90,
                "velocity": 40,
                "duration": 0.0840909,
                "tempo": 120.0
            },
            {
                "start_time": 98.8886364,
                "end_time": 112.0954545,
                "pitch": 102,
                "velocity": 40,
                "duration": 13.2068182,
                "tempo": 120.0
            },
            {
                "start_time": 112.0954545,
                "end_time": 112.1772727,
                "pitch": 91,
                "velocity": 40,
                "duration": 0.0818182,
                "tempo": 120.0
            },
            {
                "start_time": 99.0227273,
                "end_time": 112.2295455,
                "pitch": 7,
                "velocity": 40,
                "duration": 13.2068182,
                "tempo": 120.0
            },
            {
                "start_time": 112.2295455,
                "end_time": 112.3136364,
                "pitch": 90,
                "velocity": 40,
                "duration": 0.0840909,
                "tempo": 120.0
            },
            {
                "start_time": 112.0954545,
                "end_time": 112.3659091,
                "pitch": 102,
                "velocity": 40,
                "duration": 0.2704545,
                "tempo": 120.0
            },
            {
                "start_time": 112.3659091,
                "end_time": 112.45,
                "pitch": 91,
                "velocity": 40,
                "duration": 0.0840909,
                "tempo": 120.0
            },
            {
                "start_time": 112.2295455,
                "end_time": 112.5022727,
                "pitch": 7,
                "velocity": 40,
                "duration": 0.2727273,
                "tempo": 120.0
            },
            {
                "start_time": 111.9590909,
                "end_time": 112.5863636,
                "pitch": 86,
                "velocity": 40,
                "duration": 0.6272727,
                "tempo": 120.0
            },
            {
                "start_time": 112.5022727,
                "end_time": 112.5863636,
                "pitch": 86,
                "velocity": 40,
                "duration": 0.0840909,
                "tempo": 120.0
            },
            {
                "start_time": 98.6227273,
                "end_time": 112.6386364,
                "pitch": 101,
                "velocity": 40,
                "duration": 14.0159091,
                "tempo": 120.0
            },
            {
                "start_time": 112.6386364,
                "end_time": 112.7204545,
                "pitch": 91,
                "velocity": 40,
                "duration": 0.0818182,
                "tempo": 120.0
            },
            {
                "start_time": 112.5022727,
                "end_time": 112.7727273,
                "pitch": 7,
                "velocity": 40,
                "duration": 0.2704545,
                "tempo": 120.0
            },
            {
                "start_time": 112.7727273,
                "end_time": 112.8545455,
                "pitch": 90,
                "velocity": 40,
                "duration": 0.0818182,
                "tempo": 120.0
            },
            {
                "start_time": 112.3659091,
                "end_time": 112.9068182,
                "pitch": 102,
                "velocity": 40,
                "duration": 0.5409091,
                "tempo": 120.0
            },
            {
                "start_time": 112.9068182,
                "end_time": 112.9886364,
                "pitch": 91,
                "velocity": 40,
                "duration": 0.0818182,
                "tempo": 120.0
            },
            {
                "start_time": 112.7727273,
                "end_time": 113.0386364,
                "pitch": 7,
                "velocity": 40,
                "duration": 0.2659091,
                "tempo": 120.0
            },
            {
                "start_time": 113.0386364,
                "end_time": 113.1227273,
                "pitch": 86,
                "velocity": 40,
                "duration": 0.0840909,
                "tempo": 120.0
            },
            {
                "start_time": 112.6386364,
                "end_time": 113.175,
                "pitch": 101,
                "velocity": 40,
                "duration": 0.5363636,
                "tempo": 120.0
            },
            {
                "start_time": 113.175,
                "end_time": 113.2568182,
                "pitch": 91,
                "velocity": 40,
                "duration": 0.0818182,
                "tempo": 120.0
            },
            {
                "start_time": 113.0386364,
                "end_time": 113.3090909,
                "pitch": 7,
                "velocity": 40,
                "duration": 0.2704545,
                "tempo": 120.0
            },
            {
                "start_time": 113.3090909,
                "end_time": 113.3931818,
                "pitch": 90,
                "velocity": 40,
                "duration": 0.0840909,
                "tempo": 120.0
            },
            {
                "start_time": 112.9068182,
                "end_time": 113.4454545,
                "pitch": 102,
                "velocity": 40,
                "duration": 0.5386364,
                "tempo": 120.0
            },
            {
                "start_time": 113.4454545,
                "end_time": 113.5295455,
                "pitch": 91,
                "velocity": 40,
                "duration": 0.0840909,
                "tempo": 120.0
            },
            {
                "start_time": 113.3090909,
                "end_time": 113.5818182,
                "pitch": 7,
                "velocity": 40,
                "duration": 0.2727273,
                "tempo": 120.0
            },
            {
                "start_time": 113.5818182,
                "end_time": 113.6659091,
                "pitch": 86,
                "velocity": 40,
                "duration": 0.0840909,
                "tempo": 120.0
            },
            {
                "start_time": 113.175,
                "end_time": 113.7204545,
                "pitch": 101,
                "velocity": 40,
                "duration": 0.5454545,
                "tempo": 120.0
            },
            {
                "start_time": 113.7204545,
                "end_time": 113.8022727,
                "pitch": 91,
                "velocity": 40,
                "duration": 0.0818182,
                "tempo": 120.0
            },
            {
                "start_time": 113.5818182,
                "end_time": 113.8522727,
                "pitch": 7,
                "velocity": 40,
                "duration": 0.2704545,
                "tempo": 120.0
            },
            {
                "start_time": 113.8522727,
                "end_time": 113.9363636,
                "pitch": 90,
                "velocity": 40,
                "duration": 0.0840909,
                "tempo": 120.0
            },
            {
                "start_time": 113.4454545,
                "end_time": 113.9863636,
                "pitch": 102,
                "velocity": 40,
                "duration": 0.5409091,
                "tempo": 120.0
            },
            {
                "start_time": 113.9863636,
                "end_time": 114.0681818,
                "pitch": 91,
                "velocity": 40,
                "duration": 0.0818182,
                "tempo": 120.0
            },
            {
                "start_time": 113.8522727,
                "end_time": 114.1204545,
                "pitch": 7,
                "velocity": 40,
                "duration": 0.2681818,
                "tempo": 120.0
            },
            {
                "start_time": 114.1181818,
                "end_time": 114.1204545,
                "pitch": 7,
                "velocity": 40,
                "duration": 0.0022727,
                "tempo": 120.0
            },
            {
                "start_time": 114.1204545,
                "end_time": 114.2022727,
                "pitch": 86,
                "velocity": 40,
                "duration": 0.0818182,
                "tempo": 120.0
            },
            {
                "start_time": 113.7204545,
                "end_time": 114.2545455,
                "pitch": 101,
                "velocity": 40,
                "duration": 0.5340909,
                "tempo": 120.0
            },
            {
                "start_time": 114.2545455,
                "end_time": 114.3363636,
                "pitch": 91,
                "velocity": 40,
                "duration": 0.0818182,
                "tempo": 120.0
            },
            {
                "start_time": 114.3863636,
                "end_time": 114.4704545,
                "pitch": 90,
                "velocity": 40,
                "duration": 0.0840909,
                "tempo": 120.0
            },
            {
                "start_time": 113.9863636,
                "end_time": 114.5204545,
                "pitch": 102,
                "velocity": 40,
                "duration": 0.5340909,
                "tempo": 120.0
            },
            {
                "start_time": 114.5204545,
                "end_time": 114.6045455,
                "pitch": 91,
                "velocity": 40,
                "duration": 0.0840909,
                "tempo": 120.0
            },
            {
                "start_time": 114.3863636,
                "end_time": 114.6545455,
                "pitch": 7,
                "velocity": 40,
                "duration": 0.2681818,
                "tempo": 120.0
            },
            {
                "start_time": 114.6545455,
                "end_time": 114.7386364,
                "pitch": 86,
                "velocity": 40,
                "duration": 0.0840909,
                "tempo": 120.0
            },
            {
                "start_time": 114.2545455,
                "end_time": 114.7909091,
                "pitch": 101,
                "velocity": 40,
                "duration": 0.5363636,
                "tempo": 120.0
            },
            {
                "start_time": 114.7909091,
                "end_time": 114.8727273,
                "pitch": 91,
                "velocity": 40,
                "duration": 0.0818182,
                "tempo": 120.0
            },
            {
                "start_time": 114.6545455,
                "end_time": 114.925,
                "pitch": 7,
                "velocity": 40,
                "duration": 0.2704545,
                "tempo": 120.0
            },
            {
                "start_time": 114.925,
                "end_time": 115.0090909,
                "pitch": 90,
                "velocity": 40,
                "duration": 0.0840909,
                "tempo": 120.0
            },
            {
                "start_time": 114.5204545,
                "end_time": 115.0613636,
                "pitch": 102,
                "velocity": 40,
                "duration": 0.5409091,
                "tempo": 120.0
            },
            {
                "start_time": 115.0613636,
                "end_time": 115.1454545,
                "pitch": 91,
                "velocity": 40,
                "duration": 0.0840909,
                "tempo": 120.0
            },
            {
                "start_time": 114.925,
                "end_time": 115.1954545,
                "pitch": 7,
                "velocity": 40,
                "duration": 0.2704545,
                "tempo": 120.0
            },
            {
                "start_time": 115.1954545,
                "end_time": 115.2818182,
                "pitch": 86,
                "velocity": 40,
                "duration": 0.0863636,
                "tempo": 120.0
            },
            {
                "start_time": 114.7909091,
                "end_time": 115.3340909,
                "pitch": 101,
                "velocity": 40,
                "duration": 0.5431818,
                "tempo": 120.0
            },
            {
                "start_time": 115.3340909,
                "end_time": 115.4159091,
                "pitch": 91,
                "velocity": 40,
                "duration": 0.0818182,
                "tempo": 120.0
            },
            {
                "start_time": 115.1954545,
                "end_time": 115.4659091,
                "pitch": 7,
                "velocity": 40,
                "duration": 0.2704545,
                "tempo": 120.0
            },
            {
                "start_time": 115.4659091,
                "end_time": 115.55,
                "pitch": 90,
                "velocity": 40,
                "duration": 0.0840909,
                "tempo": 120.0
            },
            {
                "start_time": 115.0613636,
                "end_time": 115.6022727,
                "pitch": 102,
                "velocity": 40,
                "duration": 0.5409091,
                "tempo": 120.0
            },
            {
                "start_time": 115.6022727,
                "end_time": 115.6840909,
                "pitch": 91,
                "velocity": 40,
                "duration": 0.0818182,
                "tempo": 120.0
            },
            {
                "start_time": 115.4659091,
                "end_time": 115.7340909,
                "pitch": 7,
                "velocity": 40,
                "duration": 0.2681818,
                "tempo": 120.0
            },
            {
                "start_time": 115.7340909,
                "end_time": 115.8181818,
                "pitch": 86,
                "velocity": 40,
                "duration": 0.0840909,
                "tempo": 120.0
            },
            {
                "start_time": 115.3340909,
                "end_time": 115.8704545,
                "pitch": 101,
                "velocity": 40,
                "duration": 0.5363636,
                "tempo": 120.0
            },
            {
                "start_time": 115.8704545,
                "end_time": 115.9522727,
                "pitch": 91,
                "velocity": 40,
                "duration": 0.0818182,
                "tempo": 120.0
            },
            {
                "start_time": 115.7340909,
                "end_time": 116.0022727,
                "pitch": 7,
                "velocity": 40,
                "duration": 0.2681818,
                "tempo": 120.0
            },
            {
                "start_time": 116.0022727,
                "end_time": 116.0863636,
                "pitch": 90,
                "velocity": 40,
                "duration": 0.0840909,
                "tempo": 120.0
            },
            {
                "start_time": 115.6022727,
                "end_time": 116.1363636,
                "pitch": 102,
                "velocity": 40,
                "duration": 0.5340909,
                "tempo": 120.0
            },
            {
                "start_time": 116.1363636,
                "end_time": 116.2181818,
                "pitch": 91,
                "velocity": 40,
                "duration": 0.0818182,
                "tempo": 120.0
            },
            {
                "start_time": 116.0022727,
                "end_time": 116.2704545,
                "pitch": 7,
                "velocity": 40,
                "duration": 0.2681818,
                "tempo": 120.0
            },
            {
                "start_time": 116.2681818,
                "end_time": 116.2704545,
                "pitch": 7,
                "velocity": 40,
                "duration": 0.0022727,
                "tempo": 120.0
            },
            {
                "start_time": 116.2704545,
                "end_time": 116.3522727,
                "pitch": 86,
                "velocity": 40,
                "duration": 0.0818182,
                "tempo": 120.0
            },
            {
                "start_time": 111.4227273,
                "end_time": 116.4886364,
                "pitch": 89,
                "velocity": 40,
                "duration": 5.0659091,
                "tempo": 120.0
            },
            {
                "start_time": 116.4045455,
                "end_time": 116.4886364,
                "pitch": 89,
                "velocity": 40,
                "duration": 0.0840909,
                "tempo": 120.0
            },
            {
                "start_time": 116.5386364,
                "end_time": 116.625,
                "pitch": 89,
                "velocity": 40,
                "duration": 0.0863636,
                "tempo": 120.0
            },
            {
                "start_time": 116.6772727,
                "end_time": 116.7590909,
                "pitch": 88,
                "velocity": 40,
                "duration": 0.0818182,
                "tempo": 120.0
            },
            {
                "start_time": 116.8113636,
                "end_time": 116.8954545,
                "pitch": 84,
                "velocity": 40,
                "duration": 0.0840909,
                "tempo": 120.0
            },
            {
                "start_time": 116.8113636,
                "end_time": 117.0318182,
                "pitch": 89,
                "velocity": 40,
                "duration": 0.2204545,
                "tempo": 120.0
            },
            {
                "start_time": 116.9477273,
                "end_time": 117.0318182,
                "pitch": 89,
                "velocity": 40,
                "duration": 0.0840909,
                "tempo": 120.0
            },
            {
                "start_time": 117.0818182,
                "end_time": 117.1659091,
                "pitch": 89,
                "velocity": 40,
                "duration": 0.0840909,
                "tempo": 120.0
            },
            {
                "start_time": 117.2159091,
                "end_time": 117.2977273,
                "pitch": 88,
                "velocity": 40,
                "duration": 0.0818182,
                "tempo": 120.0
            },
            {
                "start_time": 116.9477273,
                "end_time": 117.4318182,
                "pitch": 84,
                "velocity": 40,
                "duration": 0.4840909,
                "tempo": 120.0
            },
            {
                "start_time": 117.35,
                "end_time": 117.4318182,
                "pitch": 84,
                "velocity": 40,
                "duration": 0.0818182,
                "tempo": 120.0
            },
            {
                "start_time": 117.35,
                "end_time": 117.5659091,
                "pitch": 89,
                "velocity": 40,
                "duration": 0.2159091,
                "tempo": 120.0
            },
            {
                "start_time": 117.4840909,
                "end_time": 117.5659091,
                "pitch": 89,
                "velocity": 40,
                "duration": 0.0818182,
                "tempo": 120.0
            },
            {
                "start_time": 117.6159091,
                "end_time": 117.7,
                "pitch": 89,
                "velocity": 40,
                "duration": 0.0840909,
                "tempo": 120.0
            },
            {
                "start_time": 117.7522727,
                "end_time": 117.8340909,
                "pitch": 88,
                "velocity": 40,
                "duration": 0.0818182,
                "tempo": 120.0
            },
            {
                "start_time": 117.4840909,
                "end_time": 117.9681818,
                "pitch": 84,
                "velocity": 40,
                "duration": 0.4840909,
                "tempo": 120.0
            },
            {
                "start_time": 117.8840909,
                "end_time": 117.9681818,
                "pitch": 84,
                "velocity": 40,
                "duration": 0.0840909,
                "tempo": 120.0
            },
            {
                "start_time": 117.8840909,
                "end_time": 118.1022727,
                "pitch": 89,
                "velocity": 40,
                "duration": 0.2181818,
                "tempo": 120.0
            },
            {
                "start_time": 118.0204545,
                "end_time": 118.1022727,
                "pitch": 89,
                "velocity": 40,
                "duration": 0.0818182,
                "tempo": 120.0
            },
            {
                "start_time": 118.1545455,
                "end_time": 118.2386364,
                "pitch": 89,
                "velocity": 40,
                "duration": 0.0840909,
                "tempo": 120.0
            },
            {
                "start_time": 118.2931818,
                "end_time": 118.375,
                "pitch": 88,
                "velocity": 40,
                "duration": 0.0818182,
                "tempo": 120.0
            },
            {
                "start_time": 118.0204545,
                "end_time": 118.5113636,
                "pitch": 84,
                "velocity": 40,
                "duration": 0.4909091,
                "tempo": 120.0
            },
            {
                "start_time": 118.4272727,
                "end_time": 118.5113636,
                "pitch": 84,
                "velocity": 40,
                "duration": 0.0840909,
                "tempo": 120.0
            },
            {
                "start_time": 118.4272727,
                "end_time": 118.6454545,
                "pitch": 89,
                "velocity": 40,
                "duration": 0.2181818,
                "tempo": 120.0
            },
            {
                "start_time": 118.5636364,
                "end_time": 118.6454545,
                "pitch": 89,
                "velocity": 40,
                "duration": 0.0818182,
                "tempo": 120.0
            },
            {
                "start_time": 118.6954545,
                "end_time": 118.7795455,
                "pitch": 89,
                "velocity": 40,
                "duration": 0.0840909,
                "tempo": 120.0
            },
            {
                "start_time": 118.8318182,
                "end_time": 118.9136364,
                "pitch": 88,
                "velocity": 40,
                "duration": 0.0818182,
                "tempo": 120.0
            },
            {
                "start_time": 118.5636364,
                "end_time": 119.0477273,
                "pitch": 84,
                "velocity": 40,
                "duration": 0.4840909,
                "tempo": 120.0
            },
            {
                "start_time": 118.9636364,
                "end_time": 119.0477273,
                "pitch": 84,
                "velocity": 40,
                "duration": 0.0840909,
                "tempo": 120.0
            },
            {
                "start_time": 118.9636364,
                "end_time": 119.1818182,
                "pitch": 89,
                "velocity": 40,
                "duration": 0.2181818,
                "tempo": 120.0
            },
            {
                "start_time": 119.0977273,
                "end_time": 119.1818182,
                "pitch": 89,
                "velocity": 40,
                "duration": 0.0840909,
                "tempo": 120.0
            },
            {
                "start_time": 119.2340909,
                "end_time": 119.3181818,
                "pitch": 89,
                "velocity": 40,
                "duration": 0.0840909,
                "tempo": 120.0
            },
            {
                "start_time": 119.3704545,
                "end_time": 119.4545455,
                "pitch": 88,
                "velocity": 40,
                "duration": 0.0840909,
                "tempo": 120.0
            },
            {
                "start_time": 119.0977273,
                "end_time": 119.5909091,
                "pitch": 84,
                "velocity": 40,
                "duration": 0.4931818,
                "tempo": 120.0
            },
            {
                "start_time": 119.5068182,
                "end_time": 119.5909091,
                "pitch": 84,
                "velocity": 40,
                "duration": 0.0840909,
                "tempo": 120.0
            },
            {
                "start_time": 119.5068182,
                "end_time": 119.725,
                "pitch": 89,
                "velocity": 40,
                "duration": 0.2181818,
                "tempo": 120.0
            },
            {
                "start_time": 119.6431818,
                "end_time": 119.725,
                "pitch": 89,
                "velocity": 40,
                "duration": 0.0818182,
                "tempo": 120.0
            },
            {
                "start_time": 119.7772727,
                "end_time": 119.8590909,
                "pitch": 89,
                "velocity": 40,
                "duration": 0.0818182,
                "tempo": 120.0
            },
            {
                "start_time": 119.9113636,
                "end_time": 119.9931818,
                "pitch": 88,
                "velocity": 40,
                "duration": 0.0818182,
                "tempo": 120.0
            },
            {
                "start_time": 120.0431818,
                "end_time": 120.0454545,
                "pitch": 89,
                "velocity": 40,
                "duration": 0.0022727,
                "tempo": 120.0
            },
            {
                "start_time": 119.6431818,
                "end_time": 120.1272727,
                "pitch": 84,
                "velocity": 40,
                "duration": 0.4840909,
                "tempo": 120.0
            },
            {
                "start_time": 120.0454545,
                "end_time": 120.1272727,
                "pitch": 84,
                "velocity": 40,
                "duration": 0.0818182,
                "tempo": 120.0
            },
            {
                "start_time": 120.1795455,
                "end_time": 120.2613636,
                "pitch": 89,
                "velocity": 40,
                "duration": 0.0818182,
                "tempo": 120.0
            },
            {
                "start_time": 120.3136364,
                "end_time": 120.3977273,
                "pitch": 89,
                "velocity": 40,
                "duration": 0.0840909,
                "tempo": 120.0
            },
            {
                "start_time": 120.4522727,
                "end_time": 120.5340909,
                "pitch": 88,
                "velocity": 40,
                "duration": 0.0818182,
                "tempo": 120.0
            },
            {
                "start_time": 120.1795455,
                "end_time": 120.6704545,
                "pitch": 84,
                "velocity": 40,
                "duration": 0.4909091,
                "tempo": 120.0
            },
            {
                "start_time": 120.5863636,
                "end_time": 120.6704545,
                "pitch": 84,
                "velocity": 40,
                "duration": 0.0840909,
                "tempo": 120.0
            },
            {
                "start_time": 120.7227273,
                "end_time": 120.8045455,
                "pitch": 88,
                "velocity": 40,
                "duration": 0.0818182,
                "tempo": 120.0
            },
            {
                "start_time": 120.8568182,
                "end_time": 120.9386364,
                "pitch": 88,
                "velocity": 40,
                "duration": 0.0818182,
                "tempo": 120.0
            },
            {
                "start_time": 120.9909091,
                "end_time": 121.0727273,
                "pitch": 87,
                "velocity": 40,
                "duration": 0.0818182,
                "tempo": 120.0
            },
            {
                "start_time": 121.1227273,
                "end_time": 121.2068182,
                "pitch": 83,
                "velocity": 40,
                "duration": 0.0840909,
                "tempo": 120.0
            },
            {
                "start_time": 107.7840909,
                "end_time": 121.2590909,
                "pitch": 68,
                "velocity": 40,
                "duration": 13.475,
                "tempo": 120.0
            },
            {
                "start_time": 121.2590909,
                "end_time": 121.3409091,
                "pitch": 88,
                "velocity": 40,
                "duration": 0.0818182,
                "tempo": 120.0
            },
            {
                "start_time": 121.3909091,
                "end_time": 121.475,
                "pitch": 88,
                "velocity": 40,
                "duration": 0.0840909,
                "tempo": 120.0
            },
            {
                "start_time": 121.525,
                "end_time": 121.6090909,
                "pitch": 87,
                "velocity": 40,
                "duration": 0.0840909,
                "tempo": 120.0
            },
            {
                "start_time": 121.1227273,
                "end_time": 121.6590909,
                "pitch": 90,
                "velocity": 40,
                "duration": 0.5363636,
                "tempo": 120.0
            },
            {
                "start_time": 121.6590909,
                "end_time": 121.7431818,
                "pitch": 83,
                "velocity": 40,
                "duration": 0.0840909,
                "tempo": 120.0
            },
            {
                "start_time": 121.2590909,
                "end_time": 121.7931818,
                "pitch": 68,
                "velocity": 40,
                "duration": 0.5340909,
                "tempo": 120.0
            },
            {
                "start_time": 121.7931818,
                "end_time": 121.8772727,
                "pitch": 88,
                "velocity": 40,
                "duration": 0.0840909,
                "tempo": 120.0
            },
            {
                "start_time": 121.9295455,
                "end_time": 122.0136364,
                "pitch": 88,
                "velocity": 40,
                "duration": 0.0840909,
                "tempo": 120.0
            },
            {
                "start_time": 122.0659091,
                "end_time": 122.15,
                "pitch": 87,
                "velocity": 40,
                "duration": 0.0840909,
                "tempo": 120.0
            },
            {
                "start_time": 121.6590909,
                "end_time": 122.2,
                "pitch": 90,
                "velocity": 40,
                "duration": 0.5409091,
                "tempo": 120.0
            },
            {
                "start_time": 122.2,
                "end_time": 122.2863636,
                "pitch": 83,
                "velocity": 40,
                "duration": 0.0863636,
                "tempo": 120.0
            },
            {
                "start_time": 121.7931818,
                "end_time": 122.3386364,
                "pitch": 68,
                "velocity": 40,
                "duration": 0.5454545,
                "tempo": 120.0
            },
            {
                "start_time": 122.3386364,
                "end_time": 122.4204545,
                "pitch": 88,
                "velocity": 40,
                "duration": 0.0818182,
                "tempo": 120.0
            },
            {
                "start_time": 122.4704545,
                "end_time": 122.5545455,
                "pitch": 88,
                "velocity": 40,
                "duration": 0.0840909,
                "tempo": 120.0
            },
            {
                "start_time": 122.6068182,
                "end_time": 122.6886364,
                "pitch": 87,
                "velocity": 40,
                "duration": 0.0818182,
                "tempo": 120.0
            },
            {
                "start_time": 122.2,
                "end_time": 122.7386364,
                "pitch": 90,
                "velocity": 40,
                "duration": 0.5386364,
                "tempo": 120.0
            },
            {
                "start_time": 122.7386364,
                "end_time": 122.8227273,
                "pitch": 83,
                "velocity": 40,
                "duration": 0.0840909,
                "tempo": 120.0
            },
            {
                "start_time": 122.3386364,
                "end_time": 122.8727273,
                "pitch": 68,
                "velocity": 40,
                "duration": 0.5340909,
                "tempo": 120.0
            },
            {
                "start_time": 122.8727273,
                "end_time": 122.9568182,
                "pitch": 88,
                "velocity": 40,
                "duration": 0.0840909,
                "tempo": 120.0
            },
            {
                "start_time": 123.0090909,
                "end_time": 123.0931818,
                "pitch": 88,
                "velocity": 40,
                "duration": 0.0840909,
                "tempo": 120.0
            },
            {
                "start_time": 123.1454545,
                "end_time": 123.2295455,
                "pitch": 87,
                "velocity": 40,
                "duration": 0.0840909,
                "tempo": 120.0
            },
            {
                "start_time": 122.7386364,
                "end_time": 123.2818182,
                "pitch": 90,
                "velocity": 40,
                "duration": 0.5431818,
                "tempo": 120.0
            },
            {
                "start_time": 123.2818182,
                "end_time": 123.3659091,
                "pitch": 83,
                "velocity": 40,
                "duration": 0.0840909,
                "tempo": 120.0
            },
            {
                "start_time": 122.8727273,
                "end_time": 123.4181818,
                "pitch": 68,
                "velocity": 40,
                "duration": 0.5454545,
                "tempo": 120.0
            },
            {
                "start_time": 123.4181818,
                "end_time": 123.5,
                "pitch": 88,
                "velocity": 40,
                "duration": 0.0818182,
                "tempo": 120.0
            },
            {
                "start_time": 123.55,
                "end_time": 123.6340909,
                "pitch": 88,
                "velocity": 40,
                "duration": 0.0840909,
                "tempo": 120.0
            },
            {
                "start_time": 123.6863636,
                "end_time": 123.7681818,
                "pitch": 87,
                "velocity": 40,
                "duration": 0.0818182,
                "tempo": 120.0
            },
            {
                "start_time": 123.2818182,
                "end_time": 123.8181818,
                "pitch": 90,
                "velocity": 40,
                "duration": 0.5363636,
                "tempo": 120.0
            },
            {
                "start_time": 123.8181818,
                "end_time": 123.9022727,
                "pitch": 83,
                "velocity": 40,
                "duration": 0.0840909,
                "tempo": 120.0
            },
            {
                "start_time": 123.4181818,
                "end_time": 123.9522727,
                "pitch": 68,
                "velocity": 40,
                "duration": 0.5340909,
                "tempo": 120.0
            },
            {
                "start_time": 123.9522727,
                "end_time": 124.0363636,
                "pitch": 88,
                "velocity": 40,
                "duration": 0.0840909,
                "tempo": 120.0
            },
            {
                "start_time": 124.0863636,
                "end_time": 124.1704545,
                "pitch": 88,
                "velocity": 40,
                "duration": 0.0840909,
                "tempo": 120.0
            },
            {
                "start_time": 124.2204545,
                "end_time": 124.3022727,
                "pitch": 87,
                "velocity": 40,
                "duration": 0.0818182,
                "tempo": 120.0
            },
            {
                "start_time": 123.8181818,
                "end_time": 124.3545455,
                "pitch": 90,
                "velocity": 40,
                "duration": 0.5363636,
                "tempo": 120.0
            },
            {
                "start_time": 124.3545455,
                "end_time": 124.4363636,
                "pitch": 83,
                "velocity": 40,
                "duration": 0.0818182,
                "tempo": 120.0
            },
            {
                "start_time": 124.4886364,
                "end_time": 124.5727273,
                "pitch": 83,
                "velocity": 40,
                "duration": 0.0840909,
                "tempo": 120.0
            },
            {
                "start_time": 124.6227273,
                "end_time": 124.7090909,
                "pitch": 81,
                "velocity": 40,
                "duration": 0.0863636,
                "tempo": 120.0
            },
            {
                "start_time": 123.9522727,
                "end_time": 124.7613636,
                "pitch": 68,
                "velocity": 40,
                "duration": 0.8090909,
                "tempo": 120.0
            },
            {
                "start_time": 120.7227273,
                "end_time": 124.8431818,
                "pitch": 84,
                "velocity": 40,
                "duration": 4.1204545,
                "tempo": 120.0
            },
            {
                "start_time": 124.7613636,
                "end_time": 124.8431818,
                "pitch": 84,
                "velocity": 40,
                "duration": 0.0818182,
                "tempo": 120.0
            },
            {
                "start_time": 116.4045455,
                "end_time": 124.9818182,
                "pitch": 86,
                "velocity": 40,
                "duration": 8.5772727,
                "tempo": 120.0
            },
            {
                "start_time": 124.8954545,
                "end_time": 124.9818182,
                "pitch": 86,
                "velocity": 40,
                "duration": 0.0863636,
                "tempo": 120.0
            },
            {
                "start_time": 125.0340909,
                "end_time": 125.1159091,
                "pitch": 88,
                "velocity": 40,
                "duration": 0.0818182,
                "tempo": 120.0
            },
            {
                "start_time": 125.0340909,
                "end_time": 125.25,
                "pitch": 86,
                "velocity": 40,
                "duration": 0.2159091,
                "tempo": 120.0
            },
            {
                "start_time": 125.1659091,
                "end_time": 125.25,
                "pitch": 86,
                "velocity": 40,
                "duration": 0.0840909,
                "tempo": 120.0
            },
            {
                "start_time": 125.1659091,
                "end_time": 125.3818182,
                "pitch": 88,
                "velocity": 40,
                "duration": 0.2159091,
                "tempo": 120.0
            },
            {
                "start_time": 125.3,
                "end_time": 125.3818182,
                "pitch": 88,
                "velocity": 40,
                "duration": 0.0818182,
                "tempo": 120.0
            },
            {
                "start_time": 124.8954545,
                "end_time": 125.5159091,
                "pitch": 84,
                "velocity": 40,
                "duration": 0.6204545,
                "tempo": 120.0
            },
            {
                "start_time": 125.4340909,
                "end_time": 125.5159091,
                "pitch": 84,
                "velocity": 40,
                "duration": 0.0818182,
                "tempo": 120.0
            },
            {
                "start_time": 125.4340909,
                "end_time": 125.6522727,
                "pitch": 88,
                "velocity": 40,
                "duration": 0.2181818,
                "tempo": 120.0
            },
            {
                "start_time": 125.5681818,
                "end_time": 125.6522727,
                "pitch": 88,
                "velocity": 40,
                "duration": 0.0840909,
                "tempo": 120.0
            },
            {
                "start_time": 125.3,
                "end_time": 125.7886364,
                "pitch": 86,
                "velocity": 40,
                "duration": 0.4886364,
                "tempo": 120.0
            },
            {
                "start_time": 125.7022727,
                "end_time": 125.7886364,
                "pitch": 86,
                "velocity": 40,
                "duration": 0.0863636,
                "tempo": 120.0
            },
            {
                "start_time": 125.7022727,
                "end_time": 125.925,
                "pitch": 88,
                "velocity": 40,
                "duration": 0.2227273,
                "tempo": 120.0
            },
            {
                "start_time": 125.8409091,
                "end_time": 125.925,
                "pitch": 88,
                "velocity": 40,
                "duration": 0.0840909,
                "tempo": 120.0
            },
            {
                "start_time": 125.5681818,
                "end_time": 126.0613636,
                "pitch": 84,
                "velocity": 40,
                "duration": 0.4931818,
                "tempo": 120.0
            },
            {
                "start_time": 125.975,
                "end_time": 126.0613636,
                "pitch": 84,
                "velocity": 40,
                "duration": 0.0863636,
                "tempo": 120.0
            },
            {
                "start_time": 125.975,
                "end_time": 126.1954545,
                "pitch": 88,
                "velocity": 40,
                "duration": 0.2204545,
                "tempo": 120.0
            },
            {
                "start_time": 126.1113636,
                "end_time": 126.1954545,
                "pitch": 88,
                "velocity": 40,
                "duration": 0.0840909,
                "tempo": 120.0
            },
            {
                "start_time": 125.8409091,
                "end_time": 126.3295455,
                "pitch": 86,
                "velocity": 40,
                "duration": 0.4886364,
                "tempo": 120.0
            },
            {
                "start_time": 126.2454545,
                "end_time": 126.3295455,
                "pitch": 86,
                "velocity": 40,
                "duration": 0.0840909,
                "tempo": 120.0
            },
            {
                "start_time": 126.2454545,
                "end_time": 126.4636364,
                "pitch": 88,
                "velocity": 40,
                "duration": 0.2181818,
                "tempo": 120.0
            },
            {
                "start_time": 126.3795455,
                "end_time": 126.4636364,
                "pitch": 88,
                "velocity": 40,
                "duration": 0.0840909,
                "tempo": 120.0
            },
            {
                "start_time": 126.1113636,
                "end_time": 126.5954545,
                "pitch": 84,
                "velocity": 40,
                "duration": 0.4840909,
                "tempo": 120.0
            },
            {
                "start_time": 126.5136364,
                "end_time": 126.5954545,
                "pitch": 84,
                "velocity": 40,
                "duration": 0.0818182,
                "tempo": 120.0
            },
            {
                "start_time": 126.5136364,
                "end_time": 126.7318182,
                "pitch": 88,
                "velocity": 40,
                "duration": 0.2181818,
                "tempo": 120.0
            },
            {
                "start_time": 126.6477273,
                "end_time": 126.7318182,
                "pitch": 88,
                "velocity": 40,
                "duration": 0.0840909,
                "tempo": 120.0
            },
            {
                "start_time": 126.3795455,
                "end_time": 126.8681818,
                "pitch": 86,
                "velocity": 40,
                "duration": 0.4886364,
                "tempo": 120.0
            },
            {
                "start_time": 126.7818182,
                "end_time": 126.8681818,
                "pitch": 86,
                "velocity": 40,
                "duration": 0.0863636,
                "tempo": 120.0
            },
            {
                "start_time": 126.7818182,
                "end_time": 127.0045455,
                "pitch": 88,
                "velocity": 40,
                "duration": 0.2227273,
                "tempo": 120.0
            },
            {
                "start_time": 126.9204545,
                "end_time": 127.0045455,
                "pitch": 88,
                "velocity": 40,
                "duration": 0.0840909,
                "tempo": 120.0
            },
            {
                "start_time": 126.6477273,
                "end_time": 127.1409091,
                "pitch": 84,
                "velocity": 40,
                "duration": 0.4931818,
                "tempo": 120.0
            },
            {
                "start_time": 127.0545455,
                "end_time": 127.1409091,
                "pitch": 84,
                "velocity": 40,
                "duration": 0.0863636,
                "tempo": 120.0
            },
            {
                "start_time": 124.3545455,
                "end_time": 127.275,
                "pitch": 90,
                "velocity": 40,
                "duration": 2.9204545,
                "tempo": 120.0
            },
            {
                "start_time": 127.1931818,
                "end_time": 127.275,
                "pitch": 90,
                "velocity": 40,
                "duration": 0.0818182,
                "tempo": 120.0
            },
            {
                "start_time": 127.325,
                "end_time": 127.4090909,
                "pitch": 90,
                "velocity": 40,
                "duration": 0.0840909,
                "tempo": 120.0
            },
            {
                "start_time": 127.0545455,
                "end_time": 127.5431818,
                "pitch": 88,
                "velocity": 40,
                "duration": 0.4886364,
                "tempo": 120.0
            },
            {
                "start_time": 127.4590909,
                "end_time": 127.5431818,
                "pitch": 88,
                "velocity": 40,
                "duration": 0.0840909,
                "tempo": 120.0
            },
            {
                "start_time": 126.9204545,
                "end_time": 127.6772727,
                "pitch": 86,
                "velocity": 40,
                "duration": 0.7568182,
                "tempo": 120.0
            },
            {
                "start_time": 127.5931818,
                "end_time": 127.6772727,
                "pitch": 86,
                "velocity": 40,
                "duration": 0.0840909,
                "tempo": 120.0
            },
            {
                "start_time": 127.5931818,
                "end_time": 127.8090909,
                "pitch": 90,
                "velocity": 40,
                "duration": 0.2159091,
                "tempo": 120.0
            },
            {
                "start_time": 127.7272727,
                "end_time": 127.8090909,
                "pitch": 90,
                "velocity": 40,
                "duration": 0.0818182,
                "tempo": 120.0
            },
            {
                "start_time": 127.8613636,
                "end_time": 127.9431818,
                "pitch": 90,
                "velocity": 40,
                "duration": 0.0818182,
                "tempo": 120.0
            },
            {
                "start_time": 127.9954545,
                "end_time": 128.0772727,
                "pitch": 88,
                "velocity": 40,
                "duration": 0.0818182,
                "tempo": 120.0
            },
            {
                "start_time": 127.7272727,
                "end_time": 128.2113636,
                "pitch": 86,
                "velocity": 40,
                "duration": 0.4840909,
                "tempo": 120.0
            },
            {
                "start_time": 128.1272727,
                "end_time": 128.2113636,
                "pitch": 86,
                "velocity": 40,
                "duration": 0.0840909,
                "tempo": 120.0
            },
            {
                "start_time": 128.1272727,
                "end_time": 128.3454545,
                "pitch": 90,
                "velocity": 40,
                "duration": 0.2181818,
                "tempo": 120.0
            },
            {
                "start_time": 128.2636364,
                "end_time": 128.3454545,
                "pitch": 90,
                "velocity": 40,
                "duration": 0.0818182,
                "tempo": 120.0
            },
            {
                "start_time": 128.3977273,
                "end_time": 128.4818182,
                "pitch": 90,
                "velocity": 40,
                "duration": 0.0840909,
                "tempo": 120.0
            },
            {
                "start_time": 128.5340909,
                "end_time": 128.6181818,
                "pitch": 88,
                "velocity": 40,
                "duration": 0.0840909,
                "tempo": 120.0
            },
            {
                "start_time": 128.2636364,
                "end_time": 128.7545455,
                "pitch": 86,
                "velocity": 40,
                "duration": 0.4909091,
                "tempo": 120.0
            },
            {
                "start_time": 128.6704545,
                "end_time": 128.7545455,
                "pitch": 86,
                "velocity": 40,
                "duration": 0.0840909,
                "tempo": 120.0
            },
            {
                "start_time": 128.6704545,
                "end_time": 128.8886364,
                "pitch": 90,
                "velocity": 40,
                "duration": 0.2181818,
                "tempo": 120.0
            },
            {
                "start_time": 128.8068182,
                "end_time": 128.8886364,
                "pitch": 90,
                "velocity": 40,
                "duration": 0.0818182,
                "tempo": 120.0
            },
            {
                "start_time": 128.9409091,
                "end_time": 129.0227273,
                "pitch": 90,
                "velocity": 40,
                "duration": 0.0818182,
                "tempo": 120.0
            },
            {
                "start_time": 128.8068182,
                "end_time": 129.1568182,
                "pitch": 86,
                "velocity": 40,
                "duration": 0.35,
                "tempo": 120.0
            },
            {
                "start_time": 129.075,
                "end_time": 129.1568182,
                "pitch": 86,
                "velocity": 40,
                "duration": 0.0818182,
                "tempo": 120.0
            },
            {
                "start_time": 120.5863636,
                "end_time": 129.2068182,
                "pitch": 89,
                "velocity": 40,
                "duration": 8.6204545,
                "tempo": 120.0
            },
            {
                "start_time": 129.2068182,
                "end_time": 129.2909091,
                "pitch": 81,
                "velocity": 40,
                "duration": 0.0840909,
                "tempo": 120.0
            },
            {
                "start_time": 129.3431818,
                "end_time": 131.4409091,
                "pitch": 81,
                "velocity": 40,
                "duration": 2.0977273,
                "tempo": 120.0
            }
        ],
        "Acoustic Guitar (nylon)": [
            {
                "start_time": 1.0772727,
                "end_time": 1.1568182,
                "pitch": 67,
                "velocity": 64,
                "duration": 0.0795455,
                "tempo": 120.0
            },
            {
                "start_time": 1.2068182,
                "end_time": 1.2863636,
                "pitch": 67,
                "velocity": 64,
                "duration": 0.0795455,
                "tempo": 120.0
            },
            {
                "start_time": 1.4636364,
                "end_time": 1.4659091,
                "pitch": 78,
                "velocity": 64,
                "duration": 0.0022727,
                "tempo": 120.0
            },
            {
                "start_time": 1.4659091,
                "end_time": 1.5431818,
                "pitch": 67,
                "velocity": 64,
                "duration": 0.0772727,
                "tempo": 120.0
            },
            {
                "start_time": 3.2181818,
                "end_time": 3.3,
                "pitch": 64,
                "velocity": 64,
                "duration": 0.0818182,
                "tempo": 120.0
            },
            {
                "start_time": 3.3522727,
                "end_time": 3.4340909,
                "pitch": 66,
                "velocity": 64,
                "duration": 0.0818182,
                "tempo": 120.0
            },
            {
                "start_time": 3.4863636,
                "end_time": 3.5681818,
                "pitch": 66,
                "velocity": 64,
                "duration": 0.0818182,
                "tempo": 120.0
            },
            {
                "start_time": 3.6204545,
                "end_time": 3.7022727,
                "pitch": 64,
                "velocity": 64,
                "duration": 0.0818182,
                "tempo": 120.0
            },
            {
                "start_time": 3.8886364,
                "end_time": 4.2454545,
                "pitch": 66,
                "velocity": 64,
                "duration": 0.3568182,
                "tempo": 120.0
            },
            {
                "start_time": 5.3954545,
                "end_time": 5.4727273,
                "pitch": 67,
                "velocity": 64,
                "duration": 0.0772727,
                "tempo": 120.0
            },
            {
                "start_time": 5.5227273,
                "end_time": 5.6,
                "pitch": 67,
                "velocity": 64,
                "duration": 0.0772727,
                "tempo": 120.0
            },
            {
                "start_time": 5.3954545,
                "end_time": 5.775,
                "pitch": 78,
                "velocity": 64,
                "duration": 0.3795455,
                "tempo": 120.0
            },
            {
                "start_time": 5.775,
                "end_time": 5.8522727,
                "pitch": 67,
                "velocity": 64,
                "duration": 0.0772727,
                "tempo": 120.0
            },
            {
                "start_time": 5.775,
                "end_time": 6.4454545,
                "pitch": 78,
                "velocity": 64,
                "duration": 0.6704545,
                "tempo": 120.0
            },
            {
                "start_time": 6.4454545,
                "end_time": 6.8,
                "pitch": 69,
                "velocity": 64,
                "duration": 0.3545455,
                "tempo": 120.0
            },
            {
                "start_time": 6.8545455,
                "end_time": 7.2045455,
                "pitch": 69,
                "velocity": 64,
                "duration": 0.35,
                "tempo": 120.0
            },
            {
                "start_time": 7.2568182,
                "end_time": 7.4727273,
                "pitch": 69,
                "velocity": 64,
                "duration": 0.2159091,
                "tempo": 120.0
            },
            {
                "start_time": 7.6590909,
                "end_time": 7.7409091,
                "pitch": 66,
                "velocity": 64,
                "duration": 0.0818182,
                "tempo": 120.0
            },
            {
                "start_time": 7.7909091,
                "end_time": 7.875,
                "pitch": 66,
                "velocity": 64,
                "duration": 0.0840909,
                "tempo": 120.0
            },
            {
                "start_time": 7.925,
                "end_time": 8.0068182,
                "pitch": 64,
                "velocity": 64,
                "duration": 0.0818182,
                "tempo": 120.0
            },
            {
                "start_time": 8.1954545,
                "end_time": 8.5522727,
                "pitch": 66,
                "velocity": 64,
                "duration": 0.3568182,
                "tempo": 120.0
            },
            {
                "start_time": 6.4454545,
                "end_time": 9.7045455,
                "pitch": 78,
                "velocity": 64,
                "duration": 3.2590909,
                "tempo": 120.0
            },
            {
                "start_time": 9.7022727,
                "end_time": 9.7045455,
                "pitch": 78,
                "velocity": 64,
                "duration": 0.0022727,
                "tempo": 120.0
            },
            {
                "start_time": 9.7045455,
                "end_time": 9.7818182,
                "pitch": 67,
                "velocity": 64,
                "duration": 0.0772727,
                "tempo": 120.0
            },
            {
                "start_time": 9.8318182,
                "end_time": 9.9113636,
                "pitch": 67,
                "velocity": 64,
                "duration": 0.0795455,
                "tempo": 120.0
            },
            {
                "start_time": 10.0909091,
                "end_time": 10.1704545,
                "pitch": 67,
                "velocity": 64,
                "duration": 0.0795455,
                "tempo": 120.0
            },
            {
                "start_time": 11.8340909,
                "end_time": 11.9181818,
                "pitch": 64,
                "velocity": 64,
                "duration": 0.0840909,
                "tempo": 120.0
            },
            {
                "start_time": 11.9681818,
                "end_time": 12.05,
                "pitch": 66,
                "velocity": 64,
                "duration": 0.0818182,
                "tempo": 120.0
            },
            {
                "start_time": 12.1022727,
                "end_time": 12.3181818,
                "pitch": 62,
                "velocity": 64,
                "duration": 0.2159091,
                "tempo": 120.0
            },
            {
                "start_time": 12.3704545,
                "end_time": 12.4545455,
                "pitch": 71,
                "velocity": 64,
                "duration": 0.0840909,
                "tempo": 120.0
            },
            {
                "start_time": 12.6431818,
                "end_time": 12.9977273,
                "pitch": 69,
                "velocity": 64,
                "duration": 0.3545455,
                "tempo": 120.0
            },
            {
                "start_time": 13.0477273,
                "end_time": 13.1318182,
                "pitch": 69,
                "velocity": 64,
                "duration": 0.0840909,
                "tempo": 120.0
            },
            {
                "start_time": 13.1818182,
                "end_time": 13.2636364,
                "pitch": 67,
                "velocity": 64,
                "duration": 0.0818182,
                "tempo": 120.0
            },
            {
                "start_time": 13.3159091,
                "end_time": 13.3977273,
                "pitch": 74,
                "velocity": 64,
                "duration": 0.0818182,
                "tempo": 120.0
            },
            {
                "start_time": 12.3704545,
                "end_time": 13.7227273,
                "pitch": 77,
                "velocity": 64,
                "duration": 1.3522727,
                "tempo": 120.0
            },
            {
                "start_time": 13.7227273,
                "end_time": 13.8068182,
                "pitch": 69,
                "velocity": 64,
                "duration": 0.0840909,
                "tempo": 120.0
            },
            {
                "start_time": 13.8590909,
                "end_time": 13.9431818,
                "pitch": 69,
                "velocity": 64,
                "duration": 0.0840909,
                "tempo": 120.0
            },
            {
                "start_time": 13.9954545,
                "end_time": 14.0772727,
                "pitch": 67,
                "velocity": 64,
                "duration": 0.0818182,
                "tempo": 120.0
            },
            {
                "start_time": 13.3159091,
                "end_time": 14.1272727,
                "pitch": 43,
                "velocity": 64,
                "duration": 0.8113636,
                "tempo": 120.0
            },
            {
                "start_time": 14.1272727,
                "end_time": 14.2113636,
                "pitch": 74,
                "velocity": 64,
                "duration": 0.0840909,
                "tempo": 120.0
            },
            {
                "start_time": 13.7227273,
                "end_time": 14.5295455,
                "pitch": 77,
                "velocity": 64,
                "duration": 0.8068182,
                "tempo": 120.0
            },
            {
                "start_time": 14.5295455,
                "end_time": 14.6136364,
                "pitch": 69,
                "velocity": 64,
                "duration": 0.0840909,
                "tempo": 120.0
            },
            {
                "start_time": 14.6659091,
                "end_time": 14.75,
                "pitch": 69,
                "velocity": 64,
                "duration": 0.0840909,
                "tempo": 120.0
            },
            {
                "start_time": 14.8022727,
                "end_time": 14.8863636,
                "pitch": 67,
                "velocity": 64,
                "duration": 0.0840909,
                "tempo": 120.0
            },
            {
                "start_time": 14.1272727,
                "end_time": 14.9386364,
                "pitch": 43,
                "velocity": 64,
                "duration": 0.8113636,
                "tempo": 120.0
            },
            {
                "start_time": 14.9386364,
                "end_time": 15.0227273,
                "pitch": 74,
                "velocity": 64,
                "duration": 0.0840909,
                "tempo": 120.0
            },
            {
                "start_time": 14.5295455,
                "end_time": 15.3431818,
                "pitch": 77,
                "velocity": 64,
                "duration": 0.8136364,
                "tempo": 120.0
            },
            {
                "start_time": 15.3431818,
                "end_time": 15.425,
                "pitch": 69,
                "velocity": 64,
                "duration": 0.0818182,
                "tempo": 120.0
            },
            {
                "start_time": 15.475,
                "end_time": 15.5568182,
                "pitch": 69,
                "velocity": 64,
                "duration": 0.0818182,
                "tempo": 120.0
            },
            {
                "start_time": 15.6090909,
                "end_time": 15.6931818,
                "pitch": 67,
                "velocity": 64,
                "duration": 0.0840909,
                "tempo": 120.0
            },
            {
                "start_time": 14.9386364,
                "end_time": 15.7454545,
                "pitch": 43,
                "velocity": 64,
                "duration": 0.8068182,
                "tempo": 120.0
            },
            {
                "start_time": 15.7454545,
                "end_time": 15.8295455,
                "pitch": 74,
                "velocity": 64,
                "duration": 0.0840909,
                "tempo": 120.0
            },
            {
                "start_time": 15.3431818,
                "end_time": 16.1545455,
                "pitch": 77,
                "velocity": 64,
                "duration": 0.8113636,
                "tempo": 120.0
            },
            {
                "start_time": 16.1545455,
                "end_time": 16.2363636,
                "pitch": 69,
                "velocity": 64,
                "duration": 0.0818182,
                "tempo": 120.0
            },
            {
                "start_time": 16.2886364,
                "end_time": 16.3704545,
                "pitch": 69,
                "velocity": 64,
                "duration": 0.0818182,
                "tempo": 120.0
            },
            {
                "start_time": 16.4227273,
                "end_time": 16.5045455,
                "pitch": 67,
                "velocity": 64,
                "duration": 0.0818182,
                "tempo": 120.0
            },
            {
                "start_time": 15.7454545,
                "end_time": 16.5545455,
                "pitch": 43,
                "velocity": 64,
                "duration": 0.8090909,
                "tempo": 120.0
            },
            {
                "start_time": 16.5545455,
                "end_time": 16.6386364,
                "pitch": 74,
                "velocity": 64,
                "duration": 0.0840909,
                "tempo": 120.0
            },
            {
                "start_time": 16.1545455,
                "end_time": 16.9613636,
                "pitch": 77,
                "velocity": 64,
                "duration": 0.8068182,
                "tempo": 120.0
            },
            {
                "start_time": 16.9613636,
                "end_time": 17.0454545,
                "pitch": 69,
                "velocity": 64,
                "duration": 0.0840909,
                "tempo": 120.0
            },
            {
                "start_time": 12.6431818,
                "end_time": 17.7181818,
                "pitch": 71,
                "velocity": 64,
                "duration": 5.075,
                "tempo": 120.0
            },
            {
                "start_time": 17.0977273,
                "end_time": 17.7181818,
                "pitch": 71,
                "velocity": 64,
                "duration": 0.6204545,
                "tempo": 120.0
            },
            {
                "start_time": 18.0363636,
                "end_time": 18.2522727,
                "pitch": 62,
                "velocity": 64,
                "duration": 0.2159091,
                "tempo": 120.0
            },
            {
                "start_time": 18.3045455,
                "end_time": 18.5204545,
                "pitch": 62,
                "velocity": 64,
                "duration": 0.2159091,
                "tempo": 120.0
            },
            {
                "start_time": 18.7068182,
                "end_time": 18.9227273,
                "pitch": 62,
                "velocity": 64,
                "duration": 0.2159091,
                "tempo": 120.0
            },
            {
                "start_time": 19.1113636,
                "end_time": 19.3318182,
                "pitch": 62,
                "velocity": 64,
                "duration": 0.2204545,
                "tempo": 120.0
            },
            {
                "start_time": 19.3840909,
                "end_time": 19.4659091,
                "pitch": 59,
                "velocity": 64,
                "duration": 0.0818182,
                "tempo": 120.0
            },
            {
                "start_time": 19.5181818,
                "end_time": 19.6,
                "pitch": 59,
                "velocity": 64,
                "duration": 0.0818182,
                "tempo": 120.0
            },
            {
                "start_time": 19.6522727,
                "end_time": 19.7340909,
                "pitch": 57,
                "velocity": 64,
                "duration": 0.0818182,
                "tempo": 120.0
            },
            {
                "start_time": 19.6522727,
                "end_time": 19.8681818,
                "pitch": 59,
                "velocity": 64,
                "duration": 0.2159091,
                "tempo": 120.0
            },
            {
                "start_time": 19.7863636,
                "end_time": 19.8681818,
                "pitch": 59,
                "velocity": 64,
                "duration": 0.0818182,
                "tempo": 120.0
            },
            {
                "start_time": 18.0363636,
                "end_time": 20.1909091,
                "pitch": 44,
                "velocity": 64,
                "duration": 2.1545455,
                "tempo": 120.0
            },
            {
                "start_time": 20.1909091,
                "end_time": 20.4113636,
                "pitch": 62,
                "velocity": 64,
                "duration": 0.2204545,
                "tempo": 120.0
            },
            {
                "start_time": 20.4636364,
                "end_time": 20.6795455,
                "pitch": 62,
                "velocity": 64,
                "duration": 0.2159091,
                "tempo": 120.0
            },
            {
                "start_time": 20.8659091,
                "end_time": 21.0818182,
                "pitch": 62,
                "velocity": 64,
                "duration": 0.2159091,
                "tempo": 120.0
            },
            {
                "start_time": 21.2659091,
                "end_time": 21.4818182,
                "pitch": 62,
                "velocity": 64,
                "duration": 0.2159091,
                "tempo": 120.0
            },
            {
                "start_time": 19.3840909,
                "end_time": 21.5340909,
                "pitch": 65,
                "velocity": 64,
                "duration": 2.15,
                "tempo": 120.0
            },
            {
                "start_time": 21.5340909,
                "end_time": 21.6181818,
                "pitch": 59,
                "velocity": 64,
                "duration": 0.0840909,
                "tempo": 120.0
            },
            {
                "start_time": 21.6704545,
                "end_time": 21.7545455,
                "pitch": 59,
                "velocity": 64,
                "duration": 0.0840909,
                "tempo": 120.0
            },
            {
                "start_time": 19.7863636,
                "end_time": 21.8909091,
                "pitch": 57,
                "velocity": 64,
                "duration": 2.1045455,
                "tempo": 120.0
            },
            {
                "start_time": 21.8068182,
                "end_time": 21.8909091,
                "pitch": 57,
                "velocity": 64,
                "duration": 0.0840909,
                "tempo": 120.0
            },
            {
                "start_time": 21.8068182,
                "end_time": 22.0272727,
                "pitch": 59,
                "velocity": 64,
                "duration": 0.2204545,
                "tempo": 120.0
            },
            {
                "start_time": 21.9431818,
                "end_time": 22.0272727,
                "pitch": 59,
                "velocity": 64,
                "duration": 0.0840909,
                "tempo": 120.0
            },
            {
                "start_time": 20.1909091,
                "end_time": 22.3477273,
                "pitch": 44,
                "velocity": 64,
                "duration": 2.1568182,
                "tempo": 120.0
            },
            {
                "start_time": 22.3477273,
                "end_time": 22.5613636,
                "pitch": 62,
                "velocity": 64,
                "duration": 0.2136364,
                "tempo": 120.0
            },
            {
                "start_time": 22.6136364,
                "end_time": 22.8340909,
                "pitch": 62,
                "velocity": 64,
                "duration": 0.2204545,
                "tempo": 120.0
            },
            {
                "start_time": 23.0227273,
                "end_time": 23.2409091,
                "pitch": 62,
                "velocity": 64,
                "duration": 0.2181818,
                "tempo": 120.0
            },
            {
                "start_time": 23.4272727,
                "end_time": 23.6409091,
                "pitch": 62,
                "velocity": 64,
                "duration": 0.2136364,
                "tempo": 120.0
            },
            {
                "start_time": 16.9613636,
                "end_time": 23.6954545,
                "pitch": 77,
                "velocity": 64,
                "duration": 6.7340909,
                "tempo": 120.0
            },
            {
                "start_time": 23.6954545,
                "end_time": 23.7772727,
                "pitch": 71,
                "velocity": 64,
                "duration": 0.0818182,
                "tempo": 120.0
            },
            {
                "start_time": 23.9659091,
                "end_time": 24.05,
                "pitch": 71,
                "velocity": 64,
                "duration": 0.0840909,
                "tempo": 120.0
            },
            {
                "start_time": 24.2386364,
                "end_time": 24.3204545,
                "pitch": 71,
                "velocity": 64,
                "duration": 0.0818182,
                "tempo": 120.0
            },
            {
                "start_time": 24.5068182,
                "end_time": 24.5886364,
                "pitch": 71,
                "velocity": 64,
                "duration": 0.0818182,
                "tempo": 120.0
            },
            {
                "start_time": 24.775,
                "end_time": 24.8545455,
                "pitch": 71,
                "velocity": 64,
                "duration": 0.0795455,
                "tempo": 120.0
            },
            {
                "start_time": 21.9431818,
                "end_time": 27.2795455,
                "pitch": 57,
                "velocity": 64,
                "duration": 5.3363636,
                "tempo": 120.0
            },
            {
                "start_time": 26.925,
                "end_time": 27.2795455,
                "pitch": 57,
                "velocity": 64,
                "duration": 0.3545455,
                "tempo": 120.0
            },
            {
                "start_time": 27.3318182,
                "end_time": 27.4159091,
                "pitch": 57,
                "velocity": 64,
                "duration": 0.0840909,
                "tempo": 120.0
            },
            {
                "start_time": 29.0840909,
                "end_time": 29.4318182,
                "pitch": 57,
                "velocity": 64,
                "duration": 0.3477273,
                "tempo": 120.0
            },
            {
                "start_time": 29.4840909,
                "end_time": 29.5659091,
                "pitch": 57,
                "velocity": 64,
                "duration": 0.0818182,
                "tempo": 120.0
            },
            {
                "start_time": 29.8909091,
                "end_time": 31.4590909,
                "pitch": 57,
                "velocity": 64,
                "duration": 1.5681818,
                "tempo": 120.0
            },
            {
                "start_time": 31.5090909,
                "end_time": 31.7272727,
                "pitch": 57,
                "velocity": 64,
                "duration": 0.2181818,
                "tempo": 120.0
            },
            {
                "start_time": 26.925,
                "end_time": 31.9977273,
                "pitch": 59,
                "velocity": 64,
                "duration": 5.0727273,
                "tempo": 120.0
            },
            {
                "start_time": 31.7795455,
                "end_time": 31.9977273,
                "pitch": 59,
                "velocity": 64,
                "duration": 0.2181818,
                "tempo": 120.0
            },
            {
                "start_time": 31.7795455,
                "end_time": 32.1340909,
                "pitch": 57,
                "velocity": 64,
                "duration": 0.3545455,
                "tempo": 120.0
            },
            {
                "start_time": 32.05,
                "end_time": 32.1340909,
                "pitch": 57,
                "velocity": 64,
                "duration": 0.0840909,
                "tempo": 120.0
            },
            {
                "start_time": 32.1863636,
                "end_time": 33.3409091,
                "pitch": 54,
                "velocity": 64,
                "duration": 1.1545455,
                "tempo": 120.0
            },
            {
                "start_time": 12.1022727,
                "end_time": 33.3931818,
                "pitch": 66,
                "velocity": 64,
                "duration": 21.2909091,
                "tempo": 120.0
            },
            {
                "start_time": 32.05,
                "end_time": 33.4772727,
                "pitch": 59,
                "velocity": 64,
                "duration": 1.4272727,
                "tempo": 120.0
            },
            {
                "start_time": 33.3931818,
                "end_time": 33.4772727,
                "pitch": 59,
                "velocity": 64,
                "duration": 0.0840909,
                "tempo": 120.0
            },
            {
                "start_time": 33.5295455,
                "end_time": 33.6136364,
                "pitch": 59,
                "velocity": 64,
                "duration": 0.0840909,
                "tempo": 120.0
            },
            {
                "start_time": 33.8022727,
                "end_time": 34.4204545,
                "pitch": 57,
                "velocity": 64,
                "duration": 0.6181818,
                "tempo": 120.0
            },
            {
                "start_time": 35.5522727,
                "end_time": 35.9022727,
                "pitch": 57,
                "velocity": 64,
                "duration": 0.35,
                "tempo": 120.0
            },
            {
                "start_time": 35.9545455,
                "end_time": 36.0363636,
                "pitch": 57,
                "velocity": 64,
                "duration": 0.0818182,
                "tempo": 120.0
            },
            {
                "start_time": 37.7022727,
                "end_time": 38.0590909,
                "pitch": 57,
                "velocity": 64,
                "duration": 0.3568182,
                "tempo": 120.0
            },
            {
                "start_time": 38.1113636,
                "end_time": 38.1954545,
                "pitch": 57,
                "velocity": 64,
                "duration": 0.0840909,
                "tempo": 120.0
            },
            {
                "start_time": 38.5204545,
                "end_time": 40.0818182,
                "pitch": 57,
                "velocity": 64,
                "duration": 1.5613636,
                "tempo": 120.0
            },
            {
                "start_time": 40.1340909,
                "end_time": 40.3545455,
                "pitch": 57,
                "velocity": 64,
                "duration": 0.2204545,
                "tempo": 120.0
            },
            {
                "start_time": 33.8022727,
                "end_time": 40.6227273,
                "pitch": 59,
                "velocity": 64,
                "duration": 6.8204545,
                "tempo": 120.0
            },
            {
                "start_time": 40.4068182,
                "end_time": 40.6227273,
                "pitch": 59,
                "velocity": 64,
                "duration": 0.2159091,
                "tempo": 120.0
            },
            {
                "start_time": 40.4068182,
                "end_time": 40.7568182,
                "pitch": 57,
                "velocity": 64,
                "duration": 0.35,
                "tempo": 120.0
            },
            {
                "start_time": 40.675,
                "end_time": 40.7568182,
                "pitch": 57,
                "velocity": 64,
                "duration": 0.0818182,
                "tempo": 120.0
            },
            {
                "start_time": 32.1863636,
                "end_time": 40.8090909,
                "pitch": 19,
                "velocity": 64,
                "duration": 8.6227273,
                "tempo": 120.0
            },
            {
                "start_time": 40.8090909,
                "end_time": 41.9704545,
                "pitch": 54,
                "velocity": 64,
                "duration": 1.1613636,
                "tempo": 120.0
            },
            {
                "start_time": 33.3931818,
                "end_time": 42.0227273,
                "pitch": 66,
                "velocity": 64,
                "duration": 8.6295455,
                "tempo": 120.0
            },
            {
                "start_time": 40.675,
                "end_time": 42.1045455,
                "pitch": 59,
                "velocity": 64,
                "duration": 1.4295455,
                "tempo": 120.0
            },
            {
                "start_time": 42.0227273,
                "end_time": 42.1045455,
                "pitch": 59,
                "velocity": 64,
                "duration": 0.0818182,
                "tempo": 120.0
            },
            {
                "start_time": 42.1545455,
                "end_time": 42.2386364,
                "pitch": 59,
                "velocity": 64,
                "duration": 0.0840909,
                "tempo": 120.0
            },
            {
                "start_time": 42.5568182,
                "end_time": 43.05,
                "pitch": 57,
                "velocity": 64,
                "duration": 0.4931818,
                "tempo": 120.0
            },
            {
                "start_time": 7.6590909,
                "end_time": 43.1022727,
                "pitch": 31,
                "velocity": 64,
                "duration": 35.4431818,
                "tempo": 120.0
            },
            {
                "start_time": 43.1022727,
                "end_time": 43.1840909,
                "pitch": 64,
                "velocity": 51,
                "duration": 0.0818182,
                "tempo": 120.0
            },
            {
                "start_time": 43.375,
                "end_time": 43.4568182,
                "pitch": 64,
                "velocity": 51,
                "duration": 0.0818182,
                "tempo": 120.0
            },
            {
                "start_time": 43.6454545,
                "end_time": 43.7295455,
                "pitch": 64,
                "velocity": 51,
                "duration": 0.0840909,
                "tempo": 120.0
            },
            {
                "start_time": 42.0227273,
                "end_time": 43.8613636,
                "pitch": 66,
                "velocity": 64,
                "duration": 1.8386364,
                "tempo": 120.0
            },
            {
                "start_time": 43.7795455,
                "end_time": 43.8613636,
                "pitch": 66,
                "velocity": 51,
                "duration": 0.0818182,
                "tempo": 120.0
            },
            {
                "start_time": 44.0477273,
                "end_time": 44.1295455,
                "pitch": 64,
                "velocity": 51,
                "duration": 0.0818182,
                "tempo": 120.0
            },
            {
                "start_time": 44.3181818,
                "end_time": 44.4022727,
                "pitch": 64,
                "velocity": 51,
                "duration": 0.0840909,
                "tempo": 120.0
            },
            {
                "start_time": 44.5886364,
                "end_time": 44.6727273,
                "pitch": 64,
                "velocity": 51,
                "duration": 0.0840909,
                "tempo": 120.0
            },
            {
                "start_time": 44.7272727,
                "end_time": 44.8090909,
                "pitch": 64,
                "velocity": 51,
                "duration": 0.0818182,
                "tempo": 120.0
            },
            {
                "start_time": 44.8590909,
                "end_time": 44.9431818,
                "pitch": 66,
                "velocity": 51,
                "duration": 0.0840909,
                "tempo": 120.0
            },
            {
                "start_time": 45.1272727,
                "end_time": 45.3431818,
                "pitch": 64,
                "velocity": 51,
                "duration": 0.2159091,
                "tempo": 120.0
            },
            {
                "start_time": 45.5295455,
                "end_time": 45.6113636,
                "pitch": 64,
                "velocity": 51,
                "duration": 0.0818182,
                "tempo": 120.0
            },
            {
                "start_time": 45.7977273,
                "end_time": 45.8795455,
                "pitch": 64,
                "velocity": 51,
                "duration": 0.0818182,
                "tempo": 120.0
            },
            {
                "start_time": 45.9295455,
                "end_time": 46.0113636,
                "pitch": 66,
                "velocity": 51,
                "duration": 0.0818182,
                "tempo": 120.0
            },
            {
                "start_time": 46.1977273,
                "end_time": 46.2795455,
                "pitch": 64,
                "velocity": 51,
                "duration": 0.0818182,
                "tempo": 120.0
            },
            {
                "start_time": 46.4681818,
                "end_time": 46.5522727,
                "pitch": 64,
                "velocity": 51,
                "duration": 0.0840909,
                "tempo": 120.0
            },
            {
                "start_time": 10.0909091,
                "end_time": 46.6045455,
                "pitch": 78,
                "velocity": 64,
                "duration": 36.5136364,
                "tempo": 120.0
            },
            {
                "start_time": 46.6045455,
                "end_time": 46.8227273,
                "pitch": 67,
                "velocity": 51,
                "duration": 0.2181818,
                "tempo": 120.0
            },
            {
                "start_time": 47.1454545,
                "end_time": 47.4954545,
                "pitch": 66,
                "velocity": 51,
                "duration": 0.35,
                "tempo": 120.0
            },
            {
                "start_time": 47.6840909,
                "end_time": 47.7659091,
                "pitch": 64,
                "velocity": 51,
                "duration": 0.0818182,
                "tempo": 120.0
            },
            {
                "start_time": 47.9568182,
                "end_time": 48.0386364,
                "pitch": 64,
                "velocity": 51,
                "duration": 0.0818182,
                "tempo": 120.0
            },
            {
                "start_time": 48.0886364,
                "end_time": 48.1727273,
                "pitch": 66,
                "velocity": 51,
                "duration": 0.0840909,
                "tempo": 120.0
            },
            {
                "start_time": 48.3568182,
                "end_time": 48.4386364,
                "pitch": 64,
                "velocity": 51,
                "duration": 0.0818182,
                "tempo": 120.0
            },
            {
                "start_time": 48.6272727,
                "end_time": 48.7113636,
                "pitch": 64,
                "velocity": 51,
                "duration": 0.0840909,
                "tempo": 120.0
            },
            {
                "start_time": 48.9,
                "end_time": 48.9840909,
                "pitch": 64,
                "velocity": 51,
                "duration": 0.0840909,
                "tempo": 120.0
            },
            {
                "start_time": 49.0363636,
                "end_time": 49.1181818,
                "pitch": 64,
                "velocity": 51,
                "duration": 0.0818182,
                "tempo": 120.0
            },
            {
                "start_time": 49.1681818,
                "end_time": 49.2522727,
                "pitch": 66,
                "velocity": 51,
                "duration": 0.0840909,
                "tempo": 120.0
            },
            {
                "start_time": 49.4363636,
                "end_time": 49.6522727,
                "pitch": 64,
                "velocity": 51,
                "duration": 0.2159091,
                "tempo": 120.0
            },
            {
                "start_time": 49.8386364,
                "end_time": 49.9204545,
                "pitch": 64,
                "velocity": 51,
                "duration": 0.0818182,
                "tempo": 120.0
            },
            {
                "start_time": 50.1068182,
                "end_time": 50.1886364,
                "pitch": 64,
                "velocity": 51,
                "duration": 0.0818182,
                "tempo": 120.0
            },
            {
                "start_time": 50.2386364,
                "end_time": 50.3227273,
                "pitch": 66,
                "velocity": 51,
                "duration": 0.0840909,
                "tempo": 120.0
            },
            {
                "start_time": 50.5068182,
                "end_time": 50.5886364,
                "pitch": 64,
                "velocity": 51,
                "duration": 0.0818182,
                "tempo": 120.0
            },
            {
                "start_time": 50.7772727,
                "end_time": 50.8613636,
                "pitch": 64,
                "velocity": 51,
                "duration": 0.0840909,
                "tempo": 120.0
            },
            {
                "start_time": 46.6045455,
                "end_time": 50.9136364,
                "pitch": 78,
                "velocity": 51,
                "duration": 4.3090909,
                "tempo": 120.0
            },
            {
                "start_time": 50.9136364,
                "end_time": 51.1340909,
                "pitch": 67,
                "velocity": 51,
                "duration": 0.2204545,
                "tempo": 120.0
            },
            {
                "start_time": 51.4590909,
                "end_time": 51.8136364,
                "pitch": 66,
                "velocity": 51,
                "duration": 0.3545455,
                "tempo": 120.0
            },
            {
                "start_time": 51.9977273,
                "end_time": 52.0795455,
                "pitch": 64,
                "velocity": 51,
                "duration": 0.0818182,
                "tempo": 120.0
            },
            {
                "start_time": 52.2659091,
                "end_time": 52.3477273,
                "pitch": 64,
                "velocity": 51,
                "duration": 0.0818182,
                "tempo": 120.0
            },
            {
                "start_time": 52.4,
                "end_time": 52.4818182,
                "pitch": 64,
                "velocity": 51,
                "duration": 0.0818182,
                "tempo": 120.0
            },
            {
                "start_time": 52.6659091,
                "end_time": 52.75,
                "pitch": 64,
                "velocity": 51,
                "duration": 0.0840909,
                "tempo": 120.0
            },
            {
                "start_time": 52.9363636,
                "end_time": 53.0204545,
                "pitch": 64,
                "velocity": 51,
                "duration": 0.0840909,
                "tempo": 120.0
            },
            {
                "start_time": 53.2090909,
                "end_time": 53.2931818,
                "pitch": 64,
                "velocity": 51,
                "duration": 0.0840909,
                "tempo": 120.0
            },
            {
                "start_time": 53.3454545,
                "end_time": 53.4272727,
                "pitch": 64,
                "velocity": 51,
                "duration": 0.0818182,
                "tempo": 120.0
            },
            {
                "start_time": 53.6136364,
                "end_time": 53.6954545,
                "pitch": 64,
                "velocity": 51,
                "duration": 0.0818182,
                "tempo": 120.0
            },
            {
                "start_time": 53.7477273,
                "end_time": 53.9636364,
                "pitch": 64,
                "velocity": 51,
                "duration": 0.2159091,
                "tempo": 120.0
            },
            {
                "start_time": 54.1477273,
                "end_time": 54.2295455,
                "pitch": 64,
                "velocity": 51,
                "duration": 0.0818182,
                "tempo": 120.0
            },
            {
                "start_time": 54.4159091,
                "end_time": 54.5,
                "pitch": 64,
                "velocity": 51,
                "duration": 0.0840909,
                "tempo": 120.0
            },
            {
                "start_time": 54.5522727,
                "end_time": 54.6363636,
                "pitch": 64,
                "velocity": 51,
                "duration": 0.0840909,
                "tempo": 120.0
            },
            {
                "start_time": 54.8227273,
                "end_time": 54.9068182,
                "pitch": 64,
                "velocity": 51,
                "duration": 0.0840909,
                "tempo": 120.0
            },
            {
                "start_time": 55.0954545,
                "end_time": 55.1795455,
                "pitch": 64,
                "velocity": 51,
                "duration": 0.0840909,
                "tempo": 120.0
            },
            {
                "start_time": 55.3681818,
                "end_time": 55.4522727,
                "pitch": 64,
                "velocity": 51,
                "duration": 0.0840909,
                "tempo": 120.0
            },
            {
                "start_time": 55.5068182,
                "end_time": 55.5863636,
                "pitch": 64,
                "velocity": 51,
                "duration": 0.0795455,
                "tempo": 120.0
            },
            {
                "start_time": 55.7727273,
                "end_time": 55.8545455,
                "pitch": 64,
                "velocity": 51,
                "duration": 0.0818182,
                "tempo": 120.0
            },
            {
                "start_time": 55.9068182,
                "end_time": 56.1227273,
                "pitch": 64,
                "velocity": 51,
                "duration": 0.2159091,
                "tempo": 120.0
            },
            {
                "start_time": 56.3090909,
                "end_time": 56.3909091,
                "pitch": 64,
                "velocity": 51,
                "duration": 0.0818182,
                "tempo": 120.0
            },
            {
                "start_time": 56.575,
                "end_time": 56.6568182,
                "pitch": 64,
                "velocity": 51,
                "duration": 0.0818182,
                "tempo": 120.0
            },
            {
                "start_time": 56.7090909,
                "end_time": 56.7909091,
                "pitch": 61,
                "velocity": 51,
                "duration": 0.0818182,
                "tempo": 120.0
            },
            {
                "start_time": 56.9772727,
                "end_time": 57.0590909,
                "pitch": 66,
                "velocity": 51,
                "duration": 0.0818182,
                "tempo": 120.0
            },
            {
                "start_time": 57.2454545,
                "end_time": 57.3295455,
                "pitch": 66,
                "velocity": 51,
                "duration": 0.0840909,
                "tempo": 120.0
            },
            {
                "start_time": 57.5181818,
                "end_time": 57.6022727,
                "pitch": 66,
                "velocity": 51,
                "duration": 0.0840909,
                "tempo": 120.0
            },
            {
                "start_time": 57.6568182,
                "end_time": 57.7386364,
                "pitch": 66,
                "velocity": 51,
                "duration": 0.0818182,
                "tempo": 120.0
            },
            {
                "start_time": 57.9272727,
                "end_time": 58.0113636,
                "pitch": 64,
                "velocity": 51,
                "duration": 0.0840909,
                "tempo": 120.0
            },
            {
                "start_time": 58.2,
                "end_time": 58.2818182,
                "pitch": 64,
                "velocity": 51,
                "duration": 0.0818182,
                "tempo": 120.0
            },
            {
                "start_time": 56.7090909,
                "end_time": 60.2977273,
                "pitch": 63,
                "velocity": 51,
                "duration": 3.5886364,
                "tempo": 120.0
            },
            {
                "start_time": 59.5386364,
                "end_time": 60.2977273,
                "pitch": 63,
                "velocity": 51,
                "duration": 0.7590909,
                "tempo": 120.0
            },
            {
                "start_time": 21.5340909,
                "end_time": 61.4204545,
                "pitch": 65,
                "velocity": 64,
                "duration": 39.8863636,
                "tempo": 120.0
            },
            {
                "start_time": 61.4204545,
                "end_time": 61.7772727,
                "pitch": 57,
                "velocity": 64,
                "duration": 0.3568182,
                "tempo": 120.0
            },
            {
                "start_time": 61.8295455,
                "end_time": 61.9113636,
                "pitch": 57,
                "velocity": 64,
                "duration": 0.0818182,
                "tempo": 120.0
            },
            {
                "start_time": 63.5818182,
                "end_time": 63.9295455,
                "pitch": 57,
                "velocity": 64,
                "duration": 0.3477273,
                "tempo": 120.0
            },
            {
                "start_time": 63.9818182,
                "end_time": 64.0636364,
                "pitch": 57,
                "velocity": 64,
                "duration": 0.0818182,
                "tempo": 120.0
            },
            {
                "start_time": 64.3863636,
                "end_time": 65.9568182,
                "pitch": 57,
                "velocity": 64,
                "duration": 1.5704545,
                "tempo": 120.0
            },
            {
                "start_time": 66.0068182,
                "end_time": 66.2227273,
                "pitch": 57,
                "velocity": 64,
                "duration": 0.2159091,
                "tempo": 120.0
            },
            {
                "start_time": 42.5568182,
                "end_time": 66.4909091,
                "pitch": 59,
                "velocity": 64,
                "duration": 23.9340909,
                "tempo": 120.0
            },
            {
                "start_time": 66.275,
                "end_time": 66.4909091,
                "pitch": 59,
                "velocity": 64,
                "duration": 0.2159091,
                "tempo": 120.0
            },
            {
                "start_time": 66.275,
                "end_time": 66.625,
                "pitch": 57,
                "velocity": 64,
                "duration": 0.35,
                "tempo": 120.0
            },
            {
                "start_time": 66.5431818,
                "end_time": 66.625,
                "pitch": 57,
                "velocity": 64,
                "duration": 0.0818182,
                "tempo": 120.0
            },
            {
                "start_time": 40.8090909,
                "end_time": 66.6772727,
                "pitch": 19,
                "velocity": 64,
                "duration": 25.8681818,
                "tempo": 120.0
            },
            {
                "start_time": 66.6772727,
                "end_time": 67.8386364,
                "pitch": 54,
                "velocity": 64,
                "duration": 1.1613636,
                "tempo": 120.0
            },
            {
                "start_time": 66.5431818,
                "end_time": 67.9727273,
                "pitch": 59,
                "velocity": 64,
                "duration": 1.4295455,
                "tempo": 120.0
            },
            {
                "start_time": 67.8909091,
                "end_time": 67.9727273,
                "pitch": 59,
                "velocity": 64,
                "duration": 0.0818182,
                "tempo": 120.0
            },
            {
                "start_time": 68.025,
                "end_time": 68.1090909,
                "pitch": 59,
                "velocity": 64,
                "duration": 0.0840909,
                "tempo": 120.0
            },
            {
                "start_time": 68.2977273,
                "end_time": 68.9181818,
                "pitch": 57,
                "velocity": 64,
                "duration": 0.6204545,
                "tempo": 120.0
            },
            {
                "start_time": 70.05,
                "end_time": 70.3977273,
                "pitch": 57,
                "velocity": 64,
                "duration": 0.3477273,
                "tempo": 120.0
            },
            {
                "start_time": 70.45,
                "end_time": 70.5318182,
                "pitch": 57,
                "velocity": 64,
                "duration": 0.0818182,
                "tempo": 120.0
            },
            {
                "start_time": 72.2,
                "end_time": 72.5545455,
                "pitch": 57,
                "velocity": 64,
                "duration": 0.3545455,
                "tempo": 120.0
            },
            {
                "start_time": 72.6068182,
                "end_time": 72.6909091,
                "pitch": 57,
                "velocity": 64,
                "duration": 0.0840909,
                "tempo": 120.0
            },
            {
                "start_time": 73.0159091,
                "end_time": 74.5795455,
                "pitch": 57,
                "velocity": 64,
                "duration": 1.5636364,
                "tempo": 120.0
            },
            {
                "start_time": 74.6318182,
                "end_time": 74.85,
                "pitch": 57,
                "velocity": 64,
                "duration": 0.2181818,
                "tempo": 120.0
            },
            {
                "start_time": 68.2977273,
                "end_time": 75.1204545,
                "pitch": 59,
                "velocity": 64,
                "duration": 6.8227273,
                "tempo": 120.0
            },
            {
                "start_time": 74.9045455,
                "end_time": 75.1204545,
                "pitch": 59,
                "velocity": 64,
                "duration": 0.2159091,
                "tempo": 120.0
            },
            {
                "start_time": 74.9045455,
                "end_time": 75.2522727,
                "pitch": 57,
                "velocity": 64,
                "duration": 0.3477273,
                "tempo": 120.0
            },
            {
                "start_time": 75.1704545,
                "end_time": 75.2522727,
                "pitch": 57,
                "velocity": 64,
                "duration": 0.0818182,
                "tempo": 120.0
            },
            {
                "start_time": 66.6772727,
                "end_time": 75.3045455,
                "pitch": 19,
                "velocity": 64,
                "duration": 8.6272727,
                "tempo": 120.0
            },
            {
                "start_time": 75.3045455,
                "end_time": 76.4659091,
                "pitch": 54,
                "velocity": 64,
                "duration": 1.1613636,
                "tempo": 120.0
            },
            {
                "start_time": 67.8909091,
                "end_time": 76.5181818,
                "pitch": 66,
                "velocity": 64,
                "duration": 8.6272727,
                "tempo": 120.0
            },
            {
                "start_time": 75.1704545,
                "end_time": 76.6,
                "pitch": 59,
                "velocity": 64,
                "duration": 1.4295455,
                "tempo": 120.0
            },
            {
                "start_time": 76.5181818,
                "end_time": 76.6,
                "pitch": 59,
                "velocity": 64,
                "duration": 0.0818182,
                "tempo": 120.0
            },
            {
                "start_time": 76.6522727,
                "end_time": 76.7340909,
                "pitch": 59,
                "velocity": 64,
                "duration": 0.0818182,
                "tempo": 120.0
            },
            {
                "start_time": 77.0545455,
                "end_time": 77.5454545,
                "pitch": 57,
                "velocity": 64,
                "duration": 0.4909091,
                "tempo": 120.0
            },
            {
                "start_time": 43.1022727,
                "end_time": 77.6,
                "pitch": 31,
                "velocity": 51,
                "duration": 34.4977273,
                "tempo": 120.0
            },
            {
                "start_time": 77.6,
                "end_time": 77.6818182,
                "pitch": 64,
                "velocity": 51,
                "duration": 0.0818182,
                "tempo": 120.0
            },
            {
                "start_time": 77.8704545,
                "end_time": 77.9545455,
                "pitch": 64,
                "velocity": 51,
                "duration": 0.0840909,
                "tempo": 120.0
            },
            {
                "start_time": 78.1431818,
                "end_time": 78.225,
                "pitch": 64,
                "velocity": 51,
                "duration": 0.0818182,
                "tempo": 120.0
            },
            {
                "start_time": 76.5181818,
                "end_time": 78.3590909,
                "pitch": 66,
                "velocity": 64,
                "duration": 1.8409091,
                "tempo": 120.0
            },
            {
                "start_time": 78.2772727,
                "end_time": 78.3590909,
                "pitch": 66,
                "velocity": 51,
                "duration": 0.0818182,
                "tempo": 120.0
            },
            {
                "start_time": 78.5431818,
                "end_time": 78.6272727,
                "pitch": 64,
                "velocity": 51,
                "duration": 0.0840909,
                "tempo": 120.0
            },
            {
                "start_time": 78.8136364,
                "end_time": 78.8977273,
                "pitch": 64,
                "velocity": 51,
                "duration": 0.0840909,
                "tempo": 120.0
            },
            {
                "start_time": 79.0863636,
                "end_time": 79.1704545,
                "pitch": 64,
                "velocity": 51,
                "duration": 0.0840909,
                "tempo": 120.0
            },
            {
                "start_time": 79.2227273,
                "end_time": 79.3045455,
                "pitch": 64,
                "velocity": 51,
                "duration": 0.0818182,
                "tempo": 120.0
            },
            {
                "start_time": 79.3568182,
                "end_time": 79.4386364,
                "pitch": 66,
                "velocity": 51,
                "duration": 0.0818182,
                "tempo": 120.0
            },
            {
                "start_time": 79.625,
                "end_time": 79.8409091,
                "pitch": 64,
                "velocity": 51,
                "duration": 0.2159091,
                "tempo": 120.0
            },
            {
                "start_time": 80.025,
                "end_time": 80.1068182,
                "pitch": 64,
                "velocity": 51,
                "duration": 0.0818182,
                "tempo": 120.0
            },
            {
                "start_time": 80.2931818,
                "end_time": 80.375,
                "pitch": 64,
                "velocity": 51,
                "duration": 0.0818182,
                "tempo": 120.0
            },
            {
                "start_time": 80.4272727,
                "end_time": 80.5090909,
                "pitch": 66,
                "velocity": 51,
                "duration": 0.0818182,
                "tempo": 120.0
            },
            {
                "start_time": 80.6954545,
                "end_time": 80.7772727,
                "pitch": 64,
                "velocity": 51,
                "duration": 0.0818182,
                "tempo": 120.0
            },
            {
                "start_time": 80.9636364,
                "end_time": 81.0477273,
                "pitch": 64,
                "velocity": 51,
                "duration": 0.0840909,
                "tempo": 120.0
            },
            {
                "start_time": 50.9136364,
                "end_time": 81.1022727,
                "pitch": 78,
                "velocity": 51,
                "duration": 30.1886364,
                "tempo": 120.0
            },
            {
                "start_time": 81.1022727,
                "end_time": 81.3204545,
                "pitch": 67,
                "velocity": 51,
                "duration": 0.2181818,
                "tempo": 120.0
            },
            {
                "start_time": 81.6409091,
                "end_time": 81.9909091,
                "pitch": 66,
                "velocity": 51,
                "duration": 0.35,
                "tempo": 120.0
            },
            {
                "start_time": 82.1795455,
                "end_time": 82.2636364,
                "pitch": 64,
                "velocity": 51,
                "duration": 0.0840909,
                "tempo": 120.0
            },
            {
                "start_time": 82.4522727,
                "end_time": 82.5340909,
                "pitch": 64,
                "velocity": 51,
                "duration": 0.0818182,
                "tempo": 120.0
            },
            {
                "start_time": 82.5863636,
                "end_time": 82.6681818,
                "pitch": 66,
                "velocity": 51,
                "duration": 0.0818182,
                "tempo": 120.0
            },
            {
                "start_time": 82.8545455,
                "end_time": 82.9363636,
                "pitch": 64,
                "velocity": 51,
                "duration": 0.0818182,
                "tempo": 120.0
            },
            {
                "start_time": 83.1227273,
                "end_time": 83.2068182,
                "pitch": 64,
                "velocity": 51,
                "duration": 0.0840909,
                "tempo": 120.0
            },
            {
                "start_time": 83.3954545,
                "end_time": 83.4795455,
                "pitch": 64,
                "velocity": 51,
                "duration": 0.0840909,
                "tempo": 120.0
            },
            {
                "start_time": 83.5340909,
                "end_time": 83.6136364,
                "pitch": 64,
                "velocity": 51,
                "duration": 0.0795455,
                "tempo": 120.0
            },
            {
                "start_time": 83.6659091,
                "end_time": 83.7477273,
                "pitch": 66,
                "velocity": 51,
                "duration": 0.0818182,
                "tempo": 120.0
            },
            {
                "start_time": 83.9340909,
                "end_time": 84.15,
                "pitch": 64,
                "velocity": 51,
                "duration": 0.2159091,
                "tempo": 120.0
            },
            {
                "start_time": 84.3363636,
                "end_time": 84.4181818,
                "pitch": 64,
                "velocity": 51,
                "duration": 0.0818182,
                "tempo": 120.0
            },
            {
                "start_time": 84.6022727,
                "end_time": 84.6840909,
                "pitch": 64,
                "velocity": 51,
                "duration": 0.0818182,
                "tempo": 120.0
            },
            {
                "start_time": 84.7363636,
                "end_time": 84.8181818,
                "pitch": 66,
                "velocity": 51,
                "duration": 0.0818182,
                "tempo": 120.0
            },
            {
                "start_time": 85.0045455,
                "end_time": 85.0863636,
                "pitch": 64,
                "velocity": 51,
                "duration": 0.0818182,
                "tempo": 120.0
            },
            {
                "start_time": 85.2727273,
                "end_time": 85.3568182,
                "pitch": 64,
                "velocity": 51,
                "duration": 0.0840909,
                "tempo": 120.0
            },
            {
                "start_time": 81.1022727,
                "end_time": 85.4113636,
                "pitch": 78,
                "velocity": 51,
                "duration": 4.3090909,
                "tempo": 120.0
            },
            {
                "start_time": 85.4113636,
                "end_time": 85.6295455,
                "pitch": 67,
                "velocity": 51,
                "duration": 0.2181818,
                "tempo": 120.0
            },
            {
                "start_time": 85.9545455,
                "end_time": 86.3090909,
                "pitch": 66,
                "velocity": 51,
                "duration": 0.3545455,
                "tempo": 120.0
            },
            {
                "start_time": 86.4954545,
                "end_time": 86.5772727,
                "pitch": 64,
                "velocity": 51,
                "duration": 0.0818182,
                "tempo": 120.0
            },
            {
                "start_time": 86.7636364,
                "end_time": 86.8454545,
                "pitch": 64,
                "velocity": 51,
                "duration": 0.0818182,
                "tempo": 120.0
            },
            {
                "start_time": 86.8954545,
                "end_time": 86.9795455,
                "pitch": 64,
                "velocity": 51,
                "duration": 0.0840909,
                "tempo": 120.0
            },
            {
                "start_time": 87.1636364,
                "end_time": 87.2454545,
                "pitch": 64,
                "velocity": 51,
                "duration": 0.0818182,
                "tempo": 120.0
            },
            {
                "start_time": 87.4340909,
                "end_time": 87.5181818,
                "pitch": 64,
                "velocity": 51,
                "duration": 0.0840909,
                "tempo": 120.0
            },
            {
                "start_time": 87.7045455,
                "end_time": 87.7886364,
                "pitch": 64,
                "velocity": 51,
                "duration": 0.0840909,
                "tempo": 120.0
            },
            {
                "start_time": 87.8431818,
                "end_time": 87.925,
                "pitch": 64,
                "velocity": 51,
                "duration": 0.0818182,
                "tempo": 120.0
            },
            {
                "start_time": 88.1113636,
                "end_time": 88.1909091,
                "pitch": 64,
                "velocity": 51,
                "duration": 0.0795455,
                "tempo": 120.0
            },
            {
                "start_time": 88.2454545,
                "end_time": 88.4590909,
                "pitch": 64,
                "velocity": 51,
                "duration": 0.2136364,
                "tempo": 120.0
            },
            {
                "start_time": 88.6454545,
                "end_time": 88.7272727,
                "pitch": 64,
                "velocity": 51,
                "duration": 0.0818182,
                "tempo": 120.0
            },
            {
                "start_time": 88.9136364,
                "end_time": 88.9954545,
                "pitch": 64,
                "velocity": 51,
                "duration": 0.0818182,
                "tempo": 120.0
            },
            {
                "start_time": 89.0477273,
                "end_time": 89.1318182,
                "pitch": 64,
                "velocity": 51,
                "duration": 0.0840909,
                "tempo": 120.0
            },
            {
                "start_time": 89.3204545,
                "end_time": 89.4045455,
                "pitch": 64,
                "velocity": 51,
                "duration": 0.0840909,
                "tempo": 120.0
            },
            {
                "start_time": 89.5931818,
                "end_time": 89.6772727,
                "pitch": 64,
                "velocity": 51,
                "duration": 0.0840909,
                "tempo": 120.0
            },
            {
                "start_time": 89.8659091,
                "end_time": 89.95,
                "pitch": 64,
                "velocity": 51,
                "duration": 0.0840909,
                "tempo": 120.0
            },
            {
                "start_time": 90.0022727,
                "end_time": 90.0840909,
                "pitch": 64,
                "velocity": 51,
                "duration": 0.0818182,
                "tempo": 120.0
            },
            {
                "start_time": 90.2704545,
                "end_time": 90.3522727,
                "pitch": 64,
                "velocity": 51,
                "duration": 0.0818182,
                "tempo": 120.0
            },
            {
                "start_time": 90.4045455,
                "end_time": 90.6181818,
                "pitch": 64,
                "velocity": 51,
                "duration": 0.2136364,
                "tempo": 120.0
            },
            {
                "start_time": 90.8045455,
                "end_time": 90.8863636,
                "pitch": 64,
                "velocity": 51,
                "duration": 0.0818182,
                "tempo": 120.0
            },
            {
                "start_time": 91.0727273,
                "end_time": 91.1545455,
                "pitch": 64,
                "velocity": 51,
                "duration": 0.0818182,
                "tempo": 120.0
            },
            {
                "start_time": 56.9772727,
                "end_time": 91.2886364,
                "pitch": 61,
                "velocity": 51,
                "duration": 34.3113636,
                "tempo": 120.0
            },
            {
                "start_time": 91.2068182,
                "end_time": 91.2886364,
                "pitch": 61,
                "velocity": 51,
                "duration": 0.0818182,
                "tempo": 120.0
            },
            {
                "start_time": 91.4727273,
                "end_time": 91.5545455,
                "pitch": 66,
                "velocity": 51,
                "duration": 0.0818182,
                "tempo": 120.0
            },
            {
                "start_time": 91.7431818,
                "end_time": 91.8272727,
                "pitch": 66,
                "velocity": 51,
                "duration": 0.0840909,
                "tempo": 120.0
            },
            {
                "start_time": 92.0159091,
                "end_time": 92.1,
                "pitch": 66,
                "velocity": 51,
                "duration": 0.0840909,
                "tempo": 120.0
            },
            {
                "start_time": 91.4727273,
                "end_time": 92.3727273,
                "pitch": 61,
                "velocity": 51,
                "duration": 0.9,
                "tempo": 120.0
            },
            {
                "start_time": 92.1545455,
                "end_time": 92.3727273,
                "pitch": 61,
                "velocity": 51,
                "duration": 0.2181818,
                "tempo": 120.0
            },
            {
                "start_time": 91.2068182,
                "end_time": 92.6431818,
                "pitch": 63,
                "velocity": 51,
                "duration": 1.4363636,
                "tempo": 120.0
            },
            {
                "start_time": 92.425,
                "end_time": 92.6431818,
                "pitch": 63,
                "velocity": 51,
                "duration": 0.2181818,
                "tempo": 120.0
            },
            {
                "start_time": 17.0977273,
                "end_time": 132.9227273,
                "pitch": 69,
                "velocity": 64,
                "duration": 115.825,
                "tempo": 120.0
            },
            {
                "start_time": 132.5727273,
                "end_time": 132.9227273,
                "pitch": 69,
                "velocity": 64,
                "duration": 0.35,
                "tempo": 120.0
            },
            {
                "start_time": 132.975,
                "end_time": 133.0568182,
                "pitch": 69,
                "velocity": 64,
                "duration": 0.0818182,
                "tempo": 120.0
            },
            {
                "start_time": 136.8818182,
                "end_time": 137.2318182,
                "pitch": 69,
                "velocity": 64,
                "duration": 0.35,
                "tempo": 120.0
            },
            {
                "start_time": 137.2840909,
                "end_time": 137.3659091,
                "pitch": 69,
                "velocity": 64,
                "duration": 0.0818182,
                "tempo": 120.0
            }
        ],
        "Electric Guitar (clean)": [
            {
                "start_time": 0.0068182,
                "end_time": 0.0795455,
                "pitch": 52,
                "velocity": 32,
                "duration": 0.0727273,
                "tempo": 120.0
            },
            {
                "start_time": 0.1295455,
                "end_time": 0.2136364,
                "pitch": 52,
                "velocity": 32,
                "duration": 0.0840909,
                "tempo": 120.0
            },
            {
                "start_time": 0.2636364,
                "end_time": 0.3477273,
                "pitch": 52,
                "velocity": 32,
                "duration": 0.0840909,
                "tempo": 120.0
            },
            {
                "start_time": 0.3977273,
                "end_time": 0.4818182,
                "pitch": 50,
                "velocity": 32,
                "duration": 0.0840909,
                "tempo": 120.0
            },
            {
                "start_time": 0.8045455,
                "end_time": 1.025,
                "pitch": 55,
                "velocity": 32,
                "duration": 0.2204545,
                "tempo": 120.0
            },
            {
                "start_time": 1.0772727,
                "end_time": 1.2863636,
                "pitch": 55,
                "velocity": 32,
                "duration": 0.2090909,
                "tempo": 120.0
            },
            {
                "start_time": 1.3363636,
                "end_time": 1.4159091,
                "pitch": 69,
                "velocity": 32,
                "duration": 0.0795455,
                "tempo": 120.0
            },
            {
                "start_time": 1.4659091,
                "end_time": 1.6772727,
                "pitch": 57,
                "velocity": 32,
                "duration": 0.2113636,
                "tempo": 120.0
            },
            {
                "start_time": 1.7295455,
                "end_time": 1.8136364,
                "pitch": 55,
                "velocity": 32,
                "duration": 0.0840909,
                "tempo": 120.0
            },
            {
                "start_time": 1.8659091,
                "end_time": 1.95,
                "pitch": 67,
                "velocity": 32,
                "duration": 0.0840909,
                "tempo": 120.0
            },
            {
                "start_time": 2.0022727,
                "end_time": 2.0863636,
                "pitch": 57,
                "velocity": 32,
                "duration": 0.0840909,
                "tempo": 120.0
            },
            {
                "start_time": 2.1386364,
                "end_time": 2.2227273,
                "pitch": 52,
                "velocity": 32,
                "duration": 0.0840909,
                "tempo": 120.0
            },
            {
                "start_time": 2.2727273,
                "end_time": 2.3590909,
                "pitch": 52,
                "velocity": 32,
                "duration": 0.0863636,
                "tempo": 120.0
            },
            {
                "start_time": 2.4090909,
                "end_time": 2.4931818,
                "pitch": 52,
                "velocity": 32,
                "duration": 0.0840909,
                "tempo": 120.0
            },
            {
                "start_time": 2.5454545,
                "end_time": 2.6295455,
                "pitch": 50,
                "velocity": 32,
                "duration": 0.0840909,
                "tempo": 120.0
            },
            {
                "start_time": 0.8045455,
                "end_time": 2.95,
                "pitch": 66,
                "velocity": 32,
                "duration": 2.1454545,
                "tempo": 120.0
            },
            {
                "start_time": 2.95,
                "end_time": 3.1659091,
                "pitch": 55,
                "velocity": 32,
                "duration": 0.2159091,
                "tempo": 120.0
            },
            {
                "start_time": 3.2181818,
                "end_time": 3.4340909,
                "pitch": 55,
                "velocity": 32,
                "duration": 0.2159091,
                "tempo": 120.0
            },
            {
                "start_time": 3.4863636,
                "end_time": 3.5681818,
                "pitch": 69,
                "velocity": 32,
                "duration": 0.0818182,
                "tempo": 120.0
            },
            {
                "start_time": 3.6204545,
                "end_time": 3.8363636,
                "pitch": 57,
                "velocity": 32,
                "duration": 0.2159091,
                "tempo": 120.0
            },
            {
                "start_time": 3.8909091,
                "end_time": 3.9727273,
                "pitch": 55,
                "velocity": 32,
                "duration": 0.0818182,
                "tempo": 120.0
            },
            {
                "start_time": 4.0272727,
                "end_time": 4.1090909,
                "pitch": 67,
                "velocity": 32,
                "duration": 0.0818182,
                "tempo": 120.0
            },
            {
                "start_time": 4.1613636,
                "end_time": 4.2454545,
                "pitch": 57,
                "velocity": 32,
                "duration": 0.0840909,
                "tempo": 120.0
            },
            {
                "start_time": 2.1386364,
                "end_time": 4.3,
                "pitch": 19,
                "velocity": 32,
                "duration": 2.1613636,
                "tempo": 120.0
            },
            {
                "start_time": 4.3,
                "end_time": 4.3795455,
                "pitch": 52,
                "velocity": 32,
                "duration": 0.0795455,
                "tempo": 120.0
            },
            {
                "start_time": 4.4318182,
                "end_time": 4.5136364,
                "pitch": 52,
                "velocity": 32,
                "duration": 0.0818182,
                "tempo": 120.0
            },
            {
                "start_time": 4.5659091,
                "end_time": 4.6477273,
                "pitch": 52,
                "velocity": 32,
                "duration": 0.0818182,
                "tempo": 120.0
            },
            {
                "start_time": 4.6977273,
                "end_time": 4.7818182,
                "pitch": 50,
                "velocity": 32,
                "duration": 0.0840909,
                "tempo": 120.0
            },
            {
                "start_time": 2.95,
                "end_time": 5.1136364,
                "pitch": 66,
                "velocity": 32,
                "duration": 2.1636364,
                "tempo": 120.0
            },
            {
                "start_time": 5.1136364,
                "end_time": 5.3431818,
                "pitch": 55,
                "velocity": 32,
                "duration": 0.2295455,
                "tempo": 120.0
            },
            {
                "start_time": 5.3977273,
                "end_time": 5.6,
                "pitch": 55,
                "velocity": 32,
                "duration": 0.2022727,
                "tempo": 120.0
            },
            {
                "start_time": 5.65,
                "end_time": 5.725,
                "pitch": 69,
                "velocity": 32,
                "duration": 0.075,
                "tempo": 120.0
            },
            {
                "start_time": 5.775,
                "end_time": 5.9840909,
                "pitch": 57,
                "velocity": 32,
                "duration": 0.2090909,
                "tempo": 120.0
            },
            {
                "start_time": 6.0363636,
                "end_time": 6.1204545,
                "pitch": 55,
                "velocity": 32,
                "duration": 0.0840909,
                "tempo": 120.0
            },
            {
                "start_time": 6.1704545,
                "end_time": 6.2568182,
                "pitch": 67,
                "velocity": 32,
                "duration": 0.0863636,
                "tempo": 120.0
            },
            {
                "start_time": 6.3068182,
                "end_time": 6.3931818,
                "pitch": 57,
                "velocity": 32,
                "duration": 0.0863636,
                "tempo": 120.0
            },
            {
                "start_time": 4.3,
                "end_time": 6.4454545,
                "pitch": 19,
                "velocity": 32,
                "duration": 2.1454545,
                "tempo": 120.0
            },
            {
                "start_time": 6.4454545,
                "end_time": 6.5272727,
                "pitch": 52,
                "velocity": 32,
                "duration": 0.0818182,
                "tempo": 120.0
            },
            {
                "start_time": 6.5795455,
                "end_time": 6.6636364,
                "pitch": 52,
                "velocity": 32,
                "duration": 0.0840909,
                "tempo": 120.0
            },
            {
                "start_time": 6.7159091,
                "end_time": 6.8,
                "pitch": 52,
                "velocity": 32,
                "duration": 0.0840909,
                "tempo": 120.0
            },
            {
                "start_time": 6.8545455,
                "end_time": 6.9363636,
                "pitch": 50,
                "velocity": 32,
                "duration": 0.0818182,
                "tempo": 120.0
            },
            {
                "start_time": 5.1136364,
                "end_time": 7.2590909,
                "pitch": 66,
                "velocity": 32,
                "duration": 2.1454545,
                "tempo": 120.0
            },
            {
                "start_time": 7.2590909,
                "end_time": 7.4727273,
                "pitch": 55,
                "velocity": 32,
                "duration": 0.2136364,
                "tempo": 120.0
            },
            {
                "start_time": 7.525,
                "end_time": 7.7409091,
                "pitch": 55,
                "velocity": 32,
                "duration": 0.2159091,
                "tempo": 120.0
            },
            {
                "start_time": 7.7931818,
                "end_time": 7.875,
                "pitch": 69,
                "velocity": 32,
                "duration": 0.0818182,
                "tempo": 120.0
            },
            {
                "start_time": 7.9272727,
                "end_time": 8.1431818,
                "pitch": 57,
                "velocity": 32,
                "duration": 0.2159091,
                "tempo": 120.0
            },
            {
                "start_time": 8.1954545,
                "end_time": 8.2795455,
                "pitch": 55,
                "velocity": 32,
                "duration": 0.0840909,
                "tempo": 120.0
            },
            {
                "start_time": 8.3318182,
                "end_time": 8.4159091,
                "pitch": 67,
                "velocity": 32,
                "duration": 0.0840909,
                "tempo": 120.0
            },
            {
                "start_time": 8.4681818,
                "end_time": 8.5522727,
                "pitch": 57,
                "velocity": 32,
                "duration": 0.0840909,
                "tempo": 120.0
            },
            {
                "start_time": 6.4454545,
                "end_time": 8.6045455,
                "pitch": 19,
                "velocity": 32,
                "duration": 2.1590909,
                "tempo": 120.0
            },
            {
                "start_time": 8.6045455,
                "end_time": 8.6886364,
                "pitch": 52,
                "velocity": 32,
                "duration": 0.0840909,
                "tempo": 120.0
            },
            {
                "start_time": 8.7386364,
                "end_time": 8.825,
                "pitch": 52,
                "velocity": 32,
                "duration": 0.0863636,
                "tempo": 120.0
            },
            {
                "start_time": 8.8772727,
                "end_time": 8.9590909,
                "pitch": 52,
                "velocity": 32,
                "duration": 0.0818182,
                "tempo": 120.0
            },
            {
                "start_time": 9.0113636,
                "end_time": 9.0954545,
                "pitch": 50,
                "velocity": 32,
                "duration": 0.0840909,
                "tempo": 120.0
            },
            {
                "start_time": 7.2590909,
                "end_time": 9.425,
                "pitch": 66,
                "velocity": 32,
                "duration": 2.1659091,
                "tempo": 120.0
            },
            {
                "start_time": 9.425,
                "end_time": 9.65,
                "pitch": 55,
                "velocity": 32,
                "duration": 0.225,
                "tempo": 120.0
            },
            {
                "start_time": 9.7045455,
                "end_time": 9.9113636,
                "pitch": 55,
                "velocity": 32,
                "duration": 0.2068182,
                "tempo": 120.0
            },
            {
                "start_time": 9.9636364,
                "end_time": 10.0409091,
                "pitch": 69,
                "velocity": 32,
                "duration": 0.0772727,
                "tempo": 120.0
            },
            {
                "start_time": 10.0909091,
                "end_time": 10.3022727,
                "pitch": 57,
                "velocity": 32,
                "duration": 0.2113636,
                "tempo": 120.0
            },
            {
                "start_time": 10.3545455,
                "end_time": 10.4363636,
                "pitch": 55,
                "velocity": 32,
                "duration": 0.0818182,
                "tempo": 120.0
            },
            {
                "start_time": 10.4863636,
                "end_time": 10.5704545,
                "pitch": 67,
                "velocity": 32,
                "duration": 0.0840909,
                "tempo": 120.0
            },
            {
                "start_time": 10.6204545,
                "end_time": 10.7045455,
                "pitch": 57,
                "velocity": 32,
                "duration": 0.0840909,
                "tempo": 120.0
            },
            {
                "start_time": 8.6045455,
                "end_time": 10.7568182,
                "pitch": 19,
                "velocity": 32,
                "duration": 2.1522727,
                "tempo": 120.0
            },
            {
                "start_time": 10.7545455,
                "end_time": 10.7568182,
                "pitch": 19,
                "velocity": 32,
                "duration": 0.0022727,
                "tempo": 120.0
            },
            {
                "start_time": 10.7568182,
                "end_time": 10.8386364,
                "pitch": 52,
                "velocity": 32,
                "duration": 0.0818182,
                "tempo": 120.0
            },
            {
                "start_time": 10.8909091,
                "end_time": 10.975,
                "pitch": 52,
                "velocity": 32,
                "duration": 0.0840909,
                "tempo": 120.0
            },
            {
                "start_time": 11.0272727,
                "end_time": 11.1113636,
                "pitch": 52,
                "velocity": 32,
                "duration": 0.0840909,
                "tempo": 120.0
            },
            {
                "start_time": 11.1636364,
                "end_time": 11.2477273,
                "pitch": 50,
                "velocity": 32,
                "duration": 0.0840909,
                "tempo": 120.0
            },
            {
                "start_time": 9.425,
                "end_time": 11.5681818,
                "pitch": 66,
                "velocity": 32,
                "duration": 2.1431818,
                "tempo": 120.0
            },
            {
                "start_time": 11.5681818,
                "end_time": 11.7840909,
                "pitch": 55,
                "velocity": 32,
                "duration": 0.2159091,
                "tempo": 120.0
            },
            {
                "start_time": 11.8363636,
                "end_time": 12.0522727,
                "pitch": 55,
                "velocity": 32,
                "duration": 0.2159091,
                "tempo": 120.0
            },
            {
                "start_time": 12.1022727,
                "end_time": 12.1840909,
                "pitch": 69,
                "velocity": 32,
                "duration": 0.0818182,
                "tempo": 120.0
            },
            {
                "start_time": 12.2363636,
                "end_time": 12.4545455,
                "pitch": 57,
                "velocity": 32,
                "duration": 0.2181818,
                "tempo": 120.0
            },
            {
                "start_time": 13.1840909,
                "end_time": 13.3977273,
                "pitch": 50,
                "velocity": 32,
                "duration": 0.2136364,
                "tempo": 120.0
            },
            {
                "start_time": 13.45,
                "end_time": 13.6704545,
                "pitch": 50,
                "velocity": 32,
                "duration": 0.2204545,
                "tempo": 120.0
            },
            {
                "start_time": 13.7227273,
                "end_time": 13.9431818,
                "pitch": 50,
                "velocity": 32,
                "duration": 0.2204545,
                "tempo": 120.0
            },
            {
                "start_time": 13.9954545,
                "end_time": 14.2113636,
                "pitch": 50,
                "velocity": 32,
                "duration": 0.2159091,
                "tempo": 120.0
            },
            {
                "start_time": 14.2636364,
                "end_time": 14.4795455,
                "pitch": 50,
                "velocity": 32,
                "duration": 0.2159091,
                "tempo": 120.0
            },
            {
                "start_time": 14.5318182,
                "end_time": 14.75,
                "pitch": 50,
                "velocity": 32,
                "duration": 0.2181818,
                "tempo": 120.0
            },
            {
                "start_time": 14.8045455,
                "end_time": 15.2909091,
                "pitch": 50,
                "velocity": 32,
                "duration": 0.4863636,
                "tempo": 120.0
            },
            {
                "start_time": 15.3431818,
                "end_time": 15.5590909,
                "pitch": 50,
                "velocity": 32,
                "duration": 0.2159091,
                "tempo": 120.0
            },
            {
                "start_time": 15.6113636,
                "end_time": 15.8295455,
                "pitch": 50,
                "velocity": 32,
                "duration": 0.2181818,
                "tempo": 120.0
            },
            {
                "start_time": 15.8818182,
                "end_time": 16.1022727,
                "pitch": 50,
                "velocity": 32,
                "duration": 0.2204545,
                "tempo": 120.0
            },
            {
                "start_time": 16.1568182,
                "end_time": 16.3704545,
                "pitch": 50,
                "velocity": 32,
                "duration": 0.2136364,
                "tempo": 120.0
            },
            {
                "start_time": 16.6909091,
                "end_time": 16.7727273,
                "pitch": 50,
                "velocity": 32,
                "duration": 0.0818182,
                "tempo": 120.0
            },
            {
                "start_time": 16.825,
                "end_time": 17.0454545,
                "pitch": 50,
                "velocity": 32,
                "duration": 0.2204545,
                "tempo": 120.0
            },
            {
                "start_time": 17.1,
                "end_time": 17.3159091,
                "pitch": 51,
                "velocity": 32,
                "duration": 0.2159091,
                "tempo": 120.0
            },
            {
                "start_time": 17.3681818,
                "end_time": 17.45,
                "pitch": 52,
                "velocity": 32,
                "duration": 0.0818182,
                "tempo": 120.0
            },
            {
                "start_time": 17.5,
                "end_time": 17.5840909,
                "pitch": 52,
                "velocity": 32,
                "duration": 0.0840909,
                "tempo": 120.0
            },
            {
                "start_time": 17.6340909,
                "end_time": 17.7181818,
                "pitch": 50,
                "velocity": 32,
                "duration": 0.0840909,
                "tempo": 120.0
            },
            {
                "start_time": 11.5681818,
                "end_time": 18.0386364,
                "pitch": 66,
                "velocity": 32,
                "duration": 6.4704545,
                "tempo": 120.0
            },
            {
                "start_time": 18.0386364,
                "end_time": 18.2522727,
                "pitch": 55,
                "velocity": 32,
                "duration": 0.2136364,
                "tempo": 120.0
            },
            {
                "start_time": 18.3045455,
                "end_time": 18.5204545,
                "pitch": 55,
                "velocity": 32,
                "duration": 0.2159091,
                "tempo": 120.0
            },
            {
                "start_time": 18.5727273,
                "end_time": 18.6545455,
                "pitch": 69,
                "velocity": 32,
                "duration": 0.0818182,
                "tempo": 120.0
            },
            {
                "start_time": 18.7068182,
                "end_time": 18.9227273,
                "pitch": 57,
                "velocity": 32,
                "duration": 0.2159091,
                "tempo": 120.0
            },
            {
                "start_time": 18.975,
                "end_time": 19.0590909,
                "pitch": 55,
                "velocity": 32,
                "duration": 0.0840909,
                "tempo": 120.0
            },
            {
                "start_time": 19.1136364,
                "end_time": 19.1954545,
                "pitch": 67,
                "velocity": 32,
                "duration": 0.0818182,
                "tempo": 120.0
            },
            {
                "start_time": 19.2477273,
                "end_time": 19.3318182,
                "pitch": 57,
                "velocity": 32,
                "duration": 0.0840909,
                "tempo": 120.0
            },
            {
                "start_time": 19.3863636,
                "end_time": 19.4659091,
                "pitch": 52,
                "velocity": 32,
                "duration": 0.0795455,
                "tempo": 120.0
            },
            {
                "start_time": 19.5181818,
                "end_time": 19.6,
                "pitch": 52,
                "velocity": 32,
                "duration": 0.0818182,
                "tempo": 120.0
            },
            {
                "start_time": 19.6522727,
                "end_time": 19.7340909,
                "pitch": 52,
                "velocity": 32,
                "duration": 0.0818182,
                "tempo": 120.0
            },
            {
                "start_time": 19.7863636,
                "end_time": 19.8681818,
                "pitch": 50,
                "velocity": 32,
                "duration": 0.0818182,
                "tempo": 120.0
            },
            {
                "start_time": 18.0386364,
                "end_time": 20.1931818,
                "pitch": 66,
                "velocity": 32,
                "duration": 2.1545455,
                "tempo": 120.0
            },
            {
                "start_time": 20.1931818,
                "end_time": 20.4113636,
                "pitch": 55,
                "velocity": 32,
                "duration": 0.2181818,
                "tempo": 120.0
            },
            {
                "start_time": 20.4659091,
                "end_time": 20.6795455,
                "pitch": 55,
                "velocity": 32,
                "duration": 0.2136364,
                "tempo": 120.0
            },
            {
                "start_time": 20.7318182,
                "end_time": 20.8136364,
                "pitch": 69,
                "velocity": 32,
                "duration": 0.0818182,
                "tempo": 120.0
            },
            {
                "start_time": 20.8659091,
                "end_time": 21.0818182,
                "pitch": 57,
                "velocity": 32,
                "duration": 0.2159091,
                "tempo": 120.0
            },
            {
                "start_time": 21.1318182,
                "end_time": 21.2159091,
                "pitch": 55,
                "velocity": 32,
                "duration": 0.0840909,
                "tempo": 120.0
            },
            {
                "start_time": 21.2681818,
                "end_time": 21.3477273,
                "pitch": 67,
                "velocity": 32,
                "duration": 0.0795455,
                "tempo": 120.0
            },
            {
                "start_time": 21.4,
                "end_time": 21.4818182,
                "pitch": 57,
                "velocity": 32,
                "duration": 0.0818182,
                "tempo": 120.0
            },
            {
                "start_time": 19.3863636,
                "end_time": 21.5363636,
                "pitch": 19,
                "velocity": 32,
                "duration": 2.15,
                "tempo": 120.0
            },
            {
                "start_time": 21.5363636,
                "end_time": 21.6181818,
                "pitch": 52,
                "velocity": 32,
                "duration": 0.0818182,
                "tempo": 120.0
            },
            {
                "start_time": 21.6704545,
                "end_time": 21.7545455,
                "pitch": 52,
                "velocity": 32,
                "duration": 0.0840909,
                "tempo": 120.0
            },
            {
                "start_time": 21.8068182,
                "end_time": 21.8909091,
                "pitch": 52,
                "velocity": 32,
                "duration": 0.0840909,
                "tempo": 120.0
            },
            {
                "start_time": 21.9431818,
                "end_time": 22.0272727,
                "pitch": 50,
                "velocity": 32,
                "duration": 0.0840909,
                "tempo": 120.0
            },
            {
                "start_time": 20.1931818,
                "end_time": 22.3477273,
                "pitch": 66,
                "velocity": 32,
                "duration": 2.1545455,
                "tempo": 120.0
            },
            {
                "start_time": 22.3477273,
                "end_time": 22.5636364,
                "pitch": 55,
                "velocity": 32,
                "duration": 0.2159091,
                "tempo": 120.0
            },
            {
                "start_time": 22.6159091,
                "end_time": 22.8340909,
                "pitch": 55,
                "velocity": 32,
                "duration": 0.2181818,
                "tempo": 120.0
            },
            {
                "start_time": 22.8863636,
                "end_time": 22.9704545,
                "pitch": 69,
                "velocity": 32,
                "duration": 0.0840909,
                "tempo": 120.0
            },
            {
                "start_time": 23.0227273,
                "end_time": 23.2409091,
                "pitch": 57,
                "velocity": 32,
                "duration": 0.2181818,
                "tempo": 120.0
            },
            {
                "start_time": 23.2931818,
                "end_time": 23.375,
                "pitch": 55,
                "velocity": 32,
                "duration": 0.0818182,
                "tempo": 120.0
            },
            {
                "start_time": 23.4272727,
                "end_time": 23.5090909,
                "pitch": 67,
                "velocity": 32,
                "duration": 0.0818182,
                "tempo": 120.0
            },
            {
                "start_time": 23.5590909,
                "end_time": 23.6431818,
                "pitch": 57,
                "velocity": 32,
                "duration": 0.0840909,
                "tempo": 120.0
            },
            {
                "start_time": 21.5363636,
                "end_time": 23.6954545,
                "pitch": 19,
                "velocity": 32,
                "duration": 2.1590909,
                "tempo": 120.0
            },
            {
                "start_time": 23.6954545,
                "end_time": 23.7772727,
                "pitch": 52,
                "velocity": 32,
                "duration": 0.0818182,
                "tempo": 120.0
            },
            {
                "start_time": 23.9681818,
                "end_time": 24.05,
                "pitch": 52,
                "velocity": 32,
                "duration": 0.0818182,
                "tempo": 120.0
            },
            {
                "start_time": 24.2409091,
                "end_time": 24.3204545,
                "pitch": 52,
                "velocity": 32,
                "duration": 0.0795455,
                "tempo": 120.0
            },
            {
                "start_time": 24.5090909,
                "end_time": 24.5886364,
                "pitch": 52,
                "velocity": 32,
                "duration": 0.0795455,
                "tempo": 120.0
            },
            {
                "start_time": 24.775,
                "end_time": 24.8568182,
                "pitch": 52,
                "velocity": 32,
                "duration": 0.0818182,
                "tempo": 120.0
            },
            {
                "start_time": 25.8454545,
                "end_time": 25.9272727,
                "pitch": 52,
                "velocity": 32,
                "duration": 0.0818182,
                "tempo": 120.0
            },
            {
                "start_time": 25.9795455,
                "end_time": 26.0636364,
                "pitch": 52,
                "velocity": 32,
                "duration": 0.0840909,
                "tempo": 120.0
            },
            {
                "start_time": 26.1159091,
                "end_time": 26.2,
                "pitch": 52,
                "velocity": 32,
                "duration": 0.0840909,
                "tempo": 120.0
            },
            {
                "start_time": 26.3886364,
                "end_time": 26.4704545,
                "pitch": 50,
                "velocity": 32,
                "duration": 0.0818182,
                "tempo": 120.0
            },
            {
                "start_time": 22.3477273,
                "end_time": 26.6568182,
                "pitch": 66,
                "velocity": 32,
                "duration": 4.3090909,
                "tempo": 120.0
            },
            {
                "start_time": 26.6568182,
                "end_time": 26.8727273,
                "pitch": 55,
                "velocity": 32,
                "duration": 0.2159091,
                "tempo": 120.0
            },
            {
                "start_time": 26.925,
                "end_time": 27.0068182,
                "pitch": 55,
                "velocity": 32,
                "duration": 0.0818182,
                "tempo": 120.0
            },
            {
                "start_time": 27.4681818,
                "end_time": 27.55,
                "pitch": 57,
                "velocity": 32,
                "duration": 0.0818182,
                "tempo": 120.0
            },
            {
                "start_time": 27.6022727,
                "end_time": 27.9522727,
                "pitch": 55,
                "velocity": 32,
                "duration": 0.35,
                "tempo": 120.0
            },
            {
                "start_time": 23.6954545,
                "end_time": 28.0022727,
                "pitch": 19,
                "velocity": 32,
                "duration": 4.3068182,
                "tempo": 120.0
            },
            {
                "start_time": 28.0022727,
                "end_time": 28.0863636,
                "pitch": 52,
                "velocity": 32,
                "duration": 0.0840909,
                "tempo": 120.0
            },
            {
                "start_time": 28.1386364,
                "end_time": 28.2227273,
                "pitch": 52,
                "velocity": 32,
                "duration": 0.0840909,
                "tempo": 120.0
            },
            {
                "start_time": 28.275,
                "end_time": 28.3590909,
                "pitch": 52,
                "velocity": 32,
                "duration": 0.0840909,
                "tempo": 120.0
            },
            {
                "start_time": 28.5477273,
                "end_time": 28.6295455,
                "pitch": 50,
                "velocity": 32,
                "duration": 0.0818182,
                "tempo": 120.0
            },
            {
                "start_time": 26.6568182,
                "end_time": 28.8159091,
                "pitch": 66,
                "velocity": 32,
                "duration": 2.1590909,
                "tempo": 120.0
            },
            {
                "start_time": 28.8159091,
                "end_time": 29.0318182,
                "pitch": 55,
                "velocity": 32,
                "duration": 0.2159091,
                "tempo": 120.0
            },
            {
                "start_time": 29.0840909,
                "end_time": 29.1659091,
                "pitch": 59,
                "velocity": 32,
                "duration": 0.0818182,
                "tempo": 120.0
            },
            {
                "start_time": 29.0840909,
                "end_time": 29.4318182,
                "pitch": 55,
                "velocity": 32,
                "duration": 0.3477273,
                "tempo": 120.0
            },
            {
                "start_time": 29.35,
                "end_time": 29.4318182,
                "pitch": 55,
                "velocity": 32,
                "duration": 0.0818182,
                "tempo": 120.0
            },
            {
                "start_time": 29.6181818,
                "end_time": 29.7022727,
                "pitch": 55,
                "velocity": 32,
                "duration": 0.0840909,
                "tempo": 120.0
            },
            {
                "start_time": 29.7545455,
                "end_time": 30.1090909,
                "pitch": 57,
                "velocity": 32,
                "duration": 0.3545455,
                "tempo": 120.0
            },
            {
                "start_time": 30.2977273,
                "end_time": 30.3818182,
                "pitch": 50,
                "velocity": 32,
                "duration": 0.0840909,
                "tempo": 120.0
            },
            {
                "start_time": 30.4340909,
                "end_time": 30.5181818,
                "pitch": 45,
                "velocity": 32,
                "duration": 0.0840909,
                "tempo": 120.0
            },
            {
                "start_time": 28.0022727,
                "end_time": 30.7068182,
                "pitch": 19,
                "velocity": 32,
                "duration": 2.7045455,
                "tempo": 120.0
            },
            {
                "start_time": 30.7068182,
                "end_time": 30.7909091,
                "pitch": 50,
                "velocity": 32,
                "duration": 0.0840909,
                "tempo": 120.0
            },
            {
                "start_time": 30.975,
                "end_time": 31.0568182,
                "pitch": 50,
                "velocity": 32,
                "duration": 0.0818182,
                "tempo": 120.0
            },
            {
                "start_time": 31.2431818,
                "end_time": 31.325,
                "pitch": 52,
                "velocity": 32,
                "duration": 0.0818182,
                "tempo": 120.0
            },
            {
                "start_time": 31.7795455,
                "end_time": 31.8613636,
                "pitch": 54,
                "velocity": 32,
                "duration": 0.0818182,
                "tempo": 120.0
            },
            {
                "start_time": 31.9136364,
                "end_time": 32.2704545,
                "pitch": 52,
                "velocity": 32,
                "duration": 0.3568182,
                "tempo": 120.0
            },
            {
                "start_time": 32.3227273,
                "end_time": 32.4045455,
                "pitch": 50,
                "velocity": 32,
                "duration": 0.0818182,
                "tempo": 120.0
            },
            {
                "start_time": 32.4545455,
                "end_time": 32.5386364,
                "pitch": 50,
                "velocity": 32,
                "duration": 0.0840909,
                "tempo": 120.0
            },
            {
                "start_time": 30.4340909,
                "end_time": 32.5886364,
                "pitch": 53,
                "velocity": 32,
                "duration": 2.1545455,
                "tempo": 120.0
            },
            {
                "start_time": 32.5886364,
                "end_time": 32.6727273,
                "pitch": 45,
                "velocity": 32,
                "duration": 0.0840909,
                "tempo": 120.0
            },
            {
                "start_time": 30.7068182,
                "end_time": 32.8568182,
                "pitch": 19,
                "velocity": 32,
                "duration": 2.15,
                "tempo": 120.0
            },
            {
                "start_time": 32.8568182,
                "end_time": 32.9409091,
                "pitch": 50,
                "velocity": 32,
                "duration": 0.0840909,
                "tempo": 120.0
            },
            {
                "start_time": 33.125,
                "end_time": 33.2068182,
                "pitch": 50,
                "velocity": 32,
                "duration": 0.0818182,
                "tempo": 120.0
            },
            {
                "start_time": 33.3931818,
                "end_time": 33.4772727,
                "pitch": 52,
                "velocity": 32,
                "duration": 0.0840909,
                "tempo": 120.0
            },
            {
                "start_time": 33.9363636,
                "end_time": 34.0204545,
                "pitch": 55,
                "velocity": 32,
                "duration": 0.0840909,
                "tempo": 120.0
            },
            {
                "start_time": 32.3227273,
                "end_time": 34.3386364,
                "pitch": 54,
                "velocity": 32,
                "duration": 2.0159091,
                "tempo": 120.0
            },
            {
                "start_time": 34.3386364,
                "end_time": 34.4204545,
                "pitch": 50,
                "velocity": 32,
                "duration": 0.0818182,
                "tempo": 120.0
            },
            {
                "start_time": 34.4727273,
                "end_time": 34.5568182,
                "pitch": 50,
                "velocity": 32,
                "duration": 0.0840909,
                "tempo": 120.0
            },
            {
                "start_time": 34.6090909,
                "end_time": 34.6931818,
                "pitch": 52,
                "velocity": 32,
                "duration": 0.0840909,
                "tempo": 120.0
            },
            {
                "start_time": 34.7454545,
                "end_time": 34.8272727,
                "pitch": 52,
                "velocity": 32,
                "duration": 0.0818182,
                "tempo": 120.0
            },
            {
                "start_time": 35.0181818,
                "end_time": 35.1,
                "pitch": 50,
                "velocity": 32,
                "duration": 0.0818182,
                "tempo": 120.0
            },
            {
                "start_time": 28.8159091,
                "end_time": 35.2840909,
                "pitch": 66,
                "velocity": 32,
                "duration": 6.4681818,
                "tempo": 120.0
            },
            {
                "start_time": 35.2840909,
                "end_time": 35.5,
                "pitch": 55,
                "velocity": 32,
                "duration": 0.2159091,
                "tempo": 120.0
            },
            {
                "start_time": 35.5545455,
                "end_time": 35.6340909,
                "pitch": 55,
                "velocity": 32,
                "duration": 0.0795455,
                "tempo": 120.0
            },
            {
                "start_time": 36.0886364,
                "end_time": 36.1704545,
                "pitch": 57,
                "velocity": 32,
                "duration": 0.0818182,
                "tempo": 120.0
            },
            {
                "start_time": 36.2227273,
                "end_time": 36.5795455,
                "pitch": 55,
                "velocity": 32,
                "duration": 0.3568182,
                "tempo": 120.0
            },
            {
                "start_time": 32.8568182,
                "end_time": 36.6318182,
                "pitch": 19,
                "velocity": 32,
                "duration": 3.775,
                "tempo": 120.0
            },
            {
                "start_time": 36.6318182,
                "end_time": 36.7159091,
                "pitch": 52,
                "velocity": 32,
                "duration": 0.0840909,
                "tempo": 120.0
            },
            {
                "start_time": 36.7681818,
                "end_time": 36.8522727,
                "pitch": 52,
                "velocity": 32,
                "duration": 0.0840909,
                "tempo": 120.0
            },
            {
                "start_time": 36.9045455,
                "end_time": 36.9886364,
                "pitch": 52,
                "velocity": 32,
                "duration": 0.0840909,
                "tempo": 120.0
            },
            {
                "start_time": 37.1772727,
                "end_time": 37.2568182,
                "pitch": 50,
                "velocity": 32,
                "duration": 0.0795455,
                "tempo": 120.0
            },
            {
                "start_time": 35.2840909,
                "end_time": 37.4386364,
                "pitch": 66,
                "velocity": 32,
                "duration": 2.1545455,
                "tempo": 120.0
            },
            {
                "start_time": 37.4386364,
                "end_time": 37.6522727,
                "pitch": 55,
                "velocity": 32,
                "duration": 0.2136364,
                "tempo": 120.0
            },
            {
                "start_time": 29.35,
                "end_time": 37.7863636,
                "pitch": 59,
                "velocity": 32,
                "duration": 8.4363636,
                "tempo": 120.0
            },
            {
                "start_time": 37.7045455,
                "end_time": 37.7863636,
                "pitch": 59,
                "velocity": 32,
                "duration": 0.0818182,
                "tempo": 120.0
            },
            {
                "start_time": 37.7045455,
                "end_time": 38.0590909,
                "pitch": 55,
                "velocity": 32,
                "duration": 0.3545455,
                "tempo": 120.0
            },
            {
                "start_time": 37.975,
                "end_time": 38.0590909,
                "pitch": 55,
                "velocity": 32,
                "duration": 0.0840909,
                "tempo": 120.0
            },
            {
                "start_time": 38.2477273,
                "end_time": 38.3318182,
                "pitch": 55,
                "velocity": 32,
                "duration": 0.0840909,
                "tempo": 120.0
            },
            {
                "start_time": 38.3840909,
                "end_time": 38.7386364,
                "pitch": 57,
                "velocity": 32,
                "duration": 0.3545455,
                "tempo": 120.0
            },
            {
                "start_time": 38.925,
                "end_time": 39.0068182,
                "pitch": 50,
                "velocity": 32,
                "duration": 0.0818182,
                "tempo": 120.0
            },
            {
                "start_time": 32.5886364,
                "end_time": 39.0590909,
                "pitch": 53,
                "velocity": 32,
                "duration": 6.4704545,
                "tempo": 120.0
            },
            {
                "start_time": 39.0590909,
                "end_time": 39.1409091,
                "pitch": 45,
                "velocity": 32,
                "duration": 0.0818182,
                "tempo": 120.0
            },
            {
                "start_time": 36.6318182,
                "end_time": 39.3272727,
                "pitch": 19,
                "velocity": 32,
                "duration": 2.6954545,
                "tempo": 120.0
            },
            {
                "start_time": 39.3272727,
                "end_time": 39.4090909,
                "pitch": 50,
                "velocity": 32,
                "duration": 0.0818182,
                "tempo": 120.0
            },
            {
                "start_time": 39.5954545,
                "end_time": 39.6772727,
                "pitch": 50,
                "velocity": 32,
                "duration": 0.0818182,
                "tempo": 120.0
            },
            {
                "start_time": 39.8613636,
                "end_time": 39.9454545,
                "pitch": 52,
                "velocity": 32,
                "duration": 0.0840909,
                "tempo": 120.0
            },
            {
                "start_time": 34.3386364,
                "end_time": 40.4886364,
                "pitch": 54,
                "velocity": 32,
                "duration": 6.15,
                "tempo": 120.0
            },
            {
                "start_time": 40.4090909,
                "end_time": 40.4886364,
                "pitch": 54,
                "velocity": 32,
                "duration": 0.0795455,
                "tempo": 120.0
            },
            {
                "start_time": 40.5409091,
                "end_time": 40.8909091,
                "pitch": 52,
                "velocity": 32,
                "duration": 0.35,
                "tempo": 120.0
            },
            {
                "start_time": 40.9409091,
                "end_time": 41.025,
                "pitch": 50,
                "velocity": 32,
                "duration": 0.0840909,
                "tempo": 120.0
            },
            {
                "start_time": 41.0772727,
                "end_time": 41.1613636,
                "pitch": 50,
                "velocity": 32,
                "duration": 0.0840909,
                "tempo": 120.0
            },
            {
                "start_time": 39.0590909,
                "end_time": 41.2136364,
                "pitch": 53,
                "velocity": 32,
                "duration": 2.1545455,
                "tempo": 120.0
            },
            {
                "start_time": 41.2136364,
                "end_time": 41.2977273,
                "pitch": 45,
                "velocity": 32,
                "duration": 0.0840909,
                "tempo": 120.0
            },
            {
                "start_time": 39.3272727,
                "end_time": 41.4863636,
                "pitch": 19,
                "velocity": 32,
                "duration": 2.1590909,
                "tempo": 120.0
            },
            {
                "start_time": 41.4863636,
                "end_time": 41.5681818,
                "pitch": 50,
                "velocity": 32,
                "duration": 0.0818182,
                "tempo": 120.0
            },
            {
                "start_time": 41.7545455,
                "end_time": 41.8363636,
                "pitch": 50,
                "velocity": 32,
                "duration": 0.0818182,
                "tempo": 120.0
            },
            {
                "start_time": 42.0227273,
                "end_time": 42.1045455,
                "pitch": 52,
                "velocity": 32,
                "duration": 0.0818182,
                "tempo": 120.0
            },
            {
                "start_time": 33.9363636,
                "end_time": 42.5590909,
                "pitch": 67,
                "velocity": 32,
                "duration": 8.6227273,
                "tempo": 120.0
            },
            {
                "start_time": 42.5590909,
                "end_time": 42.6409091,
                "pitch": 55,
                "velocity": 32,
                "duration": 0.0818182,
                "tempo": 120.0
            },
            {
                "start_time": 40.9409091,
                "end_time": 42.9636364,
                "pitch": 54,
                "velocity": 32,
                "duration": 2.0227273,
                "tempo": 120.0
            },
            {
                "start_time": 42.9636364,
                "end_time": 43.05,
                "pitch": 50,
                "velocity": 32,
                "duration": 0.0863636,
                "tempo": 120.0
            },
            {
                "start_time": 43.1045455,
                "end_time": 43.3204545,
                "pitch": 48,
                "velocity": 32,
                "duration": 0.2159091,
                "tempo": 120.0
            },
            {
                "start_time": 43.375,
                "end_time": 43.5931818,
                "pitch": 48,
                "velocity": 32,
                "duration": 0.2181818,
                "tempo": 120.0
            },
            {
                "start_time": 43.6477273,
                "end_time": 43.8636364,
                "pitch": 48,
                "velocity": 32,
                "duration": 0.2159091,
                "tempo": 120.0
            },
            {
                "start_time": 43.9136364,
                "end_time": 44.1295455,
                "pitch": 48,
                "velocity": 32,
                "duration": 0.2159091,
                "tempo": 120.0
            },
            {
                "start_time": 44.1818182,
                "end_time": 44.4022727,
                "pitch": 48,
                "velocity": 32,
                "duration": 0.2204545,
                "tempo": 120.0
            },
            {
                "start_time": 44.4545455,
                "end_time": 44.6727273,
                "pitch": 48,
                "velocity": 32,
                "duration": 0.2181818,
                "tempo": 120.0
            },
            {
                "start_time": 44.7272727,
                "end_time": 44.9431818,
                "pitch": 48,
                "velocity": 32,
                "duration": 0.2159091,
                "tempo": 120.0
            },
            {
                "start_time": 44.9954545,
                "end_time": 45.4772727,
                "pitch": 48,
                "velocity": 32,
                "duration": 0.4818182,
                "tempo": 120.0
            },
            {
                "start_time": 45.5295455,
                "end_time": 45.7454545,
                "pitch": 48,
                "velocity": 32,
                "duration": 0.2159091,
                "tempo": 120.0
            },
            {
                "start_time": 45.7977273,
                "end_time": 46.0136364,
                "pitch": 48,
                "velocity": 32,
                "duration": 0.2159091,
                "tempo": 120.0
            },
            {
                "start_time": 46.0636364,
                "end_time": 46.2795455,
                "pitch": 48,
                "velocity": 32,
                "duration": 0.2159091,
                "tempo": 120.0
            },
            {
                "start_time": 46.3318182,
                "end_time": 46.5522727,
                "pitch": 48,
                "velocity": 32,
                "duration": 0.2204545,
                "tempo": 120.0
            },
            {
                "start_time": 46.6045455,
                "end_time": 46.8227273,
                "pitch": 48,
                "velocity": 32,
                "duration": 0.2181818,
                "tempo": 120.0
            },
            {
                "start_time": 46.8772727,
                "end_time": 47.0931818,
                "pitch": 48,
                "velocity": 32,
                "duration": 0.2159091,
                "tempo": 120.0
            },
            {
                "start_time": 47.1454545,
                "end_time": 47.6318182,
                "pitch": 52,
                "velocity": 32,
                "duration": 0.4863636,
                "tempo": 120.0
            },
            {
                "start_time": 47.6840909,
                "end_time": 47.9045455,
                "pitch": 52,
                "velocity": 32,
                "duration": 0.2204545,
                "tempo": 120.0
            },
            {
                "start_time": 47.9568182,
                "end_time": 48.1727273,
                "pitch": 52,
                "velocity": 32,
                "duration": 0.2159091,
                "tempo": 120.0
            },
            {
                "start_time": 48.225,
                "end_time": 48.4386364,
                "pitch": 52,
                "velocity": 32,
                "duration": 0.2136364,
                "tempo": 120.0
            },
            {
                "start_time": 48.4909091,
                "end_time": 48.7113636,
                "pitch": 52,
                "velocity": 32,
                "duration": 0.2204545,
                "tempo": 120.0
            },
            {
                "start_time": 48.7636364,
                "end_time": 48.9840909,
                "pitch": 52,
                "velocity": 32,
                "duration": 0.2204545,
                "tempo": 120.0
            },
            {
                "start_time": 49.0363636,
                "end_time": 49.2522727,
                "pitch": 52,
                "velocity": 32,
                "duration": 0.2159091,
                "tempo": 120.0
            },
            {
                "start_time": 49.3045455,
                "end_time": 49.7863636,
                "pitch": 52,
                "velocity": 32,
                "duration": 0.4818182,
                "tempo": 120.0
            },
            {
                "start_time": 49.8386364,
                "end_time": 50.0545455,
                "pitch": 52,
                "velocity": 32,
                "duration": 0.2159091,
                "tempo": 120.0
            },
            {
                "start_time": 50.1068182,
                "end_time": 50.3227273,
                "pitch": 52,
                "velocity": 32,
                "duration": 0.2159091,
                "tempo": 120.0
            },
            {
                "start_time": 50.3727273,
                "end_time": 50.5909091,
                "pitch": 52,
                "velocity": 32,
                "duration": 0.2181818,
                "tempo": 120.0
            },
            {
                "start_time": 50.6409091,
                "end_time": 50.8613636,
                "pitch": 52,
                "velocity": 32,
                "duration": 0.2204545,
                "tempo": 120.0
            },
            {
                "start_time": 50.9159091,
                "end_time": 51.1340909,
                "pitch": 52,
                "velocity": 32,
                "duration": 0.2181818,
                "tempo": 120.0
            },
            {
                "start_time": 51.1886364,
                "end_time": 51.4068182,
                "pitch": 52,
                "velocity": 32,
                "duration": 0.2181818,
                "tempo": 120.0
            },
            {
                "start_time": 43.1045455,
                "end_time": 51.4590909,
                "pitch": 50,
                "velocity": 32,
                "duration": 8.3545455,
                "tempo": 120.0
            },
            {
                "start_time": 47.1454545,
                "end_time": 51.9477273,
                "pitch": 48,
                "velocity": 32,
                "duration": 4.8022727,
                "tempo": 120.0
            },
            {
                "start_time": 51.4590909,
                "end_time": 51.9477273,
                "pitch": 48,
                "velocity": 32,
                "duration": 0.4886364,
                "tempo": 120.0
            },
            {
                "start_time": 52.0,
                "end_time": 52.2136364,
                "pitch": 48,
                "velocity": 32,
                "duration": 0.2136364,
                "tempo": 120.0
            },
            {
                "start_time": 52.2659091,
                "end_time": 52.4818182,
                "pitch": 48,
                "velocity": 32,
                "duration": 0.2159091,
                "tempo": 120.0
            },
            {
                "start_time": 52.5340909,
                "end_time": 52.75,
                "pitch": 48,
                "velocity": 32,
                "duration": 0.2159091,
                "tempo": 120.0
            },
            {
                "start_time": 52.8022727,
                "end_time": 53.0204545,
                "pitch": 48,
                "velocity": 32,
                "duration": 0.2181818,
                "tempo": 120.0
            },
            {
                "start_time": 53.075,
                "end_time": 53.2931818,
                "pitch": 48,
                "velocity": 32,
                "duration": 0.2181818,
                "tempo": 120.0
            },
            {
                "start_time": 53.3477273,
                "end_time": 53.5613636,
                "pitch": 48,
                "velocity": 32,
                "duration": 0.2136364,
                "tempo": 120.0
            },
            {
                "start_time": 53.6159091,
                "end_time": 53.6954545,
                "pitch": 47,
                "velocity": 32,
                "duration": 0.0795455,
                "tempo": 120.0
            },
            {
                "start_time": 53.7477273,
                "end_time": 54.0977273,
                "pitch": 47,
                "velocity": 32,
                "duration": 0.35,
                "tempo": 120.0
            },
            {
                "start_time": 54.15,
                "end_time": 54.3636364,
                "pitch": 46,
                "velocity": 32,
                "duration": 0.2136364,
                "tempo": 120.0
            },
            {
                "start_time": 54.4159091,
                "end_time": 54.6363636,
                "pitch": 46,
                "velocity": 32,
                "duration": 0.2204545,
                "tempo": 120.0
            },
            {
                "start_time": 54.6886364,
                "end_time": 54.9090909,
                "pitch": 46,
                "velocity": 32,
                "duration": 0.2204545,
                "tempo": 120.0
            },
            {
                "start_time": 54.9613636,
                "end_time": 55.1795455,
                "pitch": 46,
                "velocity": 32,
                "duration": 0.2181818,
                "tempo": 120.0
            },
            {
                "start_time": 55.2340909,
                "end_time": 55.4522727,
                "pitch": 46,
                "velocity": 32,
                "duration": 0.2181818,
                "tempo": 120.0
            },
            {
                "start_time": 55.5068182,
                "end_time": 55.7204545,
                "pitch": 46,
                "velocity": 32,
                "duration": 0.2136364,
                "tempo": 120.0
            },
            {
                "start_time": 55.775,
                "end_time": 56.2568182,
                "pitch": 46,
                "velocity": 32,
                "duration": 0.4818182,
                "tempo": 120.0
            },
            {
                "start_time": 56.3090909,
                "end_time": 56.525,
                "pitch": 47,
                "velocity": 32,
                "duration": 0.2159091,
                "tempo": 120.0
            },
            {
                "start_time": 56.5772727,
                "end_time": 56.7909091,
                "pitch": 47,
                "velocity": 32,
                "duration": 0.2136364,
                "tempo": 120.0
            },
            {
                "start_time": 56.8431818,
                "end_time": 57.3295455,
                "pitch": 47,
                "velocity": 32,
                "duration": 0.4863636,
                "tempo": 120.0
            },
            {
                "start_time": 57.3840909,
                "end_time": 57.6022727,
                "pitch": 47,
                "velocity": 32,
                "duration": 0.2181818,
                "tempo": 120.0
            },
            {
                "start_time": 57.6568182,
                "end_time": 57.875,
                "pitch": 47,
                "velocity": 32,
                "duration": 0.2181818,
                "tempo": 120.0
            },
            {
                "start_time": 57.9295455,
                "end_time": 58.1477273,
                "pitch": 47,
                "velocity": 32,
                "duration": 0.2181818,
                "tempo": 120.0
            },
            {
                "start_time": 58.2022727,
                "end_time": 58.4159091,
                "pitch": 47,
                "velocity": 32,
                "duration": 0.2136364,
                "tempo": 120.0
            },
            {
                "start_time": 59.5386364,
                "end_time": 60.2977273,
                "pitch": 47,
                "velocity": 32,
                "duration": 0.7590909,
                "tempo": 120.0
            },
            {
                "start_time": 53.6159091,
                "end_time": 60.4318182,
                "pitch": 52,
                "velocity": 32,
                "duration": 6.8159091,
                "tempo": 120.0
            },
            {
                "start_time": 60.3545455,
                "end_time": 60.4318182,
                "pitch": 52,
                "velocity": 32,
                "duration": 0.0772727,
                "tempo": 120.0
            },
            {
                "start_time": 60.4840909,
                "end_time": 60.5659091,
                "pitch": 52,
                "velocity": 32,
                "duration": 0.0818182,
                "tempo": 120.0
            },
            {
                "start_time": 60.6181818,
                "end_time": 60.7,
                "pitch": 52,
                "velocity": 32,
                "duration": 0.0818182,
                "tempo": 120.0
            },
            {
                "start_time": 51.4590909,
                "end_time": 60.9681818,
                "pitch": 50,
                "velocity": 32,
                "duration": 9.5090909,
                "tempo": 120.0
            },
            {
                "start_time": 60.8840909,
                "end_time": 60.9681818,
                "pitch": 50,
                "velocity": 32,
                "duration": 0.0840909,
                "tempo": 120.0
            },
            {
                "start_time": 37.4386364,
                "end_time": 61.1522727,
                "pitch": 66,
                "velocity": 32,
                "duration": 23.7136364,
                "tempo": 120.0
            },
            {
                "start_time": 61.1522727,
                "end_time": 61.3681818,
                "pitch": 55,
                "velocity": 32,
                "duration": 0.2159091,
                "tempo": 120.0
            },
            {
                "start_time": 61.4227273,
                "end_time": 61.5045455,
                "pitch": 55,
                "velocity": 32,
                "duration": 0.0818182,
                "tempo": 120.0
            },
            {
                "start_time": 61.9659091,
                "end_time": 62.0477273,
                "pitch": 57,
                "velocity": 32,
                "duration": 0.0818182,
                "tempo": 120.0
            },
            {
                "start_time": 62.0977273,
                "end_time": 62.4477273,
                "pitch": 55,
                "velocity": 32,
                "duration": 0.35,
                "tempo": 120.0
            },
            {
                "start_time": 41.4863636,
                "end_time": 62.5,
                "pitch": 19,
                "velocity": 32,
                "duration": 21.0136364,
                "tempo": 120.0
            },
            {
                "start_time": 62.5,
                "end_time": 62.5840909,
                "pitch": 52,
                "velocity": 32,
                "duration": 0.0840909,
                "tempo": 120.0
            },
            {
                "start_time": 62.6363636,
                "end_time": 62.7204545,
                "pitch": 52,
                "velocity": 32,
                "duration": 0.0840909,
                "tempo": 120.0
            },
            {
                "start_time": 62.7727273,
                "end_time": 62.8568182,
                "pitch": 52,
                "velocity": 32,
                "duration": 0.0840909,
                "tempo": 120.0
            },
            {
                "start_time": 63.0454545,
                "end_time": 63.1272727,
                "pitch": 50,
                "velocity": 32,
                "duration": 0.0818182,
                "tempo": 120.0
            },
            {
                "start_time": 61.1522727,
                "end_time": 63.3113636,
                "pitch": 66,
                "velocity": 32,
                "duration": 2.1590909,
                "tempo": 120.0
            },
            {
                "start_time": 63.3113636,
                "end_time": 63.5295455,
                "pitch": 55,
                "velocity": 32,
                "duration": 0.2181818,
                "tempo": 120.0
            },
            {
                "start_time": 37.975,
                "end_time": 63.6613636,
                "pitch": 59,
                "velocity": 32,
                "duration": 25.6863636,
                "tempo": 120.0
            },
            {
                "start_time": 63.5818182,
                "end_time": 63.6613636,
                "pitch": 59,
                "velocity": 32,
                "duration": 0.0795455,
                "tempo": 120.0
            },
            {
                "start_time": 63.5818182,
                "end_time": 63.9295455,
                "pitch": 55,
                "velocity": 32,
                "duration": 0.3477273,
                "tempo": 120.0
            },
            {
                "start_time": 63.8477273,
                "end_time": 63.9295455,
                "pitch": 55,
                "velocity": 32,
                "duration": 0.0818182,
                "tempo": 120.0
            },
            {
                "start_time": 64.1159091,
                "end_time": 64.1977273,
                "pitch": 55,
                "velocity": 32,
                "duration": 0.0818182,
                "tempo": 120.0
            },
            {
                "start_time": 64.25,
                "end_time": 64.6068182,
                "pitch": 57,
                "velocity": 32,
                "duration": 0.3568182,
                "tempo": 120.0
            },
            {
                "start_time": 64.7954545,
                "end_time": 64.8795455,
                "pitch": 50,
                "velocity": 32,
                "duration": 0.0840909,
                "tempo": 120.0
            },
            {
                "start_time": 41.2136364,
                "end_time": 64.9318182,
                "pitch": 53,
                "velocity": 32,
                "duration": 23.7181818,
                "tempo": 120.0
            },
            {
                "start_time": 64.9318182,
                "end_time": 65.0159091,
                "pitch": 45,
                "velocity": 32,
                "duration": 0.0840909,
                "tempo": 120.0
            },
            {
                "start_time": 62.5,
                "end_time": 65.2045455,
                "pitch": 19,
                "velocity": 32,
                "duration": 2.7045455,
                "tempo": 120.0
            },
            {
                "start_time": 65.2045455,
                "end_time": 65.2863636,
                "pitch": 50,
                "velocity": 32,
                "duration": 0.0818182,
                "tempo": 120.0
            },
            {
                "start_time": 65.4704545,
                "end_time": 65.5545455,
                "pitch": 50,
                "velocity": 32,
                "duration": 0.0840909,
                "tempo": 120.0
            },
            {
                "start_time": 65.7386364,
                "end_time": 65.8227273,
                "pitch": 52,
                "velocity": 32,
                "duration": 0.0840909,
                "tempo": 120.0
            },
            {
                "start_time": 42.9636364,
                "end_time": 66.3568182,
                "pitch": 54,
                "velocity": 32,
                "duration": 23.3931818,
                "tempo": 120.0
            },
            {
                "start_time": 66.275,
                "end_time": 66.3568182,
                "pitch": 54,
                "velocity": 32,
                "duration": 0.0818182,
                "tempo": 120.0
            },
            {
                "start_time": 66.4090909,
                "end_time": 66.7590909,
                "pitch": 52,
                "velocity": 32,
                "duration": 0.35,
                "tempo": 120.0
            },
            {
                "start_time": 66.8090909,
                "end_time": 66.8931818,
                "pitch": 50,
                "velocity": 32,
                "duration": 0.0840909,
                "tempo": 120.0
            },
            {
                "start_time": 66.9454545,
                "end_time": 67.0295455,
                "pitch": 50,
                "velocity": 32,
                "duration": 0.0840909,
                "tempo": 120.0
            },
            {
                "start_time": 64.9318182,
                "end_time": 67.0818182,
                "pitch": 53,
                "velocity": 32,
                "duration": 2.15,
                "tempo": 120.0
            },
            {
                "start_time": 67.0818182,
                "end_time": 67.1659091,
                "pitch": 45,
                "velocity": 32,
                "duration": 0.0840909,
                "tempo": 120.0
            },
            {
                "start_time": 65.2045455,
                "end_time": 67.3545455,
                "pitch": 19,
                "velocity": 32,
                "duration": 2.15,
                "tempo": 120.0
            },
            {
                "start_time": 67.3545455,
                "end_time": 67.4363636,
                "pitch": 50,
                "velocity": 32,
                "duration": 0.0818182,
                "tempo": 120.0
            },
            {
                "start_time": 67.6204545,
                "end_time": 67.7045455,
                "pitch": 50,
                "velocity": 32,
                "duration": 0.0840909,
                "tempo": 120.0
            },
            {
                "start_time": 67.8909091,
                "end_time": 67.9727273,
                "pitch": 52,
                "velocity": 32,
                "duration": 0.0818182,
                "tempo": 120.0
            },
            {
                "start_time": 42.5590909,
                "end_time": 68.4340909,
                "pitch": 67,
                "velocity": 32,
                "duration": 25.875,
                "tempo": 120.0
            },
            {
                "start_time": 68.4340909,
                "end_time": 68.5159091,
                "pitch": 55,
                "velocity": 32,
                "duration": 0.0818182,
                "tempo": 120.0
            },
            {
                "start_time": 66.8090909,
                "end_time": 68.8363636,
                "pitch": 54,
                "velocity": 32,
                "duration": 2.0272727,
                "tempo": 120.0
            },
            {
                "start_time": 68.8363636,
                "end_time": 68.9181818,
                "pitch": 50,
                "velocity": 32,
                "duration": 0.0818182,
                "tempo": 120.0
            },
            {
                "start_time": 68.9704545,
                "end_time": 69.0522727,
                "pitch": 50,
                "velocity": 32,
                "duration": 0.0818182,
                "tempo": 120.0
            },
            {
                "start_time": 69.1045455,
                "end_time": 69.1886364,
                "pitch": 52,
                "velocity": 32,
                "duration": 0.0840909,
                "tempo": 120.0
            },
            {
                "start_time": 69.2409091,
                "end_time": 69.325,
                "pitch": 52,
                "velocity": 32,
                "duration": 0.0840909,
                "tempo": 120.0
            },
            {
                "start_time": 69.5136364,
                "end_time": 69.5954545,
                "pitch": 50,
                "velocity": 32,
                "duration": 0.0818182,
                "tempo": 120.0
            },
            {
                "start_time": 63.3113636,
                "end_time": 69.7818182,
                "pitch": 66,
                "velocity": 32,
                "duration": 6.4704545,
                "tempo": 120.0
            },
            {
                "start_time": 69.7818182,
                "end_time": 69.9977273,
                "pitch": 55,
                "velocity": 32,
                "duration": 0.2159091,
                "tempo": 120.0
            },
            {
                "start_time": 70.05,
                "end_time": 70.1318182,
                "pitch": 55,
                "velocity": 32,
                "duration": 0.0818182,
                "tempo": 120.0
            },
            {
                "start_time": 70.5840909,
                "end_time": 70.6681818,
                "pitch": 57,
                "velocity": 32,
                "duration": 0.0840909,
                "tempo": 120.0
            },
            {
                "start_time": 70.7204545,
                "end_time": 71.0772727,
                "pitch": 55,
                "velocity": 32,
                "duration": 0.3568182,
                "tempo": 120.0
            },
            {
                "start_time": 67.3545455,
                "end_time": 71.1295455,
                "pitch": 19,
                "velocity": 32,
                "duration": 3.775,
                "tempo": 120.0
            },
            {
                "start_time": 71.1272727,
                "end_time": 71.1295455,
                "pitch": 19,
                "velocity": 32,
                "duration": 0.0022727,
                "tempo": 120.0
            },
            {
                "start_time": 71.1295455,
                "end_time": 71.2113636,
                "pitch": 52,
                "velocity": 32,
                "duration": 0.0818182,
                "tempo": 120.0
            },
            {
                "start_time": 71.2613636,
                "end_time": 71.3454545,
                "pitch": 52,
                "velocity": 32,
                "duration": 0.0840909,
                "tempo": 120.0
            },
            {
                "start_time": 71.3954545,
                "end_time": 71.4795455,
                "pitch": 52,
                "velocity": 32,
                "duration": 0.0840909,
                "tempo": 120.0
            },
            {
                "start_time": 71.6636364,
                "end_time": 71.7454545,
                "pitch": 50,
                "velocity": 32,
                "duration": 0.0818182,
                "tempo": 120.0
            },
            {
                "start_time": 69.7818182,
                "end_time": 71.9318182,
                "pitch": 66,
                "velocity": 32,
                "duration": 2.15,
                "tempo": 120.0
            },
            {
                "start_time": 71.9318182,
                "end_time": 72.1477273,
                "pitch": 55,
                "velocity": 32,
                "duration": 0.2159091,
                "tempo": 120.0
            },
            {
                "start_time": 63.8477273,
                "end_time": 72.2818182,
                "pitch": 59,
                "velocity": 32,
                "duration": 8.4340909,
                "tempo": 120.0
            },
            {
                "start_time": 72.2022727,
                "end_time": 72.2818182,
                "pitch": 59,
                "velocity": 32,
                "duration": 0.0795455,
                "tempo": 120.0
            },
            {
                "start_time": 72.2022727,
                "end_time": 72.5545455,
                "pitch": 55,
                "velocity": 32,
                "duration": 0.3522727,
                "tempo": 120.0
            },
            {
                "start_time": 72.4704545,
                "end_time": 72.5545455,
                "pitch": 55,
                "velocity": 32,
                "duration": 0.0840909,
                "tempo": 120.0
            },
            {
                "start_time": 72.7454545,
                "end_time": 72.8272727,
                "pitch": 55,
                "velocity": 32,
                "duration": 0.0818182,
                "tempo": 120.0
            },
            {
                "start_time": 72.8795455,
                "end_time": 73.2363636,
                "pitch": 57,
                "velocity": 32,
                "duration": 0.3568182,
                "tempo": 120.0
            },
            {
                "start_time": 73.4227273,
                "end_time": 73.5045455,
                "pitch": 50,
                "velocity": 32,
                "duration": 0.0818182,
                "tempo": 120.0
            },
            {
                "start_time": 67.0818182,
                "end_time": 73.5545455,
                "pitch": 53,
                "velocity": 32,
                "duration": 6.4727273,
                "tempo": 120.0
            },
            {
                "start_time": 73.5545455,
                "end_time": 73.6386364,
                "pitch": 45,
                "velocity": 32,
                "duration": 0.0840909,
                "tempo": 120.0
            },
            {
                "start_time": 73.8227273,
                "end_time": 73.9068182,
                "pitch": 50,
                "velocity": 32,
                "duration": 0.0840909,
                "tempo": 120.0
            },
            {
                "start_time": 74.0909091,
                "end_time": 74.1727273,
                "pitch": 50,
                "velocity": 32,
                "duration": 0.0818182,
                "tempo": 120.0
            },
            {
                "start_time": 74.3590909,
                "end_time": 74.4431818,
                "pitch": 52,
                "velocity": 32,
                "duration": 0.0840909,
                "tempo": 120.0
            },
            {
                "start_time": 68.8363636,
                "end_time": 74.9863636,
                "pitch": 54,
                "velocity": 32,
                "duration": 6.15,
                "tempo": 120.0
            },
            {
                "start_time": 74.9045455,
                "end_time": 74.9863636,
                "pitch": 54,
                "velocity": 32,
                "duration": 0.0818182,
                "tempo": 120.0
            },
            {
                "start_time": 75.0363636,
                "end_time": 75.3863636,
                "pitch": 52,
                "velocity": 32,
                "duration": 0.35,
                "tempo": 120.0
            },
            {
                "start_time": 75.4386364,
                "end_time": 75.5227273,
                "pitch": 50,
                "velocity": 32,
                "duration": 0.0840909,
                "tempo": 120.0
            },
            {
                "start_time": 75.575,
                "end_time": 75.6590909,
                "pitch": 50,
                "velocity": 32,
                "duration": 0.0840909,
                "tempo": 120.0
            },
            {
                "start_time": 73.5545455,
                "end_time": 75.7113636,
                "pitch": 53,
                "velocity": 32,
                "duration": 2.1568182,
                "tempo": 120.0
            },
            {
                "start_time": 75.7113636,
                "end_time": 75.7954545,
                "pitch": 45,
                "velocity": 32,
                "duration": 0.0840909,
                "tempo": 120.0
            },
            {
                "start_time": 73.8227273,
                "end_time": 75.9840909,
                "pitch": 19,
                "velocity": 32,
                "duration": 2.1613636,
                "tempo": 120.0
            },
            {
                "start_time": 75.9840909,
                "end_time": 76.0659091,
                "pitch": 50,
                "velocity": 32,
                "duration": 0.0818182,
                "tempo": 120.0
            },
            {
                "start_time": 76.25,
                "end_time": 76.3340909,
                "pitch": 50,
                "velocity": 32,
                "duration": 0.0840909,
                "tempo": 120.0
            },
            {
                "start_time": 76.5204545,
                "end_time": 76.6,
                "pitch": 52,
                "velocity": 32,
                "duration": 0.0795455,
                "tempo": 120.0
            },
            {
                "start_time": 68.4340909,
                "end_time": 77.0568182,
                "pitch": 67,
                "velocity": 32,
                "duration": 8.6227273,
                "tempo": 120.0
            },
            {
                "start_time": 77.0568182,
                "end_time": 77.1363636,
                "pitch": 55,
                "velocity": 32,
                "duration": 0.0795455,
                "tempo": 120.0
            },
            {
                "start_time": 75.4386364,
                "end_time": 77.4613636,
                "pitch": 54,
                "velocity": 32,
                "duration": 2.0227273,
                "tempo": 120.0
            },
            {
                "start_time": 77.4613636,
                "end_time": 77.5454545,
                "pitch": 50,
                "velocity": 32,
                "duration": 0.0840909,
                "tempo": 120.0
            },
            {
                "start_time": 77.6,
                "end_time": 77.8181818,
                "pitch": 48,
                "velocity": 32,
                "duration": 0.2181818,
                "tempo": 120.0
            },
            {
                "start_time": 77.8727273,
                "end_time": 78.0909091,
                "pitch": 48,
                "velocity": 32,
                "duration": 0.2181818,
                "tempo": 120.0
            },
            {
                "start_time": 78.1431818,
                "end_time": 78.3590909,
                "pitch": 48,
                "velocity": 32,
                "duration": 0.2159091,
                "tempo": 120.0
            },
            {
                "start_time": 78.4113636,
                "end_time": 78.6272727,
                "pitch": 48,
                "velocity": 32,
                "duration": 0.2159091,
                "tempo": 120.0
            },
            {
                "start_time": 78.6795455,
                "end_time": 78.8977273,
                "pitch": 48,
                "velocity": 32,
                "duration": 0.2181818,
                "tempo": 120.0
            },
            {
                "start_time": 78.9522727,
                "end_time": 79.1704545,
                "pitch": 48,
                "velocity": 32,
                "duration": 0.2181818,
                "tempo": 120.0
            },
            {
                "start_time": 79.225,
                "end_time": 79.4386364,
                "pitch": 48,
                "velocity": 32,
                "duration": 0.2136364,
                "tempo": 120.0
            },
            {
                "start_time": 79.4909091,
                "end_time": 79.975,
                "pitch": 48,
                "velocity": 32,
                "duration": 0.4840909,
                "tempo": 120.0
            },
            {
                "start_time": 80.0272727,
                "end_time": 80.2409091,
                "pitch": 48,
                "velocity": 32,
                "duration": 0.2136364,
                "tempo": 120.0
            },
            {
                "start_time": 80.2954545,
                "end_time": 80.5090909,
                "pitch": 48,
                "velocity": 32,
                "duration": 0.2136364,
                "tempo": 120.0
            },
            {
                "start_time": 80.5613636,
                "end_time": 80.7772727,
                "pitch": 48,
                "velocity": 32,
                "duration": 0.2159091,
                "tempo": 120.0
            },
            {
                "start_time": 80.8295455,
                "end_time": 81.0477273,
                "pitch": 48,
                "velocity": 32,
                "duration": 0.2181818,
                "tempo": 120.0
            },
            {
                "start_time": 81.1022727,
                "end_time": 81.3204545,
                "pitch": 48,
                "velocity": 32,
                "duration": 0.2181818,
                "tempo": 120.0
            },
            {
                "start_time": 81.375,
                "end_time": 81.5886364,
                "pitch": 48,
                "velocity": 32,
                "duration": 0.2136364,
                "tempo": 120.0
            },
            {
                "start_time": 81.6431818,
                "end_time": 82.1272727,
                "pitch": 52,
                "velocity": 32,
                "duration": 0.4840909,
                "tempo": 120.0
            },
            {
                "start_time": 82.1818182,
                "end_time": 82.4,
                "pitch": 52,
                "velocity": 32,
                "duration": 0.2181818,
                "tempo": 120.0
            },
            {
                "start_time": 82.4545455,
                "end_time": 82.6681818,
                "pitch": 52,
                "velocity": 32,
                "duration": 0.2136364,
                "tempo": 120.0
            },
            {
                "start_time": 82.7204545,
                "end_time": 82.9363636,
                "pitch": 52,
                "velocity": 32,
                "duration": 0.2159091,
                "tempo": 120.0
            },
            {
                "start_time": 82.9886364,
                "end_time": 83.2068182,
                "pitch": 52,
                "velocity": 32,
                "duration": 0.2181818,
                "tempo": 120.0
            },
            {
                "start_time": 83.2613636,
                "end_time": 83.4795455,
                "pitch": 52,
                "velocity": 32,
                "duration": 0.2181818,
                "tempo": 120.0
            },
            {
                "start_time": 83.5340909,
                "end_time": 83.7477273,
                "pitch": 52,
                "velocity": 32,
                "duration": 0.2136364,
                "tempo": 120.0
            },
            {
                "start_time": 83.8022727,
                "end_time": 84.2840909,
                "pitch": 52,
                "velocity": 32,
                "duration": 0.4818182,
                "tempo": 120.0
            },
            {
                "start_time": 84.3363636,
                "end_time": 84.5522727,
                "pitch": 52,
                "velocity": 32,
                "duration": 0.2159091,
                "tempo": 120.0
            },
            {
                "start_time": 84.6045455,
                "end_time": 84.8181818,
                "pitch": 52,
                "velocity": 32,
                "duration": 0.2136364,
                "tempo": 120.0
            },
            {
                "start_time": 84.8704545,
                "end_time": 85.0863636,
                "pitch": 52,
                "velocity": 32,
                "duration": 0.2159091,
                "tempo": 120.0
            },
            {
                "start_time": 85.1386364,
                "end_time": 85.3590909,
                "pitch": 52,
                "velocity": 32,
                "duration": 0.2204545,
                "tempo": 120.0
            },
            {
                "start_time": 85.4113636,
                "end_time": 85.6295455,
                "pitch": 52,
                "velocity": 32,
                "duration": 0.2181818,
                "tempo": 120.0
            },
            {
                "start_time": 85.6840909,
                "end_time": 85.9022727,
                "pitch": 52,
                "velocity": 32,
                "duration": 0.2181818,
                "tempo": 120.0
            },
            {
                "start_time": 77.6,
                "end_time": 85.9568182,
                "pitch": 50,
                "velocity": 32,
                "duration": 8.3568182,
                "tempo": 120.0
            },
            {
                "start_time": 81.6431818,
                "end_time": 86.4431818,
                "pitch": 48,
                "velocity": 32,
                "duration": 4.8,
                "tempo": 120.0
            },
            {
                "start_time": 85.9568182,
                "end_time": 86.4431818,
                "pitch": 48,
                "velocity": 32,
                "duration": 0.4863636,
                "tempo": 120.0
            },
            {
                "start_time": 86.4954545,
                "end_time": 86.7113636,
                "pitch": 48,
                "velocity": 32,
                "duration": 0.2159091,
                "tempo": 120.0
            },
            {
                "start_time": 86.7636364,
                "end_time": 86.9795455,
                "pitch": 48,
                "velocity": 32,
                "duration": 0.2159091,
                "tempo": 120.0
            },
            {
                "start_time": 87.0318182,
                "end_time": 87.2454545,
                "pitch": 48,
                "velocity": 32,
                "duration": 0.2136364,
                "tempo": 120.0
            },
            {
                "start_time": 87.3,
                "end_time": 87.5181818,
                "pitch": 48,
                "velocity": 32,
                "duration": 0.2181818,
                "tempo": 120.0
            },
            {
                "start_time": 87.5704545,
                "end_time": 87.7909091,
                "pitch": 48,
                "velocity": 32,
                "duration": 0.2204545,
                "tempo": 120.0
            },
            {
                "start_time": 87.8431818,
                "end_time": 88.0590909,
                "pitch": 48,
                "velocity": 32,
                "duration": 0.2159091,
                "tempo": 120.0
            },
            {
                "start_time": 88.1113636,
                "end_time": 88.1931818,
                "pitch": 47,
                "velocity": 32,
                "duration": 0.0818182,
                "tempo": 120.0
            },
            {
                "start_time": 88.2454545,
                "end_time": 88.5931818,
                "pitch": 47,
                "velocity": 32,
                "duration": 0.3477273,
                "tempo": 120.0
            },
            {
                "start_time": 88.6454545,
                "end_time": 88.8613636,
                "pitch": 46,
                "velocity": 32,
                "duration": 0.2159091,
                "tempo": 120.0
            },
            {
                "start_time": 88.9136364,
                "end_time": 89.1318182,
                "pitch": 46,
                "velocity": 32,
                "duration": 0.2181818,
                "tempo": 120.0
            },
            {
                "start_time": 89.1863636,
                "end_time": 89.4045455,
                "pitch": 46,
                "velocity": 32,
                "duration": 0.2181818,
                "tempo": 120.0
            },
            {
                "start_time": 89.4590909,
                "end_time": 89.6772727,
                "pitch": 46,
                "velocity": 32,
                "duration": 0.2181818,
                "tempo": 120.0
            },
            {
                "start_time": 89.7295455,
                "end_time": 89.95,
                "pitch": 46,
                "velocity": 32,
                "duration": 0.2204545,
                "tempo": 120.0
            },
            {
                "start_time": 90.0045455,
                "end_time": 90.2181818,
                "pitch": 46,
                "velocity": 32,
                "duration": 0.2136364,
                "tempo": 120.0
            },
            {
                "start_time": 90.2704545,
                "end_time": 90.7522727,
                "pitch": 46,
                "velocity": 32,
                "duration": 0.4818182,
                "tempo": 120.0
            },
            {
                "start_time": 90.8045455,
                "end_time": 91.0204545,
                "pitch": 47,
                "velocity": 32,
                "duration": 0.2159091,
                "tempo": 120.0
            },
            {
                "start_time": 91.0727273,
                "end_time": 91.2886364,
                "pitch": 47,
                "velocity": 32,
                "duration": 0.2159091,
                "tempo": 120.0
            },
            {
                "start_time": 91.3409091,
                "end_time": 91.8272727,
                "pitch": 47,
                "velocity": 32,
                "duration": 0.4863636,
                "tempo": 120.0
            },
            {
                "start_time": 91.8795455,
                "end_time": 92.1,
                "pitch": 47,
                "velocity": 32,
                "duration": 0.2204545,
                "tempo": 120.0
            },
            {
                "start_time": 92.1545455,
                "end_time": 92.3727273,
                "pitch": 47,
                "velocity": 32,
                "duration": 0.2181818,
                "tempo": 120.0
            },
            {
                "start_time": 92.4272727,
                "end_time": 92.6454545,
                "pitch": 47,
                "velocity": 32,
                "duration": 0.2181818,
                "tempo": 120.0
            },
            {
                "start_time": 94.0363636,
                "end_time": 94.7954545,
                "pitch": 47,
                "velocity": 32,
                "duration": 0.7590909,
                "tempo": 120.0
            },
            {
                "start_time": 94.85,
                "end_time": 95.0659091,
                "pitch": 43,
                "velocity": 32,
                "duration": 0.2159091,
                "tempo": 120.0
            },
            {
                "start_time": 95.1204545,
                "end_time": 95.3386364,
                "pitch": 43,
                "velocity": 32,
                "duration": 0.2181818,
                "tempo": 120.0
            },
            {
                "start_time": 95.3931818,
                "end_time": 95.6068182,
                "pitch": 43,
                "velocity": 32,
                "duration": 0.2136364,
                "tempo": 120.0
            },
            {
                "start_time": 95.6590909,
                "end_time": 95.875,
                "pitch": 43,
                "velocity": 32,
                "duration": 0.2159091,
                "tempo": 120.0
            },
            {
                "start_time": 95.9272727,
                "end_time": 96.1477273,
                "pitch": 43,
                "velocity": 32,
                "duration": 0.2204545,
                "tempo": 120.0
            },
            {
                "start_time": 96.2,
                "end_time": 96.4181818,
                "pitch": 43,
                "velocity": 32,
                "duration": 0.2181818,
                "tempo": 120.0
            },
            {
                "start_time": 96.4727273,
                "end_time": 96.6886364,
                "pitch": 43,
                "velocity": 32,
                "duration": 0.2159091,
                "tempo": 120.0
            },
            {
                "start_time": 96.7409091,
                "end_time": 96.9545455,
                "pitch": 43,
                "velocity": 32,
                "duration": 0.2136364,
                "tempo": 120.0
            },
            {
                "start_time": 97.0068182,
                "end_time": 97.2227273,
                "pitch": 43,
                "velocity": 32,
                "duration": 0.2159091,
                "tempo": 120.0
            },
            {
                "start_time": 97.275,
                "end_time": 97.4909091,
                "pitch": 43,
                "velocity": 32,
                "duration": 0.2159091,
                "tempo": 120.0
            },
            {
                "start_time": 97.5431818,
                "end_time": 97.7613636,
                "pitch": 43,
                "velocity": 32,
                "duration": 0.2181818,
                "tempo": 120.0
            },
            {
                "start_time": 97.8159091,
                "end_time": 98.0340909,
                "pitch": 55,
                "velocity": 32,
                "duration": 0.2181818,
                "tempo": 120.0
            },
            {
                "start_time": 77.4613636,
                "end_time": 98.5704545,
                "pitch": 54,
                "velocity": 32,
                "duration": 21.1090909,
                "tempo": 120.0
            },
            {
                "start_time": 98.3545455,
                "end_time": 98.5704545,
                "pitch": 54,
                "velocity": 32,
                "duration": 0.2159091,
                "tempo": 120.0
            },
            {
                "start_time": 98.6227273,
                "end_time": 98.8386364,
                "pitch": 54,
                "velocity": 32,
                "duration": 0.2159091,
                "tempo": 120.0
            },
            {
                "start_time": 88.1113636,
                "end_time": 99.1045455,
                "pitch": 52,
                "velocity": 32,
                "duration": 10.9931818,
                "tempo": 120.0
            },
            {
                "start_time": 98.8909091,
                "end_time": 99.1045455,
                "pitch": 52,
                "velocity": 32,
                "duration": 0.2136364,
                "tempo": 120.0
            },
            {
                "start_time": 99.1568182,
                "end_time": 99.3772727,
                "pitch": 52,
                "velocity": 32,
                "duration": 0.2204545,
                "tempo": 120.0
            },
            {
                "start_time": 85.9568182,
                "end_time": 99.6477273,
                "pitch": 50,
                "velocity": 32,
                "duration": 13.6909091,
                "tempo": 120.0
            },
            {
                "start_time": 99.4295455,
                "end_time": 99.6477273,
                "pitch": 50,
                "velocity": 32,
                "duration": 0.2181818,
                "tempo": 120.0
            },
            {
                "start_time": 99.7022727,
                "end_time": 99.9181818,
                "pitch": 50,
                "velocity": 32,
                "duration": 0.2159091,
                "tempo": 120.0
            },
            {
                "start_time": 99.9681818,
                "end_time": 100.1840909,
                "pitch": 50,
                "velocity": 32,
                "duration": 0.2159091,
                "tempo": 120.0
            },
            {
                "start_time": 100.2363636,
                "end_time": 100.4568182,
                "pitch": 50,
                "velocity": 32,
                "duration": 0.2204545,
                "tempo": 120.0
            },
            {
                "start_time": 100.5090909,
                "end_time": 100.7295455,
                "pitch": 50,
                "velocity": 32,
                "duration": 0.2204545,
                "tempo": 120.0
            },
            {
                "start_time": 100.7818182,
                "end_time": 100.9977273,
                "pitch": 50,
                "velocity": 32,
                "duration": 0.2159091,
                "tempo": 120.0
            },
            {
                "start_time": 101.05,
                "end_time": 101.2659091,
                "pitch": 50,
                "velocity": 32,
                "duration": 0.2159091,
                "tempo": 120.0
            },
            {
                "start_time": 101.3181818,
                "end_time": 101.5363636,
                "pitch": 50,
                "velocity": 32,
                "duration": 0.2181818,
                "tempo": 120.0
            },
            {
                "start_time": 101.5886364,
                "end_time": 101.8090909,
                "pitch": 50,
                "velocity": 32,
                "duration": 0.2204545,
                "tempo": 120.0
            },
            {
                "start_time": 101.8613636,
                "end_time": 102.0772727,
                "pitch": 50,
                "velocity": 32,
                "duration": 0.2159091,
                "tempo": 120.0
            },
            {
                "start_time": 102.1295455,
                "end_time": 102.3454545,
                "pitch": 50,
                "velocity": 32,
                "duration": 0.2159091,
                "tempo": 120.0
            },
            {
                "start_time": 102.3977273,
                "end_time": 102.6113636,
                "pitch": 50,
                "velocity": 32,
                "duration": 0.2136364,
                "tempo": 120.0
            },
            {
                "start_time": 102.6636364,
                "end_time": 102.8795455,
                "pitch": 51,
                "velocity": 32,
                "duration": 0.2159091,
                "tempo": 120.0
            },
            {
                "start_time": 102.9318182,
                "end_time": 103.15,
                "pitch": 51,
                "velocity": 32,
                "duration": 0.2181818,
                "tempo": 120.0
            },
            {
                "start_time": 103.2045455,
                "end_time": 103.4227273,
                "pitch": 51,
                "velocity": 32,
                "duration": 0.2181818,
                "tempo": 120.0
            },
            {
                "start_time": 103.4772727,
                "end_time": 103.6909091,
                "pitch": 51,
                "velocity": 32,
                "duration": 0.2136364,
                "tempo": 120.0
            },
            {
                "start_time": 103.7431818,
                "end_time": 103.9590909,
                "pitch": 52,
                "velocity": 32,
                "duration": 0.2159091,
                "tempo": 120.0
            },
            {
                "start_time": 104.0113636,
                "end_time": 104.2272727,
                "pitch": 52,
                "velocity": 32,
                "duration": 0.2159091,
                "tempo": 120.0
            },
            {
                "start_time": 104.2795455,
                "end_time": 104.4954545,
                "pitch": 52,
                "velocity": 32,
                "duration": 0.2159091,
                "tempo": 120.0
            },
            {
                "start_time": 104.5454545,
                "end_time": 104.7659091,
                "pitch": 52,
                "velocity": 32,
                "duration": 0.2204545,
                "tempo": 120.0
            },
            {
                "start_time": 104.8181818,
                "end_time": 105.0386364,
                "pitch": 52,
                "velocity": 32,
                "duration": 0.2204545,
                "tempo": 120.0
            },
            {
                "start_time": 105.0931818,
                "end_time": 105.3068182,
                "pitch": 52,
                "velocity": 32,
                "duration": 0.2136364,
                "tempo": 120.0
            },
            {
                "start_time": 105.3590909,
                "end_time": 105.575,
                "pitch": 52,
                "velocity": 32,
                "duration": 0.2159091,
                "tempo": 120.0
            },
            {
                "start_time": 105.6272727,
                "end_time": 105.8454545,
                "pitch": 52,
                "velocity": 32,
                "duration": 0.2181818,
                "tempo": 120.0
            },
            {
                "start_time": 105.8977273,
                "end_time": 106.1181818,
                "pitch": 52,
                "velocity": 32,
                "duration": 0.2204545,
                "tempo": 120.0
            },
            {
                "start_time": 106.1704545,
                "end_time": 106.3863636,
                "pitch": 52,
                "velocity": 32,
                "duration": 0.2159091,
                "tempo": 120.0
            },
            {
                "start_time": 106.4386364,
                "end_time": 106.6545455,
                "pitch": 52,
                "velocity": 32,
                "duration": 0.2159091,
                "tempo": 120.0
            },
            {
                "start_time": 106.7068182,
                "end_time": 106.925,
                "pitch": 52,
                "velocity": 32,
                "duration": 0.2181818,
                "tempo": 120.0
            },
            {
                "start_time": 106.9795455,
                "end_time": 107.1977273,
                "pitch": 52,
                "velocity": 32,
                "duration": 0.2181818,
                "tempo": 120.0
            },
            {
                "start_time": 107.25,
                "end_time": 107.4659091,
                "pitch": 52,
                "velocity": 32,
                "duration": 0.2159091,
                "tempo": 120.0
            },
            {
                "start_time": 107.5181818,
                "end_time": 107.7340909,
                "pitch": 52,
                "velocity": 32,
                "duration": 0.2159091,
                "tempo": 120.0
            },
            {
                "start_time": 107.7863636,
                "end_time": 108.0045455,
                "pitch": 52,
                "velocity": 32,
                "duration": 0.2181818,
                "tempo": 120.0
            },
            {
                "start_time": 108.0568182,
                "end_time": 108.2772727,
                "pitch": 50,
                "velocity": 32,
                "duration": 0.2204545,
                "tempo": 120.0
            },
            {
                "start_time": 108.3295455,
                "end_time": 108.5454545,
                "pitch": 50,
                "velocity": 32,
                "duration": 0.2159091,
                "tempo": 120.0
            },
            {
                "start_time": 108.5977273,
                "end_time": 108.8136364,
                "pitch": 50,
                "velocity": 32,
                "duration": 0.2159091,
                "tempo": 120.0
            },
            {
                "start_time": 108.8659091,
                "end_time": 109.0818182,
                "pitch": 50,
                "velocity": 32,
                "duration": 0.2159091,
                "tempo": 120.0
            },
            {
                "start_time": 109.1340909,
                "end_time": 109.35,
                "pitch": 50,
                "velocity": 32,
                "duration": 0.2159091,
                "tempo": 120.0
            },
            {
                "start_time": 109.4022727,
                "end_time": 109.6204545,
                "pitch": 50,
                "velocity": 32,
                "duration": 0.2181818,
                "tempo": 120.0
            },
            {
                "start_time": 109.675,
                "end_time": 109.8931818,
                "pitch": 50,
                "velocity": 32,
                "duration": 0.2181818,
                "tempo": 120.0
            },
            {
                "start_time": 109.9454545,
                "end_time": 110.1613636,
                "pitch": 50,
                "velocity": 32,
                "duration": 0.2159091,
                "tempo": 120.0
            },
            {
                "start_time": 110.2136364,
                "end_time": 110.4295455,
                "pitch": 50,
                "velocity": 32,
                "duration": 0.2159091,
                "tempo": 120.0
            },
            {
                "start_time": 110.4818182,
                "end_time": 110.6954545,
                "pitch": 50,
                "velocity": 32,
                "duration": 0.2136364,
                "tempo": 120.0
            },
            {
                "start_time": 110.7477273,
                "end_time": 110.9636364,
                "pitch": 50,
                "velocity": 32,
                "duration": 0.2159091,
                "tempo": 120.0
            },
            {
                "start_time": 111.0159091,
                "end_time": 111.2340909,
                "pitch": 50,
                "velocity": 32,
                "duration": 0.2181818,
                "tempo": 120.0
            },
            {
                "start_time": 111.2886364,
                "end_time": 111.5068182,
                "pitch": 50,
                "velocity": 32,
                "duration": 0.2181818,
                "tempo": 120.0
            },
            {
                "start_time": 111.5613636,
                "end_time": 111.7772727,
                "pitch": 52,
                "velocity": 32,
                "duration": 0.2159091,
                "tempo": 120.0
            },
            {
                "start_time": 111.8272727,
                "end_time": 112.0431818,
                "pitch": 54,
                "velocity": 32,
                "duration": 0.2159091,
                "tempo": 120.0
            },
            {
                "start_time": 77.0568182,
                "end_time": 112.0954545,
                "pitch": 67,
                "velocity": 32,
                "duration": 35.0386364,
                "tempo": 120.0
            },
            {
                "start_time": 112.0954545,
                "end_time": 112.3159091,
                "pitch": 55,
                "velocity": 32,
                "duration": 0.2204545,
                "tempo": 120.0
            },
            {
                "start_time": 112.3681818,
                "end_time": 112.5863636,
                "pitch": 55,
                "velocity": 32,
                "duration": 0.2181818,
                "tempo": 120.0
            },
            {
                "start_time": 112.6409091,
                "end_time": 112.8568182,
                "pitch": 55,
                "velocity": 32,
                "duration": 0.2159091,
                "tempo": 120.0
            },
            {
                "start_time": 112.9068182,
                "end_time": 113.1227273,
                "pitch": 55,
                "velocity": 32,
                "duration": 0.2159091,
                "tempo": 120.0
            },
            {
                "start_time": 113.175,
                "end_time": 113.3954545,
                "pitch": 55,
                "velocity": 32,
                "duration": 0.2204545,
                "tempo": 120.0
            },
            {
                "start_time": 113.4477273,
                "end_time": 113.6659091,
                "pitch": 55,
                "velocity": 32,
                "duration": 0.2181818,
                "tempo": 120.0
            },
            {
                "start_time": 113.7204545,
                "end_time": 113.9363636,
                "pitch": 55,
                "velocity": 32,
                "duration": 0.2159091,
                "tempo": 120.0
            },
            {
                "start_time": 113.9886364,
                "end_time": 114.2022727,
                "pitch": 55,
                "velocity": 32,
                "duration": 0.2136364,
                "tempo": 120.0
            },
            {
                "start_time": 114.2545455,
                "end_time": 114.4704545,
                "pitch": 55,
                "velocity": 32,
                "duration": 0.2159091,
                "tempo": 120.0
            },
            {
                "start_time": 114.5227273,
                "end_time": 114.7386364,
                "pitch": 55,
                "velocity": 32,
                "duration": 0.2159091,
                "tempo": 120.0
            },
            {
                "start_time": 114.7909091,
                "end_time": 115.0090909,
                "pitch": 55,
                "velocity": 32,
                "duration": 0.2181818,
                "tempo": 120.0
            },
            {
                "start_time": 115.0636364,
                "end_time": 115.2818182,
                "pitch": 55,
                "velocity": 32,
                "duration": 0.2181818,
                "tempo": 120.0
            },
            {
                "start_time": 115.3340909,
                "end_time": 115.55,
                "pitch": 55,
                "velocity": 32,
                "duration": 0.2159091,
                "tempo": 120.0
            },
            {
                "start_time": 115.6022727,
                "end_time": 115.8181818,
                "pitch": 55,
                "velocity": 32,
                "duration": 0.2159091,
                "tempo": 120.0
            },
            {
                "start_time": 116.1386364,
                "end_time": 116.3522727,
                "pitch": 54,
                "velocity": 32,
                "duration": 0.2136364,
                "tempo": 120.0
            },
            {
                "start_time": 116.4045455,
                "end_time": 116.625,
                "pitch": 54,
                "velocity": 32,
                "duration": 0.2204545,
                "tempo": 120.0
            },
            {
                "start_time": 75.7113636,
                "end_time": 116.8977273,
                "pitch": 53,
                "velocity": 32,
                "duration": 41.1863636,
                "tempo": 120.0
            },
            {
                "start_time": 116.6772727,
                "end_time": 116.8977273,
                "pitch": 53,
                "velocity": 32,
                "duration": 0.2204545,
                "tempo": 120.0
            },
            {
                "start_time": 116.95,
                "end_time": 117.1659091,
                "pitch": 53,
                "velocity": 32,
                "duration": 0.2159091,
                "tempo": 120.0
            },
            {
                "start_time": 117.2159091,
                "end_time": 117.4340909,
                "pitch": 53,
                "velocity": 32,
                "duration": 0.2181818,
                "tempo": 120.0
            },
            {
                "start_time": 117.4840909,
                "end_time": 117.7,
                "pitch": 53,
                "velocity": 32,
                "duration": 0.2159091,
                "tempo": 120.0
            },
            {
                "start_time": 117.7522727,
                "end_time": 117.9681818,
                "pitch": 53,
                "velocity": 32,
                "duration": 0.2159091,
                "tempo": 120.0
            },
            {
                "start_time": 118.0204545,
                "end_time": 118.2386364,
                "pitch": 53,
                "velocity": 32,
                "duration": 0.2181818,
                "tempo": 120.0
            },
            {
                "start_time": 118.2931818,
                "end_time": 118.5113636,
                "pitch": 53,
                "velocity": 32,
                "duration": 0.2181818,
                "tempo": 120.0
            },
            {
                "start_time": 118.5659091,
                "end_time": 118.7795455,
                "pitch": 53,
                "velocity": 32,
                "duration": 0.2136364,
                "tempo": 120.0
            },
            {
                "start_time": 118.8318182,
                "end_time": 119.0477273,
                "pitch": 53,
                "velocity": 32,
                "duration": 0.2159091,
                "tempo": 120.0
            },
            {
                "start_time": 119.1,
                "end_time": 119.3181818,
                "pitch": 53,
                "velocity": 32,
                "duration": 0.2181818,
                "tempo": 120.0
            },
            {
                "start_time": 119.3727273,
                "end_time": 119.5909091,
                "pitch": 53,
                "velocity": 32,
                "duration": 0.2181818,
                "tempo": 120.0
            },
            {
                "start_time": 119.6454545,
                "end_time": 119.8590909,
                "pitch": 53,
                "velocity": 32,
                "duration": 0.2136364,
                "tempo": 120.0
            },
            {
                "start_time": 119.9113636,
                "end_time": 120.1272727,
                "pitch": 53,
                "velocity": 32,
                "duration": 0.2159091,
                "tempo": 120.0
            },
            {
                "start_time": 120.1795455,
                "end_time": 120.3977273,
                "pitch": 53,
                "velocity": 32,
                "duration": 0.2181818,
                "tempo": 120.0
            },
            {
                "start_time": 120.4522727,
                "end_time": 120.6704545,
                "pitch": 53,
                "velocity": 32,
                "duration": 0.2181818,
                "tempo": 120.0
            },
            {
                "start_time": 120.725,
                "end_time": 120.9386364,
                "pitch": 53,
                "velocity": 32,
                "duration": 0.2136364,
                "tempo": 120.0
            },
            {
                "start_time": 120.9909091,
                "end_time": 121.2068182,
                "pitch": 52,
                "velocity": 32,
                "duration": 0.2159091,
                "tempo": 120.0
            },
            {
                "start_time": 121.2590909,
                "end_time": 121.475,
                "pitch": 52,
                "velocity": 32,
                "duration": 0.2159091,
                "tempo": 120.0
            },
            {
                "start_time": 121.5272727,
                "end_time": 121.7431818,
                "pitch": 52,
                "velocity": 32,
                "duration": 0.2159091,
                "tempo": 120.0
            },
            {
                "start_time": 121.7931818,
                "end_time": 122.0136364,
                "pitch": 52,
                "velocity": 32,
                "duration": 0.2204545,
                "tempo": 120.0
            },
            {
                "start_time": 122.0659091,
                "end_time": 122.2863636,
                "pitch": 52,
                "velocity": 32,
                "duration": 0.2204545,
                "tempo": 120.0
            },
            {
                "start_time": 122.3386364,
                "end_time": 122.5545455,
                "pitch": 52,
                "velocity": 32,
                "duration": 0.2159091,
                "tempo": 120.0
            },
            {
                "start_time": 122.6090909,
                "end_time": 122.8227273,
                "pitch": 52,
                "velocity": 32,
                "duration": 0.2136364,
                "tempo": 120.0
            },
            {
                "start_time": 122.875,
                "end_time": 123.0931818,
                "pitch": 52,
                "velocity": 32,
                "duration": 0.2181818,
                "tempo": 120.0
            },
            {
                "start_time": 123.1454545,
                "end_time": 123.3659091,
                "pitch": 52,
                "velocity": 32,
                "duration": 0.2204545,
                "tempo": 120.0
            },
            {
                "start_time": 123.4181818,
                "end_time": 123.6340909,
                "pitch": 52,
                "velocity": 32,
                "duration": 0.2159091,
                "tempo": 120.0
            },
            {
                "start_time": 123.6863636,
                "end_time": 123.9022727,
                "pitch": 52,
                "velocity": 32,
                "duration": 0.2159091,
                "tempo": 120.0
            },
            {
                "start_time": 123.9545455,
                "end_time": 124.1704545,
                "pitch": 52,
                "velocity": 32,
                "duration": 0.2159091,
                "tempo": 120.0
            },
            {
                "start_time": 124.2204545,
                "end_time": 124.4363636,
                "pitch": 52,
                "velocity": 32,
                "duration": 0.2159091,
                "tempo": 120.0
            },
            {
                "start_time": 124.4886364,
                "end_time": 124.7090909,
                "pitch": 52,
                "velocity": 32,
                "duration": 0.2204545,
                "tempo": 120.0
            },
            {
                "start_time": 124.7613636,
                "end_time": 124.9818182,
                "pitch": 50,
                "velocity": 32,
                "duration": 0.2204545,
                "tempo": 120.0
            },
            {
                "start_time": 125.0340909,
                "end_time": 125.25,
                "pitch": 48,
                "velocity": 32,
                "duration": 0.2159091,
                "tempo": 120.0
            },
            {
                "start_time": 125.3022727,
                "end_time": 125.5159091,
                "pitch": 48,
                "velocity": 32,
                "duration": 0.2136364,
                "tempo": 120.0
            },
            {
                "start_time": 125.5681818,
                "end_time": 125.7886364,
                "pitch": 48,
                "velocity": 32,
                "duration": 0.2204545,
                "tempo": 120.0
            },
            {
                "start_time": 125.8409091,
                "end_time": 126.0613636,
                "pitch": 48,
                "velocity": 32,
                "duration": 0.2204545,
                "tempo": 120.0
            },
            {
                "start_time": 126.1136364,
                "end_time": 126.3295455,
                "pitch": 48,
                "velocity": 32,
                "duration": 0.2159091,
                "tempo": 120.0
            },
            {
                "start_time": 126.3795455,
                "end_time": 126.5977273,
                "pitch": 48,
                "velocity": 32,
                "duration": 0.2181818,
                "tempo": 120.0
            },
            {
                "start_time": 126.6477273,
                "end_time": 126.8681818,
                "pitch": 48,
                "velocity": 32,
                "duration": 0.2204545,
                "tempo": 120.0
            },
            {
                "start_time": 126.9227273,
                "end_time": 127.1409091,
                "pitch": 48,
                "velocity": 32,
                "duration": 0.2181818,
                "tempo": 120.0
            },
            {
                "start_time": 125.0340909,
                "end_time": 127.4090909,
                "pitch": 50,
                "velocity": 32,
                "duration": 2.375,
                "tempo": 120.0
            },
            {
                "start_time": 127.1931818,
                "end_time": 127.4090909,
                "pitch": 50,
                "velocity": 32,
                "duration": 0.2159091,
                "tempo": 120.0
            },
            {
                "start_time": 127.4613636,
                "end_time": 127.6772727,
                "pitch": 50,
                "velocity": 32,
                "duration": 0.2159091,
                "tempo": 120.0
            },
            {
                "start_time": 127.7295455,
                "end_time": 127.9431818,
                "pitch": 50,
                "velocity": 32,
                "duration": 0.2136364,
                "tempo": 120.0
            },
            {
                "start_time": 127.9954545,
                "end_time": 128.2113636,
                "pitch": 50,
                "velocity": 32,
                "duration": 0.2159091,
                "tempo": 120.0
            },
            {
                "start_time": 128.2636364,
                "end_time": 128.4818182,
                "pitch": 50,
                "velocity": 32,
                "duration": 0.2181818,
                "tempo": 120.0
            },
            {
                "start_time": 128.5363636,
                "end_time": 128.7545455,
                "pitch": 50,
                "velocity": 32,
                "duration": 0.2181818,
                "tempo": 120.0
            },
            {
                "start_time": 128.8090909,
                "end_time": 129.025,
                "pitch": 50,
                "velocity": 32,
                "duration": 0.2159091,
                "tempo": 120.0
            },
            {
                "start_time": 129.0772727,
                "end_time": 129.2909091,
                "pitch": 50,
                "velocity": 32,
                "duration": 0.2136364,
                "tempo": 120.0
            },
            {
                "start_time": 129.3431818,
                "end_time": 129.4272727,
                "pitch": 50,
                "velocity": 32,
                "duration": 0.0840909,
                "tempo": 120.0
            },
            {
                "start_time": 129.4772727,
                "end_time": 129.5636364,
                "pitch": 52,
                "velocity": 32,
                "duration": 0.0863636,
                "tempo": 120.0
            },
            {
                "start_time": 129.6159091,
                "end_time": 129.6977273,
                "pitch": 52,
                "velocity": 32,
                "duration": 0.0818182,
                "tempo": 120.0
            },
            {
                "start_time": 129.75,
                "end_time": 129.8340909,
                "pitch": 50,
                "velocity": 32,
                "duration": 0.0840909,
                "tempo": 120.0
            },
            {
                "start_time": 71.9318182,
                "end_time": 130.1545455,
                "pitch": 66,
                "velocity": 32,
                "duration": 58.2227273,
                "tempo": 120.0
            },
            {
                "start_time": 130.1545455,
                "end_time": 130.3704545,
                "pitch": 55,
                "velocity": 32,
                "duration": 0.2159091,
                "tempo": 120.0
            },
            {
                "start_time": 130.4227273,
                "end_time": 130.6386364,
                "pitch": 55,
                "velocity": 32,
                "duration": 0.2159091,
                "tempo": 120.0
            },
            {
                "start_time": 130.6886364,
                "end_time": 130.7727273,
                "pitch": 69,
                "velocity": 32,
                "duration": 0.0840909,
                "tempo": 120.0
            },
            {
                "start_time": 130.8227273,
                "end_time": 131.0409091,
                "pitch": 57,
                "velocity": 32,
                "duration": 0.2181818,
                "tempo": 120.0
            },
            {
                "start_time": 131.0909091,
                "end_time": 131.1727273,
                "pitch": 55,
                "velocity": 32,
                "duration": 0.0818182,
                "tempo": 120.0
            },
            {
                "start_time": 112.0954545,
                "end_time": 131.3068182,
                "pitch": 67,
                "velocity": 32,
                "duration": 19.2113636,
                "tempo": 120.0
            },
            {
                "start_time": 131.225,
                "end_time": 131.3068182,
                "pitch": 67,
                "velocity": 32,
                "duration": 0.0818182,
                "tempo": 120.0
            },
            {
                "start_time": 131.3590909,
                "end_time": 131.4409091,
                "pitch": 57,
                "velocity": 32,
                "duration": 0.0818182,
                "tempo": 120.0
            },
            {
                "start_time": 75.9840909,
                "end_time": 131.4954545,
                "pitch": 19,
                "velocity": 32,
                "duration": 55.5113636,
                "tempo": 120.0
            },
            {
                "start_time": 131.4954545,
                "end_time": 131.5772727,
                "pitch": 52,
                "velocity": 32,
                "duration": 0.0818182,
                "tempo": 120.0
            },
            {
                "start_time": 131.6272727,
                "end_time": 131.7136364,
                "pitch": 52,
                "velocity": 32,
                "duration": 0.0863636,
                "tempo": 120.0
            },
            {
                "start_time": 131.7636364,
                "end_time": 131.85,
                "pitch": 52,
                "velocity": 32,
                "duration": 0.0863636,
                "tempo": 120.0
            },
            {
                "start_time": 131.9,
                "end_time": 131.9840909,
                "pitch": 50,
                "velocity": 32,
                "duration": 0.0840909,
                "tempo": 120.0
            },
            {
                "start_time": 130.1545455,
                "end_time": 132.3045455,
                "pitch": 66,
                "velocity": 32,
                "duration": 2.15,
                "tempo": 120.0
            },
            {
                "start_time": 132.3045455,
                "end_time": 132.5204545,
                "pitch": 55,
                "velocity": 32,
                "duration": 0.2159091,
                "tempo": 120.0
            },
            {
                "start_time": 132.5727273,
                "end_time": 132.7886364,
                "pitch": 55,
                "velocity": 32,
                "duration": 0.2159091,
                "tempo": 120.0
            },
            {
                "start_time": 132.8386364,
                "end_time": 132.9227273,
                "pitch": 69,
                "velocity": 32,
                "duration": 0.0840909,
                "tempo": 120.0
            },
            {
                "start_time": 132.975,
                "end_time": 133.1909091,
                "pitch": 57,
                "velocity": 32,
                "duration": 0.2159091,
                "tempo": 120.0
            },
            {
                "start_time": 133.2431818,
                "end_time": 133.3272727,
                "pitch": 55,
                "velocity": 32,
                "duration": 0.0840909,
                "tempo": 120.0
            },
            {
                "start_time": 133.3795455,
                "end_time": 133.4636364,
                "pitch": 67,
                "velocity": 32,
                "duration": 0.0840909,
                "tempo": 120.0
            },
            {
                "start_time": 133.5159091,
                "end_time": 133.6,
                "pitch": 57,
                "velocity": 32,
                "duration": 0.0840909,
                "tempo": 120.0
            },
            {
                "start_time": 131.4954545,
                "end_time": 133.6522727,
                "pitch": 19,
                "velocity": 32,
                "duration": 2.1568182,
                "tempo": 120.0
            },
            {
                "start_time": 133.6522727,
                "end_time": 133.7363636,
                "pitch": 52,
                "velocity": 32,
                "duration": 0.0840909,
                "tempo": 120.0
            },
            {
                "start_time": 133.7886364,
                "end_time": 133.8727273,
                "pitch": 52,
                "velocity": 32,
                "duration": 0.0840909,
                "tempo": 120.0
            },
            {
                "start_time": 133.925,
                "end_time": 134.0090909,
                "pitch": 52,
                "velocity": 32,
                "duration": 0.0840909,
                "tempo": 120.0
            },
            {
                "start_time": 134.0613636,
                "end_time": 134.1454545,
                "pitch": 50,
                "velocity": 32,
                "duration": 0.0840909,
                "tempo": 120.0
            },
            {
                "start_time": 132.3045455,
                "end_time": 134.4636364,
                "pitch": 66,
                "velocity": 32,
                "duration": 2.1590909,
                "tempo": 120.0
            },
            {
                "start_time": 134.4636364,
                "end_time": 134.6818182,
                "pitch": 55,
                "velocity": 32,
                "duration": 0.2181818,
                "tempo": 120.0
            },
            {
                "start_time": 134.7318182,
                "end_time": 134.9477273,
                "pitch": 55,
                "velocity": 32,
                "duration": 0.2159091,
                "tempo": 120.0
            },
            {
                "start_time": 135.0,
                "end_time": 135.0818182,
                "pitch": 69,
                "velocity": 32,
                "duration": 0.0818182,
                "tempo": 120.0
            },
            {
                "start_time": 135.1340909,
                "end_time": 135.35,
                "pitch": 57,
                "velocity": 32,
                "duration": 0.2159091,
                "tempo": 120.0
            },
            {
                "start_time": 135.4,
                "end_time": 135.4840909,
                "pitch": 55,
                "velocity": 32,
                "duration": 0.0840909,
                "tempo": 120.0
            },
            {
                "start_time": 135.5340909,
                "end_time": 135.6181818,
                "pitch": 67,
                "velocity": 32,
                "duration": 0.0840909,
                "tempo": 120.0
            },
            {
                "start_time": 135.6681818,
                "end_time": 135.75,
                "pitch": 57,
                "velocity": 32,
                "duration": 0.0818182,
                "tempo": 120.0
            },
            {
                "start_time": 133.6522727,
                "end_time": 135.8022727,
                "pitch": 19,
                "velocity": 32,
                "duration": 2.15,
                "tempo": 120.0
            },
            {
                "start_time": 135.8022727,
                "end_time": 135.8863636,
                "pitch": 52,
                "velocity": 32,
                "duration": 0.0840909,
                "tempo": 120.0
            },
            {
                "start_time": 135.9386364,
                "end_time": 136.0227273,
                "pitch": 52,
                "velocity": 32,
                "duration": 0.0840909,
                "tempo": 120.0
            },
            {
                "start_time": 136.075,
                "end_time": 136.1590909,
                "pitch": 52,
                "velocity": 32,
                "duration": 0.0840909,
                "tempo": 120.0
            },
            {
                "start_time": 136.2113636,
                "end_time": 136.2954545,
                "pitch": 50,
                "velocity": 32,
                "duration": 0.0840909,
                "tempo": 120.0
            },
            {
                "start_time": 134.4636364,
                "end_time": 136.6136364,
                "pitch": 66,
                "velocity": 32,
                "duration": 2.15,
                "tempo": 120.0
            },
            {
                "start_time": 136.6136364,
                "end_time": 136.8318182,
                "pitch": 55,
                "velocity": 32,
                "duration": 0.2181818,
                "tempo": 120.0
            },
            {
                "start_time": 136.8840909,
                "end_time": 137.1,
                "pitch": 55,
                "velocity": 32,
                "duration": 0.2159091,
                "tempo": 120.0
            },
            {
                "start_time": 137.15,
                "end_time": 137.2318182,
                "pitch": 69,
                "velocity": 32,
                "duration": 0.0818182,
                "tempo": 120.0
            },
            {
                "start_time": 137.2840909,
                "end_time": 137.5022727,
                "pitch": 57,
                "velocity": 32,
                "duration": 0.2181818,
                "tempo": 120.0
            },
            {
                "start_time": 137.5522727,
                "end_time": 137.6363636,
                "pitch": 55,
                "velocity": 32,
                "duration": 0.0840909,
                "tempo": 120.0
            },
            {
                "start_time": 137.6886364,
                "end_time": 137.7727273,
                "pitch": 67,
                "velocity": 32,
                "duration": 0.0840909,
                "tempo": 120.0
            },
            {
                "start_time": 137.825,
                "end_time": 137.9113636,
                "pitch": 57,
                "velocity": 32,
                "duration": 0.0863636,
                "tempo": 120.0
            },
            {
                "start_time": 135.8022727,
                "end_time": 137.9659091,
                "pitch": 19,
                "velocity": 32,
                "duration": 2.1636364,
                "tempo": 120.0
            },
            {
                "start_time": 137.9659091,
                "end_time": 138.0431818,
                "pitch": 52,
                "velocity": 32,
                "duration": 0.0772727,
                "tempo": 120.0
            },
            {
                "start_time": 138.0954545,
                "end_time": 138.1772727,
                "pitch": 52,
                "velocity": 32,
                "duration": 0.0818182,
                "tempo": 120.0
            }
        ]
    }
}