{
    "mood": "happy",
    "instruments": {
        "French Horn": [
            {
                "start_time": 0.0159091,
                "end_time": 0.4159091,
                "pitch": 52,
                "velocity": 80,
                "duration": 0.4,
                "tempo": 120.0
            },
            {
                "start_time": 0.4159091,
                "end_time": 0.8363636,
                "pitch": 55,
                "velocity": 80,
                "duration": 0.4204545,
                "tempo": 120.0
            },
            {
                "start_time": 0.8363636,
                "end_time": 2.425,
                "pitch": 57,
                "velocity": 80,
                "duration": 1.5886364,
                "tempo": 120.0
            },
            {
                "start_time": 0.8363636,
                "end_time": 2.425,
                "pitch": 57,
                "velocity": 80,
                "duration": 1.5886364,
                "tempo": 120.0
            },
            {
                "start_time": 2.425,
                "end_time": 2.8454545,
                "pitch": 57,
                "velocity": 80,
                "duration": 0.4204545,
                "tempo": 120.0
            },
            {
                "start_time": 2.8454545,
                "end_time": 3.2409091,
                "pitch": 60,
                "velocity": 80,
                "duration": 0.3954545,
                "tempo": 120.0
            },
            {
                "start_time": 3.2409091,
                "end_time": 4.4545455,
                "pitch": 59,
                "velocity": 80,
                "duration": 1.2136364,
                "tempo": 120.0
            },
            {
                "start_time": 4.4545455,
                "end_time": 4.8590909,
                "pitch": 55,
                "velocity": 80,
                "duration": 0.4045455,
                "tempo": 120.0
            },
            {
                "start_time": 4.4545455,
                "end_time": 4.8590909,
                "pitch": 55,
                "velocity": 80,
                "duration": 0.4045455,
                "tempo": 120.0
            },
            {
                "start_time": 2.8454545,
                "end_time": 4.8590909,
                "pitch": 64,
                "velocity": 80,
                "duration": 2.0136364,
                "tempo": 120.0
            },
            {
                "start_time": 4.8590909,
                "end_time": 5.2590909,
                "pitch": 60,
                "velocity": 80,
                "duration": 0.4,
                "tempo": 120.0
            },
            {
                "start_time": 5.2590909,
                "end_time": 5.65,
                "pitch": 62,
                "velocity": 80,
                "duration": 0.3909091,
                "tempo": 120.0
            },
            {
                "start_time": 4.8590909,
                "end_time": 5.65,
                "pitch": 64,
                "velocity": 80,
                "duration": 0.7909091,
                "tempo": 120.0
            },
            {
                "start_time": 5.65,
                "end_time": 6.7477273,
                "pitch": 64,
                "velocity": 80,
                "duration": 1.0977273,
                "tempo": 120.0
            },
            {
                "start_time": 5.65,
                "end_time": 6.7477273,
                "pitch": 64,
                "velocity": 80,
                "duration": 1.0977273,
                "tempo": 120.0
            },
            {
                "start_time": 6.7477273,
                "end_time": 6.9431818,
                "pitch": 64,
                "velocity": 80,
                "duration": 0.1954545,
                "tempo": 120.0
            },
            {
                "start_time": 6.9431818,
                "end_time": 7.1340909,
                "pitch": 67,
                "velocity": 80,
                "duration": 0.1909091,
                "tempo": 120.0
            },
            {
                "start_time": 7.1340909,
                "end_time": 7.2295455,
                "pitch": 71,
                "velocity": 80,
                "duration": 0.0954545,
                "tempo": 120.0
            },
            {
                "start_time": 7.2295455,
                "end_time": 7.4318182,
                "pitch": 72,
                "velocity": 80,
                "duration": 0.2022727,
                "tempo": 120.0
            },
            {
                "start_time": 7.2295455,
                "end_time": 7.4318182,
                "pitch": 76,
                "velocity": 80,
                "duration": 0.2022727,
                "tempo": 120.0
            },
            {
                "start_time": 7.4318182,
                "end_time": 7.8454545,
                "pitch": 76,
                "velocity": 80,
                "duration": 0.4136364,
                "tempo": 120.0
            },
            {
                "start_time": 7.4318182,
                "end_time": 7.8454545,
                "pitch": 76,
                "velocity": 80,
                "duration": 0.4136364,
                "tempo": 120.0
            },
            {
                "start_time": 7.8454545,
                "end_time": 8.2454545,
                "pitch": 74,
                "velocity": 80,
                "duration": 0.4,
                "tempo": 120.0
            },
            {
                "start_time": 7.8454545,
                "end_time": 8.2454545,
                "pitch": 74,
                "velocity": 80,
                "duration": 0.4,
                "tempo": 120.0
            },
            {
                "start_time": 8.2454545,
                "end_time": 9.0477273,
                "pitch": 72,
                "velocity": 80,
                "duration": 0.8022727,
                "tempo": 120.0
            },
            {
                "start_time": 9.0477273,
                "end_time": 10.6613636,
                "pitch": 74,
                "velocity": 80,
                "duration": 1.6136364,
                "tempo": 120.0
            },
            {
                "start_time": 10.6613636,
                "end_time": 42.2318182,
                "pitch": 72,
                "velocity": 80,
                "duration": 31.5704545,
                "tempo": 120.0
            },
            {
                "start_time": 42.2318182,
                "end_time": 42.4295455,
                "pitch": 72,
                "velocity": 101,
                "duration": 0.1977273,
                "tempo": 120.0
            },
            {
                "start_time": 42.4318182,
                "end_time": 42.6318182,
                "pitch": 71,
                "velocity": 101,
                "duration": 0.2,
                "tempo": 120.0
            },
            {
                "start_time": 42.6318182,
                "end_time": 43.2340909,
                "pitch": 69,
                "velocity": 101,
                "duration": 0.6022727,
                "tempo": 120.0
            },
            {
                "start_time": 42.6318182,
                "end_time": 43.2340909,
                "pitch": 69,
                "velocity": 101,
                "duration": 0.6022727,
                "tempo": 120.0
            },
            {
                "start_time": 43.2340909,
                "end_time": 43.85,
                "pitch": 76,
                "velocity": 101,
                "duration": 0.6159091,
                "tempo": 120.0
            },
            {
                "start_time": 44.2363636,
                "end_time": 44.8386364,
                "pitch": 67,
                "velocity": 101,
                "duration": 0.6022727,
                "tempo": 120.0
            },
            {
                "start_time": 43.2340909,
                "end_time": 44.8386364,
                "pitch": 78,
                "velocity": 101,
                "duration": 1.6045455,
                "tempo": 120.0
            },
            {
                "start_time": 44.8386364,
                "end_time": 45.4568182,
                "pitch": 76,
                "velocity": 101,
                "duration": 0.6181818,
                "tempo": 120.0
            },
            {
                "start_time": 45.85,
                "end_time": 46.45,
                "pitch": 65,
                "velocity": 101,
                "duration": 0.6,
                "tempo": 120.0
            },
            {
                "start_time": 46.45,
                "end_time": 47.0704545,
                "pitch": 76,
                "velocity": 101,
                "duration": 0.6204545,
                "tempo": 120.0
            },
            {
                "start_time": 47.4568182,
                "end_time": 48.4590909,
                "pitch": 67,
                "velocity": 101,
                "duration": 1.0022727,
                "tempo": 120.0
            },
            {
                "start_time": 44.8386364,
                "end_time": 48.4590909,
                "pitch": 78,
                "velocity": 101,
                "duration": 3.6204545,
                "tempo": 120.0
            },
            {
                "start_time": 48.4590909,
                "end_time": 48.6590909,
                "pitch": 64,
                "velocity": 101,
                "duration": 0.2,
                "tempo": 120.0
            },
            {
                "start_time": 48.6613636,
                "end_time": 48.8613636,
                "pitch": 65,
                "velocity": 101,
                "duration": 0.2,
                "tempo": 120.0
            },
            {
                "start_time": 48.8613636,
                "end_time": 49.0613636,
                "pitch": 67,
                "velocity": 101,
                "duration": 0.2,
                "tempo": 120.0
            },
            {
                "start_time": 49.0613636,
                "end_time": 49.6613636,
                "pitch": 69,
                "velocity": 101,
                "duration": 0.6,
                "tempo": 120.0
            },
            {
                "start_time": 48.4590909,
                "end_time": 49.6613636,
                "pitch": 78,
                "velocity": 101,
                "duration": 1.2022727,
                "tempo": 120.0
            },
            {
                "start_time": 49.6613636,
                "end_time": 50.2795455,
                "pitch": 76,
                "velocity": 101,
                "duration": 0.6181818,
                "tempo": 120.0
            },
            {
                "start_time": 50.6659091,
                "end_time": 51.2659091,
                "pitch": 67,
                "velocity": 101,
                "duration": 0.6,
                "tempo": 120.0
            },
            {
                "start_time": 49.6613636,
                "end_time": 51.2659091,
                "pitch": 78,
                "velocity": 101,
                "duration": 1.6045455,
                "tempo": 120.0
            },
            {
                "start_time": 51.2659091,
                "end_time": 51.8840909,
                "pitch": 76,
                "velocity": 101,
                "duration": 0.6181818,
                "tempo": 120.0
            },
            {
                "start_time": 52.2681818,
                "end_time": 52.8704545,
                "pitch": 65,
                "velocity": 101,
                "duration": 0.6022727,
                "tempo": 120.0
            },
            {
                "start_time": 52.8704545,
                "end_time": 53.4886364,
                "pitch": 76,
                "velocity": 101,
                "duration": 0.6181818,
                "tempo": 120.0
            }
        ],
        "Trumpet": [
            {
                "start_time": 13.6931818,
                "end_time": 14.2931818,
                "pitch": 67,
                "velocity": 80,
                "duration": 0.6,
                "tempo": 120.0
            },
            {
                "start_time": 14.2931818,
                "end_time": 14.8977273,
                "pitch": 72,
                "velocity": 80,
                "duration": 0.6045455,
                "tempo": 120.0
            },
            {
                "start_time": 14.8977273,
                "end_time": 15.5022727,
                "pitch": 77,
                "velocity": 80,
                "duration": 0.6045455,
                "tempo": 120.0
            },
            {
                "start_time": 14.8977273,
                "end_time": 15.5022727,
                "pitch": 77,
                "velocity": 80,
                "duration": 0.6045455,
                "tempo": 120.0
            },
            {
                "start_time": 14.2931818,
                "end_time": 16.1045455,
                "pitch": 76,
                "velocity": 80,
                "duration": 1.8113636,
                "tempo": 120.0
            },
            {
                "start_time": 15.5022727,
                "end_time": 16.1045455,
                "pitch": 76,
                "velocity": 80,
                "duration": 0.6022727,
                "tempo": 120.0
            },
            {
                "start_time": 16.1045455,
                "end_time": 16.5090909,
                "pitch": 74,
                "velocity": 80,
                "duration": 0.4045455,
                "tempo": 120.0
            },
            {
                "start_time": 16.1045455,
                "end_time": 16.5090909,
                "pitch": 74,
                "velocity": 80,
                "duration": 0.4045455,
                "tempo": 120.0
            },
            {
                "start_time": 16.5090909,
                "end_time": 16.9113636,
                "pitch": 72,
                "velocity": 80,
                "duration": 0.4022727,
                "tempo": 120.0
            },
            {
                "start_time": 16.9113636,
                "end_time": 17.5113636,
                "pitch": 79,
                "velocity": 80,
                "duration": 0.6,
                "tempo": 120.0
            },
            {
                "start_time": 17.5136364,
                "end_time": 20.1227273,
                "pitch": 76,
                "velocity": 80,
                "duration": 2.6090909,
                "tempo": 120.0
            },
            {
                "start_time": 20.1227273,
                "end_time": 20.725,
                "pitch": 67,
                "velocity": 80,
                "duration": 0.6022727,
                "tempo": 120.0
            },
            {
                "start_time": 20.725,
                "end_time": 21.3272727,
                "pitch": 72,
                "velocity": 80,
                "duration": 0.6022727,
                "tempo": 120.0
            },
            {
                "start_time": 21.3272727,
                "end_time": 21.9340909,
                "pitch": 77,
                "velocity": 80,
                "duration": 0.6068182,
                "tempo": 120.0
            },
            {
                "start_time": 21.3272727,
                "end_time": 21.9340909,
                "pitch": 77,
                "velocity": 80,
                "duration": 0.6068182,
                "tempo": 120.0
            },
            {
                "start_time": 20.725,
                "end_time": 22.5431818,
                "pitch": 76,
                "velocity": 80,
                "duration": 1.8181818,
                "tempo": 120.0
            },
            {
                "start_time": 21.9340909,
                "end_time": 22.5431818,
                "pitch": 76,
                "velocity": 80,
                "duration": 0.6090909,
                "tempo": 120.0
            },
            {
                "start_time": 22.5431818,
                "end_time": 22.9431818,
                "pitch": 74,
                "velocity": 80,
                "duration": 0.4,
                "tempo": 120.0
            },
            {
                "start_time": 22.5431818,
                "end_time": 22.9431818,
                "pitch": 74,
                "velocity": 80,
                "duration": 0.4,
                "tempo": 120.0
            },
            {
                "start_time": 22.9431818,
                "end_time": 23.3454545,
                "pitch": 72,
                "velocity": 80,
                "duration": 0.4022727,
                "tempo": 120.0
            },
            {
                "start_time": 23.3454545,
                "end_time": 25.9545455,
                "pitch": 74,
                "velocity": 80,
                "duration": 2.6090909,
                "tempo": 120.0
            },
            {
                "start_time": 25.9545455,
                "end_time": 26.1545455,
                "pitch": 74,
                "velocity": 80,
                "duration": 0.2,
                "tempo": 120.0
            },
            {
                "start_time": 26.1545455,
                "end_time": 26.3568182,
                "pitch": 76,
                "velocity": 80,
                "duration": 0.2022727,
                "tempo": 120.0
            },
            {
                "start_time": 26.1568182,
                "end_time": 26.3568182,
                "pitch": 76,
                "velocity": 80,
                "duration": 0.2,
                "tempo": 120.0
            },
            {
                "start_time": 26.3568182,
                "end_time": 26.5590909,
                "pitch": 77,
                "velocity": 80,
                "duration": 0.2022727,
                "tempo": 120.0
            },
            {
                "start_time": 26.5590909,
                "end_time": 27.1590909,
                "pitch": 79,
                "velocity": 80,
                "duration": 0.6,
                "tempo": 120.0
            },
            {
                "start_time": 27.1590909,
                "end_time": 28.1636364,
                "pitch": 72,
                "velocity": 80,
                "duration": 1.0045455,
                "tempo": 120.0
            },
            {
                "start_time": 28.1636364,
                "end_time": 28.7659091,
                "pitch": 81,
                "velocity": 80,
                "duration": 0.6022727,
                "tempo": 120.0
            },
            {
                "start_time": 17.5113636,
                "end_time": 28.7681818,
                "pitch": 90,
                "velocity": 80,
                "duration": 11.2568182,
                "tempo": 120.0
            },
            {
                "start_time": 28.7659091,
                "end_time": 28.7681818,
                "pitch": 90,
                "velocity": 80,
                "duration": 0.0022727,
                "tempo": 120.0
            },
            {
                "start_time": 28.7681818,
                "end_time": 29.7704545,
                "pitch": 77,
                "velocity": 80,
                "duration": 1.0022727,
                "tempo": 120.0
            },
            {
                "start_time": 29.7704545,
                "end_time": 30.5818182,
                "pitch": 76,
                "velocity": 80,
                "duration": 0.8113636,
                "tempo": 120.0
            },
            {
                "start_time": 30.5818182,
                "end_time": 31.1863636,
                "pitch": 72,
                "velocity": 80,
                "duration": 0.6045455,
                "tempo": 120.0
            },
            {
                "start_time": 30.5840909,
                "end_time": 31.1863636,
                "pitch": 72,
                "velocity": 80,
                "duration": 0.6022727,
                "tempo": 120.0
            },
            {
                "start_time": 31.1863636,
                "end_time": 32.3909091,
                "pitch": 74,
                "velocity": 80,
                "duration": 1.2045455,
                "tempo": 120.0
            },
            {
                "start_time": 32.3909091,
                "end_time": 32.5909091,
                "pitch": 74,
                "velocity": 80,
                "duration": 0.2,
                "tempo": 120.0
            },
            {
                "start_time": 32.5909091,
                "end_time": 32.7909091,
                "pitch": 76,
                "velocity": 80,
                "duration": 0.2,
                "tempo": 120.0
            },
            {
                "start_time": 32.5909091,
                "end_time": 32.7909091,
                "pitch": 76,
                "velocity": 80,
                "duration": 0.2,
                "tempo": 120.0
            },
            {
                "start_time": 32.7909091,
                "end_time": 32.9909091,
                "pitch": 77,
                "velocity": 80,
                "duration": 0.2,
                "tempo": 120.0
            },
            {
                "start_time": 32.9909091,
                "end_time": 33.5954545,
                "pitch": 79,
                "velocity": 80,
                "duration": 0.6045455,
                "tempo": 120.0
            },
            {
                "start_time": 27.1590909,
                "end_time": 33.5954545,
                "pitch": 88,
                "velocity": 80,
                "duration": 6.4363636,
                "tempo": 120.0
            },
            {
                "start_time": 28.1636364,
                "end_time": 34.5954545,
                "pitch": 43,
                "velocity": 80,
                "duration": 6.4318182,
                "tempo": 120.0
            },
            {
                "start_time": 33.5954545,
                "end_time": 34.5954545,
                "pitch": 72,
                "velocity": 80,
                "duration": 1.0,
                "tempo": 120.0
            },
            {
                "start_time": 34.5954545,
                "end_time": 35.1977273,
                "pitch": 81,
                "velocity": 80,
                "duration": 0.6022727,
                "tempo": 120.0
            },
            {
                "start_time": 35.1977273,
                "end_time": 36.2,
                "pitch": 77,
                "velocity": 80,
                "duration": 1.0022727,
                "tempo": 120.0
            },
            {
                "start_time": 36.2,
                "end_time": 37.0022727,
                "pitch": 76,
                "velocity": 80,
                "duration": 0.8022727,
                "tempo": 120.0
            },
            {
                "start_time": 37.0022727,
                "end_time": 37.6113636,
                "pitch": 72,
                "velocity": 80,
                "duration": 0.6090909,
                "tempo": 120.0
            },
            {
                "start_time": 37.0022727,
                "end_time": 37.6113636,
                "pitch": 72,
                "velocity": 80,
                "duration": 0.6090909,
                "tempo": 120.0
            },
            {
                "start_time": 37.6113636,
                "end_time": 38.8159091,
                "pitch": 74,
                "velocity": 80,
                "duration": 1.2045455,
                "tempo": 120.0
            },
            {
                "start_time": 38.8159091,
                "end_time": 39.0136364,
                "pitch": 72,
                "velocity": 80,
                "duration": 0.1977273,
                "tempo": 120.0
            },
            {
                "start_time": 39.0136364,
                "end_time": 39.2181818,
                "pitch": 71,
                "velocity": 80,
                "duration": 0.2045455,
                "tempo": 120.0
            },
            {
                "start_time": 39.2181818,
                "end_time": 68.3477273,
                "pitch": 72,
                "velocity": 80,
                "duration": 29.1295455,
                "tempo": 120.0
            },
            {
                "start_time": 68.3477273,
                "end_time": 68.35,
                "pitch": 67,
                "velocity": 80,
                "duration": 0.0022727,
                "tempo": 120.0
            },
            {
                "start_time": 68.35,
                "end_time": 68.9522727,
                "pitch": 79,
                "velocity": 80,
                "duration": 0.6022727,
                "tempo": 120.0
            },
            {
                "start_time": 68.9522727,
                "end_time": 69.75,
                "pitch": 79,
                "velocity": 80,
                "duration": 0.7977273,
                "tempo": 120.0
            },
            {
                "start_time": 69.75,
                "end_time": 69.9545455,
                "pitch": 67,
                "velocity": 80,
                "duration": 0.2045455,
                "tempo": 120.0
            },
            {
                "start_time": 69.9545455,
                "end_time": 70.3568182,
                "pitch": 77,
                "velocity": 80,
                "duration": 0.4022727,
                "tempo": 120.0
            },
            {
                "start_time": 39.2181818,
                "end_time": 70.7590909,
                "pitch": 76,
                "velocity": 80,
                "duration": 31.5409091,
                "tempo": 120.0
            },
            {
                "start_time": 70.3568182,
                "end_time": 70.7590909,
                "pitch": 76,
                "velocity": 80,
                "duration": 0.4022727,
                "tempo": 120.0
            },
            {
                "start_time": 70.7590909,
                "end_time": 71.1590909,
                "pitch": 74,
                "velocity": 80,
                "duration": 0.4,
                "tempo": 120.0
            },
            {
                "start_time": 70.7590909,
                "end_time": 71.1590909,
                "pitch": 74,
                "velocity": 80,
                "duration": 0.4,
                "tempo": 120.0
            },
            {
                "start_time": 71.1590909,
                "end_time": 71.5636364,
                "pitch": 72,
                "velocity": 80,
                "duration": 0.4045455,
                "tempo": 120.0
            },
            {
                "start_time": 71.5636364,
                "end_time": 72.1659091,
                "pitch": 72,
                "velocity": 80,
                "duration": 0.6022727,
                "tempo": 120.0
            },
            {
                "start_time": 72.1659091,
                "end_time": 72.9704545,
                "pitch": 72,
                "velocity": 80,
                "duration": 0.8045455,
                "tempo": 120.0
            },
            {
                "start_time": 72.9704545,
                "end_time": 73.1704545,
                "pitch": 67,
                "velocity": 80,
                "duration": 0.2,
                "tempo": 120.0
            },
            {
                "start_time": 69.9545455,
                "end_time": 73.1704545,
                "pitch": 78,
                "velocity": 80,
                "duration": 3.2159091,
                "tempo": 120.0
            },
            {
                "start_time": 73.1704545,
                "end_time": 73.5727273,
                "pitch": 77,
                "velocity": 80,
                "duration": 0.4022727,
                "tempo": 120.0
            },
            {
                "start_time": 73.5727273,
                "end_time": 73.9772727,
                "pitch": 76,
                "velocity": 80,
                "duration": 0.4045455,
                "tempo": 120.0
            },
            {
                "start_time": 73.9772727,
                "end_time": 74.3772727,
                "pitch": 74,
                "velocity": 80,
                "duration": 0.4,
                "tempo": 120.0
            },
            {
                "start_time": 73.9772727,
                "end_time": 74.3772727,
                "pitch": 74,
                "velocity": 80,
                "duration": 0.4,
                "tempo": 120.0
            },
            {
                "start_time": 74.3772727,
                "end_time": 74.7795455,
                "pitch": 72,
                "velocity": 80,
                "duration": 0.4022727,
                "tempo": 120.0
            },
            {
                "start_time": 74.7795455,
                "end_time": 75.3818182,
                "pitch": 72,
                "velocity": 80,
                "duration": 0.6022727,
                "tempo": 120.0
            },
            {
                "start_time": 34.5954545,
                "end_time": 76.1886364,
                "pitch": 43,
                "velocity": 80,
                "duration": 41.5931818,
                "tempo": 120.0
            },
            {
                "start_time": 75.3818182,
                "end_time": 76.1886364,
                "pitch": 72,
                "velocity": 80,
                "duration": 0.8068182,
                "tempo": 120.0
            },
            {
                "start_time": 76.1886364,
                "end_time": 76.3886364,
                "pitch": 69,
                "velocity": 80,
                "duration": 0.2,
                "tempo": 120.0
            },
            {
                "start_time": 76.3886364,
                "end_time": 76.8,
                "pitch": 79,
                "velocity": 80,
                "duration": 0.4113636,
                "tempo": 120.0
            },
            {
                "start_time": 35.1977273,
                "end_time": 76.8,
                "pitch": 90,
                "velocity": 80,
                "duration": 41.6022727,
                "tempo": 120.0
            },
            {
                "start_time": 76.8,
                "end_time": 77.2022727,
                "pitch": 77,
                "velocity": 80,
                "duration": 0.4022727,
                "tempo": 120.0
            },
            {
                "start_time": 77.2022727,
                "end_time": 77.6068182,
                "pitch": 76,
                "velocity": 80,
                "duration": 0.4045455,
                "tempo": 120.0
            },
            {
                "start_time": 77.6068182,
                "end_time": 78.0068182,
                "pitch": 74,
                "velocity": 80,
                "duration": 0.4,
                "tempo": 120.0
            },
            {
                "start_time": 77.6068182,
                "end_time": 78.0068182,
                "pitch": 74,
                "velocity": 80,
                "duration": 0.4,
                "tempo": 120.0
            },
            {
                "start_time": 78.0068182,
                "end_time": 78.8090909,
                "pitch": 76,
                "velocity": 80,
                "duration": 0.8022727,
                "tempo": 120.0
            },
            {
                "start_time": 78.0068182,
                "end_time": 78.8090909,
                "pitch": 76,
                "velocity": 80,
                "duration": 0.8022727,
                "tempo": 120.0
            },
            {
                "start_time": 78.8090909,
                "end_time": 79.6159091,
                "pitch": 74,
                "velocity": 80,
                "duration": 0.8068182,
                "tempo": 120.0
            },
            {
                "start_time": 78.8113636,
                "end_time": 79.6159091,
                "pitch": 74,
                "velocity": 80,
                "duration": 0.8045455,
                "tempo": 120.0
            },
            {
                "start_time": 79.6159091,
                "end_time": 80.4204545,
                "pitch": 72,
                "velocity": 80,
                "duration": 0.8045455,
                "tempo": 120.0
            },
            {
                "start_time": 80.4204545,
                "end_time": 81.225,
                "pitch": 74,
                "velocity": 80,
                "duration": 0.8045455,
                "tempo": 120.0
            },
            {
                "start_time": 81.225,
                "end_time": 84.0386364,
                "pitch": 76,
                "velocity": 80,
                "duration": 2.8136364,
                "tempo": 120.0
            },
            {
                "start_time": 81.225,
                "end_time": 84.0386364,
                "pitch": 76,
                "velocity": 80,
                "duration": 2.8136364,
                "tempo": 120.0
            },
            {
                "start_time": 84.0386364,
                "end_time": 84.1409091,
                "pitch": 75,
                "velocity": 80,
                "duration": 0.1022727,
                "tempo": 120.0
            },
            {
                "start_time": 84.1409091,
                "end_time": 84.2431818,
                "pitch": 73,
                "velocity": 80,
                "duration": 0.1022727,
                "tempo": 120.0
            },
            {
                "start_time": 39.0136364,
                "end_time": 84.2454545,
                "pitch": 56,
                "velocity": 80,
                "duration": 45.2318182,
                "tempo": 120.0
            },
            {
                "start_time": 84.2431818,
                "end_time": 84.2454545,
                "pitch": 56,
                "velocity": 80,
                "duration": 0.0022727,
                "tempo": 120.0
            },
            {
                "start_time": 84.2454545,
                "end_time": 84.3477273,
                "pitch": 71,
                "velocity": 80,
                "duration": 0.1022727,
                "tempo": 120.0
            },
            {
                "start_time": 84.3477273,
                "end_time": 84.45,
                "pitch": 69,
                "velocity": 80,
                "duration": 0.1022727,
                "tempo": 120.0
            }
        ],
        "Electric Guitar (clean)": [
            {
                "start_time": 10.4454545,
                "end_time": 10.5931818,
                "pitch": 36,
                "velocity": 101,
                "duration": 0.1477273,
                "tempo": 120.0
            },
            {
                "start_time": 10.6454545,
                "end_time": 10.7954545,
                "pitch": 36,
                "velocity": 101,
                "duration": 0.15,
                "tempo": 120.0
            },
            {
                "start_time": 10.8454545,
                "end_time": 10.8954545,
                "pitch": 36,
                "velocity": 101,
                "duration": 0.05,
                "tempo": 120.0
            },
            {
                "start_time": 10.9477273,
                "end_time": 10.9977273,
                "pitch": 36,
                "velocity": 80,
                "duration": 0.05,
                "tempo": 120.0
            },
            {
                "start_time": 11.0477273,
                "end_time": 11.1977273,
                "pitch": 36,
                "velocity": 101,
                "duration": 0.15,
                "tempo": 120.0
            },
            {
                "start_time": 11.25,
                "end_time": 11.4,
                "pitch": 36,
                "velocity": 101,
                "duration": 0.15,
                "tempo": 120.0
            },
            {
                "start_time": 11.45,
                "end_time": 11.6022727,
                "pitch": 36,
                "velocity": 101,
                "duration": 0.1522727,
                "tempo": 120.0
            },
            {
                "start_time": 11.6522727,
                "end_time": 11.7022727,
                "pitch": 36,
                "velocity": 101,
                "duration": 0.05,
                "tempo": 120.0
            },
            {
                "start_time": 11.7522727,
                "end_time": 11.8022727,
                "pitch": 36,
                "velocity": 80,
                "duration": 0.05,
                "tempo": 120.0
            },
            {
                "start_time": 11.8522727,
                "end_time": 12.0022727,
                "pitch": 36,
                "velocity": 101,
                "duration": 0.15,
                "tempo": 120.0
            },
            {
                "start_time": 12.0522727,
                "end_time": 12.2045455,
                "pitch": 36,
                "velocity": 101,
                "duration": 0.1522727,
                "tempo": 120.0
            },
            {
                "start_time": 12.2545455,
                "end_time": 12.4045455,
                "pitch": 36,
                "velocity": 101,
                "duration": 0.15,
                "tempo": 120.0
            },
            {
                "start_time": 12.4568182,
                "end_time": 12.5068182,
                "pitch": 36,
                "velocity": 101,
                "duration": 0.05,
                "tempo": 120.0
            },
            {
                "start_time": 12.5568182,
                "end_time": 12.6068182,
                "pitch": 36,
                "velocity": 80,
                "duration": 0.05,
                "tempo": 120.0
            },
            {
                "start_time": 12.6590909,
                "end_time": 12.8090909,
                "pitch": 36,
                "velocity": 101,
                "duration": 0.15,
                "tempo": 120.0
            },
            {
                "start_time": 12.8590909,
                "end_time": 12.9090909,
                "pitch": 36,
                "velocity": 101,
                "duration": 0.05,
                "tempo": 120.0
            },
            {
                "start_time": 12.9613636,
                "end_time": 13.0090909,
                "pitch": 36,
                "velocity": 80,
                "duration": 0.0477273,
                "tempo": 120.0
            },
            {
                "start_time": 13.0613636,
                "end_time": 13.2113636,
                "pitch": 36,
                "velocity": 101,
                "duration": 0.15,
                "tempo": 120.0
            },
            {
                "start_time": 13.2636364,
                "end_time": 13.3136364,
                "pitch": 36,
                "velocity": 101,
                "duration": 0.05,
                "tempo": 120.0
            },
            {
                "start_time": 13.3659091,
                "end_time": 13.4159091,
                "pitch": 48,
                "velocity": 101,
                "duration": 0.05,
                "tempo": 120.0
            },
            {
                "start_time": 13.4681818,
                "end_time": 13.6227273,
                "pitch": 36,
                "velocity": 101,
                "duration": 0.1545455,
                "tempo": 120.0
            },
            {
                "start_time": 13.6795455,
                "end_time": 13.8227273,
                "pitch": 36,
                "velocity": 101,
                "duration": 0.1431818,
                "tempo": 120.0
            },
            {
                "start_time": 13.875,
                "end_time": 14.025,
                "pitch": 36,
                "velocity": 101,
                "duration": 0.15,
                "tempo": 120.0
            },
            {
                "start_time": 14.075,
                "end_time": 14.125,
                "pitch": 36,
                "velocity": 101,
                "duration": 0.05,
                "tempo": 120.0
            },
            {
                "start_time": 14.175,
                "end_time": 14.225,
                "pitch": 36,
                "velocity": 80,
                "duration": 0.05,
                "tempo": 120.0
            },
            {
                "start_time": 14.2772727,
                "end_time": 14.4272727,
                "pitch": 36,
                "velocity": 101,
                "duration": 0.15,
                "tempo": 120.0
            },
            {
                "start_time": 14.4772727,
                "end_time": 14.6295455,
                "pitch": 36,
                "velocity": 101,
                "duration": 0.1522727,
                "tempo": 120.0
            },
            {
                "start_time": 14.6795455,
                "end_time": 14.8295455,
                "pitch": 36,
                "velocity": 101,
                "duration": 0.15,
                "tempo": 120.0
            },
            {
                "start_time": 14.8818182,
                "end_time": 14.9318182,
                "pitch": 36,
                "velocity": 101,
                "duration": 0.05,
                "tempo": 120.0
            },
            {
                "start_time": 14.9818182,
                "end_time": 15.0318182,
                "pitch": 36,
                "velocity": 80,
                "duration": 0.05,
                "tempo": 120.0
            },
            {
                "start_time": 15.0818182,
                "end_time": 15.2340909,
                "pitch": 36,
                "velocity": 101,
                "duration": 0.1522727,
                "tempo": 120.0
            },
            {
                "start_time": 15.2840909,
                "end_time": 15.4340909,
                "pitch": 36,
                "velocity": 101,
                "duration": 0.15,
                "tempo": 120.0
            },
            {
                "start_time": 15.4863636,
                "end_time": 15.6363636,
                "pitch": 36,
                "velocity": 101,
                "duration": 0.15,
                "tempo": 120.0
            },
            {
                "start_time": 15.6863636,
                "end_time": 15.7363636,
                "pitch": 36,
                "velocity": 101,
                "duration": 0.05,
                "tempo": 120.0
            },
            {
                "start_time": 15.7886364,
                "end_time": 15.8363636,
                "pitch": 36,
                "velocity": 80,
                "duration": 0.0477273,
                "tempo": 120.0
            },
            {
                "start_time": 15.8886364,
                "end_time": 16.0363636,
                "pitch": 36,
                "velocity": 101,
                "duration": 0.1477273,
                "tempo": 120.0
            },
            {
                "start_time": 16.0886364,
                "end_time": 16.1386364,
                "pitch": 36,
                "velocity": 101,
                "duration": 0.05,
                "tempo": 120.0
            },
            {
                "start_time": 16.1886364,
                "end_time": 16.2386364,
                "pitch": 36,
                "velocity": 80,
                "duration": 0.05,
                "tempo": 120.0
            },
            {
                "start_time": 16.2909091,
                "end_time": 16.4409091,
                "pitch": 36,
                "velocity": 101,
                "duration": 0.15,
                "tempo": 120.0
            },
            {
                "start_time": 16.4909091,
                "end_time": 16.5409091,
                "pitch": 36,
                "velocity": 101,
                "duration": 0.05,
                "tempo": 120.0
            },
            {
                "start_time": 16.5909091,
                "end_time": 16.6409091,
                "pitch": 48,
                "velocity": 101,
                "duration": 0.05,
                "tempo": 120.0
            },
            {
                "start_time": 16.6931818,
                "end_time": 16.8431818,
                "pitch": 36,
                "velocity": 101,
                "duration": 0.15,
                "tempo": 120.0
            },
            {
                "start_time": 16.8954545,
                "end_time": 17.0431818,
                "pitch": 36,
                "velocity": 101,
                "duration": 0.1477273,
                "tempo": 120.0
            },
            {
                "start_time": 17.0954545,
                "end_time": 17.2431818,
                "pitch": 36,
                "velocity": 101,
                "duration": 0.1477273,
                "tempo": 120.0
            },
            {
                "start_time": 17.2954545,
                "end_time": 17.3454545,
                "pitch": 36,
                "velocity": 101,
                "duration": 0.05,
                "tempo": 120.0
            },
            {
                "start_time": 17.3954545,
                "end_time": 17.4454545,
                "pitch": 36,
                "velocity": 80,
                "duration": 0.05,
                "tempo": 120.0
            },
            {
                "start_time": 17.4977273,
                "end_time": 17.6454545,
                "pitch": 36,
                "velocity": 101,
                "duration": 0.1477273,
                "tempo": 120.0
            },
            {
                "start_time": 17.6954545,
                "end_time": 17.8454545,
                "pitch": 36,
                "velocity": 101,
                "duration": 0.15,
                "tempo": 120.0
            },
            {
                "start_time": 17.8977273,
                "end_time": 18.0477273,
                "pitch": 36,
                "velocity": 101,
                "duration": 0.15,
                "tempo": 120.0
            },
            {
                "start_time": 18.0977273,
                "end_time": 18.1477273,
                "pitch": 36,
                "velocity": 101,
                "duration": 0.05,
                "tempo": 120.0
            },
            {
                "start_time": 18.2,
                "end_time": 18.2477273,
                "pitch": 36,
                "velocity": 80,
                "duration": 0.0477273,
                "tempo": 120.0
            },
            {
                "start_time": 18.3,
                "end_time": 18.4477273,
                "pitch": 36,
                "velocity": 101,
                "duration": 0.1477273,
                "tempo": 120.0
            },
            {
                "start_time": 18.5,
                "end_time": 18.65,
                "pitch": 36,
                "velocity": 101,
                "duration": 0.15,
                "tempo": 120.0
            },
            {
                "start_time": 18.7,
                "end_time": 18.8522727,
                "pitch": 36,
                "velocity": 101,
                "duration": 0.1522727,
                "tempo": 120.0
            },
            {
                "start_time": 18.9022727,
                "end_time": 18.9522727,
                "pitch": 36,
                "velocity": 101,
                "duration": 0.05,
                "tempo": 120.0
            },
            {
                "start_time": 19.0022727,
                "end_time": 19.0522727,
                "pitch": 36,
                "velocity": 80,
                "duration": 0.05,
                "tempo": 120.0
            },
            {
                "start_time": 19.1022727,
                "end_time": 19.2522727,
                "pitch": 36,
                "velocity": 101,
                "duration": 0.15,
                "tempo": 120.0
            },
            {
                "start_time": 19.3022727,
                "end_time": 19.3522727,
                "pitch": 36,
                "velocity": 101,
                "duration": 0.05,
                "tempo": 120.0
            },
            {
                "start_time": 19.4022727,
                "end_time": 19.4522727,
                "pitch": 36,
                "velocity": 80,
                "duration": 0.05,
                "tempo": 120.0
            },
            {
                "start_time": 19.5022727,
                "end_time": 19.6522727,
                "pitch": 36,
                "velocity": 101,
                "duration": 0.15,
                "tempo": 120.0
            },
            {
                "start_time": 19.7022727,
                "end_time": 19.7522727,
                "pitch": 36,
                "velocity": 101,
                "duration": 0.05,
                "tempo": 120.0
            },
            {
                "start_time": 19.8045455,
                "end_time": 19.8545455,
                "pitch": 48,
                "velocity": 101,
                "duration": 0.05,
                "tempo": 120.0
            },
            {
                "start_time": 19.9045455,
                "end_time": 20.0545455,
                "pitch": 36,
                "velocity": 101,
                "duration": 0.15,
                "tempo": 120.0
            },
            {
                "start_time": 20.1090909,
                "end_time": 20.2568182,
                "pitch": 36,
                "velocity": 101,
                "duration": 0.1477273,
                "tempo": 120.0
            },
            {
                "start_time": 20.3068182,
                "end_time": 20.4568182,
                "pitch": 36,
                "velocity": 101,
                "duration": 0.15,
                "tempo": 120.0
            },
            {
                "start_time": 20.5068182,
                "end_time": 20.5568182,
                "pitch": 36,
                "velocity": 101,
                "duration": 0.05,
                "tempo": 120.0
            },
            {
                "start_time": 20.6090909,
                "end_time": 20.6568182,
                "pitch": 36,
                "velocity": 80,
                "duration": 0.0477273,
                "tempo": 120.0
            },
            {
                "start_time": 20.7090909,
                "end_time": 20.8590909,
                "pitch": 36,
                "velocity": 101,
                "duration": 0.15,
                "tempo": 120.0
            },
            {
                "start_time": 20.9113636,
                "end_time": 21.0590909,
                "pitch": 36,
                "velocity": 101,
                "duration": 0.1477273,
                "tempo": 120.0
            },
            {
                "start_time": 21.1113636,
                "end_time": 21.2590909,
                "pitch": 36,
                "velocity": 101,
                "duration": 0.1477273,
                "tempo": 120.0
            },
            {
                "start_time": 21.3113636,
                "end_time": 21.3613636,
                "pitch": 36,
                "velocity": 101,
                "duration": 0.05,
                "tempo": 120.0
            },
            {
                "start_time": 21.4136364,
                "end_time": 21.4636364,
                "pitch": 36,
                "velocity": 80,
                "duration": 0.05,
                "tempo": 120.0
            },
            {
                "start_time": 21.5159091,
                "end_time": 21.6704545,
                "pitch": 36,
                "velocity": 101,
                "duration": 0.1545455,
                "tempo": 120.0
            },
            {
                "start_time": 21.7227273,
                "end_time": 21.8681818,
                "pitch": 36,
                "velocity": 101,
                "duration": 0.1454545,
                "tempo": 120.0
            },
            {
                "start_time": 21.9181818,
                "end_time": 22.0659091,
                "pitch": 36,
                "velocity": 101,
                "duration": 0.1477273,
                "tempo": 120.0
            },
            {
                "start_time": 22.1136364,
                "end_time": 22.1659091,
                "pitch": 36,
                "velocity": 101,
                "duration": 0.0522727,
                "tempo": 120.0
            },
            {
                "start_time": 22.2181818,
                "end_time": 22.2681818,
                "pitch": 36,
                "velocity": 80,
                "duration": 0.05,
                "tempo": 120.0
            },
            {
                "start_time": 22.3204545,
                "end_time": 22.4727273,
                "pitch": 36,
                "velocity": 101,
                "duration": 0.1522727,
                "tempo": 120.0
            },
            {
                "start_time": 22.5272727,
                "end_time": 22.575,
                "pitch": 36,
                "velocity": 101,
                "duration": 0.0477273,
                "tempo": 120.0
            },
            {
                "start_time": 22.6272727,
                "end_time": 22.675,
                "pitch": 36,
                "velocity": 80,
                "duration": 0.0477273,
                "tempo": 120.0
            },
            {
                "start_time": 22.7272727,
                "end_time": 22.875,
                "pitch": 36,
                "velocity": 101,
                "duration": 0.1477273,
                "tempo": 120.0
            },
            {
                "start_time": 22.9272727,
                "end_time": 22.975,
                "pitch": 36,
                "velocity": 101,
                "duration": 0.0477273,
                "tempo": 120.0
            },
            {
                "start_time": 23.0272727,
                "end_time": 23.075,
                "pitch": 48,
                "velocity": 101,
                "duration": 0.0477273,
                "tempo": 120.0
            },
            {
                "start_time": 23.1272727,
                "end_time": 23.2772727,
                "pitch": 36,
                "velocity": 101,
                "duration": 0.15,
                "tempo": 120.0
            },
            {
                "start_time": 23.3295455,
                "end_time": 23.4772727,
                "pitch": 38,
                "velocity": 101,
                "duration": 0.1477273,
                "tempo": 120.0
            },
            {
                "start_time": 23.5295455,
                "end_time": 23.6795455,
                "pitch": 38,
                "velocity": 101,
                "duration": 0.15,
                "tempo": 120.0
            },
            {
                "start_time": 23.7295455,
                "end_time": 23.7795455,
                "pitch": 38,
                "velocity": 101,
                "duration": 0.05,
                "tempo": 120.0
            },
            {
                "start_time": 23.8318182,
                "end_time": 23.8795455,
                "pitch": 38,
                "velocity": 80,
                "duration": 0.0477273,
                "tempo": 120.0
            },
            {
                "start_time": 23.9318182,
                "end_time": 24.0795455,
                "pitch": 38,
                "velocity": 101,
                "duration": 0.1477273,
                "tempo": 120.0
            },
            {
                "start_time": 24.1318182,
                "end_time": 24.2818182,
                "pitch": 38,
                "velocity": 101,
                "duration": 0.15,
                "tempo": 120.0
            },
            {
                "start_time": 24.3318182,
                "end_time": 24.4818182,
                "pitch": 38,
                "velocity": 101,
                "duration": 0.15,
                "tempo": 120.0
            },
            {
                "start_time": 24.5340909,
                "end_time": 24.5840909,
                "pitch": 38,
                "velocity": 101,
                "duration": 0.05,
                "tempo": 120.0
            },
            {
                "start_time": 24.6340909,
                "end_time": 24.6840909,
                "pitch": 38,
                "velocity": 80,
                "duration": 0.05,
                "tempo": 120.0
            },
            {
                "start_time": 24.7340909,
                "end_time": 24.8840909,
                "pitch": 38,
                "velocity": 101,
                "duration": 0.15,
                "tempo": 120.0
            },
            {
                "start_time": 24.9340909,
                "end_time": 25.0840909,
                "pitch": 38,
                "velocity": 101,
                "duration": 0.15,
                "tempo": 120.0
            },
            {
                "start_time": 25.1340909,
                "end_time": 25.2840909,
                "pitch": 38,
                "velocity": 101,
                "duration": 0.15,
                "tempo": 120.0
            },
            {
                "start_time": 25.3340909,
                "end_time": 25.3840909,
                "pitch": 38,
                "velocity": 101,
                "duration": 0.05,
                "tempo": 120.0
            },
            {
                "start_time": 25.4363636,
                "end_time": 25.4863636,
                "pitch": 38,
                "velocity": 80,
                "duration": 0.05,
                "tempo": 120.0
            },
            {
                "start_time": 25.5363636,
                "end_time": 25.6863636,
                "pitch": 38,
                "velocity": 101,
                "duration": 0.15,
                "tempo": 120.0
            },
            {
                "start_time": 25.7386364,
                "end_time": 25.7886364,
                "pitch": 38,
                "velocity": 101,
                "duration": 0.05,
                "tempo": 120.0
            },
            {
                "start_time": 25.8386364,
                "end_time": 25.8886364,
                "pitch": 38,
                "velocity": 80,
                "duration": 0.05,
                "tempo": 120.0
            },
            {
                "start_time": 25.9386364,
                "end_time": 25.9886364,
                "pitch": 38,
                "velocity": 101,
                "duration": 0.05,
                "tempo": 120.0
            },
            {
                "start_time": 26.0386364,
                "end_time": 26.1886364,
                "pitch": 38,
                "velocity": 101,
                "duration": 0.15,
                "tempo": 120.0
            },
            {
                "start_time": 26.2386364,
                "end_time": 26.2886364,
                "pitch": 38,
                "velocity": 101,
                "duration": 0.05,
                "tempo": 120.0
            },
            {
                "start_time": 26.3409091,
                "end_time": 26.4909091,
                "pitch": 38,
                "velocity": 101,
                "duration": 0.15,
                "tempo": 120.0
            },
            {
                "start_time": 26.5431818,
                "end_time": 26.6909091,
                "pitch": 36,
                "velocity": 101,
                "duration": 0.1477273,
                "tempo": 120.0
            },
            {
                "start_time": 26.7431818,
                "end_time": 26.8909091,
                "pitch": 36,
                "velocity": 101,
                "duration": 0.1477273,
                "tempo": 120.0
            },
            {
                "start_time": 26.9431818,
                "end_time": 26.9909091,
                "pitch": 36,
                "velocity": 101,
                "duration": 0.0477273,
                "tempo": 120.0
            },
            {
                "start_time": 27.0431818,
                "end_time": 27.0909091,
                "pitch": 36,
                "velocity": 80,
                "duration": 0.0477273,
                "tempo": 120.0
            },
            {
                "start_time": 27.1431818,
                "end_time": 27.2931818,
                "pitch": 36,
                "velocity": 101,
                "duration": 0.15,
                "tempo": 120.0
            },
            {
                "start_time": 27.3431818,
                "end_time": 27.4931818,
                "pitch": 36,
                "velocity": 101,
                "duration": 0.15,
                "tempo": 120.0
            },
            {
                "start_time": 27.5454545,
                "end_time": 27.6954545,
                "pitch": 36,
                "velocity": 101,
                "duration": 0.15,
                "tempo": 120.0
            },
            {
                "start_time": 27.7454545,
                "end_time": 27.7954545,
                "pitch": 36,
                "velocity": 101,
                "duration": 0.05,
                "tempo": 120.0
            },
            {
                "start_time": 27.8454545,
                "end_time": 27.8954545,
                "pitch": 36,
                "velocity": 80,
                "duration": 0.05,
                "tempo": 120.0
            },
            {
                "start_time": 27.9454545,
                "end_time": 28.0954545,
                "pitch": 36,
                "velocity": 101,
                "duration": 0.15,
                "tempo": 120.0
            },
            {
                "start_time": 28.1477273,
                "end_time": 28.2977273,
                "pitch": 41,
                "velocity": 101,
                "duration": 0.15,
                "tempo": 120.0
            },
            {
                "start_time": 28.3477273,
                "end_time": 28.5,
                "pitch": 41,
                "velocity": 101,
                "duration": 0.1522727,
                "tempo": 120.0
            },
            {
                "start_time": 28.55,
                "end_time": 28.6,
                "pitch": 41,
                "velocity": 101,
                "duration": 0.05,
                "tempo": 120.0
            },
            {
                "start_time": 28.65,
                "end_time": 28.7,
                "pitch": 41,
                "velocity": 80,
                "duration": 0.05,
                "tempo": 120.0
            },
            {
                "start_time": 28.7522727,
                "end_time": 28.9,
                "pitch": 41,
                "velocity": 101,
                "duration": 0.1477273,
                "tempo": 120.0
            },
            {
                "start_time": 28.95,
                "end_time": 29.0,
                "pitch": 41,
                "velocity": 101,
                "duration": 0.05,
                "tempo": 120.0
            },
            {
                "start_time": 29.05,
                "end_time": 29.1,
                "pitch": 41,
                "velocity": 80,
                "duration": 0.05,
                "tempo": 120.0
            },
            {
                "start_time": 29.15,
                "end_time": 29.3,
                "pitch": 41,
                "velocity": 101,
                "duration": 0.15,
                "tempo": 120.0
            },
            {
                "start_time": 29.35,
                "end_time": 29.4,
                "pitch": 41,
                "velocity": 101,
                "duration": 0.05,
                "tempo": 120.0
            },
            {
                "start_time": 29.4522727,
                "end_time": 29.5022727,
                "pitch": 53,
                "velocity": 101,
                "duration": 0.05,
                "tempo": 120.0
            },
            {
                "start_time": 29.5522727,
                "end_time": 29.7022727,
                "pitch": 41,
                "velocity": 101,
                "duration": 0.15,
                "tempo": 120.0
            },
            {
                "start_time": 29.7545455,
                "end_time": 29.9045455,
                "pitch": 36,
                "velocity": 101,
                "duration": 0.15,
                "tempo": 120.0
            },
            {
                "start_time": 29.9545455,
                "end_time": 30.1045455,
                "pitch": 36,
                "velocity": 101,
                "duration": 0.15,
                "tempo": 120.0
            },
            {
                "start_time": 30.1545455,
                "end_time": 30.2045455,
                "pitch": 36,
                "velocity": 101,
                "duration": 0.05,
                "tempo": 120.0
            },
            {
                "start_time": 30.2568182,
                "end_time": 30.3090909,
                "pitch": 36,
                "velocity": 80,
                "duration": 0.0522727,
                "tempo": 120.0
            },
            {
                "start_time": 30.3613636,
                "end_time": 30.5136364,
                "pitch": 36,
                "velocity": 101,
                "duration": 0.1522727,
                "tempo": 120.0
            },
            {
                "start_time": 30.5659091,
                "end_time": 30.7159091,
                "pitch": 36,
                "velocity": 101,
                "duration": 0.15,
                "tempo": 120.0
            },
            {
                "start_time": 30.7681818,
                "end_time": 30.9181818,
                "pitch": 36,
                "velocity": 101,
                "duration": 0.15,
                "tempo": 120.0
            },
            {
                "start_time": 30.9681818,
                "end_time": 31.0181818,
                "pitch": 36,
                "velocity": 101,
                "duration": 0.05,
                "tempo": 120.0
            },
            {
                "start_time": 31.0704545,
                "end_time": 31.1181818,
                "pitch": 36,
                "velocity": 80,
                "duration": 0.0477273,
                "tempo": 120.0
            },
            {
                "start_time": 31.1704545,
                "end_time": 31.3181818,
                "pitch": 36,
                "velocity": 101,
                "duration": 0.1477273,
                "tempo": 120.0
            },
            {
                "start_time": 31.3704545,
                "end_time": 31.5204545,
                "pitch": 43,
                "velocity": 101,
                "duration": 0.15,
                "tempo": 120.0
            },
            {
                "start_time": 31.5704545,
                "end_time": 31.7204545,
                "pitch": 43,
                "velocity": 101,
                "duration": 0.15,
                "tempo": 120.0
            },
            {
                "start_time": 31.7704545,
                "end_time": 31.8204545,
                "pitch": 43,
                "velocity": 101,
                "duration": 0.05,
                "tempo": 120.0
            },
            {
                "start_time": 31.8704545,
                "end_time": 31.9204545,
                "pitch": 43,
                "velocity": 80,
                "duration": 0.05,
                "tempo": 120.0
            },
            {
                "start_time": 31.9727273,
                "end_time": 32.1227273,
                "pitch": 43,
                "velocity": 101,
                "duration": 0.15,
                "tempo": 120.0
            },
            {
                "start_time": 32.1727273,
                "end_time": 32.2227273,
                "pitch": 43,
                "velocity": 101,
                "duration": 0.05,
                "tempo": 120.0
            },
            {
                "start_time": 32.275,
                "end_time": 32.3227273,
                "pitch": 43,
                "velocity": 80,
                "duration": 0.0477273,
                "tempo": 120.0
            },
            {
                "start_time": 32.375,
                "end_time": 32.5227273,
                "pitch": 43,
                "velocity": 101,
                "duration": 0.1477273,
                "tempo": 120.0
            },
            {
                "start_time": 32.575,
                "end_time": 32.6227273,
                "pitch": 43,
                "velocity": 101,
                "duration": 0.0477273,
                "tempo": 120.0
            },
            {
                "start_time": 32.675,
                "end_time": 32.7227273,
                "pitch": 55,
                "velocity": 101,
                "duration": 0.0477273,
                "tempo": 120.0
            },
            {
                "start_time": 32.775,
                "end_time": 32.925,
                "pitch": 43,
                "velocity": 101,
                "duration": 0.15,
                "tempo": 120.0
            },
            {
                "start_time": 32.975,
                "end_time": 33.125,
                "pitch": 36,
                "velocity": 101,
                "duration": 0.15,
                "tempo": 120.0
            },
            {
                "start_time": 33.1772727,
                "end_time": 33.3272727,
                "pitch": 36,
                "velocity": 101,
                "duration": 0.15,
                "tempo": 120.0
            },
            {
                "start_time": 33.3772727,
                "end_time": 33.4272727,
                "pitch": 36,
                "velocity": 101,
                "duration": 0.05,
                "tempo": 120.0
            },
            {
                "start_time": 33.4772727,
                "end_time": 33.5272727,
                "pitch": 36,
                "velocity": 80,
                "duration": 0.05,
                "tempo": 120.0
            },
            {
                "start_time": 33.5795455,
                "end_time": 33.7272727,
                "pitch": 36,
                "velocity": 101,
                "duration": 0.1477273,
                "tempo": 120.0
            },
            {
                "start_time": 33.7772727,
                "end_time": 33.9272727,
                "pitch": 36,
                "velocity": 101,
                "duration": 0.15,
                "tempo": 120.0
            },
            {
                "start_time": 33.9795455,
                "end_time": 34.1272727,
                "pitch": 36,
                "velocity": 101,
                "duration": 0.1477273,
                "tempo": 120.0
            },
            {
                "start_time": 34.1795455,
                "end_time": 34.2272727,
                "pitch": 36,
                "velocity": 101,
                "duration": 0.0477273,
                "tempo": 120.0
            },
            {
                "start_time": 34.2795455,
                "end_time": 34.3272727,
                "pitch": 36,
                "velocity": 80,
                "duration": 0.0477273,
                "tempo": 120.0
            },
            {
                "start_time": 34.3795455,
                "end_time": 34.5295455,
                "pitch": 36,
                "velocity": 101,
                "duration": 0.15,
                "tempo": 120.0
            },
            {
                "start_time": 34.5795455,
                "end_time": 34.7295455,
                "pitch": 41,
                "velocity": 101,
                "duration": 0.15,
                "tempo": 120.0
            },
            {
                "start_time": 34.7795455,
                "end_time": 34.9295455,
                "pitch": 41,
                "velocity": 101,
                "duration": 0.15,
                "tempo": 120.0
            },
            {
                "start_time": 34.9795455,
                "end_time": 35.0295455,
                "pitch": 41,
                "velocity": 101,
                "duration": 0.05,
                "tempo": 120.0
            },
            {
                "start_time": 35.0818182,
                "end_time": 35.1295455,
                "pitch": 41,
                "velocity": 80,
                "duration": 0.0477273,
                "tempo": 120.0
            },
            {
                "start_time": 35.1818182,
                "end_time": 35.3318182,
                "pitch": 41,
                "velocity": 101,
                "duration": 0.15,
                "tempo": 120.0
            },
            {
                "start_time": 35.3840909,
                "end_time": 35.4318182,
                "pitch": 41,
                "velocity": 101,
                "duration": 0.0477273,
                "tempo": 120.0
            },
            {
                "start_time": 35.4840909,
                "end_time": 35.5318182,
                "pitch": 41,
                "velocity": 80,
                "duration": 0.0477273,
                "tempo": 120.0
            },
            {
                "start_time": 35.5840909,
                "end_time": 35.7318182,
                "pitch": 41,
                "velocity": 101,
                "duration": 0.1477273,
                "tempo": 120.0
            },
            {
                "start_time": 35.7840909,
                "end_time": 35.8340909,
                "pitch": 41,
                "velocity": 101,
                "duration": 0.05,
                "tempo": 120.0
            },
            {
                "start_time": 35.8840909,
                "end_time": 35.9340909,
                "pitch": 53,
                "velocity": 101,
                "duration": 0.05,
                "tempo": 120.0
            },
            {
                "start_time": 35.9840909,
                "end_time": 36.1340909,
                "pitch": 41,
                "velocity": 101,
                "duration": 0.15,
                "tempo": 120.0
            },
            {
                "start_time": 36.1840909,
                "end_time": 36.3340909,
                "pitch": 36,
                "velocity": 101,
                "duration": 0.15,
                "tempo": 120.0
            },
            {
                "start_time": 36.3840909,
                "end_time": 36.5340909,
                "pitch": 36,
                "velocity": 101,
                "duration": 0.15,
                "tempo": 120.0
            },
            {
                "start_time": 36.5840909,
                "end_time": 36.6340909,
                "pitch": 36,
                "velocity": 101,
                "duration": 0.05,
                "tempo": 120.0
            },
            {
                "start_time": 36.6840909,
                "end_time": 36.7340909,
                "pitch": 36,
                "velocity": 80,
                "duration": 0.05,
                "tempo": 120.0
            },
            {
                "start_time": 36.7840909,
                "end_time": 36.9340909,
                "pitch": 36,
                "velocity": 101,
                "duration": 0.15,
                "tempo": 120.0
            },
            {
                "start_time": 36.9863636,
                "end_time": 37.1363636,
                "pitch": 36,
                "velocity": 101,
                "duration": 0.15,
                "tempo": 120.0
            },
            {
                "start_time": 37.1863636,
                "end_time": 37.3363636,
                "pitch": 36,
                "velocity": 101,
                "duration": 0.15,
                "tempo": 120.0
            },
            {
                "start_time": 37.3886364,
                "end_time": 37.4386364,
                "pitch": 36,
                "velocity": 101,
                "duration": 0.05,
                "tempo": 120.0
            },
            {
                "start_time": 37.4909091,
                "end_time": 37.5409091,
                "pitch": 36,
                "velocity": 80,
                "duration": 0.05,
                "tempo": 120.0
            },
            {
                "start_time": 37.5954545,
                "end_time": 37.7477273,
                "pitch": 36,
                "velocity": 101,
                "duration": 0.1522727,
                "tempo": 120.0
            },
            {
                "start_time": 37.8,
                "end_time": 37.9454545,
                "pitch": 43,
                "velocity": 101,
                "duration": 0.1454545,
                "tempo": 120.0
            },
            {
                "start_time": 37.9954545,
                "end_time": 38.1431818,
                "pitch": 43,
                "velocity": 101,
                "duration": 0.1477273,
                "tempo": 120.0
            },
            {
                "start_time": 38.1931818,
                "end_time": 38.2431818,
                "pitch": 43,
                "velocity": 101,
                "duration": 0.05,
                "tempo": 120.0
            },
            {
                "start_time": 38.2954545,
                "end_time": 38.3454545,
                "pitch": 43,
                "velocity": 80,
                "duration": 0.05,
                "tempo": 120.0
            },
            {
                "start_time": 38.3977273,
                "end_time": 38.5522727,
                "pitch": 43,
                "velocity": 101,
                "duration": 0.1545455,
                "tempo": 120.0
            },
            {
                "start_time": 38.6022727,
                "end_time": 38.6522727,
                "pitch": 43,
                "velocity": 101,
                "duration": 0.05,
                "tempo": 120.0
            },
            {
                "start_time": 38.7022727,
                "end_time": 38.75,
                "pitch": 43,
                "velocity": 80,
                "duration": 0.0477273,
                "tempo": 120.0
            },
            {
                "start_time": 38.8,
                "end_time": 38.9454545,
                "pitch": 43,
                "velocity": 101,
                "duration": 0.1454545,
                "tempo": 120.0
            },
            {
                "start_time": 38.9977273,
                "end_time": 39.0454545,
                "pitch": 43,
                "velocity": 101,
                "duration": 0.0477273,
                "tempo": 120.0
            },
            {
                "start_time": 39.0977273,
                "end_time": 39.15,
                "pitch": 55,
                "velocity": 101,
                "duration": 0.0522727,
                "tempo": 120.0
            },
            {
                "start_time": 39.2022727,
                "end_time": 39.3545455,
                "pitch": 43,
                "velocity": 101,
                "duration": 0.1522727,
                "tempo": 120.0
            },
            {
                "start_time": 39.4090909,
                "end_time": 39.5568182,
                "pitch": 36,
                "velocity": 101,
                "duration": 0.1477273,
                "tempo": 120.0
            },
            {
                "start_time": 39.6068182,
                "end_time": 39.7568182,
                "pitch": 36,
                "velocity": 101,
                "duration": 0.15,
                "tempo": 120.0
            },
            {
                "start_time": 39.8068182,
                "end_time": 39.8568182,
                "pitch": 36,
                "velocity": 101,
                "duration": 0.05,
                "tempo": 120.0
            },
            {
                "start_time": 39.9090909,
                "end_time": 39.9568182,
                "pitch": 36,
                "velocity": 80,
                "duration": 0.0477273,
                "tempo": 120.0
            },
            {
                "start_time": 40.0090909,
                "end_time": 40.1568182,
                "pitch": 36,
                "velocity": 101,
                "duration": 0.1477273,
                "tempo": 120.0
            },
            {
                "start_time": 40.2090909,
                "end_time": 40.3568182,
                "pitch": 36,
                "velocity": 101,
                "duration": 0.1477273,
                "tempo": 120.0
            },
            {
                "start_time": 40.4090909,
                "end_time": 40.5590909,
                "pitch": 36,
                "velocity": 101,
                "duration": 0.15,
                "tempo": 120.0
            },
            {
                "start_time": 40.6090909,
                "end_time": 40.6590909,
                "pitch": 36,
                "velocity": 101,
                "duration": 0.05,
                "tempo": 120.0
            },
            {
                "start_time": 40.7090909,
                "end_time": 40.7590909,
                "pitch": 36,
                "velocity": 80,
                "duration": 0.05,
                "tempo": 120.0
            },
            {
                "start_time": 40.8113636,
                "end_time": 40.9613636,
                "pitch": 36,
                "velocity": 101,
                "duration": 0.15,
                "tempo": 120.0
            },
            {
                "start_time": 41.0113636,
                "end_time": 41.1613636,
                "pitch": 36,
                "velocity": 101,
                "duration": 0.15,
                "tempo": 120.0
            },
            {
                "start_time": 41.2113636,
                "end_time": 41.3613636,
                "pitch": 36,
                "velocity": 101,
                "duration": 0.15,
                "tempo": 120.0
            },
            {
                "start_time": 41.4113636,
                "end_time": 41.4613636,
                "pitch": 36,
                "velocity": 101,
                "duration": 0.05,
                "tempo": 120.0
            },
            {
                "start_time": 41.5136364,
                "end_time": 41.5613636,
                "pitch": 36,
                "velocity": 80,
                "duration": 0.0477273,
                "tempo": 120.0
            },
            {
                "start_time": 41.6136364,
                "end_time": 41.7613636,
                "pitch": 36,
                "velocity": 101,
                "duration": 0.1477273,
                "tempo": 120.0
            },
            {
                "start_time": 41.8136364,
                "end_time": 41.8613636,
                "pitch": 36,
                "velocity": 101,
                "duration": 0.0477273,
                "tempo": 120.0
            },
            {
                "start_time": 41.9136364,
                "end_time": 41.9636364,
                "pitch": 36,
                "velocity": 80,
                "duration": 0.05,
                "tempo": 120.0
            },
            {
                "start_time": 42.0136364,
                "end_time": 42.0636364,
                "pitch": 36,
                "velocity": 101,
                "duration": 0.05,
                "tempo": 120.0
            },
            {
                "start_time": 42.1136364,
                "end_time": 42.2636364,
                "pitch": 36,
                "velocity": 101,
                "duration": 0.15,
                "tempo": 120.0
            },
            {
                "start_time": 42.3136364,
                "end_time": 42.3636364,
                "pitch": 36,
                "velocity": 101,
                "duration": 0.05,
                "tempo": 120.0
            },
            {
                "start_time": 42.4159091,
                "end_time": 42.5636364,
                "pitch": 36,
                "velocity": 101,
                "duration": 0.1477273,
                "tempo": 120.0
            },
            {
                "start_time": 42.6159091,
                "end_time": 42.8159091,
                "pitch": 33,
                "velocity": 101,
                "duration": 0.2,
                "tempo": 120.0
            },
            {
                "start_time": 42.8159091,
                "end_time": 43.0159091,
                "pitch": 28,
                "velocity": 101,
                "duration": 0.2,
                "tempo": 120.0
            },
            {
                "start_time": 43.0181818,
                "end_time": 43.2181818,
                "pitch": 33,
                "velocity": 101,
                "duration": 0.2,
                "tempo": 120.0
            },
            {
                "start_time": 42.8159091,
                "end_time": 43.2181818,
                "pitch": 42,
                "velocity": 101,
                "duration": 0.4022727,
                "tempo": 120.0
            },
            {
                "start_time": 43.2181818,
                "end_time": 43.4181818,
                "pitch": 40,
                "velocity": 101,
                "duration": 0.2,
                "tempo": 120.0
            },
            {
                "start_time": 43.4181818,
                "end_time": 43.6181818,
                "pitch": 38,
                "velocity": 101,
                "duration": 0.2,
                "tempo": 120.0
            },
            {
                "start_time": 43.6181818,
                "end_time": 43.8181818,
                "pitch": 36,
                "velocity": 101,
                "duration": 0.2,
                "tempo": 120.0
            },
            {
                "start_time": 43.6181818,
                "end_time": 43.8181818,
                "pitch": 36,
                "velocity": 101,
                "duration": 0.2,
                "tempo": 120.0
            },
            {
                "start_time": 43.8181818,
                "end_time": 43.8204545,
                "pitch": 20,
                "velocity": 101,
                "duration": 0.0022727,
                "tempo": 120.0
            },
            {
                "start_time": 43.8204545,
                "end_time": 44.0181818,
                "pitch": 35,
                "velocity": 101,
                "duration": 0.1977273,
                "tempo": 120.0
            },
            {
                "start_time": 44.0181818,
                "end_time": 44.2204545,
                "pitch": 33,
                "velocity": 101,
                "duration": 0.2022727,
                "tempo": 120.0
            },
            {
                "start_time": 44.2204545,
                "end_time": 44.4181818,
                "pitch": 31,
                "velocity": 101,
                "duration": 0.1977273,
                "tempo": 120.0
            },
            {
                "start_time": 44.2204545,
                "end_time": 44.4181818,
                "pitch": 31,
                "velocity": 101,
                "duration": 0.1977273,
                "tempo": 120.0
            },
            {
                "start_time": 44.4181818,
                "end_time": 44.6181818,
                "pitch": 26,
                "velocity": 101,
                "duration": 0.2,
                "tempo": 120.0
            },
            {
                "start_time": 44.6181818,
                "end_time": 44.8204545,
                "pitch": 31,
                "velocity": 101,
                "duration": 0.2022727,
                "tempo": 120.0
            },
            {
                "start_time": 44.4181818,
                "end_time": 44.8227273,
                "pitch": 41,
                "velocity": 101,
                "duration": 0.4045455,
                "tempo": 120.0
            },
            {
                "start_time": 44.8204545,
                "end_time": 44.8227273,
                "pitch": 41,
                "velocity": 101,
                "duration": 0.0022727,
                "tempo": 120.0
            },
            {
                "start_time": 44.8227273,
                "end_time": 45.0227273,
                "pitch": 38,
                "velocity": 101,
                "duration": 0.2,
                "tempo": 120.0
            },
            {
                "start_time": 45.0227273,
                "end_time": 45.2227273,
                "pitch": 36,
                "velocity": 101,
                "duration": 0.2,
                "tempo": 120.0
            },
            {
                "start_time": 45.0227273,
                "end_time": 45.2227273,
                "pitch": 36,
                "velocity": 101,
                "duration": 0.2,
                "tempo": 120.0
            },
            {
                "start_time": 45.2227273,
                "end_time": 45.425,
                "pitch": 35,
                "velocity": 101,
                "duration": 0.2022727,
                "tempo": 120.0
            },
            {
                "start_time": 45.425,
                "end_time": 45.6272727,
                "pitch": 33,
                "velocity": 101,
                "duration": 0.2022727,
                "tempo": 120.0
            },
            {
                "start_time": 45.6272727,
                "end_time": 45.8340909,
                "pitch": 31,
                "velocity": 101,
                "duration": 0.2068182,
                "tempo": 120.0
            },
            {
                "start_time": 45.6295455,
                "end_time": 45.8340909,
                "pitch": 31,
                "velocity": 101,
                "duration": 0.2045455,
                "tempo": 120.0
            },
            {
                "start_time": 43.2181818,
                "end_time": 45.8340909,
                "pitch": 42,
                "velocity": 101,
                "duration": 2.6159091,
                "tempo": 120.0
            },
            {
                "start_time": 45.8363636,
                "end_time": 46.0295455,
                "pitch": 29,
                "velocity": 101,
                "duration": 0.1931818,
                "tempo": 120.0
            },
            {
                "start_time": 46.0295455,
                "end_time": 46.2272727,
                "pitch": 26,
                "velocity": 101,
                "duration": 0.1977273,
                "tempo": 120.0
            },
            {
                "start_time": 46.0295455,
                "end_time": 46.2272727,
                "pitch": 26,
                "velocity": 101,
                "duration": 0.1977273,
                "tempo": 120.0
            },
            {
                "start_time": 46.2272727,
                "end_time": 46.4318182,
                "pitch": 29,
                "velocity": 101,
                "duration": 0.2045455,
                "tempo": 120.0
            },
            {
                "start_time": 46.2272727,
                "end_time": 46.4318182,
                "pitch": 29,
                "velocity": 101,
                "duration": 0.2045455,
                "tempo": 120.0
            },
            {
                "start_time": 46.4318182,
                "end_time": 46.4340909,
                "pitch": 24,
                "velocity": 101,
                "duration": 0.0022727,
                "tempo": 120.0
            },
            {
                "start_time": 45.2227273,
                "end_time": 46.6386364,
                "pitch": 20,
                "velocity": 101,
                "duration": 1.4159091,
                "tempo": 120.0
            },
            {
                "start_time": 46.4340909,
                "end_time": 46.6386364,
                "pitch": 36,
                "velocity": 101,
                "duration": 0.2045455,
                "tempo": 120.0
            },
            {
                "start_time": 46.6386364,
                "end_time": 46.8386364,
                "pitch": 35,
                "velocity": 101,
                "duration": 0.2,
                "tempo": 120.0
            },
            {
                "start_time": 46.8386364,
                "end_time": 47.0386364,
                "pitch": 33,
                "velocity": 101,
                "duration": 0.2,
                "tempo": 120.0
            },
            {
                "start_time": 47.0386364,
                "end_time": 47.2386364,
                "pitch": 31,
                "velocity": 101,
                "duration": 0.2,
                "tempo": 120.0
            },
            {
                "start_time": 47.0409091,
                "end_time": 47.2386364,
                "pitch": 31,
                "velocity": 101,
                "duration": 0.1977273,
                "tempo": 120.0
            },
            {
                "start_time": 45.8340909,
                "end_time": 47.2386364,
                "pitch": 42,
                "velocity": 101,
                "duration": 1.4045455,
                "tempo": 120.0
            },
            {
                "start_time": 44.6181818,
                "end_time": 47.4409091,
                "pitch": 0,
                "velocity": 101,
                "duration": 2.8227273,
                "tempo": 120.0
            },
            {
                "start_time": 47.2386364,
                "end_time": 47.4409091,
                "pitch": 29,
                "velocity": 101,
                "duration": 0.2022727,
                "tempo": 120.0
            },
            {
                "start_time": 47.4409091,
                "end_time": 47.6386364,
                "pitch": 31,
                "velocity": 101,
                "duration": 0.1977273,
                "tempo": 120.0
            },
            {
                "start_time": 47.4409091,
                "end_time": 47.8386364,
                "pitch": 0,
                "velocity": 101,
                "duration": 0.3977273,
                "tempo": 120.0
            },
            {
                "start_time": 47.6386364,
                "end_time": 47.8386364,
                "pitch": 26,
                "velocity": 101,
                "duration": 0.2,
                "tempo": 120.0
            },
            {
                "start_time": 47.8386364,
                "end_time": 48.0409091,
                "pitch": 31,
                "velocity": 101,
                "duration": 0.2022727,
                "tempo": 120.0
            },
            {
                "start_time": 47.6386364,
                "end_time": 48.0409091,
                "pitch": 41,
                "velocity": 101,
                "duration": 0.4022727,
                "tempo": 120.0
            },
            {
                "start_time": 48.0409091,
                "end_time": 48.2409091,
                "pitch": 38,
                "velocity": 101,
                "duration": 0.2,
                "tempo": 120.0
            },
            {
                "start_time": 46.6386364,
                "end_time": 48.4431818,
                "pitch": 20,
                "velocity": 101,
                "duration": 1.8045455,
                "tempo": 120.0
            },
            {
                "start_time": 48.2409091,
                "end_time": 48.4431818,
                "pitch": 36,
                "velocity": 101,
                "duration": 0.2022727,
                "tempo": 120.0
            },
            {
                "start_time": 48.2409091,
                "end_time": 48.4431818,
                "pitch": 36,
                "velocity": 101,
                "duration": 0.2022727,
                "tempo": 120.0
            },
            {
                "start_time": 48.4431818,
                "end_time": 48.6431818,
                "pitch": 35,
                "velocity": 101,
                "duration": 0.2,
                "tempo": 120.0
            },
            {
                "start_time": 48.6431818,
                "end_time": 48.8454545,
                "pitch": 33,
                "velocity": 101,
                "duration": 0.2022727,
                "tempo": 120.0
            },
            {
                "start_time": 48.8454545,
                "end_time": 49.0454545,
                "pitch": 35,
                "velocity": 101,
                "duration": 0.2,
                "tempo": 120.0
            },
            {
                "start_time": 49.0454545,
                "end_time": 49.2431818,
                "pitch": 33,
                "velocity": 101,
                "duration": 0.1977273,
                "tempo": 120.0
            },
            {
                "start_time": 47.2386364,
                "end_time": 49.2431818,
                "pitch": 42,
                "velocity": 101,
                "duration": 2.0045455,
                "tempo": 120.0
            },
            {
                "start_time": 49.2431818,
                "end_time": 49.4431818,
                "pitch": 28,
                "velocity": 101,
                "duration": 0.2,
                "tempo": 120.0
            },
            {
                "start_time": 49.4454545,
                "end_time": 49.6454545,
                "pitch": 33,
                "velocity": 101,
                "duration": 0.2,
                "tempo": 120.0
            },
            {
                "start_time": 49.2431818,
                "end_time": 49.6454545,
                "pitch": 42,
                "velocity": 101,
                "duration": 0.4022727,
                "tempo": 120.0
            },
            {
                "start_time": 49.6454545,
                "end_time": 49.8454545,
                "pitch": 40,
                "velocity": 101,
                "duration": 0.2,
                "tempo": 120.0
            },
            {
                "start_time": 49.8454545,
                "end_time": 50.0454545,
                "pitch": 38,
                "velocity": 101,
                "duration": 0.2,
                "tempo": 120.0
            },
            {
                "start_time": 50.0454545,
                "end_time": 50.2454545,
                "pitch": 36,
                "velocity": 101,
                "duration": 0.2,
                "tempo": 120.0
            },
            {
                "start_time": 50.0454545,
                "end_time": 50.2454545,
                "pitch": 36,
                "velocity": 101,
                "duration": 0.2,
                "tempo": 120.0
            },
            {
                "start_time": 48.4431818,
                "end_time": 50.2477273,
                "pitch": 20,
                "velocity": 101,
                "duration": 1.8045455,
                "tempo": 120.0
            },
            {
                "start_time": 50.2454545,
                "end_time": 50.2477273,
                "pitch": 20,
                "velocity": 101,
                "duration": 0.0022727,
                "tempo": 120.0
            },
            {
                "start_time": 50.2477273,
                "end_time": 50.4477273,
                "pitch": 35,
                "velocity": 101,
                "duration": 0.2,
                "tempo": 120.0
            },
            {
                "start_time": 50.4477273,
                "end_time": 50.65,
                "pitch": 33,
                "velocity": 101,
                "duration": 0.2022727,
                "tempo": 120.0
            },
            {
                "start_time": 50.65,
                "end_time": 50.8477273,
                "pitch": 31,
                "velocity": 101,
                "duration": 0.1977273,
                "tempo": 120.0
            },
            {
                "start_time": 50.65,
                "end_time": 50.8477273,
                "pitch": 31,
                "velocity": 101,
                "duration": 0.1977273,
                "tempo": 120.0
            },
            {
                "start_time": 48.0409091,
                "end_time": 50.8477273,
                "pitch": 41,
                "velocity": 101,
                "duration": 2.8068182,
                "tempo": 120.0
            },
            {
                "start_time": 47.8386364,
                "end_time": 51.05,
                "pitch": 0,
                "velocity": 101,
                "duration": 3.2113636,
                "tempo": 120.0
            },
            {
                "start_time": 50.8477273,
                "end_time": 51.05,
                "pitch": 26,
                "velocity": 101,
                "duration": 0.2022727,
                "tempo": 120.0
            },
            {
                "start_time": 51.05,
                "end_time": 51.25,
                "pitch": 31,
                "velocity": 101,
                "duration": 0.2,
                "tempo": 120.0
            },
            {
                "start_time": 50.8477273,
                "end_time": 51.25,
                "pitch": 41,
                "velocity": 101,
                "duration": 0.4022727,
                "tempo": 120.0
            },
            {
                "start_time": 51.25,
                "end_time": 51.45,
                "pitch": 38,
                "velocity": 101,
                "duration": 0.2,
                "tempo": 120.0
            },
            {
                "start_time": 51.45,
                "end_time": 51.65,
                "pitch": 36,
                "velocity": 101,
                "duration": 0.2,
                "tempo": 120.0
            },
            {
                "start_time": 51.45,
                "end_time": 51.65,
                "pitch": 36,
                "velocity": 101,
                "duration": 0.2,
                "tempo": 120.0
            },
            {
                "start_time": 51.65,
                "end_time": 51.8522727,
                "pitch": 35,
                "velocity": 101,
                "duration": 0.2022727,
                "tempo": 120.0
            },
            {
                "start_time": 51.8522727,
                "end_time": 52.05,
                "pitch": 33,
                "velocity": 101,
                "duration": 0.1977273,
                "tempo": 120.0
            },
            {
                "start_time": 52.05,
                "end_time": 52.2522727,
                "pitch": 31,
                "velocity": 101,
                "duration": 0.2022727,
                "tempo": 120.0
            },
            {
                "start_time": 52.05,
                "end_time": 52.2522727,
                "pitch": 31,
                "velocity": 101,
                "duration": 0.2022727,
                "tempo": 120.0
            },
            {
                "start_time": 49.6454545,
                "end_time": 52.2522727,
                "pitch": 42,
                "velocity": 101,
                "duration": 2.6068182,
                "tempo": 120.0
            },
            {
                "start_time": 52.2522727,
                "end_time": 52.4522727,
                "pitch": 29,
                "velocity": 101,
                "duration": 0.2,
                "tempo": 120.0
            },
            {
                "start_time": 52.4522727,
                "end_time": 52.6545455,
                "pitch": 26,
                "velocity": 101,
                "duration": 0.2022727,
                "tempo": 120.0
            },
            {
                "start_time": 52.4522727,
                "end_time": 52.6545455,
                "pitch": 26,
                "velocity": 101,
                "duration": 0.2022727,
                "tempo": 120.0
            },
            {
                "start_time": 52.6545455,
                "end_time": 52.8545455,
                "pitch": 29,
                "velocity": 101,
                "duration": 0.2,
                "tempo": 120.0
            },
            {
                "start_time": 52.6545455,
                "end_time": 52.8545455,
                "pitch": 29,
                "velocity": 101,
                "duration": 0.2,
                "tempo": 120.0
            },
            {
                "start_time": 51.65,
                "end_time": 53.0545455,
                "pitch": 20,
                "velocity": 101,
                "duration": 1.4045455,
                "tempo": 120.0
            },
            {
                "start_time": 52.8545455,
                "end_time": 53.0545455,
                "pitch": 36,
                "velocity": 101,
                "duration": 0.2,
                "tempo": 120.0
            },
            {
                "start_time": 53.0545455,
                "end_time": 53.2545455,
                "pitch": 35,
                "velocity": 101,
                "duration": 0.2,
                "tempo": 120.0
            },
            {
                "start_time": 53.2545455,
                "end_time": 53.4568182,
                "pitch": 33,
                "velocity": 101,
                "duration": 0.2022727,
                "tempo": 120.0
            },
            {
                "start_time": 53.4568182,
                "end_time": 53.6613636,
                "pitch": 31,
                "velocity": 101,
                "duration": 0.2045455,
                "tempo": 120.0
            },
            {
                "start_time": 53.4568182,
                "end_time": 53.6613636,
                "pitch": 31,
                "velocity": 101,
                "duration": 0.2045455,
                "tempo": 120.0
            },
            {
                "start_time": 52.2522727,
                "end_time": 53.6613636,
                "pitch": 42,
                "velocity": 101,
                "duration": 1.4090909,
                "tempo": 120.0
            },
            {
                "start_time": 51.05,
                "end_time": 53.8681818,
                "pitch": 0,
                "velocity": 101,
                "duration": 2.8181818,
                "tempo": 120.0
            },
            {
                "start_time": 53.6613636,
                "end_time": 53.8681818,
                "pitch": 29,
                "velocity": 101,
                "duration": 0.2068182,
                "tempo": 120.0
            },
            {
                "start_time": 53.8681818,
                "end_time": 54.0659091,
                "pitch": 31,
                "velocity": 101,
                "duration": 0.1977273,
                "tempo": 120.0
            },
            {
                "start_time": 51.25,
                "end_time": 54.0659091,
                "pitch": 41,
                "velocity": 101,
                "duration": 2.8159091,
                "tempo": 120.0
            },
            {
                "start_time": 53.8681818,
                "end_time": 54.2659091,
                "pitch": 0,
                "velocity": 101,
                "duration": 0.3977273,
                "tempo": 120.0
            },
            {
                "start_time": 54.0659091,
                "end_time": 54.2659091,
                "pitch": 26,
                "velocity": 101,
                "duration": 0.2,
                "tempo": 120.0
            },
            {
                "start_time": 54.2659091,
                "end_time": 54.4659091,
                "pitch": 31,
                "velocity": 101,
                "duration": 0.2,
                "tempo": 120.0
            },
            {
                "start_time": 54.0659091,
                "end_time": 54.4681818,
                "pitch": 41,
                "velocity": 101,
                "duration": 0.4022727,
                "tempo": 120.0
            },
            {
                "start_time": 54.4659091,
                "end_time": 54.4681818,
                "pitch": 41,
                "velocity": 101,
                "duration": 0.0022727,
                "tempo": 120.0
            },
            {
                "start_time": 54.4681818,
                "end_time": 54.6681818,
                "pitch": 38,
                "velocity": 101,
                "duration": 0.2,
                "tempo": 120.0
            },
            {
                "start_time": 53.0545455,
                "end_time": 54.8681818,
                "pitch": 20,
                "velocity": 101,
                "duration": 1.8136364,
                "tempo": 120.0
            },
            {
                "start_time": 54.6681818,
                "end_time": 54.8681818,
                "pitch": 36,
                "velocity": 101,
                "duration": 0.2,
                "tempo": 120.0
            },
            {
                "start_time": 54.6681818,
                "end_time": 54.8681818,
                "pitch": 36,
                "velocity": 101,
                "duration": 0.2,
                "tempo": 120.0
            },
            {
                "start_time": 54.8681818,
                "end_time": 55.0681818,
                "pitch": 35,
                "velocity": 101,
                "duration": 0.2,
                "tempo": 120.0
            },
            {
                "start_time": 55.0681818,
                "end_time": 55.2704545,
                "pitch": 33,
                "velocity": 101,
                "duration": 0.2022727,
                "tempo": 120.0
            },
            {
                "start_time": 55.2704545,
                "end_time": 55.4704545,
                "pitch": 35,
                "velocity": 101,
                "duration": 0.2,
                "tempo": 120.0
            },
            {
                "start_time": 55.4704545,
                "end_time": 55.6181818,
                "pitch": 33,
                "velocity": 101,
                "duration": 0.1477273,
                "tempo": 120.0
            },
            {
                "start_time": 55.6704545,
                "end_time": 55.7204545,
                "pitch": 45,
                "velocity": 101,
                "duration": 0.05,
                "tempo": 120.0
            },
            {
                "start_time": 55.7704545,
                "end_time": 55.8204545,
                "pitch": 33,
                "velocity": 101,
                "duration": 0.05,
                "tempo": 120.0
            },
            {
                "start_time": 55.8727273,
                "end_time": 55.9204545,
                "pitch": 45,
                "velocity": 101,
                "duration": 0.0477273,
                "tempo": 120.0
            },
            {
                "start_time": 55.9727273,
                "end_time": 56.0204545,
                "pitch": 33,
                "velocity": 80,
                "duration": 0.0477273,
                "tempo": 120.0
            },
            {
                "start_time": 56.0727273,
                "end_time": 56.2204545,
                "pitch": 33,
                "velocity": 101,
                "duration": 0.1477273,
                "tempo": 120.0
            },
            {
                "start_time": 56.2727273,
                "end_time": 56.4227273,
                "pitch": 33,
                "velocity": 101,
                "duration": 0.15,
                "tempo": 120.0
            },
            {
                "start_time": 56.4727273,
                "end_time": 56.6227273,
                "pitch": 33,
                "velocity": 101,
                "duration": 0.15,
                "tempo": 120.0
            },
            {
                "start_time": 56.6727273,
                "end_time": 56.7227273,
                "pitch": 45,
                "velocity": 101,
                "duration": 0.05,
                "tempo": 120.0
            },
            {
                "start_time": 56.7727273,
                "end_time": 56.8227273,
                "pitch": 33,
                "velocity": 80,
                "duration": 0.05,
                "tempo": 120.0
            },
            {
                "start_time": 56.875,
                "end_time": 57.0227273,
                "pitch": 33,
                "velocity": 101,
                "duration": 0.1477273,
                "tempo": 120.0
            },
            {
                "start_time": 57.075,
                "end_time": 57.2227273,
                "pitch": 33,
                "velocity": 101,
                "duration": 0.1477273,
                "tempo": 120.0
            },
            {
                "start_time": 57.275,
                "end_time": 57.3227273,
                "pitch": 45,
                "velocity": 101,
                "duration": 0.0477273,
                "tempo": 120.0
            },
            {
                "start_time": 57.3727273,
                "end_time": 57.4227273,
                "pitch": 33,
                "velocity": 101,
                "duration": 0.05,
                "tempo": 120.0
            },
            {
                "start_time": 57.475,
                "end_time": 57.5227273,
                "pitch": 45,
                "velocity": 101,
                "duration": 0.0477273,
                "tempo": 120.0
            },
            {
                "start_time": 57.575,
                "end_time": 57.625,
                "pitch": 33,
                "velocity": 80,
                "duration": 0.05,
                "tempo": 120.0
            },
            {
                "start_time": 57.675,
                "end_time": 57.825,
                "pitch": 33,
                "velocity": 101,
                "duration": 0.15,
                "tempo": 120.0
            },
            {
                "start_time": 57.8772727,
                "end_time": 58.0272727,
                "pitch": 33,
                "velocity": 101,
                "duration": 0.15,
                "tempo": 120.0
            },
            {
                "start_time": 58.0772727,
                "end_time": 58.1272727,
                "pitch": 45,
                "velocity": 101,
                "duration": 0.05,
                "tempo": 120.0
            },
            {
                "start_time": 58.1772727,
                "end_time": 58.2272727,
                "pitch": 33,
                "velocity": 101,
                "duration": 0.05,
                "tempo": 120.0
            },
            {
                "start_time": 58.2772727,
                "end_time": 58.3272727,
                "pitch": 45,
                "velocity": 101,
                "duration": 0.05,
                "tempo": 120.0
            },
            {
                "start_time": 58.3772727,
                "end_time": 58.4272727,
                "pitch": 45,
                "velocity": 101,
                "duration": 0.05,
                "tempo": 120.0
            },
            {
                "start_time": 58.4772727,
                "end_time": 58.6272727,
                "pitch": 33,
                "velocity": 101,
                "duration": 0.15,
                "tempo": 120.0
            },
            {
                "start_time": 58.6795455,
                "end_time": 58.8272727,
                "pitch": 33,
                "velocity": 101,
                "duration": 0.1477273,
                "tempo": 120.0
            },
            {
                "start_time": 58.8795455,
                "end_time": 58.9272727,
                "pitch": 45,
                "velocity": 101,
                "duration": 0.0477273,
                "tempo": 120.0
            },
            {
                "start_time": 58.9795455,
                "end_time": 59.0272727,
                "pitch": 33,
                "velocity": 101,
                "duration": 0.0477273,
                "tempo": 120.0
            },
            {
                "start_time": 59.0795455,
                "end_time": 59.1272727,
                "pitch": 45,
                "velocity": 101,
                "duration": 0.0477273,
                "tempo": 120.0
            },
            {
                "start_time": 59.1795455,
                "end_time": 59.2272727,
                "pitch": 33,
                "velocity": 80,
                "duration": 0.0477273,
                "tempo": 120.0
            },
            {
                "start_time": 59.2795455,
                "end_time": 59.4272727,
                "pitch": 33,
                "velocity": 101,
                "duration": 0.1477273,
                "tempo": 120.0
            },
            {
                "start_time": 59.4795455,
                "end_time": 59.6295455,
                "pitch": 33,
                "velocity": 101,
                "duration": 0.15,
                "tempo": 120.0
            },
            {
                "start_time": 59.6818182,
                "end_time": 59.8318182,
                "pitch": 33,
                "velocity": 101,
                "duration": 0.15,
                "tempo": 120.0
            },
            {
                "start_time": 59.8818182,
                "end_time": 59.9318182,
                "pitch": 45,
                "velocity": 101,
                "duration": 0.05,
                "tempo": 120.0
            },
            {
                "start_time": 59.9818182,
                "end_time": 60.0318182,
                "pitch": 33,
                "velocity": 80,
                "duration": 0.05,
                "tempo": 120.0
            },
            {
                "start_time": 60.0818182,
                "end_time": 60.2318182,
                "pitch": 33,
                "velocity": 101,
                "duration": 0.15,
                "tempo": 120.0
            },
            {
                "start_time": 60.2840909,
                "end_time": 60.4318182,
                "pitch": 33,
                "velocity": 101,
                "duration": 0.1477273,
                "tempo": 120.0
            },
            {
                "start_time": 60.4840909,
                "end_time": 60.5318182,
                "pitch": 45,
                "velocity": 101,
                "duration": 0.0477273,
                "tempo": 120.0
            },
            {
                "start_time": 60.5840909,
                "end_time": 60.6318182,
                "pitch": 33,
                "velocity": 101,
                "duration": 0.0477273,
                "tempo": 120.0
            },
            {
                "start_time": 60.6840909,
                "end_time": 60.7318182,
                "pitch": 45,
                "velocity": 101,
                "duration": 0.0477273,
                "tempo": 120.0
            },
            {
                "start_time": 60.7840909,
                "end_time": 60.8318182,
                "pitch": 33,
                "velocity": 80,
                "duration": 0.0477273,
                "tempo": 120.0
            },
            {
                "start_time": 60.8840909,
                "end_time": 61.0340909,
                "pitch": 33,
                "velocity": 101,
                "duration": 0.15,
                "tempo": 120.0
            },
            {
                "start_time": 61.0840909,
                "end_time": 61.2340909,
                "pitch": 33,
                "velocity": 101,
                "duration": 0.15,
                "tempo": 120.0
            },
            {
                "start_time": 61.2840909,
                "end_time": 61.3340909,
                "pitch": 45,
                "velocity": 101,
                "duration": 0.05,
                "tempo": 120.0
            },
            {
                "start_time": 61.3840909,
                "end_time": 61.4340909,
                "pitch": 33,
                "velocity": 101,
                "duration": 0.05,
                "tempo": 120.0
            },
            {
                "start_time": 61.4840909,
                "end_time": 61.5340909,
                "pitch": 45,
                "velocity": 101,
                "duration": 0.05,
                "tempo": 120.0
            },
            {
                "start_time": 61.5863636,
                "end_time": 61.6386364,
                "pitch": 45,
                "velocity": 101,
                "duration": 0.0522727,
                "tempo": 120.0
            },
            {
                "start_time": 61.6909091,
                "end_time": 61.8431818,
                "pitch": 33,
                "velocity": 101,
                "duration": 0.1522727,
                "tempo": 120.0
            },
            {
                "start_time": 61.8977273,
                "end_time": 62.0454545,
                "pitch": 33,
                "velocity": 101,
                "duration": 0.1477273,
                "tempo": 120.0
            },
            {
                "start_time": 62.0977273,
                "end_time": 62.1454545,
                "pitch": 45,
                "velocity": 101,
                "duration": 0.0477273,
                "tempo": 120.0
            },
            {
                "start_time": 62.1954545,
                "end_time": 62.2454545,
                "pitch": 33,
                "velocity": 101,
                "duration": 0.05,
                "tempo": 120.0
            },
            {
                "start_time": 62.2977273,
                "end_time": 62.3454545,
                "pitch": 45,
                "velocity": 101,
                "duration": 0.0477273,
                "tempo": 120.0
            },
            {
                "start_time": 62.3977273,
                "end_time": 62.4454545,
                "pitch": 33,
                "velocity": 80,
                "duration": 0.0477273,
                "tempo": 120.0
            },
            {
                "start_time": 62.4977273,
                "end_time": 62.6454545,
                "pitch": 33,
                "velocity": 101,
                "duration": 0.1477273,
                "tempo": 120.0
            },
            {
                "start_time": 62.6977273,
                "end_time": 62.8454545,
                "pitch": 33,
                "velocity": 101,
                "duration": 0.1477273,
                "tempo": 120.0
            },
            {
                "start_time": 62.8977273,
                "end_time": 63.0477273,
                "pitch": 33,
                "velocity": 101,
                "duration": 0.15,
                "tempo": 120.0
            },
            {
                "start_time": 63.0977273,
                "end_time": 63.1477273,
                "pitch": 45,
                "velocity": 101,
                "duration": 0.05,
                "tempo": 120.0
            },
            {
                "start_time": 63.1977273,
                "end_time": 63.2477273,
                "pitch": 33,
                "velocity": 80,
                "duration": 0.05,
                "tempo": 120.0
            },
            {
                "start_time": 63.3,
                "end_time": 63.45,
                "pitch": 33,
                "velocity": 101,
                "duration": 0.15,
                "tempo": 120.0
            },
            {
                "start_time": 63.5022727,
                "end_time": 63.65,
                "pitch": 33,
                "velocity": 101,
                "duration": 0.1477273,
                "tempo": 120.0
            },
            {
                "start_time": 63.7022727,
                "end_time": 63.75,
                "pitch": 45,
                "velocity": 101,
                "duration": 0.0477273,
                "tempo": 120.0
            },
            {
                "start_time": 63.8,
                "end_time": 63.85,
                "pitch": 33,
                "velocity": 101,
                "duration": 0.05,
                "tempo": 120.0
            },
            {
                "start_time": 63.9022727,
                "end_time": 63.95,
                "pitch": 45,
                "velocity": 101,
                "duration": 0.0477273,
                "tempo": 120.0
            },
            {
                "start_time": 64.0022727,
                "end_time": 64.05,
                "pitch": 33,
                "velocity": 80,
                "duration": 0.0477273,
                "tempo": 120.0
            },
            {
                "start_time": 64.1022727,
                "end_time": 64.25,
                "pitch": 33,
                "velocity": 101,
                "duration": 0.1477273,
                "tempo": 120.0
            },
            {
                "start_time": 64.3022727,
                "end_time": 64.45,
                "pitch": 33,
                "velocity": 101,
                "duration": 0.1477273,
                "tempo": 120.0
            },
            {
                "start_time": 64.5022727,
                "end_time": 64.5522727,
                "pitch": 45,
                "velocity": 101,
                "duration": 0.05,
                "tempo": 120.0
            },
            {
                "start_time": 64.6022727,
                "end_time": 64.6522727,
                "pitch": 33,
                "velocity": 101,
                "duration": 0.05,
                "tempo": 120.0
            },
            {
                "start_time": 64.7022727,
                "end_time": 64.7522727,
                "pitch": 45,
                "velocity": 101,
                "duration": 0.05,
                "tempo": 120.0
            },
            {
                "start_time": 64.8022727,
                "end_time": 64.8522727,
                "pitch": 45,
                "velocity": 101,
                "duration": 0.05,
                "tempo": 120.0
            },
            {
                "start_time": 64.9045455,
                "end_time": 65.0545455,
                "pitch": 33,
                "velocity": 101,
                "duration": 0.15,
                "tempo": 120.0
            },
            {
                "start_time": 65.1068182,
                "end_time": 65.2545455,
                "pitch": 33,
                "velocity": 101,
                "duration": 0.1477273,
                "tempo": 120.0
            },
            {
                "start_time": 65.3068182,
                "end_time": 65.3545455,
                "pitch": 45,
                "velocity": 101,
                "duration": 0.0477273,
                "tempo": 120.0
            },
            {
                "start_time": 65.4068182,
                "end_time": 65.4545455,
                "pitch": 33,
                "velocity": 101,
                "duration": 0.0477273,
                "tempo": 120.0
            },
            {
                "start_time": 65.5068182,
                "end_time": 65.5545455,
                "pitch": 45,
                "velocity": 101,
                "duration": 0.0477273,
                "tempo": 120.0
            },
            {
                "start_time": 65.6068182,
                "end_time": 65.6568182,
                "pitch": 33,
                "velocity": 80,
                "duration": 0.05,
                "tempo": 120.0
            },
            {
                "start_time": 65.7068182,
                "end_time": 65.8568182,
                "pitch": 33,
                "velocity": 101,
                "duration": 0.15,
                "tempo": 120.0
            },
            {
                "start_time": 65.9090909,
                "end_time": 66.0590909,
                "pitch": 33,
                "velocity": 101,
                "duration": 0.15,
                "tempo": 120.0
            },
            {
                "start_time": 66.1113636,
                "end_time": 66.2613636,
                "pitch": 33,
                "velocity": 101,
                "duration": 0.15,
                "tempo": 120.0
            },
            {
                "start_time": 66.3113636,
                "end_time": 66.3613636,
                "pitch": 45,
                "velocity": 101,
                "duration": 0.05,
                "tempo": 120.0
            },
            {
                "start_time": 66.4136364,
                "end_time": 66.4613636,
                "pitch": 33,
                "velocity": 80,
                "duration": 0.0477273,
                "tempo": 120.0
            },
            {
                "start_time": 66.5136364,
                "end_time": 66.6613636,
                "pitch": 33,
                "velocity": 101,
                "duration": 0.1477273,
                "tempo": 120.0
            },
            {
                "start_time": 66.7136364,
                "end_time": 66.8636364,
                "pitch": 33,
                "velocity": 101,
                "duration": 0.15,
                "tempo": 120.0
            },
            {
                "start_time": 66.9136364,
                "end_time": 66.9636364,
                "pitch": 45,
                "velocity": 101,
                "duration": 0.05,
                "tempo": 120.0
            },
            {
                "start_time": 67.0159091,
                "end_time": 67.0659091,
                "pitch": 33,
                "velocity": 101,
                "duration": 0.05,
                "tempo": 120.0
            },
            {
                "start_time": 67.1159091,
                "end_time": 67.1659091,
                "pitch": 45,
                "velocity": 101,
                "duration": 0.05,
                "tempo": 120.0
            },
            {
                "start_time": 67.2159091,
                "end_time": 67.2659091,
                "pitch": 33,
                "velocity": 80,
                "duration": 0.05,
                "tempo": 120.0
            },
            {
                "start_time": 67.3181818,
                "end_time": 67.4659091,
                "pitch": 33,
                "velocity": 101,
                "duration": 0.1477273,
                "tempo": 120.0
            },
            {
                "start_time": 67.5159091,
                "end_time": 67.6659091,
                "pitch": 33,
                "velocity": 101,
                "duration": 0.15,
                "tempo": 120.0
            },
            {
                "start_time": 67.7181818,
                "end_time": 67.7681818,
                "pitch": 45,
                "velocity": 101,
                "duration": 0.05,
                "tempo": 120.0
            },
            {
                "start_time": 67.8181818,
                "end_time": 67.8681818,
                "pitch": 33,
                "velocity": 101,
                "duration": 0.05,
                "tempo": 120.0
            },
            {
                "start_time": 67.9204545,
                "end_time": 67.9704545,
                "pitch": 45,
                "velocity": 101,
                "duration": 0.05,
                "tempo": 120.0
            },
            {
                "start_time": 68.0227273,
                "end_time": 68.0727273,
                "pitch": 45,
                "velocity": 101,
                "duration": 0.05,
                "tempo": 120.0
            },
            {
                "start_time": 68.125,
                "end_time": 68.2795455,
                "pitch": 33,
                "velocity": 101,
                "duration": 0.1545455,
                "tempo": 120.0
            },
            {
                "start_time": 68.3340909,
                "end_time": 68.5318182,
                "pitch": 36,
                "velocity": 101,
                "duration": 0.1977273,
                "tempo": 120.0
            },
            {
                "start_time": 68.5318182,
                "end_time": 68.7340909,
                "pitch": 48,
                "velocity": 101,
                "duration": 0.2022727,
                "tempo": 120.0
            },
            {
                "start_time": 68.7340909,
                "end_time": 68.9363636,
                "pitch": 36,
                "velocity": 101,
                "duration": 0.2022727,
                "tempo": 120.0
            },
            {
                "start_time": 68.9363636,
                "end_time": 69.1340909,
                "pitch": 48,
                "velocity": 101,
                "duration": 0.1977273,
                "tempo": 120.0
            },
            {
                "start_time": 69.1363636,
                "end_time": 69.3318182,
                "pitch": 36,
                "velocity": 101,
                "duration": 0.1954545,
                "tempo": 120.0
            },
            {
                "start_time": 69.3318182,
                "end_time": 69.5272727,
                "pitch": 48,
                "velocity": 101,
                "duration": 0.1954545,
                "tempo": 120.0
            },
            {
                "start_time": 69.5272727,
                "end_time": 69.7340909,
                "pitch": 36,
                "velocity": 101,
                "duration": 0.2068182,
                "tempo": 120.0
            },
            {
                "start_time": 69.7340909,
                "end_time": 69.9409091,
                "pitch": 48,
                "velocity": 101,
                "duration": 0.2068182,
                "tempo": 120.0
            },
            {
                "start_time": 69.9409091,
                "end_time": 70.1386364,
                "pitch": 36,
                "velocity": 101,
                "duration": 0.1977273,
                "tempo": 120.0
            },
            {
                "start_time": 70.1386364,
                "end_time": 70.3409091,
                "pitch": 48,
                "velocity": 101,
                "duration": 0.2022727,
                "tempo": 120.0
            },
            {
                "start_time": 70.3409091,
                "end_time": 70.5409091,
                "pitch": 36,
                "velocity": 101,
                "duration": 0.2,
                "tempo": 120.0
            },
            {
                "start_time": 70.5409091,
                "end_time": 70.7431818,
                "pitch": 48,
                "velocity": 101,
                "duration": 0.2022727,
                "tempo": 120.0
            },
            {
                "start_time": 70.7431818,
                "end_time": 70.9431818,
                "pitch": 36,
                "velocity": 101,
                "duration": 0.2,
                "tempo": 120.0
            },
            {
                "start_time": 70.9431818,
                "end_time": 71.1431818,
                "pitch": 48,
                "velocity": 101,
                "duration": 0.2,
                "tempo": 120.0
            },
            {
                "start_time": 71.1431818,
                "end_time": 71.3454545,
                "pitch": 36,
                "velocity": 101,
                "duration": 0.2022727,
                "tempo": 120.0
            },
            {
                "start_time": 71.3454545,
                "end_time": 71.5477273,
                "pitch": 48,
                "velocity": 101,
                "duration": 0.2022727,
                "tempo": 120.0
            },
            {
                "start_time": 71.5477273,
                "end_time": 71.7477273,
                "pitch": 33,
                "velocity": 101,
                "duration": 0.2,
                "tempo": 120.0
            },
            {
                "start_time": 71.7477273,
                "end_time": 71.95,
                "pitch": 45,
                "velocity": 101,
                "duration": 0.2022727,
                "tempo": 120.0
            },
            {
                "start_time": 71.95,
                "end_time": 72.15,
                "pitch": 33,
                "velocity": 101,
                "duration": 0.2,
                "tempo": 120.0
            },
            {
                "start_time": 72.15,
                "end_time": 72.35,
                "pitch": 45,
                "velocity": 101,
                "duration": 0.2,
                "tempo": 120.0
            },
            {
                "start_time": 72.35,
                "end_time": 72.5522727,
                "pitch": 33,
                "velocity": 101,
                "duration": 0.2022727,
                "tempo": 120.0
            },
            {
                "start_time": 72.5522727,
                "end_time": 72.7545455,
                "pitch": 45,
                "velocity": 101,
                "duration": 0.2022727,
                "tempo": 120.0
            },
            {
                "start_time": 72.7545455,
                "end_time": 72.9545455,
                "pitch": 33,
                "velocity": 101,
                "duration": 0.2,
                "tempo": 120.0
            },
            {
                "start_time": 72.9545455,
                "end_time": 73.1545455,
                "pitch": 45,
                "velocity": 101,
                "duration": 0.2,
                "tempo": 120.0
            },
            {
                "start_time": 73.1545455,
                "end_time": 73.3545455,
                "pitch": 33,
                "velocity": 101,
                "duration": 0.2,
                "tempo": 120.0
            },
            {
                "start_time": 73.3545455,
                "end_time": 73.5590909,
                "pitch": 45,
                "velocity": 101,
                "duration": 0.2045455,
                "tempo": 120.0
            },
            {
                "start_time": 73.5590909,
                "end_time": 73.7590909,
                "pitch": 33,
                "velocity": 101,
                "duration": 0.2,
                "tempo": 120.0
            },
            {
                "start_time": 73.7590909,
                "end_time": 73.9613636,
                "pitch": 45,
                "velocity": 101,
                "duration": 0.2022727,
                "tempo": 120.0
            },
            {
                "start_time": 73.9613636,
                "end_time": 74.1590909,
                "pitch": 33,
                "velocity": 101,
                "duration": 0.1977273,
                "tempo": 120.0
            },
            {
                "start_time": 74.1613636,
                "end_time": 74.3613636,
                "pitch": 45,
                "velocity": 101,
                "duration": 0.2,
                "tempo": 120.0
            },
            {
                "start_time": 74.3613636,
                "end_time": 74.5613636,
                "pitch": 33,
                "velocity": 101,
                "duration": 0.2,
                "tempo": 120.0
            },
            {
                "start_time": 74.5613636,
                "end_time": 74.7659091,
                "pitch": 45,
                "velocity": 101,
                "duration": 0.2045455,
                "tempo": 120.0
            },
            {
                "start_time": 74.7659091,
                "end_time": 74.9636364,
                "pitch": 29,
                "velocity": 101,
                "duration": 0.1977273,
                "tempo": 120.0
            },
            {
                "start_time": 74.9636364,
                "end_time": 75.1636364,
                "pitch": 41,
                "velocity": 101,
                "duration": 0.2,
                "tempo": 120.0
            },
            {
                "start_time": 75.1659091,
                "end_time": 75.3659091,
                "pitch": 29,
                "velocity": 101,
                "duration": 0.2,
                "tempo": 120.0
            },
            {
                "start_time": 75.3659091,
                "end_time": 75.5681818,
                "pitch": 41,
                "velocity": 101,
                "duration": 0.2022727,
                "tempo": 120.0
            },
            {
                "start_time": 75.5681818,
                "end_time": 75.7681818,
                "pitch": 29,
                "velocity": 101,
                "duration": 0.2,
                "tempo": 120.0
            },
            {
                "start_time": 75.7681818,
                "end_time": 75.9704545,
                "pitch": 41,
                "velocity": 101,
                "duration": 0.2022727,
                "tempo": 120.0
            },
            {
                "start_time": 75.9704545,
                "end_time": 76.1727273,
                "pitch": 29,
                "velocity": 101,
                "duration": 0.2022727,
                "tempo": 120.0
            },
            {
                "start_time": 76.1727273,
                "end_time": 76.3727273,
                "pitch": 41,
                "velocity": 101,
                "duration": 0.2,
                "tempo": 120.0
            },
            {
                "start_time": 76.3727273,
                "end_time": 76.5772727,
                "pitch": 29,
                "velocity": 101,
                "duration": 0.2045455,
                "tempo": 120.0
            },
            {
                "start_time": 76.5772727,
                "end_time": 76.7840909,
                "pitch": 41,
                "velocity": 101,
                "duration": 0.2068182,
                "tempo": 120.0
            },
            {
                "start_time": 76.7840909,
                "end_time": 76.9840909,
                "pitch": 29,
                "velocity": 101,
                "duration": 0.2,
                "tempo": 120.0
            },
            {
                "start_time": 76.9840909,
                "end_time": 77.1863636,
                "pitch": 41,
                "velocity": 101,
                "duration": 0.2022727,
                "tempo": 120.0
            },
            {
                "start_time": 77.1863636,
                "end_time": 77.3863636,
                "pitch": 29,
                "velocity": 101,
                "duration": 0.2,
                "tempo": 120.0
            },
            {
                "start_time": 77.3863636,
                "end_time": 77.5909091,
                "pitch": 41,
                "velocity": 101,
                "duration": 0.2045455,
                "tempo": 120.0
            },
            {
                "start_time": 77.5909091,
                "end_time": 77.7886364,
                "pitch": 29,
                "velocity": 101,
                "duration": 0.1977273,
                "tempo": 120.0
            },
            {
                "start_time": 77.7886364,
                "end_time": 77.9909091,
                "pitch": 41,
                "velocity": 101,
                "duration": 0.2022727,
                "tempo": 120.0
            },
            {
                "start_time": 77.9909091,
                "end_time": 78.1909091,
                "pitch": 33,
                "velocity": 101,
                "duration": 0.2,
                "tempo": 120.0
            },
            {
                "start_time": 53.6613636,
                "end_time": 78.1909091,
                "pitch": 42,
                "velocity": 101,
                "duration": 24.5295455,
                "tempo": 120.0
            },
            {
                "start_time": 77.9909091,
                "end_time": 78.3931818,
                "pitch": 7,
                "velocity": 101,
                "duration": 0.4022727,
                "tempo": 120.0
            },
            {
                "start_time": 78.1909091,
                "end_time": 78.3931818,
                "pitch": 40,
                "velocity": 101,
                "duration": 0.2022727,
                "tempo": 120.0
            },
            {
                "start_time": 78.3931818,
                "end_time": 78.5931818,
                "pitch": 45,
                "velocity": 101,
                "duration": 0.2,
                "tempo": 120.0
            },
            {
                "start_time": 74.7659091,
                "end_time": 78.5931818,
                "pitch": 54,
                "velocity": 101,
                "duration": 3.8272727,
                "tempo": 120.0
            },
            {
                "start_time": 78.5931818,
                "end_time": 78.7931818,
                "pitch": 40,
                "velocity": 101,
                "duration": 0.2,
                "tempo": 120.0
            },
            {
                "start_time": 78.7931818,
                "end_time": 78.9954545,
                "pitch": 31,
                "velocity": 101,
                "duration": 0.2022727,
                "tempo": 120.0
            },
            {
                "start_time": 78.9954545,
                "end_time": 79.1954545,
                "pitch": 38,
                "velocity": 101,
                "duration": 0.2,
                "tempo": 120.0
            },
            {
                "start_time": 79.1954545,
                "end_time": 79.3977273,
                "pitch": 43,
                "velocity": 101,
                "duration": 0.2022727,
                "tempo": 120.0
            },
            {
                "start_time": 79.3977273,
                "end_time": 79.6,
                "pitch": 38,
                "velocity": 101,
                "duration": 0.2022727,
                "tempo": 120.0
            },
            {
                "start_time": 78.9954545,
                "end_time": 79.6,
                "pitch": 41,
                "velocity": 101,
                "duration": 0.6045455,
                "tempo": 120.0
            },
            {
                "start_time": 52.8545455,
                "end_time": 79.8,
                "pitch": 24,
                "velocity": 101,
                "duration": 26.9454545,
                "tempo": 120.0
            },
            {
                "start_time": 79.6,
                "end_time": 79.8,
                "pitch": 29,
                "velocity": 101,
                "duration": 0.2,
                "tempo": 120.0
            },
            {
                "start_time": 79.8,
                "end_time": 80.0,
                "pitch": 36,
                "velocity": 101,
                "duration": 0.2,
                "tempo": 120.0
            },
            {
                "start_time": 79.6,
                "end_time": 80.0,
                "pitch": 41,
                "velocity": 101,
                "duration": 0.4,
                "tempo": 120.0
            },
            {
                "start_time": 80.0,
                "end_time": 80.2022727,
                "pitch": 41,
                "velocity": 101,
                "duration": 0.2022727,
                "tempo": 120.0
            },
            {
                "start_time": 80.0,
                "end_time": 80.2022727,
                "pitch": 41,
                "velocity": 101,
                "duration": 0.2022727,
                "tempo": 120.0
            },
            {
                "start_time": 80.2022727,
                "end_time": 80.4045455,
                "pitch": 36,
                "velocity": 101,
                "duration": 0.2022727,
                "tempo": 120.0
            },
            {
                "start_time": 80.2022727,
                "end_time": 80.4045455,
                "pitch": 36,
                "velocity": 101,
                "duration": 0.2022727,
                "tempo": 120.0
            },
            {
                "start_time": 80.4045455,
                "end_time": 80.6045455,
                "pitch": 31,
                "velocity": 101,
                "duration": 0.2,
                "tempo": 120.0
            },
            {
                "start_time": 80.6045455,
                "end_time": 80.8045455,
                "pitch": 38,
                "velocity": 101,
                "duration": 0.2,
                "tempo": 120.0
            },
            {
                "start_time": 80.8045455,
                "end_time": 81.0045455,
                "pitch": 43,
                "velocity": 101,
                "duration": 0.2,
                "tempo": 120.0
            },
            {
                "start_time": 79.3977273,
                "end_time": 81.0045455,
                "pitch": 53,
                "velocity": 101,
                "duration": 1.6068182,
                "tempo": 120.0
            },
            {
                "start_time": 81.0045455,
                "end_time": 81.2090909,
                "pitch": 38,
                "velocity": 101,
                "duration": 0.2045455,
                "tempo": 120.0
            },
            {
                "start_time": 81.2090909,
                "end_time": 81.3568182,
                "pitch": 36,
                "velocity": 101,
                "duration": 0.1477273,
                "tempo": 120.0
            },
            {
                "start_time": 81.2090909,
                "end_time": 81.3568182,
                "pitch": 36,
                "velocity": 101,
                "duration": 0.1477273,
                "tempo": 120.0
            },
            {
                "start_time": 81.6113636,
                "end_time": 81.6590909,
                "pitch": 36,
                "velocity": 101,
                "duration": 0.0477273,
                "tempo": 120.0
            },
            {
                "start_time": 81.7113636,
                "end_time": 81.7590909,
                "pitch": 36,
                "velocity": 80,
                "duration": 0.0477273,
                "tempo": 120.0
            },
            {
                "start_time": 82.0113636,
                "end_time": 82.1613636,
                "pitch": 36,
                "velocity": 101,
                "duration": 0.15,
                "tempo": 120.0
            },
            {
                "start_time": 82.4136364,
                "end_time": 82.4636364,
                "pitch": 36,
                "velocity": 101,
                "duration": 0.05,
                "tempo": 120.0
            },
            {
                "start_time": 82.5136364,
                "end_time": 82.5636364,
                "pitch": 36,
                "velocity": 80,
                "duration": 0.05,
                "tempo": 120.0
            },
            {
                "start_time": 82.8136364,
                "end_time": 82.9659091,
                "pitch": 36,
                "velocity": 101,
                "duration": 0.1522727,
                "tempo": 120.0
            },
            {
                "start_time": 83.0159091,
                "end_time": 83.1659091,
                "pitch": 36,
                "velocity": 101,
                "duration": 0.15,
                "tempo": 120.0
            },
            {
                "start_time": 83.2181818,
                "end_time": 83.2681818,
                "pitch": 36,
                "velocity": 101,
                "duration": 0.05,
                "tempo": 120.0
            },
            {
                "start_time": 83.3204545,
                "end_time": 83.3704545,
                "pitch": 36,
                "velocity": 80,
                "duration": 0.05,
                "tempo": 120.0
            },
            {
                "start_time": 83.4227273,
                "end_time": 83.5772727,
                "pitch": 36,
                "velocity": 101,
                "duration": 0.1545455,
                "tempo": 120.0
            },
            {
                "start_time": 83.6295455,
                "end_time": 83.6772727,
                "pitch": 36,
                "velocity": 101,
                "duration": 0.0477273,
                "tempo": 120.0
            },
            {
                "start_time": 83.7272727,
                "end_time": 83.775,
                "pitch": 36,
                "velocity": 80,
                "duration": 0.0477273,
                "tempo": 120.0
            },
            {
                "start_time": 83.825,
                "end_time": 83.9727273,
                "pitch": 36,
                "velocity": 101,
                "duration": 0.1477273,
                "tempo": 120.0
            },
            {
                "start_time": 84.0227273,
                "end_time": 84.0727273,
                "pitch": 36,
                "velocity": 101,
                "duration": 0.05,
                "tempo": 120.0
            },
            {
                "start_time": 84.125,
                "end_time": 84.175,
                "pitch": 48,
                "velocity": 101,
                "duration": 0.05,
                "tempo": 120.0
            },
            {
                "start_time": 84.2272727,
                "end_time": 84.3818182,
                "pitch": 36,
                "velocity": 101,
                "duration": 0.1545455,
                "tempo": 120.0
            },
            {
                "start_time": 84.4386364,
                "end_time": 84.45,
                "pitch": 36,
                "velocity": 101,
                "duration": 0.0113636,
                "tempo": 120.0
            }
        ],
        "Acoustic Grand Piano": [
            {
                "start_time": 55.2863636,
                "end_time": 55.4863636,
                "pitch": 71,
                "velocity": 101,
                "duration": 0.2,
                "tempo": 120.0
            },
            {
                "start_time": 55.4863636,
                "end_time": 55.6863636,
                "pitch": 69,
                "velocity": 101,
                "duration": 0.2,
                "tempo": 120.0
            },
            {
                "start_time": 55.4863636,
                "end_time": 55.6863636,
                "pitch": 69,
                "velocity": 127,
                "duration": 0.2,
                "tempo": 120.0
            },
            {
                "start_time": 55.6863636,
                "end_time": 55.9045455,
                "pitch": 69,
                "velocity": 127,
                "duration": 0.2181818,
                "tempo": 120.0
            },
            {
                "start_time": 56.8909091,
                "end_time": 57.0909091,
                "pitch": 67,
                "velocity": 127,
                "duration": 0.2,
                "tempo": 120.0
            },
            {
                "start_time": 57.0909091,
                "end_time": 57.2909091,
                "pitch": 69,
                "velocity": 127,
                "duration": 0.2,
                "tempo": 120.0
            },
            {
                "start_time": 57.2909091,
                "end_time": 57.5068182,
                "pitch": 69,
                "velocity": 127,
                "duration": 0.2159091,
                "tempo": 120.0
            },
            {
                "start_time": 58.2954545,
                "end_time": 58.6954545,
                "pitch": 67,
                "velocity": 127,
                "duration": 0.4,
                "tempo": 120.0
            },
            {
                "start_time": 58.6954545,
                "end_time": 58.8954545,
                "pitch": 69,
                "velocity": 127,
                "duration": 0.2,
                "tempo": 120.0
            },
            {
                "start_time": 58.8954545,
                "end_time": 59.1113636,
                "pitch": 69,
                "velocity": 127,
                "duration": 0.2159091,
                "tempo": 120.0
            },
            {
                "start_time": 60.3,
                "end_time": 60.9,
                "pitch": 65,
                "velocity": 127,
                "duration": 0.6,
                "tempo": 120.0
            },
            {
                "start_time": 60.9,
                "end_time": 61.3,
                "pitch": 65,
                "velocity": 127,
                "duration": 0.4,
                "tempo": 120.0
            },
            {
                "start_time": 61.3,
                "end_time": 61.5022727,
                "pitch": 65,
                "velocity": 127,
                "duration": 0.2022727,
                "tempo": 120.0
            },
            {
                "start_time": 61.5022727,
                "end_time": 61.9136364,
                "pitch": 67,
                "velocity": 127,
                "duration": 0.4113636,
                "tempo": 120.0
            },
            {
                "start_time": 61.9136364,
                "end_time": 62.1136364,
                "pitch": 69,
                "velocity": 127,
                "duration": 0.2,
                "tempo": 120.0
            },
            {
                "start_time": 62.1136364,
                "end_time": 62.3295455,
                "pitch": 69,
                "velocity": 127,
                "duration": 0.2159091,
                "tempo": 120.0
            },
            {
                "start_time": 63.3159091,
                "end_time": 63.5181818,
                "pitch": 67,
                "velocity": 127,
                "duration": 0.2022727,
                "tempo": 120.0
            },
            {
                "start_time": 63.5181818,
                "end_time": 63.7181818,
                "pitch": 69,
                "velocity": 127,
                "duration": 0.2,
                "tempo": 120.0
            },
            {
                "start_time": 63.7181818,
                "end_time": 63.9340909,
                "pitch": 69,
                "velocity": 127,
                "duration": 0.2159091,
                "tempo": 120.0
            },
            {
                "start_time": 64.7181818,
                "end_time": 65.1227273,
                "pitch": 67,
                "velocity": 127,
                "duration": 0.4045455,
                "tempo": 120.0
            },
            {
                "start_time": 65.1227273,
                "end_time": 65.3227273,
                "pitch": 69,
                "velocity": 127,
                "duration": 0.2,
                "tempo": 120.0
            },
            {
                "start_time": 65.3227273,
                "end_time": 65.5386364,
                "pitch": 69,
                "velocity": 127,
                "duration": 0.2159091,
                "tempo": 120.0
            },
            {
                "start_time": 66.7295455,
                "end_time": 67.3340909,
                "pitch": 69,
                "velocity": 127,
                "duration": 0.6045455,
                "tempo": 120.0
            },
            {
                "start_time": 67.3340909,
                "end_time": 67.7340909,
                "pitch": 69,
                "velocity": 127,
                "duration": 0.4,
                "tempo": 120.0
            },
            {
                "start_time": 67.7340909,
                "end_time": 67.9363636,
                "pitch": 69,
                "velocity": 127,
                "duration": 0.2022727,
                "tempo": 120.0
            }
        ]
    }
}