{
    "mood": "happy",
    "instruments": {
        "Acoustic Grand Piano": [
            {
                "start_time": 0.4795455,
                "end_time": 0.9363636,
                "pitch": 64,
                "velocity": 80,
                "duration": 0.4568182,
                "tempo": 120.0
            },
            {
                "start_time": 0.9386364,
                "end_time": 1.6363636,
                "pitch": 62,
                "velocity": 80,
                "duration": 0.6977273,
                "tempo": 120.0
            },
            {
                "start_time": 1.6363636,
                "end_time": 1.8659091,
                "pitch": 64,
                "velocity": 80,
                "duration": 0.2295455,
                "tempo": 120.0
            },
            {
                "start_time": 1.8659091,
                "end_time": 2.3340909,
                "pitch": 65,
                "velocity": 80,
                "duration": 0.4681818,
                "tempo": 120.0
            },
            {
                "start_time": 2.3363636,
                "end_time": 2.5704545,
                "pitch": 64,
                "velocity": 80,
                "duration": 0.2340909,
                "tempo": 120.0
            },
            {
                "start_time": 2.5704545,
                "end_time": 3.0386364,
                "pitch": 62,
                "velocity": 80,
                "duration": 0.4681818,
                "tempo": 120.0
            },
            {
                "start_time": 3.0409091,
                "end_time": 3.7318182,
                "pitch": 64,
                "velocity": 80,
                "duration": 0.6909091,
                "tempo": 120.0
            },
            {
                "start_time": 3.7340909,
                "end_time": 5.6,
                "pitch": 60,
                "velocity": 80,
                "duration": 1.8659091,
                "tempo": 120.0
            },
            {
                "start_time": 5.6022727,
                "end_time": 7.4636364,
                "pitch": 62,
                "velocity": 80,
                "duration": 1.8613636,
                "tempo": 120.0
            },
            {
                "start_time": 7.9340909,
                "end_time": 8.3931818,
                "pitch": 64,
                "velocity": 80,
                "duration": 0.4590909,
                "tempo": 120.0
            },
            {
                "start_time": 8.3931818,
                "end_time": 9.0977273,
                "pitch": 62,
                "velocity": 80,
                "duration": 0.7045455,
                "tempo": 120.0
            },
            {
                "start_time": 9.1,
                "end_time": 9.3272727,
                "pitch": 64,
                "velocity": 80,
                "duration": 0.2272727,
                "tempo": 120.0
            },
            {
                "start_time": 9.3295455,
                "end_time": 9.7977273,
                "pitch": 65,
                "velocity": 80,
                "duration": 0.4681818,
                "tempo": 120.0
            },
            {
                "start_time": 9.7977273,
                "end_time": 10.0318182,
                "pitch": 64,
                "velocity": 80,
                "duration": 0.2340909,
                "tempo": 120.0
            },
            {
                "start_time": 10.0340909,
                "end_time": 10.4954545,
                "pitch": 62,
                "velocity": 80,
                "duration": 0.4613636,
                "tempo": 120.0
            },
            {
                "start_time": 10.4977273,
                "end_time": 11.1954545,
                "pitch": 64,
                "velocity": 80,
                "duration": 0.6977273,
                "tempo": 120.0
            },
            {
                "start_time": 11.1977273,
                "end_time": 13.0636364,
                "pitch": 60,
                "velocity": 80,
                "duration": 1.8659091,
                "tempo": 120.0
            },
            {
                "start_time": 13.0636364,
                "end_time": 14.9318182,
                "pitch": 62,
                "velocity": 80,
                "duration": 1.8681818,
                "tempo": 120.0
            },
            {
                "start_time": 15.3909091,
                "end_time": 15.8590909,
                "pitch": 64,
                "velocity": 80,
                "duration": 0.4681818,
                "tempo": 120.0
            },
            {
                "start_time": 15.8590909,
                "end_time": 16.5636364,
                "pitch": 62,
                "velocity": 80,
                "duration": 0.7045455,
                "tempo": 120.0
            },
            {
                "start_time": 16.5636364,
                "end_time": 16.7977273,
                "pitch": 64,
                "velocity": 80,
                "duration": 0.2340909,
                "tempo": 120.0
            },
            {
                "start_time": 16.8,
                "end_time": 17.2568182,
                "pitch": 65,
                "velocity": 80,
                "duration": 0.4568182,
                "tempo": 120.0
            },
            {
                "start_time": 17.2568182,
                "end_time": 17.4909091,
                "pitch": 64,
                "velocity": 80,
                "duration": 0.2340909,
                "tempo": 120.0
            },
            {
                "start_time": 17.4931818,
                "end_time": 17.9613636,
                "pitch": 62,
                "velocity": 80,
                "duration": 0.4681818,
                "tempo": 120.0
            },
            {
                "start_time": 17.9613636,
                "end_time": 18.6659091,
                "pitch": 64,
                "velocity": 80,
                "duration": 0.7045455,
                "tempo": 120.0
            },
            {
                "start_time": 19.125,
                "end_time": 19.5931818,
                "pitch": 64,
                "velocity": 80,
                "duration": 0.4681818,
                "tempo": 120.0
            },
            {
                "start_time": 19.5954545,
                "end_time": 20.2977273,
                "pitch": 62,
                "velocity": 80,
                "duration": 0.7022727,
                "tempo": 120.0
            },
            {
                "start_time": 20.3,
                "end_time": 20.5340909,
                "pitch": 64,
                "velocity": 80,
                "duration": 0.2340909,
                "tempo": 120.0
            },
            {
                "start_time": 20.5340909,
                "end_time": 20.9931818,
                "pitch": 65,
                "velocity": 80,
                "duration": 0.4590909,
                "tempo": 120.0
            },
            {
                "start_time": 20.9931818,
                "end_time": 21.2272727,
                "pitch": 64,
                "velocity": 80,
                "duration": 0.2340909,
                "tempo": 120.0
            },
            {
                "start_time": 21.2272727,
                "end_time": 21.6977273,
                "pitch": 62,
                "velocity": 80,
                "duration": 0.4704545,
                "tempo": 120.0
            },
            {
                "start_time": 21.6977273,
                "end_time": 22.3909091,
                "pitch": 64,
                "velocity": 80,
                "duration": 0.6931818,
                "tempo": 120.0
            },
            {
                "start_time": 22.8613636,
                "end_time": 23.3295455,
                "pitch": 64,
                "velocity": 80,
                "duration": 0.4681818,
                "tempo": 120.0
            },
            {
                "start_time": 23.3295455,
                "end_time": 24.0295455,
                "pitch": 62,
                "velocity": 80,
                "duration": 0.7,
                "tempo": 120.0
            },
            {
                "start_time": 24.0295455,
                "end_time": 24.2590909,
                "pitch": 64,
                "velocity": 80,
                "duration": 0.2295455,
                "tempo": 120.0
            },
            {
                "start_time": 24.2590909,
                "end_time": 24.7272727,
                "pitch": 65,
                "velocity": 80,
                "duration": 0.4681818,
                "tempo": 120.0
            },
            {
                "start_time": 24.7272727,
                "end_time": 24.9613636,
                "pitch": 64,
                "velocity": 80,
                "duration": 0.2340909,
                "tempo": 120.0
            },
            {
                "start_time": 24.9636364,
                "end_time": 25.4272727,
                "pitch": 62,
                "velocity": 80,
                "duration": 0.4636364,
                "tempo": 120.0
            },
            {
                "start_time": 25.4272727,
                "end_time": 26.125,
                "pitch": 64,
                "velocity": 80,
                "duration": 0.6977273,
                "tempo": 120.0
            },
            {
                "start_time": 26.1272727,
                "end_time": 27.9931818,
                "pitch": 60,
                "velocity": 80,
                "duration": 1.8659091,
                "tempo": 120.0
            },
            {
                "start_time": 27.9931818,
                "end_time": 29.8613636,
                "pitch": 62,
                "velocity": 80,
                "duration": 1.8681818,
                "tempo": 120.0
            }
        ]
    }
}