{
    "mood": "happy",
    "instruments": {
        "Lead 2 (sawtooth)": [
            {
                "start_time": 25.5454545,
                "end_time": 25.7454545,
                "pitch": 44,
                "velocity": 80,
                "duration": 0.2,
                "tempo": 120.0
            },
            {
                "start_time": 25.7454545,
                "end_time": 25.9431818,
                "pitch": 44,
                "velocity": 80,
                "duration": 0.1977273,
                "tempo": 120.0
            },
            {
                "start_time": 25.9431818,
                "end_time": 25.9454545,
                "pitch": 44,
                "velocity": 80,
                "duration": 0.0022727,
                "tempo": 120.0
            },
            {
                "start_time": 25.5454545,
                "end_time": 26.1386364,
                "pitch": 48,
                "velocity": 80,
                "duration": 0.5931818,
                "tempo": 120.0
            },
            {
                "start_time": 25.9454545,
                "end_time": 26.1386364,
                "pitch": 48,
                "velocity": 80,
                "duration": 0.1931818,
                "tempo": 120.0
            },
            {
                "start_time": 26.1386364,
                "end_time": 26.3340909,
                "pitch": 44,
                "velocity": 80,
                "duration": 0.1954545,
                "tempo": 120.0
            },
            {
                "start_time": 26.3340909,
                "end_time": 26.5340909,
                "pitch": 51,
                "velocity": 80,
                "duration": 0.2,
                "tempo": 120.0
            },
            {
                "start_time": 26.5340909,
                "end_time": 26.7340909,
                "pitch": 51,
                "velocity": 80,
                "duration": 0.2,
                "tempo": 120.0
            },
            {
                "start_time": 26.7340909,
                "end_time": 26.9340909,
                "pitch": 48,
                "velocity": 80,
                "duration": 0.2,
                "tempo": 120.0
            },
            {
                "start_time": 26.9340909,
                "end_time": 27.1340909,
                "pitch": 51,
                "velocity": 80,
                "duration": 0.2,
                "tempo": 120.0
            },
            {
                "start_time": 27.1363636,
                "end_time": 27.3340909,
                "pitch": 46,
                "velocity": 80,
                "duration": 0.1977273,
                "tempo": 120.0
            },
            {
                "start_time": 27.3340909,
                "end_time": 27.5340909,
                "pitch": 46,
                "velocity": 80,
                "duration": 0.2,
                "tempo": 120.0
            },
            {
                "start_time": 26.7340909,
                "end_time": 27.7340909,
                "pitch": 50,
                "velocity": 80,
                "duration": 1.0,
                "tempo": 120.0
            },
            {
                "start_time": 27.5340909,
                "end_time": 27.7340909,
                "pitch": 50,
                "velocity": 80,
                "duration": 0.2,
                "tempo": 120.0
            },
            {
                "start_time": 27.5340909,
                "end_time": 27.9340909,
                "pitch": 46,
                "velocity": 80,
                "duration": 0.4,
                "tempo": 120.0
            },
            {
                "start_time": 27.7340909,
                "end_time": 27.9340909,
                "pitch": 46,
                "velocity": 80,
                "duration": 0.2,
                "tempo": 120.0
            },
            {
                "start_time": 27.9340909,
                "end_time": 28.1340909,
                "pitch": 53,
                "velocity": 80,
                "duration": 0.2,
                "tempo": 120.0
            },
            {
                "start_time": 28.1340909,
                "end_time": 28.3340909,
                "pitch": 51,
                "velocity": 80,
                "duration": 0.2,
                "tempo": 120.0
            },
            {
                "start_time": 28.3340909,
                "end_time": 28.5295455,
                "pitch": 51,
                "velocity": 80,
                "duration": 0.1954545,
                "tempo": 120.0
            },
            {
                "start_time": 28.1340909,
                "end_time": 28.725,
                "pitch": 53,
                "velocity": 80,
                "duration": 0.5909091,
                "tempo": 120.0
            },
            {
                "start_time": 28.5295455,
                "end_time": 28.725,
                "pitch": 53,
                "velocity": 80,
                "duration": 0.1954545,
                "tempo": 120.0
            },
            {
                "start_time": 28.725,
                "end_time": 28.7931818,
                "pitch": 43,
                "velocity": 80,
                "duration": 0.0681818,
                "tempo": 120.0
            },
            {
                "start_time": 28.7931818,
                "end_time": 28.8613636,
                "pitch": 43,
                "velocity": 80,
                "duration": 0.0681818,
                "tempo": 120.0
            },
            {
                "start_time": 28.8613636,
                "end_time": 28.9295455,
                "pitch": 43,
                "velocity": 80,
                "duration": 0.0681818,
                "tempo": 120.0
            },
            {
                "start_time": 28.9295455,
                "end_time": 28.9977273,
                "pitch": 43,
                "velocity": 80,
                "duration": 0.0681818,
                "tempo": 120.0
            },
            {
                "start_time": 28.7931818,
                "end_time": 28.9977273,
                "pitch": 55,
                "velocity": 80,
                "duration": 0.2045455,
                "tempo": 120.0
            },
            {
                "start_time": 28.8613636,
                "end_time": 29.0659091,
                "pitch": 0,
                "velocity": 80,
                "duration": 0.2045455,
                "tempo": 120.0
            },
            {
                "start_time": 28.9977273,
                "end_time": 29.0659091,
                "pitch": 43,
                "velocity": 80,
                "duration": 0.0681818,
                "tempo": 120.0
            },
            {
                "start_time": 29.0659091,
                "end_time": 29.1340909,
                "pitch": 43,
                "velocity": 80,
                "duration": 0.0681818,
                "tempo": 120.0
            },
            {
                "start_time": 28.9977273,
                "end_time": 29.1340909,
                "pitch": 55,
                "velocity": 80,
                "duration": 0.1363636,
                "tempo": 120.0
            },
            {
                "start_time": 29.1340909,
                "end_time": 29.3295455,
                "pitch": 46,
                "velocity": 80,
                "duration": 0.1954545,
                "tempo": 120.0
            },
            {
                "start_time": 29.3295455,
                "end_time": 29.3931818,
                "pitch": 43,
                "velocity": 80,
                "duration": 0.0636364,
                "tempo": 120.0
            },
            {
                "start_time": 29.1340909,
                "end_time": 29.3931818,
                "pitch": 55,
                "velocity": 80,
                "duration": 0.2590909,
                "tempo": 120.0
            },
            {
                "start_time": 29.0659091,
                "end_time": 29.4590909,
                "pitch": 0,
                "velocity": 80,
                "duration": 0.3931818,
                "tempo": 120.0
            },
            {
                "start_time": 29.3931818,
                "end_time": 29.4590909,
                "pitch": 43,
                "velocity": 80,
                "duration": 0.0659091,
                "tempo": 120.0
            },
            {
                "start_time": 29.4590909,
                "end_time": 29.525,
                "pitch": 43,
                "velocity": 80,
                "duration": 0.0659091,
                "tempo": 120.0
            },
            {
                "start_time": 29.525,
                "end_time": 29.725,
                "pitch": 50,
                "velocity": 80,
                "duration": 0.2,
                "tempo": 120.0
            },
            {
                "start_time": 26.9340909,
                "end_time": 29.9227273,
                "pitch": 48,
                "velocity": 80,
                "duration": 2.9886364,
                "tempo": 120.0
            },
            {
                "start_time": 29.725,
                "end_time": 29.9227273,
                "pitch": 48,
                "velocity": 80,
                "duration": 0.1977273,
                "tempo": 120.0
            },
            {
                "start_time": 29.9227273,
                "end_time": 30.125,
                "pitch": 46,
                "velocity": 80,
                "duration": 0.2022727,
                "tempo": 120.0
            },
            {
                "start_time": 29.725,
                "end_time": 30.325,
                "pitch": 50,
                "velocity": 80,
                "duration": 0.6,
                "tempo": 120.0
            },
            {
                "start_time": 30.125,
                "end_time": 30.325,
                "pitch": 50,
                "velocity": 80,
                "duration": 0.2,
                "tempo": 120.0
            },
            {
                "start_time": 29.9227273,
                "end_time": 30.5295455,
                "pitch": 48,
                "velocity": 80,
                "duration": 0.6068182,
                "tempo": 120.0
            },
            {
                "start_time": 30.325,
                "end_time": 30.5295455,
                "pitch": 48,
                "velocity": 80,
                "duration": 0.2045455,
                "tempo": 120.0
            },
            {
                "start_time": 30.5295455,
                "end_time": 30.7340909,
                "pitch": 48,
                "velocity": 80,
                "duration": 0.2045455,
                "tempo": 120.0
            },
            {
                "start_time": 30.7340909,
                "end_time": 30.9295455,
                "pitch": 51,
                "velocity": 80,
                "duration": 0.1954545,
                "tempo": 120.0
            },
            {
                "start_time": 30.7340909,
                "end_time": 31.125,
                "pitch": 48,
                "velocity": 80,
                "duration": 0.3909091,
                "tempo": 120.0
            },
            {
                "start_time": 30.9295455,
                "end_time": 31.125,
                "pitch": 48,
                "velocity": 80,
                "duration": 0.1954545,
                "tempo": 120.0
            },
            {
                "start_time": 29.3931818,
                "end_time": 31.1909091,
                "pitch": 55,
                "velocity": 80,
                "duration": 1.7977273,
                "tempo": 120.0
            },
            {
                "start_time": 31.125,
                "end_time": 31.1909091,
                "pitch": 55,
                "velocity": 80,
                "duration": 0.0659091,
                "tempo": 120.0
            },
            {
                "start_time": 29.4590909,
                "end_time": 31.2590909,
                "pitch": 0,
                "velocity": 80,
                "duration": 1.8,
                "tempo": 120.0
            },
            {
                "start_time": 31.1909091,
                "end_time": 31.2590909,
                "pitch": 55,
                "velocity": 80,
                "duration": 0.0681818,
                "tempo": 120.0
            },
            {
                "start_time": 31.2590909,
                "end_time": 31.325,
                "pitch": 55,
                "velocity": 80,
                "duration": 0.0659091,
                "tempo": 120.0
            },
            {
                "start_time": 31.325,
                "end_time": 31.5272727,
                "pitch": 55,
                "velocity": 80,
                "duration": 0.2022727,
                "tempo": 120.0
            },
            {
                "start_time": 31.5272727,
                "end_time": 31.7204545,
                "pitch": 51,
                "velocity": 80,
                "duration": 0.1931818,
                "tempo": 120.0
            },
            {
                "start_time": 31.7204545,
                "end_time": 31.7227273,
                "pitch": 34,
                "velocity": 80,
                "duration": 0.0022727,
                "tempo": 120.0
            },
            {
                "start_time": 31.7227273,
                "end_time": 31.7863636,
                "pitch": 43,
                "velocity": 80,
                "duration": 0.0636364,
                "tempo": 120.0
            },
            {
                "start_time": 31.2590909,
                "end_time": 31.8522727,
                "pitch": 0,
                "velocity": 80,
                "duration": 0.5931818,
                "tempo": 120.0
            },
            {
                "start_time": 31.7863636,
                "end_time": 31.8522727,
                "pitch": 43,
                "velocity": 80,
                "duration": 0.0659091,
                "tempo": 120.0
            },
            {
                "start_time": 31.8522727,
                "end_time": 31.9181818,
                "pitch": 43,
                "velocity": 80,
                "duration": 0.0659091,
                "tempo": 120.0
            },
            {
                "start_time": 31.9181818,
                "end_time": 32.1204545,
                "pitch": 44,
                "velocity": 80,
                "duration": 0.2022727,
                "tempo": 120.0
            },
            {
                "start_time": 32.1204545,
                "end_time": 32.3272727,
                "pitch": 44,
                "velocity": 80,
                "duration": 0.2068182,
                "tempo": 120.0
            },
            {
                "start_time": 32.3272727,
                "end_time": 32.5227273,
                "pitch": 48,
                "velocity": 80,
                "duration": 0.1954545,
                "tempo": 120.0
            },
            {
                "start_time": 32.3272727,
                "end_time": 32.7159091,
                "pitch": 44,
                "velocity": 80,
                "duration": 0.3886364,
                "tempo": 120.0
            },
            {
                "start_time": 32.5227273,
                "end_time": 32.7159091,
                "pitch": 44,
                "velocity": 80,
                "duration": 0.1931818,
                "tempo": 120.0
            },
            {
                "start_time": 32.7159091,
                "end_time": 32.9159091,
                "pitch": 51,
                "velocity": 80,
                "duration": 0.2,
                "tempo": 120.0
            },
            {
                "start_time": 32.9159091,
                "end_time": 33.1159091,
                "pitch": 51,
                "velocity": 80,
                "duration": 0.2,
                "tempo": 120.0
            },
            {
                "start_time": 32.5227273,
                "end_time": 33.3159091,
                "pitch": 48,
                "velocity": 80,
                "duration": 0.7931818,
                "tempo": 120.0
            },
            {
                "start_time": 33.1159091,
                "end_time": 33.3159091,
                "pitch": 48,
                "velocity": 80,
                "duration": 0.2,
                "tempo": 120.0
            },
            {
                "start_time": 33.3159091,
                "end_time": 33.5136364,
                "pitch": 51,
                "velocity": 80,
                "duration": 0.1977273,
                "tempo": 120.0
            },
            {
                "start_time": 30.125,
                "end_time": 33.7136364,
                "pitch": 46,
                "velocity": 80,
                "duration": 3.5886364,
                "tempo": 120.0
            },
            {
                "start_time": 33.5136364,
                "end_time": 33.7136364,
                "pitch": 46,
                "velocity": 80,
                "duration": 0.2,
                "tempo": 120.0
            },
            {
                "start_time": 33.7136364,
                "end_time": 33.9136364,
                "pitch": 46,
                "velocity": 80,
                "duration": 0.2,
                "tempo": 120.0
            },
            {
                "start_time": 33.1159091,
                "end_time": 34.1113636,
                "pitch": 50,
                "velocity": 80,
                "duration": 0.9954545,
                "tempo": 120.0
            },
            {
                "start_time": 33.9136364,
                "end_time": 34.1113636,
                "pitch": 50,
                "velocity": 80,
                "duration": 0.1977273,
                "tempo": 120.0
            },
            {
                "start_time": 33.9136364,
                "end_time": 34.3113636,
                "pitch": 46,
                "velocity": 80,
                "duration": 0.3977273,
                "tempo": 120.0
            },
            {
                "start_time": 34.1113636,
                "end_time": 34.3113636,
                "pitch": 46,
                "velocity": 80,
                "duration": 0.2,
                "tempo": 120.0
            },
            {
                "start_time": 31.5272727,
                "end_time": 34.5113636,
                "pitch": 53,
                "velocity": 80,
                "duration": 2.9840909,
                "tempo": 120.0
            },
            {
                "start_time": 34.3113636,
                "end_time": 34.5113636,
                "pitch": 53,
                "velocity": 80,
                "duration": 0.2,
                "tempo": 120.0
            },
            {
                "start_time": 33.5136364,
                "end_time": 34.7136364,
                "pitch": 51,
                "velocity": 80,
                "duration": 1.2,
                "tempo": 120.0
            },
            {
                "start_time": 34.5113636,
                "end_time": 34.7136364,
                "pitch": 51,
                "velocity": 80,
                "duration": 0.2022727,
                "tempo": 120.0
            },
            {
                "start_time": 34.7136364,
                "end_time": 34.9090909,
                "pitch": 51,
                "velocity": 80,
                "duration": 0.1954545,
                "tempo": 120.0
            },
            {
                "start_time": 34.5113636,
                "end_time": 35.1045455,
                "pitch": 53,
                "velocity": 80,
                "duration": 0.5931818,
                "tempo": 120.0
            },
            {
                "start_time": 34.9090909,
                "end_time": 35.1045455,
                "pitch": 53,
                "velocity": 80,
                "duration": 0.1954545,
                "tempo": 120.0
            },
            {
                "start_time": 31.7863636,
                "end_time": 35.1704545,
                "pitch": 55,
                "velocity": 80,
                "duration": 3.3840909,
                "tempo": 120.0
            },
            {
                "start_time": 35.1045455,
                "end_time": 35.1704545,
                "pitch": 55,
                "velocity": 80,
                "duration": 0.0659091,
                "tempo": 120.0
            },
            {
                "start_time": 31.1909091,
                "end_time": 35.1704545,
                "pitch": 67,
                "velocity": 80,
                "duration": 3.9795455,
                "tempo": 120.0
            },
            {
                "start_time": 31.8522727,
                "end_time": 35.2386364,
                "pitch": 0,
                "velocity": 80,
                "duration": 3.3863636,
                "tempo": 120.0
            },
            {
                "start_time": 35.1704545,
                "end_time": 35.2386364,
                "pitch": 55,
                "velocity": 80,
                "duration": 0.0681818,
                "tempo": 120.0
            },
            {
                "start_time": 35.2386364,
                "end_time": 35.3090909,
                "pitch": 55,
                "velocity": 80,
                "duration": 0.0704545,
                "tempo": 120.0
            },
            {
                "start_time": 35.1704545,
                "end_time": 35.3090909,
                "pitch": 67,
                "velocity": 80,
                "duration": 0.1386364,
                "tempo": 120.0
            },
            {
                "start_time": 35.2386364,
                "end_time": 35.375,
                "pitch": 0,
                "velocity": 80,
                "duration": 0.1363636,
                "tempo": 120.0
            },
            {
                "start_time": 35.3090909,
                "end_time": 35.375,
                "pitch": 55,
                "velocity": 80,
                "duration": 0.0659091,
                "tempo": 120.0
            },
            {
                "start_time": 35.375,
                "end_time": 35.4454545,
                "pitch": 55,
                "velocity": 80,
                "duration": 0.0704545,
                "tempo": 120.0
            },
            {
                "start_time": 35.3090909,
                "end_time": 35.4454545,
                "pitch": 67,
                "velocity": 80,
                "duration": 0.1363636,
                "tempo": 120.0
            },
            {
                "start_time": 35.4454545,
                "end_time": 35.5136364,
                "pitch": 55,
                "velocity": 80,
                "duration": 0.0681818,
                "tempo": 120.0
            },
            {
                "start_time": 35.5136364,
                "end_time": 35.5772727,
                "pitch": 55,
                "velocity": 80,
                "duration": 0.0636364,
                "tempo": 120.0
            },
            {
                "start_time": 35.4454545,
                "end_time": 35.5772727,
                "pitch": 67,
                "velocity": 80,
                "duration": 0.1318182,
                "tempo": 120.0
            },
            {
                "start_time": 35.375,
                "end_time": 35.6431818,
                "pitch": 0,
                "velocity": 80,
                "duration": 0.2681818,
                "tempo": 120.0
            },
            {
                "start_time": 35.5772727,
                "end_time": 35.6431818,
                "pitch": 55,
                "velocity": 80,
                "duration": 0.0659091,
                "tempo": 120.0
            },
            {
                "start_time": 35.6431818,
                "end_time": 35.7090909,
                "pitch": 55,
                "velocity": 80,
                "duration": 0.0659091,
                "tempo": 120.0
            },
            {
                "start_time": 35.5772727,
                "end_time": 35.7090909,
                "pitch": 67,
                "velocity": 80,
                "duration": 0.1318182,
                "tempo": 120.0
            },
            {
                "start_time": 35.6431818,
                "end_time": 35.7727273,
                "pitch": 0,
                "velocity": 80,
                "duration": 0.1295455,
                "tempo": 120.0
            },
            {
                "start_time": 35.7090909,
                "end_time": 35.7727273,
                "pitch": 55,
                "velocity": 80,
                "duration": 0.0636364,
                "tempo": 120.0
            },
            {
                "start_time": 35.7727273,
                "end_time": 35.8386364,
                "pitch": 55,
                "velocity": 80,
                "duration": 0.0659091,
                "tempo": 120.0
            },
            {
                "start_time": 35.7090909,
                "end_time": 35.8386364,
                "pitch": 67,
                "velocity": 80,
                "duration": 0.1295455,
                "tempo": 120.0
            },
            {
                "start_time": 35.7727273,
                "end_time": 35.9045455,
                "pitch": 0,
                "velocity": 80,
                "duration": 0.1318182,
                "tempo": 120.0
            },
            {
                "start_time": 35.8386364,
                "end_time": 35.9045455,
                "pitch": 55,
                "velocity": 80,
                "duration": 0.0659091,
                "tempo": 120.0
            },
            {
                "start_time": 35.9045455,
                "end_time": 35.9704545,
                "pitch": 55,
                "velocity": 80,
                "duration": 0.0659091,
                "tempo": 120.0
            },
            {
                "start_time": 35.8386364,
                "end_time": 35.9704545,
                "pitch": 67,
                "velocity": 80,
                "duration": 0.1318182,
                "tempo": 120.0
            },
            {
                "start_time": 35.9045455,
                "end_time": 36.0363636,
                "pitch": 0,
                "velocity": 80,
                "duration": 0.1318182,
                "tempo": 120.0
            },
            {
                "start_time": 35.9704545,
                "end_time": 36.0363636,
                "pitch": 55,
                "velocity": 80,
                "duration": 0.0659091,
                "tempo": 120.0
            },
            {
                "start_time": 36.0363636,
                "end_time": 36.1022727,
                "pitch": 55,
                "velocity": 80,
                "duration": 0.0659091,
                "tempo": 120.0
            },
            {
                "start_time": 35.9704545,
                "end_time": 36.1022727,
                "pitch": 67,
                "velocity": 80,
                "duration": 0.1318182,
                "tempo": 120.0
            },
            {
                "start_time": 36.0363636,
                "end_time": 36.1681818,
                "pitch": 0,
                "velocity": 80,
                "duration": 0.1318182,
                "tempo": 120.0
            },
            {
                "start_time": 36.1022727,
                "end_time": 36.1681818,
                "pitch": 55,
                "velocity": 80,
                "duration": 0.0659091,
                "tempo": 120.0
            },
            {
                "start_time": 36.1681818,
                "end_time": 36.2363636,
                "pitch": 55,
                "velocity": 80,
                "duration": 0.0681818,
                "tempo": 120.0
            },
            {
                "start_time": 36.1022727,
                "end_time": 36.2363636,
                "pitch": 67,
                "velocity": 80,
                "duration": 0.1340909,
                "tempo": 120.0
            },
            {
                "start_time": 36.1681818,
                "end_time": 36.3022727,
                "pitch": 0,
                "velocity": 80,
                "duration": 0.1340909,
                "tempo": 120.0
            },
            {
                "start_time": 36.2363636,
                "end_time": 36.3022727,
                "pitch": 55,
                "velocity": 80,
                "duration": 0.0659091,
                "tempo": 120.0
            },
            {
                "start_time": 36.3022727,
                "end_time": 36.3681818,
                "pitch": 55,
                "velocity": 80,
                "duration": 0.0659091,
                "tempo": 120.0
            },
            {
                "start_time": 36.2363636,
                "end_time": 36.3681818,
                "pitch": 67,
                "velocity": 80,
                "duration": 0.1318182,
                "tempo": 120.0
            },
            {
                "start_time": 36.3022727,
                "end_time": 36.4340909,
                "pitch": 0,
                "velocity": 80,
                "duration": 0.1318182,
                "tempo": 120.0
            },
            {
                "start_time": 36.3681818,
                "end_time": 36.4340909,
                "pitch": 55,
                "velocity": 80,
                "duration": 0.0659091,
                "tempo": 120.0
            },
            {
                "start_time": 36.4340909,
                "end_time": 36.5022727,
                "pitch": 55,
                "velocity": 80,
                "duration": 0.0681818,
                "tempo": 120.0
            },
            {
                "start_time": 36.3681818,
                "end_time": 36.5022727,
                "pitch": 67,
                "velocity": 80,
                "duration": 0.1340909,
                "tempo": 120.0
            },
            {
                "start_time": 36.4340909,
                "end_time": 36.5681818,
                "pitch": 0,
                "velocity": 80,
                "duration": 0.1340909,
                "tempo": 120.0
            },
            {
                "start_time": 36.5022727,
                "end_time": 36.5681818,
                "pitch": 55,
                "velocity": 80,
                "duration": 0.0659091,
                "tempo": 120.0
            },
            {
                "start_time": 36.5681818,
                "end_time": 36.6340909,
                "pitch": 55,
                "velocity": 80,
                "duration": 0.0659091,
                "tempo": 120.0
            },
            {
                "start_time": 36.5022727,
                "end_time": 36.6340909,
                "pitch": 67,
                "velocity": 80,
                "duration": 0.1318182,
                "tempo": 120.0
            }
        ],
        "Acoustic Bass": [
            {
                "start_time": 0.0181818,
                "end_time": 0.2181818,
                "pitch": 48,
                "velocity": 101,
                "duration": 0.2,
                "tempo": 120.0
            },
            {
                "start_time": 0.2181818,
                "end_time": 0.4159091,
                "pitch": 48,
                "velocity": 101,
                "duration": 0.1977273,
                "tempo": 120.0
            },
            {
                "start_time": 0.4159091,
                "end_time": 0.6159091,
                "pitch": 48,
                "velocity": 101,
                "duration": 0.2,
                "tempo": 120.0
            },
            {
                "start_time": 0.6159091,
                "end_time": 1.0136364,
                "pitch": 48,
                "velocity": 101,
                "duration": 0.3977273,
                "tempo": 120.0
            },
            {
                "start_time": 1.0136364,
                "end_time": 1.2136364,
                "pitch": 48,
                "velocity": 101,
                "duration": 0.2,
                "tempo": 120.0
            },
            {
                "start_time": 1.2136364,
                "end_time": 1.4136364,
                "pitch": 48,
                "velocity": 101,
                "duration": 0.2,
                "tempo": 120.0
            },
            {
                "start_time": 1.4136364,
                "end_time": 1.6136364,
                "pitch": 48,
                "velocity": 101,
                "duration": 0.2,
                "tempo": 120.0
            },
            {
                "start_time": 1.6136364,
                "end_time": 1.8136364,
                "pitch": 48,
                "velocity": 101,
                "duration": 0.2,
                "tempo": 120.0
            },
            {
                "start_time": 1.8136364,
                "end_time": 2.0136364,
                "pitch": 48,
                "velocity": 101,
                "duration": 0.2,
                "tempo": 120.0
            },
            {
                "start_time": 2.0136364,
                "end_time": 2.2090909,
                "pitch": 48,
                "velocity": 101,
                "duration": 0.1954545,
                "tempo": 120.0
            },
            {
                "start_time": 2.2090909,
                "end_time": 2.6068182,
                "pitch": 48,
                "velocity": 101,
                "duration": 0.3977273,
                "tempo": 120.0
            },
            {
                "start_time": 2.6068182,
                "end_time": 2.8068182,
                "pitch": 48,
                "velocity": 101,
                "duration": 0.2,
                "tempo": 120.0
            },
            {
                "start_time": 2.8068182,
                "end_time": 3.0068182,
                "pitch": 48,
                "velocity": 101,
                "duration": 0.2,
                "tempo": 120.0
            },
            {
                "start_time": 3.0068182,
                "end_time": 3.2045455,
                "pitch": 48,
                "velocity": 101,
                "duration": 0.1977273,
                "tempo": 120.0
            },
            {
                "start_time": 3.2045455,
                "end_time": 3.4045455,
                "pitch": 44,
                "velocity": 101,
                "duration": 0.2,
                "tempo": 120.0
            },
            {
                "start_time": 3.4045455,
                "end_time": 3.6045455,
                "pitch": 44,
                "velocity": 101,
                "duration": 0.2,
                "tempo": 120.0
            },
            {
                "start_time": 3.6045455,
                "end_time": 3.8022727,
                "pitch": 44,
                "velocity": 101,
                "duration": 0.1977273,
                "tempo": 120.0
            },
            {
                "start_time": 3.8022727,
                "end_time": 4.2022727,
                "pitch": 44,
                "velocity": 101,
                "duration": 0.4,
                "tempo": 120.0
            },
            {
                "start_time": 4.2022727,
                "end_time": 4.4,
                "pitch": 44,
                "velocity": 101,
                "duration": 0.1977273,
                "tempo": 120.0
            },
            {
                "start_time": 4.4,
                "end_time": 4.5954545,
                "pitch": 44,
                "velocity": 101,
                "duration": 0.1954545,
                "tempo": 120.0
            },
            {
                "start_time": 4.5954545,
                "end_time": 4.7909091,
                "pitch": 44,
                "velocity": 101,
                "duration": 0.1954545,
                "tempo": 120.0
            },
            {
                "start_time": 4.7909091,
                "end_time": 4.9909091,
                "pitch": 44,
                "velocity": 101,
                "duration": 0.2,
                "tempo": 120.0
            },
            {
                "start_time": 4.9909091,
                "end_time": 5.1909091,
                "pitch": 44,
                "velocity": 101,
                "duration": 0.2,
                "tempo": 120.0
            },
            {
                "start_time": 5.1909091,
                "end_time": 5.3909091,
                "pitch": 44,
                "velocity": 101,
                "duration": 0.2,
                "tempo": 120.0
            },
            {
                "start_time": 5.3909091,
                "end_time": 5.7909091,
                "pitch": 44,
                "velocity": 101,
                "duration": 0.4,
                "tempo": 120.0
            },
            {
                "start_time": 5.7909091,
                "end_time": 5.9909091,
                "pitch": 44,
                "velocity": 101,
                "duration": 0.2,
                "tempo": 120.0
            },
            {
                "start_time": 5.9909091,
                "end_time": 6.1909091,
                "pitch": 44,
                "velocity": 101,
                "duration": 0.2,
                "tempo": 120.0
            },
            {
                "start_time": 6.1909091,
                "end_time": 6.3909091,
                "pitch": 44,
                "velocity": 101,
                "duration": 0.2,
                "tempo": 120.0
            },
            {
                "start_time": 6.3909091,
                "end_time": 6.5931818,
                "pitch": 46,
                "velocity": 101,
                "duration": 0.2022727,
                "tempo": 120.0
            },
            {
                "start_time": 6.5931818,
                "end_time": 6.7931818,
                "pitch": 46,
                "velocity": 101,
                "duration": 0.2,
                "tempo": 120.0
            },
            {
                "start_time": 6.7931818,
                "end_time": 6.9931818,
                "pitch": 46,
                "velocity": 101,
                "duration": 0.2,
                "tempo": 120.0
            },
            {
                "start_time": 6.9931818,
                "end_time": 7.3863636,
                "pitch": 46,
                "velocity": 101,
                "duration": 0.3931818,
                "tempo": 120.0
            },
            {
                "start_time": 7.3863636,
                "end_time": 7.5818182,
                "pitch": 46,
                "velocity": 101,
                "duration": 0.1954545,
                "tempo": 120.0
            },
            {
                "start_time": 7.5818182,
                "end_time": 7.7818182,
                "pitch": 46,
                "velocity": 101,
                "duration": 0.2,
                "tempo": 120.0
            },
            {
                "start_time": 7.7818182,
                "end_time": 7.9818182,
                "pitch": 46,
                "velocity": 101,
                "duration": 0.2,
                "tempo": 120.0
            },
            {
                "start_time": 7.9818182,
                "end_time": 8.1863636,
                "pitch": 46,
                "velocity": 101,
                "duration": 0.2045455,
                "tempo": 120.0
            },
            {
                "start_time": 8.1863636,
                "end_time": 8.3909091,
                "pitch": 46,
                "velocity": 101,
                "duration": 0.2045455,
                "tempo": 120.0
            },
            {
                "start_time": 8.3909091,
                "end_time": 8.5863636,
                "pitch": 46,
                "velocity": 101,
                "duration": 0.1954545,
                "tempo": 120.0
            },
            {
                "start_time": 8.5863636,
                "end_time": 8.9818182,
                "pitch": 46,
                "velocity": 101,
                "duration": 0.3954545,
                "tempo": 120.0
            },
            {
                "start_time": 8.9818182,
                "end_time": 9.1795455,
                "pitch": 46,
                "velocity": 101,
                "duration": 0.1977273,
                "tempo": 120.0
            },
            {
                "start_time": 9.1795455,
                "end_time": 9.3818182,
                "pitch": 46,
                "velocity": 101,
                "duration": 0.2022727,
                "tempo": 120.0
            },
            {
                "start_time": 9.3818182,
                "end_time": 9.5818182,
                "pitch": 46,
                "velocity": 101,
                "duration": 0.2,
                "tempo": 120.0
            },
            {
                "start_time": 0.0181818,
                "end_time": 9.7818182,
                "pitch": 43,
                "velocity": 101,
                "duration": 9.7636364,
                "tempo": 120.0
            },
            {
                "start_time": 9.5818182,
                "end_time": 9.7818182,
                "pitch": 43,
                "velocity": 101,
                "duration": 0.2,
                "tempo": 120.0
            },
            {
                "start_time": 9.7818182,
                "end_time": 9.9840909,
                "pitch": 43,
                "velocity": 101,
                "duration": 0.2022727,
                "tempo": 120.0
            },
            {
                "start_time": 9.9840909,
                "end_time": 10.1840909,
                "pitch": 43,
                "velocity": 101,
                "duration": 0.2,
                "tempo": 120.0
            },
            {
                "start_time": 10.1840909,
                "end_time": 10.5795455,
                "pitch": 43,
                "velocity": 101,
                "duration": 0.3954545,
                "tempo": 120.0
            },
            {
                "start_time": 10.5795455,
                "end_time": 10.775,
                "pitch": 43,
                "velocity": 101,
                "duration": 0.1954545,
                "tempo": 120.0
            },
            {
                "start_time": 10.775,
                "end_time": 10.975,
                "pitch": 43,
                "velocity": 101,
                "duration": 0.2,
                "tempo": 120.0
            },
            {
                "start_time": 10.975,
                "end_time": 11.175,
                "pitch": 43,
                "velocity": 101,
                "duration": 0.2,
                "tempo": 120.0
            },
            {
                "start_time": 11.175,
                "end_time": 11.375,
                "pitch": 43,
                "velocity": 101,
                "duration": 0.2,
                "tempo": 120.0
            },
            {
                "start_time": 11.375,
                "end_time": 11.575,
                "pitch": 43,
                "velocity": 101,
                "duration": 0.2,
                "tempo": 120.0
            },
            {
                "start_time": 11.575,
                "end_time": 11.775,
                "pitch": 43,
                "velocity": 101,
                "duration": 0.2,
                "tempo": 120.0
            },
            {
                "start_time": 11.775,
                "end_time": 12.1772727,
                "pitch": 43,
                "velocity": 101,
                "duration": 0.4022727,
                "tempo": 120.0
            },
            {
                "start_time": 9.5818182,
                "end_time": 12.3772727,
                "pitch": 46,
                "velocity": 101,
                "duration": 2.7954545,
                "tempo": 120.0
            },
            {
                "start_time": 12.1772727,
                "end_time": 12.3772727,
                "pitch": 46,
                "velocity": 101,
                "duration": 0.2,
                "tempo": 120.0
            },
            {
                "start_time": 12.3772727,
                "end_time": 12.5795455,
                "pitch": 46,
                "velocity": 101,
                "duration": 0.2022727,
                "tempo": 120.0
            },
            {
                "start_time": 12.5795455,
                "end_time": 12.7795455,
                "pitch": 46,
                "velocity": 101,
                "duration": 0.2,
                "tempo": 120.0
            },
            {
                "start_time": 12.7795455,
                "end_time": 12.9795455,
                "pitch": 46,
                "velocity": 101,
                "duration": 0.2,
                "tempo": 120.0
            },
            {
                "start_time": 3.2045455,
                "end_time": 13.1772727,
                "pitch": 48,
                "velocity": 101,
                "duration": 9.9727273,
                "tempo": 120.0
            },
            {
                "start_time": 12.9795455,
                "end_time": 13.1772727,
                "pitch": 48,
                "velocity": 101,
                "duration": 0.1977273,
                "tempo": 120.0
            },
            {
                "start_time": 13.1772727,
                "end_time": 13.3795455,
                "pitch": 48,
                "velocity": 101,
                "duration": 0.2022727,
                "tempo": 120.0
            },
            {
                "start_time": 13.3795455,
                "end_time": 13.775,
                "pitch": 48,
                "velocity": 101,
                "duration": 0.3954545,
                "tempo": 120.0
            },
            {
                "start_time": 13.775,
                "end_time": 13.9704545,
                "pitch": 48,
                "velocity": 101,
                "duration": 0.1954545,
                "tempo": 120.0
            },
            {
                "start_time": 13.9704545,
                "end_time": 14.1704545,
                "pitch": 48,
                "velocity": 101,
                "duration": 0.2,
                "tempo": 120.0
            },
            {
                "start_time": 14.1704545,
                "end_time": 14.3727273,
                "pitch": 48,
                "velocity": 101,
                "duration": 0.2022727,
                "tempo": 120.0
            },
            {
                "start_time": 14.3727273,
                "end_time": 14.5704545,
                "pitch": 48,
                "velocity": 101,
                "duration": 0.1977273,
                "tempo": 120.0
            },
            {
                "start_time": 14.5704545,
                "end_time": 14.7704545,
                "pitch": 48,
                "velocity": 101,
                "duration": 0.2,
                "tempo": 120.0
            },
            {
                "start_time": 14.7704545,
                "end_time": 14.9704545,
                "pitch": 48,
                "velocity": 101,
                "duration": 0.2,
                "tempo": 120.0
            },
            {
                "start_time": 14.9704545,
                "end_time": 15.3727273,
                "pitch": 48,
                "velocity": 101,
                "duration": 0.4022727,
                "tempo": 120.0
            },
            {
                "start_time": 15.3727273,
                "end_time": 15.5727273,
                "pitch": 48,
                "velocity": 101,
                "duration": 0.2,
                "tempo": 120.0
            },
            {
                "start_time": 15.5727273,
                "end_time": 15.7727273,
                "pitch": 48,
                "velocity": 101,
                "duration": 0.2,
                "tempo": 120.0
            },
            {
                "start_time": 15.7727273,
                "end_time": 15.975,
                "pitch": 48,
                "velocity": 101,
                "duration": 0.2022727,
                "tempo": 120.0
            },
            {
                "start_time": 6.3909091,
                "end_time": 16.175,
                "pitch": 44,
                "velocity": 101,
                "duration": 9.7840909,
                "tempo": 120.0
            },
            {
                "start_time": 15.975,
                "end_time": 16.175,
                "pitch": 44,
                "velocity": 101,
                "duration": 0.2,
                "tempo": 120.0
            },
            {
                "start_time": 16.175,
                "end_time": 16.375,
                "pitch": 44,
                "velocity": 101,
                "duration": 0.2,
                "tempo": 120.0
            },
            {
                "start_time": 16.375,
                "end_time": 16.5772727,
                "pitch": 44,
                "velocity": 101,
                "duration": 0.2022727,
                "tempo": 120.0
            },
            {
                "start_time": 16.5772727,
                "end_time": 16.9727273,
                "pitch": 44,
                "velocity": 101,
                "duration": 0.3954545,
                "tempo": 120.0
            },
            {
                "start_time": 16.9727273,
                "end_time": 17.1681818,
                "pitch": 44,
                "velocity": 101,
                "duration": 0.1954545,
                "tempo": 120.0
            },
            {
                "start_time": 17.1681818,
                "end_time": 17.3681818,
                "pitch": 44,
                "velocity": 101,
                "duration": 0.2,
                "tempo": 120.0
            },
            {
                "start_time": 17.3681818,
                "end_time": 17.5659091,
                "pitch": 44,
                "velocity": 101,
                "duration": 0.1977273,
                "tempo": 120.0
            },
            {
                "start_time": 17.5659091,
                "end_time": 17.7659091,
                "pitch": 44,
                "velocity": 101,
                "duration": 0.2,
                "tempo": 120.0
            },
            {
                "start_time": 17.7659091,
                "end_time": 17.9659091,
                "pitch": 44,
                "velocity": 101,
                "duration": 0.2,
                "tempo": 120.0
            },
            {
                "start_time": 17.9659091,
                "end_time": 18.1659091,
                "pitch": 44,
                "velocity": 101,
                "duration": 0.2,
                "tempo": 120.0
            },
            {
                "start_time": 18.1659091,
                "end_time": 18.5659091,
                "pitch": 44,
                "velocity": 101,
                "duration": 0.4,
                "tempo": 120.0
            },
            {
                "start_time": 18.5659091,
                "end_time": 18.7659091,
                "pitch": 44,
                "velocity": 101,
                "duration": 0.2,
                "tempo": 120.0
            },
            {
                "start_time": 18.7659091,
                "end_time": 18.9659091,
                "pitch": 44,
                "velocity": 101,
                "duration": 0.2,
                "tempo": 120.0
            },
            {
                "start_time": 18.9659091,
                "end_time": 19.1659091,
                "pitch": 44,
                "velocity": 101,
                "duration": 0.2,
                "tempo": 120.0
            },
            {
                "start_time": 19.1659091,
                "end_time": 19.3659091,
                "pitch": 44,
                "velocity": 101,
                "duration": 0.2,
                "tempo": 120.0
            },
            {
                "start_time": 19.3659091,
                "end_time": 19.5659091,
                "pitch": 43,
                "velocity": 101,
                "duration": 0.2,
                "tempo": 120.0
            },
            {
                "start_time": 19.5659091,
                "end_time": 19.7613636,
                "pitch": 43,
                "velocity": 101,
                "duration": 0.1954545,
                "tempo": 120.0
            },
            {
                "start_time": 19.7613636,
                "end_time": 20.1545455,
                "pitch": 43,
                "velocity": 101,
                "duration": 0.3931818,
                "tempo": 120.0
            },
            {
                "start_time": 20.1545455,
                "end_time": 20.3545455,
                "pitch": 43,
                "velocity": 101,
                "duration": 0.2,
                "tempo": 120.0
            },
            {
                "start_time": 20.3545455,
                "end_time": 20.5545455,
                "pitch": 43,
                "velocity": 101,
                "duration": 0.2,
                "tempo": 120.0
            },
            {
                "start_time": 20.5545455,
                "end_time": 20.7568182,
                "pitch": 43,
                "velocity": 101,
                "duration": 0.2022727,
                "tempo": 120.0
            },
            {
                "start_time": 20.7568182,
                "end_time": 20.9545455,
                "pitch": 43,
                "velocity": 101,
                "duration": 0.1977273,
                "tempo": 120.0
            },
            {
                "start_time": 20.9545455,
                "end_time": 21.1545455,
                "pitch": 43,
                "velocity": 101,
                "duration": 0.2,
                "tempo": 120.0
            },
            {
                "start_time": 21.1545455,
                "end_time": 21.3545455,
                "pitch": 43,
                "velocity": 101,
                "duration": 0.2,
                "tempo": 120.0
            },
            {
                "start_time": 21.3545455,
                "end_time": 21.7545455,
                "pitch": 43,
                "velocity": 101,
                "duration": 0.4,
                "tempo": 120.0
            },
            {
                "start_time": 21.7545455,
                "end_time": 21.9545455,
                "pitch": 43,
                "velocity": 101,
                "duration": 0.2,
                "tempo": 120.0
            },
            {
                "start_time": 21.9545455,
                "end_time": 22.1545455,
                "pitch": 43,
                "velocity": 101,
                "duration": 0.2,
                "tempo": 120.0
            },
            {
                "start_time": 22.1545455,
                "end_time": 22.3545455,
                "pitch": 43,
                "velocity": 101,
                "duration": 0.2,
                "tempo": 120.0
            },
            {
                "start_time": 22.3545455,
                "end_time": 22.5545455,
                "pitch": 48,
                "velocity": 101,
                "duration": 0.2,
                "tempo": 120.0
            },
            {
                "start_time": 22.5545455,
                "end_time": 22.7545455,
                "pitch": 48,
                "velocity": 101,
                "duration": 0.2,
                "tempo": 120.0
            },
            {
                "start_time": 22.7545455,
                "end_time": 22.95,
                "pitch": 48,
                "velocity": 101,
                "duration": 0.1954545,
                "tempo": 120.0
            },
            {
                "start_time": 22.95,
                "end_time": 23.35,
                "pitch": 48,
                "velocity": 101,
                "duration": 0.4,
                "tempo": 120.0
            },
            {
                "start_time": 23.35,
                "end_time": 23.5545455,
                "pitch": 48,
                "velocity": 101,
                "duration": 0.2045455,
                "tempo": 120.0
            },
            {
                "start_time": 23.5545455,
                "end_time": 23.75,
                "pitch": 48,
                "velocity": 101,
                "duration": 0.1954545,
                "tempo": 120.0
            },
            {
                "start_time": 23.75,
                "end_time": 23.9454545,
                "pitch": 48,
                "velocity": 101,
                "duration": 0.1954545,
                "tempo": 120.0
            },
            {
                "start_time": 23.9454545,
                "end_time": 24.1454545,
                "pitch": 48,
                "velocity": 101,
                "duration": 0.2,
                "tempo": 120.0
            },
            {
                "start_time": 24.1454545,
                "end_time": 24.3477273,
                "pitch": 48,
                "velocity": 101,
                "duration": 0.2022727,
                "tempo": 120.0
            },
            {
                "start_time": 24.3477273,
                "end_time": 24.5454545,
                "pitch": 48,
                "velocity": 101,
                "duration": 0.1977273,
                "tempo": 120.0
            },
            {
                "start_time": 24.5454545,
                "end_time": 24.7454545,
                "pitch": 48,
                "velocity": 101,
                "duration": 0.2,
                "tempo": 120.0
            },
            {
                "start_time": 24.7454545,
                "end_time": 24.9454545,
                "pitch": 48,
                "velocity": 101,
                "duration": 0.2,
                "tempo": 120.0
            },
            {
                "start_time": 24.9454545,
                "end_time": 25.1431818,
                "pitch": 48,
                "velocity": 101,
                "duration": 0.1977273,
                "tempo": 120.0
            },
            {
                "start_time": 25.1431818,
                "end_time": 25.3454545,
                "pitch": 48,
                "velocity": 101,
                "duration": 0.2022727,
                "tempo": 120.0
            },
            {
                "start_time": 25.3454545,
                "end_time": 25.5454545,
                "pitch": 48,
                "velocity": 101,
                "duration": 0.2,
                "tempo": 120.0
            },
            {
                "start_time": 25.5454545,
                "end_time": 25.7454545,
                "pitch": 44,
                "velocity": 64,
                "duration": 0.2,
                "tempo": 120.0
            },
            {
                "start_time": 25.7454545,
                "end_time": 25.9454545,
                "pitch": 44,
                "velocity": 64,
                "duration": 0.2,
                "tempo": 120.0
            },
            {
                "start_time": 25.9454545,
                "end_time": 26.1386364,
                "pitch": 44,
                "velocity": 64,
                "duration": 0.1931818,
                "tempo": 120.0
            },
            {
                "start_time": 26.1386364,
                "end_time": 26.5340909,
                "pitch": 44,
                "velocity": 64,
                "duration": 0.3954545,
                "tempo": 120.0
            },
            {
                "start_time": 26.5340909,
                "end_time": 26.7340909,
                "pitch": 44,
                "velocity": 64,
                "duration": 0.2,
                "tempo": 120.0
            },
            {
                "start_time": 26.7340909,
                "end_time": 26.9340909,
                "pitch": 44,
                "velocity": 64,
                "duration": 0.2,
                "tempo": 120.0
            },
            {
                "start_time": 26.9340909,
                "end_time": 27.1363636,
                "pitch": 44,
                "velocity": 64,
                "duration": 0.2022727,
                "tempo": 120.0
            },
            {
                "start_time": 27.1363636,
                "end_time": 27.3340909,
                "pitch": 46,
                "velocity": 64,
                "duration": 0.1977273,
                "tempo": 120.0
            },
            {
                "start_time": 27.3340909,
                "end_time": 27.5340909,
                "pitch": 46,
                "velocity": 64,
                "duration": 0.2,
                "tempo": 120.0
            },
            {
                "start_time": 27.5340909,
                "end_time": 27.7340909,
                "pitch": 46,
                "velocity": 64,
                "duration": 0.2,
                "tempo": 120.0
            },
            {
                "start_time": 27.7340909,
                "end_time": 28.1340909,
                "pitch": 46,
                "velocity": 64,
                "duration": 0.4,
                "tempo": 120.0
            },
            {
                "start_time": 28.1340909,
                "end_time": 28.3340909,
                "pitch": 46,
                "velocity": 64,
                "duration": 0.2,
                "tempo": 120.0
            },
            {
                "start_time": 28.3340909,
                "end_time": 28.5295455,
                "pitch": 46,
                "velocity": 64,
                "duration": 0.1954545,
                "tempo": 120.0
            },
            {
                "start_time": 28.5295455,
                "end_time": 28.725,
                "pitch": 46,
                "velocity": 64,
                "duration": 0.1954545,
                "tempo": 120.0
            },
            {
                "start_time": 22.3545455,
                "end_time": 28.9295455,
                "pitch": 43,
                "velocity": 101,
                "duration": 6.575,
                "tempo": 120.0
            },
            {
                "start_time": 28.725,
                "end_time": 28.9295455,
                "pitch": 43,
                "velocity": 64,
                "duration": 0.2045455,
                "tempo": 120.0
            },
            {
                "start_time": 28.9295455,
                "end_time": 29.1340909,
                "pitch": 43,
                "velocity": 64,
                "duration": 0.2045455,
                "tempo": 120.0
            },
            {
                "start_time": 29.1340909,
                "end_time": 29.3295455,
                "pitch": 43,
                "velocity": 64,
                "duration": 0.1954545,
                "tempo": 120.0
            },
            {
                "start_time": 29.3295455,
                "end_time": 29.725,
                "pitch": 43,
                "velocity": 64,
                "duration": 0.3954545,
                "tempo": 120.0
            },
            {
                "start_time": 29.725,
                "end_time": 29.9227273,
                "pitch": 43,
                "velocity": 64,
                "duration": 0.1977273,
                "tempo": 120.0
            },
            {
                "start_time": 29.9227273,
                "end_time": 30.125,
                "pitch": 43,
                "velocity": 64,
                "duration": 0.2022727,
                "tempo": 120.0
            },
            {
                "start_time": 30.125,
                "end_time": 30.325,
                "pitch": 43,
                "velocity": 64,
                "duration": 0.2,
                "tempo": 120.0
            },
            {
                "start_time": 25.5454545,
                "end_time": 30.5295455,
                "pitch": 48,
                "velocity": 64,
                "duration": 4.9840909,
                "tempo": 120.0
            },
            {
                "start_time": 30.325,
                "end_time": 30.5295455,
                "pitch": 48,
                "velocity": 64,
                "duration": 0.2045455,
                "tempo": 120.0
            },
            {
                "start_time": 30.5295455,
                "end_time": 30.7340909,
                "pitch": 48,
                "velocity": 64,
                "duration": 0.2045455,
                "tempo": 120.0
            },
            {
                "start_time": 30.7340909,
                "end_time": 30.9295455,
                "pitch": 48,
                "velocity": 64,
                "duration": 0.1954545,
                "tempo": 120.0
            },
            {
                "start_time": 30.9295455,
                "end_time": 31.325,
                "pitch": 48,
                "velocity": 64,
                "duration": 0.3954545,
                "tempo": 120.0
            },
            {
                "start_time": 31.325,
                "end_time": 31.5272727,
                "pitch": 48,
                "velocity": 64,
                "duration": 0.2022727,
                "tempo": 120.0
            },
            {
                "start_time": 31.5272727,
                "end_time": 31.7227273,
                "pitch": 48,
                "velocity": 64,
                "duration": 0.1954545,
                "tempo": 120.0
            },
            {
                "start_time": 31.7227273,
                "end_time": 31.9181818,
                "pitch": 48,
                "velocity": 64,
                "duration": 0.1954545,
                "tempo": 120.0
            },
            {
                "start_time": 27.1363636,
                "end_time": 32.1204545,
                "pitch": 44,
                "velocity": 64,
                "duration": 4.9840909,
                "tempo": 120.0
            },
            {
                "start_time": 31.9181818,
                "end_time": 32.1204545,
                "pitch": 44,
                "velocity": 64,
                "duration": 0.2022727,
                "tempo": 120.0
            },
            {
                "start_time": 32.1204545,
                "end_time": 32.3272727,
                "pitch": 44,
                "velocity": 64,
                "duration": 0.2068182,
                "tempo": 120.0
            },
            {
                "start_time": 32.3272727,
                "end_time": 32.5227273,
                "pitch": 44,
                "velocity": 64,
                "duration": 0.1954545,
                "tempo": 120.0
            },
            {
                "start_time": 32.5227273,
                "end_time": 32.9159091,
                "pitch": 44,
                "velocity": 64,
                "duration": 0.3931818,
                "tempo": 120.0
            },
            {
                "start_time": 32.9159091,
                "end_time": 33.1159091,
                "pitch": 44,
                "velocity": 64,
                "duration": 0.2,
                "tempo": 120.0
            },
            {
                "start_time": 33.1159091,
                "end_time": 33.3159091,
                "pitch": 44,
                "velocity": 64,
                "duration": 0.2,
                "tempo": 120.0
            },
            {
                "start_time": 33.3159091,
                "end_time": 33.5136364,
                "pitch": 44,
                "velocity": 64,
                "duration": 0.1977273,
                "tempo": 120.0
            },
            {
                "start_time": 28.725,
                "end_time": 33.7136364,
                "pitch": 46,
                "velocity": 64,
                "duration": 4.9886364,
                "tempo": 120.0
            },
            {
                "start_time": 33.5136364,
                "end_time": 33.7136364,
                "pitch": 46,
                "velocity": 64,
                "duration": 0.2,
                "tempo": 120.0
            },
            {
                "start_time": 33.7136364,
                "end_time": 33.9136364,
                "pitch": 46,
                "velocity": 64,
                "duration": 0.2,
                "tempo": 120.0
            },
            {
                "start_time": 33.9136364,
                "end_time": 34.1113636,
                "pitch": 46,
                "velocity": 64,
                "duration": 0.1977273,
                "tempo": 120.0
            },
            {
                "start_time": 34.1113636,
                "end_time": 34.5113636,
                "pitch": 46,
                "velocity": 64,
                "duration": 0.4,
                "tempo": 120.0
            },
            {
                "start_time": 34.5113636,
                "end_time": 34.7136364,
                "pitch": 46,
                "velocity": 64,
                "duration": 0.2022727,
                "tempo": 120.0
            },
            {
                "start_time": 34.7136364,
                "end_time": 34.9090909,
                "pitch": 46,
                "velocity": 64,
                "duration": 0.1954545,
                "tempo": 120.0
            },
            {
                "start_time": 34.9090909,
                "end_time": 35.1045455,
                "pitch": 46,
                "velocity": 64,
                "duration": 0.1954545,
                "tempo": 120.0
            },
            {
                "start_time": 30.325,
                "end_time": 35.3090909,
                "pitch": 43,
                "velocity": 64,
                "duration": 4.9840909,
                "tempo": 120.0
            },
            {
                "start_time": 35.1045455,
                "end_time": 35.3090909,
                "pitch": 43,
                "velocity": 101,
                "duration": 0.2045455,
                "tempo": 120.0
            },
            {
                "start_time": 35.3090909,
                "end_time": 35.5136364,
                "pitch": 43,
                "velocity": 101,
                "duration": 0.2045455,
                "tempo": 120.0
            },
            {
                "start_time": 35.5136364,
                "end_time": 35.7090909,
                "pitch": 43,
                "velocity": 101,
                "duration": 0.1954545,
                "tempo": 120.0
            },
            {
                "start_time": 35.7090909,
                "end_time": 36.1022727,
                "pitch": 43,
                "velocity": 101,
                "duration": 0.3931818,
                "tempo": 120.0
            },
            {
                "start_time": 36.1022727,
                "end_time": 36.3022727,
                "pitch": 43,
                "velocity": 101,
                "duration": 0.2,
                "tempo": 120.0
            },
            {
                "start_time": 36.3022727,
                "end_time": 36.5022727,
                "pitch": 43,
                "velocity": 101,
                "duration": 0.2,
                "tempo": 120.0
            },
            {
                "start_time": 36.5022727,
                "end_time": 36.7022727,
                "pitch": 43,
                "velocity": 101,
                "duration": 0.2,
                "tempo": 120.0
            },
            {
                "start_time": 36.7022727,
                "end_time": 36.9022727,
                "pitch": 43,
                "velocity": 101,
                "duration": 0.2,
                "tempo": 120.0
            },
            {
                "start_time": 36.9022727,
                "end_time": 37.1022727,
                "pitch": 43,
                "velocity": 101,
                "duration": 0.2,
                "tempo": 120.0
            },
            {
                "start_time": 37.1022727,
                "end_time": 37.3022727,
                "pitch": 43,
                "velocity": 101,
                "duration": 0.2,
                "tempo": 120.0
            },
            {
                "start_time": 37.3022727,
                "end_time": 37.6954545,
                "pitch": 43,
                "velocity": 101,
                "duration": 0.3931818,
                "tempo": 120.0
            },
            {
                "start_time": 37.6954545,
                "end_time": 37.8931818,
                "pitch": 43,
                "velocity": 101,
                "duration": 0.1977273,
                "tempo": 120.0
            },
            {
                "start_time": 37.8931818,
                "end_time": 38.0909091,
                "pitch": 43,
                "velocity": 101,
                "duration": 0.1977273,
                "tempo": 120.0
            },
            {
                "start_time": 38.0909091,
                "end_time": 38.2909091,
                "pitch": 43,
                "velocity": 101,
                "duration": 0.2,
                "tempo": 120.0
            },
            {
                "start_time": 38.2909091,
                "end_time": 38.4954545,
                "pitch": 43,
                "velocity": 101,
                "duration": 0.2045455,
                "tempo": 120.0
            },
            {
                "start_time": 33.5136364,
                "end_time": 38.7,
                "pitch": 44,
                "velocity": 64,
                "duration": 5.1863636,
                "tempo": 120.0
            },
            {
                "start_time": 38.4954545,
                "end_time": 38.7,
                "pitch": 44,
                "velocity": 101,
                "duration": 0.2045455,
                "tempo": 120.0
            },
            {
                "start_time": 38.7,
                "end_time": 38.8954545,
                "pitch": 44,
                "velocity": 101,
                "duration": 0.1954545,
                "tempo": 120.0
            },
            {
                "start_time": 38.8954545,
                "end_time": 39.2909091,
                "pitch": 44,
                "velocity": 101,
                "duration": 0.3954545,
                "tempo": 120.0
            },
            {
                "start_time": 39.2909091,
                "end_time": 39.4931818,
                "pitch": 44,
                "velocity": 101,
                "duration": 0.2022727,
                "tempo": 120.0
            },
            {
                "start_time": 39.4931818,
                "end_time": 39.6909091,
                "pitch": 44,
                "velocity": 101,
                "duration": 0.1977273,
                "tempo": 120.0
            },
            {
                "start_time": 39.6909091,
                "end_time": 39.8909091,
                "pitch": 44,
                "velocity": 101,
                "duration": 0.2,
                "tempo": 120.0
            },
            {
                "start_time": 35.1045455,
                "end_time": 40.0909091,
                "pitch": 46,
                "velocity": 101,
                "duration": 4.9863636,
                "tempo": 120.0
            },
            {
                "start_time": 39.8909091,
                "end_time": 40.0909091,
                "pitch": 46,
                "velocity": 101,
                "duration": 0.2,
                "tempo": 120.0
            },
            {
                "start_time": 40.0909091,
                "end_time": 40.2886364,
                "pitch": 46,
                "velocity": 101,
                "duration": 0.1977273,
                "tempo": 120.0
            },
            {
                "start_time": 40.2886364,
                "end_time": 40.4886364,
                "pitch": 46,
                "velocity": 101,
                "duration": 0.2,
                "tempo": 120.0
            },
            {
                "start_time": 40.4886364,
                "end_time": 40.8840909,
                "pitch": 46,
                "velocity": 101,
                "duration": 0.3954545,
                "tempo": 120.0
            },
            {
                "start_time": 40.8840909,
                "end_time": 41.0795455,
                "pitch": 46,
                "velocity": 101,
                "duration": 0.1954545,
                "tempo": 120.0
            },
            {
                "start_time": 41.0795455,
                "end_time": 41.2772727,
                "pitch": 46,
                "velocity": 101,
                "duration": 0.1977273,
                "tempo": 120.0
            },
            {
                "start_time": 41.2795455,
                "end_time": 41.4772727,
                "pitch": 46,
                "velocity": 101,
                "duration": 0.1977273,
                "tempo": 120.0
            },
            {
                "start_time": 41.4772727,
                "end_time": 41.6772727,
                "pitch": 43,
                "velocity": 101,
                "duration": 0.2,
                "tempo": 120.0
            },
            {
                "start_time": 41.6772727,
                "end_time": 41.8772727,
                "pitch": 43,
                "velocity": 101,
                "duration": 0.2,
                "tempo": 120.0
            },
            {
                "start_time": 41.8772727,
                "end_time": 42.0772727,
                "pitch": 43,
                "velocity": 101,
                "duration": 0.2,
                "tempo": 120.0
            },
            {
                "start_time": 42.0772727,
                "end_time": 42.4772727,
                "pitch": 43,
                "velocity": 101,
                "duration": 0.4,
                "tempo": 120.0
            },
            {
                "start_time": 42.4772727,
                "end_time": 42.6772727,
                "pitch": 43,
                "velocity": 101,
                "duration": 0.2,
                "tempo": 120.0
            },
            {
                "start_time": 42.6772727,
                "end_time": 42.875,
                "pitch": 43,
                "velocity": 101,
                "duration": 0.1977273,
                "tempo": 120.0
            },
            {
                "start_time": 42.875,
                "end_time": 43.075,
                "pitch": 43,
                "velocity": 101,
                "duration": 0.2,
                "tempo": 120.0
            },
            {
                "start_time": 31.9181818,
                "end_time": 43.275,
                "pitch": 48,
                "velocity": 64,
                "duration": 11.3568182,
                "tempo": 120.0
            },
            {
                "start_time": 43.075,
                "end_time": 43.275,
                "pitch": 48,
                "velocity": 101,
                "duration": 0.2,
                "tempo": 120.0
            },
            {
                "start_time": 43.275,
                "end_time": 43.475,
                "pitch": 48,
                "velocity": 101,
                "duration": 0.2,
                "tempo": 120.0
            },
            {
                "start_time": 43.475,
                "end_time": 43.6727273,
                "pitch": 48,
                "velocity": 101,
                "duration": 0.1977273,
                "tempo": 120.0
            },
            {
                "start_time": 43.6727273,
                "end_time": 44.0681818,
                "pitch": 48,
                "velocity": 101,
                "duration": 0.3954545,
                "tempo": 120.0
            },
            {
                "start_time": 44.0681818,
                "end_time": 44.2636364,
                "pitch": 48,
                "velocity": 101,
                "duration": 0.1954545,
                "tempo": 120.0
            },
            {
                "start_time": 44.2636364,
                "end_time": 44.4636364,
                "pitch": 48,
                "velocity": 101,
                "duration": 0.2,
                "tempo": 120.0
            },
            {
                "start_time": 44.4636364,
                "end_time": 44.6659091,
                "pitch": 48,
                "velocity": 101,
                "duration": 0.2022727,
                "tempo": 120.0
            },
            {
                "start_time": 39.8909091,
                "end_time": 44.8636364,
                "pitch": 44,
                "velocity": 101,
                "duration": 4.9727273,
                "tempo": 120.0
            },
            {
                "start_time": 44.6659091,
                "end_time": 44.8636364,
                "pitch": 44,
                "velocity": 101,
                "duration": 0.1977273,
                "tempo": 120.0
            },
            {
                "start_time": 44.8636364,
                "end_time": 45.0636364,
                "pitch": 44,
                "velocity": 101,
                "duration": 0.2,
                "tempo": 120.0
            },
            {
                "start_time": 45.0636364,
                "end_time": 45.2636364,
                "pitch": 44,
                "velocity": 101,
                "duration": 0.2,
                "tempo": 120.0
            },
            {
                "start_time": 45.2636364,
                "end_time": 45.6613636,
                "pitch": 44,
                "velocity": 101,
                "duration": 0.3977273,
                "tempo": 120.0
            },
            {
                "start_time": 45.6613636,
                "end_time": 45.8613636,
                "pitch": 44,
                "velocity": 101,
                "duration": 0.2,
                "tempo": 120.0
            },
            {
                "start_time": 45.8613636,
                "end_time": 46.0590909,
                "pitch": 44,
                "velocity": 101,
                "duration": 0.1977273,
                "tempo": 120.0
            },
            {
                "start_time": 46.0590909,
                "end_time": 46.2590909,
                "pitch": 44,
                "velocity": 101,
                "duration": 0.2,
                "tempo": 120.0
            },
            {
                "start_time": 41.4772727,
                "end_time": 46.4590909,
                "pitch": 46,
                "velocity": 101,
                "duration": 4.9818182,
                "tempo": 120.0
            },
            {
                "start_time": 46.2590909,
                "end_time": 46.4590909,
                "pitch": 46,
                "velocity": 101,
                "duration": 0.2,
                "tempo": 120.0
            },
            {
                "start_time": 46.4590909,
                "end_time": 46.6613636,
                "pitch": 46,
                "velocity": 101,
                "duration": 0.2022727,
                "tempo": 120.0
            },
            {
                "start_time": 46.6613636,
                "end_time": 46.8568182,
                "pitch": 46,
                "velocity": 101,
                "duration": 0.1954545,
                "tempo": 120.0
            },
            {
                "start_time": 46.8568182,
                "end_time": 47.2522727,
                "pitch": 46,
                "velocity": 101,
                "duration": 0.3954545,
                "tempo": 120.0
            },
            {
                "start_time": 47.2522727,
                "end_time": 47.4522727,
                "pitch": 46,
                "velocity": 101,
                "duration": 0.2,
                "tempo": 120.0
            },
            {
                "start_time": 47.4522727,
                "end_time": 47.6522727,
                "pitch": 46,
                "velocity": 101,
                "duration": 0.2,
                "tempo": 120.0
            },
            {
                "start_time": 47.6522727,
                "end_time": 47.8522727,
                "pitch": 46,
                "velocity": 101,
                "duration": 0.2,
                "tempo": 120.0
            },
            {
                "start_time": 47.8522727,
                "end_time": 48.05,
                "pitch": 50,
                "velocity": 101,
                "duration": 0.1977273,
                "tempo": 120.0
            },
            {
                "start_time": 48.05,
                "end_time": 48.25,
                "pitch": 50,
                "velocity": 101,
                "duration": 0.2,
                "tempo": 120.0
            },
            {
                "start_time": 48.25,
                "end_time": 48.45,
                "pitch": 50,
                "velocity": 101,
                "duration": 0.2,
                "tempo": 120.0
            },
            {
                "start_time": 48.45,
                "end_time": 48.6477273,
                "pitch": 50,
                "velocity": 101,
                "duration": 0.1977273,
                "tempo": 120.0
            },
            {
                "start_time": 48.6477273,
                "end_time": 48.8477273,
                "pitch": 50,
                "velocity": 101,
                "duration": 0.2,
                "tempo": 120.0
            },
            {
                "start_time": 48.8477273,
                "end_time": 49.0477273,
                "pitch": 50,
                "velocity": 101,
                "duration": 0.2,
                "tempo": 120.0
            },
            {
                "start_time": 49.0477273,
                "end_time": 49.2477273,
                "pitch": 50,
                "velocity": 101,
                "duration": 0.2,
                "tempo": 120.0
            },
            {
                "start_time": 49.2477273,
                "end_time": 49.4477273,
                "pitch": 50,
                "velocity": 101,
                "duration": 0.2,
                "tempo": 120.0
            },
            {
                "start_time": 49.4477273,
                "end_time": 49.6477273,
                "pitch": 50,
                "velocity": 101,
                "duration": 0.2,
                "tempo": 120.0
            },
            {
                "start_time": 49.6477273,
                "end_time": 49.8477273,
                "pitch": 50,
                "velocity": 101,
                "duration": 0.2,
                "tempo": 120.0
            },
            {
                "start_time": 49.8477273,
                "end_time": 50.0431818,
                "pitch": 50,
                "velocity": 101,
                "duration": 0.1954545,
                "tempo": 120.0
            },
            {
                "start_time": 50.0431818,
                "end_time": 50.4386364,
                "pitch": 50,
                "velocity": 101,
                "duration": 0.3954545,
                "tempo": 120.0
            },
            {
                "start_time": 50.4386364,
                "end_time": 50.6363636,
                "pitch": 50,
                "velocity": 101,
                "duration": 0.1977273,
                "tempo": 120.0
            },
            {
                "start_time": 50.6363636,
                "end_time": 50.8363636,
                "pitch": 50,
                "velocity": 101,
                "duration": 0.2,
                "tempo": 120.0
            },
            {
                "start_time": 50.8363636,
                "end_time": 51.0363636,
                "pitch": 50,
                "velocity": 101,
                "duration": 0.2,
                "tempo": 120.0
            },
            {
                "start_time": 44.6659091,
                "end_time": 51.2409091,
                "pitch": 48,
                "velocity": 101,
                "duration": 6.575,
                "tempo": 120.0
            },
            {
                "start_time": 51.0363636,
                "end_time": 51.2409091,
                "pitch": 48,
                "velocity": 101,
                "duration": 0.2045455,
                "tempo": 120.0
            },
            {
                "start_time": 51.2409091,
                "end_time": 51.325,
                "pitch": 48,
                "velocity": 101,
                "duration": 0.0840909,
                "tempo": 120.0
            }
        ]
    }
}