{
    "mood": "happy",
    "instruments": {
        "Acoustic Grand Piano": [
            {
                "start_time": 33.7090909,
                "end_time": 33.8204545,
                "pitch": 74,
                "velocity": 64,
                "duration": 0.1113636,
                "tempo": 120.0
            },
            {
                "start_time": 33.8204545,
                "end_time": 33.9159091,
                "pitch": 70,
                "velocity": 64,
                "duration": 0.0954545,
                "tempo": 120.0
            },
            {
                "start_time": 33.9181818,
                "end_time": 34.0318182,
                "pitch": 70,
                "velocity": 64,
                "duration": 0.1136364,
                "tempo": 120.0
            },
            {
                "start_time": 34.0318182,
                "end_time": 34.1454545,
                "pitch": 74,
                "velocity": 64,
                "duration": 0.1136364,
                "tempo": 120.0
            },
            {
                "start_time": 34.1454545,
                "end_time": 34.2590909,
                "pitch": 70,
                "velocity": 64,
                "duration": 0.1136364,
                "tempo": 120.0
            },
            {
                "start_time": 34.2590909,
                "end_time": 34.3727273,
                "pitch": 70,
                "velocity": 64,
                "duration": 0.1136364,
                "tempo": 120.0
            },
            {
                "start_time": 34.3727273,
                "end_time": 34.4886364,
                "pitch": 74,
                "velocity": 64,
                "duration": 0.1159091,
                "tempo": 120.0
            },
            {
                "start_time": 34.4886364,
                "end_time": 34.6068182,
                "pitch": 70,
                "velocity": 64,
                "duration": 0.1181818,
                "tempo": 120.0
            },
            {
                "start_time": 34.6068182,
                "end_time": 34.7227273,
                "pitch": 70,
                "velocity": 64,
                "duration": 0.1159091,
                "tempo": 120.0
            },
            {
                "start_time": 34.725,
                "end_time": 34.8363636,
                "pitch": 74,
                "velocity": 64,
                "duration": 0.1113636,
                "tempo": 120.0
            },
            {
                "start_time": 34.8363636,
                "end_time": 34.9340909,
                "pitch": 70,
                "velocity": 64,
                "duration": 0.0977273,
                "tempo": 120.0
            },
            {
                "start_time": 34.9340909,
                "end_time": 35.05,
                "pitch": 70,
                "velocity": 64,
                "duration": 0.1159091,
                "tempo": 120.0
            },
            {
                "start_time": 35.05,
                "end_time": 35.1613636,
                "pitch": 74,
                "velocity": 64,
                "duration": 0.1113636,
                "tempo": 120.0
            },
            {
                "start_time": 35.1613636,
                "end_time": 35.275,
                "pitch": 70,
                "velocity": 64,
                "duration": 0.1136364,
                "tempo": 120.0
            },
            {
                "start_time": 35.275,
                "end_time": 35.3909091,
                "pitch": 70,
                "velocity": 64,
                "duration": 0.1159091,
                "tempo": 120.0
            },
            {
                "start_time": 35.3909091,
                "end_time": 35.5068182,
                "pitch": 74,
                "velocity": 64,
                "duration": 0.1159091,
                "tempo": 120.0
            },
            {
                "start_time": 35.5068182,
                "end_time": 35.6227273,
                "pitch": 70,
                "velocity": 64,
                "duration": 0.1159091,
                "tempo": 120.0
            },
            {
                "start_time": 35.6227273,
                "end_time": 35.7409091,
                "pitch": 70,
                "velocity": 64,
                "duration": 0.1181818,
                "tempo": 120.0
            },
            {
                "start_time": 35.7409091,
                "end_time": 35.8568182,
                "pitch": 74,
                "velocity": 64,
                "duration": 0.1159091,
                "tempo": 120.0
            },
            {
                "start_time": 35.8568182,
                "end_time": 35.975,
                "pitch": 70,
                "velocity": 64,
                "duration": 0.1181818,
                "tempo": 120.0
            },
            {
                "start_time": 35.975,
                "end_time": 36.075,
                "pitch": 70,
                "velocity": 64,
                "duration": 0.1,
                "tempo": 120.0
            },
            {
                "start_time": 36.0772727,
                "end_time": 36.1886364,
                "pitch": 74,
                "velocity": 64,
                "duration": 0.1113636,
                "tempo": 120.0
            },
            {
                "start_time": 36.1886364,
                "end_time": 36.3022727,
                "pitch": 70,
                "velocity": 64,
                "duration": 0.1136364,
                "tempo": 120.0
            },
            {
                "start_time": 36.3022727,
                "end_time": 36.4181818,
                "pitch": 70,
                "velocity": 64,
                "duration": 0.1159091,
                "tempo": 120.0
            },
            {
                "start_time": 36.4181818,
                "end_time": 36.5,
                "pitch": 88,
                "velocity": 64,
                "duration": 0.0818182,
                "tempo": 120.0
            },
            {
                "start_time": 36.5,
                "end_time": 36.5840909,
                "pitch": 83,
                "velocity": 64,
                "duration": 0.0840909,
                "tempo": 120.0
            },
            {
                "start_time": 36.5840909,
                "end_time": 36.6840909,
                "pitch": 79,
                "velocity": 64,
                "duration": 0.1,
                "tempo": 120.0
            },
            {
                "start_time": 36.6840909,
                "end_time": 36.7681818,
                "pitch": 83,
                "velocity": 64,
                "duration": 0.0840909,
                "tempo": 120.0
            },
            {
                "start_time": 36.7681818,
                "end_time": 36.85,
                "pitch": 79,
                "velocity": 64,
                "duration": 0.0818182,
                "tempo": 120.0
            },
            {
                "start_time": 36.8522727,
                "end_time": 36.9363636,
                "pitch": 76,
                "velocity": 64,
                "duration": 0.0840909,
                "tempo": 120.0
            },
            {
                "start_time": 36.9363636,
                "end_time": 37.0181818,
                "pitch": 79,
                "velocity": 64,
                "duration": 0.0818182,
                "tempo": 120.0
            },
            {
                "start_time": 37.0181818,
                "end_time": 37.1204545,
                "pitch": 76,
                "velocity": 64,
                "duration": 0.1022727,
                "tempo": 120.0
            },
            {
                "start_time": 37.1204545,
                "end_time": 37.2,
                "pitch": 71,
                "velocity": 64,
                "duration": 0.0795455,
                "tempo": 120.0
            },
            {
                "start_time": 37.2,
                "end_time": 37.2818182,
                "pitch": 76,
                "velocity": 64,
                "duration": 0.0818182,
                "tempo": 120.0
            },
            {
                "start_time": 37.2818182,
                "end_time": 37.3613636,
                "pitch": 71,
                "velocity": 64,
                "duration": 0.0795455,
                "tempo": 120.0
            },
            {
                "start_time": 37.3613636,
                "end_time": 37.4454545,
                "pitch": 67,
                "velocity": 64,
                "duration": 0.0840909,
                "tempo": 120.0
            },
            {
                "start_time": 37.4454545,
                "end_time": 37.525,
                "pitch": 71,
                "velocity": 64,
                "duration": 0.0795455,
                "tempo": 120.0
            },
            {
                "start_time": 37.525,
                "end_time": 37.6227273,
                "pitch": 67,
                "velocity": 64,
                "duration": 0.0977273,
                "tempo": 120.0
            },
            {
                "start_time": 37.6227273,
                "end_time": 37.7045455,
                "pitch": 64,
                "velocity": 64,
                "duration": 0.0818182,
                "tempo": 120.0
            },
            {
                "start_time": 37.7045455,
                "end_time": 37.7863636,
                "pitch": 67,
                "velocity": 64,
                "duration": 0.0818182,
                "tempo": 120.0
            },
            {
                "start_time": 37.7863636,
                "end_time": 37.8681818,
                "pitch": 64,
                "velocity": 64,
                "duration": 0.0818182,
                "tempo": 120.0
            },
            {
                "start_time": 37.8681818,
                "end_time": 37.9522727,
                "pitch": 59,
                "velocity": 64,
                "duration": 0.0840909,
                "tempo": 120.0
            },
            {
                "start_time": 37.9522727,
                "end_time": 38.0363636,
                "pitch": 64,
                "velocity": 64,
                "duration": 0.0840909,
                "tempo": 120.0
            },
            {
                "start_time": 38.0363636,
                "end_time": 38.1363636,
                "pitch": 59,
                "velocity": 64,
                "duration": 0.1,
                "tempo": 120.0
            },
            {
                "start_time": 38.1363636,
                "end_time": 38.2204545,
                "pitch": 55,
                "velocity": 64,
                "duration": 0.0840909,
                "tempo": 120.0
            },
            {
                "start_time": 38.2204545,
                "end_time": 38.3045455,
                "pitch": 59,
                "velocity": 64,
                "duration": 0.0840909,
                "tempo": 120.0
            },
            {
                "start_time": 38.3045455,
                "end_time": 38.3863636,
                "pitch": 55,
                "velocity": 64,
                "duration": 0.0818182,
                "tempo": 120.0
            },
            {
                "start_time": 38.3863636,
                "end_time": 38.4727273,
                "pitch": 52,
                "velocity": 64,
                "duration": 0.0863636,
                "tempo": 120.0
            },
            {
                "start_time": 38.4727273,
                "end_time": 38.5522727,
                "pitch": 55,
                "velocity": 64,
                "duration": 0.0795455,
                "tempo": 120.0
            },
            {
                "start_time": 38.5522727,
                "end_time": 38.65,
                "pitch": 52,
                "velocity": 64,
                "duration": 0.0977273,
                "tempo": 120.0
            },
            {
                "start_time": 38.65,
                "end_time": 38.7295455,
                "pitch": 47,
                "velocity": 64,
                "duration": 0.0795455,
                "tempo": 120.0
            },
            {
                "start_time": 38.7318182,
                "end_time": 38.8136364,
                "pitch": 52,
                "velocity": 64,
                "duration": 0.0818182,
                "tempo": 120.0
            },
            {
                "start_time": 38.8136364,
                "end_time": 38.8954545,
                "pitch": 47,
                "velocity": 64,
                "duration": 0.0818182,
                "tempo": 120.0
            },
            {
                "start_time": 38.8954545,
                "end_time": 38.9795455,
                "pitch": 43,
                "velocity": 64,
                "duration": 0.0840909,
                "tempo": 120.0
            },
            {
                "start_time": 38.9795455,
                "end_time": 39.0636364,
                "pitch": 47,
                "velocity": 64,
                "duration": 0.0840909,
                "tempo": 120.0
            },
            {
                "start_time": 39.0636364,
                "end_time": 39.1659091,
                "pitch": 43,
                "velocity": 64,
                "duration": 0.1022727,
                "tempo": 120.0
            },
            {
                "start_time": 39.1659091,
                "end_time": 39.3318182,
                "pitch": 81,
                "velocity": 64,
                "duration": 0.1659091,
                "tempo": 120.0
            },
            {
                "start_time": 39.3318182,
                "end_time": 39.4136364,
                "pitch": 81,
                "velocity": 64,
                "duration": 0.0818182,
                "tempo": 120.0
            },
            {
                "start_time": 39.4136364,
                "end_time": 39.4977273,
                "pitch": 83,
                "velocity": 64,
                "duration": 0.0840909,
                "tempo": 120.0
            },
            {
                "start_time": 39.4977273,
                "end_time": 39.6727273,
                "pitch": 84,
                "velocity": 64,
                "duration": 0.175,
                "tempo": 120.0
            },
            {
                "start_time": 39.6727273,
                "end_time": 39.8295455,
                "pitch": 77,
                "velocity": 64,
                "duration": 0.1568182,
                "tempo": 120.0
            },
            {
                "start_time": 39.8318182,
                "end_time": 39.9136364,
                "pitch": 77,
                "velocity": 64,
                "duration": 0.0818182,
                "tempo": 120.0
            },
            {
                "start_time": 39.9136364,
                "end_time": 39.9977273,
                "pitch": 79,
                "velocity": 64,
                "duration": 0.0840909,
                "tempo": 120.0
            },
            {
                "start_time": 39.9977273,
                "end_time": 40.1818182,
                "pitch": 81,
                "velocity": 64,
                "duration": 0.1840909,
                "tempo": 120.0
            },
            {
                "start_time": 40.1818182,
                "end_time": 40.3477273,
                "pitch": 74,
                "velocity": 64,
                "duration": 0.1659091,
                "tempo": 120.0
            },
            {
                "start_time": 40.3477273,
                "end_time": 40.4318182,
                "pitch": 74,
                "velocity": 64,
                "duration": 0.0840909,
                "tempo": 120.0
            },
            {
                "start_time": 40.4318182,
                "end_time": 40.5181818,
                "pitch": 76,
                "velocity": 64,
                "duration": 0.0863636,
                "tempo": 120.0
            },
            {
                "start_time": 40.5181818,
                "end_time": 40.6954545,
                "pitch": 77,
                "velocity": 64,
                "duration": 0.1772727,
                "tempo": 120.0
            },
            {
                "start_time": 40.6954545,
                "end_time": 40.8568182,
                "pitch": 69,
                "velocity": 64,
                "duration": 0.1613636,
                "tempo": 120.0
            },
            {
                "start_time": 40.8568182,
                "end_time": 40.9409091,
                "pitch": 69,
                "velocity": 64,
                "duration": 0.0840909,
                "tempo": 120.0
            },
            {
                "start_time": 40.9409091,
                "end_time": 41.025,
                "pitch": 71,
                "velocity": 64,
                "duration": 0.0840909,
                "tempo": 120.0
            },
            {
                "start_time": 41.025,
                "end_time": 41.2090909,
                "pitch": 72,
                "velocity": 64,
                "duration": 0.1840909,
                "tempo": 120.0
            },
            {
                "start_time": 41.2090909,
                "end_time": 41.375,
                "pitch": 65,
                "velocity": 64,
                "duration": 0.1659091,
                "tempo": 120.0
            },
            {
                "start_time": 41.375,
                "end_time": 41.4590909,
                "pitch": 65,
                "velocity": 64,
                "duration": 0.0840909,
                "tempo": 120.0
            },
            {
                "start_time": 41.4590909,
                "end_time": 41.5431818,
                "pitch": 67,
                "velocity": 64,
                "duration": 0.0840909,
                "tempo": 120.0
            },
            {
                "start_time": 41.5431818,
                "end_time": 41.7159091,
                "pitch": 69,
                "velocity": 64,
                "duration": 0.1727273,
                "tempo": 120.0
            },
            {
                "start_time": 41.7159091,
                "end_time": 41.8772727,
                "pitch": 60,
                "velocity": 64,
                "duration": 0.1613636,
                "tempo": 120.0
            },
            {
                "start_time": 41.8772727,
                "end_time": 41.9568182,
                "pitch": 62,
                "velocity": 64,
                "duration": 0.0795455,
                "tempo": 120.0
            },
            {
                "start_time": 41.9590909,
                "end_time": 42.0590909,
                "pitch": 67,
                "velocity": 64,
                "duration": 0.1,
                "tempo": 120.0
            },
            {
                "start_time": 42.0590909,
                "end_time": 42.1409091,
                "pitch": 71,
                "velocity": 64,
                "duration": 0.0818182,
                "tempo": 120.0
            },
            {
                "start_time": 42.1409091,
                "end_time": 42.2272727,
                "pitch": 67,
                "velocity": 64,
                "duration": 0.0863636,
                "tempo": 120.0
            },
            {
                "start_time": 42.2272727,
                "end_time": 42.3090909,
                "pitch": 71,
                "velocity": 64,
                "duration": 0.0818182,
                "tempo": 120.0
            },
            {
                "start_time": 42.3090909,
                "end_time": 42.3931818,
                "pitch": 74,
                "velocity": 64,
                "duration": 0.0840909,
                "tempo": 120.0
            },
            {
                "start_time": 42.3931818,
                "end_time": 42.4772727,
                "pitch": 71,
                "velocity": 64,
                "duration": 0.0840909,
                "tempo": 120.0
            },
            {
                "start_time": 42.4772727,
                "end_time": 42.5772727,
                "pitch": 74,
                "velocity": 64,
                "duration": 0.1,
                "tempo": 120.0
            },
            {
                "start_time": 42.5772727,
                "end_time": 42.6590909,
                "pitch": 79,
                "velocity": 64,
                "duration": 0.0818182,
                "tempo": 120.0
            },
            {
                "start_time": 42.6613636,
                "end_time": 42.7454545,
                "pitch": 74,
                "velocity": 64,
                "duration": 0.0840909,
                "tempo": 120.0
            },
            {
                "start_time": 42.7454545,
                "end_time": 42.8272727,
                "pitch": 79,
                "velocity": 64,
                "duration": 0.0818182,
                "tempo": 120.0
            },
            {
                "start_time": 42.8272727,
                "end_time": 42.9113636,
                "pitch": 83,
                "velocity": 64,
                "duration": 0.0840909,
                "tempo": 120.0
            },
            {
                "start_time": 42.9113636,
                "end_time": 42.9931818,
                "pitch": 79,
                "velocity": 64,
                "duration": 0.0818182,
                "tempo": 120.0
            },
            {
                "start_time": 42.9931818,
                "end_time": 43.0909091,
                "pitch": 83,
                "velocity": 64,
                "duration": 0.0977273,
                "tempo": 120.0
            },
            {
                "start_time": 43.0909091,
                "end_time": 43.1704545,
                "pitch": 86,
                "velocity": 64,
                "duration": 0.0795455,
                "tempo": 120.0
            },
            {
                "start_time": 43.1704545,
                "end_time": 43.2545455,
                "pitch": 83,
                "velocity": 64,
                "duration": 0.0840909,
                "tempo": 120.0
            },
            {
                "start_time": 43.2545455,
                "end_time": 43.3363636,
                "pitch": 86,
                "velocity": 64,
                "duration": 0.0818182,
                "tempo": 120.0
            },
            {
                "start_time": 43.3363636,
                "end_time": 43.4204545,
                "pitch": 91,
                "velocity": 64,
                "duration": 0.0840909,
                "tempo": 120.0
            },
            {
                "start_time": 43.4204545,
                "end_time": 43.5022727,
                "pitch": 86,
                "velocity": 64,
                "duration": 0.0818182,
                "tempo": 120.0
            },
            {
                "start_time": 43.5045455,
                "end_time": 43.6045455,
                "pitch": 91,
                "velocity": 64,
                "duration": 0.1,
                "tempo": 120.0
            },
            {
                "start_time": 43.6045455,
                "end_time": 43.6863636,
                "pitch": 95,
                "velocity": 64,
                "duration": 0.0818182,
                "tempo": 120.0
            },
            {
                "start_time": 43.6863636,
                "end_time": 43.7704545,
                "pitch": 91,
                "velocity": 64,
                "duration": 0.0840909,
                "tempo": 120.0
            },
            {
                "start_time": 43.7727273,
                "end_time": 43.8545455,
                "pitch": 95,
                "velocity": 64,
                "duration": 0.0818182,
                "tempo": 120.0
            },
            {
                "start_time": 43.8545455,
                "end_time": 43.9386364,
                "pitch": 98,
                "velocity": 64,
                "duration": 0.0840909,
                "tempo": 120.0
            },
            {
                "start_time": 43.9386364,
                "end_time": 44.0181818,
                "pitch": 95,
                "velocity": 64,
                "duration": 0.0795455,
                "tempo": 120.0
            },
            {
                "start_time": 44.0181818,
                "end_time": 44.1136364,
                "pitch": 98,
                "velocity": 64,
                "duration": 0.0954545,
                "tempo": 120.0
            },
            {
                "start_time": 44.1136364,
                "end_time": 44.1909091,
                "pitch": 103,
                "velocity": 64,
                "duration": 0.0772727,
                "tempo": 120.0
            },
            {
                "start_time": 44.1909091,
                "end_time": 44.2704545,
                "pitch": 98,
                "velocity": 64,
                "duration": 0.0795455,
                "tempo": 120.0
            },
            {
                "start_time": 44.2704545,
                "end_time": 44.3545455,
                "pitch": 103,
                "velocity": 64,
                "duration": 0.0840909,
                "tempo": 120.0
            },
            {
                "start_time": 44.3545455,
                "end_time": 44.4386364,
                "pitch": 107,
                "velocity": 64,
                "duration": 0.0840909,
                "tempo": 120.0
            },
            {
                "start_time": 44.4386364,
                "end_time": 44.5386364,
                "pitch": 103,
                "velocity": 64,
                "duration": 0.1,
                "tempo": 120.0
            },
            {
                "start_time": 44.5386364,
                "end_time": 44.625,
                "pitch": 107,
                "velocity": 64,
                "duration": 0.0863636,
                "tempo": 120.0
            }
        ],
        "Flute": [
            {
                "start_time": 0.0045455,
                "end_time": 2.5704545,
                "pitch": 62,
                "velocity": 51,
                "duration": 2.5659091,
                "tempo": 120.0
            },
            {
                "start_time": 2.5704545,
                "end_time": 2.7636364,
                "pitch": 60,
                "velocity": 51,
                "duration": 0.1931818,
                "tempo": 120.0
            },
            {
                "start_time": 2.7636364,
                "end_time": 2.9590909,
                "pitch": 59,
                "velocity": 51,
                "duration": 0.1954545,
                "tempo": 120.0
            },
            {
                "start_time": 2.9590909,
                "end_time": 3.1590909,
                "pitch": 60,
                "velocity": 51,
                "duration": 0.2,
                "tempo": 120.0
            },
            {
                "start_time": 3.1590909,
                "end_time": 3.3590909,
                "pitch": 59,
                "velocity": 51,
                "duration": 0.2,
                "tempo": 120.0
            },
            {
                "start_time": 3.3590909,
                "end_time": 3.7227273,
                "pitch": 55,
                "velocity": 51,
                "duration": 0.3636364,
                "tempo": 120.0
            },
            {
                "start_time": 3.7227273,
                "end_time": 5.5954545,
                "pitch": 62,
                "velocity": 51,
                "duration": 1.8727273,
                "tempo": 120.0
            },
            {
                "start_time": 5.5954545,
                "end_time": 5.7863636,
                "pitch": 60,
                "velocity": 51,
                "duration": 0.1909091,
                "tempo": 120.0
            },
            {
                "start_time": 5.7863636,
                "end_time": 5.9590909,
                "pitch": 59,
                "velocity": 51,
                "duration": 0.1727273,
                "tempo": 120.0
            },
            {
                "start_time": 5.9590909,
                "end_time": 8.5954545,
                "pitch": 58,
                "velocity": 51,
                "duration": 2.6363636,
                "tempo": 120.0
            },
            {
                "start_time": 8.5954545,
                "end_time": 8.7727273,
                "pitch": 60,
                "velocity": 51,
                "duration": 0.1772727,
                "tempo": 120.0
            },
            {
                "start_time": 8.7727273,
                "end_time": 8.9522727,
                "pitch": 58,
                "velocity": 51,
                "duration": 0.1795455,
                "tempo": 120.0
            },
            {
                "start_time": 8.9522727,
                "end_time": 10.4590909,
                "pitch": 57,
                "velocity": 51,
                "duration": 1.5068182,
                "tempo": 120.0
            },
            {
                "start_time": 10.4590909,
                "end_time": 11.8295455,
                "pitch": 54,
                "velocity": 51,
                "duration": 1.3704545,
                "tempo": 120.0
            }
        ],
        "Trumpet": [
            {
                "start_time": 33.7068182,
                "end_time": 35.0477273,
                "pitch": 50,
                "velocity": 64,
                "duration": 1.3409091,
                "tempo": 120.0
            },
            {
                "start_time": 35.0477273,
                "end_time": 36.4159091,
                "pitch": 50,
                "velocity": 64,
                "duration": 1.3681818,
                "tempo": 120.0
            },
            {
                "start_time": 36.4181818,
                "end_time": 37.7863636,
                "pitch": 52,
                "velocity": 64,
                "duration": 1.3681818,
                "tempo": 120.0
            },
            {
                "start_time": 37.7863636,
                "end_time": 39.1636364,
                "pitch": 52,
                "velocity": 64,
                "duration": 1.3772727,
                "tempo": 120.0
            },
            {
                "start_time": 39.1636364,
                "end_time": 40.5159091,
                "pitch": 53,
                "velocity": 64,
                "duration": 1.3522727,
                "tempo": 120.0
            },
            {
                "start_time": 40.5159091,
                "end_time": 41.875,
                "pitch": 53,
                "velocity": 64,
                "duration": 1.3590909,
                "tempo": 120.0
            },
            {
                "start_time": 41.875,
                "end_time": 43.2522727,
                "pitch": 55,
                "velocity": 64,
                "duration": 1.3772727,
                "tempo": 120.0
            },
            {
                "start_time": 43.2522727,
                "end_time": 44.6227273,
                "pitch": 55,
                "velocity": 64,
                "duration": 1.3704545,
                "tempo": 120.0
            }
        ],
        "Electric Piano 1": [
            {
                "start_time": 11.8295455,
                "end_time": 12.0068182,
                "pitch": 43,
                "velocity": 80,
                "duration": 0.1772727,
                "tempo": 120.0
            },
            {
                "start_time": 12.0068182,
                "end_time": 12.1704545,
                "pitch": 38,
                "velocity": 80,
                "duration": 0.1636364,
                "tempo": 120.0
            },
            {
                "start_time": 12.1704545,
                "end_time": 12.3545455,
                "pitch": 55,
                "velocity": 80,
                "duration": 0.1840909,
                "tempo": 120.0
            },
            {
                "start_time": 12.3545455,
                "end_time": 12.5204545,
                "pitch": 43,
                "velocity": 80,
                "duration": 0.1659091,
                "tempo": 120.0
            },
            {
                "start_time": 12.5204545,
                "end_time": 12.6886364,
                "pitch": 38,
                "velocity": 80,
                "duration": 0.1681818,
                "tempo": 120.0
            },
            {
                "start_time": 12.6886364,
                "end_time": 12.8727273,
                "pitch": 55,
                "velocity": 80,
                "duration": 0.1840909,
                "tempo": 120.0
            },
            {
                "start_time": 12.8727273,
                "end_time": 13.0386364,
                "pitch": 43,
                "velocity": 80,
                "duration": 0.1659091,
                "tempo": 120.0
            },
            {
                "start_time": 13.0409091,
                "end_time": 13.2068182,
                "pitch": 38,
                "velocity": 80,
                "duration": 0.1659091,
                "tempo": 120.0
            },
            {
                "start_time": 13.2068182,
                "end_time": 13.3863636,
                "pitch": 43,
                "velocity": 80,
                "duration": 0.1795455,
                "tempo": 120.0
            },
            {
                "start_time": 13.3863636,
                "end_time": 13.5477273,
                "pitch": 38,
                "velocity": 80,
                "duration": 0.1613636,
                "tempo": 120.0
            },
            {
                "start_time": 13.5477273,
                "end_time": 13.7159091,
                "pitch": 55,
                "velocity": 80,
                "duration": 0.1681818,
                "tempo": 120.0
            },
            {
                "start_time": 13.7159091,
                "end_time": 13.9,
                "pitch": 43,
                "velocity": 80,
                "duration": 0.1840909,
                "tempo": 120.0
            },
            {
                "start_time": 13.9,
                "end_time": 14.0613636,
                "pitch": 38,
                "velocity": 80,
                "duration": 0.1613636,
                "tempo": 120.0
            },
            {
                "start_time": 14.0613636,
                "end_time": 14.225,
                "pitch": 55,
                "velocity": 80,
                "duration": 0.1636364,
                "tempo": 120.0
            },
            {
                "start_time": 14.225,
                "end_time": 14.4022727,
                "pitch": 43,
                "velocity": 80,
                "duration": 0.1772727,
                "tempo": 120.0
            },
            {
                "start_time": 14.4022727,
                "end_time": 14.5659091,
                "pitch": 38,
                "velocity": 80,
                "duration": 0.1636364,
                "tempo": 120.0
            },
            {
                "start_time": 14.5659091,
                "end_time": 14.7318182,
                "pitch": 41,
                "velocity": 80,
                "duration": 0.1659091,
                "tempo": 120.0
            },
            {
                "start_time": 14.7340909,
                "end_time": 14.9159091,
                "pitch": 36,
                "velocity": 80,
                "duration": 0.1818182,
                "tempo": 120.0
            },
            {
                "start_time": 14.9159091,
                "end_time": 15.0840909,
                "pitch": 53,
                "velocity": 80,
                "duration": 0.1681818,
                "tempo": 120.0
            },
            {
                "start_time": 15.0840909,
                "end_time": 15.2522727,
                "pitch": 41,
                "velocity": 80,
                "duration": 0.1681818,
                "tempo": 120.0
            },
            {
                "start_time": 15.2522727,
                "end_time": 15.4295455,
                "pitch": 36,
                "velocity": 80,
                "duration": 0.1772727,
                "tempo": 120.0
            },
            {
                "start_time": 15.4295455,
                "end_time": 15.5931818,
                "pitch": 53,
                "velocity": 80,
                "duration": 0.1636364,
                "tempo": 120.0
            },
            {
                "start_time": 15.5931818,
                "end_time": 15.7545455,
                "pitch": 41,
                "velocity": 80,
                "duration": 0.1613636,
                "tempo": 120.0
            },
            {
                "start_time": 15.7545455,
                "end_time": 15.9340909,
                "pitch": 36,
                "velocity": 80,
                "duration": 0.1795455,
                "tempo": 120.0
            },
            {
                "start_time": 15.9340909,
                "end_time": 16.1068182,
                "pitch": 41,
                "velocity": 80,
                "duration": 0.1727273,
                "tempo": 120.0
            },
            {
                "start_time": 16.1068182,
                "end_time": 16.2772727,
                "pitch": 36,
                "velocity": 80,
                "duration": 0.1704545,
                "tempo": 120.0
            },
            {
                "start_time": 16.2795455,
                "end_time": 16.4522727,
                "pitch": 53,
                "velocity": 80,
                "duration": 0.1727273,
                "tempo": 120.0
            },
            {
                "start_time": 16.4522727,
                "end_time": 16.6090909,
                "pitch": 41,
                "velocity": 80,
                "duration": 0.1568182,
                "tempo": 120.0
            },
            {
                "start_time": 16.6113636,
                "end_time": 16.7772727,
                "pitch": 36,
                "velocity": 80,
                "duration": 0.1659091,
                "tempo": 120.0
            },
            {
                "start_time": 16.7772727,
                "end_time": 16.9613636,
                "pitch": 53,
                "velocity": 80,
                "duration": 0.1840909,
                "tempo": 120.0
            },
            {
                "start_time": 16.9613636,
                "end_time": 17.1295455,
                "pitch": 41,
                "velocity": 80,
                "duration": 0.1681818,
                "tempo": 120.0
            },
            {
                "start_time": 17.1295455,
                "end_time": 17.3113636,
                "pitch": 36,
                "velocity": 80,
                "duration": 0.1818182,
                "tempo": 120.0
            },
            {
                "start_time": 17.3136364,
                "end_time": 17.475,
                "pitch": 41,
                "velocity": 80,
                "duration": 0.1613636,
                "tempo": 120.0
            },
            {
                "start_time": 17.475,
                "end_time": 17.6363636,
                "pitch": 36,
                "velocity": 80,
                "duration": 0.1613636,
                "tempo": 120.0
            },
            {
                "start_time": 17.6386364,
                "end_time": 17.8204545,
                "pitch": 53,
                "velocity": 80,
                "duration": 0.1818182,
                "tempo": 120.0
            },
            {
                "start_time": 17.8204545,
                "end_time": 17.9886364,
                "pitch": 41,
                "velocity": 80,
                "duration": 0.1681818,
                "tempo": 120.0
            },
            {
                "start_time": 17.9886364,
                "end_time": 18.1568182,
                "pitch": 36,
                "velocity": 80,
                "duration": 0.1681818,
                "tempo": 120.0
            },
            {
                "start_time": 18.1568182,
                "end_time": 18.3386364,
                "pitch": 53,
                "velocity": 80,
                "duration": 0.1818182,
                "tempo": 120.0
            },
            {
                "start_time": 18.3409091,
                "end_time": 18.5022727,
                "pitch": 41,
                "velocity": 80,
                "duration": 0.1613636,
                "tempo": 120.0
            },
            {
                "start_time": 18.5022727,
                "end_time": 18.6636364,
                "pitch": 36,
                "velocity": 80,
                "duration": 0.1613636,
                "tempo": 120.0
            },
            {
                "start_time": 18.6659091,
                "end_time": 18.8431818,
                "pitch": 41,
                "velocity": 80,
                "duration": 0.1772727,
                "tempo": 120.0
            },
            {
                "start_time": 18.8431818,
                "end_time": 19.0068182,
                "pitch": 36,
                "velocity": 80,
                "duration": 0.1636364,
                "tempo": 120.0
            },
            {
                "start_time": 19.0068182,
                "end_time": 19.1727273,
                "pitch": 53,
                "velocity": 80,
                "duration": 0.1659091,
                "tempo": 120.0
            },
            {
                "start_time": 19.1727273,
                "end_time": 19.3568182,
                "pitch": 41,
                "velocity": 80,
                "duration": 0.1840909,
                "tempo": 120.0
            },
            {
                "start_time": 19.3568182,
                "end_time": 19.525,
                "pitch": 36,
                "velocity": 80,
                "duration": 0.1681818,
                "tempo": 120.0
            },
            {
                "start_time": 19.525,
                "end_time": 19.6909091,
                "pitch": 53,
                "velocity": 80,
                "duration": 0.1659091,
                "tempo": 120.0
            },
            {
                "start_time": 19.6909091,
                "end_time": 19.8659091,
                "pitch": 41,
                "velocity": 80,
                "duration": 0.175,
                "tempo": 120.0
            },
            {
                "start_time": 19.8659091,
                "end_time": 20.0227273,
                "pitch": 36,
                "velocity": 80,
                "duration": 0.1568182,
                "tempo": 120.0
            },
            {
                "start_time": 20.0227273,
                "end_time": 20.1954545,
                "pitch": 43,
                "velocity": 80,
                "duration": 0.1727273,
                "tempo": 120.0
            },
            {
                "start_time": 20.1954545,
                "end_time": 20.3840909,
                "pitch": 38,
                "velocity": 80,
                "duration": 0.1886364,
                "tempo": 120.0
            },
            {
                "start_time": 20.3840909,
                "end_time": 20.5522727,
                "pitch": 55,
                "velocity": 80,
                "duration": 0.1681818,
                "tempo": 120.0
            },
            {
                "start_time": 20.5522727,
                "end_time": 20.7181818,
                "pitch": 43,
                "velocity": 80,
                "duration": 0.1659091,
                "tempo": 120.0
            },
            {
                "start_time": 20.7204545,
                "end_time": 20.8931818,
                "pitch": 38,
                "velocity": 80,
                "duration": 0.1727273,
                "tempo": 120.0
            },
            {
                "start_time": 20.8931818,
                "end_time": 21.05,
                "pitch": 55,
                "velocity": 80,
                "duration": 0.1568182,
                "tempo": 120.0
            },
            {
                "start_time": 21.0522727,
                "end_time": 21.2181818,
                "pitch": 43,
                "velocity": 80,
                "duration": 0.1659091,
                "tempo": 120.0
            },
            {
                "start_time": 21.2181818,
                "end_time": 21.4022727,
                "pitch": 38,
                "velocity": 80,
                "duration": 0.1840909,
                "tempo": 120.0
            },
            {
                "start_time": 21.4022727,
                "end_time": 21.5704545,
                "pitch": 43,
                "velocity": 80,
                "duration": 0.1681818,
                "tempo": 120.0
            },
            {
                "start_time": 21.5704545,
                "end_time": 21.7363636,
                "pitch": 38,
                "velocity": 80,
                "duration": 0.1659091,
                "tempo": 120.0
            },
            {
                "start_time": 21.7363636,
                "end_time": 21.9159091,
                "pitch": 55,
                "velocity": 80,
                "duration": 0.1795455,
                "tempo": 120.0
            },
            {
                "start_time": 21.9159091,
                "end_time": 22.0772727,
                "pitch": 43,
                "velocity": 80,
                "duration": 0.1613636,
                "tempo": 120.0
            },
            {
                "start_time": 22.0795455,
                "end_time": 22.2613636,
                "pitch": 38,
                "velocity": 80,
                "duration": 0.1818182,
                "tempo": 120.0
            },
            {
                "start_time": 22.2613636,
                "end_time": 22.4295455,
                "pitch": 55,
                "velocity": 80,
                "duration": 0.1681818,
                "tempo": 120.0
            },
            {
                "start_time": 22.4295455,
                "end_time": 22.5909091,
                "pitch": 43,
                "velocity": 80,
                "duration": 0.1613636,
                "tempo": 120.0
            },
            {
                "start_time": 22.5909091,
                "end_time": 22.7704545,
                "pitch": 38,
                "velocity": 80,
                "duration": 0.1795455,
                "tempo": 120.0
            },
            {
                "start_time": 22.7704545,
                "end_time": 22.9386364,
                "pitch": 43,
                "velocity": 80,
                "duration": 0.1681818,
                "tempo": 120.0
            },
            {
                "start_time": 22.9386364,
                "end_time": 23.1045455,
                "pitch": 38,
                "velocity": 80,
                "duration": 0.1659091,
                "tempo": 120.0
            },
            {
                "start_time": 23.1045455,
                "end_time": 23.2840909,
                "pitch": 55,
                "velocity": 80,
                "duration": 0.1795455,
                "tempo": 120.0
            },
            {
                "start_time": 23.2840909,
                "end_time": 23.4454545,
                "pitch": 43,
                "velocity": 80,
                "duration": 0.1613636,
                "tempo": 120.0
            },
            {
                "start_time": 23.4477273,
                "end_time": 23.6136364,
                "pitch": 38,
                "velocity": 80,
                "duration": 0.1659091,
                "tempo": 120.0
            },
            {
                "start_time": 23.6136364,
                "end_time": 23.7977273,
                "pitch": 55,
                "velocity": 80,
                "duration": 0.1840909,
                "tempo": 120.0
            },
            {
                "start_time": 23.7977273,
                "end_time": 23.9659091,
                "pitch": 43,
                "velocity": 80,
                "duration": 0.1681818,
                "tempo": 120.0
            },
            {
                "start_time": 23.9659091,
                "end_time": 24.1318182,
                "pitch": 38,
                "velocity": 80,
                "duration": 0.1659091,
                "tempo": 120.0
            },
            {
                "start_time": 24.1318182,
                "end_time": 24.3113636,
                "pitch": 43,
                "velocity": 80,
                "duration": 0.1795455,
                "tempo": 120.0
            },
            {
                "start_time": 24.3113636,
                "end_time": 24.4727273,
                "pitch": 38,
                "velocity": 80,
                "duration": 0.1613636,
                "tempo": 120.0
            },
            {
                "start_time": 24.4727273,
                "end_time": 24.6409091,
                "pitch": 55,
                "velocity": 80,
                "duration": 0.1681818,
                "tempo": 120.0
            },
            {
                "start_time": 24.6409091,
                "end_time": 24.825,
                "pitch": 43,
                "velocity": 80,
                "duration": 0.1840909,
                "tempo": 120.0
            },
            {
                "start_time": 24.825,
                "end_time": 24.9863636,
                "pitch": 38,
                "velocity": 80,
                "duration": 0.1613636,
                "tempo": 120.0
            },
            {
                "start_time": 24.9863636,
                "end_time": 25.15,
                "pitch": 55,
                "velocity": 80,
                "duration": 0.1636364,
                "tempo": 120.0
            },
            {
                "start_time": 25.15,
                "end_time": 25.3272727,
                "pitch": 43,
                "velocity": 80,
                "duration": 0.1772727,
                "tempo": 120.0
            },
            {
                "start_time": 25.3295455,
                "end_time": 25.4909091,
                "pitch": 38,
                "velocity": 80,
                "duration": 0.1613636,
                "tempo": 120.0
            },
            {
                "start_time": 25.4909091,
                "end_time": 25.6590909,
                "pitch": 41,
                "velocity": 80,
                "duration": 0.1681818,
                "tempo": 120.0
            },
            {
                "start_time": 25.6590909,
                "end_time": 25.8431818,
                "pitch": 36,
                "velocity": 80,
                "duration": 0.1840909,
                "tempo": 120.0
            },
            {
                "start_time": 25.8431818,
                "end_time": 26.0090909,
                "pitch": 53,
                "velocity": 80,
                "duration": 0.1659091,
                "tempo": 120.0
            },
            {
                "start_time": 26.0090909,
                "end_time": 26.1772727,
                "pitch": 41,
                "velocity": 80,
                "duration": 0.1681818,
                "tempo": 120.0
            },
            {
                "start_time": 26.1772727,
                "end_time": 26.3545455,
                "pitch": 36,
                "velocity": 80,
                "duration": 0.1772727,
                "tempo": 120.0
            },
            {
                "start_time": 26.3568182,
                "end_time": 26.5181818,
                "pitch": 53,
                "velocity": 80,
                "duration": 0.1613636,
                "tempo": 120.0
            },
            {
                "start_time": 26.5181818,
                "end_time": 26.6795455,
                "pitch": 41,
                "velocity": 80,
                "duration": 0.1613636,
                "tempo": 120.0
            },
            {
                "start_time": 26.6818182,
                "end_time": 26.8590909,
                "pitch": 36,
                "velocity": 80,
                "duration": 0.1772727,
                "tempo": 120.0
            },
            {
                "start_time": 26.8590909,
                "end_time": 27.0272727,
                "pitch": 41,
                "velocity": 80,
                "duration": 0.1681818,
                "tempo": 120.0
            },
            {
                "start_time": 27.0272727,
                "end_time": 27.2113636,
                "pitch": 36,
                "velocity": 80,
                "duration": 0.1840909,
                "tempo": 120.0
            },
            {
                "start_time": 27.2113636,
                "end_time": 27.3818182,
                "pitch": 53,
                "velocity": 80,
                "duration": 0.1704545,
                "tempo": 120.0
            },
            {
                "start_time": 27.3840909,
                "end_time": 27.5545455,
                "pitch": 41,
                "velocity": 80,
                "duration": 0.1704545,
                "tempo": 120.0
            },
            {
                "start_time": 27.5545455,
                "end_time": 27.7295455,
                "pitch": 36,
                "velocity": 80,
                "duration": 0.175,
                "tempo": 120.0
            },
            {
                "start_time": 27.7295455,
                "end_time": 27.8863636,
                "pitch": 53,
                "velocity": 80,
                "duration": 0.1568182,
                "tempo": 120.0
            },
            {
                "start_time": 27.8863636,
                "end_time": 28.0545455,
                "pitch": 41,
                "velocity": 80,
                "duration": 0.1681818,
                "tempo": 120.0
            },
            {
                "start_time": 28.0545455,
                "end_time": 28.2386364,
                "pitch": 36,
                "velocity": 80,
                "duration": 0.1840909,
                "tempo": 120.0
            },
            {
                "start_time": 28.2386364,
                "end_time": 28.4045455,
                "pitch": 41,
                "velocity": 80,
                "duration": 0.1659091,
                "tempo": 120.0
            },
            {
                "start_time": 28.4068182,
                "end_time": 28.5727273,
                "pitch": 36,
                "velocity": 80,
                "duration": 0.1659091,
                "tempo": 120.0
            },
            {
                "start_time": 28.5727273,
                "end_time": 28.7522727,
                "pitch": 53,
                "velocity": 80,
                "duration": 0.1795455,
                "tempo": 120.0
            },
            {
                "start_time": 28.7522727,
                "end_time": 28.9136364,
                "pitch": 41,
                "velocity": 80,
                "duration": 0.1613636,
                "tempo": 120.0
            },
            {
                "start_time": 28.9136364,
                "end_time": 29.0818182,
                "pitch": 36,
                "velocity": 80,
                "duration": 0.1681818,
                "tempo": 120.0
            },
            {
                "start_time": 29.0818182,
                "end_time": 29.2659091,
                "pitch": 53,
                "velocity": 80,
                "duration": 0.1840909,
                "tempo": 120.0
            },
            {
                "start_time": 29.2659091,
                "end_time": 29.4272727,
                "pitch": 41,
                "velocity": 80,
                "duration": 0.1613636,
                "tempo": 120.0
            },
            {
                "start_time": 29.4272727,
                "end_time": 29.5909091,
                "pitch": 36,
                "velocity": 80,
                "duration": 0.1636364,
                "tempo": 120.0
            },
            {
                "start_time": 29.5909091,
                "end_time": 29.7681818,
                "pitch": 41,
                "velocity": 80,
                "duration": 0.1772727,
                "tempo": 120.0
            },
            {
                "start_time": 29.7681818,
                "end_time": 29.9318182,
                "pitch": 36,
                "velocity": 80,
                "duration": 0.1636364,
                "tempo": 120.0
            },
            {
                "start_time": 29.9318182,
                "end_time": 30.0977273,
                "pitch": 53,
                "velocity": 80,
                "duration": 0.1659091,
                "tempo": 120.0
            },
            {
                "start_time": 30.0977273,
                "end_time": 30.2818182,
                "pitch": 41,
                "velocity": 80,
                "duration": 0.1840909,
                "tempo": 120.0
            },
            {
                "start_time": 30.2818182,
                "end_time": 30.45,
                "pitch": 36,
                "velocity": 80,
                "duration": 0.1681818,
                "tempo": 120.0
            },
            {
                "start_time": 30.45,
                "end_time": 30.6159091,
                "pitch": 53,
                "velocity": 80,
                "duration": 0.1659091,
                "tempo": 120.0
            },
            {
                "start_time": 30.6181818,
                "end_time": 30.7909091,
                "pitch": 41,
                "velocity": 80,
                "duration": 0.1727273,
                "tempo": 120.0
            },
            {
                "start_time": 30.7909091,
                "end_time": 30.95,
                "pitch": 36,
                "velocity": 80,
                "duration": 0.1590909,
                "tempo": 120.0
            },
            {
                "start_time": 30.95,
                "end_time": 31.1159091,
                "pitch": 43,
                "velocity": 80,
                "duration": 0.1659091,
                "tempo": 120.0
            },
            {
                "start_time": 31.1159091,
                "end_time": 31.3,
                "pitch": 38,
                "velocity": 80,
                "duration": 0.1840909,
                "tempo": 120.0
            },
            {
                "start_time": 31.3,
                "end_time": 31.4681818,
                "pitch": 55,
                "velocity": 80,
                "duration": 0.1681818,
                "tempo": 120.0
            },
            {
                "start_time": 31.4681818,
                "end_time": 31.6340909,
                "pitch": 43,
                "velocity": 80,
                "duration": 0.1659091,
                "tempo": 120.0
            },
            {
                "start_time": 31.6340909,
                "end_time": 31.8136364,
                "pitch": 38,
                "velocity": 80,
                "duration": 0.1795455,
                "tempo": 120.0
            },
            {
                "start_time": 31.8136364,
                "end_time": 31.975,
                "pitch": 55,
                "velocity": 80,
                "duration": 0.1613636,
                "tempo": 120.0
            },
            {
                "start_time": 31.9772727,
                "end_time": 32.1590909,
                "pitch": 43,
                "velocity": 80,
                "duration": 0.1818182,
                "tempo": 120.0
            },
            {
                "start_time": 32.1590909,
                "end_time": 32.3272727,
                "pitch": 38,
                "velocity": 80,
                "duration": 0.1681818,
                "tempo": 120.0
            },
            {
                "start_time": 32.3272727,
                "end_time": 32.4954545,
                "pitch": 43,
                "velocity": 80,
                "duration": 0.1681818,
                "tempo": 120.0
            },
            {
                "start_time": 32.4954545,
                "end_time": 32.6795455,
                "pitch": 38,
                "velocity": 80,
                "duration": 0.1840909,
                "tempo": 120.0
            },
            {
                "start_time": 32.6795455,
                "end_time": 32.8454545,
                "pitch": 55,
                "velocity": 80,
                "duration": 0.1659091,
                "tempo": 120.0
            },
            {
                "start_time": 32.8454545,
                "end_time": 33.0136364,
                "pitch": 43,
                "velocity": 80,
                "duration": 0.1681818,
                "tempo": 120.0
            },
            {
                "start_time": 33.0136364,
                "end_time": 33.1863636,
                "pitch": 38,
                "velocity": 80,
                "duration": 0.1727273,
                "tempo": 120.0
            },
            {
                "start_time": 33.1863636,
                "end_time": 33.3454545,
                "pitch": 55,
                "velocity": 80,
                "duration": 0.1590909,
                "tempo": 120.0
            },
            {
                "start_time": 33.3454545,
                "end_time": 33.5159091,
                "pitch": 43,
                "velocity": 80,
                "duration": 0.1704545,
                "tempo": 120.0
            },
            {
                "start_time": 33.5159091,
                "end_time": 33.7068182,
                "pitch": 38,
                "velocity": 80,
                "duration": 0.1909091,
                "tempo": 120.0
            }
        ],
        "Lead 2 (sawtooth)": [
            {
                "start_time": 11.8295455,
                "end_time": 14.5659091,
                "pitch": 62,
                "velocity": 80,
                "duration": 2.7363636,
                "tempo": 120.0
            },
            {
                "start_time": 14.5659091,
                "end_time": 15.0840909,
                "pitch": 67,
                "velocity": 80,
                "duration": 0.5181818,
                "tempo": 120.0
            },
            {
                "start_time": 15.0840909,
                "end_time": 15.5931818,
                "pitch": 65,
                "velocity": 80,
                "duration": 0.5090909,
                "tempo": 120.0
            },
            {
                "start_time": 15.5931818,
                "end_time": 15.9340909,
                "pitch": 64,
                "velocity": 80,
                "duration": 0.3409091,
                "tempo": 120.0
            },
            {
                "start_time": 15.9340909,
                "end_time": 17.3136364,
                "pitch": 65,
                "velocity": 80,
                "duration": 1.3795455,
                "tempo": 120.0
            },
            {
                "start_time": 17.3136364,
                "end_time": 17.8227273,
                "pitch": 67,
                "velocity": 80,
                "duration": 0.5090909,
                "tempo": 120.0
            },
            {
                "start_time": 17.8227273,
                "end_time": 18.3409091,
                "pitch": 65,
                "velocity": 80,
                "duration": 0.5181818,
                "tempo": 120.0
            },
            {
                "start_time": 18.3409091,
                "end_time": 18.6659091,
                "pitch": 64,
                "velocity": 80,
                "duration": 0.325,
                "tempo": 120.0
            },
            {
                "start_time": 18.6659091,
                "end_time": 19.6909091,
                "pitch": 65,
                "velocity": 80,
                "duration": 1.025,
                "tempo": 120.0
            },
            {
                "start_time": 19.6931818,
                "end_time": 20.0227273,
                "pitch": 67,
                "velocity": 80,
                "duration": 0.3295455,
                "tempo": 120.0
            },
            {
                "start_time": 20.025,
                "end_time": 21.4022727,
                "pitch": 62,
                "velocity": 80,
                "duration": 1.3772727,
                "tempo": 120.0
            },
            {
                "start_time": 21.4022727,
                "end_time": 21.4863636,
                "pitch": 107,
                "velocity": 80,
                "duration": 0.0840909,
                "tempo": 120.0
            },
            {
                "start_time": 21.4863636,
                "end_time": 21.5704545,
                "pitch": 106,
                "velocity": 80,
                "duration": 0.0840909,
                "tempo": 120.0
            },
            {
                "start_time": 21.5704545,
                "end_time": 21.6522727,
                "pitch": 105,
                "velocity": 80,
                "duration": 0.0818182,
                "tempo": 120.0
            },
            {
                "start_time": 21.6522727,
                "end_time": 21.7363636,
                "pitch": 104,
                "velocity": 80,
                "duration": 0.0840909,
                "tempo": 120.0
            },
            {
                "start_time": 21.7386364,
                "end_time": 21.8340909,
                "pitch": 103,
                "velocity": 80,
                "duration": 0.0954545,
                "tempo": 120.0
            },
            {
                "start_time": 21.8340909,
                "end_time": 21.9159091,
                "pitch": 102,
                "velocity": 80,
                "duration": 0.0818182,
                "tempo": 120.0
            },
            {
                "start_time": 21.9159091,
                "end_time": 21.9954545,
                "pitch": 101,
                "velocity": 80,
                "duration": 0.0795455,
                "tempo": 120.0
            },
            {
                "start_time": 21.9977273,
                "end_time": 22.0795455,
                "pitch": 100,
                "velocity": 80,
                "duration": 0.0818182,
                "tempo": 120.0
            },
            {
                "start_time": 22.0795455,
                "end_time": 22.1613636,
                "pitch": 99,
                "velocity": 80,
                "duration": 0.0818182,
                "tempo": 120.0
            },
            {
                "start_time": 22.1613636,
                "end_time": 22.2636364,
                "pitch": 98,
                "velocity": 80,
                "duration": 0.1022727,
                "tempo": 120.0
            },
            {
                "start_time": 22.2636364,
                "end_time": 22.3454545,
                "pitch": 97,
                "velocity": 80,
                "duration": 0.0818182,
                "tempo": 120.0
            },
            {
                "start_time": 22.3454545,
                "end_time": 22.4295455,
                "pitch": 96,
                "velocity": 80,
                "duration": 0.0840909,
                "tempo": 120.0
            },
            {
                "start_time": 22.4295455,
                "end_time": 22.5090909,
                "pitch": 95,
                "velocity": 80,
                "duration": 0.0795455,
                "tempo": 120.0
            },
            {
                "start_time": 22.5090909,
                "end_time": 22.5931818,
                "pitch": 94,
                "velocity": 80,
                "duration": 0.0840909,
                "tempo": 120.0
            },
            {
                "start_time": 22.5931818,
                "end_time": 22.6727273,
                "pitch": 93,
                "velocity": 80,
                "duration": 0.0795455,
                "tempo": 120.0
            },
            {
                "start_time": 22.6727273,
                "end_time": 22.7704545,
                "pitch": 92,
                "velocity": 80,
                "duration": 0.0977273,
                "tempo": 120.0
            },
            {
                "start_time": 22.7704545,
                "end_time": 25.4909091,
                "pitch": 62,
                "velocity": 80,
                "duration": 2.7204545,
                "tempo": 120.0
            },
            {
                "start_time": 25.4909091,
                "end_time": 26.0090909,
                "pitch": 67,
                "velocity": 80,
                "duration": 0.5181818,
                "tempo": 120.0
            },
            {
                "start_time": 26.0090909,
                "end_time": 26.5181818,
                "pitch": 65,
                "velocity": 80,
                "duration": 0.5090909,
                "tempo": 120.0
            },
            {
                "start_time": 26.5181818,
                "end_time": 26.8590909,
                "pitch": 64,
                "velocity": 80,
                "duration": 0.3409091,
                "tempo": 120.0
            },
            {
                "start_time": 26.8590909,
                "end_time": 28.2386364,
                "pitch": 65,
                "velocity": 80,
                "duration": 1.3795455,
                "tempo": 120.0
            },
            {
                "start_time": 28.2386364,
                "end_time": 28.7522727,
                "pitch": 67,
                "velocity": 80,
                "duration": 0.5136364,
                "tempo": 120.0
            },
            {
                "start_time": 28.7522727,
                "end_time": 29.2659091,
                "pitch": 65,
                "velocity": 80,
                "duration": 0.5136364,
                "tempo": 120.0
            },
            {
                "start_time": 29.2659091,
                "end_time": 29.5909091,
                "pitch": 64,
                "velocity": 80,
                "duration": 0.325,
                "tempo": 120.0
            },
            {
                "start_time": 29.5909091,
                "end_time": 30.6181818,
                "pitch": 65,
                "velocity": 80,
                "duration": 1.0272727,
                "tempo": 120.0
            },
            {
                "start_time": 30.6181818,
                "end_time": 30.95,
                "pitch": 67,
                "velocity": 80,
                "duration": 0.3318182,
                "tempo": 120.0
            },
            {
                "start_time": 30.95,
                "end_time": 33.7068182,
                "pitch": 62,
                "velocity": 80,
                "duration": 2.7568182,
                "tempo": 120.0
            }
        ],
        "Oboe": [
            {
                "start_time": 0.0022727,
                "end_time": 2.5704545,
                "pitch": 43,
                "velocity": 51,
                "duration": 2.5681818,
                "tempo": 120.0
            },
            {
                "start_time": 2.5704545,
                "end_time": 2.7636364,
                "pitch": 43,
                "velocity": 51,
                "duration": 0.1931818,
                "tempo": 120.0
            },
            {
                "start_time": 2.7636364,
                "end_time": 2.9590909,
                "pitch": 42,
                "velocity": 51,
                "duration": 0.1954545,
                "tempo": 120.0
            },
            {
                "start_time": 2.9590909,
                "end_time": 5.5954545,
                "pitch": 41,
                "velocity": 51,
                "duration": 2.6363636,
                "tempo": 120.0
            },
            {
                "start_time": 5.5954545,
                "end_time": 5.7840909,
                "pitch": 41,
                "velocity": 51,
                "duration": 0.1886364,
                "tempo": 120.0
            },
            {
                "start_time": 5.7863636,
                "end_time": 5.9590909,
                "pitch": 40,
                "velocity": 51,
                "duration": 0.1727273,
                "tempo": 120.0
            },
            {
                "start_time": 5.9590909,
                "end_time": 8.9522727,
                "pitch": 39,
                "velocity": 51,
                "duration": 2.9931818,
                "tempo": 120.0
            },
            {
                "start_time": 8.9522727,
                "end_time": 10.2727273,
                "pitch": 38,
                "velocity": 51,
                "duration": 1.3204545,
                "tempo": 120.0
            },
            {
                "start_time": 10.2727273,
                "end_time": 10.4590909,
                "pitch": 33,
                "velocity": 51,
                "duration": 0.1863636,
                "tempo": 120.0
            },
            {
                "start_time": 10.4590909,
                "end_time": 11.8295455,
                "pitch": 30,
                "velocity": 51,
                "duration": 1.3704545,
                "tempo": 120.0
            }
        ],
        "Acoustic Guitar (nylon)": [
            {
                "start_time": 44.6204545,
                "end_time": 47.5863636,
                "pitch": 43,
                "velocity": 101,
                "duration": 2.9659091,
                "tempo": 120.0
            },
            {
                "start_time": 47.5886364,
                "end_time": 50.6,
                "pitch": 41,
                "velocity": 101,
                "duration": 3.0113636,
                "tempo": 120.0
            },
            {
                "start_time": 50.6,
                "end_time": 52.0886364,
                "pitch": 39,
                "velocity": 101,
                "duration": 1.4886364,
                "tempo": 120.0
            },
            {
                "start_time": 52.0886364,
                "end_time": 52.9409091,
                "pitch": 41,
                "velocity": 101,
                "duration": 0.8522727,
                "tempo": 120.0
            },
            {
                "start_time": 52.9409091,
                "end_time": 53.9,
                "pitch": 41,
                "velocity": 101,
                "duration": 0.9590909,
                "tempo": 120.0
            },
            {
                "start_time": 53.9,
                "end_time": 59.1363636,
                "pitch": 43,
                "velocity": 101,
                "duration": 5.2363636,
                "tempo": 120.0
            }
        ]
    }
}