{
    "mood": "happy",
    "instruments": {
        "Acoustic Bass": [
            {
                "start_time": 0.0022727,
                "end_time": 0.0840909,
                "pitch": 43,
                "velocity": 51,
                "duration": 0.0818182,
                "tempo": 120.0
            },
            {
                "start_time": 0.1022727,
                "end_time": 0.1840909,
                "pitch": 43,
                "velocity": 51,
                "duration": 0.0818182,
                "tempo": 120.0
            },
            {
                "start_time": 0.3022727,
                "end_time": 0.3863636,
                "pitch": 43,
                "velocity": 51,
                "duration": 0.0840909,
                "tempo": 120.0
            },
            {
                "start_time": 0.5022727,
                "end_time": 0.5840909,
                "pitch": 43,
                "velocity": 51,
                "duration": 0.0818182,
                "tempo": 120.0
            },
            {
                "start_time": 0.6977273,
                "end_time": 0.7795455,
                "pitch": 43,
                "velocity": 51,
                "duration": 0.0818182,
                "tempo": 120.0
            },
            {
                "start_time": 0.7954545,
                "end_time": 0.8818182,
                "pitch": 41,
                "velocity": 51,
                "duration": 0.0863636,
                "tempo": 120.0
            },
            {
                "start_time": 1.0022727,
                "end_time": 1.0863636,
                "pitch": 41,
                "velocity": 51,
                "duration": 0.0840909,
                "tempo": 120.0
            },
            {
                "start_time": 1.2068182,
                "end_time": 1.2886364,
                "pitch": 43,
                "velocity": 51,
                "duration": 0.0818182,
                "tempo": 120.0
            },
            {
                "start_time": 1.4045455,
                "end_time": 1.5840909,
                "pitch": 31,
                "velocity": 51,
                "duration": 0.1795455,
                "tempo": 120.0
            },
            {
                "start_time": 0.7954545,
                "end_time": 1.6,
                "pitch": 0,
                "velocity": 51,
                "duration": 0.8045455,
                "tempo": 120.0
            },
            {
                "start_time": 1.6,
                "end_time": 1.9931818,
                "pitch": 36,
                "velocity": 51,
                "duration": 0.3931818,
                "tempo": 120.0
            },
            {
                "start_time": 2.0113636,
                "end_time": 2.3954545,
                "pitch": 36,
                "velocity": 51,
                "duration": 0.3840909,
                "tempo": 120.0
            },
            {
                "start_time": 2.4113636,
                "end_time": 2.6,
                "pitch": 36,
                "velocity": 51,
                "duration": 0.1886364,
                "tempo": 120.0
            },
            {
                "start_time": 2.6181818,
                "end_time": 3.0022727,
                "pitch": 36,
                "velocity": 51,
                "duration": 0.3840909,
                "tempo": 120.0
            },
            {
                "start_time": 3.0204545,
                "end_time": 3.4,
                "pitch": 36,
                "velocity": 51,
                "duration": 0.3795455,
                "tempo": 120.0
            },
            {
                "start_time": 3.4159091,
                "end_time": 3.6,
                "pitch": 36,
                "velocity": 51,
                "duration": 0.1840909,
                "tempo": 120.0
            },
            {
                "start_time": 3.6159091,
                "end_time": 4.0090909,
                "pitch": 36,
                "velocity": 51,
                "duration": 0.3931818,
                "tempo": 120.0
            },
            {
                "start_time": 4.0272727,
                "end_time": 4.2068182,
                "pitch": 36,
                "velocity": 51,
                "duration": 0.1795455,
                "tempo": 120.0
            },
            {
                "start_time": 4.225,
                "end_time": 4.6090909,
                "pitch": 36,
                "velocity": 51,
                "duration": 0.3840909,
                "tempo": 120.0
            },
            {
                "start_time": 4.625,
                "end_time": 4.8136364,
                "pitch": 36,
                "velocity": 51,
                "duration": 0.1886364,
                "tempo": 120.0
            },
            {
                "start_time": 4.8318182,
                "end_time": 5.2181818,
                "pitch": 36,
                "velocity": 51,
                "duration": 0.3863636,
                "tempo": 120.0
            },
            {
                "start_time": 5.2340909,
                "end_time": 5.6113636,
                "pitch": 36,
                "velocity": 51,
                "duration": 0.3772727,
                "tempo": 120.0
            },
            {
                "start_time": 5.6272727,
                "end_time": 5.8159091,
                "pitch": 36,
                "velocity": 51,
                "duration": 0.1886364,
                "tempo": 120.0
            },
            {
                "start_time": 5.8318182,
                "end_time": 6.2272727,
                "pitch": 36,
                "velocity": 51,
                "duration": 0.3954545,
                "tempo": 120.0
            },
            {
                "start_time": 6.2454545,
                "end_time": 6.6295455,
                "pitch": 36,
                "velocity": 51,
                "duration": 0.3840909,
                "tempo": 120.0
            },
            {
                "start_time": 6.6477273,
                "end_time": 6.8272727,
                "pitch": 36,
                "velocity": 51,
                "duration": 0.1795455,
                "tempo": 120.0
            },
            {
                "start_time": 6.8431818,
                "end_time": 7.2295455,
                "pitch": 36,
                "velocity": 51,
                "duration": 0.3863636,
                "tempo": 120.0
            },
            {
                "start_time": 7.2454545,
                "end_time": 7.4295455,
                "pitch": 36,
                "velocity": 51,
                "duration": 0.1840909,
                "tempo": 120.0
            },
            {
                "start_time": 7.4477273,
                "end_time": 7.8318182,
                "pitch": 36,
                "velocity": 51,
                "duration": 0.3840909,
                "tempo": 120.0
            },
            {
                "start_time": 7.8477273,
                "end_time": 8.0318182,
                "pitch": 36,
                "velocity": 51,
                "duration": 0.1840909,
                "tempo": 120.0
            },
            {
                "start_time": 8.05,
                "end_time": 8.4340909,
                "pitch": 36,
                "velocity": 51,
                "duration": 0.3840909,
                "tempo": 120.0
            },
            {
                "start_time": 8.45,
                "end_time": 8.8363636,
                "pitch": 36,
                "velocity": 51,
                "duration": 0.3863636,
                "tempo": 120.0
            },
            {
                "start_time": 8.8545455,
                "end_time": 9.0409091,
                "pitch": 36,
                "velocity": 51,
                "duration": 0.1863636,
                "tempo": 120.0
            },
            {
                "start_time": 9.0590909,
                "end_time": 9.4454545,
                "pitch": 36,
                "velocity": 51,
                "duration": 0.3863636,
                "tempo": 120.0
            },
            {
                "start_time": 9.4613636,
                "end_time": 9.8409091,
                "pitch": 36,
                "velocity": 51,
                "duration": 0.3795455,
                "tempo": 120.0
            },
            {
                "start_time": 9.8590909,
                "end_time": 10.0409091,
                "pitch": 36,
                "velocity": 51,
                "duration": 0.1818182,
                "tempo": 120.0
            },
            {
                "start_time": 10.0590909,
                "end_time": 10.4522727,
                "pitch": 36,
                "velocity": 51,
                "duration": 0.3931818,
                "tempo": 120.0
            },
            {
                "start_time": 10.4704545,
                "end_time": 10.65,
                "pitch": 36,
                "velocity": 51,
                "duration": 0.1795455,
                "tempo": 120.0
            },
            {
                "start_time": 10.6659091,
                "end_time": 11.05,
                "pitch": 36,
                "velocity": 51,
                "duration": 0.3840909,
                "tempo": 120.0
            },
            {
                "start_time": 11.0681818,
                "end_time": 11.2568182,
                "pitch": 36,
                "velocity": 51,
                "duration": 0.1886364,
                "tempo": 120.0
            },
            {
                "start_time": 11.2727273,
                "end_time": 11.6590909,
                "pitch": 36,
                "velocity": 51,
                "duration": 0.3863636,
                "tempo": 120.0
            },
            {
                "start_time": 11.6772727,
                "end_time": 12.0636364,
                "pitch": 36,
                "velocity": 51,
                "duration": 0.3863636,
                "tempo": 120.0
            },
            {
                "start_time": 12.0795455,
                "end_time": 12.2636364,
                "pitch": 36,
                "velocity": 51,
                "duration": 0.1840909,
                "tempo": 120.0
            },
            {
                "start_time": 12.2795455,
                "end_time": 12.6659091,
                "pitch": 36,
                "velocity": 51,
                "duration": 0.3863636,
                "tempo": 120.0
            },
            {
                "start_time": 12.6818182,
                "end_time": 13.0681818,
                "pitch": 36,
                "velocity": 51,
                "duration": 0.3863636,
                "tempo": 120.0
            },
            {
                "start_time": 13.0863636,
                "end_time": 13.2704545,
                "pitch": 36,
                "velocity": 51,
                "duration": 0.1840909,
                "tempo": 120.0
            },
            {
                "start_time": 13.2863636,
                "end_time": 13.6727273,
                "pitch": 36,
                "velocity": 51,
                "duration": 0.3863636,
                "tempo": 120.0
            },
            {
                "start_time": 13.6909091,
                "end_time": 13.875,
                "pitch": 36,
                "velocity": 51,
                "duration": 0.1840909,
                "tempo": 120.0
            },
            {
                "start_time": 13.8909091,
                "end_time": 14.2727273,
                "pitch": 36,
                "velocity": 51,
                "duration": 0.3818182,
                "tempo": 120.0
            },
            {
                "start_time": 14.2909091,
                "end_time": 14.4704545,
                "pitch": 36,
                "velocity": 51,
                "duration": 0.1795455,
                "tempo": 120.0
            },
            {
                "start_time": 14.4863636,
                "end_time": 14.675,
                "pitch": 36,
                "velocity": 51,
                "duration": 0.1886364,
                "tempo": 120.0
            },
            {
                "start_time": 14.6909091,
                "end_time": 14.8795455,
                "pitch": 36,
                "velocity": 51,
                "duration": 0.1886364,
                "tempo": 120.0
            },
            {
                "start_time": 14.8977273,
                "end_time": 15.0818182,
                "pitch": 36,
                "velocity": 51,
                "duration": 0.1840909,
                "tempo": 120.0
            },
            {
                "start_time": 15.1,
                "end_time": 15.2840909,
                "pitch": 36,
                "velocity": 51,
                "duration": 0.1840909,
                "tempo": 120.0
            },
            {
                "start_time": 15.3,
                "end_time": 15.4840909,
                "pitch": 36,
                "velocity": 51,
                "duration": 0.1840909,
                "tempo": 120.0
            },
            {
                "start_time": 15.5022727,
                "end_time": 15.6863636,
                "pitch": 36,
                "velocity": 51,
                "duration": 0.1840909,
                "tempo": 120.0
            },
            {
                "start_time": 15.7045455,
                "end_time": 15.8886364,
                "pitch": 36,
                "velocity": 51,
                "duration": 0.1840909,
                "tempo": 120.0
            },
            {
                "start_time": 15.9045455,
                "end_time": 15.9886364,
                "pitch": 36,
                "velocity": 51,
                "duration": 0.0840909,
                "tempo": 120.0
            },
            {
                "start_time": 16.0068182,
                "end_time": 16.0909091,
                "pitch": 36,
                "velocity": 51,
                "duration": 0.0840909,
                "tempo": 120.0
            },
            {
                "start_time": 16.1068182,
                "end_time": 16.2909091,
                "pitch": 34,
                "velocity": 51,
                "duration": 0.1840909,
                "tempo": 120.0
            },
            {
                "start_time": 16.3090909,
                "end_time": 16.4931818,
                "pitch": 34,
                "velocity": 51,
                "duration": 0.1840909,
                "tempo": 120.0
            },
            {
                "start_time": 16.5113636,
                "end_time": 16.6931818,
                "pitch": 34,
                "velocity": 51,
                "duration": 0.1818182,
                "tempo": 120.0
            },
            {
                "start_time": 16.7113636,
                "end_time": 16.8931818,
                "pitch": 34,
                "velocity": 51,
                "duration": 0.1818182,
                "tempo": 120.0
            },
            {
                "start_time": 16.9113636,
                "end_time": 17.0931818,
                "pitch": 34,
                "velocity": 51,
                "duration": 0.1818182,
                "tempo": 120.0
            },
            {
                "start_time": 17.1113636,
                "end_time": 17.2954545,
                "pitch": 34,
                "velocity": 51,
                "duration": 0.1840909,
                "tempo": 120.0
            },
            {
                "start_time": 17.3113636,
                "end_time": 17.4954545,
                "pitch": 34,
                "velocity": 51,
                "duration": 0.1840909,
                "tempo": 120.0
            },
            {
                "start_time": 17.5136364,
                "end_time": 17.5977273,
                "pitch": 34,
                "velocity": 51,
                "duration": 0.0840909,
                "tempo": 120.0
            },
            {
                "start_time": 17.6136364,
                "end_time": 17.6977273,
                "pitch": 34,
                "velocity": 51,
                "duration": 0.0840909,
                "tempo": 120.0
            },
            {
                "start_time": 17.7136364,
                "end_time": 17.9022727,
                "pitch": 34,
                "velocity": 51,
                "duration": 0.1886364,
                "tempo": 120.0
            },
            {
                "start_time": 17.9204545,
                "end_time": 18.1090909,
                "pitch": 33,
                "velocity": 51,
                "duration": 0.1886364,
                "tempo": 120.0
            },
            {
                "start_time": 18.125,
                "end_time": 18.3068182,
                "pitch": 33,
                "velocity": 51,
                "duration": 0.1818182,
                "tempo": 120.0
            },
            {
                "start_time": 18.3227273,
                "end_time": 18.5022727,
                "pitch": 33,
                "velocity": 51,
                "duration": 0.1795455,
                "tempo": 120.0
            },
            {
                "start_time": 18.5181818,
                "end_time": 18.7022727,
                "pitch": 33,
                "velocity": 51,
                "duration": 0.1840909,
                "tempo": 120.0
            },
            {
                "start_time": 18.7181818,
                "end_time": 18.9022727,
                "pitch": 33,
                "velocity": 51,
                "duration": 0.1840909,
                "tempo": 120.0
            },
            {
                "start_time": 18.9204545,
                "end_time": 19.1022727,
                "pitch": 33,
                "velocity": 51,
                "duration": 0.1818182,
                "tempo": 120.0
            },
            {
                "start_time": 19.1204545,
                "end_time": 19.2022727,
                "pitch": 33,
                "velocity": 51,
                "duration": 0.0818182,
                "tempo": 120.0
            },
            {
                "start_time": 19.2204545,
                "end_time": 19.3022727,
                "pitch": 33,
                "velocity": 51,
                "duration": 0.0818182,
                "tempo": 120.0
            },
            {
                "start_time": 19.525,
                "end_time": 19.7136364,
                "pitch": 29,
                "velocity": 51,
                "duration": 0.1886364,
                "tempo": 120.0
            },
            {
                "start_time": 19.7318182,
                "end_time": 19.9113636,
                "pitch": 29,
                "velocity": 51,
                "duration": 0.1795455,
                "tempo": 120.0
            },
            {
                "start_time": 19.9272727,
                "end_time": 20.1068182,
                "pitch": 29,
                "velocity": 51,
                "duration": 0.1795455,
                "tempo": 120.0
            },
            {
                "start_time": 20.125,
                "end_time": 20.3113636,
                "pitch": 29,
                "velocity": 51,
                "duration": 0.1863636,
                "tempo": 120.0
            },
            {
                "start_time": 20.3295455,
                "end_time": 20.5181818,
                "pitch": 29,
                "velocity": 51,
                "duration": 0.1886364,
                "tempo": 120.0
            },
            {
                "start_time": 20.5340909,
                "end_time": 20.7204545,
                "pitch": 29,
                "velocity": 51,
                "duration": 0.1863636,
                "tempo": 120.0
            },
            {
                "start_time": 20.7363636,
                "end_time": 20.8204545,
                "pitch": 29,
                "velocity": 51,
                "duration": 0.0840909,
                "tempo": 120.0
            },
            {
                "start_time": 20.8363636,
                "end_time": 20.9204545,
                "pitch": 29,
                "velocity": 51,
                "duration": 0.0840909,
                "tempo": 120.0
            },
            {
                "start_time": 20.9386364,
                "end_time": 21.1227273,
                "pitch": 38,
                "velocity": 51,
                "duration": 0.1840909,
                "tempo": 120.0
            },
            {
                "start_time": 21.1386364,
                "end_time": 21.3227273,
                "pitch": 38,
                "velocity": 51,
                "duration": 0.1840909,
                "tempo": 120.0
            },
            {
                "start_time": 21.3386364,
                "end_time": 21.5181818,
                "pitch": 38,
                "velocity": 51,
                "duration": 0.1795455,
                "tempo": 120.0
            },
            {
                "start_time": 21.5363636,
                "end_time": 21.7159091,
                "pitch": 38,
                "velocity": 51,
                "duration": 0.1795455,
                "tempo": 120.0
            },
            {
                "start_time": 21.7318182,
                "end_time": 21.9204545,
                "pitch": 38,
                "velocity": 51,
                "duration": 0.1886364,
                "tempo": 120.0
            },
            {
                "start_time": 21.9363636,
                "end_time": 22.125,
                "pitch": 38,
                "velocity": 51,
                "duration": 0.1886364,
                "tempo": 120.0
            },
            {
                "start_time": 22.1431818,
                "end_time": 22.3272727,
                "pitch": 38,
                "velocity": 51,
                "duration": 0.1840909,
                "tempo": 120.0
            },
            {
                "start_time": 22.3431818,
                "end_time": 22.4272727,
                "pitch": 38,
                "velocity": 51,
                "duration": 0.0840909,
                "tempo": 120.0
            },
            {
                "start_time": 22.4431818,
                "end_time": 22.5272727,
                "pitch": 38,
                "velocity": 51,
                "duration": 0.0840909,
                "tempo": 120.0
            },
            {
                "start_time": 16.1068182,
                "end_time": 22.7272727,
                "pitch": 40,
                "velocity": 51,
                "duration": 6.6204545,
                "tempo": 120.0
            },
            {
                "start_time": 22.5431818,
                "end_time": 22.7272727,
                "pitch": 40,
                "velocity": 51,
                "duration": 0.1840909,
                "tempo": 120.0
            },
            {
                "start_time": 22.7454545,
                "end_time": 22.9295455,
                "pitch": 40,
                "velocity": 51,
                "duration": 0.1840909,
                "tempo": 120.0
            },
            {
                "start_time": 22.9477273,
                "end_time": 23.1295455,
                "pitch": 40,
                "velocity": 51,
                "duration": 0.1818182,
                "tempo": 120.0
            },
            {
                "start_time": 23.1477273,
                "end_time": 23.3295455,
                "pitch": 40,
                "velocity": 51,
                "duration": 0.1818182,
                "tempo": 120.0
            },
            {
                "start_time": 23.3477273,
                "end_time": 23.5295455,
                "pitch": 40,
                "velocity": 51,
                "duration": 0.1818182,
                "tempo": 120.0
            },
            {
                "start_time": 23.5477273,
                "end_time": 23.7318182,
                "pitch": 40,
                "velocity": 51,
                "duration": 0.1840909,
                "tempo": 120.0
            },
            {
                "start_time": 23.7477273,
                "end_time": 23.9318182,
                "pitch": 40,
                "velocity": 51,
                "duration": 0.1840909,
                "tempo": 120.0
            },
            {
                "start_time": 23.95,
                "end_time": 24.0340909,
                "pitch": 40,
                "velocity": 51,
                "duration": 0.0840909,
                "tempo": 120.0
            },
            {
                "start_time": 24.05,
                "end_time": 24.1340909,
                "pitch": 40,
                "velocity": 51,
                "duration": 0.0840909,
                "tempo": 120.0
            },
            {
                "start_time": 24.15,
                "end_time": 24.3340909,
                "pitch": 40,
                "velocity": 51,
                "duration": 0.1840909,
                "tempo": 120.0
            },
            {
                "start_time": 20.9386364,
                "end_time": 24.5340909,
                "pitch": 41,
                "velocity": 51,
                "duration": 3.5954545,
                "tempo": 120.0
            },
            {
                "start_time": 24.3522727,
                "end_time": 24.5340909,
                "pitch": 41,
                "velocity": 51,
                "duration": 0.1818182,
                "tempo": 120.0
            },
            {
                "start_time": 24.5522727,
                "end_time": 24.7363636,
                "pitch": 41,
                "velocity": 51,
                "duration": 0.1840909,
                "tempo": 120.0
            },
            {
                "start_time": 24.7522727,
                "end_time": 24.9386364,
                "pitch": 41,
                "velocity": 51,
                "duration": 0.1863636,
                "tempo": 120.0
            },
            {
                "start_time": 24.9545455,
                "end_time": 25.1386364,
                "pitch": 41,
                "velocity": 51,
                "duration": 0.1840909,
                "tempo": 120.0
            },
            {
                "start_time": 25.1545455,
                "end_time": 25.3386364,
                "pitch": 41,
                "velocity": 51,
                "duration": 0.1840909,
                "tempo": 120.0
            },
            {
                "start_time": 25.3545455,
                "end_time": 25.5386364,
                "pitch": 41,
                "velocity": 51,
                "duration": 0.1840909,
                "tempo": 120.0
            },
            {
                "start_time": 25.5545455,
                "end_time": 25.6386364,
                "pitch": 41,
                "velocity": 51,
                "duration": 0.0840909,
                "tempo": 120.0
            },
            {
                "start_time": 25.6545455,
                "end_time": 25.7386364,
                "pitch": 41,
                "velocity": 51,
                "duration": 0.0840909,
                "tempo": 120.0
            },
            {
                "start_time": 25.7568182,
                "end_time": 25.9409091,
                "pitch": 31,
                "velocity": 51,
                "duration": 0.1840909,
                "tempo": 120.0
            },
            {
                "start_time": 25.9568182,
                "end_time": 26.0409091,
                "pitch": 31,
                "velocity": 51,
                "duration": 0.0840909,
                "tempo": 120.0
            },
            {
                "start_time": 26.0590909,
                "end_time": 26.1409091,
                "pitch": 31,
                "velocity": 51,
                "duration": 0.0818182,
                "tempo": 120.0
            },
            {
                "start_time": 26.1590909,
                "end_time": 26.3431818,
                "pitch": 31,
                "velocity": 51,
                "duration": 0.1840909,
                "tempo": 120.0
            },
            {
                "start_time": 26.3590909,
                "end_time": 26.4431818,
                "pitch": 33,
                "velocity": 51,
                "duration": 0.0840909,
                "tempo": 120.0
            },
            {
                "start_time": 26.4590909,
                "end_time": 26.5431818,
                "pitch": 33,
                "velocity": 51,
                "duration": 0.0840909,
                "tempo": 120.0
            },
            {
                "start_time": 26.5590909,
                "end_time": 26.7477273,
                "pitch": 35,
                "velocity": 51,
                "duration": 0.1886364,
                "tempo": 120.0
            },
            {
                "start_time": 26.7659091,
                "end_time": 26.85,
                "pitch": 35,
                "velocity": 51,
                "duration": 0.0840909,
                "tempo": 120.0
            },
            {
                "start_time": 26.8681818,
                "end_time": 26.9522727,
                "pitch": 35,
                "velocity": 51,
                "duration": 0.0840909,
                "tempo": 120.0
            },
            {
                "start_time": 22.5431818,
                "end_time": 27.1545455,
                "pitch": 38,
                "velocity": 51,
                "duration": 4.6113636,
                "tempo": 120.0
            },
            {
                "start_time": 26.9704545,
                "end_time": 27.1545455,
                "pitch": 38,
                "velocity": 51,
                "duration": 0.1840909,
                "tempo": 120.0
            },
            {
                "start_time": 27.1727273,
                "end_time": 27.2568182,
                "pitch": 38,
                "velocity": 51,
                "duration": 0.0840909,
                "tempo": 120.0
            },
            {
                "start_time": 27.2727273,
                "end_time": 27.3568182,
                "pitch": 38,
                "velocity": 51,
                "duration": 0.0840909,
                "tempo": 120.0
            },
            {
                "start_time": 27.375,
                "end_time": 27.5568182,
                "pitch": 36,
                "velocity": 51,
                "duration": 0.1818182,
                "tempo": 120.0
            },
            {
                "start_time": 27.575,
                "end_time": 27.7568182,
                "pitch": 36,
                "velocity": 51,
                "duration": 0.1818182,
                "tempo": 120.0
            },
            {
                "start_time": 27.775,
                "end_time": 27.9545455,
                "pitch": 36,
                "velocity": 51,
                "duration": 0.1795455,
                "tempo": 120.0
            },
            {
                "start_time": 27.9704545,
                "end_time": 28.15,
                "pitch": 36,
                "velocity": 51,
                "duration": 0.1795455,
                "tempo": 120.0
            },
            {
                "start_time": 28.1681818,
                "end_time": 28.3545455,
                "pitch": 36,
                "velocity": 51,
                "duration": 0.1863636,
                "tempo": 120.0
            },
            {
                "start_time": 28.3727273,
                "end_time": 28.5613636,
                "pitch": 36,
                "velocity": 51,
                "duration": 0.1886364,
                "tempo": 120.0
            },
            {
                "start_time": 28.5795455,
                "end_time": 28.7613636,
                "pitch": 36,
                "velocity": 51,
                "duration": 0.1818182,
                "tempo": 120.0
            },
            {
                "start_time": 28.7795455,
                "end_time": 28.8613636,
                "pitch": 36,
                "velocity": 51,
                "duration": 0.0818182,
                "tempo": 120.0
            },
            {
                "start_time": 28.8795455,
                "end_time": 28.9613636,
                "pitch": 36,
                "velocity": 51,
                "duration": 0.0818182,
                "tempo": 120.0
            },
            {
                "start_time": 28.9795455,
                "end_time": 29.1636364,
                "pitch": 34,
                "velocity": 51,
                "duration": 0.1840909,
                "tempo": 120.0
            },
            {
                "start_time": 29.1818182,
                "end_time": 29.3659091,
                "pitch": 34,
                "velocity": 51,
                "duration": 0.1840909,
                "tempo": 120.0
            },
            {
                "start_time": 29.3818182,
                "end_time": 29.5659091,
                "pitch": 34,
                "velocity": 51,
                "duration": 0.1840909,
                "tempo": 120.0
            },
            {
                "start_time": 29.5840909,
                "end_time": 29.7659091,
                "pitch": 34,
                "velocity": 51,
                "duration": 0.1818182,
                "tempo": 120.0
            },
            {
                "start_time": 29.7840909,
                "end_time": 29.9659091,
                "pitch": 34,
                "velocity": 51,
                "duration": 0.1818182,
                "tempo": 120.0
            },
            {
                "start_time": 29.9840909,
                "end_time": 30.1659091,
                "pitch": 34,
                "velocity": 51,
                "duration": 0.1818182,
                "tempo": 120.0
            },
            {
                "start_time": 30.1840909,
                "end_time": 30.3681818,
                "pitch": 34,
                "velocity": 51,
                "duration": 0.1840909,
                "tempo": 120.0
            },
            {
                "start_time": 30.3863636,
                "end_time": 30.4681818,
                "pitch": 34,
                "velocity": 51,
                "duration": 0.0818182,
                "tempo": 120.0
            },
            {
                "start_time": 30.4863636,
                "end_time": 30.5704545,
                "pitch": 34,
                "velocity": 51,
                "duration": 0.0840909,
                "tempo": 120.0
            },
            {
                "start_time": 30.5863636,
                "end_time": 30.7704545,
                "pitch": 34,
                "velocity": 51,
                "duration": 0.1840909,
                "tempo": 120.0
            },
            {
                "start_time": 26.5590909,
                "end_time": 30.9704545,
                "pitch": 33,
                "velocity": 51,
                "duration": 4.4113636,
                "tempo": 120.0
            },
            {
                "start_time": 30.7863636,
                "end_time": 30.9704545,
                "pitch": 33,
                "velocity": 51,
                "duration": 0.1840909,
                "tempo": 120.0
            },
            {
                "start_time": 30.9886364,
                "end_time": 31.1727273,
                "pitch": 33,
                "velocity": 51,
                "duration": 0.1840909,
                "tempo": 120.0
            },
            {
                "start_time": 31.1886364,
                "end_time": 31.3727273,
                "pitch": 33,
                "velocity": 51,
                "duration": 0.1840909,
                "tempo": 120.0
            },
            {
                "start_time": 31.3909091,
                "end_time": 31.575,
                "pitch": 33,
                "velocity": 51,
                "duration": 0.1840909,
                "tempo": 120.0
            },
            {
                "start_time": 31.5909091,
                "end_time": 31.775,
                "pitch": 33,
                "velocity": 51,
                "duration": 0.1840909,
                "tempo": 120.0
            },
            {
                "start_time": 31.7909091,
                "end_time": 31.975,
                "pitch": 33,
                "velocity": 51,
                "duration": 0.1840909,
                "tempo": 120.0
            },
            {
                "start_time": 31.9909091,
                "end_time": 32.075,
                "pitch": 33,
                "velocity": 51,
                "duration": 0.0840909,
                "tempo": 120.0
            },
            {
                "start_time": 32.0909091,
                "end_time": 32.175,
                "pitch": 33,
                "velocity": 51,
                "duration": 0.0840909,
                "tempo": 120.0
            },
            {
                "start_time": 32.3931818,
                "end_time": 32.575,
                "pitch": 29,
                "velocity": 51,
                "duration": 0.1818182,
                "tempo": 120.0
            },
            {
                "start_time": 32.5931818,
                "end_time": 32.7772727,
                "pitch": 29,
                "velocity": 51,
                "duration": 0.1840909,
                "tempo": 120.0
            },
            {
                "start_time": 32.7931818,
                "end_time": 32.9795455,
                "pitch": 29,
                "velocity": 51,
                "duration": 0.1863636,
                "tempo": 120.0
            },
            {
                "start_time": 32.9954545,
                "end_time": 33.1795455,
                "pitch": 29,
                "velocity": 51,
                "duration": 0.1840909,
                "tempo": 120.0
            },
            {
                "start_time": 33.1954545,
                "end_time": 33.3795455,
                "pitch": 29,
                "velocity": 51,
                "duration": 0.1840909,
                "tempo": 120.0
            },
            {
                "start_time": 33.3954545,
                "end_time": 33.5795455,
                "pitch": 29,
                "velocity": 51,
                "duration": 0.1840909,
                "tempo": 120.0
            },
            {
                "start_time": 33.5954545,
                "end_time": 33.6795455,
                "pitch": 29,
                "velocity": 51,
                "duration": 0.0840909,
                "tempo": 120.0
            },
            {
                "start_time": 33.6954545,
                "end_time": 33.7795455,
                "pitch": 29,
                "velocity": 51,
                "duration": 0.0840909,
                "tempo": 120.0
            },
            {
                "start_time": 27.375,
                "end_time": 33.9840909,
                "pitch": 38,
                "velocity": 51,
                "duration": 6.6090909,
                "tempo": 120.0
            },
            {
                "start_time": 33.7977273,
                "end_time": 33.9840909,
                "pitch": 38,
                "velocity": 51,
                "duration": 0.1863636,
                "tempo": 120.0
            },
            {
                "start_time": 34.0022727,
                "end_time": 34.1909091,
                "pitch": 38,
                "velocity": 51,
                "duration": 0.1886364,
                "tempo": 120.0
            },
            {
                "start_time": 34.2068182,
                "end_time": 34.3886364,
                "pitch": 38,
                "velocity": 51,
                "duration": 0.1818182,
                "tempo": 120.0
            },
            {
                "start_time": 34.4045455,
                "end_time": 34.5840909,
                "pitch": 38,
                "velocity": 51,
                "duration": 0.1795455,
                "tempo": 120.0
            },
            {
                "start_time": 34.6,
                "end_time": 34.7886364,
                "pitch": 38,
                "velocity": 51,
                "duration": 0.1886364,
                "tempo": 120.0
            },
            {
                "start_time": 34.8068182,
                "end_time": 34.9931818,
                "pitch": 38,
                "velocity": 51,
                "duration": 0.1863636,
                "tempo": 120.0
            },
            {
                "start_time": 35.0113636,
                "end_time": 35.1909091,
                "pitch": 38,
                "velocity": 51,
                "duration": 0.1795455,
                "tempo": 120.0
            },
            {
                "start_time": 35.2090909,
                "end_time": 35.2886364,
                "pitch": 38,
                "velocity": 51,
                "duration": 0.0795455,
                "tempo": 120.0
            },
            {
                "start_time": 35.3068182,
                "end_time": 35.3886364,
                "pitch": 38,
                "velocity": 51,
                "duration": 0.0818182,
                "tempo": 120.0
            },
            {
                "start_time": 33.7977273,
                "end_time": 35.4045455,
                "pitch": 41,
                "velocity": 51,
                "duration": 1.6068182,
                "tempo": 120.0
            },
            {
                "start_time": 35.4045455,
                "end_time": 35.5931818,
                "pitch": 31,
                "velocity": 51,
                "duration": 0.1886364,
                "tempo": 120.0
            },
            {
                "start_time": 35.6090909,
                "end_time": 35.7977273,
                "pitch": 31,
                "velocity": 51,
                "duration": 0.1886364,
                "tempo": 120.0
            },
            {
                "start_time": 35.8159091,
                "end_time": 35.9954545,
                "pitch": 31,
                "velocity": 51,
                "duration": 0.1795455,
                "tempo": 120.0
            },
            {
                "start_time": 36.0113636,
                "end_time": 36.1909091,
                "pitch": 31,
                "velocity": 51,
                "duration": 0.1795455,
                "tempo": 120.0
            },
            {
                "start_time": 36.2090909,
                "end_time": 36.3909091,
                "pitch": 31,
                "velocity": 51,
                "duration": 0.1818182,
                "tempo": 120.0
            },
            {
                "start_time": 36.4090909,
                "end_time": 36.5909091,
                "pitch": 31,
                "velocity": 51,
                "duration": 0.1818182,
                "tempo": 120.0
            },
            {
                "start_time": 36.6090909,
                "end_time": 36.7977273,
                "pitch": 31,
                "velocity": 51,
                "duration": 0.1886364,
                "tempo": 120.0
            },
            {
                "start_time": 36.8136364,
                "end_time": 36.9,
                "pitch": 31,
                "velocity": 51,
                "duration": 0.0863636,
                "tempo": 120.0
            },
            {
                "start_time": 36.9159091,
                "end_time": 37.0022727,
                "pitch": 31,
                "velocity": 51,
                "duration": 0.0863636,
                "tempo": 120.0
            },
            {
                "start_time": 1.6,
                "end_time": 37.0204545,
                "pitch": 0,
                "velocity": 51,
                "duration": 35.4204545,
                "tempo": 120.0
            },
            {
                "start_time": 37.0204545,
                "end_time": 37.2045455,
                "pitch": 36,
                "velocity": 51,
                "duration": 0.1840909,
                "tempo": 120.0
            },
            {
                "start_time": 37.2204545,
                "end_time": 37.3045455,
                "pitch": 36,
                "velocity": 51,
                "duration": 0.0840909,
                "tempo": 120.0
            },
            {
                "start_time": 37.3204545,
                "end_time": 37.4045455,
                "pitch": 36,
                "velocity": 51,
                "duration": 0.0840909,
                "tempo": 120.0
            },
            {
                "start_time": 37.4204545,
                "end_time": 37.6045455,
                "pitch": 38,
                "velocity": 51,
                "duration": 0.1840909,
                "tempo": 120.0
            },
            {
                "start_time": 37.6204545,
                "end_time": 37.7045455,
                "pitch": 38,
                "velocity": 51,
                "duration": 0.0840909,
                "tempo": 120.0
            },
            {
                "start_time": 37.7204545,
                "end_time": 37.8045455,
                "pitch": 38,
                "velocity": 51,
                "duration": 0.0840909,
                "tempo": 120.0
            },
            {
                "start_time": 28.9795455,
                "end_time": 38.0045455,
                "pitch": 40,
                "velocity": 51,
                "duration": 9.025,
                "tempo": 120.0
            },
            {
                "start_time": 37.8204545,
                "end_time": 38.0045455,
                "pitch": 40,
                "velocity": 51,
                "duration": 0.1840909,
                "tempo": 120.0
            },
            {
                "start_time": 38.0204545,
                "end_time": 38.1045455,
                "pitch": 40,
                "velocity": 51,
                "duration": 0.0840909,
                "tempo": 120.0
            },
            {
                "start_time": 38.1227273,
                "end_time": 38.2045455,
                "pitch": 40,
                "velocity": 51,
                "duration": 0.0818182,
                "tempo": 120.0
            },
            {
                "start_time": 37.4204545,
                "end_time": 38.4068182,
                "pitch": 36,
                "velocity": 51,
                "duration": 0.9863636,
                "tempo": 120.0
            },
            {
                "start_time": 38.2227273,
                "end_time": 38.4068182,
                "pitch": 36,
                "velocity": 51,
                "duration": 0.1840909,
                "tempo": 120.0
            },
            {
                "start_time": 38.4227273,
                "end_time": 38.5068182,
                "pitch": 36,
                "velocity": 51,
                "duration": 0.0840909,
                "tempo": 120.0
            },
            {
                "start_time": 38.525,
                "end_time": 38.6068182,
                "pitch": 36,
                "velocity": 51,
                "duration": 0.0818182,
                "tempo": 120.0
            },
            {
                "start_time": 38.625,
                "end_time": 38.7090909,
                "pitch": 36,
                "velocity": 51,
                "duration": 0.0840909,
                "tempo": 120.0
            },
            {
                "start_time": 38.725,
                "end_time": 38.8090909,
                "pitch": 48,
                "velocity": 51,
                "duration": 0.0840909,
                "tempo": 120.0
            },
            {
                "start_time": 38.825,
                "end_time": 38.9090909,
                "pitch": 48,
                "velocity": 51,
                "duration": 0.0840909,
                "tempo": 120.0
            },
            {
                "start_time": 38.925,
                "end_time": 39.0090909,
                "pitch": 48,
                "velocity": 51,
                "duration": 0.0840909,
                "tempo": 120.0
            },
            {
                "start_time": 38.2227273,
                "end_time": 39.025,
                "pitch": 40,
                "velocity": 51,
                "duration": 0.8022727,
                "tempo": 120.0
            },
            {
                "start_time": 39.025,
                "end_time": 39.1090909,
                "pitch": 31,
                "velocity": 51,
                "duration": 0.0840909,
                "tempo": 120.0
            },
            {
                "start_time": 39.125,
                "end_time": 39.2090909,
                "pitch": 43,
                "velocity": 51,
                "duration": 0.0840909,
                "tempo": 120.0
            },
            {
                "start_time": 39.225,
                "end_time": 39.3090909,
                "pitch": 43,
                "velocity": 51,
                "duration": 0.0840909,
                "tempo": 120.0
            },
            {
                "start_time": 39.325,
                "end_time": 39.4090909,
                "pitch": 43,
                "velocity": 51,
                "duration": 0.0840909,
                "tempo": 120.0
            },
            {
                "start_time": 37.0204545,
                "end_time": 39.425,
                "pitch": 0,
                "velocity": 51,
                "duration": 2.4045455,
                "tempo": 120.0
            },
            {
                "start_time": 39.425,
                "end_time": 39.5090909,
                "pitch": 28,
                "velocity": 51,
                "duration": 0.0840909,
                "tempo": 120.0
            },
            {
                "start_time": 39.025,
                "end_time": 39.6090909,
                "pitch": 40,
                "velocity": 51,
                "duration": 0.5840909,
                "tempo": 120.0
            },
            {
                "start_time": 39.5272727,
                "end_time": 39.6090909,
                "pitch": 40,
                "velocity": 51,
                "duration": 0.0818182,
                "tempo": 120.0
            },
            {
                "start_time": 39.6272727,
                "end_time": 39.7090909,
                "pitch": 40,
                "velocity": 51,
                "duration": 0.0818182,
                "tempo": 120.0
            },
            {
                "start_time": 39.7272727,
                "end_time": 39.8090909,
                "pitch": 40,
                "velocity": 51,
                "duration": 0.0818182,
                "tempo": 120.0
            },
            {
                "start_time": 1.2068182,
                "end_time": 39.8272727,
                "pitch": 54,
                "velocity": 51,
                "duration": 38.6204545,
                "tempo": 120.0
            },
            {
                "start_time": 39.8272727,
                "end_time": 39.9090909,
                "pitch": 43,
                "velocity": 51,
                "duration": 0.0818182,
                "tempo": 120.0
            },
            {
                "start_time": 39.425,
                "end_time": 39.9272727,
                "pitch": 0,
                "velocity": 51,
                "duration": 0.5022727,
                "tempo": 120.0
            },
            {
                "start_time": 39.9272727,
                "end_time": 40.0090909,
                "pitch": 36,
                "velocity": 51,
                "duration": 0.0818182,
                "tempo": 120.0
            },
            {
                "start_time": 40.0272727,
                "end_time": 40.1090909,
                "pitch": 36,
                "velocity": 51,
                "duration": 0.0818182,
                "tempo": 120.0
            },
            {
                "start_time": 40.1272727,
                "end_time": 40.2090909,
                "pitch": 36,
                "velocity": 51,
                "duration": 0.0818182,
                "tempo": 120.0
            },
            {
                "start_time": 40.2272727,
                "end_time": 40.4159091,
                "pitch": 36,
                "velocity": 51,
                "duration": 0.1886364,
                "tempo": 120.0
            },
            {
                "start_time": 40.4318182,
                "end_time": 40.6204545,
                "pitch": 36,
                "velocity": 51,
                "duration": 0.1886364,
                "tempo": 120.0
            },
            {
                "start_time": 40.6386364,
                "end_time": 40.8181818,
                "pitch": 36,
                "velocity": 51,
                "duration": 0.1795455,
                "tempo": 120.0
            },
            {
                "start_time": 40.8340909,
                "end_time": 41.0136364,
                "pitch": 36,
                "velocity": 51,
                "duration": 0.1795455,
                "tempo": 120.0
            },
            {
                "start_time": 41.0318182,
                "end_time": 41.2136364,
                "pitch": 36,
                "velocity": 51,
                "duration": 0.1818182,
                "tempo": 120.0
            },
            {
                "start_time": 41.2318182,
                "end_time": 41.4136364,
                "pitch": 36,
                "velocity": 51,
                "duration": 0.1818182,
                "tempo": 120.0
            },
            {
                "start_time": 41.4318182,
                "end_time": 41.6204545,
                "pitch": 36,
                "velocity": 51,
                "duration": 0.1886364,
                "tempo": 120.0
            },
            {
                "start_time": 41.6363636,
                "end_time": 41.7227273,
                "pitch": 36,
                "velocity": 51,
                "duration": 0.0863636,
                "tempo": 120.0
            },
            {
                "start_time": 41.7409091,
                "end_time": 41.825,
                "pitch": 36,
                "velocity": 51,
                "duration": 0.0840909,
                "tempo": 120.0
            },
            {
                "start_time": 41.8431818,
                "end_time": 42.0318182,
                "pitch": 34,
                "velocity": 51,
                "duration": 0.1886364,
                "tempo": 120.0
            },
            {
                "start_time": 42.0477273,
                "end_time": 42.2363636,
                "pitch": 34,
                "velocity": 51,
                "duration": 0.1886364,
                "tempo": 120.0
            },
            {
                "start_time": 42.2545455,
                "end_time": 42.4340909,
                "pitch": 34,
                "velocity": 51,
                "duration": 0.1795455,
                "tempo": 120.0
            },
            {
                "start_time": 42.4522727,
                "end_time": 42.6318182,
                "pitch": 34,
                "velocity": 51,
                "duration": 0.1795455,
                "tempo": 120.0
            },
            {
                "start_time": 42.6477273,
                "end_time": 42.8295455,
                "pitch": 34,
                "velocity": 51,
                "duration": 0.1818182,
                "tempo": 120.0
            },
            {
                "start_time": 42.8477273,
                "end_time": 43.0318182,
                "pitch": 34,
                "velocity": 51,
                "duration": 0.1840909,
                "tempo": 120.0
            },
            {
                "start_time": 43.0477273,
                "end_time": 43.2318182,
                "pitch": 34,
                "velocity": 51,
                "duration": 0.1840909,
                "tempo": 120.0
            },
            {
                "start_time": 43.2477273,
                "end_time": 43.3318182,
                "pitch": 34,
                "velocity": 51,
                "duration": 0.0840909,
                "tempo": 120.0
            },
            {
                "start_time": 43.3477273,
                "end_time": 43.4318182,
                "pitch": 34,
                "velocity": 51,
                "duration": 0.0840909,
                "tempo": 120.0
            },
            {
                "start_time": 43.4477273,
                "end_time": 43.6318182,
                "pitch": 34,
                "velocity": 51,
                "duration": 0.1840909,
                "tempo": 120.0
            },
            {
                "start_time": 43.65,
                "end_time": 43.8340909,
                "pitch": 33,
                "velocity": 51,
                "duration": 0.1840909,
                "tempo": 120.0
            },
            {
                "start_time": 43.8522727,
                "end_time": 44.0340909,
                "pitch": 33,
                "velocity": 51,
                "duration": 0.1818182,
                "tempo": 120.0
            },
            {
                "start_time": 44.0522727,
                "end_time": 44.2363636,
                "pitch": 33,
                "velocity": 51,
                "duration": 0.1840909,
                "tempo": 120.0
            },
            {
                "start_time": 44.2522727,
                "end_time": 44.4363636,
                "pitch": 33,
                "velocity": 51,
                "duration": 0.1840909,
                "tempo": 120.0
            },
            {
                "start_time": 44.4522727,
                "end_time": 44.6363636,
                "pitch": 33,
                "velocity": 51,
                "duration": 0.1840909,
                "tempo": 120.0
            },
            {
                "start_time": 44.6522727,
                "end_time": 44.8363636,
                "pitch": 33,
                "velocity": 51,
                "duration": 0.1840909,
                "tempo": 120.0
            },
            {
                "start_time": 44.8522727,
                "end_time": 44.9363636,
                "pitch": 33,
                "velocity": 51,
                "duration": 0.0840909,
                "tempo": 120.0
            },
            {
                "start_time": 44.9522727,
                "end_time": 45.0363636,
                "pitch": 33,
                "velocity": 51,
                "duration": 0.0840909,
                "tempo": 120.0
            },
            {
                "start_time": 45.2545455,
                "end_time": 45.4363636,
                "pitch": 29,
                "velocity": 51,
                "duration": 0.1818182,
                "tempo": 120.0
            },
            {
                "start_time": 45.4545455,
                "end_time": 45.6386364,
                "pitch": 29,
                "velocity": 51,
                "duration": 0.1840909,
                "tempo": 120.0
            },
            {
                "start_time": 45.6545455,
                "end_time": 45.8409091,
                "pitch": 29,
                "velocity": 51,
                "duration": 0.1863636,
                "tempo": 120.0
            },
            {
                "start_time": 45.8568182,
                "end_time": 46.0409091,
                "pitch": 29,
                "velocity": 51,
                "duration": 0.1840909,
                "tempo": 120.0
            },
            {
                "start_time": 46.0568182,
                "end_time": 46.2409091,
                "pitch": 29,
                "velocity": 51,
                "duration": 0.1840909,
                "tempo": 120.0
            },
            {
                "start_time": 46.2568182,
                "end_time": 46.4409091,
                "pitch": 29,
                "velocity": 51,
                "duration": 0.1840909,
                "tempo": 120.0
            },
            {
                "start_time": 46.4590909,
                "end_time": 46.5409091,
                "pitch": 29,
                "velocity": 51,
                "duration": 0.0818182,
                "tempo": 120.0
            },
            {
                "start_time": 46.5590909,
                "end_time": 46.6409091,
                "pitch": 29,
                "velocity": 51,
                "duration": 0.0818182,
                "tempo": 120.0
            },
            {
                "start_time": 35.4045455,
                "end_time": 46.6590909,
                "pitch": 41,
                "velocity": 51,
                "duration": 11.2545455,
                "tempo": 120.0
            },
            {
                "start_time": 37.8204545,
                "end_time": 46.8454545,
                "pitch": 38,
                "velocity": 51,
                "duration": 9.025,
                "tempo": 120.0
            },
            {
                "start_time": 46.6590909,
                "end_time": 46.8454545,
                "pitch": 38,
                "velocity": 51,
                "duration": 0.1863636,
                "tempo": 120.0
            },
            {
                "start_time": 46.8636364,
                "end_time": 47.0522727,
                "pitch": 38,
                "velocity": 51,
                "duration": 0.1886364,
                "tempo": 120.0
            },
            {
                "start_time": 47.0704545,
                "end_time": 47.25,
                "pitch": 38,
                "velocity": 51,
                "duration": 0.1795455,
                "tempo": 120.0
            },
            {
                "start_time": 47.2659091,
                "end_time": 47.4454545,
                "pitch": 38,
                "velocity": 51,
                "duration": 0.1795455,
                "tempo": 120.0
            },
            {
                "start_time": 47.4613636,
                "end_time": 47.6454545,
                "pitch": 38,
                "velocity": 51,
                "duration": 0.1840909,
                "tempo": 120.0
            },
            {
                "start_time": 47.6636364,
                "end_time": 47.8477273,
                "pitch": 38,
                "velocity": 51,
                "duration": 0.1840909,
                "tempo": 120.0
            },
            {
                "start_time": 47.8659091,
                "end_time": 48.0522727,
                "pitch": 38,
                "velocity": 51,
                "duration": 0.1863636,
                "tempo": 120.0
            },
            {
                "start_time": 48.0704545,
                "end_time": 48.1568182,
                "pitch": 38,
                "velocity": 51,
                "duration": 0.0863636,
                "tempo": 120.0
            },
            {
                "start_time": 48.1727273,
                "end_time": 48.2590909,
                "pitch": 38,
                "velocity": 51,
                "duration": 0.0863636,
                "tempo": 120.0
            },
            {
                "start_time": 41.8431818,
                "end_time": 48.4568182,
                "pitch": 40,
                "velocity": 51,
                "duration": 6.6136364,
                "tempo": 120.0
            },
            {
                "start_time": 48.2772727,
                "end_time": 48.4568182,
                "pitch": 40,
                "velocity": 51,
                "duration": 0.1795455,
                "tempo": 120.0
            },
            {
                "start_time": 48.4727273,
                "end_time": 48.6522727,
                "pitch": 40,
                "velocity": 51,
                "duration": 0.1795455,
                "tempo": 120.0
            },
            {
                "start_time": 48.6704545,
                "end_time": 48.8522727,
                "pitch": 40,
                "velocity": 51,
                "duration": 0.1818182,
                "tempo": 120.0
            },
            {
                "start_time": 48.8704545,
                "end_time": 49.0522727,
                "pitch": 40,
                "velocity": 51,
                "duration": 0.1818182,
                "tempo": 120.0
            },
            {
                "start_time": 49.0704545,
                "end_time": 49.2522727,
                "pitch": 40,
                "velocity": 51,
                "duration": 0.1818182,
                "tempo": 120.0
            },
            {
                "start_time": 49.2704545,
                "end_time": 49.4545455,
                "pitch": 40,
                "velocity": 51,
                "duration": 0.1840909,
                "tempo": 120.0
            },
            {
                "start_time": 49.4704545,
                "end_time": 49.6590909,
                "pitch": 40,
                "velocity": 51,
                "duration": 0.1886364,
                "tempo": 120.0
            },
            {
                "start_time": 49.675,
                "end_time": 49.7613636,
                "pitch": 40,
                "velocity": 51,
                "duration": 0.0863636,
                "tempo": 120.0
            },
            {
                "start_time": 49.7795455,
                "end_time": 49.8636364,
                "pitch": 40,
                "velocity": 51,
                "duration": 0.0840909,
                "tempo": 120.0
            },
            {
                "start_time": 49.8818182,
                "end_time": 50.0659091,
                "pitch": 40,
                "velocity": 51,
                "duration": 0.1840909,
                "tempo": 120.0
            },
            {
                "start_time": 46.6590909,
                "end_time": 50.2659091,
                "pitch": 41,
                "velocity": 51,
                "duration": 3.6068182,
                "tempo": 120.0
            },
            {
                "start_time": 50.0818182,
                "end_time": 50.2659091,
                "pitch": 41,
                "velocity": 51,
                "duration": 0.1840909,
                "tempo": 120.0
            },
            {
                "start_time": 50.2818182,
                "end_time": 50.4659091,
                "pitch": 41,
                "velocity": 51,
                "duration": 0.1840909,
                "tempo": 120.0
            },
            {
                "start_time": 50.4818182,
                "end_time": 50.6659091,
                "pitch": 41,
                "velocity": 51,
                "duration": 0.1840909,
                "tempo": 120.0
            },
            {
                "start_time": 50.6840909,
                "end_time": 50.8659091,
                "pitch": 41,
                "velocity": 51,
                "duration": 0.1818182,
                "tempo": 120.0
            },
            {
                "start_time": 50.8840909,
                "end_time": 51.0659091,
                "pitch": 41,
                "velocity": 51,
                "duration": 0.1818182,
                "tempo": 120.0
            },
            {
                "start_time": 51.0840909,
                "end_time": 51.2681818,
                "pitch": 41,
                "velocity": 51,
                "duration": 0.1840909,
                "tempo": 120.0
            },
            {
                "start_time": 51.2840909,
                "end_time": 51.3681818,
                "pitch": 41,
                "velocity": 51,
                "duration": 0.0840909,
                "tempo": 120.0
            },
            {
                "start_time": 51.3863636,
                "end_time": 51.4704545,
                "pitch": 41,
                "velocity": 51,
                "duration": 0.0840909,
                "tempo": 120.0
            },
            {
                "start_time": 25.7568182,
                "end_time": 51.4863636,
                "pitch": 42,
                "velocity": 51,
                "duration": 25.7295455,
                "tempo": 120.0
            },
            {
                "start_time": 51.4863636,
                "end_time": 51.6704545,
                "pitch": 31,
                "velocity": 51,
                "duration": 0.1840909,
                "tempo": 120.0
            },
            {
                "start_time": 51.6863636,
                "end_time": 51.7704545,
                "pitch": 31,
                "velocity": 51,
                "duration": 0.0840909,
                "tempo": 120.0
            },
            {
                "start_time": 51.7863636,
                "end_time": 51.8704545,
                "pitch": 31,
                "velocity": 51,
                "duration": 0.0840909,
                "tempo": 120.0
            },
            {
                "start_time": 51.8863636,
                "end_time": 52.0704545,
                "pitch": 31,
                "velocity": 51,
                "duration": 0.1840909,
                "tempo": 120.0
            },
            {
                "start_time": 52.0886364,
                "end_time": 52.1704545,
                "pitch": 33,
                "velocity": 51,
                "duration": 0.0818182,
                "tempo": 120.0
            },
            {
                "start_time": 52.1886364,
                "end_time": 52.2704545,
                "pitch": 33,
                "velocity": 51,
                "duration": 0.0818182,
                "tempo": 120.0
            },
            {
                "start_time": 52.2886364,
                "end_time": 52.4704545,
                "pitch": 35,
                "velocity": 51,
                "duration": 0.1818182,
                "tempo": 120.0
            },
            {
                "start_time": 52.4886364,
                "end_time": 52.5704545,
                "pitch": 35,
                "velocity": 51,
                "duration": 0.0818182,
                "tempo": 120.0
            },
            {
                "start_time": 52.5886364,
                "end_time": 52.6704545,
                "pitch": 35,
                "velocity": 51,
                "duration": 0.0818182,
                "tempo": 120.0
            },
            {
                "start_time": 26.9704545,
                "end_time": 52.6886364,
                "pitch": 19,
                "velocity": 51,
                "duration": 25.7181818,
                "tempo": 120.0
            },
            {
                "start_time": 48.2772727,
                "end_time": 52.8727273,
                "pitch": 38,
                "velocity": 51,
                "duration": 4.5954545,
                "tempo": 120.0
            },
            {
                "start_time": 52.6886364,
                "end_time": 52.8727273,
                "pitch": 38,
                "velocity": 51,
                "duration": 0.1840909,
                "tempo": 120.0
            },
            {
                "start_time": 52.8886364,
                "end_time": 52.9727273,
                "pitch": 38,
                "velocity": 51,
                "duration": 0.0840909,
                "tempo": 120.0
            },
            {
                "start_time": 52.9886364,
                "end_time": 53.0727273,
                "pitch": 38,
                "velocity": 51,
                "duration": 0.0840909,
                "tempo": 120.0
            },
            {
                "start_time": 53.0886364,
                "end_time": 53.2727273,
                "pitch": 36,
                "velocity": 51,
                "duration": 0.1840909,
                "tempo": 120.0
            },
            {
                "start_time": 53.2909091,
                "end_time": 53.475,
                "pitch": 36,
                "velocity": 51,
                "duration": 0.1840909,
                "tempo": 120.0
            },
            {
                "start_time": 53.4931818,
                "end_time": 53.675,
                "pitch": 36,
                "velocity": 51,
                "duration": 0.1818182,
                "tempo": 120.0
            },
            {
                "start_time": 53.6931818,
                "end_time": 53.875,
                "pitch": 36,
                "velocity": 51,
                "duration": 0.1818182,
                "tempo": 120.0
            },
            {
                "start_time": 53.8931818,
                "end_time": 54.075,
                "pitch": 36,
                "velocity": 51,
                "duration": 0.1818182,
                "tempo": 120.0
            },
            {
                "start_time": 54.0931818,
                "end_time": 54.2772727,
                "pitch": 36,
                "velocity": 51,
                "duration": 0.1840909,
                "tempo": 120.0
            },
            {
                "start_time": 54.2931818,
                "end_time": 54.4772727,
                "pitch": 36,
                "velocity": 51,
                "duration": 0.1840909,
                "tempo": 120.0
            },
            {
                "start_time": 54.4931818,
                "end_time": 54.5772727,
                "pitch": 36,
                "velocity": 51,
                "duration": 0.0840909,
                "tempo": 120.0
            },
            {
                "start_time": 54.5931818,
                "end_time": 54.6772727,
                "pitch": 36,
                "velocity": 51,
                "duration": 0.0840909,
                "tempo": 120.0
            },
            {
                "start_time": 54.6931818,
                "end_time": 54.8818182,
                "pitch": 34,
                "velocity": 51,
                "duration": 0.1886364,
                "tempo": 120.0
            },
            {
                "start_time": 54.9,
                "end_time": 55.0863636,
                "pitch": 34,
                "velocity": 51,
                "duration": 0.1863636,
                "tempo": 120.0
            },
            {
                "start_time": 55.1045455,
                "end_time": 55.2840909,
                "pitch": 34,
                "velocity": 51,
                "duration": 0.1795455,
                "tempo": 120.0
            },
            {
                "start_time": 55.3022727,
                "end_time": 55.4818182,
                "pitch": 34,
                "velocity": 51,
                "duration": 0.1795455,
                "tempo": 120.0
            },
            {
                "start_time": 55.4977273,
                "end_time": 55.6818182,
                "pitch": 34,
                "velocity": 51,
                "duration": 0.1840909,
                "tempo": 120.0
            },
            {
                "start_time": 55.6977273,
                "end_time": 55.8818182,
                "pitch": 34,
                "velocity": 51,
                "duration": 0.1840909,
                "tempo": 120.0
            },
            {
                "start_time": 55.8977273,
                "end_time": 56.0863636,
                "pitch": 34,
                "velocity": 51,
                "duration": 0.1886364,
                "tempo": 120.0
            },
            {
                "start_time": 56.1045455,
                "end_time": 56.1886364,
                "pitch": 34,
                "velocity": 51,
                "duration": 0.0840909,
                "tempo": 120.0
            },
            {
                "start_time": 56.2068182,
                "end_time": 56.2909091,
                "pitch": 34,
                "velocity": 51,
                "duration": 0.0840909,
                "tempo": 120.0
            },
            {
                "start_time": 56.3090909,
                "end_time": 56.4931818,
                "pitch": 34,
                "velocity": 51,
                "duration": 0.1840909,
                "tempo": 120.0
            },
            {
                "start_time": 52.2886364,
                "end_time": 56.6954545,
                "pitch": 33,
                "velocity": 51,
                "duration": 4.4068182,
                "tempo": 120.0
            },
            {
                "start_time": 56.5113636,
                "end_time": 56.6954545,
                "pitch": 33,
                "velocity": 51,
                "duration": 0.1840909,
                "tempo": 120.0
            },
            {
                "start_time": 56.7136364,
                "end_time": 56.8931818,
                "pitch": 33,
                "velocity": 51,
                "duration": 0.1795455,
                "tempo": 120.0
            },
            {
                "start_time": 56.9090909,
                "end_time": 57.0886364,
                "pitch": 33,
                "velocity": 51,
                "duration": 0.1795455,
                "tempo": 120.0
            },
            {
                "start_time": 57.1068182,
                "end_time": 57.2931818,
                "pitch": 33,
                "velocity": 51,
                "duration": 0.1863636,
                "tempo": 120.0
            },
            {
                "start_time": 57.3113636,
                "end_time": 57.5,
                "pitch": 33,
                "velocity": 51,
                "duration": 0.1886364,
                "tempo": 120.0
            },
            {
                "start_time": 57.5159091,
                "end_time": 57.6954545,
                "pitch": 33,
                "velocity": 51,
                "duration": 0.1795455,
                "tempo": 120.0
            },
            {
                "start_time": 57.7136364,
                "end_time": 57.7954545,
                "pitch": 33,
                "velocity": 51,
                "duration": 0.0818182,
                "tempo": 120.0
            },
            {
                "start_time": 57.8113636,
                "end_time": 57.8931818,
                "pitch": 33,
                "velocity": 51,
                "duration": 0.0818182,
                "tempo": 120.0
            },
            {
                "start_time": 58.1136364,
                "end_time": 58.3022727,
                "pitch": 29,
                "velocity": 51,
                "duration": 0.1886364,
                "tempo": 120.0
            },
            {
                "start_time": 58.3204545,
                "end_time": 58.5,
                "pitch": 29,
                "velocity": 51,
                "duration": 0.1795455,
                "tempo": 120.0
            },
            {
                "start_time": 58.5159091,
                "end_time": 58.6954545,
                "pitch": 29,
                "velocity": 51,
                "duration": 0.1795455,
                "tempo": 120.0
            },
            {
                "start_time": 58.7136364,
                "end_time": 58.9,
                "pitch": 29,
                "velocity": 51,
                "duration": 0.1863636,
                "tempo": 120.0
            },
            {
                "start_time": 58.9181818,
                "end_time": 59.1068182,
                "pitch": 29,
                "velocity": 51,
                "duration": 0.1886364,
                "tempo": 120.0
            },
            {
                "start_time": 59.125,
                "end_time": 59.3068182,
                "pitch": 29,
                "velocity": 51,
                "duration": 0.1818182,
                "tempo": 120.0
            },
            {
                "start_time": 59.325,
                "end_time": 59.4068182,
                "pitch": 29,
                "velocity": 51,
                "duration": 0.0818182,
                "tempo": 120.0
            },
            {
                "start_time": 59.425,
                "end_time": 59.5090909,
                "pitch": 29,
                "velocity": 51,
                "duration": 0.0840909,
                "tempo": 120.0
            },
            {
                "start_time": 53.0886364,
                "end_time": 59.7090909,
                "pitch": 38,
                "velocity": 51,
                "duration": 6.6204545,
                "tempo": 120.0
            },
            {
                "start_time": 59.525,
                "end_time": 59.7090909,
                "pitch": 38,
                "velocity": 51,
                "duration": 0.1840909,
                "tempo": 120.0
            },
            {
                "start_time": 59.725,
                "end_time": 59.9090909,
                "pitch": 38,
                "velocity": 51,
                "duration": 0.1840909,
                "tempo": 120.0
            },
            {
                "start_time": 59.925,
                "end_time": 60.1090909,
                "pitch": 38,
                "velocity": 51,
                "duration": 0.1840909,
                "tempo": 120.0
            },
            {
                "start_time": 60.125,
                "end_time": 60.3090909,
                "pitch": 38,
                "velocity": 51,
                "duration": 0.1840909,
                "tempo": 120.0
            },
            {
                "start_time": 60.3272727,
                "end_time": 60.5113636,
                "pitch": 38,
                "velocity": 51,
                "duration": 0.1840909,
                "tempo": 120.0
            },
            {
                "start_time": 60.5272727,
                "end_time": 60.7113636,
                "pitch": 38,
                "velocity": 51,
                "duration": 0.1840909,
                "tempo": 120.0
            },
            {
                "start_time": 60.7295455,
                "end_time": 60.9136364,
                "pitch": 38,
                "velocity": 51,
                "duration": 0.1840909,
                "tempo": 120.0
            },
            {
                "start_time": 60.9295455,
                "end_time": 61.0136364,
                "pitch": 38,
                "velocity": 51,
                "duration": 0.0840909,
                "tempo": 120.0
            },
            {
                "start_time": 61.0295455,
                "end_time": 61.1136364,
                "pitch": 38,
                "velocity": 51,
                "duration": 0.0840909,
                "tempo": 120.0
            },
            {
                "start_time": 59.525,
                "end_time": 61.1295455,
                "pitch": 41,
                "velocity": 51,
                "duration": 1.6045455,
                "tempo": 120.0
            },
            {
                "start_time": 61.1295455,
                "end_time": 61.3181818,
                "pitch": 31,
                "velocity": 51,
                "duration": 0.1886364,
                "tempo": 120.0
            },
            {
                "start_time": 61.3363636,
                "end_time": 61.5227273,
                "pitch": 31,
                "velocity": 51,
                "duration": 0.1863636,
                "tempo": 120.0
            },
            {
                "start_time": 61.5409091,
                "end_time": 61.7204545,
                "pitch": 31,
                "velocity": 51,
                "duration": 0.1795455,
                "tempo": 120.0
            },
            {
                "start_time": 61.7386364,
                "end_time": 61.9181818,
                "pitch": 31,
                "velocity": 51,
                "duration": 0.1795455,
                "tempo": 120.0
            },
            {
                "start_time": 61.9340909,
                "end_time": 62.1181818,
                "pitch": 31,
                "velocity": 51,
                "duration": 0.1840909,
                "tempo": 120.0
            },
            {
                "start_time": 62.1340909,
                "end_time": 62.3181818,
                "pitch": 31,
                "velocity": 51,
                "duration": 0.1840909,
                "tempo": 120.0
            },
            {
                "start_time": 62.3340909,
                "end_time": 62.5227273,
                "pitch": 31,
                "velocity": 51,
                "duration": 0.1886364,
                "tempo": 120.0
            },
            {
                "start_time": 62.5386364,
                "end_time": 62.625,
                "pitch": 31,
                "velocity": 51,
                "duration": 0.0863636,
                "tempo": 120.0
            },
            {
                "start_time": 62.6431818,
                "end_time": 62.7272727,
                "pitch": 31,
                "velocity": 51,
                "duration": 0.0840909,
                "tempo": 120.0
            },
            {
                "start_time": 39.9272727,
                "end_time": 62.7454545,
                "pitch": 0,
                "velocity": 51,
                "duration": 22.8181818,
                "tempo": 120.0
            },
            {
                "start_time": 62.7454545,
                "end_time": 62.925,
                "pitch": 36,
                "velocity": 51,
                "duration": 0.1795455,
                "tempo": 120.0
            },
            {
                "start_time": 62.9409091,
                "end_time": 63.0227273,
                "pitch": 36,
                "velocity": 51,
                "duration": 0.0818182,
                "tempo": 120.0
            },
            {
                "start_time": 63.0409091,
                "end_time": 63.1227273,
                "pitch": 36,
                "velocity": 51,
                "duration": 0.0818182,
                "tempo": 120.0
            },
            {
                "start_time": 63.1386364,
                "end_time": 63.3204545,
                "pitch": 38,
                "velocity": 51,
                "duration": 0.1818182,
                "tempo": 120.0
            },
            {
                "start_time": 63.3386364,
                "end_time": 63.4227273,
                "pitch": 38,
                "velocity": 51,
                "duration": 0.0840909,
                "tempo": 120.0
            },
            {
                "start_time": 63.4386364,
                "end_time": 63.5227273,
                "pitch": 38,
                "velocity": 51,
                "duration": 0.0840909,
                "tempo": 120.0
            },
            {
                "start_time": 54.6931818,
                "end_time": 63.7227273,
                "pitch": 40,
                "velocity": 51,
                "duration": 9.0295455,
                "tempo": 120.0
            },
            {
                "start_time": 63.5386364,
                "end_time": 63.7227273,
                "pitch": 40,
                "velocity": 51,
                "duration": 0.1840909,
                "tempo": 120.0
            },
            {
                "start_time": 63.7386364,
                "end_time": 63.8227273,
                "pitch": 40,
                "velocity": 51,
                "duration": 0.0840909,
                "tempo": 120.0
            },
            {
                "start_time": 63.8386364,
                "end_time": 63.9227273,
                "pitch": 40,
                "velocity": 51,
                "duration": 0.0840909,
                "tempo": 120.0
            },
            {
                "start_time": 63.1386364,
                "end_time": 64.1227273,
                "pitch": 36,
                "velocity": 51,
                "duration": 0.9840909,
                "tempo": 120.0
            },
            {
                "start_time": 63.9386364,
                "end_time": 64.1227273,
                "pitch": 36,
                "velocity": 51,
                "duration": 0.1840909,
                "tempo": 120.0
            },
            {
                "start_time": 64.1386364,
                "end_time": 64.2227273,
                "pitch": 36,
                "velocity": 51,
                "duration": 0.0840909,
                "tempo": 120.0
            },
            {
                "start_time": 64.2386364,
                "end_time": 64.3227273,
                "pitch": 36,
                "velocity": 51,
                "duration": 0.0840909,
                "tempo": 120.0
            },
            {
                "start_time": 64.3409091,
                "end_time": 64.4227273,
                "pitch": 36,
                "velocity": 51,
                "duration": 0.0818182,
                "tempo": 120.0
            },
            {
                "start_time": 64.4409091,
                "end_time": 64.525,
                "pitch": 48,
                "velocity": 51,
                "duration": 0.0840909,
                "tempo": 120.0
            },
            {
                "start_time": 64.5409091,
                "end_time": 64.625,
                "pitch": 48,
                "velocity": 51,
                "duration": 0.0840909,
                "tempo": 120.0
            },
            {
                "start_time": 64.6431818,
                "end_time": 64.725,
                "pitch": 48,
                "velocity": 51,
                "duration": 0.0818182,
                "tempo": 120.0
            },
            {
                "start_time": 63.9386364,
                "end_time": 64.7431818,
                "pitch": 40,
                "velocity": 51,
                "duration": 0.8045455,
                "tempo": 120.0
            },
            {
                "start_time": 64.7431818,
                "end_time": 64.8272727,
                "pitch": 31,
                "velocity": 51,
                "duration": 0.0840909,
                "tempo": 120.0
            },
            {
                "start_time": 64.8431818,
                "end_time": 64.9272727,
                "pitch": 43,
                "velocity": 51,
                "duration": 0.0840909,
                "tempo": 120.0
            },
            {
                "start_time": 64.9431818,
                "end_time": 65.0272727,
                "pitch": 43,
                "velocity": 51,
                "duration": 0.0840909,
                "tempo": 120.0
            },
            {
                "start_time": 65.0431818,
                "end_time": 65.1272727,
                "pitch": 43,
                "velocity": 51,
                "duration": 0.0840909,
                "tempo": 120.0
            },
            {
                "start_time": 62.7454545,
                "end_time": 65.1431818,
                "pitch": 0,
                "velocity": 51,
                "duration": 2.3977273,
                "tempo": 120.0
            },
            {
                "start_time": 65.1431818,
                "end_time": 65.2272727,
                "pitch": 28,
                "velocity": 51,
                "duration": 0.0840909,
                "tempo": 120.0
            },
            {
                "start_time": 64.7431818,
                "end_time": 65.3272727,
                "pitch": 40,
                "velocity": 51,
                "duration": 0.5840909,
                "tempo": 120.0
            },
            {
                "start_time": 65.2454545,
                "end_time": 65.3272727,
                "pitch": 40,
                "velocity": 51,
                "duration": 0.0818182,
                "tempo": 120.0
            },
            {
                "start_time": 65.3454545,
                "end_time": 65.4295455,
                "pitch": 40,
                "velocity": 51,
                "duration": 0.0840909,
                "tempo": 120.0
            },
            {
                "start_time": 65.4454545,
                "end_time": 65.5295455,
                "pitch": 40,
                "velocity": 51,
                "duration": 0.0840909,
                "tempo": 120.0
            },
            {
                "start_time": 39.8272727,
                "end_time": 65.5477273,
                "pitch": 54,
                "velocity": 51,
                "duration": 25.7204545,
                "tempo": 120.0
            },
            {
                "start_time": 65.5477273,
                "end_time": 65.6318182,
                "pitch": 43,
                "velocity": 51,
                "duration": 0.0840909,
                "tempo": 120.0
            },
            {
                "start_time": 65.1431818,
                "end_time": 65.65,
                "pitch": 0,
                "velocity": 51,
                "duration": 0.5068182,
                "tempo": 120.0
            },
            {
                "start_time": 65.65,
                "end_time": 65.7340909,
                "pitch": 36,
                "velocity": 51,
                "duration": 0.0840909,
                "tempo": 120.0
            },
            {
                "start_time": 65.7522727,
                "end_time": 65.8386364,
                "pitch": 36,
                "velocity": 51,
                "duration": 0.0863636,
                "tempo": 120.0
            },
            {
                "start_time": 65.8545455,
                "end_time": 65.9409091,
                "pitch": 36,
                "velocity": 51,
                "duration": 0.0863636,
                "tempo": 120.0
            },
            {
                "start_time": 65.9590909,
                "end_time": 66.1431818,
                "pitch": 29,
                "velocity": 51,
                "duration": 0.1840909,
                "tempo": 120.0
            },
            {
                "start_time": 66.1590909,
                "end_time": 66.3454545,
                "pitch": 29,
                "velocity": 51,
                "duration": 0.1863636,
                "tempo": 120.0
            },
            {
                "start_time": 67.5659091,
                "end_time": 67.75,
                "pitch": 29,
                "velocity": 51,
                "duration": 0.1840909,
                "tempo": 120.0
            },
            {
                "start_time": 67.7659091,
                "end_time": 67.95,
                "pitch": 29,
                "velocity": 51,
                "duration": 0.1840909,
                "tempo": 120.0
            },
            {
                "start_time": 61.1295455,
                "end_time": 69.175,
                "pitch": 41,
                "velocity": 51,
                "duration": 8.0454545,
                "tempo": 120.0
            },
            {
                "start_time": 69.175,
                "end_time": 69.3590909,
                "pitch": 36,
                "velocity": 51,
                "duration": 0.1840909,
                "tempo": 120.0
            },
            {
                "start_time": 69.375,
                "end_time": 69.5613636,
                "pitch": 36,
                "velocity": 51,
                "duration": 0.1863636,
                "tempo": 120.0
            },
            {
                "start_time": 69.5772727,
                "end_time": 69.7613636,
                "pitch": 40,
                "velocity": 51,
                "duration": 0.1840909,
                "tempo": 120.0
            },
            {
                "start_time": 65.5477273,
                "end_time": 69.7772727,
                "pitch": 54,
                "velocity": 51,
                "duration": 4.2295455,
                "tempo": 120.0
            },
            {
                "start_time": 69.7772727,
                "end_time": 69.9613636,
                "pitch": 43,
                "velocity": 51,
                "duration": 0.1840909,
                "tempo": 120.0
            },
            {
                "start_time": 69.9772727,
                "end_time": 70.1613636,
                "pitch": 46,
                "velocity": 51,
                "duration": 0.1840909,
                "tempo": 120.0
            },
            {
                "start_time": 70.1795455,
                "end_time": 70.5636364,
                "pitch": 48,
                "velocity": 51,
                "duration": 0.3840909,
                "tempo": 120.0
            },
            {
                "start_time": 69.5772727,
                "end_time": 70.7636364,
                "pitch": 36,
                "velocity": 51,
                "duration": 1.1863636,
                "tempo": 120.0
            },
            {
                "start_time": 70.5818182,
                "end_time": 70.7636364,
                "pitch": 36,
                "velocity": 51,
                "duration": 0.1818182,
                "tempo": 120.0
            },
            {
                "start_time": 70.7818182,
                "end_time": 70.9659091,
                "pitch": 36,
                "velocity": 51,
                "duration": 0.1840909,
                "tempo": 120.0
            },
            {
                "start_time": 70.9840909,
                "end_time": 71.1681818,
                "pitch": 36,
                "velocity": 51,
                "duration": 0.1840909,
                "tempo": 120.0
            },
            {
                "start_time": 71.1840909,
                "end_time": 71.3704545,
                "pitch": 40,
                "velocity": 51,
                "duration": 0.1863636,
                "tempo": 120.0
            },
            {
                "start_time": 69.7772727,
                "end_time": 71.3863636,
                "pitch": 54,
                "velocity": 51,
                "duration": 1.6090909,
                "tempo": 120.0
            },
            {
                "start_time": 69.9772727,
                "end_time": 71.5704545,
                "pitch": 43,
                "velocity": 51,
                "duration": 1.5931818,
                "tempo": 120.0
            },
            {
                "start_time": 71.3863636,
                "end_time": 71.5704545,
                "pitch": 43,
                "velocity": 51,
                "duration": 0.1840909,
                "tempo": 120.0
            },
            {
                "start_time": 71.5886364,
                "end_time": 71.7704545,
                "pitch": 46,
                "velocity": 51,
                "duration": 0.1818182,
                "tempo": 120.0
            },
            {
                "start_time": 70.1795455,
                "end_time": 71.7886364,
                "pitch": 26,
                "velocity": 51,
                "duration": 1.6090909,
                "tempo": 120.0
            },
            {
                "start_time": 71.7886364,
                "end_time": 72.1727273,
                "pitch": 48,
                "velocity": 51,
                "duration": 0.3840909,
                "tempo": 120.0
            },
            {
                "start_time": 71.1840909,
                "end_time": 72.375,
                "pitch": 36,
                "velocity": 51,
                "duration": 1.1909091,
                "tempo": 120.0
            },
            {
                "start_time": 72.1909091,
                "end_time": 72.375,
                "pitch": 36,
                "velocity": 51,
                "duration": 0.1840909,
                "tempo": 120.0
            },
            {
                "start_time": 65.9590909,
                "end_time": 72.3931818,
                "pitch": 24,
                "velocity": 51,
                "duration": 6.4340909,
                "tempo": 120.0
            },
            {
                "start_time": 72.3931818,
                "end_time": 72.5795455,
                "pitch": 29,
                "velocity": 51,
                "duration": 0.1863636,
                "tempo": 120.0
            },
            {
                "start_time": 72.5977273,
                "end_time": 72.7863636,
                "pitch": 29,
                "velocity": 51,
                "duration": 0.1886364,
                "tempo": 120.0
            },
            {
                "start_time": 74.0,
                "end_time": 74.1886364,
                "pitch": 29,
                "velocity": 51,
                "duration": 0.1886364,
                "tempo": 120.0
            },
            {
                "start_time": 74.2045455,
                "end_time": 74.3931818,
                "pitch": 29,
                "velocity": 51,
                "duration": 0.1886364,
                "tempo": 120.0
            },
            {
                "start_time": 69.175,
                "end_time": 75.6068182,
                "pitch": 41,
                "velocity": 51,
                "duration": 6.4318182,
                "tempo": 120.0
            },
            {
                "start_time": 75.6068182,
                "end_time": 75.7909091,
                "pitch": 36,
                "velocity": 51,
                "duration": 0.1840909,
                "tempo": 120.0
            },
            {
                "start_time": 75.8068182,
                "end_time": 75.9909091,
                "pitch": 36,
                "velocity": 51,
                "duration": 0.1840909,
                "tempo": 120.0
            },
            {
                "start_time": 76.0068182,
                "end_time": 76.1954545,
                "pitch": 40,
                "velocity": 51,
                "duration": 0.1886364,
                "tempo": 120.0
            },
            {
                "start_time": 76.2136364,
                "end_time": 76.4022727,
                "pitch": 40,
                "velocity": 51,
                "duration": 0.1886364,
                "tempo": 120.0
            },
            {
                "start_time": 76.4181818,
                "end_time": 76.6045455,
                "pitch": 40,
                "velocity": 51,
                "duration": 0.1863636,
                "tempo": 120.0
            },
            {
                "start_time": 75.6068182,
                "end_time": 76.8045455,
                "pitch": 41,
                "velocity": 51,
                "duration": 1.1977273,
                "tempo": 120.0
            },
            {
                "start_time": 76.6204545,
                "end_time": 76.8045455,
                "pitch": 41,
                "velocity": 51,
                "duration": 0.1840909,
                "tempo": 120.0
            },
            {
                "start_time": 76.8227273,
                "end_time": 77.0022727,
                "pitch": 41,
                "velocity": 51,
                "duration": 0.1795455,
                "tempo": 120.0
            },
            {
                "start_time": 71.3863636,
                "end_time": 77.0181818,
                "pitch": 54,
                "velocity": 51,
                "duration": 5.6318182,
                "tempo": 120.0
            },
            {
                "start_time": 71.5886364,
                "end_time": 77.4,
                "pitch": 43,
                "velocity": 51,
                "duration": 5.8113636,
                "tempo": 120.0
            },
            {
                "start_time": 77.0181818,
                "end_time": 77.4,
                "pitch": 43,
                "velocity": 51,
                "duration": 0.3818182,
                "tempo": 120.0
            },
            {
                "start_time": 77.4159091,
                "end_time": 77.6022727,
                "pitch": 43,
                "velocity": 51,
                "duration": 0.1863636,
                "tempo": 120.0
            },
            {
                "start_time": 65.65,
                "end_time": 77.6181818,
                "pitch": 0,
                "velocity": 51,
                "duration": 11.9681818,
                "tempo": 120.0
            },
            {
                "start_time": 77.6181818,
                "end_time": 77.8068182,
                "pitch": 48,
                "velocity": 51,
                "duration": 0.1886364,
                "tempo": 120.0
            },
            {
                "start_time": 77.825,
                "end_time": 78.0136364,
                "pitch": 48,
                "velocity": 51,
                "duration": 0.1886364,
                "tempo": 120.0
            },
            {
                "start_time": 78.0295455,
                "end_time": 78.2136364,
                "pitch": 50,
                "velocity": 51,
                "duration": 0.1840909,
                "tempo": 120.0
            },
            {
                "start_time": 78.2295455,
                "end_time": 78.4136364,
                "pitch": 50,
                "velocity": 51,
                "duration": 0.1840909,
                "tempo": 120.0
            },
            {
                "start_time": 78.4295455,
                "end_time": 78.6159091,
                "pitch": 50,
                "velocity": 51,
                "duration": 0.1863636,
                "tempo": 120.0
            },
            {
                "start_time": 78.6318182,
                "end_time": 78.8159091,
                "pitch": 51,
                "velocity": 51,
                "duration": 0.1840909,
                "tempo": 120.0
            },
            {
                "start_time": 78.8340909,
                "end_time": 79.0181818,
                "pitch": 28,
                "velocity": 51,
                "duration": 0.1840909,
                "tempo": 120.0
            },
            {
                "start_time": 79.0363636,
                "end_time": 79.2204545,
                "pitch": 29,
                "velocity": 51,
                "duration": 0.1840909,
                "tempo": 120.0
            },
            {
                "start_time": 80.4409091,
                "end_time": 80.625,
                "pitch": 29,
                "velocity": 51,
                "duration": 0.1840909,
                "tempo": 120.0
            },
            {
                "start_time": 80.6431818,
                "end_time": 80.8272727,
                "pitch": 29,
                "velocity": 51,
                "duration": 0.1840909,
                "tempo": 120.0
            },
            {
                "start_time": 76.0068182,
                "end_time": 82.2363636,
                "pitch": 36,
                "velocity": 51,
                "duration": 6.2295455,
                "tempo": 120.0
            },
            {
                "start_time": 82.0522727,
                "end_time": 82.2363636,
                "pitch": 36,
                "velocity": 51,
                "duration": 0.1840909,
                "tempo": 120.0
            },
            {
                "start_time": 82.2522727,
                "end_time": 82.4363636,
                "pitch": 36,
                "velocity": 51,
                "duration": 0.1840909,
                "tempo": 120.0
            },
            {
                "start_time": 82.4522727,
                "end_time": 82.6363636,
                "pitch": 40,
                "velocity": 51,
                "duration": 0.1840909,
                "tempo": 120.0
            },
            {
                "start_time": 77.0181818,
                "end_time": 82.6545455,
                "pitch": 54,
                "velocity": 51,
                "duration": 5.6363636,
                "tempo": 120.0
            },
            {
                "start_time": 82.6545455,
                "end_time": 82.8386364,
                "pitch": 43,
                "velocity": 51,
                "duration": 0.1840909,
                "tempo": 120.0
            },
            {
                "start_time": 82.8568182,
                "end_time": 83.0409091,
                "pitch": 46,
                "velocity": 51,
                "duration": 0.1840909,
                "tempo": 120.0
            },
            {
                "start_time": 71.7886364,
                "end_time": 83.0568182,
                "pitch": 26,
                "velocity": 51,
                "duration": 11.2681818,
                "tempo": 120.0
            },
            {
                "start_time": 78.0295455,
                "end_time": 83.4431818,
                "pitch": 48,
                "velocity": 51,
                "duration": 5.4136364,
                "tempo": 120.0
            },
            {
                "start_time": 83.0568182,
                "end_time": 83.4431818,
                "pitch": 48,
                "velocity": 51,
                "duration": 0.3863636,
                "tempo": 120.0
            },
            {
                "start_time": 82.4522727,
                "end_time": 83.6431818,
                "pitch": 36,
                "velocity": 51,
                "duration": 1.1909091,
                "tempo": 120.0
            },
            {
                "start_time": 83.4590909,
                "end_time": 83.6431818,
                "pitch": 36,
                "velocity": 51,
                "duration": 0.1840909,
                "tempo": 120.0
            },
            {
                "start_time": 83.6590909,
                "end_time": 83.8477273,
                "pitch": 36,
                "velocity": 51,
                "duration": 0.1886364,
                "tempo": 120.0
            },
            {
                "start_time": 83.8659091,
                "end_time": 84.0522727,
                "pitch": 36,
                "velocity": 51,
                "duration": 0.1863636,
                "tempo": 120.0
            },
            {
                "start_time": 84.0704545,
                "end_time": 84.2545455,
                "pitch": 40,
                "velocity": 51,
                "duration": 0.1840909,
                "tempo": 120.0
            },
            {
                "start_time": 82.6545455,
                "end_time": 84.2727273,
                "pitch": 54,
                "velocity": 51,
                "duration": 1.6181818,
                "tempo": 120.0
            },
            {
                "start_time": 82.8568182,
                "end_time": 84.4568182,
                "pitch": 43,
                "velocity": 51,
                "duration": 1.6,
                "tempo": 120.0
            },
            {
                "start_time": 84.2727273,
                "end_time": 84.4568182,
                "pitch": 43,
                "velocity": 51,
                "duration": 0.1840909,
                "tempo": 120.0
            },
            {
                "start_time": 84.475,
                "end_time": 84.6590909,
                "pitch": 46,
                "velocity": 51,
                "duration": 0.1840909,
                "tempo": 120.0
            },
            {
                "start_time": 83.0568182,
                "end_time": 84.675,
                "pitch": 26,
                "velocity": 51,
                "duration": 1.6181818,
                "tempo": 120.0
            },
            {
                "start_time": 84.675,
                "end_time": 85.0568182,
                "pitch": 48,
                "velocity": 51,
                "duration": 0.3818182,
                "tempo": 120.0
            },
            {
                "start_time": 84.0704545,
                "end_time": 85.2522727,
                "pitch": 36,
                "velocity": 51,
                "duration": 1.1818182,
                "tempo": 120.0
            },
            {
                "start_time": 85.0727273,
                "end_time": 85.2522727,
                "pitch": 36,
                "velocity": 51,
                "duration": 0.1795455,
                "tempo": 120.0
            },
            {
                "start_time": 82.0522727,
                "end_time": 85.4590909,
                "pitch": 41,
                "velocity": 51,
                "duration": 3.4068182,
                "tempo": 120.0
            },
            {
                "start_time": 85.2704545,
                "end_time": 85.4590909,
                "pitch": 41,
                "velocity": 51,
                "duration": 0.1886364,
                "tempo": 120.0
            },
            {
                "start_time": 85.475,
                "end_time": 85.6636364,
                "pitch": 41,
                "velocity": 51,
                "duration": 0.1886364,
                "tempo": 120.0
            },
            {
                "start_time": 85.6818182,
                "end_time": 85.8636364,
                "pitch": 41,
                "velocity": 51,
                "duration": 0.1818182,
                "tempo": 120.0
            },
            {
                "start_time": 85.8818182,
                "end_time": 86.0659091,
                "pitch": 41,
                "velocity": 51,
                "duration": 0.1840909,
                "tempo": 120.0
            },
            {
                "start_time": 86.0818182,
                "end_time": 86.2659091,
                "pitch": 41,
                "velocity": 51,
                "duration": 0.1840909,
                "tempo": 120.0
            },
            {
                "start_time": 86.2840909,
                "end_time": 86.4681818,
                "pitch": 41,
                "velocity": 51,
                "duration": 0.1840909,
                "tempo": 120.0
            },
            {
                "start_time": 86.4863636,
                "end_time": 86.6727273,
                "pitch": 41,
                "velocity": 51,
                "duration": 0.1863636,
                "tempo": 120.0
            },
            {
                "start_time": 86.6909091,
                "end_time": 86.775,
                "pitch": 41,
                "velocity": 51,
                "duration": 0.0840909,
                "tempo": 120.0
            },
            {
                "start_time": 86.7931818,
                "end_time": 86.8795455,
                "pitch": 41,
                "velocity": 51,
                "duration": 0.0863636,
                "tempo": 120.0
            },
            {
                "start_time": 86.8954545,
                "end_time": 87.0818182,
                "pitch": 41,
                "velocity": 51,
                "duration": 0.1863636,
                "tempo": 120.0
            },
            {
                "start_time": 87.0977273,
                "end_time": 87.2818182,
                "pitch": 41,
                "velocity": 51,
                "duration": 0.1840909,
                "tempo": 120.0
            },
            {
                "start_time": 87.3,
                "end_time": 87.4840909,
                "pitch": 41,
                "velocity": 51,
                "duration": 0.1840909,
                "tempo": 120.0
            },
            {
                "start_time": 87.5022727,
                "end_time": 87.6863636,
                "pitch": 41,
                "velocity": 51,
                "duration": 0.1840909,
                "tempo": 120.0
            },
            {
                "start_time": 87.7022727,
                "end_time": 87.8818182,
                "pitch": 41,
                "velocity": 51,
                "duration": 0.1795455,
                "tempo": 120.0
            },
            {
                "start_time": 87.9,
                "end_time": 88.0795455,
                "pitch": 41,
                "velocity": 51,
                "duration": 0.1795455,
                "tempo": 120.0
            },
            {
                "start_time": 88.0954545,
                "end_time": 88.2795455,
                "pitch": 41,
                "velocity": 51,
                "duration": 0.1840909,
                "tempo": 120.0
            },
            {
                "start_time": 88.2977273,
                "end_time": 88.3818182,
                "pitch": 41,
                "velocity": 51,
                "duration": 0.0840909,
                "tempo": 120.0
            },
            {
                "start_time": 88.3977273,
                "end_time": 88.4818182,
                "pitch": 41,
                "velocity": 51,
                "duration": 0.0840909,
                "tempo": 120.0
            },
            {
                "start_time": 84.2727273,
                "end_time": 88.5,
                "pitch": 54,
                "velocity": 51,
                "duration": 4.2272727,
                "tempo": 120.0
            },
            {
                "start_time": 84.475,
                "end_time": 88.6840909,
                "pitch": 43,
                "velocity": 51,
                "duration": 4.2090909,
                "tempo": 120.0
            },
            {
                "start_time": 88.5,
                "end_time": 88.6840909,
                "pitch": 43,
                "velocity": 51,
                "duration": 0.1840909,
                "tempo": 120.0
            },
            {
                "start_time": 88.7,
                "end_time": 88.8840909,
                "pitch": 43,
                "velocity": 51,
                "duration": 0.1840909,
                "tempo": 120.0
            },
            {
                "start_time": 88.9022727,
                "end_time": 89.0863636,
                "pitch": 43,
                "velocity": 51,
                "duration": 0.1840909,
                "tempo": 120.0
            },
            {
                "start_time": 89.1022727,
                "end_time": 89.2863636,
                "pitch": 43,
                "velocity": 51,
                "duration": 0.1840909,
                "tempo": 120.0
            },
            {
                "start_time": 89.3022727,
                "end_time": 89.4863636,
                "pitch": 43,
                "velocity": 51,
                "duration": 0.1840909,
                "tempo": 120.0
            },
            {
                "start_time": 89.5045455,
                "end_time": 89.6886364,
                "pitch": 43,
                "velocity": 51,
                "duration": 0.1840909,
                "tempo": 120.0
            },
            {
                "start_time": 89.7068182,
                "end_time": 89.8886364,
                "pitch": 43,
                "velocity": 51,
                "duration": 0.1818182,
                "tempo": 120.0
            },
            {
                "start_time": 89.9068182,
                "end_time": 89.9886364,
                "pitch": 43,
                "velocity": 51,
                "duration": 0.0818182,
                "tempo": 120.0
            },
            {
                "start_time": 90.0068182,
                "end_time": 90.0886364,
                "pitch": 43,
                "velocity": 51,
                "duration": 0.0818182,
                "tempo": 120.0
            },
            {
                "start_time": 90.1068182,
                "end_time": 90.2954545,
                "pitch": 43,
                "velocity": 51,
                "duration": 0.1886364,
                "tempo": 120.0
            },
            {
                "start_time": 90.3113636,
                "end_time": 90.3977273,
                "pitch": 43,
                "velocity": 51,
                "duration": 0.0863636,
                "tempo": 120.0
            },
            {
                "start_time": 90.4159091,
                "end_time": 90.5,
                "pitch": 43,
                "velocity": 51,
                "duration": 0.0840909,
                "tempo": 120.0
            },
            {
                "start_time": 90.5181818,
                "end_time": 90.7022727,
                "pitch": 43,
                "velocity": 51,
                "duration": 0.1840909,
                "tempo": 120.0
            },
            {
                "start_time": 90.7181818,
                "end_time": 90.8022727,
                "pitch": 45,
                "velocity": 51,
                "duration": 0.0840909,
                "tempo": 120.0
            },
            {
                "start_time": 90.8181818,
                "end_time": 90.9022727,
                "pitch": 45,
                "velocity": 51,
                "duration": 0.0840909,
                "tempo": 120.0
            },
            {
                "start_time": 90.9181818,
                "end_time": 91.1022727,
                "pitch": 47,
                "velocity": 51,
                "duration": 0.1840909,
                "tempo": 120.0
            },
            {
                "start_time": 91.1204545,
                "end_time": 91.2045455,
                "pitch": 47,
                "velocity": 51,
                "duration": 0.0840909,
                "tempo": 120.0
            },
            {
                "start_time": 91.2204545,
                "end_time": 91.3045455,
                "pitch": 47,
                "velocity": 51,
                "duration": 0.0840909,
                "tempo": 120.0
            },
            {
                "start_time": 91.3227273,
                "end_time": 91.5068182,
                "pitch": 50,
                "velocity": 51,
                "duration": 0.1840909,
                "tempo": 120.0
            },
            {
                "start_time": 91.5227273,
                "end_time": 91.6068182,
                "pitch": 50,
                "velocity": 51,
                "duration": 0.0840909,
                "tempo": 120.0
            },
            {
                "start_time": 91.625,
                "end_time": 91.7090909,
                "pitch": 50,
                "velocity": 51,
                "duration": 0.0840909,
                "tempo": 120.0
            },
            {
                "start_time": 63.5386364,
                "end_time": 91.725,
                "pitch": 38,
                "velocity": 51,
                "duration": 28.1863636,
                "tempo": 120.0
            },
            {
                "start_time": 91.725,
                "end_time": 91.9045455,
                "pitch": 41,
                "velocity": 51,
                "duration": 0.1795455,
                "tempo": 120.0
            },
            {
                "start_time": 91.9204545,
                "end_time": 92.1,
                "pitch": 41,
                "velocity": 51,
                "duration": 0.1795455,
                "tempo": 120.0
            },
            {
                "start_time": 92.1181818,
                "end_time": 92.2022727,
                "pitch": 41,
                "velocity": 51,
                "duration": 0.0840909,
                "tempo": 120.0
            },
            {
                "start_time": 92.2204545,
                "end_time": 92.4090909,
                "pitch": 41,
                "velocity": 51,
                "duration": 0.1886364,
                "tempo": 120.0
            },
            {
                "start_time": 92.425,
                "end_time": 92.5113636,
                "pitch": 41,
                "velocity": 51,
                "duration": 0.0863636,
                "tempo": 120.0
            },
            {
                "start_time": 88.5,
                "end_time": 92.5295455,
                "pitch": 54,
                "velocity": 51,
                "duration": 4.0295455,
                "tempo": 120.0
            },
            {
                "start_time": 92.5295455,
                "end_time": 92.7181818,
                "pitch": 43,
                "velocity": 51,
                "duration": 0.1886364,
                "tempo": 120.0
            },
            {
                "start_time": 92.7340909,
                "end_time": 92.9227273,
                "pitch": 43,
                "velocity": 51,
                "duration": 0.1886364,
                "tempo": 120.0
            },
            {
                "start_time": 77.6181818,
                "end_time": 92.9409091,
                "pitch": 0,
                "velocity": 51,
                "duration": 15.3227273,
                "tempo": 120.0
            },
            {
                "start_time": 92.9409091,
                "end_time": 93.025,
                "pitch": 41,
                "velocity": 51,
                "duration": 0.0840909,
                "tempo": 120.0
            },
            {
                "start_time": 92.5295455,
                "end_time": 93.0409091,
                "pitch": 54,
                "velocity": 51,
                "duration": 0.5113636,
                "tempo": 120.0
            },
            {
                "start_time": 93.0409091,
                "end_time": 93.225,
                "pitch": 43,
                "velocity": 51,
                "duration": 0.1840909,
                "tempo": 120.0
            },
            {
                "start_time": 93.2431818,
                "end_time": 93.3272727,
                "pitch": 43,
                "velocity": 51,
                "duration": 0.0840909,
                "tempo": 120.0
            },
            {
                "start_time": 92.9409091,
                "end_time": 93.3431818,
                "pitch": 0,
                "velocity": 51,
                "duration": 0.4022727,
                "tempo": 120.0
            },
            {
                "start_time": 85.2704545,
                "end_time": 93.5318182,
                "pitch": 36,
                "velocity": 51,
                "duration": 8.2613636,
                "tempo": 120.0
            },
            {
                "start_time": 93.3431818,
                "end_time": 93.5318182,
                "pitch": 36,
                "velocity": 51,
                "duration": 0.1886364,
                "tempo": 120.0
            },
            {
                "start_time": 93.55,
                "end_time": 93.6340909,
                "pitch": 36,
                "velocity": 51,
                "duration": 0.0840909,
                "tempo": 120.0
            },
            {
                "start_time": 93.6522727,
                "end_time": 93.7386364,
                "pitch": 36,
                "velocity": 51,
                "duration": 0.0863636,
                "tempo": 120.0
            },
            {
                "start_time": 91.725,
                "end_time": 93.8340909,
                "pitch": 38,
                "velocity": 51,
                "duration": 2.1090909,
                "tempo": 120.0
            },
            {
                "start_time": 93.7545455,
                "end_time": 93.8340909,
                "pitch": 38,
                "velocity": 51,
                "duration": 0.0795455,
                "tempo": 120.0
            },
            {
                "start_time": 93.85,
                "end_time": 94.025,
                "pitch": 38,
                "velocity": 51,
                "duration": 0.175,
                "tempo": 120.0
            },
            {
                "start_time": 94.0431818,
                "end_time": 94.1227273,
                "pitch": 38,
                "velocity": 51,
                "duration": 0.0795455,
                "tempo": 120.0
            },
            {
                "start_time": 94.1386364,
                "end_time": 94.2227273,
                "pitch": 40,
                "velocity": 51,
                "duration": 0.0840909,
                "tempo": 120.0
            },
            {
                "start_time": 94.2409091,
                "end_time": 94.325,
                "pitch": 40,
                "velocity": 51,
                "duration": 0.0840909,
                "tempo": 120.0
            },
            {
                "start_time": 94.3431818,
                "end_time": 94.5318182,
                "pitch": 40,
                "velocity": 51,
                "duration": 0.1886364,
                "tempo": 120.0
            },
            {
                "start_time": 93.0409091,
                "end_time": 94.5477273,
                "pitch": 54,
                "velocity": 51,
                "duration": 1.5068182,
                "tempo": 120.0
            },
            {
                "start_time": 94.5477273,
                "end_time": 94.6318182,
                "pitch": 43,
                "velocity": 51,
                "duration": 0.0840909,
                "tempo": 120.0
            },
            {
                "start_time": 94.65,
                "end_time": 94.8340909,
                "pitch": 43,
                "velocity": 51,
                "duration": 0.1840909,
                "tempo": 120.0
            },
            {
                "start_time": 94.8522727,
                "end_time": 94.9340909,
                "pitch": 43,
                "velocity": 51,
                "duration": 0.0818182,
                "tempo": 120.0
            },
            {
                "start_time": 93.3431818,
                "end_time": 94.9522727,
                "pitch": 0,
                "velocity": 51,
                "duration": 1.6090909,
                "tempo": 120.0
            },
            {
                "start_time": 94.9522727,
                "end_time": 95.1363636,
                "pitch": 41,
                "velocity": 51,
                "duration": 0.1840909,
                "tempo": 120.0
            },
            {
                "start_time": 95.1545455,
                "end_time": 95.3386364,
                "pitch": 41,
                "velocity": 51,
                "duration": 0.1840909,
                "tempo": 120.0
            },
            {
                "start_time": 95.3545455,
                "end_time": 95.4386364,
                "pitch": 41,
                "velocity": 51,
                "duration": 0.0840909,
                "tempo": 120.0
            },
            {
                "start_time": 95.4545455,
                "end_time": 95.6386364,
                "pitch": 41,
                "velocity": 51,
                "duration": 0.1840909,
                "tempo": 120.0
            },
            {
                "start_time": 95.6568182,
                "end_time": 95.7386364,
                "pitch": 41,
                "velocity": 51,
                "duration": 0.0818182,
                "tempo": 120.0
            },
            {
                "start_time": 94.5477273,
                "end_time": 95.7568182,
                "pitch": 54,
                "velocity": 51,
                "duration": 1.2090909,
                "tempo": 120.0
            },
            {
                "start_time": 95.7568182,
                "end_time": 95.9409091,
                "pitch": 43,
                "velocity": 51,
                "duration": 0.1840909,
                "tempo": 120.0
            },
            {
                "start_time": 95.9568182,
                "end_time": 96.1409091,
                "pitch": 43,
                "velocity": 51,
                "duration": 0.1840909,
                "tempo": 120.0
            },
            {
                "start_time": 94.9522727,
                "end_time": 96.1590909,
                "pitch": 0,
                "velocity": 51,
                "duration": 1.2068182,
                "tempo": 120.0
            },
            {
                "start_time": 96.1590909,
                "end_time": 96.2431818,
                "pitch": 41,
                "velocity": 51,
                "duration": 0.0840909,
                "tempo": 120.0
            },
            {
                "start_time": 95.7568182,
                "end_time": 96.2590909,
                "pitch": 54,
                "velocity": 51,
                "duration": 0.5022727,
                "tempo": 120.0
            },
            {
                "start_time": 96.2590909,
                "end_time": 96.4431818,
                "pitch": 43,
                "velocity": 51,
                "duration": 0.1840909,
                "tempo": 120.0
            },
            {
                "start_time": 96.4590909,
                "end_time": 96.5431818,
                "pitch": 43,
                "velocity": 51,
                "duration": 0.0840909,
                "tempo": 120.0
            },
            {
                "start_time": 96.1590909,
                "end_time": 96.5590909,
                "pitch": 0,
                "velocity": 51,
                "duration": 0.4,
                "tempo": 120.0
            },
            {
                "start_time": 93.7545455,
                "end_time": 96.7386364,
                "pitch": 36,
                "velocity": 51,
                "duration": 2.9840909,
                "tempo": 120.0
            },
            {
                "start_time": 96.5590909,
                "end_time": 96.7386364,
                "pitch": 36,
                "velocity": 51,
                "duration": 0.1795455,
                "tempo": 120.0
            },
            {
                "start_time": 96.7568182,
                "end_time": 96.8363636,
                "pitch": 36,
                "velocity": 51,
                "duration": 0.0795455,
                "tempo": 120.0
            },
            {
                "start_time": 96.8545455,
                "end_time": 96.9363636,
                "pitch": 36,
                "velocity": 51,
                "duration": 0.0818182,
                "tempo": 120.0
            },
            {
                "start_time": 94.1386364,
                "end_time": 97.0363636,
                "pitch": 38,
                "velocity": 51,
                "duration": 2.8977273,
                "tempo": 120.0
            },
            {
                "start_time": 96.9522727,
                "end_time": 97.0363636,
                "pitch": 38,
                "velocity": 51,
                "duration": 0.0840909,
                "tempo": 120.0
            },
            {
                "start_time": 97.0545455,
                "end_time": 97.2431818,
                "pitch": 38,
                "velocity": 51,
                "duration": 0.1886364,
                "tempo": 120.0
            },
            {
                "start_time": 97.2613636,
                "end_time": 97.3454545,
                "pitch": 38,
                "velocity": 51,
                "duration": 0.0840909,
                "tempo": 120.0
            },
            {
                "start_time": 97.3636364,
                "end_time": 97.4477273,
                "pitch": 40,
                "velocity": 51,
                "duration": 0.0840909,
                "tempo": 120.0
            },
            {
                "start_time": 97.4636364,
                "end_time": 97.5477273,
                "pitch": 40,
                "velocity": 51,
                "duration": 0.0840909,
                "tempo": 120.0
            },
            {
                "start_time": 97.5636364,
                "end_time": 97.7477273,
                "pitch": 40,
                "velocity": 51,
                "duration": 0.1840909,
                "tempo": 120.0
            },
            {
                "start_time": 96.2590909,
                "end_time": 97.7636364,
                "pitch": 54,
                "velocity": 51,
                "duration": 1.5045455,
                "tempo": 120.0
            },
            {
                "start_time": 97.7636364,
                "end_time": 97.8477273,
                "pitch": 43,
                "velocity": 51,
                "duration": 0.0840909,
                "tempo": 120.0
            },
            {
                "start_time": 97.8659091,
                "end_time": 98.05,
                "pitch": 43,
                "velocity": 51,
                "duration": 0.1840909,
                "tempo": 120.0
            },
            {
                "start_time": 98.0659091,
                "end_time": 98.15,
                "pitch": 43,
                "velocity": 51,
                "duration": 0.0840909,
                "tempo": 120.0
            },
            {
                "start_time": 96.5590909,
                "end_time": 98.1681818,
                "pitch": 0,
                "velocity": 51,
                "duration": 1.6090909,
                "tempo": 120.0
            },
            {
                "start_time": 98.1681818,
                "end_time": 98.3545455,
                "pitch": 41,
                "velocity": 51,
                "duration": 0.1863636,
                "tempo": 120.0
            },
            {
                "start_time": 98.3727273,
                "end_time": 98.5613636,
                "pitch": 41,
                "velocity": 51,
                "duration": 0.1886364,
                "tempo": 120.0
            },
            {
                "start_time": 98.5795455,
                "end_time": 98.6636364,
                "pitch": 41,
                "velocity": 51,
                "duration": 0.0840909,
                "tempo": 120.0
            },
            {
                "start_time": 98.6795455,
                "end_time": 98.8636364,
                "pitch": 41,
                "velocity": 51,
                "duration": 0.1840909,
                "tempo": 120.0
            },
            {
                "start_time": 98.8818182,
                "end_time": 98.9659091,
                "pitch": 41,
                "velocity": 51,
                "duration": 0.0840909,
                "tempo": 120.0
            },
            {
                "start_time": 97.7636364,
                "end_time": 98.9818182,
                "pitch": 54,
                "velocity": 51,
                "duration": 1.2181818,
                "tempo": 120.0
            },
            {
                "start_time": 98.9818182,
                "end_time": 99.1659091,
                "pitch": 43,
                "velocity": 51,
                "duration": 0.1840909,
                "tempo": 120.0
            },
            {
                "start_time": 99.1818182,
                "end_time": 99.3659091,
                "pitch": 43,
                "velocity": 51,
                "duration": 0.1840909,
                "tempo": 120.0
            },
            {
                "start_time": 98.1681818,
                "end_time": 99.3818182,
                "pitch": 0,
                "velocity": 51,
                "duration": 1.2136364,
                "tempo": 120.0
            },
            {
                "start_time": 99.3818182,
                "end_time": 99.4636364,
                "pitch": 41,
                "velocity": 51,
                "duration": 0.0818182,
                "tempo": 120.0
            },
            {
                "start_time": 98.9818182,
                "end_time": 99.4818182,
                "pitch": 54,
                "velocity": 51,
                "duration": 0.5,
                "tempo": 120.0
            },
            {
                "start_time": 99.4818182,
                "end_time": 99.6613636,
                "pitch": 43,
                "velocity": 51,
                "duration": 0.1795455,
                "tempo": 120.0
            },
            {
                "start_time": 99.6772727,
                "end_time": 99.7590909,
                "pitch": 43,
                "velocity": 51,
                "duration": 0.0818182,
                "tempo": 120.0
            },
            {
                "start_time": 99.3818182,
                "end_time": 99.775,
                "pitch": 0,
                "velocity": 51,
                "duration": 0.3931818,
                "tempo": 120.0
            },
            {
                "start_time": 96.9522727,
                "end_time": 99.9590909,
                "pitch": 36,
                "velocity": 51,
                "duration": 3.0068182,
                "tempo": 120.0
            },
            {
                "start_time": 99.775,
                "end_time": 99.9590909,
                "pitch": 36,
                "velocity": 51,
                "duration": 0.1840909,
                "tempo": 120.0
            },
            {
                "start_time": 99.9772727,
                "end_time": 100.0613636,
                "pitch": 36,
                "velocity": 51,
                "duration": 0.0840909,
                "tempo": 120.0
            },
            {
                "start_time": 100.0772727,
                "end_time": 100.1613636,
                "pitch": 48,
                "velocity": 51,
                "duration": 0.0840909,
                "tempo": 120.0
            },
            {
                "start_time": 100.1795455,
                "end_time": 100.2613636,
                "pitch": 36,
                "velocity": 51,
                "duration": 0.0818182,
                "tempo": 120.0
            },
            {
                "start_time": 100.2795455,
                "end_time": 100.4613636,
                "pitch": 48,
                "velocity": 51,
                "duration": 0.1818182,
                "tempo": 120.0
            },
            {
                "start_time": 100.4795455,
                "end_time": 100.5613636,
                "pitch": 36,
                "velocity": 51,
                "duration": 0.0818182,
                "tempo": 120.0
            },
            {
                "start_time": 100.5795455,
                "end_time": 100.6636364,
                "pitch": 43,
                "velocity": 51,
                "duration": 0.0840909,
                "tempo": 120.0
            },
            {
                "start_time": 100.6818182,
                "end_time": 100.7681818,
                "pitch": 43,
                "velocity": 51,
                "duration": 0.0863636,
                "tempo": 120.0
            },
            {
                "start_time": 100.7840909,
                "end_time": 100.8704545,
                "pitch": 43,
                "velocity": 51,
                "duration": 0.0863636,
                "tempo": 120.0
            },
            {
                "start_time": 100.8886364,
                "end_time": 100.9727273,
                "pitch": 43,
                "velocity": 51,
                "duration": 0.0840909,
                "tempo": 120.0
            },
            {
                "start_time": 100.9909091,
                "end_time": 101.0727273,
                "pitch": 43,
                "velocity": 51,
                "duration": 0.0818182,
                "tempo": 120.0
            },
            {
                "start_time": 101.0886364,
                "end_time": 101.1704545,
                "pitch": 43,
                "velocity": 51,
                "duration": 0.0818182,
                "tempo": 120.0
            },
            {
                "start_time": 101.1863636,
                "end_time": 101.2681818,
                "pitch": 43,
                "velocity": 51,
                "duration": 0.0818182,
                "tempo": 120.0
            },
            {
                "start_time": 101.2840909,
                "end_time": 101.3659091,
                "pitch": 43,
                "velocity": 51,
                "duration": 0.0818182,
                "tempo": 120.0
            },
            {
                "start_time": 99.775,
                "end_time": 101.3840909,
                "pitch": 0,
                "velocity": 51,
                "duration": 1.6090909,
                "tempo": 120.0
            },
            {
                "start_time": 97.3636364,
                "end_time": 101.5659091,
                "pitch": 38,
                "velocity": 51,
                "duration": 4.2022727,
                "tempo": 120.0
            },
            {
                "start_time": 101.3840909,
                "end_time": 101.5659091,
                "pitch": 38,
                "velocity": 51,
                "duration": 0.1818182,
                "tempo": 120.0
            },
            {
                "start_time": 101.5840909,
                "end_time": 101.6659091,
                "pitch": 38,
                "velocity": 51,
                "duration": 0.0818182,
                "tempo": 120.0
            },
            {
                "start_time": 101.6840909,
                "end_time": 101.7659091,
                "pitch": 38,
                "velocity": 51,
                "duration": 0.0818182,
                "tempo": 120.0
            },
            {
                "start_time": 101.7840909,
                "end_time": 101.8681818,
                "pitch": 40,
                "velocity": 51,
                "duration": 0.0840909,
                "tempo": 120.0
            },
            {
                "start_time": 101.8863636,
                "end_time": 102.075,
                "pitch": 40,
                "velocity": 51,
                "duration": 0.1886364,
                "tempo": 120.0
            },
            {
                "start_time": 102.0909091,
                "end_time": 102.1772727,
                "pitch": 40,
                "velocity": 51,
                "duration": 0.0863636,
                "tempo": 120.0
            },
            {
                "start_time": 102.1954545,
                "end_time": 102.2795455,
                "pitch": 40,
                "velocity": 51,
                "duration": 0.0840909,
                "tempo": 120.0
            },
            {
                "start_time": 102.2954545,
                "end_time": 102.3795455,
                "pitch": 41,
                "velocity": 51,
                "duration": 0.0840909,
                "tempo": 120.0
            },
            {
                "start_time": 102.3977273,
                "end_time": 102.5818182,
                "pitch": 41,
                "velocity": 51,
                "duration": 0.1840909,
                "tempo": 120.0
            },
            {
                "start_time": 99.4818182,
                "end_time": 102.5977273,
                "pitch": 54,
                "velocity": 51,
                "duration": 3.1159091,
                "tempo": 120.0
            },
            {
                "start_time": 102.5977273,
                "end_time": 102.7818182,
                "pitch": 43,
                "velocity": 51,
                "duration": 0.1840909,
                "tempo": 120.0
            },
            {
                "start_time": 101.3840909,
                "end_time": 102.8,
                "pitch": 0,
                "velocity": 51,
                "duration": 1.4159091,
                "tempo": 120.0
            },
            {
                "start_time": 101.7840909,
                "end_time": 103.1840909,
                "pitch": 38,
                "velocity": 51,
                "duration": 1.4,
                "tempo": 120.0
            },
            {
                "start_time": 102.8,
                "end_time": 103.1840909,
                "pitch": 38,
                "velocity": 51,
                "duration": 0.3840909,
                "tempo": 120.0
            },
            {
                "start_time": 103.2022727,
                "end_time": 103.2840909,
                "pitch": 38,
                "velocity": 51,
                "duration": 0.0818182,
                "tempo": 120.0
            },
            {
                "start_time": 103.3022727,
                "end_time": 103.3863636,
                "pitch": 38,
                "velocity": 51,
                "duration": 0.0840909,
                "tempo": 120.0
            },
            {
                "start_time": 103.4022727,
                "end_time": 103.4863636,
                "pitch": 40,
                "velocity": 51,
                "duration": 0.0840909,
                "tempo": 120.0
            },
            {
                "start_time": 103.5022727,
                "end_time": 103.6863636,
                "pitch": 40,
                "velocity": 51,
                "duration": 0.1840909,
                "tempo": 120.0
            },
            {
                "start_time": 103.7045455,
                "end_time": 103.7886364,
                "pitch": 40,
                "velocity": 51,
                "duration": 0.0840909,
                "tempo": 120.0
            },
            {
                "start_time": 103.8045455,
                "end_time": 103.8886364,
                "pitch": 40,
                "velocity": 51,
                "duration": 0.0840909,
                "tempo": 120.0
            },
            {
                "start_time": 103.9045455,
                "end_time": 103.9886364,
                "pitch": 41,
                "velocity": 51,
                "duration": 0.0840909,
                "tempo": 120.0
            },
            {
                "start_time": 104.0068182,
                "end_time": 104.1886364,
                "pitch": 41,
                "velocity": 51,
                "duration": 0.1818182,
                "tempo": 120.0
            },
            {
                "start_time": 102.5977273,
                "end_time": 104.2068182,
                "pitch": 54,
                "velocity": 51,
                "duration": 1.6090909,
                "tempo": 120.0
            },
            {
                "start_time": 104.2068182,
                "end_time": 104.3909091,
                "pitch": 43,
                "velocity": 51,
                "duration": 0.1840909,
                "tempo": 120.0
            },
            {
                "start_time": 102.8,
                "end_time": 104.4068182,
                "pitch": 0,
                "velocity": 51,
                "duration": 1.6068182,
                "tempo": 120.0
            },
            {
                "start_time": 103.4022727,
                "end_time": 104.7931818,
                "pitch": 38,
                "velocity": 51,
                "duration": 1.3909091,
                "tempo": 120.0
            },
            {
                "start_time": 104.4068182,
                "end_time": 104.7931818,
                "pitch": 38,
                "velocity": 51,
                "duration": 0.3863636,
                "tempo": 120.0
            },
            {
                "start_time": 104.8113636,
                "end_time": 104.8954545,
                "pitch": 38,
                "velocity": 51,
                "duration": 0.0840909,
                "tempo": 120.0
            },
            {
                "start_time": 104.9113636,
                "end_time": 104.9954545,
                "pitch": 38,
                "velocity": 51,
                "duration": 0.0840909,
                "tempo": 120.0
            },
            {
                "start_time": 105.0113636,
                "end_time": 105.0977273,
                "pitch": 40,
                "velocity": 51,
                "duration": 0.0863636,
                "tempo": 120.0
            },
            {
                "start_time": 105.1159091,
                "end_time": 105.3022727,
                "pitch": 40,
                "velocity": 51,
                "duration": 0.1863636,
                "tempo": 120.0
            },
            {
                "start_time": 105.3204545,
                "end_time": 105.4068182,
                "pitch": 40,
                "velocity": 51,
                "duration": 0.0863636,
                "tempo": 120.0
            },
            {
                "start_time": 105.4227273,
                "end_time": 105.5068182,
                "pitch": 40,
                "velocity": 51,
                "duration": 0.0840909,
                "tempo": 120.0
            },
            {
                "start_time": 105.525,
                "end_time": 105.6068182,
                "pitch": 41,
                "velocity": 51,
                "duration": 0.0818182,
                "tempo": 120.0
            },
            {
                "start_time": 105.625,
                "end_time": 105.8068182,
                "pitch": 41,
                "velocity": 51,
                "duration": 0.1818182,
                "tempo": 120.0
            },
            {
                "start_time": 104.2068182,
                "end_time": 105.825,
                "pitch": 54,
                "velocity": 51,
                "duration": 1.6181818,
                "tempo": 120.0
            },
            {
                "start_time": 105.825,
                "end_time": 106.0045455,
                "pitch": 43,
                "velocity": 51,
                "duration": 0.1795455,
                "tempo": 120.0
            },
            {
                "start_time": 104.4068182,
                "end_time": 106.0204545,
                "pitch": 0,
                "velocity": 51,
                "duration": 1.6136364,
                "tempo": 120.0
            },
            {
                "start_time": 105.0113636,
                "end_time": 106.4022727,
                "pitch": 38,
                "velocity": 51,
                "duration": 1.3909091,
                "tempo": 120.0
            },
            {
                "start_time": 106.0204545,
                "end_time": 106.4022727,
                "pitch": 38,
                "velocity": 51,
                "duration": 0.3818182,
                "tempo": 120.0
            },
            {
                "start_time": 106.4181818,
                "end_time": 106.5022727,
                "pitch": 38,
                "velocity": 51,
                "duration": 0.0840909,
                "tempo": 120.0
            },
            {
                "start_time": 106.5204545,
                "end_time": 106.6022727,
                "pitch": 38,
                "velocity": 51,
                "duration": 0.0818182,
                "tempo": 120.0
            },
            {
                "start_time": 106.6204545,
                "end_time": 106.7045455,
                "pitch": 40,
                "velocity": 51,
                "duration": 0.0840909,
                "tempo": 120.0
            },
            {
                "start_time": 106.7204545,
                "end_time": 106.9068182,
                "pitch": 40,
                "velocity": 51,
                "duration": 0.1863636,
                "tempo": 120.0
            },
            {
                "start_time": 106.9227273,
                "end_time": 107.0068182,
                "pitch": 40,
                "velocity": 51,
                "duration": 0.0840909,
                "tempo": 120.0
            },
            {
                "start_time": 107.0227273,
                "end_time": 107.1090909,
                "pitch": 40,
                "velocity": 51,
                "duration": 0.0863636,
                "tempo": 120.0
            },
            {
                "start_time": 107.1272727,
                "end_time": 107.2113636,
                "pitch": 41,
                "velocity": 51,
                "duration": 0.0840909,
                "tempo": 120.0
            },
            {
                "start_time": 107.2295455,
                "end_time": 107.4181818,
                "pitch": 41,
                "velocity": 51,
                "duration": 0.1886364,
                "tempo": 120.0
            },
            {
                "start_time": 107.4340909,
                "end_time": 107.5159091,
                "pitch": 55,
                "velocity": 51,
                "duration": 0.0818182,
                "tempo": 120.0
            },
            {
                "start_time": 107.5340909,
                "end_time": 107.6159091,
                "pitch": 55,
                "velocity": 51,
                "duration": 0.0818182,
                "tempo": 120.0
            },
            {
                "start_time": 107.6318182,
                "end_time": 107.7136364,
                "pitch": 55,
                "velocity": 51,
                "duration": 0.0818182,
                "tempo": 120.0
            },
            {
                "start_time": 107.7295455,
                "end_time": 107.8113636,
                "pitch": 55,
                "velocity": 51,
                "duration": 0.0818182,
                "tempo": 120.0
            },
            {
                "start_time": 106.0204545,
                "end_time": 107.8272727,
                "pitch": 0,
                "velocity": 51,
                "duration": 1.8068182,
                "tempo": 120.0
            },
            {
                "start_time": 107.8272727,
                "end_time": 108.2113636,
                "pitch": 36,
                "velocity": 51,
                "duration": 0.3840909,
                "tempo": 120.0
            },
            {
                "start_time": 108.2272727,
                "end_time": 108.6136364,
                "pitch": 36,
                "velocity": 51,
                "duration": 0.3863636,
                "tempo": 120.0
            },
            {
                "start_time": 108.6318182,
                "end_time": 108.8204545,
                "pitch": 36,
                "velocity": 51,
                "duration": 0.1886364,
                "tempo": 120.0
            },
            {
                "start_time": 108.8363636,
                "end_time": 109.2272727,
                "pitch": 36,
                "velocity": 51,
                "duration": 0.3909091,
                "tempo": 120.0
            },
            {
                "start_time": 109.2454545,
                "end_time": 109.6295455,
                "pitch": 36,
                "velocity": 51,
                "duration": 0.3840909,
                "tempo": 120.0
            },
            {
                "start_time": 109.6454545,
                "end_time": 109.8295455,
                "pitch": 36,
                "velocity": 51,
                "duration": 0.1840909,
                "tempo": 120.0
            },
            {
                "start_time": 109.8477273,
                "end_time": 110.2409091,
                "pitch": 36,
                "velocity": 51,
                "duration": 0.3931818,
                "tempo": 120.0
            },
            {
                "start_time": 110.2568182,
                "end_time": 110.4386364,
                "pitch": 36,
                "velocity": 51,
                "duration": 0.1818182,
                "tempo": 120.0
            },
            {
                "start_time": 110.4545455,
                "end_time": 110.8386364,
                "pitch": 36,
                "velocity": 51,
                "duration": 0.3840909,
                "tempo": 120.0
            },
            {
                "start_time": 110.8568182,
                "end_time": 111.0431818,
                "pitch": 36,
                "velocity": 51,
                "duration": 0.1863636,
                "tempo": 120.0
            },
            {
                "start_time": 111.0613636,
                "end_time": 111.4386364,
                "pitch": 36,
                "velocity": 51,
                "duration": 0.3772727,
                "tempo": 120.0
            },
            {
                "start_time": 111.4545455,
                "end_time": 111.8386364,
                "pitch": 36,
                "velocity": 51,
                "duration": 0.3840909,
                "tempo": 120.0
            },
            {
                "start_time": 111.8545455,
                "end_time": 112.0431818,
                "pitch": 36,
                "velocity": 51,
                "duration": 0.1886364,
                "tempo": 120.0
            },
            {
                "start_time": 112.0613636,
                "end_time": 112.45,
                "pitch": 36,
                "velocity": 51,
                "duration": 0.3886364,
                "tempo": 120.0
            },
            {
                "start_time": 112.4659091,
                "end_time": 112.8477273,
                "pitch": 36,
                "velocity": 51,
                "duration": 0.3818182,
                "tempo": 120.0
            },
            {
                "start_time": 112.8636364,
                "end_time": 113.0431818,
                "pitch": 36,
                "velocity": 51,
                "duration": 0.1795455,
                "tempo": 120.0
            },
            {
                "start_time": 113.0590909,
                "end_time": 113.4454545,
                "pitch": 36,
                "velocity": 51,
                "duration": 0.3863636,
                "tempo": 120.0
            },
            {
                "start_time": 113.4636364,
                "end_time": 113.6454545,
                "pitch": 36,
                "velocity": 51,
                "duration": 0.1818182,
                "tempo": 120.0
            },
            {
                "start_time": 113.6636364,
                "end_time": 114.0477273,
                "pitch": 36,
                "velocity": 51,
                "duration": 0.3840909,
                "tempo": 120.0
            },
            {
                "start_time": 114.0659091,
                "end_time": 114.25,
                "pitch": 36,
                "velocity": 51,
                "duration": 0.1840909,
                "tempo": 120.0
            },
            {
                "start_time": 114.2659091,
                "end_time": 114.6522727,
                "pitch": 36,
                "velocity": 51,
                "duration": 0.3863636,
                "tempo": 120.0
            },
            {
                "start_time": 114.6704545,
                "end_time": 115.0545455,
                "pitch": 36,
                "velocity": 51,
                "duration": 0.3840909,
                "tempo": 120.0
            },
            {
                "start_time": 115.0704545,
                "end_time": 115.2590909,
                "pitch": 36,
                "velocity": 51,
                "duration": 0.1886364,
                "tempo": 120.0
            },
            {
                "start_time": 115.275,
                "end_time": 115.6613636,
                "pitch": 36,
                "velocity": 51,
                "duration": 0.3863636,
                "tempo": 120.0
            },
            {
                "start_time": 115.6772727,
                "end_time": 116.0613636,
                "pitch": 36,
                "velocity": 51,
                "duration": 0.3840909,
                "tempo": 120.0
            },
            {
                "start_time": 116.0795455,
                "end_time": 116.2681818,
                "pitch": 36,
                "velocity": 51,
                "duration": 0.1886364,
                "tempo": 120.0
            },
            {
                "start_time": 116.2863636,
                "end_time": 116.6704545,
                "pitch": 36,
                "velocity": 51,
                "duration": 0.3840909,
                "tempo": 120.0
            },
            {
                "start_time": 116.6863636,
                "end_time": 116.8704545,
                "pitch": 36,
                "velocity": 51,
                "duration": 0.1840909,
                "tempo": 120.0
            },
            {
                "start_time": 116.8886364,
                "end_time": 117.2772727,
                "pitch": 36,
                "velocity": 51,
                "duration": 0.3886364,
                "tempo": 120.0
            },
            {
                "start_time": 117.2954545,
                "end_time": 117.4840909,
                "pitch": 36,
                "velocity": 51,
                "duration": 0.1886364,
                "tempo": 120.0
            },
            {
                "start_time": 117.5,
                "end_time": 117.8772727,
                "pitch": 36,
                "velocity": 51,
                "duration": 0.3772727,
                "tempo": 120.0
            },
            {
                "start_time": 117.8931818,
                "end_time": 118.2795455,
                "pitch": 36,
                "velocity": 51,
                "duration": 0.3863636,
                "tempo": 120.0
            },
            {
                "start_time": 118.2977273,
                "end_time": 118.4795455,
                "pitch": 36,
                "velocity": 51,
                "duration": 0.1818182,
                "tempo": 120.0
            },
            {
                "start_time": 118.4977273,
                "end_time": 118.8840909,
                "pitch": 36,
                "velocity": 51,
                "duration": 0.3863636,
                "tempo": 120.0
            },
            {
                "start_time": 118.9022727,
                "end_time": 119.2886364,
                "pitch": 36,
                "velocity": 51,
                "duration": 0.3863636,
                "tempo": 120.0
            },
            {
                "start_time": 119.3045455,
                "end_time": 119.4840909,
                "pitch": 36,
                "velocity": 51,
                "duration": 0.1795455,
                "tempo": 120.0
            },
            {
                "start_time": 119.5022727,
                "end_time": 119.8863636,
                "pitch": 36,
                "velocity": 51,
                "duration": 0.3840909,
                "tempo": 120.0
            },
            {
                "start_time": 119.9045455,
                "end_time": 120.0886364,
                "pitch": 36,
                "velocity": 51,
                "duration": 0.1840909,
                "tempo": 120.0
            },
            {
                "start_time": 120.1068182,
                "end_time": 120.4909091,
                "pitch": 36,
                "velocity": 51,
                "duration": 0.3840909,
                "tempo": 120.0
            },
            {
                "start_time": 120.5090909,
                "end_time": 120.6909091,
                "pitch": 36,
                "velocity": 51,
                "duration": 0.1818182,
                "tempo": 120.0
            },
            {
                "start_time": 120.7090909,
                "end_time": 120.8931818,
                "pitch": 36,
                "velocity": 51,
                "duration": 0.1840909,
                "tempo": 120.0
            },
            {
                "start_time": 120.9090909,
                "end_time": 121.0954545,
                "pitch": 36,
                "velocity": 51,
                "duration": 0.1863636,
                "tempo": 120.0
            },
            {
                "start_time": 121.1113636,
                "end_time": 121.2954545,
                "pitch": 36,
                "velocity": 51,
                "duration": 0.1840909,
                "tempo": 120.0
            },
            {
                "start_time": 121.3113636,
                "end_time": 121.4954545,
                "pitch": 36,
                "velocity": 51,
                "duration": 0.1840909,
                "tempo": 120.0
            },
            {
                "start_time": 121.5113636,
                "end_time": 121.6954545,
                "pitch": 36,
                "velocity": 51,
                "duration": 0.1840909,
                "tempo": 120.0
            },
            {
                "start_time": 121.7136364,
                "end_time": 121.8977273,
                "pitch": 36,
                "velocity": 51,
                "duration": 0.1840909,
                "tempo": 120.0
            },
            {
                "start_time": 121.9159091,
                "end_time": 122.1,
                "pitch": 36,
                "velocity": 51,
                "duration": 0.1840909,
                "tempo": 120.0
            },
            {
                "start_time": 122.1159091,
                "end_time": 122.2,
                "pitch": 36,
                "velocity": 51,
                "duration": 0.0840909,
                "tempo": 120.0
            },
            {
                "start_time": 122.2181818,
                "end_time": 122.3022727,
                "pitch": 36,
                "velocity": 51,
                "duration": 0.0840909,
                "tempo": 120.0
            },
            {
                "start_time": 122.3181818,
                "end_time": 122.5068182,
                "pitch": 34,
                "velocity": 51,
                "duration": 0.1886364,
                "tempo": 120.0
            },
            {
                "start_time": 122.525,
                "end_time": 122.7113636,
                "pitch": 34,
                "velocity": 51,
                "duration": 0.1863636,
                "tempo": 120.0
            },
            {
                "start_time": 122.7295455,
                "end_time": 122.9090909,
                "pitch": 34,
                "velocity": 51,
                "duration": 0.1795455,
                "tempo": 120.0
            },
            {
                "start_time": 122.9272727,
                "end_time": 123.1068182,
                "pitch": 34,
                "velocity": 51,
                "duration": 0.1795455,
                "tempo": 120.0
            },
            {
                "start_time": 123.1227273,
                "end_time": 123.3068182,
                "pitch": 34,
                "velocity": 51,
                "duration": 0.1840909,
                "tempo": 120.0
            },
            {
                "start_time": 123.3227273,
                "end_time": 123.5068182,
                "pitch": 34,
                "velocity": 51,
                "duration": 0.1840909,
                "tempo": 120.0
            },
            {
                "start_time": 123.5227273,
                "end_time": 123.7068182,
                "pitch": 34,
                "velocity": 51,
                "duration": 0.1840909,
                "tempo": 120.0
            },
            {
                "start_time": 123.725,
                "end_time": 123.8090909,
                "pitch": 34,
                "velocity": 51,
                "duration": 0.0840909,
                "tempo": 120.0
            },
            {
                "start_time": 123.825,
                "end_time": 123.9090909,
                "pitch": 34,
                "velocity": 51,
                "duration": 0.0840909,
                "tempo": 120.0
            },
            {
                "start_time": 123.9272727,
                "end_time": 124.1136364,
                "pitch": 34,
                "velocity": 51,
                "duration": 0.1863636,
                "tempo": 120.0
            },
            {
                "start_time": 124.1318182,
                "end_time": 124.3204545,
                "pitch": 33,
                "velocity": 51,
                "duration": 0.1886364,
                "tempo": 120.0
            },
            {
                "start_time": 124.3386364,
                "end_time": 124.5227273,
                "pitch": 33,
                "velocity": 51,
                "duration": 0.1840909,
                "tempo": 120.0
            },
            {
                "start_time": 124.5386364,
                "end_time": 124.725,
                "pitch": 33,
                "velocity": 51,
                "duration": 0.1863636,
                "tempo": 120.0
            },
            {
                "start_time": 124.7409091,
                "end_time": 124.925,
                "pitch": 33,
                "velocity": 51,
                "duration": 0.1840909,
                "tempo": 120.0
            },
            {
                "start_time": 124.9431818,
                "end_time": 125.1272727,
                "pitch": 33,
                "velocity": 51,
                "duration": 0.1840909,
                "tempo": 120.0
            },
            {
                "start_time": 125.1454545,
                "end_time": 125.3272727,
                "pitch": 33,
                "velocity": 51,
                "duration": 0.1818182,
                "tempo": 120.0
            },
            {
                "start_time": 125.3454545,
                "end_time": 125.4272727,
                "pitch": 33,
                "velocity": 51,
                "duration": 0.0818182,
                "tempo": 120.0
            },
            {
                "start_time": 125.4454545,
                "end_time": 125.5272727,
                "pitch": 33,
                "velocity": 51,
                "duration": 0.0818182,
                "tempo": 120.0
            },
            {
                "start_time": 125.7454545,
                "end_time": 125.9318182,
                "pitch": 29,
                "velocity": 51,
                "duration": 0.1863636,
                "tempo": 120.0
            },
            {
                "start_time": 125.9477273,
                "end_time": 126.1318182,
                "pitch": 29,
                "velocity": 51,
                "duration": 0.1840909,
                "tempo": 120.0
            },
            {
                "start_time": 126.1477273,
                "end_time": 126.3318182,
                "pitch": 29,
                "velocity": 51,
                "duration": 0.1840909,
                "tempo": 120.0
            },
            {
                "start_time": 126.3477273,
                "end_time": 126.5340909,
                "pitch": 29,
                "velocity": 51,
                "duration": 0.1863636,
                "tempo": 120.0
            },
            {
                "start_time": 126.55,
                "end_time": 126.7340909,
                "pitch": 29,
                "velocity": 51,
                "duration": 0.1840909,
                "tempo": 120.0
            },
            {
                "start_time": 126.7522727,
                "end_time": 126.9363636,
                "pitch": 29,
                "velocity": 51,
                "duration": 0.1840909,
                "tempo": 120.0
            },
            {
                "start_time": 126.9545455,
                "end_time": 127.0363636,
                "pitch": 29,
                "velocity": 51,
                "duration": 0.0818182,
                "tempo": 120.0
            },
            {
                "start_time": 127.0545455,
                "end_time": 127.1386364,
                "pitch": 29,
                "velocity": 51,
                "duration": 0.0840909,
                "tempo": 120.0
            },
            {
                "start_time": 106.6204545,
                "end_time": 127.3386364,
                "pitch": 38,
                "velocity": 51,
                "duration": 20.7181818,
                "tempo": 120.0
            },
            {
                "start_time": 127.1545455,
                "end_time": 127.3386364,
                "pitch": 38,
                "velocity": 51,
                "duration": 0.1840909,
                "tempo": 120.0
            },
            {
                "start_time": 127.3545455,
                "end_time": 127.5386364,
                "pitch": 38,
                "velocity": 51,
                "duration": 0.1840909,
                "tempo": 120.0
            },
            {
                "start_time": 127.5568182,
                "end_time": 127.7409091,
                "pitch": 38,
                "velocity": 51,
                "duration": 0.1840909,
                "tempo": 120.0
            },
            {
                "start_time": 127.7568182,
                "end_time": 127.9409091,
                "pitch": 38,
                "velocity": 51,
                "duration": 0.1840909,
                "tempo": 120.0
            },
            {
                "start_time": 127.9590909,
                "end_time": 128.1431818,
                "pitch": 38,
                "velocity": 51,
                "duration": 0.1840909,
                "tempo": 120.0
            },
            {
                "start_time": 128.1590909,
                "end_time": 128.3431818,
                "pitch": 38,
                "velocity": 51,
                "duration": 0.1840909,
                "tempo": 120.0
            },
            {
                "start_time": 128.3590909,
                "end_time": 128.5431818,
                "pitch": 38,
                "velocity": 51,
                "duration": 0.1840909,
                "tempo": 120.0
            },
            {
                "start_time": 128.5613636,
                "end_time": 128.6454545,
                "pitch": 38,
                "velocity": 51,
                "duration": 0.0840909,
                "tempo": 120.0
            },
            {
                "start_time": 128.6613636,
                "end_time": 128.7454545,
                "pitch": 38,
                "velocity": 51,
                "duration": 0.0840909,
                "tempo": 120.0
            },
            {
                "start_time": 122.3181818,
                "end_time": 128.95,
                "pitch": 40,
                "velocity": 51,
                "duration": 6.6318182,
                "tempo": 120.0
            },
            {
                "start_time": 128.7636364,
                "end_time": 128.95,
                "pitch": 40,
                "velocity": 51,
                "duration": 0.1863636,
                "tempo": 120.0
            },
            {
                "start_time": 128.9681818,
                "end_time": 129.1568182,
                "pitch": 40,
                "velocity": 51,
                "duration": 0.1886364,
                "tempo": 120.0
            },
            {
                "start_time": 129.175,
                "end_time": 129.3590909,
                "pitch": 40,
                "velocity": 51,
                "duration": 0.1840909,
                "tempo": 120.0
            },
            {
                "start_time": 129.375,
                "end_time": 129.5613636,
                "pitch": 40,
                "velocity": 51,
                "duration": 0.1863636,
                "tempo": 120.0
            },
            {
                "start_time": 129.5772727,
                "end_time": 129.7568182,
                "pitch": 40,
                "velocity": 51,
                "duration": 0.1795455,
                "tempo": 120.0
            },
            {
                "start_time": 129.775,
                "end_time": 129.9545455,
                "pitch": 40,
                "velocity": 51,
                "duration": 0.1795455,
                "tempo": 120.0
            },
            {
                "start_time": 129.9704545,
                "end_time": 130.1568182,
                "pitch": 40,
                "velocity": 51,
                "duration": 0.1863636,
                "tempo": 120.0
            },
            {
                "start_time": 130.175,
                "end_time": 130.2613636,
                "pitch": 40,
                "velocity": 51,
                "duration": 0.0863636,
                "tempo": 120.0
            },
            {
                "start_time": 130.2772727,
                "end_time": 130.3636364,
                "pitch": 40,
                "velocity": 51,
                "duration": 0.0863636,
                "tempo": 120.0
            },
            {
                "start_time": 130.3818182,
                "end_time": 130.5613636,
                "pitch": 40,
                "velocity": 51,
                "duration": 0.1795455,
                "tempo": 120.0
            },
            {
                "start_time": 127.1545455,
                "end_time": 130.7568182,
                "pitch": 41,
                "velocity": 51,
                "duration": 3.6022727,
                "tempo": 120.0
            },
            {
                "start_time": 130.5772727,
                "end_time": 130.7568182,
                "pitch": 41,
                "velocity": 51,
                "duration": 0.1795455,
                "tempo": 120.0
            },
            {
                "start_time": 130.775,
                "end_time": 130.9590909,
                "pitch": 41,
                "velocity": 51,
                "duration": 0.1840909,
                "tempo": 120.0
            },
            {
                "start_time": 130.975,
                "end_time": 131.1590909,
                "pitch": 41,
                "velocity": 51,
                "duration": 0.1840909,
                "tempo": 120.0
            },
            {
                "start_time": 131.1772727,
                "end_time": 131.3613636,
                "pitch": 41,
                "velocity": 51,
                "duration": 0.1840909,
                "tempo": 120.0
            },
            {
                "start_time": 131.3795455,
                "end_time": 131.5636364,
                "pitch": 41,
                "velocity": 51,
                "duration": 0.1840909,
                "tempo": 120.0
            },
            {
                "start_time": 131.5795455,
                "end_time": 131.7636364,
                "pitch": 41,
                "velocity": 51,
                "duration": 0.1840909,
                "tempo": 120.0
            },
            {
                "start_time": 131.7795455,
                "end_time": 131.8636364,
                "pitch": 41,
                "velocity": 51,
                "duration": 0.0840909,
                "tempo": 120.0
            },
            {
                "start_time": 131.8795455,
                "end_time": 131.9636364,
                "pitch": 41,
                "velocity": 51,
                "duration": 0.0840909,
                "tempo": 120.0
            },
            {
                "start_time": 51.4863636,
                "end_time": 131.9818182,
                "pitch": 42,
                "velocity": 51,
                "duration": 80.4954545,
                "tempo": 120.0
            },
            {
                "start_time": 131.9818182,
                "end_time": 132.1681818,
                "pitch": 31,
                "velocity": 51,
                "duration": 0.1863636,
                "tempo": 120.0
            },
            {
                "start_time": 132.1863636,
                "end_time": 132.2727273,
                "pitch": 31,
                "velocity": 51,
                "duration": 0.0863636,
                "tempo": 120.0
            },
            {
                "start_time": 132.2886364,
                "end_time": 132.375,
                "pitch": 31,
                "velocity": 51,
                "duration": 0.0863636,
                "tempo": 120.0
            },
            {
                "start_time": 132.3909091,
                "end_time": 132.5772727,
                "pitch": 31,
                "velocity": 51,
                "duration": 0.1863636,
                "tempo": 120.0
            },
            {
                "start_time": 132.5931818,
                "end_time": 132.6772727,
                "pitch": 33,
                "velocity": 51,
                "duration": 0.0840909,
                "tempo": 120.0
            },
            {
                "start_time": 132.6954545,
                "end_time": 132.7772727,
                "pitch": 33,
                "velocity": 51,
                "duration": 0.0818182,
                "tempo": 120.0
            },
            {
                "start_time": 132.7954545,
                "end_time": 132.9795455,
                "pitch": 35,
                "velocity": 51,
                "duration": 0.1840909,
                "tempo": 120.0
            },
            {
                "start_time": 132.9977273,
                "end_time": 133.0818182,
                "pitch": 35,
                "velocity": 51,
                "duration": 0.0840909,
                "tempo": 120.0
            },
            {
                "start_time": 133.0977273,
                "end_time": 133.1818182,
                "pitch": 35,
                "velocity": 51,
                "duration": 0.0840909,
                "tempo": 120.0
            },
            {
                "start_time": 52.6886364,
                "end_time": 133.1977273,
                "pitch": 19,
                "velocity": 51,
                "duration": 80.5090909,
                "tempo": 120.0
            },
            {
                "start_time": 128.7636364,
                "end_time": 133.3840909,
                "pitch": 38,
                "velocity": 51,
                "duration": 4.6204545,
                "tempo": 120.0
            },
            {
                "start_time": 133.1977273,
                "end_time": 133.3840909,
                "pitch": 38,
                "velocity": 51,
                "duration": 0.1863636,
                "tempo": 120.0
            },
            {
                "start_time": 133.4,
                "end_time": 133.4840909,
                "pitch": 38,
                "velocity": 51,
                "duration": 0.0840909,
                "tempo": 120.0
            },
            {
                "start_time": 133.5022727,
                "end_time": 133.5840909,
                "pitch": 38,
                "velocity": 51,
                "duration": 0.0818182,
                "tempo": 120.0
            },
            {
                "start_time": 133.6022727,
                "end_time": 133.7863636,
                "pitch": 36,
                "velocity": 51,
                "duration": 0.1840909,
                "tempo": 120.0
            },
            {
                "start_time": 133.8045455,
                "end_time": 133.9886364,
                "pitch": 36,
                "velocity": 51,
                "duration": 0.1840909,
                "tempo": 120.0
            },
            {
                "start_time": 134.0045455,
                "end_time": 134.1886364,
                "pitch": 36,
                "velocity": 51,
                "duration": 0.1840909,
                "tempo": 120.0
            },
            {
                "start_time": 134.2045455,
                "end_time": 134.3886364,
                "pitch": 36,
                "velocity": 51,
                "duration": 0.1840909,
                "tempo": 120.0
            },
            {
                "start_time": 134.4068182,
                "end_time": 134.5909091,
                "pitch": 36,
                "velocity": 51,
                "duration": 0.1840909,
                "tempo": 120.0
            },
            {
                "start_time": 134.6068182,
                "end_time": 134.7909091,
                "pitch": 36,
                "velocity": 51,
                "duration": 0.1840909,
                "tempo": 120.0
            },
            {
                "start_time": 134.8090909,
                "end_time": 134.9931818,
                "pitch": 36,
                "velocity": 51,
                "duration": 0.1840909,
                "tempo": 120.0
            },
            {
                "start_time": 135.0113636,
                "end_time": 135.0931818,
                "pitch": 36,
                "velocity": 51,
                "duration": 0.0818182,
                "tempo": 120.0
            },
            {
                "start_time": 135.1113636,
                "end_time": 135.1954545,
                "pitch": 36,
                "velocity": 51,
                "duration": 0.0840909,
                "tempo": 120.0
            },
            {
                "start_time": 135.2113636,
                "end_time": 135.4,
                "pitch": 34,
                "velocity": 51,
                "duration": 0.1886364,
                "tempo": 120.0
            },
            {
                "start_time": 135.4181818,
                "end_time": 135.6068182,
                "pitch": 34,
                "velocity": 51,
                "duration": 0.1886364,
                "tempo": 120.0
            },
            {
                "start_time": 135.6227273,
                "end_time": 135.8022727,
                "pitch": 34,
                "velocity": 51,
                "duration": 0.1795455,
                "tempo": 120.0
            },
            {
                "start_time": 135.8204545,
                "end_time": 136.0,
                "pitch": 34,
                "velocity": 51,
                "duration": 0.1795455,
                "tempo": 120.0
            },
            {
                "start_time": 136.0159091,
                "end_time": 136.2,
                "pitch": 34,
                "velocity": 51,
                "duration": 0.1840909,
                "tempo": 120.0
            },
            {
                "start_time": 136.2159091,
                "end_time": 136.4,
                "pitch": 34,
                "velocity": 51,
                "duration": 0.1840909,
                "tempo": 120.0
            },
            {
                "start_time": 136.4159091,
                "end_time": 136.6022727,
                "pitch": 34,
                "velocity": 51,
                "duration": 0.1863636,
                "tempo": 120.0
            },
            {
                "start_time": 136.6181818,
                "end_time": 136.7022727,
                "pitch": 34,
                "velocity": 51,
                "duration": 0.0840909,
                "tempo": 120.0
            },
            {
                "start_time": 136.7181818,
                "end_time": 136.8022727,
                "pitch": 34,
                "velocity": 51,
                "duration": 0.0840909,
                "tempo": 120.0
            },
            {
                "start_time": 136.8204545,
                "end_time": 137.0090909,
                "pitch": 34,
                "velocity": 51,
                "duration": 0.1886364,
                "tempo": 120.0
            },
            {
                "start_time": 132.7954545,
                "end_time": 137.2136364,
                "pitch": 33,
                "velocity": 51,
                "duration": 4.4181818,
                "tempo": 120.0
            },
            {
                "start_time": 137.025,
                "end_time": 137.2136364,
                "pitch": 33,
                "velocity": 51,
                "duration": 0.1886364,
                "tempo": 120.0
            },
            {
                "start_time": 137.2318182,
                "end_time": 137.4113636,
                "pitch": 33,
                "velocity": 51,
                "duration": 0.1795455,
                "tempo": 120.0
            },
            {
                "start_time": 137.4272727,
                "end_time": 137.6068182,
                "pitch": 33,
                "velocity": 51,
                "duration": 0.1795455,
                "tempo": 120.0
            },
            {
                "start_time": 137.625,
                "end_time": 137.8090909,
                "pitch": 33,
                "velocity": 51,
                "duration": 0.1840909,
                "tempo": 120.0
            },
            {
                "start_time": 137.825,
                "end_time": 138.0090909,
                "pitch": 33,
                "velocity": 51,
                "duration": 0.1840909,
                "tempo": 120.0
            },
            {
                "start_time": 138.0272727,
                "end_time": 138.2113636,
                "pitch": 33,
                "velocity": 51,
                "duration": 0.1840909,
                "tempo": 120.0
            },
            {
                "start_time": 138.2272727,
                "end_time": 138.3113636,
                "pitch": 33,
                "velocity": 51,
                "duration": 0.0840909,
                "tempo": 120.0
            },
            {
                "start_time": 138.3272727,
                "end_time": 138.4113636,
                "pitch": 33,
                "velocity": 51,
                "duration": 0.0840909,
                "tempo": 120.0
            },
            {
                "start_time": 138.6295455,
                "end_time": 138.8136364,
                "pitch": 29,
                "velocity": 51,
                "duration": 0.1840909,
                "tempo": 120.0
            },
            {
                "start_time": 138.8318182,
                "end_time": 139.0159091,
                "pitch": 29,
                "velocity": 51,
                "duration": 0.1840909,
                "tempo": 120.0
            },
            {
                "start_time": 139.0318182,
                "end_time": 139.2181818,
                "pitch": 29,
                "velocity": 51,
                "duration": 0.1863636,
                "tempo": 120.0
            },
            {
                "start_time": 139.2340909,
                "end_time": 139.4227273,
                "pitch": 29,
                "velocity": 51,
                "duration": 0.1886364,
                "tempo": 120.0
            },
            {
                "start_time": 139.4409091,
                "end_time": 139.6272727,
                "pitch": 29,
                "velocity": 51,
                "duration": 0.1863636,
                "tempo": 120.0
            },
            {
                "start_time": 139.6454545,
                "end_time": 139.8295455,
                "pitch": 29,
                "velocity": 51,
                "duration": 0.1840909,
                "tempo": 120.0
            },
            {
                "start_time": 139.8477273,
                "end_time": 139.9318182,
                "pitch": 29,
                "velocity": 51,
                "duration": 0.0840909,
                "tempo": 120.0
            },
            {
                "start_time": 139.9477273,
                "end_time": 140.0318182,
                "pitch": 29,
                "velocity": 51,
                "duration": 0.0840909,
                "tempo": 120.0
            },
            {
                "start_time": 133.6022727,
                "end_time": 140.2340909,
                "pitch": 38,
                "velocity": 51,
                "duration": 6.6318182,
                "tempo": 120.0
            },
            {
                "start_time": 140.05,
                "end_time": 140.2340909,
                "pitch": 38,
                "velocity": 51,
                "duration": 0.1840909,
                "tempo": 120.0
            },
            {
                "start_time": 140.25,
                "end_time": 140.4340909,
                "pitch": 38,
                "velocity": 51,
                "duration": 0.1840909,
                "tempo": 120.0
            },
            {
                "start_time": 140.4522727,
                "end_time": 140.6363636,
                "pitch": 38,
                "velocity": 51,
                "duration": 0.1840909,
                "tempo": 120.0
            },
            {
                "start_time": 140.6545455,
                "end_time": 140.8386364,
                "pitch": 38,
                "velocity": 51,
                "duration": 0.1840909,
                "tempo": 120.0
            },
            {
                "start_time": 140.8545455,
                "end_time": 141.0386364,
                "pitch": 38,
                "velocity": 51,
                "duration": 0.1840909,
                "tempo": 120.0
            },
            {
                "start_time": 141.0568182,
                "end_time": 141.2386364,
                "pitch": 38,
                "velocity": 51,
                "duration": 0.1818182,
                "tempo": 120.0
            },
            {
                "start_time": 141.2568182,
                "end_time": 141.4409091,
                "pitch": 38,
                "velocity": 51,
                "duration": 0.1840909,
                "tempo": 120.0
            },
            {
                "start_time": 141.4568182,
                "end_time": 141.5409091,
                "pitch": 38,
                "velocity": 51,
                "duration": 0.0840909,
                "tempo": 120.0
            },
            {
                "start_time": 141.5590909,
                "end_time": 141.6431818,
                "pitch": 38,
                "velocity": 51,
                "duration": 0.0840909,
                "tempo": 120.0
            },
            {
                "start_time": 140.05,
                "end_time": 141.6590909,
                "pitch": 41,
                "velocity": 51,
                "duration": 1.6090909,
                "tempo": 120.0
            },
            {
                "start_time": 141.6590909,
                "end_time": 141.8477273,
                "pitch": 31,
                "velocity": 51,
                "duration": 0.1886364,
                "tempo": 120.0
            },
            {
                "start_time": 141.8636364,
                "end_time": 142.0522727,
                "pitch": 31,
                "velocity": 51,
                "duration": 0.1886364,
                "tempo": 120.0
            },
            {
                "start_time": 142.0704545,
                "end_time": 142.25,
                "pitch": 31,
                "velocity": 51,
                "duration": 0.1795455,
                "tempo": 120.0
            },
            {
                "start_time": 142.2681818,
                "end_time": 142.4477273,
                "pitch": 31,
                "velocity": 51,
                "duration": 0.1795455,
                "tempo": 120.0
            },
            {
                "start_time": 142.4636364,
                "end_time": 142.6477273,
                "pitch": 31,
                "velocity": 51,
                "duration": 0.1840909,
                "tempo": 120.0
            },
            {
                "start_time": 142.6659091,
                "end_time": 142.85,
                "pitch": 31,
                "velocity": 51,
                "duration": 0.1840909,
                "tempo": 120.0
            },
            {
                "start_time": 142.8659091,
                "end_time": 143.05,
                "pitch": 31,
                "velocity": 51,
                "duration": 0.1840909,
                "tempo": 120.0
            },
            {
                "start_time": 143.0659091,
                "end_time": 143.15,
                "pitch": 31,
                "velocity": 51,
                "duration": 0.0840909,
                "tempo": 120.0
            },
            {
                "start_time": 143.1659091,
                "end_time": 143.25,
                "pitch": 31,
                "velocity": 51,
                "duration": 0.0840909,
                "tempo": 120.0
            },
            {
                "start_time": 107.8272727,
                "end_time": 143.2681818,
                "pitch": 0,
                "velocity": 51,
                "duration": 35.4409091,
                "tempo": 120.0
            },
            {
                "start_time": 143.2659091,
                "end_time": 143.2681818,
                "pitch": 0,
                "velocity": 51,
                "duration": 0.0022727,
                "tempo": 120.0
            },
            {
                "start_time": 143.2681818,
                "end_time": 143.4522727,
                "pitch": 36,
                "velocity": 51,
                "duration": 0.1840909,
                "tempo": 120.0
            },
            {
                "start_time": 143.4681818,
                "end_time": 143.5522727,
                "pitch": 36,
                "velocity": 51,
                "duration": 0.0840909,
                "tempo": 120.0
            },
            {
                "start_time": 143.5704545,
                "end_time": 143.6522727,
                "pitch": 36,
                "velocity": 51,
                "duration": 0.0818182,
                "tempo": 120.0
            },
            {
                "start_time": 143.6704545,
                "end_time": 143.8545455,
                "pitch": 38,
                "velocity": 51,
                "duration": 0.1840909,
                "tempo": 120.0
            },
            {
                "start_time": 143.8727273,
                "end_time": 143.9545455,
                "pitch": 38,
                "velocity": 51,
                "duration": 0.0818182,
                "tempo": 120.0
            },
            {
                "start_time": 143.9727273,
                "end_time": 144.0568182,
                "pitch": 38,
                "velocity": 51,
                "duration": 0.0840909,
                "tempo": 120.0
            },
            {
                "start_time": 135.2113636,
                "end_time": 144.2590909,
                "pitch": 40,
                "velocity": 51,
                "duration": 9.0477273,
                "tempo": 120.0
            },
            {
                "start_time": 144.0727273,
                "end_time": 144.2590909,
                "pitch": 40,
                "velocity": 51,
                "duration": 0.1863636,
                "tempo": 120.0
            },
            {
                "start_time": 144.275,
                "end_time": 144.3590909,
                "pitch": 40,
                "velocity": 51,
                "duration": 0.0840909,
                "tempo": 120.0
            },
            {
                "start_time": 144.375,
                "end_time": 144.4590909,
                "pitch": 40,
                "velocity": 51,
                "duration": 0.0840909,
                "tempo": 120.0
            },
            {
                "start_time": 143.6704545,
                "end_time": 144.6613636,
                "pitch": 36,
                "velocity": 51,
                "duration": 0.9909091,
                "tempo": 120.0
            },
            {
                "start_time": 144.4772727,
                "end_time": 144.6613636,
                "pitch": 36,
                "velocity": 51,
                "duration": 0.1840909,
                "tempo": 120.0
            },
            {
                "start_time": 144.6772727,
                "end_time": 144.7613636,
                "pitch": 36,
                "velocity": 51,
                "duration": 0.0840909,
                "tempo": 120.0
            },
            {
                "start_time": 144.7795455,
                "end_time": 144.8636364,
                "pitch": 36,
                "velocity": 51,
                "duration": 0.0840909,
                "tempo": 120.0
            },
            {
                "start_time": 144.8795455,
                "end_time": 144.9636364,
                "pitch": 36,
                "velocity": 51,
                "duration": 0.0840909,
                "tempo": 120.0
            },
            {
                "start_time": 144.9795455,
                "end_time": 145.0636364,
                "pitch": 48,
                "velocity": 51,
                "duration": 0.0840909,
                "tempo": 120.0
            },
            {
                "start_time": 145.0795455,
                "end_time": 145.1636364,
                "pitch": 48,
                "velocity": 51,
                "duration": 0.0840909,
                "tempo": 120.0
            },
            {
                "start_time": 145.1795455,
                "end_time": 145.2636364,
                "pitch": 48,
                "velocity": 51,
                "duration": 0.0840909,
                "tempo": 120.0
            },
            {
                "start_time": 144.4772727,
                "end_time": 145.2795455,
                "pitch": 40,
                "velocity": 51,
                "duration": 0.8022727,
                "tempo": 120.0
            },
            {
                "start_time": 145.2795455,
                "end_time": 145.3659091,
                "pitch": 31,
                "velocity": 51,
                "duration": 0.0863636,
                "tempo": 120.0
            },
            {
                "start_time": 145.3840909,
                "end_time": 145.4681818,
                "pitch": 43,
                "velocity": 51,
                "duration": 0.0840909,
                "tempo": 120.0
            },
            {
                "start_time": 145.4863636,
                "end_time": 145.5704545,
                "pitch": 43,
                "velocity": 51,
                "duration": 0.0840909,
                "tempo": 120.0
            },
            {
                "start_time": 145.5886364,
                "end_time": 145.675,
                "pitch": 43,
                "velocity": 51,
                "duration": 0.0863636,
                "tempo": 120.0
            },
            {
                "start_time": 145.6909091,
                "end_time": 145.7727273,
                "pitch": 28,
                "velocity": 51,
                "duration": 0.0818182,
                "tempo": 120.0
            },
            {
                "start_time": 145.2795455,
                "end_time": 145.8704545,
                "pitch": 40,
                "velocity": 51,
                "duration": 0.5909091,
                "tempo": 120.0
            },
            {
                "start_time": 145.7909091,
                "end_time": 145.8704545,
                "pitch": 40,
                "velocity": 51,
                "duration": 0.0795455,
                "tempo": 120.0
            },
            {
                "start_time": 145.8886364,
                "end_time": 145.9704545,
                "pitch": 40,
                "velocity": 51,
                "duration": 0.0818182,
                "tempo": 120.0
            },
            {
                "start_time": 145.9863636,
                "end_time": 146.0681818,
                "pitch": 40,
                "velocity": 51,
                "duration": 0.0818182,
                "tempo": 120.0
            },
            {
                "start_time": 105.825,
                "end_time": 146.0840909,
                "pitch": 54,
                "velocity": 51,
                "duration": 40.2590909,
                "tempo": 120.0
            },
            {
                "start_time": 146.0840909,
                "end_time": 146.1681818,
                "pitch": 43,
                "velocity": 51,
                "duration": 0.0840909,
                "tempo": 120.0
            },
            {
                "start_time": 145.6909091,
                "end_time": 146.1863636,
                "pitch": 0,
                "velocity": 51,
                "duration": 0.4954545,
                "tempo": 120.0
            },
            {
                "start_time": 146.1840909,
                "end_time": 146.1863636,
                "pitch": 0,
                "velocity": 51,
                "duration": 0.0022727,
                "tempo": 120.0
            },
            {
                "start_time": 146.1863636,
                "end_time": 146.2681818,
                "pitch": 36,
                "velocity": 51,
                "duration": 0.0818182,
                "tempo": 120.0
            },
            {
                "start_time": 146.2863636,
                "end_time": 146.3704545,
                "pitch": 36,
                "velocity": 51,
                "duration": 0.0840909,
                "tempo": 120.0
            },
            {
                "start_time": 146.3863636,
                "end_time": 146.4704545,
                "pitch": 36,
                "velocity": 51,
                "duration": 0.0840909,
                "tempo": 120.0
            },
            {
                "start_time": 146.4886364,
                "end_time": 146.675,
                "pitch": 36,
                "velocity": 51,
                "duration": 0.1863636,
                "tempo": 120.0
            },
            {
                "start_time": 146.6931818,
                "end_time": 146.8818182,
                "pitch": 36,
                "velocity": 51,
                "duration": 0.1886364,
                "tempo": 120.0
            },
            {
                "start_time": 146.9,
                "end_time": 147.0840909,
                "pitch": 36,
                "velocity": 51,
                "duration": 0.1840909,
                "tempo": 120.0
            },
            {
                "start_time": 147.1,
                "end_time": 147.2863636,
                "pitch": 36,
                "velocity": 51,
                "duration": 0.1863636,
                "tempo": 120.0
            },
            {
                "start_time": 147.3022727,
                "end_time": 147.4863636,
                "pitch": 36,
                "velocity": 51,
                "duration": 0.1840909,
                "tempo": 120.0
            },
            {
                "start_time": 147.5045455,
                "end_time": 147.6886364,
                "pitch": 36,
                "velocity": 51,
                "duration": 0.1840909,
                "tempo": 120.0
            },
            {
                "start_time": 147.7068182,
                "end_time": 147.8886364,
                "pitch": 36,
                "velocity": 51,
                "duration": 0.1818182,
                "tempo": 120.0
            },
            {
                "start_time": 147.9068182,
                "end_time": 147.9886364,
                "pitch": 36,
                "velocity": 51,
                "duration": 0.0818182,
                "tempo": 120.0
            },
            {
                "start_time": 148.0068182,
                "end_time": 148.0886364,
                "pitch": 36,
                "velocity": 51,
                "duration": 0.0818182,
                "tempo": 120.0
            },
            {
                "start_time": 148.1068182,
                "end_time": 148.2931818,
                "pitch": 34,
                "velocity": 51,
                "duration": 0.1863636,
                "tempo": 120.0
            },
            {
                "start_time": 148.3113636,
                "end_time": 148.5,
                "pitch": 34,
                "velocity": 51,
                "duration": 0.1886364,
                "tempo": 120.0
            },
            {
                "start_time": 148.5181818,
                "end_time": 148.6977273,
                "pitch": 34,
                "velocity": 51,
                "duration": 0.1795455,
                "tempo": 120.0
            },
            {
                "start_time": 148.7136364,
                "end_time": 148.8931818,
                "pitch": 34,
                "velocity": 51,
                "duration": 0.1795455,
                "tempo": 120.0
            },
            {
                "start_time": 148.9113636,
                "end_time": 149.0954545,
                "pitch": 34,
                "velocity": 51,
                "duration": 0.1840909,
                "tempo": 120.0
            },
            {
                "start_time": 149.1113636,
                "end_time": 149.2954545,
                "pitch": 34,
                "velocity": 51,
                "duration": 0.1840909,
                "tempo": 120.0
            },
            {
                "start_time": 149.3136364,
                "end_time": 149.4977273,
                "pitch": 34,
                "velocity": 51,
                "duration": 0.1840909,
                "tempo": 120.0
            },
            {
                "start_time": 149.5159091,
                "end_time": 149.5977273,
                "pitch": 34,
                "velocity": 51,
                "duration": 0.0818182,
                "tempo": 120.0
            },
            {
                "start_time": 149.6159091,
                "end_time": 149.7,
                "pitch": 34,
                "velocity": 51,
                "duration": 0.0840909,
                "tempo": 120.0
            },
            {
                "start_time": 149.7159091,
                "end_time": 149.9045455,
                "pitch": 34,
                "velocity": 51,
                "duration": 0.1886364,
                "tempo": 120.0
            },
            {
                "start_time": 149.9227273,
                "end_time": 150.1113636,
                "pitch": 33,
                "velocity": 51,
                "duration": 0.1886364,
                "tempo": 120.0
            },
            {
                "start_time": 150.1272727,
                "end_time": 150.3068182,
                "pitch": 33,
                "velocity": 51,
                "duration": 0.1795455,
                "tempo": 120.0
            },
            {
                "start_time": 150.325,
                "end_time": 150.5045455,
                "pitch": 33,
                "velocity": 51,
                "duration": 0.1795455,
                "tempo": 120.0
            },
            {
                "start_time": 150.5204545,
                "end_time": 150.7045455,
                "pitch": 33,
                "velocity": 51,
                "duration": 0.1840909,
                "tempo": 120.0
            },
            {
                "start_time": 150.7227273,
                "end_time": 150.9068182,
                "pitch": 33,
                "velocity": 51,
                "duration": 0.1840909,
                "tempo": 120.0
            },
            {
                "start_time": 150.925,
                "end_time": 151.1090909,
                "pitch": 33,
                "velocity": 51,
                "duration": 0.1840909,
                "tempo": 120.0
            },
            {
                "start_time": 151.125,
                "end_time": 151.2090909,
                "pitch": 33,
                "velocity": 51,
                "duration": 0.0840909,
                "tempo": 120.0
            },
            {
                "start_time": 151.2272727,
                "end_time": 151.3090909,
                "pitch": 33,
                "velocity": 51,
                "duration": 0.0818182,
                "tempo": 120.0
            },
            {
                "start_time": 151.5318182,
                "end_time": 151.7204545,
                "pitch": 29,
                "velocity": 51,
                "duration": 0.1886364,
                "tempo": 120.0
            },
            {
                "start_time": 151.7386364,
                "end_time": 151.9181818,
                "pitch": 29,
                "velocity": 51,
                "duration": 0.1795455,
                "tempo": 120.0
            },
            {
                "start_time": 151.9340909,
                "end_time": 152.1136364,
                "pitch": 29,
                "velocity": 51,
                "duration": 0.1795455,
                "tempo": 120.0
            },
            {
                "start_time": 152.1318182,
                "end_time": 152.3181818,
                "pitch": 29,
                "velocity": 51,
                "duration": 0.1863636,
                "tempo": 120.0
            },
            {
                "start_time": 152.3363636,
                "end_time": 152.525,
                "pitch": 29,
                "velocity": 51,
                "duration": 0.1886364,
                "tempo": 120.0
            },
            {
                "start_time": 152.5431818,
                "end_time": 152.7227273,
                "pitch": 29,
                "velocity": 51,
                "duration": 0.1795455,
                "tempo": 120.0
            },
            {
                "start_time": 152.7386364,
                "end_time": 152.8204545,
                "pitch": 29,
                "velocity": 51,
                "duration": 0.0818182,
                "tempo": 120.0
            },
            {
                "start_time": 152.8363636,
                "end_time": 152.9181818,
                "pitch": 29,
                "velocity": 51,
                "duration": 0.0818182,
                "tempo": 120.0
            },
            {
                "start_time": 141.6590909,
                "end_time": 152.9340909,
                "pitch": 41,
                "velocity": 51,
                "duration": 11.275,
                "tempo": 120.0
            },
            {
                "start_time": 144.0727273,
                "end_time": 153.1227273,
                "pitch": 38,
                "velocity": 51,
                "duration": 9.05,
                "tempo": 120.0
            },
            {
                "start_time": 152.9340909,
                "end_time": 153.1227273,
                "pitch": 38,
                "velocity": 51,
                "duration": 0.1886364,
                "tempo": 120.0
            },
            {
                "start_time": 153.1409091,
                "end_time": 153.3272727,
                "pitch": 38,
                "velocity": 51,
                "duration": 0.1863636,
                "tempo": 120.0
            },
            {
                "start_time": 153.3454545,
                "end_time": 153.525,
                "pitch": 38,
                "velocity": 51,
                "duration": 0.1795455,
                "tempo": 120.0
            },
            {
                "start_time": 153.5431818,
                "end_time": 153.7227273,
                "pitch": 38,
                "velocity": 51,
                "duration": 0.1795455,
                "tempo": 120.0
            },
            {
                "start_time": 153.7386364,
                "end_time": 153.9272727,
                "pitch": 38,
                "velocity": 51,
                "duration": 0.1886364,
                "tempo": 120.0
            },
            {
                "start_time": 153.9431818,
                "end_time": 154.1318182,
                "pitch": 38,
                "velocity": 51,
                "duration": 0.1886364,
                "tempo": 120.0
            },
            {
                "start_time": 154.15,
                "end_time": 154.3340909,
                "pitch": 38,
                "velocity": 51,
                "duration": 0.1840909,
                "tempo": 120.0
            },
            {
                "start_time": 154.35,
                "end_time": 154.4340909,
                "pitch": 38,
                "velocity": 51,
                "duration": 0.0840909,
                "tempo": 120.0
            },
            {
                "start_time": 154.45,
                "end_time": 154.5340909,
                "pitch": 38,
                "velocity": 51,
                "duration": 0.0840909,
                "tempo": 120.0
            },
            {
                "start_time": 148.1068182,
                "end_time": 154.7340909,
                "pitch": 40,
                "velocity": 51,
                "duration": 6.6272727,
                "tempo": 120.0
            },
            {
                "start_time": 154.55,
                "end_time": 154.7340909,
                "pitch": 40,
                "velocity": 51,
                "duration": 0.1840909,
                "tempo": 120.0
            },
            {
                "start_time": 154.7522727,
                "end_time": 154.9363636,
                "pitch": 40,
                "velocity": 51,
                "duration": 0.1840909,
                "tempo": 120.0
            },
            {
                "start_time": 154.9545455,
                "end_time": 155.1386364,
                "pitch": 40,
                "velocity": 51,
                "duration": 0.1840909,
                "tempo": 120.0
            },
            {
                "start_time": 155.1545455,
                "end_time": 155.3386364,
                "pitch": 40,
                "velocity": 51,
                "duration": 0.1840909,
                "tempo": 120.0
            },
            {
                "start_time": 155.3568182,
                "end_time": 155.5409091,
                "pitch": 40,
                "velocity": 51,
                "duration": 0.1840909,
                "tempo": 120.0
            },
            {
                "start_time": 155.5590909,
                "end_time": 155.7431818,
                "pitch": 40,
                "velocity": 51,
                "duration": 0.1840909,
                "tempo": 120.0
            },
            {
                "start_time": 155.7590909,
                "end_time": 155.9454545,
                "pitch": 40,
                "velocity": 51,
                "duration": 0.1863636,
                "tempo": 120.0
            },
            {
                "start_time": 155.9613636,
                "end_time": 156.0454545,
                "pitch": 40,
                "velocity": 51,
                "duration": 0.0840909,
                "tempo": 120.0
            },
            {
                "start_time": 156.0613636,
                "end_time": 156.1454545,
                "pitch": 40,
                "velocity": 51,
                "duration": 0.0840909,
                "tempo": 120.0
            },
            {
                "start_time": 156.1636364,
                "end_time": 156.3477273,
                "pitch": 40,
                "velocity": 51,
                "duration": 0.1840909,
                "tempo": 120.0
            },
            {
                "start_time": 152.9340909,
                "end_time": 156.5477273,
                "pitch": 41,
                "velocity": 51,
                "duration": 3.6136364,
                "tempo": 120.0
            },
            {
                "start_time": 156.3636364,
                "end_time": 156.5477273,
                "pitch": 41,
                "velocity": 51,
                "duration": 0.1840909,
                "tempo": 120.0
            },
            {
                "start_time": 156.5636364,
                "end_time": 156.7477273,
                "pitch": 41,
                "velocity": 51,
                "duration": 0.1840909,
                "tempo": 120.0
            },
            {
                "start_time": 156.7659091,
                "end_time": 156.95,
                "pitch": 41,
                "velocity": 51,
                "duration": 0.1840909,
                "tempo": 120.0
            },
            {
                "start_time": 156.9681818,
                "end_time": 157.1522727,
                "pitch": 41,
                "velocity": 51,
                "duration": 0.1840909,
                "tempo": 120.0
            },
            {
                "start_time": 157.1681818,
                "end_time": 157.3522727,
                "pitch": 41,
                "velocity": 51,
                "duration": 0.1840909,
                "tempo": 120.0
            },
            {
                "start_time": 157.3704545,
                "end_time": 157.5545455,
                "pitch": 41,
                "velocity": 51,
                "duration": 0.1840909,
                "tempo": 120.0
            },
            {
                "start_time": 157.5727273,
                "end_time": 157.6545455,
                "pitch": 41,
                "velocity": 51,
                "duration": 0.0818182,
                "tempo": 120.0
            },
            {
                "start_time": 157.6727273,
                "end_time": 157.7568182,
                "pitch": 41,
                "velocity": 51,
                "duration": 0.0840909,
                "tempo": 120.0
            },
            {
                "start_time": 131.9818182,
                "end_time": 157.7727273,
                "pitch": 42,
                "velocity": 51,
                "duration": 25.7909091,
                "tempo": 120.0
            },
            {
                "start_time": 157.7727273,
                "end_time": 157.9613636,
                "pitch": 31,
                "velocity": 51,
                "duration": 0.1886364,
                "tempo": 120.0
            },
            {
                "start_time": 157.9795455,
                "end_time": 158.0636364,
                "pitch": 31,
                "velocity": 51,
                "duration": 0.0840909,
                "tempo": 120.0
            },
            {
                "start_time": 158.0818182,
                "end_time": 158.1681818,
                "pitch": 31,
                "velocity": 51,
                "duration": 0.0863636,
                "tempo": 120.0
            },
            {
                "start_time": 158.1840909,
                "end_time": 158.3636364,
                "pitch": 31,
                "velocity": 51,
                "duration": 0.1795455,
                "tempo": 120.0
            },
            {
                "start_time": 158.3818182,
                "end_time": 158.4636364,
                "pitch": 33,
                "velocity": 51,
                "duration": 0.0818182,
                "tempo": 120.0
            },
            {
                "start_time": 158.4795455,
                "end_time": 158.5613636,
                "pitch": 33,
                "velocity": 51,
                "duration": 0.0818182,
                "tempo": 120.0
            },
            {
                "start_time": 158.5772727,
                "end_time": 158.7659091,
                "pitch": 35,
                "velocity": 51,
                "duration": 0.1886364,
                "tempo": 120.0
            },
            {
                "start_time": 158.7818182,
                "end_time": 158.8681818,
                "pitch": 35,
                "velocity": 51,
                "duration": 0.0863636,
                "tempo": 120.0
            },
            {
                "start_time": 158.8863636,
                "end_time": 158.9704545,
                "pitch": 35,
                "velocity": 51,
                "duration": 0.0840909,
                "tempo": 120.0
            },
            {
                "start_time": 133.1977273,
                "end_time": 158.9886364,
                "pitch": 19,
                "velocity": 51,
                "duration": 25.7909091,
                "tempo": 120.0
            },
            {
                "start_time": 154.55,
                "end_time": 159.1727273,
                "pitch": 38,
                "velocity": 51,
                "duration": 4.6227273,
                "tempo": 120.0
            },
            {
                "start_time": 158.9886364,
                "end_time": 159.1727273,
                "pitch": 38,
                "velocity": 51,
                "duration": 0.1840909,
                "tempo": 120.0
            },
            {
                "start_time": 159.1886364,
                "end_time": 159.2727273,
                "pitch": 38,
                "velocity": 51,
                "duration": 0.0840909,
                "tempo": 120.0
            },
            {
                "start_time": 159.2886364,
                "end_time": 159.3727273,
                "pitch": 38,
                "velocity": 51,
                "duration": 0.0840909,
                "tempo": 120.0
            },
            {
                "start_time": 159.3886364,
                "end_time": 159.5727273,
                "pitch": 36,
                "velocity": 51,
                "duration": 0.1840909,
                "tempo": 120.0
            },
            {
                "start_time": 159.5909091,
                "end_time": 159.775,
                "pitch": 36,
                "velocity": 51,
                "duration": 0.1840909,
                "tempo": 120.0
            },
            {
                "start_time": 159.7931818,
                "end_time": 159.9772727,
                "pitch": 36,
                "velocity": 51,
                "duration": 0.1840909,
                "tempo": 120.0
            },
            {
                "start_time": 159.9931818,
                "end_time": 160.1795455,
                "pitch": 36,
                "velocity": 51,
                "duration": 0.1863636,
                "tempo": 120.0
            },
            {
                "start_time": 160.1954545,
                "end_time": 160.375,
                "pitch": 36,
                "velocity": 51,
                "duration": 0.1795455,
                "tempo": 120.0
            },
            {
                "start_time": 160.3931818,
                "end_time": 160.5727273,
                "pitch": 36,
                "velocity": 51,
                "duration": 0.1795455,
                "tempo": 120.0
            },
            {
                "start_time": 160.5886364,
                "end_time": 160.7772727,
                "pitch": 36,
                "velocity": 51,
                "duration": 0.1886364,
                "tempo": 120.0
            },
            {
                "start_time": 160.7931818,
                "end_time": 160.8795455,
                "pitch": 36,
                "velocity": 51,
                "duration": 0.0863636,
                "tempo": 120.0
            },
            {
                "start_time": 160.8954545,
                "end_time": 160.9818182,
                "pitch": 36,
                "velocity": 51,
                "duration": 0.0863636,
                "tempo": 120.0
            },
            {
                "start_time": 161.0,
                "end_time": 161.1840909,
                "pitch": 34,
                "velocity": 51,
                "duration": 0.1840909,
                "tempo": 120.0
            },
            {
                "start_time": 161.2,
                "end_time": 161.3840909,
                "pitch": 34,
                "velocity": 51,
                "duration": 0.1840909,
                "tempo": 120.0
            },
            {
                "start_time": 161.4,
                "end_time": 161.5840909,
                "pitch": 34,
                "velocity": 51,
                "duration": 0.1840909,
                "tempo": 120.0
            },
            {
                "start_time": 161.6022727,
                "end_time": 161.7863636,
                "pitch": 34,
                "velocity": 51,
                "duration": 0.1840909,
                "tempo": 120.0
            },
            {
                "start_time": 161.8045455,
                "end_time": 161.9886364,
                "pitch": 34,
                "velocity": 51,
                "duration": 0.1840909,
                "tempo": 120.0
            },
            {
                "start_time": 162.0045455,
                "end_time": 162.1886364,
                "pitch": 34,
                "velocity": 51,
                "duration": 0.1840909,
                "tempo": 120.0
            },
            {
                "start_time": 162.2068182,
                "end_time": 162.3909091,
                "pitch": 34,
                "velocity": 51,
                "duration": 0.1840909,
                "tempo": 120.0
            },
            {
                "start_time": 162.4090909,
                "end_time": 162.4931818,
                "pitch": 34,
                "velocity": 51,
                "duration": 0.0840909,
                "tempo": 120.0
            },
            {
                "start_time": 162.5090909,
                "end_time": 162.5931818,
                "pitch": 34,
                "velocity": 51,
                "duration": 0.0840909,
                "tempo": 120.0
            },
            {
                "start_time": 162.6090909,
                "end_time": 162.7954545,
                "pitch": 34,
                "velocity": 51,
                "duration": 0.1863636,
                "tempo": 120.0
            },
            {
                "start_time": 158.5772727,
                "end_time": 162.9954545,
                "pitch": 33,
                "velocity": 51,
                "duration": 4.4181818,
                "tempo": 120.0
            },
            {
                "start_time": 162.8113636,
                "end_time": 162.9954545,
                "pitch": 33,
                "velocity": 51,
                "duration": 0.1840909,
                "tempo": 120.0
            },
            {
                "start_time": 163.0136364,
                "end_time": 163.1954545,
                "pitch": 33,
                "velocity": 51,
                "duration": 0.1818182,
                "tempo": 120.0
            },
            {
                "start_time": 163.2136364,
                "end_time": 163.3977273,
                "pitch": 33,
                "velocity": 51,
                "duration": 0.1840909,
                "tempo": 120.0
            },
            {
                "start_time": 163.4136364,
                "end_time": 163.5977273,
                "pitch": 33,
                "velocity": 51,
                "duration": 0.1840909,
                "tempo": 120.0
            },
            {
                "start_time": 163.6159091,
                "end_time": 163.8,
                "pitch": 33,
                "velocity": 51,
                "duration": 0.1840909,
                "tempo": 120.0
            },
            {
                "start_time": 163.8181818,
                "end_time": 164.0022727,
                "pitch": 33,
                "velocity": 51,
                "duration": 0.1840909,
                "tempo": 120.0
            },
            {
                "start_time": 164.0181818,
                "end_time": 164.1022727,
                "pitch": 33,
                "velocity": 51,
                "duration": 0.0840909,
                "tempo": 120.0
            },
            {
                "start_time": 164.1204545,
                "end_time": 164.2022727,
                "pitch": 33,
                "velocity": 51,
                "duration": 0.0818182,
                "tempo": 120.0
            },
            {
                "start_time": 164.4227273,
                "end_time": 164.6068182,
                "pitch": 29,
                "velocity": 51,
                "duration": 0.1840909,
                "tempo": 120.0
            },
            {
                "start_time": 164.6227273,
                "end_time": 164.8090909,
                "pitch": 29,
                "velocity": 51,
                "duration": 0.1863636,
                "tempo": 120.0
            },
            {
                "start_time": 164.825,
                "end_time": 165.0090909,
                "pitch": 29,
                "velocity": 51,
                "duration": 0.1840909,
                "tempo": 120.0
            },
            {
                "start_time": 165.0272727,
                "end_time": 165.2090909,
                "pitch": 29,
                "velocity": 51,
                "duration": 0.1818182,
                "tempo": 120.0
            },
            {
                "start_time": 165.2272727,
                "end_time": 165.4113636,
                "pitch": 29,
                "velocity": 51,
                "duration": 0.1840909,
                "tempo": 120.0
            },
            {
                "start_time": 165.4272727,
                "end_time": 165.6113636,
                "pitch": 29,
                "velocity": 51,
                "duration": 0.1840909,
                "tempo": 120.0
            },
            {
                "start_time": 165.6295455,
                "end_time": 165.7136364,
                "pitch": 29,
                "velocity": 51,
                "duration": 0.0840909,
                "tempo": 120.0
            },
            {
                "start_time": 165.7295455,
                "end_time": 165.8136364,
                "pitch": 29,
                "velocity": 51,
                "duration": 0.0840909,
                "tempo": 120.0
            },
            {
                "start_time": 159.3886364,
                "end_time": 166.0159091,
                "pitch": 38,
                "velocity": 51,
                "duration": 6.6272727,
                "tempo": 120.0
            },
            {
                "start_time": 165.8295455,
                "end_time": 166.0159091,
                "pitch": 38,
                "velocity": 51,
                "duration": 0.1863636,
                "tempo": 120.0
            },
            {
                "start_time": 166.0318182,
                "end_time": 166.2159091,
                "pitch": 38,
                "velocity": 51,
                "duration": 0.1840909,
                "tempo": 120.0
            },
            {
                "start_time": 166.2340909,
                "end_time": 166.4181818,
                "pitch": 38,
                "velocity": 51,
                "duration": 0.1840909,
                "tempo": 120.0
            },
            {
                "start_time": 166.4363636,
                "end_time": 166.6204545,
                "pitch": 38,
                "velocity": 51,
                "duration": 0.1840909,
                "tempo": 120.0
            },
            {
                "start_time": 166.6363636,
                "end_time": 166.8204545,
                "pitch": 38,
                "velocity": 51,
                "duration": 0.1840909,
                "tempo": 120.0
            },
            {
                "start_time": 166.8386364,
                "end_time": 167.0227273,
                "pitch": 38,
                "velocity": 51,
                "duration": 0.1840909,
                "tempo": 120.0
            },
            {
                "start_time": 167.0409091,
                "end_time": 167.2227273,
                "pitch": 38,
                "velocity": 51,
                "duration": 0.1818182,
                "tempo": 120.0
            },
            {
                "start_time": 167.2409091,
                "end_time": 167.3227273,
                "pitch": 38,
                "velocity": 51,
                "duration": 0.0818182,
                "tempo": 120.0
            },
            {
                "start_time": 167.3409091,
                "end_time": 167.4227273,
                "pitch": 38,
                "velocity": 51,
                "duration": 0.0818182,
                "tempo": 120.0
            },
            {
                "start_time": 165.8295455,
                "end_time": 167.4409091,
                "pitch": 41,
                "velocity": 51,
                "duration": 1.6113636,
                "tempo": 120.0
            },
            {
                "start_time": 167.4409091,
                "end_time": 167.6295455,
                "pitch": 31,
                "velocity": 51,
                "duration": 0.1886364,
                "tempo": 120.0
            },
            {
                "start_time": 167.6454545,
                "end_time": 167.8340909,
                "pitch": 31,
                "velocity": 51,
                "duration": 0.1886364,
                "tempo": 120.0
            },
            {
                "start_time": 167.8522727,
                "end_time": 168.0318182,
                "pitch": 31,
                "velocity": 51,
                "duration": 0.1795455,
                "tempo": 120.0
            },
            {
                "start_time": 168.0477273,
                "end_time": 168.2272727,
                "pitch": 31,
                "velocity": 51,
                "duration": 0.1795455,
                "tempo": 120.0
            },
            {
                "start_time": 168.2454545,
                "end_time": 168.4318182,
                "pitch": 31,
                "velocity": 51,
                "duration": 0.1863636,
                "tempo": 120.0
            },
            {
                "start_time": 168.45,
                "end_time": 168.6386364,
                "pitch": 31,
                "velocity": 51,
                "duration": 0.1886364,
                "tempo": 120.0
            },
            {
                "start_time": 168.6568182,
                "end_time": 168.8409091,
                "pitch": 31,
                "velocity": 51,
                "duration": 0.1840909,
                "tempo": 120.0
            },
            {
                "start_time": 168.8568182,
                "end_time": 168.9409091,
                "pitch": 31,
                "velocity": 51,
                "duration": 0.0840909,
                "tempo": 120.0
            },
            {
                "start_time": 168.9590909,
                "end_time": 169.0409091,
                "pitch": 31,
                "velocity": 51,
                "duration": 0.0818182,
                "tempo": 120.0
            },
            {
                "start_time": 169.0590909,
                "end_time": 169.2386364,
                "pitch": 36,
                "velocity": 51,
                "duration": 0.1795455,
                "tempo": 120.0
            },
            {
                "start_time": 169.2545455,
                "end_time": 169.3363636,
                "pitch": 36,
                "velocity": 51,
                "duration": 0.0818182,
                "tempo": 120.0
            },
            {
                "start_time": 169.3545455,
                "end_time": 169.4340909,
                "pitch": 36,
                "velocity": 51,
                "duration": 0.0795455,
                "tempo": 120.0
            },
            {
                "start_time": 169.4522727,
                "end_time": 169.6386364,
                "pitch": 38,
                "velocity": 51,
                "duration": 0.1863636,
                "tempo": 120.0
            },
            {
                "start_time": 169.6568182,
                "end_time": 169.7431818,
                "pitch": 38,
                "velocity": 51,
                "duration": 0.0863636,
                "tempo": 120.0
            },
            {
                "start_time": 169.7590909,
                "end_time": 169.8454545,
                "pitch": 38,
                "velocity": 51,
                "duration": 0.0863636,
                "tempo": 120.0
            },
            {
                "start_time": 161.0,
                "end_time": 170.0477273,
                "pitch": 40,
                "velocity": 51,
                "duration": 9.0477273,
                "tempo": 120.0
            },
            {
                "start_time": 169.8636364,
                "end_time": 170.0477273,
                "pitch": 40,
                "velocity": 51,
                "duration": 0.1840909,
                "tempo": 120.0
            },
            {
                "start_time": 170.0636364,
                "end_time": 170.1477273,
                "pitch": 40,
                "velocity": 51,
                "duration": 0.0840909,
                "tempo": 120.0
            },
            {
                "start_time": 170.1659091,
                "end_time": 170.25,
                "pitch": 40,
                "velocity": 51,
                "duration": 0.0840909,
                "tempo": 120.0
            },
            {
                "start_time": 169.4522727,
                "end_time": 170.4454545,
                "pitch": 36,
                "velocity": 51,
                "duration": 0.9931818,
                "tempo": 120.0
            },
            {
                "start_time": 170.2659091,
                "end_time": 170.4454545,
                "pitch": 36,
                "velocity": 51,
                "duration": 0.1795455,
                "tempo": 120.0
            },
            {
                "start_time": 170.4636364,
                "end_time": 170.5431818,
                "pitch": 36,
                "velocity": 51,
                "duration": 0.0795455,
                "tempo": 120.0
            },
            {
                "start_time": 170.5613636,
                "end_time": 170.6431818,
                "pitch": 36,
                "velocity": 51,
                "duration": 0.0818182,
                "tempo": 120.0
            },
            {
                "start_time": 170.6590909,
                "end_time": 170.7431818,
                "pitch": 36,
                "velocity": 51,
                "duration": 0.0840909,
                "tempo": 120.0
            },
            {
                "start_time": 170.7613636,
                "end_time": 170.8477273,
                "pitch": 48,
                "velocity": 51,
                "duration": 0.0863636,
                "tempo": 120.0
            },
            {
                "start_time": 170.8636364,
                "end_time": 170.95,
                "pitch": 48,
                "velocity": 51,
                "duration": 0.0863636,
                "tempo": 120.0
            },
            {
                "start_time": 170.9681818,
                "end_time": 171.0522727,
                "pitch": 48,
                "velocity": 51,
                "duration": 0.0840909,
                "tempo": 120.0
            },
            {
                "start_time": 170.2659091,
                "end_time": 171.0704545,
                "pitch": 40,
                "velocity": 51,
                "duration": 0.8045455,
                "tempo": 120.0
            },
            {
                "start_time": 171.0704545,
                "end_time": 171.1545455,
                "pitch": 31,
                "velocity": 51,
                "duration": 0.0840909,
                "tempo": 120.0
            },
            {
                "start_time": 171.1704545,
                "end_time": 171.2545455,
                "pitch": 43,
                "velocity": 51,
                "duration": 0.0840909,
                "tempo": 120.0
            },
            {
                "start_time": 171.2727273,
                "end_time": 171.3545455,
                "pitch": 43,
                "velocity": 51,
                "duration": 0.0818182,
                "tempo": 120.0
            },
            {
                "start_time": 171.3727273,
                "end_time": 171.4568182,
                "pitch": 43,
                "velocity": 51,
                "duration": 0.0840909,
                "tempo": 120.0
            },
            {
                "start_time": 169.0590909,
                "end_time": 171.4727273,
                "pitch": 0,
                "velocity": 51,
                "duration": 2.4136364,
                "tempo": 120.0
            },
            {
                "start_time": 171.4727273,
                "end_time": 171.5568182,
                "pitch": 28,
                "velocity": 51,
                "duration": 0.0840909,
                "tempo": 120.0
            },
            {
                "start_time": 171.0704545,
                "end_time": 171.6568182,
                "pitch": 40,
                "velocity": 51,
                "duration": 0.5863636,
                "tempo": 120.0
            },
            {
                "start_time": 171.5727273,
                "end_time": 171.6568182,
                "pitch": 40,
                "velocity": 51,
                "duration": 0.0840909,
                "tempo": 120.0
            },
            {
                "start_time": 171.6727273,
                "end_time": 171.7568182,
                "pitch": 40,
                "velocity": 51,
                "duration": 0.0840909,
                "tempo": 120.0
            },
            {
                "start_time": 171.775,
                "end_time": 171.8568182,
                "pitch": 40,
                "velocity": 51,
                "duration": 0.0818182,
                "tempo": 120.0
            },
            {
                "start_time": 146.0840909,
                "end_time": 171.875,
                "pitch": 54,
                "velocity": 51,
                "duration": 25.7909091,
                "tempo": 120.0
            },
            {
                "start_time": 171.875,
                "end_time": 171.9568182,
                "pitch": 43,
                "velocity": 51,
                "duration": 0.0818182,
                "tempo": 120.0
            },
            {
                "start_time": 171.4727273,
                "end_time": 171.975,
                "pitch": 0,
                "velocity": 51,
                "duration": 0.5022727,
                "tempo": 120.0
            },
            {
                "start_time": 171.975,
                "end_time": 172.0590909,
                "pitch": 36,
                "velocity": 51,
                "duration": 0.0840909,
                "tempo": 120.0
            },
            {
                "start_time": 172.075,
                "end_time": 172.1590909,
                "pitch": 36,
                "velocity": 51,
                "duration": 0.0840909,
                "tempo": 120.0
            },
            {
                "start_time": 172.1772727,
                "end_time": 172.2590909,
                "pitch": 36,
                "velocity": 51,
                "duration": 0.0818182,
                "tempo": 120.0
            },
            {
                "start_time": 72.3931818,
                "end_time": 172.2772727,
                "pitch": 24,
                "velocity": 51,
                "duration": 99.8840909,
                "tempo": 120.0
            },
            {
                "start_time": 172.2772727,
                "end_time": 172.4613636,
                "pitch": 29,
                "velocity": 51,
                "duration": 0.1840909,
                "tempo": 120.0
            },
            {
                "start_time": 172.4795455,
                "end_time": 172.6636364,
                "pitch": 29,
                "velocity": 51,
                "duration": 0.1840909,
                "tempo": 120.0
            },
            {
                "start_time": 173.8840909,
                "end_time": 174.0704545,
                "pitch": 29,
                "velocity": 51,
                "duration": 0.1863636,
                "tempo": 120.0
            },
            {
                "start_time": 174.0863636,
                "end_time": 174.2704545,
                "pitch": 29,
                "velocity": 51,
                "duration": 0.1840909,
                "tempo": 120.0
            },
            {
                "start_time": 167.4409091,
                "end_time": 175.4954545,
                "pitch": 41,
                "velocity": 51,
                "duration": 8.0545455,
                "tempo": 120.0
            },
            {
                "start_time": 175.4954545,
                "end_time": 175.6795455,
                "pitch": 36,
                "velocity": 51,
                "duration": 0.1840909,
                "tempo": 120.0
            },
            {
                "start_time": 175.6954545,
                "end_time": 175.8795455,
                "pitch": 36,
                "velocity": 51,
                "duration": 0.1840909,
                "tempo": 120.0
            },
            {
                "start_time": 175.8954545,
                "end_time": 176.0795455,
                "pitch": 40,
                "velocity": 51,
                "duration": 0.1840909,
                "tempo": 120.0
            },
            {
                "start_time": 171.875,
                "end_time": 176.0977273,
                "pitch": 54,
                "velocity": 51,
                "duration": 4.2227273,
                "tempo": 120.0
            },
            {
                "start_time": 176.0977273,
                "end_time": 176.2818182,
                "pitch": 43,
                "velocity": 51,
                "duration": 0.1840909,
                "tempo": 120.0
            },
            {
                "start_time": 176.3,
                "end_time": 176.4863636,
                "pitch": 46,
                "velocity": 51,
                "duration": 0.1863636,
                "tempo": 120.0
            },
            {
                "start_time": 84.675,
                "end_time": 176.5045455,
                "pitch": 26,
                "velocity": 51,
                "duration": 91.8295455,
                "tempo": 120.0
            },
            {
                "start_time": 176.5045455,
                "end_time": 176.8909091,
                "pitch": 48,
                "velocity": 51,
                "duration": 0.3863636,
                "tempo": 120.0
            },
            {
                "start_time": 175.8954545,
                "end_time": 177.0863636,
                "pitch": 36,
                "velocity": 51,
                "duration": 1.1909091,
                "tempo": 120.0
            },
            {
                "start_time": 176.9068182,
                "end_time": 177.0863636,
                "pitch": 36,
                "velocity": 51,
                "duration": 0.1795455,
                "tempo": 120.0
            },
            {
                "start_time": 177.1022727,
                "end_time": 177.2909091,
                "pitch": 36,
                "velocity": 51,
                "duration": 0.1886364,
                "tempo": 120.0
            },
            {
                "start_time": 177.3090909,
                "end_time": 177.4977273,
                "pitch": 36,
                "velocity": 51,
                "duration": 0.1886364,
                "tempo": 120.0
            },
            {
                "start_time": 177.5136364,
                "end_time": 177.7,
                "pitch": 40,
                "velocity": 51,
                "duration": 0.1863636,
                "tempo": 120.0
            },
            {
                "start_time": 176.0977273,
                "end_time": 177.7159091,
                "pitch": 54,
                "velocity": 51,
                "duration": 1.6181818,
                "tempo": 120.0
            },
            {
                "start_time": 176.3,
                "end_time": 177.9,
                "pitch": 43,
                "velocity": 51,
                "duration": 1.6,
                "tempo": 120.0
            },
            {
                "start_time": 177.7159091,
                "end_time": 177.9,
                "pitch": 43,
                "velocity": 51,
                "duration": 0.1840909,
                "tempo": 120.0
            },
            {
                "start_time": 177.9181818,
                "end_time": 178.1022727,
                "pitch": 46,
                "velocity": 51,
                "duration": 0.1840909,
                "tempo": 120.0
            },
            {
                "start_time": 176.5045455,
                "end_time": 178.1204545,
                "pitch": 26,
                "velocity": 51,
                "duration": 1.6159091,
                "tempo": 120.0
            },
            {
                "start_time": 178.1181818,
                "end_time": 178.1204545,
                "pitch": 26,
                "velocity": 51,
                "duration": 0.0022727,
                "tempo": 120.0
            },
            {
                "start_time": 178.1204545,
                "end_time": 178.5,
                "pitch": 48,
                "velocity": 51,
                "duration": 0.3795455,
                "tempo": 120.0
            },
            {
                "start_time": 177.5136364,
                "end_time": 178.6977273,
                "pitch": 36,
                "velocity": 51,
                "duration": 1.1840909,
                "tempo": 120.0
            },
            {
                "start_time": 178.5181818,
                "end_time": 178.6977273,
                "pitch": 36,
                "velocity": 51,
                "duration": 0.1795455,
                "tempo": 120.0
            },
            {
                "start_time": 172.2772727,
                "end_time": 178.7136364,
                "pitch": 24,
                "velocity": 51,
                "duration": 6.4363636,
                "tempo": 120.0
            },
            {
                "start_time": 178.7136364,
                "end_time": 178.9022727,
                "pitch": 29,
                "velocity": 51,
                "duration": 0.1886364,
                "tempo": 120.0
            },
            {
                "start_time": 178.9181818,
                "end_time": 179.1068182,
                "pitch": 29,
                "velocity": 51,
                "duration": 0.1886364,
                "tempo": 120.0
            }
        ],
        "Trumpet": [
            {
                "start_time": 65.9636364,
                "end_time": 66.1613636,
                "pitch": 60,
                "velocity": 64,
                "duration": 0.1977273,
                "tempo": 120.0
            },
            {
                "start_time": 66.1613636,
                "end_time": 66.3636364,
                "pitch": 60,
                "velocity": 64,
                "duration": 0.2022727,
                "tempo": 120.0
            },
            {
                "start_time": 67.5681818,
                "end_time": 67.7681818,
                "pitch": 60,
                "velocity": 64,
                "duration": 0.2,
                "tempo": 120.0
            },
            {
                "start_time": 67.7681818,
                "end_time": 67.9681818,
                "pitch": 60,
                "velocity": 64,
                "duration": 0.2,
                "tempo": 120.0
            },
            {
                "start_time": 69.1772727,
                "end_time": 69.3772727,
                "pitch": 72,
                "velocity": 64,
                "duration": 0.2,
                "tempo": 120.0
            },
            {
                "start_time": 69.3772727,
                "end_time": 69.5795455,
                "pitch": 71,
                "velocity": 64,
                "duration": 0.2022727,
                "tempo": 120.0
            },
            {
                "start_time": 69.5795455,
                "end_time": 69.7795455,
                "pitch": 67,
                "velocity": 64,
                "duration": 0.2,
                "tempo": 120.0
            },
            {
                "start_time": 69.3772727,
                "end_time": 70.9840909,
                "pitch": 76,
                "velocity": 64,
                "duration": 1.6068182,
                "tempo": 120.0
            },
            {
                "start_time": 70.7840909,
                "end_time": 70.9840909,
                "pitch": 76,
                "velocity": 64,
                "duration": 0.2,
                "tempo": 120.0
            },
            {
                "start_time": 70.9863636,
                "end_time": 71.1863636,
                "pitch": 74,
                "velocity": 64,
                "duration": 0.2,
                "tempo": 120.0
            },
            {
                "start_time": 71.1863636,
                "end_time": 71.3886364,
                "pitch": 72,
                "velocity": 64,
                "duration": 0.2022727,
                "tempo": 120.0
            },
            {
                "start_time": 70.9863636,
                "end_time": 71.3886364,
                "pitch": 76,
                "velocity": 64,
                "duration": 0.4022727,
                "tempo": 120.0
            },
            {
                "start_time": 71.3886364,
                "end_time": 72.0727273,
                "pitch": 67,
                "velocity": 64,
                "duration": 0.6840909,
                "tempo": 120.0
            },
            {
                "start_time": 72.0727273,
                "end_time": 72.2068182,
                "pitch": 67,
                "velocity": 64,
                "duration": 0.1340909,
                "tempo": 120.0
            },
            {
                "start_time": 72.0727273,
                "end_time": 72.2068182,
                "pitch": 79,
                "velocity": 64,
                "duration": 0.1340909,
                "tempo": 120.0
            },
            {
                "start_time": 72.2068182,
                "end_time": 72.3409091,
                "pitch": 67,
                "velocity": 64,
                "duration": 0.1340909,
                "tempo": 120.0
            },
            {
                "start_time": 72.2068182,
                "end_time": 72.3409091,
                "pitch": 79,
                "velocity": 64,
                "duration": 0.1340909,
                "tempo": 120.0
            },
            {
                "start_time": 72.3409091,
                "end_time": 72.3954545,
                "pitch": 67,
                "velocity": 64,
                "duration": 0.0545455,
                "tempo": 120.0
            },
            {
                "start_time": 72.6,
                "end_time": 72.8045455,
                "pitch": 60,
                "velocity": 64,
                "duration": 0.2045455,
                "tempo": 120.0
            },
            {
                "start_time": 74.0022727,
                "end_time": 74.2068182,
                "pitch": 60,
                "velocity": 64,
                "duration": 0.2045455,
                "tempo": 120.0
            },
            {
                "start_time": 74.2068182,
                "end_time": 74.4113636,
                "pitch": 60,
                "velocity": 64,
                "duration": 0.2045455,
                "tempo": 120.0
            },
            {
                "start_time": 75.8090909,
                "end_time": 76.0090909,
                "pitch": 59,
                "velocity": 64,
                "duration": 0.2,
                "tempo": 120.0
            },
            {
                "start_time": 76.0113636,
                "end_time": 76.2159091,
                "pitch": 60,
                "velocity": 64,
                "duration": 0.2045455,
                "tempo": 120.0
            },
            {
                "start_time": 76.2159091,
                "end_time": 76.4204545,
                "pitch": 64,
                "velocity": 64,
                "duration": 0.2045455,
                "tempo": 120.0
            },
            {
                "start_time": 76.4227273,
                "end_time": 76.6227273,
                "pitch": 64,
                "velocity": 64,
                "duration": 0.2,
                "tempo": 120.0
            },
            {
                "start_time": 76.6227273,
                "end_time": 76.825,
                "pitch": 64,
                "velocity": 64,
                "duration": 0.2022727,
                "tempo": 120.0
            },
            {
                "start_time": 76.825,
                "end_time": 77.0204545,
                "pitch": 65,
                "velocity": 64,
                "duration": 0.1954545,
                "tempo": 120.0
            },
            {
                "start_time": 77.0204545,
                "end_time": 77.2159091,
                "pitch": 65,
                "velocity": 64,
                "duration": 0.1954545,
                "tempo": 120.0
            },
            {
                "start_time": 77.2159091,
                "end_time": 77.6204545,
                "pitch": 67,
                "velocity": 64,
                "duration": 0.4045455,
                "tempo": 120.0
            },
            {
                "start_time": 77.8272727,
                "end_time": 78.0318182,
                "pitch": 72,
                "velocity": 64,
                "duration": 0.2045455,
                "tempo": 120.0
            },
            {
                "start_time": 71.1863636,
                "end_time": 78.2318182,
                "pitch": 74,
                "velocity": 64,
                "duration": 7.0454545,
                "tempo": 120.0
            },
            {
                "start_time": 78.0318182,
                "end_time": 78.2318182,
                "pitch": 74,
                "velocity": 64,
                "duration": 0.2,
                "tempo": 120.0
            },
            {
                "start_time": 78.2318182,
                "end_time": 78.4318182,
                "pitch": 74,
                "velocity": 64,
                "duration": 0.2,
                "tempo": 120.0
            },
            {
                "start_time": 78.4318182,
                "end_time": 78.6340909,
                "pitch": 74,
                "velocity": 64,
                "duration": 0.2022727,
                "tempo": 120.0
            },
            {
                "start_time": 78.6340909,
                "end_time": 78.8363636,
                "pitch": 75,
                "velocity": 64,
                "duration": 0.2022727,
                "tempo": 120.0
            },
            {
                "start_time": 76.2159091,
                "end_time": 79.0363636,
                "pitch": 60,
                "velocity": 64,
                "duration": 2.8204545,
                "tempo": 120.0
            },
            {
                "start_time": 78.8386364,
                "end_time": 79.0363636,
                "pitch": 60,
                "velocity": 51,
                "duration": 0.1977273,
                "tempo": 120.0
            },
            {
                "start_time": 79.0363636,
                "end_time": 79.2386364,
                "pitch": 60,
                "velocity": 51,
                "duration": 0.2022727,
                "tempo": 120.0
            },
            {
                "start_time": 80.4431818,
                "end_time": 80.6454545,
                "pitch": 60,
                "velocity": 51,
                "duration": 0.2022727,
                "tempo": 120.0
            },
            {
                "start_time": 80.6454545,
                "end_time": 80.8454545,
                "pitch": 60,
                "velocity": 51,
                "duration": 0.2,
                "tempo": 120.0
            },
            {
                "start_time": 78.0318182,
                "end_time": 82.2545455,
                "pitch": 72,
                "velocity": 64,
                "duration": 4.2227273,
                "tempo": 120.0
            },
            {
                "start_time": 82.0545455,
                "end_time": 82.2545455,
                "pitch": 72,
                "velocity": 51,
                "duration": 0.2,
                "tempo": 120.0
            },
            {
                "start_time": 71.3886364,
                "end_time": 82.2545455,
                "pitch": 76,
                "velocity": 64,
                "duration": 10.8659091,
                "tempo": 120.0
            },
            {
                "start_time": 69.5795455,
                "end_time": 82.4545455,
                "pitch": 71,
                "velocity": 64,
                "duration": 12.875,
                "tempo": 120.0
            },
            {
                "start_time": 82.2545455,
                "end_time": 82.4545455,
                "pitch": 71,
                "velocity": 51,
                "duration": 0.2,
                "tempo": 120.0
            },
            {
                "start_time": 82.4545455,
                "end_time": 82.6568182,
                "pitch": 67,
                "velocity": 51,
                "duration": 0.2022727,
                "tempo": 120.0
            },
            {
                "start_time": 82.2545455,
                "end_time": 83.8659091,
                "pitch": 76,
                "velocity": 51,
                "duration": 1.6113636,
                "tempo": 120.0
            },
            {
                "start_time": 83.6613636,
                "end_time": 83.8659091,
                "pitch": 76,
                "velocity": 51,
                "duration": 0.2045455,
                "tempo": 120.0
            },
            {
                "start_time": 83.8681818,
                "end_time": 84.0727273,
                "pitch": 74,
                "velocity": 51,
                "duration": 0.2045455,
                "tempo": 120.0
            },
            {
                "start_time": 84.0727273,
                "end_time": 84.275,
                "pitch": 72,
                "velocity": 51,
                "duration": 0.2022727,
                "tempo": 120.0
            },
            {
                "start_time": 83.8681818,
                "end_time": 84.275,
                "pitch": 76,
                "velocity": 51,
                "duration": 0.4068182,
                "tempo": 120.0
            },
            {
                "start_time": 84.275,
                "end_time": 84.9590909,
                "pitch": 67,
                "velocity": 51,
                "duration": 0.6840909,
                "tempo": 120.0
            },
            {
                "start_time": 72.3409091,
                "end_time": 84.9590909,
                "pitch": 79,
                "velocity": 64,
                "duration": 12.6181818,
                "tempo": 120.0
            },
            {
                "start_time": 84.9590909,
                "end_time": 85.0909091,
                "pitch": 67,
                "velocity": 51,
                "duration": 0.1318182,
                "tempo": 120.0
            },
            {
                "start_time": 84.9590909,
                "end_time": 85.0909091,
                "pitch": 79,
                "velocity": 51,
                "duration": 0.1318182,
                "tempo": 120.0
            },
            {
                "start_time": 85.0909091,
                "end_time": 85.2204545,
                "pitch": 67,
                "velocity": 51,
                "duration": 0.1295455,
                "tempo": 120.0
            },
            {
                "start_time": 85.0909091,
                "end_time": 85.2204545,
                "pitch": 79,
                "velocity": 51,
                "duration": 0.1295455,
                "tempo": 120.0
            },
            {
                "start_time": 85.2204545,
                "end_time": 85.2727273,
                "pitch": 67,
                "velocity": 51,
                "duration": 0.0522727,
                "tempo": 120.0
            },
            {
                "start_time": 86.2863636,
                "end_time": 86.4863636,
                "pitch": 65,
                "velocity": 51,
                "duration": 0.2,
                "tempo": 120.0
            },
            {
                "start_time": 77.2159091,
                "end_time": 86.4886364,
                "pitch": 78,
                "velocity": 64,
                "duration": 9.2727273,
                "tempo": 120.0
            },
            {
                "start_time": 86.4886364,
                "end_time": 86.6931818,
                "pitch": 67,
                "velocity": 51,
                "duration": 0.2045455,
                "tempo": 120.0
            },
            {
                "start_time": 86.6931818,
                "end_time": 87.2659091,
                "pitch": 67,
                "velocity": 51,
                "duration": 0.5727273,
                "tempo": 120.0
            },
            {
                "start_time": 87.2659091,
                "end_time": 88.5022727,
                "pitch": 69,
                "velocity": 51,
                "duration": 1.2363636,
                "tempo": 120.0
            },
            {
                "start_time": 88.5022727,
                "end_time": 89.1863636,
                "pitch": 67,
                "velocity": 51,
                "duration": 0.6840909,
                "tempo": 120.0
            },
            {
                "start_time": 85.2204545,
                "end_time": 89.1863636,
                "pitch": 79,
                "velocity": 51,
                "duration": 3.9659091,
                "tempo": 120.0
            },
            {
                "start_time": 89.1863636,
                "end_time": 89.3045455,
                "pitch": 67,
                "velocity": 51,
                "duration": 0.1181818,
                "tempo": 120.0
            },
            {
                "start_time": 89.1863636,
                "end_time": 89.3045455,
                "pitch": 79,
                "velocity": 51,
                "duration": 0.1181818,
                "tempo": 120.0
            },
            {
                "start_time": 88.5022727,
                "end_time": 90.1090909,
                "pitch": 69,
                "velocity": 51,
                "duration": 1.6068182,
                "tempo": 120.0
            },
            {
                "start_time": 89.3045455,
                "end_time": 90.1090909,
                "pitch": 69,
                "velocity": 51,
                "duration": 0.8045455,
                "tempo": 120.0
            },
            {
                "start_time": 82.4545455,
                "end_time": 90.9204545,
                "pitch": 71,
                "velocity": 51,
                "duration": 8.4659091,
                "tempo": 120.0
            },
            {
                "start_time": 90.1090909,
                "end_time": 90.9204545,
                "pitch": 71,
                "velocity": 51,
                "duration": 0.8113636,
                "tempo": 120.0
            },
            {
                "start_time": 91.1227273,
                "end_time": 91.7295455,
                "pitch": 71,
                "velocity": 51,
                "duration": 0.6068182,
                "tempo": 120.0
            },
            {
                "start_time": 172.2818182,
                "end_time": 172.4795455,
                "pitch": 60,
                "velocity": 64,
                "duration": 0.1977273,
                "tempo": 120.0
            },
            {
                "start_time": 172.4818182,
                "end_time": 172.6818182,
                "pitch": 60,
                "velocity": 64,
                "duration": 0.2,
                "tempo": 120.0
            },
            {
                "start_time": 173.8863636,
                "end_time": 174.0886364,
                "pitch": 60,
                "velocity": 64,
                "duration": 0.2022727,
                "tempo": 120.0
            },
            {
                "start_time": 174.0886364,
                "end_time": 174.2886364,
                "pitch": 60,
                "velocity": 64,
                "duration": 0.2,
                "tempo": 120.0
            },
            {
                "start_time": 175.4977273,
                "end_time": 175.6977273,
                "pitch": 72,
                "velocity": 64,
                "duration": 0.2,
                "tempo": 120.0
            },
            {
                "start_time": 84.275,
                "end_time": 175.6977273,
                "pitch": 76,
                "velocity": 51,
                "duration": 91.4227273,
                "tempo": 120.0
            },
            {
                "start_time": 175.6977273,
                "end_time": 175.8977273,
                "pitch": 71,
                "velocity": 64,
                "duration": 0.2,
                "tempo": 120.0
            },
            {
                "start_time": 175.8977273,
                "end_time": 176.1,
                "pitch": 67,
                "velocity": 64,
                "duration": 0.2022727,
                "tempo": 120.0
            },
            {
                "start_time": 175.6977273,
                "end_time": 177.3113636,
                "pitch": 76,
                "velocity": 64,
                "duration": 1.6136364,
                "tempo": 120.0
            },
            {
                "start_time": 177.1045455,
                "end_time": 177.3113636,
                "pitch": 76,
                "velocity": 64,
                "duration": 0.2068182,
                "tempo": 120.0
            },
            {
                "start_time": 84.0727273,
                "end_time": 177.5159091,
                "pitch": 74,
                "velocity": 51,
                "duration": 93.4431818,
                "tempo": 120.0
            },
            {
                "start_time": 177.3113636,
                "end_time": 177.5159091,
                "pitch": 74,
                "velocity": 64,
                "duration": 0.2045455,
                "tempo": 120.0
            },
            {
                "start_time": 177.5159091,
                "end_time": 177.7181818,
                "pitch": 72,
                "velocity": 64,
                "duration": 0.2022727,
                "tempo": 120.0
            },
            {
                "start_time": 177.3113636,
                "end_time": 177.7181818,
                "pitch": 76,
                "velocity": 64,
                "duration": 0.4068182,
                "tempo": 120.0
            },
            {
                "start_time": 177.7181818,
                "end_time": 178.4022727,
                "pitch": 67,
                "velocity": 64,
                "duration": 0.6840909,
                "tempo": 120.0
            },
            {
                "start_time": 89.3045455,
                "end_time": 178.4022727,
                "pitch": 79,
                "velocity": 51,
                "duration": 89.0977273,
                "tempo": 120.0
            },
            {
                "start_time": 178.4022727,
                "end_time": 178.5340909,
                "pitch": 67,
                "velocity": 64,
                "duration": 0.1318182,
                "tempo": 120.0
            },
            {
                "start_time": 178.4022727,
                "end_time": 178.5340909,
                "pitch": 79,
                "velocity": 64,
                "duration": 0.1318182,
                "tempo": 120.0
            },
            {
                "start_time": 178.5340909,
                "end_time": 178.6659091,
                "pitch": 67,
                "velocity": 64,
                "duration": 0.1318182,
                "tempo": 120.0
            },
            {
                "start_time": 178.5340909,
                "end_time": 178.6659091,
                "pitch": 79,
                "velocity": 64,
                "duration": 0.1318182,
                "tempo": 120.0
            },
            {
                "start_time": 178.6659091,
                "end_time": 178.7159091,
                "pitch": 67,
                "velocity": 64,
                "duration": 0.05,
                "tempo": 120.0
            },
            {
                "start_time": 178.9204545,
                "end_time": 179.125,
                "pitch": 60,
                "velocity": 64,
                "duration": 0.2045455,
                "tempo": 120.0
            }
        ],
        "Clarinet": [
            {
                "start_time": 1.6022727,
                "end_time": 1.7022727,
                "pitch": 72,
                "velocity": 80,
                "duration": 0.1,
                "tempo": 120.0
            },
            {
                "start_time": 1.8068182,
                "end_time": 1.9090909,
                "pitch": 72,
                "velocity": 80,
                "duration": 0.1022727,
                "tempo": 120.0
            },
            {
                "start_time": 1.9090909,
                "end_time": 2.0113636,
                "pitch": 74,
                "velocity": 80,
                "duration": 0.1022727,
                "tempo": 120.0
            },
            {
                "start_time": 2.0136364,
                "end_time": 2.6181818,
                "pitch": 76,
                "velocity": 80,
                "duration": 0.6045455,
                "tempo": 120.0
            },
            {
                "start_time": 2.6181818,
                "end_time": 2.8227273,
                "pitch": 76,
                "velocity": 80,
                "duration": 0.2045455,
                "tempo": 120.0
            },
            {
                "start_time": 2.0136364,
                "end_time": 3.0204545,
                "pitch": 74,
                "velocity": 80,
                "duration": 1.0068182,
                "tempo": 120.0
            },
            {
                "start_time": 2.825,
                "end_time": 3.0204545,
                "pitch": 74,
                "velocity": 80,
                "duration": 0.1954545,
                "tempo": 120.0
            },
            {
                "start_time": 2.825,
                "end_time": 3.1181818,
                "pitch": 76,
                "velocity": 80,
                "duration": 0.2931818,
                "tempo": 120.0
            },
            {
                "start_time": 3.0204545,
                "end_time": 3.1181818,
                "pitch": 76,
                "velocity": 80,
                "duration": 0.0977273,
                "tempo": 120.0
            },
            {
                "start_time": 3.2159091,
                "end_time": 3.3159091,
                "pitch": 76,
                "velocity": 80,
                "duration": 0.1,
                "tempo": 120.0
            },
            {
                "start_time": 3.4181818,
                "end_time": 3.6181818,
                "pitch": 77,
                "velocity": 80,
                "duration": 0.2,
                "tempo": 120.0
            },
            {
                "start_time": 3.6181818,
                "end_time": 3.7181818,
                "pitch": 77,
                "velocity": 80,
                "duration": 0.1,
                "tempo": 120.0
            },
            {
                "start_time": 3.8227273,
                "end_time": 3.925,
                "pitch": 76,
                "velocity": 80,
                "duration": 0.1022727,
                "tempo": 120.0
            },
            {
                "start_time": 3.0204545,
                "end_time": 4.3227273,
                "pitch": 74,
                "velocity": 80,
                "duration": 1.3022727,
                "tempo": 120.0
            },
            {
                "start_time": 4.225,
                "end_time": 4.3227273,
                "pitch": 74,
                "velocity": 80,
                "duration": 0.0977273,
                "tempo": 120.0
            },
            {
                "start_time": 4.3227273,
                "end_time": 4.4204545,
                "pitch": 74,
                "velocity": 80,
                "duration": 0.0977273,
                "tempo": 120.0
            },
            {
                "start_time": 4.4204545,
                "end_time": 4.6272727,
                "pitch": 76,
                "velocity": 80,
                "duration": 0.2068182,
                "tempo": 120.0
            },
            {
                "start_time": 4.4204545,
                "end_time": 4.7295455,
                "pitch": 74,
                "velocity": 80,
                "duration": 0.3090909,
                "tempo": 120.0
            },
            {
                "start_time": 4.6272727,
                "end_time": 4.7295455,
                "pitch": 74,
                "velocity": 80,
                "duration": 0.1022727,
                "tempo": 120.0
            },
            {
                "start_time": 4.6272727,
                "end_time": 4.8318182,
                "pitch": 76,
                "velocity": 80,
                "duration": 0.2045455,
                "tempo": 120.0
            },
            {
                "start_time": 4.7295455,
                "end_time": 4.8318182,
                "pitch": 76,
                "velocity": 80,
                "duration": 0.1022727,
                "tempo": 120.0
            },
            {
                "start_time": 1.9090909,
                "end_time": 4.9318182,
                "pitch": 72,
                "velocity": 80,
                "duration": 3.0227273,
                "tempo": 120.0
            },
            {
                "start_time": 4.8340909,
                "end_time": 4.9318182,
                "pitch": 72,
                "velocity": 80,
                "duration": 0.0977273,
                "tempo": 120.0
            },
            {
                "start_time": 5.0340909,
                "end_time": 5.1340909,
                "pitch": 72,
                "velocity": 80,
                "duration": 0.1,
                "tempo": 120.0
            },
            {
                "start_time": 4.7295455,
                "end_time": 5.2363636,
                "pitch": 74,
                "velocity": 80,
                "duration": 0.5068182,
                "tempo": 120.0
            },
            {
                "start_time": 5.1340909,
                "end_time": 5.2363636,
                "pitch": 74,
                "velocity": 80,
                "duration": 0.1022727,
                "tempo": 120.0
            },
            {
                "start_time": 4.8340909,
                "end_time": 5.8340909,
                "pitch": 76,
                "velocity": 80,
                "duration": 1.0,
                "tempo": 120.0
            },
            {
                "start_time": 5.2363636,
                "end_time": 5.8340909,
                "pitch": 76,
                "velocity": 80,
                "duration": 0.5977273,
                "tempo": 120.0
            },
            {
                "start_time": 5.8340909,
                "end_time": 6.0386364,
                "pitch": 76,
                "velocity": 80,
                "duration": 0.2045455,
                "tempo": 120.0
            },
            {
                "start_time": 5.2363636,
                "end_time": 6.2454545,
                "pitch": 74,
                "velocity": 80,
                "duration": 1.0090909,
                "tempo": 120.0
            },
            {
                "start_time": 6.0386364,
                "end_time": 6.2454545,
                "pitch": 74,
                "velocity": 80,
                "duration": 0.2068182,
                "tempo": 120.0
            },
            {
                "start_time": 6.0386364,
                "end_time": 6.3477273,
                "pitch": 76,
                "velocity": 80,
                "duration": 0.3090909,
                "tempo": 120.0
            },
            {
                "start_time": 6.2454545,
                "end_time": 6.3477273,
                "pitch": 76,
                "velocity": 80,
                "duration": 0.1022727,
                "tempo": 120.0
            },
            {
                "start_time": 6.45,
                "end_time": 6.55,
                "pitch": 76,
                "velocity": 80,
                "duration": 0.1,
                "tempo": 120.0
            },
            {
                "start_time": 4.225,
                "end_time": 6.8431818,
                "pitch": 77,
                "velocity": 80,
                "duration": 2.6181818,
                "tempo": 120.0
            },
            {
                "start_time": 6.6477273,
                "end_time": 6.8431818,
                "pitch": 77,
                "velocity": 80,
                "duration": 0.1954545,
                "tempo": 120.0
            },
            {
                "start_time": 6.8454545,
                "end_time": 6.9431818,
                "pitch": 77,
                "velocity": 80,
                "duration": 0.0977273,
                "tempo": 120.0
            },
            {
                "start_time": 7.0454545,
                "end_time": 7.1454545,
                "pitch": 76,
                "velocity": 80,
                "duration": 0.1,
                "tempo": 120.0
            },
            {
                "start_time": 6.2454545,
                "end_time": 7.5477273,
                "pitch": 74,
                "velocity": 80,
                "duration": 1.3022727,
                "tempo": 120.0
            },
            {
                "start_time": 7.4477273,
                "end_time": 7.5477273,
                "pitch": 74,
                "velocity": 80,
                "duration": 0.1,
                "tempo": 120.0
            },
            {
                "start_time": 7.5477273,
                "end_time": 7.6477273,
                "pitch": 74,
                "velocity": 80,
                "duration": 0.1,
                "tempo": 120.0
            },
            {
                "start_time": 7.6477273,
                "end_time": 7.85,
                "pitch": 76,
                "velocity": 80,
                "duration": 0.2022727,
                "tempo": 120.0
            },
            {
                "start_time": 7.6477273,
                "end_time": 7.95,
                "pitch": 74,
                "velocity": 80,
                "duration": 0.3022727,
                "tempo": 120.0
            },
            {
                "start_time": 7.85,
                "end_time": 7.95,
                "pitch": 74,
                "velocity": 80,
                "duration": 0.1,
                "tempo": 120.0
            },
            {
                "start_time": 7.85,
                "end_time": 8.0522727,
                "pitch": 76,
                "velocity": 80,
                "duration": 0.2022727,
                "tempo": 120.0
            },
            {
                "start_time": 7.95,
                "end_time": 8.0522727,
                "pitch": 76,
                "velocity": 80,
                "duration": 0.1022727,
                "tempo": 120.0
            },
            {
                "start_time": 5.1340909,
                "end_time": 8.15,
                "pitch": 72,
                "velocity": 80,
                "duration": 3.0159091,
                "tempo": 120.0
            },
            {
                "start_time": 8.0522727,
                "end_time": 8.15,
                "pitch": 72,
                "velocity": 80,
                "duration": 0.0977273,
                "tempo": 120.0
            },
            {
                "start_time": 8.2522727,
                "end_time": 8.35,
                "pitch": 72,
                "velocity": 80,
                "duration": 0.0977273,
                "tempo": 120.0
            },
            {
                "start_time": 7.95,
                "end_time": 8.4522727,
                "pitch": 74,
                "velocity": 80,
                "duration": 0.5022727,
                "tempo": 120.0
            },
            {
                "start_time": 8.3522727,
                "end_time": 8.4522727,
                "pitch": 74,
                "velocity": 80,
                "duration": 0.1,
                "tempo": 120.0
            },
            {
                "start_time": 8.0522727,
                "end_time": 9.0590909,
                "pitch": 76,
                "velocity": 80,
                "duration": 1.0068182,
                "tempo": 120.0
            },
            {
                "start_time": 8.4522727,
                "end_time": 9.0590909,
                "pitch": 76,
                "velocity": 80,
                "duration": 0.6068182,
                "tempo": 120.0
            },
            {
                "start_time": 9.0613636,
                "end_time": 9.2659091,
                "pitch": 76,
                "velocity": 80,
                "duration": 0.2045455,
                "tempo": 120.0
            },
            {
                "start_time": 8.4522727,
                "end_time": 9.4636364,
                "pitch": 74,
                "velocity": 80,
                "duration": 1.0113636,
                "tempo": 120.0
            },
            {
                "start_time": 9.2659091,
                "end_time": 9.4636364,
                "pitch": 74,
                "velocity": 80,
                "duration": 0.1977273,
                "tempo": 120.0
            },
            {
                "start_time": 9.2659091,
                "end_time": 9.5590909,
                "pitch": 76,
                "velocity": 80,
                "duration": 0.2931818,
                "tempo": 120.0
            },
            {
                "start_time": 9.4636364,
                "end_time": 9.5590909,
                "pitch": 76,
                "velocity": 80,
                "duration": 0.0954545,
                "tempo": 120.0
            },
            {
                "start_time": 9.6590909,
                "end_time": 9.7590909,
                "pitch": 76,
                "velocity": 80,
                "duration": 0.1,
                "tempo": 120.0
            },
            {
                "start_time": 7.4477273,
                "end_time": 10.0590909,
                "pitch": 77,
                "velocity": 80,
                "duration": 2.6113636,
                "tempo": 120.0
            },
            {
                "start_time": 9.8590909,
                "end_time": 10.0590909,
                "pitch": 77,
                "velocity": 80,
                "duration": 0.2,
                "tempo": 120.0
            },
            {
                "start_time": 10.0590909,
                "end_time": 10.1613636,
                "pitch": 77,
                "velocity": 80,
                "duration": 0.1022727,
                "tempo": 120.0
            },
            {
                "start_time": 10.2636364,
                "end_time": 10.3659091,
                "pitch": 76,
                "velocity": 80,
                "duration": 0.1022727,
                "tempo": 120.0
            },
            {
                "start_time": 9.4636364,
                "end_time": 10.7636364,
                "pitch": 74,
                "velocity": 80,
                "duration": 1.3,
                "tempo": 120.0
            },
            {
                "start_time": 10.6681818,
                "end_time": 10.7636364,
                "pitch": 74,
                "velocity": 80,
                "duration": 0.0954545,
                "tempo": 120.0
            },
            {
                "start_time": 10.7659091,
                "end_time": 10.8636364,
                "pitch": 74,
                "velocity": 80,
                "duration": 0.0977273,
                "tempo": 120.0
            },
            {
                "start_time": 10.8636364,
                "end_time": 11.0681818,
                "pitch": 76,
                "velocity": 80,
                "duration": 0.2045455,
                "tempo": 120.0
            },
            {
                "start_time": 10.8636364,
                "end_time": 11.1704545,
                "pitch": 74,
                "velocity": 80,
                "duration": 0.3068182,
                "tempo": 120.0
            },
            {
                "start_time": 11.0681818,
                "end_time": 11.1704545,
                "pitch": 74,
                "velocity": 80,
                "duration": 0.1022727,
                "tempo": 120.0
            },
            {
                "start_time": 11.0681818,
                "end_time": 11.275,
                "pitch": 76,
                "velocity": 80,
                "duration": 0.2068182,
                "tempo": 120.0
            },
            {
                "start_time": 11.1704545,
                "end_time": 11.275,
                "pitch": 76,
                "velocity": 80,
                "duration": 0.1045455,
                "tempo": 120.0
            },
            {
                "start_time": 8.3522727,
                "end_time": 11.375,
                "pitch": 72,
                "velocity": 80,
                "duration": 3.0227273,
                "tempo": 120.0
            },
            {
                "start_time": 11.275,
                "end_time": 11.375,
                "pitch": 72,
                "velocity": 80,
                "duration": 0.1,
                "tempo": 120.0
            },
            {
                "start_time": 11.475,
                "end_time": 11.5772727,
                "pitch": 72,
                "velocity": 80,
                "duration": 0.1022727,
                "tempo": 120.0
            },
            {
                "start_time": 11.1704545,
                "end_time": 11.6772727,
                "pitch": 74,
                "velocity": 80,
                "duration": 0.5068182,
                "tempo": 120.0
            },
            {
                "start_time": 11.5772727,
                "end_time": 11.6772727,
                "pitch": 74,
                "velocity": 80,
                "duration": 0.1,
                "tempo": 120.0
            },
            {
                "start_time": 11.275,
                "end_time": 12.2818182,
                "pitch": 76,
                "velocity": 80,
                "duration": 1.0068182,
                "tempo": 120.0
            },
            {
                "start_time": 11.6772727,
                "end_time": 12.2818182,
                "pitch": 76,
                "velocity": 80,
                "duration": 0.6045455,
                "tempo": 120.0
            },
            {
                "start_time": 12.2818182,
                "end_time": 12.4818182,
                "pitch": 76,
                "velocity": 80,
                "duration": 0.2,
                "tempo": 120.0
            },
            {
                "start_time": 11.6772727,
                "end_time": 12.6840909,
                "pitch": 74,
                "velocity": 80,
                "duration": 1.0068182,
                "tempo": 120.0
            },
            {
                "start_time": 12.4818182,
                "end_time": 12.6840909,
                "pitch": 74,
                "velocity": 80,
                "duration": 0.2022727,
                "tempo": 120.0
            },
            {
                "start_time": 12.4818182,
                "end_time": 12.7840909,
                "pitch": 76,
                "velocity": 80,
                "duration": 0.3022727,
                "tempo": 120.0
            },
            {
                "start_time": 12.6840909,
                "end_time": 12.7840909,
                "pitch": 76,
                "velocity": 80,
                "duration": 0.1,
                "tempo": 120.0
            },
            {
                "start_time": 12.8840909,
                "end_time": 12.9840909,
                "pitch": 76,
                "velocity": 80,
                "duration": 0.1,
                "tempo": 120.0
            },
            {
                "start_time": 10.6681818,
                "end_time": 13.2886364,
                "pitch": 77,
                "velocity": 80,
                "duration": 2.6204545,
                "tempo": 120.0
            },
            {
                "start_time": 13.0863636,
                "end_time": 13.2886364,
                "pitch": 77,
                "velocity": 80,
                "duration": 0.2022727,
                "tempo": 120.0
            },
            {
                "start_time": 13.2886364,
                "end_time": 13.3886364,
                "pitch": 77,
                "velocity": 80,
                "duration": 0.1,
                "tempo": 120.0
            },
            {
                "start_time": 13.4886364,
                "end_time": 13.5886364,
                "pitch": 76,
                "velocity": 80,
                "duration": 0.1,
                "tempo": 120.0
            },
            {
                "start_time": 12.6840909,
                "end_time": 13.9931818,
                "pitch": 74,
                "velocity": 80,
                "duration": 1.3090909,
                "tempo": 120.0
            },
            {
                "start_time": 13.8931818,
                "end_time": 13.9931818,
                "pitch": 74,
                "velocity": 80,
                "duration": 0.1,
                "tempo": 120.0
            },
            {
                "start_time": 13.9931818,
                "end_time": 14.0931818,
                "pitch": 74,
                "velocity": 80,
                "duration": 0.1,
                "tempo": 120.0
            },
            {
                "start_time": 14.0954545,
                "end_time": 14.2909091,
                "pitch": 76,
                "velocity": 80,
                "duration": 0.1954545,
                "tempo": 120.0
            },
            {
                "start_time": 14.0954545,
                "end_time": 14.3886364,
                "pitch": 74,
                "velocity": 80,
                "duration": 0.2931818,
                "tempo": 120.0
            },
            {
                "start_time": 14.2909091,
                "end_time": 14.3886364,
                "pitch": 74,
                "velocity": 80,
                "duration": 0.0977273,
                "tempo": 120.0
            },
            {
                "start_time": 14.2909091,
                "end_time": 14.4863636,
                "pitch": 76,
                "velocity": 80,
                "duration": 0.1954545,
                "tempo": 120.0
            },
            {
                "start_time": 14.3886364,
                "end_time": 14.4863636,
                "pitch": 76,
                "velocity": 80,
                "duration": 0.0977273,
                "tempo": 120.0
            },
            {
                "start_time": 14.4886364,
                "end_time": 14.6931818,
                "pitch": 64,
                "velocity": 51,
                "duration": 0.2045455,
                "tempo": 120.0
            },
            {
                "start_time": 14.6931818,
                "end_time": 14.8977273,
                "pitch": 64,
                "velocity": 51,
                "duration": 0.2045455,
                "tempo": 120.0
            },
            {
                "start_time": 14.8977273,
                "end_time": 15.1,
                "pitch": 65,
                "velocity": 51,
                "duration": 0.2022727,
                "tempo": 120.0
            },
            {
                "start_time": 15.1,
                "end_time": 15.3022727,
                "pitch": 64,
                "velocity": 51,
                "duration": 0.2022727,
                "tempo": 120.0
            },
            {
                "start_time": 15.5045455,
                "end_time": 16.1090909,
                "pitch": 65,
                "velocity": 51,
                "duration": 0.6045455,
                "tempo": 120.0
            },
            {
                "start_time": 16.1090909,
                "end_time": 16.3090909,
                "pitch": 64,
                "velocity": 51,
                "duration": 0.2,
                "tempo": 120.0
            },
            {
                "start_time": 16.3090909,
                "end_time": 16.5113636,
                "pitch": 64,
                "velocity": 51,
                "duration": 0.2022727,
                "tempo": 120.0
            },
            {
                "start_time": 16.5113636,
                "end_time": 16.7113636,
                "pitch": 65,
                "velocity": 51,
                "duration": 0.2,
                "tempo": 120.0
            },
            {
                "start_time": 13.8931818,
                "end_time": 16.7113636,
                "pitch": 77,
                "velocity": 80,
                "duration": 2.8181818,
                "tempo": 120.0
            },
            {
                "start_time": 16.7113636,
                "end_time": 16.9113636,
                "pitch": 67,
                "velocity": 51,
                "duration": 0.2,
                "tempo": 120.0
            },
            {
                "start_time": 1.6022727,
                "end_time": 17.1136364,
                "pitch": 0,
                "velocity": 80,
                "duration": 15.5113636,
                "tempo": 120.0
            },
            {
                "start_time": 17.1136364,
                "end_time": 17.7159091,
                "pitch": 64,
                "velocity": 51,
                "duration": 0.6022727,
                "tempo": 120.0
            },
            {
                "start_time": 17.7159091,
                "end_time": 17.9204545,
                "pitch": 64,
                "velocity": 51,
                "duration": 0.2045455,
                "tempo": 120.0
            },
            {
                "start_time": 17.9227273,
                "end_time": 18.1272727,
                "pitch": 64,
                "velocity": 51,
                "duration": 0.2045455,
                "tempo": 120.0
            },
            {
                "start_time": 18.1272727,
                "end_time": 18.3227273,
                "pitch": 65,
                "velocity": 51,
                "duration": 0.1954545,
                "tempo": 120.0
            },
            {
                "start_time": 16.7113636,
                "end_time": 18.325,
                "pitch": 77,
                "velocity": 51,
                "duration": 1.6136364,
                "tempo": 120.0
            },
            {
                "start_time": 18.325,
                "end_time": 18.5204545,
                "pitch": 69,
                "velocity": 51,
                "duration": 0.1954545,
                "tempo": 120.0
            },
            {
                "start_time": 18.7204545,
                "end_time": 18.9204545,
                "pitch": 64,
                "velocity": 51,
                "duration": 0.2,
                "tempo": 120.0
            },
            {
                "start_time": 18.9204545,
                "end_time": 19.1204545,
                "pitch": 60,
                "velocity": 51,
                "duration": 0.2,
                "tempo": 120.0
            },
            {
                "start_time": 19.1204545,
                "end_time": 19.3204545,
                "pitch": 62,
                "velocity": 51,
                "duration": 0.2,
                "tempo": 120.0
            },
            {
                "start_time": 18.9204545,
                "end_time": 19.9295455,
                "pitch": 64,
                "velocity": 51,
                "duration": 1.0090909,
                "tempo": 120.0
            },
            {
                "start_time": 19.3204545,
                "end_time": 19.9295455,
                "pitch": 64,
                "velocity": 51,
                "duration": 0.6090909,
                "tempo": 120.0
            },
            {
                "start_time": 19.3204545,
                "end_time": 20.025,
                "pitch": 62,
                "velocity": 51,
                "duration": 0.7045455,
                "tempo": 120.0
            },
            {
                "start_time": 19.9295455,
                "end_time": 20.025,
                "pitch": 62,
                "velocity": 51,
                "duration": 0.0954545,
                "tempo": 120.0
            },
            {
                "start_time": 19.9295455,
                "end_time": 20.125,
                "pitch": 64,
                "velocity": 51,
                "duration": 0.1954545,
                "tempo": 120.0
            },
            {
                "start_time": 20.0272727,
                "end_time": 20.125,
                "pitch": 64,
                "velocity": 51,
                "duration": 0.0977273,
                "tempo": 120.0
            },
            {
                "start_time": 20.0272727,
                "end_time": 20.5363636,
                "pitch": 62,
                "velocity": 51,
                "duration": 0.5090909,
                "tempo": 120.0
            },
            {
                "start_time": 20.125,
                "end_time": 20.5363636,
                "pitch": 62,
                "velocity": 51,
                "duration": 0.4113636,
                "tempo": 120.0
            },
            {
                "start_time": 19.1204545,
                "end_time": 20.7386364,
                "pitch": 60,
                "velocity": 51,
                "duration": 1.6181818,
                "tempo": 120.0
            },
            {
                "start_time": 20.5363636,
                "end_time": 20.7386364,
                "pitch": 60,
                "velocity": 51,
                "duration": 0.2022727,
                "tempo": 120.0
            },
            {
                "start_time": 20.5363636,
                "end_time": 20.9386364,
                "pitch": 62,
                "velocity": 51,
                "duration": 0.4022727,
                "tempo": 120.0
            },
            {
                "start_time": 20.7386364,
                "end_time": 20.9386364,
                "pitch": 62,
                "velocity": 51,
                "duration": 0.2,
                "tempo": 120.0
            },
            {
                "start_time": 20.7386364,
                "end_time": 21.7318182,
                "pitch": 60,
                "velocity": 51,
                "duration": 0.9931818,
                "tempo": 120.0
            },
            {
                "start_time": 20.9386364,
                "end_time": 21.7318182,
                "pitch": 60,
                "velocity": 51,
                "duration": 0.7931818,
                "tempo": 120.0
            },
            {
                "start_time": 20.125,
                "end_time": 21.9386364,
                "pitch": 64,
                "velocity": 51,
                "duration": 1.8136364,
                "tempo": 120.0
            },
            {
                "start_time": 21.9386364,
                "end_time": 22.1431818,
                "pitch": 57,
                "velocity": 51,
                "duration": 0.2045455,
                "tempo": 120.0
            },
            {
                "start_time": 22.1431818,
                "end_time": 22.3431818,
                "pitch": 59,
                "velocity": 51,
                "duration": 0.2,
                "tempo": 120.0
            },
            {
                "start_time": 22.3454545,
                "end_time": 22.5454545,
                "pitch": 60,
                "velocity": 51,
                "duration": 0.2,
                "tempo": 120.0
            },
            {
                "start_time": 20.9386364,
                "end_time": 22.9477273,
                "pitch": 62,
                "velocity": 51,
                "duration": 2.0090909,
                "tempo": 120.0
            },
            {
                "start_time": 22.5454545,
                "end_time": 22.9477273,
                "pitch": 62,
                "velocity": 51,
                "duration": 0.4022727,
                "tempo": 120.0
            },
            {
                "start_time": 21.9386364,
                "end_time": 23.1477273,
                "pitch": 64,
                "velocity": 51,
                "duration": 1.2090909,
                "tempo": 120.0
            },
            {
                "start_time": 22.9477273,
                "end_time": 23.1477273,
                "pitch": 64,
                "velocity": 51,
                "duration": 0.2,
                "tempo": 120.0
            },
            {
                "start_time": 22.9477273,
                "end_time": 23.3477273,
                "pitch": 62,
                "velocity": 51,
                "duration": 0.4,
                "tempo": 120.0
            },
            {
                "start_time": 23.1477273,
                "end_time": 23.3477273,
                "pitch": 62,
                "velocity": 51,
                "duration": 0.2,
                "tempo": 120.0
            },
            {
                "start_time": 23.55,
                "end_time": 23.7477273,
                "pitch": 62,
                "velocity": 51,
                "duration": 0.1977273,
                "tempo": 120.0
            },
            {
                "start_time": 23.1477273,
                "end_time": 23.95,
                "pitch": 64,
                "velocity": 51,
                "duration": 0.8022727,
                "tempo": 120.0
            },
            {
                "start_time": 23.75,
                "end_time": 23.95,
                "pitch": 64,
                "velocity": 51,
                "duration": 0.2,
                "tempo": 120.0
            },
            {
                "start_time": 23.95,
                "end_time": 24.1522727,
                "pitch": 64,
                "velocity": 51,
                "duration": 0.2022727,
                "tempo": 120.0
            },
            {
                "start_time": 24.1522727,
                "end_time": 24.5522727,
                "pitch": 69,
                "velocity": 51,
                "duration": 0.4,
                "tempo": 120.0
            },
            {
                "start_time": 24.5522727,
                "end_time": 24.9568182,
                "pitch": 71,
                "velocity": 51,
                "duration": 0.4045455,
                "tempo": 120.0
            },
            {
                "start_time": 11.5772727,
                "end_time": 25.1568182,
                "pitch": 72,
                "velocity": 80,
                "duration": 13.5795455,
                "tempo": 120.0
            },
            {
                "start_time": 24.9568182,
                "end_time": 25.1568182,
                "pitch": 72,
                "velocity": 51,
                "duration": 0.2,
                "tempo": 120.0
            },
            {
                "start_time": 14.3886364,
                "end_time": 25.3568182,
                "pitch": 74,
                "velocity": 80,
                "duration": 10.9681818,
                "tempo": 120.0
            },
            {
                "start_time": 25.1568182,
                "end_time": 25.3568182,
                "pitch": 74,
                "velocity": 51,
                "duration": 0.2,
                "tempo": 120.0
            },
            {
                "start_time": 18.325,
                "end_time": 25.5568182,
                "pitch": 77,
                "velocity": 51,
                "duration": 7.2318182,
                "tempo": 120.0
            },
            {
                "start_time": 25.5568182,
                "end_time": 25.9590909,
                "pitch": 71,
                "velocity": 51,
                "duration": 0.4022727,
                "tempo": 120.0
            },
            {
                "start_time": 25.9590909,
                "end_time": 26.1590909,
                "pitch": 71,
                "velocity": 51,
                "duration": 0.2,
                "tempo": 120.0
            },
            {
                "start_time": 24.9568182,
                "end_time": 26.1613636,
                "pitch": 55,
                "velocity": 51,
                "duration": 1.2045455,
                "tempo": 120.0
            },
            {
                "start_time": 25.1568182,
                "end_time": 26.3613636,
                "pitch": 72,
                "velocity": 51,
                "duration": 1.2045455,
                "tempo": 120.0
            },
            {
                "start_time": 26.1613636,
                "end_time": 26.3613636,
                "pitch": 72,
                "velocity": 51,
                "duration": 0.2,
                "tempo": 120.0
            },
            {
                "start_time": 26.3613636,
                "end_time": 26.5613636,
                "pitch": 74,
                "velocity": 51,
                "duration": 0.2,
                "tempo": 120.0
            },
            {
                "start_time": 26.7659091,
                "end_time": 26.9727273,
                "pitch": 74,
                "velocity": 51,
                "duration": 0.2068182,
                "tempo": 120.0
            },
            {
                "start_time": 26.9727273,
                "end_time": 27.1727273,
                "pitch": 76,
                "velocity": 51,
                "duration": 0.2,
                "tempo": 120.0
            },
            {
                "start_time": 26.9727273,
                "end_time": 27.375,
                "pitch": 74,
                "velocity": 51,
                "duration": 0.4022727,
                "tempo": 120.0
            },
            {
                "start_time": 27.175,
                "end_time": 27.375,
                "pitch": 74,
                "velocity": 51,
                "duration": 0.2,
                "tempo": 120.0
            },
            {
                "start_time": 26.3613636,
                "end_time": 27.575,
                "pitch": 72,
                "velocity": 51,
                "duration": 1.2136364,
                "tempo": 120.0
            },
            {
                "start_time": 27.375,
                "end_time": 27.575,
                "pitch": 72,
                "velocity": 51,
                "duration": 0.2,
                "tempo": 120.0
            },
            {
                "start_time": 27.175,
                "end_time": 27.575,
                "pitch": 76,
                "velocity": 51,
                "duration": 0.4,
                "tempo": 120.0
            },
            {
                "start_time": 27.575,
                "end_time": 27.775,
                "pitch": 71,
                "velocity": 51,
                "duration": 0.2,
                "tempo": 120.0
            },
            {
                "start_time": 26.1613636,
                "end_time": 27.7772727,
                "pitch": 55,
                "velocity": 51,
                "duration": 1.6159091,
                "tempo": 120.0
            },
            {
                "start_time": 27.375,
                "end_time": 27.9727273,
                "pitch": 74,
                "velocity": 51,
                "duration": 0.5977273,
                "tempo": 120.0
            },
            {
                "start_time": 27.7772727,
                "end_time": 27.9727273,
                "pitch": 74,
                "velocity": 51,
                "duration": 0.1954545,
                "tempo": 120.0
            },
            {
                "start_time": 27.9727273,
                "end_time": 28.1681818,
                "pitch": 72,
                "velocity": 51,
                "duration": 0.1954545,
                "tempo": 120.0
            },
            {
                "start_time": 27.575,
                "end_time": 28.375,
                "pitch": 76,
                "velocity": 51,
                "duration": 0.8,
                "tempo": 120.0
            },
            {
                "start_time": 28.375,
                "end_time": 28.7795455,
                "pitch": 71,
                "velocity": 51,
                "duration": 0.4045455,
                "tempo": 120.0
            },
            {
                "start_time": 28.7795455,
                "end_time": 28.9795455,
                "pitch": 67,
                "velocity": 51,
                "duration": 0.2,
                "tempo": 120.0
            },
            {
                "start_time": 17.1136364,
                "end_time": 28.9818182,
                "pitch": 0,
                "velocity": 51,
                "duration": 11.8681818,
                "tempo": 120.0
            },
            {
                "start_time": 28.9818182,
                "end_time": 29.1818182,
                "pitch": 72,
                "velocity": 51,
                "duration": 0.2,
                "tempo": 120.0
            },
            {
                "start_time": 28.375,
                "end_time": 29.1818182,
                "pitch": 76,
                "velocity": 51,
                "duration": 0.8068182,
                "tempo": 120.0
            },
            {
                "start_time": 29.1818182,
                "end_time": 29.3840909,
                "pitch": 70,
                "velocity": 51,
                "duration": 0.2022727,
                "tempo": 120.0
            },
            {
                "start_time": 27.9727273,
                "end_time": 29.5840909,
                "pitch": 74,
                "velocity": 51,
                "duration": 1.6113636,
                "tempo": 120.0
            },
            {
                "start_time": 29.3840909,
                "end_time": 29.5840909,
                "pitch": 74,
                "velocity": 51,
                "duration": 0.2,
                "tempo": 120.0
            },
            {
                "start_time": 29.5840909,
                "end_time": 29.7840909,
                "pitch": 72,
                "velocity": 51,
                "duration": 0.2,
                "tempo": 120.0
            },
            {
                "start_time": 29.5840909,
                "end_time": 30.5886364,
                "pitch": 74,
                "velocity": 51,
                "duration": 1.0045455,
                "tempo": 120.0
            },
            {
                "start_time": 29.9840909,
                "end_time": 30.5886364,
                "pitch": 74,
                "velocity": 51,
                "duration": 0.6045455,
                "tempo": 120.0
            },
            {
                "start_time": 29.1818182,
                "end_time": 30.7886364,
                "pitch": 76,
                "velocity": 51,
                "duration": 1.6068182,
                "tempo": 120.0
            },
            {
                "start_time": 30.5886364,
                "end_time": 30.7886364,
                "pitch": 76,
                "velocity": 51,
                "duration": 0.2,
                "tempo": 120.0
            },
            {
                "start_time": 30.5886364,
                "end_time": 30.9886364,
                "pitch": 74,
                "velocity": 51,
                "duration": 0.4,
                "tempo": 120.0
            },
            {
                "start_time": 30.7886364,
                "end_time": 30.9886364,
                "pitch": 74,
                "velocity": 51,
                "duration": 0.2,
                "tempo": 120.0
            },
            {
                "start_time": 30.9886364,
                "end_time": 31.1909091,
                "pitch": 81,
                "velocity": 51,
                "duration": 0.2022727,
                "tempo": 120.0
            },
            {
                "start_time": 31.1909091,
                "end_time": 31.3909091,
                "pitch": 81,
                "velocity": 51,
                "duration": 0.2,
                "tempo": 120.0
            },
            {
                "start_time": 28.9818182,
                "end_time": 31.5931818,
                "pitch": 0,
                "velocity": 51,
                "duration": 2.6113636,
                "tempo": 120.0
            },
            {
                "start_time": 25.5568182,
                "end_time": 31.9931818,
                "pitch": 77,
                "velocity": 51,
                "duration": 6.4363636,
                "tempo": 120.0
            },
            {
                "start_time": 31.5931818,
                "end_time": 31.9931818,
                "pitch": 77,
                "velocity": 51,
                "duration": 0.4,
                "tempo": 120.0
            },
            {
                "start_time": 31.5931818,
                "end_time": 32.1931818,
                "pitch": 0,
                "velocity": 51,
                "duration": 0.6,
                "tempo": 120.0
            },
            {
                "start_time": 31.9931818,
                "end_time": 32.1931818,
                "pitch": 79,
                "velocity": 51,
                "duration": 0.2,
                "tempo": 120.0
            },
            {
                "start_time": 32.1931818,
                "end_time": 32.7954545,
                "pitch": 77,
                "velocity": 51,
                "duration": 0.6022727,
                "tempo": 120.0
            },
            {
                "start_time": 31.9931818,
                "end_time": 32.7954545,
                "pitch": 90,
                "velocity": 51,
                "duration": 0.8022727,
                "tempo": 120.0
            },
            {
                "start_time": 32.1931818,
                "end_time": 32.8954545,
                "pitch": 0,
                "velocity": 51,
                "duration": 0.7022727,
                "tempo": 120.0
            },
            {
                "start_time": 32.7954545,
                "end_time": 32.8954545,
                "pitch": 79,
                "velocity": 51,
                "duration": 0.1,
                "tempo": 120.0
            },
            {
                "start_time": 32.8954545,
                "end_time": 32.9977273,
                "pitch": 77,
                "velocity": 51,
                "duration": 0.1022727,
                "tempo": 120.0
            },
            {
                "start_time": 30.7886364,
                "end_time": 33.3977273,
                "pitch": 76,
                "velocity": 51,
                "duration": 2.6090909,
                "tempo": 120.0
            },
            {
                "start_time": 32.9977273,
                "end_time": 33.3977273,
                "pitch": 77,
                "velocity": 51,
                "duration": 0.4,
                "tempo": 120.0
            },
            {
                "start_time": 29.9840909,
                "end_time": 33.5977273,
                "pitch": 72,
                "velocity": 51,
                "duration": 3.6136364,
                "tempo": 120.0
            },
            {
                "start_time": 33.3977273,
                "end_time": 33.5977273,
                "pitch": 72,
                "velocity": 51,
                "duration": 0.2,
                "tempo": 120.0
            },
            {
                "start_time": 33.5977273,
                "end_time": 33.7977273,
                "pitch": 74,
                "velocity": 51,
                "duration": 0.2,
                "tempo": 120.0
            },
            {
                "start_time": 33.3977273,
                "end_time": 34.0022727,
                "pitch": 76,
                "velocity": 51,
                "duration": 0.6045455,
                "tempo": 120.0
            },
            {
                "start_time": 33.7977273,
                "end_time": 34.0022727,
                "pitch": 76,
                "velocity": 51,
                "duration": 0.2045455,
                "tempo": 120.0
            },
            {
                "start_time": 34.0045455,
                "end_time": 34.2090909,
                "pitch": 76,
                "velocity": 51,
                "duration": 0.2045455,
                "tempo": 120.0
            },
            {
                "start_time": 34.2090909,
                "end_time": 34.4045455,
                "pitch": 77,
                "velocity": 51,
                "duration": 0.1954545,
                "tempo": 120.0
            },
            {
                "start_time": 30.9886364,
                "end_time": 34.4068182,
                "pitch": 89,
                "velocity": 51,
                "duration": 3.4181818,
                "tempo": 120.0
            },
            {
                "start_time": 34.4068182,
                "end_time": 34.6022727,
                "pitch": 81,
                "velocity": 51,
                "duration": 0.1954545,
                "tempo": 120.0
            },
            {
                "start_time": 34.8068182,
                "end_time": 35.1909091,
                "pitch": 81,
                "velocity": 51,
                "duration": 0.3840909,
                "tempo": 120.0
            },
            {
                "start_time": 32.8954545,
                "end_time": 35.2090909,
                "pitch": 0,
                "velocity": 51,
                "duration": 2.3136364,
                "tempo": 120.0
            },
            {
                "start_time": 35.2090909,
                "end_time": 35.4045455,
                "pitch": 77,
                "velocity": 51,
                "duration": 0.1954545,
                "tempo": 120.0
            },
            {
                "start_time": 35.4045455,
                "end_time": 35.4068182,
                "pitch": 77,
                "velocity": 51,
                "duration": 0.0022727,
                "tempo": 120.0
            },
            {
                "start_time": 33.7977273,
                "end_time": 35.6113636,
                "pitch": 74,
                "velocity": 51,
                "duration": 1.8136364,
                "tempo": 120.0
            },
            {
                "start_time": 35.4068182,
                "end_time": 35.6113636,
                "pitch": 74,
                "velocity": 51,
                "duration": 0.2045455,
                "tempo": 120.0
            },
            {
                "start_time": 35.6113636,
                "end_time": 35.8159091,
                "pitch": 76,
                "velocity": 51,
                "duration": 0.2045455,
                "tempo": 120.0
            },
            {
                "start_time": 35.8159091,
                "end_time": 36.0136364,
                "pitch": 76,
                "velocity": 51,
                "duration": 0.1977273,
                "tempo": 120.0
            },
            {
                "start_time": 32.7954545,
                "end_time": 36.0136364,
                "pitch": 90,
                "velocity": 51,
                "duration": 3.2181818,
                "tempo": 120.0
            },
            {
                "start_time": 36.0136364,
                "end_time": 36.2090909,
                "pitch": 79,
                "velocity": 51,
                "duration": 0.1954545,
                "tempo": 120.0
            },
            {
                "start_time": 35.2090909,
                "end_time": 36.4090909,
                "pitch": 0,
                "velocity": 51,
                "duration": 1.2,
                "tempo": 120.0
            },
            {
                "start_time": 35.6113636,
                "end_time": 36.6090909,
                "pitch": 74,
                "velocity": 51,
                "duration": 0.9977273,
                "tempo": 120.0
            },
            {
                "start_time": 36.4090909,
                "end_time": 36.6090909,
                "pitch": 74,
                "velocity": 51,
                "duration": 0.2,
                "tempo": 120.0
            },
            {
                "start_time": 36.6090909,
                "end_time": 36.8159091,
                "pitch": 76,
                "velocity": 51,
                "duration": 0.2068182,
                "tempo": 120.0
            },
            {
                "start_time": 33.5977273,
                "end_time": 36.9181818,
                "pitch": 72,
                "velocity": 51,
                "duration": 3.3204545,
                "tempo": 120.0
            },
            {
                "start_time": 36.8159091,
                "end_time": 36.9181818,
                "pitch": 72,
                "velocity": 51,
                "duration": 0.1022727,
                "tempo": 120.0
            },
            {
                "start_time": 36.6090909,
                "end_time": 37.0204545,
                "pitch": 74,
                "velocity": 51,
                "duration": 0.4113636,
                "tempo": 120.0
            },
            {
                "start_time": 36.9181818,
                "end_time": 37.0204545,
                "pitch": 74,
                "velocity": 51,
                "duration": 0.1022727,
                "tempo": 120.0
            },
            {
                "start_time": 36.9181818,
                "end_time": 38.2227273,
                "pitch": 72,
                "velocity": 51,
                "duration": 1.3045455,
                "tempo": 120.0
            },
            {
                "start_time": 37.0204545,
                "end_time": 38.2227273,
                "pitch": 72,
                "velocity": 51,
                "duration": 1.2022727,
                "tempo": 120.0
            },
            {
                "start_time": 36.8159091,
                "end_time": 38.525,
                "pitch": 76,
                "velocity": 51,
                "duration": 1.7090909,
                "tempo": 120.0
            },
            {
                "start_time": 38.425,
                "end_time": 38.525,
                "pitch": 76,
                "velocity": 51,
                "duration": 0.1,
                "tempo": 120.0
            },
            {
                "start_time": 37.0204545,
                "end_time": 38.625,
                "pitch": 74,
                "velocity": 51,
                "duration": 1.6045455,
                "tempo": 120.0
            },
            {
                "start_time": 38.525,
                "end_time": 38.625,
                "pitch": 74,
                "velocity": 51,
                "duration": 0.1,
                "tempo": 120.0
            },
            {
                "start_time": 38.425,
                "end_time": 40.2272727,
                "pitch": 72,
                "velocity": 51,
                "duration": 1.8022727,
                "tempo": 120.0
            },
            {
                "start_time": 38.6272727,
                "end_time": 40.2272727,
                "pitch": 72,
                "velocity": 51,
                "duration": 1.6,
                "tempo": 120.0
            },
            {
                "start_time": 22.5454545,
                "end_time": 40.4340909,
                "pitch": 60,
                "velocity": 51,
                "duration": 17.8886364,
                "tempo": 120.0
            },
            {
                "start_time": 40.4340909,
                "end_time": 40.6386364,
                "pitch": 64,
                "velocity": 51,
                "duration": 0.2045455,
                "tempo": 120.0
            },
            {
                "start_time": 40.6386364,
                "end_time": 40.8363636,
                "pitch": 64,
                "velocity": 51,
                "duration": 0.1977273,
                "tempo": 120.0
            },
            {
                "start_time": 40.8363636,
                "end_time": 41.0318182,
                "pitch": 65,
                "velocity": 51,
                "duration": 0.1954545,
                "tempo": 120.0
            },
            {
                "start_time": 41.0318182,
                "end_time": 41.2318182,
                "pitch": 64,
                "velocity": 51,
                "duration": 0.2,
                "tempo": 120.0
            },
            {
                "start_time": 41.4318182,
                "end_time": 42.05,
                "pitch": 65,
                "velocity": 51,
                "duration": 0.6181818,
                "tempo": 120.0
            },
            {
                "start_time": 42.05,
                "end_time": 42.2545455,
                "pitch": 64,
                "velocity": 51,
                "duration": 0.2045455,
                "tempo": 120.0
            },
            {
                "start_time": 42.2545455,
                "end_time": 42.4522727,
                "pitch": 64,
                "velocity": 51,
                "duration": 0.1977273,
                "tempo": 120.0
            },
            {
                "start_time": 42.4522727,
                "end_time": 42.6477273,
                "pitch": 65,
                "velocity": 51,
                "duration": 0.1954545,
                "tempo": 120.0
            },
            {
                "start_time": 42.6477273,
                "end_time": 42.8477273,
                "pitch": 67,
                "velocity": 51,
                "duration": 0.2,
                "tempo": 120.0
            },
            {
                "start_time": 36.4090909,
                "end_time": 43.0477273,
                "pitch": 0,
                "velocity": 51,
                "duration": 6.6386364,
                "tempo": 120.0
            },
            {
                "start_time": 43.0477273,
                "end_time": 43.65,
                "pitch": 64,
                "velocity": 51,
                "duration": 0.6022727,
                "tempo": 120.0
            },
            {
                "start_time": 43.6522727,
                "end_time": 43.8522727,
                "pitch": 64,
                "velocity": 51,
                "duration": 0.2,
                "tempo": 120.0
            },
            {
                "start_time": 43.8522727,
                "end_time": 44.0522727,
                "pitch": 64,
                "velocity": 51,
                "duration": 0.2,
                "tempo": 120.0
            },
            {
                "start_time": 44.0522727,
                "end_time": 44.2522727,
                "pitch": 65,
                "velocity": 51,
                "duration": 0.2,
                "tempo": 120.0
            },
            {
                "start_time": 42.6477273,
                "end_time": 44.2522727,
                "pitch": 77,
                "velocity": 51,
                "duration": 1.6045455,
                "tempo": 120.0
            },
            {
                "start_time": 24.5522727,
                "end_time": 44.4545455,
                "pitch": 69,
                "velocity": 51,
                "duration": 19.9022727,
                "tempo": 120.0
            },
            {
                "start_time": 44.2522727,
                "end_time": 44.4545455,
                "pitch": 69,
                "velocity": 51,
                "duration": 0.2022727,
                "tempo": 120.0
            },
            {
                "start_time": 18.7204545,
                "end_time": 44.6545455,
                "pitch": 30,
                "velocity": 51,
                "duration": 25.9340909,
                "tempo": 120.0
            },
            {
                "start_time": 44.6545455,
                "end_time": 44.8545455,
                "pitch": 64,
                "velocity": 51,
                "duration": 0.2,
                "tempo": 120.0
            },
            {
                "start_time": 40.4340909,
                "end_time": 45.0545455,
                "pitch": 60,
                "velocity": 51,
                "duration": 4.6204545,
                "tempo": 120.0
            },
            {
                "start_time": 44.8545455,
                "end_time": 45.0545455,
                "pitch": 60,
                "velocity": 51,
                "duration": 0.2,
                "tempo": 120.0
            },
            {
                "start_time": 23.75,
                "end_time": 45.2545455,
                "pitch": 62,
                "velocity": 51,
                "duration": 21.5045455,
                "tempo": 120.0
            },
            {
                "start_time": 45.0545455,
                "end_time": 45.2545455,
                "pitch": 62,
                "velocity": 51,
                "duration": 0.2,
                "tempo": 120.0
            },
            {
                "start_time": 44.8545455,
                "end_time": 45.8590909,
                "pitch": 64,
                "velocity": 51,
                "duration": 1.0045455,
                "tempo": 120.0
            },
            {
                "start_time": 45.2545455,
                "end_time": 45.8590909,
                "pitch": 64,
                "velocity": 51,
                "duration": 0.6045455,
                "tempo": 120.0
            },
            {
                "start_time": 45.2545455,
                "end_time": 45.9568182,
                "pitch": 62,
                "velocity": 51,
                "duration": 0.7022727,
                "tempo": 120.0
            },
            {
                "start_time": 45.8590909,
                "end_time": 45.9568182,
                "pitch": 62,
                "velocity": 51,
                "duration": 0.0977273,
                "tempo": 120.0
            },
            {
                "start_time": 45.8590909,
                "end_time": 46.0568182,
                "pitch": 64,
                "velocity": 51,
                "duration": 0.1977273,
                "tempo": 120.0
            },
            {
                "start_time": 45.9568182,
                "end_time": 46.0568182,
                "pitch": 64,
                "velocity": 51,
                "duration": 0.1,
                "tempo": 120.0
            },
            {
                "start_time": 45.9568182,
                "end_time": 46.4590909,
                "pitch": 62,
                "velocity": 51,
                "duration": 0.5022727,
                "tempo": 120.0
            },
            {
                "start_time": 46.0590909,
                "end_time": 46.4590909,
                "pitch": 62,
                "velocity": 51,
                "duration": 0.4,
                "tempo": 120.0
            },
            {
                "start_time": 45.0545455,
                "end_time": 46.6590909,
                "pitch": 60,
                "velocity": 51,
                "duration": 1.6045455,
                "tempo": 120.0
            },
            {
                "start_time": 46.4590909,
                "end_time": 46.6590909,
                "pitch": 60,
                "velocity": 51,
                "duration": 0.2,
                "tempo": 120.0
            },
            {
                "start_time": 46.4590909,
                "end_time": 46.8636364,
                "pitch": 62,
                "velocity": 51,
                "duration": 0.4045455,
                "tempo": 120.0
            },
            {
                "start_time": 46.6590909,
                "end_time": 46.8636364,
                "pitch": 62,
                "velocity": 51,
                "duration": 0.2045455,
                "tempo": 120.0
            },
            {
                "start_time": 46.6590909,
                "end_time": 47.6636364,
                "pitch": 60,
                "velocity": 51,
                "duration": 1.0045455,
                "tempo": 120.0
            },
            {
                "start_time": 46.8636364,
                "end_time": 47.6636364,
                "pitch": 60,
                "velocity": 51,
                "duration": 0.8,
                "tempo": 120.0
            },
            {
                "start_time": 46.0590909,
                "end_time": 47.8659091,
                "pitch": 64,
                "velocity": 51,
                "duration": 1.8068182,
                "tempo": 120.0
            },
            {
                "start_time": 22.1431818,
                "end_time": 48.0727273,
                "pitch": 57,
                "velocity": 51,
                "duration": 25.9295455,
                "tempo": 120.0
            },
            {
                "start_time": 47.8659091,
                "end_time": 48.0727273,
                "pitch": 57,
                "velocity": 51,
                "duration": 0.2068182,
                "tempo": 120.0
            },
            {
                "start_time": 22.3454545,
                "end_time": 48.2772727,
                "pitch": 43,
                "velocity": 51,
                "duration": 25.9318182,
                "tempo": 120.0
            },
            {
                "start_time": 48.0727273,
                "end_time": 48.2772727,
                "pitch": 59,
                "velocity": 51,
                "duration": 0.2045455,
                "tempo": 120.0
            },
            {
                "start_time": 48.2772727,
                "end_time": 48.4727273,
                "pitch": 60,
                "velocity": 51,
                "duration": 0.1954545,
                "tempo": 120.0
            },
            {
                "start_time": 46.8636364,
                "end_time": 48.8704545,
                "pitch": 62,
                "velocity": 51,
                "duration": 2.0068182,
                "tempo": 120.0
            },
            {
                "start_time": 48.4727273,
                "end_time": 48.8704545,
                "pitch": 62,
                "velocity": 51,
                "duration": 0.3977273,
                "tempo": 120.0
            },
            {
                "start_time": 47.8659091,
                "end_time": 49.0704545,
                "pitch": 64,
                "velocity": 51,
                "duration": 1.2045455,
                "tempo": 120.0
            },
            {
                "start_time": 48.8704545,
                "end_time": 49.0704545,
                "pitch": 64,
                "velocity": 51,
                "duration": 0.2,
                "tempo": 120.0
            },
            {
                "start_time": 48.8704545,
                "end_time": 49.2704545,
                "pitch": 62,
                "velocity": 51,
                "duration": 0.4,
                "tempo": 120.0
            },
            {
                "start_time": 49.0704545,
                "end_time": 49.2704545,
                "pitch": 62,
                "velocity": 51,
                "duration": 0.2,
                "tempo": 120.0
            },
            {
                "start_time": 49.4727273,
                "end_time": 49.6772727,
                "pitch": 62,
                "velocity": 51,
                "duration": 0.2045455,
                "tempo": 120.0
            },
            {
                "start_time": 49.0704545,
                "end_time": 49.8818182,
                "pitch": 64,
                "velocity": 51,
                "duration": 0.8113636,
                "tempo": 120.0
            },
            {
                "start_time": 49.6772727,
                "end_time": 49.8818182,
                "pitch": 64,
                "velocity": 51,
                "duration": 0.2045455,
                "tempo": 120.0
            },
            {
                "start_time": 49.8818182,
                "end_time": 50.0818182,
                "pitch": 64,
                "velocity": 51,
                "duration": 0.2,
                "tempo": 120.0
            },
            {
                "start_time": 24.1522727,
                "end_time": 50.0840909,
                "pitch": 78,
                "velocity": 51,
                "duration": 25.9318182,
                "tempo": 120.0
            },
            {
                "start_time": 50.0818182,
                "end_time": 50.0840909,
                "pitch": 78,
                "velocity": 51,
                "duration": 0.0022727,
                "tempo": 120.0
            },
            {
                "start_time": 50.0840909,
                "end_time": 50.4840909,
                "pitch": 69,
                "velocity": 51,
                "duration": 0.4,
                "tempo": 120.0
            },
            {
                "start_time": 27.7772727,
                "end_time": 50.8840909,
                "pitch": 55,
                "velocity": 51,
                "duration": 23.1068182,
                "tempo": 120.0
            },
            {
                "start_time": 28.7795455,
                "end_time": 50.8840909,
                "pitch": 71,
                "velocity": 51,
                "duration": 22.1045455,
                "tempo": 120.0
            },
            {
                "start_time": 50.4840909,
                "end_time": 50.8840909,
                "pitch": 71,
                "velocity": 51,
                "duration": 0.4,
                "tempo": 120.0
            },
            {
                "start_time": 50.8840909,
                "end_time": 51.0840909,
                "pitch": 72,
                "velocity": 51,
                "duration": 0.2,
                "tempo": 120.0
            },
            {
                "start_time": 38.6272727,
                "end_time": 51.2863636,
                "pitch": 74,
                "velocity": 51,
                "duration": 12.6590909,
                "tempo": 120.0
            },
            {
                "start_time": 51.0840909,
                "end_time": 51.2863636,
                "pitch": 74,
                "velocity": 51,
                "duration": 0.2022727,
                "tempo": 120.0
            },
            {
                "start_time": 44.2522727,
                "end_time": 51.4863636,
                "pitch": 77,
                "velocity": 51,
                "duration": 7.2340909,
                "tempo": 120.0
            },
            {
                "start_time": 51.4863636,
                "end_time": 51.8886364,
                "pitch": 71,
                "velocity": 51,
                "duration": 0.4022727,
                "tempo": 120.0
            },
            {
                "start_time": 50.8840909,
                "end_time": 52.0886364,
                "pitch": 55,
                "velocity": 51,
                "duration": 1.2045455,
                "tempo": 120.0
            },
            {
                "start_time": 51.8886364,
                "end_time": 52.0886364,
                "pitch": 71,
                "velocity": 51,
                "duration": 0.2,
                "tempo": 120.0
            },
            {
                "start_time": 51.0840909,
                "end_time": 52.2886364,
                "pitch": 72,
                "velocity": 51,
                "duration": 1.2045455,
                "tempo": 120.0
            },
            {
                "start_time": 52.0886364,
                "end_time": 52.2886364,
                "pitch": 72,
                "velocity": 51,
                "duration": 0.2,
                "tempo": 120.0
            },
            {
                "start_time": 52.2886364,
                "end_time": 52.4886364,
                "pitch": 74,
                "velocity": 51,
                "duration": 0.2,
                "tempo": 120.0
            },
            {
                "start_time": 52.6886364,
                "end_time": 52.8886364,
                "pitch": 74,
                "velocity": 51,
                "duration": 0.2,
                "tempo": 120.0
            },
            {
                "start_time": 38.525,
                "end_time": 53.0909091,
                "pitch": 76,
                "velocity": 51,
                "duration": 14.5659091,
                "tempo": 120.0
            },
            {
                "start_time": 52.8909091,
                "end_time": 53.0909091,
                "pitch": 76,
                "velocity": 51,
                "duration": 0.2,
                "tempo": 120.0
            },
            {
                "start_time": 52.8909091,
                "end_time": 53.2909091,
                "pitch": 74,
                "velocity": 51,
                "duration": 0.4,
                "tempo": 120.0
            },
            {
                "start_time": 53.0909091,
                "end_time": 53.2909091,
                "pitch": 74,
                "velocity": 51,
                "duration": 0.2,
                "tempo": 120.0
            },
            {
                "start_time": 52.2886364,
                "end_time": 53.4931818,
                "pitch": 72,
                "velocity": 51,
                "duration": 1.2045455,
                "tempo": 120.0
            },
            {
                "start_time": 53.2909091,
                "end_time": 53.4931818,
                "pitch": 72,
                "velocity": 51,
                "duration": 0.2022727,
                "tempo": 120.0
            },
            {
                "start_time": 53.0909091,
                "end_time": 53.4931818,
                "pitch": 76,
                "velocity": 51,
                "duration": 0.4022727,
                "tempo": 120.0
            },
            {
                "start_time": 52.0886364,
                "end_time": 53.6931818,
                "pitch": 55,
                "velocity": 51,
                "duration": 1.6045455,
                "tempo": 120.0
            },
            {
                "start_time": 53.4931818,
                "end_time": 53.6931818,
                "pitch": 71,
                "velocity": 51,
                "duration": 0.2,
                "tempo": 120.0
            },
            {
                "start_time": 53.2909091,
                "end_time": 53.8931818,
                "pitch": 74,
                "velocity": 51,
                "duration": 0.6022727,
                "tempo": 120.0
            },
            {
                "start_time": 53.6931818,
                "end_time": 53.8931818,
                "pitch": 74,
                "velocity": 51,
                "duration": 0.2,
                "tempo": 120.0
            },
            {
                "start_time": 53.8931818,
                "end_time": 54.0931818,
                "pitch": 72,
                "velocity": 51,
                "duration": 0.2,
                "tempo": 120.0
            },
            {
                "start_time": 53.4931818,
                "end_time": 54.2931818,
                "pitch": 76,
                "velocity": 51,
                "duration": 0.8,
                "tempo": 120.0
            },
            {
                "start_time": 54.2931818,
                "end_time": 54.6954545,
                "pitch": 71,
                "velocity": 51,
                "duration": 0.4022727,
                "tempo": 120.0
            },
            {
                "start_time": 43.0477273,
                "end_time": 54.9,
                "pitch": 0,
                "velocity": 51,
                "duration": 11.8522727,
                "tempo": 120.0
            },
            {
                "start_time": 54.6954545,
                "end_time": 54.9,
                "pitch": 67,
                "velocity": 51,
                "duration": 0.2045455,
                "tempo": 120.0
            },
            {
                "start_time": 54.9,
                "end_time": 55.1068182,
                "pitch": 72,
                "velocity": 51,
                "duration": 0.2068182,
                "tempo": 120.0
            },
            {
                "start_time": 54.2931818,
                "end_time": 55.1068182,
                "pitch": 76,
                "velocity": 51,
                "duration": 0.8136364,
                "tempo": 120.0
            },
            {
                "start_time": 29.3840909,
                "end_time": 55.3022727,
                "pitch": 50,
                "velocity": 51,
                "duration": 25.9181818,
                "tempo": 120.0
            },
            {
                "start_time": 55.1068182,
                "end_time": 55.3022727,
                "pitch": 70,
                "velocity": 51,
                "duration": 0.1954545,
                "tempo": 120.0
            },
            {
                "start_time": 53.8931818,
                "end_time": 55.4977273,
                "pitch": 74,
                "velocity": 51,
                "duration": 1.6045455,
                "tempo": 120.0
            },
            {
                "start_time": 55.3022727,
                "end_time": 55.4977273,
                "pitch": 74,
                "velocity": 51,
                "duration": 0.1954545,
                "tempo": 120.0
            },
            {
                "start_time": 55.4977273,
                "end_time": 55.7,
                "pitch": 72,
                "velocity": 51,
                "duration": 0.2022727,
                "tempo": 120.0
            },
            {
                "start_time": 55.4977273,
                "end_time": 56.5113636,
                "pitch": 74,
                "velocity": 51,
                "duration": 1.0136364,
                "tempo": 120.0
            },
            {
                "start_time": 55.9,
                "end_time": 56.5113636,
                "pitch": 74,
                "velocity": 51,
                "duration": 0.6113636,
                "tempo": 120.0
            },
            {
                "start_time": 55.1068182,
                "end_time": 56.7136364,
                "pitch": 76,
                "velocity": 51,
                "duration": 1.6068182,
                "tempo": 120.0
            },
            {
                "start_time": 56.5136364,
                "end_time": 56.7136364,
                "pitch": 76,
                "velocity": 51,
                "duration": 0.2,
                "tempo": 120.0
            },
            {
                "start_time": 56.5136364,
                "end_time": 56.9113636,
                "pitch": 74,
                "velocity": 51,
                "duration": 0.3977273,
                "tempo": 120.0
            },
            {
                "start_time": 56.7136364,
                "end_time": 56.9113636,
                "pitch": 74,
                "velocity": 51,
                "duration": 0.1977273,
                "tempo": 120.0
            },
            {
                "start_time": 34.4068182,
                "end_time": 56.9113636,
                "pitch": 89,
                "velocity": 51,
                "duration": 22.5045455,
                "tempo": 120.0
            },
            {
                "start_time": 56.9113636,
                "end_time": 57.1068182,
                "pitch": 81,
                "velocity": 51,
                "duration": 0.1954545,
                "tempo": 120.0
            },
            {
                "start_time": 57.1068182,
                "end_time": 57.3113636,
                "pitch": 81,
                "velocity": 51,
                "duration": 0.2045455,
                "tempo": 120.0
            },
            {
                "start_time": 54.9,
                "end_time": 57.5181818,
                "pitch": 0,
                "velocity": 51,
                "duration": 2.6181818,
                "tempo": 120.0
            },
            {
                "start_time": 51.4863636,
                "end_time": 57.9113636,
                "pitch": 77,
                "velocity": 51,
                "duration": 6.425,
                "tempo": 120.0
            },
            {
                "start_time": 57.5181818,
                "end_time": 57.9113636,
                "pitch": 77,
                "velocity": 51,
                "duration": 0.3931818,
                "tempo": 120.0
            },
            {
                "start_time": 36.0136364,
                "end_time": 57.9113636,
                "pitch": 90,
                "velocity": 51,
                "duration": 21.8977273,
                "tempo": 120.0
            },
            {
                "start_time": 57.5181818,
                "end_time": 58.1159091,
                "pitch": 0,
                "velocity": 51,
                "duration": 0.5977273,
                "tempo": 120.0
            },
            {
                "start_time": 57.9113636,
                "end_time": 58.1159091,
                "pitch": 79,
                "velocity": 51,
                "duration": 0.2045455,
                "tempo": 120.0
            },
            {
                "start_time": 58.1159091,
                "end_time": 58.7136364,
                "pitch": 77,
                "velocity": 51,
                "duration": 0.5977273,
                "tempo": 120.0
            },
            {
                "start_time": 57.9113636,
                "end_time": 58.7136364,
                "pitch": 90,
                "velocity": 51,
                "duration": 0.8022727,
                "tempo": 120.0
            },
            {
                "start_time": 58.1159091,
                "end_time": 58.8159091,
                "pitch": 0,
                "velocity": 51,
                "duration": 0.7,
                "tempo": 120.0
            },
            {
                "start_time": 58.7136364,
                "end_time": 58.8159091,
                "pitch": 79,
                "velocity": 51,
                "duration": 0.1022727,
                "tempo": 120.0
            },
            {
                "start_time": 58.8159091,
                "end_time": 58.9181818,
                "pitch": 77,
                "velocity": 51,
                "duration": 0.1022727,
                "tempo": 120.0
            },
            {
                "start_time": 56.7136364,
                "end_time": 59.325,
                "pitch": 76,
                "velocity": 51,
                "duration": 2.6113636,
                "tempo": 120.0
            },
            {
                "start_time": 58.9181818,
                "end_time": 59.325,
                "pitch": 77,
                "velocity": 51,
                "duration": 0.4068182,
                "tempo": 120.0
            },
            {
                "start_time": 55.9,
                "end_time": 59.525,
                "pitch": 72,
                "velocity": 51,
                "duration": 3.625,
                "tempo": 120.0
            },
            {
                "start_time": 59.325,
                "end_time": 59.525,
                "pitch": 72,
                "velocity": 51,
                "duration": 0.2,
                "tempo": 120.0
            },
            {
                "start_time": 59.525,
                "end_time": 59.5272727,
                "pitch": 72,
                "velocity": 51,
                "duration": 0.0022727,
                "tempo": 120.0
            },
            {
                "start_time": 59.5272727,
                "end_time": 59.7272727,
                "pitch": 74,
                "velocity": 51,
                "duration": 0.2,
                "tempo": 120.0
            },
            {
                "start_time": 59.325,
                "end_time": 59.9272727,
                "pitch": 76,
                "velocity": 51,
                "duration": 0.6022727,
                "tempo": 120.0
            },
            {
                "start_time": 59.7272727,
                "end_time": 59.9272727,
                "pitch": 76,
                "velocity": 51,
                "duration": 0.2,
                "tempo": 120.0
            },
            {
                "start_time": 59.9272727,
                "end_time": 60.1272727,
                "pitch": 76,
                "velocity": 51,
                "duration": 0.2,
                "tempo": 120.0
            },
            {
                "start_time": 60.1272727,
                "end_time": 60.3272727,
                "pitch": 77,
                "velocity": 51,
                "duration": 0.2,
                "tempo": 120.0
            },
            {
                "start_time": 56.9113636,
                "end_time": 60.3272727,
                "pitch": 89,
                "velocity": 51,
                "duration": 3.4159091,
                "tempo": 120.0
            },
            {
                "start_time": 60.3272727,
                "end_time": 60.5295455,
                "pitch": 81,
                "velocity": 51,
                "duration": 0.2022727,
                "tempo": 120.0
            },
            {
                "start_time": 60.7295455,
                "end_time": 61.1136364,
                "pitch": 81,
                "velocity": 51,
                "duration": 0.3840909,
                "tempo": 120.0
            },
            {
                "start_time": 58.8159091,
                "end_time": 61.1318182,
                "pitch": 0,
                "velocity": 51,
                "duration": 2.3159091,
                "tempo": 120.0
            },
            {
                "start_time": 61.1318182,
                "end_time": 61.3363636,
                "pitch": 77,
                "velocity": 51,
                "duration": 0.2045455,
                "tempo": 120.0
            },
            {
                "start_time": 59.7272727,
                "end_time": 61.5409091,
                "pitch": 74,
                "velocity": 51,
                "duration": 1.8136364,
                "tempo": 120.0
            },
            {
                "start_time": 61.3363636,
                "end_time": 61.5409091,
                "pitch": 74,
                "velocity": 51,
                "duration": 0.2045455,
                "tempo": 120.0
            },
            {
                "start_time": 61.5431818,
                "end_time": 61.7386364,
                "pitch": 76,
                "velocity": 51,
                "duration": 0.1954545,
                "tempo": 120.0
            },
            {
                "start_time": 61.7386364,
                "end_time": 61.9340909,
                "pitch": 76,
                "velocity": 51,
                "duration": 0.1954545,
                "tempo": 120.0
            },
            {
                "start_time": 58.7136364,
                "end_time": 61.9340909,
                "pitch": 90,
                "velocity": 51,
                "duration": 3.2204545,
                "tempo": 120.0
            },
            {
                "start_time": 61.9340909,
                "end_time": 62.1340909,
                "pitch": 79,
                "velocity": 51,
                "duration": 0.2,
                "tempo": 120.0
            },
            {
                "start_time": 61.1318182,
                "end_time": 62.3363636,
                "pitch": 0,
                "velocity": 51,
                "duration": 1.2045455,
                "tempo": 120.0
            },
            {
                "start_time": 61.5431818,
                "end_time": 62.5409091,
                "pitch": 74,
                "velocity": 51,
                "duration": 0.9977273,
                "tempo": 120.0
            },
            {
                "start_time": 62.3363636,
                "end_time": 62.5409091,
                "pitch": 74,
                "velocity": 51,
                "duration": 0.2045455,
                "tempo": 120.0
            },
            {
                "start_time": 62.5409091,
                "end_time": 62.7454545,
                "pitch": 76,
                "velocity": 51,
                "duration": 0.2045455,
                "tempo": 120.0
            },
            {
                "start_time": 62.7477273,
                "end_time": 62.8431818,
                "pitch": 72,
                "velocity": 51,
                "duration": 0.0954545,
                "tempo": 120.0
            },
            {
                "start_time": 62.5409091,
                "end_time": 62.9431818,
                "pitch": 74,
                "velocity": 51,
                "duration": 0.4022727,
                "tempo": 120.0
            },
            {
                "start_time": 62.8431818,
                "end_time": 62.9431818,
                "pitch": 74,
                "velocity": 51,
                "duration": 0.1,
                "tempo": 120.0
            },
            {
                "start_time": 62.8431818,
                "end_time": 64.1409091,
                "pitch": 72,
                "velocity": 51,
                "duration": 1.2977273,
                "tempo": 120.0
            },
            {
                "start_time": 62.9431818,
                "end_time": 64.1409091,
                "pitch": 72,
                "velocity": 51,
                "duration": 1.1977273,
                "tempo": 120.0
            },
            {
                "start_time": 62.7477273,
                "end_time": 64.4409091,
                "pitch": 76,
                "velocity": 51,
                "duration": 1.6931818,
                "tempo": 120.0
            },
            {
                "start_time": 64.3409091,
                "end_time": 64.4409091,
                "pitch": 76,
                "velocity": 51,
                "duration": 0.1,
                "tempo": 120.0
            },
            {
                "start_time": 62.9431818,
                "end_time": 64.5409091,
                "pitch": 74,
                "velocity": 51,
                "duration": 1.5977273,
                "tempo": 120.0
            },
            {
                "start_time": 64.4409091,
                "end_time": 64.5409091,
                "pitch": 74,
                "velocity": 51,
                "duration": 0.1,
                "tempo": 120.0
            },
            {
                "start_time": 64.3409091,
                "end_time": 65.9590909,
                "pitch": 72,
                "velocity": 51,
                "duration": 1.6181818,
                "tempo": 120.0
            },
            {
                "start_time": 64.5431818,
                "end_time": 65.9590909,
                "pitch": 72,
                "velocity": 51,
                "duration": 1.4159091,
                "tempo": 120.0
            },
            {
                "start_time": 62.3363636,
                "end_time": 107.8295455,
                "pitch": 0,
                "velocity": 51,
                "duration": 45.4931818,
                "tempo": 120.0
            },
            {
                "start_time": 107.8295455,
                "end_time": 107.9272727,
                "pitch": 72,
                "velocity": 80,
                "duration": 0.0977273,
                "tempo": 120.0
            },
            {
                "start_time": 108.0295455,
                "end_time": 108.1295455,
                "pitch": 72,
                "velocity": 80,
                "duration": 0.1,
                "tempo": 120.0
            },
            {
                "start_time": 64.5431818,
                "end_time": 108.2295455,
                "pitch": 74,
                "velocity": 51,
                "duration": 43.6863636,
                "tempo": 120.0
            },
            {
                "start_time": 108.1295455,
                "end_time": 108.2295455,
                "pitch": 74,
                "velocity": 80,
                "duration": 0.1,
                "tempo": 120.0
            },
            {
                "start_time": 64.4409091,
                "end_time": 108.8386364,
                "pitch": 76,
                "velocity": 51,
                "duration": 44.3977273,
                "tempo": 120.0
            },
            {
                "start_time": 108.2295455,
                "end_time": 108.8386364,
                "pitch": 76,
                "velocity": 80,
                "duration": 0.6090909,
                "tempo": 120.0
            },
            {
                "start_time": 108.8386364,
                "end_time": 109.0431818,
                "pitch": 76,
                "velocity": 80,
                "duration": 0.2045455,
                "tempo": 120.0
            },
            {
                "start_time": 108.2295455,
                "end_time": 109.2454545,
                "pitch": 74,
                "velocity": 80,
                "duration": 1.0159091,
                "tempo": 120.0
            },
            {
                "start_time": 109.0431818,
                "end_time": 109.2454545,
                "pitch": 74,
                "velocity": 80,
                "duration": 0.2022727,
                "tempo": 120.0
            },
            {
                "start_time": 109.0431818,
                "end_time": 109.3454545,
                "pitch": 76,
                "velocity": 80,
                "duration": 0.3022727,
                "tempo": 120.0
            },
            {
                "start_time": 109.2454545,
                "end_time": 109.3454545,
                "pitch": 76,
                "velocity": 80,
                "duration": 0.1,
                "tempo": 120.0
            },
            {
                "start_time": 109.4477273,
                "end_time": 109.5477273,
                "pitch": 76,
                "velocity": 80,
                "duration": 0.1,
                "tempo": 120.0
            },
            {
                "start_time": 61.3363636,
                "end_time": 109.8477273,
                "pitch": 77,
                "velocity": 51,
                "duration": 48.5113636,
                "tempo": 120.0
            },
            {
                "start_time": 109.6477273,
                "end_time": 109.8477273,
                "pitch": 77,
                "velocity": 80,
                "duration": 0.2,
                "tempo": 120.0
            },
            {
                "start_time": 109.8477273,
                "end_time": 109.95,
                "pitch": 77,
                "velocity": 80,
                "duration": 0.1022727,
                "tempo": 120.0
            },
            {
                "start_time": 110.0522727,
                "end_time": 110.1545455,
                "pitch": 76,
                "velocity": 80,
                "duration": 0.1022727,
                "tempo": 120.0
            },
            {
                "start_time": 109.2454545,
                "end_time": 110.5522727,
                "pitch": 74,
                "velocity": 80,
                "duration": 1.3068182,
                "tempo": 120.0
            },
            {
                "start_time": 110.4568182,
                "end_time": 110.5522727,
                "pitch": 74,
                "velocity": 80,
                "duration": 0.0954545,
                "tempo": 120.0
            },
            {
                "start_time": 110.5545455,
                "end_time": 110.6522727,
                "pitch": 74,
                "velocity": 80,
                "duration": 0.0977273,
                "tempo": 120.0
            },
            {
                "start_time": 110.6522727,
                "end_time": 110.8568182,
                "pitch": 76,
                "velocity": 80,
                "duration": 0.2045455,
                "tempo": 120.0
            },
            {
                "start_time": 110.6522727,
                "end_time": 110.9590909,
                "pitch": 74,
                "velocity": 80,
                "duration": 0.3068182,
                "tempo": 120.0
            },
            {
                "start_time": 110.8568182,
                "end_time": 110.9590909,
                "pitch": 74,
                "velocity": 80,
                "duration": 0.1022727,
                "tempo": 120.0
            },
            {
                "start_time": 110.8568182,
                "end_time": 111.0636364,
                "pitch": 76,
                "velocity": 80,
                "duration": 0.2068182,
                "tempo": 120.0
            },
            {
                "start_time": 110.9590909,
                "end_time": 111.0636364,
                "pitch": 76,
                "velocity": 80,
                "duration": 0.1045455,
                "tempo": 120.0
            },
            {
                "start_time": 108.1295455,
                "end_time": 111.1613636,
                "pitch": 72,
                "velocity": 80,
                "duration": 3.0318182,
                "tempo": 120.0
            },
            {
                "start_time": 111.0636364,
                "end_time": 111.1613636,
                "pitch": 72,
                "velocity": 80,
                "duration": 0.0977273,
                "tempo": 120.0
            },
            {
                "start_time": 111.2590909,
                "end_time": 111.3568182,
                "pitch": 72,
                "velocity": 80,
                "duration": 0.0977273,
                "tempo": 120.0
            },
            {
                "start_time": 110.9590909,
                "end_time": 111.4545455,
                "pitch": 74,
                "velocity": 80,
                "duration": 0.4954545,
                "tempo": 120.0
            },
            {
                "start_time": 111.3568182,
                "end_time": 111.4545455,
                "pitch": 74,
                "velocity": 80,
                "duration": 0.0977273,
                "tempo": 120.0
            },
            {
                "start_time": 111.0636364,
                "end_time": 112.0613636,
                "pitch": 76,
                "velocity": 80,
                "duration": 0.9977273,
                "tempo": 120.0
            },
            {
                "start_time": 111.4568182,
                "end_time": 112.0613636,
                "pitch": 76,
                "velocity": 80,
                "duration": 0.6045455,
                "tempo": 120.0
            },
            {
                "start_time": 112.0613636,
                "end_time": 112.2659091,
                "pitch": 76,
                "velocity": 80,
                "duration": 0.2045455,
                "tempo": 120.0
            },
            {
                "start_time": 111.4568182,
                "end_time": 112.4681818,
                "pitch": 74,
                "velocity": 80,
                "duration": 1.0113636,
                "tempo": 120.0
            },
            {
                "start_time": 112.2659091,
                "end_time": 112.4681818,
                "pitch": 74,
                "velocity": 80,
                "duration": 0.2022727,
                "tempo": 120.0
            },
            {
                "start_time": 112.2659091,
                "end_time": 112.5681818,
                "pitch": 76,
                "velocity": 80,
                "duration": 0.3022727,
                "tempo": 120.0
            },
            {
                "start_time": 112.4681818,
                "end_time": 112.5681818,
                "pitch": 76,
                "velocity": 80,
                "duration": 0.1,
                "tempo": 120.0
            },
            {
                "start_time": 112.6681818,
                "end_time": 112.7659091,
                "pitch": 76,
                "velocity": 80,
                "duration": 0.0977273,
                "tempo": 120.0
            },
            {
                "start_time": 110.4568182,
                "end_time": 113.0613636,
                "pitch": 77,
                "velocity": 80,
                "duration": 2.6045455,
                "tempo": 120.0
            },
            {
                "start_time": 112.8659091,
                "end_time": 113.0613636,
                "pitch": 77,
                "velocity": 80,
                "duration": 0.1954545,
                "tempo": 120.0
            },
            {
                "start_time": 113.0613636,
                "end_time": 113.1613636,
                "pitch": 77,
                "velocity": 80,
                "duration": 0.1,
                "tempo": 120.0
            },
            {
                "start_time": 113.2613636,
                "end_time": 113.3613636,
                "pitch": 76,
                "velocity": 80,
                "duration": 0.1,
                "tempo": 120.0
            },
            {
                "start_time": 112.4681818,
                "end_time": 113.7636364,
                "pitch": 74,
                "velocity": 80,
                "duration": 1.2954545,
                "tempo": 120.0
            },
            {
                "start_time": 113.6636364,
                "end_time": 113.7636364,
                "pitch": 74,
                "velocity": 80,
                "duration": 0.1,
                "tempo": 120.0
            },
            {
                "start_time": 113.7636364,
                "end_time": 113.8636364,
                "pitch": 74,
                "velocity": 80,
                "duration": 0.1,
                "tempo": 120.0
            },
            {
                "start_time": 113.8636364,
                "end_time": 114.0659091,
                "pitch": 76,
                "velocity": 80,
                "duration": 0.2022727,
                "tempo": 120.0
            },
            {
                "start_time": 113.8636364,
                "end_time": 114.1659091,
                "pitch": 74,
                "velocity": 80,
                "duration": 0.3022727,
                "tempo": 120.0
            },
            {
                "start_time": 114.0659091,
                "end_time": 114.1659091,
                "pitch": 74,
                "velocity": 80,
                "duration": 0.1,
                "tempo": 120.0
            },
            {
                "start_time": 114.0659091,
                "end_time": 114.2681818,
                "pitch": 76,
                "velocity": 80,
                "duration": 0.2022727,
                "tempo": 120.0
            },
            {
                "start_time": 114.1659091,
                "end_time": 114.2681818,
                "pitch": 76,
                "velocity": 80,
                "duration": 0.1022727,
                "tempo": 120.0
            },
            {
                "start_time": 111.3568182,
                "end_time": 114.3681818,
                "pitch": 72,
                "velocity": 80,
                "duration": 3.0113636,
                "tempo": 120.0
            },
            {
                "start_time": 114.2681818,
                "end_time": 114.3681818,
                "pitch": 72,
                "velocity": 80,
                "duration": 0.1,
                "tempo": 120.0
            },
            {
                "start_time": 114.4681818,
                "end_time": 114.5704545,
                "pitch": 72,
                "velocity": 80,
                "duration": 0.1022727,
                "tempo": 120.0
            },
            {
                "start_time": 114.1659091,
                "end_time": 114.6704545,
                "pitch": 74,
                "velocity": 80,
                "duration": 0.5045455,
                "tempo": 120.0
            },
            {
                "start_time": 114.5704545,
                "end_time": 114.6704545,
                "pitch": 74,
                "velocity": 80,
                "duration": 0.1,
                "tempo": 120.0
            },
            {
                "start_time": 114.2681818,
                "end_time": 115.2772727,
                "pitch": 76,
                "velocity": 80,
                "duration": 1.0090909,
                "tempo": 120.0
            },
            {
                "start_time": 114.6704545,
                "end_time": 115.2772727,
                "pitch": 76,
                "velocity": 80,
                "duration": 0.6068182,
                "tempo": 120.0
            },
            {
                "start_time": 115.2772727,
                "end_time": 115.4818182,
                "pitch": 76,
                "velocity": 80,
                "duration": 0.2045455,
                "tempo": 120.0
            },
            {
                "start_time": 114.6704545,
                "end_time": 115.6795455,
                "pitch": 74,
                "velocity": 80,
                "duration": 1.0090909,
                "tempo": 120.0
            },
            {
                "start_time": 115.4818182,
                "end_time": 115.6795455,
                "pitch": 74,
                "velocity": 80,
                "duration": 0.1977273,
                "tempo": 120.0
            },
            {
                "start_time": 115.4818182,
                "end_time": 115.7772727,
                "pitch": 76,
                "velocity": 80,
                "duration": 0.2954545,
                "tempo": 120.0
            },
            {
                "start_time": 115.6795455,
                "end_time": 115.7772727,
                "pitch": 76,
                "velocity": 80,
                "duration": 0.0977273,
                "tempo": 120.0
            },
            {
                "start_time": 115.875,
                "end_time": 115.9772727,
                "pitch": 76,
                "velocity": 80,
                "duration": 0.1022727,
                "tempo": 120.0
            },
            {
                "start_time": 113.6636364,
                "end_time": 116.2863636,
                "pitch": 77,
                "velocity": 80,
                "duration": 2.6227273,
                "tempo": 120.0
            },
            {
                "start_time": 116.0818182,
                "end_time": 116.2863636,
                "pitch": 77,
                "velocity": 80,
                "duration": 0.2045455,
                "tempo": 120.0
            },
            {
                "start_time": 116.2863636,
                "end_time": 116.3863636,
                "pitch": 77,
                "velocity": 80,
                "duration": 0.1,
                "tempo": 120.0
            },
            {
                "start_time": 116.4863636,
                "end_time": 116.5863636,
                "pitch": 76,
                "velocity": 80,
                "duration": 0.1,
                "tempo": 120.0
            },
            {
                "start_time": 115.6795455,
                "end_time": 116.9886364,
                "pitch": 74,
                "velocity": 80,
                "duration": 1.3090909,
                "tempo": 120.0
            },
            {
                "start_time": 116.8886364,
                "end_time": 116.9886364,
                "pitch": 74,
                "velocity": 80,
                "duration": 0.1,
                "tempo": 120.0
            },
            {
                "start_time": 116.9886364,
                "end_time": 117.0909091,
                "pitch": 74,
                "velocity": 80,
                "duration": 0.1022727,
                "tempo": 120.0
            },
            {
                "start_time": 117.0909091,
                "end_time": 117.2954545,
                "pitch": 76,
                "velocity": 80,
                "duration": 0.2045455,
                "tempo": 120.0
            },
            {
                "start_time": 117.0909091,
                "end_time": 117.3977273,
                "pitch": 74,
                "velocity": 80,
                "duration": 0.3068182,
                "tempo": 120.0
            },
            {
                "start_time": 117.2954545,
                "end_time": 117.3977273,
                "pitch": 74,
                "velocity": 80,
                "duration": 0.1022727,
                "tempo": 120.0
            },
            {
                "start_time": 117.2954545,
                "end_time": 117.5022727,
                "pitch": 76,
                "velocity": 80,
                "duration": 0.2068182,
                "tempo": 120.0
            },
            {
                "start_time": 117.3977273,
                "end_time": 117.5022727,
                "pitch": 76,
                "velocity": 80,
                "duration": 0.1045455,
                "tempo": 120.0
            },
            {
                "start_time": 114.5704545,
                "end_time": 117.6,
                "pitch": 72,
                "velocity": 80,
                "duration": 3.0295455,
                "tempo": 120.0
            },
            {
                "start_time": 117.5022727,
                "end_time": 117.6,
                "pitch": 72,
                "velocity": 80,
                "duration": 0.0977273,
                "tempo": 120.0
            },
            {
                "start_time": 117.6977273,
                "end_time": 117.7954545,
                "pitch": 72,
                "velocity": 80,
                "duration": 0.0977273,
                "tempo": 120.0
            },
            {
                "start_time": 117.3977273,
                "end_time": 117.8954545,
                "pitch": 74,
                "velocity": 80,
                "duration": 0.4977273,
                "tempo": 120.0
            },
            {
                "start_time": 117.7954545,
                "end_time": 117.8954545,
                "pitch": 74,
                "velocity": 80,
                "duration": 0.1,
                "tempo": 120.0
            },
            {
                "start_time": 117.5022727,
                "end_time": 118.4977273,
                "pitch": 76,
                "velocity": 80,
                "duration": 0.9954545,
                "tempo": 120.0
            },
            {
                "start_time": 117.8954545,
                "end_time": 118.4977273,
                "pitch": 76,
                "velocity": 80,
                "duration": 0.6022727,
                "tempo": 120.0
            },
            {
                "start_time": 118.4977273,
                "end_time": 118.6977273,
                "pitch": 76,
                "velocity": 80,
                "duration": 0.2,
                "tempo": 120.0
            },
            {
                "start_time": 117.8954545,
                "end_time": 118.9045455,
                "pitch": 74,
                "velocity": 80,
                "duration": 1.0090909,
                "tempo": 120.0
            },
            {
                "start_time": 118.6977273,
                "end_time": 118.9045455,
                "pitch": 74,
                "velocity": 80,
                "duration": 0.2068182,
                "tempo": 120.0
            },
            {
                "start_time": 118.6977273,
                "end_time": 119.0068182,
                "pitch": 76,
                "velocity": 80,
                "duration": 0.3090909,
                "tempo": 120.0
            },
            {
                "start_time": 118.9045455,
                "end_time": 119.0068182,
                "pitch": 76,
                "velocity": 80,
                "duration": 0.1022727,
                "tempo": 120.0
            },
            {
                "start_time": 119.1090909,
                "end_time": 119.2068182,
                "pitch": 76,
                "velocity": 80,
                "duration": 0.0977273,
                "tempo": 120.0
            },
            {
                "start_time": 116.8886364,
                "end_time": 119.5022727,
                "pitch": 77,
                "velocity": 80,
                "duration": 2.6136364,
                "tempo": 120.0
            },
            {
                "start_time": 119.3068182,
                "end_time": 119.5022727,
                "pitch": 77,
                "velocity": 80,
                "duration": 0.1954545,
                "tempo": 120.0
            },
            {
                "start_time": 119.5022727,
                "end_time": 119.6022727,
                "pitch": 77,
                "velocity": 80,
                "duration": 0.1,
                "tempo": 120.0
            },
            {
                "start_time": 119.7045455,
                "end_time": 119.8045455,
                "pitch": 76,
                "velocity": 80,
                "duration": 0.1,
                "tempo": 120.0
            },
            {
                "start_time": 118.9045455,
                "end_time": 120.2068182,
                "pitch": 74,
                "velocity": 80,
                "duration": 1.3022727,
                "tempo": 120.0
            },
            {
                "start_time": 120.1068182,
                "end_time": 120.2068182,
                "pitch": 74,
                "velocity": 80,
                "duration": 0.1,
                "tempo": 120.0
            },
            {
                "start_time": 120.2068182,
                "end_time": 120.3090909,
                "pitch": 74,
                "velocity": 80,
                "duration": 0.1022727,
                "tempo": 120.0
            },
            {
                "start_time": 120.3090909,
                "end_time": 120.5090909,
                "pitch": 76,
                "velocity": 80,
                "duration": 0.2,
                "tempo": 120.0
            },
            {
                "start_time": 120.3090909,
                "end_time": 120.6090909,
                "pitch": 74,
                "velocity": 80,
                "duration": 0.3,
                "tempo": 120.0
            },
            {
                "start_time": 120.5090909,
                "end_time": 120.6090909,
                "pitch": 74,
                "velocity": 80,
                "duration": 0.1,
                "tempo": 120.0
            },
            {
                "start_time": 120.5090909,
                "end_time": 120.7090909,
                "pitch": 76,
                "velocity": 80,
                "duration": 0.2,
                "tempo": 120.0
            },
            {
                "start_time": 120.6090909,
                "end_time": 120.7090909,
                "pitch": 76,
                "velocity": 80,
                "duration": 0.1,
                "tempo": 120.0
            },
            {
                "start_time": 120.7090909,
                "end_time": 120.9113636,
                "pitch": 64,
                "velocity": 51,
                "duration": 0.2022727,
                "tempo": 120.0
            },
            {
                "start_time": 120.9113636,
                "end_time": 121.1136364,
                "pitch": 64,
                "velocity": 51,
                "duration": 0.2022727,
                "tempo": 120.0
            },
            {
                "start_time": 121.1136364,
                "end_time": 121.3136364,
                "pitch": 65,
                "velocity": 51,
                "duration": 0.2,
                "tempo": 120.0
            },
            {
                "start_time": 121.3136364,
                "end_time": 121.5136364,
                "pitch": 64,
                "velocity": 51,
                "duration": 0.2,
                "tempo": 120.0
            },
            {
                "start_time": 121.7159091,
                "end_time": 122.3204545,
                "pitch": 65,
                "velocity": 51,
                "duration": 0.6045455,
                "tempo": 120.0
            },
            {
                "start_time": 122.3204545,
                "end_time": 122.525,
                "pitch": 64,
                "velocity": 51,
                "duration": 0.2045455,
                "tempo": 120.0
            },
            {
                "start_time": 122.525,
                "end_time": 122.7318182,
                "pitch": 64,
                "velocity": 51,
                "duration": 0.2068182,
                "tempo": 120.0
            },
            {
                "start_time": 122.7318182,
                "end_time": 122.9272727,
                "pitch": 65,
                "velocity": 51,
                "duration": 0.1954545,
                "tempo": 120.0
            },
            {
                "start_time": 120.1068182,
                "end_time": 122.9272727,
                "pitch": 77,
                "velocity": 80,
                "duration": 2.8204545,
                "tempo": 120.0
            },
            {
                "start_time": 122.9272727,
                "end_time": 123.1227273,
                "pitch": 67,
                "velocity": 51,
                "duration": 0.1954545,
                "tempo": 120.0
            },
            {
                "start_time": 107.8295455,
                "end_time": 123.325,
                "pitch": 0,
                "velocity": 80,
                "duration": 15.4954545,
                "tempo": 120.0
            },
            {
                "start_time": 123.325,
                "end_time": 123.9272727,
                "pitch": 64,
                "velocity": 51,
                "duration": 0.6022727,
                "tempo": 120.0
            },
            {
                "start_time": 123.9272727,
                "end_time": 124.1318182,
                "pitch": 64,
                "velocity": 51,
                "duration": 0.2045455,
                "tempo": 120.0
            },
            {
                "start_time": 124.1340909,
                "end_time": 124.3386364,
                "pitch": 64,
                "velocity": 51,
                "duration": 0.2045455,
                "tempo": 120.0
            },
            {
                "start_time": 124.3386364,
                "end_time": 124.5409091,
                "pitch": 65,
                "velocity": 51,
                "duration": 0.2022727,
                "tempo": 120.0
            },
            {
                "start_time": 122.9272727,
                "end_time": 124.5409091,
                "pitch": 77,
                "velocity": 51,
                "duration": 1.6136364,
                "tempo": 120.0
            },
            {
                "start_time": 50.4840909,
                "end_time": 124.7409091,
                "pitch": 69,
                "velocity": 51,
                "duration": 74.2568182,
                "tempo": 120.0
            },
            {
                "start_time": 124.5409091,
                "end_time": 124.7409091,
                "pitch": 69,
                "velocity": 51,
                "duration": 0.2,
                "tempo": 120.0
            },
            {
                "start_time": 44.6545455,
                "end_time": 124.9431818,
                "pitch": 30,
                "velocity": 51,
                "duration": 80.2886364,
                "tempo": 120.0
            },
            {
                "start_time": 124.9431818,
                "end_time": 125.1454545,
                "pitch": 64,
                "velocity": 51,
                "duration": 0.2022727,
                "tempo": 120.0
            },
            {
                "start_time": 48.4727273,
                "end_time": 125.3454545,
                "pitch": 60,
                "velocity": 51,
                "duration": 76.8727273,
                "tempo": 120.0
            },
            {
                "start_time": 125.1454545,
                "end_time": 125.3454545,
                "pitch": 60,
                "velocity": 51,
                "duration": 0.2,
                "tempo": 120.0
            },
            {
                "start_time": 49.6772727,
                "end_time": 125.5454545,
                "pitch": 62,
                "velocity": 51,
                "duration": 75.8681818,
                "tempo": 120.0
            },
            {
                "start_time": 125.3454545,
                "end_time": 125.5454545,
                "pitch": 62,
                "velocity": 51,
                "duration": 0.2,
                "tempo": 120.0
            },
            {
                "start_time": 125.1454545,
                "end_time": 126.15,
                "pitch": 64,
                "velocity": 51,
                "duration": 1.0045455,
                "tempo": 120.0
            },
            {
                "start_time": 125.5454545,
                "end_time": 126.15,
                "pitch": 64,
                "velocity": 51,
                "duration": 0.6045455,
                "tempo": 120.0
            },
            {
                "start_time": 125.5454545,
                "end_time": 126.25,
                "pitch": 62,
                "velocity": 51,
                "duration": 0.7045455,
                "tempo": 120.0
            },
            {
                "start_time": 126.15,
                "end_time": 126.25,
                "pitch": 62,
                "velocity": 51,
                "duration": 0.1,
                "tempo": 120.0
            },
            {
                "start_time": 126.15,
                "end_time": 126.35,
                "pitch": 64,
                "velocity": 51,
                "duration": 0.2,
                "tempo": 120.0
            },
            {
                "start_time": 126.25,
                "end_time": 126.35,
                "pitch": 64,
                "velocity": 51,
                "duration": 0.1,
                "tempo": 120.0
            },
            {
                "start_time": 126.25,
                "end_time": 126.7522727,
                "pitch": 62,
                "velocity": 51,
                "duration": 0.5022727,
                "tempo": 120.0
            },
            {
                "start_time": 126.35,
                "end_time": 126.7522727,
                "pitch": 62,
                "velocity": 51,
                "duration": 0.4022727,
                "tempo": 120.0
            },
            {
                "start_time": 125.3454545,
                "end_time": 126.9545455,
                "pitch": 60,
                "velocity": 51,
                "duration": 1.6090909,
                "tempo": 120.0
            },
            {
                "start_time": 126.7522727,
                "end_time": 126.9545455,
                "pitch": 60,
                "velocity": 51,
                "duration": 0.2022727,
                "tempo": 120.0
            },
            {
                "start_time": 126.7522727,
                "end_time": 127.1568182,
                "pitch": 62,
                "velocity": 51,
                "duration": 0.4045455,
                "tempo": 120.0
            },
            {
                "start_time": 126.9545455,
                "end_time": 127.1568182,
                "pitch": 62,
                "velocity": 51,
                "duration": 0.2022727,
                "tempo": 120.0
            },
            {
                "start_time": 126.9545455,
                "end_time": 127.9590909,
                "pitch": 60,
                "velocity": 51,
                "duration": 1.0045455,
                "tempo": 120.0
            },
            {
                "start_time": 127.1568182,
                "end_time": 127.9590909,
                "pitch": 60,
                "velocity": 51,
                "duration": 0.8022727,
                "tempo": 120.0
            },
            {
                "start_time": 126.35,
                "end_time": 128.1613636,
                "pitch": 64,
                "velocity": 51,
                "duration": 1.8113636,
                "tempo": 120.0
            },
            {
                "start_time": 48.0727273,
                "end_time": 128.3613636,
                "pitch": 57,
                "velocity": 51,
                "duration": 80.2886364,
                "tempo": 120.0
            },
            {
                "start_time": 128.1613636,
                "end_time": 128.3613636,
                "pitch": 57,
                "velocity": 51,
                "duration": 0.2,
                "tempo": 120.0
            },
            {
                "start_time": 48.2772727,
                "end_time": 128.5613636,
                "pitch": 43,
                "velocity": 51,
                "duration": 80.2840909,
                "tempo": 120.0
            },
            {
                "start_time": 128.3613636,
                "end_time": 128.5613636,
                "pitch": 59,
                "velocity": 51,
                "duration": 0.2,
                "tempo": 120.0
            },
            {
                "start_time": 128.5613636,
                "end_time": 128.7636364,
                "pitch": 60,
                "velocity": 51,
                "duration": 0.2022727,
                "tempo": 120.0
            },
            {
                "start_time": 127.1568182,
                "end_time": 129.175,
                "pitch": 62,
                "velocity": 51,
                "duration": 2.0181818,
                "tempo": 120.0
            },
            {
                "start_time": 128.7636364,
                "end_time": 129.175,
                "pitch": 62,
                "velocity": 51,
                "duration": 0.4113636,
                "tempo": 120.0
            },
            {
                "start_time": 128.1613636,
                "end_time": 129.3772727,
                "pitch": 64,
                "velocity": 51,
                "duration": 1.2159091,
                "tempo": 120.0
            },
            {
                "start_time": 129.175,
                "end_time": 129.3772727,
                "pitch": 64,
                "velocity": 51,
                "duration": 0.2022727,
                "tempo": 120.0
            },
            {
                "start_time": 129.175,
                "end_time": 129.5772727,
                "pitch": 62,
                "velocity": 51,
                "duration": 0.4022727,
                "tempo": 120.0
            },
            {
                "start_time": 129.3772727,
                "end_time": 129.5772727,
                "pitch": 62,
                "velocity": 51,
                "duration": 0.2,
                "tempo": 120.0
            },
            {
                "start_time": 129.775,
                "end_time": 129.9704545,
                "pitch": 62,
                "velocity": 51,
                "duration": 0.1954545,
                "tempo": 120.0
            },
            {
                "start_time": 129.3772727,
                "end_time": 130.1772727,
                "pitch": 64,
                "velocity": 51,
                "duration": 0.8,
                "tempo": 120.0
            },
            {
                "start_time": 129.9704545,
                "end_time": 130.1772727,
                "pitch": 64,
                "velocity": 51,
                "duration": 0.2068182,
                "tempo": 120.0
            },
            {
                "start_time": 130.1772727,
                "end_time": 130.3818182,
                "pitch": 64,
                "velocity": 51,
                "duration": 0.2045455,
                "tempo": 120.0
            },
            {
                "start_time": 130.3818182,
                "end_time": 130.775,
                "pitch": 69,
                "velocity": 51,
                "duration": 0.3931818,
                "tempo": 120.0
            },
            {
                "start_time": 54.6954545,
                "end_time": 131.1772727,
                "pitch": 71,
                "velocity": 51,
                "duration": 76.4818182,
                "tempo": 120.0
            },
            {
                "start_time": 130.775,
                "end_time": 131.1772727,
                "pitch": 71,
                "velocity": 51,
                "duration": 0.4022727,
                "tempo": 120.0
            },
            {
                "start_time": 53.6931818,
                "end_time": 131.1795455,
                "pitch": 55,
                "velocity": 51,
                "duration": 77.4863636,
                "tempo": 120.0
            },
            {
                "start_time": 117.7954545,
                "end_time": 131.3795455,
                "pitch": 72,
                "velocity": 80,
                "duration": 13.5840909,
                "tempo": 120.0
            },
            {
                "start_time": 131.1795455,
                "end_time": 131.3795455,
                "pitch": 72,
                "velocity": 51,
                "duration": 0.2,
                "tempo": 120.0
            },
            {
                "start_time": 120.6090909,
                "end_time": 131.5818182,
                "pitch": 74,
                "velocity": 80,
                "duration": 10.9727273,
                "tempo": 120.0
            },
            {
                "start_time": 131.3795455,
                "end_time": 131.5818182,
                "pitch": 74,
                "velocity": 51,
                "duration": 0.2022727,
                "tempo": 120.0
            },
            {
                "start_time": 124.5409091,
                "end_time": 131.7818182,
                "pitch": 77,
                "velocity": 51,
                "duration": 7.2409091,
                "tempo": 120.0
            },
            {
                "start_time": 131.7818182,
                "end_time": 132.1863636,
                "pitch": 71,
                "velocity": 51,
                "duration": 0.4045455,
                "tempo": 120.0
            },
            {
                "start_time": 131.1795455,
                "end_time": 132.3931818,
                "pitch": 55,
                "velocity": 51,
                "duration": 1.2136364,
                "tempo": 120.0
            },
            {
                "start_time": 132.1886364,
                "end_time": 132.3931818,
                "pitch": 71,
                "velocity": 51,
                "duration": 0.2045455,
                "tempo": 120.0
            },
            {
                "start_time": 131.3795455,
                "end_time": 132.5954545,
                "pitch": 72,
                "velocity": 51,
                "duration": 1.2159091,
                "tempo": 120.0
            },
            {
                "start_time": 132.3931818,
                "end_time": 132.5954545,
                "pitch": 72,
                "velocity": 51,
                "duration": 0.2022727,
                "tempo": 120.0
            },
            {
                "start_time": 132.5954545,
                "end_time": 132.7954545,
                "pitch": 74,
                "velocity": 51,
                "duration": 0.2,
                "tempo": 120.0
            },
            {
                "start_time": 132.9977273,
                "end_time": 133.2,
                "pitch": 74,
                "velocity": 51,
                "duration": 0.2022727,
                "tempo": 120.0
            },
            {
                "start_time": 133.2,
                "end_time": 133.4022727,
                "pitch": 76,
                "velocity": 51,
                "duration": 0.2022727,
                "tempo": 120.0
            },
            {
                "start_time": 133.2,
                "end_time": 133.6022727,
                "pitch": 74,
                "velocity": 51,
                "duration": 0.4022727,
                "tempo": 120.0
            },
            {
                "start_time": 133.4022727,
                "end_time": 133.6022727,
                "pitch": 74,
                "velocity": 51,
                "duration": 0.2,
                "tempo": 120.0
            },
            {
                "start_time": 133.6022727,
                "end_time": 133.6045455,
                "pitch": 74,
                "velocity": 51,
                "duration": 0.0022727,
                "tempo": 120.0
            },
            {
                "start_time": 132.5954545,
                "end_time": 133.8045455,
                "pitch": 72,
                "velocity": 51,
                "duration": 1.2090909,
                "tempo": 120.0
            },
            {
                "start_time": 133.6045455,
                "end_time": 133.8045455,
                "pitch": 72,
                "velocity": 51,
                "duration": 0.2,
                "tempo": 120.0
            },
            {
                "start_time": 133.4022727,
                "end_time": 133.8045455,
                "pitch": 76,
                "velocity": 51,
                "duration": 0.4022727,
                "tempo": 120.0
            },
            {
                "start_time": 132.3931818,
                "end_time": 134.0068182,
                "pitch": 55,
                "velocity": 51,
                "duration": 1.6136364,
                "tempo": 120.0
            },
            {
                "start_time": 133.8045455,
                "end_time": 134.0068182,
                "pitch": 71,
                "velocity": 51,
                "duration": 0.2022727,
                "tempo": 120.0
            },
            {
                "start_time": 134.0068182,
                "end_time": 134.2068182,
                "pitch": 74,
                "velocity": 51,
                "duration": 0.2,
                "tempo": 120.0
            },
            {
                "start_time": 134.2068182,
                "end_time": 134.4068182,
                "pitch": 72,
                "velocity": 51,
                "duration": 0.2,
                "tempo": 120.0
            },
            {
                "start_time": 133.8045455,
                "end_time": 134.6090909,
                "pitch": 76,
                "velocity": 51,
                "duration": 0.8045455,
                "tempo": 120.0
            },
            {
                "start_time": 134.6090909,
                "end_time": 135.0113636,
                "pitch": 71,
                "velocity": 51,
                "duration": 0.4022727,
                "tempo": 120.0
            },
            {
                "start_time": 123.325,
                "end_time": 135.2136364,
                "pitch": 0,
                "velocity": 51,
                "duration": 11.8886364,
                "tempo": 120.0
            },
            {
                "start_time": 135.0113636,
                "end_time": 135.2136364,
                "pitch": 67,
                "velocity": 51,
                "duration": 0.2022727,
                "tempo": 120.0
            },
            {
                "start_time": 135.2136364,
                "end_time": 135.4181818,
                "pitch": 72,
                "velocity": 51,
                "duration": 0.2045455,
                "tempo": 120.0
            },
            {
                "start_time": 134.6090909,
                "end_time": 135.4181818,
                "pitch": 76,
                "velocity": 51,
                "duration": 0.8090909,
                "tempo": 120.0
            },
            {
                "start_time": 55.3022727,
                "end_time": 135.625,
                "pitch": 50,
                "velocity": 51,
                "duration": 80.3227273,
                "tempo": 120.0
            },
            {
                "start_time": 135.4181818,
                "end_time": 135.625,
                "pitch": 70,
                "velocity": 51,
                "duration": 0.2068182,
                "tempo": 120.0
            },
            {
                "start_time": 134.2068182,
                "end_time": 135.8204545,
                "pitch": 74,
                "velocity": 51,
                "duration": 1.6136364,
                "tempo": 120.0
            },
            {
                "start_time": 135.625,
                "end_time": 135.8204545,
                "pitch": 74,
                "velocity": 51,
                "duration": 0.1954545,
                "tempo": 120.0
            },
            {
                "start_time": 135.8204545,
                "end_time": 136.0181818,
                "pitch": 72,
                "velocity": 51,
                "duration": 0.1977273,
                "tempo": 120.0
            },
            {
                "start_time": 135.8204545,
                "end_time": 136.8204545,
                "pitch": 74,
                "velocity": 51,
                "duration": 1.0,
                "tempo": 120.0
            },
            {
                "start_time": 136.2181818,
                "end_time": 136.8204545,
                "pitch": 74,
                "velocity": 51,
                "duration": 0.6022727,
                "tempo": 120.0
            },
            {
                "start_time": 135.4181818,
                "end_time": 137.0272727,
                "pitch": 76,
                "velocity": 51,
                "duration": 1.6090909,
                "tempo": 120.0
            },
            {
                "start_time": 136.8204545,
                "end_time": 137.0272727,
                "pitch": 76,
                "velocity": 51,
                "duration": 0.2068182,
                "tempo": 120.0
            },
            {
                "start_time": 136.8204545,
                "end_time": 137.2318182,
                "pitch": 74,
                "velocity": 51,
                "duration": 0.4113636,
                "tempo": 120.0
            },
            {
                "start_time": 137.0272727,
                "end_time": 137.2318182,
                "pitch": 74,
                "velocity": 51,
                "duration": 0.2045455,
                "tempo": 120.0
            },
            {
                "start_time": 60.3272727,
                "end_time": 137.2318182,
                "pitch": 89,
                "velocity": 51,
                "duration": 76.9045455,
                "tempo": 120.0
            },
            {
                "start_time": 137.2318182,
                "end_time": 137.4295455,
                "pitch": 81,
                "velocity": 51,
                "duration": 0.1977273,
                "tempo": 120.0
            },
            {
                "start_time": 137.4295455,
                "end_time": 137.625,
                "pitch": 81,
                "velocity": 51,
                "duration": 0.1954545,
                "tempo": 120.0
            },
            {
                "start_time": 135.2136364,
                "end_time": 137.8272727,
                "pitch": 0,
                "velocity": 51,
                "duration": 2.6136364,
                "tempo": 120.0
            },
            {
                "start_time": 131.7818182,
                "end_time": 138.2295455,
                "pitch": 77,
                "velocity": 51,
                "duration": 6.4477273,
                "tempo": 120.0
            },
            {
                "start_time": 137.8272727,
                "end_time": 138.2295455,
                "pitch": 77,
                "velocity": 51,
                "duration": 0.4022727,
                "tempo": 120.0
            },
            {
                "start_time": 61.9340909,
                "end_time": 138.2295455,
                "pitch": 90,
                "velocity": 51,
                "duration": 76.2954545,
                "tempo": 120.0
            },
            {
                "start_time": 137.8272727,
                "end_time": 138.4295455,
                "pitch": 0,
                "velocity": 51,
                "duration": 0.6022727,
                "tempo": 120.0
            },
            {
                "start_time": 138.2295455,
                "end_time": 138.4295455,
                "pitch": 79,
                "velocity": 51,
                "duration": 0.2,
                "tempo": 120.0
            },
            {
                "start_time": 138.4295455,
                "end_time": 139.0340909,
                "pitch": 77,
                "velocity": 51,
                "duration": 0.6045455,
                "tempo": 120.0
            },
            {
                "start_time": 138.2295455,
                "end_time": 139.0340909,
                "pitch": 90,
                "velocity": 51,
                "duration": 0.8045455,
                "tempo": 120.0
            },
            {
                "start_time": 138.4295455,
                "end_time": 139.1340909,
                "pitch": 0,
                "velocity": 51,
                "duration": 0.7045455,
                "tempo": 120.0
            },
            {
                "start_time": 139.0340909,
                "end_time": 139.1340909,
                "pitch": 79,
                "velocity": 51,
                "duration": 0.1,
                "tempo": 120.0
            },
            {
                "start_time": 139.1340909,
                "end_time": 139.2363636,
                "pitch": 77,
                "velocity": 51,
                "duration": 0.1022727,
                "tempo": 120.0
            },
            {
                "start_time": 139.2363636,
                "end_time": 139.6454545,
                "pitch": 77,
                "velocity": 51,
                "duration": 0.4090909,
                "tempo": 120.0
            },
            {
                "start_time": 137.0272727,
                "end_time": 139.6477273,
                "pitch": 76,
                "velocity": 51,
                "duration": 2.6204545,
                "tempo": 120.0
            },
            {
                "start_time": 136.2181818,
                "end_time": 139.8477273,
                "pitch": 72,
                "velocity": 51,
                "duration": 3.6295455,
                "tempo": 120.0
            },
            {
                "start_time": 139.6477273,
                "end_time": 139.8477273,
                "pitch": 72,
                "velocity": 51,
                "duration": 0.2,
                "tempo": 120.0
            },
            {
                "start_time": 139.8477273,
                "end_time": 140.05,
                "pitch": 74,
                "velocity": 51,
                "duration": 0.2022727,
                "tempo": 120.0
            },
            {
                "start_time": 139.6477273,
                "end_time": 140.2522727,
                "pitch": 76,
                "velocity": 51,
                "duration": 0.6045455,
                "tempo": 120.0
            },
            {
                "start_time": 140.05,
                "end_time": 140.2522727,
                "pitch": 76,
                "velocity": 51,
                "duration": 0.2022727,
                "tempo": 120.0
            },
            {
                "start_time": 140.2522727,
                "end_time": 140.4522727,
                "pitch": 76,
                "velocity": 51,
                "duration": 0.2,
                "tempo": 120.0
            },
            {
                "start_time": 140.4545455,
                "end_time": 140.6545455,
                "pitch": 77,
                "velocity": 51,
                "duration": 0.2,
                "tempo": 120.0
            },
            {
                "start_time": 137.2318182,
                "end_time": 140.6545455,
                "pitch": 89,
                "velocity": 51,
                "duration": 3.4227273,
                "tempo": 120.0
            },
            {
                "start_time": 140.6545455,
                "end_time": 140.8568182,
                "pitch": 81,
                "velocity": 51,
                "duration": 0.2022727,
                "tempo": 120.0
            },
            {
                "start_time": 141.0568182,
                "end_time": 141.4409091,
                "pitch": 81,
                "velocity": 51,
                "duration": 0.3840909,
                "tempo": 120.0
            },
            {
                "start_time": 139.1340909,
                "end_time": 141.4590909,
                "pitch": 0,
                "velocity": 51,
                "duration": 2.325,
                "tempo": 120.0
            },
            {
                "start_time": 141.4590909,
                "end_time": 141.6613636,
                "pitch": 77,
                "velocity": 51,
                "duration": 0.2022727,
                "tempo": 120.0
            },
            {
                "start_time": 140.05,
                "end_time": 141.8659091,
                "pitch": 74,
                "velocity": 51,
                "duration": 1.8159091,
                "tempo": 120.0
            },
            {
                "start_time": 141.6613636,
                "end_time": 141.8659091,
                "pitch": 74,
                "velocity": 51,
                "duration": 0.2045455,
                "tempo": 120.0
            },
            {
                "start_time": 141.8659091,
                "end_time": 142.0704545,
                "pitch": 76,
                "velocity": 51,
                "duration": 0.2045455,
                "tempo": 120.0
            },
            {
                "start_time": 142.0727273,
                "end_time": 142.2681818,
                "pitch": 76,
                "velocity": 51,
                "duration": 0.1954545,
                "tempo": 120.0
            },
            {
                "start_time": 139.0340909,
                "end_time": 142.2681818,
                "pitch": 90,
                "velocity": 51,
                "duration": 3.2340909,
                "tempo": 120.0
            },
            {
                "start_time": 142.2681818,
                "end_time": 142.4636364,
                "pitch": 79,
                "velocity": 51,
                "duration": 0.1954545,
                "tempo": 120.0
            },
            {
                "start_time": 141.4590909,
                "end_time": 142.6659091,
                "pitch": 0,
                "velocity": 51,
                "duration": 1.2068182,
                "tempo": 120.0
            },
            {
                "start_time": 141.8659091,
                "end_time": 142.8681818,
                "pitch": 74,
                "velocity": 51,
                "duration": 1.0022727,
                "tempo": 120.0
            },
            {
                "start_time": 142.6659091,
                "end_time": 142.8681818,
                "pitch": 74,
                "velocity": 51,
                "duration": 0.2022727,
                "tempo": 120.0
            },
            {
                "start_time": 142.8681818,
                "end_time": 143.0681818,
                "pitch": 76,
                "velocity": 51,
                "duration": 0.2,
                "tempo": 120.0
            },
            {
                "start_time": 139.8477273,
                "end_time": 143.1681818,
                "pitch": 72,
                "velocity": 51,
                "duration": 3.3204545,
                "tempo": 120.0
            },
            {
                "start_time": 143.0681818,
                "end_time": 143.1681818,
                "pitch": 72,
                "velocity": 51,
                "duration": 0.1,
                "tempo": 120.0
            },
            {
                "start_time": 142.8681818,
                "end_time": 143.2681818,
                "pitch": 74,
                "velocity": 51,
                "duration": 0.4,
                "tempo": 120.0
            },
            {
                "start_time": 143.1681818,
                "end_time": 143.2681818,
                "pitch": 74,
                "velocity": 51,
                "duration": 0.1,
                "tempo": 120.0
            },
            {
                "start_time": 143.1681818,
                "end_time": 144.4772727,
                "pitch": 72,
                "velocity": 51,
                "duration": 1.3090909,
                "tempo": 120.0
            },
            {
                "start_time": 143.2681818,
                "end_time": 144.4772727,
                "pitch": 72,
                "velocity": 51,
                "duration": 1.2090909,
                "tempo": 120.0
            },
            {
                "start_time": 143.0681818,
                "end_time": 144.7795455,
                "pitch": 76,
                "velocity": 51,
                "duration": 1.7113636,
                "tempo": 120.0
            },
            {
                "start_time": 144.6795455,
                "end_time": 144.7795455,
                "pitch": 76,
                "velocity": 51,
                "duration": 0.1,
                "tempo": 120.0
            },
            {
                "start_time": 143.2681818,
                "end_time": 144.8818182,
                "pitch": 74,
                "velocity": 51,
                "duration": 1.6136364,
                "tempo": 120.0
            },
            {
                "start_time": 144.7795455,
                "end_time": 144.8818182,
                "pitch": 74,
                "velocity": 51,
                "duration": 0.1022727,
                "tempo": 120.0
            },
            {
                "start_time": 144.6795455,
                "end_time": 146.4886364,
                "pitch": 72,
                "velocity": 51,
                "duration": 1.8090909,
                "tempo": 120.0
            },
            {
                "start_time": 144.8818182,
                "end_time": 146.4886364,
                "pitch": 72,
                "velocity": 51,
                "duration": 1.6068182,
                "tempo": 120.0
            },
            {
                "start_time": 128.7636364,
                "end_time": 146.6954545,
                "pitch": 60,
                "velocity": 51,
                "duration": 17.9318182,
                "tempo": 120.0
            },
            {
                "start_time": 146.6954545,
                "end_time": 146.9,
                "pitch": 64,
                "velocity": 51,
                "duration": 0.2045455,
                "tempo": 120.0
            },
            {
                "start_time": 146.9,
                "end_time": 147.1022727,
                "pitch": 64,
                "velocity": 51,
                "duration": 0.2022727,
                "tempo": 120.0
            },
            {
                "start_time": 147.1022727,
                "end_time": 147.3022727,
                "pitch": 65,
                "velocity": 51,
                "duration": 0.2,
                "tempo": 120.0
            },
            {
                "start_time": 147.3022727,
                "end_time": 147.5045455,
                "pitch": 64,
                "velocity": 51,
                "duration": 0.2022727,
                "tempo": 120.0
            },
            {
                "start_time": 147.7068182,
                "end_time": 148.3113636,
                "pitch": 65,
                "velocity": 51,
                "duration": 0.6045455,
                "tempo": 120.0
            },
            {
                "start_time": 148.3136364,
                "end_time": 148.5181818,
                "pitch": 64,
                "velocity": 51,
                "duration": 0.2045455,
                "tempo": 120.0
            },
            {
                "start_time": 148.5181818,
                "end_time": 148.7159091,
                "pitch": 64,
                "velocity": 51,
                "duration": 0.1977273,
                "tempo": 120.0
            },
            {
                "start_time": 148.7159091,
                "end_time": 148.9113636,
                "pitch": 65,
                "velocity": 51,
                "duration": 0.1954545,
                "tempo": 120.0
            },
            {
                "start_time": 141.6613636,
                "end_time": 148.9113636,
                "pitch": 77,
                "velocity": 51,
                "duration": 7.25,
                "tempo": 120.0
            },
            {
                "start_time": 148.9113636,
                "end_time": 149.1136364,
                "pitch": 67,
                "velocity": 51,
                "duration": 0.2022727,
                "tempo": 120.0
            },
            {
                "start_time": 142.6659091,
                "end_time": 149.3136364,
                "pitch": 0,
                "velocity": 51,
                "duration": 6.6477273,
                "tempo": 120.0
            },
            {
                "start_time": 149.3136364,
                "end_time": 149.9227273,
                "pitch": 64,
                "velocity": 51,
                "duration": 0.6090909,
                "tempo": 120.0
            },
            {
                "start_time": 149.9227273,
                "end_time": 150.1295455,
                "pitch": 64,
                "velocity": 51,
                "duration": 0.2068182,
                "tempo": 120.0
            },
            {
                "start_time": 150.1295455,
                "end_time": 150.325,
                "pitch": 64,
                "velocity": 51,
                "duration": 0.1954545,
                "tempo": 120.0
            },
            {
                "start_time": 150.325,
                "end_time": 150.5204545,
                "pitch": 65,
                "velocity": 51,
                "duration": 0.1954545,
                "tempo": 120.0
            },
            {
                "start_time": 148.9113636,
                "end_time": 150.5227273,
                "pitch": 77,
                "velocity": 51,
                "duration": 1.6113636,
                "tempo": 120.0
            },
            {
                "start_time": 130.775,
                "end_time": 150.7227273,
                "pitch": 69,
                "velocity": 51,
                "duration": 19.9477273,
                "tempo": 120.0
            },
            {
                "start_time": 150.5227273,
                "end_time": 150.7227273,
                "pitch": 69,
                "velocity": 51,
                "duration": 0.2,
                "tempo": 120.0
            },
            {
                "start_time": 124.9431818,
                "end_time": 150.925,
                "pitch": 30,
                "velocity": 51,
                "duration": 25.9818182,
                "tempo": 120.0
            },
            {
                "start_time": 150.925,
                "end_time": 151.1272727,
                "pitch": 64,
                "velocity": 51,
                "duration": 0.2022727,
                "tempo": 120.0
            },
            {
                "start_time": 146.6954545,
                "end_time": 151.3272727,
                "pitch": 60,
                "velocity": 51,
                "duration": 4.6318182,
                "tempo": 120.0
            },
            {
                "start_time": 151.1272727,
                "end_time": 151.3272727,
                "pitch": 60,
                "velocity": 51,
                "duration": 0.2,
                "tempo": 120.0
            },
            {
                "start_time": 129.9704545,
                "end_time": 151.5340909,
                "pitch": 62,
                "velocity": 51,
                "duration": 21.5636364,
                "tempo": 120.0
            },
            {
                "start_time": 151.3272727,
                "end_time": 151.5340909,
                "pitch": 62,
                "velocity": 51,
                "duration": 0.2068182,
                "tempo": 120.0
            },
            {
                "start_time": 151.1272727,
                "end_time": 152.1318182,
                "pitch": 64,
                "velocity": 51,
                "duration": 1.0045455,
                "tempo": 120.0
            },
            {
                "start_time": 151.5340909,
                "end_time": 152.1318182,
                "pitch": 64,
                "velocity": 51,
                "duration": 0.5977273,
                "tempo": 120.0
            },
            {
                "start_time": 151.5340909,
                "end_time": 152.2340909,
                "pitch": 62,
                "velocity": 51,
                "duration": 0.7,
                "tempo": 120.0
            },
            {
                "start_time": 152.1318182,
                "end_time": 152.2340909,
                "pitch": 62,
                "velocity": 51,
                "duration": 0.1022727,
                "tempo": 120.0
            },
            {
                "start_time": 152.1318182,
                "end_time": 152.3363636,
                "pitch": 64,
                "velocity": 51,
                "duration": 0.2045455,
                "tempo": 120.0
            },
            {
                "start_time": 152.2340909,
                "end_time": 152.3363636,
                "pitch": 64,
                "velocity": 51,
                "duration": 0.1022727,
                "tempo": 120.0
            },
            {
                "start_time": 152.2340909,
                "end_time": 152.7386364,
                "pitch": 62,
                "velocity": 51,
                "duration": 0.5045455,
                "tempo": 120.0
            },
            {
                "start_time": 152.3363636,
                "end_time": 152.7386364,
                "pitch": 62,
                "velocity": 51,
                "duration": 0.4022727,
                "tempo": 120.0
            },
            {
                "start_time": 152.7386364,
                "end_time": 152.7409091,
                "pitch": 62,
                "velocity": 51,
                "duration": 0.0022727,
                "tempo": 120.0
            },
            {
                "start_time": 151.3272727,
                "end_time": 152.9363636,
                "pitch": 60,
                "velocity": 51,
                "duration": 1.6090909,
                "tempo": 120.0
            },
            {
                "start_time": 152.7409091,
                "end_time": 152.9363636,
                "pitch": 60,
                "velocity": 51,
                "duration": 0.1954545,
                "tempo": 120.0
            },
            {
                "start_time": 152.9363636,
                "end_time": 153.1409091,
                "pitch": 62,
                "velocity": 51,
                "duration": 0.2045455,
                "tempo": 120.0
            },
            {
                "start_time": 152.9363636,
                "end_time": 153.9454545,
                "pitch": 60,
                "velocity": 51,
                "duration": 1.0090909,
                "tempo": 120.0
            },
            {
                "start_time": 153.1409091,
                "end_time": 153.9454545,
                "pitch": 60,
                "velocity": 51,
                "duration": 0.8045455,
                "tempo": 120.0
            },
            {
                "start_time": 152.3363636,
                "end_time": 154.15,
                "pitch": 64,
                "velocity": 51,
                "duration": 1.8136364,
                "tempo": 120.0
            },
            {
                "start_time": 128.3613636,
                "end_time": 154.35,
                "pitch": 57,
                "velocity": 51,
                "duration": 25.9886364,
                "tempo": 120.0
            },
            {
                "start_time": 154.15,
                "end_time": 154.35,
                "pitch": 57,
                "velocity": 51,
                "duration": 0.2,
                "tempo": 120.0
            },
            {
                "start_time": 128.5613636,
                "end_time": 154.5522727,
                "pitch": 43,
                "velocity": 51,
                "duration": 25.9909091,
                "tempo": 120.0
            },
            {
                "start_time": 154.3522727,
                "end_time": 154.5522727,
                "pitch": 59,
                "velocity": 51,
                "duration": 0.2,
                "tempo": 120.0
            },
            {
                "start_time": 154.5522727,
                "end_time": 154.7522727,
                "pitch": 60,
                "velocity": 51,
                "duration": 0.2,
                "tempo": 120.0
            },
            {
                "start_time": 153.1409091,
                "end_time": 155.1568182,
                "pitch": 62,
                "velocity": 51,
                "duration": 2.0159091,
                "tempo": 120.0
            },
            {
                "start_time": 154.7522727,
                "end_time": 155.1568182,
                "pitch": 62,
                "velocity": 51,
                "duration": 0.4045455,
                "tempo": 120.0
            },
            {
                "start_time": 154.15,
                "end_time": 155.3568182,
                "pitch": 64,
                "velocity": 51,
                "duration": 1.2068182,
                "tempo": 120.0
            },
            {
                "start_time": 155.1568182,
                "end_time": 155.3568182,
                "pitch": 64,
                "velocity": 51,
                "duration": 0.2,
                "tempo": 120.0
            },
            {
                "start_time": 155.1568182,
                "end_time": 155.5590909,
                "pitch": 62,
                "velocity": 51,
                "duration": 0.4022727,
                "tempo": 120.0
            },
            {
                "start_time": 155.3568182,
                "end_time": 155.5590909,
                "pitch": 62,
                "velocity": 51,
                "duration": 0.2022727,
                "tempo": 120.0
            },
            {
                "start_time": 155.7613636,
                "end_time": 155.9636364,
                "pitch": 62,
                "velocity": 51,
                "duration": 0.2022727,
                "tempo": 120.0
            },
            {
                "start_time": 155.3568182,
                "end_time": 156.1636364,
                "pitch": 64,
                "velocity": 51,
                "duration": 0.8068182,
                "tempo": 120.0
            },
            {
                "start_time": 155.9636364,
                "end_time": 156.1636364,
                "pitch": 64,
                "velocity": 51,
                "duration": 0.2,
                "tempo": 120.0
            },
            {
                "start_time": 156.1636364,
                "end_time": 156.3636364,
                "pitch": 64,
                "velocity": 51,
                "duration": 0.2,
                "tempo": 120.0
            },
            {
                "start_time": 130.3818182,
                "end_time": 156.3636364,
                "pitch": 78,
                "velocity": 51,
                "duration": 25.9818182,
                "tempo": 120.0
            },
            {
                "start_time": 156.3636364,
                "end_time": 156.7659091,
                "pitch": 69,
                "velocity": 51,
                "duration": 0.4022727,
                "tempo": 120.0
            },
            {
                "start_time": 134.0068182,
                "end_time": 157.1704545,
                "pitch": 55,
                "velocity": 51,
                "duration": 23.1636364,
                "tempo": 120.0
            },
            {
                "start_time": 135.0113636,
                "end_time": 157.1704545,
                "pitch": 71,
                "velocity": 51,
                "duration": 22.1590909,
                "tempo": 120.0
            },
            {
                "start_time": 156.7659091,
                "end_time": 157.1704545,
                "pitch": 71,
                "velocity": 51,
                "duration": 0.4045455,
                "tempo": 120.0
            },
            {
                "start_time": 157.1704545,
                "end_time": 157.3704545,
                "pitch": 72,
                "velocity": 51,
                "duration": 0.2,
                "tempo": 120.0
            },
            {
                "start_time": 144.8818182,
                "end_time": 157.5727273,
                "pitch": 74,
                "velocity": 51,
                "duration": 12.6909091,
                "tempo": 120.0
            },
            {
                "start_time": 157.3704545,
                "end_time": 157.5727273,
                "pitch": 74,
                "velocity": 51,
                "duration": 0.2022727,
                "tempo": 120.0
            },
            {
                "start_time": 150.5227273,
                "end_time": 157.775,
                "pitch": 77,
                "velocity": 51,
                "duration": 7.2522727,
                "tempo": 120.0
            },
            {
                "start_time": 157.775,
                "end_time": 158.1863636,
                "pitch": 71,
                "velocity": 51,
                "duration": 0.4113636,
                "tempo": 120.0
            },
            {
                "start_time": 157.1704545,
                "end_time": 158.3818182,
                "pitch": 55,
                "velocity": 51,
                "duration": 1.2113636,
                "tempo": 120.0
            },
            {
                "start_time": 158.1863636,
                "end_time": 158.3818182,
                "pitch": 71,
                "velocity": 51,
                "duration": 0.1954545,
                "tempo": 120.0
            },
            {
                "start_time": 157.3704545,
                "end_time": 158.5772727,
                "pitch": 72,
                "velocity": 51,
                "duration": 1.2068182,
                "tempo": 120.0
            },
            {
                "start_time": 158.3818182,
                "end_time": 158.5772727,
                "pitch": 72,
                "velocity": 51,
                "duration": 0.1954545,
                "tempo": 120.0
            },
            {
                "start_time": 158.5795455,
                "end_time": 158.7840909,
                "pitch": 74,
                "velocity": 51,
                "duration": 0.2045455,
                "tempo": 120.0
            },
            {
                "start_time": 158.9886364,
                "end_time": 159.1909091,
                "pitch": 74,
                "velocity": 51,
                "duration": 0.2022727,
                "tempo": 120.0
            },
            {
                "start_time": 144.7795455,
                "end_time": 159.3909091,
                "pitch": 76,
                "velocity": 51,
                "duration": 14.6113636,
                "tempo": 120.0
            },
            {
                "start_time": 159.1909091,
                "end_time": 159.3909091,
                "pitch": 76,
                "velocity": 51,
                "duration": 0.2,
                "tempo": 120.0
            },
            {
                "start_time": 159.1909091,
                "end_time": 159.5909091,
                "pitch": 74,
                "velocity": 51,
                "duration": 0.4,
                "tempo": 120.0
            },
            {
                "start_time": 159.3909091,
                "end_time": 159.5909091,
                "pitch": 74,
                "velocity": 51,
                "duration": 0.2,
                "tempo": 120.0
            },
            {
                "start_time": 158.5795455,
                "end_time": 159.7931818,
                "pitch": 72,
                "velocity": 51,
                "duration": 1.2136364,
                "tempo": 120.0
            },
            {
                "start_time": 159.5931818,
                "end_time": 159.7931818,
                "pitch": 72,
                "velocity": 51,
                "duration": 0.2,
                "tempo": 120.0
            },
            {
                "start_time": 159.3909091,
                "end_time": 159.7931818,
                "pitch": 76,
                "velocity": 51,
                "duration": 0.4022727,
                "tempo": 120.0
            },
            {
                "start_time": 158.3818182,
                "end_time": 159.9954545,
                "pitch": 55,
                "velocity": 51,
                "duration": 1.6136364,
                "tempo": 120.0
            },
            {
                "start_time": 159.7931818,
                "end_time": 159.9954545,
                "pitch": 71,
                "velocity": 51,
                "duration": 0.2022727,
                "tempo": 120.0
            },
            {
                "start_time": 159.5931818,
                "end_time": 160.1954545,
                "pitch": 74,
                "velocity": 51,
                "duration": 0.6022727,
                "tempo": 120.0
            },
            {
                "start_time": 159.9954545,
                "end_time": 160.1954545,
                "pitch": 74,
                "velocity": 51,
                "duration": 0.2,
                "tempo": 120.0
            },
            {
                "start_time": 160.1977273,
                "end_time": 160.3931818,
                "pitch": 72,
                "velocity": 51,
                "duration": 0.1954545,
                "tempo": 120.0
            },
            {
                "start_time": 159.7931818,
                "end_time": 160.5886364,
                "pitch": 76,
                "velocity": 51,
                "duration": 0.7954545,
                "tempo": 120.0
            },
            {
                "start_time": 160.5886364,
                "end_time": 161.0,
                "pitch": 71,
                "velocity": 51,
                "duration": 0.4113636,
                "tempo": 120.0
            },
            {
                "start_time": 161.0,
                "end_time": 161.2,
                "pitch": 67,
                "velocity": 51,
                "duration": 0.2,
                "tempo": 120.0
            },
            {
                "start_time": 149.3136364,
                "end_time": 161.2022727,
                "pitch": 0,
                "velocity": 51,
                "duration": 11.8886364,
                "tempo": 120.0
            },
            {
                "start_time": 161.2022727,
                "end_time": 161.4022727,
                "pitch": 72,
                "velocity": 51,
                "duration": 0.2,
                "tempo": 120.0
            },
            {
                "start_time": 160.5886364,
                "end_time": 161.4022727,
                "pitch": 76,
                "velocity": 51,
                "duration": 0.8136364,
                "tempo": 120.0
            },
            {
                "start_time": 135.625,
                "end_time": 161.6022727,
                "pitch": 50,
                "velocity": 51,
                "duration": 25.9772727,
                "tempo": 120.0
            },
            {
                "start_time": 161.4022727,
                "end_time": 161.6022727,
                "pitch": 70,
                "velocity": 51,
                "duration": 0.2,
                "tempo": 120.0
            },
            {
                "start_time": 160.1977273,
                "end_time": 161.8045455,
                "pitch": 74,
                "velocity": 51,
                "duration": 1.6068182,
                "tempo": 120.0
            },
            {
                "start_time": 161.6022727,
                "end_time": 161.8045455,
                "pitch": 74,
                "velocity": 51,
                "duration": 0.2022727,
                "tempo": 120.0
            },
            {
                "start_time": 161.8045455,
                "end_time": 162.0068182,
                "pitch": 72,
                "velocity": 51,
                "duration": 0.2022727,
                "tempo": 120.0
            },
            {
                "start_time": 161.8045455,
                "end_time": 162.8136364,
                "pitch": 74,
                "velocity": 51,
                "duration": 1.0090909,
                "tempo": 120.0
            },
            {
                "start_time": 162.2068182,
                "end_time": 162.8136364,
                "pitch": 74,
                "velocity": 51,
                "duration": 0.6068182,
                "tempo": 120.0
            },
            {
                "start_time": 161.4022727,
                "end_time": 163.0136364,
                "pitch": 76,
                "velocity": 51,
                "duration": 1.6113636,
                "tempo": 120.0
            },
            {
                "start_time": 162.8136364,
                "end_time": 163.0136364,
                "pitch": 76,
                "velocity": 51,
                "duration": 0.2,
                "tempo": 120.0
            },
            {
                "start_time": 162.8136364,
                "end_time": 163.2136364,
                "pitch": 74,
                "velocity": 51,
                "duration": 0.4,
                "tempo": 120.0
            },
            {
                "start_time": 163.0136364,
                "end_time": 163.2136364,
                "pitch": 74,
                "velocity": 51,
                "duration": 0.2,
                "tempo": 120.0
            },
            {
                "start_time": 140.6545455,
                "end_time": 163.2159091,
                "pitch": 89,
                "velocity": 51,
                "duration": 22.5613636,
                "tempo": 120.0
            },
            {
                "start_time": 163.2136364,
                "end_time": 163.2159091,
                "pitch": 89,
                "velocity": 51,
                "duration": 0.0022727,
                "tempo": 120.0
            },
            {
                "start_time": 163.2159091,
                "end_time": 163.4136364,
                "pitch": 81,
                "velocity": 51,
                "duration": 0.1977273,
                "tempo": 120.0
            },
            {
                "start_time": 163.4159091,
                "end_time": 163.6159091,
                "pitch": 81,
                "velocity": 51,
                "duration": 0.2,
                "tempo": 120.0
            },
            {
                "start_time": 161.2022727,
                "end_time": 163.8181818,
                "pitch": 0,
                "velocity": 51,
                "duration": 2.6159091,
                "tempo": 120.0
            },
            {
                "start_time": 157.775,
                "end_time": 164.2204545,
                "pitch": 77,
                "velocity": 51,
                "duration": 6.4454545,
                "tempo": 120.0
            },
            {
                "start_time": 163.8181818,
                "end_time": 164.2204545,
                "pitch": 77,
                "velocity": 51,
                "duration": 0.4022727,
                "tempo": 120.0
            },
            {
                "start_time": 142.2681818,
                "end_time": 164.2204545,
                "pitch": 90,
                "velocity": 51,
                "duration": 21.9522727,
                "tempo": 120.0
            },
            {
                "start_time": 163.8181818,
                "end_time": 164.4227273,
                "pitch": 0,
                "velocity": 51,
                "duration": 0.6045455,
                "tempo": 120.0
            },
            {
                "start_time": 164.2204545,
                "end_time": 164.4227273,
                "pitch": 79,
                "velocity": 51,
                "duration": 0.2022727,
                "tempo": 120.0
            },
            {
                "start_time": 164.4227273,
                "end_time": 165.0272727,
                "pitch": 77,
                "velocity": 51,
                "duration": 0.6045455,
                "tempo": 120.0
            },
            {
                "start_time": 164.2204545,
                "end_time": 165.0272727,
                "pitch": 90,
                "velocity": 51,
                "duration": 0.8068182,
                "tempo": 120.0
            },
            {
                "start_time": 164.4227273,
                "end_time": 165.1272727,
                "pitch": 0,
                "velocity": 51,
                "duration": 0.7045455,
                "tempo": 120.0
            },
            {
                "start_time": 165.0272727,
                "end_time": 165.1272727,
                "pitch": 79,
                "velocity": 51,
                "duration": 0.1,
                "tempo": 120.0
            },
            {
                "start_time": 165.1272727,
                "end_time": 165.2272727,
                "pitch": 77,
                "velocity": 51,
                "duration": 0.1,
                "tempo": 120.0
            },
            {
                "start_time": 163.0136364,
                "end_time": 165.6295455,
                "pitch": 76,
                "velocity": 51,
                "duration": 2.6159091,
                "tempo": 120.0
            },
            {
                "start_time": 165.2272727,
                "end_time": 165.6295455,
                "pitch": 77,
                "velocity": 51,
                "duration": 0.4022727,
                "tempo": 120.0
            },
            {
                "start_time": 162.2068182,
                "end_time": 165.8318182,
                "pitch": 72,
                "velocity": 51,
                "duration": 3.625,
                "tempo": 120.0
            },
            {
                "start_time": 165.6295455,
                "end_time": 165.8318182,
                "pitch": 72,
                "velocity": 51,
                "duration": 0.2022727,
                "tempo": 120.0
            },
            {
                "start_time": 165.8318182,
                "end_time": 166.0340909,
                "pitch": 74,
                "velocity": 51,
                "duration": 0.2022727,
                "tempo": 120.0
            },
            {
                "start_time": 165.6295455,
                "end_time": 166.2340909,
                "pitch": 76,
                "velocity": 51,
                "duration": 0.6045455,
                "tempo": 120.0
            },
            {
                "start_time": 166.0340909,
                "end_time": 166.2340909,
                "pitch": 76,
                "velocity": 51,
                "duration": 0.2,
                "tempo": 120.0
            },
            {
                "start_time": 166.2340909,
                "end_time": 166.4363636,
                "pitch": 76,
                "velocity": 51,
                "duration": 0.2022727,
                "tempo": 120.0
            },
            {
                "start_time": 166.4363636,
                "end_time": 166.6386364,
                "pitch": 77,
                "velocity": 51,
                "duration": 0.2022727,
                "tempo": 120.0
            },
            {
                "start_time": 166.6386364,
                "end_time": 166.8386364,
                "pitch": 81,
                "velocity": 51,
                "duration": 0.2,
                "tempo": 120.0
            },
            {
                "start_time": 167.0409091,
                "end_time": 167.425,
                "pitch": 81,
                "velocity": 51,
                "duration": 0.3840909,
                "tempo": 120.0
            },
            {
                "start_time": 165.1272727,
                "end_time": 167.4431818,
                "pitch": 0,
                "velocity": 51,
                "duration": 2.3159091,
                "tempo": 120.0
            },
            {
                "start_time": 167.4431818,
                "end_time": 167.6477273,
                "pitch": 77,
                "velocity": 51,
                "duration": 0.2045455,
                "tempo": 120.0
            },
            {
                "start_time": 166.0340909,
                "end_time": 167.8522727,
                "pitch": 74,
                "velocity": 51,
                "duration": 1.8181818,
                "tempo": 120.0
            },
            {
                "start_time": 167.6477273,
                "end_time": 167.8522727,
                "pitch": 74,
                "velocity": 51,
                "duration": 0.2045455,
                "tempo": 120.0
            },
            {
                "start_time": 167.8522727,
                "end_time": 168.05,
                "pitch": 76,
                "velocity": 51,
                "duration": 0.1977273,
                "tempo": 120.0
            },
            {
                "start_time": 168.05,
                "end_time": 168.2454545,
                "pitch": 76,
                "velocity": 51,
                "duration": 0.1954545,
                "tempo": 120.0
            },
            {
                "start_time": 165.0272727,
                "end_time": 168.2454545,
                "pitch": 90,
                "velocity": 51,
                "duration": 3.2181818,
                "tempo": 120.0
            },
            {
                "start_time": 168.2454545,
                "end_time": 168.45,
                "pitch": 79,
                "velocity": 51,
                "duration": 0.2045455,
                "tempo": 120.0
            },
            {
                "start_time": 167.4431818,
                "end_time": 168.6568182,
                "pitch": 0,
                "velocity": 51,
                "duration": 1.2136364,
                "tempo": 120.0
            },
            {
                "start_time": 167.8522727,
                "end_time": 168.8590909,
                "pitch": 74,
                "velocity": 51,
                "duration": 1.0068182,
                "tempo": 120.0
            },
            {
                "start_time": 168.6568182,
                "end_time": 168.8590909,
                "pitch": 74,
                "velocity": 51,
                "duration": 0.2022727,
                "tempo": 120.0
            },
            {
                "start_time": 168.8590909,
                "end_time": 169.0590909,
                "pitch": 76,
                "velocity": 51,
                "duration": 0.2,
                "tempo": 120.0
            },
            {
                "start_time": 165.8318182,
                "end_time": 169.1568182,
                "pitch": 72,
                "velocity": 51,
                "duration": 3.325,
                "tempo": 120.0
            },
            {
                "start_time": 169.0613636,
                "end_time": 169.1568182,
                "pitch": 72,
                "velocity": 51,
                "duration": 0.0954545,
                "tempo": 120.0
            },
            {
                "start_time": 168.8590909,
                "end_time": 169.2568182,
                "pitch": 74,
                "velocity": 51,
                "duration": 0.3977273,
                "tempo": 120.0
            },
            {
                "start_time": 169.1568182,
                "end_time": 169.2568182,
                "pitch": 74,
                "velocity": 51,
                "duration": 0.1,
                "tempo": 120.0
            },
            {
                "start_time": 169.1568182,
                "end_time": 170.4636364,
                "pitch": 72,
                "velocity": 51,
                "duration": 1.3068182,
                "tempo": 120.0
            },
            {
                "start_time": 169.2568182,
                "end_time": 170.4636364,
                "pitch": 72,
                "velocity": 51,
                "duration": 1.2068182,
                "tempo": 120.0
            },
            {
                "start_time": 169.0613636,
                "end_time": 170.7613636,
                "pitch": 76,
                "velocity": 51,
                "duration": 1.7,
                "tempo": 120.0
            },
            {
                "start_time": 170.6590909,
                "end_time": 170.7613636,
                "pitch": 76,
                "velocity": 51,
                "duration": 0.1022727,
                "tempo": 120.0
            },
            {
                "start_time": 169.2568182,
                "end_time": 170.8636364,
                "pitch": 74,
                "velocity": 51,
                "duration": 1.6068182,
                "tempo": 120.0
            },
            {
                "start_time": 170.7613636,
                "end_time": 170.8636364,
                "pitch": 74,
                "velocity": 51,
                "duration": 0.1022727,
                "tempo": 120.0
            },
            {
                "start_time": 170.6590909,
                "end_time": 172.2795455,
                "pitch": 72,
                "velocity": 51,
                "duration": 1.6204545,
                "tempo": 120.0
            },
            {
                "start_time": 170.8659091,
                "end_time": 172.2795455,
                "pitch": 72,
                "velocity": 51,
                "duration": 1.4136364,
                "tempo": 120.0
            }
        ],
        "Oboe": [
            {
                "start_time": 65.9590909,
                "end_time": 66.3613636,
                "pitch": 65,
                "velocity": 127,
                "duration": 0.4022727,
                "tempo": 120.0
            },
            {
                "start_time": 66.3613636,
                "end_time": 66.5568182,
                "pitch": 65,
                "velocity": 127,
                "duration": 0.1954545,
                "tempo": 120.0
            },
            {
                "start_time": 66.5590909,
                "end_time": 66.7545455,
                "pitch": 64,
                "velocity": 127,
                "duration": 0.1954545,
                "tempo": 120.0
            },
            {
                "start_time": 66.9545455,
                "end_time": 67.1545455,
                "pitch": 65,
                "velocity": 127,
                "duration": 0.2,
                "tempo": 120.0
            },
            {
                "start_time": 67.3613636,
                "end_time": 67.8159091,
                "pitch": 67,
                "velocity": 127,
                "duration": 0.4545455,
                "tempo": 120.0
            },
            {
                "start_time": 67.8159091,
                "end_time": 67.95,
                "pitch": 67,
                "velocity": 127,
                "duration": 0.1340909,
                "tempo": 120.0
            },
            {
                "start_time": 67.8159091,
                "end_time": 67.95,
                "pitch": 79,
                "velocity": 127,
                "duration": 0.1340909,
                "tempo": 120.0
            },
            {
                "start_time": 67.95,
                "end_time": 67.9659091,
                "pitch": 67,
                "velocity": 127,
                "duration": 0.0159091,
                "tempo": 120.0
            },
            {
                "start_time": 68.3590909,
                "end_time": 68.5636364,
                "pitch": 65,
                "velocity": 127,
                "duration": 0.2045455,
                "tempo": 120.0
            },
            {
                "start_time": 68.7704545,
                "end_time": 68.9727273,
                "pitch": 64,
                "velocity": 127,
                "duration": 0.2022727,
                "tempo": 120.0
            },
            {
                "start_time": 69.175,
                "end_time": 69.9772727,
                "pitch": 65,
                "velocity": 127,
                "duration": 0.8022727,
                "tempo": 120.0
            },
            {
                "start_time": 69.9795455,
                "end_time": 70.1795455,
                "pitch": 62,
                "velocity": 127,
                "duration": 0.2,
                "tempo": 120.0
            },
            {
                "start_time": 69.9795455,
                "end_time": 70.3818182,
                "pitch": 64,
                "velocity": 127,
                "duration": 0.4022727,
                "tempo": 120.0
            },
            {
                "start_time": 70.1795455,
                "end_time": 70.3818182,
                "pitch": 64,
                "velocity": 127,
                "duration": 0.2022727,
                "tempo": 120.0
            },
            {
                "start_time": 70.1795455,
                "end_time": 70.5818182,
                "pitch": 62,
                "velocity": 127,
                "duration": 0.4022727,
                "tempo": 120.0
            },
            {
                "start_time": 70.3818182,
                "end_time": 70.5818182,
                "pitch": 62,
                "velocity": 127,
                "duration": 0.2,
                "tempo": 120.0
            },
            {
                "start_time": 65.9590909,
                "end_time": 71.5886364,
                "pitch": 60,
                "velocity": 127,
                "duration": 5.6295455,
                "tempo": 120.0
            },
            {
                "start_time": 70.5818182,
                "end_time": 71.5886364,
                "pitch": 60,
                "velocity": 127,
                "duration": 1.0068182,
                "tempo": 120.0
            },
            {
                "start_time": 70.5818182,
                "end_time": 71.9886364,
                "pitch": 62,
                "velocity": 127,
                "duration": 1.4068182,
                "tempo": 120.0
            },
            {
                "start_time": 71.7886364,
                "end_time": 71.9886364,
                "pitch": 62,
                "velocity": 127,
                "duration": 0.2,
                "tempo": 120.0
            },
            {
                "start_time": 70.3818182,
                "end_time": 72.1909091,
                "pitch": 64,
                "velocity": 127,
                "duration": 1.8090909,
                "tempo": 120.0
            },
            {
                "start_time": 71.9886364,
                "end_time": 72.1909091,
                "pitch": 64,
                "velocity": 127,
                "duration": 0.2022727,
                "tempo": 120.0
            },
            {
                "start_time": 67.3613636,
                "end_time": 72.1909091,
                "pitch": 78,
                "velocity": 127,
                "duration": 4.8295455,
                "tempo": 120.0
            },
            {
                "start_time": 72.1909091,
                "end_time": 72.3931818,
                "pitch": 67,
                "velocity": 127,
                "duration": 0.2022727,
                "tempo": 120.0
            },
            {
                "start_time": 72.3931818,
                "end_time": 72.5977273,
                "pitch": 67,
                "velocity": 127,
                "duration": 0.2045455,
                "tempo": 120.0
            },
            {
                "start_time": 72.5977273,
                "end_time": 72.8022727,
                "pitch": 69,
                "velocity": 127,
                "duration": 0.2045455,
                "tempo": 120.0
            },
            {
                "start_time": 72.8045455,
                "end_time": 73.0,
                "pitch": 68,
                "velocity": 127,
                "duration": 0.1954545,
                "tempo": 120.0
            },
            {
                "start_time": 73.0,
                "end_time": 73.1954545,
                "pitch": 69,
                "velocity": 127,
                "duration": 0.1954545,
                "tempo": 120.0
            },
            {
                "start_time": 73.1954545,
                "end_time": 73.3977273,
                "pitch": 68,
                "velocity": 127,
                "duration": 0.2022727,
                "tempo": 120.0
            },
            {
                "start_time": 73.3977273,
                "end_time": 73.6,
                "pitch": 69,
                "velocity": 127,
                "duration": 0.2022727,
                "tempo": 120.0
            },
            {
                "start_time": 73.6,
                "end_time": 73.8,
                "pitch": 69,
                "velocity": 127,
                "duration": 0.2,
                "tempo": 120.0
            },
            {
                "start_time": 73.8,
                "end_time": 74.0,
                "pitch": 68,
                "velocity": 127,
                "duration": 0.2,
                "tempo": 120.0
            },
            {
                "start_time": 74.2068182,
                "end_time": 74.4113636,
                "pitch": 69,
                "velocity": 127,
                "duration": 0.2045455,
                "tempo": 120.0
            },
            {
                "start_time": 74.4113636,
                "end_time": 74.6068182,
                "pitch": 69,
                "velocity": 127,
                "duration": 0.1954545,
                "tempo": 120.0
            },
            {
                "start_time": 74.6068182,
                "end_time": 75.0090909,
                "pitch": 68,
                "velocity": 127,
                "duration": 0.4022727,
                "tempo": 120.0
            },
            {
                "start_time": 75.0090909,
                "end_time": 75.2136364,
                "pitch": 69,
                "velocity": 127,
                "duration": 0.2045455,
                "tempo": 120.0
            },
            {
                "start_time": 75.2136364,
                "end_time": 75.4113636,
                "pitch": 72,
                "velocity": 127,
                "duration": 0.1977273,
                "tempo": 120.0
            },
            {
                "start_time": 75.4113636,
                "end_time": 75.6068182,
                "pitch": 74,
                "velocity": 127,
                "duration": 0.1954545,
                "tempo": 120.0
            },
            {
                "start_time": 75.4113636,
                "end_time": 75.8068182,
                "pitch": 72,
                "velocity": 127,
                "duration": 0.3954545,
                "tempo": 120.0
            },
            {
                "start_time": 75.6090909,
                "end_time": 75.8068182,
                "pitch": 72,
                "velocity": 127,
                "duration": 0.1977273,
                "tempo": 120.0
            },
            {
                "start_time": 76.0090909,
                "end_time": 76.2136364,
                "pitch": 72,
                "velocity": 127,
                "duration": 0.2045455,
                "tempo": 120.0
            },
            {
                "start_time": 76.4204545,
                "end_time": 76.6204545,
                "pitch": 72,
                "velocity": 127,
                "duration": 0.2,
                "tempo": 120.0
            },
            {
                "start_time": 76.6204545,
                "end_time": 76.8227273,
                "pitch": 72,
                "velocity": 127,
                "duration": 0.2022727,
                "tempo": 120.0
            },
            {
                "start_time": 75.6090909,
                "end_time": 77.0181818,
                "pitch": 74,
                "velocity": 127,
                "duration": 1.4090909,
                "tempo": 120.0
            },
            {
                "start_time": 76.8227273,
                "end_time": 77.0181818,
                "pitch": 74,
                "velocity": 127,
                "duration": 0.1954545,
                "tempo": 120.0
            },
            {
                "start_time": 77.0204545,
                "end_time": 78.8340909,
                "pitch": 76,
                "velocity": 127,
                "duration": 1.8136364,
                "tempo": 120.0
            },
            {
                "start_time": 78.8340909,
                "end_time": 79.4340909,
                "pitch": 76,
                "velocity": 127,
                "duration": 0.6,
                "tempo": 120.0
            },
            {
                "start_time": 76.8227273,
                "end_time": 80.0409091,
                "pitch": 72,
                "velocity": 127,
                "duration": 3.2181818,
                "tempo": 120.0
            },
            {
                "start_time": 79.4340909,
                "end_time": 80.0409091,
                "pitch": 72,
                "velocity": 127,
                "duration": 0.6068182,
                "tempo": 120.0
            },
            {
                "start_time": 79.4340909,
                "end_time": 81.2363636,
                "pitch": 77,
                "velocity": 127,
                "duration": 1.8022727,
                "tempo": 120.0
            },
            {
                "start_time": 80.0409091,
                "end_time": 81.2363636,
                "pitch": 77,
                "velocity": 127,
                "duration": 1.1954545,
                "tempo": 120.0
            },
            {
                "start_time": 81.2363636,
                "end_time": 81.4431818,
                "pitch": 77,
                "velocity": 127,
                "duration": 0.2068182,
                "tempo": 120.0
            },
            {
                "start_time": 81.4431818,
                "end_time": 81.6477273,
                "pitch": 76,
                "velocity": 127,
                "duration": 0.2045455,
                "tempo": 120.0
            },
            {
                "start_time": 81.6477273,
                "end_time": 81.65,
                "pitch": 90,
                "velocity": 127,
                "duration": 0.0022727,
                "tempo": 120.0
            },
            {
                "start_time": 67.95,
                "end_time": 81.85,
                "pitch": 79,
                "velocity": 127,
                "duration": 13.9,
                "tempo": 120.0
            },
            {
                "start_time": 81.65,
                "end_time": 81.85,
                "pitch": 79,
                "velocity": 127,
                "duration": 0.2,
                "tempo": 120.0
            },
            {
                "start_time": 81.85,
                "end_time": 82.0522727,
                "pitch": 79,
                "velocity": 127,
                "duration": 0.2022727,
                "tempo": 120.0
            },
            {
                "start_time": 82.0522727,
                "end_time": 82.2522727,
                "pitch": 76,
                "velocity": 127,
                "duration": 0.2,
                "tempo": 120.0
            },
            {
                "start_time": 82.2522727,
                "end_time": 82.4522727,
                "pitch": 76,
                "velocity": 127,
                "duration": 0.2,
                "tempo": 120.0
            },
            {
                "start_time": 82.4522727,
                "end_time": 82.6545455,
                "pitch": 77,
                "velocity": 127,
                "duration": 0.2022727,
                "tempo": 120.0
            },
            {
                "start_time": 82.6545455,
                "end_time": 82.8568182,
                "pitch": 76,
                "velocity": 127,
                "duration": 0.2022727,
                "tempo": 120.0
            },
            {
                "start_time": 82.8568182,
                "end_time": 83.0568182,
                "pitch": 79,
                "velocity": 127,
                "duration": 0.2,
                "tempo": 120.0
            },
            {
                "start_time": 80.0409091,
                "end_time": 83.2590909,
                "pitch": 72,
                "velocity": 127,
                "duration": 3.2181818,
                "tempo": 120.0
            },
            {
                "start_time": 77.0204545,
                "end_time": 83.4590909,
                "pitch": 74,
                "velocity": 127,
                "duration": 6.4386364,
                "tempo": 120.0
            },
            {
                "start_time": 83.2590909,
                "end_time": 83.4590909,
                "pitch": 74,
                "velocity": 127,
                "duration": 0.2,
                "tempo": 120.0
            },
            {
                "start_time": 83.2590909,
                "end_time": 84.475,
                "pitch": 72,
                "velocity": 127,
                "duration": 1.2159091,
                "tempo": 120.0
            },
            {
                "start_time": 83.4590909,
                "end_time": 84.475,
                "pitch": 72,
                "velocity": 127,
                "duration": 1.0159091,
                "tempo": 120.0
            },
            {
                "start_time": 75.2136364,
                "end_time": 84.8772727,
                "pitch": 56,
                "velocity": 127,
                "duration": 9.6636364,
                "tempo": 120.0
            },
            {
                "start_time": 84.6772727,
                "end_time": 84.8772727,
                "pitch": 71,
                "velocity": 127,
                "duration": 0.2,
                "tempo": 120.0
            },
            {
                "start_time": 84.8772727,
                "end_time": 85.075,
                "pitch": 72,
                "velocity": 127,
                "duration": 0.1977273,
                "tempo": 120.0
            },
            {
                "start_time": 83.4590909,
                "end_time": 85.2704545,
                "pitch": 74,
                "velocity": 127,
                "duration": 1.8113636,
                "tempo": 120.0
            },
            {
                "start_time": 85.075,
                "end_time": 85.2704545,
                "pitch": 74,
                "velocity": 127,
                "duration": 0.1954545,
                "tempo": 120.0
            },
            {
                "start_time": 85.2704545,
                "end_time": 85.6818182,
                "pitch": 69,
                "velocity": 127,
                "duration": 0.4113636,
                "tempo": 120.0
            },
            {
                "start_time": 85.6818182,
                "end_time": 86.0159091,
                "pitch": 69,
                "velocity": 127,
                "duration": 0.3340909,
                "tempo": 120.0
            },
            {
                "start_time": 84.8772727,
                "end_time": 86.0818182,
                "pitch": 56,
                "velocity": 127,
                "duration": 1.2045455,
                "tempo": 120.0
            },
            {
                "start_time": 86.0159091,
                "end_time": 86.0818182,
                "pitch": 71,
                "velocity": 127,
                "duration": 0.0659091,
                "tempo": 120.0
            },
            {
                "start_time": 85.075,
                "end_time": 86.4863636,
                "pitch": 72,
                "velocity": 127,
                "duration": 1.4113636,
                "tempo": 120.0
            },
            {
                "start_time": 86.0818182,
                "end_time": 86.4863636,
                "pitch": 72,
                "velocity": 127,
                "duration": 0.4045455,
                "tempo": 120.0
            },
            {
                "start_time": 85.2704545,
                "end_time": 86.6909091,
                "pitch": 77,
                "velocity": 127,
                "duration": 1.4204545,
                "tempo": 120.0
            },
            {
                "start_time": 86.4863636,
                "end_time": 86.6909091,
                "pitch": 77,
                "velocity": 127,
                "duration": 0.2045455,
                "tempo": 120.0
            },
            {
                "start_time": 86.6909091,
                "end_time": 87.3,
                "pitch": 77,
                "velocity": 127,
                "duration": 0.6090909,
                "tempo": 120.0
            },
            {
                "start_time": 84.6772727,
                "end_time": 87.7045455,
                "pitch": 76,
                "velocity": 127,
                "duration": 3.0272727,
                "tempo": 120.0
            },
            {
                "start_time": 87.3,
                "end_time": 87.7045455,
                "pitch": 76,
                "velocity": 127,
                "duration": 0.4045455,
                "tempo": 120.0
            },
            {
                "start_time": 82.8568182,
                "end_time": 87.7045455,
                "pitch": 90,
                "velocity": 127,
                "duration": 4.8477273,
                "tempo": 120.0
            },
            {
                "start_time": 87.7045455,
                "end_time": 88.0954545,
                "pitch": 79,
                "velocity": 127,
                "duration": 0.3909091,
                "tempo": 120.0
            },
            {
                "start_time": 88.0954545,
                "end_time": 88.4318182,
                "pitch": 79,
                "velocity": 127,
                "duration": 0.3363636,
                "tempo": 120.0
            },
            {
                "start_time": 88.4318182,
                "end_time": 88.5,
                "pitch": 81,
                "velocity": 127,
                "duration": 0.0681818,
                "tempo": 120.0
            },
            {
                "start_time": 88.5,
                "end_time": 88.9022727,
                "pitch": 81,
                "velocity": 127,
                "duration": 0.4022727,
                "tempo": 120.0
            },
            {
                "start_time": 88.9022727,
                "end_time": 89.2363636,
                "pitch": 79,
                "velocity": 127,
                "duration": 0.3340909,
                "tempo": 120.0
            },
            {
                "start_time": 89.2363636,
                "end_time": 89.3022727,
                "pitch": 81,
                "velocity": 127,
                "duration": 0.0659091,
                "tempo": 120.0
            },
            {
                "start_time": 89.3045455,
                "end_time": 89.6386364,
                "pitch": 81,
                "velocity": 127,
                "duration": 0.3340909,
                "tempo": 120.0
            },
            {
                "start_time": 89.6386364,
                "end_time": 89.7068182,
                "pitch": 83,
                "velocity": 127,
                "duration": 0.0681818,
                "tempo": 120.0
            },
            {
                "start_time": 89.7068182,
                "end_time": 89.9068182,
                "pitch": 84,
                "velocity": 127,
                "duration": 0.2,
                "tempo": 120.0
            },
            {
                "start_time": 89.9068182,
                "end_time": 90.3113636,
                "pitch": 83,
                "velocity": 127,
                "duration": 0.4045455,
                "tempo": 120.0
            },
            {
                "start_time": 89.7068182,
                "end_time": 90.5181818,
                "pitch": 68,
                "velocity": 127,
                "duration": 0.8113636,
                "tempo": 120.0
            },
            {
                "start_time": 90.3136364,
                "end_time": 90.5181818,
                "pitch": 83,
                "velocity": 127,
                "duration": 0.2045455,
                "tempo": 120.0
            },
            {
                "start_time": 90.5181818,
                "end_time": 90.7181818,
                "pitch": 84,
                "velocity": 127,
                "duration": 0.2,
                "tempo": 120.0
            },
            {
                "start_time": 90.7181818,
                "end_time": 91.1204545,
                "pitch": 86,
                "velocity": 127,
                "duration": 0.4022727,
                "tempo": 120.0
            },
            {
                "start_time": 91.1204545,
                "end_time": 91.3227273,
                "pitch": 86,
                "velocity": 127,
                "duration": 0.2022727,
                "tempo": 120.0
            },
            {
                "start_time": 89.9068182,
                "end_time": 91.5227273,
                "pitch": 88,
                "velocity": 127,
                "duration": 1.6159091,
                "tempo": 120.0
            },
            {
                "start_time": 91.3227273,
                "end_time": 91.5227273,
                "pitch": 88,
                "velocity": 127,
                "duration": 0.2,
                "tempo": 120.0
            },
            {
                "start_time": 91.525,
                "end_time": 91.725,
                "pitch": 91,
                "velocity": 127,
                "duration": 0.2,
                "tempo": 120.0
            },
            {
                "start_time": 71.7886364,
                "end_time": 172.2795455,
                "pitch": 60,
                "velocity": 127,
                "duration": 100.4909091,
                "tempo": 120.0
            },
            {
                "start_time": 172.2795455,
                "end_time": 172.6795455,
                "pitch": 65,
                "velocity": 127,
                "duration": 0.4,
                "tempo": 120.0
            },
            {
                "start_time": 172.6818182,
                "end_time": 172.8772727,
                "pitch": 65,
                "velocity": 127,
                "duration": 0.1954545,
                "tempo": 120.0
            },
            {
                "start_time": 172.8772727,
                "end_time": 173.0727273,
                "pitch": 64,
                "velocity": 127,
                "duration": 0.1954545,
                "tempo": 120.0
            },
            {
                "start_time": 173.2795455,
                "end_time": 173.4840909,
                "pitch": 65,
                "velocity": 127,
                "duration": 0.2045455,
                "tempo": 120.0
            },
            {
                "start_time": 72.1909091,
                "end_time": 173.6840909,
                "pitch": 78,
                "velocity": 127,
                "duration": 101.4931818,
                "tempo": 120.0
            },
            {
                "start_time": 173.6840909,
                "end_time": 174.1363636,
                "pitch": 67,
                "velocity": 127,
                "duration": 0.4522727,
                "tempo": 120.0
            },
            {
                "start_time": 174.1363636,
                "end_time": 174.2704545,
                "pitch": 67,
                "velocity": 127,
                "duration": 0.1340909,
                "tempo": 120.0
            },
            {
                "start_time": 174.1363636,
                "end_time": 174.2704545,
                "pitch": 79,
                "velocity": 127,
                "duration": 0.1340909,
                "tempo": 120.0
            },
            {
                "start_time": 174.2704545,
                "end_time": 174.2886364,
                "pitch": 67,
                "velocity": 127,
                "duration": 0.0181818,
                "tempo": 120.0
            },
            {
                "start_time": 174.6818182,
                "end_time": 174.8863636,
                "pitch": 65,
                "velocity": 127,
                "duration": 0.2045455,
                "tempo": 120.0
            },
            {
                "start_time": 175.0931818,
                "end_time": 175.2931818,
                "pitch": 64,
                "velocity": 127,
                "duration": 0.2,
                "tempo": 120.0
            },
            {
                "start_time": 175.4954545,
                "end_time": 176.3,
                "pitch": 65,
                "velocity": 127,
                "duration": 0.8045455,
                "tempo": 120.0
            },
            {
                "start_time": 71.9886364,
                "end_time": 176.5045455,
                "pitch": 62,
                "velocity": 127,
                "duration": 104.5159091,
                "tempo": 120.0
            },
            {
                "start_time": 176.3,
                "end_time": 176.5045455,
                "pitch": 62,
                "velocity": 127,
                "duration": 0.2045455,
                "tempo": 120.0
            },
            {
                "start_time": 176.3,
                "end_time": 176.7113636,
                "pitch": 64,
                "velocity": 127,
                "duration": 0.4113636,
                "tempo": 120.0
            },
            {
                "start_time": 176.5045455,
                "end_time": 176.7113636,
                "pitch": 64,
                "velocity": 127,
                "duration": 0.2068182,
                "tempo": 120.0
            },
            {
                "start_time": 176.5045455,
                "end_time": 176.9068182,
                "pitch": 62,
                "velocity": 127,
                "duration": 0.4022727,
                "tempo": 120.0
            },
            {
                "start_time": 176.7113636,
                "end_time": 176.9068182,
                "pitch": 62,
                "velocity": 127,
                "duration": 0.1954545,
                "tempo": 120.0
            },
            {
                "start_time": 172.2795455,
                "end_time": 177.9181818,
                "pitch": 60,
                "velocity": 127,
                "duration": 5.6386364,
                "tempo": 120.0
            },
            {
                "start_time": 176.9068182,
                "end_time": 177.9181818,
                "pitch": 60,
                "velocity": 127,
                "duration": 1.0113636,
                "tempo": 120.0
            },
            {
                "start_time": 176.9068182,
                "end_time": 178.3204545,
                "pitch": 62,
                "velocity": 127,
                "duration": 1.4136364,
                "tempo": 120.0
            },
            {
                "start_time": 178.1204545,
                "end_time": 178.3204545,
                "pitch": 62,
                "velocity": 127,
                "duration": 0.2,
                "tempo": 120.0
            },
            {
                "start_time": 176.7113636,
                "end_time": 178.5181818,
                "pitch": 64,
                "velocity": 127,
                "duration": 1.8068182,
                "tempo": 120.0
            },
            {
                "start_time": 178.3204545,
                "end_time": 178.5181818,
                "pitch": 64,
                "velocity": 127,
                "duration": 0.1977273,
                "tempo": 120.0
            },
            {
                "start_time": 173.6840909,
                "end_time": 178.5181818,
                "pitch": 78,
                "velocity": 127,
                "duration": 4.8340909,
                "tempo": 120.0
            },
            {
                "start_time": 178.5181818,
                "end_time": 178.7136364,
                "pitch": 67,
                "velocity": 127,
                "duration": 0.1954545,
                "tempo": 120.0
            },
            {
                "start_time": 178.7136364,
                "end_time": 178.9181818,
                "pitch": 67,
                "velocity": 127,
                "duration": 0.2045455,
                "tempo": 120.0
            },
            {
                "start_time": 178.9204545,
                "end_time": 179.125,
                "pitch": 69,
                "velocity": 127,
                "duration": 0.2045455,
                "tempo": 120.0
            },
            {
                "start_time": 90.5181818,
                "end_time": 179.3204545,
                "pitch": 68,
                "velocity": 127,
                "duration": 88.8022727,
                "tempo": 120.0
            },
            {
                "start_time": 179.125,
                "end_time": 179.3204545,
                "pitch": 68,
                "velocity": 127,
                "duration": 0.1954545,
                "tempo": 120.0
            },
            {
                "start_time": 179.3204545,
                "end_time": 179.5181818,
                "pitch": 69,
                "velocity": 127,
                "duration": 0.1977273,
                "tempo": 120.0
            },
            {
                "start_time": 179.5181818,
                "end_time": 179.7181818,
                "pitch": 68,
                "velocity": 127,
                "duration": 0.2,
                "tempo": 120.0
            },
            {
                "start_time": 179.7181818,
                "end_time": 179.9181818,
                "pitch": 69,
                "velocity": 127,
                "duration": 0.2,
                "tempo": 120.0
            }
        ],
        "Acoustic Grand Piano": [
            {
                "start_time": 65.9613636,
                "end_time": 66.1613636,
                "pitch": 53,
                "velocity": 40,
                "duration": 0.2,
                "tempo": 120.0
            },
            {
                "start_time": 66.1613636,
                "end_time": 66.3613636,
                "pitch": 53,
                "velocity": 40,
                "duration": 0.2,
                "tempo": 120.0
            },
            {
                "start_time": 67.5659091,
                "end_time": 67.7681818,
                "pitch": 53,
                "velocity": 40,
                "duration": 0.2022727,
                "tempo": 120.0
            },
            {
                "start_time": 67.7681818,
                "end_time": 67.9681818,
                "pitch": 53,
                "velocity": 40,
                "duration": 0.2,
                "tempo": 120.0
            },
            {
                "start_time": 65.9613636,
                "end_time": 69.375,
                "pitch": 48,
                "velocity": 40,
                "duration": 3.4136364,
                "tempo": 120.0
            },
            {
                "start_time": 69.175,
                "end_time": 69.375,
                "pitch": 48,
                "velocity": 40,
                "duration": 0.2,
                "tempo": 120.0
            },
            {
                "start_time": 69.3772727,
                "end_time": 69.5772727,
                "pitch": 48,
                "velocity": 40,
                "duration": 0.2,
                "tempo": 120.0
            },
            {
                "start_time": 69.5772727,
                "end_time": 69.7772727,
                "pitch": 52,
                "velocity": 40,
                "duration": 0.2,
                "tempo": 120.0
            },
            {
                "start_time": 69.7795455,
                "end_time": 69.9795455,
                "pitch": 55,
                "velocity": 40,
                "duration": 0.2,
                "tempo": 120.0
            },
            {
                "start_time": 69.9795455,
                "end_time": 70.1795455,
                "pitch": 58,
                "velocity": 40,
                "duration": 0.2,
                "tempo": 120.0
            },
            {
                "start_time": 70.1795455,
                "end_time": 70.1818182,
                "pitch": 38,
                "velocity": 40,
                "duration": 0.0022727,
                "tempo": 120.0
            },
            {
                "start_time": 70.1818182,
                "end_time": 70.7818182,
                "pitch": 60,
                "velocity": 40,
                "duration": 0.6,
                "tempo": 120.0
            },
            {
                "start_time": 69.5772727,
                "end_time": 70.9840909,
                "pitch": 48,
                "velocity": 40,
                "duration": 1.4068182,
                "tempo": 120.0
            },
            {
                "start_time": 70.7818182,
                "end_time": 70.9840909,
                "pitch": 48,
                "velocity": 40,
                "duration": 0.2022727,
                "tempo": 120.0
            },
            {
                "start_time": 70.9840909,
                "end_time": 71.1863636,
                "pitch": 48,
                "velocity": 40,
                "duration": 0.2022727,
                "tempo": 120.0
            },
            {
                "start_time": 71.1863636,
                "end_time": 71.3863636,
                "pitch": 52,
                "velocity": 40,
                "duration": 0.2,
                "tempo": 120.0
            },
            {
                "start_time": 69.7795455,
                "end_time": 71.3863636,
                "pitch": 66,
                "velocity": 40,
                "duration": 1.6068182,
                "tempo": 120.0
            },
            {
                "start_time": 69.9795455,
                "end_time": 71.5886364,
                "pitch": 55,
                "velocity": 40,
                "duration": 1.6090909,
                "tempo": 120.0
            },
            {
                "start_time": 71.3863636,
                "end_time": 71.5886364,
                "pitch": 55,
                "velocity": 40,
                "duration": 0.2022727,
                "tempo": 120.0
            },
            {
                "start_time": 71.5886364,
                "end_time": 71.7886364,
                "pitch": 58,
                "velocity": 40,
                "duration": 0.2,
                "tempo": 120.0
            },
            {
                "start_time": 71.1863636,
                "end_time": 72.3931818,
                "pitch": 48,
                "velocity": 40,
                "duration": 1.2068182,
                "tempo": 120.0
            },
            {
                "start_time": 71.7886364,
                "end_time": 72.3931818,
                "pitch": 60,
                "velocity": 40,
                "duration": 0.6045455,
                "tempo": 120.0
            },
            {
                "start_time": 69.175,
                "end_time": 72.5977273,
                "pitch": 53,
                "velocity": 40,
                "duration": 3.4227273,
                "tempo": 120.0
            },
            {
                "start_time": 72.3931818,
                "end_time": 72.5977273,
                "pitch": 53,
                "velocity": 40,
                "duration": 0.2045455,
                "tempo": 120.0
            },
            {
                "start_time": 72.5977273,
                "end_time": 72.8045455,
                "pitch": 53,
                "velocity": 40,
                "duration": 0.2068182,
                "tempo": 120.0
            },
            {
                "start_time": 74.0,
                "end_time": 74.2068182,
                "pitch": 53,
                "velocity": 40,
                "duration": 0.2068182,
                "tempo": 120.0
            },
            {
                "start_time": 74.2068182,
                "end_time": 74.4113636,
                "pitch": 53,
                "velocity": 40,
                "duration": 0.2045455,
                "tempo": 120.0
            },
            {
                "start_time": 72.3931818,
                "end_time": 75.8090909,
                "pitch": 48,
                "velocity": 40,
                "duration": 3.4159091,
                "tempo": 120.0
            },
            {
                "start_time": 75.6090909,
                "end_time": 75.8090909,
                "pitch": 48,
                "velocity": 40,
                "duration": 0.2,
                "tempo": 120.0
            },
            {
                "start_time": 75.8090909,
                "end_time": 76.0090909,
                "pitch": 48,
                "velocity": 40,
                "duration": 0.2,
                "tempo": 120.0
            },
            {
                "start_time": 76.0090909,
                "end_time": 76.2136364,
                "pitch": 52,
                "velocity": 40,
                "duration": 0.2045455,
                "tempo": 120.0
            },
            {
                "start_time": 76.2136364,
                "end_time": 76.4204545,
                "pitch": 52,
                "velocity": 40,
                "duration": 0.2068182,
                "tempo": 120.0
            },
            {
                "start_time": 76.4204545,
                "end_time": 76.6227273,
                "pitch": 52,
                "velocity": 40,
                "duration": 0.2022727,
                "tempo": 120.0
            },
            {
                "start_time": 75.6090909,
                "end_time": 76.8227273,
                "pitch": 53,
                "velocity": 40,
                "duration": 1.2136364,
                "tempo": 120.0
            },
            {
                "start_time": 76.6227273,
                "end_time": 76.8227273,
                "pitch": 53,
                "velocity": 40,
                "duration": 0.2,
                "tempo": 120.0
            },
            {
                "start_time": 76.8227273,
                "end_time": 77.0204545,
                "pitch": 53,
                "velocity": 40,
                "duration": 0.1977273,
                "tempo": 120.0
            },
            {
                "start_time": 71.3863636,
                "end_time": 77.0204545,
                "pitch": 66,
                "velocity": 40,
                "duration": 5.6340909,
                "tempo": 120.0
            },
            {
                "start_time": 71.5886364,
                "end_time": 77.4181818,
                "pitch": 55,
                "velocity": 40,
                "duration": 5.8295455,
                "tempo": 120.0
            },
            {
                "start_time": 77.0204545,
                "end_time": 77.4181818,
                "pitch": 55,
                "velocity": 40,
                "duration": 0.3977273,
                "tempo": 120.0
            },
            {
                "start_time": 77.4181818,
                "end_time": 77.6181818,
                "pitch": 55,
                "velocity": 40,
                "duration": 0.2,
                "tempo": 120.0
            },
            {
                "start_time": 77.825,
                "end_time": 78.0295455,
                "pitch": 60,
                "velocity": 40,
                "duration": 0.2045455,
                "tempo": 120.0
            },
            {
                "start_time": 78.0318182,
                "end_time": 78.2318182,
                "pitch": 62,
                "velocity": 40,
                "duration": 0.2,
                "tempo": 120.0
            },
            {
                "start_time": 78.2318182,
                "end_time": 78.4318182,
                "pitch": 62,
                "velocity": 40,
                "duration": 0.2,
                "tempo": 120.0
            },
            {
                "start_time": 78.4318182,
                "end_time": 78.6318182,
                "pitch": 62,
                "velocity": 40,
                "duration": 0.2,
                "tempo": 120.0
            },
            {
                "start_time": 78.6340909,
                "end_time": 78.8340909,
                "pitch": 63,
                "velocity": 40,
                "duration": 0.2,
                "tempo": 120.0
            },
            {
                "start_time": 78.8363636,
                "end_time": 79.0363636,
                "pitch": 52,
                "velocity": 40,
                "duration": 0.2,
                "tempo": 120.0
            },
            {
                "start_time": 79.0363636,
                "end_time": 79.2363636,
                "pitch": 53,
                "velocity": 40,
                "duration": 0.2,
                "tempo": 120.0
            },
            {
                "start_time": 80.4431818,
                "end_time": 80.6431818,
                "pitch": 53,
                "velocity": 40,
                "duration": 0.2,
                "tempo": 120.0
            },
            {
                "start_time": 80.6431818,
                "end_time": 80.8454545,
                "pitch": 53,
                "velocity": 40,
                "duration": 0.2022727,
                "tempo": 120.0
            },
            {
                "start_time": 76.0090909,
                "end_time": 82.2522727,
                "pitch": 48,
                "velocity": 40,
                "duration": 6.2431818,
                "tempo": 120.0
            },
            {
                "start_time": 82.0522727,
                "end_time": 82.2522727,
                "pitch": 48,
                "velocity": 40,
                "duration": 0.2,
                "tempo": 120.0
            },
            {
                "start_time": 82.2522727,
                "end_time": 82.4522727,
                "pitch": 48,
                "velocity": 40,
                "duration": 0.2,
                "tempo": 120.0
            },
            {
                "start_time": 82.4545455,
                "end_time": 82.6545455,
                "pitch": 52,
                "velocity": 40,
                "duration": 0.2,
                "tempo": 120.0
            },
            {
                "start_time": 77.0204545,
                "end_time": 82.6545455,
                "pitch": 66,
                "velocity": 40,
                "duration": 5.6340909,
                "tempo": 120.0
            },
            {
                "start_time": 82.6545455,
                "end_time": 82.8568182,
                "pitch": 55,
                "velocity": 40,
                "duration": 0.2022727,
                "tempo": 120.0
            },
            {
                "start_time": 71.7886364,
                "end_time": 83.0590909,
                "pitch": 38,
                "velocity": 40,
                "duration": 11.2704545,
                "tempo": 120.0
            },
            {
                "start_time": 82.8568182,
                "end_time": 83.0590909,
                "pitch": 58,
                "velocity": 40,
                "duration": 0.2022727,
                "tempo": 120.0
            },
            {
                "start_time": 78.0318182,
                "end_time": 83.6590909,
                "pitch": 60,
                "velocity": 40,
                "duration": 5.6272727,
                "tempo": 120.0
            },
            {
                "start_time": 83.0590909,
                "end_time": 83.6590909,
                "pitch": 60,
                "velocity": 40,
                "duration": 0.6,
                "tempo": 120.0
            },
            {
                "start_time": 82.4545455,
                "end_time": 83.8659091,
                "pitch": 48,
                "velocity": 40,
                "duration": 1.4113636,
                "tempo": 120.0
            },
            {
                "start_time": 83.6613636,
                "end_time": 83.8659091,
                "pitch": 48,
                "velocity": 40,
                "duration": 0.2045455,
                "tempo": 120.0
            },
            {
                "start_time": 83.8659091,
                "end_time": 84.0704545,
                "pitch": 48,
                "velocity": 40,
                "duration": 0.2045455,
                "tempo": 120.0
            },
            {
                "start_time": 84.0727273,
                "end_time": 84.2727273,
                "pitch": 52,
                "velocity": 40,
                "duration": 0.2,
                "tempo": 120.0
            },
            {
                "start_time": 82.6545455,
                "end_time": 84.2727273,
                "pitch": 66,
                "velocity": 40,
                "duration": 1.6181818,
                "tempo": 120.0
            },
            {
                "start_time": 82.8568182,
                "end_time": 84.475,
                "pitch": 55,
                "velocity": 40,
                "duration": 1.6181818,
                "tempo": 120.0
            },
            {
                "start_time": 84.2727273,
                "end_time": 84.475,
                "pitch": 55,
                "velocity": 40,
                "duration": 0.2022727,
                "tempo": 120.0
            },
            {
                "start_time": 83.0590909,
                "end_time": 84.6772727,
                "pitch": 38,
                "velocity": 40,
                "duration": 1.6181818,
                "tempo": 120.0
            },
            {
                "start_time": 84.475,
                "end_time": 84.6772727,
                "pitch": 58,
                "velocity": 40,
                "duration": 0.2022727,
                "tempo": 120.0
            },
            {
                "start_time": 84.6772727,
                "end_time": 85.2704545,
                "pitch": 60,
                "velocity": 40,
                "duration": 0.5931818,
                "tempo": 120.0
            },
            {
                "start_time": 84.0727273,
                "end_time": 85.4590909,
                "pitch": 48,
                "velocity": 40,
                "duration": 1.3863636,
                "tempo": 120.0
            },
            {
                "start_time": 85.2727273,
                "end_time": 85.4590909,
                "pitch": 48,
                "velocity": 32,
                "duration": 0.1863636,
                "tempo": 120.0
            },
            {
                "start_time": 85.4772727,
                "end_time": 85.5613636,
                "pitch": 48,
                "velocity": 32,
                "duration": 0.0840909,
                "tempo": 120.0
            },
            {
                "start_time": 85.5795455,
                "end_time": 85.6636364,
                "pitch": 48,
                "velocity": 32,
                "duration": 0.0840909,
                "tempo": 120.0
            },
            {
                "start_time": 85.6818182,
                "end_time": 85.8659091,
                "pitch": 48,
                "velocity": 32,
                "duration": 0.1840909,
                "tempo": 120.0
            },
            {
                "start_time": 85.8818182,
                "end_time": 85.9659091,
                "pitch": 48,
                "velocity": 32,
                "duration": 0.0840909,
                "tempo": 120.0
            },
            {
                "start_time": 85.9818182,
                "end_time": 86.0659091,
                "pitch": 48,
                "velocity": 32,
                "duration": 0.0840909,
                "tempo": 120.0
            },
            {
                "start_time": 86.0840909,
                "end_time": 86.2659091,
                "pitch": 48,
                "velocity": 32,
                "duration": 0.1818182,
                "tempo": 120.0
            },
            {
                "start_time": 86.2840909,
                "end_time": 86.3681818,
                "pitch": 48,
                "velocity": 32,
                "duration": 0.0840909,
                "tempo": 120.0
            },
            {
                "start_time": 86.3840909,
                "end_time": 86.4681818,
                "pitch": 48,
                "velocity": 32,
                "duration": 0.0840909,
                "tempo": 120.0
            },
            {
                "start_time": 86.4863636,
                "end_time": 86.6727273,
                "pitch": 48,
                "velocity": 32,
                "duration": 0.1863636,
                "tempo": 120.0
            },
            {
                "start_time": 86.6909091,
                "end_time": 86.7772727,
                "pitch": 48,
                "velocity": 32,
                "duration": 0.0863636,
                "tempo": 120.0
            },
            {
                "start_time": 86.7931818,
                "end_time": 86.8795455,
                "pitch": 48,
                "velocity": 32,
                "duration": 0.0863636,
                "tempo": 120.0
            },
            {
                "start_time": 86.8977273,
                "end_time": 87.0818182,
                "pitch": 48,
                "velocity": 32,
                "duration": 0.1840909,
                "tempo": 120.0
            },
            {
                "start_time": 87.1,
                "end_time": 87.1818182,
                "pitch": 48,
                "velocity": 32,
                "duration": 0.0818182,
                "tempo": 120.0
            },
            {
                "start_time": 87.2,
                "end_time": 87.2840909,
                "pitch": 48,
                "velocity": 32,
                "duration": 0.0840909,
                "tempo": 120.0
            },
            {
                "start_time": 87.3022727,
                "end_time": 87.4840909,
                "pitch": 48,
                "velocity": 32,
                "duration": 0.1818182,
                "tempo": 120.0
            },
            {
                "start_time": 87.5022727,
                "end_time": 87.5863636,
                "pitch": 48,
                "velocity": 32,
                "duration": 0.0840909,
                "tempo": 120.0
            },
            {
                "start_time": 87.6022727,
                "end_time": 87.6863636,
                "pitch": 48,
                "velocity": 32,
                "duration": 0.0840909,
                "tempo": 120.0
            },
            {
                "start_time": 87.7045455,
                "end_time": 87.8840909,
                "pitch": 48,
                "velocity": 32,
                "duration": 0.1795455,
                "tempo": 120.0
            },
            {
                "start_time": 87.9,
                "end_time": 87.9818182,
                "pitch": 48,
                "velocity": 32,
                "duration": 0.0818182,
                "tempo": 120.0
            },
            {
                "start_time": 87.9977273,
                "end_time": 88.0795455,
                "pitch": 48,
                "velocity": 32,
                "duration": 0.0818182,
                "tempo": 120.0
            },
            {
                "start_time": 88.0977273,
                "end_time": 88.2795455,
                "pitch": 48,
                "velocity": 32,
                "duration": 0.1818182,
                "tempo": 120.0
            },
            {
                "start_time": 88.2977273,
                "end_time": 88.3818182,
                "pitch": 48,
                "velocity": 32,
                "duration": 0.0840909,
                "tempo": 120.0
            },
            {
                "start_time": 88.4,
                "end_time": 88.4818182,
                "pitch": 48,
                "velocity": 32,
                "duration": 0.0818182,
                "tempo": 120.0
            },
            {
                "start_time": 88.5,
                "end_time": 88.6840909,
                "pitch": 50,
                "velocity": 32,
                "duration": 0.1840909,
                "tempo": 120.0
            },
            {
                "start_time": 88.7022727,
                "end_time": 88.7840909,
                "pitch": 50,
                "velocity": 32,
                "duration": 0.0818182,
                "tempo": 120.0
            },
            {
                "start_time": 88.8022727,
                "end_time": 88.8863636,
                "pitch": 50,
                "velocity": 32,
                "duration": 0.0840909,
                "tempo": 120.0
            },
            {
                "start_time": 88.9045455,
                "end_time": 89.0863636,
                "pitch": 50,
                "velocity": 32,
                "duration": 0.1818182,
                "tempo": 120.0
            },
            {
                "start_time": 89.1022727,
                "end_time": 89.1863636,
                "pitch": 50,
                "velocity": 32,
                "duration": 0.0840909,
                "tempo": 120.0
            },
            {
                "start_time": 89.2022727,
                "end_time": 89.2863636,
                "pitch": 50,
                "velocity": 32,
                "duration": 0.0840909,
                "tempo": 120.0
            },
            {
                "start_time": 89.3045455,
                "end_time": 89.4886364,
                "pitch": 50,
                "velocity": 32,
                "duration": 0.1840909,
                "tempo": 120.0
            },
            {
                "start_time": 89.5045455,
                "end_time": 89.5886364,
                "pitch": 50,
                "velocity": 32,
                "duration": 0.0840909,
                "tempo": 120.0
            },
            {
                "start_time": 89.6045455,
                "end_time": 89.6886364,
                "pitch": 50,
                "velocity": 32,
                "duration": 0.0840909,
                "tempo": 120.0
            },
            {
                "start_time": 89.7068182,
                "end_time": 89.8886364,
                "pitch": 50,
                "velocity": 32,
                "duration": 0.1818182,
                "tempo": 120.0
            },
            {
                "start_time": 89.9068182,
                "end_time": 89.9886364,
                "pitch": 50,
                "velocity": 32,
                "duration": 0.0818182,
                "tempo": 120.0
            },
            {
                "start_time": 90.0068182,
                "end_time": 90.0909091,
                "pitch": 50,
                "velocity": 32,
                "duration": 0.0840909,
                "tempo": 120.0
            },
            {
                "start_time": 90.1068182,
                "end_time": 90.2954545,
                "pitch": 50,
                "velocity": 32,
                "duration": 0.1886364,
                "tempo": 120.0
            },
            {
                "start_time": 90.3136364,
                "end_time": 90.3977273,
                "pitch": 50,
                "velocity": 32,
                "duration": 0.0840909,
                "tempo": 120.0
            },
            {
                "start_time": 90.4159091,
                "end_time": 90.5,
                "pitch": 50,
                "velocity": 32,
                "duration": 0.0840909,
                "tempo": 120.0
            },
            {
                "start_time": 90.5181818,
                "end_time": 90.7022727,
                "pitch": 50,
                "velocity": 32,
                "duration": 0.1840909,
                "tempo": 120.0
            },
            {
                "start_time": 90.7204545,
                "end_time": 90.8022727,
                "pitch": 50,
                "velocity": 32,
                "duration": 0.0818182,
                "tempo": 120.0
            },
            {
                "start_time": 90.8181818,
                "end_time": 90.9022727,
                "pitch": 50,
                "velocity": 32,
                "duration": 0.0840909,
                "tempo": 120.0
            },
            {
                "start_time": 88.5,
                "end_time": 172.2795455,
                "pitch": 48,
                "velocity": 32,
                "duration": 83.7795455,
                "tempo": 120.0
            },
            {
                "start_time": 82.0522727,
                "end_time": 172.4795455,
                "pitch": 53,
                "velocity": 40,
                "duration": 90.4272727,
                "tempo": 120.0
            },
            {
                "start_time": 172.2795455,
                "end_time": 172.4795455,
                "pitch": 53,
                "velocity": 40,
                "duration": 0.2,
                "tempo": 120.0
            },
            {
                "start_time": 172.4795455,
                "end_time": 172.6818182,
                "pitch": 53,
                "velocity": 40,
                "duration": 0.2022727,
                "tempo": 120.0
            },
            {
                "start_time": 173.8863636,
                "end_time": 174.0863636,
                "pitch": 53,
                "velocity": 40,
                "duration": 0.2,
                "tempo": 120.0
            },
            {
                "start_time": 174.0863636,
                "end_time": 174.2886364,
                "pitch": 53,
                "velocity": 40,
                "duration": 0.2022727,
                "tempo": 120.0
            },
            {
                "start_time": 172.2795455,
                "end_time": 175.6954545,
                "pitch": 48,
                "velocity": 40,
                "duration": 3.4159091,
                "tempo": 120.0
            },
            {
                "start_time": 175.4977273,
                "end_time": 175.6954545,
                "pitch": 48,
                "velocity": 40,
                "duration": 0.1977273,
                "tempo": 120.0
            },
            {
                "start_time": 175.6954545,
                "end_time": 175.8954545,
                "pitch": 48,
                "velocity": 40,
                "duration": 0.2,
                "tempo": 120.0
            },
            {
                "start_time": 175.8977273,
                "end_time": 176.0977273,
                "pitch": 52,
                "velocity": 40,
                "duration": 0.2,
                "tempo": 120.0
            },
            {
                "start_time": 84.2727273,
                "end_time": 176.0977273,
                "pitch": 66,
                "velocity": 40,
                "duration": 91.825,
                "tempo": 120.0
            },
            {
                "start_time": 84.475,
                "end_time": 176.3,
                "pitch": 55,
                "velocity": 40,
                "duration": 91.825,
                "tempo": 120.0
            },
            {
                "start_time": 176.0977273,
                "end_time": 176.3,
                "pitch": 55,
                "velocity": 40,
                "duration": 0.2022727,
                "tempo": 120.0
            },
            {
                "start_time": 176.3,
                "end_time": 176.5045455,
                "pitch": 58,
                "velocity": 40,
                "duration": 0.2045455,
                "tempo": 120.0
            },
            {
                "start_time": 84.6772727,
                "end_time": 176.5068182,
                "pitch": 38,
                "velocity": 40,
                "duration": 91.8295455,
                "tempo": 120.0
            },
            {
                "start_time": 176.5068182,
                "end_time": 177.1045455,
                "pitch": 60,
                "velocity": 40,
                "duration": 0.5977273,
                "tempo": 120.0
            },
            {
                "start_time": 175.8977273,
                "end_time": 177.3090909,
                "pitch": 48,
                "velocity": 40,
                "duration": 1.4113636,
                "tempo": 120.0
            },
            {
                "start_time": 177.1045455,
                "end_time": 177.3090909,
                "pitch": 48,
                "velocity": 40,
                "duration": 0.2045455,
                "tempo": 120.0
            },
            {
                "start_time": 177.3090909,
                "end_time": 177.5159091,
                "pitch": 48,
                "velocity": 40,
                "duration": 0.2068182,
                "tempo": 120.0
            },
            {
                "start_time": 177.5159091,
                "end_time": 177.7159091,
                "pitch": 52,
                "velocity": 40,
                "duration": 0.2,
                "tempo": 120.0
            },
            {
                "start_time": 176.0977273,
                "end_time": 177.7159091,
                "pitch": 66,
                "velocity": 40,
                "duration": 1.6181818,
                "tempo": 120.0
            },
            {
                "start_time": 176.3,
                "end_time": 177.9181818,
                "pitch": 55,
                "velocity": 40,
                "duration": 1.6181818,
                "tempo": 120.0
            },
            {
                "start_time": 177.7159091,
                "end_time": 177.9181818,
                "pitch": 55,
                "velocity": 40,
                "duration": 0.2022727,
                "tempo": 120.0
            },
            {
                "start_time": 176.5068182,
                "end_time": 178.1204545,
                "pitch": 38,
                "velocity": 40,
                "duration": 1.6136364,
                "tempo": 120.0
            },
            {
                "start_time": 177.9181818,
                "end_time": 178.1204545,
                "pitch": 58,
                "velocity": 40,
                "duration": 0.2022727,
                "tempo": 120.0
            },
            {
                "start_time": 178.1204545,
                "end_time": 178.7136364,
                "pitch": 60,
                "velocity": 40,
                "duration": 0.5931818,
                "tempo": 120.0
            },
            {
                "start_time": 177.5159091,
                "end_time": 178.7159091,
                "pitch": 48,
                "velocity": 40,
                "duration": 1.2,
                "tempo": 120.0
            },
            {
                "start_time": 175.4977273,
                "end_time": 178.9204545,
                "pitch": 53,
                "velocity": 40,
                "duration": 3.4227273,
                "tempo": 120.0
            },
            {
                "start_time": 178.7159091,
                "end_time": 178.9204545,
                "pitch": 53,
                "velocity": 40,
                "duration": 0.2045455,
                "tempo": 120.0
            },
            {
                "start_time": 178.9204545,
                "end_time": 179.125,
                "pitch": 53,
                "velocity": 40,
                "duration": 0.2045455,
                "tempo": 120.0
            }
        ],
        "Violin": [
            {
                "start_time": 91.1227273,
                "end_time": 91.3386364,
                "pitch": 67,
                "velocity": 127,
                "duration": 0.2159091,
                "tempo": 120.0
            },
            {
                "start_time": 91.3386364,
                "end_time": 91.4568182,
                "pitch": 65,
                "velocity": 127,
                "duration": 0.1181818,
                "tempo": 120.0
            },
            {
                "start_time": 91.4568182,
                "end_time": 91.5568182,
                "pitch": 63,
                "velocity": 127,
                "duration": 0.1,
                "tempo": 120.0
            },
            {
                "start_time": 91.5568182,
                "end_time": 91.6409091,
                "pitch": 61,
                "velocity": 127,
                "duration": 0.0840909,
                "tempo": 120.0
            },
            {
                "start_time": 91.6409091,
                "end_time": 91.7090909,
                "pitch": 58,
                "velocity": 127,
                "duration": 0.0681818,
                "tempo": 120.0
            }
        ],
        "Acoustic Guitar (nylon)": [
            {
                "start_time": 0.0090909,
                "end_time": 0.0681818,
                "pitch": 67,
                "velocity": 80,
                "duration": 0.0590909,
                "tempo": 120.0
            },
            {
                "start_time": 0.1045455,
                "end_time": 0.1681818,
                "pitch": 67,
                "velocity": 80,
                "duration": 0.0636364,
                "tempo": 120.0
            },
            {
                "start_time": 0.3045455,
                "end_time": 0.3704545,
                "pitch": 67,
                "velocity": 80,
                "duration": 0.0659091,
                "tempo": 120.0
            },
            {
                "start_time": 0.5045455,
                "end_time": 0.5681818,
                "pitch": 67,
                "velocity": 80,
                "duration": 0.0636364,
                "tempo": 120.0
            },
            {
                "start_time": 0.7,
                "end_time": 0.7636364,
                "pitch": 67,
                "velocity": 80,
                "duration": 0.0636364,
                "tempo": 120.0
            },
            {
                "start_time": 1.0045455,
                "end_time": 1.0704545,
                "pitch": 65,
                "velocity": 80,
                "duration": 0.0659091,
                "tempo": 120.0
            },
            {
                "start_time": 1.2090909,
                "end_time": 1.2727273,
                "pitch": 67,
                "velocity": 80,
                "duration": 0.0636364,
                "tempo": 120.0
            }
        ],
        "Vibraphone": [
            {
                "start_time": 62.9431818,
                "end_time": 63.1386364,
                "pitch": 88,
                "velocity": 51,
                "duration": 0.1954545,
                "tempo": 120.0
            },
            {
                "start_time": 63.1409091,
                "end_time": 63.3409091,
                "pitch": 84,
                "velocity": 51,
                "duration": 0.2,
                "tempo": 120.0
            },
            {
                "start_time": 63.1409091,
                "end_time": 63.3409091,
                "pitch": 88,
                "velocity": 51,
                "duration": 0.2,
                "tempo": 120.0
            },
            {
                "start_time": 63.3409091,
                "end_time": 63.5386364,
                "pitch": 83,
                "velocity": 51,
                "duration": 0.1977273,
                "tempo": 120.0
            },
            {
                "start_time": 63.5409091,
                "end_time": 63.9409091,
                "pitch": 79,
                "velocity": 51,
                "duration": 0.4,
                "tempo": 120.0
            },
            {
                "start_time": 64.1409091,
                "end_time": 64.3409091,
                "pitch": 72,
                "velocity": 51,
                "duration": 0.2,
                "tempo": 120.0
            },
            {
                "start_time": 64.1409091,
                "end_time": 64.3431818,
                "pitch": 76,
                "velocity": 51,
                "duration": 0.2022727,
                "tempo": 120.0
            },
            {
                "start_time": 64.3431818,
                "end_time": 64.5431818,
                "pitch": 71,
                "velocity": 51,
                "duration": 0.2,
                "tempo": 120.0
            },
            {
                "start_time": 64.5431818,
                "end_time": 64.7454545,
                "pitch": 72,
                "velocity": 51,
                "duration": 0.2022727,
                "tempo": 120.0
            },
            {
                "start_time": 64.3431818,
                "end_time": 64.9454545,
                "pitch": 76,
                "velocity": 51,
                "duration": 0.6022727,
                "tempo": 120.0
            },
            {
                "start_time": 64.7454545,
                "end_time": 64.9454545,
                "pitch": 76,
                "velocity": 51,
                "duration": 0.2,
                "tempo": 120.0
            },
            {
                "start_time": 64.9454545,
                "end_time": 65.1454545,
                "pitch": 79,
                "velocity": 51,
                "duration": 0.2,
                "tempo": 120.0
            },
            {
                "start_time": 65.3477273,
                "end_time": 65.5477273,
                "pitch": 77,
                "velocity": 51,
                "duration": 0.2,
                "tempo": 120.0
            },
            {
                "start_time": 65.5477273,
                "end_time": 65.7545455,
                "pitch": 74,
                "velocity": 51,
                "duration": 0.2068182,
                "tempo": 120.0
            },
            {
                "start_time": 64.7454545,
                "end_time": 65.9613636,
                "pitch": 72,
                "velocity": 51,
                "duration": 1.2159091,
                "tempo": 120.0
            },
            {
                "start_time": 65.7545455,
                "end_time": 65.9613636,
                "pitch": 72,
                "velocity": 51,
                "duration": 0.2068182,
                "tempo": 120.0
            },
            {
                "start_time": 65.7545455,
                "end_time": 108.1295455,
                "pitch": 74,
                "velocity": 51,
                "duration": 42.375,
                "tempo": 120.0
            },
            {
                "start_time": 108.0295455,
                "end_time": 108.1295455,
                "pitch": 74,
                "velocity": 51,
                "duration": 0.1,
                "tempo": 120.0
            },
            {
                "start_time": 65.5477273,
                "end_time": 108.1295455,
                "pitch": 76,
                "velocity": 51,
                "duration": 42.5818182,
                "tempo": 120.0
            },
            {
                "start_time": 108.1295455,
                "end_time": 108.2295455,
                "pitch": 72,
                "velocity": 51,
                "duration": 0.1,
                "tempo": 120.0
            },
            {
                "start_time": 108.1295455,
                "end_time": 108.3295455,
                "pitch": 76,
                "velocity": 51,
                "duration": 0.2,
                "tempo": 120.0
            },
            {
                "start_time": 108.2318182,
                "end_time": 108.3295455,
                "pitch": 76,
                "velocity": 51,
                "duration": 0.0977273,
                "tempo": 120.0
            },
            {
                "start_time": 108.3295455,
                "end_time": 108.4295455,
                "pitch": 76,
                "velocity": 51,
                "duration": 0.1,
                "tempo": 120.0
            },
            {
                "start_time": 108.2318182,
                "end_time": 108.5318182,
                "pitch": 72,
                "velocity": 51,
                "duration": 0.3,
                "tempo": 120.0
            },
            {
                "start_time": 108.4318182,
                "end_time": 108.5318182,
                "pitch": 72,
                "velocity": 51,
                "duration": 0.1,
                "tempo": 120.0
            },
            {
                "start_time": 108.4318182,
                "end_time": 108.6318182,
                "pitch": 76,
                "velocity": 51,
                "duration": 0.2,
                "tempo": 120.0
            },
            {
                "start_time": 108.5318182,
                "end_time": 108.6318182,
                "pitch": 76,
                "velocity": 51,
                "duration": 0.1,
                "tempo": 120.0
            },
            {
                "start_time": 108.6340909,
                "end_time": 108.7340909,
                "pitch": 76,
                "velocity": 51,
                "duration": 0.1,
                "tempo": 120.0
            },
            {
                "start_time": 108.7340909,
                "end_time": 108.7363636,
                "pitch": 76,
                "velocity": 51,
                "duration": 0.0022727,
                "tempo": 120.0
            },
            {
                "start_time": 108.5318182,
                "end_time": 108.8386364,
                "pitch": 72,
                "velocity": 51,
                "duration": 0.3068182,
                "tempo": 120.0
            },
            {
                "start_time": 108.7363636,
                "end_time": 108.8386364,
                "pitch": 72,
                "velocity": 51,
                "duration": 0.1022727,
                "tempo": 120.0
            },
            {
                "start_time": 63.3409091,
                "end_time": 108.8386364,
                "pitch": 88,
                "velocity": 51,
                "duration": 45.4977273,
                "tempo": 120.0
            },
            {
                "start_time": 108.8386364,
                "end_time": 108.9409091,
                "pitch": 79,
                "velocity": 51,
                "duration": 0.1022727,
                "tempo": 120.0
            },
            {
                "start_time": 109.0454545,
                "end_time": 109.1454545,
                "pitch": 79,
                "velocity": 51,
                "duration": 0.1,
                "tempo": 120.0
            },
            {
                "start_time": 109.1454545,
                "end_time": 109.2477273,
                "pitch": 79,
                "velocity": 51,
                "duration": 0.1022727,
                "tempo": 120.0
            },
            {
                "start_time": 109.0454545,
                "end_time": 109.3477273,
                "pitch": 89,
                "velocity": 51,
                "duration": 0.3022727,
                "tempo": 120.0
            },
            {
                "start_time": 109.3477273,
                "end_time": 109.4477273,
                "pitch": 79,
                "velocity": 51,
                "duration": 0.1,
                "tempo": 120.0
            },
            {
                "start_time": 109.4477273,
                "end_time": 109.5477273,
                "pitch": 79,
                "velocity": 51,
                "duration": 0.1,
                "tempo": 120.0
            },
            {
                "start_time": 109.65,
                "end_time": 109.7477273,
                "pitch": 77,
                "velocity": 51,
                "duration": 0.0977273,
                "tempo": 120.0
            },
            {
                "start_time": 109.7477273,
                "end_time": 109.85,
                "pitch": 72,
                "velocity": 51,
                "duration": 0.1022727,
                "tempo": 120.0
            },
            {
                "start_time": 109.7477273,
                "end_time": 109.95,
                "pitch": 77,
                "velocity": 51,
                "duration": 0.2022727,
                "tempo": 120.0
            },
            {
                "start_time": 109.85,
                "end_time": 109.95,
                "pitch": 77,
                "velocity": 51,
                "duration": 0.1,
                "tempo": 120.0
            },
            {
                "start_time": 109.95,
                "end_time": 110.0545455,
                "pitch": 77,
                "velocity": 51,
                "duration": 0.1045455,
                "tempo": 120.0
            },
            {
                "start_time": 109.85,
                "end_time": 110.1568182,
                "pitch": 72,
                "velocity": 51,
                "duration": 0.3068182,
                "tempo": 120.0
            },
            {
                "start_time": 110.0545455,
                "end_time": 110.1568182,
                "pitch": 72,
                "velocity": 51,
                "duration": 0.1022727,
                "tempo": 120.0
            },
            {
                "start_time": 110.0545455,
                "end_time": 110.2590909,
                "pitch": 77,
                "velocity": 51,
                "duration": 0.2045455,
                "tempo": 120.0
            },
            {
                "start_time": 110.1568182,
                "end_time": 110.2590909,
                "pitch": 77,
                "velocity": 51,
                "duration": 0.1022727,
                "tempo": 120.0
            },
            {
                "start_time": 110.2590909,
                "end_time": 110.3568182,
                "pitch": 77,
                "velocity": 51,
                "duration": 0.0977273,
                "tempo": 120.0
            },
            {
                "start_time": 110.1568182,
                "end_time": 110.4568182,
                "pitch": 72,
                "velocity": 51,
                "duration": 0.3,
                "tempo": 120.0
            },
            {
                "start_time": 110.3568182,
                "end_time": 110.4568182,
                "pitch": 72,
                "velocity": 51,
                "duration": 0.1,
                "tempo": 120.0
            },
            {
                "start_time": 108.8386364,
                "end_time": 110.4568182,
                "pitch": 88,
                "velocity": 51,
                "duration": 1.6181818,
                "tempo": 120.0
            },
            {
                "start_time": 110.4568182,
                "end_time": 110.5545455,
                "pitch": 79,
                "velocity": 51,
                "duration": 0.0977273,
                "tempo": 120.0
            },
            {
                "start_time": 109.3477273,
                "end_time": 110.6522727,
                "pitch": 89,
                "velocity": 51,
                "duration": 1.3045455,
                "tempo": 120.0
            },
            {
                "start_time": 110.6522727,
                "end_time": 110.7545455,
                "pitch": 79,
                "velocity": 51,
                "duration": 0.1022727,
                "tempo": 120.0
            },
            {
                "start_time": 110.7545455,
                "end_time": 110.8590909,
                "pitch": 79,
                "velocity": 51,
                "duration": 0.1045455,
                "tempo": 120.0
            },
            {
                "start_time": 110.6522727,
                "end_time": 110.9613636,
                "pitch": 89,
                "velocity": 51,
                "duration": 0.3090909,
                "tempo": 120.0
            },
            {
                "start_time": 110.9613636,
                "end_time": 111.0636364,
                "pitch": 79,
                "velocity": 51,
                "duration": 0.1022727,
                "tempo": 120.0
            },
            {
                "start_time": 111.0636364,
                "end_time": 111.1613636,
                "pitch": 79,
                "velocity": 51,
                "duration": 0.0977273,
                "tempo": 120.0
            },
            {
                "start_time": 109.65,
                "end_time": 111.2613636,
                "pitch": 74,
                "velocity": 51,
                "duration": 1.6113636,
                "tempo": 120.0
            },
            {
                "start_time": 111.2613636,
                "end_time": 111.3590909,
                "pitch": 76,
                "velocity": 51,
                "duration": 0.0977273,
                "tempo": 120.0
            },
            {
                "start_time": 111.3590909,
                "end_time": 111.4568182,
                "pitch": 72,
                "velocity": 51,
                "duration": 0.0977273,
                "tempo": 120.0
            },
            {
                "start_time": 111.3590909,
                "end_time": 111.5545455,
                "pitch": 76,
                "velocity": 51,
                "duration": 0.1954545,
                "tempo": 120.0
            },
            {
                "start_time": 111.4568182,
                "end_time": 111.5545455,
                "pitch": 76,
                "velocity": 51,
                "duration": 0.0977273,
                "tempo": 120.0
            },
            {
                "start_time": 111.5545455,
                "end_time": 111.6545455,
                "pitch": 76,
                "velocity": 51,
                "duration": 0.1,
                "tempo": 120.0
            },
            {
                "start_time": 111.4568182,
                "end_time": 111.7545455,
                "pitch": 72,
                "velocity": 51,
                "duration": 0.2977273,
                "tempo": 120.0
            },
            {
                "start_time": 111.6568182,
                "end_time": 111.7545455,
                "pitch": 72,
                "velocity": 51,
                "duration": 0.0977273,
                "tempo": 120.0
            },
            {
                "start_time": 111.6568182,
                "end_time": 111.8568182,
                "pitch": 76,
                "velocity": 51,
                "duration": 0.2,
                "tempo": 120.0
            },
            {
                "start_time": 111.7568182,
                "end_time": 111.8568182,
                "pitch": 76,
                "velocity": 51,
                "duration": 0.1,
                "tempo": 120.0
            },
            {
                "start_time": 111.8568182,
                "end_time": 111.9590909,
                "pitch": 76,
                "velocity": 51,
                "duration": 0.1022727,
                "tempo": 120.0
            },
            {
                "start_time": 111.7568182,
                "end_time": 112.0636364,
                "pitch": 72,
                "velocity": 51,
                "duration": 0.3068182,
                "tempo": 120.0
            },
            {
                "start_time": 111.9590909,
                "end_time": 112.0636364,
                "pitch": 72,
                "velocity": 51,
                "duration": 0.1045455,
                "tempo": 120.0
            },
            {
                "start_time": 110.4568182,
                "end_time": 112.0636364,
                "pitch": 88,
                "velocity": 51,
                "duration": 1.6068182,
                "tempo": 120.0
            },
            {
                "start_time": 112.0636364,
                "end_time": 112.1636364,
                "pitch": 79,
                "velocity": 51,
                "duration": 0.1,
                "tempo": 120.0
            },
            {
                "start_time": 110.9613636,
                "end_time": 112.2681818,
                "pitch": 89,
                "velocity": 51,
                "duration": 1.3068182,
                "tempo": 120.0
            },
            {
                "start_time": 112.2681818,
                "end_time": 112.3681818,
                "pitch": 79,
                "velocity": 51,
                "duration": 0.1,
                "tempo": 120.0
            },
            {
                "start_time": 112.3681818,
                "end_time": 112.4681818,
                "pitch": 79,
                "velocity": 51,
                "duration": 0.1,
                "tempo": 120.0
            },
            {
                "start_time": 112.2681818,
                "end_time": 112.5681818,
                "pitch": 89,
                "velocity": 51,
                "duration": 0.3,
                "tempo": 120.0
            },
            {
                "start_time": 112.5681818,
                "end_time": 112.6681818,
                "pitch": 79,
                "velocity": 51,
                "duration": 0.1,
                "tempo": 120.0
            },
            {
                "start_time": 112.6681818,
                "end_time": 112.7659091,
                "pitch": 79,
                "velocity": 51,
                "duration": 0.0977273,
                "tempo": 120.0
            },
            {
                "start_time": 111.2613636,
                "end_time": 112.8659091,
                "pitch": 74,
                "velocity": 51,
                "duration": 1.6045455,
                "tempo": 120.0
            },
            {
                "start_time": 110.3568182,
                "end_time": 112.9613636,
                "pitch": 77,
                "velocity": 51,
                "duration": 2.6045455,
                "tempo": 120.0
            },
            {
                "start_time": 112.8659091,
                "end_time": 112.9613636,
                "pitch": 77,
                "velocity": 51,
                "duration": 0.0954545,
                "tempo": 120.0
            },
            {
                "start_time": 112.9636364,
                "end_time": 113.0613636,
                "pitch": 72,
                "velocity": 51,
                "duration": 0.0977273,
                "tempo": 120.0
            },
            {
                "start_time": 112.9636364,
                "end_time": 113.1613636,
                "pitch": 77,
                "velocity": 51,
                "duration": 0.1977273,
                "tempo": 120.0
            },
            {
                "start_time": 113.0613636,
                "end_time": 113.1613636,
                "pitch": 77,
                "velocity": 51,
                "duration": 0.1,
                "tempo": 120.0
            },
            {
                "start_time": 113.1613636,
                "end_time": 113.2636364,
                "pitch": 77,
                "velocity": 51,
                "duration": 0.1022727,
                "tempo": 120.0
            },
            {
                "start_time": 113.0613636,
                "end_time": 113.3636364,
                "pitch": 72,
                "velocity": 51,
                "duration": 0.3022727,
                "tempo": 120.0
            },
            {
                "start_time": 113.2636364,
                "end_time": 113.3636364,
                "pitch": 72,
                "velocity": 51,
                "duration": 0.1,
                "tempo": 120.0
            },
            {
                "start_time": 113.2636364,
                "end_time": 113.4636364,
                "pitch": 77,
                "velocity": 51,
                "duration": 0.2,
                "tempo": 120.0
            },
            {
                "start_time": 113.3636364,
                "end_time": 113.4636364,
                "pitch": 77,
                "velocity": 51,
                "duration": 0.1,
                "tempo": 120.0
            },
            {
                "start_time": 113.4636364,
                "end_time": 113.5636364,
                "pitch": 77,
                "velocity": 51,
                "duration": 0.1,
                "tempo": 120.0
            },
            {
                "start_time": 113.3636364,
                "end_time": 113.6659091,
                "pitch": 72,
                "velocity": 51,
                "duration": 0.3022727,
                "tempo": 120.0
            },
            {
                "start_time": 113.5636364,
                "end_time": 113.6659091,
                "pitch": 72,
                "velocity": 51,
                "duration": 0.1022727,
                "tempo": 120.0
            },
            {
                "start_time": 112.0636364,
                "end_time": 113.6659091,
                "pitch": 88,
                "velocity": 51,
                "duration": 1.6022727,
                "tempo": 120.0
            },
            {
                "start_time": 113.6659091,
                "end_time": 113.7659091,
                "pitch": 79,
                "velocity": 51,
                "duration": 0.1,
                "tempo": 120.0
            },
            {
                "start_time": 112.5681818,
                "end_time": 113.8659091,
                "pitch": 89,
                "velocity": 51,
                "duration": 1.2977273,
                "tempo": 120.0
            },
            {
                "start_time": 113.8659091,
                "end_time": 113.9659091,
                "pitch": 79,
                "velocity": 51,
                "duration": 0.1,
                "tempo": 120.0
            },
            {
                "start_time": 113.9659091,
                "end_time": 114.0681818,
                "pitch": 79,
                "velocity": 51,
                "duration": 0.1022727,
                "tempo": 120.0
            },
            {
                "start_time": 113.8659091,
                "end_time": 114.1681818,
                "pitch": 89,
                "velocity": 51,
                "duration": 0.3022727,
                "tempo": 120.0
            },
            {
                "start_time": 114.1681818,
                "end_time": 114.2704545,
                "pitch": 79,
                "velocity": 51,
                "duration": 0.1022727,
                "tempo": 120.0
            },
            {
                "start_time": 114.2704545,
                "end_time": 114.3681818,
                "pitch": 79,
                "velocity": 51,
                "duration": 0.0977273,
                "tempo": 120.0
            },
            {
                "start_time": 112.8659091,
                "end_time": 114.4704545,
                "pitch": 74,
                "velocity": 51,
                "duration": 1.6045455,
                "tempo": 120.0
            },
            {
                "start_time": 111.9590909,
                "end_time": 114.5704545,
                "pitch": 76,
                "velocity": 51,
                "duration": 2.6113636,
                "tempo": 120.0
            },
            {
                "start_time": 114.4704545,
                "end_time": 114.5704545,
                "pitch": 76,
                "velocity": 51,
                "duration": 0.1,
                "tempo": 120.0
            },
            {
                "start_time": 114.5704545,
                "end_time": 114.6727273,
                "pitch": 72,
                "velocity": 51,
                "duration": 0.1022727,
                "tempo": 120.0
            },
            {
                "start_time": 114.5704545,
                "end_time": 114.7704545,
                "pitch": 76,
                "velocity": 51,
                "duration": 0.2,
                "tempo": 120.0
            },
            {
                "start_time": 114.6727273,
                "end_time": 114.7704545,
                "pitch": 76,
                "velocity": 51,
                "duration": 0.0977273,
                "tempo": 120.0
            },
            {
                "start_time": 114.7704545,
                "end_time": 114.8704545,
                "pitch": 76,
                "velocity": 51,
                "duration": 0.1,
                "tempo": 120.0
            },
            {
                "start_time": 114.6727273,
                "end_time": 114.9704545,
                "pitch": 72,
                "velocity": 51,
                "duration": 0.2977273,
                "tempo": 120.0
            },
            {
                "start_time": 114.8704545,
                "end_time": 114.9704545,
                "pitch": 72,
                "velocity": 51,
                "duration": 0.1,
                "tempo": 120.0
            },
            {
                "start_time": 114.8704545,
                "end_time": 115.0727273,
                "pitch": 76,
                "velocity": 51,
                "duration": 0.2022727,
                "tempo": 120.0
            },
            {
                "start_time": 114.9704545,
                "end_time": 115.0727273,
                "pitch": 76,
                "velocity": 51,
                "duration": 0.1022727,
                "tempo": 120.0
            },
            {
                "start_time": 115.0727273,
                "end_time": 115.175,
                "pitch": 76,
                "velocity": 51,
                "duration": 0.1022727,
                "tempo": 120.0
            },
            {
                "start_time": 114.9704545,
                "end_time": 115.2772727,
                "pitch": 72,
                "velocity": 51,
                "duration": 0.3068182,
                "tempo": 120.0
            },
            {
                "start_time": 115.175,
                "end_time": 115.2772727,
                "pitch": 72,
                "velocity": 51,
                "duration": 0.1022727,
                "tempo": 120.0
            },
            {
                "start_time": 113.6659091,
                "end_time": 115.2795455,
                "pitch": 88,
                "velocity": 51,
                "duration": 1.6136364,
                "tempo": 120.0
            },
            {
                "start_time": 115.2795455,
                "end_time": 115.3795455,
                "pitch": 79,
                "velocity": 51,
                "duration": 0.1,
                "tempo": 120.0
            },
            {
                "start_time": 114.1681818,
                "end_time": 115.4840909,
                "pitch": 89,
                "velocity": 51,
                "duration": 1.3159091,
                "tempo": 120.0
            },
            {
                "start_time": 115.4840909,
                "end_time": 115.5795455,
                "pitch": 79,
                "velocity": 51,
                "duration": 0.0954545,
                "tempo": 120.0
            },
            {
                "start_time": 115.5818182,
                "end_time": 115.6795455,
                "pitch": 79,
                "velocity": 51,
                "duration": 0.0977273,
                "tempo": 120.0
            },
            {
                "start_time": 115.4840909,
                "end_time": 115.7772727,
                "pitch": 89,
                "velocity": 51,
                "duration": 0.2931818,
                "tempo": 120.0
            },
            {
                "start_time": 115.7772727,
                "end_time": 115.8772727,
                "pitch": 79,
                "velocity": 51,
                "duration": 0.1,
                "tempo": 120.0
            },
            {
                "start_time": 115.8772727,
                "end_time": 115.9772727,
                "pitch": 79,
                "velocity": 51,
                "duration": 0.1,
                "tempo": 120.0
            },
            {
                "start_time": 114.4704545,
                "end_time": 116.0818182,
                "pitch": 74,
                "velocity": 51,
                "duration": 1.6113636,
                "tempo": 120.0
            },
            {
                "start_time": 113.5636364,
                "end_time": 116.1840909,
                "pitch": 77,
                "velocity": 51,
                "duration": 2.6204545,
                "tempo": 120.0
            },
            {
                "start_time": 116.0818182,
                "end_time": 116.1840909,
                "pitch": 77,
                "velocity": 51,
                "duration": 0.1022727,
                "tempo": 120.0
            },
            {
                "start_time": 116.1840909,
                "end_time": 116.2886364,
                "pitch": 72,
                "velocity": 51,
                "duration": 0.1045455,
                "tempo": 120.0
            },
            {
                "start_time": 116.1840909,
                "end_time": 116.3863636,
                "pitch": 77,
                "velocity": 51,
                "duration": 0.2022727,
                "tempo": 120.0
            },
            {
                "start_time": 116.2886364,
                "end_time": 116.3863636,
                "pitch": 77,
                "velocity": 51,
                "duration": 0.0977273,
                "tempo": 120.0
            },
            {
                "start_time": 116.3886364,
                "end_time": 116.4886364,
                "pitch": 77,
                "velocity": 51,
                "duration": 0.1,
                "tempo": 120.0
            },
            {
                "start_time": 116.2886364,
                "end_time": 116.5863636,
                "pitch": 72,
                "velocity": 51,
                "duration": 0.2977273,
                "tempo": 120.0
            },
            {
                "start_time": 116.4886364,
                "end_time": 116.5863636,
                "pitch": 72,
                "velocity": 51,
                "duration": 0.0977273,
                "tempo": 120.0
            },
            {
                "start_time": 116.4886364,
                "end_time": 116.6863636,
                "pitch": 77,
                "velocity": 51,
                "duration": 0.1977273,
                "tempo": 120.0
            },
            {
                "start_time": 116.5886364,
                "end_time": 116.6863636,
                "pitch": 77,
                "velocity": 51,
                "duration": 0.0977273,
                "tempo": 120.0
            },
            {
                "start_time": 116.6886364,
                "end_time": 116.7886364,
                "pitch": 77,
                "velocity": 51,
                "duration": 0.1,
                "tempo": 120.0
            },
            {
                "start_time": 116.5886364,
                "end_time": 116.8909091,
                "pitch": 72,
                "velocity": 51,
                "duration": 0.3022727,
                "tempo": 120.0
            },
            {
                "start_time": 116.7886364,
                "end_time": 116.8909091,
                "pitch": 72,
                "velocity": 51,
                "duration": 0.1022727,
                "tempo": 120.0
            },
            {
                "start_time": 115.2795455,
                "end_time": 116.8909091,
                "pitch": 88,
                "velocity": 51,
                "duration": 1.6113636,
                "tempo": 120.0
            },
            {
                "start_time": 116.8909091,
                "end_time": 116.9909091,
                "pitch": 79,
                "velocity": 51,
                "duration": 0.1,
                "tempo": 120.0
            },
            {
                "start_time": 115.7772727,
                "end_time": 117.0909091,
                "pitch": 89,
                "velocity": 51,
                "duration": 1.3136364,
                "tempo": 120.0
            },
            {
                "start_time": 117.0909091,
                "end_time": 117.1931818,
                "pitch": 79,
                "velocity": 51,
                "duration": 0.1022727,
                "tempo": 120.0
            },
            {
                "start_time": 117.1931818,
                "end_time": 117.2977273,
                "pitch": 79,
                "velocity": 51,
                "duration": 0.1045455,
                "tempo": 120.0
            },
            {
                "start_time": 117.0909091,
                "end_time": 117.4,
                "pitch": 89,
                "velocity": 51,
                "duration": 0.3090909,
                "tempo": 120.0
            },
            {
                "start_time": 117.4,
                "end_time": 117.5022727,
                "pitch": 79,
                "velocity": 51,
                "duration": 0.1022727,
                "tempo": 120.0
            },
            {
                "start_time": 117.5045455,
                "end_time": 117.6,
                "pitch": 79,
                "velocity": 51,
                "duration": 0.0954545,
                "tempo": 120.0
            },
            {
                "start_time": 116.0818182,
                "end_time": 117.7,
                "pitch": 74,
                "velocity": 51,
                "duration": 1.6181818,
                "tempo": 120.0
            },
            {
                "start_time": 115.175,
                "end_time": 117.7977273,
                "pitch": 76,
                "velocity": 51,
                "duration": 2.6227273,
                "tempo": 120.0
            },
            {
                "start_time": 117.7,
                "end_time": 117.7977273,
                "pitch": 76,
                "velocity": 51,
                "duration": 0.0977273,
                "tempo": 120.0
            },
            {
                "start_time": 117.7977273,
                "end_time": 117.8954545,
                "pitch": 72,
                "velocity": 51,
                "duration": 0.0977273,
                "tempo": 120.0
            },
            {
                "start_time": 117.7977273,
                "end_time": 117.9954545,
                "pitch": 76,
                "velocity": 51,
                "duration": 0.1977273,
                "tempo": 120.0
            },
            {
                "start_time": 117.8954545,
                "end_time": 117.9954545,
                "pitch": 76,
                "velocity": 51,
                "duration": 0.1,
                "tempo": 120.0
            },
            {
                "start_time": 117.9954545,
                "end_time": 118.0954545,
                "pitch": 76,
                "velocity": 51,
                "duration": 0.1,
                "tempo": 120.0
            },
            {
                "start_time": 117.8954545,
                "end_time": 118.1954545,
                "pitch": 72,
                "velocity": 51,
                "duration": 0.3,
                "tempo": 120.0
            },
            {
                "start_time": 118.0954545,
                "end_time": 118.1954545,
                "pitch": 72,
                "velocity": 51,
                "duration": 0.1,
                "tempo": 120.0
            },
            {
                "start_time": 118.0954545,
                "end_time": 118.2977273,
                "pitch": 76,
                "velocity": 51,
                "duration": 0.2022727,
                "tempo": 120.0
            },
            {
                "start_time": 118.1977273,
                "end_time": 118.2977273,
                "pitch": 76,
                "velocity": 51,
                "duration": 0.1,
                "tempo": 120.0
            },
            {
                "start_time": 118.2977273,
                "end_time": 118.3977273,
                "pitch": 76,
                "velocity": 51,
                "duration": 0.1,
                "tempo": 120.0
            },
            {
                "start_time": 118.1977273,
                "end_time": 118.5,
                "pitch": 72,
                "velocity": 51,
                "duration": 0.3022727,
                "tempo": 120.0
            },
            {
                "start_time": 118.3977273,
                "end_time": 118.5,
                "pitch": 72,
                "velocity": 51,
                "duration": 0.1022727,
                "tempo": 120.0
            },
            {
                "start_time": 116.8909091,
                "end_time": 118.5,
                "pitch": 88,
                "velocity": 51,
                "duration": 1.6090909,
                "tempo": 120.0
            },
            {
                "start_time": 118.5,
                "end_time": 118.5977273,
                "pitch": 79,
                "velocity": 51,
                "duration": 0.0977273,
                "tempo": 120.0
            },
            {
                "start_time": 117.4,
                "end_time": 118.7,
                "pitch": 89,
                "velocity": 51,
                "duration": 1.3,
                "tempo": 120.0
            },
            {
                "start_time": 118.7,
                "end_time": 118.8,
                "pitch": 79,
                "velocity": 51,
                "duration": 0.1,
                "tempo": 120.0
            },
            {
                "start_time": 118.8,
                "end_time": 118.9045455,
                "pitch": 79,
                "velocity": 51,
                "duration": 0.1045455,
                "tempo": 120.0
            },
            {
                "start_time": 118.7,
                "end_time": 119.0068182,
                "pitch": 89,
                "velocity": 51,
                "duration": 0.3068182,
                "tempo": 120.0
            },
            {
                "start_time": 119.0068182,
                "end_time": 119.1113636,
                "pitch": 79,
                "velocity": 51,
                "duration": 0.1045455,
                "tempo": 120.0
            },
            {
                "start_time": 119.1113636,
                "end_time": 119.2090909,
                "pitch": 79,
                "velocity": 51,
                "duration": 0.0977273,
                "tempo": 120.0
            },
            {
                "start_time": 116.7886364,
                "end_time": 119.3068182,
                "pitch": 77,
                "velocity": 51,
                "duration": 2.5181818,
                "tempo": 120.0
            },
            {
                "start_time": 119.3068182,
                "end_time": 119.4045455,
                "pitch": 67,
                "velocity": 51,
                "duration": 0.0977273,
                "tempo": 120.0
            },
            {
                "start_time": 119.4045455,
                "end_time": 119.5045455,
                "pitch": 67,
                "velocity": 51,
                "duration": 0.1,
                "tempo": 120.0
            },
            {
                "start_time": 62.9431818,
                "end_time": 119.6022727,
                "pitch": 69,
                "velocity": 51,
                "duration": 56.6590909,
                "tempo": 120.0
            },
            {
                "start_time": 119.5045455,
                "end_time": 119.6022727,
                "pitch": 69,
                "velocity": 51,
                "duration": 0.0977273,
                "tempo": 120.0
            },
            {
                "start_time": 119.6045455,
                "end_time": 119.7045455,
                "pitch": 67,
                "velocity": 51,
                "duration": 0.1,
                "tempo": 120.0
            },
            {
                "start_time": 119.7045455,
                "end_time": 119.8045455,
                "pitch": 67,
                "velocity": 51,
                "duration": 0.1,
                "tempo": 120.0
            },
            {
                "start_time": 119.8045455,
                "end_time": 119.9045455,
                "pitch": 69,
                "velocity": 51,
                "duration": 0.1,
                "tempo": 120.0
            },
            {
                "start_time": 64.5431818,
                "end_time": 119.9068182,
                "pitch": 56,
                "velocity": 51,
                "duration": 55.3636364,
                "tempo": 120.0
            },
            {
                "start_time": 119.9068182,
                "end_time": 120.0068182,
                "pitch": 72,
                "velocity": 51,
                "duration": 0.1,
                "tempo": 120.0
            },
            {
                "start_time": 118.3977273,
                "end_time": 120.0068182,
                "pitch": 76,
                "velocity": 51,
                "duration": 1.6090909,
                "tempo": 120.0
            },
            {
                "start_time": 120.0068182,
                "end_time": 120.1090909,
                "pitch": 69,
                "velocity": 51,
                "duration": 0.1022727,
                "tempo": 120.0
            },
            {
                "start_time": 119.9068182,
                "end_time": 120.2090909,
                "pitch": 56,
                "velocity": 51,
                "duration": 0.3022727,
                "tempo": 120.0
            },
            {
                "start_time": 120.1090909,
                "end_time": 120.2090909,
                "pitch": 69,
                "velocity": 51,
                "duration": 0.1,
                "tempo": 120.0
            },
            {
                "start_time": 120.2090909,
                "end_time": 120.3090909,
                "pitch": 72,
                "velocity": 51,
                "duration": 0.1,
                "tempo": 120.0
            },
            {
                "start_time": 117.7,
                "end_time": 120.4090909,
                "pitch": 74,
                "velocity": 51,
                "duration": 2.7090909,
                "tempo": 120.0
            },
            {
                "start_time": 120.3090909,
                "end_time": 120.4090909,
                "pitch": 74,
                "velocity": 51,
                "duration": 0.1,
                "tempo": 120.0
            },
            {
                "start_time": 119.3068182,
                "end_time": 120.4090909,
                "pitch": 77,
                "velocity": 51,
                "duration": 1.1022727,
                "tempo": 120.0
            },
            {
                "start_time": 120.2090909,
                "end_time": 120.5113636,
                "pitch": 56,
                "velocity": 51,
                "duration": 0.3022727,
                "tempo": 120.0
            },
            {
                "start_time": 119.6045455,
                "end_time": 120.5113636,
                "pitch": 71,
                "velocity": 51,
                "duration": 0.9068182,
                "tempo": 120.0
            },
            {
                "start_time": 120.4090909,
                "end_time": 120.5113636,
                "pitch": 71,
                "velocity": 51,
                "duration": 0.1022727,
                "tempo": 120.0
            },
            {
                "start_time": 120.3090909,
                "end_time": 120.6090909,
                "pitch": 72,
                "velocity": 51,
                "duration": 0.3,
                "tempo": 120.0
            },
            {
                "start_time": 120.5113636,
                "end_time": 120.6090909,
                "pitch": 72,
                "velocity": 51,
                "duration": 0.0977273,
                "tempo": 120.0
            },
            {
                "start_time": 120.6090909,
                "end_time": 120.7113636,
                "pitch": 74,
                "velocity": 51,
                "duration": 0.1022727,
                "tempo": 120.0
            },
            {
                "start_time": 118.5,
                "end_time": 169.4522727,
                "pitch": 88,
                "velocity": 51,
                "duration": 50.9522727,
                "tempo": 120.0
            },
            {
                "start_time": 169.2568182,
                "end_time": 169.4522727,
                "pitch": 88,
                "velocity": 51,
                "duration": 0.1954545,
                "tempo": 120.0
            },
            {
                "start_time": 169.4522727,
                "end_time": 169.6590909,
                "pitch": 84,
                "velocity": 51,
                "duration": 0.2068182,
                "tempo": 120.0
            },
            {
                "start_time": 169.4522727,
                "end_time": 169.6590909,
                "pitch": 88,
                "velocity": 51,
                "duration": 0.2068182,
                "tempo": 120.0
            },
            {
                "start_time": 63.5409091,
                "end_time": 169.8636364,
                "pitch": 83,
                "velocity": 51,
                "duration": 106.3227273,
                "tempo": 120.0
            },
            {
                "start_time": 169.6590909,
                "end_time": 169.8636364,
                "pitch": 83,
                "velocity": 51,
                "duration": 0.2045455,
                "tempo": 120.0
            },
            {
                "start_time": 169.8636364,
                "end_time": 170.2681818,
                "pitch": 79,
                "velocity": 51,
                "duration": 0.4045455,
                "tempo": 120.0
            },
            {
                "start_time": 120.0068182,
                "end_time": 170.4636364,
                "pitch": 76,
                "velocity": 51,
                "duration": 50.4568182,
                "tempo": 120.0
            },
            {
                "start_time": 120.6090909,
                "end_time": 170.6613636,
                "pitch": 72,
                "velocity": 51,
                "duration": 50.0522727,
                "tempo": 120.0
            },
            {
                "start_time": 170.4636364,
                "end_time": 170.6613636,
                "pitch": 72,
                "velocity": 51,
                "duration": 0.1977273,
                "tempo": 120.0
            },
            {
                "start_time": 170.4636364,
                "end_time": 170.6613636,
                "pitch": 76,
                "velocity": 51,
                "duration": 0.1977273,
                "tempo": 120.0
            },
            {
                "start_time": 120.5113636,
                "end_time": 170.8659091,
                "pitch": 56,
                "velocity": 51,
                "duration": 50.3545455,
                "tempo": 120.0
            },
            {
                "start_time": 170.6613636,
                "end_time": 170.8659091,
                "pitch": 71,
                "velocity": 51,
                "duration": 0.2045455,
                "tempo": 120.0
            },
            {
                "start_time": 170.8659091,
                "end_time": 171.0704545,
                "pitch": 72,
                "velocity": 51,
                "duration": 0.2045455,
                "tempo": 120.0
            },
            {
                "start_time": 170.6613636,
                "end_time": 171.2727273,
                "pitch": 76,
                "velocity": 51,
                "duration": 0.6113636,
                "tempo": 120.0
            },
            {
                "start_time": 171.0727273,
                "end_time": 171.2727273,
                "pitch": 76,
                "velocity": 51,
                "duration": 0.2,
                "tempo": 120.0
            },
            {
                "start_time": 64.9454545,
                "end_time": 171.2727273,
                "pitch": 90,
                "velocity": 51,
                "duration": 106.3272727,
                "tempo": 120.0
            },
            {
                "start_time": 171.2727273,
                "end_time": 171.475,
                "pitch": 79,
                "velocity": 51,
                "duration": 0.2022727,
                "tempo": 120.0
            },
            {
                "start_time": 120.4090909,
                "end_time": 171.875,
                "pitch": 77,
                "velocity": 51,
                "duration": 51.4659091,
                "tempo": 120.0
            },
            {
                "start_time": 171.675,
                "end_time": 171.875,
                "pitch": 77,
                "velocity": 51,
                "duration": 0.2,
                "tempo": 120.0
            },
            {
                "start_time": 171.875,
                "end_time": 172.0772727,
                "pitch": 74,
                "velocity": 51,
                "duration": 0.2022727,
                "tempo": 120.0
            },
            {
                "start_time": 171.0727273,
                "end_time": 172.2818182,
                "pitch": 72,
                "velocity": 51,
                "duration": 1.2090909,
                "tempo": 120.0
            },
            {
                "start_time": 172.0772727,
                "end_time": 172.2818182,
                "pitch": 72,
                "velocity": 51,
                "duration": 0.2045455,
                "tempo": 120.0
            }
        ],
        "Church Organ": [
            {
                "start_time": 14.4909091,
                "end_time": 15.1340909,
                "pitch": 55,
                "velocity": 51,
                "duration": 0.6431818,
                "tempo": 120.0
            },
            {
                "start_time": 15.1340909,
                "end_time": 15.1840909,
                "pitch": 55,
                "velocity": 51,
                "duration": 0.05,
                "tempo": 120.0
            },
            {
                "start_time": 15.1340909,
                "end_time": 15.2681818,
                "pitch": 0,
                "velocity": 51,
                "duration": 0.1340909,
                "tempo": 120.0
            },
            {
                "start_time": 15.1840909,
                "end_time": 15.2681818,
                "pitch": 55,
                "velocity": 51,
                "duration": 0.0840909,
                "tempo": 120.0
            },
            {
                "start_time": 15.2681818,
                "end_time": 15.3181818,
                "pitch": 55,
                "velocity": 51,
                "duration": 0.05,
                "tempo": 120.0
            },
            {
                "start_time": 15.1840909,
                "end_time": 15.3181818,
                "pitch": 67,
                "velocity": 51,
                "duration": 0.1340909,
                "tempo": 120.0
            },
            {
                "start_time": 15.2681818,
                "end_time": 15.4022727,
                "pitch": 0,
                "velocity": 51,
                "duration": 0.1340909,
                "tempo": 120.0
            },
            {
                "start_time": 15.3181818,
                "end_time": 15.4022727,
                "pitch": 55,
                "velocity": 51,
                "duration": 0.0840909,
                "tempo": 120.0
            },
            {
                "start_time": 15.4022727,
                "end_time": 15.4522727,
                "pitch": 55,
                "velocity": 51,
                "duration": 0.05,
                "tempo": 120.0
            },
            {
                "start_time": 15.3181818,
                "end_time": 15.4522727,
                "pitch": 67,
                "velocity": 51,
                "duration": 0.1340909,
                "tempo": 120.0
            },
            {
                "start_time": 15.4022727,
                "end_time": 15.5363636,
                "pitch": 0,
                "velocity": 51,
                "duration": 0.1340909,
                "tempo": 120.0
            },
            {
                "start_time": 15.4522727,
                "end_time": 15.5363636,
                "pitch": 55,
                "velocity": 51,
                "duration": 0.0840909,
                "tempo": 120.0
            },
            {
                "start_time": 15.5363636,
                "end_time": 15.5863636,
                "pitch": 55,
                "velocity": 51,
                "duration": 0.05,
                "tempo": 120.0
            },
            {
                "start_time": 15.4522727,
                "end_time": 15.5863636,
                "pitch": 67,
                "velocity": 51,
                "duration": 0.1340909,
                "tempo": 120.0
            },
            {
                "start_time": 15.5363636,
                "end_time": 15.6704545,
                "pitch": 0,
                "velocity": 51,
                "duration": 0.1340909,
                "tempo": 120.0
            },
            {
                "start_time": 15.5863636,
                "end_time": 15.6704545,
                "pitch": 55,
                "velocity": 51,
                "duration": 0.0840909,
                "tempo": 120.0
            },
            {
                "start_time": 15.6704545,
                "end_time": 15.7204545,
                "pitch": 55,
                "velocity": 51,
                "duration": 0.05,
                "tempo": 120.0
            },
            {
                "start_time": 15.5863636,
                "end_time": 15.7204545,
                "pitch": 67,
                "velocity": 51,
                "duration": 0.1340909,
                "tempo": 120.0
            },
            {
                "start_time": 15.6704545,
                "end_time": 15.8045455,
                "pitch": 0,
                "velocity": 51,
                "duration": 0.1340909,
                "tempo": 120.0
            },
            {
                "start_time": 15.7204545,
                "end_time": 15.8045455,
                "pitch": 55,
                "velocity": 51,
                "duration": 0.0840909,
                "tempo": 120.0
            },
            {
                "start_time": 15.8045455,
                "end_time": 15.8568182,
                "pitch": 55,
                "velocity": 51,
                "duration": 0.0522727,
                "tempo": 120.0
            },
            {
                "start_time": 15.7204545,
                "end_time": 15.8568182,
                "pitch": 67,
                "velocity": 51,
                "duration": 0.1363636,
                "tempo": 120.0
            },
            {
                "start_time": 15.8045455,
                "end_time": 15.9386364,
                "pitch": 0,
                "velocity": 51,
                "duration": 0.1340909,
                "tempo": 120.0
            },
            {
                "start_time": 15.8568182,
                "end_time": 15.9386364,
                "pitch": 55,
                "velocity": 51,
                "duration": 0.0818182,
                "tempo": 120.0
            },
            {
                "start_time": 15.9386364,
                "end_time": 15.9909091,
                "pitch": 55,
                "velocity": 51,
                "duration": 0.0522727,
                "tempo": 120.0
            },
            {
                "start_time": 15.8568182,
                "end_time": 15.9909091,
                "pitch": 67,
                "velocity": 51,
                "duration": 0.1340909,
                "tempo": 120.0
            },
            {
                "start_time": 15.9386364,
                "end_time": 16.075,
                "pitch": 0,
                "velocity": 51,
                "duration": 0.1363636,
                "tempo": 120.0
            },
            {
                "start_time": 15.9909091,
                "end_time": 16.075,
                "pitch": 55,
                "velocity": 51,
                "duration": 0.0840909,
                "tempo": 120.0
            },
            {
                "start_time": 16.075,
                "end_time": 16.1090909,
                "pitch": 55,
                "velocity": 51,
                "duration": 0.0340909,
                "tempo": 120.0
            },
            {
                "start_time": 15.9909091,
                "end_time": 16.1090909,
                "pitch": 67,
                "velocity": 51,
                "duration": 0.1181818,
                "tempo": 120.0
            },
            {
                "start_time": 16.075,
                "end_time": 16.7454545,
                "pitch": 0,
                "velocity": 51,
                "duration": 0.6704545,
                "tempo": 120.0
            },
            {
                "start_time": 16.1090909,
                "end_time": 16.7454545,
                "pitch": 55,
                "velocity": 51,
                "duration": 0.6363636,
                "tempo": 120.0
            },
            {
                "start_time": 16.7454545,
                "end_time": 16.7954545,
                "pitch": 55,
                "velocity": 51,
                "duration": 0.05,
                "tempo": 120.0
            },
            {
                "start_time": 16.1090909,
                "end_time": 16.7954545,
                "pitch": 67,
                "velocity": 51,
                "duration": 0.6863636,
                "tempo": 120.0
            },
            {
                "start_time": 16.7454545,
                "end_time": 16.8772727,
                "pitch": 0,
                "velocity": 51,
                "duration": 0.1318182,
                "tempo": 120.0
            },
            {
                "start_time": 16.7954545,
                "end_time": 16.8772727,
                "pitch": 55,
                "velocity": 51,
                "duration": 0.0818182,
                "tempo": 120.0
            },
            {
                "start_time": 16.8772727,
                "end_time": 16.9272727,
                "pitch": 55,
                "velocity": 51,
                "duration": 0.05,
                "tempo": 120.0
            },
            {
                "start_time": 16.7954545,
                "end_time": 16.9272727,
                "pitch": 67,
                "velocity": 51,
                "duration": 0.1318182,
                "tempo": 120.0
            },
            {
                "start_time": 16.8772727,
                "end_time": 17.0113636,
                "pitch": 0,
                "velocity": 51,
                "duration": 0.1340909,
                "tempo": 120.0
            },
            {
                "start_time": 16.9272727,
                "end_time": 17.0113636,
                "pitch": 55,
                "velocity": 51,
                "duration": 0.0840909,
                "tempo": 120.0
            },
            {
                "start_time": 17.0113636,
                "end_time": 17.0613636,
                "pitch": 55,
                "velocity": 51,
                "duration": 0.05,
                "tempo": 120.0
            },
            {
                "start_time": 16.9272727,
                "end_time": 17.0613636,
                "pitch": 67,
                "velocity": 51,
                "duration": 0.1340909,
                "tempo": 120.0
            },
            {
                "start_time": 17.0113636,
                "end_time": 17.1454545,
                "pitch": 0,
                "velocity": 51,
                "duration": 0.1340909,
                "tempo": 120.0
            },
            {
                "start_time": 17.0613636,
                "end_time": 17.1454545,
                "pitch": 55,
                "velocity": 51,
                "duration": 0.0840909,
                "tempo": 120.0
            },
            {
                "start_time": 17.1454545,
                "end_time": 17.1954545,
                "pitch": 55,
                "velocity": 51,
                "duration": 0.05,
                "tempo": 120.0
            },
            {
                "start_time": 17.0613636,
                "end_time": 17.1954545,
                "pitch": 67,
                "velocity": 51,
                "duration": 0.1340909,
                "tempo": 120.0
            },
            {
                "start_time": 17.1454545,
                "end_time": 17.2795455,
                "pitch": 0,
                "velocity": 51,
                "duration": 0.1340909,
                "tempo": 120.0
            },
            {
                "start_time": 17.1954545,
                "end_time": 17.2795455,
                "pitch": 55,
                "velocity": 51,
                "duration": 0.0840909,
                "tempo": 120.0
            },
            {
                "start_time": 17.2795455,
                "end_time": 17.3295455,
                "pitch": 55,
                "velocity": 51,
                "duration": 0.05,
                "tempo": 120.0
            },
            {
                "start_time": 17.1954545,
                "end_time": 17.3295455,
                "pitch": 67,
                "velocity": 51,
                "duration": 0.1340909,
                "tempo": 120.0
            },
            {
                "start_time": 17.2795455,
                "end_time": 17.4136364,
                "pitch": 0,
                "velocity": 51,
                "duration": 0.1340909,
                "tempo": 120.0
            },
            {
                "start_time": 17.3295455,
                "end_time": 17.4136364,
                "pitch": 55,
                "velocity": 51,
                "duration": 0.0840909,
                "tempo": 120.0
            },
            {
                "start_time": 17.4136364,
                "end_time": 17.4636364,
                "pitch": 55,
                "velocity": 51,
                "duration": 0.05,
                "tempo": 120.0
            },
            {
                "start_time": 17.3295455,
                "end_time": 17.4636364,
                "pitch": 67,
                "velocity": 51,
                "duration": 0.1340909,
                "tempo": 120.0
            },
            {
                "start_time": 17.4136364,
                "end_time": 17.5477273,
                "pitch": 0,
                "velocity": 51,
                "duration": 0.1340909,
                "tempo": 120.0
            },
            {
                "start_time": 17.4636364,
                "end_time": 17.5477273,
                "pitch": 55,
                "velocity": 51,
                "duration": 0.0840909,
                "tempo": 120.0
            },
            {
                "start_time": 17.5477273,
                "end_time": 17.5977273,
                "pitch": 55,
                "velocity": 51,
                "duration": 0.05,
                "tempo": 120.0
            },
            {
                "start_time": 17.4636364,
                "end_time": 17.5977273,
                "pitch": 67,
                "velocity": 51,
                "duration": 0.1340909,
                "tempo": 120.0
            },
            {
                "start_time": 17.5477273,
                "end_time": 17.6818182,
                "pitch": 0,
                "velocity": 51,
                "duration": 0.1340909,
                "tempo": 120.0
            },
            {
                "start_time": 17.5977273,
                "end_time": 17.6818182,
                "pitch": 55,
                "velocity": 51,
                "duration": 0.0840909,
                "tempo": 120.0
            },
            {
                "start_time": 17.6818182,
                "end_time": 17.7159091,
                "pitch": 55,
                "velocity": 51,
                "duration": 0.0340909,
                "tempo": 120.0
            },
            {
                "start_time": 17.5977273,
                "end_time": 17.7181818,
                "pitch": 67,
                "velocity": 51,
                "duration": 0.1204545,
                "tempo": 120.0
            },
            {
                "start_time": 17.7181818,
                "end_time": 19.3227273,
                "pitch": 57,
                "velocity": 51,
                "duration": 1.6045455,
                "tempo": 120.0
            },
            {
                "start_time": 19.3227273,
                "end_time": 20.9409091,
                "pitch": 57,
                "velocity": 51,
                "duration": 1.6181818,
                "tempo": 120.0
            },
            {
                "start_time": 20.9409091,
                "end_time": 22.5454545,
                "pitch": 57,
                "velocity": 51,
                "duration": 1.6045455,
                "tempo": 120.0
            },
            {
                "start_time": 22.5454545,
                "end_time": 24.1522727,
                "pitch": 59,
                "velocity": 51,
                "duration": 1.6068182,
                "tempo": 120.0
            },
            {
                "start_time": 24.1545455,
                "end_time": 25.7568182,
                "pitch": 60,
                "velocity": 51,
                "duration": 1.6022727,
                "tempo": 120.0
            },
            {
                "start_time": 25.7568182,
                "end_time": 27.3772727,
                "pitch": 62,
                "velocity": 51,
                "duration": 1.6204545,
                "tempo": 120.0
            },
            {
                "start_time": 17.6818182,
                "end_time": 28.0045455,
                "pitch": 0,
                "velocity": 51,
                "duration": 10.3227273,
                "tempo": 120.0
            },
            {
                "start_time": 27.3772727,
                "end_time": 28.0045455,
                "pitch": 55,
                "velocity": 51,
                "duration": 0.6272727,
                "tempo": 120.0
            },
            {
                "start_time": 28.0045455,
                "end_time": 28.0545455,
                "pitch": 55,
                "velocity": 51,
                "duration": 0.05,
                "tempo": 120.0
            },
            {
                "start_time": 17.7181818,
                "end_time": 28.0545455,
                "pitch": 67,
                "velocity": 51,
                "duration": 10.3363636,
                "tempo": 120.0
            },
            {
                "start_time": 28.0545455,
                "end_time": 28.1340909,
                "pitch": 55,
                "velocity": 51,
                "duration": 0.0795455,
                "tempo": 120.0
            },
            {
                "start_time": 28.0045455,
                "end_time": 28.1363636,
                "pitch": 0,
                "velocity": 51,
                "duration": 0.1318182,
                "tempo": 120.0
            },
            {
                "start_time": 28.1340909,
                "end_time": 28.1363636,
                "pitch": 0,
                "velocity": 51,
                "duration": 0.0022727,
                "tempo": 120.0
            },
            {
                "start_time": 28.1363636,
                "end_time": 28.1840909,
                "pitch": 55,
                "velocity": 51,
                "duration": 0.0477273,
                "tempo": 120.0
            },
            {
                "start_time": 28.0545455,
                "end_time": 28.1840909,
                "pitch": 67,
                "velocity": 51,
                "duration": 0.1295455,
                "tempo": 120.0
            },
            {
                "start_time": 28.1840909,
                "end_time": 28.2704545,
                "pitch": 55,
                "velocity": 51,
                "duration": 0.0863636,
                "tempo": 120.0
            },
            {
                "start_time": 28.2704545,
                "end_time": 28.3227273,
                "pitch": 55,
                "velocity": 51,
                "duration": 0.0522727,
                "tempo": 120.0
            },
            {
                "start_time": 28.1840909,
                "end_time": 28.3227273,
                "pitch": 67,
                "velocity": 51,
                "duration": 0.1386364,
                "tempo": 120.0
            },
            {
                "start_time": 28.2704545,
                "end_time": 28.4068182,
                "pitch": 0,
                "velocity": 51,
                "duration": 0.1363636,
                "tempo": 120.0
            },
            {
                "start_time": 28.3227273,
                "end_time": 28.4068182,
                "pitch": 55,
                "velocity": 51,
                "duration": 0.0840909,
                "tempo": 120.0
            },
            {
                "start_time": 28.4068182,
                "end_time": 28.4590909,
                "pitch": 55,
                "velocity": 51,
                "duration": 0.0522727,
                "tempo": 120.0
            },
            {
                "start_time": 28.3227273,
                "end_time": 28.4590909,
                "pitch": 67,
                "velocity": 51,
                "duration": 0.1363636,
                "tempo": 120.0
            },
            {
                "start_time": 28.4068182,
                "end_time": 28.5454545,
                "pitch": 0,
                "velocity": 51,
                "duration": 0.1386364,
                "tempo": 120.0
            },
            {
                "start_time": 28.4590909,
                "end_time": 28.5454545,
                "pitch": 55,
                "velocity": 51,
                "duration": 0.0863636,
                "tempo": 120.0
            },
            {
                "start_time": 28.5454545,
                "end_time": 28.5954545,
                "pitch": 55,
                "velocity": 51,
                "duration": 0.05,
                "tempo": 120.0
            },
            {
                "start_time": 28.4590909,
                "end_time": 28.5954545,
                "pitch": 67,
                "velocity": 51,
                "duration": 0.1363636,
                "tempo": 120.0
            },
            {
                "start_time": 28.5454545,
                "end_time": 28.6795455,
                "pitch": 0,
                "velocity": 51,
                "duration": 0.1340909,
                "tempo": 120.0
            },
            {
                "start_time": 28.5954545,
                "end_time": 28.6795455,
                "pitch": 55,
                "velocity": 51,
                "duration": 0.0840909,
                "tempo": 120.0
            },
            {
                "start_time": 28.6795455,
                "end_time": 28.7295455,
                "pitch": 55,
                "velocity": 51,
                "duration": 0.05,
                "tempo": 120.0
            },
            {
                "start_time": 28.5954545,
                "end_time": 28.7295455,
                "pitch": 67,
                "velocity": 51,
                "duration": 0.1340909,
                "tempo": 120.0
            },
            {
                "start_time": 28.6795455,
                "end_time": 28.8136364,
                "pitch": 0,
                "velocity": 51,
                "duration": 0.1340909,
                "tempo": 120.0
            },
            {
                "start_time": 28.7295455,
                "end_time": 28.8136364,
                "pitch": 55,
                "velocity": 51,
                "duration": 0.0840909,
                "tempo": 120.0
            },
            {
                "start_time": 28.8136364,
                "end_time": 28.8636364,
                "pitch": 55,
                "velocity": 51,
                "duration": 0.05,
                "tempo": 120.0
            },
            {
                "start_time": 28.7295455,
                "end_time": 28.8636364,
                "pitch": 67,
                "velocity": 51,
                "duration": 0.1340909,
                "tempo": 120.0
            },
            {
                "start_time": 28.8136364,
                "end_time": 28.9454545,
                "pitch": 0,
                "velocity": 51,
                "duration": 0.1318182,
                "tempo": 120.0
            },
            {
                "start_time": 28.8636364,
                "end_time": 28.9454545,
                "pitch": 55,
                "velocity": 51,
                "duration": 0.0818182,
                "tempo": 120.0
            },
            {
                "start_time": 28.9454545,
                "end_time": 28.9818182,
                "pitch": 55,
                "velocity": 51,
                "duration": 0.0363636,
                "tempo": 120.0
            },
            {
                "start_time": 28.8636364,
                "end_time": 28.9818182,
                "pitch": 67,
                "velocity": 51,
                "duration": 0.1181818,
                "tempo": 120.0
            },
            {
                "start_time": 28.9454545,
                "end_time": 29.6159091,
                "pitch": 0,
                "velocity": 51,
                "duration": 0.6704545,
                "tempo": 120.0
            },
            {
                "start_time": 28.9818182,
                "end_time": 29.6159091,
                "pitch": 55,
                "velocity": 51,
                "duration": 0.6340909,
                "tempo": 120.0
            },
            {
                "start_time": 29.6159091,
                "end_time": 29.6659091,
                "pitch": 55,
                "velocity": 51,
                "duration": 0.05,
                "tempo": 120.0
            },
            {
                "start_time": 28.9818182,
                "end_time": 29.6659091,
                "pitch": 67,
                "velocity": 51,
                "duration": 0.6840909,
                "tempo": 120.0
            },
            {
                "start_time": 29.6159091,
                "end_time": 29.75,
                "pitch": 0,
                "velocity": 51,
                "duration": 0.1340909,
                "tempo": 120.0
            },
            {
                "start_time": 29.6659091,
                "end_time": 29.75,
                "pitch": 55,
                "velocity": 51,
                "duration": 0.0840909,
                "tempo": 120.0
            },
            {
                "start_time": 29.75,
                "end_time": 29.8,
                "pitch": 55,
                "velocity": 51,
                "duration": 0.05,
                "tempo": 120.0
            },
            {
                "start_time": 29.6659091,
                "end_time": 29.8,
                "pitch": 67,
                "velocity": 51,
                "duration": 0.1340909,
                "tempo": 120.0
            },
            {
                "start_time": 29.75,
                "end_time": 29.8840909,
                "pitch": 0,
                "velocity": 51,
                "duration": 0.1340909,
                "tempo": 120.0
            },
            {
                "start_time": 29.8,
                "end_time": 29.8840909,
                "pitch": 55,
                "velocity": 51,
                "duration": 0.0840909,
                "tempo": 120.0
            },
            {
                "start_time": 29.8840909,
                "end_time": 29.9340909,
                "pitch": 55,
                "velocity": 51,
                "duration": 0.05,
                "tempo": 120.0
            },
            {
                "start_time": 29.8,
                "end_time": 29.9340909,
                "pitch": 67,
                "velocity": 51,
                "duration": 0.1340909,
                "tempo": 120.0
            },
            {
                "start_time": 29.8840909,
                "end_time": 30.0181818,
                "pitch": 0,
                "velocity": 51,
                "duration": 0.1340909,
                "tempo": 120.0
            },
            {
                "start_time": 29.9340909,
                "end_time": 30.0181818,
                "pitch": 55,
                "velocity": 51,
                "duration": 0.0840909,
                "tempo": 120.0
            },
            {
                "start_time": 30.0181818,
                "end_time": 30.0681818,
                "pitch": 55,
                "velocity": 51,
                "duration": 0.05,
                "tempo": 120.0
            },
            {
                "start_time": 29.9340909,
                "end_time": 30.0681818,
                "pitch": 67,
                "velocity": 51,
                "duration": 0.1340909,
                "tempo": 120.0
            },
            {
                "start_time": 30.0181818,
                "end_time": 30.15,
                "pitch": 0,
                "velocity": 51,
                "duration": 0.1318182,
                "tempo": 120.0
            },
            {
                "start_time": 30.0681818,
                "end_time": 30.15,
                "pitch": 55,
                "velocity": 51,
                "duration": 0.0818182,
                "tempo": 120.0
            },
            {
                "start_time": 30.15,
                "end_time": 30.2,
                "pitch": 55,
                "velocity": 51,
                "duration": 0.05,
                "tempo": 120.0
            },
            {
                "start_time": 30.0681818,
                "end_time": 30.2,
                "pitch": 67,
                "velocity": 51,
                "duration": 0.1318182,
                "tempo": 120.0
            },
            {
                "start_time": 30.15,
                "end_time": 30.2840909,
                "pitch": 0,
                "velocity": 51,
                "duration": 0.1340909,
                "tempo": 120.0
            },
            {
                "start_time": 30.2,
                "end_time": 30.2840909,
                "pitch": 55,
                "velocity": 51,
                "duration": 0.0840909,
                "tempo": 120.0
            },
            {
                "start_time": 30.2840909,
                "end_time": 30.3363636,
                "pitch": 55,
                "velocity": 51,
                "duration": 0.0522727,
                "tempo": 120.0
            },
            {
                "start_time": 30.2,
                "end_time": 30.3363636,
                "pitch": 67,
                "velocity": 51,
                "duration": 0.1363636,
                "tempo": 120.0
            },
            {
                "start_time": 30.2840909,
                "end_time": 30.4204545,
                "pitch": 0,
                "velocity": 51,
                "duration": 0.1363636,
                "tempo": 120.0
            },
            {
                "start_time": 30.3363636,
                "end_time": 30.4204545,
                "pitch": 55,
                "velocity": 51,
                "duration": 0.0840909,
                "tempo": 120.0
            },
            {
                "start_time": 30.4204545,
                "end_time": 30.4704545,
                "pitch": 55,
                "velocity": 51,
                "duration": 0.05,
                "tempo": 120.0
            },
            {
                "start_time": 30.3363636,
                "end_time": 30.4704545,
                "pitch": 67,
                "velocity": 51,
                "duration": 0.1340909,
                "tempo": 120.0
            },
            {
                "start_time": 30.4204545,
                "end_time": 30.5545455,
                "pitch": 0,
                "velocity": 51,
                "duration": 0.1340909,
                "tempo": 120.0
            },
            {
                "start_time": 30.4704545,
                "end_time": 30.5545455,
                "pitch": 55,
                "velocity": 51,
                "duration": 0.0840909,
                "tempo": 120.0
            },
            {
                "start_time": 30.5545455,
                "end_time": 30.5886364,
                "pitch": 55,
                "velocity": 51,
                "duration": 0.0340909,
                "tempo": 120.0
            },
            {
                "start_time": 30.4704545,
                "end_time": 30.5886364,
                "pitch": 67,
                "velocity": 51,
                "duration": 0.1181818,
                "tempo": 120.0
            },
            {
                "start_time": 22.5454545,
                "end_time": 32.1931818,
                "pitch": 57,
                "velocity": 51,
                "duration": 9.6477273,
                "tempo": 120.0
            },
            {
                "start_time": 30.5886364,
                "end_time": 32.1931818,
                "pitch": 57,
                "velocity": 51,
                "duration": 1.6045455,
                "tempo": 120.0
            },
            {
                "start_time": 32.1954545,
                "end_time": 33.8,
                "pitch": 57,
                "velocity": 51,
                "duration": 1.6045455,
                "tempo": 120.0
            },
            {
                "start_time": 33.8,
                "end_time": 35.4068182,
                "pitch": 57,
                "velocity": 51,
                "duration": 1.6068182,
                "tempo": 120.0
            },
            {
                "start_time": 25.7568182,
                "end_time": 37.0227273,
                "pitch": 59,
                "velocity": 51,
                "duration": 11.2659091,
                "tempo": 120.0
            },
            {
                "start_time": 35.4068182,
                "end_time": 37.0227273,
                "pitch": 59,
                "velocity": 51,
                "duration": 1.6159091,
                "tempo": 120.0
            },
            {
                "start_time": 30.5545455,
                "end_time": 37.6545455,
                "pitch": 0,
                "velocity": 51,
                "duration": 7.1,
                "tempo": 120.0
            },
            {
                "start_time": 37.0227273,
                "end_time": 37.6545455,
                "pitch": 55,
                "velocity": 51,
                "duration": 0.6318182,
                "tempo": 120.0
            },
            {
                "start_time": 37.6545455,
                "end_time": 37.7045455,
                "pitch": 55,
                "velocity": 51,
                "duration": 0.05,
                "tempo": 120.0
            },
            {
                "start_time": 30.5886364,
                "end_time": 37.7045455,
                "pitch": 67,
                "velocity": 51,
                "duration": 7.1159091,
                "tempo": 120.0
            },
            {
                "start_time": 37.6545455,
                "end_time": 37.7886364,
                "pitch": 0,
                "velocity": 51,
                "duration": 0.1340909,
                "tempo": 120.0
            },
            {
                "start_time": 37.7045455,
                "end_time": 37.7886364,
                "pitch": 55,
                "velocity": 51,
                "duration": 0.0840909,
                "tempo": 120.0
            },
            {
                "start_time": 37.7886364,
                "end_time": 37.8386364,
                "pitch": 55,
                "velocity": 51,
                "duration": 0.05,
                "tempo": 120.0
            },
            {
                "start_time": 37.7045455,
                "end_time": 37.8386364,
                "pitch": 67,
                "velocity": 51,
                "duration": 0.1340909,
                "tempo": 120.0
            },
            {
                "start_time": 37.7886364,
                "end_time": 37.9227273,
                "pitch": 0,
                "velocity": 51,
                "duration": 0.1340909,
                "tempo": 120.0
            },
            {
                "start_time": 37.8386364,
                "end_time": 37.9227273,
                "pitch": 55,
                "velocity": 51,
                "duration": 0.0840909,
                "tempo": 120.0
            },
            {
                "start_time": 37.9227273,
                "end_time": 37.9727273,
                "pitch": 55,
                "velocity": 51,
                "duration": 0.05,
                "tempo": 120.0
            },
            {
                "start_time": 37.8386364,
                "end_time": 37.9727273,
                "pitch": 67,
                "velocity": 51,
                "duration": 0.1340909,
                "tempo": 120.0
            },
            {
                "start_time": 37.9227273,
                "end_time": 38.0545455,
                "pitch": 0,
                "velocity": 51,
                "duration": 0.1318182,
                "tempo": 120.0
            },
            {
                "start_time": 37.9727273,
                "end_time": 38.0545455,
                "pitch": 55,
                "velocity": 51,
                "duration": 0.0818182,
                "tempo": 120.0
            },
            {
                "start_time": 38.0545455,
                "end_time": 38.1045455,
                "pitch": 55,
                "velocity": 51,
                "duration": 0.05,
                "tempo": 120.0
            },
            {
                "start_time": 37.9727273,
                "end_time": 38.1045455,
                "pitch": 67,
                "velocity": 51,
                "duration": 0.1318182,
                "tempo": 120.0
            },
            {
                "start_time": 38.0545455,
                "end_time": 38.1886364,
                "pitch": 0,
                "velocity": 51,
                "duration": 0.1340909,
                "tempo": 120.0
            },
            {
                "start_time": 38.1045455,
                "end_time": 38.1886364,
                "pitch": 55,
                "velocity": 51,
                "duration": 0.0840909,
                "tempo": 120.0
            },
            {
                "start_time": 38.1886364,
                "end_time": 38.2386364,
                "pitch": 55,
                "velocity": 51,
                "duration": 0.05,
                "tempo": 120.0
            },
            {
                "start_time": 38.1045455,
                "end_time": 38.2386364,
                "pitch": 67,
                "velocity": 51,
                "duration": 0.1340909,
                "tempo": 120.0
            },
            {
                "start_time": 38.1886364,
                "end_time": 38.3227273,
                "pitch": 0,
                "velocity": 51,
                "duration": 0.1340909,
                "tempo": 120.0
            },
            {
                "start_time": 38.2386364,
                "end_time": 38.3227273,
                "pitch": 55,
                "velocity": 51,
                "duration": 0.0840909,
                "tempo": 120.0
            },
            {
                "start_time": 38.3227273,
                "end_time": 38.3727273,
                "pitch": 55,
                "velocity": 51,
                "duration": 0.05,
                "tempo": 120.0
            },
            {
                "start_time": 38.2386364,
                "end_time": 38.3727273,
                "pitch": 67,
                "velocity": 51,
                "duration": 0.1340909,
                "tempo": 120.0
            },
            {
                "start_time": 38.3227273,
                "end_time": 38.4568182,
                "pitch": 0,
                "velocity": 51,
                "duration": 0.1340909,
                "tempo": 120.0
            },
            {
                "start_time": 38.3727273,
                "end_time": 38.4568182,
                "pitch": 55,
                "velocity": 51,
                "duration": 0.0840909,
                "tempo": 120.0
            },
            {
                "start_time": 38.4568182,
                "end_time": 38.5068182,
                "pitch": 55,
                "velocity": 51,
                "duration": 0.05,
                "tempo": 120.0
            },
            {
                "start_time": 38.3727273,
                "end_time": 38.5068182,
                "pitch": 67,
                "velocity": 51,
                "duration": 0.1340909,
                "tempo": 120.0
            },
            {
                "start_time": 38.4568182,
                "end_time": 38.5909091,
                "pitch": 0,
                "velocity": 51,
                "duration": 0.1340909,
                "tempo": 120.0
            },
            {
                "start_time": 38.5068182,
                "end_time": 38.5909091,
                "pitch": 55,
                "velocity": 51,
                "duration": 0.0840909,
                "tempo": 120.0
            },
            {
                "start_time": 38.5909091,
                "end_time": 38.6272727,
                "pitch": 55,
                "velocity": 51,
                "duration": 0.0363636,
                "tempo": 120.0
            },
            {
                "start_time": 38.5068182,
                "end_time": 38.6272727,
                "pitch": 67,
                "velocity": 51,
                "duration": 0.1204545,
                "tempo": 120.0
            },
            {
                "start_time": 38.5909091,
                "end_time": 39.2590909,
                "pitch": 0,
                "velocity": 51,
                "duration": 0.6681818,
                "tempo": 120.0
            },
            {
                "start_time": 38.6272727,
                "end_time": 39.2590909,
                "pitch": 55,
                "velocity": 51,
                "duration": 0.6318182,
                "tempo": 120.0
            },
            {
                "start_time": 39.2590909,
                "end_time": 39.3090909,
                "pitch": 55,
                "velocity": 51,
                "duration": 0.05,
                "tempo": 120.0
            },
            {
                "start_time": 38.6272727,
                "end_time": 39.3090909,
                "pitch": 67,
                "velocity": 51,
                "duration": 0.6818182,
                "tempo": 120.0
            },
            {
                "start_time": 39.2590909,
                "end_time": 39.3931818,
                "pitch": 0,
                "velocity": 51,
                "duration": 0.1340909,
                "tempo": 120.0
            },
            {
                "start_time": 39.3090909,
                "end_time": 39.3931818,
                "pitch": 55,
                "velocity": 51,
                "duration": 0.0840909,
                "tempo": 120.0
            },
            {
                "start_time": 39.3931818,
                "end_time": 39.4431818,
                "pitch": 55,
                "velocity": 51,
                "duration": 0.05,
                "tempo": 120.0
            },
            {
                "start_time": 39.3090909,
                "end_time": 39.4431818,
                "pitch": 67,
                "velocity": 51,
                "duration": 0.1340909,
                "tempo": 120.0
            },
            {
                "start_time": 39.3931818,
                "end_time": 39.5272727,
                "pitch": 0,
                "velocity": 51,
                "duration": 0.1340909,
                "tempo": 120.0
            },
            {
                "start_time": 39.4431818,
                "end_time": 39.5272727,
                "pitch": 55,
                "velocity": 51,
                "duration": 0.0840909,
                "tempo": 120.0
            },
            {
                "start_time": 39.5272727,
                "end_time": 39.5772727,
                "pitch": 55,
                "velocity": 51,
                "duration": 0.05,
                "tempo": 120.0
            },
            {
                "start_time": 39.4431818,
                "end_time": 39.5772727,
                "pitch": 67,
                "velocity": 51,
                "duration": 0.1340909,
                "tempo": 120.0
            },
            {
                "start_time": 39.5272727,
                "end_time": 39.6613636,
                "pitch": 0,
                "velocity": 51,
                "duration": 0.1340909,
                "tempo": 120.0
            },
            {
                "start_time": 39.5772727,
                "end_time": 39.6613636,
                "pitch": 55,
                "velocity": 51,
                "duration": 0.0840909,
                "tempo": 120.0
            },
            {
                "start_time": 39.6613636,
                "end_time": 39.7113636,
                "pitch": 55,
                "velocity": 51,
                "duration": 0.05,
                "tempo": 120.0
            },
            {
                "start_time": 39.5772727,
                "end_time": 39.7113636,
                "pitch": 67,
                "velocity": 51,
                "duration": 0.1340909,
                "tempo": 120.0
            },
            {
                "start_time": 39.6613636,
                "end_time": 39.7931818,
                "pitch": 0,
                "velocity": 51,
                "duration": 0.1318182,
                "tempo": 120.0
            },
            {
                "start_time": 39.7113636,
                "end_time": 39.7931818,
                "pitch": 55,
                "velocity": 51,
                "duration": 0.0818182,
                "tempo": 120.0
            },
            {
                "start_time": 39.7931818,
                "end_time": 39.8431818,
                "pitch": 55,
                "velocity": 51,
                "duration": 0.05,
                "tempo": 120.0
            },
            {
                "start_time": 39.7113636,
                "end_time": 39.8431818,
                "pitch": 67,
                "velocity": 51,
                "duration": 0.1318182,
                "tempo": 120.0
            },
            {
                "start_time": 39.7931818,
                "end_time": 39.9272727,
                "pitch": 0,
                "velocity": 51,
                "duration": 0.1340909,
                "tempo": 120.0
            },
            {
                "start_time": 39.8431818,
                "end_time": 39.9272727,
                "pitch": 55,
                "velocity": 51,
                "duration": 0.0840909,
                "tempo": 120.0
            },
            {
                "start_time": 39.9272727,
                "end_time": 39.9772727,
                "pitch": 55,
                "velocity": 51,
                "duration": 0.05,
                "tempo": 120.0
            },
            {
                "start_time": 39.8431818,
                "end_time": 39.9772727,
                "pitch": 67,
                "velocity": 51,
                "duration": 0.1340909,
                "tempo": 120.0
            },
            {
                "start_time": 39.9272727,
                "end_time": 40.0613636,
                "pitch": 0,
                "velocity": 51,
                "duration": 0.1340909,
                "tempo": 120.0
            },
            {
                "start_time": 39.9772727,
                "end_time": 40.0613636,
                "pitch": 55,
                "velocity": 51,
                "duration": 0.0840909,
                "tempo": 120.0
            },
            {
                "start_time": 40.0613636,
                "end_time": 40.1113636,
                "pitch": 55,
                "velocity": 51,
                "duration": 0.05,
                "tempo": 120.0
            },
            {
                "start_time": 39.9772727,
                "end_time": 40.1113636,
                "pitch": 67,
                "velocity": 51,
                "duration": 0.1340909,
                "tempo": 120.0
            },
            {
                "start_time": 40.0613636,
                "end_time": 40.1954545,
                "pitch": 0,
                "velocity": 51,
                "duration": 0.1340909,
                "tempo": 120.0
            },
            {
                "start_time": 40.1113636,
                "end_time": 40.1954545,
                "pitch": 55,
                "velocity": 51,
                "duration": 0.0840909,
                "tempo": 120.0
            },
            {
                "start_time": 40.1954545,
                "end_time": 40.2295455,
                "pitch": 55,
                "velocity": 51,
                "duration": 0.0340909,
                "tempo": 120.0
            },
            {
                "start_time": 40.1113636,
                "end_time": 40.9159091,
                "pitch": 67,
                "velocity": 51,
                "duration": 0.8045455,
                "tempo": 120.0
            },
            {
                "start_time": 40.2295455,
                "end_time": 40.9159091,
                "pitch": 67,
                "velocity": 51,
                "duration": 0.6863636,
                "tempo": 120.0
            },
            {
                "start_time": 40.2295455,
                "end_time": 40.9159091,
                "pitch": 79,
                "velocity": 51,
                "duration": 0.6863636,
                "tempo": 120.0
            },
            {
                "start_time": 40.9159091,
                "end_time": 41.0477273,
                "pitch": 67,
                "velocity": 51,
                "duration": 0.1318182,
                "tempo": 120.0
            },
            {
                "start_time": 40.9159091,
                "end_time": 41.0477273,
                "pitch": 79,
                "velocity": 51,
                "duration": 0.1318182,
                "tempo": 120.0
            },
            {
                "start_time": 41.0477273,
                "end_time": 41.1818182,
                "pitch": 67,
                "velocity": 51,
                "duration": 0.1340909,
                "tempo": 120.0
            },
            {
                "start_time": 41.0477273,
                "end_time": 41.1818182,
                "pitch": 79,
                "velocity": 51,
                "duration": 0.1340909,
                "tempo": 120.0
            },
            {
                "start_time": 41.1818182,
                "end_time": 41.3159091,
                "pitch": 67,
                "velocity": 51,
                "duration": 0.1340909,
                "tempo": 120.0
            },
            {
                "start_time": 41.1818182,
                "end_time": 41.3159091,
                "pitch": 79,
                "velocity": 51,
                "duration": 0.1340909,
                "tempo": 120.0
            },
            {
                "start_time": 41.3159091,
                "end_time": 41.4477273,
                "pitch": 67,
                "velocity": 51,
                "duration": 0.1318182,
                "tempo": 120.0
            },
            {
                "start_time": 41.3159091,
                "end_time": 41.4477273,
                "pitch": 79,
                "velocity": 51,
                "duration": 0.1318182,
                "tempo": 120.0
            },
            {
                "start_time": 41.4477273,
                "end_time": 41.5863636,
                "pitch": 67,
                "velocity": 51,
                "duration": 0.1386364,
                "tempo": 120.0
            },
            {
                "start_time": 41.4477273,
                "end_time": 41.5863636,
                "pitch": 79,
                "velocity": 51,
                "duration": 0.1386364,
                "tempo": 120.0
            },
            {
                "start_time": 41.5863636,
                "end_time": 41.7227273,
                "pitch": 67,
                "velocity": 51,
                "duration": 0.1363636,
                "tempo": 120.0
            },
            {
                "start_time": 41.5863636,
                "end_time": 41.7227273,
                "pitch": 79,
                "velocity": 51,
                "duration": 0.1363636,
                "tempo": 120.0
            },
            {
                "start_time": 41.7227273,
                "end_time": 41.8454545,
                "pitch": 67,
                "velocity": 51,
                "duration": 0.1227273,
                "tempo": 120.0
            },
            {
                "start_time": 41.7227273,
                "end_time": 41.8454545,
                "pitch": 79,
                "velocity": 51,
                "duration": 0.1227273,
                "tempo": 120.0
            },
            {
                "start_time": 41.8454545,
                "end_time": 42.5340909,
                "pitch": 67,
                "velocity": 51,
                "duration": 0.6886364,
                "tempo": 120.0
            },
            {
                "start_time": 41.8454545,
                "end_time": 42.5340909,
                "pitch": 79,
                "velocity": 51,
                "duration": 0.6886364,
                "tempo": 120.0
            },
            {
                "start_time": 42.5340909,
                "end_time": 42.6636364,
                "pitch": 67,
                "velocity": 51,
                "duration": 0.1295455,
                "tempo": 120.0
            },
            {
                "start_time": 42.5340909,
                "end_time": 42.6636364,
                "pitch": 79,
                "velocity": 51,
                "duration": 0.1295455,
                "tempo": 120.0
            },
            {
                "start_time": 42.6636364,
                "end_time": 42.7977273,
                "pitch": 67,
                "velocity": 51,
                "duration": 0.1340909,
                "tempo": 120.0
            },
            {
                "start_time": 42.6636364,
                "end_time": 42.7977273,
                "pitch": 79,
                "velocity": 51,
                "duration": 0.1340909,
                "tempo": 120.0
            },
            {
                "start_time": 42.7977273,
                "end_time": 42.9318182,
                "pitch": 67,
                "velocity": 51,
                "duration": 0.1340909,
                "tempo": 120.0
            },
            {
                "start_time": 42.7977273,
                "end_time": 42.9318182,
                "pitch": 79,
                "velocity": 51,
                "duration": 0.1340909,
                "tempo": 120.0
            },
            {
                "start_time": 42.9318182,
                "end_time": 43.0659091,
                "pitch": 67,
                "velocity": 51,
                "duration": 0.1340909,
                "tempo": 120.0
            },
            {
                "start_time": 42.9318182,
                "end_time": 43.0659091,
                "pitch": 79,
                "velocity": 51,
                "duration": 0.1340909,
                "tempo": 120.0
            },
            {
                "start_time": 43.0659091,
                "end_time": 43.1977273,
                "pitch": 67,
                "velocity": 51,
                "duration": 0.1318182,
                "tempo": 120.0
            },
            {
                "start_time": 43.0659091,
                "end_time": 43.1977273,
                "pitch": 79,
                "velocity": 51,
                "duration": 0.1318182,
                "tempo": 120.0
            },
            {
                "start_time": 43.1977273,
                "end_time": 43.3318182,
                "pitch": 67,
                "velocity": 51,
                "duration": 0.1340909,
                "tempo": 120.0
            },
            {
                "start_time": 43.1977273,
                "end_time": 43.3318182,
                "pitch": 79,
                "velocity": 51,
                "duration": 0.1340909,
                "tempo": 120.0
            },
            {
                "start_time": 43.3318182,
                "end_time": 43.45,
                "pitch": 67,
                "velocity": 51,
                "duration": 0.1181818,
                "tempo": 120.0
            },
            {
                "start_time": 43.3318182,
                "end_time": 43.45,
                "pitch": 79,
                "velocity": 51,
                "duration": 0.1181818,
                "tempo": 120.0
            },
            {
                "start_time": 43.45,
                "end_time": 45.0545455,
                "pitch": 69,
                "velocity": 51,
                "duration": 1.6045455,
                "tempo": 120.0
            },
            {
                "start_time": 45.0545455,
                "end_time": 46.6613636,
                "pitch": 69,
                "velocity": 51,
                "duration": 1.6068182,
                "tempo": 120.0
            },
            {
                "start_time": 46.6613636,
                "end_time": 48.2795455,
                "pitch": 69,
                "velocity": 51,
                "duration": 1.6181818,
                "tempo": 120.0
            },
            {
                "start_time": 48.2795455,
                "end_time": 49.8840909,
                "pitch": 71,
                "velocity": 51,
                "duration": 1.6045455,
                "tempo": 120.0
            },
            {
                "start_time": 49.8840909,
                "end_time": 51.4886364,
                "pitch": 72,
                "velocity": 51,
                "duration": 1.6045455,
                "tempo": 120.0
            },
            {
                "start_time": 51.4886364,
                "end_time": 53.0909091,
                "pitch": 74,
                "velocity": 51,
                "duration": 1.6022727,
                "tempo": 120.0
            },
            {
                "start_time": 53.2931818,
                "end_time": 53.4931818,
                "pitch": 74,
                "velocity": 51,
                "duration": 0.2,
                "tempo": 120.0
            },
            {
                "start_time": 53.4954545,
                "end_time": 53.6954545,
                "pitch": 74,
                "velocity": 51,
                "duration": 0.2,
                "tempo": 120.0
            },
            {
                "start_time": 53.6954545,
                "end_time": 53.8954545,
                "pitch": 77,
                "velocity": 51,
                "duration": 0.2,
                "tempo": 120.0
            },
            {
                "start_time": 53.8954545,
                "end_time": 54.0954545,
                "pitch": 77,
                "velocity": 51,
                "duration": 0.2,
                "tempo": 120.0
            },
            {
                "start_time": 53.4954545,
                "end_time": 54.2954545,
                "pitch": 76,
                "velocity": 51,
                "duration": 0.8,
                "tempo": 120.0
            },
            {
                "start_time": 53.6954545,
                "end_time": 54.6954545,
                "pitch": 74,
                "velocity": 51,
                "duration": 1.0,
                "tempo": 120.0
            },
            {
                "start_time": 54.2954545,
                "end_time": 54.6954545,
                "pitch": 74,
                "velocity": 51,
                "duration": 0.4,
                "tempo": 120.0
            },
            {
                "start_time": 51.4886364,
                "end_time": 54.9022727,
                "pitch": 71,
                "velocity": 51,
                "duration": 3.4136364,
                "tempo": 120.0
            },
            {
                "start_time": 54.6954545,
                "end_time": 54.9022727,
                "pitch": 71,
                "velocity": 51,
                "duration": 0.2068182,
                "tempo": 120.0
            },
            {
                "start_time": 54.2954545,
                "end_time": 55.1068182,
                "pitch": 76,
                "velocity": 51,
                "duration": 0.8113636,
                "tempo": 120.0
            },
            {
                "start_time": 54.9022727,
                "end_time": 55.1068182,
                "pitch": 76,
                "velocity": 51,
                "duration": 0.2045455,
                "tempo": 120.0
            },
            {
                "start_time": 55.1068182,
                "end_time": 55.3045455,
                "pitch": 74,
                "velocity": 51,
                "duration": 0.1977273,
                "tempo": 120.0
            },
            {
                "start_time": 54.6954545,
                "end_time": 55.5,
                "pitch": 77,
                "velocity": 51,
                "duration": 0.8045455,
                "tempo": 120.0
            },
            {
                "start_time": 55.3045455,
                "end_time": 55.5,
                "pitch": 77,
                "velocity": 51,
                "duration": 0.1954545,
                "tempo": 120.0
            },
            {
                "start_time": 55.5,
                "end_time": 55.7,
                "pitch": 77,
                "velocity": 51,
                "duration": 0.2,
                "tempo": 120.0
            },
            {
                "start_time": 55.1068182,
                "end_time": 56.5136364,
                "pitch": 76,
                "velocity": 51,
                "duration": 1.4068182,
                "tempo": 120.0
            },
            {
                "start_time": 55.9,
                "end_time": 56.5136364,
                "pitch": 76,
                "velocity": 51,
                "duration": 0.6136364,
                "tempo": 120.0
            },
            {
                "start_time": 43.45,
                "end_time": 56.7159091,
                "pitch": 79,
                "velocity": 51,
                "duration": 13.2659091,
                "tempo": 120.0
            },
            {
                "start_time": 56.5136364,
                "end_time": 56.7159091,
                "pitch": 79,
                "velocity": 51,
                "duration": 0.2022727,
                "tempo": 120.0
            },
            {
                "start_time": 56.9113636,
                "end_time": 57.1068182,
                "pitch": 84,
                "velocity": 51,
                "duration": 0.1954545,
                "tempo": 120.0
            },
            {
                "start_time": 57.1068182,
                "end_time": 57.3136364,
                "pitch": 83,
                "velocity": 51,
                "duration": 0.2068182,
                "tempo": 120.0
            },
            {
                "start_time": 57.5181818,
                "end_time": 57.9113636,
                "pitch": 83,
                "velocity": 51,
                "duration": 0.3931818,
                "tempo": 120.0
            },
            {
                "start_time": 57.9113636,
                "end_time": 58.1159091,
                "pitch": 81,
                "velocity": 51,
                "duration": 0.2045455,
                "tempo": 120.0
            },
            {
                "start_time": 58.1159091,
                "end_time": 58.7159091,
                "pitch": 83,
                "velocity": 51,
                "duration": 0.6,
                "tempo": 120.0
            },
            {
                "start_time": 58.7159091,
                "end_time": 58.8159091,
                "pitch": 81,
                "velocity": 51,
                "duration": 0.1,
                "tempo": 120.0
            },
            {
                "start_time": 58.8159091,
                "end_time": 58.9204545,
                "pitch": 83,
                "velocity": 51,
                "duration": 0.1045455,
                "tempo": 120.0
            },
            {
                "start_time": 58.9204545,
                "end_time": 59.3272727,
                "pitch": 81,
                "velocity": 51,
                "duration": 0.4068182,
                "tempo": 120.0
            },
            {
                "start_time": 27.3772727,
                "end_time": 60.5295455,
                "pitch": 64,
                "velocity": 51,
                "duration": 33.1522727,
                "tempo": 120.0
            },
            {
                "start_time": 59.5272727,
                "end_time": 60.5295455,
                "pitch": 64,
                "velocity": 51,
                "duration": 1.0022727,
                "tempo": 120.0
            },
            {
                "start_time": 60.5295455,
                "end_time": 60.7318182,
                "pitch": 64,
                "velocity": 51,
                "duration": 0.2022727,
                "tempo": 120.0
            },
            {
                "start_time": 60.7318182,
                "end_time": 60.9318182,
                "pitch": 67,
                "velocity": 51,
                "duration": 0.2,
                "tempo": 120.0
            },
            {
                "start_time": 49.8840909,
                "end_time": 61.5431818,
                "pitch": 55,
                "velocity": 51,
                "duration": 11.6590909,
                "tempo": 120.0
            },
            {
                "start_time": 61.1318182,
                "end_time": 61.5431818,
                "pitch": 55,
                "velocity": 51,
                "duration": 0.4113636,
                "tempo": 120.0
            },
            {
                "start_time": 61.5431818,
                "end_time": 61.9363636,
                "pitch": 55,
                "velocity": 51,
                "duration": 0.3931818,
                "tempo": 120.0
            },
            {
                "start_time": 35.4068182,
                "end_time": 61.9363636,
                "pitch": 57,
                "velocity": 51,
                "duration": 26.5295455,
                "tempo": 120.0
            },
            {
                "start_time": 37.0227273,
                "end_time": 62.3363636,
                "pitch": 59,
                "velocity": 51,
                "duration": 25.3136364,
                "tempo": 120.0
            },
            {
                "start_time": 61.9363636,
                "end_time": 62.3363636,
                "pitch": 59,
                "velocity": 51,
                "duration": 0.4,
                "tempo": 120.0
            },
            {
                "start_time": 62.3363636,
                "end_time": 62.7477273,
                "pitch": 59,
                "velocity": 51,
                "duration": 0.4113636,
                "tempo": 120.0
            },
            {
                "start_time": 14.4909091,
                "end_time": 120.7136364,
                "pitch": 65,
                "velocity": 51,
                "duration": 106.2227273,
                "tempo": 120.0
            },
            {
                "start_time": 40.1954545,
                "end_time": 121.3454545,
                "pitch": 0,
                "velocity": 51,
                "duration": 81.15,
                "tempo": 120.0
            },
            {
                "start_time": 120.7136364,
                "end_time": 121.3454545,
                "pitch": 55,
                "velocity": 51,
                "duration": 0.6318182,
                "tempo": 120.0
            },
            {
                "start_time": 121.3454545,
                "end_time": 121.3954545,
                "pitch": 55,
                "velocity": 51,
                "duration": 0.05,
                "tempo": 120.0
            },
            {
                "start_time": 121.3454545,
                "end_time": 121.4795455,
                "pitch": 0,
                "velocity": 51,
                "duration": 0.1340909,
                "tempo": 120.0
            },
            {
                "start_time": 121.3954545,
                "end_time": 121.4795455,
                "pitch": 55,
                "velocity": 51,
                "duration": 0.0840909,
                "tempo": 120.0
            },
            {
                "start_time": 121.4795455,
                "end_time": 121.5295455,
                "pitch": 55,
                "velocity": 51,
                "duration": 0.05,
                "tempo": 120.0
            },
            {
                "start_time": 121.3954545,
                "end_time": 121.5295455,
                "pitch": 67,
                "velocity": 51,
                "duration": 0.1340909,
                "tempo": 120.0
            },
            {
                "start_time": 121.4795455,
                "end_time": 121.6136364,
                "pitch": 0,
                "velocity": 51,
                "duration": 0.1340909,
                "tempo": 120.0
            },
            {
                "start_time": 121.5295455,
                "end_time": 121.6136364,
                "pitch": 55,
                "velocity": 51,
                "duration": 0.0840909,
                "tempo": 120.0
            },
            {
                "start_time": 121.6136364,
                "end_time": 121.6636364,
                "pitch": 55,
                "velocity": 51,
                "duration": 0.05,
                "tempo": 120.0
            },
            {
                "start_time": 121.5295455,
                "end_time": 121.6636364,
                "pitch": 67,
                "velocity": 51,
                "duration": 0.1340909,
                "tempo": 120.0
            },
            {
                "start_time": 121.6136364,
                "end_time": 121.7477273,
                "pitch": 0,
                "velocity": 51,
                "duration": 0.1340909,
                "tempo": 120.0
            },
            {
                "start_time": 121.6636364,
                "end_time": 121.7477273,
                "pitch": 55,
                "velocity": 51,
                "duration": 0.0840909,
                "tempo": 120.0
            },
            {
                "start_time": 121.7477273,
                "end_time": 121.7977273,
                "pitch": 55,
                "velocity": 51,
                "duration": 0.05,
                "tempo": 120.0
            },
            {
                "start_time": 121.6636364,
                "end_time": 121.7977273,
                "pitch": 67,
                "velocity": 51,
                "duration": 0.1340909,
                "tempo": 120.0
            },
            {
                "start_time": 121.7477273,
                "end_time": 121.8818182,
                "pitch": 0,
                "velocity": 51,
                "duration": 0.1340909,
                "tempo": 120.0
            },
            {
                "start_time": 121.7977273,
                "end_time": 121.8818182,
                "pitch": 55,
                "velocity": 51,
                "duration": 0.0840909,
                "tempo": 120.0
            },
            {
                "start_time": 121.8818182,
                "end_time": 121.9318182,
                "pitch": 55,
                "velocity": 51,
                "duration": 0.05,
                "tempo": 120.0
            },
            {
                "start_time": 121.7977273,
                "end_time": 121.9318182,
                "pitch": 67,
                "velocity": 51,
                "duration": 0.1340909,
                "tempo": 120.0
            },
            {
                "start_time": 121.8818182,
                "end_time": 122.0159091,
                "pitch": 0,
                "velocity": 51,
                "duration": 0.1340909,
                "tempo": 120.0
            },
            {
                "start_time": 121.9318182,
                "end_time": 122.0159091,
                "pitch": 55,
                "velocity": 51,
                "duration": 0.0840909,
                "tempo": 120.0
            },
            {
                "start_time": 122.0159091,
                "end_time": 122.0681818,
                "pitch": 55,
                "velocity": 51,
                "duration": 0.0522727,
                "tempo": 120.0
            },
            {
                "start_time": 121.9318182,
                "end_time": 122.0681818,
                "pitch": 67,
                "velocity": 51,
                "duration": 0.1363636,
                "tempo": 120.0
            },
            {
                "start_time": 122.0159091,
                "end_time": 122.15,
                "pitch": 0,
                "velocity": 51,
                "duration": 0.1340909,
                "tempo": 120.0
            },
            {
                "start_time": 122.0681818,
                "end_time": 122.15,
                "pitch": 55,
                "velocity": 51,
                "duration": 0.0818182,
                "tempo": 120.0
            },
            {
                "start_time": 122.15,
                "end_time": 122.2022727,
                "pitch": 55,
                "velocity": 51,
                "duration": 0.0522727,
                "tempo": 120.0
            },
            {
                "start_time": 122.0681818,
                "end_time": 122.2022727,
                "pitch": 67,
                "velocity": 51,
                "duration": 0.1340909,
                "tempo": 120.0
            },
            {
                "start_time": 122.15,
                "end_time": 122.2863636,
                "pitch": 0,
                "velocity": 51,
                "duration": 0.1363636,
                "tempo": 120.0
            },
            {
                "start_time": 122.2022727,
                "end_time": 122.2863636,
                "pitch": 55,
                "velocity": 51,
                "duration": 0.0840909,
                "tempo": 120.0
            },
            {
                "start_time": 122.2863636,
                "end_time": 122.3204545,
                "pitch": 55,
                "velocity": 51,
                "duration": 0.0340909,
                "tempo": 120.0
            },
            {
                "start_time": 122.2022727,
                "end_time": 122.3204545,
                "pitch": 67,
                "velocity": 51,
                "duration": 0.1181818,
                "tempo": 120.0
            },
            {
                "start_time": 122.2863636,
                "end_time": 122.9590909,
                "pitch": 0,
                "velocity": 51,
                "duration": 0.6727273,
                "tempo": 120.0
            },
            {
                "start_time": 122.3204545,
                "end_time": 122.9590909,
                "pitch": 55,
                "velocity": 51,
                "duration": 0.6386364,
                "tempo": 120.0
            },
            {
                "start_time": 122.9590909,
                "end_time": 123.0090909,
                "pitch": 55,
                "velocity": 51,
                "duration": 0.05,
                "tempo": 120.0
            },
            {
                "start_time": 122.3204545,
                "end_time": 123.0090909,
                "pitch": 67,
                "velocity": 51,
                "duration": 0.6886364,
                "tempo": 120.0
            },
            {
                "start_time": 122.9590909,
                "end_time": 123.0909091,
                "pitch": 0,
                "velocity": 51,
                "duration": 0.1318182,
                "tempo": 120.0
            },
            {
                "start_time": 123.0090909,
                "end_time": 123.0909091,
                "pitch": 55,
                "velocity": 51,
                "duration": 0.0818182,
                "tempo": 120.0
            },
            {
                "start_time": 123.0909091,
                "end_time": 123.1386364,
                "pitch": 55,
                "velocity": 51,
                "duration": 0.0477273,
                "tempo": 120.0
            },
            {
                "start_time": 123.0090909,
                "end_time": 123.1386364,
                "pitch": 67,
                "velocity": 51,
                "duration": 0.1295455,
                "tempo": 120.0
            },
            {
                "start_time": 123.0909091,
                "end_time": 123.2227273,
                "pitch": 0,
                "velocity": 51,
                "duration": 0.1318182,
                "tempo": 120.0
            },
            {
                "start_time": 123.1386364,
                "end_time": 123.2227273,
                "pitch": 55,
                "velocity": 51,
                "duration": 0.0840909,
                "tempo": 120.0
            },
            {
                "start_time": 123.2227273,
                "end_time": 123.2727273,
                "pitch": 55,
                "velocity": 51,
                "duration": 0.05,
                "tempo": 120.0
            },
            {
                "start_time": 123.1386364,
                "end_time": 123.2727273,
                "pitch": 67,
                "velocity": 51,
                "duration": 0.1340909,
                "tempo": 120.0
            },
            {
                "start_time": 123.2227273,
                "end_time": 123.3568182,
                "pitch": 0,
                "velocity": 51,
                "duration": 0.1340909,
                "tempo": 120.0
            },
            {
                "start_time": 123.2727273,
                "end_time": 123.3568182,
                "pitch": 55,
                "velocity": 51,
                "duration": 0.0840909,
                "tempo": 120.0
            },
            {
                "start_time": 123.3568182,
                "end_time": 123.4068182,
                "pitch": 55,
                "velocity": 51,
                "duration": 0.05,
                "tempo": 120.0
            },
            {
                "start_time": 123.2727273,
                "end_time": 123.4068182,
                "pitch": 67,
                "velocity": 51,
                "duration": 0.1340909,
                "tempo": 120.0
            },
            {
                "start_time": 123.3568182,
                "end_time": 123.4909091,
                "pitch": 0,
                "velocity": 51,
                "duration": 0.1340909,
                "tempo": 120.0
            },
            {
                "start_time": 123.4068182,
                "end_time": 123.4909091,
                "pitch": 55,
                "velocity": 51,
                "duration": 0.0840909,
                "tempo": 120.0
            },
            {
                "start_time": 123.4909091,
                "end_time": 123.5409091,
                "pitch": 55,
                "velocity": 51,
                "duration": 0.05,
                "tempo": 120.0
            },
            {
                "start_time": 123.4068182,
                "end_time": 123.5409091,
                "pitch": 67,
                "velocity": 51,
                "duration": 0.1340909,
                "tempo": 120.0
            },
            {
                "start_time": 123.4909091,
                "end_time": 123.625,
                "pitch": 0,
                "velocity": 51,
                "duration": 0.1340909,
                "tempo": 120.0
            },
            {
                "start_time": 123.5409091,
                "end_time": 123.625,
                "pitch": 55,
                "velocity": 51,
                "duration": 0.0840909,
                "tempo": 120.0
            },
            {
                "start_time": 123.625,
                "end_time": 123.675,
                "pitch": 55,
                "velocity": 51,
                "duration": 0.05,
                "tempo": 120.0
            },
            {
                "start_time": 123.5409091,
                "end_time": 123.675,
                "pitch": 67,
                "velocity": 51,
                "duration": 0.1340909,
                "tempo": 120.0
            },
            {
                "start_time": 123.625,
                "end_time": 123.7590909,
                "pitch": 0,
                "velocity": 51,
                "duration": 0.1340909,
                "tempo": 120.0
            },
            {
                "start_time": 123.675,
                "end_time": 123.7590909,
                "pitch": 55,
                "velocity": 51,
                "duration": 0.0840909,
                "tempo": 120.0
            },
            {
                "start_time": 123.7590909,
                "end_time": 123.8090909,
                "pitch": 55,
                "velocity": 51,
                "duration": 0.05,
                "tempo": 120.0
            },
            {
                "start_time": 123.675,
                "end_time": 123.8090909,
                "pitch": 67,
                "velocity": 51,
                "duration": 0.1340909,
                "tempo": 120.0
            },
            {
                "start_time": 123.7590909,
                "end_time": 123.8931818,
                "pitch": 0,
                "velocity": 51,
                "duration": 0.1340909,
                "tempo": 120.0
            },
            {
                "start_time": 123.8090909,
                "end_time": 123.8931818,
                "pitch": 55,
                "velocity": 51,
                "duration": 0.0840909,
                "tempo": 120.0
            },
            {
                "start_time": 123.8931818,
                "end_time": 123.9295455,
                "pitch": 55,
                "velocity": 51,
                "duration": 0.0363636,
                "tempo": 120.0
            },
            {
                "start_time": 123.8090909,
                "end_time": 123.9295455,
                "pitch": 67,
                "velocity": 51,
                "duration": 0.1204545,
                "tempo": 120.0
            },
            {
                "start_time": 61.9363636,
                "end_time": 125.5477273,
                "pitch": 57,
                "velocity": 51,
                "duration": 63.6113636,
                "tempo": 120.0
            },
            {
                "start_time": 123.9295455,
                "end_time": 125.5477273,
                "pitch": 57,
                "velocity": 51,
                "duration": 1.6181818,
                "tempo": 120.0
            },
            {
                "start_time": 125.5477273,
                "end_time": 127.1568182,
                "pitch": 57,
                "velocity": 51,
                "duration": 1.6090909,
                "tempo": 120.0
            },
            {
                "start_time": 127.1568182,
                "end_time": 128.7659091,
                "pitch": 57,
                "velocity": 51,
                "duration": 1.6090909,
                "tempo": 120.0
            },
            {
                "start_time": 24.1545455,
                "end_time": 130.3840909,
                "pitch": 43,
                "velocity": 51,
                "duration": 106.2295455,
                "tempo": 120.0
            },
            {
                "start_time": 128.7659091,
                "end_time": 130.3840909,
                "pitch": 59,
                "velocity": 51,
                "duration": 1.6181818,
                "tempo": 120.0
            },
            {
                "start_time": 130.3840909,
                "end_time": 131.9818182,
                "pitch": 60,
                "velocity": 51,
                "duration": 1.5977273,
                "tempo": 120.0
            },
            {
                "start_time": 131.9818182,
                "end_time": 133.6045455,
                "pitch": 62,
                "velocity": 51,
                "duration": 1.6227273,
                "tempo": 120.0
            },
            {
                "start_time": 61.1318182,
                "end_time": 133.6045455,
                "pitch": 64,
                "velocity": 51,
                "duration": 72.4727273,
                "tempo": 120.0
            },
            {
                "start_time": 123.8931818,
                "end_time": 134.2386364,
                "pitch": 0,
                "velocity": 51,
                "duration": 10.3454545,
                "tempo": 120.0
            },
            {
                "start_time": 133.6045455,
                "end_time": 134.2386364,
                "pitch": 55,
                "velocity": 51,
                "duration": 0.6340909,
                "tempo": 120.0
            },
            {
                "start_time": 134.2386364,
                "end_time": 134.2886364,
                "pitch": 55,
                "velocity": 51,
                "duration": 0.05,
                "tempo": 120.0
            },
            {
                "start_time": 123.9295455,
                "end_time": 134.2886364,
                "pitch": 67,
                "velocity": 51,
                "duration": 10.3590909,
                "tempo": 120.0
            },
            {
                "start_time": 134.2386364,
                "end_time": 134.3727273,
                "pitch": 0,
                "velocity": 51,
                "duration": 0.1340909,
                "tempo": 120.0
            },
            {
                "start_time": 134.2886364,
                "end_time": 134.3727273,
                "pitch": 55,
                "velocity": 51,
                "duration": 0.0840909,
                "tempo": 120.0
            },
            {
                "start_time": 134.3727273,
                "end_time": 134.4227273,
                "pitch": 55,
                "velocity": 51,
                "duration": 0.05,
                "tempo": 120.0
            },
            {
                "start_time": 134.2886364,
                "end_time": 134.4227273,
                "pitch": 67,
                "velocity": 51,
                "duration": 0.1340909,
                "tempo": 120.0
            },
            {
                "start_time": 134.3727273,
                "end_time": 134.5068182,
                "pitch": 0,
                "velocity": 51,
                "duration": 0.1340909,
                "tempo": 120.0
            },
            {
                "start_time": 134.4227273,
                "end_time": 134.5068182,
                "pitch": 55,
                "velocity": 51,
                "duration": 0.0840909,
                "tempo": 120.0
            },
            {
                "start_time": 134.5068182,
                "end_time": 134.5568182,
                "pitch": 55,
                "velocity": 51,
                "duration": 0.05,
                "tempo": 120.0
            },
            {
                "start_time": 134.4227273,
                "end_time": 134.5568182,
                "pitch": 67,
                "velocity": 51,
                "duration": 0.1340909,
                "tempo": 120.0
            },
            {
                "start_time": 134.5068182,
                "end_time": 134.6409091,
                "pitch": 0,
                "velocity": 51,
                "duration": 0.1340909,
                "tempo": 120.0
            },
            {
                "start_time": 134.5568182,
                "end_time": 134.6409091,
                "pitch": 55,
                "velocity": 51,
                "duration": 0.0840909,
                "tempo": 120.0
            },
            {
                "start_time": 134.6409091,
                "end_time": 134.6909091,
                "pitch": 55,
                "velocity": 51,
                "duration": 0.05,
                "tempo": 120.0
            },
            {
                "start_time": 134.5568182,
                "end_time": 134.6909091,
                "pitch": 67,
                "velocity": 51,
                "duration": 0.1340909,
                "tempo": 120.0
            },
            {
                "start_time": 134.6409091,
                "end_time": 134.775,
                "pitch": 0,
                "velocity": 51,
                "duration": 0.1340909,
                "tempo": 120.0
            },
            {
                "start_time": 134.6909091,
                "end_time": 134.775,
                "pitch": 55,
                "velocity": 51,
                "duration": 0.0840909,
                "tempo": 120.0
            },
            {
                "start_time": 134.775,
                "end_time": 134.825,
                "pitch": 55,
                "velocity": 51,
                "duration": 0.05,
                "tempo": 120.0
            },
            {
                "start_time": 134.6909091,
                "end_time": 134.8272727,
                "pitch": 67,
                "velocity": 51,
                "duration": 0.1363636,
                "tempo": 120.0
            },
            {
                "start_time": 134.825,
                "end_time": 134.8272727,
                "pitch": 67,
                "velocity": 51,
                "duration": 0.0022727,
                "tempo": 120.0
            },
            {
                "start_time": 134.775,
                "end_time": 134.9090909,
                "pitch": 0,
                "velocity": 51,
                "duration": 0.1340909,
                "tempo": 120.0
            },
            {
                "start_time": 134.8272727,
                "end_time": 134.9090909,
                "pitch": 55,
                "velocity": 51,
                "duration": 0.0818182,
                "tempo": 120.0
            },
            {
                "start_time": 134.9090909,
                "end_time": 134.9613636,
                "pitch": 55,
                "velocity": 51,
                "duration": 0.0522727,
                "tempo": 120.0
            },
            {
                "start_time": 134.9090909,
                "end_time": 135.0454545,
                "pitch": 0,
                "velocity": 51,
                "duration": 0.1363636,
                "tempo": 120.0
            },
            {
                "start_time": 134.9613636,
                "end_time": 135.0454545,
                "pitch": 55,
                "velocity": 51,
                "duration": 0.0840909,
                "tempo": 120.0
            },
            {
                "start_time": 135.0454545,
                "end_time": 135.0954545,
                "pitch": 55,
                "velocity": 51,
                "duration": 0.05,
                "tempo": 120.0
            },
            {
                "start_time": 134.9613636,
                "end_time": 135.0954545,
                "pitch": 67,
                "velocity": 51,
                "duration": 0.1340909,
                "tempo": 120.0
            },
            {
                "start_time": 135.0454545,
                "end_time": 135.1795455,
                "pitch": 0,
                "velocity": 51,
                "duration": 0.1340909,
                "tempo": 120.0
            },
            {
                "start_time": 135.0954545,
                "end_time": 135.1795455,
                "pitch": 55,
                "velocity": 51,
                "duration": 0.0840909,
                "tempo": 120.0
            },
            {
                "start_time": 135.1795455,
                "end_time": 135.2136364,
                "pitch": 55,
                "velocity": 51,
                "duration": 0.0340909,
                "tempo": 120.0
            },
            {
                "start_time": 135.0954545,
                "end_time": 135.2136364,
                "pitch": 67,
                "velocity": 51,
                "duration": 0.1181818,
                "tempo": 120.0
            },
            {
                "start_time": 135.1795455,
                "end_time": 135.8522727,
                "pitch": 0,
                "velocity": 51,
                "duration": 0.6727273,
                "tempo": 120.0
            },
            {
                "start_time": 135.2136364,
                "end_time": 135.8522727,
                "pitch": 55,
                "velocity": 51,
                "duration": 0.6386364,
                "tempo": 120.0
            },
            {
                "start_time": 135.8522727,
                "end_time": 135.9022727,
                "pitch": 55,
                "velocity": 51,
                "duration": 0.05,
                "tempo": 120.0
            },
            {
                "start_time": 135.2136364,
                "end_time": 135.9022727,
                "pitch": 67,
                "velocity": 51,
                "duration": 0.6886364,
                "tempo": 120.0
            },
            {
                "start_time": 135.8522727,
                "end_time": 135.9840909,
                "pitch": 0,
                "velocity": 51,
                "duration": 0.1318182,
                "tempo": 120.0
            },
            {
                "start_time": 135.9022727,
                "end_time": 135.9840909,
                "pitch": 55,
                "velocity": 51,
                "duration": 0.0818182,
                "tempo": 120.0
            },
            {
                "start_time": 135.9840909,
                "end_time": 136.0340909,
                "pitch": 55,
                "velocity": 51,
                "duration": 0.05,
                "tempo": 120.0
            },
            {
                "start_time": 135.9022727,
                "end_time": 136.0340909,
                "pitch": 67,
                "velocity": 51,
                "duration": 0.1318182,
                "tempo": 120.0
            },
            {
                "start_time": 135.9840909,
                "end_time": 136.1159091,
                "pitch": 0,
                "velocity": 51,
                "duration": 0.1318182,
                "tempo": 120.0
            },
            {
                "start_time": 136.0340909,
                "end_time": 136.1159091,
                "pitch": 55,
                "velocity": 51,
                "duration": 0.0818182,
                "tempo": 120.0
            },
            {
                "start_time": 136.1159091,
                "end_time": 136.1659091,
                "pitch": 55,
                "velocity": 51,
                "duration": 0.05,
                "tempo": 120.0
            },
            {
                "start_time": 136.0340909,
                "end_time": 136.1681818,
                "pitch": 67,
                "velocity": 51,
                "duration": 0.1340909,
                "tempo": 120.0
            },
            {
                "start_time": 136.1659091,
                "end_time": 136.1681818,
                "pitch": 67,
                "velocity": 51,
                "duration": 0.0022727,
                "tempo": 120.0
            },
            {
                "start_time": 136.1159091,
                "end_time": 136.25,
                "pitch": 0,
                "velocity": 51,
                "duration": 0.1340909,
                "tempo": 120.0
            },
            {
                "start_time": 136.1681818,
                "end_time": 136.25,
                "pitch": 55,
                "velocity": 51,
                "duration": 0.0818182,
                "tempo": 120.0
            },
            {
                "start_time": 136.25,
                "end_time": 136.3,
                "pitch": 55,
                "velocity": 51,
                "duration": 0.05,
                "tempo": 120.0
            },
            {
                "start_time": 136.25,
                "end_time": 136.3840909,
                "pitch": 0,
                "velocity": 51,
                "duration": 0.1340909,
                "tempo": 120.0
            },
            {
                "start_time": 136.3,
                "end_time": 136.3840909,
                "pitch": 55,
                "velocity": 51,
                "duration": 0.0840909,
                "tempo": 120.0
            },
            {
                "start_time": 136.3840909,
                "end_time": 136.4340909,
                "pitch": 55,
                "velocity": 51,
                "duration": 0.05,
                "tempo": 120.0
            },
            {
                "start_time": 136.3,
                "end_time": 136.4340909,
                "pitch": 67,
                "velocity": 51,
                "duration": 0.1340909,
                "tempo": 120.0
            },
            {
                "start_time": 136.3840909,
                "end_time": 136.5181818,
                "pitch": 0,
                "velocity": 51,
                "duration": 0.1340909,
                "tempo": 120.0
            },
            {
                "start_time": 136.4340909,
                "end_time": 136.5181818,
                "pitch": 55,
                "velocity": 51,
                "duration": 0.0840909,
                "tempo": 120.0
            },
            {
                "start_time": 136.5181818,
                "end_time": 136.5681818,
                "pitch": 55,
                "velocity": 51,
                "duration": 0.05,
                "tempo": 120.0
            },
            {
                "start_time": 136.4340909,
                "end_time": 136.5681818,
                "pitch": 67,
                "velocity": 51,
                "duration": 0.1340909,
                "tempo": 120.0
            },
            {
                "start_time": 136.5181818,
                "end_time": 136.6522727,
                "pitch": 0,
                "velocity": 51,
                "duration": 0.1340909,
                "tempo": 120.0
            },
            {
                "start_time": 136.5681818,
                "end_time": 136.6522727,
                "pitch": 55,
                "velocity": 51,
                "duration": 0.0840909,
                "tempo": 120.0
            },
            {
                "start_time": 136.6522727,
                "end_time": 136.7022727,
                "pitch": 55,
                "velocity": 51,
                "duration": 0.05,
                "tempo": 120.0
            },
            {
                "start_time": 136.5681818,
                "end_time": 136.7022727,
                "pitch": 67,
                "velocity": 51,
                "duration": 0.1340909,
                "tempo": 120.0
            },
            {
                "start_time": 136.6522727,
                "end_time": 136.7863636,
                "pitch": 0,
                "velocity": 51,
                "duration": 0.1340909,
                "tempo": 120.0
            },
            {
                "start_time": 136.7022727,
                "end_time": 136.7863636,
                "pitch": 55,
                "velocity": 51,
                "duration": 0.0840909,
                "tempo": 120.0
            },
            {
                "start_time": 136.7863636,
                "end_time": 136.8227273,
                "pitch": 55,
                "velocity": 51,
                "duration": 0.0363636,
                "tempo": 120.0
            },
            {
                "start_time": 136.7022727,
                "end_time": 136.8227273,
                "pitch": 67,
                "velocity": 51,
                "duration": 0.1204545,
                "tempo": 120.0
            },
            {
                "start_time": 128.7659091,
                "end_time": 138.4295455,
                "pitch": 57,
                "velocity": 51,
                "duration": 9.6636364,
                "tempo": 120.0
            },
            {
                "start_time": 136.8227273,
                "end_time": 138.4295455,
                "pitch": 57,
                "velocity": 51,
                "duration": 1.6068182,
                "tempo": 120.0
            },
            {
                "start_time": 138.4295455,
                "end_time": 140.0522727,
                "pitch": 57,
                "velocity": 51,
                "duration": 1.6227273,
                "tempo": 120.0
            },
            {
                "start_time": 140.0522727,
                "end_time": 141.6613636,
                "pitch": 57,
                "velocity": 51,
                "duration": 1.6090909,
                "tempo": 120.0
            },
            {
                "start_time": 131.9818182,
                "end_time": 143.2681818,
                "pitch": 59,
                "velocity": 51,
                "duration": 11.2863636,
                "tempo": 120.0
            },
            {
                "start_time": 141.6613636,
                "end_time": 143.2681818,
                "pitch": 59,
                "velocity": 51,
                "duration": 1.6068182,
                "tempo": 120.0
            },
            {
                "start_time": 136.7863636,
                "end_time": 143.9068182,
                "pitch": 0,
                "velocity": 51,
                "duration": 7.1204545,
                "tempo": 120.0
            },
            {
                "start_time": 143.2704545,
                "end_time": 143.9068182,
                "pitch": 55,
                "velocity": 51,
                "duration": 0.6363636,
                "tempo": 120.0
            },
            {
                "start_time": 143.9068182,
                "end_time": 143.9568182,
                "pitch": 55,
                "velocity": 51,
                "duration": 0.05,
                "tempo": 120.0
            },
            {
                "start_time": 136.8227273,
                "end_time": 143.9568182,
                "pitch": 67,
                "velocity": 51,
                "duration": 7.1340909,
                "tempo": 120.0
            },
            {
                "start_time": 143.9068182,
                "end_time": 144.0409091,
                "pitch": 0,
                "velocity": 51,
                "duration": 0.1340909,
                "tempo": 120.0
            },
            {
                "start_time": 143.9568182,
                "end_time": 144.0409091,
                "pitch": 55,
                "velocity": 51,
                "duration": 0.0840909,
                "tempo": 120.0
            },
            {
                "start_time": 144.0409091,
                "end_time": 144.0909091,
                "pitch": 55,
                "velocity": 51,
                "duration": 0.05,
                "tempo": 120.0
            },
            {
                "start_time": 143.9568182,
                "end_time": 144.0909091,
                "pitch": 67,
                "velocity": 51,
                "duration": 0.1340909,
                "tempo": 120.0
            },
            {
                "start_time": 144.0409091,
                "end_time": 144.175,
                "pitch": 0,
                "velocity": 51,
                "duration": 0.1340909,
                "tempo": 120.0
            },
            {
                "start_time": 144.0909091,
                "end_time": 144.175,
                "pitch": 55,
                "velocity": 51,
                "duration": 0.0840909,
                "tempo": 120.0
            },
            {
                "start_time": 144.175,
                "end_time": 144.225,
                "pitch": 55,
                "velocity": 51,
                "duration": 0.05,
                "tempo": 120.0
            },
            {
                "start_time": 144.0909091,
                "end_time": 144.225,
                "pitch": 67,
                "velocity": 51,
                "duration": 0.1340909,
                "tempo": 120.0
            },
            {
                "start_time": 144.175,
                "end_time": 144.3090909,
                "pitch": 0,
                "velocity": 51,
                "duration": 0.1340909,
                "tempo": 120.0
            },
            {
                "start_time": 144.225,
                "end_time": 144.3090909,
                "pitch": 55,
                "velocity": 51,
                "duration": 0.0840909,
                "tempo": 120.0
            },
            {
                "start_time": 144.3090909,
                "end_time": 144.3590909,
                "pitch": 55,
                "velocity": 51,
                "duration": 0.05,
                "tempo": 120.0
            },
            {
                "start_time": 144.225,
                "end_time": 144.3590909,
                "pitch": 67,
                "velocity": 51,
                "duration": 0.1340909,
                "tempo": 120.0
            },
            {
                "start_time": 144.3090909,
                "end_time": 144.4431818,
                "pitch": 0,
                "velocity": 51,
                "duration": 0.1340909,
                "tempo": 120.0
            },
            {
                "start_time": 144.3590909,
                "end_time": 144.4431818,
                "pitch": 55,
                "velocity": 51,
                "duration": 0.0840909,
                "tempo": 120.0
            },
            {
                "start_time": 144.4431818,
                "end_time": 144.4931818,
                "pitch": 55,
                "velocity": 51,
                "duration": 0.05,
                "tempo": 120.0
            },
            {
                "start_time": 144.3590909,
                "end_time": 144.4931818,
                "pitch": 67,
                "velocity": 51,
                "duration": 0.1340909,
                "tempo": 120.0
            },
            {
                "start_time": 144.4431818,
                "end_time": 144.5772727,
                "pitch": 0,
                "velocity": 51,
                "duration": 0.1340909,
                "tempo": 120.0
            },
            {
                "start_time": 144.4931818,
                "end_time": 144.5772727,
                "pitch": 55,
                "velocity": 51,
                "duration": 0.0840909,
                "tempo": 120.0
            },
            {
                "start_time": 144.5772727,
                "end_time": 144.6295455,
                "pitch": 55,
                "velocity": 51,
                "duration": 0.0522727,
                "tempo": 120.0
            },
            {
                "start_time": 144.4931818,
                "end_time": 144.6295455,
                "pitch": 67,
                "velocity": 51,
                "duration": 0.1363636,
                "tempo": 120.0
            },
            {
                "start_time": 144.5772727,
                "end_time": 144.7113636,
                "pitch": 0,
                "velocity": 51,
                "duration": 0.1340909,
                "tempo": 120.0
            },
            {
                "start_time": 144.6295455,
                "end_time": 144.7113636,
                "pitch": 55,
                "velocity": 51,
                "duration": 0.0818182,
                "tempo": 120.0
            },
            {
                "start_time": 144.7113636,
                "end_time": 144.7636364,
                "pitch": 55,
                "velocity": 51,
                "duration": 0.0522727,
                "tempo": 120.0
            },
            {
                "start_time": 144.6295455,
                "end_time": 144.7636364,
                "pitch": 67,
                "velocity": 51,
                "duration": 0.1340909,
                "tempo": 120.0
            },
            {
                "start_time": 144.7113636,
                "end_time": 144.8477273,
                "pitch": 0,
                "velocity": 51,
                "duration": 0.1363636,
                "tempo": 120.0
            },
            {
                "start_time": 144.7636364,
                "end_time": 144.8477273,
                "pitch": 55,
                "velocity": 51,
                "duration": 0.0840909,
                "tempo": 120.0
            },
            {
                "start_time": 144.8477273,
                "end_time": 144.8818182,
                "pitch": 55,
                "velocity": 51,
                "duration": 0.0340909,
                "tempo": 120.0
            },
            {
                "start_time": 144.7636364,
                "end_time": 144.8818182,
                "pitch": 67,
                "velocity": 51,
                "duration": 0.1181818,
                "tempo": 120.0
            },
            {
                "start_time": 144.8477273,
                "end_time": 145.5204545,
                "pitch": 0,
                "velocity": 51,
                "duration": 0.6727273,
                "tempo": 120.0
            },
            {
                "start_time": 144.8818182,
                "end_time": 145.5204545,
                "pitch": 55,
                "velocity": 51,
                "duration": 0.6386364,
                "tempo": 120.0
            },
            {
                "start_time": 145.5204545,
                "end_time": 145.5727273,
                "pitch": 55,
                "velocity": 51,
                "duration": 0.0522727,
                "tempo": 120.0
            },
            {
                "start_time": 144.8818182,
                "end_time": 145.5727273,
                "pitch": 67,
                "velocity": 51,
                "duration": 0.6909091,
                "tempo": 120.0
            },
            {
                "start_time": 145.5727273,
                "end_time": 145.6568182,
                "pitch": 55,
                "velocity": 51,
                "duration": 0.0840909,
                "tempo": 120.0
            },
            {
                "start_time": 145.5204545,
                "end_time": 145.6590909,
                "pitch": 0,
                "velocity": 51,
                "duration": 0.1386364,
                "tempo": 120.0
            },
            {
                "start_time": 145.6568182,
                "end_time": 145.6590909,
                "pitch": 0,
                "velocity": 51,
                "duration": 0.0022727,
                "tempo": 120.0
            },
            {
                "start_time": 145.6590909,
                "end_time": 145.7090909,
                "pitch": 55,
                "velocity": 51,
                "duration": 0.05,
                "tempo": 120.0
            },
            {
                "start_time": 145.5727273,
                "end_time": 145.7090909,
                "pitch": 67,
                "velocity": 51,
                "duration": 0.1363636,
                "tempo": 120.0
            },
            {
                "start_time": 145.7090909,
                "end_time": 145.7909091,
                "pitch": 55,
                "velocity": 51,
                "duration": 0.0818182,
                "tempo": 120.0
            },
            {
                "start_time": 145.7909091,
                "end_time": 145.8386364,
                "pitch": 55,
                "velocity": 51,
                "duration": 0.0477273,
                "tempo": 120.0
            },
            {
                "start_time": 145.7090909,
                "end_time": 145.8386364,
                "pitch": 67,
                "velocity": 51,
                "duration": 0.1295455,
                "tempo": 120.0
            },
            {
                "start_time": 145.7909091,
                "end_time": 145.9204545,
                "pitch": 0,
                "velocity": 51,
                "duration": 0.1295455,
                "tempo": 120.0
            },
            {
                "start_time": 145.8386364,
                "end_time": 145.9204545,
                "pitch": 55,
                "velocity": 51,
                "duration": 0.0818182,
                "tempo": 120.0
            },
            {
                "start_time": 145.9204545,
                "end_time": 145.9704545,
                "pitch": 55,
                "velocity": 51,
                "duration": 0.05,
                "tempo": 120.0
            },
            {
                "start_time": 145.8386364,
                "end_time": 145.9704545,
                "pitch": 67,
                "velocity": 51,
                "duration": 0.1318182,
                "tempo": 120.0
            },
            {
                "start_time": 145.9204545,
                "end_time": 146.0522727,
                "pitch": 0,
                "velocity": 51,
                "duration": 0.1318182,
                "tempo": 120.0
            },
            {
                "start_time": 145.9704545,
                "end_time": 146.0522727,
                "pitch": 55,
                "velocity": 51,
                "duration": 0.0818182,
                "tempo": 120.0
            },
            {
                "start_time": 146.0522727,
                "end_time": 146.1022727,
                "pitch": 55,
                "velocity": 51,
                "duration": 0.05,
                "tempo": 120.0
            },
            {
                "start_time": 145.9704545,
                "end_time": 146.1022727,
                "pitch": 67,
                "velocity": 51,
                "duration": 0.1318182,
                "tempo": 120.0
            },
            {
                "start_time": 146.0522727,
                "end_time": 146.1863636,
                "pitch": 0,
                "velocity": 51,
                "duration": 0.1340909,
                "tempo": 120.0
            },
            {
                "start_time": 146.1022727,
                "end_time": 146.1863636,
                "pitch": 55,
                "velocity": 51,
                "duration": 0.0840909,
                "tempo": 120.0
            },
            {
                "start_time": 146.1863636,
                "end_time": 146.2363636,
                "pitch": 55,
                "velocity": 51,
                "duration": 0.05,
                "tempo": 120.0
            },
            {
                "start_time": 146.1022727,
                "end_time": 146.2363636,
                "pitch": 67,
                "velocity": 51,
                "duration": 0.1340909,
                "tempo": 120.0
            },
            {
                "start_time": 146.1863636,
                "end_time": 146.3204545,
                "pitch": 0,
                "velocity": 51,
                "duration": 0.1340909,
                "tempo": 120.0
            },
            {
                "start_time": 146.2363636,
                "end_time": 146.3204545,
                "pitch": 55,
                "velocity": 51,
                "duration": 0.0840909,
                "tempo": 120.0
            },
            {
                "start_time": 146.3204545,
                "end_time": 146.3704545,
                "pitch": 55,
                "velocity": 51,
                "duration": 0.05,
                "tempo": 120.0
            },
            {
                "start_time": 146.2363636,
                "end_time": 146.3704545,
                "pitch": 67,
                "velocity": 51,
                "duration": 0.1340909,
                "tempo": 120.0
            },
            {
                "start_time": 146.3204545,
                "end_time": 146.4545455,
                "pitch": 0,
                "velocity": 51,
                "duration": 0.1340909,
                "tempo": 120.0
            },
            {
                "start_time": 146.3704545,
                "end_time": 146.4545455,
                "pitch": 55,
                "velocity": 51,
                "duration": 0.0840909,
                "tempo": 120.0
            },
            {
                "start_time": 146.4545455,
                "end_time": 146.4886364,
                "pitch": 55,
                "velocity": 51,
                "duration": 0.0340909,
                "tempo": 120.0
            },
            {
                "start_time": 146.3704545,
                "end_time": 147.1840909,
                "pitch": 67,
                "velocity": 51,
                "duration": 0.8136364,
                "tempo": 120.0
            },
            {
                "start_time": 146.4909091,
                "end_time": 147.1840909,
                "pitch": 67,
                "velocity": 51,
                "duration": 0.6931818,
                "tempo": 120.0
            },
            {
                "start_time": 146.4909091,
                "end_time": 147.1840909,
                "pitch": 79,
                "velocity": 51,
                "duration": 0.6931818,
                "tempo": 120.0
            },
            {
                "start_time": 147.1840909,
                "end_time": 147.3204545,
                "pitch": 67,
                "velocity": 51,
                "duration": 0.1363636,
                "tempo": 120.0
            },
            {
                "start_time": 147.1840909,
                "end_time": 147.3204545,
                "pitch": 79,
                "velocity": 51,
                "duration": 0.1363636,
                "tempo": 120.0
            },
            {
                "start_time": 147.3204545,
                "end_time": 147.4545455,
                "pitch": 67,
                "velocity": 51,
                "duration": 0.1340909,
                "tempo": 120.0
            },
            {
                "start_time": 147.3204545,
                "end_time": 147.4545455,
                "pitch": 79,
                "velocity": 51,
                "duration": 0.1340909,
                "tempo": 120.0
            },
            {
                "start_time": 147.4545455,
                "end_time": 147.5886364,
                "pitch": 67,
                "velocity": 51,
                "duration": 0.1340909,
                "tempo": 120.0
            },
            {
                "start_time": 147.4545455,
                "end_time": 147.5886364,
                "pitch": 79,
                "velocity": 51,
                "duration": 0.1340909,
                "tempo": 120.0
            },
            {
                "start_time": 147.5886364,
                "end_time": 147.7227273,
                "pitch": 67,
                "velocity": 51,
                "duration": 0.1340909,
                "tempo": 120.0
            },
            {
                "start_time": 147.5886364,
                "end_time": 147.7227273,
                "pitch": 79,
                "velocity": 51,
                "duration": 0.1340909,
                "tempo": 120.0
            },
            {
                "start_time": 147.7227273,
                "end_time": 147.8568182,
                "pitch": 67,
                "velocity": 51,
                "duration": 0.1340909,
                "tempo": 120.0
            },
            {
                "start_time": 147.7227273,
                "end_time": 147.8568182,
                "pitch": 79,
                "velocity": 51,
                "duration": 0.1340909,
                "tempo": 120.0
            },
            {
                "start_time": 147.8568182,
                "end_time": 147.9909091,
                "pitch": 67,
                "velocity": 51,
                "duration": 0.1340909,
                "tempo": 120.0
            },
            {
                "start_time": 147.8568182,
                "end_time": 147.9909091,
                "pitch": 79,
                "velocity": 51,
                "duration": 0.1340909,
                "tempo": 120.0
            },
            {
                "start_time": 147.9909091,
                "end_time": 148.1068182,
                "pitch": 67,
                "velocity": 51,
                "duration": 0.1159091,
                "tempo": 120.0
            },
            {
                "start_time": 147.9909091,
                "end_time": 148.1090909,
                "pitch": 79,
                "velocity": 51,
                "duration": 0.1181818,
                "tempo": 120.0
            },
            {
                "start_time": 148.1090909,
                "end_time": 148.7954545,
                "pitch": 67,
                "velocity": 51,
                "duration": 0.6863636,
                "tempo": 120.0
            },
            {
                "start_time": 148.1090909,
                "end_time": 148.7954545,
                "pitch": 79,
                "velocity": 51,
                "duration": 0.6863636,
                "tempo": 120.0
            },
            {
                "start_time": 148.7954545,
                "end_time": 148.9272727,
                "pitch": 67,
                "velocity": 51,
                "duration": 0.1318182,
                "tempo": 120.0
            },
            {
                "start_time": 148.7954545,
                "end_time": 148.9272727,
                "pitch": 79,
                "velocity": 51,
                "duration": 0.1318182,
                "tempo": 120.0
            },
            {
                "start_time": 148.9272727,
                "end_time": 149.0613636,
                "pitch": 67,
                "velocity": 51,
                "duration": 0.1340909,
                "tempo": 120.0
            },
            {
                "start_time": 148.9272727,
                "end_time": 149.0613636,
                "pitch": 79,
                "velocity": 51,
                "duration": 0.1340909,
                "tempo": 120.0
            },
            {
                "start_time": 149.0613636,
                "end_time": 149.1954545,
                "pitch": 67,
                "velocity": 51,
                "duration": 0.1340909,
                "tempo": 120.0
            },
            {
                "start_time": 149.0613636,
                "end_time": 149.1954545,
                "pitch": 79,
                "velocity": 51,
                "duration": 0.1340909,
                "tempo": 120.0
            },
            {
                "start_time": 149.1954545,
                "end_time": 149.3295455,
                "pitch": 67,
                "velocity": 51,
                "duration": 0.1340909,
                "tempo": 120.0
            },
            {
                "start_time": 149.1954545,
                "end_time": 149.3295455,
                "pitch": 79,
                "velocity": 51,
                "duration": 0.1340909,
                "tempo": 120.0
            },
            {
                "start_time": 149.3295455,
                "end_time": 149.4659091,
                "pitch": 67,
                "velocity": 51,
                "duration": 0.1363636,
                "tempo": 120.0
            },
            {
                "start_time": 149.3295455,
                "end_time": 149.4659091,
                "pitch": 79,
                "velocity": 51,
                "duration": 0.1363636,
                "tempo": 120.0
            },
            {
                "start_time": 149.4659091,
                "end_time": 149.6,
                "pitch": 67,
                "velocity": 51,
                "duration": 0.1340909,
                "tempo": 120.0
            },
            {
                "start_time": 149.4659091,
                "end_time": 149.6,
                "pitch": 79,
                "velocity": 51,
                "duration": 0.1340909,
                "tempo": 120.0
            },
            {
                "start_time": 149.6,
                "end_time": 149.7181818,
                "pitch": 67,
                "velocity": 51,
                "duration": 0.1181818,
                "tempo": 120.0
            },
            {
                "start_time": 149.6,
                "end_time": 149.7181818,
                "pitch": 79,
                "velocity": 51,
                "duration": 0.1181818,
                "tempo": 120.0
            },
            {
                "start_time": 48.2795455,
                "end_time": 151.3295455,
                "pitch": 69,
                "velocity": 51,
                "duration": 103.05,
                "tempo": 120.0
            },
            {
                "start_time": 149.7181818,
                "end_time": 151.3295455,
                "pitch": 69,
                "velocity": 51,
                "duration": 1.6113636,
                "tempo": 120.0
            },
            {
                "start_time": 151.3295455,
                "end_time": 152.9363636,
                "pitch": 69,
                "velocity": 51,
                "duration": 1.6068182,
                "tempo": 120.0
            },
            {
                "start_time": 152.9363636,
                "end_time": 154.5522727,
                "pitch": 69,
                "velocity": 51,
                "duration": 1.6159091,
                "tempo": 120.0
            },
            {
                "start_time": 154.5522727,
                "end_time": 156.1659091,
                "pitch": 71,
                "velocity": 51,
                "duration": 1.6136364,
                "tempo": 120.0
            },
            {
                "start_time": 156.1659091,
                "end_time": 157.775,
                "pitch": 72,
                "velocity": 51,
                "duration": 1.6090909,
                "tempo": 120.0
            },
            {
                "start_time": 55.3045455,
                "end_time": 159.3909091,
                "pitch": 74,
                "velocity": 51,
                "duration": 104.0863636,
                "tempo": 120.0
            },
            {
                "start_time": 157.775,
                "end_time": 159.3909091,
                "pitch": 74,
                "velocity": 51,
                "duration": 1.6159091,
                "tempo": 120.0
            },
            {
                "start_time": 159.5931818,
                "end_time": 159.7954545,
                "pitch": 74,
                "velocity": 51,
                "duration": 0.2022727,
                "tempo": 120.0
            },
            {
                "start_time": 159.7954545,
                "end_time": 159.9954545,
                "pitch": 74,
                "velocity": 51,
                "duration": 0.2,
                "tempo": 120.0
            },
            {
                "start_time": 159.9977273,
                "end_time": 160.1977273,
                "pitch": 77,
                "velocity": 51,
                "duration": 0.2,
                "tempo": 120.0
            },
            {
                "start_time": 160.1977273,
                "end_time": 160.3931818,
                "pitch": 77,
                "velocity": 51,
                "duration": 0.1954545,
                "tempo": 120.0
            },
            {
                "start_time": 159.7954545,
                "end_time": 160.5909091,
                "pitch": 76,
                "velocity": 51,
                "duration": 0.7954545,
                "tempo": 120.0
            },
            {
                "start_time": 159.9977273,
                "end_time": 161.0022727,
                "pitch": 74,
                "velocity": 51,
                "duration": 1.0045455,
                "tempo": 120.0
            },
            {
                "start_time": 160.5909091,
                "end_time": 161.0022727,
                "pitch": 74,
                "velocity": 51,
                "duration": 0.4113636,
                "tempo": 120.0
            },
            {
                "start_time": 54.9022727,
                "end_time": 161.2022727,
                "pitch": 56,
                "velocity": 51,
                "duration": 106.3,
                "tempo": 120.0
            },
            {
                "start_time": 157.775,
                "end_time": 161.2022727,
                "pitch": 71,
                "velocity": 51,
                "duration": 3.4272727,
                "tempo": 120.0
            },
            {
                "start_time": 161.0022727,
                "end_time": 161.2022727,
                "pitch": 71,
                "velocity": 51,
                "duration": 0.2,
                "tempo": 120.0
            },
            {
                "start_time": 160.5909091,
                "end_time": 161.4022727,
                "pitch": 76,
                "velocity": 51,
                "duration": 0.8113636,
                "tempo": 120.0
            },
            {
                "start_time": 161.2022727,
                "end_time": 161.4022727,
                "pitch": 76,
                "velocity": 51,
                "duration": 0.2,
                "tempo": 120.0
            },
            {
                "start_time": 161.4022727,
                "end_time": 161.6045455,
                "pitch": 74,
                "velocity": 51,
                "duration": 0.2022727,
                "tempo": 120.0
            },
            {
                "start_time": 161.0022727,
                "end_time": 161.8045455,
                "pitch": 77,
                "velocity": 51,
                "duration": 0.8022727,
                "tempo": 120.0
            },
            {
                "start_time": 161.6045455,
                "end_time": 161.8045455,
                "pitch": 77,
                "velocity": 51,
                "duration": 0.2,
                "tempo": 120.0
            },
            {
                "start_time": 161.8045455,
                "end_time": 162.0068182,
                "pitch": 77,
                "velocity": 51,
                "duration": 0.2022727,
                "tempo": 120.0
            },
            {
                "start_time": 161.4022727,
                "end_time": 162.8136364,
                "pitch": 76,
                "velocity": 51,
                "duration": 1.4113636,
                "tempo": 120.0
            },
            {
                "start_time": 162.2090909,
                "end_time": 162.8136364,
                "pitch": 76,
                "velocity": 51,
                "duration": 0.6045455,
                "tempo": 120.0
            },
            {
                "start_time": 56.5136364,
                "end_time": 162.8136364,
                "pitch": 90,
                "velocity": 51,
                "duration": 106.3,
                "tempo": 120.0
            },
            {
                "start_time": 149.7181818,
                "end_time": 163.0159091,
                "pitch": 79,
                "velocity": 51,
                "duration": 13.2977273,
                "tempo": 120.0
            },
            {
                "start_time": 162.8136364,
                "end_time": 163.0159091,
                "pitch": 79,
                "velocity": 51,
                "duration": 0.2022727,
                "tempo": 120.0
            },
            {
                "start_time": 56.9113636,
                "end_time": 163.2159091,
                "pitch": 89,
                "velocity": 51,
                "duration": 106.3045455,
                "tempo": 120.0
            },
            {
                "start_time": 163.2159091,
                "end_time": 163.4159091,
                "pitch": 84,
                "velocity": 51,
                "duration": 0.2,
                "tempo": 120.0
            },
            {
                "start_time": 57.1068182,
                "end_time": 163.4159091,
                "pitch": 88,
                "velocity": 51,
                "duration": 106.3090909,
                "tempo": 120.0
            },
            {
                "start_time": 163.4159091,
                "end_time": 163.6181818,
                "pitch": 83,
                "velocity": 51,
                "duration": 0.2022727,
                "tempo": 120.0
            },
            {
                "start_time": 163.8181818,
                "end_time": 164.2227273,
                "pitch": 83,
                "velocity": 51,
                "duration": 0.4045455,
                "tempo": 120.0
            },
            {
                "start_time": 164.2227273,
                "end_time": 164.4227273,
                "pitch": 81,
                "velocity": 51,
                "duration": 0.2,
                "tempo": 120.0
            },
            {
                "start_time": 164.4227273,
                "end_time": 165.0295455,
                "pitch": 83,
                "velocity": 51,
                "duration": 0.6068182,
                "tempo": 120.0
            },
            {
                "start_time": 165.0295455,
                "end_time": 165.1272727,
                "pitch": 81,
                "velocity": 51,
                "duration": 0.0977273,
                "tempo": 120.0
            },
            {
                "start_time": 165.1272727,
                "end_time": 165.2272727,
                "pitch": 83,
                "velocity": 51,
                "duration": 0.1,
                "tempo": 120.0
            },
            {
                "start_time": 165.2295455,
                "end_time": 165.6318182,
                "pitch": 81,
                "velocity": 51,
                "duration": 0.4022727,
                "tempo": 120.0
            },
            {
                "start_time": 133.6045455,
                "end_time": 166.8409091,
                "pitch": 64,
                "velocity": 51,
                "duration": 33.2363636,
                "tempo": 120.0
            },
            {
                "start_time": 165.8340909,
                "end_time": 166.8409091,
                "pitch": 64,
                "velocity": 51,
                "duration": 1.0068182,
                "tempo": 120.0
            },
            {
                "start_time": 166.8409091,
                "end_time": 167.0409091,
                "pitch": 64,
                "velocity": 51,
                "duration": 0.2,
                "tempo": 120.0
            },
            {
                "start_time": 60.7318182,
                "end_time": 167.0431818,
                "pitch": 78,
                "velocity": 51,
                "duration": 106.3113636,
                "tempo": 120.0
            },
            {
                "start_time": 167.0431818,
                "end_time": 167.2431818,
                "pitch": 67,
                "velocity": 51,
                "duration": 0.2,
                "tempo": 120.0
            },
            {
                "start_time": 156.1659091,
                "end_time": 167.8545455,
                "pitch": 55,
                "velocity": 51,
                "duration": 11.6886364,
                "tempo": 120.0
            },
            {
                "start_time": 167.4431818,
                "end_time": 167.8545455,
                "pitch": 55,
                "velocity": 51,
                "duration": 0.4113636,
                "tempo": 120.0
            },
            {
                "start_time": 167.8545455,
                "end_time": 168.2454545,
                "pitch": 55,
                "velocity": 51,
                "duration": 0.3909091,
                "tempo": 120.0
            },
            {
                "start_time": 141.6613636,
                "end_time": 168.2477273,
                "pitch": 57,
                "velocity": 51,
                "duration": 26.5863636,
                "tempo": 120.0
            },
            {
                "start_time": 143.2704545,
                "end_time": 168.6568182,
                "pitch": 59,
                "velocity": 51,
                "duration": 25.3863636,
                "tempo": 120.0
            },
            {
                "start_time": 168.2477273,
                "end_time": 168.6568182,
                "pitch": 59,
                "velocity": 51,
                "duration": 0.4090909,
                "tempo": 120.0
            },
            {
                "start_time": 168.6590909,
                "end_time": 169.0613636,
                "pitch": 59,
                "velocity": 51,
                "duration": 0.4022727,
                "tempo": 120.0
            }
        ],
        "Flute": [
            {
                "start_time": 91.7295455,
                "end_time": 92.5318182,
                "pitch": 69,
                "velocity": 51,
                "duration": 0.8022727,
                "tempo": 120.0
            },
            {
                "start_time": 91.7295455,
                "end_time": 93.3454545,
                "pitch": 71,
                "velocity": 51,
                "duration": 1.6159091,
                "tempo": 120.0
            },
            {
                "start_time": 92.5318182,
                "end_time": 93.3454545,
                "pitch": 71,
                "velocity": 51,
                "duration": 0.8136364,
                "tempo": 120.0
            },
            {
                "start_time": 93.3454545,
                "end_time": 94.0272727,
                "pitch": 67,
                "velocity": 51,
                "duration": 0.6818182,
                "tempo": 120.0
            },
            {
                "start_time": 94.0272727,
                "end_time": 94.1545455,
                "pitch": 67,
                "velocity": 51,
                "duration": 0.1272727,
                "tempo": 120.0
            },
            {
                "start_time": 94.0272727,
                "end_time": 94.1545455,
                "pitch": 79,
                "velocity": 51,
                "duration": 0.1272727,
                "tempo": 120.0
            },
            {
                "start_time": 94.1545455,
                "end_time": 94.2909091,
                "pitch": 67,
                "velocity": 51,
                "duration": 0.1363636,
                "tempo": 120.0
            },
            {
                "start_time": 94.1545455,
                "end_time": 94.2909091,
                "pitch": 79,
                "velocity": 51,
                "duration": 0.1363636,
                "tempo": 120.0
            },
            {
                "start_time": 94.2909091,
                "end_time": 94.4295455,
                "pitch": 67,
                "velocity": 51,
                "duration": 0.1386364,
                "tempo": 120.0
            },
            {
                "start_time": 94.2909091,
                "end_time": 94.4295455,
                "pitch": 79,
                "velocity": 51,
                "duration": 0.1386364,
                "tempo": 120.0
            },
            {
                "start_time": 94.4295455,
                "end_time": 94.5659091,
                "pitch": 67,
                "velocity": 51,
                "duration": 0.1363636,
                "tempo": 120.0
            },
            {
                "start_time": 94.4295455,
                "end_time": 94.5659091,
                "pitch": 79,
                "velocity": 51,
                "duration": 0.1363636,
                "tempo": 120.0
            },
            {
                "start_time": 94.5659091,
                "end_time": 94.7,
                "pitch": 67,
                "velocity": 51,
                "duration": 0.1340909,
                "tempo": 120.0
            },
            {
                "start_time": 94.5659091,
                "end_time": 94.7,
                "pitch": 79,
                "velocity": 51,
                "duration": 0.1340909,
                "tempo": 120.0
            },
            {
                "start_time": 94.7,
                "end_time": 94.8340909,
                "pitch": 67,
                "velocity": 51,
                "duration": 0.1340909,
                "tempo": 120.0
            },
            {
                "start_time": 94.7,
                "end_time": 94.8340909,
                "pitch": 79,
                "velocity": 51,
                "duration": 0.1340909,
                "tempo": 120.0
            },
            {
                "start_time": 94.8340909,
                "end_time": 94.9545455,
                "pitch": 67,
                "velocity": 51,
                "duration": 0.1204545,
                "tempo": 120.0
            },
            {
                "start_time": 94.8340909,
                "end_time": 94.9545455,
                "pitch": 79,
                "velocity": 51,
                "duration": 0.1204545,
                "tempo": 120.0
            },
            {
                "start_time": 92.5318182,
                "end_time": 95.7568182,
                "pitch": 69,
                "velocity": 51,
                "duration": 3.225,
                "tempo": 120.0
            },
            {
                "start_time": 94.9545455,
                "end_time": 95.7568182,
                "pitch": 69,
                "velocity": 51,
                "duration": 0.8022727,
                "tempo": 120.0
            },
            {
                "start_time": 95.7568182,
                "end_time": 95.7590909,
                "pitch": 69,
                "velocity": 51,
                "duration": 0.0022727,
                "tempo": 120.0
            },
            {
                "start_time": 93.3454545,
                "end_time": 96.5613636,
                "pitch": 71,
                "velocity": 51,
                "duration": 3.2159091,
                "tempo": 120.0
            },
            {
                "start_time": 95.7590909,
                "end_time": 96.5613636,
                "pitch": 71,
                "velocity": 51,
                "duration": 0.8022727,
                "tempo": 120.0
            },
            {
                "start_time": 96.5613636,
                "end_time": 97.2431818,
                "pitch": 67,
                "velocity": 51,
                "duration": 0.6818182,
                "tempo": 120.0
            },
            {
                "start_time": 94.9545455,
                "end_time": 97.2431818,
                "pitch": 79,
                "velocity": 51,
                "duration": 2.2886364,
                "tempo": 120.0
            },
            {
                "start_time": 97.2431818,
                "end_time": 97.3818182,
                "pitch": 67,
                "velocity": 51,
                "duration": 0.1386364,
                "tempo": 120.0
            },
            {
                "start_time": 97.2431818,
                "end_time": 97.3818182,
                "pitch": 79,
                "velocity": 51,
                "duration": 0.1386364,
                "tempo": 120.0
            },
            {
                "start_time": 97.3818182,
                "end_time": 97.5136364,
                "pitch": 67,
                "velocity": 51,
                "duration": 0.1318182,
                "tempo": 120.0
            },
            {
                "start_time": 97.3818182,
                "end_time": 97.5136364,
                "pitch": 79,
                "velocity": 51,
                "duration": 0.1318182,
                "tempo": 120.0
            },
            {
                "start_time": 97.5136364,
                "end_time": 97.6477273,
                "pitch": 67,
                "velocity": 51,
                "duration": 0.1340909,
                "tempo": 120.0
            },
            {
                "start_time": 97.5136364,
                "end_time": 97.6477273,
                "pitch": 79,
                "velocity": 51,
                "duration": 0.1340909,
                "tempo": 120.0
            },
            {
                "start_time": 97.6477273,
                "end_time": 97.7818182,
                "pitch": 67,
                "velocity": 51,
                "duration": 0.1340909,
                "tempo": 120.0
            },
            {
                "start_time": 97.6477273,
                "end_time": 97.7818182,
                "pitch": 79,
                "velocity": 51,
                "duration": 0.1340909,
                "tempo": 120.0
            },
            {
                "start_time": 97.7818182,
                "end_time": 97.9159091,
                "pitch": 67,
                "velocity": 51,
                "duration": 0.1340909,
                "tempo": 120.0
            },
            {
                "start_time": 97.7818182,
                "end_time": 97.9159091,
                "pitch": 79,
                "velocity": 51,
                "duration": 0.1340909,
                "tempo": 120.0
            },
            {
                "start_time": 97.9159091,
                "end_time": 98.05,
                "pitch": 67,
                "velocity": 51,
                "duration": 0.1340909,
                "tempo": 120.0
            },
            {
                "start_time": 97.9159091,
                "end_time": 98.05,
                "pitch": 79,
                "velocity": 51,
                "duration": 0.1340909,
                "tempo": 120.0
            },
            {
                "start_time": 98.05,
                "end_time": 98.1704545,
                "pitch": 67,
                "velocity": 51,
                "duration": 0.1204545,
                "tempo": 120.0
            },
            {
                "start_time": 98.05,
                "end_time": 98.1704545,
                "pitch": 79,
                "velocity": 51,
                "duration": 0.1204545,
                "tempo": 120.0
            },
            {
                "start_time": 98.1704545,
                "end_time": 98.375,
                "pitch": 69,
                "velocity": 51,
                "duration": 0.2045455,
                "tempo": 120.0
            },
            {
                "start_time": 98.375,
                "end_time": 98.5795455,
                "pitch": 69,
                "velocity": 51,
                "duration": 0.2045455,
                "tempo": 120.0
            },
            {
                "start_time": 98.5818182,
                "end_time": 98.7818182,
                "pitch": 69,
                "velocity": 51,
                "duration": 0.2,
                "tempo": 120.0
            },
            {
                "start_time": 98.7818182,
                "end_time": 99.1840909,
                "pitch": 68,
                "velocity": 51,
                "duration": 0.4022727,
                "tempo": 120.0
            },
            {
                "start_time": 99.1840909,
                "end_time": 99.3840909,
                "pitch": 69,
                "velocity": 51,
                "duration": 0.2,
                "tempo": 120.0
            },
            {
                "start_time": 99.3840909,
                "end_time": 99.5818182,
                "pitch": 72,
                "velocity": 51,
                "duration": 0.1977273,
                "tempo": 120.0
            },
            {
                "start_time": 99.5818182,
                "end_time": 99.7772727,
                "pitch": 74,
                "velocity": 51,
                "duration": 0.1954545,
                "tempo": 120.0
            },
            {
                "start_time": 99.7772727,
                "end_time": 100.3795455,
                "pitch": 76,
                "velocity": 51,
                "duration": 0.6022727,
                "tempo": 120.0
            },
            {
                "start_time": 98.1704545,
                "end_time": 101.0727273,
                "pitch": 79,
                "velocity": 51,
                "duration": 2.9022727,
                "tempo": 120.0
            },
            {
                "start_time": 100.3818182,
                "end_time": 101.0727273,
                "pitch": 79,
                "velocity": 51,
                "duration": 0.6909091,
                "tempo": 120.0
            },
            {
                "start_time": 101.0727273,
                "end_time": 101.2045455,
                "pitch": 79,
                "velocity": 51,
                "duration": 0.1318182,
                "tempo": 120.0
            },
            {
                "start_time": 101.0727273,
                "end_time": 101.2045455,
                "pitch": 91,
                "velocity": 51,
                "duration": 0.1318182,
                "tempo": 120.0
            },
            {
                "start_time": 101.2045455,
                "end_time": 101.3340909,
                "pitch": 79,
                "velocity": 51,
                "duration": 0.1295455,
                "tempo": 120.0
            },
            {
                "start_time": 101.2045455,
                "end_time": 101.3340909,
                "pitch": 91,
                "velocity": 51,
                "duration": 0.1295455,
                "tempo": 120.0
            },
            {
                "start_time": 101.3340909,
                "end_time": 101.3863636,
                "pitch": 79,
                "velocity": 51,
                "duration": 0.0522727,
                "tempo": 120.0
            },
            {
                "start_time": 101.3863636,
                "end_time": 101.7863636,
                "pitch": 79,
                "velocity": 51,
                "duration": 0.4,
                "tempo": 120.0
            },
            {
                "start_time": 101.7863636,
                "end_time": 102.1977273,
                "pitch": 81,
                "velocity": 51,
                "duration": 0.4113636,
                "tempo": 120.0
            },
            {
                "start_time": 102.1977273,
                "end_time": 102.6,
                "pitch": 84,
                "velocity": 51,
                "duration": 0.4022727,
                "tempo": 120.0
            },
            {
                "start_time": 102.6,
                "end_time": 102.8022727,
                "pitch": 86,
                "velocity": 51,
                "duration": 0.2022727,
                "tempo": 120.0
            },
            {
                "start_time": 102.8022727,
                "end_time": 103.4045455,
                "pitch": 81,
                "velocity": 51,
                "duration": 0.6022727,
                "tempo": 120.0
            },
            {
                "start_time": 102.1977273,
                "end_time": 103.8068182,
                "pitch": 68,
                "velocity": 51,
                "duration": 1.6090909,
                "tempo": 120.0
            },
            {
                "start_time": 103.4045455,
                "end_time": 103.8068182,
                "pitch": 81,
                "velocity": 51,
                "duration": 0.4022727,
                "tempo": 120.0
            },
            {
                "start_time": 102.6,
                "end_time": 104.2090909,
                "pitch": 84,
                "velocity": 51,
                "duration": 1.6090909,
                "tempo": 120.0
            },
            {
                "start_time": 103.8068182,
                "end_time": 104.2090909,
                "pitch": 84,
                "velocity": 51,
                "duration": 0.4022727,
                "tempo": 120.0
            },
            {
                "start_time": 104.2090909,
                "end_time": 104.4090909,
                "pitch": 86,
                "velocity": 51,
                "duration": 0.2,
                "tempo": 120.0
            },
            {
                "start_time": 102.8022727,
                "end_time": 104.4113636,
                "pitch": 89,
                "velocity": 51,
                "duration": 1.6090909,
                "tempo": 120.0
            },
            {
                "start_time": 104.4090909,
                "end_time": 104.4113636,
                "pitch": 89,
                "velocity": 51,
                "duration": 0.0022727,
                "tempo": 120.0
            },
            {
                "start_time": 104.4113636,
                "end_time": 105.0136364,
                "pitch": 81,
                "velocity": 51,
                "duration": 0.6022727,
                "tempo": 120.0
            },
            {
                "start_time": 103.8068182,
                "end_time": 105.425,
                "pitch": 68,
                "velocity": 51,
                "duration": 1.6181818,
                "tempo": 120.0
            },
            {
                "start_time": 105.0136364,
                "end_time": 105.425,
                "pitch": 81,
                "velocity": 51,
                "duration": 0.4113636,
                "tempo": 120.0
            },
            {
                "start_time": 104.2090909,
                "end_time": 105.8272727,
                "pitch": 84,
                "velocity": 51,
                "duration": 1.6181818,
                "tempo": 120.0
            },
            {
                "start_time": 105.425,
                "end_time": 105.8272727,
                "pitch": 84,
                "velocity": 51,
                "duration": 0.4022727,
                "tempo": 120.0
            },
            {
                "start_time": 105.8272727,
                "end_time": 106.0227273,
                "pitch": 86,
                "velocity": 51,
                "duration": 0.1954545,
                "tempo": 120.0
            },
            {
                "start_time": 106.0227273,
                "end_time": 106.6227273,
                "pitch": 81,
                "velocity": 51,
                "duration": 0.6,
                "tempo": 120.0
            },
            {
                "start_time": 105.425,
                "end_time": 107.025,
                "pitch": 68,
                "velocity": 51,
                "duration": 1.6,
                "tempo": 120.0
            },
            {
                "start_time": 106.6227273,
                "end_time": 107.025,
                "pitch": 81,
                "velocity": 51,
                "duration": 0.4022727,
                "tempo": 120.0
            },
            {
                "start_time": 105.8272727,
                "end_time": 107.4363636,
                "pitch": 84,
                "velocity": 51,
                "duration": 1.6090909,
                "tempo": 120.0
            },
            {
                "start_time": 107.025,
                "end_time": 107.4363636,
                "pitch": 84,
                "velocity": 51,
                "duration": 0.4113636,
                "tempo": 120.0
            },
            {
                "start_time": 107.4386364,
                "end_time": 107.8318182,
                "pitch": 86,
                "velocity": 51,
                "duration": 0.3931818,
                "tempo": 120.0
            }
        ],
        "French Horn": [
            {
                "start_time": 2.2136364,
                "end_time": 2.3136364,
                "pitch": 60,
                "velocity": 64,
                "duration": 0.1,
                "tempo": 120.0
            },
            {
                "start_time": 2.3136364,
                "end_time": 2.4136364,
                "pitch": 62,
                "velocity": 64,
                "duration": 0.1,
                "tempo": 120.0
            },
            {
                "start_time": 2.4159091,
                "end_time": 3.2181818,
                "pitch": 64,
                "velocity": 64,
                "duration": 0.8022727,
                "tempo": 120.0
            },
            {
                "start_time": 3.2204545,
                "end_time": 3.6204545,
                "pitch": 52,
                "velocity": 64,
                "duration": 0.4,
                "tempo": 120.0
            },
            {
                "start_time": 3.6204545,
                "end_time": 4.0295455,
                "pitch": 57,
                "velocity": 64,
                "duration": 0.4090909,
                "tempo": 120.0
            },
            {
                "start_time": 2.3136364,
                "end_time": 4.4227273,
                "pitch": 60,
                "velocity": 64,
                "duration": 2.1090909,
                "tempo": 120.0
            },
            {
                "start_time": 4.0295455,
                "end_time": 4.4227273,
                "pitch": 60,
                "velocity": 64,
                "duration": 0.3931818,
                "tempo": 120.0
            },
            {
                "start_time": 4.4227273,
                "end_time": 4.8363636,
                "pitch": 67,
                "velocity": 64,
                "duration": 0.4136364,
                "tempo": 120.0
            },
            {
                "start_time": 5.4340909,
                "end_time": 5.5318182,
                "pitch": 60,
                "velocity": 64,
                "duration": 0.0977273,
                "tempo": 120.0
            },
            {
                "start_time": 2.4159091,
                "end_time": 5.6295455,
                "pitch": 62,
                "velocity": 64,
                "duration": 3.2136364,
                "tempo": 120.0
            },
            {
                "start_time": 5.5318182,
                "end_time": 5.6295455,
                "pitch": 62,
                "velocity": 64,
                "duration": 0.0977273,
                "tempo": 120.0
            },
            {
                "start_time": 5.4340909,
                "end_time": 6.0409091,
                "pitch": 64,
                "velocity": 64,
                "duration": 0.6068182,
                "tempo": 120.0
            },
            {
                "start_time": 5.6295455,
                "end_time": 6.0409091,
                "pitch": 64,
                "velocity": 64,
                "duration": 0.4113636,
                "tempo": 120.0
            },
            {
                "start_time": 3.6204545,
                "end_time": 6.0409091,
                "pitch": 66,
                "velocity": 64,
                "duration": 2.4204545,
                "tempo": 120.0
            },
            {
                "start_time": 6.0409091,
                "end_time": 6.4522727,
                "pitch": 59,
                "velocity": 64,
                "duration": 0.4113636,
                "tempo": 120.0
            },
            {
                "start_time": 6.4545455,
                "end_time": 7.2477273,
                "pitch": 57,
                "velocity": 64,
                "duration": 0.7931818,
                "tempo": 120.0
            },
            {
                "start_time": 6.4545455,
                "end_time": 8.0545455,
                "pitch": 59,
                "velocity": 64,
                "duration": 1.6,
                "tempo": 120.0
            },
            {
                "start_time": 7.25,
                "end_time": 8.0545455,
                "pitch": 59,
                "velocity": 64,
                "duration": 0.8045455,
                "tempo": 120.0
            },
            {
                "start_time": 5.5318182,
                "end_time": 8.7545455,
                "pitch": 60,
                "velocity": 64,
                "duration": 3.2227273,
                "tempo": 120.0
            },
            {
                "start_time": 8.6545455,
                "end_time": 8.7545455,
                "pitch": 60,
                "velocity": 64,
                "duration": 0.1,
                "tempo": 120.0
            },
            {
                "start_time": 5.6295455,
                "end_time": 8.8568182,
                "pitch": 62,
                "velocity": 64,
                "duration": 3.2272727,
                "tempo": 120.0
            },
            {
                "start_time": 8.7545455,
                "end_time": 8.8568182,
                "pitch": 62,
                "velocity": 64,
                "duration": 0.1022727,
                "tempo": 120.0
            },
            {
                "start_time": 8.8568182,
                "end_time": 9.6613636,
                "pitch": 64,
                "velocity": 64,
                "duration": 0.8045455,
                "tempo": 120.0
            },
            {
                "start_time": 9.6613636,
                "end_time": 10.0613636,
                "pitch": 52,
                "velocity": 64,
                "duration": 0.4,
                "tempo": 120.0
            },
            {
                "start_time": 6.0409091,
                "end_time": 10.0613636,
                "pitch": 66,
                "velocity": 64,
                "duration": 4.0204545,
                "tempo": 120.0
            },
            {
                "start_time": 4.0295455,
                "end_time": 10.4727273,
                "pitch": 31,
                "velocity": 64,
                "duration": 6.4431818,
                "tempo": 120.0
            },
            {
                "start_time": 7.25,
                "end_time": 10.4727273,
                "pitch": 57,
                "velocity": 64,
                "duration": 3.2227273,
                "tempo": 120.0
            },
            {
                "start_time": 10.0613636,
                "end_time": 10.4727273,
                "pitch": 57,
                "velocity": 64,
                "duration": 0.4113636,
                "tempo": 120.0
            },
            {
                "start_time": 8.7545455,
                "end_time": 10.8659091,
                "pitch": 60,
                "velocity": 64,
                "duration": 2.1113636,
                "tempo": 120.0
            },
            {
                "start_time": 10.4727273,
                "end_time": 10.8659091,
                "pitch": 60,
                "velocity": 64,
                "duration": 0.3931818,
                "tempo": 120.0
            },
            {
                "start_time": 4.4227273,
                "end_time": 10.8659091,
                "pitch": 76,
                "velocity": 64,
                "duration": 6.4431818,
                "tempo": 120.0
            },
            {
                "start_time": 10.8659091,
                "end_time": 11.2772727,
                "pitch": 67,
                "velocity": 64,
                "duration": 0.4113636,
                "tempo": 120.0
            },
            {
                "start_time": 11.8795455,
                "end_time": 11.9818182,
                "pitch": 60,
                "velocity": 64,
                "duration": 0.1022727,
                "tempo": 120.0
            },
            {
                "start_time": 8.8568182,
                "end_time": 12.0818182,
                "pitch": 62,
                "velocity": 64,
                "duration": 3.225,
                "tempo": 120.0
            },
            {
                "start_time": 11.9818182,
                "end_time": 12.0818182,
                "pitch": 62,
                "velocity": 64,
                "duration": 0.1,
                "tempo": 120.0
            },
            {
                "start_time": 11.8795455,
                "end_time": 12.4840909,
                "pitch": 64,
                "velocity": 64,
                "duration": 0.6045455,
                "tempo": 120.0
            },
            {
                "start_time": 12.0818182,
                "end_time": 12.4840909,
                "pitch": 64,
                "velocity": 64,
                "duration": 0.4022727,
                "tempo": 120.0
            },
            {
                "start_time": 10.0613636,
                "end_time": 12.4840909,
                "pitch": 66,
                "velocity": 64,
                "duration": 2.4227273,
                "tempo": 120.0
            },
            {
                "start_time": 12.4840909,
                "end_time": 12.8863636,
                "pitch": 59,
                "velocity": 64,
                "duration": 0.4022727,
                "tempo": 120.0
            },
            {
                "start_time": 12.8886364,
                "end_time": 13.4909091,
                "pitch": 53,
                "velocity": 64,
                "duration": 0.6022727,
                "tempo": 120.0
            },
            {
                "start_time": 11.9818182,
                "end_time": 13.5909091,
                "pitch": 60,
                "velocity": 64,
                "duration": 1.6090909,
                "tempo": 120.0
            },
            {
                "start_time": 13.4909091,
                "end_time": 13.5909091,
                "pitch": 60,
                "velocity": 64,
                "duration": 0.1,
                "tempo": 120.0
            },
            {
                "start_time": 12.0818182,
                "end_time": 13.6931818,
                "pitch": 62,
                "velocity": 64,
                "duration": 1.6113636,
                "tempo": 120.0
            },
            {
                "start_time": 13.5931818,
                "end_time": 13.6931818,
                "pitch": 62,
                "velocity": 64,
                "duration": 0.1,
                "tempo": 120.0
            },
            {
                "start_time": 13.4909091,
                "end_time": 13.6931818,
                "pitch": 65,
                "velocity": 64,
                "duration": 0.2022727,
                "tempo": 120.0
            },
            {
                "start_time": 13.6931818,
                "end_time": 14.4909091,
                "pitch": 59,
                "velocity": 64,
                "duration": 0.7977273,
                "tempo": 120.0
            },
            {
                "start_time": 8.6545455,
                "end_time": 14.6931818,
                "pitch": 45,
                "velocity": 64,
                "duration": 6.0386364,
                "tempo": 120.0
            },
            {
                "start_time": 13.5931818,
                "end_time": 16.3113636,
                "pitch": 60,
                "velocity": 64,
                "duration": 2.7181818,
                "tempo": 120.0
            },
            {
                "start_time": 14.6931818,
                "end_time": 16.3113636,
                "pitch": 60,
                "velocity": 40,
                "duration": 1.6181818,
                "tempo": 120.0
            },
            {
                "start_time": 16.3113636,
                "end_time": 17.9227273,
                "pitch": 58,
                "velocity": 40,
                "duration": 1.6113636,
                "tempo": 120.0
            },
            {
                "start_time": 17.9227273,
                "end_time": 20.3295455,
                "pitch": 58,
                "velocity": 40,
                "duration": 2.4068182,
                "tempo": 120.0
            },
            {
                "start_time": 20.3295455,
                "end_time": 20.7386364,
                "pitch": 57,
                "velocity": 40,
                "duration": 0.4090909,
                "tempo": 120.0
            },
            {
                "start_time": 20.7386364,
                "end_time": 21.1386364,
                "pitch": 53,
                "velocity": 40,
                "duration": 0.4,
                "tempo": 120.0
            },
            {
                "start_time": 21.1409091,
                "end_time": 22.7454545,
                "pitch": 50,
                "velocity": 40,
                "duration": 1.6045455,
                "tempo": 120.0
            },
            {
                "start_time": 22.7454545,
                "end_time": 24.3522727,
                "pitch": 52,
                "velocity": 40,
                "duration": 1.6068182,
                "tempo": 120.0
            },
            {
                "start_time": 24.3522727,
                "end_time": 25.9590909,
                "pitch": 52,
                "velocity": 40,
                "duration": 1.6068182,
                "tempo": 120.0
            },
            {
                "start_time": 12.4840909,
                "end_time": 25.9590909,
                "pitch": 66,
                "velocity": 64,
                "duration": 13.475,
                "tempo": 120.0
            },
            {
                "start_time": 20.7386364,
                "end_time": 26.5954545,
                "pitch": 0,
                "velocity": 40,
                "duration": 5.8568182,
                "tempo": 120.0
            },
            {
                "start_time": 25.9590909,
                "end_time": 26.5954545,
                "pitch": 55,
                "velocity": 40,
                "duration": 0.6363636,
                "tempo": 120.0
            },
            {
                "start_time": 26.5954545,
                "end_time": 26.6454545,
                "pitch": 55,
                "velocity": 40,
                "duration": 0.05,
                "tempo": 120.0
            },
            {
                "start_time": 26.5954545,
                "end_time": 26.7318182,
                "pitch": 0,
                "velocity": 40,
                "duration": 0.1363636,
                "tempo": 120.0
            },
            {
                "start_time": 26.6454545,
                "end_time": 26.7318182,
                "pitch": 55,
                "velocity": 40,
                "duration": 0.0863636,
                "tempo": 120.0
            },
            {
                "start_time": 26.7318182,
                "end_time": 26.7681818,
                "pitch": 55,
                "velocity": 40,
                "duration": 0.0363636,
                "tempo": 120.0
            },
            {
                "start_time": 26.975,
                "end_time": 27.175,
                "pitch": 55,
                "velocity": 40,
                "duration": 0.2,
                "tempo": 120.0
            },
            {
                "start_time": 27.175,
                "end_time": 27.3772727,
                "pitch": 55,
                "velocity": 40,
                "duration": 0.2022727,
                "tempo": 120.0
            },
            {
                "start_time": 27.3772727,
                "end_time": 27.5772727,
                "pitch": 57,
                "velocity": 40,
                "duration": 0.2,
                "tempo": 120.0
            },
            {
                "start_time": 16.3113636,
                "end_time": 29.1840909,
                "pitch": 64,
                "velocity": 40,
                "duration": 12.8727273,
                "tempo": 120.0
            },
            {
                "start_time": 29.1840909,
                "end_time": 30.7886364,
                "pitch": 58,
                "velocity": 40,
                "duration": 1.6045455,
                "tempo": 120.0
            },
            {
                "start_time": 30.7886364,
                "end_time": 33.1977273,
                "pitch": 58,
                "velocity": 40,
                "duration": 2.4090909,
                "tempo": 120.0
            },
            {
                "start_time": 33.1977273,
                "end_time": 33.5977273,
                "pitch": 57,
                "velocity": 40,
                "duration": 0.4,
                "tempo": 120.0
            },
            {
                "start_time": 26.7318182,
                "end_time": 33.6,
                "pitch": 0,
                "velocity": 40,
                "duration": 6.8681818,
                "tempo": 120.0
            },
            {
                "start_time": 21.1409091,
                "end_time": 34.0045455,
                "pitch": 53,
                "velocity": 40,
                "duration": 12.8636364,
                "tempo": 120.0
            },
            {
                "start_time": 33.6,
                "end_time": 34.0045455,
                "pitch": 53,
                "velocity": 40,
                "duration": 0.4045455,
                "tempo": 120.0
            },
            {
                "start_time": 22.7454545,
                "end_time": 34.6022727,
                "pitch": 50,
                "velocity": 40,
                "duration": 11.8568182,
                "tempo": 120.0
            },
            {
                "start_time": 34.0045455,
                "end_time": 34.6022727,
                "pitch": 50,
                "velocity": 40,
                "duration": 0.5977273,
                "tempo": 120.0
            },
            {
                "start_time": 13.6931818,
                "end_time": 34.6022727,
                "pitch": 65,
                "velocity": 64,
                "duration": 20.9090909,
                "tempo": 120.0
            },
            {
                "start_time": 34.6022727,
                "end_time": 34.8090909,
                "pitch": 57,
                "velocity": 40,
                "duration": 0.2068182,
                "tempo": 120.0
            },
            {
                "start_time": 33.6,
                "end_time": 35.4090909,
                "pitch": 0,
                "velocity": 40,
                "duration": 1.8090909,
                "tempo": 120.0
            },
            {
                "start_time": 35.0136364,
                "end_time": 35.4090909,
                "pitch": 57,
                "velocity": 40,
                "duration": 0.3954545,
                "tempo": 120.0
            },
            {
                "start_time": 34.0045455,
                "end_time": 35.6113636,
                "pitch": 53,
                "velocity": 40,
                "duration": 1.6068182,
                "tempo": 120.0
            },
            {
                "start_time": 35.4090909,
                "end_time": 35.6113636,
                "pitch": 53,
                "velocity": 40,
                "duration": 0.2022727,
                "tempo": 120.0
            },
            {
                "start_time": 25.9590909,
                "end_time": 35.6113636,
                "pitch": 66,
                "velocity": 40,
                "duration": 9.6522727,
                "tempo": 120.0
            },
            {
                "start_time": 35.4090909,
                "end_time": 36.2431818,
                "pitch": 0,
                "velocity": 40,
                "duration": 0.8340909,
                "tempo": 120.0
            },
            {
                "start_time": 35.6113636,
                "end_time": 36.2431818,
                "pitch": 55,
                "velocity": 40,
                "duration": 0.6318182,
                "tempo": 120.0
            },
            {
                "start_time": 36.2431818,
                "end_time": 36.2931818,
                "pitch": 55,
                "velocity": 40,
                "duration": 0.05,
                "tempo": 120.0
            },
            {
                "start_time": 26.6454545,
                "end_time": 36.2931818,
                "pitch": 67,
                "velocity": 40,
                "duration": 9.6477273,
                "tempo": 120.0
            },
            {
                "start_time": 36.2931818,
                "end_time": 36.375,
                "pitch": 55,
                "velocity": 40,
                "duration": 0.0818182,
                "tempo": 120.0
            },
            {
                "start_time": 36.2431818,
                "end_time": 36.3772727,
                "pitch": 0,
                "velocity": 40,
                "duration": 0.1340909,
                "tempo": 120.0
            },
            {
                "start_time": 36.375,
                "end_time": 36.3772727,
                "pitch": 0,
                "velocity": 40,
                "duration": 0.0022727,
                "tempo": 120.0
            },
            {
                "start_time": 36.3772727,
                "end_time": 36.425,
                "pitch": 55,
                "velocity": 40,
                "duration": 0.0477273,
                "tempo": 120.0
            },
            {
                "start_time": 36.2931818,
                "end_time": 36.425,
                "pitch": 67,
                "velocity": 40,
                "duration": 0.1318182,
                "tempo": 120.0
            },
            {
                "start_time": 36.425,
                "end_time": 36.5090909,
                "pitch": 55,
                "velocity": 40,
                "duration": 0.0840909,
                "tempo": 120.0
            },
            {
                "start_time": 36.5090909,
                "end_time": 36.5590909,
                "pitch": 55,
                "velocity": 40,
                "duration": 0.05,
                "tempo": 120.0
            },
            {
                "start_time": 36.425,
                "end_time": 36.5590909,
                "pitch": 67,
                "velocity": 40,
                "duration": 0.1340909,
                "tempo": 120.0
            },
            {
                "start_time": 36.5090909,
                "end_time": 36.6431818,
                "pitch": 0,
                "velocity": 40,
                "duration": 0.1340909,
                "tempo": 120.0
            },
            {
                "start_time": 36.5590909,
                "end_time": 36.6431818,
                "pitch": 55,
                "velocity": 40,
                "duration": 0.0840909,
                "tempo": 120.0
            },
            {
                "start_time": 36.6431818,
                "end_time": 36.6954545,
                "pitch": 55,
                "velocity": 40,
                "duration": 0.0522727,
                "tempo": 120.0
            },
            {
                "start_time": 36.5590909,
                "end_time": 36.6954545,
                "pitch": 67,
                "velocity": 40,
                "duration": 0.1363636,
                "tempo": 120.0
            },
            {
                "start_time": 36.6431818,
                "end_time": 36.7818182,
                "pitch": 0,
                "velocity": 40,
                "duration": 0.1386364,
                "tempo": 120.0
            },
            {
                "start_time": 36.6954545,
                "end_time": 36.7818182,
                "pitch": 55,
                "velocity": 40,
                "duration": 0.0863636,
                "tempo": 120.0
            },
            {
                "start_time": 36.7818182,
                "end_time": 36.8318182,
                "pitch": 55,
                "velocity": 40,
                "duration": 0.05,
                "tempo": 120.0
            },
            {
                "start_time": 36.6954545,
                "end_time": 36.8318182,
                "pitch": 67,
                "velocity": 40,
                "duration": 0.1363636,
                "tempo": 120.0
            },
            {
                "start_time": 36.7818182,
                "end_time": 36.9204545,
                "pitch": 0,
                "velocity": 40,
                "duration": 0.1386364,
                "tempo": 120.0
            },
            {
                "start_time": 36.8318182,
                "end_time": 36.9204545,
                "pitch": 55,
                "velocity": 40,
                "duration": 0.0886364,
                "tempo": 120.0
            },
            {
                "start_time": 36.9204545,
                "end_time": 36.9704545,
                "pitch": 55,
                "velocity": 40,
                "duration": 0.05,
                "tempo": 120.0
            },
            {
                "start_time": 36.8318182,
                "end_time": 36.9704545,
                "pitch": 67,
                "velocity": 40,
                "duration": 0.1386364,
                "tempo": 120.0
            },
            {
                "start_time": 36.9204545,
                "end_time": 37.0545455,
                "pitch": 0,
                "velocity": 40,
                "duration": 0.1340909,
                "tempo": 120.0
            },
            {
                "start_time": 36.9704545,
                "end_time": 37.0545455,
                "pitch": 55,
                "velocity": 40,
                "duration": 0.0840909,
                "tempo": 120.0
            },
            {
                "start_time": 37.0545455,
                "end_time": 37.1045455,
                "pitch": 55,
                "velocity": 40,
                "duration": 0.05,
                "tempo": 120.0
            },
            {
                "start_time": 36.9704545,
                "end_time": 37.1045455,
                "pitch": 67,
                "velocity": 40,
                "duration": 0.1340909,
                "tempo": 120.0
            },
            {
                "start_time": 37.0545455,
                "end_time": 37.1863636,
                "pitch": 0,
                "velocity": 40,
                "duration": 0.1318182,
                "tempo": 120.0
            },
            {
                "start_time": 37.1045455,
                "end_time": 37.1863636,
                "pitch": 55,
                "velocity": 40,
                "duration": 0.0818182,
                "tempo": 120.0
            },
            {
                "start_time": 37.1863636,
                "end_time": 37.2204545,
                "pitch": 55,
                "velocity": 40,
                "duration": 0.0340909,
                "tempo": 120.0
            },
            {
                "start_time": 37.2204545,
                "end_time": 38.825,
                "pitch": 48,
                "velocity": 40,
                "duration": 1.6045455,
                "tempo": 120.0
            },
            {
                "start_time": 38.8272727,
                "end_time": 40.4340909,
                "pitch": 47,
                "velocity": 40,
                "duration": 1.6068182,
                "tempo": 120.0
            },
            {
                "start_time": 40.4340909,
                "end_time": 42.05,
                "pitch": 59,
                "velocity": 40,
                "duration": 1.6159091,
                "tempo": 120.0
            },
            {
                "start_time": 29.1840909,
                "end_time": 42.05,
                "pitch": 64,
                "velocity": 40,
                "duration": 12.8659091,
                "tempo": 120.0
            },
            {
                "start_time": 42.05,
                "end_time": 43.6522727,
                "pitch": 58,
                "velocity": 40,
                "duration": 1.6022727,
                "tempo": 120.0
            },
            {
                "start_time": 43.6522727,
                "end_time": 46.0590909,
                "pitch": 58,
                "velocity": 40,
                "duration": 2.4068182,
                "tempo": 120.0
            },
            {
                "start_time": 46.0590909,
                "end_time": 46.4590909,
                "pitch": 57,
                "velocity": 40,
                "duration": 0.4,
                "tempo": 120.0
            },
            {
                "start_time": 37.1863636,
                "end_time": 46.4613636,
                "pitch": 0,
                "velocity": 40,
                "duration": 9.275,
                "tempo": 120.0
            },
            {
                "start_time": 46.4613636,
                "end_time": 46.8659091,
                "pitch": 53,
                "velocity": 40,
                "duration": 0.4045455,
                "tempo": 120.0
            },
            {
                "start_time": 46.8659091,
                "end_time": 48.475,
                "pitch": 50,
                "velocity": 40,
                "duration": 1.6090909,
                "tempo": 120.0
            },
            {
                "start_time": 48.475,
                "end_time": 50.0840909,
                "pitch": 52,
                "velocity": 40,
                "duration": 1.6090909,
                "tempo": 120.0
            },
            {
                "start_time": 50.0840909,
                "end_time": 51.6886364,
                "pitch": 52,
                "velocity": 40,
                "duration": 1.6045455,
                "tempo": 120.0
            },
            {
                "start_time": 35.6113636,
                "end_time": 51.6886364,
                "pitch": 66,
                "velocity": 40,
                "duration": 16.0772727,
                "tempo": 120.0
            },
            {
                "start_time": 46.4613636,
                "end_time": 52.3227273,
                "pitch": 0,
                "velocity": 40,
                "duration": 5.8613636,
                "tempo": 120.0
            },
            {
                "start_time": 37.2204545,
                "end_time": 52.3227273,
                "pitch": 55,
                "velocity": 40,
                "duration": 15.1022727,
                "tempo": 120.0
            },
            {
                "start_time": 51.6886364,
                "end_time": 52.3227273,
                "pitch": 55,
                "velocity": 40,
                "duration": 0.6340909,
                "tempo": 120.0
            },
            {
                "start_time": 52.3227273,
                "end_time": 52.3727273,
                "pitch": 55,
                "velocity": 40,
                "duration": 0.05,
                "tempo": 120.0
            },
            {
                "start_time": 37.1045455,
                "end_time": 52.3727273,
                "pitch": 67,
                "velocity": 40,
                "duration": 15.2681818,
                "tempo": 120.0
            },
            {
                "start_time": 52.3227273,
                "end_time": 52.4568182,
                "pitch": 0,
                "velocity": 40,
                "duration": 0.1340909,
                "tempo": 120.0
            },
            {
                "start_time": 52.3727273,
                "end_time": 52.4568182,
                "pitch": 55,
                "velocity": 40,
                "duration": 0.0840909,
                "tempo": 120.0
            },
            {
                "start_time": 52.4568182,
                "end_time": 52.4909091,
                "pitch": 55,
                "velocity": 40,
                "duration": 0.0340909,
                "tempo": 120.0
            },
            {
                "start_time": 52.6909091,
                "end_time": 52.8909091,
                "pitch": 55,
                "velocity": 40,
                "duration": 0.2,
                "tempo": 120.0
            },
            {
                "start_time": 52.8909091,
                "end_time": 53.0931818,
                "pitch": 55,
                "velocity": 40,
                "duration": 0.2022727,
                "tempo": 120.0
            },
            {
                "start_time": 53.0931818,
                "end_time": 53.2931818,
                "pitch": 57,
                "velocity": 40,
                "duration": 0.2,
                "tempo": 120.0
            },
            {
                "start_time": 42.05,
                "end_time": 54.9022727,
                "pitch": 64,
                "velocity": 40,
                "duration": 12.8522727,
                "tempo": 120.0
            },
            {
                "start_time": 54.9022727,
                "end_time": 56.5136364,
                "pitch": 58,
                "velocity": 40,
                "duration": 1.6113636,
                "tempo": 120.0
            },
            {
                "start_time": 56.5136364,
                "end_time": 58.9204545,
                "pitch": 58,
                "velocity": 40,
                "duration": 2.4068182,
                "tempo": 120.0
            },
            {
                "start_time": 52.4568182,
                "end_time": 59.3272727,
                "pitch": 0,
                "velocity": 40,
                "duration": 6.8704545,
                "tempo": 120.0
            },
            {
                "start_time": 58.9204545,
                "end_time": 59.3272727,
                "pitch": 57,
                "velocity": 40,
                "duration": 0.4068182,
                "tempo": 120.0
            },
            {
                "start_time": 46.8659091,
                "end_time": 59.7272727,
                "pitch": 53,
                "velocity": 40,
                "duration": 12.8613636,
                "tempo": 120.0
            },
            {
                "start_time": 59.3272727,
                "end_time": 59.7272727,
                "pitch": 53,
                "velocity": 40,
                "duration": 0.4,
                "tempo": 120.0
            },
            {
                "start_time": 48.475,
                "end_time": 60.3272727,
                "pitch": 50,
                "velocity": 40,
                "duration": 11.8522727,
                "tempo": 120.0
            },
            {
                "start_time": 59.7272727,
                "end_time": 60.3272727,
                "pitch": 50,
                "velocity": 40,
                "duration": 0.6,
                "tempo": 120.0
            },
            {
                "start_time": 34.6022727,
                "end_time": 60.3295455,
                "pitch": 65,
                "velocity": 40,
                "duration": 25.7272727,
                "tempo": 120.0
            },
            {
                "start_time": 60.3295455,
                "end_time": 60.5318182,
                "pitch": 57,
                "velocity": 40,
                "duration": 0.2022727,
                "tempo": 120.0
            },
            {
                "start_time": 59.3272727,
                "end_time": 61.1340909,
                "pitch": 0,
                "velocity": 40,
                "duration": 1.8068182,
                "tempo": 120.0
            },
            {
                "start_time": 60.7318182,
                "end_time": 61.1340909,
                "pitch": 57,
                "velocity": 40,
                "duration": 0.4022727,
                "tempo": 120.0
            },
            {
                "start_time": 59.7272727,
                "end_time": 61.3363636,
                "pitch": 53,
                "velocity": 40,
                "duration": 1.6090909,
                "tempo": 120.0
            },
            {
                "start_time": 61.1340909,
                "end_time": 61.3363636,
                "pitch": 53,
                "velocity": 40,
                "duration": 0.2022727,
                "tempo": 120.0
            },
            {
                "start_time": 51.6886364,
                "end_time": 61.3363636,
                "pitch": 66,
                "velocity": 40,
                "duration": 9.6477273,
                "tempo": 120.0
            },
            {
                "start_time": 61.1340909,
                "end_time": 61.9681818,
                "pitch": 0,
                "velocity": 40,
                "duration": 0.8340909,
                "tempo": 120.0
            },
            {
                "start_time": 61.3363636,
                "end_time": 61.9681818,
                "pitch": 55,
                "velocity": 40,
                "duration": 0.6318182,
                "tempo": 120.0
            },
            {
                "start_time": 61.9681818,
                "end_time": 62.0181818,
                "pitch": 55,
                "velocity": 40,
                "duration": 0.05,
                "tempo": 120.0
            },
            {
                "start_time": 52.3727273,
                "end_time": 62.0181818,
                "pitch": 67,
                "velocity": 40,
                "duration": 9.6454545,
                "tempo": 120.0
            },
            {
                "start_time": 61.9681818,
                "end_time": 62.1022727,
                "pitch": 0,
                "velocity": 40,
                "duration": 0.1340909,
                "tempo": 120.0
            },
            {
                "start_time": 62.0181818,
                "end_time": 62.1022727,
                "pitch": 55,
                "velocity": 40,
                "duration": 0.0840909,
                "tempo": 120.0
            },
            {
                "start_time": 62.1022727,
                "end_time": 62.1522727,
                "pitch": 55,
                "velocity": 40,
                "duration": 0.05,
                "tempo": 120.0
            },
            {
                "start_time": 62.0181818,
                "end_time": 62.1522727,
                "pitch": 67,
                "velocity": 40,
                "duration": 0.1340909,
                "tempo": 120.0
            },
            {
                "start_time": 62.1022727,
                "end_time": 62.2340909,
                "pitch": 0,
                "velocity": 40,
                "duration": 0.1318182,
                "tempo": 120.0
            },
            {
                "start_time": 62.1522727,
                "end_time": 62.2340909,
                "pitch": 55,
                "velocity": 40,
                "duration": 0.0818182,
                "tempo": 120.0
            },
            {
                "start_time": 62.2340909,
                "end_time": 62.2840909,
                "pitch": 55,
                "velocity": 40,
                "duration": 0.05,
                "tempo": 120.0
            },
            {
                "start_time": 62.1522727,
                "end_time": 62.2840909,
                "pitch": 67,
                "velocity": 40,
                "duration": 0.1318182,
                "tempo": 120.0
            },
            {
                "start_time": 62.2340909,
                "end_time": 62.3681818,
                "pitch": 0,
                "velocity": 40,
                "duration": 0.1340909,
                "tempo": 120.0
            },
            {
                "start_time": 62.2840909,
                "end_time": 62.3681818,
                "pitch": 55,
                "velocity": 40,
                "duration": 0.0840909,
                "tempo": 120.0
            },
            {
                "start_time": 62.3681818,
                "end_time": 62.4204545,
                "pitch": 55,
                "velocity": 40,
                "duration": 0.0522727,
                "tempo": 120.0
            },
            {
                "start_time": 62.2840909,
                "end_time": 62.4204545,
                "pitch": 67,
                "velocity": 40,
                "duration": 0.1363636,
                "tempo": 120.0
            },
            {
                "start_time": 62.3681818,
                "end_time": 62.5068182,
                "pitch": 0,
                "velocity": 40,
                "duration": 0.1386364,
                "tempo": 120.0
            },
            {
                "start_time": 62.4204545,
                "end_time": 62.5068182,
                "pitch": 55,
                "velocity": 40,
                "duration": 0.0863636,
                "tempo": 120.0
            },
            {
                "start_time": 62.5068182,
                "end_time": 62.5568182,
                "pitch": 55,
                "velocity": 40,
                "duration": 0.05,
                "tempo": 120.0
            },
            {
                "start_time": 62.4204545,
                "end_time": 62.5568182,
                "pitch": 67,
                "velocity": 40,
                "duration": 0.1363636,
                "tempo": 120.0
            },
            {
                "start_time": 62.5068182,
                "end_time": 62.6431818,
                "pitch": 0,
                "velocity": 40,
                "duration": 0.1363636,
                "tempo": 120.0
            },
            {
                "start_time": 62.5568182,
                "end_time": 62.6431818,
                "pitch": 55,
                "velocity": 40,
                "duration": 0.0863636,
                "tempo": 120.0
            },
            {
                "start_time": 62.6431818,
                "end_time": 62.6954545,
                "pitch": 55,
                "velocity": 40,
                "duration": 0.0522727,
                "tempo": 120.0
            },
            {
                "start_time": 62.5568182,
                "end_time": 62.6954545,
                "pitch": 67,
                "velocity": 40,
                "duration": 0.1386364,
                "tempo": 120.0
            },
            {
                "start_time": 62.6431818,
                "end_time": 62.7795455,
                "pitch": 0,
                "velocity": 40,
                "duration": 0.1363636,
                "tempo": 120.0
            },
            {
                "start_time": 62.6954545,
                "end_time": 62.7795455,
                "pitch": 55,
                "velocity": 40,
                "duration": 0.0840909,
                "tempo": 120.0
            },
            {
                "start_time": 62.7795455,
                "end_time": 62.8272727,
                "pitch": 55,
                "velocity": 40,
                "duration": 0.0477273,
                "tempo": 120.0
            },
            {
                "start_time": 62.6954545,
                "end_time": 62.8272727,
                "pitch": 67,
                "velocity": 40,
                "duration": 0.1318182,
                "tempo": 120.0
            },
            {
                "start_time": 62.7795455,
                "end_time": 62.9090909,
                "pitch": 0,
                "velocity": 40,
                "duration": 0.1295455,
                "tempo": 120.0
            },
            {
                "start_time": 62.8272727,
                "end_time": 62.9090909,
                "pitch": 55,
                "velocity": 40,
                "duration": 0.0818182,
                "tempo": 120.0
            },
            {
                "start_time": 62.9090909,
                "end_time": 62.9431818,
                "pitch": 55,
                "velocity": 40,
                "duration": 0.0340909,
                "tempo": 120.0
            },
            {
                "start_time": 62.9454545,
                "end_time": 64.5431818,
                "pitch": 48,
                "velocity": 40,
                "duration": 1.5977273,
                "tempo": 120.0
            },
            {
                "start_time": 64.5431818,
                "end_time": 66.1613636,
                "pitch": 47,
                "velocity": 40,
                "duration": 1.6181818,
                "tempo": 120.0
            },
            {
                "start_time": 54.9022727,
                "end_time": 66.7568182,
                "pitch": 64,
                "velocity": 40,
                "duration": 11.8545455,
                "tempo": 120.0
            },
            {
                "start_time": 66.7568182,
                "end_time": 66.9568182,
                "pitch": 56,
                "velocity": 40,
                "duration": 0.2,
                "tempo": 120.0
            },
            {
                "start_time": 10.4727273,
                "end_time": 67.1568182,
                "pitch": 31,
                "velocity": 64,
                "duration": 56.6840909,
                "tempo": 120.0
            },
            {
                "start_time": 66.9568182,
                "end_time": 67.1568182,
                "pitch": 56,
                "velocity": 40,
                "duration": 0.2,
                "tempo": 120.0
            },
            {
                "start_time": 67.1568182,
                "end_time": 67.7681818,
                "pitch": 60,
                "velocity": 40,
                "duration": 0.6113636,
                "tempo": 120.0
            },
            {
                "start_time": 66.7568182,
                "end_time": 68.3613636,
                "pitch": 64,
                "velocity": 40,
                "duration": 1.6045455,
                "tempo": 120.0
            },
            {
                "start_time": 68.3613636,
                "end_time": 68.5659091,
                "pitch": 56,
                "velocity": 40,
                "duration": 0.2045455,
                "tempo": 120.0
            },
            {
                "start_time": 67.1568182,
                "end_time": 68.7727273,
                "pitch": 31,
                "velocity": 40,
                "duration": 1.6159091,
                "tempo": 120.0
            },
            {
                "start_time": 68.5659091,
                "end_time": 68.7727273,
                "pitch": 56,
                "velocity": 40,
                "duration": 0.2068182,
                "tempo": 120.0
            },
            {
                "start_time": 68.7727273,
                "end_time": 69.3772727,
                "pitch": 60,
                "velocity": 40,
                "duration": 0.6045455,
                "tempo": 120.0
            },
            {
                "start_time": 68.3613636,
                "end_time": 73.1977273,
                "pitch": 64,
                "velocity": 40,
                "duration": 4.8363636,
                "tempo": 120.0
            },
            {
                "start_time": 73.1977273,
                "end_time": 73.4,
                "pitch": 56,
                "velocity": 40,
                "duration": 0.2022727,
                "tempo": 120.0
            },
            {
                "start_time": 68.7727273,
                "end_time": 73.6,
                "pitch": 31,
                "velocity": 40,
                "duration": 4.8272727,
                "tempo": 120.0
            },
            {
                "start_time": 73.4,
                "end_time": 73.6,
                "pitch": 56,
                "velocity": 40,
                "duration": 0.2,
                "tempo": 120.0
            },
            {
                "start_time": 73.6,
                "end_time": 74.2090909,
                "pitch": 60,
                "velocity": 40,
                "duration": 0.6090909,
                "tempo": 120.0
            },
            {
                "start_time": 73.1977273,
                "end_time": 74.8045455,
                "pitch": 64,
                "velocity": 40,
                "duration": 1.6068182,
                "tempo": 120.0
            },
            {
                "start_time": 74.8045455,
                "end_time": 75.0113636,
                "pitch": 56,
                "velocity": 40,
                "duration": 0.2068182,
                "tempo": 120.0
            },
            {
                "start_time": 73.6,
                "end_time": 75.2159091,
                "pitch": 31,
                "velocity": 40,
                "duration": 1.6159091,
                "tempo": 120.0
            },
            {
                "start_time": 75.0113636,
                "end_time": 75.2159091,
                "pitch": 56,
                "velocity": 40,
                "duration": 0.2045455,
                "tempo": 120.0
            },
            {
                "start_time": 75.2159091,
                "end_time": 75.8113636,
                "pitch": 60,
                "velocity": 40,
                "duration": 0.5954545,
                "tempo": 120.0
            },
            {
                "start_time": 74.8045455,
                "end_time": 79.6318182,
                "pitch": 64,
                "velocity": 40,
                "duration": 4.8272727,
                "tempo": 120.0
            },
            {
                "start_time": 79.6318182,
                "end_time": 79.8363636,
                "pitch": 56,
                "velocity": 40,
                "duration": 0.2045455,
                "tempo": 120.0
            },
            {
                "start_time": 75.2159091,
                "end_time": 80.0431818,
                "pitch": 31,
                "velocity": 40,
                "duration": 4.8272727,
                "tempo": 120.0
            },
            {
                "start_time": 79.8363636,
                "end_time": 80.0431818,
                "pitch": 56,
                "velocity": 40,
                "duration": 0.2068182,
                "tempo": 120.0
            },
            {
                "start_time": 80.0431818,
                "end_time": 80.6454545,
                "pitch": 60,
                "velocity": 40,
                "duration": 0.6022727,
                "tempo": 120.0
            },
            {
                "start_time": 79.6318182,
                "end_time": 81.2386364,
                "pitch": 64,
                "velocity": 40,
                "duration": 1.6068182,
                "tempo": 120.0
            },
            {
                "start_time": 81.2386364,
                "end_time": 81.4454545,
                "pitch": 56,
                "velocity": 40,
                "duration": 0.2068182,
                "tempo": 120.0
            },
            {
                "start_time": 80.0431818,
                "end_time": 81.65,
                "pitch": 31,
                "velocity": 40,
                "duration": 1.6068182,
                "tempo": 120.0
            },
            {
                "start_time": 81.4454545,
                "end_time": 81.65,
                "pitch": 56,
                "velocity": 40,
                "duration": 0.2045455,
                "tempo": 120.0
            },
            {
                "start_time": 81.65,
                "end_time": 82.2545455,
                "pitch": 60,
                "velocity": 40,
                "duration": 0.6045455,
                "tempo": 120.0
            },
            {
                "start_time": 85.4772727,
                "end_time": 88.7022727,
                "pitch": 53,
                "velocity": 40,
                "duration": 3.225,
                "tempo": 120.0
            },
            {
                "start_time": 61.3363636,
                "end_time": 88.7022727,
                "pitch": 66,
                "velocity": 40,
                "duration": 27.3659091,
                "tempo": 120.0
            },
            {
                "start_time": 62.9454545,
                "end_time": 89.1045455,
                "pitch": 55,
                "velocity": 40,
                "duration": 26.1590909,
                "tempo": 120.0
            },
            {
                "start_time": 88.7022727,
                "end_time": 89.1045455,
                "pitch": 55,
                "velocity": 40,
                "duration": 0.4022727,
                "tempo": 120.0
            },
            {
                "start_time": 89.1045455,
                "end_time": 89.5068182,
                "pitch": 55,
                "velocity": 40,
                "duration": 0.4022727,
                "tempo": 120.0
            },
            {
                "start_time": 89.5068182,
                "end_time": 89.9090909,
                "pitch": 59,
                "velocity": 40,
                "duration": 0.4022727,
                "tempo": 120.0
            },
            {
                "start_time": 89.9090909,
                "end_time": 90.1090909,
                "pitch": 60,
                "velocity": 40,
                "duration": 0.2,
                "tempo": 120.0
            },
            {
                "start_time": 81.2386364,
                "end_time": 90.1090909,
                "pitch": 64,
                "velocity": 40,
                "duration": 8.8704545,
                "tempo": 120.0
            },
            {
                "start_time": 90.1090909,
                "end_time": 90.5204545,
                "pitch": 59,
                "velocity": 40,
                "duration": 0.4113636,
                "tempo": 120.0
            },
            {
                "start_time": 89.9090909,
                "end_time": 90.7204545,
                "pitch": 44,
                "velocity": 40,
                "duration": 0.8113636,
                "tempo": 120.0
            },
            {
                "start_time": 90.5204545,
                "end_time": 90.7204545,
                "pitch": 59,
                "velocity": 40,
                "duration": 0.2,
                "tempo": 120.0
            },
            {
                "start_time": 90.7204545,
                "end_time": 90.9204545,
                "pitch": 60,
                "velocity": 40,
                "duration": 0.2,
                "tempo": 120.0
            },
            {
                "start_time": 90.9204545,
                "end_time": 91.9227273,
                "pitch": 62,
                "velocity": 40,
                "duration": 1.0022727,
                "tempo": 120.0
            },
            {
                "start_time": 91.9227273,
                "end_time": 92.7363636,
                "pitch": 53,
                "velocity": 51,
                "duration": 0.8136364,
                "tempo": 120.0
            },
            {
                "start_time": 88.7022727,
                "end_time": 92.7363636,
                "pitch": 66,
                "velocity": 40,
                "duration": 4.0340909,
                "tempo": 120.0
            },
            {
                "start_time": 62.9090909,
                "end_time": 93.3772727,
                "pitch": 0,
                "velocity": 40,
                "duration": 30.4681818,
                "tempo": 120.0
            },
            {
                "start_time": 92.7363636,
                "end_time": 93.3772727,
                "pitch": 55,
                "velocity": 51,
                "duration": 0.6409091,
                "tempo": 120.0
            },
            {
                "start_time": 93.3772727,
                "end_time": 93.4295455,
                "pitch": 55,
                "velocity": 51,
                "duration": 0.0522727,
                "tempo": 120.0
            },
            {
                "start_time": 62.8272727,
                "end_time": 93.4295455,
                "pitch": 67,
                "velocity": 40,
                "duration": 30.6022727,
                "tempo": 120.0
            },
            {
                "start_time": 93.3772727,
                "end_time": 93.5159091,
                "pitch": 0,
                "velocity": 51,
                "duration": 0.1386364,
                "tempo": 120.0
            },
            {
                "start_time": 93.4295455,
                "end_time": 93.5159091,
                "pitch": 55,
                "velocity": 51,
                "duration": 0.0863636,
                "tempo": 120.0
            },
            {
                "start_time": 93.5159091,
                "end_time": 93.55,
                "pitch": 55,
                "velocity": 51,
                "duration": 0.0340909,
                "tempo": 120.0
            },
            {
                "start_time": 93.55,
                "end_time": 94.1409091,
                "pitch": 52,
                "velocity": 51,
                "duration": 0.5909091,
                "tempo": 120.0
            },
            {
                "start_time": 92.7363636,
                "end_time": 94.1409091,
                "pitch": 66,
                "velocity": 51,
                "duration": 1.4045455,
                "tempo": 120.0
            },
            {
                "start_time": 93.55,
                "end_time": 94.3454545,
                "pitch": 55,
                "velocity": 51,
                "duration": 0.7954545,
                "tempo": 120.0
            },
            {
                "start_time": 94.1409091,
                "end_time": 94.3454545,
                "pitch": 55,
                "velocity": 51,
                "duration": 0.2045455,
                "tempo": 120.0
            },
            {
                "start_time": 90.9204545,
                "end_time": 94.55,
                "pitch": 60,
                "velocity": 40,
                "duration": 3.6295455,
                "tempo": 120.0
            },
            {
                "start_time": 94.55,
                "end_time": 94.7522727,
                "pitch": 62,
                "velocity": 51,
                "duration": 0.2022727,
                "tempo": 120.0
            },
            {
                "start_time": 90.1090909,
                "end_time": 94.9545455,
                "pitch": 64,
                "velocity": 40,
                "duration": 4.8454545,
                "tempo": 120.0
            },
            {
                "start_time": 94.7522727,
                "end_time": 94.9545455,
                "pitch": 64,
                "velocity": 51,
                "duration": 0.2022727,
                "tempo": 120.0
            },
            {
                "start_time": 93.4295455,
                "end_time": 95.1545455,
                "pitch": 67,
                "velocity": 51,
                "duration": 1.725,
                "tempo": 120.0
            },
            {
                "start_time": 94.9568182,
                "end_time": 95.1545455,
                "pitch": 67,
                "velocity": 51,
                "duration": 0.1977273,
                "tempo": 120.0
            },
            {
                "start_time": 93.5159091,
                "end_time": 95.1568182,
                "pitch": 0,
                "velocity": 51,
                "duration": 1.6409091,
                "tempo": 120.0
            },
            {
                "start_time": 95.1545455,
                "end_time": 95.1568182,
                "pitch": 0,
                "velocity": 51,
                "duration": 0.0022727,
                "tempo": 120.0
            },
            {
                "start_time": 95.1568182,
                "end_time": 95.9590909,
                "pitch": 53,
                "velocity": 51,
                "duration": 0.8022727,
                "tempo": 120.0
            },
            {
                "start_time": 94.1409091,
                "end_time": 95.9590909,
                "pitch": 66,
                "velocity": 51,
                "duration": 1.8181818,
                "tempo": 120.0
            },
            {
                "start_time": 95.9590909,
                "end_time": 96.5931818,
                "pitch": 55,
                "velocity": 51,
                "duration": 0.6340909,
                "tempo": 120.0
            },
            {
                "start_time": 96.5931818,
                "end_time": 96.6409091,
                "pitch": 55,
                "velocity": 51,
                "duration": 0.0477273,
                "tempo": 120.0
            },
            {
                "start_time": 96.5931818,
                "end_time": 96.7227273,
                "pitch": 0,
                "velocity": 51,
                "duration": 0.1295455,
                "tempo": 120.0
            },
            {
                "start_time": 96.6409091,
                "end_time": 96.7227273,
                "pitch": 55,
                "velocity": 51,
                "duration": 0.0818182,
                "tempo": 120.0
            },
            {
                "start_time": 96.7227273,
                "end_time": 96.7568182,
                "pitch": 55,
                "velocity": 51,
                "duration": 0.0340909,
                "tempo": 120.0
            },
            {
                "start_time": 96.7568182,
                "end_time": 96.7590909,
                "pitch": 55,
                "velocity": 51,
                "duration": 0.0022727,
                "tempo": 120.0
            },
            {
                "start_time": 96.7590909,
                "end_time": 97.3659091,
                "pitch": 52,
                "velocity": 51,
                "duration": 0.6068182,
                "tempo": 120.0
            },
            {
                "start_time": 97.3659091,
                "end_time": 97.7659091,
                "pitch": 64,
                "velocity": 51,
                "duration": 0.4,
                "tempo": 120.0
            },
            {
                "start_time": 94.55,
                "end_time": 98.1704545,
                "pitch": 60,
                "velocity": 51,
                "duration": 3.6204545,
                "tempo": 120.0
            },
            {
                "start_time": 97.7659091,
                "end_time": 98.1704545,
                "pitch": 60,
                "velocity": 51,
                "duration": 0.4045455,
                "tempo": 120.0
            },
            {
                "start_time": 97.7659091,
                "end_time": 98.1704545,
                "pitch": 64,
                "velocity": 51,
                "duration": 0.4045455,
                "tempo": 120.0
            },
            {
                "start_time": 96.7227273,
                "end_time": 98.375,
                "pitch": 0,
                "velocity": 51,
                "duration": 1.6522727,
                "tempo": 120.0
            },
            {
                "start_time": 98.1704545,
                "end_time": 98.375,
                "pitch": 55,
                "velocity": 51,
                "duration": 0.2045455,
                "tempo": 120.0
            },
            {
                "start_time": 98.375,
                "end_time": 99.1840909,
                "pitch": 53,
                "velocity": 51,
                "duration": 0.8090909,
                "tempo": 120.0
            },
            {
                "start_time": 95.9590909,
                "end_time": 99.1840909,
                "pitch": 66,
                "velocity": 51,
                "duration": 3.225,
                "tempo": 120.0
            },
            {
                "start_time": 98.375,
                "end_time": 99.8090909,
                "pitch": 0,
                "velocity": 51,
                "duration": 1.4340909,
                "tempo": 120.0
            },
            {
                "start_time": 99.1840909,
                "end_time": 99.8090909,
                "pitch": 55,
                "velocity": 51,
                "duration": 0.625,
                "tempo": 120.0
            },
            {
                "start_time": 99.8090909,
                "end_time": 99.8590909,
                "pitch": 55,
                "velocity": 51,
                "duration": 0.05,
                "tempo": 120.0
            },
            {
                "start_time": 96.6409091,
                "end_time": 99.8590909,
                "pitch": 67,
                "velocity": 51,
                "duration": 3.2181818,
                "tempo": 120.0
            },
            {
                "start_time": 99.8090909,
                "end_time": 99.9431818,
                "pitch": 0,
                "velocity": 51,
                "duration": 0.1340909,
                "tempo": 120.0
            },
            {
                "start_time": 99.8590909,
                "end_time": 99.9431818,
                "pitch": 55,
                "velocity": 51,
                "duration": 0.0840909,
                "tempo": 120.0
            },
            {
                "start_time": 99.9431818,
                "end_time": 99.9795455,
                "pitch": 55,
                "velocity": 51,
                "duration": 0.0363636,
                "tempo": 120.0
            },
            {
                "start_time": 99.9795455,
                "end_time": 100.3818182,
                "pitch": 52,
                "velocity": 51,
                "duration": 0.4022727,
                "tempo": 120.0
            },
            {
                "start_time": 98.1704545,
                "end_time": 100.3818182,
                "pitch": 64,
                "velocity": 51,
                "duration": 2.2113636,
                "tempo": 120.0
            },
            {
                "start_time": 100.3818182,
                "end_time": 100.5795455,
                "pitch": 60,
                "velocity": 51,
                "duration": 0.1977273,
                "tempo": 120.0
            },
            {
                "start_time": 100.3818182,
                "end_time": 100.5818182,
                "pitch": 64,
                "velocity": 51,
                "duration": 0.2,
                "tempo": 120.0
            },
            {
                "start_time": 100.5818182,
                "end_time": 100.9931818,
                "pitch": 59,
                "velocity": 51,
                "duration": 0.4113636,
                "tempo": 120.0
            },
            {
                "start_time": 99.9431818,
                "end_time": 101.3863636,
                "pitch": 0,
                "velocity": 51,
                "duration": 1.4431818,
                "tempo": 120.0
            },
            {
                "start_time": 99.9795455,
                "end_time": 101.3863636,
                "pitch": 55,
                "velocity": 51,
                "duration": 1.4068182,
                "tempo": 120.0
            },
            {
                "start_time": 100.9931818,
                "end_time": 101.3863636,
                "pitch": 55,
                "velocity": 51,
                "duration": 0.3931818,
                "tempo": 120.0
            },
            {
                "start_time": 101.3863636,
                "end_time": 101.5840909,
                "pitch": 52,
                "velocity": 51,
                "duration": 0.1977273,
                "tempo": 120.0
            },
            {
                "start_time": 91.9227273,
                "end_time": 101.9886364,
                "pitch": 50,
                "velocity": 51,
                "duration": 10.0659091,
                "tempo": 120.0
            },
            {
                "start_time": 101.5840909,
                "end_time": 101.9886364,
                "pitch": 50,
                "velocity": 51,
                "duration": 0.4045455,
                "tempo": 120.0
            },
            {
                "start_time": 101.9886364,
                "end_time": 101.9909091,
                "pitch": 50,
                "velocity": 51,
                "duration": 0.0022727,
                "tempo": 120.0
            },
            {
                "start_time": 101.5840909,
                "end_time": 102.3977273,
                "pitch": 52,
                "velocity": 51,
                "duration": 0.8136364,
                "tempo": 120.0
            },
            {
                "start_time": 101.9909091,
                "end_time": 102.3977273,
                "pitch": 52,
                "velocity": 51,
                "duration": 0.4068182,
                "tempo": 120.0
            },
            {
                "start_time": 102.3977273,
                "end_time": 102.8045455,
                "pitch": 52,
                "velocity": 51,
                "duration": 0.4068182,
                "tempo": 120.0
            },
            {
                "start_time": 99.1840909,
                "end_time": 102.8045455,
                "pitch": 66,
                "velocity": 51,
                "duration": 3.6204545,
                "tempo": 120.0
            },
            {
                "start_time": 101.3863636,
                "end_time": 103.0022727,
                "pitch": 0,
                "velocity": 51,
                "duration": 1.6159091,
                "tempo": 120.0
            },
            {
                "start_time": 102.8045455,
                "end_time": 103.0022727,
                "pitch": 55,
                "velocity": 51,
                "duration": 0.1977273,
                "tempo": 120.0
            },
            {
                "start_time": 103.0022727,
                "end_time": 103.6045455,
                "pitch": 50,
                "velocity": 51,
                "duration": 0.6022727,
                "tempo": 120.0
            },
            {
                "start_time": 103.6045455,
                "end_time": 104.0068182,
                "pitch": 50,
                "velocity": 51,
                "duration": 0.4022727,
                "tempo": 120.0
            },
            {
                "start_time": 104.0068182,
                "end_time": 104.4113636,
                "pitch": 52,
                "velocity": 51,
                "duration": 0.4045455,
                "tempo": 120.0
            },
            {
                "start_time": 102.8045455,
                "end_time": 104.4113636,
                "pitch": 66,
                "velocity": 51,
                "duration": 1.6068182,
                "tempo": 120.0
            },
            {
                "start_time": 103.0022727,
                "end_time": 104.6113636,
                "pitch": 0,
                "velocity": 51,
                "duration": 1.6090909,
                "tempo": 120.0
            },
            {
                "start_time": 104.4113636,
                "end_time": 104.6113636,
                "pitch": 55,
                "velocity": 51,
                "duration": 0.2,
                "tempo": 120.0
            },
            {
                "start_time": 104.6113636,
                "end_time": 105.2181818,
                "pitch": 50,
                "velocity": 51,
                "duration": 0.6068182,
                "tempo": 120.0
            },
            {
                "start_time": 105.2181818,
                "end_time": 105.625,
                "pitch": 50,
                "velocity": 51,
                "duration": 0.4068182,
                "tempo": 120.0
            },
            {
                "start_time": 105.625,
                "end_time": 106.025,
                "pitch": 52,
                "velocity": 51,
                "duration": 0.4,
                "tempo": 120.0
            },
            {
                "start_time": 104.4113636,
                "end_time": 106.025,
                "pitch": 66,
                "velocity": 51,
                "duration": 1.6136364,
                "tempo": 120.0
            },
            {
                "start_time": 104.6113636,
                "end_time": 106.2181818,
                "pitch": 0,
                "velocity": 51,
                "duration": 1.6068182,
                "tempo": 120.0
            },
            {
                "start_time": 106.025,
                "end_time": 106.2181818,
                "pitch": 55,
                "velocity": 51,
                "duration": 0.1931818,
                "tempo": 120.0
            },
            {
                "start_time": 106.2181818,
                "end_time": 106.8227273,
                "pitch": 50,
                "velocity": 51,
                "duration": 0.6045455,
                "tempo": 120.0
            },
            {
                "start_time": 106.8227273,
                "end_time": 107.2295455,
                "pitch": 50,
                "velocity": 51,
                "duration": 0.4068182,
                "tempo": 120.0
            },
            {
                "start_time": 107.2295455,
                "end_time": 107.6318182,
                "pitch": 52,
                "velocity": 51,
                "duration": 0.4022727,
                "tempo": 120.0
            },
            {
                "start_time": 106.025,
                "end_time": 107.6318182,
                "pitch": 66,
                "velocity": 51,
                "duration": 1.6068182,
                "tempo": 120.0
            },
            {
                "start_time": 107.6318182,
                "end_time": 107.8340909,
                "pitch": 55,
                "velocity": 51,
                "duration": 0.2022727,
                "tempo": 120.0
            },
            {
                "start_time": 99.8590909,
                "end_time": 108.4318182,
                "pitch": 67,
                "velocity": 51,
                "duration": 8.5727273,
                "tempo": 120.0
            },
            {
                "start_time": 108.4318182,
                "end_time": 108.5318182,
                "pitch": 60,
                "velocity": 64,
                "duration": 0.1,
                "tempo": 120.0
            },
            {
                "start_time": 94.7522727,
                "end_time": 108.6340909,
                "pitch": 62,
                "velocity": 51,
                "duration": 13.8818182,
                "tempo": 120.0
            },
            {
                "start_time": 108.5318182,
                "end_time": 108.6340909,
                "pitch": 62,
                "velocity": 64,
                "duration": 0.1022727,
                "tempo": 120.0
            },
            {
                "start_time": 100.5818182,
                "end_time": 109.45,
                "pitch": 64,
                "velocity": 51,
                "duration": 8.8681818,
                "tempo": 120.0
            },
            {
                "start_time": 108.6340909,
                "end_time": 109.45,
                "pitch": 64,
                "velocity": 64,
                "duration": 0.8159091,
                "tempo": 120.0
            },
            {
                "start_time": 109.45,
                "end_time": 109.85,
                "pitch": 52,
                "velocity": 64,
                "duration": 0.4,
                "tempo": 120.0
            },
            {
                "start_time": 107.6318182,
                "end_time": 109.85,
                "pitch": 66,
                "velocity": 51,
                "duration": 2.2181818,
                "tempo": 120.0
            },
            {
                "start_time": 89.5068182,
                "end_time": 110.2590909,
                "pitch": 57,
                "velocity": 40,
                "duration": 20.7522727,
                "tempo": 120.0
            },
            {
                "start_time": 109.85,
                "end_time": 110.2590909,
                "pitch": 57,
                "velocity": 64,
                "duration": 0.4090909,
                "tempo": 120.0
            },
            {
                "start_time": 81.65,
                "end_time": 110.2613636,
                "pitch": 31,
                "velocity": 40,
                "duration": 28.6113636,
                "tempo": 120.0
            },
            {
                "start_time": 108.5318182,
                "end_time": 110.6545455,
                "pitch": 60,
                "velocity": 64,
                "duration": 2.1227273,
                "tempo": 120.0
            },
            {
                "start_time": 110.2613636,
                "end_time": 110.6545455,
                "pitch": 60,
                "velocity": 64,
                "duration": 0.3931818,
                "tempo": 120.0
            },
            {
                "start_time": 10.8659091,
                "end_time": 110.6545455,
                "pitch": 76,
                "velocity": 64,
                "duration": 99.7886364,
                "tempo": 120.0
            },
            {
                "start_time": 108.4318182,
                "end_time": 111.0659091,
                "pitch": 67,
                "velocity": 64,
                "duration": 2.6340909,
                "tempo": 120.0
            },
            {
                "start_time": 110.6545455,
                "end_time": 111.0659091,
                "pitch": 67,
                "velocity": 64,
                "duration": 0.4113636,
                "tempo": 120.0
            },
            {
                "start_time": 111.6568182,
                "end_time": 111.7568182,
                "pitch": 60,
                "velocity": 64,
                "duration": 0.1,
                "tempo": 120.0
            },
            {
                "start_time": 108.6340909,
                "end_time": 111.8568182,
                "pitch": 62,
                "velocity": 64,
                "duration": 3.2227273,
                "tempo": 120.0
            },
            {
                "start_time": 111.7568182,
                "end_time": 111.8568182,
                "pitch": 62,
                "velocity": 64,
                "duration": 0.1,
                "tempo": 120.0
            },
            {
                "start_time": 111.6568182,
                "end_time": 112.2681818,
                "pitch": 64,
                "velocity": 64,
                "duration": 0.6113636,
                "tempo": 120.0
            },
            {
                "start_time": 111.8568182,
                "end_time": 112.2681818,
                "pitch": 64,
                "velocity": 64,
                "duration": 0.4113636,
                "tempo": 120.0
            },
            {
                "start_time": 109.85,
                "end_time": 112.2704545,
                "pitch": 66,
                "velocity": 64,
                "duration": 2.4204545,
                "tempo": 120.0
            },
            {
                "start_time": 100.9931818,
                "end_time": 112.6704545,
                "pitch": 59,
                "velocity": 51,
                "duration": 11.6772727,
                "tempo": 120.0
            },
            {
                "start_time": 112.2704545,
                "end_time": 112.6704545,
                "pitch": 59,
                "velocity": 64,
                "duration": 0.4,
                "tempo": 120.0
            },
            {
                "start_time": 112.6704545,
                "end_time": 113.4659091,
                "pitch": 57,
                "velocity": 64,
                "duration": 0.7954545,
                "tempo": 120.0
            },
            {
                "start_time": 112.6704545,
                "end_time": 114.2704545,
                "pitch": 59,
                "velocity": 64,
                "duration": 1.6,
                "tempo": 120.0
            },
            {
                "start_time": 113.4659091,
                "end_time": 114.2704545,
                "pitch": 59,
                "velocity": 64,
                "duration": 0.8045455,
                "tempo": 120.0
            },
            {
                "start_time": 14.6931818,
                "end_time": 114.8727273,
                "pitch": 45,
                "velocity": 40,
                "duration": 100.1795455,
                "tempo": 120.0
            },
            {
                "start_time": 111.7568182,
                "end_time": 114.9727273,
                "pitch": 60,
                "velocity": 64,
                "duration": 3.2159091,
                "tempo": 120.0
            },
            {
                "start_time": 114.8727273,
                "end_time": 114.9727273,
                "pitch": 60,
                "velocity": 64,
                "duration": 0.1,
                "tempo": 120.0
            },
            {
                "start_time": 111.8568182,
                "end_time": 115.0727273,
                "pitch": 62,
                "velocity": 64,
                "duration": 3.2159091,
                "tempo": 120.0
            },
            {
                "start_time": 114.9727273,
                "end_time": 115.0727273,
                "pitch": 62,
                "velocity": 64,
                "duration": 0.1,
                "tempo": 120.0
            },
            {
                "start_time": 115.0727273,
                "end_time": 115.8772727,
                "pitch": 64,
                "velocity": 64,
                "duration": 0.8045455,
                "tempo": 120.0
            },
            {
                "start_time": 115.8772727,
                "end_time": 116.2886364,
                "pitch": 52,
                "velocity": 64,
                "duration": 0.4113636,
                "tempo": 120.0
            },
            {
                "start_time": 112.2704545,
                "end_time": 116.2886364,
                "pitch": 66,
                "velocity": 64,
                "duration": 4.0181818,
                "tempo": 120.0
            },
            {
                "start_time": 110.2613636,
                "end_time": 116.6886364,
                "pitch": 31,
                "velocity": 64,
                "duration": 6.4272727,
                "tempo": 120.0
            },
            {
                "start_time": 113.4659091,
                "end_time": 116.6886364,
                "pitch": 57,
                "velocity": 64,
                "duration": 3.2227273,
                "tempo": 120.0
            },
            {
                "start_time": 116.2886364,
                "end_time": 116.6886364,
                "pitch": 57,
                "velocity": 64,
                "duration": 0.4,
                "tempo": 120.0
            },
            {
                "start_time": 114.9727273,
                "end_time": 117.0931818,
                "pitch": 60,
                "velocity": 64,
                "duration": 2.1204545,
                "tempo": 120.0
            },
            {
                "start_time": 116.6886364,
                "end_time": 117.0931818,
                "pitch": 60,
                "velocity": 64,
                "duration": 0.4045455,
                "tempo": 120.0
            },
            {
                "start_time": 110.6545455,
                "end_time": 117.0931818,
                "pitch": 76,
                "velocity": 64,
                "duration": 6.4386364,
                "tempo": 120.0
            },
            {
                "start_time": 117.0931818,
                "end_time": 117.5045455,
                "pitch": 67,
                "velocity": 64,
                "duration": 0.4113636,
                "tempo": 120.0
            },
            {
                "start_time": 118.0977273,
                "end_time": 118.1977273,
                "pitch": 60,
                "velocity": 64,
                "duration": 0.1,
                "tempo": 120.0
            },
            {
                "start_time": 115.0727273,
                "end_time": 118.3,
                "pitch": 62,
                "velocity": 64,
                "duration": 3.2272727,
                "tempo": 120.0
            },
            {
                "start_time": 118.1977273,
                "end_time": 118.3,
                "pitch": 62,
                "velocity": 64,
                "duration": 0.1022727,
                "tempo": 120.0
            },
            {
                "start_time": 118.0977273,
                "end_time": 118.7,
                "pitch": 64,
                "velocity": 64,
                "duration": 0.6022727,
                "tempo": 120.0
            },
            {
                "start_time": 118.3,
                "end_time": 118.7,
                "pitch": 64,
                "velocity": 64,
                "duration": 0.4,
                "tempo": 120.0
            },
            {
                "start_time": 116.2886364,
                "end_time": 118.7,
                "pitch": 66,
                "velocity": 64,
                "duration": 2.4113636,
                "tempo": 120.0
            },
            {
                "start_time": 12.8886364,
                "end_time": 119.1113636,
                "pitch": 32,
                "velocity": 64,
                "duration": 106.2227273,
                "tempo": 120.0
            },
            {
                "start_time": 118.7,
                "end_time": 119.1113636,
                "pitch": 59,
                "velocity": 64,
                "duration": 0.4113636,
                "tempo": 120.0
            },
            {
                "start_time": 119.1113636,
                "end_time": 119.7068182,
                "pitch": 53,
                "velocity": 64,
                "duration": 0.5954545,
                "tempo": 120.0
            },
            {
                "start_time": 60.3295455,
                "end_time": 119.7068182,
                "pitch": 65,
                "velocity": 40,
                "duration": 59.3772727,
                "tempo": 120.0
            },
            {
                "start_time": 118.1977273,
                "end_time": 119.8068182,
                "pitch": 60,
                "velocity": 64,
                "duration": 1.6090909,
                "tempo": 120.0
            },
            {
                "start_time": 119.7068182,
                "end_time": 119.8068182,
                "pitch": 60,
                "velocity": 64,
                "duration": 0.1,
                "tempo": 120.0
            },
            {
                "start_time": 118.3,
                "end_time": 119.9068182,
                "pitch": 62,
                "velocity": 64,
                "duration": 1.6068182,
                "tempo": 120.0
            },
            {
                "start_time": 119.8068182,
                "end_time": 119.9068182,
                "pitch": 62,
                "velocity": 64,
                "duration": 0.1,
                "tempo": 120.0
            },
            {
                "start_time": 119.7068182,
                "end_time": 119.9068182,
                "pitch": 65,
                "velocity": 64,
                "duration": 0.2,
                "tempo": 120.0
            },
            {
                "start_time": 119.9068182,
                "end_time": 120.7136364,
                "pitch": 59,
                "velocity": 64,
                "duration": 0.8068182,
                "tempo": 120.0
            },
            {
                "start_time": 114.8727273,
                "end_time": 120.9113636,
                "pitch": 45,
                "velocity": 64,
                "duration": 6.0386364,
                "tempo": 120.0
            },
            {
                "start_time": 119.8068182,
                "end_time": 122.525,
                "pitch": 60,
                "velocity": 64,
                "duration": 2.7181818,
                "tempo": 120.0
            },
            {
                "start_time": 120.9113636,
                "end_time": 122.525,
                "pitch": 60,
                "velocity": 40,
                "duration": 1.6136364,
                "tempo": 120.0
            },
            {
                "start_time": 122.5272727,
                "end_time": 124.1340909,
                "pitch": 58,
                "velocity": 40,
                "duration": 1.6068182,
                "tempo": 120.0
            },
            {
                "start_time": 124.1340909,
                "end_time": 126.5522727,
                "pitch": 58,
                "velocity": 40,
                "duration": 2.4181818,
                "tempo": 120.0
            },
            {
                "start_time": 106.2181818,
                "end_time": 126.9568182,
                "pitch": 0,
                "velocity": 51,
                "duration": 20.7386364,
                "tempo": 120.0
            },
            {
                "start_time": 126.5522727,
                "end_time": 126.9568182,
                "pitch": 57,
                "velocity": 40,
                "duration": 0.4045455,
                "tempo": 120.0
            },
            {
                "start_time": 126.9568182,
                "end_time": 127.3568182,
                "pitch": 53,
                "velocity": 40,
                "duration": 0.4,
                "tempo": 120.0
            },
            {
                "start_time": 127.3568182,
                "end_time": 128.9681818,
                "pitch": 50,
                "velocity": 40,
                "duration": 1.6113636,
                "tempo": 120.0
            },
            {
                "start_time": 128.9681818,
                "end_time": 130.5772727,
                "pitch": 52,
                "velocity": 40,
                "duration": 1.6090909,
                "tempo": 120.0
            },
            {
                "start_time": 130.5795455,
                "end_time": 132.1886364,
                "pitch": 52,
                "velocity": 40,
                "duration": 1.6090909,
                "tempo": 120.0
            },
            {
                "start_time": 118.7,
                "end_time": 132.1886364,
                "pitch": 66,
                "velocity": 64,
                "duration": 13.4886364,
                "tempo": 120.0
            },
            {
                "start_time": 126.9568182,
                "end_time": 132.8295455,
                "pitch": 0,
                "velocity": 40,
                "duration": 5.8727273,
                "tempo": 120.0
            },
            {
                "start_time": 132.1886364,
                "end_time": 132.8295455,
                "pitch": 55,
                "velocity": 40,
                "duration": 0.6409091,
                "tempo": 120.0
            },
            {
                "start_time": 132.8295455,
                "end_time": 132.8795455,
                "pitch": 55,
                "velocity": 40,
                "duration": 0.05,
                "tempo": 120.0
            },
            {
                "start_time": 132.8295455,
                "end_time": 132.9636364,
                "pitch": 0,
                "velocity": 40,
                "duration": 0.1340909,
                "tempo": 120.0
            },
            {
                "start_time": 132.8795455,
                "end_time": 132.9636364,
                "pitch": 55,
                "velocity": 40,
                "duration": 0.0840909,
                "tempo": 120.0
            },
            {
                "start_time": 132.9636364,
                "end_time": 133.0,
                "pitch": 55,
                "velocity": 40,
                "duration": 0.0363636,
                "tempo": 120.0
            },
            {
                "start_time": 133.2022727,
                "end_time": 133.4022727,
                "pitch": 55,
                "velocity": 40,
                "duration": 0.2,
                "tempo": 120.0
            },
            {
                "start_time": 133.4045455,
                "end_time": 133.6068182,
                "pitch": 55,
                "velocity": 40,
                "duration": 0.2022727,
                "tempo": 120.0
            },
            {
                "start_time": 133.6068182,
                "end_time": 133.8045455,
                "pitch": 57,
                "velocity": 40,
                "duration": 0.1977273,
                "tempo": 120.0
            },
            {
                "start_time": 122.5272727,
                "end_time": 135.4204545,
                "pitch": 64,
                "velocity": 40,
                "duration": 12.8931818,
                "tempo": 120.0
            },
            {
                "start_time": 135.4204545,
                "end_time": 137.0272727,
                "pitch": 58,
                "velocity": 40,
                "duration": 1.6068182,
                "tempo": 120.0
            },
            {
                "start_time": 137.0272727,
                "end_time": 139.4409091,
                "pitch": 58,
                "velocity": 40,
                "duration": 2.4136364,
                "tempo": 120.0
            },
            {
                "start_time": 132.9636364,
                "end_time": 139.85,
                "pitch": 0,
                "velocity": 40,
                "duration": 6.8863636,
                "tempo": 120.0
            },
            {
                "start_time": 139.4409091,
                "end_time": 139.85,
                "pitch": 57,
                "velocity": 40,
                "duration": 0.4090909,
                "tempo": 120.0
            },
            {
                "start_time": 127.3568182,
                "end_time": 140.2522727,
                "pitch": 53,
                "velocity": 40,
                "duration": 12.8954545,
                "tempo": 120.0
            },
            {
                "start_time": 139.85,
                "end_time": 140.2522727,
                "pitch": 53,
                "velocity": 40,
                "duration": 0.4022727,
                "tempo": 120.0
            },
            {
                "start_time": 128.9681818,
                "end_time": 140.8568182,
                "pitch": 50,
                "velocity": 40,
                "duration": 11.8886364,
                "tempo": 120.0
            },
            {
                "start_time": 140.2522727,
                "end_time": 140.8568182,
                "pitch": 50,
                "velocity": 40,
                "duration": 0.6045455,
                "tempo": 120.0
            },
            {
                "start_time": 119.9068182,
                "end_time": 140.8568182,
                "pitch": 65,
                "velocity": 64,
                "duration": 20.95,
                "tempo": 120.0
            },
            {
                "start_time": 140.8568182,
                "end_time": 141.0590909,
                "pitch": 57,
                "velocity": 40,
                "duration": 0.2022727,
                "tempo": 120.0
            },
            {
                "start_time": 139.85,
                "end_time": 141.6636364,
                "pitch": 0,
                "velocity": 40,
                "duration": 1.8136364,
                "tempo": 120.0
            },
            {
                "start_time": 141.2568182,
                "end_time": 141.6636364,
                "pitch": 57,
                "velocity": 40,
                "duration": 0.4068182,
                "tempo": 120.0
            },
            {
                "start_time": 140.2522727,
                "end_time": 141.8659091,
                "pitch": 53,
                "velocity": 40,
                "duration": 1.6136364,
                "tempo": 120.0
            },
            {
                "start_time": 141.6636364,
                "end_time": 141.8659091,
                "pitch": 53,
                "velocity": 40,
                "duration": 0.2022727,
                "tempo": 120.0
            },
            {
                "start_time": 132.1886364,
                "end_time": 141.8659091,
                "pitch": 66,
                "velocity": 40,
                "duration": 9.6772727,
                "tempo": 120.0
            },
            {
                "start_time": 141.6636364,
                "end_time": 142.4977273,
                "pitch": 0,
                "velocity": 40,
                "duration": 0.8340909,
                "tempo": 120.0
            },
            {
                "start_time": 141.8659091,
                "end_time": 142.4977273,
                "pitch": 55,
                "velocity": 40,
                "duration": 0.6318182,
                "tempo": 120.0
            },
            {
                "start_time": 142.4977273,
                "end_time": 142.5477273,
                "pitch": 55,
                "velocity": 40,
                "duration": 0.05,
                "tempo": 120.0
            },
            {
                "start_time": 132.8795455,
                "end_time": 142.5477273,
                "pitch": 67,
                "velocity": 40,
                "duration": 9.6681818,
                "tempo": 120.0
            },
            {
                "start_time": 142.4977273,
                "end_time": 142.6318182,
                "pitch": 0,
                "velocity": 40,
                "duration": 0.1340909,
                "tempo": 120.0
            },
            {
                "start_time": 142.5477273,
                "end_time": 142.6318182,
                "pitch": 55,
                "velocity": 40,
                "duration": 0.0840909,
                "tempo": 120.0
            },
            {
                "start_time": 142.6318182,
                "end_time": 142.6818182,
                "pitch": 55,
                "velocity": 40,
                "duration": 0.05,
                "tempo": 120.0
            },
            {
                "start_time": 142.5477273,
                "end_time": 142.6818182,
                "pitch": 67,
                "velocity": 40,
                "duration": 0.1340909,
                "tempo": 120.0
            },
            {
                "start_time": 142.6318182,
                "end_time": 142.7659091,
                "pitch": 0,
                "velocity": 40,
                "duration": 0.1340909,
                "tempo": 120.0
            },
            {
                "start_time": 142.6818182,
                "end_time": 142.7659091,
                "pitch": 55,
                "velocity": 40,
                "duration": 0.0840909,
                "tempo": 120.0
            },
            {
                "start_time": 142.7659091,
                "end_time": 142.8159091,
                "pitch": 55,
                "velocity": 40,
                "duration": 0.05,
                "tempo": 120.0
            },
            {
                "start_time": 142.6818182,
                "end_time": 142.8181818,
                "pitch": 67,
                "velocity": 40,
                "duration": 0.1363636,
                "tempo": 120.0
            },
            {
                "start_time": 142.8159091,
                "end_time": 142.8181818,
                "pitch": 67,
                "velocity": 40,
                "duration": 0.0022727,
                "tempo": 120.0
            },
            {
                "start_time": 142.7659091,
                "end_time": 142.9,
                "pitch": 0,
                "velocity": 40,
                "duration": 0.1340909,
                "tempo": 120.0
            },
            {
                "start_time": 142.8181818,
                "end_time": 142.9,
                "pitch": 55,
                "velocity": 40,
                "duration": 0.0818182,
                "tempo": 120.0
            },
            {
                "start_time": 142.9,
                "end_time": 142.95,
                "pitch": 55,
                "velocity": 40,
                "duration": 0.05,
                "tempo": 120.0
            },
            {
                "start_time": 142.9,
                "end_time": 143.0340909,
                "pitch": 0,
                "velocity": 40,
                "duration": 0.1340909,
                "tempo": 120.0
            },
            {
                "start_time": 142.95,
                "end_time": 143.0340909,
                "pitch": 55,
                "velocity": 40,
                "duration": 0.0840909,
                "tempo": 120.0
            },
            {
                "start_time": 143.0340909,
                "end_time": 143.0840909,
                "pitch": 55,
                "velocity": 40,
                "duration": 0.05,
                "tempo": 120.0
            },
            {
                "start_time": 142.95,
                "end_time": 143.0840909,
                "pitch": 67,
                "velocity": 40,
                "duration": 0.1340909,
                "tempo": 120.0
            },
            {
                "start_time": 143.0840909,
                "end_time": 143.1681818,
                "pitch": 55,
                "velocity": 40,
                "duration": 0.0840909,
                "tempo": 120.0
            },
            {
                "start_time": 143.0340909,
                "end_time": 143.1704545,
                "pitch": 0,
                "velocity": 40,
                "duration": 0.1363636,
                "tempo": 120.0
            },
            {
                "start_time": 143.1681818,
                "end_time": 143.1704545,
                "pitch": 0,
                "velocity": 40,
                "duration": 0.0022727,
                "tempo": 120.0
            },
            {
                "start_time": 143.1704545,
                "end_time": 143.2181818,
                "pitch": 55,
                "velocity": 40,
                "duration": 0.0477273,
                "tempo": 120.0
            },
            {
                "start_time": 143.0840909,
                "end_time": 143.2181818,
                "pitch": 67,
                "velocity": 40,
                "duration": 0.1340909,
                "tempo": 120.0
            },
            {
                "start_time": 143.2181818,
                "end_time": 143.3,
                "pitch": 55,
                "velocity": 40,
                "duration": 0.0818182,
                "tempo": 120.0
            },
            {
                "start_time": 143.3,
                "end_time": 143.3522727,
                "pitch": 55,
                "velocity": 40,
                "duration": 0.0522727,
                "tempo": 120.0
            },
            {
                "start_time": 143.2181818,
                "end_time": 143.3522727,
                "pitch": 67,
                "velocity": 40,
                "duration": 0.1340909,
                "tempo": 120.0
            },
            {
                "start_time": 143.3,
                "end_time": 143.4363636,
                "pitch": 0,
                "velocity": 40,
                "duration": 0.1363636,
                "tempo": 120.0
            },
            {
                "start_time": 143.3522727,
                "end_time": 143.4363636,
                "pitch": 55,
                "velocity": 40,
                "duration": 0.0840909,
                "tempo": 120.0
            },
            {
                "start_time": 143.4363636,
                "end_time": 143.4704545,
                "pitch": 55,
                "velocity": 40,
                "duration": 0.0340909,
                "tempo": 120.0
            },
            {
                "start_time": 85.4772727,
                "end_time": 145.0818182,
                "pitch": 48,
                "velocity": 40,
                "duration": 59.6045455,
                "tempo": 120.0
            },
            {
                "start_time": 143.4704545,
                "end_time": 145.0818182,
                "pitch": 48,
                "velocity": 40,
                "duration": 1.6113636,
                "tempo": 120.0
            },
            {
                "start_time": 145.0818182,
                "end_time": 146.6954545,
                "pitch": 47,
                "velocity": 40,
                "duration": 1.6136364,
                "tempo": 120.0
            },
            {
                "start_time": 146.6954545,
                "end_time": 148.3136364,
                "pitch": 59,
                "velocity": 40,
                "duration": 1.6181818,
                "tempo": 120.0
            },
            {
                "start_time": 135.4204545,
                "end_time": 148.3136364,
                "pitch": 64,
                "velocity": 40,
                "duration": 12.8931818,
                "tempo": 120.0
            },
            {
                "start_time": 148.3136364,
                "end_time": 149.925,
                "pitch": 58,
                "velocity": 40,
                "duration": 1.6113636,
                "tempo": 120.0
            },
            {
                "start_time": 149.925,
                "end_time": 152.3386364,
                "pitch": 58,
                "velocity": 40,
                "duration": 2.4136364,
                "tempo": 120.0
            },
            {
                "start_time": 143.4363636,
                "end_time": 152.7409091,
                "pitch": 0,
                "velocity": 40,
                "duration": 9.3045455,
                "tempo": 120.0
            },
            {
                "start_time": 152.3386364,
                "end_time": 152.7409091,
                "pitch": 57,
                "velocity": 40,
                "duration": 0.4022727,
                "tempo": 120.0
            },
            {
                "start_time": 152.7409091,
                "end_time": 153.1409091,
                "pitch": 53,
                "velocity": 40,
                "duration": 0.4,
                "tempo": 120.0
            },
            {
                "start_time": 153.1409091,
                "end_time": 154.7522727,
                "pitch": 50,
                "velocity": 40,
                "duration": 1.6113636,
                "tempo": 120.0
            },
            {
                "start_time": 154.7545455,
                "end_time": 156.3659091,
                "pitch": 52,
                "velocity": 40,
                "duration": 1.6113636,
                "tempo": 120.0
            },
            {
                "start_time": 156.3659091,
                "end_time": 157.9795455,
                "pitch": 52,
                "velocity": 40,
                "duration": 1.6136364,
                "tempo": 120.0
            },
            {
                "start_time": 141.8659091,
                "end_time": 157.9795455,
                "pitch": 66,
                "velocity": 40,
                "duration": 16.1136364,
                "tempo": 120.0
            },
            {
                "start_time": 152.7409091,
                "end_time": 158.6113636,
                "pitch": 0,
                "velocity": 40,
                "duration": 5.8704545,
                "tempo": 120.0
            },
            {
                "start_time": 143.4704545,
                "end_time": 158.6113636,
                "pitch": 55,
                "velocity": 40,
                "duration": 15.1409091,
                "tempo": 120.0
            },
            {
                "start_time": 157.9795455,
                "end_time": 158.6113636,
                "pitch": 55,
                "velocity": 40,
                "duration": 0.6318182,
                "tempo": 120.0
            },
            {
                "start_time": 158.6113636,
                "end_time": 158.6636364,
                "pitch": 55,
                "velocity": 40,
                "duration": 0.0522727,
                "tempo": 120.0
            },
            {
                "start_time": 143.3522727,
                "end_time": 158.6636364,
                "pitch": 67,
                "velocity": 40,
                "duration": 15.3113636,
                "tempo": 120.0
            },
            {
                "start_time": 158.6113636,
                "end_time": 158.75,
                "pitch": 0,
                "velocity": 40,
                "duration": 0.1386364,
                "tempo": 120.0
            },
            {
                "start_time": 158.6636364,
                "end_time": 158.75,
                "pitch": 55,
                "velocity": 40,
                "duration": 0.0863636,
                "tempo": 120.0
            },
            {
                "start_time": 158.75,
                "end_time": 158.7840909,
                "pitch": 55,
                "velocity": 40,
                "duration": 0.0340909,
                "tempo": 120.0
            },
            {
                "start_time": 158.9909091,
                "end_time": 159.1909091,
                "pitch": 55,
                "velocity": 40,
                "duration": 0.2,
                "tempo": 120.0
            },
            {
                "start_time": 159.1909091,
                "end_time": 159.3931818,
                "pitch": 55,
                "velocity": 40,
                "duration": 0.2022727,
                "tempo": 120.0
            },
            {
                "start_time": 159.3931818,
                "end_time": 159.5931818,
                "pitch": 57,
                "velocity": 40,
                "duration": 0.2,
                "tempo": 120.0
            },
            {
                "start_time": 148.3136364,
                "end_time": 161.2022727,
                "pitch": 64,
                "velocity": 40,
                "duration": 12.8886364,
                "tempo": 120.0
            },
            {
                "start_time": 161.2022727,
                "end_time": 162.8136364,
                "pitch": 58,
                "velocity": 40,
                "duration": 1.6113636,
                "tempo": 120.0
            },
            {
                "start_time": 162.8136364,
                "end_time": 165.2295455,
                "pitch": 58,
                "velocity": 40,
                "duration": 2.4159091,
                "tempo": 120.0
            },
            {
                "start_time": 158.75,
                "end_time": 165.6318182,
                "pitch": 0,
                "velocity": 40,
                "duration": 6.8818182,
                "tempo": 120.0
            },
            {
                "start_time": 165.2295455,
                "end_time": 165.6318182,
                "pitch": 57,
                "velocity": 40,
                "duration": 0.4022727,
                "tempo": 120.0
            },
            {
                "start_time": 153.1409091,
                "end_time": 166.0340909,
                "pitch": 53,
                "velocity": 40,
                "duration": 12.8931818,
                "tempo": 120.0
            },
            {
                "start_time": 165.6318182,
                "end_time": 166.0340909,
                "pitch": 53,
                "velocity": 40,
                "duration": 0.4022727,
                "tempo": 120.0
            },
            {
                "start_time": 154.7545455,
                "end_time": 166.6386364,
                "pitch": 50,
                "velocity": 40,
                "duration": 11.8840909,
                "tempo": 120.0
            },
            {
                "start_time": 166.0340909,
                "end_time": 166.6386364,
                "pitch": 50,
                "velocity": 40,
                "duration": 0.6045455,
                "tempo": 120.0
            },
            {
                "start_time": 140.8568182,
                "end_time": 166.6386364,
                "pitch": 65,
                "velocity": 40,
                "duration": 25.7818182,
                "tempo": 120.0
            },
            {
                "start_time": 166.6386364,
                "end_time": 166.8409091,
                "pitch": 57,
                "velocity": 40,
                "duration": 0.2022727,
                "tempo": 120.0
            },
            {
                "start_time": 167.0431818,
                "end_time": 167.4431818,
                "pitch": 57,
                "velocity": 40,
                "duration": 0.4,
                "tempo": 120.0
            },
            {
                "start_time": 165.6318182,
                "end_time": 167.4454545,
                "pitch": 0,
                "velocity": 40,
                "duration": 1.8136364,
                "tempo": 120.0
            },
            {
                "start_time": 166.0340909,
                "end_time": 167.6477273,
                "pitch": 53,
                "velocity": 40,
                "duration": 1.6136364,
                "tempo": 120.0
            },
            {
                "start_time": 167.4454545,
                "end_time": 167.6477273,
                "pitch": 53,
                "velocity": 40,
                "duration": 0.2022727,
                "tempo": 120.0
            },
            {
                "start_time": 157.9795455,
                "end_time": 167.6477273,
                "pitch": 66,
                "velocity": 40,
                "duration": 9.6681818,
                "tempo": 120.0
            },
            {
                "start_time": 167.4454545,
                "end_time": 168.2795455,
                "pitch": 0,
                "velocity": 40,
                "duration": 0.8340909,
                "tempo": 120.0
            },
            {
                "start_time": 167.6477273,
                "end_time": 168.2795455,
                "pitch": 55,
                "velocity": 40,
                "duration": 0.6318182,
                "tempo": 120.0
            },
            {
                "start_time": 168.2795455,
                "end_time": 168.3295455,
                "pitch": 55,
                "velocity": 40,
                "duration": 0.05,
                "tempo": 120.0
            },
            {
                "start_time": 158.6636364,
                "end_time": 168.3295455,
                "pitch": 67,
                "velocity": 40,
                "duration": 9.6659091,
                "tempo": 120.0
            },
            {
                "start_time": 168.2795455,
                "end_time": 168.4159091,
                "pitch": 0,
                "velocity": 40,
                "duration": 0.1363636,
                "tempo": 120.0
            },
            {
                "start_time": 168.3295455,
                "end_time": 168.4159091,
                "pitch": 55,
                "velocity": 40,
                "duration": 0.0863636,
                "tempo": 120.0
            },
            {
                "start_time": 168.4159091,
                "end_time": 168.4681818,
                "pitch": 55,
                "velocity": 40,
                "duration": 0.0522727,
                "tempo": 120.0
            },
            {
                "start_time": 168.3295455,
                "end_time": 168.4681818,
                "pitch": 67,
                "velocity": 40,
                "duration": 0.1386364,
                "tempo": 120.0
            },
            {
                "start_time": 168.4159091,
                "end_time": 168.5522727,
                "pitch": 0,
                "velocity": 40,
                "duration": 0.1363636,
                "tempo": 120.0
            },
            {
                "start_time": 168.4681818,
                "end_time": 168.5522727,
                "pitch": 55,
                "velocity": 40,
                "duration": 0.0840909,
                "tempo": 120.0
            },
            {
                "start_time": 168.5522727,
                "end_time": 168.6045455,
                "pitch": 55,
                "velocity": 40,
                "duration": 0.0522727,
                "tempo": 120.0
            },
            {
                "start_time": 168.4681818,
                "end_time": 168.6045455,
                "pitch": 67,
                "velocity": 40,
                "duration": 0.1363636,
                "tempo": 120.0
            },
            {
                "start_time": 168.5522727,
                "end_time": 168.6909091,
                "pitch": 0,
                "velocity": 40,
                "duration": 0.1386364,
                "tempo": 120.0
            },
            {
                "start_time": 168.6045455,
                "end_time": 168.6909091,
                "pitch": 55,
                "velocity": 40,
                "duration": 0.0863636,
                "tempo": 120.0
            },
            {
                "start_time": 168.6909091,
                "end_time": 168.7409091,
                "pitch": 55,
                "velocity": 40,
                "duration": 0.05,
                "tempo": 120.0
            },
            {
                "start_time": 168.6045455,
                "end_time": 168.7409091,
                "pitch": 67,
                "velocity": 40,
                "duration": 0.1363636,
                "tempo": 120.0
            },
            {
                "start_time": 168.6909091,
                "end_time": 168.825,
                "pitch": 0,
                "velocity": 40,
                "duration": 0.1340909,
                "tempo": 120.0
            },
            {
                "start_time": 168.7409091,
                "end_time": 168.825,
                "pitch": 55,
                "velocity": 40,
                "duration": 0.0840909,
                "tempo": 120.0
            },
            {
                "start_time": 168.825,
                "end_time": 168.875,
                "pitch": 55,
                "velocity": 40,
                "duration": 0.05,
                "tempo": 120.0
            },
            {
                "start_time": 168.7409091,
                "end_time": 168.875,
                "pitch": 67,
                "velocity": 40,
                "duration": 0.1340909,
                "tempo": 120.0
            },
            {
                "start_time": 168.825,
                "end_time": 168.9590909,
                "pitch": 0,
                "velocity": 40,
                "duration": 0.1340909,
                "tempo": 120.0
            },
            {
                "start_time": 168.875,
                "end_time": 168.9590909,
                "pitch": 55,
                "velocity": 40,
                "duration": 0.0840909,
                "tempo": 120.0
            },
            {
                "start_time": 168.9590909,
                "end_time": 169.0090909,
                "pitch": 55,
                "velocity": 40,
                "duration": 0.05,
                "tempo": 120.0
            },
            {
                "start_time": 168.875,
                "end_time": 169.0090909,
                "pitch": 67,
                "velocity": 40,
                "duration": 0.1340909,
                "tempo": 120.0
            },
            {
                "start_time": 168.9590909,
                "end_time": 169.0931818,
                "pitch": 0,
                "velocity": 40,
                "duration": 0.1340909,
                "tempo": 120.0
            },
            {
                "start_time": 169.0090909,
                "end_time": 169.0931818,
                "pitch": 55,
                "velocity": 40,
                "duration": 0.0840909,
                "tempo": 120.0
            },
            {
                "start_time": 169.0931818,
                "end_time": 169.1409091,
                "pitch": 55,
                "velocity": 40,
                "duration": 0.0477273,
                "tempo": 120.0
            },
            {
                "start_time": 169.0090909,
                "end_time": 169.1409091,
                "pitch": 67,
                "velocity": 40,
                "duration": 0.1318182,
                "tempo": 120.0
            },
            {
                "start_time": 169.0931818,
                "end_time": 169.2227273,
                "pitch": 0,
                "velocity": 40,
                "duration": 0.1295455,
                "tempo": 120.0
            },
            {
                "start_time": 169.1409091,
                "end_time": 169.2227273,
                "pitch": 55,
                "velocity": 40,
                "duration": 0.0818182,
                "tempo": 120.0
            },
            {
                "start_time": 169.2227273,
                "end_time": 169.2568182,
                "pitch": 55,
                "velocity": 40,
                "duration": 0.0340909,
                "tempo": 120.0
            },
            {
                "start_time": 169.2568182,
                "end_time": 169.2590909,
                "pitch": 55,
                "velocity": 40,
                "duration": 0.0022727,
                "tempo": 120.0
            },
            {
                "start_time": 169.2590909,
                "end_time": 170.8659091,
                "pitch": 48,
                "velocity": 40,
                "duration": 1.6068182,
                "tempo": 120.0
            },
            {
                "start_time": 170.8681818,
                "end_time": 172.4818182,
                "pitch": 47,
                "velocity": 40,
                "duration": 1.6136364,
                "tempo": 120.0
            },
            {
                "start_time": 161.2022727,
                "end_time": 173.075,
                "pitch": 64,
                "velocity": 40,
                "duration": 11.8727273,
                "tempo": 120.0
            },
            {
                "start_time": 173.075,
                "end_time": 173.2795455,
                "pitch": 56,
                "velocity": 40,
                "duration": 0.2045455,
                "tempo": 120.0
            },
            {
                "start_time": 116.6886364,
                "end_time": 173.4863636,
                "pitch": 31,
                "velocity": 64,
                "duration": 56.7977273,
                "tempo": 120.0
            },
            {
                "start_time": 173.2795455,
                "end_time": 173.4863636,
                "pitch": 56,
                "velocity": 40,
                "duration": 0.2068182,
                "tempo": 120.0
            },
            {
                "start_time": 173.4863636,
                "end_time": 174.0886364,
                "pitch": 60,
                "velocity": 40,
                "duration": 0.6022727,
                "tempo": 120.0
            },
            {
                "start_time": 173.075,
                "end_time": 174.6818182,
                "pitch": 64,
                "velocity": 40,
                "duration": 1.6068182,
                "tempo": 120.0
            },
            {
                "start_time": 174.6818182,
                "end_time": 174.8886364,
                "pitch": 56,
                "velocity": 40,
                "duration": 0.2068182,
                "tempo": 120.0
            },
            {
                "start_time": 173.4863636,
                "end_time": 175.0931818,
                "pitch": 31,
                "velocity": 40,
                "duration": 1.6068182,
                "tempo": 120.0
            },
            {
                "start_time": 174.8886364,
                "end_time": 175.0931818,
                "pitch": 56,
                "velocity": 40,
                "duration": 0.2045455,
                "tempo": 120.0
            },
            {
                "start_time": 175.0931818,
                "end_time": 175.6977273,
                "pitch": 60,
                "velocity": 40,
                "duration": 0.6045455,
                "tempo": 120.0
            },
            {
                "start_time": 174.6818182,
                "end_time": 179.5181818,
                "pitch": 64,
                "velocity": 40,
                "duration": 4.8363636,
                "tempo": 120.0
            },
            {
                "start_time": 179.5181818,
                "end_time": 179.7181818,
                "pitch": 56,
                "velocity": 40,
                "duration": 0.2,
                "tempo": 120.0
            },
            {
                "start_time": 179.7204545,
                "end_time": 179.9181818,
                "pitch": 56,
                "velocity": 40,
                "duration": 0.1977273,
                "tempo": 120.0
            },
            {
                "start_time": 175.0931818,
                "end_time": 179.9204545,
                "pitch": 31,
                "velocity": 40,
                "duration": 4.8272727,
                "tempo": 120.0
            }
        ]
    }
}