{
    "mood": "happy",
    "instruments": {
        "Lead 2 (sawtooth)": [
            {
                "start_time": 40.575,
                "end_time": 41.2931818,
                "pitch": 60,
                "velocity": 51,
                "duration": 0.7181818,
                "tempo": 120.0
            },
            {
                "start_time": 41.2931818,
                "end_time": 42.0113636,
                "pitch": 61,
                "velocity": 51,
                "duration": 0.7181818,
                "tempo": 120.0
            },
            {
                "start_time": 42.0113636,
                "end_time": 42.7090909,
                "pitch": 62,
                "velocity": 51,
                "duration": 0.6977273,
                "tempo": 120.0
            },
            {
                "start_time": 42.7090909,
                "end_time": 43.4272727,
                "pitch": 64,
                "velocity": 51,
                "duration": 0.7181818,
                "tempo": 120.0
            }
        ],
        "Oboe": [
            {
                "start_time": 0.0136364,
                "end_time": 0.0772727,
                "pitch": 53,
                "velocity": 64,
                "duration": 0.0636364,
                "tempo": 120.0
            },
            {
                "start_time": 0.0772727,
                "end_time": 0.1272727,
                "pitch": 57,
                "velocity": 64,
                "duration": 0.05,
                "tempo": 120.0
            },
            {
                "start_time": 0.1272727,
                "end_time": 1.4409091,
                "pitch": 53,
                "velocity": 64,
                "duration": 1.3136364,
                "tempo": 120.0
            },
            {
                "start_time": 1.4409091,
                "end_time": 1.4886364,
                "pitch": 65,
                "velocity": 64,
                "duration": 0.0477273,
                "tempo": 120.0
            },
            {
                "start_time": 1.4886364,
                "end_time": 1.5545455,
                "pitch": 69,
                "velocity": 64,
                "duration": 0.0659091,
                "tempo": 120.0
            },
            {
                "start_time": 1.5545455,
                "end_time": 1.75,
                "pitch": 65,
                "velocity": 64,
                "duration": 0.1954545,
                "tempo": 120.0
            },
            {
                "start_time": 1.75,
                "end_time": 1.8,
                "pitch": 63,
                "velocity": 64,
                "duration": 0.05,
                "tempo": 120.0
            },
            {
                "start_time": 1.8,
                "end_time": 2.1159091,
                "pitch": 60,
                "velocity": 64,
                "duration": 0.3159091,
                "tempo": 120.0
            },
            {
                "start_time": 2.1159091,
                "end_time": 2.1659091,
                "pitch": 63,
                "velocity": 64,
                "duration": 0.05,
                "tempo": 120.0
            },
            {
                "start_time": 2.1659091,
                "end_time": 2.3295455,
                "pitch": 65,
                "velocity": 64,
                "duration": 0.1636364,
                "tempo": 120.0
            },
            {
                "start_time": 3.9295455,
                "end_time": 4.2863636,
                "pitch": 64,
                "velocity": 40,
                "duration": 0.3568182,
                "tempo": 120.0
            },
            {
                "start_time": 4.2863636,
                "end_time": 4.6477273,
                "pitch": 65,
                "velocity": 40,
                "duration": 0.3613636,
                "tempo": 120.0
            },
            {
                "start_time": 4.6477273,
                "end_time": 4.775,
                "pitch": 67,
                "velocity": 40,
                "duration": 0.1272727,
                "tempo": 120.0
            },
            {
                "start_time": 4.775,
                "end_time": 4.9386364,
                "pitch": 67,
                "velocity": 40,
                "duration": 0.1636364,
                "tempo": 120.0
            },
            {
                "start_time": 4.775,
                "end_time": 4.9386364,
                "pitch": 79,
                "velocity": 40,
                "duration": 0.1636364,
                "tempo": 120.0
            },
            {
                "start_time": 4.9386364,
                "end_time": 4.9886364,
                "pitch": 67,
                "velocity": 40,
                "duration": 0.05,
                "tempo": 120.0
            },
            {
                "start_time": 4.9886364,
                "end_time": 5.3477273,
                "pitch": 65,
                "velocity": 40,
                "duration": 0.3590909,
                "tempo": 120.0
            },
            {
                "start_time": 5.3477273,
                "end_time": 5.7068182,
                "pitch": 60,
                "velocity": 32,
                "duration": 0.3590909,
                "tempo": 120.0
            },
            {
                "start_time": 6.7727273,
                "end_time": 7.1318182,
                "pitch": 64,
                "velocity": 40,
                "duration": 0.3590909,
                "tempo": 120.0
            },
            {
                "start_time": 7.1340909,
                "end_time": 7.475,
                "pitch": 65,
                "velocity": 40,
                "duration": 0.3409091,
                "tempo": 120.0
            },
            {
                "start_time": 7.475,
                "end_time": 7.6022727,
                "pitch": 67,
                "velocity": 40,
                "duration": 0.1272727,
                "tempo": 120.0
            },
            {
                "start_time": 4.9386364,
                "end_time": 7.6022727,
                "pitch": 79,
                "velocity": 40,
                "duration": 2.6636364,
                "tempo": 120.0
            },
            {
                "start_time": 7.6022727,
                "end_time": 7.7818182,
                "pitch": 67,
                "velocity": 40,
                "duration": 0.1795455,
                "tempo": 120.0
            },
            {
                "start_time": 7.6022727,
                "end_time": 7.7818182,
                "pitch": 79,
                "velocity": 40,
                "duration": 0.1795455,
                "tempo": 120.0
            },
            {
                "start_time": 7.7818182,
                "end_time": 7.8318182,
                "pitch": 67,
                "velocity": 40,
                "duration": 0.05,
                "tempo": 120.0
            },
            {
                "start_time": 7.8318182,
                "end_time": 7.8818182,
                "pitch": 67,
                "velocity": 40,
                "duration": 0.05,
                "tempo": 120.0
            },
            {
                "start_time": 7.8818182,
                "end_time": 8.0886364,
                "pitch": 69,
                "velocity": 40,
                "duration": 0.2068182,
                "tempo": 120.0
            },
            {
                "start_time": 8.0886364,
                "end_time": 8.1227273,
                "pitch": 72,
                "velocity": 40,
                "duration": 0.0340909,
                "tempo": 120.0
            },
            {
                "start_time": 8.1227273,
                "end_time": 8.1568182,
                "pitch": 71,
                "velocity": 40,
                "duration": 0.0340909,
                "tempo": 120.0
            },
            {
                "start_time": 8.0886364,
                "end_time": 8.1568182,
                "pitch": 76,
                "velocity": 40,
                "duration": 0.0681818,
                "tempo": 120.0
            },
            {
                "start_time": 8.1568182,
                "end_time": 8.3704545,
                "pitch": 73,
                "velocity": 40,
                "duration": 0.2136364,
                "tempo": 120.0
            },
            {
                "start_time": 8.1568182,
                "end_time": 8.55,
                "pitch": 76,
                "velocity": 40,
                "duration": 0.3931818,
                "tempo": 120.0
            },
            {
                "start_time": 8.3704545,
                "end_time": 8.55,
                "pitch": 76,
                "velocity": 40,
                "duration": 0.1795455,
                "tempo": 120.0
            },
            {
                "start_time": 9.6204545,
                "end_time": 9.9727273,
                "pitch": 64,
                "velocity": 40,
                "duration": 0.3522727,
                "tempo": 120.0
            },
            {
                "start_time": 9.9727273,
                "end_time": 10.3295455,
                "pitch": 65,
                "velocity": 40,
                "duration": 0.3568182,
                "tempo": 120.0
            },
            {
                "start_time": 10.3295455,
                "end_time": 10.4454545,
                "pitch": 67,
                "velocity": 40,
                "duration": 0.1159091,
                "tempo": 120.0
            },
            {
                "start_time": 7.7818182,
                "end_time": 10.4454545,
                "pitch": 79,
                "velocity": 40,
                "duration": 2.6636364,
                "tempo": 120.0
            },
            {
                "start_time": 10.4454545,
                "end_time": 10.6295455,
                "pitch": 67,
                "velocity": 40,
                "duration": 0.1840909,
                "tempo": 120.0
            },
            {
                "start_time": 10.4454545,
                "end_time": 10.6295455,
                "pitch": 79,
                "velocity": 40,
                "duration": 0.1840909,
                "tempo": 120.0
            },
            {
                "start_time": 10.6295455,
                "end_time": 10.6818182,
                "pitch": 67,
                "velocity": 40,
                "duration": 0.0522727,
                "tempo": 120.0
            },
            {
                "start_time": 10.6818182,
                "end_time": 11.0386364,
                "pitch": 65,
                "velocity": 40,
                "duration": 0.3568182,
                "tempo": 120.0
            },
            {
                "start_time": 11.0386364,
                "end_time": 11.4,
                "pitch": 60,
                "velocity": 32,
                "duration": 0.3613636,
                "tempo": 120.0
            },
            {
                "start_time": 12.4590909,
                "end_time": 12.8181818,
                "pitch": 64,
                "velocity": 40,
                "duration": 0.3590909,
                "tempo": 120.0
            },
            {
                "start_time": 12.8181818,
                "end_time": 13.1681818,
                "pitch": 65,
                "velocity": 40,
                "duration": 0.35,
                "tempo": 120.0
            },
            {
                "start_time": 13.1704545,
                "end_time": 13.3022727,
                "pitch": 67,
                "velocity": 40,
                "duration": 0.1318182,
                "tempo": 120.0
            },
            {
                "start_time": 10.6295455,
                "end_time": 13.3022727,
                "pitch": 79,
                "velocity": 40,
                "duration": 2.6727273,
                "tempo": 120.0
            },
            {
                "start_time": 13.3022727,
                "end_time": 13.4863636,
                "pitch": 67,
                "velocity": 40,
                "duration": 0.1840909,
                "tempo": 120.0
            },
            {
                "start_time": 13.3022727,
                "end_time": 13.4863636,
                "pitch": 79,
                "velocity": 40,
                "duration": 0.1840909,
                "tempo": 120.0
            },
            {
                "start_time": 13.4863636,
                "end_time": 13.5386364,
                "pitch": 67,
                "velocity": 40,
                "duration": 0.0522727,
                "tempo": 120.0
            },
            {
                "start_time": 13.5386364,
                "end_time": 13.5863636,
                "pitch": 67,
                "velocity": 40,
                "duration": 0.0477273,
                "tempo": 120.0
            },
            {
                "start_time": 13.5863636,
                "end_time": 13.7886364,
                "pitch": 69,
                "velocity": 40,
                "duration": 0.2022727,
                "tempo": 120.0
            },
            {
                "start_time": 8.1227273,
                "end_time": 13.8204545,
                "pitch": 56,
                "velocity": 40,
                "duration": 5.6977273,
                "tempo": 120.0
            },
            {
                "start_time": 13.7886364,
                "end_time": 13.8204545,
                "pitch": 72,
                "velocity": 40,
                "duration": 0.0318182,
                "tempo": 120.0
            },
            {
                "start_time": 13.8204545,
                "end_time": 13.8545455,
                "pitch": 71,
                "velocity": 40,
                "duration": 0.0340909,
                "tempo": 120.0
            },
            {
                "start_time": 13.7886364,
                "end_time": 13.8545455,
                "pitch": 76,
                "velocity": 40,
                "duration": 0.0659091,
                "tempo": 120.0
            },
            {
                "start_time": 13.8545455,
                "end_time": 14.0727273,
                "pitch": 73,
                "velocity": 40,
                "duration": 0.2181818,
                "tempo": 120.0
            },
            {
                "start_time": 13.8545455,
                "end_time": 14.2590909,
                "pitch": 76,
                "velocity": 40,
                "duration": 0.4045455,
                "tempo": 120.0
            },
            {
                "start_time": 14.0727273,
                "end_time": 14.2590909,
                "pitch": 76,
                "velocity": 40,
                "duration": 0.1863636,
                "tempo": 120.0
            },
            {
                "start_time": 15.3090909,
                "end_time": 15.6704545,
                "pitch": 64,
                "velocity": 40,
                "duration": 0.3613636,
                "tempo": 120.0
            },
            {
                "start_time": 15.6704545,
                "end_time": 16.0272727,
                "pitch": 65,
                "velocity": 40,
                "duration": 0.3568182,
                "tempo": 120.0
            },
            {
                "start_time": 16.0272727,
                "end_time": 16.1454545,
                "pitch": 67,
                "velocity": 40,
                "duration": 0.1181818,
                "tempo": 120.0
            },
            {
                "start_time": 13.4863636,
                "end_time": 16.1454545,
                "pitch": 79,
                "velocity": 40,
                "duration": 2.6590909,
                "tempo": 120.0
            },
            {
                "start_time": 16.1454545,
                "end_time": 16.3340909,
                "pitch": 67,
                "velocity": 40,
                "duration": 0.1886364,
                "tempo": 120.0
            },
            {
                "start_time": 16.1454545,
                "end_time": 16.3340909,
                "pitch": 79,
                "velocity": 40,
                "duration": 0.1886364,
                "tempo": 120.0
            },
            {
                "start_time": 16.3340909,
                "end_time": 16.3886364,
                "pitch": 67,
                "velocity": 40,
                "duration": 0.0545455,
                "tempo": 120.0
            },
            {
                "start_time": 16.3886364,
                "end_time": 16.7454545,
                "pitch": 65,
                "velocity": 40,
                "duration": 0.3568182,
                "tempo": 120.0
            },
            {
                "start_time": 16.7454545,
                "end_time": 17.1045455,
                "pitch": 60,
                "velocity": 32,
                "duration": 0.3590909,
                "tempo": 120.0
            },
            {
                "start_time": 18.1568182,
                "end_time": 18.5136364,
                "pitch": 64,
                "velocity": 40,
                "duration": 0.3568182,
                "tempo": 120.0
            },
            {
                "start_time": 18.5159091,
                "end_time": 18.875,
                "pitch": 65,
                "velocity": 40,
                "duration": 0.3590909,
                "tempo": 120.0
            },
            {
                "start_time": 18.875,
                "end_time": 19.0045455,
                "pitch": 67,
                "velocity": 40,
                "duration": 0.1295455,
                "tempo": 120.0
            },
            {
                "start_time": 16.3340909,
                "end_time": 19.0045455,
                "pitch": 79,
                "velocity": 40,
                "duration": 2.6704545,
                "tempo": 120.0
            },
            {
                "start_time": 19.0045455,
                "end_time": 19.1659091,
                "pitch": 67,
                "velocity": 40,
                "duration": 0.1613636,
                "tempo": 120.0
            },
            {
                "start_time": 19.0045455,
                "end_time": 19.1659091,
                "pitch": 79,
                "velocity": 40,
                "duration": 0.1613636,
                "tempo": 120.0
            },
            {
                "start_time": 19.1659091,
                "end_time": 19.2318182,
                "pitch": 67,
                "velocity": 40,
                "duration": 0.0659091,
                "tempo": 120.0
            },
            {
                "start_time": 19.2340909,
                "end_time": 19.2818182,
                "pitch": 67,
                "velocity": 40,
                "duration": 0.0477273,
                "tempo": 120.0
            },
            {
                "start_time": 19.2818182,
                "end_time": 19.4886364,
                "pitch": 69,
                "velocity": 40,
                "duration": 0.2068182,
                "tempo": 120.0
            },
            {
                "start_time": 13.8204545,
                "end_time": 19.5227273,
                "pitch": 56,
                "velocity": 40,
                "duration": 5.7022727,
                "tempo": 120.0
            },
            {
                "start_time": 19.4886364,
                "end_time": 19.5227273,
                "pitch": 72,
                "velocity": 40,
                "duration": 0.0340909,
                "tempo": 120.0
            },
            {
                "start_time": 19.5227273,
                "end_time": 19.5568182,
                "pitch": 71,
                "velocity": 40,
                "duration": 0.0340909,
                "tempo": 120.0
            },
            {
                "start_time": 19.4886364,
                "end_time": 19.5568182,
                "pitch": 76,
                "velocity": 40,
                "duration": 0.0681818,
                "tempo": 120.0
            },
            {
                "start_time": 19.5568182,
                "end_time": 19.7727273,
                "pitch": 73,
                "velocity": 40,
                "duration": 0.2159091,
                "tempo": 120.0
            },
            {
                "start_time": 19.5568182,
                "end_time": 19.9340909,
                "pitch": 76,
                "velocity": 40,
                "duration": 0.3772727,
                "tempo": 120.0
            },
            {
                "start_time": 19.7727273,
                "end_time": 19.9340909,
                "pitch": 76,
                "velocity": 40,
                "duration": 0.1613636,
                "tempo": 120.0
            },
            {
                "start_time": 21.0136364,
                "end_time": 21.3636364,
                "pitch": 64,
                "velocity": 40,
                "duration": 0.35,
                "tempo": 120.0
            },
            {
                "start_time": 21.3659091,
                "end_time": 21.7227273,
                "pitch": 65,
                "velocity": 40,
                "duration": 0.3568182,
                "tempo": 120.0
            },
            {
                "start_time": 21.7227273,
                "end_time": 21.8409091,
                "pitch": 67,
                "velocity": 40,
                "duration": 0.1181818,
                "tempo": 120.0
            },
            {
                "start_time": 19.1659091,
                "end_time": 21.8409091,
                "pitch": 79,
                "velocity": 40,
                "duration": 2.675,
                "tempo": 120.0
            },
            {
                "start_time": 21.8409091,
                "end_time": 22.0295455,
                "pitch": 67,
                "velocity": 40,
                "duration": 0.1886364,
                "tempo": 120.0
            },
            {
                "start_time": 21.8409091,
                "end_time": 22.0295455,
                "pitch": 79,
                "velocity": 40,
                "duration": 0.1886364,
                "tempo": 120.0
            },
            {
                "start_time": 22.0295455,
                "end_time": 22.0818182,
                "pitch": 67,
                "velocity": 40,
                "duration": 0.0522727,
                "tempo": 120.0
            },
            {
                "start_time": 22.0840909,
                "end_time": 22.425,
                "pitch": 65,
                "velocity": 40,
                "duration": 0.3409091,
                "tempo": 120.0
            },
            {
                "start_time": 22.425,
                "end_time": 22.7818182,
                "pitch": 60,
                "velocity": 32,
                "duration": 0.3568182,
                "tempo": 120.0
            },
            {
                "start_time": 23.8522727,
                "end_time": 24.2204545,
                "pitch": 64,
                "velocity": 40,
                "duration": 0.3681818,
                "tempo": 120.0
            },
            {
                "start_time": 24.2204545,
                "end_time": 24.5727273,
                "pitch": 65,
                "velocity": 40,
                "duration": 0.3522727,
                "tempo": 120.0
            },
            {
                "start_time": 24.5727273,
                "end_time": 24.7,
                "pitch": 67,
                "velocity": 40,
                "duration": 0.1272727,
                "tempo": 120.0
            },
            {
                "start_time": 22.0295455,
                "end_time": 24.7,
                "pitch": 79,
                "velocity": 40,
                "duration": 2.6704545,
                "tempo": 120.0
            },
            {
                "start_time": 24.7,
                "end_time": 24.8636364,
                "pitch": 67,
                "velocity": 40,
                "duration": 0.1636364,
                "tempo": 120.0
            },
            {
                "start_time": 24.7,
                "end_time": 24.8636364,
                "pitch": 79,
                "velocity": 40,
                "duration": 0.1636364,
                "tempo": 120.0
            },
            {
                "start_time": 24.8636364,
                "end_time": 24.9136364,
                "pitch": 67,
                "velocity": 40,
                "duration": 0.05,
                "tempo": 120.0
            },
            {
                "start_time": 24.9136364,
                "end_time": 24.9772727,
                "pitch": 67,
                "velocity": 40,
                "duration": 0.0636364,
                "tempo": 120.0
            },
            {
                "start_time": 24.9772727,
                "end_time": 25.1568182,
                "pitch": 69,
                "velocity": 40,
                "duration": 0.1795455,
                "tempo": 120.0
            },
            {
                "start_time": 19.5227273,
                "end_time": 25.2045455,
                "pitch": 56,
                "velocity": 40,
                "duration": 5.6818182,
                "tempo": 120.0
            },
            {
                "start_time": 25.1568182,
                "end_time": 25.2045455,
                "pitch": 72,
                "velocity": 40,
                "duration": 0.0477273,
                "tempo": 120.0
            },
            {
                "start_time": 25.2045455,
                "end_time": 25.2386364,
                "pitch": 71,
                "velocity": 40,
                "duration": 0.0340909,
                "tempo": 120.0
            },
            {
                "start_time": 25.1568182,
                "end_time": 25.2386364,
                "pitch": 76,
                "velocity": 40,
                "duration": 0.0818182,
                "tempo": 120.0
            },
            {
                "start_time": 25.2386364,
                "end_time": 25.4590909,
                "pitch": 73,
                "velocity": 40,
                "duration": 0.2204545,
                "tempo": 120.0
            },
            {
                "start_time": 25.2386364,
                "end_time": 25.6318182,
                "pitch": 76,
                "velocity": 40,
                "duration": 0.3931818,
                "tempo": 120.0
            },
            {
                "start_time": 25.4590909,
                "end_time": 25.6318182,
                "pitch": 76,
                "velocity": 40,
                "duration": 0.1727273,
                "tempo": 120.0
            },
            {
                "start_time": 25.6318182,
                "end_time": 25.7113636,
                "pitch": 67,
                "velocity": 51,
                "duration": 0.0795455,
                "tempo": 120.0
            },
            {
                "start_time": 25.8090909,
                "end_time": 25.875,
                "pitch": 69,
                "velocity": 51,
                "duration": 0.0659091,
                "tempo": 120.0
            },
            {
                "start_time": 25.9886364,
                "end_time": 26.0568182,
                "pitch": 68,
                "velocity": 51,
                "duration": 0.0681818,
                "tempo": 120.0
            },
            {
                "start_time": 26.1590909,
                "end_time": 26.2454545,
                "pitch": 70,
                "velocity": 51,
                "duration": 0.0863636,
                "tempo": 120.0
            },
            {
                "start_time": 26.35,
                "end_time": 26.4136364,
                "pitch": 69,
                "velocity": 51,
                "duration": 0.0636364,
                "tempo": 120.0
            },
            {
                "start_time": 26.5272727,
                "end_time": 26.5931818,
                "pitch": 71,
                "velocity": 51,
                "duration": 0.0659091,
                "tempo": 120.0
            },
            {
                "start_time": 26.7068182,
                "end_time": 26.775,
                "pitch": 70,
                "velocity": 51,
                "duration": 0.0681818,
                "tempo": 120.0
            },
            {
                "start_time": 26.8795455,
                "end_time": 26.9636364,
                "pitch": 72,
                "velocity": 51,
                "duration": 0.0840909,
                "tempo": 120.0
            },
            {
                "start_time": 27.0681818,
                "end_time": 27.1318182,
                "pitch": 71,
                "velocity": 51,
                "duration": 0.0636364,
                "tempo": 120.0
            },
            {
                "start_time": 27.2477273,
                "end_time": 27.3113636,
                "pitch": 73,
                "velocity": 51,
                "duration": 0.0636364,
                "tempo": 120.0
            },
            {
                "start_time": 27.4090909,
                "end_time": 27.4886364,
                "pitch": 72,
                "velocity": 51,
                "duration": 0.0795455,
                "tempo": 120.0
            },
            {
                "start_time": 27.5886364,
                "end_time": 27.6522727,
                "pitch": 74,
                "velocity": 51,
                "duration": 0.0636364,
                "tempo": 120.0
            },
            {
                "start_time": 27.7681818,
                "end_time": 27.8340909,
                "pitch": 73,
                "velocity": 51,
                "duration": 0.0659091,
                "tempo": 120.0
            },
            {
                "start_time": 27.9568182,
                "end_time": 28.0227273,
                "pitch": 75,
                "velocity": 51,
                "duration": 0.0659091,
                "tempo": 120.0
            },
            {
                "start_time": 28.1272727,
                "end_time": 28.2068182,
                "pitch": 74,
                "velocity": 51,
                "duration": 0.0795455,
                "tempo": 120.0
            },
            {
                "start_time": 28.3068182,
                "end_time": 28.3704545,
                "pitch": 76,
                "velocity": 51,
                "duration": 0.0636364,
                "tempo": 120.0
            },
            {
                "start_time": 44.8409091,
                "end_time": 44.9068182,
                "pitch": 77,
                "velocity": 40,
                "duration": 0.0659091,
                "tempo": 120.0
            },
            {
                "start_time": 44.9068182,
                "end_time": 44.9568182,
                "pitch": 81,
                "velocity": 40,
                "duration": 0.05,
                "tempo": 120.0
            },
            {
                "start_time": 44.9568182,
                "end_time": 45.1727273,
                "pitch": 77,
                "velocity": 40,
                "duration": 0.2159091,
                "tempo": 120.0
            },
            {
                "start_time": 45.1727273,
                "end_time": 45.2068182,
                "pitch": 75,
                "velocity": 40,
                "duration": 0.0340909,
                "tempo": 120.0
            },
            {
                "start_time": 45.2068182,
                "end_time": 45.5159091,
                "pitch": 72,
                "velocity": 40,
                "duration": 0.3090909,
                "tempo": 120.0
            },
            {
                "start_time": 45.5159091,
                "end_time": 45.5659091,
                "pitch": 75,
                "velocity": 40,
                "duration": 0.05,
                "tempo": 120.0
            },
            {
                "start_time": 45.5659091,
                "end_time": 45.7318182,
                "pitch": 77,
                "velocity": 40,
                "duration": 0.1659091,
                "tempo": 120.0
            },
            {
                "start_time": 0.0772727,
                "end_time": 46.3181818,
                "pitch": 19,
                "velocity": 64,
                "duration": 46.2409091,
                "tempo": 120.0
            },
            {
                "start_time": 46.2704545,
                "end_time": 46.3181818,
                "pitch": 53,
                "velocity": 64,
                "duration": 0.0477273,
                "tempo": 120.0
            },
            {
                "start_time": 46.3181818,
                "end_time": 46.3863636,
                "pitch": 57,
                "velocity": 64,
                "duration": 0.0681818,
                "tempo": 120.0
            },
            {
                "start_time": 0.1272727,
                "end_time": 46.3863636,
                "pitch": 66,
                "velocity": 64,
                "duration": 46.2590909,
                "tempo": 120.0
            },
            {
                "start_time": 46.3863636,
                "end_time": 47.6909091,
                "pitch": 53,
                "velocity": 64,
                "duration": 1.3045455,
                "tempo": 120.0
            },
            {
                "start_time": 1.4886364,
                "end_time": 47.7386364,
                "pitch": 31,
                "velocity": 64,
                "duration": 46.25,
                "tempo": 120.0
            },
            {
                "start_time": 47.6909091,
                "end_time": 47.7386364,
                "pitch": 65,
                "velocity": 64,
                "duration": 0.0477273,
                "tempo": 120.0
            },
            {
                "start_time": 47.7386364,
                "end_time": 47.7909091,
                "pitch": 69,
                "velocity": 64,
                "duration": 0.0522727,
                "tempo": 120.0
            },
            {
                "start_time": 1.5545455,
                "end_time": 47.7909091,
                "pitch": 78,
                "velocity": 64,
                "duration": 46.2363636,
                "tempo": 120.0
            },
            {
                "start_time": 47.7909091,
                "end_time": 48.0136364,
                "pitch": 65,
                "velocity": 64,
                "duration": 0.2227273,
                "tempo": 120.0
            },
            {
                "start_time": 48.0136364,
                "end_time": 48.05,
                "pitch": 63,
                "velocity": 64,
                "duration": 0.0363636,
                "tempo": 120.0
            },
            {
                "start_time": 48.05,
                "end_time": 48.3727273,
                "pitch": 60,
                "velocity": 64,
                "duration": 0.3227273,
                "tempo": 120.0
            },
            {
                "start_time": 48.3727273,
                "end_time": 48.4227273,
                "pitch": 63,
                "velocity": 64,
                "duration": 0.05,
                "tempo": 120.0
            },
            {
                "start_time": 48.4227273,
                "end_time": 48.5795455,
                "pitch": 65,
                "velocity": 64,
                "duration": 0.1568182,
                "tempo": 120.0
            },
            {
                "start_time": 50.1886364,
                "end_time": 50.5386364,
                "pitch": 64,
                "velocity": 40,
                "duration": 0.35,
                "tempo": 120.0
            },
            {
                "start_time": 50.5409091,
                "end_time": 50.8977273,
                "pitch": 65,
                "velocity": 40,
                "duration": 0.3568182,
                "tempo": 120.0
            },
            {
                "start_time": 50.8977273,
                "end_time": 51.0159091,
                "pitch": 67,
                "velocity": 40,
                "duration": 0.1181818,
                "tempo": 120.0
            },
            {
                "start_time": 24.8636364,
                "end_time": 51.0159091,
                "pitch": 79,
                "velocity": 40,
                "duration": 26.1522727,
                "tempo": 120.0
            },
            {
                "start_time": 51.0159091,
                "end_time": 51.2045455,
                "pitch": 67,
                "velocity": 40,
                "duration": 0.1886364,
                "tempo": 120.0
            },
            {
                "start_time": 51.0159091,
                "end_time": 51.2045455,
                "pitch": 79,
                "velocity": 40,
                "duration": 0.1886364,
                "tempo": 120.0
            },
            {
                "start_time": 51.2045455,
                "end_time": 51.2568182,
                "pitch": 67,
                "velocity": 40,
                "duration": 0.0522727,
                "tempo": 120.0
            },
            {
                "start_time": 51.2590909,
                "end_time": 51.6159091,
                "pitch": 65,
                "velocity": 40,
                "duration": 0.3568182,
                "tempo": 120.0
            },
            {
                "start_time": 51.6159091,
                "end_time": 51.975,
                "pitch": 60,
                "velocity": 32,
                "duration": 0.3590909,
                "tempo": 120.0
            },
            {
                "start_time": 53.0363636,
                "end_time": 53.3931818,
                "pitch": 64,
                "velocity": 40,
                "duration": 0.3568182,
                "tempo": 120.0
            },
            {
                "start_time": 53.3931818,
                "end_time": 53.7454545,
                "pitch": 65,
                "velocity": 40,
                "duration": 0.3522727,
                "tempo": 120.0
            },
            {
                "start_time": 53.7454545,
                "end_time": 53.8772727,
                "pitch": 67,
                "velocity": 40,
                "duration": 0.1318182,
                "tempo": 120.0
            },
            {
                "start_time": 51.2045455,
                "end_time": 53.8772727,
                "pitch": 79,
                "velocity": 40,
                "duration": 2.6727273,
                "tempo": 120.0
            },
            {
                "start_time": 53.8772727,
                "end_time": 54.0454545,
                "pitch": 67,
                "velocity": 40,
                "duration": 0.1681818,
                "tempo": 120.0
            },
            {
                "start_time": 53.8772727,
                "end_time": 54.0454545,
                "pitch": 79,
                "velocity": 40,
                "duration": 0.1681818,
                "tempo": 120.0
            },
            {
                "start_time": 54.0454545,
                "end_time": 54.1136364,
                "pitch": 67,
                "velocity": 40,
                "duration": 0.0681818,
                "tempo": 120.0
            },
            {
                "start_time": 54.1136364,
                "end_time": 54.1613636,
                "pitch": 67,
                "velocity": 40,
                "duration": 0.0477273,
                "tempo": 120.0
            },
            {
                "start_time": 54.1613636,
                "end_time": 54.3636364,
                "pitch": 69,
                "velocity": 40,
                "duration": 0.2022727,
                "tempo": 120.0
            },
            {
                "start_time": 25.2045455,
                "end_time": 54.3977273,
                "pitch": 56,
                "velocity": 40,
                "duration": 29.1931818,
                "tempo": 120.0
            },
            {
                "start_time": 54.3636364,
                "end_time": 54.3977273,
                "pitch": 72,
                "velocity": 40,
                "duration": 0.0340909,
                "tempo": 120.0
            },
            {
                "start_time": 54.3977273,
                "end_time": 54.4295455,
                "pitch": 71,
                "velocity": 40,
                "duration": 0.0318182,
                "tempo": 120.0
            },
            {
                "start_time": 54.3636364,
                "end_time": 54.4295455,
                "pitch": 76,
                "velocity": 40,
                "duration": 0.0659091,
                "tempo": 120.0
            },
            {
                "start_time": 54.4295455,
                "end_time": 54.6431818,
                "pitch": 73,
                "velocity": 40,
                "duration": 0.2136364,
                "tempo": 120.0
            },
            {
                "start_time": 54.4295455,
                "end_time": 54.8068182,
                "pitch": 76,
                "velocity": 40,
                "duration": 0.3772727,
                "tempo": 120.0
            },
            {
                "start_time": 54.6431818,
                "end_time": 54.8068182,
                "pitch": 76,
                "velocity": 40,
                "duration": 0.1636364,
                "tempo": 120.0
            },
            {
                "start_time": 55.8840909,
                "end_time": 56.2431818,
                "pitch": 64,
                "velocity": 40,
                "duration": 0.3590909,
                "tempo": 120.0
            },
            {
                "start_time": 56.2431818,
                "end_time": 56.6,
                "pitch": 65,
                "velocity": 40,
                "duration": 0.3568182,
                "tempo": 120.0
            },
            {
                "start_time": 56.6022727,
                "end_time": 56.7181818,
                "pitch": 67,
                "velocity": 40,
                "duration": 0.1159091,
                "tempo": 120.0
            },
            {
                "start_time": 54.0454545,
                "end_time": 56.7181818,
                "pitch": 79,
                "velocity": 40,
                "duration": 2.6727273,
                "tempo": 120.0
            },
            {
                "start_time": 56.7181818,
                "end_time": 56.9090909,
                "pitch": 67,
                "velocity": 40,
                "duration": 0.1909091,
                "tempo": 120.0
            },
            {
                "start_time": 56.7181818,
                "end_time": 56.9090909,
                "pitch": 79,
                "velocity": 40,
                "duration": 0.1909091,
                "tempo": 120.0
            },
            {
                "start_time": 56.9090909,
                "end_time": 56.9613636,
                "pitch": 67,
                "velocity": 40,
                "duration": 0.0522727,
                "tempo": 120.0
            },
            {
                "start_time": 56.9613636,
                "end_time": 57.2931818,
                "pitch": 65,
                "velocity": 40,
                "duration": 0.3318182,
                "tempo": 120.0
            },
            {
                "start_time": 57.2931818,
                "end_time": 57.6613636,
                "pitch": 60,
                "velocity": 32,
                "duration": 0.3681818,
                "tempo": 120.0
            },
            {
                "start_time": 58.7340909,
                "end_time": 59.0909091,
                "pitch": 64,
                "velocity": 40,
                "duration": 0.3568182,
                "tempo": 120.0
            },
            {
                "start_time": 59.0909091,
                "end_time": 59.45,
                "pitch": 65,
                "velocity": 40,
                "duration": 0.3590909,
                "tempo": 120.0
            },
            {
                "start_time": 59.4522727,
                "end_time": 59.5795455,
                "pitch": 67,
                "velocity": 40,
                "duration": 0.1272727,
                "tempo": 120.0
            },
            {
                "start_time": 56.9090909,
                "end_time": 59.5795455,
                "pitch": 79,
                "velocity": 40,
                "duration": 2.6704545,
                "tempo": 120.0
            },
            {
                "start_time": 59.5795455,
                "end_time": 59.7431818,
                "pitch": 67,
                "velocity": 40,
                "duration": 0.1636364,
                "tempo": 120.0
            },
            {
                "start_time": 59.5795455,
                "end_time": 59.7431818,
                "pitch": 79,
                "velocity": 40,
                "duration": 0.1636364,
                "tempo": 120.0
            },
            {
                "start_time": 59.7431818,
                "end_time": 59.7931818,
                "pitch": 67,
                "velocity": 40,
                "duration": 0.05,
                "tempo": 120.0
            },
            {
                "start_time": 59.7931818,
                "end_time": 59.8568182,
                "pitch": 67,
                "velocity": 40,
                "duration": 0.0636364,
                "tempo": 120.0
            },
            {
                "start_time": 59.8568182,
                "end_time": 60.0340909,
                "pitch": 69,
                "velocity": 40,
                "duration": 0.1772727,
                "tempo": 120.0
            },
            {
                "start_time": 54.3977273,
                "end_time": 60.0840909,
                "pitch": 56,
                "velocity": 40,
                "duration": 5.6863636,
                "tempo": 120.0
            },
            {
                "start_time": 60.0340909,
                "end_time": 60.0840909,
                "pitch": 72,
                "velocity": 40,
                "duration": 0.05,
                "tempo": 120.0
            },
            {
                "start_time": 60.0840909,
                "end_time": 60.1159091,
                "pitch": 71,
                "velocity": 40,
                "duration": 0.0318182,
                "tempo": 120.0
            },
            {
                "start_time": 60.0340909,
                "end_time": 60.1159091,
                "pitch": 76,
                "velocity": 40,
                "duration": 0.0818182,
                "tempo": 120.0
            },
            {
                "start_time": 60.1159091,
                "end_time": 60.3386364,
                "pitch": 73,
                "velocity": 40,
                "duration": 0.2227273,
                "tempo": 120.0
            },
            {
                "start_time": 60.1159091,
                "end_time": 60.5090909,
                "pitch": 76,
                "velocity": 40,
                "duration": 0.3931818,
                "tempo": 120.0
            },
            {
                "start_time": 60.3386364,
                "end_time": 60.5090909,
                "pitch": 76,
                "velocity": 40,
                "duration": 0.1704545,
                "tempo": 120.0
            }
        ],
        "French Horn": [
            {
                "start_time": 0.0136364,
                "end_time": 0.1113636,
                "pitch": 60,
                "velocity": 51,
                "duration": 0.0977273,
                "tempo": 120.0
            },
            {
                "start_time": 0.1113636,
                "end_time": 0.1931818,
                "pitch": 60,
                "velocity": 20,
                "duration": 0.0818182,
                "tempo": 120.0
            },
            {
                "start_time": 0.1931818,
                "end_time": 0.2886364,
                "pitch": 60,
                "velocity": 51,
                "duration": 0.0954545,
                "tempo": 120.0
            },
            {
                "start_time": 0.2909091,
                "end_time": 0.3704545,
                "pitch": 60,
                "velocity": 20,
                "duration": 0.0795455,
                "tempo": 120.0
            },
            {
                "start_time": 0.3727273,
                "end_time": 0.4545455,
                "pitch": 60,
                "velocity": 51,
                "duration": 0.0818182,
                "tempo": 120.0
            },
            {
                "start_time": 0.4545455,
                "end_time": 0.5545455,
                "pitch": 60,
                "velocity": 20,
                "duration": 0.1,
                "tempo": 120.0
            },
            {
                "start_time": 0.5568182,
                "end_time": 0.6386364,
                "pitch": 60,
                "velocity": 51,
                "duration": 0.0818182,
                "tempo": 120.0
            },
            {
                "start_time": 0.6386364,
                "end_time": 0.7227273,
                "pitch": 60,
                "velocity": 20,
                "duration": 0.0840909,
                "tempo": 120.0
            },
            {
                "start_time": 0.7227273,
                "end_time": 0.8204545,
                "pitch": 60,
                "velocity": 51,
                "duration": 0.0977273,
                "tempo": 120.0
            },
            {
                "start_time": 0.8204545,
                "end_time": 0.9022727,
                "pitch": 60,
                "velocity": 20,
                "duration": 0.0818182,
                "tempo": 120.0
            },
            {
                "start_time": 0.9022727,
                "end_time": 0.9818182,
                "pitch": 60,
                "velocity": 51,
                "duration": 0.0795455,
                "tempo": 120.0
            },
            {
                "start_time": 0.9840909,
                "end_time": 1.0818182,
                "pitch": 60,
                "velocity": 20,
                "duration": 0.0977273,
                "tempo": 120.0
            },
            {
                "start_time": 1.0818182,
                "end_time": 1.1659091,
                "pitch": 60,
                "velocity": 51,
                "duration": 0.0840909,
                "tempo": 120.0
            },
            {
                "start_time": 1.1659091,
                "end_time": 1.2522727,
                "pitch": 60,
                "velocity": 20,
                "duration": 0.0863636,
                "tempo": 120.0
            },
            {
                "start_time": 1.2522727,
                "end_time": 1.3545455,
                "pitch": 60,
                "velocity": 51,
                "duration": 0.1022727,
                "tempo": 120.0
            },
            {
                "start_time": 1.3545455,
                "end_time": 1.4409091,
                "pitch": 60,
                "velocity": 20,
                "duration": 0.0863636,
                "tempo": 120.0
            },
            {
                "start_time": 1.4409091,
                "end_time": 1.5386364,
                "pitch": 60,
                "velocity": 51,
                "duration": 0.0977273,
                "tempo": 120.0
            },
            {
                "start_time": 1.5386364,
                "end_time": 1.6204545,
                "pitch": 60,
                "velocity": 20,
                "duration": 0.0818182,
                "tempo": 120.0
            },
            {
                "start_time": 1.6204545,
                "end_time": 1.7,
                "pitch": 60,
                "velocity": 51,
                "duration": 0.0795455,
                "tempo": 120.0
            },
            {
                "start_time": 1.7022727,
                "end_time": 1.8,
                "pitch": 60,
                "velocity": 20,
                "duration": 0.0977273,
                "tempo": 120.0
            },
            {
                "start_time": 1.8,
                "end_time": 1.8818182,
                "pitch": 60,
                "velocity": 51,
                "duration": 0.0818182,
                "tempo": 120.0
            },
            {
                "start_time": 1.8818182,
                "end_time": 1.9659091,
                "pitch": 60,
                "velocity": 20,
                "duration": 0.0840909,
                "tempo": 120.0
            },
            {
                "start_time": 1.9659091,
                "end_time": 2.0659091,
                "pitch": 60,
                "velocity": 51,
                "duration": 0.1,
                "tempo": 120.0
            },
            {
                "start_time": 2.0681818,
                "end_time": 2.15,
                "pitch": 60,
                "velocity": 20,
                "duration": 0.0818182,
                "tempo": 120.0
            },
            {
                "start_time": 2.15,
                "end_time": 2.2318182,
                "pitch": 60,
                "velocity": 51,
                "duration": 0.0818182,
                "tempo": 120.0
            },
            {
                "start_time": 2.2318182,
                "end_time": 2.3295455,
                "pitch": 60,
                "velocity": 20,
                "duration": 0.0977273,
                "tempo": 120.0
            },
            {
                "start_time": 2.8704545,
                "end_time": 2.95,
                "pitch": 60,
                "velocity": 51,
                "duration": 0.0795455,
                "tempo": 120.0
            },
            {
                "start_time": 2.95,
                "end_time": 3.0477273,
                "pitch": 60,
                "velocity": 20,
                "duration": 0.0977273,
                "tempo": 120.0
            },
            {
                "start_time": 3.0477273,
                "end_time": 3.1295455,
                "pitch": 60,
                "velocity": 51,
                "duration": 0.0818182,
                "tempo": 120.0
            },
            {
                "start_time": 3.1295455,
                "end_time": 3.2113636,
                "pitch": 60,
                "velocity": 20,
                "duration": 0.0818182,
                "tempo": 120.0
            },
            {
                "start_time": 3.2113636,
                "end_time": 3.3068182,
                "pitch": 60,
                "velocity": 51,
                "duration": 0.0954545,
                "tempo": 120.0
            },
            {
                "start_time": 3.3090909,
                "end_time": 3.3886364,
                "pitch": 60,
                "velocity": 20,
                "duration": 0.0795455,
                "tempo": 120.0
            },
            {
                "start_time": 3.3886364,
                "end_time": 3.4704545,
                "pitch": 60,
                "velocity": 51,
                "duration": 0.0818182,
                "tempo": 120.0
            },
            {
                "start_time": 3.4704545,
                "end_time": 3.5681818,
                "pitch": 60,
                "velocity": 20,
                "duration": 0.0977273,
                "tempo": 120.0
            },
            {
                "start_time": 3.5681818,
                "end_time": 3.6545455,
                "pitch": 60,
                "velocity": 51,
                "duration": 0.0863636,
                "tempo": 120.0
            },
            {
                "start_time": 3.6545455,
                "end_time": 3.7386364,
                "pitch": 60,
                "velocity": 20,
                "duration": 0.0840909,
                "tempo": 120.0
            },
            {
                "start_time": 3.7409091,
                "end_time": 3.8431818,
                "pitch": 60,
                "velocity": 51,
                "duration": 0.1022727,
                "tempo": 120.0
            },
            {
                "start_time": 3.8431818,
                "end_time": 3.9295455,
                "pitch": 60,
                "velocity": 20,
                "duration": 0.0863636,
                "tempo": 120.0
            },
            {
                "start_time": 3.9295455,
                "end_time": 4.025,
                "pitch": 60,
                "velocity": 51,
                "duration": 0.0954545,
                "tempo": 120.0
            },
            {
                "start_time": 4.025,
                "end_time": 4.1068182,
                "pitch": 60,
                "velocity": 20,
                "duration": 0.0818182,
                "tempo": 120.0
            },
            {
                "start_time": 4.1068182,
                "end_time": 4.1886364,
                "pitch": 60,
                "velocity": 51,
                "duration": 0.0818182,
                "tempo": 120.0
            },
            {
                "start_time": 4.1886364,
                "end_time": 4.2863636,
                "pitch": 60,
                "velocity": 20,
                "duration": 0.0977273,
                "tempo": 120.0
            },
            {
                "start_time": 4.2863636,
                "end_time": 4.3704545,
                "pitch": 60,
                "velocity": 51,
                "duration": 0.0840909,
                "tempo": 120.0
            },
            {
                "start_time": 4.3727273,
                "end_time": 4.4568182,
                "pitch": 60,
                "velocity": 20,
                "duration": 0.0840909,
                "tempo": 120.0
            },
            {
                "start_time": 4.4590909,
                "end_time": 4.5613636,
                "pitch": 60,
                "velocity": 51,
                "duration": 0.1022727,
                "tempo": 120.0
            },
            {
                "start_time": 4.5613636,
                "end_time": 4.6454545,
                "pitch": 60,
                "velocity": 20,
                "duration": 0.0840909,
                "tempo": 120.0
            },
            {
                "start_time": 4.6477273,
                "end_time": 4.7272727,
                "pitch": 60,
                "velocity": 51,
                "duration": 0.0795455,
                "tempo": 120.0
            },
            {
                "start_time": 4.7272727,
                "end_time": 4.825,
                "pitch": 60,
                "velocity": 20,
                "duration": 0.0977273,
                "tempo": 120.0
            },
            {
                "start_time": 4.825,
                "end_time": 4.9068182,
                "pitch": 60,
                "velocity": 51,
                "duration": 0.0818182,
                "tempo": 120.0
            },
            {
                "start_time": 4.9068182,
                "end_time": 4.9886364,
                "pitch": 60,
                "velocity": 20,
                "duration": 0.0818182,
                "tempo": 120.0
            },
            {
                "start_time": 4.9886364,
                "end_time": 5.0863636,
                "pitch": 60,
                "velocity": 51,
                "duration": 0.0977273,
                "tempo": 120.0
            },
            {
                "start_time": 5.0863636,
                "end_time": 5.1659091,
                "pitch": 60,
                "velocity": 20,
                "duration": 0.0795455,
                "tempo": 120.0
            },
            {
                "start_time": 5.1681818,
                "end_time": 5.2636364,
                "pitch": 60,
                "velocity": 51,
                "duration": 0.0954545,
                "tempo": 120.0
            },
            {
                "start_time": 5.2636364,
                "end_time": 5.3454545,
                "pitch": 60,
                "velocity": 20,
                "duration": 0.0818182,
                "tempo": 120.0
            },
            {
                "start_time": 5.3454545,
                "end_time": 5.4318182,
                "pitch": 60,
                "velocity": 51,
                "duration": 0.0863636,
                "tempo": 120.0
            },
            {
                "start_time": 5.4318182,
                "end_time": 5.5340909,
                "pitch": 60,
                "velocity": 20,
                "duration": 0.1022727,
                "tempo": 120.0
            },
            {
                "start_time": 5.5340909,
                "end_time": 5.6204545,
                "pitch": 60,
                "velocity": 51,
                "duration": 0.0863636,
                "tempo": 120.0
            },
            {
                "start_time": 5.6204545,
                "end_time": 5.7068182,
                "pitch": 60,
                "velocity": 20,
                "duration": 0.0863636,
                "tempo": 120.0
            },
            {
                "start_time": 5.7068182,
                "end_time": 5.8,
                "pitch": 60,
                "velocity": 51,
                "duration": 0.0931818,
                "tempo": 120.0
            },
            {
                "start_time": 5.8,
                "end_time": 5.8795455,
                "pitch": 60,
                "velocity": 20,
                "duration": 0.0795455,
                "tempo": 120.0
            },
            {
                "start_time": 5.8795455,
                "end_time": 5.9590909,
                "pitch": 60,
                "velocity": 51,
                "duration": 0.0795455,
                "tempo": 120.0
            },
            {
                "start_time": 5.9590909,
                "end_time": 6.0545455,
                "pitch": 60,
                "velocity": 20,
                "duration": 0.0954545,
                "tempo": 120.0
            },
            {
                "start_time": 6.0545455,
                "end_time": 6.1386364,
                "pitch": 60,
                "velocity": 51,
                "duration": 0.0840909,
                "tempo": 120.0
            },
            {
                "start_time": 6.1386364,
                "end_time": 6.225,
                "pitch": 60,
                "velocity": 20,
                "duration": 0.0863636,
                "tempo": 120.0
            },
            {
                "start_time": 6.225,
                "end_time": 6.3272727,
                "pitch": 60,
                "velocity": 51,
                "duration": 0.1022727,
                "tempo": 120.0
            },
            {
                "start_time": 6.3272727,
                "end_time": 6.4136364,
                "pitch": 60,
                "velocity": 20,
                "duration": 0.0863636,
                "tempo": 120.0
            },
            {
                "start_time": 6.4136364,
                "end_time": 6.5113636,
                "pitch": 60,
                "velocity": 51,
                "duration": 0.0977273,
                "tempo": 120.0
            },
            {
                "start_time": 6.5113636,
                "end_time": 6.5931818,
                "pitch": 60,
                "velocity": 20,
                "duration": 0.0818182,
                "tempo": 120.0
            },
            {
                "start_time": 6.5931818,
                "end_time": 6.6727273,
                "pitch": 60,
                "velocity": 51,
                "duration": 0.0795455,
                "tempo": 120.0
            },
            {
                "start_time": 6.675,
                "end_time": 6.7704545,
                "pitch": 60,
                "velocity": 20,
                "duration": 0.0954545,
                "tempo": 120.0
            },
            {
                "start_time": 6.7727273,
                "end_time": 6.8568182,
                "pitch": 60,
                "velocity": 51,
                "duration": 0.0840909,
                "tempo": 120.0
            },
            {
                "start_time": 6.8568182,
                "end_time": 6.9431818,
                "pitch": 60,
                "velocity": 20,
                "duration": 0.0863636,
                "tempo": 120.0
            },
            {
                "start_time": 6.9431818,
                "end_time": 7.0454545,
                "pitch": 60,
                "velocity": 51,
                "duration": 0.1022727,
                "tempo": 120.0
            },
            {
                "start_time": 7.0454545,
                "end_time": 7.1318182,
                "pitch": 60,
                "velocity": 20,
                "duration": 0.0863636,
                "tempo": 120.0
            },
            {
                "start_time": 7.1318182,
                "end_time": 7.2136364,
                "pitch": 60,
                "velocity": 51,
                "duration": 0.0818182,
                "tempo": 120.0
            },
            {
                "start_time": 7.2136364,
                "end_time": 7.3113636,
                "pitch": 60,
                "velocity": 20,
                "duration": 0.0977273,
                "tempo": 120.0
            },
            {
                "start_time": 7.3113636,
                "end_time": 7.3909091,
                "pitch": 60,
                "velocity": 51,
                "duration": 0.0795455,
                "tempo": 120.0
            },
            {
                "start_time": 7.3931818,
                "end_time": 7.4727273,
                "pitch": 60,
                "velocity": 20,
                "duration": 0.0795455,
                "tempo": 120.0
            },
            {
                "start_time": 7.475,
                "end_time": 7.5704545,
                "pitch": 60,
                "velocity": 51,
                "duration": 0.0954545,
                "tempo": 120.0
            },
            {
                "start_time": 7.5704545,
                "end_time": 7.6522727,
                "pitch": 60,
                "velocity": 20,
                "duration": 0.0818182,
                "tempo": 120.0
            },
            {
                "start_time": 7.6522727,
                "end_time": 7.75,
                "pitch": 60,
                "velocity": 51,
                "duration": 0.0977273,
                "tempo": 120.0
            },
            {
                "start_time": 7.75,
                "end_time": 7.8318182,
                "pitch": 60,
                "velocity": 20,
                "duration": 0.0818182,
                "tempo": 120.0
            },
            {
                "start_time": 7.8318182,
                "end_time": 7.9159091,
                "pitch": 60,
                "velocity": 51,
                "duration": 0.0840909,
                "tempo": 120.0
            },
            {
                "start_time": 7.9159091,
                "end_time": 8.0204545,
                "pitch": 60,
                "velocity": 20,
                "duration": 0.1045455,
                "tempo": 120.0
            },
            {
                "start_time": 8.0204545,
                "end_time": 8.1045455,
                "pitch": 60,
                "velocity": 51,
                "duration": 0.0840909,
                "tempo": 120.0
            },
            {
                "start_time": 8.1068182,
                "end_time": 8.1909091,
                "pitch": 60,
                "velocity": 20,
                "duration": 0.0840909,
                "tempo": 120.0
            },
            {
                "start_time": 8.1909091,
                "end_time": 8.2886364,
                "pitch": 60,
                "velocity": 51,
                "duration": 0.0977273,
                "tempo": 120.0
            },
            {
                "start_time": 8.2886364,
                "end_time": 8.3704545,
                "pitch": 60,
                "velocity": 20,
                "duration": 0.0818182,
                "tempo": 120.0
            },
            {
                "start_time": 8.3704545,
                "end_time": 8.4522727,
                "pitch": 60,
                "velocity": 51,
                "duration": 0.0818182,
                "tempo": 120.0
            },
            {
                "start_time": 8.4522727,
                "end_time": 8.55,
                "pitch": 60,
                "velocity": 20,
                "duration": 0.0977273,
                "tempo": 120.0
            },
            {
                "start_time": 8.55,
                "end_time": 8.6340909,
                "pitch": 60,
                "velocity": 51,
                "duration": 0.0840909,
                "tempo": 120.0
            },
            {
                "start_time": 8.6340909,
                "end_time": 8.7204545,
                "pitch": 60,
                "velocity": 20,
                "duration": 0.0863636,
                "tempo": 120.0
            },
            {
                "start_time": 8.7204545,
                "end_time": 8.8227273,
                "pitch": 60,
                "velocity": 51,
                "duration": 0.1022727,
                "tempo": 120.0
            },
            {
                "start_time": 8.8227273,
                "end_time": 8.9090909,
                "pitch": 60,
                "velocity": 20,
                "duration": 0.0863636,
                "tempo": 120.0
            },
            {
                "start_time": 8.9090909,
                "end_time": 9.0068182,
                "pitch": 60,
                "velocity": 51,
                "duration": 0.0977273,
                "tempo": 120.0
            },
            {
                "start_time": 9.0068182,
                "end_time": 9.0886364,
                "pitch": 60,
                "velocity": 20,
                "duration": 0.0818182,
                "tempo": 120.0
            },
            {
                "start_time": 9.0886364,
                "end_time": 9.1704545,
                "pitch": 60,
                "velocity": 51,
                "duration": 0.0818182,
                "tempo": 120.0
            },
            {
                "start_time": 9.1704545,
                "end_time": 9.2681818,
                "pitch": 60,
                "velocity": 20,
                "duration": 0.0977273,
                "tempo": 120.0
            },
            {
                "start_time": 9.2681818,
                "end_time": 9.35,
                "pitch": 60,
                "velocity": 51,
                "duration": 0.0818182,
                "tempo": 120.0
            },
            {
                "start_time": 9.3522727,
                "end_time": 9.4340909,
                "pitch": 60,
                "velocity": 20,
                "duration": 0.0818182,
                "tempo": 120.0
            },
            {
                "start_time": 9.4363636,
                "end_time": 9.5363636,
                "pitch": 60,
                "velocity": 51,
                "duration": 0.1,
                "tempo": 120.0
            },
            {
                "start_time": 9.5363636,
                "end_time": 9.6204545,
                "pitch": 60,
                "velocity": 20,
                "duration": 0.0840909,
                "tempo": 120.0
            },
            {
                "start_time": 9.6204545,
                "end_time": 9.7022727,
                "pitch": 60,
                "velocity": 51,
                "duration": 0.0818182,
                "tempo": 120.0
            },
            {
                "start_time": 9.7022727,
                "end_time": 9.8045455,
                "pitch": 60,
                "velocity": 20,
                "duration": 0.1022727,
                "tempo": 120.0
            },
            {
                "start_time": 9.8045455,
                "end_time": 9.8863636,
                "pitch": 60,
                "velocity": 51,
                "duration": 0.0818182,
                "tempo": 120.0
            },
            {
                "start_time": 9.8863636,
                "end_time": 9.9704545,
                "pitch": 60,
                "velocity": 20,
                "duration": 0.0840909,
                "tempo": 120.0
            },
            {
                "start_time": 9.9727273,
                "end_time": 10.0681818,
                "pitch": 60,
                "velocity": 51,
                "duration": 0.0954545,
                "tempo": 120.0
            },
            {
                "start_time": 10.0681818,
                "end_time": 10.15,
                "pitch": 60,
                "velocity": 20,
                "duration": 0.0818182,
                "tempo": 120.0
            },
            {
                "start_time": 10.15,
                "end_time": 10.2477273,
                "pitch": 60,
                "velocity": 51,
                "duration": 0.0977273,
                "tempo": 120.0
            },
            {
                "start_time": 10.2477273,
                "end_time": 10.3295455,
                "pitch": 60,
                "velocity": 20,
                "duration": 0.0818182,
                "tempo": 120.0
            },
            {
                "start_time": 10.3295455,
                "end_time": 10.4136364,
                "pitch": 60,
                "velocity": 51,
                "duration": 0.0840909,
                "tempo": 120.0
            },
            {
                "start_time": 10.4136364,
                "end_time": 10.5136364,
                "pitch": 60,
                "velocity": 20,
                "duration": 0.1,
                "tempo": 120.0
            },
            {
                "start_time": 10.5136364,
                "end_time": 10.5977273,
                "pitch": 60,
                "velocity": 51,
                "duration": 0.0840909,
                "tempo": 120.0
            },
            {
                "start_time": 10.5977273,
                "end_time": 10.6818182,
                "pitch": 60,
                "velocity": 20,
                "duration": 0.0840909,
                "tempo": 120.0
            },
            {
                "start_time": 10.6818182,
                "end_time": 10.7772727,
                "pitch": 60,
                "velocity": 51,
                "duration": 0.0954545,
                "tempo": 120.0
            },
            {
                "start_time": 10.7795455,
                "end_time": 10.8590909,
                "pitch": 60,
                "velocity": 20,
                "duration": 0.0795455,
                "tempo": 120.0
            },
            {
                "start_time": 10.8590909,
                "end_time": 10.9409091,
                "pitch": 60,
                "velocity": 51,
                "duration": 0.0818182,
                "tempo": 120.0
            },
            {
                "start_time": 10.9409091,
                "end_time": 11.0386364,
                "pitch": 60,
                "velocity": 20,
                "duration": 0.0977273,
                "tempo": 120.0
            },
            {
                "start_time": 11.0386364,
                "end_time": 11.125,
                "pitch": 60,
                "velocity": 51,
                "duration": 0.0863636,
                "tempo": 120.0
            },
            {
                "start_time": 11.125,
                "end_time": 11.2090909,
                "pitch": 60,
                "velocity": 20,
                "duration": 0.0840909,
                "tempo": 120.0
            },
            {
                "start_time": 11.2113636,
                "end_time": 11.3136364,
                "pitch": 60,
                "velocity": 51,
                "duration": 0.1022727,
                "tempo": 120.0
            },
            {
                "start_time": 11.3136364,
                "end_time": 11.4,
                "pitch": 60,
                "velocity": 20,
                "duration": 0.0863636,
                "tempo": 120.0
            },
            {
                "start_time": 11.4,
                "end_time": 11.4954545,
                "pitch": 60,
                "velocity": 51,
                "duration": 0.0954545,
                "tempo": 120.0
            },
            {
                "start_time": 11.4977273,
                "end_time": 11.5772727,
                "pitch": 60,
                "velocity": 20,
                "duration": 0.0795455,
                "tempo": 120.0
            },
            {
                "start_time": 11.5772727,
                "end_time": 11.6590909,
                "pitch": 60,
                "velocity": 51,
                "duration": 0.0818182,
                "tempo": 120.0
            },
            {
                "start_time": 11.6590909,
                "end_time": 11.7568182,
                "pitch": 60,
                "velocity": 20,
                "duration": 0.0977273,
                "tempo": 120.0
            },
            {
                "start_time": 11.7568182,
                "end_time": 11.8409091,
                "pitch": 60,
                "velocity": 51,
                "duration": 0.0840909,
                "tempo": 120.0
            },
            {
                "start_time": 11.8431818,
                "end_time": 11.9272727,
                "pitch": 60,
                "velocity": 20,
                "duration": 0.0840909,
                "tempo": 120.0
            },
            {
                "start_time": 11.9295455,
                "end_time": 12.0318182,
                "pitch": 60,
                "velocity": 51,
                "duration": 0.1022727,
                "tempo": 120.0
            },
            {
                "start_time": 12.0318182,
                "end_time": 12.1159091,
                "pitch": 60,
                "velocity": 20,
                "duration": 0.0840909,
                "tempo": 120.0
            },
            {
                "start_time": 12.1181818,
                "end_time": 12.1977273,
                "pitch": 60,
                "velocity": 51,
                "duration": 0.0795455,
                "tempo": 120.0
            },
            {
                "start_time": 12.1977273,
                "end_time": 12.2954545,
                "pitch": 60,
                "velocity": 20,
                "duration": 0.0977273,
                "tempo": 120.0
            },
            {
                "start_time": 12.2954545,
                "end_time": 12.3772727,
                "pitch": 60,
                "velocity": 51,
                "duration": 0.0818182,
                "tempo": 120.0
            },
            {
                "start_time": 12.3772727,
                "end_time": 12.4590909,
                "pitch": 60,
                "velocity": 20,
                "duration": 0.0818182,
                "tempo": 120.0
            },
            {
                "start_time": 12.4590909,
                "end_time": 12.5568182,
                "pitch": 60,
                "velocity": 51,
                "duration": 0.0977273,
                "tempo": 120.0
            },
            {
                "start_time": 12.5568182,
                "end_time": 12.6363636,
                "pitch": 60,
                "velocity": 20,
                "duration": 0.0795455,
                "tempo": 120.0
            },
            {
                "start_time": 12.6386364,
                "end_time": 12.7340909,
                "pitch": 60,
                "velocity": 51,
                "duration": 0.0954545,
                "tempo": 120.0
            },
            {
                "start_time": 12.7340909,
                "end_time": 12.8159091,
                "pitch": 60,
                "velocity": 20,
                "duration": 0.0818182,
                "tempo": 120.0
            },
            {
                "start_time": 12.8159091,
                "end_time": 12.9,
                "pitch": 60,
                "velocity": 51,
                "duration": 0.0840909,
                "tempo": 120.0
            },
            {
                "start_time": 12.9,
                "end_time": 13.0,
                "pitch": 60,
                "velocity": 20,
                "duration": 0.1,
                "tempo": 120.0
            },
            {
                "start_time": 13.0022727,
                "end_time": 13.0840909,
                "pitch": 60,
                "velocity": 51,
                "duration": 0.0818182,
                "tempo": 120.0
            },
            {
                "start_time": 13.0840909,
                "end_time": 13.1681818,
                "pitch": 60,
                "velocity": 20,
                "duration": 0.0840909,
                "tempo": 120.0
            },
            {
                "start_time": 13.1681818,
                "end_time": 13.2681818,
                "pitch": 60,
                "velocity": 51,
                "duration": 0.1,
                "tempo": 120.0
            },
            {
                "start_time": 13.2681818,
                "end_time": 13.3522727,
                "pitch": 60,
                "velocity": 20,
                "duration": 0.0840909,
                "tempo": 120.0
            },
            {
                "start_time": 13.3522727,
                "end_time": 13.4363636,
                "pitch": 60,
                "velocity": 51,
                "duration": 0.0840909,
                "tempo": 120.0
            },
            {
                "start_time": 13.4363636,
                "end_time": 13.5363636,
                "pitch": 60,
                "velocity": 20,
                "duration": 0.1,
                "tempo": 120.0
            },
            {
                "start_time": 13.5363636,
                "end_time": 13.6204545,
                "pitch": 60,
                "velocity": 51,
                "duration": 0.0840909,
                "tempo": 120.0
            },
            {
                "start_time": 13.6204545,
                "end_time": 13.7045455,
                "pitch": 60,
                "velocity": 20,
                "duration": 0.0840909,
                "tempo": 120.0
            },
            {
                "start_time": 13.7045455,
                "end_time": 13.8045455,
                "pitch": 60,
                "velocity": 51,
                "duration": 0.1,
                "tempo": 120.0
            },
            {
                "start_time": 13.8045455,
                "end_time": 13.8886364,
                "pitch": 60,
                "velocity": 20,
                "duration": 0.0840909,
                "tempo": 120.0
            },
            {
                "start_time": 13.8886364,
                "end_time": 13.9886364,
                "pitch": 60,
                "velocity": 51,
                "duration": 0.1,
                "tempo": 120.0
            },
            {
                "start_time": 13.9886364,
                "end_time": 14.0727273,
                "pitch": 60,
                "velocity": 20,
                "duration": 0.0840909,
                "tempo": 120.0
            },
            {
                "start_time": 14.0727273,
                "end_time": 14.1568182,
                "pitch": 60,
                "velocity": 51,
                "duration": 0.0840909,
                "tempo": 120.0
            },
            {
                "start_time": 14.1568182,
                "end_time": 14.2568182,
                "pitch": 60,
                "velocity": 20,
                "duration": 0.1,
                "tempo": 120.0
            },
            {
                "start_time": 46.2704545,
                "end_time": 46.3704545,
                "pitch": 60,
                "velocity": 51,
                "duration": 0.1,
                "tempo": 120.0
            },
            {
                "start_time": 46.3704545,
                "end_time": 46.4545455,
                "pitch": 60,
                "velocity": 20,
                "duration": 0.0840909,
                "tempo": 120.0
            },
            {
                "start_time": 46.4545455,
                "end_time": 46.5363636,
                "pitch": 60,
                "velocity": 51,
                "duration": 0.0818182,
                "tempo": 120.0
            },
            {
                "start_time": 46.5363636,
                "end_time": 46.6386364,
                "pitch": 60,
                "velocity": 20,
                "duration": 0.1022727,
                "tempo": 120.0
            },
            {
                "start_time": 46.6386364,
                "end_time": 46.7204545,
                "pitch": 60,
                "velocity": 51,
                "duration": 0.0818182,
                "tempo": 120.0
            },
            {
                "start_time": 46.7227273,
                "end_time": 46.8045455,
                "pitch": 60,
                "velocity": 20,
                "duration": 0.0818182,
                "tempo": 120.0
            },
            {
                "start_time": 46.8068182,
                "end_time": 46.9045455,
                "pitch": 60,
                "velocity": 51,
                "duration": 0.0977273,
                "tempo": 120.0
            },
            {
                "start_time": 46.9068182,
                "end_time": 46.9886364,
                "pitch": 60,
                "velocity": 20,
                "duration": 0.0818182,
                "tempo": 120.0
            },
            {
                "start_time": 46.9909091,
                "end_time": 47.0704545,
                "pitch": 60,
                "velocity": 51,
                "duration": 0.0795455,
                "tempo": 120.0
            },
            {
                "start_time": 47.0704545,
                "end_time": 47.1681818,
                "pitch": 60,
                "velocity": 20,
                "duration": 0.0977273,
                "tempo": 120.0
            },
            {
                "start_time": 47.1681818,
                "end_time": 47.25,
                "pitch": 60,
                "velocity": 51,
                "duration": 0.0818182,
                "tempo": 120.0
            },
            {
                "start_time": 47.25,
                "end_time": 47.3318182,
                "pitch": 60,
                "velocity": 20,
                "duration": 0.0818182,
                "tempo": 120.0
            },
            {
                "start_time": 47.3318182,
                "end_time": 47.4272727,
                "pitch": 60,
                "velocity": 51,
                "duration": 0.0954545,
                "tempo": 120.0
            },
            {
                "start_time": 47.4295455,
                "end_time": 47.5090909,
                "pitch": 60,
                "velocity": 20,
                "duration": 0.0795455,
                "tempo": 120.0
            },
            {
                "start_time": 47.5113636,
                "end_time": 47.6068182,
                "pitch": 60,
                "velocity": 51,
                "duration": 0.0954545,
                "tempo": 120.0
            },
            {
                "start_time": 47.6068182,
                "end_time": 47.6886364,
                "pitch": 60,
                "velocity": 20,
                "duration": 0.0818182,
                "tempo": 120.0
            },
            {
                "start_time": 47.6886364,
                "end_time": 47.775,
                "pitch": 60,
                "velocity": 51,
                "duration": 0.0863636,
                "tempo": 120.0
            },
            {
                "start_time": 47.775,
                "end_time": 47.8772727,
                "pitch": 60,
                "velocity": 20,
                "duration": 0.1022727,
                "tempo": 120.0
            },
            {
                "start_time": 47.8772727,
                "end_time": 47.9636364,
                "pitch": 60,
                "velocity": 51,
                "duration": 0.0863636,
                "tempo": 120.0
            },
            {
                "start_time": 47.9636364,
                "end_time": 48.05,
                "pitch": 60,
                "velocity": 20,
                "duration": 0.0863636,
                "tempo": 120.0
            },
            {
                "start_time": 48.05,
                "end_time": 48.1454545,
                "pitch": 60,
                "velocity": 51,
                "duration": 0.0954545,
                "tempo": 120.0
            },
            {
                "start_time": 48.1477273,
                "end_time": 48.2272727,
                "pitch": 60,
                "velocity": 20,
                "duration": 0.0795455,
                "tempo": 120.0
            },
            {
                "start_time": 48.2295455,
                "end_time": 48.3090909,
                "pitch": 60,
                "velocity": 51,
                "duration": 0.0795455,
                "tempo": 120.0
            },
            {
                "start_time": 48.3090909,
                "end_time": 48.4068182,
                "pitch": 60,
                "velocity": 20,
                "duration": 0.0977273,
                "tempo": 120.0
            },
            {
                "start_time": 48.4068182,
                "end_time": 48.4931818,
                "pitch": 60,
                "velocity": 51,
                "duration": 0.0863636,
                "tempo": 120.0
            },
            {
                "start_time": 48.4931818,
                "end_time": 48.5772727,
                "pitch": 60,
                "velocity": 20,
                "duration": 0.0840909,
                "tempo": 120.0
            },
            {
                "start_time": 49.1363636,
                "end_time": 49.2159091,
                "pitch": 60,
                "velocity": 51,
                "duration": 0.0795455,
                "tempo": 120.0
            },
            {
                "start_time": 49.2181818,
                "end_time": 49.2977273,
                "pitch": 60,
                "velocity": 20,
                "duration": 0.0795455,
                "tempo": 120.0
            },
            {
                "start_time": 49.3,
                "end_time": 49.3954545,
                "pitch": 60,
                "velocity": 51,
                "duration": 0.0954545,
                "tempo": 120.0
            },
            {
                "start_time": 49.3954545,
                "end_time": 49.4772727,
                "pitch": 60,
                "velocity": 20,
                "duration": 0.0818182,
                "tempo": 120.0
            },
            {
                "start_time": 49.4772727,
                "end_time": 49.5613636,
                "pitch": 60,
                "velocity": 51,
                "duration": 0.0840909,
                "tempo": 120.0
            },
            {
                "start_time": 49.5613636,
                "end_time": 49.6613636,
                "pitch": 60,
                "velocity": 20,
                "duration": 0.1,
                "tempo": 120.0
            },
            {
                "start_time": 49.6613636,
                "end_time": 49.7454545,
                "pitch": 60,
                "velocity": 51,
                "duration": 0.0840909,
                "tempo": 120.0
            },
            {
                "start_time": 49.7454545,
                "end_time": 49.8295455,
                "pitch": 60,
                "velocity": 20,
                "duration": 0.0840909,
                "tempo": 120.0
            },
            {
                "start_time": 49.8295455,
                "end_time": 49.9272727,
                "pitch": 60,
                "velocity": 51,
                "duration": 0.0977273,
                "tempo": 120.0
            },
            {
                "start_time": 49.9272727,
                "end_time": 50.0068182,
                "pitch": 60,
                "velocity": 20,
                "duration": 0.0795455,
                "tempo": 120.0
            },
            {
                "start_time": 50.0090909,
                "end_time": 50.1045455,
                "pitch": 60,
                "velocity": 51,
                "duration": 0.0954545,
                "tempo": 120.0
            },
            {
                "start_time": 50.1045455,
                "end_time": 50.1863636,
                "pitch": 60,
                "velocity": 20,
                "duration": 0.0818182,
                "tempo": 120.0
            },
            {
                "start_time": 50.1863636,
                "end_time": 50.2704545,
                "pitch": 60,
                "velocity": 51,
                "duration": 0.0840909,
                "tempo": 120.0
            },
            {
                "start_time": 50.2704545,
                "end_time": 50.3704545,
                "pitch": 60,
                "velocity": 20,
                "duration": 0.1,
                "tempo": 120.0
            },
            {
                "start_time": 50.3727273,
                "end_time": 50.4545455,
                "pitch": 60,
                "velocity": 51,
                "duration": 0.0818182,
                "tempo": 120.0
            },
            {
                "start_time": 50.4545455,
                "end_time": 50.5386364,
                "pitch": 60,
                "velocity": 20,
                "duration": 0.0840909,
                "tempo": 120.0
            },
            {
                "start_time": 50.5386364,
                "end_time": 50.6363636,
                "pitch": 60,
                "velocity": 51,
                "duration": 0.0977273,
                "tempo": 120.0
            },
            {
                "start_time": 50.6363636,
                "end_time": 50.7181818,
                "pitch": 60,
                "velocity": 20,
                "duration": 0.0818182,
                "tempo": 120.0
            },
            {
                "start_time": 50.7181818,
                "end_time": 50.7977273,
                "pitch": 60,
                "velocity": 51,
                "duration": 0.0795455,
                "tempo": 120.0
            },
            {
                "start_time": 50.7977273,
                "end_time": 50.8954545,
                "pitch": 60,
                "velocity": 20,
                "duration": 0.0977273,
                "tempo": 120.0
            },
            {
                "start_time": 50.8977273,
                "end_time": 50.9818182,
                "pitch": 60,
                "velocity": 51,
                "duration": 0.0840909,
                "tempo": 120.0
            },
            {
                "start_time": 50.9818182,
                "end_time": 51.0681818,
                "pitch": 60,
                "velocity": 20,
                "duration": 0.0863636,
                "tempo": 120.0
            },
            {
                "start_time": 51.0681818,
                "end_time": 51.1704545,
                "pitch": 60,
                "velocity": 51,
                "duration": 0.1022727,
                "tempo": 120.0
            },
            {
                "start_time": 51.1704545,
                "end_time": 51.2568182,
                "pitch": 60,
                "velocity": 20,
                "duration": 0.0863636,
                "tempo": 120.0
            },
            {
                "start_time": 51.2568182,
                "end_time": 51.3545455,
                "pitch": 60,
                "velocity": 51,
                "duration": 0.0977273,
                "tempo": 120.0
            },
            {
                "start_time": 51.3545455,
                "end_time": 51.4363636,
                "pitch": 60,
                "velocity": 20,
                "duration": 0.0818182,
                "tempo": 120.0
            },
            {
                "start_time": 51.4363636,
                "end_time": 51.5159091,
                "pitch": 60,
                "velocity": 51,
                "duration": 0.0795455,
                "tempo": 120.0
            },
            {
                "start_time": 51.5159091,
                "end_time": 51.6136364,
                "pitch": 60,
                "velocity": 20,
                "duration": 0.0977273,
                "tempo": 120.0
            },
            {
                "start_time": 51.6159091,
                "end_time": 51.7,
                "pitch": 60,
                "velocity": 51,
                "duration": 0.0840909,
                "tempo": 120.0
            },
            {
                "start_time": 51.7,
                "end_time": 51.7863636,
                "pitch": 60,
                "velocity": 20,
                "duration": 0.0863636,
                "tempo": 120.0
            },
            {
                "start_time": 51.7863636,
                "end_time": 51.8886364,
                "pitch": 60,
                "velocity": 51,
                "duration": 0.1022727,
                "tempo": 120.0
            },
            {
                "start_time": 51.8886364,
                "end_time": 51.975,
                "pitch": 60,
                "velocity": 20,
                "duration": 0.0863636,
                "tempo": 120.0
            },
            {
                "start_time": 51.975,
                "end_time": 52.0568182,
                "pitch": 60,
                "velocity": 51,
                "duration": 0.0818182,
                "tempo": 120.0
            },
            {
                "start_time": 52.0568182,
                "end_time": 52.1545455,
                "pitch": 60,
                "velocity": 20,
                "duration": 0.0977273,
                "tempo": 120.0
            },
            {
                "start_time": 52.1545455,
                "end_time": 52.2340909,
                "pitch": 60,
                "velocity": 51,
                "duration": 0.0795455,
                "tempo": 120.0
            },
            {
                "start_time": 52.2340909,
                "end_time": 52.3159091,
                "pitch": 60,
                "velocity": 20,
                "duration": 0.0818182,
                "tempo": 120.0
            },
            {
                "start_time": 52.3159091,
                "end_time": 52.4136364,
                "pitch": 60,
                "velocity": 51,
                "duration": 0.0977273,
                "tempo": 120.0
            },
            {
                "start_time": 52.4136364,
                "end_time": 52.4954545,
                "pitch": 60,
                "velocity": 20,
                "duration": 0.0818182,
                "tempo": 120.0
            },
            {
                "start_time": 52.4954545,
                "end_time": 52.5931818,
                "pitch": 60,
                "velocity": 51,
                "duration": 0.0977273,
                "tempo": 120.0
            },
            {
                "start_time": 52.5931818,
                "end_time": 52.675,
                "pitch": 60,
                "velocity": 20,
                "duration": 0.0818182,
                "tempo": 120.0
            },
            {
                "start_time": 52.675,
                "end_time": 52.7590909,
                "pitch": 60,
                "velocity": 51,
                "duration": 0.0840909,
                "tempo": 120.0
            },
            {
                "start_time": 52.7590909,
                "end_time": 52.8636364,
                "pitch": 60,
                "velocity": 20,
                "duration": 0.1045455,
                "tempo": 120.0
            },
            {
                "start_time": 52.8636364,
                "end_time": 52.9477273,
                "pitch": 60,
                "velocity": 51,
                "duration": 0.0840909,
                "tempo": 120.0
            },
            {
                "start_time": 52.9477273,
                "end_time": 53.0340909,
                "pitch": 60,
                "velocity": 20,
                "duration": 0.0863636,
                "tempo": 120.0
            },
            {
                "start_time": 53.0340909,
                "end_time": 53.1318182,
                "pitch": 60,
                "velocity": 51,
                "duration": 0.0977273,
                "tempo": 120.0
            },
            {
                "start_time": 53.1318182,
                "end_time": 53.2136364,
                "pitch": 60,
                "velocity": 20,
                "duration": 0.0818182,
                "tempo": 120.0
            },
            {
                "start_time": 53.2136364,
                "end_time": 53.2954545,
                "pitch": 60,
                "velocity": 51,
                "duration": 0.0818182,
                "tempo": 120.0
            },
            {
                "start_time": 53.2954545,
                "end_time": 53.3931818,
                "pitch": 60,
                "velocity": 20,
                "duration": 0.0977273,
                "tempo": 120.0
            },
            {
                "start_time": 53.3931818,
                "end_time": 53.475,
                "pitch": 60,
                "velocity": 51,
                "duration": 0.0818182,
                "tempo": 120.0
            },
            {
                "start_time": 53.4772727,
                "end_time": 53.5590909,
                "pitch": 60,
                "velocity": 20,
                "duration": 0.0818182,
                "tempo": 120.0
            },
            {
                "start_time": 53.5613636,
                "end_time": 53.6590909,
                "pitch": 60,
                "velocity": 51,
                "duration": 0.0977273,
                "tempo": 120.0
            },
            {
                "start_time": 53.6613636,
                "end_time": 53.7431818,
                "pitch": 60,
                "velocity": 20,
                "duration": 0.0818182,
                "tempo": 120.0
            },
            {
                "start_time": 53.7454545,
                "end_time": 53.8454545,
                "pitch": 60,
                "velocity": 51,
                "duration": 0.1,
                "tempo": 120.0
            },
            {
                "start_time": 53.8454545,
                "end_time": 53.9295455,
                "pitch": 60,
                "velocity": 20,
                "duration": 0.0840909,
                "tempo": 120.0
            },
            {
                "start_time": 53.9295455,
                "end_time": 54.0113636,
                "pitch": 60,
                "velocity": 51,
                "duration": 0.0818182,
                "tempo": 120.0
            },
            {
                "start_time": 54.0113636,
                "end_time": 54.1136364,
                "pitch": 60,
                "velocity": 20,
                "duration": 0.1022727,
                "tempo": 120.0
            },
            {
                "start_time": 54.1136364,
                "end_time": 54.1954545,
                "pitch": 60,
                "velocity": 51,
                "duration": 0.0818182,
                "tempo": 120.0
            },
            {
                "start_time": 54.1977273,
                "end_time": 54.2795455,
                "pitch": 60,
                "velocity": 20,
                "duration": 0.0818182,
                "tempo": 120.0
            },
            {
                "start_time": 54.2818182,
                "end_time": 54.3795455,
                "pitch": 60,
                "velocity": 51,
                "duration": 0.0977273,
                "tempo": 120.0
            },
            {
                "start_time": 54.3818182,
                "end_time": 54.4636364,
                "pitch": 60,
                "velocity": 20,
                "duration": 0.0818182,
                "tempo": 120.0
            },
            {
                "start_time": 54.4659091,
                "end_time": 54.5454545,
                "pitch": 60,
                "velocity": 51,
                "duration": 0.0795455,
                "tempo": 120.0
            },
            {
                "start_time": 54.5454545,
                "end_time": 54.6431818,
                "pitch": 60,
                "velocity": 20,
                "duration": 0.0977273,
                "tempo": 120.0
            },
            {
                "start_time": 54.6431818,
                "end_time": 54.725,
                "pitch": 60,
                "velocity": 51,
                "duration": 0.0818182,
                "tempo": 120.0
            },
            {
                "start_time": 54.725,
                "end_time": 54.8068182,
                "pitch": 60,
                "velocity": 20,
                "duration": 0.0818182,
                "tempo": 120.0
            },
            {
                "start_time": 54.8068182,
                "end_time": 54.9022727,
                "pitch": 60,
                "velocity": 51,
                "duration": 0.0954545,
                "tempo": 120.0
            },
            {
                "start_time": 54.9045455,
                "end_time": 54.9840909,
                "pitch": 60,
                "velocity": 20,
                "duration": 0.0795455,
                "tempo": 120.0
            },
            {
                "start_time": 54.9863636,
                "end_time": 55.0818182,
                "pitch": 60,
                "velocity": 51,
                "duration": 0.0954545,
                "tempo": 120.0
            },
            {
                "start_time": 55.0818182,
                "end_time": 55.1636364,
                "pitch": 60,
                "velocity": 20,
                "duration": 0.0818182,
                "tempo": 120.0
            },
            {
                "start_time": 55.1636364,
                "end_time": 55.25,
                "pitch": 60,
                "velocity": 51,
                "duration": 0.0863636,
                "tempo": 120.0
            },
            {
                "start_time": 55.25,
                "end_time": 55.3522727,
                "pitch": 60,
                "velocity": 20,
                "duration": 0.1022727,
                "tempo": 120.0
            },
            {
                "start_time": 55.3522727,
                "end_time": 55.4386364,
                "pitch": 60,
                "velocity": 51,
                "duration": 0.0863636,
                "tempo": 120.0
            },
            {
                "start_time": 55.4386364,
                "end_time": 55.525,
                "pitch": 60,
                "velocity": 20,
                "duration": 0.0863636,
                "tempo": 120.0
            },
            {
                "start_time": 55.525,
                "end_time": 55.6204545,
                "pitch": 60,
                "velocity": 51,
                "duration": 0.0954545,
                "tempo": 120.0
            },
            {
                "start_time": 55.6227273,
                "end_time": 55.7022727,
                "pitch": 60,
                "velocity": 20,
                "duration": 0.0795455,
                "tempo": 120.0
            },
            {
                "start_time": 55.7045455,
                "end_time": 55.7840909,
                "pitch": 60,
                "velocity": 51,
                "duration": 0.0795455,
                "tempo": 120.0
            },
            {
                "start_time": 55.7840909,
                "end_time": 55.8818182,
                "pitch": 60,
                "velocity": 20,
                "duration": 0.0977273,
                "tempo": 120.0
            },
            {
                "start_time": 55.8818182,
                "end_time": 55.9681818,
                "pitch": 60,
                "velocity": 51,
                "duration": 0.0863636,
                "tempo": 120.0
            },
            {
                "start_time": 55.9681818,
                "end_time": 56.0522727,
                "pitch": 60,
                "velocity": 20,
                "duration": 0.0840909,
                "tempo": 120.0
            },
            {
                "start_time": 56.0545455,
                "end_time": 56.1568182,
                "pitch": 60,
                "velocity": 51,
                "duration": 0.1022727,
                "tempo": 120.0
            },
            {
                "start_time": 56.1568182,
                "end_time": 56.2431818,
                "pitch": 60,
                "velocity": 20,
                "duration": 0.0863636,
                "tempo": 120.0
            },
            {
                "start_time": 56.2431818,
                "end_time": 56.3386364,
                "pitch": 60,
                "velocity": 51,
                "duration": 0.0954545,
                "tempo": 120.0
            },
            {
                "start_time": 56.3409091,
                "end_time": 56.4204545,
                "pitch": 60,
                "velocity": 20,
                "duration": 0.0795455,
                "tempo": 120.0
            },
            {
                "start_time": 56.4227273,
                "end_time": 56.5022727,
                "pitch": 60,
                "velocity": 51,
                "duration": 0.0795455,
                "tempo": 120.0
            },
            {
                "start_time": 56.5022727,
                "end_time": 56.6,
                "pitch": 60,
                "velocity": 20,
                "duration": 0.0977273,
                "tempo": 120.0
            },
            {
                "start_time": 56.6,
                "end_time": 56.6863636,
                "pitch": 60,
                "velocity": 51,
                "duration": 0.0863636,
                "tempo": 120.0
            },
            {
                "start_time": 56.6863636,
                "end_time": 56.7704545,
                "pitch": 60,
                "velocity": 20,
                "duration": 0.0840909,
                "tempo": 120.0
            },
            {
                "start_time": 56.7727273,
                "end_time": 56.875,
                "pitch": 60,
                "velocity": 51,
                "duration": 0.1022727,
                "tempo": 120.0
            },
            {
                "start_time": 56.875,
                "end_time": 56.9590909,
                "pitch": 60,
                "velocity": 20,
                "duration": 0.0840909,
                "tempo": 120.0
            },
            {
                "start_time": 56.9613636,
                "end_time": 57.0386364,
                "pitch": 60,
                "velocity": 51,
                "duration": 0.0772727,
                "tempo": 120.0
            },
            {
                "start_time": 57.0386364,
                "end_time": 57.1340909,
                "pitch": 60,
                "velocity": 20,
                "duration": 0.0954545,
                "tempo": 120.0
            },
            {
                "start_time": 57.1340909,
                "end_time": 57.2113636,
                "pitch": 60,
                "velocity": 51,
                "duration": 0.0772727,
                "tempo": 120.0
            },
            {
                "start_time": 57.2136364,
                "end_time": 57.2909091,
                "pitch": 60,
                "velocity": 20,
                "duration": 0.0772727,
                "tempo": 120.0
            },
            {
                "start_time": 57.2931818,
                "end_time": 57.3909091,
                "pitch": 60,
                "velocity": 51,
                "duration": 0.0977273,
                "tempo": 120.0
            },
            {
                "start_time": 57.3909091,
                "end_time": 57.475,
                "pitch": 60,
                "velocity": 20,
                "duration": 0.0840909,
                "tempo": 120.0
            },
            {
                "start_time": 57.475,
                "end_time": 57.575,
                "pitch": 60,
                "velocity": 51,
                "duration": 0.1,
                "tempo": 120.0
            },
            {
                "start_time": 57.5772727,
                "end_time": 57.6590909,
                "pitch": 60,
                "velocity": 20,
                "duration": 0.0818182,
                "tempo": 120.0
            },
            {
                "start_time": 57.6613636,
                "end_time": 57.7431818,
                "pitch": 60,
                "velocity": 51,
                "duration": 0.0818182,
                "tempo": 120.0
            },
            {
                "start_time": 57.7431818,
                "end_time": 57.8431818,
                "pitch": 60,
                "velocity": 20,
                "duration": 0.1,
                "tempo": 120.0
            },
            {
                "start_time": 57.8454545,
                "end_time": 57.9272727,
                "pitch": 60,
                "velocity": 51,
                "duration": 0.0818182,
                "tempo": 120.0
            },
            {
                "start_time": 57.9272727,
                "end_time": 58.0113636,
                "pitch": 60,
                "velocity": 20,
                "duration": 0.0840909,
                "tempo": 120.0
            },
            {
                "start_time": 58.0113636,
                "end_time": 58.1113636,
                "pitch": 60,
                "velocity": 51,
                "duration": 0.1,
                "tempo": 120.0
            },
            {
                "start_time": 58.1113636,
                "end_time": 58.1954545,
                "pitch": 60,
                "velocity": 20,
                "duration": 0.0840909,
                "tempo": 120.0
            },
            {
                "start_time": 58.1954545,
                "end_time": 58.2795455,
                "pitch": 60,
                "velocity": 51,
                "duration": 0.0840909,
                "tempo": 120.0
            },
            {
                "start_time": 58.2795455,
                "end_time": 58.3795455,
                "pitch": 60,
                "velocity": 20,
                "duration": 0.1,
                "tempo": 120.0
            },
            {
                "start_time": 58.3818182,
                "end_time": 58.4636364,
                "pitch": 60,
                "velocity": 51,
                "duration": 0.0818182,
                "tempo": 120.0
            },
            {
                "start_time": 58.4636364,
                "end_time": 58.5477273,
                "pitch": 60,
                "velocity": 20,
                "duration": 0.0840909,
                "tempo": 120.0
            },
            {
                "start_time": 58.5477273,
                "end_time": 58.6477273,
                "pitch": 60,
                "velocity": 51,
                "duration": 0.1,
                "tempo": 120.0
            },
            {
                "start_time": 58.6477273,
                "end_time": 58.7318182,
                "pitch": 60,
                "velocity": 20,
                "duration": 0.0840909,
                "tempo": 120.0
            },
            {
                "start_time": 58.7318182,
                "end_time": 58.8295455,
                "pitch": 60,
                "velocity": 51,
                "duration": 0.0977273,
                "tempo": 120.0
            },
            {
                "start_time": 58.8295455,
                "end_time": 58.9113636,
                "pitch": 60,
                "velocity": 20,
                "duration": 0.0818182,
                "tempo": 120.0
            },
            {
                "start_time": 58.9113636,
                "end_time": 58.9909091,
                "pitch": 60,
                "velocity": 51,
                "duration": 0.0795455,
                "tempo": 120.0
            },
            {
                "start_time": 58.9931818,
                "end_time": 59.0886364,
                "pitch": 60,
                "velocity": 20,
                "duration": 0.0954545,
                "tempo": 120.0
            },
            {
                "start_time": 59.0909091,
                "end_time": 59.175,
                "pitch": 60,
                "velocity": 51,
                "duration": 0.0840909,
                "tempo": 120.0
            },
            {
                "start_time": 59.175,
                "end_time": 59.2613636,
                "pitch": 60,
                "velocity": 20,
                "duration": 0.0863636,
                "tempo": 120.0
            },
            {
                "start_time": 59.2613636,
                "end_time": 59.3636364,
                "pitch": 60,
                "velocity": 51,
                "duration": 0.1022727,
                "tempo": 120.0
            },
            {
                "start_time": 59.3636364,
                "end_time": 59.45,
                "pitch": 60,
                "velocity": 20,
                "duration": 0.0863636,
                "tempo": 120.0
            },
            {
                "start_time": 59.45,
                "end_time": 59.5318182,
                "pitch": 60,
                "velocity": 51,
                "duration": 0.0818182,
                "tempo": 120.0
            },
            {
                "start_time": 59.5318182,
                "end_time": 59.6295455,
                "pitch": 60,
                "velocity": 20,
                "duration": 0.0977273,
                "tempo": 120.0
            },
            {
                "start_time": 59.6295455,
                "end_time": 59.7090909,
                "pitch": 60,
                "velocity": 51,
                "duration": 0.0795455,
                "tempo": 120.0
            },
            {
                "start_time": 59.7113636,
                "end_time": 59.7909091,
                "pitch": 60,
                "velocity": 20,
                "duration": 0.0795455,
                "tempo": 120.0
            },
            {
                "start_time": 59.7931818,
                "end_time": 59.8886364,
                "pitch": 60,
                "velocity": 51,
                "duration": 0.0954545,
                "tempo": 120.0
            },
            {
                "start_time": 59.8886364,
                "end_time": 59.9704545,
                "pitch": 60,
                "velocity": 20,
                "duration": 0.0818182,
                "tempo": 120.0
            },
            {
                "start_time": 59.9704545,
                "end_time": 60.0681818,
                "pitch": 60,
                "velocity": 51,
                "duration": 0.0977273,
                "tempo": 120.0
            },
            {
                "start_time": 60.0681818,
                "end_time": 60.15,
                "pitch": 60,
                "velocity": 20,
                "duration": 0.0818182,
                "tempo": 120.0
            },
            {
                "start_time": 60.15,
                "end_time": 60.2340909,
                "pitch": 60,
                "velocity": 51,
                "duration": 0.0840909,
                "tempo": 120.0
            },
            {
                "start_time": 60.2340909,
                "end_time": 60.3386364,
                "pitch": 60,
                "velocity": 20,
                "duration": 0.1045455,
                "tempo": 120.0
            },
            {
                "start_time": 60.3386364,
                "end_time": 60.4227273,
                "pitch": 60,
                "velocity": 51,
                "duration": 0.0840909,
                "tempo": 120.0
            },
            {
                "start_time": 60.4227273,
                "end_time": 60.5090909,
                "pitch": 60,
                "velocity": 20,
                "duration": 0.0863636,
                "tempo": 120.0
            }
        ],
        "Synth Bass 1": [
            {
                "start_time": 14.2568182,
                "end_time": 14.7886364,
                "pitch": 65,
                "velocity": 64,
                "duration": 0.5318182,
                "tempo": 120.0
            },
            {
                "start_time": 14.7886364,
                "end_time": 14.9,
                "pitch": 67,
                "velocity": 64,
                "duration": 0.1113636,
                "tempo": 120.0
            },
            {
                "start_time": 14.9,
                "end_time": 14.95,
                "pitch": 67,
                "velocity": 64,
                "duration": 0.05,
                "tempo": 120.0
            },
            {
                "start_time": 14.95,
                "end_time": 15.1295455,
                "pitch": 69,
                "velocity": 64,
                "duration": 0.1795455,
                "tempo": 120.0
            },
            {
                "start_time": 15.1295455,
                "end_time": 15.2272727,
                "pitch": 70,
                "velocity": 64,
                "duration": 0.0977273,
                "tempo": 120.0
            },
            {
                "start_time": 15.2272727,
                "end_time": 15.3090909,
                "pitch": 69,
                "velocity": 64,
                "duration": 0.0818182,
                "tempo": 120.0
            },
            {
                "start_time": 15.3090909,
                "end_time": 15.4272727,
                "pitch": 67,
                "velocity": 64,
                "duration": 0.1181818,
                "tempo": 120.0
            },
            {
                "start_time": 14.9,
                "end_time": 15.4272727,
                "pitch": 79,
                "velocity": 64,
                "duration": 0.5272727,
                "tempo": 120.0
            },
            {
                "start_time": 15.4272727,
                "end_time": 15.4977273,
                "pitch": 67,
                "velocity": 64,
                "duration": 0.0704545,
                "tempo": 120.0
            },
            {
                "start_time": 15.4977273,
                "end_time": 15.6681818,
                "pitch": 65,
                "velocity": 64,
                "duration": 0.1704545,
                "tempo": 120.0
            },
            {
                "start_time": 15.6681818,
                "end_time": 15.7,
                "pitch": 71,
                "velocity": 64,
                "duration": 0.0318182,
                "tempo": 120.0
            },
            {
                "start_time": 15.7,
                "end_time": 16.0272727,
                "pitch": 72,
                "velocity": 64,
                "duration": 0.3272727,
                "tempo": 120.0
            },
            {
                "start_time": 16.0272727,
                "end_time": 16.0590909,
                "pitch": 71,
                "velocity": 64,
                "duration": 0.0318182,
                "tempo": 120.0
            },
            {
                "start_time": 16.0590909,
                "end_time": 16.3863636,
                "pitch": 72,
                "velocity": 64,
                "duration": 0.3272727,
                "tempo": 120.0
            },
            {
                "start_time": 16.3863636,
                "end_time": 16.4181818,
                "pitch": 71,
                "velocity": 64,
                "duration": 0.0318182,
                "tempo": 120.0
            },
            {
                "start_time": 16.4181818,
                "end_time": 16.7454545,
                "pitch": 72,
                "velocity": 64,
                "duration": 0.3272727,
                "tempo": 120.0
            },
            {
                "start_time": 16.7454545,
                "end_time": 16.8295455,
                "pitch": 67,
                "velocity": 64,
                "duration": 0.0840909,
                "tempo": 120.0
            },
            {
                "start_time": 16.8295455,
                "end_time": 16.9159091,
                "pitch": 65,
                "velocity": 64,
                "duration": 0.0863636,
                "tempo": 120.0
            },
            {
                "start_time": 16.9159091,
                "end_time": 17.0181818,
                "pitch": 64,
                "velocity": 64,
                "duration": 0.1022727,
                "tempo": 120.0
            },
            {
                "start_time": 17.0181818,
                "end_time": 17.1045455,
                "pitch": 62,
                "velocity": 64,
                "duration": 0.0863636,
                "tempo": 120.0
            },
            {
                "start_time": 17.1045455,
                "end_time": 17.1840909,
                "pitch": 72,
                "velocity": 64,
                "duration": 0.0795455,
                "tempo": 120.0
            },
            {
                "start_time": 17.1840909,
                "end_time": 17.2772727,
                "pitch": 74,
                "velocity": 64,
                "duration": 0.0931818,
                "tempo": 120.0
            },
            {
                "start_time": 17.2772727,
                "end_time": 17.3568182,
                "pitch": 76,
                "velocity": 64,
                "duration": 0.0795455,
                "tempo": 120.0
            },
            {
                "start_time": 17.3568182,
                "end_time": 17.4363636,
                "pitch": 77,
                "velocity": 64,
                "duration": 0.0795455,
                "tempo": 120.0
            },
            {
                "start_time": 15.4272727,
                "end_time": 17.5363636,
                "pitch": 79,
                "velocity": 64,
                "duration": 2.1090909,
                "tempo": 120.0
            },
            {
                "start_time": 17.4363636,
                "end_time": 17.5363636,
                "pitch": 79,
                "velocity": 64,
                "duration": 0.1,
                "tempo": 120.0
            },
            {
                "start_time": 17.5363636,
                "end_time": 17.6204545,
                "pitch": 77,
                "velocity": 64,
                "duration": 0.0840909,
                "tempo": 120.0
            },
            {
                "start_time": 17.6204545,
                "end_time": 17.7204545,
                "pitch": 76,
                "velocity": 64,
                "duration": 0.1,
                "tempo": 120.0
            },
            {
                "start_time": 17.7204545,
                "end_time": 17.8045455,
                "pitch": 74,
                "velocity": 64,
                "duration": 0.0840909,
                "tempo": 120.0
            },
            {
                "start_time": 17.8045455,
                "end_time": 17.8886364,
                "pitch": 72,
                "velocity": 64,
                "duration": 0.0840909,
                "tempo": 120.0
            },
            {
                "start_time": 17.8886364,
                "end_time": 17.9886364,
                "pitch": 74,
                "velocity": 64,
                "duration": 0.1,
                "tempo": 120.0
            },
            {
                "start_time": 17.9886364,
                "end_time": 18.0727273,
                "pitch": 76,
                "velocity": 64,
                "duration": 0.0840909,
                "tempo": 120.0
            },
            {
                "start_time": 18.0727273,
                "end_time": 18.1568182,
                "pitch": 77,
                "velocity": 64,
                "duration": 0.0840909,
                "tempo": 120.0
            },
            {
                "start_time": 18.1568182,
                "end_time": 18.2522727,
                "pitch": 79,
                "velocity": 64,
                "duration": 0.0954545,
                "tempo": 120.0
            },
            {
                "start_time": 18.2545455,
                "end_time": 18.3340909,
                "pitch": 77,
                "velocity": 64,
                "duration": 0.0795455,
                "tempo": 120.0
            },
            {
                "start_time": 18.3340909,
                "end_time": 18.4159091,
                "pitch": 76,
                "velocity": 64,
                "duration": 0.0818182,
                "tempo": 120.0
            },
            {
                "start_time": 18.4159091,
                "end_time": 18.5136364,
                "pitch": 74,
                "velocity": 64,
                "duration": 0.0977273,
                "tempo": 120.0
            },
            {
                "start_time": 18.5136364,
                "end_time": 18.6,
                "pitch": 72,
                "velocity": 51,
                "duration": 0.0863636,
                "tempo": 120.0
            },
            {
                "start_time": 18.6,
                "end_time": 18.6840909,
                "pitch": 72,
                "velocity": 25,
                "duration": 0.0840909,
                "tempo": 120.0
            },
            {
                "start_time": 18.6863636,
                "end_time": 18.7886364,
                "pitch": 72,
                "velocity": 51,
                "duration": 0.1022727,
                "tempo": 120.0
            },
            {
                "start_time": 18.7886364,
                "end_time": 18.875,
                "pitch": 72,
                "velocity": 25,
                "duration": 0.0863636,
                "tempo": 120.0
            },
            {
                "start_time": 18.875,
                "end_time": 18.9704545,
                "pitch": 72,
                "velocity": 51,
                "duration": 0.0954545,
                "tempo": 120.0
            },
            {
                "start_time": 18.9727273,
                "end_time": 19.0522727,
                "pitch": 72,
                "velocity": 25,
                "duration": 0.0795455,
                "tempo": 120.0
            },
            {
                "start_time": 19.0522727,
                "end_time": 19.1340909,
                "pitch": 72,
                "velocity": 51,
                "duration": 0.0818182,
                "tempo": 120.0
            },
            {
                "start_time": 19.1340909,
                "end_time": 19.2318182,
                "pitch": 72,
                "velocity": 25,
                "duration": 0.0977273,
                "tempo": 120.0
            },
            {
                "start_time": 19.2318182,
                "end_time": 19.3181818,
                "pitch": 72,
                "velocity": 51,
                "duration": 0.0863636,
                "tempo": 120.0
            },
            {
                "start_time": 19.3181818,
                "end_time": 19.4022727,
                "pitch": 72,
                "velocity": 25,
                "duration": 0.0840909,
                "tempo": 120.0
            },
            {
                "start_time": 19.4045455,
                "end_time": 19.5068182,
                "pitch": 72,
                "velocity": 51,
                "duration": 0.1022727,
                "tempo": 120.0
            },
            {
                "start_time": 19.5068182,
                "end_time": 19.5931818,
                "pitch": 72,
                "velocity": 25,
                "duration": 0.0863636,
                "tempo": 120.0
            },
            {
                "start_time": 19.5931818,
                "end_time": 19.6727273,
                "pitch": 72,
                "velocity": 51,
                "duration": 0.0795455,
                "tempo": 120.0
            },
            {
                "start_time": 19.6727273,
                "end_time": 19.7704545,
                "pitch": 72,
                "velocity": 25,
                "duration": 0.0977273,
                "tempo": 120.0
            },
            {
                "start_time": 19.7704545,
                "end_time": 19.8522727,
                "pitch": 72,
                "velocity": 51,
                "duration": 0.0818182,
                "tempo": 120.0
            },
            {
                "start_time": 19.8522727,
                "end_time": 19.9340909,
                "pitch": 72,
                "velocity": 25,
                "duration": 0.0818182,
                "tempo": 120.0
            },
            {
                "start_time": 19.9340909,
                "end_time": 20.475,
                "pitch": 65,
                "velocity": 64,
                "duration": 0.5409091,
                "tempo": 120.0
            },
            {
                "start_time": 20.4772727,
                "end_time": 20.5931818,
                "pitch": 67,
                "velocity": 64,
                "duration": 0.1159091,
                "tempo": 120.0
            },
            {
                "start_time": 20.5931818,
                "end_time": 20.6431818,
                "pitch": 67,
                "velocity": 64,
                "duration": 0.05,
                "tempo": 120.0
            },
            {
                "start_time": 20.6431818,
                "end_time": 20.8272727,
                "pitch": 69,
                "velocity": 64,
                "duration": 0.1840909,
                "tempo": 120.0
            },
            {
                "start_time": 20.8272727,
                "end_time": 20.9113636,
                "pitch": 70,
                "velocity": 64,
                "duration": 0.0840909,
                "tempo": 120.0
            },
            {
                "start_time": 20.9113636,
                "end_time": 21.0113636,
                "pitch": 69,
                "velocity": 64,
                "duration": 0.1,
                "tempo": 120.0
            },
            {
                "start_time": 21.0113636,
                "end_time": 21.1295455,
                "pitch": 67,
                "velocity": 64,
                "duration": 0.1181818,
                "tempo": 120.0
            },
            {
                "start_time": 20.5931818,
                "end_time": 21.1295455,
                "pitch": 79,
                "velocity": 64,
                "duration": 0.5363636,
                "tempo": 120.0
            },
            {
                "start_time": 21.1295455,
                "end_time": 21.1795455,
                "pitch": 67,
                "velocity": 64,
                "duration": 0.05,
                "tempo": 120.0
            },
            {
                "start_time": 21.1795455,
                "end_time": 21.3636364,
                "pitch": 65,
                "velocity": 64,
                "duration": 0.1840909,
                "tempo": 120.0
            },
            {
                "start_time": 21.3636364,
                "end_time": 21.3954545,
                "pitch": 71,
                "velocity": 64,
                "duration": 0.0318182,
                "tempo": 120.0
            },
            {
                "start_time": 21.3954545,
                "end_time": 21.7204545,
                "pitch": 72,
                "velocity": 64,
                "duration": 0.325,
                "tempo": 120.0
            },
            {
                "start_time": 21.7227273,
                "end_time": 21.7545455,
                "pitch": 71,
                "velocity": 64,
                "duration": 0.0318182,
                "tempo": 120.0
            },
            {
                "start_time": 21.7545455,
                "end_time": 22.0818182,
                "pitch": 72,
                "velocity": 64,
                "duration": 0.3272727,
                "tempo": 120.0
            },
            {
                "start_time": 22.0818182,
                "end_time": 22.1136364,
                "pitch": 71,
                "velocity": 64,
                "duration": 0.0318182,
                "tempo": 120.0
            },
            {
                "start_time": 22.1136364,
                "end_time": 22.2613636,
                "pitch": 72,
                "velocity": 64,
                "duration": 0.1477273,
                "tempo": 120.0
            }
        ],
        "Electric Piano 1": [
            {
                "start_time": 0.0181818,
                "end_time": 0.0795455,
                "pitch": 65,
                "velocity": 64,
                "duration": 0.0613636,
                "tempo": 120.0
            },
            {
                "start_time": 0.0795455,
                "end_time": 1.4431818,
                "pitch": 69,
                "velocity": 64,
                "duration": 1.3636364,
                "tempo": 120.0
            },
            {
                "start_time": 1.4431818,
                "end_time": 1.4909091,
                "pitch": 65,
                "velocity": 64,
                "duration": 0.0477273,
                "tempo": 120.0
            },
            {
                "start_time": 1.4909091,
                "end_time": 1.7340909,
                "pitch": 69,
                "velocity": 64,
                "duration": 0.2431818,
                "tempo": 120.0
            },
            {
                "start_time": 1.7340909,
                "end_time": 1.75,
                "pitch": 67,
                "velocity": 64,
                "duration": 0.0159091,
                "tempo": 120.0
            },
            {
                "start_time": 1.75,
                "end_time": 2.1181818,
                "pitch": 66,
                "velocity": 64,
                "duration": 0.3681818,
                "tempo": 120.0
            },
            {
                "start_time": 2.1181818,
                "end_time": 2.3295455,
                "pitch": 68,
                "velocity": 64,
                "duration": 0.2113636,
                "tempo": 120.0
            },
            {
                "start_time": 2.6295455,
                "end_time": 2.7136364,
                "pitch": 65,
                "velocity": 51,
                "duration": 0.0840909,
                "tempo": 120.0
            },
            {
                "start_time": 2.7136364,
                "end_time": 2.7477273,
                "pitch": 67,
                "velocity": 51,
                "duration": 0.0340909,
                "tempo": 120.0
            },
            {
                "start_time": 2.7477273,
                "end_time": 2.8181818,
                "pitch": 67,
                "velocity": 51,
                "duration": 0.0704545,
                "tempo": 120.0
            },
            {
                "start_time": 2.8181818,
                "end_time": 2.9818182,
                "pitch": 69,
                "velocity": 51,
                "duration": 0.1636364,
                "tempo": 120.0
            },
            {
                "start_time": 2.9840909,
                "end_time": 3.05,
                "pitch": 71,
                "velocity": 64,
                "duration": 0.0659091,
                "tempo": 120.0
            },
            {
                "start_time": 3.05,
                "end_time": 3.0795455,
                "pitch": 72,
                "velocity": 64,
                "duration": 0.0295455,
                "tempo": 120.0
            },
            {
                "start_time": 3.0795455,
                "end_time": 3.1613636,
                "pitch": 72,
                "velocity": 32,
                "duration": 0.0818182,
                "tempo": 120.0
            },
            {
                "start_time": 3.1613636,
                "end_time": 3.2431818,
                "pitch": 69,
                "velocity": 51,
                "duration": 0.0818182,
                "tempo": 120.0
            },
            {
                "start_time": 3.2431818,
                "end_time": 3.3409091,
                "pitch": 69,
                "velocity": 32,
                "duration": 0.0977273,
                "tempo": 120.0
            },
            {
                "start_time": 3.3409091,
                "end_time": 3.4227273,
                "pitch": 69,
                "velocity": 64,
                "duration": 0.0818182,
                "tempo": 120.0
            },
            {
                "start_time": 3.4227273,
                "end_time": 3.5181818,
                "pitch": 70,
                "velocity": 32,
                "duration": 0.0954545,
                "tempo": 120.0
            },
            {
                "start_time": 3.5204545,
                "end_time": 3.6022727,
                "pitch": 67,
                "velocity": 64,
                "duration": 0.0818182,
                "tempo": 120.0
            },
            {
                "start_time": 3.6022727,
                "end_time": 3.6886364,
                "pitch": 67,
                "velocity": 32,
                "duration": 0.0863636,
                "tempo": 120.0
            },
            {
                "start_time": 3.6886364,
                "end_time": 3.7909091,
                "pitch": 68,
                "velocity": 64,
                "duration": 0.1022727,
                "tempo": 120.0
            },
            {
                "start_time": 3.7909091,
                "end_time": 3.8772727,
                "pitch": 69,
                "velocity": 32,
                "duration": 0.0863636,
                "tempo": 120.0
            },
            {
                "start_time": 3.8772727,
                "end_time": 3.9613636,
                "pitch": 65,
                "velocity": 51,
                "duration": 0.0840909,
                "tempo": 120.0
            },
            {
                "start_time": 3.9613636,
                "end_time": 4.0590909,
                "pitch": 65,
                "velocity": 32,
                "duration": 0.0977273,
                "tempo": 120.0
            },
            {
                "start_time": 4.0590909,
                "end_time": 4.1386364,
                "pitch": 65,
                "velocity": 51,
                "duration": 0.0795455,
                "tempo": 120.0
            },
            {
                "start_time": 4.1386364,
                "end_time": 4.1727273,
                "pitch": 67,
                "velocity": 51,
                "duration": 0.0340909,
                "tempo": 120.0
            },
            {
                "start_time": 2.7477273,
                "end_time": 4.1727273,
                "pitch": 79,
                "velocity": 51,
                "duration": 1.425,
                "tempo": 120.0
            },
            {
                "start_time": 4.1727273,
                "end_time": 4.2204545,
                "pitch": 67,
                "velocity": 51,
                "duration": 0.0477273,
                "tempo": 120.0
            },
            {
                "start_time": 1.75,
                "end_time": 4.2204545,
                "pitch": 78,
                "velocity": 64,
                "duration": 2.4704545,
                "tempo": 120.0
            },
            {
                "start_time": 4.2204545,
                "end_time": 4.4068182,
                "pitch": 65,
                "velocity": 51,
                "duration": 0.1863636,
                "tempo": 120.0
            },
            {
                "start_time": 4.4068182,
                "end_time": 4.4909091,
                "pitch": 64,
                "velocity": 64,
                "duration": 0.0840909,
                "tempo": 120.0
            },
            {
                "start_time": 4.4931818,
                "end_time": 4.5954545,
                "pitch": 65,
                "velocity": 32,
                "duration": 0.1022727,
                "tempo": 120.0
            },
            {
                "start_time": 4.5954545,
                "end_time": 4.6795455,
                "pitch": 60,
                "velocity": 51,
                "duration": 0.0840909,
                "tempo": 120.0
            },
            {
                "start_time": 4.6795455,
                "end_time": 4.7772727,
                "pitch": 60,
                "velocity": 32,
                "duration": 0.0977273,
                "tempo": 120.0
            },
            {
                "start_time": 4.7772727,
                "end_time": 5.5681818,
                "pitch": 60,
                "velocity": 51,
                "duration": 0.7909091,
                "tempo": 120.0
            },
            {
                "start_time": 5.5681818,
                "end_time": 5.7363636,
                "pitch": 58,
                "velocity": 51,
                "duration": 0.1681818,
                "tempo": 120.0
            },
            {
                "start_time": 5.7363636,
                "end_time": 5.7840909,
                "pitch": 55,
                "velocity": 51,
                "duration": 0.0477273,
                "tempo": 120.0
            },
            {
                "start_time": 5.7840909,
                "end_time": 5.8318182,
                "pitch": 55,
                "velocity": 51,
                "duration": 0.0477273,
                "tempo": 120.0
            },
            {
                "start_time": 5.8318182,
                "end_time": 5.9113636,
                "pitch": 0,
                "velocity": 51,
                "duration": 0.0795455,
                "tempo": 120.0
            },
            {
                "start_time": 5.8318182,
                "end_time": 5.9113636,
                "pitch": 53,
                "velocity": 51,
                "duration": 0.0795455,
                "tempo": 120.0
            },
            {
                "start_time": 5.8318182,
                "end_time": 5.9431818,
                "pitch": 55,
                "velocity": 51,
                "duration": 0.1113636,
                "tempo": 120.0
            },
            {
                "start_time": 5.9113636,
                "end_time": 5.9431818,
                "pitch": 55,
                "velocity": 51,
                "duration": 0.0318182,
                "tempo": 120.0
            },
            {
                "start_time": 5.7840909,
                "end_time": 5.9431818,
                "pitch": 67,
                "velocity": 51,
                "duration": 0.1590909,
                "tempo": 120.0
            },
            {
                "start_time": 5.9113636,
                "end_time": 6.0045455,
                "pitch": 0,
                "velocity": 51,
                "duration": 0.0931818,
                "tempo": 120.0
            },
            {
                "start_time": 5.9431818,
                "end_time": 6.0045455,
                "pitch": 55,
                "velocity": 51,
                "duration": 0.0613636,
                "tempo": 120.0
            },
            {
                "start_time": 6.0045455,
                "end_time": 6.0204545,
                "pitch": 55,
                "velocity": 51,
                "duration": 0.0159091,
                "tempo": 120.0
            },
            {
                "start_time": 6.0204545,
                "end_time": 6.1727273,
                "pitch": 57,
                "velocity": 51,
                "duration": 0.1522727,
                "tempo": 120.0
            },
            {
                "start_time": 5.5681818,
                "end_time": 6.2772727,
                "pitch": 39,
                "velocity": 51,
                "duration": 0.7090909,
                "tempo": 120.0
            },
            {
                "start_time": 6.1727273,
                "end_time": 6.2772727,
                "pitch": 60,
                "velocity": 51,
                "duration": 0.1045455,
                "tempo": 120.0
            },
            {
                "start_time": 6.2772727,
                "end_time": 6.4454545,
                "pitch": 58,
                "velocity": 51,
                "duration": 0.1681818,
                "tempo": 120.0
            },
            {
                "start_time": 6.4454545,
                "end_time": 6.4772727,
                "pitch": 55,
                "velocity": 51,
                "duration": 0.0318182,
                "tempo": 120.0
            },
            {
                "start_time": 5.9431818,
                "end_time": 6.4795455,
                "pitch": 67,
                "velocity": 51,
                "duration": 0.5363636,
                "tempo": 120.0
            },
            {
                "start_time": 6.4772727,
                "end_time": 6.4795455,
                "pitch": 67,
                "velocity": 51,
                "duration": 0.0022727,
                "tempo": 120.0
            },
            {
                "start_time": 6.0045455,
                "end_time": 6.5431818,
                "pitch": 0,
                "velocity": 51,
                "duration": 0.5386364,
                "tempo": 120.0
            },
            {
                "start_time": 6.4795455,
                "end_time": 6.5431818,
                "pitch": 55,
                "velocity": 51,
                "duration": 0.0636364,
                "tempo": 120.0
            },
            {
                "start_time": 5.8318182,
                "end_time": 6.6568182,
                "pitch": 66,
                "velocity": 51,
                "duration": 0.825,
                "tempo": 120.0
            },
            {
                "start_time": 6.5431818,
                "end_time": 6.6568182,
                "pitch": 66,
                "velocity": 51,
                "duration": 0.1136364,
                "tempo": 120.0
            },
            {
                "start_time": 4.1727273,
                "end_time": 6.6568182,
                "pitch": 79,
                "velocity": 51,
                "duration": 2.4840909,
                "tempo": 120.0
            },
            {
                "start_time": 6.6568182,
                "end_time": 6.7068182,
                "pitch": 67,
                "velocity": 51,
                "duration": 0.05,
                "tempo": 120.0
            },
            {
                "start_time": 6.7068182,
                "end_time": 6.8909091,
                "pitch": 69,
                "velocity": 51,
                "duration": 0.1840909,
                "tempo": 120.0
            },
            {
                "start_time": 3.05,
                "end_time": 6.8909091,
                "pitch": 76,
                "velocity": 64,
                "duration": 3.8409091,
                "tempo": 120.0
            },
            {
                "start_time": 6.8909091,
                "end_time": 6.9772727,
                "pitch": 72,
                "velocity": 51,
                "duration": 0.0863636,
                "tempo": 120.0
            },
            {
                "start_time": 6.9772727,
                "end_time": 7.1636364,
                "pitch": 70,
                "velocity": 51,
                "duration": 0.1863636,
                "tempo": 120.0
            },
            {
                "start_time": 7.1636364,
                "end_time": 7.1954545,
                "pitch": 67,
                "velocity": 51,
                "duration": 0.0318182,
                "tempo": 120.0
            },
            {
                "start_time": 6.6568182,
                "end_time": 7.1977273,
                "pitch": 79,
                "velocity": 51,
                "duration": 0.5409091,
                "tempo": 120.0
            },
            {
                "start_time": 7.1954545,
                "end_time": 7.1977273,
                "pitch": 79,
                "velocity": 51,
                "duration": 0.0022727,
                "tempo": 120.0
            },
            {
                "start_time": 7.1977273,
                "end_time": 7.2954545,
                "pitch": 67,
                "velocity": 51,
                "duration": 0.0977273,
                "tempo": 120.0
            },
            {
                "start_time": 7.2954545,
                "end_time": 7.425,
                "pitch": 69,
                "velocity": 51,
                "duration": 0.1295455,
                "tempo": 120.0
            },
            {
                "start_time": 7.425,
                "end_time": 7.5227273,
                "pitch": 65,
                "velocity": 64,
                "duration": 0.0977273,
                "tempo": 120.0
            },
            {
                "start_time": 7.5227273,
                "end_time": 7.6022727,
                "pitch": 65,
                "velocity": 32,
                "duration": 0.0795455,
                "tempo": 120.0
            },
            {
                "start_time": 7.6045455,
                "end_time": 7.7159091,
                "pitch": 66,
                "velocity": 64,
                "duration": 0.1113636,
                "tempo": 120.0
            },
            {
                "start_time": 7.7159091,
                "end_time": 7.7818182,
                "pitch": 67,
                "velocity": 64,
                "duration": 0.0659091,
                "tempo": 120.0
            },
            {
                "start_time": 6.1727273,
                "end_time": 7.8659091,
                "pitch": 64,
                "velocity": 51,
                "duration": 1.6931818,
                "tempo": 120.0
            },
            {
                "start_time": 7.7818182,
                "end_time": 7.8659091,
                "pitch": 64,
                "velocity": 64,
                "duration": 0.0840909,
                "tempo": 120.0
            },
            {
                "start_time": 7.8659091,
                "end_time": 7.95,
                "pitch": 64,
                "velocity": 32,
                "duration": 0.0840909,
                "tempo": 120.0
            },
            {
                "start_time": 7.9522727,
                "end_time": 8.1386364,
                "pitch": 64,
                "velocity": 64,
                "duration": 0.1863636,
                "tempo": 120.0
            },
            {
                "start_time": 8.1409091,
                "end_time": 8.225,
                "pitch": 60,
                "velocity": 64,
                "duration": 0.0840909,
                "tempo": 120.0
            },
            {
                "start_time": 8.225,
                "end_time": 8.3204545,
                "pitch": 60,
                "velocity": 32,
                "duration": 0.0954545,
                "tempo": 120.0
            },
            {
                "start_time": 8.3227273,
                "end_time": 8.4022727,
                "pitch": 65,
                "velocity": 51,
                "duration": 0.0795455,
                "tempo": 120.0
            },
            {
                "start_time": 8.4022727,
                "end_time": 8.4363636,
                "pitch": 67,
                "velocity": 51,
                "duration": 0.0340909,
                "tempo": 120.0
            },
            {
                "start_time": 7.7159091,
                "end_time": 8.4363636,
                "pitch": 79,
                "velocity": 64,
                "duration": 0.7204545,
                "tempo": 120.0
            },
            {
                "start_time": 8.4363636,
                "end_time": 8.5,
                "pitch": 67,
                "velocity": 51,
                "duration": 0.0636364,
                "tempo": 120.0
            },
            {
                "start_time": 8.5,
                "end_time": 8.6681818,
                "pitch": 69,
                "velocity": 51,
                "duration": 0.1681818,
                "tempo": 120.0
            },
            {
                "start_time": 8.6704545,
                "end_time": 8.7227273,
                "pitch": 71,
                "velocity": 64,
                "duration": 0.0522727,
                "tempo": 120.0
            },
            {
                "start_time": 6.8909091,
                "end_time": 8.7227273,
                "pitch": 76,
                "velocity": 51,
                "duration": 1.8318182,
                "tempo": 120.0
            },
            {
                "start_time": 8.7227273,
                "end_time": 8.7727273,
                "pitch": 72,
                "velocity": 64,
                "duration": 0.05,
                "tempo": 120.0
            },
            {
                "start_time": 8.7727273,
                "end_time": 8.8568182,
                "pitch": 72,
                "velocity": 32,
                "duration": 0.0840909,
                "tempo": 120.0
            },
            {
                "start_time": 8.8590909,
                "end_time": 8.9409091,
                "pitch": 69,
                "velocity": 51,
                "duration": 0.0818182,
                "tempo": 120.0
            },
            {
                "start_time": 8.9431818,
                "end_time": 9.0386364,
                "pitch": 69,
                "velocity": 32,
                "duration": 0.0954545,
                "tempo": 120.0
            },
            {
                "start_time": 9.0409091,
                "end_time": 9.1204545,
                "pitch": 69,
                "velocity": 64,
                "duration": 0.0795455,
                "tempo": 120.0
            },
            {
                "start_time": 9.1204545,
                "end_time": 9.2022727,
                "pitch": 70,
                "velocity": 32,
                "duration": 0.0818182,
                "tempo": 120.0
            },
            {
                "start_time": 9.2022727,
                "end_time": 9.3,
                "pitch": 67,
                "velocity": 51,
                "duration": 0.0977273,
                "tempo": 120.0
            },
            {
                "start_time": 9.3022727,
                "end_time": 9.3840909,
                "pitch": 67,
                "velocity": 32,
                "duration": 0.0818182,
                "tempo": 120.0
            },
            {
                "start_time": 9.3840909,
                "end_time": 9.4681818,
                "pitch": 68,
                "velocity": 64,
                "duration": 0.0840909,
                "tempo": 120.0
            },
            {
                "start_time": 9.4681818,
                "end_time": 9.5681818,
                "pitch": 69,
                "velocity": 32,
                "duration": 0.1,
                "tempo": 120.0
            },
            {
                "start_time": 9.5681818,
                "end_time": 9.6522727,
                "pitch": 65,
                "velocity": 51,
                "duration": 0.0840909,
                "tempo": 120.0
            },
            {
                "start_time": 9.6522727,
                "end_time": 9.7522727,
                "pitch": 65,
                "velocity": 32,
                "duration": 0.1,
                "tempo": 120.0
            },
            {
                "start_time": 9.7545455,
                "end_time": 9.8363636,
                "pitch": 65,
                "velocity": 51,
                "duration": 0.0818182,
                "tempo": 120.0
            },
            {
                "start_time": 9.8363636,
                "end_time": 9.8704545,
                "pitch": 67,
                "velocity": 51,
                "duration": 0.0340909,
                "tempo": 120.0
            },
            {
                "start_time": 8.4363636,
                "end_time": 9.8704545,
                "pitch": 79,
                "velocity": 51,
                "duration": 1.4340909,
                "tempo": 120.0
            },
            {
                "start_time": 9.8704545,
                "end_time": 9.9204545,
                "pitch": 67,
                "velocity": 51,
                "duration": 0.05,
                "tempo": 120.0
            },
            {
                "start_time": 4.2204545,
                "end_time": 9.9204545,
                "pitch": 78,
                "velocity": 51,
                "duration": 5.7,
                "tempo": 120.0
            },
            {
                "start_time": 9.9204545,
                "end_time": 10.1022727,
                "pitch": 65,
                "velocity": 51,
                "duration": 0.1818182,
                "tempo": 120.0
            },
            {
                "start_time": 10.1022727,
                "end_time": 10.1818182,
                "pitch": 64,
                "velocity": 64,
                "duration": 0.0795455,
                "tempo": 120.0
            },
            {
                "start_time": 10.1818182,
                "end_time": 10.2795455,
                "pitch": 65,
                "velocity": 25,
                "duration": 0.0977273,
                "tempo": 120.0
            },
            {
                "start_time": 10.2795455,
                "end_time": 10.3613636,
                "pitch": 72,
                "velocity": 51,
                "duration": 0.0818182,
                "tempo": 120.0
            },
            {
                "start_time": 10.3636364,
                "end_time": 10.4454545,
                "pitch": 72,
                "velocity": 32,
                "duration": 0.0818182,
                "tempo": 120.0
            },
            {
                "start_time": 10.4454545,
                "end_time": 10.9886364,
                "pitch": 72,
                "velocity": 51,
                "duration": 0.5431818,
                "tempo": 120.0
            },
            {
                "start_time": 10.9909091,
                "end_time": 11.0409091,
                "pitch": 72,
                "velocity": 64,
                "duration": 0.05,
                "tempo": 120.0
            },
            {
                "start_time": 11.0409091,
                "end_time": 11.0727273,
                "pitch": 72,
                "velocity": 32,
                "duration": 0.0318182,
                "tempo": 120.0
            },
            {
                "start_time": 11.0727273,
                "end_time": 11.125,
                "pitch": 72,
                "velocity": 64,
                "duration": 0.0522727,
                "tempo": 120.0
            },
            {
                "start_time": 11.125,
                "end_time": 11.1590909,
                "pitch": 72,
                "velocity": 32,
                "duration": 0.0340909,
                "tempo": 120.0
            },
            {
                "start_time": 11.1590909,
                "end_time": 11.2613636,
                "pitch": 74,
                "velocity": 64,
                "duration": 0.1022727,
                "tempo": 120.0
            },
            {
                "start_time": 11.2613636,
                "end_time": 11.3477273,
                "pitch": 74,
                "velocity": 32,
                "duration": 0.0863636,
                "tempo": 120.0
            },
            {
                "start_time": 11.3477273,
                "end_time": 11.4318182,
                "pitch": 71,
                "velocity": 64,
                "duration": 0.0840909,
                "tempo": 120.0
            },
            {
                "start_time": 11.4318182,
                "end_time": 11.5295455,
                "pitch": 71,
                "velocity": 32,
                "duration": 0.0977273,
                "tempo": 120.0
            },
            {
                "start_time": 11.5295455,
                "end_time": 11.6090909,
                "pitch": 72,
                "velocity": 64,
                "duration": 0.0795455,
                "tempo": 120.0
            },
            {
                "start_time": 11.6113636,
                "end_time": 11.6909091,
                "pitch": 72,
                "velocity": 32,
                "duration": 0.0795455,
                "tempo": 120.0
            },
            {
                "start_time": 11.6909091,
                "end_time": 11.7590909,
                "pitch": 72,
                "velocity": 51,
                "duration": 0.0681818,
                "tempo": 120.0
            },
            {
                "start_time": 11.7590909,
                "end_time": 11.7909091,
                "pitch": 72,
                "velocity": 32,
                "duration": 0.0318182,
                "tempo": 120.0
            },
            {
                "start_time": 11.7909091,
                "end_time": 11.8431818,
                "pitch": 72,
                "velocity": 51,
                "duration": 0.0522727,
                "tempo": 120.0
            },
            {
                "start_time": 11.8431818,
                "end_time": 11.8772727,
                "pitch": 72,
                "velocity": 32,
                "duration": 0.0340909,
                "tempo": 120.0
            },
            {
                "start_time": 11.8772727,
                "end_time": 11.9613636,
                "pitch": 74,
                "velocity": 51,
                "duration": 0.0840909,
                "tempo": 120.0
            },
            {
                "start_time": 11.9636364,
                "end_time": 12.0659091,
                "pitch": 74,
                "velocity": 32,
                "duration": 0.1022727,
                "tempo": 120.0
            },
            {
                "start_time": 12.0659091,
                "end_time": 12.15,
                "pitch": 71,
                "velocity": 51,
                "duration": 0.0840909,
                "tempo": 120.0
            },
            {
                "start_time": 12.15,
                "end_time": 12.2477273,
                "pitch": 71,
                "velocity": 32,
                "duration": 0.0977273,
                "tempo": 120.0
            },
            {
                "start_time": 12.2477273,
                "end_time": 12.3272727,
                "pitch": 72,
                "velocity": 51,
                "duration": 0.0795455,
                "tempo": 120.0
            },
            {
                "start_time": 12.3295455,
                "end_time": 12.4090909,
                "pitch": 72,
                "velocity": 32,
                "duration": 0.0795455,
                "tempo": 120.0
            },
            {
                "start_time": 12.4090909,
                "end_time": 12.4613636,
                "pitch": 72,
                "velocity": 51,
                "duration": 0.0522727,
                "tempo": 120.0
            },
            {
                "start_time": 12.4613636,
                "end_time": 12.5068182,
                "pitch": 72,
                "velocity": 32,
                "duration": 0.0454545,
                "tempo": 120.0
            },
            {
                "start_time": 12.5068182,
                "end_time": 12.5568182,
                "pitch": 72,
                "velocity": 51,
                "duration": 0.05,
                "tempo": 120.0
            },
            {
                "start_time": 12.5568182,
                "end_time": 12.5886364,
                "pitch": 72,
                "velocity": 32,
                "duration": 0.0318182,
                "tempo": 120.0
            },
            {
                "start_time": 12.5886364,
                "end_time": 12.6704545,
                "pitch": 74,
                "velocity": 51,
                "duration": 0.0818182,
                "tempo": 120.0
            },
            {
                "start_time": 12.6704545,
                "end_time": 12.7681818,
                "pitch": 74,
                "velocity": 32,
                "duration": 0.0977273,
                "tempo": 120.0
            },
            {
                "start_time": 12.7681818,
                "end_time": 12.85,
                "pitch": 71,
                "velocity": 51,
                "duration": 0.0818182,
                "tempo": 120.0
            },
            {
                "start_time": 12.85,
                "end_time": 12.9340909,
                "pitch": 71,
                "velocity": 32,
                "duration": 0.0840909,
                "tempo": 120.0
            },
            {
                "start_time": 12.9340909,
                "end_time": 13.0340909,
                "pitch": 72,
                "velocity": 51,
                "duration": 0.1,
                "tempo": 120.0
            },
            {
                "start_time": 13.0340909,
                "end_time": 13.1181818,
                "pitch": 72,
                "velocity": 32,
                "duration": 0.0840909,
                "tempo": 120.0
            },
            {
                "start_time": 13.1181818,
                "end_time": 13.2022727,
                "pitch": 71,
                "velocity": 51,
                "duration": 0.0840909,
                "tempo": 120.0
            },
            {
                "start_time": 13.2022727,
                "end_time": 13.3022727,
                "pitch": 71,
                "velocity": 16,
                "duration": 0.1,
                "tempo": 120.0
            },
            {
                "start_time": 13.3022727,
                "end_time": 13.3863636,
                "pitch": 72,
                "velocity": 40,
                "duration": 0.0840909,
                "tempo": 120.0
            },
            {
                "start_time": 13.3863636,
                "end_time": 13.4863636,
                "pitch": 72,
                "velocity": 16,
                "duration": 0.1,
                "tempo": 120.0
            },
            {
                "start_time": 13.4863636,
                "end_time": 13.5704545,
                "pitch": 71,
                "velocity": 64,
                "duration": 0.0840909,
                "tempo": 120.0
            },
            {
                "start_time": 13.5704545,
                "end_time": 13.6545455,
                "pitch": 71,
                "velocity": 20,
                "duration": 0.0840909,
                "tempo": 120.0
            },
            {
                "start_time": 13.6545455,
                "end_time": 13.7545455,
                "pitch": 72,
                "velocity": 51,
                "duration": 0.1,
                "tempo": 120.0
            },
            {
                "start_time": 13.7545455,
                "end_time": 13.8386364,
                "pitch": 72,
                "velocity": 20,
                "duration": 0.0840909,
                "tempo": 120.0
            },
            {
                "start_time": 13.8386364,
                "end_time": 13.9227273,
                "pitch": 71,
                "velocity": 80,
                "duration": 0.0840909,
                "tempo": 120.0
            },
            {
                "start_time": 13.9227273,
                "end_time": 14.0227273,
                "pitch": 71,
                "velocity": 25,
                "duration": 0.1,
                "tempo": 120.0
            },
            {
                "start_time": 14.0227273,
                "end_time": 14.1068182,
                "pitch": 72,
                "velocity": 64,
                "duration": 0.0840909,
                "tempo": 120.0
            },
            {
                "start_time": 14.1068182,
                "end_time": 14.1909091,
                "pitch": 72,
                "velocity": 25,
                "duration": 0.0840909,
                "tempo": 120.0
            },
            {
                "start_time": 14.1909091,
                "end_time": 14.2909091,
                "pitch": 72,
                "velocity": 64,
                "duration": 0.1,
                "tempo": 120.0
            },
            {
                "start_time": 14.2909091,
                "end_time": 14.375,
                "pitch": 72,
                "velocity": 25,
                "duration": 0.0840909,
                "tempo": 120.0
            },
            {
                "start_time": 14.375,
                "end_time": 14.425,
                "pitch": 71,
                "velocity": 64,
                "duration": 0.05,
                "tempo": 120.0
            },
            {
                "start_time": 8.7227273,
                "end_time": 14.425,
                "pitch": 76,
                "velocity": 64,
                "duration": 5.7022727,
                "tempo": 120.0
            },
            {
                "start_time": 14.425,
                "end_time": 14.4590909,
                "pitch": 72,
                "velocity": 64,
                "duration": 0.0340909,
                "tempo": 120.0
            },
            {
                "start_time": 14.4590909,
                "end_time": 14.5590909,
                "pitch": 72,
                "velocity": 32,
                "duration": 0.1,
                "tempo": 120.0
            },
            {
                "start_time": 14.5590909,
                "end_time": 14.6409091,
                "pitch": 69,
                "velocity": 51,
                "duration": 0.0818182,
                "tempo": 120.0
            },
            {
                "start_time": 14.6409091,
                "end_time": 14.7386364,
                "pitch": 69,
                "velocity": 32,
                "duration": 0.0977273,
                "tempo": 120.0
            },
            {
                "start_time": 14.7386364,
                "end_time": 14.8204545,
                "pitch": 69,
                "velocity": 64,
                "duration": 0.0818182,
                "tempo": 120.0
            },
            {
                "start_time": 14.8204545,
                "end_time": 14.9022727,
                "pitch": 70,
                "velocity": 32,
                "duration": 0.0818182,
                "tempo": 120.0
            },
            {
                "start_time": 14.9022727,
                "end_time": 15.0,
                "pitch": 67,
                "velocity": 64,
                "duration": 0.0977273,
                "tempo": 120.0
            },
            {
                "start_time": 15.0,
                "end_time": 15.0795455,
                "pitch": 67,
                "velocity": 32,
                "duration": 0.0795455,
                "tempo": 120.0
            },
            {
                "start_time": 15.0818182,
                "end_time": 15.1613636,
                "pitch": 68,
                "velocity": 64,
                "duration": 0.0795455,
                "tempo": 120.0
            },
            {
                "start_time": 15.1613636,
                "end_time": 15.2590909,
                "pitch": 69,
                "velocity": 32,
                "duration": 0.0977273,
                "tempo": 120.0
            },
            {
                "start_time": 15.2590909,
                "end_time": 15.3431818,
                "pitch": 65,
                "velocity": 51,
                "duration": 0.0840909,
                "tempo": 120.0
            },
            {
                "start_time": 15.3431818,
                "end_time": 15.4272727,
                "pitch": 65,
                "velocity": 32,
                "duration": 0.0840909,
                "tempo": 120.0
            },
            {
                "start_time": 15.4295455,
                "end_time": 15.5318182,
                "pitch": 65,
                "velocity": 51,
                "duration": 0.1022727,
                "tempo": 120.0
            },
            {
                "start_time": 15.5318182,
                "end_time": 15.5659091,
                "pitch": 67,
                "velocity": 51,
                "duration": 0.0340909,
                "tempo": 120.0
            },
            {
                "start_time": 9.8704545,
                "end_time": 15.5659091,
                "pitch": 79,
                "velocity": 51,
                "duration": 5.6954545,
                "tempo": 120.0
            },
            {
                "start_time": 15.5659091,
                "end_time": 15.6159091,
                "pitch": 67,
                "velocity": 51,
                "duration": 0.05,
                "tempo": 120.0
            },
            {
                "start_time": 9.9204545,
                "end_time": 15.6159091,
                "pitch": 78,
                "velocity": 51,
                "duration": 5.6954545,
                "tempo": 120.0
            },
            {
                "start_time": 15.6159091,
                "end_time": 15.7977273,
                "pitch": 65,
                "velocity": 51,
                "duration": 0.1818182,
                "tempo": 120.0
            },
            {
                "start_time": 15.8,
                "end_time": 15.8795455,
                "pitch": 64,
                "velocity": 64,
                "duration": 0.0795455,
                "tempo": 120.0
            },
            {
                "start_time": 15.8795455,
                "end_time": 15.9772727,
                "pitch": 65,
                "velocity": 32,
                "duration": 0.0977273,
                "tempo": 120.0
            },
            {
                "start_time": 15.9772727,
                "end_time": 16.0613636,
                "pitch": 60,
                "velocity": 51,
                "duration": 0.0840909,
                "tempo": 120.0
            },
            {
                "start_time": 16.0613636,
                "end_time": 16.1454545,
                "pitch": 60,
                "velocity": 32,
                "duration": 0.0840909,
                "tempo": 120.0
            },
            {
                "start_time": 6.2772727,
                "end_time": 16.95,
                "pitch": 39,
                "velocity": 51,
                "duration": 10.6727273,
                "tempo": 120.0
            },
            {
                "start_time": 16.1454545,
                "end_time": 16.95,
                "pitch": 60,
                "velocity": 51,
                "duration": 0.8045455,
                "tempo": 120.0
            },
            {
                "start_time": 16.95,
                "end_time": 17.1363636,
                "pitch": 58,
                "velocity": 51,
                "duration": 0.1863636,
                "tempo": 120.0
            },
            {
                "start_time": 6.5431818,
                "end_time": 17.1681818,
                "pitch": 55,
                "velocity": 51,
                "duration": 10.625,
                "tempo": 120.0
            },
            {
                "start_time": 17.1363636,
                "end_time": 17.1681818,
                "pitch": 55,
                "velocity": 51,
                "duration": 0.0318182,
                "tempo": 120.0
            },
            {
                "start_time": 6.5431818,
                "end_time": 17.2295455,
                "pitch": 0,
                "velocity": 51,
                "duration": 10.6863636,
                "tempo": 120.0
            },
            {
                "start_time": 17.1681818,
                "end_time": 17.2295455,
                "pitch": 55,
                "velocity": 51,
                "duration": 0.0613636,
                "tempo": 120.0
            },
            {
                "start_time": 17.2295455,
                "end_time": 17.3090909,
                "pitch": 0,
                "velocity": 51,
                "duration": 0.0795455,
                "tempo": 120.0
            },
            {
                "start_time": 17.2295455,
                "end_time": 17.3090909,
                "pitch": 53,
                "velocity": 51,
                "duration": 0.0795455,
                "tempo": 120.0
            },
            {
                "start_time": 17.2295455,
                "end_time": 17.3409091,
                "pitch": 55,
                "velocity": 51,
                "duration": 0.1113636,
                "tempo": 120.0
            },
            {
                "start_time": 17.3090909,
                "end_time": 17.3409091,
                "pitch": 55,
                "velocity": 51,
                "duration": 0.0318182,
                "tempo": 120.0
            },
            {
                "start_time": 17.1681818,
                "end_time": 17.3409091,
                "pitch": 67,
                "velocity": 51,
                "duration": 0.1727273,
                "tempo": 120.0
            },
            {
                "start_time": 17.3090909,
                "end_time": 17.3886364,
                "pitch": 0,
                "velocity": 51,
                "duration": 0.0795455,
                "tempo": 120.0
            },
            {
                "start_time": 17.3409091,
                "end_time": 17.3886364,
                "pitch": 55,
                "velocity": 51,
                "duration": 0.0477273,
                "tempo": 120.0
            },
            {
                "start_time": 17.3886364,
                "end_time": 17.4045455,
                "pitch": 55,
                "velocity": 51,
                "duration": 0.0159091,
                "tempo": 120.0
            },
            {
                "start_time": 17.4045455,
                "end_time": 17.5704545,
                "pitch": 57,
                "velocity": 51,
                "duration": 0.1659091,
                "tempo": 120.0
            },
            {
                "start_time": 16.95,
                "end_time": 17.6522727,
                "pitch": 39,
                "velocity": 51,
                "duration": 0.7022727,
                "tempo": 120.0
            },
            {
                "start_time": 17.5704545,
                "end_time": 17.6522727,
                "pitch": 60,
                "velocity": 51,
                "duration": 0.0818182,
                "tempo": 120.0
            },
            {
                "start_time": 17.6522727,
                "end_time": 17.8386364,
                "pitch": 58,
                "velocity": 51,
                "duration": 0.1863636,
                "tempo": 120.0
            },
            {
                "start_time": 17.8386364,
                "end_time": 17.8704545,
                "pitch": 55,
                "velocity": 51,
                "duration": 0.0318182,
                "tempo": 120.0
            },
            {
                "start_time": 17.3409091,
                "end_time": 17.8704545,
                "pitch": 67,
                "velocity": 51,
                "duration": 0.5295455,
                "tempo": 120.0
            },
            {
                "start_time": 17.3886364,
                "end_time": 17.9204545,
                "pitch": 0,
                "velocity": 51,
                "duration": 0.5318182,
                "tempo": 120.0
            },
            {
                "start_time": 17.8704545,
                "end_time": 17.9204545,
                "pitch": 55,
                "velocity": 51,
                "duration": 0.05,
                "tempo": 120.0
            },
            {
                "start_time": 17.2295455,
                "end_time": 18.0545455,
                "pitch": 66,
                "velocity": 51,
                "duration": 0.825,
                "tempo": 120.0
            },
            {
                "start_time": 17.9204545,
                "end_time": 18.0545455,
                "pitch": 66,
                "velocity": 51,
                "duration": 0.1340909,
                "tempo": 120.0
            },
            {
                "start_time": 15.5659091,
                "end_time": 18.0545455,
                "pitch": 79,
                "velocity": 51,
                "duration": 2.4886364,
                "tempo": 120.0
            },
            {
                "start_time": 17.8704545,
                "end_time": 18.1045455,
                "pitch": 67,
                "velocity": 51,
                "duration": 0.2340909,
                "tempo": 120.0
            },
            {
                "start_time": 18.0545455,
                "end_time": 18.1045455,
                "pitch": 67,
                "velocity": 51,
                "duration": 0.05,
                "tempo": 120.0
            },
            {
                "start_time": 18.1045455,
                "end_time": 18.2863636,
                "pitch": 69,
                "velocity": 51,
                "duration": 0.1818182,
                "tempo": 120.0
            },
            {
                "start_time": 14.425,
                "end_time": 18.2863636,
                "pitch": 76,
                "velocity": 64,
                "duration": 3.8613636,
                "tempo": 120.0
            },
            {
                "start_time": 6.9772727,
                "end_time": 18.3681818,
                "pitch": 51,
                "velocity": 51,
                "duration": 11.3909091,
                "tempo": 120.0
            },
            {
                "start_time": 18.2863636,
                "end_time": 18.3681818,
                "pitch": 72,
                "velocity": 51,
                "duration": 0.0818182,
                "tempo": 120.0
            },
            {
                "start_time": 18.3681818,
                "end_time": 18.5477273,
                "pitch": 70,
                "velocity": 51,
                "duration": 0.1795455,
                "tempo": 120.0
            },
            {
                "start_time": 18.5477273,
                "end_time": 18.5818182,
                "pitch": 67,
                "velocity": 51,
                "duration": 0.0340909,
                "tempo": 120.0
            },
            {
                "start_time": 18.0545455,
                "end_time": 18.5818182,
                "pitch": 79,
                "velocity": 51,
                "duration": 0.5272727,
                "tempo": 120.0
            },
            {
                "start_time": 18.5818182,
                "end_time": 18.6681818,
                "pitch": 67,
                "velocity": 51,
                "duration": 0.0863636,
                "tempo": 120.0
            },
            {
                "start_time": 18.6681818,
                "end_time": 18.8227273,
                "pitch": 69,
                "velocity": 51,
                "duration": 0.1545455,
                "tempo": 120.0
            },
            {
                "start_time": 18.8227273,
                "end_time": 18.9068182,
                "pitch": 65,
                "velocity": 64,
                "duration": 0.0840909,
                "tempo": 120.0
            },
            {
                "start_time": 18.9068182,
                "end_time": 19.0045455,
                "pitch": 65,
                "velocity": 32,
                "duration": 0.0977273,
                "tempo": 120.0
            },
            {
                "start_time": 19.0045455,
                "end_time": 19.1181818,
                "pitch": 66,
                "velocity": 64,
                "duration": 0.1136364,
                "tempo": 120.0
            },
            {
                "start_time": 18.5818182,
                "end_time": 19.1181818,
                "pitch": 79,
                "velocity": 51,
                "duration": 0.5363636,
                "tempo": 120.0
            },
            {
                "start_time": 19.1181818,
                "end_time": 19.1659091,
                "pitch": 67,
                "velocity": 64,
                "duration": 0.0477273,
                "tempo": 120.0
            },
            {
                "start_time": 17.5704545,
                "end_time": 19.2659091,
                "pitch": 64,
                "velocity": 51,
                "duration": 1.6954545,
                "tempo": 120.0
            },
            {
                "start_time": 19.1681818,
                "end_time": 19.2659091,
                "pitch": 64,
                "velocity": 64,
                "duration": 0.0977273,
                "tempo": 120.0
            },
            {
                "start_time": 19.2659091,
                "end_time": 19.3522727,
                "pitch": 64,
                "velocity": 32,
                "duration": 0.0863636,
                "tempo": 120.0
            },
            {
                "start_time": 19.3522727,
                "end_time": 19.5409091,
                "pitch": 64,
                "velocity": 64,
                "duration": 0.1886364,
                "tempo": 120.0
            },
            {
                "start_time": 19.5409091,
                "end_time": 19.625,
                "pitch": 60,
                "velocity": 64,
                "duration": 0.0840909,
                "tempo": 120.0
            },
            {
                "start_time": 19.625,
                "end_time": 19.7227273,
                "pitch": 60,
                "velocity": 32,
                "duration": 0.0977273,
                "tempo": 120.0
            },
            {
                "start_time": 19.7227273,
                "end_time": 19.8045455,
                "pitch": 65,
                "velocity": 51,
                "duration": 0.0818182,
                "tempo": 120.0
            },
            {
                "start_time": 19.8045455,
                "end_time": 19.8363636,
                "pitch": 67,
                "velocity": 51,
                "duration": 0.0318182,
                "tempo": 120.0
            },
            {
                "start_time": 19.1181818,
                "end_time": 19.8363636,
                "pitch": 79,
                "velocity": 64,
                "duration": 0.7181818,
                "tempo": 120.0
            },
            {
                "start_time": 19.8363636,
                "end_time": 19.8840909,
                "pitch": 67,
                "velocity": 51,
                "duration": 0.0477273,
                "tempo": 120.0
            },
            {
                "start_time": 19.8840909,
                "end_time": 20.0636364,
                "pitch": 69,
                "velocity": 51,
                "duration": 0.1795455,
                "tempo": 120.0
            },
            {
                "start_time": 20.0636364,
                "end_time": 20.1136364,
                "pitch": 71,
                "velocity": 64,
                "duration": 0.05,
                "tempo": 120.0
            },
            {
                "start_time": 18.2863636,
                "end_time": 20.1136364,
                "pitch": 76,
                "velocity": 51,
                "duration": 1.8272727,
                "tempo": 120.0
            },
            {
                "start_time": 20.1136364,
                "end_time": 20.1454545,
                "pitch": 72,
                "velocity": 64,
                "duration": 0.0318182,
                "tempo": 120.0
            },
            {
                "start_time": 20.1454545,
                "end_time": 20.2431818,
                "pitch": 72,
                "velocity": 32,
                "duration": 0.0977273,
                "tempo": 120.0
            },
            {
                "start_time": 20.2431818,
                "end_time": 20.325,
                "pitch": 69,
                "velocity": 51,
                "duration": 0.0818182,
                "tempo": 120.0
            },
            {
                "start_time": 20.325,
                "end_time": 20.4090909,
                "pitch": 69,
                "velocity": 32,
                "duration": 0.0840909,
                "tempo": 120.0
            },
            {
                "start_time": 20.4090909,
                "end_time": 20.5090909,
                "pitch": 69,
                "velocity": 64,
                "duration": 0.1,
                "tempo": 120.0
            },
            {
                "start_time": 20.5090909,
                "end_time": 20.5931818,
                "pitch": 70,
                "velocity": 32,
                "duration": 0.0840909,
                "tempo": 120.0
            },
            {
                "start_time": 20.5931818,
                "end_time": 20.6772727,
                "pitch": 67,
                "velocity": 51,
                "duration": 0.0840909,
                "tempo": 120.0
            },
            {
                "start_time": 20.6772727,
                "end_time": 20.7772727,
                "pitch": 67,
                "velocity": 32,
                "duration": 0.1,
                "tempo": 120.0
            },
            {
                "start_time": 20.7772727,
                "end_time": 20.8613636,
                "pitch": 68,
                "velocity": 64,
                "duration": 0.0840909,
                "tempo": 120.0
            },
            {
                "start_time": 20.8613636,
                "end_time": 20.9613636,
                "pitch": 69,
                "velocity": 32,
                "duration": 0.1,
                "tempo": 120.0
            },
            {
                "start_time": 20.9613636,
                "end_time": 21.0454545,
                "pitch": 65,
                "velocity": 51,
                "duration": 0.0840909,
                "tempo": 120.0
            },
            {
                "start_time": 21.0454545,
                "end_time": 21.1295455,
                "pitch": 65,
                "velocity": 32,
                "duration": 0.0840909,
                "tempo": 120.0
            },
            {
                "start_time": 21.1295455,
                "end_time": 21.2295455,
                "pitch": 65,
                "velocity": 51,
                "duration": 0.1,
                "tempo": 120.0
            },
            {
                "start_time": 21.2295455,
                "end_time": 21.2636364,
                "pitch": 67,
                "velocity": 51,
                "duration": 0.0340909,
                "tempo": 120.0
            },
            {
                "start_time": 19.8363636,
                "end_time": 21.2636364,
                "pitch": 79,
                "velocity": 51,
                "duration": 1.4272727,
                "tempo": 120.0
            },
            {
                "start_time": 21.2636364,
                "end_time": 21.3136364,
                "pitch": 67,
                "velocity": 51,
                "duration": 0.05,
                "tempo": 120.0
            },
            {
                "start_time": 15.6159091,
                "end_time": 21.3136364,
                "pitch": 78,
                "velocity": 51,
                "duration": 5.6977273,
                "tempo": 120.0
            },
            {
                "start_time": 21.3136364,
                "end_time": 21.4931818,
                "pitch": 65,
                "velocity": 51,
                "duration": 0.1795455,
                "tempo": 120.0
            },
            {
                "start_time": 21.4931818,
                "end_time": 21.575,
                "pitch": 64,
                "velocity": 64,
                "duration": 0.0818182,
                "tempo": 120.0
            },
            {
                "start_time": 21.575,
                "end_time": 21.6568182,
                "pitch": 65,
                "velocity": 25,
                "duration": 0.0818182,
                "tempo": 120.0
            },
            {
                "start_time": 21.6568182,
                "end_time": 21.7568182,
                "pitch": 72,
                "velocity": 51,
                "duration": 0.1,
                "tempo": 120.0
            },
            {
                "start_time": 21.7568182,
                "end_time": 21.8409091,
                "pitch": 72,
                "velocity": 32,
                "duration": 0.0840909,
                "tempo": 120.0
            },
            {
                "start_time": 21.8409091,
                "end_time": 22.375,
                "pitch": 72,
                "velocity": 51,
                "duration": 0.5340909,
                "tempo": 120.0
            },
            {
                "start_time": 22.375,
                "end_time": 22.425,
                "pitch": 72,
                "velocity": 64,
                "duration": 0.05,
                "tempo": 120.0
            },
            {
                "start_time": 22.425,
                "end_time": 22.4727273,
                "pitch": 72,
                "velocity": 32,
                "duration": 0.0477273,
                "tempo": 120.0
            },
            {
                "start_time": 22.4727273,
                "end_time": 22.5227273,
                "pitch": 72,
                "velocity": 64,
                "duration": 0.05,
                "tempo": 120.0
            },
            {
                "start_time": 22.5227273,
                "end_time": 22.5522727,
                "pitch": 72,
                "velocity": 32,
                "duration": 0.0295455,
                "tempo": 120.0
            },
            {
                "start_time": 22.5545455,
                "end_time": 22.6340909,
                "pitch": 74,
                "velocity": 64,
                "duration": 0.0795455,
                "tempo": 120.0
            },
            {
                "start_time": 22.6340909,
                "end_time": 22.7318182,
                "pitch": 74,
                "velocity": 32,
                "duration": 0.0977273,
                "tempo": 120.0
            },
            {
                "start_time": 22.7318182,
                "end_time": 22.8159091,
                "pitch": 71,
                "velocity": 64,
                "duration": 0.0840909,
                "tempo": 120.0
            },
            {
                "start_time": 22.8159091,
                "end_time": 22.9,
                "pitch": 71,
                "velocity": 32,
                "duration": 0.0840909,
                "tempo": 120.0
            },
            {
                "start_time": 22.9022727,
                "end_time": 23.0045455,
                "pitch": 72,
                "velocity": 64,
                "duration": 0.1022727,
                "tempo": 120.0
            },
            {
                "start_time": 23.0045455,
                "end_time": 23.0886364,
                "pitch": 72,
                "velocity": 32,
                "duration": 0.0840909,
                "tempo": 120.0
            },
            {
                "start_time": 23.0909091,
                "end_time": 23.1431818,
                "pitch": 72,
                "velocity": 51,
                "duration": 0.0522727,
                "tempo": 120.0
            },
            {
                "start_time": 23.1431818,
                "end_time": 23.1727273,
                "pitch": 72,
                "velocity": 32,
                "duration": 0.0295455,
                "tempo": 120.0
            },
            {
                "start_time": 23.175,
                "end_time": 23.2409091,
                "pitch": 72,
                "velocity": 51,
                "duration": 0.0659091,
                "tempo": 120.0
            },
            {
                "start_time": 23.2409091,
                "end_time": 23.2704545,
                "pitch": 72,
                "velocity": 32,
                "duration": 0.0295455,
                "tempo": 120.0
            },
            {
                "start_time": 23.2727273,
                "end_time": 23.3522727,
                "pitch": 74,
                "velocity": 51,
                "duration": 0.0795455,
                "tempo": 120.0
            },
            {
                "start_time": 23.3522727,
                "end_time": 23.45,
                "pitch": 74,
                "velocity": 32,
                "duration": 0.0977273,
                "tempo": 120.0
            },
            {
                "start_time": 23.45,
                "end_time": 23.5318182,
                "pitch": 71,
                "velocity": 51,
                "duration": 0.0818182,
                "tempo": 120.0
            },
            {
                "start_time": 23.5340909,
                "end_time": 23.6159091,
                "pitch": 71,
                "velocity": 32,
                "duration": 0.0818182,
                "tempo": 120.0
            },
            {
                "start_time": 23.6159091,
                "end_time": 23.7159091,
                "pitch": 72,
                "velocity": 51,
                "duration": 0.1,
                "tempo": 120.0
            },
            {
                "start_time": 23.7181818,
                "end_time": 23.8,
                "pitch": 72,
                "velocity": 32,
                "duration": 0.0818182,
                "tempo": 120.0
            },
            {
                "start_time": 23.8022727,
                "end_time": 23.8545455,
                "pitch": 72,
                "velocity": 51,
                "duration": 0.0522727,
                "tempo": 120.0
            },
            {
                "start_time": 23.8545455,
                "end_time": 23.8840909,
                "pitch": 72,
                "velocity": 32,
                "duration": 0.0295455,
                "tempo": 120.0
            },
            {
                "start_time": 23.8840909,
                "end_time": 23.9522727,
                "pitch": 72,
                "velocity": 51,
                "duration": 0.0681818,
                "tempo": 120.0
            },
            {
                "start_time": 23.9522727,
                "end_time": 23.9840909,
                "pitch": 72,
                "velocity": 32,
                "duration": 0.0318182,
                "tempo": 120.0
            },
            {
                "start_time": 23.9863636,
                "end_time": 24.0681818,
                "pitch": 74,
                "velocity": 51,
                "duration": 0.0818182,
                "tempo": 120.0
            },
            {
                "start_time": 24.0681818,
                "end_time": 24.1522727,
                "pitch": 74,
                "velocity": 32,
                "duration": 0.0840909,
                "tempo": 120.0
            },
            {
                "start_time": 24.1522727,
                "end_time": 24.2522727,
                "pitch": 71,
                "velocity": 51,
                "duration": 0.1,
                "tempo": 120.0
            },
            {
                "start_time": 24.2522727,
                "end_time": 24.3363636,
                "pitch": 71,
                "velocity": 32,
                "duration": 0.0840909,
                "tempo": 120.0
            },
            {
                "start_time": 24.3363636,
                "end_time": 24.4204545,
                "pitch": 72,
                "velocity": 51,
                "duration": 0.0840909,
                "tempo": 120.0
            },
            {
                "start_time": 24.4204545,
                "end_time": 24.5204545,
                "pitch": 72,
                "velocity": 32,
                "duration": 0.1,
                "tempo": 120.0
            },
            {
                "start_time": 24.5204545,
                "end_time": 24.6045455,
                "pitch": 71,
                "velocity": 51,
                "duration": 0.0840909,
                "tempo": 120.0
            },
            {
                "start_time": 24.6045455,
                "end_time": 24.7022727,
                "pitch": 71,
                "velocity": 16,
                "duration": 0.0977273,
                "tempo": 120.0
            },
            {
                "start_time": 24.7022727,
                "end_time": 24.7818182,
                "pitch": 72,
                "velocity": 40,
                "duration": 0.0795455,
                "tempo": 120.0
            },
            {
                "start_time": 24.7818182,
                "end_time": 24.8636364,
                "pitch": 72,
                "velocity": 16,
                "duration": 0.0818182,
                "tempo": 120.0
            },
            {
                "start_time": 24.8636364,
                "end_time": 24.9613636,
                "pitch": 71,
                "velocity": 64,
                "duration": 0.0977273,
                "tempo": 120.0
            },
            {
                "start_time": 24.9613636,
                "end_time": 25.0431818,
                "pitch": 71,
                "velocity": 20,
                "duration": 0.0818182,
                "tempo": 120.0
            },
            {
                "start_time": 25.0431818,
                "end_time": 25.125,
                "pitch": 72,
                "velocity": 51,
                "duration": 0.0818182,
                "tempo": 120.0
            },
            {
                "start_time": 25.125,
                "end_time": 25.2227273,
                "pitch": 72,
                "velocity": 20,
                "duration": 0.0977273,
                "tempo": 120.0
            },
            {
                "start_time": 25.2227273,
                "end_time": 25.3045455,
                "pitch": 71,
                "velocity": 80,
                "duration": 0.0818182,
                "tempo": 120.0
            },
            {
                "start_time": 25.3045455,
                "end_time": 25.3909091,
                "pitch": 71,
                "velocity": 25,
                "duration": 0.0863636,
                "tempo": 120.0
            },
            {
                "start_time": 25.3909091,
                "end_time": 25.4931818,
                "pitch": 72,
                "velocity": 64,
                "duration": 0.1022727,
                "tempo": 120.0
            },
            {
                "start_time": 25.4931818,
                "end_time": 25.5795455,
                "pitch": 72,
                "velocity": 25,
                "duration": 0.0863636,
                "tempo": 120.0
            },
            {
                "start_time": 25.5795455,
                "end_time": 25.6636364,
                "pitch": 72,
                "velocity": 64,
                "duration": 0.0840909,
                "tempo": 120.0
            },
            {
                "start_time": 25.6636364,
                "end_time": 25.7613636,
                "pitch": 72,
                "velocity": 25,
                "duration": 0.0977273,
                "tempo": 120.0
            },
            {
                "start_time": 25.7613636,
                "end_time": 25.8431818,
                "pitch": 72,
                "velocity": 64,
                "duration": 0.0818182,
                "tempo": 120.0
            },
            {
                "start_time": 25.8431818,
                "end_time": 25.9409091,
                "pitch": 72,
                "velocity": 32,
                "duration": 0.0977273,
                "tempo": 120.0
            },
            {
                "start_time": 26.4795455,
                "end_time": 26.5613636,
                "pitch": 70,
                "velocity": 64,
                "duration": 0.0818182,
                "tempo": 120.0
            },
            {
                "start_time": 26.5613636,
                "end_time": 26.6409091,
                "pitch": 70,
                "velocity": 32,
                "duration": 0.0795455,
                "tempo": 120.0
            },
            {
                "start_time": 27.0159091,
                "end_time": 27.1,
                "pitch": 69,
                "velocity": 64,
                "duration": 0.0840909,
                "tempo": 120.0
            },
            {
                "start_time": 27.1,
                "end_time": 27.1977273,
                "pitch": 69,
                "velocity": 32,
                "duration": 0.0977273,
                "tempo": 120.0
            },
            {
                "start_time": 27.1977273,
                "end_time": 27.2795455,
                "pitch": 72,
                "velocity": 64,
                "duration": 0.0818182,
                "tempo": 120.0
            },
            {
                "start_time": 27.2795455,
                "end_time": 27.3590909,
                "pitch": 72,
                "velocity": 32,
                "duration": 0.0795455,
                "tempo": 120.0
            },
            {
                "start_time": 27.3613636,
                "end_time": 27.4568182,
                "pitch": 69,
                "velocity": 64,
                "duration": 0.0954545,
                "tempo": 120.0
            },
            {
                "start_time": 27.4568182,
                "end_time": 27.5386364,
                "pitch": 69,
                "velocity": 32,
                "duration": 0.0818182,
                "tempo": 120.0
            },
            {
                "start_time": 27.5386364,
                "end_time": 27.6204545,
                "pitch": 72,
                "velocity": 64,
                "duration": 0.0818182,
                "tempo": 120.0
            },
            {
                "start_time": 27.6204545,
                "end_time": 27.7181818,
                "pitch": 72,
                "velocity": 32,
                "duration": 0.0977273,
                "tempo": 120.0
            },
            {
                "start_time": 27.7181818,
                "end_time": 27.8,
                "pitch": 69,
                "velocity": 64,
                "duration": 0.0818182,
                "tempo": 120.0
            },
            {
                "start_time": 27.8,
                "end_time": 27.8863636,
                "pitch": 69,
                "velocity": 32,
                "duration": 0.0863636,
                "tempo": 120.0
            },
            {
                "start_time": 27.8863636,
                "end_time": 27.9886364,
                "pitch": 72,
                "velocity": 64,
                "duration": 0.1022727,
                "tempo": 120.0
            },
            {
                "start_time": 27.9886364,
                "end_time": 28.075,
                "pitch": 72,
                "velocity": 32,
                "duration": 0.0863636,
                "tempo": 120.0
            },
            {
                "start_time": 28.075,
                "end_time": 28.1295455,
                "pitch": 65,
                "velocity": 64,
                "duration": 0.0545455,
                "tempo": 120.0
            },
            {
                "start_time": 28.1295455,
                "end_time": 28.1590909,
                "pitch": 65,
                "velocity": 32,
                "duration": 0.0295455,
                "tempo": 120.0
            },
            {
                "start_time": 28.1590909,
                "end_time": 28.225,
                "pitch": 65,
                "velocity": 64,
                "duration": 0.0659091,
                "tempo": 120.0
            },
            {
                "start_time": 28.2272727,
                "end_time": 28.2568182,
                "pitch": 65,
                "velocity": 32,
                "duration": 0.0295455,
                "tempo": 120.0
            },
            {
                "start_time": 28.2568182,
                "end_time": 28.3386364,
                "pitch": 65,
                "velocity": 64,
                "duration": 0.0818182,
                "tempo": 120.0
            },
            {
                "start_time": 28.3386364,
                "end_time": 28.4363636,
                "pitch": 65,
                "velocity": 32,
                "duration": 0.0977273,
                "tempo": 120.0
            },
            {
                "start_time": 28.4363636,
                "end_time": 28.5181818,
                "pitch": 65,
                "velocity": 64,
                "duration": 0.0818182,
                "tempo": 120.0
            },
            {
                "start_time": 28.5181818,
                "end_time": 28.6022727,
                "pitch": 65,
                "velocity": 32,
                "duration": 0.0840909,
                "tempo": 120.0
            },
            {
                "start_time": 28.6022727,
                "end_time": 28.7022727,
                "pitch": 65,
                "velocity": 51,
                "duration": 0.1,
                "tempo": 120.0
            },
            {
                "start_time": 28.7022727,
                "end_time": 28.7363636,
                "pitch": 67,
                "velocity": 51,
                "duration": 0.0340909,
                "tempo": 120.0
            },
            {
                "start_time": 21.2636364,
                "end_time": 28.7363636,
                "pitch": 79,
                "velocity": 51,
                "duration": 7.4727273,
                "tempo": 120.0
            },
            {
                "start_time": 28.7363636,
                "end_time": 28.7863636,
                "pitch": 67,
                "velocity": 51,
                "duration": 0.05,
                "tempo": 120.0
            },
            {
                "start_time": 28.7863636,
                "end_time": 28.9659091,
                "pitch": 69,
                "velocity": 51,
                "duration": 0.1795455,
                "tempo": 120.0
            },
            {
                "start_time": 20.1136364,
                "end_time": 28.9659091,
                "pitch": 76,
                "velocity": 64,
                "duration": 8.8522727,
                "tempo": 120.0
            },
            {
                "start_time": 18.3681818,
                "end_time": 29.0477273,
                "pitch": 51,
                "velocity": 51,
                "duration": 10.6795455,
                "tempo": 120.0
            },
            {
                "start_time": 28.9659091,
                "end_time": 29.0477273,
                "pitch": 72,
                "velocity": 51,
                "duration": 0.0818182,
                "tempo": 120.0
            },
            {
                "start_time": 29.0477273,
                "end_time": 29.2295455,
                "pitch": 70,
                "velocity": 51,
                "duration": 0.1818182,
                "tempo": 120.0
            },
            {
                "start_time": 29.2295455,
                "end_time": 29.2636364,
                "pitch": 67,
                "velocity": 51,
                "duration": 0.0340909,
                "tempo": 120.0
            },
            {
                "start_time": 28.7363636,
                "end_time": 29.2636364,
                "pitch": 79,
                "velocity": 51,
                "duration": 0.5272727,
                "tempo": 120.0
            },
            {
                "start_time": 29.2636364,
                "end_time": 29.3136364,
                "pitch": 67,
                "velocity": 51,
                "duration": 0.05,
                "tempo": 120.0
            },
            {
                "start_time": 29.3136364,
                "end_time": 29.4522727,
                "pitch": 69,
                "velocity": 51,
                "duration": 0.1386364,
                "tempo": 120.0
            },
            {
                "start_time": 29.2636364,
                "end_time": 29.4522727,
                "pitch": 79,
                "velocity": 51,
                "duration": 0.1886364,
                "tempo": 120.0
            },
            {
                "start_time": 29.4522727,
                "end_time": 29.5022727,
                "pitch": 67,
                "velocity": 51,
                "duration": 0.05,
                "tempo": 120.0
            },
            {
                "start_time": 21.3136364,
                "end_time": 29.5022727,
                "pitch": 78,
                "velocity": 51,
                "duration": 8.1886364,
                "tempo": 120.0
            },
            {
                "start_time": 0.0795455,
                "end_time": 29.5863636,
                "pitch": 31,
                "velocity": 64,
                "duration": 29.5068182,
                "tempo": 120.0
            },
            {
                "start_time": 29.5022727,
                "end_time": 29.5863636,
                "pitch": 65,
                "velocity": 51,
                "duration": 0.0840909,
                "tempo": 120.0
            },
            {
                "start_time": 29.5863636,
                "end_time": 29.7659091,
                "pitch": 69,
                "velocity": 51,
                "duration": 0.1795455,
                "tempo": 120.0
            },
            {
                "start_time": 29.5022727,
                "end_time": 29.7659091,
                "pitch": 78,
                "velocity": 51,
                "duration": 0.2636364,
                "tempo": 120.0
            },
            {
                "start_time": 29.7659091,
                "end_time": 29.8477273,
                "pitch": 65,
                "velocity": 51,
                "duration": 0.0818182,
                "tempo": 120.0
            },
            {
                "start_time": 29.8477273,
                "end_time": 29.9772727,
                "pitch": 62,
                "velocity": 51,
                "duration": 0.1295455,
                "tempo": 120.0
            },
            {
                "start_time": 29.5863636,
                "end_time": 30.0272727,
                "pitch": 31,
                "velocity": 51,
                "duration": 0.4409091,
                "tempo": 120.0
            },
            {
                "start_time": 29.9772727,
                "end_time": 30.0272727,
                "pitch": 60,
                "velocity": 51,
                "duration": 0.05,
                "tempo": 120.0
            },
            {
                "start_time": 30.0272727,
                "end_time": 30.1409091,
                "pitch": 69,
                "velocity": 51,
                "duration": 0.1136364,
                "tempo": 120.0
            },
            {
                "start_time": 29.4522727,
                "end_time": 30.1409091,
                "pitch": 79,
                "velocity": 51,
                "duration": 0.6886364,
                "tempo": 120.0
            },
            {
                "start_time": 30.1409091,
                "end_time": 30.2045455,
                "pitch": 67,
                "velocity": 51,
                "duration": 0.0636364,
                "tempo": 120.0
            },
            {
                "start_time": 29.7659091,
                "end_time": 30.2045455,
                "pitch": 78,
                "velocity": 51,
                "duration": 0.4386364,
                "tempo": 120.0
            },
            {
                "start_time": 30.0272727,
                "end_time": 30.2886364,
                "pitch": 31,
                "velocity": 51,
                "duration": 0.2613636,
                "tempo": 120.0
            },
            {
                "start_time": 30.2045455,
                "end_time": 30.2886364,
                "pitch": 65,
                "velocity": 51,
                "duration": 0.0840909,
                "tempo": 120.0
            },
            {
                "start_time": 30.2886364,
                "end_time": 30.4772727,
                "pitch": 69,
                "velocity": 51,
                "duration": 0.1886364,
                "tempo": 120.0
            },
            {
                "start_time": 30.2045455,
                "end_time": 30.4772727,
                "pitch": 78,
                "velocity": 51,
                "duration": 0.2727273,
                "tempo": 120.0
            },
            {
                "start_time": 30.4772727,
                "end_time": 30.5636364,
                "pitch": 65,
                "velocity": 51,
                "duration": 0.0863636,
                "tempo": 120.0
            },
            {
                "start_time": 30.5636364,
                "end_time": 30.6954545,
                "pitch": 62,
                "velocity": 51,
                "duration": 0.1318182,
                "tempo": 120.0
            },
            {
                "start_time": 30.6954545,
                "end_time": 30.7454545,
                "pitch": 60,
                "velocity": 51,
                "duration": 0.05,
                "tempo": 120.0
            },
            {
                "start_time": 30.7454545,
                "end_time": 31.0909091,
                "pitch": 61,
                "velocity": 64,
                "duration": 0.3454545,
                "tempo": 120.0
            },
            {
                "start_time": 31.0931818,
                "end_time": 31.1954545,
                "pitch": 60,
                "velocity": 64,
                "duration": 0.1022727,
                "tempo": 120.0
            },
            {
                "start_time": 31.1954545,
                "end_time": 31.2795455,
                "pitch": 60,
                "velocity": 32,
                "duration": 0.0840909,
                "tempo": 120.0
            },
            {
                "start_time": 31.2818182,
                "end_time": 31.3659091,
                "pitch": 60,
                "velocity": 64,
                "duration": 0.0840909,
                "tempo": 120.0
            },
            {
                "start_time": 31.3659091,
                "end_time": 31.4613636,
                "pitch": 60,
                "velocity": 32,
                "duration": 0.0954545,
                "tempo": 120.0
            },
            {
                "start_time": 31.4636364,
                "end_time": 31.8068182,
                "pitch": 61,
                "velocity": 64,
                "duration": 0.3431818,
                "tempo": 120.0
            },
            {
                "start_time": 31.8090909,
                "end_time": 31.8909091,
                "pitch": 60,
                "velocity": 64,
                "duration": 0.0818182,
                "tempo": 120.0
            },
            {
                "start_time": 31.8909091,
                "end_time": 31.9909091,
                "pitch": 60,
                "velocity": 32,
                "duration": 0.1,
                "tempo": 120.0
            },
            {
                "start_time": 31.9931818,
                "end_time": 32.075,
                "pitch": 60,
                "velocity": 64,
                "duration": 0.0818182,
                "tempo": 120.0
            },
            {
                "start_time": 32.075,
                "end_time": 32.1727273,
                "pitch": 60,
                "velocity": 32,
                "duration": 0.0977273,
                "tempo": 120.0
            },
            {
                "start_time": 32.1727273,
                "end_time": 32.5136364,
                "pitch": 61,
                "velocity": 64,
                "duration": 0.3409091,
                "tempo": 120.0
            },
            {
                "start_time": 32.5136364,
                "end_time": 32.5954545,
                "pitch": 60,
                "velocity": 64,
                "duration": 0.0818182,
                "tempo": 120.0
            },
            {
                "start_time": 32.5954545,
                "end_time": 32.6931818,
                "pitch": 60,
                "velocity": 32,
                "duration": 0.0977273,
                "tempo": 120.0
            },
            {
                "start_time": 32.6931818,
                "end_time": 32.775,
                "pitch": 60,
                "velocity": 64,
                "duration": 0.0818182,
                "tempo": 120.0
            },
            {
                "start_time": 32.775,
                "end_time": 32.8613636,
                "pitch": 60,
                "velocity": 32,
                "duration": 0.0863636,
                "tempo": 120.0
            },
            {
                "start_time": 32.8613636,
                "end_time": 32.9636364,
                "pitch": 53,
                "velocity": 64,
                "duration": 0.1022727,
                "tempo": 120.0
            },
            {
                "start_time": 32.9659091,
                "end_time": 33.05,
                "pitch": 53,
                "velocity": 32,
                "duration": 0.0840909,
                "tempo": 120.0
            },
            {
                "start_time": 17.9204545,
                "end_time": 33.3136364,
                "pitch": 0,
                "velocity": 51,
                "duration": 15.3931818,
                "tempo": 120.0
            },
            {
                "start_time": 33.2318182,
                "end_time": 33.3136364,
                "pitch": 53,
                "velocity": 51,
                "duration": 0.0818182,
                "tempo": 120.0
            },
            {
                "start_time": 17.9204545,
                "end_time": 33.3454545,
                "pitch": 55,
                "velocity": 51,
                "duration": 15.425,
                "tempo": 120.0
            },
            {
                "start_time": 33.3136364,
                "end_time": 33.3454545,
                "pitch": 55,
                "velocity": 51,
                "duration": 0.0318182,
                "tempo": 120.0
            },
            {
                "start_time": 33.3136364,
                "end_time": 33.4113636,
                "pitch": 0,
                "velocity": 51,
                "duration": 0.0977273,
                "tempo": 120.0
            },
            {
                "start_time": 33.3454545,
                "end_time": 33.4113636,
                "pitch": 55,
                "velocity": 51,
                "duration": 0.0659091,
                "tempo": 120.0
            },
            {
                "start_time": 33.4113636,
                "end_time": 33.4272727,
                "pitch": 55,
                "velocity": 51,
                "duration": 0.0159091,
                "tempo": 120.0
            },
            {
                "start_time": 33.4272727,
                "end_time": 33.5795455,
                "pitch": 57,
                "velocity": 51,
                "duration": 0.1522727,
                "tempo": 120.0
            },
            {
                "start_time": 33.5795455,
                "end_time": 33.6818182,
                "pitch": 72,
                "velocity": 64,
                "duration": 0.1022727,
                "tempo": 120.0
            },
            {
                "start_time": 33.6818182,
                "end_time": 33.7681818,
                "pitch": 72,
                "velocity": 32,
                "duration": 0.0863636,
                "tempo": 120.0
            },
            {
                "start_time": 34.2977273,
                "end_time": 34.3840909,
                "pitch": 70,
                "velocity": 64,
                "duration": 0.0863636,
                "tempo": 120.0
            },
            {
                "start_time": 34.3840909,
                "end_time": 34.4863636,
                "pitch": 70,
                "velocity": 32,
                "duration": 0.1022727,
                "tempo": 120.0
            },
            {
                "start_time": 34.8318182,
                "end_time": 34.9272727,
                "pitch": 69,
                "velocity": 64,
                "duration": 0.0954545,
                "tempo": 120.0
            },
            {
                "start_time": 34.9295455,
                "end_time": 35.0090909,
                "pitch": 69,
                "velocity": 32,
                "duration": 0.0795455,
                "tempo": 120.0
            },
            {
                "start_time": 33.3454545,
                "end_time": 35.0909091,
                "pitch": 67,
                "velocity": 51,
                "duration": 1.7454545,
                "tempo": 120.0
            },
            {
                "start_time": 35.0090909,
                "end_time": 35.0909091,
                "pitch": 67,
                "velocity": 64,
                "duration": 0.0818182,
                "tempo": 120.0
            },
            {
                "start_time": 35.0909091,
                "end_time": 35.1886364,
                "pitch": 67,
                "velocity": 32,
                "duration": 0.0977273,
                "tempo": 120.0
            },
            {
                "start_time": 35.1886364,
                "end_time": 35.2704545,
                "pitch": 65,
                "velocity": 64,
                "duration": 0.0818182,
                "tempo": 120.0
            },
            {
                "start_time": 35.2704545,
                "end_time": 35.3545455,
                "pitch": 65,
                "velocity": 32,
                "duration": 0.0840909,
                "tempo": 120.0
            },
            {
                "start_time": 35.3545455,
                "end_time": 35.4545455,
                "pitch": 67,
                "velocity": 64,
                "duration": 0.1,
                "tempo": 120.0
            },
            {
                "start_time": 35.4545455,
                "end_time": 35.5386364,
                "pitch": 67,
                "velocity": 32,
                "duration": 0.0840909,
                "tempo": 120.0
            },
            {
                "start_time": 35.5386364,
                "end_time": 35.6204545,
                "pitch": 69,
                "velocity": 64,
                "duration": 0.0818182,
                "tempo": 120.0
            },
            {
                "start_time": 35.6227273,
                "end_time": 35.7181818,
                "pitch": 69,
                "velocity": 32,
                "duration": 0.0954545,
                "tempo": 120.0
            },
            {
                "start_time": 35.7204545,
                "end_time": 35.8,
                "pitch": 72,
                "velocity": 64,
                "duration": 0.0795455,
                "tempo": 120.0
            },
            {
                "start_time": 35.8,
                "end_time": 35.8977273,
                "pitch": 72,
                "velocity": 32,
                "duration": 0.0977273,
                "tempo": 120.0
            },
            {
                "start_time": 35.8977273,
                "end_time": 35.95,
                "pitch": 72,
                "velocity": 64,
                "duration": 0.0522727,
                "tempo": 120.0
            },
            {
                "start_time": 35.95,
                "end_time": 35.9818182,
                "pitch": 72,
                "velocity": 32,
                "duration": 0.0318182,
                "tempo": 120.0
            },
            {
                "start_time": 35.9818182,
                "end_time": 36.0340909,
                "pitch": 72,
                "velocity": 64,
                "duration": 0.0522727,
                "tempo": 120.0
            },
            {
                "start_time": 36.0340909,
                "end_time": 36.0659091,
                "pitch": 72,
                "velocity": 32,
                "duration": 0.0318182,
                "tempo": 120.0
            },
            {
                "start_time": 36.0681818,
                "end_time": 36.1704545,
                "pitch": 72,
                "velocity": 64,
                "duration": 0.1022727,
                "tempo": 120.0
            },
            {
                "start_time": 36.1704545,
                "end_time": 36.2545455,
                "pitch": 72,
                "velocity": 32,
                "duration": 0.0840909,
                "tempo": 120.0
            },
            {
                "start_time": 36.2568182,
                "end_time": 36.3386364,
                "pitch": 72,
                "velocity": 64,
                "duration": 0.0818182,
                "tempo": 120.0
            },
            {
                "start_time": 36.3409091,
                "end_time": 36.4363636,
                "pitch": 72,
                "velocity": 32,
                "duration": 0.0954545,
                "tempo": 120.0
            },
            {
                "start_time": 36.4386364,
                "end_time": 36.5181818,
                "pitch": 72,
                "velocity": 64,
                "duration": 0.0795455,
                "tempo": 120.0
            },
            {
                "start_time": 36.5181818,
                "end_time": 36.6,
                "pitch": 72,
                "velocity": 32,
                "duration": 0.0818182,
                "tempo": 120.0
            },
            {
                "start_time": 36.6,
                "end_time": 36.7,
                "pitch": 84,
                "velocity": 64,
                "duration": 0.1,
                "tempo": 120.0
            },
            {
                "start_time": 36.7,
                "end_time": 36.7840909,
                "pitch": 84,
                "velocity": 32,
                "duration": 0.0840909,
                "tempo": 120.0
            },
            {
                "start_time": 36.7863636,
                "end_time": 36.8704545,
                "pitch": 82,
                "velocity": 64,
                "duration": 0.0840909,
                "tempo": 120.0
            },
            {
                "start_time": 36.8704545,
                "end_time": 36.9727273,
                "pitch": 82,
                "velocity": 32,
                "duration": 0.1022727,
                "tempo": 120.0
            },
            {
                "start_time": 36.975,
                "end_time": 37.0568182,
                "pitch": 81,
                "velocity": 64,
                "duration": 0.0818182,
                "tempo": 120.0
            },
            {
                "start_time": 37.0590909,
                "end_time": 37.1545455,
                "pitch": 81,
                "velocity": 32,
                "duration": 0.0954545,
                "tempo": 120.0
            },
            {
                "start_time": 30.1409091,
                "end_time": 37.2363636,
                "pitch": 79,
                "velocity": 51,
                "duration": 7.0954545,
                "tempo": 120.0
            },
            {
                "start_time": 37.1545455,
                "end_time": 37.2363636,
                "pitch": 79,
                "velocity": 64,
                "duration": 0.0818182,
                "tempo": 120.0
            },
            {
                "start_time": 37.2363636,
                "end_time": 37.3181818,
                "pitch": 79,
                "velocity": 32,
                "duration": 0.0818182,
                "tempo": 120.0
            },
            {
                "start_time": 37.3181818,
                "end_time": 37.4159091,
                "pitch": 77,
                "velocity": 64,
                "duration": 0.0977273,
                "tempo": 120.0
            },
            {
                "start_time": 37.4159091,
                "end_time": 37.4977273,
                "pitch": 77,
                "velocity": 32,
                "duration": 0.0818182,
                "tempo": 120.0
            },
            {
                "start_time": 28.9659091,
                "end_time": 37.5772727,
                "pitch": 76,
                "velocity": 51,
                "duration": 8.6113636,
                "tempo": 120.0
            },
            {
                "start_time": 37.4977273,
                "end_time": 37.5772727,
                "pitch": 76,
                "velocity": 64,
                "duration": 0.0795455,
                "tempo": 120.0
            },
            {
                "start_time": 37.5795455,
                "end_time": 37.675,
                "pitch": 76,
                "velocity": 32,
                "duration": 0.0954545,
                "tempo": 120.0
            },
            {
                "start_time": 37.675,
                "end_time": 37.7590909,
                "pitch": 74,
                "velocity": 64,
                "duration": 0.0840909,
                "tempo": 120.0
            },
            {
                "start_time": 37.7590909,
                "end_time": 37.8454545,
                "pitch": 74,
                "velocity": 32,
                "duration": 0.0863636,
                "tempo": 120.0
            },
            {
                "start_time": 37.8454545,
                "end_time": 37.9477273,
                "pitch": 72,
                "velocity": 64,
                "duration": 0.1022727,
                "tempo": 120.0
            },
            {
                "start_time": 37.9477273,
                "end_time": 38.0340909,
                "pitch": 72,
                "velocity": 32,
                "duration": 0.0863636,
                "tempo": 120.0
            },
            {
                "start_time": 38.0340909,
                "end_time": 38.1181818,
                "pitch": 72,
                "velocity": 64,
                "duration": 0.0840909,
                "tempo": 120.0
            },
            {
                "start_time": 38.1181818,
                "end_time": 38.2159091,
                "pitch": 72,
                "velocity": 32,
                "duration": 0.0977273,
                "tempo": 120.0
            },
            {
                "start_time": 38.2159091,
                "end_time": 38.2954545,
                "pitch": 70,
                "velocity": 64,
                "duration": 0.0795455,
                "tempo": 120.0
            },
            {
                "start_time": 38.2977273,
                "end_time": 38.3931818,
                "pitch": 70,
                "velocity": 32,
                "duration": 0.0954545,
                "tempo": 120.0
            },
            {
                "start_time": 38.3931818,
                "end_time": 38.4772727,
                "pitch": 69,
                "velocity": 64,
                "duration": 0.0840909,
                "tempo": 120.0
            },
            {
                "start_time": 38.4772727,
                "end_time": 38.5613636,
                "pitch": 69,
                "velocity": 32,
                "duration": 0.0840909,
                "tempo": 120.0
            },
            {
                "start_time": 38.5636364,
                "end_time": 38.6659091,
                "pitch": 67,
                "velocity": 64,
                "duration": 0.1022727,
                "tempo": 120.0
            },
            {
                "start_time": 38.6659091,
                "end_time": 38.7522727,
                "pitch": 67,
                "velocity": 32,
                "duration": 0.0863636,
                "tempo": 120.0
            },
            {
                "start_time": 38.7522727,
                "end_time": 38.8363636,
                "pitch": 65,
                "velocity": 64,
                "duration": 0.0840909,
                "tempo": 120.0
            },
            {
                "start_time": 38.8363636,
                "end_time": 38.9340909,
                "pitch": 65,
                "velocity": 32,
                "duration": 0.0977273,
                "tempo": 120.0
            },
            {
                "start_time": 38.9340909,
                "end_time": 39.0136364,
                "pitch": 64,
                "velocity": 64,
                "duration": 0.0795455,
                "tempo": 120.0
            },
            {
                "start_time": 39.0159091,
                "end_time": 39.0954545,
                "pitch": 64,
                "velocity": 32,
                "duration": 0.0795455,
                "tempo": 120.0
            },
            {
                "start_time": 39.0954545,
                "end_time": 39.1954545,
                "pitch": 62,
                "velocity": 64,
                "duration": 0.1,
                "tempo": 120.0
            },
            {
                "start_time": 39.1954545,
                "end_time": 39.2772727,
                "pitch": 62,
                "velocity": 32,
                "duration": 0.0818182,
                "tempo": 120.0
            },
            {
                "start_time": 39.2795455,
                "end_time": 39.3613636,
                "pitch": 60,
                "velocity": 64,
                "duration": 0.0818182,
                "tempo": 120.0
            },
            {
                "start_time": 39.3636364,
                "end_time": 39.4613636,
                "pitch": 60,
                "velocity": 32,
                "duration": 0.0977273,
                "tempo": 120.0
            },
            {
                "start_time": 39.4636364,
                "end_time": 39.5454545,
                "pitch": 60,
                "velocity": 64,
                "duration": 0.0818182,
                "tempo": 120.0
            },
            {
                "start_time": 39.5454545,
                "end_time": 39.6431818,
                "pitch": 60,
                "velocity": 32,
                "duration": 0.0977273,
                "tempo": 120.0
            },
            {
                "start_time": 39.6431818,
                "end_time": 39.725,
                "pitch": 58,
                "velocity": 64,
                "duration": 0.0818182,
                "tempo": 120.0
            },
            {
                "start_time": 39.725,
                "end_time": 39.8045455,
                "pitch": 58,
                "velocity": 32,
                "duration": 0.0795455,
                "tempo": 120.0
            },
            {
                "start_time": 39.8068182,
                "end_time": 39.9045455,
                "pitch": 57,
                "velocity": 64,
                "duration": 0.0977273,
                "tempo": 120.0
            },
            {
                "start_time": 39.9045455,
                "end_time": 39.9886364,
                "pitch": 57,
                "velocity": 32,
                "duration": 0.0840909,
                "tempo": 120.0
            },
            {
                "start_time": 39.9886364,
                "end_time": 40.0727273,
                "pitch": 55,
                "velocity": 64,
                "duration": 0.0840909,
                "tempo": 120.0
            },
            {
                "start_time": 40.0727273,
                "end_time": 40.1727273,
                "pitch": 55,
                "velocity": 32,
                "duration": 0.1,
                "tempo": 120.0
            },
            {
                "start_time": 40.1727273,
                "end_time": 40.2568182,
                "pitch": 53,
                "velocity": 64,
                "duration": 0.0840909,
                "tempo": 120.0
            },
            {
                "start_time": 40.2568182,
                "end_time": 40.3386364,
                "pitch": 53,
                "velocity": 32,
                "duration": 0.0818182,
                "tempo": 120.0
            },
            {
                "start_time": 40.3409091,
                "end_time": 40.4409091,
                "pitch": 52,
                "velocity": 64,
                "duration": 0.1,
                "tempo": 120.0
            },
            {
                "start_time": 40.4409091,
                "end_time": 40.525,
                "pitch": 52,
                "velocity": 32,
                "duration": 0.0840909,
                "tempo": 120.0
            },
            {
                "start_time": 40.525,
                "end_time": 40.6068182,
                "pitch": 50,
                "velocity": 64,
                "duration": 0.0818182,
                "tempo": 120.0
            },
            {
                "start_time": 40.6068182,
                "end_time": 40.7045455,
                "pitch": 50,
                "velocity": 32,
                "duration": 0.0977273,
                "tempo": 120.0
            },
            {
                "start_time": 40.7045455,
                "end_time": 40.7522727,
                "pitch": 47,
                "velocity": 51,
                "duration": 0.0477273,
                "tempo": 120.0
            },
            {
                "start_time": 40.7522727,
                "end_time": 40.7545455,
                "pitch": 52,
                "velocity": 51,
                "duration": 0.0022727,
                "tempo": 120.0
            },
            {
                "start_time": 1.4909091,
                "end_time": 40.8022727,
                "pitch": 32,
                "velocity": 64,
                "duration": 39.3113636,
                "tempo": 120.0
            },
            {
                "start_time": 40.7545455,
                "end_time": 40.8022727,
                "pitch": 48,
                "velocity": 51,
                "duration": 0.0477273,
                "tempo": 120.0
            },
            {
                "start_time": 40.8022727,
                "end_time": 40.85,
                "pitch": 47,
                "velocity": 51,
                "duration": 0.0477273,
                "tempo": 120.0
            },
            {
                "start_time": 40.8022727,
                "end_time": 40.9159091,
                "pitch": 32,
                "velocity": 51,
                "duration": 0.1136364,
                "tempo": 120.0
            },
            {
                "start_time": 40.85,
                "end_time": 40.9159091,
                "pitch": 48,
                "velocity": 51,
                "duration": 0.0659091,
                "tempo": 120.0
            },
            {
                "start_time": 40.9159091,
                "end_time": 40.9659091,
                "pitch": 47,
                "velocity": 51,
                "duration": 0.05,
                "tempo": 120.0
            },
            {
                "start_time": 40.85,
                "end_time": 40.9659091,
                "pitch": 52,
                "velocity": 51,
                "duration": 0.1159091,
                "tempo": 120.0
            },
            {
                "start_time": 40.9159091,
                "end_time": 41.0181818,
                "pitch": 32,
                "velocity": 51,
                "duration": 0.1022727,
                "tempo": 120.0
            },
            {
                "start_time": 40.9659091,
                "end_time": 41.0181818,
                "pitch": 48,
                "velocity": 51,
                "duration": 0.0522727,
                "tempo": 120.0
            },
            {
                "start_time": 41.0181818,
                "end_time": 41.0681818,
                "pitch": 47,
                "velocity": 51,
                "duration": 0.05,
                "tempo": 120.0
            },
            {
                "start_time": 40.9659091,
                "end_time": 41.0681818,
                "pitch": 52,
                "velocity": 51,
                "duration": 0.1022727,
                "tempo": 120.0
            },
            {
                "start_time": 41.0181818,
                "end_time": 41.1386364,
                "pitch": 32,
                "velocity": 51,
                "duration": 0.1204545,
                "tempo": 120.0
            },
            {
                "start_time": 41.0681818,
                "end_time": 41.1386364,
                "pitch": 48,
                "velocity": 51,
                "duration": 0.0704545,
                "tempo": 120.0
            },
            {
                "start_time": 41.1386364,
                "end_time": 41.1886364,
                "pitch": 47,
                "velocity": 51,
                "duration": 0.05,
                "tempo": 120.0
            },
            {
                "start_time": 41.0681818,
                "end_time": 41.1886364,
                "pitch": 52,
                "velocity": 51,
                "duration": 0.1204545,
                "tempo": 120.0
            },
            {
                "start_time": 41.1386364,
                "end_time": 41.2409091,
                "pitch": 32,
                "velocity": 51,
                "duration": 0.1022727,
                "tempo": 120.0
            },
            {
                "start_time": 41.1886364,
                "end_time": 41.2409091,
                "pitch": 48,
                "velocity": 51,
                "duration": 0.0522727,
                "tempo": 120.0
            },
            {
                "start_time": 41.2409091,
                "end_time": 41.2954545,
                "pitch": 47,
                "velocity": 51,
                "duration": 0.0545455,
                "tempo": 120.0
            },
            {
                "start_time": 41.1886364,
                "end_time": 41.2954545,
                "pitch": 52,
                "velocity": 51,
                "duration": 0.1068182,
                "tempo": 120.0
            },
            {
                "start_time": 41.2409091,
                "end_time": 41.3409091,
                "pitch": 32,
                "velocity": 51,
                "duration": 0.1,
                "tempo": 120.0
            },
            {
                "start_time": 41.2954545,
                "end_time": 41.3409091,
                "pitch": 48,
                "velocity": 51,
                "duration": 0.0454545,
                "tempo": 120.0
            },
            {
                "start_time": 41.3409091,
                "end_time": 41.4227273,
                "pitch": 47,
                "velocity": 51,
                "duration": 0.0818182,
                "tempo": 120.0
            },
            {
                "start_time": 41.4227273,
                "end_time": 42.1409091,
                "pitch": 48,
                "velocity": 51,
                "duration": 0.7181818,
                "tempo": 120.0
            },
            {
                "start_time": 42.1409091,
                "end_time": 42.8295455,
                "pitch": 49,
                "velocity": 51,
                "duration": 0.6886364,
                "tempo": 120.0
            },
            {
                "start_time": 29.0477273,
                "end_time": 43.5454545,
                "pitch": 51,
                "velocity": 51,
                "duration": 14.4977273,
                "tempo": 120.0
            },
            {
                "start_time": 42.8295455,
                "end_time": 43.5454545,
                "pitch": 51,
                "velocity": 51,
                "duration": 0.7159091,
                "tempo": 120.0
            },
            {
                "start_time": 43.5454545,
                "end_time": 43.6454545,
                "pitch": 65,
                "velocity": 64,
                "duration": 0.1,
                "tempo": 120.0
            },
            {
                "start_time": 43.6454545,
                "end_time": 43.7295455,
                "pitch": 65,
                "velocity": 32,
                "duration": 0.0840909,
                "tempo": 120.0
            },
            {
                "start_time": 43.7818182,
                "end_time": 43.8954545,
                "pitch": 60,
                "velocity": 101,
                "duration": 0.1136364,
                "tempo": 120.0
            },
            {
                "start_time": 43.8954545,
                "end_time": 44.0090909,
                "pitch": 65,
                "velocity": 101,
                "duration": 0.1136364,
                "tempo": 120.0
            },
            {
                "start_time": 44.0090909,
                "end_time": 44.1386364,
                "pitch": 69,
                "velocity": 101,
                "duration": 0.1295455,
                "tempo": 120.0
            },
            {
                "start_time": 44.1409091,
                "end_time": 44.225,
                "pitch": 72,
                "velocity": 101,
                "duration": 0.0840909,
                "tempo": 120.0
            },
            {
                "start_time": 44.225,
                "end_time": 44.3090909,
                "pitch": 72,
                "velocity": 40,
                "duration": 0.0840909,
                "tempo": 120.0
            },
            {
                "start_time": 44.4136364,
                "end_time": 44.5,
                "pitch": 69,
                "velocity": 101,
                "duration": 0.0863636,
                "tempo": 120.0
            },
            {
                "start_time": 44.5,
                "end_time": 44.8409091,
                "pitch": 72,
                "velocity": 101,
                "duration": 0.3409091,
                "tempo": 120.0
            },
            {
                "start_time": 44.9727273,
                "end_time": 45.0568182,
                "pitch": 48,
                "velocity": 64,
                "duration": 0.0840909,
                "tempo": 120.0
            },
            {
                "start_time": 45.0568182,
                "end_time": 45.1568182,
                "pitch": 48,
                "velocity": 32,
                "duration": 0.1,
                "tempo": 120.0
            },
            {
                "start_time": 45.2409091,
                "end_time": 45.2886364,
                "pitch": 60,
                "velocity": 51,
                "duration": 0.0477273,
                "tempo": 120.0
            },
            {
                "start_time": 45.2886364,
                "end_time": 45.3386364,
                "pitch": 62,
                "velocity": 51,
                "duration": 0.05,
                "tempo": 120.0
            },
            {
                "start_time": 45.3386364,
                "end_time": 45.4181818,
                "pitch": 65,
                "velocity": 51,
                "duration": 0.0795455,
                "tempo": 120.0
            },
            {
                "start_time": 45.4204545,
                "end_time": 45.5659091,
                "pitch": 65,
                "velocity": 32,
                "duration": 0.1454545,
                "tempo": 120.0
            },
            {
                "start_time": 45.5659091,
                "end_time": 45.6159091,
                "pitch": 84,
                "velocity": 32,
                "duration": 0.05,
                "tempo": 120.0
            },
            {
                "start_time": 45.6159091,
                "end_time": 45.65,
                "pitch": 86,
                "velocity": 32,
                "duration": 0.0340909,
                "tempo": 120.0
            },
            {
                "start_time": 45.65,
                "end_time": 45.6818182,
                "pitch": 88,
                "velocity": 32,
                "duration": 0.0318182,
                "tempo": 120.0
            },
            {
                "start_time": 45.6840909,
                "end_time": 46.2727273,
                "pitch": 89,
                "velocity": 32,
                "duration": 0.5886364,
                "tempo": 120.0
            },
            {
                "start_time": 30.2886364,
                "end_time": 46.3204545,
                "pitch": 31,
                "velocity": 51,
                "duration": 16.0318182,
                "tempo": 120.0
            },
            {
                "start_time": 46.275,
                "end_time": 46.3204545,
                "pitch": 65,
                "velocity": 64,
                "duration": 0.0454545,
                "tempo": 120.0
            },
            {
                "start_time": 46.3204545,
                "end_time": 47.6909091,
                "pitch": 69,
                "velocity": 64,
                "duration": 1.3704545,
                "tempo": 120.0
            },
            {
                "start_time": 41.3409091,
                "end_time": 47.7409091,
                "pitch": 32,
                "velocity": 51,
                "duration": 6.4,
                "tempo": 120.0
            },
            {
                "start_time": 47.6909091,
                "end_time": 47.7409091,
                "pitch": 65,
                "velocity": 64,
                "duration": 0.05,
                "tempo": 120.0
            },
            {
                "start_time": 47.7409091,
                "end_time": 47.9977273,
                "pitch": 69,
                "velocity": 64,
                "duration": 0.2568182,
                "tempo": 120.0
            },
            {
                "start_time": 47.9977273,
                "end_time": 48.0159091,
                "pitch": 67,
                "velocity": 64,
                "duration": 0.0181818,
                "tempo": 120.0
            },
            {
                "start_time": 30.4772727,
                "end_time": 48.0159091,
                "pitch": 78,
                "velocity": 51,
                "duration": 17.5386364,
                "tempo": 120.0
            },
            {
                "start_time": 48.0159091,
                "end_time": 48.375,
                "pitch": 66,
                "velocity": 64,
                "duration": 0.3590909,
                "tempo": 120.0
            },
            {
                "start_time": 48.375,
                "end_time": 48.5795455,
                "pitch": 68,
                "velocity": 64,
                "duration": 0.2045455,
                "tempo": 120.0
            },
            {
                "start_time": 48.9022727,
                "end_time": 48.9840909,
                "pitch": 65,
                "velocity": 51,
                "duration": 0.0818182,
                "tempo": 120.0
            },
            {
                "start_time": 48.9840909,
                "end_time": 49.0181818,
                "pitch": 67,
                "velocity": 51,
                "duration": 0.0340909,
                "tempo": 120.0
            },
            {
                "start_time": 49.0181818,
                "end_time": 49.0681818,
                "pitch": 67,
                "velocity": 51,
                "duration": 0.05,
                "tempo": 120.0
            },
            {
                "start_time": 49.0681818,
                "end_time": 49.25,
                "pitch": 69,
                "velocity": 51,
                "duration": 0.1818182,
                "tempo": 120.0
            },
            {
                "start_time": 49.25,
                "end_time": 49.3,
                "pitch": 71,
                "velocity": 64,
                "duration": 0.05,
                "tempo": 120.0
            },
            {
                "start_time": 49.3,
                "end_time": 49.3318182,
                "pitch": 72,
                "velocity": 64,
                "duration": 0.0318182,
                "tempo": 120.0
            },
            {
                "start_time": 49.3318182,
                "end_time": 49.4272727,
                "pitch": 72,
                "velocity": 32,
                "duration": 0.0954545,
                "tempo": 120.0
            },
            {
                "start_time": 49.4295455,
                "end_time": 49.5113636,
                "pitch": 69,
                "velocity": 51,
                "duration": 0.0818182,
                "tempo": 120.0
            },
            {
                "start_time": 49.5113636,
                "end_time": 49.6113636,
                "pitch": 69,
                "velocity": 32,
                "duration": 0.1,
                "tempo": 120.0
            },
            {
                "start_time": 49.6113636,
                "end_time": 49.6954545,
                "pitch": 69,
                "velocity": 64,
                "duration": 0.0840909,
                "tempo": 120.0
            },
            {
                "start_time": 49.6954545,
                "end_time": 49.7795455,
                "pitch": 70,
                "velocity": 32,
                "duration": 0.0840909,
                "tempo": 120.0
            },
            {
                "start_time": 49.7795455,
                "end_time": 49.8772727,
                "pitch": 67,
                "velocity": 64,
                "duration": 0.0977273,
                "tempo": 120.0
            },
            {
                "start_time": 49.8772727,
                "end_time": 49.9590909,
                "pitch": 67,
                "velocity": 32,
                "duration": 0.0818182,
                "tempo": 120.0
            },
            {
                "start_time": 49.9590909,
                "end_time": 50.0409091,
                "pitch": 68,
                "velocity": 64,
                "duration": 0.0818182,
                "tempo": 120.0
            },
            {
                "start_time": 50.0409091,
                "end_time": 50.1386364,
                "pitch": 69,
                "velocity": 32,
                "duration": 0.0977273,
                "tempo": 120.0
            },
            {
                "start_time": 50.1386364,
                "end_time": 50.2204545,
                "pitch": 65,
                "velocity": 51,
                "duration": 0.0818182,
                "tempo": 120.0
            },
            {
                "start_time": 50.2204545,
                "end_time": 50.3045455,
                "pitch": 65,
                "velocity": 32,
                "duration": 0.0840909,
                "tempo": 120.0
            },
            {
                "start_time": 50.3045455,
                "end_time": 50.4045455,
                "pitch": 65,
                "velocity": 51,
                "duration": 0.1,
                "tempo": 120.0
            },
            {
                "start_time": 50.4045455,
                "end_time": 50.4386364,
                "pitch": 67,
                "velocity": 51,
                "duration": 0.0340909,
                "tempo": 120.0
            },
            {
                "start_time": 49.0181818,
                "end_time": 50.4386364,
                "pitch": 79,
                "velocity": 51,
                "duration": 1.4204545,
                "tempo": 120.0
            },
            {
                "start_time": 50.4386364,
                "end_time": 50.4886364,
                "pitch": 67,
                "velocity": 51,
                "duration": 0.05,
                "tempo": 120.0
            },
            {
                "start_time": 48.0159091,
                "end_time": 50.4886364,
                "pitch": 78,
                "velocity": 64,
                "duration": 2.4727273,
                "tempo": 120.0
            },
            {
                "start_time": 50.4886364,
                "end_time": 50.6681818,
                "pitch": 65,
                "velocity": 51,
                "duration": 0.1795455,
                "tempo": 120.0
            },
            {
                "start_time": 50.6681818,
                "end_time": 50.75,
                "pitch": 64,
                "velocity": 64,
                "duration": 0.0818182,
                "tempo": 120.0
            },
            {
                "start_time": 50.75,
                "end_time": 50.8477273,
                "pitch": 65,
                "velocity": 32,
                "duration": 0.0977273,
                "tempo": 120.0
            },
            {
                "start_time": 50.8477273,
                "end_time": 50.9295455,
                "pitch": 60,
                "velocity": 51,
                "duration": 0.0818182,
                "tempo": 120.0
            },
            {
                "start_time": 50.9318182,
                "end_time": 51.0159091,
                "pitch": 60,
                "velocity": 32,
                "duration": 0.0840909,
                "tempo": 120.0
            },
            {
                "start_time": 17.6522727,
                "end_time": 51.8204545,
                "pitch": 39,
                "velocity": 51,
                "duration": 34.1681818,
                "tempo": 120.0
            },
            {
                "start_time": 51.0159091,
                "end_time": 51.8204545,
                "pitch": 60,
                "velocity": 51,
                "duration": 0.8045455,
                "tempo": 120.0
            },
            {
                "start_time": 51.8204545,
                "end_time": 52.0068182,
                "pitch": 58,
                "velocity": 51,
                "duration": 0.1863636,
                "tempo": 120.0
            },
            {
                "start_time": 52.0068182,
                "end_time": 52.0386364,
                "pitch": 55,
                "velocity": 51,
                "duration": 0.0318182,
                "tempo": 120.0
            },
            {
                "start_time": 33.4113636,
                "end_time": 52.1045455,
                "pitch": 0,
                "velocity": 51,
                "duration": 18.6931818,
                "tempo": 120.0
            },
            {
                "start_time": 52.0386364,
                "end_time": 52.1045455,
                "pitch": 55,
                "velocity": 51,
                "duration": 0.0659091,
                "tempo": 120.0
            },
            {
                "start_time": 52.1045455,
                "end_time": 52.1863636,
                "pitch": 0,
                "velocity": 51,
                "duration": 0.0818182,
                "tempo": 120.0
            },
            {
                "start_time": 52.1045455,
                "end_time": 52.1863636,
                "pitch": 53,
                "velocity": 51,
                "duration": 0.0818182,
                "tempo": 120.0
            },
            {
                "start_time": 52.1045455,
                "end_time": 52.2181818,
                "pitch": 55,
                "velocity": 51,
                "duration": 0.1136364,
                "tempo": 120.0
            },
            {
                "start_time": 52.1863636,
                "end_time": 52.2181818,
                "pitch": 55,
                "velocity": 51,
                "duration": 0.0318182,
                "tempo": 120.0
            },
            {
                "start_time": 52.0386364,
                "end_time": 52.2181818,
                "pitch": 67,
                "velocity": 51,
                "duration": 0.1795455,
                "tempo": 120.0
            },
            {
                "start_time": 52.1863636,
                "end_time": 52.2681818,
                "pitch": 0,
                "velocity": 51,
                "duration": 0.0818182,
                "tempo": 120.0
            },
            {
                "start_time": 52.2181818,
                "end_time": 52.2681818,
                "pitch": 55,
                "velocity": 51,
                "duration": 0.05,
                "tempo": 120.0
            },
            {
                "start_time": 52.2681818,
                "end_time": 52.2840909,
                "pitch": 55,
                "velocity": 51,
                "duration": 0.0159091,
                "tempo": 120.0
            },
            {
                "start_time": 52.2840909,
                "end_time": 52.4454545,
                "pitch": 57,
                "velocity": 51,
                "duration": 0.1613636,
                "tempo": 120.0
            },
            {
                "start_time": 51.8204545,
                "end_time": 52.5272727,
                "pitch": 39,
                "velocity": 51,
                "duration": 0.7068182,
                "tempo": 120.0
            },
            {
                "start_time": 52.4454545,
                "end_time": 52.5272727,
                "pitch": 60,
                "velocity": 51,
                "duration": 0.0818182,
                "tempo": 120.0
            },
            {
                "start_time": 52.5272727,
                "end_time": 52.7090909,
                "pitch": 58,
                "velocity": 51,
                "duration": 0.1818182,
                "tempo": 120.0
            },
            {
                "start_time": 52.7090909,
                "end_time": 52.7431818,
                "pitch": 55,
                "velocity": 51,
                "duration": 0.0340909,
                "tempo": 120.0
            },
            {
                "start_time": 52.2181818,
                "end_time": 52.7431818,
                "pitch": 67,
                "velocity": 51,
                "duration": 0.525,
                "tempo": 120.0
            },
            {
                "start_time": 52.2681818,
                "end_time": 52.7931818,
                "pitch": 0,
                "velocity": 51,
                "duration": 0.525,
                "tempo": 120.0
            },
            {
                "start_time": 52.7431818,
                "end_time": 52.7931818,
                "pitch": 55,
                "velocity": 51,
                "duration": 0.05,
                "tempo": 120.0
            },
            {
                "start_time": 52.1045455,
                "end_time": 52.9318182,
                "pitch": 66,
                "velocity": 51,
                "duration": 0.8272727,
                "tempo": 120.0
            },
            {
                "start_time": 52.7931818,
                "end_time": 52.9318182,
                "pitch": 66,
                "velocity": 51,
                "duration": 0.1386364,
                "tempo": 120.0
            },
            {
                "start_time": 50.4386364,
                "end_time": 52.9318182,
                "pitch": 79,
                "velocity": 51,
                "duration": 2.4931818,
                "tempo": 120.0
            },
            {
                "start_time": 52.7431818,
                "end_time": 52.9818182,
                "pitch": 67,
                "velocity": 51,
                "duration": 0.2386364,
                "tempo": 120.0
            },
            {
                "start_time": 52.9318182,
                "end_time": 52.9818182,
                "pitch": 67,
                "velocity": 51,
                "duration": 0.05,
                "tempo": 120.0
            },
            {
                "start_time": 52.9818182,
                "end_time": 53.1636364,
                "pitch": 69,
                "velocity": 51,
                "duration": 0.1818182,
                "tempo": 120.0
            },
            {
                "start_time": 49.3,
                "end_time": 53.1636364,
                "pitch": 76,
                "velocity": 64,
                "duration": 3.8636364,
                "tempo": 120.0
            },
            {
                "start_time": 53.1636364,
                "end_time": 53.2454545,
                "pitch": 72,
                "velocity": 51,
                "duration": 0.0818182,
                "tempo": 120.0
            },
            {
                "start_time": 53.2454545,
                "end_time": 53.425,
                "pitch": 70,
                "velocity": 51,
                "duration": 0.1795455,
                "tempo": 120.0
            },
            {
                "start_time": 53.425,
                "end_time": 53.4590909,
                "pitch": 67,
                "velocity": 51,
                "duration": 0.0340909,
                "tempo": 120.0
            },
            {
                "start_time": 52.9318182,
                "end_time": 53.4590909,
                "pitch": 79,
                "velocity": 51,
                "duration": 0.5272727,
                "tempo": 120.0
            },
            {
                "start_time": 53.4590909,
                "end_time": 53.5431818,
                "pitch": 67,
                "velocity": 51,
                "duration": 0.0840909,
                "tempo": 120.0
            },
            {
                "start_time": 53.5431818,
                "end_time": 53.6931818,
                "pitch": 69,
                "velocity": 51,
                "duration": 0.15,
                "tempo": 120.0
            },
            {
                "start_time": 53.6931818,
                "end_time": 53.7772727,
                "pitch": 65,
                "velocity": 64,
                "duration": 0.0840909,
                "tempo": 120.0
            },
            {
                "start_time": 53.7772727,
                "end_time": 53.8772727,
                "pitch": 65,
                "velocity": 32,
                "duration": 0.1,
                "tempo": 120.0
            },
            {
                "start_time": 53.8795455,
                "end_time": 53.9954545,
                "pitch": 66,
                "velocity": 64,
                "duration": 0.1159091,
                "tempo": 120.0
            },
            {
                "start_time": 53.4590909,
                "end_time": 53.9954545,
                "pitch": 79,
                "velocity": 51,
                "duration": 0.5363636,
                "tempo": 120.0
            },
            {
                "start_time": 53.9954545,
                "end_time": 54.0454545,
                "pitch": 67,
                "velocity": 64,
                "duration": 0.05,
                "tempo": 120.0
            },
            {
                "start_time": 52.4454545,
                "end_time": 54.1454545,
                "pitch": 64,
                "velocity": 51,
                "duration": 1.7,
                "tempo": 120.0
            },
            {
                "start_time": 54.0454545,
                "end_time": 54.1454545,
                "pitch": 64,
                "velocity": 64,
                "duration": 0.1,
                "tempo": 120.0
            },
            {
                "start_time": 54.1477273,
                "end_time": 54.2295455,
                "pitch": 64,
                "velocity": 32,
                "duration": 0.0818182,
                "tempo": 120.0
            },
            {
                "start_time": 54.2295455,
                "end_time": 54.4136364,
                "pitch": 64,
                "velocity": 64,
                "duration": 0.1840909,
                "tempo": 120.0
            },
            {
                "start_time": 54.4136364,
                "end_time": 54.4977273,
                "pitch": 60,
                "velocity": 64,
                "duration": 0.0840909,
                "tempo": 120.0
            },
            {
                "start_time": 54.4977273,
                "end_time": 54.5954545,
                "pitch": 60,
                "velocity": 32,
                "duration": 0.0977273,
                "tempo": 120.0
            },
            {
                "start_time": 54.5954545,
                "end_time": 54.675,
                "pitch": 65,
                "velocity": 51,
                "duration": 0.0795455,
                "tempo": 120.0
            },
            {
                "start_time": 54.675,
                "end_time": 54.7090909,
                "pitch": 67,
                "velocity": 51,
                "duration": 0.0340909,
                "tempo": 120.0
            },
            {
                "start_time": 53.9954545,
                "end_time": 54.7090909,
                "pitch": 79,
                "velocity": 64,
                "duration": 0.7136364,
                "tempo": 120.0
            },
            {
                "start_time": 54.7090909,
                "end_time": 54.7568182,
                "pitch": 67,
                "velocity": 51,
                "duration": 0.0477273,
                "tempo": 120.0
            },
            {
                "start_time": 54.7568182,
                "end_time": 54.9363636,
                "pitch": 69,
                "velocity": 51,
                "duration": 0.1795455,
                "tempo": 120.0
            },
            {
                "start_time": 54.9363636,
                "end_time": 54.9863636,
                "pitch": 71,
                "velocity": 64,
                "duration": 0.05,
                "tempo": 120.0
            },
            {
                "start_time": 53.1636364,
                "end_time": 54.9863636,
                "pitch": 76,
                "velocity": 51,
                "duration": 1.8227273,
                "tempo": 120.0
            },
            {
                "start_time": 54.9863636,
                "end_time": 55.0181818,
                "pitch": 72,
                "velocity": 64,
                "duration": 0.0318182,
                "tempo": 120.0
            },
            {
                "start_time": 55.0181818,
                "end_time": 55.1136364,
                "pitch": 72,
                "velocity": 32,
                "duration": 0.0954545,
                "tempo": 120.0
            },
            {
                "start_time": 55.1159091,
                "end_time": 55.1977273,
                "pitch": 69,
                "velocity": 51,
                "duration": 0.0818182,
                "tempo": 120.0
            },
            {
                "start_time": 55.1977273,
                "end_time": 55.2840909,
                "pitch": 69,
                "velocity": 32,
                "duration": 0.0863636,
                "tempo": 120.0
            },
            {
                "start_time": 55.2840909,
                "end_time": 55.3863636,
                "pitch": 69,
                "velocity": 64,
                "duration": 0.1022727,
                "tempo": 120.0
            },
            {
                "start_time": 55.3863636,
                "end_time": 55.4727273,
                "pitch": 70,
                "velocity": 32,
                "duration": 0.0863636,
                "tempo": 120.0
            },
            {
                "start_time": 55.4727273,
                "end_time": 55.5568182,
                "pitch": 67,
                "velocity": 51,
                "duration": 0.0840909,
                "tempo": 120.0
            },
            {
                "start_time": 55.5568182,
                "end_time": 55.6545455,
                "pitch": 67,
                "velocity": 32,
                "duration": 0.0977273,
                "tempo": 120.0
            },
            {
                "start_time": 55.6545455,
                "end_time": 55.7363636,
                "pitch": 68,
                "velocity": 64,
                "duration": 0.0818182,
                "tempo": 120.0
            },
            {
                "start_time": 55.7363636,
                "end_time": 55.8318182,
                "pitch": 69,
                "velocity": 32,
                "duration": 0.0954545,
                "tempo": 120.0
            },
            {
                "start_time": 55.8340909,
                "end_time": 55.9159091,
                "pitch": 65,
                "velocity": 51,
                "duration": 0.0818182,
                "tempo": 120.0
            },
            {
                "start_time": 55.9159091,
                "end_time": 56.0022727,
                "pitch": 65,
                "velocity": 32,
                "duration": 0.0863636,
                "tempo": 120.0
            },
            {
                "start_time": 56.0022727,
                "end_time": 56.1045455,
                "pitch": 65,
                "velocity": 51,
                "duration": 0.1022727,
                "tempo": 120.0
            },
            {
                "start_time": 56.1045455,
                "end_time": 56.1386364,
                "pitch": 67,
                "velocity": 51,
                "duration": 0.0340909,
                "tempo": 120.0
            },
            {
                "start_time": 54.7090909,
                "end_time": 56.1386364,
                "pitch": 79,
                "velocity": 51,
                "duration": 1.4295455,
                "tempo": 120.0
            },
            {
                "start_time": 56.1386364,
                "end_time": 56.1909091,
                "pitch": 67,
                "velocity": 51,
                "duration": 0.0522727,
                "tempo": 120.0
            },
            {
                "start_time": 50.4886364,
                "end_time": 56.1909091,
                "pitch": 78,
                "velocity": 51,
                "duration": 5.7022727,
                "tempo": 120.0
            },
            {
                "start_time": 56.1909091,
                "end_time": 56.3727273,
                "pitch": 65,
                "velocity": 51,
                "duration": 0.1818182,
                "tempo": 120.0
            },
            {
                "start_time": 56.3727273,
                "end_time": 56.4545455,
                "pitch": 64,
                "velocity": 64,
                "duration": 0.0818182,
                "tempo": 120.0
            },
            {
                "start_time": 56.4545455,
                "end_time": 56.5340909,
                "pitch": 65,
                "velocity": 25,
                "duration": 0.0795455,
                "tempo": 120.0
            },
            {
                "start_time": 56.5340909,
                "end_time": 56.6340909,
                "pitch": 72,
                "velocity": 51,
                "duration": 0.1,
                "tempo": 120.0
            },
            {
                "start_time": 56.6340909,
                "end_time": 56.7204545,
                "pitch": 72,
                "velocity": 32,
                "duration": 0.0863636,
                "tempo": 120.0
            },
            {
                "start_time": 56.7204545,
                "end_time": 57.2431818,
                "pitch": 72,
                "velocity": 51,
                "duration": 0.5227273,
                "tempo": 120.0
            },
            {
                "start_time": 57.2454545,
                "end_time": 57.2931818,
                "pitch": 72,
                "velocity": 64,
                "duration": 0.0477273,
                "tempo": 120.0
            },
            {
                "start_time": 57.2954545,
                "end_time": 57.3409091,
                "pitch": 72,
                "velocity": 32,
                "duration": 0.0454545,
                "tempo": 120.0
            },
            {
                "start_time": 57.3409091,
                "end_time": 57.3931818,
                "pitch": 72,
                "velocity": 64,
                "duration": 0.0522727,
                "tempo": 120.0
            },
            {
                "start_time": 57.3931818,
                "end_time": 57.425,
                "pitch": 72,
                "velocity": 32,
                "duration": 0.0318182,
                "tempo": 120.0
            },
            {
                "start_time": 57.425,
                "end_time": 57.5090909,
                "pitch": 74,
                "velocity": 64,
                "duration": 0.0840909,
                "tempo": 120.0
            },
            {
                "start_time": 57.5090909,
                "end_time": 57.6090909,
                "pitch": 74,
                "velocity": 32,
                "duration": 0.1,
                "tempo": 120.0
            },
            {
                "start_time": 57.6090909,
                "end_time": 57.6931818,
                "pitch": 71,
                "velocity": 64,
                "duration": 0.0840909,
                "tempo": 120.0
            },
            {
                "start_time": 57.6931818,
                "end_time": 57.7772727,
                "pitch": 71,
                "velocity": 32,
                "duration": 0.0840909,
                "tempo": 120.0
            },
            {
                "start_time": 57.7772727,
                "end_time": 57.8772727,
                "pitch": 72,
                "velocity": 64,
                "duration": 0.1,
                "tempo": 120.0
            },
            {
                "start_time": 57.8772727,
                "end_time": 57.9613636,
                "pitch": 72,
                "velocity": 32,
                "duration": 0.0840909,
                "tempo": 120.0
            },
            {
                "start_time": 57.9613636,
                "end_time": 58.0136364,
                "pitch": 72,
                "velocity": 51,
                "duration": 0.0522727,
                "tempo": 120.0
            },
            {
                "start_time": 58.0136364,
                "end_time": 58.0454545,
                "pitch": 72,
                "velocity": 32,
                "duration": 0.0318182,
                "tempo": 120.0
            },
            {
                "start_time": 58.0454545,
                "end_time": 58.1136364,
                "pitch": 72,
                "velocity": 51,
                "duration": 0.0681818,
                "tempo": 120.0
            },
            {
                "start_time": 58.1136364,
                "end_time": 58.1454545,
                "pitch": 72,
                "velocity": 32,
                "duration": 0.0318182,
                "tempo": 120.0
            },
            {
                "start_time": 58.1454545,
                "end_time": 58.2295455,
                "pitch": 74,
                "velocity": 51,
                "duration": 0.0840909,
                "tempo": 120.0
            },
            {
                "start_time": 58.2295455,
                "end_time": 58.3295455,
                "pitch": 74,
                "velocity": 32,
                "duration": 0.1,
                "tempo": 120.0
            },
            {
                "start_time": 58.3295455,
                "end_time": 58.4136364,
                "pitch": 71,
                "velocity": 51,
                "duration": 0.0840909,
                "tempo": 120.0
            },
            {
                "start_time": 58.4136364,
                "end_time": 58.4977273,
                "pitch": 71,
                "velocity": 32,
                "duration": 0.0840909,
                "tempo": 120.0
            },
            {
                "start_time": 58.4977273,
                "end_time": 58.5977273,
                "pitch": 72,
                "velocity": 51,
                "duration": 0.1,
                "tempo": 120.0
            },
            {
                "start_time": 58.5977273,
                "end_time": 58.6818182,
                "pitch": 72,
                "velocity": 32,
                "duration": 0.0840909,
                "tempo": 120.0
            },
            {
                "start_time": 58.6818182,
                "end_time": 58.7340909,
                "pitch": 72,
                "velocity": 51,
                "duration": 0.0522727,
                "tempo": 120.0
            },
            {
                "start_time": 58.7340909,
                "end_time": 58.7636364,
                "pitch": 72,
                "velocity": 32,
                "duration": 0.0295455,
                "tempo": 120.0
            },
            {
                "start_time": 58.7636364,
                "end_time": 58.8318182,
                "pitch": 72,
                "velocity": 51,
                "duration": 0.0681818,
                "tempo": 120.0
            },
            {
                "start_time": 58.8318182,
                "end_time": 58.8613636,
                "pitch": 72,
                "velocity": 32,
                "duration": 0.0295455,
                "tempo": 120.0
            },
            {
                "start_time": 58.8613636,
                "end_time": 58.9431818,
                "pitch": 74,
                "velocity": 51,
                "duration": 0.0818182,
                "tempo": 120.0
            },
            {
                "start_time": 58.9431818,
                "end_time": 59.025,
                "pitch": 74,
                "velocity": 32,
                "duration": 0.0818182,
                "tempo": 120.0
            },
            {
                "start_time": 59.025,
                "end_time": 59.1227273,
                "pitch": 71,
                "velocity": 51,
                "duration": 0.0977273,
                "tempo": 120.0
            },
            {
                "start_time": 59.125,
                "end_time": 59.2090909,
                "pitch": 71,
                "velocity": 32,
                "duration": 0.0840909,
                "tempo": 120.0
            },
            {
                "start_time": 59.2090909,
                "end_time": 59.2954545,
                "pitch": 72,
                "velocity": 51,
                "duration": 0.0863636,
                "tempo": 120.0
            },
            {
                "start_time": 59.2954545,
                "end_time": 59.3977273,
                "pitch": 72,
                "velocity": 32,
                "duration": 0.1022727,
                "tempo": 120.0
            },
            {
                "start_time": 59.3977273,
                "end_time": 59.4818182,
                "pitch": 71,
                "velocity": 51,
                "duration": 0.0840909,
                "tempo": 120.0
            },
            {
                "start_time": 59.4818182,
                "end_time": 59.5795455,
                "pitch": 71,
                "velocity": 16,
                "duration": 0.0977273,
                "tempo": 120.0
            },
            {
                "start_time": 59.5795455,
                "end_time": 59.6613636,
                "pitch": 72,
                "velocity": 40,
                "duration": 0.0818182,
                "tempo": 120.0
            },
            {
                "start_time": 59.6613636,
                "end_time": 59.7431818,
                "pitch": 72,
                "velocity": 16,
                "duration": 0.0818182,
                "tempo": 120.0
            },
            {
                "start_time": 59.7431818,
                "end_time": 59.8409091,
                "pitch": 71,
                "velocity": 64,
                "duration": 0.0977273,
                "tempo": 120.0
            },
            {
                "start_time": 59.8409091,
                "end_time": 59.9204545,
                "pitch": 71,
                "velocity": 20,
                "duration": 0.0795455,
                "tempo": 120.0
            },
            {
                "start_time": 59.9227273,
                "end_time": 60.0022727,
                "pitch": 72,
                "velocity": 51,
                "duration": 0.0795455,
                "tempo": 120.0
            },
            {
                "start_time": 60.0022727,
                "end_time": 60.1,
                "pitch": 72,
                "velocity": 20,
                "duration": 0.0977273,
                "tempo": 120.0
            },
            {
                "start_time": 60.1,
                "end_time": 60.1840909,
                "pitch": 71,
                "velocity": 80,
                "duration": 0.0840909,
                "tempo": 120.0
            },
            {
                "start_time": 60.1840909,
                "end_time": 60.2681818,
                "pitch": 71,
                "velocity": 25,
                "duration": 0.0840909,
                "tempo": 120.0
            },
            {
                "start_time": 60.2704545,
                "end_time": 60.3727273,
                "pitch": 72,
                "velocity": 64,
                "duration": 0.1022727,
                "tempo": 120.0
            },
            {
                "start_time": 60.3727273,
                "end_time": 60.4568182,
                "pitch": 72,
                "velocity": 25,
                "duration": 0.0840909,
                "tempo": 120.0
            },
            {
                "start_time": 60.4590909,
                "end_time": 60.5090909,
                "pitch": 72,
                "velocity": 64,
                "duration": 0.05,
                "tempo": 120.0
            }
        ],
        "Flute": [
            {
                "start_time": 28.4863636,
                "end_time": 29.1136364,
                "pitch": 76,
                "velocity": 40,
                "duration": 0.6272727,
                "tempo": 120.0
            },
            {
                "start_time": 29.1954545,
                "end_time": 29.8295455,
                "pitch": 88,
                "velocity": 40,
                "duration": 0.6340909,
                "tempo": 120.0
            },
            {
                "start_time": 29.8977273,
                "end_time": 30.5454545,
                "pitch": 76,
                "velocity": 40,
                "duration": 0.6477273,
                "tempo": 120.0
            },
            {
                "start_time": 30.6159091,
                "end_time": 31.2636364,
                "pitch": 88,
                "velocity": 40,
                "duration": 0.6477273,
                "tempo": 120.0
            },
            {
                "start_time": 31.3340909,
                "end_time": 31.975,
                "pitch": 76,
                "velocity": 40,
                "duration": 0.6409091,
                "tempo": 120.0
            },
            {
                "start_time": 32.0431818,
                "end_time": 32.675,
                "pitch": 88,
                "velocity": 40,
                "duration": 0.6318182,
                "tempo": 120.0
            },
            {
                "start_time": 32.7431818,
                "end_time": 33.3772727,
                "pitch": 88,
                "velocity": 40,
                "duration": 0.6340909,
                "tempo": 120.0
            },
            {
                "start_time": 36.3090909,
                "end_time": 36.9568182,
                "pitch": 76,
                "velocity": 40,
                "duration": 0.6477273,
                "tempo": 120.0
            },
            {
                "start_time": 37.025,
                "end_time": 37.6590909,
                "pitch": 88,
                "velocity": 40,
                "duration": 0.6340909,
                "tempo": 120.0
            },
            {
                "start_time": 37.725,
                "end_time": 38.3613636,
                "pitch": 76,
                "velocity": 40,
                "duration": 0.6363636,
                "tempo": 120.0
            },
            {
                "start_time": 38.4431818,
                "end_time": 39.0795455,
                "pitch": 88,
                "velocity": 40,
                "duration": 0.6363636,
                "tempo": 120.0
            },
            {
                "start_time": 39.1613636,
                "end_time": 39.2272727,
                "pitch": 79,
                "velocity": 40,
                "duration": 0.0659091,
                "tempo": 120.0
            },
            {
                "start_time": 39.2272727,
                "end_time": 39.2613636,
                "pitch": 81,
                "velocity": 40,
                "duration": 0.0340909,
                "tempo": 120.0
            },
            {
                "start_time": 39.2613636,
                "end_time": 39.2772727,
                "pitch": 79,
                "velocity": 40,
                "duration": 0.0159091,
                "tempo": 120.0
            },
            {
                "start_time": 39.2772727,
                "end_time": 39.3113636,
                "pitch": 79,
                "velocity": 40,
                "duration": 0.0340909,
                "tempo": 120.0
            },
            {
                "start_time": 39.3113636,
                "end_time": 39.4954545,
                "pitch": 81,
                "velocity": 40,
                "duration": 0.1840909,
                "tempo": 120.0
            },
            {
                "start_time": 39.2772727,
                "end_time": 39.4954545,
                "pitch": 91,
                "velocity": 40,
                "duration": 0.2181818,
                "tempo": 120.0
            },
            {
                "start_time": 39.4954545,
                "end_time": 39.5272727,
                "pitch": 79,
                "velocity": 40,
                "duration": 0.0318182,
                "tempo": 120.0
            },
            {
                "start_time": 39.3113636,
                "end_time": 39.6431818,
                "pitch": 43,
                "velocity": 40,
                "duration": 0.3318182,
                "tempo": 120.0
            },
            {
                "start_time": 39.5272727,
                "end_time": 39.6431818,
                "pitch": 81,
                "velocity": 40,
                "duration": 0.1159091,
                "tempo": 120.0
            },
            {
                "start_time": 39.4954545,
                "end_time": 39.6431818,
                "pitch": 91,
                "velocity": 40,
                "duration": 0.1477273,
                "tempo": 120.0
            },
            {
                "start_time": 39.6431818,
                "end_time": 39.8045455,
                "pitch": 81,
                "velocity": 40,
                "duration": 0.1613636,
                "tempo": 120.0
            },
            {
                "start_time": 39.6431818,
                "end_time": 39.8045455,
                "pitch": 91,
                "velocity": 40,
                "duration": 0.1613636,
                "tempo": 120.0
            },
            {
                "start_time": 39.6431818,
                "end_time": 39.8363636,
                "pitch": 43,
                "velocity": 40,
                "duration": 0.1931818,
                "tempo": 120.0
            },
            {
                "start_time": 39.6431818,
                "end_time": 39.8363636,
                "pitch": 79,
                "velocity": 40,
                "duration": 0.1931818,
                "tempo": 120.0
            },
            {
                "start_time": 39.8045455,
                "end_time": 39.8363636,
                "pitch": 79,
                "velocity": 40,
                "duration": 0.0318182,
                "tempo": 120.0
            },
            {
                "start_time": 39.8363636,
                "end_time": 40.0204545,
                "pitch": 81,
                "velocity": 40,
                "duration": 0.1840909,
                "tempo": 120.0
            },
            {
                "start_time": 39.8045455,
                "end_time": 40.0204545,
                "pitch": 91,
                "velocity": 40,
                "duration": 0.2159091,
                "tempo": 120.0
            },
            {
                "start_time": 40.0204545,
                "end_time": 40.0545455,
                "pitch": 79,
                "velocity": 40,
                "duration": 0.0340909,
                "tempo": 120.0
            },
            {
                "start_time": 40.0545455,
                "end_time": 40.1704545,
                "pitch": 81,
                "velocity": 40,
                "duration": 0.1159091,
                "tempo": 120.0
            },
            {
                "start_time": 40.0204545,
                "end_time": 40.1704545,
                "pitch": 91,
                "velocity": 40,
                "duration": 0.15,
                "tempo": 120.0
            },
            {
                "start_time": 39.8363636,
                "end_time": 40.1727273,
                "pitch": 43,
                "velocity": 40,
                "duration": 0.3363636,
                "tempo": 120.0
            },
            {
                "start_time": 40.1704545,
                "end_time": 40.1727273,
                "pitch": 79,
                "velocity": 40,
                "duration": 0.0022727,
                "tempo": 120.0
            },
            {
                "start_time": 40.1727273,
                "end_time": 40.3386364,
                "pitch": 81,
                "velocity": 40,
                "duration": 0.1659091,
                "tempo": 120.0
            },
            {
                "start_time": 40.1704545,
                "end_time": 40.3386364,
                "pitch": 91,
                "velocity": 40,
                "duration": 0.1681818,
                "tempo": 120.0
            },
            {
                "start_time": 40.1727273,
                "end_time": 40.3886364,
                "pitch": 43,
                "velocity": 40,
                "duration": 0.2159091,
                "tempo": 120.0
            },
            {
                "start_time": 40.3386364,
                "end_time": 40.3886364,
                "pitch": 79,
                "velocity": 40,
                "duration": 0.05,
                "tempo": 120.0
            },
            {
                "start_time": 40.3886364,
                "end_time": 40.5568182,
                "pitch": 81,
                "velocity": 40,
                "duration": 0.1681818,
                "tempo": 120.0
            },
            {
                "start_time": 40.3386364,
                "end_time": 40.5568182,
                "pitch": 91,
                "velocity": 40,
                "duration": 0.2181818,
                "tempo": 120.0
            },
            {
                "start_time": 40.5568182,
                "end_time": 40.575,
                "pitch": 79,
                "velocity": 40,
                "duration": 0.0181818,
                "tempo": 120.0
            },
            {
                "start_time": 43.4295455,
                "end_time": 44.0568182,
                "pitch": 76,
                "velocity": 40,
                "duration": 0.6272727,
                "tempo": 120.0
            },
            {
                "start_time": 44.1386364,
                "end_time": 44.775,
                "pitch": 88,
                "velocity": 40,
                "duration": 0.6363636,
                "tempo": 120.0
            },
            {
                "start_time": 44.8386364,
                "end_time": 45.2068182,
                "pitch": 76,
                "velocity": 40,
                "duration": 0.3681818,
                "tempo": 120.0
            },
            {
                "start_time": 45.2068182,
                "end_time": 45.5477273,
                "pitch": 88,
                "velocity": 40,
                "duration": 0.3409091,
                "tempo": 120.0
            },
            {
                "start_time": 45.5477273,
                "end_time": 45.9159091,
                "pitch": 100,
                "velocity": 40,
                "duration": 0.3681818,
                "tempo": 120.0
            }
        ],
        "Trumpet": [
            {
                "start_time": 0.0181818,
                "end_time": 0.1590909,
                "pitch": 41,
                "velocity": 80,
                "duration": 0.1409091,
                "tempo": 120.0
            },
            {
                "start_time": 0.3727273,
                "end_time": 0.5045455,
                "pitch": 36,
                "velocity": 80,
                "duration": 0.1318182,
                "tempo": 120.0
            },
            {
                "start_time": 0.725,
                "end_time": 0.8681818,
                "pitch": 41,
                "velocity": 80,
                "duration": 0.1431818,
                "tempo": 120.0
            },
            {
                "start_time": 1.0818182,
                "end_time": 1.2181818,
                "pitch": 36,
                "velocity": 80,
                "duration": 0.1363636,
                "tempo": 120.0
            },
            {
                "start_time": 1.4431818,
                "end_time": 1.5863636,
                "pitch": 41,
                "velocity": 80,
                "duration": 0.1431818,
                "tempo": 120.0
            },
            {
                "start_time": 1.8022727,
                "end_time": 1.9318182,
                "pitch": 36,
                "velocity": 80,
                "duration": 0.1295455,
                "tempo": 120.0
            },
            {
                "start_time": 2.1522727,
                "end_time": 2.2977273,
                "pitch": 41,
                "velocity": 80,
                "duration": 0.1454545,
                "tempo": 120.0
            },
            {
                "start_time": 2.8727273,
                "end_time": 2.9977273,
                "pitch": 41,
                "velocity": 80,
                "duration": 0.125,
                "tempo": 120.0
            },
            {
                "start_time": 3.2113636,
                "end_time": 3.3568182,
                "pitch": 36,
                "velocity": 80,
                "duration": 0.1454545,
                "tempo": 120.0
            },
            {
                "start_time": 3.5704545,
                "end_time": 3.7045455,
                "pitch": 41,
                "velocity": 80,
                "duration": 0.1340909,
                "tempo": 120.0
            },
            {
                "start_time": 3.9318182,
                "end_time": 4.075,
                "pitch": 36,
                "velocity": 80,
                "duration": 0.1431818,
                "tempo": 120.0
            },
            {
                "start_time": 4.2886364,
                "end_time": 4.4227273,
                "pitch": 41,
                "velocity": 80,
                "duration": 0.1340909,
                "tempo": 120.0
            },
            {
                "start_time": 4.65,
                "end_time": 4.7931818,
                "pitch": 36,
                "velocity": 80,
                "duration": 0.1431818,
                "tempo": 120.0
            },
            {
                "start_time": 4.9909091,
                "end_time": 5.1340909,
                "pitch": 41,
                "velocity": 80,
                "duration": 0.1431818,
                "tempo": 120.0
            },
            {
                "start_time": 5.3477273,
                "end_time": 5.4818182,
                "pitch": 36,
                "velocity": 80,
                "duration": 0.1340909,
                "tempo": 120.0
            },
            {
                "start_time": 5.7068182,
                "end_time": 5.8477273,
                "pitch": 41,
                "velocity": 80,
                "duration": 0.1409091,
                "tempo": 120.0
            },
            {
                "start_time": 6.0545455,
                "end_time": 6.1909091,
                "pitch": 36,
                "velocity": 80,
                "duration": 0.1363636,
                "tempo": 120.0
            },
            {
                "start_time": 6.4159091,
                "end_time": 6.5590909,
                "pitch": 41,
                "velocity": 80,
                "duration": 0.1431818,
                "tempo": 120.0
            },
            {
                "start_time": 6.7727273,
                "end_time": 6.9090909,
                "pitch": 36,
                "velocity": 80,
                "duration": 0.1363636,
                "tempo": 120.0
            },
            {
                "start_time": 7.1340909,
                "end_time": 7.2772727,
                "pitch": 41,
                "velocity": 80,
                "duration": 0.1431818,
                "tempo": 120.0
            },
            {
                "start_time": 7.475,
                "end_time": 7.6204545,
                "pitch": 36,
                "velocity": 80,
                "duration": 0.1454545,
                "tempo": 120.0
            },
            {
                "start_time": 7.8340909,
                "end_time": 7.9,
                "pitch": 36,
                "velocity": 80,
                "duration": 0.0659091,
                "tempo": 120.0
            },
            {
                "start_time": 8.0227273,
                "end_time": 8.0886364,
                "pitch": 38,
                "velocity": 80,
                "duration": 0.0659091,
                "tempo": 120.0
            },
            {
                "start_time": 8.1931818,
                "end_time": 8.2727273,
                "pitch": 40,
                "velocity": 80,
                "duration": 0.0795455,
                "tempo": 120.0
            },
            {
                "start_time": 8.3727273,
                "end_time": 8.4363636,
                "pitch": 43,
                "velocity": 80,
                "duration": 0.0636364,
                "tempo": 120.0
            },
            {
                "start_time": 8.5522727,
                "end_time": 8.6863636,
                "pitch": 41,
                "velocity": 80,
                "duration": 0.1340909,
                "tempo": 120.0
            },
            {
                "start_time": 8.9113636,
                "end_time": 9.0568182,
                "pitch": 36,
                "velocity": 80,
                "duration": 0.1454545,
                "tempo": 120.0
            },
            {
                "start_time": 9.2704545,
                "end_time": 9.4022727,
                "pitch": 41,
                "velocity": 80,
                "duration": 0.1318182,
                "tempo": 120.0
            },
            {
                "start_time": 9.6227273,
                "end_time": 9.7704545,
                "pitch": 36,
                "velocity": 80,
                "duration": 0.1477273,
                "tempo": 120.0
            },
            {
                "start_time": 9.975,
                "end_time": 10.1181818,
                "pitch": 41,
                "velocity": 80,
                "duration": 0.1431818,
                "tempo": 120.0
            },
            {
                "start_time": 10.3318182,
                "end_time": 10.4636364,
                "pitch": 36,
                "velocity": 80,
                "duration": 0.1318182,
                "tempo": 120.0
            },
            {
                "start_time": 10.6840909,
                "end_time": 10.8272727,
                "pitch": 41,
                "velocity": 80,
                "duration": 0.1431818,
                "tempo": 120.0
            },
            {
                "start_time": 11.0409091,
                "end_time": 11.175,
                "pitch": 36,
                "velocity": 80,
                "duration": 0.1340909,
                "tempo": 120.0
            },
            {
                "start_time": 11.4,
                "end_time": 11.5454545,
                "pitch": 41,
                "velocity": 80,
                "duration": 0.1454545,
                "tempo": 120.0
            },
            {
                "start_time": 11.7590909,
                "end_time": 11.8931818,
                "pitch": 36,
                "velocity": 80,
                "duration": 0.1340909,
                "tempo": 120.0
            },
            {
                "start_time": 12.1181818,
                "end_time": 12.2636364,
                "pitch": 41,
                "velocity": 80,
                "duration": 0.1454545,
                "tempo": 120.0
            },
            {
                "start_time": 12.4613636,
                "end_time": 12.6045455,
                "pitch": 36,
                "velocity": 80,
                "duration": 0.1431818,
                "tempo": 120.0
            },
            {
                "start_time": 12.8181818,
                "end_time": 12.95,
                "pitch": 41,
                "velocity": 80,
                "duration": 0.1318182,
                "tempo": 120.0
            },
            {
                "start_time": 13.1704545,
                "end_time": 13.3181818,
                "pitch": 36,
                "velocity": 80,
                "duration": 0.1477273,
                "tempo": 120.0
            },
            {
                "start_time": 13.5386364,
                "end_time": 13.6045455,
                "pitch": 36,
                "velocity": 80,
                "duration": 0.0659091,
                "tempo": 120.0
            },
            {
                "start_time": 13.7068182,
                "end_time": 13.7886364,
                "pitch": 38,
                "velocity": 80,
                "duration": 0.0818182,
                "tempo": 120.0
            },
            {
                "start_time": 13.8909091,
                "end_time": 13.9545455,
                "pitch": 40,
                "velocity": 80,
                "duration": 0.0636364,
                "tempo": 120.0
            },
            {
                "start_time": 14.075,
                "end_time": 14.1409091,
                "pitch": 43,
                "velocity": 80,
                "duration": 0.0659091,
                "tempo": 120.0
            },
            {
                "start_time": 14.2613636,
                "end_time": 14.6090909,
                "pitch": 41,
                "velocity": 80,
                "duration": 0.3477273,
                "tempo": 120.0
            },
            {
                "start_time": 14.7909091,
                "end_time": 14.8522727,
                "pitch": 40,
                "velocity": 80,
                "duration": 0.0613636,
                "tempo": 120.0
            },
            {
                "start_time": 14.9522727,
                "end_time": 15.1318182,
                "pitch": 36,
                "velocity": 80,
                "duration": 0.1795455,
                "tempo": 120.0
            },
            {
                "start_time": 15.1318182,
                "end_time": 15.3113636,
                "pitch": 38,
                "velocity": 80,
                "duration": 0.1795455,
                "tempo": 120.0
            },
            {
                "start_time": 15.3113636,
                "end_time": 15.3772727,
                "pitch": 43,
                "velocity": 80,
                "duration": 0.0659091,
                "tempo": 120.0
            },
            {
                "start_time": 15.4977273,
                "end_time": 15.5659091,
                "pitch": 40,
                "velocity": 80,
                "duration": 0.0681818,
                "tempo": 120.0
            },
            {
                "start_time": 15.6704545,
                "end_time": 15.8136364,
                "pitch": 41,
                "velocity": 80,
                "duration": 0.1431818,
                "tempo": 120.0
            },
            {
                "start_time": 16.5659091,
                "end_time": 16.7477273,
                "pitch": 36,
                "velocity": 80,
                "duration": 0.1818182,
                "tempo": 120.0
            },
            {
                "start_time": 16.7477273,
                "end_time": 16.7954545,
                "pitch": 38,
                "velocity": 80,
                "duration": 0.0477273,
                "tempo": 120.0
            },
            {
                "start_time": 16.9181818,
                "end_time": 16.9840909,
                "pitch": 40,
                "velocity": 80,
                "duration": 0.0659091,
                "tempo": 120.0
            },
            {
                "start_time": 17.1068182,
                "end_time": 17.4363636,
                "pitch": 41,
                "velocity": 80,
                "duration": 0.3295455,
                "tempo": 120.0
            },
            {
                "start_time": 17.6204545,
                "end_time": 17.6863636,
                "pitch": 40,
                "velocity": 80,
                "duration": 0.0659091,
                "tempo": 120.0
            },
            {
                "start_time": 17.8068182,
                "end_time": 17.9886364,
                "pitch": 36,
                "velocity": 80,
                "duration": 0.1818182,
                "tempo": 120.0
            },
            {
                "start_time": 17.9886364,
                "end_time": 18.1568182,
                "pitch": 38,
                "velocity": 80,
                "duration": 0.1681818,
                "tempo": 120.0
            },
            {
                "start_time": 18.1590909,
                "end_time": 18.2363636,
                "pitch": 43,
                "velocity": 80,
                "duration": 0.0772727,
                "tempo": 120.0
            },
            {
                "start_time": 18.3363636,
                "end_time": 18.4,
                "pitch": 40,
                "velocity": 80,
                "duration": 0.0636364,
                "tempo": 120.0
            },
            {
                "start_time": 18.5159091,
                "end_time": 18.65,
                "pitch": 41,
                "velocity": 80,
                "duration": 0.1340909,
                "tempo": 120.0
            },
            {
                "start_time": 18.8772727,
                "end_time": 19.0204545,
                "pitch": 36,
                "velocity": 80,
                "duration": 0.1431818,
                "tempo": 120.0
            },
            {
                "start_time": 19.4045455,
                "end_time": 19.4886364,
                "pitch": 36,
                "velocity": 80,
                "duration": 0.0840909,
                "tempo": 120.0
            },
            {
                "start_time": 19.7727273,
                "end_time": 19.8363636,
                "pitch": 36,
                "velocity": 80,
                "duration": 0.0636364,
                "tempo": 120.0
            },
            {
                "start_time": 19.9363636,
                "end_time": 20.0795455,
                "pitch": 41,
                "velocity": 80,
                "duration": 0.1431818,
                "tempo": 120.0
            },
            {
                "start_time": 20.2931818,
                "end_time": 20.425,
                "pitch": 41,
                "velocity": 80,
                "duration": 0.1318182,
                "tempo": 120.0
            },
            {
                "start_time": 20.6454545,
                "end_time": 20.7931818,
                "pitch": 36,
                "velocity": 80,
                "duration": 0.1477273,
                "tempo": 120.0
            },
            {
                "start_time": 21.0136364,
                "end_time": 21.1454545,
                "pitch": 36,
                "velocity": 80,
                "duration": 0.1318182,
                "tempo": 120.0
            },
            {
                "start_time": 21.3659091,
                "end_time": 21.5090909,
                "pitch": 41,
                "velocity": 80,
                "duration": 0.1431818,
                "tempo": 120.0
            },
            {
                "start_time": 21.725,
                "end_time": 21.8590909,
                "pitch": 36,
                "velocity": 80,
                "duration": 0.1340909,
                "tempo": 120.0
            },
            {
                "start_time": 22.0840909,
                "end_time": 22.2272727,
                "pitch": 41,
                "velocity": 80,
                "duration": 0.1431818,
                "tempo": 120.0
            },
            {
                "start_time": 22.4272727,
                "end_time": 22.5704545,
                "pitch": 36,
                "velocity": 80,
                "duration": 0.1431818,
                "tempo": 120.0
            },
            {
                "start_time": 22.7840909,
                "end_time": 22.9181818,
                "pitch": 41,
                "velocity": 80,
                "duration": 0.1340909,
                "tempo": 120.0
            },
            {
                "start_time": 23.1431818,
                "end_time": 23.2886364,
                "pitch": 36,
                "velocity": 80,
                "duration": 0.1454545,
                "tempo": 120.0
            },
            {
                "start_time": 23.5022727,
                "end_time": 23.6340909,
                "pitch": 41,
                "velocity": 80,
                "duration": 0.1318182,
                "tempo": 120.0
            },
            {
                "start_time": 23.8545455,
                "end_time": 24.0022727,
                "pitch": 36,
                "velocity": 80,
                "duration": 0.1477273,
                "tempo": 120.0
            },
            {
                "start_time": 24.2227273,
                "end_time": 24.3545455,
                "pitch": 41,
                "velocity": 80,
                "duration": 0.1318182,
                "tempo": 120.0
            },
            {
                "start_time": 24.5727273,
                "end_time": 24.7181818,
                "pitch": 36,
                "velocity": 80,
                "duration": 0.1454545,
                "tempo": 120.0
            },
            {
                "start_time": 24.9159091,
                "end_time": 25.0590909,
                "pitch": 41,
                "velocity": 80,
                "duration": 0.1431818,
                "tempo": 120.0
            },
            {
                "start_time": 25.2727273,
                "end_time": 25.4090909,
                "pitch": 41,
                "velocity": 80,
                "duration": 0.1363636,
                "tempo": 120.0
            },
            {
                "start_time": 25.6340909,
                "end_time": 25.7113636,
                "pitch": 41,
                "velocity": 80,
                "duration": 0.0772727,
                "tempo": 120.0
            },
            {
                "start_time": 26.3522727,
                "end_time": 26.4136364,
                "pitch": 36,
                "velocity": 80,
                "duration": 0.0613636,
                "tempo": 120.0
            },
            {
                "start_time": 26.8818182,
                "end_time": 26.9636364,
                "pitch": 36,
                "velocity": 80,
                "duration": 0.0818182,
                "tempo": 120.0
            },
            {
                "start_time": 27.0704545,
                "end_time": 27.1318182,
                "pitch": 41,
                "velocity": 80,
                "duration": 0.0613636,
                "tempo": 120.0
            },
            {
                "start_time": 27.2477273,
                "end_time": 27.3113636,
                "pitch": 36,
                "velocity": 80,
                "duration": 0.0636364,
                "tempo": 120.0
            },
            {
                "start_time": 27.4113636,
                "end_time": 27.4909091,
                "pitch": 41,
                "velocity": 80,
                "duration": 0.0795455,
                "tempo": 120.0
            },
            {
                "start_time": 27.5909091,
                "end_time": 27.6522727,
                "pitch": 36,
                "velocity": 80,
                "duration": 0.0613636,
                "tempo": 120.0
            },
            {
                "start_time": 27.7681818,
                "end_time": 27.8340909,
                "pitch": 41,
                "velocity": 80,
                "duration": 0.0659091,
                "tempo": 120.0
            },
            {
                "start_time": 28.1295455,
                "end_time": 28.2090909,
                "pitch": 41,
                "velocity": 80,
                "duration": 0.0795455,
                "tempo": 120.0
            },
            {
                "start_time": 28.4886364,
                "end_time": 28.6181818,
                "pitch": 41,
                "velocity": 80,
                "duration": 0.1295455,
                "tempo": 120.0
            },
            {
                "start_time": 28.8386364,
                "end_time": 28.9818182,
                "pitch": 36,
                "velocity": 80,
                "duration": 0.1431818,
                "tempo": 120.0
            },
            {
                "start_time": 29.1954545,
                "end_time": 29.3318182,
                "pitch": 41,
                "velocity": 80,
                "duration": 0.1363636,
                "tempo": 120.0
            },
            {
                "start_time": 29.5568182,
                "end_time": 29.7,
                "pitch": 36,
                "velocity": 80,
                "duration": 0.1431818,
                "tempo": 120.0
            },
            {
                "start_time": 29.8977273,
                "end_time": 30.0431818,
                "pitch": 41,
                "velocity": 80,
                "duration": 0.1454545,
                "tempo": 120.0
            },
            {
                "start_time": 30.2545455,
                "end_time": 30.3909091,
                "pitch": 36,
                "velocity": 80,
                "duration": 0.1363636,
                "tempo": 120.0
            },
            {
                "start_time": 30.6181818,
                "end_time": 30.7613636,
                "pitch": 37,
                "velocity": 80,
                "duration": 0.1431818,
                "tempo": 120.0
            },
            {
                "start_time": 30.975,
                "end_time": 31.1090909,
                "pitch": 36,
                "velocity": 80,
                "duration": 0.1340909,
                "tempo": 120.0
            },
            {
                "start_time": 31.3363636,
                "end_time": 31.4795455,
                "pitch": 37,
                "velocity": 80,
                "duration": 0.1431818,
                "tempo": 120.0
            },
            {
                "start_time": 31.6931818,
                "end_time": 31.825,
                "pitch": 36,
                "velocity": 80,
                "duration": 0.1318182,
                "tempo": 120.0
            },
            {
                "start_time": 32.0454545,
                "end_time": 32.1886364,
                "pitch": 37,
                "velocity": 80,
                "duration": 0.1431818,
                "tempo": 120.0
            },
            {
                "start_time": 32.3863636,
                "end_time": 32.5295455,
                "pitch": 36,
                "velocity": 80,
                "duration": 0.1431818,
                "tempo": 120.0
            },
            {
                "start_time": 32.7454545,
                "end_time": 32.8795455,
                "pitch": 41,
                "velocity": 80,
                "duration": 0.1340909,
                "tempo": 120.0
            },
            {
                "start_time": 33.4636364,
                "end_time": 33.5954545,
                "pitch": 41,
                "velocity": 80,
                "duration": 0.1318182,
                "tempo": 120.0
            },
            {
                "start_time": 33.8204545,
                "end_time": 33.9659091,
                "pitch": 36,
                "velocity": 80,
                "duration": 0.1454545,
                "tempo": 120.0
            },
            {
                "start_time": 34.1795455,
                "end_time": 34.3136364,
                "pitch": 41,
                "velocity": 80,
                "duration": 0.1340909,
                "tempo": 120.0
            },
            {
                "start_time": 34.5386364,
                "end_time": 34.6840909,
                "pitch": 36,
                "velocity": 80,
                "duration": 0.1454545,
                "tempo": 120.0
            },
            {
                "start_time": 34.8818182,
                "end_time": 35.025,
                "pitch": 41,
                "velocity": 80,
                "duration": 0.1431818,
                "tempo": 120.0
            },
            {
                "start_time": 35.2409091,
                "end_time": 35.3704545,
                "pitch": 36,
                "velocity": 80,
                "duration": 0.1295455,
                "tempo": 120.0
            },
            {
                "start_time": 35.5909091,
                "end_time": 35.7363636,
                "pitch": 41,
                "velocity": 80,
                "duration": 0.1454545,
                "tempo": 120.0
            },
            {
                "start_time": 35.95,
                "end_time": 36.0840909,
                "pitch": 36,
                "velocity": 80,
                "duration": 0.1340909,
                "tempo": 120.0
            },
            {
                "start_time": 36.3113636,
                "end_time": 36.4545455,
                "pitch": 36,
                "velocity": 80,
                "duration": 0.1431818,
                "tempo": 120.0
            },
            {
                "start_time": 37.0272727,
                "end_time": 37.1727273,
                "pitch": 36,
                "velocity": 80,
                "duration": 0.1454545,
                "tempo": 120.0
            },
            {
                "start_time": 37.7272727,
                "end_time": 37.8613636,
                "pitch": 36,
                "velocity": 80,
                "duration": 0.1340909,
                "tempo": 120.0
            },
            {
                "start_time": 38.4454545,
                "end_time": 38.5795455,
                "pitch": 36,
                "velocity": 80,
                "duration": 0.1340909,
                "tempo": 120.0
            },
            {
                "start_time": 39.1636364,
                "end_time": 39.2954545,
                "pitch": 36,
                "velocity": 80,
                "duration": 0.1318182,
                "tempo": 120.0
            },
            {
                "start_time": 39.8568182,
                "end_time": 40.0045455,
                "pitch": 36,
                "velocity": 80,
                "duration": 0.1477273,
                "tempo": 120.0
            },
            {
                "start_time": 40.5772727,
                "end_time": 41.2954545,
                "pitch": 36,
                "velocity": 80,
                "duration": 0.7181818,
                "tempo": 120.0
            },
            {
                "start_time": 41.2954545,
                "end_time": 42.0136364,
                "pitch": 37,
                "velocity": 80,
                "duration": 0.7181818,
                "tempo": 120.0
            },
            {
                "start_time": 42.0136364,
                "end_time": 42.7136364,
                "pitch": 38,
                "velocity": 80,
                "duration": 0.7,
                "tempo": 120.0
            },
            {
                "start_time": 42.7136364,
                "end_time": 43.4318182,
                "pitch": 40,
                "velocity": 80,
                "duration": 0.7181818,
                "tempo": 120.0
            },
            {
                "start_time": 43.4318182,
                "end_time": 43.5613636,
                "pitch": 41,
                "velocity": 80,
                "duration": 0.1295455,
                "tempo": 120.0
            },
            {
                "start_time": 44.1409091,
                "end_time": 44.275,
                "pitch": 36,
                "velocity": 80,
                "duration": 0.1340909,
                "tempo": 120.0
            },
            {
                "start_time": 44.8431818,
                "end_time": 44.9886364,
                "pitch": 41,
                "velocity": 80,
                "duration": 0.1454545,
                "tempo": 120.0
            },
            {
                "start_time": 45.9181818,
                "end_time": 46.0522727,
                "pitch": 29,
                "velocity": 80,
                "duration": 0.1340909,
                "tempo": 120.0
            },
            {
                "start_time": 46.275,
                "end_time": 46.4204545,
                "pitch": 41,
                "velocity": 80,
                "duration": 0.1454545,
                "tempo": 120.0
            },
            {
                "start_time": 46.6386364,
                "end_time": 46.7704545,
                "pitch": 36,
                "velocity": 80,
                "duration": 0.1318182,
                "tempo": 120.0
            },
            {
                "start_time": 46.9909091,
                "end_time": 47.1363636,
                "pitch": 41,
                "velocity": 80,
                "duration": 0.1454545,
                "tempo": 120.0
            },
            {
                "start_time": 47.3318182,
                "end_time": 47.4772727,
                "pitch": 36,
                "velocity": 80,
                "duration": 0.1454545,
                "tempo": 120.0
            },
            {
                "start_time": 47.6931818,
                "end_time": 47.825,
                "pitch": 41,
                "velocity": 80,
                "duration": 0.1318182,
                "tempo": 120.0
            },
            {
                "start_time": 48.0522727,
                "end_time": 48.1954545,
                "pitch": 36,
                "velocity": 80,
                "duration": 0.1431818,
                "tempo": 120.0
            },
            {
                "start_time": 48.4090909,
                "end_time": 48.5431818,
                "pitch": 41,
                "velocity": 80,
                "duration": 0.1340909,
                "tempo": 120.0
            },
            {
                "start_time": 49.1386364,
                "end_time": 49.2659091,
                "pitch": 41,
                "velocity": 80,
                "duration": 0.1272727,
                "tempo": 120.0
            },
            {
                "start_time": 49.4795455,
                "end_time": 49.6272727,
                "pitch": 36,
                "velocity": 80,
                "duration": 0.1477273,
                "tempo": 120.0
            },
            {
                "start_time": 49.8318182,
                "end_time": 49.975,
                "pitch": 41,
                "velocity": 80,
                "duration": 0.1431818,
                "tempo": 120.0
            },
            {
                "start_time": 50.1909091,
                "end_time": 50.3204545,
                "pitch": 36,
                "velocity": 80,
                "duration": 0.1295455,
                "tempo": 120.0
            },
            {
                "start_time": 50.5409091,
                "end_time": 50.6840909,
                "pitch": 41,
                "velocity": 80,
                "duration": 0.1431818,
                "tempo": 120.0
            },
            {
                "start_time": 50.9,
                "end_time": 51.0340909,
                "pitch": 36,
                "velocity": 80,
                "duration": 0.1340909,
                "tempo": 120.0
            },
            {
                "start_time": 51.2590909,
                "end_time": 51.4022727,
                "pitch": 41,
                "velocity": 80,
                "duration": 0.1431818,
                "tempo": 120.0
            },
            {
                "start_time": 51.6159091,
                "end_time": 51.7522727,
                "pitch": 36,
                "velocity": 80,
                "duration": 0.1363636,
                "tempo": 120.0
            },
            {
                "start_time": 51.9772727,
                "end_time": 52.1204545,
                "pitch": 41,
                "velocity": 80,
                "duration": 0.1431818,
                "tempo": 120.0
            },
            {
                "start_time": 52.3181818,
                "end_time": 52.4636364,
                "pitch": 36,
                "velocity": 80,
                "duration": 0.1454545,
                "tempo": 120.0
            },
            {
                "start_time": 52.6772727,
                "end_time": 52.8113636,
                "pitch": 41,
                "velocity": 80,
                "duration": 0.1340909,
                "tempo": 120.0
            },
            {
                "start_time": 53.0363636,
                "end_time": 53.1818182,
                "pitch": 36,
                "velocity": 80,
                "duration": 0.1454545,
                "tempo": 120.0
            },
            {
                "start_time": 53.3954545,
                "end_time": 53.5272727,
                "pitch": 41,
                "velocity": 80,
                "duration": 0.1318182,
                "tempo": 120.0
            },
            {
                "start_time": 53.7477273,
                "end_time": 53.8954545,
                "pitch": 36,
                "velocity": 80,
                "duration": 0.1477273,
                "tempo": 120.0
            },
            {
                "start_time": 54.1159091,
                "end_time": 54.1795455,
                "pitch": 36,
                "velocity": 80,
                "duration": 0.0636364,
                "tempo": 120.0
            },
            {
                "start_time": 54.2818182,
                "end_time": 54.3636364,
                "pitch": 38,
                "velocity": 80,
                "duration": 0.0818182,
                "tempo": 120.0
            },
            {
                "start_time": 54.4659091,
                "end_time": 54.5295455,
                "pitch": 40,
                "velocity": 80,
                "duration": 0.0636364,
                "tempo": 120.0
            },
            {
                "start_time": 54.6454545,
                "end_time": 54.7090909,
                "pitch": 43,
                "velocity": 80,
                "duration": 0.0636364,
                "tempo": 120.0
            },
            {
                "start_time": 54.8090909,
                "end_time": 54.9522727,
                "pitch": 41,
                "velocity": 80,
                "duration": 0.1431818,
                "tempo": 120.0
            },
            {
                "start_time": 55.1659091,
                "end_time": 55.3,
                "pitch": 36,
                "velocity": 80,
                "duration": 0.1340909,
                "tempo": 120.0
            },
            {
                "start_time": 55.5272727,
                "end_time": 55.6704545,
                "pitch": 41,
                "velocity": 80,
                "duration": 0.1431818,
                "tempo": 120.0
            },
            {
                "start_time": 55.8840909,
                "end_time": 56.0181818,
                "pitch": 36,
                "velocity": 80,
                "duration": 0.1340909,
                "tempo": 120.0
            },
            {
                "start_time": 56.2454545,
                "end_time": 56.3886364,
                "pitch": 41,
                "velocity": 80,
                "duration": 0.1431818,
                "tempo": 120.0
            },
            {
                "start_time": 56.6022727,
                "end_time": 56.7363636,
                "pitch": 36,
                "velocity": 80,
                "duration": 0.1340909,
                "tempo": 120.0
            },
            {
                "start_time": 56.9613636,
                "end_time": 57.1022727,
                "pitch": 41,
                "velocity": 80,
                "duration": 0.1409091,
                "tempo": 120.0
            },
            {
                "start_time": 57.2954545,
                "end_time": 57.4409091,
                "pitch": 36,
                "velocity": 80,
                "duration": 0.1454545,
                "tempo": 120.0
            },
            {
                "start_time": 57.6613636,
                "end_time": 57.7931818,
                "pitch": 41,
                "velocity": 80,
                "duration": 0.1318182,
                "tempo": 120.0
            },
            {
                "start_time": 58.0136364,
                "end_time": 58.1613636,
                "pitch": 36,
                "velocity": 80,
                "duration": 0.1477273,
                "tempo": 120.0
            },
            {
                "start_time": 58.3818182,
                "end_time": 58.5136364,
                "pitch": 41,
                "velocity": 80,
                "duration": 0.1318182,
                "tempo": 120.0
            },
            {
                "start_time": 58.7363636,
                "end_time": 58.8772727,
                "pitch": 36,
                "velocity": 80,
                "duration": 0.1409091,
                "tempo": 120.0
            },
            {
                "start_time": 59.0931818,
                "end_time": 59.2272727,
                "pitch": 41,
                "velocity": 80,
                "duration": 0.1340909,
                "tempo": 120.0
            },
            {
                "start_time": 59.4522727,
                "end_time": 59.5954545,
                "pitch": 36,
                "velocity": 80,
                "duration": 0.1431818,
                "tempo": 120.0
            },
            {
                "start_time": 59.7954545,
                "end_time": 59.8727273,
                "pitch": 36,
                "velocity": 80,
                "duration": 0.0772727,
                "tempo": 120.0
            },
            {
                "start_time": 59.9727273,
                "end_time": 60.0363636,
                "pitch": 38,
                "velocity": 80,
                "duration": 0.0636364,
                "tempo": 120.0
            },
            {
                "start_time": 60.1522727,
                "end_time": 60.2181818,
                "pitch": 40,
                "velocity": 80,
                "duration": 0.0659091,
                "tempo": 120.0
            },
            {
                "start_time": 60.3409091,
                "end_time": 60.4068182,
                "pitch": 43,
                "velocity": 80,
                "duration": 0.0659091,
                "tempo": 120.0
            }
        ]
    }
}