{
    "mood": "happy",
    "instruments": {
        "Electric Piano 1": [
            {
                "start_time": 3.4363636,
                "end_time": 3.8454545,
                "pitch": 72,
                "velocity": 101,
                "duration": 0.4090909,
                "tempo": 120.0
            },
            {
                "start_time": 3.8454545,
                "end_time": 4.1454545,
                "pitch": 76,
                "velocity": 101,
                "duration": 0.3,
                "tempo": 120.0
            },
            {
                "start_time": 4.1454545,
                "end_time": 4.2454545,
                "pitch": 79,
                "velocity": 101,
                "duration": 0.1,
                "tempo": 120.0
            },
            {
                "start_time": 4.2454545,
                "end_time": 4.85,
                "pitch": 84,
                "velocity": 101,
                "duration": 0.6045455,
                "tempo": 120.0
            },
            {
                "start_time": 4.85,
                "end_time": 4.95,
                "pitch": 88,
                "velocity": 101,
                "duration": 0.1,
                "tempo": 120.0
            },
            {
                "start_time": 4.95,
                "end_time": 5.05,
                "pitch": 86,
                "velocity": 101,
                "duration": 0.1,
                "tempo": 120.0
            },
            {
                "start_time": 5.05,
                "end_time": 5.15,
                "pitch": 84,
                "velocity": 101,
                "duration": 0.1,
                "tempo": 120.0
            },
            {
                "start_time": 5.2522727,
                "end_time": 5.35,
                "pitch": 83,
                "velocity": 101,
                "duration": 0.0977273,
                "tempo": 120.0
            },
            {
                "start_time": 5.4522727,
                "end_time": 5.5522727,
                "pitch": 81,
                "velocity": 101,
                "duration": 0.1,
                "tempo": 120.0
            },
            {
                "start_time": 5.6522727,
                "end_time": 5.7522727,
                "pitch": 83,
                "velocity": 101,
                "duration": 0.1,
                "tempo": 120.0
            },
            {
                "start_time": 5.8545455,
                "end_time": 5.9704545,
                "pitch": 79,
                "velocity": 101,
                "duration": 0.1159091,
                "tempo": 120.0
            },
            {
                "start_time": 5.9704545,
                "end_time": 6.1386364,
                "pitch": 79,
                "velocity": 101,
                "duration": 0.1681818,
                "tempo": 120.0
            },
            {
                "start_time": 5.9704545,
                "end_time": 6.1386364,
                "pitch": 91,
                "velocity": 101,
                "duration": 0.1681818,
                "tempo": 120.0
            },
            {
                "start_time": 6.1386364,
                "end_time": 6.3068182,
                "pitch": 79,
                "velocity": 101,
                "duration": 0.1681818,
                "tempo": 120.0
            },
            {
                "start_time": 6.1386364,
                "end_time": 6.3068182,
                "pitch": 91,
                "velocity": 101,
                "duration": 0.1681818,
                "tempo": 120.0
            },
            {
                "start_time": 6.3068182,
                "end_time": 6.4590909,
                "pitch": 79,
                "velocity": 101,
                "duration": 0.1522727,
                "tempo": 120.0
            },
            {
                "start_time": 6.4590909,
                "end_time": 6.5590909,
                "pitch": 79,
                "velocity": 101,
                "duration": 0.1,
                "tempo": 120.0
            },
            {
                "start_time": 6.5590909,
                "end_time": 6.6590909,
                "pitch": 79,
                "velocity": 101,
                "duration": 0.1,
                "tempo": 120.0
            },
            {
                "start_time": 6.6613636,
                "end_time": 6.7590909,
                "pitch": 86,
                "velocity": 101,
                "duration": 0.0977273,
                "tempo": 120.0
            },
            {
                "start_time": 6.8590909,
                "end_time": 6.9590909,
                "pitch": 79,
                "velocity": 101,
                "duration": 0.1,
                "tempo": 120.0
            },
            {
                "start_time": 6.9590909,
                "end_time": 7.0613636,
                "pitch": 79,
                "velocity": 101,
                "duration": 0.1022727,
                "tempo": 120.0
            },
            {
                "start_time": 7.0613636,
                "end_time": 7.1772727,
                "pitch": 79,
                "velocity": 101,
                "duration": 0.1159091,
                "tempo": 120.0
            },
            {
                "start_time": 6.3068182,
                "end_time": 7.1772727,
                "pitch": 91,
                "velocity": 101,
                "duration": 0.8704545,
                "tempo": 120.0
            },
            {
                "start_time": 7.1772727,
                "end_time": 7.3454545,
                "pitch": 79,
                "velocity": 101,
                "duration": 0.1681818,
                "tempo": 120.0
            },
            {
                "start_time": 7.1772727,
                "end_time": 7.3454545,
                "pitch": 91,
                "velocity": 101,
                "duration": 0.1681818,
                "tempo": 120.0
            },
            {
                "start_time": 7.3454545,
                "end_time": 7.4636364,
                "pitch": 79,
                "velocity": 101,
                "duration": 0.1181818,
                "tempo": 120.0
            },
            {
                "start_time": 7.4636364,
                "end_time": 7.5659091,
                "pitch": 86,
                "velocity": 101,
                "duration": 0.1022727,
                "tempo": 120.0
            },
            {
                "start_time": 7.6681818,
                "end_time": 7.7727273,
                "pitch": 79,
                "velocity": 101,
                "duration": 0.1045455,
                "tempo": 120.0
            },
            {
                "start_time": 7.7727273,
                "end_time": 7.875,
                "pitch": 79,
                "velocity": 101,
                "duration": 0.1022727,
                "tempo": 120.0
            },
            {
                "start_time": 7.875,
                "end_time": 7.9886364,
                "pitch": 79,
                "velocity": 101,
                "duration": 0.1136364,
                "tempo": 120.0
            },
            {
                "start_time": 7.3454545,
                "end_time": 7.9886364,
                "pitch": 91,
                "velocity": 101,
                "duration": 0.6431818,
                "tempo": 120.0
            },
            {
                "start_time": 7.9886364,
                "end_time": 8.1522727,
                "pitch": 79,
                "velocity": 101,
                "duration": 0.1636364,
                "tempo": 120.0
            },
            {
                "start_time": 7.9886364,
                "end_time": 8.1522727,
                "pitch": 91,
                "velocity": 101,
                "duration": 0.1636364,
                "tempo": 120.0
            },
            {
                "start_time": 8.1522727,
                "end_time": 8.2681818,
                "pitch": 79,
                "velocity": 101,
                "duration": 0.1159091,
                "tempo": 120.0
            },
            {
                "start_time": 8.2681818,
                "end_time": 8.3681818,
                "pitch": 86,
                "velocity": 101,
                "duration": 0.1,
                "tempo": 120.0
            },
            {
                "start_time": 8.4727273,
                "end_time": 8.575,
                "pitch": 86,
                "velocity": 101,
                "duration": 0.1022727,
                "tempo": 120.0
            },
            {
                "start_time": 8.575,
                "end_time": 8.6772727,
                "pitch": 86,
                "velocity": 101,
                "duration": 0.1022727,
                "tempo": 120.0
            },
            {
                "start_time": 8.6795455,
                "end_time": 8.775,
                "pitch": 86,
                "velocity": 101,
                "duration": 0.0954545,
                "tempo": 120.0
            },
            {
                "start_time": 8.875,
                "end_time": 8.9727273,
                "pitch": 86,
                "velocity": 101,
                "duration": 0.0977273,
                "tempo": 120.0
            },
            {
                "start_time": 9.0727273,
                "end_time": 9.4727273,
                "pitch": 87,
                "velocity": 101,
                "duration": 0.4,
                "tempo": 120.0
            },
            {
                "start_time": 9.4727273,
                "end_time": 9.5386364,
                "pitch": 86,
                "velocity": 101,
                "duration": 0.0659091,
                "tempo": 120.0
            },
            {
                "start_time": 9.8840909,
                "end_time": 10.275,
                "pitch": 72,
                "velocity": 101,
                "duration": 0.3909091,
                "tempo": 120.0
            },
            {
                "start_time": 10.275,
                "end_time": 10.5840909,
                "pitch": 76,
                "velocity": 101,
                "duration": 0.3090909,
                "tempo": 120.0
            },
            {
                "start_time": 10.5840909,
                "end_time": 10.6863636,
                "pitch": 79,
                "velocity": 101,
                "duration": 0.1022727,
                "tempo": 120.0
            },
            {
                "start_time": 10.6863636,
                "end_time": 11.2909091,
                "pitch": 84,
                "velocity": 101,
                "duration": 0.6045455,
                "tempo": 120.0
            },
            {
                "start_time": 11.2909091,
                "end_time": 11.3909091,
                "pitch": 88,
                "velocity": 101,
                "duration": 0.1,
                "tempo": 120.0
            },
            {
                "start_time": 11.3909091,
                "end_time": 11.4909091,
                "pitch": 86,
                "velocity": 101,
                "duration": 0.1,
                "tempo": 120.0
            },
            {
                "start_time": 11.4909091,
                "end_time": 11.5909091,
                "pitch": 84,
                "velocity": 101,
                "duration": 0.1,
                "tempo": 120.0
            },
            {
                "start_time": 11.6931818,
                "end_time": 11.7909091,
                "pitch": 83,
                "velocity": 101,
                "duration": 0.0977273,
                "tempo": 120.0
            },
            {
                "start_time": 11.8931818,
                "end_time": 11.9931818,
                "pitch": 84,
                "velocity": 101,
                "duration": 0.1,
                "tempo": 120.0
            },
            {
                "start_time": 12.0954545,
                "end_time": 12.1954545,
                "pitch": 86,
                "velocity": 101,
                "duration": 0.1,
                "tempo": 120.0
            },
            {
                "start_time": 12.2977273,
                "end_time": 12.9022727,
                "pitch": 88,
                "velocity": 101,
                "duration": 0.6045455,
                "tempo": 120.0
            },
            {
                "start_time": 12.9022727,
                "end_time": 13.0022727,
                "pitch": 88,
                "velocity": 101,
                "duration": 0.1,
                "tempo": 120.0
            },
            {
                "start_time": 13.0022727,
                "end_time": 13.1022727,
                "pitch": 88,
                "velocity": 101,
                "duration": 0.1,
                "tempo": 120.0
            },
            {
                "start_time": 13.1045455,
                "end_time": 13.2022727,
                "pitch": 89,
                "velocity": 101,
                "duration": 0.0977273,
                "tempo": 120.0
            },
            {
                "start_time": 13.3045455,
                "end_time": 13.4022727,
                "pitch": 81,
                "velocity": 101,
                "duration": 0.0977273,
                "tempo": 120.0
            },
            {
                "start_time": 13.4045455,
                "end_time": 13.5045455,
                "pitch": 81,
                "velocity": 101,
                "duration": 0.1,
                "tempo": 120.0
            },
            {
                "start_time": 13.5045455,
                "end_time": 13.9068182,
                "pitch": 81,
                "velocity": 101,
                "duration": 0.4022727,
                "tempo": 120.0
            },
            {
                "start_time": 13.9068182,
                "end_time": 14.0090909,
                "pitch": 89,
                "velocity": 101,
                "duration": 0.1022727,
                "tempo": 120.0
            },
            {
                "start_time": 14.1136364,
                "end_time": 14.2159091,
                "pitch": 81,
                "velocity": 101,
                "duration": 0.1022727,
                "tempo": 120.0
            },
            {
                "start_time": 14.2159091,
                "end_time": 14.3181818,
                "pitch": 81,
                "velocity": 101,
                "duration": 0.1022727,
                "tempo": 120.0
            },
            {
                "start_time": 14.3181818,
                "end_time": 14.7113636,
                "pitch": 81,
                "velocity": 101,
                "duration": 0.3931818,
                "tempo": 120.0
            },
            {
                "start_time": 14.7113636,
                "end_time": 14.8113636,
                "pitch": 89,
                "velocity": 101,
                "duration": 0.1,
                "tempo": 120.0
            },
            {
                "start_time": 14.9159091,
                "end_time": 15.0181818,
                "pitch": 89,
                "velocity": 101,
                "duration": 0.1022727,
                "tempo": 120.0
            },
            {
                "start_time": 15.0181818,
                "end_time": 15.1227273,
                "pitch": 89,
                "velocity": 101,
                "duration": 0.1045455,
                "tempo": 120.0
            },
            {
                "start_time": 15.1227273,
                "end_time": 15.2181818,
                "pitch": 89,
                "velocity": 101,
                "duration": 0.0954545,
                "tempo": 120.0
            },
            {
                "start_time": 15.3181818,
                "end_time": 15.4159091,
                "pitch": 89,
                "velocity": 101,
                "duration": 0.0977273,
                "tempo": 120.0
            },
            {
                "start_time": 15.5159091,
                "end_time": 15.7159091,
                "pitch": 90,
                "velocity": 101,
                "duration": 0.2,
                "tempo": 120.0
            },
            {
                "start_time": 15.7159091,
                "end_time": 15.7659091,
                "pitch": 81,
                "velocity": 101,
                "duration": 0.05,
                "tempo": 120.0
            },
            {
                "start_time": 15.9181818,
                "end_time": 15.9681818,
                "pitch": 81,
                "velocity": 101,
                "duration": 0.05,
                "tempo": 120.0
            },
            {
                "start_time": 16.1204545,
                "end_time": 16.1681818,
                "pitch": 81,
                "velocity": 101,
                "duration": 0.0477273,
                "tempo": 120.0
            },
            {
                "start_time": 45.2727273,
                "end_time": 45.4704545,
                "pitch": 72,
                "velocity": 101,
                "duration": 0.1977273,
                "tempo": 120.0
            },
            {
                "start_time": 45.6727273,
                "end_time": 45.8204545,
                "pitch": 76,
                "velocity": 101,
                "duration": 0.1477273,
                "tempo": 120.0
            },
            {
                "start_time": 45.9727273,
                "end_time": 46.0204545,
                "pitch": 79,
                "velocity": 101,
                "duration": 0.0477273,
                "tempo": 120.0
            },
            {
                "start_time": 46.0727273,
                "end_time": 46.3727273,
                "pitch": 84,
                "velocity": 101,
                "duration": 0.3,
                "tempo": 120.0
            },
            {
                "start_time": 46.6772727,
                "end_time": 46.725,
                "pitch": 88,
                "velocity": 101,
                "duration": 0.0477273,
                "tempo": 120.0
            },
            {
                "start_time": 46.775,
                "end_time": 46.825,
                "pitch": 86,
                "velocity": 101,
                "duration": 0.05,
                "tempo": 120.0
            },
            {
                "start_time": 46.8772727,
                "end_time": 46.925,
                "pitch": 84,
                "velocity": 101,
                "duration": 0.0477273,
                "tempo": 120.0
            },
            {
                "start_time": 47.0772727,
                "end_time": 47.125,
                "pitch": 83,
                "velocity": 101,
                "duration": 0.0477273,
                "tempo": 120.0
            },
            {
                "start_time": 47.2772727,
                "end_time": 47.325,
                "pitch": 81,
                "velocity": 101,
                "duration": 0.0477273,
                "tempo": 120.0
            },
            {
                "start_time": 47.4772727,
                "end_time": 47.525,
                "pitch": 83,
                "velocity": 101,
                "duration": 0.0477273,
                "tempo": 120.0
            },
            {
                "start_time": 47.6772727,
                "end_time": 47.7931818,
                "pitch": 79,
                "velocity": 101,
                "duration": 0.1159091,
                "tempo": 120.0
            },
            {
                "start_time": 8.1522727,
                "end_time": 47.7931818,
                "pitch": 91,
                "velocity": 101,
                "duration": 39.6409091,
                "tempo": 120.0
            },
            {
                "start_time": 47.7931818,
                "end_time": 47.9590909,
                "pitch": 79,
                "velocity": 101,
                "duration": 0.1659091,
                "tempo": 120.0
            },
            {
                "start_time": 47.7931818,
                "end_time": 47.9590909,
                "pitch": 91,
                "velocity": 101,
                "duration": 0.1659091,
                "tempo": 120.0
            },
            {
                "start_time": 47.9590909,
                "end_time": 47.9772727,
                "pitch": 79,
                "velocity": 101,
                "duration": 0.0181818,
                "tempo": 120.0
            },
            {
                "start_time": 48.2795455,
                "end_time": 48.3295455,
                "pitch": 79,
                "velocity": 101,
                "duration": 0.05,
                "tempo": 120.0
            },
            {
                "start_time": 48.3795455,
                "end_time": 48.4295455,
                "pitch": 79,
                "velocity": 101,
                "duration": 0.05,
                "tempo": 120.0
            },
            {
                "start_time": 48.4818182,
                "end_time": 48.5318182,
                "pitch": 86,
                "velocity": 101,
                "duration": 0.05,
                "tempo": 120.0
            },
            {
                "start_time": 48.6863636,
                "end_time": 48.7363636,
                "pitch": 79,
                "velocity": 101,
                "duration": 0.05,
                "tempo": 120.0
            },
            {
                "start_time": 48.7886364,
                "end_time": 48.8386364,
                "pitch": 79,
                "velocity": 101,
                "duration": 0.05,
                "tempo": 120.0
            },
            {
                "start_time": 48.8931818,
                "end_time": 49.0068182,
                "pitch": 79,
                "velocity": 101,
                "duration": 0.1136364,
                "tempo": 120.0
            },
            {
                "start_time": 47.9590909,
                "end_time": 49.0068182,
                "pitch": 91,
                "velocity": 101,
                "duration": 1.0477273,
                "tempo": 120.0
            },
            {
                "start_time": 49.0068182,
                "end_time": 49.0909091,
                "pitch": 79,
                "velocity": 101,
                "duration": 0.0840909,
                "tempo": 120.0
            },
            {
                "start_time": 49.2931818,
                "end_time": 49.3431818,
                "pitch": 86,
                "velocity": 101,
                "duration": 0.05,
                "tempo": 120.0
            },
            {
                "start_time": 49.4954545,
                "end_time": 49.5431818,
                "pitch": 79,
                "velocity": 101,
                "duration": 0.0477273,
                "tempo": 120.0
            },
            {
                "start_time": 49.5954545,
                "end_time": 49.6454545,
                "pitch": 79,
                "velocity": 101,
                "duration": 0.05,
                "tempo": 120.0
            },
            {
                "start_time": 49.6954545,
                "end_time": 49.8113636,
                "pitch": 79,
                "velocity": 101,
                "duration": 0.1159091,
                "tempo": 120.0
            },
            {
                "start_time": 49.0068182,
                "end_time": 49.8113636,
                "pitch": 91,
                "velocity": 101,
                "duration": 0.8045455,
                "tempo": 120.0
            },
            {
                "start_time": 49.8113636,
                "end_time": 49.8954545,
                "pitch": 79,
                "velocity": 101,
                "duration": 0.0840909,
                "tempo": 120.0
            },
            {
                "start_time": 50.0977273,
                "end_time": 50.1454545,
                "pitch": 86,
                "velocity": 101,
                "duration": 0.0477273,
                "tempo": 120.0
            },
            {
                "start_time": 50.2977273,
                "end_time": 50.3454545,
                "pitch": 86,
                "velocity": 101,
                "duration": 0.0477273,
                "tempo": 120.0
            },
            {
                "start_time": 50.3977273,
                "end_time": 50.4454545,
                "pitch": 86,
                "velocity": 101,
                "duration": 0.0477273,
                "tempo": 120.0
            },
            {
                "start_time": 50.4977273,
                "end_time": 50.5454545,
                "pitch": 86,
                "velocity": 101,
                "duration": 0.0477273,
                "tempo": 120.0
            },
            {
                "start_time": 50.6977273,
                "end_time": 50.7454545,
                "pitch": 86,
                "velocity": 101,
                "duration": 0.0477273,
                "tempo": 120.0
            },
            {
                "start_time": 50.8977273,
                "end_time": 51.0977273,
                "pitch": 87,
                "velocity": 101,
                "duration": 0.2,
                "tempo": 120.0
            },
            {
                "start_time": 51.2977273,
                "end_time": 51.3318182,
                "pitch": 86,
                "velocity": 101,
                "duration": 0.0340909,
                "tempo": 120.0
            },
            {
                "start_time": 51.7022727,
                "end_time": 51.9,
                "pitch": 72,
                "velocity": 101,
                "duration": 0.1977273,
                "tempo": 120.0
            },
            {
                "start_time": 52.1022727,
                "end_time": 52.25,
                "pitch": 76,
                "velocity": 101,
                "duration": 0.1477273,
                "tempo": 120.0
            },
            {
                "start_time": 52.4022727,
                "end_time": 52.4522727,
                "pitch": 79,
                "velocity": 101,
                "duration": 0.05,
                "tempo": 120.0
            },
            {
                "start_time": 52.5022727,
                "end_time": 52.8022727,
                "pitch": 84,
                "velocity": 101,
                "duration": 0.3,
                "tempo": 120.0
            },
            {
                "start_time": 53.1045455,
                "end_time": 53.1522727,
                "pitch": 88,
                "velocity": 101,
                "duration": 0.0477273,
                "tempo": 120.0
            },
            {
                "start_time": 53.2022727,
                "end_time": 53.2522727,
                "pitch": 86,
                "velocity": 101,
                "duration": 0.05,
                "tempo": 120.0
            },
            {
                "start_time": 53.3045455,
                "end_time": 53.3522727,
                "pitch": 84,
                "velocity": 101,
                "duration": 0.0477273,
                "tempo": 120.0
            },
            {
                "start_time": 53.5045455,
                "end_time": 53.5545455,
                "pitch": 83,
                "velocity": 101,
                "duration": 0.05,
                "tempo": 120.0
            },
            {
                "start_time": 53.7068182,
                "end_time": 53.7545455,
                "pitch": 84,
                "velocity": 101,
                "duration": 0.0477273,
                "tempo": 120.0
            },
            {
                "start_time": 53.9068182,
                "end_time": 53.9568182,
                "pitch": 86,
                "velocity": 101,
                "duration": 0.05,
                "tempo": 120.0
            },
            {
                "start_time": 54.1068182,
                "end_time": 54.4068182,
                "pitch": 88,
                "velocity": 101,
                "duration": 0.3,
                "tempo": 120.0
            },
            {
                "start_time": 54.7090909,
                "end_time": 54.7568182,
                "pitch": 88,
                "velocity": 101,
                "duration": 0.0477273,
                "tempo": 120.0
            },
            {
                "start_time": 54.8090909,
                "end_time": 54.8568182,
                "pitch": 88,
                "velocity": 101,
                "duration": 0.0477273,
                "tempo": 120.0
            },
            {
                "start_time": 54.9090909,
                "end_time": 54.9568182,
                "pitch": 89,
                "velocity": 101,
                "duration": 0.0477273,
                "tempo": 120.0
            },
            {
                "start_time": 55.1090909,
                "end_time": 55.1568182,
                "pitch": 81,
                "velocity": 101,
                "duration": 0.0477273,
                "tempo": 120.0
            },
            {
                "start_time": 55.2090909,
                "end_time": 55.2568182,
                "pitch": 81,
                "velocity": 101,
                "duration": 0.0477273,
                "tempo": 120.0
            },
            {
                "start_time": 55.3090909,
                "end_time": 55.5090909,
                "pitch": 81,
                "velocity": 101,
                "duration": 0.2,
                "tempo": 120.0
            },
            {
                "start_time": 55.7136364,
                "end_time": 55.7613636,
                "pitch": 89,
                "velocity": 101,
                "duration": 0.0477273,
                "tempo": 120.0
            },
            {
                "start_time": 55.9181818,
                "end_time": 55.9681818,
                "pitch": 81,
                "velocity": 101,
                "duration": 0.05,
                "tempo": 120.0
            },
            {
                "start_time": 56.0204545,
                "end_time": 56.0704545,
                "pitch": 81,
                "velocity": 101,
                "duration": 0.05,
                "tempo": 120.0
            },
            {
                "start_time": 56.1227273,
                "end_time": 56.3227273,
                "pitch": 81,
                "velocity": 101,
                "duration": 0.2,
                "tempo": 120.0
            },
            {
                "start_time": 56.525,
                "end_time": 56.5727273,
                "pitch": 89,
                "velocity": 101,
                "duration": 0.0477273,
                "tempo": 120.0
            },
            {
                "start_time": 56.725,
                "end_time": 56.7727273,
                "pitch": 89,
                "velocity": 101,
                "duration": 0.0477273,
                "tempo": 120.0
            },
            {
                "start_time": 56.825,
                "end_time": 56.8727273,
                "pitch": 89,
                "velocity": 101,
                "duration": 0.0477273,
                "tempo": 120.0
            },
            {
                "start_time": 56.925,
                "end_time": 56.9727273,
                "pitch": 89,
                "velocity": 101,
                "duration": 0.0477273,
                "tempo": 120.0
            },
            {
                "start_time": 57.125,
                "end_time": 57.175,
                "pitch": 89,
                "velocity": 101,
                "duration": 0.05,
                "tempo": 120.0
            },
            {
                "start_time": 57.3272727,
                "end_time": 57.4272727,
                "pitch": 90,
                "velocity": 101,
                "duration": 0.1,
                "tempo": 120.0
            }
        ],
        "Acoustic Grand Piano": [
            {
                "start_time": 3.4340909,
                "end_time": 3.8454545,
                "pitch": 60,
                "velocity": 51,
                "duration": 0.4113636,
                "tempo": 120.0
            },
            {
                "start_time": 3.8454545,
                "end_time": 4.1454545,
                "pitch": 64,
                "velocity": 51,
                "duration": 0.3,
                "tempo": 120.0
            },
            {
                "start_time": 4.1454545,
                "end_time": 4.2454545,
                "pitch": 67,
                "velocity": 51,
                "duration": 0.1,
                "tempo": 120.0
            },
            {
                "start_time": 4.2454545,
                "end_time": 4.8477273,
                "pitch": 72,
                "velocity": 51,
                "duration": 0.6022727,
                "tempo": 120.0
            },
            {
                "start_time": 4.85,
                "end_time": 4.9477273,
                "pitch": 76,
                "velocity": 51,
                "duration": 0.0977273,
                "tempo": 120.0
            },
            {
                "start_time": 4.95,
                "end_time": 5.0477273,
                "pitch": 74,
                "velocity": 51,
                "duration": 0.0977273,
                "tempo": 120.0
            },
            {
                "start_time": 5.05,
                "end_time": 5.15,
                "pitch": 72,
                "velocity": 51,
                "duration": 0.1,
                "tempo": 120.0
            },
            {
                "start_time": 5.25,
                "end_time": 5.35,
                "pitch": 71,
                "velocity": 51,
                "duration": 0.1,
                "tempo": 120.0
            },
            {
                "start_time": 5.4522727,
                "end_time": 5.5522727,
                "pitch": 69,
                "velocity": 51,
                "duration": 0.1,
                "tempo": 120.0
            },
            {
                "start_time": 5.6522727,
                "end_time": 5.7522727,
                "pitch": 71,
                "velocity": 51,
                "duration": 0.1,
                "tempo": 120.0
            },
            {
                "start_time": 5.8522727,
                "end_time": 5.9704545,
                "pitch": 67,
                "velocity": 51,
                "duration": 0.1181818,
                "tempo": 120.0
            },
            {
                "start_time": 5.9704545,
                "end_time": 6.1386364,
                "pitch": 67,
                "velocity": 51,
                "duration": 0.1681818,
                "tempo": 120.0
            },
            {
                "start_time": 5.9704545,
                "end_time": 6.1386364,
                "pitch": 79,
                "velocity": 51,
                "duration": 0.1681818,
                "tempo": 120.0
            },
            {
                "start_time": 6.1386364,
                "end_time": 6.3068182,
                "pitch": 67,
                "velocity": 51,
                "duration": 0.1681818,
                "tempo": 120.0
            },
            {
                "start_time": 6.1386364,
                "end_time": 6.3068182,
                "pitch": 79,
                "velocity": 51,
                "duration": 0.1681818,
                "tempo": 120.0
            },
            {
                "start_time": 6.3068182,
                "end_time": 6.4568182,
                "pitch": 67,
                "velocity": 51,
                "duration": 0.15,
                "tempo": 120.0
            },
            {
                "start_time": 6.4568182,
                "end_time": 6.5590909,
                "pitch": 67,
                "velocity": 51,
                "duration": 0.1022727,
                "tempo": 120.0
            },
            {
                "start_time": 6.5590909,
                "end_time": 6.6590909,
                "pitch": 67,
                "velocity": 51,
                "duration": 0.1,
                "tempo": 120.0
            },
            {
                "start_time": 6.6590909,
                "end_time": 6.7590909,
                "pitch": 74,
                "velocity": 51,
                "duration": 0.1,
                "tempo": 120.0
            },
            {
                "start_time": 6.8590909,
                "end_time": 6.9590909,
                "pitch": 67,
                "velocity": 51,
                "duration": 0.1,
                "tempo": 120.0
            },
            {
                "start_time": 6.9590909,
                "end_time": 7.0590909,
                "pitch": 67,
                "velocity": 51,
                "duration": 0.1,
                "tempo": 120.0
            },
            {
                "start_time": 7.0590909,
                "end_time": 7.1772727,
                "pitch": 67,
                "velocity": 51,
                "duration": 0.1181818,
                "tempo": 120.0
            },
            {
                "start_time": 6.3068182,
                "end_time": 7.1772727,
                "pitch": 79,
                "velocity": 51,
                "duration": 0.8704545,
                "tempo": 120.0
            },
            {
                "start_time": 7.1772727,
                "end_time": 7.3454545,
                "pitch": 67,
                "velocity": 51,
                "duration": 0.1681818,
                "tempo": 120.0
            },
            {
                "start_time": 7.1772727,
                "end_time": 7.3454545,
                "pitch": 79,
                "velocity": 51,
                "duration": 0.1681818,
                "tempo": 120.0
            },
            {
                "start_time": 7.3454545,
                "end_time": 7.4636364,
                "pitch": 67,
                "velocity": 51,
                "duration": 0.1181818,
                "tempo": 120.0
            },
            {
                "start_time": 7.4636364,
                "end_time": 7.5659091,
                "pitch": 74,
                "velocity": 51,
                "duration": 0.1022727,
                "tempo": 120.0
            },
            {
                "start_time": 7.6681818,
                "end_time": 7.7704545,
                "pitch": 67,
                "velocity": 51,
                "duration": 0.1022727,
                "tempo": 120.0
            },
            {
                "start_time": 7.7704545,
                "end_time": 7.875,
                "pitch": 67,
                "velocity": 51,
                "duration": 0.1045455,
                "tempo": 120.0
            },
            {
                "start_time": 7.875,
                "end_time": 7.9886364,
                "pitch": 67,
                "velocity": 51,
                "duration": 0.1136364,
                "tempo": 120.0
            },
            {
                "start_time": 7.3454545,
                "end_time": 7.9886364,
                "pitch": 79,
                "velocity": 51,
                "duration": 0.6431818,
                "tempo": 120.0
            },
            {
                "start_time": 7.9886364,
                "end_time": 8.1522727,
                "pitch": 67,
                "velocity": 51,
                "duration": 0.1636364,
                "tempo": 120.0
            },
            {
                "start_time": 7.9886364,
                "end_time": 8.1522727,
                "pitch": 79,
                "velocity": 51,
                "duration": 0.1636364,
                "tempo": 120.0
            },
            {
                "start_time": 8.1522727,
                "end_time": 8.2659091,
                "pitch": 67,
                "velocity": 51,
                "duration": 0.1136364,
                "tempo": 120.0
            },
            {
                "start_time": 8.2681818,
                "end_time": 8.3681818,
                "pitch": 74,
                "velocity": 51,
                "duration": 0.1,
                "tempo": 120.0
            },
            {
                "start_time": 8.4727273,
                "end_time": 8.575,
                "pitch": 74,
                "velocity": 51,
                "duration": 0.1022727,
                "tempo": 120.0
            },
            {
                "start_time": 8.575,
                "end_time": 8.6772727,
                "pitch": 74,
                "velocity": 51,
                "duration": 0.1022727,
                "tempo": 120.0
            },
            {
                "start_time": 8.6772727,
                "end_time": 8.775,
                "pitch": 74,
                "velocity": 51,
                "duration": 0.0977273,
                "tempo": 120.0
            },
            {
                "start_time": 8.875,
                "end_time": 8.9727273,
                "pitch": 74,
                "velocity": 51,
                "duration": 0.0977273,
                "tempo": 120.0
            },
            {
                "start_time": 9.0704545,
                "end_time": 9.4704545,
                "pitch": 75,
                "velocity": 51,
                "duration": 0.4,
                "tempo": 120.0
            },
            {
                "start_time": 9.4704545,
                "end_time": 9.5386364,
                "pitch": 74,
                "velocity": 51,
                "duration": 0.0681818,
                "tempo": 120.0
            },
            {
                "start_time": 9.8840909,
                "end_time": 10.275,
                "pitch": 60,
                "velocity": 51,
                "duration": 0.3909091,
                "tempo": 120.0
            },
            {
                "start_time": 10.275,
                "end_time": 10.5840909,
                "pitch": 64,
                "velocity": 51,
                "duration": 0.3090909,
                "tempo": 120.0
            },
            {
                "start_time": 10.5840909,
                "end_time": 10.6863636,
                "pitch": 67,
                "velocity": 51,
                "duration": 0.1022727,
                "tempo": 120.0
            },
            {
                "start_time": 10.6863636,
                "end_time": 11.2886364,
                "pitch": 72,
                "velocity": 51,
                "duration": 0.6022727,
                "tempo": 120.0
            },
            {
                "start_time": 11.2909091,
                "end_time": 11.3886364,
                "pitch": 76,
                "velocity": 51,
                "duration": 0.0977273,
                "tempo": 120.0
            },
            {
                "start_time": 11.3909091,
                "end_time": 11.4886364,
                "pitch": 74,
                "velocity": 51,
                "duration": 0.0977273,
                "tempo": 120.0
            },
            {
                "start_time": 11.4909091,
                "end_time": 11.5909091,
                "pitch": 72,
                "velocity": 51,
                "duration": 0.1,
                "tempo": 120.0
            },
            {
                "start_time": 11.6909091,
                "end_time": 11.7909091,
                "pitch": 71,
                "velocity": 51,
                "duration": 0.1,
                "tempo": 120.0
            },
            {
                "start_time": 11.8931818,
                "end_time": 11.9931818,
                "pitch": 72,
                "velocity": 51,
                "duration": 0.1,
                "tempo": 120.0
            },
            {
                "start_time": 12.0954545,
                "end_time": 12.1954545,
                "pitch": 74,
                "velocity": 51,
                "duration": 0.1,
                "tempo": 120.0
            },
            {
                "start_time": 12.2954545,
                "end_time": 12.9,
                "pitch": 76,
                "velocity": 51,
                "duration": 0.6045455,
                "tempo": 120.0
            },
            {
                "start_time": 12.9022727,
                "end_time": 13.0022727,
                "pitch": 76,
                "velocity": 51,
                "duration": 0.1,
                "tempo": 120.0
            },
            {
                "start_time": 13.0022727,
                "end_time": 13.1022727,
                "pitch": 76,
                "velocity": 51,
                "duration": 0.1,
                "tempo": 120.0
            },
            {
                "start_time": 13.1022727,
                "end_time": 13.2022727,
                "pitch": 77,
                "velocity": 51,
                "duration": 0.1,
                "tempo": 120.0
            },
            {
                "start_time": 13.3022727,
                "end_time": 13.4022727,
                "pitch": 69,
                "velocity": 51,
                "duration": 0.1,
                "tempo": 120.0
            },
            {
                "start_time": 13.4022727,
                "end_time": 13.5022727,
                "pitch": 69,
                "velocity": 51,
                "duration": 0.1,
                "tempo": 120.0
            },
            {
                "start_time": 13.5045455,
                "end_time": 13.9068182,
                "pitch": 69,
                "velocity": 51,
                "duration": 0.4022727,
                "tempo": 120.0
            },
            {
                "start_time": 13.9068182,
                "end_time": 14.0090909,
                "pitch": 77,
                "velocity": 51,
                "duration": 0.1022727,
                "tempo": 120.0
            },
            {
                "start_time": 14.1113636,
                "end_time": 14.2136364,
                "pitch": 69,
                "velocity": 51,
                "duration": 0.1022727,
                "tempo": 120.0
            },
            {
                "start_time": 14.2136364,
                "end_time": 14.3181818,
                "pitch": 69,
                "velocity": 51,
                "duration": 0.1045455,
                "tempo": 120.0
            },
            {
                "start_time": 14.3181818,
                "end_time": 14.7113636,
                "pitch": 69,
                "velocity": 51,
                "duration": 0.3931818,
                "tempo": 120.0
            },
            {
                "start_time": 14.7113636,
                "end_time": 14.8113636,
                "pitch": 77,
                "velocity": 51,
                "duration": 0.1,
                "tempo": 120.0
            },
            {
                "start_time": 14.9159091,
                "end_time": 15.0181818,
                "pitch": 77,
                "velocity": 51,
                "duration": 0.1022727,
                "tempo": 120.0
            },
            {
                "start_time": 15.0181818,
                "end_time": 15.1204545,
                "pitch": 77,
                "velocity": 51,
                "duration": 0.1022727,
                "tempo": 120.0
            },
            {
                "start_time": 15.1204545,
                "end_time": 15.2181818,
                "pitch": 77,
                "velocity": 51,
                "duration": 0.0977273,
                "tempo": 120.0
            },
            {
                "start_time": 15.3181818,
                "end_time": 15.4159091,
                "pitch": 77,
                "velocity": 51,
                "duration": 0.0977273,
                "tempo": 120.0
            },
            {
                "start_time": 15.5136364,
                "end_time": 15.7159091,
                "pitch": 78,
                "velocity": 51,
                "duration": 0.2022727,
                "tempo": 120.0
            },
            {
                "start_time": 15.7159091,
                "end_time": 15.8,
                "pitch": 69,
                "velocity": 51,
                "duration": 0.0840909,
                "tempo": 120.0
            },
            {
                "start_time": 15.9181818,
                "end_time": 16.0,
                "pitch": 69,
                "velocity": 51,
                "duration": 0.0818182,
                "tempo": 120.0
            },
            {
                "start_time": 16.1181818,
                "end_time": 16.2022727,
                "pitch": 69,
                "velocity": 51,
                "duration": 0.0840909,
                "tempo": 120.0
            },
            {
                "start_time": 16.3227273,
                "end_time": 16.9227273,
                "pitch": 72,
                "velocity": 51,
                "duration": 0.6,
                "tempo": 120.0
            },
            {
                "start_time": 16.9227273,
                "end_time": 17.125,
                "pitch": 72,
                "velocity": 51,
                "duration": 0.2022727,
                "tempo": 120.0
            },
            {
                "start_time": 17.125,
                "end_time": 17.7272727,
                "pitch": 71,
                "velocity": 51,
                "duration": 0.6022727,
                "tempo": 120.0
            },
            {
                "start_time": 17.7272727,
                "end_time": 17.9272727,
                "pitch": 71,
                "velocity": 51,
                "duration": 0.2,
                "tempo": 120.0
            },
            {
                "start_time": 17.9272727,
                "end_time": 18.5295455,
                "pitch": 69,
                "velocity": 51,
                "duration": 0.6022727,
                "tempo": 120.0
            },
            {
                "start_time": 18.5295455,
                "end_time": 18.7295455,
                "pitch": 69,
                "velocity": 51,
                "duration": 0.2,
                "tempo": 120.0
            },
            {
                "start_time": 18.7295455,
                "end_time": 19.1409091,
                "pitch": 71,
                "velocity": 51,
                "duration": 0.4113636,
                "tempo": 120.0
            },
            {
                "start_time": 19.1409091,
                "end_time": 19.5431818,
                "pitch": 72,
                "velocity": 51,
                "duration": 0.4022727,
                "tempo": 120.0
            },
            {
                "start_time": 19.5431818,
                "end_time": 19.6568182,
                "pitch": 67,
                "velocity": 51,
                "duration": 0.1136364,
                "tempo": 120.0
            },
            {
                "start_time": 8.1522727,
                "end_time": 19.6568182,
                "pitch": 79,
                "velocity": 51,
                "duration": 11.5045455,
                "tempo": 120.0
            },
            {
                "start_time": 19.6568182,
                "end_time": 19.8204545,
                "pitch": 67,
                "velocity": 51,
                "duration": 0.1636364,
                "tempo": 120.0
            },
            {
                "start_time": 19.6568182,
                "end_time": 19.8204545,
                "pitch": 79,
                "velocity": 51,
                "duration": 0.1636364,
                "tempo": 120.0
            },
            {
                "start_time": 19.8204545,
                "end_time": 19.9863636,
                "pitch": 67,
                "velocity": 51,
                "duration": 0.1659091,
                "tempo": 120.0
            },
            {
                "start_time": 19.8204545,
                "end_time": 19.9863636,
                "pitch": 79,
                "velocity": 51,
                "duration": 0.1659091,
                "tempo": 120.0
            },
            {
                "start_time": 19.9863636,
                "end_time": 20.1522727,
                "pitch": 67,
                "velocity": 51,
                "duration": 0.1659091,
                "tempo": 120.0
            },
            {
                "start_time": 19.9863636,
                "end_time": 20.1522727,
                "pitch": 79,
                "velocity": 51,
                "duration": 0.1659091,
                "tempo": 120.0
            },
            {
                "start_time": 20.1522727,
                "end_time": 20.3204545,
                "pitch": 67,
                "velocity": 51,
                "duration": 0.1681818,
                "tempo": 120.0
            },
            {
                "start_time": 20.1522727,
                "end_time": 20.3204545,
                "pitch": 79,
                "velocity": 51,
                "duration": 0.1681818,
                "tempo": 120.0
            },
            {
                "start_time": 20.3204545,
                "end_time": 20.4863636,
                "pitch": 67,
                "velocity": 51,
                "duration": 0.1659091,
                "tempo": 120.0
            },
            {
                "start_time": 20.3204545,
                "end_time": 20.4863636,
                "pitch": 79,
                "velocity": 51,
                "duration": 0.1659091,
                "tempo": 120.0
            },
            {
                "start_time": 20.4863636,
                "end_time": 20.6522727,
                "pitch": 67,
                "velocity": 51,
                "duration": 0.1659091,
                "tempo": 120.0
            },
            {
                "start_time": 20.4863636,
                "end_time": 20.6522727,
                "pitch": 79,
                "velocity": 51,
                "duration": 0.1659091,
                "tempo": 120.0
            },
            {
                "start_time": 20.6522727,
                "end_time": 20.7363636,
                "pitch": 67,
                "velocity": 51,
                "duration": 0.0840909,
                "tempo": 120.0
            },
            {
                "start_time": 20.7386364,
                "end_time": 21.1477273,
                "pitch": 74,
                "velocity": 51,
                "duration": 0.4090909,
                "tempo": 120.0
            },
            {
                "start_time": 21.15,
                "end_time": 21.5522727,
                "pitch": 74,
                "velocity": 51,
                "duration": 0.4022727,
                "tempo": 120.0
            },
            {
                "start_time": 21.5522727,
                "end_time": 21.7522727,
                "pitch": 71,
                "velocity": 51,
                "duration": 0.2,
                "tempo": 120.0
            },
            {
                "start_time": 21.7522727,
                "end_time": 21.8681818,
                "pitch": 67,
                "velocity": 51,
                "duration": 0.1159091,
                "tempo": 120.0
            },
            {
                "start_time": 20.6522727,
                "end_time": 21.8681818,
                "pitch": 79,
                "velocity": 51,
                "duration": 1.2159091,
                "tempo": 120.0
            },
            {
                "start_time": 21.8681818,
                "end_time": 22.0363636,
                "pitch": 67,
                "velocity": 51,
                "duration": 0.1681818,
                "tempo": 120.0
            },
            {
                "start_time": 21.8681818,
                "end_time": 22.0363636,
                "pitch": 79,
                "velocity": 51,
                "duration": 0.1681818,
                "tempo": 120.0
            },
            {
                "start_time": 22.0363636,
                "end_time": 22.1545455,
                "pitch": 67,
                "velocity": 51,
                "duration": 0.1181818,
                "tempo": 120.0
            },
            {
                "start_time": 22.1545455,
                "end_time": 22.2704545,
                "pitch": 67,
                "velocity": 51,
                "duration": 0.1159091,
                "tempo": 120.0
            },
            {
                "start_time": 22.0363636,
                "end_time": 22.2704545,
                "pitch": 79,
                "velocity": 51,
                "duration": 0.2340909,
                "tempo": 120.0
            },
            {
                "start_time": 22.2704545,
                "end_time": 22.3568182,
                "pitch": 67,
                "velocity": 51,
                "duration": 0.0863636,
                "tempo": 120.0
            },
            {
                "start_time": 22.3568182,
                "end_time": 22.4727273,
                "pitch": 67,
                "velocity": 51,
                "duration": 0.1159091,
                "tempo": 120.0
            },
            {
                "start_time": 22.2704545,
                "end_time": 22.4727273,
                "pitch": 79,
                "velocity": 51,
                "duration": 0.2022727,
                "tempo": 120.0
            },
            {
                "start_time": 22.4727273,
                "end_time": 22.5568182,
                "pitch": 67,
                "velocity": 51,
                "duration": 0.0840909,
                "tempo": 120.0
            },
            {
                "start_time": 22.5568182,
                "end_time": 22.6727273,
                "pitch": 67,
                "velocity": 51,
                "duration": 0.1159091,
                "tempo": 120.0
            },
            {
                "start_time": 22.4727273,
                "end_time": 22.6727273,
                "pitch": 79,
                "velocity": 51,
                "duration": 0.2,
                "tempo": 120.0
            },
            {
                "start_time": 22.6727273,
                "end_time": 22.7568182,
                "pitch": 67,
                "velocity": 51,
                "duration": 0.0840909,
                "tempo": 120.0
            },
            {
                "start_time": 22.7568182,
                "end_time": 23.1568182,
                "pitch": 76,
                "velocity": 51,
                "duration": 0.4,
                "tempo": 120.0
            },
            {
                "start_time": 23.1568182,
                "end_time": 23.3590909,
                "pitch": 74,
                "velocity": 51,
                "duration": 0.2022727,
                "tempo": 120.0
            },
            {
                "start_time": 23.3590909,
                "end_time": 23.7590909,
                "pitch": 72,
                "velocity": 51,
                "duration": 0.4,
                "tempo": 120.0
            },
            {
                "start_time": 23.7613636,
                "end_time": 23.9613636,
                "pitch": 72,
                "velocity": 51,
                "duration": 0.2,
                "tempo": 120.0
            },
            {
                "start_time": 23.9613636,
                "end_time": 24.1613636,
                "pitch": 72,
                "velocity": 51,
                "duration": 0.2,
                "tempo": 120.0
            },
            {
                "start_time": 24.1613636,
                "end_time": 24.3636364,
                "pitch": 72,
                "velocity": 51,
                "duration": 0.2022727,
                "tempo": 120.0
            },
            {
                "start_time": 24.3636364,
                "end_time": 24.5636364,
                "pitch": 71,
                "velocity": 51,
                "duration": 0.2,
                "tempo": 120.0
            },
            {
                "start_time": 24.5636364,
                "end_time": 24.7636364,
                "pitch": 72,
                "velocity": 51,
                "duration": 0.2,
                "tempo": 120.0
            },
            {
                "start_time": 24.7636364,
                "end_time": 24.9636364,
                "pitch": 71,
                "velocity": 51,
                "duration": 0.2,
                "tempo": 120.0
            },
            {
                "start_time": 24.9659091,
                "end_time": 25.3659091,
                "pitch": 69,
                "velocity": 51,
                "duration": 0.4,
                "tempo": 120.0
            },
            {
                "start_time": 25.3659091,
                "end_time": 25.5681818,
                "pitch": 69,
                "velocity": 51,
                "duration": 0.2022727,
                "tempo": 120.0
            },
            {
                "start_time": 25.5681818,
                "end_time": 25.7727273,
                "pitch": 69,
                "velocity": 51,
                "duration": 0.2045455,
                "tempo": 120.0
            },
            {
                "start_time": 25.7727273,
                "end_time": 25.9795455,
                "pitch": 69,
                "velocity": 51,
                "duration": 0.2068182,
                "tempo": 120.0
            },
            {
                "start_time": 25.9795455,
                "end_time": 26.1795455,
                "pitch": 74,
                "velocity": 51,
                "duration": 0.2,
                "tempo": 120.0
            },
            {
                "start_time": 26.1795455,
                "end_time": 26.2795455,
                "pitch": 67,
                "velocity": 51,
                "duration": 0.1,
                "tempo": 120.0
            },
            {
                "start_time": 26.2795455,
                "end_time": 26.3795455,
                "pitch": 67,
                "velocity": 51,
                "duration": 0.1,
                "tempo": 120.0
            },
            {
                "start_time": 26.3795455,
                "end_time": 26.4977273,
                "pitch": 67,
                "velocity": 51,
                "duration": 0.1181818,
                "tempo": 120.0
            },
            {
                "start_time": 22.6727273,
                "end_time": 26.4977273,
                "pitch": 79,
                "velocity": 51,
                "duration": 3.825,
                "tempo": 120.0
            },
            {
                "start_time": 26.4977273,
                "end_time": 26.6636364,
                "pitch": 67,
                "velocity": 51,
                "duration": 0.1659091,
                "tempo": 120.0
            },
            {
                "start_time": 26.4977273,
                "end_time": 26.6659091,
                "pitch": 79,
                "velocity": 51,
                "duration": 0.1681818,
                "tempo": 120.0
            },
            {
                "start_time": 26.6636364,
                "end_time": 26.6659091,
                "pitch": 79,
                "velocity": 51,
                "duration": 0.0022727,
                "tempo": 120.0
            },
            {
                "start_time": 26.6659091,
                "end_time": 26.7840909,
                "pitch": 67,
                "velocity": 51,
                "duration": 0.1181818,
                "tempo": 120.0
            },
            {
                "start_time": 26.7840909,
                "end_time": 26.9886364,
                "pitch": 74,
                "velocity": 51,
                "duration": 0.2045455,
                "tempo": 120.0
            },
            {
                "start_time": 26.9886364,
                "end_time": 27.0909091,
                "pitch": 67,
                "velocity": 51,
                "duration": 0.1022727,
                "tempo": 120.0
            },
            {
                "start_time": 27.0909091,
                "end_time": 27.1954545,
                "pitch": 67,
                "velocity": 51,
                "duration": 0.1045455,
                "tempo": 120.0
            },
            {
                "start_time": 27.1954545,
                "end_time": 27.3090909,
                "pitch": 67,
                "velocity": 51,
                "duration": 0.1136364,
                "tempo": 120.0
            },
            {
                "start_time": 27.3090909,
                "end_time": 27.4727273,
                "pitch": 67,
                "velocity": 51,
                "duration": 0.1636364,
                "tempo": 120.0
            },
            {
                "start_time": 27.3090909,
                "end_time": 27.4727273,
                "pitch": 79,
                "velocity": 51,
                "duration": 0.1636364,
                "tempo": 120.0
            },
            {
                "start_time": 27.4727273,
                "end_time": 27.5863636,
                "pitch": 67,
                "velocity": 51,
                "duration": 0.1136364,
                "tempo": 120.0
            },
            {
                "start_time": 27.5886364,
                "end_time": 27.6886364,
                "pitch": 67,
                "velocity": 51,
                "duration": 0.1,
                "tempo": 120.0
            },
            {
                "start_time": 27.7931818,
                "end_time": 27.8954545,
                "pitch": 67,
                "velocity": 51,
                "duration": 0.1022727,
                "tempo": 120.0
            },
            {
                "start_time": 27.9977273,
                "end_time": 28.0954545,
                "pitch": 69,
                "velocity": 51,
                "duration": 0.0977273,
                "tempo": 120.0
            },
            {
                "start_time": 28.1954545,
                "end_time": 28.2931818,
                "pitch": 71,
                "velocity": 51,
                "duration": 0.0977273,
                "tempo": 120.0
            },
            {
                "start_time": 28.3909091,
                "end_time": 28.4909091,
                "pitch": 72,
                "velocity": 51,
                "duration": 0.1,
                "tempo": 120.0
            },
            {
                "start_time": 28.5931818,
                "end_time": 28.6931818,
                "pitch": 67,
                "velocity": 51,
                "duration": 0.1,
                "tempo": 120.0
            },
            {
                "start_time": 28.7954545,
                "end_time": 28.8931818,
                "pitch": 72,
                "velocity": 51,
                "duration": 0.0977273,
                "tempo": 120.0
            }
        ],
        "Acoustic Guitar (nylon)": [
            {
                "start_time": 29.1954545,
                "end_time": 29.2431818,
                "pitch": 71,
                "velocity": 80,
                "duration": 0.0477273,
                "tempo": 120.0
            },
            {
                "start_time": 29.2431818,
                "end_time": 29.2931818,
                "pitch": 72,
                "velocity": 80,
                "duration": 0.05,
                "tempo": 120.0
            },
            {
                "start_time": 29.2931818,
                "end_time": 29.3431818,
                "pitch": 71,
                "velocity": 80,
                "duration": 0.05,
                "tempo": 120.0
            },
            {
                "start_time": 29.2431818,
                "end_time": 29.3431818,
                "pitch": 76,
                "velocity": 80,
                "duration": 0.1,
                "tempo": 120.0
            },
            {
                "start_time": 29.2931818,
                "end_time": 29.3931818,
                "pitch": 56,
                "velocity": 80,
                "duration": 0.1,
                "tempo": 120.0
            },
            {
                "start_time": 29.3431818,
                "end_time": 29.3931818,
                "pitch": 72,
                "velocity": 80,
                "duration": 0.05,
                "tempo": 120.0
            },
            {
                "start_time": 29.3931818,
                "end_time": 29.4431818,
                "pitch": 71,
                "velocity": 80,
                "duration": 0.05,
                "tempo": 120.0
            },
            {
                "start_time": 29.3431818,
                "end_time": 29.4431818,
                "pitch": 76,
                "velocity": 80,
                "duration": 0.1,
                "tempo": 120.0
            },
            {
                "start_time": 29.3931818,
                "end_time": 29.4954545,
                "pitch": 56,
                "velocity": 80,
                "duration": 0.1022727,
                "tempo": 120.0
            },
            {
                "start_time": 29.4431818,
                "end_time": 29.4954545,
                "pitch": 72,
                "velocity": 80,
                "duration": 0.0522727,
                "tempo": 120.0
            },
            {
                "start_time": 29.4954545,
                "end_time": 29.5454545,
                "pitch": 71,
                "velocity": 80,
                "duration": 0.05,
                "tempo": 120.0
            },
            {
                "start_time": 29.4431818,
                "end_time": 29.5454545,
                "pitch": 76,
                "velocity": 80,
                "duration": 0.1022727,
                "tempo": 120.0
            },
            {
                "start_time": 29.4954545,
                "end_time": 29.5954545,
                "pitch": 56,
                "velocity": 80,
                "duration": 0.1,
                "tempo": 120.0
            },
            {
                "start_time": 29.5454545,
                "end_time": 29.5954545,
                "pitch": 72,
                "velocity": 80,
                "duration": 0.05,
                "tempo": 120.0
            },
            {
                "start_time": 29.5954545,
                "end_time": 29.6454545,
                "pitch": 71,
                "velocity": 80,
                "duration": 0.05,
                "tempo": 120.0
            },
            {
                "start_time": 29.5454545,
                "end_time": 29.6454545,
                "pitch": 76,
                "velocity": 80,
                "duration": 0.1,
                "tempo": 120.0
            },
            {
                "start_time": 29.5954545,
                "end_time": 29.6977273,
                "pitch": 56,
                "velocity": 80,
                "duration": 0.1022727,
                "tempo": 120.0
            },
            {
                "start_time": 29.6454545,
                "end_time": 29.6977273,
                "pitch": 72,
                "velocity": 80,
                "duration": 0.0522727,
                "tempo": 120.0
            },
            {
                "start_time": 29.6977273,
                "end_time": 29.7477273,
                "pitch": 71,
                "velocity": 80,
                "duration": 0.05,
                "tempo": 120.0
            },
            {
                "start_time": 29.6454545,
                "end_time": 29.7477273,
                "pitch": 76,
                "velocity": 80,
                "duration": 0.1022727,
                "tempo": 120.0
            },
            {
                "start_time": 29.6977273,
                "end_time": 29.8,
                "pitch": 56,
                "velocity": 80,
                "duration": 0.1022727,
                "tempo": 120.0
            },
            {
                "start_time": 29.7477273,
                "end_time": 29.8,
                "pitch": 72,
                "velocity": 80,
                "duration": 0.0522727,
                "tempo": 120.0
            },
            {
                "start_time": 29.8,
                "end_time": 29.8522727,
                "pitch": 71,
                "velocity": 80,
                "duration": 0.0522727,
                "tempo": 120.0
            },
            {
                "start_time": 29.7477273,
                "end_time": 29.8522727,
                "pitch": 76,
                "velocity": 80,
                "duration": 0.1045455,
                "tempo": 120.0
            },
            {
                "start_time": 29.8,
                "end_time": 29.9022727,
                "pitch": 56,
                "velocity": 80,
                "duration": 0.1022727,
                "tempo": 120.0
            },
            {
                "start_time": 29.8522727,
                "end_time": 29.9022727,
                "pitch": 72,
                "velocity": 80,
                "duration": 0.05,
                "tempo": 120.0
            },
            {
                "start_time": 29.9022727,
                "end_time": 29.9545455,
                "pitch": 71,
                "velocity": 80,
                "duration": 0.0522727,
                "tempo": 120.0
            },
            {
                "start_time": 29.8522727,
                "end_time": 29.9545455,
                "pitch": 76,
                "velocity": 80,
                "duration": 0.1022727,
                "tempo": 120.0
            },
            {
                "start_time": 29.9545455,
                "end_time": 30.0068182,
                "pitch": 72,
                "velocity": 80,
                "duration": 0.0522727,
                "tempo": 120.0
            },
            {
                "start_time": 30.0068182,
                "end_time": 30.0568182,
                "pitch": 71,
                "velocity": 80,
                "duration": 0.05,
                "tempo": 120.0
            },
            {
                "start_time": 29.9545455,
                "end_time": 30.0568182,
                "pitch": 76,
                "velocity": 80,
                "duration": 0.1022727,
                "tempo": 120.0
            },
            {
                "start_time": 29.9022727,
                "end_time": 30.1068182,
                "pitch": 56,
                "velocity": 80,
                "duration": 0.2045455,
                "tempo": 120.0
            },
            {
                "start_time": 30.0568182,
                "end_time": 30.1068182,
                "pitch": 72,
                "velocity": 80,
                "duration": 0.05,
                "tempo": 120.0
            },
            {
                "start_time": 30.1068182,
                "end_time": 30.1568182,
                "pitch": 71,
                "velocity": 80,
                "duration": 0.05,
                "tempo": 120.0
            },
            {
                "start_time": 30.0568182,
                "end_time": 30.1568182,
                "pitch": 76,
                "velocity": 80,
                "duration": 0.1,
                "tempo": 120.0
            },
            {
                "start_time": 30.1068182,
                "end_time": 30.2090909,
                "pitch": 56,
                "velocity": 80,
                "duration": 0.1022727,
                "tempo": 120.0
            },
            {
                "start_time": 30.1568182,
                "end_time": 30.2090909,
                "pitch": 72,
                "velocity": 80,
                "duration": 0.0522727,
                "tempo": 120.0
            },
            {
                "start_time": 30.2090909,
                "end_time": 30.2568182,
                "pitch": 71,
                "velocity": 80,
                "duration": 0.0477273,
                "tempo": 120.0
            },
            {
                "start_time": 30.1568182,
                "end_time": 30.2568182,
                "pitch": 76,
                "velocity": 80,
                "duration": 0.1,
                "tempo": 120.0
            },
            {
                "start_time": 30.2090909,
                "end_time": 30.3090909,
                "pitch": 56,
                "velocity": 80,
                "duration": 0.1,
                "tempo": 120.0
            },
            {
                "start_time": 30.2568182,
                "end_time": 30.3090909,
                "pitch": 72,
                "velocity": 80,
                "duration": 0.0522727,
                "tempo": 120.0
            },
            {
                "start_time": 30.3090909,
                "end_time": 30.3590909,
                "pitch": 71,
                "velocity": 80,
                "duration": 0.05,
                "tempo": 120.0
            },
            {
                "start_time": 30.2568182,
                "end_time": 30.3590909,
                "pitch": 76,
                "velocity": 80,
                "duration": 0.1022727,
                "tempo": 120.0
            },
            {
                "start_time": 30.3090909,
                "end_time": 30.4090909,
                "pitch": 56,
                "velocity": 80,
                "duration": 0.1,
                "tempo": 120.0
            },
            {
                "start_time": 30.3590909,
                "end_time": 30.4090909,
                "pitch": 72,
                "velocity": 80,
                "duration": 0.05,
                "tempo": 120.0
            },
            {
                "start_time": 30.4090909,
                "end_time": 30.4590909,
                "pitch": 71,
                "velocity": 80,
                "duration": 0.05,
                "tempo": 120.0
            },
            {
                "start_time": 30.3590909,
                "end_time": 30.4590909,
                "pitch": 76,
                "velocity": 80,
                "duration": 0.1,
                "tempo": 120.0
            },
            {
                "start_time": 30.4090909,
                "end_time": 30.5068182,
                "pitch": 56,
                "velocity": 80,
                "duration": 0.0977273,
                "tempo": 120.0
            },
            {
                "start_time": 30.4590909,
                "end_time": 30.5068182,
                "pitch": 72,
                "velocity": 80,
                "duration": 0.0477273,
                "tempo": 120.0
            },
            {
                "start_time": 30.5068182,
                "end_time": 30.5568182,
                "pitch": 71,
                "velocity": 80,
                "duration": 0.05,
                "tempo": 120.0
            },
            {
                "start_time": 30.4590909,
                "end_time": 30.5568182,
                "pitch": 76,
                "velocity": 80,
                "duration": 0.0977273,
                "tempo": 120.0
            },
            {
                "start_time": 30.5068182,
                "end_time": 30.6068182,
                "pitch": 56,
                "velocity": 80,
                "duration": 0.1,
                "tempo": 120.0
            },
            {
                "start_time": 30.5568182,
                "end_time": 30.6068182,
                "pitch": 72,
                "velocity": 80,
                "duration": 0.05,
                "tempo": 120.0
            },
            {
                "start_time": 30.6068182,
                "end_time": 30.6545455,
                "pitch": 71,
                "velocity": 80,
                "duration": 0.0477273,
                "tempo": 120.0
            },
            {
                "start_time": 30.5568182,
                "end_time": 30.6545455,
                "pitch": 76,
                "velocity": 80,
                "duration": 0.0977273,
                "tempo": 120.0
            },
            {
                "start_time": 30.6068182,
                "end_time": 30.7045455,
                "pitch": 56,
                "velocity": 80,
                "duration": 0.0977273,
                "tempo": 120.0
            },
            {
                "start_time": 30.6545455,
                "end_time": 30.7045455,
                "pitch": 72,
                "velocity": 80,
                "duration": 0.05,
                "tempo": 120.0
            },
            {
                "start_time": 30.7045455,
                "end_time": 30.7522727,
                "pitch": 71,
                "velocity": 80,
                "duration": 0.0477273,
                "tempo": 120.0
            },
            {
                "start_time": 30.6545455,
                "end_time": 30.7522727,
                "pitch": 76,
                "velocity": 80,
                "duration": 0.0977273,
                "tempo": 120.0
            },
            {
                "start_time": 30.7522727,
                "end_time": 30.8022727,
                "pitch": 72,
                "velocity": 80,
                "duration": 0.05,
                "tempo": 120.0
            },
            {
                "start_time": 30.8022727,
                "end_time": 30.8522727,
                "pitch": 71,
                "velocity": 80,
                "duration": 0.05,
                "tempo": 120.0
            },
            {
                "start_time": 30.7522727,
                "end_time": 30.8522727,
                "pitch": 76,
                "velocity": 80,
                "duration": 0.1,
                "tempo": 120.0
            },
            {
                "start_time": 30.7045455,
                "end_time": 30.9022727,
                "pitch": 56,
                "velocity": 80,
                "duration": 0.1977273,
                "tempo": 120.0
            },
            {
                "start_time": 30.8522727,
                "end_time": 30.9022727,
                "pitch": 72,
                "velocity": 80,
                "duration": 0.05,
                "tempo": 120.0
            },
            {
                "start_time": 30.9022727,
                "end_time": 30.9522727,
                "pitch": 71,
                "velocity": 80,
                "duration": 0.05,
                "tempo": 120.0
            },
            {
                "start_time": 30.8522727,
                "end_time": 30.9522727,
                "pitch": 76,
                "velocity": 80,
                "duration": 0.1,
                "tempo": 120.0
            },
            {
                "start_time": 30.9022727,
                "end_time": 31.0022727,
                "pitch": 56,
                "velocity": 80,
                "duration": 0.1,
                "tempo": 120.0
            },
            {
                "start_time": 30.9522727,
                "end_time": 31.0022727,
                "pitch": 72,
                "velocity": 80,
                "duration": 0.05,
                "tempo": 120.0
            },
            {
                "start_time": 31.0022727,
                "end_time": 31.0522727,
                "pitch": 71,
                "velocity": 80,
                "duration": 0.05,
                "tempo": 120.0
            },
            {
                "start_time": 30.9522727,
                "end_time": 31.0522727,
                "pitch": 76,
                "velocity": 80,
                "duration": 0.1,
                "tempo": 120.0
            },
            {
                "start_time": 31.0022727,
                "end_time": 31.1022727,
                "pitch": 56,
                "velocity": 80,
                "duration": 0.1,
                "tempo": 120.0
            },
            {
                "start_time": 31.0522727,
                "end_time": 31.1022727,
                "pitch": 72,
                "velocity": 80,
                "duration": 0.05,
                "tempo": 120.0
            },
            {
                "start_time": 31.1022727,
                "end_time": 31.1522727,
                "pitch": 71,
                "velocity": 80,
                "duration": 0.05,
                "tempo": 120.0
            },
            {
                "start_time": 31.0522727,
                "end_time": 31.1522727,
                "pitch": 76,
                "velocity": 80,
                "duration": 0.1,
                "tempo": 120.0
            },
            {
                "start_time": 31.1022727,
                "end_time": 31.2022727,
                "pitch": 56,
                "velocity": 80,
                "duration": 0.1,
                "tempo": 120.0
            },
            {
                "start_time": 31.1522727,
                "end_time": 31.2022727,
                "pitch": 72,
                "velocity": 80,
                "duration": 0.05,
                "tempo": 120.0
            },
            {
                "start_time": 31.2022727,
                "end_time": 31.2522727,
                "pitch": 71,
                "velocity": 80,
                "duration": 0.05,
                "tempo": 120.0
            },
            {
                "start_time": 31.1522727,
                "end_time": 31.2545455,
                "pitch": 76,
                "velocity": 80,
                "duration": 0.1022727,
                "tempo": 120.0
            },
            {
                "start_time": 31.2522727,
                "end_time": 31.2545455,
                "pitch": 76,
                "velocity": 80,
                "duration": 0.0022727,
                "tempo": 120.0
            },
            {
                "start_time": 31.2022727,
                "end_time": 31.3045455,
                "pitch": 56,
                "velocity": 80,
                "duration": 0.1022727,
                "tempo": 120.0
            },
            {
                "start_time": 31.2545455,
                "end_time": 31.3045455,
                "pitch": 72,
                "velocity": 80,
                "duration": 0.05,
                "tempo": 120.0
            },
            {
                "start_time": 31.3045455,
                "end_time": 31.3568182,
                "pitch": 71,
                "velocity": 80,
                "duration": 0.0522727,
                "tempo": 120.0
            },
            {
                "start_time": 31.3045455,
                "end_time": 31.4068182,
                "pitch": 56,
                "velocity": 80,
                "duration": 0.1022727,
                "tempo": 120.0
            },
            {
                "start_time": 31.3568182,
                "end_time": 31.4068182,
                "pitch": 72,
                "velocity": 80,
                "duration": 0.05,
                "tempo": 120.0
            },
            {
                "start_time": 31.4068182,
                "end_time": 31.4590909,
                "pitch": 71,
                "velocity": 80,
                "duration": 0.0522727,
                "tempo": 120.0
            },
            {
                "start_time": 31.3568182,
                "end_time": 31.4590909,
                "pitch": 76,
                "velocity": 80,
                "duration": 0.1022727,
                "tempo": 120.0
            },
            {
                "start_time": 31.4068182,
                "end_time": 31.5113636,
                "pitch": 56,
                "velocity": 80,
                "duration": 0.1045455,
                "tempo": 120.0
            },
            {
                "start_time": 31.4590909,
                "end_time": 31.5113636,
                "pitch": 72,
                "velocity": 80,
                "duration": 0.0522727,
                "tempo": 120.0
            },
            {
                "start_time": 31.5113636,
                "end_time": 31.5613636,
                "pitch": 71,
                "velocity": 80,
                "duration": 0.05,
                "tempo": 120.0
            },
            {
                "start_time": 31.4590909,
                "end_time": 31.5613636,
                "pitch": 76,
                "velocity": 80,
                "duration": 0.1022727,
                "tempo": 120.0
            },
            {
                "start_time": 31.5613636,
                "end_time": 31.6136364,
                "pitch": 72,
                "velocity": 80,
                "duration": 0.0522727,
                "tempo": 120.0
            },
            {
                "start_time": 31.6159091,
                "end_time": 31.6636364,
                "pitch": 71,
                "velocity": 80,
                "duration": 0.0477273,
                "tempo": 120.0
            },
            {
                "start_time": 31.5613636,
                "end_time": 31.6636364,
                "pitch": 76,
                "velocity": 80,
                "duration": 0.1022727,
                "tempo": 120.0
            },
            {
                "start_time": 31.5113636,
                "end_time": 31.7136364,
                "pitch": 56,
                "velocity": 80,
                "duration": 0.2022727,
                "tempo": 120.0
            },
            {
                "start_time": 31.6636364,
                "end_time": 31.7136364,
                "pitch": 72,
                "velocity": 80,
                "duration": 0.05,
                "tempo": 120.0
            },
            {
                "start_time": 31.7136364,
                "end_time": 31.7636364,
                "pitch": 71,
                "velocity": 80,
                "duration": 0.05,
                "tempo": 120.0
            },
            {
                "start_time": 31.6636364,
                "end_time": 31.7636364,
                "pitch": 76,
                "velocity": 80,
                "duration": 0.1,
                "tempo": 120.0
            },
            {
                "start_time": 31.7136364,
                "end_time": 31.8136364,
                "pitch": 56,
                "velocity": 80,
                "duration": 0.1,
                "tempo": 120.0
            },
            {
                "start_time": 31.7636364,
                "end_time": 31.8136364,
                "pitch": 72,
                "velocity": 80,
                "duration": 0.05,
                "tempo": 120.0
            },
            {
                "start_time": 31.8136364,
                "end_time": 31.8636364,
                "pitch": 71,
                "velocity": 80,
                "duration": 0.05,
                "tempo": 120.0
            },
            {
                "start_time": 31.7636364,
                "end_time": 31.8636364,
                "pitch": 76,
                "velocity": 80,
                "duration": 0.1,
                "tempo": 120.0
            },
            {
                "start_time": 31.8136364,
                "end_time": 31.9136364,
                "pitch": 56,
                "velocity": 80,
                "duration": 0.1,
                "tempo": 120.0
            },
            {
                "start_time": 31.8636364,
                "end_time": 31.9136364,
                "pitch": 72,
                "velocity": 80,
                "duration": 0.05,
                "tempo": 120.0
            },
            {
                "start_time": 31.9136364,
                "end_time": 31.9636364,
                "pitch": 71,
                "velocity": 80,
                "duration": 0.05,
                "tempo": 120.0
            },
            {
                "start_time": 31.8636364,
                "end_time": 31.9636364,
                "pitch": 76,
                "velocity": 80,
                "duration": 0.1,
                "tempo": 120.0
            },
            {
                "start_time": 31.9136364,
                "end_time": 32.0159091,
                "pitch": 56,
                "velocity": 80,
                "duration": 0.1022727,
                "tempo": 120.0
            },
            {
                "start_time": 31.9636364,
                "end_time": 32.0159091,
                "pitch": 72,
                "velocity": 80,
                "duration": 0.0522727,
                "tempo": 120.0
            },
            {
                "start_time": 32.0159091,
                "end_time": 32.0636364,
                "pitch": 71,
                "velocity": 80,
                "duration": 0.0477273,
                "tempo": 120.0
            },
            {
                "start_time": 31.9636364,
                "end_time": 32.0636364,
                "pitch": 76,
                "velocity": 80,
                "duration": 0.1,
                "tempo": 120.0
            },
            {
                "start_time": 32.0159091,
                "end_time": 32.1113636,
                "pitch": 56,
                "velocity": 80,
                "duration": 0.0954545,
                "tempo": 120.0
            },
            {
                "start_time": 32.0636364,
                "end_time": 32.1113636,
                "pitch": 72,
                "velocity": 80,
                "duration": 0.0477273,
                "tempo": 120.0
            },
            {
                "start_time": 32.1113636,
                "end_time": 32.1613636,
                "pitch": 71,
                "velocity": 80,
                "duration": 0.05,
                "tempo": 120.0
            },
            {
                "start_time": 32.0636364,
                "end_time": 32.1613636,
                "pitch": 76,
                "velocity": 80,
                "duration": 0.0977273,
                "tempo": 120.0
            },
            {
                "start_time": 32.1113636,
                "end_time": 32.2113636,
                "pitch": 56,
                "velocity": 80,
                "duration": 0.1,
                "tempo": 120.0
            },
            {
                "start_time": 32.1613636,
                "end_time": 32.2113636,
                "pitch": 72,
                "velocity": 80,
                "duration": 0.05,
                "tempo": 120.0
            },
            {
                "start_time": 32.2113636,
                "end_time": 32.2590909,
                "pitch": 71,
                "velocity": 80,
                "duration": 0.0477273,
                "tempo": 120.0
            },
            {
                "start_time": 32.1613636,
                "end_time": 32.2590909,
                "pitch": 76,
                "velocity": 80,
                "duration": 0.0977273,
                "tempo": 120.0
            },
            {
                "start_time": 32.2113636,
                "end_time": 32.3090909,
                "pitch": 56,
                "velocity": 80,
                "duration": 0.0977273,
                "tempo": 120.0
            },
            {
                "start_time": 32.2590909,
                "end_time": 32.3090909,
                "pitch": 72,
                "velocity": 80,
                "duration": 0.05,
                "tempo": 120.0
            },
            {
                "start_time": 32.3090909,
                "end_time": 32.3568182,
                "pitch": 71,
                "velocity": 80,
                "duration": 0.0477273,
                "tempo": 120.0
            },
            {
                "start_time": 32.2590909,
                "end_time": 32.3568182,
                "pitch": 76,
                "velocity": 80,
                "duration": 0.0977273,
                "tempo": 120.0
            },
            {
                "start_time": 32.3568182,
                "end_time": 32.4068182,
                "pitch": 72,
                "velocity": 80,
                "duration": 0.05,
                "tempo": 120.0
            },
            {
                "start_time": 32.4090909,
                "end_time": 32.4568182,
                "pitch": 71,
                "velocity": 80,
                "duration": 0.0477273,
                "tempo": 120.0
            },
            {
                "start_time": 32.3568182,
                "end_time": 32.4568182,
                "pitch": 76,
                "velocity": 80,
                "duration": 0.1,
                "tempo": 120.0
            },
            {
                "start_time": 32.3090909,
                "end_time": 32.5068182,
                "pitch": 56,
                "velocity": 80,
                "duration": 0.1977273,
                "tempo": 120.0
            },
            {
                "start_time": 32.4568182,
                "end_time": 32.5068182,
                "pitch": 72,
                "velocity": 80,
                "duration": 0.05,
                "tempo": 120.0
            },
            {
                "start_time": 32.5068182,
                "end_time": 32.5568182,
                "pitch": 71,
                "velocity": 80,
                "duration": 0.05,
                "tempo": 120.0
            },
            {
                "start_time": 32.4568182,
                "end_time": 32.5568182,
                "pitch": 76,
                "velocity": 80,
                "duration": 0.1,
                "tempo": 120.0
            },
            {
                "start_time": 32.5068182,
                "end_time": 32.6068182,
                "pitch": 56,
                "velocity": 80,
                "duration": 0.1,
                "tempo": 120.0
            },
            {
                "start_time": 32.5568182,
                "end_time": 32.6068182,
                "pitch": 72,
                "velocity": 80,
                "duration": 0.05,
                "tempo": 120.0
            },
            {
                "start_time": 32.6068182,
                "end_time": 32.6568182,
                "pitch": 71,
                "velocity": 80,
                "duration": 0.05,
                "tempo": 120.0
            },
            {
                "start_time": 32.5568182,
                "end_time": 32.6568182,
                "pitch": 76,
                "velocity": 80,
                "duration": 0.1,
                "tempo": 120.0
            },
            {
                "start_time": 32.6068182,
                "end_time": 32.7068182,
                "pitch": 56,
                "velocity": 80,
                "duration": 0.1,
                "tempo": 120.0
            },
            {
                "start_time": 32.6568182,
                "end_time": 32.7068182,
                "pitch": 72,
                "velocity": 80,
                "duration": 0.05,
                "tempo": 120.0
            },
            {
                "start_time": 32.7068182,
                "end_time": 32.7568182,
                "pitch": 71,
                "velocity": 80,
                "duration": 0.05,
                "tempo": 120.0
            },
            {
                "start_time": 32.6568182,
                "end_time": 32.7568182,
                "pitch": 76,
                "velocity": 80,
                "duration": 0.1,
                "tempo": 120.0
            },
            {
                "start_time": 32.7068182,
                "end_time": 32.8090909,
                "pitch": 56,
                "velocity": 80,
                "duration": 0.1022727,
                "tempo": 120.0
            },
            {
                "start_time": 32.7568182,
                "end_time": 32.8090909,
                "pitch": 72,
                "velocity": 80,
                "duration": 0.0522727,
                "tempo": 120.0
            },
            {
                "start_time": 32.8090909,
                "end_time": 32.8590909,
                "pitch": 71,
                "velocity": 80,
                "duration": 0.05,
                "tempo": 120.0
            },
            {
                "start_time": 32.7568182,
                "end_time": 32.8590909,
                "pitch": 76,
                "velocity": 80,
                "duration": 0.1022727,
                "tempo": 120.0
            },
            {
                "start_time": 32.8090909,
                "end_time": 32.9090909,
                "pitch": 56,
                "velocity": 80,
                "duration": 0.1,
                "tempo": 120.0
            },
            {
                "start_time": 32.8590909,
                "end_time": 32.9090909,
                "pitch": 72,
                "velocity": 80,
                "duration": 0.05,
                "tempo": 120.0
            },
            {
                "start_time": 32.9090909,
                "end_time": 32.9613636,
                "pitch": 71,
                "velocity": 80,
                "duration": 0.0522727,
                "tempo": 120.0
            },
            {
                "start_time": 32.8590909,
                "end_time": 32.9613636,
                "pitch": 76,
                "velocity": 80,
                "duration": 0.1022727,
                "tempo": 120.0
            },
            {
                "start_time": 32.9090909,
                "end_time": 33.0136364,
                "pitch": 56,
                "velocity": 80,
                "duration": 0.1045455,
                "tempo": 120.0
            },
            {
                "start_time": 32.9613636,
                "end_time": 33.0136364,
                "pitch": 72,
                "velocity": 80,
                "duration": 0.0522727,
                "tempo": 120.0
            },
            {
                "start_time": 33.0136364,
                "end_time": 33.0636364,
                "pitch": 71,
                "velocity": 80,
                "duration": 0.05,
                "tempo": 120.0
            },
            {
                "start_time": 32.9613636,
                "end_time": 33.0636364,
                "pitch": 76,
                "velocity": 80,
                "duration": 0.1022727,
                "tempo": 120.0
            },
            {
                "start_time": 33.0136364,
                "end_time": 33.1159091,
                "pitch": 56,
                "velocity": 80,
                "duration": 0.1022727,
                "tempo": 120.0
            },
            {
                "start_time": 33.0636364,
                "end_time": 33.1159091,
                "pitch": 72,
                "velocity": 80,
                "duration": 0.0522727,
                "tempo": 120.0
            },
            {
                "start_time": 33.1159091,
                "end_time": 33.1681818,
                "pitch": 71,
                "velocity": 80,
                "duration": 0.0522727,
                "tempo": 120.0
            },
            {
                "start_time": 33.0636364,
                "end_time": 33.1681818,
                "pitch": 76,
                "velocity": 80,
                "duration": 0.1045455,
                "tempo": 120.0
            },
            {
                "start_time": 33.1681818,
                "end_time": 33.2181818,
                "pitch": 72,
                "velocity": 80,
                "duration": 0.05,
                "tempo": 120.0
            },
            {
                "start_time": 33.2204545,
                "end_time": 34.0227273,
                "pitch": 69,
                "velocity": 80,
                "duration": 0.8022727,
                "tempo": 120.0
            },
            {
                "start_time": 34.0227273,
                "end_time": 34.1227273,
                "pitch": 66,
                "velocity": 80,
                "duration": 0.1,
                "tempo": 120.0
            },
            {
                "start_time": 34.1227273,
                "end_time": 34.2227273,
                "pitch": 66,
                "velocity": 80,
                "duration": 0.1,
                "tempo": 120.0
            },
            {
                "start_time": 34.1227273,
                "end_time": 34.2227273,
                "pitch": 78,
                "velocity": 80,
                "duration": 0.1,
                "tempo": 120.0
            },
            {
                "start_time": 34.2227273,
                "end_time": 34.3068182,
                "pitch": 66,
                "velocity": 80,
                "duration": 0.0840909,
                "tempo": 120.0
            },
            {
                "start_time": 34.3068182,
                "end_time": 34.4227273,
                "pitch": 67,
                "velocity": 80,
                "duration": 0.1159091,
                "tempo": 120.0
            },
            {
                "start_time": 34.425,
                "end_time": 34.8272727,
                "pitch": 64,
                "velocity": 80,
                "duration": 0.4022727,
                "tempo": 120.0
            },
            {
                "start_time": 34.8272727,
                "end_time": 35.2272727,
                "pitch": 61,
                "velocity": 80,
                "duration": 0.4,
                "tempo": 120.0
            },
            {
                "start_time": 35.2272727,
                "end_time": 35.3431818,
                "pitch": 55,
                "velocity": 80,
                "duration": 0.1159091,
                "tempo": 120.0
            },
            {
                "start_time": 35.3431818,
                "end_time": 35.3772727,
                "pitch": 55,
                "velocity": 80,
                "duration": 0.0340909,
                "tempo": 120.0
            },
            {
                "start_time": 33.1159091,
                "end_time": 35.5431818,
                "pitch": 56,
                "velocity": 80,
                "duration": 2.4272727,
                "tempo": 120.0
            },
            {
                "start_time": 35.3772727,
                "end_time": 35.5431818,
                "pitch": 56,
                "velocity": 80,
                "duration": 0.1659091,
                "tempo": 120.0
            },
            {
                "start_time": 35.3431818,
                "end_time": 35.5431818,
                "pitch": 67,
                "velocity": 80,
                "duration": 0.2,
                "tempo": 120.0
            },
            {
                "start_time": 35.5431818,
                "end_time": 35.5613636,
                "pitch": 55,
                "velocity": 80,
                "duration": 0.0181818,
                "tempo": 120.0
            },
            {
                "start_time": 35.5613636,
                "end_time": 35.6272727,
                "pitch": 55,
                "velocity": 80,
                "duration": 0.0659091,
                "tempo": 120.0
            },
            {
                "start_time": 35.6295455,
                "end_time": 36.4386364,
                "pitch": 73,
                "velocity": 80,
                "duration": 0.8090909,
                "tempo": 120.0
            },
            {
                "start_time": 36.4409091,
                "end_time": 37.2340909,
                "pitch": 73,
                "velocity": 80,
                "duration": 0.7931818,
                "tempo": 120.0
            },
            {
                "start_time": 37.2340909,
                "end_time": 38.0454545,
                "pitch": 73,
                "velocity": 80,
                "duration": 0.8113636,
                "tempo": 120.0
            },
            {
                "start_time": 38.0454545,
                "end_time": 38.0954545,
                "pitch": 71,
                "velocity": 80,
                "duration": 0.05,
                "tempo": 120.0
            },
            {
                "start_time": 33.1681818,
                "end_time": 38.0954545,
                "pitch": 76,
                "velocity": 80,
                "duration": 4.9272727,
                "tempo": 120.0
            },
            {
                "start_time": 38.0954545,
                "end_time": 38.1454545,
                "pitch": 72,
                "velocity": 80,
                "duration": 0.05,
                "tempo": 120.0
            },
            {
                "start_time": 38.1454545,
                "end_time": 38.1954545,
                "pitch": 71,
                "velocity": 80,
                "duration": 0.05,
                "tempo": 120.0
            },
            {
                "start_time": 38.0954545,
                "end_time": 38.1954545,
                "pitch": 76,
                "velocity": 80,
                "duration": 0.1,
                "tempo": 120.0
            },
            {
                "start_time": 38.1454545,
                "end_time": 38.2454545,
                "pitch": 56,
                "velocity": 80,
                "duration": 0.1,
                "tempo": 120.0
            },
            {
                "start_time": 38.1954545,
                "end_time": 38.2454545,
                "pitch": 72,
                "velocity": 80,
                "duration": 0.05,
                "tempo": 120.0
            },
            {
                "start_time": 38.2454545,
                "end_time": 38.2954545,
                "pitch": 71,
                "velocity": 80,
                "duration": 0.05,
                "tempo": 120.0
            },
            {
                "start_time": 38.1954545,
                "end_time": 38.2954545,
                "pitch": 76,
                "velocity": 80,
                "duration": 0.1,
                "tempo": 120.0
            },
            {
                "start_time": 38.2454545,
                "end_time": 38.3477273,
                "pitch": 56,
                "velocity": 80,
                "duration": 0.1022727,
                "tempo": 120.0
            },
            {
                "start_time": 38.2954545,
                "end_time": 38.3477273,
                "pitch": 72,
                "velocity": 80,
                "duration": 0.0522727,
                "tempo": 120.0
            },
            {
                "start_time": 38.3477273,
                "end_time": 38.3977273,
                "pitch": 71,
                "velocity": 80,
                "duration": 0.05,
                "tempo": 120.0
            },
            {
                "start_time": 38.2954545,
                "end_time": 38.3977273,
                "pitch": 76,
                "velocity": 80,
                "duration": 0.1022727,
                "tempo": 120.0
            },
            {
                "start_time": 38.3477273,
                "end_time": 38.4477273,
                "pitch": 56,
                "velocity": 80,
                "duration": 0.1,
                "tempo": 120.0
            },
            {
                "start_time": 38.3977273,
                "end_time": 38.4477273,
                "pitch": 72,
                "velocity": 80,
                "duration": 0.05,
                "tempo": 120.0
            },
            {
                "start_time": 38.4477273,
                "end_time": 38.4977273,
                "pitch": 71,
                "velocity": 80,
                "duration": 0.05,
                "tempo": 120.0
            },
            {
                "start_time": 38.3977273,
                "end_time": 38.4977273,
                "pitch": 76,
                "velocity": 80,
                "duration": 0.1,
                "tempo": 120.0
            },
            {
                "start_time": 38.4477273,
                "end_time": 38.5454545,
                "pitch": 56,
                "velocity": 80,
                "duration": 0.0977273,
                "tempo": 120.0
            },
            {
                "start_time": 38.4977273,
                "end_time": 38.5454545,
                "pitch": 72,
                "velocity": 80,
                "duration": 0.0477273,
                "tempo": 120.0
            },
            {
                "start_time": 38.5454545,
                "end_time": 38.5954545,
                "pitch": 71,
                "velocity": 80,
                "duration": 0.05,
                "tempo": 120.0
            },
            {
                "start_time": 38.4977273,
                "end_time": 38.5954545,
                "pitch": 76,
                "velocity": 80,
                "duration": 0.0977273,
                "tempo": 120.0
            },
            {
                "start_time": 38.5454545,
                "end_time": 38.6431818,
                "pitch": 56,
                "velocity": 80,
                "duration": 0.0977273,
                "tempo": 120.0
            },
            {
                "start_time": 38.5954545,
                "end_time": 38.6431818,
                "pitch": 72,
                "velocity": 80,
                "duration": 0.0477273,
                "tempo": 120.0
            },
            {
                "start_time": 38.6431818,
                "end_time": 38.6931818,
                "pitch": 71,
                "velocity": 80,
                "duration": 0.05,
                "tempo": 120.0
            },
            {
                "start_time": 38.5954545,
                "end_time": 38.6931818,
                "pitch": 76,
                "velocity": 80,
                "duration": 0.0977273,
                "tempo": 120.0
            },
            {
                "start_time": 38.6431818,
                "end_time": 38.7431818,
                "pitch": 56,
                "velocity": 80,
                "duration": 0.1,
                "tempo": 120.0
            },
            {
                "start_time": 38.6931818,
                "end_time": 38.7431818,
                "pitch": 72,
                "velocity": 80,
                "duration": 0.05,
                "tempo": 120.0
            },
            {
                "start_time": 38.7431818,
                "end_time": 38.7909091,
                "pitch": 71,
                "velocity": 80,
                "duration": 0.0477273,
                "tempo": 120.0
            },
            {
                "start_time": 38.6931818,
                "end_time": 38.7909091,
                "pitch": 76,
                "velocity": 80,
                "duration": 0.0977273,
                "tempo": 120.0
            },
            {
                "start_time": 38.7909091,
                "end_time": 38.8409091,
                "pitch": 72,
                "velocity": 80,
                "duration": 0.05,
                "tempo": 120.0
            },
            {
                "start_time": 38.8409091,
                "end_time": 38.8909091,
                "pitch": 77,
                "velocity": 64,
                "duration": 0.05,
                "tempo": 120.0
            },
            {
                "start_time": 38.9409091,
                "end_time": 38.9909091,
                "pitch": 72,
                "velocity": 64,
                "duration": 0.05,
                "tempo": 120.0
            },
            {
                "start_time": 39.0409091,
                "end_time": 39.0909091,
                "pitch": 74,
                "velocity": 64,
                "duration": 0.05,
                "tempo": 120.0
            },
            {
                "start_time": 39.1409091,
                "end_time": 39.1909091,
                "pitch": 70,
                "velocity": 64,
                "duration": 0.05,
                "tempo": 120.0
            },
            {
                "start_time": 39.2409091,
                "end_time": 39.2909091,
                "pitch": 72,
                "velocity": 64,
                "duration": 0.05,
                "tempo": 120.0
            },
            {
                "start_time": 39.3409091,
                "end_time": 39.3909091,
                "pitch": 81,
                "velocity": 64,
                "duration": 0.05,
                "tempo": 120.0
            },
            {
                "start_time": 39.4409091,
                "end_time": 39.4909091,
                "pitch": 82,
                "velocity": 64,
                "duration": 0.05,
                "tempo": 120.0
            },
            {
                "start_time": 34.3068182,
                "end_time": 39.5909091,
                "pitch": 79,
                "velocity": 80,
                "duration": 5.2840909,
                "tempo": 120.0
            },
            {
                "start_time": 39.5409091,
                "end_time": 39.5909091,
                "pitch": 79,
                "velocity": 64,
                "duration": 0.05,
                "tempo": 120.0
            },
            {
                "start_time": 39.6431818,
                "end_time": 39.6909091,
                "pitch": 77,
                "velocity": 64,
                "duration": 0.0477273,
                "tempo": 120.0
            },
            {
                "start_time": 39.7409091,
                "end_time": 39.7909091,
                "pitch": 72,
                "velocity": 64,
                "duration": 0.05,
                "tempo": 120.0
            },
            {
                "start_time": 39.8431818,
                "end_time": 39.8909091,
                "pitch": 74,
                "velocity": 64,
                "duration": 0.0477273,
                "tempo": 120.0
            },
            {
                "start_time": 39.9431818,
                "end_time": 39.9909091,
                "pitch": 70,
                "velocity": 64,
                "duration": 0.0477273,
                "tempo": 120.0
            },
            {
                "start_time": 40.0431818,
                "end_time": 40.0931818,
                "pitch": 72,
                "velocity": 64,
                "duration": 0.05,
                "tempo": 120.0
            },
            {
                "start_time": 40.1454545,
                "end_time": 40.1954545,
                "pitch": 81,
                "velocity": 64,
                "duration": 0.05,
                "tempo": 120.0
            },
            {
                "start_time": 40.2477273,
                "end_time": 40.2977273,
                "pitch": 82,
                "velocity": 64,
                "duration": 0.05,
                "tempo": 120.0
            },
            {
                "start_time": 40.35,
                "end_time": 40.4022727,
                "pitch": 79,
                "velocity": 64,
                "duration": 0.0522727,
                "tempo": 120.0
            },
            {
                "start_time": 40.4545455,
                "end_time": 40.5022727,
                "pitch": 77,
                "velocity": 64,
                "duration": 0.0477273,
                "tempo": 120.0
            },
            {
                "start_time": 40.5522727,
                "end_time": 40.6,
                "pitch": 72,
                "velocity": 64,
                "duration": 0.0477273,
                "tempo": 120.0
            },
            {
                "start_time": 40.65,
                "end_time": 40.6977273,
                "pitch": 74,
                "velocity": 64,
                "duration": 0.0477273,
                "tempo": 120.0
            },
            {
                "start_time": 40.7477273,
                "end_time": 40.7954545,
                "pitch": 70,
                "velocity": 64,
                "duration": 0.0477273,
                "tempo": 120.0
            },
            {
                "start_time": 40.8454545,
                "end_time": 40.8977273,
                "pitch": 72,
                "velocity": 64,
                "duration": 0.0522727,
                "tempo": 120.0
            },
            {
                "start_time": 40.9477273,
                "end_time": 41.0,
                "pitch": 81,
                "velocity": 64,
                "duration": 0.0522727,
                "tempo": 120.0
            },
            {
                "start_time": 41.0522727,
                "end_time": 41.1022727,
                "pitch": 82,
                "velocity": 64,
                "duration": 0.05,
                "tempo": 120.0
            },
            {
                "start_time": 41.1545455,
                "end_time": 41.2045455,
                "pitch": 79,
                "velocity": 64,
                "duration": 0.05,
                "tempo": 120.0
            },
            {
                "start_time": 41.2568182,
                "end_time": 41.4568182,
                "pitch": 77,
                "velocity": 64,
                "duration": 0.2,
                "tempo": 120.0
            },
            {
                "start_time": 41.6568182,
                "end_time": 41.8568182,
                "pitch": 65,
                "velocity": 64,
                "duration": 0.2,
                "tempo": 120.0
            }
        ],
        "Vibraphone": [
            {
                "start_time": 16.3227273,
                "end_time": 16.5204545,
                "pitch": 84,
                "velocity": 80,
                "duration": 0.1977273,
                "tempo": 120.0
            },
            {
                "start_time": 16.9227273,
                "end_time": 17.125,
                "pitch": 84,
                "velocity": 80,
                "duration": 0.2022727,
                "tempo": 120.0
            },
            {
                "start_time": 17.125,
                "end_time": 17.325,
                "pitch": 83,
                "velocity": 80,
                "duration": 0.2,
                "tempo": 120.0
            },
            {
                "start_time": 17.7272727,
                "end_time": 17.9295455,
                "pitch": 83,
                "velocity": 80,
                "duration": 0.2022727,
                "tempo": 120.0
            },
            {
                "start_time": 17.9295455,
                "end_time": 18.1272727,
                "pitch": 81,
                "velocity": 80,
                "duration": 0.1977273,
                "tempo": 120.0
            },
            {
                "start_time": 18.5295455,
                "end_time": 18.7295455,
                "pitch": 81,
                "velocity": 80,
                "duration": 0.2,
                "tempo": 120.0
            },
            {
                "start_time": 18.7295455,
                "end_time": 18.9340909,
                "pitch": 83,
                "velocity": 80,
                "duration": 0.2045455,
                "tempo": 120.0
            },
            {
                "start_time": 19.1409091,
                "end_time": 19.3409091,
                "pitch": 84,
                "velocity": 80,
                "duration": 0.2,
                "tempo": 120.0
            },
            {
                "start_time": 19.5454545,
                "end_time": 19.6909091,
                "pitch": 79,
                "velocity": 80,
                "duration": 0.1454545,
                "tempo": 120.0
            },
            {
                "start_time": 19.5454545,
                "end_time": 19.6909091,
                "pitch": 79,
                "velocity": 80,
                "duration": 0.1454545,
                "tempo": 120.0
            },
            {
                "start_time": 19.5454545,
                "end_time": 19.6909091,
                "pitch": 91,
                "velocity": 80,
                "duration": 0.1454545,
                "tempo": 120.0
            },
            {
                "start_time": 19.6909091,
                "end_time": 19.7386364,
                "pitch": 79,
                "velocity": 80,
                "duration": 0.0477273,
                "tempo": 120.0
            },
            {
                "start_time": 20.7386364,
                "end_time": 20.9431818,
                "pitch": 86,
                "velocity": 80,
                "duration": 0.2045455,
                "tempo": 120.0
            },
            {
                "start_time": 21.15,
                "end_time": 21.35,
                "pitch": 86,
                "velocity": 80,
                "duration": 0.2,
                "tempo": 120.0
            },
            {
                "start_time": 21.5522727,
                "end_time": 21.7522727,
                "pitch": 83,
                "velocity": 80,
                "duration": 0.2,
                "tempo": 120.0
            },
            {
                "start_time": 21.7522727,
                "end_time": 21.8681818,
                "pitch": 79,
                "velocity": 80,
                "duration": 0.1159091,
                "tempo": 120.0
            },
            {
                "start_time": 19.6909091,
                "end_time": 21.8681818,
                "pitch": 91,
                "velocity": 80,
                "duration": 2.1772727,
                "tempo": 120.0
            },
            {
                "start_time": 21.8681818,
                "end_time": 21.9522727,
                "pitch": 79,
                "velocity": 80,
                "duration": 0.0840909,
                "tempo": 120.0
            },
            {
                "start_time": 22.1545455,
                "end_time": 22.2045455,
                "pitch": 79,
                "velocity": 80,
                "duration": 0.05,
                "tempo": 120.0
            },
            {
                "start_time": 21.8681818,
                "end_time": 22.2045455,
                "pitch": 91,
                "velocity": 80,
                "duration": 0.3363636,
                "tempo": 120.0
            },
            {
                "start_time": 22.2045455,
                "end_time": 22.3568182,
                "pitch": 79,
                "velocity": 80,
                "duration": 0.1522727,
                "tempo": 120.0
            },
            {
                "start_time": 22.3568182,
                "end_time": 22.3727273,
                "pitch": 79,
                "velocity": 80,
                "duration": 0.0159091,
                "tempo": 120.0
            },
            {
                "start_time": 22.2045455,
                "end_time": 22.3727273,
                "pitch": 91,
                "velocity": 80,
                "duration": 0.1681818,
                "tempo": 120.0
            },
            {
                "start_time": 22.3727273,
                "end_time": 22.5386364,
                "pitch": 79,
                "velocity": 80,
                "duration": 0.1659091,
                "tempo": 120.0
            },
            {
                "start_time": 22.3727273,
                "end_time": 22.5386364,
                "pitch": 91,
                "velocity": 80,
                "duration": 0.1659091,
                "tempo": 120.0
            },
            {
                "start_time": 22.5386364,
                "end_time": 22.5568182,
                "pitch": 79,
                "velocity": 80,
                "duration": 0.0181818,
                "tempo": 120.0
            },
            {
                "start_time": 22.5386364,
                "end_time": 22.5568182,
                "pitch": 91,
                "velocity": 80,
                "duration": 0.0181818,
                "tempo": 120.0
            },
            {
                "start_time": 22.5568182,
                "end_time": 22.7045455,
                "pitch": 79,
                "velocity": 80,
                "duration": 0.1477273,
                "tempo": 120.0
            },
            {
                "start_time": 22.5568182,
                "end_time": 22.7045455,
                "pitch": 79,
                "velocity": 80,
                "duration": 0.1477273,
                "tempo": 120.0
            },
            {
                "start_time": 22.5568182,
                "end_time": 22.7045455,
                "pitch": 91,
                "velocity": 80,
                "duration": 0.1477273,
                "tempo": 120.0
            },
            {
                "start_time": 22.7045455,
                "end_time": 22.7568182,
                "pitch": 79,
                "velocity": 80,
                "duration": 0.0522727,
                "tempo": 120.0
            },
            {
                "start_time": 22.7568182,
                "end_time": 23.1568182,
                "pitch": 88,
                "velocity": 80,
                "duration": 0.4,
                "tempo": 120.0
            },
            {
                "start_time": 23.1590909,
                "end_time": 23.2409091,
                "pitch": 86,
                "velocity": 80,
                "duration": 0.0818182,
                "tempo": 120.0
            },
            {
                "start_time": 23.3590909,
                "end_time": 23.7613636,
                "pitch": 84,
                "velocity": 80,
                "duration": 0.4022727,
                "tempo": 120.0
            },
            {
                "start_time": 23.7613636,
                "end_time": 23.9613636,
                "pitch": 84,
                "velocity": 80,
                "duration": 0.2,
                "tempo": 120.0
            },
            {
                "start_time": 23.9613636,
                "end_time": 24.1636364,
                "pitch": 84,
                "velocity": 80,
                "duration": 0.2022727,
                "tempo": 120.0
            },
            {
                "start_time": 24.1636364,
                "end_time": 24.3636364,
                "pitch": 84,
                "velocity": 80,
                "duration": 0.2,
                "tempo": 120.0
            },
            {
                "start_time": 24.3659091,
                "end_time": 24.5636364,
                "pitch": 83,
                "velocity": 80,
                "duration": 0.1977273,
                "tempo": 120.0
            },
            {
                "start_time": 24.5659091,
                "end_time": 24.7659091,
                "pitch": 84,
                "velocity": 80,
                "duration": 0.2,
                "tempo": 120.0
            },
            {
                "start_time": 24.7659091,
                "end_time": 24.8477273,
                "pitch": 83,
                "velocity": 80,
                "duration": 0.0818182,
                "tempo": 120.0
            },
            {
                "start_time": 24.9659091,
                "end_time": 25.3659091,
                "pitch": 81,
                "velocity": 80,
                "duration": 0.4,
                "tempo": 120.0
            },
            {
                "start_time": 25.3681818,
                "end_time": 25.5681818,
                "pitch": 81,
                "velocity": 80,
                "duration": 0.2,
                "tempo": 120.0
            },
            {
                "start_time": 25.5681818,
                "end_time": 25.775,
                "pitch": 81,
                "velocity": 80,
                "duration": 0.2068182,
                "tempo": 120.0
            },
            {
                "start_time": 25.775,
                "end_time": 25.9795455,
                "pitch": 81,
                "velocity": 80,
                "duration": 0.2045455,
                "tempo": 120.0
            },
            {
                "start_time": 25.9818182,
                "end_time": 26.0795455,
                "pitch": 86,
                "velocity": 80,
                "duration": 0.0977273,
                "tempo": 120.0
            },
            {
                "start_time": 26.1818182,
                "end_time": 26.2295455,
                "pitch": 79,
                "velocity": 80,
                "duration": 0.0477273,
                "tempo": 120.0
            },
            {
                "start_time": 22.7045455,
                "end_time": 26.2295455,
                "pitch": 91,
                "velocity": 80,
                "duration": 3.525,
                "tempo": 120.0
            },
            {
                "start_time": 26.2295455,
                "end_time": 26.2795455,
                "pitch": 79,
                "velocity": 80,
                "duration": 0.05,
                "tempo": 120.0
            },
            {
                "start_time": 26.2818182,
                "end_time": 26.3818182,
                "pitch": 79,
                "velocity": 80,
                "duration": 0.1,
                "tempo": 120.0
            },
            {
                "start_time": 26.3818182,
                "end_time": 26.3954545,
                "pitch": 79,
                "velocity": 80,
                "duration": 0.0136364,
                "tempo": 120.0
            },
            {
                "start_time": 26.2295455,
                "end_time": 26.3954545,
                "pitch": 91,
                "velocity": 80,
                "duration": 0.1659091,
                "tempo": 120.0
            },
            {
                "start_time": 26.3954545,
                "end_time": 26.5636364,
                "pitch": 79,
                "velocity": 80,
                "duration": 0.1681818,
                "tempo": 120.0
            },
            {
                "start_time": 26.3954545,
                "end_time": 26.5636364,
                "pitch": 91,
                "velocity": 80,
                "duration": 0.1681818,
                "tempo": 120.0
            },
            {
                "start_time": 26.5636364,
                "end_time": 26.7318182,
                "pitch": 79,
                "velocity": 80,
                "duration": 0.1681818,
                "tempo": 120.0
            },
            {
                "start_time": 26.5636364,
                "end_time": 26.7318182,
                "pitch": 91,
                "velocity": 80,
                "duration": 0.1681818,
                "tempo": 120.0
            },
            {
                "start_time": 26.7318182,
                "end_time": 26.7840909,
                "pitch": 79,
                "velocity": 80,
                "duration": 0.0522727,
                "tempo": 120.0
            },
            {
                "start_time": 26.7840909,
                "end_time": 26.8863636,
                "pitch": 86,
                "velocity": 80,
                "duration": 0.1022727,
                "tempo": 120.0
            },
            {
                "start_time": 26.9909091,
                "end_time": 27.0727273,
                "pitch": 79,
                "velocity": 80,
                "duration": 0.0818182,
                "tempo": 120.0
            },
            {
                "start_time": 26.7318182,
                "end_time": 27.0727273,
                "pitch": 91,
                "velocity": 80,
                "duration": 0.3409091,
                "tempo": 120.0
            },
            {
                "start_time": 27.0727273,
                "end_time": 27.0931818,
                "pitch": 79,
                "velocity": 80,
                "duration": 0.0204545,
                "tempo": 120.0
            },
            {
                "start_time": 27.0727273,
                "end_time": 27.0931818,
                "pitch": 91,
                "velocity": 80,
                "duration": 0.0204545,
                "tempo": 120.0
            },
            {
                "start_time": 27.0931818,
                "end_time": 27.1954545,
                "pitch": 79,
                "velocity": 80,
                "duration": 0.1022727,
                "tempo": 120.0
            },
            {
                "start_time": 27.0931818,
                "end_time": 27.1954545,
                "pitch": 79,
                "velocity": 80,
                "duration": 0.1022727,
                "tempo": 120.0
            },
            {
                "start_time": 27.1954545,
                "end_time": 27.2431818,
                "pitch": 79,
                "velocity": 80,
                "duration": 0.0477273,
                "tempo": 120.0
            },
            {
                "start_time": 27.0931818,
                "end_time": 27.2431818,
                "pitch": 91,
                "velocity": 80,
                "duration": 0.15,
                "tempo": 120.0
            },
            {
                "start_time": 27.2431818,
                "end_time": 27.4068182,
                "pitch": 79,
                "velocity": 80,
                "duration": 0.1636364,
                "tempo": 120.0
            },
            {
                "start_time": 27.2431818,
                "end_time": 27.4068182,
                "pitch": 91,
                "velocity": 80,
                "duration": 0.1636364,
                "tempo": 120.0
            },
            {
                "start_time": 27.4068182,
                "end_time": 27.5704545,
                "pitch": 79,
                "velocity": 80,
                "duration": 0.1636364,
                "tempo": 120.0
            },
            {
                "start_time": 27.4068182,
                "end_time": 27.5704545,
                "pitch": 91,
                "velocity": 80,
                "duration": 0.1636364,
                "tempo": 120.0
            },
            {
                "start_time": 27.5704545,
                "end_time": 27.5886364,
                "pitch": 79,
                "velocity": 80,
                "duration": 0.0181818,
                "tempo": 120.0
            },
            {
                "start_time": 27.5704545,
                "end_time": 27.5886364,
                "pitch": 91,
                "velocity": 80,
                "duration": 0.0181818,
                "tempo": 120.0
            },
            {
                "start_time": 27.5886364,
                "end_time": 27.6886364,
                "pitch": 79,
                "velocity": 80,
                "duration": 0.1,
                "tempo": 120.0
            },
            {
                "start_time": 27.5886364,
                "end_time": 27.6886364,
                "pitch": 79,
                "velocity": 80,
                "duration": 0.1,
                "tempo": 120.0
            },
            {
                "start_time": 27.7931818,
                "end_time": 27.8954545,
                "pitch": 79,
                "velocity": 80,
                "duration": 0.1022727,
                "tempo": 120.0
            },
            {
                "start_time": 28.0,
                "end_time": 28.0954545,
                "pitch": 81,
                "velocity": 80,
                "duration": 0.0954545,
                "tempo": 120.0
            },
            {
                "start_time": 28.1954545,
                "end_time": 28.2931818,
                "pitch": 83,
                "velocity": 80,
                "duration": 0.0977273,
                "tempo": 120.0
            },
            {
                "start_time": 28.3909091,
                "end_time": 28.4909091,
                "pitch": 84,
                "velocity": 80,
                "duration": 0.1,
                "tempo": 120.0
            },
            {
                "start_time": 27.5886364,
                "end_time": 28.5931818,
                "pitch": 91,
                "velocity": 80,
                "duration": 1.0045455,
                "tempo": 120.0
            },
            {
                "start_time": 28.5931818,
                "end_time": 28.6931818,
                "pitch": 79,
                "velocity": 80,
                "duration": 0.1,
                "tempo": 120.0
            },
            {
                "start_time": 28.5931818,
                "end_time": 28.6931818,
                "pitch": 79,
                "velocity": 80,
                "duration": 0.1,
                "tempo": 120.0
            },
            {
                "start_time": 28.7954545,
                "end_time": 28.8931818,
                "pitch": 84,
                "velocity": 80,
                "duration": 0.0977273,
                "tempo": 120.0
            },
            {
                "start_time": 29.1954545,
                "end_time": 30.8045455,
                "pitch": 96,
                "velocity": 51,
                "duration": 1.6090909,
                "tempo": 120.0
            },
            {
                "start_time": 32.4090909,
                "end_time": 34.025,
                "pitch": 96,
                "velocity": 51,
                "duration": 1.6159091,
                "tempo": 120.0
            },
            {
                "start_time": 35.6295455,
                "end_time": 37.2340909,
                "pitch": 98,
                "velocity": 51,
                "duration": 1.6045455,
                "tempo": 120.0
            },
            {
                "start_time": 38.8431818,
                "end_time": 40.4545455,
                "pitch": 96,
                "velocity": 51,
                "duration": 1.6113636,
                "tempo": 120.0
            }
        ],
        "Trumpet": [
            {
                "start_time": 2.6295455,
                "end_time": 2.7318182,
                "pitch": 48,
                "velocity": 80,
                "duration": 0.1022727,
                "tempo": 120.0
            },
            {
                "start_time": 2.8340909,
                "end_time": 2.9363636,
                "pitch": 45,
                "velocity": 80,
                "duration": 0.1022727,
                "tempo": 120.0
            },
            {
                "start_time": 3.0409091,
                "end_time": 3.1386364,
                "pitch": 43,
                "velocity": 80,
                "duration": 0.0977273,
                "tempo": 120.0
            },
            {
                "start_time": 3.2363636,
                "end_time": 3.3340909,
                "pitch": 40,
                "velocity": 80,
                "duration": 0.0977273,
                "tempo": 120.0
            },
            {
                "start_time": 3.4363636,
                "end_time": 3.6386364,
                "pitch": 48,
                "velocity": 80,
                "duration": 0.2022727,
                "tempo": 120.0
            },
            {
                "start_time": 3.8477273,
                "end_time": 3.9613636,
                "pitch": 43,
                "velocity": 80,
                "duration": 0.1136364,
                "tempo": 120.0
            },
            {
                "start_time": 3.9613636,
                "end_time": 4.0113636,
                "pitch": 43,
                "velocity": 80,
                "duration": 0.05,
                "tempo": 120.0
            },
            {
                "start_time": 4.0113636,
                "end_time": 4.0454545,
                "pitch": 43,
                "velocity": 80,
                "duration": 0.0340909,
                "tempo": 120.0
            },
            {
                "start_time": 4.2477273,
                "end_time": 4.4454545,
                "pitch": 45,
                "velocity": 80,
                "duration": 0.1977273,
                "tempo": 120.0
            },
            {
                "start_time": 4.6477273,
                "end_time": 4.85,
                "pitch": 47,
                "velocity": 80,
                "duration": 0.2022727,
                "tempo": 120.0
            },
            {
                "start_time": 5.05,
                "end_time": 5.2522727,
                "pitch": 48,
                "velocity": 80,
                "duration": 0.2022727,
                "tempo": 120.0
            },
            {
                "start_time": 5.4545455,
                "end_time": 5.4681818,
                "pitch": 43,
                "velocity": 80,
                "duration": 0.0136364,
                "tempo": 120.0
            },
            {
                "start_time": 3.9613636,
                "end_time": 5.4681818,
                "pitch": 55,
                "velocity": 80,
                "duration": 1.5068182,
                "tempo": 120.0
            },
            {
                "start_time": 4.0113636,
                "end_time": 5.5181818,
                "pitch": 0,
                "velocity": 80,
                "duration": 1.5068182,
                "tempo": 120.0
            },
            {
                "start_time": 5.4681818,
                "end_time": 5.5181818,
                "pitch": 43,
                "velocity": 80,
                "duration": 0.05,
                "tempo": 120.0
            },
            {
                "start_time": 5.5181818,
                "end_time": 5.6340909,
                "pitch": 43,
                "velocity": 80,
                "duration": 0.1159091,
                "tempo": 120.0
            },
            {
                "start_time": 5.4681818,
                "end_time": 5.6363636,
                "pitch": 55,
                "velocity": 80,
                "duration": 0.1681818,
                "tempo": 120.0
            },
            {
                "start_time": 5.6340909,
                "end_time": 5.6363636,
                "pitch": 55,
                "velocity": 80,
                "duration": 0.0022727,
                "tempo": 120.0
            },
            {
                "start_time": 5.6363636,
                "end_time": 5.6545455,
                "pitch": 43,
                "velocity": 80,
                "duration": 0.0181818,
                "tempo": 120.0
            },
            {
                "start_time": 5.8545455,
                "end_time": 6.0545455,
                "pitch": 45,
                "velocity": 80,
                "duration": 0.2,
                "tempo": 120.0
            },
            {
                "start_time": 6.2568182,
                "end_time": 6.4590909,
                "pitch": 47,
                "velocity": 80,
                "duration": 0.2022727,
                "tempo": 120.0
            },
            {
                "start_time": 6.6613636,
                "end_time": 6.8613636,
                "pitch": 54,
                "velocity": 80,
                "duration": 0.2,
                "tempo": 120.0
            },
            {
                "start_time": 7.0613636,
                "end_time": 7.2613636,
                "pitch": 48,
                "velocity": 80,
                "duration": 0.2,
                "tempo": 120.0
            },
            {
                "start_time": 7.4659091,
                "end_time": 7.6704545,
                "pitch": 54,
                "velocity": 80,
                "duration": 0.2045455,
                "tempo": 120.0
            },
            {
                "start_time": 7.875,
                "end_time": 8.0704545,
                "pitch": 48,
                "velocity": 80,
                "duration": 0.1954545,
                "tempo": 120.0
            },
            {
                "start_time": 8.2681818,
                "end_time": 8.4727273,
                "pitch": 54,
                "velocity": 80,
                "duration": 0.2045455,
                "tempo": 120.0
            },
            {
                "start_time": 8.4727273,
                "end_time": 8.5568182,
                "pitch": 53,
                "velocity": 80,
                "duration": 0.0840909,
                "tempo": 120.0
            },
            {
                "start_time": 8.6795455,
                "end_time": 8.7590909,
                "pitch": 52,
                "velocity": 80,
                "duration": 0.0795455,
                "tempo": 120.0
            },
            {
                "start_time": 8.875,
                "end_time": 8.9545455,
                "pitch": 51,
                "velocity": 80,
                "duration": 0.0795455,
                "tempo": 120.0
            },
            {
                "start_time": 9.0727273,
                "end_time": 9.2704545,
                "pitch": 50,
                "velocity": 80,
                "duration": 0.1977273,
                "tempo": 120.0
            },
            {
                "start_time": 9.2704545,
                "end_time": 9.3545455,
                "pitch": 51,
                "velocity": 80,
                "duration": 0.0840909,
                "tempo": 120.0
            },
            {
                "start_time": 9.4727273,
                "end_time": 9.5568182,
                "pitch": 52,
                "velocity": 80,
                "duration": 0.0840909,
                "tempo": 120.0
            },
            {
                "start_time": 9.6772727,
                "end_time": 9.7613636,
                "pitch": 53,
                "velocity": 80,
                "duration": 0.0840909,
                "tempo": 120.0
            },
            {
                "start_time": 9.8840909,
                "end_time": 10.0772727,
                "pitch": 48,
                "velocity": 80,
                "duration": 0.1931818,
                "tempo": 120.0
            },
            {
                "start_time": 10.2772727,
                "end_time": 10.325,
                "pitch": 43,
                "velocity": 80,
                "duration": 0.0477273,
                "tempo": 120.0
            },
            {
                "start_time": 5.5181818,
                "end_time": 10.3772727,
                "pitch": 0,
                "velocity": 80,
                "duration": 4.8590909,
                "tempo": 120.0
            },
            {
                "start_time": 10.325,
                "end_time": 10.3772727,
                "pitch": 43,
                "velocity": 80,
                "duration": 0.0522727,
                "tempo": 120.0
            },
            {
                "start_time": 10.3772727,
                "end_time": 10.4795455,
                "pitch": 43,
                "velocity": 80,
                "duration": 0.1022727,
                "tempo": 120.0
            },
            {
                "start_time": 10.6886364,
                "end_time": 10.8863636,
                "pitch": 45,
                "velocity": 80,
                "duration": 0.1977273,
                "tempo": 120.0
            },
            {
                "start_time": 11.0886364,
                "end_time": 11.2909091,
                "pitch": 47,
                "velocity": 80,
                "duration": 0.2022727,
                "tempo": 120.0
            },
            {
                "start_time": 11.4909091,
                "end_time": 11.6931818,
                "pitch": 48,
                "velocity": 80,
                "duration": 0.2022727,
                "tempo": 120.0
            },
            {
                "start_time": 11.8954545,
                "end_time": 12.0090909,
                "pitch": 43,
                "velocity": 80,
                "duration": 0.1136364,
                "tempo": 120.0
            },
            {
                "start_time": 10.325,
                "end_time": 12.0090909,
                "pitch": 55,
                "velocity": 80,
                "duration": 1.6840909,
                "tempo": 120.0
            },
            {
                "start_time": 10.3772727,
                "end_time": 12.0613636,
                "pitch": 0,
                "velocity": 80,
                "duration": 1.6840909,
                "tempo": 120.0
            },
            {
                "start_time": 12.0090909,
                "end_time": 12.0613636,
                "pitch": 43,
                "velocity": 80,
                "duration": 0.0522727,
                "tempo": 120.0
            },
            {
                "start_time": 12.0613636,
                "end_time": 12.0954545,
                "pitch": 43,
                "velocity": 80,
                "duration": 0.0340909,
                "tempo": 120.0
            },
            {
                "start_time": 12.2977273,
                "end_time": 12.4977273,
                "pitch": 45,
                "velocity": 80,
                "duration": 0.2,
                "tempo": 120.0
            },
            {
                "start_time": 12.7,
                "end_time": 12.9022727,
                "pitch": 47,
                "velocity": 80,
                "duration": 0.2022727,
                "tempo": 120.0
            },
            {
                "start_time": 13.1045455,
                "end_time": 13.3045455,
                "pitch": 54,
                "velocity": 80,
                "duration": 0.2,
                "tempo": 120.0
            },
            {
                "start_time": 13.5045455,
                "end_time": 13.7045455,
                "pitch": 48,
                "velocity": 80,
                "duration": 0.2,
                "tempo": 120.0
            },
            {
                "start_time": 13.9090909,
                "end_time": 14.1136364,
                "pitch": 54,
                "velocity": 80,
                "duration": 0.2045455,
                "tempo": 120.0
            },
            {
                "start_time": 14.3181818,
                "end_time": 14.5136364,
                "pitch": 48,
                "velocity": 80,
                "duration": 0.1954545,
                "tempo": 120.0
            },
            {
                "start_time": 14.7136364,
                "end_time": 14.9159091,
                "pitch": 54,
                "velocity": 80,
                "duration": 0.2022727,
                "tempo": 120.0
            },
            {
                "start_time": 14.9181818,
                "end_time": 15.0,
                "pitch": 53,
                "velocity": 80,
                "duration": 0.0818182,
                "tempo": 120.0
            },
            {
                "start_time": 15.1227273,
                "end_time": 15.2022727,
                "pitch": 52,
                "velocity": 80,
                "duration": 0.0795455,
                "tempo": 120.0
            },
            {
                "start_time": 15.3181818,
                "end_time": 15.4,
                "pitch": 51,
                "velocity": 80,
                "duration": 0.0818182,
                "tempo": 120.0
            },
            {
                "start_time": 15.5159091,
                "end_time": 15.7159091,
                "pitch": 50,
                "velocity": 80,
                "duration": 0.2,
                "tempo": 120.0
            },
            {
                "start_time": 15.7181818,
                "end_time": 15.8,
                "pitch": 51,
                "velocity": 80,
                "duration": 0.0818182,
                "tempo": 120.0
            },
            {
                "start_time": 15.9181818,
                "end_time": 16.0,
                "pitch": 52,
                "velocity": 80,
                "duration": 0.0818182,
                "tempo": 120.0
            },
            {
                "start_time": 16.1204545,
                "end_time": 16.2022727,
                "pitch": 53,
                "velocity": 80,
                "duration": 0.0818182,
                "tempo": 120.0
            },
            {
                "start_time": 16.3227273,
                "end_time": 16.5204545,
                "pitch": 36,
                "velocity": 80,
                "duration": 0.1977273,
                "tempo": 120.0
            },
            {
                "start_time": 12.0613636,
                "end_time": 16.7363636,
                "pitch": 0,
                "velocity": 80,
                "duration": 4.675,
                "tempo": 120.0
            },
            {
                "start_time": 16.7204545,
                "end_time": 16.7363636,
                "pitch": 31,
                "velocity": 80,
                "duration": 0.0159091,
                "tempo": 120.0
            },
            {
                "start_time": 16.7204545,
                "end_time": 16.7363636,
                "pitch": 31,
                "velocity": 80,
                "duration": 0.0159091,
                "tempo": 120.0
            },
            {
                "start_time": 16.7363636,
                "end_time": 16.8886364,
                "pitch": 31,
                "velocity": 80,
                "duration": 0.1522727,
                "tempo": 120.0
            },
            {
                "start_time": 16.7204545,
                "end_time": 16.8886364,
                "pitch": 43,
                "velocity": 80,
                "duration": 0.1681818,
                "tempo": 120.0
            },
            {
                "start_time": 16.7363636,
                "end_time": 16.9045455,
                "pitch": 0,
                "velocity": 80,
                "duration": 0.1681818,
                "tempo": 120.0
            },
            {
                "start_time": 16.8886364,
                "end_time": 16.9045455,
                "pitch": 31,
                "velocity": 80,
                "duration": 0.0159091,
                "tempo": 120.0
            },
            {
                "start_time": 16.9045455,
                "end_time": 16.925,
                "pitch": 31,
                "velocity": 80,
                "duration": 0.0204545,
                "tempo": 120.0
            },
            {
                "start_time": 17.125,
                "end_time": 17.325,
                "pitch": 36,
                "velocity": 80,
                "duration": 0.2,
                "tempo": 120.0
            },
            {
                "start_time": 17.525,
                "end_time": 17.5590909,
                "pitch": 31,
                "velocity": 80,
                "duration": 0.0340909,
                "tempo": 120.0
            },
            {
                "start_time": 16.8886364,
                "end_time": 17.5590909,
                "pitch": 43,
                "velocity": 80,
                "duration": 0.6704545,
                "tempo": 120.0
            },
            {
                "start_time": 16.9045455,
                "end_time": 17.575,
                "pitch": 0,
                "velocity": 80,
                "duration": 0.6704545,
                "tempo": 120.0
            },
            {
                "start_time": 17.5590909,
                "end_time": 17.575,
                "pitch": 31,
                "velocity": 80,
                "duration": 0.0159091,
                "tempo": 120.0
            },
            {
                "start_time": 17.575,
                "end_time": 17.625,
                "pitch": 31,
                "velocity": 80,
                "duration": 0.05,
                "tempo": 120.0
            },
            {
                "start_time": 17.5590909,
                "end_time": 17.7272727,
                "pitch": 43,
                "velocity": 80,
                "duration": 0.1681818,
                "tempo": 120.0
            },
            {
                "start_time": 17.575,
                "end_time": 17.7431818,
                "pitch": 0,
                "velocity": 80,
                "duration": 0.1681818,
                "tempo": 120.0
            },
            {
                "start_time": 17.7272727,
                "end_time": 17.7431818,
                "pitch": 31,
                "velocity": 80,
                "duration": 0.0159091,
                "tempo": 120.0
            },
            {
                "start_time": 17.7272727,
                "end_time": 17.7431818,
                "pitch": 31,
                "velocity": 80,
                "duration": 0.0159091,
                "tempo": 120.0
            },
            {
                "start_time": 17.7431818,
                "end_time": 17.8272727,
                "pitch": 31,
                "velocity": 80,
                "duration": 0.0840909,
                "tempo": 120.0
            },
            {
                "start_time": 17.9295455,
                "end_time": 18.1272727,
                "pitch": 36,
                "velocity": 80,
                "duration": 0.1977273,
                "tempo": 120.0
            },
            {
                "start_time": 18.3295455,
                "end_time": 18.3954545,
                "pitch": 31,
                "velocity": 80,
                "duration": 0.0659091,
                "tempo": 120.0
            },
            {
                "start_time": 17.7272727,
                "end_time": 18.3954545,
                "pitch": 43,
                "velocity": 80,
                "duration": 0.6681818,
                "tempo": 120.0
            },
            {
                "start_time": 17.7431818,
                "end_time": 18.4113636,
                "pitch": 0,
                "velocity": 80,
                "duration": 0.6681818,
                "tempo": 120.0
            },
            {
                "start_time": 18.3954545,
                "end_time": 18.4113636,
                "pitch": 31,
                "velocity": 80,
                "duration": 0.0159091,
                "tempo": 120.0
            },
            {
                "start_time": 18.4113636,
                "end_time": 18.5295455,
                "pitch": 31,
                "velocity": 80,
                "duration": 0.1181818,
                "tempo": 120.0
            },
            {
                "start_time": 18.7318182,
                "end_time": 18.8318182,
                "pitch": 36,
                "velocity": 80,
                "duration": 0.1,
                "tempo": 120.0
            },
            {
                "start_time": 18.9340909,
                "end_time": 19.0363636,
                "pitch": 31,
                "velocity": 80,
                "duration": 0.1022727,
                "tempo": 120.0
            },
            {
                "start_time": 19.1409091,
                "end_time": 19.2409091,
                "pitch": 36,
                "velocity": 80,
                "duration": 0.1,
                "tempo": 120.0
            },
            {
                "start_time": 19.3431818,
                "end_time": 19.4431818,
                "pitch": 37,
                "velocity": 80,
                "duration": 0.1,
                "tempo": 120.0
            },
            {
                "start_time": 19.5454545,
                "end_time": 19.7386364,
                "pitch": 38,
                "velocity": 80,
                "duration": 0.1931818,
                "tempo": 120.0
            },
            {
                "start_time": 19.9363636,
                "end_time": 20.0704545,
                "pitch": 31,
                "velocity": 80,
                "duration": 0.1340909,
                "tempo": 120.0
            },
            {
                "start_time": 18.3954545,
                "end_time": 20.0704545,
                "pitch": 43,
                "velocity": 80,
                "duration": 1.675,
                "tempo": 120.0
            },
            {
                "start_time": 18.4113636,
                "end_time": 20.0863636,
                "pitch": 0,
                "velocity": 80,
                "duration": 1.675,
                "tempo": 120.0
            },
            {
                "start_time": 20.0704545,
                "end_time": 20.0863636,
                "pitch": 31,
                "velocity": 80,
                "duration": 0.0159091,
                "tempo": 120.0
            },
            {
                "start_time": 20.0863636,
                "end_time": 20.1363636,
                "pitch": 31,
                "velocity": 80,
                "duration": 0.05,
                "tempo": 120.0
            },
            {
                "start_time": 20.3363636,
                "end_time": 20.5363636,
                "pitch": 38,
                "velocity": 80,
                "duration": 0.2,
                "tempo": 120.0
            },
            {
                "start_time": 20.0704545,
                "end_time": 20.7386364,
                "pitch": 43,
                "velocity": 80,
                "duration": 0.6681818,
                "tempo": 120.0
            },
            {
                "start_time": 20.0863636,
                "end_time": 20.7545455,
                "pitch": 0,
                "velocity": 80,
                "duration": 0.6681818,
                "tempo": 120.0
            },
            {
                "start_time": 20.7386364,
                "end_time": 20.7545455,
                "pitch": 31,
                "velocity": 80,
                "duration": 0.0159091,
                "tempo": 120.0
            },
            {
                "start_time": 20.7386364,
                "end_time": 20.7545455,
                "pitch": 31,
                "velocity": 80,
                "duration": 0.0159091,
                "tempo": 120.0
            },
            {
                "start_time": 20.7545455,
                "end_time": 20.9090909,
                "pitch": 31,
                "velocity": 80,
                "duration": 0.1545455,
                "tempo": 120.0
            },
            {
                "start_time": 20.7386364,
                "end_time": 20.9090909,
                "pitch": 43,
                "velocity": 80,
                "duration": 0.1704545,
                "tempo": 120.0
            },
            {
                "start_time": 20.7545455,
                "end_time": 20.925,
                "pitch": 0,
                "velocity": 80,
                "duration": 0.1704545,
                "tempo": 120.0
            },
            {
                "start_time": 20.9090909,
                "end_time": 20.925,
                "pitch": 31,
                "velocity": 80,
                "duration": 0.0159091,
                "tempo": 120.0
            },
            {
                "start_time": 20.925,
                "end_time": 20.9431818,
                "pitch": 31,
                "velocity": 80,
                "duration": 0.0181818,
                "tempo": 120.0
            },
            {
                "start_time": 21.15,
                "end_time": 21.35,
                "pitch": 38,
                "velocity": 80,
                "duration": 0.2,
                "tempo": 120.0
            },
            {
                "start_time": 21.5545455,
                "end_time": 21.5840909,
                "pitch": 31,
                "velocity": 80,
                "duration": 0.0295455,
                "tempo": 120.0
            },
            {
                "start_time": 20.9090909,
                "end_time": 21.5840909,
                "pitch": 43,
                "velocity": 80,
                "duration": 0.675,
                "tempo": 120.0
            },
            {
                "start_time": 20.925,
                "end_time": 21.6022727,
                "pitch": 0,
                "velocity": 80,
                "duration": 0.6772727,
                "tempo": 120.0
            },
            {
                "start_time": 21.5840909,
                "end_time": 21.6022727,
                "pitch": 31,
                "velocity": 80,
                "duration": 0.0181818,
                "tempo": 120.0
            },
            {
                "start_time": 21.6022727,
                "end_time": 21.7545455,
                "pitch": 31,
                "velocity": 80,
                "duration": 0.1522727,
                "tempo": 120.0
            },
            {
                "start_time": 21.5840909,
                "end_time": 21.7545455,
                "pitch": 43,
                "velocity": 80,
                "duration": 0.1704545,
                "tempo": 120.0
            },
            {
                "start_time": 21.9522727,
                "end_time": 22.0522727,
                "pitch": 38,
                "velocity": 80,
                "duration": 0.1,
                "tempo": 120.0
            },
            {
                "start_time": 22.1568182,
                "end_time": 22.2545455,
                "pitch": 38,
                "velocity": 80,
                "duration": 0.0977273,
                "tempo": 120.0
            },
            {
                "start_time": 22.3568182,
                "end_time": 22.4545455,
                "pitch": 40,
                "velocity": 80,
                "duration": 0.0977273,
                "tempo": 120.0
            },
            {
                "start_time": 22.5568182,
                "end_time": 22.6568182,
                "pitch": 38,
                "velocity": 80,
                "duration": 0.1,
                "tempo": 120.0
            },
            {
                "start_time": 22.7590909,
                "end_time": 22.9568182,
                "pitch": 36,
                "velocity": 80,
                "duration": 0.1977273,
                "tempo": 120.0
            },
            {
                "start_time": 21.7545455,
                "end_time": 23.2568182,
                "pitch": 31,
                "velocity": 80,
                "duration": 1.5022727,
                "tempo": 120.0
            },
            {
                "start_time": 23.1590909,
                "end_time": 23.2568182,
                "pitch": 31,
                "velocity": 80,
                "duration": 0.0977273,
                "tempo": 120.0
            },
            {
                "start_time": 21.7545455,
                "end_time": 23.2568182,
                "pitch": 43,
                "velocity": 80,
                "duration": 1.5022727,
                "tempo": 120.0
            },
            {
                "start_time": 23.3590909,
                "end_time": 23.5590909,
                "pitch": 36,
                "velocity": 80,
                "duration": 0.2,
                "tempo": 120.0
            },
            {
                "start_time": 23.7613636,
                "end_time": 23.8590909,
                "pitch": 36,
                "velocity": 80,
                "duration": 0.0977273,
                "tempo": 120.0
            },
            {
                "start_time": 23.9613636,
                "end_time": 24.1636364,
                "pitch": 36,
                "velocity": 80,
                "duration": 0.2022727,
                "tempo": 120.0
            },
            {
                "start_time": 24.1636364,
                "end_time": 24.3659091,
                "pitch": 35,
                "velocity": 80,
                "duration": 0.2022727,
                "tempo": 120.0
            },
            {
                "start_time": 24.3659091,
                "end_time": 24.5659091,
                "pitch": 33,
                "velocity": 80,
                "duration": 0.2,
                "tempo": 120.0
            },
            {
                "start_time": 24.7659091,
                "end_time": 24.8636364,
                "pitch": 28,
                "velocity": 80,
                "duration": 0.0977273,
                "tempo": 120.0
            },
            {
                "start_time": 24.9659091,
                "end_time": 25.1636364,
                "pitch": 33,
                "velocity": 80,
                "duration": 0.1977273,
                "tempo": 120.0
            },
            {
                "start_time": 25.3681818,
                "end_time": 25.4659091,
                "pitch": 33,
                "velocity": 80,
                "duration": 0.0977273,
                "tempo": 120.0
            },
            {
                "start_time": 25.5704545,
                "end_time": 25.775,
                "pitch": 35,
                "velocity": 80,
                "duration": 0.2045455,
                "tempo": 120.0
            },
            {
                "start_time": 25.775,
                "end_time": 25.9818182,
                "pitch": 36,
                "velocity": 80,
                "duration": 0.2068182,
                "tempo": 120.0
            },
            {
                "start_time": 25.9818182,
                "end_time": 26.0795455,
                "pitch": 38,
                "velocity": 80,
                "duration": 0.0977273,
                "tempo": 120.0
            },
            {
                "start_time": 23.2568182,
                "end_time": 26.2818182,
                "pitch": 31,
                "velocity": 80,
                "duration": 3.025,
                "tempo": 120.0
            },
            {
                "start_time": 26.1818182,
                "end_time": 26.2818182,
                "pitch": 31,
                "velocity": 80,
                "duration": 0.1,
                "tempo": 120.0
            },
            {
                "start_time": 23.2568182,
                "end_time": 26.2818182,
                "pitch": 43,
                "velocity": 80,
                "duration": 3.025,
                "tempo": 120.0
            },
            {
                "start_time": 21.6022727,
                "end_time": 26.2954545,
                "pitch": 0,
                "velocity": 80,
                "duration": 4.6931818,
                "tempo": 120.0
            },
            {
                "start_time": 26.2818182,
                "end_time": 26.2954545,
                "pitch": 31,
                "velocity": 80,
                "duration": 0.0136364,
                "tempo": 120.0
            },
            {
                "start_time": 26.2818182,
                "end_time": 26.2954545,
                "pitch": 31,
                "velocity": 80,
                "duration": 0.0136364,
                "tempo": 120.0
            },
            {
                "start_time": 26.2818182,
                "end_time": 26.2954545,
                "pitch": 31,
                "velocity": 80,
                "duration": 0.0136364,
                "tempo": 120.0
            },
            {
                "start_time": 26.2954545,
                "end_time": 26.3818182,
                "pitch": 31,
                "velocity": 80,
                "duration": 0.0863636,
                "tempo": 120.0
            },
            {
                "start_time": 26.3818182,
                "end_time": 26.4477273,
                "pitch": 31,
                "velocity": 80,
                "duration": 0.0659091,
                "tempo": 120.0
            },
            {
                "start_time": 26.2818182,
                "end_time": 26.4477273,
                "pitch": 43,
                "velocity": 80,
                "duration": 0.1659091,
                "tempo": 120.0
            },
            {
                "start_time": 26.2818182,
                "end_time": 26.4477273,
                "pitch": 43,
                "velocity": 80,
                "duration": 0.1659091,
                "tempo": 120.0
            },
            {
                "start_time": 26.2954545,
                "end_time": 26.4636364,
                "pitch": 0,
                "velocity": 80,
                "duration": 0.1681818,
                "tempo": 120.0
            },
            {
                "start_time": 26.4477273,
                "end_time": 26.4636364,
                "pitch": 31,
                "velocity": 80,
                "duration": 0.0159091,
                "tempo": 120.0
            },
            {
                "start_time": 26.4636364,
                "end_time": 26.6136364,
                "pitch": 31,
                "velocity": 80,
                "duration": 0.15,
                "tempo": 120.0
            },
            {
                "start_time": 26.4477273,
                "end_time": 26.6136364,
                "pitch": 43,
                "velocity": 80,
                "duration": 0.1659091,
                "tempo": 120.0
            },
            {
                "start_time": 26.4636364,
                "end_time": 26.6318182,
                "pitch": 0,
                "velocity": 80,
                "duration": 0.1681818,
                "tempo": 120.0
            },
            {
                "start_time": 26.6136364,
                "end_time": 26.6318182,
                "pitch": 31,
                "velocity": 80,
                "duration": 0.0181818,
                "tempo": 120.0
            },
            {
                "start_time": 26.6318182,
                "end_time": 26.7840909,
                "pitch": 31,
                "velocity": 80,
                "duration": 0.1522727,
                "tempo": 120.0
            },
            {
                "start_time": 26.6136364,
                "end_time": 26.7840909,
                "pitch": 43,
                "velocity": 80,
                "duration": 0.1704545,
                "tempo": 120.0
            },
            {
                "start_time": 26.7840909,
                "end_time": 26.7863636,
                "pitch": 43,
                "velocity": 80,
                "duration": 0.0022727,
                "tempo": 120.0
            },
            {
                "start_time": 12.0090909,
                "end_time": 26.7863636,
                "pitch": 55,
                "velocity": 80,
                "duration": 14.7772727,
                "tempo": 120.0
            },
            {
                "start_time": 26.6318182,
                "end_time": 26.8,
                "pitch": 0,
                "velocity": 80,
                "duration": 0.1681818,
                "tempo": 120.0
            },
            {
                "start_time": 26.7863636,
                "end_time": 26.8,
                "pitch": 43,
                "velocity": 80,
                "duration": 0.0136364,
                "tempo": 120.0
            },
            {
                "start_time": 26.7863636,
                "end_time": 26.8,
                "pitch": 43,
                "velocity": 80,
                "duration": 0.0136364,
                "tempo": 120.0
            },
            {
                "start_time": 26.8,
                "end_time": 26.8863636,
                "pitch": 43,
                "velocity": 80,
                "duration": 0.0863636,
                "tempo": 120.0
            },
            {
                "start_time": 26.7840909,
                "end_time": 27.0931818,
                "pitch": 31,
                "velocity": 80,
                "duration": 0.3090909,
                "tempo": 120.0
            },
            {
                "start_time": 26.9909091,
                "end_time": 27.0931818,
                "pitch": 31,
                "velocity": 80,
                "duration": 0.1022727,
                "tempo": 120.0
            },
            {
                "start_time": 27.0931818,
                "end_time": 27.125,
                "pitch": 31,
                "velocity": 80,
                "duration": 0.0318182,
                "tempo": 120.0
            },
            {
                "start_time": 26.8,
                "end_time": 27.1431818,
                "pitch": 0,
                "velocity": 80,
                "duration": 0.3431818,
                "tempo": 120.0
            },
            {
                "start_time": 27.125,
                "end_time": 27.1431818,
                "pitch": 31,
                "velocity": 80,
                "duration": 0.0181818,
                "tempo": 120.0
            },
            {
                "start_time": 27.1431818,
                "end_time": 27.1954545,
                "pitch": 31,
                "velocity": 80,
                "duration": 0.0522727,
                "tempo": 120.0
            },
            {
                "start_time": 27.1954545,
                "end_time": 27.2931818,
                "pitch": 31,
                "velocity": 80,
                "duration": 0.0977273,
                "tempo": 120.0
            },
            {
                "start_time": 27.125,
                "end_time": 27.2931818,
                "pitch": 43,
                "velocity": 80,
                "duration": 0.1681818,
                "tempo": 120.0
            },
            {
                "start_time": 27.1431818,
                "end_time": 27.3090909,
                "pitch": 0,
                "velocity": 80,
                "duration": 0.1659091,
                "tempo": 120.0
            },
            {
                "start_time": 27.2931818,
                "end_time": 27.3090909,
                "pitch": 31,
                "velocity": 80,
                "duration": 0.0159091,
                "tempo": 120.0
            },
            {
                "start_time": 27.3090909,
                "end_time": 27.4568182,
                "pitch": 31,
                "velocity": 80,
                "duration": 0.1477273,
                "tempo": 120.0
            },
            {
                "start_time": 27.2931818,
                "end_time": 27.4568182,
                "pitch": 43,
                "velocity": 80,
                "duration": 0.1636364,
                "tempo": 120.0
            },
            {
                "start_time": 27.3090909,
                "end_time": 27.4727273,
                "pitch": 0,
                "velocity": 80,
                "duration": 0.1636364,
                "tempo": 120.0
            },
            {
                "start_time": 27.4568182,
                "end_time": 27.4727273,
                "pitch": 31,
                "velocity": 80,
                "duration": 0.0159091,
                "tempo": 120.0
            },
            {
                "start_time": 27.4727273,
                "end_time": 27.5886364,
                "pitch": 31,
                "velocity": 80,
                "duration": 0.1159091,
                "tempo": 120.0
            },
            {
                "start_time": 27.5886364,
                "end_time": 27.6204545,
                "pitch": 31,
                "velocity": 80,
                "duration": 0.0318182,
                "tempo": 120.0
            },
            {
                "start_time": 27.4568182,
                "end_time": 27.6204545,
                "pitch": 43,
                "velocity": 80,
                "duration": 0.1636364,
                "tempo": 120.0
            },
            {
                "start_time": 27.4727273,
                "end_time": 27.6386364,
                "pitch": 0,
                "velocity": 80,
                "duration": 0.1659091,
                "tempo": 120.0
            },
            {
                "start_time": 27.6204545,
                "end_time": 27.6386364,
                "pitch": 31,
                "velocity": 80,
                "duration": 0.0181818,
                "tempo": 120.0
            },
            {
                "start_time": 27.6386364,
                "end_time": 27.6727273,
                "pitch": 31,
                "velocity": 80,
                "duration": 0.0340909,
                "tempo": 120.0
            },
            {
                "start_time": 27.6204545,
                "end_time": 27.7931818,
                "pitch": 43,
                "velocity": 80,
                "duration": 0.1727273,
                "tempo": 120.0
            },
            {
                "start_time": 27.6386364,
                "end_time": 27.8090909,
                "pitch": 0,
                "velocity": 80,
                "duration": 0.1704545,
                "tempo": 120.0
            },
            {
                "start_time": 27.7931818,
                "end_time": 27.8090909,
                "pitch": 31,
                "velocity": 80,
                "duration": 0.0159091,
                "tempo": 120.0
            },
            {
                "start_time": 27.7931818,
                "end_time": 27.8090909,
                "pitch": 31,
                "velocity": 80,
                "duration": 0.0159091,
                "tempo": 120.0
            },
            {
                "start_time": 27.8090909,
                "end_time": 27.8772727,
                "pitch": 31,
                "velocity": 80,
                "duration": 0.0681818,
                "tempo": 120.0
            },
            {
                "start_time": 28.0,
                "end_time": 28.0795455,
                "pitch": 33,
                "velocity": 80,
                "duration": 0.0795455,
                "tempo": 120.0
            },
            {
                "start_time": 28.1954545,
                "end_time": 28.275,
                "pitch": 35,
                "velocity": 80,
                "duration": 0.0795455,
                "tempo": 120.0
            },
            {
                "start_time": 28.3931818,
                "end_time": 28.475,
                "pitch": 36,
                "velocity": 80,
                "duration": 0.0818182,
                "tempo": 120.0
            },
            {
                "start_time": 28.5931818,
                "end_time": 28.625,
                "pitch": 31,
                "velocity": 80,
                "duration": 0.0318182,
                "tempo": 120.0
            },
            {
                "start_time": 27.7931818,
                "end_time": 28.625,
                "pitch": 43,
                "velocity": 80,
                "duration": 0.8318182,
                "tempo": 120.0
            },
            {
                "start_time": 27.8090909,
                "end_time": 28.6431818,
                "pitch": 0,
                "velocity": 80,
                "duration": 0.8340909,
                "tempo": 120.0
            },
            {
                "start_time": 28.625,
                "end_time": 28.6431818,
                "pitch": 31,
                "velocity": 80,
                "duration": 0.0181818,
                "tempo": 120.0
            },
            {
                "start_time": 28.6431818,
                "end_time": 28.675,
                "pitch": 31,
                "velocity": 80,
                "duration": 0.0318182,
                "tempo": 120.0
            },
            {
                "start_time": 28.7954545,
                "end_time": 29.1977273,
                "pitch": 36,
                "velocity": 80,
                "duration": 0.4022727,
                "tempo": 120.0
            },
            {
                "start_time": 29.1977273,
                "end_time": 29.4454545,
                "pitch": 36,
                "velocity": 80,
                "duration": 0.2477273,
                "tempo": 120.0
            },
            {
                "start_time": 29.5954545,
                "end_time": 29.8522727,
                "pitch": 33,
                "velocity": 80,
                "duration": 0.2568182,
                "tempo": 120.0
            },
            {
                "start_time": 30.0068182,
                "end_time": 30.2590909,
                "pitch": 29,
                "velocity": 80,
                "duration": 0.2522727,
                "tempo": 120.0
            },
            {
                "start_time": 30.4113636,
                "end_time": 30.6545455,
                "pitch": 29,
                "velocity": 80,
                "duration": 0.2431818,
                "tempo": 120.0
            },
            {
                "start_time": 30.8045455,
                "end_time": 31.0522727,
                "pitch": 36,
                "velocity": 80,
                "duration": 0.2477273,
                "tempo": 120.0
            },
            {
                "start_time": 31.2022727,
                "end_time": 31.4590909,
                "pitch": 33,
                "velocity": 80,
                "duration": 0.2568182,
                "tempo": 120.0
            },
            {
                "start_time": 31.6159091,
                "end_time": 31.8636364,
                "pitch": 29,
                "velocity": 80,
                "duration": 0.2477273,
                "tempo": 120.0
            },
            {
                "start_time": 32.0159091,
                "end_time": 32.2590909,
                "pitch": 35,
                "velocity": 80,
                "duration": 0.2431818,
                "tempo": 120.0
            },
            {
                "start_time": 32.4090909,
                "end_time": 32.6568182,
                "pitch": 36,
                "velocity": 80,
                "duration": 0.2477273,
                "tempo": 120.0
            },
            {
                "start_time": 32.8090909,
                "end_time": 33.0659091,
                "pitch": 33,
                "velocity": 80,
                "duration": 0.2568182,
                "tempo": 120.0
            },
            {
                "start_time": 33.2204545,
                "end_time": 33.4636364,
                "pitch": 34,
                "velocity": 80,
                "duration": 0.2431818,
                "tempo": 120.0
            },
            {
                "start_time": 33.6136364,
                "end_time": 33.8681818,
                "pitch": 30,
                "velocity": 80,
                "duration": 0.2545455,
                "tempo": 120.0
            },
            {
                "start_time": 34.025,
                "end_time": 34.1386364,
                "pitch": 31,
                "velocity": 80,
                "duration": 0.1136364,
                "tempo": 120.0
            },
            {
                "start_time": 28.625,
                "end_time": 34.1386364,
                "pitch": 43,
                "velocity": 80,
                "duration": 5.5136364,
                "tempo": 120.0
            },
            {
                "start_time": 28.6431818,
                "end_time": 34.1886364,
                "pitch": 0,
                "velocity": 80,
                "duration": 5.5454545,
                "tempo": 120.0
            },
            {
                "start_time": 34.1386364,
                "end_time": 34.1886364,
                "pitch": 31,
                "velocity": 80,
                "duration": 0.05,
                "tempo": 120.0
            },
            {
                "start_time": 34.1886364,
                "end_time": 34.2727273,
                "pitch": 31,
                "velocity": 80,
                "duration": 0.0840909,
                "tempo": 120.0
            },
            {
                "start_time": 34.425,
                "end_time": 34.675,
                "pitch": 28,
                "velocity": 80,
                "duration": 0.25,
                "tempo": 120.0
            },
            {
                "start_time": 34.8272727,
                "end_time": 35.0772727,
                "pitch": 29,
                "velocity": 80,
                "duration": 0.25,
                "tempo": 120.0
            },
            {
                "start_time": 35.2295455,
                "end_time": 35.4772727,
                "pitch": 24,
                "velocity": 80,
                "duration": 0.2477273,
                "tempo": 120.0
            },
            {
                "start_time": 35.6295455,
                "end_time": 35.8772727,
                "pitch": 38,
                "velocity": 80,
                "duration": 0.2477273,
                "tempo": 120.0
            },
            {
                "start_time": 36.0295455,
                "end_time": 36.2840909,
                "pitch": 35,
                "velocity": 80,
                "duration": 0.2545455,
                "tempo": 120.0
            },
            {
                "start_time": 36.4409091,
                "end_time": 36.4886364,
                "pitch": 31,
                "velocity": 80,
                "duration": 0.0477273,
                "tempo": 120.0
            },
            {
                "start_time": 34.1386364,
                "end_time": 36.4886364,
                "pitch": 43,
                "velocity": 80,
                "duration": 2.35,
                "tempo": 120.0
            },
            {
                "start_time": 34.1886364,
                "end_time": 36.5409091,
                "pitch": 0,
                "velocity": 80,
                "duration": 2.3522727,
                "tempo": 120.0
            },
            {
                "start_time": 36.4886364,
                "end_time": 36.5409091,
                "pitch": 31,
                "velocity": 80,
                "duration": 0.0522727,
                "tempo": 120.0
            },
            {
                "start_time": 36.5409091,
                "end_time": 36.6568182,
                "pitch": 31,
                "velocity": 80,
                "duration": 0.1159091,
                "tempo": 120.0
            },
            {
                "start_time": 36.4886364,
                "end_time": 36.6568182,
                "pitch": 43,
                "velocity": 80,
                "duration": 0.1681818,
                "tempo": 120.0
            },
            {
                "start_time": 36.6568182,
                "end_time": 36.6909091,
                "pitch": 31,
                "velocity": 80,
                "duration": 0.0340909,
                "tempo": 120.0
            },
            {
                "start_time": 36.8409091,
                "end_time": 37.0863636,
                "pitch": 35,
                "velocity": 80,
                "duration": 0.2454545,
                "tempo": 120.0
            },
            {
                "start_time": 37.2340909,
                "end_time": 37.4840909,
                "pitch": 35,
                "velocity": 80,
                "duration": 0.25,
                "tempo": 120.0
            },
            {
                "start_time": 37.6340909,
                "end_time": 37.8909091,
                "pitch": 34,
                "velocity": 80,
                "duration": 0.2568182,
                "tempo": 120.0
            },
            {
                "start_time": 38.0454545,
                "end_time": 38.2977273,
                "pitch": 33,
                "velocity": 80,
                "duration": 0.2522727,
                "tempo": 120.0
            },
            {
                "start_time": 38.45,
                "end_time": 38.6931818,
                "pitch": 29,
                "velocity": 80,
                "duration": 0.2431818,
                "tempo": 120.0
            },
            {
                "start_time": 38.8431818,
                "end_time": 39.0909091,
                "pitch": 29,
                "velocity": 80,
                "duration": 0.2477273,
                "tempo": 120.0
            },
            {
                "start_time": 39.2409091,
                "end_time": 39.4909091,
                "pitch": 24,
                "velocity": 80,
                "duration": 0.25,
                "tempo": 120.0
            },
            {
                "start_time": 39.6431818,
                "end_time": 39.8909091,
                "pitch": 29,
                "velocity": 80,
                "duration": 0.2477273,
                "tempo": 120.0
            },
            {
                "start_time": 40.0431818,
                "end_time": 40.3,
                "pitch": 24,
                "velocity": 80,
                "duration": 0.2568182,
                "tempo": 120.0
            },
            {
                "start_time": 40.4545455,
                "end_time": 40.6977273,
                "pitch": 28,
                "velocity": 80,
                "duration": 0.2431818,
                "tempo": 120.0
            },
            {
                "start_time": 40.8477273,
                "end_time": 41.1022727,
                "pitch": 24,
                "velocity": 80,
                "duration": 0.2545455,
                "tempo": 120.0
            },
            {
                "start_time": 41.2590909,
                "end_time": 41.5068182,
                "pitch": 29,
                "velocity": 80,
                "duration": 0.2477273,
                "tempo": 120.0
            },
            {
                "start_time": 41.6590909,
                "end_time": 41.9090909,
                "pitch": 29,
                "velocity": 80,
                "duration": 0.25,
                "tempo": 120.0
            },
            {
                "start_time": 44.4704545,
                "end_time": 44.5704545,
                "pitch": 48,
                "velocity": 80,
                "duration": 0.1,
                "tempo": 120.0
            },
            {
                "start_time": 44.6704545,
                "end_time": 44.7704545,
                "pitch": 45,
                "velocity": 80,
                "duration": 0.1,
                "tempo": 120.0
            },
            {
                "start_time": 36.6568182,
                "end_time": 44.9704545,
                "pitch": 43,
                "velocity": 80,
                "duration": 8.3136364,
                "tempo": 120.0
            },
            {
                "start_time": 44.8704545,
                "end_time": 44.9704545,
                "pitch": 43,
                "velocity": 80,
                "duration": 0.1,
                "tempo": 120.0
            },
            {
                "start_time": 45.0704545,
                "end_time": 45.1704545,
                "pitch": 40,
                "velocity": 80,
                "duration": 0.1,
                "tempo": 120.0
            },
            {
                "start_time": 45.275,
                "end_time": 45.4704545,
                "pitch": 48,
                "velocity": 80,
                "duration": 0.1954545,
                "tempo": 120.0
            },
            {
                "start_time": 45.6727273,
                "end_time": 45.7886364,
                "pitch": 43,
                "velocity": 80,
                "duration": 0.1159091,
                "tempo": 120.0
            },
            {
                "start_time": 26.7863636,
                "end_time": 45.7886364,
                "pitch": 55,
                "velocity": 80,
                "duration": 19.0022727,
                "tempo": 120.0
            },
            {
                "start_time": 36.5409091,
                "end_time": 45.8386364,
                "pitch": 0,
                "velocity": 80,
                "duration": 9.2977273,
                "tempo": 120.0
            },
            {
                "start_time": 45.7886364,
                "end_time": 45.8386364,
                "pitch": 43,
                "velocity": 80,
                "duration": 0.05,
                "tempo": 120.0
            },
            {
                "start_time": 45.8386364,
                "end_time": 45.8704545,
                "pitch": 43,
                "velocity": 80,
                "duration": 0.0318182,
                "tempo": 120.0
            },
            {
                "start_time": 46.0727273,
                "end_time": 46.2727273,
                "pitch": 45,
                "velocity": 80,
                "duration": 0.2,
                "tempo": 120.0
            },
            {
                "start_time": 46.475,
                "end_time": 46.6772727,
                "pitch": 47,
                "velocity": 80,
                "duration": 0.2022727,
                "tempo": 120.0
            },
            {
                "start_time": 46.8772727,
                "end_time": 47.0772727,
                "pitch": 48,
                "velocity": 80,
                "duration": 0.2,
                "tempo": 120.0
            },
            {
                "start_time": 47.2772727,
                "end_time": 47.2931818,
                "pitch": 43,
                "velocity": 80,
                "duration": 0.0159091,
                "tempo": 120.0
            },
            {
                "start_time": 45.7886364,
                "end_time": 47.2931818,
                "pitch": 55,
                "velocity": 80,
                "duration": 1.5045455,
                "tempo": 120.0
            },
            {
                "start_time": 45.8386364,
                "end_time": 47.3431818,
                "pitch": 0,
                "velocity": 80,
                "duration": 1.5045455,
                "tempo": 120.0
            },
            {
                "start_time": 47.2931818,
                "end_time": 47.3431818,
                "pitch": 43,
                "velocity": 80,
                "duration": 0.05,
                "tempo": 120.0
            },
            {
                "start_time": 47.3431818,
                "end_time": 47.4590909,
                "pitch": 43,
                "velocity": 80,
                "duration": 0.1159091,
                "tempo": 120.0
            },
            {
                "start_time": 47.2931818,
                "end_time": 47.4590909,
                "pitch": 55,
                "velocity": 80,
                "duration": 0.1659091,
                "tempo": 120.0
            },
            {
                "start_time": 47.4590909,
                "end_time": 47.4772727,
                "pitch": 43,
                "velocity": 80,
                "duration": 0.0181818,
                "tempo": 120.0
            },
            {
                "start_time": 47.6772727,
                "end_time": 47.8772727,
                "pitch": 45,
                "velocity": 80,
                "duration": 0.2,
                "tempo": 120.0
            },
            {
                "start_time": 48.0772727,
                "end_time": 48.2795455,
                "pitch": 47,
                "velocity": 80,
                "duration": 0.2022727,
                "tempo": 120.0
            },
            {
                "start_time": 48.4818182,
                "end_time": 48.6863636,
                "pitch": 54,
                "velocity": 80,
                "duration": 0.2045455,
                "tempo": 120.0
            },
            {
                "start_time": 48.8931818,
                "end_time": 49.0909091,
                "pitch": 48,
                "velocity": 80,
                "duration": 0.1977273,
                "tempo": 120.0
            },
            {
                "start_time": 49.2931818,
                "end_time": 49.4954545,
                "pitch": 54,
                "velocity": 80,
                "duration": 0.2022727,
                "tempo": 120.0
            },
            {
                "start_time": 49.6977273,
                "end_time": 49.8954545,
                "pitch": 48,
                "velocity": 80,
                "duration": 0.1977273,
                "tempo": 120.0
            },
            {
                "start_time": 50.0977273,
                "end_time": 50.2977273,
                "pitch": 54,
                "velocity": 80,
                "duration": 0.2,
                "tempo": 120.0
            },
            {
                "start_time": 50.2977273,
                "end_time": 50.3795455,
                "pitch": 53,
                "velocity": 80,
                "duration": 0.0818182,
                "tempo": 120.0
            },
            {
                "start_time": 50.4977273,
                "end_time": 50.5795455,
                "pitch": 52,
                "velocity": 80,
                "duration": 0.0818182,
                "tempo": 120.0
            },
            {
                "start_time": 50.6977273,
                "end_time": 50.7795455,
                "pitch": 51,
                "velocity": 80,
                "duration": 0.0818182,
                "tempo": 120.0
            },
            {
                "start_time": 50.9,
                "end_time": 51.0977273,
                "pitch": 50,
                "velocity": 80,
                "duration": 0.1977273,
                "tempo": 120.0
            },
            {
                "start_time": 51.0977273,
                "end_time": 51.1795455,
                "pitch": 51,
                "velocity": 80,
                "duration": 0.0818182,
                "tempo": 120.0
            },
            {
                "start_time": 51.3,
                "end_time": 51.3818182,
                "pitch": 52,
                "velocity": 80,
                "duration": 0.0818182,
                "tempo": 120.0
            },
            {
                "start_time": 51.5,
                "end_time": 51.5818182,
                "pitch": 53,
                "velocity": 80,
                "duration": 0.0818182,
                "tempo": 120.0
            },
            {
                "start_time": 51.7022727,
                "end_time": 51.9,
                "pitch": 48,
                "velocity": 80,
                "duration": 0.1977273,
                "tempo": 120.0
            },
            {
                "start_time": 52.1022727,
                "end_time": 52.15,
                "pitch": 43,
                "velocity": 80,
                "duration": 0.0477273,
                "tempo": 120.0
            },
            {
                "start_time": 47.4590909,
                "end_time": 52.15,
                "pitch": 55,
                "velocity": 80,
                "duration": 4.6909091,
                "tempo": 120.0
            },
            {
                "start_time": 47.3431818,
                "end_time": 52.2,
                "pitch": 0,
                "velocity": 80,
                "duration": 4.8568182,
                "tempo": 120.0
            },
            {
                "start_time": 52.15,
                "end_time": 52.2,
                "pitch": 43,
                "velocity": 80,
                "duration": 0.05,
                "tempo": 120.0
            },
            {
                "start_time": 52.2,
                "end_time": 52.3,
                "pitch": 43,
                "velocity": 80,
                "duration": 0.1,
                "tempo": 120.0
            },
            {
                "start_time": 52.5045455,
                "end_time": 52.7022727,
                "pitch": 45,
                "velocity": 80,
                "duration": 0.1977273,
                "tempo": 120.0
            },
            {
                "start_time": 52.9022727,
                "end_time": 53.1045455,
                "pitch": 47,
                "velocity": 80,
                "duration": 0.2022727,
                "tempo": 120.0
            },
            {
                "start_time": 53.3045455,
                "end_time": 53.5045455,
                "pitch": 48,
                "velocity": 80,
                "duration": 0.2,
                "tempo": 120.0
            },
            {
                "start_time": 53.7068182,
                "end_time": 53.8227273,
                "pitch": 43,
                "velocity": 80,
                "duration": 0.1159091,
                "tempo": 120.0
            },
            {
                "start_time": 52.15,
                "end_time": 53.8227273,
                "pitch": 55,
                "velocity": 80,
                "duration": 1.6727273,
                "tempo": 120.0
            },
            {
                "start_time": 52.2,
                "end_time": 53.8727273,
                "pitch": 0,
                "velocity": 80,
                "duration": 1.6727273,
                "tempo": 120.0
            },
            {
                "start_time": 53.8227273,
                "end_time": 53.8727273,
                "pitch": 43,
                "velocity": 80,
                "duration": 0.05,
                "tempo": 120.0
            },
            {
                "start_time": 53.8727273,
                "end_time": 53.9068182,
                "pitch": 43,
                "velocity": 80,
                "duration": 0.0340909,
                "tempo": 120.0
            },
            {
                "start_time": 54.1090909,
                "end_time": 54.3068182,
                "pitch": 45,
                "velocity": 80,
                "duration": 0.1977273,
                "tempo": 120.0
            },
            {
                "start_time": 54.5068182,
                "end_time": 54.7090909,
                "pitch": 47,
                "velocity": 80,
                "duration": 0.2022727,
                "tempo": 120.0
            },
            {
                "start_time": 54.9090909,
                "end_time": 55.1090909,
                "pitch": 54,
                "velocity": 80,
                "duration": 0.2,
                "tempo": 120.0
            },
            {
                "start_time": 55.3090909,
                "end_time": 55.5090909,
                "pitch": 48,
                "velocity": 80,
                "duration": 0.2,
                "tempo": 120.0
            },
            {
                "start_time": 55.7136364,
                "end_time": 55.9181818,
                "pitch": 54,
                "velocity": 80,
                "duration": 0.2045455,
                "tempo": 120.0
            },
            {
                "start_time": 56.125,
                "end_time": 56.3227273,
                "pitch": 48,
                "velocity": 80,
                "duration": 0.1977273,
                "tempo": 120.0
            },
            {
                "start_time": 56.525,
                "end_time": 56.725,
                "pitch": 54,
                "velocity": 80,
                "duration": 0.2,
                "tempo": 120.0
            },
            {
                "start_time": 56.725,
                "end_time": 56.8068182,
                "pitch": 53,
                "velocity": 80,
                "duration": 0.0818182,
                "tempo": 120.0
            },
            {
                "start_time": 56.925,
                "end_time": 57.0068182,
                "pitch": 52,
                "velocity": 80,
                "duration": 0.0818182,
                "tempo": 120.0
            },
            {
                "start_time": 57.1272727,
                "end_time": 57.2090909,
                "pitch": 51,
                "velocity": 80,
                "duration": 0.0818182,
                "tempo": 120.0
            },
            {
                "start_time": 57.3295455,
                "end_time": 57.5272727,
                "pitch": 50,
                "velocity": 80,
                "duration": 0.1977273,
                "tempo": 120.0
            }
        ],
        "Acoustic Bass": [
            {
                "start_time": 2.6295455,
                "end_time": 2.7318182,
                "pitch": 36,
                "velocity": 80,
                "duration": 0.1022727,
                "tempo": 120.0
            },
            {
                "start_time": 2.8340909,
                "end_time": 2.9363636,
                "pitch": 33,
                "velocity": 80,
                "duration": 0.1022727,
                "tempo": 120.0
            },
            {
                "start_time": 3.0409091,
                "end_time": 3.1386364,
                "pitch": 31,
                "velocity": 80,
                "duration": 0.0977273,
                "tempo": 120.0
            },
            {
                "start_time": 3.2363636,
                "end_time": 3.3340909,
                "pitch": 28,
                "velocity": 80,
                "duration": 0.0977273,
                "tempo": 120.0
            },
            {
                "start_time": 3.4363636,
                "end_time": 3.6386364,
                "pitch": 36,
                "velocity": 80,
                "duration": 0.2022727,
                "tempo": 120.0
            },
            {
                "start_time": 3.8477273,
                "end_time": 4.0454545,
                "pitch": 31,
                "velocity": 80,
                "duration": 0.1977273,
                "tempo": 120.0
            },
            {
                "start_time": 4.2477273,
                "end_time": 4.4454545,
                "pitch": 33,
                "velocity": 80,
                "duration": 0.1977273,
                "tempo": 120.0
            },
            {
                "start_time": 4.65,
                "end_time": 4.85,
                "pitch": 35,
                "velocity": 80,
                "duration": 0.2,
                "tempo": 120.0
            },
            {
                "start_time": 5.0522727,
                "end_time": 5.2522727,
                "pitch": 36,
                "velocity": 80,
                "duration": 0.2,
                "tempo": 120.0
            },
            {
                "start_time": 5.4545455,
                "end_time": 5.6545455,
                "pitch": 31,
                "velocity": 80,
                "duration": 0.2,
                "tempo": 120.0
            },
            {
                "start_time": 5.8545455,
                "end_time": 6.0545455,
                "pitch": 33,
                "velocity": 80,
                "duration": 0.2,
                "tempo": 120.0
            },
            {
                "start_time": 6.2568182,
                "end_time": 6.4590909,
                "pitch": 35,
                "velocity": 80,
                "duration": 0.2022727,
                "tempo": 120.0
            },
            {
                "start_time": 6.6613636,
                "end_time": 6.8613636,
                "pitch": 42,
                "velocity": 80,
                "duration": 0.2,
                "tempo": 120.0
            },
            {
                "start_time": 7.0613636,
                "end_time": 7.2613636,
                "pitch": 36,
                "velocity": 80,
                "duration": 0.2,
                "tempo": 120.0
            },
            {
                "start_time": 7.4659091,
                "end_time": 7.6704545,
                "pitch": 42,
                "velocity": 80,
                "duration": 0.2045455,
                "tempo": 120.0
            },
            {
                "start_time": 7.8772727,
                "end_time": 8.0704545,
                "pitch": 36,
                "velocity": 80,
                "duration": 0.1931818,
                "tempo": 120.0
            },
            {
                "start_time": 8.2704545,
                "end_time": 8.4727273,
                "pitch": 42,
                "velocity": 80,
                "duration": 0.2022727,
                "tempo": 120.0
            },
            {
                "start_time": 8.475,
                "end_time": 8.5568182,
                "pitch": 41,
                "velocity": 80,
                "duration": 0.0818182,
                "tempo": 120.0
            },
            {
                "start_time": 8.6795455,
                "end_time": 8.7590909,
                "pitch": 40,
                "velocity": 80,
                "duration": 0.0795455,
                "tempo": 120.0
            },
            {
                "start_time": 8.875,
                "end_time": 8.9545455,
                "pitch": 39,
                "velocity": 80,
                "duration": 0.0795455,
                "tempo": 120.0
            },
            {
                "start_time": 9.0727273,
                "end_time": 9.2704545,
                "pitch": 38,
                "velocity": 80,
                "duration": 0.1977273,
                "tempo": 120.0
            },
            {
                "start_time": 9.2704545,
                "end_time": 9.3545455,
                "pitch": 39,
                "velocity": 80,
                "duration": 0.0840909,
                "tempo": 120.0
            },
            {
                "start_time": 9.4727273,
                "end_time": 9.5568182,
                "pitch": 40,
                "velocity": 80,
                "duration": 0.0840909,
                "tempo": 120.0
            },
            {
                "start_time": 9.6772727,
                "end_time": 9.7613636,
                "pitch": 41,
                "velocity": 80,
                "duration": 0.0840909,
                "tempo": 120.0
            },
            {
                "start_time": 9.8863636,
                "end_time": 10.0772727,
                "pitch": 36,
                "velocity": 80,
                "duration": 0.1909091,
                "tempo": 120.0
            },
            {
                "start_time": 10.2772727,
                "end_time": 10.4795455,
                "pitch": 31,
                "velocity": 80,
                "duration": 0.2022727,
                "tempo": 120.0
            },
            {
                "start_time": 10.6886364,
                "end_time": 10.8863636,
                "pitch": 33,
                "velocity": 80,
                "duration": 0.1977273,
                "tempo": 120.0
            },
            {
                "start_time": 11.0909091,
                "end_time": 11.2909091,
                "pitch": 35,
                "velocity": 80,
                "duration": 0.2,
                "tempo": 120.0
            },
            {
                "start_time": 11.4909091,
                "end_time": 11.6931818,
                "pitch": 36,
                "velocity": 80,
                "duration": 0.2022727,
                "tempo": 120.0
            },
            {
                "start_time": 11.8954545,
                "end_time": 12.0954545,
                "pitch": 31,
                "velocity": 80,
                "duration": 0.2,
                "tempo": 120.0
            },
            {
                "start_time": 12.2977273,
                "end_time": 12.4977273,
                "pitch": 33,
                "velocity": 80,
                "duration": 0.2,
                "tempo": 120.0
            },
            {
                "start_time": 12.7,
                "end_time": 12.9022727,
                "pitch": 35,
                "velocity": 80,
                "duration": 0.2022727,
                "tempo": 120.0
            },
            {
                "start_time": 13.1045455,
                "end_time": 13.3045455,
                "pitch": 42,
                "velocity": 80,
                "duration": 0.2,
                "tempo": 120.0
            },
            {
                "start_time": 13.5045455,
                "end_time": 13.7045455,
                "pitch": 36,
                "velocity": 80,
                "duration": 0.2,
                "tempo": 120.0
            },
            {
                "start_time": 13.9090909,
                "end_time": 14.1136364,
                "pitch": 42,
                "velocity": 80,
                "duration": 0.2045455,
                "tempo": 120.0
            },
            {
                "start_time": 14.3204545,
                "end_time": 14.5136364,
                "pitch": 36,
                "velocity": 80,
                "duration": 0.1931818,
                "tempo": 120.0
            },
            {
                "start_time": 14.7136364,
                "end_time": 14.9181818,
                "pitch": 42,
                "velocity": 80,
                "duration": 0.2045455,
                "tempo": 120.0
            },
            {
                "start_time": 14.9181818,
                "end_time": 15.0,
                "pitch": 41,
                "velocity": 80,
                "duration": 0.0818182,
                "tempo": 120.0
            },
            {
                "start_time": 15.1227273,
                "end_time": 15.2022727,
                "pitch": 40,
                "velocity": 80,
                "duration": 0.0795455,
                "tempo": 120.0
            },
            {
                "start_time": 15.3204545,
                "end_time": 15.4,
                "pitch": 39,
                "velocity": 80,
                "duration": 0.0795455,
                "tempo": 120.0
            },
            {
                "start_time": 15.5159091,
                "end_time": 15.7181818,
                "pitch": 38,
                "velocity": 80,
                "duration": 0.2022727,
                "tempo": 120.0
            },
            {
                "start_time": 15.7181818,
                "end_time": 15.8,
                "pitch": 39,
                "velocity": 80,
                "duration": 0.0818182,
                "tempo": 120.0
            },
            {
                "start_time": 15.9181818,
                "end_time": 16.0,
                "pitch": 40,
                "velocity": 80,
                "duration": 0.0818182,
                "tempo": 120.0
            },
            {
                "start_time": 16.1204545,
                "end_time": 16.2022727,
                "pitch": 41,
                "velocity": 80,
                "duration": 0.0818182,
                "tempo": 120.0
            },
            {
                "start_time": 16.325,
                "end_time": 16.5204545,
                "pitch": 36,
                "velocity": 80,
                "duration": 0.1954545,
                "tempo": 120.0
            },
            {
                "start_time": 16.7227273,
                "end_time": 16.925,
                "pitch": 31,
                "velocity": 80,
                "duration": 0.2022727,
                "tempo": 120.0
            },
            {
                "start_time": 17.1272727,
                "end_time": 17.325,
                "pitch": 36,
                "velocity": 80,
                "duration": 0.1977273,
                "tempo": 120.0
            },
            {
                "start_time": 17.525,
                "end_time": 17.625,
                "pitch": 31,
                "velocity": 80,
                "duration": 0.1,
                "tempo": 120.0
            },
            {
                "start_time": 17.7295455,
                "end_time": 17.8272727,
                "pitch": 31,
                "velocity": 80,
                "duration": 0.0977273,
                "tempo": 120.0
            },
            {
                "start_time": 17.9295455,
                "end_time": 18.1272727,
                "pitch": 36,
                "velocity": 80,
                "duration": 0.1977273,
                "tempo": 120.0
            },
            {
                "start_time": 18.3295455,
                "end_time": 18.5295455,
                "pitch": 31,
                "velocity": 80,
                "duration": 0.2,
                "tempo": 120.0
            },
            {
                "start_time": 18.7318182,
                "end_time": 18.8318182,
                "pitch": 36,
                "velocity": 80,
                "duration": 0.1,
                "tempo": 120.0
            },
            {
                "start_time": 18.9363636,
                "end_time": 19.0363636,
                "pitch": 31,
                "velocity": 80,
                "duration": 0.1,
                "tempo": 120.0
            },
            {
                "start_time": 19.1431818,
                "end_time": 19.2409091,
                "pitch": 36,
                "velocity": 80,
                "duration": 0.0977273,
                "tempo": 120.0
            },
            {
                "start_time": 19.3431818,
                "end_time": 19.4431818,
                "pitch": 37,
                "velocity": 80,
                "duration": 0.1,
                "tempo": 120.0
            },
            {
                "start_time": 19.5454545,
                "end_time": 19.7386364,
                "pitch": 38,
                "velocity": 80,
                "duration": 0.1931818,
                "tempo": 120.0
            },
            {
                "start_time": 19.9363636,
                "end_time": 20.1363636,
                "pitch": 31,
                "velocity": 80,
                "duration": 0.2,
                "tempo": 120.0
            },
            {
                "start_time": 20.3386364,
                "end_time": 20.5363636,
                "pitch": 38,
                "velocity": 80,
                "duration": 0.1977273,
                "tempo": 120.0
            },
            {
                "start_time": 20.7386364,
                "end_time": 20.9431818,
                "pitch": 31,
                "velocity": 80,
                "duration": 0.2045455,
                "tempo": 120.0
            },
            {
                "start_time": 21.15,
                "end_time": 21.35,
                "pitch": 38,
                "velocity": 80,
                "duration": 0.2,
                "tempo": 120.0
            },
            {
                "start_time": 21.5545455,
                "end_time": 21.7545455,
                "pitch": 31,
                "velocity": 80,
                "duration": 0.2,
                "tempo": 120.0
            },
            {
                "start_time": 21.9545455,
                "end_time": 22.0522727,
                "pitch": 38,
                "velocity": 80,
                "duration": 0.0977273,
                "tempo": 120.0
            },
            {
                "start_time": 22.1568182,
                "end_time": 22.2545455,
                "pitch": 38,
                "velocity": 80,
                "duration": 0.0977273,
                "tempo": 120.0
            },
            {
                "start_time": 22.3568182,
                "end_time": 22.4545455,
                "pitch": 40,
                "velocity": 80,
                "duration": 0.0977273,
                "tempo": 120.0
            },
            {
                "start_time": 22.5590909,
                "end_time": 22.6568182,
                "pitch": 38,
                "velocity": 80,
                "duration": 0.0977273,
                "tempo": 120.0
            },
            {
                "start_time": 22.7590909,
                "end_time": 22.9568182,
                "pitch": 36,
                "velocity": 80,
                "duration": 0.1977273,
                "tempo": 120.0
            },
            {
                "start_time": 23.1590909,
                "end_time": 23.2568182,
                "pitch": 31,
                "velocity": 80,
                "duration": 0.0977273,
                "tempo": 120.0
            },
            {
                "start_time": 23.3613636,
                "end_time": 23.5590909,
                "pitch": 36,
                "velocity": 80,
                "duration": 0.1977273,
                "tempo": 120.0
            },
            {
                "start_time": 23.7636364,
                "end_time": 23.8590909,
                "pitch": 36,
                "velocity": 80,
                "duration": 0.0954545,
                "tempo": 120.0
            },
            {
                "start_time": 23.9636364,
                "end_time": 24.1636364,
                "pitch": 36,
                "velocity": 80,
                "duration": 0.2,
                "tempo": 120.0
            },
            {
                "start_time": 24.1636364,
                "end_time": 24.3659091,
                "pitch": 35,
                "velocity": 80,
                "duration": 0.2022727,
                "tempo": 120.0
            },
            {
                "start_time": 24.3659091,
                "end_time": 24.5659091,
                "pitch": 33,
                "velocity": 80,
                "duration": 0.2,
                "tempo": 120.0
            },
            {
                "start_time": 24.7659091,
                "end_time": 24.8636364,
                "pitch": 28,
                "velocity": 80,
                "duration": 0.0977273,
                "tempo": 120.0
            },
            {
                "start_time": 24.9659091,
                "end_time": 25.1636364,
                "pitch": 33,
                "velocity": 80,
                "duration": 0.1977273,
                "tempo": 120.0
            },
            {
                "start_time": 25.3681818,
                "end_time": 25.4659091,
                "pitch": 33,
                "velocity": 80,
                "duration": 0.0977273,
                "tempo": 120.0
            },
            {
                "start_time": 25.5704545,
                "end_time": 25.775,
                "pitch": 35,
                "velocity": 80,
                "duration": 0.2045455,
                "tempo": 120.0
            },
            {
                "start_time": 25.775,
                "end_time": 25.9818182,
                "pitch": 36,
                "velocity": 80,
                "duration": 0.2068182,
                "tempo": 120.0
            },
            {
                "start_time": 25.9818182,
                "end_time": 26.0795455,
                "pitch": 38,
                "velocity": 80,
                "duration": 0.0977273,
                "tempo": 120.0
            },
            {
                "start_time": 26.1818182,
                "end_time": 26.2818182,
                "pitch": 31,
                "velocity": 80,
                "duration": 0.1,
                "tempo": 120.0
            },
            {
                "start_time": 26.2818182,
                "end_time": 26.3818182,
                "pitch": 31,
                "velocity": 80,
                "duration": 0.1,
                "tempo": 120.0
            },
            {
                "start_time": 26.3818182,
                "end_time": 26.7863636,
                "pitch": 31,
                "velocity": 80,
                "duration": 0.4045455,
                "tempo": 120.0
            },
            {
                "start_time": 26.7863636,
                "end_time": 26.8863636,
                "pitch": 43,
                "velocity": 80,
                "duration": 0.1,
                "tempo": 120.0
            },
            {
                "start_time": 26.9909091,
                "end_time": 27.0931818,
                "pitch": 31,
                "velocity": 80,
                "duration": 0.1022727,
                "tempo": 120.0
            },
            {
                "start_time": 27.0931818,
                "end_time": 27.1977273,
                "pitch": 31,
                "velocity": 80,
                "duration": 0.1045455,
                "tempo": 120.0
            },
            {
                "start_time": 27.1977273,
                "end_time": 27.5909091,
                "pitch": 31,
                "velocity": 80,
                "duration": 0.3931818,
                "tempo": 120.0
            },
            {
                "start_time": 27.5909091,
                "end_time": 27.6727273,
                "pitch": 31,
                "velocity": 80,
                "duration": 0.0818182,
                "tempo": 120.0
            },
            {
                "start_time": 27.7954545,
                "end_time": 27.8772727,
                "pitch": 31,
                "velocity": 80,
                "duration": 0.0818182,
                "tempo": 120.0
            },
            {
                "start_time": 28.0,
                "end_time": 28.0795455,
                "pitch": 33,
                "velocity": 80,
                "duration": 0.0795455,
                "tempo": 120.0
            },
            {
                "start_time": 28.1954545,
                "end_time": 28.275,
                "pitch": 35,
                "velocity": 80,
                "duration": 0.0795455,
                "tempo": 120.0
            },
            {
                "start_time": 28.3931818,
                "end_time": 28.475,
                "pitch": 36,
                "velocity": 80,
                "duration": 0.0818182,
                "tempo": 120.0
            },
            {
                "start_time": 28.5954545,
                "end_time": 28.675,
                "pitch": 31,
                "velocity": 80,
                "duration": 0.0795455,
                "tempo": 120.0
            },
            {
                "start_time": 28.7954545,
                "end_time": 29.1977273,
                "pitch": 36,
                "velocity": 80,
                "duration": 0.4022727,
                "tempo": 120.0
            },
            {
                "start_time": 29.1977273,
                "end_time": 29.4454545,
                "pitch": 48,
                "velocity": 80,
                "duration": 0.2477273,
                "tempo": 120.0
            },
            {
                "start_time": 29.5954545,
                "end_time": 29.8522727,
                "pitch": 45,
                "velocity": 80,
                "duration": 0.2568182,
                "tempo": 120.0
            },
            {
                "start_time": 30.0090909,
                "end_time": 30.2590909,
                "pitch": 41,
                "velocity": 80,
                "duration": 0.25,
                "tempo": 120.0
            },
            {
                "start_time": 30.4113636,
                "end_time": 30.6545455,
                "pitch": 41,
                "velocity": 80,
                "duration": 0.2431818,
                "tempo": 120.0
            },
            {
                "start_time": 30.8045455,
                "end_time": 31.0522727,
                "pitch": 48,
                "velocity": 80,
                "duration": 0.2477273,
                "tempo": 120.0
            },
            {
                "start_time": 31.2045455,
                "end_time": 31.4590909,
                "pitch": 45,
                "velocity": 80,
                "duration": 0.2545455,
                "tempo": 120.0
            },
            {
                "start_time": 31.6159091,
                "end_time": 31.8636364,
                "pitch": 41,
                "velocity": 80,
                "duration": 0.2477273,
                "tempo": 120.0
            },
            {
                "start_time": 32.0159091,
                "end_time": 32.2590909,
                "pitch": 47,
                "velocity": 80,
                "duration": 0.2431818,
                "tempo": 120.0
            },
            {
                "start_time": 32.4090909,
                "end_time": 32.6568182,
                "pitch": 48,
                "velocity": 80,
                "duration": 0.2477273,
                "tempo": 120.0
            },
            {
                "start_time": 32.8090909,
                "end_time": 33.0659091,
                "pitch": 45,
                "velocity": 80,
                "duration": 0.2568182,
                "tempo": 120.0
            },
            {
                "start_time": 33.2204545,
                "end_time": 33.4636364,
                "pitch": 46,
                "velocity": 80,
                "duration": 0.2431818,
                "tempo": 120.0
            },
            {
                "start_time": 33.6136364,
                "end_time": 33.8681818,
                "pitch": 42,
                "velocity": 80,
                "duration": 0.2545455,
                "tempo": 120.0
            },
            {
                "start_time": 34.025,
                "end_time": 34.2727273,
                "pitch": 43,
                "velocity": 80,
                "duration": 0.2477273,
                "tempo": 120.0
            },
            {
                "start_time": 34.425,
                "end_time": 34.675,
                "pitch": 40,
                "velocity": 80,
                "duration": 0.25,
                "tempo": 120.0
            },
            {
                "start_time": 34.8295455,
                "end_time": 35.0772727,
                "pitch": 41,
                "velocity": 80,
                "duration": 0.2477273,
                "tempo": 120.0
            },
            {
                "start_time": 35.2295455,
                "end_time": 35.4772727,
                "pitch": 36,
                "velocity": 80,
                "duration": 0.2477273,
                "tempo": 120.0
            },
            {
                "start_time": 35.6295455,
                "end_time": 35.8772727,
                "pitch": 50,
                "velocity": 80,
                "duration": 0.2477273,
                "tempo": 120.0
            },
            {
                "start_time": 36.0295455,
                "end_time": 36.2840909,
                "pitch": 47,
                "velocity": 80,
                "duration": 0.2545455,
                "tempo": 120.0
            },
            {
                "start_time": 36.4409091,
                "end_time": 36.6909091,
                "pitch": 43,
                "velocity": 80,
                "duration": 0.25,
                "tempo": 120.0
            },
            {
                "start_time": 36.8409091,
                "end_time": 37.0863636,
                "pitch": 47,
                "velocity": 80,
                "duration": 0.2454545,
                "tempo": 120.0
            },
            {
                "start_time": 37.2340909,
                "end_time": 37.4840909,
                "pitch": 47,
                "velocity": 80,
                "duration": 0.25,
                "tempo": 120.0
            },
            {
                "start_time": 37.6340909,
                "end_time": 37.8909091,
                "pitch": 46,
                "velocity": 80,
                "duration": 0.2568182,
                "tempo": 120.0
            },
            {
                "start_time": 38.0477273,
                "end_time": 38.2977273,
                "pitch": 45,
                "velocity": 80,
                "duration": 0.25,
                "tempo": 120.0
            },
            {
                "start_time": 38.45,
                "end_time": 38.6931818,
                "pitch": 41,
                "velocity": 80,
                "duration": 0.2431818,
                "tempo": 120.0
            },
            {
                "start_time": 38.8431818,
                "end_time": 39.0909091,
                "pitch": 41,
                "velocity": 80,
                "duration": 0.2477273,
                "tempo": 120.0
            },
            {
                "start_time": 39.2431818,
                "end_time": 39.4909091,
                "pitch": 36,
                "velocity": 80,
                "duration": 0.2477273,
                "tempo": 120.0
            },
            {
                "start_time": 39.6431818,
                "end_time": 39.8909091,
                "pitch": 41,
                "velocity": 80,
                "duration": 0.2477273,
                "tempo": 120.0
            },
            {
                "start_time": 40.0431818,
                "end_time": 40.3,
                "pitch": 36,
                "velocity": 80,
                "duration": 0.2568182,
                "tempo": 120.0
            },
            {
                "start_time": 40.4545455,
                "end_time": 40.6977273,
                "pitch": 40,
                "velocity": 80,
                "duration": 0.2431818,
                "tempo": 120.0
            },
            {
                "start_time": 40.8477273,
                "end_time": 41.1022727,
                "pitch": 36,
                "velocity": 80,
                "duration": 0.2545455,
                "tempo": 120.0
            },
            {
                "start_time": 41.2590909,
                "end_time": 41.5068182,
                "pitch": 41,
                "velocity": 80,
                "duration": 0.2477273,
                "tempo": 120.0
            },
            {
                "start_time": 41.6590909,
                "end_time": 41.9090909,
                "pitch": 41,
                "velocity": 80,
                "duration": 0.25,
                "tempo": 120.0
            },
            {
                "start_time": 42.0590909,
                "end_time": 42.1931818,
                "pitch": 36,
                "velocity": 80,
                "duration": 0.1340909,
                "tempo": 120.0
            },
            {
                "start_time": 42.2590909,
                "end_time": 42.3272727,
                "pitch": 36,
                "velocity": 80,
                "duration": 0.0681818,
                "tempo": 120.0
            },
            {
                "start_time": 42.3613636,
                "end_time": 42.4272727,
                "pitch": 36,
                "velocity": 80,
                "duration": 0.0659091,
                "tempo": 120.0
            },
            {
                "start_time": 42.4613636,
                "end_time": 42.5954545,
                "pitch": 31,
                "velocity": 80,
                "duration": 0.1340909,
                "tempo": 120.0
            },
            {
                "start_time": 42.6613636,
                "end_time": 42.7954545,
                "pitch": 33,
                "velocity": 80,
                "duration": 0.1340909,
                "tempo": 120.0
            },
            {
                "start_time": 42.8636364,
                "end_time": 42.9977273,
                "pitch": 36,
                "velocity": 80,
                "duration": 0.1340909,
                "tempo": 120.0
            },
            {
                "start_time": 43.0681818,
                "end_time": 43.1363636,
                "pitch": 36,
                "velocity": 80,
                "duration": 0.0681818,
                "tempo": 120.0
            },
            {
                "start_time": 43.1704545,
                "end_time": 43.2386364,
                "pitch": 36,
                "velocity": 80,
                "duration": 0.0681818,
                "tempo": 120.0
            },
            {
                "start_time": 43.2727273,
                "end_time": 43.4045455,
                "pitch": 31,
                "velocity": 80,
                "duration": 0.1318182,
                "tempo": 120.0
            },
            {
                "start_time": 43.4704545,
                "end_time": 43.6,
                "pitch": 33,
                "velocity": 80,
                "duration": 0.1295455,
                "tempo": 120.0
            },
            {
                "start_time": 43.6659091,
                "end_time": 43.8022727,
                "pitch": 36,
                "velocity": 80,
                "duration": 0.1363636,
                "tempo": 120.0
            },
            {
                "start_time": 43.8704545,
                "end_time": 43.9386364,
                "pitch": 36,
                "velocity": 80,
                "duration": 0.0681818,
                "tempo": 120.0
            },
            {
                "start_time": 43.975,
                "end_time": 44.0431818,
                "pitch": 36,
                "velocity": 80,
                "duration": 0.0681818,
                "tempo": 120.0
            },
            {
                "start_time": 44.0772727,
                "end_time": 44.2068182,
                "pitch": 31,
                "velocity": 80,
                "duration": 0.1295455,
                "tempo": 120.0
            },
            {
                "start_time": 44.2727273,
                "end_time": 44.4045455,
                "pitch": 33,
                "velocity": 80,
                "duration": 0.1318182,
                "tempo": 120.0
            },
            {
                "start_time": 44.4704545,
                "end_time": 44.5704545,
                "pitch": 36,
                "velocity": 80,
                "duration": 0.1,
                "tempo": 120.0
            },
            {
                "start_time": 44.6704545,
                "end_time": 44.7704545,
                "pitch": 33,
                "velocity": 80,
                "duration": 0.1,
                "tempo": 120.0
            },
            {
                "start_time": 44.8704545,
                "end_time": 44.9704545,
                "pitch": 31,
                "velocity": 80,
                "duration": 0.1,
                "tempo": 120.0
            },
            {
                "start_time": 45.0704545,
                "end_time": 45.1704545,
                "pitch": 28,
                "velocity": 80,
                "duration": 0.1,
                "tempo": 120.0
            },
            {
                "start_time": 45.275,
                "end_time": 45.4704545,
                "pitch": 36,
                "velocity": 80,
                "duration": 0.1954545,
                "tempo": 120.0
            },
            {
                "start_time": 45.6727273,
                "end_time": 45.8704545,
                "pitch": 31,
                "velocity": 80,
                "duration": 0.1977273,
                "tempo": 120.0
            },
            {
                "start_time": 46.075,
                "end_time": 46.2727273,
                "pitch": 33,
                "velocity": 80,
                "duration": 0.1977273,
                "tempo": 120.0
            },
            {
                "start_time": 46.475,
                "end_time": 46.6772727,
                "pitch": 35,
                "velocity": 80,
                "duration": 0.2022727,
                "tempo": 120.0
            },
            {
                "start_time": 46.8772727,
                "end_time": 47.0772727,
                "pitch": 36,
                "velocity": 80,
                "duration": 0.2,
                "tempo": 120.0
            },
            {
                "start_time": 47.2772727,
                "end_time": 47.4772727,
                "pitch": 31,
                "velocity": 80,
                "duration": 0.2,
                "tempo": 120.0
            },
            {
                "start_time": 47.6795455,
                "end_time": 47.8772727,
                "pitch": 33,
                "velocity": 80,
                "duration": 0.1977273,
                "tempo": 120.0
            },
            {
                "start_time": 48.0772727,
                "end_time": 48.2795455,
                "pitch": 35,
                "velocity": 80,
                "duration": 0.2022727,
                "tempo": 120.0
            },
            {
                "start_time": 48.4818182,
                "end_time": 48.6863636,
                "pitch": 42,
                "velocity": 80,
                "duration": 0.2045455,
                "tempo": 120.0
            },
            {
                "start_time": 48.8931818,
                "end_time": 49.0909091,
                "pitch": 36,
                "velocity": 80,
                "duration": 0.1977273,
                "tempo": 120.0
            },
            {
                "start_time": 49.2954545,
                "end_time": 49.4954545,
                "pitch": 42,
                "velocity": 80,
                "duration": 0.2,
                "tempo": 120.0
            },
            {
                "start_time": 49.6977273,
                "end_time": 49.8954545,
                "pitch": 36,
                "velocity": 80,
                "duration": 0.1977273,
                "tempo": 120.0
            },
            {
                "start_time": 50.0977273,
                "end_time": 50.2977273,
                "pitch": 42,
                "velocity": 80,
                "duration": 0.2,
                "tempo": 120.0
            },
            {
                "start_time": 50.2977273,
                "end_time": 50.3795455,
                "pitch": 41,
                "velocity": 80,
                "duration": 0.0818182,
                "tempo": 120.0
            },
            {
                "start_time": 50.4977273,
                "end_time": 50.5795455,
                "pitch": 40,
                "velocity": 80,
                "duration": 0.0818182,
                "tempo": 120.0
            },
            {
                "start_time": 50.6977273,
                "end_time": 50.7795455,
                "pitch": 39,
                "velocity": 80,
                "duration": 0.0818182,
                "tempo": 120.0
            },
            {
                "start_time": 50.9,
                "end_time": 51.0977273,
                "pitch": 38,
                "velocity": 80,
                "duration": 0.1977273,
                "tempo": 120.0
            },
            {
                "start_time": 51.0977273,
                "end_time": 51.1795455,
                "pitch": 39,
                "velocity": 80,
                "duration": 0.0818182,
                "tempo": 120.0
            },
            {
                "start_time": 51.3,
                "end_time": 51.3818182,
                "pitch": 40,
                "velocity": 80,
                "duration": 0.0818182,
                "tempo": 120.0
            },
            {
                "start_time": 51.5,
                "end_time": 51.5840909,
                "pitch": 41,
                "velocity": 80,
                "duration": 0.0840909,
                "tempo": 120.0
            },
            {
                "start_time": 51.7045455,
                "end_time": 51.9,
                "pitch": 36,
                "velocity": 80,
                "duration": 0.1954545,
                "tempo": 120.0
            },
            {
                "start_time": 52.1045455,
                "end_time": 52.3022727,
                "pitch": 31,
                "velocity": 80,
                "duration": 0.1977273,
                "tempo": 120.0
            },
            {
                "start_time": 52.5045455,
                "end_time": 52.7022727,
                "pitch": 33,
                "velocity": 80,
                "duration": 0.1977273,
                "tempo": 120.0
            },
            {
                "start_time": 52.9022727,
                "end_time": 53.1045455,
                "pitch": 35,
                "velocity": 80,
                "duration": 0.2022727,
                "tempo": 120.0
            },
            {
                "start_time": 53.3045455,
                "end_time": 53.5045455,
                "pitch": 36,
                "velocity": 80,
                "duration": 0.2,
                "tempo": 120.0
            },
            {
                "start_time": 53.7090909,
                "end_time": 53.9068182,
                "pitch": 31,
                "velocity": 80,
                "duration": 0.1977273,
                "tempo": 120.0
            },
            {
                "start_time": 54.1090909,
                "end_time": 54.3068182,
                "pitch": 33,
                "velocity": 80,
                "duration": 0.1977273,
                "tempo": 120.0
            },
            {
                "start_time": 54.5068182,
                "end_time": 54.7090909,
                "pitch": 35,
                "velocity": 80,
                "duration": 0.2022727,
                "tempo": 120.0
            },
            {
                "start_time": 54.9090909,
                "end_time": 55.1090909,
                "pitch": 42,
                "velocity": 80,
                "duration": 0.2,
                "tempo": 120.0
            },
            {
                "start_time": 55.3090909,
                "end_time": 55.5090909,
                "pitch": 36,
                "velocity": 80,
                "duration": 0.2,
                "tempo": 120.0
            },
            {
                "start_time": 55.7136364,
                "end_time": 55.9181818,
                "pitch": 42,
                "velocity": 80,
                "duration": 0.2045455,
                "tempo": 120.0
            },
            {
                "start_time": 56.125,
                "end_time": 56.3227273,
                "pitch": 36,
                "velocity": 80,
                "duration": 0.1977273,
                "tempo": 120.0
            },
            {
                "start_time": 56.5272727,
                "end_time": 56.725,
                "pitch": 42,
                "velocity": 80,
                "duration": 0.1977273,
                "tempo": 120.0
            },
            {
                "start_time": 56.725,
                "end_time": 56.8068182,
                "pitch": 41,
                "velocity": 80,
                "duration": 0.0818182,
                "tempo": 120.0
            },
            {
                "start_time": 56.925,
                "end_time": 57.0068182,
                "pitch": 40,
                "velocity": 80,
                "duration": 0.0818182,
                "tempo": 120.0
            },
            {
                "start_time": 57.1272727,
                "end_time": 57.2090909,
                "pitch": 39,
                "velocity": 80,
                "duration": 0.0818182,
                "tempo": 120.0
            },
            {
                "start_time": 57.3295455,
                "end_time": 57.5272727,
                "pitch": 38,
                "velocity": 80,
                "duration": 0.1977273,
                "tempo": 120.0
            }
        ]
    }
}