{
    "mood": "happy",
    "instruments": {
        "Clarinet": [
            {
                "start_time": 0.3840909,
                "end_time": 0.6295455,
                "pitch": 73,
                "velocity": 64,
                "duration": 0.2454545,
                "tempo": 120.0
            },
            {
                "start_time": 0.6454545,
                "end_time": 0.7590909,
                "pitch": 74,
                "velocity": 64,
                "duration": 0.1136364,
                "tempo": 120.0
            },
            {
                "start_time": 0.775,
                "end_time": 1.0204545,
                "pitch": 75,
                "velocity": 64,
                "duration": 0.2454545,
                "tempo": 120.0
            },
            {
                "start_time": 1.0363636,
                "end_time": 1.1522727,
                "pitch": 83,
                "velocity": 64,
                "duration": 0.1159091,
                "tempo": 120.0
            },
            {
                "start_time": 1.4340909,
                "end_time": 1.5522727,
                "pitch": 83,
                "velocity": 64,
                "duration": 0.1181818,
                "tempo": 120.0
            },
            {
                "start_time": 1.5681818,
                "end_time": 1.8204545,
                "pitch": 81,
                "velocity": 64,
                "duration": 0.2522727,
                "tempo": 120.0
            },
            {
                "start_time": 1.8363636,
                "end_time": 1.9545455,
                "pitch": 80,
                "velocity": 64,
                "duration": 0.1181818,
                "tempo": 120.0
            },
            {
                "start_time": 1.9704545,
                "end_time": 2.2272727,
                "pitch": 78,
                "velocity": 64,
                "duration": 0.2568182,
                "tempo": 120.0
            },
            {
                "start_time": 2.2454545,
                "end_time": 2.7568182,
                "pitch": 75,
                "velocity": 64,
                "duration": 0.5113636,
                "tempo": 120.0
            },
            {
                "start_time": 3.0477273,
                "end_time": 3.1659091,
                "pitch": 74,
                "velocity": 64,
                "duration": 0.1181818,
                "tempo": 120.0
            },
            {
                "start_time": 3.1840909,
                "end_time": 3.4295455,
                "pitch": 75,
                "velocity": 64,
                "duration": 0.2454545,
                "tempo": 120.0
            },
            {
                "start_time": 3.4454545,
                "end_time": 3.5590909,
                "pitch": 74,
                "velocity": 64,
                "duration": 0.1136364,
                "tempo": 120.0
            },
            {
                "start_time": 3.575,
                "end_time": 3.825,
                "pitch": 75,
                "velocity": 64,
                "duration": 0.25,
                "tempo": 120.0
            },
            {
                "start_time": 3.8431818,
                "end_time": 3.9590909,
                "pitch": 74,
                "velocity": 64,
                "duration": 0.1159091,
                "tempo": 120.0
            },
            {
                "start_time": 3.975,
                "end_time": 4.225,
                "pitch": 75,
                "velocity": 64,
                "duration": 0.25,
                "tempo": 120.0
            },
            {
                "start_time": 4.2431818,
                "end_time": 4.3590909,
                "pitch": 74,
                "velocity": 64,
                "duration": 0.1159091,
                "tempo": 120.0
            },
            {
                "start_time": 4.375,
                "end_time": 4.625,
                "pitch": 75,
                "velocity": 64,
                "duration": 0.25,
                "tempo": 120.0
            },
            {
                "start_time": 4.6431818,
                "end_time": 4.7590909,
                "pitch": 74,
                "velocity": 64,
                "duration": 0.1159091,
                "tempo": 120.0
            },
            {
                "start_time": 4.775,
                "end_time": 4.8272727,
                "pitch": 77,
                "velocity": 64,
                "duration": 0.0522727,
                "tempo": 120.0
            },
            {
                "start_time": 4.8431818,
                "end_time": 5.0272727,
                "pitch": 78,
                "velocity": 64,
                "duration": 0.1840909,
                "tempo": 120.0
            },
            {
                "start_time": 5.0454545,
                "end_time": 5.1613636,
                "pitch": 75,
                "velocity": 64,
                "duration": 0.1159091,
                "tempo": 120.0
            },
            {
                "start_time": 5.1795455,
                "end_time": 5.4363636,
                "pitch": 74,
                "velocity": 64,
                "duration": 0.2568182,
                "tempo": 120.0
            },
            {
                "start_time": 5.4522727,
                "end_time": 5.9659091,
                "pitch": 73,
                "velocity": 64,
                "duration": 0.5136364,
                "tempo": 120.0
            },
            {
                "start_time": 6.6545455,
                "end_time": 6.7681818,
                "pitch": 76,
                "velocity": 64,
                "duration": 0.1136364,
                "tempo": 120.0
            },
            {
                "start_time": 6.7840909,
                "end_time": 7.0409091,
                "pitch": 78,
                "velocity": 64,
                "duration": 0.2568182,
                "tempo": 120.0
            },
            {
                "start_time": 7.0568182,
                "end_time": 7.1772727,
                "pitch": 79,
                "velocity": 64,
                "duration": 0.1204545,
                "tempo": 120.0
            },
            {
                "start_time": 7.1954545,
                "end_time": 7.4409091,
                "pitch": 80,
                "velocity": 64,
                "duration": 0.2454545,
                "tempo": 120.0
            },
            {
                "start_time": 7.4568182,
                "end_time": 7.5704545,
                "pitch": 83,
                "velocity": 64,
                "duration": 0.1136364,
                "tempo": 120.0
            },
            {
                "start_time": 7.9977273,
                "end_time": 8.2431818,
                "pitch": 86,
                "velocity": 64,
                "duration": 0.2454545,
                "tempo": 120.0
            },
            {
                "start_time": 8.2590909,
                "end_time": 8.5090909,
                "pitch": 85,
                "velocity": 64,
                "duration": 0.25,
                "tempo": 120.0
            },
            {
                "start_time": 8.5272727,
                "end_time": 8.7840909,
                "pitch": 83,
                "velocity": 64,
                "duration": 0.2568182,
                "tempo": 120.0
            },
            {
                "start_time": 8.8,
                "end_time": 9.0454545,
                "pitch": 86,
                "velocity": 64,
                "duration": 0.2454545,
                "tempo": 120.0
            },
            {
                "start_time": 9.0613636,
                "end_time": 9.3113636,
                "pitch": 85,
                "velocity": 64,
                "duration": 0.25,
                "tempo": 120.0
            },
            {
                "start_time": 9.3295455,
                "end_time": 9.5863636,
                "pitch": 83,
                "velocity": 64,
                "duration": 0.2568182,
                "tempo": 120.0
            },
            {
                "start_time": 9.6022727,
                "end_time": 9.6522727,
                "pitch": 89,
                "velocity": 64,
                "duration": 0.05,
                "tempo": 120.0
            },
            {
                "start_time": 9.6681818,
                "end_time": 9.8477273,
                "pitch": 90,
                "velocity": 64,
                "duration": 0.1795455,
                "tempo": 120.0
            },
            {
                "start_time": 9.8636364,
                "end_time": 9.9795455,
                "pitch": 89,
                "velocity": 64,
                "duration": 0.1159091,
                "tempo": 120.0
            },
            {
                "start_time": 9.9954545,
                "end_time": 10.2522727,
                "pitch": 88,
                "velocity": 64,
                "duration": 0.2568182,
                "tempo": 120.0
            },
            {
                "start_time": 10.2681818,
                "end_time": 11.1909091,
                "pitch": 83,
                "velocity": 64,
                "duration": 0.9227273,
                "tempo": 120.0
            },
            {
                "start_time": 13.2090909,
                "end_time": 13.4659091,
                "pitch": 73,
                "velocity": 64,
                "duration": 0.2568182,
                "tempo": 120.0
            },
            {
                "start_time": 13.4818182,
                "end_time": 13.6022727,
                "pitch": 74,
                "velocity": 64,
                "duration": 0.1204545,
                "tempo": 120.0
            },
            {
                "start_time": 13.6181818,
                "end_time": 13.8636364,
                "pitch": 75,
                "velocity": 64,
                "duration": 0.2454545,
                "tempo": 120.0
            },
            {
                "start_time": 13.8795455,
                "end_time": 13.9954545,
                "pitch": 83,
                "velocity": 64,
                "duration": 0.1159091,
                "tempo": 120.0
            },
            {
                "start_time": 14.2840909,
                "end_time": 14.4045455,
                "pitch": 83,
                "velocity": 64,
                "duration": 0.1204545,
                "tempo": 120.0
            },
            {
                "start_time": 14.4204545,
                "end_time": 14.6659091,
                "pitch": 81,
                "velocity": 64,
                "duration": 0.2454545,
                "tempo": 120.0
            },
            {
                "start_time": 14.6840909,
                "end_time": 14.7977273,
                "pitch": 80,
                "velocity": 64,
                "duration": 0.1136364,
                "tempo": 120.0
            },
            {
                "start_time": 14.8136364,
                "end_time": 15.0704545,
                "pitch": 78,
                "velocity": 64,
                "duration": 0.2568182,
                "tempo": 120.0
            },
            {
                "start_time": 15.0863636,
                "end_time": 15.6,
                "pitch": 75,
                "velocity": 64,
                "duration": 0.5136364,
                "tempo": 120.0
            },
            {
                "start_time": 15.8909091,
                "end_time": 16.0090909,
                "pitch": 74,
                "velocity": 64,
                "duration": 0.1181818,
                "tempo": 120.0
            },
            {
                "start_time": 16.0272727,
                "end_time": 16.2727273,
                "pitch": 75,
                "velocity": 64,
                "duration": 0.2454545,
                "tempo": 120.0
            },
            {
                "start_time": 16.2886364,
                "end_time": 16.4022727,
                "pitch": 74,
                "velocity": 64,
                "duration": 0.1136364,
                "tempo": 120.0
            },
            {
                "start_time": 16.4181818,
                "end_time": 16.675,
                "pitch": 75,
                "velocity": 64,
                "duration": 0.2568182,
                "tempo": 120.0
            },
            {
                "start_time": 16.6931818,
                "end_time": 16.8136364,
                "pitch": 74,
                "velocity": 64,
                "duration": 0.1204545,
                "tempo": 120.0
            },
            {
                "start_time": 16.8295455,
                "end_time": 17.075,
                "pitch": 75,
                "velocity": 64,
                "duration": 0.2454545,
                "tempo": 120.0
            },
            {
                "start_time": 17.0909091,
                "end_time": 17.2045455,
                "pitch": 74,
                "velocity": 64,
                "duration": 0.1136364,
                "tempo": 120.0
            },
            {
                "start_time": 17.2227273,
                "end_time": 17.4727273,
                "pitch": 75,
                "velocity": 64,
                "duration": 0.25,
                "tempo": 120.0
            },
            {
                "start_time": 17.4886364,
                "end_time": 17.6045455,
                "pitch": 74,
                "velocity": 64,
                "duration": 0.1159091,
                "tempo": 120.0
            },
            {
                "start_time": 17.6227273,
                "end_time": 17.6727273,
                "pitch": 77,
                "velocity": 64,
                "duration": 0.05,
                "tempo": 120.0
            },
            {
                "start_time": 17.6886364,
                "end_time": 17.8727273,
                "pitch": 78,
                "velocity": 64,
                "duration": 0.1840909,
                "tempo": 120.0
            },
            {
                "start_time": 17.8886364,
                "end_time": 18.0045455,
                "pitch": 75,
                "velocity": 64,
                "duration": 0.1159091,
                "tempo": 120.0
            },
            {
                "start_time": 18.0227273,
                "end_time": 18.2727273,
                "pitch": 74,
                "velocity": 64,
                "duration": 0.25,
                "tempo": 120.0
            },
            {
                "start_time": 18.2909091,
                "end_time": 18.8068182,
                "pitch": 73,
                "velocity": 64,
                "duration": 0.5159091,
                "tempo": 120.0
            },
            {
                "start_time": 19.4954545,
                "end_time": 19.6113636,
                "pitch": 76,
                "velocity": 64,
                "duration": 0.1159091,
                "tempo": 120.0
            },
            {
                "start_time": 19.6272727,
                "end_time": 19.8840909,
                "pitch": 78,
                "velocity": 64,
                "duration": 0.2568182,
                "tempo": 120.0
            },
            {
                "start_time": 19.9,
                "end_time": 20.0204545,
                "pitch": 79,
                "velocity": 64,
                "duration": 0.1204545,
                "tempo": 120.0
            },
            {
                "start_time": 20.0386364,
                "end_time": 20.2818182,
                "pitch": 80,
                "velocity": 64,
                "duration": 0.2431818,
                "tempo": 120.0
            },
            {
                "start_time": 20.3,
                "end_time": 20.4136364,
                "pitch": 83,
                "velocity": 64,
                "duration": 0.1136364,
                "tempo": 120.0
            },
            {
                "start_time": 20.8409091,
                "end_time": 21.0863636,
                "pitch": 86,
                "velocity": 64,
                "duration": 0.2454545,
                "tempo": 120.0
            },
            {
                "start_time": 21.1022727,
                "end_time": 21.3522727,
                "pitch": 85,
                "velocity": 64,
                "duration": 0.25,
                "tempo": 120.0
            },
            {
                "start_time": 21.3681818,
                "end_time": 21.625,
                "pitch": 83,
                "velocity": 64,
                "duration": 0.2568182,
                "tempo": 120.0
            },
            {
                "start_time": 21.6431818,
                "end_time": 21.8886364,
                "pitch": 86,
                "velocity": 64,
                "duration": 0.2454545,
                "tempo": 120.0
            },
            {
                "start_time": 21.9045455,
                "end_time": 22.1545455,
                "pitch": 85,
                "velocity": 64,
                "duration": 0.25,
                "tempo": 120.0
            },
            {
                "start_time": 22.1727273,
                "end_time": 22.4295455,
                "pitch": 83,
                "velocity": 64,
                "duration": 0.2568182,
                "tempo": 120.0
            },
            {
                "start_time": 22.4454545,
                "end_time": 22.4954545,
                "pitch": 89,
                "velocity": 64,
                "duration": 0.05,
                "tempo": 120.0
            },
            {
                "start_time": 22.5113636,
                "end_time": 22.6909091,
                "pitch": 90,
                "velocity": 64,
                "duration": 0.1795455,
                "tempo": 120.0
            },
            {
                "start_time": 22.7068182,
                "end_time": 22.8204545,
                "pitch": 89,
                "velocity": 64,
                "duration": 0.1136364,
                "tempo": 120.0
            },
            {
                "start_time": 22.8386364,
                "end_time": 23.0931818,
                "pitch": 88,
                "velocity": 64,
                "duration": 0.2545455,
                "tempo": 120.0
            },
            {
                "start_time": 23.1113636,
                "end_time": 24.0340909,
                "pitch": 83,
                "velocity": 64,
                "duration": 0.9227273,
                "tempo": 120.0
            },
            {
                "start_time": 24.0522727,
                "end_time": 24.0840909,
                "pitch": 63,
                "velocity": 64,
                "duration": 0.0318182,
                "tempo": 120.0
            },
            {
                "start_time": 24.0840909,
                "end_time": 24.1181818,
                "pitch": 60,
                "velocity": 64,
                "duration": 0.0340909,
                "tempo": 120.0
            },
            {
                "start_time": 24.1181818,
                "end_time": 24.1340909,
                "pitch": 56,
                "velocity": 64,
                "duration": 0.0159091,
                "tempo": 120.0
            },
            {
                "start_time": 24.1340909,
                "end_time": 24.1681818,
                "pitch": 54,
                "velocity": 64,
                "duration": 0.0340909,
                "tempo": 120.0
            },
            {
                "start_time": 24.1681818,
                "end_time": 24.2022727,
                "pitch": 52,
                "velocity": 64,
                "duration": 0.0340909,
                "tempo": 120.0
            },
            {
                "start_time": 24.2022727,
                "end_time": 24.2340909,
                "pitch": 49,
                "velocity": 64,
                "duration": 0.0318182,
                "tempo": 120.0
            },
            {
                "start_time": 24.2340909,
                "end_time": 24.2681818,
                "pitch": 46,
                "velocity": 64,
                "duration": 0.0340909,
                "tempo": 120.0
            },
            {
                "start_time": 24.2681818,
                "end_time": 24.3022727,
                "pitch": 42,
                "velocity": 64,
                "duration": 0.0340909,
                "tempo": 120.0
            },
            {
                "start_time": 24.3022727,
                "end_time": 24.3340909,
                "pitch": 40,
                "velocity": 64,
                "duration": 0.0318182,
                "tempo": 120.0
            },
            {
                "start_time": 24.3340909,
                "end_time": 24.3681818,
                "pitch": 37,
                "velocity": 64,
                "duration": 0.0340909,
                "tempo": 120.0
            },
            {
                "start_time": 24.3681818,
                "end_time": 24.3840909,
                "pitch": 33,
                "velocity": 64,
                "duration": 0.0159091,
                "tempo": 120.0
            },
            {
                "start_time": 24.3840909,
                "end_time": 24.4022727,
                "pitch": 31,
                "velocity": 64,
                "duration": 0.0181818,
                "tempo": 120.0
            },
            {
                "start_time": 24.4022727,
                "end_time": 24.4340909,
                "pitch": 30,
                "velocity": 64,
                "duration": 0.0318182,
                "tempo": 120.0
            },
            {
                "start_time": 24.4340909,
                "end_time": 24.4522727,
                "pitch": 27,
                "velocity": 64,
                "duration": 0.0181818,
                "tempo": 120.0
            },
            {
                "start_time": 24.4522727,
                "end_time": 24.4840909,
                "pitch": 60,
                "velocity": 64,
                "duration": 0.0318182,
                "tempo": 120.0
            },
            {
                "start_time": 24.4840909,
                "end_time": 24.5,
                "pitch": 56,
                "velocity": 64,
                "duration": 0.0159091,
                "tempo": 120.0
            },
            {
                "start_time": 24.5,
                "end_time": 24.5318182,
                "pitch": 54,
                "velocity": 64,
                "duration": 0.0318182,
                "tempo": 120.0
            },
            {
                "start_time": 24.5318182,
                "end_time": 24.5659091,
                "pitch": 51,
                "velocity": 64,
                "duration": 0.0340909,
                "tempo": 120.0
            },
            {
                "start_time": 24.5659091,
                "end_time": 24.5977273,
                "pitch": 48,
                "velocity": 64,
                "duration": 0.0318182,
                "tempo": 120.0
            },
            {
                "start_time": 24.5977273,
                "end_time": 24.6136364,
                "pitch": 44,
                "velocity": 64,
                "duration": 0.0159091,
                "tempo": 120.0
            },
            {
                "start_time": 24.6136364,
                "end_time": 24.6477273,
                "pitch": 42,
                "velocity": 64,
                "duration": 0.0340909,
                "tempo": 120.0
            },
            {
                "start_time": 24.6477273,
                "end_time": 24.6795455,
                "pitch": 39,
                "velocity": 64,
                "duration": 0.0318182,
                "tempo": 120.0
            },
            {
                "start_time": 24.6795455,
                "end_time": 24.7136364,
                "pitch": 36,
                "velocity": 64,
                "duration": 0.0340909,
                "tempo": 120.0
            },
            {
                "start_time": 24.8431818,
                "end_time": 24.9113636,
                "pitch": 57,
                "velocity": 51,
                "duration": 0.0681818,
                "tempo": 120.0
            },
            {
                "start_time": 24.9113636,
                "end_time": 25.0113636,
                "pitch": 55,
                "velocity": 51,
                "duration": 0.1,
                "tempo": 120.0
            },
            {
                "start_time": 25.0113636,
                "end_time": 25.0954545,
                "pitch": 52,
                "velocity": 51,
                "duration": 0.0840909,
                "tempo": 120.0
            },
            {
                "start_time": 25.0954545,
                "end_time": 25.1113636,
                "pitch": 50,
                "velocity": 51,
                "duration": 0.0159091,
                "tempo": 120.0
            },
            {
                "start_time": 26.0568182,
                "end_time": 26.7,
                "pitch": 80,
                "velocity": 64,
                "duration": 0.6431818,
                "tempo": 120.0
            },
            {
                "start_time": 26.7159091,
                "end_time": 27.1,
                "pitch": 84,
                "velocity": 64,
                "duration": 0.3840909,
                "tempo": 120.0
            },
            {
                "start_time": 27.1181818,
                "end_time": 27.2340909,
                "pitch": 80,
                "velocity": 64,
                "duration": 0.1159091,
                "tempo": 120.0
            },
            {
                "start_time": 27.2522727,
                "end_time": 27.5022727,
                "pitch": 87,
                "velocity": 64,
                "duration": 0.25,
                "tempo": 120.0
            },
            {
                "start_time": 27.5181818,
                "end_time": 27.6340909,
                "pitch": 87,
                "velocity": 64,
                "duration": 0.1159091,
                "tempo": 120.0
            },
            {
                "start_time": 27.6522727,
                "end_time": 28.0454545,
                "pitch": 84,
                "velocity": 64,
                "duration": 0.3931818,
                "tempo": 120.0
            },
            {
                "start_time": 28.0613636,
                "end_time": 28.4454545,
                "pitch": 80,
                "velocity": 64,
                "duration": 0.3840909,
                "tempo": 120.0
            },
            {
                "start_time": 28.4636364,
                "end_time": 28.8477273,
                "pitch": 84,
                "velocity": 64,
                "duration": 0.3840909,
                "tempo": 120.0
            },
            {
                "start_time": 28.8659091,
                "end_time": 29.2409091,
                "pitch": 85,
                "velocity": 64,
                "duration": 0.375,
                "tempo": 120.0
            },
            {
                "start_time": 29.2568182,
                "end_time": 29.65,
                "pitch": 85,
                "velocity": 64,
                "duration": 0.3931818,
                "tempo": 120.0
            },
            {
                "start_time": 29.6681818,
                "end_time": 29.9136364,
                "pitch": 85,
                "velocity": 64,
                "duration": 0.2454545,
                "tempo": 120.0
            },
            {
                "start_time": 29.9295455,
                "end_time": 30.0431818,
                "pitch": 85,
                "velocity": 64,
                "duration": 0.1136364,
                "tempo": 120.0
            },
            {
                "start_time": 30.0590909,
                "end_time": 30.3159091,
                "pitch": 87,
                "velocity": 64,
                "duration": 0.2568182,
                "tempo": 120.0
            },
            {
                "start_time": 30.3340909,
                "end_time": 31.2477273,
                "pitch": 85,
                "velocity": 64,
                "duration": 0.9136364,
                "tempo": 120.0
            },
            {
                "start_time": 32.4681818,
                "end_time": 32.7204545,
                "pitch": 80,
                "velocity": 64,
                "duration": 0.2522727,
                "tempo": 120.0
            },
            {
                "start_time": 32.7363636,
                "end_time": 32.8545455,
                "pitch": 80,
                "velocity": 64,
                "duration": 0.1181818,
                "tempo": 120.0
            },
            {
                "start_time": 33.1386364,
                "end_time": 33.2545455,
                "pitch": 83,
                "velocity": 64,
                "duration": 0.1159091,
                "tempo": 120.0
            },
            {
                "start_time": 33.5454545,
                "end_time": 33.6636364,
                "pitch": 80,
                "velocity": 64,
                "duration": 0.1181818,
                "tempo": 120.0
            },
            {
                "start_time": 33.6818182,
                "end_time": 33.7318182,
                "pitch": 85,
                "velocity": 64,
                "duration": 0.05,
                "tempo": 120.0
            },
            {
                "start_time": 33.75,
                "end_time": 34.0681818,
                "pitch": 86,
                "velocity": 64,
                "duration": 0.3181818,
                "tempo": 120.0
            },
            {
                "start_time": 34.0840909,
                "end_time": 34.4681818,
                "pitch": 85,
                "velocity": 64,
                "duration": 0.3840909,
                "tempo": 120.0
            },
            {
                "start_time": 34.4840909,
                "end_time": 34.8681818,
                "pitch": 83,
                "velocity": 64,
                "duration": 0.3840909,
                "tempo": 120.0
            },
            {
                "start_time": 34.8840909,
                "end_time": 35.2681818,
                "pitch": 80,
                "velocity": 64,
                "duration": 0.3840909,
                "tempo": 120.0
            },
            {
                "start_time": 35.2840909,
                "end_time": 36.3272727,
                "pitch": 78,
                "velocity": 64,
                "duration": 1.0431818,
                "tempo": 120.0
            },
            {
                "start_time": 36.3431818,
                "end_time": 36.4590909,
                "pitch": 78,
                "velocity": 64,
                "duration": 0.1159091,
                "tempo": 120.0
            },
            {
                "start_time": 36.4772727,
                "end_time": 36.7340909,
                "pitch": 92,
                "velocity": 64,
                "duration": 0.2568182,
                "tempo": 120.0
            },
            {
                "start_time": 36.75,
                "end_time": 38.0636364,
                "pitch": 90,
                "velocity": 64,
                "duration": 1.3136364,
                "tempo": 120.0
            },
            {
                "start_time": 38.0795455,
                "end_time": 38.1136364,
                "pitch": 63,
                "velocity": 64,
                "duration": 0.0340909,
                "tempo": 120.0
            },
            {
                "start_time": 38.1136364,
                "end_time": 38.1454545,
                "pitch": 60,
                "velocity": 64,
                "duration": 0.0318182,
                "tempo": 120.0
            },
            {
                "start_time": 38.1454545,
                "end_time": 38.1636364,
                "pitch": 56,
                "velocity": 64,
                "duration": 0.0181818,
                "tempo": 120.0
            },
            {
                "start_time": 38.1636364,
                "end_time": 38.1954545,
                "pitch": 54,
                "velocity": 64,
                "duration": 0.0318182,
                "tempo": 120.0
            },
            {
                "start_time": 38.1954545,
                "end_time": 38.2136364,
                "pitch": 52,
                "velocity": 64,
                "duration": 0.0181818,
                "tempo": 120.0
            },
            {
                "start_time": 38.2136364,
                "end_time": 38.2454545,
                "pitch": 60,
                "velocity": 64,
                "duration": 0.0318182,
                "tempo": 120.0
            },
            {
                "start_time": 38.2454545,
                "end_time": 38.2636364,
                "pitch": 56,
                "velocity": 64,
                "duration": 0.0181818,
                "tempo": 120.0
            },
            {
                "start_time": 38.2636364,
                "end_time": 38.2954545,
                "pitch": 54,
                "velocity": 64,
                "duration": 0.0318182,
                "tempo": 120.0
            },
            {
                "start_time": 38.2954545,
                "end_time": 38.3295455,
                "pitch": 51,
                "velocity": 64,
                "duration": 0.0340909,
                "tempo": 120.0
            },
            {
                "start_time": 38.3295455,
                "end_time": 38.3454545,
                "pitch": 48,
                "velocity": 64,
                "duration": 0.0159091,
                "tempo": 120.0
            },
            {
                "start_time": 38.3454545,
                "end_time": 38.4136364,
                "pitch": 57,
                "velocity": 64,
                "duration": 0.0681818,
                "tempo": 120.0
            },
            {
                "start_time": 38.4136364,
                "end_time": 38.4795455,
                "pitch": 55,
                "velocity": 64,
                "duration": 0.0659091,
                "tempo": 120.0
            },
            {
                "start_time": 38.8909091,
                "end_time": 39.5318182,
                "pitch": 80,
                "velocity": 64,
                "duration": 0.6409091,
                "tempo": 120.0
            },
            {
                "start_time": 39.55,
                "end_time": 39.9318182,
                "pitch": 84,
                "velocity": 64,
                "duration": 0.3818182,
                "tempo": 120.0
            },
            {
                "start_time": 39.95,
                "end_time": 40.0659091,
                "pitch": 80,
                "velocity": 64,
                "duration": 0.1159091,
                "tempo": 120.0
            },
            {
                "start_time": 40.0818182,
                "end_time": 40.3318182,
                "pitch": 87,
                "velocity": 64,
                "duration": 0.25,
                "tempo": 120.0
            },
            {
                "start_time": 40.35,
                "end_time": 40.4659091,
                "pitch": 87,
                "velocity": 64,
                "duration": 0.1159091,
                "tempo": 120.0
            },
            {
                "start_time": 40.4818182,
                "end_time": 40.875,
                "pitch": 84,
                "velocity": 64,
                "duration": 0.3931818,
                "tempo": 120.0
            },
            {
                "start_time": 40.8931818,
                "end_time": 41.2772727,
                "pitch": 80,
                "velocity": 64,
                "duration": 0.3840909,
                "tempo": 120.0
            },
            {
                "start_time": 41.2931818,
                "end_time": 41.6772727,
                "pitch": 84,
                "velocity": 64,
                "duration": 0.3840909,
                "tempo": 120.0
            },
            {
                "start_time": 41.6931818,
                "end_time": 42.0681818,
                "pitch": 85,
                "velocity": 64,
                "duration": 0.375,
                "tempo": 120.0
            },
            {
                "start_time": 42.0863636,
                "end_time": 42.4795455,
                "pitch": 85,
                "velocity": 64,
                "duration": 0.3931818,
                "tempo": 120.0
            },
            {
                "start_time": 42.4954545,
                "end_time": 42.7409091,
                "pitch": 85,
                "velocity": 64,
                "duration": 0.2454545,
                "tempo": 120.0
            },
            {
                "start_time": 42.7568182,
                "end_time": 42.8727273,
                "pitch": 85,
                "velocity": 64,
                "duration": 0.1159091,
                "tempo": 120.0
            },
            {
                "start_time": 42.8886364,
                "end_time": 43.1454545,
                "pitch": 87,
                "velocity": 64,
                "duration": 0.2568182,
                "tempo": 120.0
            },
            {
                "start_time": 43.1613636,
                "end_time": 44.075,
                "pitch": 85,
                "velocity": 64,
                "duration": 0.9136364,
                "tempo": 120.0
            },
            {
                "start_time": 45.2931818,
                "end_time": 45.5431818,
                "pitch": 80,
                "velocity": 64,
                "duration": 0.25,
                "tempo": 120.0
            },
            {
                "start_time": 45.5613636,
                "end_time": 45.6772727,
                "pitch": 80,
                "velocity": 64,
                "duration": 0.1159091,
                "tempo": 120.0
            },
            {
                "start_time": 45.9613636,
                "end_time": 46.0772727,
                "pitch": 83,
                "velocity": 64,
                "duration": 0.1159091,
                "tempo": 120.0
            },
            {
                "start_time": 46.3681818,
                "end_time": 46.4863636,
                "pitch": 80,
                "velocity": 64,
                "duration": 0.1181818,
                "tempo": 120.0
            },
            {
                "start_time": 46.5045455,
                "end_time": 46.5545455,
                "pitch": 85,
                "velocity": 64,
                "duration": 0.05,
                "tempo": 120.0
            },
            {
                "start_time": 46.5704545,
                "end_time": 46.8886364,
                "pitch": 86,
                "velocity": 64,
                "duration": 0.3181818,
                "tempo": 120.0
            },
            {
                "start_time": 46.9045455,
                "end_time": 47.2886364,
                "pitch": 85,
                "velocity": 64,
                "duration": 0.3840909,
                "tempo": 120.0
            },
            {
                "start_time": 47.3045455,
                "end_time": 47.6886364,
                "pitch": 83,
                "velocity": 64,
                "duration": 0.3840909,
                "tempo": 120.0
            },
            {
                "start_time": 47.7045455,
                "end_time": 48.0909091,
                "pitch": 80,
                "velocity": 64,
                "duration": 0.3863636,
                "tempo": 120.0
            },
            {
                "start_time": 48.1068182,
                "end_time": 49.1522727,
                "pitch": 78,
                "velocity": 64,
                "duration": 1.0454545,
                "tempo": 120.0
            },
            {
                "start_time": 49.1681818,
                "end_time": 49.2863636,
                "pitch": 78,
                "velocity": 64,
                "duration": 0.1181818,
                "tempo": 120.0
            },
            {
                "start_time": 49.3022727,
                "end_time": 49.5522727,
                "pitch": 92,
                "velocity": 64,
                "duration": 0.25,
                "tempo": 120.0
            },
            {
                "start_time": 49.5681818,
                "end_time": 49.9522727,
                "pitch": 90,
                "velocity": 64,
                "duration": 0.3840909,
                "tempo": 120.0
            },
            {
                "start_time": 50.1022727,
                "end_time": 50.3522727,
                "pitch": 88,
                "velocity": 64,
                "duration": 0.25,
                "tempo": 120.0
            },
            {
                "start_time": 50.5022727,
                "end_time": 50.7545455,
                "pitch": 87,
                "velocity": 64,
                "duration": 0.2522727,
                "tempo": 120.0
            },
            {
                "start_time": 50.9045455,
                "end_time": 51.1545455,
                "pitch": 85,
                "velocity": 64,
                "duration": 0.25,
                "tempo": 120.0
            }
        ],
        "Acoustic Bass": [
            {
                "start_time": 0.0159091,
                "end_time": 0.2659091,
                "pitch": 35,
                "velocity": 32,
                "duration": 0.25,
                "tempo": 120.0
            },
            {
                "start_time": 0.2840909,
                "end_time": 0.4,
                "pitch": 47,
                "velocity": 32,
                "duration": 0.1159091,
                "tempo": 120.0
            },
            {
                "start_time": 0.4159091,
                "end_time": 0.6613636,
                "pitch": 35,
                "velocity": 32,
                "duration": 0.2454545,
                "tempo": 120.0
            },
            {
                "start_time": 0.6772727,
                "end_time": 0.7909091,
                "pitch": 47,
                "velocity": 32,
                "duration": 0.1136364,
                "tempo": 120.0
            },
            {
                "start_time": 0.8090909,
                "end_time": 1.0522727,
                "pitch": 35,
                "velocity": 32,
                "duration": 0.2431818,
                "tempo": 120.0
            },
            {
                "start_time": 1.0704545,
                "end_time": 1.1840909,
                "pitch": 47,
                "velocity": 32,
                "duration": 0.1136364,
                "tempo": 120.0
            },
            {
                "start_time": 1.2022727,
                "end_time": 1.4522727,
                "pitch": 35,
                "velocity": 32,
                "duration": 0.25,
                "tempo": 120.0
            },
            {
                "start_time": 1.4681818,
                "end_time": 1.5840909,
                "pitch": 47,
                "velocity": 32,
                "duration": 0.1159091,
                "tempo": 120.0
            },
            {
                "start_time": 1.6022727,
                "end_time": 1.8522727,
                "pitch": 35,
                "velocity": 32,
                "duration": 0.25,
                "tempo": 120.0
            },
            {
                "start_time": 1.8704545,
                "end_time": 1.9886364,
                "pitch": 47,
                "velocity": 32,
                "duration": 0.1181818,
                "tempo": 120.0
            },
            {
                "start_time": 2.0045455,
                "end_time": 2.2613636,
                "pitch": 35,
                "velocity": 32,
                "duration": 0.2568182,
                "tempo": 120.0
            },
            {
                "start_time": 2.2795455,
                "end_time": 2.3977273,
                "pitch": 47,
                "velocity": 32,
                "duration": 0.1181818,
                "tempo": 120.0
            },
            {
                "start_time": 2.4136364,
                "end_time": 2.6590909,
                "pitch": 35,
                "velocity": 32,
                "duration": 0.2454545,
                "tempo": 120.0
            },
            {
                "start_time": 2.675,
                "end_time": 2.7909091,
                "pitch": 47,
                "velocity": 32,
                "duration": 0.1159091,
                "tempo": 120.0
            },
            {
                "start_time": 2.8068182,
                "end_time": 3.0636364,
                "pitch": 36,
                "velocity": 32,
                "duration": 0.2568182,
                "tempo": 120.0
            },
            {
                "start_time": 3.0818182,
                "end_time": 3.2,
                "pitch": 48,
                "velocity": 32,
                "duration": 0.1181818,
                "tempo": 120.0
            },
            {
                "start_time": 3.2159091,
                "end_time": 3.4613636,
                "pitch": 37,
                "velocity": 32,
                "duration": 0.2454545,
                "tempo": 120.0
            },
            {
                "start_time": 3.4772727,
                "end_time": 3.5931818,
                "pitch": 49,
                "velocity": 32,
                "duration": 0.1159091,
                "tempo": 120.0
            },
            {
                "start_time": 3.6090909,
                "end_time": 3.8590909,
                "pitch": 37,
                "velocity": 32,
                "duration": 0.25,
                "tempo": 120.0
            },
            {
                "start_time": 3.875,
                "end_time": 3.9931818,
                "pitch": 49,
                "velocity": 32,
                "duration": 0.1181818,
                "tempo": 120.0
            },
            {
                "start_time": 4.0090909,
                "end_time": 4.2590909,
                "pitch": 37,
                "velocity": 32,
                "duration": 0.25,
                "tempo": 120.0
            },
            {
                "start_time": 4.275,
                "end_time": 4.3931818,
                "pitch": 49,
                "velocity": 32,
                "duration": 0.1181818,
                "tempo": 120.0
            },
            {
                "start_time": 4.4090909,
                "end_time": 4.6590909,
                "pitch": 37,
                "velocity": 32,
                "duration": 0.25,
                "tempo": 120.0
            },
            {
                "start_time": 4.675,
                "end_time": 4.7931818,
                "pitch": 49,
                "velocity": 32,
                "duration": 0.1181818,
                "tempo": 120.0
            },
            {
                "start_time": 4.8090909,
                "end_time": 5.0613636,
                "pitch": 37,
                "velocity": 32,
                "duration": 0.2522727,
                "tempo": 120.0
            },
            {
                "start_time": 5.0772727,
                "end_time": 5.1954545,
                "pitch": 49,
                "velocity": 32,
                "duration": 0.1181818,
                "tempo": 120.0
            },
            {
                "start_time": 5.2136364,
                "end_time": 5.4704545,
                "pitch": 37,
                "velocity": 32,
                "duration": 0.2568182,
                "tempo": 120.0
            },
            {
                "start_time": 5.4863636,
                "end_time": 5.6068182,
                "pitch": 49,
                "velocity": 32,
                "duration": 0.1204545,
                "tempo": 120.0
            },
            {
                "start_time": 5.6227273,
                "end_time": 5.8681818,
                "pitch": 37,
                "velocity": 32,
                "duration": 0.2454545,
                "tempo": 120.0
            },
            {
                "start_time": 5.8840909,
                "end_time": 5.9977273,
                "pitch": 49,
                "velocity": 32,
                "duration": 0.1136364,
                "tempo": 120.0
            },
            {
                "start_time": 6.0159091,
                "end_time": 6.2727273,
                "pitch": 39,
                "velocity": 32,
                "duration": 0.2568182,
                "tempo": 120.0
            },
            {
                "start_time": 6.2886364,
                "end_time": 6.4090909,
                "pitch": 51,
                "velocity": 32,
                "duration": 0.1204545,
                "tempo": 120.0
            },
            {
                "start_time": 6.425,
                "end_time": 6.6704545,
                "pitch": 40,
                "velocity": 32,
                "duration": 0.2454545,
                "tempo": 120.0
            },
            {
                "start_time": 6.6863636,
                "end_time": 6.8,
                "pitch": 52,
                "velocity": 32,
                "duration": 0.1136364,
                "tempo": 120.0
            },
            {
                "start_time": 6.8181818,
                "end_time": 7.075,
                "pitch": 40,
                "velocity": 32,
                "duration": 0.2568182,
                "tempo": 120.0
            },
            {
                "start_time": 7.0931818,
                "end_time": 7.2113636,
                "pitch": 52,
                "velocity": 32,
                "duration": 0.1181818,
                "tempo": 120.0
            },
            {
                "start_time": 7.2272727,
                "end_time": 7.4727273,
                "pitch": 40,
                "velocity": 32,
                "duration": 0.2454545,
                "tempo": 120.0
            },
            {
                "start_time": 7.4886364,
                "end_time": 7.6045455,
                "pitch": 52,
                "velocity": 32,
                "duration": 0.1159091,
                "tempo": 120.0
            },
            {
                "start_time": 7.6204545,
                "end_time": 7.8772727,
                "pitch": 40,
                "velocity": 32,
                "duration": 0.2568182,
                "tempo": 120.0
            },
            {
                "start_time": 7.8954545,
                "end_time": 8.0136364,
                "pitch": 52,
                "velocity": 32,
                "duration": 0.1181818,
                "tempo": 120.0
            },
            {
                "start_time": 8.0295455,
                "end_time": 8.275,
                "pitch": 40,
                "velocity": 32,
                "duration": 0.2454545,
                "tempo": 120.0
            },
            {
                "start_time": 8.2909091,
                "end_time": 8.4068182,
                "pitch": 52,
                "velocity": 32,
                "duration": 0.1159091,
                "tempo": 120.0
            },
            {
                "start_time": 8.4227273,
                "end_time": 8.6795455,
                "pitch": 40,
                "velocity": 32,
                "duration": 0.2568182,
                "tempo": 120.0
            },
            {
                "start_time": 8.6977273,
                "end_time": 8.8159091,
                "pitch": 52,
                "velocity": 32,
                "duration": 0.1181818,
                "tempo": 120.0
            },
            {
                "start_time": 8.8318182,
                "end_time": 9.0772727,
                "pitch": 40,
                "velocity": 32,
                "duration": 0.2454545,
                "tempo": 120.0
            },
            {
                "start_time": 9.0931818,
                "end_time": 9.2090909,
                "pitch": 52,
                "velocity": 32,
                "duration": 0.1159091,
                "tempo": 120.0
            },
            {
                "start_time": 9.225,
                "end_time": 9.4840909,
                "pitch": 40,
                "velocity": 32,
                "duration": 0.2590909,
                "tempo": 120.0
            },
            {
                "start_time": 9.5,
                "end_time": 9.6181818,
                "pitch": 52,
                "velocity": 32,
                "duration": 0.1181818,
                "tempo": 120.0
            },
            {
                "start_time": 9.6363636,
                "end_time": 9.8795455,
                "pitch": 35,
                "velocity": 32,
                "duration": 0.2431818,
                "tempo": 120.0
            },
            {
                "start_time": 9.8977273,
                "end_time": 10.0113636,
                "pitch": 47,
                "velocity": 32,
                "duration": 0.1136364,
                "tempo": 120.0
            },
            {
                "start_time": 10.0295455,
                "end_time": 10.2863636,
                "pitch": 35,
                "velocity": 32,
                "duration": 0.2568182,
                "tempo": 120.0
            },
            {
                "start_time": 10.3022727,
                "end_time": 10.4227273,
                "pitch": 47,
                "velocity": 32,
                "duration": 0.1204545,
                "tempo": 120.0
            },
            {
                "start_time": 10.4386364,
                "end_time": 10.6840909,
                "pitch": 35,
                "velocity": 32,
                "duration": 0.2454545,
                "tempo": 120.0
            },
            {
                "start_time": 10.7,
                "end_time": 10.8136364,
                "pitch": 47,
                "velocity": 32,
                "duration": 0.1136364,
                "tempo": 120.0
            },
            {
                "start_time": 10.8318182,
                "end_time": 11.0886364,
                "pitch": 35,
                "velocity": 32,
                "duration": 0.2568182,
                "tempo": 120.0
            },
            {
                "start_time": 11.1045455,
                "end_time": 11.225,
                "pitch": 47,
                "velocity": 32,
                "duration": 0.1204545,
                "tempo": 120.0
            },
            {
                "start_time": 11.2409091,
                "end_time": 11.4863636,
                "pitch": 35,
                "velocity": 32,
                "duration": 0.2454545,
                "tempo": 120.0
            },
            {
                "start_time": 11.5022727,
                "end_time": 11.6159091,
                "pitch": 47,
                "velocity": 32,
                "duration": 0.1136364,
                "tempo": 120.0
            },
            {
                "start_time": 11.6340909,
                "end_time": 11.8863636,
                "pitch": 32,
                "velocity": 32,
                "duration": 0.2522727,
                "tempo": 120.0
            },
            {
                "start_time": 11.9022727,
                "end_time": 12.0204545,
                "pitch": 44,
                "velocity": 32,
                "duration": 0.1181818,
                "tempo": 120.0
            },
            {
                "start_time": 12.0363636,
                "end_time": 12.2886364,
                "pitch": 33,
                "velocity": 32,
                "duration": 0.2522727,
                "tempo": 120.0
            },
            {
                "start_time": 12.3045455,
                "end_time": 12.4227273,
                "pitch": 45,
                "velocity": 32,
                "duration": 0.1181818,
                "tempo": 120.0
            },
            {
                "start_time": 12.4386364,
                "end_time": 12.6954545,
                "pitch": 34,
                "velocity": 32,
                "duration": 0.2568182,
                "tempo": 120.0
            },
            {
                "start_time": 12.7136364,
                "end_time": 12.8318182,
                "pitch": 46,
                "velocity": 32,
                "duration": 0.1181818,
                "tempo": 120.0
            },
            {
                "start_time": 12.85,
                "end_time": 13.0931818,
                "pitch": 35,
                "velocity": 32,
                "duration": 0.2431818,
                "tempo": 120.0
            },
            {
                "start_time": 13.1113636,
                "end_time": 13.225,
                "pitch": 47,
                "velocity": 32,
                "duration": 0.1136364,
                "tempo": 120.0
            },
            {
                "start_time": 13.2431818,
                "end_time": 13.5,
                "pitch": 35,
                "velocity": 32,
                "duration": 0.2568182,
                "tempo": 120.0
            },
            {
                "start_time": 13.5159091,
                "end_time": 13.6363636,
                "pitch": 47,
                "velocity": 32,
                "duration": 0.1204545,
                "tempo": 120.0
            },
            {
                "start_time": 13.6522727,
                "end_time": 13.8977273,
                "pitch": 35,
                "velocity": 32,
                "duration": 0.2454545,
                "tempo": 120.0
            },
            {
                "start_time": 13.9136364,
                "end_time": 14.0272727,
                "pitch": 47,
                "velocity": 32,
                "duration": 0.1136364,
                "tempo": 120.0
            },
            {
                "start_time": 14.0454545,
                "end_time": 14.3022727,
                "pitch": 35,
                "velocity": 32,
                "duration": 0.2568182,
                "tempo": 120.0
            },
            {
                "start_time": 14.3181818,
                "end_time": 14.4386364,
                "pitch": 47,
                "velocity": 32,
                "duration": 0.1204545,
                "tempo": 120.0
            },
            {
                "start_time": 14.4545455,
                "end_time": 14.7,
                "pitch": 35,
                "velocity": 32,
                "duration": 0.2454545,
                "tempo": 120.0
            },
            {
                "start_time": 14.7159091,
                "end_time": 14.8295455,
                "pitch": 47,
                "velocity": 32,
                "duration": 0.1136364,
                "tempo": 120.0
            },
            {
                "start_time": 14.8477273,
                "end_time": 15.1045455,
                "pitch": 35,
                "velocity": 32,
                "duration": 0.2568182,
                "tempo": 120.0
            },
            {
                "start_time": 15.1227273,
                "end_time": 15.2409091,
                "pitch": 47,
                "velocity": 32,
                "duration": 0.1181818,
                "tempo": 120.0
            },
            {
                "start_time": 15.2568182,
                "end_time": 15.5022727,
                "pitch": 35,
                "velocity": 32,
                "duration": 0.2454545,
                "tempo": 120.0
            },
            {
                "start_time": 15.5181818,
                "end_time": 15.6340909,
                "pitch": 47,
                "velocity": 32,
                "duration": 0.1159091,
                "tempo": 120.0
            },
            {
                "start_time": 15.65,
                "end_time": 15.9068182,
                "pitch": 36,
                "velocity": 32,
                "duration": 0.2568182,
                "tempo": 120.0
            },
            {
                "start_time": 15.925,
                "end_time": 16.0431818,
                "pitch": 48,
                "velocity": 32,
                "duration": 0.1181818,
                "tempo": 120.0
            },
            {
                "start_time": 16.0590909,
                "end_time": 16.3045455,
                "pitch": 37,
                "velocity": 32,
                "duration": 0.2454545,
                "tempo": 120.0
            },
            {
                "start_time": 16.3204545,
                "end_time": 16.4363636,
                "pitch": 49,
                "velocity": 32,
                "duration": 0.1159091,
                "tempo": 120.0
            },
            {
                "start_time": 16.4522727,
                "end_time": 16.7090909,
                "pitch": 37,
                "velocity": 32,
                "duration": 0.2568182,
                "tempo": 120.0
            },
            {
                "start_time": 16.7272727,
                "end_time": 16.8454545,
                "pitch": 49,
                "velocity": 32,
                "duration": 0.1181818,
                "tempo": 120.0
            },
            {
                "start_time": 16.8613636,
                "end_time": 17.1068182,
                "pitch": 37,
                "velocity": 32,
                "duration": 0.2454545,
                "tempo": 120.0
            },
            {
                "start_time": 17.1227273,
                "end_time": 17.2386364,
                "pitch": 49,
                "velocity": 32,
                "duration": 0.1159091,
                "tempo": 120.0
            },
            {
                "start_time": 17.2545455,
                "end_time": 17.5045455,
                "pitch": 37,
                "velocity": 32,
                "duration": 0.25,
                "tempo": 120.0
            },
            {
                "start_time": 17.5227273,
                "end_time": 17.6386364,
                "pitch": 49,
                "velocity": 32,
                "duration": 0.1159091,
                "tempo": 120.0
            },
            {
                "start_time": 17.6545455,
                "end_time": 17.9045455,
                "pitch": 37,
                "velocity": 32,
                "duration": 0.25,
                "tempo": 120.0
            },
            {
                "start_time": 17.9227273,
                "end_time": 18.0386364,
                "pitch": 49,
                "velocity": 32,
                "duration": 0.1159091,
                "tempo": 120.0
            },
            {
                "start_time": 18.0545455,
                "end_time": 18.3068182,
                "pitch": 37,
                "velocity": 32,
                "duration": 0.2522727,
                "tempo": 120.0
            },
            {
                "start_time": 18.3227273,
                "end_time": 18.4409091,
                "pitch": 49,
                "velocity": 32,
                "duration": 0.1181818,
                "tempo": 120.0
            },
            {
                "start_time": 18.4568182,
                "end_time": 18.7068182,
                "pitch": 37,
                "velocity": 32,
                "duration": 0.25,
                "tempo": 120.0
            },
            {
                "start_time": 18.725,
                "end_time": 18.8409091,
                "pitch": 49,
                "velocity": 32,
                "duration": 0.1159091,
                "tempo": 120.0
            },
            {
                "start_time": 18.8590909,
                "end_time": 19.1159091,
                "pitch": 39,
                "velocity": 32,
                "duration": 0.2568182,
                "tempo": 120.0
            },
            {
                "start_time": 19.1318182,
                "end_time": 19.2522727,
                "pitch": 51,
                "velocity": 32,
                "duration": 0.1204545,
                "tempo": 120.0
            },
            {
                "start_time": 19.2681818,
                "end_time": 19.5136364,
                "pitch": 40,
                "velocity": 32,
                "duration": 0.2454545,
                "tempo": 120.0
            },
            {
                "start_time": 19.5295455,
                "end_time": 19.6431818,
                "pitch": 52,
                "velocity": 32,
                "duration": 0.1136364,
                "tempo": 120.0
            },
            {
                "start_time": 19.6613636,
                "end_time": 19.9181818,
                "pitch": 40,
                "velocity": 32,
                "duration": 0.2568182,
                "tempo": 120.0
            },
            {
                "start_time": 19.9340909,
                "end_time": 20.0545455,
                "pitch": 52,
                "velocity": 32,
                "duration": 0.1204545,
                "tempo": 120.0
            },
            {
                "start_time": 20.0704545,
                "end_time": 20.3159091,
                "pitch": 40,
                "velocity": 32,
                "duration": 0.2454545,
                "tempo": 120.0
            },
            {
                "start_time": 20.3318182,
                "end_time": 20.4477273,
                "pitch": 52,
                "velocity": 32,
                "duration": 0.1159091,
                "tempo": 120.0
            },
            {
                "start_time": 20.4636364,
                "end_time": 20.7204545,
                "pitch": 40,
                "velocity": 32,
                "duration": 0.2568182,
                "tempo": 120.0
            },
            {
                "start_time": 20.7386364,
                "end_time": 20.8568182,
                "pitch": 52,
                "velocity": 32,
                "duration": 0.1181818,
                "tempo": 120.0
            },
            {
                "start_time": 20.8727273,
                "end_time": 21.1181818,
                "pitch": 40,
                "velocity": 32,
                "duration": 0.2454545,
                "tempo": 120.0
            },
            {
                "start_time": 21.1340909,
                "end_time": 21.25,
                "pitch": 52,
                "velocity": 32,
                "duration": 0.1159091,
                "tempo": 120.0
            },
            {
                "start_time": 21.2659091,
                "end_time": 21.5227273,
                "pitch": 40,
                "velocity": 32,
                "duration": 0.2568182,
                "tempo": 120.0
            },
            {
                "start_time": 21.5409091,
                "end_time": 21.6590909,
                "pitch": 52,
                "velocity": 32,
                "duration": 0.1181818,
                "tempo": 120.0
            },
            {
                "start_time": 21.675,
                "end_time": 21.9204545,
                "pitch": 40,
                "velocity": 32,
                "duration": 0.2454545,
                "tempo": 120.0
            },
            {
                "start_time": 21.9363636,
                "end_time": 22.0522727,
                "pitch": 52,
                "velocity": 32,
                "duration": 0.1159091,
                "tempo": 120.0
            },
            {
                "start_time": 22.0681818,
                "end_time": 22.325,
                "pitch": 40,
                "velocity": 32,
                "duration": 0.2568182,
                "tempo": 120.0
            },
            {
                "start_time": 22.3431818,
                "end_time": 22.4613636,
                "pitch": 52,
                "velocity": 32,
                "duration": 0.1181818,
                "tempo": 120.0
            },
            {
                "start_time": 22.4772727,
                "end_time": 22.7227273,
                "pitch": 35,
                "velocity": 32,
                "duration": 0.2454545,
                "tempo": 120.0
            },
            {
                "start_time": 22.7386364,
                "end_time": 22.8545455,
                "pitch": 47,
                "velocity": 32,
                "duration": 0.1159091,
                "tempo": 120.0
            },
            {
                "start_time": 22.8727273,
                "end_time": 23.1295455,
                "pitch": 35,
                "velocity": 32,
                "duration": 0.2568182,
                "tempo": 120.0
            },
            {
                "start_time": 23.1454545,
                "end_time": 23.2659091,
                "pitch": 47,
                "velocity": 32,
                "duration": 0.1204545,
                "tempo": 120.0
            },
            {
                "start_time": 23.2818182,
                "end_time": 23.5340909,
                "pitch": 35,
                "velocity": 32,
                "duration": 0.2522727,
                "tempo": 120.0
            },
            {
                "start_time": 23.55,
                "end_time": 23.6681818,
                "pitch": 47,
                "velocity": 32,
                "duration": 0.1181818,
                "tempo": 120.0
            },
            {
                "start_time": 23.6840909,
                "end_time": 23.9340909,
                "pitch": 35,
                "velocity": 32,
                "duration": 0.25,
                "tempo": 120.0
            },
            {
                "start_time": 23.9522727,
                "end_time": 24.0681818,
                "pitch": 47,
                "velocity": 32,
                "duration": 0.1159091,
                "tempo": 120.0
            },
            {
                "start_time": 24.0840909,
                "end_time": 24.3340909,
                "pitch": 35,
                "velocity": 32,
                "duration": 0.25,
                "tempo": 120.0
            },
            {
                "start_time": 24.4840909,
                "end_time": 24.7295455,
                "pitch": 35,
                "velocity": 32,
                "duration": 0.2454545,
                "tempo": 120.0
            },
            {
                "start_time": 24.7454545,
                "end_time": 24.8590909,
                "pitch": 47,
                "velocity": 32,
                "duration": 0.1136364,
                "tempo": 120.0
            },
            {
                "start_time": 24.8772727,
                "end_time": 25.1295455,
                "pitch": 34,
                "velocity": 32,
                "duration": 0.2522727,
                "tempo": 120.0
            },
            {
                "start_time": 25.1454545,
                "end_time": 25.2636364,
                "pitch": 46,
                "velocity": 32,
                "duration": 0.1181818,
                "tempo": 120.0
            },
            {
                "start_time": 25.2795455,
                "end_time": 25.5295455,
                "pitch": 33,
                "velocity": 32,
                "duration": 0.25,
                "tempo": 120.0
            },
            {
                "start_time": 25.5454545,
                "end_time": 25.6636364,
                "pitch": 45,
                "velocity": 32,
                "duration": 0.1181818,
                "tempo": 120.0
            },
            {
                "start_time": 25.6795455,
                "end_time": 25.9363636,
                "pitch": 32,
                "velocity": 32,
                "duration": 0.2568182,
                "tempo": 120.0
            },
            {
                "start_time": 25.9545455,
                "end_time": 26.0727273,
                "pitch": 44,
                "velocity": 32,
                "duration": 0.1181818,
                "tempo": 120.0
            },
            {
                "start_time": 26.0886364,
                "end_time": 26.3340909,
                "pitch": 32,
                "velocity": 32,
                "duration": 0.2454545,
                "tempo": 120.0
            },
            {
                "start_time": 26.35,
                "end_time": 26.4659091,
                "pitch": 44,
                "velocity": 32,
                "duration": 0.1159091,
                "tempo": 120.0
            },
            {
                "start_time": 26.4818182,
                "end_time": 26.7318182,
                "pitch": 32,
                "velocity": 32,
                "duration": 0.25,
                "tempo": 120.0
            },
            {
                "start_time": 26.75,
                "end_time": 26.8659091,
                "pitch": 44,
                "velocity": 32,
                "duration": 0.1159091,
                "tempo": 120.0
            },
            {
                "start_time": 26.8818182,
                "end_time": 27.1340909,
                "pitch": 32,
                "velocity": 32,
                "duration": 0.2522727,
                "tempo": 120.0
            },
            {
                "start_time": 27.15,
                "end_time": 27.2681818,
                "pitch": 44,
                "velocity": 32,
                "duration": 0.1181818,
                "tempo": 120.0
            },
            {
                "start_time": 27.2840909,
                "end_time": 27.5340909,
                "pitch": 32,
                "velocity": 32,
                "duration": 0.25,
                "tempo": 120.0
            },
            {
                "start_time": 27.5522727,
                "end_time": 27.6681818,
                "pitch": 44,
                "velocity": 32,
                "duration": 0.1159091,
                "tempo": 120.0
            },
            {
                "start_time": 27.6863636,
                "end_time": 27.9431818,
                "pitch": 32,
                "velocity": 32,
                "duration": 0.2568182,
                "tempo": 120.0
            },
            {
                "start_time": 27.9590909,
                "end_time": 28.0795455,
                "pitch": 44,
                "velocity": 32,
                "duration": 0.1204545,
                "tempo": 120.0
            },
            {
                "start_time": 28.0954545,
                "end_time": 28.3454545,
                "pitch": 32,
                "velocity": 32,
                "duration": 0.25,
                "tempo": 120.0
            },
            {
                "start_time": 28.3636364,
                "end_time": 28.4795455,
                "pitch": 44,
                "velocity": 32,
                "duration": 0.1159091,
                "tempo": 120.0
            },
            {
                "start_time": 28.4954545,
                "end_time": 28.7477273,
                "pitch": 32,
                "velocity": 32,
                "duration": 0.2522727,
                "tempo": 120.0
            },
            {
                "start_time": 28.7636364,
                "end_time": 28.8818182,
                "pitch": 44,
                "velocity": 32,
                "duration": 0.1181818,
                "tempo": 120.0
            },
            {
                "start_time": 28.8977273,
                "end_time": 29.1431818,
                "pitch": 25,
                "velocity": 32,
                "duration": 0.2454545,
                "tempo": 120.0
            },
            {
                "start_time": 29.1590909,
                "end_time": 29.275,
                "pitch": 37,
                "velocity": 32,
                "duration": 0.1159091,
                "tempo": 120.0
            },
            {
                "start_time": 29.2909091,
                "end_time": 29.5477273,
                "pitch": 25,
                "velocity": 32,
                "duration": 0.2568182,
                "tempo": 120.0
            },
            {
                "start_time": 29.5659091,
                "end_time": 29.6840909,
                "pitch": 37,
                "velocity": 32,
                "duration": 0.1181818,
                "tempo": 120.0
            },
            {
                "start_time": 29.7,
                "end_time": 29.9454545,
                "pitch": 25,
                "velocity": 32,
                "duration": 0.2454545,
                "tempo": 120.0
            },
            {
                "start_time": 29.9613636,
                "end_time": 30.0772727,
                "pitch": 37,
                "velocity": 32,
                "duration": 0.1159091,
                "tempo": 120.0
            },
            {
                "start_time": 30.0931818,
                "end_time": 30.35,
                "pitch": 25,
                "velocity": 32,
                "duration": 0.2568182,
                "tempo": 120.0
            },
            {
                "start_time": 30.3681818,
                "end_time": 30.4863636,
                "pitch": 37,
                "velocity": 32,
                "duration": 0.1181818,
                "tempo": 120.0
            },
            {
                "start_time": 30.5022727,
                "end_time": 30.7477273,
                "pitch": 25,
                "velocity": 32,
                "duration": 0.2454545,
                "tempo": 120.0
            },
            {
                "start_time": 30.7636364,
                "end_time": 30.8795455,
                "pitch": 37,
                "velocity": 32,
                "duration": 0.1159091,
                "tempo": 120.0
            },
            {
                "start_time": 30.8954545,
                "end_time": 31.1477273,
                "pitch": 25,
                "velocity": 32,
                "duration": 0.2522727,
                "tempo": 120.0
            },
            {
                "start_time": 31.1636364,
                "end_time": 31.2818182,
                "pitch": 37,
                "velocity": 32,
                "duration": 0.1181818,
                "tempo": 120.0
            },
            {
                "start_time": 31.2977273,
                "end_time": 31.5477273,
                "pitch": 25,
                "velocity": 32,
                "duration": 0.25,
                "tempo": 120.0
            },
            {
                "start_time": 31.5659091,
                "end_time": 31.6818182,
                "pitch": 37,
                "velocity": 32,
                "duration": 0.1159091,
                "tempo": 120.0
            },
            {
                "start_time": 31.7,
                "end_time": 31.9568182,
                "pitch": 27,
                "velocity": 32,
                "duration": 0.2568182,
                "tempo": 120.0
            },
            {
                "start_time": 31.9727273,
                "end_time": 32.0931818,
                "pitch": 39,
                "velocity": 32,
                "duration": 0.1204545,
                "tempo": 120.0
            },
            {
                "start_time": 32.1090909,
                "end_time": 32.3545455,
                "pitch": 28,
                "velocity": 32,
                "duration": 0.2454545,
                "tempo": 120.0
            },
            {
                "start_time": 32.3704545,
                "end_time": 32.4840909,
                "pitch": 40,
                "velocity": 32,
                "duration": 0.1136364,
                "tempo": 120.0
            },
            {
                "start_time": 32.5022727,
                "end_time": 32.7545455,
                "pitch": 28,
                "velocity": 32,
                "duration": 0.2522727,
                "tempo": 120.0
            },
            {
                "start_time": 32.7704545,
                "end_time": 32.8886364,
                "pitch": 40,
                "velocity": 32,
                "duration": 0.1181818,
                "tempo": 120.0
            },
            {
                "start_time": 32.9045455,
                "end_time": 33.1545455,
                "pitch": 28,
                "velocity": 32,
                "duration": 0.25,
                "tempo": 120.0
            },
            {
                "start_time": 33.1704545,
                "end_time": 33.2886364,
                "pitch": 40,
                "velocity": 32,
                "duration": 0.1181818,
                "tempo": 120.0
            },
            {
                "start_time": 33.3045455,
                "end_time": 33.5613636,
                "pitch": 28,
                "velocity": 32,
                "duration": 0.2568182,
                "tempo": 120.0
            },
            {
                "start_time": 33.5795455,
                "end_time": 33.6977273,
                "pitch": 40,
                "velocity": 32,
                "duration": 0.1181818,
                "tempo": 120.0
            },
            {
                "start_time": 33.7159091,
                "end_time": 33.9659091,
                "pitch": 28,
                "velocity": 32,
                "duration": 0.25,
                "tempo": 120.0
            },
            {
                "start_time": 33.9840909,
                "end_time": 34.1022727,
                "pitch": 40,
                "velocity": 32,
                "duration": 0.1181818,
                "tempo": 120.0
            },
            {
                "start_time": 34.1181818,
                "end_time": 34.3681818,
                "pitch": 28,
                "velocity": 32,
                "duration": 0.25,
                "tempo": 120.0
            },
            {
                "start_time": 34.3840909,
                "end_time": 34.5022727,
                "pitch": 40,
                "velocity": 32,
                "duration": 0.1181818,
                "tempo": 120.0
            },
            {
                "start_time": 34.5181818,
                "end_time": 34.7681818,
                "pitch": 28,
                "velocity": 32,
                "duration": 0.25,
                "tempo": 120.0
            },
            {
                "start_time": 34.7840909,
                "end_time": 34.9022727,
                "pitch": 40,
                "velocity": 32,
                "duration": 0.1181818,
                "tempo": 120.0
            },
            {
                "start_time": 34.9181818,
                "end_time": 35.1681818,
                "pitch": 29,
                "velocity": 32,
                "duration": 0.25,
                "tempo": 120.0
            },
            {
                "start_time": 35.1840909,
                "end_time": 35.3,
                "pitch": 41,
                "velocity": 32,
                "duration": 0.1159091,
                "tempo": 120.0
            },
            {
                "start_time": 35.3181818,
                "end_time": 35.5613636,
                "pitch": 30,
                "velocity": 32,
                "duration": 0.2431818,
                "tempo": 120.0
            },
            {
                "start_time": 35.5795455,
                "end_time": 35.6931818,
                "pitch": 42,
                "velocity": 32,
                "duration": 0.1136364,
                "tempo": 120.0
            },
            {
                "start_time": 35.7090909,
                "end_time": 35.9590909,
                "pitch": 30,
                "velocity": 32,
                "duration": 0.25,
                "tempo": 120.0
            },
            {
                "start_time": 35.9772727,
                "end_time": 36.0931818,
                "pitch": 42,
                "velocity": 32,
                "duration": 0.1159091,
                "tempo": 120.0
            },
            {
                "start_time": 36.1090909,
                "end_time": 36.3590909,
                "pitch": 30,
                "velocity": 32,
                "duration": 0.25,
                "tempo": 120.0
            },
            {
                "start_time": 36.3772727,
                "end_time": 36.4931818,
                "pitch": 42,
                "velocity": 32,
                "duration": 0.1159091,
                "tempo": 120.0
            },
            {
                "start_time": 36.5113636,
                "end_time": 36.7681818,
                "pitch": 30,
                "velocity": 32,
                "duration": 0.2568182,
                "tempo": 120.0
            },
            {
                "start_time": 36.7840909,
                "end_time": 36.9045455,
                "pitch": 42,
                "velocity": 32,
                "duration": 0.1204545,
                "tempo": 120.0
            },
            {
                "start_time": 36.9204545,
                "end_time": 37.0340909,
                "pitch": 30,
                "velocity": 32,
                "duration": 0.1136364,
                "tempo": 120.0
            },
            {
                "start_time": 37.05,
                "end_time": 37.1659091,
                "pitch": 42,
                "velocity": 32,
                "duration": 0.1159091,
                "tempo": 120.0
            },
            {
                "start_time": 37.1818182,
                "end_time": 37.2954545,
                "pitch": 42,
                "velocity": 32,
                "duration": 0.1136364,
                "tempo": 120.0
            },
            {
                "start_time": 37.3136364,
                "end_time": 37.4295455,
                "pitch": 30,
                "velocity": 32,
                "duration": 0.1159091,
                "tempo": 120.0
            },
            {
                "start_time": 37.4454545,
                "end_time": 37.5636364,
                "pitch": 42,
                "velocity": 32,
                "duration": 0.1181818,
                "tempo": 120.0
            },
            {
                "start_time": 37.5795455,
                "end_time": 37.6954545,
                "pitch": 42,
                "velocity": 32,
                "duration": 0.1159091,
                "tempo": 120.0
            },
            {
                "start_time": 37.7136364,
                "end_time": 37.8295455,
                "pitch": 30,
                "velocity": 32,
                "duration": 0.1159091,
                "tempo": 120.0
            },
            {
                "start_time": 37.8454545,
                "end_time": 37.9636364,
                "pitch": 42,
                "velocity": 32,
                "duration": 0.1181818,
                "tempo": 120.0
            },
            {
                "start_time": 37.9795455,
                "end_time": 38.0954545,
                "pitch": 42,
                "velocity": 32,
                "duration": 0.1159091,
                "tempo": 120.0
            },
            {
                "start_time": 38.1136364,
                "end_time": 38.2295455,
                "pitch": 31,
                "velocity": 32,
                "duration": 0.1159091,
                "tempo": 120.0
            },
            {
                "start_time": 38.2454545,
                "end_time": 38.3636364,
                "pitch": 43,
                "velocity": 32,
                "duration": 0.1181818,
                "tempo": 120.0
            },
            {
                "start_time": 38.3795455,
                "end_time": 38.4954545,
                "pitch": 43,
                "velocity": 32,
                "duration": 0.1159091,
                "tempo": 120.0
            },
            {
                "start_time": 38.5136364,
                "end_time": 38.7704545,
                "pitch": 32,
                "velocity": 32,
                "duration": 0.2568182,
                "tempo": 120.0
            },
            {
                "start_time": 38.7886364,
                "end_time": 38.9068182,
                "pitch": 44,
                "velocity": 32,
                "duration": 0.1181818,
                "tempo": 120.0
            },
            {
                "start_time": 38.9227273,
                "end_time": 39.1681818,
                "pitch": 32,
                "velocity": 32,
                "duration": 0.2454545,
                "tempo": 120.0
            },
            {
                "start_time": 39.1840909,
                "end_time": 39.3,
                "pitch": 44,
                "velocity": 32,
                "duration": 0.1159091,
                "tempo": 120.0
            },
            {
                "start_time": 39.3159091,
                "end_time": 39.5659091,
                "pitch": 32,
                "velocity": 32,
                "duration": 0.25,
                "tempo": 120.0
            },
            {
                "start_time": 39.5818182,
                "end_time": 39.7,
                "pitch": 44,
                "velocity": 32,
                "duration": 0.1181818,
                "tempo": 120.0
            },
            {
                "start_time": 39.7159091,
                "end_time": 39.9659091,
                "pitch": 32,
                "velocity": 32,
                "duration": 0.25,
                "tempo": 120.0
            },
            {
                "start_time": 39.9818182,
                "end_time": 40.1,
                "pitch": 44,
                "velocity": 32,
                "duration": 0.1181818,
                "tempo": 120.0
            },
            {
                "start_time": 40.1159091,
                "end_time": 40.3659091,
                "pitch": 32,
                "velocity": 32,
                "duration": 0.25,
                "tempo": 120.0
            },
            {
                "start_time": 40.3818182,
                "end_time": 40.5,
                "pitch": 44,
                "velocity": 32,
                "duration": 0.1181818,
                "tempo": 120.0
            },
            {
                "start_time": 40.5159091,
                "end_time": 40.7727273,
                "pitch": 32,
                "velocity": 32,
                "duration": 0.2568182,
                "tempo": 120.0
            },
            {
                "start_time": 40.7909091,
                "end_time": 40.9090909,
                "pitch": 44,
                "velocity": 32,
                "duration": 0.1181818,
                "tempo": 120.0
            },
            {
                "start_time": 40.9272727,
                "end_time": 41.1772727,
                "pitch": 32,
                "velocity": 32,
                "duration": 0.25,
                "tempo": 120.0
            },
            {
                "start_time": 41.1931818,
                "end_time": 41.3090909,
                "pitch": 44,
                "velocity": 32,
                "duration": 0.1159091,
                "tempo": 120.0
            },
            {
                "start_time": 41.3272727,
                "end_time": 41.5772727,
                "pitch": 32,
                "velocity": 32,
                "duration": 0.25,
                "tempo": 120.0
            },
            {
                "start_time": 41.5931818,
                "end_time": 41.7090909,
                "pitch": 44,
                "velocity": 32,
                "duration": 0.1159091,
                "tempo": 120.0
            },
            {
                "start_time": 41.725,
                "end_time": 41.9704545,
                "pitch": 25,
                "velocity": 32,
                "duration": 0.2454545,
                "tempo": 120.0
            },
            {
                "start_time": 41.9863636,
                "end_time": 42.1022727,
                "pitch": 37,
                "velocity": 32,
                "duration": 0.1159091,
                "tempo": 120.0
            },
            {
                "start_time": 42.1204545,
                "end_time": 42.3772727,
                "pitch": 25,
                "velocity": 32,
                "duration": 0.2568182,
                "tempo": 120.0
            },
            {
                "start_time": 42.3931818,
                "end_time": 42.5113636,
                "pitch": 37,
                "velocity": 32,
                "duration": 0.1181818,
                "tempo": 120.0
            },
            {
                "start_time": 42.5295455,
                "end_time": 42.7727273,
                "pitch": 25,
                "velocity": 32,
                "duration": 0.2431818,
                "tempo": 120.0
            },
            {
                "start_time": 42.7909091,
                "end_time": 42.9045455,
                "pitch": 37,
                "velocity": 32,
                "duration": 0.1136364,
                "tempo": 120.0
            },
            {
                "start_time": 42.9227273,
                "end_time": 43.1795455,
                "pitch": 25,
                "velocity": 32,
                "duration": 0.2568182,
                "tempo": 120.0
            },
            {
                "start_time": 43.1954545,
                "end_time": 43.3159091,
                "pitch": 37,
                "velocity": 32,
                "duration": 0.1204545,
                "tempo": 120.0
            },
            {
                "start_time": 43.3318182,
                "end_time": 43.5772727,
                "pitch": 25,
                "velocity": 32,
                "duration": 0.2454545,
                "tempo": 120.0
            },
            {
                "start_time": 43.5931818,
                "end_time": 43.7068182,
                "pitch": 37,
                "velocity": 32,
                "duration": 0.1136364,
                "tempo": 120.0
            },
            {
                "start_time": 43.725,
                "end_time": 43.975,
                "pitch": 25,
                "velocity": 32,
                "duration": 0.25,
                "tempo": 120.0
            },
            {
                "start_time": 43.9909091,
                "end_time": 44.1068182,
                "pitch": 37,
                "velocity": 32,
                "duration": 0.1159091,
                "tempo": 120.0
            },
            {
                "start_time": 44.125,
                "end_time": 44.375,
                "pitch": 25,
                "velocity": 32,
                "duration": 0.25,
                "tempo": 120.0
            },
            {
                "start_time": 44.3909091,
                "end_time": 44.5068182,
                "pitch": 37,
                "velocity": 32,
                "duration": 0.1159091,
                "tempo": 120.0
            },
            {
                "start_time": 44.525,
                "end_time": 44.7818182,
                "pitch": 27,
                "velocity": 32,
                "duration": 0.2568182,
                "tempo": 120.0
            },
            {
                "start_time": 44.7977273,
                "end_time": 44.9181818,
                "pitch": 39,
                "velocity": 32,
                "duration": 0.1204545,
                "tempo": 120.0
            },
            {
                "start_time": 44.9340909,
                "end_time": 45.1795455,
                "pitch": 28,
                "velocity": 32,
                "duration": 0.2454545,
                "tempo": 120.0
            },
            {
                "start_time": 45.1954545,
                "end_time": 45.3113636,
                "pitch": 40,
                "velocity": 32,
                "duration": 0.1159091,
                "tempo": 120.0
            },
            {
                "start_time": 45.3272727,
                "end_time": 45.5772727,
                "pitch": 28,
                "velocity": 32,
                "duration": 0.25,
                "tempo": 120.0
            },
            {
                "start_time": 45.5931818,
                "end_time": 45.7113636,
                "pitch": 40,
                "velocity": 32,
                "duration": 0.1181818,
                "tempo": 120.0
            },
            {
                "start_time": 45.7272727,
                "end_time": 45.9772727,
                "pitch": 28,
                "velocity": 32,
                "duration": 0.25,
                "tempo": 120.0
            },
            {
                "start_time": 45.9931818,
                "end_time": 46.1113636,
                "pitch": 40,
                "velocity": 32,
                "duration": 0.1181818,
                "tempo": 120.0
            },
            {
                "start_time": 46.1272727,
                "end_time": 46.3840909,
                "pitch": 28,
                "velocity": 32,
                "duration": 0.2568182,
                "tempo": 120.0
            },
            {
                "start_time": 46.4022727,
                "end_time": 46.5204545,
                "pitch": 40,
                "velocity": 32,
                "duration": 0.1181818,
                "tempo": 120.0
            },
            {
                "start_time": 46.5386364,
                "end_time": 46.7886364,
                "pitch": 28,
                "velocity": 32,
                "duration": 0.25,
                "tempo": 120.0
            },
            {
                "start_time": 46.8045455,
                "end_time": 46.9204545,
                "pitch": 40,
                "velocity": 32,
                "duration": 0.1159091,
                "tempo": 120.0
            },
            {
                "start_time": 46.9386364,
                "end_time": 47.1886364,
                "pitch": 28,
                "velocity": 32,
                "duration": 0.25,
                "tempo": 120.0
            },
            {
                "start_time": 47.2045455,
                "end_time": 47.3204545,
                "pitch": 40,
                "velocity": 32,
                "duration": 0.1159091,
                "tempo": 120.0
            },
            {
                "start_time": 47.3386364,
                "end_time": 47.5886364,
                "pitch": 28,
                "velocity": 32,
                "duration": 0.25,
                "tempo": 120.0
            },
            {
                "start_time": 47.6045455,
                "end_time": 47.7204545,
                "pitch": 40,
                "velocity": 32,
                "duration": 0.1159091,
                "tempo": 120.0
            },
            {
                "start_time": 47.7386364,
                "end_time": 47.9886364,
                "pitch": 29,
                "velocity": 32,
                "duration": 0.25,
                "tempo": 120.0
            },
            {
                "start_time": 48.0068182,
                "end_time": 48.1227273,
                "pitch": 41,
                "velocity": 32,
                "duration": 0.1159091,
                "tempo": 120.0
            },
            {
                "start_time": 48.1409091,
                "end_time": 48.3840909,
                "pitch": 30,
                "velocity": 32,
                "duration": 0.2431818,
                "tempo": 120.0
            },
            {
                "start_time": 48.4022727,
                "end_time": 48.5159091,
                "pitch": 42,
                "velocity": 32,
                "duration": 0.1136364,
                "tempo": 120.0
            },
            {
                "start_time": 48.5318182,
                "end_time": 48.7840909,
                "pitch": 30,
                "velocity": 32,
                "duration": 0.2522727,
                "tempo": 120.0
            },
            {
                "start_time": 48.8022727,
                "end_time": 48.9181818,
                "pitch": 42,
                "velocity": 32,
                "duration": 0.1159091,
                "tempo": 120.0
            },
            {
                "start_time": 48.9363636,
                "end_time": 49.1863636,
                "pitch": 30,
                "velocity": 32,
                "duration": 0.25,
                "tempo": 120.0
            },
            {
                "start_time": 49.2022727,
                "end_time": 49.3181818,
                "pitch": 42,
                "velocity": 32,
                "duration": 0.1159091,
                "tempo": 120.0
            },
            {
                "start_time": 49.3363636,
                "end_time": 49.5863636,
                "pitch": 30,
                "velocity": 32,
                "duration": 0.25,
                "tempo": 120.0
            },
            {
                "start_time": 49.6022727,
                "end_time": 49.7181818,
                "pitch": 42,
                "velocity": 32,
                "duration": 0.1159091,
                "tempo": 120.0
            },
            {
                "start_time": 49.7363636,
                "end_time": 49.9863636,
                "pitch": 30,
                "velocity": 32,
                "duration": 0.25,
                "tempo": 120.0
            },
            {
                "start_time": 50.1363636,
                "end_time": 50.3863636,
                "pitch": 30,
                "velocity": 32,
                "duration": 0.25,
                "tempo": 120.0
            },
            {
                "start_time": 50.5363636,
                "end_time": 50.7863636,
                "pitch": 32,
                "velocity": 32,
                "duration": 0.25,
                "tempo": 120.0
            },
            {
                "start_time": 50.9386364,
                "end_time": 51.1886364,
                "pitch": 34,
                "velocity": 32,
                "duration": 0.25,
                "tempo": 120.0
            }
        ],
        "Acoustic Grand Piano": [
            {
                "start_time": 0.25,
                "end_time": 0.3659091,
                "pitch": 75,
                "velocity": 32,
                "duration": 0.1159091,
                "tempo": 120.0
            },
            {
                "start_time": 0.6454545,
                "end_time": 0.7590909,
                "pitch": 75,
                "velocity": 32,
                "duration": 0.1136364,
                "tempo": 120.0
            },
            {
                "start_time": 1.0363636,
                "end_time": 1.1522727,
                "pitch": 75,
                "velocity": 32,
                "duration": 0.1159091,
                "tempo": 120.0
            },
            {
                "start_time": 1.4340909,
                "end_time": 1.5522727,
                "pitch": 75,
                "velocity": 32,
                "duration": 0.1181818,
                "tempo": 120.0
            },
            {
                "start_time": 1.8363636,
                "end_time": 1.9545455,
                "pitch": 75,
                "velocity": 32,
                "duration": 0.1181818,
                "tempo": 120.0
            },
            {
                "start_time": 2.2454545,
                "end_time": 2.3636364,
                "pitch": 75,
                "velocity": 32,
                "duration": 0.1181818,
                "tempo": 120.0
            },
            {
                "start_time": 2.6431818,
                "end_time": 2.7568182,
                "pitch": 75,
                "velocity": 32,
                "duration": 0.1136364,
                "tempo": 120.0
            },
            {
                "start_time": 3.0477273,
                "end_time": 3.1659091,
                "pitch": 75,
                "velocity": 32,
                "duration": 0.1181818,
                "tempo": 120.0
            },
            {
                "start_time": 3.4454545,
                "end_time": 3.5590909,
                "pitch": 73,
                "velocity": 32,
                "duration": 0.1136364,
                "tempo": 120.0
            },
            {
                "start_time": 3.8431818,
                "end_time": 3.9590909,
                "pitch": 73,
                "velocity": 32,
                "duration": 0.1159091,
                "tempo": 120.0
            },
            {
                "start_time": 4.2431818,
                "end_time": 4.3590909,
                "pitch": 73,
                "velocity": 32,
                "duration": 0.1159091,
                "tempo": 120.0
            },
            {
                "start_time": 4.6431818,
                "end_time": 4.7590909,
                "pitch": 73,
                "velocity": 32,
                "duration": 0.1159091,
                "tempo": 120.0
            },
            {
                "start_time": 5.0454545,
                "end_time": 5.1613636,
                "pitch": 73,
                "velocity": 32,
                "duration": 0.1159091,
                "tempo": 120.0
            },
            {
                "start_time": 5.4522727,
                "end_time": 5.5727273,
                "pitch": 73,
                "velocity": 32,
                "duration": 0.1204545,
                "tempo": 120.0
            },
            {
                "start_time": 5.85,
                "end_time": 5.9659091,
                "pitch": 73,
                "velocity": 32,
                "duration": 0.1159091,
                "tempo": 120.0
            },
            {
                "start_time": 6.2545455,
                "end_time": 6.375,
                "pitch": 73,
                "velocity": 32,
                "duration": 0.1204545,
                "tempo": 120.0
            },
            {
                "start_time": 6.6545455,
                "end_time": 6.7681818,
                "pitch": 71,
                "velocity": 32,
                "duration": 0.1136364,
                "tempo": 120.0
            },
            {
                "start_time": 7.0568182,
                "end_time": 7.1772727,
                "pitch": 71,
                "velocity": 32,
                "duration": 0.1204545,
                "tempo": 120.0
            },
            {
                "start_time": 7.4568182,
                "end_time": 7.5704545,
                "pitch": 71,
                "velocity": 32,
                "duration": 0.1136364,
                "tempo": 120.0
            },
            {
                "start_time": 7.8613636,
                "end_time": 7.9795455,
                "pitch": 71,
                "velocity": 32,
                "duration": 0.1181818,
                "tempo": 120.0
            },
            {
                "start_time": 8.2590909,
                "end_time": 8.3727273,
                "pitch": 71,
                "velocity": 32,
                "duration": 0.1136364,
                "tempo": 120.0
            },
            {
                "start_time": 8.6636364,
                "end_time": 8.7840909,
                "pitch": 71,
                "velocity": 32,
                "duration": 0.1204545,
                "tempo": 120.0
            },
            {
                "start_time": 9.0613636,
                "end_time": 9.175,
                "pitch": 71,
                "velocity": 32,
                "duration": 0.1136364,
                "tempo": 120.0
            },
            {
                "start_time": 9.4659091,
                "end_time": 9.5863636,
                "pitch": 71,
                "velocity": 32,
                "duration": 0.1204545,
                "tempo": 120.0
            },
            {
                "start_time": 9.8636364,
                "end_time": 9.9795455,
                "pitch": 71,
                "velocity": 32,
                "duration": 0.1159091,
                "tempo": 120.0
            },
            {
                "start_time": 10.2681818,
                "end_time": 10.3886364,
                "pitch": 71,
                "velocity": 32,
                "duration": 0.1204545,
                "tempo": 120.0
            },
            {
                "start_time": 10.6659091,
                "end_time": 10.7818182,
                "pitch": 71,
                "velocity": 32,
                "duration": 0.1159091,
                "tempo": 120.0
            },
            {
                "start_time": 11.0704545,
                "end_time": 11.1909091,
                "pitch": 71,
                "velocity": 32,
                "duration": 0.1204545,
                "tempo": 120.0
            },
            {
                "start_time": 11.4704545,
                "end_time": 11.5840909,
                "pitch": 71,
                "velocity": 32,
                "duration": 0.1136364,
                "tempo": 120.0
            },
            {
                "start_time": 11.8681818,
                "end_time": 11.9863636,
                "pitch": 71,
                "velocity": 32,
                "duration": 0.1181818,
                "tempo": 120.0
            },
            {
                "start_time": 12.2704545,
                "end_time": 12.3886364,
                "pitch": 71,
                "velocity": 32,
                "duration": 0.1181818,
                "tempo": 120.0
            },
            {
                "start_time": 12.6795455,
                "end_time": 12.8,
                "pitch": 71,
                "velocity": 32,
                "duration": 0.1204545,
                "tempo": 120.0
            },
            {
                "start_time": 13.0772727,
                "end_time": 13.1931818,
                "pitch": 75,
                "velocity": 32,
                "duration": 0.1159091,
                "tempo": 120.0
            },
            {
                "start_time": 13.4818182,
                "end_time": 13.6022727,
                "pitch": 75,
                "velocity": 32,
                "duration": 0.1204545,
                "tempo": 120.0
            },
            {
                "start_time": 13.8795455,
                "end_time": 13.9954545,
                "pitch": 75,
                "velocity": 32,
                "duration": 0.1159091,
                "tempo": 120.0
            },
            {
                "start_time": 14.2840909,
                "end_time": 14.4045455,
                "pitch": 75,
                "velocity": 32,
                "duration": 0.1204545,
                "tempo": 120.0
            },
            {
                "start_time": 14.6840909,
                "end_time": 14.7977273,
                "pitch": 75,
                "velocity": 32,
                "duration": 0.1136364,
                "tempo": 120.0
            },
            {
                "start_time": 15.0863636,
                "end_time": 15.2068182,
                "pitch": 75,
                "velocity": 32,
                "duration": 0.1204545,
                "tempo": 120.0
            },
            {
                "start_time": 15.4863636,
                "end_time": 15.6,
                "pitch": 75,
                "velocity": 32,
                "duration": 0.1136364,
                "tempo": 120.0
            },
            {
                "start_time": 15.8909091,
                "end_time": 16.0090909,
                "pitch": 75,
                "velocity": 32,
                "duration": 0.1181818,
                "tempo": 120.0
            },
            {
                "start_time": 16.2886364,
                "end_time": 16.4022727,
                "pitch": 73,
                "velocity": 32,
                "duration": 0.1136364,
                "tempo": 120.0
            },
            {
                "start_time": 16.6931818,
                "end_time": 16.8136364,
                "pitch": 73,
                "velocity": 32,
                "duration": 0.1204545,
                "tempo": 120.0
            },
            {
                "start_time": 17.0909091,
                "end_time": 17.2045455,
                "pitch": 73,
                "velocity": 32,
                "duration": 0.1136364,
                "tempo": 120.0
            },
            {
                "start_time": 17.4886364,
                "end_time": 17.6045455,
                "pitch": 73,
                "velocity": 32,
                "duration": 0.1159091,
                "tempo": 120.0
            },
            {
                "start_time": 17.8886364,
                "end_time": 18.0045455,
                "pitch": 73,
                "velocity": 32,
                "duration": 0.1159091,
                "tempo": 120.0
            },
            {
                "start_time": 18.2909091,
                "end_time": 18.4068182,
                "pitch": 73,
                "velocity": 32,
                "duration": 0.1159091,
                "tempo": 120.0
            },
            {
                "start_time": 18.6909091,
                "end_time": 18.8068182,
                "pitch": 73,
                "velocity": 32,
                "duration": 0.1159091,
                "tempo": 120.0
            },
            {
                "start_time": 19.0977273,
                "end_time": 19.2181818,
                "pitch": 73,
                "velocity": 32,
                "duration": 0.1204545,
                "tempo": 120.0
            },
            {
                "start_time": 19.4954545,
                "end_time": 19.6113636,
                "pitch": 71,
                "velocity": 32,
                "duration": 0.1159091,
                "tempo": 120.0
            },
            {
                "start_time": 19.9,
                "end_time": 20.0204545,
                "pitch": 71,
                "velocity": 32,
                "duration": 0.1204545,
                "tempo": 120.0
            },
            {
                "start_time": 20.3,
                "end_time": 20.4136364,
                "pitch": 71,
                "velocity": 32,
                "duration": 0.1136364,
                "tempo": 120.0
            },
            {
                "start_time": 20.7045455,
                "end_time": 20.8227273,
                "pitch": 71,
                "velocity": 32,
                "duration": 0.1181818,
                "tempo": 120.0
            },
            {
                "start_time": 21.1022727,
                "end_time": 21.2159091,
                "pitch": 71,
                "velocity": 32,
                "duration": 0.1136364,
                "tempo": 120.0
            },
            {
                "start_time": 21.5068182,
                "end_time": 21.625,
                "pitch": 71,
                "velocity": 32,
                "duration": 0.1181818,
                "tempo": 120.0
            },
            {
                "start_time": 21.9045455,
                "end_time": 22.0181818,
                "pitch": 71,
                "velocity": 32,
                "duration": 0.1136364,
                "tempo": 120.0
            },
            {
                "start_time": 22.3090909,
                "end_time": 22.4295455,
                "pitch": 71,
                "velocity": 32,
                "duration": 0.1204545,
                "tempo": 120.0
            },
            {
                "start_time": 22.7068182,
                "end_time": 22.8204545,
                "pitch": 71,
                "velocity": 32,
                "duration": 0.1136364,
                "tempo": 120.0
            },
            {
                "start_time": 23.1113636,
                "end_time": 23.2318182,
                "pitch": 71,
                "velocity": 32,
                "duration": 0.1204545,
                "tempo": 120.0
            },
            {
                "start_time": 23.5159091,
                "end_time": 23.6340909,
                "pitch": 71,
                "velocity": 32,
                "duration": 0.1181818,
                "tempo": 120.0
            },
            {
                "start_time": 23.9181818,
                "end_time": 24.0340909,
                "pitch": 71,
                "velocity": 32,
                "duration": 0.1159091,
                "tempo": 120.0
            },
            {
                "start_time": 24.0681818,
                "end_time": 24.3022727,
                "pitch": 71,
                "velocity": 32,
                "duration": 0.2340909,
                "tempo": 120.0
            },
            {
                "start_time": 24.4522727,
                "end_time": 24.8272727,
                "pitch": 71,
                "velocity": 32,
                "duration": 0.375,
                "tempo": 120.0
            },
            {
                "start_time": 24.8431818,
                "end_time": 25.2295455,
                "pitch": 70,
                "velocity": 32,
                "duration": 0.3863636,
                "tempo": 120.0
            },
            {
                "start_time": 25.2454545,
                "end_time": 25.6295455,
                "pitch": 69,
                "velocity": 32,
                "duration": 0.3840909,
                "tempo": 120.0
            },
            {
                "start_time": 26.0568182,
                "end_time": 26.4318182,
                "pitch": 70,
                "velocity": 32,
                "duration": 0.375,
                "tempo": 120.0
            },
            {
                "start_time": 26.85,
                "end_time": 27.2340909,
                "pitch": 70,
                "velocity": 32,
                "duration": 0.3840909,
                "tempo": 120.0
            },
            {
                "start_time": 27.6522727,
                "end_time": 28.0454545,
                "pitch": 70,
                "velocity": 32,
                "duration": 0.3931818,
                "tempo": 120.0
            },
            {
                "start_time": 28.0613636,
                "end_time": 28.4454545,
                "pitch": 70,
                "velocity": 32,
                "duration": 0.3840909,
                "tempo": 120.0
            },
            {
                "start_time": 28.4636364,
                "end_time": 28.8477273,
                "pitch": 70,
                "velocity": 32,
                "duration": 0.3840909,
                "tempo": 120.0
            },
            {
                "start_time": 29.2568182,
                "end_time": 29.65,
                "pitch": 68,
                "velocity": 32,
                "duration": 0.3931818,
                "tempo": 120.0
            },
            {
                "start_time": 30.0590909,
                "end_time": 30.4545455,
                "pitch": 68,
                "velocity": 32,
                "duration": 0.3954545,
                "tempo": 120.0
            },
            {
                "start_time": 30.8636364,
                "end_time": 31.2477273,
                "pitch": 68,
                "velocity": 32,
                "duration": 0.3840909,
                "tempo": 120.0
            },
            {
                "start_time": 31.2659091,
                "end_time": 31.6477273,
                "pitch": 68,
                "velocity": 32,
                "duration": 0.3818182,
                "tempo": 120.0
            },
            {
                "start_time": 31.6659091,
                "end_time": 32.0590909,
                "pitch": 68,
                "velocity": 32,
                "duration": 0.3931818,
                "tempo": 120.0
            },
            {
                "start_time": 32.4681818,
                "end_time": 32.8545455,
                "pitch": 68,
                "velocity": 32,
                "duration": 0.3863636,
                "tempo": 120.0
            },
            {
                "start_time": 33.2704545,
                "end_time": 33.6636364,
                "pitch": 68,
                "velocity": 32,
                "duration": 0.3931818,
                "tempo": 120.0
            },
            {
                "start_time": 34.0840909,
                "end_time": 34.4681818,
                "pitch": 68,
                "velocity": 32,
                "duration": 0.3840909,
                "tempo": 120.0
            },
            {
                "start_time": 34.4840909,
                "end_time": 34.8681818,
                "pitch": 68,
                "velocity": 32,
                "duration": 0.3840909,
                "tempo": 120.0
            },
            {
                "start_time": 34.8840909,
                "end_time": 35.2681818,
                "pitch": 68,
                "velocity": 32,
                "duration": 0.3840909,
                "tempo": 120.0
            },
            {
                "start_time": 35.6772727,
                "end_time": 36.0590909,
                "pitch": 70,
                "velocity": 32,
                "duration": 0.3818182,
                "tempo": 120.0
            },
            {
                "start_time": 36.4772727,
                "end_time": 36.8704545,
                "pitch": 70,
                "velocity": 32,
                "duration": 0.3931818,
                "tempo": 120.0
            },
            {
                "start_time": 37.2795455,
                "end_time": 37.6636364,
                "pitch": 70,
                "velocity": 32,
                "duration": 0.3840909,
                "tempo": 120.0
            },
            {
                "start_time": 38.0795455,
                "end_time": 38.4636364,
                "pitch": 70,
                "velocity": 32,
                "duration": 0.3840909,
                "tempo": 120.0
            },
            {
                "start_time": 38.8909091,
                "end_time": 39.2659091,
                "pitch": 70,
                "velocity": 32,
                "duration": 0.375,
                "tempo": 120.0
            },
            {
                "start_time": 39.6818182,
                "end_time": 40.0659091,
                "pitch": 70,
                "velocity": 32,
                "duration": 0.3840909,
                "tempo": 120.0
            },
            {
                "start_time": 40.4818182,
                "end_time": 40.875,
                "pitch": 70,
                "velocity": 32,
                "duration": 0.3931818,
                "tempo": 120.0
            },
            {
                "start_time": 40.8931818,
                "end_time": 41.2772727,
                "pitch": 70,
                "velocity": 32,
                "duration": 0.3840909,
                "tempo": 120.0
            },
            {
                "start_time": 41.2931818,
                "end_time": 41.6772727,
                "pitch": 70,
                "velocity": 32,
                "duration": 0.3840909,
                "tempo": 120.0
            },
            {
                "start_time": 42.0863636,
                "end_time": 42.4795455,
                "pitch": 68,
                "velocity": 32,
                "duration": 0.3931818,
                "tempo": 120.0
            },
            {
                "start_time": 42.8886364,
                "end_time": 43.2818182,
                "pitch": 68,
                "velocity": 32,
                "duration": 0.3931818,
                "tempo": 120.0
            },
            {
                "start_time": 43.6909091,
                "end_time": 44.075,
                "pitch": 68,
                "velocity": 32,
                "duration": 0.3840909,
                "tempo": 120.0
            },
            {
                "start_time": 44.0909091,
                "end_time": 44.475,
                "pitch": 68,
                "velocity": 32,
                "duration": 0.3840909,
                "tempo": 120.0
            },
            {
                "start_time": 44.4909091,
                "end_time": 44.8840909,
                "pitch": 68,
                "velocity": 32,
                "duration": 0.3931818,
                "tempo": 120.0
            },
            {
                "start_time": 45.2931818,
                "end_time": 45.6772727,
                "pitch": 68,
                "velocity": 32,
                "duration": 0.3840909,
                "tempo": 120.0
            },
            {
                "start_time": 46.0931818,
                "end_time": 46.4863636,
                "pitch": 68,
                "velocity": 32,
                "duration": 0.3931818,
                "tempo": 120.0
            },
            {
                "start_time": 46.9045455,
                "end_time": 47.2886364,
                "pitch": 68,
                "velocity": 32,
                "duration": 0.3840909,
                "tempo": 120.0
            },
            {
                "start_time": 47.3045455,
                "end_time": 47.6886364,
                "pitch": 68,
                "velocity": 32,
                "duration": 0.3840909,
                "tempo": 120.0
            },
            {
                "start_time": 47.7045455,
                "end_time": 48.0909091,
                "pitch": 68,
                "velocity": 32,
                "duration": 0.3863636,
                "tempo": 120.0
            },
            {
                "start_time": 48.5,
                "end_time": 48.8863636,
                "pitch": 70,
                "velocity": 32,
                "duration": 0.3863636,
                "tempo": 120.0
            },
            {
                "start_time": 49.3022727,
                "end_time": 49.5522727,
                "pitch": 70,
                "velocity": 32,
                "duration": 0.25,
                "tempo": 120.0
            },
            {
                "start_time": 49.5681818,
                "end_time": 51.2886364,
                "pitch": 73,
                "velocity": 32,
                "duration": 1.7204545,
                "tempo": 120.0
            }
        ]
    }
}