{
    "mood": "happy",
    "instruments": {
        "Oboe": [
            {
                "start_time": 1.4909091,
                "end_time": 1.6227273,
                "pitch": 84,
                "velocity": 25,
                "duration": 0.1318182,
                "tempo": 120.0
            },
            {
                "start_time": 1.6409091,
                "end_time": 1.7727273,
                "pitch": 83,
                "velocity": 25,
                "duration": 0.1318182,
                "tempo": 120.0
            },
            {
                "start_time": 1.7909091,
                "end_time": 1.9227273,
                "pitch": 84,
                "velocity": 25,
                "duration": 0.1318182,
                "tempo": 120.0
            },
            {
                "start_time": 1.9409091,
                "end_time": 2.225,
                "pitch": 83,
                "velocity": 25,
                "duration": 0.2840909,
                "tempo": 120.0
            },
            {
                "start_time": 2.2431818,
                "end_time": 2.5295455,
                "pitch": 79,
                "velocity": 25,
                "duration": 0.2863636,
                "tempo": 120.0
            },
            {
                "start_time": 2.5454545,
                "end_time": 2.6795455,
                "pitch": 83,
                "velocity": 25,
                "duration": 0.1340909,
                "tempo": 120.0
            },
            {
                "start_time": 2.6977273,
                "end_time": 3.2863636,
                "pitch": 84,
                "velocity": 25,
                "duration": 0.5886364,
                "tempo": 120.0
            },
            {
                "start_time": 3.3022727,
                "end_time": 3.5863636,
                "pitch": 86,
                "velocity": 25,
                "duration": 0.2840909,
                "tempo": 120.0
            },
            {
                "start_time": 3.6022727,
                "end_time": 4.4931818,
                "pitch": 87,
                "velocity": 25,
                "duration": 0.8909091,
                "tempo": 120.0
            },
            {
                "start_time": 4.5090909,
                "end_time": 4.7954545,
                "pitch": 91,
                "velocity": 25,
                "duration": 0.2863636,
                "tempo": 120.0
            },
            {
                "start_time": 4.8113636,
                "end_time": 5.5590909,
                "pitch": 89,
                "velocity": 25,
                "duration": 0.7477273,
                "tempo": 120.0
            },
            {
                "start_time": 5.575,
                "end_time": 5.8613636,
                "pitch": 90,
                "velocity": 25,
                "duration": 0.2863636,
                "tempo": 120.0
            },
            {
                "start_time": 5.8795455,
                "end_time": 6.0136364,
                "pitch": 91,
                "velocity": 25,
                "duration": 0.1340909,
                "tempo": 120.0
            },
            {
                "start_time": 15.9613636,
                "end_time": 16.0931818,
                "pitch": 84,
                "velocity": 25,
                "duration": 0.1318182,
                "tempo": 120.0
            }
        ],
        "Church Organ": [
            {
                "start_time": 6.3318182,
                "end_time": 6.6113636,
                "pitch": 95,
                "velocity": 25,
                "duration": 0.2795455,
                "tempo": 120.0
            },
            {
                "start_time": 6.6295455,
                "end_time": 6.7613636,
                "pitch": 95,
                "velocity": 25,
                "duration": 0.1318182,
                "tempo": 120.0
            },
            {
                "start_time": 6.7772727,
                "end_time": 7.2090909,
                "pitch": 91,
                "velocity": 25,
                "duration": 0.4318182,
                "tempo": 120.0
            },
            {
                "start_time": 7.2272727,
                "end_time": 7.5113636,
                "pitch": 86,
                "velocity": 25,
                "duration": 0.2840909,
                "tempo": 120.0
            },
            {
                "start_time": 7.5272727,
                "end_time": 7.8136364,
                "pitch": 86,
                "velocity": 25,
                "duration": 0.2863636,
                "tempo": 120.0
            },
            {
                "start_time": 7.8318182,
                "end_time": 7.9659091,
                "pitch": 91,
                "velocity": 25,
                "duration": 0.1340909,
                "tempo": 120.0
            },
            {
                "start_time": 7.9818182,
                "end_time": 8.4159091,
                "pitch": 95,
                "velocity": 25,
                "duration": 0.4340909,
                "tempo": 120.0
            },
            {
                "start_time": 8.7318182,
                "end_time": 9.0159091,
                "pitch": 93,
                "velocity": 25,
                "duration": 0.2840909,
                "tempo": 120.0
            },
            {
                "start_time": 9.0318182,
                "end_time": 9.1659091,
                "pitch": 89,
                "velocity": 25,
                "duration": 0.1340909,
                "tempo": 120.0
            },
            {
                "start_time": 9.1818182,
                "end_time": 9.6159091,
                "pitch": 93,
                "velocity": 25,
                "duration": 0.4340909,
                "tempo": 120.0
            },
            {
                "start_time": 9.6318182,
                "end_time": 10.0681818,
                "pitch": 95,
                "velocity": 25,
                "duration": 0.4363636,
                "tempo": 120.0
            },
            {
                "start_time": 10.0863636,
                "end_time": 10.3704545,
                "pitch": 91,
                "velocity": 25,
                "duration": 0.2840909,
                "tempo": 120.0
            },
            {
                "start_time": 10.3886364,
                "end_time": 10.5227273,
                "pitch": 86,
                "velocity": 25,
                "duration": 0.1340909,
                "tempo": 120.0
            },
            {
                "start_time": 10.5386364,
                "end_time": 10.6727273,
                "pitch": 91,
                "velocity": 25,
                "duration": 0.1340909,
                "tempo": 120.0
            },
            {
                "start_time": 10.6886364,
                "end_time": 10.8227273,
                "pitch": 95,
                "velocity": 25,
                "duration": 0.1340909,
                "tempo": 120.0
            },
            {
                "start_time": 11.1386364,
                "end_time": 11.4227273,
                "pitch": 95,
                "velocity": 25,
                "duration": 0.2840909,
                "tempo": 120.0
            },
            {
                "start_time": 11.4386364,
                "end_time": 11.5727273,
                "pitch": 95,
                "velocity": 25,
                "duration": 0.1340909,
                "tempo": 120.0
            },
            {
                "start_time": 11.5886364,
                "end_time": 12.0227273,
                "pitch": 91,
                "velocity": 25,
                "duration": 0.4340909,
                "tempo": 120.0
            },
            {
                "start_time": 12.0386364,
                "end_time": 12.3227273,
                "pitch": 86,
                "velocity": 25,
                "duration": 0.2840909,
                "tempo": 120.0
            },
            {
                "start_time": 12.3386364,
                "end_time": 12.6227273,
                "pitch": 86,
                "velocity": 25,
                "duration": 0.2840909,
                "tempo": 120.0
            },
            {
                "start_time": 12.6386364,
                "end_time": 12.7727273,
                "pitch": 91,
                "velocity": 25,
                "duration": 0.1340909,
                "tempo": 120.0
            },
            {
                "start_time": 12.7886364,
                "end_time": 13.225,
                "pitch": 95,
                "velocity": 25,
                "duration": 0.4363636,
                "tempo": 120.0
            },
            {
                "start_time": 13.2431818,
                "end_time": 13.3772727,
                "pitch": 93,
                "velocity": 25,
                "duration": 0.1340909,
                "tempo": 120.0
            },
            {
                "start_time": 13.3954545,
                "end_time": 13.5272727,
                "pitch": 93,
                "velocity": 25,
                "duration": 0.1318182,
                "tempo": 120.0
            },
            {
                "start_time": 13.9954545,
                "end_time": 14.1295455,
                "pitch": 89,
                "velocity": 25,
                "duration": 0.1340909,
                "tempo": 120.0
            },
            {
                "start_time": 14.1477273,
                "end_time": 14.4363636,
                "pitch": 93,
                "velocity": 25,
                "duration": 0.2886364,
                "tempo": 120.0
            },
            {
                "start_time": 14.4522727,
                "end_time": 14.7386364,
                "pitch": 95,
                "velocity": 25,
                "duration": 0.2863636,
                "tempo": 120.0
            },
            {
                "start_time": 14.7568182,
                "end_time": 15.0363636,
                "pitch": 95,
                "velocity": 25,
                "duration": 0.2795455,
                "tempo": 120.0
            },
            {
                "start_time": 15.0522727,
                "end_time": 15.3363636,
                "pitch": 95,
                "velocity": 25,
                "duration": 0.2840909,
                "tempo": 120.0
            },
            {
                "start_time": 15.3522727,
                "end_time": 15.4886364,
                "pitch": 95,
                "velocity": 25,
                "duration": 0.1363636,
                "tempo": 120.0
            }
        ],
        "Acoustic Bass": [
            {
                "start_time": 0.0113636,
                "end_time": 0.1659091,
                "pitch": 27,
                "velocity": 51,
                "duration": 0.1545455,
                "tempo": 120.0
            },
            {
                "start_time": 0.1659091,
                "end_time": 0.4909091,
                "pitch": 29,
                "velocity": 51,
                "duration": 0.325,
                "tempo": 120.0
            },
            {
                "start_time": 0.4909091,
                "end_time": 0.6727273,
                "pitch": 31,
                "velocity": 51,
                "duration": 0.1818182,
                "tempo": 120.0
            },
            {
                "start_time": 0.6727273,
                "end_time": 0.8727273,
                "pitch": 33,
                "velocity": 51,
                "duration": 0.2,
                "tempo": 120.0
            },
            {
                "start_time": 0.8727273,
                "end_time": 1.2227273,
                "pitch": 35,
                "velocity": 51,
                "duration": 0.35,
                "tempo": 120.0
            },
            {
                "start_time": 1.2409091,
                "end_time": 1.3727273,
                "pitch": 48,
                "velocity": 51,
                "duration": 0.1318182,
                "tempo": 120.0
            },
            {
                "start_time": 1.3909091,
                "end_time": 1.5227273,
                "pitch": 36,
                "velocity": 51,
                "duration": 0.1318182,
                "tempo": 120.0
            },
            {
                "start_time": 1.5409091,
                "end_time": 1.6727273,
                "pitch": 48,
                "velocity": 51,
                "duration": 0.1318182,
                "tempo": 120.0
            },
            {
                "start_time": 1.6909091,
                "end_time": 1.8227273,
                "pitch": 36,
                "velocity": 51,
                "duration": 0.1318182,
                "tempo": 120.0
            },
            {
                "start_time": 1.8409091,
                "end_time": 1.9727273,
                "pitch": 48,
                "velocity": 51,
                "duration": 0.1318182,
                "tempo": 120.0
            },
            {
                "start_time": 1.9909091,
                "end_time": 2.125,
                "pitch": 36,
                "velocity": 51,
                "duration": 0.1340909,
                "tempo": 120.0
            },
            {
                "start_time": 2.1409091,
                "end_time": 2.2772727,
                "pitch": 48,
                "velocity": 51,
                "duration": 0.1363636,
                "tempo": 120.0
            },
            {
                "start_time": 2.2931818,
                "end_time": 2.4272727,
                "pitch": 36,
                "velocity": 51,
                "duration": 0.1340909,
                "tempo": 120.0
            },
            {
                "start_time": 2.4454545,
                "end_time": 2.5795455,
                "pitch": 48,
                "velocity": 51,
                "duration": 0.1340909,
                "tempo": 120.0
            },
            {
                "start_time": 2.5954545,
                "end_time": 2.7318182,
                "pitch": 36,
                "velocity": 51,
                "duration": 0.1363636,
                "tempo": 120.0
            },
            {
                "start_time": 2.7477273,
                "end_time": 2.8818182,
                "pitch": 48,
                "velocity": 51,
                "duration": 0.1340909,
                "tempo": 120.0
            },
            {
                "start_time": 2.9,
                "end_time": 3.0340909,
                "pitch": 36,
                "velocity": 51,
                "duration": 0.1340909,
                "tempo": 120.0
            },
            {
                "start_time": 3.05,
                "end_time": 3.1863636,
                "pitch": 48,
                "velocity": 51,
                "duration": 0.1363636,
                "tempo": 120.0
            },
            {
                "start_time": 3.2022727,
                "end_time": 3.3363636,
                "pitch": 38,
                "velocity": 51,
                "duration": 0.1340909,
                "tempo": 120.0
            },
            {
                "start_time": 3.3522727,
                "end_time": 3.4863636,
                "pitch": 50,
                "velocity": 51,
                "duration": 0.1340909,
                "tempo": 120.0
            },
            {
                "start_time": 3.5022727,
                "end_time": 3.6363636,
                "pitch": 39,
                "velocity": 51,
                "duration": 0.1340909,
                "tempo": 120.0
            },
            {
                "start_time": 3.6522727,
                "end_time": 3.7863636,
                "pitch": 51,
                "velocity": 51,
                "duration": 0.1340909,
                "tempo": 120.0
            },
            {
                "start_time": 3.8022727,
                "end_time": 3.9363636,
                "pitch": 39,
                "velocity": 51,
                "duration": 0.1340909,
                "tempo": 120.0
            },
            {
                "start_time": 3.9545455,
                "end_time": 4.0886364,
                "pitch": 51,
                "velocity": 51,
                "duration": 0.1340909,
                "tempo": 120.0
            },
            {
                "start_time": 4.1045455,
                "end_time": 4.2409091,
                "pitch": 39,
                "velocity": 51,
                "duration": 0.1363636,
                "tempo": 120.0
            },
            {
                "start_time": 4.2568182,
                "end_time": 4.3909091,
                "pitch": 51,
                "velocity": 51,
                "duration": 0.1340909,
                "tempo": 120.0
            },
            {
                "start_time": 4.4090909,
                "end_time": 4.5431818,
                "pitch": 39,
                "velocity": 51,
                "duration": 0.1340909,
                "tempo": 120.0
            },
            {
                "start_time": 4.5590909,
                "end_time": 4.6954545,
                "pitch": 51,
                "velocity": 51,
                "duration": 0.1363636,
                "tempo": 120.0
            },
            {
                "start_time": 4.7113636,
                "end_time": 4.8454545,
                "pitch": 39,
                "velocity": 51,
                "duration": 0.1340909,
                "tempo": 120.0
            },
            {
                "start_time": 4.8636364,
                "end_time": 4.9977273,
                "pitch": 53,
                "velocity": 51,
                "duration": 0.1340909,
                "tempo": 120.0
            },
            {
                "start_time": 5.0136364,
                "end_time": 5.15,
                "pitch": 39,
                "velocity": 51,
                "duration": 0.1363636,
                "tempo": 120.0
            },
            {
                "start_time": 5.1681818,
                "end_time": 5.3022727,
                "pitch": 51,
                "velocity": 51,
                "duration": 0.1340909,
                "tempo": 120.0
            },
            {
                "start_time": 5.3204545,
                "end_time": 5.4568182,
                "pitch": 39,
                "velocity": 51,
                "duration": 0.1363636,
                "tempo": 120.0
            },
            {
                "start_time": 5.4727273,
                "end_time": 5.6090909,
                "pitch": 53,
                "velocity": 51,
                "duration": 0.1363636,
                "tempo": 120.0
            },
            {
                "start_time": 5.6272727,
                "end_time": 5.7613636,
                "pitch": 38,
                "velocity": 51,
                "duration": 0.1340909,
                "tempo": 120.0
            },
            {
                "start_time": 5.7772727,
                "end_time": 5.9136364,
                "pitch": 27,
                "velocity": 51,
                "duration": 0.1363636,
                "tempo": 120.0
            },
            {
                "start_time": 5.9295455,
                "end_time": 6.0636364,
                "pitch": 43,
                "velocity": 51,
                "duration": 0.1340909,
                "tempo": 120.0
            },
            {
                "start_time": 6.0818182,
                "end_time": 6.2159091,
                "pitch": 55,
                "velocity": 51,
                "duration": 0.1340909,
                "tempo": 120.0
            },
            {
                "start_time": 6.2318182,
                "end_time": 6.3636364,
                "pitch": 43,
                "velocity": 51,
                "duration": 0.1318182,
                "tempo": 120.0
            },
            {
                "start_time": 6.3818182,
                "end_time": 6.5136364,
                "pitch": 53,
                "velocity": 51,
                "duration": 0.1318182,
                "tempo": 120.0
            },
            {
                "start_time": 6.5295455,
                "end_time": 6.6613636,
                "pitch": 43,
                "velocity": 51,
                "duration": 0.1318182,
                "tempo": 120.0
            },
            {
                "start_time": 6.6772727,
                "end_time": 6.8090909,
                "pitch": 50,
                "velocity": 51,
                "duration": 0.1318182,
                "tempo": 120.0
            },
            {
                "start_time": 6.8272727,
                "end_time": 6.9590909,
                "pitch": 43,
                "velocity": 51,
                "duration": 0.1318182,
                "tempo": 120.0
            },
            {
                "start_time": 6.9772727,
                "end_time": 7.1090909,
                "pitch": 47,
                "velocity": 51,
                "duration": 0.1318182,
                "tempo": 120.0
            },
            {
                "start_time": 7.1272727,
                "end_time": 7.2590909,
                "pitch": 43,
                "velocity": 51,
                "duration": 0.1318182,
                "tempo": 120.0
            },
            {
                "start_time": 7.2772727,
                "end_time": 7.4090909,
                "pitch": 55,
                "velocity": 51,
                "duration": 0.1318182,
                "tempo": 120.0
            },
            {
                "start_time": 7.4272727,
                "end_time": 7.5613636,
                "pitch": 43,
                "velocity": 51,
                "duration": 0.1340909,
                "tempo": 120.0
            },
            {
                "start_time": 7.5772727,
                "end_time": 7.7136364,
                "pitch": 53,
                "velocity": 51,
                "duration": 0.1363636,
                "tempo": 120.0
            },
            {
                "start_time": 7.7295455,
                "end_time": 7.8636364,
                "pitch": 43,
                "velocity": 51,
                "duration": 0.1340909,
                "tempo": 120.0
            },
            {
                "start_time": 7.8818182,
                "end_time": 8.0159091,
                "pitch": 55,
                "velocity": 51,
                "duration": 0.1340909,
                "tempo": 120.0
            },
            {
                "start_time": 8.0318182,
                "end_time": 8.1659091,
                "pitch": 43,
                "velocity": 51,
                "duration": 0.1340909,
                "tempo": 120.0
            },
            {
                "start_time": 8.1818182,
                "end_time": 8.3159091,
                "pitch": 53,
                "velocity": 51,
                "duration": 0.1340909,
                "tempo": 120.0
            },
            {
                "start_time": 8.3318182,
                "end_time": 8.4659091,
                "pitch": 41,
                "velocity": 51,
                "duration": 0.1340909,
                "tempo": 120.0
            },
            {
                "start_time": 8.4818182,
                "end_time": 8.6159091,
                "pitch": 53,
                "velocity": 51,
                "duration": 0.1340909,
                "tempo": 120.0
            },
            {
                "start_time": 8.6318182,
                "end_time": 8.7659091,
                "pitch": 41,
                "velocity": 51,
                "duration": 0.1340909,
                "tempo": 120.0
            },
            {
                "start_time": 8.7818182,
                "end_time": 8.9159091,
                "pitch": 50,
                "velocity": 51,
                "duration": 0.1340909,
                "tempo": 120.0
            },
            {
                "start_time": 8.9318182,
                "end_time": 9.0659091,
                "pitch": 41,
                "velocity": 51,
                "duration": 0.1340909,
                "tempo": 120.0
            },
            {
                "start_time": 9.0818182,
                "end_time": 9.2159091,
                "pitch": 48,
                "velocity": 51,
                "duration": 0.1340909,
                "tempo": 120.0
            },
            {
                "start_time": 9.2318182,
                "end_time": 9.3659091,
                "pitch": 41,
                "velocity": 51,
                "duration": 0.1340909,
                "tempo": 120.0
            },
            {
                "start_time": 9.3818182,
                "end_time": 9.5159091,
                "pitch": 45,
                "velocity": 51,
                "duration": 0.1340909,
                "tempo": 120.0
            },
            {
                "start_time": 9.5318182,
                "end_time": 9.6659091,
                "pitch": 41,
                "velocity": 51,
                "duration": 0.1340909,
                "tempo": 120.0
            },
            {
                "start_time": 9.6818182,
                "end_time": 9.8159091,
                "pitch": 53,
                "velocity": 51,
                "duration": 0.1340909,
                "tempo": 120.0
            },
            {
                "start_time": 9.8318182,
                "end_time": 9.9681818,
                "pitch": 41,
                "velocity": 51,
                "duration": 0.1363636,
                "tempo": 120.0
            },
            {
                "start_time": 9.9840909,
                "end_time": 10.1181818,
                "pitch": 57,
                "velocity": 51,
                "duration": 0.1340909,
                "tempo": 120.0
            },
            {
                "start_time": 10.1363636,
                "end_time": 10.2704545,
                "pitch": 41,
                "velocity": 51,
                "duration": 0.1340909,
                "tempo": 120.0
            },
            {
                "start_time": 10.2863636,
                "end_time": 10.4227273,
                "pitch": 53,
                "velocity": 51,
                "duration": 0.1363636,
                "tempo": 120.0
            },
            {
                "start_time": 10.4386364,
                "end_time": 10.5727273,
                "pitch": 41,
                "velocity": 51,
                "duration": 0.1340909,
                "tempo": 120.0
            },
            {
                "start_time": 10.5886364,
                "end_time": 10.7227273,
                "pitch": 57,
                "velocity": 51,
                "duration": 0.1340909,
                "tempo": 120.0
            },
            {
                "start_time": 10.7386364,
                "end_time": 10.8727273,
                "pitch": 43,
                "velocity": 51,
                "duration": 0.1340909,
                "tempo": 120.0
            },
            {
                "start_time": 10.8886364,
                "end_time": 11.0227273,
                "pitch": 55,
                "velocity": 51,
                "duration": 0.1340909,
                "tempo": 120.0
            },
            {
                "start_time": 11.0386364,
                "end_time": 11.1727273,
                "pitch": 43,
                "velocity": 51,
                "duration": 0.1340909,
                "tempo": 120.0
            },
            {
                "start_time": 11.1886364,
                "end_time": 11.3227273,
                "pitch": 53,
                "velocity": 51,
                "duration": 0.1340909,
                "tempo": 120.0
            },
            {
                "start_time": 11.3386364,
                "end_time": 11.4727273,
                "pitch": 43,
                "velocity": 51,
                "duration": 0.1340909,
                "tempo": 120.0
            },
            {
                "start_time": 11.4886364,
                "end_time": 11.6227273,
                "pitch": 50,
                "velocity": 51,
                "duration": 0.1340909,
                "tempo": 120.0
            },
            {
                "start_time": 11.6386364,
                "end_time": 11.7727273,
                "pitch": 43,
                "velocity": 51,
                "duration": 0.1340909,
                "tempo": 120.0
            },
            {
                "start_time": 11.7886364,
                "end_time": 11.9227273,
                "pitch": 47,
                "velocity": 51,
                "duration": 0.1340909,
                "tempo": 120.0
            },
            {
                "start_time": 11.9386364,
                "end_time": 12.0727273,
                "pitch": 43,
                "velocity": 51,
                "duration": 0.1340909,
                "tempo": 120.0
            },
            {
                "start_time": 12.0886364,
                "end_time": 12.2227273,
                "pitch": 55,
                "velocity": 51,
                "duration": 0.1340909,
                "tempo": 120.0
            },
            {
                "start_time": 12.2386364,
                "end_time": 12.3727273,
                "pitch": 43,
                "velocity": 51,
                "duration": 0.1340909,
                "tempo": 120.0
            },
            {
                "start_time": 12.3886364,
                "end_time": 12.5227273,
                "pitch": 53,
                "velocity": 51,
                "duration": 0.1340909,
                "tempo": 120.0
            },
            {
                "start_time": 12.5386364,
                "end_time": 12.6727273,
                "pitch": 43,
                "velocity": 51,
                "duration": 0.1340909,
                "tempo": 120.0
            },
            {
                "start_time": 12.6886364,
                "end_time": 12.8227273,
                "pitch": 55,
                "velocity": 51,
                "duration": 0.1340909,
                "tempo": 120.0
            },
            {
                "start_time": 12.8386364,
                "end_time": 12.9727273,
                "pitch": 43,
                "velocity": 51,
                "duration": 0.1340909,
                "tempo": 120.0
            },
            {
                "start_time": 12.9909091,
                "end_time": 13.125,
                "pitch": 53,
                "velocity": 51,
                "duration": 0.1340909,
                "tempo": 120.0
            },
            {
                "start_time": 13.1409091,
                "end_time": 13.2772727,
                "pitch": 41,
                "velocity": 51,
                "duration": 0.1363636,
                "tempo": 120.0
            },
            {
                "start_time": 13.2931818,
                "end_time": 13.3272727,
                "pitch": 41,
                "velocity": 51,
                "duration": 0.0340909,
                "tempo": 120.0
            },
            {
                "start_time": 13.8954545,
                "end_time": 14.0272727,
                "pitch": 41,
                "velocity": 51,
                "duration": 0.1318182,
                "tempo": 120.0
            },
            {
                "start_time": 14.0454545,
                "end_time": 14.3340909,
                "pitch": 41,
                "velocity": 51,
                "duration": 0.2886364,
                "tempo": 120.0
            },
            {
                "start_time": 14.35,
                "end_time": 14.6409091,
                "pitch": 43,
                "velocity": 51,
                "duration": 0.2909091,
                "tempo": 120.0
            },
            {
                "start_time": 14.6568182,
                "end_time": 14.9363636,
                "pitch": 43,
                "velocity": 51,
                "duration": 0.2795455,
                "tempo": 120.0
            },
            {
                "start_time": 14.9545455,
                "end_time": 15.2340909,
                "pitch": 43,
                "velocity": 51,
                "duration": 0.2795455,
                "tempo": 120.0
            },
            {
                "start_time": 15.25,
                "end_time": 15.5386364,
                "pitch": 43,
                "velocity": 51,
                "duration": 0.2886364,
                "tempo": 120.0
            },
            {
                "start_time": 15.5568182,
                "end_time": 15.6931818,
                "pitch": 36,
                "velocity": 51,
                "duration": 0.1363636,
                "tempo": 120.0
            },
            {
                "start_time": 15.7090909,
                "end_time": 15.8454545,
                "pitch": 48,
                "velocity": 51,
                "duration": 0.1363636,
                "tempo": 120.0
            },
            {
                "start_time": 15.8636364,
                "end_time": 15.9954545,
                "pitch": 36,
                "velocity": 51,
                "duration": 0.1318182,
                "tempo": 120.0
            },
            {
                "start_time": 16.0113636,
                "end_time": 16.1113636,
                "pitch": 48,
                "velocity": 51,
                "duration": 0.1,
                "tempo": 120.0
            }
        ],
        "Flute": [
            {
                "start_time": 0.0545455,
                "end_time": 0.2727273,
                "pitch": 63,
                "velocity": 51,
                "duration": 0.2181818,
                "tempo": 120.0
            },
            {
                "start_time": 0.2727273,
                "end_time": 0.5727273,
                "pitch": 65,
                "velocity": 51,
                "duration": 0.3,
                "tempo": 120.0
            },
            {
                "start_time": 0.5727273,
                "end_time": 0.7568182,
                "pitch": 67,
                "velocity": 51,
                "duration": 0.1840909,
                "tempo": 120.0
            },
            {
                "start_time": 0.7568182,
                "end_time": 0.9568182,
                "pitch": 69,
                "velocity": 51,
                "duration": 0.2,
                "tempo": 120.0
            }
        ],
        "Acoustic Grand Piano": [
            {
                "start_time": 0.0545455,
                "end_time": 0.2727273,
                "pitch": 63,
                "velocity": 25,
                "duration": 0.2181818,
                "tempo": 120.0
            },
            {
                "start_time": 0.2727273,
                "end_time": 0.5727273,
                "pitch": 65,
                "velocity": 25,
                "duration": 0.3,
                "tempo": 120.0
            },
            {
                "start_time": 0.5727273,
                "end_time": 0.7568182,
                "pitch": 67,
                "velocity": 25,
                "duration": 0.1840909,
                "tempo": 120.0
            },
            {
                "start_time": 0.7568182,
                "end_time": 0.9568182,
                "pitch": 69,
                "velocity": 25,
                "duration": 0.2,
                "tempo": 120.0
            }
        ]
    }
}