{
    "mood": "happy",
    "instruments": {
        "Trumpet": [
            {
                "start_time": 0.0113636,
                "end_time": 0.0772727,
                "pitch": 82,
                "velocity": 51,
                "duration": 0.0659091,
                "tempo": 120.0
            },
            {
                "start_time": 0.0886364,
                "end_time": 0.1113636,
                "pitch": 82,
                "velocity": 51,
                "duration": 0.0227273,
                "tempo": 120.0
            },
            {
                "start_time": 0.6363636,
                "end_time": 0.7681818,
                "pitch": 82,
                "velocity": 51,
                "duration": 0.1318182,
                "tempo": 120.0
            },
            {
                "start_time": 0.7840909,
                "end_time": 0.9204545,
                "pitch": 82,
                "velocity": 51,
                "duration": 0.1363636,
                "tempo": 120.0
            },
            {
                "start_time": 0.9363636,
                "end_time": 1.0727273,
                "pitch": 82,
                "velocity": 51,
                "duration": 0.1363636,
                "tempo": 120.0
            },
            {
                "start_time": 1.0909091,
                "end_time": 1.6772727,
                "pitch": 82,
                "velocity": 51,
                "duration": 0.5863636,
                "tempo": 120.0
            },
            {
                "start_time": 2.2954545,
                "end_time": 2.4318182,
                "pitch": 84,
                "velocity": 51,
                "duration": 0.1363636,
                "tempo": 120.0
            },
            {
                "start_time": 2.45,
                "end_time": 2.4840909,
                "pitch": 84,
                "velocity": 51,
                "duration": 0.0340909,
                "tempo": 120.0
            },
            {
                "start_time": 3.0477273,
                "end_time": 3.1795455,
                "pitch": 84,
                "velocity": 51,
                "duration": 0.1318182,
                "tempo": 120.0
            },
            {
                "start_time": 3.1954545,
                "end_time": 3.3318182,
                "pitch": 84,
                "velocity": 51,
                "duration": 0.1363636,
                "tempo": 120.0
            },
            {
                "start_time": 3.35,
                "end_time": 3.4840909,
                "pitch": 84,
                "velocity": 51,
                "duration": 0.1340909,
                "tempo": 120.0
            },
            {
                "start_time": 3.5022727,
                "end_time": 4.3863636,
                "pitch": 84,
                "velocity": 51,
                "duration": 0.8840909,
                "tempo": 120.0
            },
            {
                "start_time": 4.4022727,
                "end_time": 4.6909091,
                "pitch": 86,
                "velocity": 51,
                "duration": 0.2886364,
                "tempo": 120.0
            },
            {
                "start_time": 4.7068182,
                "end_time": 4.9977273,
                "pitch": 87,
                "velocity": 51,
                "duration": 0.2909091,
                "tempo": 120.0
            },
            {
                "start_time": 5.0136364,
                "end_time": 5.0636364,
                "pitch": 87,
                "velocity": 51,
                "duration": 0.05,
                "tempo": 120.0
            },
            {
                "start_time": 5.4636364,
                "end_time": 5.5977273,
                "pitch": 87,
                "velocity": 51,
                "duration": 0.1340909,
                "tempo": 120.0
            },
            {
                "start_time": 5.6136364,
                "end_time": 5.8954545,
                "pitch": 87,
                "velocity": 51,
                "duration": 0.2818182,
                "tempo": 120.0
            },
            {
                "start_time": 5.9113636,
                "end_time": 6.1909091,
                "pitch": 80,
                "velocity": 51,
                "duration": 0.2795455,
                "tempo": 120.0
            },
            {
                "start_time": 6.2090909,
                "end_time": 6.4954545,
                "pitch": 80,
                "velocity": 51,
                "duration": 0.2863636,
                "tempo": 120.0
            },
            {
                "start_time": 6.5113636,
                "end_time": 6.7977273,
                "pitch": 80,
                "velocity": 51,
                "duration": 0.2863636,
                "tempo": 120.0
            },
            {
                "start_time": 6.8136364,
                "end_time": 6.95,
                "pitch": 80,
                "velocity": 51,
                "duration": 0.1363636,
                "tempo": 120.0
            },
            {
                "start_time": 6.9681818,
                "end_time": 8.3090909,
                "pitch": 82,
                "velocity": 51,
                "duration": 1.3409091,
                "tempo": 120.0
            },
            {
                "start_time": 9.5272727,
                "end_time": 9.6590909,
                "pitch": 82,
                "velocity": 51,
                "duration": 0.1318182,
                "tempo": 120.0
            },
            {
                "start_time": 9.6772727,
                "end_time": 9.7090909,
                "pitch": 82,
                "velocity": 51,
                "duration": 0.0318182,
                "tempo": 120.0
            },
            {
                "start_time": 10.2818182,
                "end_time": 10.4159091,
                "pitch": 82,
                "velocity": 51,
                "duration": 0.1340909,
                "tempo": 120.0
            },
            {
                "start_time": 10.4318182,
                "end_time": 10.5681818,
                "pitch": 82,
                "velocity": 51,
                "duration": 0.1363636,
                "tempo": 120.0
            },
            {
                "start_time": 10.5863636,
                "end_time": 10.7227273,
                "pitch": 82,
                "velocity": 51,
                "duration": 0.1363636,
                "tempo": 120.0
            },
            {
                "start_time": 10.7386364,
                "end_time": 11.325,
                "pitch": 82,
                "velocity": 51,
                "duration": 0.5863636,
                "tempo": 120.0
            },
            {
                "start_time": 11.9454545,
                "end_time": 12.0818182,
                "pitch": 84,
                "velocity": 51,
                "duration": 0.1363636,
                "tempo": 120.0
            },
            {
                "start_time": 12.0977273,
                "end_time": 12.1318182,
                "pitch": 84,
                "velocity": 51,
                "duration": 0.0340909,
                "tempo": 120.0
            },
            {
                "start_time": 12.6954545,
                "end_time": 12.8272727,
                "pitch": 84,
                "velocity": 51,
                "duration": 0.1318182,
                "tempo": 120.0
            },
            {
                "start_time": 12.8454545,
                "end_time": 12.9795455,
                "pitch": 84,
                "velocity": 51,
                "duration": 0.1340909,
                "tempo": 120.0
            },
            {
                "start_time": 12.9977273,
                "end_time": 13.1340909,
                "pitch": 84,
                "velocity": 51,
                "duration": 0.1363636,
                "tempo": 120.0
            },
            {
                "start_time": 13.15,
                "end_time": 14.0340909,
                "pitch": 84,
                "velocity": 51,
                "duration": 0.8840909,
                "tempo": 120.0
            },
            {
                "start_time": 14.05,
                "end_time": 14.3386364,
                "pitch": 86,
                "velocity": 51,
                "duration": 0.2886364,
                "tempo": 120.0
            },
            {
                "start_time": 14.3568182,
                "end_time": 14.6454545,
                "pitch": 87,
                "velocity": 51,
                "duration": 0.2886364,
                "tempo": 120.0
            },
            {
                "start_time": 14.6636364,
                "end_time": 14.7113636,
                "pitch": 87,
                "velocity": 51,
                "duration": 0.0477273,
                "tempo": 120.0
            },
            {
                "start_time": 15.1090909,
                "end_time": 15.2409091,
                "pitch": 87,
                "velocity": 51,
                "duration": 0.1318182,
                "tempo": 120.0
            },
            {
                "start_time": 15.2568182,
                "end_time": 15.5454545,
                "pitch": 87,
                "velocity": 51,
                "duration": 0.2886364,
                "tempo": 120.0
            },
            {
                "start_time": 15.5636364,
                "end_time": 15.8522727,
                "pitch": 80,
                "velocity": 51,
                "duration": 0.2886364,
                "tempo": 120.0
            },
            {
                "start_time": 15.8681818,
                "end_time": 16.15,
                "pitch": 80,
                "velocity": 51,
                "duration": 0.2818182,
                "tempo": 120.0
            },
            {
                "start_time": 16.1659091,
                "end_time": 16.4454545,
                "pitch": 80,
                "velocity": 51,
                "duration": 0.2795455,
                "tempo": 120.0
            },
            {
                "start_time": 16.4636364,
                "end_time": 16.5954545,
                "pitch": 80,
                "velocity": 51,
                "duration": 0.1318182,
                "tempo": 120.0
            },
            {
                "start_time": 16.6136364,
                "end_time": 17.6454545,
                "pitch": 82,
                "velocity": 51,
                "duration": 1.0318182,
                "tempo": 120.0
            },
            {
                "start_time": 17.6636364,
                "end_time": 17.9522727,
                "pitch": 82,
                "velocity": 51,
                "duration": 0.2886364,
                "tempo": 120.0
            },
            {
                "start_time": 17.9681818,
                "end_time": 18.1045455,
                "pitch": 82,
                "velocity": 51,
                "duration": 0.1363636,
                "tempo": 120.0
            },
            {
                "start_time": 57.8136364,
                "end_time": 57.95,
                "pitch": 82,
                "velocity": 51,
                "duration": 0.1363636,
                "tempo": 120.0
            },
            {
                "start_time": 57.9659091,
                "end_time": 58.0,
                "pitch": 82,
                "velocity": 51,
                "duration": 0.0340909,
                "tempo": 120.0
            }
        ],
        "French Horn": [
            {
                "start_time": 19.175,
                "end_time": 19.4636364,
                "pitch": 82,
                "velocity": 80,
                "duration": 0.2886364,
                "tempo": 120.0
            },
            {
                "start_time": 19.4818182,
                "end_time": 19.7613636,
                "pitch": 82,
                "velocity": 80,
                "duration": 0.2795455,
                "tempo": 120.0
            },
            {
                "start_time": 19.7772727,
                "end_time": 19.9090909,
                "pitch": 82,
                "velocity": 80,
                "duration": 0.1318182,
                "tempo": 120.0
            },
            {
                "start_time": 19.9272727,
                "end_time": 20.3590909,
                "pitch": 79,
                "velocity": 80,
                "duration": 0.4318182,
                "tempo": 120.0
            },
            {
                "start_time": 20.375,
                "end_time": 20.6590909,
                "pitch": 75,
                "velocity": 80,
                "duration": 0.2840909,
                "tempo": 120.0
            },
            {
                "start_time": 20.675,
                "end_time": 20.9636364,
                "pitch": 75,
                "velocity": 80,
                "duration": 0.2886364,
                "tempo": 120.0
            },
            {
                "start_time": 20.9818182,
                "end_time": 21.1159091,
                "pitch": 74,
                "velocity": 80,
                "duration": 0.1340909,
                "tempo": 120.0
            },
            {
                "start_time": 21.1340909,
                "end_time": 21.5681818,
                "pitch": 75,
                "velocity": 80,
                "duration": 0.4340909,
                "tempo": 120.0
            },
            {
                "start_time": 21.5840909,
                "end_time": 22.6159091,
                "pitch": 77,
                "velocity": 80,
                "duration": 1.0318182,
                "tempo": 120.0
            },
            {
                "start_time": 22.6318182,
                "end_time": 22.7681818,
                "pitch": 74,
                "velocity": 80,
                "duration": 0.1363636,
                "tempo": 120.0
            },
            {
                "start_time": 22.7840909,
                "end_time": 23.9795455,
                "pitch": 70,
                "velocity": 80,
                "duration": 1.1954545,
                "tempo": 120.0
            },
            {
                "start_time": 23.9954545,
                "end_time": 24.2772727,
                "pitch": 75,
                "velocity": 80,
                "duration": 0.2818182,
                "tempo": 120.0
            },
            {
                "start_time": 24.2931818,
                "end_time": 24.5795455,
                "pitch": 75,
                "velocity": 80,
                "duration": 0.2863636,
                "tempo": 120.0
            },
            {
                "start_time": 24.5954545,
                "end_time": 24.7318182,
                "pitch": 75,
                "velocity": 80,
                "duration": 0.1363636,
                "tempo": 120.0
            },
            {
                "start_time": 24.7477273,
                "end_time": 25.1818182,
                "pitch": 74,
                "velocity": 80,
                "duration": 0.4340909,
                "tempo": 120.0
            },
            {
                "start_time": 25.2,
                "end_time": 25.4818182,
                "pitch": 72,
                "velocity": 80,
                "duration": 0.2818182,
                "tempo": 120.0
            },
            {
                "start_time": 25.5,
                "end_time": 25.7886364,
                "pitch": 72,
                "velocity": 80,
                "duration": 0.2886364,
                "tempo": 120.0
            },
            {
                "start_time": 25.8045455,
                "end_time": 25.9409091,
                "pitch": 74,
                "velocity": 80,
                "duration": 0.1363636,
                "tempo": 120.0
            },
            {
                "start_time": 25.9590909,
                "end_time": 26.3909091,
                "pitch": 75,
                "velocity": 80,
                "duration": 0.4318182,
                "tempo": 120.0
            },
            {
                "start_time": 26.4090909,
                "end_time": 27.3,
                "pitch": 77,
                "velocity": 80,
                "duration": 0.8909091,
                "tempo": 120.0
            },
            {
                "start_time": 27.3181818,
                "end_time": 27.5977273,
                "pitch": 75,
                "velocity": 80,
                "duration": 0.2795455,
                "tempo": 120.0
            },
            {
                "start_time": 27.6136364,
                "end_time": 28.3613636,
                "pitch": 77,
                "velocity": 80,
                "duration": 0.7477273,
                "tempo": 120.0
            },
            {
                "start_time": 28.8136364,
                "end_time": 29.1,
                "pitch": 82,
                "velocity": 80,
                "duration": 0.2863636,
                "tempo": 120.0
            },
            {
                "start_time": 29.1181818,
                "end_time": 29.4,
                "pitch": 82,
                "velocity": 80,
                "duration": 0.2818182,
                "tempo": 120.0
            },
            {
                "start_time": 29.4181818,
                "end_time": 29.55,
                "pitch": 82,
                "velocity": 80,
                "duration": 0.1318182,
                "tempo": 120.0
            },
            {
                "start_time": 29.5681818,
                "end_time": 30.0045455,
                "pitch": 79,
                "velocity": 80,
                "duration": 0.4363636,
                "tempo": 120.0
            },
            {
                "start_time": 30.0204545,
                "end_time": 30.3068182,
                "pitch": 75,
                "velocity": 80,
                "duration": 0.2863636,
                "tempo": 120.0
            },
            {
                "start_time": 30.3227273,
                "end_time": 30.6090909,
                "pitch": 75,
                "velocity": 80,
                "duration": 0.2863636,
                "tempo": 120.0
            },
            {
                "start_time": 30.6272727,
                "end_time": 30.7613636,
                "pitch": 74,
                "velocity": 80,
                "duration": 0.1340909,
                "tempo": 120.0
            },
            {
                "start_time": 30.7772727,
                "end_time": 31.2136364,
                "pitch": 75,
                "velocity": 80,
                "duration": 0.4363636,
                "tempo": 120.0
            },
            {
                "start_time": 31.2295455,
                "end_time": 32.2681818,
                "pitch": 77,
                "velocity": 80,
                "duration": 1.0386364,
                "tempo": 120.0
            },
            {
                "start_time": 32.2863636,
                "end_time": 32.4181818,
                "pitch": 74,
                "velocity": 80,
                "duration": 0.1318182,
                "tempo": 120.0
            },
            {
                "start_time": 32.4363636,
                "end_time": 33.6272727,
                "pitch": 70,
                "velocity": 80,
                "duration": 1.1909091,
                "tempo": 120.0
            },
            {
                "start_time": 33.6454545,
                "end_time": 34.2272727,
                "pitch": 72,
                "velocity": 80,
                "duration": 0.5818182,
                "tempo": 120.0
            },
            {
                "start_time": 34.2454545,
                "end_time": 34.5318182,
                "pitch": 77,
                "velocity": 80,
                "duration": 0.2863636,
                "tempo": 120.0
            },
            {
                "start_time": 34.5477273,
                "end_time": 34.8318182,
                "pitch": 75,
                "velocity": 80,
                "duration": 0.2840909,
                "tempo": 120.0
            },
            {
                "start_time": 34.8477273,
                "end_time": 35.4363636,
                "pitch": 74,
                "velocity": 80,
                "duration": 0.5886364,
                "tempo": 120.0
            },
            {
                "start_time": 35.4545455,
                "end_time": 35.7431818,
                "pitch": 74,
                "velocity": 80,
                "duration": 0.2886364,
                "tempo": 120.0
            },
            {
                "start_time": 35.7590909,
                "end_time": 36.0409091,
                "pitch": 77,
                "velocity": 80,
                "duration": 0.2818182,
                "tempo": 120.0
            },
            {
                "start_time": 36.0568182,
                "end_time": 37.2454545,
                "pitch": 75,
                "velocity": 80,
                "duration": 1.1886364,
                "tempo": 120.0
            },
            {
                "start_time": 38.0340909,
                "end_time": 38.1727273,
                "pitch": 75,
                "velocity": 80,
                "duration": 0.1386364,
                "tempo": 120.0
            },
            {
                "start_time": 38.1909091,
                "end_time": 38.3227273,
                "pitch": 77,
                "velocity": 80,
                "duration": 0.1318182,
                "tempo": 120.0
            },
            {
                "start_time": 38.3386364,
                "end_time": 38.4704545,
                "pitch": 78,
                "velocity": 80,
                "duration": 0.1318182,
                "tempo": 120.0
            },
            {
                "start_time": 38.4886364,
                "end_time": 38.7681818,
                "pitch": 82,
                "velocity": 80,
                "duration": 0.2795455,
                "tempo": 120.0
            },
            {
                "start_time": 38.7840909,
                "end_time": 39.0659091,
                "pitch": 82,
                "velocity": 80,
                "duration": 0.2818182,
                "tempo": 120.0
            },
            {
                "start_time": 39.0818182,
                "end_time": 39.2136364,
                "pitch": 82,
                "velocity": 80,
                "duration": 0.1318182,
                "tempo": 120.0
            },
            {
                "start_time": 39.2295455,
                "end_time": 39.6659091,
                "pitch": 79,
                "velocity": 80,
                "duration": 0.4363636,
                "tempo": 120.0
            },
            {
                "start_time": 39.6818182,
                "end_time": 39.9681818,
                "pitch": 75,
                "velocity": 80,
                "duration": 0.2863636,
                "tempo": 120.0
            },
            {
                "start_time": 39.9840909,
                "end_time": 40.2704545,
                "pitch": 75,
                "velocity": 80,
                "duration": 0.2863636,
                "tempo": 120.0
            },
            {
                "start_time": 40.2886364,
                "end_time": 40.4227273,
                "pitch": 74,
                "velocity": 80,
                "duration": 0.1340909,
                "tempo": 120.0
            },
            {
                "start_time": 40.4386364,
                "end_time": 40.875,
                "pitch": 75,
                "velocity": 80,
                "duration": 0.4363636,
                "tempo": 120.0
            },
            {
                "start_time": 40.8909091,
                "end_time": 41.9318182,
                "pitch": 77,
                "velocity": 80,
                "duration": 1.0409091,
                "tempo": 120.0
            },
            {
                "start_time": 41.9477273,
                "end_time": 42.0840909,
                "pitch": 74,
                "velocity": 80,
                "duration": 0.1363636,
                "tempo": 120.0
            },
            {
                "start_time": 42.1,
                "end_time": 43.2954545,
                "pitch": 70,
                "velocity": 80,
                "duration": 1.1954545,
                "tempo": 120.0
            },
            {
                "start_time": 43.3113636,
                "end_time": 43.5931818,
                "pitch": 75,
                "velocity": 80,
                "duration": 0.2818182,
                "tempo": 120.0
            },
            {
                "start_time": 43.6090909,
                "end_time": 43.8931818,
                "pitch": 75,
                "velocity": 80,
                "duration": 0.2840909,
                "tempo": 120.0
            },
            {
                "start_time": 43.9090909,
                "end_time": 44.0431818,
                "pitch": 75,
                "velocity": 80,
                "duration": 0.1340909,
                "tempo": 120.0
            },
            {
                "start_time": 44.0590909,
                "end_time": 44.4954545,
                "pitch": 74,
                "velocity": 80,
                "duration": 0.4363636,
                "tempo": 120.0
            },
            {
                "start_time": 44.5136364,
                "end_time": 44.7977273,
                "pitch": 72,
                "velocity": 80,
                "duration": 0.2840909,
                "tempo": 120.0
            },
            {
                "start_time": 44.8159091,
                "end_time": 45.1045455,
                "pitch": 72,
                "velocity": 80,
                "duration": 0.2886364,
                "tempo": 120.0
            },
            {
                "start_time": 45.1227273,
                "end_time": 45.2568182,
                "pitch": 74,
                "velocity": 80,
                "duration": 0.1340909,
                "tempo": 120.0
            },
            {
                "start_time": 45.275,
                "end_time": 45.7090909,
                "pitch": 75,
                "velocity": 80,
                "duration": 0.4340909,
                "tempo": 120.0
            },
            {
                "start_time": 45.725,
                "end_time": 46.6159091,
                "pitch": 77,
                "velocity": 80,
                "duration": 0.8909091,
                "tempo": 120.0
            },
            {
                "start_time": 46.6340909,
                "end_time": 46.9136364,
                "pitch": 75,
                "velocity": 80,
                "duration": 0.2795455,
                "tempo": 120.0
            },
            {
                "start_time": 46.9318182,
                "end_time": 47.6818182,
                "pitch": 77,
                "velocity": 80,
                "duration": 0.75,
                "tempo": 120.0
            },
            {
                "start_time": 48.1363636,
                "end_time": 48.4227273,
                "pitch": 82,
                "velocity": 80,
                "duration": 0.2863636,
                "tempo": 120.0
            },
            {
                "start_time": 48.4409091,
                "end_time": 48.725,
                "pitch": 82,
                "velocity": 80,
                "duration": 0.2840909,
                "tempo": 120.0
            },
            {
                "start_time": 48.7431818,
                "end_time": 48.8772727,
                "pitch": 82,
                "velocity": 80,
                "duration": 0.1340909,
                "tempo": 120.0
            },
            {
                "start_time": 48.8954545,
                "end_time": 49.3318182,
                "pitch": 79,
                "velocity": 80,
                "duration": 0.4363636,
                "tempo": 120.0
            },
            {
                "start_time": 49.35,
                "end_time": 49.6340909,
                "pitch": 75,
                "velocity": 80,
                "duration": 0.2840909,
                "tempo": 120.0
            },
            {
                "start_time": 49.6522727,
                "end_time": 49.9409091,
                "pitch": 75,
                "velocity": 80,
                "duration": 0.2886364,
                "tempo": 120.0
            },
            {
                "start_time": 49.9590909,
                "end_time": 50.0931818,
                "pitch": 74,
                "velocity": 80,
                "duration": 0.1340909,
                "tempo": 120.0
            },
            {
                "start_time": 50.1113636,
                "end_time": 50.5454545,
                "pitch": 75,
                "velocity": 80,
                "duration": 0.4340909,
                "tempo": 120.0
            },
            {
                "start_time": 50.5613636,
                "end_time": 51.6,
                "pitch": 77,
                "velocity": 80,
                "duration": 1.0386364,
                "tempo": 120.0
            },
            {
                "start_time": 51.6159091,
                "end_time": 51.75,
                "pitch": 74,
                "velocity": 80,
                "duration": 0.1340909,
                "tempo": 120.0
            },
            {
                "start_time": 51.7681818,
                "end_time": 52.9636364,
                "pitch": 70,
                "velocity": 80,
                "duration": 1.1954545,
                "tempo": 120.0
            },
            {
                "start_time": 52.9795455,
                "end_time": 53.5636364,
                "pitch": 72,
                "velocity": 80,
                "duration": 0.5840909,
                "tempo": 120.0
            },
            {
                "start_time": 53.5795455,
                "end_time": 53.8659091,
                "pitch": 77,
                "velocity": 80,
                "duration": 0.2863636,
                "tempo": 120.0
            },
            {
                "start_time": 53.8818182,
                "end_time": 54.1681818,
                "pitch": 75,
                "velocity": 80,
                "duration": 0.2863636,
                "tempo": 120.0
            },
            {
                "start_time": 54.1863636,
                "end_time": 54.7772727,
                "pitch": 74,
                "velocity": 80,
                "duration": 0.5909091,
                "tempo": 120.0
            },
            {
                "start_time": 54.7954545,
                "end_time": 55.0840909,
                "pitch": 74,
                "velocity": 80,
                "duration": 0.2886364,
                "tempo": 120.0
            },
            {
                "start_time": 55.1,
                "end_time": 55.3818182,
                "pitch": 77,
                "velocity": 80,
                "duration": 0.2818182,
                "tempo": 120.0
            },
            {
                "start_time": 55.3977273,
                "end_time": 56.5818182,
                "pitch": 75,
                "velocity": 80,
                "duration": 1.1840909,
                "tempo": 120.0
            },
            {
                "start_time": 57.3545455,
                "end_time": 57.4909091,
                "pitch": 75,
                "velocity": 80,
                "duration": 0.1363636,
                "tempo": 120.0
            },
            {
                "start_time": 57.5068182,
                "end_time": 57.6431818,
                "pitch": 77,
                "velocity": 80,
                "duration": 0.1363636,
                "tempo": 120.0
            },
            {
                "start_time": 57.6590909,
                "end_time": 57.7954545,
                "pitch": 78,
                "velocity": 80,
                "duration": 0.1363636,
                "tempo": 120.0
            }
        ],
        "Acoustic Bass": [
            {
                "start_time": 0.0113636,
                "end_time": 0.0772727,
                "pitch": 51,
                "velocity": 51,
                "duration": 0.0659091,
                "tempo": 120.0
            },
            {
                "start_time": 0.0886364,
                "end_time": 0.1113636,
                "pitch": 51,
                "velocity": 51,
                "duration": 0.0227273,
                "tempo": 120.0
            },
            {
                "start_time": 0.6363636,
                "end_time": 0.7681818,
                "pitch": 46,
                "velocity": 51,
                "duration": 0.1318182,
                "tempo": 120.0
            },
            {
                "start_time": 0.7840909,
                "end_time": 0.9204545,
                "pitch": 51,
                "velocity": 51,
                "duration": 0.1363636,
                "tempo": 120.0
            },
            {
                "start_time": 0.9363636,
                "end_time": 1.0727273,
                "pitch": 46,
                "velocity": 51,
                "duration": 0.1363636,
                "tempo": 120.0
            },
            {
                "start_time": 1.0909091,
                "end_time": 1.825,
                "pitch": 51,
                "velocity": 51,
                "duration": 0.7340909,
                "tempo": 120.0
            },
            {
                "start_time": 1.8409091,
                "end_time": 1.9727273,
                "pitch": 46,
                "velocity": 51,
                "duration": 0.1318182,
                "tempo": 120.0
            },
            {
                "start_time": 1.9909091,
                "end_time": 2.125,
                "pitch": 48,
                "velocity": 51,
                "duration": 0.1340909,
                "tempo": 120.0
            },
            {
                "start_time": 2.1431818,
                "end_time": 2.2795455,
                "pitch": 51,
                "velocity": 51,
                "duration": 0.1363636,
                "tempo": 120.0
            },
            {
                "start_time": 2.2954545,
                "end_time": 2.4318182,
                "pitch": 53,
                "velocity": 51,
                "duration": 0.1363636,
                "tempo": 120.0
            },
            {
                "start_time": 2.45,
                "end_time": 2.4840909,
                "pitch": 53,
                "velocity": 51,
                "duration": 0.0340909,
                "tempo": 120.0
            },
            {
                "start_time": 3.0477273,
                "end_time": 3.1795455,
                "pitch": 53,
                "velocity": 51,
                "duration": 0.1318182,
                "tempo": 120.0
            },
            {
                "start_time": 3.1954545,
                "end_time": 3.3318182,
                "pitch": 48,
                "velocity": 51,
                "duration": 0.1363636,
                "tempo": 120.0
            },
            {
                "start_time": 3.35,
                "end_time": 3.4840909,
                "pitch": 48,
                "velocity": 51,
                "duration": 0.1340909,
                "tempo": 120.0
            },
            {
                "start_time": 3.5022727,
                "end_time": 4.3863636,
                "pitch": 53,
                "velocity": 51,
                "duration": 0.8840909,
                "tempo": 120.0
            },
            {
                "start_time": 4.4022727,
                "end_time": 4.6909091,
                "pitch": 55,
                "velocity": 51,
                "duration": 0.2886364,
                "tempo": 120.0
            },
            {
                "start_time": 4.7068182,
                "end_time": 4.9977273,
                "pitch": 56,
                "velocity": 51,
                "duration": 0.2909091,
                "tempo": 120.0
            },
            {
                "start_time": 5.0136364,
                "end_time": 5.0477273,
                "pitch": 56,
                "velocity": 51,
                "duration": 0.0340909,
                "tempo": 120.0
            },
            {
                "start_time": 5.4636364,
                "end_time": 5.5977273,
                "pitch": 51,
                "velocity": 51,
                "duration": 0.1340909,
                "tempo": 120.0
            },
            {
                "start_time": 5.6136364,
                "end_time": 5.8954545,
                "pitch": 56,
                "velocity": 51,
                "duration": 0.2818182,
                "tempo": 120.0
            },
            {
                "start_time": 5.9113636,
                "end_time": 6.1909091,
                "pitch": 59,
                "velocity": 51,
                "duration": 0.2795455,
                "tempo": 120.0
            },
            {
                "start_time": 6.2090909,
                "end_time": 6.4954545,
                "pitch": 52,
                "velocity": 51,
                "duration": 0.2863636,
                "tempo": 120.0
            },
            {
                "start_time": 6.5113636,
                "end_time": 6.7977273,
                "pitch": 59,
                "velocity": 51,
                "duration": 0.2863636,
                "tempo": 120.0
            },
            {
                "start_time": 6.8136364,
                "end_time": 6.95,
                "pitch": 52,
                "velocity": 51,
                "duration": 0.1363636,
                "tempo": 120.0
            },
            {
                "start_time": 6.9681818,
                "end_time": 8.0045455,
                "pitch": 51,
                "velocity": 51,
                "duration": 1.0363636,
                "tempo": 120.0
            },
            {
                "start_time": 8.0204545,
                "end_time": 8.1568182,
                "pitch": 46,
                "velocity": 51,
                "duration": 0.1363636,
                "tempo": 120.0
            },
            {
                "start_time": 8.1727273,
                "end_time": 8.3090909,
                "pitch": 48,
                "velocity": 51,
                "duration": 0.1363636,
                "tempo": 120.0
            },
            {
                "start_time": 8.3272727,
                "end_time": 8.4613636,
                "pitch": 51,
                "velocity": 51,
                "duration": 0.1340909,
                "tempo": 120.0
            },
            {
                "start_time": 9.0772727,
                "end_time": 9.2090909,
                "pitch": 46,
                "velocity": 51,
                "duration": 0.1318182,
                "tempo": 120.0
            },
            {
                "start_time": 9.2272727,
                "end_time": 9.3590909,
                "pitch": 46,
                "velocity": 51,
                "duration": 0.1318182,
                "tempo": 120.0
            },
            {
                "start_time": 9.3772727,
                "end_time": 9.5090909,
                "pitch": 48,
                "velocity": 51,
                "duration": 0.1318182,
                "tempo": 120.0
            },
            {
                "start_time": 9.5272727,
                "end_time": 9.6590909,
                "pitch": 51,
                "velocity": 51,
                "duration": 0.1318182,
                "tempo": 120.0
            },
            {
                "start_time": 9.6772727,
                "end_time": 9.7090909,
                "pitch": 51,
                "velocity": 51,
                "duration": 0.0318182,
                "tempo": 120.0
            },
            {
                "start_time": 10.2818182,
                "end_time": 10.4159091,
                "pitch": 46,
                "velocity": 51,
                "duration": 0.1340909,
                "tempo": 120.0
            },
            {
                "start_time": 10.4318182,
                "end_time": 10.5681818,
                "pitch": 51,
                "velocity": 51,
                "duration": 0.1363636,
                "tempo": 120.0
            },
            {
                "start_time": 10.5863636,
                "end_time": 10.7227273,
                "pitch": 46,
                "velocity": 51,
                "duration": 0.1363636,
                "tempo": 120.0
            },
            {
                "start_time": 10.7386364,
                "end_time": 11.4727273,
                "pitch": 51,
                "velocity": 51,
                "duration": 0.7340909,
                "tempo": 120.0
            },
            {
                "start_time": 11.4909091,
                "end_time": 11.6227273,
                "pitch": 46,
                "velocity": 51,
                "duration": 0.1318182,
                "tempo": 120.0
            },
            {
                "start_time": 11.6386364,
                "end_time": 11.775,
                "pitch": 48,
                "velocity": 51,
                "duration": 0.1363636,
                "tempo": 120.0
            },
            {
                "start_time": 11.7909091,
                "end_time": 11.9272727,
                "pitch": 51,
                "velocity": 51,
                "duration": 0.1363636,
                "tempo": 120.0
            },
            {
                "start_time": 11.9454545,
                "end_time": 12.0818182,
                "pitch": 53,
                "velocity": 51,
                "duration": 0.1363636,
                "tempo": 120.0
            },
            {
                "start_time": 12.0977273,
                "end_time": 12.1318182,
                "pitch": 53,
                "velocity": 51,
                "duration": 0.0340909,
                "tempo": 120.0
            },
            {
                "start_time": 12.6954545,
                "end_time": 12.8272727,
                "pitch": 53,
                "velocity": 51,
                "duration": 0.1318182,
                "tempo": 120.0
            },
            {
                "start_time": 12.8454545,
                "end_time": 12.9795455,
                "pitch": 48,
                "velocity": 51,
                "duration": 0.1340909,
                "tempo": 120.0
            },
            {
                "start_time": 12.9977273,
                "end_time": 13.1340909,
                "pitch": 48,
                "velocity": 51,
                "duration": 0.1363636,
                "tempo": 120.0
            },
            {
                "start_time": 13.15,
                "end_time": 14.0340909,
                "pitch": 53,
                "velocity": 51,
                "duration": 0.8840909,
                "tempo": 120.0
            },
            {
                "start_time": 14.05,
                "end_time": 14.3386364,
                "pitch": 55,
                "velocity": 51,
                "duration": 0.2886364,
                "tempo": 120.0
            },
            {
                "start_time": 14.3568182,
                "end_time": 14.6454545,
                "pitch": 56,
                "velocity": 51,
                "duration": 0.2886364,
                "tempo": 120.0
            },
            {
                "start_time": 14.6636364,
                "end_time": 14.6954545,
                "pitch": 56,
                "velocity": 51,
                "duration": 0.0318182,
                "tempo": 120.0
            },
            {
                "start_time": 15.1090909,
                "end_time": 15.2409091,
                "pitch": 51,
                "velocity": 51,
                "duration": 0.1318182,
                "tempo": 120.0
            },
            {
                "start_time": 15.2568182,
                "end_time": 15.5454545,
                "pitch": 56,
                "velocity": 51,
                "duration": 0.2886364,
                "tempo": 120.0
            },
            {
                "start_time": 15.5636364,
                "end_time": 15.8522727,
                "pitch": 59,
                "velocity": 51,
                "duration": 0.2886364,
                "tempo": 120.0
            },
            {
                "start_time": 15.8681818,
                "end_time": 16.15,
                "pitch": 52,
                "velocity": 51,
                "duration": 0.2818182,
                "tempo": 120.0
            },
            {
                "start_time": 16.1659091,
                "end_time": 16.4454545,
                "pitch": 59,
                "velocity": 51,
                "duration": 0.2795455,
                "tempo": 120.0
            },
            {
                "start_time": 16.4636364,
                "end_time": 16.5954545,
                "pitch": 52,
                "velocity": 51,
                "duration": 0.1318182,
                "tempo": 120.0
            },
            {
                "start_time": 16.6136364,
                "end_time": 17.6454545,
                "pitch": 51,
                "velocity": 51,
                "duration": 1.0318182,
                "tempo": 120.0
            },
            {
                "start_time": 17.6636364,
                "end_time": 17.7977273,
                "pitch": 56,
                "velocity": 51,
                "duration": 0.1340909,
                "tempo": 120.0
            },
            {
                "start_time": 17.8159091,
                "end_time": 17.9522727,
                "pitch": 53,
                "velocity": 51,
                "duration": 0.1363636,
                "tempo": 120.0
            },
            {
                "start_time": 17.9681818,
                "end_time": 18.1045455,
                "pitch": 51,
                "velocity": 51,
                "duration": 0.1363636,
                "tempo": 120.0
            },
            {
                "start_time": 18.7204545,
                "end_time": 18.8522727,
                "pitch": 46,
                "velocity": 51,
                "duration": 0.1318182,
                "tempo": 120.0
            },
            {
                "start_time": 18.8681818,
                "end_time": 19.0045455,
                "pitch": 48,
                "velocity": 51,
                "duration": 0.1363636,
                "tempo": 120.0
            },
            {
                "start_time": 19.0227273,
                "end_time": 19.1568182,
                "pitch": 50,
                "velocity": 51,
                "duration": 0.1340909,
                "tempo": 120.0
            },
            {
                "start_time": 19.175,
                "end_time": 19.3113636,
                "pitch": 63,
                "velocity": 51,
                "duration": 0.1363636,
                "tempo": 120.0
            },
            {
                "start_time": 19.3272727,
                "end_time": 19.6136364,
                "pitch": 63,
                "velocity": 51,
                "duration": 0.2863636,
                "tempo": 120.0
            },
            {
                "start_time": 19.6295455,
                "end_time": 19.7613636,
                "pitch": 58,
                "velocity": 51,
                "duration": 0.1318182,
                "tempo": 120.0
            },
            {
                "start_time": 19.7772727,
                "end_time": 19.9090909,
                "pitch": 63,
                "velocity": 51,
                "duration": 0.1318182,
                "tempo": 120.0
            },
            {
                "start_time": 19.9272727,
                "end_time": 20.0590909,
                "pitch": 58,
                "velocity": 51,
                "duration": 0.1318182,
                "tempo": 120.0
            },
            {
                "start_time": 20.075,
                "end_time": 20.2090909,
                "pitch": 63,
                "velocity": 51,
                "duration": 0.1340909,
                "tempo": 120.0
            },
            {
                "start_time": 20.225,
                "end_time": 20.3590909,
                "pitch": 62,
                "velocity": 51,
                "duration": 0.1340909,
                "tempo": 120.0
            },
            {
                "start_time": 20.375,
                "end_time": 20.5090909,
                "pitch": 63,
                "velocity": 51,
                "duration": 0.1340909,
                "tempo": 120.0
            },
            {
                "start_time": 20.525,
                "end_time": 20.8113636,
                "pitch": 63,
                "velocity": 51,
                "duration": 0.2863636,
                "tempo": 120.0
            },
            {
                "start_time": 20.8272727,
                "end_time": 20.9636364,
                "pitch": 58,
                "velocity": 51,
                "duration": 0.1363636,
                "tempo": 120.0
            },
            {
                "start_time": 20.9818182,
                "end_time": 21.1159091,
                "pitch": 62,
                "velocity": 51,
                "duration": 0.1340909,
                "tempo": 120.0
            },
            {
                "start_time": 21.1340909,
                "end_time": 21.2704545,
                "pitch": 63,
                "velocity": 51,
                "duration": 0.1363636,
                "tempo": 120.0
            },
            {
                "start_time": 21.2863636,
                "end_time": 21.4181818,
                "pitch": 62,
                "velocity": 51,
                "duration": 0.1318182,
                "tempo": 120.0
            },
            {
                "start_time": 21.4363636,
                "end_time": 21.5681818,
                "pitch": 58,
                "velocity": 51,
                "duration": 0.1318182,
                "tempo": 120.0
            },
            {
                "start_time": 21.5840909,
                "end_time": 21.7159091,
                "pitch": 58,
                "velocity": 51,
                "duration": 0.1318182,
                "tempo": 120.0
            },
            {
                "start_time": 21.7318182,
                "end_time": 22.0136364,
                "pitch": 58,
                "velocity": 51,
                "duration": 0.2818182,
                "tempo": 120.0
            },
            {
                "start_time": 22.0318182,
                "end_time": 22.1636364,
                "pitch": 53,
                "velocity": 51,
                "duration": 0.1318182,
                "tempo": 120.0
            },
            {
                "start_time": 22.1818182,
                "end_time": 22.3136364,
                "pitch": 58,
                "velocity": 51,
                "duration": 0.1318182,
                "tempo": 120.0
            },
            {
                "start_time": 22.3318182,
                "end_time": 22.4636364,
                "pitch": 53,
                "velocity": 51,
                "duration": 0.1318182,
                "tempo": 120.0
            },
            {
                "start_time": 22.4818182,
                "end_time": 22.6159091,
                "pitch": 58,
                "velocity": 51,
                "duration": 0.1340909,
                "tempo": 120.0
            },
            {
                "start_time": 22.6318182,
                "end_time": 22.7681818,
                "pitch": 60,
                "velocity": 51,
                "duration": 0.1363636,
                "tempo": 120.0
            },
            {
                "start_time": 22.7840909,
                "end_time": 22.9181818,
                "pitch": 58,
                "velocity": 51,
                "duration": 0.1340909,
                "tempo": 120.0
            },
            {
                "start_time": 22.9363636,
                "end_time": 23.2227273,
                "pitch": 58,
                "velocity": 51,
                "duration": 0.2863636,
                "tempo": 120.0
            },
            {
                "start_time": 23.2409091,
                "end_time": 23.3772727,
                "pitch": 53,
                "velocity": 51,
                "duration": 0.1363636,
                "tempo": 120.0
            },
            {
                "start_time": 23.3931818,
                "end_time": 23.6818182,
                "pitch": 58,
                "velocity": 51,
                "duration": 0.2886364,
                "tempo": 120.0
            },
            {
                "start_time": 23.7,
                "end_time": 23.9795455,
                "pitch": 58,
                "velocity": 51,
                "duration": 0.2795455,
                "tempo": 120.0
            },
            {
                "start_time": 23.9954545,
                "end_time": 24.1272727,
                "pitch": 60,
                "velocity": 51,
                "duration": 0.1318182,
                "tempo": 120.0
            },
            {
                "start_time": 24.1454545,
                "end_time": 24.4272727,
                "pitch": 60,
                "velocity": 51,
                "duration": 0.2818182,
                "tempo": 120.0
            },
            {
                "start_time": 24.4454545,
                "end_time": 24.5795455,
                "pitch": 55,
                "velocity": 51,
                "duration": 0.1340909,
                "tempo": 120.0
            },
            {
                "start_time": 24.5954545,
                "end_time": 24.7318182,
                "pitch": 60,
                "velocity": 51,
                "duration": 0.1363636,
                "tempo": 120.0
            },
            {
                "start_time": 24.7477273,
                "end_time": 24.8818182,
                "pitch": 55,
                "velocity": 51,
                "duration": 0.1340909,
                "tempo": 120.0
            },
            {
                "start_time": 24.9,
                "end_time": 25.0318182,
                "pitch": 60,
                "velocity": 51,
                "duration": 0.1318182,
                "tempo": 120.0
            },
            {
                "start_time": 25.05,
                "end_time": 25.1818182,
                "pitch": 58,
                "velocity": 51,
                "duration": 0.1318182,
                "tempo": 120.0
            },
            {
                "start_time": 25.2,
                "end_time": 25.3318182,
                "pitch": 60,
                "velocity": 51,
                "duration": 0.1318182,
                "tempo": 120.0
            },
            {
                "start_time": 25.35,
                "end_time": 25.6363636,
                "pitch": 60,
                "velocity": 51,
                "duration": 0.2863636,
                "tempo": 120.0
            },
            {
                "start_time": 25.6522727,
                "end_time": 25.7886364,
                "pitch": 55,
                "velocity": 51,
                "duration": 0.1363636,
                "tempo": 120.0
            },
            {
                "start_time": 25.8045455,
                "end_time": 26.0954545,
                "pitch": 60,
                "velocity": 51,
                "duration": 0.2909091,
                "tempo": 120.0
            },
            {
                "start_time": 26.1113636,
                "end_time": 26.3909091,
                "pitch": 62,
                "velocity": 51,
                "duration": 0.2795455,
                "tempo": 120.0
            },
            {
                "start_time": 26.4090909,
                "end_time": 26.5409091,
                "pitch": 58,
                "velocity": 51,
                "duration": 0.1318182,
                "tempo": 120.0
            },
            {
                "start_time": 26.5568182,
                "end_time": 26.8409091,
                "pitch": 58,
                "velocity": 51,
                "duration": 0.2840909,
                "tempo": 120.0
            },
            {
                "start_time": 26.8590909,
                "end_time": 26.9931818,
                "pitch": 53,
                "velocity": 51,
                "duration": 0.1340909,
                "tempo": 120.0
            },
            {
                "start_time": 27.0113636,
                "end_time": 27.3,
                "pitch": 58,
                "velocity": 51,
                "duration": 0.2886364,
                "tempo": 120.0
            },
            {
                "start_time": 27.3181818,
                "end_time": 27.5977273,
                "pitch": 58,
                "velocity": 51,
                "duration": 0.2795455,
                "tempo": 120.0
            },
            {
                "start_time": 27.6136364,
                "end_time": 27.7454545,
                "pitch": 53,
                "velocity": 51,
                "duration": 0.1318182,
                "tempo": 120.0
            },
            {
                "start_time": 27.7636364,
                "end_time": 27.8954545,
                "pitch": 53,
                "velocity": 51,
                "duration": 0.1318182,
                "tempo": 120.0
            },
            {
                "start_time": 27.9113636,
                "end_time": 28.0454545,
                "pitch": 55,
                "velocity": 51,
                "duration": 0.1340909,
                "tempo": 120.0
            },
            {
                "start_time": 28.0613636,
                "end_time": 28.1954545,
                "pitch": 56,
                "velocity": 51,
                "duration": 0.1340909,
                "tempo": 120.0
            },
            {
                "start_time": 28.2113636,
                "end_time": 28.3454545,
                "pitch": 58,
                "velocity": 51,
                "duration": 0.1340909,
                "tempo": 120.0
            },
            {
                "start_time": 28.3613636,
                "end_time": 28.4954545,
                "pitch": 55,
                "velocity": 51,
                "duration": 0.1340909,
                "tempo": 120.0
            },
            {
                "start_time": 28.5113636,
                "end_time": 28.6454545,
                "pitch": 58,
                "velocity": 51,
                "duration": 0.1340909,
                "tempo": 120.0
            },
            {
                "start_time": 28.6636364,
                "end_time": 28.7977273,
                "pitch": 60,
                "velocity": 51,
                "duration": 0.1340909,
                "tempo": 120.0
            },
            {
                "start_time": 28.8136364,
                "end_time": 28.95,
                "pitch": 63,
                "velocity": 51,
                "duration": 0.1363636,
                "tempo": 120.0
            },
            {
                "start_time": 28.9659091,
                "end_time": 29.25,
                "pitch": 63,
                "velocity": 51,
                "duration": 0.2840909,
                "tempo": 120.0
            },
            {
                "start_time": 29.2681818,
                "end_time": 29.4,
                "pitch": 58,
                "velocity": 51,
                "duration": 0.1318182,
                "tempo": 120.0
            },
            {
                "start_time": 29.4181818,
                "end_time": 29.55,
                "pitch": 63,
                "velocity": 51,
                "duration": 0.1318182,
                "tempo": 120.0
            },
            {
                "start_time": 29.5681818,
                "end_time": 29.7,
                "pitch": 58,
                "velocity": 51,
                "duration": 0.1318182,
                "tempo": 120.0
            },
            {
                "start_time": 29.7181818,
                "end_time": 29.8522727,
                "pitch": 63,
                "velocity": 51,
                "duration": 0.1340909,
                "tempo": 120.0
            },
            {
                "start_time": 29.8681818,
                "end_time": 30.0045455,
                "pitch": 62,
                "velocity": 51,
                "duration": 0.1363636,
                "tempo": 120.0
            },
            {
                "start_time": 30.0204545,
                "end_time": 30.1545455,
                "pitch": 63,
                "velocity": 51,
                "duration": 0.1340909,
                "tempo": 120.0
            },
            {
                "start_time": 30.1727273,
                "end_time": 30.4590909,
                "pitch": 63,
                "velocity": 51,
                "duration": 0.2863636,
                "tempo": 120.0
            },
            {
                "start_time": 30.475,
                "end_time": 30.6090909,
                "pitch": 58,
                "velocity": 51,
                "duration": 0.1340909,
                "tempo": 120.0
            },
            {
                "start_time": 30.6272727,
                "end_time": 30.7613636,
                "pitch": 62,
                "velocity": 51,
                "duration": 0.1340909,
                "tempo": 120.0
            },
            {
                "start_time": 30.7772727,
                "end_time": 30.9136364,
                "pitch": 63,
                "velocity": 51,
                "duration": 0.1363636,
                "tempo": 120.0
            },
            {
                "start_time": 30.9295455,
                "end_time": 31.0636364,
                "pitch": 62,
                "velocity": 51,
                "duration": 0.1340909,
                "tempo": 120.0
            },
            {
                "start_time": 31.0795455,
                "end_time": 31.2136364,
                "pitch": 58,
                "velocity": 51,
                "duration": 0.1340909,
                "tempo": 120.0
            },
            {
                "start_time": 31.2295455,
                "end_time": 31.3636364,
                "pitch": 58,
                "velocity": 51,
                "duration": 0.1340909,
                "tempo": 120.0
            },
            {
                "start_time": 31.3795455,
                "end_time": 31.6636364,
                "pitch": 58,
                "velocity": 51,
                "duration": 0.2840909,
                "tempo": 120.0
            },
            {
                "start_time": 31.6818182,
                "end_time": 31.8159091,
                "pitch": 53,
                "velocity": 51,
                "duration": 0.1340909,
                "tempo": 120.0
            },
            {
                "start_time": 31.8318182,
                "end_time": 31.9681818,
                "pitch": 58,
                "velocity": 51,
                "duration": 0.1363636,
                "tempo": 120.0
            },
            {
                "start_time": 31.9840909,
                "end_time": 32.1181818,
                "pitch": 53,
                "velocity": 51,
                "duration": 0.1340909,
                "tempo": 120.0
            },
            {
                "start_time": 32.1363636,
                "end_time": 32.2681818,
                "pitch": 58,
                "velocity": 51,
                "duration": 0.1318182,
                "tempo": 120.0
            },
            {
                "start_time": 32.2863636,
                "end_time": 32.4181818,
                "pitch": 60,
                "velocity": 51,
                "duration": 0.1318182,
                "tempo": 120.0
            },
            {
                "start_time": 32.4363636,
                "end_time": 32.5681818,
                "pitch": 58,
                "velocity": 51,
                "duration": 0.1318182,
                "tempo": 120.0
            },
            {
                "start_time": 32.5863636,
                "end_time": 32.8704545,
                "pitch": 58,
                "velocity": 51,
                "duration": 0.2840909,
                "tempo": 120.0
            },
            {
                "start_time": 32.8886364,
                "end_time": 33.025,
                "pitch": 53,
                "velocity": 51,
                "duration": 0.1363636,
                "tempo": 120.0
            },
            {
                "start_time": 33.0409091,
                "end_time": 33.3318182,
                "pitch": 58,
                "velocity": 51,
                "duration": 0.2909091,
                "tempo": 120.0
            },
            {
                "start_time": 33.3477273,
                "end_time": 33.6272727,
                "pitch": 58,
                "velocity": 51,
                "duration": 0.2795455,
                "tempo": 120.0
            },
            {
                "start_time": 33.6454545,
                "end_time": 33.7772727,
                "pitch": 60,
                "velocity": 51,
                "duration": 0.1318182,
                "tempo": 120.0
            },
            {
                "start_time": 33.7931818,
                "end_time": 34.0772727,
                "pitch": 60,
                "velocity": 51,
                "duration": 0.2840909,
                "tempo": 120.0
            },
            {
                "start_time": 34.0931818,
                "end_time": 34.2272727,
                "pitch": 55,
                "velocity": 51,
                "duration": 0.1340909,
                "tempo": 120.0
            },
            {
                "start_time": 34.2454545,
                "end_time": 34.5318182,
                "pitch": 60,
                "velocity": 51,
                "duration": 0.2863636,
                "tempo": 120.0
            },
            {
                "start_time": 34.5477273,
                "end_time": 34.8318182,
                "pitch": 60,
                "velocity": 51,
                "duration": 0.2840909,
                "tempo": 120.0
            },
            {
                "start_time": 34.8477273,
                "end_time": 34.9818182,
                "pitch": 62,
                "velocity": 51,
                "duration": 0.1340909,
                "tempo": 120.0
            },
            {
                "start_time": 34.9977273,
                "end_time": 35.2840909,
                "pitch": 58,
                "velocity": 51,
                "duration": 0.2863636,
                "tempo": 120.0
            },
            {
                "start_time": 35.3,
                "end_time": 35.4363636,
                "pitch": 53,
                "velocity": 51,
                "duration": 0.1363636,
                "tempo": 120.0
            },
            {
                "start_time": 35.4545455,
                "end_time": 35.7431818,
                "pitch": 53,
                "velocity": 51,
                "duration": 0.2886364,
                "tempo": 120.0
            },
            {
                "start_time": 35.7590909,
                "end_time": 36.0409091,
                "pitch": 58,
                "velocity": 51,
                "duration": 0.2818182,
                "tempo": 120.0
            },
            {
                "start_time": 36.0568182,
                "end_time": 36.3363636,
                "pitch": 63,
                "velocity": 51,
                "duration": 0.2795455,
                "tempo": 120.0
            },
            {
                "start_time": 36.3545455,
                "end_time": 36.4386364,
                "pitch": 63,
                "velocity": 51,
                "duration": 0.0840909,
                "tempo": 120.0
            },
            {
                "start_time": 36.8090909,
                "end_time": 37.0954545,
                "pitch": 58,
                "velocity": 51,
                "duration": 0.2863636,
                "tempo": 120.0
            },
            {
                "start_time": 37.1113636,
                "end_time": 37.2454545,
                "pitch": 58,
                "velocity": 51,
                "duration": 0.1340909,
                "tempo": 120.0
            },
            {
                "start_time": 37.2636364,
                "end_time": 37.5159091,
                "pitch": 63,
                "velocity": 51,
                "duration": 0.2522727,
                "tempo": 120.0
            },
            {
                "start_time": 38.4886364,
                "end_time": 38.6204545,
                "pitch": 63,
                "velocity": 51,
                "duration": 0.1318182,
                "tempo": 120.0
            },
            {
                "start_time": 38.6363636,
                "end_time": 38.9159091,
                "pitch": 63,
                "velocity": 51,
                "duration": 0.2795455,
                "tempo": 120.0
            },
            {
                "start_time": 38.9340909,
                "end_time": 39.0659091,
                "pitch": 58,
                "velocity": 51,
                "duration": 0.1318182,
                "tempo": 120.0
            },
            {
                "start_time": 39.0818182,
                "end_time": 39.2136364,
                "pitch": 63,
                "velocity": 51,
                "duration": 0.1318182,
                "tempo": 120.0
            },
            {
                "start_time": 39.2295455,
                "end_time": 39.3636364,
                "pitch": 58,
                "velocity": 51,
                "duration": 0.1340909,
                "tempo": 120.0
            },
            {
                "start_time": 39.3795455,
                "end_time": 39.5136364,
                "pitch": 63,
                "velocity": 51,
                "duration": 0.1340909,
                "tempo": 120.0
            },
            {
                "start_time": 39.5295455,
                "end_time": 39.6659091,
                "pitch": 62,
                "velocity": 51,
                "duration": 0.1363636,
                "tempo": 120.0
            },
            {
                "start_time": 39.6818182,
                "end_time": 39.8159091,
                "pitch": 63,
                "velocity": 51,
                "duration": 0.1340909,
                "tempo": 120.0
            },
            {
                "start_time": 39.8340909,
                "end_time": 40.1204545,
                "pitch": 63,
                "velocity": 51,
                "duration": 0.2863636,
                "tempo": 120.0
            },
            {
                "start_time": 40.1363636,
                "end_time": 40.2704545,
                "pitch": 58,
                "velocity": 51,
                "duration": 0.1340909,
                "tempo": 120.0
            },
            {
                "start_time": 40.2886364,
                "end_time": 40.4227273,
                "pitch": 62,
                "velocity": 51,
                "duration": 0.1340909,
                "tempo": 120.0
            },
            {
                "start_time": 40.4386364,
                "end_time": 40.575,
                "pitch": 63,
                "velocity": 51,
                "duration": 0.1363636,
                "tempo": 120.0
            },
            {
                "start_time": 40.5909091,
                "end_time": 40.725,
                "pitch": 62,
                "velocity": 51,
                "duration": 0.1340909,
                "tempo": 120.0
            },
            {
                "start_time": 40.7409091,
                "end_time": 40.875,
                "pitch": 58,
                "velocity": 51,
                "duration": 0.1340909,
                "tempo": 120.0
            },
            {
                "start_time": 40.8909091,
                "end_time": 41.025,
                "pitch": 58,
                "velocity": 51,
                "duration": 0.1340909,
                "tempo": 120.0
            },
            {
                "start_time": 41.0409091,
                "end_time": 41.325,
                "pitch": 58,
                "velocity": 51,
                "duration": 0.2840909,
                "tempo": 120.0
            },
            {
                "start_time": 41.3431818,
                "end_time": 41.4772727,
                "pitch": 53,
                "velocity": 51,
                "duration": 0.1340909,
                "tempo": 120.0
            },
            {
                "start_time": 41.4931818,
                "end_time": 41.6295455,
                "pitch": 58,
                "velocity": 51,
                "duration": 0.1363636,
                "tempo": 120.0
            },
            {
                "start_time": 41.6454545,
                "end_time": 41.7795455,
                "pitch": 53,
                "velocity": 51,
                "duration": 0.1340909,
                "tempo": 120.0
            },
            {
                "start_time": 41.7977273,
                "end_time": 41.9318182,
                "pitch": 58,
                "velocity": 51,
                "duration": 0.1340909,
                "tempo": 120.0
            },
            {
                "start_time": 41.9477273,
                "end_time": 42.0840909,
                "pitch": 60,
                "velocity": 51,
                "duration": 0.1363636,
                "tempo": 120.0
            },
            {
                "start_time": 42.1,
                "end_time": 42.2340909,
                "pitch": 58,
                "velocity": 51,
                "duration": 0.1340909,
                "tempo": 120.0
            },
            {
                "start_time": 42.2522727,
                "end_time": 42.5386364,
                "pitch": 58,
                "velocity": 51,
                "duration": 0.2863636,
                "tempo": 120.0
            },
            {
                "start_time": 42.5568182,
                "end_time": 42.6931818,
                "pitch": 53,
                "velocity": 51,
                "duration": 0.1363636,
                "tempo": 120.0
            },
            {
                "start_time": 42.7090909,
                "end_time": 42.9977273,
                "pitch": 58,
                "velocity": 51,
                "duration": 0.2886364,
                "tempo": 120.0
            },
            {
                "start_time": 43.0159091,
                "end_time": 43.2954545,
                "pitch": 58,
                "velocity": 51,
                "duration": 0.2795455,
                "tempo": 120.0
            },
            {
                "start_time": 43.3113636,
                "end_time": 43.4454545,
                "pitch": 60,
                "velocity": 51,
                "duration": 0.1340909,
                "tempo": 120.0
            },
            {
                "start_time": 43.4613636,
                "end_time": 43.7431818,
                "pitch": 60,
                "velocity": 51,
                "duration": 0.2818182,
                "tempo": 120.0
            },
            {
                "start_time": 43.7590909,
                "end_time": 43.8931818,
                "pitch": 55,
                "velocity": 51,
                "duration": 0.1340909,
                "tempo": 120.0
            },
            {
                "start_time": 43.9090909,
                "end_time": 44.0431818,
                "pitch": 60,
                "velocity": 51,
                "duration": 0.1340909,
                "tempo": 120.0
            },
            {
                "start_time": 44.0590909,
                "end_time": 44.1931818,
                "pitch": 55,
                "velocity": 51,
                "duration": 0.1340909,
                "tempo": 120.0
            },
            {
                "start_time": 44.2090909,
                "end_time": 44.3431818,
                "pitch": 60,
                "velocity": 51,
                "duration": 0.1340909,
                "tempo": 120.0
            },
            {
                "start_time": 44.3613636,
                "end_time": 44.4954545,
                "pitch": 58,
                "velocity": 51,
                "duration": 0.1340909,
                "tempo": 120.0
            },
            {
                "start_time": 44.5136364,
                "end_time": 44.6477273,
                "pitch": 60,
                "velocity": 51,
                "duration": 0.1340909,
                "tempo": 120.0
            },
            {
                "start_time": 44.6636364,
                "end_time": 44.9522727,
                "pitch": 60,
                "velocity": 51,
                "duration": 0.2886364,
                "tempo": 120.0
            },
            {
                "start_time": 44.9681818,
                "end_time": 45.1045455,
                "pitch": 55,
                "velocity": 51,
                "duration": 0.1363636,
                "tempo": 120.0
            },
            {
                "start_time": 45.1227273,
                "end_time": 45.4113636,
                "pitch": 60,
                "velocity": 51,
                "duration": 0.2886364,
                "tempo": 120.0
            },
            {
                "start_time": 45.4272727,
                "end_time": 45.7090909,
                "pitch": 62,
                "velocity": 51,
                "duration": 0.2818182,
                "tempo": 120.0
            },
            {
                "start_time": 45.725,
                "end_time": 45.8568182,
                "pitch": 58,
                "velocity": 51,
                "duration": 0.1318182,
                "tempo": 120.0
            },
            {
                "start_time": 45.8727273,
                "end_time": 46.1568182,
                "pitch": 58,
                "velocity": 51,
                "duration": 0.2840909,
                "tempo": 120.0
            },
            {
                "start_time": 46.175,
                "end_time": 46.3113636,
                "pitch": 53,
                "velocity": 51,
                "duration": 0.1363636,
                "tempo": 120.0
            },
            {
                "start_time": 46.3272727,
                "end_time": 46.6159091,
                "pitch": 58,
                "velocity": 51,
                "duration": 0.2886364,
                "tempo": 120.0
            },
            {
                "start_time": 46.6340909,
                "end_time": 46.9136364,
                "pitch": 58,
                "velocity": 51,
                "duration": 0.2795455,
                "tempo": 120.0
            },
            {
                "start_time": 46.9318182,
                "end_time": 47.0636364,
                "pitch": 53,
                "velocity": 51,
                "duration": 0.1318182,
                "tempo": 120.0
            },
            {
                "start_time": 47.0795455,
                "end_time": 47.2113636,
                "pitch": 53,
                "velocity": 51,
                "duration": 0.1318182,
                "tempo": 120.0
            },
            {
                "start_time": 47.2272727,
                "end_time": 47.3613636,
                "pitch": 55,
                "velocity": 51,
                "duration": 0.1340909,
                "tempo": 120.0
            },
            {
                "start_time": 47.3795455,
                "end_time": 47.5136364,
                "pitch": 56,
                "velocity": 51,
                "duration": 0.1340909,
                "tempo": 120.0
            },
            {
                "start_time": 47.5318182,
                "end_time": 47.6659091,
                "pitch": 58,
                "velocity": 51,
                "duration": 0.1340909,
                "tempo": 120.0
            },
            {
                "start_time": 47.6818182,
                "end_time": 47.8159091,
                "pitch": 55,
                "velocity": 51,
                "duration": 0.1340909,
                "tempo": 120.0
            },
            {
                "start_time": 47.8340909,
                "end_time": 47.9681818,
                "pitch": 58,
                "velocity": 51,
                "duration": 0.1340909,
                "tempo": 120.0
            },
            {
                "start_time": 47.9863636,
                "end_time": 48.1204545,
                "pitch": 60,
                "velocity": 51,
                "duration": 0.1340909,
                "tempo": 120.0
            },
            {
                "start_time": 48.1363636,
                "end_time": 48.2704545,
                "pitch": 63,
                "velocity": 51,
                "duration": 0.1340909,
                "tempo": 120.0
            },
            {
                "start_time": 48.2886364,
                "end_time": 48.575,
                "pitch": 63,
                "velocity": 51,
                "duration": 0.2863636,
                "tempo": 120.0
            },
            {
                "start_time": 48.5909091,
                "end_time": 48.725,
                "pitch": 58,
                "velocity": 51,
                "duration": 0.1340909,
                "tempo": 120.0
            },
            {
                "start_time": 48.7431818,
                "end_time": 48.8772727,
                "pitch": 63,
                "velocity": 51,
                "duration": 0.1340909,
                "tempo": 120.0
            },
            {
                "start_time": 48.8954545,
                "end_time": 49.0295455,
                "pitch": 58,
                "velocity": 51,
                "duration": 0.1340909,
                "tempo": 120.0
            },
            {
                "start_time": 49.0454545,
                "end_time": 49.1795455,
                "pitch": 63,
                "velocity": 51,
                "duration": 0.1340909,
                "tempo": 120.0
            },
            {
                "start_time": 49.1977273,
                "end_time": 49.3318182,
                "pitch": 62,
                "velocity": 51,
                "duration": 0.1340909,
                "tempo": 120.0
            },
            {
                "start_time": 49.35,
                "end_time": 49.4840909,
                "pitch": 63,
                "velocity": 51,
                "duration": 0.1340909,
                "tempo": 120.0
            },
            {
                "start_time": 49.5,
                "end_time": 49.7886364,
                "pitch": 63,
                "velocity": 51,
                "duration": 0.2886364,
                "tempo": 120.0
            },
            {
                "start_time": 49.8045455,
                "end_time": 49.9409091,
                "pitch": 58,
                "velocity": 51,
                "duration": 0.1363636,
                "tempo": 120.0
            },
            {
                "start_time": 49.9590909,
                "end_time": 50.0931818,
                "pitch": 62,
                "velocity": 51,
                "duration": 0.1340909,
                "tempo": 120.0
            },
            {
                "start_time": 50.1113636,
                "end_time": 50.2477273,
                "pitch": 63,
                "velocity": 51,
                "duration": 0.1363636,
                "tempo": 120.0
            },
            {
                "start_time": 50.2636364,
                "end_time": 50.3954545,
                "pitch": 62,
                "velocity": 51,
                "duration": 0.1318182,
                "tempo": 120.0
            },
            {
                "start_time": 50.4136364,
                "end_time": 50.5454545,
                "pitch": 58,
                "velocity": 51,
                "duration": 0.1318182,
                "tempo": 120.0
            },
            {
                "start_time": 50.5613636,
                "end_time": 50.6931818,
                "pitch": 58,
                "velocity": 51,
                "duration": 0.1318182,
                "tempo": 120.0
            },
            {
                "start_time": 50.7090909,
                "end_time": 50.9931818,
                "pitch": 58,
                "velocity": 51,
                "duration": 0.2840909,
                "tempo": 120.0
            },
            {
                "start_time": 51.0090909,
                "end_time": 51.1454545,
                "pitch": 53,
                "velocity": 51,
                "duration": 0.1363636,
                "tempo": 120.0
            },
            {
                "start_time": 51.1613636,
                "end_time": 51.2954545,
                "pitch": 58,
                "velocity": 51,
                "duration": 0.1340909,
                "tempo": 120.0
            },
            {
                "start_time": 51.3136364,
                "end_time": 51.4477273,
                "pitch": 53,
                "velocity": 51,
                "duration": 0.1340909,
                "tempo": 120.0
            },
            {
                "start_time": 51.4636364,
                "end_time": 51.6,
                "pitch": 58,
                "velocity": 51,
                "duration": 0.1363636,
                "tempo": 120.0
            },
            {
                "start_time": 51.6159091,
                "end_time": 51.75,
                "pitch": 60,
                "velocity": 51,
                "duration": 0.1340909,
                "tempo": 120.0
            },
            {
                "start_time": 51.7681818,
                "end_time": 51.9022727,
                "pitch": 58,
                "velocity": 51,
                "duration": 0.1340909,
                "tempo": 120.0
            },
            {
                "start_time": 51.9181818,
                "end_time": 52.2068182,
                "pitch": 58,
                "velocity": 51,
                "duration": 0.2886364,
                "tempo": 120.0
            },
            {
                "start_time": 52.2227273,
                "end_time": 52.3590909,
                "pitch": 53,
                "velocity": 51,
                "duration": 0.1363636,
                "tempo": 120.0
            },
            {
                "start_time": 52.3772727,
                "end_time": 52.6659091,
                "pitch": 58,
                "velocity": 51,
                "duration": 0.2886364,
                "tempo": 120.0
            },
            {
                "start_time": 52.6818182,
                "end_time": 52.9636364,
                "pitch": 58,
                "velocity": 51,
                "duration": 0.2818182,
                "tempo": 120.0
            },
            {
                "start_time": 52.9795455,
                "end_time": 53.1113636,
                "pitch": 60,
                "velocity": 51,
                "duration": 0.1318182,
                "tempo": 120.0
            },
            {
                "start_time": 53.1272727,
                "end_time": 53.4113636,
                "pitch": 60,
                "velocity": 51,
                "duration": 0.2840909,
                "tempo": 120.0
            },
            {
                "start_time": 53.4272727,
                "end_time": 53.5636364,
                "pitch": 55,
                "velocity": 51,
                "duration": 0.1363636,
                "tempo": 120.0
            },
            {
                "start_time": 53.5795455,
                "end_time": 53.8659091,
                "pitch": 60,
                "velocity": 51,
                "duration": 0.2863636,
                "tempo": 120.0
            },
            {
                "start_time": 53.8818182,
                "end_time": 54.1681818,
                "pitch": 60,
                "velocity": 51,
                "duration": 0.2863636,
                "tempo": 120.0
            },
            {
                "start_time": 54.1863636,
                "end_time": 54.3204545,
                "pitch": 62,
                "velocity": 51,
                "duration": 0.1340909,
                "tempo": 120.0
            },
            {
                "start_time": 54.3363636,
                "end_time": 54.625,
                "pitch": 58,
                "velocity": 51,
                "duration": 0.2886364,
                "tempo": 120.0
            },
            {
                "start_time": 54.6409091,
                "end_time": 54.7772727,
                "pitch": 53,
                "velocity": 51,
                "duration": 0.1363636,
                "tempo": 120.0
            },
            {
                "start_time": 54.7954545,
                "end_time": 55.0840909,
                "pitch": 53,
                "velocity": 51,
                "duration": 0.2886364,
                "tempo": 120.0
            },
            {
                "start_time": 55.1,
                "end_time": 55.3818182,
                "pitch": 58,
                "velocity": 51,
                "duration": 0.2818182,
                "tempo": 120.0
            },
            {
                "start_time": 55.3977273,
                "end_time": 55.6772727,
                "pitch": 63,
                "velocity": 51,
                "duration": 0.2795455,
                "tempo": 120.0
            },
            {
                "start_time": 55.6954545,
                "end_time": 55.7772727,
                "pitch": 63,
                "velocity": 51,
                "duration": 0.0818182,
                "tempo": 120.0
            },
            {
                "start_time": 56.1454545,
                "end_time": 56.4295455,
                "pitch": 58,
                "velocity": 51,
                "duration": 0.2840909,
                "tempo": 120.0
            },
            {
                "start_time": 56.4454545,
                "end_time": 56.5818182,
                "pitch": 58,
                "velocity": 51,
                "duration": 0.1363636,
                "tempo": 120.0
            },
            {
                "start_time": 56.5977273,
                "end_time": 56.85,
                "pitch": 63,
                "velocity": 51,
                "duration": 0.2522727,
                "tempo": 120.0
            },
            {
                "start_time": 57.8136364,
                "end_time": 57.95,
                "pitch": 51,
                "velocity": 51,
                "duration": 0.1363636,
                "tempo": 120.0
            },
            {
                "start_time": 57.9659091,
                "end_time": 58.0,
                "pitch": 51,
                "velocity": 51,
                "duration": 0.0340909,
                "tempo": 120.0
            }
        ],
        "Flute": [
            {
                "start_time": 19.175,
                "end_time": 19.3113636,
                "pitch": 87,
                "velocity": 51,
                "duration": 0.1363636,
                "tempo": 120.0
            },
            {
                "start_time": 19.3272727,
                "end_time": 19.4636364,
                "pitch": 94,
                "velocity": 51,
                "duration": 0.1363636,
                "tempo": 120.0
            },
            {
                "start_time": 19.4818182,
                "end_time": 19.6136364,
                "pitch": 91,
                "velocity": 51,
                "duration": 0.1318182,
                "tempo": 120.0
            },
            {
                "start_time": 19.6295455,
                "end_time": 19.7613636,
                "pitch": 87,
                "velocity": 51,
                "duration": 0.1318182,
                "tempo": 120.0
            },
            {
                "start_time": 19.7772727,
                "end_time": 19.9090909,
                "pitch": 94,
                "velocity": 51,
                "duration": 0.1318182,
                "tempo": 120.0
            },
            {
                "start_time": 19.9272727,
                "end_time": 20.0590909,
                "pitch": 91,
                "velocity": 51,
                "duration": 0.1318182,
                "tempo": 120.0
            },
            {
                "start_time": 20.075,
                "end_time": 20.2090909,
                "pitch": 87,
                "velocity": 51,
                "duration": 0.1340909,
                "tempo": 120.0
            },
            {
                "start_time": 20.225,
                "end_time": 20.3590909,
                "pitch": 94,
                "velocity": 51,
                "duration": 0.1340909,
                "tempo": 120.0
            },
            {
                "start_time": 20.375,
                "end_time": 20.5090909,
                "pitch": 91,
                "velocity": 51,
                "duration": 0.1340909,
                "tempo": 120.0
            },
            {
                "start_time": 20.525,
                "end_time": 20.6590909,
                "pitch": 87,
                "velocity": 51,
                "duration": 0.1340909,
                "tempo": 120.0
            },
            {
                "start_time": 20.675,
                "end_time": 20.8113636,
                "pitch": 94,
                "velocity": 51,
                "duration": 0.1363636,
                "tempo": 120.0
            },
            {
                "start_time": 20.8272727,
                "end_time": 21.1159091,
                "pitch": 91,
                "velocity": 51,
                "duration": 0.2886364,
                "tempo": 120.0
            },
            {
                "start_time": 21.1340909,
                "end_time": 21.2704545,
                "pitch": 87,
                "velocity": 51,
                "duration": 0.1363636,
                "tempo": 120.0
            },
            {
                "start_time": 21.2863636,
                "end_time": 21.4181818,
                "pitch": 87,
                "velocity": 51,
                "duration": 0.1318182,
                "tempo": 120.0
            },
            {
                "start_time": 21.8818182,
                "end_time": 22.0136364,
                "pitch": 82,
                "velocity": 51,
                "duration": 0.1318182,
                "tempo": 120.0
            },
            {
                "start_time": 22.0318182,
                "end_time": 22.1636364,
                "pitch": 86,
                "velocity": 51,
                "duration": 0.1318182,
                "tempo": 120.0
            },
            {
                "start_time": 22.1818182,
                "end_time": 22.4636364,
                "pitch": 89,
                "velocity": 51,
                "duration": 0.2818182,
                "tempo": 120.0
            },
            {
                "start_time": 22.4818182,
                "end_time": 22.6159091,
                "pitch": 89,
                "velocity": 51,
                "duration": 0.1340909,
                "tempo": 120.0
            },
            {
                "start_time": 22.6318182,
                "end_time": 22.9181818,
                "pitch": 89,
                "velocity": 51,
                "duration": 0.2863636,
                "tempo": 120.0
            },
            {
                "start_time": 22.9363636,
                "end_time": 23.0704545,
                "pitch": 92,
                "velocity": 51,
                "duration": 0.1340909,
                "tempo": 120.0
            },
            {
                "start_time": 23.0863636,
                "end_time": 23.2227273,
                "pitch": 89,
                "velocity": 51,
                "duration": 0.1363636,
                "tempo": 120.0
            },
            {
                "start_time": 23.2409091,
                "end_time": 23.5977273,
                "pitch": 86,
                "velocity": 51,
                "duration": 0.3568182,
                "tempo": 120.0
            },
            {
                "start_time": 24.2931818,
                "end_time": 24.5795455,
                "pitch": 84,
                "velocity": 51,
                "duration": 0.2863636,
                "tempo": 120.0
            },
            {
                "start_time": 24.5954545,
                "end_time": 24.8818182,
                "pitch": 87,
                "velocity": 51,
                "duration": 0.2863636,
                "tempo": 120.0
            },
            {
                "start_time": 24.9,
                "end_time": 25.1818182,
                "pitch": 91,
                "velocity": 51,
                "duration": 0.2818182,
                "tempo": 120.0
            },
            {
                "start_time": 25.2,
                "end_time": 25.3318182,
                "pitch": 91,
                "velocity": 51,
                "duration": 0.1318182,
                "tempo": 120.0
            },
            {
                "start_time": 25.35,
                "end_time": 25.4818182,
                "pitch": 91,
                "velocity": 51,
                "duration": 0.1318182,
                "tempo": 120.0
            },
            {
                "start_time": 25.5,
                "end_time": 25.6363636,
                "pitch": 84,
                "velocity": 51,
                "duration": 0.1363636,
                "tempo": 120.0
            },
            {
                "start_time": 25.6522727,
                "end_time": 25.9409091,
                "pitch": 89,
                "velocity": 51,
                "duration": 0.2886364,
                "tempo": 120.0
            },
            {
                "start_time": 25.9590909,
                "end_time": 26.0954545,
                "pitch": 87,
                "velocity": 51,
                "duration": 0.1363636,
                "tempo": 120.0
            },
            {
                "start_time": 26.1113636,
                "end_time": 26.2431818,
                "pitch": 86,
                "velocity": 51,
                "duration": 0.1318182,
                "tempo": 120.0
            },
            {
                "start_time": 26.2590909,
                "end_time": 26.3090909,
                "pitch": 84,
                "velocity": 51,
                "duration": 0.05,
                "tempo": 120.0
            },
            {
                "start_time": 26.7045455,
                "end_time": 26.8409091,
                "pitch": 80,
                "velocity": 51,
                "duration": 0.1363636,
                "tempo": 120.0
            },
            {
                "start_time": 26.8590909,
                "end_time": 26.9931818,
                "pitch": 84,
                "velocity": 51,
                "duration": 0.1340909,
                "tempo": 120.0
            },
            {
                "start_time": 27.0113636,
                "end_time": 27.1477273,
                "pitch": 87,
                "velocity": 51,
                "duration": 0.1363636,
                "tempo": 120.0
            },
            {
                "start_time": 27.1636364,
                "end_time": 27.3,
                "pitch": 82,
                "velocity": 51,
                "duration": 0.1363636,
                "tempo": 120.0
            },
            {
                "start_time": 27.3181818,
                "end_time": 27.45,
                "pitch": 86,
                "velocity": 51,
                "duration": 0.1318182,
                "tempo": 120.0
            },
            {
                "start_time": 27.4659091,
                "end_time": 27.5977273,
                "pitch": 89,
                "velocity": 51,
                "duration": 0.1318182,
                "tempo": 120.0
            },
            {
                "start_time": 27.6136364,
                "end_time": 27.7454545,
                "pitch": 84,
                "velocity": 51,
                "duration": 0.1318182,
                "tempo": 120.0
            },
            {
                "start_time": 27.7636364,
                "end_time": 27.8954545,
                "pitch": 87,
                "velocity": 51,
                "duration": 0.1318182,
                "tempo": 120.0
            },
            {
                "start_time": 27.9113636,
                "end_time": 28.0454545,
                "pitch": 91,
                "velocity": 51,
                "duration": 0.1340909,
                "tempo": 120.0
            },
            {
                "start_time": 28.0613636,
                "end_time": 28.3454545,
                "pitch": 92,
                "velocity": 51,
                "duration": 0.2840909,
                "tempo": 120.0
            },
            {
                "start_time": 28.3613636,
                "end_time": 28.4954545,
                "pitch": 91,
                "velocity": 51,
                "duration": 0.1340909,
                "tempo": 120.0
            },
            {
                "start_time": 28.5113636,
                "end_time": 28.6454545,
                "pitch": 89,
                "velocity": 51,
                "duration": 0.1340909,
                "tempo": 120.0
            },
            {
                "start_time": 28.6636364,
                "end_time": 28.7977273,
                "pitch": 87,
                "velocity": 51,
                "duration": 0.1340909,
                "tempo": 120.0
            },
            {
                "start_time": 28.8136364,
                "end_time": 28.95,
                "pitch": 87,
                "velocity": 51,
                "duration": 0.1363636,
                "tempo": 120.0
            },
            {
                "start_time": 28.9659091,
                "end_time": 29.1,
                "pitch": 94,
                "velocity": 51,
                "duration": 0.1340909,
                "tempo": 120.0
            },
            {
                "start_time": 29.1181818,
                "end_time": 29.25,
                "pitch": 91,
                "velocity": 51,
                "duration": 0.1318182,
                "tempo": 120.0
            },
            {
                "start_time": 29.2681818,
                "end_time": 29.4,
                "pitch": 87,
                "velocity": 51,
                "duration": 0.1318182,
                "tempo": 120.0
            },
            {
                "start_time": 29.4181818,
                "end_time": 29.55,
                "pitch": 94,
                "velocity": 51,
                "duration": 0.1318182,
                "tempo": 120.0
            },
            {
                "start_time": 29.5681818,
                "end_time": 29.7,
                "pitch": 91,
                "velocity": 51,
                "duration": 0.1318182,
                "tempo": 120.0
            },
            {
                "start_time": 29.7181818,
                "end_time": 29.8522727,
                "pitch": 87,
                "velocity": 51,
                "duration": 0.1340909,
                "tempo": 120.0
            },
            {
                "start_time": 29.8681818,
                "end_time": 30.0045455,
                "pitch": 94,
                "velocity": 51,
                "duration": 0.1363636,
                "tempo": 120.0
            },
            {
                "start_time": 30.0204545,
                "end_time": 30.1545455,
                "pitch": 91,
                "velocity": 51,
                "duration": 0.1340909,
                "tempo": 120.0
            },
            {
                "start_time": 30.1727273,
                "end_time": 30.3068182,
                "pitch": 87,
                "velocity": 51,
                "duration": 0.1340909,
                "tempo": 120.0
            },
            {
                "start_time": 30.3227273,
                "end_time": 30.4590909,
                "pitch": 94,
                "velocity": 51,
                "duration": 0.1363636,
                "tempo": 120.0
            },
            {
                "start_time": 30.475,
                "end_time": 30.7613636,
                "pitch": 91,
                "velocity": 51,
                "duration": 0.2863636,
                "tempo": 120.0
            },
            {
                "start_time": 30.7772727,
                "end_time": 30.9136364,
                "pitch": 87,
                "velocity": 51,
                "duration": 0.1363636,
                "tempo": 120.0
            },
            {
                "start_time": 30.9295455,
                "end_time": 31.0636364,
                "pitch": 87,
                "velocity": 51,
                "duration": 0.1340909,
                "tempo": 120.0
            },
            {
                "start_time": 31.5295455,
                "end_time": 31.6636364,
                "pitch": 82,
                "velocity": 51,
                "duration": 0.1340909,
                "tempo": 120.0
            },
            {
                "start_time": 31.6818182,
                "end_time": 31.8159091,
                "pitch": 86,
                "velocity": 51,
                "duration": 0.1340909,
                "tempo": 120.0
            },
            {
                "start_time": 31.8318182,
                "end_time": 32.1181818,
                "pitch": 89,
                "velocity": 51,
                "duration": 0.2863636,
                "tempo": 120.0
            },
            {
                "start_time": 32.1363636,
                "end_time": 32.2681818,
                "pitch": 89,
                "velocity": 51,
                "duration": 0.1318182,
                "tempo": 120.0
            },
            {
                "start_time": 32.2863636,
                "end_time": 32.5681818,
                "pitch": 89,
                "velocity": 51,
                "duration": 0.2818182,
                "tempo": 120.0
            },
            {
                "start_time": 32.5863636,
                "end_time": 32.7181818,
                "pitch": 92,
                "velocity": 51,
                "duration": 0.1318182,
                "tempo": 120.0
            },
            {
                "start_time": 32.7363636,
                "end_time": 32.8704545,
                "pitch": 89,
                "velocity": 51,
                "duration": 0.1340909,
                "tempo": 120.0
            },
            {
                "start_time": 32.8886364,
                "end_time": 33.2454545,
                "pitch": 86,
                "velocity": 51,
                "duration": 0.3568182,
                "tempo": 120.0
            },
            {
                "start_time": 33.9409091,
                "end_time": 34.2272727,
                "pitch": 84,
                "velocity": 51,
                "duration": 0.2863636,
                "tempo": 120.0
            },
            {
                "start_time": 34.2454545,
                "end_time": 34.3795455,
                "pitch": 87,
                "velocity": 51,
                "duration": 0.1340909,
                "tempo": 120.0
            },
            {
                "start_time": 34.3954545,
                "end_time": 34.8318182,
                "pitch": 91,
                "velocity": 51,
                "duration": 0.4363636,
                "tempo": 120.0
            },
            {
                "start_time": 34.8477273,
                "end_time": 35.1318182,
                "pitch": 86,
                "velocity": 51,
                "duration": 0.2840909,
                "tempo": 120.0
            },
            {
                "start_time": 35.1477273,
                "end_time": 35.4363636,
                "pitch": 86,
                "velocity": 51,
                "duration": 0.2886364,
                "tempo": 120.0
            },
            {
                "start_time": 35.4545455,
                "end_time": 35.7431818,
                "pitch": 89,
                "velocity": 51,
                "duration": 0.2886364,
                "tempo": 120.0
            },
            {
                "start_time": 35.7590909,
                "end_time": 35.8590909,
                "pitch": 94,
                "velocity": 51,
                "duration": 0.1,
                "tempo": 120.0
            },
            {
                "start_time": 36.2045455,
                "end_time": 36.3363636,
                "pitch": 91,
                "velocity": 51,
                "duration": 0.1318182,
                "tempo": 120.0
            },
            {
                "start_time": 36.3545455,
                "end_time": 36.6409091,
                "pitch": 87,
                "velocity": 51,
                "duration": 0.2863636,
                "tempo": 120.0
            },
            {
                "start_time": 36.6568182,
                "end_time": 36.9431818,
                "pitch": 91,
                "velocity": 51,
                "duration": 0.2863636,
                "tempo": 120.0
            },
            {
                "start_time": 36.9590909,
                "end_time": 37.0954545,
                "pitch": 87,
                "velocity": 51,
                "duration": 0.1363636,
                "tempo": 120.0
            },
            {
                "start_time": 37.1113636,
                "end_time": 37.2454545,
                "pitch": 82,
                "velocity": 51,
                "duration": 0.1340909,
                "tempo": 120.0
            },
            {
                "start_time": 37.2636364,
                "end_time": 37.6,
                "pitch": 87,
                "velocity": 51,
                "duration": 0.3363636,
                "tempo": 120.0
            },
            {
                "start_time": 38.4886364,
                "end_time": 38.6204545,
                "pitch": 87,
                "velocity": 51,
                "duration": 0.1318182,
                "tempo": 120.0
            },
            {
                "start_time": 38.6363636,
                "end_time": 38.7681818,
                "pitch": 94,
                "velocity": 51,
                "duration": 0.1318182,
                "tempo": 120.0
            },
            {
                "start_time": 38.7840909,
                "end_time": 38.9159091,
                "pitch": 91,
                "velocity": 51,
                "duration": 0.1318182,
                "tempo": 120.0
            },
            {
                "start_time": 38.9340909,
                "end_time": 39.0659091,
                "pitch": 87,
                "velocity": 51,
                "duration": 0.1318182,
                "tempo": 120.0
            },
            {
                "start_time": 39.0818182,
                "end_time": 39.2136364,
                "pitch": 94,
                "velocity": 51,
                "duration": 0.1318182,
                "tempo": 120.0
            },
            {
                "start_time": 39.2295455,
                "end_time": 39.3636364,
                "pitch": 91,
                "velocity": 51,
                "duration": 0.1340909,
                "tempo": 120.0
            },
            {
                "start_time": 39.3795455,
                "end_time": 39.5136364,
                "pitch": 87,
                "velocity": 51,
                "duration": 0.1340909,
                "tempo": 120.0
            },
            {
                "start_time": 39.5295455,
                "end_time": 39.6659091,
                "pitch": 94,
                "velocity": 51,
                "duration": 0.1363636,
                "tempo": 120.0
            },
            {
                "start_time": 39.6818182,
                "end_time": 39.8159091,
                "pitch": 91,
                "velocity": 51,
                "duration": 0.1340909,
                "tempo": 120.0
            },
            {
                "start_time": 39.8340909,
                "end_time": 39.9681818,
                "pitch": 87,
                "velocity": 51,
                "duration": 0.1340909,
                "tempo": 120.0
            },
            {
                "start_time": 39.9840909,
                "end_time": 40.1204545,
                "pitch": 94,
                "velocity": 51,
                "duration": 0.1363636,
                "tempo": 120.0
            },
            {
                "start_time": 40.1363636,
                "end_time": 40.4227273,
                "pitch": 91,
                "velocity": 51,
                "duration": 0.2863636,
                "tempo": 120.0
            },
            {
                "start_time": 40.4386364,
                "end_time": 40.575,
                "pitch": 87,
                "velocity": 51,
                "duration": 0.1363636,
                "tempo": 120.0
            },
            {
                "start_time": 40.5909091,
                "end_time": 40.725,
                "pitch": 87,
                "velocity": 51,
                "duration": 0.1340909,
                "tempo": 120.0
            },
            {
                "start_time": 41.1909091,
                "end_time": 41.325,
                "pitch": 82,
                "velocity": 51,
                "duration": 0.1340909,
                "tempo": 120.0
            },
            {
                "start_time": 41.3431818,
                "end_time": 41.4772727,
                "pitch": 86,
                "velocity": 51,
                "duration": 0.1340909,
                "tempo": 120.0
            },
            {
                "start_time": 41.4931818,
                "end_time": 41.7795455,
                "pitch": 89,
                "velocity": 51,
                "duration": 0.2863636,
                "tempo": 120.0
            },
            {
                "start_time": 41.7977273,
                "end_time": 41.9318182,
                "pitch": 89,
                "velocity": 51,
                "duration": 0.1340909,
                "tempo": 120.0
            },
            {
                "start_time": 41.9477273,
                "end_time": 42.2340909,
                "pitch": 89,
                "velocity": 51,
                "duration": 0.2863636,
                "tempo": 120.0
            },
            {
                "start_time": 42.2522727,
                "end_time": 42.3863636,
                "pitch": 92,
                "velocity": 51,
                "duration": 0.1340909,
                "tempo": 120.0
            },
            {
                "start_time": 42.4022727,
                "end_time": 42.5386364,
                "pitch": 89,
                "velocity": 51,
                "duration": 0.1363636,
                "tempo": 120.0
            },
            {
                "start_time": 42.5568182,
                "end_time": 42.9136364,
                "pitch": 86,
                "velocity": 51,
                "duration": 0.3568182,
                "tempo": 120.0
            },
            {
                "start_time": 43.6090909,
                "end_time": 43.8931818,
                "pitch": 84,
                "velocity": 51,
                "duration": 0.2840909,
                "tempo": 120.0
            },
            {
                "start_time": 43.9090909,
                "end_time": 44.1931818,
                "pitch": 87,
                "velocity": 51,
                "duration": 0.2840909,
                "tempo": 120.0
            },
            {
                "start_time": 44.2090909,
                "end_time": 44.4954545,
                "pitch": 91,
                "velocity": 51,
                "duration": 0.2863636,
                "tempo": 120.0
            },
            {
                "start_time": 44.5136364,
                "end_time": 44.6477273,
                "pitch": 91,
                "velocity": 51,
                "duration": 0.1340909,
                "tempo": 120.0
            },
            {
                "start_time": 44.6636364,
                "end_time": 44.7977273,
                "pitch": 91,
                "velocity": 51,
                "duration": 0.1340909,
                "tempo": 120.0
            },
            {
                "start_time": 44.8159091,
                "end_time": 44.9522727,
                "pitch": 84,
                "velocity": 51,
                "duration": 0.1363636,
                "tempo": 120.0
            },
            {
                "start_time": 44.9681818,
                "end_time": 45.2568182,
                "pitch": 89,
                "velocity": 51,
                "duration": 0.2886364,
                "tempo": 120.0
            },
            {
                "start_time": 45.275,
                "end_time": 45.4113636,
                "pitch": 87,
                "velocity": 51,
                "duration": 0.1363636,
                "tempo": 120.0
            },
            {
                "start_time": 45.4272727,
                "end_time": 45.5590909,
                "pitch": 86,
                "velocity": 51,
                "duration": 0.1318182,
                "tempo": 120.0
            },
            {
                "start_time": 45.5772727,
                "end_time": 45.625,
                "pitch": 84,
                "velocity": 51,
                "duration": 0.0477273,
                "tempo": 120.0
            },
            {
                "start_time": 46.0227273,
                "end_time": 46.1568182,
                "pitch": 80,
                "velocity": 51,
                "duration": 0.1340909,
                "tempo": 120.0
            },
            {
                "start_time": 46.175,
                "end_time": 46.3113636,
                "pitch": 84,
                "velocity": 51,
                "duration": 0.1363636,
                "tempo": 120.0
            },
            {
                "start_time": 46.3272727,
                "end_time": 46.4636364,
                "pitch": 87,
                "velocity": 51,
                "duration": 0.1363636,
                "tempo": 120.0
            },
            {
                "start_time": 46.4818182,
                "end_time": 46.6159091,
                "pitch": 82,
                "velocity": 51,
                "duration": 0.1340909,
                "tempo": 120.0
            },
            {
                "start_time": 46.6340909,
                "end_time": 46.7659091,
                "pitch": 86,
                "velocity": 51,
                "duration": 0.1318182,
                "tempo": 120.0
            },
            {
                "start_time": 46.7818182,
                "end_time": 46.9136364,
                "pitch": 89,
                "velocity": 51,
                "duration": 0.1318182,
                "tempo": 120.0
            },
            {
                "start_time": 46.9318182,
                "end_time": 47.0636364,
                "pitch": 84,
                "velocity": 51,
                "duration": 0.1318182,
                "tempo": 120.0
            },
            {
                "start_time": 47.0795455,
                "end_time": 47.2113636,
                "pitch": 87,
                "velocity": 51,
                "duration": 0.1318182,
                "tempo": 120.0
            },
            {
                "start_time": 47.2272727,
                "end_time": 47.3613636,
                "pitch": 91,
                "velocity": 51,
                "duration": 0.1340909,
                "tempo": 120.0
            },
            {
                "start_time": 47.3795455,
                "end_time": 47.6659091,
                "pitch": 92,
                "velocity": 51,
                "duration": 0.2863636,
                "tempo": 120.0
            },
            {
                "start_time": 47.6818182,
                "end_time": 47.8159091,
                "pitch": 91,
                "velocity": 51,
                "duration": 0.1340909,
                "tempo": 120.0
            },
            {
                "start_time": 47.8340909,
                "end_time": 47.9681818,
                "pitch": 89,
                "velocity": 51,
                "duration": 0.1340909,
                "tempo": 120.0
            },
            {
                "start_time": 47.9863636,
                "end_time": 48.1204545,
                "pitch": 87,
                "velocity": 51,
                "duration": 0.1340909,
                "tempo": 120.0
            },
            {
                "start_time": 48.1363636,
                "end_time": 48.2704545,
                "pitch": 87,
                "velocity": 51,
                "duration": 0.1340909,
                "tempo": 120.0
            },
            {
                "start_time": 48.2886364,
                "end_time": 48.4227273,
                "pitch": 94,
                "velocity": 51,
                "duration": 0.1340909,
                "tempo": 120.0
            },
            {
                "start_time": 48.4409091,
                "end_time": 48.575,
                "pitch": 91,
                "velocity": 51,
                "duration": 0.1340909,
                "tempo": 120.0
            },
            {
                "start_time": 48.5909091,
                "end_time": 48.725,
                "pitch": 87,
                "velocity": 51,
                "duration": 0.1340909,
                "tempo": 120.0
            },
            {
                "start_time": 48.7431818,
                "end_time": 48.8772727,
                "pitch": 94,
                "velocity": 51,
                "duration": 0.1340909,
                "tempo": 120.0
            },
            {
                "start_time": 48.8954545,
                "end_time": 49.0295455,
                "pitch": 91,
                "velocity": 51,
                "duration": 0.1340909,
                "tempo": 120.0
            },
            {
                "start_time": 49.0454545,
                "end_time": 49.1795455,
                "pitch": 87,
                "velocity": 51,
                "duration": 0.1340909,
                "tempo": 120.0
            },
            {
                "start_time": 49.1977273,
                "end_time": 49.3318182,
                "pitch": 94,
                "velocity": 51,
                "duration": 0.1340909,
                "tempo": 120.0
            },
            {
                "start_time": 49.35,
                "end_time": 49.4840909,
                "pitch": 91,
                "velocity": 51,
                "duration": 0.1340909,
                "tempo": 120.0
            },
            {
                "start_time": 49.5,
                "end_time": 49.6340909,
                "pitch": 87,
                "velocity": 51,
                "duration": 0.1340909,
                "tempo": 120.0
            },
            {
                "start_time": 49.6522727,
                "end_time": 49.7886364,
                "pitch": 94,
                "velocity": 51,
                "duration": 0.1363636,
                "tempo": 120.0
            },
            {
                "start_time": 49.8045455,
                "end_time": 50.0931818,
                "pitch": 91,
                "velocity": 51,
                "duration": 0.2886364,
                "tempo": 120.0
            },
            {
                "start_time": 50.1113636,
                "end_time": 50.2477273,
                "pitch": 87,
                "velocity": 51,
                "duration": 0.1363636,
                "tempo": 120.0
            },
            {
                "start_time": 50.2636364,
                "end_time": 50.3954545,
                "pitch": 87,
                "velocity": 51,
                "duration": 0.1318182,
                "tempo": 120.0
            },
            {
                "start_time": 50.8590909,
                "end_time": 50.9931818,
                "pitch": 82,
                "velocity": 51,
                "duration": 0.1340909,
                "tempo": 120.0
            },
            {
                "start_time": 51.0090909,
                "end_time": 51.1454545,
                "pitch": 86,
                "velocity": 51,
                "duration": 0.1363636,
                "tempo": 120.0
            },
            {
                "start_time": 51.1613636,
                "end_time": 51.4477273,
                "pitch": 89,
                "velocity": 51,
                "duration": 0.2863636,
                "tempo": 120.0
            },
            {
                "start_time": 51.4636364,
                "end_time": 51.6,
                "pitch": 89,
                "velocity": 51,
                "duration": 0.1363636,
                "tempo": 120.0
            },
            {
                "start_time": 51.6159091,
                "end_time": 51.9022727,
                "pitch": 89,
                "velocity": 51,
                "duration": 0.2863636,
                "tempo": 120.0
            },
            {
                "start_time": 51.9181818,
                "end_time": 52.0545455,
                "pitch": 92,
                "velocity": 51,
                "duration": 0.1363636,
                "tempo": 120.0
            },
            {
                "start_time": 52.0704545,
                "end_time": 52.2068182,
                "pitch": 89,
                "velocity": 51,
                "duration": 0.1363636,
                "tempo": 120.0
            },
            {
                "start_time": 52.2227273,
                "end_time": 52.5795455,
                "pitch": 86,
                "velocity": 51,
                "duration": 0.3568182,
                "tempo": 120.0
            },
            {
                "start_time": 53.2772727,
                "end_time": 53.5636364,
                "pitch": 84,
                "velocity": 51,
                "duration": 0.2863636,
                "tempo": 120.0
            },
            {
                "start_time": 53.5795455,
                "end_time": 53.7136364,
                "pitch": 87,
                "velocity": 51,
                "duration": 0.1340909,
                "tempo": 120.0
            },
            {
                "start_time": 53.7318182,
                "end_time": 54.1681818,
                "pitch": 91,
                "velocity": 51,
                "duration": 0.4363636,
                "tempo": 120.0
            },
            {
                "start_time": 54.1863636,
                "end_time": 54.4727273,
                "pitch": 86,
                "velocity": 51,
                "duration": 0.2863636,
                "tempo": 120.0
            },
            {
                "start_time": 54.4886364,
                "end_time": 54.7772727,
                "pitch": 86,
                "velocity": 51,
                "duration": 0.2886364,
                "tempo": 120.0
            },
            {
                "start_time": 54.7954545,
                "end_time": 55.0840909,
                "pitch": 89,
                "velocity": 51,
                "duration": 0.2886364,
                "tempo": 120.0
            },
            {
                "start_time": 55.1,
                "end_time": 55.2,
                "pitch": 94,
                "velocity": 51,
                "duration": 0.1,
                "tempo": 120.0
            },
            {
                "start_time": 55.5454545,
                "end_time": 55.6772727,
                "pitch": 91,
                "velocity": 51,
                "duration": 0.1318182,
                "tempo": 120.0
            },
            {
                "start_time": 55.6954545,
                "end_time": 55.9772727,
                "pitch": 87,
                "velocity": 51,
                "duration": 0.2818182,
                "tempo": 120.0
            },
            {
                "start_time": 55.9954545,
                "end_time": 56.2772727,
                "pitch": 91,
                "velocity": 51,
                "duration": 0.2818182,
                "tempo": 120.0
            },
            {
                "start_time": 56.2954545,
                "end_time": 56.4295455,
                "pitch": 87,
                "velocity": 51,
                "duration": 0.1340909,
                "tempo": 120.0
            },
            {
                "start_time": 56.4454545,
                "end_time": 56.5818182,
                "pitch": 82,
                "velocity": 51,
                "duration": 0.1363636,
                "tempo": 120.0
            },
            {
                "start_time": 56.5977273,
                "end_time": 56.9340909,
                "pitch": 87,
                "velocity": 51,
                "duration": 0.3363636,
                "tempo": 120.0
            }
        ]
    }
}